<?xml version="1.0" encoding="UTF-8" standalone="no"?>
<!DOCTYPE svg PUBLIC "-//W3C//DTD SVG 1.1//EN"
 "http://www.w3.org/Graphics/SVG/1.1/DTD/svg11.dtd">
<!-- Generated by graphviz version 2.38.0 (20140413.2041)
 -->
<!-- Title: add Pages: 1 -->
<svg width="88pt" height="404pt"
 viewBox="0.00 0.00 87.66 404.00" xmlns="http://www.w3.org/2000/svg" xmlns:xlink="http://www.w3.org/1999/xlink">
<g id="graph0" class="graph" transform="scale(1 1) rotate(0) translate(4 400)">
<title>add</title>
<polygon fill="white" stroke="none" points="-4,4 -4,-400 83.6574,-400 83.6574,4 -4,4"/>
<!-- start -->
<g id="node1" class="node"><title>start</title>
<polygon fill="none" stroke="black" points="66.8287,-396 12.8287,-396 12.8287,-360 66.8287,-360 66.8287,-396"/>
<text text-anchor="middle" x="39.8287" y="-373.8" font-family="Times,serif" font-size="14.00">Start</text>
</g>
<!-- node476 -->
<g id="node6" class="node"><title>node476</title>
<ellipse fill="none" stroke="black" cx="39.8287" cy="-306" rx="39.6581" ry="18"/>
<text text-anchor="middle" x="39.8287" y="-301.8" font-family="Times,serif" font-size="14.00">&quot;ADD&quot;</text>
</g>
<!-- start&#45;&gt;node476 -->
<g id="edge5" class="edge"><title>start&#45;&gt;node476</title>
<path fill="none" stroke="black" d="M39.8287,-359.697C39.8287,-351.983 39.8287,-342.712 39.8287,-334.112"/>
<polygon fill="black" stroke="black" points="43.3288,-334.104 39.8287,-324.104 36.3288,-334.104 43.3288,-334.104"/>
</g>
<!-- end -->
<g id="node2" class="node"><title>end</title>
<polygon fill="none" stroke="black" points="66.8287,-36 12.8287,-36 12.8287,-0 66.8287,-0 66.8287,-36"/>
<text text-anchor="middle" x="39.8287" y="-13.8" font-family="Times,serif" font-size="14.00">End</text>
</g>
<!-- node473 -->
<g id="node3" class="node"><title>node473</title>
<g id="a_node3"><a xlink:href="reuse_target.svg" xlink:title="&lt;u&gt;target&lt;/u&gt;">
<ellipse fill="none" stroke="black" cx="39.8287" cy="-90" rx="33.0411" ry="18"/>
<text text-anchor="start" x="23.8932" y="-86.8" font-family="Times,serif" text-decoration="underline" font-size="14.00" fill="blue">target</text>
</a>
</g>
</g>
<!-- node473&#45;&gt;end -->
<g id="edge1" class="edge"><title>node473&#45;&gt;end</title>
<path fill="none" stroke="black" d="M39.8287,-71.6966C39.8287,-63.9827 39.8287,-54.7125 39.8287,-46.1124"/>
<polygon fill="black" stroke="black" points="43.3288,-46.1043 39.8287,-36.1043 36.3288,-46.1044 43.3288,-46.1043"/>
</g>
<!-- node474 -->
<g id="node4" class="node"><title>node474</title>
<ellipse fill="none" stroke="black" cx="39.8287" cy="-162" rx="31.5723" ry="18"/>
<text text-anchor="middle" x="39.8287" y="-157.8" font-family="Times,serif" font-size="14.00">&quot;TO&quot;</text>
</g>
<!-- node474&#45;&gt;node473 -->
<g id="edge2" class="edge"><title>node474&#45;&gt;node473</title>
<path fill="none" stroke="black" d="M39.8287,-143.697C39.8287,-135.983 39.8287,-126.712 39.8287,-118.112"/>
<polygon fill="black" stroke="black" points="43.3288,-118.104 39.8287,-108.104 36.3288,-118.104 43.3288,-118.104"/>
</g>
<!-- node475 -->
<g id="node5" class="node"><title>node475</title>
<g id="a_node5"><a xlink:href="reuse_source.svg" xlink:title="&lt;u&gt;source&lt;/u&gt;">
<ellipse fill="none" stroke="black" cx="39.8287" cy="-234" rx="36.4761" ry="18"/>
<text text-anchor="start" x="21.5615" y="-230.8" font-family="Times,serif" text-decoration="underline" font-size="14.00" fill="blue">source</text>
</a>
</g>
</g>
<!-- node475&#45;&gt;node474 -->
<g id="edge3" class="edge"><title>node475&#45;&gt;node474</title>
<path fill="none" stroke="black" d="M39.8287,-215.697C39.8287,-207.983 39.8287,-198.712 39.8287,-190.112"/>
<polygon fill="black" stroke="black" points="43.3288,-190.104 39.8287,-180.104 36.3288,-190.104 43.3288,-190.104"/>
</g>
<!-- node476&#45;&gt;node475 -->
<g id="edge4" class="edge"><title>node476&#45;&gt;node475</title>
<path fill="none" stroke="black" d="M39.8287,-287.697C39.8287,-279.983 39.8287,-270.712 39.8287,-262.112"/>
<polygon fill="black" stroke="black" points="43.3288,-262.104 39.8287,-252.104 36.3288,-262.104 43.3288,-262.104"/>
</g>
</g>
</svg>
