<?xml version="1.0" encoding="UTF-8" standalone="no"?>
<!DOCTYPE svg PUBLIC "-//W3C//DTD SVG 1.1//EN"
 "http://www.w3.org/Graphics/SVG/1.1/DTD/svg11.dtd">
<!-- Generated by graphviz version 2.38.0 (20140413.2041)
 -->
<!-- Title: add Pages: 1 -->
<svg width="254pt" height="404pt"
 viewBox="0.00 0.00 253.66 404.00" xmlns="http://www.w3.org/2000/svg" xmlns:xlink="http://www.w3.org/1999/xlink">
<g id="graph0" class="graph" transform="scale(1 1) rotate(0) translate(4 400)">
<title>add</title>
<polygon fill="white" stroke="none" points="-4,4 -4,-400 249.662,-400 249.662,4 -4,4"/>
<!-- start -->
<g id="node1" class="node"><title>start</title>
<ellipse fill="none" stroke="black" cx="122.831" cy="-378" rx="29.049" ry="18"/>
<text text-anchor="middle" x="122.831" y="-373.8" font-family="Times,serif" font-size="14.00">Start</text>
</g>
<!-- node50 -->
<g id="node6" class="node"><title>node50</title>
<ellipse fill="none" stroke="black" cx="122.831" cy="-306" rx="39.6581" ry="18"/>
<text text-anchor="middle" x="122.831" y="-301.8" font-family="Times,serif" font-size="14.00">&quot;ADD&quot;</text>
</g>
<!-- start&#45;&gt;node50 -->
<g id="edge5" class="edge"><title>start&#45;&gt;node50</title>
<path fill="none" stroke="black" d="M122.831,-359.697C122.831,-351.983 122.831,-342.712 122.831,-334.112"/>
<polygon fill="black" stroke="black" points="126.331,-334.104 122.831,-324.104 119.331,-334.104 126.331,-334.104"/>
</g>
<!-- end -->
<g id="node2" class="node"><title>end</title>
<ellipse fill="none" stroke="black" cx="122.831" cy="-18" rx="27" ry="18"/>
<text text-anchor="middle" x="122.831" y="-13.8" font-family="Times,serif" font-size="14.00">End</text>
</g>
<!-- node47 -->
<g id="node3" class="node"><title>node47</title>
<ellipse fill="none" stroke="black" cx="122.831" cy="-90" rx="122.662" ry="18"/>
<text text-anchor="middle" x="122.831" y="-85.8" font-family="Times,serif" font-size="14.00">^\w+((&#45;&gt;|=&gt;|&#45;)\w+)*|&lt;\w+&gt;$</text>
</g>
<!-- node47&#45;&gt;end -->
<g id="edge1" class="edge"><title>node47&#45;&gt;end</title>
<path fill="none" stroke="black" d="M122.831,-71.6966C122.831,-63.9827 122.831,-54.7125 122.831,-46.1124"/>
<polygon fill="black" stroke="black" points="126.331,-46.1043 122.831,-36.1043 119.331,-46.1044 126.331,-46.1043"/>
</g>
<!-- node48 -->
<g id="node4" class="node"><title>node48</title>
<ellipse fill="none" stroke="black" cx="122.831" cy="-162" rx="31.5723" ry="18"/>
<text text-anchor="middle" x="122.831" y="-157.8" font-family="Times,serif" font-size="14.00">&quot;TO&quot;</text>
</g>
<!-- node48&#45;&gt;node47 -->
<g id="edge2" class="edge"><title>node48&#45;&gt;node47</title>
<path fill="none" stroke="black" d="M122.831,-143.697C122.831,-135.983 122.831,-126.712 122.831,-118.112"/>
<polygon fill="black" stroke="black" points="126.331,-118.104 122.831,-108.104 119.331,-118.104 126.331,-118.104"/>
</g>
<!-- node49 -->
<g id="node5" class="node"><title>node49</title>
<ellipse fill="none" stroke="black" cx="122.831" cy="-234" rx="27" ry="18"/>
<text text-anchor="middle" x="122.831" y="-229.8" font-family="Times,serif" font-size="14.00">.*</text>
</g>
<!-- node49&#45;&gt;node48 -->
<g id="edge3" class="edge"><title>node49&#45;&gt;node48</title>
<path fill="none" stroke="black" d="M122.831,-215.697C122.831,-207.983 122.831,-198.712 122.831,-190.112"/>
<polygon fill="black" stroke="black" points="126.331,-190.104 122.831,-180.104 119.331,-190.104 126.331,-190.104"/>
</g>
<!-- node50&#45;&gt;node49 -->
<g id="edge4" class="edge"><title>node50&#45;&gt;node49</title>
<path fill="none" stroke="black" d="M122.831,-287.697C122.831,-279.983 122.831,-270.712 122.831,-262.112"/>
<polygon fill="black" stroke="black" points="126.331,-262.104 122.831,-252.104 119.331,-262.104 126.331,-262.104"/>
</g>
</g>
</svg>
