<svg xmlns="http://www.w3.org/2000/svg" xmlns:xlink="http://www.w3.org/1999/xlink" class="railroad-diagram" width="408" height="62" viewBox="0 0 408 62">
<defs>
<style type="text/css"><![CDATA[
path {
stroke-width: 3;
stroke: black;
fill: rgba(0,0,0,0);
}
text {
font: bold 14px monospace;
text-anchor: middle;
}
text.diagram-text {
font-size: 12px;
}
a {
fill: blue;
}
text.diagram-arrow {
font-size: 16px;
}
text.label {
text-anchor: start;
}
text.comment {
font: italic 12px monospace;
}
rect {
stroke-width: 3;
stroke: black;
fill: #BCBCBC;
}
path.diagram-text {
stroke-width: 3;
stroke: black;
fill: #BCBCBC;
cursor: help;
}
]]></style>
</defs>
<g transform="translate(.5 .5)">
<path d="M 20 21 v 20 m 10 -20 v 20 m -10 -10 h 20.5"></path>
<path d="M40 31h10"></path>
<g>
<path d="M50 31h0"></path>
<path d="M358 31h0"></path>
<g class="terminal">
<path d="M50 31h0"></path>
<path d="M110 31h0"></path>
<rect x="50" y="20" width="60" height="22" rx="10" ry="10"></rect>
<text x="80" y="35">"ADD"</text>
</g>
<path d="M110 31h10"></path>
<path d="M120 31h10"></path>
<g class="non-terminal">
<path d="M130 31h0"></path>
<path d="M198 31h0"></path>
<rect x="130" y="20" width="68" height="22"></rect>
<a xlink:href="reuse_source.svg"><text x="164" y="35">Source</text>
</a>
</g>
<path d="M198 31h10"></path>
<path d="M208 31h10"></path>
<g class="terminal">
<path d="M218 31h0"></path>
<path d="M270 31h0"></path>
<rect x="218" y="20" width="52" height="22" rx="10" ry="10"></rect>
<text x="244" y="35">"TO"</text>
</g>
<path d="M270 31h10"></path>
<path d="M280 31h10"></path>
<g class="non-terminal">
<path d="M290 31h0"></path>
<path d="M358 31h0"></path>
<rect x="290" y="20" width="68" height="22"></rect>
<a xlink:href="reuse_target.svg"><text x="324" y="35">Target</text>
</a>
</g>
</g>
<path d="M358 31h10"></path>
<path d="M 368 31 h 20 m -10 -10 v 20 m 10 -20 v 20"></path>
</g>
</svg>
