<svg xmlns="http://www.w3.org/2000/svg" xmlns:xlink="http://www.w3.org/1999/xlink" class="railroad-diagram" width="958" height="118" viewBox="0 0 958 118">
<defs>
<style type="text/css"><![CDATA[
path {
stroke-width: 3;
stroke: black;
fill: rgba(0,0,0,0);
}
text {
font: bold 14px monospace;
text-anchor: middle;
}
text.diagram-text {
font-size: 12px;
}
a {
fill: blue;
}
text.diagram-arrow {
font-size: 16px;
}
text.label {
text-anchor: start;
}
text.comment {
font: italic 12px monospace;
}
rect {
stroke-width: 3;
stroke: black;
fill: #BCBCBC;
}
path.diagram-text {
stroke-width: 3;
stroke: black;
fill: #BCBCBC;
cursor: help;
}
]]></style>
</defs>
<g transform="translate(.5 .5)">
<path d="M 20 38 v 20 m 10 -20 v 20 m -10 -10 h 20.5"></path>
<path d="M40 48h10"></path>
<g>
<path d="M50 48h0"></path>
<path d="M908 48h0"></path>
<g class="terminal">
<path d="M50 48h0"></path>
<path d="M134 48h0"></path>
<rect x="50" y="37" width="84" height="22" rx="10" ry="10"></rect>
<text x="92" y="52">"APPEND"</text>
</g>
<path d="M134 48h10"></path>
<g>
<path d="M144 48h0"></path>
<path d="M402 48h0"></path>
<path d="M144 48h20"></path>
<g class="terminal">
<path d="M164 48h0"></path>
<path d="M296 48h86"></path>
<rect x="164" y="37" width="132" height="22" rx="10" ry="10"></rect>
<text x="230" y="52">"INITIAL LINE"</text>
</g>
<path d="M382 48h20"></path>
<path d="M144 48a10 10 0 0 1 10 10v19a10 10 0 0 0 10 10"></path>
<g>
<path d="M164 87h0"></path>
<path d="M382 87h0"></path>
<g>
<path d="M164 87h0"></path>
<path d="M304 87h0"></path>
<path d="M164 87a10 10 0 0 0 10 -10v0a10 10 0 0 1 10 -10"></path>
<g>
<path d="M184 67h100"></path>
</g>
<path d="M284 67a10 10 0 0 1 10 10v0a10 10 0 0 0 10 10"></path>
<path d="M164 87h20"></path>
<g class="terminal">
<path d="M184 87h0"></path>
<path d="M284 87h0"></path>
<rect x="184" y="76" width="100" height="22" rx="10" ry="10"></rect>
<text x="234" y="91">"LINES OF"</text>
</g>
<path d="M284 87h20"></path>
</g>
<path d="M304 87h10"></path>
<g class="non-terminal">
<path d="M314 87h0"></path>
<path d="M382 87h0"></path>
<rect x="314" y="76" width="68" height="22"></rect>
<a xlink:href="reuse_Source.svg"><text x="348" y="91">Source</text>
</a>
</g>
</g>
<path d="M382 87a10 10 0 0 0 10 -10v-19a10 10 0 0 1 10 -10"></path>
</g>
<g>
<path d="M402 48h0"></path>
<path d="M908 48h0"></path>
<path d="M402 48a10 10 0 0 0 10 -10v-8a10 10 0 0 1 10 -10"></path>
<g>
<path d="M422 20h466"></path>
</g>
<path d="M888 20a10 10 0 0 1 10 10v8a10 10 0 0 0 10 10"></path>
<path d="M402 48h20"></path>
<g>
<path d="M422 48h0"></path>
<path d="M888 48h0"></path>
<g class="terminal">
<path d="M422 48h0"></path>
<path d="M474 48h0"></path>
<rect x="422" y="37" width="52" height="22" rx="10" ry="10"></rect>
<text x="448" y="52">"TO"</text>
</g>
<path d="M474 48h10"></path>
<path d="M484 48h10"></path>
<g class="non-terminal">
<path d="M494 48h0"></path>
<path d="M562 48h0"></path>
<rect x="494" y="37" width="68" height="22"></rect>
<a xlink:href="reuse_Target.svg"><text x="528" y="52">Target</text>
</a>
</g>
<path d="M562 48h10"></path>
<g>
<path d="M572 48h0"></path>
<path d="M888 48h0"></path>
<path d="M572 48a10 10 0 0 0 10 -10v0a10 10 0 0 1 10 -10"></path>
<g>
<path d="M592 28h276"></path>
</g>
<path d="M868 28a10 10 0 0 1 10 10v0a10 10 0 0 0 10 10"></path>
<path d="M572 48h20"></path>
<g>
<path d="M592 48h0"></path>
<path d="M868 48h0"></path>
<path d="M592 48h20"></path>
<g>
<path d="M612 48h0"></path>
<path d="M808 48h40"></path>
<g class="terminal">
<path d="M612 48h0"></path>
<path d="M720 48h0"></path>
<rect x="612" y="37" width="108" height="22" rx="10" ry="10"></rect>
<text x="666" y="52">"ASSIGNING"</text>
</g>
<path d="M720 48h10"></path>
<path d="M730 48h10"></path>
<g class="non-terminal">
<path d="M740 48h0"></path>
<path d="M808 48h0"></path>
<rect x="740" y="37" width="68" height="22"></rect>
<a xlink:href="reuse_Target.svg"><text x="774" y="52">Target</text>
</a>
</g>
</g>
<path d="M848 48h20"></path>
<path d="M592 48a10 10 0 0 1 10 10v10a10 10 0 0 0 10 10"></path>
<g>
<path d="M612 78h0"></path>
<path d="M848 78h0"></path>
<g class="terminal">
<path d="M612 78h0"></path>
<path d="M760 78h0"></path>
<rect x="612" y="67" width="148" height="22" rx="10" ry="10"></rect>
<text x="686" y="82">"REFERENCE INTO"</text>
</g>
<path d="M760 78h10"></path>
<path d="M770 78h10"></path>
<g class="non-terminal">
<path d="M780 78h0"></path>
<path d="M848 78h0"></path>
<rect x="780" y="67" width="68" height="22"></rect>
<a xlink:href="reuse_Target.svg"><text x="814" y="82">Target</text>
</a>
</g>
</g>
<path d="M848 78a10 10 0 0 0 10 -10v-10a10 10 0 0 1 10 -10"></path>
</g>
<path d="M868 48h20"></path>
</g>
</g>
<path d="M888 48h20"></path>
</g>
</g>
<path d="M908 48h10"></path>
<path d="M 918 48 h 20 m -10 -10 v 20 m 10 -20 v 20"></path>
</g>
</svg>
