<svg xmlns="http://www.w3.org/2000/svg" xmlns:xlink="http://www.w3.org/1999/xlink" class="railroad-diagram" width="1314" height="118" viewBox="0 0 1314 118">
<defs>
<style type="text/css"><![CDATA[
path {
stroke-width: 3;
stroke: black;
fill: rgba(0,0,0,0);
}
text {
font: bold 14px monospace;
text-anchor: middle;
}
text.diagram-text {
font-size: 12px;
}
a {
fill: blue;
}
text.diagram-arrow {
font-size: 16px;
}
text.label {
text-anchor: start;
}
text.comment {
font: italic 12px monospace;
}
rect {
stroke-width: 3;
stroke: black;
fill: #BCBCBC;
}
path.diagram-text {
stroke-width: 3;
stroke: black;
fill: #BCBCBC;
cursor: help;
}
]]></style>
</defs>
<g transform="translate(.5 .5)">
<path d="M 20 38 v 20 m 10 -20 v 20 m -10 -10 h 20.5"></path>
<path d="M40 48h10"></path>
<g>
<path d="M50 48h0"></path>
<path d="M1264 48h0"></path>
<g class="terminal">
<path d="M50 48h0"></path>
<path d="M134 48h0"></path>
<rect x="50" y="37" width="84" height="22" rx="10" ry="10"></rect>
<text x="92" y="52">"APPEND"</text>
</g>
<path d="M134 48h10"></path>
<g>
<path d="M144 48h0"></path>
<path d="M402 48h0"></path>
<path d="M144 48h20"></path>
<g class="terminal">
<path d="M164 48h0"></path>
<path d="M296 48h86"></path>
<rect x="164" y="37" width="132" height="22" rx="10" ry="10"></rect>
<text x="230" y="52">"INITIAL LINE"</text>
</g>
<path d="M382 48h20"></path>
<path d="M144 48a10 10 0 0 1 10 10v19a10 10 0 0 0 10 10"></path>
<g>
<path d="M164 87h0"></path>
<path d="M382 87h0"></path>
<g>
<path d="M164 87h0"></path>
<path d="M304 87h0"></path>
<path d="M164 87a10 10 0 0 0 10 -10v0a10 10 0 0 1 10 -10"></path>
<g>
<path d="M184 67h100"></path>
</g>
<path d="M284 67a10 10 0 0 1 10 10v0a10 10 0 0 0 10 10"></path>
<path d="M164 87h20"></path>
<g class="terminal">
<path d="M184 87h0"></path>
<path d="M284 87h0"></path>
<rect x="184" y="76" width="100" height="22" rx="10" ry="10"></rect>
<text x="234" y="91">"LINES OF"</text>
</g>
<path d="M284 87h20"></path>
</g>
<path d="M304 87h10"></path>
<g class="non-terminal">
<path d="M314 87h0"></path>
<path d="M382 87h0"></path>
<rect x="314" y="76" width="68" height="22"></rect>
<a xlink:href="reuse_source.svg"><text x="348" y="91">Source</text>
</a>
</g>
</g>
<path d="M382 87a10 10 0 0 0 10 -10v-19a10 10 0 0 1 10 -10"></path>
</g>
<g>
<path d="M402 48h0"></path>
<path d="M758 48h0"></path>
<path d="M402 48a10 10 0 0 0 10 -10v0a10 10 0 0 1 10 -10"></path>
<g>
<path d="M422 28h316"></path>
</g>
<path d="M738 28a10 10 0 0 1 10 10v0a10 10 0 0 0 10 10"></path>
<path d="M402 48h20"></path>
<g>
<path d="M422 48h0"></path>
<path d="M738 48h0"></path>
<g class="terminal">
<path d="M422 48h0"></path>
<path d="M490 48h0"></path>
<rect x="422" y="37" width="68" height="22" rx="10" ry="10"></rect>
<text x="456" y="52">"FROM"</text>
</g>
<path d="M490 48h10"></path>
<path d="M500 48h10"></path>
<g class="non-terminal">
<path d="M510 48h0"></path>
<path d="M578 48h0"></path>
<rect x="510" y="37" width="68" height="22"></rect>
<a xlink:href="reuse_source.svg"><text x="544" y="52">Source</text>
</a>
</g>
<path d="M578 48h10"></path>
<path d="M588 48h10"></path>
<g class="terminal">
<path d="M598 48h0"></path>
<path d="M650 48h0"></path>
<rect x="598" y="37" width="52" height="22" rx="10" ry="10"></rect>
<text x="624" y="52">"TO"</text>
</g>
<path d="M650 48h10"></path>
<path d="M660 48h10"></path>
<g class="non-terminal">
<path d="M670 48h0"></path>
<path d="M738 48h0"></path>
<rect x="670" y="37" width="68" height="22"></rect>
<a xlink:href="reuse_source.svg"><text x="704" y="52">Source</text>
</a>
</g>
</g>
<path d="M738 48h20"></path>
</g>
<g>
<path d="M758 48h0"></path>
<path d="M1264 48h0"></path>
<path d="M758 48a10 10 0 0 0 10 -10v-8a10 10 0 0 1 10 -10"></path>
<g>
<path d="M778 20h466"></path>
</g>
<path d="M1244 20a10 10 0 0 1 10 10v8a10 10 0 0 0 10 10"></path>
<path d="M758 48h20"></path>
<g>
<path d="M778 48h0"></path>
<path d="M1244 48h0"></path>
<g class="terminal">
<path d="M778 48h0"></path>
<path d="M830 48h0"></path>
<rect x="778" y="37" width="52" height="22" rx="10" ry="10"></rect>
<text x="804" y="52">"TO"</text>
</g>
<path d="M830 48h10"></path>
<path d="M840 48h10"></path>
<g class="non-terminal">
<path d="M850 48h0"></path>
<path d="M918 48h0"></path>
<rect x="850" y="37" width="68" height="22"></rect>
<a xlink:href="reuse_target.svg"><text x="884" y="52">Target</text>
</a>
</g>
<path d="M918 48h10"></path>
<g>
<path d="M928 48h0"></path>
<path d="M1244 48h0"></path>
<path d="M928 48a10 10 0 0 0 10 -10v0a10 10 0 0 1 10 -10"></path>
<g>
<path d="M948 28h276"></path>
</g>
<path d="M1224 28a10 10 0 0 1 10 10v0a10 10 0 0 0 10 10"></path>
<path d="M928 48h20"></path>
<g>
<path d="M948 48h0"></path>
<path d="M1224 48h0"></path>
<path d="M948 48h20"></path>
<g>
<path d="M968 48h0"></path>
<path d="M1180 48h24"></path>
<g class="terminal">
<path d="M968 48h0"></path>
<path d="M1076 48h0"></path>
<rect x="968" y="37" width="108" height="22" rx="10" ry="10"></rect>
<text x="1022" y="52">"ASSIGNING"</text>
</g>
<path d="M1076 48h10"></path>
<path d="M1086 48h10"></path>
<g class="non-terminal">
<path d="M1096 48h0"></path>
<path d="M1180 48h0"></path>
<rect x="1096" y="37" width="84" height="22"></rect>
<a xlink:href="reuse_fstarget.svg"><text x="1138" y="52">FSTarget</text>
</a>
</g>
</g>
<path d="M1204 48h20"></path>
<path d="M948 48a10 10 0 0 1 10 10v10a10 10 0 0 0 10 10"></path>
<g>
<path d="M968 78h0"></path>
<path d="M1204 78h0"></path>
<g class="terminal">
<path d="M968 78h0"></path>
<path d="M1116 78h0"></path>
<rect x="968" y="67" width="148" height="22" rx="10" ry="10"></rect>
<text x="1042" y="82">"REFERENCE INTO"</text>
</g>
<path d="M1116 78h10"></path>
<path d="M1126 78h10"></path>
<g class="non-terminal">
<path d="M1136 78h0"></path>
<path d="M1204 78h0"></path>
<rect x="1136" y="67" width="68" height="22"></rect>
<a xlink:href="reuse_target.svg"><text x="1170" y="82">Target</text>
</a>
</g>
</g>
<path d="M1204 78a10 10 0 0 0 10 -10v-10a10 10 0 0 1 10 -10"></path>
</g>
<path d="M1224 48h20"></path>
</g>
</g>
<path d="M1244 48h20"></path>
</g>
</g>
<path d="M1264 48h10"></path>
<path d="M 1274 48 h 20 m -10 -10 v 20 m 10 -20 v 20"></path>
</g>
</svg>
