<?xml version="1.0" encoding="UTF-8" standalone="no"?>
<!DOCTYPE svg PUBLIC "-//W3C//DTD SVG 1.1//EN"
 "http://www.w3.org/Graphics/SVG/1.1/DTD/svg11.dtd">
<!-- Generated by graphviz version 2.38.0 (20140413.2041)
 -->
<!-- Title: append Pages: 1 -->
<svg width="275pt" height="620pt"
 viewBox="0.00 0.00 274.72 620.00" xmlns="http://www.w3.org/2000/svg" xmlns:xlink="http://www.w3.org/1999/xlink">
<g id="graph0" class="graph" transform="scale(1 1) rotate(0) translate(4 616)">
<title>append</title>
<polygon fill="white" stroke="none" points="-4,4 -4,-616 270.722,-616 270.722,4 -4,4"/>
<!-- start -->
<g id="node1" class="node"><title>start</title>
<ellipse fill="none" stroke="black" cx="116.7" cy="-594" rx="29.049" ry="18"/>
<text text-anchor="middle" x="116.7" y="-589.8" font-family="Times,serif" font-size="14.00">Start</text>
</g>
<!-- node44 -->
<g id="node10" class="node"><title>node44</title>
<ellipse fill="none" stroke="black" cx="116.7" cy="-522" rx="56.4294" ry="18"/>
<text text-anchor="middle" x="116.7" y="-517.8" font-family="Times,serif" font-size="14.00">&quot;APPEND&quot;</text>
</g>
<!-- start&#45;&gt;node44 -->
<g id="edge13" class="edge"><title>start&#45;&gt;node44</title>
<path fill="none" stroke="black" d="M116.7,-575.697C116.7,-567.983 116.7,-558.712 116.7,-550.112"/>
<polygon fill="black" stroke="black" points="120.2,-550.104 116.7,-540.104 113.2,-550.104 120.2,-550.104"/>
</g>
<!-- end -->
<g id="node2" class="node"><title>end</title>
<ellipse fill="none" stroke="black" cx="138.7" cy="-18" rx="27" ry="18"/>
<text text-anchor="middle" x="138.7" y="-13.8" font-family="Times,serif" font-size="14.00">End</text>
</g>
<!-- node37 -->
<g id="node3" class="node"><title>node37</title>
<ellipse fill="none" stroke="black" cx="186.7" cy="-90" rx="63.7203" ry="18"/>
<text text-anchor="middle" x="186.7" y="-85.8" font-family="Times,serif" font-size="14.00">^&lt;(\w|_)+&gt;?$</text>
</g>
<!-- node37&#45;&gt;end -->
<g id="edge1" class="edge"><title>node37&#45;&gt;end</title>
<path fill="none" stroke="black" d="M175.08,-72.055C169.132,-63.3808 161.787,-52.6694 155.258,-43.1473"/>
<polygon fill="black" stroke="black" points="158.096,-41.0974 149.554,-34.8294 152.323,-45.0561 158.096,-41.0974"/>
</g>
<!-- node38 -->
<g id="node4" class="node"><title>node38</title>
<ellipse fill="none" stroke="black" cx="190.7" cy="-162" rx="70.8752" ry="18"/>
<text text-anchor="middle" x="190.7" y="-157.8" font-family="Times,serif" font-size="14.00">&quot;ASSIGNING&quot;</text>
</g>
<!-- node38&#45;&gt;node37 -->
<g id="edge2" class="edge"><title>node38&#45;&gt;node37</title>
<path fill="none" stroke="black" d="M189.711,-143.697C189.27,-135.983 188.741,-126.712 188.249,-118.112"/>
<polygon fill="black" stroke="black" points="191.742,-117.888 187.677,-108.104 184.754,-118.288 191.742,-117.888"/>
</g>
<!-- node39 -->
<g id="node5" class="node"><title>node39</title>
<ellipse fill="none" stroke="black" cx="140.7" cy="-234" rx="122.662" ry="18"/>
<text text-anchor="middle" x="140.7" y="-229.8" font-family="Times,serif" font-size="14.00">^\w+((&#45;&gt;|=&gt;|&#45;)\w+)*|&lt;\w+&gt;$</text>
</g>
<!-- node39&#45;&gt;end -->
<g id="edge4" class="edge"><title>node39&#45;&gt;end</title>
<path fill="none" stroke="black" d="M127.973,-215.845C121.413,-205.923 114.093,-192.883 110.7,-180 106.431,-163.793 109.821,-87.767 113.7,-72 116.03,-62.5253 120.124,-52.7111 124.332,-44.1415"/>
<polygon fill="black" stroke="black" points="127.535,-45.5665 129.043,-35.0796 121.325,-42.3372 127.535,-45.5665"/>
</g>
<!-- node39&#45;&gt;node38 -->
<g id="edge3" class="edge"><title>node39&#45;&gt;node38</title>
<path fill="none" stroke="black" d="M152.803,-216.055C158.822,-207.629 166.214,-197.28 172.867,-187.966"/>
<polygon fill="black" stroke="black" points="175.743,-189.961 178.708,-179.789 170.047,-185.892 175.743,-189.961"/>
</g>
<!-- node40 -->
<g id="node6" class="node"><title>node40</title>
<ellipse fill="none" stroke="black" cx="140.7" cy="-306" rx="31.5723" ry="18"/>
<text text-anchor="middle" x="140.7" y="-301.8" font-family="Times,serif" font-size="14.00">&quot;TO&quot;</text>
</g>
<!-- node40&#45;&gt;node39 -->
<g id="edge5" class="edge"><title>node40&#45;&gt;node39</title>
<path fill="none" stroke="black" d="M140.7,-287.697C140.7,-279.983 140.7,-270.712 140.7,-262.112"/>
<polygon fill="black" stroke="black" points="144.2,-262.104 140.7,-252.104 137.2,-262.104 144.2,-262.104"/>
</g>
<!-- node41 -->
<g id="node7" class="node"><title>node41</title>
<ellipse fill="none" stroke="black" cx="78.6998" cy="-378" rx="78.9002" ry="18"/>
<text text-anchor="middle" x="78.6998" y="-373.8" font-family="Times,serif" font-size="14.00">&quot;INITIAL LINE&quot;</text>
</g>
<!-- node41&#45;&gt;node40 -->
<g id="edge6" class="edge"><title>node41&#45;&gt;node40</title>
<path fill="none" stroke="black" d="M93.7083,-360.055C101.739,-350.988 111.742,-339.694 120.453,-329.86"/>
<polygon fill="black" stroke="black" points="123.088,-332.163 127.098,-322.356 117.848,-327.522 123.088,-332.163"/>
</g>
<!-- node42 -->
<g id="node8" class="node"><title>node42</title>
<ellipse fill="none" stroke="black" cx="202.7" cy="-378" rx="27" ry="18"/>
<text text-anchor="middle" x="202.7" y="-373.8" font-family="Times,serif" font-size="14.00">.*</text>
</g>
<!-- node42&#45;&gt;node40 -->
<g id="edge7" class="edge"><title>node42&#45;&gt;node40</title>
<path fill="none" stroke="black" d="M189.551,-362.155C181.28,-352.816 170.437,-340.574 161.068,-329.997"/>
<polygon fill="black" stroke="black" points="163.509,-327.473 154.258,-322.308 158.268,-332.114 163.509,-327.473"/>
</g>
<!-- node42&#45;&gt;node42 -->
<g id="edge8" class="edge"><title>node42&#45;&gt;node42</title>
<path fill="none" stroke="black" d="M222.595,-390.432C235.388,-393.675 247.7,-389.531 247.7,-378 247.7,-369.622 241.2,-365.143 232.739,-364.564"/>
<polygon fill="black" stroke="black" points="232.202,-361.1 222.595,-365.568 232.891,-368.066 232.202,-361.1"/>
</g>
<!-- node43 -->
<g id="node9" class="node"><title>node43</title>
<ellipse fill="none" stroke="black" cx="205.7" cy="-450" rx="61.0436" ry="18"/>
<text text-anchor="middle" x="205.7" y="-445.8" font-family="Times,serif" font-size="14.00">&quot;LINES OF&quot;</text>
</g>
<!-- node43&#45;&gt;node42 -->
<g id="edge9" class="edge"><title>node43&#45;&gt;node42</title>
<path fill="none" stroke="black" d="M204.958,-431.697C204.628,-423.983 204.23,-414.712 203.862,-406.112"/>
<polygon fill="black" stroke="black" points="207.358,-405.945 203.433,-396.104 200.364,-406.245 207.358,-405.945"/>
</g>
<!-- node44&#45;&gt;node41 -->
<g id="edge10" class="edge"><title>node44&#45;&gt;node41</title>
<path fill="none" stroke="black" d="M112.116,-503.871C105.611,-479.564 93.6372,-434.819 85.9287,-406.013"/>
<polygon fill="black" stroke="black" points="89.266,-404.945 83.2998,-396.189 82.5039,-406.754 89.266,-404.945"/>
</g>
<!-- node44&#45;&gt;node42 -->
<g id="edge12" class="edge"><title>node44&#45;&gt;node42</title>
<path fill="none" stroke="black" d="M116.962,-503.995C117.979,-485.086 121.859,-454.278 135.7,-432 145.01,-417.015 160.132,-404.514 173.656,-395.423"/>
<polygon fill="black" stroke="black" points="175.688,-398.278 182.235,-389.949 171.923,-392.377 175.688,-398.278"/>
</g>
<!-- node44&#45;&gt;node43 -->
<g id="edge11" class="edge"><title>node44&#45;&gt;node43</title>
<path fill="none" stroke="black" d="M136.895,-505.116C148.872,-495.696 164.238,-483.611 177.409,-473.251"/>
<polygon fill="black" stroke="black" points="179.58,-475.997 185.276,-467.064 175.252,-470.495 179.58,-475.997"/>
</g>
</g>
</svg>
