<svg xmlns="http://www.w3.org/2000/svg" xmlns:xlink="http://www.w3.org/1999/xlink" class="railroad-diagram" width="928" height="110" viewBox="0 0 928 110">
<defs>
<style type="text/css"><![CDATA[
path {
stroke-width: 3;
stroke: black;
fill: rgba(0,0,0,0);
}
text {
font: bold 14px monospace;
text-anchor: middle;
}
text.diagram-text {
font-size: 12px;
}
a {
fill: blue;
}
text.diagram-arrow {
font-size: 16px;
}
text.label {
text-anchor: start;
}
text.comment {
font: italic 12px monospace;
}
rect {
stroke-width: 3;
stroke: black;
fill: #BCBCBC;
}
path.diagram-text {
stroke-width: 3;
stroke: black;
fill: #BCBCBC;
cursor: help;
}
]]></style>
</defs>
<g transform="translate(.5 .5)">
<path d="M 20 30 v 20 m 10 -20 v 20 m -10 -10 h 20.5"></path>
<path d="M40 40h10"></path>
<g>
<path d="M50 40h0"></path>
<path d="M878 40h0"></path>
<g class="terminal">
<path d="M50 40h0"></path>
<path d="M134 40h0"></path>
<rect x="50" y="29" width="84" height="22" rx="10" ry="10"></rect>
<text x="92" y="44">"APPEND"</text>
</g>
<path d="M134 40h10"></path>
<g>
<path d="M144 40h0"></path>
<path d="M402 40h0"></path>
<path d="M144 40h20"></path>
<g class="terminal">
<path d="M164 40h43"></path>
<path d="M339 40h43"></path>
<rect x="207" y="29" width="132" height="22" rx="10" ry="10"></rect>
<text x="273" y="44">"INITIAL LINE"</text>
</g>
<path d="M382 40h20"></path>
<path d="M144 40a10 10 0 0 1 10 10v19a10 10 0 0 0 10 10"></path>
<g>
<path d="M164 79h0"></path>
<path d="M382 79h0"></path>
<g>
<path d="M164 79h0"></path>
<path d="M304 79h0"></path>
<path d="M164 79a10 10 0 0 0 10 -10v0a10 10 0 0 1 10 -10"></path>
<g>
<path d="M184 59h100"></path>
</g>
<path d="M284 59a10 10 0 0 1 10 10v0a10 10 0 0 0 10 10"></path>
<path d="M164 79h20"></path>
<g class="terminal">
<path d="M184 79h0"></path>
<path d="M284 79h0"></path>
<rect x="184" y="68" width="100" height="22" rx="10" ry="10"></rect>
<text x="234" y="83">"LINES OF"</text>
</g>
<path d="M284 79h20"></path>
</g>
<path d="M304 79h10"></path>
<g class="non-terminal">
<path d="M314 79h0"></path>
<path d="M382 79h0"></path>
<rect x="314" y="68" width="68" height="22"></rect>
<a xlink:href="reuse_source.svg"><text x="348" y="83">source</text>
</a>
</g>
</g>
<path d="M382 79a10 10 0 0 0 10 -10v-19a10 10 0 0 1 10 -10"></path>
</g>
<path d="M402 40h10"></path>
<g class="terminal">
<path d="M412 40h0"></path>
<path d="M464 40h0"></path>
<rect x="412" y="29" width="52" height="22" rx="10" ry="10"></rect>
<text x="438" y="44">"TO"</text>
</g>
<path d="M464 40h10"></path>
<path d="M474 40h10"></path>
<g class="non-terminal">
<path d="M484 40h0"></path>
<path d="M552 40h0"></path>
<rect x="484" y="29" width="68" height="22"></rect>
<a xlink:href="reuse_target.svg"><text x="518" y="44">target</text>
</a>
</g>
<path d="M552 40h10"></path>
<g>
<path d="M562 40h0"></path>
<path d="M878 40h0"></path>
<path d="M562 40a10 10 0 0 0 10 -10v0a10 10 0 0 1 10 -10"></path>
<g>
<path d="M582 20h276"></path>
</g>
<path d="M858 20a10 10 0 0 1 10 10v0a10 10 0 0 0 10 10"></path>
<path d="M562 40h20"></path>
<g>
<path d="M582 40h0"></path>
<path d="M858 40h0"></path>
<path d="M582 40h20"></path>
<g>
<path d="M602 40h20"></path>
<path d="M818 40h20"></path>
<g class="terminal">
<path d="M622 40h0"></path>
<path d="M730 40h0"></path>
<rect x="622" y="29" width="108" height="22" rx="10" ry="10"></rect>
<text x="676" y="44">"ASSIGNING"</text>
</g>
<path d="M730 40h10"></path>
<path d="M740 40h10"></path>
<g class="non-terminal">
<path d="M750 40h0"></path>
<path d="M818 40h0"></path>
<rect x="750" y="29" width="68" height="22"></rect>
<a xlink:href="reuse_target.svg"><text x="784" y="44">target</text>
</a>
</g>
</g>
<path d="M838 40h20"></path>
<path d="M582 40a10 10 0 0 1 10 10v10a10 10 0 0 0 10 10"></path>
<g>
<path d="M602 70h0"></path>
<path d="M838 70h0"></path>
<g class="terminal">
<path d="M602 70h0"></path>
<path d="M750 70h0"></path>
<rect x="602" y="59" width="148" height="22" rx="10" ry="10"></rect>
<text x="676" y="74">"REFERENCE INTO"</text>
</g>
<path d="M750 70h10"></path>
<path d="M760 70h10"></path>
<g class="non-terminal">
<path d="M770 70h0"></path>
<path d="M838 70h0"></path>
<rect x="770" y="59" width="68" height="22"></rect>
<a xlink:href="reuse_target.svg"><text x="804" y="74">target</text>
</a>
</g>
</g>
<path d="M838 70a10 10 0 0 0 10 -10v-10a10 10 0 0 1 10 -10"></path>
</g>
<path d="M858 40h20"></path>
</g>
</g>
<path d="M878 40h10"></path>
<path d="M 888 40 h 20 m -10 -10 v 20 m 10 -20 v 20"></path>
</g>
</svg>
