<?xml version="1.0" encoding="UTF-8" standalone="no"?>
<!DOCTYPE svg PUBLIC "-//W3C//DTD SVG 1.1//EN"
 "http://www.w3.org/Graphics/SVG/1.1/DTD/svg11.dtd">
<!-- Generated by graphviz version 2.38.0 (20140413.2041)
 -->
<!-- Title: append Pages: 1 -->
<svg width="441pt" height="620pt"
 viewBox="0.00 0.00 441.34 620.00" xmlns="http://www.w3.org/2000/svg" xmlns:xlink="http://www.w3.org/1999/xlink">
<g id="graph0" class="graph" transform="scale(1 1) rotate(0) translate(4 616)">
<title>append</title>
<polygon fill="white" stroke="none" points="-4,4 -4,-616 437.344,-616 437.344,4 -4,4"/>
<!-- start -->
<g id="node1" class="node"><title>start</title>
<polygon fill="none" stroke="black" points="149.7,-612 95.6998,-612 95.6998,-576 149.7,-576 149.7,-612"/>
<text text-anchor="middle" x="122.7" y="-589.8" font-family="Times,serif" font-size="14.00">Start</text>
</g>
<!-- node249 -->
<g id="node12" class="node"><title>node249</title>
<ellipse fill="none" stroke="black" cx="122.7" cy="-522" rx="56.4294" ry="18"/>
<text text-anchor="middle" x="122.7" y="-517.8" font-family="Times,serif" font-size="14.00">&quot;APPEND&quot;</text>
</g>
<!-- start&#45;&gt;node249 -->
<g id="edge15" class="edge"><title>start&#45;&gt;node249</title>
<path fill="none" stroke="black" d="M122.7,-575.697C122.7,-567.983 122.7,-558.712 122.7,-550.112"/>
<polygon fill="black" stroke="black" points="126.2,-550.104 122.7,-540.104 119.2,-550.104 126.2,-550.104"/>
</g>
<!-- end -->
<g id="node2" class="node"><title>end</title>
<polygon fill="none" stroke="black" points="171.7,-36 117.7,-36 117.7,-0 171.7,-0 171.7,-36"/>
<text text-anchor="middle" x="144.7" y="-13.8" font-family="Times,serif" font-size="14.00">End</text>
</g>
<!-- node240 -->
<g id="node3" class="node"><title>node240</title>
<g id="a_node3"><a xlink:href="reuse_target.svg" xlink:title="&lt;u&gt;target&lt;/u&gt;">
<ellipse fill="none" stroke="black" cx="144.7" cy="-90" rx="33.0411" ry="18"/>
<text text-anchor="start" x="128.764" y="-86.8" font-family="Times,serif" text-decoration="underline" font-size="14.00" fill="blue">target</text>
</a>
</g>
</g>
<!-- node240&#45;&gt;end -->
<g id="edge1" class="edge"><title>node240&#45;&gt;end</title>
<path fill="none" stroke="black" d="M144.7,-71.6966C144.7,-63.9827 144.7,-54.7125 144.7,-46.1124"/>
<polygon fill="black" stroke="black" points="148.2,-46.1043 144.7,-36.1043 141.2,-46.1044 148.2,-46.1043"/>
</g>
<!-- node241 -->
<g id="node4" class="node"><title>node241</title>
<ellipse fill="none" stroke="black" cx="144.7" cy="-162" rx="70.8752" ry="18"/>
<text text-anchor="middle" x="144.7" y="-157.8" font-family="Times,serif" font-size="14.00">&quot;ASSIGNING&quot;</text>
</g>
<!-- node241&#45;&gt;node240 -->
<g id="edge2" class="edge"><title>node241&#45;&gt;node240</title>
<path fill="none" stroke="black" d="M144.7,-143.697C144.7,-135.983 144.7,-126.712 144.7,-118.112"/>
<polygon fill="black" stroke="black" points="148.2,-118.104 144.7,-108.104 141.2,-118.104 148.2,-118.104"/>
</g>
<!-- node242 -->
<g id="node5" class="node"><title>node242</title>
<g id="a_node5"><a xlink:href="reuse_target.svg" xlink:title="&lt;u&gt;target&lt;/u&gt;">
<ellipse fill="none" stroke="black" cx="280.7" cy="-90" rx="33.0411" ry="18"/>
<text text-anchor="start" x="264.764" y="-86.8" font-family="Times,serif" text-decoration="underline" font-size="14.00" fill="blue">target</text>
</a>
</g>
</g>
<!-- node242&#45;&gt;end -->
<g id="edge3" class="edge"><title>node242&#45;&gt;end</title>
<path fill="none" stroke="black" d="M257.321,-76.9666C236.31,-66.1521 205.123,-50.1001 180.892,-37.6282"/>
<polygon fill="black" stroke="black" points="182.474,-34.5064 171.981,-33.0419 179.271,-40.7304 182.474,-34.5064"/>
</g>
<!-- node243 -->
<g id="node6" class="node"><title>node243</title>
<ellipse fill="none" stroke="black" cx="333.7" cy="-162" rx="99.7878" ry="18"/>
<text text-anchor="middle" x="333.7" y="-157.8" font-family="Times,serif" font-size="14.00">&quot;REFERENCE INTO&quot;</text>
</g>
<!-- node243&#45;&gt;node242 -->
<g id="edge4" class="edge"><title>node243&#45;&gt;node242</title>
<path fill="none" stroke="black" d="M320.87,-144.055C314.235,-135.292 306.027,-124.451 298.762,-114.856"/>
<polygon fill="black" stroke="black" points="301.512,-112.689 292.685,-106.829 295.931,-116.915 301.512,-112.689"/>
</g>
<!-- node244 -->
<g id="node7" class="node"><title>node244</title>
<g id="a_node7"><a xlink:href="reuse_target.svg" xlink:title="&lt;u&gt;target&lt;/u&gt;">
<ellipse fill="none" stroke="black" cx="144.7" cy="-234" rx="33.0411" ry="18"/>
<text text-anchor="start" x="128.764" y="-230.8" font-family="Times,serif" text-decoration="underline" font-size="14.00" fill="blue">target</text>
</a>
</g>
</g>
<!-- node244&#45;&gt;end -->
<g id="edge7" class="edge"><title>node244&#45;&gt;end</title>
<path fill="none" stroke="black" d="M117.895,-223.23C99.283,-214.87 75.893,-200.842 64.6998,-180 57.1297,-165.904 60.8529,-159.531 64.6998,-144 74.2865,-105.297 101.517,-67.7077 121.557,-44.029"/>
<polygon fill="black" stroke="black" points="124.393,-46.101 128.304,-36.2547 119.106,-41.5127 124.393,-46.101"/>
</g>
<!-- node244&#45;&gt;node241 -->
<g id="edge5" class="edge"><title>node244&#45;&gt;node241</title>
<path fill="none" stroke="black" d="M144.7,-215.697C144.7,-207.983 144.7,-198.712 144.7,-190.112"/>
<polygon fill="black" stroke="black" points="148.2,-190.104 144.7,-180.104 141.2,-190.104 148.2,-190.104"/>
</g>
<!-- node244&#45;&gt;node243 -->
<g id="edge6" class="edge"><title>node244&#45;&gt;node243</title>
<path fill="none" stroke="black" d="M171.378,-223.119C200.118,-212.475 246.547,-195.279 282.402,-181.999"/>
<polygon fill="black" stroke="black" points="284.049,-185.122 292.211,-178.366 281.618,-178.557 284.049,-185.122"/>
</g>
<!-- node245 -->
<g id="node8" class="node"><title>node245</title>
<ellipse fill="none" stroke="black" cx="144.7" cy="-306" rx="31.5723" ry="18"/>
<text text-anchor="middle" x="144.7" y="-301.8" font-family="Times,serif" font-size="14.00">&quot;TO&quot;</text>
</g>
<!-- node245&#45;&gt;node244 -->
<g id="edge8" class="edge"><title>node245&#45;&gt;node244</title>
<path fill="none" stroke="black" d="M144.7,-287.697C144.7,-279.983 144.7,-270.712 144.7,-262.112"/>
<polygon fill="black" stroke="black" points="148.2,-262.104 144.7,-252.104 141.2,-262.104 148.2,-262.104"/>
</g>
<!-- node246 -->
<g id="node9" class="node"><title>node246</title>
<ellipse fill="none" stroke="black" cx="78.6998" cy="-378" rx="78.9002" ry="18"/>
<text text-anchor="middle" x="78.6998" y="-373.8" font-family="Times,serif" font-size="14.00">&quot;INITIAL LINE&quot;</text>
</g>
<!-- node246&#45;&gt;node245 -->
<g id="edge9" class="edge"><title>node246&#45;&gt;node245</title>
<path fill="none" stroke="black" d="M94.6766,-360.055C103.226,-350.988 113.874,-339.694 123.146,-329.86"/>
<polygon fill="black" stroke="black" points="125.907,-332.033 130.221,-322.356 120.814,-327.231 125.907,-332.033"/>
</g>
<!-- node247 -->
<g id="node10" class="node"><title>node247</title>
<g id="a_node10"><a xlink:href="reuse_source.svg" xlink:title="&lt;u&gt;source&lt;/u&gt;">
<ellipse fill="none" stroke="black" cx="211.7" cy="-378" rx="36.4761" ry="18"/>
<text text-anchor="start" x="193.433" y="-374.8" font-family="Times,serif" text-decoration="underline" font-size="14.00" fill="blue">source</text>
</a>
</g>
</g>
<!-- node247&#45;&gt;node245 -->
<g id="edge10" class="edge"><title>node247&#45;&gt;node245</title>
<path fill="none" stroke="black" d="M196.83,-361.465C187.983,-352.221 176.593,-340.321 166.717,-330.003"/>
<polygon fill="black" stroke="black" points="168.971,-327.296 159.528,-322.492 163.914,-332.136 168.971,-327.296"/>
</g>
<!-- node248 -->
<g id="node11" class="node"><title>node248</title>
<ellipse fill="none" stroke="black" cx="211.7" cy="-450" rx="61.0436" ry="18"/>
<text text-anchor="middle" x="211.7" y="-445.8" font-family="Times,serif" font-size="14.00">&quot;LINES OF&quot;</text>
</g>
<!-- node248&#45;&gt;node247 -->
<g id="edge11" class="edge"><title>node248&#45;&gt;node247</title>
<path fill="none" stroke="black" d="M211.7,-431.697C211.7,-423.983 211.7,-414.712 211.7,-406.112"/>
<polygon fill="black" stroke="black" points="215.2,-406.104 211.7,-396.104 208.2,-406.104 215.2,-406.104"/>
</g>
<!-- node249&#45;&gt;node246 -->
<g id="edge12" class="edge"><title>node249&#45;&gt;node246</title>
<path fill="none" stroke="black" d="M117.392,-503.871C109.86,-479.564 95.9958,-434.819 87.0701,-406.013"/>
<polygon fill="black" stroke="black" points="90.3291,-404.705 84.0261,-396.189 83.6427,-406.777 90.3291,-404.705"/>
</g>
<!-- node249&#45;&gt;node247 -->
<g id="edge14" class="edge"><title>node249&#45;&gt;node247</title>
<path fill="none" stroke="black" d="M122.874,-503.94C123.813,-484.982 127.623,-454.13 141.7,-432 150.827,-417.651 165.293,-405.743 178.711,-396.873"/>
<polygon fill="black" stroke="black" points="180.693,-399.762 187.311,-391.489 176.978,-393.829 180.693,-399.762"/>
</g>
<!-- node249&#45;&gt;node248 -->
<g id="edge13" class="edge"><title>node249&#45;&gt;node248</title>
<path fill="none" stroke="black" d="M142.895,-505.116C154.872,-495.696 170.238,-483.611 183.409,-473.251"/>
<polygon fill="black" stroke="black" points="185.58,-475.997 191.276,-467.064 181.252,-470.495 185.58,-475.997"/>
</g>
</g>
</svg>
