<?xml version="1.0" encoding="UTF-8" standalone="no"?>
<!DOCTYPE svg PUBLIC "-//W3C//DTD SVG 1.1//EN"
 "http://www.w3.org/Graphics/SVG/1.1/DTD/svg11.dtd">
<!-- Generated by graphviz version 2.38.0 (20140413.2041)
 -->
<!-- Title: arrow_or_dash Pages: 1 -->
<svg width="115pt" height="188pt"
 viewBox="0.00 0.00 114.90 188.00" xmlns="http://www.w3.org/2000/svg" xmlns:xlink="http://www.w3.org/1999/xlink">
<g id="graph0" class="graph" transform="scale(1 1) rotate(0) translate(4 184)">
<title>arrow_or_dash</title>
<polygon fill="white" stroke="none" points="-4,4 -4,-184 110.9,-184 110.9,4 -4,4"/>
<!-- start -->
<g id="node1" class="node"><title>start</title>
<polygon fill="none" stroke="blue" points="80.4498,-180 26.4498,-180 26.4498,-144 80.4498,-144 80.4498,-180"/>
<text text-anchor="middle" x="53.4498" y="-157.8" font-family="Times,serif" font-size="14.00">Start</text>
</g>
<!-- node85 -->
<g id="node3" class="node"><title>node85</title>
<ellipse fill="none" stroke="black" cx="53.4498" cy="-90" rx="53.3997" ry="18"/>
<text text-anchor="middle" x="53.4498" y="-85.8" font-family="Times,serif" font-size="14.00">^(&#45;&gt;|=&gt;|&#45;)$</text>
</g>
<!-- start&#45;&gt;node85 -->
<g id="edge2" class="edge"><title>start&#45;&gt;node85</title>
<path fill="none" stroke="black" d="M53.4498,-143.697C53.4498,-135.983 53.4498,-126.712 53.4498,-118.112"/>
<polygon fill="black" stroke="black" points="56.9499,-118.104 53.4498,-108.104 49.9499,-118.104 56.9499,-118.104"/>
</g>
<!-- end -->
<g id="node2" class="node"><title>end</title>
<polygon fill="none" stroke="blue" points="80.4498,-36 26.4498,-36 26.4498,-0 80.4498,-0 80.4498,-36"/>
<text text-anchor="middle" x="53.4498" y="-13.8" font-family="Times,serif" font-size="14.00">End</text>
</g>
<!-- node85&#45;&gt;end -->
<g id="edge1" class="edge"><title>node85&#45;&gt;end</title>
<path fill="none" stroke="black" d="M53.4498,-71.6966C53.4498,-63.9827 53.4498,-54.7125 53.4498,-46.1124"/>
<polygon fill="black" stroke="black" points="56.9499,-46.1043 53.4498,-36.1043 49.9499,-46.1044 56.9499,-46.1043"/>
</g>
</g>
</svg>
