<svg xmlns="http://www.w3.org/2000/svg" xmlns:xlink="http://www.w3.org/1999/xlink" class="railroad-diagram" width="256" height="62" viewBox="0 0 256 62">
<defs>
<style type="text/css"><![CDATA[
path {
stroke-width: 3;
stroke: black;
fill: rgba(0,0,0,0);
}
text {
font: bold 14px monospace;
text-anchor: middle;
}
text.diagram-text {
font-size: 12px;
}
a {
fill: blue;
}
text.diagram-arrow {
font-size: 16px;
}
text.label {
text-anchor: start;
}
text.comment {
font: italic 12px monospace;
}
rect {
stroke-width: 3;
stroke: black;
fill: #BCBCBC;
}
path.diagram-text {
stroke-width: 3;
stroke: black;
fill: #BCBCBC;
cursor: help;
}
]]></style>
</defs>
<g transform="translate(.5 .5)">
<path d="M 20 21 v 20 m 10 -20 v 20 m -10 -10 h 20.5"></path>
<path d="M40 31h10"></path>
<g>
<path d="M50 31h0"></path>
<path d="M206 31h0"></path>
<g class="terminal">
<path d="M50 31h0"></path>
<path d="M134 31h0"></path>
<rect x="50" y="20" width="84" height="22" rx="10" ry="10"></rect>
<text x="92" y="35">"ASSERT"</text>
</g>
<path d="M134 31h10"></path>
<path d="M144 31h10"></path>
<g class="non-terminal">
<path d="M154 31h0"></path>
<path d="M206 31h0"></path>
<rect x="154" y="20" width="52" height="22"></rect>
<a xlink:href="reuse_cond.svg"><text x="180" y="35">Cond</text>
</a>
</g>
</g>
<path d="M206 31h10"></path>
<path d="M 216 31 h 20 m -10 -10 v 20 m 10 -20 v 20"></path>
</g>
</svg>
