<svg xmlns="http://www.w3.org/2000/svg" xmlns:xlink="http://www.w3.org/1999/xlink" class="railroad-diagram" width="1132" height="80" viewBox="0 0 1132 80">
<defs>
<style type="text/css"><![CDATA[
path {
stroke-width: 3;
stroke: black;
fill: rgba(0,0,0,0);
}
text {
font: bold 14px monospace;
text-anchor: middle;
}
text.diagram-text {
font-size: 12px;
}
a {
fill: blue;
}
text.diagram-arrow {
font-size: 16px;
}
text.label {
text-anchor: start;
}
text.comment {
font: italic 12px monospace;
}
rect {
stroke-width: 3;
stroke: black;
fill: #BCBCBC;
}
path.diagram-text {
stroke-width: 3;
stroke: black;
fill: #BCBCBC;
cursor: help;
}
]]></style>
</defs>
<g transform="translate(.5 .5)">
<path d="M 20 30 v 20 m 10 -20 v 20 m -10 -10 h 20.5"></path>
<path d="M40 40h10"></path>
<g>
<path d="M50 40h0"></path>
<path d="M1082 40h0"></path>
<g class="terminal">
<path d="M50 40h0"></path>
<path d="M134 40h0"></path>
<rect x="50" y="29" width="84" height="22" rx="10" ry="10"></rect>
<text x="92" y="44">"ASSERT"</text>
</g>
<path d="M134 40h10"></path>
<g>
<path d="M144 40h0"></path>
<path d="M428 40h0"></path>
<path d="M144 40a10 10 0 0 0 10 -10v0a10 10 0 0 1 10 -10"></path>
<g>
<path d="M164 20h244"></path>
</g>
<path d="M408 20a10 10 0 0 1 10 10v0a10 10 0 0 0 10 10"></path>
<path d="M144 40h20"></path>
<g>
<path d="M164 40h0"></path>
<path d="M408 40h0"></path>
<g class="terminal">
<path d="M164 40h0"></path>
<path d="M216 40h0"></path>
<rect x="164" y="29" width="52" height="22" rx="10" ry="10"></rect>
<text x="190" y="44">"ID"</text>
</g>
<path d="M216 40h10"></path>
<path d="M226 40h10"></path>
<g class="non-terminal">
<path d="M236 40h0"></path>
<path d="M408 40h0"></path>
<rect x="236" y="29" width="172" height="22"></rect>
<a xlink:href="reuse_namespacesimplename.svg"><text x="322" y="44">NamespaceSimpleName</text>
</a>
</g>
</g>
<path d="M408 40h20"></path>
</g>
<g>
<path d="M428 40h0"></path>
<path d="M640 40h0"></path>
<path d="M428 40a10 10 0 0 0 10 -10v0a10 10 0 0 1 10 -10"></path>
<g>
<path d="M448 20h172"></path>
</g>
<path d="M620 20a10 10 0 0 1 10 10v0a10 10 0 0 0 10 10"></path>
<path d="M428 40h20"></path>
<g>
<path d="M448 40h0"></path>
<path d="M620 40h0"></path>
<g class="terminal">
<path d="M448 40h0"></path>
<path d="M532 40h0"></path>
<rect x="448" y="29" width="84" height="22" rx="10" ry="10"></rect>
<text x="490" y="44">"SUBKEY"</text>
</g>
<path d="M532 40h10"></path>
<path d="M542 40h10"></path>
<g class="non-terminal">
<path d="M552 40h0"></path>
<path d="M620 40h0"></path>
<rect x="552" y="29" width="68" height="22"></rect>
<a xlink:href="reuse_source.svg"><text x="586" y="44">Source</text>
</a>
</g>
</g>
<path d="M620 40h20"></path>
</g>
<g>
<path d="M640 40h0"></path>
<path d="M872 40h0"></path>
<path d="M640 40a10 10 0 0 0 10 -10v0a10 10 0 0 1 10 -10"></path>
<g>
<path d="M660 20h192"></path>
</g>
<path d="M852 20a10 10 0 0 1 10 10v0a10 10 0 0 0 10 10"></path>
<path d="M640 40h20"></path>
<g>
<path d="M660 40h0"></path>
<path d="M852 40h0"></path>
<g class="terminal">
<path d="M660 40h0"></path>
<path d="M744 40h0"></path>
<rect x="660" y="29" width="84" height="22" rx="10" ry="10"></rect>
<text x="702" y="44">"FIELDS"</text>
</g>
<path d="M744 40h10"></path>
<path d="M754 40h10"></path>
<g>
<path d="M764 40h0"></path>
<path d="M852 40h0"></path>
<path d="M764 40h10"></path>
<g class="non-terminal">
<path d="M774 40h0"></path>
<path d="M842 40h0"></path>
<rect x="774" y="29" width="68" height="22"></rect>
<a xlink:href="reuse_source.svg"><text x="808" y="44">Source</text>
</a>
</g>
<path d="M842 40h10"></path>
<path d="M774 40a10 10 0 0 0 -10 10v0a10 10 0 0 0 10 10"></path>
<g>
<path d="M774 60h68"></path>
</g>
<path d="M842 60a10 10 0 0 0 10 -10v0a10 10 0 0 0 -10 -10"></path>
</g>
</g>
<path d="M852 40h20"></path>
</g>
<g>
<path d="M872 40h0"></path>
<path d="M1020 40h0"></path>
<path d="M872 40a10 10 0 0 0 10 -10v0a10 10 0 0 1 10 -10"></path>
<g>
<path d="M892 20h108"></path>
</g>
<path d="M1000 20a10 10 0 0 1 10 10v0a10 10 0 0 0 10 10"></path>
<path d="M872 40h20"></path>
<g class="terminal">
<path d="M892 40h0"></path>
<path d="M1000 40h0"></path>
<rect x="892" y="29" width="108" height="22" rx="10" ry="10"></rect>
<text x="946" y="44">"CONDITION"</text>
</g>
<path d="M1000 40h20"></path>
</g>
<path d="M1020 40h10"></path>
<g class="non-terminal">
<path d="M1030 40h0"></path>
<path d="M1082 40h0"></path>
<rect x="1030" y="29" width="52" height="22"></rect>
<a xlink:href="reuse_cond.svg"><text x="1056" y="44">Cond</text>
</a>
</g>
</g>
<path d="M1082 40h10"></path>
<path d="M 1092 40 h 20 m -10 -10 v 20 m 10 -20 v 20"></path>
</g>
</svg>
