<svg xmlns="http://www.w3.org/2000/svg" xmlns:xlink="http://www.w3.org/1999/xlink" class="railroad-diagram" width="1060" height="80" viewBox="0 0 1060 80">
<defs>
<style type="text/css"><![CDATA[
path {
stroke-width: 3;
stroke: black;
fill: rgba(0,0,0,0);
}
text {
font: bold 14px monospace;
text-anchor: middle;
}
text.diagram-text {
font-size: 12px;
}
a {
fill: blue;
}
text.diagram-arrow {
font-size: 16px;
}
text.label {
text-anchor: start;
}
text.comment {
font: italic 12px monospace;
}
rect {
stroke-width: 3;
stroke: black;
fill: #BCBCBC;
}
path.diagram-text {
stroke-width: 3;
stroke: black;
fill: #BCBCBC;
cursor: help;
}
]]></style>
</defs>
<g transform="translate(.5 .5)">
<path d="M 20 30 v 20 m 10 -20 v 20 m -10 -10 h 20.5"></path>
<path d="M40 40h10"></path>
<g>
<path d="M50 40h0"></path>
<path d="M1010 40h0"></path>
<g class="terminal">
<path d="M50 40h0"></path>
<path d="M134 40h0"></path>
<rect x="50" y="29" width="84" height="22" rx="10" ry="10"></rect>
<text x="92" y="44">"ASSERT"</text>
</g>
<path d="M134 40h10"></path>
<g>
<path d="M144 40h0"></path>
<path d="M356 40h0"></path>
<path d="M144 40a10 10 0 0 0 10 -10v0a10 10 0 0 1 10 -10"></path>
<g>
<path d="M164 20h172"></path>
</g>
<path d="M336 20a10 10 0 0 1 10 10v0a10 10 0 0 0 10 10"></path>
<path d="M144 40h20"></path>
<g>
<path d="M164 40h0"></path>
<path d="M336 40h0"></path>
<g class="terminal">
<path d="M164 40h0"></path>
<path d="M216 40h0"></path>
<rect x="164" y="29" width="52" height="22" rx="10" ry="10"></rect>
<text x="190" y="44">"ID"</text>
</g>
<path d="M216 40h10"></path>
<path d="M226 40h10"></path>
<g class="non-terminal">
<path d="M236 40h0"></path>
<path d="M336 40h0"></path>
<rect x="236" y="29" width="100" height="22"></rect>
<a xlink:href="reuse_simplename.svg"><text x="286" y="44">SimpleName</text>
</a>
</g>
</g>
<path d="M336 40h20"></path>
</g>
<g>
<path d="M356 40h0"></path>
<path d="M568 40h0"></path>
<path d="M356 40a10 10 0 0 0 10 -10v0a10 10 0 0 1 10 -10"></path>
<g>
<path d="M376 20h172"></path>
</g>
<path d="M548 20a10 10 0 0 1 10 10v0a10 10 0 0 0 10 10"></path>
<path d="M356 40h20"></path>
<g>
<path d="M376 40h0"></path>
<path d="M548 40h0"></path>
<g class="terminal">
<path d="M376 40h0"></path>
<path d="M460 40h0"></path>
<rect x="376" y="29" width="84" height="22" rx="10" ry="10"></rect>
<text x="418" y="44">"SUBKEY"</text>
</g>
<path d="M460 40h10"></path>
<path d="M470 40h10"></path>
<g class="non-terminal">
<path d="M480 40h0"></path>
<path d="M548 40h0"></path>
<rect x="480" y="29" width="68" height="22"></rect>
<a xlink:href="reuse_source.svg"><text x="514" y="44">Source</text>
</a>
</g>
</g>
<path d="M548 40h20"></path>
</g>
<g>
<path d="M568 40h0"></path>
<path d="M800 40h0"></path>
<path d="M568 40a10 10 0 0 0 10 -10v0a10 10 0 0 1 10 -10"></path>
<g>
<path d="M588 20h192"></path>
</g>
<path d="M780 20a10 10 0 0 1 10 10v0a10 10 0 0 0 10 10"></path>
<path d="M568 40h20"></path>
<g>
<path d="M588 40h0"></path>
<path d="M780 40h0"></path>
<g class="terminal">
<path d="M588 40h0"></path>
<path d="M672 40h0"></path>
<rect x="588" y="29" width="84" height="22" rx="10" ry="10"></rect>
<text x="630" y="44">"FIELDS"</text>
</g>
<path d="M672 40h10"></path>
<path d="M682 40h10"></path>
<g>
<path d="M692 40h0"></path>
<path d="M780 40h0"></path>
<path d="M692 40h10"></path>
<g class="non-terminal">
<path d="M702 40h0"></path>
<path d="M770 40h0"></path>
<rect x="702" y="29" width="68" height="22"></rect>
<a xlink:href="reuse_source.svg"><text x="736" y="44">Source</text>
</a>
</g>
<path d="M770 40h10"></path>
<path d="M702 40a10 10 0 0 0 -10 10v0a10 10 0 0 0 10 10"></path>
<g>
<path d="M702 60h68"></path>
</g>
<path d="M770 60a10 10 0 0 0 10 -10v0a10 10 0 0 0 -10 -10"></path>
</g>
</g>
<path d="M780 40h20"></path>
</g>
<g>
<path d="M800 40h0"></path>
<path d="M948 40h0"></path>
<path d="M800 40a10 10 0 0 0 10 -10v0a10 10 0 0 1 10 -10"></path>
<g>
<path d="M820 20h108"></path>
</g>
<path d="M928 20a10 10 0 0 1 10 10v0a10 10 0 0 0 10 10"></path>
<path d="M800 40h20"></path>
<g class="terminal">
<path d="M820 40h0"></path>
<path d="M928 40h0"></path>
<rect x="820" y="29" width="108" height="22" rx="10" ry="10"></rect>
<text x="874" y="44">"CONDITION"</text>
</g>
<path d="M928 40h20"></path>
</g>
<path d="M948 40h10"></path>
<g class="non-terminal">
<path d="M958 40h0"></path>
<path d="M1010 40h0"></path>
<rect x="958" y="29" width="52" height="22"></rect>
<a xlink:href="reuse_cond.svg"><text x="984" y="44">Cond</text>
</a>
</g>
</g>
<path d="M1010 40h10"></path>
<path d="M 1020 40 h 20 m -10 -10 v 20 m 10 -20 v 20"></path>
</g>
</svg>
