<svg xmlns="http://www.w3.org/2000/svg" xmlns:xlink="http://www.w3.org/1999/xlink" class="railroad-diagram" width="808" height="80" viewBox="0 0 808 80">
<defs>
<style type="text/css"><![CDATA[
path {
stroke-width: 3;
stroke: black;
fill: rgba(0,0,0,0);
}
text {
font: bold 14px monospace;
text-anchor: middle;
}
text.diagram-text {
font-size: 12px;
}
a {
fill: blue;
}
text.diagram-arrow {
font-size: 16px;
}
text.label {
text-anchor: start;
}
text.comment {
font: italic 12px monospace;
}
rect {
stroke-width: 3;
stroke: black;
fill: #BCBCBC;
}
path.diagram-text {
stroke-width: 3;
stroke: black;
fill: #BCBCBC;
cursor: help;
}
]]></style>
</defs>
<g transform="translate(.5 .5)">
<path d="M 20 30 v 20 m 10 -20 v 20 m -10 -10 h 20.5"></path>
<path d="M40 40h10"></path>
<g>
<path d="M50 40h0"></path>
<path d="M758 40h0"></path>
<g class="terminal">
<path d="M50 40h0"></path>
<path d="M134 40h0"></path>
<rect x="50" y="29" width="84" height="22" rx="10" ry="10"></rect>
<text x="92" y="44">"ASSERT"</text>
</g>
<path d="M134 40h10"></path>
<g>
<path d="M144 40h0"></path>
<path d="M316 40h0"></path>
<path d="M144 40a10 10 0 0 0 10 -10v0a10 10 0 0 1 10 -10"></path>
<g>
<path d="M164 20h132"></path>
</g>
<path d="M296 20a10 10 0 0 1 10 10v0a10 10 0 0 0 10 10"></path>
<path d="M144 40h20"></path>
<g>
<path d="M164 40h0"></path>
<path d="M296 40h0"></path>
<g class="terminal">
<path d="M164 40h0"></path>
<path d="M216 40h0"></path>
<rect x="164" y="29" width="52" height="22" rx="10" ry="10"></rect>
<text x="190" y="44">"ID"</text>
</g>
<path d="M216 40h10"></path>
<path d="M226 40h10"></path>
<g class="non-terminal">
<path d="M236 40h0"></path>
<path d="M296 40h0"></path>
<rect x="236" y="29" width="60" height="22"></rect>
<a xlink:href="reuse_field.svg"><text x="266" y="44">Field</text>
</a>
</g>
</g>
<path d="M296 40h20"></path>
</g>
<g>
<path d="M316 40h0"></path>
<path d="M548 40h0"></path>
<path d="M316 40a10 10 0 0 0 10 -10v0a10 10 0 0 1 10 -10"></path>
<g>
<path d="M336 20h192"></path>
</g>
<path d="M528 20a10 10 0 0 1 10 10v0a10 10 0 0 0 10 10"></path>
<path d="M316 40h20"></path>
<g>
<path d="M336 40h0"></path>
<path d="M528 40h0"></path>
<g class="terminal">
<path d="M336 40h0"></path>
<path d="M420 40h0"></path>
<rect x="336" y="29" width="84" height="22" rx="10" ry="10"></rect>
<text x="378" y="44">"FIELDS"</text>
</g>
<path d="M420 40h10"></path>
<path d="M430 40h10"></path>
<g>
<path d="M440 40h0"></path>
<path d="M528 40h0"></path>
<path d="M440 40h10"></path>
<g class="non-terminal">
<path d="M450 40h0"></path>
<path d="M518 40h0"></path>
<rect x="450" y="29" width="68" height="22"></rect>
<a xlink:href="reuse_source.svg"><text x="484" y="44">Source</text>
</a>
</g>
<path d="M518 40h10"></path>
<path d="M450 40a10 10 0 0 0 -10 10v0a10 10 0 0 0 10 10"></path>
<g>
<path d="M450 60h68"></path>
</g>
<path d="M518 60a10 10 0 0 0 10 -10v0a10 10 0 0 0 -10 -10"></path>
</g>
</g>
<path d="M528 40h20"></path>
</g>
<g>
<path d="M548 40h0"></path>
<path d="M696 40h0"></path>
<path d="M548 40a10 10 0 0 0 10 -10v0a10 10 0 0 1 10 -10"></path>
<g>
<path d="M568 20h108"></path>
</g>
<path d="M676 20a10 10 0 0 1 10 10v0a10 10 0 0 0 10 10"></path>
<path d="M548 40h20"></path>
<g class="terminal">
<path d="M568 40h0"></path>
<path d="M676 40h0"></path>
<rect x="568" y="29" width="108" height="22" rx="10" ry="10"></rect>
<text x="622" y="44">"CONDITION"</text>
</g>
<path d="M676 40h20"></path>
</g>
<path d="M696 40h10"></path>
<g class="non-terminal">
<path d="M706 40h0"></path>
<path d="M758 40h0"></path>
<rect x="706" y="29" width="52" height="22"></rect>
<a xlink:href="reuse_cond.svg"><text x="732" y="44">Cond</text>
</a>
</g>
</g>
<path d="M758 40h10"></path>
<path d="M 768 40 h 20 m -10 -10 v 20 m 10 -20 v 20"></path>
</g>
</svg>
