<?xml version="1.0" encoding="UTF-8" standalone="no"?>
<!DOCTYPE svg PUBLIC "-//W3C//DTD SVG 1.1//EN"
 "http://www.w3.org/Graphics/SVG/1.1/DTD/svg11.dtd">
<!-- Generated by graphviz version 2.38.0 (20140413.2041)
 -->
<!-- Title: assert Pages: 1 -->
<svg width="118pt" height="260pt"
 viewBox="0.00 0.00 117.72 260.00" xmlns="http://www.w3.org/2000/svg" xmlns:xlink="http://www.w3.org/1999/xlink">
<g id="graph0" class="graph" transform="scale(1 1) rotate(0) translate(4 256)">
<title>assert</title>
<polygon fill="white" stroke="none" points="-4,4 -4,-256 113.723,-256 113.723,4 -4,4"/>
<!-- start -->
<g id="node1" class="node"><title>start</title>
<ellipse fill="none" stroke="black" cx="54.8617" cy="-234" rx="29.049" ry="18"/>
<text text-anchor="middle" x="54.8617" y="-229.8" font-family="Times,serif" font-size="14.00">Start</text>
</g>
<!-- node46 -->
<g id="node4" class="node"><title>node46</title>
<ellipse fill="none" stroke="black" cx="54.8617" cy="-162" rx="54.7237" ry="18"/>
<text text-anchor="middle" x="54.8617" y="-157.8" font-family="Times,serif" font-size="14.00">&quot;ASSERT&quot;</text>
</g>
<!-- start&#45;&gt;node46 -->
<g id="edge4" class="edge"><title>start&#45;&gt;node46</title>
<path fill="none" stroke="black" d="M54.8617,-215.697C54.8617,-207.983 54.8617,-198.712 54.8617,-190.112"/>
<polygon fill="black" stroke="black" points="58.3618,-190.104 54.8617,-180.104 51.3618,-190.104 58.3618,-190.104"/>
</g>
<!-- end -->
<g id="node2" class="node"><title>end</title>
<ellipse fill="none" stroke="black" cx="54.8617" cy="-18" rx="27" ry="18"/>
<text text-anchor="middle" x="54.8617" y="-13.8" font-family="Times,serif" font-size="14.00">End</text>
</g>
<!-- node45 -->
<g id="node3" class="node"><title>node45</title>
<ellipse fill="none" stroke="black" cx="54.8617" cy="-90" rx="27" ry="18"/>
<text text-anchor="middle" x="54.8617" y="-85.8" font-family="Times,serif" font-size="14.00">.*</text>
</g>
<!-- node45&#45;&gt;end -->
<g id="edge1" class="edge"><title>node45&#45;&gt;end</title>
<path fill="none" stroke="black" d="M54.8617,-71.6966C54.8617,-63.9827 54.8617,-54.7125 54.8617,-46.1124"/>
<polygon fill="black" stroke="black" points="58.3618,-46.1043 54.8617,-36.1043 51.3618,-46.1044 58.3618,-46.1043"/>
</g>
<!-- node45&#45;&gt;node45 -->
<g id="edge2" class="edge"><title>node45&#45;&gt;node45</title>
<path fill="none" stroke="black" d="M74.7567,-102.432C87.5496,-105.675 99.8617,-101.531 99.8617,-90 99.8617,-81.6218 93.3622,-77.1433 84.9012,-76.5644"/>
<polygon fill="black" stroke="black" points="84.3636,-73.1004 74.7567,-77.5679 85.0527,-80.0665 84.3636,-73.1004"/>
</g>
<!-- node46&#45;&gt;node45 -->
<g id="edge3" class="edge"><title>node46&#45;&gt;node45</title>
<path fill="none" stroke="black" d="M54.8617,-143.697C54.8617,-135.983 54.8617,-126.712 54.8617,-118.112"/>
<polygon fill="black" stroke="black" points="58.3618,-118.104 54.8617,-108.104 51.3618,-118.104 58.3618,-118.104"/>
</g>
</g>
</svg>
