<svg xmlns="http://www.w3.org/2000/svg" xmlns:xlink="http://www.w3.org/1999/xlink" class="railroad-diagram" width="636" height="80" viewBox="0 0 636 80">
<defs>
<style type="text/css"><![CDATA[
path {
stroke-width: 3;
stroke: black;
fill: rgba(0,0,0,0);
}
text {
font: bold 14px monospace;
text-anchor: middle;
}
text.diagram-text {
font-size: 12px;
}
a {
fill: blue;
}
text.diagram-arrow {
font-size: 16px;
}
text.label {
text-anchor: start;
}
text.comment {
font: italic 12px monospace;
}
rect {
stroke-width: 3;
stroke: black;
fill: #BCBCBC;
}
path.diagram-text {
stroke-width: 3;
stroke: black;
fill: #BCBCBC;
cursor: help;
}
]]></style>
</defs>
<g transform="translate(.5 .5)">
<path d="M 20 30 v 20 m 10 -20 v 20 m -10 -10 h 20.5"></path>
<path d="M40 40h10"></path>
<g>
<path d="M50 40h0"></path>
<path d="M586 40h0"></path>
<g class="terminal">
<path d="M50 40h0"></path>
<path d="M134 40h0"></path>
<rect x="50" y="29" width="84" height="22" rx="10" ry="10"></rect>
<text x="92" y="44">"ASSERT"</text>
</g>
<path d="M134 40h10"></path>
<g>
<path d="M144 40h0"></path>
<path d="M376 40h0"></path>
<path d="M144 40a10 10 0 0 0 10 -10v0a10 10 0 0 1 10 -10"></path>
<g>
<path d="M164 20h192"></path>
</g>
<path d="M356 20a10 10 0 0 1 10 10v0a10 10 0 0 0 10 10"></path>
<path d="M144 40h20"></path>
<g>
<path d="M164 40h0"></path>
<path d="M356 40h0"></path>
<g class="terminal">
<path d="M164 40h0"></path>
<path d="M248 40h0"></path>
<rect x="164" y="29" width="84" height="22" rx="10" ry="10"></rect>
<text x="206" y="44">"FIELDS"</text>
</g>
<path d="M248 40h10"></path>
<path d="M258 40h10"></path>
<g>
<path d="M268 40h0"></path>
<path d="M356 40h0"></path>
<path d="M268 40h10"></path>
<g class="non-terminal">
<path d="M278 40h0"></path>
<path d="M346 40h0"></path>
<rect x="278" y="29" width="68" height="22"></rect>
<a xlink:href="reuse_source.svg"><text x="312" y="44">Source</text>
</a>
</g>
<path d="M346 40h10"></path>
<path d="M278 40a10 10 0 0 0 -10 10v0a10 10 0 0 0 10 10"></path>
<g>
<path d="M278 60h68"></path>
</g>
<path d="M346 60a10 10 0 0 0 10 -10v0a10 10 0 0 0 -10 -10"></path>
</g>
</g>
<path d="M356 40h20"></path>
</g>
<g>
<path d="M376 40h0"></path>
<path d="M524 40h0"></path>
<path d="M376 40a10 10 0 0 0 10 -10v0a10 10 0 0 1 10 -10"></path>
<g>
<path d="M396 20h108"></path>
</g>
<path d="M504 20a10 10 0 0 1 10 10v0a10 10 0 0 0 10 10"></path>
<path d="M376 40h20"></path>
<g class="terminal">
<path d="M396 40h0"></path>
<path d="M504 40h0"></path>
<rect x="396" y="29" width="108" height="22" rx="10" ry="10"></rect>
<text x="450" y="44">"CONDITION"</text>
</g>
<path d="M504 40h20"></path>
</g>
<path d="M524 40h10"></path>
<g class="non-terminal">
<path d="M534 40h0"></path>
<path d="M586 40h0"></path>
<rect x="534" y="29" width="52" height="22"></rect>
<a xlink:href="reuse_cond.svg"><text x="560" y="44">Cond</text>
</a>
</g>
</g>
<path d="M586 40h10"></path>
<path d="M 596 40 h 20 m -10 -10 v 20 m 10 -20 v 20"></path>
</g>
</svg>
