<svg xmlns="http://www.w3.org/2000/svg" xmlns:xlink="http://www.w3.org/1999/xlink" class="railroad-diagram" width="1020" height="80" viewBox="0 0 1020 80">
<defs>
<style type="text/css"><![CDATA[
path {
stroke-width: 3;
stroke: black;
fill: rgba(0,0,0,0);
}
text {
font: bold 14px monospace;
text-anchor: middle;
}
text.diagram-text {
font-size: 12px;
}
a {
fill: blue;
}
text.diagram-arrow {
font-size: 16px;
}
text.label {
text-anchor: start;
}
text.comment {
font: italic 12px monospace;
}
rect {
stroke-width: 3;
stroke: black;
fill: #BCBCBC;
}
path.diagram-text {
stroke-width: 3;
stroke: black;
fill: #BCBCBC;
cursor: help;
}
]]></style>
</defs>
<g transform="translate(.5 .5)">
<path d="M 20 30 v 20 m 10 -20 v 20 m -10 -10 h 20.5"></path>
<path d="M40 40h10"></path>
<g>
<path d="M50 40h0"></path>
<path d="M970 40h0"></path>
<g class="terminal">
<path d="M50 40h0"></path>
<path d="M134 40h0"></path>
<rect x="50" y="29" width="84" height="22" rx="10" ry="10"></rect>
<text x="92" y="44">"ASSERT"</text>
</g>
<path d="M134 40h10"></path>
<g>
<path d="M144 40h0"></path>
<path d="M316 40h0"></path>
<path d="M144 40a10 10 0 0 0 10 -10v0a10 10 0 0 1 10 -10"></path>
<g>
<path d="M164 20h132"></path>
</g>
<path d="M296 20a10 10 0 0 1 10 10v0a10 10 0 0 0 10 10"></path>
<path d="M144 40h20"></path>
<g>
<path d="M164 40h0"></path>
<path d="M296 40h0"></path>
<g class="terminal">
<path d="M164 40h0"></path>
<path d="M216 40h0"></path>
<rect x="164" y="29" width="52" height="22" rx="10" ry="10"></rect>
<text x="190" y="44">"ID"</text>
</g>
<path d="M216 40h10"></path>
<path d="M226 40h10"></path>
<g class="non-terminal">
<path d="M236 40h0"></path>
<path d="M296 40h0"></path>
<rect x="236" y="29" width="60" height="22"></rect>
<a xlink:href="reuse_field.svg"><text x="266" y="44">Field</text>
</a>
</g>
</g>
<path d="M296 40h20"></path>
</g>
<g>
<path d="M316 40h0"></path>
<path d="M528 40h0"></path>
<path d="M316 40a10 10 0 0 0 10 -10v0a10 10 0 0 1 10 -10"></path>
<g>
<path d="M336 20h172"></path>
</g>
<path d="M508 20a10 10 0 0 1 10 10v0a10 10 0 0 0 10 10"></path>
<path d="M316 40h20"></path>
<g>
<path d="M336 40h0"></path>
<path d="M508 40h0"></path>
<g class="terminal">
<path d="M336 40h0"></path>
<path d="M420 40h0"></path>
<rect x="336" y="29" width="84" height="22" rx="10" ry="10"></rect>
<text x="378" y="44">"SUBKEY"</text>
</g>
<path d="M420 40h10"></path>
<path d="M430 40h10"></path>
<g class="non-terminal">
<path d="M440 40h0"></path>
<path d="M508 40h0"></path>
<rect x="440" y="29" width="68" height="22"></rect>
<a xlink:href="reuse_source.svg"><text x="474" y="44">Source</text>
</a>
</g>
</g>
<path d="M508 40h20"></path>
</g>
<g>
<path d="M528 40h0"></path>
<path d="M760 40h0"></path>
<path d="M528 40a10 10 0 0 0 10 -10v0a10 10 0 0 1 10 -10"></path>
<g>
<path d="M548 20h192"></path>
</g>
<path d="M740 20a10 10 0 0 1 10 10v0a10 10 0 0 0 10 10"></path>
<path d="M528 40h20"></path>
<g>
<path d="M548 40h0"></path>
<path d="M740 40h0"></path>
<g class="terminal">
<path d="M548 40h0"></path>
<path d="M632 40h0"></path>
<rect x="548" y="29" width="84" height="22" rx="10" ry="10"></rect>
<text x="590" y="44">"FIELDS"</text>
</g>
<path d="M632 40h10"></path>
<path d="M642 40h10"></path>
<g>
<path d="M652 40h0"></path>
<path d="M740 40h0"></path>
<path d="M652 40h10"></path>
<g class="non-terminal">
<path d="M662 40h0"></path>
<path d="M730 40h0"></path>
<rect x="662" y="29" width="68" height="22"></rect>
<a xlink:href="reuse_source.svg"><text x="696" y="44">Source</text>
</a>
</g>
<path d="M730 40h10"></path>
<path d="M662 40a10 10 0 0 0 -10 10v0a10 10 0 0 0 10 10"></path>
<g>
<path d="M662 60h68"></path>
</g>
<path d="M730 60a10 10 0 0 0 10 -10v0a10 10 0 0 0 -10 -10"></path>
</g>
</g>
<path d="M740 40h20"></path>
</g>
<g>
<path d="M760 40h0"></path>
<path d="M908 40h0"></path>
<path d="M760 40a10 10 0 0 0 10 -10v0a10 10 0 0 1 10 -10"></path>
<g>
<path d="M780 20h108"></path>
</g>
<path d="M888 20a10 10 0 0 1 10 10v0a10 10 0 0 0 10 10"></path>
<path d="M760 40h20"></path>
<g class="terminal">
<path d="M780 40h0"></path>
<path d="M888 40h0"></path>
<rect x="780" y="29" width="108" height="22" rx="10" ry="10"></rect>
<text x="834" y="44">"CONDITION"</text>
</g>
<path d="M888 40h20"></path>
</g>
<path d="M908 40h10"></path>
<g class="non-terminal">
<path d="M918 40h0"></path>
<path d="M970 40h0"></path>
<rect x="918" y="29" width="52" height="22"></rect>
<a xlink:href="reuse_cond.svg"><text x="944" y="44">Cond</text>
</a>
</g>
</g>
<path d="M970 40h10"></path>
<path d="M 980 40 h 20 m -10 -10 v 20 m 10 -20 v 20"></path>
</g>
</svg>
