<svg xmlns="http://www.w3.org/2000/svg" xmlns:xlink="http://www.w3.org/1999/xlink" class="railroad-diagram" width="1010" height="131" viewBox="0 0 1010 131">
<defs>
<style type="text/css"><![CDATA[
path {
stroke-width: 3;
stroke: black;
fill: rgba(0,0,0,0);
}
text {
font: bold 14px monospace;
text-anchor: middle;
}
text.diagram-text {
font-size: 12px;
}
a {
fill: blue;
}
text.diagram-arrow {
font-size: 16px;
}
text.label {
text-anchor: start;
}
text.comment {
font: italic 12px monospace;
}
rect {
stroke-width: 3;
stroke: black;
fill: #BCBCBC;
}
path.diagram-text {
stroke-width: 3;
stroke: black;
fill: #BCBCBC;
cursor: help;
}
]]></style>
</defs>
<g transform="translate(.5 .5)">
<path d="M 20 30 v 20 m 10 -20 v 20 m -10 -10 h 20.5"></path>
<path d="M40 40h10"></path>
<g>
<path d="M50 40h0"></path>
<path d="M960 40h0"></path>
<g class="terminal">
<path d="M50 40h0"></path>
<path d="M134 40h0"></path>
<rect x="50" y="29" width="84" height="22" rx="10" ry="10"></rect>
<text x="92" y="44">"ASSIGN"</text>
</g>
<path d="M134 40h10"></path>
<g>
<path d="M144 40h0"></path>
<path d="M620 40h0"></path>
<path d="M144 40h20"></path>
<g class="non-terminal">
<path d="M164 40h184"></path>
<path d="M416 40h184"></path>
<rect x="348" y="29" width="68" height="22"></rect>
<a xlink:href="reuse_source.svg"><text x="382" y="44">source</text>
</a>
</g>
<path d="M600 40h20"></path>
<path d="M144 40a10 10 0 0 1 10 10v10a10 10 0 0 0 10 10"></path>
<g>
<path d="M164 70h0"></path>
<path d="M600 70h0"></path>
<g class="terminal">
<path d="M164 70h0"></path>
<path d="M272 70h0"></path>
<rect x="164" y="59" width="108" height="22" rx="10" ry="10"></rect>
<text x="218" y="74">"COMPONENT"</text>
</g>
<path d="M272 70h10"></path>
<path d="M282 70h10"></path>
<g class="non-terminal">
<path d="M292 70h0"></path>
<path d="M360 70h0"></path>
<rect x="292" y="59" width="68" height="22"></rect>
<a xlink:href="reuse_source.svg"><text x="326" y="74">source</text>
</a>
</g>
<path d="M360 70h10"></path>
<path d="M370 70h10"></path>
<g class="terminal">
<path d="M380 70h0"></path>
<path d="M512 70h0"></path>
<rect x="380" y="59" width="132" height="22" rx="10" ry="10"></rect>
<text x="446" y="74">"OF STRUCTURE"</text>
</g>
<path d="M512 70h10"></path>
<path d="M522 70h10"></path>
<g class="non-terminal">
<path d="M532 70h0"></path>
<path d="M600 70h0"></path>
<rect x="532" y="59" width="68" height="22"></rect>
<a xlink:href="reuse_source.svg"><text x="566" y="74">source</text>
</a>
</g>
</g>
<path d="M600 70a10 10 0 0 0 10 -10v-10a10 10 0 0 1 10 -10"></path>
<path d="M144 40a10 10 0 0 1 10 10v40a10 10 0 0 0 10 10"></path>
<g>
<path d="M164 100h120"></path>
<path d="M480 100h120"></path>
<g class="terminal">
<path d="M284 100h0"></path>
<path d="M328 100h0"></path>
<rect x="284" y="89" width="44" height="22" rx="10" ry="10"></rect>
<text x="306" y="104">"("</text>
</g>
<path d="M328 100h10"></path>
<path d="M338 100h10"></path>
<g class="non-terminal">
<path d="M348 100h0"></path>
<path d="M416 100h0"></path>
<rect x="348" y="89" width="68" height="22"></rect>
<a xlink:href="reuse_source.svg"><text x="382" y="104">source</text>
</a>
</g>
<path d="M416 100h10"></path>
<path d="M426 100h10"></path>
<g class="terminal">
<path d="M436 100h0"></path>
<path d="M480 100h0"></path>
<rect x="436" y="89" width="44" height="22" rx="10" ry="10"></rect>
<text x="458" y="104">")"</text>
</g>
</g>
<path d="M600 100a10 10 0 0 0 10 -10v-40a10 10 0 0 1 10 -10"></path>
</g>
<path d="M620 40h10"></path>
<g class="terminal">
<path d="M630 40h0"></path>
<path d="M682 40h0"></path>
<rect x="630" y="29" width="52" height="22" rx="10" ry="10"></rect>
<text x="656" y="44">"TO"</text>
</g>
<path d="M682 40h10"></path>
<path d="M692 40h10"></path>
<g class="non-terminal">
<path d="M702 40h0"></path>
<path d="M818 40h0"></path>
<rect x="702" y="29" width="116" height="22"></rect>
<a xlink:href="reuse_field_symbol.svg"><text x="760" y="44">field&#95;symbol</text>
</a>
</g>
<path d="M818 40h10"></path>
<g>
<path d="M828 40h0"></path>
<path d="M960 40h0"></path>
<path d="M828 40a10 10 0 0 0 10 -10v0a10 10 0 0 1 10 -10"></path>
<g>
<path d="M848 20h92"></path>
</g>
<path d="M940 20a10 10 0 0 1 10 10v0a10 10 0 0 0 10 10"></path>
<path d="M828 40h20"></path>
<g class="terminal">
<path d="M848 40h0"></path>
<path d="M940 40h0"></path>
<rect x="848" y="29" width="92" height="22" rx="10" ry="10"></rect>
<text x="894" y="44">"CASTING"</text>
</g>
<path d="M940 40h20"></path>
</g>
</g>
<path d="M960 40h10"></path>
<path d="M 970 40 h 20 m -10 -10 v 20 m 10 -20 v 20"></path>
</g>
</svg>
