<?xml version="1.0" encoding="UTF-8" standalone="no"?>
<!DOCTYPE svg PUBLIC "-//W3C//DTD SVG 1.1//EN"
 "http://www.w3.org/Graphics/SVG/1.1/DTD/svg11.dtd">
<!-- Generated by graphviz version 2.38.0 (20140413.2041)
 -->
<!-- Title: assign Pages: 1 -->
<svg width="316pt" height="692pt"
 viewBox="0.00 0.00 316.47 692.00" xmlns="http://www.w3.org/2000/svg" xmlns:xlink="http://www.w3.org/1999/xlink">
<g id="graph0" class="graph" transform="scale(1 1) rotate(0) translate(4 688)">
<title>assign</title>
<polygon fill="white" stroke="none" points="-4,4 -4,-688 312.475,-688 312.475,4 -4,4"/>
<!-- start -->
<g id="node1" class="node"><title>start</title>
<polygon fill="none" stroke="black" points="167.237,-684 113.237,-684 113.237,-648 167.237,-648 167.237,-684"/>
<text text-anchor="middle" x="140.237" y="-661.8" font-family="Times,serif" font-size="14.00">Start</text>
</g>
<!-- node384 -->
<g id="node14" class="node"><title>node384</title>
<ellipse fill="none" stroke="black" cx="140.237" cy="-594" rx="53.561" ry="18"/>
<text text-anchor="middle" x="140.237" y="-589.8" font-family="Times,serif" font-size="14.00">&quot;ASSIGN&quot;</text>
</g>
<!-- start&#45;&gt;node384 -->
<g id="edge16" class="edge"><title>start&#45;&gt;node384</title>
<path fill="none" stroke="black" d="M140.237,-647.697C140.237,-639.983 140.237,-630.712 140.237,-622.112"/>
<polygon fill="black" stroke="black" points="143.737,-622.104 140.237,-612.104 136.737,-622.104 143.737,-622.104"/>
</g>
<!-- end -->
<g id="node2" class="node"><title>end</title>
<polygon fill="none" stroke="black" points="167.237,-36 113.237,-36 113.237,-0 167.237,-0 167.237,-36"/>
<text text-anchor="middle" x="140.237" y="-13.8" font-family="Times,serif" font-size="14.00">End</text>
</g>
<!-- node373 -->
<g id="node3" class="node"><title>node373</title>
<ellipse fill="none" stroke="black" cx="185.237" cy="-90" rx="60.5039" ry="18"/>
<text text-anchor="middle" x="185.237" y="-85.8" font-family="Times,serif" font-size="14.00">&quot;CASTING&quot;</text>
</g>
<!-- node373&#45;&gt;end -->
<g id="edge1" class="edge"><title>node373&#45;&gt;end</title>
<path fill="none" stroke="black" d="M174.344,-72.055C169.116,-63.922 162.736,-53.998 156.915,-44.9426"/>
<polygon fill="black" stroke="black" points="159.695,-42.7944 151.343,-36.2753 153.806,-46.5798 159.695,-42.7944"/>
</g>
<!-- node374 -->
<g id="node4" class="node"><title>node374</title>
<g id="a_node4"><a xlink:href="reuse_field_symbol.svg" xlink:title="&lt;u&gt;field_symbol&lt;/u&gt;">
<ellipse fill="none" stroke="black" cx="140.237" cy="-162" rx="61.9982" ry="18"/>
<text text-anchor="start" x="103.296" y="-158.8" font-family="Times,serif" text-decoration="underline" font-size="14.00" fill="blue">field_symbol</text>
</a>
</g>
</g>
<!-- node374&#45;&gt;end -->
<g id="edge3" class="edge"><title>node374&#45;&gt;end</title>
<path fill="none" stroke="black" d="M129.872,-144.031C124.334,-133.957 118.084,-120.707 115.237,-108 111.74,-92.387 111.74,-87.613 115.237,-72 117.251,-63.0093 120.969,-53.747 124.933,-45.5303"/>
<polygon fill="black" stroke="black" points="128.145,-46.9368 129.612,-36.444 121.922,-43.732 128.145,-46.9368"/>
</g>
<!-- node374&#45;&gt;node373 -->
<g id="edge2" class="edge"><title>node374&#45;&gt;node373</title>
<path fill="none" stroke="black" d="M151.131,-144.055C156.492,-135.715 163.065,-125.491 169.004,-116.252"/>
<polygon fill="black" stroke="black" points="171.981,-118.093 174.444,-107.789 166.093,-114.308 171.981,-118.093"/>
</g>
<!-- node375 -->
<g id="node5" class="node"><title>node375</title>
<ellipse fill="none" stroke="black" cx="140.237" cy="-234" rx="31.5723" ry="18"/>
<text text-anchor="middle" x="140.237" y="-229.8" font-family="Times,serif" font-size="14.00">&quot;TO&quot;</text>
</g>
<!-- node375&#45;&gt;node374 -->
<g id="edge4" class="edge"><title>node375&#45;&gt;node374</title>
<path fill="none" stroke="black" d="M140.237,-215.697C140.237,-207.983 140.237,-198.712 140.237,-190.112"/>
<polygon fill="black" stroke="black" points="143.737,-190.104 140.237,-180.104 136.737,-190.104 143.737,-190.104"/>
</g>
<!-- node376 -->
<g id="node6" class="node"><title>node376</title>
<g id="a_node6"><a xlink:href="reuse_source.svg" xlink:title="&lt;u&gt;source&lt;/u&gt;">
<ellipse fill="none" stroke="black" cx="36.2373" cy="-306" rx="36.4761" ry="18"/>
<text text-anchor="start" x="17.9701" y="-302.8" font-family="Times,serif" text-decoration="underline" font-size="14.00" fill="blue">source</text>
</a>
</g>
</g>
<!-- node376&#45;&gt;node375 -->
<g id="edge5" class="edge"><title>node376&#45;&gt;node375</title>
<path fill="none" stroke="black" d="M56.7843,-291.17C72.5122,-280.584 94.3891,-265.859 111.798,-254.142"/>
<polygon fill="black" stroke="black" points="114.097,-256.813 120.439,-248.326 110.188,-251.006 114.097,-256.813"/>
</g>
<!-- node377 -->
<g id="node7" class="node"><title>node377</title>
<g id="a_node7"><a xlink:href="reuse_source.svg" xlink:title="&lt;u&gt;source&lt;/u&gt;">
<ellipse fill="none" stroke="black" cx="140.237" cy="-306" rx="36.4761" ry="18"/>
<text text-anchor="start" x="121.97" y="-302.8" font-family="Times,serif" text-decoration="underline" font-size="14.00" fill="blue">source</text>
</a>
</g>
</g>
<!-- node377&#45;&gt;node375 -->
<g id="edge6" class="edge"><title>node377&#45;&gt;node375</title>
<path fill="none" stroke="black" d="M140.237,-287.697C140.237,-279.983 140.237,-270.712 140.237,-262.112"/>
<polygon fill="black" stroke="black" points="143.737,-262.104 140.237,-252.104 136.737,-262.104 143.737,-262.104"/>
</g>
<!-- node378 -->
<g id="node8" class="node"><title>node378</title>
<ellipse fill="none" stroke="black" cx="140.237" cy="-378" rx="89.9969" ry="18"/>
<text text-anchor="middle" x="140.237" y="-373.8" font-family="Times,serif" font-size="14.00">&quot;OF STRUCTURE&quot;</text>
</g>
<!-- node378&#45;&gt;node377 -->
<g id="edge7" class="edge"><title>node378&#45;&gt;node377</title>
<path fill="none" stroke="black" d="M140.237,-359.697C140.237,-351.983 140.237,-342.712 140.237,-334.112"/>
<polygon fill="black" stroke="black" points="143.737,-334.104 140.237,-324.104 136.737,-334.104 143.737,-334.104"/>
</g>
<!-- node379 -->
<g id="node9" class="node"><title>node379</title>
<g id="a_node9"><a xlink:href="reuse_source.svg" xlink:title="&lt;u&gt;source&lt;/u&gt;">
<ellipse fill="none" stroke="black" cx="140.237" cy="-450" rx="36.4761" ry="18"/>
<text text-anchor="start" x="121.97" y="-446.8" font-family="Times,serif" text-decoration="underline" font-size="14.00" fill="blue">source</text>
</a>
</g>
</g>
<!-- node379&#45;&gt;node378 -->
<g id="edge8" class="edge"><title>node379&#45;&gt;node378</title>
<path fill="none" stroke="black" d="M140.237,-431.697C140.237,-423.983 140.237,-414.712 140.237,-406.112"/>
<polygon fill="black" stroke="black" points="143.737,-406.104 140.237,-396.104 136.737,-406.104 143.737,-406.104"/>
</g>
<!-- node380 -->
<g id="node10" class="node"><title>node380</title>
<ellipse fill="none" stroke="black" cx="140.237" cy="-522" rx="78.9829" ry="18"/>
<text text-anchor="middle" x="140.237" y="-517.8" font-family="Times,serif" font-size="14.00">&quot;COMPONENT&quot;</text>
</g>
<!-- node380&#45;&gt;node379 -->
<g id="edge9" class="edge"><title>node380&#45;&gt;node379</title>
<path fill="none" stroke="black" d="M140.237,-503.697C140.237,-495.983 140.237,-486.712 140.237,-478.112"/>
<polygon fill="black" stroke="black" points="143.737,-478.104 140.237,-468.104 136.737,-478.104 143.737,-478.104"/>
</g>
<!-- node381 -->
<g id="node11" class="node"><title>node381</title>
<ellipse fill="none" stroke="black" cx="275.237" cy="-378" rx="27" ry="18"/>
<text text-anchor="middle" x="275.237" y="-373.8" font-family="Times,serif" font-size="14.00">&quot;)&quot;</text>
</g>
<!-- node381&#45;&gt;node375 -->
<g id="edge10" class="edge"><title>node381&#45;&gt;node375</title>
<path fill="none" stroke="black" d="M261.298,-362.338C237.675,-337.49 189.624,-286.947 161.687,-257.561"/>
<polygon fill="black" stroke="black" points="164.137,-255.06 154.711,-250.224 159.064,-259.883 164.137,-255.06"/>
</g>
<!-- node382 -->
<g id="node12" class="node"><title>node382</title>
<g id="a_node12"><a xlink:href="reuse_source.svg" xlink:title="&lt;u&gt;source&lt;/u&gt;">
<ellipse fill="none" stroke="black" cx="272.237" cy="-450" rx="36.4761" ry="18"/>
<text text-anchor="start" x="253.97" y="-446.8" font-family="Times,serif" text-decoration="underline" font-size="14.00" fill="blue">source</text>
</a>
</g>
</g>
<!-- node382&#45;&gt;node381 -->
<g id="edge11" class="edge"><title>node382&#45;&gt;node381</title>
<path fill="none" stroke="black" d="M272.979,-431.697C273.309,-423.983 273.707,-414.712 274.075,-406.112"/>
<polygon fill="black" stroke="black" points="277.573,-406.245 274.504,-396.104 270.579,-405.945 277.573,-406.245"/>
</g>
<!-- node383 -->
<g id="node13" class="node"><title>node383</title>
<ellipse fill="none" stroke="black" cx="267.237" cy="-522" rx="27" ry="18"/>
<text text-anchor="middle" x="267.237" y="-517.8" font-family="Times,serif" font-size="14.00">&quot;(&quot;</text>
</g>
<!-- node383&#45;&gt;node382 -->
<g id="edge12" class="edge"><title>node383&#45;&gt;node382</title>
<path fill="none" stroke="black" d="M268.473,-503.697C269.024,-495.983 269.686,-486.712 270.301,-478.112"/>
<polygon fill="black" stroke="black" points="273.794,-478.328 271.016,-468.104 266.812,-477.83 273.794,-478.328"/>
</g>
<!-- node384&#45;&gt;node376 -->
<g id="edge13" class="edge"><title>node384&#45;&gt;node376</title>
<path fill="none" stroke="black" d="M103.881,-580.476C85.1918,-572.058 63.9367,-558.977 52.2373,-540 12.2618,-475.159 22.3419,-380.006 30.5391,-333.949"/>
<polygon fill="black" stroke="black" points="33.9792,-334.594 32.3959,-324.118 27.1008,-333.294 33.9792,-334.594"/>
</g>
<!-- node384&#45;&gt;node380 -->
<g id="edge14" class="edge"><title>node384&#45;&gt;node380</title>
<path fill="none" stroke="black" d="M140.237,-575.697C140.237,-567.983 140.237,-558.712 140.237,-550.112"/>
<polygon fill="black" stroke="black" points="143.737,-550.104 140.237,-540.104 136.737,-550.104 143.737,-550.104"/>
</g>
<!-- node384&#45;&gt;node383 -->
<g id="edge15" class="edge"><title>node384&#45;&gt;node383</title>
<path fill="none" stroke="black" d="M166.861,-578.326C187.642,-566.871 216.489,-550.972 237.927,-539.155"/>
<polygon fill="black" stroke="black" points="239.839,-542.098 246.907,-534.205 236.46,-535.967 239.839,-542.098"/>
</g>
</g>
</svg>
