<svg xmlns="http://www.w3.org/2000/svg" xmlns:xlink="http://www.w3.org/1999/xlink" class="railroad-diagram" width="1324" height="139" viewBox="0 0 1324 139">
<defs>
<style type="text/css"><![CDATA[
path {
stroke-width: 3;
stroke: black;
fill: rgba(0,0,0,0);
}
text {
font: bold 14px monospace;
text-anchor: middle;
}
text.diagram-text {
font-size: 12px;
}
a {
fill: blue;
}
text.diagram-arrow {
font-size: 16px;
}
text.label {
text-anchor: start;
}
text.comment {
font: italic 12px monospace;
}
rect {
stroke-width: 3;
stroke: black;
fill: #BCBCBC;
}
path.diagram-text {
stroke-width: 3;
stroke: black;
fill: #BCBCBC;
cursor: help;
}
]]></style>
</defs>
<g transform="translate(.5 .5)">
<path d="M 20 38 v 20 m 10 -20 v 20 m -10 -10 h 20.5"></path>
<path d="M40 48h10"></path>
<g>
<path d="M50 48h0"></path>
<path d="M1274 48h0"></path>
<g class="terminal">
<path d="M50 48h0"></path>
<path d="M134 48h0"></path>
<rect x="50" y="37" width="84" height="22" rx="10" ry="10"></rect>
<text x="92" y="52">"ASSIGN"</text>
</g>
<path d="M134 48h10"></path>
<g>
<path d="M144 48h0"></path>
<path d="M620 48h0"></path>
<path d="M144 48h20"></path>
<g class="non-terminal">
<path d="M164 48h184"></path>
<path d="M416 48h184"></path>
<rect x="348" y="37" width="68" height="22"></rect>
<a xlink:href="reuse_source.svg"><text x="382" y="52">source</text>
</a>
</g>
<path d="M600 48h20"></path>
<path d="M144 48a10 10 0 0 1 10 10v10a10 10 0 0 0 10 10"></path>
<g>
<path d="M164 78h0"></path>
<path d="M600 78h0"></path>
<g class="terminal">
<path d="M164 78h0"></path>
<path d="M272 78h0"></path>
<rect x="164" y="67" width="108" height="22" rx="10" ry="10"></rect>
<text x="218" y="82">"COMPONENT"</text>
</g>
<path d="M272 78h10"></path>
<path d="M282 78h10"></path>
<g class="non-terminal">
<path d="M292 78h0"></path>
<path d="M360 78h0"></path>
<rect x="292" y="67" width="68" height="22"></rect>
<a xlink:href="reuse_source.svg"><text x="326" y="82">source</text>
</a>
</g>
<path d="M360 78h10"></path>
<path d="M370 78h10"></path>
<g class="terminal">
<path d="M380 78h0"></path>
<path d="M512 78h0"></path>
<rect x="380" y="67" width="132" height="22" rx="10" ry="10"></rect>
<text x="446" y="82">"OF STRUCTURE"</text>
</g>
<path d="M512 78h10"></path>
<path d="M522 78h10"></path>
<g class="non-terminal">
<path d="M532 78h0"></path>
<path d="M600 78h0"></path>
<rect x="532" y="67" width="68" height="22"></rect>
<a xlink:href="reuse_source.svg"><text x="566" y="82">source</text>
</a>
</g>
</g>
<path d="M600 78a10 10 0 0 0 10 -10v-10a10 10 0 0 1 10 -10"></path>
<path d="M144 48a10 10 0 0 1 10 10v40a10 10 0 0 0 10 10"></path>
<g class="non-terminal">
<path d="M164 108h180"></path>
<path d="M420 108h180"></path>
<rect x="344" y="97" width="76" height="22"></rect>
<a xlink:href="reuse_dynamic.svg"><text x="382" y="112">dynamic</text>
</a>
</g>
<path d="M600 108a10 10 0 0 0 10 -10v-40a10 10 0 0 1 10 -10"></path>
</g>
<path d="M620 48h10"></path>
<g class="terminal">
<path d="M630 48h0"></path>
<path d="M682 48h0"></path>
<rect x="630" y="37" width="52" height="22" rx="10" ry="10"></rect>
<text x="656" y="52">"TO"</text>
</g>
<path d="M682 48h10"></path>
<g>
<path d="M692 48h0"></path>
<path d="M848 48h0"></path>
<path d="M692 48h20"></path>
<g class="non-terminal">
<path d="M712 48h0"></path>
<path d="M828 48h0"></path>
<rect x="712" y="37" width="116" height="22"></rect>
<a xlink:href="reuse_field_symbol.svg"><text x="770" y="52">field&#95;symbol</text>
</a>
</g>
<path d="M828 48h20"></path>
<path d="M692 48a10 10 0 0 1 10 10v10a10 10 0 0 0 10 10"></path>
<g class="non-terminal">
<path d="M712 78h12"></path>
<path d="M816 78h12"></path>
<rect x="724" y="67" width="92" height="22"></rect>
<a xlink:href="reuse_inline_fs.svg"><text x="770" y="82">inline&#95;fs</text>
</a>
</g>
<path d="M828 78a10 10 0 0 0 10 -10v-10a10 10 0 0 1 10 -10"></path>
</g>
<g>
<path d="M848 48h0"></path>
<path d="M1274 48h0"></path>
<path d="M848 48a10 10 0 0 0 10 -10v-8a10 10 0 0 1 10 -10"></path>
<g>
<path d="M868 20h386"></path>
</g>
<path d="M1254 20a10 10 0 0 1 10 10v8a10 10 0 0 0 10 10"></path>
<path d="M848 48h20"></path>
<g>
<path d="M868 48h0"></path>
<path d="M1254 48h0"></path>
<g class="terminal">
<path d="M868 48h0"></path>
<path d="M960 48h0"></path>
<rect x="868" y="37" width="92" height="22" rx="10" ry="10"></rect>
<text x="914" y="52">"CASTING"</text>
</g>
<path d="M960 48h10"></path>
<g>
<path d="M970 48h0"></path>
<path d="M1254 48h0"></path>
<path d="M970 48a10 10 0 0 0 10 -10v0a10 10 0 0 1 10 -10"></path>
<g>
<path d="M990 28h244"></path>
</g>
<path d="M1234 28a10 10 0 0 1 10 10v0a10 10 0 0 0 10 10"></path>
<path d="M970 48h20"></path>
<g>
<path d="M990 48h0"></path>
<path d="M1234 48h0"></path>
<path d="M990 48h20"></path>
<g>
<path d="M1010 48h20"></path>
<path d="M1194 48h20"></path>
<g class="terminal">
<path d="M1030 48h0"></path>
<path d="M1098 48h0"></path>
<rect x="1030" y="37" width="68" height="22" rx="10" ry="10"></rect>
<text x="1064" y="52">"TYPE"</text>
</g>
<path d="M1098 48h10"></path>
<path d="M1108 48h10"></path>
<g class="non-terminal">
<path d="M1118 48h0"></path>
<path d="M1194 48h0"></path>
<rect x="1118" y="37" width="76" height="22"></rect>
<a xlink:href="reuse_dynamic.svg"><text x="1156" y="52">dynamic</text>
</a>
</g>
</g>
<path d="M1214 48h20"></path>
<path d="M990 48a10 10 0 0 1 10 10v10a10 10 0 0 0 10 10"></path>
<g>
<path d="M1010 78h0"></path>
<path d="M1214 78h0"></path>
<g class="terminal">
<path d="M1010 78h0"></path>
<path d="M1134 78h0"></path>
<rect x="1010" y="67" width="124" height="22" rx="10" ry="10"></rect>
<text x="1072" y="82">"TYPE HANDLE"</text>
</g>
<path d="M1134 78h10"></path>
<path d="M1144 78h10"></path>
<g class="non-terminal">
<path d="M1154 78h0"></path>
<path d="M1214 78h0"></path>
<rect x="1154" y="67" width="60" height="22"></rect>
<a xlink:href="reuse_field.svg"><text x="1184" y="82">field</text>
</a>
</g>
</g>
<path d="M1214 78a10 10 0 0 0 10 -10v-10a10 10 0 0 1 10 -10"></path>
</g>
<path d="M1234 48h20"></path>
</g>
</g>
<path d="M1254 48h20"></path>
</g>
</g>
<path d="M1274 48h10"></path>
<path d="M 1284 48 h 20 m -10 -10 v 20 m 10 -20 v 20"></path>
</g>
</svg>
