<svg xmlns="http://www.w3.org/2000/svg" xmlns:xlink="http://www.w3.org/1999/xlink" class="railroad-diagram" width="1508" height="148" viewBox="0 0 1508 148">
<defs>
<style type="text/css"><![CDATA[
path {
stroke-width: 3;
stroke: black;
fill: rgba(0,0,0,0);
}
text {
font: bold 14px monospace;
text-anchor: middle;
}
text.diagram-text {
font-size: 12px;
}
a {
fill: blue;
}
text.diagram-arrow {
font-size: 16px;
}
text.label {
text-anchor: start;
}
text.comment {
font: italic 12px monospace;
}
rect {
stroke-width: 3;
stroke: black;
fill: #BCBCBC;
}
path.diagram-text {
stroke-width: 3;
stroke: black;
fill: #BCBCBC;
cursor: help;
}
]]></style>
</defs>
<g transform="translate(.5 .5)">
<path d="M 20 38 v 20 m 10 -20 v 20 m -10 -10 h 20.5"></path>
<path d="M40 48h10"></path>
<g>
<path d="M50 48h0"></path>
<path d="M1458 48h0"></path>
<g class="terminal">
<path d="M50 48h0"></path>
<path d="M134 48h0"></path>
<rect x="50" y="37" width="84" height="22" rx="10" ry="10"></rect>
<text x="92" y="52">"ASSIGN"</text>
</g>
<path d="M134 48h10"></path>
<g>
<path d="M144 48h0"></path>
<path d="M380 48h0"></path>
<path d="M144 48a10 10 0 0 0 10 -10v0a10 10 0 0 1 10 -10"></path>
<g>
<path d="M164 28h196"></path>
</g>
<path d="M360 28a10 10 0 0 1 10 10v0a10 10 0 0 0 10 10"></path>
<path d="M144 48h20"></path>
<g>
<path d="M164 48h0"></path>
<path d="M360 48h0"></path>
<g class="non-terminal">
<path d="M164 48h0"></path>
<path d="M232 48h0"></path>
<rect x="164" y="37" width="68" height="22"></rect>
<a xlink:href="reuse_target.svg"><text x="198" y="52">Target</text>
</a>
</g>
<path d="M232 48h10"></path>
<path d="M242 48h10"></path>
<g class="terminal">
<path d="M252 48h0"></path>
<path d="M360 48h0"></path>
<rect x="252" y="37" width="108" height="22" rx="10" ry="10"></rect>
<text x="306" y="52">"INCREMENT"</text>
</g>
</g>
<path d="M360 48h20"></path>
</g>
<g>
<path d="M380 48h0"></path>
<path d="M856 48h0"></path>
<path d="M380 48h20"></path>
<g>
<path d="M400 48h0"></path>
<path d="M698 48h138"></path>
<g class="non-terminal">
<path d="M400 48h0"></path>
<path d="M468 48h0"></path>
<rect x="400" y="37" width="68" height="22"></rect>
<a xlink:href="reuse_source.svg"><text x="434" y="52">Source</text>
</a>
</g>
<path d="M468 48h10"></path>
<g>
<path d="M478 48h0"></path>
<path d="M698 48h0"></path>
<path d="M478 48a10 10 0 0 0 10 -10v0a10 10 0 0 1 10 -10"></path>
<g>
<path d="M498 28h180"></path>
</g>
<path d="M678 28a10 10 0 0 1 10 10v0a10 10 0 0 0 10 10"></path>
<path d="M478 48h20"></path>
<g>
<path d="M498 48h0"></path>
<path d="M678 48h0"></path>
<g class="terminal">
<path d="M498 48h0"></path>
<path d="M582 48h0"></path>
<rect x="498" y="37" width="84" height="22" rx="10" ry="10"></rect>
<text x="540" y="52">!"->/=>"</text>
</g>
<path d="M582 48h10"></path>
<path d="M592 48h10"></path>
<g class="non-terminal">
<path d="M602 48h0"></path>
<path d="M678 48h0"></path>
<rect x="602" y="37" width="76" height="22"></rect>
<a xlink:href="reuse_dynamic.svg"><text x="640" y="52">Dynamic</text>
</a>
</g>
</g>
<path d="M678 48h20"></path>
</g>
</g>
<path d="M836 48h20"></path>
<path d="M380 48a10 10 0 0 1 10 10v10a10 10 0 0 0 10 10"></path>
<g>
<path d="M400 78h0"></path>
<path d="M836 78h0"></path>
<g class="terminal">
<path d="M400 78h0"></path>
<path d="M508 78h0"></path>
<rect x="400" y="67" width="108" height="22" rx="10" ry="10"></rect>
<text x="454" y="82">"COMPONENT"</text>
</g>
<path d="M508 78h10"></path>
<path d="M518 78h10"></path>
<g class="non-terminal">
<path d="M528 78h0"></path>
<path d="M596 78h0"></path>
<rect x="528" y="67" width="68" height="22"></rect>
<a xlink:href="reuse_source.svg"><text x="562" y="82">Source</text>
</a>
</g>
<path d="M596 78h10"></path>
<path d="M606 78h10"></path>
<g class="terminal">
<path d="M616 78h0"></path>
<path d="M748 78h0"></path>
<rect x="616" y="67" width="132" height="22" rx="10" ry="10"></rect>
<text x="682" y="82">"OF STRUCTURE"</text>
</g>
<path d="M748 78h10"></path>
<path d="M758 78h10"></path>
<g class="non-terminal">
<path d="M768 78h0"></path>
<path d="M836 78h0"></path>
<rect x="768" y="67" width="68" height="22"></rect>
<a xlink:href="reuse_source.svg"><text x="802" y="82">Source</text>
</a>
</g>
</g>
<path d="M836 78a10 10 0 0 0 10 -10v-10a10 10 0 0 1 10 -10"></path>
<path d="M380 48a10 10 0 0 1 10 10v49a10 10 0 0 0 10 10"></path>
<g>
<path d="M400 117h0"></path>
<path d="M690 117h146"></path>
<g class="non-terminal">
<path d="M400 117h0"></path>
<path d="M476 117h0"></path>
<rect x="400" y="106" width="76" height="22"></rect>
<a xlink:href="reuse_dynamic.svg"><text x="438" y="121">Dynamic</text>
</a>
</g>
<path d="M476 117h10"></path>
<g>
<path d="M486 117h0"></path>
<path d="M690 117h0"></path>
<path d="M486 117a10 10 0 0 0 10 -10v0a10 10 0 0 1 10 -10"></path>
<g>
<path d="M506 97h164"></path>
</g>
<path d="M670 97a10 10 0 0 1 10 10v0a10 10 0 0 0 10 10"></path>
<path d="M486 117h20"></path>
<g>
<path d="M506 117h0"></path>
<path d="M670 117h0"></path>
<g class="terminal">
<path d="M506 117h0"></path>
<path d="M590 117h0"></path>
<rect x="506" y="106" width="84" height="22" rx="10" ry="10"></rect>
<text x="548" y="121">!"->/=>"</text>
</g>
<path d="M590 117h10"></path>
<path d="M600 117h10"></path>
<g class="non-terminal">
<path d="M610 117h0"></path>
<path d="M670 117h0"></path>
<rect x="610" y="106" width="60" height="22"></rect>
<a xlink:href="reuse_field.svg"><text x="640" y="121">Field</text>
</a>
</g>
</g>
<path d="M670 117h20"></path>
</g>
</g>
<path d="M836 117a10 10 0 0 0 10 -10v-49a10 10 0 0 1 10 -10"></path>
</g>
<path d="M856 48h10"></path>
<g class="terminal">
<path d="M866 48h0"></path>
<path d="M918 48h0"></path>
<rect x="866" y="37" width="52" height="22" rx="10" ry="10"></rect>
<text x="892" y="52">"TO"</text>
</g>
<path d="M918 48h10"></path>
<path d="M928 48h10"></path>
<g class="non-terminal">
<path d="M938 48h0"></path>
<path d="M1022 48h0"></path>
<rect x="938" y="37" width="84" height="22"></rect>
<a xlink:href="reuse_fstarget.svg"><text x="980" y="52">FSTarget</text>
</a>
</g>
<path d="M1022 48h10"></path>
<g>
<path d="M1032 48h0"></path>
<path d="M1458 48h0"></path>
<path d="M1032 48a10 10 0 0 0 10 -10v-8a10 10 0 0 1 10 -10"></path>
<g>
<path d="M1052 20h386"></path>
</g>
<path d="M1438 20a10 10 0 0 1 10 10v8a10 10 0 0 0 10 10"></path>
<path d="M1032 48h20"></path>
<g>
<path d="M1052 48h0"></path>
<path d="M1438 48h0"></path>
<g class="terminal">
<path d="M1052 48h0"></path>
<path d="M1144 48h0"></path>
<rect x="1052" y="37" width="92" height="22" rx="10" ry="10"></rect>
<text x="1098" y="52">"CASTING"</text>
</g>
<path d="M1144 48h10"></path>
<g>
<path d="M1154 48h0"></path>
<path d="M1438 48h0"></path>
<path d="M1154 48a10 10 0 0 0 10 -10v0a10 10 0 0 1 10 -10"></path>
<g>
<path d="M1174 28h244"></path>
</g>
<path d="M1418 28a10 10 0 0 1 10 10v0a10 10 0 0 0 10 10"></path>
<path d="M1154 48h20"></path>
<g>
<path d="M1174 48h0"></path>
<path d="M1418 48h0"></path>
<path d="M1174 48h20"></path>
<g>
<path d="M1194 48h0"></path>
<path d="M1358 48h40"></path>
<g class="terminal">
<path d="M1194 48h0"></path>
<path d="M1262 48h0"></path>
<rect x="1194" y="37" width="68" height="22" rx="10" ry="10"></rect>
<text x="1228" y="52">"TYPE"</text>
</g>
<path d="M1262 48h10"></path>
<path d="M1272 48h10"></path>
<g class="non-terminal">
<path d="M1282 48h0"></path>
<path d="M1358 48h0"></path>
<rect x="1282" y="37" width="76" height="22"></rect>
<a xlink:href="reuse_dynamic.svg"><text x="1320" y="52">Dynamic</text>
</a>
</g>
</g>
<path d="M1398 48h20"></path>
<path d="M1174 48a10 10 0 0 1 10 10v10a10 10 0 0 0 10 10"></path>
<g>
<path d="M1194 78h0"></path>
<path d="M1350 78h48"></path>
<g class="terminal">
<path d="M1194 78h0"></path>
<path d="M1270 78h0"></path>
<rect x="1194" y="67" width="76" height="22" rx="10" ry="10"></rect>
<text x="1232" y="82">"RANGE"</text>
</g>
<path d="M1270 78h10"></path>
<path d="M1280 78h10"></path>
<g class="non-terminal">
<path d="M1290 78h0"></path>
<path d="M1350 78h0"></path>
<rect x="1290" y="67" width="60" height="22"></rect>
<a xlink:href="reuse_field.svg"><text x="1320" y="82">Field</text>
</a>
</g>
</g>
<path d="M1398 78a10 10 0 0 0 10 -10v-10a10 10 0 0 1 10 -10"></path>
<path d="M1174 48a10 10 0 0 1 10 10v40a10 10 0 0 0 10 10"></path>
<g>
<path d="M1194 108h0"></path>
<path d="M1398 108h0"></path>
<g class="terminal">
<path d="M1194 108h0"></path>
<path d="M1318 108h0"></path>
<rect x="1194" y="97" width="124" height="22" rx="10" ry="10"></rect>
<text x="1256" y="112">"TYPE HANDLE"</text>
</g>
<path d="M1318 108h10"></path>
<path d="M1328 108h10"></path>
<g class="non-terminal">
<path d="M1338 108h0"></path>
<path d="M1398 108h0"></path>
<rect x="1338" y="97" width="60" height="22"></rect>
<a xlink:href="reuse_field.svg"><text x="1368" y="112">Field</text>
</a>
</g>
</g>
<path d="M1398 108a10 10 0 0 0 10 -10v-40a10 10 0 0 1 10 -10"></path>
</g>
<path d="M1418 48h20"></path>
</g>
</g>
<path d="M1438 48h20"></path>
</g>
</g>
<path d="M1458 48h10"></path>
<path d="M 1468 48 h 20 m -10 -10 v 20 m 10 -20 v 20"></path>
</g>
</svg>
