<svg xmlns="http://www.w3.org/2000/svg" xmlns:xlink="http://www.w3.org/1999/xlink" class="railroad-diagram" width="1722" height="251" viewBox="0 0 1722 251">
<defs>
<style type="text/css"><![CDATA[
path {
stroke-width: 3;
stroke: black;
fill: rgba(0,0,0,0);
}
text {
font: bold 14px monospace;
text-anchor: middle;
}
text.diagram-text {
font-size: 12px;
}
a {
fill: blue;
}
text.diagram-arrow {
font-size: 16px;
}
text.label {
text-anchor: start;
}
text.comment {
font: italic 12px monospace;
}
rect {
stroke-width: 3;
stroke: black;
fill: #BCBCBC;
}
path.diagram-text {
stroke-width: 3;
stroke: black;
fill: #BCBCBC;
cursor: help;
}
]]></style>
</defs>
<g transform="translate(.5 .5)">
<path d="M 20 30 v 20 m 10 -20 v 20 m -10 -10 h 20.5"></path>
<path d="M40 40h10"></path>
<g>
<path d="M50 40h0"></path>
<path d="M1672 40h0"></path>
<g class="terminal">
<path d="M50 40h0"></path>
<path d="M134 40h0"></path>
<rect x="50" y="29" width="84" height="22" rx="10" ry="10"></rect>
<text x="92" y="44">"ASSIGN"</text>
</g>
<path d="M134 40h10"></path>
<g>
<path d="M144 40h0"></path>
<path d="M380 40h0"></path>
<path d="M144 40a10 10 0 0 0 10 -10v0a10 10 0 0 1 10 -10"></path>
<g>
<path d="M164 20h196"></path>
</g>
<path d="M360 20a10 10 0 0 1 10 10v0a10 10 0 0 0 10 10"></path>
<path d="M144 40h20"></path>
<g>
<path d="M164 40h0"></path>
<path d="M360 40h0"></path>
<g class="non-terminal">
<path d="M164 40h0"></path>
<path d="M232 40h0"></path>
<rect x="164" y="29" width="68" height="22"></rect>
<a xlink:href="reuse_target.svg"><text x="198" y="44">Target</text>
</a>
</g>
<path d="M232 40h10"></path>
<path d="M242 40h10"></path>
<g class="terminal">
<path d="M252 40h0"></path>
<path d="M360 40h0"></path>
<rect x="252" y="29" width="108" height="22" rx="10" ry="10"></rect>
<text x="306" y="44">"INCREMENT"</text>
</g>
</g>
<path d="M360 40h20"></path>
</g>
<g>
<path d="M380 40h0"></path>
<path d="M856 40h0"></path>
<path d="M380 40h20"></path>
<g>
<path d="M400 40h0"></path>
<path d="M698 40h138"></path>
<g class="non-terminal">
<path d="M400 40h0"></path>
<path d="M468 40h0"></path>
<rect x="400" y="29" width="68" height="22"></rect>
<a xlink:href="reuse_source.svg"><text x="434" y="44">Source</text>
</a>
</g>
<path d="M468 40h10"></path>
<g>
<path d="M478 40h0"></path>
<path d="M698 40h0"></path>
<path d="M478 40a10 10 0 0 0 10 -10v0a10 10 0 0 1 10 -10"></path>
<g>
<path d="M498 20h180"></path>
</g>
<path d="M678 20a10 10 0 0 1 10 10v0a10 10 0 0 0 10 10"></path>
<path d="M478 40h20"></path>
<g>
<path d="M498 40h0"></path>
<path d="M678 40h0"></path>
<g class="terminal">
<path d="M498 40h0"></path>
<path d="M582 40h0"></path>
<rect x="498" y="29" width="84" height="22" rx="10" ry="10"></rect>
<text x="540" y="44">!"->/=>"</text>
</g>
<path d="M582 40h10"></path>
<path d="M592 40h10"></path>
<g class="non-terminal">
<path d="M602 40h0"></path>
<path d="M678 40h0"></path>
<rect x="602" y="29" width="76" height="22"></rect>
<a xlink:href="reuse_dynamic.svg"><text x="640" y="44">Dynamic</text>
</a>
</g>
</g>
<path d="M678 40h20"></path>
</g>
</g>
<path d="M836 40h20"></path>
<path d="M380 40a10 10 0 0 1 10 10v10a10 10 0 0 0 10 10"></path>
<g>
<path d="M400 70h0"></path>
<path d="M836 70h0"></path>
<g class="terminal">
<path d="M400 70h0"></path>
<path d="M508 70h0"></path>
<rect x="400" y="59" width="108" height="22" rx="10" ry="10"></rect>
<text x="454" y="74">"COMPONENT"</text>
</g>
<path d="M508 70h10"></path>
<path d="M518 70h10"></path>
<g class="non-terminal">
<path d="M528 70h0"></path>
<path d="M596 70h0"></path>
<rect x="528" y="59" width="68" height="22"></rect>
<a xlink:href="reuse_source.svg"><text x="562" y="74">Source</text>
</a>
</g>
<path d="M596 70h10"></path>
<path d="M606 70h10"></path>
<g class="terminal">
<path d="M616 70h0"></path>
<path d="M748 70h0"></path>
<rect x="616" y="59" width="132" height="22" rx="10" ry="10"></rect>
<text x="682" y="74">"OF STRUCTURE"</text>
</g>
<path d="M748 70h10"></path>
<path d="M758 70h10"></path>
<g class="non-terminal">
<path d="M768 70h0"></path>
<path d="M836 70h0"></path>
<rect x="768" y="59" width="68" height="22"></rect>
<a xlink:href="reuse_source.svg"><text x="802" y="74">Source</text>
</a>
</g>
</g>
<path d="M836 70a10 10 0 0 0 10 -10v-10a10 10 0 0 1 10 -10"></path>
<path d="M380 40a10 10 0 0 1 10 10v40a10 10 0 0 0 10 10"></path>
<g>
<path d="M400 100h0"></path>
<path d="M620 100h216"></path>
<g class="terminal">
<path d="M400 100h0"></path>
<path d="M524 100h0"></path>
<rect x="400" y="89" width="124" height="22" rx="10" ry="10"></rect>
<text x="462" y="104">"TABLE FIELD"</text>
</g>
<path d="M524 100h10"></path>
<path d="M534 100h10"></path>
<g class="non-terminal">
<path d="M544 100h0"></path>
<path d="M620 100h0"></path>
<rect x="544" y="89" width="76" height="22"></rect>
<a xlink:href="reuse_dynamic.svg"><text x="582" y="104">Dynamic</text>
</a>
</g>
</g>
<path d="M836 100a10 10 0 0 0 10 -10v-40a10 10 0 0 1 10 -10"></path>
<path d="M380 40a10 10 0 0 1 10 10v79a10 10 0 0 0 10 10"></path>
<g>
<path d="M400 139h0"></path>
<path d="M736 139h100"></path>
<g class="non-terminal">
<path d="M400 139h0"></path>
<path d="M476 139h0"></path>
<rect x="400" y="128" width="76" height="22"></rect>
<a xlink:href="reuse_dynamic.svg"><text x="438" y="143">Dynamic</text>
</a>
</g>
<path d="M476 139h10"></path>
<g>
<path d="M486 139h0"></path>
<path d="M736 139h0"></path>
<path d="M486 139a10 10 0 0 0 10 -10v0a10 10 0 0 1 10 -10"></path>
<g>
<path d="M506 119h210"></path>
</g>
<path d="M716 119a10 10 0 0 1 10 10v0a10 10 0 0 0 10 10"></path>
<path d="M486 139h20"></path>
<g>
<path d="M506 139h0"></path>
<path d="M716 139h0"></path>
<g class="terminal">
<path d="M506 139h0"></path>
<path d="M590 139h0"></path>
<rect x="506" y="128" width="84" height="22" rx="10" ry="10"></rect>
<text x="548" y="143">!"->/=>"</text>
</g>
<path d="M590 139h10"></path>
<g>
<path d="M600 139h0"></path>
<path d="M716 139h0"></path>
<path d="M600 139h20"></path>
<g class="non-terminal">
<path d="M620 139h0"></path>
<path d="M680 139h16"></path>
<rect x="620" y="128" width="60" height="22"></rect>
<a xlink:href="reuse_field.svg"><text x="650" y="143">Field</text>
</a>
</g>
<path d="M696 139h20"></path>
<path d="M600 139a10 10 0 0 1 10 10v10a10 10 0 0 0 10 10"></path>
<g class="non-terminal">
<path d="M620 169h0"></path>
<path d="M696 169h0"></path>
<rect x="620" y="158" width="76" height="22"></rect>
<a xlink:href="reuse_dynamic.svg"><text x="658" y="173">Dynamic</text>
</a>
</g>
<path d="M696 169a10 10 0 0 0 10 -10v-10a10 10 0 0 1 10 -10"></path>
</g>
</g>
<path d="M716 139h20"></path>
</g>
</g>
<path d="M836 139a10 10 0 0 0 10 -10v-79a10 10 0 0 1 10 -10"></path>
</g>
<path d="M856 40h10"></path>
<g class="terminal">
<path d="M866 40h0"></path>
<path d="M918 40h0"></path>
<rect x="866" y="29" width="52" height="22" rx="10" ry="10"></rect>
<text x="892" y="44">"TO"</text>
</g>
<path d="M918 40h10"></path>
<path d="M928 40h10"></path>
<g class="non-terminal">
<path d="M938 40h0"></path>
<path d="M1022 40h0"></path>
<rect x="938" y="29" width="84" height="22"></rect>
<a xlink:href="reuse_fstarget.svg"><text x="980" y="44">FSTarget</text>
</a>
</g>
<path d="M1022 40h10"></path>
<path d="M1032 40h10"></path>
<g>
<path d="M1042 40h0"></path>
<path d="M1466 40h0"></path>
<g>
<path d="M1042 40h0"></path>
<path d="M1174 40h0"></path>
<path d="M1042 40a10 10 0 0 0 10 -10v0a10 10 0 0 1 10 -10"></path>
<g>
<path d="M1062 20h92"></path>
</g>
<path d="M1154 20a10 10 0 0 1 10 10v0a10 10 0 0 0 10 10"></path>
<path d="M1042 40h20"></path>
<g class="terminal">
<path d="M1062 40h0"></path>
<path d="M1154 40h0"></path>
<rect x="1062" y="29" width="92" height="22" rx="10" ry="10"></rect>
<text x="1108" y="44">"CASTING"</text>
</g>
<path d="M1154 40h20"></path>
</g>
<g>
<path d="M1174 40h0"></path>
<path d="M1466 40h0"></path>
<path d="M1174 40a10 10 0 0 0 10 -10v0a10 10 0 0 1 10 -10"></path>
<g>
<path d="M1194 20h252"></path>
</g>
<path d="M1446 20a10 10 0 0 1 10 10v0a10 10 0 0 0 10 10"></path>
<path d="M1174 40h20"></path>
<g>
<path d="M1194 40h0"></path>
<path d="M1446 40h0"></path>
<path d="M1194 40h20"></path>
<g>
<path d="M1214 40h0"></path>
<path d="M1408 40h18"></path>
<g class="terminal">
<path d="M1214 40h0"></path>
<path d="M1282 40h0"></path>
<rect x="1214" y="29" width="68" height="22" rx="10" ry="10"></rect>
<text x="1248" y="44">"TYPE"</text>
</g>
<path d="M1282 40h10"></path>
<g>
<path d="M1292 40h0"></path>
<path d="M1408 40h0"></path>
<path d="M1292 40h20"></path>
<g class="non-terminal">
<path d="M1312 40h0"></path>
<path d="M1388 40h0"></path>
<rect x="1312" y="29" width="76" height="22"></rect>
<a xlink:href="reuse_dynamic.svg"><text x="1350" y="44">Dynamic</text>
</a>
</g>
<path d="M1388 40h20"></path>
<path d="M1292 40a10 10 0 0 1 10 10v10a10 10 0 0 0 10 10"></path>
<g class="non-terminal">
<path d="M1312 70h0"></path>
<path d="M1380 70h8"></path>
<rect x="1312" y="59" width="68" height="22"></rect>
<a xlink:href="reuse_source.svg"><text x="1346" y="74">Source</text>
</a>
</g>
<path d="M1388 70a10 10 0 0 0 10 -10v-10a10 10 0 0 1 10 -10"></path>
</g>
</g>
<path d="M1426 40h20"></path>
<path d="M1194 40a10 10 0 0 1 10 10v40a10 10 0 0 0 10 10"></path>
<g>
<path d="M1214 100h0"></path>
<path d="M1408 100h18"></path>
<g class="terminal">
<path d="M1214 100h0"></path>
<path d="M1282 100h0"></path>
<rect x="1214" y="89" width="68" height="22" rx="10" ry="10"></rect>
<text x="1248" y="104">"LIKE"</text>
</g>
<path d="M1282 100h10"></path>
<g>
<path d="M1292 100h0"></path>
<path d="M1408 100h0"></path>
<path d="M1292 100h20"></path>
<g class="non-terminal">
<path d="M1312 100h0"></path>
<path d="M1388 100h0"></path>
<rect x="1312" y="89" width="76" height="22"></rect>
<a xlink:href="reuse_dynamic.svg"><text x="1350" y="104">Dynamic</text>
</a>
</g>
<path d="M1388 100h20"></path>
<path d="M1292 100a10 10 0 0 1 10 10v10a10 10 0 0 0 10 10"></path>
<g class="non-terminal">
<path d="M1312 130h0"></path>
<path d="M1380 130h8"></path>
<rect x="1312" y="119" width="68" height="22"></rect>
<a xlink:href="reuse_source.svg"><text x="1346" y="134">Source</text>
</a>
</g>
<path d="M1388 130a10 10 0 0 0 10 -10v-10a10 10 0 0 1 10 -10"></path>
</g>
</g>
<path d="M1426 100a10 10 0 0 0 10 -10v-40a10 10 0 0 1 10 -10"></path>
<path d="M1194 40a10 10 0 0 1 10 10v100a10 10 0 0 0 10 10"></path>
<g>
<path d="M1214 160h0"></path>
<path d="M1370 160h56"></path>
<g class="terminal">
<path d="M1214 160h0"></path>
<path d="M1290 160h0"></path>
<rect x="1214" y="149" width="76" height="22" rx="10" ry="10"></rect>
<text x="1252" y="164">"RANGE"</text>
</g>
<path d="M1290 160h10"></path>
<path d="M1300 160h10"></path>
<g class="non-terminal">
<path d="M1310 160h0"></path>
<path d="M1370 160h0"></path>
<rect x="1310" y="149" width="60" height="22"></rect>
<a xlink:href="reuse_field.svg"><text x="1340" y="164">Field</text>
</a>
</g>
</g>
<path d="M1426 160a10 10 0 0 0 10 -10v-100a10 10 0 0 1 10 -10"></path>
<path d="M1194 40a10 10 0 0 1 10 10v130a10 10 0 0 0 10 10"></path>
<g>
<path d="M1214 190h0"></path>
<path d="M1426 190h0"></path>
<g class="terminal">
<path d="M1214 190h0"></path>
<path d="M1338 190h0"></path>
<rect x="1214" y="179" width="124" height="22" rx="10" ry="10"></rect>
<text x="1276" y="194">"TYPE HANDLE"</text>
</g>
<path d="M1338 190h10"></path>
<path d="M1348 190h10"></path>
<g class="non-terminal">
<path d="M1358 190h0"></path>
<path d="M1426 190h0"></path>
<rect x="1358" y="179" width="68" height="22"></rect>
<a xlink:href="reuse_source.svg"><text x="1392" y="194">Source</text>
</a>
</g>
</g>
<path d="M1426 190a10 10 0 0 0 10 -10v-130a10 10 0 0 1 10 -10"></path>
<path d="M1194 40a10 10 0 0 1 10 10v160a10 10 0 0 0 10 10"></path>
<g>
<path d="M1214 220h0"></path>
<path d="M1402 220h24"></path>
<g class="terminal">
<path d="M1214 220h0"></path>
<path d="M1314 220h0"></path>
<rect x="1214" y="209" width="100" height="22" rx="10" ry="10"></rect>
<text x="1264" y="224">"DECIMALS"</text>
</g>
<path d="M1314 220h10"></path>
<path d="M1324 220h10"></path>
<g class="non-terminal">
<path d="M1334 220h0"></path>
<path d="M1402 220h0"></path>
<rect x="1334" y="209" width="68" height="22"></rect>
<a xlink:href="reuse_source.svg"><text x="1368" y="224">Source</text>
</a>
</g>
</g>
<path d="M1426 220a10 10 0 0 0 10 -10v-160a10 10 0 0 1 10 -10"></path>
</g>
<path d="M1446 40h20"></path>
</g>
</g>
<path d="M1466 40h10"></path>
<g>
<path d="M1476 40h0"></path>
<path d="M1672 40h0"></path>
<path d="M1476 40a10 10 0 0 0 10 -10v0a10 10 0 0 1 10 -10"></path>
<g>
<path d="M1496 20h156"></path>
</g>
<path d="M1652 20a10 10 0 0 1 10 10v0a10 10 0 0 0 10 10"></path>
<path d="M1476 40h20"></path>
<g>
<path d="M1496 40h0"></path>
<path d="M1652 40h0"></path>
<g class="terminal">
<path d="M1496 40h0"></path>
<path d="M1572 40h0"></path>
<rect x="1496" y="29" width="76" height="22" rx="10" ry="10"></rect>
<text x="1534" y="44">"RANGE"</text>
</g>
<path d="M1572 40h10"></path>
<path d="M1582 40h10"></path>
<g class="non-terminal">
<path d="M1592 40h0"></path>
<path d="M1652 40h0"></path>
<rect x="1592" y="29" width="60" height="22"></rect>
<a xlink:href="reuse_field.svg"><text x="1622" y="44">Field</text>
</a>
</g>
</g>
<path d="M1652 40h20"></path>
</g>
</g>
<path d="M1672 40h10"></path>
<path d="M 1682 40 h 20 m -10 -10 v 20 m 10 -20 v 20"></path>
</g>
</svg>
