<svg xmlns="http://www.w3.org/2000/svg" xmlns:xlink="http://www.w3.org/1999/xlink" class="railroad-diagram" width="780" height="71" viewBox="0 0 780 71">
<defs>
<style type="text/css"><![CDATA[
path {
stroke-width: 3;
stroke: black;
fill: rgba(0,0,0,0);
}
text {
font: bold 14px monospace;
text-anchor: middle;
}
text.diagram-text {
font-size: 12px;
}
a {
fill: blue;
}
text.diagram-arrow {
font-size: 16px;
}
text.label {
text-anchor: start;
}
text.comment {
font: italic 12px monospace;
}
rect {
stroke-width: 3;
stroke: black;
fill: #BCBCBC;
}
path.diagram-text {
stroke-width: 3;
stroke: black;
fill: #BCBCBC;
cursor: help;
}
]]></style>
</defs>
<g transform="translate(.5 .5)">
<path d="M 20 30 v 20 m 10 -20 v 20 m -10 -10 h 20.5"></path>
<path d="M40 40h10"></path>
<g>
<path d="M50 40h0"></path>
<path d="M730 40h0"></path>
<g class="terminal">
<path d="M50 40h0"></path>
<path d="M246 40h0"></path>
<rect x="50" y="29" width="196" height="22" rx="10" ry="10"></rect>
<text x="148" y="44">"ASSIGN LOCAL COPY OF"</text>
</g>
<path d="M246 40h10"></path>
<g>
<path d="M256 40h0"></path>
<path d="M452 40h0"></path>
<path d="M256 40a10 10 0 0 0 10 -10v0a10 10 0 0 1 10 -10"></path>
<g>
<path d="M276 20h156"></path>
</g>
<path d="M432 20a10 10 0 0 1 10 10v0a10 10 0 0 0 10 10"></path>
<path d="M256 40h20"></path>
<g class="terminal">
<path d="M276 40h0"></path>
<path d="M432 40h0"></path>
<rect x="276" y="29" width="156" height="22" rx="10" ry="10"></rect>
<text x="354" y="44">"INITIAL LINE OF"</text>
</g>
<path d="M432 40h20"></path>
</g>
<path d="M452 40h10"></path>
<g class="non-terminal">
<path d="M462 40h0"></path>
<path d="M530 40h0"></path>
<rect x="462" y="29" width="68" height="22"></rect>
<a xlink:href="reuse_source.svg"><text x="496" y="44">Source</text>
</a>
</g>
<path d="M530 40h10"></path>
<path d="M540 40h10"></path>
<g class="terminal">
<path d="M550 40h0"></path>
<path d="M602 40h0"></path>
<rect x="550" y="29" width="52" height="22" rx="10" ry="10"></rect>
<text x="576" y="44">"TO"</text>
</g>
<path d="M602 40h10"></path>
<path d="M612 40h10"></path>
<g class="non-terminal">
<path d="M622 40h0"></path>
<path d="M730 40h0"></path>
<rect x="622" y="29" width="108" height="22"></rect>
<a xlink:href="reuse_fieldsymbol.svg"><text x="676" y="44">FieldSymbol</text>
</a>
</g>
</g>
<path d="M730 40h10"></path>
<path d="M 740 40 h 20 m -10 -10 v 20 m 10 -20 v 20"></path>
</g>
</svg>
