<svg xmlns="http://www.w3.org/2000/svg" xmlns:xlink="http://www.w3.org/1999/xlink" class="railroad-diagram" width="712" height="62" viewBox="0 0 712 62">
<defs>
<style type="text/css"><![CDATA[
path {
stroke-width: 3;
stroke: black;
fill: rgba(0,0,0,0);
}
text {
font: bold 14px monospace;
text-anchor: middle;
}
text.diagram-text {
font-size: 12px;
}
a {
fill: blue;
}
text.diagram-arrow {
font-size: 16px;
}
text.label {
text-anchor: start;
}
text.comment {
font: italic 12px monospace;
}
rect {
stroke-width: 3;
stroke: black;
fill: #BCBCBC;
}
path.diagram-text {
stroke-width: 3;
stroke: black;
fill: #BCBCBC;
cursor: help;
}
]]></style>
</defs>
<g transform="translate(.5 .5)">
<path d="M 20 21 v 20 m 10 -20 v 20 m -10 -10 h 20.5"></path>
<path d="M40 31h10"></path>
<g>
<path d="M50 31h0"></path>
<path d="M662 31h0"></path>
<g class="terminal">
<path d="M50 31h0"></path>
<path d="M374 31h0"></path>
<rect x="50" y="20" width="324" height="22" rx="10" ry="10"></rect>
<text x="212" y="35">"ASSIGN LOCAL COPY OF INITIAL LINE OF"</text>
</g>
<path d="M374 31h10"></path>
<path d="M384 31h10"></path>
<g class="non-terminal">
<path d="M394 31h0"></path>
<path d="M462 31h0"></path>
<rect x="394" y="20" width="68" height="22"></rect>
<a xlink:href="reuse_source.svg"><text x="428" y="35">Source</text>
</a>
</g>
<path d="M462 31h10"></path>
<path d="M472 31h10"></path>
<g class="terminal">
<path d="M482 31h0"></path>
<path d="M534 31h0"></path>
<rect x="482" y="20" width="52" height="22" rx="10" ry="10"></rect>
<text x="508" y="35">"TO"</text>
</g>
<path d="M534 31h10"></path>
<path d="M544 31h10"></path>
<g class="non-terminal">
<path d="M554 31h0"></path>
<path d="M662 31h0"></path>
<rect x="554" y="20" width="108" height="22"></rect>
<a xlink:href="reuse_fieldsymbol.svg"><text x="608" y="35">FieldSymbol</text>
</a>
</g>
</g>
<path d="M662 31h10"></path>
<path d="M 672 31 h 20 m -10 -10 v 20 m 10 -20 v 20"></path>
</g>
</svg>
