<svg xmlns="http://www.w3.org/2000/svg" xmlns:xlink="http://www.w3.org/1999/xlink" class="railroad-diagram" width="858" height="79" viewBox="0 0 858 79">
<defs>
<style type="text/css"><![CDATA[
path {
stroke-width: 3;
stroke: black;
fill: rgba(0,0,0,0);
}
text {
font: bold 14px monospace;
text-anchor: middle;
}
text.diagram-text {
font-size: 12px;
}
a {
fill: blue;
}
text.diagram-arrow {
font-size: 16px;
}
text.label {
text-anchor: start;
}
text.comment {
font: italic 12px monospace;
}
rect {
stroke-width: 3;
stroke: black;
fill: #BCBCBC;
}
path.diagram-text {
stroke-width: 3;
stroke: black;
fill: #BCBCBC;
cursor: help;
}
]]></style>
</defs>
<g transform="translate(.5 .5)">
<path d="M 20 38 v 20 m 10 -20 v 20 m -10 -10 h 20.5"></path>
<path d="M40 48h10"></path>
<g>
<path d="M50 48h0"></path>
<path d="M808 48h0"></path>
<g class="terminal">
<path d="M50 48h0"></path>
<path d="M246 48h0"></path>
<rect x="50" y="37" width="196" height="22" rx="10" ry="10"></rect>
<text x="148" y="52">"ASSIGN LOCAL COPY OF"</text>
</g>
<path d="M246 48h10"></path>
<g>
<path d="M256 48h0"></path>
<path d="M530 48h0"></path>
<path d="M256 48a10 10 0 0 0 10 -10v-8a10 10 0 0 1 10 -10"></path>
<g>
<path d="M276 20h234"></path>
</g>
<path d="M510 20a10 10 0 0 1 10 10v8a10 10 0 0 0 10 10"></path>
<path d="M256 48h20"></path>
<g>
<path d="M276 48h0"></path>
<path d="M510 48h0"></path>
<g class="terminal">
<path d="M276 48h0"></path>
<path d="M368 48h0"></path>
<rect x="276" y="37" width="92" height="22" rx="10" ry="10"></rect>
<text x="322" y="52">"INITIAL"</text>
</g>
<path d="M368 48h10"></path>
<g>
<path d="M378 48h0"></path>
<path d="M510 48h0"></path>
<path d="M378 48a10 10 0 0 0 10 -10v0a10 10 0 0 1 10 -10"></path>
<g>
<path d="M398 28h92"></path>
</g>
<path d="M490 28a10 10 0 0 1 10 10v0a10 10 0 0 0 10 10"></path>
<path d="M378 48h20"></path>
<g class="terminal">
<path d="M398 48h0"></path>
<path d="M490 48h0"></path>
<rect x="398" y="37" width="92" height="22" rx="10" ry="10"></rect>
<text x="444" y="52">"LINE OF"</text>
</g>
<path d="M490 48h20"></path>
</g>
</g>
<path d="M510 48h20"></path>
</g>
<path d="M530 48h10"></path>
<g class="non-terminal">
<path d="M540 48h0"></path>
<path d="M608 48h0"></path>
<rect x="540" y="37" width="68" height="22"></rect>
<a xlink:href="reuse_source.svg"><text x="574" y="52">Source</text>
</a>
</g>
<path d="M608 48h10"></path>
<path d="M618 48h10"></path>
<g class="terminal">
<path d="M628 48h0"></path>
<path d="M680 48h0"></path>
<rect x="628" y="37" width="52" height="22" rx="10" ry="10"></rect>
<text x="654" y="52">"TO"</text>
</g>
<path d="M680 48h10"></path>
<path d="M690 48h10"></path>
<g class="non-terminal">
<path d="M700 48h0"></path>
<path d="M808 48h0"></path>
<rect x="700" y="37" width="108" height="22"></rect>
<a xlink:href="reuse_fieldsymbol.svg"><text x="754" y="52">FieldSymbol</text>
</a>
</g>
</g>
<path d="M808 48h10"></path>
<path d="M 818 48 h 20 m -10 -10 v 20 m 10 -20 v 20"></path>
</g>
</svg>
