<svg xmlns="http://www.w3.org/2000/svg" xmlns:xlink="http://www.w3.org/1999/xlink" class="railroad-diagram" width="1272" height="148" viewBox="0 0 1272 148">
<defs>
<style type="text/css"><![CDATA[
path {
stroke-width: 3;
stroke: black;
fill: rgba(0,0,0,0);
}
text {
font: bold 14px monospace;
text-anchor: middle;
}
text.diagram-text {
font-size: 12px;
}
a {
fill: blue;
}
text.diagram-arrow {
font-size: 16px;
}
text.label {
text-anchor: start;
}
text.comment {
font: italic 12px monospace;
}
rect {
stroke-width: 3;
stroke: black;
fill: #BCBCBC;
}
path.diagram-text {
stroke-width: 3;
stroke: black;
fill: #BCBCBC;
cursor: help;
}
]]></style>
</defs>
<g transform="translate(.5 .5)">
<path d="M 20 38 v 20 m 10 -20 v 20 m -10 -10 h 20.5"></path>
<path d="M40 48h10"></path>
<g>
<path d="M50 48h0"></path>
<path d="M1222 48h0"></path>
<g class="terminal">
<path d="M50 48h0"></path>
<path d="M134 48h0"></path>
<rect x="50" y="37" width="84" height="22" rx="10" ry="10"></rect>
<text x="92" y="52">"ASSIGN"</text>
</g>
<path d="M134 48h10"></path>
<g>
<path d="M144 48h0"></path>
<path d="M620 48h0"></path>
<path d="M144 48h20"></path>
<g>
<path d="M164 48h0"></path>
<path d="M438 48h162"></path>
<g class="non-terminal">
<path d="M164 48h0"></path>
<path d="M232 48h0"></path>
<rect x="164" y="37" width="68" height="22"></rect>
<a xlink:href="reuse_source.svg"><text x="198" y="52">Source</text>
</a>
</g>
<path d="M232 48h10"></path>
<g>
<path d="M242 48h0"></path>
<path d="M438 48h0"></path>
<path d="M242 48a10 10 0 0 0 10 -10v0a10 10 0 0 1 10 -10"></path>
<g>
<path d="M262 28h156"></path>
</g>
<path d="M418 28a10 10 0 0 1 10 10v0a10 10 0 0 0 10 10"></path>
<path d="M242 48h20"></path>
<g>
<path d="M262 48h0"></path>
<path d="M418 48h0"></path>
<g class="non-terminal">
<path d="M262 48h0"></path>
<path d="M322 48h0"></path>
<rect x="262" y="37" width="60" height="22"></rect>
<a xlink:href="reuse_arrow.svg"><text x="292" y="52">Arrow</text>
</a>
</g>
<path d="M322 48h10"></path>
<path d="M332 48h10"></path>
<g class="non-terminal">
<path d="M342 48h0"></path>
<path d="M418 48h0"></path>
<rect x="342" y="37" width="76" height="22"></rect>
<a xlink:href="reuse_dynamic.svg"><text x="380" y="52">Dynamic</text>
</a>
</g>
</g>
<path d="M418 48h20"></path>
</g>
</g>
<path d="M600 48h20"></path>
<path d="M144 48a10 10 0 0 1 10 10v10a10 10 0 0 0 10 10"></path>
<g>
<path d="M164 78h0"></path>
<path d="M600 78h0"></path>
<g class="terminal">
<path d="M164 78h0"></path>
<path d="M272 78h0"></path>
<rect x="164" y="67" width="108" height="22" rx="10" ry="10"></rect>
<text x="218" y="82">"COMPONENT"</text>
</g>
<path d="M272 78h10"></path>
<path d="M282 78h10"></path>
<g class="non-terminal">
<path d="M292 78h0"></path>
<path d="M360 78h0"></path>
<rect x="292" y="67" width="68" height="22"></rect>
<a xlink:href="reuse_source.svg"><text x="326" y="82">Source</text>
</a>
</g>
<path d="M360 78h10"></path>
<path d="M370 78h10"></path>
<g class="terminal">
<path d="M380 78h0"></path>
<path d="M512 78h0"></path>
<rect x="380" y="67" width="132" height="22" rx="10" ry="10"></rect>
<text x="446" y="82">"OF STRUCTURE"</text>
</g>
<path d="M512 78h10"></path>
<path d="M522 78h10"></path>
<g class="non-terminal">
<path d="M532 78h0"></path>
<path d="M600 78h0"></path>
<rect x="532" y="67" width="68" height="22"></rect>
<a xlink:href="reuse_source.svg"><text x="566" y="82">Source</text>
</a>
</g>
</g>
<path d="M600 78a10 10 0 0 0 10 -10v-10a10 10 0 0 1 10 -10"></path>
<path d="M144 48a10 10 0 0 1 10 10v49a10 10 0 0 0 10 10"></path>
<g>
<path d="M164 117h0"></path>
<path d="M430 117h170"></path>
<g class="non-terminal">
<path d="M164 117h0"></path>
<path d="M240 117h0"></path>
<rect x="164" y="106" width="76" height="22"></rect>
<a xlink:href="reuse_dynamic.svg"><text x="202" y="121">Dynamic</text>
</a>
</g>
<path d="M240 117h10"></path>
<g>
<path d="M250 117h0"></path>
<path d="M430 117h0"></path>
<path d="M250 117a10 10 0 0 0 10 -10v0a10 10 0 0 1 10 -10"></path>
<g>
<path d="M270 97h140"></path>
</g>
<path d="M410 97a10 10 0 0 1 10 10v0a10 10 0 0 0 10 10"></path>
<path d="M250 117h20"></path>
<g>
<path d="M270 117h0"></path>
<path d="M410 117h0"></path>
<g class="non-terminal">
<path d="M270 117h0"></path>
<path d="M330 117h0"></path>
<rect x="270" y="106" width="60" height="22"></rect>
<a xlink:href="reuse_arrow.svg"><text x="300" y="121">Arrow</text>
</a>
</g>
<path d="M330 117h10"></path>
<path d="M340 117h10"></path>
<g class="non-terminal">
<path d="M350 117h0"></path>
<path d="M410 117h0"></path>
<rect x="350" y="106" width="60" height="22"></rect>
<a xlink:href="reuse_field.svg"><text x="380" y="121">Field</text>
</a>
</g>
</g>
<path d="M410 117h20"></path>
</g>
</g>
<path d="M600 117a10 10 0 0 0 10 -10v-49a10 10 0 0 1 10 -10"></path>
</g>
<path d="M620 48h10"></path>
<g class="terminal">
<path d="M630 48h0"></path>
<path d="M682 48h0"></path>
<rect x="630" y="37" width="52" height="22" rx="10" ry="10"></rect>
<text x="656" y="52">"TO"</text>
</g>
<path d="M682 48h10"></path>
<path d="M692 48h10"></path>
<g class="non-terminal">
<path d="M702 48h0"></path>
<path d="M786 48h0"></path>
<rect x="702" y="37" width="84" height="22"></rect>
<a xlink:href="reuse_fstarget.svg"><text x="744" y="52">FSTarget</text>
</a>
</g>
<path d="M786 48h10"></path>
<g>
<path d="M796 48h0"></path>
<path d="M1222 48h0"></path>
<path d="M796 48a10 10 0 0 0 10 -10v-8a10 10 0 0 1 10 -10"></path>
<g>
<path d="M816 20h386"></path>
</g>
<path d="M1202 20a10 10 0 0 1 10 10v8a10 10 0 0 0 10 10"></path>
<path d="M796 48h20"></path>
<g>
<path d="M816 48h0"></path>
<path d="M1202 48h0"></path>
<g class="terminal">
<path d="M816 48h0"></path>
<path d="M908 48h0"></path>
<rect x="816" y="37" width="92" height="22" rx="10" ry="10"></rect>
<text x="862" y="52">"CASTING"</text>
</g>
<path d="M908 48h10"></path>
<g>
<path d="M918 48h0"></path>
<path d="M1202 48h0"></path>
<path d="M918 48a10 10 0 0 0 10 -10v0a10 10 0 0 1 10 -10"></path>
<g>
<path d="M938 28h244"></path>
</g>
<path d="M1182 28a10 10 0 0 1 10 10v0a10 10 0 0 0 10 10"></path>
<path d="M918 48h20"></path>
<g>
<path d="M938 48h0"></path>
<path d="M1182 48h0"></path>
<path d="M938 48h20"></path>
<g>
<path d="M958 48h0"></path>
<path d="M1122 48h40"></path>
<g class="terminal">
<path d="M958 48h0"></path>
<path d="M1026 48h0"></path>
<rect x="958" y="37" width="68" height="22" rx="10" ry="10"></rect>
<text x="992" y="52">"TYPE"</text>
</g>
<path d="M1026 48h10"></path>
<path d="M1036 48h10"></path>
<g class="non-terminal">
<path d="M1046 48h0"></path>
<path d="M1122 48h0"></path>
<rect x="1046" y="37" width="76" height="22"></rect>
<a xlink:href="reuse_dynamic.svg"><text x="1084" y="52">Dynamic</text>
</a>
</g>
</g>
<path d="M1162 48h20"></path>
<path d="M938 48a10 10 0 0 1 10 10v10a10 10 0 0 0 10 10"></path>
<g>
<path d="M958 78h0"></path>
<path d="M1162 78h0"></path>
<g class="terminal">
<path d="M958 78h0"></path>
<path d="M1082 78h0"></path>
<rect x="958" y="67" width="124" height="22" rx="10" ry="10"></rect>
<text x="1020" y="82">"TYPE HANDLE"</text>
</g>
<path d="M1082 78h10"></path>
<path d="M1092 78h10"></path>
<g class="non-terminal">
<path d="M1102 78h0"></path>
<path d="M1162 78h0"></path>
<rect x="1102" y="67" width="60" height="22"></rect>
<a xlink:href="reuse_field.svg"><text x="1132" y="82">Field</text>
</a>
</g>
</g>
<path d="M1162 78a10 10 0 0 0 10 -10v-10a10 10 0 0 1 10 -10"></path>
</g>
<path d="M1182 48h20"></path>
</g>
</g>
<path d="M1202 48h20"></path>
</g>
</g>
<path d="M1222 48h10"></path>
<path d="M 1232 48 h 20 m -10 -10 v 20 m 10 -20 v 20"></path>
</g>
</svg>
