<svg xmlns="http://www.w3.org/2000/svg" xmlns:xlink="http://www.w3.org/1999/xlink" class="railroad-diagram" width="398" height="152" viewBox="0 0 398 152">
<defs>
<style type="text/css"><![CDATA[
path {
stroke-width: 3;
stroke: black;
fill: rgba(0,0,0,0);
}
text {
font: bold 14px monospace;
text-anchor: middle;
}
text.diagram-text {
font-size: 12px;
}
a {
fill: blue;
}
text.diagram-arrow {
font-size: 16px;
}
text.label {
text-anchor: start;
}
text.comment {
font: italic 12px monospace;
}
rect {
stroke-width: 3;
stroke: black;
fill: #BCBCBC;
}
path.diagram-text {
stroke-width: 3;
stroke: black;
fill: #BCBCBC;
cursor: help;
}
]]></style>
</defs>
<g transform="translate(.5 .5)">
<path d="M 20 21 v 20 m 10 -20 v 20 m -10 -10 h 20.5"></path>
<path d="M40 31h10"></path>
<g>
<path d="M50 31h0"></path>
<path d="M348 31h0"></path>
<g class="terminal">
<path d="M50 31h0"></path>
<path d="M102 31h0"></path>
<rect x="50" y="20" width="52" height="22" rx="10" ry="10"></rect>
<text x="76" y="35">"AT"</text>
</g>
<path d="M102 31h10"></path>
<g>
<path d="M112 31h0"></path>
<path d="M348 31h0"></path>
<path d="M112 31h20"></path>
<g class="terminal">
<path d="M132 31h0"></path>
<path d="M208 31h120"></path>
<rect x="132" y="20" width="76" height="22" rx="10" ry="10"></rect>
<text x="170" y="35">"FIRST"</text>
</g>
<path d="M328 31h20"></path>
<path d="M112 31a10 10 0 0 1 10 10v10a10 10 0 0 0 10 10"></path>
<g class="terminal">
<path d="M132 61h0"></path>
<path d="M200 61h128"></path>
<rect x="132" y="50" width="68" height="22" rx="10" ry="10"></rect>
<text x="166" y="65">"LAST"</text>
</g>
<path d="M328 61a10 10 0 0 0 10 -10v-10a10 10 0 0 1 10 -10"></path>
<path d="M112 31a10 10 0 0 1 10 10v40a10 10 0 0 0 10 10"></path>
<g>
<path d="M132 91h0"></path>
<path d="M304 91h24"></path>
<g class="terminal">
<path d="M132 91h0"></path>
<path d="M192 91h0"></path>
<rect x="132" y="80" width="60" height="22" rx="10" ry="10"></rect>
<text x="162" y="95">"NEW"</text>
</g>
<path d="M192 91h10"></path>
<path d="M202 91h10"></path>
<g class="non-terminal">
<path d="M212 91h0"></path>
<path d="M304 91h0"></path>
<rect x="212" y="80" width="92" height="22"></rect>
<a xlink:href="reuse_field_sub.svg"><text x="258" y="95">field&#95;sub</text>
</a>
</g>
</g>
<path d="M328 91a10 10 0 0 0 10 -10v-40a10 10 0 0 1 10 -10"></path>
<path d="M112 31a10 10 0 0 1 10 10v70a10 10 0 0 0 10 10"></path>
<g>
<path d="M132 121h0"></path>
<path d="M328 121h0"></path>
<g class="terminal">
<path d="M132 121h0"></path>
<path d="M216 121h0"></path>
<rect x="132" y="110" width="84" height="22" rx="10" ry="10"></rect>
<text x="174" y="125">"END OF"</text>
</g>
<path d="M216 121h10"></path>
<path d="M226 121h10"></path>
<g class="non-terminal">
<path d="M236 121h0"></path>
<path d="M328 121h0"></path>
<rect x="236" y="110" width="92" height="22"></rect>
<a xlink:href="reuse_field_sub.svg"><text x="282" y="125">field&#95;sub</text>
</a>
</g>
</g>
<path d="M328 121a10 10 0 0 0 10 -10v-70a10 10 0 0 1 10 -10"></path>
</g>
</g>
<path d="M348 31h10"></path>
<path d="M 358 31 h 20 m -10 -10 v 20 m 10 -20 v 20"></path>
</g>
</svg>
