<svg xmlns="http://www.w3.org/2000/svg" xmlns:xlink="http://www.w3.org/1999/xlink" class="railroad-diagram" width="444" height="272" viewBox="0 0 444 272">
<defs>
<style type="text/css"><![CDATA[
path {
stroke-width: 3;
stroke: black;
fill: rgba(0,0,0,0);
}
text {
font: bold 14px monospace;
text-anchor: middle;
}
text.diagram-text {
font-size: 12px;
}
a {
fill: blue;
}
text.diagram-arrow {
font-size: 16px;
}
text.label {
text-anchor: start;
}
text.comment {
font: italic 12px monospace;
}
rect {
stroke-width: 3;
stroke: black;
fill: #BCBCBC;
}
path.diagram-text {
stroke-width: 3;
stroke: black;
fill: #BCBCBC;
cursor: help;
}
]]></style>
</defs>
<g transform="translate(.5 .5)">
<path d="M 20 21 v 20 m 10 -20 v 20 m -10 -10 h 20.5"></path>
<path d="M40 31h10"></path>
<g>
<path d="M50 31h0"></path>
<path d="M394 31h0"></path>
<g class="terminal">
<path d="M50 31h0"></path>
<path d="M102 31h0"></path>
<rect x="50" y="20" width="52" height="22" rx="10" ry="10"></rect>
<text x="76" y="35">"AT"</text>
</g>
<path d="M102 31h10"></path>
<g>
<path d="M112 31h0"></path>
<path d="M394 31h0"></path>
<path d="M112 31h20"></path>
<g class="terminal">
<path d="M132 31h0"></path>
<path d="M208 31h166"></path>
<rect x="132" y="20" width="76" height="22" rx="10" ry="10"></rect>
<text x="170" y="35">"FIRST"</text>
</g>
<path d="M374 31h20"></path>
<path d="M112 31a10 10 0 0 1 10 10v10a10 10 0 0 0 10 10"></path>
<g class="terminal">
<path d="M132 61h0"></path>
<path d="M200 61h174"></path>
<rect x="132" y="50" width="68" height="22" rx="10" ry="10"></rect>
<text x="166" y="65">"LAST"</text>
</g>
<path d="M374 61a10 10 0 0 0 10 -10v-10a10 10 0 0 1 10 -10"></path>
<path d="M112 31a10 10 0 0 1 10 10v40a10 10 0 0 0 10 10"></path>
<g>
<path d="M132 91h0"></path>
<path d="M350 91h24"></path>
<g class="terminal">
<path d="M132 91h0"></path>
<path d="M192 91h0"></path>
<rect x="132" y="80" width="60" height="22" rx="10" ry="10"></rect>
<text x="162" y="95">"NEW"</text>
</g>
<path d="M192 91h10"></path>
<g>
<path d="M202 91h0"></path>
<path d="M350 91h0"></path>
<path d="M202 91h20"></path>
<g class="non-terminal">
<path d="M222 91h0"></path>
<path d="M306 91h24"></path>
<rect x="222" y="80" width="84" height="22"></rect>
<a xlink:href="reuse_fieldsub.svg"><text x="264" y="95">FieldSub</text>
</a>
</g>
<path d="M330 91h20"></path>
<path d="M202 91a10 10 0 0 1 10 10v10a10 10 0 0 0 10 10"></path>
<g class="non-terminal">
<path d="M222 121h0"></path>
<path d="M298 121h32"></path>
<rect x="222" y="110" width="76" height="22"></rect>
<a xlink:href="reuse_dynamic.svg"><text x="260" y="125">Dynamic</text>
</a>
</g>
<path d="M330 121a10 10 0 0 0 10 -10v-10a10 10 0 0 1 10 -10"></path>
<path d="M202 91a10 10 0 0 1 10 10v40a10 10 0 0 0 10 10"></path>
<g class="non-terminal">
<path d="M222 151h0"></path>
<path d="M330 151h0"></path>
<rect x="222" y="140" width="108" height="22"></rect>
<a xlink:href="reuse_fieldsymbol.svg"><text x="276" y="155">FieldSymbol</text>
</a>
</g>
<path d="M330 151a10 10 0 0 0 10 -10v-40a10 10 0 0 1 10 -10"></path>
</g>
</g>
<path d="M374 91a10 10 0 0 0 10 -10v-40a10 10 0 0 1 10 -10"></path>
<path d="M112 31a10 10 0 0 1 10 10v130a10 10 0 0 0 10 10"></path>
<g>
<path d="M132 181h0"></path>
<path d="M374 181h0"></path>
<g class="terminal">
<path d="M132 181h0"></path>
<path d="M216 181h0"></path>
<rect x="132" y="170" width="84" height="22" rx="10" ry="10"></rect>
<text x="174" y="185">"END OF"</text>
</g>
<path d="M216 181h10"></path>
<g>
<path d="M226 181h0"></path>
<path d="M374 181h0"></path>
<path d="M226 181h20"></path>
<g class="non-terminal">
<path d="M246 181h0"></path>
<path d="M330 181h24"></path>
<rect x="246" y="170" width="84" height="22"></rect>
<a xlink:href="reuse_fieldsub.svg"><text x="288" y="185">FieldSub</text>
</a>
</g>
<path d="M354 181h20"></path>
<path d="M226 181a10 10 0 0 1 10 10v10a10 10 0 0 0 10 10"></path>
<g class="non-terminal">
<path d="M246 211h0"></path>
<path d="M322 211h32"></path>
<rect x="246" y="200" width="76" height="22"></rect>
<a xlink:href="reuse_dynamic.svg"><text x="284" y="215">Dynamic</text>
</a>
</g>
<path d="M354 211a10 10 0 0 0 10 -10v-10a10 10 0 0 1 10 -10"></path>
<path d="M226 181a10 10 0 0 1 10 10v40a10 10 0 0 0 10 10"></path>
<g class="non-terminal">
<path d="M246 241h0"></path>
<path d="M354 241h0"></path>
<rect x="246" y="230" width="108" height="22"></rect>
<a xlink:href="reuse_fieldsymbol.svg"><text x="300" y="245">FieldSymbol</text>
</a>
</g>
<path d="M354 241a10 10 0 0 0 10 -10v-40a10 10 0 0 1 10 -10"></path>
</g>
</g>
<path d="M374 181a10 10 0 0 0 10 -10v-130a10 10 0 0 1 10 -10"></path>
</g>
</g>
<path d="M394 31h10"></path>
<path d="M 404 31 h 20 m -10 -10 v 20 m 10 -20 v 20"></path>
</g>
</svg>
