<svg xmlns="http://www.w3.org/2000/svg" xmlns:xlink="http://www.w3.org/1999/xlink" class="railroad-diagram" width="420" height="212" viewBox="0 0 420 212">
<defs>
<style type="text/css"><![CDATA[
path {
stroke-width: 3;
stroke: black;
fill: rgba(0,0,0,0);
}
text {
font: bold 14px monospace;
text-anchor: middle;
}
text.diagram-text {
font-size: 12px;
}
a {
fill: blue;
}
text.diagram-arrow {
font-size: 16px;
}
text.label {
text-anchor: start;
}
text.comment {
font: italic 12px monospace;
}
rect {
stroke-width: 3;
stroke: black;
fill: #BCBCBC;
}
path.diagram-text {
stroke-width: 3;
stroke: black;
fill: #BCBCBC;
cursor: help;
}
]]></style>
</defs>
<g transform="translate(.5 .5)">
<path d="M 20 21 v 20 m 10 -20 v 20 m -10 -10 h 20.5"></path>
<path d="M40 31h10"></path>
<g>
<path d="M50 31h0"></path>
<path d="M370 31h0"></path>
<g class="terminal">
<path d="M50 31h0"></path>
<path d="M102 31h0"></path>
<rect x="50" y="20" width="52" height="22" rx="10" ry="10"></rect>
<text x="76" y="35">"AT"</text>
</g>
<path d="M102 31h10"></path>
<g>
<path d="M112 31h0"></path>
<path d="M370 31h0"></path>
<path d="M112 31h20"></path>
<g class="terminal">
<path d="M132 31h0"></path>
<path d="M208 31h142"></path>
<rect x="132" y="20" width="76" height="22" rx="10" ry="10"></rect>
<text x="170" y="35">"FIRST"</text>
</g>
<path d="M350 31h20"></path>
<path d="M112 31a10 10 0 0 1 10 10v10a10 10 0 0 0 10 10"></path>
<g class="terminal">
<path d="M132 61h0"></path>
<path d="M200 61h150"></path>
<rect x="132" y="50" width="68" height="22" rx="10" ry="10"></rect>
<text x="166" y="65">"LAST"</text>
</g>
<path d="M350 61a10 10 0 0 0 10 -10v-10a10 10 0 0 1 10 -10"></path>
<path d="M112 31a10 10 0 0 1 10 10v40a10 10 0 0 0 10 10"></path>
<g>
<path d="M132 91h0"></path>
<path d="M326 91h24"></path>
<g class="terminal">
<path d="M132 91h0"></path>
<path d="M192 91h0"></path>
<rect x="132" y="80" width="60" height="22" rx="10" ry="10"></rect>
<text x="162" y="95">"NEW"</text>
</g>
<path d="M192 91h10"></path>
<g>
<path d="M202 91h0"></path>
<path d="M326 91h0"></path>
<path d="M202 91h20"></path>
<g class="non-terminal">
<path d="M222 91h0"></path>
<path d="M306 91h0"></path>
<rect x="222" y="80" width="84" height="22"></rect>
<a xlink:href="reuse_fieldsub.svg"><text x="264" y="95">FieldSub</text>
</a>
</g>
<path d="M306 91h20"></path>
<path d="M202 91a10 10 0 0 1 10 10v10a10 10 0 0 0 10 10"></path>
<g class="non-terminal">
<path d="M222 121h0"></path>
<path d="M298 121h8"></path>
<rect x="222" y="110" width="76" height="22"></rect>
<a xlink:href="reuse_dynamic.svg"><text x="260" y="125">Dynamic</text>
</a>
</g>
<path d="M306 121a10 10 0 0 0 10 -10v-10a10 10 0 0 1 10 -10"></path>
</g>
</g>
<path d="M350 91a10 10 0 0 0 10 -10v-40a10 10 0 0 1 10 -10"></path>
<path d="M112 31a10 10 0 0 1 10 10v100a10 10 0 0 0 10 10"></path>
<g>
<path d="M132 151h0"></path>
<path d="M350 151h0"></path>
<g class="terminal">
<path d="M132 151h0"></path>
<path d="M216 151h0"></path>
<rect x="132" y="140" width="84" height="22" rx="10" ry="10"></rect>
<text x="174" y="155">"END OF"</text>
</g>
<path d="M216 151h10"></path>
<g>
<path d="M226 151h0"></path>
<path d="M350 151h0"></path>
<path d="M226 151h20"></path>
<g class="non-terminal">
<path d="M246 151h0"></path>
<path d="M330 151h0"></path>
<rect x="246" y="140" width="84" height="22"></rect>
<a xlink:href="reuse_fieldsub.svg"><text x="288" y="155">FieldSub</text>
</a>
</g>
<path d="M330 151h20"></path>
<path d="M226 151a10 10 0 0 1 10 10v10a10 10 0 0 0 10 10"></path>
<g class="non-terminal">
<path d="M246 181h0"></path>
<path d="M322 181h8"></path>
<rect x="246" y="170" width="76" height="22"></rect>
<a xlink:href="reuse_dynamic.svg"><text x="284" y="185">Dynamic</text>
</a>
</g>
<path d="M330 181a10 10 0 0 0 10 -10v-10a10 10 0 0 1 10 -10"></path>
</g>
</g>
<path d="M350 151a10 10 0 0 0 10 -10v-100a10 10 0 0 1 10 -10"></path>
</g>
</g>
<path d="M370 31h10"></path>
<path d="M 380 31 h 20 m -10 -10 v 20 m 10 -20 v 20"></path>
</g>
</svg>
