<svg xmlns="http://www.w3.org/2000/svg" xmlns:xlink="http://www.w3.org/1999/xlink" class="railroad-diagram" width="614" height="122" viewBox="0 0 614 122">
<defs>
<style type="text/css"><![CDATA[
path {
stroke-width: 3;
stroke: black;
fill: rgba(0,0,0,0);
}
text {
font: bold 14px monospace;
text-anchor: middle;
}
text.diagram-text {
font-size: 12px;
}
a {
fill: blue;
}
text.diagram-arrow {
font-size: 16px;
}
text.label {
text-anchor: start;
}
text.comment {
font: italic 12px monospace;
}
rect {
stroke-width: 3;
stroke: black;
fill: #BCBCBC;
}
path.diagram-text {
stroke-width: 3;
stroke: black;
fill: #BCBCBC;
cursor: help;
}
]]></style>
</defs>
<g transform="translate(.5 .5)">
<path d="M 20 21 v 20 m 10 -20 v 20 m -10 -10 h 20.5"></path>
<path d="M40 31h10"></path>
<g>
<path d="M50 31h0"></path>
<path d="M564 31h0"></path>
<g class="terminal">
<path d="M50 31h0"></path>
<path d="M238 31h0"></path>
<rect x="50" y="20" width="188" height="22" rx="10" ry="10"></rect>
<text x="144" y="35">"AT SELECTION-SCREEN"</text>
</g>
<path d="M238 31h10"></path>
<g>
<path d="M248 31h0"></path>
<path d="M564 31h0"></path>
<path d="M248 31h20"></path>
<g class="terminal">
<path d="M268 31h96"></path>
<path d="M448 31h96"></path>
<rect x="364" y="20" width="84" height="22" rx="10" ry="10"></rect>
<text x="406" y="35">"OUTPUT"</text>
</g>
<path d="M544 31h20"></path>
<path d="M248 31a10 10 0 0 1 10 10v10a10 10 0 0 0 10 10"></path>
<g>
<path d="M268 61h0"></path>
<path d="M544 61h0"></path>
<g class="terminal">
<path d="M268 61h0"></path>
<path d="M464 61h0"></path>
<rect x="268" y="50" width="196" height="22" rx="10" ry="10"></rect>
<text x="366" y="65">"ON VALUE-REQUEST FOR"</text>
</g>
<path d="M464 61h10"></path>
<path d="M474 61h10"></path>
<g class="non-terminal">
<path d="M484 61h0"></path>
<path d="M544 61h0"></path>
<rect x="484" y="50" width="60" height="22"></rect>
<a xlink:href="reuse_field.svg"><text x="514" y="65">field</text>
</a>
</g>
</g>
<path d="M544 61a10 10 0 0 0 10 -10v-10a10 10 0 0 1 10 -10"></path>
<path d="M248 31a10 10 0 0 1 10 10v40a10 10 0 0 0 10 10"></path>
<g class="terminal">
<path d="M268 91h60"></path>
<path d="M484 91h60"></path>
<rect x="328" y="80" width="156" height="22" rx="10" ry="10"></rect>
<text x="406" y="95">"ON EXIT-COMMAND"</text>
</g>
<path d="M544 91a10 10 0 0 0 10 -10v-40a10 10 0 0 1 10 -10"></path>
</g>
</g>
<path d="M564 31h10"></path>
<path d="M 574 31 h 20 m -10 -10 v 20 m 10 -20 v 20"></path>
</g>
</svg>
