<svg xmlns="http://www.w3.org/2000/svg" xmlns:xlink="http://www.w3.org/1999/xlink" class="railroad-diagram" width="678" height="281" viewBox="0 0 678 281">
<defs>
<style type="text/css"><![CDATA[
path {
stroke-width: 3;
stroke: black;
fill: rgba(0,0,0,0);
}
text {
font: bold 14px monospace;
text-anchor: middle;
}
text.diagram-text {
font-size: 12px;
}
a {
fill: blue;
}
text.diagram-arrow {
font-size: 16px;
}
text.label {
text-anchor: start;
}
text.comment {
font: italic 12px monospace;
}
rect {
stroke-width: 3;
stroke: black;
fill: #BCBCBC;
}
path.diagram-text {
stroke-width: 3;
stroke: black;
fill: #BCBCBC;
cursor: help;
}
]]></style>
</defs>
<g transform="translate(.5 .5)">
<path d="M 20 30 v 20 m 10 -20 v 20 m -10 -10 h 20.5"></path>
<path d="M40 40h10"></path>
<g>
<path d="M50 40h0"></path>
<path d="M628 40h0"></path>
<g class="terminal">
<path d="M50 40h0"></path>
<path d="M238 40h0"></path>
<rect x="50" y="29" width="188" height="22" rx="10" ry="10"></rect>
<text x="144" y="44">"AT SELECTION-SCREEN"</text>
</g>
<path d="M238 40h10"></path>
<g>
<path d="M248 40h0"></path>
<path d="M628 40h0"></path>
<path d="M248 40a10 10 0 0 0 10 -10v0a10 10 0 0 1 10 -10"></path>
<g>
<path d="M268 20h340"></path>
</g>
<path d="M608 20a10 10 0 0 1 10 10v0a10 10 0 0 0 10 10"></path>
<path d="M248 40h20"></path>
<g>
<path d="M268 40h0"></path>
<path d="M608 40h0"></path>
<path d="M268 40h20"></path>
<g class="terminal">
<path d="M288 40h0"></path>
<path d="M372 40h216"></path>
<rect x="288" y="29" width="84" height="22" rx="10" ry="10"></rect>
<text x="330" y="44">"OUTPUT"</text>
</g>
<path d="M588 40h20"></path>
<path d="M268 40a10 10 0 0 1 10 10v10a10 10 0 0 0 10 10"></path>
<g>
<path d="M288 70h0"></path>
<path d="M588 70h0"></path>
<g class="terminal">
<path d="M288 70h0"></path>
<path d="M484 70h0"></path>
<rect x="288" y="59" width="196" height="22" rx="10" ry="10"></rect>
<text x="386" y="74">"ON VALUE-REQUEST FOR"</text>
</g>
<path d="M484 70h10"></path>
<path d="M494 70h10"></path>
<g class="non-terminal">
<path d="M504 70h0"></path>
<path d="M588 70h0"></path>
<rect x="504" y="59" width="84" height="22"></rect>
<a xlink:href="reuse_fieldsub.svg"><text x="546" y="74">FieldSub</text>
</a>
</g>
</g>
<path d="M588 70a10 10 0 0 0 10 -10v-10a10 10 0 0 1 10 -10"></path>
<path d="M268 40a10 10 0 0 1 10 10v40a10 10 0 0 0 10 10"></path>
<g>
<path d="M288 100h0"></path>
<path d="M564 100h24"></path>
<g class="terminal">
<path d="M288 100h0"></path>
<path d="M484 100h0"></path>
<rect x="288" y="89" width="196" height="22" rx="10" ry="10"></rect>
<text x="386" y="104">"ON RADIOBUTTON GROUP"</text>
</g>
<path d="M484 100h10"></path>
<path d="M494 100h10"></path>
<g class="non-terminal">
<path d="M504 100h0"></path>
<path d="M564 100h0"></path>
<rect x="504" y="89" width="60" height="22"></rect>
<a xlink:href="reuse_field.svg"><text x="534" y="104">Field</text>
</a>
</g>
</g>
<path d="M588 100a10 10 0 0 0 10 -10v-40a10 10 0 0 1 10 -10"></path>
<path d="M268 40a10 10 0 0 1 10 10v70a10 10 0 0 0 10 10"></path>
<g class="terminal">
<path d="M288 130h0"></path>
<path d="M444 130h144"></path>
<rect x="288" y="119" width="156" height="22" rx="10" ry="10"></rect>
<text x="366" y="134">"ON EXIT-COMMAND"</text>
</g>
<path d="M588 130a10 10 0 0 0 10 -10v-70a10 10 0 0 1 10 -10"></path>
<path d="M268 40a10 10 0 0 1 10 10v100a10 10 0 0 0 10 10"></path>
<g>
<path d="M288 160h0"></path>
<path d="M444 160h144"></path>
<g class="terminal">
<path d="M288 160h0"></path>
<path d="M340 160h0"></path>
<rect x="288" y="149" width="52" height="22" rx="10" ry="10"></rect>
<text x="314" y="164">"ON"</text>
</g>
<path d="M340 160h10"></path>
<path d="M350 160h10"></path>
<g class="non-terminal">
<path d="M360 160h0"></path>
<path d="M444 160h0"></path>
<rect x="360" y="149" width="84" height="22"></rect>
<a xlink:href="reuse_fieldsub.svg"><text x="402" y="164">FieldSub</text>
</a>
</g>
</g>
<path d="M588 160a10 10 0 0 0 10 -10v-100a10 10 0 0 1 10 -10"></path>
<path d="M268 40a10 10 0 0 1 10 10v130a10 10 0 0 0 10 10"></path>
<g>
<path d="M288 190h0"></path>
<path d="M476 190h112"></path>
<g class="terminal">
<path d="M288 190h0"></path>
<path d="M396 190h0"></path>
<rect x="288" y="179" width="108" height="22" rx="10" ry="10"></rect>
<text x="342" y="194">"ON END OF"</text>
</g>
<path d="M396 190h10"></path>
<path d="M406 190h10"></path>
<g class="non-terminal">
<path d="M416 190h0"></path>
<path d="M476 190h0"></path>
<rect x="416" y="179" width="60" height="22"></rect>
<a xlink:href="reuse_field.svg"><text x="446" y="194">Field</text>
</a>
</g>
</g>
<path d="M588 190a10 10 0 0 0 10 -10v-130a10 10 0 0 1 10 -10"></path>
<path d="M268 40a10 10 0 0 1 10 10v160a10 10 0 0 0 10 10"></path>
<g>
<path d="M288 220h0"></path>
<path d="M580 220h8"></path>
<g class="terminal">
<path d="M288 220h0"></path>
<path d="M476 220h0"></path>
<rect x="288" y="209" width="188" height="22" rx="10" ry="10"></rect>
<text x="382" y="224">"ON HELP-REQUEST FOR"</text>
</g>
<path d="M476 220h10"></path>
<path d="M486 220h10"></path>
<g class="non-terminal">
<path d="M496 220h0"></path>
<path d="M580 220h0"></path>
<rect x="496" y="209" width="84" height="22"></rect>
<a xlink:href="reuse_fieldsub.svg"><text x="538" y="224">FieldSub</text>
</a>
</g>
</g>
<path d="M588 220a10 10 0 0 0 10 -10v-160a10 10 0 0 1 10 -10"></path>
<path d="M268 40a10 10 0 0 1 10 10v190a10 10 0 0 0 10 10"></path>
<g>
<path d="M288 250h0"></path>
<path d="M468 250h120"></path>
<g class="terminal">
<path d="M288 250h0"></path>
<path d="M388 250h0"></path>
<rect x="288" y="239" width="100" height="22" rx="10" ry="10"></rect>
<text x="338" y="254">"ON BLOCK"</text>
</g>
<path d="M388 250h10"></path>
<path d="M398 250h10"></path>
<g class="non-terminal">
<path d="M408 250h0"></path>
<path d="M468 250h0"></path>
<rect x="408" y="239" width="60" height="22"></rect>
<a xlink:href="reuse_field.svg"><text x="438" y="254">Field</text>
</a>
</g>
</g>
<path d="M588 250a10 10 0 0 0 10 -10v-190a10 10 0 0 1 10 -10"></path>
</g>
<path d="M608 40h20"></path>
</g>
</g>
<path d="M628 40h10"></path>
<path d="M 638 40 h 20 m -10 -10 v 20 m 10 -20 v 20"></path>
</g>
</svg>
