<svg xmlns="http://www.w3.org/2000/svg" xmlns:xlink="http://www.w3.org/1999/xlink" class="railroad-diagram" width="654" height="161" viewBox="0 0 654 161">
<defs>
<style type="text/css"><![CDATA[
path {
stroke-width: 3;
stroke: black;
fill: rgba(0,0,0,0);
}
text {
font: bold 14px monospace;
text-anchor: middle;
}
text.diagram-text {
font-size: 12px;
}
a {
fill: blue;
}
text.diagram-arrow {
font-size: 16px;
}
text.label {
text-anchor: start;
}
text.comment {
font: italic 12px monospace;
}
rect {
stroke-width: 3;
stroke: black;
fill: #BCBCBC;
}
path.diagram-text {
stroke-width: 3;
stroke: black;
fill: #BCBCBC;
cursor: help;
}
]]></style>
</defs>
<g transform="translate(.5 .5)">
<path d="M 20 30 v 20 m 10 -20 v 20 m -10 -10 h 20.5"></path>
<path d="M40 40h10"></path>
<g>
<path d="M50 40h0"></path>
<path d="M604 40h0"></path>
<g class="terminal">
<path d="M50 40h0"></path>
<path d="M238 40h0"></path>
<rect x="50" y="29" width="188" height="22" rx="10" ry="10"></rect>
<text x="144" y="44">"AT SELECTION-SCREEN"</text>
</g>
<path d="M238 40h10"></path>
<g>
<path d="M248 40h0"></path>
<path d="M604 40h0"></path>
<path d="M248 40a10 10 0 0 0 10 -10v0a10 10 0 0 1 10 -10"></path>
<g>
<path d="M268 20h316"></path>
</g>
<path d="M584 20a10 10 0 0 1 10 10v0a10 10 0 0 0 10 10"></path>
<path d="M248 40h20"></path>
<g>
<path d="M268 40h0"></path>
<path d="M584 40h0"></path>
<path d="M268 40h20"></path>
<g class="terminal">
<path d="M288 40h96"></path>
<path d="M468 40h96"></path>
<rect x="384" y="29" width="84" height="22" rx="10" ry="10"></rect>
<text x="426" y="44">"OUTPUT"</text>
</g>
<path d="M564 40h20"></path>
<path d="M268 40a10 10 0 0 1 10 10v10a10 10 0 0 0 10 10"></path>
<g>
<path d="M288 70h0"></path>
<path d="M564 70h0"></path>
<g class="terminal">
<path d="M288 70h0"></path>
<path d="M484 70h0"></path>
<rect x="288" y="59" width="196" height="22" rx="10" ry="10"></rect>
<text x="386" y="74">"ON VALUE-REQUEST FOR"</text>
</g>
<path d="M484 70h10"></path>
<path d="M494 70h10"></path>
<g class="non-terminal">
<path d="M504 70h0"></path>
<path d="M564 70h0"></path>
<rect x="504" y="59" width="60" height="22"></rect>
<a xlink:href="reuse_field.svg"><text x="534" y="74">field</text>
</a>
</g>
</g>
<path d="M564 70a10 10 0 0 0 10 -10v-10a10 10 0 0 1 10 -10"></path>
<path d="M268 40a10 10 0 0 1 10 10v40a10 10 0 0 0 10 10"></path>
<g class="terminal">
<path d="M288 100h60"></path>
<path d="M504 100h60"></path>
<rect x="348" y="89" width="156" height="22" rx="10" ry="10"></rect>
<text x="426" y="104">"ON EXIT-COMMAND"</text>
</g>
<path d="M564 100a10 10 0 0 0 10 -10v-40a10 10 0 0 1 10 -10"></path>
<path d="M268 40a10 10 0 0 1 10 10v70a10 10 0 0 0 10 10"></path>
<g>
<path d="M288 130h72"></path>
<path d="M492 130h72"></path>
<g class="terminal">
<path d="M360 130h0"></path>
<path d="M412 130h0"></path>
<rect x="360" y="119" width="52" height="22" rx="10" ry="10"></rect>
<text x="386" y="134">"ON"</text>
</g>
<path d="M412 130h10"></path>
<path d="M422 130h10"></path>
<g class="non-terminal">
<path d="M432 130h0"></path>
<path d="M492 130h0"></path>
<rect x="432" y="119" width="60" height="22"></rect>
<a xlink:href="reuse_field.svg"><text x="462" y="134">field</text>
</a>
</g>
</g>
<path d="M564 130a10 10 0 0 0 10 -10v-70a10 10 0 0 1 10 -10"></path>
</g>
<path d="M584 40h20"></path>
</g>
</g>
<path d="M604 40h10"></path>
<path d="M 614 40 h 20 m -10 -10 v 20 m 10 -20 v 20"></path>
</g>
</svg>
