<svg xmlns="http://www.w3.org/2000/svg" xmlns:xlink="http://www.w3.org/1999/xlink" class="railroad-diagram" width="992" height="80" viewBox="0 0 992 80">
<defs>
<style type="text/css"><![CDATA[
path {
stroke-width: 3;
stroke: black;
fill: rgba(0,0,0,0);
}
text {
font: bold 14px monospace;
text-anchor: middle;
}
text.diagram-text {
font-size: 12px;
}
a {
fill: blue;
}
text.diagram-arrow {
font-size: 16px;
}
text.label {
text-anchor: start;
}
text.comment {
font: italic 12px monospace;
}
rect {
stroke-width: 3;
stroke: black;
fill: #BCBCBC;
}
path.diagram-text {
stroke-width: 3;
stroke: black;
fill: #BCBCBC;
cursor: help;
}
]]></style>
</defs>
<g transform="translate(.5 .5)">
<path d="M 20 30 v 20 m 10 -20 v 20 m -10 -10 h 20.5"></path>
<path d="M40 40h10"></path>
<g>
<path d="M50 40h0"></path>
<path d="M942 40h0"></path>
<g class="terminal">
<path d="M50 40h0"></path>
<path d="M262 40h0"></path>
<rect x="50" y="29" width="212" height="22" rx="10" ry="10"></rect>
<text x="156" y="44">"AUTHORITY-CHECK OBJECT"</text>
</g>
<path d="M262 40h10"></path>
<path d="M272 40h10"></path>
<g class="non-terminal">
<path d="M282 40h0"></path>
<path d="M350 40h0"></path>
<rect x="282" y="29" width="68" height="22"></rect>
<a xlink:href="reuse_source.svg"><text x="316" y="44">source</text>
</a>
</g>
<path d="M350 40h10"></path>
<g>
<path d="M360 40h0"></path>
<path d="M588 40h0"></path>
<path d="M360 40a10 10 0 0 0 10 -10v0a10 10 0 0 1 10 -10"></path>
<g>
<path d="M380 20h188"></path>
</g>
<path d="M568 20a10 10 0 0 1 10 10v0a10 10 0 0 0 10 10"></path>
<path d="M360 40h20"></path>
<g>
<path d="M380 40h0"></path>
<path d="M568 40h0"></path>
<g class="terminal">
<path d="M380 40h0"></path>
<path d="M480 40h0"></path>
<rect x="380" y="29" width="100" height="22" rx="10" ry="10"></rect>
<text x="430" y="44">"FOR USER"</text>
</g>
<path d="M480 40h10"></path>
<path d="M490 40h10"></path>
<g class="non-terminal">
<path d="M500 40h0"></path>
<path d="M568 40h0"></path>
<rect x="500" y="29" width="68" height="22"></rect>
<a xlink:href="reuse_source.svg"><text x="534" y="44">source</text>
</a>
</g>
</g>
<path d="M568 40h20"></path>
</g>
<path d="M588 40h10"></path>
<g>
<path d="M598 40h0"></path>
<path d="M942 40h0"></path>
<path d="M598 40h10"></path>
<g>
<path d="M608 40h0"></path>
<path d="M932 40h0"></path>
<g class="terminal">
<path d="M608 40h0"></path>
<path d="M660 40h0"></path>
<rect x="608" y="29" width="52" height="22" rx="10" ry="10"></rect>
<text x="634" y="44">"ID"</text>
</g>
<path d="M660 40h10"></path>
<path d="M670 40h10"></path>
<g class="non-terminal">
<path d="M680 40h0"></path>
<path d="M748 40h0"></path>
<rect x="680" y="29" width="68" height="22"></rect>
<a xlink:href="reuse_source.svg"><text x="714" y="44">source</text>
</a>
</g>
<path d="M748 40h10"></path>
<path d="M758 40h10"></path>
<g class="terminal">
<path d="M768 40h0"></path>
<path d="M844 40h0"></path>
<rect x="768" y="29" width="76" height="22" rx="10" ry="10"></rect>
<text x="806" y="44">"FIELD"</text>
</g>
<path d="M844 40h10"></path>
<path d="M854 40h10"></path>
<g class="non-terminal">
<path d="M864 40h0"></path>
<path d="M932 40h0"></path>
<rect x="864" y="29" width="68" height="22"></rect>
<a xlink:href="reuse_source.svg"><text x="898" y="44">source</text>
</a>
</g>
</g>
<path d="M932 40h10"></path>
<path d="M608 40a10 10 0 0 0 -10 10v0a10 10 0 0 0 10 10"></path>
<g>
<path d="M608 60h324"></path>
</g>
<path d="M932 60a10 10 0 0 0 10 -10v0a10 10 0 0 0 -10 -10"></path>
</g>
</g>
<path d="M942 40h10"></path>
<path d="M 952 40 h 20 m -10 -10 v 20 m 10 -20 v 20"></path>
</g>
</svg>
