<?xml version="1.0" encoding="UTF-8" standalone="no"?>
<!DOCTYPE svg PUBLIC "-//W3C//DTD SVG 1.1//EN"
 "http://www.w3.org/Graphics/SVG/1.1/DTD/svg11.dtd">
<!-- Generated by graphviz version 2.38.0 (20140413.2041)
 -->
<!-- Title: boolean Pages: 1 -->
<svg width="134pt" height="188pt"
 viewBox="0.00 0.00 134.00 188.00" xmlns="http://www.w3.org/2000/svg" xmlns:xlink="http://www.w3.org/1999/xlink">
<g id="graph0" class="graph" transform="scale(1 1) rotate(0) translate(4 184)">
<title>boolean</title>
<polygon fill="white" stroke="none" points="-4,4 -4,-184 130,-184 130,4 -4,4"/>
<!-- start -->
<g id="node1" class="node"><title>start</title>
<polygon fill="none" stroke="blue" points="125,-180 71,-180 71,-144 125,-144 125,-180"/>
<text text-anchor="middle" x="98" y="-157.8" font-family="Times,serif" font-size="14.00">Start</text>
</g>
<!-- node119 -->
<g id="node3" class="node"><title>node119</title>
<ellipse fill="none" stroke="black" cx="63" cy="-90" rx="42.879" ry="18"/>
<text text-anchor="middle" x="63" y="-85.8" font-family="Times,serif" font-size="14.00">Dummy</text>
</g>
<!-- start&#45;&gt;node119 -->
<g id="edge5" class="edge"><title>start&#45;&gt;node119</title>
<path fill="none" stroke="black" d="M89.3483,-143.697C85.3642,-135.728 80.5498,-126.1 76.1321,-117.264"/>
<polygon fill="black" stroke="black" points="79.1549,-115.483 71.5522,-108.104 72.8939,-118.614 79.1549,-115.483"/>
</g>
<!-- node120 -->
<g id="node4" class="node"><title>node120</title>
<ellipse fill="none" stroke="black" cx="99" cy="-18" rx="27" ry="18"/>
<text text-anchor="middle" x="99" y="-13.8" font-family="Times,serif" font-size="14.00">.*</text>
</g>
<!-- start&#45;&gt;node120 -->
<g id="edge4" class="edge"><title>start&#45;&gt;node120</title>
<path fill="none" stroke="black" d="M105.066,-143.665C108.838,-133.47 113.088,-120.22 115,-108 117.473,-92.1923 117.337,-87.8284 115,-72 113.702,-63.2121 111.256,-53.8616 108.66,-45.5001"/>
<polygon fill="black" stroke="black" points="111.947,-44.2923 105.486,-35.8957 105.301,-46.4889 111.947,-44.2923"/>
</g>
<!-- end -->
<g id="node2" class="node"><title>end</title>
<polygon fill="none" stroke="blue" points="54,-36 0,-36 0,-0 54,-0 54,-36"/>
<text text-anchor="middle" x="27" y="-13.8" font-family="Times,serif" font-size="14.00">End</text>
</g>
<!-- node119&#45;&gt;end -->
<g id="edge3" class="edge"><title>node119&#45;&gt;end</title>
<path fill="none" stroke="black" d="M54.2854,-72.055C50.1463,-64.0067 45.1052,-54.2046 40.4876,-45.2259"/>
<polygon fill="black" stroke="black" points="43.5705,-43.5675 35.8844,-36.2753 37.3455,-46.7689 43.5705,-43.5675"/>
</g>
<!-- node119&#45;&gt;node120 -->
<g id="edge2" class="edge"><title>node119&#45;&gt;node120</title>
<path fill="none" stroke="black" d="M65.9832,-71.6966C69.616,-62.8605 75.0459,-51.9822 80.5518,-42.4084"/>
<polygon fill="black" stroke="black" points="83.6155,-44.106 85.7977,-33.7383 77.6264,-40.4822 83.6155,-44.106"/>
</g>
<!-- node120&#45;&gt;node119 -->
<g id="edge1" class="edge"><title>node120&#45;&gt;node119</title>
<path fill="none" stroke="black" d="M96.0905,-36.1239C92.6592,-44.4999 87.5924,-54.7429 82.3699,-63.9755"/>
<polygon fill="black" stroke="black" points="79.2472,-62.3794 77.1504,-72.7646 85.2659,-65.9537 79.2472,-62.3794"/>
</g>
</g>
</svg>
