<svg xmlns="http://www.w3.org/2000/svg" xmlns:xlink="http://www.w3.org/1999/xlink" class="railroad-diagram" width="276" height="92" viewBox="0 0 276 92">
<defs>
<style type="text/css"><![CDATA[
path {
stroke-width: 3;
stroke: black;
fill: rgba(0,0,0,0);
}
text {
font: bold 14px monospace;
text-anchor: middle;
}
text.diagram-text {
font-size: 12px;
}
a {
fill: blue;
}
text.diagram-arrow {
font-size: 16px;
}
text.label {
text-anchor: start;
}
text.comment {
font: italic 12px monospace;
}
rect {
stroke-width: 3;
stroke: black;
fill: #BCBCBC;
}
path.diagram-text {
stroke-width: 3;
stroke: black;
fill: #BCBCBC;
cursor: help;
}
]]></style>
</defs>
<g transform="translate(.5 .5)">
<path d="M 20 21 v 20 m 10 -20 v 20 m -10 -10 h 20.5"></path>
<g>
<path d="M40 31h0"></path>
<path d="M236 31h0"></path>
<path d="M40 31h20"></path>
<g class="terminal">
<path d="M60 31h0"></path>
<path d="M184 31h32"></path>
<rect x="60" y="20" width="124" height="22" rx="10" ry="10"></rect>
<text x="122" y="35">"BREAK-POINT"</text>
</g>
<path d="M216 31h20"></path>
<path d="M40 31a10 10 0 0 1 10 10v10a10 10 0 0 0 10 10"></path>
<g>
<path d="M60 61h0"></path>
<path d="M216 61h0"></path>
<g class="terminal">
<path d="M60 61h0"></path>
<path d="M136 61h0"></path>
<rect x="60" y="50" width="76" height="22" rx="10" ry="10"></rect>
<text x="98" y="65">"BREAK"</text>
</g>
<path d="M136 61h10"></path>
<path d="M146 61h10"></path>
<g class="non-terminal">
<path d="M156 61h0"></path>
<path d="M216 61h0"></path>
<rect x="156" y="50" width="60" height="22"></rect>
<a xlink:href="reuse_field.svg"><text x="186" y="65">field</text>
</a>
</g>
</g>
<path d="M216 61a10 10 0 0 0 10 -10v-10a10 10 0 0 1 10 -10"></path>
</g>
<path d="M 236 31 h 20 m -10 -10 v 20 m 10 -20 v 20"></path>
</g>
</svg>
