<?xml version="1.0" encoding="UTF-8" standalone="no"?>
<!DOCTYPE svg PUBLIC "-//W3C//DTD SVG 1.1//EN"
 "http://www.w3.org/Graphics/SVG/1.1/DTD/svg11.dtd">
<!-- Generated by graphviz version 2.38.0 (20140413.2041)
 -->
<!-- Title: break Pages: 1 -->
<svg width="260pt" height="260pt"
 viewBox="0.00 0.00 259.91 260.00" xmlns="http://www.w3.org/2000/svg" xmlns:xlink="http://www.w3.org/1999/xlink">
<g id="graph0" class="graph" transform="scale(1 1) rotate(0) translate(4 256)">
<title>break</title>
<polygon fill="white" stroke="none" points="-4,4 -4,-256 255.914,-256 255.914,4 -4,4"/>
<!-- start -->
<g id="node1" class="node"><title>start</title>
<polygon fill="none" stroke="black" points="174.277,-252 120.277,-252 120.277,-216 174.277,-216 174.277,-252"/>
<text text-anchor="middle" x="147.277" y="-229.8" font-family="Times,serif" font-size="14.00">Start</text>
</g>
<!-- node526 -->
<g id="node3" class="node"><title>node526</title>
<ellipse fill="none" stroke="black" cx="83.2772" cy="-90" rx="83.055" ry="18"/>
<text text-anchor="middle" x="83.2772" y="-85.8" font-family="Times,serif" font-size="14.00">&quot;BREAK&#45;POINT&quot;</text>
</g>
<!-- start&#45;&gt;node526 -->
<g id="edge4" class="edge"><title>start&#45;&gt;node526</title>
<path fill="none" stroke="black" d="M139.557,-215.871C128.554,-191.457 108.258,-146.426 95.2818,-117.635"/>
<polygon fill="black" stroke="black" points="98.3244,-115.868 91.0245,-108.189 91.9426,-118.744 98.3244,-115.868"/>
</g>
<!-- node528 -->
<g id="node5" class="node"><title>node528</title>
<ellipse fill="none" stroke="black" cx="200.277" cy="-162" rx="51.7748" ry="18"/>
<text text-anchor="middle" x="200.277" y="-157.8" font-family="Times,serif" font-size="14.00">&quot;BREAK&quot;</text>
</g>
<!-- start&#45;&gt;node528 -->
<g id="edge5" class="edge"><title>start&#45;&gt;node528</title>
<path fill="none" stroke="black" d="M160.378,-215.697C166.762,-207.265 174.553,-196.975 181.551,-187.732"/>
<polygon fill="black" stroke="black" points="184.446,-189.708 187.692,-179.622 178.865,-185.482 184.446,-189.708"/>
</g>
<!-- end -->
<g id="node2" class="node"><title>end</title>
<polygon fill="none" stroke="black" points="175.277,-36 121.277,-36 121.277,-0 175.277,-0 175.277,-36"/>
<text text-anchor="middle" x="148.277" y="-13.8" font-family="Times,serif" font-size="14.00">End</text>
</g>
<!-- node526&#45;&gt;end -->
<g id="edge1" class="edge"><title>node526&#45;&gt;end</title>
<path fill="none" stroke="black" d="M99.0119,-72.055C106.879,-63.5832 116.55,-53.1679 125.234,-43.8154"/>
<polygon fill="black" stroke="black" points="127.996,-45.9848 132.236,-36.2753 122.867,-41.2217 127.996,-45.9848"/>
</g>
<!-- node527 -->
<g id="node4" class="node"><title>node527</title>
<g id="a_node4"><a xlink:href="reuse_field.svg" xlink:title="&lt;u&gt;field&lt;/u&gt;">
<ellipse fill="none" stroke="black" cx="213.277" cy="-90" rx="28.9696" ry="18"/>
<text text-anchor="start" x="200.449" y="-86.8" font-family="Times,serif" text-decoration="underline" font-size="14.00" fill="blue">field</text>
</a>
</g>
</g>
<!-- node527&#45;&gt;end -->
<g id="edge2" class="edge"><title>node527&#45;&gt;end</title>
<path fill="none" stroke="black" d="M199.492,-74.1548C191.237,-65.2642 180.537,-53.7416 171.054,-43.529"/>
<polygon fill="black" stroke="black" points="173.469,-40.9864 164.1,-36.04 168.34,-45.7496 173.469,-40.9864"/>
</g>
<!-- node528&#45;&gt;node527 -->
<g id="edge3" class="edge"><title>node528&#45;&gt;node527</title>
<path fill="none" stroke="black" d="M203.491,-143.697C204.923,-135.983 206.645,-126.712 208.242,-118.112"/>
<polygon fill="black" stroke="black" points="211.716,-118.575 210.101,-108.104 204.834,-117.297 211.716,-118.575"/>
</g>
</g>
</svg>
