<svg xmlns="http://www.w3.org/2000/svg" xmlns:xlink="http://www.w3.org/1999/xlink" class="railroad-diagram" width="426" height="101" viewBox="0 0 426 101">
<defs>
<style type="text/css"><![CDATA[
path {
stroke-width: 3;
stroke: black;
fill: rgba(0,0,0,0);
}
text {
font: bold 14px monospace;
text-anchor: middle;
}
text.diagram-text {
font-size: 12px;
}
a {
fill: blue;
}
text.diagram-arrow {
font-size: 16px;
}
text.label {
text-anchor: start;
}
text.comment {
font: italic 12px monospace;
}
rect {
stroke-width: 3;
stroke: black;
fill: #BCBCBC;
}
path.diagram-text {
stroke-width: 3;
stroke: black;
fill: #BCBCBC;
cursor: help;
}
]]></style>
</defs>
<g transform="translate(.5 .5)">
<path d="M 20 30 v 20 m 10 -20 v 20 m -10 -10 h 20.5"></path>
<g>
<path d="M40 40h0"></path>
<path d="M386 40h0"></path>
<path d="M40 40h20"></path>
<g>
<path d="M60 40h0"></path>
<path d="M366 40h0"></path>
<g class="terminal">
<path d="M60 40h0"></path>
<path d="M184 40h0"></path>
<rect x="60" y="29" width="124" height="22" rx="10" ry="10"></rect>
<text x="122" y="44">"BREAK-POINT"</text>
</g>
<path d="M184 40h10"></path>
<g>
<path d="M194 40h0"></path>
<path d="M366 40h0"></path>
<path d="M194 40a10 10 0 0 0 10 -10v0a10 10 0 0 1 10 -10"></path>
<g>
<path d="M214 20h132"></path>
</g>
<path d="M346 20a10 10 0 0 1 10 10v0a10 10 0 0 0 10 10"></path>
<path d="M194 40h20"></path>
<g>
<path d="M214 40h0"></path>
<path d="M346 40h0"></path>
<g class="terminal">
<path d="M214 40h0"></path>
<path d="M266 40h0"></path>
<rect x="214" y="29" width="52" height="22" rx="10" ry="10"></rect>
<text x="240" y="44">"ID"</text>
</g>
<path d="M266 40h10"></path>
<path d="M276 40h10"></path>
<g class="non-terminal">
<path d="M286 40h0"></path>
<path d="M346 40h0"></path>
<rect x="286" y="29" width="60" height="22"></rect>
<a xlink:href="reuse_field.svg"><text x="316" y="44">Field</text>
</a>
</g>
</g>
<path d="M346 40h20"></path>
</g>
</g>
<path d="M366 40h20"></path>
<path d="M40 40a10 10 0 0 1 10 10v10a10 10 0 0 0 10 10"></path>
<g>
<path d="M60 70h0"></path>
<path d="M216 70h150"></path>
<g class="terminal">
<path d="M60 70h0"></path>
<path d="M136 70h0"></path>
<rect x="60" y="59" width="76" height="22" rx="10" ry="10"></rect>
<text x="98" y="74">"BREAK"</text>
</g>
<path d="M136 70h10"></path>
<path d="M146 70h10"></path>
<g class="non-terminal">
<path d="M156 70h0"></path>
<path d="M216 70h0"></path>
<rect x="156" y="59" width="60" height="22"></rect>
<a xlink:href="reuse_field.svg"><text x="186" y="74">Field</text>
</a>
</g>
</g>
<path d="M366 70a10 10 0 0 0 10 -10v-10a10 10 0 0 1 10 -10"></path>
</g>
<path d="M 386 40 h 20 m -10 -10 v 20 m 10 -20 v 20"></path>
</g>
</svg>
