<svg xmlns="http://www.w3.org/2000/svg" xmlns:xlink="http://www.w3.org/1999/xlink" class="railroad-diagram" width="936" height="161" viewBox="0 0 936 161">
<defs>
<style type="text/css"><![CDATA[
path {
stroke-width: 3;
stroke: black;
fill: rgba(0,0,0,0);
}
text {
font: bold 14px monospace;
text-anchor: middle;
}
text.diagram-text {
font-size: 12px;
}
a {
fill: blue;
}
text.diagram-arrow {
font-size: 16px;
}
text.label {
text-anchor: start;
}
text.comment {
font: italic 12px monospace;
}
rect {
stroke-width: 3;
stroke: black;
fill: #BCBCBC;
}
path.diagram-text {
stroke-width: 3;
stroke: black;
fill: #BCBCBC;
cursor: help;
}
]]></style>
</defs>
<g transform="translate(.5 .5)">
<path d="M 20 30 v 20 m 10 -20 v 20 m -10 -10 h 20.5"></path>
<path d="M40 40h10"></path>
<g>
<path d="M50 40h0"></path>
<path d="M886 40h0"></path>
<g class="terminal">
<path d="M50 40h0"></path>
<path d="M190 40h0"></path>
<rect x="50" y="29" width="140" height="22" rx="10" ry="10"></rect>
<text x="120" y="44">"CALL FUNCTION"</text>
</g>
<path d="M190 40h10"></path>
<g>
<path d="M200 40h0"></path>
<path d="M348 40h0"></path>
<path d="M200 40h20"></path>
<g class="non-terminal">
<path d="M220 40h0"></path>
<path d="M304 40h24"></path>
<rect x="220" y="29" width="84" height="22"></rect>
<a xlink:href="reuse_constant.svg"><text x="262" y="44">constant</text>
</a>
</g>
<path d="M328 40h20"></path>
<path d="M200 40a10 10 0 0 1 10 10v10a10 10 0 0 0 10 10"></path>
<g class="non-terminal">
<path d="M220 70h0"></path>
<path d="M328 70h0"></path>
<rect x="220" y="59" width="108" height="22"></rect>
<a xlink:href="reuse_field_chain.svg"><text x="274" y="74">field&#95;chain</text>
</a>
</g>
<path d="M328 70a10 10 0 0 0 10 -10v-10a10 10 0 0 1 10 -10"></path>
</g>
<g>
<path d="M348 40h0"></path>
<path d="M704 40h0"></path>
<path d="M348 40a10 10 0 0 0 10 -10v0a10 10 0 0 1 10 -10"></path>
<g>
<path d="M368 20h316"></path>
</g>
<path d="M684 20a10 10 0 0 1 10 10v0a10 10 0 0 0 10 10"></path>
<path d="M348 40h20"></path>
<g>
<path d="M368 40h0"></path>
<path d="M684 40h0"></path>
<path d="M368 40h20"></path>
<g>
<path d="M388 40h0"></path>
<path d="M664 40h0"></path>
<g class="terminal">
<path d="M388 40h0"></path>
<path d="M560 40h0"></path>
<rect x="388" y="29" width="172" height="22" rx="10" ry="10"></rect>
<text x="474" y="44">"STARTING NEW TASK"</text>
</g>
<path d="M560 40h10"></path>
<path d="M570 40h10"></path>
<g class="non-terminal">
<path d="M580 40h0"></path>
<path d="M664 40h0"></path>
<rect x="580" y="29" width="84" height="22"></rect>
<a xlink:href="reuse_constant.svg"><text x="622" y="44">constant</text>
</a>
</g>
</g>
<path d="M664 40h20"></path>
<path d="M368 40a10 10 0 0 1 10 10v10a10 10 0 0 0 10 10"></path>
<g class="terminal">
<path d="M388 70h0"></path>
<path d="M536 70h128"></path>
<rect x="388" y="59" width="148" height="22" rx="10" ry="10"></rect>
<text x="462" y="74">"IN UPDATE TASK"</text>
</g>
<path d="M664 70a10 10 0 0 0 10 -10v-10a10 10 0 0 1 10 -10"></path>
<path d="M368 40a10 10 0 0 1 10 10v40a10 10 0 0 0 10 10"></path>
<g class="terminal">
<path d="M388 100h0"></path>
<path d="M568 100h96"></path>
<rect x="388" y="89" width="180" height="22" rx="10" ry="10"></rect>
<text x="478" y="104">"IN BACKGROUND TASK"</text>
</g>
<path d="M664 100a10 10 0 0 0 10 -10v-40a10 10 0 0 1 10 -10"></path>
<path d="M368 40a10 10 0 0 1 10 10v70a10 10 0 0 0 10 10"></path>
<g>
<path d="M388 130h0"></path>
<path d="M600 130h64"></path>
<g class="terminal">
<path d="M388 130h0"></path>
<path d="M512 130h0"></path>
<rect x="388" y="119" width="124" height="22" rx="10" ry="10"></rect>
<text x="450" y="134">"DESTINATION"</text>
</g>
<path d="M512 130h10"></path>
<path d="M522 130h10"></path>
<g class="non-terminal">
<path d="M532 130h0"></path>
<path d="M600 130h0"></path>
<rect x="532" y="119" width="68" height="22"></rect>
<a xlink:href="reuse_source.svg"><text x="566" y="134">source</text>
</a>
</g>
</g>
<path d="M664 130a10 10 0 0 0 10 -10v-70a10 10 0 0 1 10 -10"></path>
</g>
<path d="M684 40h20"></path>
</g>
<path d="M704 40h10"></path>
<g class="non-terminal">
<path d="M714 40h0"></path>
<path d="M886 40h0"></path>
<rect x="714" y="29" width="172" height="22"></rect>
<a xlink:href="reuse_function_parameters.svg"><text x="800" y="44">function&#95;parameters</text>
</a>
</g>
</g>
<path d="M886 40h10"></path>
<path d="M 896 40 h 20 m -10 -10 v 20 m 10 -20 v 20"></path>
</g>
</svg>
