<svg xmlns="http://www.w3.org/2000/svg" xmlns:xlink="http://www.w3.org/1999/xlink" class="railroad-diagram" width="1318" height="101" viewBox="0 0 1318 101">
<defs>
<style type="text/css"><![CDATA[
path {
stroke-width: 3;
stroke: black;
fill: rgba(0,0,0,0);
}
text {
font: bold 14px monospace;
text-anchor: middle;
}
text.diagram-text {
font-size: 12px;
}
a {
fill: blue;
}
text.diagram-arrow {
font-size: 16px;
}
text.label {
text-anchor: start;
}
text.comment {
font: italic 12px monospace;
}
rect {
stroke-width: 3;
stroke: black;
fill: #BCBCBC;
}
path.diagram-text {
stroke-width: 3;
stroke: black;
fill: #BCBCBC;
cursor: help;
}
]]></style>
</defs>
<g transform="translate(.5 .5)">
<path d="M 20 30 v 20 m 10 -20 v 20 m -10 -10 h 20.5"></path>
<path d="M40 40h10"></path>
<g>
<path d="M50 40h0"></path>
<path d="M1268 40h0"></path>
<g class="terminal">
<path d="M50 40h0"></path>
<path d="M270 40h0"></path>
<rect x="50" y="29" width="220" height="22" rx="10" ry="10"></rect>
<text x="160" y="44">"CALL DATABASE PROCEDURE"</text>
</g>
<path d="M270 40h10"></path>
<path d="M280 40h10"></path>
<g class="non-terminal">
<path d="M290 40h0"></path>
<path d="M366 40h0"></path>
<rect x="290" y="29" width="76" height="22"></rect>
<a xlink:href="reuse_dynamic.svg"><text x="328" y="44">Dynamic</text>
</a>
</g>
<path d="M366 40h10"></path>
<g>
<path d="M376 40h0"></path>
<path d="M628 40h0"></path>
<path d="M376 40a10 10 0 0 0 10 -10v0a10 10 0 0 1 10 -10"></path>
<g>
<path d="M396 20h212"></path>
</g>
<path d="M608 20a10 10 0 0 1 10 10v0a10 10 0 0 0 10 10"></path>
<path d="M376 40h20"></path>
<g>
<path d="M396 40h0"></path>
<path d="M608 40h0"></path>
<g class="terminal">
<path d="M396 40h0"></path>
<path d="M512 40h0"></path>
<rect x="396" y="29" width="116" height="22" rx="10" ry="10"></rect>
<text x="454" y="44">"CONNECTION"</text>
</g>
<path d="M512 40h10"></path>
<path d="M522 40h10"></path>
<g class="non-terminal">
<path d="M532 40h0"></path>
<path d="M608 40h0"></path>
<rect x="532" y="29" width="76" height="22"></rect>
<a xlink:href="reuse_dynamic.svg"><text x="570" y="44">Dynamic</text>
</a>
</g>
</g>
<path d="M608 40h20"></path>
</g>
<g>
<path d="M628 40h0"></path>
<path d="M1268 40h0"></path>
<path d="M628 40h20"></path>
<g>
<path d="M648 40h0"></path>
<path d="M1248 40h0"></path>
<g>
<path d="M648 40h0"></path>
<path d="M948 40h0"></path>
<path d="M648 40a10 10 0 0 0 10 -10v0a10 10 0 0 1 10 -10"></path>
<g>
<path d="M668 20h260"></path>
</g>
<path d="M928 20a10 10 0 0 1 10 10v0a10 10 0 0 0 10 10"></path>
<path d="M648 40h20"></path>
<g>
<path d="M668 40h0"></path>
<path d="M928 40h0"></path>
<g class="terminal">
<path d="M668 40h0"></path>
<path d="M776 40h0"></path>
<rect x="668" y="29" width="108" height="22" rx="10" ry="10"></rect>
<text x="722" y="44">"EXPORTING"</text>
</g>
<path d="M776 40h10"></path>
<path d="M786 40h10"></path>
<g class="non-terminal">
<path d="M796 40h0"></path>
<path d="M928 40h0"></path>
<rect x="796" y="29" width="132" height="22"></rect>
<a xlink:href="reuse_parameterlists.svg"><text x="862" y="44">ParameterListS</text>
</a>
</g>
</g>
<path d="M928 40h20"></path>
</g>
<g>
<path d="M948 40h0"></path>
<path d="M1248 40h0"></path>
<path d="M948 40a10 10 0 0 0 10 -10v0a10 10 0 0 1 10 -10"></path>
<g>
<path d="M968 20h260"></path>
</g>
<path d="M1228 20a10 10 0 0 1 10 10v0a10 10 0 0 0 10 10"></path>
<path d="M948 40h20"></path>
<g>
<path d="M968 40h0"></path>
<path d="M1228 40h0"></path>
<g class="terminal">
<path d="M968 40h0"></path>
<path d="M1076 40h0"></path>
<rect x="968" y="29" width="108" height="22" rx="10" ry="10"></rect>
<text x="1022" y="44">"IMPORTING"</text>
</g>
<path d="M1076 40h10"></path>
<path d="M1086 40h10"></path>
<g class="non-terminal">
<path d="M1096 40h0"></path>
<path d="M1228 40h0"></path>
<rect x="1096" y="29" width="132" height="22"></rect>
<a xlink:href="reuse_parameterlistt.svg"><text x="1162" y="44">ParameterListT</text>
</a>
</g>
</g>
<path d="M1228 40h20"></path>
</g>
</g>
<path d="M1248 40h20"></path>
<path d="M628 40a10 10 0 0 1 10 10v10a10 10 0 0 0 10 10"></path>
<g>
<path d="M648 70h0"></path>
<path d="M892 70h356"></path>
<g class="terminal">
<path d="M648 70h0"></path>
<path d="M804 70h0"></path>
<rect x="648" y="59" width="156" height="22" rx="10" ry="10"></rect>
<text x="726" y="74">"PARAMETER-TABLE"</text>
</g>
<path d="M804 70h10"></path>
<path d="M814 70h10"></path>
<g class="non-terminal">
<path d="M824 70h0"></path>
<path d="M892 70h0"></path>
<rect x="824" y="59" width="68" height="22"></rect>
<a xlink:href="reuse_source.svg"><text x="858" y="74">Source</text>
</a>
</g>
</g>
<path d="M1248 70a10 10 0 0 0 10 -10v-10a10 10 0 0 1 10 -10"></path>
</g>
</g>
<path d="M1268 40h10"></path>
<path d="M 1278 40 h 20 m -10 -10 v 20 m 10 -20 v 20"></path>
</g>
</svg>
