<?xml version="1.0" encoding="UTF-8" standalone="no"?>
<!DOCTYPE svg PUBLIC "-//W3C//DTD SVG 1.1//EN"
 "http://www.w3.org/Graphics/SVG/1.1/DTD/svg11.dtd">
<!-- Generated by graphviz version 2.38.0 (20140413.2041)
 -->
<!-- Title: call Pages: 1 -->
<svg width="415pt" height="764pt"
 viewBox="0.00 0.00 414.52 764.00" xmlns="http://www.w3.org/2000/svg" xmlns:xlink="http://www.w3.org/1999/xlink">
<g id="graph0" class="graph" transform="scale(1 1) rotate(0) translate(4 760)">
<title>call</title>
<polygon fill="white" stroke="none" points="-4,4 -4,-760 410.516,-760 410.516,4 -4,4"/>
<!-- start -->
<g id="node1" class="node"><title>start</title>
<polygon fill="none" stroke="black" points="280,-756 226,-756 226,-720 280,-720 280,-756"/>
<text text-anchor="middle" x="253" y="-733.8" font-family="Times,serif" font-size="14.00">Start</text>
</g>
<!-- node316 -->
<g id="node13" class="node"><title>node316</title>
<ellipse fill="none" stroke="black" cx="192" cy="-666" rx="87.6728" ry="18"/>
<text text-anchor="middle" x="192" y="-661.8" font-family="Times,serif" font-size="14.00">&quot;CALL METHOD&quot;</text>
</g>
<!-- start&#45;&gt;node316 -->
<g id="edge17" class="edge"><title>start&#45;&gt;node316</title>
<path fill="none" stroke="black" d="M237.921,-719.697C230.608,-711.305 221.69,-701.07 213.665,-691.861"/>
<polygon fill="black" stroke="black" points="216.114,-689.344 206.905,-684.104 210.836,-693.943 216.114,-689.344"/>
</g>
<!-- node317 -->
<g id="node14" class="node"><title>node317</title>
<g id="a_node14"><a xlink:href="reuse_method_call_chain.svg" xlink:title="&lt;u&gt;method_call_chain&lt;/u&gt;">
<ellipse fill="none" stroke="black" cx="322" cy="-594" rx="84.5324" ry="18"/>
<text text-anchor="start" x="268.737" y="-590.8" font-family="Times,serif" text-decoration="underline" font-size="14.00" fill="blue">method_call_chain</text>
</a>
</g>
</g>
<!-- start&#45;&gt;node317 -->
<g id="edge18" class="edge"><title>start&#45;&gt;node317</title>
<path fill="none" stroke="black" d="M266.108,-719.992C273.478,-709.906 282.478,-696.656 289,-684 299.335,-663.947 308.053,-639.891 313.928,-621.847"/>
<polygon fill="black" stroke="black" points="317.285,-622.84 316.971,-612.25 310.612,-620.724 317.285,-622.84"/>
</g>
<!-- end -->
<g id="node2" class="node"><title>end</title>
<polygon fill="none" stroke="black" points="291,-36 237,-36 237,-0 291,-0 291,-36"/>
<text text-anchor="middle" x="264" y="-13.8" font-family="Times,serif" font-size="14.00">End</text>
</g>
<!-- node306 -->
<g id="node3" class="node"><title>node306</title>
<g id="a_node3"><a xlink:href="reuse_method_parameters.svg" xlink:title="&lt;u&gt;method_parameters&lt;/u&gt;">
<ellipse fill="none" stroke="black" cx="207" cy="-90" rx="87.3789" ry="18"/>
<text text-anchor="start" x="151.799" y="-86.8" font-family="Times,serif" text-decoration="underline" font-size="14.00" fill="blue">method_parameters</text>
</a>
</g>
</g>
<!-- node306&#45;&gt;end -->
<g id="edge1" class="edge"><title>node306&#45;&gt;end</title>
<path fill="none" stroke="black" d="M220.798,-72.055C227.628,-63.6679 236.008,-53.376 243.564,-44.0963"/>
<polygon fill="black" stroke="black" points="246.333,-46.2397 249.933,-36.2753 240.905,-41.8197 246.333,-46.2397"/>
</g>
<!-- node307 -->
<g id="node4" class="node"><title>node307</title>
<g id="a_node4"><a xlink:href="reuse_method_name.svg" xlink:title="&lt;u&gt;method_name&lt;/u&gt;">
<ellipse fill="none" stroke="black" cx="94" cy="-234" rx="65.9949" ry="18"/>
<text text-anchor="start" x="54.3422" y="-230.8" font-family="Times,serif" text-decoration="underline" font-size="14.00" fill="blue">method_name</text>
</a>
</g>
</g>
<!-- node307&#45;&gt;node306 -->
<g id="edge2" class="edge"><title>node307&#45;&gt;node306</title>
<path fill="none" stroke="black" d="M107.406,-216.153C127.2,-191.279 164.367,-144.574 187.275,-115.788"/>
<polygon fill="black" stroke="black" points="190.123,-117.829 193.611,-107.825 184.646,-113.47 190.123,-117.829"/>
</g>
<!-- node308 -->
<g id="node5" class="node"><title>node308</title>
<ellipse fill="none" stroke="black" cx="211" cy="-162" rx="27" ry="18"/>
<text text-anchor="middle" x="211" y="-157.8" font-family="Times,serif" font-size="14.00">&quot;)&quot;</text>
</g>
<!-- node308&#45;&gt;node306 -->
<g id="edge3" class="edge"><title>node308&#45;&gt;node306</title>
<path fill="none" stroke="black" d="M210.011,-143.697C209.57,-135.983 209.041,-126.712 208.549,-118.112"/>
<polygon fill="black" stroke="black" points="212.042,-117.888 207.977,-108.104 205.054,-118.288 212.042,-117.888"/>
</g>
<!-- node309 -->
<g id="node6" class="node"><title>node309</title>
<g id="a_node6"><a xlink:href="reuse_source.svg" xlink:title="&lt;u&gt;source&lt;/u&gt;">
<ellipse fill="none" stroke="black" cx="214" cy="-234" rx="36.4761" ry="18"/>
<text text-anchor="start" x="195.733" y="-230.8" font-family="Times,serif" text-decoration="underline" font-size="14.00" fill="blue">source</text>
</a>
</g>
</g>
<!-- node309&#45;&gt;node308 -->
<g id="edge4" class="edge"><title>node309&#45;&gt;node308</title>
<path fill="none" stroke="black" d="M213.258,-215.697C212.928,-207.983 212.531,-198.712 212.162,-190.112"/>
<polygon fill="black" stroke="black" points="215.658,-189.945 211.733,-180.104 208.665,-190.245 215.658,-189.945"/>
</g>
<!-- node310 -->
<g id="node7" class="node"><title>node310</title>
<ellipse fill="none" stroke="black" cx="182" cy="-306" rx="27" ry="18"/>
<text text-anchor="middle" x="182" y="-301.8" font-family="Times,serif" font-size="14.00">&quot;(&quot;</text>
</g>
<!-- node310&#45;&gt;node309 -->
<g id="edge5" class="edge"><title>node310&#45;&gt;node309</title>
<path fill="none" stroke="black" d="M189.584,-288.411C193.315,-280.249 197.899,-270.22 202.084,-261.065"/>
<polygon fill="black" stroke="black" points="205.274,-262.506 206.249,-251.956 198.908,-259.596 205.274,-262.506"/>
</g>
<!-- node311 -->
<g id="node8" class="node"><title>node311</title>
<g id="a_node8"><a xlink:href="reuse_arrow.svg" xlink:title="&lt;u&gt;arrow&lt;/u&gt;">
<ellipse fill="none" stroke="black" cx="146" cy="-378" rx="33.6054" ry="18"/>
<text text-anchor="start" x="129.679" y="-374.8" font-family="Times,serif" text-decoration="underline" font-size="14.00" fill="blue">arrow</text>
</a>
</g>
</g>
<!-- node311&#45;&gt;node307 -->
<g id="edge6" class="edge"><title>node311&#45;&gt;node307</title>
<path fill="none" stroke="black" d="M139.831,-360.153C130.927,-335.838 114.382,-290.66 103.797,-261.753"/>
<polygon fill="black" stroke="black" points="107.049,-260.454 100.323,-252.268 100.476,-262.862 107.049,-260.454"/>
</g>
<!-- node311&#45;&gt;node310 -->
<g id="edge7" class="edge"><title>node311&#45;&gt;node310</title>
<path fill="none" stroke="black" d="M154.531,-360.411C158.836,-352.042 164.149,-341.71 168.953,-332.37"/>
<polygon fill="black" stroke="black" points="172.069,-333.964 173.53,-323.47 165.844,-330.762 172.069,-333.964"/>
</g>
<!-- node312 -->
<g id="node9" class="node"><title>node312</title>
<g id="a_node9"><a xlink:href="reuse_method_name.svg" xlink:title="&lt;u&gt;method_name&lt;/u&gt;">
<ellipse fill="none" stroke="black" cx="116" cy="-450" rx="65.9949" ry="18"/>
<text text-anchor="start" x="76.3422" y="-446.8" font-family="Times,serif" text-decoration="underline" font-size="14.00" fill="blue">method_name</text>
</a>
</g>
</g>
<!-- node312&#45;&gt;node306 -->
<g id="edge9" class="edge"><title>node312&#45;&gt;node306</title>
<path fill="none" stroke="black" d="M90.2558,-433.266C56.0813,-410.18 0,-363.663 0,-307 0,-307 0,-307 0,-233 0,-163.542 80.2314,-125.531 140.795,-106.732"/>
<polygon fill="black" stroke="black" points="142.131,-109.986 150.71,-103.769 140.126,-103.279 142.131,-109.986"/>
</g>
<!-- node312&#45;&gt;node311 -->
<g id="edge8" class="edge"><title>node312&#45;&gt;node311</title>
<path fill="none" stroke="black" d="M123.262,-432.055C126.726,-423.973 130.948,-414.121 134.809,-405.112"/>
<polygon fill="black" stroke="black" points="138.082,-406.359 138.805,-395.789 131.648,-403.602 138.082,-406.359"/>
</g>
<!-- node313 -->
<g id="node10" class="node"><title>node313</title>
<ellipse fill="none" stroke="black" cx="227" cy="-450" rx="27" ry="18"/>
<text text-anchor="middle" x="227" y="-445.8" font-family="Times,serif" font-size="14.00">&quot;)&quot;</text>
</g>
<!-- node313&#45;&gt;node306 -->
<g id="edge11" class="edge"><title>node313&#45;&gt;node306</title>
<path fill="none" stroke="black" d="M236.833,-433.059C251.653,-407.469 278,-355.198 278,-307 278,-307 278,-307 278,-233 278,-188.232 249.42,-143.111 228.525,-116.105"/>
<polygon fill="black" stroke="black" points="231.029,-113.632 222.057,-107.997 225.557,-117.997 231.029,-113.632"/>
</g>
<!-- node313&#45;&gt;node311 -->
<g id="edge10" class="edge"><title>node313&#45;&gt;node311</title>
<path fill="none" stroke="black" d="M210.997,-435.17C199.543,-425.272 183.901,-411.754 170.832,-400.46"/>
<polygon fill="black" stroke="black" points="172.943,-397.658 163.088,-393.768 168.366,-402.954 172.943,-397.658"/>
</g>
<!-- node314 -->
<g id="node11" class="node"><title>node314</title>
<g id="a_node11"><a xlink:href="reuse_source.svg" xlink:title="&lt;u&gt;source&lt;/u&gt;">
<ellipse fill="none" stroke="black" cx="210" cy="-522" rx="36.4761" ry="18"/>
<text text-anchor="start" x="191.733" y="-518.8" font-family="Times,serif" text-decoration="underline" font-size="14.00" fill="blue">source</text>
</a>
</g>
</g>
<!-- node314&#45;&gt;node313 -->
<g id="edge12" class="edge"><title>node314&#45;&gt;node313</title>
<path fill="none" stroke="black" d="M214.115,-504.055C216.008,-496.261 218.3,-486.822 220.424,-478.079"/>
<polygon fill="black" stroke="black" points="223.846,-478.819 222.805,-468.275 217.043,-477.167 223.846,-478.819"/>
</g>
<!-- node315 -->
<g id="node12" class="node"><title>node315</title>
<ellipse fill="none" stroke="black" cx="192" cy="-594" rx="27" ry="18"/>
<text text-anchor="middle" x="192" y="-589.8" font-family="Times,serif" font-size="14.00">&quot;(&quot;</text>
</g>
<!-- node315&#45;&gt;node314 -->
<g id="edge13" class="edge"><title>node315&#45;&gt;node314</title>
<path fill="none" stroke="black" d="M196.357,-576.055C198.361,-568.261 200.789,-558.822 203.037,-550.079"/>
<polygon fill="black" stroke="black" points="206.457,-550.832 205.558,-540.275 199.678,-549.089 206.457,-550.832"/>
</g>
<!-- node316&#45;&gt;node312 -->
<g id="edge14" class="edge"><title>node316&#45;&gt;node312</title>
<path fill="none" stroke="black" d="M178,-647.779C170.526,-637.836 161.716,-624.797 156,-612 136.054,-567.347 124.97,-511.096 119.767,-478.279"/>
<polygon fill="black" stroke="black" points="123.183,-477.461 118.223,-468.098 116.262,-478.51 123.183,-477.461"/>
</g>
<!-- node316&#45;&gt;node315 -->
<g id="edge15" class="edge"><title>node316&#45;&gt;node315</title>
<path fill="none" stroke="black" d="M192,-647.697C192,-639.983 192,-630.712 192,-622.112"/>
<polygon fill="black" stroke="black" points="195.5,-622.104 192,-612.104 188.5,-622.104 195.5,-622.104"/>
</g>
<!-- node317&#45;&gt;end -->
<g id="edge16" class="edge"><title>node317&#45;&gt;end</title>
<path fill="none" stroke="black" d="M322,-575.951C322,-549.292 322,-496.115 322,-451 322,-451 322,-451 322,-161 322,-120.553 319.58,-108.893 303,-72 298.645,-62.3092 292.307,-52.6648 286.002,-44.312"/>
<polygon fill="black" stroke="black" points="288.727,-42.1148 279.782,-36.4358 283.233,-46.453 288.727,-42.1148"/>
</g>
</g>
</svg>
