<svg xmlns="http://www.w3.org/2000/svg" xmlns:xlink="http://www.w3.org/1999/xlink" class="railroad-diagram" width="2084" height="101" viewBox="0 0 2084 101">
<defs>
<style type="text/css"><![CDATA[
path {
stroke-width: 3;
stroke: black;
fill: rgba(0,0,0,0);
}
text {
font: bold 14px monospace;
text-anchor: middle;
}
text.diagram-text {
font-size: 12px;
}
a {
fill: blue;
}
text.diagram-arrow {
font-size: 16px;
}
text.label {
text-anchor: start;
}
text.comment {
font: italic 12px monospace;
}
rect {
stroke-width: 3;
stroke: black;
fill: #BCBCBC;
}
path.diagram-text {
stroke-width: 3;
stroke: black;
fill: #BCBCBC;
cursor: help;
}
]]></style>
</defs>
<g transform="translate(.5 .5)">
<path d="M 20 30 v 20 m 10 -20 v 20 m -10 -10 h 20.5"></path>
<path d="M40 40h10"></path>
<g>
<path d="M50 40h0"></path>
<path d="M2034 40h0"></path>
<g class="terminal">
<path d="M50 40h0"></path>
<path d="M214 40h0"></path>
<rect x="50" y="29" width="164" height="22" rx="10" ry="10"></rect>
<text x="132" y="44">"CALL TRANSACTION"</text>
</g>
<path d="M214 40h10"></path>
<path d="M224 40h10"></path>
<g class="non-terminal">
<path d="M234 40h0"></path>
<path d="M302 40h0"></path>
<rect x="234" y="29" width="68" height="22"></rect>
<a xlink:href="reuse_source.svg"><text x="268" y="44">Source</text>
</a>
</g>
<path d="M302 40h10"></path>
<g>
<path d="M312 40h0"></path>
<path d="M650 40h0"></path>
<path d="M312 40a10 10 0 0 0 10 -10v0a10 10 0 0 1 10 -10"></path>
<g>
<path d="M332 20h298"></path>
</g>
<path d="M630 20a10 10 0 0 1 10 10v0a10 10 0 0 0 10 10"></path>
<path d="M312 40h20"></path>
<g>
<path d="M332 40h0"></path>
<path d="M630 40h0"></path>
<g>
<path d="M332 40h0"></path>
<path d="M464 40h0"></path>
<path d="M332 40h20"></path>
<g class="terminal">
<path d="M352 40h0"></path>
<path d="M420 40h24"></path>
<rect x="352" y="29" width="68" height="22" rx="10" ry="10"></rect>
<text x="386" y="44">"WITH"</text>
</g>
<path d="M444 40h20"></path>
<path d="M332 40a10 10 0 0 1 10 10v10a10 10 0 0 0 10 10"></path>
<g class="terminal">
<path d="M352 70h0"></path>
<path d="M444 70h0"></path>
<rect x="352" y="59" width="92" height="22" rx="10" ry="10"></rect>
<text x="398" y="74">"WITHOUT"</text>
</g>
<path d="M444 70a10 10 0 0 0 10 -10v-10a10 10 0 0 1 10 -10"></path>
</g>
<path d="M464 40h10"></path>
<g class="terminal">
<path d="M474 40h0"></path>
<path d="M630 40h0"></path>
<rect x="474" y="29" width="156" height="22" rx="10" ry="10"></rect>
<text x="552" y="44">"AUTHORITY-CHECK"</text>
</g>
</g>
<path d="M630 40h20"></path>
</g>
<g>
<path d="M650 40h0"></path>
<path d="M854 40h0"></path>
<path d="M650 40a10 10 0 0 0 10 -10v0a10 10 0 0 1 10 -10"></path>
<g>
<path d="M670 20h164"></path>
</g>
<path d="M834 20a10 10 0 0 1 10 10v0a10 10 0 0 0 10 10"></path>
<path d="M650 40h20"></path>
<g>
<path d="M670 40h0"></path>
<path d="M834 40h0"></path>
<g class="terminal">
<path d="M670 40h0"></path>
<path d="M746 40h0"></path>
<rect x="670" y="29" width="76" height="22" rx="10" ry="10"></rect>
<text x="708" y="44">"USING"</text>
</g>
<path d="M746 40h10"></path>
<path d="M756 40h10"></path>
<g class="non-terminal">
<path d="M766 40h0"></path>
<path d="M834 40h0"></path>
<rect x="766" y="29" width="68" height="22"></rect>
<a xlink:href="reuse_source.svg"><text x="800" y="44">Source</text>
</a>
</g>
</g>
<path d="M834 40h20"></path>
</g>
<g>
<path d="M854 40h0"></path>
<path d="M1050 40h0"></path>
<path d="M854 40a10 10 0 0 0 10 -10v0a10 10 0 0 1 10 -10"></path>
<g>
<path d="M874 20h156"></path>
</g>
<path d="M1030 20a10 10 0 0 1 10 10v0a10 10 0 0 0 10 10"></path>
<path d="M854 40h20"></path>
<g>
<path d="M874 40h0"></path>
<path d="M1030 40h0"></path>
<g class="terminal">
<path d="M874 40h0"></path>
<path d="M942 40h0"></path>
<rect x="874" y="29" width="68" height="22" rx="10" ry="10"></rect>
<text x="908" y="44">"MODE"</text>
</g>
<path d="M942 40h10"></path>
<path d="M952 40h10"></path>
<g class="non-terminal">
<path d="M962 40h0"></path>
<path d="M1030 40h0"></path>
<rect x="962" y="29" width="68" height="22"></rect>
<a xlink:href="reuse_source.svg"><text x="996" y="44">Source</text>
</a>
</g>
</g>
<path d="M1030 40h20"></path>
</g>
<g>
<path d="M1050 40h0"></path>
<path d="M1262 40h0"></path>
<path d="M1050 40a10 10 0 0 0 10 -10v0a10 10 0 0 1 10 -10"></path>
<g>
<path d="M1070 20h172"></path>
</g>
<path d="M1242 20a10 10 0 0 1 10 10v0a10 10 0 0 0 10 10"></path>
<path d="M1050 40h20"></path>
<g>
<path d="M1070 40h0"></path>
<path d="M1242 40h0"></path>
<g class="terminal">
<path d="M1070 40h0"></path>
<path d="M1154 40h0"></path>
<rect x="1070" y="29" width="84" height="22" rx="10" ry="10"></rect>
<text x="1112" y="44">"UPDATE"</text>
</g>
<path d="M1154 40h10"></path>
<path d="M1164 40h10"></path>
<g class="non-terminal">
<path d="M1174 40h0"></path>
<path d="M1242 40h0"></path>
<rect x="1174" y="29" width="68" height="22"></rect>
<a xlink:href="reuse_source.svg"><text x="1208" y="44">Source</text>
</a>
</g>
</g>
<path d="M1242 40h20"></path>
</g>
<g>
<path d="M1262 40h0"></path>
<path d="M1506 40h0"></path>
<path d="M1262 40a10 10 0 0 0 10 -10v0a10 10 0 0 1 10 -10"></path>
<g>
<path d="M1282 20h204"></path>
</g>
<path d="M1486 20a10 10 0 0 1 10 10v0a10 10 0 0 0 10 10"></path>
<path d="M1262 40h20"></path>
<g class="terminal">
<path d="M1282 40h0"></path>
<path d="M1486 40h0"></path>
<rect x="1282" y="29" width="204" height="22" rx="10" ry="10"></rect>
<text x="1384" y="44">"AND SKIP FIRST SCREEN"</text>
</g>
<path d="M1486 40h20"></path>
</g>
<g>
<path d="M1506 40h0"></path>
<path d="M1766 40h0"></path>
<path d="M1506 40a10 10 0 0 0 10 -10v0a10 10 0 0 1 10 -10"></path>
<g>
<path d="M1526 20h220"></path>
</g>
<path d="M1746 20a10 10 0 0 1 10 10v0a10 10 0 0 0 10 10"></path>
<path d="M1506 40h20"></path>
<g>
<path d="M1526 40h0"></path>
<path d="M1746 40h0"></path>
<g class="terminal">
<path d="M1526 40h0"></path>
<path d="M1658 40h0"></path>
<rect x="1526" y="29" width="132" height="22" rx="10" ry="10"></rect>
<text x="1592" y="44">"OPTIONS FROM"</text>
</g>
<path d="M1658 40h10"></path>
<path d="M1668 40h10"></path>
<g class="non-terminal">
<path d="M1678 40h0"></path>
<path d="M1746 40h0"></path>
<rect x="1678" y="29" width="68" height="22"></rect>
<a xlink:href="reuse_source.svg"><text x="1712" y="44">Source</text>
</a>
</g>
</g>
<path d="M1746 40h20"></path>
</g>
<g>
<path d="M1766 40h0"></path>
<path d="M2034 40h0"></path>
<path d="M1766 40a10 10 0 0 0 10 -10v0a10 10 0 0 1 10 -10"></path>
<g>
<path d="M1786 20h228"></path>
</g>
<path d="M2014 20a10 10 0 0 1 10 10v0a10 10 0 0 0 10 10"></path>
<path d="M1766 40h20"></path>
<g>
<path d="M1786 40h0"></path>
<path d="M2014 40h0"></path>
<g class="terminal">
<path d="M1786 40h0"></path>
<path d="M1926 40h0"></path>
<rect x="1786" y="29" width="140" height="22" rx="10" ry="10"></rect>
<text x="1856" y="44">"MESSAGES INTO"</text>
</g>
<path d="M1926 40h10"></path>
<path d="M1936 40h10"></path>
<g class="non-terminal">
<path d="M1946 40h0"></path>
<path d="M2014 40h0"></path>
<rect x="1946" y="29" width="68" height="22"></rect>
<a xlink:href="reuse_target.svg"><text x="1980" y="44">Target</text>
</a>
</g>
</g>
<path d="M2014 40h20"></path>
</g>
</g>
<path d="M2034 40h10"></path>
<path d="M 2044 40 h 20 m -10 -10 v 20 m 10 -20 v 20"></path>
</g>
</svg>
