<?xml version="1.0" encoding="UTF-8" standalone="no"?>
<!DOCTYPE svg PUBLIC "-//W3C//DTD SVG 1.1//EN"
 "http://www.w3.org/Graphics/SVG/1.1/DTD/svg11.dtd">
<!-- Generated by graphviz version 2.38.0 (20140413.2041)
 -->
<!-- Title: calltransformation Pages: 1 -->
<svg width="279pt" height="1124pt"
 viewBox="0.00 0.00 279.16 1124.00" xmlns="http://www.w3.org/2000/svg" xmlns:xlink="http://www.w3.org/1999/xlink">
<g id="graph0" class="graph" transform="scale(1 1) rotate(0) translate(4 1120)">
<title>calltransformation</title>
<polygon fill="white" stroke="none" points="-4,4 -4,-1120 275.164,-1120 275.164,4 -4,4"/>
<!-- start -->
<g id="node1" class="node"><title>start</title>
<polygon fill="none" stroke="black" points="162.582,-1116 108.582,-1116 108.582,-1080 162.582,-1080 162.582,-1116"/>
<text text-anchor="middle" x="135.582" y="-1093.8" font-family="Times,serif" font-size="14.00">Start</text>
</g>
<!-- node585 -->
<g id="node26" class="node"><title>node585</title>
<ellipse fill="none" stroke="black" cx="135.582" cy="-1026" rx="135.664" ry="18"/>
<text text-anchor="middle" x="135.582" y="-1021.8" font-family="Times,serif" font-size="14.00">&quot;CALL TRANSFORMATION&quot;</text>
</g>
<!-- start&#45;&gt;node585 -->
<g id="edge30" class="edge"><title>start&#45;&gt;node585</title>
<path fill="none" stroke="black" d="M135.582,-1079.7C135.582,-1071.98 135.582,-1062.71 135.582,-1054.11"/>
<polygon fill="black" stroke="black" points="139.082,-1054.1 135.582,-1044.1 132.082,-1054.1 139.082,-1054.1"/>
</g>
<!-- end -->
<g id="node2" class="node"><title>end</title>
<polygon fill="none" stroke="black" points="151.582,-36 97.5821,-36 97.5821,-0 151.582,-0 151.582,-36"/>
<text text-anchor="middle" x="124.582" y="-13.8" font-family="Times,serif" font-size="14.00">End</text>
</g>
<!-- node562 -->
<g id="node3" class="node"><title>node562</title>
<g id="a_node3"><a xlink:href="reuse_field.svg" xlink:title="&lt;u&gt;field&lt;/u&gt;">
<ellipse fill="none" stroke="black" cx="42.5821" cy="-90" rx="28.9696" ry="18"/>
<text text-anchor="start" x="29.7539" y="-86.8" font-family="Times,serif" text-decoration="underline" font-size="14.00" fill="blue">field</text>
</a>
</g>
</g>
<!-- node562&#45;&gt;end -->
<g id="edge1" class="edge"><title>node562&#45;&gt;end</title>
<path fill="none" stroke="black" d="M59.176,-74.8345C69.925,-65.6585 84.1927,-53.4787 96.6589,-42.8369"/>
<polygon fill="black" stroke="black" points="99.2025,-45.2674 104.536,-36.1127 94.6577,-39.9434 99.2025,-45.2674"/>
</g>
<!-- node563 -->
<g id="node4" class="node"><title>node563</title>
<ellipse fill="none" stroke="black" cx="39.5821" cy="-162" rx="27" ry="18"/>
<text text-anchor="middle" x="39.5821" y="-157.8" font-family="Times,serif" font-size="14.00">&quot;=&quot;</text>
</g>
<!-- node563&#45;&gt;node562 -->
<g id="edge2" class="edge"><title>node563&#45;&gt;node562</title>
<path fill="none" stroke="black" d="M40.3237,-143.697C40.6543,-135.983 41.0516,-126.712 41.4202,-118.112"/>
<polygon fill="black" stroke="black" points="44.9176,-118.245 41.8491,-108.104 37.924,-117.945 44.9176,-118.245"/>
</g>
<!-- node564 -->
<g id="node5" class="node"><title>node564</title>
<g id="a_node5"><a xlink:href="reuse_field.svg" xlink:title="&lt;u&gt;field&lt;/u&gt;">
<ellipse fill="none" stroke="black" cx="53.5821" cy="-234" rx="28.9696" ry="18"/>
<text text-anchor="start" x="40.7539" y="-230.8" font-family="Times,serif" text-decoration="underline" font-size="14.00" fill="blue">field</text>
</a>
</g>
</g>
<!-- node564&#45;&gt;node563 -->
<g id="edge3" class="edge"><title>node564&#45;&gt;node563</title>
<path fill="none" stroke="black" d="M50.1931,-216.055C48.6512,-208.346 46.7875,-199.027 45.055,-190.364"/>
<polygon fill="black" stroke="black" points="48.4305,-189.395 43.0372,-180.275 41.5664,-190.768 48.4305,-189.395"/>
</g>
<!-- node565 -->
<g id="node6" class="node"><title>node565</title>
<g id="a_node6"><a xlink:href="reuse_target.svg" xlink:title="&lt;u&gt;target&lt;/u&gt;">
<ellipse fill="none" stroke="black" cx="124.582" cy="-90" rx="33.0411" ry="18"/>
<text text-anchor="start" x="108.647" y="-86.8" font-family="Times,serif" text-decoration="underline" font-size="14.00" fill="blue">target</text>
</a>
</g>
</g>
<!-- node565&#45;&gt;end -->
<g id="edge4" class="edge"><title>node565&#45;&gt;end</title>
<path fill="none" stroke="black" d="M124.582,-71.6966C124.582,-63.9827 124.582,-54.7125 124.582,-46.1124"/>
<polygon fill="black" stroke="black" points="128.082,-46.1043 124.582,-36.1043 121.082,-46.1044 128.082,-46.1043"/>
</g>
<!-- node566 -->
<g id="node7" class="node"><title>node566</title>
<ellipse fill="none" stroke="black" cx="124.582" cy="-162" rx="40.2394" ry="18"/>
<text text-anchor="middle" x="124.582" y="-157.8" font-family="Times,serif" font-size="14.00">&quot;XML&quot;</text>
</g>
<!-- node566&#45;&gt;node565 -->
<g id="edge5" class="edge"><title>node566&#45;&gt;node565</title>
<path fill="none" stroke="black" d="M124.582,-143.697C124.582,-135.983 124.582,-126.712 124.582,-118.112"/>
<polygon fill="black" stroke="black" points="128.082,-118.104 124.582,-108.104 121.082,-118.104 128.082,-118.104"/>
</g>
<!-- node567 -->
<g id="node8" class="node"><title>node567</title>
<ellipse fill="none" stroke="black" cx="206.582" cy="-90" rx="27" ry="18"/>
<text text-anchor="middle" x="206.582" y="-85.8" font-family="Times,serif" font-size="14.00">&quot;)&quot;</text>
</g>
<!-- node567&#45;&gt;end -->
<g id="edge6" class="edge"><title>node567&#45;&gt;end</title>
<path fill="none" stroke="black" d="M190.382,-75.1703C179.482,-65.8654 164.836,-53.363 152.129,-42.5157"/>
<polygon fill="black" stroke="black" points="154.397,-39.8497 144.519,-36.019 149.852,-45.1737 154.397,-39.8497"/>
</g>
<!-- node568 -->
<g id="node9" class="node"><title>node568</title>
<g id="a_node9"><a xlink:href="reuse_field.svg" xlink:title="&lt;u&gt;field&lt;/u&gt;">
<ellipse fill="none" stroke="black" cx="211.582" cy="-162" rx="28.9696" ry="18"/>
<text text-anchor="start" x="198.754" y="-158.8" font-family="Times,serif" text-decoration="underline" font-size="14.00" fill="blue">field</text>
</a>
</g>
</g>
<!-- node568&#45;&gt;node567 -->
<g id="edge7" class="edge"><title>node568&#45;&gt;node567</title>
<path fill="none" stroke="black" d="M210.346,-143.697C209.795,-135.983 209.133,-126.712 208.519,-118.112"/>
<polygon fill="black" stroke="black" points="212.008,-117.83 207.804,-108.104 205.025,-118.328 212.008,-117.83"/>
</g>
<!-- node569 -->
<g id="node10" class="node"><title>node569</title>
<ellipse fill="none" stroke="black" cx="195.582" cy="-234" rx="27" ry="18"/>
<text text-anchor="middle" x="195.582" y="-229.8" font-family="Times,serif" font-size="14.00">&quot;(&quot;</text>
</g>
<!-- node569&#45;&gt;node568 -->
<g id="edge8" class="edge"><title>node569&#45;&gt;node568</title>
<path fill="none" stroke="black" d="M199.455,-216.055C201.237,-208.261 203.394,-198.822 205.393,-190.079"/>
<polygon fill="black" stroke="black" points="208.817,-190.804 207.633,-180.275 201.993,-189.244 208.817,-190.804"/>
</g>
<!-- node570 -->
<g id="node11" class="node"><title>node570</title>
<ellipse fill="none" stroke="black" cx="124.582" cy="-306" rx="55.2858" ry="18"/>
<text text-anchor="middle" x="124.582" y="-301.8" font-family="Times,serif" font-size="14.00">&quot;RESULT&quot;</text>
</g>
<!-- node570&#45;&gt;node564 -->
<g id="edge9" class="edge"><title>node570&#45;&gt;node564</title>
<path fill="none" stroke="black" d="M108.115,-288.765C98.4893,-279.275 86.2134,-267.172 75.7469,-256.853"/>
<polygon fill="black" stroke="black" points="78.0877,-254.245 68.5093,-249.717 73.1731,-259.23 78.0877,-254.245"/>
</g>
<!-- node570&#45;&gt;node566 -->
<g id="edge10" class="edge"><title>node570&#45;&gt;node566</title>
<path fill="none" stroke="black" d="M124.582,-287.871C124.582,-263.67 124.582,-219.211 124.582,-190.393"/>
<polygon fill="black" stroke="black" points="128.082,-190.189 124.582,-180.189 121.082,-190.189 128.082,-190.189"/>
</g>
<!-- node570&#45;&gt;node569 -->
<g id="edge11" class="edge"><title>node570&#45;&gt;node569</title>
<path fill="none" stroke="black" d="M141.049,-288.765C150.807,-279.145 163.288,-266.84 173.846,-256.43"/>
<polygon fill="black" stroke="black" points="176.465,-258.763 181.129,-249.25 171.55,-253.778 176.465,-258.763"/>
</g>
<!-- node571 -->
<g id="node12" class="node"><title>node571</title>
<g id="a_node12"><a xlink:href="reuse_field.svg" xlink:title="&lt;u&gt;field&lt;/u&gt;">
<ellipse fill="none" stroke="black" cx="40.5821" cy="-378" rx="28.9696" ry="18"/>
<text text-anchor="start" x="27.7539" y="-374.8" font-family="Times,serif" text-decoration="underline" font-size="14.00" fill="blue">field</text>
</a>
</g>
</g>
<!-- node571&#45;&gt;node570 -->
<g id="edge12" class="edge"><title>node571&#45;&gt;node570</title>
<path fill="none" stroke="black" d="M57.1778,-363.17C68.6604,-353.601 84.2008,-340.651 97.4661,-329.597"/>
<polygon fill="black" stroke="black" points="99.9334,-332.097 105.375,-323.006 95.4521,-326.719 99.9334,-332.097"/>
</g>
<!-- node572 -->
<g id="node13" class="node"><title>node572</title>
<ellipse fill="none" stroke="black" cx="39.5821" cy="-450" rx="27" ry="18"/>
<text text-anchor="middle" x="39.5821" y="-445.8" font-family="Times,serif" font-size="14.00">&quot;=&quot;</text>
</g>
<!-- node572&#45;&gt;node571 -->
<g id="edge13" class="edge"><title>node572&#45;&gt;node571</title>
<path fill="none" stroke="black" d="M39.8293,-431.697C39.9395,-423.983 40.0719,-414.712 40.1948,-406.112"/>
<polygon fill="black" stroke="black" points="43.6945,-406.153 40.3378,-396.104 36.6952,-406.053 43.6945,-406.153"/>
</g>
<!-- node573 -->
<g id="node14" class="node"><title>node573</title>
<g id="a_node14"><a xlink:href="reuse_field.svg" xlink:title="&lt;u&gt;field&lt;/u&gt;">
<ellipse fill="none" stroke="black" cx="53.5821" cy="-522" rx="28.9696" ry="18"/>
<text text-anchor="start" x="40.7539" y="-518.8" font-family="Times,serif" text-decoration="underline" font-size="14.00" fill="blue">field</text>
</a>
</g>
</g>
<!-- node573&#45;&gt;node572 -->
<g id="edge14" class="edge"><title>node573&#45;&gt;node572</title>
<path fill="none" stroke="black" d="M50.1931,-504.055C48.6512,-496.346 46.7875,-487.027 45.055,-478.364"/>
<polygon fill="black" stroke="black" points="48.4305,-477.395 43.0372,-468.275 41.5664,-478.768 48.4305,-477.395"/>
</g>
<!-- node574 -->
<g id="node15" class="node"><title>node574</title>
<g id="a_node15"><a xlink:href="reuse_source.svg" xlink:title="&lt;u&gt;source&lt;/u&gt;">
<ellipse fill="none" stroke="black" cx="124.582" cy="-378" rx="36.4761" ry="18"/>
<text text-anchor="start" x="106.315" y="-374.8" font-family="Times,serif" text-decoration="underline" font-size="14.00" fill="blue">source</text>
</a>
</g>
</g>
<!-- node574&#45;&gt;node570 -->
<g id="edge15" class="edge"><title>node574&#45;&gt;node570</title>
<path fill="none" stroke="black" d="M124.582,-359.697C124.582,-351.983 124.582,-342.712 124.582,-334.112"/>
<polygon fill="black" stroke="black" points="128.082,-334.104 124.582,-324.104 121.082,-334.104 128.082,-334.104"/>
</g>
<!-- node575 -->
<g id="node16" class="node"><title>node575</title>
<ellipse fill="none" stroke="black" cx="124.582" cy="-450" rx="40.2394" ry="18"/>
<text text-anchor="middle" x="124.582" y="-445.8" font-family="Times,serif" font-size="14.00">&quot;XML&quot;</text>
</g>
<!-- node575&#45;&gt;node574 -->
<g id="edge16" class="edge"><title>node575&#45;&gt;node574</title>
<path fill="none" stroke="black" d="M124.582,-431.697C124.582,-423.983 124.582,-414.712 124.582,-406.112"/>
<polygon fill="black" stroke="black" points="128.082,-406.104 124.582,-396.104 121.082,-406.104 128.082,-406.104"/>
</g>
<!-- node576 -->
<g id="node17" class="node"><title>node576</title>
<ellipse fill="none" stroke="black" cx="208.582" cy="-378" rx="27" ry="18"/>
<text text-anchor="middle" x="208.582" y="-373.8" font-family="Times,serif" font-size="14.00">&quot;)&quot;</text>
</g>
<!-- node576&#45;&gt;node570 -->
<g id="edge17" class="edge"><title>node576&#45;&gt;node570</title>
<path fill="none" stroke="black" d="M192.386,-363.503C180.858,-353.896 165.095,-340.76 151.668,-329.572"/>
<polygon fill="black" stroke="black" points="153.592,-326.619 143.669,-322.906 149.111,-331.997 153.592,-326.619"/>
</g>
<!-- node577 -->
<g id="node18" class="node"><title>node577</title>
<g id="a_node18"><a xlink:href="reuse_field.svg" xlink:title="&lt;u&gt;field&lt;/u&gt;">
<ellipse fill="none" stroke="black" cx="211.582" cy="-450" rx="28.9696" ry="18"/>
<text text-anchor="start" x="198.754" y="-446.8" font-family="Times,serif" text-decoration="underline" font-size="14.00" fill="blue">field</text>
</a>
</g>
</g>
<!-- node577&#45;&gt;node576 -->
<g id="edge18" class="edge"><title>node577&#45;&gt;node576</title>
<path fill="none" stroke="black" d="M210.841,-431.697C210.51,-423.983 210.113,-414.712 209.744,-406.112"/>
<polygon fill="black" stroke="black" points="213.24,-405.945 209.315,-396.104 206.247,-406.245 213.24,-405.945"/>
</g>
<!-- node578 -->
<g id="node19" class="node"><title>node578</title>
<ellipse fill="none" stroke="black" cx="195.582" cy="-522" rx="27" ry="18"/>
<text text-anchor="middle" x="195.582" y="-517.8" font-family="Times,serif" font-size="14.00">&quot;(&quot;</text>
</g>
<!-- node578&#45;&gt;node577 -->
<g id="edge19" class="edge"><title>node578&#45;&gt;node577</title>
<path fill="none" stroke="black" d="M199.455,-504.055C201.237,-496.261 203.394,-486.822 205.393,-478.079"/>
<polygon fill="black" stroke="black" points="208.817,-478.804 207.633,-468.275 201.993,-477.244 208.817,-478.804"/>
</g>
<!-- node579 -->
<g id="node20" class="node"><title>node579</title>
<ellipse fill="none" stroke="black" cx="124.582" cy="-594" rx="57.011" ry="18"/>
<text text-anchor="middle" x="124.582" y="-589.8" font-family="Times,serif" font-size="14.00">&quot;SOURCE&quot;</text>
</g>
<!-- node579&#45;&gt;node573 -->
<g id="edge20" class="edge"><title>node579&#45;&gt;node573</title>
<path fill="none" stroke="black" d="M108.115,-576.765C98.4893,-567.275 86.2134,-555.172 75.7469,-544.853"/>
<polygon fill="black" stroke="black" points="78.0877,-542.245 68.5093,-537.717 73.1731,-547.23 78.0877,-542.245"/>
</g>
<!-- node579&#45;&gt;node575 -->
<g id="edge21" class="edge"><title>node579&#45;&gt;node575</title>
<path fill="none" stroke="black" d="M124.582,-575.871C124.582,-551.67 124.582,-507.211 124.582,-478.393"/>
<polygon fill="black" stroke="black" points="128.082,-478.189 124.582,-468.189 121.082,-478.189 128.082,-478.189"/>
</g>
<!-- node579&#45;&gt;node578 -->
<g id="edge22" class="edge"><title>node579&#45;&gt;node578</title>
<path fill="none" stroke="black" d="M141.049,-576.765C150.807,-567.145 163.288,-554.84 173.846,-544.43"/>
<polygon fill="black" stroke="black" points="176.465,-546.763 181.129,-537.25 171.55,-541.778 176.465,-546.763"/>
</g>
<!-- node580 -->
<g id="node21" class="node"><title>node580</title>
<g id="a_node21"><a xlink:href="reuse_source.svg" xlink:title="&lt;u&gt;source&lt;/u&gt;">
<ellipse fill="none" stroke="black" cx="158.582" cy="-666" rx="36.4761" ry="18"/>
<text text-anchor="start" x="140.315" y="-662.8" font-family="Times,serif" text-decoration="underline" font-size="14.00" fill="blue">source</text>
</a>
</g>
</g>
<!-- node580&#45;&gt;node579 -->
<g id="edge23" class="edge"><title>node580&#45;&gt;node579</title>
<path fill="none" stroke="black" d="M150.525,-648.411C146.56,-640.249 141.689,-630.22 137.242,-621.065"/>
<polygon fill="black" stroke="black" points="140.335,-619.422 132.818,-611.956 134.039,-622.48 140.335,-619.422"/>
</g>
<!-- node581 -->
<g id="node22" class="node"><title>node581</title>
<ellipse fill="none" stroke="black" cx="164.582" cy="-738" rx="27" ry="18"/>
<text text-anchor="middle" x="164.582" y="-733.8" font-family="Times,serif" font-size="14.00">&quot;=&quot;</text>
</g>
<!-- node581&#45;&gt;node580 -->
<g id="edge24" class="edge"><title>node581&#45;&gt;node580</title>
<path fill="none" stroke="black" d="M163.099,-719.697C162.438,-711.983 161.643,-702.712 160.906,-694.112"/>
<polygon fill="black" stroke="black" points="164.39,-693.769 160.048,-684.104 157.415,-694.367 164.39,-693.769"/>
</g>
<!-- node582 -->
<g id="node23" class="node"><title>node582</title>
<g id="a_node23"><a xlink:href="reuse_field.svg" xlink:title="&lt;u&gt;field&lt;/u&gt;">
<ellipse fill="none" stroke="black" cx="176.582" cy="-810" rx="28.9696" ry="18"/>
<text text-anchor="start" x="163.754" y="-806.8" font-family="Times,serif" text-decoration="underline" font-size="14.00" fill="blue">field</text>
</a>
</g>
</g>
<!-- node582&#45;&gt;node581 -->
<g id="edge25" class="edge"><title>node582&#45;&gt;node581</title>
<path fill="none" stroke="black" d="M173.677,-792.055C172.356,-784.346 170.758,-775.027 169.273,-766.364"/>
<polygon fill="black" stroke="black" points="172.683,-765.54 167.544,-756.275 165.784,-766.723 172.683,-765.54"/>
</g>
<!-- node583 -->
<g id="node24" class="node"><title>node583</title>
<ellipse fill="none" stroke="black" cx="179.582" cy="-882" rx="59.8595" ry="18"/>
<text text-anchor="middle" x="179.582" y="-877.8" font-family="Times,serif" font-size="14.00">&quot;OPTIONS&quot;</text>
</g>
<!-- node583&#45;&gt;node582 -->
<g id="edge26" class="edge"><title>node583&#45;&gt;node582</title>
<path fill="none" stroke="black" d="M178.841,-863.697C178.51,-855.983 178.113,-846.712 177.744,-838.112"/>
<polygon fill="black" stroke="black" points="181.24,-837.945 177.315,-828.104 174.247,-838.245 181.24,-837.945"/>
</g>
<!-- node584 -->
<g id="node25" class="node"><title>node584</title>
<g id="a_node25"><a xlink:href="reuse_field.svg" xlink:title="&lt;u&gt;field&lt;/u&gt;">
<ellipse fill="none" stroke="black" cx="135.582" cy="-954" rx="28.9696" ry="18"/>
<text text-anchor="start" x="122.754" y="-950.8" font-family="Times,serif" text-decoration="underline" font-size="14.00" fill="blue">field</text>
</a>
</g>
</g>
<!-- node584&#45;&gt;node579 -->
<g id="edge28" class="edge"><title>node584&#45;&gt;node579</title>
<path fill="none" stroke="black" d="M126.691,-936.698C121.39,-926.417 114.877,-912.724 110.582,-900 97.6464,-861.677 91.5821,-851.447 91.5821,-811 91.5821,-811 91.5821,-811 91.5821,-737 91.5821,-695.974 104.812,-649.972 114.519,-621.743"/>
<polygon fill="black" stroke="black" points="117.863,-622.784 117.904,-612.189 111.265,-620.446 117.863,-622.784"/>
</g>
<!-- node584&#45;&gt;node583 -->
<g id="edge27" class="edge"><title>node584&#45;&gt;node583</title>
<path fill="none" stroke="black" d="M145.566,-937.116C150.87,-928.679 157.517,-918.104 163.524,-908.547"/>
<polygon fill="black" stroke="black" points="166.665,-910.126 169.024,-899.797 160.739,-906.401 166.665,-910.126"/>
</g>
<!-- node585&#45;&gt;node584 -->
<g id="edge29" class="edge"><title>node585&#45;&gt;node584</title>
<path fill="none" stroke="black" d="M135.582,-1007.7C135.582,-999.983 135.582,-990.712 135.582,-982.112"/>
<polygon fill="black" stroke="black" points="139.082,-982.104 135.582,-972.104 132.082,-982.104 139.082,-982.104"/>
</g>
</g>
</svg>
