<svg xmlns="http://www.w3.org/2000/svg" xmlns:xlink="http://www.w3.org/1999/xlink" class="railroad-diagram" width="1000" height="221" viewBox="0 0 1000 221">
<defs>
<style type="text/css"><![CDATA[
path {
stroke-width: 3;
stroke: black;
fill: rgba(0,0,0,0);
}
text {
font: bold 14px monospace;
text-anchor: middle;
}
text.diagram-text {
font-size: 12px;
}
a {
fill: blue;
}
text.diagram-arrow {
font-size: 16px;
}
text.label {
text-anchor: start;
}
text.comment {
font: italic 12px monospace;
}
rect {
stroke-width: 3;
stroke: black;
fill: #BCBCBC;
}
path.diagram-text {
stroke-width: 3;
stroke: black;
fill: #BCBCBC;
cursor: help;
}
]]></style>
</defs>
<g transform="translate(.5 .5)">
<path d="M 20 30 v 20 m 10 -20 v 20 m -10 -10 h 20.5"></path>
<g>
<path d="M40 40h0"></path>
<path d="M960 40h0"></path>
<path d="M40 40h20"></path>
<g>
<path d="M60 40h0"></path>
<path d="M940 40h0"></path>
<g class="terminal">
<path d="M60 40h0"></path>
<path d="M184 40h0"></path>
<rect x="60" y="29" width="124" height="22" rx="10" ry="10"></rect>
<text x="122" y="44">"CALL METHOD"</text>
</g>
<path d="M184 40h10"></path>
<path d="M194 40h10"></path>
<g>
<path d="M204 40h0"></path>
<path d="M594 40h0"></path>
<g>
<path d="M204 40h0"></path>
<path d="M454 40h0"></path>
<path d="M204 40a10 10 0 0 0 10 -10v0a10 10 0 0 1 10 -10"></path>
<g>
<path d="M224 20h210"></path>
</g>
<path d="M434 20a10 10 0 0 1 10 10v0a10 10 0 0 0 10 10"></path>
<path d="M204 40h20"></path>
<g>
<path d="M224 40h0"></path>
<path d="M434 40h0"></path>
<g>
<path d="M224 40h0"></path>
<path d="M364 40h0"></path>
<path d="M224 40h20"></path>
<g class="non-terminal">
<path d="M244 40h0"></path>
<path d="M344 40h0"></path>
<rect x="244" y="29" width="100" height="22"></rect>
<a xlink:href="reuse_FieldChain.svg"><text x="294" y="44">FieldChain</text>
</a>
</g>
<path d="M344 40h20"></path>
<path d="M224 40a10 10 0 0 1 10 10v10a10 10 0 0 0 10 10"></path>
<g class="non-terminal">
<path d="M244 70h0"></path>
<path d="M320 70h24"></path>
<rect x="244" y="59" width="76" height="22"></rect>
<a xlink:href="reuse_Dynamic.svg"><text x="282" y="74">Dynamic</text>
</a>
</g>
<path d="M344 70a10 10 0 0 0 10 -10v-10a10 10 0 0 1 10 -10"></path>
</g>
<path d="M364 40h10"></path>
<g class="non-terminal">
<path d="M374 40h0"></path>
<path d="M434 40h0"></path>
<rect x="374" y="29" width="60" height="22"></rect>
<a xlink:href="reuse_Arrow.svg"><text x="404" y="44">Arrow</text>
</a>
</g>
</g>
<path d="M434 40h20"></path>
</g>
<g>
<path d="M454 40h0"></path>
<path d="M594 40h0"></path>
<path d="M454 40h20"></path>
<g class="non-terminal">
<path d="M474 40h0"></path>
<path d="M574 40h0"></path>
<rect x="474" y="29" width="100" height="22"></rect>
<a xlink:href="reuse_MethodName.svg"><text x="524" y="44">MethodName</text>
</a>
</g>
<path d="M574 40h20"></path>
<path d="M454 40a10 10 0 0 1 10 10v10a10 10 0 0 0 10 10"></path>
<g class="non-terminal">
<path d="M474 70h0"></path>
<path d="M550 70h24"></path>
<rect x="474" y="59" width="76" height="22"></rect>
<a xlink:href="reuse_Dynamic.svg"><text x="512" y="74">Dynamic</text>
</a>
</g>
<path d="M574 70a10 10 0 0 0 10 -10v-10a10 10 0 0 1 10 -10"></path>
</g>
</g>
<path d="M594 40h10"></path>
<g>
<path d="M604 40h0"></path>
<path d="M940 40h0"></path>
<path d="M604 40h20"></path>
<g>
<path d="M624 40h0"></path>
<path d="M920 40h0"></path>
<g class="terminal">
<path d="M624 40h0"></path>
<path d="M668 40h0"></path>
<rect x="624" y="29" width="44" height="22" rx="10" ry="10"></rect>
<text x="646" y="44">"("</text>
</g>
<path d="M668 40h10"></path>
<g>
<path d="M678 40h0"></path>
<path d="M866 40h0"></path>
<path d="M678 40h20"></path>
<g class="non-terminal">
<path d="M698 40h0"></path>
<path d="M766 40h80"></path>
<rect x="698" y="29" width="68" height="22"></rect>
<a xlink:href="reuse_Source.svg"><text x="732" y="44">Source</text>
</a>
</g>
<path d="M846 40h20"></path>
<path d="M678 40a10 10 0 0 1 10 10v10a10 10 0 0 0 10 10"></path>
<g class="non-terminal">
<path d="M698 70h0"></path>
<path d="M830 70h16"></path>
<rect x="698" y="59" width="132" height="22"></rect>
<a xlink:href="reuse_ParameterListS.svg"><text x="764" y="74">ParameterListS</text>
</a>
</g>
<path d="M846 70a10 10 0 0 0 10 -10v-10a10 10 0 0 1 10 -10"></path>
<path d="M678 40a10 10 0 0 1 10 10v40a10 10 0 0 0 10 10"></path>
<g class="non-terminal">
<path d="M698 100h0"></path>
<path d="M846 100h0"></path>
<rect x="698" y="89" width="148" height="22"></rect>
<a xlink:href="reuse_MethodParameters.svg"><text x="772" y="104">MethodParameters</text>
</a>
</g>
<path d="M846 100a10 10 0 0 0 10 -10v-40a10 10 0 0 1 10 -10"></path>
</g>
<path d="M866 40h10"></path>
<g class="terminal">
<path d="M876 40h0"></path>
<path d="M920 40h0"></path>
<rect x="876" y="29" width="44" height="22" rx="10" ry="10"></rect>
<text x="898" y="44">")"</text>
</g>
</g>
<path d="M920 40h20"></path>
<path d="M604 40a10 10 0 0 1 10 10v70a10 10 0 0 0 10 10"></path>
<g class="non-terminal">
<path d="M624 130h0"></path>
<path d="M772 130h148"></path>
<rect x="624" y="119" width="148" height="22"></rect>
<a xlink:href="reuse_MethodParameters.svg"><text x="698" y="134">MethodParameters</text>
</a>
</g>
<path d="M920 130a10 10 0 0 0 10 -10v-70a10 10 0 0 1 10 -10"></path>
<path d="M604 40a10 10 0 0 1 10 10v100a10 10 0 0 0 10 10"></path>
<g>
<path d="M624 160h0"></path>
<path d="M868 160h52"></path>
<g class="terminal">
<path d="M624 160h0"></path>
<path d="M780 160h0"></path>
<rect x="624" y="149" width="156" height="22" rx="10" ry="10"></rect>
<text x="702" y="164">"PARAMETER-TABLE"</text>
</g>
<path d="M780 160h10"></path>
<path d="M790 160h10"></path>
<g class="non-terminal">
<path d="M800 160h0"></path>
<path d="M868 160h0"></path>
<rect x="800" y="149" width="68" height="22"></rect>
<a xlink:href="reuse_Source.svg"><text x="834" y="164">Source</text>
</a>
</g>
</g>
<path d="M920 160a10 10 0 0 0 10 -10v-100a10 10 0 0 1 10 -10"></path>
</g>
</g>
<path d="M940 40h20"></path>
<path d="M40 40a10 10 0 0 1 10 10v130a10 10 0 0 0 10 10"></path>
<g class="non-terminal">
<path d="M60 190h0"></path>
<path d="M200 190h740"></path>
<rect x="60" y="179" width="140" height="22"></rect>
<a xlink:href="reuse_MethodCallChain.svg"><text x="130" y="194">MethodCallChain</text>
</a>
</g>
<path d="M940 190a10 10 0 0 0 10 -10v-130a10 10 0 0 1 10 -10"></path>
</g>
<path d="M 960 40 h 20 m -10 -10 v 20 m 10 -20 v 20"></path>
</g>
</svg>
