<svg xmlns="http://www.w3.org/2000/svg" xmlns:xlink="http://www.w3.org/1999/xlink" class="railroad-diagram" width="912" height="161" viewBox="0 0 912 161">
<defs>
<style type="text/css"><![CDATA[
path {
stroke-width: 3;
stroke: black;
fill: rgba(0,0,0,0);
}
text {
font: bold 14px monospace;
text-anchor: middle;
}
text.diagram-text {
font-size: 12px;
}
a {
fill: blue;
}
text.diagram-arrow {
font-size: 16px;
}
text.label {
text-anchor: start;
}
text.comment {
font: italic 12px monospace;
}
rect {
stroke-width: 3;
stroke: black;
fill: #BCBCBC;
}
path.diagram-text {
stroke-width: 3;
stroke: black;
fill: #BCBCBC;
cursor: help;
}
]]></style>
</defs>
<g transform="translate(.5 .5)">
<path d="M 20 30 v 20 m 10 -20 v 20 m -10 -10 h 20.5"></path>
<path d="M40 40h10"></path>
<g>
<path d="M50 40h0"></path>
<path d="M862 40h0"></path>
<g class="terminal">
<path d="M50 40h0"></path>
<path d="M190 40h0"></path>
<rect x="50" y="29" width="140" height="22" rx="10" ry="10"></rect>
<text x="120" y="44">"CALL FUNCTION"</text>
</g>
<path d="M190 40h10"></path>
<g>
<path d="M200 40h0"></path>
<path d="M324 40h0"></path>
<path d="M200 40h20"></path>
<g class="non-terminal">
<path d="M220 40h0"></path>
<path d="M304 40h0"></path>
<rect x="220" y="29" width="84" height="22"></rect>
<a xlink:href="reuse_constant.svg"><text x="262" y="44">constant</text>
</a>
</g>
<path d="M304 40h20"></path>
<path d="M200 40a10 10 0 0 1 10 10v10a10 10 0 0 0 10 10"></path>
<g class="non-terminal">
<path d="M220 70h12"></path>
<path d="M292 70h12"></path>
<rect x="232" y="59" width="60" height="22"></rect>
<a xlink:href="reuse_field.svg"><text x="262" y="74">field</text>
</a>
</g>
<path d="M304 70a10 10 0 0 0 10 -10v-10a10 10 0 0 1 10 -10"></path>
</g>
<g>
<path d="M324 40h0"></path>
<path d="M680 40h0"></path>
<path d="M324 40a10 10 0 0 0 10 -10v0a10 10 0 0 1 10 -10"></path>
<g>
<path d="M344 20h316"></path>
</g>
<path d="M660 20a10 10 0 0 1 10 10v0a10 10 0 0 0 10 10"></path>
<path d="M324 40h20"></path>
<g>
<path d="M344 40h0"></path>
<path d="M660 40h0"></path>
<path d="M344 40h20"></path>
<g>
<path d="M364 40h0"></path>
<path d="M640 40h0"></path>
<g class="terminal">
<path d="M364 40h0"></path>
<path d="M536 40h0"></path>
<rect x="364" y="29" width="172" height="22" rx="10" ry="10"></rect>
<text x="450" y="44">"STARTING NEW TASK"</text>
</g>
<path d="M536 40h10"></path>
<path d="M546 40h10"></path>
<g class="non-terminal">
<path d="M556 40h0"></path>
<path d="M640 40h0"></path>
<rect x="556" y="29" width="84" height="22"></rect>
<a xlink:href="reuse_constant.svg"><text x="598" y="44">constant</text>
</a>
</g>
</g>
<path d="M640 40h20"></path>
<path d="M344 40a10 10 0 0 1 10 10v10a10 10 0 0 0 10 10"></path>
<g class="terminal">
<path d="M364 70h64"></path>
<path d="M576 70h64"></path>
<rect x="428" y="59" width="148" height="22" rx="10" ry="10"></rect>
<text x="502" y="74">"IN UPDATE TASK"</text>
</g>
<path d="M640 70a10 10 0 0 0 10 -10v-10a10 10 0 0 1 10 -10"></path>
<path d="M344 40a10 10 0 0 1 10 10v40a10 10 0 0 0 10 10"></path>
<g class="terminal">
<path d="M364 100h48"></path>
<path d="M592 100h48"></path>
<rect x="412" y="89" width="180" height="22" rx="10" ry="10"></rect>
<text x="502" y="104">"IN BACKGROUND TASK"</text>
</g>
<path d="M640 100a10 10 0 0 0 10 -10v-40a10 10 0 0 1 10 -10"></path>
<path d="M344 40a10 10 0 0 1 10 10v70a10 10 0 0 0 10 10"></path>
<g>
<path d="M364 130h32"></path>
<path d="M608 130h32"></path>
<g class="terminal">
<path d="M396 130h0"></path>
<path d="M520 130h0"></path>
<rect x="396" y="119" width="124" height="22" rx="10" ry="10"></rect>
<text x="458" y="134">"DESTINATION"</text>
</g>
<path d="M520 130h10"></path>
<path d="M530 130h10"></path>
<g class="non-terminal">
<path d="M540 130h0"></path>
<path d="M608 130h0"></path>
<rect x="540" y="119" width="68" height="22"></rect>
<a xlink:href="reuse_source.svg"><text x="574" y="134">source</text>
</a>
</g>
</g>
<path d="M640 130a10 10 0 0 0 10 -10v-70a10 10 0 0 1 10 -10"></path>
</g>
<path d="M660 40h20"></path>
</g>
<path d="M680 40h10"></path>
<g class="non-terminal">
<path d="M690 40h0"></path>
<path d="M862 40h0"></path>
<rect x="690" y="29" width="172" height="22"></rect>
<a xlink:href="reuse_function_parameters.svg"><text x="776" y="44">function&#95;parameters</text>
</a>
</g>
</g>
<path d="M862 40h10"></path>
<path d="M 872 40 h 20 m -10 -10 v 20 m 10 -20 v 20"></path>
</g>
</svg>
