<svg xmlns="http://www.w3.org/2000/svg" xmlns:xlink="http://www.w3.org/1999/xlink" class="railroad-diagram" width="920" height="161" viewBox="0 0 920 161">
<defs>
<style type="text/css"><![CDATA[
path {
stroke-width: 3;
stroke: black;
fill: rgba(0,0,0,0);
}
text {
font: bold 14px monospace;
text-anchor: middle;
}
text.diagram-text {
font-size: 12px;
}
a {
fill: blue;
}
text.diagram-arrow {
font-size: 16px;
}
text.label {
text-anchor: start;
}
text.comment {
font: italic 12px monospace;
}
rect {
stroke-width: 3;
stroke: black;
fill: #BCBCBC;
}
path.diagram-text {
stroke-width: 3;
stroke: black;
fill: #BCBCBC;
cursor: help;
}
]]></style>
</defs>
<g transform="translate(.5 .5)">
<path d="M 20 30 v 20 m 10 -20 v 20 m -10 -10 h 20.5"></path>
<path d="M40 40h10"></path>
<g>
<path d="M50 40h0"></path>
<path d="M870 40h0"></path>
<g class="terminal">
<path d="M50 40h0"></path>
<path d="M190 40h0"></path>
<rect x="50" y="29" width="140" height="22" rx="10" ry="10"></rect>
<text x="120" y="44">"CALL FUNCTION"</text>
</g>
<path d="M190 40h10"></path>
<g>
<path d="M200 40h0"></path>
<path d="M340 40h0"></path>
<path d="M200 40h20"></path>
<g class="non-terminal">
<path d="M220 40h0"></path>
<path d="M304 40h16"></path>
<rect x="220" y="29" width="84" height="22"></rect>
<a xlink:href="reuse_constant.svg"><text x="262" y="44">Constant</text>
</a>
</g>
<path d="M320 40h20"></path>
<path d="M200 40a10 10 0 0 1 10 10v10a10 10 0 0 0 10 10"></path>
<g class="non-terminal">
<path d="M220 70h0"></path>
<path d="M320 70h0"></path>
<rect x="220" y="59" width="100" height="22"></rect>
<a xlink:href="reuse_fieldchain.svg"><text x="270" y="74">FieldChain</text>
</a>
</g>
<path d="M320 70a10 10 0 0 0 10 -10v-10a10 10 0 0 1 10 -10"></path>
</g>
<g>
<path d="M340 40h0"></path>
<path d="M696 40h0"></path>
<path d="M340 40a10 10 0 0 0 10 -10v0a10 10 0 0 1 10 -10"></path>
<g>
<path d="M360 20h316"></path>
</g>
<path d="M676 20a10 10 0 0 1 10 10v0a10 10 0 0 0 10 10"></path>
<path d="M340 40h20"></path>
<g>
<path d="M360 40h0"></path>
<path d="M676 40h0"></path>
<path d="M360 40h20"></path>
<g>
<path d="M380 40h0"></path>
<path d="M656 40h0"></path>
<g class="terminal">
<path d="M380 40h0"></path>
<path d="M552 40h0"></path>
<rect x="380" y="29" width="172" height="22" rx="10" ry="10"></rect>
<text x="466" y="44">"STARTING NEW TASK"</text>
</g>
<path d="M552 40h10"></path>
<path d="M562 40h10"></path>
<g class="non-terminal">
<path d="M572 40h0"></path>
<path d="M656 40h0"></path>
<rect x="572" y="29" width="84" height="22"></rect>
<a xlink:href="reuse_constant.svg"><text x="614" y="44">Constant</text>
</a>
</g>
</g>
<path d="M656 40h20"></path>
<path d="M360 40a10 10 0 0 1 10 10v10a10 10 0 0 0 10 10"></path>
<g class="terminal">
<path d="M380 70h0"></path>
<path d="M528 70h128"></path>
<rect x="380" y="59" width="148" height="22" rx="10" ry="10"></rect>
<text x="454" y="74">"IN UPDATE TASK"</text>
</g>
<path d="M656 70a10 10 0 0 0 10 -10v-10a10 10 0 0 1 10 -10"></path>
<path d="M360 40a10 10 0 0 1 10 10v40a10 10 0 0 0 10 10"></path>
<g class="terminal">
<path d="M380 100h0"></path>
<path d="M560 100h96"></path>
<rect x="380" y="89" width="180" height="22" rx="10" ry="10"></rect>
<text x="470" y="104">"IN BACKGROUND TASK"</text>
</g>
<path d="M656 100a10 10 0 0 0 10 -10v-40a10 10 0 0 1 10 -10"></path>
<path d="M360 40a10 10 0 0 1 10 10v70a10 10 0 0 0 10 10"></path>
<g>
<path d="M380 130h0"></path>
<path d="M592 130h64"></path>
<g class="terminal">
<path d="M380 130h0"></path>
<path d="M504 130h0"></path>
<rect x="380" y="119" width="124" height="22" rx="10" ry="10"></rect>
<text x="442" y="134">"DESTINATION"</text>
</g>
<path d="M504 130h10"></path>
<path d="M514 130h10"></path>
<g class="non-terminal">
<path d="M524 130h0"></path>
<path d="M592 130h0"></path>
<rect x="524" y="119" width="68" height="22"></rect>
<a xlink:href="reuse_source.svg"><text x="558" y="134">Source</text>
</a>
</g>
</g>
<path d="M656 130a10 10 0 0 0 10 -10v-70a10 10 0 0 1 10 -10"></path>
</g>
<path d="M676 40h20"></path>
</g>
<path d="M696 40h10"></path>
<g class="non-terminal">
<path d="M706 40h0"></path>
<path d="M870 40h0"></path>
<rect x="706" y="29" width="164" height="22"></rect>
<a xlink:href="reuse_functionparameters.svg"><text x="788" y="44">FunctionParameters</text>
</a>
</g>
</g>
<path d="M870 40h10"></path>
<path d="M 880 40 h 20 m -10 -10 v 20 m 10 -20 v 20"></path>
</g>
</svg>
