<svg xmlns="http://www.w3.org/2000/svg" xmlns:xlink="http://www.w3.org/1999/xlink" class="railroad-diagram" width="1024" height="221" viewBox="0 0 1024 221">
<defs>
<style type="text/css"><![CDATA[
path {
stroke-width: 3;
stroke: black;
fill: rgba(0,0,0,0);
}
text {
font: bold 14px monospace;
text-anchor: middle;
}
text.diagram-text {
font-size: 12px;
}
a {
fill: blue;
}
text.diagram-arrow {
font-size: 16px;
}
text.label {
text-anchor: start;
}
text.comment {
font: italic 12px monospace;
}
rect {
stroke-width: 3;
stroke: black;
fill: #BCBCBC;
}
path.diagram-text {
stroke-width: 3;
stroke: black;
fill: #BCBCBC;
cursor: help;
}
]]></style>
</defs>
<g transform="translate(.5 .5)">
<path d="M 20 30 v 20 m 10 -20 v 20 m -10 -10 h 20.5"></path>
<g>
<path d="M40 40h0"></path>
<path d="M984 40h0"></path>
<path d="M40 40h20"></path>
<g>
<path d="M60 40h0"></path>
<path d="M964 40h0"></path>
<g class="terminal">
<path d="M60 40h0"></path>
<path d="M184 40h0"></path>
<rect x="60" y="29" width="124" height="22" rx="10" ry="10"></rect>
<text x="122" y="44">"CALL METHOD"</text>
</g>
<path d="M184 40h10"></path>
<path d="M194 40h10"></path>
<g>
<path d="M204 40h0"></path>
<path d="M610 40h0"></path>
<g>
<path d="M204 40h0"></path>
<path d="M462 40h0"></path>
<path d="M204 40a10 10 0 0 0 10 -10v0a10 10 0 0 1 10 -10"></path>
<g>
<path d="M224 20h218"></path>
</g>
<path d="M442 20a10 10 0 0 1 10 10v0a10 10 0 0 0 10 10"></path>
<path d="M204 40h20"></path>
<g>
<path d="M224 40h0"></path>
<path d="M442 40h0"></path>
<g>
<path d="M224 40h0"></path>
<path d="M372 40h0"></path>
<path d="M224 40h20"></path>
<g class="non-terminal">
<path d="M244 40h0"></path>
<path d="M352 40h0"></path>
<rect x="244" y="29" width="108" height="22"></rect>
<a xlink:href="reuse_field_chain.svg"><text x="298" y="44">field&#95;chain</text>
</a>
</g>
<path d="M352 40h20"></path>
<path d="M224 40a10 10 0 0 1 10 10v10a10 10 0 0 0 10 10"></path>
<g class="non-terminal">
<path d="M244 70h0"></path>
<path d="M320 70h32"></path>
<rect x="244" y="59" width="76" height="22"></rect>
<a xlink:href="reuse_dynamic.svg"><text x="282" y="74">dynamic</text>
</a>
</g>
<path d="M352 70a10 10 0 0 0 10 -10v-10a10 10 0 0 1 10 -10"></path>
</g>
<path d="M372 40h10"></path>
<g class="non-terminal">
<path d="M382 40h0"></path>
<path d="M442 40h0"></path>
<rect x="382" y="29" width="60" height="22"></rect>
<a xlink:href="reuse_arrow.svg"><text x="412" y="44">arrow</text>
</a>
</g>
</g>
<path d="M442 40h20"></path>
</g>
<g>
<path d="M462 40h0"></path>
<path d="M610 40h0"></path>
<path d="M462 40h20"></path>
<g class="non-terminal">
<path d="M482 40h0"></path>
<path d="M590 40h0"></path>
<rect x="482" y="29" width="108" height="22"></rect>
<a xlink:href="reuse_method_name.svg"><text x="536" y="44">method&#95;name</text>
</a>
</g>
<path d="M590 40h20"></path>
<path d="M462 40a10 10 0 0 1 10 10v10a10 10 0 0 0 10 10"></path>
<g class="non-terminal">
<path d="M482 70h0"></path>
<path d="M558 70h32"></path>
<rect x="482" y="59" width="76" height="22"></rect>
<a xlink:href="reuse_dynamic.svg"><text x="520" y="74">dynamic</text>
</a>
</g>
<path d="M590 70a10 10 0 0 0 10 -10v-10a10 10 0 0 1 10 -10"></path>
</g>
</g>
<path d="M610 40h10"></path>
<g>
<path d="M620 40h0"></path>
<path d="M964 40h0"></path>
<path d="M620 40h20"></path>
<g>
<path d="M640 40h0"></path>
<path d="M944 40h0"></path>
<g class="terminal">
<path d="M640 40h0"></path>
<path d="M684 40h0"></path>
<rect x="640" y="29" width="44" height="22" rx="10" ry="10"></rect>
<text x="662" y="44">"("</text>
</g>
<path d="M684 40h10"></path>
<g>
<path d="M694 40h0"></path>
<path d="M890 40h0"></path>
<path d="M694 40h20"></path>
<g class="non-terminal">
<path d="M714 40h0"></path>
<path d="M782 40h88"></path>
<rect x="714" y="29" width="68" height="22"></rect>
<a xlink:href="reuse_source.svg"><text x="748" y="44">source</text>
</a>
</g>
<path d="M870 40h20"></path>
<path d="M694 40a10 10 0 0 1 10 10v10a10 10 0 0 0 10 10"></path>
<g class="non-terminal">
<path d="M714 70h0"></path>
<path d="M862 70h8"></path>
<rect x="714" y="59" width="148" height="22"></rect>
<a xlink:href="reuse_parameter_list_s.svg"><text x="788" y="74">parameter&#95;list&#95;s</text>
</a>
</g>
<path d="M870 70a10 10 0 0 0 10 -10v-10a10 10 0 0 1 10 -10"></path>
<path d="M694 40a10 10 0 0 1 10 10v40a10 10 0 0 0 10 10"></path>
<g class="non-terminal">
<path d="M714 100h0"></path>
<path d="M870 100h0"></path>
<rect x="714" y="89" width="156" height="22"></rect>
<a xlink:href="reuse_method_parameters.svg"><text x="792" y="104">method&#95;parameters</text>
</a>
</g>
<path d="M870 100a10 10 0 0 0 10 -10v-40a10 10 0 0 1 10 -10"></path>
</g>
<path d="M890 40h10"></path>
<g class="terminal">
<path d="M900 40h0"></path>
<path d="M944 40h0"></path>
<rect x="900" y="29" width="44" height="22" rx="10" ry="10"></rect>
<text x="922" y="44">")"</text>
</g>
</g>
<path d="M944 40h20"></path>
<path d="M620 40a10 10 0 0 1 10 10v70a10 10 0 0 0 10 10"></path>
<g class="non-terminal">
<path d="M640 130h0"></path>
<path d="M796 130h148"></path>
<rect x="640" y="119" width="156" height="22"></rect>
<a xlink:href="reuse_method_parameters.svg"><text x="718" y="134">method&#95;parameters</text>
</a>
</g>
<path d="M944 130a10 10 0 0 0 10 -10v-70a10 10 0 0 1 10 -10"></path>
<path d="M620 40a10 10 0 0 1 10 10v100a10 10 0 0 0 10 10"></path>
<g>
<path d="M640 160h0"></path>
<path d="M884 160h60"></path>
<g class="terminal">
<path d="M640 160h0"></path>
<path d="M796 160h0"></path>
<rect x="640" y="149" width="156" height="22" rx="10" ry="10"></rect>
<text x="718" y="164">"PARAMETER-TABLE"</text>
</g>
<path d="M796 160h10"></path>
<path d="M806 160h10"></path>
<g class="non-terminal">
<path d="M816 160h0"></path>
<path d="M884 160h0"></path>
<rect x="816" y="149" width="68" height="22"></rect>
<a xlink:href="reuse_source.svg"><text x="850" y="164">source</text>
</a>
</g>
</g>
<path d="M944 160a10 10 0 0 0 10 -10v-100a10 10 0 0 1 10 -10"></path>
</g>
</g>
<path d="M964 40h20"></path>
<path d="M40 40a10 10 0 0 1 10 10v130a10 10 0 0 0 10 10"></path>
<g class="non-terminal">
<path d="M60 190h0"></path>
<path d="M216 190h748"></path>
<rect x="60" y="179" width="156" height="22"></rect>
<a xlink:href="reuse_method_call_chain.svg"><text x="138" y="194">method&#95;call&#95;chain</text>
</a>
</g>
<path d="M964 190a10 10 0 0 0 10 -10v-130a10 10 0 0 1 10 -10"></path>
</g>
<path d="M 984 40 h 20 m -10 -10 v 20 m 10 -20 v 20"></path>
</g>
</svg>
