<svg xmlns="http://www.w3.org/2000/svg" xmlns:xlink="http://www.w3.org/1999/xlink" class="railroad-diagram" width="874" height="302" viewBox="0 0 874 302">
<defs>
<style type="text/css"><![CDATA[
path {
stroke-width: 3;
stroke: black;
fill: rgba(0,0,0,0);
}
text {
font: bold 14px monospace;
text-anchor: middle;
}
text.diagram-text {
font-size: 12px;
}
a {
fill: blue;
}
text.diagram-arrow {
font-size: 16px;
}
text.label {
text-anchor: start;
}
text.comment {
font: italic 12px monospace;
}
rect {
stroke-width: 3;
stroke: black;
fill: #BCBCBC;
}
path.diagram-text {
stroke-width: 3;
stroke: black;
fill: #BCBCBC;
cursor: help;
}
]]></style>
</defs>
<g transform="translate(.5 .5)">
<path d="M 20 21 v 20 m 10 -20 v 20 m -10 -10 h 20.5"></path>
<path d="M40 31h10"></path>
<g>
<path d="M50 31h0"></path>
<path d="M824 31h0"></path>
<g class="terminal">
<path d="M50 31h0"></path>
<path d="M238 31h0"></path>
<rect x="50" y="20" width="188" height="22" rx="10" ry="10"></rect>
<text x="144" y="35">"CALL TRANSFORMATION"</text>
</g>
<path d="M238 31h10"></path>
<path d="M248 31h10"></path>
<g class="non-terminal">
<path d="M258 31h0"></path>
<path d="M318 31h0"></path>
<rect x="258" y="20" width="60" height="22"></rect>
<a xlink:href="reuse_field.svg"><text x="288" y="35">Field</text>
</a>
</g>
<path d="M318 31h10"></path>
<path d="M328 31h10"></path>
<g>
<path d="M338 31h0"></path>
<path d="M824 31h0"></path>
<path d="M368 31h10"></path>
<g>
<path d="M378 31h0"></path>
<path d="M702 31h92"></path>
<g class="terminal">
<path d="M378 31h0"></path>
<path d="M470 31h0"></path>
<rect x="378" y="20" width="92" height="22" rx="10" ry="10"></rect>
<text x="424" y="35">"OPTIONS"</text>
</g>
<path d="M470 31h10"></path>
<path d="M480 31h10"></path>
<g class="non-terminal">
<path d="M490 31h0"></path>
<path d="M550 31h0"></path>
<rect x="490" y="20" width="60" height="22"></rect>
<a xlink:href="reuse_field.svg"><text x="520" y="35">Field</text>
</a>
</g>
<path d="M550 31h10"></path>
<path d="M560 31h10"></path>
<g class="terminal">
<path d="M570 31h0"></path>
<path d="M614 31h0"></path>
<rect x="570" y="20" width="44" height="22" rx="10" ry="10"></rect>
<text x="592" y="35">"="</text>
</g>
<path d="M614 31h10"></path>
<path d="M624 31h10"></path>
<g class="non-terminal">
<path d="M634 31h0"></path>
<path d="M702 31h0"></path>
<rect x="634" y="20" width="68" height="22"></rect>
<a xlink:href="reuse_source.svg"><text x="668" y="35">Source</text>
</a>
</g>
</g>
<path d="M794 31h10"></path>
<path d="M368 31v20a10 10 0 0 0 10 10"></path>
<g>
<path d="M378 61h0"></path>
<path d="M794 61h0"></path>
<g class="terminal">
<path d="M378 61h0"></path>
<path d="M462 61h0"></path>
<rect x="378" y="50" width="84" height="22" rx="10" ry="10"></rect>
<text x="420" y="65">"SOURCE"</text>
</g>
<path d="M462 61h10"></path>
<g>
<path d="M472 61h0"></path>
<path d="M794 61h0"></path>
<path d="M472 61h20"></path>
<g>
<path d="M492 61h0"></path>
<path d="M774 61h0"></path>
<g class="non-terminal">
<path d="M492 61h0"></path>
<path d="M552 61h0"></path>
<rect x="492" y="50" width="60" height="22"></rect>
<a xlink:href="reuse_field.svg"><text x="522" y="65">Field</text>
</a>
</g>
<path d="M552 61h10"></path>
<path d="M562 61h10"></path>
<g class="terminal">
<path d="M572 61h0"></path>
<path d="M616 61h0"></path>
<rect x="572" y="50" width="44" height="22" rx="10" ry="10"></rect>
<text x="594" y="65">"="</text>
</g>
<path d="M616 61h10"></path>
<g>
<path d="M626 61h0"></path>
<path d="M774 61h0"></path>
<path d="M626 61h20"></path>
<g class="non-terminal">
<path d="M646 61h0"></path>
<path d="M706 61h48"></path>
<rect x="646" y="50" width="60" height="22"></rect>
<a xlink:href="reuse_field.svg"><text x="676" y="65">Field</text>
</a>
</g>
<path d="M754 61h20"></path>
<path d="M626 61a10 10 0 0 1 10 10v10a10 10 0 0 0 10 10"></path>
<g class="non-terminal">
<path d="M646 91h0"></path>
<path d="M754 91h0"></path>
<rect x="646" y="80" width="108" height="22"></rect>
<a xlink:href="reuse_fieldsymbol.svg"><text x="700" y="95">FieldSymbol</text>
</a>
</g>
<path d="M754 91a10 10 0 0 0 10 -10v-10a10 10 0 0 1 10 -10"></path>
</g>
</g>
<path d="M774 61h20"></path>
<path d="M472 61a10 10 0 0 1 10 10v40a10 10 0 0 0 10 10"></path>
<g>
<path d="M492 121h0"></path>
<path d="M640 121h134"></path>
<g class="terminal">
<path d="M492 121h0"></path>
<path d="M552 121h0"></path>
<rect x="492" y="110" width="60" height="22" rx="10" ry="10"></rect>
<text x="522" y="125">"XML"</text>
</g>
<path d="M552 121h10"></path>
<path d="M562 121h10"></path>
<g class="non-terminal">
<path d="M572 121h0"></path>
<path d="M640 121h0"></path>
<rect x="572" y="110" width="68" height="22"></rect>
<a xlink:href="reuse_source.svg"><text x="606" y="125">Source</text>
</a>
</g>
</g>
<path d="M774 121a10 10 0 0 0 10 -10v-40a10 10 0 0 1 10 -10"></path>
<path d="M472 61a10 10 0 0 1 10 10v70a10 10 0 0 0 10 10"></path>
<g class="non-terminal">
<path d="M492 151h0"></path>
<path d="M568 151h206"></path>
<rect x="492" y="140" width="76" height="22"></rect>
<a xlink:href="reuse_dynamic.svg"><text x="530" y="155">Dynamic</text>
</a>
</g>
<path d="M774 151a10 10 0 0 0 10 -10v-70a10 10 0 0 1 10 -10"></path>
</g>
</g>
<path d="M794 61a10 10 0 0 0 10 -10v-20"></path>
<path d="M368 31v140a10 10 0 0 0 10 10"></path>
<g>
<path d="M378 181h0"></path>
<path d="M794 181h0"></path>
<g class="terminal">
<path d="M378 181h0"></path>
<path d="M462 181h0"></path>
<rect x="378" y="170" width="84" height="22" rx="10" ry="10"></rect>
<text x="420" y="185">"RESULT"</text>
</g>
<path d="M462 181h10"></path>
<g>
<path d="M472 181h0"></path>
<path d="M794 181h0"></path>
<path d="M472 181h20"></path>
<g>
<path d="M492 181h0"></path>
<path d="M774 181h0"></path>
<g class="non-terminal">
<path d="M492 181h0"></path>
<path d="M552 181h0"></path>
<rect x="492" y="170" width="60" height="22"></rect>
<a xlink:href="reuse_field.svg"><text x="522" y="185">Field</text>
</a>
</g>
<path d="M552 181h10"></path>
<path d="M562 181h10"></path>
<g class="terminal">
<path d="M572 181h0"></path>
<path d="M616 181h0"></path>
<rect x="572" y="170" width="44" height="22" rx="10" ry="10"></rect>
<text x="594" y="185">"="</text>
</g>
<path d="M616 181h10"></path>
<g>
<path d="M626 181h0"></path>
<path d="M774 181h0"></path>
<path d="M626 181h20"></path>
<g class="non-terminal">
<path d="M646 181h0"></path>
<path d="M706 181h48"></path>
<rect x="646" y="170" width="60" height="22"></rect>
<a xlink:href="reuse_field.svg"><text x="676" y="185">Field</text>
</a>
</g>
<path d="M754 181h20"></path>
<path d="M626 181a10 10 0 0 1 10 10v10a10 10 0 0 0 10 10"></path>
<g class="non-terminal">
<path d="M646 211h0"></path>
<path d="M754 211h0"></path>
<rect x="646" y="200" width="108" height="22"></rect>
<a xlink:href="reuse_fieldsymbol.svg"><text x="700" y="215">FieldSymbol</text>
</a>
</g>
<path d="M754 211a10 10 0 0 0 10 -10v-10a10 10 0 0 1 10 -10"></path>
</g>
</g>
<path d="M774 181h20"></path>
<path d="M472 181a10 10 0 0 1 10 10v40a10 10 0 0 0 10 10"></path>
<g>
<path d="M492 241h0"></path>
<path d="M640 241h134"></path>
<g class="terminal">
<path d="M492 241h0"></path>
<path d="M552 241h0"></path>
<rect x="492" y="230" width="60" height="22" rx="10" ry="10"></rect>
<text x="522" y="245">"XML"</text>
</g>
<path d="M552 241h10"></path>
<path d="M562 241h10"></path>
<g class="non-terminal">
<path d="M572 241h0"></path>
<path d="M640 241h0"></path>
<rect x="572" y="230" width="68" height="22"></rect>
<a xlink:href="reuse_target.svg"><text x="606" y="245">Target</text>
</a>
</g>
</g>
<path d="M774 241a10 10 0 0 0 10 -10v-40a10 10 0 0 1 10 -10"></path>
<path d="M472 181a10 10 0 0 1 10 10v70a10 10 0 0 0 10 10"></path>
<g class="non-terminal">
<path d="M492 271h0"></path>
<path d="M568 271h206"></path>
<rect x="492" y="260" width="76" height="22"></rect>
<a xlink:href="reuse_dynamic.svg"><text x="530" y="275">Dynamic</text>
</a>
</g>
<path d="M774 271a10 10 0 0 0 10 -10v-70a10 10 0 0 1 10 -10"></path>
</g>
</g>
<path d="M794 181a10 10 0 0 0 10 -10v-140"></path>
<g class="diagram-text">
<title>take one or more branches, once each, in any order</title>
<path d="M 368 21 h -26 a 4 4 0 0 0 -4 4 v 12 a 4 4 0 0 0 4 4 h 26 z" class="diagram-text"></path>
<text x="353" y="35" class="diagram-text">1+</text>
<path d="M 804 21 h 16 a 4 4 0 0 1 4 4 v 12 a 4 4 0 0 1 -4 4 h -16 z" class="diagram-text"></path>
<path d="M 811 29 a 4 4 0 1 0 6 -1 m 2.75 -1 h -4 v 4 m 0 -3 h 2" style="stroke-width: 1.75"></path>
</g>
</g>
</g>
<path d="M824 31h10"></path>
<path d="M 834 31 h 20 m -10 -10 v 20 m 10 -20 v 20"></path>
</g>
</svg>
