<svg xmlns="http://www.w3.org/2000/svg" xmlns:xlink="http://www.w3.org/1999/xlink" class="railroad-diagram" width="996" height="79" viewBox="0 0 996 79">
<defs>
<style type="text/css"><![CDATA[
path {
stroke-width: 3;
stroke: black;
fill: rgba(0,0,0,0);
}
text {
font: bold 14px monospace;
text-anchor: middle;
}
text.diagram-text {
font-size: 12px;
}
a {
fill: blue;
}
text.diagram-arrow {
font-size: 16px;
}
text.label {
text-anchor: start;
}
text.comment {
font: italic 12px monospace;
}
rect {
stroke-width: 3;
stroke: black;
fill: #BCBCBC;
}
path.diagram-text {
stroke-width: 3;
stroke: black;
fill: #BCBCBC;
cursor: help;
}
]]></style>
</defs>
<g transform="translate(.5 .5)">
<path d="M 20 38 v 20 m 10 -20 v 20 m -10 -10 h 20.5"></path>
<path d="M40 48h10"></path>
<g>
<path d="M50 48h0"></path>
<path d="M946 48h0"></path>
<g class="terminal">
<path d="M50 48h0"></path>
<path d="M174 48h0"></path>
<rect x="50" y="37" width="124" height="22" rx="10" ry="10"></rect>
<text x="112" y="52">"CALL SCREEN"</text>
</g>
<path d="M174 48h10"></path>
<path d="M184 48h10"></path>
<g class="non-terminal">
<path d="M194 48h0"></path>
<path d="M262 48h0"></path>
<rect x="194" y="37" width="68" height="22"></rect>
<a xlink:href="reuse_source.svg"><text x="228" y="52">source</text>
</a>
</g>
<path d="M262 48h10"></path>
<g>
<path d="M272 48h0"></path>
<path d="M946 48h0"></path>
<path d="M272 48a10 10 0 0 0 10 -10v-8a10 10 0 0 1 10 -10"></path>
<g>
<path d="M292 20h634"></path>
</g>
<path d="M926 20a10 10 0 0 1 10 10v8a10 10 0 0 0 10 10"></path>
<path d="M272 48h20"></path>
<g>
<path d="M292 48h0"></path>
<path d="M926 48h0"></path>
<g>
<path d="M292 48h0"></path>
<path d="M592 48h0"></path>
<g class="terminal">
<path d="M292 48h0"></path>
<path d="M416 48h0"></path>
<rect x="292" y="37" width="124" height="22" rx="10" ry="10"></rect>
<text x="354" y="52">"STARTING AT"</text>
</g>
<path d="M416 48h10"></path>
<path d="M426 48h10"></path>
<g class="non-terminal">
<path d="M436 48h0"></path>
<path d="M504 48h0"></path>
<rect x="436" y="37" width="68" height="22"></rect>
<a xlink:href="reuse_source.svg"><text x="470" y="52">source</text>
</a>
</g>
<path d="M504 48h10"></path>
<path d="M514 48h10"></path>
<g class="non-terminal">
<path d="M524 48h0"></path>
<path d="M592 48h0"></path>
<rect x="524" y="37" width="68" height="22"></rect>
<a xlink:href="reuse_source.svg"><text x="558" y="52">source</text>
</a>
</g>
</g>
<path d="M592 48h10"></path>
<g>
<path d="M602 48h0"></path>
<path d="M926 48h0"></path>
<path d="M602 48a10 10 0 0 0 10 -10v0a10 10 0 0 1 10 -10"></path>
<g>
<path d="M622 28h284"></path>
</g>
<path d="M906 28a10 10 0 0 1 10 10v0a10 10 0 0 0 10 10"></path>
<path d="M602 48h20"></path>
<g>
<path d="M622 48h0"></path>
<path d="M906 48h0"></path>
<g class="terminal">
<path d="M622 48h0"></path>
<path d="M730 48h0"></path>
<rect x="622" y="37" width="108" height="22" rx="10" ry="10"></rect>
<text x="676" y="52">"ENDING AT"</text>
</g>
<path d="M730 48h10"></path>
<path d="M740 48h10"></path>
<g class="non-terminal">
<path d="M750 48h0"></path>
<path d="M818 48h0"></path>
<rect x="750" y="37" width="68" height="22"></rect>
<a xlink:href="reuse_source.svg"><text x="784" y="52">source</text>
</a>
</g>
<path d="M818 48h10"></path>
<path d="M828 48h10"></path>
<g class="non-terminal">
<path d="M838 48h0"></path>
<path d="M906 48h0"></path>
<rect x="838" y="37" width="68" height="22"></rect>
<a xlink:href="reuse_source.svg"><text x="872" y="52">source</text>
</a>
</g>
</g>
<path d="M906 48h20"></path>
</g>
</g>
<path d="M926 48h20"></path>
</g>
</g>
<path d="M946 48h10"></path>
<path d="M 956 48 h 20 m -10 -10 v 20 m 10 -20 v 20"></path>
</g>
</svg>
