<svg xmlns="http://www.w3.org/2000/svg" xmlns:xlink="http://www.w3.org/1999/xlink" class="railroad-diagram" width="862" height="308" viewBox="0 0 862 308">
<defs>
<style type="text/css"><![CDATA[
path {
stroke-width: 3;
stroke: black;
fill: rgba(0,0,0,0);
}
text {
font: bold 14px monospace;
text-anchor: middle;
}
text.diagram-text {
font-size: 12px;
}
a {
fill: blue;
}
text.diagram-arrow {
font-size: 16px;
}
text.label {
text-anchor: start;
}
text.comment {
font: italic 12px monospace;
}
rect {
stroke-width: 3;
stroke: black;
fill: #BCBCBC;
}
path.diagram-text {
stroke-width: 3;
stroke: black;
fill: #BCBCBC;
cursor: help;
}
]]></style>
</defs>
<g transform="translate(.5 .5)">
<path d="M 20 21 v 20 m 10 -20 v 20 m -10 -10 h 20.5"></path>
<path d="M40 31h10"></path>
<g>
<path d="M50 31h0"></path>
<path d="M812 31h0"></path>
<g class="terminal">
<path d="M50 31h0"></path>
<path d="M238 31h0"></path>
<rect x="50" y="20" width="188" height="22" rx="10" ry="10"></rect>
<text x="144" y="35">"CALL TRANSFORMATION"</text>
</g>
<path d="M238 31h10"></path>
<g>
<path d="M248 31h0"></path>
<path d="M364 31h0"></path>
<path d="M248 31h20"></path>
<g class="non-terminal">
<path d="M268 31h0"></path>
<path d="M328 31h16"></path>
<rect x="268" y="20" width="60" height="22"></rect>
<a xlink:href="reuse_field.svg"><text x="298" y="35">Field</text>
</a>
</g>
<path d="M344 31h20"></path>
<path d="M248 31a10 10 0 0 1 10 10v10a10 10 0 0 0 10 10"></path>
<g class="non-terminal">
<path d="M268 61h0"></path>
<path d="M344 61h0"></path>
<rect x="268" y="50" width="76" height="22"></rect>
<a xlink:href="reuse_dynamic.svg"><text x="306" y="65">Dynamic</text>
</a>
</g>
<path d="M344 61a10 10 0 0 0 10 -10v-10a10 10 0 0 1 10 -10"></path>
</g>
<path d="M364 31h10"></path>
<g>
<path d="M374 31h0"></path>
<path d="M812 31h0"></path>
<path d="M404 31h10"></path>
<g>
<path d="M414 31h0"></path>
<path d="M758 31h24"></path>
<g class="terminal">
<path d="M414 31h0"></path>
<path d="M506 31h0"></path>
<rect x="414" y="20" width="92" height="22" rx="10" ry="10"></rect>
<text x="460" y="35">"OPTIONS"</text>
</g>
<path d="M506 31h10"></path>
<path d="M516 31h10"></path>
<g>
<path d="M526 31h0"></path>
<path d="M758 31h0"></path>
<path d="M526 31h10"></path>
<g>
<path d="M536 31h0"></path>
<path d="M748 31h0"></path>
<g class="non-terminal">
<path d="M536 31h0"></path>
<path d="M596 31h0"></path>
<rect x="536" y="20" width="60" height="22"></rect>
<a xlink:href="reuse_field.svg"><text x="566" y="35">Field</text>
</a>
</g>
<path d="M596 31h10"></path>
<path d="M606 31h10"></path>
<g class="terminal">
<path d="M616 31h0"></path>
<path d="M660 31h0"></path>
<rect x="616" y="20" width="44" height="22" rx="10" ry="10"></rect>
<text x="638" y="35">"="</text>
</g>
<path d="M660 31h10"></path>
<path d="M670 31h10"></path>
<g class="non-terminal">
<path d="M680 31h0"></path>
<path d="M748 31h0"></path>
<rect x="680" y="20" width="68" height="22"></rect>
<a xlink:href="reuse_source.svg"><text x="714" y="35">Source</text>
</a>
</g>
</g>
<path d="M748 31h10"></path>
<path d="M536 31a10 10 0 0 0 -10 10v0a10 10 0 0 0 10 10"></path>
<g>
<path d="M536 51h212"></path>
</g>
<path d="M748 51a10 10 0 0 0 10 -10v0a10 10 0 0 0 -10 -10"></path>
</g>
</g>
<path d="M782 31h10"></path>
<path d="M404 31v29a10 10 0 0 0 10 10"></path>
<g>
<path d="M414 70h0"></path>
<path d="M782 70h0"></path>
<g class="terminal">
<path d="M414 70h0"></path>
<path d="M530 70h0"></path>
<rect x="414" y="59" width="116" height="22" rx="10" ry="10"></rect>
<text x="472" y="74">"PARAMETERS"</text>
</g>
<path d="M530 70h10"></path>
<path d="M540 70h10"></path>
<g>
<path d="M550 70h0"></path>
<path d="M782 70h0"></path>
<path d="M550 70h10"></path>
<g>
<path d="M560 70h0"></path>
<path d="M772 70h0"></path>
<g class="non-terminal">
<path d="M560 70h0"></path>
<path d="M620 70h0"></path>
<rect x="560" y="59" width="60" height="22"></rect>
<a xlink:href="reuse_field.svg"><text x="590" y="74">Field</text>
</a>
</g>
<path d="M620 70h10"></path>
<path d="M630 70h10"></path>
<g class="terminal">
<path d="M640 70h0"></path>
<path d="M684 70h0"></path>
<rect x="640" y="59" width="44" height="22" rx="10" ry="10"></rect>
<text x="662" y="74">"="</text>
</g>
<path d="M684 70h10"></path>
<path d="M694 70h10"></path>
<g class="non-terminal">
<path d="M704 70h0"></path>
<path d="M772 70h0"></path>
<rect x="704" y="59" width="68" height="22"></rect>
<a xlink:href="reuse_source.svg"><text x="738" y="74">Source</text>
</a>
</g>
</g>
<path d="M772 70h10"></path>
<path d="M560 70a10 10 0 0 0 -10 10v0a10 10 0 0 0 10 10"></path>
<g>
<path d="M560 90h212"></path>
</g>
<path d="M772 90a10 10 0 0 0 10 -10v0a10 10 0 0 0 -10 -10"></path>
</g>
</g>
<path d="M782 70a10 10 0 0 0 10 -10v-29"></path>
<path d="M404 31v68a10 10 0 0 0 10 10"></path>
<g>
<path d="M414 109h0"></path>
<path d="M780 109h2"></path>
<g class="terminal">
<path d="M414 109h0"></path>
<path d="M498 109h0"></path>
<rect x="414" y="98" width="84" height="22" rx="10" ry="10"></rect>
<text x="456" y="113">"SOURCE"</text>
</g>
<path d="M498 109h10"></path>
<g>
<path d="M508 109h0"></path>
<path d="M780 109h0"></path>
<path d="M508 109h20"></path>
<g>
<path d="M528 109h0"></path>
<path d="M760 109h0"></path>
<path d="M528 109h10"></path>
<g>
<path d="M538 109h0"></path>
<path d="M750 109h0"></path>
<g class="non-terminal">
<path d="M538 109h0"></path>
<path d="M598 109h0"></path>
<rect x="538" y="98" width="60" height="22"></rect>
<a xlink:href="reuse_field.svg"><text x="568" y="113">Field</text>
</a>
</g>
<path d="M598 109h10"></path>
<path d="M608 109h10"></path>
<g class="terminal">
<path d="M618 109h0"></path>
<path d="M662 109h0"></path>
<rect x="618" y="98" width="44" height="22" rx="10" ry="10"></rect>
<text x="640" y="113">"="</text>
</g>
<path d="M662 109h10"></path>
<path d="M672 109h10"></path>
<g class="non-terminal">
<path d="M682 109h0"></path>
<path d="M750 109h0"></path>
<rect x="682" y="98" width="68" height="22"></rect>
<a xlink:href="reuse_source.svg"><text x="716" y="113">Source</text>
</a>
</g>
</g>
<path d="M750 109h10"></path>
<path d="M538 109a10 10 0 0 0 -10 10v0a10 10 0 0 0 10 10"></path>
<g>
<path d="M538 129h212"></path>
</g>
<path d="M750 129a10 10 0 0 0 10 -10v0a10 10 0 0 0 -10 -10"></path>
</g>
<path d="M760 109h20"></path>
<path d="M508 109a10 10 0 0 1 10 10v19a10 10 0 0 0 10 10"></path>
<g>
<path d="M528 148h0"></path>
<path d="M676 148h84"></path>
<g class="terminal">
<path d="M528 148h0"></path>
<path d="M588 148h0"></path>
<rect x="528" y="137" width="60" height="22" rx="10" ry="10"></rect>
<text x="558" y="152">"XML"</text>
</g>
<path d="M588 148h10"></path>
<path d="M598 148h10"></path>
<g class="non-terminal">
<path d="M608 148h0"></path>
<path d="M676 148h0"></path>
<rect x="608" y="137" width="68" height="22"></rect>
<a xlink:href="reuse_source.svg"><text x="642" y="152">Source</text>
</a>
</g>
</g>
<path d="M760 148a10 10 0 0 0 10 -10v-19a10 10 0 0 1 10 -10"></path>
<path d="M508 109a10 10 0 0 1 10 10v49a10 10 0 0 0 10 10"></path>
<g class="non-terminal">
<path d="M528 178h0"></path>
<path d="M604 178h156"></path>
<rect x="528" y="167" width="76" height="22"></rect>
<a xlink:href="reuse_dynamic.svg"><text x="566" y="182">Dynamic</text>
</a>
</g>
<path d="M760 178a10 10 0 0 0 10 -10v-49a10 10 0 0 1 10 -10"></path>
</g>
</g>
<path d="M782 109a10 10 0 0 0 10 -10v-68"></path>
<path d="M404 31v167a10 10 0 0 0 10 10"></path>
<g>
<path d="M414 208h0"></path>
<path d="M780 208h2"></path>
<g class="terminal">
<path d="M414 208h0"></path>
<path d="M498 208h0"></path>
<rect x="414" y="197" width="84" height="22" rx="10" ry="10"></rect>
<text x="456" y="212">"RESULT"</text>
</g>
<path d="M498 208h10"></path>
<g>
<path d="M508 208h0"></path>
<path d="M780 208h0"></path>
<path d="M508 208h20"></path>
<g>
<path d="M528 208h0"></path>
<path d="M760 208h0"></path>
<path d="M528 208h10"></path>
<g>
<path d="M538 208h0"></path>
<path d="M750 208h0"></path>
<g class="non-terminal">
<path d="M538 208h0"></path>
<path d="M598 208h0"></path>
<rect x="538" y="197" width="60" height="22"></rect>
<a xlink:href="reuse_field.svg"><text x="568" y="212">Field</text>
</a>
</g>
<path d="M598 208h10"></path>
<path d="M608 208h10"></path>
<g class="terminal">
<path d="M618 208h0"></path>
<path d="M662 208h0"></path>
<rect x="618" y="197" width="44" height="22" rx="10" ry="10"></rect>
<text x="640" y="212">"="</text>
</g>
<path d="M662 208h10"></path>
<path d="M672 208h10"></path>
<g class="non-terminal">
<path d="M682 208h0"></path>
<path d="M750 208h0"></path>
<rect x="682" y="197" width="68" height="22"></rect>
<a xlink:href="reuse_source.svg"><text x="716" y="212">Source</text>
</a>
</g>
</g>
<path d="M750 208h10"></path>
<path d="M538 208a10 10 0 0 0 -10 10v0a10 10 0 0 0 10 10"></path>
<g>
<path d="M538 228h212"></path>
</g>
<path d="M750 228a10 10 0 0 0 10 -10v0a10 10 0 0 0 -10 -10"></path>
</g>
<path d="M760 208h20"></path>
<path d="M508 208a10 10 0 0 1 10 10v19a10 10 0 0 0 10 10"></path>
<g>
<path d="M528 247h0"></path>
<path d="M676 247h84"></path>
<g class="terminal">
<path d="M528 247h0"></path>
<path d="M588 247h0"></path>
<rect x="528" y="236" width="60" height="22" rx="10" ry="10"></rect>
<text x="558" y="251">"XML"</text>
</g>
<path d="M588 247h10"></path>
<path d="M598 247h10"></path>
<g class="non-terminal">
<path d="M608 247h0"></path>
<path d="M676 247h0"></path>
<rect x="608" y="236" width="68" height="22"></rect>
<a xlink:href="reuse_target.svg"><text x="642" y="251">Target</text>
</a>
</g>
</g>
<path d="M760 247a10 10 0 0 0 10 -10v-19a10 10 0 0 1 10 -10"></path>
<path d="M508 208a10 10 0 0 1 10 10v49a10 10 0 0 0 10 10"></path>
<g class="non-terminal">
<path d="M528 277h0"></path>
<path d="M604 277h156"></path>
<rect x="528" y="266" width="76" height="22"></rect>
<a xlink:href="reuse_dynamic.svg"><text x="566" y="281">Dynamic</text>
</a>
</g>
<path d="M760 277a10 10 0 0 0 10 -10v-49a10 10 0 0 1 10 -10"></path>
</g>
</g>
<path d="M782 208a10 10 0 0 0 10 -10v-167"></path>
<g class="diagram-text">
<title>take one or more branches, once each, in any order</title>
<path d="M 404 21 h -26 a 4 4 0 0 0 -4 4 v 12 a 4 4 0 0 0 4 4 h 26 z" class="diagram-text"></path>
<text x="389" y="35" class="diagram-text">1+</text>
<path d="M 792 21 h 16 a 4 4 0 0 1 4 4 v 12 a 4 4 0 0 1 -4 4 h -16 z" class="diagram-text"></path>
<path d="M 799 29 a 4 4 0 1 0 6 -1 m 2.75 -1 h -4 v 4 m 0 -3 h 2" style="stroke-width: 1.75"></path>
</g>
</g>
</g>
<path d="M812 31h10"></path>
<path d="M 822 31 h 20 m -10 -10 v 20 m 10 -20 v 20"></path>
</g>
</svg>
