<svg xmlns="http://www.w3.org/2000/svg" xmlns:xlink="http://www.w3.org/1999/xlink" class="railroad-diagram" width="1238" height="88" viewBox="0 0 1238 88">
<defs>
<style type="text/css"><![CDATA[
path {
stroke-width: 3;
stroke: black;
fill: rgba(0,0,0,0);
}
text {
font: bold 14px monospace;
text-anchor: middle;
}
text.diagram-text {
font-size: 12px;
}
a {
fill: blue;
}
text.diagram-arrow {
font-size: 16px;
}
text.label {
text-anchor: start;
}
text.comment {
font: italic 12px monospace;
}
rect {
stroke-width: 3;
stroke: black;
fill: #BCBCBC;
}
path.diagram-text {
stroke-width: 3;
stroke: black;
fill: #BCBCBC;
cursor: help;
}
]]></style>
</defs>
<g transform="translate(.5 .5)">
<path d="M 20 38 v 20 m 10 -20 v 20 m -10 -10 h 20.5"></path>
<path d="M40 48h10"></path>
<g>
<path d="M50 48h0"></path>
<path d="M1188 48h0"></path>
<g class="terminal">
<path d="M50 48h0"></path>
<path d="M174 48h0"></path>
<rect x="50" y="37" width="124" height="22" rx="10" ry="10"></rect>
<text x="112" y="52">"CALL DIALOG"</text>
</g>
<path d="M174 48h10"></path>
<path d="M184 48h10"></path>
<g class="non-terminal">
<path d="M194 48h0"></path>
<path d="M278 48h0"></path>
<rect x="194" y="37" width="84" height="22"></rect>
<a xlink:href="reuse_constant.svg"><text x="236" y="52">Constant</text>
</a>
</g>
<path d="M278 48h10"></path>
<g>
<path d="M288 48h0"></path>
<path d="M758 48h0"></path>
<path d="M288 48a10 10 0 0 0 10 -10v-8a10 10 0 0 1 10 -10"></path>
<g>
<path d="M308 20h430"></path>
</g>
<path d="M738 20a10 10 0 0 1 10 10v8a10 10 0 0 0 10 10"></path>
<path d="M288 48h20"></path>
<g>
<path d="M308 48h0"></path>
<path d="M738 48h0"></path>
<g class="terminal">
<path d="M308 48h0"></path>
<path d="M416 48h0"></path>
<rect x="308" y="37" width="108" height="22" rx="10" ry="10"></rect>
<text x="362" y="52">"EXPORTING"</text>
</g>
<path d="M416 48h10"></path>
<path d="M426 48h10"></path>
<g>
<path d="M436 48h0"></path>
<path d="M738 48h0"></path>
<path d="M436 48h10"></path>
<g>
<path d="M446 48h0"></path>
<path d="M728 48h0"></path>
<g class="non-terminal">
<path d="M446 48h0"></path>
<path d="M530 48h0"></path>
<rect x="446" y="37" width="84" height="22"></rect>
<a xlink:href="reuse_fieldsub.svg"><text x="488" y="52">FieldSub</text>
</a>
</g>
<path d="M530 48h10"></path>
<g>
<path d="M540 48h0"></path>
<path d="M728 48h0"></path>
<path d="M540 48a10 10 0 0 0 10 -10v0a10 10 0 0 1 10 -10"></path>
<g>
<path d="M560 28h148"></path>
</g>
<path d="M708 28a10 10 0 0 1 10 10v0a10 10 0 0 0 10 10"></path>
<path d="M540 48h20"></path>
<g>
<path d="M560 48h0"></path>
<path d="M708 48h0"></path>
<g class="terminal">
<path d="M560 48h0"></path>
<path d="M628 48h0"></path>
<rect x="560" y="37" width="68" height="22" rx="10" ry="10"></rect>
<text x="594" y="52">"FROM"</text>
</g>
<path d="M628 48h10"></path>
<path d="M638 48h10"></path>
<g class="non-terminal">
<path d="M648 48h0"></path>
<path d="M708 48h0"></path>
<rect x="648" y="37" width="60" height="22"></rect>
<a xlink:href="reuse_field.svg"><text x="678" y="52">Field</text>
</a>
</g>
</g>
<path d="M708 48h20"></path>
</g>
</g>
<path d="M728 48h10"></path>
<path d="M446 48a10 10 0 0 0 -10 10v0a10 10 0 0 0 10 10"></path>
<g>
<path d="M446 68h282"></path>
</g>
<path d="M728 68a10 10 0 0 0 10 -10v0a10 10 0 0 0 -10 -10"></path>
</g>
</g>
<path d="M738 48h20"></path>
</g>
<g>
<path d="M758 48h0"></path>
<path d="M1188 48h0"></path>
<path d="M758 48a10 10 0 0 0 10 -10v-8a10 10 0 0 1 10 -10"></path>
<g>
<path d="M778 20h390"></path>
</g>
<path d="M1168 20a10 10 0 0 1 10 10v8a10 10 0 0 0 10 10"></path>
<path d="M758 48h20"></path>
<g>
<path d="M778 48h0"></path>
<path d="M1168 48h0"></path>
<g class="terminal">
<path d="M778 48h0"></path>
<path d="M886 48h0"></path>
<rect x="778" y="37" width="108" height="22" rx="10" ry="10"></rect>
<text x="832" y="52">"IMPORTING"</text>
</g>
<path d="M886 48h10"></path>
<path d="M896 48h10"></path>
<g>
<path d="M906 48h0"></path>
<path d="M1168 48h0"></path>
<path d="M906 48h10"></path>
<g>
<path d="M916 48h0"></path>
<path d="M1158 48h0"></path>
<g class="non-terminal">
<path d="M916 48h0"></path>
<path d="M976 48h0"></path>
<rect x="916" y="37" width="60" height="22"></rect>
<a xlink:href="reuse_field.svg"><text x="946" y="52">Field</text>
</a>
</g>
<path d="M976 48h10"></path>
<g>
<path d="M986 48h0"></path>
<path d="M1158 48h0"></path>
<path d="M986 48a10 10 0 0 0 10 -10v0a10 10 0 0 1 10 -10"></path>
<g>
<path d="M1006 28h132"></path>
</g>
<path d="M1138 28a10 10 0 0 1 10 10v0a10 10 0 0 0 10 10"></path>
<path d="M986 48h20"></path>
<g>
<path d="M1006 48h0"></path>
<path d="M1138 48h0"></path>
<g class="terminal">
<path d="M1006 48h0"></path>
<path d="M1058 48h0"></path>
<rect x="1006" y="37" width="52" height="22" rx="10" ry="10"></rect>
<text x="1032" y="52">"TO"</text>
</g>
<path d="M1058 48h10"></path>
<path d="M1068 48h10"></path>
<g class="non-terminal">
<path d="M1078 48h0"></path>
<path d="M1138 48h0"></path>
<rect x="1078" y="37" width="60" height="22"></rect>
<a xlink:href="reuse_field.svg"><text x="1108" y="52">Field</text>
</a>
</g>
</g>
<path d="M1138 48h20"></path>
</g>
</g>
<path d="M1158 48h10"></path>
<path d="M916 48a10 10 0 0 0 -10 10v0a10 10 0 0 0 10 10"></path>
<g>
<path d="M916 68h242"></path>
</g>
<path d="M1158 68a10 10 0 0 0 10 -10v0a10 10 0 0 0 -10 -10"></path>
</g>
</g>
<path d="M1168 48h20"></path>
</g>
</g>
<path d="M1188 48h10"></path>
<path d="M 1198 48 h 20 m -10 -10 v 20 m 10 -20 v 20"></path>
</g>
</svg>
