<svg xmlns="http://www.w3.org/2000/svg" xmlns:xlink="http://www.w3.org/1999/xlink" class="railroad-diagram" width="1502" height="71" viewBox="0 0 1502 71">
<defs>
<style type="text/css"><![CDATA[
path {
stroke-width: 3;
stroke: black;
fill: rgba(0,0,0,0);
}
text {
font: bold 14px monospace;
text-anchor: middle;
}
text.diagram-text {
font-size: 12px;
}
a {
fill: blue;
}
text.diagram-arrow {
font-size: 16px;
}
text.label {
text-anchor: start;
}
text.comment {
font: italic 12px monospace;
}
rect {
stroke-width: 3;
stroke: black;
fill: #BCBCBC;
}
path.diagram-text {
stroke-width: 3;
stroke: black;
fill: #BCBCBC;
cursor: help;
}
]]></style>
</defs>
<g transform="translate(.5 .5)">
<path d="M 20 30 v 20 m 10 -20 v 20 m -10 -10 h 20.5"></path>
<path d="M40 40h10"></path>
<g>
<path d="M50 40h0"></path>
<path d="M1452 40h0"></path>
<g class="terminal">
<path d="M50 40h0"></path>
<path d="M214 40h0"></path>
<rect x="50" y="29" width="164" height="22" rx="10" ry="10"></rect>
<text x="132" y="44">"CALL TRANSACTION"</text>
</g>
<path d="M214 40h10"></path>
<path d="M224 40h10"></path>
<g class="non-terminal">
<path d="M234 40h0"></path>
<path d="M302 40h0"></path>
<rect x="234" y="29" width="68" height="22"></rect>
<a xlink:href="reuse_source.svg"><text x="268" y="44">Source</text>
</a>
</g>
<path d="M302 40h10"></path>
<g>
<path d="M312 40h0"></path>
<path d="M548 40h0"></path>
<path d="M312 40a10 10 0 0 0 10 -10v0a10 10 0 0 1 10 -10"></path>
<g>
<path d="M332 20h196"></path>
</g>
<path d="M528 20a10 10 0 0 1 10 10v0a10 10 0 0 0 10 10"></path>
<path d="M312 40h20"></path>
<g class="terminal">
<path d="M332 40h0"></path>
<path d="M528 40h0"></path>
<rect x="332" y="29" width="196" height="22" rx="10" ry="10"></rect>
<text x="430" y="44">"WITH AUTHORITY-CHECK"</text>
</g>
<path d="M528 40h20"></path>
</g>
<g>
<path d="M548 40h0"></path>
<path d="M752 40h0"></path>
<path d="M548 40a10 10 0 0 0 10 -10v0a10 10 0 0 1 10 -10"></path>
<g>
<path d="M568 20h164"></path>
</g>
<path d="M732 20a10 10 0 0 1 10 10v0a10 10 0 0 0 10 10"></path>
<path d="M548 40h20"></path>
<g>
<path d="M568 40h0"></path>
<path d="M732 40h0"></path>
<g class="terminal">
<path d="M568 40h0"></path>
<path d="M644 40h0"></path>
<rect x="568" y="29" width="76" height="22" rx="10" ry="10"></rect>
<text x="606" y="44">"USING"</text>
</g>
<path d="M644 40h10"></path>
<path d="M654 40h10"></path>
<g class="non-terminal">
<path d="M664 40h0"></path>
<path d="M732 40h0"></path>
<rect x="664" y="29" width="68" height="22"></rect>
<a xlink:href="reuse_source.svg"><text x="698" y="44">Source</text>
</a>
</g>
</g>
<path d="M732 40h20"></path>
</g>
<g>
<path d="M752 40h0"></path>
<path d="M948 40h0"></path>
<path d="M752 40a10 10 0 0 0 10 -10v0a10 10 0 0 1 10 -10"></path>
<g>
<path d="M772 20h156"></path>
</g>
<path d="M928 20a10 10 0 0 1 10 10v0a10 10 0 0 0 10 10"></path>
<path d="M752 40h20"></path>
<g>
<path d="M772 40h0"></path>
<path d="M928 40h0"></path>
<g class="terminal">
<path d="M772 40h0"></path>
<path d="M840 40h0"></path>
<rect x="772" y="29" width="68" height="22" rx="10" ry="10"></rect>
<text x="806" y="44">"MODE"</text>
</g>
<path d="M840 40h10"></path>
<path d="M850 40h10"></path>
<g class="non-terminal">
<path d="M860 40h0"></path>
<path d="M928 40h0"></path>
<rect x="860" y="29" width="68" height="22"></rect>
<a xlink:href="reuse_source.svg"><text x="894" y="44">Source</text>
</a>
</g>
</g>
<path d="M928 40h20"></path>
</g>
<g>
<path d="M948 40h0"></path>
<path d="M1192 40h0"></path>
<path d="M948 40a10 10 0 0 0 10 -10v0a10 10 0 0 1 10 -10"></path>
<g>
<path d="M968 20h204"></path>
</g>
<path d="M1172 20a10 10 0 0 1 10 10v0a10 10 0 0 0 10 10"></path>
<path d="M948 40h20"></path>
<g class="terminal">
<path d="M968 40h0"></path>
<path d="M1172 40h0"></path>
<rect x="968" y="29" width="204" height="22" rx="10" ry="10"></rect>
<text x="1070" y="44">"AND SKIP FIRST SCREEN"</text>
</g>
<path d="M1172 40h20"></path>
</g>
<g>
<path d="M1192 40h0"></path>
<path d="M1452 40h0"></path>
<path d="M1192 40a10 10 0 0 0 10 -10v0a10 10 0 0 1 10 -10"></path>
<g>
<path d="M1212 20h220"></path>
</g>
<path d="M1432 20a10 10 0 0 1 10 10v0a10 10 0 0 0 10 10"></path>
<path d="M1192 40h20"></path>
<g>
<path d="M1212 40h0"></path>
<path d="M1432 40h0"></path>
<g class="terminal">
<path d="M1212 40h0"></path>
<path d="M1344 40h0"></path>
<rect x="1212" y="29" width="132" height="22" rx="10" ry="10"></rect>
<text x="1278" y="44">"OPTIONS FROM"</text>
</g>
<path d="M1344 40h10"></path>
<path d="M1354 40h10"></path>
<g class="non-terminal">
<path d="M1364 40h0"></path>
<path d="M1432 40h0"></path>
<rect x="1364" y="29" width="68" height="22"></rect>
<a xlink:href="reuse_source.svg"><text x="1398" y="44">Source</text>
</a>
</g>
</g>
<path d="M1432 40h20"></path>
</g>
</g>
<path d="M1452 40h10"></path>
<path d="M 1462 40 h 20 m -10 -10 v 20 m 10 -20 v 20"></path>
</g>
</svg>
