<svg xmlns="http://www.w3.org/2000/svg" xmlns:xlink="http://www.w3.org/1999/xlink" class="railroad-diagram" width="1046" height="71" viewBox="0 0 1046 71">
<defs>
<style type="text/css"><![CDATA[
path {
stroke-width: 3;
stroke: black;
fill: rgba(0,0,0,0);
}
text {
font: bold 14px monospace;
text-anchor: middle;
}
text.diagram-text {
font-size: 12px;
}
a {
fill: blue;
}
text.diagram-arrow {
font-size: 16px;
}
text.label {
text-anchor: start;
}
text.comment {
font: italic 12px monospace;
}
rect {
stroke-width: 3;
stroke: black;
fill: #BCBCBC;
}
path.diagram-text {
stroke-width: 3;
stroke: black;
fill: #BCBCBC;
cursor: help;
}
]]></style>
</defs>
<g transform="translate(.5 .5)">
<path d="M 20 30 v 20 m 10 -20 v 20 m -10 -10 h 20.5"></path>
<path d="M40 40h10"></path>
<g>
<path d="M50 40h0"></path>
<path d="M996 40h0"></path>
<g class="terminal">
<path d="M50 40h0"></path>
<path d="M254 40h0"></path>
<rect x="50" y="29" width="204" height="22" rx="10" ry="10"></rect>
<text x="152" y="44">"CALL SELECTION-SCREEN"</text>
</g>
<path d="M254 40h10"></path>
<path d="M264 40h10"></path>
<g class="non-terminal">
<path d="M274 40h0"></path>
<path d="M342 40h0"></path>
<rect x="274" y="29" width="68" height="22"></rect>
<a xlink:href="reuse_source.svg"><text x="308" y="44">source</text>
</a>
</g>
<path d="M342 40h10"></path>
<g>
<path d="M352 40h0"></path>
<path d="M996 40h0"></path>
<path d="M352 40a10 10 0 0 0 10 -10v0a10 10 0 0 1 10 -10"></path>
<g>
<path d="M372 20h604"></path>
</g>
<path d="M976 20a10 10 0 0 1 10 10v0a10 10 0 0 0 10 10"></path>
<path d="M352 40h20"></path>
<g>
<path d="M372 40h0"></path>
<path d="M976 40h0"></path>
<g class="terminal">
<path d="M372 40h0"></path>
<path d="M496 40h0"></path>
<rect x="372" y="29" width="124" height="22" rx="10" ry="10"></rect>
<text x="434" y="44">"STARTING AT"</text>
</g>
<path d="M496 40h10"></path>
<path d="M506 40h10"></path>
<g class="non-terminal">
<path d="M516 40h0"></path>
<path d="M584 40h0"></path>
<rect x="516" y="29" width="68" height="22"></rect>
<a xlink:href="reuse_source.svg"><text x="550" y="44">source</text>
</a>
</g>
<path d="M584 40h10"></path>
<path d="M594 40h10"></path>
<g class="non-terminal">
<path d="M604 40h0"></path>
<path d="M672 40h0"></path>
<rect x="604" y="29" width="68" height="22"></rect>
<a xlink:href="reuse_source.svg"><text x="638" y="44">source</text>
</a>
</g>
<path d="M672 40h10"></path>
<path d="M682 40h10"></path>
<g class="terminal">
<path d="M692 40h0"></path>
<path d="M800 40h0"></path>
<rect x="692" y="29" width="108" height="22" rx="10" ry="10"></rect>
<text x="746" y="44">"ENDING AT"</text>
</g>
<path d="M800 40h10"></path>
<path d="M810 40h10"></path>
<g class="non-terminal">
<path d="M820 40h0"></path>
<path d="M888 40h0"></path>
<rect x="820" y="29" width="68" height="22"></rect>
<a xlink:href="reuse_source.svg"><text x="854" y="44">source</text>
</a>
</g>
<path d="M888 40h10"></path>
<path d="M898 40h10"></path>
<g class="non-terminal">
<path d="M908 40h0"></path>
<path d="M976 40h0"></path>
<rect x="908" y="29" width="68" height="22"></rect>
<a xlink:href="reuse_source.svg"><text x="942" y="44">source</text>
</a>
</g>
</g>
<path d="M976 40h20"></path>
</g>
</g>
<path d="M996 40h10"></path>
<path d="M 1006 40 h 20 m -10 -10 v 20 m 10 -20 v 20"></path>
</g>
</svg>
