<svg xmlns="http://www.w3.org/2000/svg" xmlns:xlink="http://www.w3.org/1999/xlink" class="railroad-diagram" width="1040" height="221" viewBox="0 0 1040 221">
<defs>
<style type="text/css"><![CDATA[
path {
stroke-width: 3;
stroke: black;
fill: rgba(0,0,0,0);
}
text {
font: bold 14px monospace;
text-anchor: middle;
}
text.diagram-text {
font-size: 12px;
}
a {
fill: blue;
}
text.diagram-arrow {
font-size: 16px;
}
text.label {
text-anchor: start;
}
text.comment {
font: italic 12px monospace;
}
rect {
stroke-width: 3;
stroke: black;
fill: #BCBCBC;
}
path.diagram-text {
stroke-width: 3;
stroke: black;
fill: #BCBCBC;
cursor: help;
}
]]></style>
</defs>
<g transform="translate(.5 .5)">
<path d="M 20 30 v 20 m 10 -20 v 20 m -10 -10 h 20.5"></path>
<g>
<path d="M40 40h0"></path>
<path d="M1000 40h0"></path>
<path d="M40 40h20"></path>
<g>
<path d="M60 40h0"></path>
<path d="M980 40h0"></path>
<g class="terminal">
<path d="M60 40h0"></path>
<path d="M184 40h0"></path>
<rect x="60" y="29" width="124" height="22" rx="10" ry="10"></rect>
<text x="122" y="44">"CALL METHOD"</text>
</g>
<path d="M184 40h10"></path>
<path d="M194 40h10"></path>
<g>
<path d="M204 40h0"></path>
<path d="M618 40h0"></path>
<g>
<path d="M204 40h0"></path>
<path d="M478 40h0"></path>
<path d="M204 40a10 10 0 0 0 10 -10v0a10 10 0 0 1 10 -10"></path>
<g>
<path d="M224 20h234"></path>
</g>
<path d="M458 20a10 10 0 0 1 10 10v0a10 10 0 0 0 10 10"></path>
<path d="M204 40h20"></path>
<g>
<path d="M224 40h0"></path>
<path d="M458 40h0"></path>
<g>
<path d="M224 40h0"></path>
<path d="M364 40h0"></path>
<path d="M224 40h20"></path>
<g class="non-terminal">
<path d="M244 40h0"></path>
<path d="M344 40h0"></path>
<rect x="244" y="29" width="100" height="22"></rect>
<a xlink:href="reuse_fieldchain.svg"><text x="294" y="44">FieldChain</text>
</a>
</g>
<path d="M344 40h20"></path>
<path d="M224 40a10 10 0 0 1 10 10v10a10 10 0 0 0 10 10"></path>
<g class="non-terminal">
<path d="M244 70h0"></path>
<path d="M320 70h24"></path>
<rect x="244" y="59" width="76" height="22"></rect>
<a xlink:href="reuse_dynamic.svg"><text x="282" y="74">Dynamic</text>
</a>
</g>
<path d="M344 70a10 10 0 0 0 10 -10v-10a10 10 0 0 1 10 -10"></path>
</g>
<path d="M364 40h10"></path>
<g class="terminal">
<path d="M374 40h0"></path>
<path d="M458 40h0"></path>
<rect x="374" y="29" width="84" height="22" rx="10" ry="10"></rect>
<text x="416" y="44">!"->/=>"</text>
</g>
</g>
<path d="M458 40h20"></path>
</g>
<g>
<path d="M478 40h0"></path>
<path d="M618 40h0"></path>
<path d="M478 40h20"></path>
<g class="non-terminal">
<path d="M498 40h0"></path>
<path d="M598 40h0"></path>
<rect x="498" y="29" width="100" height="22"></rect>
<a xlink:href="reuse_methodname.svg"><text x="548" y="44">MethodName</text>
</a>
</g>
<path d="M598 40h20"></path>
<path d="M478 40a10 10 0 0 1 10 10v10a10 10 0 0 0 10 10"></path>
<g class="non-terminal">
<path d="M498 70h0"></path>
<path d="M574 70h24"></path>
<rect x="498" y="59" width="76" height="22"></rect>
<a xlink:href="reuse_dynamic.svg"><text x="536" y="74">Dynamic</text>
</a>
</g>
<path d="M598 70a10 10 0 0 0 10 -10v-10a10 10 0 0 1 10 -10"></path>
</g>
</g>
<path d="M618 40h10"></path>
<g>
<path d="M628 40h0"></path>
<path d="M980 40h0"></path>
<path d="M628 40h20"></path>
<g>
<path d="M648 40h0"></path>
<path d="M960 40h0"></path>
<g class="terminal">
<path d="M648 40h0"></path>
<path d="M708 40h0"></path>
<rect x="648" y="29" width="60" height="22" rx="10" ry="10"></rect>
<text x="678" y="44">!"( "</text>
</g>
<path d="M708 40h10"></path>
<g>
<path d="M718 40h0"></path>
<path d="M906 40h0"></path>
<path d="M718 40h20"></path>
<g class="non-terminal">
<path d="M738 40h0"></path>
<path d="M806 40h80"></path>
<rect x="738" y="29" width="68" height="22"></rect>
<a xlink:href="reuse_source.svg"><text x="772" y="44">Source</text>
</a>
</g>
<path d="M886 40h20"></path>
<path d="M718 40a10 10 0 0 1 10 10v10a10 10 0 0 0 10 10"></path>
<g class="non-terminal">
<path d="M738 70h0"></path>
<path d="M870 70h16"></path>
<rect x="738" y="59" width="132" height="22"></rect>
<a xlink:href="reuse_parameterlists.svg"><text x="804" y="74">ParameterListS</text>
</a>
</g>
<path d="M886 70a10 10 0 0 0 10 -10v-10a10 10 0 0 1 10 -10"></path>
<path d="M718 40a10 10 0 0 1 10 10v40a10 10 0 0 0 10 10"></path>
<g class="non-terminal">
<path d="M738 100h0"></path>
<path d="M886 100h0"></path>
<rect x="738" y="89" width="148" height="22"></rect>
<a xlink:href="reuse_methodparameters.svg"><text x="812" y="104">MethodParameters</text>
</a>
</g>
<path d="M886 100a10 10 0 0 0 10 -10v-40a10 10 0 0 1 10 -10"></path>
</g>
<path d="M906 40h10"></path>
<g class="terminal">
<path d="M916 40h0"></path>
<path d="M960 40h0"></path>
<rect x="916" y="29" width="44" height="22" rx="10" ry="10"></rect>
<text x="938" y="44">")"</text>
</g>
</g>
<path d="M960 40h20"></path>
<path d="M628 40a10 10 0 0 1 10 10v70a10 10 0 0 0 10 10"></path>
<g class="non-terminal">
<path d="M648 130h0"></path>
<path d="M796 130h164"></path>
<rect x="648" y="119" width="148" height="22"></rect>
<a xlink:href="reuse_methodparameters.svg"><text x="722" y="134">MethodParameters</text>
</a>
</g>
<path d="M960 130a10 10 0 0 0 10 -10v-70a10 10 0 0 1 10 -10"></path>
<path d="M628 40a10 10 0 0 1 10 10v100a10 10 0 0 0 10 10"></path>
<g>
<path d="M648 160h0"></path>
<path d="M892 160h68"></path>
<g class="terminal">
<path d="M648 160h0"></path>
<path d="M804 160h0"></path>
<rect x="648" y="149" width="156" height="22" rx="10" ry="10"></rect>
<text x="726" y="164">"PARAMETER-TABLE"</text>
</g>
<path d="M804 160h10"></path>
<path d="M814 160h10"></path>
<g class="non-terminal">
<path d="M824 160h0"></path>
<path d="M892 160h0"></path>
<rect x="824" y="149" width="68" height="22"></rect>
<a xlink:href="reuse_source.svg"><text x="858" y="164">Source</text>
</a>
</g>
</g>
<path d="M960 160a10 10 0 0 0 10 -10v-100a10 10 0 0 1 10 -10"></path>
</g>
</g>
<path d="M980 40h20"></path>
<path d="M40 40a10 10 0 0 1 10 10v130a10 10 0 0 0 10 10"></path>
<g class="non-terminal">
<path d="M60 190h0"></path>
<path d="M200 190h780"></path>
<rect x="60" y="179" width="140" height="22"></rect>
<a xlink:href="reuse_methodcallchain.svg"><text x="130" y="194">MethodCallChain</text>
</a>
</g>
<path d="M980 190a10 10 0 0 0 10 -10v-130a10 10 0 0 1 10 -10"></path>
</g>
<path d="M 1000 40 h 20 m -10 -10 v 20 m 10 -20 v 20"></path>
</g>
</svg>
