<svg xmlns="http://www.w3.org/2000/svg" xmlns:xlink="http://www.w3.org/1999/xlink" class="railroad-diagram" width="1448" height="131" viewBox="0 0 1448 131">
<defs>
<style type="text/css"><![CDATA[
path {
stroke-width: 3;
stroke: black;
fill: rgba(0,0,0,0);
}
text {
font: bold 14px monospace;
text-anchor: middle;
}
text.diagram-text {
font-size: 12px;
}
a {
fill: blue;
}
text.diagram-arrow {
font-size: 16px;
}
text.label {
text-anchor: start;
}
text.comment {
font: italic 12px monospace;
}
rect {
stroke-width: 3;
stroke: black;
fill: #BCBCBC;
}
path.diagram-text {
stroke-width: 3;
stroke: black;
fill: #BCBCBC;
cursor: help;
}
]]></style>
</defs>
<g transform="translate(.5 .5)">
<path d="M 20 30 v 20 m 10 -20 v 20 m -10 -10 h 20.5"></path>
<path d="M40 40h10"></path>
<g>
<path d="M50 40h0"></path>
<path d="M1398 40h0"></path>
<g class="terminal">
<path d="M50 40h0"></path>
<path d="M238 40h0"></path>
<rect x="50" y="29" width="188" height="22" rx="10" ry="10"></rect>
<text x="144" y="44">"CALL TRANSFORMATION"</text>
</g>
<path d="M238 40h10"></path>
<path d="M248 40h10"></path>
<g class="non-terminal">
<path d="M258 40h0"></path>
<path d="M318 40h0"></path>
<rect x="258" y="29" width="60" height="22"></rect>
<a xlink:href="reuse_field.svg"><text x="288" y="44">field</text>
</a>
</g>
<path d="M318 40h10"></path>
<g>
<path d="M328 40h0"></path>
<path d="M692 40h0"></path>
<path d="M328 40a10 10 0 0 0 10 -10v0a10 10 0 0 1 10 -10"></path>
<g>
<path d="M348 20h324"></path>
</g>
<path d="M672 20a10 10 0 0 1 10 10v0a10 10 0 0 0 10 10"></path>
<path d="M328 40h20"></path>
<g>
<path d="M348 40h0"></path>
<path d="M672 40h0"></path>
<g class="terminal">
<path d="M348 40h0"></path>
<path d="M440 40h0"></path>
<rect x="348" y="29" width="92" height="22" rx="10" ry="10"></rect>
<text x="394" y="44">"OPTIONS"</text>
</g>
<path d="M440 40h10"></path>
<path d="M450 40h10"></path>
<g class="non-terminal">
<path d="M460 40h0"></path>
<path d="M520 40h0"></path>
<rect x="460" y="29" width="60" height="22"></rect>
<a xlink:href="reuse_field.svg"><text x="490" y="44">field</text>
</a>
</g>
<path d="M520 40h10"></path>
<path d="M530 40h10"></path>
<g class="terminal">
<path d="M540 40h0"></path>
<path d="M584 40h0"></path>
<rect x="540" y="29" width="44" height="22" rx="10" ry="10"></rect>
<text x="562" y="44">"="</text>
</g>
<path d="M584 40h10"></path>
<path d="M594 40h10"></path>
<g class="non-terminal">
<path d="M604 40h0"></path>
<path d="M672 40h0"></path>
<rect x="604" y="29" width="68" height="22"></rect>
<a xlink:href="reuse_source.svg"><text x="638" y="44">source</text>
</a>
</g>
</g>
<path d="M672 40h20"></path>
</g>
<path d="M692 40h10"></path>
<g>
<path d="M702 40h0"></path>
<path d="M1040 40h0"></path>
<g class="terminal">
<path d="M702 40h0"></path>
<path d="M786 40h0"></path>
<rect x="702" y="29" width="84" height="22" rx="10" ry="10"></rect>
<text x="744" y="44">"SOURCE"</text>
</g>
<path d="M786 40h10"></path>
<g>
<path d="M796 40h0"></path>
<path d="M1040 40h0"></path>
<path d="M796 40h20"></path>
<g>
<path d="M816 40h0"></path>
<path d="M1020 40h0"></path>
<g class="non-terminal">
<path d="M816 40h0"></path>
<path d="M876 40h0"></path>
<rect x="816" y="29" width="60" height="22"></rect>
<a xlink:href="reuse_field.svg"><text x="846" y="44">field</text>
</a>
</g>
<path d="M876 40h10"></path>
<path d="M886 40h10"></path>
<g class="terminal">
<path d="M896 40h0"></path>
<path d="M940 40h0"></path>
<rect x="896" y="29" width="44" height="22" rx="10" ry="10"></rect>
<text x="918" y="44">"="</text>
</g>
<path d="M940 40h10"></path>
<path d="M950 40h10"></path>
<g class="non-terminal">
<path d="M960 40h0"></path>
<path d="M1020 40h0"></path>
<rect x="960" y="29" width="60" height="22"></rect>
<a xlink:href="reuse_field.svg"><text x="990" y="44">field</text>
</a>
</g>
</g>
<path d="M1020 40h20"></path>
<path d="M796 40a10 10 0 0 1 10 10v10a10 10 0 0 0 10 10"></path>
<g>
<path d="M816 70h28"></path>
<path d="M992 70h28"></path>
<g class="terminal">
<path d="M844 70h0"></path>
<path d="M904 70h0"></path>
<rect x="844" y="59" width="60" height="22" rx="10" ry="10"></rect>
<text x="874" y="74">"XML"</text>
</g>
<path d="M904 70h10"></path>
<path d="M914 70h10"></path>
<g class="non-terminal">
<path d="M924 70h0"></path>
<path d="M992 70h0"></path>
<rect x="924" y="59" width="68" height="22"></rect>
<a xlink:href="reuse_source.svg"><text x="958" y="74">source</text>
</a>
</g>
</g>
<path d="M1020 70a10 10 0 0 0 10 -10v-10a10 10 0 0 1 10 -10"></path>
<path d="M796 40a10 10 0 0 1 10 10v40a10 10 0 0 0 10 10"></path>
<g>
<path d="M816 100h8"></path>
<path d="M1012 100h8"></path>
<g class="terminal">
<path d="M824 100h0"></path>
<path d="M868 100h0"></path>
<rect x="824" y="89" width="44" height="22" rx="10" ry="10"></rect>
<text x="846" y="104">"("</text>
</g>
<path d="M868 100h10"></path>
<path d="M878 100h10"></path>
<g class="non-terminal">
<path d="M888 100h0"></path>
<path d="M948 100h0"></path>
<rect x="888" y="89" width="60" height="22"></rect>
<a xlink:href="reuse_field.svg"><text x="918" y="104">field</text>
</a>
</g>
<path d="M948 100h10"></path>
<path d="M958 100h10"></path>
<g class="terminal">
<path d="M968 100h0"></path>
<path d="M1012 100h0"></path>
<rect x="968" y="89" width="44" height="22" rx="10" ry="10"></rect>
<text x="990" y="104">")"</text>
</g>
</g>
<path d="M1020 100a10 10 0 0 0 10 -10v-40a10 10 0 0 1 10 -10"></path>
</g>
</g>
<path d="M1040 40h10"></path>
<path d="M1050 40h10"></path>
<g>
<path d="M1060 40h0"></path>
<path d="M1398 40h0"></path>
<g class="terminal">
<path d="M1060 40h0"></path>
<path d="M1144 40h0"></path>
<rect x="1060" y="29" width="84" height="22" rx="10" ry="10"></rect>
<text x="1102" y="44">"RESULT"</text>
</g>
<path d="M1144 40h10"></path>
<g>
<path d="M1154 40h0"></path>
<path d="M1398 40h0"></path>
<path d="M1154 40h20"></path>
<g>
<path d="M1174 40h0"></path>
<path d="M1378 40h0"></path>
<g class="non-terminal">
<path d="M1174 40h0"></path>
<path d="M1234 40h0"></path>
<rect x="1174" y="29" width="60" height="22"></rect>
<a xlink:href="reuse_field.svg"><text x="1204" y="44">field</text>
</a>
</g>
<path d="M1234 40h10"></path>
<path d="M1244 40h10"></path>
<g class="terminal">
<path d="M1254 40h0"></path>
<path d="M1298 40h0"></path>
<rect x="1254" y="29" width="44" height="22" rx="10" ry="10"></rect>
<text x="1276" y="44">"="</text>
</g>
<path d="M1298 40h10"></path>
<path d="M1308 40h10"></path>
<g class="non-terminal">
<path d="M1318 40h0"></path>
<path d="M1378 40h0"></path>
<rect x="1318" y="29" width="60" height="22"></rect>
<a xlink:href="reuse_field.svg"><text x="1348" y="44">field</text>
</a>
</g>
</g>
<path d="M1378 40h20"></path>
<path d="M1154 40a10 10 0 0 1 10 10v10a10 10 0 0 0 10 10"></path>
<g>
<path d="M1174 70h28"></path>
<path d="M1350 70h28"></path>
<g class="terminal">
<path d="M1202 70h0"></path>
<path d="M1262 70h0"></path>
<rect x="1202" y="59" width="60" height="22" rx="10" ry="10"></rect>
<text x="1232" y="74">"XML"</text>
</g>
<path d="M1262 70h10"></path>
<path d="M1272 70h10"></path>
<g class="non-terminal">
<path d="M1282 70h0"></path>
<path d="M1350 70h0"></path>
<rect x="1282" y="59" width="68" height="22"></rect>
<a xlink:href="reuse_target.svg"><text x="1316" y="74">target</text>
</a>
</g>
</g>
<path d="M1378 70a10 10 0 0 0 10 -10v-10a10 10 0 0 1 10 -10"></path>
<path d="M1154 40a10 10 0 0 1 10 10v40a10 10 0 0 0 10 10"></path>
<g>
<path d="M1174 100h8"></path>
<path d="M1370 100h8"></path>
<g class="terminal">
<path d="M1182 100h0"></path>
<path d="M1226 100h0"></path>
<rect x="1182" y="89" width="44" height="22" rx="10" ry="10"></rect>
<text x="1204" y="104">"("</text>
</g>
<path d="M1226 100h10"></path>
<path d="M1236 100h10"></path>
<g class="non-terminal">
<path d="M1246 100h0"></path>
<path d="M1306 100h0"></path>
<rect x="1246" y="89" width="60" height="22"></rect>
<a xlink:href="reuse_field.svg"><text x="1276" y="104">field</text>
</a>
</g>
<path d="M1306 100h10"></path>
<path d="M1316 100h10"></path>
<g class="terminal">
<path d="M1326 100h0"></path>
<path d="M1370 100h0"></path>
<rect x="1326" y="89" width="44" height="22" rx="10" ry="10"></rect>
<text x="1348" y="104">")"</text>
</g>
</g>
<path d="M1378 100a10 10 0 0 0 10 -10v-40a10 10 0 0 1 10 -10"></path>
</g>
</g>
</g>
<path d="M1398 40h10"></path>
<path d="M 1408 40 h 20 m -10 -10 v 20 m 10 -20 v 20"></path>
</g>
</svg>
