<svg xmlns="http://www.w3.org/2000/svg" xmlns:xlink="http://www.w3.org/1999/xlink" class="railroad-diagram" width="1982" height="71" viewBox="0 0 1982 71">
<defs>
<style type="text/css"><![CDATA[
path {
stroke-width: 3;
stroke: black;
fill: rgba(0,0,0,0);
}
text {
font: bold 14px monospace;
text-anchor: middle;
}
text.diagram-text {
font-size: 12px;
}
a {
fill: blue;
}
text.diagram-arrow {
font-size: 16px;
}
text.label {
text-anchor: start;
}
text.comment {
font: italic 12px monospace;
}
rect {
stroke-width: 3;
stroke: black;
fill: #BCBCBC;
}
path.diagram-text {
stroke-width: 3;
stroke: black;
fill: #BCBCBC;
cursor: help;
}
]]></style>
</defs>
<g transform="translate(.5 .5)">
<path d="M 20 30 v 20 m 10 -20 v 20 m -10 -10 h 20.5"></path>
<path d="M40 40h10"></path>
<g>
<path d="M50 40h0"></path>
<path d="M1932 40h0"></path>
<g class="terminal">
<path d="M50 40h0"></path>
<path d="M214 40h0"></path>
<rect x="50" y="29" width="164" height="22" rx="10" ry="10"></rect>
<text x="132" y="44">"CALL TRANSACTION"</text>
</g>
<path d="M214 40h10"></path>
<path d="M224 40h10"></path>
<g class="non-terminal">
<path d="M234 40h0"></path>
<path d="M302 40h0"></path>
<rect x="234" y="29" width="68" height="22"></rect>
<a xlink:href="reuse_source.svg"><text x="268" y="44">Source</text>
</a>
</g>
<path d="M302 40h10"></path>
<g>
<path d="M312 40h0"></path>
<path d="M548 40h0"></path>
<path d="M312 40a10 10 0 0 0 10 -10v0a10 10 0 0 1 10 -10"></path>
<g>
<path d="M332 20h196"></path>
</g>
<path d="M528 20a10 10 0 0 1 10 10v0a10 10 0 0 0 10 10"></path>
<path d="M312 40h20"></path>
<g class="terminal">
<path d="M332 40h0"></path>
<path d="M528 40h0"></path>
<rect x="332" y="29" width="196" height="22" rx="10" ry="10"></rect>
<text x="430" y="44">"WITH AUTHORITY-CHECK"</text>
</g>
<path d="M528 40h20"></path>
</g>
<g>
<path d="M548 40h0"></path>
<path d="M752 40h0"></path>
<path d="M548 40a10 10 0 0 0 10 -10v0a10 10 0 0 1 10 -10"></path>
<g>
<path d="M568 20h164"></path>
</g>
<path d="M732 20a10 10 0 0 1 10 10v0a10 10 0 0 0 10 10"></path>
<path d="M548 40h20"></path>
<g>
<path d="M568 40h0"></path>
<path d="M732 40h0"></path>
<g class="terminal">
<path d="M568 40h0"></path>
<path d="M644 40h0"></path>
<rect x="568" y="29" width="76" height="22" rx="10" ry="10"></rect>
<text x="606" y="44">"USING"</text>
</g>
<path d="M644 40h10"></path>
<path d="M654 40h10"></path>
<g class="non-terminal">
<path d="M664 40h0"></path>
<path d="M732 40h0"></path>
<rect x="664" y="29" width="68" height="22"></rect>
<a xlink:href="reuse_source.svg"><text x="698" y="44">Source</text>
</a>
</g>
</g>
<path d="M732 40h20"></path>
</g>
<g>
<path d="M752 40h0"></path>
<path d="M948 40h0"></path>
<path d="M752 40a10 10 0 0 0 10 -10v0a10 10 0 0 1 10 -10"></path>
<g>
<path d="M772 20h156"></path>
</g>
<path d="M928 20a10 10 0 0 1 10 10v0a10 10 0 0 0 10 10"></path>
<path d="M752 40h20"></path>
<g>
<path d="M772 40h0"></path>
<path d="M928 40h0"></path>
<g class="terminal">
<path d="M772 40h0"></path>
<path d="M840 40h0"></path>
<rect x="772" y="29" width="68" height="22" rx="10" ry="10"></rect>
<text x="806" y="44">"MODE"</text>
</g>
<path d="M840 40h10"></path>
<path d="M850 40h10"></path>
<g class="non-terminal">
<path d="M860 40h0"></path>
<path d="M928 40h0"></path>
<rect x="860" y="29" width="68" height="22"></rect>
<a xlink:href="reuse_source.svg"><text x="894" y="44">Source</text>
</a>
</g>
</g>
<path d="M928 40h20"></path>
</g>
<g>
<path d="M948 40h0"></path>
<path d="M1160 40h0"></path>
<path d="M948 40a10 10 0 0 0 10 -10v0a10 10 0 0 1 10 -10"></path>
<g>
<path d="M968 20h172"></path>
</g>
<path d="M1140 20a10 10 0 0 1 10 10v0a10 10 0 0 0 10 10"></path>
<path d="M948 40h20"></path>
<g>
<path d="M968 40h0"></path>
<path d="M1140 40h0"></path>
<g class="terminal">
<path d="M968 40h0"></path>
<path d="M1052 40h0"></path>
<rect x="968" y="29" width="84" height="22" rx="10" ry="10"></rect>
<text x="1010" y="44">"UPDATE"</text>
</g>
<path d="M1052 40h10"></path>
<path d="M1062 40h10"></path>
<g class="non-terminal">
<path d="M1072 40h0"></path>
<path d="M1140 40h0"></path>
<rect x="1072" y="29" width="68" height="22"></rect>
<a xlink:href="reuse_source.svg"><text x="1106" y="44">Source</text>
</a>
</g>
</g>
<path d="M1140 40h20"></path>
</g>
<g>
<path d="M1160 40h0"></path>
<path d="M1404 40h0"></path>
<path d="M1160 40a10 10 0 0 0 10 -10v0a10 10 0 0 1 10 -10"></path>
<g>
<path d="M1180 20h204"></path>
</g>
<path d="M1384 20a10 10 0 0 1 10 10v0a10 10 0 0 0 10 10"></path>
<path d="M1160 40h20"></path>
<g class="terminal">
<path d="M1180 40h0"></path>
<path d="M1384 40h0"></path>
<rect x="1180" y="29" width="204" height="22" rx="10" ry="10"></rect>
<text x="1282" y="44">"AND SKIP FIRST SCREEN"</text>
</g>
<path d="M1384 40h20"></path>
</g>
<g>
<path d="M1404 40h0"></path>
<path d="M1664 40h0"></path>
<path d="M1404 40a10 10 0 0 0 10 -10v0a10 10 0 0 1 10 -10"></path>
<g>
<path d="M1424 20h220"></path>
</g>
<path d="M1644 20a10 10 0 0 1 10 10v0a10 10 0 0 0 10 10"></path>
<path d="M1404 40h20"></path>
<g>
<path d="M1424 40h0"></path>
<path d="M1644 40h0"></path>
<g class="terminal">
<path d="M1424 40h0"></path>
<path d="M1556 40h0"></path>
<rect x="1424" y="29" width="132" height="22" rx="10" ry="10"></rect>
<text x="1490" y="44">"OPTIONS FROM"</text>
</g>
<path d="M1556 40h10"></path>
<path d="M1566 40h10"></path>
<g class="non-terminal">
<path d="M1576 40h0"></path>
<path d="M1644 40h0"></path>
<rect x="1576" y="29" width="68" height="22"></rect>
<a xlink:href="reuse_source.svg"><text x="1610" y="44">Source</text>
</a>
</g>
</g>
<path d="M1644 40h20"></path>
</g>
<g>
<path d="M1664 40h0"></path>
<path d="M1932 40h0"></path>
<path d="M1664 40a10 10 0 0 0 10 -10v0a10 10 0 0 1 10 -10"></path>
<g>
<path d="M1684 20h228"></path>
</g>
<path d="M1912 20a10 10 0 0 1 10 10v0a10 10 0 0 0 10 10"></path>
<path d="M1664 40h20"></path>
<g>
<path d="M1684 40h0"></path>
<path d="M1912 40h0"></path>
<g class="terminal">
<path d="M1684 40h0"></path>
<path d="M1824 40h0"></path>
<rect x="1684" y="29" width="140" height="22" rx="10" ry="10"></rect>
<text x="1754" y="44">"MESSAGES INTO"</text>
</g>
<path d="M1824 40h10"></path>
<path d="M1834 40h10"></path>
<g class="non-terminal">
<path d="M1844 40h0"></path>
<path d="M1912 40h0"></path>
<rect x="1844" y="29" width="68" height="22"></rect>
<a xlink:href="reuse_target.svg"><text x="1878" y="44">Target</text>
</a>
</g>
</g>
<path d="M1912 40h20"></path>
</g>
</g>
<path d="M1932 40h10"></path>
<path d="M 1942 40 h 20 m -10 -10 v 20 m 10 -20 v 20"></path>
</g>
</svg>
