<svg xmlns="http://www.w3.org/2000/svg" xmlns:xlink="http://www.w3.org/1999/xlink" class="railroad-diagram" width="1582" height="230" viewBox="0 0 1582 230">
<defs>
<style type="text/css"><![CDATA[
path {
stroke-width: 3;
stroke: black;
fill: rgba(0,0,0,0);
}
text {
font: bold 14px monospace;
text-anchor: middle;
}
text.diagram-text {
font-size: 12px;
}
a {
fill: blue;
}
text.diagram-arrow {
font-size: 16px;
}
text.label {
text-anchor: start;
}
text.comment {
font: italic 12px monospace;
}
rect {
stroke-width: 3;
stroke: black;
fill: #BCBCBC;
}
path.diagram-text {
stroke-width: 3;
stroke: black;
fill: #BCBCBC;
cursor: help;
}
]]></style>
</defs>
<g transform="translate(.5 .5)">
<path d="M 20 30 v 20 m 10 -20 v 20 m -10 -10 h 20.5"></path>
<path d="M40 40h10"></path>
<g>
<path d="M50 40h0"></path>
<path d="M1532 40h0"></path>
<g class="terminal">
<path d="M50 40h0"></path>
<path d="M118 40h0"></path>
<rect x="50" y="29" width="68" height="22" rx="10" ry="10"></rect>
<text x="84" y="44">"CALL"</text>
</g>
<path d="M118 40h10"></path>
<g>
<path d="M128 40h0"></path>
<path d="M340 40h0"></path>
<path d="M128 40h20"></path>
<g class="terminal">
<path d="M148 40h0"></path>
<path d="M248 40h72"></path>
<rect x="148" y="29" width="100" height="22" rx="10" ry="10"></rect>
<text x="198" y="44">"FUNCTION"</text>
</g>
<path d="M320 40h20"></path>
<path d="M128 40a10 10 0 0 1 10 10v10a10 10 0 0 0 10 10"></path>
<g class="terminal">
<path d="M148 70h0"></path>
<path d="M320 70h0"></path>
<rect x="148" y="59" width="172" height="22" rx="10" ry="10"></rect>
<text x="234" y="74">"CUSTOMER-FUNCTION"</text>
</g>
<path d="M320 70a10 10 0 0 0 10 -10v-10a10 10 0 0 1 10 -10"></path>
</g>
<g>
<path d="M340 40h0"></path>
<path d="M480 40h0"></path>
<path d="M340 40h20"></path>
<g class="non-terminal">
<path d="M360 40h0"></path>
<path d="M444 40h16"></path>
<rect x="360" y="29" width="84" height="22"></rect>
<a xlink:href="reuse_constant.svg"><text x="402" y="44">Constant</text>
</a>
</g>
<path d="M460 40h20"></path>
<path d="M340 40a10 10 0 0 1 10 10v10a10 10 0 0 0 10 10"></path>
<g class="non-terminal">
<path d="M360 70h0"></path>
<path d="M460 70h0"></path>
<rect x="360" y="59" width="100" height="22"></rect>
<a xlink:href="reuse_fieldchain.svg"><text x="410" y="74">FieldChain</text>
</a>
</g>
<path d="M460 70a10 10 0 0 0 10 -10v-10a10 10 0 0 1 10 -10"></path>
</g>
<g>
<path d="M480 40h0"></path>
<path d="M954 40h0"></path>
<path d="M480 40a10 10 0 0 0 10 -10v0a10 10 0 0 1 10 -10"></path>
<g>
<path d="M500 20h434"></path>
</g>
<path d="M934 20a10 10 0 0 1 10 10v0a10 10 0 0 0 10 10"></path>
<path d="M480 40h20"></path>
<g>
<path d="M500 40h0"></path>
<path d="M934 40h0"></path>
<path d="M530 40h10"></path>
<g>
<path d="M540 40h0"></path>
<path d="M846 40h58"></path>
<g class="terminal">
<path d="M540 40h0"></path>
<path d="M712 40h0"></path>
<rect x="540" y="29" width="172" height="22" rx="10" ry="10"></rect>
<text x="626" y="44">"STARTING NEW TASK"</text>
</g>
<path d="M712 40h10"></path>
<g>
<path d="M722 40h0"></path>
<path d="M846 40h0"></path>
<path d="M722 40h20"></path>
<g class="non-terminal">
<path d="M742 40h0"></path>
<path d="M826 40h0"></path>
<rect x="742" y="29" width="84" height="22"></rect>
<a xlink:href="reuse_constant.svg"><text x="784" y="44">Constant</text>
</a>
</g>
<path d="M826 40h20"></path>
<path d="M722 40a10 10 0 0 1 10 10v10a10 10 0 0 0 10 10"></path>
<g class="non-terminal">
<path d="M742 70h0"></path>
<path d="M802 70h24"></path>
<rect x="742" y="59" width="60" height="22"></rect>
<a xlink:href="reuse_field.svg"><text x="772" y="74">Field</text>
</a>
</g>
<path d="M826 70a10 10 0 0 0 10 -10v-10a10 10 0 0 1 10 -10"></path>
</g>
</g>
<path d="M904 40h10"></path>
<path d="M530 40v50a10 10 0 0 0 10 10"></path>
<g class="terminal">
<path d="M540 100h0"></path>
<path d="M688 100h216"></path>
<rect x="540" y="89" width="148" height="22" rx="10" ry="10"></rect>
<text x="614" y="104">"IN UPDATE TASK"</text>
</g>
<path d="M904 100a10 10 0 0 0 10 -10v-50"></path>
<path d="M530 40v80a10 10 0 0 0 10 10"></path>
<g class="terminal">
<path d="M540 130h0"></path>
<path d="M720 130h184"></path>
<rect x="540" y="119" width="180" height="22" rx="10" ry="10"></rect>
<text x="630" y="134">"IN BACKGROUND TASK"</text>
</g>
<path d="M904 130a10 10 0 0 0 10 -10v-80"></path>
<path d="M530 40v119a10 10 0 0 0 10 10"></path>
<g>
<path d="M540 169h0"></path>
<path d="M892 169h12"></path>
<g class="terminal">
<path d="M540 169h0"></path>
<path d="M664 169h0"></path>
<rect x="540" y="158" width="124" height="22" rx="10" ry="10"></rect>
<text x="602" y="173">"DESTINATION"</text>
</g>
<path d="M664 169h10"></path>
<g>
<path d="M674 169h0"></path>
<path d="M814 169h0"></path>
<path d="M674 169a10 10 0 0 0 10 -10v0a10 10 0 0 1 10 -10"></path>
<g>
<path d="M694 149h100"></path>
</g>
<path d="M794 149a10 10 0 0 1 10 10v0a10 10 0 0 0 10 10"></path>
<path d="M674 169h20"></path>
<g class="terminal">
<path d="M694 169h0"></path>
<path d="M794 169h0"></path>
<rect x="694" y="158" width="100" height="22" rx="10" ry="10"></rect>
<text x="744" y="173">"IN GROUP"</text>
</g>
<path d="M794 169h20"></path>
</g>
<path d="M814 169h10"></path>
<g class="non-terminal">
<path d="M824 169h0"></path>
<path d="M892 169h0"></path>
<rect x="824" y="158" width="68" height="22"></rect>
<a xlink:href="reuse_source.svg"><text x="858" y="173">Source</text>
</a>
</g>
</g>
<path d="M904 169a10 10 0 0 0 10 -10v-119"></path>
<path d="M530 40v149a10 10 0 0 0 10 10"></path>
<g>
<path d="M540 199h0"></path>
<path d="M904 199h0"></path>
<g class="terminal">
<path d="M540 199h0"></path>
<path d="M632 199h0"></path>
<rect x="540" y="188" width="92" height="22" rx="10" ry="10"></rect>
<text x="586" y="203">"CALLING"</text>
</g>
<path d="M632 199h10"></path>
<path d="M642 199h10"></path>
<g class="non-terminal">
<path d="M652 199h0"></path>
<path d="M736 199h0"></path>
<rect x="652" y="188" width="84" height="22"></rect>
<a xlink:href="reuse_formname.svg"><text x="694" y="203">FormName</text>
</a>
</g>
<path d="M736 199h10"></path>
<path d="M746 199h10"></path>
<g class="terminal">
<path d="M756 199h0"></path>
<path d="M904 199h0"></path>
<rect x="756" y="188" width="148" height="22" rx="10" ry="10"></rect>
<text x="830" y="203">"ON END OF TASK"</text>
</g>
</g>
<path d="M904 199a10 10 0 0 0 10 -10v-149"></path>
<g class="diagram-text">
<title>take one or more branches, once each, in any order</title>
<path d="M 530 30 h -26 a 4 4 0 0 0 -4 4 v 12 a 4 4 0 0 0 4 4 h 26 z" class="diagram-text"></path>
<text x="515" y="44" class="diagram-text">1+</text>
<path d="M 914 30 h 16 a 4 4 0 0 1 4 4 v 12 a 4 4 0 0 1 -4 4 h -16 z" class="diagram-text"></path>
<path d="M 921 38 a 4 4 0 1 0 6 -1 m 2.75 -1 h -4 v 4 m 0 -3 h 2" style="stroke-width: 1.75"></path>
</g>
</g>
<path d="M934 40h20"></path>
</g>
<g>
<path d="M954 40h0"></path>
<path d="M1532 40h0"></path>
<path d="M954 40h20"></path>
<g class="non-terminal">
<path d="M974 40h0"></path>
<path d="M1138 40h374"></path>
<rect x="974" y="29" width="164" height="22"></rect>
<a xlink:href="reuse_functionparameters.svg"><text x="1056" y="44">FunctionParameters</text>
</a>
</g>
<path d="M1512 40h20"></path>
<path d="M954 40a10 10 0 0 1 10 10v19a10 10 0 0 0 10 10"></path>
<g>
<path d="M974 79h0"></path>
<path d="M1512 79h0"></path>
<g class="terminal">
<path d="M974 79h0"></path>
<path d="M1130 79h0"></path>
<rect x="974" y="68" width="156" height="22" rx="10" ry="10"></rect>
<text x="1052" y="83">"PARAMETER-TABLE"</text>
</g>
<path d="M1130 79h10"></path>
<path d="M1140 79h10"></path>
<g class="non-terminal">
<path d="M1150 79h0"></path>
<path d="M1218 79h0"></path>
<rect x="1150" y="68" width="68" height="22"></rect>
<a xlink:href="reuse_source.svg"><text x="1184" y="83">Source</text>
</a>
</g>
<path d="M1218 79h10"></path>
<g>
<path d="M1228 79h0"></path>
<path d="M1512 79h0"></path>
<path d="M1228 79a10 10 0 0 0 10 -10v0a10 10 0 0 1 10 -10"></path>
<g>
<path d="M1248 59h244"></path>
</g>
<path d="M1492 59a10 10 0 0 1 10 10v0a10 10 0 0 0 10 10"></path>
<path d="M1228 79h20"></path>
<g>
<path d="M1248 79h0"></path>
<path d="M1492 79h0"></path>
<g class="terminal">
<path d="M1248 79h0"></path>
<path d="M1404 79h0"></path>
<rect x="1248" y="68" width="156" height="22" rx="10" ry="10"></rect>
<text x="1326" y="83">"EXCEPTION-TABLE"</text>
</g>
<path d="M1404 79h10"></path>
<path d="M1414 79h10"></path>
<g class="non-terminal">
<path d="M1424 79h0"></path>
<path d="M1492 79h0"></path>
<rect x="1424" y="68" width="68" height="22"></rect>
<a xlink:href="reuse_source.svg"><text x="1458" y="83">Source</text>
</a>
</g>
</g>
<path d="M1492 79h20"></path>
</g>
</g>
<path d="M1512 79a10 10 0 0 0 10 -10v-19a10 10 0 0 1 10 -10"></path>
</g>
</g>
<path d="M1532 40h10"></path>
<path d="M 1542 40 h 20 m -10 -10 v 20 m 10 -20 v 20"></path>
</g>
</svg>
