<svg xmlns="http://www.w3.org/2000/svg" xmlns:xlink="http://www.w3.org/1999/xlink" class="railroad-diagram" width="686" height="101" viewBox="0 0 686 101">
<defs>
<style type="text/css"><![CDATA[
path {
stroke-width: 3;
stroke: black;
fill: rgba(0,0,0,0);
}
text {
font: bold 14px monospace;
text-anchor: middle;
}
text.diagram-text {
font-size: 12px;
}
a {
fill: blue;
}
text.diagram-arrow {
font-size: 16px;
}
text.label {
text-anchor: start;
}
text.comment {
font: italic 12px monospace;
}
rect {
stroke-width: 3;
stroke: black;
fill: #BCBCBC;
}
path.diagram-text {
stroke-width: 3;
stroke: black;
fill: #BCBCBC;
cursor: help;
}
]]></style>
</defs>
<g transform="translate(.5 .5)">
<path d="M 20 30 v 20 m 10 -20 v 20 m -10 -10 h 20.5"></path>
<path d="M40 40h10"></path>
<g>
<path d="M50 40h0"></path>
<path d="M636 40h0"></path>
<g class="terminal">
<path d="M50 40h0"></path>
<path d="M118 40h0"></path>
<rect x="50" y="29" width="68" height="22" rx="10" ry="10"></rect>
<text x="84" y="44">"CALL"</text>
</g>
<path d="M118 40h10"></path>
<g>
<path d="M128 40h0"></path>
<path d="M252 40h0"></path>
<path d="M128 40h20"></path>
<g class="non-terminal">
<path d="M148 40h0"></path>
<path d="M232 40h0"></path>
<rect x="148" y="29" width="84" height="22"></rect>
<a xlink:href="reuse_constant.svg"><text x="190" y="44">Constant</text>
</a>
</g>
<path d="M232 40h20"></path>
<path d="M128 40a10 10 0 0 1 10 10v10a10 10 0 0 0 10 10"></path>
<g class="non-terminal">
<path d="M148 70h0"></path>
<path d="M208 70h24"></path>
<rect x="148" y="59" width="60" height="22"></rect>
<a xlink:href="reuse_field.svg"><text x="178" y="74">Field</text>
</a>
</g>
<path d="M232 70a10 10 0 0 0 10 -10v-10a10 10 0 0 1 10 -10"></path>
</g>
<g>
<path d="M252 40h0"></path>
<path d="M636 40h0"></path>
<path d="M252 40a10 10 0 0 0 10 -10v0a10 10 0 0 1 10 -10"></path>
<g>
<path d="M272 20h344"></path>
</g>
<path d="M616 20a10 10 0 0 1 10 10v0a10 10 0 0 0 10 10"></path>
<path d="M252 40h20"></path>
<g>
<path d="M272 40h0"></path>
<path d="M616 40h0"></path>
<path d="M272 40h10"></path>
<g>
<path d="M282 40h0"></path>
<path d="M606 40h0"></path>
<g class="terminal">
<path d="M282 40h0"></path>
<path d="M334 40h0"></path>
<rect x="282" y="29" width="52" height="22" rx="10" ry="10"></rect>
<text x="308" y="44">"ID"</text>
</g>
<path d="M334 40h10"></path>
<path d="M344 40h10"></path>
<g class="non-terminal">
<path d="M354 40h0"></path>
<path d="M422 40h0"></path>
<rect x="354" y="29" width="68" height="22"></rect>
<a xlink:href="reuse_source.svg"><text x="388" y="44">Source</text>
</a>
</g>
<path d="M422 40h10"></path>
<path d="M432 40h10"></path>
<g class="terminal">
<path d="M442 40h0"></path>
<path d="M518 40h0"></path>
<rect x="442" y="29" width="76" height="22" rx="10" ry="10"></rect>
<text x="480" y="44">"FIELD"</text>
</g>
<path d="M518 40h10"></path>
<path d="M528 40h10"></path>
<g class="non-terminal">
<path d="M538 40h0"></path>
<path d="M606 40h0"></path>
<rect x="538" y="29" width="68" height="22"></rect>
<a xlink:href="reuse_source.svg"><text x="572" y="44">Source</text>
</a>
</g>
</g>
<path d="M606 40h10"></path>
<path d="M282 40a10 10 0 0 0 -10 10v0a10 10 0 0 0 10 10"></path>
<g>
<path d="M282 60h324"></path>
</g>
<path d="M606 60a10 10 0 0 0 10 -10v0a10 10 0 0 0 -10 -10"></path>
</g>
<path d="M616 40h20"></path>
</g>
</g>
<path d="M636 40h10"></path>
<path d="M 646 40 h 20 m -10 -10 v 20 m 10 -20 v 20"></path>
</g>
</svg>
