<svg xmlns="http://www.w3.org/2000/svg" xmlns:xlink="http://www.w3.org/1999/xlink" class="railroad-diagram" width="800" height="88" viewBox="0 0 800 88">
<defs>
<style type="text/css"><![CDATA[
path {
stroke-width: 3;
stroke: black;
fill: rgba(0,0,0,0);
}
text {
font: bold 14px monospace;
text-anchor: middle;
}
text.diagram-text {
font-size: 12px;
}
a {
fill: blue;
}
text.diagram-arrow {
font-size: 16px;
}
text.label {
text-anchor: start;
}
text.comment {
font: italic 12px monospace;
}
rect {
stroke-width: 3;
stroke: black;
fill: #BCBCBC;
}
path.diagram-text {
stroke-width: 3;
stroke: black;
fill: #BCBCBC;
cursor: help;
}
]]></style>
</defs>
<g transform="translate(.5 .5)">
<path d="M 20 38 v 20 m 10 -20 v 20 m -10 -10 h 20.5"></path>
<path d="M40 48h10"></path>
<g>
<path d="M50 48h0"></path>
<path d="M750 48h0"></path>
<g class="terminal">
<path d="M50 48h0"></path>
<path d="M174 48h0"></path>
<rect x="50" y="37" width="124" height="22" rx="10" ry="10"></rect>
<text x="112" y="52">"CALL DIALOG"</text>
</g>
<path d="M174 48h10"></path>
<path d="M184 48h10"></path>
<g class="non-terminal">
<path d="M194 48h0"></path>
<path d="M278 48h0"></path>
<rect x="194" y="37" width="84" height="22"></rect>
<a xlink:href="reuse_constant.svg"><text x="236" y="52">Constant</text>
</a>
</g>
<path d="M278 48h10"></path>
<g>
<path d="M288 48h0"></path>
<path d="M750 48h0"></path>
<path d="M288 48a10 10 0 0 0 10 -10v-8a10 10 0 0 1 10 -10"></path>
<g>
<path d="M308 20h422"></path>
</g>
<path d="M730 20a10 10 0 0 1 10 10v8a10 10 0 0 0 10 10"></path>
<path d="M288 48h20"></path>
<g>
<path d="M308 48h0"></path>
<path d="M730 48h0"></path>
<g class="terminal">
<path d="M308 48h0"></path>
<path d="M416 48h0"></path>
<rect x="308" y="37" width="108" height="22" rx="10" ry="10"></rect>
<text x="362" y="52">"EXPORTING"</text>
</g>
<path d="M416 48h10"></path>
<path d="M426 48h10"></path>
<g>
<path d="M436 48h0"></path>
<path d="M730 48h0"></path>
<path d="M436 48h10"></path>
<g>
<path d="M446 48h0"></path>
<path d="M720 48h0"></path>
<g class="non-terminal">
<path d="M446 48h0"></path>
<path d="M514 48h0"></path>
<rect x="446" y="37" width="68" height="22"></rect>
<a xlink:href="reuse_target.svg"><text x="480" y="52">Target</text>
</a>
</g>
<path d="M514 48h10"></path>
<g>
<path d="M524 48h0"></path>
<path d="M720 48h0"></path>
<path d="M524 48a10 10 0 0 0 10 -10v0a10 10 0 0 1 10 -10"></path>
<g>
<path d="M544 28h156"></path>
</g>
<path d="M700 28a10 10 0 0 1 10 10v0a10 10 0 0 0 10 10"></path>
<path d="M524 48h20"></path>
<g>
<path d="M544 48h0"></path>
<path d="M700 48h0"></path>
<g class="terminal">
<path d="M544 48h0"></path>
<path d="M612 48h0"></path>
<rect x="544" y="37" width="68" height="22" rx="10" ry="10"></rect>
<text x="578" y="52">"FROM"</text>
</g>
<path d="M612 48h10"></path>
<path d="M622 48h10"></path>
<g class="non-terminal">
<path d="M632 48h0"></path>
<path d="M700 48h0"></path>
<rect x="632" y="37" width="68" height="22"></rect>
<a xlink:href="reuse_source.svg"><text x="666" y="52">Source</text>
</a>
</g>
</g>
<path d="M700 48h20"></path>
</g>
</g>
<path d="M720 48h10"></path>
<path d="M446 48a10 10 0 0 0 -10 10v0a10 10 0 0 0 10 10"></path>
<g>
<path d="M446 68h274"></path>
</g>
<path d="M720 68a10 10 0 0 0 10 -10v0a10 10 0 0 0 -10 -10"></path>
</g>
</g>
<path d="M730 48h20"></path>
</g>
</g>
<path d="M750 48h10"></path>
<path d="M 760 48 h 20 m -10 -10 v 20 m 10 -20 v 20"></path>
</g>
</svg>
