<svg xmlns="http://www.w3.org/2000/svg" xmlns:xlink="http://www.w3.org/1999/xlink" class="railroad-diagram" width="1470" height="161" viewBox="0 0 1470 161">
<defs>
<style type="text/css"><![CDATA[
path {
stroke-width: 3;
stroke: black;
fill: rgba(0,0,0,0);
}
text {
font: bold 14px monospace;
text-anchor: middle;
}
text.diagram-text {
font-size: 12px;
}
a {
fill: blue;
}
text.diagram-arrow {
font-size: 16px;
}
text.label {
text-anchor: start;
}
text.comment {
font: italic 12px monospace;
}
rect {
stroke-width: 3;
stroke: black;
fill: #BCBCBC;
}
path.diagram-text {
stroke-width: 3;
stroke: black;
fill: #BCBCBC;
cursor: help;
}
]]></style>
</defs>
<g transform="translate(.5 .5)">
<path d="M 20 30 v 20 m 10 -20 v 20 m -10 -10 h 20.5"></path>
<path d="M40 40h10"></path>
<g>
<path d="M50 40h0"></path>
<path d="M1420 40h0"></path>
<g class="terminal">
<path d="M50 40h0"></path>
<path d="M118 40h0"></path>
<rect x="50" y="29" width="68" height="22" rx="10" ry="10"></rect>
<text x="84" y="44">"CALL"</text>
</g>
<path d="M118 40h10"></path>
<g>
<path d="M128 40h0"></path>
<path d="M340 40h0"></path>
<path d="M128 40h20"></path>
<g class="terminal">
<path d="M148 40h0"></path>
<path d="M248 40h72"></path>
<rect x="148" y="29" width="100" height="22" rx="10" ry="10"></rect>
<text x="198" y="44">"FUNCTION"</text>
</g>
<path d="M320 40h20"></path>
<path d="M128 40a10 10 0 0 1 10 10v10a10 10 0 0 0 10 10"></path>
<g class="terminal">
<path d="M148 70h0"></path>
<path d="M320 70h0"></path>
<rect x="148" y="59" width="172" height="22" rx="10" ry="10"></rect>
<text x="234" y="74">"CUSTOMER-FUNCTION"</text>
</g>
<path d="M320 70a10 10 0 0 0 10 -10v-10a10 10 0 0 1 10 -10"></path>
</g>
<g>
<path d="M340 40h0"></path>
<path d="M480 40h0"></path>
<path d="M340 40h20"></path>
<g class="non-terminal">
<path d="M360 40h0"></path>
<path d="M444 40h16"></path>
<rect x="360" y="29" width="84" height="22"></rect>
<a xlink:href="reuse_constant.svg"><text x="402" y="44">Constant</text>
</a>
</g>
<path d="M460 40h20"></path>
<path d="M340 40a10 10 0 0 1 10 10v10a10 10 0 0 0 10 10"></path>
<g class="non-terminal">
<path d="M360 70h0"></path>
<path d="M460 70h0"></path>
<rect x="360" y="59" width="100" height="22"></rect>
<a xlink:href="reuse_fieldchain.svg"><text x="410" y="74">FieldChain</text>
</a>
</g>
<path d="M460 70a10 10 0 0 0 10 -10v-10a10 10 0 0 1 10 -10"></path>
</g>
<g>
<path d="M480 40h0"></path>
<path d="M842 40h0"></path>
<path d="M480 40a10 10 0 0 0 10 -10v0a10 10 0 0 1 10 -10"></path>
<g>
<path d="M500 20h322"></path>
</g>
<path d="M822 20a10 10 0 0 1 10 10v0a10 10 0 0 0 10 10"></path>
<path d="M480 40h20"></path>
<g>
<path d="M500 40h0"></path>
<path d="M822 40h0"></path>
<path d="M500 40h20"></path>
<g>
<path d="M520 40h0"></path>
<path d="M796 40h6"></path>
<g class="terminal">
<path d="M520 40h0"></path>
<path d="M692 40h0"></path>
<rect x="520" y="29" width="172" height="22" rx="10" ry="10"></rect>
<text x="606" y="44">"STARTING NEW TASK"</text>
</g>
<path d="M692 40h10"></path>
<path d="M702 40h10"></path>
<g class="non-terminal">
<path d="M712 40h0"></path>
<path d="M796 40h0"></path>
<rect x="712" y="29" width="84" height="22"></rect>
<a xlink:href="reuse_constant.svg"><text x="754" y="44">Constant</text>
</a>
</g>
</g>
<path d="M802 40h20"></path>
<path d="M500 40a10 10 0 0 1 10 10v10a10 10 0 0 0 10 10"></path>
<g class="terminal">
<path d="M520 70h0"></path>
<path d="M668 70h134"></path>
<rect x="520" y="59" width="148" height="22" rx="10" ry="10"></rect>
<text x="594" y="74">"IN UPDATE TASK"</text>
</g>
<path d="M802 70a10 10 0 0 0 10 -10v-10a10 10 0 0 1 10 -10"></path>
<path d="M500 40a10 10 0 0 1 10 10v40a10 10 0 0 0 10 10"></path>
<g>
<path d="M520 100h0"></path>
<path d="M802 100h0"></path>
<path d="M550 100h10"></path>
<g class="terminal">
<path d="M560 100h0"></path>
<path d="M740 100h32"></path>
<rect x="560" y="89" width="180" height="22" rx="10" ry="10"></rect>
<text x="650" y="104">"IN BACKGROUND TASK"</text>
</g>
<path d="M772 100h10"></path>
<path d="M550 100v20a10 10 0 0 0 10 10"></path>
<g>
<path d="M560 130h0"></path>
<path d="M772 130h0"></path>
<g class="terminal">
<path d="M560 130h0"></path>
<path d="M684 130h0"></path>
<rect x="560" y="119" width="124" height="22" rx="10" ry="10"></rect>
<text x="622" y="134">"DESTINATION"</text>
</g>
<path d="M684 130h10"></path>
<path d="M694 130h10"></path>
<g class="non-terminal">
<path d="M704 130h0"></path>
<path d="M772 130h0"></path>
<rect x="704" y="119" width="68" height="22"></rect>
<a xlink:href="reuse_source.svg"><text x="738" y="134">Source</text>
</a>
</g>
</g>
<path d="M772 130a10 10 0 0 0 10 -10v-20"></path>
<g class="diagram-text">
<title>take one or more branches, once each, in any order</title>
<path d="M 550 90 h -26 a 4 4 0 0 0 -4 4 v 12 a 4 4 0 0 0 4 4 h 26 z" class="diagram-text"></path>
<text x="535" y="104" class="diagram-text">1+</text>
<path d="M 782 90 h 16 a 4 4 0 0 1 4 4 v 12 a 4 4 0 0 1 -4 4 h -16 z" class="diagram-text"></path>
<path d="M 789 98 a 4 4 0 1 0 6 -1 m 2.75 -1 h -4 v 4 m 0 -3 h 2" style="stroke-width: 1.75"></path>
</g>
</g>
<path d="M802 100a10 10 0 0 0 10 -10v-40a10 10 0 0 1 10 -10"></path>
</g>
<path d="M822 40h20"></path>
</g>
<g>
<path d="M842 40h0"></path>
<path d="M1420 40h0"></path>
<path d="M842 40h20"></path>
<g class="non-terminal">
<path d="M862 40h0"></path>
<path d="M1026 40h374"></path>
<rect x="862" y="29" width="164" height="22"></rect>
<a xlink:href="reuse_functionparameters.svg"><text x="944" y="44">FunctionParameters</text>
</a>
</g>
<path d="M1400 40h20"></path>
<path d="M842 40a10 10 0 0 1 10 10v19a10 10 0 0 0 10 10"></path>
<g>
<path d="M862 79h0"></path>
<path d="M1400 79h0"></path>
<g class="terminal">
<path d="M862 79h0"></path>
<path d="M1018 79h0"></path>
<rect x="862" y="68" width="156" height="22" rx="10" ry="10"></rect>
<text x="940" y="83">"PARAMETER-TABLE"</text>
</g>
<path d="M1018 79h10"></path>
<path d="M1028 79h10"></path>
<g class="non-terminal">
<path d="M1038 79h0"></path>
<path d="M1106 79h0"></path>
<rect x="1038" y="68" width="68" height="22"></rect>
<a xlink:href="reuse_source.svg"><text x="1072" y="83">Source</text>
</a>
</g>
<path d="M1106 79h10"></path>
<g>
<path d="M1116 79h0"></path>
<path d="M1400 79h0"></path>
<path d="M1116 79a10 10 0 0 0 10 -10v0a10 10 0 0 1 10 -10"></path>
<g>
<path d="M1136 59h244"></path>
</g>
<path d="M1380 59a10 10 0 0 1 10 10v0a10 10 0 0 0 10 10"></path>
<path d="M1116 79h20"></path>
<g>
<path d="M1136 79h0"></path>
<path d="M1380 79h0"></path>
<g class="terminal">
<path d="M1136 79h0"></path>
<path d="M1292 79h0"></path>
<rect x="1136" y="68" width="156" height="22" rx="10" ry="10"></rect>
<text x="1214" y="83">"EXCEPTION-TABLE"</text>
</g>
<path d="M1292 79h10"></path>
<path d="M1302 79h10"></path>
<g class="non-terminal">
<path d="M1312 79h0"></path>
<path d="M1380 79h0"></path>
<rect x="1312" y="68" width="68" height="22"></rect>
<a xlink:href="reuse_source.svg"><text x="1346" y="83">Source</text>
</a>
</g>
</g>
<path d="M1380 79h20"></path>
</g>
</g>
<path d="M1400 79a10 10 0 0 0 10 -10v-19a10 10 0 0 1 10 -10"></path>
</g>
</g>
<path d="M1420 40h10"></path>
<path d="M 1430 40 h 20 m -10 -10 v 20 m 10 -20 v 20"></path>
</g>
</svg>
