<svg xmlns="http://www.w3.org/2000/svg" xmlns:xlink="http://www.w3.org/1999/xlink" class="railroad-diagram" width="860" height="251" viewBox="0 0 860 251">
<defs>
<style type="text/css"><![CDATA[
path {
stroke-width: 3;
stroke: black;
fill: rgba(0,0,0,0);
}
text {
font: bold 14px monospace;
text-anchor: middle;
}
text.diagram-text {
font-size: 12px;
}
a {
fill: blue;
}
text.diagram-arrow {
font-size: 16px;
}
text.label {
text-anchor: start;
}
text.comment {
font: italic 12px monospace;
}
rect {
stroke-width: 3;
stroke: black;
fill: #BCBCBC;
}
path.diagram-text {
stroke-width: 3;
stroke: black;
fill: #BCBCBC;
cursor: help;
}
]]></style>
</defs>
<g transform="translate(.5 .5)">
<path d="M 20 21 v 20 m 10 -20 v 20 m -10 -10 h 20.5"></path>
<path d="M40 31h10"></path>
<g>
<path d="M50 31h0"></path>
<path d="M810 31h0"></path>
<g class="terminal">
<path d="M50 31h0"></path>
<path d="M238 31h0"></path>
<rect x="50" y="20" width="188" height="22" rx="10" ry="10"></rect>
<text x="144" y="35">"CALL TRANSFORMATION"</text>
</g>
<path d="M238 31h10"></path>
<g>
<path d="M248 31h0"></path>
<path d="M364 31h0"></path>
<path d="M248 31h20"></path>
<g class="non-terminal">
<path d="M268 31h0"></path>
<path d="M328 31h16"></path>
<rect x="268" y="20" width="60" height="22"></rect>
<a xlink:href="reuse_field.svg"><text x="298" y="35">Field</text>
</a>
</g>
<path d="M344 31h20"></path>
<path d="M248 31a10 10 0 0 1 10 10v10a10 10 0 0 0 10 10"></path>
<g class="non-terminal">
<path d="M268 61h0"></path>
<path d="M344 61h0"></path>
<rect x="268" y="50" width="76" height="22"></rect>
<a xlink:href="reuse_dynamic.svg"><text x="306" y="65">Dynamic</text>
</a>
</g>
<path d="M344 61a10 10 0 0 0 10 -10v-10a10 10 0 0 1 10 -10"></path>
</g>
<path d="M364 31h10"></path>
<g>
<path d="M374 31h0"></path>
<path d="M810 31h0"></path>
<path d="M404 31h10"></path>
<g>
<path d="M414 31h0"></path>
<path d="M738 31h42"></path>
<g class="terminal">
<path d="M414 31h0"></path>
<path d="M506 31h0"></path>
<rect x="414" y="20" width="92" height="22" rx="10" ry="10"></rect>
<text x="460" y="35">"OPTIONS"</text>
</g>
<path d="M506 31h10"></path>
<path d="M516 31h10"></path>
<g class="non-terminal">
<path d="M526 31h0"></path>
<path d="M586 31h0"></path>
<rect x="526" y="20" width="60" height="22"></rect>
<a xlink:href="reuse_field.svg"><text x="556" y="35">Field</text>
</a>
</g>
<path d="M586 31h10"></path>
<path d="M596 31h10"></path>
<g class="terminal">
<path d="M606 31h0"></path>
<path d="M650 31h0"></path>
<rect x="606" y="20" width="44" height="22" rx="10" ry="10"></rect>
<text x="628" y="35">"="</text>
</g>
<path d="M650 31h10"></path>
<path d="M660 31h10"></path>
<g class="non-terminal">
<path d="M670 31h0"></path>
<path d="M738 31h0"></path>
<rect x="670" y="20" width="68" height="22"></rect>
<a xlink:href="reuse_source.svg"><text x="704" y="35">Source</text>
</a>
</g>
</g>
<path d="M780 31h10"></path>
<path d="M404 31v20a10 10 0 0 0 10 10"></path>
<g>
<path d="M414 61h0"></path>
<path d="M780 61h0"></path>
<g class="terminal">
<path d="M414 61h0"></path>
<path d="M498 61h0"></path>
<rect x="414" y="50" width="84" height="22" rx="10" ry="10"></rect>
<text x="456" y="65">"SOURCE"</text>
</g>
<path d="M498 61h10"></path>
<g>
<path d="M508 61h0"></path>
<path d="M780 61h0"></path>
<path d="M508 61h20"></path>
<g>
<path d="M528 61h0"></path>
<path d="M760 61h0"></path>
<path d="M528 61h10"></path>
<g>
<path d="M538 61h0"></path>
<path d="M750 61h0"></path>
<g class="non-terminal">
<path d="M538 61h0"></path>
<path d="M598 61h0"></path>
<rect x="538" y="50" width="60" height="22"></rect>
<a xlink:href="reuse_field.svg"><text x="568" y="65">Field</text>
</a>
</g>
<path d="M598 61h10"></path>
<path d="M608 61h10"></path>
<g class="terminal">
<path d="M618 61h0"></path>
<path d="M662 61h0"></path>
<rect x="618" y="50" width="44" height="22" rx="10" ry="10"></rect>
<text x="640" y="65">"="</text>
</g>
<path d="M662 61h10"></path>
<path d="M672 61h10"></path>
<g class="non-terminal">
<path d="M682 61h0"></path>
<path d="M750 61h0"></path>
<rect x="682" y="50" width="68" height="22"></rect>
<a xlink:href="reuse_source.svg"><text x="716" y="65">Source</text>
</a>
</g>
</g>
<path d="M750 61h10"></path>
<path d="M538 61a10 10 0 0 0 -10 10v0a10 10 0 0 0 10 10"></path>
<g>
<path d="M538 81h212"></path>
</g>
<path d="M750 81a10 10 0 0 0 10 -10v0a10 10 0 0 0 -10 -10"></path>
</g>
<path d="M760 61h20"></path>
<path d="M508 61a10 10 0 0 1 10 10v19a10 10 0 0 0 10 10"></path>
<g>
<path d="M528 100h0"></path>
<path d="M676 100h84"></path>
<g class="terminal">
<path d="M528 100h0"></path>
<path d="M588 100h0"></path>
<rect x="528" y="89" width="60" height="22" rx="10" ry="10"></rect>
<text x="558" y="104">"XML"</text>
</g>
<path d="M588 100h10"></path>
<path d="M598 100h10"></path>
<g class="non-terminal">
<path d="M608 100h0"></path>
<path d="M676 100h0"></path>
<rect x="608" y="89" width="68" height="22"></rect>
<a xlink:href="reuse_source.svg"><text x="642" y="104">Source</text>
</a>
</g>
</g>
<path d="M760 100a10 10 0 0 0 10 -10v-19a10 10 0 0 1 10 -10"></path>
<path d="M508 61a10 10 0 0 1 10 10v49a10 10 0 0 0 10 10"></path>
<g class="non-terminal">
<path d="M528 130h0"></path>
<path d="M604 130h156"></path>
<rect x="528" y="119" width="76" height="22"></rect>
<a xlink:href="reuse_dynamic.svg"><text x="566" y="134">Dynamic</text>
</a>
</g>
<path d="M760 130a10 10 0 0 0 10 -10v-49a10 10 0 0 1 10 -10"></path>
</g>
</g>
<path d="M780 61a10 10 0 0 0 10 -10v-20"></path>
<path d="M404 31v119a10 10 0 0 0 10 10"></path>
<g>
<path d="M414 160h0"></path>
<path d="M760 160h20"></path>
<g class="terminal">
<path d="M414 160h0"></path>
<path d="M498 160h0"></path>
<rect x="414" y="149" width="84" height="22" rx="10" ry="10"></rect>
<text x="456" y="164">"RESULT"</text>
</g>
<path d="M498 160h10"></path>
<g>
<path d="M508 160h0"></path>
<path d="M760 160h0"></path>
<path d="M508 160h20"></path>
<g>
<path d="M528 160h0"></path>
<path d="M740 160h0"></path>
<g class="non-terminal">
<path d="M528 160h0"></path>
<path d="M588 160h0"></path>
<rect x="528" y="149" width="60" height="22"></rect>
<a xlink:href="reuse_field.svg"><text x="558" y="164">Field</text>
</a>
</g>
<path d="M588 160h10"></path>
<path d="M598 160h10"></path>
<g class="terminal">
<path d="M608 160h0"></path>
<path d="M652 160h0"></path>
<rect x="608" y="149" width="44" height="22" rx="10" ry="10"></rect>
<text x="630" y="164">"="</text>
</g>
<path d="M652 160h10"></path>
<path d="M662 160h10"></path>
<g class="non-terminal">
<path d="M672 160h0"></path>
<path d="M740 160h0"></path>
<rect x="672" y="149" width="68" height="22"></rect>
<a xlink:href="reuse_source.svg"><text x="706" y="164">Source</text>
</a>
</g>
</g>
<path d="M740 160h20"></path>
<path d="M508 160a10 10 0 0 1 10 10v10a10 10 0 0 0 10 10"></path>
<g>
<path d="M528 190h0"></path>
<path d="M676 190h64"></path>
<g class="terminal">
<path d="M528 190h0"></path>
<path d="M588 190h0"></path>
<rect x="528" y="179" width="60" height="22" rx="10" ry="10"></rect>
<text x="558" y="194">"XML"</text>
</g>
<path d="M588 190h10"></path>
<path d="M598 190h10"></path>
<g class="non-terminal">
<path d="M608 190h0"></path>
<path d="M676 190h0"></path>
<rect x="608" y="179" width="68" height="22"></rect>
<a xlink:href="reuse_target.svg"><text x="642" y="194">Target</text>
</a>
</g>
</g>
<path d="M740 190a10 10 0 0 0 10 -10v-10a10 10 0 0 1 10 -10"></path>
<path d="M508 160a10 10 0 0 1 10 10v40a10 10 0 0 0 10 10"></path>
<g class="non-terminal">
<path d="M528 220h0"></path>
<path d="M604 220h136"></path>
<rect x="528" y="209" width="76" height="22"></rect>
<a xlink:href="reuse_dynamic.svg"><text x="566" y="224">Dynamic</text>
</a>
</g>
<path d="M740 220a10 10 0 0 0 10 -10v-40a10 10 0 0 1 10 -10"></path>
</g>
</g>
<path d="M780 160a10 10 0 0 0 10 -10v-119"></path>
<g class="diagram-text">
<title>take one or more branches, once each, in any order</title>
<path d="M 404 21 h -26 a 4 4 0 0 0 -4 4 v 12 a 4 4 0 0 0 4 4 h 26 z" class="diagram-text"></path>
<text x="389" y="35" class="diagram-text">1+</text>
<path d="M 790 21 h 16 a 4 4 0 0 1 4 4 v 12 a 4 4 0 0 1 -4 4 h -16 z" class="diagram-text"></path>
<path d="M 797 29 a 4 4 0 1 0 6 -1 m 2.75 -1 h -4 v 4 m 0 -3 h 2" style="stroke-width: 1.75"></path>
</g>
</g>
</g>
<path d="M810 31h10"></path>
<path d="M 820 31 h 20 m -10 -10 v 20 m 10 -20 v 20"></path>
</g>
</svg>
