<svg xmlns="http://www.w3.org/2000/svg" xmlns:xlink="http://www.w3.org/1999/xlink" class="railroad-diagram" width="1620" height="161" viewBox="0 0 1620 161">
<defs>
<style type="text/css"><![CDATA[
path {
stroke-width: 3;
stroke: black;
fill: rgba(0,0,0,0);
}
text {
font: bold 14px monospace;
text-anchor: middle;
}
text.diagram-text {
font-size: 12px;
}
a {
fill: blue;
}
text.diagram-arrow {
font-size: 16px;
}
text.label {
text-anchor: start;
}
text.comment {
font: italic 12px monospace;
}
rect {
stroke-width: 3;
stroke: black;
fill: #BCBCBC;
}
path.diagram-text {
stroke-width: 3;
stroke: black;
fill: #BCBCBC;
cursor: help;
}
]]></style>
</defs>
<g transform="translate(.5 .5)">
<path d="M 20 30 v 20 m 10 -20 v 20 m -10 -10 h 20.5"></path>
<path d="M40 40h10"></path>
<g>
<path d="M50 40h0"></path>
<path d="M1570 40h0"></path>
<g class="terminal">
<path d="M50 40h0"></path>
<path d="M238 40h0"></path>
<rect x="50" y="29" width="188" height="22" rx="10" ry="10"></rect>
<text x="144" y="44">"CALL TRANSFORMATION"</text>
</g>
<path d="M238 40h10"></path>
<path d="M248 40h10"></path>
<g class="non-terminal">
<path d="M258 40h0"></path>
<path d="M318 40h0"></path>
<rect x="258" y="29" width="60" height="22"></rect>
<a xlink:href="reuse_field.svg"><text x="288" y="44">field</text>
</a>
</g>
<path d="M318 40h10"></path>
<g>
<path d="M328 40h0"></path>
<path d="M692 40h0"></path>
<path d="M328 40a10 10 0 0 0 10 -10v0a10 10 0 0 1 10 -10"></path>
<g>
<path d="M348 20h324"></path>
</g>
<path d="M672 20a10 10 0 0 1 10 10v0a10 10 0 0 0 10 10"></path>
<path d="M328 40h20"></path>
<g>
<path d="M348 40h0"></path>
<path d="M672 40h0"></path>
<g class="terminal">
<path d="M348 40h0"></path>
<path d="M440 40h0"></path>
<rect x="348" y="29" width="92" height="22" rx="10" ry="10"></rect>
<text x="394" y="44">"OPTIONS"</text>
</g>
<path d="M440 40h10"></path>
<path d="M450 40h10"></path>
<g class="non-terminal">
<path d="M460 40h0"></path>
<path d="M520 40h0"></path>
<rect x="460" y="29" width="60" height="22"></rect>
<a xlink:href="reuse_field.svg"><text x="490" y="44">field</text>
</a>
</g>
<path d="M520 40h10"></path>
<path d="M530 40h10"></path>
<g class="terminal">
<path d="M540 40h0"></path>
<path d="M584 40h0"></path>
<rect x="540" y="29" width="44" height="22" rx="10" ry="10"></rect>
<text x="562" y="44">"="</text>
</g>
<path d="M584 40h10"></path>
<path d="M594 40h10"></path>
<g class="non-terminal">
<path d="M604 40h0"></path>
<path d="M672 40h0"></path>
<rect x="604" y="29" width="68" height="22"></rect>
<a xlink:href="reuse_source.svg"><text x="638" y="44">source</text>
</a>
</g>
</g>
<path d="M672 40h20"></path>
</g>
<path d="M692 40h10"></path>
<g>
<path d="M702 40h0"></path>
<path d="M1126 40h0"></path>
<g class="terminal">
<path d="M702 40h0"></path>
<path d="M786 40h0"></path>
<rect x="702" y="29" width="84" height="22" rx="10" ry="10"></rect>
<text x="744" y="44">"SOURCE"</text>
</g>
<path d="M786 40h10"></path>
<g>
<path d="M796 40h0"></path>
<path d="M1126 40h0"></path>
<path d="M796 40h20"></path>
<g>
<path d="M816 40h0"></path>
<path d="M1106 40h0"></path>
<g class="non-terminal">
<path d="M816 40h0"></path>
<path d="M876 40h0"></path>
<rect x="816" y="29" width="60" height="22"></rect>
<a xlink:href="reuse_field.svg"><text x="846" y="44">field</text>
</a>
</g>
<path d="M876 40h10"></path>
<path d="M886 40h10"></path>
<g class="terminal">
<path d="M896 40h0"></path>
<path d="M940 40h0"></path>
<rect x="896" y="29" width="44" height="22" rx="10" ry="10"></rect>
<text x="918" y="44">"="</text>
</g>
<path d="M940 40h10"></path>
<g>
<path d="M950 40h0"></path>
<path d="M1106 40h0"></path>
<path d="M950 40h20"></path>
<g class="non-terminal">
<path d="M970 40h28"></path>
<path d="M1058 40h28"></path>
<rect x="998" y="29" width="60" height="22"></rect>
<a xlink:href="reuse_field.svg"><text x="1028" y="44">field</text>
</a>
</g>
<path d="M1086 40h20"></path>
<path d="M950 40a10 10 0 0 1 10 10v10a10 10 0 0 0 10 10"></path>
<g class="non-terminal">
<path d="M970 70h0"></path>
<path d="M1086 70h0"></path>
<rect x="970" y="59" width="116" height="22"></rect>
<a xlink:href="reuse_field_symbol.svg"><text x="1028" y="74">field&#95;symbol</text>
</a>
</g>
<path d="M1086 70a10 10 0 0 0 10 -10v-10a10 10 0 0 1 10 -10"></path>
</g>
</g>
<path d="M1106 40h20"></path>
<path d="M796 40a10 10 0 0 1 10 10v40a10 10 0 0 0 10 10"></path>
<g>
<path d="M816 100h71"></path>
<path d="M1035 100h71"></path>
<g class="terminal">
<path d="M887 100h0"></path>
<path d="M947 100h0"></path>
<rect x="887" y="89" width="60" height="22" rx="10" ry="10"></rect>
<text x="917" y="104">"XML"</text>
</g>
<path d="M947 100h10"></path>
<path d="M957 100h10"></path>
<g class="non-terminal">
<path d="M967 100h0"></path>
<path d="M1035 100h0"></path>
<rect x="967" y="89" width="68" height="22"></rect>
<a xlink:href="reuse_source.svg"><text x="1001" y="104">source</text>
</a>
</g>
</g>
<path d="M1106 100a10 10 0 0 0 10 -10v-40a10 10 0 0 1 10 -10"></path>
<path d="M796 40a10 10 0 0 1 10 10v70a10 10 0 0 0 10 10"></path>
<g class="non-terminal">
<path d="M816 130h107"></path>
<path d="M999 130h107"></path>
<rect x="923" y="119" width="76" height="22"></rect>
<a xlink:href="reuse_dynamic.svg"><text x="961" y="134">dynamic</text>
</a>
</g>
<path d="M1106 130a10 10 0 0 0 10 -10v-70a10 10 0 0 1 10 -10"></path>
</g>
</g>
<path d="M1126 40h10"></path>
<path d="M1136 40h10"></path>
<g>
<path d="M1146 40h0"></path>
<path d="M1570 40h0"></path>
<g class="terminal">
<path d="M1146 40h0"></path>
<path d="M1230 40h0"></path>
<rect x="1146" y="29" width="84" height="22" rx="10" ry="10"></rect>
<text x="1188" y="44">"RESULT"</text>
</g>
<path d="M1230 40h10"></path>
<g>
<path d="M1240 40h0"></path>
<path d="M1570 40h0"></path>
<path d="M1240 40h20"></path>
<g>
<path d="M1260 40h0"></path>
<path d="M1550 40h0"></path>
<g class="non-terminal">
<path d="M1260 40h0"></path>
<path d="M1320 40h0"></path>
<rect x="1260" y="29" width="60" height="22"></rect>
<a xlink:href="reuse_field.svg"><text x="1290" y="44">field</text>
</a>
</g>
<path d="M1320 40h10"></path>
<path d="M1330 40h10"></path>
<g class="terminal">
<path d="M1340 40h0"></path>
<path d="M1384 40h0"></path>
<rect x="1340" y="29" width="44" height="22" rx="10" ry="10"></rect>
<text x="1362" y="44">"="</text>
</g>
<path d="M1384 40h10"></path>
<g>
<path d="M1394 40h0"></path>
<path d="M1550 40h0"></path>
<path d="M1394 40h20"></path>
<g class="non-terminal">
<path d="M1414 40h28"></path>
<path d="M1502 40h28"></path>
<rect x="1442" y="29" width="60" height="22"></rect>
<a xlink:href="reuse_field.svg"><text x="1472" y="44">field</text>
</a>
</g>
<path d="M1530 40h20"></path>
<path d="M1394 40a10 10 0 0 1 10 10v10a10 10 0 0 0 10 10"></path>
<g class="non-terminal">
<path d="M1414 70h0"></path>
<path d="M1530 70h0"></path>
<rect x="1414" y="59" width="116" height="22"></rect>
<a xlink:href="reuse_field_symbol.svg"><text x="1472" y="74">field&#95;symbol</text>
</a>
</g>
<path d="M1530 70a10 10 0 0 0 10 -10v-10a10 10 0 0 1 10 -10"></path>
</g>
</g>
<path d="M1550 40h20"></path>
<path d="M1240 40a10 10 0 0 1 10 10v40a10 10 0 0 0 10 10"></path>
<g>
<path d="M1260 100h71"></path>
<path d="M1479 100h71"></path>
<g class="terminal">
<path d="M1331 100h0"></path>
<path d="M1391 100h0"></path>
<rect x="1331" y="89" width="60" height="22" rx="10" ry="10"></rect>
<text x="1361" y="104">"XML"</text>
</g>
<path d="M1391 100h10"></path>
<path d="M1401 100h10"></path>
<g class="non-terminal">
<path d="M1411 100h0"></path>
<path d="M1479 100h0"></path>
<rect x="1411" y="89" width="68" height="22"></rect>
<a xlink:href="reuse_target.svg"><text x="1445" y="104">target</text>
</a>
</g>
</g>
<path d="M1550 100a10 10 0 0 0 10 -10v-40a10 10 0 0 1 10 -10"></path>
<path d="M1240 40a10 10 0 0 1 10 10v70a10 10 0 0 0 10 10"></path>
<g class="non-terminal">
<path d="M1260 130h107"></path>
<path d="M1443 130h107"></path>
<rect x="1367" y="119" width="76" height="22"></rect>
<a xlink:href="reuse_dynamic.svg"><text x="1405" y="134">dynamic</text>
</a>
</g>
<path d="M1550 130a10 10 0 0 0 10 -10v-70a10 10 0 0 1 10 -10"></path>
</g>
</g>
</g>
<path d="M1570 40h10"></path>
<path d="M 1580 40 h 20 m -10 -10 v 20 m 10 -20 v 20"></path>
</g>
</svg>
