<svg xmlns="http://www.w3.org/2000/svg" xmlns:xlink="http://www.w3.org/1999/xlink" class="railroad-diagram" width="1604" height="161" viewBox="0 0 1604 161">
<defs>
<style type="text/css"><![CDATA[
path {
stroke-width: 3;
stroke: black;
fill: rgba(0,0,0,0);
}
text {
font: bold 14px monospace;
text-anchor: middle;
}
text.diagram-text {
font-size: 12px;
}
a {
fill: blue;
}
text.diagram-arrow {
font-size: 16px;
}
text.label {
text-anchor: start;
}
text.comment {
font: italic 12px monospace;
}
rect {
stroke-width: 3;
stroke: black;
fill: #BCBCBC;
}
path.diagram-text {
stroke-width: 3;
stroke: black;
fill: #BCBCBC;
cursor: help;
}
]]></style>
</defs>
<g transform="translate(.5 .5)">
<path d="M 20 30 v 20 m 10 -20 v 20 m -10 -10 h 20.5"></path>
<path d="M40 40h10"></path>
<g>
<path d="M50 40h0"></path>
<path d="M1554 40h0"></path>
<g class="terminal">
<path d="M50 40h0"></path>
<path d="M238 40h0"></path>
<rect x="50" y="29" width="188" height="22" rx="10" ry="10"></rect>
<text x="144" y="44">"CALL TRANSFORMATION"</text>
</g>
<path d="M238 40h10"></path>
<path d="M248 40h10"></path>
<g class="non-terminal">
<path d="M258 40h0"></path>
<path d="M318 40h0"></path>
<rect x="258" y="29" width="60" height="22"></rect>
<a xlink:href="reuse_field.svg"><text x="288" y="44">Field</text>
</a>
</g>
<path d="M318 40h10"></path>
<g>
<path d="M328 40h0"></path>
<path d="M692 40h0"></path>
<path d="M328 40a10 10 0 0 0 10 -10v0a10 10 0 0 1 10 -10"></path>
<g>
<path d="M348 20h324"></path>
</g>
<path d="M672 20a10 10 0 0 1 10 10v0a10 10 0 0 0 10 10"></path>
<path d="M328 40h20"></path>
<g>
<path d="M348 40h0"></path>
<path d="M672 40h0"></path>
<g class="terminal">
<path d="M348 40h0"></path>
<path d="M440 40h0"></path>
<rect x="348" y="29" width="92" height="22" rx="10" ry="10"></rect>
<text x="394" y="44">"OPTIONS"</text>
</g>
<path d="M440 40h10"></path>
<path d="M450 40h10"></path>
<g class="non-terminal">
<path d="M460 40h0"></path>
<path d="M520 40h0"></path>
<rect x="460" y="29" width="60" height="22"></rect>
<a xlink:href="reuse_field.svg"><text x="490" y="44">Field</text>
</a>
</g>
<path d="M520 40h10"></path>
<path d="M530 40h10"></path>
<g class="terminal">
<path d="M540 40h0"></path>
<path d="M584 40h0"></path>
<rect x="540" y="29" width="44" height="22" rx="10" ry="10"></rect>
<text x="562" y="44">"="</text>
</g>
<path d="M584 40h10"></path>
<path d="M594 40h10"></path>
<g class="non-terminal">
<path d="M604 40h0"></path>
<path d="M672 40h0"></path>
<rect x="604" y="29" width="68" height="22"></rect>
<a xlink:href="reuse_source.svg"><text x="638" y="44">Source</text>
</a>
</g>
</g>
<path d="M672 40h20"></path>
</g>
<path d="M692 40h10"></path>
<g>
<path d="M702 40h0"></path>
<path d="M1118 40h0"></path>
<g class="terminal">
<path d="M702 40h0"></path>
<path d="M786 40h0"></path>
<rect x="702" y="29" width="84" height="22" rx="10" ry="10"></rect>
<text x="744" y="44">"SOURCE"</text>
</g>
<path d="M786 40h10"></path>
<g>
<path d="M796 40h0"></path>
<path d="M1118 40h0"></path>
<path d="M796 40h20"></path>
<g>
<path d="M816 40h0"></path>
<path d="M1098 40h0"></path>
<g class="non-terminal">
<path d="M816 40h0"></path>
<path d="M876 40h0"></path>
<rect x="816" y="29" width="60" height="22"></rect>
<a xlink:href="reuse_field.svg"><text x="846" y="44">Field</text>
</a>
</g>
<path d="M876 40h10"></path>
<path d="M886 40h10"></path>
<g class="terminal">
<path d="M896 40h0"></path>
<path d="M940 40h0"></path>
<rect x="896" y="29" width="44" height="22" rx="10" ry="10"></rect>
<text x="918" y="44">"="</text>
</g>
<path d="M940 40h10"></path>
<g>
<path d="M950 40h0"></path>
<path d="M1098 40h0"></path>
<path d="M950 40h20"></path>
<g class="non-terminal">
<path d="M970 40h0"></path>
<path d="M1030 40h48"></path>
<rect x="970" y="29" width="60" height="22"></rect>
<a xlink:href="reuse_field.svg"><text x="1000" y="44">Field</text>
</a>
</g>
<path d="M1078 40h20"></path>
<path d="M950 40a10 10 0 0 1 10 10v10a10 10 0 0 0 10 10"></path>
<g class="non-terminal">
<path d="M970 70h0"></path>
<path d="M1078 70h0"></path>
<rect x="970" y="59" width="108" height="22"></rect>
<a xlink:href="reuse_fieldsymbol.svg"><text x="1024" y="74">FieldSymbol</text>
</a>
</g>
<path d="M1078 70a10 10 0 0 0 10 -10v-10a10 10 0 0 1 10 -10"></path>
</g>
</g>
<path d="M1098 40h20"></path>
<path d="M796 40a10 10 0 0 1 10 10v40a10 10 0 0 0 10 10"></path>
<g>
<path d="M816 100h0"></path>
<path d="M964 100h134"></path>
<g class="terminal">
<path d="M816 100h0"></path>
<path d="M876 100h0"></path>
<rect x="816" y="89" width="60" height="22" rx="10" ry="10"></rect>
<text x="846" y="104">"XML"</text>
</g>
<path d="M876 100h10"></path>
<path d="M886 100h10"></path>
<g class="non-terminal">
<path d="M896 100h0"></path>
<path d="M964 100h0"></path>
<rect x="896" y="89" width="68" height="22"></rect>
<a xlink:href="reuse_source.svg"><text x="930" y="104">Source</text>
</a>
</g>
</g>
<path d="M1098 100a10 10 0 0 0 10 -10v-40a10 10 0 0 1 10 -10"></path>
<path d="M796 40a10 10 0 0 1 10 10v70a10 10 0 0 0 10 10"></path>
<g class="non-terminal">
<path d="M816 130h0"></path>
<path d="M892 130h206"></path>
<rect x="816" y="119" width="76" height="22"></rect>
<a xlink:href="reuse_dynamic.svg"><text x="854" y="134">Dynamic</text>
</a>
</g>
<path d="M1098 130a10 10 0 0 0 10 -10v-70a10 10 0 0 1 10 -10"></path>
</g>
</g>
<path d="M1118 40h10"></path>
<path d="M1128 40h10"></path>
<g>
<path d="M1138 40h0"></path>
<path d="M1554 40h0"></path>
<g class="terminal">
<path d="M1138 40h0"></path>
<path d="M1222 40h0"></path>
<rect x="1138" y="29" width="84" height="22" rx="10" ry="10"></rect>
<text x="1180" y="44">"RESULT"</text>
</g>
<path d="M1222 40h10"></path>
<g>
<path d="M1232 40h0"></path>
<path d="M1554 40h0"></path>
<path d="M1232 40h20"></path>
<g>
<path d="M1252 40h0"></path>
<path d="M1534 40h0"></path>
<g class="non-terminal">
<path d="M1252 40h0"></path>
<path d="M1312 40h0"></path>
<rect x="1252" y="29" width="60" height="22"></rect>
<a xlink:href="reuse_field.svg"><text x="1282" y="44">Field</text>
</a>
</g>
<path d="M1312 40h10"></path>
<path d="M1322 40h10"></path>
<g class="terminal">
<path d="M1332 40h0"></path>
<path d="M1376 40h0"></path>
<rect x="1332" y="29" width="44" height="22" rx="10" ry="10"></rect>
<text x="1354" y="44">"="</text>
</g>
<path d="M1376 40h10"></path>
<g>
<path d="M1386 40h0"></path>
<path d="M1534 40h0"></path>
<path d="M1386 40h20"></path>
<g class="non-terminal">
<path d="M1406 40h0"></path>
<path d="M1466 40h48"></path>
<rect x="1406" y="29" width="60" height="22"></rect>
<a xlink:href="reuse_field.svg"><text x="1436" y="44">Field</text>
</a>
</g>
<path d="M1514 40h20"></path>
<path d="M1386 40a10 10 0 0 1 10 10v10a10 10 0 0 0 10 10"></path>
<g class="non-terminal">
<path d="M1406 70h0"></path>
<path d="M1514 70h0"></path>
<rect x="1406" y="59" width="108" height="22"></rect>
<a xlink:href="reuse_fieldsymbol.svg"><text x="1460" y="74">FieldSymbol</text>
</a>
</g>
<path d="M1514 70a10 10 0 0 0 10 -10v-10a10 10 0 0 1 10 -10"></path>
</g>
</g>
<path d="M1534 40h20"></path>
<path d="M1232 40a10 10 0 0 1 10 10v40a10 10 0 0 0 10 10"></path>
<g>
<path d="M1252 100h0"></path>
<path d="M1400 100h134"></path>
<g class="terminal">
<path d="M1252 100h0"></path>
<path d="M1312 100h0"></path>
<rect x="1252" y="89" width="60" height="22" rx="10" ry="10"></rect>
<text x="1282" y="104">"XML"</text>
</g>
<path d="M1312 100h10"></path>
<path d="M1322 100h10"></path>
<g class="non-terminal">
<path d="M1332 100h0"></path>
<path d="M1400 100h0"></path>
<rect x="1332" y="89" width="68" height="22"></rect>
<a xlink:href="reuse_target.svg"><text x="1366" y="104">Target</text>
</a>
</g>
</g>
<path d="M1534 100a10 10 0 0 0 10 -10v-40a10 10 0 0 1 10 -10"></path>
<path d="M1232 40a10 10 0 0 1 10 10v70a10 10 0 0 0 10 10"></path>
<g class="non-terminal">
<path d="M1252 130h0"></path>
<path d="M1328 130h206"></path>
<rect x="1252" y="119" width="76" height="22"></rect>
<a xlink:href="reuse_dynamic.svg"><text x="1290" y="134">Dynamic</text>
</a>
</g>
<path d="M1534 130a10 10 0 0 0 10 -10v-70a10 10 0 0 1 10 -10"></path>
</g>
</g>
</g>
<path d="M1554 40h10"></path>
<path d="M 1564 40 h 20 m -10 -10 v 20 m 10 -20 v 20"></path>
</g>
</svg>
