<svg xmlns="http://www.w3.org/2000/svg" xmlns:xlink="http://www.w3.org/1999/xlink" class="railroad-diagram" width="860" height="290" viewBox="0 0 860 290">
<defs>
<style type="text/css"><![CDATA[
path {
stroke-width: 3;
stroke: black;
fill: rgba(0,0,0,0);
}
text {
font: bold 14px monospace;
text-anchor: middle;
}
text.diagram-text {
font-size: 12px;
}
a {
fill: blue;
}
text.diagram-arrow {
font-size: 16px;
}
text.label {
text-anchor: start;
}
text.comment {
font: italic 12px monospace;
}
rect {
stroke-width: 3;
stroke: black;
fill: #BCBCBC;
}
path.diagram-text {
stroke-width: 3;
stroke: black;
fill: #BCBCBC;
cursor: help;
}
]]></style>
</defs>
<g transform="translate(.5 .5)">
<path d="M 20 21 v 20 m 10 -20 v 20 m -10 -10 h 20.5"></path>
<path d="M40 31h10"></path>
<g>
<path d="M50 31h0"></path>
<path d="M810 31h0"></path>
<g class="terminal">
<path d="M50 31h0"></path>
<path d="M238 31h0"></path>
<rect x="50" y="20" width="188" height="22" rx="10" ry="10"></rect>
<text x="144" y="35">"CALL TRANSFORMATION"</text>
</g>
<path d="M238 31h10"></path>
<g>
<path d="M248 31h0"></path>
<path d="M364 31h0"></path>
<path d="M248 31h20"></path>
<g class="non-terminal">
<path d="M268 31h0"></path>
<path d="M328 31h16"></path>
<rect x="268" y="20" width="60" height="22"></rect>
<a xlink:href="reuse_field.svg"><text x="298" y="35">Field</text>
</a>
</g>
<path d="M344 31h20"></path>
<path d="M248 31a10 10 0 0 1 10 10v10a10 10 0 0 0 10 10"></path>
<g class="non-terminal">
<path d="M268 61h0"></path>
<path d="M344 61h0"></path>
<rect x="268" y="50" width="76" height="22"></rect>
<a xlink:href="reuse_dynamic.svg"><text x="306" y="65">Dynamic</text>
</a>
</g>
<path d="M344 61a10 10 0 0 0 10 -10v-10a10 10 0 0 1 10 -10"></path>
</g>
<path d="M364 31h10"></path>
<g>
<path d="M374 31h0"></path>
<path d="M810 31h0"></path>
<path d="M404 31h10"></path>
<g>
<path d="M414 31h0"></path>
<path d="M738 31h42"></path>
<g class="terminal">
<path d="M414 31h0"></path>
<path d="M506 31h0"></path>
<rect x="414" y="20" width="92" height="22" rx="10" ry="10"></rect>
<text x="460" y="35">"OPTIONS"</text>
</g>
<path d="M506 31h10"></path>
<path d="M516 31h10"></path>
<g class="non-terminal">
<path d="M526 31h0"></path>
<path d="M586 31h0"></path>
<rect x="526" y="20" width="60" height="22"></rect>
<a xlink:href="reuse_field.svg"><text x="556" y="35">Field</text>
</a>
</g>
<path d="M586 31h10"></path>
<path d="M596 31h10"></path>
<g class="terminal">
<path d="M606 31h0"></path>
<path d="M650 31h0"></path>
<rect x="606" y="20" width="44" height="22" rx="10" ry="10"></rect>
<text x="628" y="35">"="</text>
</g>
<path d="M650 31h10"></path>
<path d="M660 31h10"></path>
<g class="non-terminal">
<path d="M670 31h0"></path>
<path d="M738 31h0"></path>
<rect x="670" y="20" width="68" height="22"></rect>
<a xlink:href="reuse_source.svg"><text x="704" y="35">Source</text>
</a>
</g>
</g>
<path d="M780 31h10"></path>
<path d="M404 31v20a10 10 0 0 0 10 10"></path>
<g>
<path d="M414 61h0"></path>
<path d="M762 61h18"></path>
<g class="terminal">
<path d="M414 61h0"></path>
<path d="M530 61h0"></path>
<rect x="414" y="50" width="116" height="22" rx="10" ry="10"></rect>
<text x="472" y="65">"PARAMETERS"</text>
</g>
<path d="M530 61h10"></path>
<path d="M540 61h10"></path>
<g class="non-terminal">
<path d="M550 61h0"></path>
<path d="M610 61h0"></path>
<rect x="550" y="50" width="60" height="22"></rect>
<a xlink:href="reuse_field.svg"><text x="580" y="65">Field</text>
</a>
</g>
<path d="M610 61h10"></path>
<path d="M620 61h10"></path>
<g class="terminal">
<path d="M630 61h0"></path>
<path d="M674 61h0"></path>
<rect x="630" y="50" width="44" height="22" rx="10" ry="10"></rect>
<text x="652" y="65">"="</text>
</g>
<path d="M674 61h10"></path>
<path d="M684 61h10"></path>
<g class="non-terminal">
<path d="M694 61h0"></path>
<path d="M762 61h0"></path>
<rect x="694" y="50" width="68" height="22"></rect>
<a xlink:href="reuse_source.svg"><text x="728" y="65">Source</text>
</a>
</g>
</g>
<path d="M780 61a10 10 0 0 0 10 -10v-20"></path>
<path d="M404 31v50a10 10 0 0 0 10 10"></path>
<g>
<path d="M414 91h0"></path>
<path d="M780 91h0"></path>
<g class="terminal">
<path d="M414 91h0"></path>
<path d="M498 91h0"></path>
<rect x="414" y="80" width="84" height="22" rx="10" ry="10"></rect>
<text x="456" y="95">"SOURCE"</text>
</g>
<path d="M498 91h10"></path>
<g>
<path d="M508 91h0"></path>
<path d="M780 91h0"></path>
<path d="M508 91h20"></path>
<g>
<path d="M528 91h0"></path>
<path d="M760 91h0"></path>
<path d="M528 91h10"></path>
<g>
<path d="M538 91h0"></path>
<path d="M750 91h0"></path>
<g class="non-terminal">
<path d="M538 91h0"></path>
<path d="M598 91h0"></path>
<rect x="538" y="80" width="60" height="22"></rect>
<a xlink:href="reuse_field.svg"><text x="568" y="95">Field</text>
</a>
</g>
<path d="M598 91h10"></path>
<path d="M608 91h10"></path>
<g class="terminal">
<path d="M618 91h0"></path>
<path d="M662 91h0"></path>
<rect x="618" y="80" width="44" height="22" rx="10" ry="10"></rect>
<text x="640" y="95">"="</text>
</g>
<path d="M662 91h10"></path>
<path d="M672 91h10"></path>
<g class="non-terminal">
<path d="M682 91h0"></path>
<path d="M750 91h0"></path>
<rect x="682" y="80" width="68" height="22"></rect>
<a xlink:href="reuse_source.svg"><text x="716" y="95">Source</text>
</a>
</g>
</g>
<path d="M750 91h10"></path>
<path d="M538 91a10 10 0 0 0 -10 10v0a10 10 0 0 0 10 10"></path>
<g>
<path d="M538 111h212"></path>
</g>
<path d="M750 111a10 10 0 0 0 10 -10v0a10 10 0 0 0 -10 -10"></path>
</g>
<path d="M760 91h20"></path>
<path d="M508 91a10 10 0 0 1 10 10v19a10 10 0 0 0 10 10"></path>
<g>
<path d="M528 130h0"></path>
<path d="M676 130h84"></path>
<g class="terminal">
<path d="M528 130h0"></path>
<path d="M588 130h0"></path>
<rect x="528" y="119" width="60" height="22" rx="10" ry="10"></rect>
<text x="558" y="134">"XML"</text>
</g>
<path d="M588 130h10"></path>
<path d="M598 130h10"></path>
<g class="non-terminal">
<path d="M608 130h0"></path>
<path d="M676 130h0"></path>
<rect x="608" y="119" width="68" height="22"></rect>
<a xlink:href="reuse_source.svg"><text x="642" y="134">Source</text>
</a>
</g>
</g>
<path d="M760 130a10 10 0 0 0 10 -10v-19a10 10 0 0 1 10 -10"></path>
<path d="M508 91a10 10 0 0 1 10 10v49a10 10 0 0 0 10 10"></path>
<g class="non-terminal">
<path d="M528 160h0"></path>
<path d="M604 160h156"></path>
<rect x="528" y="149" width="76" height="22"></rect>
<a xlink:href="reuse_dynamic.svg"><text x="566" y="164">Dynamic</text>
</a>
</g>
<path d="M760 160a10 10 0 0 0 10 -10v-49a10 10 0 0 1 10 -10"></path>
</g>
</g>
<path d="M780 91a10 10 0 0 0 10 -10v-50"></path>
<path d="M404 31v149a10 10 0 0 0 10 10"></path>
<g>
<path d="M414 190h0"></path>
<path d="M780 190h0"></path>
<g class="terminal">
<path d="M414 190h0"></path>
<path d="M498 190h0"></path>
<rect x="414" y="179" width="84" height="22" rx="10" ry="10"></rect>
<text x="456" y="194">"RESULT"</text>
</g>
<path d="M498 190h10"></path>
<g>
<path d="M508 190h0"></path>
<path d="M780 190h0"></path>
<path d="M508 190h20"></path>
<g>
<path d="M528 190h0"></path>
<path d="M760 190h0"></path>
<path d="M528 190h10"></path>
<g>
<path d="M538 190h0"></path>
<path d="M750 190h0"></path>
<g class="non-terminal">
<path d="M538 190h0"></path>
<path d="M598 190h0"></path>
<rect x="538" y="179" width="60" height="22"></rect>
<a xlink:href="reuse_field.svg"><text x="568" y="194">Field</text>
</a>
</g>
<path d="M598 190h10"></path>
<path d="M608 190h10"></path>
<g class="terminal">
<path d="M618 190h0"></path>
<path d="M662 190h0"></path>
<rect x="618" y="179" width="44" height="22" rx="10" ry="10"></rect>
<text x="640" y="194">"="</text>
</g>
<path d="M662 190h10"></path>
<path d="M672 190h10"></path>
<g class="non-terminal">
<path d="M682 190h0"></path>
<path d="M750 190h0"></path>
<rect x="682" y="179" width="68" height="22"></rect>
<a xlink:href="reuse_source.svg"><text x="716" y="194">Source</text>
</a>
</g>
</g>
<path d="M750 190h10"></path>
<path d="M538 190a10 10 0 0 0 -10 10v0a10 10 0 0 0 10 10"></path>
<g>
<path d="M538 210h212"></path>
</g>
<path d="M750 210a10 10 0 0 0 10 -10v0a10 10 0 0 0 -10 -10"></path>
</g>
<path d="M760 190h20"></path>
<path d="M508 190a10 10 0 0 1 10 10v19a10 10 0 0 0 10 10"></path>
<g>
<path d="M528 229h0"></path>
<path d="M676 229h84"></path>
<g class="terminal">
<path d="M528 229h0"></path>
<path d="M588 229h0"></path>
<rect x="528" y="218" width="60" height="22" rx="10" ry="10"></rect>
<text x="558" y="233">"XML"</text>
</g>
<path d="M588 229h10"></path>
<path d="M598 229h10"></path>
<g class="non-terminal">
<path d="M608 229h0"></path>
<path d="M676 229h0"></path>
<rect x="608" y="218" width="68" height="22"></rect>
<a xlink:href="reuse_target.svg"><text x="642" y="233">Target</text>
</a>
</g>
</g>
<path d="M760 229a10 10 0 0 0 10 -10v-19a10 10 0 0 1 10 -10"></path>
<path d="M508 190a10 10 0 0 1 10 10v49a10 10 0 0 0 10 10"></path>
<g class="non-terminal">
<path d="M528 259h0"></path>
<path d="M604 259h156"></path>
<rect x="528" y="248" width="76" height="22"></rect>
<a xlink:href="reuse_dynamic.svg"><text x="566" y="263">Dynamic</text>
</a>
</g>
<path d="M760 259a10 10 0 0 0 10 -10v-49a10 10 0 0 1 10 -10"></path>
</g>
</g>
<path d="M780 190a10 10 0 0 0 10 -10v-149"></path>
<g class="diagram-text">
<title>take one or more branches, once each, in any order</title>
<path d="M 404 21 h -26 a 4 4 0 0 0 -4 4 v 12 a 4 4 0 0 0 4 4 h 26 z" class="diagram-text"></path>
<text x="389" y="35" class="diagram-text">1+</text>
<path d="M 790 21 h 16 a 4 4 0 0 1 4 4 v 12 a 4 4 0 0 1 -4 4 h -16 z" class="diagram-text"></path>
<path d="M 797 29 a 4 4 0 1 0 6 -1 m 2.75 -1 h -4 v 4 m 0 -3 h 2" style="stroke-width: 1.75"></path>
</g>
</g>
</g>
<path d="M810 31h10"></path>
<path d="M 820 31 h 20 m -10 -10 v 20 m 10 -20 v 20"></path>
</g>
</svg>
