<svg xmlns="http://www.w3.org/2000/svg" xmlns:xlink="http://www.w3.org/1999/xlink" class="railroad-diagram" width="1334" height="230" viewBox="0 0 1334 230">
<defs>
<style type="text/css"><![CDATA[
path {
stroke-width: 3;
stroke: black;
fill: rgba(0,0,0,0);
}
text {
font: bold 14px monospace;
text-anchor: middle;
}
text.diagram-text {
font-size: 12px;
}
a {
fill: blue;
}
text.diagram-arrow {
font-size: 16px;
}
text.label {
text-anchor: start;
}
text.comment {
font: italic 12px monospace;
}
rect {
stroke-width: 3;
stroke: black;
fill: #BCBCBC;
}
path.diagram-text {
stroke-width: 3;
stroke: black;
fill: #BCBCBC;
cursor: help;
}
]]></style>
</defs>
<g transform="translate(.5 .5)">
<path d="M 20 30 v 20 m 10 -20 v 20 m -10 -10 h 20.5"></path>
<g>
<path d="M40 40h0"></path>
<path d="M1294 40h0"></path>
<path d="M40 40h20"></path>
<g>
<path d="M60 40h0"></path>
<path d="M1274 40h0"></path>
<g class="terminal">
<path d="M60 40h0"></path>
<path d="M128 40h0"></path>
<rect x="60" y="29" width="68" height="22" rx="10" ry="10"></rect>
<text x="94" y="44">"CALL"</text>
</g>
<path d="M128 40h10"></path>
<g>
<path d="M138 40h0"></path>
<path d="M262 40h0"></path>
<path d="M138 40h20"></path>
<g class="terminal">
<path d="M158 40h0"></path>
<path d="M242 40h0"></path>
<rect x="158" y="29" width="84" height="22" rx="10" ry="10"></rect>
<text x="200" y="44">"METHOD"</text>
</g>
<path d="M242 40h20"></path>
<path d="M138 40a10 10 0 0 1 10 10v10a10 10 0 0 0 10 10"></path>
<g class="terminal">
<path d="M158 70h0"></path>
<path d="M226 70h16"></path>
<rect x="158" y="59" width="68" height="22" rx="10" ry="10"></rect>
<text x="192" y="74">"BADI"</text>
</g>
<path d="M242 70a10 10 0 0 0 10 -10v-10a10 10 0 0 1 10 -10"></path>
</g>
<path d="M262 40h10"></path>
<g>
<path d="M272 40h0"></path>
<path d="M686 40h0"></path>
<g>
<path d="M272 40h0"></path>
<path d="M546 40h0"></path>
<path d="M272 40a10 10 0 0 0 10 -10v0a10 10 0 0 1 10 -10"></path>
<g>
<path d="M292 20h234"></path>
</g>
<path d="M526 20a10 10 0 0 1 10 10v0a10 10 0 0 0 10 10"></path>
<path d="M272 40h20"></path>
<g>
<path d="M292 40h0"></path>
<path d="M526 40h0"></path>
<g>
<path d="M292 40h0"></path>
<path d="M432 40h0"></path>
<path d="M292 40h20"></path>
<g class="non-terminal">
<path d="M312 40h0"></path>
<path d="M412 40h0"></path>
<rect x="312" y="29" width="100" height="22"></rect>
<a xlink:href="reuse_fieldchain.svg"><text x="362" y="44">FieldChain</text>
</a>
</g>
<path d="M412 40h20"></path>
<path d="M292 40a10 10 0 0 1 10 10v10a10 10 0 0 0 10 10"></path>
<g class="non-terminal">
<path d="M312 70h0"></path>
<path d="M388 70h24"></path>
<rect x="312" y="59" width="76" height="22"></rect>
<a xlink:href="reuse_dynamic.svg"><text x="350" y="74">Dynamic</text>
</a>
</g>
<path d="M412 70a10 10 0 0 0 10 -10v-10a10 10 0 0 1 10 -10"></path>
</g>
<path d="M432 40h10"></path>
<g class="terminal">
<path d="M442 40h0"></path>
<path d="M526 40h0"></path>
<rect x="442" y="29" width="84" height="22" rx="10" ry="10"></rect>
<text x="484" y="44">!"->/=>"</text>
</g>
</g>
<path d="M526 40h20"></path>
</g>
<g>
<path d="M546 40h0"></path>
<path d="M686 40h0"></path>
<path d="M546 40h20"></path>
<g class="non-terminal">
<path d="M566 40h0"></path>
<path d="M666 40h0"></path>
<rect x="566" y="29" width="100" height="22"></rect>
<a xlink:href="reuse_methodname.svg"><text x="616" y="44">MethodName</text>
</a>
</g>
<path d="M666 40h20"></path>
<path d="M546 40a10 10 0 0 1 10 10v10a10 10 0 0 0 10 10"></path>
<g class="non-terminal">
<path d="M566 70h0"></path>
<path d="M642 70h24"></path>
<rect x="566" y="59" width="76" height="22"></rect>
<a xlink:href="reuse_dynamic.svg"><text x="604" y="74">Dynamic</text>
</a>
</g>
<path d="M666 70a10 10 0 0 0 10 -10v-10a10 10 0 0 1 10 -10"></path>
</g>
</g>
<path d="M686 40h10"></path>
<g>
<path d="M696 40h0"></path>
<path d="M1274 40h0"></path>
<path d="M696 40h20"></path>
<g>
<path d="M716 40h0"></path>
<path d="M1028 40h226"></path>
<g class="terminal">
<path d="M716 40h0"></path>
<path d="M776 40h0"></path>
<rect x="716" y="29" width="60" height="22" rx="10" ry="10"></rect>
<text x="746" y="44">!"( "</text>
</g>
<path d="M776 40h10"></path>
<g>
<path d="M786 40h0"></path>
<path d="M974 40h0"></path>
<path d="M786 40h20"></path>
<g class="non-terminal">
<path d="M806 40h0"></path>
<path d="M874 40h80"></path>
<rect x="806" y="29" width="68" height="22"></rect>
<a xlink:href="reuse_source.svg"><text x="840" y="44">Source</text>
</a>
</g>
<path d="M954 40h20"></path>
<path d="M786 40a10 10 0 0 1 10 10v10a10 10 0 0 0 10 10"></path>
<g class="non-terminal">
<path d="M806 70h0"></path>
<path d="M938 70h16"></path>
<rect x="806" y="59" width="132" height="22"></rect>
<a xlink:href="reuse_parameterlists.svg"><text x="872" y="74">ParameterListS</text>
</a>
</g>
<path d="M954 70a10 10 0 0 0 10 -10v-10a10 10 0 0 1 10 -10"></path>
<path d="M786 40a10 10 0 0 1 10 10v40a10 10 0 0 0 10 10"></path>
<g class="non-terminal">
<path d="M806 100h0"></path>
<path d="M954 100h0"></path>
<rect x="806" y="89" width="148" height="22"></rect>
<a xlink:href="reuse_methodparameters.svg"><text x="880" y="104">MethodParameters</text>
</a>
</g>
<path d="M954 100a10 10 0 0 0 10 -10v-40a10 10 0 0 1 10 -10"></path>
</g>
<path d="M974 40h10"></path>
<g class="terminal">
<path d="M984 40h0"></path>
<path d="M1028 40h0"></path>
<rect x="984" y="29" width="44" height="22" rx="10" ry="10"></rect>
<text x="1006" y="44">")"</text>
</g>
</g>
<path d="M1254 40h20"></path>
<path d="M696 40a10 10 0 0 1 10 10v70a10 10 0 0 0 10 10"></path>
<g class="non-terminal">
<path d="M716 130h0"></path>
<path d="M864 130h390"></path>
<rect x="716" y="119" width="148" height="22"></rect>
<a xlink:href="reuse_methodparameters.svg"><text x="790" y="134">MethodParameters</text>
</a>
</g>
<path d="M1254 130a10 10 0 0 0 10 -10v-70a10 10 0 0 1 10 -10"></path>
<path d="M696 40a10 10 0 0 1 10 10v109a10 10 0 0 0 10 10"></path>
<g>
<path d="M716 169h0"></path>
<path d="M1254 169h0"></path>
<g>
<path d="M716 169h0"></path>
<path d="M960 169h0"></path>
<g class="terminal">
<path d="M716 169h0"></path>
<path d="M872 169h0"></path>
<rect x="716" y="158" width="156" height="22" rx="10" ry="10"></rect>
<text x="794" y="173">"PARAMETER-TABLE"</text>
</g>
<path d="M872 169h10"></path>
<path d="M882 169h10"></path>
<g class="non-terminal">
<path d="M892 169h0"></path>
<path d="M960 169h0"></path>
<rect x="892" y="158" width="68" height="22"></rect>
<a xlink:href="reuse_source.svg"><text x="926" y="173">Source</text>
</a>
</g>
</g>
<path d="M960 169h10"></path>
<g>
<path d="M970 169h0"></path>
<path d="M1254 169h0"></path>
<path d="M970 169a10 10 0 0 0 10 -10v0a10 10 0 0 1 10 -10"></path>
<g>
<path d="M990 149h244"></path>
</g>
<path d="M1234 149a10 10 0 0 1 10 10v0a10 10 0 0 0 10 10"></path>
<path d="M970 169h20"></path>
<g>
<path d="M990 169h0"></path>
<path d="M1234 169h0"></path>
<g class="terminal">
<path d="M990 169h0"></path>
<path d="M1146 169h0"></path>
<rect x="990" y="158" width="156" height="22" rx="10" ry="10"></rect>
<text x="1068" y="173">"EXCEPTION-TABLE"</text>
</g>
<path d="M1146 169h10"></path>
<path d="M1156 169h10"></path>
<g class="non-terminal">
<path d="M1166 169h0"></path>
<path d="M1234 169h0"></path>
<rect x="1166" y="158" width="68" height="22"></rect>
<a xlink:href="reuse_source.svg"><text x="1200" y="173">Source</text>
</a>
</g>
</g>
<path d="M1234 169h20"></path>
</g>
</g>
<path d="M1254 169a10 10 0 0 0 10 -10v-109a10 10 0 0 1 10 -10"></path>
</g>
</g>
<path d="M1274 40h20"></path>
<path d="M40 40a10 10 0 0 1 10 10v139a10 10 0 0 0 10 10"></path>
<g class="non-terminal">
<path d="M60 199h0"></path>
<path d="M200 199h1074"></path>
<rect x="60" y="188" width="140" height="22"></rect>
<a xlink:href="reuse_methodcallchain.svg"><text x="130" y="203">MethodCallChain</text>
</a>
</g>
<path d="M1274 199a10 10 0 0 0 10 -10v-139a10 10 0 0 1 10 -10"></path>
</g>
<path d="M 1294 40 h 20 m -10 -10 v 20 m 10 -20 v 20"></path>
</g>
</svg>
