<?xml version="1.0" encoding="UTF-8" standalone="no"?>
<!DOCTYPE svg PUBLIC "-//W3C//DTD SVG 1.1//EN"
 "http://www.w3.org/Graphics/SVG/1.1/DTD/svg11.dtd">
<!-- Generated by graphviz version 2.38.0 (20140413.2041)
 -->
<!-- Title: callfunction Pages: 1 -->
<svg width="369pt" height="548pt"
 viewBox="0.00 0.00 369.02 548.00" xmlns="http://www.w3.org/2000/svg" xmlns:xlink="http://www.w3.org/1999/xlink">
<g id="graph0" class="graph" transform="scale(1 1) rotate(0) translate(4 544)">
<title>callfunction</title>
<polygon fill="white" stroke="none" points="-4,4 -4,-544 365.023,-544 365.023,4 -4,4"/>
<!-- start -->
<g id="node1" class="node"><title>start</title>
<polygon fill="none" stroke="black" points="122.347,-540 68.3474,-540 68.3474,-504 122.347,-504 122.347,-540"/>
<text text-anchor="middle" x="95.3474" y="-517.8" font-family="Times,serif" font-size="14.00">Start</text>
</g>
<!-- node559 -->
<g id="node8" class="node"><title>node559</title>
<ellipse fill="none" stroke="black" cx="95.3474" cy="-450" rx="95.1951" ry="18"/>
<text text-anchor="middle" x="95.3474" y="-445.8" font-family="Times,serif" font-size="14.00">&quot;CALL FUNCTION&quot;</text>
</g>
<!-- start&#45;&gt;node559 -->
<g id="edge10" class="edge"><title>start&#45;&gt;node559</title>
<path fill="none" stroke="black" d="M95.3474,-503.697C95.3474,-495.983 95.3474,-486.712 95.3474,-478.112"/>
<polygon fill="black" stroke="black" points="98.8475,-478.104 95.3474,-468.104 91.8475,-478.104 98.8475,-478.104"/>
</g>
<!-- end -->
<g id="node2" class="node"><title>end</title>
<polygon fill="none" stroke="black" points="177.347,-36 123.347,-36 123.347,-0 177.347,-0 177.347,-36"/>
<text text-anchor="middle" x="150.347" y="-13.8" font-family="Times,serif" font-size="14.00">End</text>
</g>
<!-- node554 -->
<g id="node3" class="node"><title>node554</title>
<g id="a_node3"><a xlink:href="reuse_function_parameters.svg" xlink:title="&lt;u&gt;function_parameters&lt;/u&gt;">
<ellipse fill="none" stroke="black" cx="150.347" cy="-90" rx="90.3082" ry="18"/>
<text text-anchor="start" x="92.8165" y="-86.8" font-family="Times,serif" text-decoration="underline" font-size="14.00" fill="blue">function_parameters</text>
</a>
</g>
</g>
<!-- node554&#45;&gt;end -->
<g id="edge1" class="edge"><title>node554&#45;&gt;end</title>
<path fill="none" stroke="black" d="M150.347,-71.6966C150.347,-63.9827 150.347,-54.7125 150.347,-46.1124"/>
<polygon fill="black" stroke="black" points="153.848,-46.1043 150.347,-36.1043 146.848,-46.1044 153.848,-46.1043"/>
</g>
<!-- node555 -->
<g id="node4" class="node"><title>node555</title>
<ellipse fill="none" stroke="black" cx="150.347" cy="-162" rx="97.4423" ry="18"/>
<text text-anchor="middle" x="150.347" y="-157.8" font-family="Times,serif" font-size="14.00">&quot;IN UPDATE TASK&quot;</text>
</g>
<!-- node555&#45;&gt;node554 -->
<g id="edge2" class="edge"><title>node555&#45;&gt;node554</title>
<path fill="none" stroke="black" d="M150.347,-143.697C150.347,-135.983 150.347,-126.712 150.347,-118.112"/>
<polygon fill="black" stroke="black" points="153.848,-118.104 150.347,-108.104 146.848,-118.104 153.848,-118.104"/>
</g>
<!-- node556 -->
<g id="node5" class="node"><title>node556</title>
<g id="a_node5"><a xlink:href="reuse_constant.svg" xlink:title="&lt;u&gt;constant&lt;/u&gt;">
<ellipse fill="none" stroke="black" cx="242.347" cy="-234" rx="43.4377" ry="18"/>
<text text-anchor="start" x="219.02" y="-230.8" font-family="Times,serif" text-decoration="underline" font-size="14.00" fill="blue">constant</text>
</a>
</g>
</g>
<!-- node556&#45;&gt;node554 -->
<g id="edge4" class="edge"><title>node556&#45;&gt;node554</title>
<path fill="none" stroke="black" d="M251.227,-216.265C259.938,-197.324 270.08,-166.22 256.347,-144 246.445,-127.977 230.069,-116.637 213.117,-108.678"/>
<polygon fill="black" stroke="black" points="214.244,-105.353 203.677,-104.596 211.466,-111.778 214.244,-105.353"/>
</g>
<!-- node556&#45;&gt;node555 -->
<g id="edge3" class="edge"><title>node556&#45;&gt;node555</title>
<path fill="none" stroke="black" d="M222.385,-217.811C210.131,-208.487 194.201,-196.367 180.438,-185.895"/>
<polygon fill="black" stroke="black" points="182.279,-182.898 172.201,-179.628 178.04,-188.469 182.279,-182.898"/>
</g>
<!-- node557 -->
<g id="node6" class="node"><title>node557</title>
<ellipse fill="none" stroke="black" cx="242.347" cy="-306" rx="118.852" ry="18"/>
<text text-anchor="middle" x="242.347" y="-301.8" font-family="Times,serif" font-size="14.00">&quot;STARTING NEW TASK&quot;</text>
</g>
<!-- node557&#45;&gt;node556 -->
<g id="edge5" class="edge"><title>node557&#45;&gt;node556</title>
<path fill="none" stroke="black" d="M242.347,-287.697C242.347,-279.983 242.347,-270.712 242.347,-262.112"/>
<polygon fill="black" stroke="black" points="245.848,-262.104 242.347,-252.104 238.848,-262.104 245.848,-262.104"/>
</g>
<!-- node558 -->
<g id="node7" class="node"><title>node558</title>
<g id="a_node7"><a xlink:href="reuse_constant.svg" xlink:title="&lt;u&gt;constant&lt;/u&gt;">
<ellipse fill="none" stroke="black" cx="95.3474" cy="-378" rx="43.4377" ry="18"/>
<text text-anchor="start" x="72.0199" y="-374.8" font-family="Times,serif" text-decoration="underline" font-size="14.00" fill="blue">constant</text>
</a>
</g>
</g>
<!-- node558&#45;&gt;node554 -->
<g id="edge8" class="edge"><title>node558&#45;&gt;node554</title>
<path fill="none" stroke="black" d="M84.0121,-360.369C58.1175,-320.118 0.154254,-215.506 44.3474,-144 54.2499,-127.977 70.6255,-116.637 87.5782,-108.678"/>
<polygon fill="black" stroke="black" points="89.2285,-111.778 97.0183,-104.596 86.4504,-105.353 89.2285,-111.778"/>
</g>
<!-- node558&#45;&gt;node555 -->
<g id="edge7" class="edge"><title>node558&#45;&gt;node555</title>
<path fill="none" stroke="black" d="M98.6365,-359.856C102.173,-341.874 108.13,-312.829 114.347,-288 122.882,-253.92 134.338,-215.1 142.013,-189.886"/>
<polygon fill="black" stroke="black" points="145.371,-190.873 144.953,-180.287 138.678,-188.823 145.371,-190.873"/>
</g>
<!-- node558&#45;&gt;node557 -->
<g id="edge6" class="edge"><title>node558&#45;&gt;node557</title>
<path fill="none" stroke="black" d="M122.652,-363.998C144.077,-353.795 174.308,-339.4 199.028,-327.628"/>
<polygon fill="black" stroke="black" points="200.678,-330.719 208.202,-323.26 197.668,-324.399 200.678,-330.719"/>
</g>
<!-- node559&#45;&gt;node558 -->
<g id="edge9" class="edge"><title>node559&#45;&gt;node558</title>
<path fill="none" stroke="black" d="M95.3474,-431.697C95.3474,-423.983 95.3474,-414.712 95.3474,-406.112"/>
<polygon fill="black" stroke="black" points="98.8475,-406.104 95.3474,-396.104 91.8475,-406.104 98.8475,-406.104"/>
</g>
</g>
</svg>
