<svg xmlns="http://www.w3.org/2000/svg" xmlns:xlink="http://www.w3.org/1999/xlink" class="railroad-diagram" width="666" height="80" viewBox="0 0 666 80">
<defs>
<style type="text/css"><![CDATA[
path {
stroke-width: 3;
stroke: black;
fill: rgba(0,0,0,0);
}
text {
font: bold 14px monospace;
text-anchor: middle;
}
text.diagram-text {
font-size: 12px;
}
a {
fill: blue;
}
text.diagram-arrow {
font-size: 16px;
}
text.label {
text-anchor: start;
}
text.comment {
font: italic 12px monospace;
}
rect {
stroke-width: 3;
stroke: black;
fill: #BCBCBC;
}
path.diagram-text {
stroke-width: 3;
stroke: black;
fill: #BCBCBC;
cursor: help;
}
]]></style>
</defs>
<g transform="translate(.5 .5)">
<path d="M 20 30 v 20 m 10 -20 v 20 m -10 -10 h 20.5"></path>
<path d="M40 40h10"></path>
<g>
<path d="M50 40h0"></path>
<path d="M616 40h0"></path>
<g class="terminal">
<path d="M50 40h0"></path>
<path d="M118 40h0"></path>
<rect x="50" y="29" width="68" height="22" rx="10" ry="10"></rect>
<text x="84" y="44">"CALL"</text>
</g>
<path d="M118 40h10"></path>
<path d="M128 40h10"></path>
<g class="non-terminal">
<path d="M138 40h0"></path>
<path d="M222 40h0"></path>
<rect x="138" y="29" width="84" height="22"></rect>
<a xlink:href="reuse_constant.svg"><text x="180" y="44">Constant</text>
</a>
</g>
<path d="M222 40h10"></path>
<g>
<path d="M232 40h0"></path>
<path d="M616 40h0"></path>
<path d="M232 40a10 10 0 0 0 10 -10v0a10 10 0 0 1 10 -10"></path>
<g>
<path d="M252 20h344"></path>
</g>
<path d="M596 20a10 10 0 0 1 10 10v0a10 10 0 0 0 10 10"></path>
<path d="M232 40h20"></path>
<g>
<path d="M252 40h0"></path>
<path d="M596 40h0"></path>
<path d="M252 40h10"></path>
<g>
<path d="M262 40h0"></path>
<path d="M586 40h0"></path>
<g class="terminal">
<path d="M262 40h0"></path>
<path d="M314 40h0"></path>
<rect x="262" y="29" width="52" height="22" rx="10" ry="10"></rect>
<text x="288" y="44">"ID"</text>
</g>
<path d="M314 40h10"></path>
<path d="M324 40h10"></path>
<g class="non-terminal">
<path d="M334 40h0"></path>
<path d="M402 40h0"></path>
<rect x="334" y="29" width="68" height="22"></rect>
<a xlink:href="reuse_source.svg"><text x="368" y="44">Source</text>
</a>
</g>
<path d="M402 40h10"></path>
<path d="M412 40h10"></path>
<g class="terminal">
<path d="M422 40h0"></path>
<path d="M498 40h0"></path>
<rect x="422" y="29" width="76" height="22" rx="10" ry="10"></rect>
<text x="460" y="44">"FIELD"</text>
</g>
<path d="M498 40h10"></path>
<path d="M508 40h10"></path>
<g class="non-terminal">
<path d="M518 40h0"></path>
<path d="M586 40h0"></path>
<rect x="518" y="29" width="68" height="22"></rect>
<a xlink:href="reuse_source.svg"><text x="552" y="44">Source</text>
</a>
</g>
</g>
<path d="M586 40h10"></path>
<path d="M262 40a10 10 0 0 0 -10 10v0a10 10 0 0 0 10 10"></path>
<g>
<path d="M262 60h324"></path>
</g>
<path d="M586 60a10 10 0 0 0 10 -10v0a10 10 0 0 0 -10 -10"></path>
</g>
<path d="M596 40h20"></path>
</g>
</g>
<path d="M616 40h10"></path>
<path d="M 626 40 h 20 m -10 -10 v 20 m 10 -20 v 20"></path>
</g>
</svg>
