<svg xmlns="http://www.w3.org/2000/svg" xmlns:xlink="http://www.w3.org/1999/xlink" class="railroad-diagram" width="860" height="299" viewBox="0 0 860 299">
<defs>
<style type="text/css"><![CDATA[
path {
stroke-width: 3;
stroke: black;
fill: rgba(0,0,0,0);
}
text {
font: bold 14px monospace;
text-anchor: middle;
}
text.diagram-text {
font-size: 12px;
}
a {
fill: blue;
}
text.diagram-arrow {
font-size: 16px;
}
text.label {
text-anchor: start;
}
text.comment {
font: italic 12px monospace;
}
rect {
stroke-width: 3;
stroke: black;
fill: #BCBCBC;
}
path.diagram-text {
stroke-width: 3;
stroke: black;
fill: #BCBCBC;
cursor: help;
}
]]></style>
</defs>
<g transform="translate(.5 .5)">
<path d="M 20 21 v 20 m 10 -20 v 20 m -10 -10 h 20.5"></path>
<path d="M40 31h10"></path>
<g>
<path d="M50 31h0"></path>
<path d="M810 31h0"></path>
<g class="terminal">
<path d="M50 31h0"></path>
<path d="M238 31h0"></path>
<rect x="50" y="20" width="188" height="22" rx="10" ry="10"></rect>
<text x="144" y="35">"CALL TRANSFORMATION"</text>
</g>
<path d="M238 31h10"></path>
<g>
<path d="M248 31h0"></path>
<path d="M364 31h0"></path>
<path d="M248 31h20"></path>
<g class="non-terminal">
<path d="M268 31h0"></path>
<path d="M328 31h16"></path>
<rect x="268" y="20" width="60" height="22"></rect>
<a xlink:href="reuse_field.svg"><text x="298" y="35">Field</text>
</a>
</g>
<path d="M344 31h20"></path>
<path d="M248 31a10 10 0 0 1 10 10v10a10 10 0 0 0 10 10"></path>
<g class="non-terminal">
<path d="M268 61h0"></path>
<path d="M344 61h0"></path>
<rect x="268" y="50" width="76" height="22"></rect>
<a xlink:href="reuse_dynamic.svg"><text x="306" y="65">Dynamic</text>
</a>
</g>
<path d="M344 61a10 10 0 0 0 10 -10v-10a10 10 0 0 1 10 -10"></path>
</g>
<path d="M364 31h10"></path>
<g>
<path d="M374 31h0"></path>
<path d="M810 31h0"></path>
<path d="M404 31h10"></path>
<g>
<path d="M414 31h0"></path>
<path d="M758 31h22"></path>
<g class="terminal">
<path d="M414 31h0"></path>
<path d="M506 31h0"></path>
<rect x="414" y="20" width="92" height="22" rx="10" ry="10"></rect>
<text x="460" y="35">"OPTIONS"</text>
</g>
<path d="M506 31h10"></path>
<path d="M516 31h10"></path>
<g>
<path d="M526 31h0"></path>
<path d="M758 31h0"></path>
<path d="M526 31h10"></path>
<g>
<path d="M536 31h0"></path>
<path d="M748 31h0"></path>
<g class="non-terminal">
<path d="M536 31h0"></path>
<path d="M596 31h0"></path>
<rect x="536" y="20" width="60" height="22"></rect>
<a xlink:href="reuse_field.svg"><text x="566" y="35">Field</text>
</a>
</g>
<path d="M596 31h10"></path>
<path d="M606 31h10"></path>
<g class="terminal">
<path d="M616 31h0"></path>
<path d="M660 31h0"></path>
<rect x="616" y="20" width="44" height="22" rx="10" ry="10"></rect>
<text x="638" y="35">"="</text>
</g>
<path d="M660 31h10"></path>
<path d="M670 31h10"></path>
<g class="non-terminal">
<path d="M680 31h0"></path>
<path d="M748 31h0"></path>
<rect x="680" y="20" width="68" height="22"></rect>
<a xlink:href="reuse_source.svg"><text x="714" y="35">Source</text>
</a>
</g>
</g>
<path d="M748 31h10"></path>
<path d="M536 31a10 10 0 0 0 -10 10v0a10 10 0 0 0 10 10"></path>
<g>
<path d="M536 51h212"></path>
</g>
<path d="M748 51a10 10 0 0 0 10 -10v0a10 10 0 0 0 -10 -10"></path>
</g>
</g>
<path d="M780 31h10"></path>
<path d="M404 31v29a10 10 0 0 0 10 10"></path>
<g>
<path d="M414 70h0"></path>
<path d="M762 70h18"></path>
<g class="terminal">
<path d="M414 70h0"></path>
<path d="M530 70h0"></path>
<rect x="414" y="59" width="116" height="22" rx="10" ry="10"></rect>
<text x="472" y="74">"PARAMETERS"</text>
</g>
<path d="M530 70h10"></path>
<path d="M540 70h10"></path>
<g>
<path d="M550 70h0"></path>
<path d="M762 70h0"></path>
<g class="non-terminal">
<path d="M550 70h0"></path>
<path d="M610 70h0"></path>
<rect x="550" y="59" width="60" height="22"></rect>
<a xlink:href="reuse_field.svg"><text x="580" y="74">Field</text>
</a>
</g>
<path d="M610 70h10"></path>
<path d="M620 70h10"></path>
<g class="terminal">
<path d="M630 70h0"></path>
<path d="M674 70h0"></path>
<rect x="630" y="59" width="44" height="22" rx="10" ry="10"></rect>
<text x="652" y="74">"="</text>
</g>
<path d="M674 70h10"></path>
<path d="M684 70h10"></path>
<g class="non-terminal">
<path d="M694 70h0"></path>
<path d="M762 70h0"></path>
<rect x="694" y="59" width="68" height="22"></rect>
<a xlink:href="reuse_source.svg"><text x="728" y="74">Source</text>
</a>
</g>
</g>
</g>
<path d="M780 70a10 10 0 0 0 10 -10v-29"></path>
<path d="M404 31v59a10 10 0 0 0 10 10"></path>
<g>
<path d="M414 100h0"></path>
<path d="M780 100h0"></path>
<g class="terminal">
<path d="M414 100h0"></path>
<path d="M498 100h0"></path>
<rect x="414" y="89" width="84" height="22" rx="10" ry="10"></rect>
<text x="456" y="104">"SOURCE"</text>
</g>
<path d="M498 100h10"></path>
<g>
<path d="M508 100h0"></path>
<path d="M780 100h0"></path>
<path d="M508 100h20"></path>
<g>
<path d="M528 100h0"></path>
<path d="M760 100h0"></path>
<path d="M528 100h10"></path>
<g>
<path d="M538 100h0"></path>
<path d="M750 100h0"></path>
<g class="non-terminal">
<path d="M538 100h0"></path>
<path d="M598 100h0"></path>
<rect x="538" y="89" width="60" height="22"></rect>
<a xlink:href="reuse_field.svg"><text x="568" y="104">Field</text>
</a>
</g>
<path d="M598 100h10"></path>
<path d="M608 100h10"></path>
<g class="terminal">
<path d="M618 100h0"></path>
<path d="M662 100h0"></path>
<rect x="618" y="89" width="44" height="22" rx="10" ry="10"></rect>
<text x="640" y="104">"="</text>
</g>
<path d="M662 100h10"></path>
<path d="M672 100h10"></path>
<g class="non-terminal">
<path d="M682 100h0"></path>
<path d="M750 100h0"></path>
<rect x="682" y="89" width="68" height="22"></rect>
<a xlink:href="reuse_source.svg"><text x="716" y="104">Source</text>
</a>
</g>
</g>
<path d="M750 100h10"></path>
<path d="M538 100a10 10 0 0 0 -10 10v0a10 10 0 0 0 10 10"></path>
<g>
<path d="M538 120h212"></path>
</g>
<path d="M750 120a10 10 0 0 0 10 -10v0a10 10 0 0 0 -10 -10"></path>
</g>
<path d="M760 100h20"></path>
<path d="M508 100a10 10 0 0 1 10 10v19a10 10 0 0 0 10 10"></path>
<g>
<path d="M528 139h0"></path>
<path d="M676 139h84"></path>
<g class="terminal">
<path d="M528 139h0"></path>
<path d="M588 139h0"></path>
<rect x="528" y="128" width="60" height="22" rx="10" ry="10"></rect>
<text x="558" y="143">"XML"</text>
</g>
<path d="M588 139h10"></path>
<path d="M598 139h10"></path>
<g class="non-terminal">
<path d="M608 139h0"></path>
<path d="M676 139h0"></path>
<rect x="608" y="128" width="68" height="22"></rect>
<a xlink:href="reuse_source.svg"><text x="642" y="143">Source</text>
</a>
</g>
</g>
<path d="M760 139a10 10 0 0 0 10 -10v-19a10 10 0 0 1 10 -10"></path>
<path d="M508 100a10 10 0 0 1 10 10v49a10 10 0 0 0 10 10"></path>
<g class="non-terminal">
<path d="M528 169h0"></path>
<path d="M604 169h156"></path>
<rect x="528" y="158" width="76" height="22"></rect>
<a xlink:href="reuse_dynamic.svg"><text x="566" y="173">Dynamic</text>
</a>
</g>
<path d="M760 169a10 10 0 0 0 10 -10v-49a10 10 0 0 1 10 -10"></path>
</g>
</g>
<path d="M780 100a10 10 0 0 0 10 -10v-59"></path>
<path d="M404 31v158a10 10 0 0 0 10 10"></path>
<g>
<path d="M414 199h0"></path>
<path d="M780 199h0"></path>
<g class="terminal">
<path d="M414 199h0"></path>
<path d="M498 199h0"></path>
<rect x="414" y="188" width="84" height="22" rx="10" ry="10"></rect>
<text x="456" y="203">"RESULT"</text>
</g>
<path d="M498 199h10"></path>
<g>
<path d="M508 199h0"></path>
<path d="M780 199h0"></path>
<path d="M508 199h20"></path>
<g>
<path d="M528 199h0"></path>
<path d="M760 199h0"></path>
<path d="M528 199h10"></path>
<g>
<path d="M538 199h0"></path>
<path d="M750 199h0"></path>
<g class="non-terminal">
<path d="M538 199h0"></path>
<path d="M598 199h0"></path>
<rect x="538" y="188" width="60" height="22"></rect>
<a xlink:href="reuse_field.svg"><text x="568" y="203">Field</text>
</a>
</g>
<path d="M598 199h10"></path>
<path d="M608 199h10"></path>
<g class="terminal">
<path d="M618 199h0"></path>
<path d="M662 199h0"></path>
<rect x="618" y="188" width="44" height="22" rx="10" ry="10"></rect>
<text x="640" y="203">"="</text>
</g>
<path d="M662 199h10"></path>
<path d="M672 199h10"></path>
<g class="non-terminal">
<path d="M682 199h0"></path>
<path d="M750 199h0"></path>
<rect x="682" y="188" width="68" height="22"></rect>
<a xlink:href="reuse_source.svg"><text x="716" y="203">Source</text>
</a>
</g>
</g>
<path d="M750 199h10"></path>
<path d="M538 199a10 10 0 0 0 -10 10v0a10 10 0 0 0 10 10"></path>
<g>
<path d="M538 219h212"></path>
</g>
<path d="M750 219a10 10 0 0 0 10 -10v0a10 10 0 0 0 -10 -10"></path>
</g>
<path d="M760 199h20"></path>
<path d="M508 199a10 10 0 0 1 10 10v19a10 10 0 0 0 10 10"></path>
<g>
<path d="M528 238h0"></path>
<path d="M676 238h84"></path>
<g class="terminal">
<path d="M528 238h0"></path>
<path d="M588 238h0"></path>
<rect x="528" y="227" width="60" height="22" rx="10" ry="10"></rect>
<text x="558" y="242">"XML"</text>
</g>
<path d="M588 238h10"></path>
<path d="M598 238h10"></path>
<g class="non-terminal">
<path d="M608 238h0"></path>
<path d="M676 238h0"></path>
<rect x="608" y="227" width="68" height="22"></rect>
<a xlink:href="reuse_target.svg"><text x="642" y="242">Target</text>
</a>
</g>
</g>
<path d="M760 238a10 10 0 0 0 10 -10v-19a10 10 0 0 1 10 -10"></path>
<path d="M508 199a10 10 0 0 1 10 10v49a10 10 0 0 0 10 10"></path>
<g class="non-terminal">
<path d="M528 268h0"></path>
<path d="M604 268h156"></path>
<rect x="528" y="257" width="76" height="22"></rect>
<a xlink:href="reuse_dynamic.svg"><text x="566" y="272">Dynamic</text>
</a>
</g>
<path d="M760 268a10 10 0 0 0 10 -10v-49a10 10 0 0 1 10 -10"></path>
</g>
</g>
<path d="M780 199a10 10 0 0 0 10 -10v-158"></path>
<g class="diagram-text">
<title>take one or more branches, once each, in any order</title>
<path d="M 404 21 h -26 a 4 4 0 0 0 -4 4 v 12 a 4 4 0 0 0 4 4 h 26 z" class="diagram-text"></path>
<text x="389" y="35" class="diagram-text">1+</text>
<path d="M 790 21 h 16 a 4 4 0 0 1 4 4 v 12 a 4 4 0 0 1 -4 4 h -16 z" class="diagram-text"></path>
<path d="M 797 29 a 4 4 0 1 0 6 -1 m 2.75 -1 h -4 v 4 m 0 -3 h 2" style="stroke-width: 1.75"></path>
</g>
</g>
</g>
<path d="M810 31h10"></path>
<path d="M 820 31 h 20 m -10 -10 v 20 m 10 -20 v 20"></path>
</g>
</svg>
