<svg xmlns="http://www.w3.org/2000/svg" xmlns:xlink="http://www.w3.org/1999/xlink" class="railroad-diagram" width="1060" height="101" viewBox="0 0 1060 101">
<defs>
<style type="text/css"><![CDATA[
path {
stroke-width: 3;
stroke: black;
fill: rgba(0,0,0,0);
}
text {
font: bold 14px monospace;
text-anchor: middle;
}
text.diagram-text {
font-size: 12px;
}
a {
fill: blue;
}
text.diagram-arrow {
font-size: 16px;
}
text.label {
text-anchor: start;
}
text.comment {
font: italic 12px monospace;
}
rect {
stroke-width: 3;
stroke: black;
fill: #BCBCBC;
}
path.diagram-text {
stroke-width: 3;
stroke: black;
fill: #BCBCBC;
cursor: help;
}
]]></style>
</defs>
<g transform="translate(.5 .5)">
<path d="M 20 30 v 20 m 10 -20 v 20 m -10 -10 h 20.5"></path>
<path d="M40 40h10"></path>
<g>
<path d="M50 40h0"></path>
<path d="M1010 40h0"></path>
<g class="terminal">
<path d="M50 40h0"></path>
<path d="M190 40h0"></path>
<rect x="50" y="29" width="140" height="22" rx="10" ry="10"></rect>
<text x="120" y="44">"CALL FUNCTION"</text>
</g>
<path d="M190 40h10"></path>
<g>
<path d="M200 40h0"></path>
<path d="M324 40h0"></path>
<path d="M200 40h20"></path>
<g class="non-terminal">
<path d="M220 40h0"></path>
<path d="M304 40h0"></path>
<rect x="220" y="29" width="84" height="22"></rect>
<a xlink:href="reuse_constant.svg"><text x="262" y="44">constant</text>
</a>
</g>
<path d="M304 40h20"></path>
<path d="M200 40a10 10 0 0 1 10 10v10a10 10 0 0 0 10 10"></path>
<g class="non-terminal">
<path d="M220 70h12"></path>
<path d="M292 70h12"></path>
<rect x="232" y="59" width="60" height="22"></rect>
<a xlink:href="reuse_field.svg"><text x="262" y="74">field</text>
</a>
</g>
<path d="M304 70a10 10 0 0 0 10 -10v-10a10 10 0 0 1 10 -10"></path>
</g>
<g>
<path d="M324 40h0"></path>
<path d="M640 40h0"></path>
<path d="M324 40a10 10 0 0 0 10 -10v0a10 10 0 0 1 10 -10"></path>
<g>
<path d="M344 20h276"></path>
</g>
<path d="M620 20a10 10 0 0 1 10 10v0a10 10 0 0 0 10 10"></path>
<path d="M324 40h20"></path>
<g>
<path d="M344 40h0"></path>
<path d="M620 40h0"></path>
<g class="terminal">
<path d="M344 40h0"></path>
<path d="M516 40h0"></path>
<rect x="344" y="29" width="172" height="22" rx="10" ry="10"></rect>
<text x="430" y="44">"STARTING NEW TASK"</text>
</g>
<path d="M516 40h10"></path>
<path d="M526 40h10"></path>
<g class="non-terminal">
<path d="M536 40h0"></path>
<path d="M620 40h0"></path>
<rect x="536" y="29" width="84" height="22"></rect>
<a xlink:href="reuse_constant.svg"><text x="578" y="44">constant</text>
</a>
</g>
</g>
<path d="M620 40h20"></path>
</g>
<g>
<path d="M640 40h0"></path>
<path d="M828 40h0"></path>
<path d="M640 40a10 10 0 0 0 10 -10v0a10 10 0 0 1 10 -10"></path>
<g>
<path d="M660 20h148"></path>
</g>
<path d="M808 20a10 10 0 0 1 10 10v0a10 10 0 0 0 10 10"></path>
<path d="M640 40h20"></path>
<g class="terminal">
<path d="M660 40h0"></path>
<path d="M808 40h0"></path>
<rect x="660" y="29" width="148" height="22" rx="10" ry="10"></rect>
<text x="734" y="44">"IN UPDATE TASK"</text>
</g>
<path d="M808 40h20"></path>
</g>
<path d="M828 40h10"></path>
<g class="non-terminal">
<path d="M838 40h0"></path>
<path d="M1010 40h0"></path>
<rect x="838" y="29" width="172" height="22"></rect>
<a xlink:href="reuse_function_parameters.svg"><text x="924" y="44">function&#95;parameters</text>
</a>
</g>
</g>
<path d="M1010 40h10"></path>
<path d="M 1020 40 h 20 m -10 -10 v 20 m 10 -20 v 20"></path>
</g>
</svg>
