<svg xmlns="http://www.w3.org/2000/svg" xmlns:xlink="http://www.w3.org/1999/xlink" class="railroad-diagram" width="1200" height="191" viewBox="0 0 1200 191">
<defs>
<style type="text/css"><![CDATA[
path {
stroke-width: 3;
stroke: black;
fill: rgba(0,0,0,0);
}
text {
font: bold 14px monospace;
text-anchor: middle;
}
text.diagram-text {
font-size: 12px;
}
a {
fill: blue;
}
text.diagram-arrow {
font-size: 16px;
}
text.label {
text-anchor: start;
}
text.comment {
font: italic 12px monospace;
}
rect {
stroke-width: 3;
stroke: black;
fill: #BCBCBC;
}
path.diagram-text {
stroke-width: 3;
stroke: black;
fill: #BCBCBC;
cursor: help;
}
]]></style>
</defs>
<g transform="translate(.5 .5)">
<path d="M 20 30 v 20 m 10 -20 v 20 m -10 -10 h 20.5"></path>
<g>
<path d="M40 40h0"></path>
<path d="M1160 40h0"></path>
<path d="M40 40h20"></path>
<g>
<path d="M60 40h0"></path>
<path d="M1140 40h0"></path>
<g class="terminal">
<path d="M60 40h0"></path>
<path d="M184 40h0"></path>
<rect x="60" y="29" width="124" height="22" rx="10" ry="10"></rect>
<text x="122" y="44">"CALL METHOD"</text>
</g>
<path d="M184 40h10"></path>
<path d="M194 40h10"></path>
<g>
<path d="M204 40h0"></path>
<path d="M786 40h0"></path>
<g>
<path d="M204 40h0"></path>
<path d="M440 40h0"></path>
<path d="M204 40h20"></path>
<g class="non-terminal">
<path d="M224 40h44"></path>
<path d="M376 40h44"></path>
<rect x="268" y="29" width="108" height="22"></rect>
<a xlink:href="reuse_method_name.svg"><text x="322" y="44">method&#95;name</text>
</a>
</g>
<path d="M420 40h20"></path>
<path d="M204 40a10 10 0 0 1 10 10v10a10 10 0 0 0 10 10"></path>
<g>
<path d="M224 70h0"></path>
<path d="M420 70h0"></path>
<g class="terminal">
<path d="M224 70h0"></path>
<path d="M268 70h0"></path>
<rect x="224" y="59" width="44" height="22" rx="10" ry="10"></rect>
<text x="246" y="74">"("</text>
</g>
<path d="M268 70h10"></path>
<path d="M278 70h10"></path>
<g class="non-terminal">
<path d="M288 70h0"></path>
<path d="M356 70h0"></path>
<rect x="288" y="59" width="68" height="22"></rect>
<a xlink:href="reuse_source.svg"><text x="322" y="74">source</text>
</a>
</g>
<path d="M356 70h10"></path>
<path d="M366 70h10"></path>
<g class="terminal">
<path d="M376 70h0"></path>
<path d="M420 70h0"></path>
<rect x="376" y="59" width="44" height="22" rx="10" ry="10"></rect>
<text x="398" y="74">")"</text>
</g>
</g>
<path d="M420 70a10 10 0 0 0 10 -10v-10a10 10 0 0 1 10 -10"></path>
</g>
<g>
<path d="M440 40h0"></path>
<path d="M786 40h0"></path>
<path d="M440 40a10 10 0 0 0 10 -10v0a10 10 0 0 1 10 -10"></path>
<g>
<path d="M460 20h306"></path>
</g>
<path d="M766 20a10 10 0 0 1 10 10v0a10 10 0 0 0 10 10"></path>
<path d="M440 40h20"></path>
<g>
<path d="M460 40h0"></path>
<path d="M766 40h0"></path>
<g class="non-terminal">
<path d="M460 40h0"></path>
<path d="M520 40h0"></path>
<rect x="460" y="29" width="60" height="22"></rect>
<a xlink:href="reuse_arrow.svg"><text x="490" y="44">arrow</text>
</a>
</g>
<path d="M520 40h10"></path>
<g>
<path d="M530 40h0"></path>
<path d="M766 40h0"></path>
<path d="M530 40h20"></path>
<g class="non-terminal">
<path d="M550 40h44"></path>
<path d="M702 40h44"></path>
<rect x="594" y="29" width="108" height="22"></rect>
<a xlink:href="reuse_method_name.svg"><text x="648" y="44">method&#95;name</text>
</a>
</g>
<path d="M746 40h20"></path>
<path d="M530 40a10 10 0 0 1 10 10v10a10 10 0 0 0 10 10"></path>
<g>
<path d="M550 70h0"></path>
<path d="M746 70h0"></path>
<g class="terminal">
<path d="M550 70h0"></path>
<path d="M594 70h0"></path>
<rect x="550" y="59" width="44" height="22" rx="10" ry="10"></rect>
<text x="572" y="74">"("</text>
</g>
<path d="M594 70h10"></path>
<path d="M604 70h10"></path>
<g class="non-terminal">
<path d="M614 70h0"></path>
<path d="M682 70h0"></path>
<rect x="614" y="59" width="68" height="22"></rect>
<a xlink:href="reuse_source.svg"><text x="648" y="74">source</text>
</a>
</g>
<path d="M682 70h10"></path>
<path d="M692 70h10"></path>
<g class="terminal">
<path d="M702 70h0"></path>
<path d="M746 70h0"></path>
<rect x="702" y="59" width="44" height="22" rx="10" ry="10"></rect>
<text x="724" y="74">")"</text>
</g>
</g>
<path d="M746 70a10 10 0 0 0 10 -10v-10a10 10 0 0 1 10 -10"></path>
</g>
</g>
<path d="M766 40h20"></path>
</g>
</g>
<path d="M786 40h10"></path>
<g>
<path d="M796 40h0"></path>
<path d="M1140 40h0"></path>
<path d="M796 40h20"></path>
<g>
<path d="M816 40h0"></path>
<path d="M1120 40h0"></path>
<g class="terminal">
<path d="M816 40h0"></path>
<path d="M860 40h0"></path>
<rect x="816" y="29" width="44" height="22" rx="10" ry="10"></rect>
<text x="838" y="44">"("</text>
</g>
<path d="M860 40h10"></path>
<g>
<path d="M870 40h0"></path>
<path d="M1066 40h0"></path>
<path d="M870 40h20"></path>
<g class="non-terminal">
<path d="M890 40h44"></path>
<path d="M1002 40h44"></path>
<rect x="934" y="29" width="68" height="22"></rect>
<a xlink:href="reuse_source.svg"><text x="968" y="44">source</text>
</a>
</g>
<path d="M1046 40h20"></path>
<path d="M870 40a10 10 0 0 1 10 10v10a10 10 0 0 0 10 10"></path>
<g class="non-terminal">
<path d="M890 70h4"></path>
<path d="M1042 70h4"></path>
<rect x="894" y="59" width="148" height="22"></rect>
<a xlink:href="reuse_parameter_list_s.svg"><text x="968" y="74">parameter&#95;list&#95;s</text>
</a>
</g>
<path d="M1046 70a10 10 0 0 0 10 -10v-10a10 10 0 0 1 10 -10"></path>
<path d="M870 40a10 10 0 0 1 10 10v40a10 10 0 0 0 10 10"></path>
<g class="non-terminal">
<path d="M890 100h0"></path>
<path d="M1046 100h0"></path>
<rect x="890" y="89" width="156" height="22"></rect>
<a xlink:href="reuse_method_parameters.svg"><text x="968" y="104">method&#95;parameters</text>
</a>
</g>
<path d="M1046 100a10 10 0 0 0 10 -10v-40a10 10 0 0 1 10 -10"></path>
</g>
<path d="M1066 40h10"></path>
<g class="terminal">
<path d="M1076 40h0"></path>
<path d="M1120 40h0"></path>
<rect x="1076" y="29" width="44" height="22" rx="10" ry="10"></rect>
<text x="1098" y="44">")"</text>
</g>
</g>
<path d="M1120 40h20"></path>
<path d="M796 40a10 10 0 0 1 10 10v70a10 10 0 0 0 10 10"></path>
<g class="non-terminal">
<path d="M816 130h74"></path>
<path d="M1046 130h74"></path>
<rect x="890" y="119" width="156" height="22"></rect>
<a xlink:href="reuse_method_parameters.svg"><text x="968" y="134">method&#95;parameters</text>
</a>
</g>
<path d="M1120 130a10 10 0 0 0 10 -10v-70a10 10 0 0 1 10 -10"></path>
</g>
</g>
<path d="M1140 40h20"></path>
<path d="M40 40a10 10 0 0 1 10 10v100a10 10 0 0 0 10 10"></path>
<g class="non-terminal">
<path d="M60 160h462"></path>
<path d="M678 160h462"></path>
<rect x="522" y="149" width="156" height="22"></rect>
<a xlink:href="reuse_method_call_chain.svg"><text x="600" y="164">method&#95;call&#95;chain</text>
</a>
</g>
<path d="M1140 160a10 10 0 0 0 10 -10v-100a10 10 0 0 1 10 -10"></path>
</g>
<path d="M 1160 40 h 20 m -10 -10 v 20 m 10 -20 v 20"></path>
</g>
</svg>
