<svg xmlns="http://www.w3.org/2000/svg" xmlns:xlink="http://www.w3.org/1999/xlink" class="railroad-diagram" width="1392" height="79" viewBox="0 0 1392 79">
<defs>
<style type="text/css"><![CDATA[
path {
stroke-width: 3;
stroke: black;
fill: rgba(0,0,0,0);
}
text {
font: bold 14px monospace;
text-anchor: middle;
}
text.diagram-text {
font-size: 12px;
}
a {
fill: blue;
}
text.diagram-arrow {
font-size: 16px;
}
text.label {
text-anchor: start;
}
text.comment {
font: italic 12px monospace;
}
rect {
stroke-width: 3;
stroke: black;
fill: #BCBCBC;
}
path.diagram-text {
stroke-width: 3;
stroke: black;
fill: #BCBCBC;
cursor: help;
}
]]></style>
</defs>
<g transform="translate(.5 .5)">
<path d="M 20 38 v 20 m 10 -20 v 20 m -10 -10 h 20.5"></path>
<path d="M40 48h10"></path>
<g>
<path d="M50 48h0"></path>
<path d="M1342 48h0"></path>
<g class="terminal">
<path d="M50 48h0"></path>
<path d="M254 48h0"></path>
<rect x="50" y="37" width="204" height="22" rx="10" ry="10"></rect>
<text x="152" y="52">"CALL SELECTION-SCREEN"</text>
</g>
<path d="M254 48h10"></path>
<path d="M264 48h10"></path>
<g class="non-terminal">
<path d="M274 48h0"></path>
<path d="M342 48h0"></path>
<rect x="274" y="37" width="68" height="22"></rect>
<a xlink:href="reuse_source.svg"><text x="308" y="52">Source</text>
</a>
</g>
<path d="M342 48h10"></path>
<g>
<path d="M352 48h0"></path>
<path d="M1026 48h0"></path>
<path d="M352 48a10 10 0 0 0 10 -10v-8a10 10 0 0 1 10 -10"></path>
<g>
<path d="M372 20h634"></path>
</g>
<path d="M1006 20a10 10 0 0 1 10 10v8a10 10 0 0 0 10 10"></path>
<path d="M352 48h20"></path>
<g>
<path d="M372 48h0"></path>
<path d="M1006 48h0"></path>
<g>
<path d="M372 48h0"></path>
<path d="M672 48h0"></path>
<g class="terminal">
<path d="M372 48h0"></path>
<path d="M496 48h0"></path>
<rect x="372" y="37" width="124" height="22" rx="10" ry="10"></rect>
<text x="434" y="52">"STARTING AT"</text>
</g>
<path d="M496 48h10"></path>
<path d="M506 48h10"></path>
<g class="non-terminal">
<path d="M516 48h0"></path>
<path d="M584 48h0"></path>
<rect x="516" y="37" width="68" height="22"></rect>
<a xlink:href="reuse_source.svg"><text x="550" y="52">Source</text>
</a>
</g>
<path d="M584 48h10"></path>
<path d="M594 48h10"></path>
<g class="non-terminal">
<path d="M604 48h0"></path>
<path d="M672 48h0"></path>
<rect x="604" y="37" width="68" height="22"></rect>
<a xlink:href="reuse_source.svg"><text x="638" y="52">Source</text>
</a>
</g>
</g>
<path d="M672 48h10"></path>
<g>
<path d="M682 48h0"></path>
<path d="M1006 48h0"></path>
<path d="M682 48a10 10 0 0 0 10 -10v0a10 10 0 0 1 10 -10"></path>
<g>
<path d="M702 28h284"></path>
</g>
<path d="M986 28a10 10 0 0 1 10 10v0a10 10 0 0 0 10 10"></path>
<path d="M682 48h20"></path>
<g>
<path d="M702 48h0"></path>
<path d="M986 48h0"></path>
<g class="terminal">
<path d="M702 48h0"></path>
<path d="M810 48h0"></path>
<rect x="702" y="37" width="108" height="22" rx="10" ry="10"></rect>
<text x="756" y="52">"ENDING AT"</text>
</g>
<path d="M810 48h10"></path>
<path d="M820 48h10"></path>
<g class="non-terminal">
<path d="M830 48h0"></path>
<path d="M898 48h0"></path>
<rect x="830" y="37" width="68" height="22"></rect>
<a xlink:href="reuse_source.svg"><text x="864" y="52">Source</text>
</a>
</g>
<path d="M898 48h10"></path>
<path d="M908 48h10"></path>
<g class="non-terminal">
<path d="M918 48h0"></path>
<path d="M986 48h0"></path>
<rect x="918" y="37" width="68" height="22"></rect>
<a xlink:href="reuse_source.svg"><text x="952" y="52">Source</text>
</a>
</g>
</g>
<path d="M986 48h20"></path>
</g>
</g>
<path d="M1006 48h20"></path>
</g>
<g>
<path d="M1026 48h0"></path>
<path d="M1342 48h0"></path>
<path d="M1026 48a10 10 0 0 0 10 -10v0a10 10 0 0 1 10 -10"></path>
<g>
<path d="M1046 28h276"></path>
</g>
<path d="M1322 28a10 10 0 0 1 10 10v0a10 10 0 0 0 10 10"></path>
<path d="M1026 48h20"></path>
<g>
<path d="M1046 48h0"></path>
<path d="M1322 48h0"></path>
<g class="terminal">
<path d="M1046 48h0"></path>
<path d="M1234 48h0"></path>
<rect x="1046" y="37" width="188" height="22" rx="10" ry="10"></rect>
<text x="1140" y="52">"USING SELECTION-SET"</text>
</g>
<path d="M1234 48h10"></path>
<path d="M1244 48h10"></path>
<g class="non-terminal">
<path d="M1254 48h0"></path>
<path d="M1322 48h0"></path>
<rect x="1254" y="37" width="68" height="22"></rect>
<a xlink:href="reuse_source.svg"><text x="1288" y="52">Source</text>
</a>
</g>
</g>
<path d="M1322 48h20"></path>
</g>
</g>
<path d="M1342 48h10"></path>
<path d="M 1352 48 h 20 m -10 -10 v 20 m 10 -20 v 20"></path>
</g>
</svg>
