<svg xmlns="http://www.w3.org/2000/svg" xmlns:xlink="http://www.w3.org/1999/xlink" class="railroad-diagram" width="2242" height="71" viewBox="0 0 2242 71">
<defs>
<style type="text/css"><![CDATA[
path {
stroke-width: 3;
stroke: black;
fill: rgba(0,0,0,0);
}
text {
font: bold 14px monospace;
text-anchor: middle;
}
text.diagram-text {
font-size: 12px;
}
a {
fill: blue;
}
text.diagram-arrow {
font-size: 16px;
}
text.label {
text-anchor: start;
}
text.comment {
font: italic 12px monospace;
}
rect {
stroke-width: 3;
stroke: black;
fill: #BCBCBC;
}
path.diagram-text {
stroke-width: 3;
stroke: black;
fill: #BCBCBC;
cursor: help;
}
]]></style>
</defs>
<g transform="translate(.5 .5)">
<path d="M 20 30 v 20 m 10 -20 v 20 m -10 -10 h 20.5"></path>
<path d="M40 40h10"></path>
<g>
<path d="M50 40h0"></path>
<path d="M2192 40h0"></path>
<g class="terminal">
<path d="M50 40h0"></path>
<path d="M214 40h0"></path>
<rect x="50" y="29" width="164" height="22" rx="10" ry="10"></rect>
<text x="132" y="44">"CALL TRANSACTION"</text>
</g>
<path d="M214 40h10"></path>
<path d="M224 40h10"></path>
<g class="non-terminal">
<path d="M234 40h0"></path>
<path d="M302 40h0"></path>
<rect x="234" y="29" width="68" height="22"></rect>
<a xlink:href="reuse_source.svg"><text x="268" y="44">Source</text>
</a>
</g>
<path d="M302 40h10"></path>
<g>
<path d="M312 40h0"></path>
<path d="M548 40h0"></path>
<path d="M312 40a10 10 0 0 0 10 -10v0a10 10 0 0 1 10 -10"></path>
<g>
<path d="M332 20h196"></path>
</g>
<path d="M528 20a10 10 0 0 1 10 10v0a10 10 0 0 0 10 10"></path>
<path d="M312 40h20"></path>
<g class="terminal">
<path d="M332 40h0"></path>
<path d="M528 40h0"></path>
<rect x="332" y="29" width="196" height="22" rx="10" ry="10"></rect>
<text x="430" y="44">"WITH AUTHORITY-CHECK"</text>
</g>
<path d="M528 40h20"></path>
</g>
<g>
<path d="M548 40h0"></path>
<path d="M808 40h0"></path>
<path d="M548 40a10 10 0 0 0 10 -10v0a10 10 0 0 1 10 -10"></path>
<g>
<path d="M568 20h220"></path>
</g>
<path d="M788 20a10 10 0 0 1 10 10v0a10 10 0 0 0 10 10"></path>
<path d="M548 40h20"></path>
<g class="terminal">
<path d="M568 40h0"></path>
<path d="M788 40h0"></path>
<rect x="568" y="29" width="220" height="22" rx="10" ry="10"></rect>
<text x="678" y="44">"WITHOUT AUTHORITY-CHECK"</text>
</g>
<path d="M788 40h20"></path>
</g>
<g>
<path d="M808 40h0"></path>
<path d="M1012 40h0"></path>
<path d="M808 40a10 10 0 0 0 10 -10v0a10 10 0 0 1 10 -10"></path>
<g>
<path d="M828 20h164"></path>
</g>
<path d="M992 20a10 10 0 0 1 10 10v0a10 10 0 0 0 10 10"></path>
<path d="M808 40h20"></path>
<g>
<path d="M828 40h0"></path>
<path d="M992 40h0"></path>
<g class="terminal">
<path d="M828 40h0"></path>
<path d="M904 40h0"></path>
<rect x="828" y="29" width="76" height="22" rx="10" ry="10"></rect>
<text x="866" y="44">"USING"</text>
</g>
<path d="M904 40h10"></path>
<path d="M914 40h10"></path>
<g class="non-terminal">
<path d="M924 40h0"></path>
<path d="M992 40h0"></path>
<rect x="924" y="29" width="68" height="22"></rect>
<a xlink:href="reuse_source.svg"><text x="958" y="44">Source</text>
</a>
</g>
</g>
<path d="M992 40h20"></path>
</g>
<g>
<path d="M1012 40h0"></path>
<path d="M1208 40h0"></path>
<path d="M1012 40a10 10 0 0 0 10 -10v0a10 10 0 0 1 10 -10"></path>
<g>
<path d="M1032 20h156"></path>
</g>
<path d="M1188 20a10 10 0 0 1 10 10v0a10 10 0 0 0 10 10"></path>
<path d="M1012 40h20"></path>
<g>
<path d="M1032 40h0"></path>
<path d="M1188 40h0"></path>
<g class="terminal">
<path d="M1032 40h0"></path>
<path d="M1100 40h0"></path>
<rect x="1032" y="29" width="68" height="22" rx="10" ry="10"></rect>
<text x="1066" y="44">"MODE"</text>
</g>
<path d="M1100 40h10"></path>
<path d="M1110 40h10"></path>
<g class="non-terminal">
<path d="M1120 40h0"></path>
<path d="M1188 40h0"></path>
<rect x="1120" y="29" width="68" height="22"></rect>
<a xlink:href="reuse_source.svg"><text x="1154" y="44">Source</text>
</a>
</g>
</g>
<path d="M1188 40h20"></path>
</g>
<g>
<path d="M1208 40h0"></path>
<path d="M1420 40h0"></path>
<path d="M1208 40a10 10 0 0 0 10 -10v0a10 10 0 0 1 10 -10"></path>
<g>
<path d="M1228 20h172"></path>
</g>
<path d="M1400 20a10 10 0 0 1 10 10v0a10 10 0 0 0 10 10"></path>
<path d="M1208 40h20"></path>
<g>
<path d="M1228 40h0"></path>
<path d="M1400 40h0"></path>
<g class="terminal">
<path d="M1228 40h0"></path>
<path d="M1312 40h0"></path>
<rect x="1228" y="29" width="84" height="22" rx="10" ry="10"></rect>
<text x="1270" y="44">"UPDATE"</text>
</g>
<path d="M1312 40h10"></path>
<path d="M1322 40h10"></path>
<g class="non-terminal">
<path d="M1332 40h0"></path>
<path d="M1400 40h0"></path>
<rect x="1332" y="29" width="68" height="22"></rect>
<a xlink:href="reuse_source.svg"><text x="1366" y="44">Source</text>
</a>
</g>
</g>
<path d="M1400 40h20"></path>
</g>
<g>
<path d="M1420 40h0"></path>
<path d="M1664 40h0"></path>
<path d="M1420 40a10 10 0 0 0 10 -10v0a10 10 0 0 1 10 -10"></path>
<g>
<path d="M1440 20h204"></path>
</g>
<path d="M1644 20a10 10 0 0 1 10 10v0a10 10 0 0 0 10 10"></path>
<path d="M1420 40h20"></path>
<g class="terminal">
<path d="M1440 40h0"></path>
<path d="M1644 40h0"></path>
<rect x="1440" y="29" width="204" height="22" rx="10" ry="10"></rect>
<text x="1542" y="44">"AND SKIP FIRST SCREEN"</text>
</g>
<path d="M1644 40h20"></path>
</g>
<g>
<path d="M1664 40h0"></path>
<path d="M1924 40h0"></path>
<path d="M1664 40a10 10 0 0 0 10 -10v0a10 10 0 0 1 10 -10"></path>
<g>
<path d="M1684 20h220"></path>
</g>
<path d="M1904 20a10 10 0 0 1 10 10v0a10 10 0 0 0 10 10"></path>
<path d="M1664 40h20"></path>
<g>
<path d="M1684 40h0"></path>
<path d="M1904 40h0"></path>
<g class="terminal">
<path d="M1684 40h0"></path>
<path d="M1816 40h0"></path>
<rect x="1684" y="29" width="132" height="22" rx="10" ry="10"></rect>
<text x="1750" y="44">"OPTIONS FROM"</text>
</g>
<path d="M1816 40h10"></path>
<path d="M1826 40h10"></path>
<g class="non-terminal">
<path d="M1836 40h0"></path>
<path d="M1904 40h0"></path>
<rect x="1836" y="29" width="68" height="22"></rect>
<a xlink:href="reuse_source.svg"><text x="1870" y="44">Source</text>
</a>
</g>
</g>
<path d="M1904 40h20"></path>
</g>
<g>
<path d="M1924 40h0"></path>
<path d="M2192 40h0"></path>
<path d="M1924 40a10 10 0 0 0 10 -10v0a10 10 0 0 1 10 -10"></path>
<g>
<path d="M1944 20h228"></path>
</g>
<path d="M2172 20a10 10 0 0 1 10 10v0a10 10 0 0 0 10 10"></path>
<path d="M1924 40h20"></path>
<g>
<path d="M1944 40h0"></path>
<path d="M2172 40h0"></path>
<g class="terminal">
<path d="M1944 40h0"></path>
<path d="M2084 40h0"></path>
<rect x="1944" y="29" width="140" height="22" rx="10" ry="10"></rect>
<text x="2014" y="44">"MESSAGES INTO"</text>
</g>
<path d="M2084 40h10"></path>
<path d="M2094 40h10"></path>
<g class="non-terminal">
<path d="M2104 40h0"></path>
<path d="M2172 40h0"></path>
<rect x="2104" y="29" width="68" height="22"></rect>
<a xlink:href="reuse_target.svg"><text x="2138" y="44">Target</text>
</a>
</g>
</g>
<path d="M2172 40h20"></path>
</g>
</g>
<path d="M2192 40h10"></path>
<path d="M 2202 40 h 20 m -10 -10 v 20 m 10 -20 v 20"></path>
</g>
</svg>
