<?xml version="1.0" encoding="UTF-8" standalone="no"?>
<!DOCTYPE svg PUBLIC "-//W3C//DTD SVG 1.1//EN"
 "http://www.w3.org/Graphics/SVG/1.1/DTD/svg11.dtd">
<!-- Generated by graphviz version 2.38.0 (20140413.2041)
 -->
<!-- Title: case Pages: 1 -->
<svg width="95pt" height="260pt"
 viewBox="0.00 0.00 95.19 260.00" xmlns="http://www.w3.org/2000/svg" xmlns:xlink="http://www.w3.org/1999/xlink">
<g id="graph0" class="graph" transform="scale(1 1) rotate(0) translate(4 256)">
<title>case</title>
<polygon fill="white" stroke="none" points="-4,4 -4,-256 91.1879,-256 91.1879,4 -4,4"/>
<!-- start -->
<g id="node1" class="node"><title>start</title>
<polygon fill="none" stroke="black" points="70.5939,-252 16.5939,-252 16.5939,-216 70.5939,-216 70.5939,-252"/>
<text text-anchor="middle" x="43.5939" y="-229.8" font-family="Times,serif" font-size="14.00">Start</text>
</g>
<!-- node305 -->
<g id="node4" class="node"><title>node305</title>
<ellipse fill="none" stroke="black" cx="43.5939" cy="-162" rx="43.6881" ry="18"/>
<text text-anchor="middle" x="43.5939" y="-157.8" font-family="Times,serif" font-size="14.00">&quot;CASE&quot;</text>
</g>
<!-- start&#45;&gt;node305 -->
<g id="edge3" class="edge"><title>start&#45;&gt;node305</title>
<path fill="none" stroke="black" d="M43.5939,-215.697C43.5939,-207.983 43.5939,-198.712 43.5939,-190.112"/>
<polygon fill="black" stroke="black" points="47.094,-190.104 43.5939,-180.104 40.094,-190.104 47.094,-190.104"/>
</g>
<!-- end -->
<g id="node2" class="node"><title>end</title>
<polygon fill="none" stroke="black" points="70.5939,-36 16.5939,-36 16.5939,-0 70.5939,-0 70.5939,-36"/>
<text text-anchor="middle" x="43.5939" y="-13.8" font-family="Times,serif" font-size="14.00">End</text>
</g>
<!-- node304 -->
<g id="node3" class="node"><title>node304</title>
<g id="a_node3"><a xlink:href="reuse_source.svg" xlink:title="&lt;u&gt;source&lt;/u&gt;">
<ellipse fill="none" stroke="black" cx="43.5939" cy="-90" rx="36.4761" ry="18"/>
<text text-anchor="start" x="25.3267" y="-86.8" font-family="Times,serif" text-decoration="underline" font-size="14.00" fill="blue">source</text>
</a>
</g>
</g>
<!-- node304&#45;&gt;end -->
<g id="edge1" class="edge"><title>node304&#45;&gt;end</title>
<path fill="none" stroke="black" d="M43.5939,-71.6966C43.5939,-63.9827 43.5939,-54.7125 43.5939,-46.1124"/>
<polygon fill="black" stroke="black" points="47.094,-46.1043 43.5939,-36.1043 40.094,-46.1044 47.094,-46.1043"/>
</g>
<!-- node305&#45;&gt;node304 -->
<g id="edge2" class="edge"><title>node305&#45;&gt;node304</title>
<path fill="none" stroke="black" d="M43.5939,-143.697C43.5939,-135.983 43.5939,-126.712 43.5939,-118.112"/>
<polygon fill="black" stroke="black" points="47.094,-118.104 43.5939,-108.104 40.094,-118.104 47.094,-118.104"/>
</g>
</g>
</svg>
