<svg xmlns="http://www.w3.org/2000/svg" xmlns:xlink="http://www.w3.org/1999/xlink" class="railroad-diagram" width="482" height="80" viewBox="0 0 482 80">
<defs>
<style type="text/css"><![CDATA[
path {
stroke-width: 3;
stroke: black;
fill: rgba(0,0,0,0);
}
text {
font: bold 14px monospace;
text-anchor: middle;
}
text.diagram-text {
font-size: 12px;
}
a {
fill: blue;
}
text.diagram-arrow {
font-size: 16px;
}
text.label {
text-anchor: start;
}
text.comment {
font: italic 12px monospace;
}
rect {
stroke-width: 3;
stroke: black;
fill: #BCBCBC;
}
path.diagram-text {
stroke-width: 3;
stroke: black;
fill: #BCBCBC;
cursor: help;
}
]]></style>
</defs>
<g transform="translate(.5 .5)">
<path d="M 20 30 v 20 m 10 -20 v 20 m -10 -10 h 20.5"></path>
<path d="M40 40h10"></path>
<g>
<path d="M50 40h0"></path>
<path d="M432 40h0"></path>
<g class="terminal">
<path d="M50 40h0"></path>
<path d="M126 40h0"></path>
<rect x="50" y="29" width="76" height="22" rx="10" ry="10"></rect>
<text x="88" y="44">"CATCH"</text>
</g>
<path d="M126 40h10"></path>
<path d="M136 40h10"></path>
<g>
<path d="M146 40h0"></path>
<path d="M226 40h0"></path>
<path d="M146 40h10"></path>
<g class="non-terminal">
<path d="M156 40h0"></path>
<path d="M216 40h0"></path>
<rect x="156" y="29" width="60" height="22"></rect>
<a xlink:href="reuse_field.svg"><text x="186" y="44">Field</text>
</a>
</g>
<path d="M216 40h10"></path>
<path d="M156 40a10 10 0 0 0 -10 10v0a10 10 0 0 0 10 10"></path>
<g>
<path d="M156 60h60"></path>
</g>
<path d="M216 60a10 10 0 0 0 10 -10v0a10 10 0 0 0 -10 -10"></path>
</g>
<path d="M226 40h10"></path>
<g>
<path d="M236 40h0"></path>
<path d="M432 40h0"></path>
<path d="M236 40a10 10 0 0 0 10 -10v0a10 10 0 0 1 10 -10"></path>
<g>
<path d="M256 20h156"></path>
</g>
<path d="M412 20a10 10 0 0 1 10 10v0a10 10 0 0 0 10 10"></path>
<path d="M236 40h20"></path>
<g>
<path d="M256 40h0"></path>
<path d="M412 40h0"></path>
<g class="terminal">
<path d="M256 40h0"></path>
<path d="M324 40h0"></path>
<rect x="256" y="29" width="68" height="22" rx="10" ry="10"></rect>
<text x="290" y="44">"INTO"</text>
</g>
<path d="M324 40h10"></path>
<path d="M334 40h10"></path>
<g class="non-terminal">
<path d="M344 40h0"></path>
<path d="M412 40h0"></path>
<rect x="344" y="29" width="68" height="22"></rect>
<a xlink:href="reuse_target.svg"><text x="378" y="44">Target</text>
</a>
</g>
</g>
<path d="M412 40h20"></path>
</g>
</g>
<path d="M432 40h10"></path>
<path d="M 442 40 h 20 m -10 -10 v 20 m 10 -20 v 20"></path>
</g>
</svg>
