<?xml version="1.0" encoding="UTF-8" standalone="no"?>
<!DOCTYPE svg PUBLIC "-//W3C//DTD SVG 1.1//EN"
 "http://www.w3.org/Graphics/SVG/1.1/DTD/svg11.dtd">
<!-- Generated by graphviz version 2.38.0 (20140413.2041)
 -->
<!-- Title: check Pages: 1 -->
<svg width="111pt" height="260pt"
 viewBox="0.00 0.00 111.27 260.00" xmlns="http://www.w3.org/2000/svg" xmlns:xlink="http://www.w3.org/1999/xlink">
<g id="graph0" class="graph" transform="scale(1 1) rotate(0) translate(4 256)">
<title>check</title>
<polygon fill="white" stroke="none" points="-4,4 -4,-256 107.274,-256 107.274,4 -4,4"/>
<!-- start -->
<g id="node1" class="node"><title>start</title>
<polygon fill="none" stroke="black" points="78.6372,-252 24.6372,-252 24.6372,-216 78.6372,-216 78.6372,-252"/>
<text text-anchor="middle" x="51.6372" y="-229.8" font-family="Times,serif" font-size="14.00">Start</text>
</g>
<!-- node224 -->
<g id="node4" class="node"><title>node224</title>
<ellipse fill="none" stroke="black" cx="51.6372" cy="-162" rx="51.7748" ry="18"/>
<text text-anchor="middle" x="51.6372" y="-157.8" font-family="Times,serif" font-size="14.00">&quot;CHECK&quot;</text>
</g>
<!-- start&#45;&gt;node224 -->
<g id="edge3" class="edge"><title>start&#45;&gt;node224</title>
<path fill="none" stroke="black" d="M51.6372,-215.697C51.6372,-207.983 51.6372,-198.712 51.6372,-190.112"/>
<polygon fill="black" stroke="black" points="55.1373,-190.104 51.6372,-180.104 48.1373,-190.104 55.1373,-190.104"/>
</g>
<!-- end -->
<g id="node2" class="node"><title>end</title>
<polygon fill="none" stroke="black" points="78.6372,-36 24.6372,-36 24.6372,-0 78.6372,-0 78.6372,-36"/>
<text text-anchor="middle" x="51.6372" y="-13.8" font-family="Times,serif" font-size="14.00">End</text>
</g>
<!-- node223 -->
<g id="node3" class="node"><title>node223</title>
<g id="a_node3"><a xlink:href="reuse_cond.svg" xlink:title="&lt;u&gt;cond&lt;/u&gt;">
<ellipse fill="none" stroke="black" cx="51.6372" cy="-90" rx="29.6185" ry="18"/>
<text text-anchor="start" x="38.0299" y="-86.8" font-family="Times,serif" text-decoration="underline" font-size="14.00" fill="blue">cond</text>
</a>
</g>
</g>
<!-- node223&#45;&gt;end -->
<g id="edge1" class="edge"><title>node223&#45;&gt;end</title>
<path fill="none" stroke="black" d="M51.6372,-88.9493C51.6372,-87.7476 51.6372,-65.4288 51.6372,-46.3215"/>
<polygon fill="black" stroke="black" points="55.1373,-46.1911 51.6372,-36.1912 48.1373,-46.1912 55.1373,-46.1911"/>
</g>
<!-- node224&#45;&gt;node223 -->
<g id="edge2" class="edge"><title>node224&#45;&gt;node223</title>
<path fill="none" stroke="black" d="M51.6372,-143.697C51.6372,-135.983 51.6372,-126.712 51.6372,-118.112"/>
<polygon fill="black" stroke="black" points="55.1373,-118.104 51.6372,-108.104 48.1373,-118.104 55.1373,-118.104"/>
</g>
</g>
</svg>
