<svg xmlns="http://www.w3.org/2000/svg" xmlns:xlink="http://www.w3.org/1999/xlink" class="railroad-diagram" width="1602" height="500" viewBox="0 0 1602 500">
<defs>
<style type="text/css"><![CDATA[
path {
stroke-width: 3;
stroke: black;
fill: rgba(0,0,0,0);
}
text {
font: bold 14px monospace;
text-anchor: middle;
}
text.diagram-text {
font-size: 12px;
}
a {
fill: blue;
}
text.diagram-arrow {
font-size: 16px;
}
text.label {
text-anchor: start;
}
text.comment {
font: italic 12px monospace;
}
rect {
stroke-width: 3;
stroke: black;
fill: #BCBCBC;
}
path.diagram-text {
stroke-width: 3;
stroke: black;
fill: #BCBCBC;
cursor: help;
}
]]></style>
</defs>
<g transform="translate(.5 .5)">
<path d="M 20 30 v 20 m 10 -20 v 20 m -10 -10 h 20.5"></path>
<path d="M40 40h10"></path>
<g>
<path d="M50 40h0"></path>
<path d="M1552 40h0"></path>
<g class="terminal">
<path d="M50 40h0"></path>
<path d="M126 40h0"></path>
<rect x="50" y="29" width="76" height="22" rx="10" ry="10"></rect>
<text x="88" y="44">"CLASS"</text>
</g>
<path d="M126 40h10"></path>
<path d="M136 40h10"></path>
<g class="non-terminal">
<path d="M146 40h0"></path>
<path d="M206 40h0"></path>
<rect x="146" y="29" width="60" height="22"></rect>
<a xlink:href="reuse_field.svg"><text x="176" y="44">field</text>
</a>
</g>
<path d="M206 40h10"></path>
<g>
<path d="M216 40h0"></path>
<path d="M1552 40h0"></path>
<path d="M216 40h20"></path>
<g>
<path d="M236 40h0"></path>
<path d="M1532 40h0"></path>
<g class="terminal">
<path d="M236 40h0"></path>
<path d="M352 40h0"></path>
<rect x="236" y="29" width="116" height="22" rx="10" ry="10"></rect>
<text x="294" y="44">"DEFINITION"</text>
</g>
<path d="M352 40h10"></path>
<g>
<path d="M362 40h0"></path>
<path d="M1532 40h0"></path>
<path d="M362 40a10 10 0 0 0 10 -10v0a10 10 0 0 1 10 -10"></path>
<g>
<path d="M382 20h1130"></path>
</g>
<path d="M1512 20a10 10 0 0 1 10 10v0a10 10 0 0 0 10 10"></path>
<path d="M362 40h20"></path>
<g>
<path d="M382 40h0"></path>
<path d="M1512 40h0"></path>
<path d="M382 40h20"></path>
<g class="terminal">
<path d="M402 40h511"></path>
<path d="M981 40h511"></path>
<rect x="913" y="29" width="68" height="22" rx="10" ry="10"></rect>
<text x="947" y="44">"LOAD"</text>
</g>
<path d="M1492 40h20"></path>
<path d="M382 40a10 10 0 0 1 10 10v10a10 10 0 0 0 10 10"></path>
<g class="terminal">
<path d="M402 70h495"></path>
<path d="M997 70h495"></path>
<rect x="897" y="59" width="100" height="22" rx="10" ry="10"></rect>
<text x="947" y="74">"DEFERRED"</text>
</g>
<path d="M1492 70a10 10 0 0 0 10 -10v-10a10 10 0 0 1 10 -10"></path>
<path d="M382 40a10 10 0 0 1 10 10v40a10 10 0 0 0 10 10"></path>
<g>
<path d="M402 100h0"></path>
<path d="M1492 100h0"></path>
<path d="M432 100h10"></path>
<g>
<path d="M442 100h448"></path>
<path d="M1014 100h448"></path>
<path d="M890 100h20"></path>
<g class="terminal">
<path d="M910 100h0"></path>
<path d="M994 100h0"></path>
<rect x="910" y="89" width="84" height="22" rx="10" ry="10"></rect>
<text x="952" y="104">"PUBLIC"</text>
</g>
<path d="M994 100h20"></path>
<path d="M890 100a10 10 0 0 1 10 10v10a10 10 0 0 0 10 10"></path>
<g class="terminal">
<path d="M910 130h4"></path>
<path d="M990 130h4"></path>
<rect x="914" y="119" width="76" height="22" rx="10" ry="10"></rect>
<text x="952" y="134">"LOCAL"</text>
</g>
<path d="M994 130a10 10 0 0 0 10 -10v-10a10 10 0 0 1 10 -10"></path>
</g>
<path d="M1462 100h10"></path>
<path d="M432 100v50a10 10 0 0 0 10 10"></path>
<g>
<path d="M442 160h440"></path>
<path d="M1022 160h440"></path>
<path d="M882 160h20"></path>
<g class="terminal">
<path d="M902 160h12"></path>
<path d="M990 160h12"></path>
<rect x="914" y="149" width="76" height="22" rx="10" ry="10"></rect>
<text x="952" y="164">"FINAL"</text>
</g>
<path d="M1002 160h20"></path>
<path d="M882 160a10 10 0 0 1 10 10v10a10 10 0 0 0 10 10"></path>
<g class="terminal">
<path d="M902 190h0"></path>
<path d="M1002 190h0"></path>
<rect x="902" y="179" width="100" height="22" rx="10" ry="10"></rect>
<text x="952" y="194">"ABSTRACT"</text>
</g>
<path d="M1002 190a10 10 0 0 0 10 -10v-10a10 10 0 0 1 10 -10"></path>
</g>
<path d="M1462 160a10 10 0 0 0 10 -10v-50"></path>
<path d="M432 100v110a10 10 0 0 0 10 10"></path>
<g>
<path d="M442 220h392"></path>
<path d="M1070 220h392"></path>
<g class="terminal">
<path d="M834 220h0"></path>
<path d="M990 220h0"></path>
<rect x="834" y="209" width="156" height="22" rx="10" ry="10"></rect>
<text x="912" y="224">"INHERITING FROM"</text>
</g>
<path d="M990 220h10"></path>
<path d="M1000 220h10"></path>
<g class="non-terminal">
<path d="M1010 220h0"></path>
<path d="M1070 220h0"></path>
<rect x="1010" y="209" width="60" height="22"></rect>
<a xlink:href="reuse_field.svg"><text x="1040" y="224">field</text>
</a>
</g>
</g>
<path d="M1462 220a10 10 0 0 0 10 -10v-110"></path>
<path d="M432 100v140a10 10 0 0 0 10 10"></path>
<g>
<path d="M442 250h389"></path>
<path d="M1073 250h389"></path>
<g class="terminal">
<path d="M831 250h0"></path>
<path d="M915 250h0"></path>
<rect x="831" y="239" width="84" height="22" rx="10" ry="10"></rect>
<text x="873" y="254">"CREATE"</text>
</g>
<path d="M915 250h10"></path>
<g>
<path d="M925 250h0"></path>
<path d="M1073 250h0"></path>
<path d="M925 250h20"></path>
<g class="terminal">
<path d="M945 250h12"></path>
<path d="M1041 250h12"></path>
<rect x="957" y="239" width="84" height="22" rx="10" ry="10"></rect>
<text x="999" y="254">"PUBLIC"</text>
</g>
<path d="M1053 250h20"></path>
<path d="M925 250a10 10 0 0 1 10 10v10a10 10 0 0 0 10 10"></path>
<g class="terminal">
<path d="M945 280h0"></path>
<path d="M1053 280h0"></path>
<rect x="945" y="269" width="108" height="22" rx="10" ry="10"></rect>
<text x="999" y="284">"PROTECTED"</text>
</g>
<path d="M1053 280a10 10 0 0 0 10 -10v-10a10 10 0 0 1 10 -10"></path>
<path d="M925 250a10 10 0 0 1 10 10v40a10 10 0 0 0 10 10"></path>
<g class="terminal">
<path d="M945 310h8"></path>
<path d="M1045 310h8"></path>
<rect x="953" y="299" width="92" height="22" rx="10" ry="10"></rect>
<text x="999" y="314">"PRIVATE"</text>
</g>
<path d="M1053 310a10 10 0 0 0 10 -10v-40a10 10 0 0 1 10 -10"></path>
</g>
</g>
<path d="M1462 250a10 10 0 0 0 10 -10v-140"></path>
<path d="M432 100v239a10 10 0 0 0 10 10"></path>
<g>
<path d="M442 349h0"></path>
<path d="M1462 349h0"></path>
<g class="terminal">
<path d="M442 349h0"></path>
<path d="M566 349h0"></path>
<rect x="442" y="338" width="124" height="22" rx="10" ry="10"></rect>
<text x="504" y="353">"FOR TESTING"</text>
</g>
<path d="M566 349h10"></path>
<g>
<path d="M576 349h0"></path>
<path d="M882 349h0"></path>
<path d="M576 349a10 10 0 0 0 10 -10v0a10 10 0 0 1 10 -10"></path>
<g>
<path d="M596 329h266"></path>
</g>
<path d="M862 329a10 10 0 0 1 10 10v0a10 10 0 0 0 10 10"></path>
<path d="M576 349h20"></path>
<g>
<path d="M596 349h0"></path>
<path d="M862 349h0"></path>
<g class="terminal">
<path d="M596 349h0"></path>
<path d="M712 349h0"></path>
<rect x="596" y="338" width="116" height="22" rx="10" ry="10"></rect>
<text x="654" y="353">"RISK LEVEL"</text>
</g>
<path d="M712 349h10"></path>
<g>
<path d="M722 349h0"></path>
<path d="M862 349h0"></path>
<path d="M722 349h20"></path>
<g class="terminal">
<path d="M742 349h0"></path>
<path d="M842 349h0"></path>
<rect x="742" y="338" width="100" height="22" rx="10" ry="10"></rect>
<text x="792" y="353">"CRITICAL"</text>
</g>
<path d="M842 349h20"></path>
<path d="M722 349a10 10 0 0 1 10 10v10a10 10 0 0 0 10 10"></path>
<g class="terminal">
<path d="M742 379h0"></path>
<path d="M842 379h0"></path>
<rect x="742" y="368" width="100" height="22" rx="10" ry="10"></rect>
<text x="792" y="383">"HARMLESS"</text>
</g>
<path d="M842 379a10 10 0 0 0 10 -10v-10a10 10 0 0 1 10 -10"></path>
</g>
</g>
<path d="M862 349h20"></path>
</g>
<g>
<path d="M882 349h0"></path>
<path d="M1156 349h0"></path>
<path d="M882 349a10 10 0 0 0 10 -10v0a10 10 0 0 1 10 -10"></path>
<g>
<path d="M902 329h234"></path>
</g>
<path d="M1136 329a10 10 0 0 1 10 10v0a10 10 0 0 0 10 10"></path>
<path d="M882 349h20"></path>
<g>
<path d="M902 349h0"></path>
<path d="M1136 349h0"></path>
<g class="terminal">
<path d="M902 349h0"></path>
<path d="M1002 349h0"></path>
<rect x="902" y="338" width="100" height="22" rx="10" ry="10"></rect>
<text x="952" y="353">"DURATION"</text>
</g>
<path d="M1002 349h10"></path>
<g>
<path d="M1012 349h0"></path>
<path d="M1136 349h0"></path>
<path d="M1012 349h20"></path>
<g class="terminal">
<path d="M1032 349h8"></path>
<path d="M1108 349h8"></path>
<rect x="1040" y="338" width="68" height="22" rx="10" ry="10"></rect>
<text x="1074" y="353">"LONG"</text>
</g>
<path d="M1116 349h20"></path>
<path d="M1012 349a10 10 0 0 1 10 10v10a10 10 0 0 0 10 10"></path>
<g class="terminal">
<path d="M1032 379h0"></path>
<path d="M1116 379h0"></path>
<rect x="1032" y="368" width="84" height="22" rx="10" ry="10"></rect>
<text x="1074" y="383">"MEDIUM"</text>
</g>
<path d="M1116 379a10 10 0 0 0 10 -10v-10a10 10 0 0 1 10 -10"></path>
<path d="M1012 349a10 10 0 0 1 10 10v40a10 10 0 0 0 10 10"></path>
<g class="terminal">
<path d="M1032 409h4"></path>
<path d="M1112 409h4"></path>
<rect x="1036" y="398" width="76" height="22" rx="10" ry="10"></rect>
<text x="1074" y="413">"SHORT"</text>
</g>
<path d="M1116 409a10 10 0 0 0 10 -10v-40a10 10 0 0 1 10 -10"></path>
</g>
</g>
<path d="M1136 349h20"></path>
</g>
<g>
<path d="M1156 349h0"></path>
<path d="M1462 349h0"></path>
<path d="M1156 349a10 10 0 0 0 10 -10v0a10 10 0 0 1 10 -10"></path>
<g>
<path d="M1176 329h266"></path>
</g>
<path d="M1442 329a10 10 0 0 1 10 10v0a10 10 0 0 0 10 10"></path>
<path d="M1156 349h20"></path>
<g>
<path d="M1176 349h0"></path>
<path d="M1442 349h0"></path>
<g class="terminal">
<path d="M1176 349h0"></path>
<path d="M1292 349h0"></path>
<rect x="1176" y="338" width="116" height="22" rx="10" ry="10"></rect>
<text x="1234" y="353">"RISK LEVEL"</text>
</g>
<path d="M1292 349h10"></path>
<g>
<path d="M1302 349h0"></path>
<path d="M1442 349h0"></path>
<path d="M1302 349h20"></path>
<g class="terminal">
<path d="M1322 349h0"></path>
<path d="M1422 349h0"></path>
<rect x="1322" y="338" width="100" height="22" rx="10" ry="10"></rect>
<text x="1372" y="353">"CRITICAL"</text>
</g>
<path d="M1422 349h20"></path>
<path d="M1302 349a10 10 0 0 1 10 10v10a10 10 0 0 0 10 10"></path>
<g class="terminal">
<path d="M1322 379h0"></path>
<path d="M1422 379h0"></path>
<rect x="1322" y="368" width="100" height="22" rx="10" ry="10"></rect>
<text x="1372" y="383">"HARMLESS"</text>
</g>
<path d="M1422 379a10 10 0 0 0 10 -10v-10a10 10 0 0 1 10 -10"></path>
</g>
</g>
<path d="M1442 349h20"></path>
</g>
</g>
<path d="M1462 349a10 10 0 0 0 10 -10v-239"></path>
<path d="M432 100v329a10 10 0 0 0 10 10"></path>
<g>
<path d="M442 439h424"></path>
<path d="M1038 439h424"></path>
<g class="terminal">
<path d="M866 439h0"></path>
<path d="M958 439h0"></path>
<rect x="866" y="428" width="92" height="22" rx="10" ry="10"></rect>
<text x="912" y="443">"FRIENDS"</text>
</g>
<path d="M958 439h10"></path>
<path d="M968 439h10"></path>
<g class="non-terminal">
<path d="M978 439h0"></path>
<path d="M1038 439h0"></path>
<rect x="978" y="428" width="60" height="22"></rect>
<a xlink:href="reuse_field.svg"><text x="1008" y="443">field</text>
</a>
</g>
</g>
<path d="M1462 439a10 10 0 0 0 10 -10v-329"></path>
<g class="diagram-text">
<title>take one or more branches, once each, in any order</title>
<path d="M 432 90 h -26 a 4 4 0 0 0 -4 4 v 12 a 4 4 0 0 0 4 4 h 26 z" class="diagram-text"></path>
<text x="417" y="104" class="diagram-text">1+</text>
<path d="M 1472 90 h 16 a 4 4 0 0 1 4 4 v 12 a 4 4 0 0 1 -4 4 h -16 z" class="diagram-text"></path>
<path d="M 1479 98 a 4 4 0 1 0 6 -1 m 2.75 -1 h -4 v 4 m 0 -3 h 2" style="stroke-width: 1.75"></path>
</g>
</g>
<path d="M1492 100a10 10 0 0 0 10 -10v-40a10 10 0 0 1 10 -10"></path>
</g>
<path d="M1512 40h20"></path>
</g>
</g>
<path d="M1532 40h20"></path>
<path d="M216 40a10 10 0 0 1 10 10v409a10 10 0 0 0 10 10"></path>
<g class="terminal">
<path d="M236 469h574"></path>
<path d="M958 469h574"></path>
<rect x="810" y="458" width="148" height="22" rx="10" ry="10"></rect>
<text x="884" y="473">"IMPLEMENTATION"</text>
</g>
<path d="M1532 469a10 10 0 0 0 10 -10v-409a10 10 0 0 1 10 -10"></path>
</g>
</g>
<path d="M1552 40h10"></path>
<path d="M 1562 40 h 20 m -10 -10 v 20 m 10 -20 v 20"></path>
</g>
</svg>
