<svg xmlns="http://www.w3.org/2000/svg" xmlns:xlink="http://www.w3.org/1999/xlink" class="railroad-diagram" width="972" height="668" viewBox="0 0 972 668">
<defs>
<style type="text/css"><![CDATA[
path {
stroke-width: 3;
stroke: black;
fill: rgba(0,0,0,0);
}
text {
font: bold 14px monospace;
text-anchor: middle;
}
text.diagram-text {
font-size: 12px;
}
a {
fill: blue;
}
text.diagram-arrow {
font-size: 16px;
}
text.label {
text-anchor: start;
}
text.comment {
font: italic 12px monospace;
}
rect {
stroke-width: 3;
stroke: black;
fill: #BCBCBC;
}
path.diagram-text {
stroke-width: 3;
stroke: black;
fill: #BCBCBC;
cursor: help;
}
]]></style>
</defs>
<g transform="translate(.5 .5)">
<path d="M 20 30 v 20 m 10 -20 v 20 m -10 -10 h 20.5"></path>
<path d="M40 40h10"></path>
<g>
<path d="M50 40h0"></path>
<path d="M922 40h0"></path>
<g class="terminal">
<path d="M50 40h0"></path>
<path d="M126 40h0"></path>
<rect x="50" y="29" width="76" height="22" rx="10" ry="10"></rect>
<text x="88" y="44">"CLASS"</text>
</g>
<path d="M126 40h10"></path>
<path d="M136 40h10"></path>
<g class="non-terminal">
<path d="M146 40h0"></path>
<path d="M238 40h0"></path>
<rect x="146" y="29" width="92" height="22"></rect>
<a xlink:href="reuse_classname.svg"><text x="192" y="44">ClassName</text>
</a>
</g>
<path d="M238 40h10"></path>
<g>
<path d="M248 40h0"></path>
<path d="M922 40h0"></path>
<path d="M248 40h20"></path>
<g>
<path d="M268 40h0"></path>
<path d="M902 40h0"></path>
<g class="terminal">
<path d="M268 40h0"></path>
<path d="M384 40h0"></path>
<rect x="268" y="29" width="116" height="22" rx="10" ry="10"></rect>
<text x="326" y="44">"DEFINITION"</text>
</g>
<path d="M384 40h10"></path>
<g>
<path d="M394 40h0"></path>
<path d="M902 40h0"></path>
<path d="M394 40a10 10 0 0 0 10 -10v0a10 10 0 0 1 10 -10"></path>
<g>
<path d="M414 20h468"></path>
</g>
<path d="M882 20a10 10 0 0 1 10 10v0a10 10 0 0 0 10 10"></path>
<path d="M394 40h20"></path>
<g>
<path d="M414 40h0"></path>
<path d="M882 40h0"></path>
<path d="M414 40h20"></path>
<g class="terminal">
<path d="M434 40h0"></path>
<path d="M502 40h360"></path>
<rect x="434" y="29" width="68" height="22" rx="10" ry="10"></rect>
<text x="468" y="44">"LOAD"</text>
</g>
<path d="M862 40h20"></path>
<path d="M414 40a10 10 0 0 1 10 10v19a10 10 0 0 0 10 10"></path>
<g>
<path d="M434 79h0"></path>
<path d="M668 79h194"></path>
<g class="terminal">
<path d="M434 79h0"></path>
<path d="M534 79h0"></path>
<rect x="434" y="68" width="100" height="22" rx="10" ry="10"></rect>
<text x="484" y="83">"DEFERRED"</text>
</g>
<path d="M534 79h10"></path>
<g>
<path d="M544 79h0"></path>
<path d="M668 79h0"></path>
<path d="M544 79a10 10 0 0 0 10 -10v0a10 10 0 0 1 10 -10"></path>
<g>
<path d="M564 59h84"></path>
</g>
<path d="M648 59a10 10 0 0 1 10 10v0a10 10 0 0 0 10 10"></path>
<path d="M544 79h20"></path>
<g class="terminal">
<path d="M564 79h0"></path>
<path d="M648 79h0"></path>
<rect x="564" y="68" width="84" height="22" rx="10" ry="10"></rect>
<text x="606" y="83">"PUBLIC"</text>
</g>
<path d="M648 79h20"></path>
</g>
</g>
<path d="M862 79a10 10 0 0 0 10 -10v-19a10 10 0 0 1 10 -10"></path>
<path d="M414 40a10 10 0 0 1 10 10v49a10 10 0 0 0 10 10"></path>
<g>
<path d="M434 109h0"></path>
<path d="M862 109h0"></path>
<path d="M464 109h10"></path>
<g>
<path d="M474 109h0"></path>
<path d="M598 109h234"></path>
<path d="M474 109h20"></path>
<g class="terminal">
<path d="M494 109h0"></path>
<path d="M578 109h0"></path>
<rect x="494" y="98" width="84" height="22" rx="10" ry="10"></rect>
<text x="536" y="113">"PUBLIC"</text>
</g>
<path d="M578 109h20"></path>
<path d="M474 109a10 10 0 0 1 10 10v10a10 10 0 0 0 10 10"></path>
<g class="terminal">
<path d="M494 139h0"></path>
<path d="M570 139h8"></path>
<rect x="494" y="128" width="76" height="22" rx="10" ry="10"></rect>
<text x="532" y="143">"LOCAL"</text>
</g>
<path d="M578 139a10 10 0 0 0 10 -10v-10a10 10 0 0 1 10 -10"></path>
</g>
<path d="M832 109h10"></path>
<path d="M464 109v50a10 10 0 0 0 10 10"></path>
<g class="terminal">
<path d="M474 169h0"></path>
<path d="M550 169h282"></path>
<rect x="474" y="158" width="76" height="22" rx="10" ry="10"></rect>
<text x="512" y="173">"FINAL"</text>
</g>
<path d="M832 169a10 10 0 0 0 10 -10v-50"></path>
<path d="M464 109v80a10 10 0 0 0 10 10"></path>
<g class="terminal">
<path d="M474 199h0"></path>
<path d="M574 199h258"></path>
<rect x="474" y="188" width="100" height="22" rx="10" ry="10"></rect>
<text x="524" y="203">"ABSTRACT"</text>
</g>
<path d="M832 199a10 10 0 0 0 10 -10v-80"></path>
<path d="M464 109v110a10 10 0 0 0 10 10"></path>
<g>
<path d="M474 229h0"></path>
<path d="M742 229h90"></path>
<g class="terminal">
<path d="M474 229h0"></path>
<path d="M630 229h0"></path>
<rect x="474" y="218" width="156" height="22" rx="10" ry="10"></rect>
<text x="552" y="233">"INHERITING FROM"</text>
</g>
<path d="M630 229h10"></path>
<path d="M640 229h10"></path>
<g class="non-terminal">
<path d="M650 229h0"></path>
<path d="M742 229h0"></path>
<rect x="650" y="218" width="92" height="22"></rect>
<a xlink:href="reuse_classname.svg"><text x="696" y="233">ClassName</text>
</a>
</g>
</g>
<path d="M832 229a10 10 0 0 0 10 -10v-110"></path>
<path d="M464 109v140a10 10 0 0 0 10 10"></path>
<g>
<path d="M474 259h0"></path>
<path d="M716 259h116"></path>
<g class="terminal">
<path d="M474 259h0"></path>
<path d="M558 259h0"></path>
<rect x="474" y="248" width="84" height="22" rx="10" ry="10"></rect>
<text x="516" y="263">"CREATE"</text>
</g>
<path d="M558 259h10"></path>
<g>
<path d="M568 259h0"></path>
<path d="M716 259h0"></path>
<path d="M568 259h20"></path>
<g class="terminal">
<path d="M588 259h0"></path>
<path d="M672 259h24"></path>
<rect x="588" y="248" width="84" height="22" rx="10" ry="10"></rect>
<text x="630" y="263">"PUBLIC"</text>
</g>
<path d="M696 259h20"></path>
<path d="M568 259a10 10 0 0 1 10 10v10a10 10 0 0 0 10 10"></path>
<g class="terminal">
<path d="M588 289h0"></path>
<path d="M696 289h0"></path>
<rect x="588" y="278" width="108" height="22" rx="10" ry="10"></rect>
<text x="642" y="293">"PROTECTED"</text>
</g>
<path d="M696 289a10 10 0 0 0 10 -10v-10a10 10 0 0 1 10 -10"></path>
<path d="M568 259a10 10 0 0 1 10 10v40a10 10 0 0 0 10 10"></path>
<g class="terminal">
<path d="M588 319h0"></path>
<path d="M680 319h16"></path>
<rect x="588" y="308" width="92" height="22" rx="10" ry="10"></rect>
<text x="634" y="323">"PRIVATE"</text>
</g>
<path d="M696 319a10 10 0 0 0 10 -10v-40a10 10 0 0 1 10 -10"></path>
</g>
</g>
<path d="M832 259a10 10 0 0 0 10 -10v-140"></path>
<path d="M464 109v230a10 10 0 0 0 10 10"></path>
<g class="terminal">
<path d="M474 349h0"></path>
<path d="M598 349h234"></path>
<rect x="474" y="338" width="124" height="22" rx="10" ry="10"></rect>
<text x="536" y="353">"FOR TESTING"</text>
</g>
<path d="M832 349a10 10 0 0 0 10 -10v-230"></path>
<path d="M464 109v260a10 10 0 0 0 10 10"></path>
<g>
<path d="M474 379h0"></path>
<path d="M748 379h84"></path>
<g class="terminal">
<path d="M474 379h0"></path>
<path d="M590 379h0"></path>
<rect x="474" y="368" width="116" height="22" rx="10" ry="10"></rect>
<text x="532" y="383">"RISK LEVEL"</text>
</g>
<path d="M590 379h10"></path>
<g>
<path d="M600 379h0"></path>
<path d="M748 379h0"></path>
<path d="M600 379h20"></path>
<g class="terminal">
<path d="M620 379h0"></path>
<path d="M720 379h8"></path>
<rect x="620" y="368" width="100" height="22" rx="10" ry="10"></rect>
<text x="670" y="383">"CRITICAL"</text>
</g>
<path d="M728 379h20"></path>
<path d="M600 379a10 10 0 0 1 10 10v10a10 10 0 0 0 10 10"></path>
<g class="terminal">
<path d="M620 409h0"></path>
<path d="M720 409h8"></path>
<rect x="620" y="398" width="100" height="22" rx="10" ry="10"></rect>
<text x="670" y="413">"HARMLESS"</text>
</g>
<path d="M728 409a10 10 0 0 0 10 -10v-10a10 10 0 0 1 10 -10"></path>
<path d="M600 379a10 10 0 0 1 10 10v40a10 10 0 0 0 10 10"></path>
<g class="terminal">
<path d="M620 439h0"></path>
<path d="M728 439h0"></path>
<rect x="620" y="428" width="108" height="22" rx="10" ry="10"></rect>
<text x="674" y="443">"DANGEROUS"</text>
</g>
<path d="M728 439a10 10 0 0 0 10 -10v-40a10 10 0 0 1 10 -10"></path>
</g>
</g>
<path d="M832 379a10 10 0 0 0 10 -10v-260"></path>
<path d="M464 109v350a10 10 0 0 0 10 10"></path>
<g class="terminal">
<path d="M474 469h0"></path>
<path d="M678 469h154"></path>
<rect x="474" y="458" width="204" height="22" rx="10" ry="10"></rect>
<text x="576" y="473">"SHARED MEMORY ENABLED"</text>
</g>
<path d="M832 469a10 10 0 0 0 10 -10v-350"></path>
<path d="M464 109v380a10 10 0 0 0 10 10"></path>
<g>
<path d="M474 499h0"></path>
<path d="M708 499h124"></path>
<g class="terminal">
<path d="M474 499h0"></path>
<path d="M574 499h0"></path>
<rect x="474" y="488" width="100" height="22" rx="10" ry="10"></rect>
<text x="524" y="503">"DURATION"</text>
</g>
<path d="M574 499h10"></path>
<g>
<path d="M584 499h0"></path>
<path d="M708 499h0"></path>
<path d="M584 499h20"></path>
<g class="terminal">
<path d="M604 499h0"></path>
<path d="M672 499h16"></path>
<rect x="604" y="488" width="68" height="22" rx="10" ry="10"></rect>
<text x="638" y="503">"LONG"</text>
</g>
<path d="M688 499h20"></path>
<path d="M584 499a10 10 0 0 1 10 10v10a10 10 0 0 0 10 10"></path>
<g class="terminal">
<path d="M604 529h0"></path>
<path d="M688 529h0"></path>
<rect x="604" y="518" width="84" height="22" rx="10" ry="10"></rect>
<text x="646" y="533">"MEDIUM"</text>
</g>
<path d="M688 529a10 10 0 0 0 10 -10v-10a10 10 0 0 1 10 -10"></path>
<path d="M584 499a10 10 0 0 1 10 10v40a10 10 0 0 0 10 10"></path>
<g class="terminal">
<path d="M604 559h0"></path>
<path d="M680 559h8"></path>
<rect x="604" y="548" width="76" height="22" rx="10" ry="10"></rect>
<text x="642" y="563">"SHORT"</text>
</g>
<path d="M688 559a10 10 0 0 0 10 -10v-40a10 10 0 0 1 10 -10"></path>
</g>
</g>
<path d="M832 499a10 10 0 0 0 10 -10v-380"></path>
<path d="M464 109v479a10 10 0 0 0 10 10"></path>
<g>
<path d="M474 598h0"></path>
<path d="M832 598h0"></path>
<g>
<path d="M474 598h0"></path>
<path d="M598 598h0"></path>
<path d="M474 598a10 10 0 0 0 10 -10v0a10 10 0 0 1 10 -10"></path>
<g>
<path d="M494 578h84"></path>
</g>
<path d="M578 578a10 10 0 0 1 10 10v0a10 10 0 0 0 10 10"></path>
<path d="M474 598h20"></path>
<g class="terminal">
<path d="M494 598h0"></path>
<path d="M578 598h0"></path>
<rect x="494" y="587" width="84" height="22" rx="10" ry="10"></rect>
<text x="536" y="602">"GLOBAL"</text>
</g>
<path d="M578 598h20"></path>
</g>
<path d="M598 598h10"></path>
<g class="terminal">
<path d="M608 598h0"></path>
<path d="M700 598h0"></path>
<rect x="608" y="587" width="92" height="22" rx="10" ry="10"></rect>
<text x="654" y="602">"FRIENDS"</text>
</g>
<path d="M700 598h10"></path>
<path d="M710 598h10"></path>
<g>
<path d="M720 598h0"></path>
<path d="M832 598h0"></path>
<path d="M720 598h10"></path>
<g class="non-terminal">
<path d="M730 598h0"></path>
<path d="M822 598h0"></path>
<rect x="730" y="587" width="92" height="22"></rect>
<a xlink:href="reuse_classname.svg"><text x="776" y="602">ClassName</text>
</a>
</g>
<path d="M822 598h10"></path>
<path d="M730 598a10 10 0 0 0 -10 10v0a10 10 0 0 0 10 10"></path>
<g>
<path d="M730 618h92"></path>
</g>
<path d="M822 618a10 10 0 0 0 10 -10v0a10 10 0 0 0 -10 -10"></path>
</g>
</g>
<path d="M832 598a10 10 0 0 0 10 -10v-479"></path>
<g class="diagram-text">
<title>take one or more branches, once each, in any order</title>
<path d="M 464 99 h -26 a 4 4 0 0 0 -4 4 v 12 a 4 4 0 0 0 4 4 h 26 z" class="diagram-text"></path>
<text x="449" y="113" class="diagram-text">1+</text>
<path d="M 842 99 h 16 a 4 4 0 0 1 4 4 v 12 a 4 4 0 0 1 -4 4 h -16 z" class="diagram-text"></path>
<path d="M 849 107 a 4 4 0 1 0 6 -1 m 2.75 -1 h -4 v 4 m 0 -3 h 2" style="stroke-width: 1.75"></path>
</g>
</g>
<path d="M862 109a10 10 0 0 0 10 -10v-49a10 10 0 0 1 10 -10"></path>
</g>
<path d="M882 40h20"></path>
</g>
</g>
<path d="M902 40h20"></path>
<path d="M248 40a10 10 0 0 1 10 10v577a10 10 0 0 0 10 10"></path>
<g class="terminal">
<path d="M268 637h0"></path>
<path d="M416 637h486"></path>
<rect x="268" y="626" width="148" height="22" rx="10" ry="10"></rect>
<text x="342" y="641">"IMPLEMENTATION"</text>
</g>
<path d="M902 637a10 10 0 0 0 10 -10v-577a10 10 0 0 1 10 -10"></path>
</g>
</g>
<path d="M922 40h10"></path>
<path d="M 932 40 h 20 m -10 -10 v 20 m 10 -20 v 20"></path>
</g>
</svg>
