<svg xmlns="http://www.w3.org/2000/svg" xmlns:xlink="http://www.w3.org/1999/xlink" class="railroad-diagram" width="972" height="659" viewBox="0 0 972 659">
<defs>
<style type="text/css"><![CDATA[
path {
stroke-width: 3;
stroke: black;
fill: rgba(0,0,0,0);
}
text {
font: bold 14px monospace;
text-anchor: middle;
}
text.diagram-text {
font-size: 12px;
}
a {
fill: blue;
}
text.diagram-arrow {
font-size: 16px;
}
text.label {
text-anchor: start;
}
text.comment {
font: italic 12px monospace;
}
rect {
stroke-width: 3;
stroke: black;
fill: #BCBCBC;
}
path.diagram-text {
stroke-width: 3;
stroke: black;
fill: #BCBCBC;
cursor: help;
}
]]></style>
</defs>
<g transform="translate(.5 .5)">
<path d="M 20 30 v 20 m 10 -20 v 20 m -10 -10 h 20.5"></path>
<path d="M40 40h10"></path>
<g>
<path d="M50 40h0"></path>
<path d="M922 40h0"></path>
<g class="terminal">
<path d="M50 40h0"></path>
<path d="M126 40h0"></path>
<rect x="50" y="29" width="76" height="22" rx="10" ry="10"></rect>
<text x="88" y="44">"CLASS"</text>
</g>
<path d="M126 40h10"></path>
<path d="M136 40h10"></path>
<g class="non-terminal">
<path d="M146 40h0"></path>
<path d="M238 40h0"></path>
<rect x="146" y="29" width="92" height="22"></rect>
<a xlink:href="reuse_classname.svg"><text x="192" y="44">ClassName</text>
</a>
</g>
<path d="M238 40h10"></path>
<g>
<path d="M248 40h0"></path>
<path d="M922 40h0"></path>
<path d="M248 40h20"></path>
<g>
<path d="M268 40h0"></path>
<path d="M902 40h0"></path>
<g class="terminal">
<path d="M268 40h0"></path>
<path d="M384 40h0"></path>
<rect x="268" y="29" width="116" height="22" rx="10" ry="10"></rect>
<text x="326" y="44">"DEFINITION"</text>
</g>
<path d="M384 40h10"></path>
<g>
<path d="M394 40h0"></path>
<path d="M902 40h0"></path>
<path d="M394 40a10 10 0 0 0 10 -10v0a10 10 0 0 1 10 -10"></path>
<g>
<path d="M414 20h468"></path>
</g>
<path d="M882 20a10 10 0 0 1 10 10v0a10 10 0 0 0 10 10"></path>
<path d="M394 40h20"></path>
<g>
<path d="M414 40h0"></path>
<path d="M882 40h0"></path>
<path d="M414 40h20"></path>
<g class="terminal">
<path d="M434 40h0"></path>
<path d="M502 40h360"></path>
<rect x="434" y="29" width="68" height="22" rx="10" ry="10"></rect>
<text x="468" y="44">"LOAD"</text>
</g>
<path d="M862 40h20"></path>
<path d="M414 40a10 10 0 0 1 10 10v10a10 10 0 0 0 10 10"></path>
<g class="terminal">
<path d="M434 70h0"></path>
<path d="M534 70h328"></path>
<rect x="434" y="59" width="100" height="22" rx="10" ry="10"></rect>
<text x="484" y="74">"DEFERRED"</text>
</g>
<path d="M862 70a10 10 0 0 0 10 -10v-10a10 10 0 0 1 10 -10"></path>
<path d="M414 40a10 10 0 0 1 10 10v40a10 10 0 0 0 10 10"></path>
<g>
<path d="M434 100h0"></path>
<path d="M862 100h0"></path>
<path d="M464 100h10"></path>
<g>
<path d="M474 100h0"></path>
<path d="M598 100h234"></path>
<path d="M474 100h20"></path>
<g class="terminal">
<path d="M494 100h0"></path>
<path d="M578 100h0"></path>
<rect x="494" y="89" width="84" height="22" rx="10" ry="10"></rect>
<text x="536" y="104">"PUBLIC"</text>
</g>
<path d="M578 100h20"></path>
<path d="M474 100a10 10 0 0 1 10 10v10a10 10 0 0 0 10 10"></path>
<g class="terminal">
<path d="M494 130h0"></path>
<path d="M570 130h8"></path>
<rect x="494" y="119" width="76" height="22" rx="10" ry="10"></rect>
<text x="532" y="134">"LOCAL"</text>
</g>
<path d="M578 130a10 10 0 0 0 10 -10v-10a10 10 0 0 1 10 -10"></path>
</g>
<path d="M832 100h10"></path>
<path d="M464 100v50a10 10 0 0 0 10 10"></path>
<g>
<path d="M474 160h0"></path>
<path d="M614 160h218"></path>
<path d="M474 160h20"></path>
<g class="terminal">
<path d="M494 160h0"></path>
<path d="M570 160h24"></path>
<rect x="494" y="149" width="76" height="22" rx="10" ry="10"></rect>
<text x="532" y="164">"FINAL"</text>
</g>
<path d="M594 160h20"></path>
<path d="M474 160a10 10 0 0 1 10 10v10a10 10 0 0 0 10 10"></path>
<g class="terminal">
<path d="M494 190h0"></path>
<path d="M594 190h0"></path>
<rect x="494" y="179" width="100" height="22" rx="10" ry="10"></rect>
<text x="544" y="194">"ABSTRACT"</text>
</g>
<path d="M594 190a10 10 0 0 0 10 -10v-10a10 10 0 0 1 10 -10"></path>
</g>
<path d="M832 160a10 10 0 0 0 10 -10v-50"></path>
<path d="M464 100v110a10 10 0 0 0 10 10"></path>
<g>
<path d="M474 220h0"></path>
<path d="M742 220h90"></path>
<g class="terminal">
<path d="M474 220h0"></path>
<path d="M630 220h0"></path>
<rect x="474" y="209" width="156" height="22" rx="10" ry="10"></rect>
<text x="552" y="224">"INHERITING FROM"</text>
</g>
<path d="M630 220h10"></path>
<path d="M640 220h10"></path>
<g class="non-terminal">
<path d="M650 220h0"></path>
<path d="M742 220h0"></path>
<rect x="650" y="209" width="92" height="22"></rect>
<a xlink:href="reuse_classname.svg"><text x="696" y="224">ClassName</text>
</a>
</g>
</g>
<path d="M832 220a10 10 0 0 0 10 -10v-110"></path>
<path d="M464 100v140a10 10 0 0 0 10 10"></path>
<g>
<path d="M474 250h0"></path>
<path d="M716 250h116"></path>
<g class="terminal">
<path d="M474 250h0"></path>
<path d="M558 250h0"></path>
<rect x="474" y="239" width="84" height="22" rx="10" ry="10"></rect>
<text x="516" y="254">"CREATE"</text>
</g>
<path d="M558 250h10"></path>
<g>
<path d="M568 250h0"></path>
<path d="M716 250h0"></path>
<path d="M568 250h20"></path>
<g class="terminal">
<path d="M588 250h0"></path>
<path d="M672 250h24"></path>
<rect x="588" y="239" width="84" height="22" rx="10" ry="10"></rect>
<text x="630" y="254">"PUBLIC"</text>
</g>
<path d="M696 250h20"></path>
<path d="M568 250a10 10 0 0 1 10 10v10a10 10 0 0 0 10 10"></path>
<g class="terminal">
<path d="M588 280h0"></path>
<path d="M696 280h0"></path>
<rect x="588" y="269" width="108" height="22" rx="10" ry="10"></rect>
<text x="642" y="284">"PROTECTED"</text>
</g>
<path d="M696 280a10 10 0 0 0 10 -10v-10a10 10 0 0 1 10 -10"></path>
<path d="M568 250a10 10 0 0 1 10 10v40a10 10 0 0 0 10 10"></path>
<g class="terminal">
<path d="M588 310h0"></path>
<path d="M680 310h16"></path>
<rect x="588" y="299" width="92" height="22" rx="10" ry="10"></rect>
<text x="634" y="314">"PRIVATE"</text>
</g>
<path d="M696 310a10 10 0 0 0 10 -10v-40a10 10 0 0 1 10 -10"></path>
</g>
</g>
<path d="M832 250a10 10 0 0 0 10 -10v-140"></path>
<path d="M464 100v230a10 10 0 0 0 10 10"></path>
<g class="terminal">
<path d="M474 340h0"></path>
<path d="M598 340h234"></path>
<rect x="474" y="329" width="124" height="22" rx="10" ry="10"></rect>
<text x="536" y="344">"FOR TESTING"</text>
</g>
<path d="M832 340a10 10 0 0 0 10 -10v-230"></path>
<path d="M464 100v260a10 10 0 0 0 10 10"></path>
<g>
<path d="M474 370h0"></path>
<path d="M748 370h84"></path>
<g class="terminal">
<path d="M474 370h0"></path>
<path d="M590 370h0"></path>
<rect x="474" y="359" width="116" height="22" rx="10" ry="10"></rect>
<text x="532" y="374">"RISK LEVEL"</text>
</g>
<path d="M590 370h10"></path>
<g>
<path d="M600 370h0"></path>
<path d="M748 370h0"></path>
<path d="M600 370h20"></path>
<g class="terminal">
<path d="M620 370h0"></path>
<path d="M720 370h8"></path>
<rect x="620" y="359" width="100" height="22" rx="10" ry="10"></rect>
<text x="670" y="374">"CRITICAL"</text>
</g>
<path d="M728 370h20"></path>
<path d="M600 370a10 10 0 0 1 10 10v10a10 10 0 0 0 10 10"></path>
<g class="terminal">
<path d="M620 400h0"></path>
<path d="M720 400h8"></path>
<rect x="620" y="389" width="100" height="22" rx="10" ry="10"></rect>
<text x="670" y="404">"HARMLESS"</text>
</g>
<path d="M728 400a10 10 0 0 0 10 -10v-10a10 10 0 0 1 10 -10"></path>
<path d="M600 370a10 10 0 0 1 10 10v40a10 10 0 0 0 10 10"></path>
<g class="terminal">
<path d="M620 430h0"></path>
<path d="M728 430h0"></path>
<rect x="620" y="419" width="108" height="22" rx="10" ry="10"></rect>
<text x="674" y="434">"DANGEROUS"</text>
</g>
<path d="M728 430a10 10 0 0 0 10 -10v-40a10 10 0 0 1 10 -10"></path>
</g>
</g>
<path d="M832 370a10 10 0 0 0 10 -10v-260"></path>
<path d="M464 100v350a10 10 0 0 0 10 10"></path>
<g class="terminal">
<path d="M474 460h0"></path>
<path d="M678 460h154"></path>
<rect x="474" y="449" width="204" height="22" rx="10" ry="10"></rect>
<text x="576" y="464">"SHARED MEMORY ENABLED"</text>
</g>
<path d="M832 460a10 10 0 0 0 10 -10v-350"></path>
<path d="M464 100v380a10 10 0 0 0 10 10"></path>
<g>
<path d="M474 490h0"></path>
<path d="M708 490h124"></path>
<g class="terminal">
<path d="M474 490h0"></path>
<path d="M574 490h0"></path>
<rect x="474" y="479" width="100" height="22" rx="10" ry="10"></rect>
<text x="524" y="494">"DURATION"</text>
</g>
<path d="M574 490h10"></path>
<g>
<path d="M584 490h0"></path>
<path d="M708 490h0"></path>
<path d="M584 490h20"></path>
<g class="terminal">
<path d="M604 490h0"></path>
<path d="M672 490h16"></path>
<rect x="604" y="479" width="68" height="22" rx="10" ry="10"></rect>
<text x="638" y="494">"LONG"</text>
</g>
<path d="M688 490h20"></path>
<path d="M584 490a10 10 0 0 1 10 10v10a10 10 0 0 0 10 10"></path>
<g class="terminal">
<path d="M604 520h0"></path>
<path d="M688 520h0"></path>
<rect x="604" y="509" width="84" height="22" rx="10" ry="10"></rect>
<text x="646" y="524">"MEDIUM"</text>
</g>
<path d="M688 520a10 10 0 0 0 10 -10v-10a10 10 0 0 1 10 -10"></path>
<path d="M584 490a10 10 0 0 1 10 10v40a10 10 0 0 0 10 10"></path>
<g class="terminal">
<path d="M604 550h0"></path>
<path d="M680 550h8"></path>
<rect x="604" y="539" width="76" height="22" rx="10" ry="10"></rect>
<text x="642" y="554">"SHORT"</text>
</g>
<path d="M688 550a10 10 0 0 0 10 -10v-40a10 10 0 0 1 10 -10"></path>
</g>
</g>
<path d="M832 490a10 10 0 0 0 10 -10v-380"></path>
<path d="M464 100v479a10 10 0 0 0 10 10"></path>
<g>
<path d="M474 589h0"></path>
<path d="M832 589h0"></path>
<g>
<path d="M474 589h0"></path>
<path d="M598 589h0"></path>
<path d="M474 589a10 10 0 0 0 10 -10v0a10 10 0 0 1 10 -10"></path>
<g>
<path d="M494 569h84"></path>
</g>
<path d="M578 569a10 10 0 0 1 10 10v0a10 10 0 0 0 10 10"></path>
<path d="M474 589h20"></path>
<g class="terminal">
<path d="M494 589h0"></path>
<path d="M578 589h0"></path>
<rect x="494" y="578" width="84" height="22" rx="10" ry="10"></rect>
<text x="536" y="593">"GLOBAL"</text>
</g>
<path d="M578 589h20"></path>
</g>
<path d="M598 589h10"></path>
<g class="terminal">
<path d="M608 589h0"></path>
<path d="M700 589h0"></path>
<rect x="608" y="578" width="92" height="22" rx="10" ry="10"></rect>
<text x="654" y="593">"FRIENDS"</text>
</g>
<path d="M700 589h10"></path>
<path d="M710 589h10"></path>
<g>
<path d="M720 589h0"></path>
<path d="M832 589h0"></path>
<path d="M720 589h10"></path>
<g class="non-terminal">
<path d="M730 589h0"></path>
<path d="M822 589h0"></path>
<rect x="730" y="578" width="92" height="22"></rect>
<a xlink:href="reuse_classname.svg"><text x="776" y="593">ClassName</text>
</a>
</g>
<path d="M822 589h10"></path>
<path d="M730 589a10 10 0 0 0 -10 10v0a10 10 0 0 0 10 10"></path>
<g>
<path d="M730 609h92"></path>
</g>
<path d="M822 609a10 10 0 0 0 10 -10v0a10 10 0 0 0 -10 -10"></path>
</g>
</g>
<path d="M832 589a10 10 0 0 0 10 -10v-479"></path>
<g class="diagram-text">
<title>take one or more branches, once each, in any order</title>
<path d="M 464 90 h -26 a 4 4 0 0 0 -4 4 v 12 a 4 4 0 0 0 4 4 h 26 z" class="diagram-text"></path>
<text x="449" y="104" class="diagram-text">1+</text>
<path d="M 842 90 h 16 a 4 4 0 0 1 4 4 v 12 a 4 4 0 0 1 -4 4 h -16 z" class="diagram-text"></path>
<path d="M 849 98 a 4 4 0 1 0 6 -1 m 2.75 -1 h -4 v 4 m 0 -3 h 2" style="stroke-width: 1.75"></path>
</g>
</g>
<path d="M862 100a10 10 0 0 0 10 -10v-40a10 10 0 0 1 10 -10"></path>
</g>
<path d="M882 40h20"></path>
</g>
</g>
<path d="M902 40h20"></path>
<path d="M248 40a10 10 0 0 1 10 10v568a10 10 0 0 0 10 10"></path>
<g class="terminal">
<path d="M268 628h0"></path>
<path d="M416 628h486"></path>
<rect x="268" y="617" width="148" height="22" rx="10" ry="10"></rect>
<text x="342" y="632">"IMPLEMENTATION"</text>
</g>
<path d="M902 628a10 10 0 0 0 10 -10v-568a10 10 0 0 1 10 -10"></path>
</g>
</g>
<path d="M922 40h10"></path>
<path d="M 932 40 h 20 m -10 -10 v 20 m 10 -20 v 20"></path>
</g>
</svg>
