<svg xmlns="http://www.w3.org/2000/svg" xmlns:xlink="http://www.w3.org/1999/xlink" class="railroad-diagram" width="968" height="590" viewBox="0 0 968 590">
<defs>
<style type="text/css"><![CDATA[
path {
stroke-width: 3;
stroke: black;
fill: rgba(0,0,0,0);
}
text {
font: bold 14px monospace;
text-anchor: middle;
}
text.diagram-text {
font-size: 12px;
}
a {
fill: blue;
}
text.diagram-arrow {
font-size: 16px;
}
text.label {
text-anchor: start;
}
text.comment {
font: italic 12px monospace;
}
rect {
stroke-width: 3;
stroke: black;
fill: #BCBCBC;
}
path.diagram-text {
stroke-width: 3;
stroke: black;
fill: #BCBCBC;
cursor: help;
}
]]></style>
</defs>
<g transform="translate(.5 .5)">
<path d="M 20 30 v 20 m 10 -20 v 20 m -10 -10 h 20.5"></path>
<path d="M40 40h10"></path>
<g>
<path d="M50 40h0"></path>
<path d="M918 40h0"></path>
<g class="terminal">
<path d="M50 40h0"></path>
<path d="M126 40h0"></path>
<rect x="50" y="29" width="76" height="22" rx="10" ry="10"></rect>
<text x="88" y="44">"CLASS"</text>
</g>
<path d="M126 40h10"></path>
<path d="M136 40h10"></path>
<g class="non-terminal">
<path d="M146 40h0"></path>
<path d="M246 40h0"></path>
<rect x="146" y="29" width="100" height="22"></rect>
<a xlink:href="reuse_class_name.svg"><text x="196" y="44">class&#95;name</text>
</a>
</g>
<path d="M246 40h10"></path>
<g>
<path d="M256 40h0"></path>
<path d="M918 40h0"></path>
<path d="M256 40h20"></path>
<g>
<path d="M276 40h0"></path>
<path d="M898 40h0"></path>
<g class="terminal">
<path d="M276 40h0"></path>
<path d="M392 40h0"></path>
<rect x="276" y="29" width="116" height="22" rx="10" ry="10"></rect>
<text x="334" y="44">"DEFINITION"</text>
</g>
<path d="M392 40h10"></path>
<g>
<path d="M402 40h0"></path>
<path d="M898 40h0"></path>
<path d="M402 40a10 10 0 0 0 10 -10v0a10 10 0 0 1 10 -10"></path>
<g>
<path d="M422 20h456"></path>
</g>
<path d="M878 20a10 10 0 0 1 10 10v0a10 10 0 0 0 10 10"></path>
<path d="M402 40h20"></path>
<g>
<path d="M422 40h0"></path>
<path d="M878 40h0"></path>
<path d="M422 40h20"></path>
<g class="terminal">
<path d="M442 40h174"></path>
<path d="M684 40h174"></path>
<rect x="616" y="29" width="68" height="22" rx="10" ry="10"></rect>
<text x="650" y="44">"LOAD"</text>
</g>
<path d="M858 40h20"></path>
<path d="M422 40a10 10 0 0 1 10 10v10a10 10 0 0 0 10 10"></path>
<g class="terminal">
<path d="M442 70h158"></path>
<path d="M700 70h158"></path>
<rect x="600" y="59" width="100" height="22" rx="10" ry="10"></rect>
<text x="650" y="74">"DEFERRED"</text>
</g>
<path d="M858 70a10 10 0 0 0 10 -10v-10a10 10 0 0 1 10 -10"></path>
<path d="M422 40a10 10 0 0 1 10 10v40a10 10 0 0 0 10 10"></path>
<g>
<path d="M442 100h0"></path>
<path d="M858 100h0"></path>
<path d="M472 100h10"></path>
<g>
<path d="M482 100h111"></path>
<path d="M717 100h111"></path>
<path d="M593 100h20"></path>
<g class="terminal">
<path d="M613 100h0"></path>
<path d="M697 100h0"></path>
<rect x="613" y="89" width="84" height="22" rx="10" ry="10"></rect>
<text x="655" y="104">"PUBLIC"</text>
</g>
<path d="M697 100h20"></path>
<path d="M593 100a10 10 0 0 1 10 10v10a10 10 0 0 0 10 10"></path>
<g class="terminal">
<path d="M613 130h4"></path>
<path d="M693 130h4"></path>
<rect x="617" y="119" width="76" height="22" rx="10" ry="10"></rect>
<text x="655" y="134">"LOCAL"</text>
</g>
<path d="M697 130a10 10 0 0 0 10 -10v-10a10 10 0 0 1 10 -10"></path>
</g>
<path d="M828 100h10"></path>
<path d="M472 100v50a10 10 0 0 0 10 10"></path>
<g>
<path d="M482 160h103"></path>
<path d="M725 160h103"></path>
<path d="M585 160h20"></path>
<g class="terminal">
<path d="M605 160h12"></path>
<path d="M693 160h12"></path>
<rect x="617" y="149" width="76" height="22" rx="10" ry="10"></rect>
<text x="655" y="164">"FINAL"</text>
</g>
<path d="M705 160h20"></path>
<path d="M585 160a10 10 0 0 1 10 10v10a10 10 0 0 0 10 10"></path>
<g class="terminal">
<path d="M605 190h0"></path>
<path d="M705 190h0"></path>
<rect x="605" y="179" width="100" height="22" rx="10" ry="10"></rect>
<text x="655" y="194">"ABSTRACT"</text>
</g>
<path d="M705 190a10 10 0 0 0 10 -10v-10a10 10 0 0 1 10 -10"></path>
</g>
<path d="M828 160a10 10 0 0 0 10 -10v-50"></path>
<path d="M472 100v110a10 10 0 0 0 10 10"></path>
<g>
<path d="M482 220h35"></path>
<path d="M793 220h35"></path>
<g class="terminal">
<path d="M517 220h0"></path>
<path d="M673 220h0"></path>
<rect x="517" y="209" width="156" height="22" rx="10" ry="10"></rect>
<text x="595" y="224">"INHERITING FROM"</text>
</g>
<path d="M673 220h10"></path>
<path d="M683 220h10"></path>
<g class="non-terminal">
<path d="M693 220h0"></path>
<path d="M793 220h0"></path>
<rect x="693" y="209" width="100" height="22"></rect>
<a xlink:href="reuse_class_name.svg"><text x="743" y="224">class&#95;name</text>
</a>
</g>
</g>
<path d="M828 220a10 10 0 0 0 10 -10v-110"></path>
<path d="M472 100v140a10 10 0 0 0 10 10"></path>
<g>
<path d="M482 250h52"></path>
<path d="M776 250h52"></path>
<g class="terminal">
<path d="M534 250h0"></path>
<path d="M618 250h0"></path>
<rect x="534" y="239" width="84" height="22" rx="10" ry="10"></rect>
<text x="576" y="254">"CREATE"</text>
</g>
<path d="M618 250h10"></path>
<g>
<path d="M628 250h0"></path>
<path d="M776 250h0"></path>
<path d="M628 250h20"></path>
<g class="terminal">
<path d="M648 250h12"></path>
<path d="M744 250h12"></path>
<rect x="660" y="239" width="84" height="22" rx="10" ry="10"></rect>
<text x="702" y="254">"PUBLIC"</text>
</g>
<path d="M756 250h20"></path>
<path d="M628 250a10 10 0 0 1 10 10v10a10 10 0 0 0 10 10"></path>
<g class="terminal">
<path d="M648 280h0"></path>
<path d="M756 280h0"></path>
<rect x="648" y="269" width="108" height="22" rx="10" ry="10"></rect>
<text x="702" y="284">"PROTECTED"</text>
</g>
<path d="M756 280a10 10 0 0 0 10 -10v-10a10 10 0 0 1 10 -10"></path>
<path d="M628 250a10 10 0 0 1 10 10v40a10 10 0 0 0 10 10"></path>
<g class="terminal">
<path d="M648 310h8"></path>
<path d="M748 310h8"></path>
<rect x="656" y="299" width="92" height="22" rx="10" ry="10"></rect>
<text x="702" y="314">"PRIVATE"</text>
</g>
<path d="M756 310a10 10 0 0 0 10 -10v-40a10 10 0 0 1 10 -10"></path>
</g>
</g>
<path d="M828 250a10 10 0 0 0 10 -10v-140"></path>
<path d="M472 100v230a10 10 0 0 0 10 10"></path>
<g class="terminal">
<path d="M482 340h111"></path>
<path d="M717 340h111"></path>
<rect x="593" y="329" width="124" height="22" rx="10" ry="10"></rect>
<text x="655" y="344">"FOR TESTING"</text>
</g>
<path d="M828 340a10 10 0 0 0 10 -10v-230"></path>
<path d="M472 100v260a10 10 0 0 0 10 10"></path>
<g>
<path d="M482 370h40"></path>
<path d="M788 370h40"></path>
<g class="terminal">
<path d="M522 370h0"></path>
<path d="M638 370h0"></path>
<rect x="522" y="359" width="116" height="22" rx="10" ry="10"></rect>
<text x="580" y="374">"RISK LEVEL"</text>
</g>
<path d="M638 370h10"></path>
<g>
<path d="M648 370h0"></path>
<path d="M788 370h0"></path>
<path d="M648 370h20"></path>
<g class="terminal">
<path d="M668 370h0"></path>
<path d="M768 370h0"></path>
<rect x="668" y="359" width="100" height="22" rx="10" ry="10"></rect>
<text x="718" y="374">"CRITICAL"</text>
</g>
<path d="M768 370h20"></path>
<path d="M648 370a10 10 0 0 1 10 10v10a10 10 0 0 0 10 10"></path>
<g class="terminal">
<path d="M668 400h0"></path>
<path d="M768 400h0"></path>
<rect x="668" y="389" width="100" height="22" rx="10" ry="10"></rect>
<text x="718" y="404">"HARMLESS"</text>
</g>
<path d="M768 400a10 10 0 0 0 10 -10v-10a10 10 0 0 1 10 -10"></path>
</g>
</g>
<path d="M828 370a10 10 0 0 0 10 -10v-260"></path>
<path d="M472 100v320a10 10 0 0 0 10 10"></path>
<g>
<path d="M482 430h56"></path>
<path d="M772 430h56"></path>
<g class="terminal">
<path d="M538 430h0"></path>
<path d="M638 430h0"></path>
<rect x="538" y="419" width="100" height="22" rx="10" ry="10"></rect>
<text x="588" y="434">"DURATION"</text>
</g>
<path d="M638 430h10"></path>
<g>
<path d="M648 430h0"></path>
<path d="M772 430h0"></path>
<path d="M648 430h20"></path>
<g class="terminal">
<path d="M668 430h8"></path>
<path d="M744 430h8"></path>
<rect x="676" y="419" width="68" height="22" rx="10" ry="10"></rect>
<text x="710" y="434">"LONG"</text>
</g>
<path d="M752 430h20"></path>
<path d="M648 430a10 10 0 0 1 10 10v10a10 10 0 0 0 10 10"></path>
<g class="terminal">
<path d="M668 460h0"></path>
<path d="M752 460h0"></path>
<rect x="668" y="449" width="84" height="22" rx="10" ry="10"></rect>
<text x="710" y="464">"MEDIUM"</text>
</g>
<path d="M752 460a10 10 0 0 0 10 -10v-10a10 10 0 0 1 10 -10"></path>
<path d="M648 430a10 10 0 0 1 10 10v40a10 10 0 0 0 10 10"></path>
<g class="terminal">
<path d="M668 490h4"></path>
<path d="M748 490h4"></path>
<rect x="672" y="479" width="76" height="22" rx="10" ry="10"></rect>
<text x="710" y="494">"SHORT"</text>
</g>
<path d="M752 490a10 10 0 0 0 10 -10v-40a10 10 0 0 1 10 -10"></path>
</g>
</g>
<path d="M828 430a10 10 0 0 0 10 -10v-320"></path>
<path d="M472 100v419a10 10 0 0 0 10 10"></path>
<g>
<path d="M482 529h0"></path>
<path d="M828 529h0"></path>
<g>
<path d="M482 529h0"></path>
<path d="M606 529h0"></path>
<path d="M482 529a10 10 0 0 0 10 -10v0a10 10 0 0 1 10 -10"></path>
<g>
<path d="M502 509h84"></path>
</g>
<path d="M586 509a10 10 0 0 1 10 10v0a10 10 0 0 0 10 10"></path>
<path d="M482 529h20"></path>
<g class="terminal">
<path d="M502 529h0"></path>
<path d="M586 529h0"></path>
<rect x="502" y="518" width="84" height="22" rx="10" ry="10"></rect>
<text x="544" y="533">"GLOBAL"</text>
</g>
<path d="M586 529h20"></path>
</g>
<path d="M606 529h10"></path>
<g class="terminal">
<path d="M616 529h0"></path>
<path d="M708 529h0"></path>
<rect x="616" y="518" width="92" height="22" rx="10" ry="10"></rect>
<text x="662" y="533">"FRIENDS"</text>
</g>
<path d="M708 529h10"></path>
<path d="M718 529h10"></path>
<g class="non-terminal">
<path d="M728 529h0"></path>
<path d="M828 529h0"></path>
<rect x="728" y="518" width="100" height="22"></rect>
<a xlink:href="reuse_class_name.svg"><text x="778" y="533">class&#95;name</text>
</a>
</g>
</g>
<path d="M828 529a10 10 0 0 0 10 -10v-419"></path>
<g class="diagram-text">
<title>take one or more branches, once each, in any order</title>
<path d="M 472 90 h -26 a 4 4 0 0 0 -4 4 v 12 a 4 4 0 0 0 4 4 h 26 z" class="diagram-text"></path>
<text x="457" y="104" class="diagram-text">1+</text>
<path d="M 838 90 h 16 a 4 4 0 0 1 4 4 v 12 a 4 4 0 0 1 -4 4 h -16 z" class="diagram-text"></path>
<path d="M 845 98 a 4 4 0 1 0 6 -1 m 2.75 -1 h -4 v 4 m 0 -3 h 2" style="stroke-width: 1.75"></path>
</g>
</g>
<path d="M858 100a10 10 0 0 0 10 -10v-40a10 10 0 0 1 10 -10"></path>
</g>
<path d="M878 40h20"></path>
</g>
</g>
<path d="M898 40h20"></path>
<path d="M256 40a10 10 0 0 1 10 10v499a10 10 0 0 0 10 10"></path>
<g class="terminal">
<path d="M276 559h237"></path>
<path d="M661 559h237"></path>
<rect x="513" y="548" width="148" height="22" rx="10" ry="10"></rect>
<text x="587" y="563">"IMPLEMENTATION"</text>
</g>
<path d="M898 559a10 10 0 0 0 10 -10v-499a10 10 0 0 1 10 -10"></path>
</g>
</g>
<path d="M918 40h10"></path>
<path d="M 928 40 h 20 m -10 -10 v 20 m 10 -20 v 20"></path>
</g>
</svg>
