<svg xmlns="http://www.w3.org/2000/svg" xmlns:xlink="http://www.w3.org/1999/xlink" class="railroad-diagram" width="722" height="101" viewBox="0 0 722 101">
<defs>
<style type="text/css"><![CDATA[
path {
stroke-width: 3;
stroke: black;
fill: rgba(0,0,0,0);
}
text {
font: bold 14px monospace;
text-anchor: middle;
}
text.diagram-text {
font-size: 12px;
}
a {
fill: blue;
}
text.diagram-arrow {
font-size: 16px;
}
text.label {
text-anchor: start;
}
text.comment {
font: italic 12px monospace;
}
rect {
stroke-width: 3;
stroke: black;
fill: #BCBCBC;
}
path.diagram-text {
stroke-width: 3;
stroke: black;
fill: #BCBCBC;
cursor: help;
}
]]></style>
</defs>
<g transform="translate(.5 .5)">
<path d="M 20 30 v 20 m 10 -20 v 20 m -10 -10 h 20.5"></path>
<path d="M40 40h10"></path>
<g>
<path d="M50 40h0"></path>
<path d="M672 40h0"></path>
<g class="terminal">
<path d="M50 40h0"></path>
<path d="M126 40h0"></path>
<rect x="50" y="29" width="76" height="22" rx="10" ry="10"></rect>
<text x="88" y="44">"CLEAR"</text>
</g>
<path d="M126 40h10"></path>
<path d="M136 40h10"></path>
<g class="non-terminal">
<path d="M146 40h0"></path>
<path d="M214 40h0"></path>
<rect x="146" y="29" width="68" height="22"></rect>
<a xlink:href="reuse_target.svg"><text x="180" y="44">Target</text>
</a>
</g>
<path d="M214 40h10"></path>
<g>
<path d="M224 40h0"></path>
<path d="M420 40h0"></path>
<path d="M224 40a10 10 0 0 0 10 -10v0a10 10 0 0 1 10 -10"></path>
<g>
<path d="M244 20h156"></path>
</g>
<path d="M400 20a10 10 0 0 1 10 10v0a10 10 0 0 0 10 10"></path>
<path d="M224 40h20"></path>
<g>
<path d="M244 40h0"></path>
<path d="M400 40h0"></path>
<g class="terminal">
<path d="M244 40h0"></path>
<path d="M312 40h0"></path>
<rect x="244" y="29" width="68" height="22" rx="10" ry="10"></rect>
<text x="278" y="44">"WITH"</text>
</g>
<path d="M312 40h10"></path>
<path d="M322 40h10"></path>
<g class="non-terminal">
<path d="M332 40h0"></path>
<path d="M400 40h0"></path>
<rect x="332" y="29" width="68" height="22"></rect>
<a xlink:href="reuse_source.svg"><text x="366" y="44">Source</text>
</a>
</g>
</g>
<path d="M400 40h20"></path>
</g>
<g>
<path d="M420 40h0"></path>
<path d="M672 40h0"></path>
<path d="M420 40a10 10 0 0 0 10 -10v0a10 10 0 0 1 10 -10"></path>
<g>
<path d="M440 20h212"></path>
</g>
<path d="M652 20a10 10 0 0 1 10 10v0a10 10 0 0 0 10 10"></path>
<path d="M420 40h20"></path>
<g>
<path d="M440 40h0"></path>
<path d="M652 40h0"></path>
<path d="M440 40h20"></path>
<g class="terminal">
<path d="M460 40h0"></path>
<path d="M632 40h0"></path>
<rect x="460" y="29" width="172" height="22" rx="10" ry="10"></rect>
<text x="546" y="44">"IN CHARACTER MODE"</text>
</g>
<path d="M632 40h20"></path>
<path d="M440 40a10 10 0 0 1 10 10v10a10 10 0 0 0 10 10"></path>
<g class="terminal">
<path d="M460 70h0"></path>
<path d="M592 70h40"></path>
<rect x="460" y="59" width="132" height="22" rx="10" ry="10"></rect>
<text x="526" y="74">"IN BYTE MODE"</text>
</g>
<path d="M632 70a10 10 0 0 0 10 -10v-10a10 10 0 0 1 10 -10"></path>
</g>
<path d="M652 40h20"></path>
</g>
</g>
<path d="M672 40h10"></path>
<path d="M 682 40 h 20 m -10 -10 v 20 m 10 -20 v 20"></path>
</g>
</svg>
