<?xml version="1.0" encoding="UTF-8" standalone="no"?>
<!DOCTYPE svg PUBLIC "-//W3C//DTD SVG 1.1//EN"
 "http://www.w3.org/Graphics/SVG/1.1/DTD/svg11.dtd">
<!-- Generated by graphviz version 2.38.0 (20140413.2041)
 -->
<!-- Title: clear Pages: 1 -->
<svg width="157pt" height="260pt"
 viewBox="0.00 0.00 156.57 260.00" xmlns="http://www.w3.org/2000/svg" xmlns:xlink="http://www.w3.org/1999/xlink">
<g id="graph0" class="graph" transform="scale(1 1) rotate(0) translate(4 256)">
<title>clear</title>
<polygon fill="white" stroke="none" points="-4,4 -4,-256 152.565,-256 152.565,4 -4,4"/>
<!-- start -->
<g id="node1" class="node"><title>start</title>
<polygon fill="none" stroke="black" points="125,-252 71,-252 71,-216 125,-216 125,-252"/>
<text text-anchor="middle" x="98" y="-229.8" font-family="Times,serif" font-size="14.00">Start</text>
</g>
<!-- node252 -->
<g id="node5" class="node"><title>node252</title>
<ellipse fill="none" stroke="black" cx="98" cy="-162" rx="50.6306" ry="18"/>
<text text-anchor="middle" x="98" y="-157.8" font-family="Times,serif" font-size="14.00">&quot;CLEAR&quot;</text>
</g>
<!-- start&#45;&gt;node252 -->
<g id="edge6" class="edge"><title>start&#45;&gt;node252</title>
<path fill="none" stroke="black" d="M98,-215.697C98,-207.983 98,-198.712 98,-190.112"/>
<polygon fill="black" stroke="black" points="101.5,-190.104 98,-180.104 94.5001,-190.104 101.5,-190.104"/>
</g>
<!-- end -->
<g id="node2" class="node"><title>end</title>
<polygon fill="none" stroke="black" points="54,-36 0,-36 0,-0 54,-0 54,-36"/>
<text text-anchor="middle" x="27" y="-13.8" font-family="Times,serif" font-size="14.00">End</text>
</g>
<!-- node250 -->
<g id="node3" class="node"><title>node250</title>
<ellipse fill="none" stroke="black" cx="63" cy="-90" rx="42.879" ry="18"/>
<text text-anchor="middle" x="63" y="-85.8" font-family="Times,serif" font-size="14.00">Dummy</text>
</g>
<!-- node250&#45;&gt;end -->
<g id="edge3" class="edge"><title>node250&#45;&gt;end</title>
<path fill="none" stroke="black" d="M54.2854,-72.055C50.1463,-64.0067 45.1052,-54.2046 40.4876,-45.2259"/>
<polygon fill="black" stroke="black" points="43.5705,-43.5675 35.8844,-36.2753 37.3455,-46.7689 43.5705,-43.5675"/>
</g>
<!-- node251 -->
<g id="node4" class="node"><title>node251</title>
<ellipse fill="none" stroke="black" cx="99" cy="-18" rx="27" ry="18"/>
<text text-anchor="middle" x="99" y="-13.8" font-family="Times,serif" font-size="14.00">.*</text>
</g>
<!-- node250&#45;&gt;node251 -->
<g id="edge2" class="edge"><title>node250&#45;&gt;node251</title>
<path fill="none" stroke="black" d="M65.9832,-71.6966C69.616,-62.8605 75.0459,-51.9822 80.5518,-42.4084"/>
<polygon fill="black" stroke="black" points="83.6155,-44.106 85.7977,-33.7383 77.6264,-40.4822 83.6155,-44.106"/>
</g>
<!-- node251&#45;&gt;node250 -->
<g id="edge1" class="edge"><title>node251&#45;&gt;node250</title>
<path fill="none" stroke="black" d="M96.0905,-36.1239C92.6592,-44.4999 87.5924,-54.7429 82.3699,-63.9755"/>
<polygon fill="black" stroke="black" points="79.2472,-62.3794 77.1504,-72.7646 85.2659,-65.9537 79.2472,-62.3794"/>
</g>
<!-- node252&#45;&gt;node250 -->
<g id="edge5" class="edge"><title>node252&#45;&gt;node250</title>
<path fill="none" stroke="black" d="M89.5275,-144.055C85.4433,-135.887 80.4558,-125.912 75.9122,-116.824"/>
<polygon fill="black" stroke="black" points="78.9972,-115.168 71.3945,-107.789 72.7362,-118.299 78.9972,-115.168"/>
</g>
<!-- node252&#45;&gt;node251 -->
<g id="edge4" class="edge"><title>node252&#45;&gt;node251</title>
<path fill="none" stroke="black" d="M104.89,-144.141C108.705,-133.884 113.058,-120.411 115,-108 117.473,-92.1923 117.337,-87.8284 115,-72 113.702,-63.2121 111.256,-53.8616 108.66,-45.5001"/>
<polygon fill="black" stroke="black" points="111.947,-44.2923 105.486,-35.8957 105.301,-46.4889 111.947,-44.2923"/>
</g>
</g>
</svg>
