<?xml version="1.0" encoding="UTF-8" standalone="no"?>
<!DOCTYPE svg PUBLIC "-//W3C//DTD SVG 1.1//EN"
 "http://www.w3.org/Graphics/SVG/1.1/DTD/svg11.dtd">
<!-- Generated by graphviz version 2.38.0 (20140413.2041)
 -->
<!-- Title: collect Pages: 1 -->
<svg width="133pt" height="404pt"
 viewBox="0.00 0.00 132.73 404.00" xmlns="http://www.w3.org/2000/svg" xmlns:xlink="http://www.w3.org/1999/xlink">
<g id="graph0" class="graph" transform="scale(1 1) rotate(0) translate(4 400)">
<title>collect</title>
<polygon fill="white" stroke="none" points="-4,4 -4,-400 128.728,-400 128.728,4 -4,4"/>
<!-- start -->
<g id="node1" class="node"><title>start</title>
<polygon fill="none" stroke="black" points="89.3641,-396 35.3641,-396 35.3641,-360 89.3641,-360 89.3641,-396"/>
<text text-anchor="middle" x="62.3641" y="-373.8" font-family="Times,serif" font-size="14.00">Start</text>
</g>
<!-- node470 -->
<g id="node6" class="node"><title>node470</title>
<ellipse fill="none" stroke="black" cx="62.3641" cy="-306" rx="62.2286" ry="18"/>
<text text-anchor="middle" x="62.3641" y="-301.8" font-family="Times,serif" font-size="14.00">&quot;COLLECT&quot;</text>
</g>
<!-- start&#45;&gt;node470 -->
<g id="edge5" class="edge"><title>start&#45;&gt;node470</title>
<path fill="none" stroke="black" d="M62.3641,-359.697C62.3641,-351.983 62.3641,-342.712 62.3641,-334.112"/>
<polygon fill="black" stroke="black" points="65.8642,-334.104 62.3641,-324.104 58.8642,-334.104 65.8642,-334.104"/>
</g>
<!-- end -->
<g id="node2" class="node"><title>end</title>
<polygon fill="none" stroke="black" points="89.3641,-36 35.3641,-36 35.3641,-0 89.3641,-0 89.3641,-36"/>
<text text-anchor="middle" x="62.3641" y="-13.8" font-family="Times,serif" font-size="14.00">End</text>
</g>
<!-- node467 -->
<g id="node3" class="node"><title>node467</title>
<g id="a_node3"><a xlink:href="reuse_target.svg" xlink:title="&lt;u&gt;target&lt;/u&gt;">
<ellipse fill="none" stroke="black" cx="62.3641" cy="-90" rx="33.0411" ry="18"/>
<text text-anchor="start" x="46.4286" y="-86.8" font-family="Times,serif" text-decoration="underline" font-size="14.00" fill="blue">target</text>
</a>
</g>
</g>
<!-- node467&#45;&gt;end -->
<g id="edge1" class="edge"><title>node467&#45;&gt;end</title>
<path fill="none" stroke="black" d="M62.3641,-71.6966C62.3641,-63.9827 62.3641,-54.7125 62.3641,-46.1124"/>
<polygon fill="black" stroke="black" points="65.8642,-46.1043 62.3641,-36.1043 58.8642,-46.1044 65.8642,-46.1043"/>
</g>
<!-- node468 -->
<g id="node4" class="node"><title>node468</title>
<ellipse fill="none" stroke="black" cx="62.3641" cy="-162" rx="41.9431" ry="18"/>
<text text-anchor="middle" x="62.3641" y="-157.8" font-family="Times,serif" font-size="14.00">&quot;INTO&quot;</text>
</g>
<!-- node468&#45;&gt;node467 -->
<g id="edge2" class="edge"><title>node468&#45;&gt;node467</title>
<path fill="none" stroke="black" d="M62.3641,-143.697C62.3641,-135.983 62.3641,-126.712 62.3641,-118.112"/>
<polygon fill="black" stroke="black" points="65.8642,-118.104 62.3641,-108.104 58.8642,-118.104 65.8642,-118.104"/>
</g>
<!-- node469 -->
<g id="node5" class="node"><title>node469</title>
<g id="a_node5"><a xlink:href="reuse_source.svg" xlink:title="&lt;u&gt;source&lt;/u&gt;">
<ellipse fill="none" stroke="black" cx="62.3641" cy="-234" rx="36.4761" ry="18"/>
<text text-anchor="start" x="44.0969" y="-230.8" font-family="Times,serif" text-decoration="underline" font-size="14.00" fill="blue">source</text>
</a>
</g>
</g>
<!-- node469&#45;&gt;node468 -->
<g id="edge3" class="edge"><title>node469&#45;&gt;node468</title>
<path fill="none" stroke="black" d="M62.3641,-215.697C62.3641,-207.983 62.3641,-198.712 62.3641,-190.112"/>
<polygon fill="black" stroke="black" points="65.8642,-190.104 62.3641,-180.104 58.8642,-190.104 65.8642,-190.104"/>
</g>
<!-- node470&#45;&gt;node469 -->
<g id="edge4" class="edge"><title>node470&#45;&gt;node469</title>
<path fill="none" stroke="black" d="M62.3641,-287.697C62.3641,-279.983 62.3641,-270.712 62.3641,-262.112"/>
<polygon fill="black" stroke="black" points="65.8642,-262.104 62.3641,-252.104 58.8642,-262.104 65.8642,-262.104"/>
</g>
</g>
</svg>
