<?xml version="1.0" encoding="UTF-8" standalone="no"?>
<!DOCTYPE svg PUBLIC "-//W3C//DTD SVG 1.1//EN"
 "http://www.w3.org/Graphics/SVG/1.1/DTD/svg11.dtd">
<!-- Generated by graphviz version 2.38.0 (20140413.2041)
 -->
<!-- Title: commit Pages: 1 -->
<svg width="214pt" height="260pt"
 viewBox="0.00 0.00 213.96 260.00" xmlns="http://www.w3.org/2000/svg" xmlns:xlink="http://www.w3.org/1999/xlink">
<g id="graph0" class="graph" transform="scale(1 1) rotate(0) translate(4 256)">
<title>commit</title>
<polygon fill="white" stroke="none" points="-4,4 -4,-256 209.965,-256 209.965,4 -4,4"/>
<!-- start -->
<g id="node1" class="node"><title>start</title>
<polygon fill="none" stroke="black" points="117.521,-252 63.5209,-252 63.5209,-216 117.521,-216 117.521,-252"/>
<text text-anchor="middle" x="90.5209" y="-229.8" font-family="Times,serif" font-size="14.00">Start</text>
</g>
<!-- node386 -->
<g id="node4" class="node"><title>node386</title>
<ellipse fill="none" stroke="black" cx="90.5209" cy="-162" rx="90.5418" ry="18"/>
<text text-anchor="middle" x="90.5209" y="-157.8" font-family="Times,serif" font-size="14.00">&quot;COMMIT WORK&quot;</text>
</g>
<!-- start&#45;&gt;node386 -->
<g id="edge4" class="edge"><title>start&#45;&gt;node386</title>
<path fill="none" stroke="black" d="M90.5209,-215.697C90.5209,-207.983 90.5209,-198.712 90.5209,-190.112"/>
<polygon fill="black" stroke="black" points="94.021,-190.104 90.5209,-180.104 87.021,-190.104 94.021,-190.104"/>
</g>
<!-- end -->
<g id="node2" class="node"><title>end</title>
<polygon fill="none" stroke="black" points="117.521,-36 63.5209,-36 63.5209,-0 117.521,-0 117.521,-36"/>
<text text-anchor="middle" x="90.5209" y="-13.8" font-family="Times,serif" font-size="14.00">End</text>
</g>
<!-- node385 -->
<g id="node3" class="node"><title>node385</title>
<ellipse fill="none" stroke="black" cx="138.521" cy="-90" rx="67.3874" ry="18"/>
<text text-anchor="middle" x="138.521" y="-85.8" font-family="Times,serif" font-size="14.00">&quot;AND WAIT&quot;</text>
</g>
<!-- node385&#45;&gt;end -->
<g id="edge1" class="edge"><title>node385&#45;&gt;end</title>
<path fill="none" stroke="black" d="M126.901,-72.055C121.266,-63.8373 114.378,-53.7911 108.116,-44.6599"/>
<polygon fill="black" stroke="black" points="110.909,-42.5432 102.367,-36.2753 105.136,-46.502 110.909,-42.5432"/>
</g>
<!-- node386&#45;&gt;end -->
<g id="edge3" class="edge"><title>node386&#45;&gt;end</title>
<path fill="none" stroke="black" d="M78.6337,-143.725C72.5084,-133.765 65.6761,-120.727 62.5209,-108 58.6708,-92.4701 58.6708,-87.5299 62.5209,-72 64.8133,-62.7531 69.0469,-53.3419 73.5401,-45.0665"/>
<polygon fill="black" stroke="black" points="76.6488,-46.6825 78.6337,-36.2752 70.592,-43.1731 76.6488,-46.6825"/>
</g>
<!-- node386&#45;&gt;node385 -->
<g id="edge2" class="edge"><title>node386&#45;&gt;node385</title>
<path fill="none" stroke="black" d="M102.14,-144.055C107.859,-135.715 114.87,-125.491 121.205,-116.252"/>
<polygon fill="black" stroke="black" points="124.24,-118.016 127.008,-107.789 118.467,-114.057 124.24,-118.016"/>
</g>
</g>
</svg>
