<svg xmlns="http://www.w3.org/2000/svg" xmlns:xlink="http://www.w3.org/1999/xlink" class="railroad-diagram" width="476" height="131" viewBox="0 0 476 131">
<defs>
<style type="text/css"><![CDATA[
path {
stroke-width: 3;
stroke: black;
fill: rgba(0,0,0,0);
}
text {
font: bold 14px monospace;
text-anchor: middle;
}
text.diagram-text {
font-size: 12px;
}
a {
fill: blue;
}
text.diagram-arrow {
font-size: 16px;
}
text.label {
text-anchor: start;
}
text.comment {
font: italic 12px monospace;
}
rect {
stroke-width: 3;
stroke: black;
fill: #BCBCBC;
}
path.diagram-text {
stroke-width: 3;
stroke: black;
fill: #BCBCBC;
cursor: help;
}
]]></style>
</defs>
<g transform="translate(.5 .5)">
<path d="M 20 30 v 20 m 10 -20 v 20 m -10 -10 h 20.5"></path>
<path d="M40 40h10"></path>
<g>
<path d="M50 40h0"></path>
<path d="M426 40h0"></path>
<g class="terminal">
<path d="M50 40h0"></path>
<path d="M134 40h0"></path>
<rect x="50" y="29" width="84" height="22" rx="10" ry="10"></rect>
<text x="92" y="44">"COMMIT"</text>
</g>
<path d="M134 40h10"></path>
<g>
<path d="M144 40h0"></path>
<path d="M426 40h0"></path>
<path d="M144 40h20"></path>
<g>
<path d="M164 40h0"></path>
<path d="M382 40h24"></path>
<g class="terminal">
<path d="M164 40h0"></path>
<path d="M232 40h0"></path>
<rect x="164" y="29" width="68" height="22" rx="10" ry="10"></rect>
<text x="198" y="44">"WORK"</text>
</g>
<path d="M232 40h10"></path>
<g>
<path d="M242 40h0"></path>
<path d="M382 40h0"></path>
<path d="M242 40a10 10 0 0 0 10 -10v0a10 10 0 0 1 10 -10"></path>
<g>
<path d="M262 20h100"></path>
</g>
<path d="M362 20a10 10 0 0 1 10 10v0a10 10 0 0 0 10 10"></path>
<path d="M242 40h20"></path>
<g class="terminal">
<path d="M262 40h0"></path>
<path d="M362 40h0"></path>
<rect x="262" y="29" width="100" height="22" rx="10" ry="10"></rect>
<text x="312" y="44">"AND WAIT"</text>
</g>
<path d="M362 40h20"></path>
</g>
</g>
<path d="M406 40h20"></path>
<path d="M144 40a10 10 0 0 1 10 10v10a10 10 0 0 0 10 10"></path>
<g>
<path d="M164 70h0"></path>
<path d="M406 70h0"></path>
<g class="terminal">
<path d="M164 70h0"></path>
<path d="M280 70h0"></path>
<rect x="164" y="59" width="116" height="22" rx="10" ry="10"></rect>
<text x="222" y="74">"CONNECTION"</text>
</g>
<path d="M280 70h10"></path>
<g>
<path d="M290 70h0"></path>
<path d="M406 70h0"></path>
<path d="M290 70h20"></path>
<g class="non-terminal">
<path d="M310 70h0"></path>
<path d="M378 70h8"></path>
<rect x="310" y="59" width="68" height="22"></rect>
<a xlink:href="reuse_source.svg"><text x="344" y="74">Source</text>
</a>
</g>
<path d="M386 70h20"></path>
<path d="M290 70a10 10 0 0 1 10 10v10a10 10 0 0 0 10 10"></path>
<g class="non-terminal">
<path d="M310 100h0"></path>
<path d="M386 100h0"></path>
<rect x="310" y="89" width="76" height="22"></rect>
<a xlink:href="reuse_dynamic.svg"><text x="348" y="104">Dynamic</text>
</a>
</g>
<path d="M386 100a10 10 0 0 0 10 -10v-10a10 10 0 0 1 10 -10"></path>
</g>
</g>
<path d="M406 70a10 10 0 0 0 10 -10v-10a10 10 0 0 1 10 -10"></path>
</g>
</g>
<path d="M426 40h10"></path>
<path d="M 436 40 h 20 m -10 -10 v 20 m 10 -20 v 20"></path>
</g>
</svg>
