<svg xmlns="http://www.w3.org/2000/svg" xmlns:xlink="http://www.w3.org/1999/xlink" class="railroad-diagram" width="1326" height="221" viewBox="0 0 1326 221">
<defs>
<style type="text/css"><![CDATA[
path {
stroke-width: 3;
stroke: black;
fill: rgba(0,0,0,0);
}
text {
font: bold 14px monospace;
text-anchor: middle;
}
text.diagram-text {
font-size: 12px;
}
a {
fill: blue;
}
text.diagram-arrow {
font-size: 16px;
}
text.label {
text-anchor: start;
}
text.comment {
font: italic 12px monospace;
}
rect {
stroke-width: 3;
stroke: black;
fill: #BCBCBC;
}
path.diagram-text {
stroke-width: 3;
stroke: black;
fill: #BCBCBC;
cursor: help;
}
]]></style>
</defs>
<g transform="translate(.5 .5)">
<path d="M 20 21 v 20 m 10 -20 v 20 m -10 -10 h 20.5"></path>
<path d="M40 31h10"></path>
<g>
<path d="M50 31h0"></path>
<path d="M1276 31h0"></path>
<g class="terminal">
<path d="M50 31h0"></path>
<path d="M190 31h0"></path>
<rect x="50" y="20" width="140" height="22" rx="10" ry="10"></rect>
<text x="120" y="35">"COMMUNICATION"</text>
</g>
<path d="M190 31h10"></path>
<g>
<path d="M200 31h0"></path>
<path d="M1276 31h0"></path>
<path d="M200 31h20"></path>
<g>
<path d="M220 31h0"></path>
<path d="M632 31h624"></path>
<g class="terminal">
<path d="M220 31h0"></path>
<path d="M312 31h0"></path>
<rect x="220" y="20" width="92" height="22" rx="10" ry="10"></rect>
<text x="266" y="35">"INIT ID"</text>
</g>
<path d="M312 31h10"></path>
<path d="M322 31h10"></path>
<g class="non-terminal">
<path d="M332 31h0"></path>
<path d="M400 31h0"></path>
<rect x="332" y="20" width="68" height="22"></rect>
<a xlink:href="reuse_source.svg"><text x="366" y="35">Source</text>
</a>
</g>
<path d="M400 31h10"></path>
<path d="M410 31h10"></path>
<g class="terminal">
<path d="M420 31h0"></path>
<path d="M544 31h0"></path>
<rect x="420" y="20" width="124" height="22" rx="10" ry="10"></rect>
<text x="482" y="35">"DESTINATION"</text>
</g>
<path d="M544 31h10"></path>
<path d="M554 31h10"></path>
<g class="non-terminal">
<path d="M564 31h0"></path>
<path d="M632 31h0"></path>
<rect x="564" y="20" width="68" height="22"></rect>
<a xlink:href="reuse_target.svg"><text x="598" y="35">Target</text>
</a>
</g>
</g>
<path d="M1256 31h20"></path>
<path d="M200 31a10 10 0 0 1 10 10v10a10 10 0 0 0 10 10"></path>
<g>
<path d="M220 61h0"></path>
<path d="M432 61h824"></path>
<g class="terminal">
<path d="M220 61h0"></path>
<path d="M344 61h0"></path>
<rect x="220" y="50" width="124" height="22" rx="10" ry="10"></rect>
<text x="282" y="65">"ALLOCATE ID"</text>
</g>
<path d="M344 61h10"></path>
<path d="M354 61h10"></path>
<g class="non-terminal">
<path d="M364 61h0"></path>
<path d="M432 61h0"></path>
<rect x="364" y="50" width="68" height="22"></rect>
<a xlink:href="reuse_source.svg"><text x="398" y="65">Source</text>
</a>
</g>
</g>
<path d="M1256 61a10 10 0 0 0 10 -10v-10a10 10 0 0 1 10 -10"></path>
<path d="M200 31a10 10 0 0 1 10 10v49a10 10 0 0 0 10 10"></path>
<g>
<path d="M220 100h0"></path>
<path d="M814 100h442"></path>
<g class="terminal">
<path d="M220 100h0"></path>
<path d="M312 100h0"></path>
<rect x="220" y="89" width="92" height="22" rx="10" ry="10"></rect>
<text x="266" y="104">"SEND ID"</text>
</g>
<path d="M312 100h10"></path>
<path d="M322 100h10"></path>
<g class="non-terminal">
<path d="M332 100h0"></path>
<path d="M400 100h0"></path>
<rect x="332" y="89" width="68" height="22"></rect>
<a xlink:href="reuse_source.svg"><text x="366" y="104">Source</text>
</a>
</g>
<path d="M400 100h10"></path>
<path d="M410 100h10"></path>
<g class="terminal">
<path d="M420 100h0"></path>
<path d="M504 100h0"></path>
<rect x="420" y="89" width="84" height="22" rx="10" ry="10"></rect>
<text x="462" y="104">"BUFFER"</text>
</g>
<path d="M504 100h10"></path>
<path d="M514 100h10"></path>
<g class="non-terminal">
<path d="M524 100h0"></path>
<path d="M592 100h0"></path>
<rect x="524" y="89" width="68" height="22"></rect>
<a xlink:href="reuse_target.svg"><text x="558" y="104">Target</text>
</a>
</g>
<path d="M592 100h10"></path>
<g>
<path d="M602 100h0"></path>
<path d="M814 100h0"></path>
<path d="M602 100a10 10 0 0 0 10 -10v0a10 10 0 0 1 10 -10"></path>
<g>
<path d="M622 80h172"></path>
</g>
<path d="M794 80a10 10 0 0 1 10 10v0a10 10 0 0 0 10 10"></path>
<path d="M602 100h20"></path>
<g>
<path d="M622 100h0"></path>
<path d="M794 100h0"></path>
<g class="terminal">
<path d="M622 100h0"></path>
<path d="M706 100h0"></path>
<rect x="622" y="89" width="84" height="22" rx="10" ry="10"></rect>
<text x="664" y="104">"LENGTH"</text>
</g>
<path d="M706 100h10"></path>
<path d="M716 100h10"></path>
<g class="non-terminal">
<path d="M726 100h0"></path>
<path d="M794 100h0"></path>
<rect x="726" y="89" width="68" height="22"></rect>
<a xlink:href="reuse_target.svg"><text x="760" y="104">Target</text>
</a>
</g>
</g>
<path d="M794 100h20"></path>
</g>
</g>
<path d="M1256 100a10 10 0 0 0 10 -10v-49a10 10 0 0 1 10 -10"></path>
<path d="M200 31a10 10 0 0 1 10 10v79a10 10 0 0 0 10 10"></path>
<g>
<path d="M220 130h0"></path>
<path d="M448 130h808"></path>
<g class="terminal">
<path d="M220 130h0"></path>
<path d="M360 130h0"></path>
<rect x="220" y="119" width="140" height="22" rx="10" ry="10"></rect>
<text x="290" y="134">"DEALLOCATE ID"</text>
</g>
<path d="M360 130h10"></path>
<path d="M370 130h10"></path>
<g class="non-terminal">
<path d="M380 130h0"></path>
<path d="M448 130h0"></path>
<rect x="380" y="119" width="68" height="22"></rect>
<a xlink:href="reuse_source.svg"><text x="414" y="134">Source</text>
</a>
</g>
</g>
<path d="M1256 130a10 10 0 0 0 10 -10v-79a10 10 0 0 1 10 -10"></path>
<path d="M200 31a10 10 0 0 1 10 10v109a10 10 0 0 0 10 10"></path>
<g>
<path d="M220 160h0"></path>
<path d="M1256 160h0"></path>
<g class="terminal">
<path d="M220 160h0"></path>
<path d="M336 160h0"></path>
<rect x="220" y="149" width="116" height="22" rx="10" ry="10"></rect>
<text x="278" y="164">"RECEIVE ID"</text>
</g>
<path d="M336 160h10"></path>
<path d="M346 160h10"></path>
<g class="non-terminal">
<path d="M356 160h0"></path>
<path d="M424 160h0"></path>
<rect x="356" y="149" width="68" height="22"></rect>
<a xlink:href="reuse_source.svg"><text x="390" y="164">Source</text>
</a>
</g>
<path d="M424 160h10"></path>
<path d="M434 160h10"></path>
<g class="terminal">
<path d="M444 160h0"></path>
<path d="M528 160h0"></path>
<rect x="444" y="149" width="84" height="22" rx="10" ry="10"></rect>
<text x="486" y="164">"BUFFER"</text>
</g>
<path d="M528 160h10"></path>
<path d="M538 160h10"></path>
<g class="non-terminal">
<path d="M548 160h0"></path>
<path d="M616 160h0"></path>
<rect x="548" y="149" width="68" height="22"></rect>
<a xlink:href="reuse_source.svg"><text x="582" y="164">Source</text>
</a>
</g>
<path d="M616 160h10"></path>
<path d="M626 160h10"></path>
<g class="terminal">
<path d="M636 160h0"></path>
<path d="M736 160h0"></path>
<rect x="636" y="149" width="100" height="22" rx="10" ry="10"></rect>
<text x="686" y="164">"DATAINFO"</text>
</g>
<path d="M736 160h10"></path>
<path d="M746 160h10"></path>
<g class="non-terminal">
<path d="M756 160h0"></path>
<path d="M824 160h0"></path>
<rect x="756" y="149" width="68" height="22"></rect>
<a xlink:href="reuse_target.svg"><text x="790" y="164">Target</text>
</a>
</g>
<path d="M824 160h10"></path>
<path d="M834 160h10"></path>
<g class="terminal">
<path d="M844 160h0"></path>
<path d="M960 160h0"></path>
<rect x="844" y="149" width="116" height="22" rx="10" ry="10"></rect>
<text x="902" y="164">"STATUSINFO"</text>
</g>
<path d="M960 160h10"></path>
<path d="M970 160h10"></path>
<g class="non-terminal">
<path d="M980 160h0"></path>
<path d="M1048 160h0"></path>
<rect x="980" y="149" width="68" height="22"></rect>
<a xlink:href="reuse_target.svg"><text x="1014" y="164">Target</text>
</a>
</g>
<path d="M1048 160h10"></path>
<path d="M1058 160h10"></path>
<g class="terminal">
<path d="M1068 160h0"></path>
<path d="M1168 160h0"></path>
<rect x="1068" y="149" width="100" height="22" rx="10" ry="10"></rect>
<text x="1118" y="164">"RECEIVED"</text>
</g>
<path d="M1168 160h10"></path>
<path d="M1178 160h10"></path>
<g class="non-terminal">
<path d="M1188 160h0"></path>
<path d="M1256 160h0"></path>
<rect x="1188" y="149" width="68" height="22"></rect>
<a xlink:href="reuse_target.svg"><text x="1222" y="164">Target</text>
</a>
</g>
</g>
<path d="M1256 160a10 10 0 0 0 10 -10v-109a10 10 0 0 1 10 -10"></path>
<path d="M200 31a10 10 0 0 1 10 10v139a10 10 0 0 0 10 10"></path>
<g>
<path d="M220 190h0"></path>
<path d="M416 190h840"></path>
<g class="terminal">
<path d="M220 190h0"></path>
<path d="M328 190h0"></path>
<rect x="220" y="179" width="108" height="22" rx="10" ry="10"></rect>
<text x="274" y="194">"ACCEPT ID"</text>
</g>
<path d="M328 190h10"></path>
<path d="M338 190h10"></path>
<g class="non-terminal">
<path d="M348 190h0"></path>
<path d="M416 190h0"></path>
<rect x="348" y="179" width="68" height="22"></rect>
<a xlink:href="reuse_source.svg"><text x="382" y="194">Source</text>
</a>
</g>
</g>
<path d="M1256 190a10 10 0 0 0 10 -10v-139a10 10 0 0 1 10 -10"></path>
</g>
</g>
<path d="M1276 31h10"></path>
<path d="M 1286 31 h 20 m -10 -10 v 20 m 10 -20 v 20"></path>
</g>
</svg>
