<svg xmlns="http://www.w3.org/2000/svg" xmlns:xlink="http://www.w3.org/1999/xlink" class="railroad-diagram" width="548" height="71" viewBox="0 0 548 71">
<defs>
<style type="text/css"><![CDATA[
path {
stroke-width: 3;
stroke: black;
fill: rgba(0,0,0,0);
}
text {
font: bold 14px monospace;
text-anchor: middle;
}
text.diagram-text {
font-size: 12px;
}
a {
fill: blue;
}
text.diagram-arrow {
font-size: 16px;
}
text.label {
text-anchor: start;
}
text.comment {
font: italic 12px monospace;
}
rect {
stroke-width: 3;
stroke: black;
fill: #BCBCBC;
}
path.diagram-text {
stroke-width: 3;
stroke: black;
fill: #BCBCBC;
cursor: help;
}
]]></style>
</defs>
<g transform="translate(.5 .5)">
<path d="M 20 30 v 20 m 10 -20 v 20 m -10 -10 h 20.5"></path>
<path d="M40 40h10"></path>
<g>
<path d="M50 40h0"></path>
<path d="M498 40h0"></path>
<g class="terminal">
<path d="M50 40h0"></path>
<path d="M142 40h0"></path>
<rect x="50" y="29" width="92" height="22" rx="10" ry="10"></rect>
<text x="96" y="44">"COMPUTE"</text>
</g>
<path d="M142 40h10"></path>
<g>
<path d="M152 40h0"></path>
<path d="M268 40h0"></path>
<path d="M152 40a10 10 0 0 0 10 -10v0a10 10 0 0 1 10 -10"></path>
<g>
<path d="M172 20h76"></path>
</g>
<path d="M248 20a10 10 0 0 1 10 10v0a10 10 0 0 0 10 10"></path>
<path d="M152 40h20"></path>
<g class="terminal">
<path d="M172 40h0"></path>
<path d="M248 40h0"></path>
<rect x="172" y="29" width="76" height="22" rx="10" ry="10"></rect>
<text x="210" y="44">"EXACT"</text>
</g>
<path d="M248 40h20"></path>
</g>
<path d="M268 40h10"></path>
<g class="non-terminal">
<path d="M278 40h0"></path>
<path d="M346 40h0"></path>
<rect x="278" y="29" width="68" height="22"></rect>
<a xlink:href="reuse_target.svg"><text x="312" y="44">Target</text>
</a>
</g>
<path d="M346 40h10"></path>
<path d="M356 40h10"></path>
<g class="terminal">
<path d="M366 40h0"></path>
<path d="M410 40h0"></path>
<rect x="366" y="29" width="44" height="22" rx="10" ry="10"></rect>
<text x="388" y="44">"="</text>
</g>
<path d="M410 40h10"></path>
<path d="M420 40h10"></path>
<g class="non-terminal">
<path d="M430 40h0"></path>
<path d="M498 40h0"></path>
<rect x="430" y="29" width="68" height="22"></rect>
<a xlink:href="reuse_source.svg"><text x="464" y="44">Source</text>
</a>
</g>
</g>
<path d="M498 40h10"></path>
<path d="M 508 40 h 20 m -10 -10 v 20 m 10 -20 v 20"></path>
</g>
</svg>
