<?xml version="1.0" encoding="UTF-8" standalone="no"?>
<!DOCTYPE svg PUBLIC "-//W3C//DTD SVG 1.1//EN"
 "http://www.w3.org/Graphics/SVG/1.1/DTD/svg11.dtd">
<!-- Generated by graphviz version 2.38.0 (20140413.2041)
 -->
<!-- Title: compute Pages: 1 -->
<svg width="138pt" height="404pt"
 viewBox="0.00 0.00 138.10 404.00" xmlns="http://www.w3.org/2000/svg" xmlns:xlink="http://www.w3.org/1999/xlink">
<g id="graph0" class="graph" transform="scale(1 1) rotate(0) translate(4 400)">
<title>compute</title>
<polygon fill="white" stroke="none" points="-4,4 -4,-400 134.098,-400 134.098,4 -4,4"/>
<!-- start -->
<g id="node1" class="node"><title>start</title>
<polygon fill="none" stroke="black" points="92.0488,-396 38.0488,-396 38.0488,-360 92.0488,-360 92.0488,-396"/>
<text text-anchor="middle" x="65.0488" y="-373.8" font-family="Times,serif" font-size="14.00">Start</text>
</g>
<!-- node532 -->
<g id="node6" class="node"><title>node532</title>
<ellipse fill="none" stroke="black" cx="65.0488" cy="-306" rx="65.0976" ry="18"/>
<text text-anchor="middle" x="65.0488" y="-301.8" font-family="Times,serif" font-size="14.00">&quot;COMPUTE&quot;</text>
</g>
<!-- start&#45;&gt;node532 -->
<g id="edge5" class="edge"><title>start&#45;&gt;node532</title>
<path fill="none" stroke="black" d="M65.0488,-359.697C65.0488,-351.983 65.0488,-342.712 65.0488,-334.112"/>
<polygon fill="black" stroke="black" points="68.5489,-334.104 65.0488,-324.104 61.5489,-334.104 68.5489,-334.104"/>
</g>
<!-- end -->
<g id="node2" class="node"><title>end</title>
<polygon fill="none" stroke="black" points="92.0488,-36 38.0488,-36 38.0488,-0 92.0488,-0 92.0488,-36"/>
<text text-anchor="middle" x="65.0488" y="-13.8" font-family="Times,serif" font-size="14.00">End</text>
</g>
<!-- node529 -->
<g id="node3" class="node"><title>node529</title>
<g id="a_node3"><a xlink:href="reuse_source.svg" xlink:title="&lt;u&gt;source&lt;/u&gt;">
<ellipse fill="none" stroke="black" cx="65.0488" cy="-90" rx="36.4761" ry="18"/>
<text text-anchor="start" x="46.7816" y="-86.8" font-family="Times,serif" text-decoration="underline" font-size="14.00" fill="blue">source</text>
</a>
</g>
</g>
<!-- node529&#45;&gt;end -->
<g id="edge1" class="edge"><title>node529&#45;&gt;end</title>
<path fill="none" stroke="black" d="M65.0488,-71.6966C65.0488,-63.9827 65.0488,-54.7125 65.0488,-46.1124"/>
<polygon fill="black" stroke="black" points="68.5489,-46.1043 65.0488,-36.1043 61.5489,-46.1044 68.5489,-46.1043"/>
</g>
<!-- node530 -->
<g id="node4" class="node"><title>node530</title>
<ellipse fill="none" stroke="black" cx="65.0488" cy="-162" rx="27" ry="18"/>
<text text-anchor="middle" x="65.0488" y="-157.8" font-family="Times,serif" font-size="14.00">&quot;=&quot;</text>
</g>
<!-- node530&#45;&gt;node529 -->
<g id="edge2" class="edge"><title>node530&#45;&gt;node529</title>
<path fill="none" stroke="black" d="M65.0488,-143.697C65.0488,-135.983 65.0488,-126.712 65.0488,-118.112"/>
<polygon fill="black" stroke="black" points="68.5489,-118.104 65.0488,-108.104 61.5489,-118.104 68.5489,-118.104"/>
</g>
<!-- node531 -->
<g id="node5" class="node"><title>node531</title>
<g id="a_node5"><a xlink:href="reuse_target.svg" xlink:title="&lt;u&gt;target&lt;/u&gt;">
<ellipse fill="none" stroke="black" cx="65.0488" cy="-234" rx="33.0411" ry="18"/>
<text text-anchor="start" x="49.1133" y="-230.8" font-family="Times,serif" text-decoration="underline" font-size="14.00" fill="blue">target</text>
</a>
</g>
</g>
<!-- node531&#45;&gt;node530 -->
<g id="edge3" class="edge"><title>node531&#45;&gt;node530</title>
<path fill="none" stroke="black" d="M65.0488,-215.697C65.0488,-207.983 65.0488,-198.712 65.0488,-190.112"/>
<polygon fill="black" stroke="black" points="68.5489,-190.104 65.0488,-180.104 61.5489,-190.104 68.5489,-190.104"/>
</g>
<!-- node532&#45;&gt;node531 -->
<g id="edge4" class="edge"><title>node532&#45;&gt;node531</title>
<path fill="none" stroke="black" d="M65.0488,-287.697C65.0488,-279.983 65.0488,-270.712 65.0488,-262.112"/>
<polygon fill="black" stroke="black" points="68.5489,-262.104 65.0488,-252.104 61.5489,-262.104 68.5489,-262.104"/>
</g>
</g>
</svg>
