<svg xmlns="http://www.w3.org/2000/svg" xmlns:xlink="http://www.w3.org/1999/xlink" class="railroad-diagram" width="1004" height="161" viewBox="0 0 1004 161">
<defs>
<style type="text/css"><![CDATA[
path {
stroke-width: 3;
stroke: black;
fill: rgba(0,0,0,0);
}
text {
font: bold 14px monospace;
text-anchor: middle;
}
text.diagram-text {
font-size: 12px;
}
a {
fill: blue;
}
text.diagram-arrow {
font-size: 16px;
}
text.label {
text-anchor: start;
}
text.comment {
font: italic 12px monospace;
}
rect {
stroke-width: 3;
stroke: black;
fill: #BCBCBC;
}
path.diagram-text {
stroke-width: 3;
stroke: black;
fill: #BCBCBC;
cursor: help;
}
]]></style>
</defs>
<g transform="translate(.5 .5)">
<path d="M 20 30 v 20 m 10 -20 v 20 m -10 -10 h 20.5"></path>
<path d="M40 40h10"></path>
<g>
<path d="M50 40h0"></path>
<path d="M954 40h0"></path>
<g class="terminal">
<path d="M50 40h0"></path>
<path d="M174 40h0"></path>
<rect x="50" y="29" width="124" height="22" rx="10" ry="10"></rect>
<text x="112" y="44">"CONCATENATE"</text>
</g>
<path d="M174 40h10"></path>
<path d="M184 40h10"></path>
<g class="non-terminal">
<path d="M194 40h0"></path>
<path d="M262 40h0"></path>
<rect x="194" y="29" width="68" height="22"></rect>
<a xlink:href="reuse_source.svg"><text x="228" y="44">Source</text>
</a>
</g>
<path d="M262 40h10"></path>
<path d="M272 40h10"></path>
<g>
<path d="M282 40h0"></path>
<path d="M370 40h0"></path>
<path d="M282 40h10"></path>
<g class="non-terminal">
<path d="M292 40h0"></path>
<path d="M360 40h0"></path>
<rect x="292" y="29" width="68" height="22"></rect>
<a xlink:href="reuse_source.svg"><text x="326" y="44">Source</text>
</a>
</g>
<path d="M360 40h10"></path>
<path d="M292 40a10 10 0 0 0 -10 10v0a10 10 0 0 0 10 10"></path>
<g>
<path d="M292 60h68"></path>
</g>
<path d="M360 60a10 10 0 0 0 10 -10v0a10 10 0 0 0 -10 -10"></path>
</g>
<path d="M370 40h10"></path>
<path d="M380 40h10"></path>
<g class="terminal">
<path d="M390 40h0"></path>
<path d="M458 40h0"></path>
<rect x="390" y="29" width="68" height="22" rx="10" ry="10"></rect>
<text x="424" y="44">"INTO"</text>
</g>
<path d="M458 40h10"></path>
<path d="M468 40h10"></path>
<g class="non-terminal">
<path d="M478 40h0"></path>
<path d="M546 40h0"></path>
<rect x="478" y="29" width="68" height="22"></rect>
<a xlink:href="reuse_target.svg"><text x="512" y="44">Target</text>
</a>
</g>
<path d="M546 40h10"></path>
<g>
<path d="M556 40h0"></path>
<path d="M954 40h0"></path>
<path d="M556 40a10 10 0 0 0 10 -10v0a10 10 0 0 1 10 -10"></path>
<g>
<path d="M576 20h358"></path>
</g>
<path d="M934 20a10 10 0 0 1 10 10v0a10 10 0 0 0 10 10"></path>
<path d="M556 40h20"></path>
<g>
<path d="M576 40h0"></path>
<path d="M934 40h0"></path>
<path d="M606 40h10"></path>
<g>
<path d="M616 40h0"></path>
<path d="M904 40h0"></path>
<g class="terminal">
<path d="M616 40h0"></path>
<path d="M668 40h0"></path>
<rect x="616" y="29" width="52" height="22" rx="10" ry="10"></rect>
<text x="642" y="44">"IN"</text>
</g>
<path d="M668 40h10"></path>
<g>
<path d="M678 40h0"></path>
<path d="M826 40h0"></path>
<path d="M678 40h20"></path>
<g class="terminal">
<path d="M698 40h0"></path>
<path d="M766 40h40"></path>
<rect x="698" y="29" width="68" height="22" rx="10" ry="10"></rect>
<text x="732" y="44">"BYTE"</text>
</g>
<path d="M806 40h20"></path>
<path d="M678 40a10 10 0 0 1 10 10v10a10 10 0 0 0 10 10"></path>
<g class="terminal">
<path d="M698 70h0"></path>
<path d="M806 70h0"></path>
<rect x="698" y="59" width="108" height="22" rx="10" ry="10"></rect>
<text x="752" y="74">"CHARACTER"</text>
</g>
<path d="M806 70a10 10 0 0 0 10 -10v-10a10 10 0 0 1 10 -10"></path>
</g>
<path d="M826 40h10"></path>
<g class="terminal">
<path d="M836 40h0"></path>
<path d="M904 40h0"></path>
<rect x="836" y="29" width="68" height="22" rx="10" ry="10"></rect>
<text x="870" y="44">"MODE"</text>
</g>
</g>
<path d="M904 40h10"></path>
<path d="M606 40v50a10 10 0 0 0 10 10"></path>
<g class="terminal">
<path d="M616 100h0"></path>
<path d="M788 100h116"></path>
<rect x="616" y="89" width="172" height="22" rx="10" ry="10"></rect>
<text x="702" y="104">"RESPECTING BLANKS"</text>
</g>
<path d="M904 100a10 10 0 0 0 10 -10v-50"></path>
<path d="M606 40v80a10 10 0 0 0 10 10"></path>
<g>
<path d="M616 130h0"></path>
<path d="M836 130h68"></path>
<g class="terminal">
<path d="M616 130h0"></path>
<path d="M748 130h0"></path>
<rect x="616" y="119" width="132" height="22" rx="10" ry="10"></rect>
<text x="682" y="134">"SEPARATED BY"</text>
</g>
<path d="M748 130h10"></path>
<path d="M758 130h10"></path>
<g class="non-terminal">
<path d="M768 130h0"></path>
<path d="M836 130h0"></path>
<rect x="768" y="119" width="68" height="22"></rect>
<a xlink:href="reuse_source.svg"><text x="802" y="134">Source</text>
</a>
</g>
</g>
<path d="M904 130a10 10 0 0 0 10 -10v-80"></path>
<g class="diagram-text">
<title>take one or more branches, once each, in any order</title>
<path d="M 606 30 h -26 a 4 4 0 0 0 -4 4 v 12 a 4 4 0 0 0 4 4 h 26 z" class="diagram-text"></path>
<text x="591" y="44" class="diagram-text">1+</text>
<path d="M 914 30 h 16 a 4 4 0 0 1 4 4 v 12 a 4 4 0 0 1 -4 4 h -16 z" class="diagram-text"></path>
<path d="M 921 38 a 4 4 0 1 0 6 -1 m 2.75 -1 h -4 v 4 m 0 -3 h 2" style="stroke-width: 1.75"></path>
</g>
</g>
<path d="M934 40h20"></path>
</g>
</g>
<path d="M954 40h10"></path>
<path d="M 964 40 h 20 m -10 -10 v 20 m 10 -20 v 20"></path>
</g>
</svg>
