<?xml version="1.0" encoding="UTF-8" standalone="no"?>
<!DOCTYPE svg PUBLIC "-//W3C//DTD SVG 1.1//EN"
 "http://www.w3.org/Graphics/SVG/1.1/DTD/svg11.dtd">
<!-- Generated by graphviz version 2.38.0 (20140413.2041)
 -->
<!-- Title: concatenate Pages: 1 -->
<svg width="509pt" height="836pt"
 viewBox="0.00 0.00 508.67 836.00" xmlns="http://www.w3.org/2000/svg" xmlns:xlink="http://www.w3.org/1999/xlink">
<g id="graph0" class="graph" transform="scale(1 1) rotate(0) translate(4 832)">
<title>concatenate</title>
<polygon fill="white" stroke="none" points="-4,4 -4,-832 504.673,-832 504.673,4 -4,4"/>
<!-- start -->
<g id="node1" class="node"><title>start</title>
<polygon fill="none" stroke="black" points="437.424,-828 383.424,-828 383.424,-792 437.424,-792 437.424,-828"/>
<text text-anchor="middle" x="410.424" y="-805.8" font-family="Times,serif" font-size="14.00">Start</text>
</g>
<!-- node263 -->
<g id="node13" class="node"><title>node263</title>
<ellipse fill="none" stroke="black" cx="410.424" cy="-738" rx="90.4997" ry="18"/>
<text text-anchor="middle" x="410.424" y="-733.8" font-family="Times,serif" font-size="14.00">&quot;CONCATENATE&quot;</text>
</g>
<!-- start&#45;&gt;node263 -->
<g id="edge20" class="edge"><title>start&#45;&gt;node263</title>
<path fill="none" stroke="black" d="M410.424,-791.697C410.424,-783.983 410.424,-774.712 410.424,-766.112"/>
<polygon fill="black" stroke="black" points="413.924,-766.104 410.424,-756.104 406.924,-766.104 413.924,-766.104"/>
</g>
<!-- end -->
<g id="node2" class="node"><title>end</title>
<polygon fill="none" stroke="black" points="316.424,-36 262.424,-36 262.424,-0 316.424,-0 316.424,-36"/>
<text text-anchor="middle" x="289.424" y="-13.8" font-family="Times,serif" font-size="14.00">End</text>
</g>
<!-- node253 -->
<g id="node3" class="node"><title>node253</title>
<g id="a_node3"><a xlink:href="reuse_source.svg" xlink:title="&lt;u&gt;source&lt;/u&gt;">
<ellipse fill="none" stroke="black" cx="243.424" cy="-90" rx="36.4761" ry="18"/>
<text text-anchor="start" x="225.156" y="-86.8" font-family="Times,serif" text-decoration="underline" font-size="14.00" fill="blue">source</text>
</a>
</g>
</g>
<!-- node253&#45;&gt;end -->
<g id="edge1" class="edge"><title>node253&#45;&gt;end</title>
<path fill="none" stroke="black" d="M254.093,-72.7646C259.563,-64.4396 266.356,-54.1037 272.518,-44.7253"/>
<polygon fill="black" stroke="black" points="275.604,-46.4031 278.171,-36.1239 269.754,-42.5589 275.604,-46.4031"/>
</g>
<!-- node254 -->
<g id="node4" class="node"><title>node254</title>
<ellipse fill="none" stroke="black" cx="216.424" cy="-162" rx="90.5592" ry="18"/>
<text text-anchor="middle" x="216.424" y="-157.8" font-family="Times,serif" font-size="14.00">&quot;SEPARATED BY&quot;</text>
</g>
<!-- node254&#45;&gt;node253 -->
<g id="edge2" class="edge"><title>node254&#45;&gt;node253</title>
<path fill="none" stroke="black" d="M223.098,-143.697C226.139,-135.813 229.806,-126.304 233.184,-117.546"/>
<polygon fill="black" stroke="black" points="236.493,-118.694 236.826,-108.104 229.962,-116.175 236.493,-118.694"/>
</g>
<!-- node255 -->
<g id="node5" class="node"><title>node255</title>
<ellipse fill="none" stroke="black" cx="118.424" cy="-234" rx="118.347" ry="18"/>
<text text-anchor="middle" x="118.424" y="-229.8" font-family="Times,serif" font-size="14.00">&quot;RESPECTING BLANKS&quot;</text>
</g>
<!-- node255&#45;&gt;end -->
<g id="edge4" class="edge"><title>node255&#45;&gt;end</title>
<path fill="none" stroke="black" d="M113.784,-215.725C109.731,-197.122 105.97,-167.091 116.424,-144 142.44,-86.5337 210.359,-50.2196 252.946,-32.3382"/>
<polygon fill="black" stroke="black" points="254.458,-35.5015 262.404,-28.4938 251.822,-29.0167 254.458,-35.5015"/>
</g>
<!-- node255&#45;&gt;node254 -->
<g id="edge3" class="edge"><title>node255&#45;&gt;node254</title>
<path fill="none" stroke="black" d="M142.147,-216.055C155,-206.874 171.049,-195.41 184.937,-185.49"/>
<polygon fill="black" stroke="black" points="187.154,-188.208 193.257,-179.547 183.086,-182.512 187.154,-188.208"/>
</g>
<!-- node256 -->
<g id="node6" class="node"><title>node256</title>
<ellipse fill="none" stroke="black" cx="257.424" cy="-306" rx="87.6318" ry="18"/>
<text text-anchor="middle" x="257.424" y="-301.8" font-family="Times,serif" font-size="14.00">&quot;IN BYTE MODE&quot;</text>
</g>
<!-- node256&#45;&gt;end -->
<g id="edge7" class="edge"><title>node256&#45;&gt;end</title>
<path fill="none" stroke="black" d="M268.401,-288.082C282.763,-264.84 307.186,-221.213 316.424,-180 326.939,-133.085 311.662,-77.6495 300.158,-45.587"/>
<polygon fill="black" stroke="black" points="303.37,-44.1829 296.593,-36.0388 296.812,-46.6314 303.37,-44.1829"/>
</g>
<!-- node256&#45;&gt;node254 -->
<g id="edge6" class="edge"><title>node256&#45;&gt;node254</title>
<path fill="none" stroke="black" d="M256.963,-287.856C256.05,-269.624 253.354,-240.145 245.424,-216 242.347,-206.633 237.62,-196.999 232.869,-188.557"/>
<polygon fill="black" stroke="black" points="235.877,-186.768 227.782,-179.934 229.848,-190.325 235.877,-186.768"/>
</g>
<!-- node256&#45;&gt;node255 -->
<g id="edge5" class="edge"><title>node256&#45;&gt;node255</title>
<path fill="none" stroke="black" d="M225.882,-289.116C206.485,-279.348 181.398,-266.714 160.342,-256.11"/>
<polygon fill="black" stroke="black" points="161.796,-252.923 151.29,-251.552 158.648,-259.175 161.796,-252.923"/>
</g>
<!-- node257 -->
<g id="node7" class="node"><title>node257</title>
<g id="a_node7"><a xlink:href="reuse_target.svg" xlink:title="&lt;u&gt;target&lt;/u&gt;">
<ellipse fill="none" stroke="black" cx="315.424" cy="-378" rx="33.0411" ry="18"/>
<text text-anchor="start" x="299.488" y="-374.8" font-family="Times,serif" text-decoration="underline" font-size="14.00" fill="blue">target</text>
</a>
</g>
</g>
<!-- node257&#45;&gt;end -->
<g id="edge11" class="edge"><title>node257&#45;&gt;end</title>
<path fill="none" stroke="black" d="M333.933,-362.615C361.83,-339.157 411.424,-289.755 411.424,-235 411.424,-235 411.424,-235 411.424,-161 411.424,-107.666 361.298,-64.362 325.306,-40.1428"/>
<polygon fill="black" stroke="black" points="326.788,-36.9308 316.499,-34.402 322.965,-42.795 326.788,-36.9308"/>
</g>
<!-- node257&#45;&gt;node254 -->
<g id="edge10" class="edge"><title>node257&#45;&gt;node254</title>
<path fill="none" stroke="black" d="M330.699,-361.826C339.498,-351.971 349.72,-338.328 354.424,-324 359.414,-308.798 360.91,-302.626 354.424,-288 334.094,-242.156 287.725,-205.971 254.342,-184.573"/>
<polygon fill="black" stroke="black" points="256.068,-181.524 245.732,-179.194 252.359,-187.461 256.068,-181.524"/>
</g>
<!-- node257&#45;&gt;node255 -->
<g id="edge9" class="edge"><title>node257&#45;&gt;node255</title>
<path fill="none" stroke="black" d="M283.227,-373.431C249.023,-368.098 195.189,-355.092 160.424,-324 142.096,-307.609 131.101,-281.52 124.987,-261.817"/>
<polygon fill="black" stroke="black" points="128.344,-260.828 122.222,-252.181 121.616,-262.759 128.344,-260.828"/>
</g>
<!-- node257&#45;&gt;node256 -->
<g id="edge8" class="edge"><title>node257&#45;&gt;node256</title>
<path fill="none" stroke="black" d="M302.263,-361.116C295.056,-352.418 285.967,-341.448 277.859,-331.663"/>
<polygon fill="black" stroke="black" points="280.417,-329.265 271.341,-323.797 275.027,-333.731 280.417,-329.265"/>
</g>
<!-- node258 -->
<g id="node8" class="node"><title>node258</title>
<ellipse fill="none" stroke="black" cx="315.424" cy="-450" rx="41.9431" ry="18"/>
<text text-anchor="middle" x="315.424" y="-445.8" font-family="Times,serif" font-size="14.00">&quot;INTO&quot;</text>
</g>
<!-- node258&#45;&gt;node257 -->
<g id="edge12" class="edge"><title>node258&#45;&gt;node257</title>
<path fill="none" stroke="black" d="M315.424,-431.697C315.424,-423.983 315.424,-414.712 315.424,-406.112"/>
<polygon fill="black" stroke="black" points="318.924,-406.104 315.424,-396.104 311.924,-406.104 318.924,-406.104"/>
</g>
<!-- node259 -->
<g id="node9" class="node"><title>node259</title>
<ellipse fill="none" stroke="black" cx="375.424" cy="-522" rx="42.879" ry="18"/>
<text text-anchor="middle" x="375.424" y="-517.8" font-family="Times,serif" font-size="14.00">Dummy</text>
</g>
<!-- node259&#45;&gt;node258 -->
<g id="edge15" class="edge"><title>node259&#45;&gt;node258</title>
<path fill="none" stroke="black" d="M361.508,-504.765C353.935,-495.93 344.421,-484.83 336.007,-475.014"/>
<polygon fill="black" stroke="black" points="338.43,-472.462 329.264,-467.147 333.115,-477.018 338.43,-472.462"/>
</g>
<!-- node260 -->
<g id="node10" class="node"><title>node260</title>
<g id="a_node10"><a xlink:href="reuse_source.svg" xlink:title="&lt;u&gt;source&lt;/u&gt;">
<ellipse fill="none" stroke="black" cx="411.424" cy="-450" rx="36.4761" ry="18"/>
<text text-anchor="start" x="393.156" y="-446.8" font-family="Times,serif" text-decoration="underline" font-size="14.00" fill="blue">source</text>
</a>
</g>
</g>
<!-- node259&#45;&gt;node260 -->
<g id="edge14" class="edge"><title>node259&#45;&gt;node260</title>
<path fill="none" stroke="black" d="M378.407,-503.697C381.902,-495.194 387.062,-484.802 392.352,-475.5"/>
<polygon fill="black" stroke="black" points="395.502,-477.051 397.628,-466.671 389.493,-473.459 395.502,-477.051"/>
</g>
<!-- node260&#45;&gt;node259 -->
<g id="edge13" class="edge"><title>node260&#45;&gt;node259</title>
<path fill="none" stroke="black" d="M408.514,-468.124C405.083,-476.5 400.016,-486.743 394.794,-495.975"/>
<polygon fill="black" stroke="black" points="391.671,-494.379 389.574,-504.765 397.69,-497.954 391.671,-494.379"/>
</g>
<!-- node261 -->
<g id="node11" class="node"><title>node261</title>
<g id="a_node11"><a xlink:href="reuse_source.svg" xlink:title="&lt;u&gt;source&lt;/u&gt;">
<ellipse fill="none" stroke="black" cx="410.424" cy="-594" rx="36.4761" ry="18"/>
<text text-anchor="start" x="392.156" y="-590.8" font-family="Times,serif" text-decoration="underline" font-size="14.00" fill="blue">source</text>
</a>
</g>
</g>
<!-- node261&#45;&gt;node259 -->
<g id="edge17" class="edge"><title>node261&#45;&gt;node259</title>
<path fill="none" stroke="black" d="M402.129,-576.411C398.048,-568.249 393.034,-558.22 388.456,-549.065"/>
<polygon fill="black" stroke="black" points="391.504,-547.335 383.902,-539.956 385.243,-550.466 391.504,-547.335"/>
</g>
<!-- node261&#45;&gt;node260 -->
<g id="edge16" class="edge"><title>node261&#45;&gt;node260</title>
<path fill="none" stroke="black" d="M417.313,-576.141C421.128,-565.884 425.482,-552.411 427.424,-540 429.897,-524.192 429.761,-519.828 427.424,-504 426.126,-495.212 423.68,-485.862 421.084,-477.5"/>
<polygon fill="black" stroke="black" points="424.371,-476.292 417.91,-467.896 417.725,-478.489 424.371,-476.292"/>
</g>
<!-- node262 -->
<g id="node12" class="node"><title>node262</title>
<g id="a_node12"><a xlink:href="reuse_source.svg" xlink:title="&lt;u&gt;source&lt;/u&gt;">
<ellipse fill="none" stroke="black" cx="410.424" cy="-666" rx="36.4761" ry="18"/>
<text text-anchor="start" x="392.156" y="-662.8" font-family="Times,serif" text-decoration="underline" font-size="14.00" fill="blue">source</text>
</a>
</g>
</g>
<!-- node262&#45;&gt;node261 -->
<g id="edge18" class="edge"><title>node262&#45;&gt;node261</title>
<path fill="none" stroke="black" d="M410.424,-647.697C410.424,-639.983 410.424,-630.712 410.424,-622.112"/>
<polygon fill="black" stroke="black" points="413.924,-622.104 410.424,-612.104 406.924,-622.104 413.924,-622.104"/>
</g>
<!-- node263&#45;&gt;node262 -->
<g id="edge19" class="edge"><title>node263&#45;&gt;node262</title>
<path fill="none" stroke="black" d="M410.424,-719.697C410.424,-711.983 410.424,-702.712 410.424,-694.112"/>
<polygon fill="black" stroke="black" points="413.924,-694.104 410.424,-684.104 406.924,-694.104 413.924,-694.104"/>
</g>
</g>
</svg>
