<svg xmlns="http://www.w3.org/2000/svg" xmlns:xlink="http://www.w3.org/1999/xlink" class="railroad-diagram" width="1250" height="80" viewBox="0 0 1250 80">
<defs>
<style type="text/css"><![CDATA[
path {
stroke-width: 3;
stroke: black;
fill: rgba(0,0,0,0);
}
text {
font: bold 14px monospace;
text-anchor: middle;
}
text.diagram-text {
font-size: 12px;
}
a {
fill: blue;
}
text.diagram-arrow {
font-size: 16px;
}
text.label {
text-anchor: start;
}
text.comment {
font: italic 12px monospace;
}
rect {
stroke-width: 3;
stroke: black;
fill: #BCBCBC;
}
path.diagram-text {
stroke-width: 3;
stroke: black;
fill: #BCBCBC;
cursor: help;
}
]]></style>
</defs>
<g transform="translate(.5 .5)">
<path d="M 20 30 v 20 m 10 -20 v 20 m -10 -10 h 20.5"></path>
<path d="M40 40h10"></path>
<g>
<path d="M50 40h0"></path>
<path d="M1200 40h0"></path>
<g class="terminal">
<path d="M50 40h0"></path>
<path d="M174 40h0"></path>
<rect x="50" y="29" width="124" height="22" rx="10" ry="10"></rect>
<text x="112" y="44">"CONCATENATE"</text>
</g>
<path d="M174 40h10"></path>
<path d="M184 40h10"></path>
<g class="non-terminal">
<path d="M194 40h0"></path>
<path d="M262 40h0"></path>
<rect x="194" y="29" width="68" height="22"></rect>
<a xlink:href="reuse_source.svg"><text x="228" y="44">Source</text>
</a>
</g>
<path d="M262 40h10"></path>
<path d="M272 40h10"></path>
<g>
<path d="M282 40h0"></path>
<path d="M370 40h0"></path>
<path d="M282 40h10"></path>
<g class="non-terminal">
<path d="M292 40h0"></path>
<path d="M360 40h0"></path>
<rect x="292" y="29" width="68" height="22"></rect>
<a xlink:href="reuse_source.svg"><text x="326" y="44">Source</text>
</a>
</g>
<path d="M360 40h10"></path>
<path d="M292 40a10 10 0 0 0 -10 10v0a10 10 0 0 0 10 10"></path>
<g>
<path d="M292 60h68"></path>
</g>
<path d="M360 60a10 10 0 0 0 10 -10v0a10 10 0 0 0 -10 -10"></path>
</g>
<path d="M370 40h10"></path>
<path d="M380 40h10"></path>
<g class="terminal">
<path d="M390 40h0"></path>
<path d="M458 40h0"></path>
<rect x="390" y="29" width="68" height="22" rx="10" ry="10"></rect>
<text x="424" y="44">"INTO"</text>
</g>
<path d="M458 40h10"></path>
<path d="M468 40h10"></path>
<g class="non-terminal">
<path d="M478 40h0"></path>
<path d="M546 40h0"></path>
<rect x="478" y="29" width="68" height="22"></rect>
<a xlink:href="reuse_target.svg"><text x="512" y="44">Target</text>
</a>
</g>
<path d="M546 40h10"></path>
<g>
<path d="M556 40h0"></path>
<path d="M728 40h0"></path>
<path d="M556 40a10 10 0 0 0 10 -10v0a10 10 0 0 1 10 -10"></path>
<g>
<path d="M576 20h132"></path>
</g>
<path d="M708 20a10 10 0 0 1 10 10v0a10 10 0 0 0 10 10"></path>
<path d="M556 40h20"></path>
<g class="terminal">
<path d="M576 40h0"></path>
<path d="M708 40h0"></path>
<rect x="576" y="29" width="132" height="22" rx="10" ry="10"></rect>
<text x="642" y="44">"IN BYTE MODE"</text>
</g>
<path d="M708 40h20"></path>
</g>
<g>
<path d="M728 40h0"></path>
<path d="M940 40h0"></path>
<path d="M728 40a10 10 0 0 0 10 -10v0a10 10 0 0 1 10 -10"></path>
<g>
<path d="M748 20h172"></path>
</g>
<path d="M920 20a10 10 0 0 1 10 10v0a10 10 0 0 0 10 10"></path>
<path d="M728 40h20"></path>
<g class="terminal">
<path d="M748 40h0"></path>
<path d="M920 40h0"></path>
<rect x="748" y="29" width="172" height="22" rx="10" ry="10"></rect>
<text x="834" y="44">"RESPECTING BLANKS"</text>
</g>
<path d="M920 40h20"></path>
</g>
<g>
<path d="M940 40h0"></path>
<path d="M1200 40h0"></path>
<path d="M940 40a10 10 0 0 0 10 -10v0a10 10 0 0 1 10 -10"></path>
<g>
<path d="M960 20h220"></path>
</g>
<path d="M1180 20a10 10 0 0 1 10 10v0a10 10 0 0 0 10 10"></path>
<path d="M940 40h20"></path>
<g>
<path d="M960 40h0"></path>
<path d="M1180 40h0"></path>
<g class="terminal">
<path d="M960 40h0"></path>
<path d="M1092 40h0"></path>
<rect x="960" y="29" width="132" height="22" rx="10" ry="10"></rect>
<text x="1026" y="44">"SEPARATED BY"</text>
</g>
<path d="M1092 40h10"></path>
<path d="M1102 40h10"></path>
<g class="non-terminal">
<path d="M1112 40h0"></path>
<path d="M1180 40h0"></path>
<rect x="1112" y="29" width="68" height="22"></rect>
<a xlink:href="reuse_source.svg"><text x="1146" y="44">Source</text>
</a>
</g>
</g>
<path d="M1180 40h20"></path>
</g>
</g>
<path d="M1200 40h10"></path>
<path d="M 1210 40 h 20 m -10 -10 v 20 m 10 -20 v 20"></path>
</g>
</svg>
