<svg xmlns="http://www.w3.org/2000/svg" xmlns:xlink="http://www.w3.org/1999/xlink" class="railroad-diagram" width="430" height="71" viewBox="0 0 430 71">
<defs>
<style type="text/css"><![CDATA[
path {
stroke-width: 3;
stroke: black;
fill: rgba(0,0,0,0);
}
text {
font: bold 14px monospace;
text-anchor: middle;
}
text.diagram-text {
font-size: 12px;
}
a {
fill: blue;
}
text.diagram-arrow {
font-size: 16px;
}
text.label {
text-anchor: start;
}
text.comment {
font: italic 12px monospace;
}
rect {
stroke-width: 3;
stroke: black;
fill: #BCBCBC;
}
path.diagram-text {
stroke-width: 3;
stroke: black;
fill: #BCBCBC;
cursor: help;
}
]]></style>
</defs>
<g transform="translate(.5 .5)">
<path d="M 20 30 v 20 m 10 -20 v 20 m -10 -10 h 20.5"></path>
<path d="M40 40h10"></path>
<g>
<path d="M50 40h0"></path>
<path d="M380 40h0"></path>
<g class="terminal">
<path d="M50 40h0"></path>
<path d="M150 40h0"></path>
<rect x="50" y="29" width="100" height="22" rx="10" ry="10"></rect>
<text x="100" y="44">"CONDENSE"</text>
</g>
<path d="M150 40h10"></path>
<path d="M160 40h10"></path>
<g class="non-terminal">
<path d="M170 40h0"></path>
<path d="M238 40h0"></path>
<rect x="170" y="29" width="68" height="22"></rect>
<a xlink:href="reuse_target.svg"><text x="204" y="44">Target</text>
</a>
</g>
<path d="M238 40h10"></path>
<g>
<path d="M248 40h0"></path>
<path d="M380 40h0"></path>
<path d="M248 40a10 10 0 0 0 10 -10v0a10 10 0 0 1 10 -10"></path>
<g>
<path d="M268 20h92"></path>
</g>
<path d="M360 20a10 10 0 0 1 10 10v0a10 10 0 0 0 10 10"></path>
<path d="M248 40h20"></path>
<g class="terminal">
<path d="M268 40h0"></path>
<path d="M360 40h0"></path>
<rect x="268" y="29" width="92" height="22" rx="10" ry="10"></rect>
<text x="314" y="44">"NO-GAPS"</text>
</g>
<path d="M360 40h20"></path>
</g>
</g>
<path d="M380 40h10"></path>
<path d="M 390 40 h 20 m -10 -10 v 20 m 10 -20 v 20"></path>
</g>
</svg>
