<?xml version="1.0" encoding="UTF-8" standalone="no"?>
<!DOCTYPE svg PUBLIC "-//W3C//DTD SVG 1.1//EN"
 "http://www.w3.org/Graphics/SVG/1.1/DTD/svg11.dtd">
<!-- Generated by graphviz version 2.38.0 (20140413.2041)
 -->
<!-- Title: condense Pages: 1 -->
<svg width="149pt" height="260pt"
 viewBox="0.00 0.00 148.81 260.00" xmlns="http://www.w3.org/2000/svg" xmlns:xlink="http://www.w3.org/1999/xlink">
<g id="graph0" class="graph" transform="scale(1 1) rotate(0) translate(4 256)">
<title>condense</title>
<polygon fill="white" stroke="none" points="-4,4 -4,-256 144.815,-256 144.815,4 -4,4"/>
<!-- start -->
<g id="node1" class="node"><title>start</title>
<polygon fill="none" stroke="black" points="97.4074,-252 43.4074,-252 43.4074,-216 97.4074,-216 97.4074,-252"/>
<text text-anchor="middle" x="70.4074" y="-229.8" font-family="Times,serif" font-size="14.00">Start</text>
</g>
<!-- node451 -->
<g id="node4" class="node"><title>node451</title>
<ellipse fill="none" stroke="black" cx="70.4074" cy="-162" rx="70.3149" ry="18"/>
<text text-anchor="middle" x="70.4074" y="-157.8" font-family="Times,serif" font-size="14.00">&quot;CONDENSE&quot;</text>
</g>
<!-- start&#45;&gt;node451 -->
<g id="edge3" class="edge"><title>start&#45;&gt;node451</title>
<path fill="none" stroke="black" d="M70.4074,-215.697C70.4074,-207.983 70.4074,-198.712 70.4074,-190.112"/>
<polygon fill="black" stroke="black" points="73.9075,-190.104 70.4074,-180.104 66.9075,-190.104 73.9075,-190.104"/>
</g>
<!-- end -->
<g id="node2" class="node"><title>end</title>
<polygon fill="none" stroke="black" points="97.4074,-36 43.4074,-36 43.4074,-0 97.4074,-0 97.4074,-36"/>
<text text-anchor="middle" x="70.4074" y="-13.8" font-family="Times,serif" font-size="14.00">End</text>
</g>
<!-- node450 -->
<g id="node3" class="node"><title>node450</title>
<g id="a_node3"><a xlink:href="reuse_target.svg" xlink:title="&lt;u&gt;target&lt;/u&gt;">
<ellipse fill="none" stroke="black" cx="70.4074" cy="-90" rx="33.0411" ry="18"/>
<text text-anchor="start" x="54.4719" y="-86.8" font-family="Times,serif" text-decoration="underline" font-size="14.00" fill="blue">target</text>
</a>
</g>
</g>
<!-- node450&#45;&gt;end -->
<g id="edge1" class="edge"><title>node450&#45;&gt;end</title>
<path fill="none" stroke="black" d="M70.4074,-71.6966C70.4074,-63.9827 70.4074,-54.7125 70.4074,-46.1124"/>
<polygon fill="black" stroke="black" points="73.9075,-46.1043 70.4074,-36.1043 66.9075,-46.1044 73.9075,-46.1043"/>
</g>
<!-- node451&#45;&gt;node450 -->
<g id="edge2" class="edge"><title>node451&#45;&gt;node450</title>
<path fill="none" stroke="black" d="M70.4074,-143.697C70.4074,-135.983 70.4074,-126.712 70.4074,-118.112"/>
<polygon fill="black" stroke="black" points="73.9075,-118.104 70.4074,-108.104 66.9075,-118.104 73.9075,-118.104"/>
</g>
</g>
</svg>
