<svg xmlns="http://www.w3.org/2000/svg" xmlns:xlink="http://www.w3.org/1999/xlink" class="railroad-diagram" width="780" height="131" viewBox="0 0 780 131">
<defs>
<style type="text/css"><![CDATA[
path {
stroke-width: 3;
stroke: black;
fill: rgba(0,0,0,0);
}
text {
font: bold 14px monospace;
text-anchor: middle;
}
text.diagram-text {
font-size: 12px;
}
a {
fill: blue;
}
text.diagram-arrow {
font-size: 16px;
}
text.label {
text-anchor: start;
}
text.comment {
font: italic 12px monospace;
}
rect {
stroke-width: 3;
stroke: black;
fill: #BCBCBC;
}
path.diagram-text {
stroke-width: 3;
stroke: black;
fill: #BCBCBC;
cursor: help;
}
]]></style>
</defs>
<g transform="translate(.5 .5)">
<path d="M 20 30 v 20 m 10 -20 v 20 m -10 -10 h 20.5"></path>
<path d="M40 40h10"></path>
<g>
<path d="M50 40h0"></path>
<path d="M730 40h0"></path>
<g>
<path d="M50 40h0"></path>
<path d="M198 40h0"></path>
<path d="M50 40h20"></path>
<g class="terminal">
<path d="M70 40h0"></path>
<path d="M170 40h8"></path>
<rect x="70" y="29" width="100" height="22" rx="10" ry="10"></rect>
<text x="120" y="44">"CONSTANT"</text>
</g>
<path d="M178 40h20"></path>
<path d="M50 40a10 10 0 0 1 10 10v10a10 10 0 0 0 10 10"></path>
<g class="terminal">
<path d="M70 70h0"></path>
<path d="M178 70h0"></path>
<rect x="70" y="59" width="108" height="22" rx="10" ry="10"></rect>
<text x="124" y="74">"CONSTANTS"</text>
</g>
<path d="M178 70a10 10 0 0 0 10 -10v-10a10 10 0 0 1 10 -10"></path>
</g>
<g>
<path d="M198 40h0"></path>
<path d="M730 40h0"></path>
<path d="M198 40h20"></path>
<g>
<path d="M218 40h0"></path>
<path d="M710 40h0"></path>
<g class="non-terminal">
<path d="M218 40h0"></path>
<path d="M390 40h0"></path>
<rect x="218" y="29" width="172" height="22"></rect>
<a xlink:href="reuse_namespacesimplename.svg"><text x="304" y="44">NamespaceSimpleName</text>
</a>
</g>
<path d="M390 40h10"></path>
<g>
<path d="M400 40h0"></path>
<path d="M548 40h0"></path>
<path d="M400 40a10 10 0 0 0 10 -10v0a10 10 0 0 1 10 -10"></path>
<g>
<path d="M420 20h108"></path>
</g>
<path d="M528 20a10 10 0 0 1 10 10v0a10 10 0 0 0 10 10"></path>
<path d="M400 40h20"></path>
<g class="non-terminal">
<path d="M420 40h0"></path>
<path d="M528 40h0"></path>
<rect x="420" y="29" width="108" height="22"></rect>
<a xlink:href="reuse_fieldlength.svg"><text x="474" y="44">FieldLength</text>
</a>
</g>
<path d="M528 40h20"></path>
</g>
<g>
<path d="M548 40h0"></path>
<path d="M640 40h0"></path>
<path d="M548 40a10 10 0 0 0 10 -10v0a10 10 0 0 1 10 -10"></path>
<g>
<path d="M568 20h52"></path>
</g>
<path d="M620 20a10 10 0 0 1 10 10v0a10 10 0 0 0 10 10"></path>
<path d="M548 40h20"></path>
<g class="non-terminal">
<path d="M568 40h0"></path>
<path d="M620 40h0"></path>
<rect x="568" y="29" width="52" height="22"></rect>
<a xlink:href="reuse_type.svg"><text x="594" y="44">Type</text>
</a>
</g>
<path d="M620 40h20"></path>
</g>
<path d="M640 40h10"></path>
<g class="non-terminal">
<path d="M650 40h0"></path>
<path d="M710 40h0"></path>
<rect x="650" y="29" width="60" height="22"></rect>
<a xlink:href="reuse_value.svg"><text x="680" y="44">Value</text>
</a>
</g>
</g>
<path d="M710 40h20"></path>
<path d="M198 40a10 10 0 0 1 10 10v10a10 10 0 0 0 10 10"></path>
<g>
<path d="M218 70h0"></path>
<path d="M588 70h122"></path>
<g>
<path d="M218 70h0"></path>
<path d="M334 70h0"></path>
<path d="M218 70h20"></path>
<g class="terminal">
<path d="M238 70h0"></path>
<path d="M314 70h0"></path>
<rect x="238" y="59" width="76" height="22" rx="10" ry="10"></rect>
<text x="276" y="74">"BEGIN"</text>
</g>
<path d="M314 70h20"></path>
<path d="M218 70a10 10 0 0 1 10 10v10a10 10 0 0 0 10 10"></path>
<g class="terminal">
<path d="M238 100h0"></path>
<path d="M298 100h16"></path>
<rect x="238" y="89" width="60" height="22" rx="10" ry="10"></rect>
<text x="268" y="104">"END"</text>
</g>
<path d="M314 100a10 10 0 0 0 10 -10v-10a10 10 0 0 1 10 -10"></path>
</g>
<path d="M334 70h10"></path>
<g class="terminal">
<path d="M344 70h0"></path>
<path d="M396 70h0"></path>
<rect x="344" y="59" width="52" height="22" rx="10" ry="10"></rect>
<text x="370" y="74">"OF"</text>
</g>
<path d="M396 70h10"></path>
<path d="M406 70h10"></path>
<g class="non-terminal">
<path d="M416 70h0"></path>
<path d="M588 70h0"></path>
<rect x="416" y="59" width="172" height="22"></rect>
<a xlink:href="reuse_namespacesimplename.svg"><text x="502" y="74">NamespaceSimpleName</text>
</a>
</g>
</g>
<path d="M710 70a10 10 0 0 0 10 -10v-10a10 10 0 0 1 10 -10"></path>
</g>
</g>
<path d="M730 40h10"></path>
<path d="M 740 40 h 20 m -10 -10 v 20 m 10 -20 v 20"></path>
</g>
</svg>
