<?xml version="1.0" encoding="UTF-8" standalone="no"?>
<!DOCTYPE svg PUBLIC "-//W3C//DTD SVG 1.1//EN"
 "http://www.w3.org/Graphics/SVG/1.1/DTD/svg11.dtd">
<!-- Generated by graphviz version 2.38.0 (20140413.2041)
 -->
<!-- Title: constant Pages: 1 -->
<svg width="284pt" height="188pt"
 viewBox="0.00 0.00 283.58 188.00" xmlns="http://www.w3.org/2000/svg" xmlns:xlink="http://www.w3.org/1999/xlink">
<g id="graph0" class="graph" transform="scale(1 1) rotate(0) translate(4 184)">
<title>constant</title>
<polygon fill="white" stroke="none" points="-4,4 -4,-184 279.583,-184 279.583,4 -4,4"/>
<!-- start -->
<g id="node1" class="node"><title>start</title>
<polygon fill="none" stroke="blue" points="155.734,-180 101.734,-180 101.734,-144 155.734,-144 155.734,-180"/>
<text text-anchor="middle" x="128.734" y="-157.8" font-family="Times,serif" font-size="14.00">Start</text>
</g>
<!-- node122 -->
<g id="node3" class="node"><title>node122</title>
<g id="a_node3"><a xlink:href="field.svg" xlink:title="&lt;u&gt;field&lt;/u&gt;">
<ellipse fill="none" stroke="black" cx="28.7338" cy="-90" rx="28.9696" ry="18"/>
<text text-anchor="start" x="15.9056" y="-86.8" font-family="Times,serif" text-decoration="underline" font-size="14.00" fill="blue">field</text>
</a>
</g>
</g>
<!-- start&#45;&gt;node122 -->
<g id="edge4" class="edge"><title>start&#45;&gt;node122</title>
<path fill="none" stroke="black" d="M104.271,-143.876C89.5771,-133.59 70.8607,-120.489 55.7348,-109.901"/>
<polygon fill="black" stroke="black" points="57.5009,-106.865 47.3014,-103.997 53.4866,-112.599 57.5009,-106.865"/>
</g>
<!-- node123 -->
<g id="node4" class="node"><title>node123</title>
<ellipse fill="none" stroke="black" cx="128.734" cy="-90" rx="53.342" ry="18"/>
<text text-anchor="middle" x="128.734" y="-85.8" font-family="Times,serif" font-size="14.00">(&#39;.*&#39;)|(`.*`)</text>
</g>
<!-- start&#45;&gt;node123 -->
<g id="edge5" class="edge"><title>start&#45;&gt;node123</title>
<path fill="none" stroke="black" d="M128.734,-143.697C128.734,-135.983 128.734,-126.712 128.734,-118.112"/>
<polygon fill="black" stroke="black" points="132.234,-118.104 128.734,-108.104 125.234,-118.104 132.234,-118.104"/>
</g>
<!-- node124 -->
<g id="node5" class="node"><title>node124</title>
<g id="a_node5"><a xlink:href="integer.svg" xlink:title="&lt;u&gt;integer&lt;/u&gt;">
<ellipse fill="none" stroke="black" cx="237.734" cy="-90" rx="37.6986" ry="18"/>
<text text-anchor="start" x="218.298" y="-86.8" font-family="Times,serif" text-decoration="underline" font-size="14.00" fill="blue">integer</text>
</a>
</g>
</g>
<!-- start&#45;&gt;node124 -->
<g id="edge6" class="edge"><title>start&#45;&gt;node124</title>
<path fill="none" stroke="black" d="M155.398,-143.876C171.139,-133.767 191.114,-120.939 207.448,-110.45"/>
<polygon fill="black" stroke="black" points="209.574,-113.244 216.097,-104.895 205.792,-107.354 209.574,-113.244"/>
</g>
<!-- end -->
<g id="node2" class="node"><title>end</title>
<polygon fill="none" stroke="blue" points="155.734,-36 101.734,-36 101.734,-0 155.734,-0 155.734,-36"/>
<text text-anchor="middle" x="128.734" y="-13.8" font-family="Times,serif" font-size="14.00">End</text>
</g>
<!-- node122&#45;&gt;end -->
<g id="edge1" class="edge"><title>node122&#45;&gt;end</title>
<path fill="none" stroke="black" d="M47.5431,-75.8335C61.1004,-66.3434 79.7516,-53.2875 95.7591,-42.0823"/>
<polygon fill="black" stroke="black" points="98.1458,-44.6839 104.331,-36.082 94.1316,-38.9493 98.1458,-44.6839"/>
</g>
<!-- node123&#45;&gt;end -->
<g id="edge2" class="edge"><title>node123&#45;&gt;end</title>
<path fill="none" stroke="black" d="M128.734,-71.6966C128.734,-63.9827 128.734,-54.7125 128.734,-46.1124"/>
<polygon fill="black" stroke="black" points="132.234,-46.1043 128.734,-36.1043 125.234,-46.1044 132.234,-46.1043"/>
</g>
<!-- node124&#45;&gt;end -->
<g id="edge3" class="edge"><title>node124&#45;&gt;end</title>
<path fill="none" stroke="black" d="M216.199,-75.1703C201.3,-65.6021 181.136,-52.6528 163.923,-41.5988"/>
<polygon fill="black" stroke="black" points="165.541,-38.4778 155.235,-36.019 161.758,-44.3678 165.541,-38.4778"/>
</g>
</g>
</svg>
