<svg xmlns="http://www.w3.org/2000/svg" xmlns:xlink="http://www.w3.org/1999/xlink" class="railroad-diagram" width="676" height="131" viewBox="0 0 676 131">
<defs>
<style type="text/css"><![CDATA[
path {
stroke-width: 3;
stroke: black;
fill: rgba(0,0,0,0);
}
text {
font: bold 14px monospace;
text-anchor: middle;
}
text.diagram-text {
font-size: 12px;
}
a {
fill: blue;
}
text.diagram-arrow {
font-size: 16px;
}
text.label {
text-anchor: start;
}
text.comment {
font: italic 12px monospace;
}
rect {
stroke-width: 3;
stroke: black;
fill: #BCBCBC;
}
path.diagram-text {
stroke-width: 3;
stroke: black;
fill: #BCBCBC;
cursor: help;
}
]]></style>
</defs>
<g transform="translate(.5 .5)">
<path d="M 20 30 v 20 m 10 -20 v 20 m -10 -10 h 20.5"></path>
<path d="M40 40h10"></path>
<g>
<path d="M50 40h0"></path>
<path d="M626 40h0"></path>
<g>
<path d="M50 40h0"></path>
<path d="M198 40h0"></path>
<path d="M50 40h20"></path>
<g class="terminal">
<path d="M70 40h4"></path>
<path d="M174 40h4"></path>
<rect x="74" y="29" width="100" height="22" rx="10" ry="10"></rect>
<text x="124" y="44">"CONSTANT"</text>
</g>
<path d="M178 40h20"></path>
<path d="M50 40a10 10 0 0 1 10 10v10a10 10 0 0 0 10 10"></path>
<g class="terminal">
<path d="M70 70h0"></path>
<path d="M178 70h0"></path>
<rect x="70" y="59" width="108" height="22" rx="10" ry="10"></rect>
<text x="124" y="74">"CONSTANTS"</text>
</g>
<path d="M178 70a10 10 0 0 0 10 -10v-10a10 10 0 0 1 10 -10"></path>
</g>
<g>
<path d="M198 40h0"></path>
<path d="M626 40h0"></path>
<path d="M198 40h20"></path>
<g>
<path d="M218 40h0"></path>
<path d="M606 40h0"></path>
<g class="terminal">
<path d="M218 40h0"></path>
<path d="M278 40h0"></path>
<rect x="218" y="29" width="60" height="22" rx="10" ry="10"></rect>
<text x="248" y="44">^\w+$</text>
</g>
<path d="M278 40h10"></path>
<g>
<path d="M288 40h0"></path>
<path d="M444 40h0"></path>
<path d="M288 40a10 10 0 0 0 10 -10v0a10 10 0 0 1 10 -10"></path>
<g>
<path d="M308 20h116"></path>
</g>
<path d="M424 20a10 10 0 0 1 10 10v0a10 10 0 0 0 10 10"></path>
<path d="M288 40h20"></path>
<g class="non-terminal">
<path d="M308 40h0"></path>
<path d="M424 40h0"></path>
<rect x="308" y="29" width="116" height="22"></rect>
<a xlink:href="reuse_field_length.svg"><text x="366" y="44">field&#95;length</text>
</a>
</g>
<path d="M424 40h20"></path>
</g>
<g>
<path d="M444 40h0"></path>
<path d="M536 40h0"></path>
<path d="M444 40a10 10 0 0 0 10 -10v0a10 10 0 0 1 10 -10"></path>
<g>
<path d="M464 20h52"></path>
</g>
<path d="M516 20a10 10 0 0 1 10 10v0a10 10 0 0 0 10 10"></path>
<path d="M444 40h20"></path>
<g class="non-terminal">
<path d="M464 40h0"></path>
<path d="M516 40h0"></path>
<rect x="464" y="29" width="52" height="22"></rect>
<a xlink:href="reuse_type.svg"><text x="490" y="44">type</text>
</a>
</g>
<path d="M516 40h20"></path>
</g>
<path d="M536 40h10"></path>
<g class="non-terminal">
<path d="M546 40h0"></path>
<path d="M606 40h0"></path>
<rect x="546" y="29" width="60" height="22"></rect>
<a xlink:href="reuse_value.svg"><text x="576" y="44">value</text>
</a>
</g>
</g>
<path d="M606 40h20"></path>
<path d="M198 40a10 10 0 0 1 10 10v10a10 10 0 0 0 10 10"></path>
<g>
<path d="M218 70h89"></path>
<path d="M517 70h89"></path>
<g>
<path d="M307 70h0"></path>
<path d="M447 70h0"></path>
<path d="M307 70h20"></path>
<g class="terminal">
<path d="M327 70h0"></path>
<path d="M427 70h0"></path>
<rect x="327" y="59" width="100" height="22" rx="10" ry="10"></rect>
<text x="377" y="74">"BEGIN OF"</text>
</g>
<path d="M427 70h20"></path>
<path d="M307 70a10 10 0 0 1 10 10v10a10 10 0 0 0 10 10"></path>
<g class="terminal">
<path d="M327 100h8"></path>
<path d="M419 100h8"></path>
<rect x="335" y="89" width="84" height="22" rx="10" ry="10"></rect>
<text x="377" y="104">"END OF"</text>
</g>
<path d="M427 100a10 10 0 0 0 10 -10v-10a10 10 0 0 1 10 -10"></path>
</g>
<path d="M447 70h10"></path>
<g class="terminal">
<path d="M457 70h0"></path>
<path d="M517 70h0"></path>
<rect x="457" y="59" width="60" height="22" rx="10" ry="10"></rect>
<text x="487" y="74">^\w+$</text>
</g>
</g>
<path d="M606 70a10 10 0 0 0 10 -10v-10a10 10 0 0 1 10 -10"></path>
</g>
</g>
<path d="M626 40h10"></path>
<path d="M 636 40 h 20 m -10 -10 v 20 m 10 -20 v 20"></path>
</g>
</svg>
