<svg xmlns="http://www.w3.org/2000/svg" xmlns:xlink="http://www.w3.org/1999/xlink" class="railroad-diagram" width="668" height="131" viewBox="0 0 668 131">
<defs>
<style type="text/css"><![CDATA[
path {
stroke-width: 3;
stroke: black;
fill: rgba(0,0,0,0);
}
text {
font: bold 14px monospace;
text-anchor: middle;
}
text.diagram-text {
font-size: 12px;
}
a {
fill: blue;
}
text.diagram-arrow {
font-size: 16px;
}
text.label {
text-anchor: start;
}
text.comment {
font: italic 12px monospace;
}
rect {
stroke-width: 3;
stroke: black;
fill: #BCBCBC;
}
path.diagram-text {
stroke-width: 3;
stroke: black;
fill: #BCBCBC;
cursor: help;
}
]]></style>
</defs>
<g transform="translate(.5 .5)">
<path d="M 20 30 v 20 m 10 -20 v 20 m -10 -10 h 20.5"></path>
<path d="M40 40h10"></path>
<g>
<path d="M50 40h0"></path>
<path d="M618 40h0"></path>
<g>
<path d="M50 40h0"></path>
<path d="M198 40h0"></path>
<path d="M50 40h20"></path>
<g class="terminal">
<path d="M70 40h0"></path>
<path d="M170 40h8"></path>
<rect x="70" y="29" width="100" height="22" rx="10" ry="10"></rect>
<text x="120" y="44">"CONSTANT"</text>
</g>
<path d="M178 40h20"></path>
<path d="M50 40a10 10 0 0 1 10 10v10a10 10 0 0 0 10 10"></path>
<g class="terminal">
<path d="M70 70h0"></path>
<path d="M178 70h0"></path>
<rect x="70" y="59" width="108" height="22" rx="10" ry="10"></rect>
<text x="124" y="74">"CONSTANTS"</text>
</g>
<path d="M178 70a10 10 0 0 0 10 -10v-10a10 10 0 0 1 10 -10"></path>
</g>
<g>
<path d="M198 40h0"></path>
<path d="M618 40h0"></path>
<path d="M198 40h20"></path>
<g>
<path d="M218 40h0"></path>
<path d="M598 40h0"></path>
<g class="terminal">
<path d="M218 40h0"></path>
<path d="M278 40h0"></path>
<rect x="218" y="29" width="60" height="22" rx="10" ry="10"></rect>
<text x="248" y="44">^\w+$</text>
</g>
<path d="M278 40h10"></path>
<g>
<path d="M288 40h0"></path>
<path d="M436 40h0"></path>
<path d="M288 40a10 10 0 0 0 10 -10v0a10 10 0 0 1 10 -10"></path>
<g>
<path d="M308 20h108"></path>
</g>
<path d="M416 20a10 10 0 0 1 10 10v0a10 10 0 0 0 10 10"></path>
<path d="M288 40h20"></path>
<g class="non-terminal">
<path d="M308 40h0"></path>
<path d="M416 40h0"></path>
<rect x="308" y="29" width="108" height="22"></rect>
<a xlink:href="reuse_fieldlength.svg"><text x="362" y="44">FieldLength</text>
</a>
</g>
<path d="M416 40h20"></path>
</g>
<g>
<path d="M436 40h0"></path>
<path d="M528 40h0"></path>
<path d="M436 40a10 10 0 0 0 10 -10v0a10 10 0 0 1 10 -10"></path>
<g>
<path d="M456 20h52"></path>
</g>
<path d="M508 20a10 10 0 0 1 10 10v0a10 10 0 0 0 10 10"></path>
<path d="M436 40h20"></path>
<g class="non-terminal">
<path d="M456 40h0"></path>
<path d="M508 40h0"></path>
<rect x="456" y="29" width="52" height="22"></rect>
<a xlink:href="reuse_type.svg"><text x="482" y="44">Type</text>
</a>
</g>
<path d="M508 40h20"></path>
</g>
<path d="M528 40h10"></path>
<g class="non-terminal">
<path d="M538 40h0"></path>
<path d="M598 40h0"></path>
<rect x="538" y="29" width="60" height="22"></rect>
<a xlink:href="reuse_value.svg"><text x="568" y="44">Value</text>
</a>
</g>
</g>
<path d="M598 40h20"></path>
<path d="M198 40a10 10 0 0 1 10 10v10a10 10 0 0 0 10 10"></path>
<g>
<path d="M218 70h0"></path>
<path d="M428 70h170"></path>
<g>
<path d="M218 70h0"></path>
<path d="M358 70h0"></path>
<path d="M218 70h20"></path>
<g class="terminal">
<path d="M238 70h0"></path>
<path d="M338 70h0"></path>
<rect x="238" y="59" width="100" height="22" rx="10" ry="10"></rect>
<text x="288" y="74">"BEGIN OF"</text>
</g>
<path d="M338 70h20"></path>
<path d="M218 70a10 10 0 0 1 10 10v10a10 10 0 0 0 10 10"></path>
<g class="terminal">
<path d="M238 100h0"></path>
<path d="M322 100h16"></path>
<rect x="238" y="89" width="84" height="22" rx="10" ry="10"></rect>
<text x="280" y="104">"END OF"</text>
</g>
<path d="M338 100a10 10 0 0 0 10 -10v-10a10 10 0 0 1 10 -10"></path>
</g>
<path d="M358 70h10"></path>
<g class="terminal">
<path d="M368 70h0"></path>
<path d="M428 70h0"></path>
<rect x="368" y="59" width="60" height="22" rx="10" ry="10"></rect>
<text x="398" y="74">^\w+$</text>
</g>
</g>
<path d="M598 70a10 10 0 0 0 10 -10v-10a10 10 0 0 1 10 -10"></path>
</g>
</g>
<path d="M618 40h10"></path>
<path d="M 628 40 h 20 m -10 -10 v 20 m 10 -20 v 20"></path>
</g>
</svg>
