<svg xmlns="http://www.w3.org/2000/svg" xmlns:xlink="http://www.w3.org/1999/xlink" class="railroad-diagram" width="726" height="92" viewBox="0 0 726 92">
<defs>
<style type="text/css"><![CDATA[
path {
stroke-width: 3;
stroke: black;
fill: rgba(0,0,0,0);
}
text {
font: bold 14px monospace;
text-anchor: middle;
}
text.diagram-text {
font-size: 12px;
}
a {
fill: blue;
}
text.diagram-arrow {
font-size: 16px;
}
text.label {
text-anchor: start;
}
text.comment {
font: italic 12px monospace;
}
rect {
stroke-width: 3;
stroke: black;
fill: #BCBCBC;
}
path.diagram-text {
stroke-width: 3;
stroke: black;
fill: #BCBCBC;
cursor: help;
}
]]></style>
</defs>
<g transform="translate(.5 .5)">
<path d="M 20 21 v 20 m 10 -20 v 20 m -10 -10 h 20.5"></path>
<path d="M40 31h10"></path>
<g>
<path d="M50 31h0"></path>
<path d="M676 31h0"></path>
<g class="terminal">
<path d="M50 31h0"></path>
<path d="M150 31h0"></path>
<rect x="50" y="20" width="100" height="22" rx="10" ry="10"></rect>
<text x="100" y="35">"CONTROLS"</text>
</g>
<path d="M150 31h10"></path>
<path d="M160 31h10"></path>
<g class="non-terminal">
<path d="M170 31h0"></path>
<path d="M238 31h0"></path>
<rect x="170" y="20" width="68" height="22"></rect>
<a xlink:href="reuse_target.svg"><text x="204" y="35">Target</text>
</a>
</g>
<path d="M238 31h10"></path>
<path d="M248 31h10"></path>
<g>
<path d="M258 31h0"></path>
<path d="M676 31h0"></path>
<g class="terminal">
<path d="M258 31h0"></path>
<path d="M326 31h0"></path>
<rect x="258" y="20" width="68" height="22" rx="10" ry="10"></rect>
<text x="292" y="35">"TYPE"</text>
</g>
<path d="M326 31h10"></path>
<g>
<path d="M336 31h0"></path>
<path d="M676 31h0"></path>
<path d="M336 31h20"></path>
<g>
<path d="M356 31h0"></path>
<path d="M656 31h0"></path>
<g class="terminal">
<path d="M356 31h0"></path>
<path d="M568 31h0"></path>
<rect x="356" y="20" width="212" height="22" rx="10" ry="10"></rect>
<text x="462" y="35">"TABLEVIEW USING SCREEN"</text>
</g>
<path d="M568 31h10"></path>
<path d="M578 31h10"></path>
<g class="non-terminal">
<path d="M588 31h0"></path>
<path d="M656 31h0"></path>
<rect x="588" y="20" width="68" height="22"></rect>
<a xlink:href="reuse_source.svg"><text x="622" y="35">Source</text>
</a>
</g>
</g>
<path d="M656 31h20"></path>
<path d="M336 31a10 10 0 0 1 10 10v10a10 10 0 0 0 10 10"></path>
<g class="terminal">
<path d="M356 61h0"></path>
<path d="M456 61h200"></path>
<rect x="356" y="50" width="100" height="22" rx="10" ry="10"></rect>
<text x="406" y="65">"TABSTRIP"</text>
</g>
<path d="M656 61a10 10 0 0 0 10 -10v-10a10 10 0 0 1 10 -10"></path>
</g>
</g>
</g>
<path d="M676 31h10"></path>
<path d="M 686 31 h 20 m -10 -10 v 20 m 10 -20 v 20"></path>
</g>
</svg>
