<?xml version="1.0" encoding="UTF-8" standalone="no"?>
<!DOCTYPE svg PUBLIC "-//W3C//DTD SVG 1.1//EN"
 "http://www.w3.org/Graphics/SVG/1.1/DTD/svg11.dtd">
<!-- Generated by graphviz version 2.38.0 (20140413.2041)
 -->
<!-- Title: continue Pages: 1 -->
<svg width="145pt" height="188pt"
 viewBox="0.00 0.00 144.51 188.00" xmlns="http://www.w3.org/2000/svg" xmlns:xlink="http://www.w3.org/1999/xlink">
<g id="graph0" class="graph" transform="scale(1 1) rotate(0) translate(4 184)">
<title>continue</title>
<polygon fill="white" stroke="none" points="-4,4 -4,-184 140.508,-184 140.508,4 -4,4"/>
<!-- start -->
<g id="node1" class="node"><title>start</title>
<polygon fill="none" stroke="black" points="95.2539,-180 41.2539,-180 41.2539,-144 95.2539,-144 95.2539,-180"/>
<text text-anchor="middle" x="68.2539" y="-157.8" font-family="Times,serif" font-size="14.00">Start</text>
</g>
<!-- node372 -->
<g id="node3" class="node"><title>node372</title>
<ellipse fill="none" stroke="black" cx="68.2539" cy="-90" rx="68.0087" ry="18"/>
<text text-anchor="middle" x="68.2539" y="-85.8" font-family="Times,serif" font-size="14.00">&quot;CONTINUE&quot;</text>
</g>
<!-- start&#45;&gt;node372 -->
<g id="edge2" class="edge"><title>start&#45;&gt;node372</title>
<path fill="none" stroke="black" d="M68.2539,-143.697C68.2539,-135.983 68.2539,-126.712 68.2539,-118.112"/>
<polygon fill="black" stroke="black" points="71.754,-118.104 68.2539,-108.104 64.754,-118.104 71.754,-118.104"/>
</g>
<!-- end -->
<g id="node2" class="node"><title>end</title>
<polygon fill="none" stroke="black" points="95.2539,-36 41.2539,-36 41.2539,-0 95.2539,-0 95.2539,-36"/>
<text text-anchor="middle" x="68.2539" y="-13.8" font-family="Times,serif" font-size="14.00">End</text>
</g>
<!-- node372&#45;&gt;end -->
<g id="edge1" class="edge"><title>node372&#45;&gt;end</title>
<path fill="none" stroke="black" d="M68.2539,-71.6966C68.2539,-63.9827 68.2539,-54.7125 68.2539,-46.1124"/>
<polygon fill="black" stroke="black" points="71.754,-46.1043 68.2539,-36.1043 64.754,-46.1044 71.754,-46.1043"/>
</g>
</g>
</svg>
