<svg xmlns="http://www.w3.org/2000/svg" xmlns:xlink="http://www.w3.org/1999/xlink" class="railroad-diagram" width="1418" height="169" viewBox="0 0 1418 169">
<defs>
<style type="text/css"><![CDATA[
path {
stroke-width: 3;
stroke: black;
fill: rgba(0,0,0,0);
}
text {
font: bold 14px monospace;
text-anchor: middle;
}
text.diagram-text {
font-size: 12px;
}
a {
fill: blue;
}
text.diagram-arrow {
font-size: 16px;
}
text.label {
text-anchor: start;
}
text.comment {
font: italic 12px monospace;
}
rect {
stroke-width: 3;
stroke: black;
fill: #BCBCBC;
}
path.diagram-text {
stroke-width: 3;
stroke: black;
fill: #BCBCBC;
cursor: help;
}
]]></style>
</defs>
<g transform="translate(.5 .5)">
<path d="M 20 38 v 20 m 10 -20 v 20 m -10 -10 h 20.5"></path>
<path d="M40 48h10"></path>
<g>
<path d="M50 48h0"></path>
<path d="M1368 48h0"></path>
<g class="terminal">
<path d="M50 48h0"></path>
<path d="M142 48h0"></path>
<rect x="50" y="37" width="92" height="22" rx="10" ry="10"></rect>
<text x="96" y="52">"CONVERT"</text>
</g>
<path d="M142 48h10"></path>
<g>
<path d="M152 48h0"></path>
<path d="M1368 48h0"></path>
<path d="M152 48h20"></path>
<g>
<path d="M172 48h0"></path>
<path d="M1348 48h0"></path>
<g class="terminal">
<path d="M172 48h0"></path>
<path d="M288 48h0"></path>
<rect x="172" y="37" width="116" height="22" rx="10" ry="10"></rect>
<text x="230" y="52">"TIME STAMP"</text>
</g>
<path d="M288 48h10"></path>
<path d="M298 48h10"></path>
<g class="non-terminal">
<path d="M308 48h0"></path>
<path d="M376 48h0"></path>
<rect x="308" y="37" width="68" height="22"></rect>
<a xlink:href="reuse_source.svg"><text x="342" y="52">Source</text>
</a>
</g>
<path d="M376 48h10"></path>
<path d="M386 48h10"></path>
<g class="terminal">
<path d="M396 48h0"></path>
<path d="M504 48h0"></path>
<rect x="396" y="37" width="108" height="22" rx="10" ry="10"></rect>
<text x="450" y="52">"TIME ZONE"</text>
</g>
<path d="M504 48h10"></path>
<path d="M514 48h10"></path>
<g class="non-terminal">
<path d="M524 48h0"></path>
<path d="M592 48h0"></path>
<rect x="524" y="37" width="68" height="22"></rect>
<a xlink:href="reuse_source.svg"><text x="558" y="52">Source</text>
</a>
</g>
<path d="M592 48h10"></path>
<path d="M602 48h10"></path>
<g class="terminal">
<path d="M612 48h0"></path>
<path d="M720 48h0"></path>
<rect x="612" y="37" width="108" height="22" rx="10" ry="10"></rect>
<text x="666" y="52">"INTO DATE"</text>
</g>
<path d="M720 48h10"></path>
<path d="M730 48h10"></path>
<g class="non-terminal">
<path d="M740 48h0"></path>
<path d="M808 48h0"></path>
<rect x="740" y="37" width="68" height="22"></rect>
<a xlink:href="reuse_target.svg"><text x="774" y="52">Target</text>
</a>
</g>
<path d="M808 48h10"></path>
<g>
<path d="M818 48h0"></path>
<path d="M1348 48h0"></path>
<path d="M818 48a10 10 0 0 0 10 -10v-8a10 10 0 0 1 10 -10"></path>
<g>
<path d="M838 20h490"></path>
</g>
<path d="M1328 20a10 10 0 0 1 10 10v8a10 10 0 0 0 10 10"></path>
<path d="M818 48h20"></path>
<g>
<path d="M838 48h0"></path>
<path d="M1328 48h0"></path>
<g>
<path d="M838 48h0"></path>
<path d="M994 48h0"></path>
<g class="terminal">
<path d="M838 48h0"></path>
<path d="M906 48h0"></path>
<rect x="838" y="37" width="68" height="22" rx="10" ry="10"></rect>
<text x="872" y="52">"TIME"</text>
</g>
<path d="M906 48h10"></path>
<path d="M916 48h10"></path>
<g class="non-terminal">
<path d="M926 48h0"></path>
<path d="M994 48h0"></path>
<rect x="926" y="37" width="68" height="22"></rect>
<a xlink:href="reuse_target.svg"><text x="960" y="52">Target</text>
</a>
</g>
</g>
<path d="M994 48h10"></path>
<g>
<path d="M1004 48h0"></path>
<path d="M1328 48h0"></path>
<path d="M1004 48a10 10 0 0 0 10 -10v0a10 10 0 0 1 10 -10"></path>
<g>
<path d="M1024 28h284"></path>
</g>
<path d="M1308 28a10 10 0 0 1 10 10v0a10 10 0 0 0 10 10"></path>
<path d="M1004 48h20"></path>
<g>
<path d="M1024 48h0"></path>
<path d="M1308 48h0"></path>
<g class="terminal">
<path d="M1024 48h0"></path>
<path d="M1220 48h0"></path>
<rect x="1024" y="37" width="196" height="22" rx="10" ry="10"></rect>
<text x="1122" y="52">"DAYLIGHT SAVING TIME"</text>
</g>
<path d="M1220 48h10"></path>
<path d="M1230 48h10"></path>
<g class="non-terminal">
<path d="M1240 48h0"></path>
<path d="M1308 48h0"></path>
<rect x="1240" y="37" width="68" height="22"></rect>
<a xlink:href="reuse_target.svg"><text x="1274" y="52">Target</text>
</a>
</g>
</g>
<path d="M1308 48h20"></path>
</g>
</g>
<path d="M1328 48h20"></path>
</g>
</g>
<path d="M1348 48h20"></path>
<path d="M152 48a10 10 0 0 1 10 10v10a10 10 0 0 0 10 10"></path>
<g>
<path d="M172 78h0"></path>
<path d="M756 78h592"></path>
<g>
<path d="M172 78h0"></path>
<path d="M398 78h0"></path>
<path d="M202 78h10"></path>
<g>
<path d="M212 78h0"></path>
<path d="M368 78h0"></path>
<g class="terminal">
<path d="M212 78h0"></path>
<path d="M280 78h0"></path>
<rect x="212" y="67" width="68" height="22" rx="10" ry="10"></rect>
<text x="246" y="82">"DATE"</text>
</g>
<path d="M280 78h10"></path>
<path d="M290 78h10"></path>
<g class="non-terminal">
<path d="M300 78h0"></path>
<path d="M368 78h0"></path>
<rect x="300" y="67" width="68" height="22"></rect>
<a xlink:href="reuse_source.svg"><text x="334" y="82">Source</text>
</a>
</g>
</g>
<path d="M368 78h10"></path>
<path d="M202 78v20a10 10 0 0 0 10 10"></path>
<g>
<path d="M212 108h0"></path>
<path d="M368 108h0"></path>
<g class="terminal">
<path d="M212 108h0"></path>
<path d="M280 108h0"></path>
<rect x="212" y="97" width="68" height="22" rx="10" ry="10"></rect>
<text x="246" y="112">"TIME"</text>
</g>
<path d="M280 108h10"></path>
<path d="M290 108h10"></path>
<g class="non-terminal">
<path d="M300 108h0"></path>
<path d="M368 108h0"></path>
<rect x="300" y="97" width="68" height="22"></rect>
<a xlink:href="reuse_source.svg"><text x="334" y="112">Source</text>
</a>
</g>
</g>
<path d="M368 108a10 10 0 0 0 10 -10v-20"></path>
<g class="diagram-text">
<title>take one or more branches, once each, in any order</title>
<path d="M 202 68 h -26 a 4 4 0 0 0 -4 4 v 12 a 4 4 0 0 0 4 4 h 26 z" class="diagram-text"></path>
<text x="187" y="82" class="diagram-text">1+</text>
<path d="M 378 68 h 16 a 4 4 0 0 1 4 4 v 12 a 4 4 0 0 1 -4 4 h -16 z" class="diagram-text"></path>
<path d="M 385 76 a 4 4 0 1 0 6 -1 m 2.75 -1 h -4 v 4 m 0 -3 h 2" style="stroke-width: 1.75"></path>
</g>
</g>
<path d="M398 78h10"></path>
<path d="M408 78h10"></path>
<g>
<path d="M418 78h0"></path>
<path d="M756 78h0"></path>
<path d="M448 78h10"></path>
<g>
<path d="M458 78h0"></path>
<path d="M702 78h24"></path>
<g class="terminal">
<path d="M458 78h0"></path>
<path d="M614 78h0"></path>
<rect x="458" y="67" width="156" height="22" rx="10" ry="10"></rect>
<text x="536" y="82">"INTO TIME STAMP"</text>
</g>
<path d="M614 78h10"></path>
<path d="M624 78h10"></path>
<g class="non-terminal">
<path d="M634 78h0"></path>
<path d="M702 78h0"></path>
<rect x="634" y="67" width="68" height="22"></rect>
<a xlink:href="reuse_target.svg"><text x="668" y="82">Target</text>
</a>
</g>
</g>
<path d="M726 78h10"></path>
<path d="M448 78v20a10 10 0 0 0 10 10"></path>
<g>
<path d="M458 108h0"></path>
<path d="M654 108h72"></path>
<g class="terminal">
<path d="M458 108h0"></path>
<path d="M566 108h0"></path>
<rect x="458" y="97" width="108" height="22" rx="10" ry="10"></rect>
<text x="512" y="112">"TIME ZONE"</text>
</g>
<path d="M566 108h10"></path>
<path d="M576 108h10"></path>
<g class="non-terminal">
<path d="M586 108h0"></path>
<path d="M654 108h0"></path>
<rect x="586" y="97" width="68" height="22"></rect>
<a xlink:href="reuse_source.svg"><text x="620" y="112">Source</text>
</a>
</g>
</g>
<path d="M726 108a10 10 0 0 0 10 -10v-20"></path>
<path d="M448 78v50a10 10 0 0 0 10 10"></path>
<g>
<path d="M458 138h0"></path>
<path d="M726 138h0"></path>
<g class="terminal">
<path d="M458 138h0"></path>
<path d="M638 138h0"></path>
<rect x="458" y="127" width="180" height="22" rx="10" ry="10"></rect>
<text x="548" y="142">"INTO INVERTED-DATE"</text>
</g>
<path d="M638 138h10"></path>
<path d="M648 138h10"></path>
<g class="non-terminal">
<path d="M658 138h0"></path>
<path d="M726 138h0"></path>
<rect x="658" y="127" width="68" height="22"></rect>
<a xlink:href="reuse_target.svg"><text x="692" y="142">Target</text>
</a>
</g>
</g>
<path d="M726 138a10 10 0 0 0 10 -10v-50"></path>
<g class="diagram-text">
<title>take one or more branches, once each, in any order</title>
<path d="M 448 68 h -26 a 4 4 0 0 0 -4 4 v 12 a 4 4 0 0 0 4 4 h 26 z" class="diagram-text"></path>
<text x="433" y="82" class="diagram-text">1+</text>
<path d="M 736 68 h 16 a 4 4 0 0 1 4 4 v 12 a 4 4 0 0 1 -4 4 h -16 z" class="diagram-text"></path>
<path d="M 743 76 a 4 4 0 1 0 6 -1 m 2.75 -1 h -4 v 4 m 0 -3 h 2" style="stroke-width: 1.75"></path>
</g>
</g>
</g>
<path d="M1348 78a10 10 0 0 0 10 -10v-10a10 10 0 0 1 10 -10"></path>
</g>
</g>
<path d="M1368 48h10"></path>
<path d="M 1378 48 h 20 m -10 -10 v 20 m 10 -20 v 20"></path>
</g>
</svg>
