<svg xmlns="http://www.w3.org/2000/svg" xmlns:xlink="http://www.w3.org/1999/xlink" class="railroad-diagram" width="850" height="302" viewBox="0 0 850 302">
<defs>
<style type="text/css"><![CDATA[
path {
stroke-width: 3;
stroke: black;
fill: rgba(0,0,0,0);
}
text {
font: bold 14px monospace;
text-anchor: middle;
}
text.diagram-text {
font-size: 12px;
}
a {
fill: blue;
}
text.diagram-arrow {
font-size: 16px;
}
text.label {
text-anchor: start;
}
text.comment {
font: italic 12px monospace;
}
rect {
stroke-width: 3;
stroke: black;
fill: #BCBCBC;
}
path.diagram-text {
stroke-width: 3;
stroke: black;
fill: #BCBCBC;
cursor: help;
}
]]></style>
</defs>
<g transform="translate(.5 .5)">
<path d="M 20 21 v 20 m 10 -20 v 20 m -10 -10 h 20.5"></path>
<path d="M40 31h10"></path>
<g>
<path d="M50 31h0"></path>
<path d="M800 31h0"></path>
<g class="terminal">
<path d="M50 31h0"></path>
<path d="M142 31h0"></path>
<rect x="50" y="20" width="92" height="22" rx="10" ry="10"></rect>
<text x="96" y="35">"CONVERT"</text>
</g>
<path d="M142 31h10"></path>
<g>
<path d="M152 31h0"></path>
<path d="M800 31h0"></path>
<path d="M152 31h20"></path>
<g>
<path d="M172 31h0"></path>
<path d="M780 31h0"></path>
<g class="terminal">
<path d="M172 31h0"></path>
<path d="M288 31h0"></path>
<rect x="172" y="20" width="116" height="22" rx="10" ry="10"></rect>
<text x="230" y="35">"TIME STAMP"</text>
</g>
<path d="M288 31h10"></path>
<path d="M298 31h10"></path>
<g class="non-terminal">
<path d="M308 31h0"></path>
<path d="M376 31h0"></path>
<rect x="308" y="20" width="68" height="22"></rect>
<a xlink:href="reuse_source.svg"><text x="342" y="35">Source</text>
</a>
</g>
<path d="M376 31h10"></path>
<path d="M386 31h10"></path>
<g>
<path d="M396 31h0"></path>
<path d="M780 31h0"></path>
<path d="M426 31h10"></path>
<g>
<path d="M436 31h0"></path>
<path d="M632 31h118"></path>
<g class="terminal">
<path d="M436 31h0"></path>
<path d="M544 31h0"></path>
<rect x="436" y="20" width="108" height="22" rx="10" ry="10"></rect>
<text x="490" y="35">"TIME ZONE"</text>
</g>
<path d="M544 31h10"></path>
<path d="M554 31h10"></path>
<g class="non-terminal">
<path d="M564 31h0"></path>
<path d="M632 31h0"></path>
<rect x="564" y="20" width="68" height="22"></rect>
<a xlink:href="reuse_source.svg"><text x="598" y="35">Source</text>
</a>
</g>
</g>
<path d="M750 31h10"></path>
<path d="M426 31v20a10 10 0 0 0 10 10"></path>
<g>
<path d="M436 61h0"></path>
<path d="M750 61h0"></path>
<g class="terminal">
<path d="M436 61h0"></path>
<path d="M504 61h0"></path>
<rect x="436" y="50" width="68" height="22" rx="10" ry="10"></rect>
<text x="470" y="65">"INTO"</text>
</g>
<path d="M504 61h10"></path>
<path d="M514 61h10"></path>
<g>
<path d="M524 61h0"></path>
<path d="M750 61h0"></path>
<path d="M554 61h10"></path>
<g>
<path d="M564 61h0"></path>
<path d="M720 61h0"></path>
<g class="terminal">
<path d="M564 61h0"></path>
<path d="M632 61h0"></path>
<rect x="564" y="50" width="68" height="22" rx="10" ry="10"></rect>
<text x="598" y="65">"TIME"</text>
</g>
<path d="M632 61h10"></path>
<path d="M642 61h10"></path>
<g class="non-terminal">
<path d="M652 61h0"></path>
<path d="M720 61h0"></path>
<rect x="652" y="50" width="68" height="22"></rect>
<a xlink:href="reuse_target.svg"><text x="686" y="65">Target</text>
</a>
</g>
</g>
<path d="M720 61h10"></path>
<path d="M554 61v20a10 10 0 0 0 10 10"></path>
<g>
<path d="M564 91h0"></path>
<path d="M720 91h0"></path>
<g class="terminal">
<path d="M564 91h0"></path>
<path d="M632 91h0"></path>
<rect x="564" y="80" width="68" height="22" rx="10" ry="10"></rect>
<text x="598" y="95">"DATE"</text>
</g>
<path d="M632 91h10"></path>
<path d="M642 91h10"></path>
<g class="non-terminal">
<path d="M652 91h0"></path>
<path d="M720 91h0"></path>
<rect x="652" y="80" width="68" height="22"></rect>
<a xlink:href="reuse_target.svg"><text x="686" y="95">Target</text>
</a>
</g>
</g>
<path d="M720 91a10 10 0 0 0 10 -10v-20"></path>
<g class="diagram-text">
<title>take one or more branches, once each, in any order</title>
<path d="M 554 51 h -26 a 4 4 0 0 0 -4 4 v 12 a 4 4 0 0 0 4 4 h 26 z" class="diagram-text"></path>
<text x="539" y="65" class="diagram-text">1+</text>
<path d="M 730 51 h 16 a 4 4 0 0 1 4 4 v 12 a 4 4 0 0 1 -4 4 h -16 z" class="diagram-text"></path>
<path d="M 737 59 a 4 4 0 1 0 6 -1 m 2.75 -1 h -4 v 4 m 0 -3 h 2" style="stroke-width: 1.75"></path>
</g>
</g>
</g>
<path d="M750 61a10 10 0 0 0 10 -10v-20"></path>
<path d="M426 31v80a10 10 0 0 0 10 10"></path>
<g>
<path d="M436 121h0"></path>
<path d="M720 121h30"></path>
<g class="terminal">
<path d="M436 121h0"></path>
<path d="M632 121h0"></path>
<rect x="436" y="110" width="196" height="22" rx="10" ry="10"></rect>
<text x="534" y="125">"DAYLIGHT SAVING TIME"</text>
</g>
<path d="M632 121h10"></path>
<path d="M642 121h10"></path>
<g class="non-terminal">
<path d="M652 121h0"></path>
<path d="M720 121h0"></path>
<rect x="652" y="110" width="68" height="22"></rect>
<a xlink:href="reuse_source.svg"><text x="686" y="125">Source</text>
</a>
</g>
</g>
<path d="M750 121a10 10 0 0 0 10 -10v-80"></path>
<g class="diagram-text">
<title>take one or more branches, once each, in any order</title>
<path d="M 426 21 h -26 a 4 4 0 0 0 -4 4 v 12 a 4 4 0 0 0 4 4 h 26 z" class="diagram-text"></path>
<text x="411" y="35" class="diagram-text">1+</text>
<path d="M 760 21 h 16 a 4 4 0 0 1 4 4 v 12 a 4 4 0 0 1 -4 4 h -16 z" class="diagram-text"></path>
<path d="M 767 29 a 4 4 0 1 0 6 -1 m 2.75 -1 h -4 v 4 m 0 -3 h 2" style="stroke-width: 1.75"></path>
</g>
</g>
</g>
<path d="M780 31h20"></path>
<path d="M152 31a10 10 0 0 1 10 10v100a10 10 0 0 0 10 10"></path>
<g>
<path d="M172 151h0"></path>
<path d="M772 151h8"></path>
<g>
<path d="M172 151h0"></path>
<path d="M398 151h0"></path>
<path d="M202 151h10"></path>
<g>
<path d="M212 151h0"></path>
<path d="M368 151h0"></path>
<g class="terminal">
<path d="M212 151h0"></path>
<path d="M280 151h0"></path>
<rect x="212" y="140" width="68" height="22" rx="10" ry="10"></rect>
<text x="246" y="155">"DATE"</text>
</g>
<path d="M280 151h10"></path>
<path d="M290 151h10"></path>
<g class="non-terminal">
<path d="M300 151h0"></path>
<path d="M368 151h0"></path>
<rect x="300" y="140" width="68" height="22"></rect>
<a xlink:href="reuse_source.svg"><text x="334" y="155">Source</text>
</a>
</g>
</g>
<path d="M368 151h10"></path>
<path d="M202 151v20a10 10 0 0 0 10 10"></path>
<g>
<path d="M212 181h0"></path>
<path d="M368 181h0"></path>
<g class="terminal">
<path d="M212 181h0"></path>
<path d="M280 181h0"></path>
<rect x="212" y="170" width="68" height="22" rx="10" ry="10"></rect>
<text x="246" y="185">"TIME"</text>
</g>
<path d="M280 181h10"></path>
<path d="M290 181h10"></path>
<g class="non-terminal">
<path d="M300 181h0"></path>
<path d="M368 181h0"></path>
<rect x="300" y="170" width="68" height="22"></rect>
<a xlink:href="reuse_source.svg"><text x="334" y="185">Source</text>
</a>
</g>
</g>
<path d="M368 181a10 10 0 0 0 10 -10v-20"></path>
<g class="diagram-text">
<title>take one or more branches, once each, in any order</title>
<path d="M 202 141 h -26 a 4 4 0 0 0 -4 4 v 12 a 4 4 0 0 0 4 4 h 26 z" class="diagram-text"></path>
<text x="187" y="155" class="diagram-text">1+</text>
<path d="M 378 141 h 16 a 4 4 0 0 1 4 4 v 12 a 4 4 0 0 1 -4 4 h -16 z" class="diagram-text"></path>
<path d="M 385 149 a 4 4 0 1 0 6 -1 m 2.75 -1 h -4 v 4 m 0 -3 h 2" style="stroke-width: 1.75"></path>
</g>
</g>
<path d="M398 151h10"></path>
<path d="M408 151h10"></path>
<g>
<path d="M418 151h0"></path>
<path d="M772 151h0"></path>
<path d="M448 151h10"></path>
<g>
<path d="M458 151h0"></path>
<path d="M742 151h0"></path>
<g class="terminal">
<path d="M458 151h0"></path>
<path d="M654 151h0"></path>
<rect x="458" y="140" width="196" height="22" rx="10" ry="10"></rect>
<text x="556" y="155">"DAYLIGHT SAVING TIME"</text>
</g>
<path d="M654 151h10"></path>
<path d="M664 151h10"></path>
<g class="non-terminal">
<path d="M674 151h0"></path>
<path d="M742 151h0"></path>
<rect x="674" y="140" width="68" height="22"></rect>
<a xlink:href="reuse_source.svg"><text x="708" y="155">Source</text>
</a>
</g>
</g>
<path d="M742 151h10"></path>
<path d="M448 151v20a10 10 0 0 0 10 10"></path>
<g>
<path d="M458 181h0"></path>
<path d="M702 181h40"></path>
<g class="terminal">
<path d="M458 181h0"></path>
<path d="M614 181h0"></path>
<rect x="458" y="170" width="156" height="22" rx="10" ry="10"></rect>
<text x="536" y="185">"INTO TIME STAMP"</text>
</g>
<path d="M614 181h10"></path>
<path d="M624 181h10"></path>
<g class="non-terminal">
<path d="M634 181h0"></path>
<path d="M702 181h0"></path>
<rect x="634" y="170" width="68" height="22"></rect>
<a xlink:href="reuse_target.svg"><text x="668" y="185">Target</text>
</a>
</g>
</g>
<path d="M742 181a10 10 0 0 0 10 -10v-20"></path>
<path d="M448 151v50a10 10 0 0 0 10 10"></path>
<g>
<path d="M458 211h0"></path>
<path d="M654 211h88"></path>
<g class="terminal">
<path d="M458 211h0"></path>
<path d="M566 211h0"></path>
<rect x="458" y="200" width="108" height="22" rx="10" ry="10"></rect>
<text x="512" y="215">"TIME ZONE"</text>
</g>
<path d="M566 211h10"></path>
<path d="M576 211h10"></path>
<g class="non-terminal">
<path d="M586 211h0"></path>
<path d="M654 211h0"></path>
<rect x="586" y="200" width="68" height="22"></rect>
<a xlink:href="reuse_source.svg"><text x="620" y="215">Source</text>
</a>
</g>
</g>
<path d="M742 211a10 10 0 0 0 10 -10v-50"></path>
<path d="M448 151v80a10 10 0 0 0 10 10"></path>
<g>
<path d="M458 241h0"></path>
<path d="M726 241h16"></path>
<g class="terminal">
<path d="M458 241h0"></path>
<path d="M638 241h0"></path>
<rect x="458" y="230" width="180" height="22" rx="10" ry="10"></rect>
<text x="548" y="245">"INTO INVERTED-DATE"</text>
</g>
<path d="M638 241h10"></path>
<path d="M648 241h10"></path>
<g class="non-terminal">
<path d="M658 241h0"></path>
<path d="M726 241h0"></path>
<rect x="658" y="230" width="68" height="22"></rect>
<a xlink:href="reuse_target.svg"><text x="692" y="245">Target</text>
</a>
</g>
</g>
<path d="M742 241a10 10 0 0 0 10 -10v-80"></path>
<g class="diagram-text">
<title>take one or more branches, once each, in any order</title>
<path d="M 448 141 h -26 a 4 4 0 0 0 -4 4 v 12 a 4 4 0 0 0 4 4 h 26 z" class="diagram-text"></path>
<text x="433" y="155" class="diagram-text">1+</text>
<path d="M 752 141 h 16 a 4 4 0 0 1 4 4 v 12 a 4 4 0 0 1 -4 4 h -16 z" class="diagram-text"></path>
<path d="M 759 149 a 4 4 0 1 0 6 -1 m 2.75 -1 h -4 v 4 m 0 -3 h 2" style="stroke-width: 1.75"></path>
</g>
</g>
</g>
<path d="M780 151a10 10 0 0 0 10 -10v-100a10 10 0 0 1 10 -10"></path>
<path d="M152 31a10 10 0 0 1 10 10v220a10 10 0 0 0 10 10"></path>
<g>
<path d="M172 271h0"></path>
<path d="M616 271h164"></path>
<g class="terminal">
<path d="M172 271h0"></path>
<path d="M312 271h0"></path>
<rect x="172" y="260" width="140" height="22" rx="10" ry="10"></rect>
<text x="242" y="275">"INVERTED-DATE"</text>
</g>
<path d="M312 271h10"></path>
<path d="M322 271h10"></path>
<g class="non-terminal">
<path d="M332 271h0"></path>
<path d="M400 271h0"></path>
<rect x="332" y="260" width="68" height="22"></rect>
<a xlink:href="reuse_source.svg"><text x="366" y="275">Source</text>
</a>
</g>
<path d="M400 271h10"></path>
<path d="M410 271h10"></path>
<g class="terminal">
<path d="M420 271h0"></path>
<path d="M528 271h0"></path>
<rect x="420" y="260" width="108" height="22" rx="10" ry="10"></rect>
<text x="474" y="275">"INTO DATE"</text>
</g>
<path d="M528 271h10"></path>
<path d="M538 271h10"></path>
<g class="non-terminal">
<path d="M548 271h0"></path>
<path d="M616 271h0"></path>
<rect x="548" y="260" width="68" height="22"></rect>
<a xlink:href="reuse_target.svg"><text x="582" y="275">Target</text>
</a>
</g>
</g>
<path d="M780 271a10 10 0 0 0 10 -10v-220a10 10 0 0 1 10 -10"></path>
</g>
</g>
<path d="M800 31h10"></path>
<path d="M 810 31 h 20 m -10 -10 v 20 m 10 -20 v 20"></path>
</g>
</svg>
