<svg xmlns="http://www.w3.org/2000/svg" xmlns:xlink="http://www.w3.org/1999/xlink" class="railroad-diagram" width="1388" height="110" viewBox="0 0 1388 110">
<defs>
<style type="text/css"><![CDATA[
path {
stroke-width: 3;
stroke: black;
fill: rgba(0,0,0,0);
}
text {
font: bold 14px monospace;
text-anchor: middle;
}
text.diagram-text {
font-size: 12px;
}
a {
fill: blue;
}
text.diagram-arrow {
font-size: 16px;
}
text.label {
text-anchor: start;
}
text.comment {
font: italic 12px monospace;
}
rect {
stroke-width: 3;
stroke: black;
fill: #BCBCBC;
}
path.diagram-text {
stroke-width: 3;
stroke: black;
fill: #BCBCBC;
cursor: help;
}
]]></style>
</defs>
<g transform="translate(.5 .5)">
<path d="M 20 30 v 20 m 10 -20 v 20 m -10 -10 h 20.5"></path>
<path d="M40 40h10"></path>
<g>
<path d="M50 40h0"></path>
<path d="M1338 40h0"></path>
<g class="terminal">
<path d="M50 40h0"></path>
<path d="M142 40h0"></path>
<rect x="50" y="29" width="92" height="22" rx="10" ry="10"></rect>
<text x="96" y="44">"CONVERT"</text>
</g>
<path d="M142 40h10"></path>
<g>
<path d="M152 40h0"></path>
<path d="M1338 40h0"></path>
<path d="M152 40h20"></path>
<g>
<path d="M172 40h0"></path>
<path d="M1318 40h0"></path>
<g class="terminal">
<path d="M172 40h0"></path>
<path d="M288 40h0"></path>
<rect x="172" y="29" width="116" height="22" rx="10" ry="10"></rect>
<text x="230" y="44">"TIME STAMP"</text>
</g>
<path d="M288 40h10"></path>
<path d="M298 40h10"></path>
<g class="non-terminal">
<path d="M308 40h0"></path>
<path d="M376 40h0"></path>
<rect x="308" y="29" width="68" height="22"></rect>
<a xlink:href="reuse_source.svg"><text x="342" y="44">Source</text>
</a>
</g>
<path d="M376 40h10"></path>
<path d="M386 40h10"></path>
<g class="terminal">
<path d="M396 40h0"></path>
<path d="M504 40h0"></path>
<rect x="396" y="29" width="108" height="22" rx="10" ry="10"></rect>
<text x="450" y="44">"TIME ZONE"</text>
</g>
<path d="M504 40h10"></path>
<path d="M514 40h10"></path>
<g class="non-terminal">
<path d="M524 40h0"></path>
<path d="M592 40h0"></path>
<rect x="524" y="29" width="68" height="22"></rect>
<a xlink:href="reuse_source.svg"><text x="558" y="44">Source</text>
</a>
</g>
<path d="M592 40h10"></path>
<path d="M602 40h10"></path>
<g class="terminal">
<path d="M612 40h0"></path>
<path d="M720 40h0"></path>
<rect x="612" y="29" width="108" height="22" rx="10" ry="10"></rect>
<text x="666" y="44">"INTO DATE"</text>
</g>
<path d="M720 40h10"></path>
<path d="M730 40h10"></path>
<g class="non-terminal">
<path d="M740 40h0"></path>
<path d="M808 40h0"></path>
<rect x="740" y="29" width="68" height="22"></rect>
<a xlink:href="reuse_target.svg"><text x="774" y="44">Target</text>
</a>
</g>
<path d="M808 40h10"></path>
<path d="M818 40h10"></path>
<g class="terminal">
<path d="M828 40h0"></path>
<path d="M896 40h0"></path>
<rect x="828" y="29" width="68" height="22" rx="10" ry="10"></rect>
<text x="862" y="44">"TIME"</text>
</g>
<path d="M896 40h10"></path>
<path d="M906 40h10"></path>
<g class="non-terminal">
<path d="M916 40h0"></path>
<path d="M984 40h0"></path>
<rect x="916" y="29" width="68" height="22"></rect>
<a xlink:href="reuse_target.svg"><text x="950" y="44">Target</text>
</a>
</g>
<path d="M984 40h10"></path>
<g>
<path d="M994 40h0"></path>
<path d="M1318 40h0"></path>
<path d="M994 40a10 10 0 0 0 10 -10v0a10 10 0 0 1 10 -10"></path>
<g>
<path d="M1014 20h284"></path>
</g>
<path d="M1298 20a10 10 0 0 1 10 10v0a10 10 0 0 0 10 10"></path>
<path d="M994 40h20"></path>
<g>
<path d="M1014 40h0"></path>
<path d="M1298 40h0"></path>
<g class="terminal">
<path d="M1014 40h0"></path>
<path d="M1210 40h0"></path>
<rect x="1014" y="29" width="196" height="22" rx="10" ry="10"></rect>
<text x="1112" y="44">"DAYLIGHT SAVING TIME"</text>
</g>
<path d="M1210 40h10"></path>
<path d="M1220 40h10"></path>
<g class="non-terminal">
<path d="M1230 40h0"></path>
<path d="M1298 40h0"></path>
<rect x="1230" y="29" width="68" height="22"></rect>
<a xlink:href="reuse_target.svg"><text x="1264" y="44">Target</text>
</a>
</g>
</g>
<path d="M1298 40h20"></path>
</g>
</g>
<path d="M1318 40h20"></path>
<path d="M152 40a10 10 0 0 1 10 10v19a10 10 0 0 0 10 10"></path>
<g>
<path d="M172 79h0"></path>
<path d="M1004 79h314"></path>
<g class="terminal">
<path d="M172 79h0"></path>
<path d="M240 79h0"></path>
<rect x="172" y="68" width="68" height="22" rx="10" ry="10"></rect>
<text x="206" y="83">"DATE"</text>
</g>
<path d="M240 79h10"></path>
<path d="M250 79h10"></path>
<g class="non-terminal">
<path d="M260 79h0"></path>
<path d="M328 79h0"></path>
<rect x="260" y="68" width="68" height="22"></rect>
<a xlink:href="reuse_source.svg"><text x="294" y="83">Source</text>
</a>
</g>
<path d="M328 79h10"></path>
<g>
<path d="M338 79h0"></path>
<path d="M534 79h0"></path>
<path d="M338 79a10 10 0 0 0 10 -10v0a10 10 0 0 1 10 -10"></path>
<g>
<path d="M358 59h156"></path>
</g>
<path d="M514 59a10 10 0 0 1 10 10v0a10 10 0 0 0 10 10"></path>
<path d="M338 79h20"></path>
<g>
<path d="M358 79h0"></path>
<path d="M514 79h0"></path>
<g class="terminal">
<path d="M358 79h0"></path>
<path d="M426 79h0"></path>
<rect x="358" y="68" width="68" height="22" rx="10" ry="10"></rect>
<text x="392" y="83">"TIME"</text>
</g>
<path d="M426 79h10"></path>
<path d="M436 79h10"></path>
<g class="non-terminal">
<path d="M446 79h0"></path>
<path d="M514 79h0"></path>
<rect x="446" y="68" width="68" height="22"></rect>
<a xlink:href="reuse_source.svg"><text x="480" y="83">Source</text>
</a>
</g>
</g>
<path d="M514 79h20"></path>
</g>
<path d="M534 79h10"></path>
<g class="terminal">
<path d="M544 79h0"></path>
<path d="M700 79h0"></path>
<rect x="544" y="68" width="156" height="22" rx="10" ry="10"></rect>
<text x="622" y="83">"INTO TIME STAMP"</text>
</g>
<path d="M700 79h10"></path>
<path d="M710 79h10"></path>
<g class="non-terminal">
<path d="M720 79h0"></path>
<path d="M788 79h0"></path>
<rect x="720" y="68" width="68" height="22"></rect>
<a xlink:href="reuse_target.svg"><text x="754" y="83">Target</text>
</a>
</g>
<path d="M788 79h10"></path>
<path d="M798 79h10"></path>
<g class="terminal">
<path d="M808 79h0"></path>
<path d="M916 79h0"></path>
<rect x="808" y="68" width="108" height="22" rx="10" ry="10"></rect>
<text x="862" y="83">"TIME ZONE"</text>
</g>
<path d="M916 79h10"></path>
<path d="M926 79h10"></path>
<g class="non-terminal">
<path d="M936 79h0"></path>
<path d="M1004 79h0"></path>
<rect x="936" y="68" width="68" height="22"></rect>
<a xlink:href="reuse_source.svg"><text x="970" y="83">Source</text>
</a>
</g>
</g>
<path d="M1318 79a10 10 0 0 0 10 -10v-19a10 10 0 0 1 10 -10"></path>
</g>
</g>
<path d="M1338 40h10"></path>
<path d="M 1348 40 h 20 m -10 -10 v 20 m 10 -20 v 20"></path>
</g>
</svg>
