<svg xmlns="http://www.w3.org/2000/svg" xmlns:xlink="http://www.w3.org/1999/xlink" class="railroad-diagram" width="1388" height="161" viewBox="0 0 1388 161">
<defs>
<style type="text/css"><![CDATA[
path {
stroke-width: 3;
stroke: black;
fill: rgba(0,0,0,0);
}
text {
font: bold 14px monospace;
text-anchor: middle;
}
text.diagram-text {
font-size: 12px;
}
a {
fill: blue;
}
text.diagram-arrow {
font-size: 16px;
}
text.label {
text-anchor: start;
}
text.comment {
font: italic 12px monospace;
}
rect {
stroke-width: 3;
stroke: black;
fill: #BCBCBC;
}
path.diagram-text {
stroke-width: 3;
stroke: black;
fill: #BCBCBC;
cursor: help;
}
]]></style>
</defs>
<g transform="translate(.5 .5)">
<path d="M 20 30 v 20 m 10 -20 v 20 m -10 -10 h 20.5"></path>
<path d="M40 40h10"></path>
<g>
<path d="M50 40h0"></path>
<path d="M1338 40h0"></path>
<g class="terminal">
<path d="M50 40h0"></path>
<path d="M142 40h0"></path>
<rect x="50" y="29" width="92" height="22" rx="10" ry="10"></rect>
<text x="96" y="44">"CONVERT"</text>
</g>
<path d="M142 40h10"></path>
<g>
<path d="M152 40h0"></path>
<path d="M1338 40h0"></path>
<path d="M152 40h20"></path>
<g>
<path d="M172 40h0"></path>
<path d="M1318 40h0"></path>
<g class="terminal">
<path d="M172 40h0"></path>
<path d="M288 40h0"></path>
<rect x="172" y="29" width="116" height="22" rx="10" ry="10"></rect>
<text x="230" y="44">"TIME STAMP"</text>
</g>
<path d="M288 40h10"></path>
<path d="M298 40h10"></path>
<g class="non-terminal">
<path d="M308 40h0"></path>
<path d="M376 40h0"></path>
<rect x="308" y="29" width="68" height="22"></rect>
<a xlink:href="reuse_source.svg"><text x="342" y="44">Source</text>
</a>
</g>
<path d="M376 40h10"></path>
<path d="M386 40h10"></path>
<g class="terminal">
<path d="M396 40h0"></path>
<path d="M504 40h0"></path>
<rect x="396" y="29" width="108" height="22" rx="10" ry="10"></rect>
<text x="450" y="44">"TIME ZONE"</text>
</g>
<path d="M504 40h10"></path>
<path d="M514 40h10"></path>
<g class="non-terminal">
<path d="M524 40h0"></path>
<path d="M592 40h0"></path>
<rect x="524" y="29" width="68" height="22"></rect>
<a xlink:href="reuse_source.svg"><text x="558" y="44">Source</text>
</a>
</g>
<path d="M592 40h10"></path>
<path d="M602 40h10"></path>
<g class="terminal">
<path d="M612 40h0"></path>
<path d="M720 40h0"></path>
<rect x="612" y="29" width="108" height="22" rx="10" ry="10"></rect>
<text x="666" y="44">"INTO DATE"</text>
</g>
<path d="M720 40h10"></path>
<path d="M730 40h10"></path>
<g class="non-terminal">
<path d="M740 40h0"></path>
<path d="M808 40h0"></path>
<rect x="740" y="29" width="68" height="22"></rect>
<a xlink:href="reuse_target.svg"><text x="774" y="44">Target</text>
</a>
</g>
<path d="M808 40h10"></path>
<path d="M818 40h10"></path>
<g class="terminal">
<path d="M828 40h0"></path>
<path d="M896 40h0"></path>
<rect x="828" y="29" width="68" height="22" rx="10" ry="10"></rect>
<text x="862" y="44">"TIME"</text>
</g>
<path d="M896 40h10"></path>
<path d="M906 40h10"></path>
<g class="non-terminal">
<path d="M916 40h0"></path>
<path d="M984 40h0"></path>
<rect x="916" y="29" width="68" height="22"></rect>
<a xlink:href="reuse_target.svg"><text x="950" y="44">Target</text>
</a>
</g>
<path d="M984 40h10"></path>
<g>
<path d="M994 40h0"></path>
<path d="M1318 40h0"></path>
<path d="M994 40a10 10 0 0 0 10 -10v0a10 10 0 0 1 10 -10"></path>
<g>
<path d="M1014 20h284"></path>
</g>
<path d="M1298 20a10 10 0 0 1 10 10v0a10 10 0 0 0 10 10"></path>
<path d="M994 40h20"></path>
<g>
<path d="M1014 40h0"></path>
<path d="M1298 40h0"></path>
<g class="terminal">
<path d="M1014 40h0"></path>
<path d="M1210 40h0"></path>
<rect x="1014" y="29" width="196" height="22" rx="10" ry="10"></rect>
<text x="1112" y="44">"DAYLIGHT SAVING TIME"</text>
</g>
<path d="M1210 40h10"></path>
<path d="M1220 40h10"></path>
<g class="non-terminal">
<path d="M1230 40h0"></path>
<path d="M1298 40h0"></path>
<rect x="1230" y="29" width="68" height="22"></rect>
<a xlink:href="reuse_target.svg"><text x="1264" y="44">Target</text>
</a>
</g>
</g>
<path d="M1298 40h20"></path>
</g>
</g>
<path d="M1318 40h20"></path>
<path d="M152 40a10 10 0 0 1 10 10v10a10 10 0 0 0 10 10"></path>
<g>
<path d="M172 70h0"></path>
<path d="M756 70h562"></path>
<g>
<path d="M172 70h0"></path>
<path d="M398 70h0"></path>
<path d="M202 70h10"></path>
<g>
<path d="M212 70h0"></path>
<path d="M368 70h0"></path>
<g class="terminal">
<path d="M212 70h0"></path>
<path d="M280 70h0"></path>
<rect x="212" y="59" width="68" height="22" rx="10" ry="10"></rect>
<text x="246" y="74">"DATE"</text>
</g>
<path d="M280 70h10"></path>
<path d="M290 70h10"></path>
<g class="non-terminal">
<path d="M300 70h0"></path>
<path d="M368 70h0"></path>
<rect x="300" y="59" width="68" height="22"></rect>
<a xlink:href="reuse_source.svg"><text x="334" y="74">Source</text>
</a>
</g>
</g>
<path d="M368 70h10"></path>
<path d="M202 70v20a10 10 0 0 0 10 10"></path>
<g>
<path d="M212 100h0"></path>
<path d="M368 100h0"></path>
<g class="terminal">
<path d="M212 100h0"></path>
<path d="M280 100h0"></path>
<rect x="212" y="89" width="68" height="22" rx="10" ry="10"></rect>
<text x="246" y="104">"TIME"</text>
</g>
<path d="M280 100h10"></path>
<path d="M290 100h10"></path>
<g class="non-terminal">
<path d="M300 100h0"></path>
<path d="M368 100h0"></path>
<rect x="300" y="89" width="68" height="22"></rect>
<a xlink:href="reuse_source.svg"><text x="334" y="104">Source</text>
</a>
</g>
</g>
<path d="M368 100a10 10 0 0 0 10 -10v-20"></path>
<g class="diagram-text">
<title>take one or more branches, once each, in any order</title>
<path d="M 202 60 h -26 a 4 4 0 0 0 -4 4 v 12 a 4 4 0 0 0 4 4 h 26 z" class="diagram-text"></path>
<text x="187" y="74" class="diagram-text">1+</text>
<path d="M 378 60 h 16 a 4 4 0 0 1 4 4 v 12 a 4 4 0 0 1 -4 4 h -16 z" class="diagram-text"></path>
<path d="M 385 68 a 4 4 0 1 0 6 -1 m 2.75 -1 h -4 v 4 m 0 -3 h 2" style="stroke-width: 1.75"></path>
</g>
</g>
<path d="M398 70h10"></path>
<path d="M408 70h10"></path>
<g>
<path d="M418 70h0"></path>
<path d="M756 70h0"></path>
<path d="M448 70h10"></path>
<g>
<path d="M458 70h0"></path>
<path d="M702 70h24"></path>
<g class="terminal">
<path d="M458 70h0"></path>
<path d="M614 70h0"></path>
<rect x="458" y="59" width="156" height="22" rx="10" ry="10"></rect>
<text x="536" y="74">"INTO TIME STAMP"</text>
</g>
<path d="M614 70h10"></path>
<path d="M624 70h10"></path>
<g class="non-terminal">
<path d="M634 70h0"></path>
<path d="M702 70h0"></path>
<rect x="634" y="59" width="68" height="22"></rect>
<a xlink:href="reuse_target.svg"><text x="668" y="74">Target</text>
</a>
</g>
</g>
<path d="M726 70h10"></path>
<path d="M448 70v20a10 10 0 0 0 10 10"></path>
<g>
<path d="M458 100h0"></path>
<path d="M654 100h72"></path>
<g class="terminal">
<path d="M458 100h0"></path>
<path d="M566 100h0"></path>
<rect x="458" y="89" width="108" height="22" rx="10" ry="10"></rect>
<text x="512" y="104">"TIME ZONE"</text>
</g>
<path d="M566 100h10"></path>
<path d="M576 100h10"></path>
<g class="non-terminal">
<path d="M586 100h0"></path>
<path d="M654 100h0"></path>
<rect x="586" y="89" width="68" height="22"></rect>
<a xlink:href="reuse_source.svg"><text x="620" y="104">Source</text>
</a>
</g>
</g>
<path d="M726 100a10 10 0 0 0 10 -10v-20"></path>
<path d="M448 70v50a10 10 0 0 0 10 10"></path>
<g>
<path d="M458 130h0"></path>
<path d="M726 130h0"></path>
<g class="terminal">
<path d="M458 130h0"></path>
<path d="M638 130h0"></path>
<rect x="458" y="119" width="180" height="22" rx="10" ry="10"></rect>
<text x="548" y="134">"INTO INVERTED-DATE"</text>
</g>
<path d="M638 130h10"></path>
<path d="M648 130h10"></path>
<g class="non-terminal">
<path d="M658 130h0"></path>
<path d="M726 130h0"></path>
<rect x="658" y="119" width="68" height="22"></rect>
<a xlink:href="reuse_target.svg"><text x="692" y="134">Target</text>
</a>
</g>
</g>
<path d="M726 130a10 10 0 0 0 10 -10v-50"></path>
<g class="diagram-text">
<title>take one or more branches, once each, in any order</title>
<path d="M 448 60 h -26 a 4 4 0 0 0 -4 4 v 12 a 4 4 0 0 0 4 4 h 26 z" class="diagram-text"></path>
<text x="433" y="74" class="diagram-text">1+</text>
<path d="M 736 60 h 16 a 4 4 0 0 1 4 4 v 12 a 4 4 0 0 1 -4 4 h -16 z" class="diagram-text"></path>
<path d="M 743 68 a 4 4 0 1 0 6 -1 m 2.75 -1 h -4 v 4 m 0 -3 h 2" style="stroke-width: 1.75"></path>
</g>
</g>
</g>
<path d="M1318 70a10 10 0 0 0 10 -10v-10a10 10 0 0 1 10 -10"></path>
</g>
</g>
<path d="M1338 40h10"></path>
<path d="M 1348 40 h 20 m -10 -10 v 20 m 10 -20 v 20"></path>
</g>
</svg>
