<svg xmlns="http://www.w3.org/2000/svg" xmlns:xlink="http://www.w3.org/1999/xlink" class="railroad-diagram" width="1330" height="101" viewBox="0 0 1330 101">
<defs>
<style type="text/css"><![CDATA[
path {
stroke-width: 3;
stroke: black;
fill: rgba(0,0,0,0);
}
text {
font: bold 14px monospace;
text-anchor: middle;
}
text.diagram-text {
font-size: 12px;
}
a {
fill: blue;
}
text.diagram-arrow {
font-size: 16px;
}
text.label {
text-anchor: start;
}
text.comment {
font: italic 12px monospace;
}
rect {
stroke-width: 3;
stroke: black;
fill: #BCBCBC;
}
path.diagram-text {
stroke-width: 3;
stroke: black;
fill: #BCBCBC;
cursor: help;
}
]]></style>
</defs>
<g transform="translate(.5 .5)">
<path d="M 20 30 v 20 m 10 -20 v 20 m -10 -10 h 20.5"></path>
<g>
<path d="M40 40h0"></path>
<path d="M1290 40h0"></path>
<path d="M40 40h20"></path>
<g>
<path d="M60 40h0"></path>
<path d="M1270 40h0"></path>
<g class="terminal">
<path d="M60 40h0"></path>
<path d="M240 40h0"></path>
<rect x="60" y="29" width="180" height="22" rx="10" ry="10"></rect>
<text x="150" y="44">"CONVERT TIME STAMP"</text>
</g>
<path d="M240 40h10"></path>
<path d="M250 40h10"></path>
<g class="non-terminal">
<path d="M260 40h0"></path>
<path d="M328 40h0"></path>
<rect x="260" y="29" width="68" height="22"></rect>
<a xlink:href="reuse_source.svg"><text x="294" y="44">source</text>
</a>
</g>
<path d="M328 40h10"></path>
<path d="M338 40h10"></path>
<g class="terminal">
<path d="M348 40h0"></path>
<path d="M456 40h0"></path>
<rect x="348" y="29" width="108" height="22" rx="10" ry="10"></rect>
<text x="402" y="44">"TIME ZONE"</text>
</g>
<path d="M456 40h10"></path>
<path d="M466 40h10"></path>
<g class="non-terminal">
<path d="M476 40h0"></path>
<path d="M544 40h0"></path>
<rect x="476" y="29" width="68" height="22"></rect>
<a xlink:href="reuse_source.svg"><text x="510" y="44">source</text>
</a>
</g>
<path d="M544 40h10"></path>
<path d="M554 40h10"></path>
<g class="terminal">
<path d="M564 40h0"></path>
<path d="M672 40h0"></path>
<rect x="564" y="29" width="108" height="22" rx="10" ry="10"></rect>
<text x="618" y="44">"INTO DATE"</text>
</g>
<path d="M672 40h10"></path>
<path d="M682 40h10"></path>
<g class="non-terminal">
<path d="M692 40h0"></path>
<path d="M760 40h0"></path>
<rect x="692" y="29" width="68" height="22"></rect>
<a xlink:href="reuse_target.svg"><text x="726" y="44">target</text>
</a>
</g>
<path d="M760 40h10"></path>
<path d="M770 40h10"></path>
<g class="terminal">
<path d="M780 40h0"></path>
<path d="M848 40h0"></path>
<rect x="780" y="29" width="68" height="22" rx="10" ry="10"></rect>
<text x="814" y="44">"TIME"</text>
</g>
<path d="M848 40h10"></path>
<path d="M858 40h10"></path>
<g class="non-terminal">
<path d="M868 40h0"></path>
<path d="M936 40h0"></path>
<rect x="868" y="29" width="68" height="22"></rect>
<a xlink:href="reuse_target.svg"><text x="902" y="44">target</text>
</a>
</g>
<path d="M936 40h10"></path>
<g>
<path d="M946 40h0"></path>
<path d="M1270 40h0"></path>
<path d="M946 40a10 10 0 0 0 10 -10v0a10 10 0 0 1 10 -10"></path>
<g>
<path d="M966 20h284"></path>
</g>
<path d="M1250 20a10 10 0 0 1 10 10v0a10 10 0 0 0 10 10"></path>
<path d="M946 40h20"></path>
<g>
<path d="M966 40h0"></path>
<path d="M1250 40h0"></path>
<g class="terminal">
<path d="M966 40h0"></path>
<path d="M1162 40h0"></path>
<rect x="966" y="29" width="196" height="22" rx="10" ry="10"></rect>
<text x="1064" y="44">"DAYLIGHT SAVING TIME"</text>
</g>
<path d="M1162 40h10"></path>
<path d="M1172 40h10"></path>
<g class="non-terminal">
<path d="M1182 40h0"></path>
<path d="M1250 40h0"></path>
<rect x="1182" y="29" width="68" height="22"></rect>
<a xlink:href="reuse_target.svg"><text x="1216" y="44">target</text>
</a>
</g>
</g>
<path d="M1250 40h20"></path>
</g>
</g>
<path d="M1270 40h20"></path>
<path d="M40 40a10 10 0 0 1 10 10v10a10 10 0 0 0 10 10"></path>
<g>
<path d="M60 70h0"></path>
<path d="M936 70h334"></path>
<g class="terminal">
<path d="M60 70h0"></path>
<path d="M192 70h0"></path>
<rect x="60" y="59" width="132" height="22" rx="10" ry="10"></rect>
<text x="126" y="74">"CONVERT DATE"</text>
</g>
<path d="M192 70h10"></path>
<path d="M202 70h10"></path>
<g class="non-terminal">
<path d="M212 70h0"></path>
<path d="M280 70h0"></path>
<rect x="212" y="59" width="68" height="22"></rect>
<a xlink:href="reuse_source.svg"><text x="246" y="74">source</text>
</a>
</g>
<path d="M280 70h10"></path>
<path d="M290 70h10"></path>
<g class="terminal">
<path d="M300 70h0"></path>
<path d="M368 70h0"></path>
<rect x="300" y="59" width="68" height="22" rx="10" ry="10"></rect>
<text x="334" y="74">"TIME"</text>
</g>
<path d="M368 70h10"></path>
<path d="M378 70h10"></path>
<g class="non-terminal">
<path d="M388 70h0"></path>
<path d="M456 70h0"></path>
<rect x="388" y="59" width="68" height="22"></rect>
<a xlink:href="reuse_source.svg"><text x="422" y="74">source</text>
</a>
</g>
<path d="M456 70h10"></path>
<path d="M466 70h10"></path>
<g class="terminal">
<path d="M476 70h0"></path>
<path d="M632 70h0"></path>
<rect x="476" y="59" width="156" height="22" rx="10" ry="10"></rect>
<text x="554" y="74">"INTO TIME STAMP"</text>
</g>
<path d="M632 70h10"></path>
<path d="M642 70h10"></path>
<g class="non-terminal">
<path d="M652 70h0"></path>
<path d="M720 70h0"></path>
<rect x="652" y="59" width="68" height="22"></rect>
<a xlink:href="reuse_target.svg"><text x="686" y="74">target</text>
</a>
</g>
<path d="M720 70h10"></path>
<path d="M730 70h10"></path>
<g class="terminal">
<path d="M740 70h0"></path>
<path d="M848 70h0"></path>
<rect x="740" y="59" width="108" height="22" rx="10" ry="10"></rect>
<text x="794" y="74">"TIME ZONE"</text>
</g>
<path d="M848 70h10"></path>
<path d="M858 70h10"></path>
<g class="non-terminal">
<path d="M868 70h0"></path>
<path d="M936 70h0"></path>
<rect x="868" y="59" width="68" height="22"></rect>
<a xlink:href="reuse_source.svg"><text x="902" y="74">source</text>
</a>
</g>
</g>
<path d="M1270 70a10 10 0 0 0 10 -10v-10a10 10 0 0 1 10 -10"></path>
</g>
<path d="M 1290 40 h 20 m -10 -10 v 20 m 10 -20 v 20"></path>
</g>
</svg>
