<svg xmlns="http://www.w3.org/2000/svg" xmlns:xlink="http://www.w3.org/1999/xlink" class="railroad-diagram" width="1388" height="101" viewBox="0 0 1388 101">
<defs>
<style type="text/css"><![CDATA[
path {
stroke-width: 3;
stroke: black;
fill: rgba(0,0,0,0);
}
text {
font: bold 14px monospace;
text-anchor: middle;
}
text.diagram-text {
font-size: 12px;
}
a {
fill: blue;
}
text.diagram-arrow {
font-size: 16px;
}
text.label {
text-anchor: start;
}
text.comment {
font: italic 12px monospace;
}
rect {
stroke-width: 3;
stroke: black;
fill: #BCBCBC;
}
path.diagram-text {
stroke-width: 3;
stroke: black;
fill: #BCBCBC;
cursor: help;
}
]]></style>
</defs>
<g transform="translate(.5 .5)">
<path d="M 20 30 v 20 m 10 -20 v 20 m -10 -10 h 20.5"></path>
<path d="M40 40h10"></path>
<g>
<path d="M50 40h0"></path>
<path d="M1338 40h0"></path>
<g class="terminal">
<path d="M50 40h0"></path>
<path d="M142 40h0"></path>
<rect x="50" y="29" width="92" height="22" rx="10" ry="10"></rect>
<text x="96" y="44">"CONVERT"</text>
</g>
<path d="M142 40h10"></path>
<g>
<path d="M152 40h0"></path>
<path d="M1338 40h0"></path>
<path d="M152 40h20"></path>
<g>
<path d="M172 40h0"></path>
<path d="M1318 40h0"></path>
<g class="terminal">
<path d="M172 40h0"></path>
<path d="M288 40h0"></path>
<rect x="172" y="29" width="116" height="22" rx="10" ry="10"></rect>
<text x="230" y="44">"TIME STAMP"</text>
</g>
<path d="M288 40h10"></path>
<path d="M298 40h10"></path>
<g class="non-terminal">
<path d="M308 40h0"></path>
<path d="M376 40h0"></path>
<rect x="308" y="29" width="68" height="22"></rect>
<a xlink:href="reuse_source.svg"><text x="342" y="44">Source</text>
</a>
</g>
<path d="M376 40h10"></path>
<path d="M386 40h10"></path>
<g class="terminal">
<path d="M396 40h0"></path>
<path d="M504 40h0"></path>
<rect x="396" y="29" width="108" height="22" rx="10" ry="10"></rect>
<text x="450" y="44">"TIME ZONE"</text>
</g>
<path d="M504 40h10"></path>
<path d="M514 40h10"></path>
<g class="non-terminal">
<path d="M524 40h0"></path>
<path d="M592 40h0"></path>
<rect x="524" y="29" width="68" height="22"></rect>
<a xlink:href="reuse_source.svg"><text x="558" y="44">Source</text>
</a>
</g>
<path d="M592 40h10"></path>
<path d="M602 40h10"></path>
<g class="terminal">
<path d="M612 40h0"></path>
<path d="M720 40h0"></path>
<rect x="612" y="29" width="108" height="22" rx="10" ry="10"></rect>
<text x="666" y="44">"INTO DATE"</text>
</g>
<path d="M720 40h10"></path>
<path d="M730 40h10"></path>
<g class="non-terminal">
<path d="M740 40h0"></path>
<path d="M808 40h0"></path>
<rect x="740" y="29" width="68" height="22"></rect>
<a xlink:href="reuse_target.svg"><text x="774" y="44">Target</text>
</a>
</g>
<path d="M808 40h10"></path>
<path d="M818 40h10"></path>
<g class="terminal">
<path d="M828 40h0"></path>
<path d="M896 40h0"></path>
<rect x="828" y="29" width="68" height="22" rx="10" ry="10"></rect>
<text x="862" y="44">"TIME"</text>
</g>
<path d="M896 40h10"></path>
<path d="M906 40h10"></path>
<g class="non-terminal">
<path d="M916 40h0"></path>
<path d="M984 40h0"></path>
<rect x="916" y="29" width="68" height="22"></rect>
<a xlink:href="reuse_target.svg"><text x="950" y="44">Target</text>
</a>
</g>
<path d="M984 40h10"></path>
<g>
<path d="M994 40h0"></path>
<path d="M1318 40h0"></path>
<path d="M994 40a10 10 0 0 0 10 -10v0a10 10 0 0 1 10 -10"></path>
<g>
<path d="M1014 20h284"></path>
</g>
<path d="M1298 20a10 10 0 0 1 10 10v0a10 10 0 0 0 10 10"></path>
<path d="M994 40h20"></path>
<g>
<path d="M1014 40h0"></path>
<path d="M1298 40h0"></path>
<g class="terminal">
<path d="M1014 40h0"></path>
<path d="M1210 40h0"></path>
<rect x="1014" y="29" width="196" height="22" rx="10" ry="10"></rect>
<text x="1112" y="44">"DAYLIGHT SAVING TIME"</text>
</g>
<path d="M1210 40h10"></path>
<path d="M1220 40h10"></path>
<g class="non-terminal">
<path d="M1230 40h0"></path>
<path d="M1298 40h0"></path>
<rect x="1230" y="29" width="68" height="22"></rect>
<a xlink:href="reuse_target.svg"><text x="1264" y="44">Target</text>
</a>
</g>
</g>
<path d="M1298 40h20"></path>
</g>
</g>
<path d="M1318 40h20"></path>
<path d="M152 40a10 10 0 0 1 10 10v10a10 10 0 0 0 10 10"></path>
<g>
<path d="M172 70h0"></path>
<path d="M984 70h334"></path>
<g class="terminal">
<path d="M172 70h0"></path>
<path d="M240 70h0"></path>
<rect x="172" y="59" width="68" height="22" rx="10" ry="10"></rect>
<text x="206" y="74">"DATE"</text>
</g>
<path d="M240 70h10"></path>
<path d="M250 70h10"></path>
<g class="non-terminal">
<path d="M260 70h0"></path>
<path d="M328 70h0"></path>
<rect x="260" y="59" width="68" height="22"></rect>
<a xlink:href="reuse_source.svg"><text x="294" y="74">Source</text>
</a>
</g>
<path d="M328 70h10"></path>
<path d="M338 70h10"></path>
<g class="terminal">
<path d="M348 70h0"></path>
<path d="M416 70h0"></path>
<rect x="348" y="59" width="68" height="22" rx="10" ry="10"></rect>
<text x="382" y="74">"TIME"</text>
</g>
<path d="M416 70h10"></path>
<path d="M426 70h10"></path>
<g class="non-terminal">
<path d="M436 70h0"></path>
<path d="M504 70h0"></path>
<rect x="436" y="59" width="68" height="22"></rect>
<a xlink:href="reuse_source.svg"><text x="470" y="74">Source</text>
</a>
</g>
<path d="M504 70h10"></path>
<path d="M514 70h10"></path>
<g class="terminal">
<path d="M524 70h0"></path>
<path d="M680 70h0"></path>
<rect x="524" y="59" width="156" height="22" rx="10" ry="10"></rect>
<text x="602" y="74">"INTO TIME STAMP"</text>
</g>
<path d="M680 70h10"></path>
<path d="M690 70h10"></path>
<g class="non-terminal">
<path d="M700 70h0"></path>
<path d="M768 70h0"></path>
<rect x="700" y="59" width="68" height="22"></rect>
<a xlink:href="reuse_target.svg"><text x="734" y="74">Target</text>
</a>
</g>
<path d="M768 70h10"></path>
<path d="M778 70h10"></path>
<g class="terminal">
<path d="M788 70h0"></path>
<path d="M896 70h0"></path>
<rect x="788" y="59" width="108" height="22" rx="10" ry="10"></rect>
<text x="842" y="74">"TIME ZONE"</text>
</g>
<path d="M896 70h10"></path>
<path d="M906 70h10"></path>
<g class="non-terminal">
<path d="M916 70h0"></path>
<path d="M984 70h0"></path>
<rect x="916" y="59" width="68" height="22"></rect>
<a xlink:href="reuse_source.svg"><text x="950" y="74">Source</text>
</a>
</g>
</g>
<path d="M1318 70a10 10 0 0 0 10 -10v-10a10 10 0 0 1 10 -10"></path>
</g>
</g>
<path d="M1338 40h10"></path>
<path d="M 1348 40 h 20 m -10 -10 v 20 m 10 -20 v 20"></path>
</g>
</svg>
