<svg xmlns="http://www.w3.org/2000/svg" xmlns:xlink="http://www.w3.org/1999/xlink" class="railroad-diagram" width="1310" height="71" viewBox="0 0 1310 71">
<defs>
<style type="text/css"><![CDATA[
path {
stroke-width: 3;
stroke: black;
fill: rgba(0,0,0,0);
}
text {
font: bold 14px monospace;
text-anchor: middle;
}
text.diagram-text {
font-size: 12px;
}
a {
fill: blue;
}
text.diagram-arrow {
font-size: 16px;
}
text.label {
text-anchor: start;
}
text.comment {
font: italic 12px monospace;
}
rect {
stroke-width: 3;
stroke: black;
fill: #BCBCBC;
}
path.diagram-text {
stroke-width: 3;
stroke: black;
fill: #BCBCBC;
cursor: help;
}
]]></style>
</defs>
<g transform="translate(.5 .5)">
<path d="M 20 30 v 20 m 10 -20 v 20 m -10 -10 h 20.5"></path>
<path d="M40 40h10"></path>
<g>
<path d="M50 40h0"></path>
<path d="M1260 40h0"></path>
<g class="terminal">
<path d="M50 40h0"></path>
<path d="M230 40h0"></path>
<rect x="50" y="29" width="180" height="22" rx="10" ry="10"></rect>
<text x="140" y="44">"CONVERT TIME STAMP"</text>
</g>
<path d="M230 40h10"></path>
<path d="M240 40h10"></path>
<g class="non-terminal">
<path d="M250 40h0"></path>
<path d="M318 40h0"></path>
<rect x="250" y="29" width="68" height="22"></rect>
<a xlink:href="reuse_source.svg"><text x="284" y="44">source</text>
</a>
</g>
<path d="M318 40h10"></path>
<path d="M328 40h10"></path>
<g class="terminal">
<path d="M338 40h0"></path>
<path d="M446 40h0"></path>
<rect x="338" y="29" width="108" height="22" rx="10" ry="10"></rect>
<text x="392" y="44">"TIME ZONE"</text>
</g>
<path d="M446 40h10"></path>
<path d="M456 40h10"></path>
<g class="non-terminal">
<path d="M466 40h0"></path>
<path d="M534 40h0"></path>
<rect x="466" y="29" width="68" height="22"></rect>
<a xlink:href="reuse_source.svg"><text x="500" y="44">source</text>
</a>
</g>
<path d="M534 40h10"></path>
<path d="M544 40h10"></path>
<g class="terminal">
<path d="M554 40h0"></path>
<path d="M662 40h0"></path>
<rect x="554" y="29" width="108" height="22" rx="10" ry="10"></rect>
<text x="608" y="44">"INTO DATE"</text>
</g>
<path d="M662 40h10"></path>
<path d="M672 40h10"></path>
<g class="non-terminal">
<path d="M682 40h0"></path>
<path d="M750 40h0"></path>
<rect x="682" y="29" width="68" height="22"></rect>
<a xlink:href="reuse_target.svg"><text x="716" y="44">target</text>
</a>
</g>
<path d="M750 40h10"></path>
<path d="M760 40h10"></path>
<g class="terminal">
<path d="M770 40h0"></path>
<path d="M838 40h0"></path>
<rect x="770" y="29" width="68" height="22" rx="10" ry="10"></rect>
<text x="804" y="44">"TIME"</text>
</g>
<path d="M838 40h10"></path>
<path d="M848 40h10"></path>
<g class="non-terminal">
<path d="M858 40h0"></path>
<path d="M926 40h0"></path>
<rect x="858" y="29" width="68" height="22"></rect>
<a xlink:href="reuse_target.svg"><text x="892" y="44">target</text>
</a>
</g>
<path d="M926 40h10"></path>
<g>
<path d="M936 40h0"></path>
<path d="M1260 40h0"></path>
<path d="M936 40a10 10 0 0 0 10 -10v0a10 10 0 0 1 10 -10"></path>
<g>
<path d="M956 20h284"></path>
</g>
<path d="M1240 20a10 10 0 0 1 10 10v0a10 10 0 0 0 10 10"></path>
<path d="M936 40h20"></path>
<g>
<path d="M956 40h0"></path>
<path d="M1240 40h0"></path>
<g class="terminal">
<path d="M956 40h0"></path>
<path d="M1152 40h0"></path>
<rect x="956" y="29" width="196" height="22" rx="10" ry="10"></rect>
<text x="1054" y="44">"DAYLIGHT SAVING TIME"</text>
</g>
<path d="M1152 40h10"></path>
<path d="M1162 40h10"></path>
<g class="non-terminal">
<path d="M1172 40h0"></path>
<path d="M1240 40h0"></path>
<rect x="1172" y="29" width="68" height="22"></rect>
<a xlink:href="reuse_target.svg"><text x="1206" y="44">target</text>
</a>
</g>
</g>
<path d="M1240 40h20"></path>
</g>
</g>
<path d="M1260 40h10"></path>
<path d="M 1270 40 h 20 m -10 -10 v 20 m 10 -20 v 20"></path>
</g>
</svg>
