<svg xmlns="http://www.w3.org/2000/svg" xmlns:xlink="http://www.w3.org/1999/xlink" class="railroad-diagram" width="1374" height="251" viewBox="0 0 1374 251">
<defs>
<style type="text/css"><![CDATA[
path {
stroke-width: 3;
stroke: black;
fill: rgba(0,0,0,0);
}
text {
font: bold 14px monospace;
text-anchor: middle;
}
text.diagram-text {
font-size: 12px;
}
a {
fill: blue;
}
text.diagram-arrow {
font-size: 16px;
}
text.label {
text-anchor: start;
}
text.comment {
font: italic 12px monospace;
}
rect {
stroke-width: 3;
stroke: black;
fill: #BCBCBC;
}
path.diagram-text {
stroke-width: 3;
stroke: black;
fill: #BCBCBC;
cursor: help;
}
]]></style>
</defs>
<g transform="translate(.5 .5)">
<path d="M 20 30 v 20 m 10 -20 v 20 m -10 -10 h 20.5"></path>
<path d="M40 40h10"></path>
<g>
<path d="M50 40h0"></path>
<path d="M1324 40h0"></path>
<g class="terminal">
<path d="M50 40h0"></path>
<path d="M174 40h0"></path>
<rect x="50" y="29" width="124" height="22" rx="10" ry="10"></rect>
<text x="112" y="44">"CREATE DATA"</text>
</g>
<path d="M174 40h10"></path>
<path d="M184 40h10"></path>
<g class="non-terminal">
<path d="M194 40h0"></path>
<path d="M262 40h0"></path>
<rect x="194" y="29" width="68" height="22"></rect>
<a xlink:href="reuse_target.svg"><text x="228" y="44">Target</text>
</a>
</g>
<path d="M262 40h10"></path>
<g>
<path d="M272 40h0"></path>
<path d="M680 40h0"></path>
<path d="M272 40a10 10 0 0 0 10 -10v0a10 10 0 0 1 10 -10"></path>
<g>
<path d="M292 20h368"></path>
</g>
<path d="M660 20a10 10 0 0 1 10 10v0a10 10 0 0 0 10 10"></path>
<path d="M272 40h20"></path>
<g>
<path d="M292 40h0"></path>
<path d="M660 40h0"></path>
<g>
<path d="M292 40h0"></path>
<path d="M544 40h0"></path>
<path d="M292 40h20"></path>
<g class="terminal">
<path d="M312 40h0"></path>
<path d="M380 40h144"></path>
<rect x="312" y="29" width="68" height="22" rx="10" ry="10"></rect>
<text x="346" y="44">"LIKE"</text>
</g>
<path d="M524 40h20"></path>
<path d="M292 40a10 10 0 0 1 10 10v10a10 10 0 0 0 10 10"></path>
<g class="terminal">
<path d="M312 70h0"></path>
<path d="M380 70h144"></path>
<rect x="312" y="59" width="68" height="22" rx="10" ry="10"></rect>
<text x="346" y="74">"TYPE"</text>
</g>
<path d="M524 70a10 10 0 0 0 10 -10v-10a10 10 0 0 1 10 -10"></path>
<path d="M292 40a10 10 0 0 1 10 10v40a10 10 0 0 0 10 10"></path>
<g class="terminal">
<path d="M312 100h0"></path>
<path d="M436 100h88"></path>
<rect x="312" y="89" width="124" height="22" rx="10" ry="10"></rect>
<text x="374" y="104">"TYPE HANDLE"</text>
</g>
<path d="M524 100a10 10 0 0 0 10 -10v-40a10 10 0 0 1 10 -10"></path>
<path d="M292 40a10 10 0 0 1 10 10v70a10 10 0 0 0 10 10"></path>
<g class="terminal">
<path d="M312 130h0"></path>
<path d="M436 130h88"></path>
<rect x="312" y="119" width="124" height="22" rx="10" ry="10"></rect>
<text x="374" y="134">"TYPE REF TO"</text>
</g>
<path d="M524 130a10 10 0 0 0 10 -10v-70a10 10 0 0 1 10 -10"></path>
<path d="M292 40a10 10 0 0 1 10 10v100a10 10 0 0 0 10 10"></path>
<g class="terminal">
<path d="M312 160h0"></path>
<path d="M524 160h0"></path>
<rect x="312" y="149" width="212" height="22" rx="10" ry="10"></rect>
<text x="418" y="164">"TYPE STANDARD TABLE OF"</text>
</g>
<path d="M524 160a10 10 0 0 0 10 -10v-100a10 10 0 0 1 10 -10"></path>
<path d="M292 40a10 10 0 0 1 10 10v130a10 10 0 0 0 10 10"></path>
<g class="terminal">
<path d="M312 190h0"></path>
<path d="M524 190h0"></path>
<rect x="312" y="179" width="212" height="22" rx="10" ry="10"></rect>
<text x="418" y="194">"LIKE STANDARD TABLE OF"</text>
</g>
<path d="M524 190a10 10 0 0 0 10 -10v-130a10 10 0 0 1 10 -10"></path>
<path d="M292 40a10 10 0 0 1 10 10v160a10 10 0 0 0 10 10"></path>
<g class="terminal">
<path d="M312 220h0"></path>
<path d="M444 220h80"></path>
<rect x="312" y="209" width="132" height="22" rx="10" ry="10"></rect>
<text x="378" y="224">"LIKE LINE OF"</text>
</g>
<path d="M524 220a10 10 0 0 0 10 -10v-160a10 10 0 0 1 10 -10"></path>
</g>
<g>
<path d="M544 40h0"></path>
<path d="M660 40h0"></path>
<path d="M544 40h20"></path>
<g class="non-terminal">
<path d="M564 40h0"></path>
<path d="M632 40h8"></path>
<rect x="564" y="29" width="68" height="22"></rect>
<a xlink:href="reuse_source.svg"><text x="598" y="44">Source</text>
</a>
</g>
<path d="M640 40h20"></path>
<path d="M544 40a10 10 0 0 1 10 10v10a10 10 0 0 0 10 10"></path>
<g class="non-terminal">
<path d="M564 70h0"></path>
<path d="M640 70h0"></path>
<rect x="564" y="59" width="76" height="22"></rect>
<a xlink:href="reuse_dynamic.svg"><text x="602" y="74">Dynamic</text>
</a>
</g>
<path d="M640 70a10 10 0 0 0 10 -10v-10a10 10 0 0 1 10 -10"></path>
</g>
</g>
<path d="M660 40h20"></path>
</g>
<g>
<path d="M680 40h0"></path>
<path d="M884 40h0"></path>
<path d="M680 40a10 10 0 0 0 10 -10v0a10 10 0 0 1 10 -10"></path>
<g>
<path d="M700 20h164"></path>
</g>
<path d="M864 20a10 10 0 0 1 10 10v0a10 10 0 0 0 10 10"></path>
<path d="M680 40h20"></path>
<g class="terminal">
<path d="M700 40h0"></path>
<path d="M864 40h0"></path>
<rect x="700" y="29" width="164" height="22" rx="10" ry="10"></rect>
<text x="782" y="44">"WITH DEFAULT KEY"</text>
</g>
<path d="M864 40h20"></path>
</g>
<g>
<path d="M884 40h0"></path>
<path d="M1096 40h0"></path>
<path d="M884 40a10 10 0 0 0 10 -10v0a10 10 0 0 1 10 -10"></path>
<g>
<path d="M904 20h172"></path>
</g>
<path d="M1076 20a10 10 0 0 1 10 10v0a10 10 0 0 0 10 10"></path>
<path d="M884 40h20"></path>
<g>
<path d="M904 40h0"></path>
<path d="M1076 40h0"></path>
<g class="terminal">
<path d="M904 40h0"></path>
<path d="M988 40h0"></path>
<rect x="904" y="29" width="84" height="22" rx="10" ry="10"></rect>
<text x="946" y="44">"LENGTH"</text>
</g>
<path d="M988 40h10"></path>
<path d="M998 40h10"></path>
<g class="non-terminal">
<path d="M1008 40h0"></path>
<path d="M1076 40h0"></path>
<rect x="1008" y="29" width="68" height="22"></rect>
<a xlink:href="reuse_source.svg"><text x="1042" y="44">Source</text>
</a>
</g>
</g>
<path d="M1076 40h20"></path>
</g>
<g>
<path d="M1096 40h0"></path>
<path d="M1324 40h0"></path>
<path d="M1096 40a10 10 0 0 0 10 -10v0a10 10 0 0 1 10 -10"></path>
<g>
<path d="M1116 20h188"></path>
</g>
<path d="M1304 20a10 10 0 0 1 10 10v0a10 10 0 0 0 10 10"></path>
<path d="M1096 40h20"></path>
<g>
<path d="M1116 40h0"></path>
<path d="M1304 40h0"></path>
<g class="terminal">
<path d="M1116 40h0"></path>
<path d="M1216 40h0"></path>
<rect x="1116" y="29" width="100" height="22" rx="10" ry="10"></rect>
<text x="1166" y="44">"DECIMALS"</text>
</g>
<path d="M1216 40h10"></path>
<path d="M1226 40h10"></path>
<g class="non-terminal">
<path d="M1236 40h0"></path>
<path d="M1304 40h0"></path>
<rect x="1236" y="29" width="68" height="22"></rect>
<a xlink:href="reuse_source.svg"><text x="1270" y="44">Source</text>
</a>
</g>
</g>
<path d="M1304 40h20"></path>
</g>
</g>
<path d="M1324 40h10"></path>
<path d="M 1334 40 h 20 m -10 -10 v 20 m 10 -20 v 20"></path>
</g>
</svg>
