<svg xmlns="http://www.w3.org/2000/svg" xmlns:xlink="http://www.w3.org/1999/xlink" class="railroad-diagram" width="1444" height="101" viewBox="0 0 1444 101">
<defs>
<style type="text/css"><![CDATA[
path {
stroke-width: 3;
stroke: black;
fill: rgba(0,0,0,0);
}
text {
font: bold 14px monospace;
text-anchor: middle;
}
text.diagram-text {
font-size: 12px;
}
a {
fill: blue;
}
text.diagram-arrow {
font-size: 16px;
}
text.label {
text-anchor: start;
}
text.comment {
font: italic 12px monospace;
}
rect {
stroke-width: 3;
stroke: black;
fill: #BCBCBC;
}
path.diagram-text {
stroke-width: 3;
stroke: black;
fill: #BCBCBC;
cursor: help;
}
]]></style>
</defs>
<g transform="translate(.5 .5)">
<path d="M 20 30 v 20 m 10 -20 v 20 m -10 -10 h 20.5"></path>
<path d="M40 40h10"></path>
<g>
<path d="M50 40h0"></path>
<path d="M1394 40h0"></path>
<g class="terminal">
<path d="M50 40h0"></path>
<path d="M190 40h0"></path>
<rect x="50" y="29" width="140" height="22" rx="10" ry="10"></rect>
<text x="120" y="44">"CREATE OBJECT"</text>
</g>
<path d="M190 40h10"></path>
<path d="M200 40h10"></path>
<g class="non-terminal">
<path d="M210 40h0"></path>
<path d="M278 40h0"></path>
<rect x="210" y="29" width="68" height="22"></rect>
<a xlink:href="reuse_target.svg"><text x="244" y="44">target</text>
</a>
</g>
<path d="M278 40h10"></path>
<g>
<path d="M288 40h0"></path>
<path d="M682 40h0"></path>
<path d="M288 40a10 10 0 0 0 10 -10v0a10 10 0 0 1 10 -10"></path>
<g>
<path d="M308 20h354"></path>
</g>
<path d="M662 20a10 10 0 0 1 10 10v0a10 10 0 0 0 10 10"></path>
<path d="M288 40h20"></path>
<g>
<path d="M308 40h0"></path>
<path d="M662 40h0"></path>
<g class="terminal">
<path d="M308 40h0"></path>
<path d="M376 40h0"></path>
<rect x="308" y="29" width="68" height="22" rx="10" ry="10"></rect>
<text x="342" y="44">"TYPE"</text>
</g>
<path d="M376 40h10"></path>
<g>
<path d="M386 40h0"></path>
<path d="M662 40h0"></path>
<path d="M386 40h20"></path>
<g class="non-terminal">
<path d="M406 40h68"></path>
<path d="M574 40h68"></path>
<rect x="474" y="29" width="100" height="22"></rect>
<a xlink:href="reuse_class_name.svg"><text x="524" y="44">class&#95;name</text>
</a>
</g>
<path d="M642 40h20"></path>
<path d="M386 40a10 10 0 0 1 10 10v10a10 10 0 0 0 10 10"></path>
<g>
<path d="M406 70h0"></path>
<path d="M642 70h0"></path>
<g class="terminal">
<path d="M406 70h0"></path>
<path d="M450 70h0"></path>
<rect x="406" y="59" width="44" height="22" rx="10" ry="10"></rect>
<text x="428" y="74">"("</text>
</g>
<path d="M450 70h10"></path>
<path d="M460 70h10"></path>
<g class="non-terminal">
<path d="M470 70h0"></path>
<path d="M578 70h0"></path>
<rect x="470" y="59" width="108" height="22"></rect>
<a xlink:href="reuse_field_chain.svg"><text x="524" y="74">field&#95;chain</text>
</a>
</g>
<path d="M578 70h10"></path>
<path d="M588 70h10"></path>
<g class="terminal">
<path d="M598 70h0"></path>
<path d="M642 70h0"></path>
<rect x="598" y="59" width="44" height="22" rx="10" ry="10"></rect>
<text x="620" y="74">")"</text>
</g>
</g>
<path d="M642 70a10 10 0 0 0 10 -10v-10a10 10 0 0 1 10 -10"></path>
</g>
</g>
<path d="M662 40h20"></path>
</g>
<g>
<path d="M682 40h0"></path>
<path d="M998 40h0"></path>
<path d="M682 40a10 10 0 0 0 10 -10v0a10 10 0 0 1 10 -10"></path>
<g>
<path d="M702 20h276"></path>
</g>
<path d="M978 20a10 10 0 0 1 10 10v0a10 10 0 0 0 10 10"></path>
<path d="M682 40h20"></path>
<g>
<path d="M702 40h0"></path>
<path d="M978 40h0"></path>
<g class="terminal">
<path d="M702 40h0"></path>
<path d="M810 40h0"></path>
<rect x="702" y="29" width="108" height="22" rx="10" ry="10"></rect>
<text x="756" y="44">"EXPORTING"</text>
</g>
<path d="M810 40h10"></path>
<path d="M820 40h10"></path>
<g class="non-terminal">
<path d="M830 40h0"></path>
<path d="M978 40h0"></path>
<rect x="830" y="29" width="148" height="22"></rect>
<a xlink:href="reuse_parameter_list_s.svg"><text x="904" y="44">parameter&#95;list&#95;s</text>
</a>
</g>
</g>
<path d="M978 40h20"></path>
</g>
<g>
<path d="M998 40h0"></path>
<path d="M1394 40h0"></path>
<path d="M998 40a10 10 0 0 0 10 -10v0a10 10 0 0 1 10 -10"></path>
<g>
<path d="M1018 20h356"></path>
</g>
<path d="M1374 20a10 10 0 0 1 10 10v0a10 10 0 0 0 10 10"></path>
<path d="M998 40h20"></path>
<g>
<path d="M1018 40h0"></path>
<path d="M1374 40h0"></path>
<g class="terminal">
<path d="M1018 40h0"></path>
<path d="M1134 40h0"></path>
<rect x="1018" y="29" width="116" height="22" rx="10" ry="10"></rect>
<text x="1076" y="44">"EXCEPTIONS"</text>
</g>
<path d="M1134 40h10"></path>
<path d="M1144 40h10"></path>
<g class="non-terminal">
<path d="M1154 40h0"></path>
<path d="M1374 40h0"></path>
<rect x="1154" y="29" width="220" height="22"></rect>
<a xlink:href="reuse_parameter_list_exceptions.svg"><text x="1264" y="44">parameter&#95;list&#95;exceptions</text>
</a>
</g>
</g>
<path d="M1374 40h20"></path>
</g>
</g>
<path d="M1394 40h10"></path>
<path d="M 1404 40 h 20 m -10 -10 v 20 m 10 -20 v 20"></path>
</g>
</svg>
