<svg xmlns="http://www.w3.org/2000/svg" xmlns:xlink="http://www.w3.org/1999/xlink" class="railroad-diagram" width="572" height="152" viewBox="0 0 572 152">
<defs>
<style type="text/css"><![CDATA[
path {
stroke-width: 3;
stroke: black;
fill: rgba(0,0,0,0);
}
text {
font: bold 14px monospace;
text-anchor: middle;
}
text.diagram-text {
font-size: 12px;
}
a {
fill: blue;
}
text.diagram-arrow {
font-size: 16px;
}
text.label {
text-anchor: start;
}
text.comment {
font: italic 12px monospace;
}
rect {
stroke-width: 3;
stroke: black;
fill: #BCBCBC;
}
path.diagram-text {
stroke-width: 3;
stroke: black;
fill: #BCBCBC;
cursor: help;
}
]]></style>
</defs>
<g transform="translate(.5 .5)">
<path d="M 20 21 v 20 m 10 -20 v 20 m -10 -10 h 20.5"></path>
<path d="M40 31h10"></path>
<g>
<path d="M50 31h0"></path>
<path d="M522 31h0"></path>
<g class="terminal">
<path d="M50 31h0"></path>
<path d="M174 31h0"></path>
<rect x="50" y="20" width="124" height="22" rx="10" ry="10"></rect>
<text x="112" y="35">"CREATE DATA"</text>
</g>
<path d="M174 31h10"></path>
<path d="M184 31h10"></path>
<g class="non-terminal">
<path d="M194 31h0"></path>
<path d="M262 31h0"></path>
<rect x="194" y="20" width="68" height="22"></rect>
<a xlink:href="reuse_target.svg"><text x="228" y="35">target</text>
</a>
</g>
<path d="M262 31h10"></path>
<g>
<path d="M272 31h0"></path>
<path d="M444 31h0"></path>
<path d="M272 31h20"></path>
<g class="terminal">
<path d="M292 31h32"></path>
<path d="M392 31h32"></path>
<rect x="324" y="20" width="68" height="22" rx="10" ry="10"></rect>
<text x="358" y="35">"LIKE"</text>
</g>
<path d="M424 31h20"></path>
<path d="M272 31a10 10 0 0 1 10 10v10a10 10 0 0 0 10 10"></path>
<g class="terminal">
<path d="M292 61h32"></path>
<path d="M392 61h32"></path>
<rect x="324" y="50" width="68" height="22" rx="10" ry="10"></rect>
<text x="358" y="65">"TYPE"</text>
</g>
<path d="M424 61a10 10 0 0 0 10 -10v-10a10 10 0 0 1 10 -10"></path>
<path d="M272 31a10 10 0 0 1 10 10v40a10 10 0 0 0 10 10"></path>
<g class="terminal">
<path d="M292 91h4"></path>
<path d="M420 91h4"></path>
<rect x="296" y="80" width="124" height="22" rx="10" ry="10"></rect>
<text x="358" y="95">"TYPE HANDLE"</text>
</g>
<path d="M424 91a10 10 0 0 0 10 -10v-40a10 10 0 0 1 10 -10"></path>
<path d="M272 31a10 10 0 0 1 10 10v70a10 10 0 0 0 10 10"></path>
<g class="terminal">
<path d="M292 121h0"></path>
<path d="M424 121h0"></path>
<rect x="292" y="110" width="132" height="22" rx="10" ry="10"></rect>
<text x="358" y="125">"LIKE LINE OF"</text>
</g>
<path d="M424 121a10 10 0 0 0 10 -10v-70a10 10 0 0 1 10 -10"></path>
</g>
<path d="M444 31h10"></path>
<g class="non-terminal">
<path d="M454 31h0"></path>
<path d="M522 31h0"></path>
<rect x="454" y="20" width="68" height="22"></rect>
<a xlink:href="reuse_source.svg"><text x="488" y="35">source</text>
</a>
</g>
</g>
<path d="M522 31h10"></path>
<path d="M 532 31 h 20 m -10 -10 v 20 m 10 -20 v 20"></path>
</g>
</svg>
