<svg xmlns="http://www.w3.org/2000/svg" xmlns:xlink="http://www.w3.org/1999/xlink" class="railroad-diagram" width="2170" height="409" viewBox="0 0 2170 409">
<defs>
<style type="text/css"><![CDATA[
path {
stroke-width: 3;
stroke: black;
fill: rgba(0,0,0,0);
}
text {
font: bold 14px monospace;
text-anchor: middle;
}
text.diagram-text {
font-size: 12px;
}
a {
fill: blue;
}
text.diagram-arrow {
font-size: 16px;
}
text.label {
text-anchor: start;
}
text.comment {
font: italic 12px monospace;
}
rect {
stroke-width: 3;
stroke: black;
fill: #BCBCBC;
}
path.diagram-text {
stroke-width: 3;
stroke: black;
fill: #BCBCBC;
cursor: help;
}
]]></style>
</defs>
<g transform="translate(.5 .5)">
<path d="M 20 38 v 20 m 10 -20 v 20 m -10 -10 h 20.5"></path>
<path d="M40 48h10"></path>
<g>
<path d="M50 48h0"></path>
<path d="M2120 48h0"></path>
<g class="terminal">
<path d="M50 48h0"></path>
<path d="M174 48h0"></path>
<rect x="50" y="37" width="124" height="22" rx="10" ry="10"></rect>
<text x="112" y="52">"CREATE DATA"</text>
</g>
<path d="M174 48h10"></path>
<path d="M184 48h10"></path>
<g class="non-terminal">
<path d="M194 48h0"></path>
<path d="M262 48h0"></path>
<rect x="194" y="37" width="68" height="22"></rect>
<a xlink:href="reuse_target.svg"><text x="228" y="52">Target</text>
</a>
</g>
<path d="M262 48h10"></path>
<g>
<path d="M272 48h0"></path>
<path d="M524 48h0"></path>
<path d="M272 48a10 10 0 0 0 10 -10v0a10 10 0 0 1 10 -10"></path>
<g>
<path d="M292 28h212"></path>
</g>
<path d="M504 28a10 10 0 0 1 10 10v0a10 10 0 0 0 10 10"></path>
<path d="M272 48h20"></path>
<g>
<path d="M292 48h0"></path>
<path d="M504 48h0"></path>
<g class="terminal">
<path d="M292 48h0"></path>
<path d="M416 48h0"></path>
<rect x="292" y="37" width="124" height="22" rx="10" ry="10"></rect>
<text x="354" y="52">"AREA HANDLE"</text>
</g>
<path d="M416 48h10"></path>
<path d="M426 48h10"></path>
<g class="non-terminal">
<path d="M436 48h0"></path>
<path d="M504 48h0"></path>
<rect x="436" y="37" width="68" height="22"></rect>
<a xlink:href="reuse_source.svg"><text x="470" y="52">Source</text>
</a>
</g>
</g>
<path d="M504 48h20"></path>
</g>
<g>
<path d="M524 48h0"></path>
<path d="M932 48h0"></path>
<path d="M524 48a10 10 0 0 0 10 -10v0a10 10 0 0 1 10 -10"></path>
<g>
<path d="M544 28h368"></path>
</g>
<path d="M912 28a10 10 0 0 1 10 10v0a10 10 0 0 0 10 10"></path>
<path d="M524 48h20"></path>
<g>
<path d="M544 48h0"></path>
<path d="M912 48h0"></path>
<g>
<path d="M544 48h0"></path>
<path d="M796 48h0"></path>
<path d="M544 48h20"></path>
<g class="terminal">
<path d="M564 48h0"></path>
<path d="M632 48h144"></path>
<rect x="564" y="37" width="68" height="22" rx="10" ry="10"></rect>
<text x="598" y="52">"LIKE"</text>
</g>
<path d="M776 48h20"></path>
<path d="M544 48a10 10 0 0 1 10 10v10a10 10 0 0 0 10 10"></path>
<g class="terminal">
<path d="M564 78h0"></path>
<path d="M632 78h144"></path>
<rect x="564" y="67" width="68" height="22" rx="10" ry="10"></rect>
<text x="598" y="82">"TYPE"</text>
</g>
<path d="M776 78a10 10 0 0 0 10 -10v-10a10 10 0 0 1 10 -10"></path>
<path d="M544 48a10 10 0 0 1 10 10v40a10 10 0 0 0 10 10"></path>
<g class="terminal">
<path d="M564 108h0"></path>
<path d="M688 108h88"></path>
<rect x="564" y="97" width="124" height="22" rx="10" ry="10"></rect>
<text x="626" y="112">"TYPE HANDLE"</text>
</g>
<path d="M776 108a10 10 0 0 0 10 -10v-40a10 10 0 0 1 10 -10"></path>
<path d="M544 48a10 10 0 0 1 10 10v70a10 10 0 0 0 10 10"></path>
<g class="terminal">
<path d="M564 138h0"></path>
<path d="M688 138h88"></path>
<rect x="564" y="127" width="124" height="22" rx="10" ry="10"></rect>
<text x="626" y="142">"TYPE REF TO"</text>
</g>
<path d="M776 138a10 10 0 0 0 10 -10v-70a10 10 0 0 1 10 -10"></path>
<path d="M544 48a10 10 0 0 1 10 10v100a10 10 0 0 0 10 10"></path>
<g class="terminal">
<path d="M564 168h0"></path>
<path d="M704 168h72"></path>
<rect x="564" y="157" width="140" height="22" rx="10" ry="10"></rect>
<text x="634" y="172">"LIKE TABLE OF"</text>
</g>
<path d="M776 168a10 10 0 0 0 10 -10v-100a10 10 0 0 1 10 -10"></path>
<path d="M544 48a10 10 0 0 1 10 10v130a10 10 0 0 0 10 10"></path>
<g class="terminal">
<path d="M564 198h0"></path>
<path d="M704 198h72"></path>
<rect x="564" y="187" width="140" height="22" rx="10" ry="10"></rect>
<text x="634" y="202">"TYPE TABLE OF"</text>
</g>
<path d="M776 198a10 10 0 0 0 10 -10v-130a10 10 0 0 1 10 -10"></path>
<path d="M544 48a10 10 0 0 1 10 10v160a10 10 0 0 0 10 10"></path>
<g class="terminal">
<path d="M564 228h0"></path>
<path d="M776 228h0"></path>
<rect x="564" y="217" width="212" height="22" rx="10" ry="10"></rect>
<text x="670" y="232">"TYPE STANDARD TABLE OF"</text>
</g>
<path d="M776 228a10 10 0 0 0 10 -10v-160a10 10 0 0 1 10 -10"></path>
<path d="M544 48a10 10 0 0 1 10 10v190a10 10 0 0 0 10 10"></path>
<g class="terminal">
<path d="M564 258h0"></path>
<path d="M760 258h16"></path>
<rect x="564" y="247" width="196" height="22" rx="10" ry="10"></rect>
<text x="662" y="262">"LIKE HASHED TABLE OF"</text>
</g>
<path d="M776 258a10 10 0 0 0 10 -10v-190a10 10 0 0 1 10 -10"></path>
<path d="M544 48a10 10 0 0 1 10 10v220a10 10 0 0 0 10 10"></path>
<g class="terminal">
<path d="M564 288h0"></path>
<path d="M760 288h16"></path>
<rect x="564" y="277" width="196" height="22" rx="10" ry="10"></rect>
<text x="662" y="292">"TYPE HASHED TABLE OF"</text>
</g>
<path d="M776 288a10 10 0 0 0 10 -10v-220a10 10 0 0 1 10 -10"></path>
<path d="M544 48a10 10 0 0 1 10 10v250a10 10 0 0 0 10 10"></path>
<g class="terminal">
<path d="M564 318h0"></path>
<path d="M776 318h0"></path>
<rect x="564" y="307" width="212" height="22" rx="10" ry="10"></rect>
<text x="670" y="322">"LIKE STANDARD TABLE OF"</text>
</g>
<path d="M776 318a10 10 0 0 0 10 -10v-250a10 10 0 0 1 10 -10"></path>
<path d="M544 48a10 10 0 0 1 10 10v280a10 10 0 0 0 10 10"></path>
<g class="terminal">
<path d="M564 348h0"></path>
<path d="M696 348h80"></path>
<rect x="564" y="337" width="132" height="22" rx="10" ry="10"></rect>
<text x="630" y="352">"LIKE LINE OF"</text>
</g>
<path d="M776 348a10 10 0 0 0 10 -10v-280a10 10 0 0 1 10 -10"></path>
<path d="M544 48a10 10 0 0 1 10 10v310a10 10 0 0 0 10 10"></path>
<g class="terminal">
<path d="M564 378h0"></path>
<path d="M696 378h80"></path>
<rect x="564" y="367" width="132" height="22" rx="10" ry="10"></rect>
<text x="630" y="382">"TYPE LINE OF"</text>
</g>
<path d="M776 378a10 10 0 0 0 10 -10v-310a10 10 0 0 1 10 -10"></path>
</g>
<g>
<path d="M796 48h0"></path>
<path d="M912 48h0"></path>
<path d="M796 48h20"></path>
<g class="non-terminal">
<path d="M816 48h0"></path>
<path d="M884 48h8"></path>
<rect x="816" y="37" width="68" height="22"></rect>
<a xlink:href="reuse_source.svg"><text x="850" y="52">Source</text>
</a>
</g>
<path d="M892 48h20"></path>
<path d="M796 48a10 10 0 0 1 10 10v10a10 10 0 0 0 10 10"></path>
<g class="non-terminal">
<path d="M816 78h0"></path>
<path d="M892 78h0"></path>
<rect x="816" y="67" width="76" height="22"></rect>
<a xlink:href="reuse_dynamic.svg"><text x="854" y="82">Dynamic</text>
</a>
</g>
<path d="M892 78a10 10 0 0 0 10 -10v-10a10 10 0 0 1 10 -10"></path>
</g>
</g>
<path d="M912 48h20"></path>
</g>
<g>
<path d="M932 48h0"></path>
<path d="M1420 48h0"></path>
<path d="M932 48a10 10 0 0 0 10 -10v-8a10 10 0 0 1 10 -10"></path>
<g>
<path d="M952 20h448"></path>
</g>
<path d="M1400 20a10 10 0 0 1 10 10v8a10 10 0 0 0 10 10"></path>
<path d="M932 48h20"></path>
<g>
<path d="M952 48h0"></path>
<path d="M1400 48h0"></path>
<g class="terminal">
<path d="M952 48h0"></path>
<path d="M1020 48h0"></path>
<rect x="952" y="37" width="68" height="22" rx="10" ry="10"></rect>
<text x="986" y="52">"WITH"</text>
</g>
<path d="M1020 48h10"></path>
<g>
<path d="M1030 48h0"></path>
<path d="M1400 48h0"></path>
<path d="M1030 48h20"></path>
<g>
<path d="M1050 48h0"></path>
<path d="M1380 48h0"></path>
<g>
<path d="M1050 48h0"></path>
<path d="M1246 48h0"></path>
<path d="M1050 48a10 10 0 0 0 10 -10v0a10 10 0 0 1 10 -10"></path>
<g>
<path d="M1070 28h156"></path>
</g>
<path d="M1226 28a10 10 0 0 1 10 10v0a10 10 0 0 0 10 10"></path>
<path d="M1050 48h20"></path>
<g>
<path d="M1070 48h0"></path>
<path d="M1226 48h0"></path>
<path d="M1070 48h20"></path>
<g class="terminal">
<path d="M1090 48h0"></path>
<path d="M1174 48h32"></path>
<rect x="1090" y="37" width="84" height="22" rx="10" ry="10"></rect>
<text x="1132" y="52">"UNIQUE"</text>
</g>
<path d="M1206 48h20"></path>
<path d="M1070 48a10 10 0 0 1 10 10v10a10 10 0 0 0 10 10"></path>
<g class="terminal">
<path d="M1090 78h0"></path>
<path d="M1206 78h0"></path>
<rect x="1090" y="67" width="116" height="22" rx="10" ry="10"></rect>
<text x="1148" y="82">"NON-UNIQUE"</text>
</g>
<path d="M1206 78a10 10 0 0 0 10 -10v-10a10 10 0 0 1 10 -10"></path>
</g>
<path d="M1226 48h20"></path>
</g>
<path d="M1246 48h10"></path>
<g class="terminal">
<path d="M1256 48h0"></path>
<path d="M1380 48h0"></path>
<rect x="1256" y="37" width="124" height="22" rx="10" ry="10"></rect>
<text x="1318" y="52">"DEFAULT KEY"</text>
</g>
</g>
<path d="M1380 48h20"></path>
<path d="M1030 48a10 10 0 0 1 10 10v40a10 10 0 0 0 10 10"></path>
<g>
<path d="M1050 108h0"></path>
<path d="M1372 108h8"></path>
<g>
<path d="M1050 108h0"></path>
<path d="M1206 108h0"></path>
<path d="M1050 108h20"></path>
<g class="terminal">
<path d="M1070 108h0"></path>
<path d="M1154 108h32"></path>
<rect x="1070" y="97" width="84" height="22" rx="10" ry="10"></rect>
<text x="1112" y="112">"UNIQUE"</text>
</g>
<path d="M1186 108h20"></path>
<path d="M1050 108a10 10 0 0 1 10 10v10a10 10 0 0 0 10 10"></path>
<g class="terminal">
<path d="M1070 138h0"></path>
<path d="M1186 138h0"></path>
<rect x="1070" y="127" width="116" height="22" rx="10" ry="10"></rect>
<text x="1128" y="142">"NON-UNIQUE"</text>
</g>
<path d="M1186 138a10 10 0 0 0 10 -10v-10a10 10 0 0 1 10 -10"></path>
</g>
<path d="M1206 108h10"></path>
<g class="terminal">
<path d="M1216 108h0"></path>
<path d="M1276 108h0"></path>
<rect x="1216" y="97" width="60" height="22" rx="10" ry="10"></rect>
<text x="1246" y="112">"KEY"</text>
</g>
<path d="M1276 108h10"></path>
<path d="M1286 108h10"></path>
<g class="non-terminal">
<path d="M1296 108h0"></path>
<path d="M1372 108h0"></path>
<rect x="1296" y="97" width="76" height="22"></rect>
<a xlink:href="reuse_dynamic.svg"><text x="1334" y="112">Dynamic</text>
</a>
</g>
</g>
<path d="M1380 108a10 10 0 0 0 10 -10v-40a10 10 0 0 1 10 -10"></path>
</g>
</g>
<path d="M1400 48h20"></path>
</g>
<g>
<path d="M1420 48h0"></path>
<path d="M1680 48h0"></path>
<path d="M1420 48a10 10 0 0 0 10 -10v0a10 10 0 0 1 10 -10"></path>
<g>
<path d="M1440 28h220"></path>
</g>
<path d="M1660 28a10 10 0 0 1 10 10v0a10 10 0 0 0 10 10"></path>
<path d="M1420 48h20"></path>
<g>
<path d="M1440 48h0"></path>
<path d="M1660 48h0"></path>
<g class="terminal">
<path d="M1440 48h0"></path>
<path d="M1572 48h0"></path>
<rect x="1440" y="37" width="132" height="22" rx="10" ry="10"></rect>
<text x="1506" y="52">"INITIAL SIZE"</text>
</g>
<path d="M1572 48h10"></path>
<path d="M1582 48h10"></path>
<g class="non-terminal">
<path d="M1592 48h0"></path>
<path d="M1660 48h0"></path>
<rect x="1592" y="37" width="68" height="22"></rect>
<a xlink:href="reuse_source.svg"><text x="1626" y="52">Source</text>
</a>
</g>
</g>
<path d="M1660 48h20"></path>
</g>
<g>
<path d="M1680 48h0"></path>
<path d="M1892 48h0"></path>
<path d="M1680 48a10 10 0 0 0 10 -10v0a10 10 0 0 1 10 -10"></path>
<g>
<path d="M1700 28h172"></path>
</g>
<path d="M1872 28a10 10 0 0 1 10 10v0a10 10 0 0 0 10 10"></path>
<path d="M1680 48h20"></path>
<g>
<path d="M1700 48h0"></path>
<path d="M1872 48h0"></path>
<g class="terminal">
<path d="M1700 48h0"></path>
<path d="M1784 48h0"></path>
<rect x="1700" y="37" width="84" height="22" rx="10" ry="10"></rect>
<text x="1742" y="52">"LENGTH"</text>
</g>
<path d="M1784 48h10"></path>
<path d="M1794 48h10"></path>
<g class="non-terminal">
<path d="M1804 48h0"></path>
<path d="M1872 48h0"></path>
<rect x="1804" y="37" width="68" height="22"></rect>
<a xlink:href="reuse_source.svg"><text x="1838" y="52">Source</text>
</a>
</g>
</g>
<path d="M1872 48h20"></path>
</g>
<g>
<path d="M1892 48h0"></path>
<path d="M2120 48h0"></path>
<path d="M1892 48a10 10 0 0 0 10 -10v0a10 10 0 0 1 10 -10"></path>
<g>
<path d="M1912 28h188"></path>
</g>
<path d="M2100 28a10 10 0 0 1 10 10v0a10 10 0 0 0 10 10"></path>
<path d="M1892 48h20"></path>
<g>
<path d="M1912 48h0"></path>
<path d="M2100 48h0"></path>
<g class="terminal">
<path d="M1912 48h0"></path>
<path d="M2012 48h0"></path>
<rect x="1912" y="37" width="100" height="22" rx="10" ry="10"></rect>
<text x="1962" y="52">"DECIMALS"</text>
</g>
<path d="M2012 48h10"></path>
<path d="M2022 48h10"></path>
<g class="non-terminal">
<path d="M2032 48h0"></path>
<path d="M2100 48h0"></path>
<rect x="2032" y="37" width="68" height="22"></rect>
<a xlink:href="reuse_source.svg"><text x="2066" y="52">Source</text>
</a>
</g>
</g>
<path d="M2100 48h20"></path>
</g>
</g>
<path d="M2120 48h10"></path>
<path d="M 2130 48 h 20 m -10 -10 v 20 m 10 -20 v 20"></path>
</g>
</svg>
