<svg xmlns="http://www.w3.org/2000/svg" xmlns:xlink="http://www.w3.org/1999/xlink" class="railroad-diagram" width="690" height="182" viewBox="0 0 690 182">
<defs>
<style type="text/css"><![CDATA[
path {
stroke-width: 3;
stroke: black;
fill: rgba(0,0,0,0);
}
text {
font: bold 14px monospace;
text-anchor: middle;
}
text.diagram-text {
font-size: 12px;
}
a {
fill: blue;
}
text.diagram-arrow {
font-size: 16px;
}
text.label {
text-anchor: start;
}
text.comment {
font: italic 12px monospace;
}
rect {
stroke-width: 3;
stroke: black;
fill: #BCBCBC;
}
path.diagram-text {
stroke-width: 3;
stroke: black;
fill: #BCBCBC;
cursor: help;
}
]]></style>
</defs>
<g transform="translate(.5 .5)">
<path d="M 20 21 v 20 m 10 -20 v 20 m -10 -10 h 20.5"></path>
<path d="M40 31h10"></path>
<g>
<path d="M50 31h0"></path>
<path d="M640 31h0"></path>
<g class="terminal">
<path d="M50 31h0"></path>
<path d="M174 31h0"></path>
<rect x="50" y="20" width="124" height="22" rx="10" ry="10"></rect>
<text x="112" y="35">"CREATE DATA"</text>
</g>
<path d="M174 31h10"></path>
<path d="M184 31h10"></path>
<g class="non-terminal">
<path d="M194 31h0"></path>
<path d="M262 31h0"></path>
<rect x="194" y="20" width="68" height="22"></rect>
<a xlink:href="reuse_target.svg"><text x="228" y="35">target</text>
</a>
</g>
<path d="M262 31h10"></path>
<g>
<path d="M272 31h0"></path>
<path d="M524 31h0"></path>
<path d="M272 31h20"></path>
<g class="terminal">
<path d="M292 31h72"></path>
<path d="M432 31h72"></path>
<rect x="364" y="20" width="68" height="22" rx="10" ry="10"></rect>
<text x="398" y="35">"LIKE"</text>
</g>
<path d="M504 31h20"></path>
<path d="M272 31a10 10 0 0 1 10 10v10a10 10 0 0 0 10 10"></path>
<g class="terminal">
<path d="M292 61h72"></path>
<path d="M432 61h72"></path>
<rect x="364" y="50" width="68" height="22" rx="10" ry="10"></rect>
<text x="398" y="65">"TYPE"</text>
</g>
<path d="M504 61a10 10 0 0 0 10 -10v-10a10 10 0 0 1 10 -10"></path>
<path d="M272 31a10 10 0 0 1 10 10v40a10 10 0 0 0 10 10"></path>
<g class="terminal">
<path d="M292 91h44"></path>
<path d="M460 91h44"></path>
<rect x="336" y="80" width="124" height="22" rx="10" ry="10"></rect>
<text x="398" y="95">"TYPE HANDLE"</text>
</g>
<path d="M504 91a10 10 0 0 0 10 -10v-40a10 10 0 0 1 10 -10"></path>
<path d="M272 31a10 10 0 0 1 10 10v70a10 10 0 0 0 10 10"></path>
<g class="terminal">
<path d="M292 121h0"></path>
<path d="M504 121h0"></path>
<rect x="292" y="110" width="212" height="22" rx="10" ry="10"></rect>
<text x="398" y="125">"TYPE STANDARD TABLE OF"</text>
</g>
<path d="M504 121a10 10 0 0 0 10 -10v-70a10 10 0 0 1 10 -10"></path>
<path d="M272 31a10 10 0 0 1 10 10v100a10 10 0 0 0 10 10"></path>
<g class="terminal">
<path d="M292 151h40"></path>
<path d="M464 151h40"></path>
<rect x="332" y="140" width="132" height="22" rx="10" ry="10"></rect>
<text x="398" y="155">"LIKE LINE OF"</text>
</g>
<path d="M504 151a10 10 0 0 0 10 -10v-100a10 10 0 0 1 10 -10"></path>
</g>
<g>
<path d="M524 31h0"></path>
<path d="M640 31h0"></path>
<path d="M524 31h20"></path>
<g class="non-terminal">
<path d="M544 31h4"></path>
<path d="M616 31h4"></path>
<rect x="548" y="20" width="68" height="22"></rect>
<a xlink:href="reuse_source.svg"><text x="582" y="35">source</text>
</a>
</g>
<path d="M620 31h20"></path>
<path d="M524 31a10 10 0 0 1 10 10v10a10 10 0 0 0 10 10"></path>
<g class="non-terminal">
<path d="M544 61h0"></path>
<path d="M620 61h0"></path>
<rect x="544" y="50" width="76" height="22"></rect>
<a xlink:href="reuse_dynamic.svg"><text x="582" y="65">dynamic</text>
</a>
</g>
<path d="M620 61a10 10 0 0 0 10 -10v-10a10 10 0 0 1 10 -10"></path>
</g>
</g>
<path d="M640 31h10"></path>
<path d="M 650 31 h 20 m -10 -10 v 20 m 10 -20 v 20"></path>
</g>
</svg>
