<svg xmlns="http://www.w3.org/2000/svg" xmlns:xlink="http://www.w3.org/1999/xlink" class="railroad-diagram" width="1560" height="101" viewBox="0 0 1560 101">
<defs>
<style type="text/css"><![CDATA[
path {
stroke-width: 3;
stroke: black;
fill: rgba(0,0,0,0);
}
text {
font: bold 14px monospace;
text-anchor: middle;
}
text.diagram-text {
font-size: 12px;
}
a {
fill: blue;
}
text.diagram-arrow {
font-size: 16px;
}
text.label {
text-anchor: start;
}
text.comment {
font: italic 12px monospace;
}
rect {
stroke-width: 3;
stroke: black;
fill: #BCBCBC;
}
path.diagram-text {
stroke-width: 3;
stroke: black;
fill: #BCBCBC;
cursor: help;
}
]]></style>
</defs>
<g transform="translate(.5 .5)">
<path d="M 20 30 v 20 m 10 -20 v 20 m -10 -10 h 20.5"></path>
<path d="M40 40h10"></path>
<g>
<path d="M50 40h0"></path>
<path d="M1510 40h0"></path>
<g class="terminal">
<path d="M50 40h0"></path>
<path d="M190 40h0"></path>
<rect x="50" y="29" width="140" height="22" rx="10" ry="10"></rect>
<text x="120" y="44">"CREATE OBJECT"</text>
</g>
<path d="M190 40h10"></path>
<path d="M200 40h10"></path>
<g class="non-terminal">
<path d="M210 40h0"></path>
<path d="M278 40h0"></path>
<rect x="210" y="29" width="68" height="22"></rect>
<a xlink:href="reuse_target.svg"><text x="244" y="44">Target</text>
</a>
</g>
<path d="M278 40h10"></path>
<g>
<path d="M288 40h0"></path>
<path d="M538 40h0"></path>
<path d="M288 40a10 10 0 0 0 10 -10v0a10 10 0 0 1 10 -10"></path>
<g>
<path d="M308 20h210"></path>
</g>
<path d="M518 20a10 10 0 0 1 10 10v0a10 10 0 0 0 10 10"></path>
<path d="M288 40h20"></path>
<g>
<path d="M308 40h0"></path>
<path d="M518 40h0"></path>
<g class="terminal">
<path d="M308 40h0"></path>
<path d="M376 40h0"></path>
<rect x="308" y="29" width="68" height="22" rx="10" ry="10"></rect>
<text x="342" y="44">"TYPE"</text>
</g>
<path d="M376 40h10"></path>
<g>
<path d="M386 40h0"></path>
<path d="M518 40h0"></path>
<path d="M386 40h20"></path>
<g class="non-terminal">
<path d="M406 40h0"></path>
<path d="M498 40h0"></path>
<rect x="406" y="29" width="92" height="22"></rect>
<a xlink:href="reuse_classname.svg"><text x="452" y="44">ClassName</text>
</a>
</g>
<path d="M498 40h20"></path>
<path d="M386 40a10 10 0 0 1 10 10v10a10 10 0 0 0 10 10"></path>
<g class="non-terminal">
<path d="M406 70h0"></path>
<path d="M482 70h16"></path>
<rect x="406" y="59" width="76" height="22"></rect>
<a xlink:href="reuse_dynamic.svg"><text x="444" y="74">Dynamic</text>
</a>
</g>
<path d="M498 70a10 10 0 0 0 10 -10v-10a10 10 0 0 1 10 -10"></path>
</g>
</g>
<path d="M518 40h20"></path>
</g>
<g>
<path d="M538 40h0"></path>
<path d="M790 40h0"></path>
<path d="M538 40a10 10 0 0 0 10 -10v0a10 10 0 0 1 10 -10"></path>
<g>
<path d="M558 20h212"></path>
</g>
<path d="M770 20a10 10 0 0 1 10 10v0a10 10 0 0 0 10 10"></path>
<path d="M538 40h20"></path>
<g>
<path d="M558 40h0"></path>
<path d="M770 40h0"></path>
<g class="terminal">
<path d="M558 40h0"></path>
<path d="M682 40h0"></path>
<rect x="558" y="29" width="124" height="22" rx="10" ry="10"></rect>
<text x="620" y="44">"AREA HANDLE"</text>
</g>
<path d="M682 40h10"></path>
<path d="M692 40h10"></path>
<g class="non-terminal">
<path d="M702 40h0"></path>
<path d="M770 40h0"></path>
<rect x="702" y="29" width="68" height="22"></rect>
<a xlink:href="reuse_source.svg"><text x="736" y="44">Source</text>
</a>
</g>
</g>
<path d="M770 40h20"></path>
</g>
<g>
<path d="M790 40h0"></path>
<path d="M1130 40h0"></path>
<path d="M790 40a10 10 0 0 0 10 -10v0a10 10 0 0 1 10 -10"></path>
<g>
<path d="M810 20h300"></path>
</g>
<path d="M1110 20a10 10 0 0 1 10 10v0a10 10 0 0 0 10 10"></path>
<path d="M790 40h20"></path>
<g>
<path d="M810 40h0"></path>
<path d="M1110 40h0"></path>
<path d="M810 40h20"></path>
<g>
<path d="M830 40h0"></path>
<path d="M1090 40h0"></path>
<g class="terminal">
<path d="M830 40h0"></path>
<path d="M938 40h0"></path>
<rect x="830" y="29" width="108" height="22" rx="10" ry="10"></rect>
<text x="884" y="44">"EXPORTING"</text>
</g>
<path d="M938 40h10"></path>
<path d="M948 40h10"></path>
<g class="non-terminal">
<path d="M958 40h0"></path>
<path d="M1090 40h0"></path>
<rect x="958" y="29" width="132" height="22"></rect>
<a xlink:href="reuse_parameterlists.svg"><text x="1024" y="44">ParameterListS</text>
</a>
</g>
</g>
<path d="M1090 40h20"></path>
<path d="M810 40a10 10 0 0 1 10 10v10a10 10 0 0 0 10 10"></path>
<g>
<path d="M830 70h0"></path>
<path d="M1074 70h16"></path>
<g class="terminal">
<path d="M830 70h0"></path>
<path d="M986 70h0"></path>
<rect x="830" y="59" width="156" height="22" rx="10" ry="10"></rect>
<text x="908" y="74">"PARAMETER-TABLE"</text>
</g>
<path d="M986 70h10"></path>
<path d="M996 70h10"></path>
<g class="non-terminal">
<path d="M1006 70h0"></path>
<path d="M1074 70h0"></path>
<rect x="1006" y="59" width="68" height="22"></rect>
<a xlink:href="reuse_source.svg"><text x="1040" y="74">Source</text>
</a>
</g>
</g>
<path d="M1090 70a10 10 0 0 0 10 -10v-10a10 10 0 0 1 10 -10"></path>
</g>
<path d="M1110 40h20"></path>
</g>
<g>
<path d="M1130 40h0"></path>
<path d="M1510 40h0"></path>
<path d="M1130 40a10 10 0 0 0 10 -10v0a10 10 0 0 1 10 -10"></path>
<g>
<path d="M1150 20h340"></path>
</g>
<path d="M1490 20a10 10 0 0 1 10 10v0a10 10 0 0 0 10 10"></path>
<path d="M1130 40h20"></path>
<g>
<path d="M1150 40h0"></path>
<path d="M1490 40h0"></path>
<g class="terminal">
<path d="M1150 40h0"></path>
<path d="M1266 40h0"></path>
<rect x="1150" y="29" width="116" height="22" rx="10" ry="10"></rect>
<text x="1208" y="44">"EXCEPTIONS"</text>
</g>
<path d="M1266 40h10"></path>
<path d="M1276 40h10"></path>
<g class="non-terminal">
<path d="M1286 40h0"></path>
<path d="M1490 40h0"></path>
<rect x="1286" y="29" width="204" height="22"></rect>
<a xlink:href="reuse_parameterlistexceptions.svg"><text x="1388" y="44">ParameterListExceptions</text>
</a>
</g>
</g>
<path d="M1490 40h20"></path>
</g>
</g>
<path d="M1510 40h10"></path>
<path d="M 1520 40 h 20 m -10 -10 v 20 m 10 -20 v 20"></path>
</g>
</svg>
