<svg xmlns="http://www.w3.org/2000/svg" xmlns:xlink="http://www.w3.org/1999/xlink" class="railroad-diagram" width="1902" height="371" viewBox="0 0 1902 371">
<defs>
<style type="text/css"><![CDATA[
path {
stroke-width: 3;
stroke: black;
fill: rgba(0,0,0,0);
}
text {
font: bold 14px monospace;
text-anchor: middle;
}
text.diagram-text {
font-size: 12px;
}
a {
fill: blue;
}
text.diagram-arrow {
font-size: 16px;
}
text.label {
text-anchor: start;
}
text.comment {
font: italic 12px monospace;
}
rect {
stroke-width: 3;
stroke: black;
fill: #BCBCBC;
}
path.diagram-text {
stroke-width: 3;
stroke: black;
fill: #BCBCBC;
cursor: help;
}
]]></style>
</defs>
<g transform="translate(.5 .5)">
<path d="M 20 30 v 20 m 10 -20 v 20 m -10 -10 h 20.5"></path>
<path d="M40 40h10"></path>
<g>
<path d="M50 40h0"></path>
<path d="M1852 40h0"></path>
<g class="terminal">
<path d="M50 40h0"></path>
<path d="M174 40h0"></path>
<rect x="50" y="29" width="124" height="22" rx="10" ry="10"></rect>
<text x="112" y="44">"CREATE DATA"</text>
</g>
<path d="M174 40h10"></path>
<path d="M184 40h10"></path>
<g class="non-terminal">
<path d="M194 40h0"></path>
<path d="M262 40h0"></path>
<rect x="194" y="29" width="68" height="22"></rect>
<a xlink:href="reuse_target.svg"><text x="228" y="44">Target</text>
</a>
</g>
<path d="M262 40h10"></path>
<g>
<path d="M272 40h0"></path>
<path d="M524 40h0"></path>
<path d="M272 40a10 10 0 0 0 10 -10v0a10 10 0 0 1 10 -10"></path>
<g>
<path d="M292 20h212"></path>
</g>
<path d="M504 20a10 10 0 0 1 10 10v0a10 10 0 0 0 10 10"></path>
<path d="M272 40h20"></path>
<g>
<path d="M292 40h0"></path>
<path d="M504 40h0"></path>
<g class="terminal">
<path d="M292 40h0"></path>
<path d="M416 40h0"></path>
<rect x="292" y="29" width="124" height="22" rx="10" ry="10"></rect>
<text x="354" y="44">"AREA HANDLE"</text>
</g>
<path d="M416 40h10"></path>
<path d="M426 40h10"></path>
<g class="non-terminal">
<path d="M436 40h0"></path>
<path d="M504 40h0"></path>
<rect x="436" y="29" width="68" height="22"></rect>
<a xlink:href="reuse_source.svg"><text x="470" y="44">Source</text>
</a>
</g>
</g>
<path d="M504 40h20"></path>
</g>
<g>
<path d="M524 40h0"></path>
<path d="M932 40h0"></path>
<path d="M524 40a10 10 0 0 0 10 -10v0a10 10 0 0 1 10 -10"></path>
<g>
<path d="M544 20h368"></path>
</g>
<path d="M912 20a10 10 0 0 1 10 10v0a10 10 0 0 0 10 10"></path>
<path d="M524 40h20"></path>
<g>
<path d="M544 40h0"></path>
<path d="M912 40h0"></path>
<g>
<path d="M544 40h0"></path>
<path d="M796 40h0"></path>
<path d="M544 40h20"></path>
<g class="terminal">
<path d="M564 40h0"></path>
<path d="M632 40h144"></path>
<rect x="564" y="29" width="68" height="22" rx="10" ry="10"></rect>
<text x="598" y="44">"LIKE"</text>
</g>
<path d="M776 40h20"></path>
<path d="M544 40a10 10 0 0 1 10 10v10a10 10 0 0 0 10 10"></path>
<g class="terminal">
<path d="M564 70h0"></path>
<path d="M632 70h144"></path>
<rect x="564" y="59" width="68" height="22" rx="10" ry="10"></rect>
<text x="598" y="74">"TYPE"</text>
</g>
<path d="M776 70a10 10 0 0 0 10 -10v-10a10 10 0 0 1 10 -10"></path>
<path d="M544 40a10 10 0 0 1 10 10v40a10 10 0 0 0 10 10"></path>
<g class="terminal">
<path d="M564 100h0"></path>
<path d="M688 100h88"></path>
<rect x="564" y="89" width="124" height="22" rx="10" ry="10"></rect>
<text x="626" y="104">"TYPE HANDLE"</text>
</g>
<path d="M776 100a10 10 0 0 0 10 -10v-40a10 10 0 0 1 10 -10"></path>
<path d="M544 40a10 10 0 0 1 10 10v70a10 10 0 0 0 10 10"></path>
<g class="terminal">
<path d="M564 130h0"></path>
<path d="M688 130h88"></path>
<rect x="564" y="119" width="124" height="22" rx="10" ry="10"></rect>
<text x="626" y="134">"TYPE REF TO"</text>
</g>
<path d="M776 130a10 10 0 0 0 10 -10v-70a10 10 0 0 1 10 -10"></path>
<path d="M544 40a10 10 0 0 1 10 10v100a10 10 0 0 0 10 10"></path>
<g class="terminal">
<path d="M564 160h0"></path>
<path d="M704 160h72"></path>
<rect x="564" y="149" width="140" height="22" rx="10" ry="10"></rect>
<text x="634" y="164">"LIKE TABLE OF"</text>
</g>
<path d="M776 160a10 10 0 0 0 10 -10v-100a10 10 0 0 1 10 -10"></path>
<path d="M544 40a10 10 0 0 1 10 10v130a10 10 0 0 0 10 10"></path>
<g class="terminal">
<path d="M564 190h0"></path>
<path d="M704 190h72"></path>
<rect x="564" y="179" width="140" height="22" rx="10" ry="10"></rect>
<text x="634" y="194">"TYPE TABLE OF"</text>
</g>
<path d="M776 190a10 10 0 0 0 10 -10v-130a10 10 0 0 1 10 -10"></path>
<path d="M544 40a10 10 0 0 1 10 10v160a10 10 0 0 0 10 10"></path>
<g class="terminal">
<path d="M564 220h0"></path>
<path d="M776 220h0"></path>
<rect x="564" y="209" width="212" height="22" rx="10" ry="10"></rect>
<text x="670" y="224">"TYPE STANDARD TABLE OF"</text>
</g>
<path d="M776 220a10 10 0 0 0 10 -10v-160a10 10 0 0 1 10 -10"></path>
<path d="M544 40a10 10 0 0 1 10 10v190a10 10 0 0 0 10 10"></path>
<g class="terminal">
<path d="M564 250h0"></path>
<path d="M760 250h16"></path>
<rect x="564" y="239" width="196" height="22" rx="10" ry="10"></rect>
<text x="662" y="254">"LIKE HASHED TABLE OF"</text>
</g>
<path d="M776 250a10 10 0 0 0 10 -10v-190a10 10 0 0 1 10 -10"></path>
<path d="M544 40a10 10 0 0 1 10 10v220a10 10 0 0 0 10 10"></path>
<g class="terminal">
<path d="M564 280h0"></path>
<path d="M776 280h0"></path>
<rect x="564" y="269" width="212" height="22" rx="10" ry="10"></rect>
<text x="670" y="284">"LIKE STANDARD TABLE OF"</text>
</g>
<path d="M776 280a10 10 0 0 0 10 -10v-220a10 10 0 0 1 10 -10"></path>
<path d="M544 40a10 10 0 0 1 10 10v250a10 10 0 0 0 10 10"></path>
<g class="terminal">
<path d="M564 310h0"></path>
<path d="M696 310h80"></path>
<rect x="564" y="299" width="132" height="22" rx="10" ry="10"></rect>
<text x="630" y="314">"LIKE LINE OF"</text>
</g>
<path d="M776 310a10 10 0 0 0 10 -10v-250a10 10 0 0 1 10 -10"></path>
<path d="M544 40a10 10 0 0 1 10 10v280a10 10 0 0 0 10 10"></path>
<g class="terminal">
<path d="M564 340h0"></path>
<path d="M696 340h80"></path>
<rect x="564" y="329" width="132" height="22" rx="10" ry="10"></rect>
<text x="630" y="344">"TYPE LINE OF"</text>
</g>
<path d="M776 340a10 10 0 0 0 10 -10v-280a10 10 0 0 1 10 -10"></path>
</g>
<g>
<path d="M796 40h0"></path>
<path d="M912 40h0"></path>
<path d="M796 40h20"></path>
<g class="non-terminal">
<path d="M816 40h0"></path>
<path d="M884 40h8"></path>
<rect x="816" y="29" width="68" height="22"></rect>
<a xlink:href="reuse_source.svg"><text x="850" y="44">Source</text>
</a>
</g>
<path d="M892 40h20"></path>
<path d="M796 40a10 10 0 0 1 10 10v10a10 10 0 0 0 10 10"></path>
<g class="non-terminal">
<path d="M816 70h0"></path>
<path d="M892 70h0"></path>
<rect x="816" y="59" width="76" height="22"></rect>
<a xlink:href="reuse_dynamic.svg"><text x="854" y="74">Dynamic</text>
</a>
</g>
<path d="M892 70a10 10 0 0 0 10 -10v-10a10 10 0 0 1 10 -10"></path>
</g>
</g>
<path d="M912 40h20"></path>
</g>
<g>
<path d="M932 40h0"></path>
<path d="M1412 40h0"></path>
<path d="M932 40a10 10 0 0 0 10 -10v0a10 10 0 0 1 10 -10"></path>
<g>
<path d="M952 20h440"></path>
</g>
<path d="M1392 20a10 10 0 0 1 10 10v0a10 10 0 0 0 10 10"></path>
<path d="M932 40h20"></path>
<g>
<path d="M952 40h0"></path>
<path d="M1392 40h0"></path>
<g class="terminal">
<path d="M952 40h0"></path>
<path d="M1020 40h0"></path>
<rect x="952" y="29" width="68" height="22" rx="10" ry="10"></rect>
<text x="986" y="44">"WITH"</text>
</g>
<path d="M1020 40h10"></path>
<g>
<path d="M1030 40h0"></path>
<path d="M1392 40h0"></path>
<path d="M1030 40h20"></path>
<g class="terminal">
<path d="M1050 40h0"></path>
<path d="M1174 40h198"></path>
<rect x="1050" y="29" width="124" height="22" rx="10" ry="10"></rect>
<text x="1112" y="44">"DEFAULT KEY"</text>
</g>
<path d="M1372 40h20"></path>
<path d="M1030 40a10 10 0 0 1 10 10v10a10 10 0 0 0 10 10"></path>
<g>
<path d="M1050 70h0"></path>
<path d="M1372 70h0"></path>
<g>
<path d="M1050 70h0"></path>
<path d="M1206 70h0"></path>
<path d="M1050 70h20"></path>
<g class="terminal">
<path d="M1070 70h0"></path>
<path d="M1154 70h32"></path>
<rect x="1070" y="59" width="84" height="22" rx="10" ry="10"></rect>
<text x="1112" y="74">"UNIQUE"</text>
</g>
<path d="M1186 70h20"></path>
<path d="M1050 70a10 10 0 0 1 10 10v10a10 10 0 0 0 10 10"></path>
<g class="terminal">
<path d="M1070 100h0"></path>
<path d="M1186 100h0"></path>
<rect x="1070" y="89" width="116" height="22" rx="10" ry="10"></rect>
<text x="1128" y="104">"NON-UNIQUE"</text>
</g>
<path d="M1186 100a10 10 0 0 0 10 -10v-10a10 10 0 0 1 10 -10"></path>
</g>
<path d="M1206 70h10"></path>
<g class="terminal">
<path d="M1216 70h0"></path>
<path d="M1276 70h0"></path>
<rect x="1216" y="59" width="60" height="22" rx="10" ry="10"></rect>
<text x="1246" y="74">"KEY"</text>
</g>
<path d="M1276 70h10"></path>
<path d="M1286 70h10"></path>
<g class="non-terminal">
<path d="M1296 70h0"></path>
<path d="M1372 70h0"></path>
<rect x="1296" y="59" width="76" height="22"></rect>
<a xlink:href="reuse_dynamic.svg"><text x="1334" y="74">Dynamic</text>
</a>
</g>
</g>
<path d="M1372 70a10 10 0 0 0 10 -10v-10a10 10 0 0 1 10 -10"></path>
</g>
</g>
<path d="M1392 40h20"></path>
</g>
<g>
<path d="M1412 40h0"></path>
<path d="M1624 40h0"></path>
<path d="M1412 40a10 10 0 0 0 10 -10v0a10 10 0 0 1 10 -10"></path>
<g>
<path d="M1432 20h172"></path>
</g>
<path d="M1604 20a10 10 0 0 1 10 10v0a10 10 0 0 0 10 10"></path>
<path d="M1412 40h20"></path>
<g>
<path d="M1432 40h0"></path>
<path d="M1604 40h0"></path>
<g class="terminal">
<path d="M1432 40h0"></path>
<path d="M1516 40h0"></path>
<rect x="1432" y="29" width="84" height="22" rx="10" ry="10"></rect>
<text x="1474" y="44">"LENGTH"</text>
</g>
<path d="M1516 40h10"></path>
<path d="M1526 40h10"></path>
<g class="non-terminal">
<path d="M1536 40h0"></path>
<path d="M1604 40h0"></path>
<rect x="1536" y="29" width="68" height="22"></rect>
<a xlink:href="reuse_source.svg"><text x="1570" y="44">Source</text>
</a>
</g>
</g>
<path d="M1604 40h20"></path>
</g>
<g>
<path d="M1624 40h0"></path>
<path d="M1852 40h0"></path>
<path d="M1624 40a10 10 0 0 0 10 -10v0a10 10 0 0 1 10 -10"></path>
<g>
<path d="M1644 20h188"></path>
</g>
<path d="M1832 20a10 10 0 0 1 10 10v0a10 10 0 0 0 10 10"></path>
<path d="M1624 40h20"></path>
<g>
<path d="M1644 40h0"></path>
<path d="M1832 40h0"></path>
<g class="terminal">
<path d="M1644 40h0"></path>
<path d="M1744 40h0"></path>
<rect x="1644" y="29" width="100" height="22" rx="10" ry="10"></rect>
<text x="1694" y="44">"DECIMALS"</text>
</g>
<path d="M1744 40h10"></path>
<path d="M1754 40h10"></path>
<g class="non-terminal">
<path d="M1764 40h0"></path>
<path d="M1832 40h0"></path>
<rect x="1764" y="29" width="68" height="22"></rect>
<a xlink:href="reuse_source.svg"><text x="1798" y="44">Source</text>
</a>
</g>
</g>
<path d="M1832 40h20"></path>
</g>
</g>
<path d="M1852 40h10"></path>
<path d="M 1862 40 h 20 m -10 -10 v 20 m 10 -20 v 20"></path>
</g>
</svg>
