<svg xmlns="http://www.w3.org/2000/svg" xmlns:xlink="http://www.w3.org/1999/xlink" class="railroad-diagram" width="1334" height="251" viewBox="0 0 1334 251">
<defs>
<style type="text/css"><![CDATA[
path {
stroke-width: 3;
stroke: black;
fill: rgba(0,0,0,0);
}
text {
font: bold 14px monospace;
text-anchor: middle;
}
text.diagram-text {
font-size: 12px;
}
a {
fill: blue;
}
text.diagram-arrow {
font-size: 16px;
}
text.label {
text-anchor: start;
}
text.comment {
font: italic 12px monospace;
}
rect {
stroke-width: 3;
stroke: black;
fill: #BCBCBC;
}
path.diagram-text {
stroke-width: 3;
stroke: black;
fill: #BCBCBC;
cursor: help;
}
]]></style>
</defs>
<g transform="translate(.5 .5)">
<path d="M 20 30 v 20 m 10 -20 v 20 m -10 -10 h 20.5"></path>
<path d="M40 40h10"></path>
<g>
<path d="M50 40h0"></path>
<path d="M1284 40h0"></path>
<g class="terminal">
<path d="M50 40h0"></path>
<path d="M174 40h0"></path>
<rect x="50" y="29" width="124" height="22" rx="10" ry="10"></rect>
<text x="112" y="44">"CREATE DATA"</text>
</g>
<path d="M174 40h10"></path>
<path d="M184 40h10"></path>
<g class="non-terminal">
<path d="M194 40h0"></path>
<path d="M262 40h0"></path>
<rect x="194" y="29" width="68" height="22"></rect>
<a xlink:href="reuse_target.svg"><text x="228" y="44">Target</text>
</a>
</g>
<path d="M262 40h10"></path>
<g>
<path d="M272 40h0"></path>
<path d="M524 40h0"></path>
<path d="M272 40h20"></path>
<g class="terminal">
<path d="M292 40h0"></path>
<path d="M360 40h144"></path>
<rect x="292" y="29" width="68" height="22" rx="10" ry="10"></rect>
<text x="326" y="44">"LIKE"</text>
</g>
<path d="M504 40h20"></path>
<path d="M272 40a10 10 0 0 1 10 10v10a10 10 0 0 0 10 10"></path>
<g class="terminal">
<path d="M292 70h0"></path>
<path d="M360 70h144"></path>
<rect x="292" y="59" width="68" height="22" rx="10" ry="10"></rect>
<text x="326" y="74">"TYPE"</text>
</g>
<path d="M504 70a10 10 0 0 0 10 -10v-10a10 10 0 0 1 10 -10"></path>
<path d="M272 40a10 10 0 0 1 10 10v40a10 10 0 0 0 10 10"></path>
<g class="terminal">
<path d="M292 100h0"></path>
<path d="M416 100h88"></path>
<rect x="292" y="89" width="124" height="22" rx="10" ry="10"></rect>
<text x="354" y="104">"TYPE HANDLE"</text>
</g>
<path d="M504 100a10 10 0 0 0 10 -10v-40a10 10 0 0 1 10 -10"></path>
<path d="M272 40a10 10 0 0 1 10 10v70a10 10 0 0 0 10 10"></path>
<g class="terminal">
<path d="M292 130h0"></path>
<path d="M416 130h88"></path>
<rect x="292" y="119" width="124" height="22" rx="10" ry="10"></rect>
<text x="354" y="134">"TYPE REF TO"</text>
</g>
<path d="M504 130a10 10 0 0 0 10 -10v-70a10 10 0 0 1 10 -10"></path>
<path d="M272 40a10 10 0 0 1 10 10v100a10 10 0 0 0 10 10"></path>
<g class="terminal">
<path d="M292 160h0"></path>
<path d="M504 160h0"></path>
<rect x="292" y="149" width="212" height="22" rx="10" ry="10"></rect>
<text x="398" y="164">"TYPE STANDARD TABLE OF"</text>
</g>
<path d="M504 160a10 10 0 0 0 10 -10v-100a10 10 0 0 1 10 -10"></path>
<path d="M272 40a10 10 0 0 1 10 10v130a10 10 0 0 0 10 10"></path>
<g class="terminal">
<path d="M292 190h0"></path>
<path d="M504 190h0"></path>
<rect x="292" y="179" width="212" height="22" rx="10" ry="10"></rect>
<text x="398" y="194">"LIKE STANDARD TABLE OF"</text>
</g>
<path d="M504 190a10 10 0 0 0 10 -10v-130a10 10 0 0 1 10 -10"></path>
<path d="M272 40a10 10 0 0 1 10 10v160a10 10 0 0 0 10 10"></path>
<g class="terminal">
<path d="M292 220h0"></path>
<path d="M424 220h80"></path>
<rect x="292" y="209" width="132" height="22" rx="10" ry="10"></rect>
<text x="358" y="224">"LIKE LINE OF"</text>
</g>
<path d="M504 220a10 10 0 0 0 10 -10v-160a10 10 0 0 1 10 -10"></path>
</g>
<g>
<path d="M524 40h0"></path>
<path d="M640 40h0"></path>
<path d="M524 40h20"></path>
<g class="non-terminal">
<path d="M544 40h0"></path>
<path d="M612 40h8"></path>
<rect x="544" y="29" width="68" height="22"></rect>
<a xlink:href="reuse_source.svg"><text x="578" y="44">Source</text>
</a>
</g>
<path d="M620 40h20"></path>
<path d="M524 40a10 10 0 0 1 10 10v10a10 10 0 0 0 10 10"></path>
<g class="non-terminal">
<path d="M544 70h0"></path>
<path d="M620 70h0"></path>
<rect x="544" y="59" width="76" height="22"></rect>
<a xlink:href="reuse_dynamic.svg"><text x="582" y="74">Dynamic</text>
</a>
</g>
<path d="M620 70a10 10 0 0 0 10 -10v-10a10 10 0 0 1 10 -10"></path>
</g>
<g>
<path d="M640 40h0"></path>
<path d="M844 40h0"></path>
<path d="M640 40a10 10 0 0 0 10 -10v0a10 10 0 0 1 10 -10"></path>
<g>
<path d="M660 20h164"></path>
</g>
<path d="M824 20a10 10 0 0 1 10 10v0a10 10 0 0 0 10 10"></path>
<path d="M640 40h20"></path>
<g class="terminal">
<path d="M660 40h0"></path>
<path d="M824 40h0"></path>
<rect x="660" y="29" width="164" height="22" rx="10" ry="10"></rect>
<text x="742" y="44">"WITH DEFAULT KEY"</text>
</g>
<path d="M824 40h20"></path>
</g>
<g>
<path d="M844 40h0"></path>
<path d="M1056 40h0"></path>
<path d="M844 40a10 10 0 0 0 10 -10v0a10 10 0 0 1 10 -10"></path>
<g>
<path d="M864 20h172"></path>
</g>
<path d="M1036 20a10 10 0 0 1 10 10v0a10 10 0 0 0 10 10"></path>
<path d="M844 40h20"></path>
<g>
<path d="M864 40h0"></path>
<path d="M1036 40h0"></path>
<g class="terminal">
<path d="M864 40h0"></path>
<path d="M948 40h0"></path>
<rect x="864" y="29" width="84" height="22" rx="10" ry="10"></rect>
<text x="906" y="44">"LENGTH"</text>
</g>
<path d="M948 40h10"></path>
<path d="M958 40h10"></path>
<g class="non-terminal">
<path d="M968 40h0"></path>
<path d="M1036 40h0"></path>
<rect x="968" y="29" width="68" height="22"></rect>
<a xlink:href="reuse_source.svg"><text x="1002" y="44">Source</text>
</a>
</g>
</g>
<path d="M1036 40h20"></path>
</g>
<g>
<path d="M1056 40h0"></path>
<path d="M1284 40h0"></path>
<path d="M1056 40a10 10 0 0 0 10 -10v0a10 10 0 0 1 10 -10"></path>
<g>
<path d="M1076 20h188"></path>
</g>
<path d="M1264 20a10 10 0 0 1 10 10v0a10 10 0 0 0 10 10"></path>
<path d="M1056 40h20"></path>
<g>
<path d="M1076 40h0"></path>
<path d="M1264 40h0"></path>
<g class="terminal">
<path d="M1076 40h0"></path>
<path d="M1176 40h0"></path>
<rect x="1076" y="29" width="100" height="22" rx="10" ry="10"></rect>
<text x="1126" y="44">"DECIMALS"</text>
</g>
<path d="M1176 40h10"></path>
<path d="M1186 40h10"></path>
<g class="non-terminal">
<path d="M1196 40h0"></path>
<path d="M1264 40h0"></path>
<rect x="1196" y="29" width="68" height="22"></rect>
<a xlink:href="reuse_source.svg"><text x="1230" y="44">Source</text>
</a>
</g>
</g>
<path d="M1264 40h20"></path>
</g>
</g>
<path d="M1284 40h10"></path>
<path d="M 1294 40 h 20 m -10 -10 v 20 m 10 -20 v 20"></path>
</g>
</svg>
