<svg xmlns="http://www.w3.org/2000/svg" xmlns:xlink="http://www.w3.org/1999/xlink" class="railroad-diagram" width="1348" height="101" viewBox="0 0 1348 101">
<defs>
<style type="text/css"><![CDATA[
path {
stroke-width: 3;
stroke: black;
fill: rgba(0,0,0,0);
}
text {
font: bold 14px monospace;
text-anchor: middle;
}
text.diagram-text {
font-size: 12px;
}
a {
fill: blue;
}
text.diagram-arrow {
font-size: 16px;
}
text.label {
text-anchor: start;
}
text.comment {
font: italic 12px monospace;
}
rect {
stroke-width: 3;
stroke: black;
fill: #BCBCBC;
}
path.diagram-text {
stroke-width: 3;
stroke: black;
fill: #BCBCBC;
cursor: help;
}
]]></style>
</defs>
<g transform="translate(.5 .5)">
<path d="M 20 30 v 20 m 10 -20 v 20 m -10 -10 h 20.5"></path>
<path d="M40 40h10"></path>
<g>
<path d="M50 40h0"></path>
<path d="M1298 40h0"></path>
<g class="terminal">
<path d="M50 40h0"></path>
<path d="M190 40h0"></path>
<rect x="50" y="29" width="140" height="22" rx="10" ry="10"></rect>
<text x="120" y="44">"CREATE OBJECT"</text>
</g>
<path d="M190 40h10"></path>
<path d="M200 40h10"></path>
<g class="non-terminal">
<path d="M210 40h0"></path>
<path d="M278 40h0"></path>
<rect x="210" y="29" width="68" height="22"></rect>
<a xlink:href="reuse_target.svg"><text x="244" y="44">target</text>
</a>
</g>
<path d="M278 40h10"></path>
<g>
<path d="M288 40h0"></path>
<path d="M546 40h0"></path>
<path d="M288 40a10 10 0 0 0 10 -10v0a10 10 0 0 1 10 -10"></path>
<g>
<path d="M308 20h218"></path>
</g>
<path d="M526 20a10 10 0 0 1 10 10v0a10 10 0 0 0 10 10"></path>
<path d="M288 40h20"></path>
<g>
<path d="M308 40h0"></path>
<path d="M526 40h0"></path>
<g class="terminal">
<path d="M308 40h0"></path>
<path d="M376 40h0"></path>
<rect x="308" y="29" width="68" height="22" rx="10" ry="10"></rect>
<text x="342" y="44">"TYPE"</text>
</g>
<path d="M376 40h10"></path>
<g>
<path d="M386 40h0"></path>
<path d="M526 40h0"></path>
<path d="M386 40h20"></path>
<g class="non-terminal">
<path d="M406 40h0"></path>
<path d="M506 40h0"></path>
<rect x="406" y="29" width="100" height="22"></rect>
<a xlink:href="reuse_class_name.svg"><text x="456" y="44">class&#95;name</text>
</a>
</g>
<path d="M506 40h20"></path>
<path d="M386 40a10 10 0 0 1 10 10v10a10 10 0 0 0 10 10"></path>
<g class="non-terminal">
<path d="M406 70h0"></path>
<path d="M482 70h24"></path>
<rect x="406" y="59" width="76" height="22"></rect>
<a xlink:href="reuse_dynamic.svg"><text x="444" y="74">dynamic</text>
</a>
</g>
<path d="M506 70a10 10 0 0 0 10 -10v-10a10 10 0 0 1 10 -10"></path>
</g>
</g>
<path d="M526 40h20"></path>
</g>
<g>
<path d="M546 40h0"></path>
<path d="M902 40h0"></path>
<path d="M546 40a10 10 0 0 0 10 -10v0a10 10 0 0 1 10 -10"></path>
<g>
<path d="M566 20h316"></path>
</g>
<path d="M882 20a10 10 0 0 1 10 10v0a10 10 0 0 0 10 10"></path>
<path d="M546 40h20"></path>
<g>
<path d="M566 40h0"></path>
<path d="M882 40h0"></path>
<path d="M566 40h20"></path>
<g>
<path d="M586 40h0"></path>
<path d="M862 40h0"></path>
<g class="terminal">
<path d="M586 40h0"></path>
<path d="M694 40h0"></path>
<rect x="586" y="29" width="108" height="22" rx="10" ry="10"></rect>
<text x="640" y="44">"EXPORTING"</text>
</g>
<path d="M694 40h10"></path>
<path d="M704 40h10"></path>
<g class="non-terminal">
<path d="M714 40h0"></path>
<path d="M862 40h0"></path>
<rect x="714" y="29" width="148" height="22"></rect>
<a xlink:href="reuse_parameter_list_s.svg"><text x="788" y="44">parameter&#95;list&#95;s</text>
</a>
</g>
</g>
<path d="M862 40h20"></path>
<path d="M566 40a10 10 0 0 1 10 10v10a10 10 0 0 0 10 10"></path>
<g>
<path d="M586 70h0"></path>
<path d="M830 70h32"></path>
<g class="terminal">
<path d="M586 70h0"></path>
<path d="M742 70h0"></path>
<rect x="586" y="59" width="156" height="22" rx="10" ry="10"></rect>
<text x="664" y="74">"PARAMETER-TABLE"</text>
</g>
<path d="M742 70h10"></path>
<path d="M752 70h10"></path>
<g class="non-terminal">
<path d="M762 70h0"></path>
<path d="M830 70h0"></path>
<rect x="762" y="59" width="68" height="22"></rect>
<a xlink:href="reuse_source.svg"><text x="796" y="74">source</text>
</a>
</g>
</g>
<path d="M862 70a10 10 0 0 0 10 -10v-10a10 10 0 0 1 10 -10"></path>
</g>
<path d="M882 40h20"></path>
</g>
<g>
<path d="M902 40h0"></path>
<path d="M1298 40h0"></path>
<path d="M902 40a10 10 0 0 0 10 -10v0a10 10 0 0 1 10 -10"></path>
<g>
<path d="M922 20h356"></path>
</g>
<path d="M1278 20a10 10 0 0 1 10 10v0a10 10 0 0 0 10 10"></path>
<path d="M902 40h20"></path>
<g>
<path d="M922 40h0"></path>
<path d="M1278 40h0"></path>
<g class="terminal">
<path d="M922 40h0"></path>
<path d="M1038 40h0"></path>
<rect x="922" y="29" width="116" height="22" rx="10" ry="10"></rect>
<text x="980" y="44">"EXCEPTIONS"</text>
</g>
<path d="M1038 40h10"></path>
<path d="M1048 40h10"></path>
<g class="non-terminal">
<path d="M1058 40h0"></path>
<path d="M1278 40h0"></path>
<rect x="1058" y="29" width="220" height="22"></rect>
<a xlink:href="reuse_parameter_list_exceptions.svg"><text x="1168" y="44">parameter&#95;list&#95;exceptions</text>
</a>
</g>
</g>
<path d="M1278 40h20"></path>
</g>
</g>
<path d="M1298 40h10"></path>
<path d="M 1308 40 h 20 m -10 -10 v 20 m 10 -20 v 20"></path>
</g>
</svg>
