<svg xmlns="http://www.w3.org/2000/svg" xmlns:xlink="http://www.w3.org/1999/xlink" class="railroad-diagram" width="1380" height="131" viewBox="0 0 1380 131">
<defs>
<style type="text/css"><![CDATA[
path {
stroke-width: 3;
stroke: black;
fill: rgba(0,0,0,0);
}
text {
font: bold 14px monospace;
text-anchor: middle;
}
text.diagram-text {
font-size: 12px;
}
a {
fill: blue;
}
text.diagram-arrow {
font-size: 16px;
}
text.label {
text-anchor: start;
}
text.comment {
font: italic 12px monospace;
}
rect {
stroke-width: 3;
stroke: black;
fill: #BCBCBC;
}
path.diagram-text {
stroke-width: 3;
stroke: black;
fill: #BCBCBC;
cursor: help;
}
]]></style>
</defs>
<g transform="translate(.5 .5)">
<path d="M 20 30 v 20 m 10 -20 v 20 m -10 -10 h 20.5"></path>
<path d="M40 40h10"></path>
<g>
<path d="M50 40h0"></path>
<path d="M1330 40h0"></path>
<g class="terminal">
<path d="M50 40h0"></path>
<path d="M190 40h0"></path>
<rect x="50" y="29" width="140" height="22" rx="10" ry="10"></rect>
<text x="120" y="44">"CREATE OBJECT"</text>
</g>
<path d="M190 40h10"></path>
<path d="M200 40h10"></path>
<g class="non-terminal">
<path d="M210 40h0"></path>
<path d="M278 40h0"></path>
<rect x="210" y="29" width="68" height="22"></rect>
<a xlink:href="reuse_target.svg"><text x="244" y="44">Target</text>
</a>
</g>
<path d="M278 40h10"></path>
<g>
<path d="M288 40h0"></path>
<path d="M610 40h0"></path>
<path d="M288 40a10 10 0 0 0 10 -10v0a10 10 0 0 1 10 -10"></path>
<g>
<path d="M308 20h282"></path>
</g>
<path d="M590 20a10 10 0 0 1 10 10v0a10 10 0 0 0 10 10"></path>
<path d="M288 40h20"></path>
<g>
<path d="M308 40h0"></path>
<path d="M590 40h0"></path>
<path d="M338 40h10"></path>
<g>
<path d="M348 40h0"></path>
<path d="M558 40h2"></path>
<g class="terminal">
<path d="M348 40h0"></path>
<path d="M416 40h0"></path>
<rect x="348" y="29" width="68" height="22" rx="10" ry="10"></rect>
<text x="382" y="44">"TYPE"</text>
</g>
<path d="M416 40h10"></path>
<g>
<path d="M426 40h0"></path>
<path d="M558 40h0"></path>
<path d="M426 40h20"></path>
<g class="non-terminal">
<path d="M446 40h0"></path>
<path d="M538 40h0"></path>
<rect x="446" y="29" width="92" height="22"></rect>
<a xlink:href="reuse_classname.svg"><text x="492" y="44">ClassName</text>
</a>
</g>
<path d="M538 40h20"></path>
<path d="M426 40a10 10 0 0 1 10 10v10a10 10 0 0 0 10 10"></path>
<g class="non-terminal">
<path d="M446 70h0"></path>
<path d="M522 70h16"></path>
<rect x="446" y="59" width="76" height="22"></rect>
<a xlink:href="reuse_dynamic.svg"><text x="484" y="74">Dynamic</text>
</a>
</g>
<path d="M538 70a10 10 0 0 0 10 -10v-10a10 10 0 0 1 10 -10"></path>
</g>
</g>
<path d="M560 40h10"></path>
<path d="M338 40v50a10 10 0 0 0 10 10"></path>
<g>
<path d="M348 100h0"></path>
<path d="M560 100h0"></path>
<g class="terminal">
<path d="M348 100h0"></path>
<path d="M472 100h0"></path>
<rect x="348" y="89" width="124" height="22" rx="10" ry="10"></rect>
<text x="410" y="104">"AREA HANDLE"</text>
</g>
<path d="M472 100h10"></path>
<path d="M482 100h10"></path>
<g class="non-terminal">
<path d="M492 100h0"></path>
<path d="M560 100h0"></path>
<rect x="492" y="89" width="68" height="22"></rect>
<a xlink:href="reuse_source.svg"><text x="526" y="104">Source</text>
</a>
</g>
</g>
<path d="M560 100a10 10 0 0 0 10 -10v-50"></path>
<g class="diagram-text">
<title>take one or more branches, once each, in any order</title>
<path d="M 338 30 h -26 a 4 4 0 0 0 -4 4 v 12 a 4 4 0 0 0 4 4 h 26 z" class="diagram-text"></path>
<text x="323" y="44" class="diagram-text">1+</text>
<path d="M 570 30 h 16 a 4 4 0 0 1 4 4 v 12 a 4 4 0 0 1 -4 4 h -16 z" class="diagram-text"></path>
<path d="M 577 38 a 4 4 0 1 0 6 -1 m 2.75 -1 h -4 v 4 m 0 -3 h 2" style="stroke-width: 1.75"></path>
</g>
</g>
<path d="M590 40h20"></path>
</g>
<g>
<path d="M610 40h0"></path>
<path d="M950 40h0"></path>
<path d="M610 40a10 10 0 0 0 10 -10v0a10 10 0 0 1 10 -10"></path>
<g>
<path d="M630 20h300"></path>
</g>
<path d="M930 20a10 10 0 0 1 10 10v0a10 10 0 0 0 10 10"></path>
<path d="M610 40h20"></path>
<g>
<path d="M630 40h0"></path>
<path d="M930 40h0"></path>
<path d="M630 40h20"></path>
<g>
<path d="M650 40h0"></path>
<path d="M910 40h0"></path>
<g class="terminal">
<path d="M650 40h0"></path>
<path d="M758 40h0"></path>
<rect x="650" y="29" width="108" height="22" rx="10" ry="10"></rect>
<text x="704" y="44">"EXPORTING"</text>
</g>
<path d="M758 40h10"></path>
<path d="M768 40h10"></path>
<g class="non-terminal">
<path d="M778 40h0"></path>
<path d="M910 40h0"></path>
<rect x="778" y="29" width="132" height="22"></rect>
<a xlink:href="reuse_parameterlists.svg"><text x="844" y="44">ParameterListS</text>
</a>
</g>
</g>
<path d="M910 40h20"></path>
<path d="M630 40a10 10 0 0 1 10 10v10a10 10 0 0 0 10 10"></path>
<g>
<path d="M650 70h0"></path>
<path d="M894 70h16"></path>
<g class="terminal">
<path d="M650 70h0"></path>
<path d="M806 70h0"></path>
<rect x="650" y="59" width="156" height="22" rx="10" ry="10"></rect>
<text x="728" y="74">"PARAMETER-TABLE"</text>
</g>
<path d="M806 70h10"></path>
<path d="M816 70h10"></path>
<g class="non-terminal">
<path d="M826 70h0"></path>
<path d="M894 70h0"></path>
<rect x="826" y="59" width="68" height="22"></rect>
<a xlink:href="reuse_source.svg"><text x="860" y="74">Source</text>
</a>
</g>
</g>
<path d="M910 70a10 10 0 0 0 10 -10v-10a10 10 0 0 1 10 -10"></path>
</g>
<path d="M930 40h20"></path>
</g>
<g>
<path d="M950 40h0"></path>
<path d="M1330 40h0"></path>
<path d="M950 40a10 10 0 0 0 10 -10v0a10 10 0 0 1 10 -10"></path>
<g>
<path d="M970 20h340"></path>
</g>
<path d="M1310 20a10 10 0 0 1 10 10v0a10 10 0 0 0 10 10"></path>
<path d="M950 40h20"></path>
<g>
<path d="M970 40h0"></path>
<path d="M1310 40h0"></path>
<g class="terminal">
<path d="M970 40h0"></path>
<path d="M1086 40h0"></path>
<rect x="970" y="29" width="116" height="22" rx="10" ry="10"></rect>
<text x="1028" y="44">"EXCEPTIONS"</text>
</g>
<path d="M1086 40h10"></path>
<path d="M1096 40h10"></path>
<g class="non-terminal">
<path d="M1106 40h0"></path>
<path d="M1310 40h0"></path>
<rect x="1106" y="29" width="204" height="22"></rect>
<a xlink:href="reuse_parameterlistexceptions.svg"><text x="1208" y="44">ParameterListExceptions</text>
</a>
</g>
</g>
<path d="M1310 40h20"></path>
</g>
</g>
<path d="M1330 40h10"></path>
<path d="M 1340 40 h 20 m -10 -10 v 20 m 10 -20 v 20"></path>
</g>
</svg>
