<svg xmlns="http://www.w3.org/2000/svg" xmlns:xlink="http://www.w3.org/1999/xlink" class="railroad-diagram" width="1308" height="101" viewBox="0 0 1308 101">
<defs>
<style type="text/css"><![CDATA[
path {
stroke-width: 3;
stroke: black;
fill: rgba(0,0,0,0);
}
text {
font: bold 14px monospace;
text-anchor: middle;
}
text.diagram-text {
font-size: 12px;
}
a {
fill: blue;
}
text.diagram-arrow {
font-size: 16px;
}
text.label {
text-anchor: start;
}
text.comment {
font: italic 12px monospace;
}
rect {
stroke-width: 3;
stroke: black;
fill: #BCBCBC;
}
path.diagram-text {
stroke-width: 3;
stroke: black;
fill: #BCBCBC;
cursor: help;
}
]]></style>
</defs>
<g transform="translate(.5 .5)">
<path d="M 20 30 v 20 m 10 -20 v 20 m -10 -10 h 20.5"></path>
<path d="M40 40h10"></path>
<g>
<path d="M50 40h0"></path>
<path d="M1258 40h0"></path>
<g class="terminal">
<path d="M50 40h0"></path>
<path d="M190 40h0"></path>
<rect x="50" y="29" width="140" height="22" rx="10" ry="10"></rect>
<text x="120" y="44">"CREATE OBJECT"</text>
</g>
<path d="M190 40h10"></path>
<path d="M200 40h10"></path>
<g class="non-terminal">
<path d="M210 40h0"></path>
<path d="M278 40h0"></path>
<rect x="210" y="29" width="68" height="22"></rect>
<a xlink:href="reuse_Target.svg"><text x="244" y="44">Target</text>
</a>
</g>
<path d="M278 40h10"></path>
<g>
<path d="M288 40h0"></path>
<path d="M538 40h0"></path>
<path d="M288 40a10 10 0 0 0 10 -10v0a10 10 0 0 1 10 -10"></path>
<g>
<path d="M308 20h210"></path>
</g>
<path d="M518 20a10 10 0 0 1 10 10v0a10 10 0 0 0 10 10"></path>
<path d="M288 40h20"></path>
<g>
<path d="M308 40h0"></path>
<path d="M518 40h0"></path>
<g class="terminal">
<path d="M308 40h0"></path>
<path d="M376 40h0"></path>
<rect x="308" y="29" width="68" height="22" rx="10" ry="10"></rect>
<text x="342" y="44">"TYPE"</text>
</g>
<path d="M376 40h10"></path>
<g>
<path d="M386 40h0"></path>
<path d="M518 40h0"></path>
<path d="M386 40h20"></path>
<g class="non-terminal">
<path d="M406 40h0"></path>
<path d="M498 40h0"></path>
<rect x="406" y="29" width="92" height="22"></rect>
<a xlink:href="reuse_ClassName.svg"><text x="452" y="44">ClassName</text>
</a>
</g>
<path d="M498 40h20"></path>
<path d="M386 40a10 10 0 0 1 10 10v10a10 10 0 0 0 10 10"></path>
<g class="non-terminal">
<path d="M406 70h0"></path>
<path d="M482 70h16"></path>
<rect x="406" y="59" width="76" height="22"></rect>
<a xlink:href="reuse_Dynamic.svg"><text x="444" y="74">Dynamic</text>
</a>
</g>
<path d="M498 70a10 10 0 0 0 10 -10v-10a10 10 0 0 1 10 -10"></path>
</g>
</g>
<path d="M518 40h20"></path>
</g>
<g>
<path d="M538 40h0"></path>
<path d="M878 40h0"></path>
<path d="M538 40a10 10 0 0 0 10 -10v0a10 10 0 0 1 10 -10"></path>
<g>
<path d="M558 20h300"></path>
</g>
<path d="M858 20a10 10 0 0 1 10 10v0a10 10 0 0 0 10 10"></path>
<path d="M538 40h20"></path>
<g>
<path d="M558 40h0"></path>
<path d="M858 40h0"></path>
<path d="M558 40h20"></path>
<g>
<path d="M578 40h0"></path>
<path d="M838 40h0"></path>
<g class="terminal">
<path d="M578 40h0"></path>
<path d="M686 40h0"></path>
<rect x="578" y="29" width="108" height="22" rx="10" ry="10"></rect>
<text x="632" y="44">"EXPORTING"</text>
</g>
<path d="M686 40h10"></path>
<path d="M696 40h10"></path>
<g class="non-terminal">
<path d="M706 40h0"></path>
<path d="M838 40h0"></path>
<rect x="706" y="29" width="132" height="22"></rect>
<a xlink:href="reuse_ParameterListS.svg"><text x="772" y="44">ParameterListS</text>
</a>
</g>
</g>
<path d="M838 40h20"></path>
<path d="M558 40a10 10 0 0 1 10 10v10a10 10 0 0 0 10 10"></path>
<g>
<path d="M578 70h0"></path>
<path d="M822 70h16"></path>
<g class="terminal">
<path d="M578 70h0"></path>
<path d="M734 70h0"></path>
<rect x="578" y="59" width="156" height="22" rx="10" ry="10"></rect>
<text x="656" y="74">"PARAMETER-TABLE"</text>
</g>
<path d="M734 70h10"></path>
<path d="M744 70h10"></path>
<g class="non-terminal">
<path d="M754 70h0"></path>
<path d="M822 70h0"></path>
<rect x="754" y="59" width="68" height="22"></rect>
<a xlink:href="reuse_Source.svg"><text x="788" y="74">Source</text>
</a>
</g>
</g>
<path d="M838 70a10 10 0 0 0 10 -10v-10a10 10 0 0 1 10 -10"></path>
</g>
<path d="M858 40h20"></path>
</g>
<g>
<path d="M878 40h0"></path>
<path d="M1258 40h0"></path>
<path d="M878 40a10 10 0 0 0 10 -10v0a10 10 0 0 1 10 -10"></path>
<g>
<path d="M898 20h340"></path>
</g>
<path d="M1238 20a10 10 0 0 1 10 10v0a10 10 0 0 0 10 10"></path>
<path d="M878 40h20"></path>
<g>
<path d="M898 40h0"></path>
<path d="M1238 40h0"></path>
<g class="terminal">
<path d="M898 40h0"></path>
<path d="M1014 40h0"></path>
<rect x="898" y="29" width="116" height="22" rx="10" ry="10"></rect>
<text x="956" y="44">"EXCEPTIONS"</text>
</g>
<path d="M1014 40h10"></path>
<path d="M1024 40h10"></path>
<g class="non-terminal">
<path d="M1034 40h0"></path>
<path d="M1238 40h0"></path>
<rect x="1034" y="29" width="204" height="22"></rect>
<a xlink:href="reuse_ParameterListExceptions.svg"><text x="1136" y="44">ParameterListExceptions</text>
</a>
</g>
</g>
<path d="M1238 40h20"></path>
</g>
</g>
<path d="M1258 40h10"></path>
<path d="M 1268 40 h 20 m -10 -10 v 20 m 10 -20 v 20"></path>
</g>
</svg>
