<?xml version="1.0" encoding="UTF-8" standalone="no"?>
<!DOCTYPE svg PUBLIC "-//W3C//DTD SVG 1.1//EN"
 "http://www.w3.org/Graphics/SVG/1.1/DTD/svg11.dtd">
<!-- Generated by graphviz version 2.38.0 (20140413.2041)
 -->
<!-- Title: data Pages: 1 -->
<svg width="1156pt" height="1268pt"
 viewBox="0.00 0.00 1155.91 1268.00" xmlns="http://www.w3.org/2000/svg" xmlns:xlink="http://www.w3.org/1999/xlink">
<g id="graph0" class="graph" transform="scale(1 1) rotate(0) translate(4 1264)">
<title>data</title>
<polygon fill="white" stroke="none" points="-4,4 -4,-1264 1151.91,-1264 1151.91,4 -4,4"/>
<!-- start -->
<g id="node1" class="node"><title>start</title>
<ellipse fill="none" stroke="black" cx="878" cy="-1242" rx="29.049" ry="18"/>
<text text-anchor="middle" x="878" y="-1237.8" font-family="Times,serif" font-size="14.00">Start</text>
</g>
<!-- node36 -->
<g id="node38" class="node"><title>node36</title>
<ellipse fill="none" stroke="black" cx="878" cy="-1170" rx="91.3709" ry="18"/>
<text text-anchor="middle" x="878" y="-1165.8" font-family="Times,serif" font-size="14.00">^(CLASS&#45;)?DATA$</text>
</g>
<!-- start&#45;&gt;node36 -->
<g id="edge86" class="edge"><title>start&#45;&gt;node36</title>
<path fill="none" stroke="black" d="M878,-1223.7C878,-1215.98 878,-1206.71 878,-1198.11"/>
<polygon fill="black" stroke="black" points="881.5,-1198.1 878,-1188.1 874.5,-1198.1 881.5,-1198.1"/>
</g>
<!-- end -->
<g id="node2" class="node"><title>end</title>
<ellipse fill="none" stroke="black" cx="572" cy="-18" rx="27" ry="18"/>
<text text-anchor="middle" x="572" y="-13.8" font-family="Times,serif" font-size="14.00">End</text>
</g>
<!-- node1 -->
<g id="node3" class="node"><title>node1</title>
<ellipse fill="none" stroke="black" cx="316" cy="-90" rx="28.008" ry="18"/>
<text text-anchor="middle" x="316" y="-85.8" font-family="Times,serif" font-size="14.00">^.+$</text>
</g>
<!-- node1&#45;&gt;end -->
<g id="edge1" class="edge"><title>node1&#45;&gt;end</title>
<path fill="none" stroke="black" d="M341.482,-82.0322C387.722,-69.3884 485.475,-42.6592 537.588,-28.4094"/>
<polygon fill="black" stroke="black" points="538.651,-31.7474 547.374,-25.7337 536.805,-24.9953 538.651,-31.7474"/>
</g>
<!-- node2 -->
<g id="node4" class="node"><title>node2</title>
<ellipse fill="none" stroke="black" cx="279" cy="-162" rx="51.7554" ry="18"/>
<text text-anchor="middle" x="279" y="-157.8" font-family="Times,serif" font-size="14.00">&quot;VALUE&quot;</text>
</g>
<!-- node2&#45;&gt;node1 -->
<g id="edge2" class="edge"><title>node2&#45;&gt;node1</title>
<path fill="none" stroke="black" d="M287.957,-144.055C292.338,-135.767 297.702,-125.618 302.562,-116.424"/>
<polygon fill="black" stroke="black" points="305.802,-117.784 307.381,-107.307 299.613,-114.512 305.802,-117.784"/>
</g>
<!-- node3 -->
<g id="node5" class="node"><title>node3</title>
<ellipse fill="none" stroke="black" cx="279" cy="-234" rx="75.4512" ry="18"/>
<text text-anchor="middle" x="279" y="-229.8" font-family="Times,serif" font-size="14.00">&quot;READ&#45;ONLY&quot;</text>
</g>
<!-- node3&#45;&gt;end -->
<g id="edge4" class="edge"><title>node3&#45;&gt;end</title>
<path fill="none" stroke="black" d="M297.914,-216.534C333.024,-186.305 411.158,-120.608 482,-72 501.608,-58.5462 524.744,-44.9681 542.649,-34.9236"/>
<polygon fill="black" stroke="black" points="544.447,-37.9286 551.489,-30.0124 541.047,-31.8096 544.447,-37.9286"/>
</g>
<!-- node3&#45;&gt;node2 -->
<g id="edge3" class="edge"><title>node3&#45;&gt;node2</title>
<path fill="none" stroke="black" d="M279,-215.697C279,-207.983 279,-198.712 279,-190.112"/>
<polygon fill="black" stroke="black" points="282.5,-190.104 279,-180.104 275.5,-190.104 282.5,-190.104"/>
</g>
<!-- node4 -->
<g id="node6" class="node"><title>node4</title>
<ellipse fill="none" stroke="black" cx="435" cy="-306" rx="33.2023" ry="18"/>
<text text-anchor="middle" x="435" y="-301.8" font-family="Times,serif" font-size="14.00">^\d+$</text>
</g>
<!-- node4&#45;&gt;end -->
<g id="edge7" class="edge"><title>node4&#45;&gt;end</title>
<path fill="none" stroke="black" d="M438.555,-288.091C447.498,-248.104 473.589,-145.562 520,-72 527.598,-59.9566 538.322,-48.438 548.059,-39.234"/>
<polygon fill="black" stroke="black" points="550.543,-41.7053 555.577,-32.3829 545.828,-36.5313 550.543,-41.7053"/>
</g>
<!-- node4&#45;&gt;node2 -->
<g id="edge6" class="edge"><title>node4&#45;&gt;node2</title>
<path fill="none" stroke="black" d="M424.403,-288.882C411.439,-269.955 388.102,-238.317 363,-216 348.672,-203.262 330.946,-191.592 315.476,-182.464"/>
<polygon fill="black" stroke="black" points="317.083,-179.351 306.67,-177.395 313.591,-185.417 317.083,-179.351"/>
</g>
<!-- node4&#45;&gt;node3 -->
<g id="edge5" class="edge"><title>node4&#45;&gt;node3</title>
<path fill="none" stroke="black" d="M410.281,-293.908C386.662,-283.31 350.556,-267.109 322.184,-254.377"/>
<polygon fill="black" stroke="black" points="323.444,-251.107 312.887,-250.206 320.578,-257.493 323.444,-251.107"/>
</g>
<!-- node5 -->
<g id="node7" class="node"><title>node5</title>
<ellipse fill="none" stroke="black" cx="362" cy="-378" rx="68.0279" ry="18"/>
<text text-anchor="middle" x="362" y="-373.8" font-family="Times,serif" font-size="14.00">&quot;DECIMALS&quot;</text>
</g>
<!-- node5&#45;&gt;node4 -->
<g id="edge8" class="edge"><title>node5&#45;&gt;node4</title>
<path fill="none" stroke="black" d="M379.3,-360.411C389.071,-351.041 401.408,-339.211 411.987,-329.067"/>
<polygon fill="black" stroke="black" points="414.522,-331.486 419.317,-322.038 409.677,-326.433 414.522,-331.486"/>
</g>
<!-- node6 -->
<g id="node8" class="node"><title>node6</title>
<ellipse fill="none" stroke="black" cx="491" cy="-450" rx="33.2023" ry="18"/>
<text text-anchor="middle" x="491" y="-445.8" font-family="Times,serif" font-size="14.00">^\d+$</text>
</g>
<!-- node6&#45;&gt;end -->
<g id="edge12" class="edge"><title>node6&#45;&gt;end</title>
<path fill="none" stroke="black" d="M499.495,-432.444C512.027,-406.445 534,-354.138 534,-307 534,-307 534,-307 534,-161 534,-119.406 549.403,-73.217 560.596,-45.1433"/>
<polygon fill="black" stroke="black" points="563.928,-46.2418 564.492,-35.662 557.454,-43.5807 563.928,-46.2418"/>
</g>
<!-- node6&#45;&gt;node2 -->
<g id="edge11" class="edge"><title>node6&#45;&gt;node2</title>
<path fill="none" stroke="black" d="M493.516,-431.884C497.197,-401.174 501.213,-335.492 477,-288 447.115,-229.384 375.876,-194.921 327.518,-177.501"/>
<polygon fill="black" stroke="black" points="328.465,-174.124 317.87,-174.141 326.163,-180.735 328.465,-174.124"/>
</g>
<!-- node6&#45;&gt;node3 -->
<g id="edge10" class="edge"><title>node6&#45;&gt;node3</title>
<path fill="none" stroke="black" d="M483.646,-432.368C474.802,-413.521 458.665,-382.504 439,-360 438.663,-359.614 354.418,-293.854 308.325,-257.882"/>
<polygon fill="black" stroke="black" points="310.228,-254.928 300.191,-251.535 305.921,-260.446 310.228,-254.928"/>
</g>
<!-- node6&#45;&gt;node5 -->
<g id="edge9" class="edge"><title>node6&#45;&gt;node5</title>
<path fill="none" stroke="black" d="M468.234,-436.647C449.163,-426.298 421.56,-411.319 399.271,-399.225"/>
<polygon fill="black" stroke="black" points="400.856,-396.102 390.397,-394.409 397.517,-402.255 400.856,-396.102"/>
</g>
<!-- node7 -->
<g id="node9" class="node"><title>node7</title>
<ellipse fill="none" stroke="black" cx="466" cy="-522" rx="57.554" ry="18"/>
<text text-anchor="middle" x="466" y="-517.8" font-family="Times,serif" font-size="14.00">&quot;LENGTH&quot;</text>
</g>
<!-- node7&#45;&gt;node6 -->
<g id="edge13" class="edge"><title>node7&#45;&gt;node6</title>
<path fill="none" stroke="black" d="M472.052,-504.055C474.908,-496.059 478.382,-486.331 481.572,-477.4"/>
<polygon fill="black" stroke="black" points="484.937,-478.384 485.004,-467.789 478.344,-476.029 484.937,-478.384"/>
</g>
<!-- node8 -->
<g id="node10" class="node"><title>node8</title>
<ellipse fill="none" stroke="black" cx="329" cy="-594" rx="35.4874" ry="18"/>
<text text-anchor="middle" x="329" y="-589.8" font-family="Times,serif" font-size="14.00">^\w+$</text>
</g>
<!-- node8&#45;&gt;end -->
<g id="edge18" class="edge"><title>node8&#45;&gt;end</title>
<path fill="none" stroke="black" d="M337.748,-576.205C349.137,-556.007 370.945,-522.517 399,-504 450.467,-470.03 489.939,-512.143 533,-468 584.411,-415.298 572,-380.625 572,-307 572,-307 572,-307 572,-161 572,-120.996 572,-74.6528 572,-46.0798"/>
<polygon fill="black" stroke="black" points="575.5,-46.0492 572,-36.0493 568.5,-46.0493 575.5,-46.0492"/>
</g>
<!-- node8&#45;&gt;node2 -->
<g id="edge17" class="edge"><title>node8&#45;&gt;node2</title>
<path fill="none" stroke="black" d="M319.04,-576.415C290.969,-528.38 212.143,-384.152 195,-252 192.942,-236.133 187.274,-230.011 195,-216 203.771,-200.096 219.544,-188.307 235.072,-179.939"/>
<polygon fill="black" stroke="black" points="236.758,-183.009 244.132,-175.402 233.624,-176.75 236.758,-183.009"/>
</g>
<!-- node8&#45;&gt;node3 -->
<g id="edge16" class="edge"><title>node8&#45;&gt;node3</title>
<path fill="none" stroke="black" d="M324.114,-576.058C314.595,-542.196 293.734,-463.599 285,-396 278.972,-349.349 278.275,-294.511 278.506,-262.375"/>
<polygon fill="black" stroke="black" points="282.009,-262.043 278.619,-252.005 275.01,-261.966 282.009,-262.043"/>
</g>
<!-- node8&#45;&gt;node5 -->
<g id="edge15" class="edge"><title>node8&#45;&gt;node5</title>
<path fill="none" stroke="black" d="M331.645,-575.849C337.353,-538.832 350.869,-451.181 357.777,-406.386"/>
<polygon fill="black" stroke="black" points="361.278,-406.649 359.343,-396.232 354.359,-405.582 361.278,-406.649"/>
</g>
<!-- node8&#45;&gt;node7 -->
<g id="edge14" class="edge"><title>node8&#45;&gt;node7</title>
<path fill="none" stroke="black" d="M353.177,-580.647C373.929,-570.044 404.19,-554.582 428.15,-542.34"/>
<polygon fill="black" stroke="black" points="430.008,-545.32 437.321,-537.654 426.823,-539.087 430.008,-545.32"/>
</g>
<!-- node9 -->
<g id="node11" class="node"><title>node9</title>
<ellipse fill="none" stroke="black" cx="395" cy="-666" rx="62.7907" ry="18"/>
<text text-anchor="middle" x="395" y="-661.8" font-family="Times,serif" font-size="14.00">&quot;DEFAULT&quot;</text>
</g>
<!-- node9&#45;&gt;node8 -->
<g id="edge19" class="edge"><title>node9&#45;&gt;node8</title>
<path fill="none" stroke="black" d="M379.359,-648.411C370.817,-639.351 360.105,-627.99 350.759,-618.078"/>
<polygon fill="black" stroke="black" points="353.031,-615.386 343.625,-610.511 347.938,-620.188 353.031,-615.386"/>
</g>
<!-- node10 -->
<g id="node12" class="node"><title>node10</title>
<ellipse fill="none" stroke="black" cx="226" cy="-738" rx="92.4512" ry="18"/>
<text text-anchor="middle" x="226" y="-733.8" font-family="Times,serif" font-size="14.00">^\w+((&#45;&gt;|=&gt;|&#45;)w+)*$</text>
</g>
<!-- node10&#45;&gt;end -->
<g id="edge25" class="edge"><title>node10&#45;&gt;end</title>
<path fill="none" stroke="black" d="M208.258,-720.073C198.668,-710.222 187.155,-697.177 179,-684 160.845,-654.665 162.392,-644.196 150,-612 98.129,-477.232 38,-451.406 38,-307 38,-307 38,-307 38,-161 38,-57.9863 413.838,-27.8748 534.905,-20.8475"/>
<polygon fill="black" stroke="black" points="535.365,-24.3273 545.153,-20.2729 534.973,-17.3382 535.365,-24.3273"/>
</g>
<!-- node10&#45;&gt;node2 -->
<g id="edge24" class="edge"><title>node10&#45;&gt;node2</title>
<path fill="none" stroke="black" d="M216.644,-720.084C189.726,-669.781 114,-516.085 114,-379 114,-379 114,-379 114,-305 114,-241.401 185.298,-200.056 234.158,-179.19"/>
<polygon fill="black" stroke="black" points="235.697,-182.341 243.603,-175.289 233.025,-175.871 235.697,-182.341"/>
</g>
<!-- node10&#45;&gt;node3 -->
<g id="edge23" class="edge"><title>node10&#45;&gt;node3</title>
<path fill="none" stroke="black" d="M227.824,-719.72C235.66,-645.499 266.499,-353.404 276.118,-262.294"/>
<polygon fill="black" stroke="black" points="279.614,-262.52 277.183,-252.207 272.653,-261.785 279.614,-262.52"/>
</g>
<!-- node10&#45;&gt;node5 -->
<g id="edge22" class="edge"><title>node10&#45;&gt;node5</title>
<path fill="none" stroke="black" d="M234.095,-719.949C245.783,-693.72 266,-641.614 266,-595 266,-595 266,-595 266,-521 266,-472.311 305.215,-427.854 333.518,-402.108"/>
<polygon fill="black" stroke="black" points="335.988,-404.596 341.169,-395.355 331.356,-399.348 335.988,-404.596"/>
</g>
<!-- node10&#45;&gt;node7 -->
<g id="edge21" class="edge"><title>node10&#45;&gt;node7</title>
<path fill="none" stroke="black" d="M242.97,-720.282C261.912,-701.897 293.754,-671.806 323,-648 344.237,-630.713 351.946,-629.509 373,-612 397.958,-591.245 424.533,-565.391 442.856,-546.905"/>
<polygon fill="black" stroke="black" points="445.654,-549.052 450.175,-539.471 440.665,-544.142 445.654,-549.052"/>
</g>
<!-- node10&#45;&gt;node9 -->
<g id="edge20" class="edge"><title>node10&#45;&gt;node9</title>
<path fill="none" stroke="black" d="M263.507,-721.465C289.516,-710.692 324.235,-696.311 351.466,-685.032"/>
<polygon fill="black" stroke="black" points="352.86,-688.243 360.759,-681.183 350.181,-681.776 352.86,-688.243"/>
</g>
<!-- node11 -->
<g id="node13" class="node"><title>node11</title>
<ellipse fill="none" stroke="black" cx="255" cy="-810" rx="66.8445" ry="18"/>
<text text-anchor="middle" x="255" y="-805.8" font-family="Times,serif" font-size="14.00">&quot;RANGE OF&quot;</text>
</g>
<!-- node11&#45;&gt;node10 -->
<g id="edge26" class="edge"><title>node11&#45;&gt;node10</title>
<path fill="none" stroke="black" d="M247.98,-792.055C244.716,-784.176 240.755,-774.617 237.1,-765.794"/>
<polygon fill="black" stroke="black" points="240.218,-764.174 233.157,-756.275 233.751,-766.853 240.218,-764.174"/>
</g>
<!-- node12 -->
<g id="node14" class="node"><title>node12</title>
<ellipse fill="none" stroke="black" cx="236" cy="-882" rx="51.8154" ry="18"/>
<text text-anchor="middle" x="236" y="-877.8" font-family="Times,serif" font-size="14.00">&quot;REF TO&quot;</text>
</g>
<!-- node12&#45;&gt;node10 -->
<g id="edge28" class="edge"><title>node12&#45;&gt;node10</title>
<path fill="none" stroke="black" d="M212.093,-865.954C199.715,-856.692 185.8,-843.609 179,-828 172.609,-813.332 173.323,-806.959 179,-792 183.076,-781.26 190.435,-771.302 198.138,-762.984"/>
<polygon fill="black" stroke="black" points="200.673,-765.399 205.225,-755.832 195.7,-760.472 200.673,-765.399"/>
</g>
<!-- node12&#45;&gt;node11 -->
<g id="edge27" class="edge"><title>node12&#45;&gt;node11</title>
<path fill="none" stroke="black" d="M240.599,-864.055C242.715,-856.261 245.277,-846.822 247.65,-838.079"/>
<polygon fill="black" stroke="black" points="251.069,-838.843 250.311,-828.275 244.314,-837.009 251.069,-838.843"/>
</g>
<!-- node13 -->
<g id="node15" class="node"><title>node13</title>
<ellipse fill="none" stroke="black" cx="311" cy="-954" rx="55.8075" ry="18"/>
<text text-anchor="middle" x="311" y="-949.8" font-family="Times,serif" font-size="14.00">&quot;LINE OF&quot;</text>
</g>
<!-- node13&#45;&gt;node10 -->
<g id="edge31" class="edge"><title>node13&#45;&gt;node10</title>
<path fill="none" stroke="black" d="M319.667,-935.994C334.185,-904.888 359.196,-837.817 331,-792 321.248,-776.153 305.134,-764.872 288.423,-756.915"/>
<polygon fill="black" stroke="black" points="289.678,-753.643 279.115,-752.828 286.864,-760.053 289.678,-753.643"/>
</g>
<!-- node13&#45;&gt;node11 -->
<g id="edge30" class="edge"><title>node13&#45;&gt;node11</title>
<path fill="none" stroke="black" d="M310.865,-935.881C310.147,-917.412 307.297,-887.494 297,-864 292.5,-853.733 285.514,-843.751 278.522,-835.271"/>
<polygon fill="black" stroke="black" points="281.097,-832.897 271.898,-827.64 275.81,-837.486 281.097,-832.897"/>
</g>
<!-- node13&#45;&gt;node12 -->
<g id="edge29" class="edge"><title>node13&#45;&gt;node12</title>
<path fill="none" stroke="black" d="M293.605,-936.765C283.855,-927.665 271.531,-916.162 260.786,-906.134"/>
<polygon fill="black" stroke="black" points="262.999,-903.412 253.301,-899.147 258.223,-908.529 262.999,-903.412"/>
</g>
<!-- node14 -->
<g id="node16" class="node"><title>node14</title>
<ellipse fill="none" stroke="black" cx="227" cy="-1026" rx="74.7535" ry="18"/>
<text text-anchor="middle" x="227" y="-1021.8" font-family="Times,serif" font-size="14.00">^(LIKE|TYPE)$</text>
</g>
<!-- node14&#45;&gt;node10 -->
<g id="edge35" class="edge"><title>node14&#45;&gt;node10</title>
<path fill="none" stroke="black" d="M202.505,-1008.78C190.597,-999.506 177.309,-986.777 170,-972 155.746,-943.182 164.557,-932.113 163,-900 160.669,-851.925 149.749,-835.186 171,-792 176.58,-780.66 185.629,-770.417 194.791,-762.026"/>
<polygon fill="black" stroke="black" points="197.152,-764.612 202.439,-755.431 192.58,-759.311 197.152,-764.612"/>
</g>
<!-- node14&#45;&gt;node11 -->
<g id="edge34" class="edge"><title>node14&#45;&gt;node11</title>
<path fill="none" stroke="black" d="M213.148,-1008.22C190.029,-978.037 148.595,-913.167 175,-864 182.695,-849.672 196.153,-838.565 209.861,-830.305"/>
<polygon fill="black" stroke="black" points="211.825,-833.217 218.847,-825.284 208.411,-827.107 211.825,-833.217"/>
</g>
<!-- node14&#45;&gt;node12 -->
<g id="edge33" class="edge"><title>node14&#45;&gt;node12</title>
<path fill="none" stroke="black" d="M228.086,-1007.87C229.619,-983.67 232.437,-939.211 234.264,-910.393"/>
<polygon fill="black" stroke="black" points="237.771,-910.391 234.911,-900.189 230.785,-909.948 237.771,-910.391"/>
</g>
<!-- node14&#45;&gt;node13 -->
<g id="edge32" class="edge"><title>node14&#45;&gt;node13</title>
<path fill="none" stroke="black" d="M246.907,-1008.41C257.944,-999.213 271.827,-987.644 283.848,-977.627"/>
<polygon fill="black" stroke="black" points="286.373,-980.079 291.814,-970.988 281.891,-974.701 286.373,-980.079"/>
</g>
<!-- node15 -->
<g id="node17" class="node"><title>node15</title>
<ellipse fill="none" stroke="black" cx="311" cy="-1098" rx="62.8273" ry="18"/>
<text text-anchor="middle" x="311" y="-1093.8" font-family="Times,serif" font-size="14.00">^\w+((d+))?$</text>
</g>
<!-- node15&#45;&gt;end -->
<g id="edge42" class="edge"><title>node15&#45;&gt;end</title>
<path fill="none" stroke="black" d="M252.926,-1090.98C185.896,-1083.06 80.7908,-1067.35 49,-1044 12.609,-1017.27 0,-1000.15 0,-955 0,-955 0,-955 0,-161 0,-107.813 32.6517,-96.2277 80,-72 159.418,-31.3626 433.785,-21.7786 534.524,-19.6085"/>
<polygon fill="black" stroke="black" points="534.9,-23.1017 544.827,-19.3997 534.758,-16.1031 534.9,-23.1017"/>
</g>
<!-- node15&#45;&gt;node2 -->
<g id="edge41" class="edge"><title>node15&#45;&gt;node2</title>
<path fill="none" stroke="black" d="M248.881,-1094.41C202.133,-1089.69 138.548,-1077.06 93,-1044 55.3693,-1016.69 38,-1001.5 38,-955 38,-955 38,-955 38,-521 38,-379.283 27.6997,-313.02 131,-216 155.933,-192.583 191.927,-179.391 222.174,-172.026"/>
<polygon fill="black" stroke="black" points="223.215,-175.378 232.188,-169.745 221.66,-168.553 223.215,-175.378"/>
</g>
<!-- node15&#45;&gt;node3 -->
<g id="edge40" class="edge"><title>node15&#45;&gt;node3</title>
<path fill="none" stroke="black" d="M256.791,-1088.7C187.39,-1074.65 76,-1039.02 76,-955 76,-955 76,-955 76,-593 76,-450.379 199.42,-312.513 253.791,-258.697"/>
<polygon fill="black" stroke="black" points="256.278,-261.162 260.985,-251.67 251.386,-256.154 256.278,-261.162"/>
</g>
<!-- node15&#45;&gt;node5 -->
<g id="edge39" class="edge"><title>node15&#45;&gt;node5</title>
<path fill="none" stroke="black" d="M366.29,-1089.22C437.442,-1075.74 552,-1040.71 552,-955 552,-955 552,-955 552,-593 552,-552.553 558.687,-535.243 533,-504 507.205,-472.625 482.504,-490.962 449,-468 422.644,-449.937 397.707,-423.045 381.345,-403.552"/>
<polygon fill="black" stroke="black" points="383.936,-401.193 374.878,-395.698 378.532,-405.642 383.936,-401.193"/>
</g>
<!-- node15&#45;&gt;node7 -->
<g id="edge38" class="edge"><title>node15&#45;&gt;node7</title>
<path fill="none" stroke="black" d="M351.588,-1084.24C403.285,-1065.16 486,-1023.86 486,-955 486,-955 486,-955 486,-665 486,-624.822 478.052,-578.869 472.177,-550.389"/>
<polygon fill="black" stroke="black" points="475.551,-549.431 470.047,-540.378 468.704,-550.887 475.551,-549.431"/>
</g>
<!-- node15&#45;&gt;node9 -->
<g id="edge37" class="edge"><title>node15&#45;&gt;node9</title>
<path fill="none" stroke="black" d="M328.814,-1080.52C353.472,-1055.82 395,-1006.56 395,-955 395,-955 395,-955 395,-809 395,-768.996 395,-722.653 395,-694.08"/>
<polygon fill="black" stroke="black" points="398.5,-694.049 395,-684.049 391.5,-694.049 398.5,-694.049"/>
</g>
<!-- node15&#45;&gt;node14 -->
<g id="edge36" class="edge"><title>node15&#45;&gt;node14</title>
<path fill="none" stroke="black" d="M291.518,-1080.76C280.57,-1071.64 266.725,-1060.1 254.67,-1050.06"/>
<polygon fill="black" stroke="black" points="256.591,-1047.1 246.668,-1043.39 252.109,-1052.48 256.591,-1047.1"/>
</g>
<!-- node16 -->
<g id="node18" class="node"><title>node16</title>
<ellipse fill="none" stroke="black" cx="735" cy="-90" rx="33.2023" ry="18"/>
<text text-anchor="middle" x="735" y="-85.8" font-family="Times,serif" font-size="14.00">^\d+$</text>
</g>
<!-- node16&#45;&gt;end -->
<g id="edge43" class="edge"><title>node16&#45;&gt;end</title>
<path fill="none" stroke="black" d="M709.531,-78.0625C680.93,-65.7797 634.485,-45.8339 603.593,-32.5677"/>
<polygon fill="black" stroke="black" points="604.722,-29.2434 594.153,-28.5134 601.96,-35.6754 604.722,-29.2434"/>
</g>
<!-- node17 -->
<g id="node19" class="node"><title>node17</title>
<ellipse fill="none" stroke="black" cx="760" cy="-162" rx="77.1937" ry="18"/>
<text text-anchor="middle" x="760" y="-157.8" font-family="Times,serif" font-size="14.00">&quot;INITIAL SIZE&quot;</text>
</g>
<!-- node17&#45;&gt;node16 -->
<g id="edge44" class="edge"><title>node17&#45;&gt;node16</title>
<path fill="none" stroke="black" d="M753.948,-144.055C751.092,-136.059 747.618,-126.331 744.428,-117.4"/>
<polygon fill="black" stroke="black" points="747.656,-116.029 740.996,-107.789 741.063,-118.384 747.656,-116.029"/>
</g>
<!-- node18 -->
<g id="node20" class="node"><title>node18</title>
<ellipse fill="none" stroke="black" cx="865" cy="-234" rx="75.4512" ry="18"/>
<text text-anchor="middle" x="865" y="-229.8" font-family="Times,serif" font-size="14.00">&quot;READ&#45;ONLY&quot;</text>
</g>
<!-- node18&#45;&gt;end -->
<g id="edge46" class="edge"><title>node18&#45;&gt;end</title>
<path fill="none" stroke="black" d="M864.131,-215.99C862.57,-197.349 858.205,-167.036 846,-144 825.249,-104.835 815.245,-94.3999 777,-72 723.52,-40.6771 651.566,-27.6238 608.668,-22.3618"/>
<polygon fill="black" stroke="black" points="609.011,-18.8782 598.676,-21.2133 608.211,-25.8324 609.011,-18.8782"/>
</g>
<!-- node18&#45;&gt;node17 -->
<g id="edge45" class="edge"><title>node18&#45;&gt;node17</title>
<path fill="none" stroke="black" d="M840.911,-216.941C826.607,-207.405 808.276,-195.184 792.681,-184.787"/>
<polygon fill="black" stroke="black" points="794.603,-181.862 784.341,-179.227 790.72,-187.686 794.603,-181.862"/>
</g>
<!-- node19 -->
<g id="node21" class="node"><title>node19</title>
<ellipse fill="none" stroke="black" cx="777" cy="-306" rx="62.8273" ry="18"/>
<text text-anchor="middle" x="777" y="-301.8" font-family="Times,serif" font-size="14.00">^\w+((d+))?$</text>
</g>
<!-- node19&#45;&gt;end -->
<g id="edge49" class="edge"><title>node19&#45;&gt;end</title>
<path fill="none" stroke="black" d="M760.83,-288.282C739.151,-265.266 700.347,-221.894 674,-180 645.841,-135.224 654.073,-115.514 624,-72 615.904,-60.2853 605.112,-48.8118 595.459,-39.5527"/>
<polygon fill="black" stroke="black" points="597.738,-36.8926 588.034,-32.6395 592.968,-42.0156 597.738,-36.8926"/>
</g>
<!-- node19&#45;&gt;node17 -->
<g id="edge48" class="edge"><title>node19&#45;&gt;node17</title>
<path fill="none" stroke="black" d="M774.949,-287.871C772.052,-263.67 766.729,-219.211 763.279,-190.393"/>
<polygon fill="black" stroke="black" points="766.722,-189.702 762.058,-180.189 759.771,-190.534 766.722,-189.702"/>
</g>
<!-- node19&#45;&gt;node18 -->
<g id="edge47" class="edge"><title>node19&#45;&gt;node18</title>
<path fill="none" stroke="black" d="M797.41,-288.765C808.989,-279.554 823.662,-267.882 836.376,-257.769"/>
<polygon fill="black" stroke="black" points="838.749,-260.354 844.396,-251.39 834.391,-254.876 838.749,-260.354"/>
</g>
<!-- node19&#45;&gt;node19 -->
<g id="edge50" class="edge"><title>node19&#45;&gt;node19</title>
<path fill="none" stroke="black" d="M819.875,-319.203C840.127,-320.737 857.914,-316.336 857.914,-306 857.914,-297.441 845.716,-292.951 830.021,-292.532"/>
<polygon fill="black" stroke="black" points="829.78,-289.037 819.875,-292.797 829.963,-296.035 829.78,-289.037"/>
</g>
<!-- node20 -->
<g id="node22" class="node"><title>node20</title>
<ellipse fill="none" stroke="black" cx="722" cy="-378" rx="38.5151" ry="18"/>
<text text-anchor="middle" x="722" y="-373.8" font-family="Times,serif" font-size="14.00">&quot;KEY&quot;</text>
</g>
<!-- node20&#45;&gt;end -->
<g id="edge54" class="edge"><title>node20&#45;&gt;end</title>
<path fill="none" stroke="black" d="M699.872,-362.962C667.232,-340.332 610,-292.459 610,-235 610,-235 610,-235 610,-161 610,-119.406 594.597,-73.217 583.404,-45.1433"/>
<polygon fill="black" stroke="black" points="586.546,-43.5807 579.508,-35.662 580.072,-46.2418 586.546,-43.5807"/>
</g>
<!-- node20&#45;&gt;node17 -->
<g id="edge53" class="edge"><title>node20&#45;&gt;node17</title>
<path fill="none" stroke="black" d="M714.81,-360.232C708.058,-342.313 699.724,-313.092 705,-288 712.58,-251.95 731.219,-213.614 744.701,-189.046"/>
<polygon fill="black" stroke="black" points="747.92,-190.462 749.759,-180.028 741.815,-187.038 747.92,-190.462"/>
</g>
<!-- node20&#45;&gt;node18 -->
<g id="edge52" class="edge"><title>node20&#45;&gt;node18</title>
<path fill="none" stroke="black" d="M760.123,-374.743C794.438,-370.452 843.041,-358.267 867,-324 879.479,-306.152 877.615,-280.989 873.416,-261.97"/>
<polygon fill="black" stroke="black" points="876.77,-260.955 870.92,-252.122 869.984,-262.675 876.77,-260.955"/>
</g>
<!-- node20&#45;&gt;node19 -->
<g id="edge51" class="edge"><title>node20&#45;&gt;node19</title>
<path fill="none" stroke="black" d="M734.756,-360.765C741.53,-352.143 749.999,-341.365 757.572,-331.727"/>
<polygon fill="black" stroke="black" points="760.505,-333.659 763.931,-323.633 755.001,-329.334 760.505,-333.659"/>
</g>
<!-- node21 -->
<g id="node23" class="node"><title>node21</title>
<ellipse fill="none" stroke="black" cx="761" cy="-450" rx="62.7907" ry="18"/>
<text text-anchor="middle" x="761" y="-445.8" font-family="Times,serif" font-size="14.00">&quot;DEFAULT&quot;</text>
</g>
<!-- node21&#45;&gt;node20 -->
<g id="edge55" class="edge"><title>node21&#45;&gt;node20</title>
<path fill="none" stroke="black" d="M751.559,-432.055C746.96,-423.801 741.334,-413.701 736.228,-404.538"/>
<polygon fill="black" stroke="black" points="739.278,-402.821 731.354,-395.789 733.163,-406.228 739.278,-402.821"/>
</g>
<!-- node22 -->
<g id="node24" class="node"><title>node22</title>
<ellipse fill="none" stroke="black" cx="866" cy="-522" rx="80.0862" ry="18"/>
<text text-anchor="middle" x="866" y="-517.8" font-family="Times,serif" font-size="14.00">&quot;NON&#45;UNIQUE&quot;</text>
</g>
<!-- node22&#45;&gt;node20 -->
<g id="edge57" class="edge"><title>node22&#45;&gt;node20</title>
<path fill="none" stroke="black" d="M863.602,-503.927C860.049,-484.382 851.672,-452.441 833,-432 814.853,-412.134 787.68,-398.984 764.762,-390.752"/>
<polygon fill="black" stroke="black" points="765.833,-387.42 755.239,-387.52 763.583,-394.048 765.833,-387.42"/>
</g>
<!-- node22&#45;&gt;node21 -->
<g id="edge56" class="edge"><title>node22&#45;&gt;node21</title>
<path fill="none" stroke="black" d="M841.647,-504.765C827.232,-495.155 808.798,-482.865 793.194,-472.462"/>
<polygon fill="black" stroke="black" points="795.121,-469.541 784.859,-466.906 791.238,-475.365 795.121,-469.541"/>
</g>
<!-- node23 -->
<g id="node25" class="node"><title>node23</title>
<ellipse fill="none" stroke="black" cx="674" cy="-522" rx="55.8287" ry="18"/>
<text text-anchor="middle" x="674" y="-517.8" font-family="Times,serif" font-size="14.00">&quot;UNIQUE&quot;</text>
</g>
<!-- node23&#45;&gt;node20 -->
<g id="edge59" class="edge"><title>node23&#45;&gt;node20</title>
<path fill="none" stroke="black" d="M674.92,-503.754C676.348,-485.436 679.956,-455.886 689,-432 692.703,-422.219 698.302,-412.283 703.843,-403.697"/>
<polygon fill="black" stroke="black" points="706.816,-405.548 709.513,-395.302 701.015,-401.63 706.816,-405.548"/>
</g>
<!-- node23&#45;&gt;node21 -->
<g id="edge58" class="edge"><title>node23&#45;&gt;node21</title>
<path fill="none" stroke="black" d="M693.742,-505.116C705.257,-495.851 719.976,-484.008 732.707,-473.764"/>
<polygon fill="black" stroke="black" points="735.136,-476.303 740.733,-467.307 730.747,-470.849 735.136,-476.303"/>
</g>
<!-- node24 -->
<g id="node26" class="node"><title>node24</title>
<ellipse fill="none" stroke="black" cx="758" cy="-594" rx="44.2311" ry="18"/>
<text text-anchor="middle" x="758" y="-589.8" font-family="Times,serif" font-size="14.00">&quot;WITH&quot;</text>
</g>
<!-- node24&#45;&gt;node20 -->
<g id="edge63" class="edge"><title>node24&#45;&gt;node20</title>
<path fill="none" stroke="black" d="M714.382,-590.527C679.506,-585.979 632.666,-573.537 609,-540 573.006,-488.993 646.044,-428.733 690.748,-398.446"/>
<polygon fill="black" stroke="black" points="692.867,-401.241 699.27,-392.8 689.001,-395.405 692.867,-401.241"/>
</g>
<!-- node24&#45;&gt;node21 -->
<g id="edge62" class="edge"><title>node24&#45;&gt;node21</title>
<path fill="none" stroke="black" d="M758.362,-575.871C758.873,-551.67 759.812,-507.211 760.421,-478.393"/>
<polygon fill="black" stroke="black" points="763.925,-478.261 760.637,-468.189 756.926,-478.113 763.925,-478.261"/>
</g>
<!-- node24&#45;&gt;node22 -->
<g id="edge60" class="edge"><title>node24&#45;&gt;node22</title>
<path fill="none" stroke="black" d="M780.64,-578.326C795.705,-568.562 815.752,-555.568 832.633,-544.627"/>
<polygon fill="black" stroke="black" points="834.64,-547.497 841.128,-539.121 830.833,-541.622 834.64,-547.497"/>
</g>
<!-- node24&#45;&gt;node23 -->
<g id="edge61" class="edge"><title>node24&#45;&gt;node23</title>
<path fill="none" stroke="black" d="M739.358,-577.465C728.097,-568.081 713.553,-555.96 701.044,-545.536"/>
<polygon fill="black" stroke="black" points="703.095,-542.69 693.173,-538.977 698.614,-548.068 703.095,-542.69"/>
</g>
<!-- node25 -->
<g id="node27" class="node"><title>node25</title>
<ellipse fill="none" stroke="black" cx="971" cy="-666" rx="92.4512" ry="18"/>
<text text-anchor="middle" x="971" y="-661.8" font-family="Times,serif" font-size="14.00">^\w+((&#45;&gt;|=&gt;|&#45;)w+)*$</text>
</g>
<!-- node25&#45;&gt;end -->
<g id="edge67" class="edge"><title>node25&#45;&gt;end</title>
<path fill="none" stroke="black" d="M988.142,-647.894C1011.38,-622.802 1050,-573.498 1050,-523 1050,-523 1050,-523 1050,-161 1050,-69.0628 720.959,-31.9341 608.875,-21.9536"/>
<polygon fill="black" stroke="black" points="608.989,-18.4504 598.724,-21.0715 608.383,-25.4241 608.989,-18.4504"/>
</g>
<!-- node25&#45;&gt;node17 -->
<g id="edge66" class="edge"><title>node25&#45;&gt;node17</title>
<path fill="none" stroke="black" d="M971.593,-647.953C972.467,-621.297 974,-568.125 974,-523 974,-523 974,-523 974,-305 974,-263.914 978.059,-245.046 949,-216 921.571,-188.584 881.18,-175.069 844.771,-168.514"/>
<polygon fill="black" stroke="black" points="845.058,-165.014 834.622,-166.844 843.921,-171.921 845.058,-165.014"/>
</g>
<!-- node25&#45;&gt;node18 -->
<g id="edge65" class="edge"><title>node25&#45;&gt;node18</title>
<path fill="none" stroke="black" d="M970.479,-647.902C969.316,-618.3 965.705,-555.711 955,-504 934.571,-405.313 919.915,-382.901 886,-288 882.888,-279.292 879.25,-269.88 875.885,-261.438"/>
<polygon fill="black" stroke="black" points="879.094,-260.038 872.107,-252.074 872.602,-262.657 879.094,-260.038"/>
</g>
<!-- node25&#45;&gt;node24 -->
<g id="edge64" class="edge"><title>node25&#45;&gt;node24</title>
<path fill="none" stroke="black" d="M926.088,-650.24C889.272,-638.141 837.494,-621.125 801.162,-609.185"/>
<polygon fill="black" stroke="black" points="801.943,-605.757 791.35,-605.96 799.757,-612.407 801.943,-605.757"/>
</g>
<!-- node26 -->
<g id="node28" class="node"><title>node26</title>
<ellipse fill="none" stroke="black" cx="902" cy="-738" rx="51.8154" ry="18"/>
<text text-anchor="middle" x="902" y="-733.8" font-family="Times,serif" font-size="14.00">&quot;REF TO&quot;</text>
</g>
<!-- node26&#45;&gt;node25 -->
<g id="edge68" class="edge"><title>node26&#45;&gt;node25</title>
<path fill="none" stroke="black" d="M918.003,-720.765C926.632,-712.011 937.453,-701.033 947.064,-691.283"/>
<polygon fill="black" stroke="black" points="949.593,-693.703 954.121,-684.124 944.608,-688.789 949.593,-693.703"/>
</g>
<!-- node27 -->
<g id="node29" class="node"><title>node27</title>
<ellipse fill="none" stroke="black" cx="925" cy="-810" rx="64.5575" ry="18"/>
<text text-anchor="middle" x="925" y="-805.8" font-family="Times,serif" font-size="14.00">&quot;TABLE OF&quot;</text>
</g>
<!-- node27&#45;&gt;node25 -->
<g id="edge70" class="edge"><title>node27&#45;&gt;node25</title>
<path fill="none" stroke="black" d="M940.6,-792.224C948.747,-782.42 958.03,-769.372 963,-756 970.33,-736.278 972.139,-712.474 972.219,-694.448"/>
<polygon fill="black" stroke="black" points="975.717,-694.272 972.088,-684.318 968.718,-694.363 975.717,-694.272"/>
</g>
<!-- node27&#45;&gt;node26 -->
<g id="edge69" class="edge"><title>node27&#45;&gt;node26</title>
<path fill="none" stroke="black" d="M919.432,-792.055C916.844,-784.176 913.703,-774.617 910.804,-765.794"/>
<polygon fill="black" stroke="black" points="914.123,-764.683 907.676,-756.275 907.473,-766.868 914.123,-764.683"/>
</g>
<!-- node28 -->
<g id="node30" class="node"><title>node28</title>
<ellipse fill="none" stroke="black" cx="653" cy="-882" rx="71.4587" ry="18"/>
<text text-anchor="middle" x="653" y="-877.8" font-family="Times,serif" font-size="14.00">&quot;STANDARD&quot;</text>
</g>
<!-- node28&#45;&gt;node27 -->
<g id="edge71" class="edge"><title>node28&#45;&gt;node27</title>
<path fill="none" stroke="black" d="M701.002,-868.647C748.087,-856.529 819.833,-838.065 869.38,-825.314"/>
<polygon fill="black" stroke="black" points="870.477,-828.646 879.289,-822.764 868.732,-821.867 870.477,-828.646"/>
</g>
<!-- node29 -->
<g id="node31" class="node"><title>node29</title>
<ellipse fill="none" stroke="black" cx="801" cy="-882" rx="58.1356" ry="18"/>
<text text-anchor="middle" x="801" y="-877.8" font-family="Times,serif" font-size="14.00">&quot;HASHED&quot;</text>
</g>
<!-- node29&#45;&gt;node27 -->
<g id="edge72" class="edge"><title>node29&#45;&gt;node27</title>
<path fill="none" stroke="black" d="M827.601,-865.983C845.417,-855.926 869.097,-842.558 888.647,-831.522"/>
<polygon fill="black" stroke="black" points="890.597,-834.44 897.585,-826.476 887.156,-828.344 890.597,-834.44"/>
</g>
<!-- node30 -->
<g id="node32" class="node"><title>node30</title>
<ellipse fill="none" stroke="black" cx="934" cy="-882" rx="56.4294" ry="18"/>
<text text-anchor="middle" x="934" y="-877.8" font-family="Times,serif" font-size="14.00">&quot;SORTED&quot;</text>
</g>
<!-- node30&#45;&gt;node27 -->
<g id="edge73" class="edge"><title>node30&#45;&gt;node27</title>
<path fill="none" stroke="black" d="M931.775,-863.697C930.783,-855.983 929.592,-846.712 928.486,-838.112"/>
<polygon fill="black" stroke="black" points="931.946,-837.576 927.199,-828.104 925.003,-838.469 931.946,-837.576"/>
</g>
<!-- node31 -->
<g id="node33" class="node"><title>node31</title>
<ellipse fill="none" stroke="black" cx="806" cy="-954" rx="74.7535" ry="18"/>
<text text-anchor="middle" x="806" y="-949.8" font-family="Times,serif" font-size="14.00">^(LIKE|TYPE)$</text>
</g>
<!-- node31&#45;&gt;node27 -->
<g id="edge77" class="edge"><title>node31&#45;&gt;node27</title>
<path fill="none" stroke="black" d="M868.743,-944.095C918.805,-935.553 983.094,-920.863 999,-900 1008.7,-887.276 1006.31,-878.231 999,-864 991.959,-850.296 979.547,-839.342 966.877,-831.032"/>
<polygon fill="black" stroke="black" points="968.487,-827.915 958.127,-825.7 964.845,-833.893 968.487,-827.915"/>
</g>
<!-- node31&#45;&gt;node28 -->
<g id="edge74" class="edge"><title>node31&#45;&gt;node28</title>
<path fill="none" stroke="black" d="M772.801,-937.811C750.068,-927.41 719.728,-913.529 695.269,-902.339"/>
<polygon fill="black" stroke="black" points="696.42,-899.017 685.871,-898.039 693.508,-905.382 696.42,-899.017"/>
</g>
<!-- node31&#45;&gt;node29 -->
<g id="edge75" class="edge"><title>node31&#45;&gt;node29</title>
<path fill="none" stroke="black" d="M804.764,-935.697C804.213,-927.983 803.551,-918.712 802.937,-910.112"/>
<polygon fill="black" stroke="black" points="806.425,-909.83 802.222,-900.104 799.443,-910.328 806.425,-909.83"/>
</g>
<!-- node31&#45;&gt;node30 -->
<g id="edge76" class="edge"><title>node31&#45;&gt;node30</title>
<path fill="none" stroke="black" d="M834.726,-937.291C853.39,-927.084 877.875,-913.693 897.858,-902.765"/>
<polygon fill="black" stroke="black" points="899.591,-905.807 906.686,-897.938 896.232,-899.665 899.591,-905.807"/>
</g>
<!-- node32 -->
<g id="node34" class="node"><title>node32</title>
<ellipse fill="none" stroke="black" cx="806" cy="-1098" rx="62.8273" ry="18"/>
<text text-anchor="middle" x="806" y="-1093.8" font-family="Times,serif" font-size="14.00">^\w+((d+))?$</text>
</g>
<!-- node32&#45;&gt;node31 -->
<g id="edge78" class="edge"><title>node32&#45;&gt;node31</title>
<path fill="none" stroke="black" d="M806,-1079.87C806,-1055.67 806,-1011.21 806,-982.393"/>
<polygon fill="black" stroke="black" points="809.5,-982.189 806,-972.189 802.5,-982.189 809.5,-982.189"/>
</g>
<!-- node33 -->
<g id="node35" class="node"><title>node33</title>
<ellipse fill="none" stroke="black" cx="1085" cy="-1026" rx="62.8273" ry="18"/>
<text text-anchor="middle" x="1085" y="-1021.8" font-family="Times,serif" font-size="14.00">^\w+((d+))?$</text>
</g>
<!-- node33&#45;&gt;end -->
<g id="edge79" class="edge"><title>node33&#45;&gt;end</title>
<path fill="none" stroke="black" d="M1086.19,-1007.96C1087.93,-981.315 1091,-928.155 1091,-883 1091,-883 1091,-883 1091,-161 1091,-96.3704 1035.66,-96.8424 976,-72 909.94,-44.4947 695.976,-27.3624 609.137,-21.3862"/>
<polygon fill="black" stroke="black" points="609.168,-17.8804 598.955,-20.6967 608.695,-24.8644 609.168,-17.8804"/>
</g>
<!-- node34 -->
<g id="node36" class="node"><title>node34</title>
<ellipse fill="none" stroke="black" cx="950" cy="-1098" rx="63.3318" ry="18"/>
<text text-anchor="middle" x="950" y="-1093.8" font-family="Times,serif" font-size="14.00">&quot;BEGIN OF&quot;</text>
</g>
<!-- node34&#45;&gt;node33 -->
<g id="edge80" class="edge"><title>node34&#45;&gt;node33</title>
<path fill="none" stroke="black" d="M978.961,-1081.98C998.891,-1071.65 1025.56,-1057.82 1047.17,-1046.61"/>
<polygon fill="black" stroke="black" points="1048.82,-1049.7 1056.09,-1041.99 1045.6,-1043.49 1048.82,-1049.7"/>
</g>
<!-- node35 -->
<g id="node37" class="node"><title>node35</title>
<ellipse fill="none" stroke="black" cx="1085" cy="-1098" rx="53.5213" ry="18"/>
<text text-anchor="middle" x="1085" y="-1093.8" font-family="Times,serif" font-size="14.00">&quot;END OF&quot;</text>
</g>
<!-- node35&#45;&gt;node33 -->
<g id="edge81" class="edge"><title>node35&#45;&gt;node33</title>
<path fill="none" stroke="black" d="M1085,-1079.7C1085,-1071.98 1085,-1062.71 1085,-1054.11"/>
<polygon fill="black" stroke="black" points="1088.5,-1054.1 1085,-1044.1 1081.5,-1054.1 1088.5,-1054.1"/>
</g>
<!-- node36&#45;&gt;node15 -->
<g id="edge82" class="edge"><title>node36&#45;&gt;node15</title>
<path fill="none" stroke="black" d="M802.999,-1159.74C691.619,-1145.99 484.221,-1120.39 377.79,-1107.25"/>
<polygon fill="black" stroke="black" points="378.165,-1103.77 367.812,-1106.01 377.308,-1110.71 378.165,-1103.77"/>
</g>
<!-- node36&#45;&gt;node32 -->
<g id="edge83" class="edge"><title>node36&#45;&gt;node32</title>
<path fill="none" stroke="black" d="M860.571,-1152.05C851.55,-1143.28 840.387,-1132.43 830.512,-1122.83"/>
<polygon fill="black" stroke="black" points="832.878,-1120.25 823.269,-1115.79 827.999,-1125.27 832.878,-1120.25"/>
</g>
<!-- node36&#45;&gt;node34 -->
<g id="edge84" class="edge"><title>node36&#45;&gt;node34</title>
<path fill="none" stroke="black" d="M895.429,-1152.05C904.45,-1143.28 915.613,-1132.43 925.488,-1122.83"/>
<polygon fill="black" stroke="black" points="928.001,-1125.27 932.731,-1115.79 923.122,-1120.25 928.001,-1125.27"/>
</g>
<!-- node36&#45;&gt;node35 -->
<g id="edge85" class="edge"><title>node36&#45;&gt;node35</title>
<path fill="none" stroke="black" d="M921.899,-1154.15C956.396,-1142.49 1004.29,-1126.29 1039.25,-1114.47"/>
<polygon fill="black" stroke="black" points="1040.4,-1117.78 1048.75,-1111.26 1038.16,-1111.15 1040.4,-1117.78"/>
</g>
</g>
</svg>
