<svg xmlns="http://www.w3.org/2000/svg" xmlns:xlink="http://www.w3.org/1999/xlink" class="railroad-diagram" width="2156" height="306" viewBox="0 0 2156 306">
<defs>
<style type="text/css"><![CDATA[
path {
stroke-width: 3;
stroke: black;
fill: rgba(0,0,0,0);
}
text {
font: bold 14px monospace;
text-anchor: middle;
}
text.diagram-text {
font-size: 12px;
}
a {
fill: blue;
}
text.diagram-arrow {
font-size: 16px;
}
text.label {
text-anchor: start;
}
text.comment {
font: italic 12px monospace;
}
rect {
stroke-width: 3;
stroke: black;
fill: #BCBCBC;
}
path.diagram-text {
stroke-width: 3;
stroke: black;
fill: #BCBCBC;
cursor: help;
}
]]></style>
</defs>
<g transform="translate(.5 .5)">
<path d="M 20 38 v 20 m 10 -20 v 20 m -10 -10 h 20.5"></path>
<path d="M40 48h10"></path>
<g>
<path d="M50 48h0"></path>
<path d="M2106 48h0"></path>
<g>
<path d="M50 48h0"></path>
<path d="M206 48h0"></path>
<path d="M50 48h20"></path>
<g class="terminal">
<path d="M70 48h0"></path>
<path d="M186 48h0"></path>
<rect x="70" y="37" width="116" height="22" rx="10" ry="10"></rect>
<text x="128" y="52">"CLASS-DATA"</text>
</g>
<path d="M186 48h20"></path>
<path d="M50 48a10 10 0 0 1 10 10v10a10 10 0 0 0 10 10"></path>
<g class="terminal">
<path d="M70 78h24"></path>
<path d="M162 78h24"></path>
<rect x="94" y="67" width="68" height="22" rx="10" ry="10"></rect>
<text x="128" y="82">"DATA"</text>
</g>
<path d="M186 78a10 10 0 0 0 10 -10v-10a10 10 0 0 1 10 -10"></path>
</g>
<g>
<path d="M206 48h0"></path>
<path d="M2106 48h0"></path>
<path d="M206 48h20"></path>
<g>
<path d="M226 48h0"></path>
<path d="M2086 48h0"></path>
<g class="non-terminal">
<path d="M226 48h0"></path>
<path d="M286 48h0"></path>
<rect x="226" y="37" width="60" height="22"></rect>
<a xlink:href="reuse_field.svg"><text x="256" y="52">field</text>
</a>
</g>
<path d="M286 48h10"></path>
<g>
<path d="M296 48h0"></path>
<path d="M540 48h0"></path>
<path d="M296 48a10 10 0 0 0 10 -10v0a10 10 0 0 1 10 -10"></path>
<g>
<path d="M316 28h204"></path>
</g>
<path d="M520 28a10 10 0 0 1 10 10v0a10 10 0 0 0 10 10"></path>
<path d="M296 48h20"></path>
<g>
<path d="M316 48h0"></path>
<path d="M520 48h0"></path>
<g class="terminal">
<path d="M316 48h0"></path>
<path d="M360 48h0"></path>
<rect x="316" y="37" width="44" height="22" rx="10" ry="10"></rect>
<text x="338" y="52">"("</text>
</g>
<path d="M360 48h10"></path>
<path d="M370 48h10"></path>
<g class="non-terminal">
<path d="M380 48h0"></path>
<path d="M456 48h0"></path>
<rect x="380" y="37" width="76" height="22"></rect>
<a xlink:href="reuse_integer.svg"><text x="418" y="52">integer</text>
</a>
</g>
<path d="M456 48h10"></path>
<path d="M466 48h10"></path>
<g class="terminal">
<path d="M476 48h0"></path>
<path d="M520 48h0"></path>
<rect x="476" y="37" width="44" height="22" rx="10" ry="10"></rect>
<text x="498" y="52">")"</text>
</g>
</g>
<path d="M520 48h20"></path>
</g>
<g>
<path d="M540 48h0"></path>
<path d="M972 48h0"></path>
<path d="M540 48a10 10 0 0 0 10 -10v-8a10 10 0 0 1 10 -10"></path>
<g>
<path d="M560 20h392"></path>
</g>
<path d="M952 20a10 10 0 0 1 10 10v8a10 10 0 0 0 10 10"></path>
<path d="M540 48h20"></path>
<g>
<path d="M560 48h0"></path>
<path d="M952 48h0"></path>
<g>
<path d="M560 48h0"></path>
<path d="M848 48h0"></path>
<g>
<path d="M560 48h0"></path>
<path d="M668 48h0"></path>
<path d="M560 48h20"></path>
<g class="terminal">
<path d="M580 48h0"></path>
<path d="M648 48h0"></path>
<rect x="580" y="37" width="68" height="22" rx="10" ry="10"></rect>
<text x="614" y="52">"LIKE"</text>
</g>
<path d="M648 48h20"></path>
<path d="M560 48a10 10 0 0 1 10 10v10a10 10 0 0 0 10 10"></path>
<g class="terminal">
<path d="M580 78h0"></path>
<path d="M648 78h0"></path>
<rect x="580" y="67" width="68" height="22" rx="10" ry="10"></rect>
<text x="614" y="82">"TYPE"</text>
</g>
<path d="M648 78a10 10 0 0 0 10 -10v-10a10 10 0 0 1 10 -10"></path>
</g>
<g>
<path d="M668 48h0"></path>
<path d="M848 48h0"></path>
<path d="M668 48a10 10 0 0 0 10 -10v0a10 10 0 0 1 10 -10"></path>
<g>
<path d="M688 28h140"></path>
</g>
<path d="M828 28a10 10 0 0 1 10 10v0a10 10 0 0 0 10 10"></path>
<path d="M668 48h20"></path>
<g>
<path d="M688 48h0"></path>
<path d="M828 48h0"></path>
<path d="M688 48h20"></path>
<g class="terminal">
<path d="M708 48h4"></path>
<path d="M804 48h4"></path>
<rect x="712" y="37" width="92" height="22" rx="10" ry="10"></rect>
<text x="758" y="52">"LINE OF"</text>
</g>
<path d="M808 48h20"></path>
<path d="M688 48a10 10 0 0 1 10 10v10a10 10 0 0 0 10 10"></path>
<g class="terminal">
<path d="M708 78h8"></path>
<path d="M800 78h8"></path>
<rect x="716" y="67" width="84" height="22" rx="10" ry="10"></rect>
<text x="758" y="82">"REF TO"</text>
</g>
<path d="M808 78a10 10 0 0 0 10 -10v-10a10 10 0 0 1 10 -10"></path>
<path d="M688 48a10 10 0 0 1 10 10v40a10 10 0 0 0 10 10"></path>
<g class="terminal">
<path d="M708 108h0"></path>
<path d="M808 108h0"></path>
<rect x="708" y="97" width="100" height="22" rx="10" ry="10"></rect>
<text x="758" y="112">"RANGE OF"</text>
</g>
<path d="M808 108a10 10 0 0 0 10 -10v-40a10 10 0 0 1 10 -10"></path>
</g>
<path d="M828 48h20"></path>
</g>
</g>
<path d="M848 48h10"></path>
<path d="M858 48h10"></path>
<g class="non-terminal">
<path d="M868 48h0"></path>
<path d="M952 48h0"></path>
<rect x="868" y="37" width="84" height="22"></rect>
<a xlink:href="reuse_typename.svg"><text x="910" y="52">typename</text>
</a>
</g>
</g>
<path d="M952 48h20"></path>
</g>
<g>
<path d="M972 48h0"></path>
<path d="M1208 48h0"></path>
<path d="M972 48a10 10 0 0 0 10 -10v0a10 10 0 0 1 10 -10"></path>
<g>
<path d="M992 28h196"></path>
</g>
<path d="M1188 28a10 10 0 0 1 10 10v0a10 10 0 0 0 10 10"></path>
<path d="M972 48h20"></path>
<g>
<path d="M992 48h0"></path>
<path d="M1188 48h0"></path>
<g class="terminal">
<path d="M992 48h0"></path>
<path d="M1084 48h0"></path>
<rect x="992" y="37" width="92" height="22" rx="10" ry="10"></rect>
<text x="1038" y="52">"DEFAULT"</text>
</g>
<path d="M1084 48h10"></path>
<path d="M1094 48h10"></path>
<g class="non-terminal">
<path d="M1104 48h0"></path>
<path d="M1188 48h0"></path>
<rect x="1104" y="37" width="84" height="22"></rect>
<a xlink:href="reuse_constant.svg"><text x="1146" y="52">constant</text>
</a>
</g>
</g>
<path d="M1188 48h20"></path>
</g>
<g>
<path d="M1208 48h0"></path>
<path d="M1428 48h0"></path>
<path d="M1208 48a10 10 0 0 0 10 -10v0a10 10 0 0 1 10 -10"></path>
<g>
<path d="M1228 28h180"></path>
</g>
<path d="M1408 28a10 10 0 0 1 10 10v0a10 10 0 0 0 10 10"></path>
<path d="M1208 48h20"></path>
<g>
<path d="M1228 48h0"></path>
<path d="M1408 48h0"></path>
<g class="terminal">
<path d="M1228 48h0"></path>
<path d="M1312 48h0"></path>
<rect x="1228" y="37" width="84" height="22" rx="10" ry="10"></rect>
<text x="1270" y="52">"LENGTH"</text>
</g>
<path d="M1312 48h10"></path>
<path d="M1322 48h10"></path>
<g class="non-terminal">
<path d="M1332 48h0"></path>
<path d="M1408 48h0"></path>
<rect x="1332" y="37" width="76" height="22"></rect>
<a xlink:href="reuse_integer.svg"><text x="1370" y="52">integer</text>
</a>
</g>
</g>
<path d="M1408 48h20"></path>
</g>
<g>
<path d="M1428 48h0"></path>
<path d="M1664 48h0"></path>
<path d="M1428 48a10 10 0 0 0 10 -10v0a10 10 0 0 1 10 -10"></path>
<g>
<path d="M1448 28h196"></path>
</g>
<path d="M1644 28a10 10 0 0 1 10 10v0a10 10 0 0 0 10 10"></path>
<path d="M1428 48h20"></path>
<g>
<path d="M1448 48h0"></path>
<path d="M1644 48h0"></path>
<g class="terminal">
<path d="M1448 48h0"></path>
<path d="M1548 48h0"></path>
<rect x="1448" y="37" width="100" height="22" rx="10" ry="10"></rect>
<text x="1498" y="52">"DECIMALS"</text>
</g>
<path d="M1548 48h10"></path>
<path d="M1558 48h10"></path>
<g class="non-terminal">
<path d="M1568 48h0"></path>
<path d="M1644 48h0"></path>
<rect x="1568" y="37" width="76" height="22"></rect>
<a xlink:href="reuse_integer.svg"><text x="1606" y="52">integer</text>
</a>
</g>
</g>
<path d="M1644 48h20"></path>
</g>
<g>
<path d="M1664 48h0"></path>
<path d="M1812 48h0"></path>
<path d="M1664 48a10 10 0 0 0 10 -10v0a10 10 0 0 1 10 -10"></path>
<g>
<path d="M1684 28h108"></path>
</g>
<path d="M1792 28a10 10 0 0 1 10 10v0a10 10 0 0 0 10 10"></path>
<path d="M1664 48h20"></path>
<g class="terminal">
<path d="M1684 48h0"></path>
<path d="M1792 48h0"></path>
<rect x="1684" y="37" width="108" height="22" rx="10" ry="10"></rect>
<text x="1738" y="52">"READ-ONLY"</text>
</g>
<path d="M1792 48h20"></path>
</g>
<g>
<path d="M1812 48h0"></path>
<path d="M2086 48h0"></path>
<path d="M1812 48a10 10 0 0 0 10 -10v0a10 10 0 0 1 10 -10"></path>
<g>
<path d="M1832 28h234"></path>
</g>
<path d="M2066 28a10 10 0 0 1 10 10v0a10 10 0 0 0 10 10"></path>
<path d="M1812 48h20"></path>
<g>
<path d="M1832 48h0"></path>
<path d="M2066 48h0"></path>
<g class="terminal">
<path d="M1832 48h0"></path>
<path d="M1908 48h0"></path>
<rect x="1832" y="37" width="76" height="22" rx="10" ry="10"></rect>
<text x="1870" y="52">"VALUE"</text>
</g>
<path d="M1908 48h10"></path>
<g>
<path d="M1918 48h0"></path>
<path d="M2066 48h0"></path>
<path d="M1918 48h20"></path>
<g class="non-terminal">
<path d="M1938 48h12"></path>
<path d="M2034 48h12"></path>
<rect x="1950" y="37" width="84" height="22"></rect>
<a xlink:href="reuse_constant.svg"><text x="1992" y="52">constant</text>
</a>
</g>
<path d="M2046 48h20"></path>
<path d="M1918 48a10 10 0 0 1 10 10v10a10 10 0 0 0 10 10"></path>
<g class="non-terminal">
<path d="M1938 78h0"></path>
<path d="M2046 78h0"></path>
<rect x="1938" y="67" width="108" height="22"></rect>
<a xlink:href="reuse_field_chain.svg"><text x="1992" y="82">field&#95;chain</text>
</a>
</g>
<path d="M2046 78a10 10 0 0 0 10 -10v-10a10 10 0 0 1 10 -10"></path>
</g>
</g>
<path d="M2066 48h20"></path>
</g>
</g>
<path d="M2086 48h20"></path>
<path d="M206 48a10 10 0 0 1 10 10v87a10 10 0 0 0 10 10"></path>
<g>
<path d="M226 155h20"></path>
<path d="M2066 155h20"></path>
<g class="non-terminal">
<path d="M246 155h0"></path>
<path d="M306 155h0"></path>
<rect x="246" y="144" width="60" height="22"></rect>
<a xlink:href="reuse_field.svg"><text x="276" y="159">field</text>
</a>
</g>
<path d="M306 155h10"></path>
<path d="M316 155h10"></path>
<g>
<path d="M326 155h0"></path>
<path d="M858 155h0"></path>
<g>
<path d="M326 155h0"></path>
<path d="M434 155h0"></path>
<path d="M326 155h20"></path>
<g class="terminal">
<path d="M346 155h0"></path>
<path d="M414 155h0"></path>
<rect x="346" y="144" width="68" height="22" rx="10" ry="10"></rect>
<text x="380" y="159">"LIKE"</text>
</g>
<path d="M414 155h20"></path>
<path d="M326 155a10 10 0 0 1 10 10v10a10 10 0 0 0 10 10"></path>
<g class="terminal">
<path d="M346 185h0"></path>
<path d="M414 185h0"></path>
<rect x="346" y="174" width="68" height="22" rx="10" ry="10"></rect>
<text x="380" y="189">"TYPE"</text>
</g>
<path d="M414 185a10 10 0 0 0 10 -10v-10a10 10 0 0 1 10 -10"></path>
</g>
<g>
<path d="M434 155h0"></path>
<path d="M614 155h0"></path>
<path d="M434 155a10 10 0 0 0 10 -10v0a10 10 0 0 1 10 -10"></path>
<g>
<path d="M454 135h140"></path>
</g>
<path d="M594 135a10 10 0 0 1 10 10v0a10 10 0 0 0 10 10"></path>
<path d="M434 155h20"></path>
<g>
<path d="M454 155h0"></path>
<path d="M594 155h0"></path>
<path d="M454 155h20"></path>
<g class="terminal">
<path d="M474 155h0"></path>
<path d="M574 155h0"></path>
<rect x="474" y="144" width="100" height="22" rx="10" ry="10"></rect>
<text x="524" y="159">"STANDARD"</text>
</g>
<path d="M574 155h20"></path>
<path d="M454 155a10 10 0 0 1 10 10v10a10 10 0 0 0 10 10"></path>
<g class="terminal">
<path d="M474 185h8"></path>
<path d="M566 185h8"></path>
<rect x="482" y="174" width="84" height="22" rx="10" ry="10"></rect>
<text x="524" y="189">"HASHED"</text>
</g>
<path d="M574 185a10 10 0 0 0 10 -10v-10a10 10 0 0 1 10 -10"></path>
<path d="M454 155a10 10 0 0 1 10 10v40a10 10 0 0 0 10 10"></path>
<g class="terminal">
<path d="M474 215h8"></path>
<path d="M566 215h8"></path>
<rect x="482" y="204" width="84" height="22" rx="10" ry="10"></rect>
<text x="524" y="219">"SORTED"</text>
</g>
<path d="M574 215a10 10 0 0 0 10 -10v-40a10 10 0 0 1 10 -10"></path>
</g>
<path d="M594 155h20"></path>
</g>
<path d="M614 155h10"></path>
<g class="terminal">
<path d="M624 155h0"></path>
<path d="M724 155h0"></path>
<rect x="624" y="144" width="100" height="22" rx="10" ry="10"></rect>
<text x="674" y="159">"TABLE OF"</text>
</g>
<path d="M724 155h10"></path>
<g>
<path d="M734 155h0"></path>
<path d="M858 155h0"></path>
<path d="M734 155a10 10 0 0 0 10 -10v0a10 10 0 0 1 10 -10"></path>
<g>
<path d="M754 135h84"></path>
</g>
<path d="M838 135a10 10 0 0 1 10 10v0a10 10 0 0 0 10 10"></path>
<path d="M734 155h20"></path>
<g class="terminal">
<path d="M754 155h0"></path>
<path d="M838 155h0"></path>
<rect x="754" y="144" width="84" height="22" rx="10" ry="10"></rect>
<text x="796" y="159">"REF TO"</text>
</g>
<path d="M838 155h20"></path>
</g>
</g>
<path d="M858 155h10"></path>
<path d="M868 155h10"></path>
<g class="non-terminal">
<path d="M878 155h0"></path>
<path d="M962 155h0"></path>
<rect x="878" y="144" width="84" height="22"></rect>
<a xlink:href="reuse_typename.svg"><text x="920" y="159">typename</text>
</a>
</g>
<path d="M962 155h10"></path>
<g>
<path d="M972 155h0"></path>
<path d="M1650 155h0"></path>
<path d="M972 155a10 10 0 0 0 10 -10v-8a10 10 0 0 1 10 -10"></path>
<g>
<path d="M992 127h638"></path>
</g>
<path d="M1630 127a10 10 0 0 1 10 10v8a10 10 0 0 0 10 10"></path>
<path d="M972 155h20"></path>
<g>
<path d="M992 155h0"></path>
<path d="M1630 155h0"></path>
<g class="terminal">
<path d="M992 155h0"></path>
<path d="M1060 155h0"></path>
<rect x="992" y="144" width="68" height="22" rx="10" ry="10"></rect>
<text x="1026" y="159">"WITH"</text>
</g>
<path d="M1060 155h10"></path>
<g>
<path d="M1070 155h0"></path>
<path d="M1266 155h0"></path>
<path d="M1070 155a10 10 0 0 0 10 -10v0a10 10 0 0 1 10 -10"></path>
<g>
<path d="M1090 135h156"></path>
</g>
<path d="M1246 135a10 10 0 0 1 10 10v0a10 10 0 0 0 10 10"></path>
<path d="M1070 155h20"></path>
<g>
<path d="M1090 155h0"></path>
<path d="M1246 155h0"></path>
<path d="M1090 155h20"></path>
<g class="terminal">
<path d="M1110 155h0"></path>
<path d="M1226 155h0"></path>
<rect x="1110" y="144" width="116" height="22" rx="10" ry="10"></rect>
<text x="1168" y="159">"NON-UNIQUE"</text>
</g>
<path d="M1226 155h20"></path>
<path d="M1090 155a10 10 0 0 1 10 10v10a10 10 0 0 0 10 10"></path>
<g class="terminal">
<path d="M1110 185h16"></path>
<path d="M1210 185h16"></path>
<rect x="1126" y="174" width="84" height="22" rx="10" ry="10"></rect>
<text x="1168" y="189">"UNIQUE"</text>
</g>
<path d="M1226 185a10 10 0 0 0 10 -10v-10a10 10 0 0 1 10 -10"></path>
</g>
<path d="M1246 155h20"></path>
</g>
<g>
<path d="M1266 155h0"></path>
<path d="M1398 155h0"></path>
<path d="M1266 155a10 10 0 0 0 10 -10v0a10 10 0 0 1 10 -10"></path>
<g>
<path d="M1286 135h92"></path>
</g>
<path d="M1378 135a10 10 0 0 1 10 10v0a10 10 0 0 0 10 10"></path>
<path d="M1266 155h20"></path>
<g class="terminal">
<path d="M1286 155h0"></path>
<path d="M1378 155h0"></path>
<rect x="1286" y="144" width="92" height="22" rx="10" ry="10"></rect>
<text x="1332" y="159">"DEFAULT"</text>
</g>
<path d="M1378 155h20"></path>
</g>
<path d="M1398 155h10"></path>
<g class="terminal">
<path d="M1408 155h0"></path>
<path d="M1468 155h0"></path>
<rect x="1408" y="144" width="60" height="22" rx="10" ry="10"></rect>
<text x="1438" y="159">"KEY"</text>
</g>
<path d="M1468 155h10"></path>
<g>
<path d="M1478 155h0"></path>
<path d="M1630 155h0"></path>
<path d="M1478 155a10 10 0 0 0 10 -10v0a10 10 0 0 1 10 -10"></path>
<g>
<path d="M1498 135h112"></path>
</g>
<path d="M1610 135a10 10 0 0 1 10 10v0a10 10 0 0 0 10 10"></path>
<path d="M1478 155h20"></path>
<g>
<path d="M1498 155h0"></path>
<path d="M1610 155h0"></path>
<path d="M1498 155h10"></path>
<g class="non-terminal">
<path d="M1508 155h0"></path>
<path d="M1600 155h0"></path>
<rect x="1508" y="144" width="92" height="22"></rect>
<a xlink:href="reuse_field_sub.svg"><text x="1554" y="159">field&#95;sub</text>
</a>
</g>
<path d="M1600 155h10"></path>
<path d="M1508 155a10 10 0 0 0 -10 10v0a10 10 0 0 0 10 10"></path>
<g>
<path d="M1508 175h92"></path>
</g>
<path d="M1600 175a10 10 0 0 0 10 -10v0a10 10 0 0 0 -10 -10"></path>
</g>
<path d="M1610 155h20"></path>
</g>
</g>
<path d="M1630 155h20"></path>
</g>
<g>
<path d="M1650 155h0"></path>
<path d="M1798 155h0"></path>
<path d="M1650 155a10 10 0 0 0 10 -10v0a10 10 0 0 1 10 -10"></path>
<g>
<path d="M1670 135h108"></path>
</g>
<path d="M1778 135a10 10 0 0 1 10 10v0a10 10 0 0 0 10 10"></path>
<path d="M1650 155h20"></path>
<g class="terminal">
<path d="M1670 155h0"></path>
<path d="M1778 155h0"></path>
<rect x="1670" y="144" width="108" height="22" rx="10" ry="10"></rect>
<text x="1724" y="159">"READ-ONLY"</text>
</g>
<path d="M1778 155h20"></path>
</g>
<g>
<path d="M1798 155h0"></path>
<path d="M2066 155h0"></path>
<path d="M1798 155a10 10 0 0 0 10 -10v0a10 10 0 0 1 10 -10"></path>
<g>
<path d="M1818 135h228"></path>
</g>
<path d="M2046 135a10 10 0 0 1 10 10v0a10 10 0 0 0 10 10"></path>
<path d="M1798 155h20"></path>
<g>
<path d="M1818 155h0"></path>
<path d="M2046 155h0"></path>
<g class="terminal">
<path d="M1818 155h0"></path>
<path d="M1950 155h0"></path>
<rect x="1818" y="144" width="132" height="22" rx="10" ry="10"></rect>
<text x="1884" y="159">"INITIAL SIZE"</text>
</g>
<path d="M1950 155h10"></path>
<path d="M1960 155h10"></path>
<g class="non-terminal">
<path d="M1970 155h0"></path>
<path d="M2046 155h0"></path>
<rect x="1970" y="144" width="76" height="22"></rect>
<a xlink:href="reuse_integer.svg"><text x="2008" y="159">integer</text>
</a>
</g>
</g>
<path d="M2046 155h20"></path>
</g>
</g>
<path d="M2086 155a10 10 0 0 0 10 -10v-87a10 10 0 0 1 10 -10"></path>
<path d="M206 48a10 10 0 0 1 10 10v177a10 10 0 0 0 10 10"></path>
<g>
<path d="M226 245h825"></path>
<path d="M1261 245h825"></path>
<g>
<path d="M1051 245h0"></path>
<path d="M1191 245h0"></path>
<path d="M1051 245h20"></path>
<g class="terminal">
<path d="M1071 245h0"></path>
<path d="M1171 245h0"></path>
<rect x="1071" y="234" width="100" height="22" rx="10" ry="10"></rect>
<text x="1121" y="249">"BEGIN OF"</text>
</g>
<path d="M1171 245h20"></path>
<path d="M1051 245a10 10 0 0 1 10 10v10a10 10 0 0 0 10 10"></path>
<g class="terminal">
<path d="M1071 275h8"></path>
<path d="M1163 275h8"></path>
<rect x="1079" y="264" width="84" height="22" rx="10" ry="10"></rect>
<text x="1121" y="279">"END OF"</text>
</g>
<path d="M1171 275a10 10 0 0 0 10 -10v-10a10 10 0 0 1 10 -10"></path>
</g>
<path d="M1191 245h10"></path>
<g class="non-terminal">
<path d="M1201 245h0"></path>
<path d="M1261 245h0"></path>
<rect x="1201" y="234" width="60" height="22"></rect>
<a xlink:href="reuse_field.svg"><text x="1231" y="249">field</text>
</a>
</g>
</g>
<path d="M2086 245a10 10 0 0 0 10 -10v-177a10 10 0 0 1 10 -10"></path>
</g>
</g>
<path d="M2106 48h10"></path>
<path d="M 2116 48 h 20 m -10 -10 v 20 m 10 -20 v 20"></path>
</g>
</svg>
