<svg xmlns="http://www.w3.org/2000/svg" xmlns:xlink="http://www.w3.org/1999/xlink" class="railroad-diagram" width="902" height="170" viewBox="0 0 902 170">
<defs>
<style type="text/css"><![CDATA[
path {
stroke-width: 3;
stroke: black;
fill: rgba(0,0,0,0);
}
text {
font: bold 14px monospace;
text-anchor: middle;
}
text.diagram-text {
font-size: 12px;
}
a {
fill: blue;
}
text.diagram-arrow {
font-size: 16px;
}
text.label {
text-anchor: start;
}
text.comment {
font: italic 12px monospace;
}
rect {
stroke-width: 3;
stroke: black;
fill: #BCBCBC;
}
path.diagram-text {
stroke-width: 3;
stroke: black;
fill: #BCBCBC;
cursor: help;
}
]]></style>
</defs>
<g transform="translate(.5 .5)">
<path d="M 20 30 v 20 m 10 -20 v 20 m -10 -10 h 20.5"></path>
<path d="M40 40h10"></path>
<g>
<path d="M50 40h0"></path>
<path d="M852 40h0"></path>
<g>
<path d="M50 40h0"></path>
<path d="M206 40h0"></path>
<path d="M50 40h20"></path>
<g class="terminal">
<path d="M70 40h0"></path>
<path d="M186 40h0"></path>
<rect x="70" y="29" width="116" height="22" rx="10" ry="10"></rect>
<text x="128" y="44">"CLASS-DATA"</text>
</g>
<path d="M186 40h20"></path>
<path d="M50 40a10 10 0 0 1 10 10v10a10 10 0 0 0 10 10"></path>
<g class="terminal">
<path d="M70 70h0"></path>
<path d="M138 70h48"></path>
<rect x="70" y="59" width="68" height="22" rx="10" ry="10"></rect>
<text x="104" y="74">"DATA"</text>
</g>
<path d="M186 70a10 10 0 0 0 10 -10v-10a10 10 0 0 1 10 -10"></path>
</g>
<g>
<path d="M206 40h0"></path>
<path d="M852 40h0"></path>
<path d="M206 40h20"></path>
<g>
<path d="M226 40h0"></path>
<path d="M792 40h40"></path>
<g class="non-terminal">
<path d="M226 40h0"></path>
<path d="M286 40h0"></path>
<rect x="226" y="29" width="60" height="22"></rect>
<a xlink:href="reuse_field.svg"><text x="256" y="44">field</text>
</a>
</g>
<path d="M286 40h10"></path>
<g>
<path d="M296 40h0"></path>
<path d="M452 40h0"></path>
<path d="M296 40a10 10 0 0 0 10 -10v0a10 10 0 0 1 10 -10"></path>
<g>
<path d="M316 20h116"></path>
</g>
<path d="M432 20a10 10 0 0 1 10 10v0a10 10 0 0 0 10 10"></path>
<path d="M296 40h20"></path>
<g class="non-terminal">
<path d="M316 40h0"></path>
<path d="M432 40h0"></path>
<rect x="316" y="29" width="116" height="22"></rect>
<a xlink:href="reuse_field_length.svg"><text x="374" y="44">field&#95;length</text>
</a>
</g>
<path d="M432 40h20"></path>
</g>
<g>
<path d="M452 40h0"></path>
<path d="M544 40h0"></path>
<path d="M452 40a10 10 0 0 0 10 -10v0a10 10 0 0 1 10 -10"></path>
<g>
<path d="M472 20h52"></path>
</g>
<path d="M524 20a10 10 0 0 1 10 10v0a10 10 0 0 0 10 10"></path>
<path d="M452 40h20"></path>
<g class="non-terminal">
<path d="M472 40h0"></path>
<path d="M524 40h0"></path>
<rect x="472" y="29" width="52" height="22"></rect>
<a xlink:href="reuse_type.svg"><text x="498" y="44">type</text>
</a>
</g>
<path d="M524 40h20"></path>
</g>
<g>
<path d="M544 40h0"></path>
<path d="M692 40h0"></path>
<path d="M544 40a10 10 0 0 0 10 -10v0a10 10 0 0 1 10 -10"></path>
<g>
<path d="M564 20h108"></path>
</g>
<path d="M672 20a10 10 0 0 1 10 10v0a10 10 0 0 0 10 10"></path>
<path d="M544 40h20"></path>
<g class="terminal">
<path d="M564 40h0"></path>
<path d="M672 40h0"></path>
<rect x="564" y="29" width="108" height="22" rx="10" ry="10"></rect>
<text x="618" y="44">"READ-ONLY"</text>
</g>
<path d="M672 40h20"></path>
</g>
<g>
<path d="M692 40h0"></path>
<path d="M792 40h0"></path>
<path d="M692 40a10 10 0 0 0 10 -10v0a10 10 0 0 1 10 -10"></path>
<g>
<path d="M712 20h60"></path>
</g>
<path d="M772 20a10 10 0 0 1 10 10v0a10 10 0 0 0 10 10"></path>
<path d="M692 40h20"></path>
<g class="non-terminal">
<path d="M712 40h0"></path>
<path d="M772 40h0"></path>
<rect x="712" y="29" width="60" height="22"></rect>
<a xlink:href="reuse_value.svg"><text x="742" y="44">value</text>
</a>
</g>
<path d="M772 40h20"></path>
</g>
</g>
<path d="M832 40h20"></path>
<path d="M206 40a10 10 0 0 1 10 10v19a10 10 0 0 0 10 10"></path>
<g>
<path d="M226 79h0"></path>
<path d="M832 79h0"></path>
<g class="non-terminal">
<path d="M226 79h0"></path>
<path d="M286 79h0"></path>
<rect x="226" y="68" width="60" height="22"></rect>
<a xlink:href="reuse_field.svg"><text x="256" y="83">field</text>
</a>
</g>
<path d="M286 79h10"></path>
<path d="M296 79h10"></path>
<g class="non-terminal">
<path d="M306 79h0"></path>
<path d="M406 79h0"></path>
<rect x="306" y="68" width="100" height="22"></rect>
<a xlink:href="reuse_type_table.svg"><text x="356" y="83">type&#95;table</text>
</a>
</g>
<path d="M406 79h10"></path>
<g>
<path d="M416 79h0"></path>
<path d="M564 79h0"></path>
<path d="M416 79a10 10 0 0 0 10 -10v0a10 10 0 0 1 10 -10"></path>
<g>
<path d="M436 59h108"></path>
</g>
<path d="M544 59a10 10 0 0 1 10 10v0a10 10 0 0 0 10 10"></path>
<path d="M416 79h20"></path>
<g class="terminal">
<path d="M436 79h0"></path>
<path d="M544 79h0"></path>
<rect x="436" y="68" width="108" height="22" rx="10" ry="10"></rect>
<text x="490" y="83">"READ-ONLY"</text>
</g>
<path d="M544 79h20"></path>
</g>
<g>
<path d="M564 79h0"></path>
<path d="M832 79h0"></path>
<path d="M564 79a10 10 0 0 0 10 -10v0a10 10 0 0 1 10 -10"></path>
<g>
<path d="M584 59h228"></path>
</g>
<path d="M812 59a10 10 0 0 1 10 10v0a10 10 0 0 0 10 10"></path>
<path d="M564 79h20"></path>
<g>
<path d="M584 79h0"></path>
<path d="M812 79h0"></path>
<g class="terminal">
<path d="M584 79h0"></path>
<path d="M716 79h0"></path>
<rect x="584" y="68" width="132" height="22" rx="10" ry="10"></rect>
<text x="650" y="83">"INITIAL SIZE"</text>
</g>
<path d="M716 79h10"></path>
<path d="M726 79h10"></path>
<g class="non-terminal">
<path d="M736 79h0"></path>
<path d="M812 79h0"></path>
<rect x="736" y="68" width="76" height="22"></rect>
<a xlink:href="reuse_integer.svg"><text x="774" y="83">integer</text>
</a>
</g>
</g>
<path d="M812 79h20"></path>
</g>
</g>
<path d="M832 79a10 10 0 0 0 10 -10v-19a10 10 0 0 1 10 -10"></path>
<path d="M206 40a10 10 0 0 1 10 10v49a10 10 0 0 0 10 10"></path>
<g>
<path d="M226 109h0"></path>
<path d="M436 109h396"></path>
<g>
<path d="M226 109h0"></path>
<path d="M366 109h0"></path>
<path d="M226 109h20"></path>
<g class="terminal">
<path d="M246 109h0"></path>
<path d="M346 109h0"></path>
<rect x="246" y="98" width="100" height="22" rx="10" ry="10"></rect>
<text x="296" y="113">"BEGIN OF"</text>
</g>
<path d="M346 109h20"></path>
<path d="M226 109a10 10 0 0 1 10 10v10a10 10 0 0 0 10 10"></path>
<g class="terminal">
<path d="M246 139h0"></path>
<path d="M330 139h16"></path>
<rect x="246" y="128" width="84" height="22" rx="10" ry="10"></rect>
<text x="288" y="143">"END OF"</text>
</g>
<path d="M346 139a10 10 0 0 0 10 -10v-10a10 10 0 0 1 10 -10"></path>
</g>
<path d="M366 109h10"></path>
<g class="non-terminal">
<path d="M376 109h0"></path>
<path d="M436 109h0"></path>
<rect x="376" y="98" width="60" height="22"></rect>
<a xlink:href="reuse_field.svg"><text x="406" y="113">field</text>
</a>
</g>
</g>
<path d="M832 109a10 10 0 0 0 10 -10v-49a10 10 0 0 1 10 -10"></path>
</g>
</g>
<path d="M852 40h10"></path>
<path d="M 862 40 h 20 m -10 -10 v 20 m 10 -20 v 20"></path>
</g>
</svg>
