<svg xmlns="http://www.w3.org/2000/svg" xmlns:xlink="http://www.w3.org/1999/xlink" class="railroad-diagram" width="1006" height="140" viewBox="0 0 1006 140">
<defs>
<style type="text/css"><![CDATA[
path {
stroke-width: 3;
stroke: black;
fill: rgba(0,0,0,0);
}
text {
font: bold 14px monospace;
text-anchor: middle;
}
text.diagram-text {
font-size: 12px;
}
a {
fill: blue;
}
text.diagram-arrow {
font-size: 16px;
}
text.label {
text-anchor: start;
}
text.comment {
font: italic 12px monospace;
}
rect {
stroke-width: 3;
stroke: black;
fill: #BCBCBC;
}
path.diagram-text {
stroke-width: 3;
stroke: black;
fill: #BCBCBC;
cursor: help;
}
]]></style>
</defs>
<g transform="translate(.5 .5)">
<path d="M 20 30 v 20 m 10 -20 v 20 m -10 -10 h 20.5"></path>
<path d="M40 40h10"></path>
<g>
<path d="M50 40h0"></path>
<path d="M956 40h0"></path>
<g>
<path d="M50 40h0"></path>
<path d="M206 40h0"></path>
<path d="M50 40h20"></path>
<g class="terminal">
<path d="M70 40h0"></path>
<path d="M186 40h0"></path>
<rect x="70" y="29" width="116" height="22" rx="10" ry="10"></rect>
<text x="128" y="44">"CLASS-DATA"</text>
</g>
<path d="M186 40h20"></path>
<path d="M50 40a10 10 0 0 1 10 10v10a10 10 0 0 0 10 10"></path>
<g class="terminal">
<path d="M70 70h0"></path>
<path d="M138 70h48"></path>
<rect x="70" y="59" width="68" height="22" rx="10" ry="10"></rect>
<text x="104" y="74">"DATA"</text>
</g>
<path d="M186 70a10 10 0 0 0 10 -10v-10a10 10 0 0 1 10 -10"></path>
</g>
<path d="M206 40h10"></path>
<g class="non-terminal">
<path d="M216 40h0"></path>
<path d="M388 40h0"></path>
<rect x="216" y="29" width="172" height="22"></rect>
<a xlink:href="reuse_namespacesimplename.svg"><text x="302" y="44">NamespaceSimpleName</text>
</a>
</g>
<path d="M388 40h10"></path>
<g>
<path d="M398 40h0"></path>
<path d="M956 40h0"></path>
<path d="M398 40h20"></path>
<g>
<path d="M418 40h0"></path>
<path d="M876 40h60"></path>
<g>
<path d="M418 40h0"></path>
<path d="M566 40h0"></path>
<path d="M418 40a10 10 0 0 0 10 -10v0a10 10 0 0 1 10 -10"></path>
<g>
<path d="M438 20h108"></path>
</g>
<path d="M546 20a10 10 0 0 1 10 10v0a10 10 0 0 0 10 10"></path>
<path d="M418 40h20"></path>
<g class="non-terminal">
<path d="M438 40h0"></path>
<path d="M546 40h0"></path>
<rect x="438" y="29" width="108" height="22"></rect>
<a xlink:href="reuse_fieldlength.svg"><text x="492" y="44">FieldLength</text>
</a>
</g>
<path d="M546 40h20"></path>
</g>
<g>
<path d="M566 40h0"></path>
<path d="M658 40h0"></path>
<path d="M566 40a10 10 0 0 0 10 -10v0a10 10 0 0 1 10 -10"></path>
<g>
<path d="M586 20h52"></path>
</g>
<path d="M638 20a10 10 0 0 1 10 10v0a10 10 0 0 0 10 10"></path>
<path d="M566 40h20"></path>
<g class="non-terminal">
<path d="M586 40h0"></path>
<path d="M638 40h0"></path>
<rect x="586" y="29" width="52" height="22"></rect>
<a xlink:href="reuse_type.svg"><text x="612" y="44">Type</text>
</a>
</g>
<path d="M638 40h20"></path>
</g>
<g>
<path d="M658 40h0"></path>
<path d="M876 40h0"></path>
<path d="M658 40a10 10 0 0 0 10 -10v0a10 10 0 0 1 10 -10"></path>
<g>
<path d="M678 20h178"></path>
</g>
<path d="M856 20a10 10 0 0 1 10 10v0a10 10 0 0 0 10 10"></path>
<path d="M658 40h20"></path>
<g>
<path d="M678 40h0"></path>
<path d="M856 40h0"></path>
<path d="M708 40h10"></path>
<g class="terminal">
<path d="M718 40h0"></path>
<path d="M826 40h0"></path>
<rect x="718" y="29" width="108" height="22" rx="10" ry="10"></rect>
<text x="772" y="44">"READ-ONLY"</text>
</g>
<path d="M826 40h10"></path>
<path d="M708 40v20a10 10 0 0 0 10 10"></path>
<g class="non-terminal">
<path d="M718 70h0"></path>
<path d="M778 70h48"></path>
<rect x="718" y="59" width="60" height="22"></rect>
<a xlink:href="reuse_value.svg"><text x="748" y="74">Value</text>
</a>
</g>
<path d="M826 70a10 10 0 0 0 10 -10v-20"></path>
<g class="diagram-text">
<title>take one or more branches, once each, in any order</title>
<path d="M 708 30 h -26 a 4 4 0 0 0 -4 4 v 12 a 4 4 0 0 0 4 4 h 26 z" class="diagram-text"></path>
<text x="693" y="44" class="diagram-text">1+</text>
<path d="M 836 30 h 16 a 4 4 0 0 1 4 4 v 12 a 4 4 0 0 1 -4 4 h -16 z" class="diagram-text"></path>
<path d="M 843 38 a 4 4 0 1 0 6 -1 m 2.75 -1 h -4 v 4 m 0 -3 h 2" style="stroke-width: 1.75"></path>
</g>
</g>
<path d="M856 40h20"></path>
</g>
</g>
<path d="M936 40h20"></path>
<path d="M398 40a10 10 0 0 1 10 10v49a10 10 0 0 0 10 10"></path>
<g>
<path d="M418 109h0"></path>
<path d="M936 109h0"></path>
<g class="non-terminal">
<path d="M418 109h0"></path>
<path d="M510 109h0"></path>
<rect x="418" y="98" width="92" height="22"></rect>
<a xlink:href="reuse_typetable.svg"><text x="464" y="113">TypeTable</text>
</a>
</g>
<path d="M510 109h10"></path>
<g>
<path d="M520 109h0"></path>
<path d="M668 109h0"></path>
<path d="M520 109a10 10 0 0 0 10 -10v0a10 10 0 0 1 10 -10"></path>
<g>
<path d="M540 89h108"></path>
</g>
<path d="M648 89a10 10 0 0 1 10 10v0a10 10 0 0 0 10 10"></path>
<path d="M520 109h20"></path>
<g class="terminal">
<path d="M540 109h0"></path>
<path d="M648 109h0"></path>
<rect x="540" y="98" width="108" height="22" rx="10" ry="10"></rect>
<text x="594" y="113">"READ-ONLY"</text>
</g>
<path d="M648 109h20"></path>
</g>
<g>
<path d="M668 109h0"></path>
<path d="M936 109h0"></path>
<path d="M668 109a10 10 0 0 0 10 -10v0a10 10 0 0 1 10 -10"></path>
<g>
<path d="M688 89h228"></path>
</g>
<path d="M916 89a10 10 0 0 1 10 10v0a10 10 0 0 0 10 10"></path>
<path d="M668 109h20"></path>
<g>
<path d="M688 109h0"></path>
<path d="M916 109h0"></path>
<g class="terminal">
<path d="M688 109h0"></path>
<path d="M820 109h0"></path>
<rect x="688" y="98" width="132" height="22" rx="10" ry="10"></rect>
<text x="754" y="113">"INITIAL SIZE"</text>
</g>
<path d="M820 109h10"></path>
<path d="M830 109h10"></path>
<g class="non-terminal">
<path d="M840 109h0"></path>
<path d="M916 109h0"></path>
<rect x="840" y="98" width="76" height="22"></rect>
<a xlink:href="reuse_integer.svg"><text x="878" y="113">Integer</text>
</a>
</g>
</g>
<path d="M916 109h20"></path>
</g>
</g>
<path d="M936 109a10 10 0 0 0 10 -10v-49a10 10 0 0 1 10 -10"></path>
</g>
</g>
<path d="M956 40h10"></path>
<path d="M 966 40 h 20 m -10 -10 v 20 m 10 -20 v 20"></path>
</g>
</svg>
