<svg xmlns="http://www.w3.org/2000/svg" xmlns:xlink="http://www.w3.org/1999/xlink" class="railroad-diagram" width="934" height="140" viewBox="0 0 934 140">
<defs>
<style type="text/css"><![CDATA[
path {
stroke-width: 3;
stroke: black;
fill: rgba(0,0,0,0);
}
text {
font: bold 14px monospace;
text-anchor: middle;
}
text.diagram-text {
font-size: 12px;
}
a {
fill: blue;
}
text.diagram-arrow {
font-size: 16px;
}
text.label {
text-anchor: start;
}
text.comment {
font: italic 12px monospace;
}
rect {
stroke-width: 3;
stroke: black;
fill: #BCBCBC;
}
path.diagram-text {
stroke-width: 3;
stroke: black;
fill: #BCBCBC;
cursor: help;
}
]]></style>
</defs>
<g transform="translate(.5 .5)">
<path d="M 20 30 v 20 m 10 -20 v 20 m -10 -10 h 20.5"></path>
<path d="M40 40h10"></path>
<g>
<path d="M50 40h0"></path>
<path d="M884 40h0"></path>
<g>
<path d="M50 40h0"></path>
<path d="M206 40h0"></path>
<path d="M50 40h20"></path>
<g class="terminal">
<path d="M70 40h0"></path>
<path d="M186 40h0"></path>
<rect x="70" y="29" width="116" height="22" rx="10" ry="10"></rect>
<text x="128" y="44">"CLASS-DATA"</text>
</g>
<path d="M186 40h20"></path>
<path d="M50 40a10 10 0 0 1 10 10v10a10 10 0 0 0 10 10"></path>
<g class="terminal">
<path d="M70 70h0"></path>
<path d="M138 70h48"></path>
<rect x="70" y="59" width="68" height="22" rx="10" ry="10"></rect>
<text x="104" y="74">"DATA"</text>
</g>
<path d="M186 70a10 10 0 0 0 10 -10v-10a10 10 0 0 1 10 -10"></path>
</g>
<path d="M206 40h10"></path>
<g class="non-terminal">
<path d="M216 40h0"></path>
<path d="M316 40h0"></path>
<rect x="216" y="29" width="100" height="22"></rect>
<a xlink:href="reuse_simplename.svg"><text x="266" y="44">SimpleName</text>
</a>
</g>
<path d="M316 40h10"></path>
<g>
<path d="M326 40h0"></path>
<path d="M884 40h0"></path>
<path d="M326 40h20"></path>
<g>
<path d="M346 40h0"></path>
<path d="M804 40h60"></path>
<g>
<path d="M346 40h0"></path>
<path d="M494 40h0"></path>
<path d="M346 40a10 10 0 0 0 10 -10v0a10 10 0 0 1 10 -10"></path>
<g>
<path d="M366 20h108"></path>
</g>
<path d="M474 20a10 10 0 0 1 10 10v0a10 10 0 0 0 10 10"></path>
<path d="M346 40h20"></path>
<g class="non-terminal">
<path d="M366 40h0"></path>
<path d="M474 40h0"></path>
<rect x="366" y="29" width="108" height="22"></rect>
<a xlink:href="reuse_fieldlength.svg"><text x="420" y="44">FieldLength</text>
</a>
</g>
<path d="M474 40h20"></path>
</g>
<g>
<path d="M494 40h0"></path>
<path d="M586 40h0"></path>
<path d="M494 40a10 10 0 0 0 10 -10v0a10 10 0 0 1 10 -10"></path>
<g>
<path d="M514 20h52"></path>
</g>
<path d="M566 20a10 10 0 0 1 10 10v0a10 10 0 0 0 10 10"></path>
<path d="M494 40h20"></path>
<g class="non-terminal">
<path d="M514 40h0"></path>
<path d="M566 40h0"></path>
<rect x="514" y="29" width="52" height="22"></rect>
<a xlink:href="reuse_type.svg"><text x="540" y="44">Type</text>
</a>
</g>
<path d="M566 40h20"></path>
</g>
<g>
<path d="M586 40h0"></path>
<path d="M804 40h0"></path>
<path d="M586 40a10 10 0 0 0 10 -10v0a10 10 0 0 1 10 -10"></path>
<g>
<path d="M606 20h178"></path>
</g>
<path d="M784 20a10 10 0 0 1 10 10v0a10 10 0 0 0 10 10"></path>
<path d="M586 40h20"></path>
<g>
<path d="M606 40h0"></path>
<path d="M784 40h0"></path>
<path d="M636 40h10"></path>
<g class="terminal">
<path d="M646 40h0"></path>
<path d="M754 40h0"></path>
<rect x="646" y="29" width="108" height="22" rx="10" ry="10"></rect>
<text x="700" y="44">"READ-ONLY"</text>
</g>
<path d="M754 40h10"></path>
<path d="M636 40v20a10 10 0 0 0 10 10"></path>
<g class="non-terminal">
<path d="M646 70h0"></path>
<path d="M706 70h48"></path>
<rect x="646" y="59" width="60" height="22"></rect>
<a xlink:href="reuse_value.svg"><text x="676" y="74">Value</text>
</a>
</g>
<path d="M754 70a10 10 0 0 0 10 -10v-20"></path>
<g class="diagram-text">
<title>take one or more branches, once each, in any order</title>
<path d="M 636 30 h -26 a 4 4 0 0 0 -4 4 v 12 a 4 4 0 0 0 4 4 h 26 z" class="diagram-text"></path>
<text x="621" y="44" class="diagram-text">1+</text>
<path d="M 764 30 h 16 a 4 4 0 0 1 4 4 v 12 a 4 4 0 0 1 -4 4 h -16 z" class="diagram-text"></path>
<path d="M 771 38 a 4 4 0 1 0 6 -1 m 2.75 -1 h -4 v 4 m 0 -3 h 2" style="stroke-width: 1.75"></path>
</g>
</g>
<path d="M784 40h20"></path>
</g>
</g>
<path d="M864 40h20"></path>
<path d="M326 40a10 10 0 0 1 10 10v49a10 10 0 0 0 10 10"></path>
<g>
<path d="M346 109h0"></path>
<path d="M864 109h0"></path>
<g class="non-terminal">
<path d="M346 109h0"></path>
<path d="M438 109h0"></path>
<rect x="346" y="98" width="92" height="22"></rect>
<a xlink:href="reuse_typetable.svg"><text x="392" y="113">TypeTable</text>
</a>
</g>
<path d="M438 109h10"></path>
<g>
<path d="M448 109h0"></path>
<path d="M596 109h0"></path>
<path d="M448 109a10 10 0 0 0 10 -10v0a10 10 0 0 1 10 -10"></path>
<g>
<path d="M468 89h108"></path>
</g>
<path d="M576 89a10 10 0 0 1 10 10v0a10 10 0 0 0 10 10"></path>
<path d="M448 109h20"></path>
<g class="terminal">
<path d="M468 109h0"></path>
<path d="M576 109h0"></path>
<rect x="468" y="98" width="108" height="22" rx="10" ry="10"></rect>
<text x="522" y="113">"READ-ONLY"</text>
</g>
<path d="M576 109h20"></path>
</g>
<g>
<path d="M596 109h0"></path>
<path d="M864 109h0"></path>
<path d="M596 109a10 10 0 0 0 10 -10v0a10 10 0 0 1 10 -10"></path>
<g>
<path d="M616 89h228"></path>
</g>
<path d="M844 89a10 10 0 0 1 10 10v0a10 10 0 0 0 10 10"></path>
<path d="M596 109h20"></path>
<g>
<path d="M616 109h0"></path>
<path d="M844 109h0"></path>
<g class="terminal">
<path d="M616 109h0"></path>
<path d="M748 109h0"></path>
<rect x="616" y="98" width="132" height="22" rx="10" ry="10"></rect>
<text x="682" y="113">"INITIAL SIZE"</text>
</g>
<path d="M748 109h10"></path>
<path d="M758 109h10"></path>
<g class="non-terminal">
<path d="M768 109h0"></path>
<path d="M844 109h0"></path>
<rect x="768" y="98" width="76" height="22"></rect>
<a xlink:href="reuse_integer.svg"><text x="806" y="113">Integer</text>
</a>
</g>
</g>
<path d="M844 109h20"></path>
</g>
</g>
<path d="M864 109a10 10 0 0 0 10 -10v-49a10 10 0 0 1 10 -10"></path>
</g>
</g>
<path d="M884 40h10"></path>
<path d="M 894 40 h 20 m -10 -10 v 20 m 10 -20 v 20"></path>
</g>
</svg>
