<svg xmlns="http://www.w3.org/2000/svg" xmlns:xlink="http://www.w3.org/1999/xlink" class="railroad-diagram" width="716" height="101" viewBox="0 0 716 101">
<defs>
<style type="text/css"><![CDATA[
path {
stroke-width: 3;
stroke: black;
fill: rgba(0,0,0,0);
}
text {
font: bold 14px monospace;
text-anchor: middle;
}
text.diagram-text {
font-size: 12px;
}
a {
fill: blue;
}
text.diagram-arrow {
font-size: 16px;
}
text.label {
text-anchor: start;
}
text.comment {
font: italic 12px monospace;
}
rect {
stroke-width: 3;
stroke: black;
fill: #BCBCBC;
}
path.diagram-text {
stroke-width: 3;
stroke: black;
fill: #BCBCBC;
cursor: help;
}
]]></style>
</defs>
<g transform="translate(.5 .5)">
<path d="M 20 30 v 20 m 10 -20 v 20 m -10 -10 h 20.5"></path>
<path d="M40 40h10"></path>
<g>
<path d="M50 40h0"></path>
<path d="M666 40h0"></path>
<g>
<path d="M50 40h0"></path>
<path d="M206 40h0"></path>
<path d="M50 40h20"></path>
<g class="terminal">
<path d="M70 40h0"></path>
<path d="M186 40h0"></path>
<rect x="70" y="29" width="116" height="22" rx="10" ry="10"></rect>
<text x="128" y="44">"CLASS-DATA"</text>
</g>
<path d="M186 40h20"></path>
<path d="M50 40a10 10 0 0 1 10 10v10a10 10 0 0 0 10 10"></path>
<g class="terminal">
<path d="M70 70h0"></path>
<path d="M138 70h48"></path>
<rect x="70" y="59" width="68" height="22" rx="10" ry="10"></rect>
<text x="104" y="74">"DATA"</text>
</g>
<path d="M186 70a10 10 0 0 0 10 -10v-10a10 10 0 0 1 10 -10"></path>
</g>
<path d="M206 40h10"></path>
<g>
<path d="M216 40h0"></path>
<path d="M666 40h0"></path>
<g class="terminal">
<path d="M216 40h0"></path>
<path d="M316 40h0"></path>
<rect x="216" y="29" width="100" height="22" rx="10" ry="10"></rect>
<text x="266" y="44">"BEGIN OF"</text>
</g>
<path d="M316 40h10"></path>
<path d="M326 40h10"></path>
<g class="non-terminal">
<path d="M336 40h0"></path>
<path d="M436 40h0"></path>
<rect x="336" y="29" width="100" height="22"></rect>
<a xlink:href="reuse_simplename.svg"><text x="386" y="44">SimpleName</text>
</a>
</g>
<path d="M436 40h10"></path>
<g>
<path d="M446 40h0"></path>
<path d="M666 40h0"></path>
<path d="M446 40a10 10 0 0 0 10 -10v0a10 10 0 0 1 10 -10"></path>
<g>
<path d="M466 20h180"></path>
</g>
<path d="M646 20a10 10 0 0 1 10 10v0a10 10 0 0 0 10 10"></path>
<path d="M446 40h20"></path>
<g>
<path d="M466 40h0"></path>
<path d="M646 40h0"></path>
<g class="terminal">
<path d="M466 40h0"></path>
<path d="M550 40h0"></path>
<rect x="466" y="29" width="84" height="22" rx="10" ry="10"></rect>
<text x="508" y="44">"OCCURS"</text>
</g>
<path d="M550 40h10"></path>
<path d="M560 40h10"></path>
<g class="non-terminal">
<path d="M570 40h0"></path>
<path d="M646 40h0"></path>
<rect x="570" y="29" width="76" height="22"></rect>
<a xlink:href="reuse_integer.svg"><text x="608" y="44">Integer</text>
</a>
</g>
</g>
<path d="M646 40h20"></path>
</g>
</g>
</g>
<path d="M666 40h10"></path>
<path d="M 676 40 h 20 m -10 -10 v 20 m 10 -20 v 20"></path>
</g>
</svg>
