<svg xmlns="http://www.w3.org/2000/svg" xmlns:xlink="http://www.w3.org/1999/xlink" class="railroad-diagram" width="674" height="101" viewBox="0 0 674 101">
<defs>
<style type="text/css"><![CDATA[
path {
stroke-width: 3;
stroke: black;
fill: rgba(0,0,0,0);
}
text {
font: bold 14px monospace;
text-anchor: middle;
}
text.diagram-text {
font-size: 12px;
}
a {
fill: blue;
}
text.diagram-arrow {
font-size: 16px;
}
text.label {
text-anchor: start;
}
text.comment {
font: italic 12px monospace;
}
rect {
stroke-width: 3;
stroke: black;
fill: #BCBCBC;
}
path.diagram-text {
stroke-width: 3;
stroke: black;
fill: #BCBCBC;
cursor: help;
}
]]></style>
</defs>
<g transform="translate(.5 .5)">
<path d="M 20 30 v 20 m 10 -20 v 20 m -10 -10 h 20.5"></path>
<path d="M40 40h10"></path>
<g>
<path d="M50 40h0"></path>
<path d="M624 40h0"></path>
<g>
<path d="M50 40h0"></path>
<path d="M206 40h0"></path>
<path d="M50 40h20"></path>
<g class="terminal">
<path d="M70 40h0"></path>
<path d="M186 40h0"></path>
<rect x="70" y="29" width="116" height="22" rx="10" ry="10"></rect>
<text x="128" y="44">"CLASS-DATA"</text>
</g>
<path d="M186 40h20"></path>
<path d="M50 40a10 10 0 0 1 10 10v10a10 10 0 0 0 10 10"></path>
<g class="terminal">
<path d="M70 70h0"></path>
<path d="M138 70h48"></path>
<rect x="70" y="59" width="68" height="22" rx="10" ry="10"></rect>
<text x="104" y="74">"DATA"</text>
</g>
<path d="M186 70a10 10 0 0 0 10 -10v-10a10 10 0 0 1 10 -10"></path>
</g>
<path d="M206 40h10"></path>
<g>
<path d="M216 40h0"></path>
<path d="M624 40h0"></path>
<g class="terminal">
<path d="M216 40h0"></path>
<path d="M300 40h0"></path>
<rect x="216" y="29" width="84" height="22" rx="10" ry="10"></rect>
<text x="258" y="44">"END OF"</text>
</g>
<path d="M300 40h10"></path>
<g>
<path d="M310 40h0"></path>
<path d="M624 40h0"></path>
<path d="M310 40h20"></path>
<g>
<path d="M330 40h0"></path>
<path d="M604 40h0"></path>
<g class="terminal">
<path d="M330 40h0"></path>
<path d="M454 40h0"></path>
<rect x="330" y="29" width="124" height="22" rx="10" ry="10"></rect>
<text x="392" y="44">"COMMON PART"</text>
</g>
<path d="M454 40h10"></path>
<g>
<path d="M464 40h0"></path>
<path d="M604 40h0"></path>
<path d="M464 40a10 10 0 0 0 10 -10v0a10 10 0 0 1 10 -10"></path>
<g>
<path d="M484 20h100"></path>
</g>
<path d="M584 20a10 10 0 0 1 10 10v0a10 10 0 0 0 10 10"></path>
<path d="M464 40h20"></path>
<g class="non-terminal">
<path d="M484 40h0"></path>
<path d="M584 40h0"></path>
<rect x="484" y="29" width="100" height="22"></rect>
<a xlink:href="reuse_simplename.svg"><text x="534" y="44">SimpleName</text>
</a>
</g>
<path d="M584 40h20"></path>
</g>
</g>
<path d="M604 40h20"></path>
<path d="M310 40a10 10 0 0 1 10 10v10a10 10 0 0 0 10 10"></path>
<g class="non-terminal">
<path d="M330 70h0"></path>
<path d="M430 70h174"></path>
<rect x="330" y="59" width="100" height="22"></rect>
<a xlink:href="reuse_simplename.svg"><text x="380" y="74">SimpleName</text>
</a>
</g>
<path d="M604 70a10 10 0 0 0 10 -10v-10a10 10 0 0 1 10 -10"></path>
</g>
</g>
</g>
<path d="M624 40h10"></path>
<path d="M 634 40 h 20 m -10 -10 v 20 m 10 -20 v 20"></path>
</g>
</svg>
