<svg xmlns="http://www.w3.org/2000/svg" xmlns:xlink="http://www.w3.org/1999/xlink" class="railroad-diagram" width="894" height="170" viewBox="0 0 894 170">
<defs>
<style type="text/css"><![CDATA[
path {
stroke-width: 3;
stroke: black;
fill: rgba(0,0,0,0);
}
text {
font: bold 14px monospace;
text-anchor: middle;
}
text.diagram-text {
font-size: 12px;
}
a {
fill: blue;
}
text.diagram-arrow {
font-size: 16px;
}
text.label {
text-anchor: start;
}
text.comment {
font: italic 12px monospace;
}
rect {
stroke-width: 3;
stroke: black;
fill: #BCBCBC;
}
path.diagram-text {
stroke-width: 3;
stroke: black;
fill: #BCBCBC;
cursor: help;
}
]]></style>
</defs>
<g transform="translate(.5 .5)">
<path d="M 20 30 v 20 m 10 -20 v 20 m -10 -10 h 20.5"></path>
<path d="M40 40h10"></path>
<g>
<path d="M50 40h0"></path>
<path d="M844 40h0"></path>
<g>
<path d="M50 40h0"></path>
<path d="M206 40h0"></path>
<path d="M50 40h20"></path>
<g class="terminal">
<path d="M70 40h0"></path>
<path d="M186 40h0"></path>
<rect x="70" y="29" width="116" height="22" rx="10" ry="10"></rect>
<text x="128" y="44">"CLASS-DATA"</text>
</g>
<path d="M186 40h20"></path>
<path d="M50 40a10 10 0 0 1 10 10v10a10 10 0 0 0 10 10"></path>
<g class="terminal">
<path d="M70 70h0"></path>
<path d="M138 70h48"></path>
<rect x="70" y="59" width="68" height="22" rx="10" ry="10"></rect>
<text x="104" y="74">"DATA"</text>
</g>
<path d="M186 70a10 10 0 0 0 10 -10v-10a10 10 0 0 1 10 -10"></path>
</g>
<g>
<path d="M206 40h0"></path>
<path d="M844 40h0"></path>
<path d="M206 40h20"></path>
<g>
<path d="M226 40h0"></path>
<path d="M784 40h40"></path>
<g class="non-terminal">
<path d="M226 40h0"></path>
<path d="M286 40h0"></path>
<rect x="226" y="29" width="60" height="22"></rect>
<a xlink:href="reuse_field.svg"><text x="256" y="44">Field</text>
</a>
</g>
<path d="M286 40h10"></path>
<g>
<path d="M296 40h0"></path>
<path d="M444 40h0"></path>
<path d="M296 40a10 10 0 0 0 10 -10v0a10 10 0 0 1 10 -10"></path>
<g>
<path d="M316 20h108"></path>
</g>
<path d="M424 20a10 10 0 0 1 10 10v0a10 10 0 0 0 10 10"></path>
<path d="M296 40h20"></path>
<g class="non-terminal">
<path d="M316 40h0"></path>
<path d="M424 40h0"></path>
<rect x="316" y="29" width="108" height="22"></rect>
<a xlink:href="reuse_fieldlength.svg"><text x="370" y="44">FieldLength</text>
</a>
</g>
<path d="M424 40h20"></path>
</g>
<g>
<path d="M444 40h0"></path>
<path d="M536 40h0"></path>
<path d="M444 40a10 10 0 0 0 10 -10v0a10 10 0 0 1 10 -10"></path>
<g>
<path d="M464 20h52"></path>
</g>
<path d="M516 20a10 10 0 0 1 10 10v0a10 10 0 0 0 10 10"></path>
<path d="M444 40h20"></path>
<g class="non-terminal">
<path d="M464 40h0"></path>
<path d="M516 40h0"></path>
<rect x="464" y="29" width="52" height="22"></rect>
<a xlink:href="reuse_type.svg"><text x="490" y="44">Type</text>
</a>
</g>
<path d="M516 40h20"></path>
</g>
<g>
<path d="M536 40h0"></path>
<path d="M684 40h0"></path>
<path d="M536 40a10 10 0 0 0 10 -10v0a10 10 0 0 1 10 -10"></path>
<g>
<path d="M556 20h108"></path>
</g>
<path d="M664 20a10 10 0 0 1 10 10v0a10 10 0 0 0 10 10"></path>
<path d="M536 40h20"></path>
<g class="terminal">
<path d="M556 40h0"></path>
<path d="M664 40h0"></path>
<rect x="556" y="29" width="108" height="22" rx="10" ry="10"></rect>
<text x="610" y="44">"READ-ONLY"</text>
</g>
<path d="M664 40h20"></path>
</g>
<g>
<path d="M684 40h0"></path>
<path d="M784 40h0"></path>
<path d="M684 40a10 10 0 0 0 10 -10v0a10 10 0 0 1 10 -10"></path>
<g>
<path d="M704 20h60"></path>
</g>
<path d="M764 20a10 10 0 0 1 10 10v0a10 10 0 0 0 10 10"></path>
<path d="M684 40h20"></path>
<g class="non-terminal">
<path d="M704 40h0"></path>
<path d="M764 40h0"></path>
<rect x="704" y="29" width="60" height="22"></rect>
<a xlink:href="reuse_value.svg"><text x="734" y="44">Value</text>
</a>
</g>
<path d="M764 40h20"></path>
</g>
</g>
<path d="M824 40h20"></path>
<path d="M206 40a10 10 0 0 1 10 10v19a10 10 0 0 0 10 10"></path>
<g>
<path d="M226 79h0"></path>
<path d="M824 79h0"></path>
<g class="non-terminal">
<path d="M226 79h0"></path>
<path d="M286 79h0"></path>
<rect x="226" y="68" width="60" height="22"></rect>
<a xlink:href="reuse_field.svg"><text x="256" y="83">Field</text>
</a>
</g>
<path d="M286 79h10"></path>
<path d="M296 79h10"></path>
<g class="non-terminal">
<path d="M306 79h0"></path>
<path d="M398 79h0"></path>
<rect x="306" y="68" width="92" height="22"></rect>
<a xlink:href="reuse_typetable.svg"><text x="352" y="83">TypeTable</text>
</a>
</g>
<path d="M398 79h10"></path>
<g>
<path d="M408 79h0"></path>
<path d="M556 79h0"></path>
<path d="M408 79a10 10 0 0 0 10 -10v0a10 10 0 0 1 10 -10"></path>
<g>
<path d="M428 59h108"></path>
</g>
<path d="M536 59a10 10 0 0 1 10 10v0a10 10 0 0 0 10 10"></path>
<path d="M408 79h20"></path>
<g class="terminal">
<path d="M428 79h0"></path>
<path d="M536 79h0"></path>
<rect x="428" y="68" width="108" height="22" rx="10" ry="10"></rect>
<text x="482" y="83">"READ-ONLY"</text>
</g>
<path d="M536 79h20"></path>
</g>
<g>
<path d="M556 79h0"></path>
<path d="M824 79h0"></path>
<path d="M556 79a10 10 0 0 0 10 -10v0a10 10 0 0 1 10 -10"></path>
<g>
<path d="M576 59h228"></path>
</g>
<path d="M804 59a10 10 0 0 1 10 10v0a10 10 0 0 0 10 10"></path>
<path d="M556 79h20"></path>
<g>
<path d="M576 79h0"></path>
<path d="M804 79h0"></path>
<g class="terminal">
<path d="M576 79h0"></path>
<path d="M708 79h0"></path>
<rect x="576" y="68" width="132" height="22" rx="10" ry="10"></rect>
<text x="642" y="83">"INITIAL SIZE"</text>
</g>
<path d="M708 79h10"></path>
<path d="M718 79h10"></path>
<g class="non-terminal">
<path d="M728 79h0"></path>
<path d="M804 79h0"></path>
<rect x="728" y="68" width="76" height="22"></rect>
<a xlink:href="reuse_integer.svg"><text x="766" y="83">Integer</text>
</a>
</g>
</g>
<path d="M804 79h20"></path>
</g>
</g>
<path d="M824 79a10 10 0 0 0 10 -10v-19a10 10 0 0 1 10 -10"></path>
<path d="M206 40a10 10 0 0 1 10 10v49a10 10 0 0 0 10 10"></path>
<g>
<path d="M226 109h0"></path>
<path d="M436 109h388"></path>
<g>
<path d="M226 109h0"></path>
<path d="M366 109h0"></path>
<path d="M226 109h20"></path>
<g class="terminal">
<path d="M246 109h0"></path>
<path d="M346 109h0"></path>
<rect x="246" y="98" width="100" height="22" rx="10" ry="10"></rect>
<text x="296" y="113">"BEGIN OF"</text>
</g>
<path d="M346 109h20"></path>
<path d="M226 109a10 10 0 0 1 10 10v10a10 10 0 0 0 10 10"></path>
<g class="terminal">
<path d="M246 139h0"></path>
<path d="M330 139h16"></path>
<rect x="246" y="128" width="84" height="22" rx="10" ry="10"></rect>
<text x="288" y="143">"END OF"</text>
</g>
<path d="M346 139a10 10 0 0 0 10 -10v-10a10 10 0 0 1 10 -10"></path>
</g>
<path d="M366 109h10"></path>
<g class="non-terminal">
<path d="M376 109h0"></path>
<path d="M436 109h0"></path>
<rect x="376" y="98" width="60" height="22"></rect>
<a xlink:href="reuse_field.svg"><text x="406" y="113">Field</text>
</a>
</g>
</g>
<path d="M824 109a10 10 0 0 0 10 -10v-49a10 10 0 0 1 10 -10"></path>
</g>
</g>
<path d="M844 40h10"></path>
<path d="M 854 40 h 20 m -10 -10 v 20 m 10 -20 v 20"></path>
</g>
</svg>
