<svg xmlns="http://www.w3.org/2000/svg" xmlns:xlink="http://www.w3.org/1999/xlink" class="railroad-diagram" width="934" height="110" viewBox="0 0 934 110">
<defs>
<style type="text/css"><![CDATA[
path {
stroke-width: 3;
stroke: black;
fill: rgba(0,0,0,0);
}
text {
font: bold 14px monospace;
text-anchor: middle;
}
text.diagram-text {
font-size: 12px;
}
a {
fill: blue;
}
text.diagram-arrow {
font-size: 16px;
}
text.label {
text-anchor: start;
}
text.comment {
font: italic 12px monospace;
}
rect {
stroke-width: 3;
stroke: black;
fill: #BCBCBC;
}
path.diagram-text {
stroke-width: 3;
stroke: black;
fill: #BCBCBC;
cursor: help;
}
]]></style>
</defs>
<g transform="translate(.5 .5)">
<path d="M 20 30 v 20 m 10 -20 v 20 m -10 -10 h 20.5"></path>
<path d="M40 40h10"></path>
<g>
<path d="M50 40h0"></path>
<path d="M884 40h0"></path>
<g>
<path d="M50 40h0"></path>
<path d="M206 40h0"></path>
<path d="M50 40h20"></path>
<g class="terminal">
<path d="M70 40h0"></path>
<path d="M186 40h0"></path>
<rect x="70" y="29" width="116" height="22" rx="10" ry="10"></rect>
<text x="128" y="44">"CLASS-DATA"</text>
</g>
<path d="M186 40h20"></path>
<path d="M50 40a10 10 0 0 1 10 10v10a10 10 0 0 0 10 10"></path>
<g class="terminal">
<path d="M70 70h0"></path>
<path d="M138 70h48"></path>
<rect x="70" y="59" width="68" height="22" rx="10" ry="10"></rect>
<text x="104" y="74">"DATA"</text>
</g>
<path d="M186 70a10 10 0 0 0 10 -10v-10a10 10 0 0 1 10 -10"></path>
</g>
<path d="M206 40h10"></path>
<g class="non-terminal">
<path d="M216 40h0"></path>
<path d="M316 40h0"></path>
<rect x="216" y="29" width="100" height="22"></rect>
<a xlink:href="reuse_simplename.svg"><text x="266" y="44">SimpleName</text>
</a>
</g>
<path d="M316 40h10"></path>
<g>
<path d="M326 40h0"></path>
<path d="M884 40h0"></path>
<path d="M326 40h20"></path>
<g>
<path d="M346 40h0"></path>
<path d="M834 40h30"></path>
<g>
<path d="M346 40h0"></path>
<path d="M494 40h0"></path>
<path d="M346 40a10 10 0 0 0 10 -10v0a10 10 0 0 1 10 -10"></path>
<g>
<path d="M366 20h108"></path>
</g>
<path d="M474 20a10 10 0 0 1 10 10v0a10 10 0 0 0 10 10"></path>
<path d="M346 40h20"></path>
<g class="non-terminal">
<path d="M366 40h0"></path>
<path d="M474 40h0"></path>
<rect x="366" y="29" width="108" height="22"></rect>
<a xlink:href="reuse_fieldlength.svg"><text x="420" y="44">FieldLength</text>
</a>
</g>
<path d="M474 40h20"></path>
</g>
<g>
<path d="M494 40h0"></path>
<path d="M586 40h0"></path>
<path d="M494 40a10 10 0 0 0 10 -10v0a10 10 0 0 1 10 -10"></path>
<g>
<path d="M514 20h52"></path>
</g>
<path d="M566 20a10 10 0 0 1 10 10v0a10 10 0 0 0 10 10"></path>
<path d="M494 40h20"></path>
<g class="non-terminal">
<path d="M514 40h0"></path>
<path d="M566 40h0"></path>
<rect x="514" y="29" width="52" height="22"></rect>
<a xlink:href="reuse_type.svg"><text x="540" y="44">Type</text>
</a>
</g>
<path d="M566 40h20"></path>
</g>
<g>
<path d="M586 40h0"></path>
<path d="M734 40h0"></path>
<path d="M586 40a10 10 0 0 0 10 -10v0a10 10 0 0 1 10 -10"></path>
<g>
<path d="M606 20h108"></path>
</g>
<path d="M714 20a10 10 0 0 1 10 10v0a10 10 0 0 0 10 10"></path>
<path d="M586 40h20"></path>
<g class="terminal">
<path d="M606 40h0"></path>
<path d="M714 40h0"></path>
<rect x="606" y="29" width="108" height="22" rx="10" ry="10"></rect>
<text x="660" y="44">"READ-ONLY"</text>
</g>
<path d="M714 40h20"></path>
</g>
<g>
<path d="M734 40h0"></path>
<path d="M834 40h0"></path>
<path d="M734 40a10 10 0 0 0 10 -10v0a10 10 0 0 1 10 -10"></path>
<g>
<path d="M754 20h60"></path>
</g>
<path d="M814 20a10 10 0 0 1 10 10v0a10 10 0 0 0 10 10"></path>
<path d="M734 40h20"></path>
<g class="non-terminal">
<path d="M754 40h0"></path>
<path d="M814 40h0"></path>
<rect x="754" y="29" width="60" height="22"></rect>
<a xlink:href="reuse_value.svg"><text x="784" y="44">Value</text>
</a>
</g>
<path d="M814 40h20"></path>
</g>
</g>
<path d="M864 40h20"></path>
<path d="M326 40a10 10 0 0 1 10 10v19a10 10 0 0 0 10 10"></path>
<g>
<path d="M346 79h0"></path>
<path d="M864 79h0"></path>
<g class="non-terminal">
<path d="M346 79h0"></path>
<path d="M438 79h0"></path>
<rect x="346" y="68" width="92" height="22"></rect>
<a xlink:href="reuse_typetable.svg"><text x="392" y="83">TypeTable</text>
</a>
</g>
<path d="M438 79h10"></path>
<g>
<path d="M448 79h0"></path>
<path d="M596 79h0"></path>
<path d="M448 79a10 10 0 0 0 10 -10v0a10 10 0 0 1 10 -10"></path>
<g>
<path d="M468 59h108"></path>
</g>
<path d="M576 59a10 10 0 0 1 10 10v0a10 10 0 0 0 10 10"></path>
<path d="M448 79h20"></path>
<g class="terminal">
<path d="M468 79h0"></path>
<path d="M576 79h0"></path>
<rect x="468" y="68" width="108" height="22" rx="10" ry="10"></rect>
<text x="522" y="83">"READ-ONLY"</text>
</g>
<path d="M576 79h20"></path>
</g>
<g>
<path d="M596 79h0"></path>
<path d="M864 79h0"></path>
<path d="M596 79a10 10 0 0 0 10 -10v0a10 10 0 0 1 10 -10"></path>
<g>
<path d="M616 59h228"></path>
</g>
<path d="M844 59a10 10 0 0 1 10 10v0a10 10 0 0 0 10 10"></path>
<path d="M596 79h20"></path>
<g>
<path d="M616 79h0"></path>
<path d="M844 79h0"></path>
<g class="terminal">
<path d="M616 79h0"></path>
<path d="M748 79h0"></path>
<rect x="616" y="68" width="132" height="22" rx="10" ry="10"></rect>
<text x="682" y="83">"INITIAL SIZE"</text>
</g>
<path d="M748 79h10"></path>
<path d="M758 79h10"></path>
<g class="non-terminal">
<path d="M768 79h0"></path>
<path d="M844 79h0"></path>
<rect x="768" y="68" width="76" height="22"></rect>
<a xlink:href="reuse_integer.svg"><text x="806" y="83">Integer</text>
</a>
</g>
</g>
<path d="M844 79h20"></path>
</g>
</g>
<path d="M864 79a10 10 0 0 0 10 -10v-19a10 10 0 0 1 10 -10"></path>
</g>
</g>
<path d="M884 40h10"></path>
<path d="M 894 40 h 20 m -10 -10 v 20 m 10 -20 v 20"></path>
</g>
</svg>
