<svg xmlns="http://www.w3.org/2000/svg" xmlns:xlink="http://www.w3.org/1999/xlink" class="railroad-diagram" width="486" height="92" viewBox="0 0 486 92">
<defs>
<style type="text/css"><![CDATA[
path {
stroke-width: 3;
stroke: black;
fill: rgba(0,0,0,0);
}
text {
font: bold 14px monospace;
text-anchor: middle;
}
text.diagram-text {
font-size: 12px;
}
a {
fill: blue;
}
text.diagram-arrow {
font-size: 16px;
}
text.label {
text-anchor: start;
}
text.comment {
font: italic 12px monospace;
}
rect {
stroke-width: 3;
stroke: black;
fill: #BCBCBC;
}
path.diagram-text {
stroke-width: 3;
stroke: black;
fill: #BCBCBC;
cursor: help;
}
]]></style>
</defs>
<g transform="translate(.5 .5)">
<path d="M 20 21 v 20 m 10 -20 v 20 m -10 -10 h 20.5"></path>
<path d="M40 31h10"></path>
<g>
<path d="M50 31h0"></path>
<path d="M436 31h0"></path>
<g>
<path d="M50 31h0"></path>
<path d="M206 31h0"></path>
<path d="M50 31h20"></path>
<g class="terminal">
<path d="M70 31h0"></path>
<path d="M186 31h0"></path>
<rect x="70" y="20" width="116" height="22" rx="10" ry="10"></rect>
<text x="128" y="35">"CLASS-DATA"</text>
</g>
<path d="M186 31h20"></path>
<path d="M50 31a10 10 0 0 1 10 10v10a10 10 0 0 0 10 10"></path>
<g class="terminal">
<path d="M70 61h0"></path>
<path d="M138 61h48"></path>
<rect x="70" y="50" width="68" height="22" rx="10" ry="10"></rect>
<text x="104" y="65">"DATA"</text>
</g>
<path d="M186 61a10 10 0 0 0 10 -10v-10a10 10 0 0 1 10 -10"></path>
</g>
<path d="M206 31h10"></path>
<g>
<path d="M216 31h0"></path>
<path d="M436 31h0"></path>
<g class="terminal">
<path d="M216 31h0"></path>
<path d="M316 31h0"></path>
<rect x="216" y="20" width="100" height="22" rx="10" ry="10"></rect>
<text x="266" y="35">"BEGIN OF"</text>
</g>
<path d="M316 31h10"></path>
<path d="M326 31h10"></path>
<g class="non-terminal">
<path d="M336 31h0"></path>
<path d="M436 31h0"></path>
<rect x="336" y="20" width="100" height="22"></rect>
<a xlink:href="reuse_simplename.svg"><text x="386" y="35">SimpleName</text>
</a>
</g>
</g>
</g>
<path d="M436 31h10"></path>
<path d="M 446 31 h 20 m -10 -10 v 20 m 10 -20 v 20"></path>
</g>
</svg>
