<?xml version="1.0" encoding="UTF-8" standalone="no"?>
<!DOCTYPE svg PUBLIC "-//W3C//DTD SVG 1.1//EN"
 "http://www.w3.org/Graphics/SVG/1.1/DTD/svg11.dtd">
<!-- Generated by graphviz version 2.38.0 (20140413.2041)
 -->
<!-- Title: data Pages: 1 -->
<svg width="1166pt" height="1268pt"
 viewBox="0.00 0.00 1165.96 1268.00" xmlns="http://www.w3.org/2000/svg" xmlns:xlink="http://www.w3.org/1999/xlink">
<g id="graph0" class="graph" transform="scale(1 1) rotate(0) translate(4 1264)">
<title>data</title>
<polygon fill="white" stroke="none" points="-4,4 -4,-1264 1161.96,-1264 1161.96,4 -4,4"/>
<!-- start -->
<g id="node1" class="node"><title>start</title>
<ellipse fill="none" stroke="black" cx="876" cy="-1242" rx="29.049" ry="18"/>
<text text-anchor="middle" x="876" y="-1237.8" font-family="Times,serif" font-size="14.00">Start</text>
</g>
<!-- node36 -->
<g id="node38" class="node"><title>node36</title>
<ellipse fill="none" stroke="black" cx="876" cy="-1170" rx="91.3709" ry="18"/>
<text text-anchor="middle" x="876" y="-1165.8" font-family="Times,serif" font-size="14.00">^(CLASS&#45;)?DATA$</text>
</g>
<!-- start&#45;&gt;node36 -->
<g id="edge86" class="edge"><title>start&#45;&gt;node36</title>
<path fill="none" stroke="black" d="M876,-1223.7C876,-1215.98 876,-1206.71 876,-1198.11"/>
<polygon fill="black" stroke="black" points="879.5,-1198.1 876,-1188.1 872.5,-1198.1 879.5,-1198.1"/>
</g>
<!-- end -->
<g id="node2" class="node"><title>end</title>
<ellipse fill="none" stroke="black" cx="572" cy="-18" rx="27" ry="18"/>
<text text-anchor="middle" x="572" y="-13.8" font-family="Times,serif" font-size="14.00">End</text>
</g>
<!-- node1 -->
<g id="node3" class="node"><title>node1</title>
<ellipse fill="none" stroke="black" cx="310" cy="-90" rx="28.008" ry="18"/>
<text text-anchor="middle" x="310" y="-85.8" font-family="Times,serif" font-size="14.00">^.+$</text>
</g>
<!-- node1&#45;&gt;end -->
<g id="edge1" class="edge"><title>node1&#45;&gt;end</title>
<path fill="none" stroke="black" d="M335.599,-82.1607C383.017,-69.4916 484.524,-42.3714 537.779,-28.1429"/>
<polygon fill="black" stroke="black" points="538.69,-31.5225 547.447,-25.5599 536.883,-24.7598 538.69,-31.5225"/>
</g>
<!-- node2 -->
<g id="node4" class="node"><title>node2</title>
<ellipse fill="none" stroke="black" cx="279" cy="-162" rx="51.7554" ry="18"/>
<text text-anchor="middle" x="279" y="-157.8" font-family="Times,serif" font-size="14.00">&quot;VALUE&quot;</text>
</g>
<!-- node2&#45;&gt;node1 -->
<g id="edge2" class="edge"><title>node2&#45;&gt;node1</title>
<path fill="none" stroke="black" d="M286.504,-144.055C290.084,-135.973 294.446,-126.121 298.436,-117.112"/>
<polygon fill="black" stroke="black" points="301.716,-118.35 302.565,-107.789 295.315,-115.515 301.716,-118.35"/>
</g>
<!-- node3 -->
<g id="node5" class="node"><title>node3</title>
<ellipse fill="none" stroke="black" cx="279" cy="-234" rx="75.4512" ry="18"/>
<text text-anchor="middle" x="279" y="-229.8" font-family="Times,serif" font-size="14.00">&quot;READ&#45;ONLY&quot;</text>
</g>
<!-- node3&#45;&gt;end -->
<g id="edge4" class="edge"><title>node3&#45;&gt;end</title>
<path fill="none" stroke="black" d="M297.914,-216.534C333.024,-186.305 411.158,-120.608 482,-72 501.608,-58.5462 524.744,-44.9681 542.649,-34.9236"/>
<polygon fill="black" stroke="black" points="544.447,-37.9286 551.489,-30.0124 541.047,-31.8096 544.447,-37.9286"/>
</g>
<!-- node3&#45;&gt;node2 -->
<g id="edge3" class="edge"><title>node3&#45;&gt;node2</title>
<path fill="none" stroke="black" d="M279,-215.697C279,-207.983 279,-198.712 279,-190.112"/>
<polygon fill="black" stroke="black" points="282.5,-190.104 279,-180.104 275.5,-190.104 282.5,-190.104"/>
</g>
<!-- node4 -->
<g id="node6" class="node"><title>node4</title>
<ellipse fill="none" stroke="black" cx="435" cy="-306" rx="33.2023" ry="18"/>
<text text-anchor="middle" x="435" y="-301.8" font-family="Times,serif" font-size="14.00">^\d+$</text>
</g>
<!-- node4&#45;&gt;end -->
<g id="edge7" class="edge"><title>node4&#45;&gt;end</title>
<path fill="none" stroke="black" d="M438.555,-288.091C447.498,-248.104 473.589,-145.562 520,-72 527.598,-59.9566 538.322,-48.438 548.059,-39.234"/>
<polygon fill="black" stroke="black" points="550.543,-41.7053 555.577,-32.3829 545.828,-36.5313 550.543,-41.7053"/>
</g>
<!-- node4&#45;&gt;node2 -->
<g id="edge6" class="edge"><title>node4&#45;&gt;node2</title>
<path fill="none" stroke="black" d="M424.403,-288.882C411.439,-269.955 388.102,-238.317 363,-216 348.672,-203.262 330.946,-191.592 315.476,-182.464"/>
<polygon fill="black" stroke="black" points="317.083,-179.351 306.67,-177.395 313.591,-185.417 317.083,-179.351"/>
</g>
<!-- node4&#45;&gt;node3 -->
<g id="edge5" class="edge"><title>node4&#45;&gt;node3</title>
<path fill="none" stroke="black" d="M410.281,-293.908C386.662,-283.31 350.556,-267.109 322.184,-254.377"/>
<polygon fill="black" stroke="black" points="323.444,-251.107 312.887,-250.206 320.578,-257.493 323.444,-251.107"/>
</g>
<!-- node5 -->
<g id="node7" class="node"><title>node5</title>
<ellipse fill="none" stroke="black" cx="362" cy="-378" rx="68.0279" ry="18"/>
<text text-anchor="middle" x="362" y="-373.8" font-family="Times,serif" font-size="14.00">&quot;DECIMALS&quot;</text>
</g>
<!-- node5&#45;&gt;node4 -->
<g id="edge8" class="edge"><title>node5&#45;&gt;node4</title>
<path fill="none" stroke="black" d="M379.3,-360.411C389.071,-351.041 401.408,-339.211 411.987,-329.067"/>
<polygon fill="black" stroke="black" points="414.522,-331.486 419.317,-322.038 409.677,-326.433 414.522,-331.486"/>
</g>
<!-- node6 -->
<g id="node8" class="node"><title>node6</title>
<ellipse fill="none" stroke="black" cx="491" cy="-450" rx="33.2023" ry="18"/>
<text text-anchor="middle" x="491" y="-445.8" font-family="Times,serif" font-size="14.00">^\d+$</text>
</g>
<!-- node6&#45;&gt;end -->
<g id="edge12" class="edge"><title>node6&#45;&gt;end</title>
<path fill="none" stroke="black" d="M499.495,-432.444C512.027,-406.445 534,-354.138 534,-307 534,-307 534,-307 534,-161 534,-119.406 549.403,-73.217 560.596,-45.1433"/>
<polygon fill="black" stroke="black" points="563.928,-46.2418 564.492,-35.662 557.454,-43.5807 563.928,-46.2418"/>
</g>
<!-- node6&#45;&gt;node2 -->
<g id="edge11" class="edge"><title>node6&#45;&gt;node2</title>
<path fill="none" stroke="black" d="M493.516,-431.884C497.197,-401.174 501.213,-335.492 477,-288 447.115,-229.384 375.876,-194.921 327.518,-177.501"/>
<polygon fill="black" stroke="black" points="328.465,-174.124 317.87,-174.141 326.163,-180.735 328.465,-174.124"/>
</g>
<!-- node6&#45;&gt;node3 -->
<g id="edge10" class="edge"><title>node6&#45;&gt;node3</title>
<path fill="none" stroke="black" d="M483.646,-432.368C474.802,-413.521 458.665,-382.504 439,-360 438.663,-359.614 354.418,-293.854 308.325,-257.882"/>
<polygon fill="black" stroke="black" points="310.228,-254.928 300.191,-251.535 305.921,-260.446 310.228,-254.928"/>
</g>
<!-- node6&#45;&gt;node5 -->
<g id="edge9" class="edge"><title>node6&#45;&gt;node5</title>
<path fill="none" stroke="black" d="M468.234,-436.647C449.163,-426.298 421.56,-411.319 399.271,-399.225"/>
<polygon fill="black" stroke="black" points="400.856,-396.102 390.397,-394.409 397.517,-402.255 400.856,-396.102"/>
</g>
<!-- node7 -->
<g id="node9" class="node"><title>node7</title>
<ellipse fill="none" stroke="black" cx="466" cy="-522" rx="57.554" ry="18"/>
<text text-anchor="middle" x="466" y="-517.8" font-family="Times,serif" font-size="14.00">&quot;LENGTH&quot;</text>
</g>
<!-- node7&#45;&gt;node6 -->
<g id="edge13" class="edge"><title>node7&#45;&gt;node6</title>
<path fill="none" stroke="black" d="M472.052,-504.055C474.908,-496.059 478.382,-486.331 481.572,-477.4"/>
<polygon fill="black" stroke="black" points="484.937,-478.384 485.004,-467.789 478.344,-476.029 484.937,-478.384"/>
</g>
<!-- node8 -->
<g id="node10" class="node"><title>node8</title>
<ellipse fill="none" stroke="black" cx="329" cy="-594" rx="35.4874" ry="18"/>
<text text-anchor="middle" x="329" y="-589.8" font-family="Times,serif" font-size="14.00">^\w+$</text>
</g>
<!-- node8&#45;&gt;end -->
<g id="edge18" class="edge"><title>node8&#45;&gt;end</title>
<path fill="none" stroke="black" d="M337.748,-576.205C349.137,-556.007 370.945,-522.517 399,-504 450.467,-470.03 489.939,-512.143 533,-468 584.411,-415.298 572,-380.625 572,-307 572,-307 572,-307 572,-161 572,-120.996 572,-74.6528 572,-46.0798"/>
<polygon fill="black" stroke="black" points="575.5,-46.0492 572,-36.0493 568.5,-46.0493 575.5,-46.0492"/>
</g>
<!-- node8&#45;&gt;node2 -->
<g id="edge17" class="edge"><title>node8&#45;&gt;node2</title>
<path fill="none" stroke="black" d="M319.04,-576.415C290.969,-528.38 212.143,-384.152 195,-252 192.942,-236.133 187.274,-230.011 195,-216 203.771,-200.096 219.544,-188.307 235.072,-179.939"/>
<polygon fill="black" stroke="black" points="236.758,-183.009 244.132,-175.402 233.624,-176.75 236.758,-183.009"/>
</g>
<!-- node8&#45;&gt;node3 -->
<g id="edge16" class="edge"><title>node8&#45;&gt;node3</title>
<path fill="none" stroke="black" d="M324.114,-576.058C314.595,-542.196 293.734,-463.599 285,-396 278.972,-349.349 278.275,-294.511 278.506,-262.375"/>
<polygon fill="black" stroke="black" points="282.009,-262.043 278.619,-252.005 275.01,-261.966 282.009,-262.043"/>
</g>
<!-- node8&#45;&gt;node5 -->
<g id="edge15" class="edge"><title>node8&#45;&gt;node5</title>
<path fill="none" stroke="black" d="M331.645,-575.849C337.353,-538.832 350.869,-451.181 357.777,-406.386"/>
<polygon fill="black" stroke="black" points="361.278,-406.649 359.343,-396.232 354.359,-405.582 361.278,-406.649"/>
</g>
<!-- node8&#45;&gt;node7 -->
<g id="edge14" class="edge"><title>node8&#45;&gt;node7</title>
<path fill="none" stroke="black" d="M353.177,-580.647C373.929,-570.044 404.19,-554.582 428.15,-542.34"/>
<polygon fill="black" stroke="black" points="430.008,-545.32 437.321,-537.654 426.823,-539.087 430.008,-545.32"/>
</g>
<!-- node9 -->
<g id="node11" class="node"><title>node9</title>
<ellipse fill="none" stroke="black" cx="395" cy="-666" rx="62.7907" ry="18"/>
<text text-anchor="middle" x="395" y="-661.8" font-family="Times,serif" font-size="14.00">&quot;DEFAULT&quot;</text>
</g>
<!-- node9&#45;&gt;node8 -->
<g id="edge19" class="edge"><title>node9&#45;&gt;node8</title>
<path fill="none" stroke="black" d="M379.359,-648.411C370.817,-639.351 360.105,-627.99 350.759,-618.078"/>
<polygon fill="black" stroke="black" points="353.031,-615.386 343.625,-610.511 347.938,-620.188 353.031,-615.386"/>
</g>
<!-- node10 -->
<g id="node12" class="node"><title>node10</title>
<ellipse fill="none" stroke="black" cx="225" cy="-738" rx="94.8181" ry="18"/>
<text text-anchor="middle" x="225" y="-733.8" font-family="Times,serif" font-size="14.00">^\w+((&#45;&gt;|=&gt;|&#45;)\w+)*$</text>
</g>
<!-- node10&#45;&gt;end -->
<g id="edge25" class="edge"><title>node10&#45;&gt;end</title>
<path fill="none" stroke="black" d="M207.197,-720.11C197.587,-710.271 186.075,-697.225 178,-684 160.107,-654.696 162.14,-644.117 150,-612 98.9391,-476.923 38,-451.406 38,-307 38,-307 38,-307 38,-161 38,-57.9863 413.838,-27.8748 534.905,-20.8475"/>
<polygon fill="black" stroke="black" points="535.365,-24.3273 545.153,-20.2729 534.973,-17.3382 535.365,-24.3273"/>
</g>
<!-- node10&#45;&gt;node2 -->
<g id="edge24" class="edge"><title>node10&#45;&gt;node2</title>
<path fill="none" stroke="black" d="M215.727,-720.074C189.049,-669.742 114,-515.976 114,-379 114,-379 114,-379 114,-305 114,-241.401 185.298,-200.056 234.158,-179.19"/>
<polygon fill="black" stroke="black" points="235.697,-182.341 243.603,-175.289 233.025,-175.871 235.697,-182.341"/>
</g>
<!-- node10&#45;&gt;node3 -->
<g id="edge23" class="edge"><title>node10&#45;&gt;node3</title>
<path fill="none" stroke="black" d="M226.859,-719.72C234.843,-645.499 266.263,-353.404 276.064,-262.294"/>
<polygon fill="black" stroke="black" points="279.559,-262.524 277.149,-252.207 272.599,-261.776 279.559,-262.524"/>
</g>
<!-- node10&#45;&gt;node5 -->
<g id="edge22" class="edge"><title>node10&#45;&gt;node5</title>
<path fill="none" stroke="black" d="M233.297,-719.971C245.277,-693.77 266,-641.701 266,-595 266,-595 266,-595 266,-521 266,-472.311 305.215,-427.854 333.518,-402.108"/>
<polygon fill="black" stroke="black" points="335.988,-404.596 341.169,-395.355 331.356,-399.348 335.988,-404.596"/>
</g>
<!-- node10&#45;&gt;node7 -->
<g id="edge21" class="edge"><title>node10&#45;&gt;node7</title>
<path fill="none" stroke="black" d="M242.524,-719.969C261.727,-701.574 293.707,-671.72 323,-648 344.281,-630.768 351.946,-629.509 373,-612 397.958,-591.245 424.533,-565.391 442.856,-546.905"/>
<polygon fill="black" stroke="black" points="445.654,-549.052 450.175,-539.471 440.665,-544.142 445.654,-549.052"/>
</g>
<!-- node10&#45;&gt;node9 -->
<g id="edge20" class="edge"><title>node10&#45;&gt;node9</title>
<path fill="none" stroke="black" d="M262.729,-721.465C288.892,-710.692 323.816,-696.311 351.208,-685.032"/>
<polygon fill="black" stroke="black" points="352.642,-688.227 360.556,-681.183 349.977,-681.754 352.642,-688.227"/>
</g>
<!-- node11 -->
<g id="node13" class="node"><title>node11</title>
<ellipse fill="none" stroke="black" cx="254" cy="-810" rx="66.8445" ry="18"/>
<text text-anchor="middle" x="254" y="-805.8" font-family="Times,serif" font-size="14.00">&quot;RANGE OF&quot;</text>
</g>
<!-- node11&#45;&gt;node10 -->
<g id="edge26" class="edge"><title>node11&#45;&gt;node10</title>
<path fill="none" stroke="black" d="M246.98,-792.055C243.716,-784.176 239.755,-774.617 236.1,-765.794"/>
<polygon fill="black" stroke="black" points="239.218,-764.174 232.157,-756.275 232.751,-766.853 239.218,-764.174"/>
</g>
<!-- node12 -->
<g id="node14" class="node"><title>node12</title>
<ellipse fill="none" stroke="black" cx="235" cy="-882" rx="51.8154" ry="18"/>
<text text-anchor="middle" x="235" y="-877.8" font-family="Times,serif" font-size="14.00">&quot;REF TO&quot;</text>
</g>
<!-- node12&#45;&gt;node10 -->
<g id="edge28" class="edge"><title>node12&#45;&gt;node10</title>
<path fill="none" stroke="black" d="M211.093,-865.954C198.715,-856.692 184.8,-843.609 178,-828 171.609,-813.332 172.323,-806.959 178,-792 182.076,-781.26 189.435,-771.302 197.138,-762.984"/>
<polygon fill="black" stroke="black" points="199.673,-765.399 204.225,-755.832 194.7,-760.472 199.673,-765.399"/>
</g>
<!-- node12&#45;&gt;node11 -->
<g id="edge27" class="edge"><title>node12&#45;&gt;node11</title>
<path fill="none" stroke="black" d="M239.599,-864.055C241.715,-856.261 244.277,-846.822 246.65,-838.079"/>
<polygon fill="black" stroke="black" points="250.069,-838.843 249.311,-828.275 243.314,-837.009 250.069,-838.843"/>
</g>
<!-- node13 -->
<g id="node15" class="node"><title>node13</title>
<ellipse fill="none" stroke="black" cx="311" cy="-954" rx="55.8075" ry="18"/>
<text text-anchor="middle" x="311" y="-949.8" font-family="Times,serif" font-size="14.00">&quot;LINE OF&quot;</text>
</g>
<!-- node13&#45;&gt;node10 -->
<g id="edge31" class="edge"><title>node13&#45;&gt;node10</title>
<path fill="none" stroke="black" d="M319.502,-935.987C333.731,-904.871 358.175,-837.783 330,-792 320.293,-776.226 304.283,-764.977 287.656,-757.026"/>
<polygon fill="black" stroke="black" points="288.953,-753.772 278.391,-752.94 286.128,-760.177 288.953,-753.772"/>
</g>
<!-- node13&#45;&gt;node11 -->
<g id="edge30" class="edge"><title>node13&#45;&gt;node11</title>
<path fill="none" stroke="black" d="M310.627,-935.876C309.663,-917.401 306.444,-887.479 296,-864 291.444,-853.758 284.443,-843.782 277.456,-835.3"/>
<polygon fill="black" stroke="black" points="280.034,-832.931 270.841,-827.665 274.744,-837.515 280.034,-832.931"/>
</g>
<!-- node13&#45;&gt;node12 -->
<g id="edge29" class="edge"><title>node13&#45;&gt;node12</title>
<path fill="none" stroke="black" d="M293.373,-936.765C283.493,-927.665 271.004,-916.162 260.116,-906.134"/>
<polygon fill="black" stroke="black" points="262.258,-903.348 252.531,-899.147 257.516,-908.497 262.258,-903.348"/>
</g>
<!-- node14 -->
<g id="node16" class="node"><title>node14</title>
<ellipse fill="none" stroke="black" cx="227" cy="-1026" rx="74.7535" ry="18"/>
<text text-anchor="middle" x="227" y="-1021.8" font-family="Times,serif" font-size="14.00">^(LIKE|TYPE)$</text>
</g>
<!-- node14&#45;&gt;node10 -->
<g id="edge35" class="edge"><title>node14&#45;&gt;node10</title>
<path fill="none" stroke="black" d="M202.08,-1008.87C189.964,-999.619 176.442,-986.884 169,-972 154.621,-943.244 163.557,-932.113 162,-900 159.669,-851.925 148.749,-835.186 170,-792 175.535,-780.753 184.481,-770.585 193.565,-762.233"/>
<polygon fill="black" stroke="black" points="195.887,-764.852 201.157,-755.661 191.305,-759.56 195.887,-764.852"/>
</g>
<!-- node14&#45;&gt;node11 -->
<g id="edge34" class="edge"><title>node14&#45;&gt;node11</title>
<path fill="none" stroke="black" d="M212.973,-1008.24C189.555,-978.084 147.547,-913.257 174,-864 181.695,-849.672 195.153,-838.565 208.861,-830.305"/>
<polygon fill="black" stroke="black" points="210.825,-833.217 217.847,-825.284 207.411,-827.107 210.825,-833.217"/>
</g>
<!-- node14&#45;&gt;node12 -->
<g id="edge33" class="edge"><title>node14&#45;&gt;node12</title>
<path fill="none" stroke="black" d="M227.965,-1007.87C229.328,-983.67 231.833,-939.211 233.457,-910.393"/>
<polygon fill="black" stroke="black" points="236.963,-910.37 234.032,-900.189 229.975,-909.977 236.963,-910.37"/>
</g>
<!-- node14&#45;&gt;node13 -->
<g id="edge32" class="edge"><title>node14&#45;&gt;node13</title>
<path fill="none" stroke="black" d="M246.907,-1008.41C257.944,-999.213 271.827,-987.644 283.848,-977.627"/>
<polygon fill="black" stroke="black" points="286.373,-980.079 291.814,-970.988 281.891,-974.701 286.373,-980.079"/>
</g>
<!-- node15 -->
<g id="node17" class="node"><title>node15</title>
<ellipse fill="none" stroke="black" cx="311" cy="-1098" rx="70.9292" ry="18"/>
<text text-anchor="middle" x="311" y="-1093.8" font-family="Times,serif" font-size="14.00">^\w+(\(\d+\))?$</text>
</g>
<!-- node15&#45;&gt;end -->
<g id="edge42" class="edge"><title>node15&#45;&gt;end</title>
<path fill="none" stroke="black" d="M246.915,-1090.26C179.777,-1082.13 79.8558,-1066.67 49,-1044 12.609,-1017.27 0,-1000.15 0,-955 0,-955 0,-955 0,-161 0,-107.813 32.6517,-96.2277 80,-72 159.418,-31.3626 433.785,-21.7786 534.524,-19.6085"/>
<polygon fill="black" stroke="black" points="534.9,-23.1017 544.827,-19.3997 534.758,-16.1031 534.9,-23.1017"/>
</g>
<!-- node15&#45;&gt;node2 -->
<g id="edge41" class="edge"><title>node15&#45;&gt;node2</title>
<path fill="none" stroke="black" d="M241.973,-1093.67C196.015,-1088.42 136.341,-1075.46 93,-1044 55.3693,-1016.69 38,-1001.5 38,-955 38,-955 38,-955 38,-521 38,-379.283 27.6997,-313.02 131,-216 155.933,-192.583 191.927,-179.391 222.174,-172.026"/>
<polygon fill="black" stroke="black" points="223.215,-175.378 232.188,-169.745 221.66,-168.553 223.215,-175.378"/>
</g>
<!-- node15&#45;&gt;node3 -->
<g id="edge40" class="edge"><title>node15&#45;&gt;node3</title>
<path fill="none" stroke="black" d="M252.306,-1087.78C182.7,-1073.12 76,-1037.23 76,-955 76,-955 76,-955 76,-593 76,-450.379 199.42,-312.513 253.791,-258.697"/>
<polygon fill="black" stroke="black" points="256.278,-261.162 260.985,-251.67 251.386,-256.154 256.278,-261.162"/>
</g>
<!-- node15&#45;&gt;node5 -->
<g id="edge39" class="edge"><title>node15&#45;&gt;node5</title>
<path fill="none" stroke="black" d="M370.883,-1088.33C442.258,-1074.22 552,-1038.89 552,-955 552,-955 552,-955 552,-593 552,-552.553 558.687,-535.243 533,-504 507.205,-472.625 482.504,-490.962 449,-468 422.644,-449.937 397.707,-423.045 381.345,-403.552"/>
<polygon fill="black" stroke="black" points="383.936,-401.193 374.878,-395.698 378.532,-405.642 383.936,-401.193"/>
</g>
<!-- node15&#45;&gt;node7 -->
<g id="edge38" class="edge"><title>node15&#45;&gt;node7</title>
<path fill="none" stroke="black" d="M353.81,-1083.41C405.618,-1063.98 486,-1022.88 486,-955 486,-955 486,-955 486,-665 486,-624.822 478.052,-578.869 472.177,-550.389"/>
<polygon fill="black" stroke="black" points="475.551,-549.431 470.047,-540.378 468.704,-550.887 475.551,-549.431"/>
</g>
<!-- node15&#45;&gt;node9 -->
<g id="edge37" class="edge"><title>node15&#45;&gt;node9</title>
<path fill="none" stroke="black" d="M328.814,-1080.52C353.472,-1055.82 395,-1006.56 395,-955 395,-955 395,-955 395,-809 395,-768.996 395,-722.653 395,-694.08"/>
<polygon fill="black" stroke="black" points="398.5,-694.049 395,-684.049 391.5,-694.049 398.5,-694.049"/>
</g>
<!-- node15&#45;&gt;node14 -->
<g id="edge36" class="edge"><title>node15&#45;&gt;node14</title>
<path fill="none" stroke="black" d="M291.093,-1080.41C280.214,-1071.34 266.569,-1059.97 254.669,-1050.06"/>
<polygon fill="black" stroke="black" points="256.687,-1047.18 246.764,-1043.47 252.206,-1052.56 256.687,-1047.18"/>
</g>
<!-- node16 -->
<g id="node18" class="node"><title>node16</title>
<ellipse fill="none" stroke="black" cx="735" cy="-90" rx="33.2023" ry="18"/>
<text text-anchor="middle" x="735" y="-85.8" font-family="Times,serif" font-size="14.00">^\d+$</text>
</g>
<!-- node16&#45;&gt;end -->
<g id="edge43" class="edge"><title>node16&#45;&gt;end</title>
<path fill="none" stroke="black" d="M709.531,-78.0625C680.93,-65.7797 634.485,-45.8339 603.593,-32.5677"/>
<polygon fill="black" stroke="black" points="604.722,-29.2434 594.153,-28.5134 601.96,-35.6754 604.722,-29.2434"/>
</g>
<!-- node17 -->
<g id="node19" class="node"><title>node17</title>
<ellipse fill="none" stroke="black" cx="760" cy="-162" rx="77.1937" ry="18"/>
<text text-anchor="middle" x="760" y="-157.8" font-family="Times,serif" font-size="14.00">&quot;INITIAL SIZE&quot;</text>
</g>
<!-- node17&#45;&gt;node16 -->
<g id="edge44" class="edge"><title>node17&#45;&gt;node16</title>
<path fill="none" stroke="black" d="M753.948,-144.055C751.092,-136.059 747.618,-126.331 744.428,-117.4"/>
<polygon fill="black" stroke="black" points="747.656,-116.029 740.996,-107.789 741.063,-118.384 747.656,-116.029"/>
</g>
<!-- node18 -->
<g id="node20" class="node"><title>node18</title>
<ellipse fill="none" stroke="black" cx="865" cy="-234" rx="75.4512" ry="18"/>
<text text-anchor="middle" x="865" y="-229.8" font-family="Times,serif" font-size="14.00">&quot;READ&#45;ONLY&quot;</text>
</g>
<!-- node18&#45;&gt;end -->
<g id="edge46" class="edge"><title>node18&#45;&gt;end</title>
<path fill="none" stroke="black" d="M864.131,-215.99C862.57,-197.349 858.205,-167.036 846,-144 825.249,-104.835 815.245,-94.3999 777,-72 723.52,-40.6771 651.566,-27.6238 608.668,-22.3618"/>
<polygon fill="black" stroke="black" points="609.011,-18.8782 598.676,-21.2133 608.211,-25.8324 609.011,-18.8782"/>
</g>
<!-- node18&#45;&gt;node17 -->
<g id="edge45" class="edge"><title>node18&#45;&gt;node17</title>
<path fill="none" stroke="black" d="M840.911,-216.941C826.607,-207.405 808.276,-195.184 792.681,-184.787"/>
<polygon fill="black" stroke="black" points="794.603,-181.862 784.341,-179.227 790.72,-187.686 794.603,-181.862"/>
</g>
<!-- node19 -->
<g id="node21" class="node"><title>node19</title>
<ellipse fill="none" stroke="black" cx="781" cy="-306" rx="70.9292" ry="18"/>
<text text-anchor="middle" x="781" y="-301.8" font-family="Times,serif" font-size="14.00">^\w+(\(\d+\))?$</text>
</g>
<!-- node19&#45;&gt;end -->
<g id="edge49" class="edge"><title>node19&#45;&gt;end</title>
<path fill="none" stroke="black" d="M764.141,-288.403C741.552,-265.524 701.164,-222.307 674,-180 645.422,-135.49 654.073,-115.514 624,-72 615.904,-60.2853 605.112,-48.8118 595.459,-39.5527"/>
<polygon fill="black" stroke="black" points="597.738,-36.8926 588.034,-32.6395 592.968,-42.0156 597.738,-36.8926"/>
</g>
<!-- node19&#45;&gt;node17 -->
<g id="edge48" class="edge"><title>node19&#45;&gt;node17</title>
<path fill="none" stroke="black" d="M778.467,-287.871C774.888,-263.67 768.313,-219.211 764.051,-190.393"/>
<polygon fill="black" stroke="black" points="767.467,-189.57 762.542,-180.189 760.543,-190.594 767.467,-189.57"/>
</g>
<!-- node19&#45;&gt;node18 -->
<g id="edge47" class="edge"><title>node19&#45;&gt;node18</title>
<path fill="none" stroke="black" d="M800.907,-288.411C811.786,-279.345 825.431,-267.974 837.331,-258.057"/>
<polygon fill="black" stroke="black" points="839.794,-260.561 845.236,-251.47 835.313,-255.183 839.794,-260.561"/>
</g>
<!-- node19&#45;&gt;node19 -->
<g id="edge50" class="edge"><title>node19&#45;&gt;node19</title>
<path fill="none" stroke="black" d="M829.048,-319.262C850.937,-320.616 869.965,-316.195 869.965,-306 869.965,-297.477 856.668,-292.99 839.519,-292.538"/>
<polygon fill="black" stroke="black" points="838.979,-289.048 829.048,-292.738 839.113,-296.046 838.979,-289.048"/>
</g>
<!-- node20 -->
<g id="node22" class="node"><title>node20</title>
<ellipse fill="none" stroke="black" cx="722" cy="-378" rx="38.5151" ry="18"/>
<text text-anchor="middle" x="722" y="-373.8" font-family="Times,serif" font-size="14.00">&quot;KEY&quot;</text>
</g>
<!-- node20&#45;&gt;end -->
<g id="edge54" class="edge"><title>node20&#45;&gt;end</title>
<path fill="none" stroke="black" d="M699.872,-362.962C667.232,-340.332 610,-292.459 610,-235 610,-235 610,-235 610,-161 610,-119.406 594.597,-73.217 583.404,-45.1433"/>
<polygon fill="black" stroke="black" points="586.546,-43.5807 579.508,-35.662 580.072,-46.2418 586.546,-43.5807"/>
</g>
<!-- node20&#45;&gt;node17 -->
<g id="edge53" class="edge"><title>node20&#45;&gt;node17</title>
<path fill="none" stroke="black" d="M713.499,-360.306C708.79,-350.108 703.413,-336.638 701,-324 698,-308.284 697.501,-303.613 701,-288 709.191,-251.456 729.322,-213.013 743.791,-188.568"/>
<polygon fill="black" stroke="black" points="746.842,-190.286 749.022,-179.918 740.852,-186.663 746.842,-190.286"/>
</g>
<!-- node20&#45;&gt;node18 -->
<g id="edge52" class="edge"><title>node20&#45;&gt;node18</title>
<path fill="none" stroke="black" d="M760.701,-375.974C797.881,-372.676 852.242,-361.275 879,-324 891.972,-305.93 886.211,-280.472 878.528,-261.409"/>
<polygon fill="black" stroke="black" points="881.659,-259.836 874.423,-252.097 875.254,-262.66 881.659,-259.836"/>
</g>
<!-- node20&#45;&gt;node19 -->
<g id="edge51" class="edge"><title>node20&#45;&gt;node19</title>
<path fill="none" stroke="black" d="M735.684,-360.765C742.918,-352.182 751.953,-341.462 760.048,-331.858"/>
<polygon fill="black" stroke="black" points="762.798,-334.026 766.567,-324.124 757.446,-329.515 762.798,-334.026"/>
</g>
<!-- node21 -->
<g id="node23" class="node"><title>node21</title>
<ellipse fill="none" stroke="black" cx="762" cy="-450" rx="62.7907" ry="18"/>
<text text-anchor="middle" x="762" y="-445.8" font-family="Times,serif" font-size="14.00">&quot;DEFAULT&quot;</text>
</g>
<!-- node21&#45;&gt;node20 -->
<g id="edge55" class="edge"><title>node21&#45;&gt;node20</title>
<path fill="none" stroke="black" d="M752.317,-432.055C747.6,-423.801 741.829,-413.701 736.593,-404.538"/>
<polygon fill="black" stroke="black" points="739.594,-402.735 731.594,-395.789 733.516,-406.208 739.594,-402.735"/>
</g>
<!-- node22 -->
<g id="node24" class="node"><title>node22</title>
<ellipse fill="none" stroke="black" cx="866" cy="-522" rx="80.0862" ry="18"/>
<text text-anchor="middle" x="866" y="-517.8" font-family="Times,serif" font-size="14.00">&quot;NON&#45;UNIQUE&quot;</text>
</g>
<!-- node22&#45;&gt;node20 -->
<g id="edge57" class="edge"><title>node22&#45;&gt;node20</title>
<path fill="none" stroke="black" d="M863.828,-503.922C860.527,-484.373 852.539,-452.427 834,-432 815.721,-411.859 788.177,-398.685 764.979,-390.509"/>
<polygon fill="black" stroke="black" points="765.937,-387.139 755.343,-387.305 763.728,-393.781 765.937,-387.139"/>
</g>
<!-- node22&#45;&gt;node21 -->
<g id="edge56" class="edge"><title>node22&#45;&gt;node21</title>
<path fill="none" stroke="black" d="M841.879,-504.765C827.734,-495.244 809.681,-483.093 794.317,-472.752"/>
<polygon fill="black" stroke="black" points="795.882,-469.586 785.632,-466.906 791.973,-475.393 795.882,-469.586"/>
</g>
<!-- node23 -->
<g id="node25" class="node"><title>node23</title>
<ellipse fill="none" stroke="black" cx="674" cy="-522" rx="55.8287" ry="18"/>
<text text-anchor="middle" x="674" y="-517.8" font-family="Times,serif" font-size="14.00">&quot;UNIQUE&quot;</text>
</g>
<!-- node23&#45;&gt;node20 -->
<g id="edge59" class="edge"><title>node23&#45;&gt;node20</title>
<path fill="none" stroke="black" d="M675.226,-503.777C676.955,-485.479 680.973,-455.944 690,-432 693.658,-422.296 699.105,-412.378 704.472,-403.786"/>
<polygon fill="black" stroke="black" points="707.425,-405.665 709.957,-395.377 701.562,-401.84 707.425,-405.665"/>
</g>
<!-- node23&#45;&gt;node21 -->
<g id="edge58" class="edge"><title>node23&#45;&gt;node21</title>
<path fill="none" stroke="black" d="M693.969,-505.116C705.699,-495.785 720.717,-483.838 733.658,-473.545"/>
<polygon fill="black" stroke="black" points="736.159,-476.028 741.806,-467.064 731.801,-470.55 736.159,-476.028"/>
</g>
<!-- node24 -->
<g id="node26" class="node"><title>node24</title>
<ellipse fill="none" stroke="black" cx="758" cy="-594" rx="44.2311" ry="18"/>
<text text-anchor="middle" x="758" y="-589.8" font-family="Times,serif" font-size="14.00">&quot;WITH&quot;</text>
</g>
<!-- node24&#45;&gt;node20 -->
<g id="edge63" class="edge"><title>node24&#45;&gt;node20</title>
<path fill="none" stroke="black" d="M714.382,-590.527C679.506,-585.979 632.666,-573.537 609,-540 573.006,-488.993 646.044,-428.733 690.748,-398.446"/>
<polygon fill="black" stroke="black" points="692.867,-401.241 699.27,-392.8 689.001,-395.405 692.867,-401.241"/>
</g>
<!-- node24&#45;&gt;node21 -->
<g id="edge62" class="edge"><title>node24&#45;&gt;node21</title>
<path fill="none" stroke="black" d="M758.482,-575.871C759.164,-551.67 760.417,-507.211 761.228,-478.393"/>
<polygon fill="black" stroke="black" points="764.733,-478.284 761.516,-468.189 757.736,-478.087 764.733,-478.284"/>
</g>
<!-- node24&#45;&gt;node22 -->
<g id="edge60" class="edge"><title>node24&#45;&gt;node22</title>
<path fill="none" stroke="black" d="M780.64,-578.326C795.705,-568.562 815.752,-555.568 832.633,-544.627"/>
<polygon fill="black" stroke="black" points="834.64,-547.497 841.128,-539.121 830.833,-541.622 834.64,-547.497"/>
</g>
<!-- node24&#45;&gt;node23 -->
<g id="edge61" class="edge"><title>node24&#45;&gt;node23</title>
<path fill="none" stroke="black" d="M739.358,-577.465C728.097,-568.081 713.553,-555.96 701.044,-545.536"/>
<polygon fill="black" stroke="black" points="703.095,-542.69 693.173,-538.977 698.614,-548.068 703.095,-542.69"/>
</g>
<!-- node25 -->
<g id="node27" class="node"><title>node25</title>
<ellipse fill="none" stroke="black" cx="969" cy="-666" rx="94.8181" ry="18"/>
<text text-anchor="middle" x="969" y="-661.8" font-family="Times,serif" font-size="14.00">^\w+((&#45;&gt;|=&gt;|&#45;)\w+)*$</text>
</g>
<!-- node25&#45;&gt;end -->
<g id="edge67" class="edge"><title>node25&#45;&gt;end</title>
<path fill="none" stroke="black" d="M986.576,-647.976C1010.4,-622.986 1050,-573.803 1050,-523 1050,-523 1050,-523 1050,-161 1050,-69.0628 720.959,-31.9341 608.875,-21.9536"/>
<polygon fill="black" stroke="black" points="608.989,-18.4504 598.724,-21.0715 608.383,-25.4241 608.989,-18.4504"/>
</g>
<!-- node25&#45;&gt;node17 -->
<g id="edge66" class="edge"><title>node25&#45;&gt;node17</title>
<path fill="none" stroke="black" d="M969.988,-647.958C971.445,-621.308 974,-568.143 974,-523 974,-523 974,-523 974,-305 974,-263.914 978.059,-245.046 949,-216 921.571,-188.584 881.18,-175.069 844.771,-168.514"/>
<polygon fill="black" stroke="black" points="845.058,-165.014 834.622,-166.844 843.921,-171.921 845.058,-165.014"/>
</g>
<!-- node25&#45;&gt;node18 -->
<g id="edge65" class="edge"><title>node25&#45;&gt;node18</title>
<path fill="none" stroke="black" d="M968.5,-647.951C967.416,-618.424 964.159,-555.946 955,-504 937.739,-406.109 935.961,-379.447 897,-288 893.04,-278.705 887.673,-269.09 882.467,-260.644"/>
<polygon fill="black" stroke="black" points="885.286,-258.554 876.956,-252.007 879.385,-262.32 885.286,-258.554"/>
</g>
<!-- node25&#45;&gt;node24 -->
<g id="edge64" class="edge"><title>node25&#45;&gt;node24</title>
<path fill="none" stroke="black" d="M923.994,-650.069C887.596,-637.994 836.69,-621.106 800.875,-609.224"/>
<polygon fill="black" stroke="black" points="801.791,-605.84 791.198,-606.013 799.587,-612.484 801.791,-605.84"/>
</g>
<!-- node26 -->
<g id="node28" class="node"><title>node26</title>
<ellipse fill="none" stroke="black" cx="901" cy="-738" rx="51.8154" ry="18"/>
<text text-anchor="middle" x="901" y="-733.8" font-family="Times,serif" font-size="14.00">&quot;REF TO&quot;</text>
</g>
<!-- node26&#45;&gt;node25 -->
<g id="edge68" class="edge"><title>node26&#45;&gt;node25</title>
<path fill="none" stroke="black" d="M916.771,-720.765C925.192,-712.096 935.731,-701.248 945.132,-691.57"/>
<polygon fill="black" stroke="black" points="947.908,-693.736 952.365,-684.124 942.887,-688.858 947.908,-693.736"/>
</g>
<!-- node27 -->
<g id="node29" class="node"><title>node27</title>
<ellipse fill="none" stroke="black" cx="924" cy="-810" rx="64.5575" ry="18"/>
<text text-anchor="middle" x="924" y="-805.8" font-family="Times,serif" font-size="14.00">&quot;TABLE OF&quot;</text>
</g>
<!-- node27&#45;&gt;node25 -->
<g id="edge70" class="edge"><title>node27&#45;&gt;node25</title>
<path fill="none" stroke="black" d="M939.658,-792.245C947.823,-782.448 957.105,-769.4 962,-756 969.213,-736.256 970.748,-712.453 970.597,-694.433"/>
<polygon fill="black" stroke="black" points="974.092,-694.213 970.332,-684.308 967.095,-694.396 974.092,-694.213"/>
</g>
<!-- node27&#45;&gt;node26 -->
<g id="edge69" class="edge"><title>node27&#45;&gt;node26</title>
<path fill="none" stroke="black" d="M918.432,-792.055C915.844,-784.176 912.703,-774.617 909.804,-765.794"/>
<polygon fill="black" stroke="black" points="913.123,-764.683 906.676,-756.275 906.473,-766.868 913.123,-764.683"/>
</g>
<!-- node28 -->
<g id="node30" class="node"><title>node28</title>
<ellipse fill="none" stroke="black" cx="651" cy="-882" rx="71.4587" ry="18"/>
<text text-anchor="middle" x="651" y="-877.8" font-family="Times,serif" font-size="14.00">&quot;STANDARD&quot;</text>
</g>
<!-- node28&#45;&gt;node27 -->
<g id="edge71" class="edge"><title>node28&#45;&gt;node27</title>
<path fill="none" stroke="black" d="M699.178,-868.647C746.437,-856.529 818.447,-838.065 868.175,-825.314"/>
<polygon fill="black" stroke="black" points="869.303,-828.638 878.121,-822.764 867.565,-821.857 869.303,-828.638"/>
</g>
<!-- node29 -->
<g id="node31" class="node"><title>node29</title>
<ellipse fill="none" stroke="black" cx="799" cy="-882" rx="58.1356" ry="18"/>
<text text-anchor="middle" x="799" y="-877.8" font-family="Times,serif" font-size="14.00">&quot;HASHED&quot;</text>
</g>
<!-- node29&#45;&gt;node27 -->
<g id="edge72" class="edge"><title>node29&#45;&gt;node27</title>
<path fill="none" stroke="black" d="M825.816,-865.983C843.856,-855.88 867.862,-842.437 887.621,-831.372"/>
<polygon fill="black" stroke="black" points="889.349,-834.416 896.364,-826.476 885.929,-828.309 889.349,-834.416"/>
</g>
<!-- node30 -->
<g id="node32" class="node"><title>node30</title>
<ellipse fill="none" stroke="black" cx="932" cy="-882" rx="56.4294" ry="18"/>
<text text-anchor="middle" x="932" y="-877.8" font-family="Times,serif" font-size="14.00">&quot;SORTED&quot;</text>
</g>
<!-- node30&#45;&gt;node27 -->
<g id="edge73" class="edge"><title>node30&#45;&gt;node27</title>
<path fill="none" stroke="black" d="M930.022,-863.697C929.141,-855.983 928.081,-846.712 927.099,-838.112"/>
<polygon fill="black" stroke="black" points="930.568,-837.642 925.955,-828.104 923.613,-838.437 930.568,-837.642"/>
</g>
<!-- node31 -->
<g id="node33" class="node"><title>node31</title>
<ellipse fill="none" stroke="black" cx="800" cy="-954" rx="74.7535" ry="18"/>
<text text-anchor="middle" x="800" y="-949.8" font-family="Times,serif" font-size="14.00">^(LIKE|TYPE)$</text>
</g>
<!-- node31&#45;&gt;node27 -->
<g id="edge77" class="edge"><title>node31&#45;&gt;node27</title>
<path fill="none" stroke="black" d="M863.52,-944.36C914.681,-935.946 980.678,-921.293 997,-900 1006.73,-887.301 1004.27,-878.255 997,-864 990.065,-850.395 977.824,-839.466 965.324,-831.147"/>
<polygon fill="black" stroke="black" points="967.036,-828.091 956.691,-825.804 963.352,-834.043 967.036,-828.091"/>
</g>
<!-- node31&#45;&gt;node28 -->
<g id="edge74" class="edge"><title>node31&#45;&gt;node28</title>
<path fill="none" stroke="black" d="M767.301,-937.638C745.218,-927.264 715.891,-913.486 692.211,-902.361"/>
<polygon fill="black" stroke="black" points="693.649,-899.17 683.11,-898.085 690.673,-905.505 693.649,-899.17"/>
</g>
<!-- node31&#45;&gt;node29 -->
<g id="edge75" class="edge"><title>node31&#45;&gt;node29</title>
<path fill="none" stroke="black" d="M799.753,-935.697C799.643,-927.983 799.51,-918.712 799.387,-910.112"/>
<polygon fill="black" stroke="black" points="802.887,-910.053 799.244,-900.104 795.888,-910.153 802.887,-910.053"/>
</g>
<!-- node31&#45;&gt;node30 -->
<g id="edge76" class="edge"><title>node31&#45;&gt;node30</title>
<path fill="none" stroke="black" d="M829.623,-937.291C849.09,-926.967 874.697,-913.388 895.431,-902.393"/>
<polygon fill="black" stroke="black" points="897.085,-905.477 904.279,-897.7 893.805,-899.293 897.085,-905.477"/>
</g>
<!-- node32 -->
<g id="node34" class="node"><title>node32</title>
<ellipse fill="none" stroke="black" cx="800" cy="-1098" rx="70.9292" ry="18"/>
<text text-anchor="middle" x="800" y="-1093.8" font-family="Times,serif" font-size="14.00">^\w+(\(\d+\))?$</text>
</g>
<!-- node32&#45;&gt;node31 -->
<g id="edge78" class="edge"><title>node32&#45;&gt;node31</title>
<path fill="none" stroke="black" d="M800,-1079.87C800,-1055.67 800,-1011.21 800,-982.393"/>
<polygon fill="black" stroke="black" points="803.5,-982.189 800,-972.189 796.5,-982.189 803.5,-982.189"/>
</g>
<!-- node33 -->
<g id="node35" class="node"><title>node33</title>
<ellipse fill="none" stroke="black" cx="1087" cy="-1026" rx="70.9292" ry="18"/>
<text text-anchor="middle" x="1087" y="-1021.8" font-family="Times,serif" font-size="14.00">^\w+(\(\d+\))?$</text>
</g>
<!-- node33&#45;&gt;end -->
<g id="edge79" class="edge"><title>node33&#45;&gt;end</title>
<path fill="none" stroke="black" d="M1087.99,-1007.96C1089.44,-981.308 1092,-928.143 1092,-883 1092,-883 1092,-883 1092,-161 1092,-96.0183 1036.04,-96.8521 976,-72 909.882,-44.633 695.952,-27.4204 609.13,-21.4045"/>
<polygon fill="black" stroke="black" points="609.164,-17.8988 598.949,-20.7102 608.688,-24.8825 609.164,-17.8988"/>
</g>
<!-- node34 -->
<g id="node36" class="node"><title>node34</title>
<ellipse fill="none" stroke="black" cx="952" cy="-1098" rx="63.3318" ry="18"/>
<text text-anchor="middle" x="952" y="-1093.8" font-family="Times,serif" font-size="14.00">&quot;BEGIN OF&quot;</text>
</g>
<!-- node34&#45;&gt;node33 -->
<g id="edge80" class="edge"><title>node34&#45;&gt;node33</title>
<path fill="none" stroke="black" d="M980.961,-1081.98C1000.53,-1071.83 1026.6,-1058.32 1048,-1047.22"/>
<polygon fill="black" stroke="black" points="1049.89,-1050.19 1057.15,-1042.48 1046.66,-1043.97 1049.89,-1050.19"/>
</g>
<!-- node35 -->
<g id="node37" class="node"><title>node35</title>
<ellipse fill="none" stroke="black" cx="1087" cy="-1098" rx="53.5213" ry="18"/>
<text text-anchor="middle" x="1087" y="-1093.8" font-family="Times,serif" font-size="14.00">&quot;END OF&quot;</text>
</g>
<!-- node35&#45;&gt;node33 -->
<g id="edge81" class="edge"><title>node35&#45;&gt;node33</title>
<path fill="none" stroke="black" d="M1087,-1079.7C1087,-1071.98 1087,-1062.71 1087,-1054.11"/>
<polygon fill="black" stroke="black" points="1090.5,-1054.1 1087,-1044.1 1083.5,-1054.1 1090.5,-1054.1"/>
</g>
<!-- node36&#45;&gt;node15 -->
<g id="edge82" class="edge"><title>node36&#45;&gt;node15</title>
<path fill="none" stroke="black" d="M800.972,-1159.7C691.923,-1146.19 490.952,-1121.29 383.401,-1107.97"/>
<polygon fill="black" stroke="black" points="383.645,-1104.47 373.291,-1106.72 382.784,-1111.42 383.645,-1104.47"/>
</g>
<!-- node36&#45;&gt;node32 -->
<g id="edge83" class="edge"><title>node36&#45;&gt;node32</title>
<path fill="none" stroke="black" d="M857.603,-1152.05C847.917,-1143.13 835.891,-1132.06 825.336,-1122.34"/>
<polygon fill="black" stroke="black" points="827.692,-1119.75 817.966,-1115.55 822.95,-1124.9 827.692,-1119.75"/>
</g>
<!-- node36&#45;&gt;node34 -->
<g id="edge84" class="edge"><title>node36&#45;&gt;node34</title>
<path fill="none" stroke="black" d="M894.397,-1152.05C904.154,-1143.07 916.285,-1131.9 926.895,-1122.12"/>
<polygon fill="black" stroke="black" points="929.311,-1124.66 934.295,-1115.31 924.569,-1119.51 929.311,-1124.66"/>
</g>
<!-- node36&#45;&gt;node35 -->
<g id="edge85" class="edge"><title>node36&#45;&gt;node35</title>
<path fill="none" stroke="black" d="M920.49,-1154.24C955.745,-1142.54 1004.85,-1126.25 1040.59,-1114.4"/>
<polygon fill="black" stroke="black" points="1041.91,-1117.65 1050.3,-1111.18 1039.71,-1111 1041.91,-1117.65"/>
</g>
</g>
</svg>
