<?xml version="1.0" encoding="UTF-8" standalone="no"?>
<!DOCTYPE svg PUBLIC "-//W3C//DTD SVG 1.1//EN"
 "http://www.w3.org/Graphics/SVG/1.1/DTD/svg11.dtd">
<!-- Generated by graphviz version 2.38.0 (20140413.2041)
 -->
<!-- Title: delete Pages: 1 -->
<svg width="1051pt" height="620pt"
 viewBox="0.00 0.00 1050.99 620.00" xmlns="http://www.w3.org/2000/svg" xmlns:xlink="http://www.w3.org/1999/xlink">
<g id="graph0" class="graph" transform="scale(1 1) rotate(0) translate(4 616)">
<title>delete</title>
<polygon fill="white" stroke="none" points="-4,4 -4,-616 1046.99,-616 1046.99,4 -4,4"/>
<!-- start -->
<g id="node1" class="node"><title>start</title>
<polygon fill="none" stroke="black" points="607,-612 553,-612 553,-576 607,-576 607,-612"/>
<text text-anchor="middle" x="580" y="-589.8" font-family="Times,serif" font-size="14.00">Start</text>
</g>
<!-- node416 -->
<g id="node31" class="node"><title>node416</title>
<ellipse fill="none" stroke="black" cx="580" cy="-522" rx="55.2665" ry="18"/>
<text text-anchor="middle" x="580" y="-517.8" font-family="Times,serif" font-size="14.00">&quot;DELETE&quot;</text>
</g>
<!-- start&#45;&gt;node416 -->
<g id="edge47" class="edge"><title>start&#45;&gt;node416</title>
<path fill="none" stroke="black" d="M580,-575.697C580,-567.983 580,-558.712 580,-550.112"/>
<polygon fill="black" stroke="black" points="583.5,-550.104 580,-540.104 576.5,-550.104 583.5,-550.104"/>
</g>
<!-- end -->
<g id="node2" class="node"><title>end</title>
<polygon fill="none" stroke="black" points="362,-36 308,-36 308,-0 362,-0 362,-36"/>
<text text-anchor="middle" x="335" y="-13.8" font-family="Times,serif" font-size="14.00">End</text>
</g>
<!-- node388 -->
<g id="node3" class="node"><title>node388</title>
<g id="a_node3"><a xlink:href="reuse_source.svg" xlink:title="&lt;u&gt;source&lt;/u&gt;">
<ellipse fill="none" stroke="black" cx="77" cy="-162" rx="36.4761" ry="18"/>
<text text-anchor="start" x="58.7328" y="-158.8" font-family="Times,serif" text-decoration="underline" font-size="14.00" fill="blue">source</text>
</a>
</g>
</g>
<!-- node388&#45;&gt;end -->
<g id="edge1" class="edge"><title>node388&#45;&gt;end</title>
<path fill="none" stroke="black" d="M79.8057,-143.854C84.035,-123.625 94.0215,-90.423 116,-72 167.98,-28.4288 250.009,-19.5661 297.539,-18.3834"/>
<polygon fill="black" stroke="black" points="297.756,-21.8807 307.703,-18.2352 297.653,-14.8815 297.756,-21.8807"/>
</g>
<!-- node389 -->
<g id="node4" class="node"><title>node389</title>
<ellipse fill="none" stroke="black" cx="77" cy="-234" rx="48.8859" ry="18"/>
<text text-anchor="middle" x="77" y="-229.8" font-family="Times,serif" font-size="14.00">&quot;INDEX&quot;</text>
</g>
<!-- node389&#45;&gt;node388 -->
<g id="edge2" class="edge"><title>node389&#45;&gt;node388</title>
<path fill="none" stroke="black" d="M77,-215.697C77,-207.983 77,-198.712 77,-190.112"/>
<polygon fill="black" stroke="black" points="80.5001,-190.104 77,-180.104 73.5001,-190.104 80.5001,-190.104"/>
</g>
<!-- node390 -->
<g id="node5" class="node"><title>node390</title>
<g id="a_node5"><a xlink:href="reuse_source.svg" xlink:title="&lt;u&gt;source&lt;/u&gt;">
<ellipse fill="none" stroke="black" cx="161" cy="-90" rx="36.4761" ry="18"/>
<text text-anchor="start" x="142.733" y="-86.8" font-family="Times,serif" text-decoration="underline" font-size="14.00" fill="blue">source</text>
</a>
</g>
</g>
<!-- node390&#45;&gt;end -->
<g id="edge3" class="edge"><title>node390&#45;&gt;end</title>
<path fill="none" stroke="black" d="M188.188,-78.0625C217.852,-66.1284 265.499,-46.96 298.427,-33.7131"/>
<polygon fill="black" stroke="black" points="299.746,-36.9554 307.717,-29.976 297.133,-30.4612 299.746,-36.9554"/>
</g>
<!-- node391 -->
<g id="node6" class="node"><title>node391</title>
<ellipse fill="none" stroke="black" cx="163" cy="-162" rx="31.5723" ry="18"/>
<text text-anchor="middle" x="163" y="-157.8" font-family="Times,serif" font-size="14.00">&quot;TO&quot;</text>
</g>
<!-- node391&#45;&gt;node390 -->
<g id="edge4" class="edge"><title>node391&#45;&gt;node390</title>
<path fill="none" stroke="black" d="M162.506,-143.697C162.285,-135.983 162.02,-126.712 161.775,-118.112"/>
<polygon fill="black" stroke="black" points="165.273,-118 161.489,-108.104 158.276,-118.2 165.273,-118"/>
</g>
<!-- node392 -->
<g id="node7" class="node"><title>node392</title>
<g id="a_node7"><a xlink:href="reuse_source.svg" xlink:title="&lt;u&gt;source&lt;/u&gt;">
<ellipse fill="none" stroke="black" cx="222" cy="-234" rx="36.4761" ry="18"/>
<text text-anchor="start" x="203.733" y="-230.8" font-family="Times,serif" text-decoration="underline" font-size="14.00" fill="blue">source</text>
</a>
</g>
</g>
<!-- node392&#45;&gt;end -->
<g id="edge6" class="edge"><title>node392&#45;&gt;end</title>
<path fill="none" stroke="black" d="M223.097,-215.926C225.848,-184.711 235.291,-117.469 267,-72 275.543,-59.7496 287.757,-48.9971 299.483,-40.4359"/>
<polygon fill="black" stroke="black" points="301.664,-43.1824 307.875,-34.5992 297.667,-37.4357 301.664,-43.1824"/>
</g>
<!-- node392&#45;&gt;node391 -->
<g id="edge5" class="edge"><title>node392&#45;&gt;node391</title>
<path fill="none" stroke="black" d="M208.612,-217.116C200.993,-208.076 191.306,-196.583 182.82,-186.515"/>
<polygon fill="black" stroke="black" points="185.456,-184.212 176.335,-178.821 180.104,-188.723 185.456,-184.212"/>
</g>
<!-- node393 -->
<g id="node8" class="node"><title>node393</title>
<ellipse fill="none" stroke="black" cx="222" cy="-306" rx="46.0582" ry="18"/>
<text text-anchor="middle" x="222" y="-301.8" font-family="Times,serif" font-size="14.00">&quot;FROM&quot;</text>
</g>
<!-- node393&#45;&gt;node392 -->
<g id="edge7" class="edge"><title>node393&#45;&gt;node392</title>
<path fill="none" stroke="black" d="M222,-287.697C222,-279.983 222,-270.712 222,-262.112"/>
<polygon fill="black" stroke="black" points="225.5,-262.104 222,-252.104 218.5,-262.104 225.5,-262.104"/>
</g>
<!-- node394 -->
<g id="node9" class="node"><title>node394</title>
<g id="a_node9"><a xlink:href="reuse_cond.svg" xlink:title="&lt;u&gt;cond&lt;/u&gt;">
<ellipse fill="none" stroke="black" cx="306" cy="-90" rx="29.6185" ry="18"/>
<text text-anchor="start" x="292.393" y="-86.8" font-family="Times,serif" text-decoration="underline" font-size="14.00" fill="blue">cond</text>
</a>
</g>
</g>
<!-- node394&#45;&gt;end -->
<g id="edge8" class="edge"><title>node394&#45;&gt;end</title>
<path fill="none" stroke="black" d="M312.873,-72.411C316.169,-64.4539 320.201,-54.7221 323.916,-45.7557"/>
<polygon fill="black" stroke="black" points="327.178,-47.025 327.772,-36.4468 320.711,-44.3457 327.178,-47.025"/>
</g>
<!-- node395 -->
<g id="node10" class="node"><title>node395</title>
<ellipse fill="none" stroke="black" cx="306" cy="-162" rx="53.4816" ry="18"/>
<text text-anchor="middle" x="306" y="-157.8" font-family="Times,serif" font-size="14.00">&quot;WHERE&quot;</text>
</g>
<!-- node395&#45;&gt;node394 -->
<g id="edge9" class="edge"><title>node395&#45;&gt;node394</title>
<path fill="none" stroke="black" d="M306,-143.697C306,-135.983 306,-126.712 306,-118.112"/>
<polygon fill="black" stroke="black" points="309.5,-118.104 306,-108.104 302.5,-118.104 309.5,-118.104"/>
</g>
<!-- node396 -->
<g id="node11" class="node"><title>node396</title>
<ellipse fill="none" stroke="black" cx="420" cy="-162" rx="42.879" ry="18"/>
<text text-anchor="middle" x="420" y="-157.8" font-family="Times,serif" font-size="14.00">Dummy</text>
</g>
<!-- node396&#45;&gt;end -->
<g id="edge12" class="edge"><title>node396&#45;&gt;end</title>
<path fill="none" stroke="black" d="M407.835,-144.619C400.363,-134.309 390.768,-120.612 383,-108 370.338,-87.4423 357.428,-63.2861 348.19,-45.3312"/>
<polygon fill="black" stroke="black" points="351.121,-43.3752 343.46,-36.0565 344.885,-46.5551 351.121,-43.3752"/>
</g>
<!-- node397 -->
<g id="node12" class="node"><title>node397</title>
<g id="a_node12"><a xlink:href="reuse_compare.svg" xlink:title="&lt;u&gt;compare&lt;/u&gt;">
<ellipse fill="none" stroke="black" cx="436" cy="-90" rx="44.0622" ry="18"/>
<text text-anchor="start" x="411.902" y="-86.8" font-family="Times,serif" text-decoration="underline" font-size="14.00" fill="blue">compare</text>
</a>
</g>
</g>
<!-- node396&#45;&gt;node397 -->
<g id="edge11" class="edge"><title>node396&#45;&gt;node397</title>
<path fill="none" stroke="black" d="M418.039,-143.697C419.032,-135.782 420.999,-126.228 423.389,-117.441"/>
<polygon fill="black" stroke="black" points="426.814,-118.207 426.357,-107.622 420.113,-116.182 426.814,-118.207"/>
</g>
<!-- node397&#45;&gt;node396 -->
<g id="edge10" class="edge"><title>node397&#45;&gt;node396</title>
<path fill="none" stroke="black" d="M437.943,-108.447C436.941,-116.355 434.976,-125.877 432.591,-134.631"/>
<polygon fill="black" stroke="black" points="429.178,-133.826 429.632,-144.411 435.878,-135.853 429.178,-133.826"/>
</g>
<!-- node398 -->
<g id="node13" class="node"><title>node398</title>
<g id="a_node13"><a xlink:href="reuse_compare.svg" xlink:title="&lt;u&gt;compare&lt;/u&gt;">
<ellipse fill="none" stroke="black" cx="455" cy="-234" rx="44.0622" ry="18"/>
<text text-anchor="start" x="430.902" y="-230.8" font-family="Times,serif" text-decoration="underline" font-size="14.00" fill="blue">compare</text>
</a>
</g>
</g>
<!-- node398&#45;&gt;node396 -->
<g id="edge14" class="edge"><title>node398&#45;&gt;node396</title>
<path fill="none" stroke="black" d="M446.527,-216.055C442.443,-207.887 437.456,-197.912 432.912,-188.824"/>
<polygon fill="black" stroke="black" points="435.997,-187.168 428.395,-179.789 429.736,-190.299 435.997,-187.168"/>
</g>
<!-- node398&#45;&gt;node397 -->
<g id="edge13" class="edge"><title>node398&#45;&gt;node397</title>
<path fill="none" stroke="black" d="M463.084,-216C470.584,-197.889 479.537,-168.508 472,-144 468.861,-133.793 463.014,-123.788 456.931,-115.269"/>
<polygon fill="black" stroke="black" points="459.703,-113.132 450.861,-107.293 454.132,-117.371 459.703,-113.132"/>
</g>
<!-- node399 -->
<g id="node14" class="node"><title>node399</title>
<ellipse fill="none" stroke="black" cx="390" cy="-306" rx="66.2438" ry="18"/>
<text text-anchor="middle" x="390" y="-301.8" font-family="Times,serif" font-size="14.00">&quot;WITH KEY&quot;</text>
</g>
<!-- node399&#45;&gt;node398 -->
<g id="edge15" class="edge"><title>node399&#45;&gt;node398</title>
<path fill="none" stroke="black" d="M405.404,-288.411C413.698,-279.479 424.07,-268.31 433.181,-258.498"/>
<polygon fill="black" stroke="black" points="435.914,-260.698 440.154,-250.988 430.785,-255.934 435.914,-260.698"/>
</g>
<!-- node400 -->
<g id="node15" class="node"><title>node400</title>
<ellipse fill="none" stroke="black" cx="574" cy="-306" rx="99.7918" ry="18"/>
<text text-anchor="middle" x="574" y="-301.8" font-family="Times,serif" font-size="14.00">&quot;WITH TABLE KEY&quot;</text>
</g>
<!-- node400&#45;&gt;node398 -->
<g id="edge16" class="edge"><title>node400&#45;&gt;node398</title>
<path fill="none" stroke="black" d="M546.1,-288.588C528.704,-278.356 506.233,-265.137 487.961,-254.389"/>
<polygon fill="black" stroke="black" points="489.498,-251.232 479.104,-249.179 485.949,-257.266 489.498,-251.232"/>
</g>
<!-- node401 -->
<g id="node16" class="node"><title>node401</title>
<g id="a_node16"><a xlink:href="reuse_target.svg" xlink:title="&lt;u&gt;target&lt;/u&gt;">
<ellipse fill="none" stroke="black" cx="296" cy="-378" rx="33.0411" ry="18"/>
<text text-anchor="start" x="280.065" y="-374.8" font-family="Times,serif" text-decoration="underline" font-size="14.00" fill="blue">target</text>
</a>
</g>
</g>
<!-- node401&#45;&gt;end -->
<g id="edge20" class="edge"><title>node401&#45;&gt;end</title>
<path fill="none" stroke="black" d="M262.907,-376.124C185.666,-372.144 0,-350.56 0,-235 0,-235 0,-235 0,-161 0,-32.7683 210.644,-18.6143 297.867,-18.2501"/>
<polygon fill="black" stroke="black" points="297.863,-21.75 307.869,-18.2673 297.875,-14.75 297.863,-21.75"/>
</g>
<!-- node401&#45;&gt;node389 -->
<g id="edge17" class="edge"><title>node401&#45;&gt;node389</title>
<path fill="none" stroke="black" d="M264.098,-373.051C229.089,-367.345 172.729,-353.976 134,-324 112.802,-307.593 97.2347,-280.927 87.7755,-261.055"/>
<polygon fill="black" stroke="black" points="90.9481,-259.576 83.6247,-251.92 84.5751,-262.472 90.9481,-259.576"/>
</g>
<!-- node401&#45;&gt;node391 -->
<g id="edge19" class="edge"><title>node401&#45;&gt;node391</title>
<path fill="none" stroke="black" d="M263.876,-373.597C233.305,-368.476 188.83,-355.71 167,-324 139.413,-283.927 147.479,-223.95 155.477,-189.639"/>
<polygon fill="black" stroke="black" points="158.891,-190.415 157.917,-179.865 152.099,-188.72 158.891,-190.415"/>
</g>
<!-- node401&#45;&gt;node393 -->
<g id="edge18" class="edge"><title>node401&#45;&gt;node393</title>
<path fill="none" stroke="black" d="M280.307,-362.155C270.379,-352.764 257.347,-340.436 246.122,-329.818"/>
<polygon fill="black" stroke="black" points="248.369,-327.126 238.699,-322.797 243.559,-332.211 248.369,-327.126"/>
</g>
<!-- node401&#45;&gt;node395 -->
<g id="edge21" class="edge"><title>node401&#45;&gt;node395</title>
<path fill="none" stroke="black" d="M296.801,-359.849C298.531,-322.832 302.627,-235.181 304.72,-190.386"/>
<polygon fill="black" stroke="black" points="308.224,-190.385 305.195,-180.232 301.232,-190.058 308.224,-190.385"/>
</g>
<!-- node401&#45;&gt;node399 -->
<g id="edge22" class="edge"><title>node401&#45;&gt;node399</title>
<path fill="none" stroke="black" d="M315.022,-362.834C327.938,-353.217 345.285,-340.299 360.04,-329.31"/>
<polygon fill="black" stroke="black" points="362.446,-331.883 368.376,-323.103 358.265,-326.269 362.446,-331.883"/>
</g>
<!-- node401&#45;&gt;node400 -->
<g id="edge23" class="edge"><title>node401&#45;&gt;node400</title>
<path fill="none" stroke="black" d="M325.488,-369.575C368.75,-358.682 450.555,-338.083 508.475,-323.499"/>
<polygon fill="black" stroke="black" points="509.432,-326.867 518.275,-321.032 507.723,-320.079 509.432,-326.867"/>
</g>
<!-- node402 -->
<g id="node17" class="node"><title>node402</title>
<ellipse fill="none" stroke="black" cx="502" cy="-450" rx="50.049" ry="18"/>
<text text-anchor="middle" x="502" y="-445.8" font-family="Times,serif" font-size="14.00">&quot;TABLE&quot;</text>
</g>
<!-- node402&#45;&gt;node401 -->
<g id="edge24" class="edge"><title>node402&#45;&gt;node401</title>
<path fill="none" stroke="black" d="M466.587,-436.967C429.311,-424.3 370.888,-404.448 333.018,-391.579"/>
<polygon fill="black" stroke="black" points="333.982,-388.21 323.388,-388.306 331.73,-394.838 333.982,-388.21"/>
</g>
<!-- node403 -->
<g id="node18" class="node"><title>node403</title>
<g id="a_node18"><a xlink:href="reuse_cond.svg" xlink:title="&lt;u&gt;cond&lt;/u&gt;">
<ellipse fill="none" stroke="black" cx="599" cy="-90" rx="29.6185" ry="18"/>
<text text-anchor="start" x="585.393" y="-86.8" font-family="Times,serif" text-decoration="underline" font-size="14.00" fill="blue">cond</text>
</a>
</g>
</g>
<!-- node403&#45;&gt;end -->
<g id="edge25" class="edge"><title>node403&#45;&gt;end</title>
<path fill="none" stroke="black" d="M573.143,-80.8837C563.686,-77.986 552.884,-74.7581 543,-72 483.439,-55.3803 413.7,-38.0379 372.002,-27.8926"/>
<polygon fill="black" stroke="black" points="372.572,-24.4294 362.029,-25.4732 370.922,-31.2321 372.572,-24.4294"/>
</g>
<!-- node404 -->
<g id="node19" class="node"><title>node404</title>
<ellipse fill="none" stroke="black" cx="610" cy="-162" rx="53.4816" ry="18"/>
<text text-anchor="middle" x="610" y="-157.8" font-family="Times,serif" font-size="14.00">&quot;WHERE&quot;</text>
</g>
<!-- node404&#45;&gt;node403 -->
<g id="edge26" class="edge"><title>node404&#45;&gt;node403</title>
<path fill="none" stroke="black" d="M607.281,-143.697C606.069,-135.983 604.612,-126.712 603.261,-118.112"/>
<polygon fill="black" stroke="black" points="606.698,-117.44 601.688,-108.104 599.783,-118.526 606.698,-117.44"/>
</g>
<!-- node405 -->
<g id="node20" class="node"><title>node405</title>
<ellipse fill="none" stroke="black" cx="610" cy="-234" rx="27" ry="18"/>
<text text-anchor="middle" x="610" y="-229.8" font-family="Times,serif" font-size="14.00">&quot;)&quot;</text>
</g>
<!-- node405&#45;&gt;end -->
<g id="edge28" class="edge"><title>node405&#45;&gt;end</title>
<path fill="none" stroke="black" d="M591.883,-220.328C578.611,-210.418 560.76,-195.723 548,-180 513.534,-137.53 530.794,-107.283 489,-72 455.42,-43.6514 405.851,-30.1893 372.085,-23.9871"/>
<polygon fill="black" stroke="black" points="372.595,-20.5236 362.148,-22.2869 371.415,-27.4233 372.595,-20.5236"/>
</g>
<!-- node405&#45;&gt;node404 -->
<g id="edge27" class="edge"><title>node405&#45;&gt;node404</title>
<path fill="none" stroke="black" d="M610,-215.697C610,-207.983 610,-198.712 610,-190.112"/>
<polygon fill="black" stroke="black" points="613.5,-190.104 610,-180.104 606.5,-190.104 613.5,-190.104"/>
</g>
<!-- node406 -->
<g id="node21" class="node"><title>node406</title>
<g id="a_node21"><a xlink:href="reuse_field.svg" xlink:title="&lt;u&gt;field&lt;/u&gt;">
<ellipse fill="none" stroke="black" cx="721" cy="-306" rx="28.9696" ry="18"/>
<text text-anchor="start" x="708.172" y="-302.8" font-family="Times,serif" text-decoration="underline" font-size="14.00" fill="blue">field</text>
</a>
</g>
</g>
<!-- node406&#45;&gt;node405 -->
<g id="edge29" class="edge"><title>node406&#45;&gt;node405</title>
<path fill="none" stroke="black" d="M701.411,-292.647C683.708,-281.483 657.463,-264.931 637.63,-252.424"/>
<polygon fill="black" stroke="black" points="639.348,-249.37 629.022,-246.996 635.614,-255.291 639.348,-249.37"/>
</g>
<!-- node407 -->
<g id="node22" class="node"><title>node407</title>
<ellipse fill="none" stroke="black" cx="690" cy="-378" rx="27" ry="18"/>
<text text-anchor="middle" x="690" y="-373.8" font-family="Times,serif" font-size="14.00">&quot;(&quot;</text>
</g>
<!-- node407&#45;&gt;node406 -->
<g id="edge30" class="edge"><title>node407&#45;&gt;node406</title>
<path fill="none" stroke="black" d="M697.347,-360.411C701.014,-352.129 705.533,-341.925 709.635,-332.662"/>
<polygon fill="black" stroke="black" points="712.857,-334.031 713.706,-323.47 706.457,-331.196 712.857,-334.031"/>
</g>
<!-- node408 -->
<g id="node23" class="node"><title>node408</title>
<g id="a_node23"><a xlink:href="reuse_field.svg" xlink:title="&lt;u&gt;field&lt;/u&gt;">
<ellipse fill="none" stroke="black" cx="691" cy="-234" rx="28.9696" ry="18"/>
<text text-anchor="start" x="678.172" y="-230.8" font-family="Times,serif" text-decoration="underline" font-size="14.00" fill="blue">field</text>
</a>
</g>
</g>
<!-- node408&#45;&gt;end -->
<g id="edge32" class="edge"><title>node408&#45;&gt;end</title>
<path fill="none" stroke="black" d="M691.179,-215.859C690.498,-181.995 683.633,-106.791 638,-72 596.798,-40.5872 443.978,-26.3449 372.417,-21.2909"/>
<polygon fill="black" stroke="black" points="372.28,-17.7734 362.064,-20.5841 371.803,-24.7572 372.28,-17.7734"/>
</g>
<!-- node408&#45;&gt;node404 -->
<g id="edge31" class="edge"><title>node408&#45;&gt;node404</title>
<path fill="none" stroke="black" d="M674.608,-218.834C663.687,-209.396 649.089,-196.78 636.532,-185.929"/>
<polygon fill="black" stroke="black" points="638.489,-182.994 628.634,-179.103 633.911,-188.29 638.489,-182.994"/>
</g>
<!-- node409 -->
<g id="node24" class="node"><title>node409</title>
<ellipse fill="none" stroke="black" cx="659" cy="-450" rx="46.0582" ry="18"/>
<text text-anchor="middle" x="659" y="-445.8" font-family="Times,serif" font-size="14.00">&quot;FROM&quot;</text>
</g>
<!-- node409&#45;&gt;node407 -->
<g id="edge33" class="edge"><title>node409&#45;&gt;node407</title>
<path fill="none" stroke="black" d="M666.504,-432.055C670.084,-423.973 674.446,-414.121 678.436,-405.112"/>
<polygon fill="black" stroke="black" points="681.716,-406.35 682.565,-395.789 675.315,-403.515 681.716,-406.35"/>
</g>
<!-- node409&#45;&gt;node408 -->
<g id="edge34" class="edge"><title>node409&#45;&gt;node408</title>
<path fill="none" stroke="black" d="M682.74,-434.361C696.738,-424.801 714.001,-411.281 726,-396 747.739,-368.314 751.494,-358.391 759,-324 762.412,-308.368 766.022,-302.377 759,-288 751.24,-272.113 736.163,-259.603 722.174,-250.736"/>
<polygon fill="black" stroke="black" points="723.614,-247.521 713.226,-245.436 720.047,-253.544 723.614,-247.521"/>
</g>
<!-- node410 -->
<g id="node25" class="node"><title>node410</title>
<ellipse fill="none" stroke="black" cx="805" cy="-162" rx="42.879" ry="18"/>
<text text-anchor="middle" x="805" y="-157.8" font-family="Times,serif" font-size="14.00">Dummy</text>
</g>
<!-- node410&#45;&gt;end -->
<g id="edge37" class="edge"><title>node410&#45;&gt;end</title>
<path fill="none" stroke="black" d="M792.082,-144.698C774.694,-124.028 741.677,-89.0332 705,-72 646.28,-44.7302 454.305,-27.7714 372.483,-21.6174"/>
<polygon fill="black" stroke="black" points="372.381,-18.1004 362.151,-20.8539 371.865,-25.0814 372.381,-18.1004"/>
</g>
<!-- node411 -->
<g id="node26" class="node"><title>node411</title>
<g id="a_node26"><a xlink:href="reuse_field.svg" xlink:title="&lt;u&gt;field&lt;/u&gt;">
<ellipse fill="none" stroke="black" cx="805" cy="-90" rx="28.9696" ry="18"/>
<text text-anchor="start" x="792.172" y="-86.8" font-family="Times,serif" text-decoration="underline" font-size="14.00" fill="blue">field</text>
</a>
</g>
</g>
<!-- node410&#45;&gt;node411 -->
<g id="edge36" class="edge"><title>node410&#45;&gt;node411</title>
<path fill="none" stroke="black" d="M799.122,-144.055C798.291,-136.231 798.054,-126.748 798.41,-117.977"/>
<polygon fill="black" stroke="black" points="801.916,-118.013 799.138,-107.789 794.934,-117.514 801.916,-118.013"/>
</g>
<!-- node411&#45;&gt;node410 -->
<g id="edge35" class="edge"><title>node411&#45;&gt;node410</title>
<path fill="none" stroke="black" d="M810.862,-107.789C811.7,-115.591 811.945,-125.067 811.597,-133.848"/>
<polygon fill="black" stroke="black" points="808.089,-133.834 810.878,-144.055 815.072,-134.325 808.089,-133.834"/>
</g>
<!-- node412 -->
<g id="node27" class="node"><title>node412</title>
<g id="a_node27"><a xlink:href="reuse_field.svg" xlink:title="&lt;u&gt;field&lt;/u&gt;">
<ellipse fill="none" stroke="black" cx="876" cy="-234" rx="28.9696" ry="18"/>
<text text-anchor="start" x="863.172" y="-230.8" font-family="Times,serif" text-decoration="underline" font-size="14.00" fill="blue">field</text>
</a>
</g>
</g>
<!-- node412&#45;&gt;node410 -->
<g id="edge39" class="edge"><title>node412&#45;&gt;node410</title>
<path fill="none" stroke="black" d="M861.289,-218.496C851.784,-209.125 839.21,-196.728 828.357,-186.028"/>
<polygon fill="black" stroke="black" points="830.756,-183.478 821.178,-178.95 825.841,-188.463 830.756,-183.478"/>
</g>
<!-- node412&#45;&gt;node411 -->
<g id="edge38" class="edge"><title>node412&#45;&gt;node411</title>
<path fill="none" stroke="black" d="M875.182,-215.962C873.666,-197.298 869.34,-166.964 857,-144 850.356,-131.636 839.956,-120.201 830.197,-111.141"/>
<polygon fill="black" stroke="black" points="832.401,-108.418 822.592,-104.413 827.762,-113.661 832.401,-108.418"/>
</g>
<!-- node413 -->
<g id="node28" class="node"><title>node413</title>
<ellipse fill="none" stroke="black" cx="883" cy="-306" rx="76.6955" ry="18"/>
<text text-anchor="middle" x="883" y="-301.8" font-family="Times,serif" font-size="14.00">&quot;COMPARING&quot;</text>
</g>
<!-- node413&#45;&gt;node412 -->
<g id="edge40" class="edge"><title>node413&#45;&gt;node412</title>
<path fill="none" stroke="black" d="M881.27,-287.697C880.498,-279.983 879.571,-270.712 878.711,-262.112"/>
<polygon fill="black" stroke="black" points="882.188,-261.706 877.71,-252.104 875.223,-262.403 882.188,-261.706"/>
</g>
<!-- node414 -->
<g id="node29" class="node"><title>node414</title>
<g id="a_node29"><a xlink:href="reuse_target.svg" xlink:title="&lt;u&gt;target&lt;/u&gt;">
<ellipse fill="none" stroke="black" cx="883" cy="-378" rx="33.0411" ry="18"/>
<text text-anchor="start" x="867.064" y="-374.8" font-family="Times,serif" text-decoration="underline" font-size="14.00" fill="blue">target</text>
</a>
</g>
</g>
<!-- node414&#45;&gt;node413 -->
<g id="edge41" class="edge"><title>node414&#45;&gt;node413</title>
<path fill="none" stroke="black" d="M883,-359.697C883,-351.983 883,-342.712 883,-334.112"/>
<polygon fill="black" stroke="black" points="886.5,-334.104 883,-324.104 879.5,-334.104 886.5,-334.104"/>
</g>
<!-- node415 -->
<g id="node30" class="node"><title>node415</title>
<ellipse fill="none" stroke="black" cx="883" cy="-450" rx="159.982" ry="18"/>
<text text-anchor="middle" x="883" y="-445.8" font-family="Times,serif" font-size="14.00">&quot;ADJACENT DUPLICATES FROM&quot;</text>
</g>
<!-- node415&#45;&gt;node414 -->
<g id="edge42" class="edge"><title>node415&#45;&gt;node414</title>
<path fill="none" stroke="black" d="M883,-431.697C883,-423.983 883,-414.712 883,-406.112"/>
<polygon fill="black" stroke="black" points="886.5,-406.104 883,-396.104 879.5,-406.104 886.5,-406.104"/>
</g>
<!-- node416&#45;&gt;node401 -->
<g id="edge44" class="edge"><title>node416&#45;&gt;node401</title>
<path fill="none" stroke="black" d="M542.617,-508.539C514.642,-498.737 475.73,-484.085 443,-468 400.051,-446.893 353.21,-417.295 324.218,-398.133"/>
<polygon fill="black" stroke="black" points="326.081,-395.168 315.817,-392.542 322.203,-400.996 326.081,-395.168"/>
</g>
<!-- node416&#45;&gt;node402 -->
<g id="edge43" class="edge"><title>node416&#45;&gt;node402</title>
<path fill="none" stroke="black" d="M561.909,-504.765C551.598,-495.511 538.517,-483.772 527.212,-473.626"/>
<polygon fill="black" stroke="black" points="529.504,-470.98 519.724,-466.906 524.829,-476.19 529.504,-470.98"/>
</g>
<!-- node416&#45;&gt;node409 -->
<g id="edge45" class="edge"><title>node416&#45;&gt;node409</title>
<path fill="none" stroke="black" d="M598.323,-504.765C608.841,-495.445 622.202,-483.605 633.709,-473.41"/>
<polygon fill="black" stroke="black" points="636.157,-475.917 641.32,-466.666 631.514,-470.678 636.157,-475.917"/>
</g>
<!-- node416&#45;&gt;node415 -->
<g id="edge46" class="edge"><title>node416&#45;&gt;node415</title>
<path fill="none" stroke="black" d="M623.735,-510.896C671.452,-499.873 748.74,-482.017 806.536,-468.665"/>
<polygon fill="black" stroke="black" points="807.406,-472.056 816.362,-466.395 805.831,-465.236 807.406,-472.056"/>
</g>
</g>
</svg>
