<svg xmlns="http://www.w3.org/2000/svg" xmlns:xlink="http://www.w3.org/1999/xlink" class="railroad-diagram" width="718" height="161" viewBox="0 0 718 161">
<defs>
<style type="text/css"><![CDATA[
path {
stroke-width: 3;
stroke: black;
fill: rgba(0,0,0,0);
}
text {
font: bold 14px monospace;
text-anchor: middle;
}
text.diagram-text {
font-size: 12px;
}
a {
fill: blue;
}
text.diagram-arrow {
font-size: 16px;
}
text.label {
text-anchor: start;
}
text.comment {
font: italic 12px monospace;
}
rect {
stroke-width: 3;
stroke: black;
fill: #BCBCBC;
}
path.diagram-text {
stroke-width: 3;
stroke: black;
fill: #BCBCBC;
cursor: help;
}
]]></style>
</defs>
<g transform="translate(.5 .5)">
<path d="M 20 30 v 20 m 10 -20 v 20 m -10 -10 h 20.5"></path>
<path d="M40 40h10"></path>
<g>
<path d="M50 40h0"></path>
<path d="M668 40h0"></path>
<g class="terminal">
<path d="M50 40h0"></path>
<path d="M134 40h0"></path>
<rect x="50" y="29" width="84" height="22" rx="10" ry="10"></rect>
<text x="92" y="44">"DELETE"</text>
</g>
<path d="M134 40h10"></path>
<g>
<path d="M144 40h0"></path>
<path d="M668 40h0"></path>
<path d="M144 40h20"></path>
<g>
<path d="M164 40h0"></path>
<path d="M648 40h0"></path>
<g class="terminal">
<path d="M164 40h0"></path>
<path d="M232 40h0"></path>
<rect x="164" y="29" width="68" height="22" rx="10" ry="10"></rect>
<text x="198" y="44">"FROM"</text>
</g>
<path d="M232 40h10"></path>
<g>
<path d="M242 40h0"></path>
<path d="M406 40h0"></path>
<path d="M242 40h20"></path>
<g class="non-terminal">
<path d="M262 40h0"></path>
<path d="M338 40h48"></path>
<rect x="262" y="29" width="76" height="22"></rect>
<a xlink:href="reuse_dynamic.svg"><text x="300" y="44">Dynamic</text>
</a>
</g>
<path d="M386 40h20"></path>
<path d="M242 40a10 10 0 0 1 10 10v10a10 10 0 0 0 10 10"></path>
<g class="non-terminal">
<path d="M262 70h0"></path>
<path d="M386 70h0"></path>
<rect x="262" y="59" width="124" height="22"></rect>
<a xlink:href="reuse_databasetable.svg"><text x="324" y="74">DatabaseTable</text>
</a>
</g>
<path d="M386 70a10 10 0 0 0 10 -10v-10a10 10 0 0 1 10 -10"></path>
</g>
<g>
<path d="M406 40h0"></path>
<path d="M648 40h0"></path>
<path d="M406 40a10 10 0 0 0 10 -10v0a10 10 0 0 1 10 -10"></path>
<g>
<path d="M426 20h202"></path>
</g>
<path d="M628 20a10 10 0 0 1 10 10v0a10 10 0 0 0 10 10"></path>
<path d="M406 40h20"></path>
<g>
<path d="M426 40h0"></path>
<path d="M628 40h0"></path>
<g class="terminal">
<path d="M426 40h0"></path>
<path d="M502 40h0"></path>
<rect x="426" y="29" width="76" height="22" rx="10" ry="10"></rect>
<text x="464" y="44">"WHERE"</text>
</g>
<path d="M502 40h10"></path>
<g>
<path d="M512 40h0"></path>
<path d="M628 40h0"></path>
<path d="M512 40h20"></path>
<g class="non-terminal">
<path d="M532 40h0"></path>
<path d="M584 40h24"></path>
<rect x="532" y="29" width="52" height="22"></rect>
<a xlink:href="reuse_cond.svg"><text x="558" y="44">Cond</text>
</a>
</g>
<path d="M608 40h20"></path>
<path d="M512 40a10 10 0 0 1 10 10v10a10 10 0 0 0 10 10"></path>
<g class="non-terminal">
<path d="M532 70h0"></path>
<path d="M608 70h0"></path>
<rect x="532" y="59" width="76" height="22"></rect>
<a xlink:href="reuse_dynamic.svg"><text x="570" y="74">Dynamic</text>
</a>
</g>
<path d="M608 70a10 10 0 0 0 10 -10v-10a10 10 0 0 1 10 -10"></path>
</g>
</g>
<path d="M628 40h20"></path>
</g>
</g>
<path d="M648 40h20"></path>
<path d="M144 40a10 10 0 0 1 10 10v40a10 10 0 0 0 10 10"></path>
<g>
<path d="M164 100h0"></path>
<path d="M542 100h106"></path>
<g>
<path d="M164 100h0"></path>
<path d="M328 100h0"></path>
<path d="M164 100h20"></path>
<g class="non-terminal">
<path d="M184 100h0"></path>
<path d="M260 100h48"></path>
<rect x="184" y="89" width="76" height="22"></rect>
<a xlink:href="reuse_dynamic.svg"><text x="222" y="104">Dynamic</text>
</a>
</g>
<path d="M308 100h20"></path>
<path d="M164 100a10 10 0 0 1 10 10v10a10 10 0 0 0 10 10"></path>
<g class="non-terminal">
<path d="M184 130h0"></path>
<path d="M308 130h0"></path>
<rect x="184" y="119" width="124" height="22"></rect>
<a xlink:href="reuse_databasetable.svg"><text x="246" y="134">DatabaseTable</text>
</a>
</g>
<path d="M308 130a10 10 0 0 0 10 -10v-10a10 10 0 0 1 10 -10"></path>
</g>
<path d="M328 100h10"></path>
<g class="terminal">
<path d="M338 100h0"></path>
<path d="M454 100h0"></path>
<rect x="338" y="89" width="116" height="22" rx="10" ry="10"></rect>
<text x="396" y="104">"FROM TABLE"</text>
</g>
<path d="M454 100h10"></path>
<path d="M464 100h10"></path>
<g class="non-terminal">
<path d="M474 100h0"></path>
<path d="M542 100h0"></path>
<rect x="474" y="89" width="68" height="22"></rect>
<a xlink:href="reuse_source.svg"><text x="508" y="104">Source</text>
</a>
</g>
</g>
<path d="M648 100a10 10 0 0 0 10 -10v-40a10 10 0 0 1 10 -10"></path>
</g>
</g>
<path d="M668 40h10"></path>
<path d="M 678 40 h 20 m -10 -10 v 20 m 10 -20 v 20"></path>
</g>
</svg>
