<svg xmlns="http://www.w3.org/2000/svg" xmlns:xlink="http://www.w3.org/1999/xlink" class="railroad-diagram" width="1174" height="170" viewBox="0 0 1174 170">
<defs>
<style type="text/css"><![CDATA[
path {
stroke-width: 3;
stroke: black;
fill: rgba(0,0,0,0);
}
text {
font: bold 14px monospace;
text-anchor: middle;
}
text.diagram-text {
font-size: 12px;
}
a {
fill: blue;
}
text.diagram-arrow {
font-size: 16px;
}
text.label {
text-anchor: start;
}
text.comment {
font: italic 12px monospace;
}
rect {
stroke-width: 3;
stroke: black;
fill: #BCBCBC;
}
path.diagram-text {
stroke-width: 3;
stroke: black;
fill: #BCBCBC;
cursor: help;
}
]]></style>
</defs>
<g transform="translate(.5 .5)">
<path d="M 20 30 v 20 m 10 -20 v 20 m -10 -10 h 20.5"></path>
<path d="M40 40h10"></path>
<g>
<path d="M50 40h0"></path>
<path d="M1124 40h0"></path>
<g class="terminal">
<path d="M50 40h0"></path>
<path d="M134 40h0"></path>
<rect x="50" y="29" width="84" height="22" rx="10" ry="10"></rect>
<text x="92" y="44">"DELETE"</text>
</g>
<path d="M134 40h10"></path>
<g>
<path d="M144 40h0"></path>
<path d="M1124 40h0"></path>
<path d="M144 40h20"></path>
<g>
<path d="M164 40h0"></path>
<path d="M1104 40h0"></path>
<g class="terminal">
<path d="M164 40h0"></path>
<path d="M232 40h0"></path>
<rect x="164" y="29" width="68" height="22" rx="10" ry="10"></rect>
<text x="198" y="44">"FROM"</text>
</g>
<path d="M232 40h10"></path>
<g>
<path d="M242 40h0"></path>
<path d="M406 40h0"></path>
<path d="M242 40h20"></path>
<g class="non-terminal">
<path d="M262 40h0"></path>
<path d="M338 40h48"></path>
<rect x="262" y="29" width="76" height="22"></rect>
<a xlink:href="reuse_dynamic.svg"><text x="300" y="44">Dynamic</text>
</a>
</g>
<path d="M386 40h20"></path>
<path d="M242 40a10 10 0 0 1 10 10v10a10 10 0 0 0 10 10"></path>
<g class="non-terminal">
<path d="M262 70h0"></path>
<path d="M386 70h0"></path>
<rect x="262" y="59" width="124" height="22"></rect>
<a xlink:href="reuse_databasetable.svg"><text x="324" y="74">DatabaseTable</text>
</a>
</g>
<path d="M386 70a10 10 0 0 0 10 -10v-10a10 10 0 0 1 10 -10"></path>
</g>
<g>
<path d="M406 40h0"></path>
<path d="M610 40h0"></path>
<path d="M406 40a10 10 0 0 0 10 -10v0a10 10 0 0 1 10 -10"></path>
<g>
<path d="M426 20h164"></path>
</g>
<path d="M590 20a10 10 0 0 1 10 10v0a10 10 0 0 0 10 10"></path>
<path d="M406 40h20"></path>
<g class="terminal">
<path d="M426 40h0"></path>
<path d="M590 40h0"></path>
<rect x="426" y="29" width="164" height="22" rx="10" ry="10"></rect>
<text x="508" y="44">"CLIENT SPECIFIED"</text>
</g>
<path d="M590 40h20"></path>
</g>
<g>
<path d="M610 40h0"></path>
<path d="M862 40h0"></path>
<path d="M610 40a10 10 0 0 0 10 -10v0a10 10 0 0 1 10 -10"></path>
<g>
<path d="M630 20h212"></path>
</g>
<path d="M842 20a10 10 0 0 1 10 10v0a10 10 0 0 0 10 10"></path>
<path d="M610 40h20"></path>
<g>
<path d="M630 40h0"></path>
<path d="M842 40h0"></path>
<g class="terminal">
<path d="M630 40h0"></path>
<path d="M746 40h0"></path>
<rect x="630" y="29" width="116" height="22" rx="10" ry="10"></rect>
<text x="688" y="44">"CONNECTION"</text>
</g>
<path d="M746 40h10"></path>
<path d="M756 40h10"></path>
<g class="non-terminal">
<path d="M766 40h0"></path>
<path d="M842 40h0"></path>
<rect x="766" y="29" width="76" height="22"></rect>
<a xlink:href="reuse_dynamic.svg"><text x="804" y="44">Dynamic</text>
</a>
</g>
</g>
<path d="M842 40h20"></path>
</g>
<g>
<path d="M862 40h0"></path>
<path d="M1104 40h0"></path>
<path d="M862 40a10 10 0 0 0 10 -10v0a10 10 0 0 1 10 -10"></path>
<g>
<path d="M882 20h202"></path>
</g>
<path d="M1084 20a10 10 0 0 1 10 10v0a10 10 0 0 0 10 10"></path>
<path d="M862 40h20"></path>
<g>
<path d="M882 40h0"></path>
<path d="M1084 40h0"></path>
<g class="terminal">
<path d="M882 40h0"></path>
<path d="M958 40h0"></path>
<rect x="882" y="29" width="76" height="22" rx="10" ry="10"></rect>
<text x="920" y="44">"WHERE"</text>
</g>
<path d="M958 40h10"></path>
<g>
<path d="M968 40h0"></path>
<path d="M1084 40h0"></path>
<path d="M968 40h20"></path>
<g class="non-terminal">
<path d="M988 40h0"></path>
<path d="M1064 40h0"></path>
<rect x="988" y="29" width="76" height="22"></rect>
<a xlink:href="reuse_sqlcond.svg"><text x="1026" y="44">SQLCond</text>
</a>
</g>
<path d="M1064 40h20"></path>
<path d="M968 40a10 10 0 0 1 10 10v10a10 10 0 0 0 10 10"></path>
<g class="non-terminal">
<path d="M988 70h0"></path>
<path d="M1064 70h0"></path>
<rect x="988" y="59" width="76" height="22"></rect>
<a xlink:href="reuse_dynamic.svg"><text x="1026" y="74">Dynamic</text>
</a>
</g>
<path d="M1064 70a10 10 0 0 0 10 -10v-10a10 10 0 0 1 10 -10"></path>
</g>
</g>
<path d="M1084 40h20"></path>
</g>
</g>
<path d="M1104 40h20"></path>
<path d="M144 40a10 10 0 0 1 10 10v49a10 10 0 0 0 10 10"></path>
<g>
<path d="M164 109h0"></path>
<path d="M814 109h290"></path>
<g>
<path d="M164 109h0"></path>
<path d="M328 109h0"></path>
<path d="M164 109h20"></path>
<g class="non-terminal">
<path d="M184 109h0"></path>
<path d="M260 109h48"></path>
<rect x="184" y="98" width="76" height="22"></rect>
<a xlink:href="reuse_dynamic.svg"><text x="222" y="113">Dynamic</text>
</a>
</g>
<path d="M308 109h20"></path>
<path d="M164 109a10 10 0 0 1 10 10v10a10 10 0 0 0 10 10"></path>
<g class="non-terminal">
<path d="M184 139h0"></path>
<path d="M308 139h0"></path>
<rect x="184" y="128" width="124" height="22"></rect>
<a xlink:href="reuse_databasetable.svg"><text x="246" y="143">DatabaseTable</text>
</a>
</g>
<path d="M308 139a10 10 0 0 0 10 -10v-10a10 10 0 0 1 10 -10"></path>
</g>
<g>
<path d="M328 109h0"></path>
<path d="M532 109h0"></path>
<path d="M328 109a10 10 0 0 0 10 -10v0a10 10 0 0 1 10 -10"></path>
<g>
<path d="M348 89h164"></path>
</g>
<path d="M512 89a10 10 0 0 1 10 10v0a10 10 0 0 0 10 10"></path>
<path d="M328 109h20"></path>
<g class="terminal">
<path d="M348 109h0"></path>
<path d="M512 109h0"></path>
<rect x="348" y="98" width="164" height="22" rx="10" ry="10"></rect>
<text x="430" y="113">"CLIENT SPECIFIED"</text>
</g>
<path d="M512 109h20"></path>
</g>
<path d="M532 109h10"></path>
<g class="terminal">
<path d="M542 109h0"></path>
<path d="M610 109h0"></path>
<rect x="542" y="98" width="68" height="22" rx="10" ry="10"></rect>
<text x="576" y="113">"FROM"</text>
</g>
<path d="M610 109h10"></path>
<g>
<path d="M620 109h0"></path>
<path d="M736 109h0"></path>
<path d="M620 109a10 10 0 0 0 10 -10v0a10 10 0 0 1 10 -10"></path>
<g>
<path d="M640 89h76"></path>
</g>
<path d="M716 89a10 10 0 0 1 10 10v0a10 10 0 0 0 10 10"></path>
<path d="M620 109h20"></path>
<g class="terminal">
<path d="M640 109h0"></path>
<path d="M716 109h0"></path>
<rect x="640" y="98" width="76" height="22" rx="10" ry="10"></rect>
<text x="678" y="113">"TABLE"</text>
</g>
<path d="M716 109h20"></path>
</g>
<path d="M736 109h10"></path>
<g class="non-terminal">
<path d="M746 109h0"></path>
<path d="M814 109h0"></path>
<rect x="746" y="98" width="68" height="22"></rect>
<a xlink:href="reuse_source.svg"><text x="780" y="113">Source</text>
</a>
</g>
</g>
<path d="M1104 109a10 10 0 0 0 10 -10v-49a10 10 0 0 1 10 -10"></path>
</g>
</g>
<path d="M1124 40h10"></path>
<path d="M 1134 40 h 20 m -10 -10 v 20 m 10 -20 v 20"></path>
</g>
</svg>
