<svg xmlns="http://www.w3.org/2000/svg" xmlns:xlink="http://www.w3.org/1999/xlink" class="railroad-diagram" width="1100" height="277" viewBox="0 0 1100 277">
<defs>
<style type="text/css"><![CDATA[
path {
stroke-width: 3;
stroke: black;
fill: rgba(0,0,0,0);
}
text {
font: bold 14px monospace;
text-anchor: middle;
}
text.diagram-text {
font-size: 12px;
}
a {
fill: blue;
}
text.diagram-arrow {
font-size: 16px;
}
text.label {
text-anchor: start;
}
text.comment {
font: italic 12px monospace;
}
rect {
stroke-width: 3;
stroke: black;
fill: #BCBCBC;
}
path.diagram-text {
stroke-width: 3;
stroke: black;
fill: #BCBCBC;
cursor: help;
}
]]></style>
</defs>
<g transform="translate(.5 .5)">
<path d="M 20 30 v 20 m 10 -20 v 20 m -10 -10 h 20.5"></path>
<path d="M40 40h10"></path>
<g>
<path d="M50 40h0"></path>
<path d="M1050 40h0"></path>
<g class="terminal">
<path d="M50 40h0"></path>
<path d="M134 40h0"></path>
<rect x="50" y="29" width="84" height="22" rx="10" ry="10"></rect>
<text x="92" y="44">"DELETE"</text>
</g>
<path d="M134 40h10"></path>
<g>
<path d="M144 40h0"></path>
<path d="M1050 40h0"></path>
<path d="M144 40h20"></path>
<g>
<path d="M164 40h0"></path>
<path d="M972 40h58"></path>
<g>
<path d="M164 40h0"></path>
<path d="M280 40h0"></path>
<path d="M164 40a10 10 0 0 0 10 -10v0a10 10 0 0 1 10 -10"></path>
<g>
<path d="M184 20h76"></path>
</g>
<path d="M260 20a10 10 0 0 1 10 10v0a10 10 0 0 0 10 10"></path>
<path d="M164 40h20"></path>
<g class="terminal">
<path d="M184 40h0"></path>
<path d="M260 40h0"></path>
<rect x="184" y="29" width="76" height="22" rx="10" ry="10"></rect>
<text x="222" y="44">"TABLE"</text>
</g>
<path d="M260 40h20"></path>
</g>
<path d="M280 40h10"></path>
<g class="non-terminal">
<path d="M290 40h0"></path>
<path d="M358 40h0"></path>
<rect x="290" y="29" width="68" height="22"></rect>
<a xlink:href="reuse_target.svg"><text x="324" y="44">Target</text>
</a>
</g>
<path d="M358 40h10"></path>
<g>
<path d="M368 40h0"></path>
<path d="M784 40h0"></path>
<path d="M368 40h20"></path>
<g>
<path d="M388 40h0"></path>
<path d="M552 40h212"></path>
<g class="terminal">
<path d="M388 40h0"></path>
<path d="M464 40h0"></path>
<rect x="388" y="29" width="76" height="22" rx="10" ry="10"></rect>
<text x="426" y="44">"INDEX"</text>
</g>
<path d="M464 40h10"></path>
<path d="M474 40h10"></path>
<g class="non-terminal">
<path d="M484 40h0"></path>
<path d="M552 40h0"></path>
<rect x="484" y="29" width="68" height="22"></rect>
<a xlink:href="reuse_source.svg"><text x="518" y="44">Source</text>
</a>
</g>
</g>
<path d="M764 40h20"></path>
<path d="M368 40a10 10 0 0 1 10 10v10a10 10 0 0 0 10 10"></path>
<g>
<path d="M388 70h0"></path>
<path d="M616 70h148"></path>
<g class="terminal">
<path d="M388 70h0"></path>
<path d="M496 70h0"></path>
<rect x="388" y="59" width="108" height="22" rx="10" ry="10"></rect>
<text x="442" y="74">"USING KEY"</text>
</g>
<path d="M496 70h10"></path>
<path d="M506 70h10"></path>
<g class="non-terminal">
<path d="M516 70h0"></path>
<path d="M616 70h0"></path>
<rect x="516" y="59" width="100" height="22"></rect>
<a xlink:href="reuse_simplename.svg"><text x="566" y="74">SimpleName</text>
</a>
</g>
</g>
<path d="M764 70a10 10 0 0 0 10 -10v-10a10 10 0 0 1 10 -10"></path>
<path d="M368 40a10 10 0 0 1 10 10v49a10 10 0 0 0 10 10"></path>
<g>
<path d="M388 109h0"></path>
<path d="M764 109h0"></path>
<g>
<path d="M388 109h0"></path>
<path d="M584 109h0"></path>
<path d="M388 109a10 10 0 0 0 10 -10v0a10 10 0 0 1 10 -10"></path>
<g>
<path d="M408 89h156"></path>
</g>
<path d="M564 89a10 10 0 0 1 10 10v0a10 10 0 0 0 10 10"></path>
<path d="M388 109h20"></path>
<g>
<path d="M408 109h0"></path>
<path d="M564 109h0"></path>
<g class="terminal">
<path d="M408 109h0"></path>
<path d="M476 109h0"></path>
<rect x="408" y="98" width="68" height="22" rx="10" ry="10"></rect>
<text x="442" y="113">"FROM"</text>
</g>
<path d="M476 109h10"></path>
<path d="M486 109h10"></path>
<g class="non-terminal">
<path d="M496 109h0"></path>
<path d="M564 109h0"></path>
<rect x="496" y="98" width="68" height="22"></rect>
<a xlink:href="reuse_source.svg"><text x="530" y="113">Source</text>
</a>
</g>
</g>
<path d="M564 109h20"></path>
</g>
<g>
<path d="M584 109h0"></path>
<path d="M764 109h0"></path>
<path d="M584 109a10 10 0 0 0 10 -10v0a10 10 0 0 1 10 -10"></path>
<g>
<path d="M604 89h140"></path>
</g>
<path d="M744 89a10 10 0 0 1 10 10v0a10 10 0 0 0 10 10"></path>
<path d="M584 109h20"></path>
<g>
<path d="M604 109h0"></path>
<path d="M744 109h0"></path>
<g class="terminal">
<path d="M604 109h0"></path>
<path d="M656 109h0"></path>
<rect x="604" y="98" width="52" height="22" rx="10" ry="10"></rect>
<text x="630" y="113">"TO"</text>
</g>
<path d="M656 109h10"></path>
<path d="M666 109h10"></path>
<g class="non-terminal">
<path d="M676 109h0"></path>
<path d="M744 109h0"></path>
<rect x="676" y="98" width="68" height="22"></rect>
<a xlink:href="reuse_source.svg"><text x="710" y="113">Source</text>
</a>
</g>
</g>
<path d="M744 109h20"></path>
</g>
</g>
<path d="M764 109a10 10 0 0 0 10 -10v-49a10 10 0 0 1 10 -10"></path>
<path d="M368 40a10 10 0 0 1 10 10v79a10 10 0 0 0 10 10"></path>
<g>
<path d="M388 139h0"></path>
<path d="M682 139h82"></path>
<g>
<path d="M388 139h0"></path>
<path d="M576 139h0"></path>
<path d="M388 139h20"></path>
<g class="terminal">
<path d="M408 139h0"></path>
<path d="M508 139h48"></path>
<rect x="408" y="128" width="100" height="22" rx="10" ry="10"></rect>
<text x="458" y="143">"WITH KEY"</text>
</g>
<path d="M556 139h20"></path>
<path d="M388 139a10 10 0 0 1 10 10v10a10 10 0 0 0 10 10"></path>
<g class="terminal">
<path d="M408 169h0"></path>
<path d="M556 169h0"></path>
<rect x="408" y="158" width="148" height="22" rx="10" ry="10"></rect>
<text x="482" y="173">"WITH TABLE KEY"</text>
</g>
<path d="M556 169a10 10 0 0 0 10 -10v-10a10 10 0 0 1 10 -10"></path>
</g>
<path d="M576 139h10"></path>
<g>
<path d="M586 139h0"></path>
<path d="M682 139h0"></path>
<path d="M586 139h10"></path>
<g class="non-terminal">
<path d="M596 139h0"></path>
<path d="M672 139h0"></path>
<rect x="596" y="128" width="76" height="22"></rect>
<a xlink:href="reuse_compare.svg"><text x="634" y="143">Compare</text>
</a>
</g>
<path d="M672 139h10"></path>
<path d="M596 139a10 10 0 0 0 -10 10v0a10 10 0 0 0 10 10"></path>
<g>
<path d="M596 159h76"></path>
</g>
<path d="M672 159a10 10 0 0 0 10 -10v0a10 10 0 0 0 -10 -10"></path>
</g>
</g>
<path d="M764 139a10 10 0 0 0 10 -10v-79a10 10 0 0 1 10 -10"></path>
</g>
<g>
<path d="M784 40h0"></path>
<path d="M972 40h0"></path>
<path d="M784 40a10 10 0 0 0 10 -10v0a10 10 0 0 1 10 -10"></path>
<g>
<path d="M804 20h148"></path>
</g>
<path d="M952 20a10 10 0 0 1 10 10v0a10 10 0 0 0 10 10"></path>
<path d="M784 40h20"></path>
<g>
<path d="M804 40h0"></path>
<path d="M952 40h0"></path>
<g class="terminal">
<path d="M804 40h0"></path>
<path d="M880 40h0"></path>
<rect x="804" y="29" width="76" height="22" rx="10" ry="10"></rect>
<text x="842" y="44">"WHERE"</text>
</g>
<path d="M880 40h10"></path>
<path d="M890 40h10"></path>
<g class="non-terminal">
<path d="M900 40h0"></path>
<path d="M952 40h0"></path>
<rect x="900" y="29" width="52" height="22"></rect>
<a xlink:href="reuse_cond.svg"><text x="926" y="44">Cond</text>
</a>
</g>
</g>
<path d="M952 40h20"></path>
</g>
</g>
<path d="M1030 40h20"></path>
<path d="M144 40a10 10 0 0 1 10 10v148a10 10 0 0 0 10 10"></path>
<g>
<path d="M164 208h0"></path>
<path d="M1030 208h0"></path>
<g class="terminal">
<path d="M164 208h0"></path>
<path d="M392 208h0"></path>
<rect x="164" y="197" width="228" height="22" rx="10" ry="10"></rect>
<text x="278" y="212">"ADJACENT DUPLICATES FROM"</text>
</g>
<path d="M392 208h10"></path>
<path d="M402 208h10"></path>
<g class="non-terminal">
<path d="M412 208h0"></path>
<path d="M480 208h0"></path>
<rect x="412" y="197" width="68" height="22"></rect>
<a xlink:href="reuse_target.svg"><text x="446" y="212">Target</text>
</a>
</g>
<path d="M480 208h10"></path>
<g>
<path d="M490 208h0"></path>
<path d="M802 208h0"></path>
<path d="M490 208a10 10 0 0 0 10 -10v0a10 10 0 0 1 10 -10"></path>
<g>
<path d="M510 188h272"></path>
</g>
<path d="M782 188a10 10 0 0 1 10 10v0a10 10 0 0 0 10 10"></path>
<path d="M490 208h20"></path>
<g>
<path d="M510 208h0"></path>
<path d="M782 208h0"></path>
<g class="terminal">
<path d="M510 208h0"></path>
<path d="M618 208h0"></path>
<rect x="510" y="197" width="108" height="22" rx="10" ry="10"></rect>
<text x="564" y="212">"COMPARING"</text>
</g>
<path d="M618 208h10"></path>
<path d="M628 208h10"></path>
<g>
<path d="M638 208h0"></path>
<path d="M782 208h0"></path>
<path d="M638 208h10"></path>
<g>
<path d="M648 208h0"></path>
<path d="M772 208h0"></path>
<path d="M648 208h20"></path>
<g class="non-terminal">
<path d="M668 208h0"></path>
<path d="M752 208h0"></path>
<rect x="668" y="197" width="84" height="22"></rect>
<a xlink:href="reuse_fieldsub.svg"><text x="710" y="212">FieldSub</text>
</a>
</g>
<path d="M752 208h20"></path>
<path d="M648 208a10 10 0 0 1 10 10v10a10 10 0 0 0 10 10"></path>
<g class="non-terminal">
<path d="M668 238h0"></path>
<path d="M744 238h8"></path>
<rect x="668" y="227" width="76" height="22"></rect>
<a xlink:href="reuse_dynamic.svg"><text x="706" y="242">Dynamic</text>
</a>
</g>
<path d="M752 238a10 10 0 0 0 10 -10v-10a10 10 0 0 1 10 -10"></path>
</g>
<path d="M772 208h10"></path>
<path d="M648 208a10 10 0 0 0 -10 10v29a10 10 0 0 0 10 10"></path>
<g>
<path d="M648 257h124"></path>
</g>
<path d="M772 257a10 10 0 0 0 10 -10v-29a10 10 0 0 0 -10 -10"></path>
</g>
</g>
<path d="M782 208h20"></path>
</g>
<g>
<path d="M802 208h0"></path>
<path d="M1030 208h0"></path>
<path d="M802 208a10 10 0 0 0 10 -10v0a10 10 0 0 1 10 -10"></path>
<g>
<path d="M822 188h188"></path>
</g>
<path d="M1010 188a10 10 0 0 1 10 10v0a10 10 0 0 0 10 10"></path>
<path d="M802 208h20"></path>
<g>
<path d="M822 208h0"></path>
<path d="M1010 208h0"></path>
<g class="terminal">
<path d="M822 208h0"></path>
<path d="M930 208h0"></path>
<rect x="822" y="197" width="108" height="22" rx="10" ry="10"></rect>
<text x="876" y="212">"USING KEY"</text>
</g>
<path d="M930 208h10"></path>
<path d="M940 208h10"></path>
<g class="non-terminal">
<path d="M950 208h0"></path>
<path d="M1010 208h0"></path>
<rect x="950" y="197" width="60" height="22"></rect>
<a xlink:href="reuse_field.svg"><text x="980" y="212">Field</text>
</a>
</g>
</g>
<path d="M1010 208h20"></path>
</g>
</g>
<path d="M1030 208a10 10 0 0 0 10 -10v-148a10 10 0 0 1 10 -10"></path>
</g>
</g>
<path d="M1050 40h10"></path>
<path d="M 1060 40 h 20 m -10 -10 v 20 m 10 -20 v 20"></path>
</g>
</svg>
