<svg xmlns="http://www.w3.org/2000/svg" xmlns:xlink="http://www.w3.org/1999/xlink" class="railroad-diagram" width="854" height="248" viewBox="0 0 854 248">
<defs>
<style type="text/css"><![CDATA[
path {
stroke-width: 3;
stroke: black;
fill: rgba(0,0,0,0);
}
text {
font: bold 14px monospace;
text-anchor: middle;
}
text.diagram-text {
font-size: 12px;
}
a {
fill: blue;
}
text.diagram-arrow {
font-size: 16px;
}
text.label {
text-anchor: start;
}
text.comment {
font: italic 12px monospace;
}
rect {
stroke-width: 3;
stroke: black;
fill: #BCBCBC;
}
path.diagram-text {
stroke-width: 3;
stroke: black;
fill: #BCBCBC;
cursor: help;
}
]]></style>
</defs>
<g transform="translate(.5 .5)">
<path d="M 20 30 v 20 m 10 -20 v 20 m -10 -10 h 20.5"></path>
<path d="M40 40h10"></path>
<g>
<path d="M50 40h0"></path>
<path d="M804 40h0"></path>
<g class="terminal">
<path d="M50 40h0"></path>
<path d="M134 40h0"></path>
<rect x="50" y="29" width="84" height="22" rx="10" ry="10"></rect>
<text x="92" y="44">"DELETE"</text>
</g>
<path d="M134 40h10"></path>
<g>
<path d="M144 40h0"></path>
<path d="M804 40h0"></path>
<path d="M144 40h20"></path>
<g>
<path d="M164 40h0"></path>
<path d="M784 40h0"></path>
<g>
<path d="M164 40h0"></path>
<path d="M280 40h0"></path>
<path d="M164 40a10 10 0 0 0 10 -10v0a10 10 0 0 1 10 -10"></path>
<g>
<path d="M184 20h76"></path>
</g>
<path d="M260 20a10 10 0 0 1 10 10v0a10 10 0 0 0 10 10"></path>
<path d="M164 40h20"></path>
<g class="terminal">
<path d="M184 40h0"></path>
<path d="M260 40h0"></path>
<rect x="184" y="29" width="76" height="22" rx="10" ry="10"></rect>
<text x="222" y="44">"TABLE"</text>
</g>
<path d="M260 40h20"></path>
</g>
<path d="M280 40h10"></path>
<g class="non-terminal">
<path d="M290 40h0"></path>
<path d="M358 40h0"></path>
<rect x="290" y="29" width="68" height="22"></rect>
<a xlink:href="reuse_target.svg"><text x="324" y="44">target</text>
</a>
</g>
<path d="M358 40h10"></path>
<g>
<path d="M368 40h0"></path>
<path d="M784 40h0"></path>
<path d="M368 40h20"></path>
<g>
<path d="M388 40h106"></path>
<path d="M658 40h106"></path>
<g class="terminal">
<path d="M494 40h0"></path>
<path d="M570 40h0"></path>
<rect x="494" y="29" width="76" height="22" rx="10" ry="10"></rect>
<text x="532" y="44">"INDEX"</text>
</g>
<path d="M570 40h10"></path>
<path d="M580 40h10"></path>
<g class="non-terminal">
<path d="M590 40h0"></path>
<path d="M658 40h0"></path>
<rect x="590" y="29" width="68" height="22"></rect>
<a xlink:href="reuse_source.svg"><text x="624" y="44">source</text>
</a>
</g>
</g>
<path d="M764 40h20"></path>
<path d="M368 40a10 10 0 0 1 10 10v19a10 10 0 0 0 10 10"></path>
<g>
<path d="M388 79h0"></path>
<path d="M764 79h0"></path>
<g>
<path d="M388 79h0"></path>
<path d="M584 79h0"></path>
<path d="M388 79a10 10 0 0 0 10 -10v0a10 10 0 0 1 10 -10"></path>
<g>
<path d="M408 59h156"></path>
</g>
<path d="M564 59a10 10 0 0 1 10 10v0a10 10 0 0 0 10 10"></path>
<path d="M388 79h20"></path>
<g>
<path d="M408 79h0"></path>
<path d="M564 79h0"></path>
<g class="terminal">
<path d="M408 79h0"></path>
<path d="M476 79h0"></path>
<rect x="408" y="68" width="68" height="22" rx="10" ry="10"></rect>
<text x="442" y="83">"FROM"</text>
</g>
<path d="M476 79h10"></path>
<path d="M486 79h10"></path>
<g class="non-terminal">
<path d="M496 79h0"></path>
<path d="M564 79h0"></path>
<rect x="496" y="68" width="68" height="22"></rect>
<a xlink:href="reuse_source.svg"><text x="530" y="83">source</text>
</a>
</g>
</g>
<path d="M564 79h20"></path>
</g>
<g>
<path d="M584 79h0"></path>
<path d="M764 79h0"></path>
<path d="M584 79a10 10 0 0 0 10 -10v0a10 10 0 0 1 10 -10"></path>
<g>
<path d="M604 59h140"></path>
</g>
<path d="M744 59a10 10 0 0 1 10 10v0a10 10 0 0 0 10 10"></path>
<path d="M584 79h20"></path>
<g>
<path d="M604 79h0"></path>
<path d="M744 79h0"></path>
<g class="terminal">
<path d="M604 79h0"></path>
<path d="M656 79h0"></path>
<rect x="604" y="68" width="52" height="22" rx="10" ry="10"></rect>
<text x="630" y="83">"TO"</text>
</g>
<path d="M656 79h10"></path>
<path d="M666 79h10"></path>
<g class="non-terminal">
<path d="M676 79h0"></path>
<path d="M744 79h0"></path>
<rect x="676" y="68" width="68" height="22"></rect>
<a xlink:href="reuse_source.svg"><text x="710" y="83">source</text>
</a>
</g>
</g>
<path d="M744 79h20"></path>
</g>
</g>
<path d="M764 79a10 10 0 0 0 10 -10v-19a10 10 0 0 1 10 -10"></path>
<path d="M368 40a10 10 0 0 1 10 10v49a10 10 0 0 0 10 10"></path>
<g>
<path d="M388 109h114"></path>
<path d="M650 109h114"></path>
<g class="terminal">
<path d="M502 109h0"></path>
<path d="M578 109h0"></path>
<rect x="502" y="98" width="76" height="22" rx="10" ry="10"></rect>
<text x="540" y="113">"WHERE"</text>
</g>
<path d="M578 109h10"></path>
<path d="M588 109h10"></path>
<g class="non-terminal">
<path d="M598 109h0"></path>
<path d="M650 109h0"></path>
<rect x="598" y="98" width="52" height="22"></rect>
<a xlink:href="reuse_cond.svg"><text x="624" y="113">cond</text>
</a>
</g>
</g>
<path d="M764 109a10 10 0 0 0 10 -10v-49a10 10 0 0 1 10 -10"></path>
<path d="M368 40a10 10 0 0 1 10 10v79a10 10 0 0 0 10 10"></path>
<g>
<path d="M388 139h41"></path>
<path d="M723 139h41"></path>
<g>
<path d="M429 139h0"></path>
<path d="M617 139h0"></path>
<path d="M429 139h20"></path>
<g class="terminal">
<path d="M449 139h24"></path>
<path d="M573 139h24"></path>
<rect x="473" y="128" width="100" height="22" rx="10" ry="10"></rect>
<text x="523" y="143">"WITH KEY"</text>
</g>
<path d="M597 139h20"></path>
<path d="M429 139a10 10 0 0 1 10 10v10a10 10 0 0 0 10 10"></path>
<g class="terminal">
<path d="M449 169h0"></path>
<path d="M597 169h0"></path>
<rect x="449" y="158" width="148" height="22" rx="10" ry="10"></rect>
<text x="523" y="173">"WITH TABLE KEY"</text>
</g>
<path d="M597 169a10 10 0 0 0 10 -10v-10a10 10 0 0 1 10 -10"></path>
</g>
<path d="M617 139h10"></path>
<g>
<path d="M627 139h0"></path>
<path d="M723 139h0"></path>
<path d="M627 139h10"></path>
<g class="non-terminal">
<path d="M637 139h0"></path>
<path d="M713 139h0"></path>
<rect x="637" y="128" width="76" height="22"></rect>
<a xlink:href="reuse_compare.svg"><text x="675" y="143">compare</text>
</a>
</g>
<path d="M713 139h10"></path>
<path d="M637 139a10 10 0 0 0 -10 10v0a10 10 0 0 0 10 10"></path>
<g>
<path d="M637 159h76"></path>
</g>
<path d="M713 159a10 10 0 0 0 10 -10v0a10 10 0 0 0 -10 -10"></path>
</g>
</g>
<path d="M764 139a10 10 0 0 0 10 -10v-79a10 10 0 0 1 10 -10"></path>
</g>
</g>
<path d="M784 40h20"></path>
<path d="M144 40a10 10 0 0 1 10 10v148a10 10 0 0 0 10 10"></path>
<g>
<path d="M164 208h23"></path>
<path d="M761 208h23"></path>
<g class="terminal">
<path d="M187 208h0"></path>
<path d="M415 208h0"></path>
<rect x="187" y="197" width="228" height="22" rx="10" ry="10"></rect>
<text x="301" y="212">"ADJACENT DUPLICATES FROM"</text>
</g>
<path d="M415 208h10"></path>
<path d="M425 208h10"></path>
<g class="non-terminal">
<path d="M435 208h0"></path>
<path d="M503 208h0"></path>
<rect x="435" y="197" width="68" height="22"></rect>
<a xlink:href="reuse_target.svg"><text x="469" y="212">target</text>
</a>
</g>
<path d="M503 208h10"></path>
<g>
<path d="M513 208h0"></path>
<path d="M761 208h0"></path>
<path d="M513 208a10 10 0 0 0 10 -10v0a10 10 0 0 1 10 -10"></path>
<g>
<path d="M533 188h208"></path>
</g>
<path d="M741 188a10 10 0 0 1 10 10v0a10 10 0 0 0 10 10"></path>
<path d="M513 208h20"></path>
<g>
<path d="M533 208h0"></path>
<path d="M741 208h0"></path>
<g class="terminal">
<path d="M533 208h0"></path>
<path d="M641 208h0"></path>
<rect x="533" y="197" width="108" height="22" rx="10" ry="10"></rect>
<text x="587" y="212">"COMPARING"</text>
</g>
<path d="M641 208h10"></path>
<path d="M651 208h10"></path>
<g>
<path d="M661 208h0"></path>
<path d="M741 208h0"></path>
<path d="M661 208h10"></path>
<g class="non-terminal">
<path d="M671 208h0"></path>
<path d="M731 208h0"></path>
<rect x="671" y="197" width="60" height="22"></rect>
<a xlink:href="reuse_field.svg"><text x="701" y="212">field</text>
</a>
</g>
<path d="M731 208h10"></path>
<path d="M671 208a10 10 0 0 0 -10 10v0a10 10 0 0 0 10 10"></path>
<g>
<path d="M671 228h60"></path>
</g>
<path d="M731 228a10 10 0 0 0 10 -10v0a10 10 0 0 0 -10 -10"></path>
</g>
</g>
<path d="M741 208h20"></path>
</g>
</g>
<path d="M784 208a10 10 0 0 0 10 -10v-148a10 10 0 0 1 10 -10"></path>
</g>
</g>
<path d="M804 40h10"></path>
<path d="M 814 40 h 20 m -10 -10 v 20 m 10 -20 v 20"></path>
</g>
</svg>
