<svg xmlns="http://www.w3.org/2000/svg" xmlns:xlink="http://www.w3.org/1999/xlink" class="railroad-diagram" width="1042" height="218" viewBox="0 0 1042 218">
<defs>
<style type="text/css"><![CDATA[
path {
stroke-width: 3;
stroke: black;
fill: rgba(0,0,0,0);
}
text {
font: bold 14px monospace;
text-anchor: middle;
}
text.diagram-text {
font-size: 12px;
}
a {
fill: blue;
}
text.diagram-arrow {
font-size: 16px;
}
text.label {
text-anchor: start;
}
text.comment {
font: italic 12px monospace;
}
rect {
stroke-width: 3;
stroke: black;
fill: #BCBCBC;
}
path.diagram-text {
stroke-width: 3;
stroke: black;
fill: #BCBCBC;
cursor: help;
}
]]></style>
</defs>
<g transform="translate(.5 .5)">
<path d="M 20 30 v 20 m 10 -20 v 20 m -10 -10 h 20.5"></path>
<path d="M40 40h10"></path>
<g>
<path d="M50 40h0"></path>
<path d="M992 40h0"></path>
<g class="terminal">
<path d="M50 40h0"></path>
<path d="M134 40h0"></path>
<rect x="50" y="29" width="84" height="22" rx="10" ry="10"></rect>
<text x="92" y="44">"DELETE"</text>
</g>
<path d="M134 40h10"></path>
<g>
<path d="M144 40h0"></path>
<path d="M992 40h0"></path>
<path d="M144 40h20"></path>
<g>
<path d="M164 40h0"></path>
<path d="M972 40h0"></path>
<g>
<path d="M164 40h0"></path>
<path d="M280 40h0"></path>
<path d="M164 40a10 10 0 0 0 10 -10v0a10 10 0 0 1 10 -10"></path>
<g>
<path d="M184 20h76"></path>
</g>
<path d="M260 20a10 10 0 0 1 10 10v0a10 10 0 0 0 10 10"></path>
<path d="M164 40h20"></path>
<g class="terminal">
<path d="M184 40h0"></path>
<path d="M260 40h0"></path>
<rect x="184" y="29" width="76" height="22" rx="10" ry="10"></rect>
<text x="222" y="44">"TABLE"</text>
</g>
<path d="M260 40h20"></path>
</g>
<path d="M280 40h10"></path>
<g class="non-terminal">
<path d="M290 40h0"></path>
<path d="M358 40h0"></path>
<rect x="290" y="29" width="68" height="22"></rect>
<a xlink:href="reuse_target.svg"><text x="324" y="44">Target</text>
</a>
</g>
<path d="M358 40h10"></path>
<g>
<path d="M368 40h0"></path>
<path d="M784 40h0"></path>
<path d="M368 40h20"></path>
<g>
<path d="M388 40h0"></path>
<path d="M552 40h212"></path>
<g class="terminal">
<path d="M388 40h0"></path>
<path d="M464 40h0"></path>
<rect x="388" y="29" width="76" height="22" rx="10" ry="10"></rect>
<text x="426" y="44">"INDEX"</text>
</g>
<path d="M464 40h10"></path>
<path d="M474 40h10"></path>
<g class="non-terminal">
<path d="M484 40h0"></path>
<path d="M552 40h0"></path>
<rect x="484" y="29" width="68" height="22"></rect>
<a xlink:href="reuse_source.svg"><text x="518" y="44">Source</text>
</a>
</g>
</g>
<path d="M764 40h20"></path>
<path d="M368 40a10 10 0 0 1 10 10v19a10 10 0 0 0 10 10"></path>
<g>
<path d="M388 79h0"></path>
<path d="M764 79h0"></path>
<g>
<path d="M388 79h0"></path>
<path d="M584 79h0"></path>
<path d="M388 79a10 10 0 0 0 10 -10v0a10 10 0 0 1 10 -10"></path>
<g>
<path d="M408 59h156"></path>
</g>
<path d="M564 59a10 10 0 0 1 10 10v0a10 10 0 0 0 10 10"></path>
<path d="M388 79h20"></path>
<g>
<path d="M408 79h0"></path>
<path d="M564 79h0"></path>
<g class="terminal">
<path d="M408 79h0"></path>
<path d="M476 79h0"></path>
<rect x="408" y="68" width="68" height="22" rx="10" ry="10"></rect>
<text x="442" y="83">"FROM"</text>
</g>
<path d="M476 79h10"></path>
<path d="M486 79h10"></path>
<g class="non-terminal">
<path d="M496 79h0"></path>
<path d="M564 79h0"></path>
<rect x="496" y="68" width="68" height="22"></rect>
<a xlink:href="reuse_source.svg"><text x="530" y="83">Source</text>
</a>
</g>
</g>
<path d="M564 79h20"></path>
</g>
<g>
<path d="M584 79h0"></path>
<path d="M764 79h0"></path>
<path d="M584 79a10 10 0 0 0 10 -10v0a10 10 0 0 1 10 -10"></path>
<g>
<path d="M604 59h140"></path>
</g>
<path d="M744 59a10 10 0 0 1 10 10v0a10 10 0 0 0 10 10"></path>
<path d="M584 79h20"></path>
<g>
<path d="M604 79h0"></path>
<path d="M744 79h0"></path>
<g class="terminal">
<path d="M604 79h0"></path>
<path d="M656 79h0"></path>
<rect x="604" y="68" width="52" height="22" rx="10" ry="10"></rect>
<text x="630" y="83">"TO"</text>
</g>
<path d="M656 79h10"></path>
<path d="M666 79h10"></path>
<g class="non-terminal">
<path d="M676 79h0"></path>
<path d="M744 79h0"></path>
<rect x="676" y="68" width="68" height="22"></rect>
<a xlink:href="reuse_source.svg"><text x="710" y="83">Source</text>
</a>
</g>
</g>
<path d="M744 79h20"></path>
</g>
</g>
<path d="M764 79a10 10 0 0 0 10 -10v-19a10 10 0 0 1 10 -10"></path>
<path d="M368 40a10 10 0 0 1 10 10v49a10 10 0 0 0 10 10"></path>
<g>
<path d="M388 109h0"></path>
<path d="M682 109h82"></path>
<g>
<path d="M388 109h0"></path>
<path d="M576 109h0"></path>
<path d="M388 109h20"></path>
<g class="terminal">
<path d="M408 109h0"></path>
<path d="M508 109h48"></path>
<rect x="408" y="98" width="100" height="22" rx="10" ry="10"></rect>
<text x="458" y="113">"WITH KEY"</text>
</g>
<path d="M556 109h20"></path>
<path d="M388 109a10 10 0 0 1 10 10v10a10 10 0 0 0 10 10"></path>
<g class="terminal">
<path d="M408 139h0"></path>
<path d="M556 139h0"></path>
<rect x="408" y="128" width="148" height="22" rx="10" ry="10"></rect>
<text x="482" y="143">"WITH TABLE KEY"</text>
</g>
<path d="M556 139a10 10 0 0 0 10 -10v-10a10 10 0 0 1 10 -10"></path>
</g>
<path d="M576 109h10"></path>
<g>
<path d="M586 109h0"></path>
<path d="M682 109h0"></path>
<path d="M586 109h10"></path>
<g class="non-terminal">
<path d="M596 109h0"></path>
<path d="M672 109h0"></path>
<rect x="596" y="98" width="76" height="22"></rect>
<a xlink:href="reuse_compare.svg"><text x="634" y="113">Compare</text>
</a>
</g>
<path d="M672 109h10"></path>
<path d="M596 109a10 10 0 0 0 -10 10v0a10 10 0 0 0 10 10"></path>
<g>
<path d="M596 129h76"></path>
</g>
<path d="M672 129a10 10 0 0 0 10 -10v0a10 10 0 0 0 -10 -10"></path>
</g>
</g>
<path d="M764 109a10 10 0 0 0 10 -10v-49a10 10 0 0 1 10 -10"></path>
</g>
<g>
<path d="M784 40h0"></path>
<path d="M972 40h0"></path>
<path d="M784 40a10 10 0 0 0 10 -10v0a10 10 0 0 1 10 -10"></path>
<g>
<path d="M804 20h148"></path>
</g>
<path d="M952 20a10 10 0 0 1 10 10v0a10 10 0 0 0 10 10"></path>
<path d="M784 40h20"></path>
<g>
<path d="M804 40h0"></path>
<path d="M952 40h0"></path>
<g class="terminal">
<path d="M804 40h0"></path>
<path d="M880 40h0"></path>
<rect x="804" y="29" width="76" height="22" rx="10" ry="10"></rect>
<text x="842" y="44">"WHERE"</text>
</g>
<path d="M880 40h10"></path>
<path d="M890 40h10"></path>
<g class="non-terminal">
<path d="M900 40h0"></path>
<path d="M952 40h0"></path>
<rect x="900" y="29" width="52" height="22"></rect>
<a xlink:href="reuse_cond.svg"><text x="926" y="44">Cond</text>
</a>
</g>
</g>
<path d="M952 40h20"></path>
</g>
</g>
<path d="M972 40h20"></path>
<path d="M144 40a10 10 0 0 1 10 10v118a10 10 0 0 0 10 10"></path>
<g>
<path d="M164 178h0"></path>
<path d="M966 178h6"></path>
<g class="terminal">
<path d="M164 178h0"></path>
<path d="M392 178h0"></path>
<rect x="164" y="167" width="228" height="22" rx="10" ry="10"></rect>
<text x="278" y="182">"ADJACENT DUPLICATES FROM"</text>
</g>
<path d="M392 178h10"></path>
<path d="M402 178h10"></path>
<g class="non-terminal">
<path d="M412 178h0"></path>
<path d="M480 178h0"></path>
<rect x="412" y="167" width="68" height="22"></rect>
<a xlink:href="reuse_target.svg"><text x="446" y="182">Target</text>
</a>
</g>
<path d="M480 178h10"></path>
<g>
<path d="M490 178h0"></path>
<path d="M738 178h0"></path>
<path d="M490 178a10 10 0 0 0 10 -10v0a10 10 0 0 1 10 -10"></path>
<g>
<path d="M510 158h208"></path>
</g>
<path d="M718 158a10 10 0 0 1 10 10v0a10 10 0 0 0 10 10"></path>
<path d="M490 178h20"></path>
<g>
<path d="M510 178h0"></path>
<path d="M718 178h0"></path>
<g class="terminal">
<path d="M510 178h0"></path>
<path d="M618 178h0"></path>
<rect x="510" y="167" width="108" height="22" rx="10" ry="10"></rect>
<text x="564" y="182">"COMPARING"</text>
</g>
<path d="M618 178h10"></path>
<path d="M628 178h10"></path>
<g>
<path d="M638 178h0"></path>
<path d="M718 178h0"></path>
<path d="M638 178h10"></path>
<g class="non-terminal">
<path d="M648 178h0"></path>
<path d="M708 178h0"></path>
<rect x="648" y="167" width="60" height="22"></rect>
<a xlink:href="reuse_field.svg"><text x="678" y="182">Field</text>
</a>
</g>
<path d="M708 178h10"></path>
<path d="M648 178a10 10 0 0 0 -10 10v0a10 10 0 0 0 10 10"></path>
<g>
<path d="M648 198h60"></path>
</g>
<path d="M708 198a10 10 0 0 0 10 -10v0a10 10 0 0 0 -10 -10"></path>
</g>
</g>
<path d="M718 178h20"></path>
</g>
<g>
<path d="M738 178h0"></path>
<path d="M966 178h0"></path>
<path d="M738 178a10 10 0 0 0 10 -10v0a10 10 0 0 1 10 -10"></path>
<g>
<path d="M758 158h188"></path>
</g>
<path d="M946 158a10 10 0 0 1 10 10v0a10 10 0 0 0 10 10"></path>
<path d="M738 178h20"></path>
<g>
<path d="M758 178h0"></path>
<path d="M946 178h0"></path>
<g class="terminal">
<path d="M758 178h0"></path>
<path d="M866 178h0"></path>
<rect x="758" y="167" width="108" height="22" rx="10" ry="10"></rect>
<text x="812" y="182">"USING KEY"</text>
</g>
<path d="M866 178h10"></path>
<path d="M876 178h10"></path>
<g class="non-terminal">
<path d="M886 178h0"></path>
<path d="M946 178h0"></path>
<rect x="886" y="167" width="60" height="22"></rect>
<a xlink:href="reuse_field.svg"><text x="916" y="182">Field</text>
</a>
</g>
</g>
<path d="M946 178h20"></path>
</g>
</g>
<path d="M972 178a10 10 0 0 0 10 -10v-118a10 10 0 0 1 10 -10"></path>
</g>
</g>
<path d="M992 40h10"></path>
<path d="M 1002 40 h 20 m -10 -10 v 20 m 10 -20 v 20"></path>
</g>
</svg>
