<svg xmlns="http://www.w3.org/2000/svg" xmlns:xlink="http://www.w3.org/1999/xlink" class="railroad-diagram" width="848" height="62" viewBox="0 0 848 62">
<defs>
<style type="text/css"><![CDATA[
path {
stroke-width: 3;
stroke: black;
fill: rgba(0,0,0,0);
}
text {
font: bold 14px monospace;
text-anchor: middle;
}
text.diagram-text {
font-size: 12px;
}
a {
fill: blue;
}
text.diagram-arrow {
font-size: 16px;
}
text.label {
text-anchor: start;
}
text.comment {
font: italic 12px monospace;
}
rect {
stroke-width: 3;
stroke: black;
fill: #BCBCBC;
}
path.diagram-text {
stroke-width: 3;
stroke: black;
fill: #BCBCBC;
cursor: help;
}
]]></style>
</defs>
<g transform="translate(.5 .5)">
<path d="M 20 21 v 20 m 10 -20 v 20 m -10 -10 h 20.5"></path>
<path d="M40 31h10"></path>
<g>
<path d="M50 31h0"></path>
<path d="M798 31h0"></path>
<g class="terminal">
<path d="M50 31h0"></path>
<path d="M246 31h0"></path>
<rect x="50" y="20" width="196" height="22" rx="10" ry="10"></rect>
<text x="148" y="35">"DELETE FROM DATABASE"</text>
</g>
<path d="M246 31h10"></path>
<path d="M256 31h10"></path>
<g class="non-terminal">
<path d="M266 31h0"></path>
<path d="M366 31h0"></path>
<rect x="266" y="20" width="100" height="22"></rect>
<a xlink:href="reuse_simplename.svg"><text x="316" y="35">SimpleName</text>
</a>
</g>
<path d="M366 31h10"></path>
<path d="M376 31h10"></path>
<g class="terminal">
<path d="M386 31h0"></path>
<path d="M438 31h0"></path>
<rect x="386" y="20" width="52" height="22" rx="10" ry="10"></rect>
<text x="412" y="35">!"("</text>
</g>
<path d="M438 31h10"></path>
<path d="M448 31h10"></path>
<g class="non-terminal">
<path d="M458 31h0"></path>
<path d="M558 31h0"></path>
<rect x="458" y="20" width="100" height="22"></rect>
<a xlink:href="reuse_simplename.svg"><text x="508" y="35">SimpleName</text>
</a>
</g>
<path d="M558 31h10"></path>
<path d="M568 31h10"></path>
<g class="terminal">
<path d="M578 31h0"></path>
<path d="M638 31h0"></path>
<rect x="578" y="20" width="60" height="22" rx="10" ry="10"></rect>
<text x="608" y="35">!") "</text>
</g>
<path d="M638 31h10"></path>
<path d="M648 31h10"></path>
<g class="terminal">
<path d="M658 31h0"></path>
<path d="M710 31h0"></path>
<rect x="658" y="20" width="52" height="22" rx="10" ry="10"></rect>
<text x="684" y="35">"ID"</text>
</g>
<path d="M710 31h10"></path>
<path d="M720 31h10"></path>
<g class="non-terminal">
<path d="M730 31h0"></path>
<path d="M798 31h0"></path>
<rect x="730" y="20" width="68" height="22"></rect>
<a xlink:href="reuse_source.svg"><text x="764" y="35">Source</text>
</a>
</g>
</g>
<path d="M798 31h10"></path>
<path d="M 808 31 h 20 m -10 -10 v 20 m 10 -20 v 20"></path>
</g>
</svg>
