<svg xmlns="http://www.w3.org/2000/svg" xmlns:xlink="http://www.w3.org/1999/xlink" class="railroad-diagram" width="1206" height="295" viewBox="0 0 1206 295">
<defs>
<style type="text/css"><![CDATA[
path {
stroke-width: 3;
stroke: black;
fill: rgba(0,0,0,0);
}
text {
font: bold 14px monospace;
text-anchor: middle;
}
text.diagram-text {
font-size: 12px;
}
a {
fill: blue;
}
text.diagram-arrow {
font-size: 16px;
}
text.label {
text-anchor: start;
}
text.comment {
font: italic 12px monospace;
}
rect {
stroke-width: 3;
stroke: black;
fill: #BCBCBC;
}
path.diagram-text {
stroke-width: 3;
stroke: black;
fill: #BCBCBC;
cursor: help;
}
]]></style>
</defs>
<g transform="translate(.5 .5)">
<path d="M 20 30 v 20 m 10 -20 v 20 m -10 -10 h 20.5"></path>
<path d="M40 40h10"></path>
<g>
<path d="M50 40h0"></path>
<path d="M1156 40h0"></path>
<g class="terminal">
<path d="M50 40h0"></path>
<path d="M134 40h0"></path>
<rect x="50" y="29" width="84" height="22" rx="10" ry="10"></rect>
<text x="92" y="44">"DELETE"</text>
</g>
<path d="M134 40h10"></path>
<g>
<path d="M144 40h0"></path>
<path d="M1156 40h0"></path>
<path d="M144 40h20"></path>
<g>
<path d="M164 40h0"></path>
<path d="M1136 40h0"></path>
<g>
<path d="M164 40h0"></path>
<path d="M280 40h0"></path>
<path d="M164 40a10 10 0 0 0 10 -10v0a10 10 0 0 1 10 -10"></path>
<g>
<path d="M184 20h76"></path>
</g>
<path d="M260 20a10 10 0 0 1 10 10v0a10 10 0 0 0 10 10"></path>
<path d="M164 40h20"></path>
<g class="terminal">
<path d="M184 40h0"></path>
<path d="M260 40h0"></path>
<rect x="184" y="29" width="76" height="22" rx="10" ry="10"></rect>
<text x="222" y="44">"TABLE"</text>
</g>
<path d="M260 40h20"></path>
</g>
<path d="M280 40h10"></path>
<g class="non-terminal">
<path d="M290 40h0"></path>
<path d="M358 40h0"></path>
<rect x="290" y="29" width="68" height="22"></rect>
<a xlink:href="reuse_target.svg"><text x="324" y="44">Target</text>
</a>
</g>
<path d="M358 40h10"></path>
<g>
<path d="M368 40h0"></path>
<path d="M948 40h0"></path>
<path d="M368 40h20"></path>
<g>
<path d="M388 40h0"></path>
<path d="M686 40h242"></path>
<path d="M418 40h10"></path>
<g>
<path d="M428 40h0"></path>
<path d="M592 40h64"></path>
<g class="terminal">
<path d="M428 40h0"></path>
<path d="M504 40h0"></path>
<rect x="428" y="29" width="76" height="22" rx="10" ry="10"></rect>
<text x="466" y="44">"INDEX"</text>
</g>
<path d="M504 40h10"></path>
<path d="M514 40h10"></path>
<g class="non-terminal">
<path d="M524 40h0"></path>
<path d="M592 40h0"></path>
<rect x="524" y="29" width="68" height="22"></rect>
<a xlink:href="reuse_source.svg"><text x="558" y="44">Source</text>
</a>
</g>
</g>
<path d="M656 40h10"></path>
<path d="M418 40v20a10 10 0 0 0 10 10"></path>
<g>
<path d="M428 70h0"></path>
<path d="M656 70h0"></path>
<g class="terminal">
<path d="M428 70h0"></path>
<path d="M536 70h0"></path>
<rect x="428" y="59" width="108" height="22" rx="10" ry="10"></rect>
<text x="482" y="74">"USING KEY"</text>
</g>
<path d="M536 70h10"></path>
<path d="M546 70h10"></path>
<g class="non-terminal">
<path d="M556 70h0"></path>
<path d="M656 70h0"></path>
<rect x="556" y="59" width="100" height="22"></rect>
<a xlink:href="reuse_simplename.svg"><text x="606" y="74">SimpleName</text>
</a>
</g>
</g>
<path d="M656 70a10 10 0 0 0 10 -10v-20"></path>
<g class="diagram-text">
<title>take one or more branches, once each, in any order</title>
<path d="M 418 30 h -26 a 4 4 0 0 0 -4 4 v 12 a 4 4 0 0 0 4 4 h 26 z" class="diagram-text"></path>
<text x="403" y="44" class="diagram-text">1+</text>
<path d="M 666 30 h 16 a 4 4 0 0 1 4 4 v 12 a 4 4 0 0 1 -4 4 h -16 z" class="diagram-text"></path>
<path d="M 673 38 a 4 4 0 1 0 6 -1 m 2.75 -1 h -4 v 4 m 0 -3 h 2" style="stroke-width: 1.75"></path>
</g>
</g>
<path d="M928 40h20"></path>
<path d="M368 40a10 10 0 0 1 10 10v49a10 10 0 0 0 10 10"></path>
<g>
<path d="M388 109h0"></path>
<path d="M764 109h164"></path>
<g>
<path d="M388 109h0"></path>
<path d="M584 109h0"></path>
<path d="M388 109a10 10 0 0 0 10 -10v0a10 10 0 0 1 10 -10"></path>
<g>
<path d="M408 89h156"></path>
</g>
<path d="M564 89a10 10 0 0 1 10 10v0a10 10 0 0 0 10 10"></path>
<path d="M388 109h20"></path>
<g>
<path d="M408 109h0"></path>
<path d="M564 109h0"></path>
<g class="terminal">
<path d="M408 109h0"></path>
<path d="M476 109h0"></path>
<rect x="408" y="98" width="68" height="22" rx="10" ry="10"></rect>
<text x="442" y="113">"FROM"</text>
</g>
<path d="M476 109h10"></path>
<path d="M486 109h10"></path>
<g class="non-terminal">
<path d="M496 109h0"></path>
<path d="M564 109h0"></path>
<rect x="496" y="98" width="68" height="22"></rect>
<a xlink:href="reuse_source.svg"><text x="530" y="113">Source</text>
</a>
</g>
</g>
<path d="M564 109h20"></path>
</g>
<g>
<path d="M584 109h0"></path>
<path d="M764 109h0"></path>
<path d="M584 109a10 10 0 0 0 10 -10v0a10 10 0 0 1 10 -10"></path>
<g>
<path d="M604 89h140"></path>
</g>
<path d="M744 89a10 10 0 0 1 10 10v0a10 10 0 0 0 10 10"></path>
<path d="M584 109h20"></path>
<g>
<path d="M604 109h0"></path>
<path d="M744 109h0"></path>
<g class="terminal">
<path d="M604 109h0"></path>
<path d="M656 109h0"></path>
<rect x="604" y="98" width="52" height="22" rx="10" ry="10"></rect>
<text x="630" y="113">"TO"</text>
</g>
<path d="M656 109h10"></path>
<path d="M666 109h10"></path>
<g class="non-terminal">
<path d="M676 109h0"></path>
<path d="M744 109h0"></path>
<rect x="676" y="98" width="68" height="22"></rect>
<a xlink:href="reuse_source.svg"><text x="710" y="113">Source</text>
</a>
</g>
</g>
<path d="M744 109h20"></path>
</g>
</g>
<path d="M928 109a10 10 0 0 0 10 -10v-49a10 10 0 0 1 10 -10"></path>
<path d="M368 40a10 10 0 0 1 10 10v88a10 10 0 0 0 10 10"></path>
<g>
<path d="M388 148h0"></path>
<path d="M928 148h0"></path>
<g class="terminal">
<path d="M388 148h0"></path>
<path d="M536 148h0"></path>
<rect x="388" y="137" width="148" height="22" rx="10" ry="10"></rect>
<text x="462" y="152">"WITH TABLE KEY"</text>
</g>
<path d="M536 148h10"></path>
<g>
<path d="M546 148h0"></path>
<path d="M822 148h0"></path>
<path d="M546 148a10 10 0 0 0 10 -10v0a10 10 0 0 1 10 -10"></path>
<g>
<path d="M566 128h236"></path>
</g>
<path d="M802 128a10 10 0 0 1 10 10v0a10 10 0 0 0 10 10"></path>
<path d="M546 148h20"></path>
<g>
<path d="M566 148h0"></path>
<path d="M802 148h0"></path>
<g class="non-terminal">
<path d="M566 148h0"></path>
<path d="M666 148h0"></path>
<rect x="566" y="137" width="100" height="22"></rect>
<a xlink:href="reuse_simplename.svg"><text x="616" y="152">SimpleName</text>
</a>
</g>
<path d="M666 148h10"></path>
<path d="M676 148h10"></path>
<g class="terminal">
<path d="M686 148h0"></path>
<path d="M802 148h0"></path>
<rect x="686" y="137" width="116" height="22" rx="10" ry="10"></rect>
<text x="744" y="152">"COMPONENTS"</text>
</g>
</g>
<path d="M802 148h20"></path>
</g>
<path d="M822 148h10"></path>
<g>
<path d="M832 148h0"></path>
<path d="M928 148h0"></path>
<path d="M832 148h10"></path>
<g class="non-terminal">
<path d="M842 148h0"></path>
<path d="M918 148h0"></path>
<rect x="842" y="137" width="76" height="22"></rect>
<a xlink:href="reuse_compare.svg"><text x="880" y="152">Compare</text>
</a>
</g>
<path d="M918 148h10"></path>
<path d="M842 148a10 10 0 0 0 -10 10v0a10 10 0 0 0 10 10"></path>
<g>
<path d="M842 168h76"></path>
</g>
<path d="M918 168a10 10 0 0 0 10 -10v0a10 10 0 0 0 -10 -10"></path>
</g>
</g>
<path d="M928 148a10 10 0 0 0 10 -10v-88a10 10 0 0 1 10 -10"></path>
</g>
<g>
<path d="M948 40h0"></path>
<path d="M1136 40h0"></path>
<path d="M948 40a10 10 0 0 0 10 -10v0a10 10 0 0 1 10 -10"></path>
<g>
<path d="M968 20h148"></path>
</g>
<path d="M1116 20a10 10 0 0 1 10 10v0a10 10 0 0 0 10 10"></path>
<path d="M948 40h20"></path>
<g>
<path d="M968 40h0"></path>
<path d="M1116 40h0"></path>
<g class="terminal">
<path d="M968 40h0"></path>
<path d="M1044 40h0"></path>
<rect x="968" y="29" width="76" height="22" rx="10" ry="10"></rect>
<text x="1006" y="44">"WHERE"</text>
</g>
<path d="M1044 40h10"></path>
<path d="M1054 40h10"></path>
<g class="non-terminal">
<path d="M1064 40h0"></path>
<path d="M1116 40h0"></path>
<rect x="1064" y="29" width="52" height="22"></rect>
<a xlink:href="reuse_cond.svg"><text x="1090" y="44">Cond</text>
</a>
</g>
</g>
<path d="M1116 40h20"></path>
</g>
</g>
<path d="M1136 40h20"></path>
<path d="M144 40a10 10 0 0 1 10 10v136a10 10 0 0 0 10 10"></path>
<g>
<path d="M164 196h0"></path>
<path d="M1030 196h106"></path>
<g class="terminal">
<path d="M164 196h0"></path>
<path d="M392 196h0"></path>
<rect x="164" y="185" width="228" height="22" rx="10" ry="10"></rect>
<text x="278" y="200">"ADJACENT DUPLICATES FROM"</text>
</g>
<path d="M392 196h10"></path>
<path d="M402 196h10"></path>
<g class="non-terminal">
<path d="M412 196h0"></path>
<path d="M480 196h0"></path>
<rect x="412" y="185" width="68" height="22"></rect>
<a xlink:href="reuse_target.svg"><text x="446" y="200">Target</text>
</a>
</g>
<path d="M480 196h10"></path>
<g>
<path d="M490 196h0"></path>
<path d="M802 196h0"></path>
<path d="M490 196a10 10 0 0 0 10 -10v0a10 10 0 0 1 10 -10"></path>
<g>
<path d="M510 176h272"></path>
</g>
<path d="M782 176a10 10 0 0 1 10 10v0a10 10 0 0 0 10 10"></path>
<path d="M490 196h20"></path>
<g>
<path d="M510 196h0"></path>
<path d="M782 196h0"></path>
<g class="terminal">
<path d="M510 196h0"></path>
<path d="M618 196h0"></path>
<rect x="510" y="185" width="108" height="22" rx="10" ry="10"></rect>
<text x="564" y="200">"COMPARING"</text>
</g>
<path d="M618 196h10"></path>
<path d="M628 196h10"></path>
<g>
<path d="M638 196h0"></path>
<path d="M782 196h0"></path>
<path d="M638 196h10"></path>
<g>
<path d="M648 196h0"></path>
<path d="M772 196h0"></path>
<path d="M648 196h20"></path>
<g class="non-terminal">
<path d="M668 196h0"></path>
<path d="M752 196h0"></path>
<rect x="668" y="185" width="84" height="22"></rect>
<a xlink:href="reuse_fieldsub.svg"><text x="710" y="200">FieldSub</text>
</a>
</g>
<path d="M752 196h20"></path>
<path d="M648 196a10 10 0 0 1 10 10v10a10 10 0 0 0 10 10"></path>
<g class="non-terminal">
<path d="M668 226h0"></path>
<path d="M744 226h8"></path>
<rect x="668" y="215" width="76" height="22"></rect>
<a xlink:href="reuse_dynamic.svg"><text x="706" y="230">Dynamic</text>
</a>
</g>
<path d="M752 226a10 10 0 0 0 10 -10v-10a10 10 0 0 1 10 -10"></path>
</g>
<path d="M772 196h10"></path>
<path d="M648 196a10 10 0 0 0 -10 10v29a10 10 0 0 0 10 10"></path>
<g>
<path d="M648 245h124"></path>
</g>
<path d="M772 245a10 10 0 0 0 10 -10v-29a10 10 0 0 0 -10 -10"></path>
</g>
</g>
<path d="M782 196h20"></path>
</g>
<g>
<path d="M802 196h0"></path>
<path d="M1030 196h0"></path>
<path d="M802 196a10 10 0 0 0 10 -10v0a10 10 0 0 1 10 -10"></path>
<g>
<path d="M822 176h188"></path>
</g>
<path d="M1010 176a10 10 0 0 1 10 10v0a10 10 0 0 0 10 10"></path>
<path d="M802 196h20"></path>
<g>
<path d="M822 196h0"></path>
<path d="M1010 196h0"></path>
<g class="terminal">
<path d="M822 196h0"></path>
<path d="M930 196h0"></path>
<rect x="822" y="185" width="108" height="22" rx="10" ry="10"></rect>
<text x="876" y="200">"USING KEY"</text>
</g>
<path d="M930 196h10"></path>
<path d="M940 196h10"></path>
<g class="non-terminal">
<path d="M950 196h0"></path>
<path d="M1010 196h0"></path>
<rect x="950" y="185" width="60" height="22"></rect>
<a xlink:href="reuse_field.svg"><text x="980" y="200">Field</text>
</a>
</g>
</g>
<path d="M1010 196h20"></path>
</g>
</g>
<path d="M1136 196a10 10 0 0 0 10 -10v-136a10 10 0 0 1 10 -10"></path>
<path d="M144 40a10 10 0 0 1 10 10v204a10 10 0 0 0 10 10"></path>
<g>
<path d="M164 264h0"></path>
<path d="M440 264h696"></path>
<g class="non-terminal">
<path d="M164 264h0"></path>
<path d="M272 264h0"></path>
<rect x="164" y="253" width="108" height="22"></rect>
<a xlink:href="reuse_fieldsymbol.svg"><text x="218" y="268">FieldSymbol</text>
</a>
</g>
<path d="M272 264h10"></path>
<path d="M282 264h10"></path>
<g>
<path d="M292 264h0"></path>
<path d="M440 264h0"></path>
<g class="terminal">
<path d="M292 264h0"></path>
<path d="M368 264h0"></path>
<rect x="292" y="253" width="76" height="22" rx="10" ry="10"></rect>
<text x="330" y="268">"WHERE"</text>
</g>
<path d="M368 264h10"></path>
<path d="M378 264h10"></path>
<g class="non-terminal">
<path d="M388 264h0"></path>
<path d="M440 264h0"></path>
<rect x="388" y="253" width="52" height="22"></rect>
<a xlink:href="reuse_cond.svg"><text x="414" y="268">Cond</text>
</a>
</g>
</g>
</g>
<path d="M1136 264a10 10 0 0 0 10 -10v-204a10 10 0 0 1 10 -10"></path>
</g>
</g>
<path d="M1156 40h10"></path>
<path d="M 1166 40 h 20 m -10 -10 v 20 m 10 -20 v 20"></path>
</g>
</svg>
