<svg xmlns="http://www.w3.org/2000/svg" xmlns:xlink="http://www.w3.org/1999/xlink" class="railroad-diagram" width="582" height="71" viewBox="0 0 582 71">
<defs>
<style type="text/css"><![CDATA[
path {
stroke-width: 3;
stroke: black;
fill: rgba(0,0,0,0);
}
text {
font: bold 14px monospace;
text-anchor: middle;
}
text.diagram-text {
font-size: 12px;
}
a {
fill: blue;
}
text.diagram-arrow {
font-size: 16px;
}
text.label {
text-anchor: start;
}
text.comment {
font: italic 12px monospace;
}
rect {
stroke-width: 3;
stroke: black;
fill: #BCBCBC;
}
path.diagram-text {
stroke-width: 3;
stroke: black;
fill: #BCBCBC;
cursor: help;
}
]]></style>
</defs>
<g transform="translate(.5 .5)">
<path d="M 20 30 v 20 m 10 -20 v 20 m -10 -10 h 20.5"></path>
<path d="M40 40h10"></path>
<g>
<path d="M50 40h0"></path>
<path d="M532 40h0"></path>
<g class="terminal">
<path d="M50 40h0"></path>
<path d="M206 40h0"></path>
<rect x="50" y="29" width="156" height="22" rx="10" ry="10"></rect>
<text x="128" y="44">"DELETE TEXTPOOL"</text>
</g>
<path d="M206 40h10"></path>
<path d="M216 40h10"></path>
<g class="non-terminal">
<path d="M226 40h0"></path>
<path d="M294 40h0"></path>
<rect x="226" y="29" width="68" height="22"></rect>
<a xlink:href="reuse_source.svg"><text x="260" y="44">Source</text>
</a>
</g>
<path d="M294 40h10"></path>
<g>
<path d="M304 40h0"></path>
<path d="M532 40h0"></path>
<path d="M304 40a10 10 0 0 0 10 -10v0a10 10 0 0 1 10 -10"></path>
<g>
<path d="M324 20h188"></path>
</g>
<path d="M512 20a10 10 0 0 1 10 10v0a10 10 0 0 0 10 10"></path>
<path d="M304 40h20"></path>
<g>
<path d="M324 40h0"></path>
<path d="M512 40h0"></path>
<g class="terminal">
<path d="M324 40h0"></path>
<path d="M424 40h0"></path>
<rect x="324" y="29" width="100" height="22" rx="10" ry="10"></rect>
<text x="374" y="44">"LANGUAGE"</text>
</g>
<path d="M424 40h10"></path>
<path d="M434 40h10"></path>
<g class="non-terminal">
<path d="M444 40h0"></path>
<path d="M512 40h0"></path>
<rect x="444" y="29" width="68" height="22"></rect>
<a xlink:href="reuse_source.svg"><text x="478" y="44">Source</text>
</a>
</g>
</g>
<path d="M512 40h20"></path>
</g>
</g>
<path d="M532 40h10"></path>
<path d="M 542 40 h 20 m -10 -10 v 20 m 10 -20 v 20"></path>
</g>
</svg>
