<svg xmlns="http://www.w3.org/2000/svg" xmlns:xlink="http://www.w3.org/1999/xlink" class="railroad-diagram" width="640" height="101" viewBox="0 0 640 101">
<defs>
<style type="text/css"><![CDATA[
path {
stroke-width: 3;
stroke: black;
fill: rgba(0,0,0,0);
}
text {
font: bold 14px monospace;
text-anchor: middle;
}
text.diagram-text {
font-size: 12px;
}
a {
fill: blue;
}
text.diagram-arrow {
font-size: 16px;
}
text.label {
text-anchor: start;
}
text.comment {
font: italic 12px monospace;
}
rect {
stroke-width: 3;
stroke: black;
fill: #BCBCBC;
}
path.diagram-text {
stroke-width: 3;
stroke: black;
fill: #BCBCBC;
cursor: help;
}
]]></style>
</defs>
<g transform="translate(.5 .5)">
<path d="M 20 30 v 20 m 10 -20 v 20 m -10 -10 h 20.5"></path>
<path d="M40 40h10"></path>
<g>
<path d="M50 40h0"></path>
<path d="M590 40h0"></path>
<g class="terminal">
<path d="M50 40h0"></path>
<path d="M134 40h0"></path>
<rect x="50" y="29" width="84" height="22" rx="10" ry="10"></rect>
<text x="92" y="44">"DELETE"</text>
</g>
<path d="M134 40h10"></path>
<path d="M144 40h10"></path>
<g class="terminal">
<path d="M154 40h0"></path>
<path d="M222 40h0"></path>
<rect x="154" y="29" width="68" height="22" rx="10" ry="10"></rect>
<text x="188" y="44">"FROM"</text>
</g>
<path d="M222 40h10"></path>
<g>
<path d="M232 40h0"></path>
<path d="M348 40h0"></path>
<path d="M232 40h20"></path>
<g class="non-terminal">
<path d="M252 40h0"></path>
<path d="M328 40h0"></path>
<rect x="252" y="29" width="76" height="22"></rect>
<a xlink:href="reuse_dynamic.svg"><text x="290" y="44">dynamic</text>
</a>
</g>
<path d="M328 40h20"></path>
<path d="M232 40a10 10 0 0 1 10 10v10a10 10 0 0 0 10 10"></path>
<g class="non-terminal">
<path d="M252 70h0"></path>
<path d="M312 70h16"></path>
<rect x="252" y="59" width="60" height="22"></rect>
<a xlink:href="reuse_field.svg"><text x="282" y="74">field</text>
</a>
</g>
<path d="M328 70a10 10 0 0 0 10 -10v-10a10 10 0 0 1 10 -10"></path>
</g>
<g>
<path d="M348 40h0"></path>
<path d="M590 40h0"></path>
<path d="M348 40a10 10 0 0 0 10 -10v0a10 10 0 0 1 10 -10"></path>
<g>
<path d="M368 20h202"></path>
</g>
<path d="M570 20a10 10 0 0 1 10 10v0a10 10 0 0 0 10 10"></path>
<path d="M348 40h20"></path>
<g>
<path d="M368 40h0"></path>
<path d="M570 40h0"></path>
<g class="terminal">
<path d="M368 40h0"></path>
<path d="M444 40h0"></path>
<rect x="368" y="29" width="76" height="22" rx="10" ry="10"></rect>
<text x="406" y="44">"WHERE"</text>
</g>
<path d="M444 40h10"></path>
<g>
<path d="M454 40h0"></path>
<path d="M570 40h0"></path>
<path d="M454 40h20"></path>
<g class="non-terminal">
<path d="M474 40h0"></path>
<path d="M526 40h24"></path>
<rect x="474" y="29" width="52" height="22"></rect>
<a xlink:href="reuse_cond.svg"><text x="500" y="44">cond</text>
</a>
</g>
<path d="M550 40h20"></path>
<path d="M454 40a10 10 0 0 1 10 10v10a10 10 0 0 0 10 10"></path>
<g class="non-terminal">
<path d="M474 70h0"></path>
<path d="M550 70h0"></path>
<rect x="474" y="59" width="76" height="22"></rect>
<a xlink:href="reuse_dynamic.svg"><text x="512" y="74">dynamic</text>
</a>
</g>
<path d="M550 70a10 10 0 0 0 10 -10v-10a10 10 0 0 1 10 -10"></path>
</g>
</g>
<path d="M570 40h20"></path>
</g>
</g>
<path d="M590 40h10"></path>
<path d="M 600 40 h 20 m -10 -10 v 20 m 10 -20 v 20"></path>
</g>
</svg>
