<svg xmlns="http://www.w3.org/2000/svg" xmlns:xlink="http://www.w3.org/1999/xlink" class="railroad-diagram" width="1260" height="355" viewBox="0 0 1260 355">
<defs>
<style type="text/css"><![CDATA[
path {
stroke-width: 3;
stroke: black;
fill: rgba(0,0,0,0);
}
text {
font: bold 14px monospace;
text-anchor: middle;
}
text.diagram-text {
font-size: 12px;
}
a {
fill: blue;
}
text.diagram-arrow {
font-size: 16px;
}
text.label {
text-anchor: start;
}
text.comment {
font: italic 12px monospace;
}
rect {
stroke-width: 3;
stroke: black;
fill: #BCBCBC;
}
path.diagram-text {
stroke-width: 3;
stroke: black;
fill: #BCBCBC;
cursor: help;
}
]]></style>
</defs>
<g transform="translate(.5 .5)">
<path d="M 20 30 v 20 m 10 -20 v 20 m -10 -10 h 20.5"></path>
<path d="M40 40h10"></path>
<g>
<path d="M50 40h0"></path>
<path d="M1210 40h0"></path>
<g class="terminal">
<path d="M50 40h0"></path>
<path d="M134 40h0"></path>
<rect x="50" y="29" width="84" height="22" rx="10" ry="10"></rect>
<text x="92" y="44">"DELETE"</text>
</g>
<path d="M134 40h10"></path>
<g>
<path d="M144 40h0"></path>
<path d="M1210 40h0"></path>
<path d="M144 40h20"></path>
<g>
<path d="M164 40h0"></path>
<path d="M1190 40h0"></path>
<g>
<path d="M164 40h0"></path>
<path d="M280 40h0"></path>
<path d="M164 40a10 10 0 0 0 10 -10v0a10 10 0 0 1 10 -10"></path>
<g>
<path d="M184 20h76"></path>
</g>
<path d="M260 20a10 10 0 0 1 10 10v0a10 10 0 0 0 10 10"></path>
<path d="M164 40h20"></path>
<g class="terminal">
<path d="M184 40h0"></path>
<path d="M260 40h0"></path>
<rect x="184" y="29" width="76" height="22" rx="10" ry="10"></rect>
<text x="222" y="44">"TABLE"</text>
</g>
<path d="M260 40h20"></path>
</g>
<path d="M280 40h10"></path>
<g class="non-terminal">
<path d="M290 40h0"></path>
<path d="M358 40h0"></path>
<rect x="290" y="29" width="68" height="22"></rect>
<a xlink:href="reuse_target.svg"><text x="324" y="44">Target</text>
</a>
</g>
<path d="M358 40h10"></path>
<g>
<path d="M368 40h0"></path>
<path d="M948 40h0"></path>
<path d="M368 40h20"></path>
<g>
<path d="M388 40h0"></path>
<path d="M716 40h212"></path>
<path d="M418 40h10"></path>
<g>
<path d="M428 40h0"></path>
<path d="M592 40h94"></path>
<g class="terminal">
<path d="M428 40h0"></path>
<path d="M504 40h0"></path>
<rect x="428" y="29" width="76" height="22" rx="10" ry="10"></rect>
<text x="466" y="44">"INDEX"</text>
</g>
<path d="M504 40h10"></path>
<path d="M514 40h10"></path>
<g class="non-terminal">
<path d="M524 40h0"></path>
<path d="M592 40h0"></path>
<rect x="524" y="29" width="68" height="22"></rect>
<a xlink:href="reuse_source.svg"><text x="558" y="44">Source</text>
</a>
</g>
</g>
<path d="M686 40h10"></path>
<path d="M418 40v20a10 10 0 0 0 10 10"></path>
<g>
<path d="M428 70h0"></path>
<path d="M686 70h0"></path>
<g class="terminal">
<path d="M428 70h0"></path>
<path d="M536 70h0"></path>
<rect x="428" y="59" width="108" height="22" rx="10" ry="10"></rect>
<text x="482" y="74">"USING KEY"</text>
</g>
<path d="M536 70h10"></path>
<g>
<path d="M546 70h0"></path>
<path d="M686 70h0"></path>
<path d="M546 70h20"></path>
<g class="non-terminal">
<path d="M566 70h0"></path>
<path d="M666 70h0"></path>
<rect x="566" y="59" width="100" height="22"></rect>
<a xlink:href="reuse_simplename.svg"><text x="616" y="74">SimpleName</text>
</a>
</g>
<path d="M666 70h20"></path>
<path d="M546 70a10 10 0 0 1 10 10v10a10 10 0 0 0 10 10"></path>
<g class="non-terminal">
<path d="M566 100h0"></path>
<path d="M642 100h24"></path>
<rect x="566" y="89" width="76" height="22"></rect>
<a xlink:href="reuse_dynamic.svg"><text x="604" y="104">Dynamic</text>
</a>
</g>
<path d="M666 100a10 10 0 0 0 10 -10v-10a10 10 0 0 1 10 -10"></path>
</g>
</g>
<path d="M686 70a10 10 0 0 0 10 -10v-20"></path>
<g class="diagram-text">
<title>take one or more branches, once each, in any order</title>
<path d="M 418 30 h -26 a 4 4 0 0 0 -4 4 v 12 a 4 4 0 0 0 4 4 h 26 z" class="diagram-text"></path>
<text x="403" y="44" class="diagram-text">1+</text>
<path d="M 696 30 h 16 a 4 4 0 0 1 4 4 v 12 a 4 4 0 0 1 -4 4 h -16 z" class="diagram-text"></path>
<path d="M 703 38 a 4 4 0 1 0 6 -1 m 2.75 -1 h -4 v 4 m 0 -3 h 2" style="stroke-width: 1.75"></path>
</g>
</g>
<path d="M928 40h20"></path>
<path d="M368 40a10 10 0 0 1 10 10v79a10 10 0 0 0 10 10"></path>
<g>
<path d="M388 139h0"></path>
<path d="M764 139h164"></path>
<g>
<path d="M388 139h0"></path>
<path d="M584 139h0"></path>
<path d="M388 139a10 10 0 0 0 10 -10v0a10 10 0 0 1 10 -10"></path>
<g>
<path d="M408 119h156"></path>
</g>
<path d="M564 119a10 10 0 0 1 10 10v0a10 10 0 0 0 10 10"></path>
<path d="M388 139h20"></path>
<g>
<path d="M408 139h0"></path>
<path d="M564 139h0"></path>
<g class="terminal">
<path d="M408 139h0"></path>
<path d="M476 139h0"></path>
<rect x="408" y="128" width="68" height="22" rx="10" ry="10"></rect>
<text x="442" y="143">"FROM"</text>
</g>
<path d="M476 139h10"></path>
<path d="M486 139h10"></path>
<g class="non-terminal">
<path d="M496 139h0"></path>
<path d="M564 139h0"></path>
<rect x="496" y="128" width="68" height="22"></rect>
<a xlink:href="reuse_source.svg"><text x="530" y="143">Source</text>
</a>
</g>
</g>
<path d="M564 139h20"></path>
</g>
<g>
<path d="M584 139h0"></path>
<path d="M764 139h0"></path>
<path d="M584 139a10 10 0 0 0 10 -10v0a10 10 0 0 1 10 -10"></path>
<g>
<path d="M604 119h140"></path>
</g>
<path d="M744 119a10 10 0 0 1 10 10v0a10 10 0 0 0 10 10"></path>
<path d="M584 139h20"></path>
<g>
<path d="M604 139h0"></path>
<path d="M744 139h0"></path>
<g class="terminal">
<path d="M604 139h0"></path>
<path d="M656 139h0"></path>
<rect x="604" y="128" width="52" height="22" rx="10" ry="10"></rect>
<text x="630" y="143">"TO"</text>
</g>
<path d="M656 139h10"></path>
<path d="M666 139h10"></path>
<g class="non-terminal">
<path d="M676 139h0"></path>
<path d="M744 139h0"></path>
<rect x="676" y="128" width="68" height="22"></rect>
<a xlink:href="reuse_source.svg"><text x="710" y="143">Source</text>
</a>
</g>
</g>
<path d="M744 139h20"></path>
</g>
</g>
<path d="M928 139a10 10 0 0 0 10 -10v-79a10 10 0 0 1 10 -10"></path>
<path d="M368 40a10 10 0 0 1 10 10v118a10 10 0 0 0 10 10"></path>
<g>
<path d="M388 178h0"></path>
<path d="M928 178h0"></path>
<g class="terminal">
<path d="M388 178h0"></path>
<path d="M536 178h0"></path>
<rect x="388" y="167" width="148" height="22" rx="10" ry="10"></rect>
<text x="462" y="182">"WITH TABLE KEY"</text>
</g>
<path d="M536 178h10"></path>
<g>
<path d="M546 178h0"></path>
<path d="M822 178h0"></path>
<path d="M546 178a10 10 0 0 0 10 -10v0a10 10 0 0 1 10 -10"></path>
<g>
<path d="M566 158h236"></path>
</g>
<path d="M802 158a10 10 0 0 1 10 10v0a10 10 0 0 0 10 10"></path>
<path d="M546 178h20"></path>
<g>
<path d="M566 178h0"></path>
<path d="M802 178h0"></path>
<g class="non-terminal">
<path d="M566 178h0"></path>
<path d="M666 178h0"></path>
<rect x="566" y="167" width="100" height="22"></rect>
<a xlink:href="reuse_simplename.svg"><text x="616" y="182">SimpleName</text>
</a>
</g>
<path d="M666 178h10"></path>
<path d="M676 178h10"></path>
<g class="terminal">
<path d="M686 178h0"></path>
<path d="M802 178h0"></path>
<rect x="686" y="167" width="116" height="22" rx="10" ry="10"></rect>
<text x="744" y="182">"COMPONENTS"</text>
</g>
</g>
<path d="M802 178h20"></path>
</g>
<path d="M822 178h10"></path>
<g>
<path d="M832 178h0"></path>
<path d="M928 178h0"></path>
<path d="M832 178h10"></path>
<g class="non-terminal">
<path d="M842 178h0"></path>
<path d="M918 178h0"></path>
<rect x="842" y="167" width="76" height="22"></rect>
<a xlink:href="reuse_compare.svg"><text x="880" y="182">Compare</text>
</a>
</g>
<path d="M918 178h10"></path>
<path d="M842 178a10 10 0 0 0 -10 10v0a10 10 0 0 0 10 10"></path>
<g>
<path d="M842 198h76"></path>
</g>
<path d="M918 198a10 10 0 0 0 10 -10v0a10 10 0 0 0 -10 -10"></path>
</g>
</g>
<path d="M928 178a10 10 0 0 0 10 -10v-118a10 10 0 0 1 10 -10"></path>
</g>
<g>
<path d="M948 40h0"></path>
<path d="M1190 40h0"></path>
<path d="M948 40a10 10 0 0 0 10 -10v0a10 10 0 0 1 10 -10"></path>
<g>
<path d="M968 20h202"></path>
</g>
<path d="M1170 20a10 10 0 0 1 10 10v0a10 10 0 0 0 10 10"></path>
<path d="M948 40h20"></path>
<g>
<path d="M968 40h0"></path>
<path d="M1170 40h0"></path>
<g class="terminal">
<path d="M968 40h0"></path>
<path d="M1044 40h0"></path>
<rect x="968" y="29" width="76" height="22" rx="10" ry="10"></rect>
<text x="1006" y="44">"WHERE"</text>
</g>
<path d="M1044 40h10"></path>
<g>
<path d="M1054 40h0"></path>
<path d="M1170 40h0"></path>
<path d="M1054 40h20"></path>
<g class="non-terminal">
<path d="M1074 40h0"></path>
<path d="M1126 40h24"></path>
<rect x="1074" y="29" width="52" height="22"></rect>
<a xlink:href="reuse_cond.svg"><text x="1100" y="44">Cond</text>
</a>
</g>
<path d="M1150 40h20"></path>
<path d="M1054 40a10 10 0 0 1 10 10v10a10 10 0 0 0 10 10"></path>
<g class="non-terminal">
<path d="M1074 70h0"></path>
<path d="M1150 70h0"></path>
<rect x="1074" y="59" width="76" height="22"></rect>
<a xlink:href="reuse_dynamic.svg"><text x="1112" y="74">Dynamic</text>
</a>
</g>
<path d="M1150 70a10 10 0 0 0 10 -10v-10a10 10 0 0 1 10 -10"></path>
</g>
</g>
<path d="M1170 40h20"></path>
</g>
</g>
<path d="M1190 40h20"></path>
<path d="M144 40a10 10 0 0 1 10 10v166a10 10 0 0 0 10 10"></path>
<g>
<path d="M164 226h0"></path>
<path d="M1030 226h160"></path>
<g class="terminal">
<path d="M164 226h0"></path>
<path d="M392 226h0"></path>
<rect x="164" y="215" width="228" height="22" rx="10" ry="10"></rect>
<text x="278" y="230">"ADJACENT DUPLICATES FROM"</text>
</g>
<path d="M392 226h10"></path>
<path d="M402 226h10"></path>
<g class="non-terminal">
<path d="M412 226h0"></path>
<path d="M480 226h0"></path>
<rect x="412" y="215" width="68" height="22"></rect>
<a xlink:href="reuse_target.svg"><text x="446" y="230">Target</text>
</a>
</g>
<path d="M480 226h10"></path>
<g>
<path d="M490 226h0"></path>
<path d="M802 226h0"></path>
<path d="M490 226a10 10 0 0 0 10 -10v0a10 10 0 0 1 10 -10"></path>
<g>
<path d="M510 206h272"></path>
</g>
<path d="M782 206a10 10 0 0 1 10 10v0a10 10 0 0 0 10 10"></path>
<path d="M490 226h20"></path>
<g>
<path d="M510 226h0"></path>
<path d="M782 226h0"></path>
<g class="terminal">
<path d="M510 226h0"></path>
<path d="M618 226h0"></path>
<rect x="510" y="215" width="108" height="22" rx="10" ry="10"></rect>
<text x="564" y="230">"COMPARING"</text>
</g>
<path d="M618 226h10"></path>
<path d="M628 226h10"></path>
<g>
<path d="M638 226h0"></path>
<path d="M782 226h0"></path>
<path d="M638 226h10"></path>
<g>
<path d="M648 226h0"></path>
<path d="M772 226h0"></path>
<path d="M648 226h20"></path>
<g class="non-terminal">
<path d="M668 226h0"></path>
<path d="M752 226h0"></path>
<rect x="668" y="215" width="84" height="22"></rect>
<a xlink:href="reuse_fieldsub.svg"><text x="710" y="230">FieldSub</text>
</a>
</g>
<path d="M752 226h20"></path>
<path d="M648 226a10 10 0 0 1 10 10v10a10 10 0 0 0 10 10"></path>
<g class="non-terminal">
<path d="M668 256h0"></path>
<path d="M744 256h8"></path>
<rect x="668" y="245" width="76" height="22"></rect>
<a xlink:href="reuse_dynamic.svg"><text x="706" y="260">Dynamic</text>
</a>
</g>
<path d="M752 256a10 10 0 0 0 10 -10v-10a10 10 0 0 1 10 -10"></path>
</g>
<path d="M772 226h10"></path>
<path d="M648 226a10 10 0 0 0 -10 10v29a10 10 0 0 0 10 10"></path>
<g>
<path d="M648 275h124"></path>
</g>
<path d="M772 275a10 10 0 0 0 10 -10v-29a10 10 0 0 0 -10 -10"></path>
</g>
</g>
<path d="M782 226h20"></path>
</g>
<g>
<path d="M802 226h0"></path>
<path d="M1030 226h0"></path>
<path d="M802 226a10 10 0 0 0 10 -10v0a10 10 0 0 1 10 -10"></path>
<g>
<path d="M822 206h188"></path>
</g>
<path d="M1010 206a10 10 0 0 1 10 10v0a10 10 0 0 0 10 10"></path>
<path d="M802 226h20"></path>
<g>
<path d="M822 226h0"></path>
<path d="M1010 226h0"></path>
<g class="terminal">
<path d="M822 226h0"></path>
<path d="M930 226h0"></path>
<rect x="822" y="215" width="108" height="22" rx="10" ry="10"></rect>
<text x="876" y="230">"USING KEY"</text>
</g>
<path d="M930 226h10"></path>
<path d="M940 226h10"></path>
<g class="non-terminal">
<path d="M950 226h0"></path>
<path d="M1010 226h0"></path>
<rect x="950" y="215" width="60" height="22"></rect>
<a xlink:href="reuse_field.svg"><text x="980" y="230">Field</text>
</a>
</g>
</g>
<path d="M1010 226h20"></path>
</g>
</g>
<path d="M1190 226a10 10 0 0 0 10 -10v-166a10 10 0 0 1 10 -10"></path>
<path d="M144 40a10 10 0 0 1 10 10v234a10 10 0 0 0 10 10"></path>
<g>
<path d="M164 294h0"></path>
<path d="M494 294h696"></path>
<g class="non-terminal">
<path d="M164 294h0"></path>
<path d="M272 294h0"></path>
<rect x="164" y="283" width="108" height="22"></rect>
<a xlink:href="reuse_fieldsymbol.svg"><text x="218" y="298">FieldSymbol</text>
</a>
</g>
<path d="M272 294h10"></path>
<path d="M282 294h10"></path>
<g>
<path d="M292 294h0"></path>
<path d="M494 294h0"></path>
<g class="terminal">
<path d="M292 294h0"></path>
<path d="M368 294h0"></path>
<rect x="292" y="283" width="76" height="22" rx="10" ry="10"></rect>
<text x="330" y="298">"WHERE"</text>
</g>
<path d="M368 294h10"></path>
<g>
<path d="M378 294h0"></path>
<path d="M494 294h0"></path>
<path d="M378 294h20"></path>
<g class="non-terminal">
<path d="M398 294h0"></path>
<path d="M450 294h24"></path>
<rect x="398" y="283" width="52" height="22"></rect>
<a xlink:href="reuse_cond.svg"><text x="424" y="298">Cond</text>
</a>
</g>
<path d="M474 294h20"></path>
<path d="M378 294a10 10 0 0 1 10 10v10a10 10 0 0 0 10 10"></path>
<g class="non-terminal">
<path d="M398 324h0"></path>
<path d="M474 324h0"></path>
<rect x="398" y="313" width="76" height="22"></rect>
<a xlink:href="reuse_dynamic.svg"><text x="436" y="328">Dynamic</text>
</a>
</g>
<path d="M474 324a10 10 0 0 0 10 -10v-10a10 10 0 0 1 10 -10"></path>
</g>
</g>
</g>
<path d="M1190 294a10 10 0 0 0 10 -10v-234a10 10 0 0 1 10 -10"></path>
</g>
</g>
<path d="M1210 40h10"></path>
<path d="M 1220 40 h 20 m -10 -10 v 20 m 10 -20 v 20"></path>
</g>
</svg>
