<svg xmlns="http://www.w3.org/2000/svg" xmlns:xlink="http://www.w3.org/1999/xlink" class="railroad-diagram" width="688" height="101" viewBox="0 0 688 101">
<defs>
<style type="text/css"><![CDATA[
path {
stroke-width: 3;
stroke: black;
fill: rgba(0,0,0,0);
}
text {
font: bold 14px monospace;
text-anchor: middle;
}
text.diagram-text {
font-size: 12px;
}
a {
fill: blue;
}
text.diagram-arrow {
font-size: 16px;
}
text.label {
text-anchor: start;
}
text.comment {
font: italic 12px monospace;
}
rect {
stroke-width: 3;
stroke: black;
fill: #BCBCBC;
}
path.diagram-text {
stroke-width: 3;
stroke: black;
fill: #BCBCBC;
cursor: help;
}
]]></style>
</defs>
<g transform="translate(.5 .5)">
<path d="M 20 30 v 20 m 10 -20 v 20 m -10 -10 h 20.5"></path>
<path d="M40 40h10"></path>
<g>
<path d="M50 40h0"></path>
<path d="M638 40h0"></path>
<g class="terminal">
<path d="M50 40h0"></path>
<path d="M134 40h0"></path>
<rect x="50" y="29" width="84" height="22" rx="10" ry="10"></rect>
<text x="92" y="44">"DELETE"</text>
</g>
<path d="M134 40h10"></path>
<path d="M144 40h10"></path>
<g class="terminal">
<path d="M154 40h0"></path>
<path d="M222 40h0"></path>
<rect x="154" y="29" width="68" height="22" rx="10" ry="10"></rect>
<text x="188" y="44">"FROM"</text>
</g>
<path d="M222 40h10"></path>
<g>
<path d="M232 40h0"></path>
<path d="M396 40h0"></path>
<path d="M232 40h20"></path>
<g class="non-terminal">
<path d="M252 40h0"></path>
<path d="M328 40h48"></path>
<rect x="252" y="29" width="76" height="22"></rect>
<a xlink:href="reuse_Dynamic.svg"><text x="290" y="44">Dynamic</text>
</a>
</g>
<path d="M376 40h20"></path>
<path d="M232 40a10 10 0 0 1 10 10v10a10 10 0 0 0 10 10"></path>
<g class="non-terminal">
<path d="M252 70h0"></path>
<path d="M376 70h0"></path>
<rect x="252" y="59" width="124" height="22"></rect>
<a xlink:href="reuse_DatabaseTable.svg"><text x="314" y="74">DatabaseTable</text>
</a>
</g>
<path d="M376 70a10 10 0 0 0 10 -10v-10a10 10 0 0 1 10 -10"></path>
</g>
<g>
<path d="M396 40h0"></path>
<path d="M638 40h0"></path>
<path d="M396 40a10 10 0 0 0 10 -10v0a10 10 0 0 1 10 -10"></path>
<g>
<path d="M416 20h202"></path>
</g>
<path d="M618 20a10 10 0 0 1 10 10v0a10 10 0 0 0 10 10"></path>
<path d="M396 40h20"></path>
<g>
<path d="M416 40h0"></path>
<path d="M618 40h0"></path>
<g class="terminal">
<path d="M416 40h0"></path>
<path d="M492 40h0"></path>
<rect x="416" y="29" width="76" height="22" rx="10" ry="10"></rect>
<text x="454" y="44">"WHERE"</text>
</g>
<path d="M492 40h10"></path>
<g>
<path d="M502 40h0"></path>
<path d="M618 40h0"></path>
<path d="M502 40h20"></path>
<g class="non-terminal">
<path d="M522 40h0"></path>
<path d="M574 40h24"></path>
<rect x="522" y="29" width="52" height="22"></rect>
<a xlink:href="reuse_Cond.svg"><text x="548" y="44">Cond</text>
</a>
</g>
<path d="M598 40h20"></path>
<path d="M502 40a10 10 0 0 1 10 10v10a10 10 0 0 0 10 10"></path>
<g class="non-terminal">
<path d="M522 70h0"></path>
<path d="M598 70h0"></path>
<rect x="522" y="59" width="76" height="22"></rect>
<a xlink:href="reuse_Dynamic.svg"><text x="560" y="74">Dynamic</text>
</a>
</g>
<path d="M598 70a10 10 0 0 0 10 -10v-10a10 10 0 0 1 10 -10"></path>
</g>
</g>
<path d="M618 40h20"></path>
</g>
</g>
<path d="M638 40h10"></path>
<path d="M 648 40 h 20 m -10 -10 v 20 m 10 -20 v 20"></path>
</g>
</svg>
