<svg xmlns="http://www.w3.org/2000/svg" xmlns:xlink="http://www.w3.org/1999/xlink" class="railroad-diagram" width="696" height="101" viewBox="0 0 696 101">
<defs>
<style type="text/css"><![CDATA[
path {
stroke-width: 3;
stroke: black;
fill: rgba(0,0,0,0);
}
text {
font: bold 14px monospace;
text-anchor: middle;
}
text.diagram-text {
font-size: 12px;
}
a {
fill: blue;
}
text.diagram-arrow {
font-size: 16px;
}
text.label {
text-anchor: start;
}
text.comment {
font: italic 12px monospace;
}
rect {
stroke-width: 3;
stroke: black;
fill: #BCBCBC;
}
path.diagram-text {
stroke-width: 3;
stroke: black;
fill: #BCBCBC;
cursor: help;
}
]]></style>
</defs>
<g transform="translate(.5 .5)">
<path d="M 20 30 v 20 m 10 -20 v 20 m -10 -10 h 20.5"></path>
<path d="M40 40h10"></path>
<g>
<path d="M50 40h0"></path>
<path d="M646 40h0"></path>
<g class="terminal">
<path d="M50 40h0"></path>
<path d="M134 40h0"></path>
<rect x="50" y="29" width="84" height="22" rx="10" ry="10"></rect>
<text x="92" y="44">"DELETE"</text>
</g>
<path d="M134 40h10"></path>
<path d="M144 40h10"></path>
<g class="terminal">
<path d="M154 40h0"></path>
<path d="M222 40h0"></path>
<rect x="154" y="29" width="68" height="22" rx="10" ry="10"></rect>
<text x="188" y="44">"FROM"</text>
</g>
<path d="M222 40h10"></path>
<g>
<path d="M232 40h0"></path>
<path d="M404 40h0"></path>
<path d="M232 40h20"></path>
<g class="non-terminal">
<path d="M252 40h0"></path>
<path d="M328 40h56"></path>
<rect x="252" y="29" width="76" height="22"></rect>
<a xlink:href="reuse_dynamic.svg"><text x="290" y="44">dynamic</text>
</a>
</g>
<path d="M384 40h20"></path>
<path d="M232 40a10 10 0 0 1 10 10v10a10 10 0 0 0 10 10"></path>
<g class="non-terminal">
<path d="M252 70h0"></path>
<path d="M384 70h0"></path>
<rect x="252" y="59" width="132" height="22"></rect>
<a xlink:href="reuse_database_table.svg"><text x="318" y="74">database&#95;table</text>
</a>
</g>
<path d="M384 70a10 10 0 0 0 10 -10v-10a10 10 0 0 1 10 -10"></path>
</g>
<g>
<path d="M404 40h0"></path>
<path d="M646 40h0"></path>
<path d="M404 40a10 10 0 0 0 10 -10v0a10 10 0 0 1 10 -10"></path>
<g>
<path d="M424 20h202"></path>
</g>
<path d="M626 20a10 10 0 0 1 10 10v0a10 10 0 0 0 10 10"></path>
<path d="M404 40h20"></path>
<g>
<path d="M424 40h0"></path>
<path d="M626 40h0"></path>
<g class="terminal">
<path d="M424 40h0"></path>
<path d="M500 40h0"></path>
<rect x="424" y="29" width="76" height="22" rx="10" ry="10"></rect>
<text x="462" y="44">"WHERE"</text>
</g>
<path d="M500 40h10"></path>
<g>
<path d="M510 40h0"></path>
<path d="M626 40h0"></path>
<path d="M510 40h20"></path>
<g class="non-terminal">
<path d="M530 40h0"></path>
<path d="M582 40h24"></path>
<rect x="530" y="29" width="52" height="22"></rect>
<a xlink:href="reuse_cond.svg"><text x="556" y="44">cond</text>
</a>
</g>
<path d="M606 40h20"></path>
<path d="M510 40a10 10 0 0 1 10 10v10a10 10 0 0 0 10 10"></path>
<g class="non-terminal">
<path d="M530 70h0"></path>
<path d="M606 70h0"></path>
<rect x="530" y="59" width="76" height="22"></rect>
<a xlink:href="reuse_dynamic.svg"><text x="568" y="74">dynamic</text>
</a>
</g>
<path d="M606 70a10 10 0 0 0 10 -10v-10a10 10 0 0 1 10 -10"></path>
</g>
</g>
<path d="M626 40h20"></path>
</g>
</g>
<path d="M646 40h10"></path>
<path d="M 656 40 h 20 m -10 -10 v 20 m 10 -20 v 20"></path>
</g>
</svg>
