<svg xmlns="http://www.w3.org/2000/svg" xmlns:xlink="http://www.w3.org/1999/xlink" class="railroad-diagram" width="922" height="200" viewBox="0 0 922 200">
<defs>
<style type="text/css"><![CDATA[
path {
stroke-width: 3;
stroke: black;
fill: rgba(0,0,0,0);
}
text {
font: bold 14px monospace;
text-anchor: middle;
}
text.diagram-text {
font-size: 12px;
}
a {
fill: blue;
}
text.diagram-arrow {
font-size: 16px;
}
text.label {
text-anchor: start;
}
text.comment {
font: italic 12px monospace;
}
rect {
stroke-width: 3;
stroke: black;
fill: #BCBCBC;
}
path.diagram-text {
stroke-width: 3;
stroke: black;
fill: #BCBCBC;
cursor: help;
}
]]></style>
</defs>
<g transform="translate(.5 .5)">
<path d="M 20 30 v 20 m 10 -20 v 20 m -10 -10 h 20.5"></path>
<path d="M40 40h10"></path>
<g>
<path d="M50 40h0"></path>
<path d="M872 40h0"></path>
<g class="terminal">
<path d="M50 40h0"></path>
<path d="M134 40h0"></path>
<rect x="50" y="29" width="84" height="22" rx="10" ry="10"></rect>
<text x="92" y="44">"DELETE"</text>
</g>
<path d="M134 40h10"></path>
<g>
<path d="M144 40h0"></path>
<path d="M872 40h0"></path>
<path d="M144 40h20"></path>
<g>
<path d="M164 40h0"></path>
<path d="M852 40h0"></path>
<g class="terminal">
<path d="M164 40h0"></path>
<path d="M232 40h0"></path>
<rect x="164" y="29" width="68" height="22" rx="10" ry="10"></rect>
<text x="198" y="44">"FROM"</text>
</g>
<path d="M232 40h10"></path>
<g>
<path d="M242 40h0"></path>
<path d="M406 40h0"></path>
<path d="M242 40h20"></path>
<g class="non-terminal">
<path d="M262 40h0"></path>
<path d="M338 40h48"></path>
<rect x="262" y="29" width="76" height="22"></rect>
<a xlink:href="reuse_dynamic.svg"><text x="300" y="44">Dynamic</text>
</a>
</g>
<path d="M386 40h20"></path>
<path d="M242 40a10 10 0 0 1 10 10v10a10 10 0 0 0 10 10"></path>
<g class="non-terminal">
<path d="M262 70h0"></path>
<path d="M386 70h0"></path>
<rect x="262" y="59" width="124" height="22"></rect>
<a xlink:href="reuse_databasetable.svg"><text x="324" y="74">DatabaseTable</text>
</a>
</g>
<path d="M386 70a10 10 0 0 0 10 -10v-10a10 10 0 0 1 10 -10"></path>
</g>
<g>
<path d="M406 40h0"></path>
<path d="M610 40h0"></path>
<path d="M406 40a10 10 0 0 0 10 -10v0a10 10 0 0 1 10 -10"></path>
<g>
<path d="M426 20h164"></path>
</g>
<path d="M590 20a10 10 0 0 1 10 10v0a10 10 0 0 0 10 10"></path>
<path d="M406 40h20"></path>
<g class="terminal">
<path d="M426 40h0"></path>
<path d="M590 40h0"></path>
<rect x="426" y="29" width="164" height="22" rx="10" ry="10"></rect>
<text x="508" y="44">"CLIENT SPECIFIED"</text>
</g>
<path d="M590 40h20"></path>
</g>
<g>
<path d="M610 40h0"></path>
<path d="M852 40h0"></path>
<path d="M610 40a10 10 0 0 0 10 -10v0a10 10 0 0 1 10 -10"></path>
<g>
<path d="M630 20h202"></path>
</g>
<path d="M832 20a10 10 0 0 1 10 10v0a10 10 0 0 0 10 10"></path>
<path d="M610 40h20"></path>
<g>
<path d="M630 40h0"></path>
<path d="M832 40h0"></path>
<g class="terminal">
<path d="M630 40h0"></path>
<path d="M706 40h0"></path>
<rect x="630" y="29" width="76" height="22" rx="10" ry="10"></rect>
<text x="668" y="44">"WHERE"</text>
</g>
<path d="M706 40h10"></path>
<g>
<path d="M716 40h0"></path>
<path d="M832 40h0"></path>
<path d="M716 40h20"></path>
<g class="non-terminal">
<path d="M736 40h0"></path>
<path d="M788 40h24"></path>
<rect x="736" y="29" width="52" height="22"></rect>
<a xlink:href="reuse_cond.svg"><text x="762" y="44">Cond</text>
</a>
</g>
<path d="M812 40h20"></path>
<path d="M716 40a10 10 0 0 1 10 10v10a10 10 0 0 0 10 10"></path>
<g class="non-terminal">
<path d="M736 70h0"></path>
<path d="M812 70h0"></path>
<rect x="736" y="59" width="76" height="22"></rect>
<a xlink:href="reuse_dynamic.svg"><text x="774" y="74">Dynamic</text>
</a>
</g>
<path d="M812 70a10 10 0 0 0 10 -10v-10a10 10 0 0 1 10 -10"></path>
</g>
</g>
<path d="M832 40h20"></path>
</g>
</g>
<path d="M852 40h20"></path>
<path d="M144 40a10 10 0 0 1 10 10v49a10 10 0 0 0 10 10"></path>
<g>
<path d="M164 109h0"></path>
<path d="M650 109h202"></path>
<g>
<path d="M164 109h0"></path>
<path d="M368 109h0"></path>
<path d="M164 109h20"></path>
<g>
<path d="M184 109h0"></path>
<path d="M348 109h0"></path>
<path d="M184 109h20"></path>
<g class="non-terminal">
<path d="M204 109h0"></path>
<path d="M280 109h48"></path>
<rect x="204" y="98" width="76" height="22"></rect>
<a xlink:href="reuse_dynamic.svg"><text x="242" y="113">Dynamic</text>
</a>
</g>
<path d="M328 109h20"></path>
<path d="M184 109a10 10 0 0 1 10 10v10a10 10 0 0 0 10 10"></path>
<g class="non-terminal">
<path d="M204 139h0"></path>
<path d="M328 139h0"></path>
<rect x="204" y="128" width="124" height="22"></rect>
<a xlink:href="reuse_databasetable.svg"><text x="266" y="143">DatabaseTable</text>
</a>
</g>
<path d="M328 139a10 10 0 0 0 10 -10v-10a10 10 0 0 1 10 -10"></path>
</g>
<path d="M348 109h20"></path>
<path d="M164 109a10 10 0 0 1 10 10v40a10 10 0 0 0 10 10"></path>
<g class="non-terminal">
<path d="M184 169h0"></path>
<path d="M260 169h88"></path>
<rect x="184" y="158" width="76" height="22"></rect>
<a xlink:href="reuse_dynamic.svg"><text x="222" y="173">Dynamic</text>
</a>
</g>
<path d="M348 169a10 10 0 0 0 10 -10v-40a10 10 0 0 1 10 -10"></path>
</g>
<path d="M368 109h10"></path>
<g class="terminal">
<path d="M378 109h0"></path>
<path d="M446 109h0"></path>
<rect x="378" y="98" width="68" height="22" rx="10" ry="10"></rect>
<text x="412" y="113">"FROM"</text>
</g>
<path d="M446 109h10"></path>
<g>
<path d="M456 109h0"></path>
<path d="M572 109h0"></path>
<path d="M456 109a10 10 0 0 0 10 -10v0a10 10 0 0 1 10 -10"></path>
<g>
<path d="M476 89h76"></path>
</g>
<path d="M552 89a10 10 0 0 1 10 10v0a10 10 0 0 0 10 10"></path>
<path d="M456 109h20"></path>
<g class="terminal">
<path d="M476 109h0"></path>
<path d="M552 109h0"></path>
<rect x="476" y="98" width="76" height="22" rx="10" ry="10"></rect>
<text x="514" y="113">"TABLE"</text>
</g>
<path d="M552 109h20"></path>
</g>
<path d="M572 109h10"></path>
<g class="non-terminal">
<path d="M582 109h0"></path>
<path d="M650 109h0"></path>
<rect x="582" y="98" width="68" height="22"></rect>
<a xlink:href="reuse_source.svg"><text x="616" y="113">Source</text>
</a>
</g>
</g>
<path d="M852 109a10 10 0 0 0 10 -10v-49a10 10 0 0 1 10 -10"></path>
</g>
</g>
<path d="M872 40h10"></path>
<path d="M 882 40 h 20 m -10 -10 v 20 m 10 -20 v 20"></path>
</g>
</svg>
