<svg xmlns="http://www.w3.org/2000/svg" xmlns:xlink="http://www.w3.org/1999/xlink" class="railroad-diagram" width="1068" height="431" viewBox="0 0 1068 431">
<defs>
<style type="text/css"><![CDATA[
path {
stroke-width: 3;
stroke: black;
fill: rgba(0,0,0,0);
}
text {
font: bold 14px monospace;
text-anchor: middle;
}
text.diagram-text {
font-size: 12px;
}
a {
fill: blue;
}
text.diagram-arrow {
font-size: 16px;
}
text.label {
text-anchor: start;
}
text.comment {
font: italic 12px monospace;
}
rect {
stroke-width: 3;
stroke: black;
fill: #BCBCBC;
}
path.diagram-text {
stroke-width: 3;
stroke: black;
fill: #BCBCBC;
cursor: help;
}
]]></style>
</defs>
<g transform="translate(.5 .5)">
<path d="M 20 30 v 20 m 10 -20 v 20 m -10 -10 h 20.5"></path>
<path d="M40 40h10"></path>
<g>
<path d="M50 40h0"></path>
<path d="M1018 40h0"></path>
<g class="terminal">
<path d="M50 40h0"></path>
<path d="M150 40h0"></path>
<rect x="50" y="29" width="100" height="22" rx="10" ry="10"></rect>
<text x="100" y="44">"DESCRIBE"</text>
</g>
<path d="M150 40h10"></path>
<g>
<path d="M160 40h0"></path>
<path d="M1018 40h0"></path>
<path d="M160 40h20"></path>
<g>
<path d="M180 40h0"></path>
<path d="M558 40h440"></path>
<g class="terminal">
<path d="M180 40h0"></path>
<path d="M256 40h0"></path>
<rect x="180" y="29" width="76" height="22" rx="10" ry="10"></rect>
<text x="218" y="44">"TABLE"</text>
</g>
<path d="M256 40h10"></path>
<path d="M266 40h10"></path>
<g class="non-terminal">
<path d="M276 40h0"></path>
<path d="M344 40h0"></path>
<rect x="276" y="29" width="68" height="22"></rect>
<a xlink:href="reuse_source.svg"><text x="310" y="44">Source</text>
</a>
</g>
<path d="M344 40h10"></path>
<g>
<path d="M354 40h0"></path>
<path d="M558 40h0"></path>
<path d="M354 40a10 10 0 0 0 10 -10v0a10 10 0 0 1 10 -10"></path>
<g>
<path d="M374 20h164"></path>
</g>
<path d="M538 20a10 10 0 0 1 10 10v0a10 10 0 0 0 10 10"></path>
<path d="M354 40h20"></path>
<g>
<path d="M374 40h0"></path>
<path d="M538 40h0"></path>
<g class="terminal">
<path d="M374 40h0"></path>
<path d="M450 40h0"></path>
<rect x="374" y="29" width="76" height="22" rx="10" ry="10"></rect>
<text x="412" y="44">"LINES"</text>
</g>
<path d="M450 40h10"></path>
<path d="M460 40h10"></path>
<g class="non-terminal">
<path d="M470 40h0"></path>
<path d="M538 40h0"></path>
<rect x="470" y="29" width="68" height="22"></rect>
<a xlink:href="reuse_target.svg"><text x="504" y="44">Target</text>
</a>
</g>
</g>
<path d="M538 40h20"></path>
</g>
</g>
<path d="M998 40h20"></path>
<path d="M160 40a10 10 0 0 1 10 10v10a10 10 0 0 0 10 10"></path>
<g>
<path d="M180 70h0"></path>
<path d="M828 70h170"></path>
<g class="terminal">
<path d="M180 70h0"></path>
<path d="M256 70h0"></path>
<rect x="180" y="59" width="76" height="22" rx="10" ry="10"></rect>
<text x="218" y="74">"FIELD"</text>
</g>
<path d="M256 70h10"></path>
<path d="M266 70h10"></path>
<g class="non-terminal">
<path d="M276 70h0"></path>
<path d="M344 70h0"></path>
<rect x="276" y="59" width="68" height="22"></rect>
<a xlink:href="reuse_source.svg"><text x="310" y="74">Source</text>
</a>
</g>
<path d="M344 70h10"></path>
<path d="M354 70h10"></path>
<g>
<path d="M364 70h0"></path>
<path d="M828 70h0"></path>
<path d="M394 70h10"></path>
<g>
<path d="M404 70h0"></path>
<path d="M560 70h238"></path>
<g class="terminal">
<path d="M404 70h0"></path>
<path d="M472 70h0"></path>
<rect x="404" y="59" width="68" height="22" rx="10" ry="10"></rect>
<text x="438" y="74">"TYPE"</text>
</g>
<path d="M472 70h10"></path>
<path d="M482 70h10"></path>
<g class="non-terminal">
<path d="M492 70h0"></path>
<path d="M560 70h0"></path>
<rect x="492" y="59" width="68" height="22"></rect>
<a xlink:href="reuse_target.svg"><text x="526" y="74">Target</text>
</a>
</g>
</g>
<path d="M798 70h10"></path>
<path d="M394 70v20a10 10 0 0 0 10 10"></path>
<g>
<path d="M404 100h0"></path>
<path d="M608 100h190"></path>
<g class="terminal">
<path d="M404 100h0"></path>
<path d="M520 100h0"></path>
<rect x="404" y="89" width="116" height="22" rx="10" ry="10"></rect>
<text x="462" y="104">"COMPONENTS"</text>
</g>
<path d="M520 100h10"></path>
<path d="M530 100h10"></path>
<g class="non-terminal">
<path d="M540 100h0"></path>
<path d="M608 100h0"></path>
<rect x="540" y="89" width="68" height="22"></rect>
<a xlink:href="reuse_target.svg"><text x="574" y="104">Target</text>
</a>
</g>
</g>
<path d="M798 100a10 10 0 0 0 10 -10v-20"></path>
<path d="M394 70v50a10 10 0 0 0 10 10"></path>
<g>
<path d="M404 130h0"></path>
<path d="M798 130h0"></path>
<g class="terminal">
<path d="M404 130h0"></path>
<path d="M488 130h0"></path>
<rect x="404" y="119" width="84" height="22" rx="10" ry="10"></rect>
<text x="446" y="134">"LENGTH"</text>
</g>
<path d="M488 130h10"></path>
<path d="M498 130h10"></path>
<g class="non-terminal">
<path d="M508 130h0"></path>
<path d="M576 130h0"></path>
<rect x="508" y="119" width="68" height="22"></rect>
<a xlink:href="reuse_target.svg"><text x="542" y="134">Target</text>
</a>
</g>
<path d="M576 130h10"></path>
<g>
<path d="M586 130h0"></path>
<path d="M798 130h0"></path>
<path d="M586 130h20"></path>
<g class="terminal">
<path d="M606 130h0"></path>
<path d="M738 130h40"></path>
<rect x="606" y="119" width="132" height="22" rx="10" ry="10"></rect>
<text x="672" y="134">"IN BYTE MODE"</text>
</g>
<path d="M778 130h20"></path>
<path d="M586 130a10 10 0 0 1 10 10v10a10 10 0 0 0 10 10"></path>
<g class="terminal">
<path d="M606 160h0"></path>
<path d="M778 160h0"></path>
<rect x="606" y="149" width="172" height="22" rx="10" ry="10"></rect>
<text x="692" y="164">"IN CHARACTER MODE"</text>
</g>
<path d="M778 160a10 10 0 0 0 10 -10v-10a10 10 0 0 1 10 -10"></path>
</g>
</g>
<path d="M798 130a10 10 0 0 0 10 -10v-50"></path>
<path d="M394 70v110a10 10 0 0 0 10 10"></path>
<g>
<path d="M404 190h0"></path>
<path d="M592 190h206"></path>
<g class="terminal">
<path d="M404 190h0"></path>
<path d="M504 190h0"></path>
<rect x="404" y="179" width="100" height="22" rx="10" ry="10"></rect>
<text x="454" y="194">"DECIMALS"</text>
</g>
<path d="M504 190h10"></path>
<path d="M514 190h10"></path>
<g class="non-terminal">
<path d="M524 190h0"></path>
<path d="M592 190h0"></path>
<rect x="524" y="179" width="68" height="22"></rect>
<a xlink:href="reuse_target.svg"><text x="558" y="194">Target</text>
</a>
</g>
</g>
<path d="M798 190a10 10 0 0 0 10 -10v-110"></path>
<path d="M394 70v140a10 10 0 0 0 10 10"></path>
<g>
<path d="M404 220h0"></path>
<path d="M584 220h214"></path>
<g class="terminal">
<path d="M404 220h0"></path>
<path d="M496 220h0"></path>
<rect x="404" y="209" width="92" height="22" rx="10" ry="10"></rect>
<text x="450" y="224">"HELP-ID"</text>
</g>
<path d="M496 220h10"></path>
<path d="M506 220h10"></path>
<g class="non-terminal">
<path d="M516 220h0"></path>
<path d="M584 220h0"></path>
<rect x="516" y="209" width="68" height="22"></rect>
<a xlink:href="reuse_target.svg"><text x="550" y="224">Target</text>
</a>
</g>
</g>
<path d="M798 220a10 10 0 0 0 10 -10v-140"></path>
<path d="M394 70v170a10 10 0 0 0 10 10"></path>
<g>
<path d="M404 250h0"></path>
<path d="M632 250h166"></path>
<g class="terminal">
<path d="M404 250h0"></path>
<path d="M544 250h0"></path>
<rect x="404" y="239" width="140" height="22" rx="10" ry="10"></rect>
<text x="474" y="254">"OUTPUT-LENGTH"</text>
</g>
<path d="M544 250h10"></path>
<path d="M554 250h10"></path>
<g class="non-terminal">
<path d="M564 250h0"></path>
<path d="M632 250h0"></path>
<rect x="564" y="239" width="68" height="22"></rect>
<a xlink:href="reuse_target.svg"><text x="598" y="254">Target</text>
</a>
</g>
</g>
<path d="M798 250a10 10 0 0 0 10 -10v-170"></path>
<path d="M394 70v200a10 10 0 0 0 10 10"></path>
<g>
<path d="M404 280h0"></path>
<path d="M600 280h198"></path>
<g class="terminal">
<path d="M404 280h0"></path>
<path d="M512 280h0"></path>
<rect x="404" y="269" width="108" height="22" rx="10" ry="10"></rect>
<text x="458" y="284">"EDIT MASK"</text>
</g>
<path d="M512 280h10"></path>
<path d="M522 280h10"></path>
<g class="non-terminal">
<path d="M532 280h0"></path>
<path d="M600 280h0"></path>
<rect x="532" y="269" width="68" height="22"></rect>
<a xlink:href="reuse_target.svg"><text x="566" y="284">Target</text>
</a>
</g>
</g>
<path d="M798 280a10 10 0 0 0 10 -10v-200"></path>
<path d="M394 70v230a10 10 0 0 0 10 10"></path>
<g>
<path d="M404 310h0"></path>
<path d="M560 310h238"></path>
<g class="terminal">
<path d="M404 310h0"></path>
<path d="M472 310h0"></path>
<rect x="404" y="299" width="68" height="22" rx="10" ry="10"></rect>
<text x="438" y="314">"INTO"</text>
</g>
<path d="M472 310h10"></path>
<path d="M482 310h10"></path>
<g class="non-terminal">
<path d="M492 310h0"></path>
<path d="M560 310h0"></path>
<rect x="492" y="299" width="68" height="22"></rect>
<a xlink:href="reuse_target.svg"><text x="526" y="314">Target</text>
</a>
</g>
</g>
<path d="M798 310a10 10 0 0 0 10 -10v-230"></path>
<g class="diagram-text">
<title>take one or more branches, once each, in any order</title>
<path d="M 394 60 h -26 a 4 4 0 0 0 -4 4 v 12 a 4 4 0 0 0 4 4 h 26 z" class="diagram-text"></path>
<text x="379" y="74" class="diagram-text">1+</text>
<path d="M 808 60 h 16 a 4 4 0 0 1 4 4 v 12 a 4 4 0 0 1 -4 4 h -16 z" class="diagram-text"></path>
<path d="M 815 68 a 4 4 0 1 0 6 -1 m 2.75 -1 h -4 v 4 m 0 -3 h 2" style="stroke-width: 1.75"></path>
</g>
</g>
</g>
<path d="M998 70a10 10 0 0 0 10 -10v-10a10 10 0 0 1 10 -10"></path>
<path d="M160 40a10 10 0 0 1 10 10v280a10 10 0 0 0 10 10"></path>
<g>
<path d="M180 340h0"></path>
<path d="M998 340h0"></path>
<g class="terminal">
<path d="M180 340h0"></path>
<path d="M344 340h0"></path>
<rect x="180" y="329" width="164" height="22" rx="10" ry="10"></rect>
<text x="262" y="344">"DISTANCE BETWEEN"</text>
</g>
<path d="M344 340h10"></path>
<path d="M354 340h10"></path>
<g class="non-terminal">
<path d="M364 340h0"></path>
<path d="M432 340h0"></path>
<rect x="364" y="329" width="68" height="22"></rect>
<a xlink:href="reuse_source.svg"><text x="398" y="344">Source</text>
</a>
</g>
<path d="M432 340h10"></path>
<path d="M442 340h10"></path>
<g class="terminal">
<path d="M452 340h0"></path>
<path d="M512 340h0"></path>
<rect x="452" y="329" width="60" height="22" rx="10" ry="10"></rect>
<text x="482" y="344">"AND"</text>
</g>
<path d="M512 340h10"></path>
<path d="M522 340h10"></path>
<g class="non-terminal">
<path d="M532 340h0"></path>
<path d="M600 340h0"></path>
<rect x="532" y="329" width="68" height="22"></rect>
<a xlink:href="reuse_source.svg"><text x="566" y="344">Source</text>
</a>
</g>
<path d="M600 340h10"></path>
<path d="M610 340h10"></path>
<g class="terminal">
<path d="M620 340h0"></path>
<path d="M688 340h0"></path>
<rect x="620" y="329" width="68" height="22" rx="10" ry="10"></rect>
<text x="654" y="344">"INTO"</text>
</g>
<path d="M688 340h10"></path>
<path d="M698 340h10"></path>
<g class="non-terminal">
<path d="M708 340h0"></path>
<path d="M776 340h0"></path>
<rect x="708" y="329" width="68" height="22"></rect>
<a xlink:href="reuse_target.svg"><text x="742" y="344">Target</text>
</a>
</g>
<path d="M776 340h10"></path>
<g>
<path d="M786 340h0"></path>
<path d="M998 340h0"></path>
<path d="M786 340h20"></path>
<g class="terminal">
<path d="M806 340h0"></path>
<path d="M938 340h40"></path>
<rect x="806" y="329" width="132" height="22" rx="10" ry="10"></rect>
<text x="872" y="344">"IN BYTE MODE"</text>
</g>
<path d="M978 340h20"></path>
<path d="M786 340a10 10 0 0 1 10 10v10a10 10 0 0 0 10 10"></path>
<g class="terminal">
<path d="M806 370h0"></path>
<path d="M978 370h0"></path>
<rect x="806" y="359" width="172" height="22" rx="10" ry="10"></rect>
<text x="892" y="374">"IN CHARACTER MODE"</text>
</g>
<path d="M978 370a10 10 0 0 0 10 -10v-10a10 10 0 0 1 10 -10"></path>
</g>
</g>
<path d="M998 340a10 10 0 0 0 10 -10v-280a10 10 0 0 1 10 -10"></path>
<path d="M160 40a10 10 0 0 1 10 10v340a10 10 0 0 0 10 10"></path>
<g>
<path d="M180 400h0"></path>
<path d="M464 400h534"></path>
<g class="terminal">
<path d="M180 400h0"></path>
<path d="M376 400h0"></path>
<rect x="180" y="389" width="196" height="22" rx="10" ry="10"></rect>
<text x="278" y="404">"LIST NUMBER OF LINES"</text>
</g>
<path d="M376 400h10"></path>
<path d="M386 400h10"></path>
<g class="non-terminal">
<path d="M396 400h0"></path>
<path d="M464 400h0"></path>
<rect x="396" y="389" width="68" height="22"></rect>
<a xlink:href="reuse_target.svg"><text x="430" y="404">Target</text>
</a>
</g>
</g>
<path d="M998 400a10 10 0 0 0 10 -10v-340a10 10 0 0 1 10 -10"></path>
</g>
</g>
<path d="M1018 40h10"></path>
<path d="M 1028 40 h 20 m -10 -10 v 20 m 10 -20 v 20"></path>
</g>
</svg>
