<svg xmlns="http://www.w3.org/2000/svg" xmlns:xlink="http://www.w3.org/1999/xlink" class="railroad-diagram" width="1068" height="290" viewBox="0 0 1068 290">
<defs>
<style type="text/css"><![CDATA[
path {
stroke-width: 3;
stroke: black;
fill: rgba(0,0,0,0);
}
text {
font: bold 14px monospace;
text-anchor: middle;
}
text.diagram-text {
font-size: 12px;
}
a {
fill: blue;
}
text.diagram-arrow {
font-size: 16px;
}
text.label {
text-anchor: start;
}
text.comment {
font: italic 12px monospace;
}
rect {
stroke-width: 3;
stroke: black;
fill: #BCBCBC;
}
path.diagram-text {
stroke-width: 3;
stroke: black;
fill: #BCBCBC;
cursor: help;
}
]]></style>
</defs>
<g transform="translate(.5 .5)">
<path d="M 20 30 v 20 m 10 -20 v 20 m -10 -10 h 20.5"></path>
<path d="M40 40h10"></path>
<g>
<path d="M50 40h0"></path>
<path d="M1018 40h0"></path>
<g class="terminal">
<path d="M50 40h0"></path>
<path d="M150 40h0"></path>
<rect x="50" y="29" width="100" height="22" rx="10" ry="10"></rect>
<text x="100" y="44">"DESCRIBE"</text>
</g>
<path d="M150 40h10"></path>
<g>
<path d="M160 40h0"></path>
<path d="M1018 40h0"></path>
<path d="M160 40h20"></path>
<g>
<path d="M180 40h0"></path>
<path d="M558 40h440"></path>
<g class="terminal">
<path d="M180 40h0"></path>
<path d="M256 40h0"></path>
<rect x="180" y="29" width="76" height="22" rx="10" ry="10"></rect>
<text x="218" y="44">"TABLE"</text>
</g>
<path d="M256 40h10"></path>
<path d="M266 40h10"></path>
<g class="non-terminal">
<path d="M276 40h0"></path>
<path d="M344 40h0"></path>
<rect x="276" y="29" width="68" height="22"></rect>
<a xlink:href="reuse_source.svg"><text x="310" y="44">Source</text>
</a>
</g>
<path d="M344 40h10"></path>
<g>
<path d="M354 40h0"></path>
<path d="M558 40h0"></path>
<path d="M354 40a10 10 0 0 0 10 -10v0a10 10 0 0 1 10 -10"></path>
<g>
<path d="M374 20h164"></path>
</g>
<path d="M538 20a10 10 0 0 1 10 10v0a10 10 0 0 0 10 10"></path>
<path d="M354 40h20"></path>
<g>
<path d="M374 40h0"></path>
<path d="M538 40h0"></path>
<g class="terminal">
<path d="M374 40h0"></path>
<path d="M450 40h0"></path>
<rect x="374" y="29" width="76" height="22" rx="10" ry="10"></rect>
<text x="412" y="44">"LINES"</text>
</g>
<path d="M450 40h10"></path>
<path d="M460 40h10"></path>
<g class="non-terminal">
<path d="M470 40h0"></path>
<path d="M538 40h0"></path>
<rect x="470" y="29" width="68" height="22"></rect>
<a xlink:href="reuse_target.svg"><text x="504" y="44">Target</text>
</a>
</g>
</g>
<path d="M538 40h20"></path>
</g>
</g>
<path d="M998 40h20"></path>
<path d="M160 40a10 10 0 0 1 10 10v19a10 10 0 0 0 10 10"></path>
<g>
<path d="M180 79h0"></path>
<path d="M844 79h154"></path>
<g class="terminal">
<path d="M180 79h0"></path>
<path d="M256 79h0"></path>
<rect x="180" y="68" width="76" height="22" rx="10" ry="10"></rect>
<text x="218" y="83">"FIELD"</text>
</g>
<path d="M256 79h10"></path>
<path d="M266 79h10"></path>
<g class="non-terminal">
<path d="M276 79h0"></path>
<path d="M344 79h0"></path>
<rect x="276" y="68" width="68" height="22"></rect>
<a xlink:href="reuse_source.svg"><text x="310" y="83">Source</text>
</a>
</g>
<path d="M344 79h10"></path>
<path d="M354 79h10"></path>
<g>
<path d="M364 79h0"></path>
<path d="M844 79h0"></path>
<path d="M394 79h10"></path>
<g>
<path d="M404 79h0"></path>
<path d="M814 79h0"></path>
<g class="terminal">
<path d="M404 79h0"></path>
<path d="M472 79h0"></path>
<rect x="404" y="68" width="68" height="22" rx="10" ry="10"></rect>
<text x="438" y="83">"TYPE"</text>
</g>
<path d="M472 79h10"></path>
<path d="M482 79h10"></path>
<g class="non-terminal">
<path d="M492 79h0"></path>
<path d="M560 79h0"></path>
<rect x="492" y="68" width="68" height="22"></rect>
<a xlink:href="reuse_target.svg"><text x="526" y="83">Target</text>
</a>
</g>
<path d="M560 79h10"></path>
<g>
<path d="M570 79h0"></path>
<path d="M814 79h0"></path>
<path d="M570 79a10 10 0 0 0 10 -10v0a10 10 0 0 1 10 -10"></path>
<g>
<path d="M590 59h204"></path>
</g>
<path d="M794 59a10 10 0 0 1 10 10v0a10 10 0 0 0 10 10"></path>
<path d="M570 79h20"></path>
<g>
<path d="M590 79h0"></path>
<path d="M794 79h0"></path>
<g class="terminal">
<path d="M590 79h0"></path>
<path d="M706 79h0"></path>
<rect x="590" y="68" width="116" height="22" rx="10" ry="10"></rect>
<text x="648" y="83">"COMPONENTS"</text>
</g>
<path d="M706 79h10"></path>
<path d="M716 79h10"></path>
<g class="non-terminal">
<path d="M726 79h0"></path>
<path d="M794 79h0"></path>
<rect x="726" y="68" width="68" height="22"></rect>
<a xlink:href="reuse_target.svg"><text x="760" y="83">Target</text>
</a>
</g>
</g>
<path d="M794 79h20"></path>
</g>
</g>
<path d="M814 79h10"></path>
<path d="M394 79v20a10 10 0 0 0 10 10"></path>
<g>
<path d="M404 109h0"></path>
<path d="M798 109h16"></path>
<g class="terminal">
<path d="M404 109h0"></path>
<path d="M488 109h0"></path>
<rect x="404" y="98" width="84" height="22" rx="10" ry="10"></rect>
<text x="446" y="113">"LENGTH"</text>
</g>
<path d="M488 109h10"></path>
<path d="M498 109h10"></path>
<g class="non-terminal">
<path d="M508 109h0"></path>
<path d="M576 109h0"></path>
<rect x="508" y="98" width="68" height="22"></rect>
<a xlink:href="reuse_target.svg"><text x="542" y="113">Target</text>
</a>
</g>
<path d="M576 109h10"></path>
<g>
<path d="M586 109h0"></path>
<path d="M798 109h0"></path>
<path d="M586 109h20"></path>
<g class="terminal">
<path d="M606 109h0"></path>
<path d="M738 109h40"></path>
<rect x="606" y="98" width="132" height="22" rx="10" ry="10"></rect>
<text x="672" y="113">"IN BYTE MODE"</text>
</g>
<path d="M778 109h20"></path>
<path d="M586 109a10 10 0 0 1 10 10v10a10 10 0 0 0 10 10"></path>
<g class="terminal">
<path d="M606 139h0"></path>
<path d="M778 139h0"></path>
<rect x="606" y="128" width="172" height="22" rx="10" ry="10"></rect>
<text x="692" y="143">"IN CHARACTER MODE"</text>
</g>
<path d="M778 139a10 10 0 0 0 10 -10v-10a10 10 0 0 1 10 -10"></path>
</g>
</g>
<path d="M814 109a10 10 0 0 0 10 -10v-20"></path>
<path d="M394 79v80a10 10 0 0 0 10 10"></path>
<g>
<path d="M404 169h0"></path>
<path d="M560 169h254"></path>
<g class="terminal">
<path d="M404 169h0"></path>
<path d="M472 169h0"></path>
<rect x="404" y="158" width="68" height="22" rx="10" ry="10"></rect>
<text x="438" y="173">"INTO"</text>
</g>
<path d="M472 169h10"></path>
<path d="M482 169h10"></path>
<g class="non-terminal">
<path d="M492 169h0"></path>
<path d="M560 169h0"></path>
<rect x="492" y="158" width="68" height="22"></rect>
<a xlink:href="reuse_target.svg"><text x="526" y="173">Target</text>
</a>
</g>
</g>
<path d="M814 169a10 10 0 0 0 10 -10v-80"></path>
<g class="diagram-text">
<title>take one or more branches, once each, in any order</title>
<path d="M 394 69 h -26 a 4 4 0 0 0 -4 4 v 12 a 4 4 0 0 0 4 4 h 26 z" class="diagram-text"></path>
<text x="379" y="83" class="diagram-text">1+</text>
<path d="M 824 69 h 16 a 4 4 0 0 1 4 4 v 12 a 4 4 0 0 1 -4 4 h -16 z" class="diagram-text"></path>
<path d="M 831 77 a 4 4 0 1 0 6 -1 m 2.75 -1 h -4 v 4 m 0 -3 h 2" style="stroke-width: 1.75"></path>
</g>
</g>
</g>
<path d="M998 79a10 10 0 0 0 10 -10v-19a10 10 0 0 1 10 -10"></path>
<path d="M160 40a10 10 0 0 1 10 10v139a10 10 0 0 0 10 10"></path>
<g>
<path d="M180 199h0"></path>
<path d="M560 199h438"></path>
<g class="terminal">
<path d="M180 199h0"></path>
<path d="M256 199h0"></path>
<rect x="180" y="188" width="76" height="22" rx="10" ry="10"></rect>
<text x="218" y="203">"FIELD"</text>
</g>
<path d="M256 199h10"></path>
<path d="M266 199h10"></path>
<g class="non-terminal">
<path d="M276 199h0"></path>
<path d="M344 199h0"></path>
<rect x="276" y="188" width="68" height="22"></rect>
<a xlink:href="reuse_source.svg"><text x="310" y="203">Source</text>
</a>
</g>
<path d="M344 199h10"></path>
<path d="M354 199h10"></path>
<g class="terminal">
<path d="M364 199h0"></path>
<path d="M472 199h0"></path>
<rect x="364" y="188" width="108" height="22" rx="10" ry="10"></rect>
<text x="418" y="203">"EDIT MASK"</text>
</g>
<path d="M472 199h10"></path>
<path d="M482 199h10"></path>
<g class="non-terminal">
<path d="M492 199h0"></path>
<path d="M560 199h0"></path>
<rect x="492" y="188" width="68" height="22"></rect>
<a xlink:href="reuse_target.svg"><text x="526" y="203">Target</text>
</a>
</g>
</g>
<path d="M998 199a10 10 0 0 0 10 -10v-139a10 10 0 0 1 10 -10"></path>
<path d="M160 40a10 10 0 0 1 10 10v169a10 10 0 0 0 10 10"></path>
<g>
<path d="M180 229h0"></path>
<path d="M998 229h0"></path>
<g class="terminal">
<path d="M180 229h0"></path>
<path d="M344 229h0"></path>
<rect x="180" y="218" width="164" height="22" rx="10" ry="10"></rect>
<text x="262" y="233">"DISTANCE BETWEEN"</text>
</g>
<path d="M344 229h10"></path>
<path d="M354 229h10"></path>
<g class="non-terminal">
<path d="M364 229h0"></path>
<path d="M432 229h0"></path>
<rect x="364" y="218" width="68" height="22"></rect>
<a xlink:href="reuse_source.svg"><text x="398" y="233">Source</text>
</a>
</g>
<path d="M432 229h10"></path>
<path d="M442 229h10"></path>
<g class="terminal">
<path d="M452 229h0"></path>
<path d="M512 229h0"></path>
<rect x="452" y="218" width="60" height="22" rx="10" ry="10"></rect>
<text x="482" y="233">"AND"</text>
</g>
<path d="M512 229h10"></path>
<path d="M522 229h10"></path>
<g class="non-terminal">
<path d="M532 229h0"></path>
<path d="M600 229h0"></path>
<rect x="532" y="218" width="68" height="22"></rect>
<a xlink:href="reuse_source.svg"><text x="566" y="233">Source</text>
</a>
</g>
<path d="M600 229h10"></path>
<path d="M610 229h10"></path>
<g class="terminal">
<path d="M620 229h0"></path>
<path d="M688 229h0"></path>
<rect x="620" y="218" width="68" height="22" rx="10" ry="10"></rect>
<text x="654" y="233">"INTO"</text>
</g>
<path d="M688 229h10"></path>
<path d="M698 229h10"></path>
<g class="non-terminal">
<path d="M708 229h0"></path>
<path d="M776 229h0"></path>
<rect x="708" y="218" width="68" height="22"></rect>
<a xlink:href="reuse_target.svg"><text x="742" y="233">Target</text>
</a>
</g>
<path d="M776 229h10"></path>
<g>
<path d="M786 229h0"></path>
<path d="M998 229h0"></path>
<path d="M786 229h20"></path>
<g class="terminal">
<path d="M806 229h0"></path>
<path d="M938 229h40"></path>
<rect x="806" y="218" width="132" height="22" rx="10" ry="10"></rect>
<text x="872" y="233">"IN BYTE MODE"</text>
</g>
<path d="M978 229h20"></path>
<path d="M786 229a10 10 0 0 1 10 10v10a10 10 0 0 0 10 10"></path>
<g class="terminal">
<path d="M806 259h0"></path>
<path d="M978 259h0"></path>
<rect x="806" y="248" width="172" height="22" rx="10" ry="10"></rect>
<text x="892" y="263">"IN CHARACTER MODE"</text>
</g>
<path d="M978 259a10 10 0 0 0 10 -10v-10a10 10 0 0 1 10 -10"></path>
</g>
</g>
<path d="M998 229a10 10 0 0 0 10 -10v-169a10 10 0 0 1 10 -10"></path>
</g>
</g>
<path d="M1018 40h10"></path>
<path d="M 1028 40 h 20 m -10 -10 v 20 m 10 -20 v 20"></path>
</g>
</svg>
