<svg xmlns="http://www.w3.org/2000/svg" xmlns:xlink="http://www.w3.org/1999/xlink" class="railroad-diagram" width="998" height="200" viewBox="0 0 998 200">
<defs>
<style type="text/css"><![CDATA[
path {
stroke-width: 3;
stroke: black;
fill: rgba(0,0,0,0);
}
text {
font: bold 14px monospace;
text-anchor: middle;
}
text.diagram-text {
font-size: 12px;
}
a {
fill: blue;
}
text.diagram-arrow {
font-size: 16px;
}
text.label {
text-anchor: start;
}
text.comment {
font: italic 12px monospace;
}
rect {
stroke-width: 3;
stroke: black;
fill: #BCBCBC;
}
path.diagram-text {
stroke-width: 3;
stroke: black;
fill: #BCBCBC;
cursor: help;
}
]]></style>
</defs>
<g transform="translate(.5 .5)">
<path d="M 20 30 v 20 m 10 -20 v 20 m -10 -10 h 20.5"></path>
<path d="M40 40h10"></path>
<g>
<path d="M50 40h0"></path>
<path d="M948 40h0"></path>
<g class="terminal">
<path d="M50 40h0"></path>
<path d="M150 40h0"></path>
<rect x="50" y="29" width="100" height="22" rx="10" ry="10"></rect>
<text x="100" y="44">"DESCRIBE"</text>
</g>
<path d="M150 40h10"></path>
<g>
<path d="M160 40h0"></path>
<path d="M948 40h0"></path>
<path d="M160 40h20"></path>
<g>
<path d="M180 40h185"></path>
<path d="M743 40h185"></path>
<g class="terminal">
<path d="M365 40h0"></path>
<path d="M441 40h0"></path>
<rect x="365" y="29" width="76" height="22" rx="10" ry="10"></rect>
<text x="403" y="44">"TABLE"</text>
</g>
<path d="M441 40h10"></path>
<path d="M451 40h10"></path>
<g class="non-terminal">
<path d="M461 40h0"></path>
<path d="M529 40h0"></path>
<rect x="461" y="29" width="68" height="22"></rect>
<a xlink:href="reuse_source.svg"><text x="495" y="44">source</text>
</a>
</g>
<path d="M529 40h10"></path>
<g>
<path d="M539 40h0"></path>
<path d="M743 40h0"></path>
<path d="M539 40a10 10 0 0 0 10 -10v0a10 10 0 0 1 10 -10"></path>
<g>
<path d="M559 20h164"></path>
</g>
<path d="M723 20a10 10 0 0 1 10 10v0a10 10 0 0 0 10 10"></path>
<path d="M539 40h20"></path>
<g>
<path d="M559 40h0"></path>
<path d="M723 40h0"></path>
<g class="terminal">
<path d="M559 40h0"></path>
<path d="M635 40h0"></path>
<rect x="559" y="29" width="76" height="22" rx="10" ry="10"></rect>
<text x="597" y="44">"LINES"</text>
</g>
<path d="M635 40h10"></path>
<path d="M645 40h10"></path>
<g class="non-terminal">
<path d="M655 40h0"></path>
<path d="M723 40h0"></path>
<rect x="655" y="29" width="68" height="22"></rect>
<a xlink:href="reuse_target.svg"><text x="689" y="44">target</text>
</a>
</g>
</g>
<path d="M723 40h20"></path>
</g>
</g>
<path d="M928 40h20"></path>
<path d="M160 40a10 10 0 0 1 10 10v19a10 10 0 0 0 10 10"></path>
<g>
<path d="M180 79h62"></path>
<path d="M866 79h62"></path>
<g class="terminal">
<path d="M242 79h0"></path>
<path d="M318 79h0"></path>
<rect x="242" y="68" width="76" height="22" rx="10" ry="10"></rect>
<text x="280" y="83">"FIELD"</text>
</g>
<path d="M318 79h10"></path>
<path d="M328 79h10"></path>
<g class="non-terminal">
<path d="M338 79h0"></path>
<path d="M406 79h0"></path>
<rect x="338" y="68" width="68" height="22"></rect>
<a xlink:href="reuse_source.svg"><text x="372" y="83">source</text>
</a>
</g>
<path d="M406 79h10"></path>
<g>
<path d="M416 79h0"></path>
<path d="M866 79h0"></path>
<path d="M416 79h20"></path>
<g>
<path d="M436 79h0"></path>
<path d="M846 79h0"></path>
<g class="terminal">
<path d="M436 79h0"></path>
<path d="M504 79h0"></path>
<rect x="436" y="68" width="68" height="22" rx="10" ry="10"></rect>
<text x="470" y="83">"TYPE"</text>
</g>
<path d="M504 79h10"></path>
<path d="M514 79h10"></path>
<g class="non-terminal">
<path d="M524 79h0"></path>
<path d="M592 79h0"></path>
<rect x="524" y="68" width="68" height="22"></rect>
<a xlink:href="reuse_target.svg"><text x="558" y="83">target</text>
</a>
</g>
<path d="M592 79h10"></path>
<g>
<path d="M602 79h0"></path>
<path d="M846 79h0"></path>
<path d="M602 79a10 10 0 0 0 10 -10v0a10 10 0 0 1 10 -10"></path>
<g>
<path d="M622 59h204"></path>
</g>
<path d="M826 59a10 10 0 0 1 10 10v0a10 10 0 0 0 10 10"></path>
<path d="M602 79h20"></path>
<g>
<path d="M622 79h0"></path>
<path d="M826 79h0"></path>
<g class="terminal">
<path d="M622 79h0"></path>
<path d="M738 79h0"></path>
<rect x="622" y="68" width="116" height="22" rx="10" ry="10"></rect>
<text x="680" y="83">"COMPONENTS"</text>
</g>
<path d="M738 79h10"></path>
<path d="M748 79h10"></path>
<g class="non-terminal">
<path d="M758 79h0"></path>
<path d="M826 79h0"></path>
<rect x="758" y="68" width="68" height="22"></rect>
<a xlink:href="reuse_target.svg"><text x="792" y="83">target</text>
</a>
</g>
</g>
<path d="M826 79h20"></path>
</g>
</g>
<path d="M846 79h20"></path>
<path d="M416 79a10 10 0 0 1 10 10v10a10 10 0 0 0 10 10"></path>
<g>
<path d="M436 109h43"></path>
<path d="M803 109h43"></path>
<g class="terminal">
<path d="M479 109h0"></path>
<path d="M563 109h0"></path>
<rect x="479" y="98" width="84" height="22" rx="10" ry="10"></rect>
<text x="521" y="113">"LENGTH"</text>
</g>
<path d="M563 109h10"></path>
<path d="M573 109h10"></path>
<g class="non-terminal">
<path d="M583 109h0"></path>
<path d="M651 109h0"></path>
<rect x="583" y="98" width="68" height="22"></rect>
<a xlink:href="reuse_target.svg"><text x="617" y="113">target</text>
</a>
</g>
<path d="M651 109h10"></path>
<path d="M661 109h10"></path>
<g class="terminal">
<path d="M671 109h0"></path>
<path d="M803 109h0"></path>
<rect x="671" y="98" width="132" height="22" rx="10" ry="10"></rect>
<text x="737" y="113">"IN BYTE MODE"</text>
</g>
</g>
<path d="M846 109a10 10 0 0 0 10 -10v-10a10 10 0 0 1 10 -10"></path>
<path d="M416 79a10 10 0 0 1 10 10v40a10 10 0 0 0 10 10"></path>
<g>
<path d="M436 139h127"></path>
<path d="M719 139h127"></path>
<g class="terminal">
<path d="M563 139h0"></path>
<path d="M631 139h0"></path>
<rect x="563" y="128" width="68" height="22" rx="10" ry="10"></rect>
<text x="597" y="143">"INTO"</text>
</g>
<path d="M631 139h10"></path>
<path d="M641 139h10"></path>
<g class="non-terminal">
<path d="M651 139h0"></path>
<path d="M719 139h0"></path>
<rect x="651" y="128" width="68" height="22"></rect>
<a xlink:href="reuse_target.svg"><text x="685" y="143">target</text>
</a>
</g>
</g>
<path d="M846 139a10 10 0 0 0 10 -10v-40a10 10 0 0 1 10 -10"></path>
</g>
</g>
<path d="M928 79a10 10 0 0 0 10 -10v-19a10 10 0 0 1 10 -10"></path>
<path d="M160 40a10 10 0 0 1 10 10v109a10 10 0 0 0 10 10"></path>
<g>
<path d="M180 169h0"></path>
<path d="M928 169h0"></path>
<g class="terminal">
<path d="M180 169h0"></path>
<path d="M344 169h0"></path>
<rect x="180" y="158" width="164" height="22" rx="10" ry="10"></rect>
<text x="262" y="173">"DISTANCE BETWEEN"</text>
</g>
<path d="M344 169h10"></path>
<path d="M354 169h10"></path>
<g class="non-terminal">
<path d="M364 169h0"></path>
<path d="M432 169h0"></path>
<rect x="364" y="158" width="68" height="22"></rect>
<a xlink:href="reuse_source.svg"><text x="398" y="173">source</text>
</a>
</g>
<path d="M432 169h10"></path>
<path d="M442 169h10"></path>
<g class="terminal">
<path d="M452 169h0"></path>
<path d="M512 169h0"></path>
<rect x="452" y="158" width="60" height="22" rx="10" ry="10"></rect>
<text x="482" y="173">"AND"</text>
</g>
<path d="M512 169h10"></path>
<path d="M522 169h10"></path>
<g class="non-terminal">
<path d="M532 169h0"></path>
<path d="M600 169h0"></path>
<rect x="532" y="158" width="68" height="22"></rect>
<a xlink:href="reuse_source.svg"><text x="566" y="173">source</text>
</a>
</g>
<path d="M600 169h10"></path>
<path d="M610 169h10"></path>
<g class="terminal">
<path d="M620 169h0"></path>
<path d="M688 169h0"></path>
<rect x="620" y="158" width="68" height="22" rx="10" ry="10"></rect>
<text x="654" y="173">"INTO"</text>
</g>
<path d="M688 169h10"></path>
<path d="M698 169h10"></path>
<g class="non-terminal">
<path d="M708 169h0"></path>
<path d="M776 169h0"></path>
<rect x="708" y="158" width="68" height="22"></rect>
<a xlink:href="reuse_target.svg"><text x="742" y="173">target</text>
</a>
</g>
<path d="M776 169h10"></path>
<path d="M786 169h10"></path>
<g class="terminal">
<path d="M796 169h0"></path>
<path d="M928 169h0"></path>
<rect x="796" y="158" width="132" height="22" rx="10" ry="10"></rect>
<text x="862" y="173">"IN BYTE MODE"</text>
</g>
</g>
<path d="M928 169a10 10 0 0 0 10 -10v-109a10 10 0 0 1 10 -10"></path>
</g>
</g>
<path d="M948 40h10"></path>
<path d="M 958 40 h 20 m -10 -10 v 20 m 10 -20 v 20"></path>
</g>
</svg>
