<svg xmlns="http://www.w3.org/2000/svg" xmlns:xlink="http://www.w3.org/1999/xlink" class="railroad-diagram" width="1154" height="500" viewBox="0 0 1154 500">
<defs>
<style type="text/css"><![CDATA[
path {
stroke-width: 3;
stroke: black;
fill: rgba(0,0,0,0);
}
text {
font: bold 14px monospace;
text-anchor: middle;
}
text.diagram-text {
font-size: 12px;
}
a {
fill: blue;
}
text.diagram-arrow {
font-size: 16px;
}
text.label {
text-anchor: start;
}
text.comment {
font: italic 12px monospace;
}
rect {
stroke-width: 3;
stroke: black;
fill: #BCBCBC;
}
path.diagram-text {
stroke-width: 3;
stroke: black;
fill: #BCBCBC;
cursor: help;
}
]]></style>
</defs>
<g transform="translate(.5 .5)">
<path d="M 20 30 v 20 m 10 -20 v 20 m -10 -10 h 20.5"></path>
<path d="M40 40h10"></path>
<g>
<path d="M50 40h0"></path>
<path d="M1104 40h0"></path>
<g class="terminal">
<path d="M50 40h0"></path>
<path d="M150 40h0"></path>
<rect x="50" y="29" width="100" height="22" rx="10" ry="10"></rect>
<text x="100" y="44">"DESCRIBE"</text>
</g>
<path d="M150 40h10"></path>
<g>
<path d="M160 40h0"></path>
<path d="M1104 40h0"></path>
<path d="M160 40h20"></path>
<g>
<path d="M180 40h0"></path>
<path d="M628 40h456"></path>
<g class="terminal">
<path d="M180 40h0"></path>
<path d="M256 40h0"></path>
<rect x="180" y="29" width="76" height="22" rx="10" ry="10"></rect>
<text x="218" y="44">"TABLE"</text>
</g>
<path d="M256 40h10"></path>
<path d="M266 40h10"></path>
<g class="non-terminal">
<path d="M276 40h0"></path>
<path d="M344 40h0"></path>
<rect x="276" y="29" width="68" height="22"></rect>
<a xlink:href="reuse_source.svg"><text x="310" y="44">Source</text>
</a>
</g>
<path d="M344 40h10"></path>
<g>
<path d="M354 40h0"></path>
<path d="M628 40h0"></path>
<path d="M354 40a10 10 0 0 0 10 -10v0a10 10 0 0 1 10 -10"></path>
<g>
<path d="M374 20h234"></path>
</g>
<path d="M608 20a10 10 0 0 1 10 10v0a10 10 0 0 0 10 10"></path>
<path d="M354 40h20"></path>
<g>
<path d="M374 40h0"></path>
<path d="M608 40h0"></path>
<path d="M404 40h10"></path>
<g>
<path d="M414 40h0"></path>
<path d="M578 40h0"></path>
<g class="terminal">
<path d="M414 40h0"></path>
<path d="M490 40h0"></path>
<rect x="414" y="29" width="76" height="22" rx="10" ry="10"></rect>
<text x="452" y="44">"LINES"</text>
</g>
<path d="M490 40h10"></path>
<path d="M500 40h10"></path>
<g class="non-terminal">
<path d="M510 40h0"></path>
<path d="M578 40h0"></path>
<rect x="510" y="29" width="68" height="22"></rect>
<a xlink:href="reuse_target.svg"><text x="544" y="44">Target</text>
</a>
</g>
</g>
<path d="M578 40h10"></path>
<path d="M404 40v20a10 10 0 0 0 10 10"></path>
<g>
<path d="M414 70h0"></path>
<path d="M570 70h8"></path>
<g class="terminal">
<path d="M414 70h0"></path>
<path d="M482 70h0"></path>
<rect x="414" y="59" width="68" height="22" rx="10" ry="10"></rect>
<text x="448" y="74">"KIND"</text>
</g>
<path d="M482 70h10"></path>
<path d="M492 70h10"></path>
<g class="non-terminal">
<path d="M502 70h0"></path>
<path d="M570 70h0"></path>
<rect x="502" y="59" width="68" height="22"></rect>
<a xlink:href="reuse_target.svg"><text x="536" y="74">Target</text>
</a>
</g>
</g>
<path d="M578 70a10 10 0 0 0 10 -10v-20"></path>
<g class="diagram-text">
<title>take one or more branches, once each, in any order</title>
<path d="M 404 30 h -26 a 4 4 0 0 0 -4 4 v 12 a 4 4 0 0 0 4 4 h 26 z" class="diagram-text"></path>
<text x="389" y="44" class="diagram-text">1+</text>
<path d="M 588 30 h 16 a 4 4 0 0 1 4 4 v 12 a 4 4 0 0 1 -4 4 h -16 z" class="diagram-text"></path>
<path d="M 595 38 a 4 4 0 1 0 6 -1 m 2.75 -1 h -4 v 4 m 0 -3 h 2" style="stroke-width: 1.75"></path>
</g>
</g>
<path d="M608 40h20"></path>
</g>
</g>
<path d="M1084 40h20"></path>
<path d="M160 40a10 10 0 0 1 10 10v40a10 10 0 0 0 10 10"></path>
<g>
<path d="M180 100h0"></path>
<path d="M944 100h140"></path>
<g class="terminal">
<path d="M180 100h0"></path>
<path d="M256 100h0"></path>
<rect x="180" y="89" width="76" height="22" rx="10" ry="10"></rect>
<text x="218" y="104">"FIELD"</text>
</g>
<path d="M256 100h10"></path>
<path d="M266 100h10"></path>
<g class="non-terminal">
<path d="M276 100h0"></path>
<path d="M344 100h0"></path>
<rect x="276" y="89" width="68" height="22"></rect>
<a xlink:href="reuse_source.svg"><text x="310" y="104">Source</text>
</a>
</g>
<path d="M344 100h10"></path>
<path d="M354 100h10"></path>
<g>
<path d="M364 100h0"></path>
<path d="M944 100h0"></path>
<path d="M394 100h10"></path>
<g>
<path d="M404 100h0"></path>
<path d="M560 100h354"></path>
<g class="terminal">
<path d="M404 100h0"></path>
<path d="M472 100h0"></path>
<rect x="404" y="89" width="68" height="22" rx="10" ry="10"></rect>
<text x="438" y="104">"TYPE"</text>
</g>
<path d="M472 100h10"></path>
<path d="M482 100h10"></path>
<g class="non-terminal">
<path d="M492 100h0"></path>
<path d="M560 100h0"></path>
<rect x="492" y="89" width="68" height="22"></rect>
<a xlink:href="reuse_target.svg"><text x="526" y="104">Target</text>
</a>
</g>
</g>
<path d="M914 100h10"></path>
<path d="M394 100v20a10 10 0 0 0 10 10"></path>
<g>
<path d="M404 130h0"></path>
<path d="M608 130h306"></path>
<g class="terminal">
<path d="M404 130h0"></path>
<path d="M520 130h0"></path>
<rect x="404" y="119" width="116" height="22" rx="10" ry="10"></rect>
<text x="462" y="134">"COMPONENTS"</text>
</g>
<path d="M520 130h10"></path>
<path d="M530 130h10"></path>
<g class="non-terminal">
<path d="M540 130h0"></path>
<path d="M608 130h0"></path>
<rect x="540" y="119" width="68" height="22"></rect>
<a xlink:href="reuse_target.svg"><text x="574" y="134">Target</text>
</a>
</g>
</g>
<path d="M914 130a10 10 0 0 0 10 -10v-20"></path>
<path d="M394 100v59a10 10 0 0 0 10 10"></path>
<g>
<path d="M404 169h0"></path>
<path d="M914 169h0"></path>
<g class="terminal">
<path d="M404 169h0"></path>
<path d="M488 169h0"></path>
<rect x="404" y="158" width="84" height="22" rx="10" ry="10"></rect>
<text x="446" y="173">"LENGTH"</text>
</g>
<path d="M488 169h10"></path>
<path d="M498 169h10"></path>
<g class="non-terminal">
<path d="M508 169h0"></path>
<path d="M576 169h0"></path>
<rect x="508" y="158" width="68" height="22"></rect>
<a xlink:href="reuse_target.svg"><text x="542" y="173">Target</text>
</a>
</g>
<path d="M576 169h10"></path>
<g>
<path d="M586 169h0"></path>
<path d="M914 169h0"></path>
<path d="M586 169a10 10 0 0 0 10 -10v0a10 10 0 0 1 10 -10"></path>
<g>
<path d="M606 149h288"></path>
</g>
<path d="M894 149a10 10 0 0 1 10 10v0a10 10 0 0 0 10 10"></path>
<path d="M586 169h20"></path>
<g>
<path d="M606 169h0"></path>
<path d="M894 169h0"></path>
<g class="terminal">
<path d="M606 169h0"></path>
<path d="M658 169h0"></path>
<rect x="606" y="158" width="52" height="22" rx="10" ry="10"></rect>
<text x="632" y="173">"IN"</text>
</g>
<path d="M658 169h10"></path>
<g>
<path d="M668 169h0"></path>
<path d="M816 169h0"></path>
<path d="M668 169h20"></path>
<g class="terminal">
<path d="M688 169h0"></path>
<path d="M756 169h40"></path>
<rect x="688" y="158" width="68" height="22" rx="10" ry="10"></rect>
<text x="722" y="173">"BYTE"</text>
</g>
<path d="M796 169h20"></path>
<path d="M668 169a10 10 0 0 1 10 10v10a10 10 0 0 0 10 10"></path>
<g class="terminal">
<path d="M688 199h0"></path>
<path d="M796 199h0"></path>
<rect x="688" y="188" width="108" height="22" rx="10" ry="10"></rect>
<text x="742" y="203">"CHARACTER"</text>
</g>
<path d="M796 199a10 10 0 0 0 10 -10v-10a10 10 0 0 1 10 -10"></path>
</g>
<path d="M816 169h10"></path>
<g class="terminal">
<path d="M826 169h0"></path>
<path d="M894 169h0"></path>
<rect x="826" y="158" width="68" height="22" rx="10" ry="10"></rect>
<text x="860" y="173">"MODE"</text>
</g>
</g>
<path d="M894 169h20"></path>
</g>
</g>
<path d="M914 169a10 10 0 0 0 10 -10v-59"></path>
<path d="M394 100v119a10 10 0 0 0 10 10"></path>
<g>
<path d="M404 229h0"></path>
<path d="M592 229h322"></path>
<g class="terminal">
<path d="M404 229h0"></path>
<path d="M504 229h0"></path>
<rect x="404" y="218" width="100" height="22" rx="10" ry="10"></rect>
<text x="454" y="233">"DECIMALS"</text>
</g>
<path d="M504 229h10"></path>
<path d="M514 229h10"></path>
<g class="non-terminal">
<path d="M524 229h0"></path>
<path d="M592 229h0"></path>
<rect x="524" y="218" width="68" height="22"></rect>
<a xlink:href="reuse_target.svg"><text x="558" y="233">Target</text>
</a>
</g>
</g>
<path d="M914 229a10 10 0 0 0 10 -10v-119"></path>
<path d="M394 100v149a10 10 0 0 0 10 10"></path>
<g>
<path d="M404 259h0"></path>
<path d="M584 259h330"></path>
<g class="terminal">
<path d="M404 259h0"></path>
<path d="M496 259h0"></path>
<rect x="404" y="248" width="92" height="22" rx="10" ry="10"></rect>
<text x="450" y="263">"HELP-ID"</text>
</g>
<path d="M496 259h10"></path>
<path d="M506 259h10"></path>
<g class="non-terminal">
<path d="M516 259h0"></path>
<path d="M584 259h0"></path>
<rect x="516" y="248" width="68" height="22"></rect>
<a xlink:href="reuse_target.svg"><text x="550" y="263">Target</text>
</a>
</g>
</g>
<path d="M914 259a10 10 0 0 0 10 -10v-149"></path>
<path d="M394 100v179a10 10 0 0 0 10 10"></path>
<g>
<path d="M404 289h0"></path>
<path d="M632 289h282"></path>
<g class="terminal">
<path d="M404 289h0"></path>
<path d="M544 289h0"></path>
<rect x="404" y="278" width="140" height="22" rx="10" ry="10"></rect>
<text x="474" y="293">"OUTPUT-LENGTH"</text>
</g>
<path d="M544 289h10"></path>
<path d="M554 289h10"></path>
<g class="non-terminal">
<path d="M564 289h0"></path>
<path d="M632 289h0"></path>
<rect x="564" y="278" width="68" height="22"></rect>
<a xlink:href="reuse_target.svg"><text x="598" y="293">Target</text>
</a>
</g>
</g>
<path d="M914 289a10 10 0 0 0 10 -10v-179"></path>
<path d="M394 100v209a10 10 0 0 0 10 10"></path>
<g>
<path d="M404 319h0"></path>
<path d="M600 319h314"></path>
<g class="terminal">
<path d="M404 319h0"></path>
<path d="M512 319h0"></path>
<rect x="404" y="308" width="108" height="22" rx="10" ry="10"></rect>
<text x="458" y="323">"EDIT MASK"</text>
</g>
<path d="M512 319h10"></path>
<path d="M522 319h10"></path>
<g class="non-terminal">
<path d="M532 319h0"></path>
<path d="M600 319h0"></path>
<rect x="532" y="308" width="68" height="22"></rect>
<a xlink:href="reuse_target.svg"><text x="566" y="323">Target</text>
</a>
</g>
</g>
<path d="M914 319a10 10 0 0 0 10 -10v-209"></path>
<path d="M394 100v239a10 10 0 0 0 10 10"></path>
<g>
<path d="M404 349h0"></path>
<path d="M560 349h354"></path>
<g class="terminal">
<path d="M404 349h0"></path>
<path d="M472 349h0"></path>
<rect x="404" y="338" width="68" height="22" rx="10" ry="10"></rect>
<text x="438" y="353">"INTO"</text>
</g>
<path d="M472 349h10"></path>
<path d="M482 349h10"></path>
<g class="non-terminal">
<path d="M492 349h0"></path>
<path d="M560 349h0"></path>
<rect x="492" y="338" width="68" height="22"></rect>
<a xlink:href="reuse_target.svg"><text x="526" y="353">Target</text>
</a>
</g>
</g>
<path d="M914 349a10 10 0 0 0 10 -10v-239"></path>
<g class="diagram-text">
<title>take one or more branches, once each, in any order</title>
<path d="M 394 90 h -26 a 4 4 0 0 0 -4 4 v 12 a 4 4 0 0 0 4 4 h 26 z" class="diagram-text"></path>
<text x="379" y="104" class="diagram-text">1+</text>
<path d="M 924 90 h 16 a 4 4 0 0 1 4 4 v 12 a 4 4 0 0 1 -4 4 h -16 z" class="diagram-text"></path>
<path d="M 931 98 a 4 4 0 1 0 6 -1 m 2.75 -1 h -4 v 4 m 0 -3 h 2" style="stroke-width: 1.75"></path>
</g>
</g>
</g>
<path d="M1084 100a10 10 0 0 0 10 -10v-40a10 10 0 0 1 10 -10"></path>
<path d="M160 40a10 10 0 0 1 10 10v319a10 10 0 0 0 10 10"></path>
<g>
<path d="M180 379h0"></path>
<path d="M1084 379h0"></path>
<g class="terminal">
<path d="M180 379h0"></path>
<path d="M344 379h0"></path>
<rect x="180" y="368" width="164" height="22" rx="10" ry="10"></rect>
<text x="262" y="383">"DISTANCE BETWEEN"</text>
</g>
<path d="M344 379h10"></path>
<path d="M354 379h10"></path>
<g class="non-terminal">
<path d="M364 379h0"></path>
<path d="M432 379h0"></path>
<rect x="364" y="368" width="68" height="22"></rect>
<a xlink:href="reuse_source.svg"><text x="398" y="383">Source</text>
</a>
</g>
<path d="M432 379h10"></path>
<path d="M442 379h10"></path>
<g class="terminal">
<path d="M452 379h0"></path>
<path d="M512 379h0"></path>
<rect x="452" y="368" width="60" height="22" rx="10" ry="10"></rect>
<text x="482" y="383">"AND"</text>
</g>
<path d="M512 379h10"></path>
<path d="M522 379h10"></path>
<g class="non-terminal">
<path d="M532 379h0"></path>
<path d="M600 379h0"></path>
<rect x="532" y="368" width="68" height="22"></rect>
<a xlink:href="reuse_source.svg"><text x="566" y="383">Source</text>
</a>
</g>
<path d="M600 379h10"></path>
<path d="M610 379h10"></path>
<g class="terminal">
<path d="M620 379h0"></path>
<path d="M688 379h0"></path>
<rect x="620" y="368" width="68" height="22" rx="10" ry="10"></rect>
<text x="654" y="383">"INTO"</text>
</g>
<path d="M688 379h10"></path>
<path d="M698 379h10"></path>
<g class="non-terminal">
<path d="M708 379h0"></path>
<path d="M776 379h0"></path>
<rect x="708" y="368" width="68" height="22"></rect>
<a xlink:href="reuse_target.svg"><text x="742" y="383">Target</text>
</a>
</g>
<path d="M776 379h10"></path>
<path d="M786 379h10"></path>
<g>
<path d="M796 379h0"></path>
<path d="M1084 379h0"></path>
<g class="terminal">
<path d="M796 379h0"></path>
<path d="M848 379h0"></path>
<rect x="796" y="368" width="52" height="22" rx="10" ry="10"></rect>
<text x="822" y="383">"IN"</text>
</g>
<path d="M848 379h10"></path>
<g>
<path d="M858 379h0"></path>
<path d="M1006 379h0"></path>
<path d="M858 379h20"></path>
<g class="terminal">
<path d="M878 379h0"></path>
<path d="M946 379h40"></path>
<rect x="878" y="368" width="68" height="22" rx="10" ry="10"></rect>
<text x="912" y="383">"BYTE"</text>
</g>
<path d="M986 379h20"></path>
<path d="M858 379a10 10 0 0 1 10 10v10a10 10 0 0 0 10 10"></path>
<g class="terminal">
<path d="M878 409h0"></path>
<path d="M986 409h0"></path>
<rect x="878" y="398" width="108" height="22" rx="10" ry="10"></rect>
<text x="932" y="413">"CHARACTER"</text>
</g>
<path d="M986 409a10 10 0 0 0 10 -10v-10a10 10 0 0 1 10 -10"></path>
</g>
<path d="M1006 379h10"></path>
<g class="terminal">
<path d="M1016 379h0"></path>
<path d="M1084 379h0"></path>
<rect x="1016" y="368" width="68" height="22" rx="10" ry="10"></rect>
<text x="1050" y="383">"MODE"</text>
</g>
</g>
</g>
<path d="M1084 379a10 10 0 0 0 10 -10v-319a10 10 0 0 1 10 -10"></path>
<path d="M160 40a10 10 0 0 1 10 10v379a10 10 0 0 0 10 10"></path>
<g>
<path d="M180 439h0"></path>
<path d="M582 439h502"></path>
<g class="terminal">
<path d="M180 439h0"></path>
<path d="M248 439h0"></path>
<rect x="180" y="428" width="68" height="22" rx="10" ry="10"></rect>
<text x="214" y="443">"LIST"</text>
</g>
<path d="M248 439h10"></path>
<path d="M258 439h10"></path>
<g>
<path d="M268 439h0"></path>
<path d="M582 439h0"></path>
<path d="M298 439h10"></path>
<g>
<path d="M308 439h0"></path>
<path d="M552 439h0"></path>
<g class="terminal">
<path d="M308 439h0"></path>
<path d="M464 439h0"></path>
<rect x="308" y="428" width="156" height="22" rx="10" ry="10"></rect>
<text x="386" y="443">"NUMBER OF LINES"</text>
</g>
<path d="M464 439h10"></path>
<path d="M474 439h10"></path>
<g class="non-terminal">
<path d="M484 439h0"></path>
<path d="M552 439h0"></path>
<rect x="484" y="428" width="68" height="22"></rect>
<a xlink:href="reuse_target.svg"><text x="518" y="443">Target</text>
</a>
</g>
</g>
<path d="M552 439h10"></path>
<path d="M298 439v20a10 10 0 0 0 10 10"></path>
<g>
<path d="M308 469h0"></path>
<path d="M472 469h80"></path>
<g class="terminal">
<path d="M308 469h0"></path>
<path d="M384 469h0"></path>
<rect x="308" y="458" width="76" height="22" rx="10" ry="10"></rect>
<text x="346" y="473">"INDEX"</text>
</g>
<path d="M384 469h10"></path>
<path d="M394 469h10"></path>
<g class="non-terminal">
<path d="M404 469h0"></path>
<path d="M472 469h0"></path>
<rect x="404" y="458" width="68" height="22"></rect>
<a xlink:href="reuse_target.svg"><text x="438" y="473">Target</text>
</a>
</g>
</g>
<path d="M552 469a10 10 0 0 0 10 -10v-20"></path>
<g class="diagram-text">
<title>take one or more branches, once each, in any order</title>
<path d="M 298 429 h -26 a 4 4 0 0 0 -4 4 v 12 a 4 4 0 0 0 4 4 h 26 z" class="diagram-text"></path>
<text x="283" y="443" class="diagram-text">1+</text>
<path d="M 562 429 h 16 a 4 4 0 0 1 4 4 v 12 a 4 4 0 0 1 -4 4 h -16 z" class="diagram-text"></path>
<path d="M 569 437 a 4 4 0 1 0 6 -1 m 2.75 -1 h -4 v 4 m 0 -3 h 2" style="stroke-width: 1.75"></path>
</g>
</g>
</g>
<path d="M1084 439a10 10 0 0 0 10 -10v-379a10 10 0 0 1 10 -10"></path>
</g>
</g>
<path d="M1104 40h10"></path>
<path d="M 1114 40 h 20 m -10 -10 v 20 m 10 -20 v 20"></path>
</g>
</svg>
