<svg xmlns="http://www.w3.org/2000/svg" xmlns:xlink="http://www.w3.org/1999/xlink" class="railroad-diagram" width="998" height="260" viewBox="0 0 998 260">
<defs>
<style type="text/css"><![CDATA[
path {
stroke-width: 3;
stroke: black;
fill: rgba(0,0,0,0);
}
text {
font: bold 14px monospace;
text-anchor: middle;
}
text.diagram-text {
font-size: 12px;
}
a {
fill: blue;
}
text.diagram-arrow {
font-size: 16px;
}
text.label {
text-anchor: start;
}
text.comment {
font: italic 12px monospace;
}
rect {
stroke-width: 3;
stroke: black;
fill: #BCBCBC;
}
path.diagram-text {
stroke-width: 3;
stroke: black;
fill: #BCBCBC;
cursor: help;
}
]]></style>
</defs>
<g transform="translate(.5 .5)">
<path d="M 20 30 v 20 m 10 -20 v 20 m -10 -10 h 20.5"></path>
<path d="M40 40h10"></path>
<g>
<path d="M50 40h0"></path>
<path d="M948 40h0"></path>
<g class="terminal">
<path d="M50 40h0"></path>
<path d="M150 40h0"></path>
<rect x="50" y="29" width="100" height="22" rx="10" ry="10"></rect>
<text x="100" y="44">"DESCRIBE"</text>
</g>
<path d="M150 40h10"></path>
<g>
<path d="M160 40h0"></path>
<path d="M948 40h0"></path>
<path d="M160 40h20"></path>
<g>
<path d="M180 40h0"></path>
<path d="M558 40h370"></path>
<g class="terminal">
<path d="M180 40h0"></path>
<path d="M256 40h0"></path>
<rect x="180" y="29" width="76" height="22" rx="10" ry="10"></rect>
<text x="218" y="44">"TABLE"</text>
</g>
<path d="M256 40h10"></path>
<path d="M266 40h10"></path>
<g class="non-terminal">
<path d="M276 40h0"></path>
<path d="M344 40h0"></path>
<rect x="276" y="29" width="68" height="22"></rect>
<a xlink:href="reuse_source.svg"><text x="310" y="44">Source</text>
</a>
</g>
<path d="M344 40h10"></path>
<g>
<path d="M354 40h0"></path>
<path d="M558 40h0"></path>
<path d="M354 40a10 10 0 0 0 10 -10v0a10 10 0 0 1 10 -10"></path>
<g>
<path d="M374 20h164"></path>
</g>
<path d="M538 20a10 10 0 0 1 10 10v0a10 10 0 0 0 10 10"></path>
<path d="M354 40h20"></path>
<g>
<path d="M374 40h0"></path>
<path d="M538 40h0"></path>
<g class="terminal">
<path d="M374 40h0"></path>
<path d="M450 40h0"></path>
<rect x="374" y="29" width="76" height="22" rx="10" ry="10"></rect>
<text x="412" y="44">"LINES"</text>
</g>
<path d="M450 40h10"></path>
<path d="M460 40h10"></path>
<g class="non-terminal">
<path d="M470 40h0"></path>
<path d="M538 40h0"></path>
<rect x="470" y="29" width="68" height="22"></rect>
<a xlink:href="reuse_target.svg"><text x="504" y="44">Target</text>
</a>
</g>
</g>
<path d="M538 40h20"></path>
</g>
</g>
<path d="M928 40h20"></path>
<path d="M160 40a10 10 0 0 1 10 10v19a10 10 0 0 0 10 10"></path>
<g>
<path d="M180 79h0"></path>
<path d="M804 79h124"></path>
<g class="terminal">
<path d="M180 79h0"></path>
<path d="M256 79h0"></path>
<rect x="180" y="68" width="76" height="22" rx="10" ry="10"></rect>
<text x="218" y="83">"FIELD"</text>
</g>
<path d="M256 79h10"></path>
<path d="M266 79h10"></path>
<g class="non-terminal">
<path d="M276 79h0"></path>
<path d="M344 79h0"></path>
<rect x="276" y="68" width="68" height="22"></rect>
<a xlink:href="reuse_source.svg"><text x="310" y="83">Source</text>
</a>
</g>
<path d="M344 79h10"></path>
<g>
<path d="M354 79h0"></path>
<path d="M804 79h0"></path>
<path d="M354 79h20"></path>
<g>
<path d="M374 79h0"></path>
<path d="M784 79h0"></path>
<g class="terminal">
<path d="M374 79h0"></path>
<path d="M442 79h0"></path>
<rect x="374" y="68" width="68" height="22" rx="10" ry="10"></rect>
<text x="408" y="83">"TYPE"</text>
</g>
<path d="M442 79h10"></path>
<path d="M452 79h10"></path>
<g class="non-terminal">
<path d="M462 79h0"></path>
<path d="M530 79h0"></path>
<rect x="462" y="68" width="68" height="22"></rect>
<a xlink:href="reuse_target.svg"><text x="496" y="83">Target</text>
</a>
</g>
<path d="M530 79h10"></path>
<g>
<path d="M540 79h0"></path>
<path d="M784 79h0"></path>
<path d="M540 79a10 10 0 0 0 10 -10v0a10 10 0 0 1 10 -10"></path>
<g>
<path d="M560 59h204"></path>
</g>
<path d="M764 59a10 10 0 0 1 10 10v0a10 10 0 0 0 10 10"></path>
<path d="M540 79h20"></path>
<g>
<path d="M560 79h0"></path>
<path d="M764 79h0"></path>
<g class="terminal">
<path d="M560 79h0"></path>
<path d="M676 79h0"></path>
<rect x="560" y="68" width="116" height="22" rx="10" ry="10"></rect>
<text x="618" y="83">"COMPONENTS"</text>
</g>
<path d="M676 79h10"></path>
<path d="M686 79h10"></path>
<g class="non-terminal">
<path d="M696 79h0"></path>
<path d="M764 79h0"></path>
<rect x="696" y="68" width="68" height="22"></rect>
<a xlink:href="reuse_target.svg"><text x="730" y="83">Target</text>
</a>
</g>
</g>
<path d="M764 79h20"></path>
</g>
</g>
<path d="M784 79h20"></path>
<path d="M354 79a10 10 0 0 1 10 10v10a10 10 0 0 0 10 10"></path>
<g>
<path d="M374 109h0"></path>
<path d="M768 109h16"></path>
<g class="terminal">
<path d="M374 109h0"></path>
<path d="M458 109h0"></path>
<rect x="374" y="98" width="84" height="22" rx="10" ry="10"></rect>
<text x="416" y="113">"LENGTH"</text>
</g>
<path d="M458 109h10"></path>
<path d="M468 109h10"></path>
<g class="non-terminal">
<path d="M478 109h0"></path>
<path d="M546 109h0"></path>
<rect x="478" y="98" width="68" height="22"></rect>
<a xlink:href="reuse_target.svg"><text x="512" y="113">Target</text>
</a>
</g>
<path d="M546 109h10"></path>
<g>
<path d="M556 109h0"></path>
<path d="M768 109h0"></path>
<path d="M556 109h20"></path>
<g class="terminal">
<path d="M576 109h0"></path>
<path d="M708 109h40"></path>
<rect x="576" y="98" width="132" height="22" rx="10" ry="10"></rect>
<text x="642" y="113">"IN BYTE MODE"</text>
</g>
<path d="M748 109h20"></path>
<path d="M556 109a10 10 0 0 1 10 10v10a10 10 0 0 0 10 10"></path>
<g class="terminal">
<path d="M576 139h0"></path>
<path d="M748 139h0"></path>
<rect x="576" y="128" width="172" height="22" rx="10" ry="10"></rect>
<text x="662" y="143">"IN CHARACTER MODE"</text>
</g>
<path d="M748 139a10 10 0 0 0 10 -10v-10a10 10 0 0 1 10 -10"></path>
</g>
</g>
<path d="M784 109a10 10 0 0 0 10 -10v-10a10 10 0 0 1 10 -10"></path>
<path d="M354 79a10 10 0 0 1 10 10v70a10 10 0 0 0 10 10"></path>
<g>
<path d="M374 169h0"></path>
<path d="M530 169h254"></path>
<g class="terminal">
<path d="M374 169h0"></path>
<path d="M442 169h0"></path>
<rect x="374" y="158" width="68" height="22" rx="10" ry="10"></rect>
<text x="408" y="173">"INTO"</text>
</g>
<path d="M442 169h10"></path>
<path d="M452 169h10"></path>
<g class="non-terminal">
<path d="M462 169h0"></path>
<path d="M530 169h0"></path>
<rect x="462" y="158" width="68" height="22"></rect>
<a xlink:href="reuse_target.svg"><text x="496" y="173">Target</text>
</a>
</g>
</g>
<path d="M784 169a10 10 0 0 0 10 -10v-70a10 10 0 0 1 10 -10"></path>
</g>
</g>
<path d="M928 79a10 10 0 0 0 10 -10v-19a10 10 0 0 1 10 -10"></path>
<path d="M160 40a10 10 0 0 1 10 10v139a10 10 0 0 0 10 10"></path>
<g>
<path d="M180 199h0"></path>
<path d="M560 199h368"></path>
<g class="terminal">
<path d="M180 199h0"></path>
<path d="M256 199h0"></path>
<rect x="180" y="188" width="76" height="22" rx="10" ry="10"></rect>
<text x="218" y="203">"FIELD"</text>
</g>
<path d="M256 199h10"></path>
<path d="M266 199h10"></path>
<g class="non-terminal">
<path d="M276 199h0"></path>
<path d="M344 199h0"></path>
<rect x="276" y="188" width="68" height="22"></rect>
<a xlink:href="reuse_source.svg"><text x="310" y="203">Source</text>
</a>
</g>
<path d="M344 199h10"></path>
<path d="M354 199h10"></path>
<g class="terminal">
<path d="M364 199h0"></path>
<path d="M472 199h0"></path>
<rect x="364" y="188" width="108" height="22" rx="10" ry="10"></rect>
<text x="418" y="203">"EDIT MASK"</text>
</g>
<path d="M472 199h10"></path>
<path d="M482 199h10"></path>
<g class="non-terminal">
<path d="M492 199h0"></path>
<path d="M560 199h0"></path>
<rect x="492" y="188" width="68" height="22"></rect>
<a xlink:href="reuse_target.svg"><text x="526" y="203">Target</text>
</a>
</g>
</g>
<path d="M928 199a10 10 0 0 0 10 -10v-139a10 10 0 0 1 10 -10"></path>
<path d="M160 40a10 10 0 0 1 10 10v169a10 10 0 0 0 10 10"></path>
<g>
<path d="M180 229h0"></path>
<path d="M928 229h0"></path>
<g class="terminal">
<path d="M180 229h0"></path>
<path d="M344 229h0"></path>
<rect x="180" y="218" width="164" height="22" rx="10" ry="10"></rect>
<text x="262" y="233">"DISTANCE BETWEEN"</text>
</g>
<path d="M344 229h10"></path>
<path d="M354 229h10"></path>
<g class="non-terminal">
<path d="M364 229h0"></path>
<path d="M432 229h0"></path>
<rect x="364" y="218" width="68" height="22"></rect>
<a xlink:href="reuse_source.svg"><text x="398" y="233">Source</text>
</a>
</g>
<path d="M432 229h10"></path>
<path d="M442 229h10"></path>
<g class="terminal">
<path d="M452 229h0"></path>
<path d="M512 229h0"></path>
<rect x="452" y="218" width="60" height="22" rx="10" ry="10"></rect>
<text x="482" y="233">"AND"</text>
</g>
<path d="M512 229h10"></path>
<path d="M522 229h10"></path>
<g class="non-terminal">
<path d="M532 229h0"></path>
<path d="M600 229h0"></path>
<rect x="532" y="218" width="68" height="22"></rect>
<a xlink:href="reuse_source.svg"><text x="566" y="233">Source</text>
</a>
</g>
<path d="M600 229h10"></path>
<path d="M610 229h10"></path>
<g class="terminal">
<path d="M620 229h0"></path>
<path d="M688 229h0"></path>
<rect x="620" y="218" width="68" height="22" rx="10" ry="10"></rect>
<text x="654" y="233">"INTO"</text>
</g>
<path d="M688 229h10"></path>
<path d="M698 229h10"></path>
<g class="non-terminal">
<path d="M708 229h0"></path>
<path d="M776 229h0"></path>
<rect x="708" y="218" width="68" height="22"></rect>
<a xlink:href="reuse_target.svg"><text x="742" y="233">Target</text>
</a>
</g>
<path d="M776 229h10"></path>
<path d="M786 229h10"></path>
<g class="terminal">
<path d="M796 229h0"></path>
<path d="M928 229h0"></path>
<rect x="796" y="218" width="132" height="22" rx="10" ry="10"></rect>
<text x="862" y="233">"IN BYTE MODE"</text>
</g>
</g>
<path d="M928 229a10 10 0 0 0 10 -10v-169a10 10 0 0 1 10 -10"></path>
</g>
</g>
<path d="M948 40h10"></path>
<path d="M 958 40 h 20 m -10 -10 v 20 m 10 -20 v 20"></path>
</g>
</svg>
