<?xml version="1.0" encoding="UTF-8" standalone="no"?>
<!DOCTYPE svg PUBLIC "-//W3C//DTD SVG 1.1//EN"
 "http://www.w3.org/Graphics/SVG/1.1/DTD/svg11.dtd">
<!-- Generated by graphviz version 2.38.0 (20140413.2041)
 -->
<!-- Title: describe Pages: 1 -->
<svg width="206pt" height="404pt"
 viewBox="0.00 0.00 206.23 404.00" xmlns="http://www.w3.org/2000/svg" xmlns:xlink="http://www.w3.org/1999/xlink">
<g id="graph0" class="graph" transform="scale(1 1) rotate(0) translate(4 400)">
<title>describe</title>
<polygon fill="white" stroke="none" points="-4,4 -4,-400 202.225,-400 202.225,4 -4,4"/>
<!-- start -->
<g id="node1" class="node"><title>start</title>
<polygon fill="none" stroke="black" points="126.113,-396 72.1127,-396 72.1127,-360 126.113,-360 126.113,-396"/>
<text text-anchor="middle" x="99.1127" y="-373.8" font-family="Times,serif" font-size="14.00">Start</text>
</g>
<!-- node480 -->
<g id="node6" class="node"><title>node480</title>
<ellipse fill="none" stroke="black" cx="99.1127" cy="-306" rx="99.2255" ry="18"/>
<text text-anchor="middle" x="99.1127" y="-301.8" font-family="Times,serif" font-size="14.00">&quot;DESCRIBE TABLE&quot;</text>
</g>
<!-- start&#45;&gt;node480 -->
<g id="edge6" class="edge"><title>start&#45;&gt;node480</title>
<path fill="none" stroke="black" d="M99.1127,-359.697C99.1127,-351.983 99.1127,-342.712 99.1127,-334.112"/>
<polygon fill="black" stroke="black" points="102.613,-334.104 99.1127,-324.104 95.6128,-334.104 102.613,-334.104"/>
</g>
<!-- end -->
<g id="node2" class="node"><title>end</title>
<polygon fill="none" stroke="black" points="122.113,-36 68.1127,-36 68.1127,-0 122.113,-0 122.113,-36"/>
<text text-anchor="middle" x="95.1127" y="-13.8" font-family="Times,serif" font-size="14.00">End</text>
</g>
<!-- node477 -->
<g id="node3" class="node"><title>node477</title>
<g id="a_node3"><a xlink:href="reuse_target.svg" xlink:title="&lt;u&gt;target&lt;/u&gt;">
<ellipse fill="none" stroke="black" cx="129.113" cy="-90" rx="33.0411" ry="18"/>
<text text-anchor="start" x="113.177" y="-86.8" font-family="Times,serif" text-decoration="underline" font-size="14.00" fill="blue">target</text>
</a>
</g>
</g>
<!-- node477&#45;&gt;end -->
<g id="edge1" class="edge"><title>node477&#45;&gt;end</title>
<path fill="none" stroke="black" d="M121.055,-72.411C117.149,-64.3693 112.363,-54.5148 107.969,-45.4698"/>
<polygon fill="black" stroke="black" points="111.104,-43.9127 103.587,-36.4468 104.808,-46.9711 111.104,-43.9127"/>
</g>
<!-- node478 -->
<g id="node4" class="node"><title>node478</title>
<ellipse fill="none" stroke="black" cx="136.113" cy="-162" rx="46.037" ry="18"/>
<text text-anchor="middle" x="136.113" y="-157.8" font-family="Times,serif" font-size="14.00">&quot;LINES&quot;</text>
</g>
<!-- node478&#45;&gt;node477 -->
<g id="edge2" class="edge"><title>node478&#45;&gt;node477</title>
<path fill="none" stroke="black" d="M134.382,-143.697C133.611,-135.983 132.684,-126.712 131.824,-118.112"/>
<polygon fill="black" stroke="black" points="135.301,-117.706 130.823,-108.104 128.336,-118.403 135.301,-117.706"/>
</g>
<!-- node479 -->
<g id="node5" class="node"><title>node479</title>
<g id="a_node5"><a xlink:href="reuse_source.svg" xlink:title="&lt;u&gt;source&lt;/u&gt;">
<ellipse fill="none" stroke="black" cx="99.1127" cy="-234" rx="36.4761" ry="18"/>
<text text-anchor="start" x="80.8455" y="-230.8" font-family="Times,serif" text-decoration="underline" font-size="14.00" fill="blue">source</text>
</a>
</g>
</g>
<!-- node479&#45;&gt;end -->
<g id="edge4" class="edge"><title>node479&#45;&gt;end</title>
<path fill="none" stroke="black" d="M91.8198,-216.179C87.781,-205.937 83.1714,-192.464 81.1127,-180 73.3896,-133.244 81.9522,-78.0991 88.6723,-45.9893"/>
<polygon fill="black" stroke="black" points="92.1334,-46.5458 90.8545,-36.0284 85.2955,-45.0477 92.1334,-46.5458"/>
</g>
<!-- node479&#45;&gt;node478 -->
<g id="edge3" class="edge"><title>node479&#45;&gt;node478</title>
<path fill="none" stroke="black" d="M107.881,-216.411C112.195,-208.249 117.496,-198.22 122.335,-189.065"/>
<polygon fill="black" stroke="black" points="125.571,-190.433 127.15,-179.956 119.383,-187.162 125.571,-190.433"/>
</g>
<!-- node480&#45;&gt;node479 -->
<g id="edge5" class="edge"><title>node480&#45;&gt;node479</title>
<path fill="none" stroke="black" d="M99.1127,-287.697C99.1127,-279.983 99.1127,-270.712 99.1127,-262.112"/>
<polygon fill="black" stroke="black" points="102.613,-262.104 99.1127,-252.104 95.6128,-262.104 102.613,-262.104"/>
</g>
</g>
</svg>
