<svg xmlns="http://www.w3.org/2000/svg" xmlns:xlink="http://www.w3.org/1999/xlink" class="railroad-diagram" width="998" height="260" viewBox="0 0 998 260">
<defs>
<style type="text/css"><![CDATA[
path {
stroke-width: 3;
stroke: black;
fill: rgba(0,0,0,0);
}
text {
font: bold 14px monospace;
text-anchor: middle;
}
text.diagram-text {
font-size: 12px;
}
a {
fill: blue;
}
text.diagram-arrow {
font-size: 16px;
}
text.label {
text-anchor: start;
}
text.comment {
font: italic 12px monospace;
}
rect {
stroke-width: 3;
stroke: black;
fill: #BCBCBC;
}
path.diagram-text {
stroke-width: 3;
stroke: black;
fill: #BCBCBC;
cursor: help;
}
]]></style>
</defs>
<g transform="translate(.5 .5)">
<path d="M 20 30 v 20 m 10 -20 v 20 m -10 -10 h 20.5"></path>
<path d="M40 40h10"></path>
<g>
<path d="M50 40h0"></path>
<path d="M948 40h0"></path>
<g class="terminal">
<path d="M50 40h0"></path>
<path d="M150 40h0"></path>
<rect x="50" y="29" width="100" height="22" rx="10" ry="10"></rect>
<text x="100" y="44">"DESCRIBE"</text>
</g>
<path d="M150 40h10"></path>
<g>
<path d="M160 40h0"></path>
<path d="M948 40h0"></path>
<path d="M160 40h20"></path>
<g>
<path d="M180 40h185"></path>
<path d="M743 40h185"></path>
<g class="terminal">
<path d="M365 40h0"></path>
<path d="M441 40h0"></path>
<rect x="365" y="29" width="76" height="22" rx="10" ry="10"></rect>
<text x="403" y="44">"TABLE"</text>
</g>
<path d="M441 40h10"></path>
<path d="M451 40h10"></path>
<g class="non-terminal">
<path d="M461 40h0"></path>
<path d="M529 40h0"></path>
<rect x="461" y="29" width="68" height="22"></rect>
<a xlink:href="reuse_source.svg"><text x="495" y="44">source</text>
</a>
</g>
<path d="M529 40h10"></path>
<g>
<path d="M539 40h0"></path>
<path d="M743 40h0"></path>
<path d="M539 40a10 10 0 0 0 10 -10v0a10 10 0 0 1 10 -10"></path>
<g>
<path d="M559 20h164"></path>
</g>
<path d="M723 20a10 10 0 0 1 10 10v0a10 10 0 0 0 10 10"></path>
<path d="M539 40h20"></path>
<g>
<path d="M559 40h0"></path>
<path d="M723 40h0"></path>
<g class="terminal">
<path d="M559 40h0"></path>
<path d="M635 40h0"></path>
<rect x="559" y="29" width="76" height="22" rx="10" ry="10"></rect>
<text x="597" y="44">"LINES"</text>
</g>
<path d="M635 40h10"></path>
<path d="M645 40h10"></path>
<g class="non-terminal">
<path d="M655 40h0"></path>
<path d="M723 40h0"></path>
<rect x="655" y="29" width="68" height="22"></rect>
<a xlink:href="reuse_target.svg"><text x="689" y="44">target</text>
</a>
</g>
</g>
<path d="M723 40h20"></path>
</g>
</g>
<path d="M928 40h20"></path>
<path d="M160 40a10 10 0 0 1 10 10v19a10 10 0 0 0 10 10"></path>
<g>
<path d="M180 79h62"></path>
<path d="M866 79h62"></path>
<g class="terminal">
<path d="M242 79h0"></path>
<path d="M318 79h0"></path>
<rect x="242" y="68" width="76" height="22" rx="10" ry="10"></rect>
<text x="280" y="83">"FIELD"</text>
</g>
<path d="M318 79h10"></path>
<path d="M328 79h10"></path>
<g class="non-terminal">
<path d="M338 79h0"></path>
<path d="M406 79h0"></path>
<rect x="338" y="68" width="68" height="22"></rect>
<a xlink:href="reuse_source.svg"><text x="372" y="83">source</text>
</a>
</g>
<path d="M406 79h10"></path>
<g>
<path d="M416 79h0"></path>
<path d="M866 79h0"></path>
<path d="M416 79h20"></path>
<g>
<path d="M436 79h0"></path>
<path d="M846 79h0"></path>
<g class="terminal">
<path d="M436 79h0"></path>
<path d="M504 79h0"></path>
<rect x="436" y="68" width="68" height="22" rx="10" ry="10"></rect>
<text x="470" y="83">"TYPE"</text>
</g>
<path d="M504 79h10"></path>
<path d="M514 79h10"></path>
<g class="non-terminal">
<path d="M524 79h0"></path>
<path d="M592 79h0"></path>
<rect x="524" y="68" width="68" height="22"></rect>
<a xlink:href="reuse_target.svg"><text x="558" y="83">target</text>
</a>
</g>
<path d="M592 79h10"></path>
<g>
<path d="M602 79h0"></path>
<path d="M846 79h0"></path>
<path d="M602 79a10 10 0 0 0 10 -10v0a10 10 0 0 1 10 -10"></path>
<g>
<path d="M622 59h204"></path>
</g>
<path d="M826 59a10 10 0 0 1 10 10v0a10 10 0 0 0 10 10"></path>
<path d="M602 79h20"></path>
<g>
<path d="M622 79h0"></path>
<path d="M826 79h0"></path>
<g class="terminal">
<path d="M622 79h0"></path>
<path d="M738 79h0"></path>
<rect x="622" y="68" width="116" height="22" rx="10" ry="10"></rect>
<text x="680" y="83">"COMPONENTS"</text>
</g>
<path d="M738 79h10"></path>
<path d="M748 79h10"></path>
<g class="non-terminal">
<path d="M758 79h0"></path>
<path d="M826 79h0"></path>
<rect x="758" y="68" width="68" height="22"></rect>
<a xlink:href="reuse_target.svg"><text x="792" y="83">target</text>
</a>
</g>
</g>
<path d="M826 79h20"></path>
</g>
</g>
<path d="M846 79h20"></path>
<path d="M416 79a10 10 0 0 1 10 10v10a10 10 0 0 0 10 10"></path>
<g>
<path d="M436 109h8"></path>
<path d="M838 109h8"></path>
<g class="terminal">
<path d="M444 109h0"></path>
<path d="M528 109h0"></path>
<rect x="444" y="98" width="84" height="22" rx="10" ry="10"></rect>
<text x="486" y="113">"LENGTH"</text>
</g>
<path d="M528 109h10"></path>
<path d="M538 109h10"></path>
<g class="non-terminal">
<path d="M548 109h0"></path>
<path d="M616 109h0"></path>
<rect x="548" y="98" width="68" height="22"></rect>
<a xlink:href="reuse_target.svg"><text x="582" y="113">target</text>
</a>
</g>
<path d="M616 109h10"></path>
<g>
<path d="M626 109h0"></path>
<path d="M838 109h0"></path>
<path d="M626 109h20"></path>
<g class="terminal">
<path d="M646 109h20"></path>
<path d="M798 109h20"></path>
<rect x="666" y="98" width="132" height="22" rx="10" ry="10"></rect>
<text x="732" y="113">"IN BYTE MODE"</text>
</g>
<path d="M818 109h20"></path>
<path d="M626 109a10 10 0 0 1 10 10v10a10 10 0 0 0 10 10"></path>
<g class="terminal">
<path d="M646 139h0"></path>
<path d="M818 139h0"></path>
<rect x="646" y="128" width="172" height="22" rx="10" ry="10"></rect>
<text x="732" y="143">"IN CHARACTER MODE"</text>
</g>
<path d="M818 139a10 10 0 0 0 10 -10v-10a10 10 0 0 1 10 -10"></path>
</g>
</g>
<path d="M846 109a10 10 0 0 0 10 -10v-10a10 10 0 0 1 10 -10"></path>
<path d="M416 79a10 10 0 0 1 10 10v70a10 10 0 0 0 10 10"></path>
<g>
<path d="M436 169h127"></path>
<path d="M719 169h127"></path>
<g class="terminal">
<path d="M563 169h0"></path>
<path d="M631 169h0"></path>
<rect x="563" y="158" width="68" height="22" rx="10" ry="10"></rect>
<text x="597" y="173">"INTO"</text>
</g>
<path d="M631 169h10"></path>
<path d="M641 169h10"></path>
<g class="non-terminal">
<path d="M651 169h0"></path>
<path d="M719 169h0"></path>
<rect x="651" y="158" width="68" height="22"></rect>
<a xlink:href="reuse_target.svg"><text x="685" y="173">target</text>
</a>
</g>
</g>
<path d="M846 169a10 10 0 0 0 10 -10v-70a10 10 0 0 1 10 -10"></path>
</g>
</g>
<path d="M928 79a10 10 0 0 0 10 -10v-19a10 10 0 0 1 10 -10"></path>
<path d="M160 40a10 10 0 0 1 10 10v139a10 10 0 0 0 10 10"></path>
<g>
<path d="M180 199h184"></path>
<path d="M744 199h184"></path>
<g class="terminal">
<path d="M364 199h0"></path>
<path d="M440 199h0"></path>
<rect x="364" y="188" width="76" height="22" rx="10" ry="10"></rect>
<text x="402" y="203">"FIELD"</text>
</g>
<path d="M440 199h10"></path>
<path d="M450 199h10"></path>
<g class="non-terminal">
<path d="M460 199h0"></path>
<path d="M528 199h0"></path>
<rect x="460" y="188" width="68" height="22"></rect>
<a xlink:href="reuse_source.svg"><text x="494" y="203">source</text>
</a>
</g>
<path d="M528 199h10"></path>
<path d="M538 199h10"></path>
<g class="terminal">
<path d="M548 199h0"></path>
<path d="M656 199h0"></path>
<rect x="548" y="188" width="108" height="22" rx="10" ry="10"></rect>
<text x="602" y="203">"EDIT MASK"</text>
</g>
<path d="M656 199h10"></path>
<path d="M666 199h10"></path>
<g class="non-terminal">
<path d="M676 199h0"></path>
<path d="M744 199h0"></path>
<rect x="676" y="188" width="68" height="22"></rect>
<a xlink:href="reuse_target.svg"><text x="710" y="203">target</text>
</a>
</g>
</g>
<path d="M928 199a10 10 0 0 0 10 -10v-139a10 10 0 0 1 10 -10"></path>
<path d="M160 40a10 10 0 0 1 10 10v169a10 10 0 0 0 10 10"></path>
<g>
<path d="M180 229h0"></path>
<path d="M928 229h0"></path>
<g class="terminal">
<path d="M180 229h0"></path>
<path d="M344 229h0"></path>
<rect x="180" y="218" width="164" height="22" rx="10" ry="10"></rect>
<text x="262" y="233">"DISTANCE BETWEEN"</text>
</g>
<path d="M344 229h10"></path>
<path d="M354 229h10"></path>
<g class="non-terminal">
<path d="M364 229h0"></path>
<path d="M432 229h0"></path>
<rect x="364" y="218" width="68" height="22"></rect>
<a xlink:href="reuse_source.svg"><text x="398" y="233">source</text>
</a>
</g>
<path d="M432 229h10"></path>
<path d="M442 229h10"></path>
<g class="terminal">
<path d="M452 229h0"></path>
<path d="M512 229h0"></path>
<rect x="452" y="218" width="60" height="22" rx="10" ry="10"></rect>
<text x="482" y="233">"AND"</text>
</g>
<path d="M512 229h10"></path>
<path d="M522 229h10"></path>
<g class="non-terminal">
<path d="M532 229h0"></path>
<path d="M600 229h0"></path>
<rect x="532" y="218" width="68" height="22"></rect>
<a xlink:href="reuse_source.svg"><text x="566" y="233">source</text>
</a>
</g>
<path d="M600 229h10"></path>
<path d="M610 229h10"></path>
<g class="terminal">
<path d="M620 229h0"></path>
<path d="M688 229h0"></path>
<rect x="620" y="218" width="68" height="22" rx="10" ry="10"></rect>
<text x="654" y="233">"INTO"</text>
</g>
<path d="M688 229h10"></path>
<path d="M698 229h10"></path>
<g class="non-terminal">
<path d="M708 229h0"></path>
<path d="M776 229h0"></path>
<rect x="708" y="218" width="68" height="22"></rect>
<a xlink:href="reuse_target.svg"><text x="742" y="233">target</text>
</a>
</g>
<path d="M776 229h10"></path>
<path d="M786 229h10"></path>
<g class="terminal">
<path d="M796 229h0"></path>
<path d="M928 229h0"></path>
<rect x="796" y="218" width="132" height="22" rx="10" ry="10"></rect>
<text x="862" y="233">"IN BYTE MODE"</text>
</g>
</g>
<path d="M928 229a10 10 0 0 0 10 -10v-169a10 10 0 0 1 10 -10"></path>
</g>
</g>
<path d="M948 40h10"></path>
<path d="M 958 40 h 20 m -10 -10 v 20 m 10 -20 v 20"></path>
</g>
</svg>
