<svg xmlns="http://www.w3.org/2000/svg" xmlns:xlink="http://www.w3.org/1999/xlink" class="railroad-diagram" width="1068" height="470" viewBox="0 0 1068 470">
<defs>
<style type="text/css"><![CDATA[
path {
stroke-width: 3;
stroke: black;
fill: rgba(0,0,0,0);
}
text {
font: bold 14px monospace;
text-anchor: middle;
}
text.diagram-text {
font-size: 12px;
}
a {
fill: blue;
}
text.diagram-arrow {
font-size: 16px;
}
text.label {
text-anchor: start;
}
text.comment {
font: italic 12px monospace;
}
rect {
stroke-width: 3;
stroke: black;
fill: #BCBCBC;
}
path.diagram-text {
stroke-width: 3;
stroke: black;
fill: #BCBCBC;
cursor: help;
}
]]></style>
</defs>
<g transform="translate(.5 .5)">
<path d="M 20 30 v 20 m 10 -20 v 20 m -10 -10 h 20.5"></path>
<path d="M40 40h10"></path>
<g>
<path d="M50 40h0"></path>
<path d="M1018 40h0"></path>
<g class="terminal">
<path d="M50 40h0"></path>
<path d="M150 40h0"></path>
<rect x="50" y="29" width="100" height="22" rx="10" ry="10"></rect>
<text x="100" y="44">"DESCRIBE"</text>
</g>
<path d="M150 40h10"></path>
<g>
<path d="M160 40h0"></path>
<path d="M1018 40h0"></path>
<path d="M160 40h20"></path>
<g>
<path d="M180 40h0"></path>
<path d="M558 40h440"></path>
<g class="terminal">
<path d="M180 40h0"></path>
<path d="M256 40h0"></path>
<rect x="180" y="29" width="76" height="22" rx="10" ry="10"></rect>
<text x="218" y="44">"TABLE"</text>
</g>
<path d="M256 40h10"></path>
<path d="M266 40h10"></path>
<g class="non-terminal">
<path d="M276 40h0"></path>
<path d="M344 40h0"></path>
<rect x="276" y="29" width="68" height="22"></rect>
<a xlink:href="reuse_source.svg"><text x="310" y="44">Source</text>
</a>
</g>
<path d="M344 40h10"></path>
<g>
<path d="M354 40h0"></path>
<path d="M558 40h0"></path>
<path d="M354 40a10 10 0 0 0 10 -10v0a10 10 0 0 1 10 -10"></path>
<g>
<path d="M374 20h164"></path>
</g>
<path d="M538 20a10 10 0 0 1 10 10v0a10 10 0 0 0 10 10"></path>
<path d="M354 40h20"></path>
<g>
<path d="M374 40h0"></path>
<path d="M538 40h0"></path>
<g class="terminal">
<path d="M374 40h0"></path>
<path d="M450 40h0"></path>
<rect x="374" y="29" width="76" height="22" rx="10" ry="10"></rect>
<text x="412" y="44">"LINES"</text>
</g>
<path d="M450 40h10"></path>
<path d="M460 40h10"></path>
<g class="non-terminal">
<path d="M470 40h0"></path>
<path d="M538 40h0"></path>
<rect x="470" y="29" width="68" height="22"></rect>
<a xlink:href="reuse_target.svg"><text x="504" y="44">Target</text>
</a>
</g>
</g>
<path d="M538 40h20"></path>
</g>
</g>
<path d="M998 40h20"></path>
<path d="M160 40a10 10 0 0 1 10 10v10a10 10 0 0 0 10 10"></path>
<g>
<path d="M180 70h0"></path>
<path d="M868 70h130"></path>
<g class="terminal">
<path d="M180 70h0"></path>
<path d="M256 70h0"></path>
<rect x="180" y="59" width="76" height="22" rx="10" ry="10"></rect>
<text x="218" y="74">"FIELD"</text>
</g>
<path d="M256 70h10"></path>
<path d="M266 70h10"></path>
<g class="non-terminal">
<path d="M276 70h0"></path>
<path d="M344 70h0"></path>
<rect x="276" y="59" width="68" height="22"></rect>
<a xlink:href="reuse_source.svg"><text x="310" y="74">Source</text>
</a>
</g>
<path d="M344 70h10"></path>
<path d="M354 70h10"></path>
<g>
<path d="M364 70h0"></path>
<path d="M868 70h0"></path>
<path d="M394 70h10"></path>
<g>
<path d="M404 70h0"></path>
<path d="M560 70h278"></path>
<g class="terminal">
<path d="M404 70h0"></path>
<path d="M472 70h0"></path>
<rect x="404" y="59" width="68" height="22" rx="10" ry="10"></rect>
<text x="438" y="74">"TYPE"</text>
</g>
<path d="M472 70h10"></path>
<path d="M482 70h10"></path>
<g class="non-terminal">
<path d="M492 70h0"></path>
<path d="M560 70h0"></path>
<rect x="492" y="59" width="68" height="22"></rect>
<a xlink:href="reuse_target.svg"><text x="526" y="74">Target</text>
</a>
</g>
</g>
<path d="M838 70h10"></path>
<path d="M394 70v20a10 10 0 0 0 10 10"></path>
<g>
<path d="M404 100h0"></path>
<path d="M608 100h230"></path>
<g class="terminal">
<path d="M404 100h0"></path>
<path d="M520 100h0"></path>
<rect x="404" y="89" width="116" height="22" rx="10" ry="10"></rect>
<text x="462" y="104">"COMPONENTS"</text>
</g>
<path d="M520 100h10"></path>
<path d="M530 100h10"></path>
<g class="non-terminal">
<path d="M540 100h0"></path>
<path d="M608 100h0"></path>
<rect x="540" y="89" width="68" height="22"></rect>
<a xlink:href="reuse_target.svg"><text x="574" y="104">Target</text>
</a>
</g>
</g>
<path d="M838 100a10 10 0 0 0 10 -10v-20"></path>
<path d="M394 70v59a10 10 0 0 0 10 10"></path>
<g>
<path d="M404 139h0"></path>
<path d="M838 139h0"></path>
<g class="terminal">
<path d="M404 139h0"></path>
<path d="M488 139h0"></path>
<rect x="404" y="128" width="84" height="22" rx="10" ry="10"></rect>
<text x="446" y="143">"LENGTH"</text>
</g>
<path d="M488 139h10"></path>
<path d="M498 139h10"></path>
<g class="non-terminal">
<path d="M508 139h0"></path>
<path d="M576 139h0"></path>
<rect x="508" y="128" width="68" height="22"></rect>
<a xlink:href="reuse_target.svg"><text x="542" y="143">Target</text>
</a>
</g>
<path d="M576 139h10"></path>
<g>
<path d="M586 139h0"></path>
<path d="M838 139h0"></path>
<path d="M586 139a10 10 0 0 0 10 -10v0a10 10 0 0 1 10 -10"></path>
<g>
<path d="M606 119h212"></path>
</g>
<path d="M818 119a10 10 0 0 1 10 10v0a10 10 0 0 0 10 10"></path>
<path d="M586 139h20"></path>
<g>
<path d="M606 139h0"></path>
<path d="M818 139h0"></path>
<path d="M606 139h20"></path>
<g class="terminal">
<path d="M626 139h0"></path>
<path d="M758 139h40"></path>
<rect x="626" y="128" width="132" height="22" rx="10" ry="10"></rect>
<text x="692" y="143">"IN BYTE MODE"</text>
</g>
<path d="M798 139h20"></path>
<path d="M606 139a10 10 0 0 1 10 10v10a10 10 0 0 0 10 10"></path>
<g class="terminal">
<path d="M626 169h0"></path>
<path d="M798 169h0"></path>
<rect x="626" y="158" width="172" height="22" rx="10" ry="10"></rect>
<text x="712" y="173">"IN CHARACTER MODE"</text>
</g>
<path d="M798 169a10 10 0 0 0 10 -10v-10a10 10 0 0 1 10 -10"></path>
</g>
<path d="M818 139h20"></path>
</g>
</g>
<path d="M838 139a10 10 0 0 0 10 -10v-59"></path>
<path d="M394 70v119a10 10 0 0 0 10 10"></path>
<g>
<path d="M404 199h0"></path>
<path d="M592 199h246"></path>
<g class="terminal">
<path d="M404 199h0"></path>
<path d="M504 199h0"></path>
<rect x="404" y="188" width="100" height="22" rx="10" ry="10"></rect>
<text x="454" y="203">"DECIMALS"</text>
</g>
<path d="M504 199h10"></path>
<path d="M514 199h10"></path>
<g class="non-terminal">
<path d="M524 199h0"></path>
<path d="M592 199h0"></path>
<rect x="524" y="188" width="68" height="22"></rect>
<a xlink:href="reuse_target.svg"><text x="558" y="203">Target</text>
</a>
</g>
</g>
<path d="M838 199a10 10 0 0 0 10 -10v-119"></path>
<path d="M394 70v149a10 10 0 0 0 10 10"></path>
<g>
<path d="M404 229h0"></path>
<path d="M584 229h254"></path>
<g class="terminal">
<path d="M404 229h0"></path>
<path d="M496 229h0"></path>
<rect x="404" y="218" width="92" height="22" rx="10" ry="10"></rect>
<text x="450" y="233">"HELP-ID"</text>
</g>
<path d="M496 229h10"></path>
<path d="M506 229h10"></path>
<g class="non-terminal">
<path d="M516 229h0"></path>
<path d="M584 229h0"></path>
<rect x="516" y="218" width="68" height="22"></rect>
<a xlink:href="reuse_target.svg"><text x="550" y="233">Target</text>
</a>
</g>
</g>
<path d="M838 229a10 10 0 0 0 10 -10v-149"></path>
<path d="M394 70v179a10 10 0 0 0 10 10"></path>
<g>
<path d="M404 259h0"></path>
<path d="M632 259h206"></path>
<g class="terminal">
<path d="M404 259h0"></path>
<path d="M544 259h0"></path>
<rect x="404" y="248" width="140" height="22" rx="10" ry="10"></rect>
<text x="474" y="263">"OUTPUT-LENGTH"</text>
</g>
<path d="M544 259h10"></path>
<path d="M554 259h10"></path>
<g class="non-terminal">
<path d="M564 259h0"></path>
<path d="M632 259h0"></path>
<rect x="564" y="248" width="68" height="22"></rect>
<a xlink:href="reuse_target.svg"><text x="598" y="263">Target</text>
</a>
</g>
</g>
<path d="M838 259a10 10 0 0 0 10 -10v-179"></path>
<path d="M394 70v209a10 10 0 0 0 10 10"></path>
<g>
<path d="M404 289h0"></path>
<path d="M600 289h238"></path>
<g class="terminal">
<path d="M404 289h0"></path>
<path d="M512 289h0"></path>
<rect x="404" y="278" width="108" height="22" rx="10" ry="10"></rect>
<text x="458" y="293">"EDIT MASK"</text>
</g>
<path d="M512 289h10"></path>
<path d="M522 289h10"></path>
<g class="non-terminal">
<path d="M532 289h0"></path>
<path d="M600 289h0"></path>
<rect x="532" y="278" width="68" height="22"></rect>
<a xlink:href="reuse_target.svg"><text x="566" y="293">Target</text>
</a>
</g>
</g>
<path d="M838 289a10 10 0 0 0 10 -10v-209"></path>
<path d="M394 70v239a10 10 0 0 0 10 10"></path>
<g>
<path d="M404 319h0"></path>
<path d="M560 319h278"></path>
<g class="terminal">
<path d="M404 319h0"></path>
<path d="M472 319h0"></path>
<rect x="404" y="308" width="68" height="22" rx="10" ry="10"></rect>
<text x="438" y="323">"INTO"</text>
</g>
<path d="M472 319h10"></path>
<path d="M482 319h10"></path>
<g class="non-terminal">
<path d="M492 319h0"></path>
<path d="M560 319h0"></path>
<rect x="492" y="308" width="68" height="22"></rect>
<a xlink:href="reuse_target.svg"><text x="526" y="323">Target</text>
</a>
</g>
</g>
<path d="M838 319a10 10 0 0 0 10 -10v-239"></path>
<g class="diagram-text">
<title>take one or more branches, once each, in any order</title>
<path d="M 394 60 h -26 a 4 4 0 0 0 -4 4 v 12 a 4 4 0 0 0 4 4 h 26 z" class="diagram-text"></path>
<text x="379" y="74" class="diagram-text">1+</text>
<path d="M 848 60 h 16 a 4 4 0 0 1 4 4 v 12 a 4 4 0 0 1 -4 4 h -16 z" class="diagram-text"></path>
<path d="M 855 68 a 4 4 0 1 0 6 -1 m 2.75 -1 h -4 v 4 m 0 -3 h 2" style="stroke-width: 1.75"></path>
</g>
</g>
</g>
<path d="M998 70a10 10 0 0 0 10 -10v-10a10 10 0 0 1 10 -10"></path>
<path d="M160 40a10 10 0 0 1 10 10v289a10 10 0 0 0 10 10"></path>
<g>
<path d="M180 349h0"></path>
<path d="M998 349h0"></path>
<g class="terminal">
<path d="M180 349h0"></path>
<path d="M344 349h0"></path>
<rect x="180" y="338" width="164" height="22" rx="10" ry="10"></rect>
<text x="262" y="353">"DISTANCE BETWEEN"</text>
</g>
<path d="M344 349h10"></path>
<path d="M354 349h10"></path>
<g class="non-terminal">
<path d="M364 349h0"></path>
<path d="M432 349h0"></path>
<rect x="364" y="338" width="68" height="22"></rect>
<a xlink:href="reuse_source.svg"><text x="398" y="353">Source</text>
</a>
</g>
<path d="M432 349h10"></path>
<path d="M442 349h10"></path>
<g class="terminal">
<path d="M452 349h0"></path>
<path d="M512 349h0"></path>
<rect x="452" y="338" width="60" height="22" rx="10" ry="10"></rect>
<text x="482" y="353">"AND"</text>
</g>
<path d="M512 349h10"></path>
<path d="M522 349h10"></path>
<g class="non-terminal">
<path d="M532 349h0"></path>
<path d="M600 349h0"></path>
<rect x="532" y="338" width="68" height="22"></rect>
<a xlink:href="reuse_source.svg"><text x="566" y="353">Source</text>
</a>
</g>
<path d="M600 349h10"></path>
<path d="M610 349h10"></path>
<g class="terminal">
<path d="M620 349h0"></path>
<path d="M688 349h0"></path>
<rect x="620" y="338" width="68" height="22" rx="10" ry="10"></rect>
<text x="654" y="353">"INTO"</text>
</g>
<path d="M688 349h10"></path>
<path d="M698 349h10"></path>
<g class="non-terminal">
<path d="M708 349h0"></path>
<path d="M776 349h0"></path>
<rect x="708" y="338" width="68" height="22"></rect>
<a xlink:href="reuse_target.svg"><text x="742" y="353">Target</text>
</a>
</g>
<path d="M776 349h10"></path>
<g>
<path d="M786 349h0"></path>
<path d="M998 349h0"></path>
<path d="M786 349h20"></path>
<g class="terminal">
<path d="M806 349h0"></path>
<path d="M938 349h40"></path>
<rect x="806" y="338" width="132" height="22" rx="10" ry="10"></rect>
<text x="872" y="353">"IN BYTE MODE"</text>
</g>
<path d="M978 349h20"></path>
<path d="M786 349a10 10 0 0 1 10 10v10a10 10 0 0 0 10 10"></path>
<g class="terminal">
<path d="M806 379h0"></path>
<path d="M978 379h0"></path>
<rect x="806" y="368" width="172" height="22" rx="10" ry="10"></rect>
<text x="892" y="383">"IN CHARACTER MODE"</text>
</g>
<path d="M978 379a10 10 0 0 0 10 -10v-10a10 10 0 0 1 10 -10"></path>
</g>
</g>
<path d="M998 349a10 10 0 0 0 10 -10v-289a10 10 0 0 1 10 -10"></path>
<path d="M160 40a10 10 0 0 1 10 10v349a10 10 0 0 0 10 10"></path>
<g>
<path d="M180 409h0"></path>
<path d="M582 409h416"></path>
<g class="terminal">
<path d="M180 409h0"></path>
<path d="M248 409h0"></path>
<rect x="180" y="398" width="68" height="22" rx="10" ry="10"></rect>
<text x="214" y="413">"LIST"</text>
</g>
<path d="M248 409h10"></path>
<path d="M258 409h10"></path>
<g>
<path d="M268 409h0"></path>
<path d="M582 409h0"></path>
<path d="M298 409h10"></path>
<g>
<path d="M308 409h0"></path>
<path d="M552 409h0"></path>
<g class="terminal">
<path d="M308 409h0"></path>
<path d="M464 409h0"></path>
<rect x="308" y="398" width="156" height="22" rx="10" ry="10"></rect>
<text x="386" y="413">"NUMBER OF LINES"</text>
</g>
<path d="M464 409h10"></path>
<path d="M474 409h10"></path>
<g class="non-terminal">
<path d="M484 409h0"></path>
<path d="M552 409h0"></path>
<rect x="484" y="398" width="68" height="22"></rect>
<a xlink:href="reuse_target.svg"><text x="518" y="413">Target</text>
</a>
</g>
</g>
<path d="M552 409h10"></path>
<path d="M298 409v20a10 10 0 0 0 10 10"></path>
<g>
<path d="M308 439h0"></path>
<path d="M472 439h80"></path>
<g class="terminal">
<path d="M308 439h0"></path>
<path d="M384 439h0"></path>
<rect x="308" y="428" width="76" height="22" rx="10" ry="10"></rect>
<text x="346" y="443">"INDEX"</text>
</g>
<path d="M384 439h10"></path>
<path d="M394 439h10"></path>
<g class="non-terminal">
<path d="M404 439h0"></path>
<path d="M472 439h0"></path>
<rect x="404" y="428" width="68" height="22"></rect>
<a xlink:href="reuse_target.svg"><text x="438" y="443">Target</text>
</a>
</g>
</g>
<path d="M552 439a10 10 0 0 0 10 -10v-20"></path>
<g class="diagram-text">
<title>take one or more branches, once each, in any order</title>
<path d="M 298 399 h -26 a 4 4 0 0 0 -4 4 v 12 a 4 4 0 0 0 4 4 h 26 z" class="diagram-text"></path>
<text x="283" y="413" class="diagram-text">1+</text>
<path d="M 562 399 h 16 a 4 4 0 0 1 4 4 v 12 a 4 4 0 0 1 -4 4 h -16 z" class="diagram-text"></path>
<path d="M 569 407 a 4 4 0 1 0 6 -1 m 2.75 -1 h -4 v 4 m 0 -3 h 2" style="stroke-width: 1.75"></path>
</g>
</g>
</g>
<path d="M998 409a10 10 0 0 0 10 -10v-349a10 10 0 0 1 10 -10"></path>
</g>
</g>
<path d="M1018 40h10"></path>
<path d="M 1028 40 h 20 m -10 -10 v 20 m 10 -20 v 20"></path>
</g>
</svg>
