<?xml version="1.0" encoding="UTF-8" standalone="no"?>
<!DOCTYPE svg PUBLIC "-//W3C//DTD SVG 1.1//EN"
 "http://www.w3.org/Graphics/SVG/1.1/DTD/svg11.dtd">
<!-- Generated by graphviz version 2.38.0 (20140413.2041)
 -->
<!-- Title: divide Pages: 1 -->
<svg width="112pt" height="404pt"
 viewBox="0.00 0.00 112.32 404.00" xmlns="http://www.w3.org/2000/svg" xmlns:xlink="http://www.w3.org/1999/xlink">
<g id="graph0" class="graph" transform="scale(1 1) rotate(0) translate(4 400)">
<title>divide</title>
<polygon fill="white" stroke="none" points="-4,4 -4,-400 108.315,-400 108.315,4 -4,4"/>
<!-- start -->
<g id="node1" class="node"><title>start</title>
<polygon fill="none" stroke="black" points="79.1577,-396 25.1577,-396 25.1577,-360 79.1577,-360 79.1577,-396"/>
<text text-anchor="middle" x="52.1577" y="-373.8" font-family="Times,serif" font-size="14.00">Start</text>
</g>
<!-- node540 -->
<g id="node6" class="node"><title>node540</title>
<ellipse fill="none" stroke="black" cx="52.1577" cy="-306" rx="52.3159" ry="18"/>
<text text-anchor="middle" x="52.1577" y="-301.8" font-family="Times,serif" font-size="14.00">&quot;DIVIDE&quot;</text>
</g>
<!-- start&#45;&gt;node540 -->
<g id="edge5" class="edge"><title>start&#45;&gt;node540</title>
<path fill="none" stroke="black" d="M52.1577,-359.697C52.1577,-351.983 52.1577,-342.712 52.1577,-334.112"/>
<polygon fill="black" stroke="black" points="55.6578,-334.104 52.1577,-324.104 48.6578,-334.104 55.6578,-334.104"/>
</g>
<!-- end -->
<g id="node2" class="node"><title>end</title>
<polygon fill="none" stroke="black" points="79.1577,-36 25.1577,-36 25.1577,-0 79.1577,-0 79.1577,-36"/>
<text text-anchor="middle" x="52.1577" y="-13.8" font-family="Times,serif" font-size="14.00">End</text>
</g>
<!-- node537 -->
<g id="node3" class="node"><title>node537</title>
<g id="a_node3"><a xlink:href="reuse_source.svg" xlink:title="&lt;u&gt;source&lt;/u&gt;">
<ellipse fill="none" stroke="black" cx="52.1577" cy="-90" rx="36.4761" ry="18"/>
<text text-anchor="start" x="33.8905" y="-86.8" font-family="Times,serif" text-decoration="underline" font-size="14.00" fill="blue">source</text>
</a>
</g>
</g>
<!-- node537&#45;&gt;end -->
<g id="edge1" class="edge"><title>node537&#45;&gt;end</title>
<path fill="none" stroke="black" d="M52.1577,-71.6966C52.1577,-63.9827 52.1577,-54.7125 52.1577,-46.1124"/>
<polygon fill="black" stroke="black" points="55.6578,-46.1043 52.1577,-36.1043 48.6578,-46.1044 55.6578,-46.1043"/>
</g>
<!-- node538 -->
<g id="node4" class="node"><title>node538</title>
<ellipse fill="none" stroke="black" cx="52.1577" cy="-162" rx="32.1533" ry="18"/>
<text text-anchor="middle" x="52.1577" y="-157.8" font-family="Times,serif" font-size="14.00">&quot;BY&quot;</text>
</g>
<!-- node538&#45;&gt;node537 -->
<g id="edge2" class="edge"><title>node538&#45;&gt;node537</title>
<path fill="none" stroke="black" d="M52.1577,-143.697C52.1577,-135.983 52.1577,-126.712 52.1577,-118.112"/>
<polygon fill="black" stroke="black" points="55.6578,-118.104 52.1577,-108.104 48.6578,-118.104 55.6578,-118.104"/>
</g>
<!-- node539 -->
<g id="node5" class="node"><title>node539</title>
<g id="a_node5"><a xlink:href="reuse_target.svg" xlink:title="&lt;u&gt;target&lt;/u&gt;">
<ellipse fill="none" stroke="black" cx="52.1577" cy="-234" rx="33.0411" ry="18"/>
<text text-anchor="start" x="36.2222" y="-230.8" font-family="Times,serif" text-decoration="underline" font-size="14.00" fill="blue">target</text>
</a>
</g>
</g>
<!-- node539&#45;&gt;node538 -->
<g id="edge3" class="edge"><title>node539&#45;&gt;node538</title>
<path fill="none" stroke="black" d="M52.1577,-215.697C52.1577,-207.983 52.1577,-198.712 52.1577,-190.112"/>
<polygon fill="black" stroke="black" points="55.6578,-190.104 52.1577,-180.104 48.6578,-190.104 55.6578,-190.104"/>
</g>
<!-- node540&#45;&gt;node539 -->
<g id="edge4" class="edge"><title>node540&#45;&gt;node539</title>
<path fill="none" stroke="black" d="M52.1577,-287.697C52.1577,-279.983 52.1577,-270.712 52.1577,-262.112"/>
<polygon fill="black" stroke="black" points="55.6578,-262.104 52.1577,-252.104 48.6578,-262.104 55.6578,-262.104"/>
</g>
</g>
</svg>
