<svg xmlns="http://www.w3.org/2000/svg" xmlns:xlink="http://www.w3.org/1999/xlink" class="railroad-diagram" width="860" height="79" viewBox="0 0 860 79">
<defs>
<style type="text/css"><![CDATA[
path {
stroke-width: 3;
stroke: black;
fill: rgba(0,0,0,0);
}
text {
font: bold 14px monospace;
text-anchor: middle;
}
text.diagram-text {
font-size: 12px;
}
a {
fill: blue;
}
text.diagram-arrow {
font-size: 16px;
}
text.label {
text-anchor: start;
}
text.comment {
font: italic 12px monospace;
}
rect {
stroke-width: 3;
stroke: black;
fill: #BCBCBC;
}
path.diagram-text {
stroke-width: 3;
stroke: black;
fill: #BCBCBC;
cursor: help;
}
]]></style>
</defs>
<g transform="translate(.5 .5)">
<path d="M 20 38 v 20 m 10 -20 v 20 m -10 -10 h 20.5"></path>
<path d="M40 48h10"></path>
<g>
<path d="M50 48h0"></path>
<path d="M810 48h0"></path>
<g class="terminal">
<path d="M50 48h0"></path>
<path d="M102 48h0"></path>
<rect x="50" y="37" width="52" height="22" rx="10" ry="10"></rect>
<text x="76" y="52">"DO"</text>
</g>
<path d="M102 48h10"></path>
<g>
<path d="M112 48h0"></path>
<path d="M810 48h0"></path>
<path d="M112 48a10 10 0 0 0 10 -10v-8a10 10 0 0 1 10 -10"></path>
<g>
<path d="M132 20h658"></path>
</g>
<path d="M790 20a10 10 0 0 1 10 10v8a10 10 0 0 0 10 10"></path>
<path d="M112 48h20"></path>
<g>
<path d="M132 48h0"></path>
<path d="M790 48h0"></path>
<g class="non-terminal">
<path d="M132 48h0"></path>
<path d="M200 48h0"></path>
<rect x="132" y="37" width="68" height="22"></rect>
<a xlink:href="reuse_source.svg"><text x="166" y="52">Source</text>
</a>
</g>
<path d="M200 48h10"></path>
<path d="M210 48h10"></path>
<g class="terminal">
<path d="M220 48h0"></path>
<path d="M296 48h0"></path>
<rect x="220" y="37" width="76" height="22" rx="10" ry="10"></rect>
<text x="258" y="52">"TIMES"</text>
</g>
<path d="M296 48h10"></path>
<g>
<path d="M306 48h0"></path>
<path d="M790 48h0"></path>
<path d="M306 48a10 10 0 0 0 10 -10v0a10 10 0 0 1 10 -10"></path>
<g>
<path d="M326 28h444"></path>
</g>
<path d="M770 28a10 10 0 0 1 10 10v0a10 10 0 0 0 10 10"></path>
<path d="M306 48h20"></path>
<g>
<path d="M326 48h0"></path>
<path d="M770 48h0"></path>
<g class="terminal">
<path d="M326 48h0"></path>
<path d="M506 48h0"></path>
<rect x="326" y="37" width="180" height="22" rx="10" ry="10"></rect>
<text x="416" y="52">"VARYING FIELD FROM"</text>
</g>
<path d="M506 48h10"></path>
<path d="M516 48h10"></path>
<g class="non-terminal">
<path d="M526 48h0"></path>
<path d="M594 48h0"></path>
<rect x="526" y="37" width="68" height="22"></rect>
<a xlink:href="reuse_source.svg"><text x="560" y="52">Source</text>
</a>
</g>
<path d="M594 48h10"></path>
<path d="M604 48h10"></path>
<g class="terminal">
<path d="M614 48h0"></path>
<path d="M682 48h0"></path>
<rect x="614" y="37" width="68" height="22" rx="10" ry="10"></rect>
<text x="648" y="52">"NEXT"</text>
</g>
<path d="M682 48h10"></path>
<path d="M692 48h10"></path>
<g class="non-terminal">
<path d="M702 48h0"></path>
<path d="M770 48h0"></path>
<rect x="702" y="37" width="68" height="22"></rect>
<a xlink:href="reuse_source.svg"><text x="736" y="52">Source</text>
</a>
</g>
</g>
<path d="M770 48h20"></path>
</g>
</g>
<path d="M790 48h20"></path>
</g>
</g>
<path d="M810 48h10"></path>
<path d="M 820 48 h 20 m -10 -10 v 20 m 10 -20 v 20"></path>
</g>
</svg>
