<svg xmlns="http://www.w3.org/2000/svg" xmlns:xlink="http://www.w3.org/1999/xlink" class="railroad-diagram" width="366" height="71" viewBox="0 0 366 71">
<defs>
<style type="text/css"><![CDATA[
path {
stroke-width: 3;
stroke: black;
fill: rgba(0,0,0,0);
}
text {
font: bold 14px monospace;
text-anchor: middle;
}
text.diagram-text {
font-size: 12px;
}
a {
fill: blue;
}
text.diagram-arrow {
font-size: 16px;
}
text.label {
text-anchor: start;
}
text.comment {
font: italic 12px monospace;
}
rect {
stroke-width: 3;
stroke: black;
fill: #BCBCBC;
}
path.diagram-text {
stroke-width: 3;
stroke: black;
fill: #BCBCBC;
cursor: help;
}
]]></style>
</defs>
<g transform="translate(.5 .5)">
<path d="M 20 30 v 20 m 10 -20 v 20 m -10 -10 h 20.5"></path>
<path d="M40 40h10"></path>
<g>
<path d="M50 40h0"></path>
<path d="M316 40h0"></path>
<g class="terminal">
<path d="M50 40h0"></path>
<path d="M102 40h0"></path>
<rect x="50" y="29" width="52" height="22" rx="10" ry="10"></rect>
<text x="76" y="44">"DO"</text>
</g>
<path d="M102 40h10"></path>
<g>
<path d="M112 40h0"></path>
<path d="M316 40h0"></path>
<path d="M112 40a10 10 0 0 0 10 -10v0a10 10 0 0 1 10 -10"></path>
<g>
<path d="M132 20h164"></path>
</g>
<path d="M296 20a10 10 0 0 1 10 10v0a10 10 0 0 0 10 10"></path>
<path d="M112 40h20"></path>
<g>
<path d="M132 40h0"></path>
<path d="M296 40h0"></path>
<g class="non-terminal">
<path d="M132 40h0"></path>
<path d="M200 40h0"></path>
<rect x="132" y="29" width="68" height="22"></rect>
<a xlink:href="reuse_source.svg"><text x="166" y="44">source</text>
</a>
</g>
<path d="M200 40h10"></path>
<path d="M210 40h10"></path>
<g class="terminal">
<path d="M220 40h0"></path>
<path d="M296 40h0"></path>
<rect x="220" y="29" width="76" height="22" rx="10" ry="10"></rect>
<text x="258" y="44">"TIMES"</text>
</g>
</g>
<path d="M296 40h20"></path>
</g>
</g>
<path d="M316 40h10"></path>
<path d="M 326 40 h 20 m -10 -10 v 20 m 10 -20 v 20"></path>
</g>
</svg>
