<svg xmlns="http://www.w3.org/2000/svg" xmlns:xlink="http://www.w3.org/1999/xlink" class="railroad-diagram" width="824" height="110" viewBox="0 0 824 110">
<defs>
<style type="text/css"><![CDATA[
path {
stroke-width: 3;
stroke: black;
fill: rgba(0,0,0,0);
}
text {
font: bold 14px monospace;
text-anchor: middle;
}
text.diagram-text {
font-size: 12px;
}
a {
fill: blue;
}
text.diagram-arrow {
font-size: 16px;
}
text.label {
text-anchor: start;
}
text.comment {
font: italic 12px monospace;
}
rect {
stroke-width: 3;
stroke: black;
fill: #BCBCBC;
}
path.diagram-text {
stroke-width: 3;
stroke: black;
fill: #BCBCBC;
cursor: help;
}
]]></style>
</defs>
<g transform="translate(.5 .5)">
<path d="M 20 30 v 20 m 10 -20 v 20 m -10 -10 h 20.5"></path>
<path d="M40 40h10"></path>
<g>
<path d="M50 40h0"></path>
<path d="M774 40h0"></path>
<g class="terminal">
<path d="M50 40h0"></path>
<path d="M102 40h0"></path>
<rect x="50" y="29" width="52" height="22" rx="10" ry="10"></rect>
<text x="76" y="44">"DO"</text>
</g>
<path d="M102 40h10"></path>
<g>
<path d="M112 40h0"></path>
<path d="M774 40h0"></path>
<path d="M112 40a10 10 0 0 0 10 -10v0a10 10 0 0 1 10 -10"></path>
<g>
<path d="M132 20h622"></path>
</g>
<path d="M754 20a10 10 0 0 1 10 10v0a10 10 0 0 0 10 10"></path>
<path d="M112 40h20"></path>
<g>
<path d="M132 40h0"></path>
<path d="M754 40h0"></path>
<path d="M162 40h10"></path>
<g>
<path d="M172 40h0"></path>
<path d="M724 40h0"></path>
<path d="M172 40h10"></path>
<g>
<path d="M182 40h0"></path>
<path d="M714 40h0"></path>
<g class="terminal">
<path d="M182 40h0"></path>
<path d="M274 40h0"></path>
<rect x="182" y="29" width="92" height="22" rx="10" ry="10"></rect>
<text x="228" y="44">"VARYING"</text>
</g>
<path d="M274 40h10"></path>
<path d="M284 40h10"></path>
<g class="non-terminal">
<path d="M294 40h0"></path>
<path d="M362 40h0"></path>
<rect x="294" y="29" width="68" height="22"></rect>
<a xlink:href="reuse_target.svg"><text x="328" y="44">Target</text>
</a>
</g>
<path d="M362 40h10"></path>
<path d="M372 40h10"></path>
<g class="terminal">
<path d="M382 40h0"></path>
<path d="M450 40h0"></path>
<rect x="382" y="29" width="68" height="22" rx="10" ry="10"></rect>
<text x="416" y="44">"FROM"</text>
</g>
<path d="M450 40h10"></path>
<path d="M460 40h10"></path>
<g class="non-terminal">
<path d="M470 40h0"></path>
<path d="M538 40h0"></path>
<rect x="470" y="29" width="68" height="22"></rect>
<a xlink:href="reuse_source.svg"><text x="504" y="44">Source</text>
</a>
</g>
<path d="M538 40h10"></path>
<path d="M548 40h10"></path>
<g class="terminal">
<path d="M558 40h0"></path>
<path d="M626 40h0"></path>
<rect x="558" y="29" width="68" height="22" rx="10" ry="10"></rect>
<text x="592" y="44">"NEXT"</text>
</g>
<path d="M626 40h10"></path>
<path d="M636 40h10"></path>
<g class="non-terminal">
<path d="M646 40h0"></path>
<path d="M714 40h0"></path>
<rect x="646" y="29" width="68" height="22"></rect>
<a xlink:href="reuse_source.svg"><text x="680" y="44">Source</text>
</a>
</g>
</g>
<path d="M714 40h10"></path>
<path d="M182 40a10 10 0 0 0 -10 10v0a10 10 0 0 0 10 10"></path>
<g>
<path d="M182 60h532"></path>
</g>
<path d="M714 60a10 10 0 0 0 10 -10v0a10 10 0 0 0 -10 -10"></path>
</g>
<path d="M724 40h10"></path>
<path d="M162 40v29a10 10 0 0 0 10 10"></path>
<g>
<path d="M172 79h0"></path>
<path d="M336 79h388"></path>
<g class="non-terminal">
<path d="M172 79h0"></path>
<path d="M240 79h0"></path>
<rect x="172" y="68" width="68" height="22"></rect>
<a xlink:href="reuse_source.svg"><text x="206" y="83">Source</text>
</a>
</g>
<path d="M240 79h10"></path>
<path d="M250 79h10"></path>
<g class="terminal">
<path d="M260 79h0"></path>
<path d="M336 79h0"></path>
<rect x="260" y="68" width="76" height="22" rx="10" ry="10"></rect>
<text x="298" y="83">"TIMES"</text>
</g>
</g>
<path d="M724 79a10 10 0 0 0 10 -10v-29"></path>
<g class="diagram-text">
<title>take one or more branches, once each, in any order</title>
<path d="M 162 30 h -26 a 4 4 0 0 0 -4 4 v 12 a 4 4 0 0 0 4 4 h 26 z" class="diagram-text"></path>
<text x="147" y="44" class="diagram-text">1+</text>
<path d="M 734 30 h 16 a 4 4 0 0 1 4 4 v 12 a 4 4 0 0 1 -4 4 h -16 z" class="diagram-text"></path>
<path d="M 741 38 a 4 4 0 1 0 6 -1 m 2.75 -1 h -4 v 4 m 0 -3 h 2" style="stroke-width: 1.75"></path>
</g>
</g>
<path d="M754 40h20"></path>
</g>
</g>
<path d="M774 40h10"></path>
<path d="M 784 40 h 20 m -10 -10 v 20 m 10 -20 v 20"></path>
</g>
</svg>
