<svg xmlns="http://www.w3.org/2000/svg" xmlns:xlink="http://www.w3.org/1999/xlink" class="railroad-diagram" width="752" height="101" viewBox="0 0 752 101">
<defs>
<style type="text/css"><![CDATA[
path {
stroke-width: 3;
stroke: black;
fill: rgba(0,0,0,0);
}
text {
font: bold 14px monospace;
text-anchor: middle;
}
text.diagram-text {
font-size: 12px;
}
a {
fill: blue;
}
text.diagram-arrow {
font-size: 16px;
}
text.label {
text-anchor: start;
}
text.comment {
font: italic 12px monospace;
}
rect {
stroke-width: 3;
stroke: black;
fill: #BCBCBC;
}
path.diagram-text {
stroke-width: 3;
stroke: black;
fill: #BCBCBC;
cursor: help;
}
]]></style>
</defs>
<g transform="translate(.5 .5)">
<path d="M 20 30 v 20 m 10 -20 v 20 m -10 -10 h 20.5"></path>
<path d="M40 40h10"></path>
<g>
<path d="M50 40h0"></path>
<path d="M702 40h0"></path>
<g class="terminal">
<path d="M50 40h0"></path>
<path d="M206 40h0"></path>
<rect x="50" y="29" width="156" height="22" rx="10" ry="10"></rect>
<text x="128" y="44">"EDITOR-CALL FOR"</text>
</g>
<path d="M206 40h10"></path>
<g>
<path d="M216 40h0"></path>
<path d="M340 40h0"></path>
<path d="M216 40a10 10 0 0 0 10 -10v0a10 10 0 0 1 10 -10"></path>
<g>
<path d="M236 20h84"></path>
</g>
<path d="M320 20a10 10 0 0 1 10 10v0a10 10 0 0 0 10 10"></path>
<path d="M216 40h20"></path>
<g class="terminal">
<path d="M236 40h0"></path>
<path d="M320 40h0"></path>
<rect x="236" y="29" width="84" height="22" rx="10" ry="10"></rect>
<text x="278" y="44">"REPORT"</text>
</g>
<path d="M320 40h20"></path>
</g>
<path d="M340 40h10"></path>
<g class="non-terminal">
<path d="M350 40h0"></path>
<path d="M418 40h0"></path>
<rect x="350" y="29" width="68" height="22"></rect>
<a xlink:href="reuse_source.svg"><text x="384" y="44">Source</text>
</a>
</g>
<path d="M418 40h10"></path>
<g>
<path d="M428 40h0"></path>
<path d="M702 40h0"></path>
<path d="M428 40a10 10 0 0 0 10 -10v0a10 10 0 0 1 10 -10"></path>
<g>
<path d="M448 20h234"></path>
</g>
<path d="M682 20a10 10 0 0 1 10 10v0a10 10 0 0 0 10 10"></path>
<path d="M428 40h20"></path>
<g>
<path d="M448 40h0"></path>
<path d="M682 40h0"></path>
<path d="M478 40h10"></path>
<g class="terminal">
<path d="M488 40h0"></path>
<path d="M620 40h32"></path>
<rect x="488" y="29" width="132" height="22" rx="10" ry="10"></rect>
<text x="554" y="44">"DISPLAY-MODE"</text>
</g>
<path d="M652 40h10"></path>
<path d="M478 40v20a10 10 0 0 0 10 10"></path>
<g>
<path d="M488 70h0"></path>
<path d="M652 70h0"></path>
<g class="terminal">
<path d="M488 70h0"></path>
<path d="M564 70h0"></path>
<rect x="488" y="59" width="76" height="22" rx="10" ry="10"></rect>
<text x="526" y="74">"TITLE"</text>
</g>
<path d="M564 70h10"></path>
<path d="M574 70h10"></path>
<g class="non-terminal">
<path d="M584 70h0"></path>
<path d="M652 70h0"></path>
<rect x="584" y="59" width="68" height="22"></rect>
<a xlink:href="reuse_source.svg"><text x="618" y="74">Source</text>
</a>
</g>
</g>
<path d="M652 70a10 10 0 0 0 10 -10v-20"></path>
<g class="diagram-text">
<title>take one or more branches, once each, in any order</title>
<path d="M 478 30 h -26 a 4 4 0 0 0 -4 4 v 12 a 4 4 0 0 0 4 4 h 26 z" class="diagram-text"></path>
<text x="463" y="44" class="diagram-text">1+</text>
<path d="M 662 30 h 16 a 4 4 0 0 1 4 4 v 12 a 4 4 0 0 1 -4 4 h -16 z" class="diagram-text"></path>
<path d="M 669 38 a 4 4 0 1 0 6 -1 m 2.75 -1 h -4 v 4 m 0 -3 h 2" style="stroke-width: 1.75"></path>
</g>
</g>
<path d="M682 40h20"></path>
</g>
</g>
<path d="M702 40h10"></path>
<path d="M 712 40 h 20 m -10 -10 v 20 m 10 -20 v 20"></path>
</g>
</svg>
