<svg xmlns="http://www.w3.org/2000/svg" xmlns:xlink="http://www.w3.org/1999/xlink" class="railroad-diagram" width="854" height="71" viewBox="0 0 854 71">
<defs>
<style type="text/css"><![CDATA[
path {
stroke-width: 3;
stroke: black;
fill: rgba(0,0,0,0);
}
text {
font: bold 14px monospace;
text-anchor: middle;
}
text.diagram-text {
font-size: 12px;
}
a {
fill: blue;
}
text.diagram-arrow {
font-size: 16px;
}
text.label {
text-anchor: start;
}
text.comment {
font: italic 12px monospace;
}
rect {
stroke-width: 3;
stroke: black;
fill: #BCBCBC;
}
path.diagram-text {
stroke-width: 3;
stroke: black;
fill: #BCBCBC;
cursor: help;
}
]]></style>
</defs>
<g transform="translate(.5 .5)">
<path d="M 20 30 v 20 m 10 -20 v 20 m -10 -10 h 20.5"></path>
<path d="M40 40h10"></path>
<g>
<path d="M50 40h0"></path>
<path d="M804 40h0"></path>
<g class="terminal">
<path d="M50 40h0"></path>
<path d="M206 40h0"></path>
<rect x="50" y="29" width="156" height="22" rx="10" ry="10"></rect>
<text x="128" y="44">"EDITOR-CALL FOR"</text>
</g>
<path d="M206 40h10"></path>
<g>
<path d="M216 40h0"></path>
<path d="M340 40h0"></path>
<path d="M216 40a10 10 0 0 0 10 -10v0a10 10 0 0 1 10 -10"></path>
<g>
<path d="M236 20h84"></path>
</g>
<path d="M320 20a10 10 0 0 1 10 10v0a10 10 0 0 0 10 10"></path>
<path d="M216 40h20"></path>
<g class="terminal">
<path d="M236 40h0"></path>
<path d="M320 40h0"></path>
<rect x="236" y="29" width="84" height="22" rx="10" ry="10"></rect>
<text x="278" y="44">"REPORT"</text>
</g>
<path d="M320 40h20"></path>
</g>
<path d="M340 40h10"></path>
<g class="non-terminal">
<path d="M350 40h0"></path>
<path d="M418 40h0"></path>
<rect x="350" y="29" width="68" height="22"></rect>
<a xlink:href="reuse_source.svg"><text x="384" y="44">Source</text>
</a>
</g>
<path d="M418 40h10"></path>
<g>
<path d="M428 40h0"></path>
<path d="M600 40h0"></path>
<path d="M428 40a10 10 0 0 0 10 -10v0a10 10 0 0 1 10 -10"></path>
<g>
<path d="M448 20h132"></path>
</g>
<path d="M580 20a10 10 0 0 1 10 10v0a10 10 0 0 0 10 10"></path>
<path d="M428 40h20"></path>
<g class="terminal">
<path d="M448 40h0"></path>
<path d="M580 40h0"></path>
<rect x="448" y="29" width="132" height="22" rx="10" ry="10"></rect>
<text x="514" y="44">"DISPLAY-MODE"</text>
</g>
<path d="M580 40h20"></path>
</g>
<g>
<path d="M600 40h0"></path>
<path d="M804 40h0"></path>
<path d="M600 40a10 10 0 0 0 10 -10v0a10 10 0 0 1 10 -10"></path>
<g>
<path d="M620 20h164"></path>
</g>
<path d="M784 20a10 10 0 0 1 10 10v0a10 10 0 0 0 10 10"></path>
<path d="M600 40h20"></path>
<g>
<path d="M620 40h0"></path>
<path d="M784 40h0"></path>
<g class="terminal">
<path d="M620 40h0"></path>
<path d="M696 40h0"></path>
<rect x="620" y="29" width="76" height="22" rx="10" ry="10"></rect>
<text x="658" y="44">"TITLE"</text>
</g>
<path d="M696 40h10"></path>
<path d="M706 40h10"></path>
<g class="non-terminal">
<path d="M716 40h0"></path>
<path d="M784 40h0"></path>
<rect x="716" y="29" width="68" height="22"></rect>
<a xlink:href="reuse_source.svg"><text x="750" y="44">Source</text>
</a>
</g>
</g>
<path d="M784 40h20"></path>
</g>
</g>
<path d="M804 40h10"></path>
<path d="M 814 40 h 20 m -10 -10 v 20 m 10 -20 v 20"></path>
</g>
</svg>
