<?xml version="1.0" encoding="UTF-8" standalone="no"?>
<!DOCTYPE svg PUBLIC "-//W3C//DTD SVG 1.1//EN"
 "http://www.w3.org/Graphics/SVG/1.1/DTD/svg11.dtd">
<!-- Generated by graphviz version 2.38.0 (20140413.2041)
 -->
<!-- Title: elseif Pages: 1 -->
<svg width="109pt" height="260pt"
 viewBox="0.00 0.00 109.13 260.00" xmlns="http://www.w3.org/2000/svg" xmlns:xlink="http://www.w3.org/1999/xlink">
<g id="graph0" class="graph" transform="scale(1 1) rotate(0) translate(4 256)">
<title>elseif</title>
<polygon fill="white" stroke="none" points="-4,4 -4,-256 105.129,-256 105.129,4 -4,4"/>
<!-- start -->
<g id="node1" class="node"><title>start</title>
<polygon fill="none" stroke="black" points="77.5643,-252 23.5643,-252 23.5643,-216 77.5643,-216 77.5643,-252"/>
<text text-anchor="middle" x="50.5643" y="-229.8" font-family="Times,serif" font-size="14.00">Start</text>
</g>
<!-- node229 -->
<g id="node4" class="node"><title>node229</title>
<ellipse fill="none" stroke="black" cx="50.5643" cy="-162" rx="50.6287" ry="18"/>
<text text-anchor="middle" x="50.5643" y="-157.8" font-family="Times,serif" font-size="14.00">&quot;ELSEIF&quot;</text>
</g>
<!-- start&#45;&gt;node229 -->
<g id="edge3" class="edge"><title>start&#45;&gt;node229</title>
<path fill="none" stroke="black" d="M50.5643,-215.697C50.5643,-207.983 50.5643,-198.712 50.5643,-190.112"/>
<polygon fill="black" stroke="black" points="54.0644,-190.104 50.5643,-180.104 47.0644,-190.104 54.0644,-190.104"/>
</g>
<!-- end -->
<g id="node2" class="node"><title>end</title>
<polygon fill="none" stroke="black" points="77.5643,-36 23.5643,-36 23.5643,-0 77.5643,-0 77.5643,-36"/>
<text text-anchor="middle" x="50.5643" y="-13.8" font-family="Times,serif" font-size="14.00">End</text>
</g>
<!-- node228 -->
<g id="node3" class="node"><title>node228</title>
<g id="a_node3"><a xlink:href="reuse_cond.svg" xlink:title="&lt;u&gt;cond&lt;/u&gt;">
<ellipse fill="none" stroke="black" cx="50.5643" cy="-90" rx="29.6185" ry="18"/>
<text text-anchor="start" x="36.957" y="-86.8" font-family="Times,serif" text-decoration="underline" font-size="14.00" fill="blue">cond</text>
</a>
</g>
</g>
<!-- node228&#45;&gt;end -->
<g id="edge1" class="edge"><title>node228&#45;&gt;end</title>
<path fill="none" stroke="black" d="M50.5643,-71.6966C50.5643,-63.9827 50.5643,-54.7125 50.5643,-46.1124"/>
<polygon fill="black" stroke="black" points="54.0644,-46.1043 50.5643,-36.1043 47.0644,-46.1044 54.0644,-46.1043"/>
</g>
<!-- node229&#45;&gt;node228 -->
<g id="edge2" class="edge"><title>node229&#45;&gt;node228</title>
<path fill="none" stroke="black" d="M50.5643,-143.697C50.5643,-135.983 50.5643,-126.712 50.5643,-118.112"/>
<polygon fill="black" stroke="black" points="54.0644,-118.104 50.5643,-108.104 47.0644,-118.104 54.0644,-118.104"/>
</g>
</g>
</svg>
