<?xml version="1.0" encoding="UTF-8" standalone="no"?>
<!DOCTYPE svg PUBLIC "-//W3C//DTD SVG 1.1//EN"
 "http://www.w3.org/Graphics/SVG/1.1/DTD/svg11.dtd">
<!-- Generated by graphviz version 2.38.0 (20140413.2041)
 -->
<!-- Title: else Pages: 1 -->
<svg width="92pt" height="188pt"
 viewBox="0.00 0.00 91.96 188.00" xmlns="http://www.w3.org/2000/svg" xmlns:xlink="http://www.w3.org/1999/xlink">
<g id="graph0" class="graph" transform="scale(1 1) rotate(0) translate(4 184)">
<title>else</title>
<polygon fill="white" stroke="none" points="-4,4 -4,-184 87.9624,-184 87.9624,4 -4,4"/>
<!-- start -->
<g id="node1" class="node"><title>start</title>
<polygon fill="none" stroke="black" points="68.9812,-180 14.9812,-180 14.9812,-144 68.9812,-144 68.9812,-180"/>
<text text-anchor="middle" x="41.9812" y="-157.8" font-family="Times,serif" font-size="14.00">Start</text>
</g>
<!-- node230 -->
<g id="node3" class="node"><title>node230</title>
<ellipse fill="none" stroke="black" cx="41.9812" cy="-90" rx="41.9625" ry="18"/>
<text text-anchor="middle" x="41.9812" y="-85.8" font-family="Times,serif" font-size="14.00">&quot;ELSE&quot;</text>
</g>
<!-- start&#45;&gt;node230 -->
<g id="edge2" class="edge"><title>start&#45;&gt;node230</title>
<path fill="none" stroke="black" d="M41.9812,-143.697C41.9812,-135.983 41.9812,-126.712 41.9812,-118.112"/>
<polygon fill="black" stroke="black" points="45.4813,-118.104 41.9812,-108.104 38.4813,-118.104 45.4813,-118.104"/>
</g>
<!-- end -->
<g id="node2" class="node"><title>end</title>
<polygon fill="none" stroke="black" points="68.9812,-36 14.9812,-36 14.9812,-0 68.9812,-0 68.9812,-36"/>
<text text-anchor="middle" x="41.9812" y="-13.8" font-family="Times,serif" font-size="14.00">End</text>
</g>
<!-- node230&#45;&gt;end -->
<g id="edge1" class="edge"><title>node230&#45;&gt;end</title>
<path fill="none" stroke="black" d="M41.9812,-71.6966C41.9812,-63.9827 41.9812,-54.7125 41.9812,-46.1124"/>
<polygon fill="black" stroke="black" points="45.4813,-46.1043 41.9812,-36.1043 38.4813,-46.1044 45.4813,-46.1043"/>
</g>
</g>
</svg>
