<?xml version="1.0" encoding="UTF-8" standalone="no"?>
<!DOCTYPE svg PUBLIC "-//W3C//DTD SVG 1.1//EN"
 "http://www.w3.org/Graphics/SVG/1.1/DTD/svg11.dtd">
<!-- Generated by graphviz version 2.38.0 (20140413.2041)
 -->
<!-- Title: endat Pages: 1 -->
<svg width="111pt" height="188pt"
 viewBox="0.00 0.00 111.26 188.00" xmlns="http://www.w3.org/2000/svg" xmlns:xlink="http://www.w3.org/1999/xlink">
<g id="graph0" class="graph" transform="scale(1 1) rotate(0) translate(4 184)">
<title>endat</title>
<polygon fill="white" stroke="none" points="-4,4 -4,-184 107.255,-184 107.255,4 -4,4"/>
<!-- start -->
<g id="node1" class="node"><title>start</title>
<polygon fill="none" stroke="black" points="78.6275,-180 24.6275,-180 24.6275,-144 78.6275,-144 78.6275,-180"/>
<text text-anchor="middle" x="51.6275" y="-157.8" font-family="Times,serif" font-size="14.00">Start</text>
</g>
<!-- node504 -->
<g id="node3" class="node"><title>node504</title>
<ellipse fill="none" stroke="black" cx="51.6275" cy="-90" rx="51.7554" ry="18"/>
<text text-anchor="middle" x="51.6275" y="-85.8" font-family="Times,serif" font-size="14.00">&quot;ENDAT&quot;</text>
</g>
<!-- start&#45;&gt;node504 -->
<g id="edge2" class="edge"><title>start&#45;&gt;node504</title>
<path fill="none" stroke="black" d="M51.6275,-143.697C51.6275,-135.983 51.6275,-126.712 51.6275,-118.112"/>
<polygon fill="black" stroke="black" points="55.1276,-118.104 51.6275,-108.104 48.1276,-118.104 55.1276,-118.104"/>
</g>
<!-- end -->
<g id="node2" class="node"><title>end</title>
<polygon fill="none" stroke="black" points="78.6275,-36 24.6275,-36 24.6275,-0 78.6275,-0 78.6275,-36"/>
<text text-anchor="middle" x="51.6275" y="-13.8" font-family="Times,serif" font-size="14.00">End</text>
</g>
<!-- node504&#45;&gt;end -->
<g id="edge1" class="edge"><title>node504&#45;&gt;end</title>
<path fill="none" stroke="black" d="M51.6275,-71.6966C51.6275,-63.9827 51.6275,-54.7125 51.6275,-46.1124"/>
<polygon fill="black" stroke="black" points="55.1276,-46.1043 51.6275,-36.1043 48.1276,-46.1044 55.1276,-46.1043"/>
</g>
</g>
</svg>
