<?xml version="1.0" encoding="UTF-8" standalone="no"?>
<!DOCTYPE svg PUBLIC "-//W3C//DTD SVG 1.1//EN"
 "http://www.w3.org/Graphics/SVG/1.1/DTD/svg11.dtd">
<!-- Generated by graphviz version 2.38.0 (20140413.2041)
 -->
<!-- Title: endcase Pages: 1 -->
<svg width="135pt" height="188pt"
 viewBox="0.00 0.00 134.87 188.00" xmlns="http://www.w3.org/2000/svg" xmlns:xlink="http://www.w3.org/1999/xlink">
<g id="graph0" class="graph" transform="scale(1 1) rotate(0) translate(4 184)">
<title>endcase</title>
<polygon fill="white" stroke="none" points="-4,4 -4,-184 130.872,-184 130.872,4 -4,4"/>
<!-- start -->
<g id="node1" class="node"><title>start</title>
<polygon fill="none" stroke="black" points="90.4361,-180 36.4361,-180 36.4361,-144 90.4361,-144 90.4361,-180"/>
<text text-anchor="middle" x="63.4361" y="-157.8" font-family="Times,serif" font-size="14.00">Start</text>
</g>
<!-- node366 -->
<g id="node3" class="node"><title>node366</title>
<ellipse fill="none" stroke="black" cx="63.4361" cy="-90" rx="63.3722" ry="18"/>
<text text-anchor="middle" x="63.4361" y="-85.8" font-family="Times,serif" font-size="14.00">&quot;ENDCASE&quot;</text>
</g>
<!-- start&#45;&gt;node366 -->
<g id="edge2" class="edge"><title>start&#45;&gt;node366</title>
<path fill="none" stroke="black" d="M63.4361,-143.697C63.4361,-135.983 63.4361,-126.712 63.4361,-118.112"/>
<polygon fill="black" stroke="black" points="66.9362,-118.104 63.4361,-108.104 59.9362,-118.104 66.9362,-118.104"/>
</g>
<!-- end -->
<g id="node2" class="node"><title>end</title>
<polygon fill="none" stroke="black" points="90.4361,-36 36.4361,-36 36.4361,-0 90.4361,-0 90.4361,-36"/>
<text text-anchor="middle" x="63.4361" y="-13.8" font-family="Times,serif" font-size="14.00">End</text>
</g>
<!-- node366&#45;&gt;end -->
<g id="edge1" class="edge"><title>node366&#45;&gt;end</title>
<path fill="none" stroke="black" d="M63.4361,-71.6966C63.4361,-63.9827 63.4361,-54.7125 63.4361,-46.1124"/>
<polygon fill="black" stroke="black" points="66.9362,-46.1043 63.4361,-36.1043 59.9362,-46.1044 66.9362,-46.1043"/>
</g>
</g>
</svg>
