<?xml version="1.0" encoding="UTF-8" standalone="no"?>
<!DOCTYPE svg PUBLIC "-//W3C//DTD SVG 1.1//EN"
 "http://www.w3.org/Graphics/SVG/1.1/DTD/svg11.dtd">
<!-- Generated by graphviz version 2.38.0 (20140413.2041)
 -->
<!-- Title: endclass Pages: 1 -->
<svg width="146pt" height="188pt"
 viewBox="0.00 0.00 145.61 188.00" xmlns="http://www.w3.org/2000/svg" xmlns:xlink="http://www.w3.org/1999/xlink">
<g id="graph0" class="graph" transform="scale(1 1) rotate(0) translate(4 184)">
<title>endclass</title>
<polygon fill="white" stroke="none" points="-4,4 -4,-184 141.609,-184 141.609,4 -4,4"/>
<!-- start -->
<g id="node1" class="node"><title>start</title>
<polygon fill="none" stroke="black" points="95.8044,-180 41.8044,-180 41.8044,-144 95.8044,-144 95.8044,-180"/>
<text text-anchor="middle" x="68.8044" y="-157.8" font-family="Times,serif" font-size="14.00">Start</text>
</g>
<!-- node265 -->
<g id="node3" class="node"><title>node265</title>
<ellipse fill="none" stroke="black" cx="68.8044" cy="-90" rx="68.6093" ry="18"/>
<text text-anchor="middle" x="68.8044" y="-85.8" font-family="Times,serif" font-size="14.00">&quot;ENDCLASS&quot;</text>
</g>
<!-- start&#45;&gt;node265 -->
<g id="edge2" class="edge"><title>start&#45;&gt;node265</title>
<path fill="none" stroke="black" d="M68.8044,-143.697C68.8044,-135.983 68.8044,-126.712 68.8044,-118.112"/>
<polygon fill="black" stroke="black" points="72.3045,-118.104 68.8044,-108.104 65.3045,-118.104 72.3045,-118.104"/>
</g>
<!-- end -->
<g id="node2" class="node"><title>end</title>
<polygon fill="none" stroke="black" points="95.8044,-36 41.8044,-36 41.8044,-0 95.8044,-0 95.8044,-36"/>
<text text-anchor="middle" x="68.8044" y="-13.8" font-family="Times,serif" font-size="14.00">End</text>
</g>
<!-- node265&#45;&gt;end -->
<g id="edge1" class="edge"><title>node265&#45;&gt;end</title>
<path fill="none" stroke="black" d="M68.8044,-71.6966C68.8044,-63.9827 68.8044,-54.7125 68.8044,-46.1124"/>
<polygon fill="black" stroke="black" points="72.3045,-46.1043 68.8044,-36.1043 65.3045,-46.1044 72.3045,-46.1043"/>
</g>
</g>
</svg>
