<?xml version="1.0" encoding="UTF-8" standalone="no"?>
<!DOCTYPE svg PUBLIC "-//W3C//DTD SVG 1.1//EN"
 "http://www.w3.org/Graphics/SVG/1.1/DTD/svg11.dtd">
<!-- Generated by graphviz version 2.38.0 (20140413.2041)
 -->
<!-- Title: enddo Pages: 1 -->
<svg width="113pt" height="188pt"
 viewBox="0.00 0.00 113.40 188.00" xmlns="http://www.w3.org/2000/svg" xmlns:xlink="http://www.w3.org/1999/xlink">
<g id="graph0" class="graph" transform="scale(1 1) rotate(0) translate(4 184)">
<title>enddo</title>
<polygon fill="white" stroke="none" points="-4,4 -4,-184 109.399,-184 109.399,4 -4,4"/>
<!-- start -->
<g id="node1" class="node"><title>start</title>
<polygon fill="none" stroke="black" points="79.6995,-180 25.6995,-180 25.6995,-144 79.6995,-144 79.6995,-180"/>
<text text-anchor="middle" x="52.6995" y="-157.8" font-family="Times,serif" font-size="14.00">Start</text>
</g>
<!-- node264 -->
<g id="node3" class="node"><title>node264</title>
<ellipse fill="none" stroke="black" cx="52.6995" cy="-90" rx="52.8997" ry="18"/>
<text text-anchor="middle" x="52.6995" y="-85.8" font-family="Times,serif" font-size="14.00">&quot;ENDDO&quot;</text>
</g>
<!-- start&#45;&gt;node264 -->
<g id="edge2" class="edge"><title>start&#45;&gt;node264</title>
<path fill="none" stroke="black" d="M52.6995,-143.697C52.6995,-135.983 52.6995,-126.712 52.6995,-118.112"/>
<polygon fill="black" stroke="black" points="56.1996,-118.104 52.6995,-108.104 49.1996,-118.104 56.1996,-118.104"/>
</g>
<!-- end -->
<g id="node2" class="node"><title>end</title>
<polygon fill="none" stroke="black" points="79.6995,-36 25.6995,-36 25.6995,-0 79.6995,-0 79.6995,-36"/>
<text text-anchor="middle" x="52.6995" y="-13.8" font-family="Times,serif" font-size="14.00">End</text>
</g>
<!-- node264&#45;&gt;end -->
<g id="edge1" class="edge"><title>node264&#45;&gt;end</title>
<path fill="none" stroke="black" d="M52.6995,-71.6966C52.6995,-63.9827 52.6995,-54.7125 52.6995,-46.1124"/>
<polygon fill="black" stroke="black" points="56.1996,-46.1043 52.6995,-36.1043 49.1996,-46.1044 56.1996,-46.1043"/>
</g>
</g>
</svg>
