<?xml version="1.0" encoding="UTF-8" standalone="no"?>
<!DOCTYPE svg PUBLIC "-//W3C//DTD SVG 1.1//EN"
 "http://www.w3.org/Graphics/SVG/1.1/DTD/svg11.dtd">
<!-- Generated by graphviz version 2.38.0 (20140413.2041)
 -->
<!-- Title: enddefine Pages: 1 -->
<svg width="232pt" height="188pt"
 viewBox="0.00 0.00 232.45 188.00" xmlns="http://www.w3.org/2000/svg" xmlns:xlink="http://www.w3.org/1999/xlink">
<g id="graph0" class="graph" transform="scale(1 1) rotate(0) translate(4 184)">
<title>enddefine</title>
<polygon fill="white" stroke="none" points="-4,4 -4,-184 228.446,-184 228.446,4 -4,4"/>
<!-- start -->
<g id="node1" class="node"><title>start</title>
<polygon fill="none" stroke="black" points="139.223,-180 85.2229,-180 85.2229,-144 139.223,-144 139.223,-180"/>
<text text-anchor="middle" x="112.223" y="-157.8" font-family="Times,serif" font-size="14.00">Start</text>
</g>
<!-- node458 -->
<g id="node3" class="node"><title>node458</title>
<ellipse fill="none" stroke="black" cx="112.223" cy="-90" rx="112.446" ry="18"/>
<text text-anchor="middle" x="112.223" y="-85.8" font-family="Times,serif" font-size="14.00">&quot;END&#45;OF&#45;DEFINITION&quot;</text>
</g>
<!-- start&#45;&gt;node458 -->
<g id="edge2" class="edge"><title>start&#45;&gt;node458</title>
<path fill="none" stroke="black" d="M112.223,-143.697C112.223,-135.983 112.223,-126.712 112.223,-118.112"/>
<polygon fill="black" stroke="black" points="115.723,-118.104 112.223,-108.104 108.723,-118.104 115.723,-118.104"/>
</g>
<!-- end -->
<g id="node2" class="node"><title>end</title>
<polygon fill="none" stroke="black" points="139.223,-36 85.2229,-36 85.2229,-0 139.223,-0 139.223,-36"/>
<text text-anchor="middle" x="112.223" y="-13.8" font-family="Times,serif" font-size="14.00">End</text>
</g>
<!-- node458&#45;&gt;end -->
<g id="edge1" class="edge"><title>node458&#45;&gt;end</title>
<path fill="none" stroke="black" d="M112.223,-71.6966C112.223,-63.9827 112.223,-54.7125 112.223,-46.1124"/>
<polygon fill="black" stroke="black" points="115.723,-46.1043 112.223,-36.1043 108.723,-46.1044 115.723,-46.1043"/>
</g>
</g>
</svg>
