<?xml version="1.0" encoding="UTF-8" standalone="no"?>
<!DOCTYPE svg PUBLIC "-//W3C//DTD SVG 1.1//EN"
 "http://www.w3.org/Graphics/SVG/1.1/DTD/svg11.dtd">
<!-- Generated by graphviz version 2.38.0 (20140413.2041)
 -->
<!-- Title: endform Pages: 1 -->
<svg width="140pt" height="188pt"
 viewBox="0.00 0.00 140.24 188.00" xmlns="http://www.w3.org/2000/svg" xmlns:xlink="http://www.w3.org/1999/xlink">
<g id="graph0" class="graph" transform="scale(1 1) rotate(0) translate(4 184)">
<title>endform</title>
<polygon fill="white" stroke="none" points="-4,4 -4,-184 136.241,-184 136.241,4 -4,4"/>
<!-- start -->
<g id="node1" class="node"><title>start</title>
<polygon fill="none" stroke="black" points="93.1207,-180 39.1207,-180 39.1207,-144 93.1207,-144 93.1207,-180"/>
<text text-anchor="middle" x="66.1207" y="-157.8" font-family="Times,serif" font-size="14.00">Start</text>
</g>
<!-- node203 -->
<g id="node3" class="node"><title>node203</title>
<ellipse fill="none" stroke="black" cx="66.1207" cy="-90" rx="66.2416" ry="18"/>
<text text-anchor="middle" x="66.1207" y="-85.8" font-family="Times,serif" font-size="14.00">&quot;ENDFORM&quot;</text>
</g>
<!-- start&#45;&gt;node203 -->
<g id="edge2" class="edge"><title>start&#45;&gt;node203</title>
<path fill="none" stroke="black" d="M66.1207,-143.697C66.1207,-135.983 66.1207,-126.712 66.1207,-118.112"/>
<polygon fill="black" stroke="black" points="69.6208,-118.104 66.1207,-108.104 62.6208,-118.104 69.6208,-118.104"/>
</g>
<!-- end -->
<g id="node2" class="node"><title>end</title>
<polygon fill="none" stroke="black" points="93.1207,-36 39.1207,-36 39.1207,-0 93.1207,-0 93.1207,-36"/>
<text text-anchor="middle" x="66.1207" y="-13.8" font-family="Times,serif" font-size="14.00">End</text>
</g>
<!-- node203&#45;&gt;end -->
<g id="edge1" class="edge"><title>node203&#45;&gt;end</title>
<path fill="none" stroke="black" d="M66.1207,-71.6966C66.1207,-63.9827 66.1207,-54.7125 66.1207,-46.1124"/>
<polygon fill="black" stroke="black" points="69.6208,-46.1043 66.1207,-36.1043 62.6208,-46.1044 69.6208,-46.1043"/>
</g>
</g>
</svg>
