<?xml version="1.0" encoding="UTF-8" standalone="no"?>
<!DOCTYPE svg PUBLIC "-//W3C//DTD SVG 1.1//EN"
 "http://www.w3.org/Graphics/SVG/1.1/DTD/svg11.dtd">
<!-- Generated by graphviz version 2.38.0 (20140413.2041)
 -->
<!-- Title: endif Pages: 1 -->
<svg width="103pt" height="188pt"
 viewBox="0.00 0.00 102.68 188.00" xmlns="http://www.w3.org/2000/svg" xmlns:xlink="http://www.w3.org/1999/xlink">
<g id="graph0" class="graph" transform="scale(1 1) rotate(0) translate(4 184)">
<title>endif</title>
<polygon fill="white" stroke="none" points="-4,4 -4,-184 98.6797,-184 98.6797,4 -4,4"/>
<!-- start -->
<g id="node1" class="node"><title>start</title>
<polygon fill="none" stroke="black" points="74.3399,-180 20.3399,-180 20.3399,-144 74.3399,-144 74.3399,-180"/>
<text text-anchor="middle" x="47.3399" y="-157.8" font-family="Times,serif" font-size="14.00">Start</text>
</g>
<!-- node227 -->
<g id="node3" class="node"><title>node227</title>
<ellipse fill="none" stroke="black" cx="47.3399" cy="-90" rx="47.1803" ry="18"/>
<text text-anchor="middle" x="47.3399" y="-85.8" font-family="Times,serif" font-size="14.00">&quot;ENDIF&quot;</text>
</g>
<!-- start&#45;&gt;node227 -->
<g id="edge2" class="edge"><title>start&#45;&gt;node227</title>
<path fill="none" stroke="black" d="M47.3399,-143.697C47.3399,-135.983 47.3399,-126.712 47.3399,-118.112"/>
<polygon fill="black" stroke="black" points="50.84,-118.104 47.3399,-108.104 43.84,-118.104 50.84,-118.104"/>
</g>
<!-- end -->
<g id="node2" class="node"><title>end</title>
<polygon fill="none" stroke="black" points="74.3399,-36 20.3399,-36 20.3399,-0 74.3399,-0 74.3399,-36"/>
<text text-anchor="middle" x="47.3399" y="-13.8" font-family="Times,serif" font-size="14.00">End</text>
</g>
<!-- node227&#45;&gt;end -->
<g id="edge1" class="edge"><title>node227&#45;&gt;end</title>
<path fill="none" stroke="black" d="M47.3399,-71.6966C47.3399,-63.9827 47.3399,-54.7125 47.3399,-46.1124"/>
<polygon fill="black" stroke="black" points="50.84,-46.1043 47.3399,-36.1043 43.84,-46.1044 50.84,-46.1043"/>
</g>
</g>
</svg>
