<?xml version="1.0" encoding="UTF-8" standalone="no"?>
<!DOCTYPE svg PUBLIC "-//W3C//DTD SVG 1.1//EN"
 "http://www.w3.org/Graphics/SVG/1.1/DTD/svg11.dtd">
<!-- Generated by graphviz version 2.38.0 (20140413.2041)
 -->
<!-- Title: endinterface Pages: 1 -->
<svg width="192pt" height="188pt"
 viewBox="0.00 0.00 191.72 188.00" xmlns="http://www.w3.org/2000/svg" xmlns:xlink="http://www.w3.org/1999/xlink">
<g id="graph0" class="graph" transform="scale(1 1) rotate(0) translate(4 184)">
<title>endinterface</title>
<polygon fill="white" stroke="none" points="-4,4 -4,-184 187.723,-184 187.723,4 -4,4"/>
<!-- start -->
<g id="node1" class="node"><title>start</title>
<polygon fill="none" stroke="black" points="118.861,-180 64.8613,-180 64.8613,-144 118.861,-144 118.861,-180"/>
<text text-anchor="middle" x="91.8613" y="-157.8" font-family="Times,serif" font-size="14.00">Start</text>
</g>
<!-- node464 -->
<g id="node3" class="node"><title>node464</title>
<ellipse fill="none" stroke="black" cx="91.8613" cy="-90" rx="91.7228" ry="18"/>
<text text-anchor="middle" x="91.8613" y="-85.8" font-family="Times,serif" font-size="14.00">&quot;ENDINTERFACE&quot;</text>
</g>
<!-- start&#45;&gt;node464 -->
<g id="edge2" class="edge"><title>start&#45;&gt;node464</title>
<path fill="none" stroke="black" d="M91.8613,-143.697C91.8613,-135.983 91.8613,-126.712 91.8613,-118.112"/>
<polygon fill="black" stroke="black" points="95.3614,-118.104 91.8613,-108.104 88.3614,-118.104 95.3614,-118.104"/>
</g>
<!-- end -->
<g id="node2" class="node"><title>end</title>
<polygon fill="none" stroke="black" points="118.861,-36 64.8613,-36 64.8613,-0 118.861,-0 118.861,-36"/>
<text text-anchor="middle" x="91.8613" y="-13.8" font-family="Times,serif" font-size="14.00">End</text>
</g>
<!-- node464&#45;&gt;end -->
<g id="edge1" class="edge"><title>node464&#45;&gt;end</title>
<path fill="none" stroke="black" d="M91.8613,-71.6966C91.8613,-63.9827 91.8613,-54.7125 91.8613,-46.1124"/>
<polygon fill="black" stroke="black" points="95.3614,-46.1043 91.8613,-36.1043 88.3614,-46.1044 95.3614,-46.1043"/>
</g>
</g>
</svg>
