<?xml version="1.0" encoding="UTF-8" standalone="no"?>
<!DOCTYPE svg PUBLIC "-//W3C//DTD SVG 1.1//EN"
 "http://www.w3.org/Graphics/SVG/1.1/DTD/svg11.dtd">
<!-- Generated by graphviz version 2.38.0 (20140413.2041)
 -->
<!-- Title: endloop Pages: 1 -->
<svg width="136pt" height="188pt"
 viewBox="0.00 0.00 135.93 188.00" xmlns="http://www.w3.org/2000/svg" xmlns:xlink="http://www.w3.org/1999/xlink">
<g id="graph0" class="graph" transform="scale(1 1) rotate(0) translate(4 184)">
<title>endloop</title>
<polygon fill="white" stroke="none" points="-4,4 -4,-184 131.934,-184 131.934,4 -4,4"/>
<!-- start -->
<g id="node1" class="node"><title>start</title>
<polygon fill="none" stroke="black" points="90.9672,-180 36.9672,-180 36.9672,-144 90.9672,-144 90.9672,-180"/>
<text text-anchor="middle" x="63.9672" y="-157.8" font-family="Times,serif" font-size="14.00">Start</text>
</g>
<!-- node303 -->
<g id="node3" class="node"><title>node303</title>
<ellipse fill="none" stroke="black" cx="63.9672" cy="-90" rx="63.9344" ry="18"/>
<text text-anchor="middle" x="63.9672" y="-85.8" font-family="Times,serif" font-size="14.00">&quot;ENDLOOP&quot;</text>
</g>
<!-- start&#45;&gt;node303 -->
<g id="edge2" class="edge"><title>start&#45;&gt;node303</title>
<path fill="none" stroke="black" d="M63.9672,-143.697C63.9672,-135.983 63.9672,-126.712 63.9672,-118.112"/>
<polygon fill="black" stroke="black" points="67.4673,-118.104 63.9672,-108.104 60.4673,-118.104 67.4673,-118.104"/>
</g>
<!-- end -->
<g id="node2" class="node"><title>end</title>
<polygon fill="none" stroke="black" points="90.9672,-36 36.9672,-36 36.9672,-0 90.9672,-0 90.9672,-36"/>
<text text-anchor="middle" x="63.9672" y="-13.8" font-family="Times,serif" font-size="14.00">End</text>
</g>
<!-- node303&#45;&gt;end -->
<g id="edge1" class="edge"><title>node303&#45;&gt;end</title>
<path fill="none" stroke="black" d="M63.9672,-71.6966C63.9672,-63.9827 63.9672,-54.7125 63.9672,-46.1124"/>
<polygon fill="black" stroke="black" points="67.4673,-46.1043 63.9672,-36.1043 60.4673,-46.1044 67.4673,-46.1043"/>
</g>
</g>
</svg>
