<?xml version="1.0" encoding="UTF-8" standalone="no"?>
<!DOCTYPE svg PUBLIC "-//W3C//DTD SVG 1.1//EN"
 "http://www.w3.org/Graphics/SVG/1.1/DTD/svg11.dtd">
<!-- Generated by graphviz version 2.38.0 (20140413.2041)
 -->
<!-- Title: endselect Pages: 1 -->
<svg width="156pt" height="188pt"
 viewBox="0.00 0.00 156.33 188.00" xmlns="http://www.w3.org/2000/svg" xmlns:xlink="http://www.w3.org/1999/xlink">
<g id="graph0" class="graph" transform="scale(1 1) rotate(0) translate(4 184)">
<title>endselect</title>
<polygon fill="white" stroke="none" points="-4,4 -4,-184 152.326,-184 152.326,4 -4,4"/>
<!-- start -->
<g id="node1" class="node"><title>start</title>
<polygon fill="none" stroke="black" points="101.163,-180 47.163,-180 47.163,-144 101.163,-144 101.163,-180"/>
<text text-anchor="middle" x="74.163" y="-157.8" font-family="Times,serif" font-size="14.00">Start</text>
</g>
<!-- node505 -->
<g id="node3" class="node"><title>node505</title>
<ellipse fill="none" stroke="black" cx="74.163" cy="-90" rx="74.3263" ry="18"/>
<text text-anchor="middle" x="74.163" y="-85.8" font-family="Times,serif" font-size="14.00">&quot;ENDSELECT&quot;</text>
</g>
<!-- start&#45;&gt;node505 -->
<g id="edge2" class="edge"><title>start&#45;&gt;node505</title>
<path fill="none" stroke="black" d="M74.163,-143.697C74.163,-135.983 74.163,-126.712 74.163,-118.112"/>
<polygon fill="black" stroke="black" points="77.6631,-118.104 74.163,-108.104 70.6631,-118.104 77.6631,-118.104"/>
</g>
<!-- end -->
<g id="node2" class="node"><title>end</title>
<polygon fill="none" stroke="black" points="101.163,-36 47.163,-36 47.163,-0 101.163,-0 101.163,-36"/>
<text text-anchor="middle" x="74.163" y="-13.8" font-family="Times,serif" font-size="14.00">End</text>
</g>
<!-- node505&#45;&gt;end -->
<g id="edge1" class="edge"><title>node505&#45;&gt;end</title>
<path fill="none" stroke="black" d="M74.163,-71.6966C74.163,-63.9827 74.163,-54.7125 74.163,-46.1124"/>
<polygon fill="black" stroke="black" points="77.6631,-46.1043 74.163,-36.1043 70.6631,-46.1044 77.6631,-46.1043"/>
</g>
</g>
</svg>
