<?xml version="1.0" encoding="UTF-8" standalone="no"?>
<!DOCTYPE svg PUBLIC "-//W3C//DTD SVG 1.1//EN"
 "http://www.w3.org/Graphics/SVG/1.1/DTD/svg11.dtd">
<!-- Generated by graphviz version 2.38.0 (20140413.2041)
 -->
<!-- Title: endtry Pages: 1 -->
<svg width="124pt" height="188pt"
 viewBox="0.00 0.00 124.14 188.00" xmlns="http://www.w3.org/2000/svg" xmlns:xlink="http://www.w3.org/1999/xlink">
<g id="graph0" class="graph" transform="scale(1 1) rotate(0) translate(4 184)">
<title>endtry</title>
<polygon fill="white" stroke="none" points="-4,4 -4,-184 120.136,-184 120.136,4 -4,4"/>
<!-- start -->
<g id="node1" class="node"><title>start</title>
<polygon fill="none" stroke="black" points="85.0678,-180 31.0678,-180 31.0678,-144 85.0678,-144 85.0678,-180"/>
<text text-anchor="middle" x="58.0678" y="-157.8" font-family="Times,serif" font-size="14.00">Start</text>
</g>
<!-- node267 -->
<g id="node3" class="node"><title>node267</title>
<ellipse fill="none" stroke="black" cx="58.0678" cy="-90" rx="58.1356" ry="18"/>
<text text-anchor="middle" x="58.0678" y="-85.8" font-family="Times,serif" font-size="14.00">&quot;ENDTRY&quot;</text>
</g>
<!-- start&#45;&gt;node267 -->
<g id="edge2" class="edge"><title>start&#45;&gt;node267</title>
<path fill="none" stroke="black" d="M58.0678,-143.697C58.0678,-135.983 58.0678,-126.712 58.0678,-118.112"/>
<polygon fill="black" stroke="black" points="61.5679,-118.104 58.0678,-108.104 54.5679,-118.104 61.5679,-118.104"/>
</g>
<!-- end -->
<g id="node2" class="node"><title>end</title>
<polygon fill="none" stroke="black" points="85.0678,-36 31.0678,-36 31.0678,-0 85.0678,-0 85.0678,-36"/>
<text text-anchor="middle" x="58.0678" y="-13.8" font-family="Times,serif" font-size="14.00">End</text>
</g>
<!-- node267&#45;&gt;end -->
<g id="edge1" class="edge"><title>node267&#45;&gt;end</title>
<path fill="none" stroke="black" d="M58.0678,-71.6966C58.0678,-63.9827 58.0678,-54.7125 58.0678,-46.1124"/>
<polygon fill="black" stroke="black" points="61.5679,-46.1043 58.0678,-36.1043 54.5679,-46.1044 61.5679,-46.1043"/>
</g>
</g>
</svg>
