<?xml version="1.0" encoding="UTF-8" standalone="no"?>
<!DOCTYPE svg PUBLIC "-//W3C//DTD SVG 1.1//EN"
 "http://www.w3.org/Graphics/SVG/1.1/DTD/svg11.dtd">
<!-- Generated by graphviz version 2.38.0 (20140413.2041)
 -->
<!-- Title: endwhile Pages: 1 -->
<svg width="148pt" height="188pt"
 viewBox="0.00 0.00 147.71 188.00" xmlns="http://www.w3.org/2000/svg" xmlns:xlink="http://www.w3.org/1999/xlink">
<g id="graph0" class="graph" transform="scale(1 1) rotate(0) translate(4 184)">
<title>endwhile</title>
<polygon fill="white" stroke="none" points="-4,4 -4,-184 143.714,-184 143.714,4 -4,4"/>
<!-- start -->
<g id="node1" class="node"><title>start</title>
<polygon fill="none" stroke="black" points="96.857,-180 42.857,-180 42.857,-144 96.857,-144 96.857,-180"/>
<text text-anchor="middle" x="69.857" y="-157.8" font-family="Times,serif" font-size="14.00">Start</text>
</g>
<!-- node271 -->
<g id="node3" class="node"><title>node271</title>
<ellipse fill="none" stroke="black" cx="69.857" cy="-90" rx="69.7142" ry="18"/>
<text text-anchor="middle" x="69.857" y="-85.8" font-family="Times,serif" font-size="14.00">&quot;ENDWHILE&quot;</text>
</g>
<!-- start&#45;&gt;node271 -->
<g id="edge2" class="edge"><title>start&#45;&gt;node271</title>
<path fill="none" stroke="black" d="M69.857,-143.697C69.857,-135.983 69.857,-126.712 69.857,-118.112"/>
<polygon fill="black" stroke="black" points="73.3571,-118.104 69.857,-108.104 66.3571,-118.104 73.3571,-118.104"/>
</g>
<!-- end -->
<g id="node2" class="node"><title>end</title>
<polygon fill="none" stroke="black" points="96.857,-36 42.857,-36 42.857,-0 96.857,-0 96.857,-36"/>
<text text-anchor="middle" x="69.857" y="-13.8" font-family="Times,serif" font-size="14.00">End</text>
</g>
<!-- node271&#45;&gt;end -->
<g id="edge1" class="edge"><title>node271&#45;&gt;end</title>
<path fill="none" stroke="black" d="M69.857,-71.6966C69.857,-63.9827 69.857,-54.7125 69.857,-46.1124"/>
<polygon fill="black" stroke="black" points="73.3571,-46.1043 69.857,-36.1043 66.3571,-46.1044 73.3571,-46.1043"/>
</g>
</g>
</svg>
