<svg xmlns="http://www.w3.org/2000/svg" xmlns:xlink="http://www.w3.org/1999/xlink" class="railroad-diagram" width="678" height="71" viewBox="0 0 678 71">
<defs>
<style type="text/css"><![CDATA[
path {
stroke-width: 3;
stroke: black;
fill: rgba(0,0,0,0);
}
text {
font: bold 14px monospace;
text-anchor: middle;
}
text.diagram-text {
font-size: 12px;
}
a {
fill: blue;
}
text.diagram-arrow {
font-size: 16px;
}
text.label {
text-anchor: start;
}
text.comment {
font: italic 12px monospace;
}
rect {
stroke-width: 3;
stroke: black;
fill: #BCBCBC;
}
path.diagram-text {
stroke-width: 3;
stroke: black;
fill: #BCBCBC;
cursor: help;
}
]]></style>
</defs>
<g transform="translate(.5 .5)">
<path d="M 20 30 v 20 m 10 -20 v 20 m -10 -10 h 20.5"></path>
<path d="M40 40h10"></path>
<g>
<path d="M50 40h0"></path>
<path d="M628 40h0"></path>
<g class="terminal">
<path d="M50 40h0"></path>
<path d="M238 40h0"></path>
<rect x="50" y="29" width="188" height="22" rx="10" ry="10"></rect>
<text x="144" y="44">"ENHANCEMENT-SECTION"</text>
</g>
<path d="M238 40h10"></path>
<path d="M248 40h10"></path>
<g class="non-terminal">
<path d="M258 40h0"></path>
<path d="M318 40h0"></path>
<rect x="258" y="29" width="60" height="22"></rect>
<a xlink:href="reuse_field.svg"><text x="288" y="44">Field</text>
</a>
</g>
<path d="M318 40h10"></path>
<path d="M328 40h10"></path>
<g class="terminal">
<path d="M338 40h0"></path>
<path d="M414 40h0"></path>
<rect x="338" y="29" width="76" height="22" rx="10" ry="10"></rect>
<text x="376" y="44">"SPOTS"</text>
</g>
<path d="M414 40h10"></path>
<path d="M424 40h10"></path>
<g class="non-terminal">
<path d="M434 40h0"></path>
<path d="M494 40h0"></path>
<rect x="434" y="29" width="60" height="22"></rect>
<a xlink:href="reuse_field.svg"><text x="464" y="44">Field</text>
</a>
</g>
<path d="M494 40h10"></path>
<g>
<path d="M504 40h0"></path>
<path d="M628 40h0"></path>
<path d="M504 40a10 10 0 0 0 10 -10v0a10 10 0 0 1 10 -10"></path>
<g>
<path d="M524 20h84"></path>
</g>
<path d="M608 20a10 10 0 0 1 10 10v0a10 10 0 0 0 10 10"></path>
<path d="M504 40h20"></path>
<g class="terminal">
<path d="M524 40h0"></path>
<path d="M608 40h0"></path>
<rect x="524" y="29" width="84" height="22" rx="10" ry="10"></rect>
<text x="566" y="44">"STATIC"</text>
</g>
<path d="M608 40h20"></path>
</g>
</g>
<path d="M628 40h10"></path>
<path d="M 638 40 h 20 m -10 -10 v 20 m 10 -20 v 20"></path>
</g>
</svg>
