<svg xmlns="http://www.w3.org/2000/svg" xmlns:xlink="http://www.w3.org/1999/xlink" class="railroad-diagram" width="866" height="71" viewBox="0 0 866 71">
<defs>
<style type="text/css"><![CDATA[
path {
stroke-width: 3;
stroke: black;
fill: rgba(0,0,0,0);
}
text {
font: bold 14px monospace;
text-anchor: middle;
}
text.diagram-text {
font-size: 12px;
}
a {
fill: blue;
}
text.diagram-arrow {
font-size: 16px;
}
text.label {
text-anchor: start;
}
text.comment {
font: italic 12px monospace;
}
rect {
stroke-width: 3;
stroke: black;
fill: #BCBCBC;
}
path.diagram-text {
stroke-width: 3;
stroke: black;
fill: #BCBCBC;
cursor: help;
}
]]></style>
</defs>
<g transform="translate(.5 .5)">
<path d="M 20 30 v 20 m 10 -20 v 20 m -10 -10 h 20.5"></path>
<path d="M40 40h10"></path>
<g>
<path d="M50 40h0"></path>
<path d="M816 40h0"></path>
<g class="terminal">
<path d="M50 40h0"></path>
<path d="M222 40h0"></path>
<rect x="50" y="29" width="172" height="22" rx="10" ry="10"></rect>
<text x="136" y="44">"ENHANCEMENT-POINT"</text>
</g>
<path d="M222 40h10"></path>
<path d="M232 40h10"></path>
<g class="non-terminal">
<path d="M242 40h0"></path>
<path d="M326 40h0"></path>
<rect x="242" y="29" width="84" height="22"></rect>
<a xlink:href="reuse_fieldsub.svg"><text x="284" y="44">FieldSub</text>
</a>
</g>
<path d="M326 40h10"></path>
<path d="M336 40h10"></path>
<g class="terminal">
<path d="M346 40h0"></path>
<path d="M422 40h0"></path>
<rect x="346" y="29" width="76" height="22" rx="10" ry="10"></rect>
<text x="384" y="44">"SPOTS"</text>
</g>
<path d="M422 40h10"></path>
<path d="M432 40h10"></path>
<g class="non-terminal">
<path d="M442 40h0"></path>
<path d="M502 40h0"></path>
<rect x="442" y="29" width="60" height="22"></rect>
<a xlink:href="reuse_field.svg"><text x="472" y="44">Field</text>
</a>
</g>
<path d="M502 40h10"></path>
<g>
<path d="M512 40h0"></path>
<path d="M636 40h0"></path>
<path d="M512 40a10 10 0 0 0 10 -10v0a10 10 0 0 1 10 -10"></path>
<g>
<path d="M532 20h84"></path>
</g>
<path d="M616 20a10 10 0 0 1 10 10v0a10 10 0 0 0 10 10"></path>
<path d="M512 40h20"></path>
<g class="terminal">
<path d="M532 40h0"></path>
<path d="M616 40h0"></path>
<rect x="532" y="29" width="84" height="22" rx="10" ry="10"></rect>
<text x="574" y="44">"STATIC"</text>
</g>
<path d="M616 40h20"></path>
</g>
<g>
<path d="M636 40h0"></path>
<path d="M816 40h0"></path>
<path d="M636 40a10 10 0 0 0 10 -10v0a10 10 0 0 1 10 -10"></path>
<g>
<path d="M656 20h140"></path>
</g>
<path d="M796 20a10 10 0 0 1 10 10v0a10 10 0 0 0 10 10"></path>
<path d="M636 40h20"></path>
<g class="terminal">
<path d="M656 40h0"></path>
<path d="M796 40h0"></path>
<rect x="656" y="29" width="140" height="22" rx="10" ry="10"></rect>
<text x="726" y="44">"INCLUDE BOUND"</text>
</g>
<path d="M796 40h20"></path>
</g>
</g>
<path d="M816 40h10"></path>
<path d="M 826 40 h 20 m -10 -10 v 20 m 10 -20 v 20"></path>
</g>
</svg>
