<svg xmlns="http://www.w3.org/2000/svg" xmlns:xlink="http://www.w3.org/1999/xlink" class="railroad-diagram" width="648" height="101" viewBox="0 0 648 101">
<defs>
<style type="text/css"><![CDATA[
path {
stroke-width: 3;
stroke: black;
fill: rgba(0,0,0,0);
}
text {
font: bold 14px monospace;
text-anchor: middle;
}
text.diagram-text {
font-size: 12px;
}
a {
fill: blue;
}
text.diagram-arrow {
font-size: 16px;
}
text.label {
text-anchor: start;
}
text.comment {
font: italic 12px monospace;
}
rect {
stroke-width: 3;
stroke: black;
fill: #BCBCBC;
}
path.diagram-text {
stroke-width: 3;
stroke: black;
fill: #BCBCBC;
cursor: help;
}
]]></style>
</defs>
<g transform="translate(.5 .5)">
<path d="M 20 30 v 20 m 10 -20 v 20 m -10 -10 h 20.5"></path>
<path d="M40 40h10"></path>
<g>
<path d="M50 40h0"></path>
<path d="M598 40h0"></path>
<g>
<path d="M50 40h0"></path>
<path d="M222 40h0"></path>
<path d="M50 40h20"></path>
<g class="terminal">
<path d="M70 40h0"></path>
<path d="M202 40h0"></path>
<rect x="70" y="29" width="132" height="22" rx="10" ry="10"></rect>
<text x="136" y="44">"CLASS-EVENTS"</text>
</g>
<path d="M202 40h20"></path>
<path d="M50 40a10 10 0 0 1 10 10v10a10 10 0 0 0 10 10"></path>
<g class="terminal">
<path d="M70 70h0"></path>
<path d="M154 70h48"></path>
<rect x="70" y="59" width="84" height="22" rx="10" ry="10"></rect>
<text x="112" y="74">"EVENTS"</text>
</g>
<path d="M202 70a10 10 0 0 0 10 -10v-10a10 10 0 0 1 10 -10"></path>
</g>
<path d="M222 40h10"></path>
<g class="non-terminal">
<path d="M232 40h0"></path>
<path d="M292 40h0"></path>
<rect x="232" y="29" width="60" height="22"></rect>
<a xlink:href="reuse_field.svg"><text x="262" y="44">Field</text>
</a>
</g>
<path d="M292 40h10"></path>
<g>
<path d="M302 40h0"></path>
<path d="M598 40h0"></path>
<path d="M302 40a10 10 0 0 0 10 -10v0a10 10 0 0 1 10 -10"></path>
<g>
<path d="M322 20h256"></path>
</g>
<path d="M578 20a10 10 0 0 1 10 10v0a10 10 0 0 0 10 10"></path>
<path d="M302 40h20"></path>
<g>
<path d="M322 40h0"></path>
<path d="M578 40h0"></path>
<g class="terminal">
<path d="M322 40h0"></path>
<path d="M430 40h0"></path>
<rect x="322" y="29" width="108" height="22" rx="10" ry="10"></rect>
<text x="376" y="44">"EXPORTING"</text>
</g>
<path d="M430 40h10"></path>
<path d="M440 40h10"></path>
<g>
<path d="M450 40h0"></path>
<path d="M578 40h0"></path>
<path d="M450 40h10"></path>
<g class="non-terminal">
<path d="M460 40h0"></path>
<path d="M568 40h0"></path>
<rect x="460" y="29" width="108" height="22"></rect>
<a xlink:href="reuse_methodparam.svg"><text x="514" y="44">MethodParam</text>
</a>
</g>
<path d="M568 40h10"></path>
<path d="M460 40a10 10 0 0 0 -10 10v0a10 10 0 0 0 10 10"></path>
<g>
<path d="M460 60h108"></path>
</g>
<path d="M568 60a10 10 0 0 0 10 -10v0a10 10 0 0 0 -10 -10"></path>
</g>
</g>
<path d="M578 40h20"></path>
</g>
</g>
<path d="M598 40h10"></path>
<path d="M 608 40 h 20 m -10 -10 v 20 m 10 -20 v 20"></path>
</g>
</svg>
