<svg xmlns="http://www.w3.org/2000/svg" xmlns:xlink="http://www.w3.org/1999/xlink" class="railroad-diagram" width="570" height="80" viewBox="0 0 570 80">
<defs>
<style type="text/css"><![CDATA[
path {
stroke-width: 3;
stroke: black;
fill: rgba(0,0,0,0);
}
text {
font: bold 14px monospace;
text-anchor: middle;
}
text.diagram-text {
font-size: 12px;
}
a {
fill: blue;
}
text.diagram-arrow {
font-size: 16px;
}
text.label {
text-anchor: start;
}
text.comment {
font: italic 12px monospace;
}
rect {
stroke-width: 3;
stroke: black;
fill: #BCBCBC;
}
path.diagram-text {
stroke-width: 3;
stroke: black;
fill: #BCBCBC;
cursor: help;
}
]]></style>
</defs>
<g transform="translate(.5 .5)">
<path d="M 20 30 v 20 m 10 -20 v 20 m -10 -10 h 20.5"></path>
<path d="M40 40h10"></path>
<g>
<path d="M50 40h0"></path>
<path d="M520 40h0"></path>
<g class="terminal">
<path d="M50 40h0"></path>
<path d="M134 40h0"></path>
<rect x="50" y="29" width="84" height="22" rx="10" ry="10"></rect>
<text x="92" y="44">"EVENTS"</text>
</g>
<path d="M134 40h10"></path>
<path d="M144 40h10"></path>
<g class="non-terminal">
<path d="M154 40h0"></path>
<path d="M214 40h0"></path>
<rect x="154" y="29" width="60" height="22"></rect>
<a xlink:href="reuse_field.svg"><text x="184" y="44">Field</text>
</a>
</g>
<path d="M214 40h10"></path>
<g>
<path d="M224 40h0"></path>
<path d="M520 40h0"></path>
<path d="M224 40a10 10 0 0 0 10 -10v0a10 10 0 0 1 10 -10"></path>
<g>
<path d="M244 20h256"></path>
</g>
<path d="M500 20a10 10 0 0 1 10 10v0a10 10 0 0 0 10 10"></path>
<path d="M224 40h20"></path>
<g>
<path d="M244 40h0"></path>
<path d="M500 40h0"></path>
<g class="terminal">
<path d="M244 40h0"></path>
<path d="M352 40h0"></path>
<rect x="244" y="29" width="108" height="22" rx="10" ry="10"></rect>
<text x="298" y="44">"EXPORTING"</text>
</g>
<path d="M352 40h10"></path>
<path d="M362 40h10"></path>
<g>
<path d="M372 40h0"></path>
<path d="M500 40h0"></path>
<path d="M372 40h10"></path>
<g class="non-terminal">
<path d="M382 40h0"></path>
<path d="M490 40h0"></path>
<rect x="382" y="29" width="108" height="22"></rect>
<a xlink:href="reuse_methodparam.svg"><text x="436" y="44">MethodParam</text>
</a>
</g>
<path d="M490 40h10"></path>
<path d="M382 40a10 10 0 0 0 -10 10v0a10 10 0 0 0 10 10"></path>
<g>
<path d="M382 60h108"></path>
</g>
<path d="M490 60a10 10 0 0 0 10 -10v0a10 10 0 0 0 -10 -10"></path>
</g>
</g>
<path d="M500 40h20"></path>
</g>
</g>
<path d="M520 40h10"></path>
<path d="M 530 40 h 20 m -10 -10 v 20 m 10 -20 v 20"></path>
</g>
</svg>
