<?xml version="1.0" encoding="UTF-8" standalone="no"?>
<!DOCTYPE svg PUBLIC "-//W3C//DTD SVG 1.1//EN"
 "http://www.w3.org/Graphics/SVG/1.1/DTD/svg11.dtd">
<!-- Generated by graphviz version 2.38.0 (20140413.2041)
 -->
<!-- Title: exit Pages: 1 -->
<svg width="90pt" height="188pt"
 viewBox="0.00 0.00 89.80 188.00" xmlns="http://www.w3.org/2000/svg" xmlns:xlink="http://www.w3.org/1999/xlink">
<g id="graph0" class="graph" transform="scale(1 1) rotate(0) translate(4 184)">
<title>exit</title>
<polygon fill="white" stroke="none" points="-4,4 -4,-184 85.7993,-184 85.7993,4 -4,4"/>
<!-- start -->
<g id="node1" class="node"><title>start</title>
<polygon fill="none" stroke="black" points="67.8996,-180 13.8996,-180 13.8996,-144 67.8996,-144 67.8996,-180"/>
<text text-anchor="middle" x="40.8996" y="-157.8" font-family="Times,serif" font-size="14.00">Start</text>
</g>
<!-- node365 -->
<g id="node3" class="node"><title>node365</title>
<ellipse fill="none" stroke="black" cx="40.8996" cy="-90" rx="40.7995" ry="18"/>
<text text-anchor="middle" x="40.8996" y="-85.8" font-family="Times,serif" font-size="14.00">&quot;EXIT&quot;</text>
</g>
<!-- start&#45;&gt;node365 -->
<g id="edge2" class="edge"><title>start&#45;&gt;node365</title>
<path fill="none" stroke="black" d="M40.8996,-143.697C40.8996,-135.983 40.8996,-126.712 40.8996,-118.112"/>
<polygon fill="black" stroke="black" points="44.3997,-118.104 40.8996,-108.104 37.3997,-118.104 44.3997,-118.104"/>
</g>
<!-- end -->
<g id="node2" class="node"><title>end</title>
<polygon fill="none" stroke="black" points="67.8996,-36 13.8996,-36 13.8996,-0 67.8996,-0 67.8996,-36"/>
<text text-anchor="middle" x="40.8996" y="-13.8" font-family="Times,serif" font-size="14.00">End</text>
</g>
<!-- node365&#45;&gt;end -->
<g id="edge1" class="edge"><title>node365&#45;&gt;end</title>
<path fill="none" stroke="black" d="M40.8996,-71.6966C40.8996,-63.9827 40.8996,-54.7125 40.8996,-46.1124"/>
<polygon fill="black" stroke="black" points="44.3997,-46.1043 40.8996,-36.1043 37.3997,-46.1044 44.3997,-46.1043"/>
</g>
</g>
</svg>
