<svg xmlns="http://www.w3.org/2000/svg" xmlns:xlink="http://www.w3.org/1999/xlink" class="railroad-diagram" width="1190" height="131" viewBox="0 0 1190 131">
<defs>
<style type="text/css"><![CDATA[
path {
stroke-width: 3;
stroke: black;
fill: rgba(0,0,0,0);
}
text {
font: bold 14px monospace;
text-anchor: middle;
}
text.diagram-text {
font-size: 12px;
}
a {
fill: blue;
}
text.diagram-arrow {
font-size: 16px;
}
text.label {
text-anchor: start;
}
text.comment {
font: italic 12px monospace;
}
rect {
stroke-width: 3;
stroke: black;
fill: #BCBCBC;
}
path.diagram-text {
stroke-width: 3;
stroke: black;
fill: #BCBCBC;
cursor: help;
}
]]></style>
</defs>
<g transform="translate(.5 .5)">
<path d="M 20 30 v 20 m 10 -20 v 20 m -10 -10 h 20.5"></path>
<path d="M40 40h10"></path>
<g>
<path d="M50 40h0"></path>
<path d="M1140 40h0"></path>
<g class="terminal">
<path d="M50 40h0"></path>
<path d="M134 40h0"></path>
<rect x="50" y="29" width="84" height="22" rx="10" ry="10"></rect>
<text x="92" y="44">"EXPORT"</text>
</g>
<path d="M134 40h10"></path>
<g>
<path d="M144 40h0"></path>
<path d="M316 40h0"></path>
<path d="M144 40h20"></path>
<g class="non-terminal">
<path d="M164 40h0"></path>
<path d="M296 40h0"></path>
<rect x="164" y="29" width="132" height="22"></rect>
<a xlink:href="reuse_ParameterListS.svg"><text x="230" y="44">ParameterListS</text>
</a>
</g>
<path d="M296 40h20"></path>
<path d="M144 40a10 10 0 0 1 10 10v10a10 10 0 0 0 10 10"></path>
<g class="non-terminal">
<path d="M164 70h0"></path>
<path d="M232 70h64"></path>
<rect x="164" y="59" width="68" height="22"></rect>
<a xlink:href="reuse_Source.svg"><text x="198" y="74">Source</text>
</a>
</g>
<path d="M296 70a10 10 0 0 0 10 -10v-10a10 10 0 0 1 10 -10"></path>
<path d="M144 40a10 10 0 0 1 10 10v40a10 10 0 0 0 10 10"></path>
<g class="non-terminal">
<path d="M164 100h0"></path>
<path d="M240 100h56"></path>
<rect x="164" y="89" width="76" height="22"></rect>
<a xlink:href="reuse_Dynamic.svg"><text x="202" y="104">Dynamic</text>
</a>
</g>
<path d="M296 100a10 10 0 0 0 10 -10v-40a10 10 0 0 1 10 -10"></path>
</g>
<path d="M316 40h10"></path>
<g class="terminal">
<path d="M326 40h0"></path>
<path d="M378 40h0"></path>
<rect x="326" y="29" width="52" height="22" rx="10" ry="10"></rect>
<text x="352" y="44">"TO"</text>
</g>
<path d="M378 40h10"></path>
<g>
<path d="M388 40h0"></path>
<path d="M952 40h0"></path>
<path d="M388 40h20"></path>
<g>
<path d="M408 40h0"></path>
<path d="M620 40h312"></path>
<g class="terminal">
<path d="M408 40h0"></path>
<path d="M532 40h0"></path>
<rect x="408" y="29" width="124" height="22" rx="10" ry="10"></rect>
<text x="470" y="44">"DATA BUFFER"</text>
</g>
<path d="M532 40h10"></path>
<path d="M542 40h10"></path>
<g class="non-terminal">
<path d="M552 40h0"></path>
<path d="M620 40h0"></path>
<rect x="552" y="29" width="68" height="22"></rect>
<a xlink:href="reuse_Target.svg"><text x="586" y="44">Target</text>
</a>
</g>
</g>
<path d="M932 40h20"></path>
<path d="M388 40a10 10 0 0 1 10 10v10a10 10 0 0 0 10 10"></path>
<g>
<path d="M408 70h0"></path>
<path d="M604 70h328"></path>
<g class="terminal">
<path d="M408 70h0"></path>
<path d="M516 70h0"></path>
<rect x="408" y="59" width="108" height="22" rx="10" ry="10"></rect>
<text x="462" y="74">"MEMORY ID"</text>
</g>
<path d="M516 70h10"></path>
<path d="M526 70h10"></path>
<g class="non-terminal">
<path d="M536 70h0"></path>
<path d="M604 70h0"></path>
<rect x="536" y="59" width="68" height="22"></rect>
<a xlink:href="reuse_Source.svg"><text x="570" y="74">Source</text>
</a>
</g>
</g>
<path d="M932 70a10 10 0 0 0 10 -10v-10a10 10 0 0 1 10 -10"></path>
<path d="M388 40a10 10 0 0 1 10 10v40a10 10 0 0 0 10 10"></path>
<g>
<path d="M408 100h0"></path>
<path d="M932 100h0"></path>
<g class="terminal">
<path d="M408 100h0"></path>
<path d="M508 100h0"></path>
<rect x="408" y="89" width="100" height="22" rx="10" ry="10"></rect>
<text x="458" y="104">"DATABASE"</text>
</g>
<path d="M508 100h10"></path>
<path d="M518 100h10"></path>
<g class="non-terminal">
<path d="M528 100h0"></path>
<path d="M596 100h0"></path>
<rect x="528" y="89" width="68" height="22"></rect>
<a xlink:href="reuse_Source.svg"><text x="562" y="104">Source</text>
</a>
</g>
<path d="M596 100h10"></path>
<path d="M606 100h10"></path>
<g class="terminal">
<path d="M616 100h0"></path>
<path d="M684 100h0"></path>
<rect x="616" y="89" width="68" height="22" rx="10" ry="10"></rect>
<text x="650" y="104">"FROM"</text>
</g>
<path d="M684 100h10"></path>
<path d="M694 100h10"></path>
<g class="non-terminal">
<path d="M704 100h0"></path>
<path d="M772 100h0"></path>
<rect x="704" y="89" width="68" height="22"></rect>
<a xlink:href="reuse_Source.svg"><text x="738" y="104">Source</text>
</a>
</g>
<path d="M772 100h10"></path>
<path d="M782 100h10"></path>
<g>
<path d="M792 100h0"></path>
<path d="M932 100h0"></path>
<g class="terminal">
<path d="M792 100h0"></path>
<path d="M844 100h0"></path>
<rect x="792" y="89" width="52" height="22" rx="10" ry="10"></rect>
<text x="818" y="104">"ID"</text>
</g>
<path d="M844 100h10"></path>
<path d="M854 100h10"></path>
<g class="non-terminal">
<path d="M864 100h0"></path>
<path d="M932 100h0"></path>
<rect x="864" y="89" width="68" height="22"></rect>
<a xlink:href="reuse_Source.svg"><text x="898" y="104">Source</text>
</a>
</g>
</g>
</g>
<path d="M932 100a10 10 0 0 0 10 -10v-40a10 10 0 0 1 10 -10"></path>
</g>
<g>
<path d="M952 40h0"></path>
<path d="M1140 40h0"></path>
<path d="M952 40a10 10 0 0 0 10 -10v0a10 10 0 0 1 10 -10"></path>
<g>
<path d="M972 20h148"></path>
</g>
<path d="M1120 20a10 10 0 0 1 10 10v0a10 10 0 0 0 10 10"></path>
<path d="M952 40h20"></path>
<g class="terminal">
<path d="M972 40h0"></path>
<path d="M1120 40h0"></path>
<rect x="972" y="29" width="148" height="22" rx="10" ry="10"></rect>
<text x="1046" y="44">"COMPRESSION ON"</text>
</g>
<path d="M1120 40h20"></path>
</g>
</g>
<path d="M1140 40h10"></path>
<path d="M 1150 40 h 20 m -10 -10 v 20 m 10 -20 v 20"></path>
</g>
</svg>
