<svg xmlns="http://www.w3.org/2000/svg" xmlns:xlink="http://www.w3.org/1999/xlink" class="railroad-diagram" width="1206" height="131" viewBox="0 0 1206 131">
<defs>
<style type="text/css"><![CDATA[
path {
stroke-width: 3;
stroke: black;
fill: rgba(0,0,0,0);
}
text {
font: bold 14px monospace;
text-anchor: middle;
}
text.diagram-text {
font-size: 12px;
}
a {
fill: blue;
}
text.diagram-arrow {
font-size: 16px;
}
text.label {
text-anchor: start;
}
text.comment {
font: italic 12px monospace;
}
rect {
stroke-width: 3;
stroke: black;
fill: #BCBCBC;
}
path.diagram-text {
stroke-width: 3;
stroke: black;
fill: #BCBCBC;
cursor: help;
}
]]></style>
</defs>
<g transform="translate(.5 .5)">
<path d="M 20 30 v 20 m 10 -20 v 20 m -10 -10 h 20.5"></path>
<path d="M40 40h10"></path>
<g>
<path d="M50 40h0"></path>
<path d="M1156 40h0"></path>
<g class="terminal">
<path d="M50 40h0"></path>
<path d="M134 40h0"></path>
<rect x="50" y="29" width="84" height="22" rx="10" ry="10"></rect>
<text x="92" y="44">"EXPORT"</text>
</g>
<path d="M134 40h10"></path>
<g>
<path d="M144 40h0"></path>
<path d="M332 40h0"></path>
<path d="M144 40h20"></path>
<g class="non-terminal">
<path d="M164 40h0"></path>
<path d="M312 40h0"></path>
<rect x="164" y="29" width="148" height="22"></rect>
<a xlink:href="reuse_parameter_list_s.svg"><text x="238" y="44">parameter&#95;list&#95;s</text>
</a>
</g>
<path d="M312 40h20"></path>
<path d="M144 40a10 10 0 0 1 10 10v10a10 10 0 0 0 10 10"></path>
<g class="non-terminal">
<path d="M164 70h0"></path>
<path d="M232 70h80"></path>
<rect x="164" y="59" width="68" height="22"></rect>
<a xlink:href="reuse_source.svg"><text x="198" y="74">source</text>
</a>
</g>
<path d="M312 70a10 10 0 0 0 10 -10v-10a10 10 0 0 1 10 -10"></path>
<path d="M144 40a10 10 0 0 1 10 10v40a10 10 0 0 0 10 10"></path>
<g class="non-terminal">
<path d="M164 100h0"></path>
<path d="M240 100h72"></path>
<rect x="164" y="89" width="76" height="22"></rect>
<a xlink:href="reuse_dynamic.svg"><text x="202" y="104">dynamic</text>
</a>
</g>
<path d="M312 100a10 10 0 0 0 10 -10v-40a10 10 0 0 1 10 -10"></path>
</g>
<path d="M332 40h10"></path>
<g class="terminal">
<path d="M342 40h0"></path>
<path d="M394 40h0"></path>
<rect x="342" y="29" width="52" height="22" rx="10" ry="10"></rect>
<text x="368" y="44">"TO"</text>
</g>
<path d="M394 40h10"></path>
<g>
<path d="M404 40h0"></path>
<path d="M968 40h0"></path>
<path d="M404 40h20"></path>
<g>
<path d="M424 40h0"></path>
<path d="M636 40h312"></path>
<g class="terminal">
<path d="M424 40h0"></path>
<path d="M548 40h0"></path>
<rect x="424" y="29" width="124" height="22" rx="10" ry="10"></rect>
<text x="486" y="44">"DATA BUFFER"</text>
</g>
<path d="M548 40h10"></path>
<path d="M558 40h10"></path>
<g class="non-terminal">
<path d="M568 40h0"></path>
<path d="M636 40h0"></path>
<rect x="568" y="29" width="68" height="22"></rect>
<a xlink:href="reuse_target.svg"><text x="602" y="44">target</text>
</a>
</g>
</g>
<path d="M948 40h20"></path>
<path d="M404 40a10 10 0 0 1 10 10v10a10 10 0 0 0 10 10"></path>
<g>
<path d="M424 70h0"></path>
<path d="M620 70h328"></path>
<g class="terminal">
<path d="M424 70h0"></path>
<path d="M532 70h0"></path>
<rect x="424" y="59" width="108" height="22" rx="10" ry="10"></rect>
<text x="478" y="74">"MEMORY ID"</text>
</g>
<path d="M532 70h10"></path>
<path d="M542 70h10"></path>
<g class="non-terminal">
<path d="M552 70h0"></path>
<path d="M620 70h0"></path>
<rect x="552" y="59" width="68" height="22"></rect>
<a xlink:href="reuse_source.svg"><text x="586" y="74">source</text>
</a>
</g>
</g>
<path d="M948 70a10 10 0 0 0 10 -10v-10a10 10 0 0 1 10 -10"></path>
<path d="M404 40a10 10 0 0 1 10 10v40a10 10 0 0 0 10 10"></path>
<g>
<path d="M424 100h0"></path>
<path d="M948 100h0"></path>
<g class="terminal">
<path d="M424 100h0"></path>
<path d="M524 100h0"></path>
<rect x="424" y="89" width="100" height="22" rx="10" ry="10"></rect>
<text x="474" y="104">"DATABASE"</text>
</g>
<path d="M524 100h10"></path>
<path d="M534 100h10"></path>
<g class="non-terminal">
<path d="M544 100h0"></path>
<path d="M612 100h0"></path>
<rect x="544" y="89" width="68" height="22"></rect>
<a xlink:href="reuse_source.svg"><text x="578" y="104">source</text>
</a>
</g>
<path d="M612 100h10"></path>
<path d="M622 100h10"></path>
<g class="terminal">
<path d="M632 100h0"></path>
<path d="M700 100h0"></path>
<rect x="632" y="89" width="68" height="22" rx="10" ry="10"></rect>
<text x="666" y="104">"FROM"</text>
</g>
<path d="M700 100h10"></path>
<path d="M710 100h10"></path>
<g class="non-terminal">
<path d="M720 100h0"></path>
<path d="M788 100h0"></path>
<rect x="720" y="89" width="68" height="22"></rect>
<a xlink:href="reuse_source.svg"><text x="754" y="104">source</text>
</a>
</g>
<path d="M788 100h10"></path>
<path d="M798 100h10"></path>
<g>
<path d="M808 100h0"></path>
<path d="M948 100h0"></path>
<g class="terminal">
<path d="M808 100h0"></path>
<path d="M860 100h0"></path>
<rect x="808" y="89" width="52" height="22" rx="10" ry="10"></rect>
<text x="834" y="104">"ID"</text>
</g>
<path d="M860 100h10"></path>
<path d="M870 100h10"></path>
<g class="non-terminal">
<path d="M880 100h0"></path>
<path d="M948 100h0"></path>
<rect x="880" y="89" width="68" height="22"></rect>
<a xlink:href="reuse_source.svg"><text x="914" y="104">source</text>
</a>
</g>
</g>
</g>
<path d="M948 100a10 10 0 0 0 10 -10v-40a10 10 0 0 1 10 -10"></path>
</g>
<g>
<path d="M968 40h0"></path>
<path d="M1156 40h0"></path>
<path d="M968 40a10 10 0 0 0 10 -10v0a10 10 0 0 1 10 -10"></path>
<g>
<path d="M988 20h148"></path>
</g>
<path d="M1136 20a10 10 0 0 1 10 10v0a10 10 0 0 0 10 10"></path>
<path d="M968 40h20"></path>
<g class="terminal">
<path d="M988 40h0"></path>
<path d="M1136 40h0"></path>
<rect x="988" y="29" width="148" height="22" rx="10" ry="10"></rect>
<text x="1062" y="44">"COMPRESSION ON"</text>
</g>
<path d="M1136 40h20"></path>
</g>
</g>
<path d="M1156 40h10"></path>
<path d="M 1166 40 h 20 m -10 -10 v 20 m 10 -20 v 20"></path>
</g>
</svg>
