<svg xmlns="http://www.w3.org/2000/svg" xmlns:xlink="http://www.w3.org/1999/xlink" class="railroad-diagram" width="1332" height="251" viewBox="0 0 1332 251">
<defs>
<style type="text/css"><![CDATA[
path {
stroke-width: 3;
stroke: black;
fill: rgba(0,0,0,0);
}
text {
font: bold 14px monospace;
text-anchor: middle;
}
text.diagram-text {
font-size: 12px;
}
a {
fill: blue;
}
text.diagram-arrow {
font-size: 16px;
}
text.label {
text-anchor: start;
}
text.comment {
font: italic 12px monospace;
}
rect {
stroke-width: 3;
stroke: black;
fill: #BCBCBC;
}
path.diagram-text {
stroke-width: 3;
stroke: black;
fill: #BCBCBC;
cursor: help;
}
]]></style>
</defs>
<g transform="translate(.5 .5)">
<path d="M 20 30 v 20 m 10 -20 v 20 m -10 -10 h 20.5"></path>
<path d="M40 40h10"></path>
<g>
<path d="M50 40h0"></path>
<path d="M1282 40h0"></path>
<g class="terminal">
<path d="M50 40h0"></path>
<path d="M134 40h0"></path>
<rect x="50" y="29" width="84" height="22" rx="10" ry="10"></rect>
<text x="92" y="44">"EXPORT"</text>
</g>
<path d="M134 40h10"></path>
<g>
<path d="M144 40h0"></path>
<path d="M316 40h0"></path>
<path d="M144 40h20"></path>
<g class="non-terminal">
<path d="M164 40h0"></path>
<path d="M296 40h0"></path>
<rect x="164" y="29" width="132" height="22"></rect>
<a xlink:href="reuse_parameterlists.svg"><text x="230" y="44">ParameterListS</text>
</a>
</g>
<path d="M296 40h20"></path>
<path d="M144 40a10 10 0 0 1 10 10v10a10 10 0 0 0 10 10"></path>
<g>
<path d="M164 70h0"></path>
<path d="M252 70h44"></path>
<path d="M164 70h10"></path>
<g class="non-terminal">
<path d="M174 70h0"></path>
<path d="M242 70h0"></path>
<rect x="174" y="59" width="68" height="22"></rect>
<a xlink:href="reuse_source.svg"><text x="208" y="74">Source</text>
</a>
</g>
<path d="M242 70h10"></path>
<path d="M174 70a10 10 0 0 0 -10 10v0a10 10 0 0 0 10 10"></path>
<g>
<path d="M174 90h68"></path>
</g>
<path d="M242 90a10 10 0 0 0 10 -10v0a10 10 0 0 0 -10 -10"></path>
</g>
<path d="M296 70a10 10 0 0 0 10 -10v-10a10 10 0 0 1 10 -10"></path>
<path d="M144 40a10 10 0 0 1 10 10v49a10 10 0 0 0 10 10"></path>
<g class="non-terminal">
<path d="M164 109h0"></path>
<path d="M240 109h56"></path>
<rect x="164" y="98" width="76" height="22"></rect>
<a xlink:href="reuse_dynamic.svg"><text x="202" y="113">Dynamic</text>
</a>
</g>
<path d="M296 109a10 10 0 0 0 10 -10v-49a10 10 0 0 1 10 -10"></path>
</g>
<path d="M316 40h10"></path>
<g class="terminal">
<path d="M326 40h0"></path>
<path d="M378 40h0"></path>
<rect x="326" y="29" width="52" height="22" rx="10" ry="10"></rect>
<text x="352" y="44">"TO"</text>
</g>
<path d="M378 40h10"></path>
<g>
<path d="M388 40h0"></path>
<path d="M1008 40h0"></path>
<path d="M388 40h20"></path>
<g>
<path d="M408 40h0"></path>
<path d="M620 40h368"></path>
<g class="terminal">
<path d="M408 40h0"></path>
<path d="M532 40h0"></path>
<rect x="408" y="29" width="124" height="22" rx="10" ry="10"></rect>
<text x="470" y="44">"DATA BUFFER"</text>
</g>
<path d="M532 40h10"></path>
<path d="M542 40h10"></path>
<g class="non-terminal">
<path d="M552 40h0"></path>
<path d="M620 40h0"></path>
<rect x="552" y="29" width="68" height="22"></rect>
<a xlink:href="reuse_target.svg"><text x="586" y="44">Target</text>
</a>
</g>
</g>
<path d="M988 40h20"></path>
<path d="M388 40a10 10 0 0 1 10 10v10a10 10 0 0 0 10 10"></path>
<g>
<path d="M408 70h0"></path>
<path d="M604 70h384"></path>
<g class="terminal">
<path d="M408 70h0"></path>
<path d="M516 70h0"></path>
<rect x="408" y="59" width="108" height="22" rx="10" ry="10"></rect>
<text x="462" y="74">"MEMORY ID"</text>
</g>
<path d="M516 70h10"></path>
<path d="M526 70h10"></path>
<g class="non-terminal">
<path d="M536 70h0"></path>
<path d="M604 70h0"></path>
<rect x="536" y="59" width="68" height="22"></rect>
<a xlink:href="reuse_source.svg"><text x="570" y="74">Source</text>
</a>
</g>
</g>
<path d="M988 70a10 10 0 0 0 10 -10v-10a10 10 0 0 1 10 -10"></path>
<path d="M388 40a10 10 0 0 1 10 10v40a10 10 0 0 0 10 10"></path>
<g>
<path d="M408 100h0"></path>
<path d="M858 100h130"></path>
<g class="terminal">
<path d="M408 100h0"></path>
<path d="M508 100h0"></path>
<rect x="408" y="89" width="100" height="22" rx="10" ry="10"></rect>
<text x="458" y="104">"DATABASE"</text>
</g>
<path d="M508 100h10"></path>
<path d="M518 100h10"></path>
<g class="non-terminal">
<path d="M528 100h0"></path>
<path d="M596 100h0"></path>
<rect x="528" y="89" width="68" height="22"></rect>
<a xlink:href="reuse_source.svg"><text x="562" y="104">Source</text>
</a>
</g>
<path d="M596 100h10"></path>
<path d="M606 100h10"></path>
<g>
<path d="M616 100h0"></path>
<path d="M858 100h0"></path>
<path d="M646 100h10"></path>
<g>
<path d="M656 100h0"></path>
<path d="M812 100h16"></path>
<g class="terminal">
<path d="M656 100h0"></path>
<path d="M724 100h0"></path>
<rect x="656" y="89" width="68" height="22" rx="10" ry="10"></rect>
<text x="690" y="104">"FROM"</text>
</g>
<path d="M724 100h10"></path>
<path d="M734 100h10"></path>
<g class="non-terminal">
<path d="M744 100h0"></path>
<path d="M812 100h0"></path>
<rect x="744" y="89" width="68" height="22"></rect>
<a xlink:href="reuse_source.svg"><text x="778" y="104">Source</text>
</a>
</g>
</g>
<path d="M828 100h10"></path>
<path d="M646 100v20a10 10 0 0 0 10 10"></path>
<g>
<path d="M656 130h0"></path>
<path d="M828 130h0"></path>
<g class="terminal">
<path d="M656 130h0"></path>
<path d="M740 130h0"></path>
<rect x="656" y="119" width="84" height="22" rx="10" ry="10"></rect>
<text x="698" y="134">"CLIENT"</text>
</g>
<path d="M740 130h10"></path>
<path d="M750 130h10"></path>
<g class="non-terminal">
<path d="M760 130h0"></path>
<path d="M828 130h0"></path>
<rect x="760" y="119" width="68" height="22"></rect>
<a xlink:href="reuse_source.svg"><text x="794" y="134">Source</text>
</a>
</g>
</g>
<path d="M828 130a10 10 0 0 0 10 -10v-20"></path>
<path d="M646 100v50a10 10 0 0 0 10 10"></path>
<g>
<path d="M656 160h0"></path>
<path d="M796 160h32"></path>
<g class="terminal">
<path d="M656 160h0"></path>
<path d="M708 160h0"></path>
<rect x="656" y="149" width="52" height="22" rx="10" ry="10"></rect>
<text x="682" y="164">"ID"</text>
</g>
<path d="M708 160h10"></path>
<path d="M718 160h10"></path>
<g class="non-terminal">
<path d="M728 160h0"></path>
<path d="M796 160h0"></path>
<rect x="728" y="149" width="68" height="22"></rect>
<a xlink:href="reuse_source.svg"><text x="762" y="164">Source</text>
</a>
</g>
</g>
<path d="M828 160a10 10 0 0 0 10 -10v-50"></path>
<g class="diagram-text">
<title>take one or more branches, once each, in any order</title>
<path d="M 646 90 h -26 a 4 4 0 0 0 -4 4 v 12 a 4 4 0 0 0 4 4 h 26 z" class="diagram-text"></path>
<text x="631" y="104" class="diagram-text">1+</text>
<path d="M 838 90 h 16 a 4 4 0 0 1 4 4 v 12 a 4 4 0 0 1 -4 4 h -16 z" class="diagram-text"></path>
<path d="M 845 98 a 4 4 0 1 0 6 -1 m 2.75 -1 h -4 v 4 m 0 -3 h 2" style="stroke-width: 1.75"></path>
</g>
</g>
</g>
<path d="M988 100a10 10 0 0 0 10 -10v-40a10 10 0 0 1 10 -10"></path>
<path d="M388 40a10 10 0 0 1 10 10v130a10 10 0 0 0 10 10"></path>
<g>
<path d="M408 190h0"></path>
<path d="M644 190h344"></path>
<g class="terminal">
<path d="M408 190h0"></path>
<path d="M556 190h0"></path>
<rect x="408" y="179" width="148" height="22" rx="10" ry="10"></rect>
<text x="482" y="194">"INTERNAL TABLE"</text>
</g>
<path d="M556 190h10"></path>
<path d="M566 190h10"></path>
<g class="non-terminal">
<path d="M576 190h0"></path>
<path d="M644 190h0"></path>
<rect x="576" y="179" width="68" height="22"></rect>
<a xlink:href="reuse_target.svg"><text x="610" y="194">Target</text>
</a>
</g>
</g>
<path d="M988 190a10 10 0 0 0 10 -10v-130a10 10 0 0 1 10 -10"></path>
<path d="M388 40a10 10 0 0 1 10 10v160a10 10 0 0 0 10 10"></path>
<g>
<path d="M408 220h0"></path>
<path d="M988 220h0"></path>
<g class="terminal">
<path d="M408 220h0"></path>
<path d="M548 220h0"></path>
<rect x="408" y="209" width="140" height="22" rx="10" ry="10"></rect>
<text x="478" y="224">"SHARED MEMORY"</text>
</g>
<path d="M548 220h10"></path>
<path d="M558 220h10"></path>
<g class="non-terminal">
<path d="M568 220h0"></path>
<path d="M628 220h0"></path>
<rect x="568" y="209" width="60" height="22"></rect>
<a xlink:href="reuse_field.svg"><text x="598" y="224">Field</text>
</a>
</g>
<path d="M628 220h10"></path>
<path d="M638 220h10"></path>
<g class="terminal">
<path d="M648 220h0"></path>
<path d="M692 220h0"></path>
<rect x="648" y="209" width="44" height="22" rx="10" ry="10"></rect>
<text x="670" y="224">"("</text>
</g>
<path d="M692 220h10"></path>
<path d="M702 220h10"></path>
<g class="non-terminal">
<path d="M712 220h0"></path>
<path d="M772 220h0"></path>
<rect x="712" y="209" width="60" height="22"></rect>
<a xlink:href="reuse_field.svg"><text x="742" y="224">Field</text>
</a>
</g>
<path d="M772 220h10"></path>
<path d="M782 220h10"></path>
<g class="terminal">
<path d="M792 220h0"></path>
<path d="M836 220h0"></path>
<rect x="792" y="209" width="44" height="22" rx="10" ry="10"></rect>
<text x="814" y="224">")"</text>
</g>
<path d="M836 220h10"></path>
<path d="M846 220h10"></path>
<g class="terminal">
<path d="M856 220h0"></path>
<path d="M908 220h0"></path>
<rect x="856" y="209" width="52" height="22" rx="10" ry="10"></rect>
<text x="882" y="224">"ID"</text>
</g>
<path d="M908 220h10"></path>
<path d="M918 220h10"></path>
<g class="non-terminal">
<path d="M928 220h0"></path>
<path d="M988 220h0"></path>
<rect x="928" y="209" width="60" height="22"></rect>
<a xlink:href="reuse_field.svg"><text x="958" y="224">Field</text>
</a>
</g>
</g>
<path d="M988 220a10 10 0 0 0 10 -10v-160a10 10 0 0 1 10 -10"></path>
</g>
<g>
<path d="M1008 40h0"></path>
<path d="M1282 40h0"></path>
<path d="M1008 40a10 10 0 0 0 10 -10v0a10 10 0 0 1 10 -10"></path>
<g>
<path d="M1028 20h234"></path>
</g>
<path d="M1262 20a10 10 0 0 1 10 10v0a10 10 0 0 0 10 10"></path>
<path d="M1008 40h20"></path>
<g>
<path d="M1028 40h0"></path>
<path d="M1262 40h0"></path>
<g class="terminal">
<path d="M1028 40h0"></path>
<path d="M1152 40h0"></path>
<rect x="1028" y="29" width="124" height="22" rx="10" ry="10"></rect>
<text x="1090" y="44">"COMPRESSION"</text>
</g>
<path d="M1152 40h10"></path>
<g>
<path d="M1162 40h0"></path>
<path d="M1262 40h0"></path>
<path d="M1162 40h20"></path>
<g class="terminal">
<path d="M1182 40h0"></path>
<path d="M1234 40h8"></path>
<rect x="1182" y="29" width="52" height="22" rx="10" ry="10"></rect>
<text x="1208" y="44">"ON"</text>
</g>
<path d="M1242 40h20"></path>
<path d="M1162 40a10 10 0 0 1 10 10v10a10 10 0 0 0 10 10"></path>
<g class="terminal">
<path d="M1182 70h0"></path>
<path d="M1242 70h0"></path>
<rect x="1182" y="59" width="60" height="22" rx="10" ry="10"></rect>
<text x="1212" y="74">"OFF"</text>
</g>
<path d="M1242 70a10 10 0 0 0 10 -10v-10a10 10 0 0 1 10 -10"></path>
</g>
</g>
<path d="M1262 40h20"></path>
</g>
</g>
<path d="M1282 40h10"></path>
<path d="M 1292 40 h 20 m -10 -10 v 20 m 10 -20 v 20"></path>
</g>
</svg>
