<svg xmlns="http://www.w3.org/2000/svg" xmlns:xlink="http://www.w3.org/1999/xlink" class="railroad-diagram" width="1210" height="140" viewBox="0 0 1210 140">
<defs>
<style type="text/css"><![CDATA[
path {
stroke-width: 3;
stroke: black;
fill: rgba(0,0,0,0);
}
text {
font: bold 14px monospace;
text-anchor: middle;
}
text.diagram-text {
font-size: 12px;
}
a {
fill: blue;
}
text.diagram-arrow {
font-size: 16px;
}
text.label {
text-anchor: start;
}
text.comment {
font: italic 12px monospace;
}
rect {
stroke-width: 3;
stroke: black;
fill: #BCBCBC;
}
path.diagram-text {
stroke-width: 3;
stroke: black;
fill: #BCBCBC;
cursor: help;
}
]]></style>
</defs>
<g transform="translate(.5 .5)">
<path d="M 20 30 v 20 m 10 -20 v 20 m -10 -10 h 20.5"></path>
<path d="M40 40h10"></path>
<g>
<path d="M50 40h0"></path>
<path d="M1160 40h0"></path>
<g class="terminal">
<path d="M50 40h0"></path>
<path d="M134 40h0"></path>
<rect x="50" y="29" width="84" height="22" rx="10" ry="10"></rect>
<text x="92" y="44">"EXPORT"</text>
</g>
<path d="M134 40h10"></path>
<g>
<path d="M144 40h0"></path>
<path d="M316 40h0"></path>
<path d="M144 40h20"></path>
<g class="non-terminal">
<path d="M164 40h0"></path>
<path d="M296 40h0"></path>
<rect x="164" y="29" width="132" height="22"></rect>
<a xlink:href="reuse_parameterlists.svg"><text x="230" y="44">ParameterListS</text>
</a>
</g>
<path d="M296 40h20"></path>
<path d="M144 40a10 10 0 0 1 10 10v10a10 10 0 0 0 10 10"></path>
<g>
<path d="M164 70h0"></path>
<path d="M252 70h44"></path>
<path d="M164 70h10"></path>
<g class="non-terminal">
<path d="M174 70h0"></path>
<path d="M242 70h0"></path>
<rect x="174" y="59" width="68" height="22"></rect>
<a xlink:href="reuse_source.svg"><text x="208" y="74">Source</text>
</a>
</g>
<path d="M242 70h10"></path>
<path d="M174 70a10 10 0 0 0 -10 10v0a10 10 0 0 0 10 10"></path>
<g>
<path d="M174 90h68"></path>
</g>
<path d="M242 90a10 10 0 0 0 10 -10v0a10 10 0 0 0 -10 -10"></path>
</g>
<path d="M296 70a10 10 0 0 0 10 -10v-10a10 10 0 0 1 10 -10"></path>
<path d="M144 40a10 10 0 0 1 10 10v49a10 10 0 0 0 10 10"></path>
<g class="non-terminal">
<path d="M164 109h0"></path>
<path d="M240 109h56"></path>
<rect x="164" y="98" width="76" height="22"></rect>
<a xlink:href="reuse_dynamic.svg"><text x="202" y="113">Dynamic</text>
</a>
</g>
<path d="M296 109a10 10 0 0 0 10 -10v-49a10 10 0 0 1 10 -10"></path>
</g>
<path d="M316 40h10"></path>
<g class="terminal">
<path d="M326 40h0"></path>
<path d="M378 40h0"></path>
<rect x="326" y="29" width="52" height="22" rx="10" ry="10"></rect>
<text x="352" y="44">"TO"</text>
</g>
<path d="M378 40h10"></path>
<g>
<path d="M388 40h0"></path>
<path d="M972 40h0"></path>
<path d="M388 40h20"></path>
<g>
<path d="M408 40h0"></path>
<path d="M620 40h332"></path>
<g class="terminal">
<path d="M408 40h0"></path>
<path d="M532 40h0"></path>
<rect x="408" y="29" width="124" height="22" rx="10" ry="10"></rect>
<text x="470" y="44">"DATA BUFFER"</text>
</g>
<path d="M532 40h10"></path>
<path d="M542 40h10"></path>
<g class="non-terminal">
<path d="M552 40h0"></path>
<path d="M620 40h0"></path>
<rect x="552" y="29" width="68" height="22"></rect>
<a xlink:href="reuse_target.svg"><text x="586" y="44">Target</text>
</a>
</g>
</g>
<path d="M952 40h20"></path>
<path d="M388 40a10 10 0 0 1 10 10v10a10 10 0 0 0 10 10"></path>
<g>
<path d="M408 70h0"></path>
<path d="M604 70h348"></path>
<g class="terminal">
<path d="M408 70h0"></path>
<path d="M516 70h0"></path>
<rect x="408" y="59" width="108" height="22" rx="10" ry="10"></rect>
<text x="462" y="74">"MEMORY ID"</text>
</g>
<path d="M516 70h10"></path>
<path d="M526 70h10"></path>
<g class="non-terminal">
<path d="M536 70h0"></path>
<path d="M604 70h0"></path>
<rect x="536" y="59" width="68" height="22"></rect>
<a xlink:href="reuse_source.svg"><text x="570" y="74">Source</text>
</a>
</g>
</g>
<path d="M952 70a10 10 0 0 0 10 -10v-10a10 10 0 0 1 10 -10"></path>
<path d="M388 40a10 10 0 0 1 10 10v49a10 10 0 0 0 10 10"></path>
<g>
<path d="M408 109h0"></path>
<path d="M952 109h0"></path>
<g class="terminal">
<path d="M408 109h0"></path>
<path d="M508 109h0"></path>
<rect x="408" y="98" width="100" height="22" rx="10" ry="10"></rect>
<text x="458" y="113">"DATABASE"</text>
</g>
<path d="M508 109h10"></path>
<path d="M518 109h10"></path>
<g class="non-terminal">
<path d="M528 109h0"></path>
<path d="M596 109h0"></path>
<rect x="528" y="98" width="68" height="22"></rect>
<a xlink:href="reuse_source.svg"><text x="562" y="113">Source</text>
</a>
</g>
<path d="M596 109h10"></path>
<g>
<path d="M606 109h0"></path>
<path d="M802 109h0"></path>
<path d="M606 109a10 10 0 0 0 10 -10v0a10 10 0 0 1 10 -10"></path>
<g>
<path d="M626 89h156"></path>
</g>
<path d="M782 89a10 10 0 0 1 10 10v0a10 10 0 0 0 10 10"></path>
<path d="M606 109h20"></path>
<g>
<path d="M626 109h0"></path>
<path d="M782 109h0"></path>
<g class="terminal">
<path d="M626 109h0"></path>
<path d="M694 109h0"></path>
<rect x="626" y="98" width="68" height="22" rx="10" ry="10"></rect>
<text x="660" y="113">"FROM"</text>
</g>
<path d="M694 109h10"></path>
<path d="M704 109h10"></path>
<g class="non-terminal">
<path d="M714 109h0"></path>
<path d="M782 109h0"></path>
<rect x="714" y="98" width="68" height="22"></rect>
<a xlink:href="reuse_source.svg"><text x="748" y="113">Source</text>
</a>
</g>
</g>
<path d="M782 109h20"></path>
</g>
<path d="M802 109h10"></path>
<g>
<path d="M812 109h0"></path>
<path d="M952 109h0"></path>
<g class="terminal">
<path d="M812 109h0"></path>
<path d="M864 109h0"></path>
<rect x="812" y="98" width="52" height="22" rx="10" ry="10"></rect>
<text x="838" y="113">"ID"</text>
</g>
<path d="M864 109h10"></path>
<path d="M874 109h10"></path>
<g class="non-terminal">
<path d="M884 109h0"></path>
<path d="M952 109h0"></path>
<rect x="884" y="98" width="68" height="22"></rect>
<a xlink:href="reuse_source.svg"><text x="918" y="113">Source</text>
</a>
</g>
</g>
</g>
<path d="M952 109a10 10 0 0 0 10 -10v-49a10 10 0 0 1 10 -10"></path>
</g>
<g>
<path d="M972 40h0"></path>
<path d="M1160 40h0"></path>
<path d="M972 40a10 10 0 0 0 10 -10v0a10 10 0 0 1 10 -10"></path>
<g>
<path d="M992 20h148"></path>
</g>
<path d="M1140 20a10 10 0 0 1 10 10v0a10 10 0 0 0 10 10"></path>
<path d="M972 40h20"></path>
<g class="terminal">
<path d="M992 40h0"></path>
<path d="M1140 40h0"></path>
<rect x="992" y="29" width="148" height="22" rx="10" ry="10"></rect>
<text x="1066" y="44">"COMPRESSION ON"</text>
</g>
<path d="M1140 40h20"></path>
</g>
</g>
<path d="M1160 40h10"></path>
<path d="M 1170 40 h 20 m -10 -10 v 20 m 10 -20 v 20"></path>
</g>
</svg>
