<?xml version="1.0" encoding="UTF-8" standalone="no"?>
<!DOCTYPE svg PUBLIC "-//W3C//DTD SVG 1.1//EN"
 "http://www.w3.org/Graphics/SVG/1.1/DTD/svg11.dtd">
<!-- Generated by graphviz version 2.38.0 (20140413.2041)
 -->
<!-- Title: export Pages: 1 -->
<svg width="346pt" height="548pt"
 viewBox="0.00 0.00 345.60 548.00" xmlns="http://www.w3.org/2000/svg" xmlns:xlink="http://www.w3.org/1999/xlink">
<g id="graph0" class="graph" transform="scale(1 1) rotate(0) translate(4 544)">
<title>export</title>
<polygon fill="white" stroke="none" points="-4,4 -4,-544 341.596,-544 341.596,4 -4,4"/>
<!-- start -->
<g id="node1" class="node"><title>start</title>
<polygon fill="none" stroke="black" points="200.63,-540 146.63,-540 146.63,-504 200.63,-504 200.63,-540"/>
<text text-anchor="middle" x="173.63" y="-517.8" font-family="Times,serif" font-size="14.00">Start</text>
</g>
<!-- node489 -->
<g id="node11" class="node"><title>node489</title>
<ellipse fill="none" stroke="black" cx="173.63" cy="-450" rx="56.4294" ry="18"/>
<text text-anchor="middle" x="173.63" y="-445.8" font-family="Times,serif" font-size="14.00">&quot;EXPORT&quot;</text>
</g>
<!-- start&#45;&gt;node489 -->
<g id="edge14" class="edge"><title>start&#45;&gt;node489</title>
<path fill="none" stroke="black" d="M173.63,-503.697C173.63,-495.983 173.63,-486.712 173.63,-478.112"/>
<polygon fill="black" stroke="black" points="177.13,-478.104 173.63,-468.104 170.13,-478.104 177.13,-478.104"/>
</g>
<!-- end -->
<g id="node2" class="node"><title>end</title>
<polygon fill="none" stroke="black" points="200.63,-36 146.63,-36 146.63,-0 200.63,-0 200.63,-36"/>
<text text-anchor="middle" x="173.63" y="-13.8" font-family="Times,serif" font-size="14.00">End</text>
</g>
<!-- node481 -->
<g id="node3" class="node"><title>node481</title>
<ellipse fill="none" stroke="black" cx="173.63" cy="-90" rx="102.739" ry="18"/>
<text text-anchor="middle" x="173.63" y="-85.8" font-family="Times,serif" font-size="14.00">&quot;COMPRESSION ON&quot;</text>
</g>
<!-- node481&#45;&gt;end -->
<g id="edge1" class="edge"><title>node481&#45;&gt;end</title>
<path fill="none" stroke="black" d="M173.63,-71.6966C173.63,-63.9827 173.63,-54.7125 173.63,-46.1124"/>
<polygon fill="black" stroke="black" points="177.13,-46.1043 173.63,-36.1043 170.13,-46.1044 177.13,-46.1043"/>
</g>
<!-- node482 -->
<g id="node4" class="node"><title>node482</title>
<g id="a_node4"><a xlink:href="reuse_target.svg" xlink:title="&lt;u&gt;target&lt;/u&gt;">
<ellipse fill="none" stroke="black" cx="84.6302" cy="-162" rx="33.0411" ry="18"/>
<text text-anchor="start" x="68.6947" y="-158.8" font-family="Times,serif" text-decoration="underline" font-size="14.00" fill="blue">target</text>
</a>
</g>
</g>
<!-- node482&#45;&gt;end -->
<g id="edge3" class="edge"><title>node482&#45;&gt;end</title>
<path fill="none" stroke="black" d="M73.4679,-145.045C61.8479,-126.275 47.2032,-94.7878 61.6302,-72 77.9851,-46.1668 110.704,-32.6817 136.574,-25.7963"/>
<polygon fill="black" stroke="black" points="137.572,-29.1557 146.46,-23.3898 135.916,-22.3544 137.572,-29.1557"/>
</g>
<!-- node482&#45;&gt;node481 -->
<g id="edge2" class="edge"><title>node482&#45;&gt;node481</title>
<path fill="none" stroke="black" d="M102.641,-146.834C114.502,-137.505 130.312,-125.07 144.001,-114.304"/>
<polygon fill="black" stroke="black" points="146.499,-116.792 152.196,-107.859 142.172,-111.29 146.499,-116.792"/>
</g>
<!-- node483 -->
<g id="node5" class="node"><title>node483</title>
<ellipse fill="none" stroke="black" cx="84.6302" cy="-234" rx="84.7605" ry="18"/>
<text text-anchor="middle" x="84.6302" y="-229.8" font-family="Times,serif" font-size="14.00">&quot;DATA BUFFER&quot;</text>
</g>
<!-- node483&#45;&gt;node482 -->
<g id="edge4" class="edge"><title>node483&#45;&gt;node482</title>
<path fill="none" stroke="black" d="M84.6302,-215.697C84.6302,-207.983 84.6302,-198.712 84.6302,-190.112"/>
<polygon fill="black" stroke="black" points="88.1303,-190.104 84.6302,-180.104 81.1303,-190.104 88.1303,-190.104"/>
</g>
<!-- node484 -->
<g id="node6" class="node"><title>node484</title>
<g id="a_node6"><a xlink:href="reuse_source.svg" xlink:title="&lt;u&gt;source&lt;/u&gt;">
<ellipse fill="none" stroke="black" cx="262.63" cy="-162" rx="36.4761" ry="18"/>
<text text-anchor="start" x="244.363" y="-158.8" font-family="Times,serif" text-decoration="underline" font-size="14.00" fill="blue">source</text>
</a>
</g>
</g>
<!-- node484&#45;&gt;end -->
<g id="edge6" class="edge"><title>node484&#45;&gt;end</title>
<path fill="none" stroke="black" d="M273.999,-144.711C285.585,-125.903 299.972,-94.6529 285.63,-72 269.275,-46.1668 236.557,-32.6817 210.686,-25.7963"/>
<polygon fill="black" stroke="black" points="211.344,-22.3544 200.8,-23.3898 209.688,-29.1557 211.344,-22.3544"/>
</g>
<!-- node484&#45;&gt;node481 -->
<g id="edge5" class="edge"><title>node484&#45;&gt;node481</title>
<path fill="none" stroke="black" d="M244.189,-146.496C232.299,-137.144 216.576,-124.778 202.991,-114.093"/>
<polygon fill="black" stroke="black" points="204.885,-111.13 194.861,-107.699 200.558,-116.632 204.885,-111.13"/>
</g>
<!-- node485 -->
<g id="node7" class="node"><title>node485</title>
<ellipse fill="none" stroke="black" cx="262.63" cy="-234" rx="74.931" ry="18"/>
<text text-anchor="middle" x="262.63" y="-229.8" font-family="Times,serif" font-size="14.00">&quot;MEMORY ID&quot;</text>
</g>
<!-- node485&#45;&gt;node484 -->
<g id="edge7" class="edge"><title>node485&#45;&gt;node484</title>
<path fill="none" stroke="black" d="M262.63,-215.697C262.63,-207.983 262.63,-198.712 262.63,-190.112"/>
<polygon fill="black" stroke="black" points="266.13,-190.104 262.63,-180.104 259.13,-190.104 266.13,-190.104"/>
</g>
<!-- node486 -->
<g id="node8" class="node"><title>node486</title>
<ellipse fill="none" stroke="black" cx="173.63" cy="-306" rx="31.5723" ry="18"/>
<text text-anchor="middle" x="173.63" y="-301.8" font-family="Times,serif" font-size="14.00">&quot;TO&quot;</text>
</g>
<!-- node486&#45;&gt;node483 -->
<g id="edge8" class="edge"><title>node486&#45;&gt;node483</title>
<path fill="none" stroke="black" d="M155.62,-290.834C143.674,-281.439 127.724,-268.894 113.968,-258.075"/>
<polygon fill="black" stroke="black" points="115.767,-255.037 105.743,-251.606 111.439,-260.539 115.767,-255.037"/>
</g>
<!-- node486&#45;&gt;node485 -->
<g id="edge9" class="edge"><title>node486&#45;&gt;node485</title>
<path fill="none" stroke="black" d="M191.641,-290.834C203.784,-281.283 220.066,-268.478 233.973,-257.54"/>
<polygon fill="black" stroke="black" points="236.141,-260.287 241.837,-251.354 231.813,-254.785 236.141,-260.287"/>
</g>
<!-- node487 -->
<g id="node9" class="node"><title>node487</title>
<g id="a_node9"><a xlink:href="reuse_parameter_list_s.svg" xlink:title="&lt;u&gt;parameter_list_s&lt;/u&gt;">
<ellipse fill="none" stroke="black" cx="109.63" cy="-378" rx="74.713" ry="18"/>
<text text-anchor="start" x="63.3693" y="-374.8" font-family="Times,serif" text-decoration="underline" font-size="14.00" fill="blue">parameter_list_s</text>
</a>
</g>
</g>
<!-- node487&#45;&gt;node486 -->
<g id="edge10" class="edge"><title>node487&#45;&gt;node486</title>
<path fill="none" stroke="black" d="M125.123,-360.055C133.413,-350.988 143.739,-339.694 152.73,-329.86"/>
<polygon fill="black" stroke="black" points="155.425,-332.098 159.59,-322.356 150.259,-327.375 155.425,-332.098"/>
</g>
<!-- node488 -->
<g id="node10" class="node"><title>node488</title>
<g id="a_node10"><a xlink:href="reuse_source.svg" xlink:title="&lt;u&gt;source&lt;/u&gt;">
<ellipse fill="none" stroke="black" cx="238.63" cy="-378" rx="36.4761" ry="18"/>
<text text-anchor="start" x="220.363" y="-374.8" font-family="Times,serif" text-decoration="underline" font-size="14.00" fill="blue">source</text>
</a>
</g>
</g>
<!-- node488&#45;&gt;node486 -->
<g id="edge11" class="edge"><title>node488&#45;&gt;node486</title>
<path fill="none" stroke="black" d="M224.205,-361.465C215.621,-352.221 204.571,-340.321 194.99,-330.003"/>
<polygon fill="black" stroke="black" points="197.385,-327.438 188.015,-322.492 192.255,-332.201 197.385,-327.438"/>
</g>
<!-- node489&#45;&gt;node487 -->
<g id="edge12" class="edge"><title>node489&#45;&gt;node487</title>
<path fill="none" stroke="black" d="M158.463,-432.411C150.53,-423.734 140.666,-412.946 131.886,-403.342"/>
<polygon fill="black" stroke="black" points="134.464,-400.975 125.133,-395.956 129.298,-405.698 134.464,-400.975"/>
</g>
<!-- node489&#45;&gt;node488 -->
<g id="edge13" class="edge"><title>node489&#45;&gt;node488</title>
<path fill="none" stroke="black" d="M189.034,-432.411C197.329,-423.479 207.7,-412.31 216.811,-402.498"/>
<polygon fill="black" stroke="black" points="219.544,-404.698 223.784,-394.988 214.415,-399.934 219.544,-404.698"/>
</g>
</g>
</svg>
