<svg xmlns="http://www.w3.org/2000/svg" xmlns:xlink="http://www.w3.org/1999/xlink" class="railroad-diagram" width="1232" height="131" viewBox="0 0 1232 131">
<defs>
<style type="text/css"><![CDATA[
path {
stroke-width: 3;
stroke: black;
fill: rgba(0,0,0,0);
}
text {
font: bold 14px monospace;
text-anchor: middle;
}
text.diagram-text {
font-size: 12px;
}
a {
fill: blue;
}
text.diagram-arrow {
font-size: 16px;
}
text.label {
text-anchor: start;
}
text.comment {
font: italic 12px monospace;
}
rect {
stroke-width: 3;
stroke: black;
fill: #BCBCBC;
}
path.diagram-text {
stroke-width: 3;
stroke: black;
fill: #BCBCBC;
cursor: help;
}
]]></style>
</defs>
<g transform="translate(.5 .5)">
<path d="M 20 21 v 20 m 10 -20 v 20 m -10 -10 h 20.5"></path>
<path d="M40 31h10"></path>
<g>
<path d="M50 31h0"></path>
<path d="M1182 31h0"></path>
<g class="terminal">
<path d="M50 31h0"></path>
<path d="M222 31h0"></path>
<rect x="50" y="20" width="172" height="22" rx="10" ry="10"></rect>
<text x="136" y="35">"FETCH NEXT CURSOR"</text>
</g>
<path d="M222 31h10"></path>
<path d="M232 31h10"></path>
<g class="non-terminal">
<path d="M242 31h0"></path>
<path d="M310 31h0"></path>
<rect x="242" y="20" width="68" height="22"></rect>
<a xlink:href="reuse_source.svg"><text x="276" y="35">Source</text>
</a>
</g>
<path d="M310 31h10"></path>
<g>
<path d="M320 31h0"></path>
<path d="M1182 31h0"></path>
<path d="M320 31h20"></path>
<g>
<path d="M340 31h0"></path>
<path d="M496 31h666"></path>
<g class="terminal">
<path d="M340 31h0"></path>
<path d="M408 31h0"></path>
<rect x="340" y="20" width="68" height="22" rx="10" ry="10"></rect>
<text x="374" y="35">"INTO"</text>
</g>
<path d="M408 31h10"></path>
<path d="M418 31h10"></path>
<g class="non-terminal">
<path d="M428 31h0"></path>
<path d="M496 31h0"></path>
<rect x="428" y="20" width="68" height="22"></rect>
<a xlink:href="reuse_target.svg"><text x="462" y="35">Target</text>
</a>
</g>
</g>
<path d="M1162 31h20"></path>
<path d="M320 31a10 10 0 0 1 10 10v19a10 10 0 0 0 10 10"></path>
<g>
<path d="M340 70h0"></path>
<path d="M1162 70h0"></path>
<g>
<path d="M340 70h0"></path>
<path d="M488 70h0"></path>
<path d="M340 70h20"></path>
<g class="terminal">
<path d="M360 70h0"></path>
<path d="M428 70h40"></path>
<rect x="360" y="59" width="68" height="22" rx="10" ry="10"></rect>
<text x="394" y="74">"INTO"</text>
</g>
<path d="M468 70h20"></path>
<path d="M340 70a10 10 0 0 1 10 10v10a10 10 0 0 0 10 10"></path>
<g class="terminal">
<path d="M360 100h0"></path>
<path d="M468 100h0"></path>
<rect x="360" y="89" width="108" height="22" rx="10" ry="10"></rect>
<text x="414" y="104">"APPENDING"</text>
</g>
<path d="M468 100a10 10 0 0 0 10 -10v-10a10 10 0 0 1 10 -10"></path>
</g>
<g>
<path d="M488 70h0"></path>
<path d="M748 70h0"></path>
<path d="M488 70a10 10 0 0 0 10 -10v0a10 10 0 0 1 10 -10"></path>
<g>
<path d="M508 50h220"></path>
</g>
<path d="M728 50a10 10 0 0 1 10 10v0a10 10 0 0 0 10 10"></path>
<path d="M488 70h20"></path>
<g class="terminal">
<path d="M508 70h0"></path>
<path d="M728 70h0"></path>
<rect x="508" y="59" width="220" height="22" rx="10" ry="10"></rect>
<text x="618" y="74">"CORRESPONDING FIELDS OF"</text>
</g>
<path d="M728 70h20"></path>
</g>
<path d="M748 70h10"></path>
<g class="terminal">
<path d="M758 70h0"></path>
<path d="M834 70h0"></path>
<rect x="758" y="59" width="76" height="22" rx="10" ry="10"></rect>
<text x="796" y="74">"TABLE"</text>
</g>
<path d="M834 70h10"></path>
<path d="M844 70h10"></path>
<g class="non-terminal">
<path d="M854 70h0"></path>
<path d="M922 70h0"></path>
<rect x="854" y="59" width="68" height="22"></rect>
<a xlink:href="reuse_target.svg"><text x="888" y="74">Target</text>
</a>
</g>
<path d="M922 70h10"></path>
<path d="M932 70h10"></path>
<g class="terminal">
<path d="M942 70h0"></path>
<path d="M1074 70h0"></path>
<rect x="942" y="59" width="132" height="22" rx="10" ry="10"></rect>
<text x="1008" y="74">"PACKAGE SIZE"</text>
</g>
<path d="M1074 70h10"></path>
<path d="M1084 70h10"></path>
<g class="non-terminal">
<path d="M1094 70h0"></path>
<path d="M1162 70h0"></path>
<rect x="1094" y="59" width="68" height="22"></rect>
<a xlink:href="reuse_source.svg"><text x="1128" y="74">Source</text>
</a>
</g>
</g>
<path d="M1162 70a10 10 0 0 0 10 -10v-19a10 10 0 0 1 10 -10"></path>
</g>
</g>
<path d="M1182 31h10"></path>
<path d="M 1192 31 h 20 m -10 -10 v 20 m 10 -20 v 20"></path>
</g>
</svg>
