<svg xmlns="http://www.w3.org/2000/svg" xmlns:xlink="http://www.w3.org/1999/xlink" class="railroad-diagram" width="854" height="92" viewBox="0 0 854 92">
<defs>
<style type="text/css"><![CDATA[
path {
stroke-width: 3;
stroke: black;
fill: rgba(0,0,0,0);
}
text {
font: bold 14px monospace;
text-anchor: middle;
}
text.diagram-text {
font-size: 12px;
}
a {
fill: blue;
}
text.diagram-arrow {
font-size: 16px;
}
text.label {
text-anchor: start;
}
text.comment {
font: italic 12px monospace;
}
rect {
stroke-width: 3;
stroke: black;
fill: #BCBCBC;
}
path.diagram-text {
stroke-width: 3;
stroke: black;
fill: #BCBCBC;
cursor: help;
}
]]></style>
</defs>
<g transform="translate(.5 .5)">
<path d="M 20 21 v 20 m 10 -20 v 20 m -10 -10 h 20.5"></path>
<path d="M40 31h10"></path>
<g>
<path d="M50 31h0"></path>
<path d="M804 31h0"></path>
<g class="terminal">
<path d="M50 31h0"></path>
<path d="M222 31h0"></path>
<rect x="50" y="20" width="172" height="22" rx="10" ry="10"></rect>
<text x="136" y="35">"FETCH NEXT CURSOR"</text>
</g>
<path d="M222 31h10"></path>
<path d="M232 31h10"></path>
<g class="non-terminal">
<path d="M242 31h0"></path>
<path d="M310 31h0"></path>
<rect x="242" y="20" width="68" height="22"></rect>
<a xlink:href="reuse_source.svg"><text x="276" y="35">Source</text>
</a>
</g>
<path d="M310 31h10"></path>
<g>
<path d="M320 31h0"></path>
<path d="M804 31h0"></path>
<path d="M320 31h20"></path>
<g>
<path d="M340 31h0"></path>
<path d="M496 31h288"></path>
<g class="terminal">
<path d="M340 31h0"></path>
<path d="M408 31h0"></path>
<rect x="340" y="20" width="68" height="22" rx="10" ry="10"></rect>
<text x="374" y="35">"INTO"</text>
</g>
<path d="M408 31h10"></path>
<path d="M418 31h10"></path>
<g class="non-terminal">
<path d="M428 31h0"></path>
<path d="M496 31h0"></path>
<rect x="428" y="20" width="68" height="22"></rect>
<a xlink:href="reuse_target.svg"><text x="462" y="35">Target</text>
</a>
</g>
</g>
<path d="M784 31h20"></path>
<path d="M320 31a10 10 0 0 1 10 10v10a10 10 0 0 0 10 10"></path>
<g>
<path d="M340 61h0"></path>
<path d="M784 61h0"></path>
<g class="terminal">
<path d="M340 61h0"></path>
<path d="M456 61h0"></path>
<rect x="340" y="50" width="116" height="22" rx="10" ry="10"></rect>
<text x="398" y="65">"INTO TABLE"</text>
</g>
<path d="M456 61h10"></path>
<path d="M466 61h10"></path>
<g class="non-terminal">
<path d="M476 61h0"></path>
<path d="M544 61h0"></path>
<rect x="476" y="50" width="68" height="22"></rect>
<a xlink:href="reuse_target.svg"><text x="510" y="65">Target</text>
</a>
</g>
<path d="M544 61h10"></path>
<path d="M554 61h10"></path>
<g class="terminal">
<path d="M564 61h0"></path>
<path d="M696 61h0"></path>
<rect x="564" y="50" width="132" height="22" rx="10" ry="10"></rect>
<text x="630" y="65">"PACKAGE SIZE"</text>
</g>
<path d="M696 61h10"></path>
<path d="M706 61h10"></path>
<g class="non-terminal">
<path d="M716 61h0"></path>
<path d="M784 61h0"></path>
<rect x="716" y="50" width="68" height="22"></rect>
<a xlink:href="reuse_source.svg"><text x="750" y="65">Source</text>
</a>
</g>
</g>
<path d="M784 61a10 10 0 0 0 10 -10v-10a10 10 0 0 1 10 -10"></path>
</g>
</g>
<path d="M804 31h10"></path>
<path d="M 814 31 h 20 m -10 -10 v 20 m 10 -20 v 20"></path>
</g>
</svg>
