<svg xmlns="http://www.w3.org/2000/svg" xmlns:xlink="http://www.w3.org/1999/xlink" class="railroad-diagram" width="1252" height="140" viewBox="0 0 1252 140">
<defs>
<style type="text/css"><![CDATA[
path {
stroke-width: 3;
stroke: black;
fill: rgba(0,0,0,0);
}
text {
font: bold 14px monospace;
text-anchor: middle;
}
text.diagram-text {
font-size: 12px;
}
a {
fill: blue;
}
text.diagram-arrow {
font-size: 16px;
}
text.label {
text-anchor: start;
}
text.comment {
font: italic 12px monospace;
}
rect {
stroke-width: 3;
stroke: black;
fill: #BCBCBC;
}
path.diagram-text {
stroke-width: 3;
stroke: black;
fill: #BCBCBC;
cursor: help;
}
]]></style>
</defs>
<g transform="translate(.5 .5)">
<path d="M 20 30 v 20 m 10 -20 v 20 m -10 -10 h 20.5"></path>
<path d="M40 40h10"></path>
<g>
<path d="M50 40h0"></path>
<path d="M1202 40h0"></path>
<g class="terminal">
<path d="M50 40h0"></path>
<path d="M222 40h0"></path>
<rect x="50" y="29" width="172" height="22" rx="10" ry="10"></rect>
<text x="136" y="44">"FETCH NEXT CURSOR"</text>
</g>
<path d="M222 40h10"></path>
<path d="M232 40h10"></path>
<g class="non-terminal">
<path d="M242 40h0"></path>
<path d="M310 40h0"></path>
<rect x="242" y="29" width="68" height="22"></rect>
<a xlink:href="reuse_source.svg"><text x="276" y="44">Source</text>
</a>
</g>
<path d="M310 40h10"></path>
<g>
<path d="M320 40h0"></path>
<path d="M942 40h0"></path>
<path d="M320 40h20"></path>
<g>
<path d="M340 40h0"></path>
<path d="M756 40h166"></path>
<g class="terminal">
<path d="M340 40h0"></path>
<path d="M408 40h0"></path>
<rect x="340" y="29" width="68" height="22" rx="10" ry="10"></rect>
<text x="374" y="44">"INTO"</text>
</g>
<path d="M408 40h10"></path>
<g>
<path d="M418 40h0"></path>
<path d="M678 40h0"></path>
<path d="M418 40a10 10 0 0 0 10 -10v0a10 10 0 0 1 10 -10"></path>
<g>
<path d="M438 20h220"></path>
</g>
<path d="M658 20a10 10 0 0 1 10 10v0a10 10 0 0 0 10 10"></path>
<path d="M418 40h20"></path>
<g class="terminal">
<path d="M438 40h0"></path>
<path d="M658 40h0"></path>
<rect x="438" y="29" width="220" height="22" rx="10" ry="10"></rect>
<text x="548" y="44">"CORRESPONDING FIELDS OF"</text>
</g>
<path d="M658 40h20"></path>
</g>
<path d="M678 40h10"></path>
<g class="non-terminal">
<path d="M688 40h0"></path>
<path d="M756 40h0"></path>
<rect x="688" y="29" width="68" height="22"></rect>
<a xlink:href="reuse_target.svg"><text x="722" y="44">Target</text>
</a>
</g>
</g>
<path d="M922 40h20"></path>
<path d="M320 40a10 10 0 0 1 10 10v19a10 10 0 0 0 10 10"></path>
<g>
<path d="M340 79h0"></path>
<path d="M922 79h0"></path>
<g>
<path d="M340 79h0"></path>
<path d="M488 79h0"></path>
<path d="M340 79h20"></path>
<g class="terminal">
<path d="M360 79h0"></path>
<path d="M428 79h40"></path>
<rect x="360" y="68" width="68" height="22" rx="10" ry="10"></rect>
<text x="394" y="83">"INTO"</text>
</g>
<path d="M468 79h20"></path>
<path d="M340 79a10 10 0 0 1 10 10v10a10 10 0 0 0 10 10"></path>
<g class="terminal">
<path d="M360 109h0"></path>
<path d="M468 109h0"></path>
<rect x="360" y="98" width="108" height="22" rx="10" ry="10"></rect>
<text x="414" y="113">"APPENDING"</text>
</g>
<path d="M468 109a10 10 0 0 0 10 -10v-10a10 10 0 0 1 10 -10"></path>
</g>
<g>
<path d="M488 79h0"></path>
<path d="M748 79h0"></path>
<path d="M488 79a10 10 0 0 0 10 -10v0a10 10 0 0 1 10 -10"></path>
<g>
<path d="M508 59h220"></path>
</g>
<path d="M728 59a10 10 0 0 1 10 10v0a10 10 0 0 0 10 10"></path>
<path d="M488 79h20"></path>
<g class="terminal">
<path d="M508 79h0"></path>
<path d="M728 79h0"></path>
<rect x="508" y="68" width="220" height="22" rx="10" ry="10"></rect>
<text x="618" y="83">"CORRESPONDING FIELDS OF"</text>
</g>
<path d="M728 79h20"></path>
</g>
<path d="M748 79h10"></path>
<g class="terminal">
<path d="M758 79h0"></path>
<path d="M834 79h0"></path>
<rect x="758" y="68" width="76" height="22" rx="10" ry="10"></rect>
<text x="796" y="83">"TABLE"</text>
</g>
<path d="M834 79h10"></path>
<path d="M844 79h10"></path>
<g class="non-terminal">
<path d="M854 79h0"></path>
<path d="M922 79h0"></path>
<rect x="854" y="68" width="68" height="22"></rect>
<a xlink:href="reuse_target.svg"><text x="888" y="83">Target</text>
</a>
</g>
</g>
<path d="M922 79a10 10 0 0 0 10 -10v-19a10 10 0 0 1 10 -10"></path>
</g>
<g>
<path d="M942 40h0"></path>
<path d="M1202 40h0"></path>
<path d="M942 40a10 10 0 0 0 10 -10v0a10 10 0 0 1 10 -10"></path>
<g>
<path d="M962 20h220"></path>
</g>
<path d="M1182 20a10 10 0 0 1 10 10v0a10 10 0 0 0 10 10"></path>
<path d="M942 40h20"></path>
<g>
<path d="M962 40h0"></path>
<path d="M1182 40h0"></path>
<g class="terminal">
<path d="M962 40h0"></path>
<path d="M1094 40h0"></path>
<rect x="962" y="29" width="132" height="22" rx="10" ry="10"></rect>
<text x="1028" y="44">"PACKAGE SIZE"</text>
</g>
<path d="M1094 40h10"></path>
<path d="M1104 40h10"></path>
<g class="non-terminal">
<path d="M1114 40h0"></path>
<path d="M1182 40h0"></path>
<rect x="1114" y="29" width="68" height="22"></rect>
<a xlink:href="reuse_source.svg"><text x="1148" y="44">Source</text>
</a>
</g>
</g>
<path d="M1182 40h20"></path>
</g>
</g>
<path d="M1202 40h10"></path>
<path d="M 1212 40 h 20 m -10 -10 v 20 m 10 -20 v 20"></path>
</g>
</svg>
