<svg xmlns="http://www.w3.org/2000/svg" xmlns:xlink="http://www.w3.org/1999/xlink" class="railroad-diagram" width="824" height="62" viewBox="0 0 824 62">
<defs>
<style type="text/css"><![CDATA[
path {
stroke-width: 3;
stroke: black;
fill: rgba(0,0,0,0);
}
text {
font: bold 14px monospace;
text-anchor: middle;
}
text.diagram-text {
font-size: 12px;
}
a {
fill: blue;
}
text.diagram-arrow {
font-size: 16px;
}
text.label {
text-anchor: start;
}
text.comment {
font: italic 12px monospace;
}
rect {
stroke-width: 3;
stroke: black;
fill: #BCBCBC;
}
path.diagram-text {
stroke-width: 3;
stroke: black;
fill: #BCBCBC;
cursor: help;
}
]]></style>
</defs>
<g transform="translate(.5 .5)">
<path d="M 20 21 v 20 m 10 -20 v 20 m -10 -10 h 20.5"></path>
<path d="M40 31h10"></path>
<g>
<path d="M50 31h0"></path>
<path d="M774 31h0"></path>
<g class="terminal">
<path d="M50 31h0"></path>
<path d="M222 31h0"></path>
<rect x="50" y="20" width="172" height="22" rx="10" ry="10"></rect>
<text x="136" y="35">"FETCH NEXT CURSOR"</text>
</g>
<path d="M222 31h10"></path>
<path d="M232 31h10"></path>
<g class="non-terminal">
<path d="M242 31h0"></path>
<path d="M310 31h0"></path>
<rect x="242" y="20" width="68" height="22"></rect>
<a xlink:href="reuse_source.svg"><text x="276" y="35">Source</text>
</a>
</g>
<path d="M310 31h10"></path>
<path d="M320 31h10"></path>
<g class="terminal">
<path d="M330 31h0"></path>
<path d="M446 31h0"></path>
<rect x="330" y="20" width="116" height="22" rx="10" ry="10"></rect>
<text x="388" y="35">"INTO TABLE"</text>
</g>
<path d="M446 31h10"></path>
<path d="M456 31h10"></path>
<g class="non-terminal">
<path d="M466 31h0"></path>
<path d="M534 31h0"></path>
<rect x="466" y="20" width="68" height="22"></rect>
<a xlink:href="reuse_target.svg"><text x="500" y="35">Target</text>
</a>
</g>
<path d="M534 31h10"></path>
<path d="M544 31h10"></path>
<g class="terminal">
<path d="M554 31h0"></path>
<path d="M686 31h0"></path>
<rect x="554" y="20" width="132" height="22" rx="10" ry="10"></rect>
<text x="620" y="35">"PACKAGE SIZE"</text>
</g>
<path d="M686 31h10"></path>
<path d="M696 31h10"></path>
<g class="non-terminal">
<path d="M706 31h0"></path>
<path d="M774 31h0"></path>
<rect x="706" y="20" width="68" height="22"></rect>
<a xlink:href="reuse_source.svg"><text x="740" y="35">Source</text>
</a>
</g>
</g>
<path d="M774 31h10"></path>
<path d="M 784 31 h 20 m -10 -10 v 20 m 10 -20 v 20"></path>
</g>
</svg>
