<svg xmlns="http://www.w3.org/2000/svg" xmlns:xlink="http://www.w3.org/1999/xlink" class="railroad-diagram" width="1162" height="101" viewBox="0 0 1162 101">
<defs>
<style type="text/css"><![CDATA[
path {
stroke-width: 3;
stroke: black;
fill: rgba(0,0,0,0);
}
text {
font: bold 14px monospace;
text-anchor: middle;
}
text.diagram-text {
font-size: 12px;
}
a {
fill: blue;
}
text.diagram-arrow {
font-size: 16px;
}
text.label {
text-anchor: start;
}
text.comment {
font: italic 12px monospace;
}
rect {
stroke-width: 3;
stroke: black;
fill: #BCBCBC;
}
path.diagram-text {
stroke-width: 3;
stroke: black;
fill: #BCBCBC;
cursor: help;
}
]]></style>
</defs>
<g transform="translate(.5 .5)">
<path d="M 20 21 v 20 m 10 -20 v 20 m -10 -10 h 20.5"></path>
<path d="M40 31h10"></path>
<g>
<path d="M50 31h0"></path>
<path d="M1112 31h0"></path>
<g class="terminal">
<path d="M50 31h0"></path>
<path d="M222 31h0"></path>
<rect x="50" y="20" width="172" height="22" rx="10" ry="10"></rect>
<text x="136" y="35">"FETCH NEXT CURSOR"</text>
</g>
<path d="M222 31h10"></path>
<path d="M232 31h10"></path>
<g class="non-terminal">
<path d="M242 31h0"></path>
<path d="M310 31h0"></path>
<rect x="242" y="20" width="68" height="22"></rect>
<a xlink:href="reuse_source.svg"><text x="276" y="35">Source</text>
</a>
</g>
<path d="M310 31h10"></path>
<g>
<path d="M320 31h0"></path>
<path d="M1112 31h0"></path>
<path d="M320 31h20"></path>
<g>
<path d="M340 31h0"></path>
<path d="M496 31h596"></path>
<g class="terminal">
<path d="M340 31h0"></path>
<path d="M408 31h0"></path>
<rect x="340" y="20" width="68" height="22" rx="10" ry="10"></rect>
<text x="374" y="35">"INTO"</text>
</g>
<path d="M408 31h10"></path>
<path d="M418 31h10"></path>
<g class="non-terminal">
<path d="M428 31h0"></path>
<path d="M496 31h0"></path>
<rect x="428" y="20" width="68" height="22"></rect>
<a xlink:href="reuse_target.svg"><text x="462" y="35">Target</text>
</a>
</g>
</g>
<path d="M1092 31h20"></path>
<path d="M320 31a10 10 0 0 1 10 10v19a10 10 0 0 0 10 10"></path>
<g>
<path d="M340 70h0"></path>
<path d="M1092 70h0"></path>
<g class="terminal">
<path d="M340 70h0"></path>
<path d="M408 70h0"></path>
<rect x="340" y="59" width="68" height="22" rx="10" ry="10"></rect>
<text x="374" y="74">"INTO"</text>
</g>
<path d="M408 70h10"></path>
<g>
<path d="M418 70h0"></path>
<path d="M678 70h0"></path>
<path d="M418 70a10 10 0 0 0 10 -10v0a10 10 0 0 1 10 -10"></path>
<g>
<path d="M438 50h220"></path>
</g>
<path d="M658 50a10 10 0 0 1 10 10v0a10 10 0 0 0 10 10"></path>
<path d="M418 70h20"></path>
<g class="terminal">
<path d="M438 70h0"></path>
<path d="M658 70h0"></path>
<rect x="438" y="59" width="220" height="22" rx="10" ry="10"></rect>
<text x="548" y="74">"CORRESPONDING FIELDS OF"</text>
</g>
<path d="M658 70h20"></path>
</g>
<path d="M678 70h10"></path>
<g class="terminal">
<path d="M688 70h0"></path>
<path d="M764 70h0"></path>
<rect x="688" y="59" width="76" height="22" rx="10" ry="10"></rect>
<text x="726" y="74">"TABLE"</text>
</g>
<path d="M764 70h10"></path>
<path d="M774 70h10"></path>
<g class="non-terminal">
<path d="M784 70h0"></path>
<path d="M852 70h0"></path>
<rect x="784" y="59" width="68" height="22"></rect>
<a xlink:href="reuse_target.svg"><text x="818" y="74">Target</text>
</a>
</g>
<path d="M852 70h10"></path>
<path d="M862 70h10"></path>
<g class="terminal">
<path d="M872 70h0"></path>
<path d="M1004 70h0"></path>
<rect x="872" y="59" width="132" height="22" rx="10" ry="10"></rect>
<text x="938" y="74">"PACKAGE SIZE"</text>
</g>
<path d="M1004 70h10"></path>
<path d="M1014 70h10"></path>
<g class="non-terminal">
<path d="M1024 70h0"></path>
<path d="M1092 70h0"></path>
<rect x="1024" y="59" width="68" height="22"></rect>
<a xlink:href="reuse_source.svg"><text x="1058" y="74">Source</text>
</a>
</g>
</g>
<path d="M1092 70a10 10 0 0 0 10 -10v-19a10 10 0 0 1 10 -10"></path>
</g>
</g>
<path d="M1112 31h10"></path>
<path d="M 1122 31 h 20 m -10 -10 v 20 m 10 -20 v 20"></path>
</g>
</svg>
