<?xml version="1.0" encoding="UTF-8" standalone="no"?>
<!DOCTYPE svg PUBLIC "-//W3C//DTD SVG 1.1//EN"
 "http://www.w3.org/Graphics/SVG/1.1/DTD/svg11.dtd">
<!-- Generated by graphviz version 2.38.0 (20140413.2041)
 -->
<!-- Title: field Pages: 1 -->
<svg width="79pt" height="188pt"
 viewBox="0.00 0.00 78.99 188.00" xmlns="http://www.w3.org/2000/svg" xmlns:xlink="http://www.w3.org/1999/xlink">
<g id="graph0" class="graph" transform="scale(1 1) rotate(0) translate(4 184)">
<title>field</title>
<polygon fill="white" stroke="none" points="-4,4 -4,-184 74.9874,-184 74.9874,4 -4,4"/>
<!-- start -->
<g id="node1" class="node"><title>start</title>
<polygon fill="none" stroke="blue" points="62.4937,-180 8.49369,-180 8.49369,-144 62.4937,-144 62.4937,-180"/>
<text text-anchor="middle" x="35.4937" y="-157.8" font-family="Times,serif" font-size="14.00">Start</text>
</g>
<!-- node115 -->
<g id="node3" class="node"><title>node115</title>
<ellipse fill="none" stroke="black" cx="35.4937" cy="-90" rx="35.4874" ry="18"/>
<text text-anchor="middle" x="35.4937" y="-85.8" font-family="Times,serif" font-size="14.00">^\w+$</text>
</g>
<!-- start&#45;&gt;node115 -->
<g id="edge2" class="edge"><title>start&#45;&gt;node115</title>
<path fill="none" stroke="black" d="M35.4937,-143.697C35.4937,-135.983 35.4937,-126.712 35.4937,-118.112"/>
<polygon fill="black" stroke="black" points="38.9938,-118.104 35.4937,-108.104 31.9938,-118.104 38.9938,-118.104"/>
</g>
<!-- end -->
<g id="node2" class="node"><title>end</title>
<polygon fill="none" stroke="blue" points="62.4937,-36 8.49369,-36 8.49369,-0 62.4937,-0 62.4937,-36"/>
<text text-anchor="middle" x="35.4937" y="-13.8" font-family="Times,serif" font-size="14.00">End</text>
</g>
<!-- node115&#45;&gt;end -->
<g id="edge1" class="edge"><title>node115&#45;&gt;end</title>
<path fill="none" stroke="black" d="M35.4937,-71.6966C35.4937,-63.9827 35.4937,-54.7125 35.4937,-46.1124"/>
<polygon fill="black" stroke="black" points="38.9938,-46.1043 35.4937,-36.1043 31.9938,-46.1044 38.9938,-46.1043"/>
</g>
</g>
</svg>
