<?xml version="1.0" encoding="UTF-8" standalone="no"?>
<!DOCTYPE svg PUBLIC "-//W3C//DTD SVG 1.1//EN"
 "http://www.w3.org/Graphics/SVG/1.1/DTD/svg11.dtd">
<!-- Generated by graphviz version 2.38.0 (20140413.2041)
 -->
<!-- Title: field_symbol Pages: 1 -->
<svg width="127pt" height="188pt"
 viewBox="0.00 0.00 127.15 188.00" xmlns="http://www.w3.org/2000/svg" xmlns:xlink="http://www.w3.org/1999/xlink">
<g id="graph0" class="graph" transform="scale(1 1) rotate(0) translate(4 184)">
<title>field_symbol</title>
<polygon fill="white" stroke="none" points="-4,4 -4,-184 123.147,-184 123.147,4 -4,4"/>
<!-- start -->
<g id="node1" class="node"><title>start</title>
<polygon fill="none" stroke="blue" points="86.5733,-180 32.5733,-180 32.5733,-144 86.5733,-144 86.5733,-180"/>
<text text-anchor="middle" x="59.5733" y="-157.8" font-family="Times,serif" font-size="14.00">Start</text>
</g>
<!-- node69 -->
<g id="node3" class="node"><title>node69</title>
<ellipse fill="none" stroke="black" cx="59.5733" cy="-90" rx="59.6466" ry="18"/>
<text text-anchor="middle" x="59.5733" y="-85.8" font-family="Times,serif" font-size="14.00">^&lt;(\w|_)+&gt;$</text>
</g>
<!-- start&#45;&gt;node69 -->
<g id="edge2" class="edge"><title>start&#45;&gt;node69</title>
<path fill="none" stroke="black" d="M59.5733,-143.697C59.5733,-135.983 59.5733,-126.712 59.5733,-118.112"/>
<polygon fill="black" stroke="black" points="63.0734,-118.104 59.5733,-108.104 56.0734,-118.104 63.0734,-118.104"/>
</g>
<!-- end -->
<g id="node2" class="node"><title>end</title>
<polygon fill="none" stroke="blue" points="86.5733,-36 32.5733,-36 32.5733,-0 86.5733,-0 86.5733,-36"/>
<text text-anchor="middle" x="59.5733" y="-13.8" font-family="Times,serif" font-size="14.00">End</text>
</g>
<!-- node69&#45;&gt;end -->
<g id="edge1" class="edge"><title>node69&#45;&gt;end</title>
<path fill="none" stroke="black" d="M59.5733,-71.6966C59.5733,-63.9827 59.5733,-54.7125 59.5733,-46.1124"/>
<polygon fill="black" stroke="black" points="63.0734,-46.1043 59.5733,-36.1043 56.0734,-46.1044 63.0734,-46.1043"/>
</g>
</g>
</svg>
