<svg xmlns="http://www.w3.org/2000/svg" xmlns:xlink="http://www.w3.org/1999/xlink" class="railroad-diagram" width="332" height="71" viewBox="0 0 332 71">
<defs>
<style type="text/css"><![CDATA[
path {
stroke-width: 3;
stroke: black;
fill: rgba(0,0,0,0);
}
text {
font: bold 14px monospace;
text-anchor: middle;
}
text.diagram-text {
font-size: 12px;
}
a {
fill: blue;
}
text.diagram-arrow {
font-size: 16px;
}
text.label {
text-anchor: start;
}
text.comment {
font: italic 12px monospace;
}
rect {
stroke-width: 3;
stroke: black;
fill: #BCBCBC;
}
path.diagram-text {
stroke-width: 3;
stroke: black;
fill: #BCBCBC;
cursor: help;
}
]]></style>
</defs>
<g transform="translate(.5 .5)">
<path d="M 20 21 v 20 m 10 -20 v 20 m -10 -10 h 20.5"></path>
<path d="M40 31h10"></path>
<g>
<path d="M50 31h0"></path>
<path d="M282 31h0"></path>
<g class="terminal">
<path d="M50 31h0"></path>
<path d="M182 31h0"></path>
<rect x="50" y="20" width="132" height="22" rx="10" ry="10"></rect>
<text x="116" y="35">"FIELD-GROUPS"</text>
</g>
<path d="M182 31h10"></path>
<path d="M192 31h10"></path>
<g>
<path d="M202 31h0"></path>
<path d="M282 31h0"></path>
<path d="M202 31h10"></path>
<g class="non-terminal">
<path d="M212 31h0"></path>
<path d="M272 31h0"></path>
<rect x="212" y="20" width="60" height="22"></rect>
<a xlink:href="reuse_field.svg"><text x="242" y="35">Field</text>
</a>
</g>
<path d="M272 31h10"></path>
<path d="M212 31a10 10 0 0 0 -10 10v0a10 10 0 0 0 10 10"></path>
<g>
<path d="M212 51h60"></path>
</g>
<path d="M272 51a10 10 0 0 0 10 -10v0a10 10 0 0 0 -10 -10"></path>
</g>
</g>
<path d="M282 31h10"></path>
<path d="M 292 31 h 20 m -10 -10 v 20 m 10 -20 v 20"></path>
</g>
</svg>
