<?xml version="1.0" encoding="UTF-8" standalone="no"?>
<!DOCTYPE svg PUBLIC "-//W3C//DTD SVG 1.1//EN"
 "http://www.w3.org/Graphics/SVG/1.1/DTD/svg11.dtd">
<!-- Generated by graphviz version 2.38.0 (20140413.2041)
 -->
<!-- Title: field_symbol_offset Pages: 1 -->
<svg width="164pt" height="188pt"
 viewBox="0.00 0.00 164.38 188.00" xmlns="http://www.w3.org/2000/svg" xmlns:xlink="http://www.w3.org/1999/xlink">
<g id="graph0" class="graph" transform="scale(1 1) rotate(0) translate(4 184)">
<title>field_symbol_offset</title>
<polygon fill="white" stroke="none" points="-4,4 -4,-184 160.376,-184 160.376,4 -4,4"/>
<!-- start -->
<g id="node1" class="node"><title>start</title>
<polygon fill="none" stroke="blue" points="105.188,-180 51.188,-180 51.188,-144 105.188,-144 105.188,-180"/>
<text text-anchor="middle" x="78.188" y="-157.8" font-family="Times,serif" font-size="14.00">Start</text>
</g>
<!-- node70 -->
<g id="node3" class="node"><title>node70</title>
<ellipse fill="none" stroke="black" cx="78.188" cy="-90" rx="78.3765" ry="18"/>
<text text-anchor="middle" x="78.188" y="-85.8" font-family="Times,serif" font-size="14.00">^&lt;\w+&gt;(\+\d+)?$</text>
</g>
<!-- start&#45;&gt;node70 -->
<g id="edge2" class="edge"><title>start&#45;&gt;node70</title>
<path fill="none" stroke="black" d="M78.188,-143.697C78.188,-135.983 78.188,-126.712 78.188,-118.112"/>
<polygon fill="black" stroke="black" points="81.6881,-118.104 78.188,-108.104 74.6881,-118.104 81.6881,-118.104"/>
</g>
<!-- end -->
<g id="node2" class="node"><title>end</title>
<polygon fill="none" stroke="blue" points="105.188,-36 51.188,-36 51.188,-0 105.188,-0 105.188,-36"/>
<text text-anchor="middle" x="78.188" y="-13.8" font-family="Times,serif" font-size="14.00">End</text>
</g>
<!-- node70&#45;&gt;end -->
<g id="edge1" class="edge"><title>node70&#45;&gt;end</title>
<path fill="none" stroke="black" d="M78.188,-71.6966C78.188,-63.9827 78.188,-54.7125 78.188,-46.1124"/>
<polygon fill="black" stroke="black" points="81.6881,-46.1043 78.188,-36.1043 74.6881,-46.1044 81.6881,-46.1043"/>
</g>
</g>
</svg>
