<svg xmlns="http://www.w3.org/2000/svg" xmlns:xlink="http://www.w3.org/1999/xlink" class="railroad-diagram" width="504" height="101" viewBox="0 0 504 101">
<defs>
<style type="text/css"><![CDATA[
path {
stroke-width: 3;
stroke: black;
fill: rgba(0,0,0,0);
}
text {
font: bold 14px monospace;
text-anchor: middle;
}
text.diagram-text {
font-size: 12px;
}
a {
fill: blue;
}
text.diagram-arrow {
font-size: 16px;
}
text.label {
text-anchor: start;
}
text.comment {
font: italic 12px monospace;
}
rect {
stroke-width: 3;
stroke: black;
fill: #BCBCBC;
}
path.diagram-text {
stroke-width: 3;
stroke: black;
fill: #BCBCBC;
cursor: help;
}
]]></style>
</defs>
<g transform="translate(.5 .5)">
<path d="M 20 30 v 20 m 10 -20 v 20 m -10 -10 h 20.5"></path>
<path d="M40 40h10"></path>
<g>
<path d="M50 40h0"></path>
<path d="M454 40h0"></path>
<g>
<path d="M50 40h0"></path>
<path d="M230 40h0"></path>
<path d="M50 40h20"></path>
<g class="terminal">
<path d="M70 40h0"></path>
<path d="M202 40h8"></path>
<rect x="70" y="29" width="132" height="22" rx="10" ry="10"></rect>
<text x="136" y="44">"FIELD-SYMBOL"</text>
</g>
<path d="M210 40h20"></path>
<path d="M50 40a10 10 0 0 1 10 10v10a10 10 0 0 0 10 10"></path>
<g class="terminal">
<path d="M70 70h0"></path>
<path d="M210 70h0"></path>
<rect x="70" y="59" width="140" height="22" rx="10" ry="10"></rect>
<text x="140" y="74">"FIELD-SYMBOLS"</text>
</g>
<path d="M210 70a10 10 0 0 0 10 -10v-10a10 10 0 0 1 10 -10"></path>
</g>
<path d="M230 40h10"></path>
<g class="non-terminal">
<path d="M240 40h0"></path>
<path d="M348 40h0"></path>
<rect x="240" y="29" width="108" height="22"></rect>
<a xlink:href="reuse_fieldsymbol.svg"><text x="294" y="44">FieldSymbol</text>
</a>
</g>
<path d="M348 40h10"></path>
<g>
<path d="M358 40h0"></path>
<path d="M454 40h0"></path>
<path d="M358 40a10 10 0 0 0 10 -10v0a10 10 0 0 1 10 -10"></path>
<g>
<path d="M378 20h56"></path>
</g>
<path d="M434 20a10 10 0 0 1 10 10v0a10 10 0 0 0 10 10"></path>
<path d="M358 40h20"></path>
<g>
<path d="M378 40h0"></path>
<path d="M434 40h0"></path>
<path d="M378 40h10"></path>
<g class="terminal">
<path d="M388 40h0"></path>
<path d="M424 40h0"></path>
<rect x="388" y="29" width="36" height="22" rx="10" ry="10"></rect>
<text x="406" y="44">.&#42;</text>
</g>
<path d="M424 40h10"></path>
<path d="M388 40a10 10 0 0 0 -10 10v0a10 10 0 0 0 10 10"></path>
<g>
<path d="M388 60h36"></path>
</g>
<path d="M424 60a10 10 0 0 0 10 -10v0a10 10 0 0 0 -10 -10"></path>
</g>
<path d="M434 40h20"></path>
</g>
</g>
<path d="M454 40h10"></path>
<path d="M 464 40 h 20 m -10 -10 v 20 m 10 -20 v 20"></path>
</g>
</svg>
