<?xml version="1.0" encoding="UTF-8" standalone="no"?>
<!DOCTYPE svg PUBLIC "-//W3C//DTD SVG 1.1//EN"
 "http://www.w3.org/Graphics/SVG/1.1/DTD/svg11.dtd">
<!-- Generated by graphviz version 2.38.0 (20140413.2041)
 -->
<!-- Title: field_symbol Pages: 1 -->
<svg width="101pt" height="188pt"
 viewBox="0.00 0.00 100.77 188.00" xmlns="http://www.w3.org/2000/svg" xmlns:xlink="http://www.w3.org/1999/xlink">
<g id="graph0" class="graph" transform="scale(1 1) rotate(0) translate(4 184)">
<title>field_symbol</title>
<polygon fill="white" stroke="none" points="-4,4 -4,-184 96.7696,-184 96.7696,4 -4,4"/>
<!-- start -->
<g id="node1" class="node"><title>start</title>
<polygon fill="none" stroke="blue" points="73.3848,-180 19.3848,-180 19.3848,-144 73.3848,-144 73.3848,-180"/>
<text text-anchor="middle" x="46.3848" y="-157.8" font-family="Times,serif" font-size="14.00">Start</text>
</g>
<!-- node69 -->
<g id="node3" class="node"><title>node69</title>
<ellipse fill="none" stroke="black" cx="46.3848" cy="-90" rx="46.2699" ry="18"/>
<text text-anchor="middle" x="46.3848" y="-85.8" font-family="Times,serif" font-size="14.00">^&lt;\w+&gt;$</text>
</g>
<!-- start&#45;&gt;node69 -->
<g id="edge2" class="edge"><title>start&#45;&gt;node69</title>
<path fill="none" stroke="black" d="M46.3848,-143.697C46.3848,-135.983 46.3848,-126.712 46.3848,-118.112"/>
<polygon fill="black" stroke="black" points="49.8849,-118.104 46.3848,-108.104 42.8849,-118.104 49.8849,-118.104"/>
</g>
<!-- end -->
<g id="node2" class="node"><title>end</title>
<polygon fill="none" stroke="blue" points="73.3848,-36 19.3848,-36 19.3848,-0 73.3848,-0 73.3848,-36"/>
<text text-anchor="middle" x="46.3848" y="-13.8" font-family="Times,serif" font-size="14.00">End</text>
</g>
<!-- node69&#45;&gt;end -->
<g id="edge1" class="edge"><title>node69&#45;&gt;end</title>
<path fill="none" stroke="black" d="M46.3848,-71.6966C46.3848,-63.9827 46.3848,-54.7125 46.3848,-46.1124"/>
<polygon fill="black" stroke="black" points="49.8849,-46.1043 46.3848,-36.1043 42.8849,-46.1044 49.8849,-46.1043"/>
</g>
</g>
</svg>
