<?xml version="1.0" encoding="UTF-8" standalone="no"?>
<!DOCTYPE svg PUBLIC "-//W3C//DTD SVG 1.1//EN"
 "http://www.w3.org/Graphics/SVG/1.1/DTD/svg11.dtd">
<!-- Generated by graphviz version 2.38.0 (20140413.2041)
 -->
<!-- Title: fieldsymbol Pages: 1 -->
<svg width="396pt" height="332pt"
 viewBox="0.00 0.00 395.80 332.00" xmlns="http://www.w3.org/2000/svg" xmlns:xlink="http://www.w3.org/1999/xlink">
<g id="graph0" class="graph" transform="scale(1 1) rotate(0) translate(4 328)">
<title>fieldsymbol</title>
<polygon fill="white" stroke="none" points="-4,4 -4,-328 391.803,-328 391.803,4 -4,4"/>
<!-- start -->
<g id="node1" class="node"><title>start</title>
<polygon fill="none" stroke="black" points="217.717,-324 163.717,-324 163.717,-288 217.717,-288 217.717,-324"/>
<text text-anchor="middle" x="190.717" y="-301.8" font-family="Times,serif" font-size="14.00">Start</text>
</g>
<!-- node321 -->
<g id="node6" class="node"><title>node321</title>
<ellipse fill="none" stroke="black" cx="89.7174" cy="-234" rx="89.9354" ry="18"/>
<text text-anchor="middle" x="89.7174" y="-229.8" font-family="Times,serif" font-size="14.00">&quot;FIELD&#45;SYMBOL&quot;</text>
</g>
<!-- start&#45;&gt;node321 -->
<g id="edge8" class="edge"><title>start&#45;&gt;node321</title>
<path fill="none" stroke="black" d="M166.01,-287.876C152.759,-278.692 136.268,-267.263 122.013,-257.383"/>
<polygon fill="black" stroke="black" points="123.687,-254.285 113.474,-251.465 119.7,-260.038 123.687,-254.285"/>
</g>
<!-- node322 -->
<g id="node7" class="node"><title>node322</title>
<ellipse fill="none" stroke="black" cx="292.717" cy="-234" rx="95.1715" ry="18"/>
<text text-anchor="middle" x="292.717" y="-229.8" font-family="Times,serif" font-size="14.00">&quot;FIELD&#45;SYMBOLS&quot;</text>
</g>
<!-- start&#45;&gt;node322 -->
<g id="edge9" class="edge"><title>start&#45;&gt;node322</title>
<path fill="none" stroke="black" d="M215.669,-287.876C229.052,-278.692 245.706,-267.263 260.102,-257.383"/>
<polygon fill="black" stroke="black" points="262.461,-260.009 268.725,-251.465 258.5,-254.238 262.461,-260.009"/>
</g>
<!-- end -->
<g id="node2" class="node"><title>end</title>
<polygon fill="none" stroke="black" points="146.717,-36 92.7174,-36 92.7174,-0 146.717,-0 146.717,-36"/>
<text text-anchor="middle" x="119.717" y="-13.8" font-family="Times,serif" font-size="14.00">End</text>
</g>
<!-- node318 -->
<g id="node3" class="node"><title>node318</title>
<ellipse fill="none" stroke="black" cx="155.717" cy="-90" rx="42.879" ry="18"/>
<text text-anchor="middle" x="155.717" y="-85.8" font-family="Times,serif" font-size="14.00">Dummy</text>
</g>
<!-- node318&#45;&gt;end -->
<g id="edge3" class="edge"><title>node318&#45;&gt;end</title>
<path fill="none" stroke="black" d="M147.003,-72.055C142.864,-64.0067 137.823,-54.2046 133.205,-45.2259"/>
<polygon fill="black" stroke="black" points="136.288,-43.5675 128.602,-36.2753 130.063,-46.7689 136.288,-43.5675"/>
</g>
<!-- node319 -->
<g id="node4" class="node"><title>node319</title>
<ellipse fill="none" stroke="black" cx="191.717" cy="-18" rx="27" ry="18"/>
<text text-anchor="middle" x="191.717" y="-13.8" font-family="Times,serif" font-size="14.00">.*</text>
</g>
<!-- node318&#45;&gt;node319 -->
<g id="edge2" class="edge"><title>node318&#45;&gt;node319</title>
<path fill="none" stroke="black" d="M158.701,-71.6966C162.333,-62.8605 167.763,-51.9822 173.269,-42.4084"/>
<polygon fill="black" stroke="black" points="176.333,-44.106 178.515,-33.7383 170.344,-40.4822 176.333,-44.106"/>
</g>
<!-- node319&#45;&gt;node318 -->
<g id="edge1" class="edge"><title>node319&#45;&gt;node318</title>
<path fill="none" stroke="black" d="M188.808,-36.1239C185.377,-44.4999 180.31,-54.7429 175.087,-63.9755"/>
<polygon fill="black" stroke="black" points="171.965,-62.3794 169.868,-72.7646 177.983,-65.9537 171.965,-62.3794"/>
</g>
<!-- node320 -->
<g id="node5" class="node"><title>node320</title>
<g id="a_node5"><a xlink:href="reuse_field_symbol.svg" xlink:title="&lt;u&gt;field_symbol&lt;/u&gt;">
<ellipse fill="none" stroke="black" cx="190.717" cy="-162" rx="61.9982" ry="18"/>
<text text-anchor="start" x="153.776" y="-158.8" font-family="Times,serif" text-decoration="underline" font-size="14.00" fill="blue">field_symbol</text>
</a>
</g>
</g>
<!-- node320&#45;&gt;node318 -->
<g id="edge5" class="edge"><title>node320&#45;&gt;node318</title>
<path fill="none" stroke="black" d="M182.245,-144.055C178.161,-135.887 173.173,-125.912 168.63,-116.824"/>
<polygon fill="black" stroke="black" points="171.715,-115.168 164.112,-107.789 165.454,-118.299 171.715,-115.168"/>
</g>
<!-- node320&#45;&gt;node319 -->
<g id="edge4" class="edge"><title>node320&#45;&gt;node319</title>
<path fill="none" stroke="black" d="M197.784,-143.665C201.556,-133.47 205.806,-120.22 207.717,-108 210.191,-92.1923 210.055,-87.8284 207.717,-72 206.42,-63.2121 203.974,-53.8616 201.378,-45.5001"/>
<polygon fill="black" stroke="black" points="204.665,-44.2923 198.204,-35.8957 198.018,-46.4889 204.665,-44.2923"/>
</g>
<!-- node321&#45;&gt;node320 -->
<g id="edge6" class="edge"><title>node321&#45;&gt;node320</title>
<path fill="none" stroke="black" d="M113.397,-216.588C127.142,-207.062 144.621,-194.948 159.482,-184.649"/>
<polygon fill="black" stroke="black" points="161.656,-187.4 167.881,-178.827 157.668,-181.647 161.656,-187.4"/>
</g>
<!-- node322&#45;&gt;node320 -->
<g id="edge7" class="edge"><title>node322&#45;&gt;node320</title>
<path fill="none" stroke="black" d="M268.545,-216.411C254.657,-206.88 237.06,-194.804 222.112,-184.545"/>
<polygon fill="black" stroke="black" points="223.891,-181.522 213.666,-178.749 219.931,-187.293 223.891,-181.522"/>
</g>
</g>
</svg>
