<svg xmlns="http://www.w3.org/2000/svg" xmlns:xlink="http://www.w3.org/1999/xlink" class="railroad-diagram" width="1454" height="440" viewBox="0 0 1454 440">
<defs>
<style type="text/css"><![CDATA[
path {
stroke-width: 3;
stroke: black;
fill: rgba(0,0,0,0);
}
text {
font: bold 14px monospace;
text-anchor: middle;
}
text.diagram-text {
font-size: 12px;
}
a {
fill: blue;
}
text.diagram-arrow {
font-size: 16px;
}
text.label {
text-anchor: start;
}
text.comment {
font: italic 12px monospace;
}
rect {
stroke-width: 3;
stroke: black;
fill: #BCBCBC;
}
path.diagram-text {
stroke-width: 3;
stroke: black;
fill: #BCBCBC;
cursor: help;
}
]]></style>
</defs>
<g transform="translate(.5 .5)">
<path d="M 20 30 v 20 m 10 -20 v 20 m -10 -10 h 20.5"></path>
<path d="M40 40h10"></path>
<g>
<path d="M50 40h0"></path>
<path d="M1404 40h0"></path>
<g class="terminal">
<path d="M50 40h0"></path>
<path d="M118 40h0"></path>
<rect x="50" y="29" width="68" height="22" rx="10" ry="10"></rect>
<text x="84" y="44">"FIND"</text>
</g>
<path d="M118 40h10"></path>
<g>
<path d="M128 40h0"></path>
<path d="M396 40h0"></path>
<path d="M128 40a10 10 0 0 0 10 -10v0a10 10 0 0 1 10 -10"></path>
<g>
<path d="M148 20h228"></path>
</g>
<path d="M376 20a10 10 0 0 1 10 10v0a10 10 0 0 0 10 10"></path>
<path d="M128 40h20"></path>
<g>
<path d="M148 40h0"></path>
<path d="M376 40h0"></path>
<path d="M148 40h20"></path>
<g class="terminal">
<path d="M168 40h0"></path>
<path d="M356 40h0"></path>
<rect x="168" y="29" width="188" height="22" rx="10" ry="10"></rect>
<text x="262" y="44">"FIRST OCCURRENCE OF"</text>
</g>
<path d="M356 40h20"></path>
<path d="M148 40a10 10 0 0 1 10 10v10a10 10 0 0 0 10 10"></path>
<g class="terminal">
<path d="M168 70h0"></path>
<path d="M348 70h8"></path>
<rect x="168" y="59" width="180" height="22" rx="10" ry="10"></rect>
<text x="258" y="74">"ALL OCCURRENCES OF"</text>
</g>
<path d="M356 70a10 10 0 0 0 10 -10v-10a10 10 0 0 1 10 -10"></path>
</g>
<path d="M376 40h20"></path>
</g>
<g>
<path d="M396 40h0"></path>
<path d="M584 40h0"></path>
<path d="M396 40a10 10 0 0 0 10 -10v0a10 10 0 0 1 10 -10"></path>
<g>
<path d="M416 20h148"></path>
</g>
<path d="M564 20a10 10 0 0 1 10 10v0a10 10 0 0 0 10 10"></path>
<path d="M396 40h20"></path>
<g>
<path d="M416 40h0"></path>
<path d="M564 40h0"></path>
<path d="M416 40h20"></path>
<g class="terminal">
<path d="M436 40h0"></path>
<path d="M512 40h32"></path>
<rect x="436" y="29" width="76" height="22" rx="10" ry="10"></rect>
<text x="474" y="44">"REGEX"</text>
</g>
<path d="M544 40h20"></path>
<path d="M416 40a10 10 0 0 1 10 10v10a10 10 0 0 0 10 10"></path>
<g class="terminal">
<path d="M436 70h0"></path>
<path d="M544 70h0"></path>
<rect x="436" y="59" width="108" height="22" rx="10" ry="10"></rect>
<text x="490" y="74">"SUBSTRING"</text>
</g>
<path d="M544 70a10 10 0 0 0 10 -10v-10a10 10 0 0 1 10 -10"></path>
</g>
<path d="M564 40h20"></path>
</g>
<path d="M584 40h10"></path>
<g class="non-terminal">
<path d="M594 40h0"></path>
<path d="M662 40h0"></path>
<rect x="594" y="29" width="68" height="22"></rect>
<a xlink:href="reuse_source.svg"><text x="628" y="44">Source</text>
</a>
</g>
<path d="M662 40h10"></path>
<path d="M672 40h10"></path>
<g class="terminal">
<path d="M682 40h0"></path>
<path d="M734 40h0"></path>
<rect x="682" y="29" width="52" height="22" rx="10" ry="10"></rect>
<text x="708" y="44">"IN"</text>
</g>
<path d="M734 40h10"></path>
<path d="M744 40h10"></path>
<g>
<path d="M754 40h0"></path>
<path d="M1060 40h0"></path>
<g>
<path d="M754 40h0"></path>
<path d="M982 40h0"></path>
<path d="M754 40a10 10 0 0 0 10 -10v0a10 10 0 0 1 10 -10"></path>
<g>
<path d="M774 20h188"></path>
</g>
<path d="M962 20a10 10 0 0 1 10 10v0a10 10 0 0 0 10 10"></path>
<path d="M754 40h20"></path>
<g>
<path d="M774 40h0"></path>
<path d="M962 40h0"></path>
<path d="M774 40h20"></path>
<g class="terminal">
<path d="M794 40h0"></path>
<path d="M870 40h72"></path>
<rect x="794" y="29" width="76" height="22" rx="10" ry="10"></rect>
<text x="832" y="44">"TABLE"</text>
</g>
<path d="M942 40h20"></path>
<path d="M774 40a10 10 0 0 1 10 10v10a10 10 0 0 0 10 10"></path>
<g class="terminal">
<path d="M794 70h0"></path>
<path d="M942 70h0"></path>
<rect x="794" y="59" width="148" height="22" rx="10" ry="10"></rect>
<text x="868" y="74">"SECTION OFFSET"</text>
</g>
<path d="M942 70a10 10 0 0 0 10 -10v-10a10 10 0 0 1 10 -10"></path>
</g>
<path d="M962 40h20"></path>
</g>
<path d="M982 40h10"></path>
<g class="non-terminal">
<path d="M992 40h0"></path>
<path d="M1060 40h0"></path>
<rect x="992" y="29" width="68" height="22"></rect>
<a xlink:href="reuse_source.svg"><text x="1026" y="44">Source</text>
</a>
</g>
</g>
<path d="M1060 40h10"></path>
<g>
<path d="M1070 40h0"></path>
<path d="M1404 40h0"></path>
<path d="M1070 40a10 10 0 0 0 10 -10v0a10 10 0 0 1 10 -10"></path>
<g>
<path d="M1090 20h294"></path>
</g>
<path d="M1384 20a10 10 0 0 1 10 10v0a10 10 0 0 0 10 10"></path>
<path d="M1070 40h20"></path>
<g>
<path d="M1090 40h0"></path>
<path d="M1384 40h0"></path>
<path d="M1120 40h10"></path>
<g class="terminal">
<path d="M1130 40h0"></path>
<path d="M1270 40h84"></path>
<rect x="1130" y="29" width="140" height="22" rx="10" ry="10"></rect>
<text x="1200" y="44">"IGNORING CASE"</text>
</g>
<path d="M1354 40h10"></path>
<path d="M1120 40v20a10 10 0 0 0 10 10"></path>
<g class="terminal">
<path d="M1130 70h0"></path>
<path d="M1286 70h68"></path>
<rect x="1130" y="59" width="156" height="22" rx="10" ry="10"></rect>
<text x="1208" y="74">"RESPECTING CASE"</text>
</g>
<path d="M1354 70a10 10 0 0 0 10 -10v-20"></path>
<path d="M1120 40v50a10 10 0 0 0 10 10"></path>
<g class="terminal">
<path d="M1130 100h0"></path>
<path d="M1262 100h92"></path>
<rect x="1130" y="89" width="132" height="22" rx="10" ry="10"></rect>
<text x="1196" y="104">"IN BYTE MODE"</text>
</g>
<path d="M1354 100a10 10 0 0 0 10 -10v-50"></path>
<path d="M1120 40v80a10 10 0 0 0 10 10"></path>
<g class="terminal">
<path d="M1130 130h0"></path>
<path d="M1302 130h52"></path>
<rect x="1130" y="119" width="172" height="22" rx="10" ry="10"></rect>
<text x="1216" y="134">"IN CHARACTER MODE"</text>
</g>
<path d="M1354 130a10 10 0 0 0 10 -10v-80"></path>
<path d="M1120 40v110a10 10 0 0 0 10 10"></path>
<g>
<path d="M1130 160h0"></path>
<path d="M1270 160h84"></path>
<g class="terminal">
<path d="M1130 160h0"></path>
<path d="M1182 160h0"></path>
<rect x="1130" y="149" width="52" height="22" rx="10" ry="10"></rect>
<text x="1156" y="164">"OF"</text>
</g>
<path d="M1182 160h10"></path>
<path d="M1192 160h10"></path>
<g class="non-terminal">
<path d="M1202 160h0"></path>
<path d="M1270 160h0"></path>
<rect x="1202" y="149" width="68" height="22"></rect>
<a xlink:href="reuse_source.svg"><text x="1236" y="164">Source</text>
</a>
</g>
</g>
<path d="M1354 160a10 10 0 0 0 10 -10v-110"></path>
<path d="M1120 40v140a10 10 0 0 0 10 10"></path>
<g>
<path d="M1130 190h0"></path>
<path d="M1286 190h68"></path>
<g class="terminal">
<path d="M1130 190h0"></path>
<path d="M1198 190h0"></path>
<rect x="1130" y="179" width="68" height="22" rx="10" ry="10"></rect>
<text x="1164" y="194">"FROM"</text>
</g>
<path d="M1198 190h10"></path>
<path d="M1208 190h10"></path>
<g class="non-terminal">
<path d="M1218 190h0"></path>
<path d="M1286 190h0"></path>
<rect x="1218" y="179" width="68" height="22"></rect>
<a xlink:href="reuse_source.svg"><text x="1252" y="194">Source</text>
</a>
</g>
</g>
<path d="M1354 190a10 10 0 0 0 10 -10v-140"></path>
<path d="M1120 40v170a10 10 0 0 0 10 10"></path>
<g>
<path d="M1130 220h0"></path>
<path d="M1350 220h4"></path>
<g class="terminal">
<path d="M1130 220h0"></path>
<path d="M1262 220h0"></path>
<rect x="1130" y="209" width="132" height="22" rx="10" ry="10"></rect>
<text x="1196" y="224">"MATCH OFFSET"</text>
</g>
<path d="M1262 220h10"></path>
<path d="M1272 220h10"></path>
<g class="non-terminal">
<path d="M1282 220h0"></path>
<path d="M1350 220h0"></path>
<rect x="1282" y="209" width="68" height="22"></rect>
<a xlink:href="reuse_target.svg"><text x="1316" y="224">Target</text>
</a>
</g>
</g>
<path d="M1354 220a10 10 0 0 0 10 -10v-170"></path>
<path d="M1120 40v200a10 10 0 0 0 10 10"></path>
<g>
<path d="M1130 250h0"></path>
<path d="M1334 250h20"></path>
<g class="terminal">
<path d="M1130 250h0"></path>
<path d="M1246 250h0"></path>
<rect x="1130" y="239" width="116" height="22" rx="10" ry="10"></rect>
<text x="1188" y="254">"MATCH LINE"</text>
</g>
<path d="M1246 250h10"></path>
<path d="M1256 250h10"></path>
<g class="non-terminal">
<path d="M1266 250h0"></path>
<path d="M1334 250h0"></path>
<rect x="1266" y="239" width="68" height="22"></rect>
<a xlink:href="reuse_target.svg"><text x="1300" y="254">Target</text>
</a>
</g>
</g>
<path d="M1354 250a10 10 0 0 0 10 -10v-200"></path>
<path d="M1120 40v230a10 10 0 0 0 10 10"></path>
<g>
<path d="M1130 280h0"></path>
<path d="M1342 280h12"></path>
<g class="terminal">
<path d="M1130 280h0"></path>
<path d="M1254 280h0"></path>
<rect x="1130" y="269" width="124" height="22" rx="10" ry="10"></rect>
<text x="1192" y="284">"MATCH COUNT"</text>
</g>
<path d="M1254 280h10"></path>
<path d="M1264 280h10"></path>
<g class="non-terminal">
<path d="M1274 280h0"></path>
<path d="M1342 280h0"></path>
<rect x="1274" y="269" width="68" height="22"></rect>
<a xlink:href="reuse_target.svg"><text x="1308" y="284">Target</text>
</a>
</g>
</g>
<path d="M1354 280a10 10 0 0 0 10 -10v-230"></path>
<path d="M1120 40v260a10 10 0 0 0 10 10"></path>
<g>
<path d="M1130 310h0"></path>
<path d="M1350 310h4"></path>
<g class="terminal">
<path d="M1130 310h0"></path>
<path d="M1262 310h0"></path>
<rect x="1130" y="299" width="132" height="22" rx="10" ry="10"></rect>
<text x="1196" y="314">"MATCH LENGTH"</text>
</g>
<path d="M1262 310h10"></path>
<path d="M1272 310h10"></path>
<g class="non-terminal">
<path d="M1282 310h0"></path>
<path d="M1350 310h0"></path>
<rect x="1282" y="299" width="68" height="22"></rect>
<a xlink:href="reuse_target.svg"><text x="1316" y="314">Target</text>
</a>
</g>
</g>
<path d="M1354 310a10 10 0 0 0 10 -10v-260"></path>
<path d="M1120 40v290a10 10 0 0 0 10 10"></path>
<g>
<path d="M1130 340h0"></path>
<path d="M1302 340h52"></path>
<g class="terminal">
<path d="M1130 340h0"></path>
<path d="M1214 340h0"></path>
<rect x="1130" y="329" width="84" height="22" rx="10" ry="10"></rect>
<text x="1172" y="344">"LENGTH"</text>
</g>
<path d="M1214 340h10"></path>
<path d="M1224 340h10"></path>
<g class="non-terminal">
<path d="M1234 340h0"></path>
<path d="M1302 340h0"></path>
<rect x="1234" y="329" width="68" height="22"></rect>
<a xlink:href="reuse_target.svg"><text x="1268" y="344">Target</text>
</a>
</g>
</g>
<path d="M1354 340a10 10 0 0 0 10 -10v-290"></path>
<path d="M1120 40v320a10 10 0 0 0 10 10"></path>
<g>
<path d="M1130 370h0"></path>
<path d="M1310 370h44"></path>
<g class="terminal">
<path d="M1130 370h0"></path>
<path d="M1222 370h0"></path>
<rect x="1130" y="359" width="92" height="22" rx="10" ry="10"></rect>
<text x="1176" y="374">"RESULTS"</text>
</g>
<path d="M1222 370h10"></path>
<path d="M1232 370h10"></path>
<g class="non-terminal">
<path d="M1242 370h0"></path>
<path d="M1310 370h0"></path>
<rect x="1242" y="359" width="68" height="22"></rect>
<a xlink:href="reuse_target.svg"><text x="1276" y="374">Target</text>
</a>
</g>
</g>
<path d="M1354 370a10 10 0 0 0 10 -10v-320"></path>
<path d="M1120 40v350a10 10 0 0 0 10 10"></path>
<g>
<path d="M1130 400h0"></path>
<path d="M1354 400h0"></path>
<g class="terminal">
<path d="M1130 400h0"></path>
<path d="M1246 400h0"></path>
<rect x="1130" y="389" width="116" height="22" rx="10" ry="10"></rect>
<text x="1188" y="404">"SUBMATCHES"</text>
</g>
<path d="M1246 400h10"></path>
<path d="M1256 400h10"></path>
<g>
<path d="M1266 400h0"></path>
<path d="M1354 400h0"></path>
<path d="M1266 400h10"></path>
<g class="non-terminal">
<path d="M1276 400h0"></path>
<path d="M1344 400h0"></path>
<rect x="1276" y="389" width="68" height="22"></rect>
<a xlink:href="reuse_target.svg"><text x="1310" y="404">Target</text>
</a>
</g>
<path d="M1344 400h10"></path>
<path d="M1276 400a10 10 0 0 0 -10 10v0a10 10 0 0 0 10 10"></path>
<g>
<path d="M1276 420h68"></path>
</g>
<path d="M1344 420a10 10 0 0 0 10 -10v0a10 10 0 0 0 -10 -10"></path>
</g>
</g>
<path d="M1354 400a10 10 0 0 0 10 -10v-350"></path>
<g class="diagram-text">
<title>take one or more branches, once each, in any order</title>
<path d="M 1120 30 h -26 a 4 4 0 0 0 -4 4 v 12 a 4 4 0 0 0 4 4 h 26 z" class="diagram-text"></path>
<text x="1105" y="44" class="diagram-text">1+</text>
<path d="M 1364 30 h 16 a 4 4 0 0 1 4 4 v 12 a 4 4 0 0 1 -4 4 h -16 z" class="diagram-text"></path>
<path d="M 1371 38 a 4 4 0 1 0 6 -1 m 2.75 -1 h -4 v 4 m 0 -3 h 2" style="stroke-width: 1.75"></path>
</g>
</g>
<path d="M1384 40h20"></path>
</g>
</g>
<path d="M1404 40h10"></path>
<path d="M 1414 40 h 20 m -10 -10 v 20 m 10 -20 v 20"></path>
</g>
</svg>
