<svg xmlns="http://www.w3.org/2000/svg" xmlns:xlink="http://www.w3.org/1999/xlink" class="railroad-diagram" width="1604" height="350" viewBox="0 0 1604 350">
<defs>
<style type="text/css"><![CDATA[
path {
stroke-width: 3;
stroke: black;
fill: rgba(0,0,0,0);
}
text {
font: bold 14px monospace;
text-anchor: middle;
}
text.diagram-text {
font-size: 12px;
}
a {
fill: blue;
}
text.diagram-arrow {
font-size: 16px;
}
text.label {
text-anchor: start;
}
text.comment {
font: italic 12px monospace;
}
rect {
stroke-width: 3;
stroke: black;
fill: #BCBCBC;
}
path.diagram-text {
stroke-width: 3;
stroke: black;
fill: #BCBCBC;
cursor: help;
}
]]></style>
</defs>
<g transform="translate(.5 .5)">
<path d="M 20 30 v 20 m 10 -20 v 20 m -10 -10 h 20.5"></path>
<path d="M40 40h10"></path>
<g>
<path d="M50 40h0"></path>
<path d="M1554 40h0"></path>
<g class="terminal">
<path d="M50 40h0"></path>
<path d="M118 40h0"></path>
<rect x="50" y="29" width="68" height="22" rx="10" ry="10"></rect>
<text x="84" y="44">"FIND"</text>
</g>
<path d="M118 40h10"></path>
<g>
<path d="M128 40h0"></path>
<path d="M396 40h0"></path>
<path d="M128 40a10 10 0 0 0 10 -10v0a10 10 0 0 1 10 -10"></path>
<g>
<path d="M148 20h228"></path>
</g>
<path d="M376 20a10 10 0 0 1 10 10v0a10 10 0 0 0 10 10"></path>
<path d="M128 40h20"></path>
<g>
<path d="M148 40h0"></path>
<path d="M376 40h0"></path>
<path d="M148 40h20"></path>
<g class="terminal">
<path d="M168 40h0"></path>
<path d="M356 40h0"></path>
<rect x="168" y="29" width="188" height="22" rx="10" ry="10"></rect>
<text x="262" y="44">"FIRST OCCURRENCE OF"</text>
</g>
<path d="M356 40h20"></path>
<path d="M148 40a10 10 0 0 1 10 10v10a10 10 0 0 0 10 10"></path>
<g class="terminal">
<path d="M168 70h0"></path>
<path d="M348 70h8"></path>
<rect x="168" y="59" width="180" height="22" rx="10" ry="10"></rect>
<text x="258" y="74">"ALL OCCURRENCES OF"</text>
</g>
<path d="M356 70a10 10 0 0 0 10 -10v-10a10 10 0 0 1 10 -10"></path>
</g>
<path d="M376 40h20"></path>
</g>
<g>
<path d="M396 40h0"></path>
<path d="M584 40h0"></path>
<path d="M396 40a10 10 0 0 0 10 -10v0a10 10 0 0 1 10 -10"></path>
<g>
<path d="M416 20h148"></path>
</g>
<path d="M564 20a10 10 0 0 1 10 10v0a10 10 0 0 0 10 10"></path>
<path d="M396 40h20"></path>
<g>
<path d="M416 40h0"></path>
<path d="M564 40h0"></path>
<path d="M416 40h20"></path>
<g class="terminal">
<path d="M436 40h0"></path>
<path d="M512 40h32"></path>
<rect x="436" y="29" width="76" height="22" rx="10" ry="10"></rect>
<text x="474" y="44">"REGEX"</text>
</g>
<path d="M544 40h20"></path>
<path d="M416 40a10 10 0 0 1 10 10v10a10 10 0 0 0 10 10"></path>
<g class="terminal">
<path d="M436 70h0"></path>
<path d="M544 70h0"></path>
<rect x="436" y="59" width="108" height="22" rx="10" ry="10"></rect>
<text x="490" y="74">"SUBSTRING"</text>
</g>
<path d="M544 70a10 10 0 0 0 10 -10v-10a10 10 0 0 1 10 -10"></path>
</g>
<path d="M564 40h20"></path>
</g>
<path d="M584 40h10"></path>
<g class="non-terminal">
<path d="M594 40h0"></path>
<path d="M662 40h0"></path>
<rect x="594" y="29" width="68" height="22"></rect>
<a xlink:href="reuse_source.svg"><text x="628" y="44">Source</text>
</a>
</g>
<path d="M662 40h10"></path>
<path d="M672 40h10"></path>
<g class="terminal">
<path d="M682 40h0"></path>
<path d="M734 40h0"></path>
<rect x="682" y="29" width="52" height="22" rx="10" ry="10"></rect>
<text x="708" y="44">"IN"</text>
</g>
<path d="M734 40h10"></path>
<g>
<path d="M744 40h0"></path>
<path d="M1132 40h0"></path>
<path d="M744 40a10 10 0 0 0 10 -10v0a10 10 0 0 1 10 -10"></path>
<g>
<path d="M764 20h348"></path>
</g>
<path d="M1112 20a10 10 0 0 1 10 10v0a10 10 0 0 0 10 10"></path>
<path d="M744 40h20"></path>
<g>
<path d="M764 40h0"></path>
<path d="M1112 40h0"></path>
<path d="M764 40h20"></path>
<g class="terminal">
<path d="M784 40h0"></path>
<path d="M860 40h232"></path>
<rect x="784" y="29" width="76" height="22" rx="10" ry="10"></rect>
<text x="822" y="44">"TABLE"</text>
</g>
<path d="M1092 40h20"></path>
<path d="M764 40a10 10 0 0 1 10 10v10a10 10 0 0 0 10 10"></path>
<g>
<path d="M784 70h0"></path>
<path d="M1092 70h0"></path>
<g class="terminal">
<path d="M784 70h0"></path>
<path d="M932 70h0"></path>
<rect x="784" y="59" width="148" height="22" rx="10" ry="10"></rect>
<text x="858" y="74">"SECTION OFFSET"</text>
</g>
<path d="M932 70h10"></path>
<path d="M942 70h10"></path>
<g class="non-terminal">
<path d="M952 70h0"></path>
<path d="M1020 70h0"></path>
<rect x="952" y="59" width="68" height="22"></rect>
<a xlink:href="reuse_source.svg"><text x="986" y="74">Source</text>
</a>
</g>
<path d="M1020 70h10"></path>
<path d="M1030 70h10"></path>
<g class="terminal">
<path d="M1040 70h0"></path>
<path d="M1092 70h0"></path>
<rect x="1040" y="59" width="52" height="22" rx="10" ry="10"></rect>
<text x="1066" y="74">"OF"</text>
</g>
</g>
<path d="M1092 70a10 10 0 0 0 10 -10v-10a10 10 0 0 1 10 -10"></path>
</g>
<path d="M1112 40h20"></path>
</g>
<path d="M1132 40h10"></path>
<g class="non-terminal">
<path d="M1142 40h0"></path>
<path d="M1210 40h0"></path>
<rect x="1142" y="29" width="68" height="22"></rect>
<a xlink:href="reuse_source.svg"><text x="1176" y="44">Source</text>
</a>
</g>
<path d="M1210 40h10"></path>
<g>
<path d="M1220 40h0"></path>
<path d="M1554 40h0"></path>
<path d="M1220 40a10 10 0 0 0 10 -10v0a10 10 0 0 1 10 -10"></path>
<g>
<path d="M1240 20h294"></path>
</g>
<path d="M1534 20a10 10 0 0 1 10 10v0a10 10 0 0 0 10 10"></path>
<path d="M1220 40h20"></path>
<g>
<path d="M1240 40h0"></path>
<path d="M1534 40h0"></path>
<path d="M1270 40h10"></path>
<g class="terminal">
<path d="M1280 40h0"></path>
<path d="M1420 40h84"></path>
<rect x="1280" y="29" width="140" height="22" rx="10" ry="10"></rect>
<text x="1350" y="44">"IGNORING CASE"</text>
</g>
<path d="M1504 40h10"></path>
<path d="M1270 40v20a10 10 0 0 0 10 10"></path>
<g class="terminal">
<path d="M1280 70h0"></path>
<path d="M1436 70h68"></path>
<rect x="1280" y="59" width="156" height="22" rx="10" ry="10"></rect>
<text x="1358" y="74">"RESPECTING CASE"</text>
</g>
<path d="M1504 70a10 10 0 0 0 10 -10v-20"></path>
<path d="M1270 40v50a10 10 0 0 0 10 10"></path>
<g class="terminal">
<path d="M1280 100h0"></path>
<path d="M1412 100h92"></path>
<rect x="1280" y="89" width="132" height="22" rx="10" ry="10"></rect>
<text x="1346" y="104">"IN BYTE MODE"</text>
</g>
<path d="M1504 100a10 10 0 0 0 10 -10v-50"></path>
<path d="M1270 40v80a10 10 0 0 0 10 10"></path>
<g class="terminal">
<path d="M1280 130h0"></path>
<path d="M1452 130h52"></path>
<rect x="1280" y="119" width="172" height="22" rx="10" ry="10"></rect>
<text x="1366" y="134">"IN CHARACTER MODE"</text>
</g>
<path d="M1504 130a10 10 0 0 0 10 -10v-80"></path>
<path d="M1270 40v110a10 10 0 0 0 10 10"></path>
<g>
<path d="M1280 160h0"></path>
<path d="M1500 160h4"></path>
<g class="terminal">
<path d="M1280 160h0"></path>
<path d="M1412 160h0"></path>
<rect x="1280" y="149" width="132" height="22" rx="10" ry="10"></rect>
<text x="1346" y="164">"MATCH OFFSET"</text>
</g>
<path d="M1412 160h10"></path>
<path d="M1422 160h10"></path>
<g class="non-terminal">
<path d="M1432 160h0"></path>
<path d="M1500 160h0"></path>
<rect x="1432" y="149" width="68" height="22"></rect>
<a xlink:href="reuse_target.svg"><text x="1466" y="164">Target</text>
</a>
</g>
</g>
<path d="M1504 160a10 10 0 0 0 10 -10v-110"></path>
<path d="M1270 40v140a10 10 0 0 0 10 10"></path>
<g>
<path d="M1280 190h0"></path>
<path d="M1484 190h20"></path>
<g class="terminal">
<path d="M1280 190h0"></path>
<path d="M1396 190h0"></path>
<rect x="1280" y="179" width="116" height="22" rx="10" ry="10"></rect>
<text x="1338" y="194">"MATCH LINE"</text>
</g>
<path d="M1396 190h10"></path>
<path d="M1406 190h10"></path>
<g class="non-terminal">
<path d="M1416 190h0"></path>
<path d="M1484 190h0"></path>
<rect x="1416" y="179" width="68" height="22"></rect>
<a xlink:href="reuse_target.svg"><text x="1450" y="194">Target</text>
</a>
</g>
</g>
<path d="M1504 190a10 10 0 0 0 10 -10v-140"></path>
<path d="M1270 40v170a10 10 0 0 0 10 10"></path>
<g>
<path d="M1280 220h0"></path>
<path d="M1492 220h12"></path>
<g class="terminal">
<path d="M1280 220h0"></path>
<path d="M1404 220h0"></path>
<rect x="1280" y="209" width="124" height="22" rx="10" ry="10"></rect>
<text x="1342" y="224">"MATCH COUNT"</text>
</g>
<path d="M1404 220h10"></path>
<path d="M1414 220h10"></path>
<g class="non-terminal">
<path d="M1424 220h0"></path>
<path d="M1492 220h0"></path>
<rect x="1424" y="209" width="68" height="22"></rect>
<a xlink:href="reuse_target.svg"><text x="1458" y="224">Target</text>
</a>
</g>
</g>
<path d="M1504 220a10 10 0 0 0 10 -10v-170"></path>
<path d="M1270 40v200a10 10 0 0 0 10 10"></path>
<g>
<path d="M1280 250h0"></path>
<path d="M1500 250h4"></path>
<g class="terminal">
<path d="M1280 250h0"></path>
<path d="M1412 250h0"></path>
<rect x="1280" y="239" width="132" height="22" rx="10" ry="10"></rect>
<text x="1346" y="254">"MATCH LENGTH"</text>
</g>
<path d="M1412 250h10"></path>
<path d="M1422 250h10"></path>
<g class="non-terminal">
<path d="M1432 250h0"></path>
<path d="M1500 250h0"></path>
<rect x="1432" y="239" width="68" height="22"></rect>
<a xlink:href="reuse_target.svg"><text x="1466" y="254">Target</text>
</a>
</g>
</g>
<path d="M1504 250a10 10 0 0 0 10 -10v-200"></path>
<path d="M1270 40v230a10 10 0 0 0 10 10"></path>
<g>
<path d="M1280 280h0"></path>
<path d="M1460 280h44"></path>
<g class="terminal">
<path d="M1280 280h0"></path>
<path d="M1372 280h0"></path>
<rect x="1280" y="269" width="92" height="22" rx="10" ry="10"></rect>
<text x="1326" y="284">"RESULTS"</text>
</g>
<path d="M1372 280h10"></path>
<path d="M1382 280h10"></path>
<g class="non-terminal">
<path d="M1392 280h0"></path>
<path d="M1460 280h0"></path>
<rect x="1392" y="269" width="68" height="22"></rect>
<a xlink:href="reuse_target.svg"><text x="1426" y="284">Target</text>
</a>
</g>
</g>
<path d="M1504 280a10 10 0 0 0 10 -10v-230"></path>
<path d="M1270 40v260a10 10 0 0 0 10 10"></path>
<g>
<path d="M1280 310h0"></path>
<path d="M1504 310h0"></path>
<g class="terminal">
<path d="M1280 310h0"></path>
<path d="M1396 310h0"></path>
<rect x="1280" y="299" width="116" height="22" rx="10" ry="10"></rect>
<text x="1338" y="314">"SUBMATCHES"</text>
</g>
<path d="M1396 310h10"></path>
<path d="M1406 310h10"></path>
<g>
<path d="M1416 310h0"></path>
<path d="M1504 310h0"></path>
<path d="M1416 310h10"></path>
<g class="non-terminal">
<path d="M1426 310h0"></path>
<path d="M1494 310h0"></path>
<rect x="1426" y="299" width="68" height="22"></rect>
<a xlink:href="reuse_target.svg"><text x="1460" y="314">Target</text>
</a>
</g>
<path d="M1494 310h10"></path>
<path d="M1426 310a10 10 0 0 0 -10 10v0a10 10 0 0 0 10 10"></path>
<g>
<path d="M1426 330h68"></path>
</g>
<path d="M1494 330a10 10 0 0 0 10 -10v0a10 10 0 0 0 -10 -10"></path>
</g>
</g>
<path d="M1504 310a10 10 0 0 0 10 -10v-260"></path>
<g class="diagram-text">
<title>take one or more branches, once each, in any order</title>
<path d="M 1270 30 h -26 a 4 4 0 0 0 -4 4 v 12 a 4 4 0 0 0 4 4 h 26 z" class="diagram-text"></path>
<text x="1255" y="44" class="diagram-text">1+</text>
<path d="M 1514 30 h 16 a 4 4 0 0 1 4 4 v 12 a 4 4 0 0 1 -4 4 h -16 z" class="diagram-text"></path>
<path d="M 1521 38 a 4 4 0 1 0 6 -1 m 2.75 -1 h -4 v 4 m 0 -3 h 2" style="stroke-width: 1.75"></path>
</g>
</g>
<path d="M1534 40h20"></path>
</g>
</g>
<path d="M1554 40h10"></path>
<path d="M 1564 40 h 20 m -10 -10 v 20 m 10 -20 v 20"></path>
</g>
</svg>
