<?xml version="1.0" encoding="UTF-8" standalone="no"?>
<!DOCTYPE svg PUBLIC "-//W3C//DTD SVG 1.1//EN"
 "http://www.w3.org/Graphics/SVG/1.1/DTD/svg11.dtd">
<!-- Generated by graphviz version 2.38.0 (20140413.2041)
 -->
<!-- Title: format Pages: 1 -->
<svg width="199pt" height="332pt"
 viewBox="0.00 0.00 199.06 332.00" xmlns="http://www.w3.org/2000/svg" xmlns:xlink="http://www.w3.org/1999/xlink">
<g id="graph0" class="graph" transform="scale(1 1) rotate(0) translate(4 328)">
<title>format</title>
<polygon fill="white" stroke="none" points="-4,4 -4,-328 195.059,-328 195.059,4 -4,4"/>
<!-- start -->
<g id="node1" class="node"><title>start</title>
<polygon fill="none" stroke="black" points="122.421,-324 68.4214,-324 68.4214,-288 122.421,-288 122.421,-324"/>
<text text-anchor="middle" x="95.4214" y="-301.8" font-family="Times,serif" font-size="14.00">Start</text>
</g>
<!-- node544 -->
<g id="node6" class="node"><title>node544</title>
<ellipse fill="none" stroke="black" cx="95.4214" cy="-234" rx="59.2991" ry="18"/>
<text text-anchor="middle" x="95.4214" y="-229.8" font-family="Times,serif" font-size="14.00">&quot;FORMAT&quot;</text>
</g>
<!-- start&#45;&gt;node544 -->
<g id="edge6" class="edge"><title>start&#45;&gt;node544</title>
<path fill="none" stroke="black" d="M95.4214,-287.697C95.4214,-279.983 95.4214,-270.712 95.4214,-262.112"/>
<polygon fill="black" stroke="black" points="98.9215,-262.104 95.4214,-252.104 91.9215,-262.104 98.9215,-262.104"/>
</g>
<!-- end -->
<g id="node2" class="node"><title>end</title>
<polygon fill="none" stroke="black" points="122.421,-36 68.4214,-36 68.4214,-0 122.421,-0 122.421,-36"/>
<text text-anchor="middle" x="95.4214" y="-13.8" font-family="Times,serif" font-size="14.00">End</text>
</g>
<!-- node541 -->
<g id="node3" class="node"><title>node541</title>
<ellipse fill="none" stroke="black" cx="48.4214" cy="-90" rx="48.343" ry="18"/>
<text text-anchor="middle" x="48.4214" y="-85.8" font-family="Times,serif" font-size="14.00">&quot;RESET&quot;</text>
</g>
<!-- node541&#45;&gt;end -->
<g id="edge1" class="edge"><title>node541&#45;&gt;end</title>
<path fill="none" stroke="black" d="M59.5598,-72.411C65.0729,-64.2 71.8549,-54.0991 78.0317,-44.8996"/>
<polygon fill="black" stroke="black" points="81.0386,-46.7 83.7072,-36.4468 75.227,-42.798 81.0386,-46.7"/>
</g>
<!-- node542 -->
<g id="node4" class="node"><title>node542</title>
<g id="a_node4"><a xlink:href="reuse_field.svg" xlink:title="&lt;u&gt;field&lt;/u&gt;">
<ellipse fill="none" stroke="black" cx="143.421" cy="-90" rx="28.9696" ry="18"/>
<text text-anchor="start" x="130.593" y="-86.8" font-family="Times,serif" text-decoration="underline" font-size="14.00" fill="blue">field</text>
</a>
</g>
</g>
<!-- node542&#45;&gt;end -->
<g id="edge2" class="edge"><title>node542&#45;&gt;end</title>
<path fill="none" stroke="black" d="M132.529,-73.1159C126.769,-64.7156 119.556,-54.196 113.024,-44.6708"/>
<polygon fill="black" stroke="black" points="115.821,-42.5601 107.279,-36.2921 110.048,-46.5188 115.821,-42.5601"/>
</g>
<!-- node543 -->
<g id="node5" class="node"><title>node543</title>
<ellipse fill="none" stroke="black" cx="139.421" cy="-162" rx="51.7748" ry="18"/>
<text text-anchor="middle" x="139.421" y="-157.8" font-family="Times,serif" font-size="14.00">&quot;COLOR&quot;</text>
</g>
<!-- node543&#45;&gt;node542 -->
<g id="edge3" class="edge"><title>node543&#45;&gt;node542</title>
<path fill="none" stroke="black" d="M140.41,-143.697C140.851,-135.983 141.381,-126.712 141.872,-118.112"/>
<polygon fill="black" stroke="black" points="145.368,-118.288 142.444,-108.104 138.379,-117.888 145.368,-118.288"/>
</g>
<!-- node544&#45;&gt;node541 -->
<g id="edge4" class="edge"><title>node544&#45;&gt;node541</title>
<path fill="none" stroke="black" d="M89.7521,-215.871C81.7066,-191.564 66.8966,-146.819 57.3624,-118.013"/>
<polygon fill="black" stroke="black" points="60.5758,-116.583 54.1108,-108.189 53.9304,-118.783 60.5758,-116.583"/>
</g>
<!-- node544&#45;&gt;node543 -->
<g id="edge5" class="edge"><title>node544&#45;&gt;node543</title>
<path fill="none" stroke="black" d="M106.073,-216.055C111.261,-207.801 117.609,-197.701 123.369,-188.538"/>
<polygon fill="black" stroke="black" points="126.51,-190.118 128.868,-179.789 120.583,-186.393 126.51,-190.118"/>
</g>
</g>
</svg>
