<svg xmlns="http://www.w3.org/2000/svg" xmlns:xlink="http://www.w3.org/1999/xlink" class="railroad-diagram" width="2696" height="147" viewBox="0 0 2696 147">
<defs>
<style type="text/css"><![CDATA[
path {
stroke-width: 3;
stroke: black;
fill: rgba(0,0,0,0);
}
text {
font: bold 14px monospace;
text-anchor: middle;
}
text.diagram-text {
font-size: 12px;
}
a {
fill: blue;
}
text.diagram-arrow {
font-size: 16px;
}
text.label {
text-anchor: start;
}
text.comment {
font: italic 12px monospace;
}
rect {
stroke-width: 3;
stroke: black;
fill: #BCBCBC;
}
path.diagram-text {
stroke-width: 3;
stroke: black;
fill: #BCBCBC;
cursor: help;
}
]]></style>
</defs>
<g transform="translate(.5 .5)">
<path d="M 20 38 v 20 m 10 -20 v 20 m -10 -10 h 20.5"></path>
<path d="M40 48h10"></path>
<g>
<path d="M50 48h0"></path>
<path d="M2646 48h0"></path>
<g class="terminal">
<path d="M50 48h0"></path>
<path d="M118 48h0"></path>
<rect x="50" y="37" width="68" height="22" rx="10" ry="10"></rect>
<text x="84" y="52">"FORM"</text>
</g>
<path d="M118 48h10"></path>
<path d="M128 48h10"></path>
<g class="non-terminal">
<path d="M138 48h0"></path>
<path d="M222 48h0"></path>
<rect x="138" y="37" width="84" height="22"></rect>
<a xlink:href="reuse_formname.svg"><text x="180" y="52">FormName</text>
</a>
</g>
<path d="M222 48h10"></path>
<g>
<path d="M232 48h0"></path>
<path d="M946 48h0"></path>
<path d="M232 48a10 10 0 0 0 10 -10v-8a10 10 0 0 1 10 -10"></path>
<g>
<path d="M252 20h674"></path>
</g>
<path d="M926 20a10 10 0 0 1 10 10v8a10 10 0 0 0 10 10"></path>
<path d="M232 48h20"></path>
<g>
<path d="M252 48h0"></path>
<path d="M926 48h0"></path>
<g class="terminal">
<path d="M252 48h0"></path>
<path d="M336 48h0"></path>
<rect x="252" y="37" width="84" height="22" rx="10" ry="10"></rect>
<text x="294" y="52">"TABLES"</text>
</g>
<path d="M336 48h10"></path>
<path d="M346 48h10"></path>
<g>
<path d="M356 48h0"></path>
<path d="M926 48h0"></path>
<path d="M356 48h10"></path>
<g>
<path d="M366 48h0"></path>
<path d="M916 48h0"></path>
<g>
<path d="M366 48h0"></path>
<path d="M744 48h0"></path>
<path d="M366 48h20"></path>
<g class="terminal">
<path d="M386 48h0"></path>
<path d="M446 48h278"></path>
<rect x="386" y="37" width="60" height="22" rx="10" ry="10"></rect>
<text x="416" y="52">^\w+$</text>
</g>
<path d="M724 48h20"></path>
<path d="M366 48a10 10 0 0 1 10 10v10a10 10 0 0 0 10 10"></path>
<g>
<path d="M386 78h0"></path>
<path d="M724 78h0"></path>
<g class="terminal">
<path d="M386 78h0"></path>
<path d="M462 78h0"></path>
<rect x="386" y="67" width="76" height="22" rx="10" ry="10"></rect>
<text x="424" y="82">"VALUE"</text>
</g>
<path d="M462 78h10"></path>
<path d="M472 78h10"></path>
<g class="terminal">
<path d="M482 78h0"></path>
<path d="M534 78h0"></path>
<rect x="482" y="67" width="52" height="22" rx="10" ry="10"></rect>
<text x="508" y="82">!"("</text>
</g>
<path d="M534 78h10"></path>
<path d="M544 78h10"></path>
<g class="terminal">
<path d="M554 78h0"></path>
<path d="M614 78h0"></path>
<rect x="554" y="67" width="60" height="22" rx="10" ry="10"></rect>
<text x="584" y="82">^\w+$</text>
</g>
<path d="M614 78h10"></path>
<g>
<path d="M624 78h0"></path>
<path d="M724 78h0"></path>
<path d="M624 78h20"></path>
<g class="terminal">
<path d="M644 78h0"></path>
<path d="M696 78h8"></path>
<rect x="644" y="67" width="52" height="22" rx="10" ry="10"></rect>
<text x="670" y="82">!")"</text>
</g>
<path d="M704 78h20"></path>
<path d="M624 78a10 10 0 0 1 10 10v10a10 10 0 0 0 10 10"></path>
<g class="terminal">
<path d="M644 108h0"></path>
<path d="M704 108h0"></path>
<rect x="644" y="97" width="60" height="22" rx="10" ry="10"></rect>
<text x="674" y="112">!") "</text>
</g>
<path d="M704 108a10 10 0 0 0 10 -10v-10a10 10 0 0 1 10 -10"></path>
</g>
</g>
<path d="M724 78a10 10 0 0 0 10 -10v-10a10 10 0 0 1 10 -10"></path>
</g>
<g>
<path d="M744 48h0"></path>
<path d="M916 48h0"></path>
<path d="M744 48a10 10 0 0 0 10 -10v0a10 10 0 0 1 10 -10"></path>
<g>
<path d="M764 28h132"></path>
</g>
<path d="M896 28a10 10 0 0 1 10 10v0a10 10 0 0 0 10 10"></path>
<path d="M744 48h20"></path>
<g>
<path d="M764 48h0"></path>
<path d="M896 48h0"></path>
<path d="M764 48h20"></path>
<g class="non-terminal">
<path d="M784 48h0"></path>
<path d="M836 48h40"></path>
<rect x="784" y="37" width="52" height="22"></rect>
<a xlink:href="reuse_type.svg"><text x="810" y="52">Type</text>
</a>
</g>
<path d="M876 48h20"></path>
<path d="M764 48a10 10 0 0 1 10 10v10a10 10 0 0 0 10 10"></path>
<g class="non-terminal">
<path d="M784 78h0"></path>
<path d="M876 78h0"></path>
<rect x="784" y="67" width="92" height="22"></rect>
<a xlink:href="reuse_typetable.svg"><text x="830" y="82">TypeTable</text>
</a>
</g>
<path d="M876 78a10 10 0 0 0 10 -10v-10a10 10 0 0 1 10 -10"></path>
</g>
<path d="M896 48h20"></path>
</g>
</g>
<path d="M916 48h10"></path>
<path d="M366 48a10 10 0 0 0 -10 10v59a10 10 0 0 0 10 10"></path>
<g>
<path d="M366 127h550"></path>
</g>
<path d="M916 127a10 10 0 0 0 10 -10v-59a10 10 0 0 0 -10 -10"></path>
</g>
</g>
<path d="M926 48h20"></path>
</g>
<g>
<path d="M946 48h0"></path>
<path d="M1652 48h0"></path>
<path d="M946 48a10 10 0 0 0 10 -10v-8a10 10 0 0 1 10 -10"></path>
<g>
<path d="M966 20h666"></path>
</g>
<path d="M1632 20a10 10 0 0 1 10 10v8a10 10 0 0 0 10 10"></path>
<path d="M946 48h20"></path>
<g>
<path d="M966 48h0"></path>
<path d="M1632 48h0"></path>
<g class="terminal">
<path d="M966 48h0"></path>
<path d="M1042 48h0"></path>
<rect x="966" y="37" width="76" height="22" rx="10" ry="10"></rect>
<text x="1004" y="52">"USING"</text>
</g>
<path d="M1042 48h10"></path>
<path d="M1052 48h10"></path>
<g>
<path d="M1062 48h0"></path>
<path d="M1632 48h0"></path>
<path d="M1062 48h10"></path>
<g>
<path d="M1072 48h0"></path>
<path d="M1622 48h0"></path>
<g>
<path d="M1072 48h0"></path>
<path d="M1450 48h0"></path>
<path d="M1072 48h20"></path>
<g class="terminal">
<path d="M1092 48h0"></path>
<path d="M1152 48h278"></path>
<rect x="1092" y="37" width="60" height="22" rx="10" ry="10"></rect>
<text x="1122" y="52">^\w+$</text>
</g>
<path d="M1430 48h20"></path>
<path d="M1072 48a10 10 0 0 1 10 10v10a10 10 0 0 0 10 10"></path>
<g>
<path d="M1092 78h0"></path>
<path d="M1430 78h0"></path>
<g class="terminal">
<path d="M1092 78h0"></path>
<path d="M1168 78h0"></path>
<rect x="1092" y="67" width="76" height="22" rx="10" ry="10"></rect>
<text x="1130" y="82">"VALUE"</text>
</g>
<path d="M1168 78h10"></path>
<path d="M1178 78h10"></path>
<g class="terminal">
<path d="M1188 78h0"></path>
<path d="M1240 78h0"></path>
<rect x="1188" y="67" width="52" height="22" rx="10" ry="10"></rect>
<text x="1214" y="82">!"("</text>
</g>
<path d="M1240 78h10"></path>
<path d="M1250 78h10"></path>
<g class="terminal">
<path d="M1260 78h0"></path>
<path d="M1320 78h0"></path>
<rect x="1260" y="67" width="60" height="22" rx="10" ry="10"></rect>
<text x="1290" y="82">^\w+$</text>
</g>
<path d="M1320 78h10"></path>
<g>
<path d="M1330 78h0"></path>
<path d="M1430 78h0"></path>
<path d="M1330 78h20"></path>
<g class="terminal">
<path d="M1350 78h0"></path>
<path d="M1402 78h8"></path>
<rect x="1350" y="67" width="52" height="22" rx="10" ry="10"></rect>
<text x="1376" y="82">!")"</text>
</g>
<path d="M1410 78h20"></path>
<path d="M1330 78a10 10 0 0 1 10 10v10a10 10 0 0 0 10 10"></path>
<g class="terminal">
<path d="M1350 108h0"></path>
<path d="M1410 108h0"></path>
<rect x="1350" y="97" width="60" height="22" rx="10" ry="10"></rect>
<text x="1380" y="112">!") "</text>
</g>
<path d="M1410 108a10 10 0 0 0 10 -10v-10a10 10 0 0 1 10 -10"></path>
</g>
</g>
<path d="M1430 78a10 10 0 0 0 10 -10v-10a10 10 0 0 1 10 -10"></path>
</g>
<g>
<path d="M1450 48h0"></path>
<path d="M1622 48h0"></path>
<path d="M1450 48a10 10 0 0 0 10 -10v0a10 10 0 0 1 10 -10"></path>
<g>
<path d="M1470 28h132"></path>
</g>
<path d="M1602 28a10 10 0 0 1 10 10v0a10 10 0 0 0 10 10"></path>
<path d="M1450 48h20"></path>
<g>
<path d="M1470 48h0"></path>
<path d="M1602 48h0"></path>
<path d="M1470 48h20"></path>
<g class="non-terminal">
<path d="M1490 48h0"></path>
<path d="M1542 48h40"></path>
<rect x="1490" y="37" width="52" height="22"></rect>
<a xlink:href="reuse_type.svg"><text x="1516" y="52">Type</text>
</a>
</g>
<path d="M1582 48h20"></path>
<path d="M1470 48a10 10 0 0 1 10 10v10a10 10 0 0 0 10 10"></path>
<g class="non-terminal">
<path d="M1490 78h0"></path>
<path d="M1582 78h0"></path>
<rect x="1490" y="67" width="92" height="22"></rect>
<a xlink:href="reuse_typetable.svg"><text x="1536" y="82">TypeTable</text>
</a>
</g>
<path d="M1582 78a10 10 0 0 0 10 -10v-10a10 10 0 0 1 10 -10"></path>
</g>
<path d="M1602 48h20"></path>
</g>
</g>
<path d="M1622 48h10"></path>
<path d="M1072 48a10 10 0 0 0 -10 10v59a10 10 0 0 0 10 10"></path>
<g>
<path d="M1072 127h550"></path>
</g>
<path d="M1622 127a10 10 0 0 0 10 -10v-59a10 10 0 0 0 -10 -10"></path>
</g>
</g>
<path d="M1632 48h20"></path>
</g>
<g>
<path d="M1652 48h0"></path>
<path d="M2382 48h0"></path>
<path d="M1652 48a10 10 0 0 0 10 -10v-8a10 10 0 0 1 10 -10"></path>
<g>
<path d="M1672 20h690"></path>
</g>
<path d="M2362 20a10 10 0 0 1 10 10v8a10 10 0 0 0 10 10"></path>
<path d="M1652 48h20"></path>
<g>
<path d="M1672 48h0"></path>
<path d="M2362 48h0"></path>
<g class="terminal">
<path d="M1672 48h0"></path>
<path d="M1772 48h0"></path>
<rect x="1672" y="37" width="100" height="22" rx="10" ry="10"></rect>
<text x="1722" y="52">"CHANGING"</text>
</g>
<path d="M1772 48h10"></path>
<path d="M1782 48h10"></path>
<g>
<path d="M1792 48h0"></path>
<path d="M2362 48h0"></path>
<path d="M1792 48h10"></path>
<g>
<path d="M1802 48h0"></path>
<path d="M2352 48h0"></path>
<g>
<path d="M1802 48h0"></path>
<path d="M2180 48h0"></path>
<path d="M1802 48h20"></path>
<g class="terminal">
<path d="M1822 48h0"></path>
<path d="M1882 48h278"></path>
<rect x="1822" y="37" width="60" height="22" rx="10" ry="10"></rect>
<text x="1852" y="52">^\w+$</text>
</g>
<path d="M2160 48h20"></path>
<path d="M1802 48a10 10 0 0 1 10 10v10a10 10 0 0 0 10 10"></path>
<g>
<path d="M1822 78h0"></path>
<path d="M2160 78h0"></path>
<g class="terminal">
<path d="M1822 78h0"></path>
<path d="M1898 78h0"></path>
<rect x="1822" y="67" width="76" height="22" rx="10" ry="10"></rect>
<text x="1860" y="82">"VALUE"</text>
</g>
<path d="M1898 78h10"></path>
<path d="M1908 78h10"></path>
<g class="terminal">
<path d="M1918 78h0"></path>
<path d="M1970 78h0"></path>
<rect x="1918" y="67" width="52" height="22" rx="10" ry="10"></rect>
<text x="1944" y="82">!"("</text>
</g>
<path d="M1970 78h10"></path>
<path d="M1980 78h10"></path>
<g class="terminal">
<path d="M1990 78h0"></path>
<path d="M2050 78h0"></path>
<rect x="1990" y="67" width="60" height="22" rx="10" ry="10"></rect>
<text x="2020" y="82">^\w+$</text>
</g>
<path d="M2050 78h10"></path>
<g>
<path d="M2060 78h0"></path>
<path d="M2160 78h0"></path>
<path d="M2060 78h20"></path>
<g class="terminal">
<path d="M2080 78h0"></path>
<path d="M2132 78h8"></path>
<rect x="2080" y="67" width="52" height="22" rx="10" ry="10"></rect>
<text x="2106" y="82">!")"</text>
</g>
<path d="M2140 78h20"></path>
<path d="M2060 78a10 10 0 0 1 10 10v10a10 10 0 0 0 10 10"></path>
<g class="terminal">
<path d="M2080 108h0"></path>
<path d="M2140 108h0"></path>
<rect x="2080" y="97" width="60" height="22" rx="10" ry="10"></rect>
<text x="2110" y="112">!") "</text>
</g>
<path d="M2140 108a10 10 0 0 0 10 -10v-10a10 10 0 0 1 10 -10"></path>
</g>
</g>
<path d="M2160 78a10 10 0 0 0 10 -10v-10a10 10 0 0 1 10 -10"></path>
</g>
<g>
<path d="M2180 48h0"></path>
<path d="M2352 48h0"></path>
<path d="M2180 48a10 10 0 0 0 10 -10v0a10 10 0 0 1 10 -10"></path>
<g>
<path d="M2200 28h132"></path>
</g>
<path d="M2332 28a10 10 0 0 1 10 10v0a10 10 0 0 0 10 10"></path>
<path d="M2180 48h20"></path>
<g>
<path d="M2200 48h0"></path>
<path d="M2332 48h0"></path>
<path d="M2200 48h20"></path>
<g class="non-terminal">
<path d="M2220 48h0"></path>
<path d="M2272 48h40"></path>
<rect x="2220" y="37" width="52" height="22"></rect>
<a xlink:href="reuse_type.svg"><text x="2246" y="52">Type</text>
</a>
</g>
<path d="M2312 48h20"></path>
<path d="M2200 48a10 10 0 0 1 10 10v10a10 10 0 0 0 10 10"></path>
<g class="non-terminal">
<path d="M2220 78h0"></path>
<path d="M2312 78h0"></path>
<rect x="2220" y="67" width="92" height="22"></rect>
<a xlink:href="reuse_typetable.svg"><text x="2266" y="82">TypeTable</text>
</a>
</g>
<path d="M2312 78a10 10 0 0 0 10 -10v-10a10 10 0 0 1 10 -10"></path>
</g>
<path d="M2332 48h20"></path>
</g>
</g>
<path d="M2352 48h10"></path>
<path d="M1802 48a10 10 0 0 0 -10 10v59a10 10 0 0 0 10 10"></path>
<g>
<path d="M1802 127h550"></path>
</g>
<path d="M2352 127a10 10 0 0 0 10 -10v-59a10 10 0 0 0 -10 -10"></path>
</g>
</g>
<path d="M2362 48h20"></path>
</g>
<g>
<path d="M2382 48h0"></path>
<path d="M2646 48h0"></path>
<path d="M2382 48a10 10 0 0 0 10 -10v0a10 10 0 0 1 10 -10"></path>
<g>
<path d="M2402 28h224"></path>
</g>
<path d="M2626 28a10 10 0 0 1 10 10v0a10 10 0 0 0 10 10"></path>
<path d="M2382 48h20"></path>
<g>
<path d="M2402 48h0"></path>
<path d="M2626 48h0"></path>
<g class="terminal">
<path d="M2402 48h0"></path>
<path d="M2494 48h0"></path>
<rect x="2402" y="37" width="92" height="22" rx="10" ry="10"></rect>
<text x="2448" y="52">"RAISING"</text>
</g>
<path d="M2494 48h10"></path>
<path d="M2504 48h10"></path>
<g>
<path d="M2514 48h0"></path>
<path d="M2626 48h0"></path>
<path d="M2514 48h10"></path>
<g class="non-terminal">
<path d="M2524 48h0"></path>
<path d="M2616 48h0"></path>
<rect x="2524" y="37" width="92" height="22"></rect>
<a xlink:href="reuse_classname.svg"><text x="2570" y="52">ClassName</text>
</a>
</g>
<path d="M2616 48h10"></path>
<path d="M2524 48a10 10 0 0 0 -10 10v0a10 10 0 0 0 10 10"></path>
<g>
<path d="M2524 68h92"></path>
</g>
<path d="M2616 68a10 10 0 0 0 10 -10v0a10 10 0 0 0 -10 -10"></path>
</g>
</g>
<path d="M2626 48h20"></path>
</g>
</g>
<path d="M2646 48h10"></path>
<path d="M 2656 48 h 20 m -10 -10 v 20 m 10 -20 v 20"></path>
</g>
</svg>
