<svg xmlns="http://www.w3.org/2000/svg" xmlns:xlink="http://www.w3.org/1999/xlink" class="railroad-diagram" width="1812" height="117" viewBox="0 0 1812 117">
<defs>
<style type="text/css"><![CDATA[
path {
stroke-width: 3;
stroke: black;
fill: rgba(0,0,0,0);
}
text {
font: bold 14px monospace;
text-anchor: middle;
}
text.diagram-text {
font-size: 12px;
}
a {
fill: blue;
}
text.diagram-arrow {
font-size: 16px;
}
text.label {
text-anchor: start;
}
text.comment {
font: italic 12px monospace;
}
rect {
stroke-width: 3;
stroke: black;
fill: #BCBCBC;
}
path.diagram-text {
stroke-width: 3;
stroke: black;
fill: #BCBCBC;
cursor: help;
}
]]></style>
</defs>
<g transform="translate(.5 .5)">
<path d="M 20 38 v 20 m 10 -20 v 20 m -10 -10 h 20.5"></path>
<path d="M40 48h10"></path>
<g>
<path d="M50 48h0"></path>
<path d="M1762 48h0"></path>
<g class="terminal">
<path d="M50 48h0"></path>
<path d="M118 48h0"></path>
<rect x="50" y="37" width="68" height="22" rx="10" ry="10"></rect>
<text x="84" y="52">"FORM"</text>
</g>
<path d="M118 48h10"></path>
<path d="M128 48h10"></path>
<g class="non-terminal">
<path d="M138 48h0"></path>
<path d="M230 48h0"></path>
<rect x="138" y="37" width="92" height="22"></rect>
<a xlink:href="reuse_form_name.svg"><text x="184" y="52">form&#95;name</text>
</a>
</g>
<path d="M230 48h10"></path>
<g>
<path d="M240 48h0"></path>
<path d="M654 48h0"></path>
<path d="M240 48a10 10 0 0 0 10 -10v-8a10 10 0 0 1 10 -10"></path>
<g>
<path d="M260 20h374"></path>
</g>
<path d="M634 20a10 10 0 0 1 10 10v8a10 10 0 0 0 10 10"></path>
<path d="M240 48h20"></path>
<g>
<path d="M260 48h0"></path>
<path d="M634 48h0"></path>
<g class="terminal">
<path d="M260 48h0"></path>
<path d="M344 48h0"></path>
<rect x="260" y="37" width="84" height="22" rx="10" ry="10"></rect>
<text x="302" y="52">"TABLES"</text>
</g>
<path d="M344 48h10"></path>
<path d="M354 48h10"></path>
<g>
<path d="M364 48h0"></path>
<path d="M634 48h0"></path>
<path d="M364 48h10"></path>
<g>
<path d="M374 48h0"></path>
<path d="M624 48h0"></path>
<g class="terminal">
<path d="M374 48h0"></path>
<path d="M434 48h0"></path>
<rect x="374" y="37" width="60" height="22" rx="10" ry="10"></rect>
<text x="404" y="52">^\w+$</text>
</g>
<path d="M434 48h10"></path>
<g>
<path d="M444 48h0"></path>
<path d="M624 48h0"></path>
<path d="M444 48a10 10 0 0 0 10 -10v0a10 10 0 0 1 10 -10"></path>
<g>
<path d="M464 28h140"></path>
</g>
<path d="M604 28a10 10 0 0 1 10 10v0a10 10 0 0 0 10 10"></path>
<path d="M444 48h20"></path>
<g>
<path d="M464 48h0"></path>
<path d="M604 48h0"></path>
<path d="M464 48h20"></path>
<g class="non-terminal">
<path d="M484 48h24"></path>
<path d="M560 48h24"></path>
<rect x="508" y="37" width="52" height="22"></rect>
<a xlink:href="reuse_type.svg"><text x="534" y="52">type</text>
</a>
</g>
<path d="M584 48h20"></path>
<path d="M464 48a10 10 0 0 1 10 10v10a10 10 0 0 0 10 10"></path>
<g class="non-terminal">
<path d="M484 78h0"></path>
<path d="M584 78h0"></path>
<rect x="484" y="67" width="100" height="22"></rect>
<a xlink:href="reuse_type_table.svg"><text x="534" y="82">type&#95;table</text>
</a>
</g>
<path d="M584 78a10 10 0 0 0 10 -10v-10a10 10 0 0 1 10 -10"></path>
</g>
<path d="M604 48h20"></path>
</g>
</g>
<path d="M624 48h10"></path>
<path d="M374 48a10 10 0 0 0 -10 10v29a10 10 0 0 0 10 10"></path>
<g>
<path d="M374 97h250"></path>
</g>
<path d="M624 97a10 10 0 0 0 10 -10v-29a10 10 0 0 0 -10 -10"></path>
</g>
</g>
<path d="M634 48h20"></path>
</g>
<g>
<path d="M654 48h0"></path>
<path d="M1060 48h0"></path>
<path d="M654 48a10 10 0 0 0 10 -10v-8a10 10 0 0 1 10 -10"></path>
<g>
<path d="M674 20h366"></path>
</g>
<path d="M1040 20a10 10 0 0 1 10 10v8a10 10 0 0 0 10 10"></path>
<path d="M654 48h20"></path>
<g>
<path d="M674 48h0"></path>
<path d="M1040 48h0"></path>
<g class="terminal">
<path d="M674 48h0"></path>
<path d="M750 48h0"></path>
<rect x="674" y="37" width="76" height="22" rx="10" ry="10"></rect>
<text x="712" y="52">"USING"</text>
</g>
<path d="M750 48h10"></path>
<path d="M760 48h10"></path>
<g>
<path d="M770 48h0"></path>
<path d="M1040 48h0"></path>
<path d="M770 48h10"></path>
<g>
<path d="M780 48h0"></path>
<path d="M1030 48h0"></path>
<g class="terminal">
<path d="M780 48h0"></path>
<path d="M840 48h0"></path>
<rect x="780" y="37" width="60" height="22" rx="10" ry="10"></rect>
<text x="810" y="52">^\w+$</text>
</g>
<path d="M840 48h10"></path>
<g>
<path d="M850 48h0"></path>
<path d="M1030 48h0"></path>
<path d="M850 48a10 10 0 0 0 10 -10v0a10 10 0 0 1 10 -10"></path>
<g>
<path d="M870 28h140"></path>
</g>
<path d="M1010 28a10 10 0 0 1 10 10v0a10 10 0 0 0 10 10"></path>
<path d="M850 48h20"></path>
<g>
<path d="M870 48h0"></path>
<path d="M1010 48h0"></path>
<path d="M870 48h20"></path>
<g class="non-terminal">
<path d="M890 48h24"></path>
<path d="M966 48h24"></path>
<rect x="914" y="37" width="52" height="22"></rect>
<a xlink:href="reuse_type.svg"><text x="940" y="52">type</text>
</a>
</g>
<path d="M990 48h20"></path>
<path d="M870 48a10 10 0 0 1 10 10v10a10 10 0 0 0 10 10"></path>
<g class="non-terminal">
<path d="M890 78h0"></path>
<path d="M990 78h0"></path>
<rect x="890" y="67" width="100" height="22"></rect>
<a xlink:href="reuse_type_table.svg"><text x="940" y="82">type&#95;table</text>
</a>
</g>
<path d="M990 78a10 10 0 0 0 10 -10v-10a10 10 0 0 1 10 -10"></path>
</g>
<path d="M1010 48h20"></path>
</g>
</g>
<path d="M1030 48h10"></path>
<path d="M780 48a10 10 0 0 0 -10 10v29a10 10 0 0 0 10 10"></path>
<g>
<path d="M780 97h250"></path>
</g>
<path d="M1030 97a10 10 0 0 0 10 -10v-29a10 10 0 0 0 -10 -10"></path>
</g>
</g>
<path d="M1040 48h20"></path>
</g>
<g>
<path d="M1060 48h0"></path>
<path d="M1490 48h0"></path>
<path d="M1060 48a10 10 0 0 0 10 -10v-8a10 10 0 0 1 10 -10"></path>
<g>
<path d="M1080 20h390"></path>
</g>
<path d="M1470 20a10 10 0 0 1 10 10v8a10 10 0 0 0 10 10"></path>
<path d="M1060 48h20"></path>
<g>
<path d="M1080 48h0"></path>
<path d="M1470 48h0"></path>
<g class="terminal">
<path d="M1080 48h0"></path>
<path d="M1180 48h0"></path>
<rect x="1080" y="37" width="100" height="22" rx="10" ry="10"></rect>
<text x="1130" y="52">"CHANGING"</text>
</g>
<path d="M1180 48h10"></path>
<path d="M1190 48h10"></path>
<g>
<path d="M1200 48h0"></path>
<path d="M1470 48h0"></path>
<path d="M1200 48h10"></path>
<g>
<path d="M1210 48h0"></path>
<path d="M1460 48h0"></path>
<g class="terminal">
<path d="M1210 48h0"></path>
<path d="M1270 48h0"></path>
<rect x="1210" y="37" width="60" height="22" rx="10" ry="10"></rect>
<text x="1240" y="52">^\w+$</text>
</g>
<path d="M1270 48h10"></path>
<g>
<path d="M1280 48h0"></path>
<path d="M1460 48h0"></path>
<path d="M1280 48a10 10 0 0 0 10 -10v0a10 10 0 0 1 10 -10"></path>
<g>
<path d="M1300 28h140"></path>
</g>
<path d="M1440 28a10 10 0 0 1 10 10v0a10 10 0 0 0 10 10"></path>
<path d="M1280 48h20"></path>
<g>
<path d="M1300 48h0"></path>
<path d="M1440 48h0"></path>
<path d="M1300 48h20"></path>
<g class="non-terminal">
<path d="M1320 48h24"></path>
<path d="M1396 48h24"></path>
<rect x="1344" y="37" width="52" height="22"></rect>
<a xlink:href="reuse_type.svg"><text x="1370" y="52">type</text>
</a>
</g>
<path d="M1420 48h20"></path>
<path d="M1300 48a10 10 0 0 1 10 10v10a10 10 0 0 0 10 10"></path>
<g class="non-terminal">
<path d="M1320 78h0"></path>
<path d="M1420 78h0"></path>
<rect x="1320" y="67" width="100" height="22"></rect>
<a xlink:href="reuse_type_table.svg"><text x="1370" y="82">type&#95;table</text>
</a>
</g>
<path d="M1420 78a10 10 0 0 0 10 -10v-10a10 10 0 0 1 10 -10"></path>
</g>
<path d="M1440 48h20"></path>
</g>
</g>
<path d="M1460 48h10"></path>
<path d="M1210 48a10 10 0 0 0 -10 10v29a10 10 0 0 0 10 10"></path>
<g>
<path d="M1210 97h250"></path>
</g>
<path d="M1460 97a10 10 0 0 0 10 -10v-29a10 10 0 0 0 -10 -10"></path>
</g>
</g>
<path d="M1470 48h20"></path>
</g>
<g>
<path d="M1490 48h0"></path>
<path d="M1762 48h0"></path>
<path d="M1490 48a10 10 0 0 0 10 -10v0a10 10 0 0 1 10 -10"></path>
<g>
<path d="M1510 28h232"></path>
</g>
<path d="M1742 28a10 10 0 0 1 10 10v0a10 10 0 0 0 10 10"></path>
<path d="M1490 48h20"></path>
<g>
<path d="M1510 48h0"></path>
<path d="M1742 48h0"></path>
<g class="terminal">
<path d="M1510 48h0"></path>
<path d="M1602 48h0"></path>
<rect x="1510" y="37" width="92" height="22" rx="10" ry="10"></rect>
<text x="1556" y="52">"RAISING"</text>
</g>
<path d="M1602 48h10"></path>
<path d="M1612 48h10"></path>
<g>
<path d="M1622 48h0"></path>
<path d="M1742 48h0"></path>
<path d="M1622 48h10"></path>
<g class="non-terminal">
<path d="M1632 48h0"></path>
<path d="M1732 48h0"></path>
<rect x="1632" y="37" width="100" height="22"></rect>
<a xlink:href="reuse_class_name.svg"><text x="1682" y="52">class&#95;name</text>
</a>
</g>
<path d="M1732 48h10"></path>
<path d="M1632 48a10 10 0 0 0 -10 10v0a10 10 0 0 0 10 10"></path>
<g>
<path d="M1632 68h100"></path>
</g>
<path d="M1732 68a10 10 0 0 0 10 -10v0a10 10 0 0 0 -10 -10"></path>
</g>
</g>
<path d="M1742 48h20"></path>
</g>
</g>
<path d="M1762 48h10"></path>
<path d="M 1772 48 h 20 m -10 -10 v 20 m 10 -20 v 20"></path>
</g>
</svg>
