<svg xmlns="http://www.w3.org/2000/svg" xmlns:xlink="http://www.w3.org/1999/xlink" class="railroad-diagram" width="2040" height="139" viewBox="0 0 2040 139">
<defs>
<style type="text/css"><![CDATA[
path {
stroke-width: 3;
stroke: black;
fill: rgba(0,0,0,0);
}
text {
font: bold 14px monospace;
text-anchor: middle;
}
text.diagram-text {
font-size: 12px;
}
a {
fill: blue;
}
text.diagram-arrow {
font-size: 16px;
}
text.label {
text-anchor: start;
}
text.comment {
font: italic 12px monospace;
}
rect {
stroke-width: 3;
stroke: black;
fill: #BCBCBC;
}
path.diagram-text {
stroke-width: 3;
stroke: black;
fill: #BCBCBC;
cursor: help;
}
]]></style>
</defs>
<g transform="translate(.5 .5)">
<path d="M 20 30 v 20 m 10 -20 v 20 m -10 -10 h 20.5"></path>
<path d="M40 40h10"></path>
<g>
<path d="M50 40h0"></path>
<path d="M1990 40h0"></path>
<g class="terminal">
<path d="M50 40h0"></path>
<path d="M118 40h0"></path>
<rect x="50" y="29" width="68" height="22" rx="10" ry="10"></rect>
<text x="84" y="44">"FORM"</text>
</g>
<path d="M118 40h10"></path>
<path d="M128 40h10"></path>
<g class="non-terminal">
<path d="M138 40h0"></path>
<path d="M222 40h0"></path>
<rect x="138" y="29" width="84" height="22"></rect>
<a xlink:href="reuse_formname.svg"><text x="180" y="44">FormName</text>
</a>
</g>
<path d="M222 40h10"></path>
<g>
<path d="M232 40h0"></path>
<path d="M856 40h0"></path>
<path d="M232 40a10 10 0 0 0 10 -10v0a10 10 0 0 1 10 -10"></path>
<g>
<path d="M252 20h584"></path>
</g>
<path d="M836 20a10 10 0 0 1 10 10v0a10 10 0 0 0 10 10"></path>
<path d="M232 40h20"></path>
<g>
<path d="M252 40h0"></path>
<path d="M836 40h0"></path>
<g class="terminal">
<path d="M252 40h0"></path>
<path d="M336 40h0"></path>
<rect x="252" y="29" width="84" height="22" rx="10" ry="10"></rect>
<text x="294" y="44">"TABLES"</text>
</g>
<path d="M336 40h10"></path>
<path d="M346 40h10"></path>
<g>
<path d="M356 40h0"></path>
<path d="M836 40h0"></path>
<path d="M356 40h10"></path>
<g>
<path d="M366 40h0"></path>
<path d="M826 40h0"></path>
<path d="M366 40h20"></path>
<g>
<path d="M386 40h0"></path>
<path d="M806 40h0"></path>
<g class="non-terminal">
<path d="M386 40h0"></path>
<path d="M486 40h0"></path>
<rect x="386" y="29" width="100" height="22"></rect>
<a xlink:href="reuse_simplename.svg"><text x="436" y="44">SimpleName</text>
</a>
</g>
<path d="M486 40h10"></path>
<path d="M496 40h10"></path>
<g class="terminal">
<path d="M506 40h0"></path>
<path d="M614 40h0"></path>
<rect x="506" y="29" width="108" height="22" rx="10" ry="10"></rect>
<text x="560" y="44">"STRUCTURE"</text>
</g>
<path d="M614 40h10"></path>
<path d="M624 40h10"></path>
<g class="non-terminal">
<path d="M634 40h0"></path>
<path d="M806 40h0"></path>
<rect x="634" y="29" width="172" height="22"></rect>
<a xlink:href="reuse_namespacesimplename.svg"><text x="720" y="44">NamespaceSimpleName</text>
</a>
</g>
</g>
<path d="M806 40h20"></path>
<path d="M366 40a10 10 0 0 1 10 10v10a10 10 0 0 0 10 10"></path>
<g class="non-terminal">
<path d="M386 70h0"></path>
<path d="M478 70h328"></path>
<rect x="386" y="59" width="92" height="22"></rect>
<a xlink:href="reuse_formparam.svg"><text x="432" y="74">FormParam</text>
</a>
</g>
<path d="M806 70a10 10 0 0 0 10 -10v-10a10 10 0 0 1 10 -10"></path>
</g>
<path d="M826 40h10"></path>
<path d="M366 40a10 10 0 0 0 -10 10v29a10 10 0 0 0 10 10"></path>
<g>
<path d="M366 89h460"></path>
</g>
<path d="M826 89a10 10 0 0 0 10 -10v-29a10 10 0 0 0 -10 -10"></path>
</g>
</g>
<path d="M836 40h20"></path>
</g>
<g>
<path d="M856 40h0"></path>
<path d="M1104 40h0"></path>
<path d="M856 40a10 10 0 0 0 10 -10v0a10 10 0 0 1 10 -10"></path>
<g>
<path d="M876 20h208"></path>
</g>
<path d="M1084 20a10 10 0 0 1 10 10v0a10 10 0 0 0 10 10"></path>
<path d="M856 40h20"></path>
<g>
<path d="M876 40h0"></path>
<path d="M1084 40h0"></path>
<g class="terminal">
<path d="M876 40h0"></path>
<path d="M952 40h0"></path>
<rect x="876" y="29" width="76" height="22" rx="10" ry="10"></rect>
<text x="914" y="44">"USING"</text>
</g>
<path d="M952 40h10"></path>
<path d="M962 40h10"></path>
<g>
<path d="M972 40h0"></path>
<path d="M1084 40h0"></path>
<path d="M972 40h10"></path>
<g class="non-terminal">
<path d="M982 40h0"></path>
<path d="M1074 40h0"></path>
<rect x="982" y="29" width="92" height="22"></rect>
<a xlink:href="reuse_formparam.svg"><text x="1028" y="44">FormParam</text>
</a>
</g>
<path d="M1074 40h10"></path>
<path d="M982 40a10 10 0 0 0 -10 10v0a10 10 0 0 0 10 10"></path>
<g>
<path d="M982 60h92"></path>
</g>
<path d="M1074 60a10 10 0 0 0 10 -10v0a10 10 0 0 0 -10 -10"></path>
</g>
</g>
<path d="M1084 40h20"></path>
</g>
<g>
<path d="M1104 40h0"></path>
<path d="M1376 40h0"></path>
<path d="M1104 40a10 10 0 0 0 10 -10v0a10 10 0 0 1 10 -10"></path>
<g>
<path d="M1124 20h232"></path>
</g>
<path d="M1356 20a10 10 0 0 1 10 10v0a10 10 0 0 0 10 10"></path>
<path d="M1104 40h20"></path>
<g>
<path d="M1124 40h0"></path>
<path d="M1356 40h0"></path>
<g class="terminal">
<path d="M1124 40h0"></path>
<path d="M1224 40h0"></path>
<rect x="1124" y="29" width="100" height="22" rx="10" ry="10"></rect>
<text x="1174" y="44">"CHANGING"</text>
</g>
<path d="M1224 40h10"></path>
<path d="M1234 40h10"></path>
<g>
<path d="M1244 40h0"></path>
<path d="M1356 40h0"></path>
<path d="M1244 40h10"></path>
<g class="non-terminal">
<path d="M1254 40h0"></path>
<path d="M1346 40h0"></path>
<rect x="1254" y="29" width="92" height="22"></rect>
<a xlink:href="reuse_formparam.svg"><text x="1300" y="44">FormParam</text>
</a>
</g>
<path d="M1346 40h10"></path>
<path d="M1254 40a10 10 0 0 0 -10 10v0a10 10 0 0 0 10 10"></path>
<g>
<path d="M1254 60h92"></path>
</g>
<path d="M1346 60a10 10 0 0 0 10 -10v0a10 10 0 0 0 -10 -10"></path>
</g>
</g>
<path d="M1356 40h20"></path>
</g>
<g>
<path d="M1376 40h0"></path>
<path d="M1990 40h0"></path>
<path d="M1376 40a10 10 0 0 0 10 -10v0a10 10 0 0 1 10 -10"></path>
<g>
<path d="M1396 20h574"></path>
</g>
<path d="M1970 20a10 10 0 0 1 10 10v0a10 10 0 0 0 10 10"></path>
<path d="M1376 40h20"></path>
<g>
<path d="M1396 40h0"></path>
<path d="M1970 40h0"></path>
<g class="terminal">
<path d="M1396 40h0"></path>
<path d="M1488 40h0"></path>
<rect x="1396" y="29" width="92" height="22" rx="10" ry="10"></rect>
<text x="1442" y="44">"RAISING"</text>
</g>
<path d="M1488 40h10"></path>
<path d="M1498 40h10"></path>
<g>
<path d="M1508 40h0"></path>
<path d="M1970 40h0"></path>
<path d="M1508 40h10"></path>
<g>
<path d="M1518 40h0"></path>
<path d="M1960 40h0"></path>
<path d="M1518 40h20"></path>
<g class="non-terminal">
<path d="M1538 40h0"></path>
<path d="M1630 40h310"></path>
<rect x="1538" y="29" width="92" height="22"></rect>
<a xlink:href="reuse_classname.svg"><text x="1584" y="44">ClassName</text>
</a>
</g>
<path d="M1940 40h20"></path>
<path d="M1518 40a10 10 0 0 1 10 10v10a10 10 0 0 0 10 10"></path>
<g>
<path d="M1538 70h0"></path>
<path d="M1940 70h0"></path>
<g class="terminal">
<path d="M1538 70h0"></path>
<path d="M1646 70h0"></path>
<rect x="1538" y="59" width="108" height="22" rx="10" ry="10"></rect>
<text x="1592" y="74">"RESUMABLE"</text>
</g>
<path d="M1646 70h10"></path>
<path d="M1656 70h10"></path>
<g class="terminal">
<path d="M1666 70h0"></path>
<path d="M1718 70h0"></path>
<rect x="1666" y="59" width="52" height="22" rx="10" ry="10"></rect>
<text x="1692" y="74">!"("</text>
</g>
<path d="M1718 70h10"></path>
<path d="M1728 70h10"></path>
<g class="non-terminal">
<path d="M1738 70h0"></path>
<path d="M1830 70h0"></path>
<rect x="1738" y="59" width="92" height="22"></rect>
<a xlink:href="reuse_classname.svg"><text x="1784" y="74">ClassName</text>
</a>
</g>
<path d="M1830 70h10"></path>
<g>
<path d="M1840 70h0"></path>
<path d="M1940 70h0"></path>
<path d="M1840 70h20"></path>
<g class="terminal">
<path d="M1860 70h0"></path>
<path d="M1912 70h8"></path>
<rect x="1860" y="59" width="52" height="22" rx="10" ry="10"></rect>
<text x="1886" y="74">!")"</text>
</g>
<path d="M1920 70h20"></path>
<path d="M1840 70a10 10 0 0 1 10 10v10a10 10 0 0 0 10 10"></path>
<g class="terminal">
<path d="M1860 100h0"></path>
<path d="M1920 100h0"></path>
<rect x="1860" y="89" width="60" height="22" rx="10" ry="10"></rect>
<text x="1890" y="104">!") "</text>
</g>
<path d="M1920 100a10 10 0 0 0 10 -10v-10a10 10 0 0 1 10 -10"></path>
</g>
</g>
<path d="M1940 70a10 10 0 0 0 10 -10v-10a10 10 0 0 1 10 -10"></path>
</g>
<path d="M1960 40h10"></path>
<path d="M1518 40a10 10 0 0 0 -10 10v59a10 10 0 0 0 10 10"></path>
<g>
<path d="M1518 119h442"></path>
</g>
<path d="M1960 119a10 10 0 0 0 10 -10v-59a10 10 0 0 0 -10 -10"></path>
</g>
</g>
<path d="M1970 40h20"></path>
</g>
</g>
<path d="M1990 40h10"></path>
<path d="M 2000 40 h 20 m -10 -10 v 20 m 10 -20 v 20"></path>
</g>
</svg>
