<svg xmlns="http://www.w3.org/2000/svg" xmlns:xlink="http://www.w3.org/1999/xlink" class="railroad-diagram" width="624" height="449" viewBox="0 0 624 449">
<defs>
<style type="text/css"><![CDATA[
path {
stroke-width: 3;
stroke: black;
fill: rgba(0,0,0,0);
}
text {
font: bold 14px monospace;
text-anchor: middle;
}
text.diagram-text {
font-size: 12px;
}
a {
fill: blue;
}
text.diagram-arrow {
font-size: 16px;
}
text.label {
text-anchor: start;
}
text.comment {
font: italic 12px monospace;
}
rect {
stroke-width: 3;
stroke: black;
fill: #BCBCBC;
}
path.diagram-text {
stroke-width: 3;
stroke: black;
fill: #BCBCBC;
cursor: help;
}
]]></style>
</defs>
<g transform="translate(.5 .5)">
<path d="M 20 21 v 20 m 10 -20 v 20 m -10 -10 h 20.5"></path>
<path d="M40 31h10"></path>
<g>
<path d="M50 31h0"></path>
<path d="M574 31h0"></path>
<g class="terminal">
<path d="M50 31h0"></path>
<path d="M134 31h0"></path>
<rect x="50" y="20" width="84" height="22" rx="10" ry="10"></rect>
<text x="92" y="35">"FORMAT"</text>
</g>
<path d="M134 31h10"></path>
<path d="M144 31h10"></path>
<g>
<path d="M154 31h0"></path>
<path d="M574 31h0"></path>
<path d="M184 31h10"></path>
<g class="terminal">
<path d="M194 31h0"></path>
<path d="M270 31h274"></path>
<rect x="194" y="20" width="76" height="22" rx="10" ry="10"></rect>
<text x="232" y="35">"RESET"</text>
</g>
<path d="M544 31h10"></path>
<path d="M184 31v29a10 10 0 0 0 10 10"></path>
<g>
<path d="M194 70h0"></path>
<path d="M540 70h4"></path>
<g class="terminal">
<path d="M194 70h0"></path>
<path d="M318 70h0"></path>
<rect x="194" y="59" width="124" height="22" rx="10" ry="10"></rect>
<text x="256" y="74">"INTENSIFIED"</text>
</g>
<path d="M318 70h10"></path>
<g>
<path d="M328 70h0"></path>
<path d="M540 70h0"></path>
<path d="M328 70a10 10 0 0 0 10 -10v0a10 10 0 0 1 10 -10"></path>
<g>
<path d="M348 50h172"></path>
</g>
<path d="M520 50a10 10 0 0 1 10 10v0a10 10 0 0 0 10 10"></path>
<path d="M328 70h20"></path>
<g>
<path d="M348 70h0"></path>
<path d="M520 70h0"></path>
<path d="M348 70h20"></path>
<g>
<path d="M368 70h0"></path>
<path d="M500 70h0"></path>
<g class="terminal">
<path d="M368 70h0"></path>
<path d="M412 70h0"></path>
<rect x="368" y="59" width="44" height="22" rx="10" ry="10"></rect>
<text x="390" y="74">"="</text>
</g>
<path d="M412 70h10"></path>
<path d="M422 70h10"></path>
<g class="non-terminal">
<path d="M432 70h0"></path>
<path d="M500 70h0"></path>
<rect x="432" y="59" width="68" height="22"></rect>
<a xlink:href="reuse_source.svg"><text x="466" y="74">Source</text>
</a>
</g>
</g>
<path d="M500 70h20"></path>
<path d="M348 70a10 10 0 0 1 10 10v10a10 10 0 0 0 10 10"></path>
<g class="non-terminal">
<path d="M368 100h0"></path>
<path d="M428 100h72"></path>
<rect x="368" y="89" width="60" height="22"></rect>
<a xlink:href="reuse_field.svg"><text x="398" y="104">Field</text>
</a>
</g>
<path d="M500 100a10 10 0 0 0 10 -10v-10a10 10 0 0 1 10 -10"></path>
</g>
<path d="M520 70h20"></path>
</g>
</g>
<path d="M544 70a10 10 0 0 0 10 -10v-29"></path>
<path d="M184 31v98a10 10 0 0 0 10 10"></path>
<g>
<path d="M194 139h0"></path>
<path d="M508 139h36"></path>
<g class="terminal">
<path d="M194 139h0"></path>
<path d="M286 139h0"></path>
<rect x="194" y="128" width="92" height="22" rx="10" ry="10"></rect>
<text x="240" y="143">"INVERSE"</text>
</g>
<path d="M286 139h10"></path>
<g>
<path d="M296 139h0"></path>
<path d="M508 139h0"></path>
<path d="M296 139a10 10 0 0 0 10 -10v0a10 10 0 0 1 10 -10"></path>
<g>
<path d="M316 119h172"></path>
</g>
<path d="M488 119a10 10 0 0 1 10 10v0a10 10 0 0 0 10 10"></path>
<path d="M296 139h20"></path>
<g>
<path d="M316 139h0"></path>
<path d="M488 139h0"></path>
<path d="M316 139h20"></path>
<g>
<path d="M336 139h0"></path>
<path d="M468 139h0"></path>
<g class="terminal">
<path d="M336 139h0"></path>
<path d="M380 139h0"></path>
<rect x="336" y="128" width="44" height="22" rx="10" ry="10"></rect>
<text x="358" y="143">"="</text>
</g>
<path d="M380 139h10"></path>
<path d="M390 139h10"></path>
<g class="non-terminal">
<path d="M400 139h0"></path>
<path d="M468 139h0"></path>
<rect x="400" y="128" width="68" height="22"></rect>
<a xlink:href="reuse_source.svg"><text x="434" y="143">Source</text>
</a>
</g>
</g>
<path d="M468 139h20"></path>
<path d="M316 139a10 10 0 0 1 10 10v10a10 10 0 0 0 10 10"></path>
<g class="non-terminal">
<path d="M336 169h0"></path>
<path d="M396 169h72"></path>
<rect x="336" y="158" width="60" height="22"></rect>
<a xlink:href="reuse_field.svg"><text x="366" y="173">Field</text>
</a>
</g>
<path d="M468 169a10 10 0 0 0 10 -10v-10a10 10 0 0 1 10 -10"></path>
</g>
<path d="M488 139h20"></path>
</g>
</g>
<path d="M544 139a10 10 0 0 0 10 -10v-98"></path>
<path d="M184 31v158a10 10 0 0 0 10 10"></path>
<g>
<path d="M194 199h0"></path>
<path d="M468 199h76"></path>
<g class="terminal">
<path d="M194 199h0"></path>
<path d="M286 199h0"></path>
<rect x="194" y="188" width="92" height="22" rx="10" ry="10"></rect>
<text x="240" y="203">"HOTSPOT"</text>
</g>
<path d="M286 199h10"></path>
<g>
<path d="M296 199h0"></path>
<path d="M468 199h0"></path>
<path d="M296 199h20"></path>
<g>
<path d="M316 199h0"></path>
<path d="M448 199h0"></path>
<g class="terminal">
<path d="M316 199h0"></path>
<path d="M360 199h0"></path>
<rect x="316" y="188" width="44" height="22" rx="10" ry="10"></rect>
<text x="338" y="203">"="</text>
</g>
<path d="M360 199h10"></path>
<path d="M370 199h10"></path>
<g class="non-terminal">
<path d="M380 199h0"></path>
<path d="M448 199h0"></path>
<rect x="380" y="188" width="68" height="22"></rect>
<a xlink:href="reuse_source.svg"><text x="414" y="203">Source</text>
</a>
</g>
</g>
<path d="M448 199h20"></path>
<path d="M296 199a10 10 0 0 1 10 10v10a10 10 0 0 0 10 10"></path>
<g class="non-terminal">
<path d="M316 229h0"></path>
<path d="M376 229h72"></path>
<rect x="316" y="218" width="60" height="22"></rect>
<a xlink:href="reuse_field.svg"><text x="346" y="233">Field</text>
</a>
</g>
<path d="M448 229a10 10 0 0 0 10 -10v-10a10 10 0 0 1 10 -10"></path>
</g>
</g>
<path d="M544 199a10 10 0 0 0 10 -10v-158"></path>
<path d="M184 31v218a10 10 0 0 0 10 10"></path>
<g>
<path d="M194 259h0"></path>
<path d="M460 259h84"></path>
<g class="terminal">
<path d="M194 259h0"></path>
<path d="M278 259h0"></path>
<rect x="194" y="248" width="84" height="22" rx="10" ry="10"></rect>
<text x="236" y="263">"FRAMES"</text>
</g>
<path d="M278 259h10"></path>
<g>
<path d="M288 259h0"></path>
<path d="M460 259h0"></path>
<path d="M288 259h20"></path>
<g>
<path d="M308 259h0"></path>
<path d="M440 259h0"></path>
<g class="terminal">
<path d="M308 259h0"></path>
<path d="M352 259h0"></path>
<rect x="308" y="248" width="44" height="22" rx="10" ry="10"></rect>
<text x="330" y="263">"="</text>
</g>
<path d="M352 259h10"></path>
<path d="M362 259h10"></path>
<g class="non-terminal">
<path d="M372 259h0"></path>
<path d="M440 259h0"></path>
<rect x="372" y="248" width="68" height="22"></rect>
<a xlink:href="reuse_source.svg"><text x="406" y="263">Source</text>
</a>
</g>
</g>
<path d="M440 259h20"></path>
<path d="M288 259a10 10 0 0 1 10 10v10a10 10 0 0 0 10 10"></path>
<g class="non-terminal">
<path d="M308 289h0"></path>
<path d="M368 289h72"></path>
<rect x="308" y="278" width="60" height="22"></rect>
<a xlink:href="reuse_field.svg"><text x="338" y="293">Field</text>
</a>
</g>
<path d="M440 289a10 10 0 0 0 10 -10v-10a10 10 0 0 1 10 -10"></path>
</g>
</g>
<path d="M544 259a10 10 0 0 0 10 -10v-218"></path>
<path d="M184 31v278a10 10 0 0 0 10 10"></path>
<g>
<path d="M194 319h0"></path>
<path d="M452 319h92"></path>
<g class="terminal">
<path d="M194 319h0"></path>
<path d="M270 319h0"></path>
<rect x="194" y="308" width="76" height="22" rx="10" ry="10"></rect>
<text x="232" y="323">"INPUT"</text>
</g>
<path d="M270 319h10"></path>
<g>
<path d="M280 319h0"></path>
<path d="M452 319h0"></path>
<path d="M280 319h20"></path>
<g>
<path d="M300 319h0"></path>
<path d="M432 319h0"></path>
<g class="terminal">
<path d="M300 319h0"></path>
<path d="M344 319h0"></path>
<rect x="300" y="308" width="44" height="22" rx="10" ry="10"></rect>
<text x="322" y="323">"="</text>
</g>
<path d="M344 319h10"></path>
<path d="M354 319h10"></path>
<g class="non-terminal">
<path d="M364 319h0"></path>
<path d="M432 319h0"></path>
<rect x="364" y="308" width="68" height="22"></rect>
<a xlink:href="reuse_source.svg"><text x="398" y="323">Source</text>
</a>
</g>
</g>
<path d="M432 319h20"></path>
<path d="M280 319a10 10 0 0 1 10 10v10a10 10 0 0 0 10 10"></path>
<g class="non-terminal">
<path d="M300 349h0"></path>
<path d="M360 349h72"></path>
<rect x="300" y="338" width="60" height="22"></rect>
<a xlink:href="reuse_field.svg"><text x="330" y="353">Field</text>
</a>
</g>
<path d="M432 349a10 10 0 0 0 10 -10v-10a10 10 0 0 1 10 -10"></path>
</g>
</g>
<path d="M544 319a10 10 0 0 0 10 -10v-278"></path>
<path d="M184 31v347a10 10 0 0 0 10 10"></path>
<g>
<path d="M194 388h0"></path>
<path d="M544 388h0"></path>
<g class="terminal">
<path d="M194 388h0"></path>
<path d="M270 388h0"></path>
<rect x="194" y="377" width="76" height="22" rx="10" ry="10"></rect>
<text x="232" y="392">"COLOR"</text>
</g>
<path d="M270 388h10"></path>
<g>
<path d="M280 388h0"></path>
<path d="M452 388h0"></path>
<path d="M280 388h20"></path>
<g>
<path d="M300 388h0"></path>
<path d="M432 388h0"></path>
<g class="terminal">
<path d="M300 388h0"></path>
<path d="M344 388h0"></path>
<rect x="300" y="377" width="44" height="22" rx="10" ry="10"></rect>
<text x="322" y="392">"="</text>
</g>
<path d="M344 388h10"></path>
<path d="M354 388h10"></path>
<g class="non-terminal">
<path d="M364 388h0"></path>
<path d="M432 388h0"></path>
<rect x="364" y="377" width="68" height="22"></rect>
<a xlink:href="reuse_source.svg"><text x="398" y="392">Source</text>
</a>
</g>
</g>
<path d="M432 388h20"></path>
<path d="M280 388a10 10 0 0 1 10 10v10a10 10 0 0 0 10 10"></path>
<g class="non-terminal">
<path d="M300 418h0"></path>
<path d="M360 418h72"></path>
<rect x="300" y="407" width="60" height="22"></rect>
<a xlink:href="reuse_field.svg"><text x="330" y="422">Field</text>
</a>
</g>
<path d="M432 418a10 10 0 0 0 10 -10v-10a10 10 0 0 1 10 -10"></path>
</g>
<g>
<path d="M452 388h0"></path>
<path d="M544 388h0"></path>
<path d="M452 388a10 10 0 0 0 10 -10v0a10 10 0 0 1 10 -10"></path>
<g>
<path d="M472 368h52"></path>
</g>
<path d="M524 368a10 10 0 0 1 10 10v0a10 10 0 0 0 10 10"></path>
<path d="M452 388h20"></path>
<g class="terminal">
<path d="M472 388h0"></path>
<path d="M524 388h0"></path>
<rect x="472" y="377" width="52" height="22" rx="10" ry="10"></rect>
<text x="498" y="392">"ON"</text>
</g>
<path d="M524 388h20"></path>
</g>
</g>
<path d="M544 388a10 10 0 0 0 10 -10v-347"></path>
<g class="diagram-text">
<title>take one or more branches, once each, in any order</title>
<path d="M 184 21 h -26 a 4 4 0 0 0 -4 4 v 12 a 4 4 0 0 0 4 4 h 26 z" class="diagram-text"></path>
<text x="169" y="35" class="diagram-text">1+</text>
<path d="M 554 21 h 16 a 4 4 0 0 1 4 4 v 12 a 4 4 0 0 1 -4 4 h -16 z" class="diagram-text"></path>
<path d="M 561 29 a 4 4 0 1 0 6 -1 m 2.75 -1 h -4 v 4 m 0 -3 h 2" style="stroke-width: 1.75"></path>
</g>
</g>
</g>
<path d="M574 31h10"></path>
<path d="M 584 31 h 20 m -10 -10 v 20 m 10 -20 v 20"></path>
</g>
</svg>
