<svg xmlns="http://www.w3.org/2000/svg" xmlns:xlink="http://www.w3.org/1999/xlink" class="railroad-diagram" width="1672" height="139" viewBox="0 0 1672 139">
<defs>
<style type="text/css"><![CDATA[
path {
stroke-width: 3;
stroke: black;
fill: rgba(0,0,0,0);
}
text {
font: bold 14px monospace;
text-anchor: middle;
}
text.diagram-text {
font-size: 12px;
}
a {
fill: blue;
}
text.diagram-arrow {
font-size: 16px;
}
text.label {
text-anchor: start;
}
text.comment {
font: italic 12px monospace;
}
rect {
stroke-width: 3;
stroke: black;
fill: #BCBCBC;
}
path.diagram-text {
stroke-width: 3;
stroke: black;
fill: #BCBCBC;
cursor: help;
}
]]></style>
</defs>
<g transform="translate(.5 .5)">
<path d="M 20 30 v 20 m 10 -20 v 20 m -10 -10 h 20.5"></path>
<path d="M40 40h10"></path>
<g>
<path d="M50 40h0"></path>
<path d="M1622 40h0"></path>
<g class="terminal">
<path d="M50 40h0"></path>
<path d="M118 40h0"></path>
<rect x="50" y="29" width="68" height="22" rx="10" ry="10"></rect>
<text x="84" y="44">"FORM"</text>
</g>
<path d="M118 40h10"></path>
<path d="M128 40h10"></path>
<g class="non-terminal">
<path d="M138 40h0"></path>
<path d="M222 40h0"></path>
<rect x="138" y="29" width="84" height="22"></rect>
<a xlink:href="reuse_formname.svg"><text x="180" y="44">FormName</text>
</a>
</g>
<path d="M222 40h10"></path>
<g>
<path d="M232 40h0"></path>
<path d="M488 40h0"></path>
<path d="M232 40a10 10 0 0 0 10 -10v0a10 10 0 0 1 10 -10"></path>
<g>
<path d="M252 20h216"></path>
</g>
<path d="M468 20a10 10 0 0 1 10 10v0a10 10 0 0 0 10 10"></path>
<path d="M232 40h20"></path>
<g>
<path d="M252 40h0"></path>
<path d="M468 40h0"></path>
<g class="terminal">
<path d="M252 40h0"></path>
<path d="M336 40h0"></path>
<rect x="252" y="29" width="84" height="22" rx="10" ry="10"></rect>
<text x="294" y="44">"TABLES"</text>
</g>
<path d="M336 40h10"></path>
<path d="M346 40h10"></path>
<g>
<path d="M356 40h0"></path>
<path d="M468 40h0"></path>
<path d="M356 40h10"></path>
<g class="non-terminal">
<path d="M366 40h0"></path>
<path d="M458 40h0"></path>
<rect x="366" y="29" width="92" height="22"></rect>
<a xlink:href="reuse_formparam.svg"><text x="412" y="44">FormParam</text>
</a>
</g>
<path d="M458 40h10"></path>
<path d="M366 40a10 10 0 0 0 -10 10v0a10 10 0 0 0 10 10"></path>
<g>
<path d="M366 60h92"></path>
</g>
<path d="M458 60a10 10 0 0 0 10 -10v0a10 10 0 0 0 -10 -10"></path>
</g>
</g>
<path d="M468 40h20"></path>
</g>
<g>
<path d="M488 40h0"></path>
<path d="M736 40h0"></path>
<path d="M488 40a10 10 0 0 0 10 -10v0a10 10 0 0 1 10 -10"></path>
<g>
<path d="M508 20h208"></path>
</g>
<path d="M716 20a10 10 0 0 1 10 10v0a10 10 0 0 0 10 10"></path>
<path d="M488 40h20"></path>
<g>
<path d="M508 40h0"></path>
<path d="M716 40h0"></path>
<g class="terminal">
<path d="M508 40h0"></path>
<path d="M584 40h0"></path>
<rect x="508" y="29" width="76" height="22" rx="10" ry="10"></rect>
<text x="546" y="44">"USING"</text>
</g>
<path d="M584 40h10"></path>
<path d="M594 40h10"></path>
<g>
<path d="M604 40h0"></path>
<path d="M716 40h0"></path>
<path d="M604 40h10"></path>
<g class="non-terminal">
<path d="M614 40h0"></path>
<path d="M706 40h0"></path>
<rect x="614" y="29" width="92" height="22"></rect>
<a xlink:href="reuse_formparam.svg"><text x="660" y="44">FormParam</text>
</a>
</g>
<path d="M706 40h10"></path>
<path d="M614 40a10 10 0 0 0 -10 10v0a10 10 0 0 0 10 10"></path>
<g>
<path d="M614 60h92"></path>
</g>
<path d="M706 60a10 10 0 0 0 10 -10v0a10 10 0 0 0 -10 -10"></path>
</g>
</g>
<path d="M716 40h20"></path>
</g>
<g>
<path d="M736 40h0"></path>
<path d="M1008 40h0"></path>
<path d="M736 40a10 10 0 0 0 10 -10v0a10 10 0 0 1 10 -10"></path>
<g>
<path d="M756 20h232"></path>
</g>
<path d="M988 20a10 10 0 0 1 10 10v0a10 10 0 0 0 10 10"></path>
<path d="M736 40h20"></path>
<g>
<path d="M756 40h0"></path>
<path d="M988 40h0"></path>
<g class="terminal">
<path d="M756 40h0"></path>
<path d="M856 40h0"></path>
<rect x="756" y="29" width="100" height="22" rx="10" ry="10"></rect>
<text x="806" y="44">"CHANGING"</text>
</g>
<path d="M856 40h10"></path>
<path d="M866 40h10"></path>
<g>
<path d="M876 40h0"></path>
<path d="M988 40h0"></path>
<path d="M876 40h10"></path>
<g class="non-terminal">
<path d="M886 40h0"></path>
<path d="M978 40h0"></path>
<rect x="886" y="29" width="92" height="22"></rect>
<a xlink:href="reuse_formparam.svg"><text x="932" y="44">FormParam</text>
</a>
</g>
<path d="M978 40h10"></path>
<path d="M886 40a10 10 0 0 0 -10 10v0a10 10 0 0 0 10 10"></path>
<g>
<path d="M886 60h92"></path>
</g>
<path d="M978 60a10 10 0 0 0 10 -10v0a10 10 0 0 0 -10 -10"></path>
</g>
</g>
<path d="M988 40h20"></path>
</g>
<g>
<path d="M1008 40h0"></path>
<path d="M1622 40h0"></path>
<path d="M1008 40a10 10 0 0 0 10 -10v0a10 10 0 0 1 10 -10"></path>
<g>
<path d="M1028 20h574"></path>
</g>
<path d="M1602 20a10 10 0 0 1 10 10v0a10 10 0 0 0 10 10"></path>
<path d="M1008 40h20"></path>
<g>
<path d="M1028 40h0"></path>
<path d="M1602 40h0"></path>
<g class="terminal">
<path d="M1028 40h0"></path>
<path d="M1120 40h0"></path>
<rect x="1028" y="29" width="92" height="22" rx="10" ry="10"></rect>
<text x="1074" y="44">"RAISING"</text>
</g>
<path d="M1120 40h10"></path>
<path d="M1130 40h10"></path>
<g>
<path d="M1140 40h0"></path>
<path d="M1602 40h0"></path>
<path d="M1140 40h10"></path>
<g>
<path d="M1150 40h0"></path>
<path d="M1592 40h0"></path>
<path d="M1150 40h20"></path>
<g class="non-terminal">
<path d="M1170 40h0"></path>
<path d="M1262 40h310"></path>
<rect x="1170" y="29" width="92" height="22"></rect>
<a xlink:href="reuse_classname.svg"><text x="1216" y="44">ClassName</text>
</a>
</g>
<path d="M1572 40h20"></path>
<path d="M1150 40a10 10 0 0 1 10 10v10a10 10 0 0 0 10 10"></path>
<g>
<path d="M1170 70h0"></path>
<path d="M1572 70h0"></path>
<g class="terminal">
<path d="M1170 70h0"></path>
<path d="M1278 70h0"></path>
<rect x="1170" y="59" width="108" height="22" rx="10" ry="10"></rect>
<text x="1224" y="74">"RESUMABLE"</text>
</g>
<path d="M1278 70h10"></path>
<path d="M1288 70h10"></path>
<g class="terminal">
<path d="M1298 70h0"></path>
<path d="M1350 70h0"></path>
<rect x="1298" y="59" width="52" height="22" rx="10" ry="10"></rect>
<text x="1324" y="74">!"("</text>
</g>
<path d="M1350 70h10"></path>
<path d="M1360 70h10"></path>
<g class="non-terminal">
<path d="M1370 70h0"></path>
<path d="M1462 70h0"></path>
<rect x="1370" y="59" width="92" height="22"></rect>
<a xlink:href="reuse_classname.svg"><text x="1416" y="74">ClassName</text>
</a>
</g>
<path d="M1462 70h10"></path>
<g>
<path d="M1472 70h0"></path>
<path d="M1572 70h0"></path>
<path d="M1472 70h20"></path>
<g class="terminal">
<path d="M1492 70h0"></path>
<path d="M1544 70h8"></path>
<rect x="1492" y="59" width="52" height="22" rx="10" ry="10"></rect>
<text x="1518" y="74">!")"</text>
</g>
<path d="M1552 70h20"></path>
<path d="M1472 70a10 10 0 0 1 10 10v10a10 10 0 0 0 10 10"></path>
<g class="terminal">
<path d="M1492 100h0"></path>
<path d="M1552 100h0"></path>
<rect x="1492" y="89" width="60" height="22" rx="10" ry="10"></rect>
<text x="1522" y="104">!") "</text>
</g>
<path d="M1552 100a10 10 0 0 0 10 -10v-10a10 10 0 0 1 10 -10"></path>
</g>
</g>
<path d="M1572 70a10 10 0 0 0 10 -10v-10a10 10 0 0 1 10 -10"></path>
</g>
<path d="M1592 40h10"></path>
<path d="M1150 40a10 10 0 0 0 -10 10v59a10 10 0 0 0 10 10"></path>
<g>
<path d="M1150 119h442"></path>
</g>
<path d="M1592 119a10 10 0 0 0 10 -10v-59a10 10 0 0 0 -10 -10"></path>
</g>
</g>
<path d="M1602 40h20"></path>
</g>
</g>
<path d="M1622 40h10"></path>
<path d="M 1632 40 h 20 m -10 -10 v 20 m 10 -20 v 20"></path>
</g>
</svg>
