<svg xmlns="http://www.w3.org/2000/svg" xmlns:xlink="http://www.w3.org/1999/xlink" class="railroad-diagram" width="550" height="182" viewBox="0 0 550 182">
<defs>
<style type="text/css"><![CDATA[
path {
stroke-width: 3;
stroke: black;
fill: rgba(0,0,0,0);
}
text {
font: bold 14px monospace;
text-anchor: middle;
}
text.diagram-text {
font-size: 12px;
}
a {
fill: blue;
}
text.diagram-arrow {
font-size: 16px;
}
text.label {
text-anchor: start;
}
text.comment {
font: italic 12px monospace;
}
rect {
stroke-width: 3;
stroke: black;
fill: #BCBCBC;
}
path.diagram-text {
stroke-width: 3;
stroke: black;
fill: #BCBCBC;
cursor: help;
}
]]></style>
</defs>
<g transform="translate(.5 .5)">
<path d="M 20 21 v 20 m 10 -20 v 20 m -10 -10 h 20.5"></path>
<path d="M40 31h10"></path>
<g>
<path d="M50 31h0"></path>
<path d="M500 31h0"></path>
<g class="terminal">
<path d="M50 31h0"></path>
<path d="M134 31h0"></path>
<rect x="50" y="20" width="84" height="22" rx="10" ry="10"></rect>
<text x="92" y="35">"FORMAT"</text>
</g>
<path d="M134 31h10"></path>
<path d="M144 31h10"></path>
<g>
<path d="M154 31h0"></path>
<path d="M500 31h0"></path>
<path d="M184 31h10"></path>
<g class="terminal">
<path d="M194 31h0"></path>
<path d="M270 31h200"></path>
<rect x="194" y="20" width="76" height="22" rx="10" ry="10"></rect>
<text x="232" y="35">"RESET"</text>
</g>
<path d="M470 31h10"></path>
<path d="M184 31v20a10 10 0 0 0 10 10"></path>
<g>
<path d="M194 61h0"></path>
<path d="M470 61h0"></path>
<g class="terminal">
<path d="M194 61h0"></path>
<path d="M318 61h0"></path>
<rect x="194" y="50" width="124" height="22" rx="10" ry="10"></rect>
<text x="256" y="65">"INTENSIFIED"</text>
</g>
<path d="M318 61h10"></path>
<path d="M328 61h10"></path>
<g>
<path d="M338 61h0"></path>
<path d="M470 61h0"></path>
<g class="terminal">
<path d="M338 61h0"></path>
<path d="M382 61h0"></path>
<rect x="338" y="50" width="44" height="22" rx="10" ry="10"></rect>
<text x="360" y="65">"="</text>
</g>
<path d="M382 61h10"></path>
<path d="M392 61h10"></path>
<g class="non-terminal">
<path d="M402 61h0"></path>
<path d="M470 61h0"></path>
<rect x="402" y="50" width="68" height="22"></rect>
<a xlink:href="reuse_source.svg"><text x="436" y="65">Source</text>
</a>
</g>
</g>
</g>
<path d="M470 61a10 10 0 0 0 10 -10v-20"></path>
<path d="M184 31v50a10 10 0 0 0 10 10"></path>
<g>
<path d="M194 91h0"></path>
<path d="M438 91h32"></path>
<g class="terminal">
<path d="M194 91h0"></path>
<path d="M286 91h0"></path>
<rect x="194" y="80" width="92" height="22" rx="10" ry="10"></rect>
<text x="240" y="95">"INVERSE"</text>
</g>
<path d="M286 91h10"></path>
<path d="M296 91h10"></path>
<g>
<path d="M306 91h0"></path>
<path d="M438 91h0"></path>
<g class="terminal">
<path d="M306 91h0"></path>
<path d="M350 91h0"></path>
<rect x="306" y="80" width="44" height="22" rx="10" ry="10"></rect>
<text x="328" y="95">"="</text>
</g>
<path d="M350 91h10"></path>
<path d="M360 91h10"></path>
<g class="non-terminal">
<path d="M370 91h0"></path>
<path d="M438 91h0"></path>
<rect x="370" y="80" width="68" height="22"></rect>
<a xlink:href="reuse_source.svg"><text x="404" y="95">Source</text>
</a>
</g>
</g>
</g>
<path d="M470 91a10 10 0 0 0 10 -10v-50"></path>
<path d="M184 31v80a10 10 0 0 0 10 10"></path>
<g>
<path d="M194 121h0"></path>
<path d="M452 121h18"></path>
<g class="terminal">
<path d="M194 121h0"></path>
<path d="M270 121h0"></path>
<rect x="194" y="110" width="76" height="22" rx="10" ry="10"></rect>
<text x="232" y="125">"COLOR"</text>
</g>
<path d="M270 121h10"></path>
<g>
<path d="M280 121h0"></path>
<path d="M452 121h0"></path>
<path d="M280 121h20"></path>
<g>
<path d="M300 121h0"></path>
<path d="M432 121h0"></path>
<g class="terminal">
<path d="M300 121h0"></path>
<path d="M344 121h0"></path>
<rect x="300" y="110" width="44" height="22" rx="10" ry="10"></rect>
<text x="322" y="125">"="</text>
</g>
<path d="M344 121h10"></path>
<path d="M354 121h10"></path>
<g class="non-terminal">
<path d="M364 121h0"></path>
<path d="M432 121h0"></path>
<rect x="364" y="110" width="68" height="22"></rect>
<a xlink:href="reuse_source.svg"><text x="398" y="125">Source</text>
</a>
</g>
</g>
<path d="M432 121h20"></path>
<path d="M280 121a10 10 0 0 1 10 10v10a10 10 0 0 0 10 10"></path>
<g class="non-terminal">
<path d="M300 151h0"></path>
<path d="M360 151h72"></path>
<rect x="300" y="140" width="60" height="22"></rect>
<a xlink:href="reuse_field.svg"><text x="330" y="155">Field</text>
</a>
</g>
<path d="M432 151a10 10 0 0 0 10 -10v-10a10 10 0 0 1 10 -10"></path>
</g>
</g>
<path d="M470 121a10 10 0 0 0 10 -10v-80"></path>
<g class="diagram-text">
<title>take one or more branches, once each, in any order</title>
<path d="M 184 21 h -26 a 4 4 0 0 0 -4 4 v 12 a 4 4 0 0 0 4 4 h 26 z" class="diagram-text"></path>
<text x="169" y="35" class="diagram-text">1+</text>
<path d="M 480 21 h 16 a 4 4 0 0 1 4 4 v 12 a 4 4 0 0 1 -4 4 h -16 z" class="diagram-text"></path>
<path d="M 487 29 a 4 4 0 1 0 6 -1 m 2.75 -1 h -4 v 4 m 0 -3 h 2" style="stroke-width: 1.75"></path>
</g>
</g>
</g>
<path d="M500 31h10"></path>
<path d="M 510 31 h 20 m -10 -10 v 20 m 10 -20 v 20"></path>
</g>
</svg>
