<svg xmlns="http://www.w3.org/2000/svg" xmlns:xlink="http://www.w3.org/1999/xlink" class="railroad-diagram" width="1772" height="117" viewBox="0 0 1772 117">
<defs>
<style type="text/css"><![CDATA[
path {
stroke-width: 3;
stroke: black;
fill: rgba(0,0,0,0);
}
text {
font: bold 14px monospace;
text-anchor: middle;
}
text.diagram-text {
font-size: 12px;
}
a {
fill: blue;
}
text.diagram-arrow {
font-size: 16px;
}
text.label {
text-anchor: start;
}
text.comment {
font: italic 12px monospace;
}
rect {
stroke-width: 3;
stroke: black;
fill: #BCBCBC;
}
path.diagram-text {
stroke-width: 3;
stroke: black;
fill: #BCBCBC;
cursor: help;
}
]]></style>
</defs>
<g transform="translate(.5 .5)">
<path d="M 20 38 v 20 m 10 -20 v 20 m -10 -10 h 20.5"></path>
<path d="M40 48h10"></path>
<g>
<path d="M50 48h0"></path>
<path d="M1722 48h0"></path>
<g class="terminal">
<path d="M50 48h0"></path>
<path d="M118 48h0"></path>
<rect x="50" y="37" width="68" height="22" rx="10" ry="10"></rect>
<text x="84" y="52">"FORM"</text>
</g>
<path d="M118 48h10"></path>
<path d="M128 48h10"></path>
<g class="non-terminal">
<path d="M138 48h0"></path>
<path d="M222 48h0"></path>
<rect x="138" y="37" width="84" height="22"></rect>
<a xlink:href="reuse_FormName.svg"><text x="180" y="52">FormName</text>
</a>
</g>
<path d="M222 48h10"></path>
<g>
<path d="M232 48h0"></path>
<path d="M638 48h0"></path>
<path d="M232 48a10 10 0 0 0 10 -10v-8a10 10 0 0 1 10 -10"></path>
<g>
<path d="M252 20h366"></path>
</g>
<path d="M618 20a10 10 0 0 1 10 10v8a10 10 0 0 0 10 10"></path>
<path d="M232 48h20"></path>
<g>
<path d="M252 48h0"></path>
<path d="M618 48h0"></path>
<g class="terminal">
<path d="M252 48h0"></path>
<path d="M336 48h0"></path>
<rect x="252" y="37" width="84" height="22" rx="10" ry="10"></rect>
<text x="294" y="52">"TABLES"</text>
</g>
<path d="M336 48h10"></path>
<path d="M346 48h10"></path>
<g>
<path d="M356 48h0"></path>
<path d="M618 48h0"></path>
<path d="M356 48h10"></path>
<g>
<path d="M366 48h0"></path>
<path d="M608 48h0"></path>
<g class="terminal">
<path d="M366 48h0"></path>
<path d="M426 48h0"></path>
<rect x="366" y="37" width="60" height="22" rx="10" ry="10"></rect>
<text x="396" y="52">^\w+$</text>
</g>
<path d="M426 48h10"></path>
<g>
<path d="M436 48h0"></path>
<path d="M608 48h0"></path>
<path d="M436 48a10 10 0 0 0 10 -10v0a10 10 0 0 1 10 -10"></path>
<g>
<path d="M456 28h132"></path>
</g>
<path d="M588 28a10 10 0 0 1 10 10v0a10 10 0 0 0 10 10"></path>
<path d="M436 48h20"></path>
<g>
<path d="M456 48h0"></path>
<path d="M588 48h0"></path>
<path d="M456 48h20"></path>
<g class="non-terminal">
<path d="M476 48h0"></path>
<path d="M528 48h40"></path>
<rect x="476" y="37" width="52" height="22"></rect>
<a xlink:href="reuse_Type.svg"><text x="502" y="52">Type</text>
</a>
</g>
<path d="M568 48h20"></path>
<path d="M456 48a10 10 0 0 1 10 10v10a10 10 0 0 0 10 10"></path>
<g class="non-terminal">
<path d="M476 78h0"></path>
<path d="M568 78h0"></path>
<rect x="476" y="67" width="92" height="22"></rect>
<a xlink:href="reuse_TypeTable.svg"><text x="522" y="82">TypeTable</text>
</a>
</g>
<path d="M568 78a10 10 0 0 0 10 -10v-10a10 10 0 0 1 10 -10"></path>
</g>
<path d="M588 48h20"></path>
</g>
</g>
<path d="M608 48h10"></path>
<path d="M366 48a10 10 0 0 0 -10 10v29a10 10 0 0 0 10 10"></path>
<g>
<path d="M366 97h242"></path>
</g>
<path d="M608 97a10 10 0 0 0 10 -10v-29a10 10 0 0 0 -10 -10"></path>
</g>
</g>
<path d="M618 48h20"></path>
</g>
<g>
<path d="M638 48h0"></path>
<path d="M1036 48h0"></path>
<path d="M638 48a10 10 0 0 0 10 -10v-8a10 10 0 0 1 10 -10"></path>
<g>
<path d="M658 20h358"></path>
</g>
<path d="M1016 20a10 10 0 0 1 10 10v8a10 10 0 0 0 10 10"></path>
<path d="M638 48h20"></path>
<g>
<path d="M658 48h0"></path>
<path d="M1016 48h0"></path>
<g class="terminal">
<path d="M658 48h0"></path>
<path d="M734 48h0"></path>
<rect x="658" y="37" width="76" height="22" rx="10" ry="10"></rect>
<text x="696" y="52">"USING"</text>
</g>
<path d="M734 48h10"></path>
<path d="M744 48h10"></path>
<g>
<path d="M754 48h0"></path>
<path d="M1016 48h0"></path>
<path d="M754 48h10"></path>
<g>
<path d="M764 48h0"></path>
<path d="M1006 48h0"></path>
<g class="terminal">
<path d="M764 48h0"></path>
<path d="M824 48h0"></path>
<rect x="764" y="37" width="60" height="22" rx="10" ry="10"></rect>
<text x="794" y="52">^\w+$</text>
</g>
<path d="M824 48h10"></path>
<g>
<path d="M834 48h0"></path>
<path d="M1006 48h0"></path>
<path d="M834 48a10 10 0 0 0 10 -10v0a10 10 0 0 1 10 -10"></path>
<g>
<path d="M854 28h132"></path>
</g>
<path d="M986 28a10 10 0 0 1 10 10v0a10 10 0 0 0 10 10"></path>
<path d="M834 48h20"></path>
<g>
<path d="M854 48h0"></path>
<path d="M986 48h0"></path>
<path d="M854 48h20"></path>
<g class="non-terminal">
<path d="M874 48h0"></path>
<path d="M926 48h40"></path>
<rect x="874" y="37" width="52" height="22"></rect>
<a xlink:href="reuse_Type.svg"><text x="900" y="52">Type</text>
</a>
</g>
<path d="M966 48h20"></path>
<path d="M854 48a10 10 0 0 1 10 10v10a10 10 0 0 0 10 10"></path>
<g class="non-terminal">
<path d="M874 78h0"></path>
<path d="M966 78h0"></path>
<rect x="874" y="67" width="92" height="22"></rect>
<a xlink:href="reuse_TypeTable.svg"><text x="920" y="82">TypeTable</text>
</a>
</g>
<path d="M966 78a10 10 0 0 0 10 -10v-10a10 10 0 0 1 10 -10"></path>
</g>
<path d="M986 48h20"></path>
</g>
</g>
<path d="M1006 48h10"></path>
<path d="M764 48a10 10 0 0 0 -10 10v29a10 10 0 0 0 10 10"></path>
<g>
<path d="M764 97h242"></path>
</g>
<path d="M1006 97a10 10 0 0 0 10 -10v-29a10 10 0 0 0 -10 -10"></path>
</g>
</g>
<path d="M1016 48h20"></path>
</g>
<g>
<path d="M1036 48h0"></path>
<path d="M1458 48h0"></path>
<path d="M1036 48a10 10 0 0 0 10 -10v-8a10 10 0 0 1 10 -10"></path>
<g>
<path d="M1056 20h382"></path>
</g>
<path d="M1438 20a10 10 0 0 1 10 10v8a10 10 0 0 0 10 10"></path>
<path d="M1036 48h20"></path>
<g>
<path d="M1056 48h0"></path>
<path d="M1438 48h0"></path>
<g class="terminal">
<path d="M1056 48h0"></path>
<path d="M1156 48h0"></path>
<rect x="1056" y="37" width="100" height="22" rx="10" ry="10"></rect>
<text x="1106" y="52">"CHANGING"</text>
</g>
<path d="M1156 48h10"></path>
<path d="M1166 48h10"></path>
<g>
<path d="M1176 48h0"></path>
<path d="M1438 48h0"></path>
<path d="M1176 48h10"></path>
<g>
<path d="M1186 48h0"></path>
<path d="M1428 48h0"></path>
<g class="terminal">
<path d="M1186 48h0"></path>
<path d="M1246 48h0"></path>
<rect x="1186" y="37" width="60" height="22" rx="10" ry="10"></rect>
<text x="1216" y="52">^\w+$</text>
</g>
<path d="M1246 48h10"></path>
<g>
<path d="M1256 48h0"></path>
<path d="M1428 48h0"></path>
<path d="M1256 48a10 10 0 0 0 10 -10v0a10 10 0 0 1 10 -10"></path>
<g>
<path d="M1276 28h132"></path>
</g>
<path d="M1408 28a10 10 0 0 1 10 10v0a10 10 0 0 0 10 10"></path>
<path d="M1256 48h20"></path>
<g>
<path d="M1276 48h0"></path>
<path d="M1408 48h0"></path>
<path d="M1276 48h20"></path>
<g class="non-terminal">
<path d="M1296 48h0"></path>
<path d="M1348 48h40"></path>
<rect x="1296" y="37" width="52" height="22"></rect>
<a xlink:href="reuse_Type.svg"><text x="1322" y="52">Type</text>
</a>
</g>
<path d="M1388 48h20"></path>
<path d="M1276 48a10 10 0 0 1 10 10v10a10 10 0 0 0 10 10"></path>
<g class="non-terminal">
<path d="M1296 78h0"></path>
<path d="M1388 78h0"></path>
<rect x="1296" y="67" width="92" height="22"></rect>
<a xlink:href="reuse_TypeTable.svg"><text x="1342" y="82">TypeTable</text>
</a>
</g>
<path d="M1388 78a10 10 0 0 0 10 -10v-10a10 10 0 0 1 10 -10"></path>
</g>
<path d="M1408 48h20"></path>
</g>
</g>
<path d="M1428 48h10"></path>
<path d="M1186 48a10 10 0 0 0 -10 10v29a10 10 0 0 0 10 10"></path>
<g>
<path d="M1186 97h242"></path>
</g>
<path d="M1428 97a10 10 0 0 0 10 -10v-29a10 10 0 0 0 -10 -10"></path>
</g>
</g>
<path d="M1438 48h20"></path>
</g>
<g>
<path d="M1458 48h0"></path>
<path d="M1722 48h0"></path>
<path d="M1458 48a10 10 0 0 0 10 -10v0a10 10 0 0 1 10 -10"></path>
<g>
<path d="M1478 28h224"></path>
</g>
<path d="M1702 28a10 10 0 0 1 10 10v0a10 10 0 0 0 10 10"></path>
<path d="M1458 48h20"></path>
<g>
<path d="M1478 48h0"></path>
<path d="M1702 48h0"></path>
<g class="terminal">
<path d="M1478 48h0"></path>
<path d="M1570 48h0"></path>
<rect x="1478" y="37" width="92" height="22" rx="10" ry="10"></rect>
<text x="1524" y="52">"RAISING"</text>
</g>
<path d="M1570 48h10"></path>
<path d="M1580 48h10"></path>
<g>
<path d="M1590 48h0"></path>
<path d="M1702 48h0"></path>
<path d="M1590 48h10"></path>
<g class="non-terminal">
<path d="M1600 48h0"></path>
<path d="M1692 48h0"></path>
<rect x="1600" y="37" width="92" height="22"></rect>
<a xlink:href="reuse_ClassName.svg"><text x="1646" y="52">ClassName</text>
</a>
</g>
<path d="M1692 48h10"></path>
<path d="M1600 48a10 10 0 0 0 -10 10v0a10 10 0 0 0 10 10"></path>
<g>
<path d="M1600 68h92"></path>
</g>
<path d="M1692 68a10 10 0 0 0 10 -10v0a10 10 0 0 0 -10 -10"></path>
</g>
</g>
<path d="M1702 48h20"></path>
</g>
</g>
<path d="M1722 48h10"></path>
<path d="M 1732 48 h 20 m -10 -10 v 20 m 10 -20 v 20"></path>
</g>
</svg>
