<svg xmlns="http://www.w3.org/2000/svg" xmlns:xlink="http://www.w3.org/1999/xlink" class="railroad-diagram" width="624" height="380" viewBox="0 0 624 380">
<defs>
<style type="text/css"><![CDATA[
path {
stroke-width: 3;
stroke: black;
fill: rgba(0,0,0,0);
}
text {
font: bold 14px monospace;
text-anchor: middle;
}
text.diagram-text {
font-size: 12px;
}
a {
fill: blue;
}
text.diagram-arrow {
font-size: 16px;
}
text.label {
text-anchor: start;
}
text.comment {
font: italic 12px monospace;
}
rect {
stroke-width: 3;
stroke: black;
fill: #BCBCBC;
}
path.diagram-text {
stroke-width: 3;
stroke: black;
fill: #BCBCBC;
cursor: help;
}
]]></style>
</defs>
<g transform="translate(.5 .5)">
<path d="M 20 21 v 20 m 10 -20 v 20 m -10 -10 h 20.5"></path>
<path d="M40 31h10"></path>
<g>
<path d="M50 31h0"></path>
<path d="M574 31h0"></path>
<g class="terminal">
<path d="M50 31h0"></path>
<path d="M134 31h0"></path>
<rect x="50" y="20" width="84" height="22" rx="10" ry="10"></rect>
<text x="92" y="35">"FORMAT"</text>
</g>
<path d="M134 31h10"></path>
<path d="M144 31h10"></path>
<g>
<path d="M154 31h0"></path>
<path d="M574 31h0"></path>
<path d="M184 31h10"></path>
<g class="terminal">
<path d="M194 31h0"></path>
<path d="M270 31h274"></path>
<rect x="194" y="20" width="76" height="22" rx="10" ry="10"></rect>
<text x="232" y="35">"RESET"</text>
</g>
<path d="M544 31h10"></path>
<path d="M184 31v29a10 10 0 0 0 10 10"></path>
<g>
<path d="M194 70h0"></path>
<path d="M540 70h4"></path>
<g class="terminal">
<path d="M194 70h0"></path>
<path d="M318 70h0"></path>
<rect x="194" y="59" width="124" height="22" rx="10" ry="10"></rect>
<text x="256" y="74">"INTENSIFIED"</text>
</g>
<path d="M318 70h10"></path>
<g>
<path d="M328 70h0"></path>
<path d="M540 70h0"></path>
<path d="M328 70a10 10 0 0 0 10 -10v0a10 10 0 0 1 10 -10"></path>
<g>
<path d="M348 50h172"></path>
</g>
<path d="M520 50a10 10 0 0 1 10 10v0a10 10 0 0 0 10 10"></path>
<path d="M328 70h20"></path>
<g>
<path d="M348 70h0"></path>
<path d="M520 70h0"></path>
<path d="M348 70h20"></path>
<g>
<path d="M368 70h0"></path>
<path d="M500 70h0"></path>
<g class="terminal">
<path d="M368 70h0"></path>
<path d="M412 70h0"></path>
<rect x="368" y="59" width="44" height="22" rx="10" ry="10"></rect>
<text x="390" y="74">"="</text>
</g>
<path d="M412 70h10"></path>
<path d="M422 70h10"></path>
<g class="non-terminal">
<path d="M432 70h0"></path>
<path d="M500 70h0"></path>
<rect x="432" y="59" width="68" height="22"></rect>
<a xlink:href="reuse_source.svg"><text x="466" y="74">Source</text>
</a>
</g>
</g>
<path d="M500 70h20"></path>
<path d="M348 70a10 10 0 0 1 10 10v10a10 10 0 0 0 10 10"></path>
<g class="non-terminal">
<path d="M368 100h0"></path>
<path d="M428 100h72"></path>
<rect x="368" y="89" width="60" height="22"></rect>
<a xlink:href="reuse_field.svg"><text x="398" y="104">Field</text>
</a>
</g>
<path d="M500 100a10 10 0 0 0 10 -10v-10a10 10 0 0 1 10 -10"></path>
</g>
<path d="M520 70h20"></path>
</g>
</g>
<path d="M544 70a10 10 0 0 0 10 -10v-29"></path>
<path d="M184 31v89a10 10 0 0 0 10 10"></path>
<g>
<path d="M194 130h0"></path>
<path d="M468 130h76"></path>
<g class="terminal">
<path d="M194 130h0"></path>
<path d="M286 130h0"></path>
<rect x="194" y="119" width="92" height="22" rx="10" ry="10"></rect>
<text x="240" y="134">"INVERSE"</text>
</g>
<path d="M286 130h10"></path>
<g>
<path d="M296 130h0"></path>
<path d="M468 130h0"></path>
<path d="M296 130h20"></path>
<g>
<path d="M316 130h0"></path>
<path d="M448 130h0"></path>
<g class="terminal">
<path d="M316 130h0"></path>
<path d="M360 130h0"></path>
<rect x="316" y="119" width="44" height="22" rx="10" ry="10"></rect>
<text x="338" y="134">"="</text>
</g>
<path d="M360 130h10"></path>
<path d="M370 130h10"></path>
<g class="non-terminal">
<path d="M380 130h0"></path>
<path d="M448 130h0"></path>
<rect x="380" y="119" width="68" height="22"></rect>
<a xlink:href="reuse_source.svg"><text x="414" y="134">Source</text>
</a>
</g>
</g>
<path d="M448 130h20"></path>
<path d="M296 130a10 10 0 0 1 10 10v10a10 10 0 0 0 10 10"></path>
<g class="non-terminal">
<path d="M316 160h0"></path>
<path d="M376 160h72"></path>
<rect x="316" y="149" width="60" height="22"></rect>
<a xlink:href="reuse_field.svg"><text x="346" y="164">Field</text>
</a>
</g>
<path d="M448 160a10 10 0 0 0 10 -10v-10a10 10 0 0 1 10 -10"></path>
</g>
</g>
<path d="M544 130a10 10 0 0 0 10 -10v-89"></path>
<path d="M184 31v149a10 10 0 0 0 10 10"></path>
<g>
<path d="M194 190h0"></path>
<path d="M468 190h76"></path>
<g class="terminal">
<path d="M194 190h0"></path>
<path d="M286 190h0"></path>
<rect x="194" y="179" width="92" height="22" rx="10" ry="10"></rect>
<text x="240" y="194">"HOTSPOT"</text>
</g>
<path d="M286 190h10"></path>
<g>
<path d="M296 190h0"></path>
<path d="M468 190h0"></path>
<path d="M296 190h20"></path>
<g>
<path d="M316 190h0"></path>
<path d="M448 190h0"></path>
<g class="terminal">
<path d="M316 190h0"></path>
<path d="M360 190h0"></path>
<rect x="316" y="179" width="44" height="22" rx="10" ry="10"></rect>
<text x="338" y="194">"="</text>
</g>
<path d="M360 190h10"></path>
<path d="M370 190h10"></path>
<g class="non-terminal">
<path d="M380 190h0"></path>
<path d="M448 190h0"></path>
<rect x="380" y="179" width="68" height="22"></rect>
<a xlink:href="reuse_source.svg"><text x="414" y="194">Source</text>
</a>
</g>
</g>
<path d="M448 190h20"></path>
<path d="M296 190a10 10 0 0 1 10 10v10a10 10 0 0 0 10 10"></path>
<g class="non-terminal">
<path d="M316 220h0"></path>
<path d="M376 220h72"></path>
<rect x="316" y="209" width="60" height="22"></rect>
<a xlink:href="reuse_field.svg"><text x="346" y="224">Field</text>
</a>
</g>
<path d="M448 220a10 10 0 0 0 10 -10v-10a10 10 0 0 1 10 -10"></path>
</g>
</g>
<path d="M544 190a10 10 0 0 0 10 -10v-149"></path>
<path d="M184 31v209a10 10 0 0 0 10 10"></path>
<g>
<path d="M194 250h0"></path>
<path d="M452 250h92"></path>
<g class="terminal">
<path d="M194 250h0"></path>
<path d="M270 250h0"></path>
<rect x="194" y="239" width="76" height="22" rx="10" ry="10"></rect>
<text x="232" y="254">"INPUT"</text>
</g>
<path d="M270 250h10"></path>
<g>
<path d="M280 250h0"></path>
<path d="M452 250h0"></path>
<path d="M280 250h20"></path>
<g>
<path d="M300 250h0"></path>
<path d="M432 250h0"></path>
<g class="terminal">
<path d="M300 250h0"></path>
<path d="M344 250h0"></path>
<rect x="300" y="239" width="44" height="22" rx="10" ry="10"></rect>
<text x="322" y="254">"="</text>
</g>
<path d="M344 250h10"></path>
<path d="M354 250h10"></path>
<g class="non-terminal">
<path d="M364 250h0"></path>
<path d="M432 250h0"></path>
<rect x="364" y="239" width="68" height="22"></rect>
<a xlink:href="reuse_source.svg"><text x="398" y="254">Source</text>
</a>
</g>
</g>
<path d="M432 250h20"></path>
<path d="M280 250a10 10 0 0 1 10 10v10a10 10 0 0 0 10 10"></path>
<g class="non-terminal">
<path d="M300 280h0"></path>
<path d="M360 280h72"></path>
<rect x="300" y="269" width="60" height="22"></rect>
<a xlink:href="reuse_field.svg"><text x="330" y="284">Field</text>
</a>
</g>
<path d="M432 280a10 10 0 0 0 10 -10v-10a10 10 0 0 1 10 -10"></path>
</g>
</g>
<path d="M544 250a10 10 0 0 0 10 -10v-209"></path>
<path d="M184 31v278a10 10 0 0 0 10 10"></path>
<g>
<path d="M194 319h0"></path>
<path d="M544 319h0"></path>
<g class="terminal">
<path d="M194 319h0"></path>
<path d="M270 319h0"></path>
<rect x="194" y="308" width="76" height="22" rx="10" ry="10"></rect>
<text x="232" y="323">"COLOR"</text>
</g>
<path d="M270 319h10"></path>
<g>
<path d="M280 319h0"></path>
<path d="M452 319h0"></path>
<path d="M280 319h20"></path>
<g>
<path d="M300 319h0"></path>
<path d="M432 319h0"></path>
<g class="terminal">
<path d="M300 319h0"></path>
<path d="M344 319h0"></path>
<rect x="300" y="308" width="44" height="22" rx="10" ry="10"></rect>
<text x="322" y="323">"="</text>
</g>
<path d="M344 319h10"></path>
<path d="M354 319h10"></path>
<g class="non-terminal">
<path d="M364 319h0"></path>
<path d="M432 319h0"></path>
<rect x="364" y="308" width="68" height="22"></rect>
<a xlink:href="reuse_source.svg"><text x="398" y="323">Source</text>
</a>
</g>
</g>
<path d="M432 319h20"></path>
<path d="M280 319a10 10 0 0 1 10 10v10a10 10 0 0 0 10 10"></path>
<g class="non-terminal">
<path d="M300 349h0"></path>
<path d="M360 349h72"></path>
<rect x="300" y="338" width="60" height="22"></rect>
<a xlink:href="reuse_field.svg"><text x="330" y="353">Field</text>
</a>
</g>
<path d="M432 349a10 10 0 0 0 10 -10v-10a10 10 0 0 1 10 -10"></path>
</g>
<g>
<path d="M452 319h0"></path>
<path d="M544 319h0"></path>
<path d="M452 319a10 10 0 0 0 10 -10v0a10 10 0 0 1 10 -10"></path>
<g>
<path d="M472 299h52"></path>
</g>
<path d="M524 299a10 10 0 0 1 10 10v0a10 10 0 0 0 10 10"></path>
<path d="M452 319h20"></path>
<g class="terminal">
<path d="M472 319h0"></path>
<path d="M524 319h0"></path>
<rect x="472" y="308" width="52" height="22" rx="10" ry="10"></rect>
<text x="498" y="323">"ON"</text>
</g>
<path d="M524 319h20"></path>
</g>
</g>
<path d="M544 319a10 10 0 0 0 10 -10v-278"></path>
<g class="diagram-text">
<title>take one or more branches, once each, in any order</title>
<path d="M 184 21 h -26 a 4 4 0 0 0 -4 4 v 12 a 4 4 0 0 0 4 4 h 26 z" class="diagram-text"></path>
<text x="169" y="35" class="diagram-text">1+</text>
<path d="M 554 21 h 16 a 4 4 0 0 1 4 4 v 12 a 4 4 0 0 1 -4 4 h -16 z" class="diagram-text"></path>
<path d="M 561 29 a 4 4 0 1 0 6 -1 m 2.75 -1 h -4 v 4 m 0 -3 h 2" style="stroke-width: 1.75"></path>
</g>
</g>
</g>
<path d="M574 31h10"></path>
<path d="M 584 31 h 20 m -10 -10 v 20 m 10 -20 v 20"></path>
</g>
</svg>
