<svg xmlns="http://www.w3.org/2000/svg" xmlns:xlink="http://www.w3.org/1999/xlink" class="railroad-diagram" width="2006" height="117" viewBox="0 0 2006 117">
<defs>
<style type="text/css"><![CDATA[
path {
stroke-width: 3;
stroke: black;
fill: rgba(0,0,0,0);
}
text {
font: bold 14px monospace;
text-anchor: middle;
}
text.diagram-text {
font-size: 12px;
}
a {
fill: blue;
}
text.diagram-arrow {
font-size: 16px;
}
text.label {
text-anchor: start;
}
text.comment {
font: italic 12px monospace;
}
rect {
stroke-width: 3;
stroke: black;
fill: #BCBCBC;
}
path.diagram-text {
stroke-width: 3;
stroke: black;
fill: #BCBCBC;
cursor: help;
}
]]></style>
</defs>
<g transform="translate(.5 .5)">
<path d="M 20 38 v 20 m 10 -20 v 20 m -10 -10 h 20.5"></path>
<path d="M40 48h10"></path>
<g>
<path d="M50 48h0"></path>
<path d="M1956 48h0"></path>
<g class="terminal">
<path d="M50 48h0"></path>
<path d="M118 48h0"></path>
<rect x="50" y="37" width="68" height="22" rx="10" ry="10"></rect>
<text x="84" y="52">"FORM"</text>
</g>
<path d="M118 48h10"></path>
<path d="M128 48h10"></path>
<g class="non-terminal">
<path d="M138 48h0"></path>
<path d="M222 48h0"></path>
<rect x="138" y="37" width="84" height="22"></rect>
<a xlink:href="reuse_formname.svg"><text x="180" y="52">FormName</text>
</a>
</g>
<path d="M222 48h10"></path>
<g>
<path d="M232 48h0"></path>
<path d="M716 48h0"></path>
<path d="M232 48a10 10 0 0 0 10 -10v-8a10 10 0 0 1 10 -10"></path>
<g>
<path d="M252 20h444"></path>
</g>
<path d="M696 20a10 10 0 0 1 10 10v8a10 10 0 0 0 10 10"></path>
<path d="M232 48h20"></path>
<g>
<path d="M252 48h0"></path>
<path d="M696 48h0"></path>
<g class="terminal">
<path d="M252 48h0"></path>
<path d="M336 48h0"></path>
<rect x="252" y="37" width="84" height="22" rx="10" ry="10"></rect>
<text x="294" y="52">"TABLES"</text>
</g>
<path d="M336 48h10"></path>
<path d="M346 48h10"></path>
<g>
<path d="M356 48h0"></path>
<path d="M696 48h0"></path>
<path d="M356 48h10"></path>
<g>
<path d="M366 48h0"></path>
<path d="M686 48h0"></path>
<g>
<path d="M366 48h0"></path>
<path d="M514 48h0"></path>
<path d="M366 48h20"></path>
<g class="terminal">
<path d="M386 48h0"></path>
<path d="M446 48h48"></path>
<rect x="386" y="37" width="60" height="22" rx="10" ry="10"></rect>
<text x="416" y="52">^\w+$</text>
</g>
<path d="M494 48h20"></path>
<path d="M366 48a10 10 0 0 1 10 10v10a10 10 0 0 0 10 10"></path>
<g class="non-terminal">
<path d="M386 78h0"></path>
<path d="M494 78h0"></path>
<rect x="386" y="67" width="108" height="22"></rect>
<a xlink:href="reuse_passbyvalue.svg"><text x="440" y="82">PassByValue</text>
</a>
</g>
<path d="M494 78a10 10 0 0 0 10 -10v-10a10 10 0 0 1 10 -10"></path>
</g>
<g>
<path d="M514 48h0"></path>
<path d="M686 48h0"></path>
<path d="M514 48a10 10 0 0 0 10 -10v0a10 10 0 0 1 10 -10"></path>
<g>
<path d="M534 28h132"></path>
</g>
<path d="M666 28a10 10 0 0 1 10 10v0a10 10 0 0 0 10 10"></path>
<path d="M514 48h20"></path>
<g>
<path d="M534 48h0"></path>
<path d="M666 48h0"></path>
<path d="M534 48h20"></path>
<g class="non-terminal">
<path d="M554 48h0"></path>
<path d="M606 48h40"></path>
<rect x="554" y="37" width="52" height="22"></rect>
<a xlink:href="reuse_type.svg"><text x="580" y="52">Type</text>
</a>
</g>
<path d="M646 48h20"></path>
<path d="M534 48a10 10 0 0 1 10 10v10a10 10 0 0 0 10 10"></path>
<g class="non-terminal">
<path d="M554 78h0"></path>
<path d="M646 78h0"></path>
<rect x="554" y="67" width="92" height="22"></rect>
<a xlink:href="reuse_typetable.svg"><text x="600" y="82">TypeTable</text>
</a>
</g>
<path d="M646 78a10 10 0 0 0 10 -10v-10a10 10 0 0 1 10 -10"></path>
</g>
<path d="M666 48h20"></path>
</g>
</g>
<path d="M686 48h10"></path>
<path d="M366 48a10 10 0 0 0 -10 10v29a10 10 0 0 0 10 10"></path>
<g>
<path d="M366 97h320"></path>
</g>
<path d="M686 97a10 10 0 0 0 10 -10v-29a10 10 0 0 0 -10 -10"></path>
</g>
</g>
<path d="M696 48h20"></path>
</g>
<g>
<path d="M716 48h0"></path>
<path d="M1192 48h0"></path>
<path d="M716 48a10 10 0 0 0 10 -10v-8a10 10 0 0 1 10 -10"></path>
<g>
<path d="M736 20h436"></path>
</g>
<path d="M1172 20a10 10 0 0 1 10 10v8a10 10 0 0 0 10 10"></path>
<path d="M716 48h20"></path>
<g>
<path d="M736 48h0"></path>
<path d="M1172 48h0"></path>
<g class="terminal">
<path d="M736 48h0"></path>
<path d="M812 48h0"></path>
<rect x="736" y="37" width="76" height="22" rx="10" ry="10"></rect>
<text x="774" y="52">"USING"</text>
</g>
<path d="M812 48h10"></path>
<path d="M822 48h10"></path>
<g>
<path d="M832 48h0"></path>
<path d="M1172 48h0"></path>
<path d="M832 48h10"></path>
<g>
<path d="M842 48h0"></path>
<path d="M1162 48h0"></path>
<g>
<path d="M842 48h0"></path>
<path d="M990 48h0"></path>
<path d="M842 48h20"></path>
<g class="terminal">
<path d="M862 48h0"></path>
<path d="M922 48h48"></path>
<rect x="862" y="37" width="60" height="22" rx="10" ry="10"></rect>
<text x="892" y="52">^\w+$</text>
</g>
<path d="M970 48h20"></path>
<path d="M842 48a10 10 0 0 1 10 10v10a10 10 0 0 0 10 10"></path>
<g class="non-terminal">
<path d="M862 78h0"></path>
<path d="M970 78h0"></path>
<rect x="862" y="67" width="108" height="22"></rect>
<a xlink:href="reuse_passbyvalue.svg"><text x="916" y="82">PassByValue</text>
</a>
</g>
<path d="M970 78a10 10 0 0 0 10 -10v-10a10 10 0 0 1 10 -10"></path>
</g>
<g>
<path d="M990 48h0"></path>
<path d="M1162 48h0"></path>
<path d="M990 48a10 10 0 0 0 10 -10v0a10 10 0 0 1 10 -10"></path>
<g>
<path d="M1010 28h132"></path>
</g>
<path d="M1142 28a10 10 0 0 1 10 10v0a10 10 0 0 0 10 10"></path>
<path d="M990 48h20"></path>
<g>
<path d="M1010 48h0"></path>
<path d="M1142 48h0"></path>
<path d="M1010 48h20"></path>
<g class="non-terminal">
<path d="M1030 48h0"></path>
<path d="M1082 48h40"></path>
<rect x="1030" y="37" width="52" height="22"></rect>
<a xlink:href="reuse_type.svg"><text x="1056" y="52">Type</text>
</a>
</g>
<path d="M1122 48h20"></path>
<path d="M1010 48a10 10 0 0 1 10 10v10a10 10 0 0 0 10 10"></path>
<g class="non-terminal">
<path d="M1030 78h0"></path>
<path d="M1122 78h0"></path>
<rect x="1030" y="67" width="92" height="22"></rect>
<a xlink:href="reuse_typetable.svg"><text x="1076" y="82">TypeTable</text>
</a>
</g>
<path d="M1122 78a10 10 0 0 0 10 -10v-10a10 10 0 0 1 10 -10"></path>
</g>
<path d="M1142 48h20"></path>
</g>
</g>
<path d="M1162 48h10"></path>
<path d="M842 48a10 10 0 0 0 -10 10v29a10 10 0 0 0 10 10"></path>
<g>
<path d="M842 97h320"></path>
</g>
<path d="M1162 97a10 10 0 0 0 10 -10v-29a10 10 0 0 0 -10 -10"></path>
</g>
</g>
<path d="M1172 48h20"></path>
</g>
<g>
<path d="M1192 48h0"></path>
<path d="M1692 48h0"></path>
<path d="M1192 48a10 10 0 0 0 10 -10v-8a10 10 0 0 1 10 -10"></path>
<g>
<path d="M1212 20h460"></path>
</g>
<path d="M1672 20a10 10 0 0 1 10 10v8a10 10 0 0 0 10 10"></path>
<path d="M1192 48h20"></path>
<g>
<path d="M1212 48h0"></path>
<path d="M1672 48h0"></path>
<g class="terminal">
<path d="M1212 48h0"></path>
<path d="M1312 48h0"></path>
<rect x="1212" y="37" width="100" height="22" rx="10" ry="10"></rect>
<text x="1262" y="52">"CHANGING"</text>
</g>
<path d="M1312 48h10"></path>
<path d="M1322 48h10"></path>
<g>
<path d="M1332 48h0"></path>
<path d="M1672 48h0"></path>
<path d="M1332 48h10"></path>
<g>
<path d="M1342 48h0"></path>
<path d="M1662 48h0"></path>
<g>
<path d="M1342 48h0"></path>
<path d="M1490 48h0"></path>
<path d="M1342 48h20"></path>
<g class="terminal">
<path d="M1362 48h0"></path>
<path d="M1422 48h48"></path>
<rect x="1362" y="37" width="60" height="22" rx="10" ry="10"></rect>
<text x="1392" y="52">^\w+$</text>
</g>
<path d="M1470 48h20"></path>
<path d="M1342 48a10 10 0 0 1 10 10v10a10 10 0 0 0 10 10"></path>
<g class="non-terminal">
<path d="M1362 78h0"></path>
<path d="M1470 78h0"></path>
<rect x="1362" y="67" width="108" height="22"></rect>
<a xlink:href="reuse_passbyvalue.svg"><text x="1416" y="82">PassByValue</text>
</a>
</g>
<path d="M1470 78a10 10 0 0 0 10 -10v-10a10 10 0 0 1 10 -10"></path>
</g>
<g>
<path d="M1490 48h0"></path>
<path d="M1662 48h0"></path>
<path d="M1490 48a10 10 0 0 0 10 -10v0a10 10 0 0 1 10 -10"></path>
<g>
<path d="M1510 28h132"></path>
</g>
<path d="M1642 28a10 10 0 0 1 10 10v0a10 10 0 0 0 10 10"></path>
<path d="M1490 48h20"></path>
<g>
<path d="M1510 48h0"></path>
<path d="M1642 48h0"></path>
<path d="M1510 48h20"></path>
<g class="non-terminal">
<path d="M1530 48h0"></path>
<path d="M1582 48h40"></path>
<rect x="1530" y="37" width="52" height="22"></rect>
<a xlink:href="reuse_type.svg"><text x="1556" y="52">Type</text>
</a>
</g>
<path d="M1622 48h20"></path>
<path d="M1510 48a10 10 0 0 1 10 10v10a10 10 0 0 0 10 10"></path>
<g class="non-terminal">
<path d="M1530 78h0"></path>
<path d="M1622 78h0"></path>
<rect x="1530" y="67" width="92" height="22"></rect>
<a xlink:href="reuse_typetable.svg"><text x="1576" y="82">TypeTable</text>
</a>
</g>
<path d="M1622 78a10 10 0 0 0 10 -10v-10a10 10 0 0 1 10 -10"></path>
</g>
<path d="M1642 48h20"></path>
</g>
</g>
<path d="M1662 48h10"></path>
<path d="M1342 48a10 10 0 0 0 -10 10v29a10 10 0 0 0 10 10"></path>
<g>
<path d="M1342 97h320"></path>
</g>
<path d="M1662 97a10 10 0 0 0 10 -10v-29a10 10 0 0 0 -10 -10"></path>
</g>
</g>
<path d="M1672 48h20"></path>
</g>
<g>
<path d="M1692 48h0"></path>
<path d="M1956 48h0"></path>
<path d="M1692 48a10 10 0 0 0 10 -10v0a10 10 0 0 1 10 -10"></path>
<g>
<path d="M1712 28h224"></path>
</g>
<path d="M1936 28a10 10 0 0 1 10 10v0a10 10 0 0 0 10 10"></path>
<path d="M1692 48h20"></path>
<g>
<path d="M1712 48h0"></path>
<path d="M1936 48h0"></path>
<g class="terminal">
<path d="M1712 48h0"></path>
<path d="M1804 48h0"></path>
<rect x="1712" y="37" width="92" height="22" rx="10" ry="10"></rect>
<text x="1758" y="52">"RAISING"</text>
</g>
<path d="M1804 48h10"></path>
<path d="M1814 48h10"></path>
<g>
<path d="M1824 48h0"></path>
<path d="M1936 48h0"></path>
<path d="M1824 48h10"></path>
<g class="non-terminal">
<path d="M1834 48h0"></path>
<path d="M1926 48h0"></path>
<rect x="1834" y="37" width="92" height="22"></rect>
<a xlink:href="reuse_classname.svg"><text x="1880" y="52">ClassName</text>
</a>
</g>
<path d="M1926 48h10"></path>
<path d="M1834 48a10 10 0 0 0 -10 10v0a10 10 0 0 0 10 10"></path>
<g>
<path d="M1834 68h92"></path>
</g>
<path d="M1926 68a10 10 0 0 0 10 -10v0a10 10 0 0 0 -10 -10"></path>
</g>
</g>
<path d="M1936 48h20"></path>
</g>
</g>
<path d="M1956 48h10"></path>
<path d="M 1966 48 h 20 m -10 -10 v 20 m 10 -20 v 20"></path>
</g>
</svg>
