<svg xmlns="http://www.w3.org/2000/svg" xmlns:xlink="http://www.w3.org/1999/xlink" class="railroad-diagram" width="580" height="362" viewBox="0 0 580 362">
<defs>
<style type="text/css"><![CDATA[
path {
stroke-width: 3;
stroke: black;
fill: rgba(0,0,0,0);
}
text {
font: bold 14px monospace;
text-anchor: middle;
}
text.diagram-text {
font-size: 12px;
}
a {
fill: blue;
}
text.diagram-arrow {
font-size: 16px;
}
text.label {
text-anchor: start;
}
text.comment {
font: italic 12px monospace;
}
rect {
stroke-width: 3;
stroke: black;
fill: #BCBCBC;
}
path.diagram-text {
stroke-width: 3;
stroke: black;
fill: #BCBCBC;
cursor: help;
}
]]></style>
</defs>
<g transform="translate(.5 .5)">
<path d="M 20 21 v 20 m 10 -20 v 20 m -10 -10 h 20.5"></path>
<path d="M40 31h10"></path>
<g>
<path d="M50 31h0"></path>
<path d="M530 31h0"></path>
<g class="terminal">
<path d="M50 31h0"></path>
<path d="M134 31h0"></path>
<rect x="50" y="20" width="84" height="22" rx="10" ry="10"></rect>
<text x="92" y="35">"FORMAT"</text>
</g>
<path d="M134 31h10"></path>
<path d="M144 31h10"></path>
<g>
<path d="M154 31h0"></path>
<path d="M530 31h0"></path>
<path d="M184 31h10"></path>
<g class="terminal">
<path d="M194 31h0"></path>
<path d="M270 31h230"></path>
<rect x="194" y="20" width="76" height="22" rx="10" ry="10"></rect>
<text x="232" y="35">"RESET"</text>
</g>
<path d="M500 31h10"></path>
<path d="M184 31v20a10 10 0 0 0 10 10"></path>
<g>
<path d="M194 61h0"></path>
<path d="M500 61h0"></path>
<g class="terminal">
<path d="M194 61h0"></path>
<path d="M318 61h0"></path>
<rect x="194" y="50" width="124" height="22" rx="10" ry="10"></rect>
<text x="256" y="65">"INTENSIFIED"</text>
</g>
<path d="M318 61h10"></path>
<g>
<path d="M328 61h0"></path>
<path d="M500 61h0"></path>
<path d="M328 61h20"></path>
<g>
<path d="M348 61h0"></path>
<path d="M480 61h0"></path>
<g class="terminal">
<path d="M348 61h0"></path>
<path d="M392 61h0"></path>
<rect x="348" y="50" width="44" height="22" rx="10" ry="10"></rect>
<text x="370" y="65">"="</text>
</g>
<path d="M392 61h10"></path>
<path d="M402 61h10"></path>
<g class="non-terminal">
<path d="M412 61h0"></path>
<path d="M480 61h0"></path>
<rect x="412" y="50" width="68" height="22"></rect>
<a xlink:href="reuse_source.svg"><text x="446" y="65">Source</text>
</a>
</g>
</g>
<path d="M480 61h20"></path>
<path d="M328 61a10 10 0 0 1 10 10v10a10 10 0 0 0 10 10"></path>
<g class="non-terminal">
<path d="M348 91h0"></path>
<path d="M408 91h72"></path>
<rect x="348" y="80" width="60" height="22"></rect>
<a xlink:href="reuse_field.svg"><text x="378" y="95">Field</text>
</a>
</g>
<path d="M480 91a10 10 0 0 0 10 -10v-10a10 10 0 0 1 10 -10"></path>
</g>
</g>
<path d="M500 61a10 10 0 0 0 10 -10v-20"></path>
<path d="M184 31v80a10 10 0 0 0 10 10"></path>
<g>
<path d="M194 121h0"></path>
<path d="M468 121h32"></path>
<g class="terminal">
<path d="M194 121h0"></path>
<path d="M286 121h0"></path>
<rect x="194" y="110" width="92" height="22" rx="10" ry="10"></rect>
<text x="240" y="125">"INVERSE"</text>
</g>
<path d="M286 121h10"></path>
<g>
<path d="M296 121h0"></path>
<path d="M468 121h0"></path>
<path d="M296 121h20"></path>
<g>
<path d="M316 121h0"></path>
<path d="M448 121h0"></path>
<g class="terminal">
<path d="M316 121h0"></path>
<path d="M360 121h0"></path>
<rect x="316" y="110" width="44" height="22" rx="10" ry="10"></rect>
<text x="338" y="125">"="</text>
</g>
<path d="M360 121h10"></path>
<path d="M370 121h10"></path>
<g class="non-terminal">
<path d="M380 121h0"></path>
<path d="M448 121h0"></path>
<rect x="380" y="110" width="68" height="22"></rect>
<a xlink:href="reuse_source.svg"><text x="414" y="125">Source</text>
</a>
</g>
</g>
<path d="M448 121h20"></path>
<path d="M296 121a10 10 0 0 1 10 10v10a10 10 0 0 0 10 10"></path>
<g class="non-terminal">
<path d="M316 151h0"></path>
<path d="M376 151h72"></path>
<rect x="316" y="140" width="60" height="22"></rect>
<a xlink:href="reuse_field.svg"><text x="346" y="155">Field</text>
</a>
</g>
<path d="M448 151a10 10 0 0 0 10 -10v-10a10 10 0 0 1 10 -10"></path>
</g>
</g>
<path d="M500 121a10 10 0 0 0 10 -10v-80"></path>
<path d="M184 31v140a10 10 0 0 0 10 10"></path>
<g>
<path d="M194 181h0"></path>
<path d="M468 181h32"></path>
<g class="terminal">
<path d="M194 181h0"></path>
<path d="M286 181h0"></path>
<rect x="194" y="170" width="92" height="22" rx="10" ry="10"></rect>
<text x="240" y="185">"HOTSPOT"</text>
</g>
<path d="M286 181h10"></path>
<g>
<path d="M296 181h0"></path>
<path d="M468 181h0"></path>
<path d="M296 181h20"></path>
<g>
<path d="M316 181h0"></path>
<path d="M448 181h0"></path>
<g class="terminal">
<path d="M316 181h0"></path>
<path d="M360 181h0"></path>
<rect x="316" y="170" width="44" height="22" rx="10" ry="10"></rect>
<text x="338" y="185">"="</text>
</g>
<path d="M360 181h10"></path>
<path d="M370 181h10"></path>
<g class="non-terminal">
<path d="M380 181h0"></path>
<path d="M448 181h0"></path>
<rect x="380" y="170" width="68" height="22"></rect>
<a xlink:href="reuse_source.svg"><text x="414" y="185">Source</text>
</a>
</g>
</g>
<path d="M448 181h20"></path>
<path d="M296 181a10 10 0 0 1 10 10v10a10 10 0 0 0 10 10"></path>
<g class="non-terminal">
<path d="M316 211h0"></path>
<path d="M376 211h72"></path>
<rect x="316" y="200" width="60" height="22"></rect>
<a xlink:href="reuse_field.svg"><text x="346" y="215">Field</text>
</a>
</g>
<path d="M448 211a10 10 0 0 0 10 -10v-10a10 10 0 0 1 10 -10"></path>
</g>
</g>
<path d="M500 181a10 10 0 0 0 10 -10v-140"></path>
<path d="M184 31v200a10 10 0 0 0 10 10"></path>
<g>
<path d="M194 241h0"></path>
<path d="M452 241h48"></path>
<g class="terminal">
<path d="M194 241h0"></path>
<path d="M270 241h0"></path>
<rect x="194" y="230" width="76" height="22" rx="10" ry="10"></rect>
<text x="232" y="245">"INPUT"</text>
</g>
<path d="M270 241h10"></path>
<g>
<path d="M280 241h0"></path>
<path d="M452 241h0"></path>
<path d="M280 241h20"></path>
<g>
<path d="M300 241h0"></path>
<path d="M432 241h0"></path>
<g class="terminal">
<path d="M300 241h0"></path>
<path d="M344 241h0"></path>
<rect x="300" y="230" width="44" height="22" rx="10" ry="10"></rect>
<text x="322" y="245">"="</text>
</g>
<path d="M344 241h10"></path>
<path d="M354 241h10"></path>
<g class="non-terminal">
<path d="M364 241h0"></path>
<path d="M432 241h0"></path>
<rect x="364" y="230" width="68" height="22"></rect>
<a xlink:href="reuse_source.svg"><text x="398" y="245">Source</text>
</a>
</g>
</g>
<path d="M432 241h20"></path>
<path d="M280 241a10 10 0 0 1 10 10v10a10 10 0 0 0 10 10"></path>
<g class="non-terminal">
<path d="M300 271h0"></path>
<path d="M360 271h72"></path>
<rect x="300" y="260" width="60" height="22"></rect>
<a xlink:href="reuse_field.svg"><text x="330" y="275">Field</text>
</a>
</g>
<path d="M432 271a10 10 0 0 0 10 -10v-10a10 10 0 0 1 10 -10"></path>
</g>
</g>
<path d="M500 241a10 10 0 0 0 10 -10v-200"></path>
<path d="M184 31v260a10 10 0 0 0 10 10"></path>
<g>
<path d="M194 301h0"></path>
<path d="M452 301h48"></path>
<g class="terminal">
<path d="M194 301h0"></path>
<path d="M270 301h0"></path>
<rect x="194" y="290" width="76" height="22" rx="10" ry="10"></rect>
<text x="232" y="305">"COLOR"</text>
</g>
<path d="M270 301h10"></path>
<g>
<path d="M280 301h0"></path>
<path d="M452 301h0"></path>
<path d="M280 301h20"></path>
<g>
<path d="M300 301h0"></path>
<path d="M432 301h0"></path>
<g class="terminal">
<path d="M300 301h0"></path>
<path d="M344 301h0"></path>
<rect x="300" y="290" width="44" height="22" rx="10" ry="10"></rect>
<text x="322" y="305">"="</text>
</g>
<path d="M344 301h10"></path>
<path d="M354 301h10"></path>
<g class="non-terminal">
<path d="M364 301h0"></path>
<path d="M432 301h0"></path>
<rect x="364" y="290" width="68" height="22"></rect>
<a xlink:href="reuse_source.svg"><text x="398" y="305">Source</text>
</a>
</g>
</g>
<path d="M432 301h20"></path>
<path d="M280 301a10 10 0 0 1 10 10v10a10 10 0 0 0 10 10"></path>
<g class="non-terminal">
<path d="M300 331h0"></path>
<path d="M360 331h72"></path>
<rect x="300" y="320" width="60" height="22"></rect>
<a xlink:href="reuse_field.svg"><text x="330" y="335">Field</text>
</a>
</g>
<path d="M432 331a10 10 0 0 0 10 -10v-10a10 10 0 0 1 10 -10"></path>
</g>
</g>
<path d="M500 301a10 10 0 0 0 10 -10v-260"></path>
<g class="diagram-text">
<title>take one or more branches, once each, in any order</title>
<path d="M 184 21 h -26 a 4 4 0 0 0 -4 4 v 12 a 4 4 0 0 0 4 4 h 26 z" class="diagram-text"></path>
<text x="169" y="35" class="diagram-text">1+</text>
<path d="M 510 21 h 16 a 4 4 0 0 1 4 4 v 12 a 4 4 0 0 1 -4 4 h -16 z" class="diagram-text"></path>
<path d="M 517 29 a 4 4 0 1 0 6 -1 m 2.75 -1 h -4 v 4 m 0 -3 h 2" style="stroke-width: 1.75"></path>
</g>
</g>
</g>
<path d="M530 31h10"></path>
<path d="M 540 31 h 20 m -10 -10 v 20 m 10 -20 v 20"></path>
</g>
</svg>
