<svg xmlns="http://www.w3.org/2000/svg" xmlns:xlink="http://www.w3.org/1999/xlink" class="railroad-diagram" width="390" height="92" viewBox="0 0 390 92">
<defs>
<style type="text/css"><![CDATA[
path {
stroke-width: 3;
stroke: black;
fill: rgba(0,0,0,0);
}
text {
font: bold 14px monospace;
text-anchor: middle;
}
text.diagram-text {
font-size: 12px;
}
a {
fill: blue;
}
text.diagram-arrow {
font-size: 16px;
}
text.label {
text-anchor: start;
}
text.comment {
font: italic 12px monospace;
}
rect {
stroke-width: 3;
stroke: black;
fill: #BCBCBC;
}
path.diagram-text {
stroke-width: 3;
stroke: black;
fill: #BCBCBC;
cursor: help;
}
]]></style>
</defs>
<g transform="translate(.5 .5)">
<path d="M 20 21 v 20 m 10 -20 v 20 m -10 -10 h 20.5"></path>
<path d="M40 31h10"></path>
<g>
<path d="M50 31h0"></path>
<path d="M340 31h0"></path>
<g class="terminal">
<path d="M50 31h0"></path>
<path d="M134 31h0"></path>
<rect x="50" y="20" width="84" height="22" rx="10" ry="10"></rect>
<text x="92" y="35">"FORMAT"</text>
</g>
<path d="M134 31h10"></path>
<g>
<path d="M144 31h0"></path>
<path d="M340 31h0"></path>
<path d="M144 31h20"></path>
<g class="terminal">
<path d="M164 31h40"></path>
<path d="M280 31h40"></path>
<rect x="204" y="20" width="76" height="22" rx="10" ry="10"></rect>
<text x="242" y="35">"RESET"</text>
</g>
<path d="M320 31h20"></path>
<path d="M144 31a10 10 0 0 1 10 10v10a10 10 0 0 0 10 10"></path>
<g>
<path d="M164 61h0"></path>
<path d="M320 61h0"></path>
<g class="terminal">
<path d="M164 61h0"></path>
<path d="M240 61h0"></path>
<rect x="164" y="50" width="76" height="22" rx="10" ry="10"></rect>
<text x="202" y="65">"COLOR"</text>
</g>
<path d="M240 61h10"></path>
<path d="M250 61h10"></path>
<g class="non-terminal">
<path d="M260 61h0"></path>
<path d="M320 61h0"></path>
<rect x="260" y="50" width="60" height="22"></rect>
<a xlink:href="reuse_field.svg"><text x="290" y="65">field</text>
</a>
</g>
</g>
<path d="M320 61a10 10 0 0 0 10 -10v-10a10 10 0 0 1 10 -10"></path>
</g>
</g>
<path d="M340 31h10"></path>
<path d="M 350 31 h 20 m -10 -10 v 20 m 10 -20 v 20"></path>
</g>
</svg>
