<?xml version="1.0" encoding="UTF-8" standalone="no"?>
<!DOCTYPE svg PUBLIC "-//W3C//DTD SVG 1.1//EN"
 "http://www.w3.org/Graphics/SVG/1.1/DTD/svg11.dtd">
<!-- Generated by graphviz version 2.38.0 (20140413.2041)
 -->
<!-- Title: free Pages: 1 -->
<svg width="93pt" height="260pt"
 viewBox="0.00 0.00 93.04 260.00" xmlns="http://www.w3.org/2000/svg" xmlns:xlink="http://www.w3.org/1999/xlink">
<g id="graph0" class="graph" transform="scale(1 1) rotate(0) translate(4 256)">
<title>free</title>
<polygon fill="white" stroke="none" points="-4,4 -4,-256 89.044,-256 89.044,4 -4,4"/>
<!-- start -->
<g id="node1" class="node"><title>start</title>
<polygon fill="none" stroke="black" points="69.522,-252 15.522,-252 15.522,-216 69.522,-216 69.522,-252"/>
<text text-anchor="middle" x="42.522" y="-229.8" font-family="Times,serif" font-size="14.00">Start</text>
</g>
<!-- node525 -->
<g id="node4" class="node"><title>node525</title>
<ellipse fill="none" stroke="black" cx="42.522" cy="-162" rx="42.544" ry="18"/>
<text text-anchor="middle" x="42.522" y="-157.8" font-family="Times,serif" font-size="14.00">&quot;FREE&quot;</text>
</g>
<!-- start&#45;&gt;node525 -->
<g id="edge3" class="edge"><title>start&#45;&gt;node525</title>
<path fill="none" stroke="black" d="M42.522,-215.697C42.522,-207.983 42.522,-198.712 42.522,-190.112"/>
<polygon fill="black" stroke="black" points="46.0221,-190.104 42.522,-180.104 39.0221,-190.104 46.0221,-190.104"/>
</g>
<!-- end -->
<g id="node2" class="node"><title>end</title>
<polygon fill="none" stroke="black" points="69.522,-36 15.522,-36 15.522,-0 69.522,-0 69.522,-36"/>
<text text-anchor="middle" x="42.522" y="-13.8" font-family="Times,serif" font-size="14.00">End</text>
</g>
<!-- node524 -->
<g id="node3" class="node"><title>node524</title>
<g id="a_node3"><a xlink:href="reuse_target.svg" xlink:title="&lt;u&gt;target&lt;/u&gt;">
<ellipse fill="none" stroke="black" cx="42.522" cy="-90" rx="33.0411" ry="18"/>
<text text-anchor="start" x="26.5865" y="-86.8" font-family="Times,serif" text-decoration="underline" font-size="14.00" fill="blue">target</text>
</a>
</g>
</g>
<!-- node524&#45;&gt;end -->
<g id="edge1" class="edge"><title>node524&#45;&gt;end</title>
<path fill="none" stroke="black" d="M42.522,-71.6966C42.522,-63.9827 42.522,-54.7125 42.522,-46.1124"/>
<polygon fill="black" stroke="black" points="46.0221,-46.1043 42.522,-36.1043 39.0221,-46.1044 46.0221,-46.1043"/>
</g>
<!-- node525&#45;&gt;node524 -->
<g id="edge2" class="edge"><title>node525&#45;&gt;node524</title>
<path fill="none" stroke="black" d="M42.522,-143.697C42.522,-135.983 42.522,-126.712 42.522,-118.112"/>
<polygon fill="black" stroke="black" points="46.0221,-118.104 42.522,-108.104 39.0221,-118.104 46.0221,-118.104"/>
</g>
</g>
</svg>
