<svg xmlns="http://www.w3.org/2000/svg" xmlns:xlink="http://www.w3.org/1999/xlink" class="railroad-diagram" width="1320" height="62" viewBox="0 0 1320 62">
<defs>
<style type="text/css"><![CDATA[
path {
stroke-width: 3;
stroke: black;
fill: rgba(0,0,0,0);
}
text {
font: bold 14px monospace;
text-anchor: middle;
}
text.diagram-text {
font-size: 12px;
}
a {
fill: blue;
}
text.diagram-arrow {
font-size: 16px;
}
text.label {
text-anchor: start;
}
text.comment {
font: italic 12px monospace;
}
rect {
stroke-width: 3;
stroke: black;
fill: #BCBCBC;
}
path.diagram-text {
stroke-width: 3;
stroke: black;
fill: #BCBCBC;
cursor: help;
}
]]></style>
</defs>
<g transform="translate(.5 .5)">
<path d="M 20 21 v 20 m 10 -20 v 20 m -10 -10 h 20.5"></path>
<path d="M40 31h10"></path>
<g>
<path d="M50 31h0"></path>
<path d="M1270 31h0"></path>
<g class="terminal">
<path d="M50 31h0"></path>
<path d="M206 31h0"></path>
<rect x="50" y="20" width="156" height="22" rx="10" ry="10"></rect>
<text x="128" y="35">"GENERATE DYNPRO"</text>
</g>
<path d="M206 31h10"></path>
<path d="M216 31h10"></path>
<g class="non-terminal">
<path d="M226 31h0"></path>
<path d="M294 31h0"></path>
<rect x="226" y="20" width="68" height="22"></rect>
<a xlink:href="reuse_source.svg"><text x="260" y="35">Source</text>
</a>
</g>
<path d="M294 31h10"></path>
<path d="M304 31h10"></path>
<g class="non-terminal">
<path d="M314 31h0"></path>
<path d="M382 31h0"></path>
<rect x="314" y="20" width="68" height="22"></rect>
<a xlink:href="reuse_source.svg"><text x="348" y="35">Source</text>
</a>
</g>
<path d="M382 31h10"></path>
<path d="M392 31h10"></path>
<g class="non-terminal">
<path d="M402 31h0"></path>
<path d="M470 31h0"></path>
<rect x="402" y="20" width="68" height="22"></rect>
<a xlink:href="reuse_source.svg"><text x="436" y="35">Source</text>
</a>
</g>
<path d="M470 31h10"></path>
<path d="M480 31h10"></path>
<g class="non-terminal">
<path d="M490 31h0"></path>
<path d="M558 31h0"></path>
<rect x="490" y="20" width="68" height="22"></rect>
<a xlink:href="reuse_source.svg"><text x="524" y="35">Source</text>
</a>
</g>
<path d="M558 31h10"></path>
<path d="M568 31h10"></path>
<g class="terminal">
<path d="M578 31h0"></path>
<path d="M630 31h0"></path>
<rect x="578" y="20" width="52" height="22" rx="10" ry="10"></rect>
<text x="604" y="35">"ID"</text>
</g>
<path d="M630 31h10"></path>
<path d="M640 31h10"></path>
<g class="non-terminal">
<path d="M650 31h0"></path>
<path d="M718 31h0"></path>
<rect x="650" y="20" width="68" height="22"></rect>
<a xlink:href="reuse_source.svg"><text x="684" y="35">Source</text>
</a>
</g>
<path d="M718 31h10"></path>
<path d="M728 31h10"></path>
<g class="terminal">
<path d="M738 31h0"></path>
<path d="M830 31h0"></path>
<rect x="738" y="20" width="92" height="22" rx="10" ry="10"></rect>
<text x="784" y="35">"MESSAGE"</text>
</g>
<path d="M830 31h10"></path>
<path d="M840 31h10"></path>
<g class="non-terminal">
<path d="M850 31h0"></path>
<path d="M918 31h0"></path>
<rect x="850" y="20" width="68" height="22"></rect>
<a xlink:href="reuse_target.svg"><text x="884" y="35">Target</text>
</a>
</g>
<path d="M918 31h10"></path>
<path d="M928 31h10"></path>
<g class="terminal">
<path d="M938 31h0"></path>
<path d="M1006 31h0"></path>
<rect x="938" y="20" width="68" height="22" rx="10" ry="10"></rect>
<text x="972" y="35">"LINE"</text>
</g>
<path d="M1006 31h10"></path>
<path d="M1016 31h10"></path>
<g class="non-terminal">
<path d="M1026 31h0"></path>
<path d="M1094 31h0"></path>
<rect x="1026" y="20" width="68" height="22"></rect>
<a xlink:href="reuse_target.svg"><text x="1060" y="35">Target</text>
</a>
</g>
<path d="M1094 31h10"></path>
<path d="M1104 31h10"></path>
<g class="terminal">
<path d="M1114 31h0"></path>
<path d="M1182 31h0"></path>
<rect x="1114" y="20" width="68" height="22" rx="10" ry="10"></rect>
<text x="1148" y="35">"WORD"</text>
</g>
<path d="M1182 31h10"></path>
<path d="M1192 31h10"></path>
<g class="non-terminal">
<path d="M1202 31h0"></path>
<path d="M1270 31h0"></path>
<rect x="1202" y="20" width="68" height="22"></rect>
<a xlink:href="reuse_target.svg"><text x="1236" y="35">Target</text>
</a>
</g>
</g>
<path d="M1270 31h10"></path>
<path d="M 1280 31 h 20 m -10 -10 v 20 m 10 -20 v 20"></path>
</g>
</svg>
