<svg xmlns="http://www.w3.org/2000/svg" xmlns:xlink="http://www.w3.org/1999/xlink" class="railroad-diagram" width="710" height="212" viewBox="0 0 710 212">
<defs>
<style type="text/css"><![CDATA[
path {
stroke-width: 3;
stroke: black;
fill: rgba(0,0,0,0);
}
text {
font: bold 14px monospace;
text-anchor: middle;
}
text.diagram-text {
font-size: 12px;
}
a {
fill: blue;
}
text.diagram-arrow {
font-size: 16px;
}
text.label {
text-anchor: start;
}
text.comment {
font: italic 12px monospace;
}
rect {
stroke-width: 3;
stroke: black;
fill: #BCBCBC;
}
path.diagram-text {
stroke-width: 3;
stroke: black;
fill: #BCBCBC;
cursor: help;
}
]]></style>
</defs>
<g transform="translate(.5 .5)">
<path d="M 20 21 v 20 m 10 -20 v 20 m -10 -10 h 20.5"></path>
<path d="M40 31h10"></path>
<g>
<path d="M50 31h0"></path>
<path d="M660 31h0"></path>
<g class="terminal">
<path d="M50 31h0"></path>
<path d="M278 31h0"></path>
<rect x="50" y="20" width="228" height="22" rx="10" ry="10"></rect>
<text x="164" y="35">"GENERATE SUBROUTINE POOL"</text>
</g>
<path d="M278 31h10"></path>
<path d="M288 31h10"></path>
<g class="non-terminal">
<path d="M298 31h0"></path>
<path d="M366 31h0"></path>
<rect x="298" y="20" width="68" height="22"></rect>
<a xlink:href="reuse_source.svg"><text x="332" y="35">Source</text>
</a>
</g>
<path d="M366 31h10"></path>
<path d="M376 31h10"></path>
<g>
<path d="M386 31h0"></path>
<path d="M660 31h0"></path>
<path d="M416 31h10"></path>
<g>
<path d="M426 31h0"></path>
<path d="M582 31h48"></path>
<g class="terminal">
<path d="M426 31h0"></path>
<path d="M494 31h0"></path>
<rect x="426" y="20" width="68" height="22" rx="10" ry="10"></rect>
<text x="460" y="35">"NAME"</text>
</g>
<path d="M494 31h10"></path>
<path d="M504 31h10"></path>
<g class="non-terminal">
<path d="M514 31h0"></path>
<path d="M582 31h0"></path>
<rect x="514" y="20" width="68" height="22"></rect>
<a xlink:href="reuse_source.svg"><text x="548" y="35">Source</text>
</a>
</g>
</g>
<path d="M630 31h10"></path>
<path d="M416 31v20a10 10 0 0 0 10 10"></path>
<g>
<path d="M426 61h0"></path>
<path d="M606 61h24"></path>
<g class="terminal">
<path d="M426 61h0"></path>
<path d="M518 61h0"></path>
<rect x="426" y="50" width="92" height="22" rx="10" ry="10"></rect>
<text x="472" y="65">"MESSAGE"</text>
</g>
<path d="M518 61h10"></path>
<path d="M528 61h10"></path>
<g class="non-terminal">
<path d="M538 61h0"></path>
<path d="M606 61h0"></path>
<rect x="538" y="50" width="68" height="22"></rect>
<a xlink:href="reuse_target.svg"><text x="572" y="65">Target</text>
</a>
</g>
</g>
<path d="M630 61a10 10 0 0 0 10 -10v-20"></path>
<path d="M416 31v50a10 10 0 0 0 10 10"></path>
<g>
<path d="M426 91h0"></path>
<path d="M582 91h48"></path>
<g class="terminal">
<path d="M426 91h0"></path>
<path d="M494 91h0"></path>
<rect x="426" y="80" width="68" height="22" rx="10" ry="10"></rect>
<text x="460" y="95">"LINE"</text>
</g>
<path d="M494 91h10"></path>
<path d="M504 91h10"></path>
<g class="non-terminal">
<path d="M514 91h0"></path>
<path d="M582 91h0"></path>
<rect x="514" y="80" width="68" height="22"></rect>
<a xlink:href="reuse_target.svg"><text x="548" y="95">Target</text>
</a>
</g>
</g>
<path d="M630 91a10 10 0 0 0 10 -10v-50"></path>
<path d="M416 31v80a10 10 0 0 0 10 10"></path>
<g>
<path d="M426 121h0"></path>
<path d="M582 121h48"></path>
<g class="terminal">
<path d="M426 121h0"></path>
<path d="M494 121h0"></path>
<rect x="426" y="110" width="68" height="22" rx="10" ry="10"></rect>
<text x="460" y="125">"WORD"</text>
</g>
<path d="M494 121h10"></path>
<path d="M504 121h10"></path>
<g class="non-terminal">
<path d="M514 121h0"></path>
<path d="M582 121h0"></path>
<rect x="514" y="110" width="68" height="22"></rect>
<a xlink:href="reuse_target.svg"><text x="548" y="125">Target</text>
</a>
</g>
</g>
<path d="M630 121a10 10 0 0 0 10 -10v-80"></path>
<path d="M416 31v110a10 10 0 0 0 10 10"></path>
<g>
<path d="M426 151h0"></path>
<path d="M598 151h32"></path>
<g class="terminal">
<path d="M426 151h0"></path>
<path d="M510 151h0"></path>
<rect x="426" y="140" width="84" height="22" rx="10" ry="10"></rect>
<text x="468" y="155">"OFFSET"</text>
</g>
<path d="M510 151h10"></path>
<path d="M520 151h10"></path>
<g class="non-terminal">
<path d="M530 151h0"></path>
<path d="M598 151h0"></path>
<rect x="530" y="140" width="68" height="22"></rect>
<a xlink:href="reuse_target.svg"><text x="564" y="155">Target</text>
</a>
</g>
</g>
<path d="M630 151a10 10 0 0 0 10 -10v-110"></path>
<path d="M416 31v140a10 10 0 0 0 10 10"></path>
<g>
<path d="M426 181h0"></path>
<path d="M630 181h0"></path>
<g class="terminal">
<path d="M426 181h0"></path>
<path d="M542 181h0"></path>
<rect x="426" y="170" width="116" height="22" rx="10" ry="10"></rect>
<text x="484" y="185">"MESSAGE-ID"</text>
</g>
<path d="M542 181h10"></path>
<path d="M552 181h10"></path>
<g class="non-terminal">
<path d="M562 181h0"></path>
<path d="M630 181h0"></path>
<rect x="562" y="170" width="68" height="22"></rect>
<a xlink:href="reuse_target.svg"><text x="596" y="185">Target</text>
</a>
</g>
</g>
<path d="M630 181a10 10 0 0 0 10 -10v-140"></path>
<g class="diagram-text">
<title>take one or more branches, once each, in any order</title>
<path d="M 416 21 h -26 a 4 4 0 0 0 -4 4 v 12 a 4 4 0 0 0 4 4 h 26 z" class="diagram-text"></path>
<text x="401" y="35" class="diagram-text">1+</text>
<path d="M 640 21 h 16 a 4 4 0 0 1 4 4 v 12 a 4 4 0 0 1 -4 4 h -16 z" class="diagram-text"></path>
<path d="M 647 29 a 4 4 0 1 0 6 -1 m 2.75 -1 h -4 v 4 m 0 -3 h 2" style="stroke-width: 1.75"></path>
</g>
</g>
</g>
<path d="M660 31h10"></path>
<path d="M 670 31 h 20 m -10 -10 v 20 m 10 -20 v 20"></path>
</g>
</svg>
