<svg xmlns="http://www.w3.org/2000/svg" xmlns:xlink="http://www.w3.org/1999/xlink" class="railroad-diagram" width="692" height="221" viewBox="0 0 692 221">
<defs>
<style type="text/css"><![CDATA[
path {
stroke-width: 3;
stroke: black;
fill: rgba(0,0,0,0);
}
text {
font: bold 14px monospace;
text-anchor: middle;
}
text.diagram-text {
font-size: 12px;
}
a {
fill: blue;
}
text.diagram-arrow {
font-size: 16px;
}
text.label {
text-anchor: start;
}
text.comment {
font: italic 12px monospace;
}
rect {
stroke-width: 3;
stroke: black;
fill: #BCBCBC;
}
path.diagram-text {
stroke-width: 3;
stroke: black;
fill: #BCBCBC;
cursor: help;
}
]]></style>
</defs>
<g transform="translate(.5 .5)">
<path d="M 20 30 v 20 m 10 -20 v 20 m -10 -10 h 20.5"></path>
<path d="M40 40h10"></path>
<g>
<path d="M50 40h0"></path>
<path d="M642 40h0"></path>
<g class="terminal">
<path d="M50 40h0"></path>
<path d="M206 40h0"></path>
<rect x="50" y="29" width="156" height="22" rx="10" ry="10"></rect>
<text x="128" y="44">"GENERATE REPORT"</text>
</g>
<path d="M206 40h10"></path>
<path d="M216 40h10"></path>
<g class="non-terminal">
<path d="M226 40h0"></path>
<path d="M294 40h0"></path>
<rect x="226" y="29" width="68" height="22"></rect>
<a xlink:href="reuse_source.svg"><text x="260" y="44">Source</text>
</a>
</g>
<path d="M294 40h10"></path>
<g>
<path d="M304 40h0"></path>
<path d="M642 40h0"></path>
<path d="M304 40a10 10 0 0 0 10 -10v0a10 10 0 0 1 10 -10"></path>
<g>
<path d="M324 20h298"></path>
</g>
<path d="M622 20a10 10 0 0 1 10 10v0a10 10 0 0 0 10 10"></path>
<path d="M304 40h20"></path>
<g>
<path d="M324 40h0"></path>
<path d="M622 40h0"></path>
<path d="M354 40h10"></path>
<g class="terminal">
<path d="M364 40h0"></path>
<path d="M592 40h0"></path>
<rect x="364" y="29" width="228" height="22" rx="10" ry="10"></rect>
<text x="478" y="44">"WITHOUT SELECTION-SCREEN"</text>
</g>
<path d="M592 40h10"></path>
<path d="M354 40v20a10 10 0 0 0 10 10"></path>
<g>
<path d="M364 70h0"></path>
<path d="M544 70h48"></path>
<g class="terminal">
<path d="M364 70h0"></path>
<path d="M456 70h0"></path>
<rect x="364" y="59" width="92" height="22" rx="10" ry="10"></rect>
<text x="410" y="74">"MESSAGE"</text>
</g>
<path d="M456 70h10"></path>
<path d="M466 70h10"></path>
<g class="non-terminal">
<path d="M476 70h0"></path>
<path d="M544 70h0"></path>
<rect x="476" y="59" width="68" height="22"></rect>
<a xlink:href="reuse_target.svg"><text x="510" y="74">Target</text>
</a>
</g>
</g>
<path d="M592 70a10 10 0 0 0 10 -10v-20"></path>
<path d="M354 40v50a10 10 0 0 0 10 10"></path>
<g>
<path d="M364 100h0"></path>
<path d="M544 100h48"></path>
<g class="terminal">
<path d="M364 100h0"></path>
<path d="M456 100h0"></path>
<rect x="364" y="89" width="92" height="22" rx="10" ry="10"></rect>
<text x="410" y="104">"INCLUDE"</text>
</g>
<path d="M456 100h10"></path>
<path d="M466 100h10"></path>
<g class="non-terminal">
<path d="M476 100h0"></path>
<path d="M544 100h0"></path>
<rect x="476" y="89" width="68" height="22"></rect>
<a xlink:href="reuse_target.svg"><text x="510" y="104">Target</text>
</a>
</g>
</g>
<path d="M592 100a10 10 0 0 0 10 -10v-50"></path>
<path d="M354 40v80a10 10 0 0 0 10 10"></path>
<g>
<path d="M364 130h0"></path>
<path d="M520 130h72"></path>
<g class="terminal">
<path d="M364 130h0"></path>
<path d="M432 130h0"></path>
<rect x="364" y="119" width="68" height="22" rx="10" ry="10"></rect>
<text x="398" y="134">"LINE"</text>
</g>
<path d="M432 130h10"></path>
<path d="M442 130h10"></path>
<g class="non-terminal">
<path d="M452 130h0"></path>
<path d="M520 130h0"></path>
<rect x="452" y="119" width="68" height="22"></rect>
<a xlink:href="reuse_target.svg"><text x="486" y="134">Target</text>
</a>
</g>
</g>
<path d="M592 130a10 10 0 0 0 10 -10v-80"></path>
<path d="M354 40v110a10 10 0 0 0 10 10"></path>
<g>
<path d="M364 160h0"></path>
<path d="M520 160h72"></path>
<g class="terminal">
<path d="M364 160h0"></path>
<path d="M432 160h0"></path>
<rect x="364" y="149" width="68" height="22" rx="10" ry="10"></rect>
<text x="398" y="164">"WORD"</text>
</g>
<path d="M432 160h10"></path>
<path d="M442 160h10"></path>
<g class="non-terminal">
<path d="M452 160h0"></path>
<path d="M520 160h0"></path>
<rect x="452" y="149" width="68" height="22"></rect>
<a xlink:href="reuse_target.svg"><text x="486" y="164">Target</text>
</a>
</g>
</g>
<path d="M592 160a10 10 0 0 0 10 -10v-110"></path>
<path d="M354 40v140a10 10 0 0 0 10 10"></path>
<g>
<path d="M364 190h0"></path>
<path d="M536 190h56"></path>
<g class="terminal">
<path d="M364 190h0"></path>
<path d="M448 190h0"></path>
<rect x="364" y="179" width="84" height="22" rx="10" ry="10"></rect>
<text x="406" y="194">"OFFSET"</text>
</g>
<path d="M448 190h10"></path>
<path d="M458 190h10"></path>
<g class="non-terminal">
<path d="M468 190h0"></path>
<path d="M536 190h0"></path>
<rect x="468" y="179" width="68" height="22"></rect>
<a xlink:href="reuse_target.svg"><text x="502" y="194">Target</text>
</a>
</g>
</g>
<path d="M592 190a10 10 0 0 0 10 -10v-140"></path>
<g class="diagram-text">
<title>take one or more branches, once each, in any order</title>
<path d="M 354 30 h -26 a 4 4 0 0 0 -4 4 v 12 a 4 4 0 0 0 4 4 h 26 z" class="diagram-text"></path>
<text x="339" y="44" class="diagram-text">1+</text>
<path d="M 602 30 h 16 a 4 4 0 0 1 4 4 v 12 a 4 4 0 0 1 -4 4 h -16 z" class="diagram-text"></path>
<path d="M 609 38 a 4 4 0 1 0 6 -1 m 2.75 -1 h -4 v 4 m 0 -3 h 2" style="stroke-width: 1.75"></path>
</g>
</g>
<path d="M622 40h20"></path>
</g>
</g>
<path d="M642 40h10"></path>
<path d="M 652 40 h 20 m -10 -10 v 20 m 10 -20 v 20"></path>
</g>
</svg>
