<svg xmlns="http://www.w3.org/2000/svg" xmlns:xlink="http://www.w3.org/1999/xlink" class="railroad-diagram" width="968" height="62" viewBox="0 0 968 62">
<defs>
<style type="text/css"><![CDATA[
path {
stroke-width: 3;
stroke: black;
fill: rgba(0,0,0,0);
}
text {
font: bold 14px monospace;
text-anchor: middle;
}
text.diagram-text {
font-size: 12px;
}
a {
fill: blue;
}
text.diagram-arrow {
font-size: 16px;
}
text.label {
text-anchor: start;
}
text.comment {
font: italic 12px monospace;
}
rect {
stroke-width: 3;
stroke: black;
fill: #BCBCBC;
}
path.diagram-text {
stroke-width: 3;
stroke: black;
fill: #BCBCBC;
cursor: help;
}
]]></style>
</defs>
<g transform="translate(.5 .5)">
<path d="M 20 21 v 20 m 10 -20 v 20 m -10 -10 h 20.5"></path>
<path d="M40 31h10"></path>
<g>
<path d="M50 31h0"></path>
<path d="M918 31h0"></path>
<g class="terminal">
<path d="M50 31h0"></path>
<path d="M278 31h0"></path>
<rect x="50" y="20" width="228" height="22" rx="10" ry="10"></rect>
<text x="164" y="35">"GENERATE SUBROUTINE POOL"</text>
</g>
<path d="M278 31h10"></path>
<path d="M288 31h10"></path>
<g class="non-terminal">
<path d="M298 31h0"></path>
<path d="M366 31h0"></path>
<rect x="298" y="20" width="68" height="22"></rect>
<a xlink:href="reuse_source.svg"><text x="332" y="35">Source</text>
</a>
</g>
<path d="M366 31h10"></path>
<path d="M376 31h10"></path>
<g class="terminal">
<path d="M386 31h0"></path>
<path d="M454 31h0"></path>
<rect x="386" y="20" width="68" height="22" rx="10" ry="10"></rect>
<text x="420" y="35">"NAME"</text>
</g>
<path d="M454 31h10"></path>
<path d="M464 31h10"></path>
<g class="non-terminal">
<path d="M474 31h0"></path>
<path d="M542 31h0"></path>
<rect x="474" y="20" width="68" height="22"></rect>
<a xlink:href="reuse_source.svg"><text x="508" y="35">Source</text>
</a>
</g>
<path d="M542 31h10"></path>
<path d="M552 31h10"></path>
<g class="terminal">
<path d="M562 31h0"></path>
<path d="M654 31h0"></path>
<rect x="562" y="20" width="92" height="22" rx="10" ry="10"></rect>
<text x="608" y="35">"MESSAGE"</text>
</g>
<path d="M654 31h10"></path>
<path d="M664 31h10"></path>
<g class="non-terminal">
<path d="M674 31h0"></path>
<path d="M742 31h0"></path>
<rect x="674" y="20" width="68" height="22"></rect>
<a xlink:href="reuse_target.svg"><text x="708" y="35">Target</text>
</a>
</g>
<path d="M742 31h10"></path>
<path d="M752 31h10"></path>
<g class="terminal">
<path d="M762 31h0"></path>
<path d="M830 31h0"></path>
<rect x="762" y="20" width="68" height="22" rx="10" ry="10"></rect>
<text x="796" y="35">"LINE"</text>
</g>
<path d="M830 31h10"></path>
<path d="M840 31h10"></path>
<g class="non-terminal">
<path d="M850 31h0"></path>
<path d="M918 31h0"></path>
<rect x="850" y="20" width="68" height="22"></rect>
<a xlink:href="reuse_target.svg"><text x="884" y="35">Target</text>
</a>
</g>
</g>
<path d="M918 31h10"></path>
<path d="M 928 31 h 20 m -10 -10 v 20 m 10 -20 v 20"></path>
</g>
</svg>
