<svg xmlns="http://www.w3.org/2000/svg" xmlns:xlink="http://www.w3.org/1999/xlink" class="railroad-diagram" width="1426" height="71" viewBox="0 0 1426 71">
<defs>
<style type="text/css"><![CDATA[
path {
stroke-width: 3;
stroke: black;
fill: rgba(0,0,0,0);
}
text {
font: bold 14px monospace;
text-anchor: middle;
}
text.diagram-text {
font-size: 12px;
}
a {
fill: blue;
}
text.diagram-arrow {
font-size: 16px;
}
text.label {
text-anchor: start;
}
text.comment {
font: italic 12px monospace;
}
rect {
stroke-width: 3;
stroke: black;
fill: #BCBCBC;
}
path.diagram-text {
stroke-width: 3;
stroke: black;
fill: #BCBCBC;
cursor: help;
}
]]></style>
</defs>
<g transform="translate(.5 .5)">
<path d="M 20 30 v 20 m 10 -20 v 20 m -10 -10 h 20.5"></path>
<path d="M40 40h10"></path>
<g>
<path d="M50 40h0"></path>
<path d="M1376 40h0"></path>
<g class="terminal">
<path d="M50 40h0"></path>
<path d="M278 40h0"></path>
<rect x="50" y="29" width="228" height="22" rx="10" ry="10"></rect>
<text x="164" y="44">"GENERATE SUBROUTINE POOL"</text>
</g>
<path d="M278 40h10"></path>
<path d="M288 40h10"></path>
<g class="non-terminal">
<path d="M298 40h0"></path>
<path d="M366 40h0"></path>
<rect x="298" y="29" width="68" height="22"></rect>
<a xlink:href="reuse_source.svg"><text x="332" y="44">Source</text>
</a>
</g>
<path d="M366 40h10"></path>
<path d="M376 40h10"></path>
<g>
<path d="M386 40h0"></path>
<path d="M542 40h0"></path>
<g class="terminal">
<path d="M386 40h0"></path>
<path d="M454 40h0"></path>
<rect x="386" y="29" width="68" height="22" rx="10" ry="10"></rect>
<text x="420" y="44">"NAME"</text>
</g>
<path d="M454 40h10"></path>
<path d="M464 40h10"></path>
<g class="non-terminal">
<path d="M474 40h0"></path>
<path d="M542 40h0"></path>
<rect x="474" y="29" width="68" height="22"></rect>
<a xlink:href="reuse_source.svg"><text x="508" y="44">Source</text>
</a>
</g>
</g>
<path d="M542 40h10"></path>
<g>
<path d="M552 40h0"></path>
<path d="M772 40h0"></path>
<path d="M552 40a10 10 0 0 0 10 -10v0a10 10 0 0 1 10 -10"></path>
<g>
<path d="M572 20h180"></path>
</g>
<path d="M752 20a10 10 0 0 1 10 10v0a10 10 0 0 0 10 10"></path>
<path d="M552 40h20"></path>
<g>
<path d="M572 40h0"></path>
<path d="M752 40h0"></path>
<g class="terminal">
<path d="M572 40h0"></path>
<path d="M664 40h0"></path>
<rect x="572" y="29" width="92" height="22" rx="10" ry="10"></rect>
<text x="618" y="44">"MESSAGE"</text>
</g>
<path d="M664 40h10"></path>
<path d="M674 40h10"></path>
<g class="non-terminal">
<path d="M684 40h0"></path>
<path d="M752 40h0"></path>
<rect x="684" y="29" width="68" height="22"></rect>
<a xlink:href="reuse_target.svg"><text x="718" y="44">Target</text>
</a>
</g>
</g>
<path d="M752 40h20"></path>
</g>
<g>
<path d="M772 40h0"></path>
<path d="M968 40h0"></path>
<path d="M772 40a10 10 0 0 0 10 -10v0a10 10 0 0 1 10 -10"></path>
<g>
<path d="M792 20h156"></path>
</g>
<path d="M948 20a10 10 0 0 1 10 10v0a10 10 0 0 0 10 10"></path>
<path d="M772 40h20"></path>
<g>
<path d="M792 40h0"></path>
<path d="M948 40h0"></path>
<g class="terminal">
<path d="M792 40h0"></path>
<path d="M860 40h0"></path>
<rect x="792" y="29" width="68" height="22" rx="10" ry="10"></rect>
<text x="826" y="44">"LINE"</text>
</g>
<path d="M860 40h10"></path>
<path d="M870 40h10"></path>
<g class="non-terminal">
<path d="M880 40h0"></path>
<path d="M948 40h0"></path>
<rect x="880" y="29" width="68" height="22"></rect>
<a xlink:href="reuse_target.svg"><text x="914" y="44">Target</text>
</a>
</g>
</g>
<path d="M948 40h20"></path>
</g>
<g>
<path d="M968 40h0"></path>
<path d="M1164 40h0"></path>
<path d="M968 40a10 10 0 0 0 10 -10v0a10 10 0 0 1 10 -10"></path>
<g>
<path d="M988 20h156"></path>
</g>
<path d="M1144 20a10 10 0 0 1 10 10v0a10 10 0 0 0 10 10"></path>
<path d="M968 40h20"></path>
<g>
<path d="M988 40h0"></path>
<path d="M1144 40h0"></path>
<g class="terminal">
<path d="M988 40h0"></path>
<path d="M1056 40h0"></path>
<rect x="988" y="29" width="68" height="22" rx="10" ry="10"></rect>
<text x="1022" y="44">"WORD"</text>
</g>
<path d="M1056 40h10"></path>
<path d="M1066 40h10"></path>
<g class="non-terminal">
<path d="M1076 40h0"></path>
<path d="M1144 40h0"></path>
<rect x="1076" y="29" width="68" height="22"></rect>
<a xlink:href="reuse_target.svg"><text x="1110" y="44">Target</text>
</a>
</g>
</g>
<path d="M1144 40h20"></path>
</g>
<g>
<path d="M1164 40h0"></path>
<path d="M1376 40h0"></path>
<path d="M1164 40a10 10 0 0 0 10 -10v0a10 10 0 0 1 10 -10"></path>
<g>
<path d="M1184 20h172"></path>
</g>
<path d="M1356 20a10 10 0 0 1 10 10v0a10 10 0 0 0 10 10"></path>
<path d="M1164 40h20"></path>
<g>
<path d="M1184 40h0"></path>
<path d="M1356 40h0"></path>
<g class="terminal">
<path d="M1184 40h0"></path>
<path d="M1268 40h0"></path>
<rect x="1184" y="29" width="84" height="22" rx="10" ry="10"></rect>
<text x="1226" y="44">"OFFSET"</text>
</g>
<path d="M1268 40h10"></path>
<path d="M1278 40h10"></path>
<g class="non-terminal">
<path d="M1288 40h0"></path>
<path d="M1356 40h0"></path>
<rect x="1288" y="29" width="68" height="22"></rect>
<a xlink:href="reuse_target.svg"><text x="1322" y="44">Target</text>
</a>
</g>
</g>
<path d="M1356 40h20"></path>
</g>
</g>
<path d="M1376 40h10"></path>
<path d="M 1386 40 h 20 m -10 -10 v 20 m 10 -20 v 20"></path>
</g>
</svg>
