<svg xmlns="http://www.w3.org/2000/svg" xmlns:xlink="http://www.w3.org/1999/xlink" class="railroad-diagram" width="522" height="101" viewBox="0 0 522 101">
<defs>
<style type="text/css"><![CDATA[
path {
stroke-width: 3;
stroke: black;
fill: rgba(0,0,0,0);
}
text {
font: bold 14px monospace;
text-anchor: middle;
}
text.diagram-text {
font-size: 12px;
}
a {
fill: blue;
}
text.diagram-arrow {
font-size: 16px;
}
text.label {
text-anchor: start;
}
text.comment {
font: italic 12px monospace;
}
rect {
stroke-width: 3;
stroke: black;
fill: #BCBCBC;
}
path.diagram-text {
stroke-width: 3;
stroke: black;
fill: #BCBCBC;
cursor: help;
}
]]></style>
</defs>
<g transform="translate(.5 .5)">
<path d="M 20 21 v 20 m 10 -20 v 20 m -10 -10 h 20.5"></path>
<path d="M40 31h10"></path>
<g>
<path d="M50 31h0"></path>
<path d="M472 31h0"></path>
<g class="terminal">
<path d="M50 31h0"></path>
<path d="M110 31h0"></path>
<rect x="50" y="20" width="60" height="22" rx="10" ry="10"></rect>
<text x="80" y="35">"GET"</text>
</g>
<path d="M110 31h10"></path>
<path d="M120 31h10"></path>
<g class="non-terminal">
<path d="M130 31h0"></path>
<path d="M198 31h0"></path>
<rect x="130" y="20" width="68" height="22"></rect>
<a xlink:href="reuse_target.svg"><text x="164" y="35">Target</text>
</a>
</g>
<path d="M198 31h10"></path>
<path d="M208 31h10"></path>
<g>
<path d="M218 31h0"></path>
<path d="M472 31h0"></path>
<path d="M248 31h10"></path>
<g class="terminal">
<path d="M258 31h0"></path>
<path d="M326 31h116"></path>
<rect x="258" y="20" width="68" height="22" rx="10" ry="10"></rect>
<text x="292" y="35">"LATE"</text>
</g>
<path d="M442 31h10"></path>
<path d="M248 31v20a10 10 0 0 0 10 10"></path>
<g>
<path d="M258 61h0"></path>
<path d="M442 61h0"></path>
<g class="terminal">
<path d="M258 61h0"></path>
<path d="M342 61h0"></path>
<rect x="258" y="50" width="84" height="22" rx="10" ry="10"></rect>
<text x="300" y="65">"FIELDS"</text>
</g>
<path d="M342 61h10"></path>
<path d="M352 61h10"></path>
<g>
<path d="M362 61h0"></path>
<path d="M442 61h0"></path>
<path d="M362 61h10"></path>
<g class="non-terminal">
<path d="M372 61h0"></path>
<path d="M432 61h0"></path>
<rect x="372" y="50" width="60" height="22"></rect>
<a xlink:href="reuse_field.svg"><text x="402" y="65">Field</text>
</a>
</g>
<path d="M432 61h10"></path>
<path d="M372 61a10 10 0 0 0 -10 10v0a10 10 0 0 0 10 10"></path>
<g>
<path d="M372 81h60"></path>
</g>
<path d="M432 81a10 10 0 0 0 10 -10v0a10 10 0 0 0 -10 -10"></path>
</g>
</g>
<path d="M442 61a10 10 0 0 0 10 -10v-20"></path>
<g class="diagram-text">
<title>take one or more branches, once each, in any order</title>
<path d="M 248 21 h -26 a 4 4 0 0 0 -4 4 v 12 a 4 4 0 0 0 4 4 h 26 z" class="diagram-text"></path>
<text x="233" y="35" class="diagram-text">1+</text>
<path d="M 452 21 h 16 a 4 4 0 0 1 4 4 v 12 a 4 4 0 0 1 -4 4 h -16 z" class="diagram-text"></path>
<path d="M 459 29 a 4 4 0 1 0 6 -1 m 2.75 -1 h -4 v 4 m 0 -3 h 2" style="stroke-width: 1.75"></path>
</g>
</g>
</g>
<path d="M472 31h10"></path>
<path d="M 482 31 h 20 m -10 -10 v 20 m 10 -20 v 20"></path>
</g>
</svg>
