<svg xmlns="http://www.w3.org/2000/svg" xmlns:xlink="http://www.w3.org/1999/xlink" class="railroad-diagram" width="552" height="110" viewBox="0 0 552 110">
<defs>
<style type="text/css"><![CDATA[
path {
stroke-width: 3;
stroke: black;
fill: rgba(0,0,0,0);
}
text {
font: bold 14px monospace;
text-anchor: middle;
}
text.diagram-text {
font-size: 12px;
}
a {
fill: blue;
}
text.diagram-arrow {
font-size: 16px;
}
text.label {
text-anchor: start;
}
text.comment {
font: italic 12px monospace;
}
rect {
stroke-width: 3;
stroke: black;
fill: #BCBCBC;
}
path.diagram-text {
stroke-width: 3;
stroke: black;
fill: #BCBCBC;
cursor: help;
}
]]></style>
</defs>
<g transform="translate(.5 .5)">
<path d="M 20 30 v 20 m 10 -20 v 20 m -10 -10 h 20.5"></path>
<path d="M40 40h10"></path>
<g>
<path d="M50 40h0"></path>
<path d="M502 40h0"></path>
<g class="terminal">
<path d="M50 40h0"></path>
<path d="M110 40h0"></path>
<rect x="50" y="29" width="60" height="22" rx="10" ry="10"></rect>
<text x="80" y="44">"GET"</text>
</g>
<path d="M110 40h10"></path>
<path d="M120 40h10"></path>
<g class="non-terminal">
<path d="M130 40h0"></path>
<path d="M198 40h0"></path>
<rect x="130" y="29" width="68" height="22"></rect>
<a xlink:href="reuse_target.svg"><text x="164" y="44">Target</text>
</a>
</g>
<path d="M198 40h10"></path>
<g>
<path d="M208 40h0"></path>
<path d="M502 40h0"></path>
<path d="M208 40a10 10 0 0 0 10 -10v0a10 10 0 0 1 10 -10"></path>
<g>
<path d="M228 20h254"></path>
</g>
<path d="M482 20a10 10 0 0 1 10 10v0a10 10 0 0 0 10 10"></path>
<path d="M208 40h20"></path>
<g>
<path d="M228 40h0"></path>
<path d="M482 40h0"></path>
<path d="M258 40h10"></path>
<g class="terminal">
<path d="M268 40h0"></path>
<path d="M336 40h116"></path>
<rect x="268" y="29" width="68" height="22" rx="10" ry="10"></rect>
<text x="302" y="44">"LATE"</text>
</g>
<path d="M452 40h10"></path>
<path d="M258 40v20a10 10 0 0 0 10 10"></path>
<g>
<path d="M268 70h0"></path>
<path d="M452 70h0"></path>
<g class="terminal">
<path d="M268 70h0"></path>
<path d="M352 70h0"></path>
<rect x="268" y="59" width="84" height="22" rx="10" ry="10"></rect>
<text x="310" y="74">"FIELDS"</text>
</g>
<path d="M352 70h10"></path>
<path d="M362 70h10"></path>
<g>
<path d="M372 70h0"></path>
<path d="M452 70h0"></path>
<path d="M372 70h10"></path>
<g class="non-terminal">
<path d="M382 70h0"></path>
<path d="M442 70h0"></path>
<rect x="382" y="59" width="60" height="22"></rect>
<a xlink:href="reuse_field.svg"><text x="412" y="74">Field</text>
</a>
</g>
<path d="M442 70h10"></path>
<path d="M382 70a10 10 0 0 0 -10 10v0a10 10 0 0 0 10 10"></path>
<g>
<path d="M382 90h60"></path>
</g>
<path d="M442 90a10 10 0 0 0 10 -10v0a10 10 0 0 0 -10 -10"></path>
</g>
</g>
<path d="M452 70a10 10 0 0 0 10 -10v-20"></path>
<g class="diagram-text">
<title>take one or more branches, once each, in any order</title>
<path d="M 258 30 h -26 a 4 4 0 0 0 -4 4 v 12 a 4 4 0 0 0 4 4 h 26 z" class="diagram-text"></path>
<text x="243" y="44" class="diagram-text">1+</text>
<path d="M 462 30 h 16 a 4 4 0 0 1 4 4 v 12 a 4 4 0 0 1 -4 4 h -16 z" class="diagram-text"></path>
<path d="M 469 38 a 4 4 0 1 0 6 -1 m 2.75 -1 h -4 v 4 m 0 -3 h 2" style="stroke-width: 1.75"></path>
</g>
</g>
<path d="M482 40h20"></path>
</g>
</g>
<path d="M502 40h10"></path>
<path d="M 512 40 h 20 m -10 -10 v 20 m 10 -20 v 20"></path>
</g>
</svg>
