<svg xmlns="http://www.w3.org/2000/svg" xmlns:xlink="http://www.w3.org/1999/xlink" class="railroad-diagram" width="1006" height="71" viewBox="0 0 1006 71">
<defs>
<style type="text/css"><![CDATA[
path {
stroke-width: 3;
stroke: black;
fill: rgba(0,0,0,0);
}
text {
font: bold 14px monospace;
text-anchor: middle;
}
text.diagram-text {
font-size: 12px;
}
a {
fill: blue;
}
text.diagram-arrow {
font-size: 16px;
}
text.label {
text-anchor: start;
}
text.comment {
font: italic 12px monospace;
}
rect {
stroke-width: 3;
stroke: black;
fill: #BCBCBC;
}
path.diagram-text {
stroke-width: 3;
stroke: black;
fill: #BCBCBC;
cursor: help;
}
]]></style>
</defs>
<g transform="translate(.5 .5)">
<path d="M 20 30 v 20 m 10 -20 v 20 m -10 -10 h 20.5"></path>
<path d="M40 40h10"></path>
<g>
<path d="M50 40h0"></path>
<path d="M956 40h0"></path>
<g class="terminal">
<path d="M50 40h0"></path>
<path d="M150 40h0"></path>
<rect x="50" y="29" width="100" height="22" rx="10" ry="10"></rect>
<text x="100" y="44">"GET BADI"</text>
</g>
<path d="M150 40h10"></path>
<path d="M160 40h10"></path>
<g class="non-terminal">
<path d="M170 40h0"></path>
<path d="M238 40h0"></path>
<rect x="170" y="29" width="68" height="22"></rect>
<a xlink:href="reuse_target.svg"><text x="204" y="44">Target</text>
</a>
</g>
<path d="M238 40h10"></path>
<g>
<path d="M248 40h0"></path>
<path d="M452 40h0"></path>
<path d="M248 40a10 10 0 0 0 10 -10v0a10 10 0 0 1 10 -10"></path>
<g>
<path d="M268 20h164"></path>
</g>
<path d="M432 20a10 10 0 0 1 10 10v0a10 10 0 0 0 10 10"></path>
<path d="M248 40h20"></path>
<g>
<path d="M268 40h0"></path>
<path d="M432 40h0"></path>
<g class="terminal">
<path d="M268 40h0"></path>
<path d="M336 40h0"></path>
<rect x="268" y="29" width="68" height="22" rx="10" ry="10"></rect>
<text x="302" y="44">"TYPE"</text>
</g>
<path d="M336 40h10"></path>
<path d="M346 40h10"></path>
<g class="non-terminal">
<path d="M356 40h0"></path>
<path d="M432 40h0"></path>
<rect x="356" y="29" width="76" height="22"></rect>
<a xlink:href="reuse_dynamic.svg"><text x="394" y="44">Dynamic</text>
</a>
</g>
</g>
<path d="M432 40h20"></path>
</g>
<g>
<path d="M452 40h0"></path>
<path d="M736 40h0"></path>
<path d="M452 40a10 10 0 0 0 10 -10v0a10 10 0 0 1 10 -10"></path>
<g>
<path d="M472 20h244"></path>
</g>
<path d="M716 20a10 10 0 0 1 10 10v0a10 10 0 0 0 10 10"></path>
<path d="M452 40h20"></path>
<g>
<path d="M472 40h0"></path>
<path d="M716 40h0"></path>
<g class="terminal">
<path d="M472 40h0"></path>
<path d="M564 40h0"></path>
<rect x="472" y="29" width="92" height="22" rx="10" ry="10"></rect>
<text x="518" y="44">"FILTERS"</text>
</g>
<path d="M564 40h10"></path>
<path d="M574 40h10"></path>
<g class="non-terminal">
<path d="M584 40h0"></path>
<path d="M716 40h0"></path>
<rect x="584" y="29" width="132" height="22"></rect>
<a xlink:href="reuse_parameterlists.svg"><text x="650" y="44">ParameterListS</text>
</a>
</g>
</g>
<path d="M716 40h20"></path>
</g>
<g>
<path d="M736 40h0"></path>
<path d="M956 40h0"></path>
<path d="M736 40a10 10 0 0 0 10 -10v0a10 10 0 0 1 10 -10"></path>
<g>
<path d="M756 20h180"></path>
</g>
<path d="M936 20a10 10 0 0 1 10 10v0a10 10 0 0 0 10 10"></path>
<path d="M736 40h20"></path>
<g>
<path d="M756 40h0"></path>
<path d="M936 40h0"></path>
<g class="terminal">
<path d="M756 40h0"></path>
<path d="M848 40h0"></path>
<rect x="756" y="29" width="92" height="22" rx="10" ry="10"></rect>
<text x="802" y="44">"CONTEXT"</text>
</g>
<path d="M848 40h10"></path>
<path d="M858 40h10"></path>
<g class="non-terminal">
<path d="M868 40h0"></path>
<path d="M936 40h0"></path>
<rect x="868" y="29" width="68" height="22"></rect>
<a xlink:href="reuse_source.svg"><text x="902" y="44">Source</text>
</a>
</g>
</g>
<path d="M936 40h20"></path>
</g>
</g>
<path d="M956 40h10"></path>
<path d="M 966 40 h 20 m -10 -10 v 20 m 10 -20 v 20"></path>
</g>
</svg>
