<svg xmlns="http://www.w3.org/2000/svg" xmlns:xlink="http://www.w3.org/1999/xlink" class="railroad-diagram" width="636" height="101" viewBox="0 0 636 101">
<defs>
<style type="text/css"><![CDATA[
path {
stroke-width: 3;
stroke: black;
fill: rgba(0,0,0,0);
}
text {
font: bold 14px monospace;
text-anchor: middle;
}
text.diagram-text {
font-size: 12px;
}
a {
fill: blue;
}
text.diagram-arrow {
font-size: 16px;
}
text.label {
text-anchor: start;
}
text.comment {
font: italic 12px monospace;
}
rect {
stroke-width: 3;
stroke: black;
fill: #BCBCBC;
}
path.diagram-text {
stroke-width: 3;
stroke: black;
fill: #BCBCBC;
cursor: help;
}
]]></style>
</defs>
<g transform="translate(.5 .5)">
<path d="M 20 30 v 20 m 10 -20 v 20 m -10 -10 h 20.5"></path>
<path d="M40 40h10"></path>
<g>
<path d="M50 40h0"></path>
<path d="M586 40h0"></path>
<g class="terminal">
<path d="M50 40h0"></path>
<path d="M174 40h0"></path>
<rect x="50" y="29" width="124" height="22" rx="10" ry="10"></rect>
<text x="112" y="44">"GET DATASET"</text>
</g>
<path d="M174 40h10"></path>
<path d="M184 40h10"></path>
<g class="non-terminal">
<path d="M194 40h0"></path>
<path d="M262 40h0"></path>
<rect x="194" y="29" width="68" height="22"></rect>
<a xlink:href="reuse_target.svg"><text x="228" y="44">Target</text>
</a>
</g>
<path d="M262 40h10"></path>
<g>
<path d="M272 40h0"></path>
<path d="M586 40h0"></path>
<path d="M272 40a10 10 0 0 0 10 -10v0a10 10 0 0 1 10 -10"></path>
<g>
<path d="M292 20h274"></path>
</g>
<path d="M566 20a10 10 0 0 1 10 10v0a10 10 0 0 0 10 10"></path>
<path d="M272 40h20"></path>
<g>
<path d="M292 40h0"></path>
<path d="M566 40h0"></path>
<path d="M322 40h10"></path>
<g>
<path d="M332 40h0"></path>
<path d="M520 40h16"></path>
<g class="terminal">
<path d="M332 40h0"></path>
<path d="M432 40h0"></path>
<rect x="332" y="29" width="100" height="22" rx="10" ry="10"></rect>
<text x="382" y="44">"POSITION"</text>
</g>
<path d="M432 40h10"></path>
<path d="M442 40h10"></path>
<g class="non-terminal">
<path d="M452 40h0"></path>
<path d="M520 40h0"></path>
<rect x="452" y="29" width="68" height="22"></rect>
<a xlink:href="reuse_target.svg"><text x="486" y="44">Target</text>
</a>
</g>
</g>
<path d="M536 40h10"></path>
<path d="M322 40v20a10 10 0 0 0 10 10"></path>
<g>
<path d="M332 70h0"></path>
<path d="M536 70h0"></path>
<g class="terminal">
<path d="M332 70h0"></path>
<path d="M448 70h0"></path>
<rect x="332" y="59" width="116" height="22" rx="10" ry="10"></rect>
<text x="390" y="74">"ATTRIBUTES"</text>
</g>
<path d="M448 70h10"></path>
<path d="M458 70h10"></path>
<g class="non-terminal">
<path d="M468 70h0"></path>
<path d="M536 70h0"></path>
<rect x="468" y="59" width="68" height="22"></rect>
<a xlink:href="reuse_target.svg"><text x="502" y="74">Target</text>
</a>
</g>
</g>
<path d="M536 70a10 10 0 0 0 10 -10v-20"></path>
<g class="diagram-text">
<title>take one or more branches, once each, in any order</title>
<path d="M 322 30 h -26 a 4 4 0 0 0 -4 4 v 12 a 4 4 0 0 0 4 4 h 26 z" class="diagram-text"></path>
<text x="307" y="44" class="diagram-text">1+</text>
<path d="M 546 30 h 16 a 4 4 0 0 1 4 4 v 12 a 4 4 0 0 1 -4 4 h -16 z" class="diagram-text"></path>
<path d="M 553 38 a 4 4 0 1 0 6 -1 m 2.75 -1 h -4 v 4 m 0 -3 h 2" style="stroke-width: 1.75"></path>
</g>
</g>
<path d="M566 40h20"></path>
</g>
</g>
<path d="M586 40h10"></path>
<path d="M 596 40 h 20 m -10 -10 v 20 m 10 -20 v 20"></path>
</g>
</svg>
