<svg xmlns="http://www.w3.org/2000/svg" xmlns:xlink="http://www.w3.org/1999/xlink" class="railroad-diagram" width="814" height="71" viewBox="0 0 814 71">
<defs>
<style type="text/css"><![CDATA[
path {
stroke-width: 3;
stroke: black;
fill: rgba(0,0,0,0);
}
text {
font: bold 14px monospace;
text-anchor: middle;
}
text.diagram-text {
font-size: 12px;
}
a {
fill: blue;
}
text.diagram-arrow {
font-size: 16px;
}
text.label {
text-anchor: start;
}
text.comment {
font: italic 12px monospace;
}
rect {
stroke-width: 3;
stroke: black;
fill: #BCBCBC;
}
path.diagram-text {
stroke-width: 3;
stroke: black;
fill: #BCBCBC;
cursor: help;
}
]]></style>
</defs>
<g transform="translate(.5 .5)">
<path d="M 20 30 v 20 m 10 -20 v 20 m -10 -10 h 20.5"></path>
<path d="M40 40h10"></path>
<g>
<path d="M50 40h0"></path>
<path d="M764 40h0"></path>
<g class="terminal">
<path d="M50 40h0"></path>
<path d="M238 40h0"></path>
<rect x="50" y="29" width="188" height="22" rx="10" ry="10"></rect>
<text x="144" y="44">"GET LOCALE LANGUAGE"</text>
</g>
<path d="M238 40h10"></path>
<path d="M248 40h10"></path>
<g class="non-terminal">
<path d="M258 40h0"></path>
<path d="M326 40h0"></path>
<rect x="258" y="29" width="68" height="22"></rect>
<a xlink:href="reuse_target.svg"><text x="292" y="44">Target</text>
</a>
</g>
<path d="M326 40h10"></path>
<path d="M336 40h10"></path>
<g>
<path d="M346 40h0"></path>
<path d="M526 40h0"></path>
<g class="terminal">
<path d="M346 40h0"></path>
<path d="M438 40h0"></path>
<rect x="346" y="29" width="92" height="22" rx="10" ry="10"></rect>
<text x="392" y="44">"COUNTRY"</text>
</g>
<path d="M438 40h10"></path>
<path d="M448 40h10"></path>
<g class="non-terminal">
<path d="M458 40h0"></path>
<path d="M526 40h0"></path>
<rect x="458" y="29" width="68" height="22"></rect>
<a xlink:href="reuse_target.svg"><text x="492" y="44">Target</text>
</a>
</g>
</g>
<path d="M526 40h10"></path>
<g>
<path d="M536 40h0"></path>
<path d="M764 40h0"></path>
<path d="M536 40a10 10 0 0 0 10 -10v0a10 10 0 0 1 10 -10"></path>
<g>
<path d="M556 20h188"></path>
</g>
<path d="M744 20a10 10 0 0 1 10 10v0a10 10 0 0 0 10 10"></path>
<path d="M536 40h20"></path>
<g>
<path d="M556 40h0"></path>
<path d="M744 40h0"></path>
<g class="terminal">
<path d="M556 40h0"></path>
<path d="M656 40h0"></path>
<rect x="556" y="29" width="100" height="22" rx="10" ry="10"></rect>
<text x="606" y="44">"MODIFIER"</text>
</g>
<path d="M656 40h10"></path>
<path d="M666 40h10"></path>
<g class="non-terminal">
<path d="M676 40h0"></path>
<path d="M744 40h0"></path>
<rect x="676" y="29" width="68" height="22"></rect>
<a xlink:href="reuse_target.svg"><text x="710" y="44">Target</text>
</a>
</g>
</g>
<path d="M744 40h20"></path>
</g>
</g>
<path d="M764 40h10"></path>
<path d="M 774 40 h 20 m -10 -10 v 20 m 10 -20 v 20"></path>
</g>
</svg>
