<svg xmlns="http://www.w3.org/2000/svg" xmlns:xlink="http://www.w3.org/1999/xlink" class="railroad-diagram" width="1022" height="71" viewBox="0 0 1022 71">
<defs>
<style type="text/css"><![CDATA[
path {
stroke-width: 3;
stroke: black;
fill: rgba(0,0,0,0);
}
text {
font: bold 14px monospace;
text-anchor: middle;
}
text.diagram-text {
font-size: 12px;
}
a {
fill: blue;
}
text.diagram-arrow {
font-size: 16px;
}
text.label {
text-anchor: start;
}
text.comment {
font: italic 12px monospace;
}
rect {
stroke-width: 3;
stroke: black;
fill: #BCBCBC;
}
path.diagram-text {
stroke-width: 3;
stroke: black;
fill: #BCBCBC;
cursor: help;
}
]]></style>
</defs>
<g transform="translate(.5 .5)">
<path d="M 20 30 v 20 m 10 -20 v 20 m -10 -10 h 20.5"></path>
<path d="M40 40h10"></path>
<g>
<path d="M50 40h0"></path>
<path d="M972 40h0"></path>
<g class="terminal">
<path d="M50 40h0"></path>
<path d="M206 40h0"></path>
<rect x="50" y="29" width="156" height="22" rx="10" ry="10"></rect>
<text x="128" y="44">"GET PROPERTY OF"</text>
</g>
<path d="M206 40h10"></path>
<path d="M216 40h10"></path>
<g class="non-terminal">
<path d="M226 40h0"></path>
<path d="M310 40h0"></path>
<rect x="226" y="29" width="84" height="22"></rect>
<a xlink:href="reuse_fieldsub.svg"><text x="268" y="44">FieldSub</text>
</a>
</g>
<path d="M310 40h10"></path>
<path d="M320 40h10"></path>
<g class="non-terminal">
<path d="M330 40h0"></path>
<path d="M390 40h0"></path>
<rect x="330" y="29" width="60" height="22"></rect>
<a xlink:href="reuse_field.svg"><text x="360" y="44">Field</text>
</a>
</g>
<path d="M390 40h10"></path>
<path d="M400 40h10"></path>
<g class="terminal">
<path d="M410 40h0"></path>
<path d="M454 40h0"></path>
<rect x="410" y="29" width="44" height="22" rx="10" ry="10"></rect>
<text x="432" y="44">"="</text>
</g>
<path d="M454 40h10"></path>
<path d="M464 40h10"></path>
<g class="non-terminal">
<path d="M474 40h0"></path>
<path d="M542 40h0"></path>
<rect x="474" y="29" width="68" height="22"></rect>
<a xlink:href="reuse_source.svg"><text x="508" y="44">Source</text>
</a>
</g>
<path d="M542 40h10"></path>
<path d="M552 40h10"></path>
<g class="terminal">
<path d="M562 40h0"></path>
<path d="M662 40h0"></path>
<rect x="562" y="29" width="100" height="22" rx="10" ry="10"></rect>
<text x="612" y="44">"NO FLUSH"</text>
</g>
<path d="M662 40h10"></path>
<g>
<path d="M672 40h0"></path>
<path d="M972 40h0"></path>
<path d="M672 40a10 10 0 0 0 10 -10v0a10 10 0 0 1 10 -10"></path>
<g>
<path d="M692 20h260"></path>
</g>
<path d="M952 20a10 10 0 0 1 10 10v0a10 10 0 0 0 10 10"></path>
<path d="M672 40h20"></path>
<g>
<path d="M692 40h0"></path>
<path d="M952 40h0"></path>
<g class="terminal">
<path d="M692 40h0"></path>
<path d="M800 40h0"></path>
<rect x="692" y="29" width="108" height="22" rx="10" ry="10"></rect>
<text x="746" y="44">"EXPORTING"</text>
</g>
<path d="M800 40h10"></path>
<path d="M810 40h10"></path>
<g class="non-terminal">
<path d="M820 40h0"></path>
<path d="M952 40h0"></path>
<rect x="820" y="29" width="132" height="22"></rect>
<a xlink:href="reuse_parameterlists.svg"><text x="886" y="44">ParameterListS</text>
</a>
</g>
</g>
<path d="M952 40h20"></path>
</g>
</g>
<path d="M972 40h10"></path>
<path d="M 982 40 h 20 m -10 -10 v 20 m 10 -20 v 20"></path>
</g>
</svg>
