<svg xmlns="http://www.w3.org/2000/svg" xmlns:xlink="http://www.w3.org/1999/xlink" class="railroad-diagram" width="794" height="71" viewBox="0 0 794 71">
<defs>
<style type="text/css"><![CDATA[
path {
stroke-width: 3;
stroke: black;
fill: rgba(0,0,0,0);
}
text {
font: bold 14px monospace;
text-anchor: middle;
}
text.diagram-text {
font-size: 12px;
}
a {
fill: blue;
}
text.diagram-arrow {
font-size: 16px;
}
text.label {
text-anchor: start;
}
text.comment {
font: italic 12px monospace;
}
rect {
stroke-width: 3;
stroke: black;
fill: #BCBCBC;
}
path.diagram-text {
stroke-width: 3;
stroke: black;
fill: #BCBCBC;
cursor: help;
}
]]></style>
</defs>
<g transform="translate(.5 .5)">
<path d="M 20 30 v 20 m 10 -20 v 20 m -10 -10 h 20.5"></path>
<path d="M40 40h10"></path>
<g>
<path d="M50 40h0"></path>
<path d="M744 40h0"></path>
<g class="terminal">
<path d="M50 40h0"></path>
<path d="M190 40h0"></path>
<rect x="50" y="29" width="140" height="22" rx="10" ry="10"></rect>
<text x="120" y="44">"GET PF-STATUS"</text>
</g>
<path d="M190 40h10"></path>
<path d="M200 40h10"></path>
<g class="non-terminal">
<path d="M210 40h0"></path>
<path d="M278 40h0"></path>
<rect x="210" y="29" width="68" height="22"></rect>
<a xlink:href="reuse_target.svg"><text x="244" y="44">Target</text>
</a>
</g>
<path d="M278 40h10"></path>
<g>
<path d="M288 40h0"></path>
<path d="M508 40h0"></path>
<path d="M288 40a10 10 0 0 0 10 -10v0a10 10 0 0 1 10 -10"></path>
<g>
<path d="M308 20h180"></path>
</g>
<path d="M488 20a10 10 0 0 1 10 10v0a10 10 0 0 0 10 10"></path>
<path d="M288 40h20"></path>
<g>
<path d="M308 40h0"></path>
<path d="M488 40h0"></path>
<g class="terminal">
<path d="M308 40h0"></path>
<path d="M400 40h0"></path>
<rect x="308" y="29" width="92" height="22" rx="10" ry="10"></rect>
<text x="354" y="44">"PROGRAM"</text>
</g>
<path d="M400 40h10"></path>
<path d="M410 40h10"></path>
<g class="non-terminal">
<path d="M420 40h0"></path>
<path d="M488 40h0"></path>
<rect x="420" y="29" width="68" height="22"></rect>
<a xlink:href="reuse_source.svg"><text x="454" y="44">Source</text>
</a>
</g>
</g>
<path d="M488 40h20"></path>
</g>
<g>
<path d="M508 40h0"></path>
<path d="M744 40h0"></path>
<path d="M508 40a10 10 0 0 0 10 -10v0a10 10 0 0 1 10 -10"></path>
<g>
<path d="M528 20h196"></path>
</g>
<path d="M724 20a10 10 0 0 1 10 10v0a10 10 0 0 0 10 10"></path>
<path d="M508 40h20"></path>
<g>
<path d="M528 40h0"></path>
<path d="M724 40h0"></path>
<g class="terminal">
<path d="M528 40h0"></path>
<path d="M636 40h0"></path>
<rect x="528" y="29" width="108" height="22" rx="10" ry="10"></rect>
<text x="582" y="44">"EXCLUDING"</text>
</g>
<path d="M636 40h10"></path>
<path d="M646 40h10"></path>
<g class="non-terminal">
<path d="M656 40h0"></path>
<path d="M724 40h0"></path>
<rect x="656" y="29" width="68" height="22"></rect>
<a xlink:href="reuse_source.svg"><text x="690" y="44">Source</text>
</a>
</g>
</g>
<path d="M724 40h20"></path>
</g>
</g>
<path d="M744 40h10"></path>
<path d="M 754 40 h 20 m -10 -10 v 20 m 10 -20 v 20"></path>
</g>
</svg>
