<?xml version="1.0" encoding="UTF-8" standalone="no"?>
<!DOCTYPE svg PUBLIC "-//W3C//DTD SVG 1.1//EN"
 "http://www.w3.org/Graphics/SVG/1.1/DTD/svg11.dtd">
<!-- Generated by graphviz version 2.38.0 (20140413.2041)
 -->
<!-- Title: if Pages: 1 -->
<svg width="91pt" height="260pt"
 viewBox="0.00 0.00 91.21 260.00" xmlns="http://www.w3.org/2000/svg" xmlns:xlink="http://www.w3.org/1999/xlink">
<g id="graph0" class="graph" transform="scale(1 1) rotate(0) translate(4 256)">
<title>if</title>
<polygon fill="white" stroke="none" points="-4,4 -4,-256 87.215,-256 87.215,4 -4,4"/>
<!-- start -->
<g id="node1" class="node"><title>start</title>
<polygon fill="none" stroke="black" points="68.6075,-252 14.6075,-252 14.6075,-216 68.6075,-216 68.6075,-252"/>
<text text-anchor="middle" x="41.6075" y="-229.8" font-family="Times,serif" font-size="14.00">Start</text>
</g>
<!-- node43 -->
<g id="node4" class="node"><title>node43</title>
<ellipse fill="none" stroke="black" cx="41.6075" cy="-162" rx="27.4955" ry="18"/>
<text text-anchor="middle" x="41.6075" y="-157.8" font-family="Times,serif" font-size="14.00">&quot;IF&quot;</text>
</g>
<!-- start&#45;&gt;node43 -->
<g id="edge3" class="edge"><title>start&#45;&gt;node43</title>
<path fill="none" stroke="black" d="M41.6075,-215.697C41.6075,-207.983 41.6075,-198.712 41.6075,-190.112"/>
<polygon fill="black" stroke="black" points="45.1076,-190.104 41.6075,-180.104 38.1076,-190.104 45.1076,-190.104"/>
</g>
<!-- end -->
<g id="node2" class="node"><title>end</title>
<polygon fill="none" stroke="black" points="68.6075,-36 14.6075,-36 14.6075,-0 68.6075,-0 68.6075,-36"/>
<text text-anchor="middle" x="41.6075" y="-13.8" font-family="Times,serif" font-size="14.00">End</text>
</g>
<!-- node42 -->
<g id="node3" class="node"><title>node42</title>
<g id="a_node3"><a xlink:href="boolean.svg" xlink:title="&lt;u&gt;boolean&lt;/u&gt;">
<ellipse fill="none" stroke="black" cx="41.6075" cy="-90" rx="41.7153" ry="18"/>
<text text-anchor="start" x="19.4476" y="-86.8" font-family="Times,serif" text-decoration="underline" font-size="14.00" fill="blue">boolean</text>
</a>
</g>
</g>
<!-- node42&#45;&gt;end -->
<g id="edge1" class="edge"><title>node42&#45;&gt;end</title>
<path fill="none" stroke="black" d="M41.6075,-71.6966C41.6075,-63.9827 41.6075,-54.7125 41.6075,-46.1124"/>
<polygon fill="black" stroke="black" points="45.1076,-46.1043 41.6075,-36.1043 38.1076,-46.1044 45.1076,-46.1043"/>
</g>
<!-- node43&#45;&gt;node42 -->
<g id="edge2" class="edge"><title>node43&#45;&gt;node42</title>
<path fill="none" stroke="black" d="M41.6075,-143.697C41.6075,-135.983 41.6075,-126.712 41.6075,-118.112"/>
<polygon fill="black" stroke="black" points="45.1076,-118.104 41.6075,-108.104 38.1076,-118.104 45.1076,-118.104"/>
</g>
</g>
</svg>
