<?xml version="1.0" encoding="UTF-8" standalone="no"?>
<!DOCTYPE svg PUBLIC "-//W3C//DTD SVG 1.1//EN"
 "http://www.w3.org/Graphics/SVG/1.1/DTD/svg11.dtd">
<!-- Generated by graphviz version 2.38.0 (20140413.2041)
 -->
<!-- Title: if Pages: 1 -->
<svg width="68pt" height="260pt"
 viewBox="0.00 0.00 67.62 260.00" xmlns="http://www.w3.org/2000/svg" xmlns:xlink="http://www.w3.org/1999/xlink">
<g id="graph0" class="graph" transform="scale(1 1) rotate(0) translate(4 256)">
<title>if</title>
<polygon fill="white" stroke="none" points="-4,4 -4,-256 63.6173,-256 63.6173,4 -4,4"/>
<!-- start -->
<g id="node1" class="node"><title>start</title>
<polygon fill="none" stroke="black" points="56.8086,-252 2.80864,-252 2.80864,-216 56.8086,-216 56.8086,-252"/>
<text text-anchor="middle" x="29.8086" y="-229.8" font-family="Times,serif" font-size="14.00">Start</text>
</g>
<!-- node226 -->
<g id="node4" class="node"><title>node226</title>
<ellipse fill="none" stroke="black" cx="29.8086" cy="-162" rx="27.4955" ry="18"/>
<text text-anchor="middle" x="29.8086" y="-157.8" font-family="Times,serif" font-size="14.00">&quot;IF&quot;</text>
</g>
<!-- start&#45;&gt;node226 -->
<g id="edge3" class="edge"><title>start&#45;&gt;node226</title>
<path fill="none" stroke="black" d="M29.8086,-215.697C29.8086,-207.983 29.8086,-198.712 29.8086,-190.112"/>
<polygon fill="black" stroke="black" points="33.3087,-190.104 29.8086,-180.104 26.3087,-190.104 33.3087,-190.104"/>
</g>
<!-- end -->
<g id="node2" class="node"><title>end</title>
<polygon fill="none" stroke="black" points="56.8086,-36 2.80864,-36 2.80864,-0 56.8086,-0 56.8086,-36"/>
<text text-anchor="middle" x="29.8086" y="-13.8" font-family="Times,serif" font-size="14.00">End</text>
</g>
<!-- node225 -->
<g id="node3" class="node"><title>node225</title>
<g id="a_node3"><a xlink:href="reuse_cond.svg" xlink:title="&lt;u&gt;cond&lt;/u&gt;">
<ellipse fill="none" stroke="black" cx="29.8086" cy="-90" rx="29.6185" ry="18"/>
<text text-anchor="start" x="16.2013" y="-86.8" font-family="Times,serif" text-decoration="underline" font-size="14.00" fill="blue">cond</text>
</a>
</g>
</g>
<!-- node225&#45;&gt;end -->
<g id="edge1" class="edge"><title>node225&#45;&gt;end</title>
<path fill="none" stroke="black" d="M29.8086,-71.6966C29.8086,-63.9827 29.8086,-54.7125 29.8086,-46.1124"/>
<polygon fill="black" stroke="black" points="33.3087,-46.1043 29.8086,-36.1043 26.3087,-46.1044 33.3087,-46.1043"/>
</g>
<!-- node226&#45;&gt;node225 -->
<g id="edge2" class="edge"><title>node226&#45;&gt;node225</title>
<path fill="none" stroke="black" d="M29.8086,-143.697C29.8086,-135.983 29.8086,-126.712 29.8086,-118.112"/>
<polygon fill="black" stroke="black" points="33.3087,-118.104 29.8086,-108.104 26.3087,-118.104 33.3087,-118.104"/>
</g>
</g>
</svg>
