<svg xmlns="http://www.w3.org/2000/svg" xmlns:xlink="http://www.w3.org/1999/xlink" class="railroad-diagram" width="752" height="62" viewBox="0 0 752 62">
<defs>
<style type="text/css"><![CDATA[
path {
stroke-width: 3;
stroke: black;
fill: rgba(0,0,0,0);
}
text {
font: bold 14px monospace;
text-anchor: middle;
}
text.diagram-text {
font-size: 12px;
}
a {
fill: blue;
}
text.diagram-arrow {
font-size: 16px;
}
text.label {
text-anchor: start;
}
text.comment {
font: italic 12px monospace;
}
rect {
stroke-width: 3;
stroke: black;
fill: #BCBCBC;
}
path.diagram-text {
stroke-width: 3;
stroke: black;
fill: #BCBCBC;
cursor: help;
}
]]></style>
</defs>
<g transform="translate(.5 .5)">
<path d="M 20 21 v 20 m 10 -20 v 20 m -10 -10 h 20.5"></path>
<path d="M40 31h10"></path>
<g>
<path d="M50 31h0"></path>
<path d="M702 31h0"></path>
<g class="terminal">
<path d="M50 31h0"></path>
<path d="M190 31h0"></path>
<rect x="50" y="20" width="140" height="22" rx="10" ry="10"></rect>
<text x="120" y="35">"IMPORT DYNPRO"</text>
</g>
<path d="M190 31h10"></path>
<path d="M200 31h10"></path>
<g class="non-terminal">
<path d="M210 31h0"></path>
<path d="M278 31h0"></path>
<rect x="210" y="20" width="68" height="22"></rect>
<a xlink:href="reuse_Target.svg"><text x="244" y="35">Target</text>
</a>
</g>
<path d="M278 31h10"></path>
<path d="M288 31h10"></path>
<g class="non-terminal">
<path d="M298 31h0"></path>
<path d="M366 31h0"></path>
<rect x="298" y="20" width="68" height="22"></rect>
<a xlink:href="reuse_Target.svg"><text x="332" y="35">Target</text>
</a>
</g>
<path d="M366 31h10"></path>
<path d="M376 31h10"></path>
<g class="non-terminal">
<path d="M386 31h0"></path>
<path d="M454 31h0"></path>
<rect x="386" y="20" width="68" height="22"></rect>
<a xlink:href="reuse_Target.svg"><text x="420" y="35">Target</text>
</a>
</g>
<path d="M454 31h10"></path>
<path d="M464 31h10"></path>
<g class="non-terminal">
<path d="M474 31h0"></path>
<path d="M542 31h0"></path>
<rect x="474" y="20" width="68" height="22"></rect>
<a xlink:href="reuse_Target.svg"><text x="508" y="35">Target</text>
</a>
</g>
<path d="M542 31h10"></path>
<path d="M552 31h10"></path>
<g class="terminal">
<path d="M562 31h0"></path>
<path d="M614 31h0"></path>
<rect x="562" y="20" width="52" height="22" rx="10" ry="10"></rect>
<text x="588" y="35">"ID"</text>
</g>
<path d="M614 31h10"></path>
<path d="M624 31h10"></path>
<g class="non-terminal">
<path d="M634 31h0"></path>
<path d="M702 31h0"></path>
<rect x="634" y="20" width="68" height="22"></rect>
<a xlink:href="reuse_Source.svg"><text x="668" y="35">Source</text>
</a>
</g>
</g>
<path d="M702 31h10"></path>
<path d="M 712 31 h 20 m -10 -10 v 20 m 10 -20 v 20"></path>
</g>
</svg>
