<svg xmlns="http://www.w3.org/2000/svg" xmlns:xlink="http://www.w3.org/1999/xlink" class="railroad-diagram" width="1118" height="131" viewBox="0 0 1118 131">
<defs>
<style type="text/css"><![CDATA[
path {
stroke-width: 3;
stroke: black;
fill: rgba(0,0,0,0);
}
text {
font: bold 14px monospace;
text-anchor: middle;
}
text.diagram-text {
font-size: 12px;
}
a {
fill: blue;
}
text.diagram-arrow {
font-size: 16px;
}
text.label {
text-anchor: start;
}
text.comment {
font: italic 12px monospace;
}
rect {
stroke-width: 3;
stroke: black;
fill: #BCBCBC;
}
path.diagram-text {
stroke-width: 3;
stroke: black;
fill: #BCBCBC;
cursor: help;
}
]]></style>
</defs>
<g transform="translate(.5 .5)">
<path d="M 20 21 v 20 m 10 -20 v 20 m -10 -10 h 20.5"></path>
<path d="M40 31h10"></path>
<g>
<path d="M50 31h0"></path>
<path d="M1068 31h0"></path>
<g class="terminal">
<path d="M50 31h0"></path>
<path d="M134 31h0"></path>
<rect x="50" y="20" width="84" height="22" rx="10" ry="10"></rect>
<text x="92" y="35">"IMPORT"</text>
</g>
<path d="M134 31h10"></path>
<g>
<path d="M144 31h0"></path>
<path d="M432 31h0"></path>
<path d="M144 31h20"></path>
<g class="non-terminal">
<path d="M164 31h0"></path>
<path d="M312 31h100"></path>
<rect x="164" y="20" width="148" height="22"></rect>
<a xlink:href="reuse_parameter_list_t.svg"><text x="238" y="35">parameter&#95;list&#95;t</text>
</a>
</g>
<path d="M412 31h20"></path>
<path d="M144 31a10 10 0 0 1 10 10v10a10 10 0 0 0 10 10"></path>
<g>
<path d="M164 61h0"></path>
<path d="M412 61h0"></path>
<path d="M164 61h10"></path>
<g>
<path d="M174 61h0"></path>
<path d="M402 61h0"></path>
<g class="non-terminal">
<path d="M174 61h0"></path>
<path d="M242 61h0"></path>
<rect x="174" y="50" width="68" height="22"></rect>
<a xlink:href="reuse_source.svg"><text x="208" y="65">source</text>
</a>
</g>
<path d="M242 61h10"></path>
<path d="M252 61h10"></path>
<g class="terminal">
<path d="M262 61h0"></path>
<path d="M314 61h0"></path>
<rect x="262" y="50" width="52" height="22" rx="10" ry="10"></rect>
<text x="288" y="65">"TO"</text>
</g>
<path d="M314 61h10"></path>
<path d="M324 61h10"></path>
<g class="non-terminal">
<path d="M334 61h0"></path>
<path d="M402 61h0"></path>
<rect x="334" y="50" width="68" height="22"></rect>
<a xlink:href="reuse_target.svg"><text x="368" y="65">target</text>
</a>
</g>
</g>
<path d="M402 61h10"></path>
<path d="M174 61a10 10 0 0 0 -10 10v0a10 10 0 0 0 10 10"></path>
<g>
<path d="M174 81h228"></path>
</g>
<path d="M402 81a10 10 0 0 0 10 -10v0a10 10 0 0 0 -10 -10"></path>
</g>
<path d="M412 61a10 10 0 0 0 10 -10v-10a10 10 0 0 1 10 -10"></path>
<path d="M144 31a10 10 0 0 1 10 10v49a10 10 0 0 0 10 10"></path>
<g class="non-terminal">
<path d="M164 100h0"></path>
<path d="M240 100h172"></path>
<rect x="164" y="89" width="76" height="22"></rect>
<a xlink:href="reuse_dynamic.svg"><text x="202" y="104">dynamic</text>
</a>
</g>
<path d="M412 100a10 10 0 0 0 10 -10v-49a10 10 0 0 1 10 -10"></path>
</g>
<path d="M432 31h10"></path>
<g class="terminal">
<path d="M442 31h0"></path>
<path d="M510 31h0"></path>
<rect x="442" y="20" width="68" height="22" rx="10" ry="10"></rect>
<text x="476" y="35">"FROM"</text>
</g>
<path d="M510 31h10"></path>
<g>
<path d="M520 31h0"></path>
<path d="M1068 31h0"></path>
<path d="M520 31h20"></path>
<g>
<path d="M540 31h0"></path>
<path d="M752 31h296"></path>
<g class="terminal">
<path d="M540 31h0"></path>
<path d="M664 31h0"></path>
<rect x="540" y="20" width="124" height="22" rx="10" ry="10"></rect>
<text x="602" y="35">"DATA BUFFER"</text>
</g>
<path d="M664 31h10"></path>
<path d="M674 31h10"></path>
<g class="non-terminal">
<path d="M684 31h0"></path>
<path d="M752 31h0"></path>
<rect x="684" y="20" width="68" height="22"></rect>
<a xlink:href="reuse_source.svg"><text x="718" y="35">source</text>
</a>
</g>
</g>
<path d="M1048 31h20"></path>
<path d="M520 31a10 10 0 0 1 10 10v10a10 10 0 0 0 10 10"></path>
<g>
<path d="M540 61h0"></path>
<path d="M736 61h312"></path>
<g class="terminal">
<path d="M540 61h0"></path>
<path d="M648 61h0"></path>
<rect x="540" y="50" width="108" height="22" rx="10" ry="10"></rect>
<text x="594" y="65">"MEMORY ID"</text>
</g>
<path d="M648 61h10"></path>
<path d="M658 61h10"></path>
<g class="non-terminal">
<path d="M668 61h0"></path>
<path d="M736 61h0"></path>
<rect x="668" y="50" width="68" height="22"></rect>
<a xlink:href="reuse_source.svg"><text x="702" y="65">source</text>
</a>
</g>
</g>
<path d="M1048 61a10 10 0 0 0 10 -10v-10a10 10 0 0 1 10 -10"></path>
<path d="M520 31a10 10 0 0 1 10 10v40a10 10 0 0 0 10 10"></path>
<g>
<path d="M540 91h0"></path>
<path d="M1048 91h0"></path>
<g class="terminal">
<path d="M540 91h0"></path>
<path d="M640 91h0"></path>
<rect x="540" y="80" width="100" height="22" rx="10" ry="10"></rect>
<text x="590" y="95">"DATABASE"</text>
</g>
<path d="M640 91h10"></path>
<path d="M650 91h10"></path>
<g class="non-terminal">
<path d="M660 91h0"></path>
<path d="M728 91h0"></path>
<rect x="660" y="80" width="68" height="22"></rect>
<a xlink:href="reuse_source.svg"><text x="694" y="95">source</text>
</a>
</g>
<path d="M728 91h10"></path>
<path d="M738 91h10"></path>
<g class="terminal">
<path d="M748 91h0"></path>
<path d="M800 91h0"></path>
<rect x="748" y="80" width="52" height="22" rx="10" ry="10"></rect>
<text x="774" y="95">"TO"</text>
</g>
<path d="M800 91h10"></path>
<path d="M810 91h10"></path>
<g class="non-terminal">
<path d="M820 91h0"></path>
<path d="M888 91h0"></path>
<rect x="820" y="80" width="68" height="22"></rect>
<a xlink:href="reuse_target.svg"><text x="854" y="95">target</text>
</a>
</g>
<path d="M888 91h10"></path>
<path d="M898 91h10"></path>
<g>
<path d="M908 91h0"></path>
<path d="M1048 91h0"></path>
<g class="terminal">
<path d="M908 91h0"></path>
<path d="M960 91h0"></path>
<rect x="908" y="80" width="52" height="22" rx="10" ry="10"></rect>
<text x="934" y="95">"ID"</text>
</g>
<path d="M960 91h10"></path>
<path d="M970 91h10"></path>
<g class="non-terminal">
<path d="M980 91h0"></path>
<path d="M1048 91h0"></path>
<rect x="980" y="80" width="68" height="22"></rect>
<a xlink:href="reuse_source.svg"><text x="1014" y="95">source</text>
</a>
</g>
</g>
</g>
<path d="M1048 91a10 10 0 0 0 10 -10v-40a10 10 0 0 1 10 -10"></path>
</g>
</g>
<path d="M1068 31h10"></path>
<path d="M 1078 31 h 20 m -10 -10 v 20 m 10 -20 v 20"></path>
</g>
</svg>
