<svg xmlns="http://www.w3.org/2000/svg" xmlns:xlink="http://www.w3.org/1999/xlink" class="railroad-diagram" width="1502" height="191" viewBox="0 0 1502 191">
<defs>
<style type="text/css"><![CDATA[
path {
stroke-width: 3;
stroke: black;
fill: rgba(0,0,0,0);
}
text {
font: bold 14px monospace;
text-anchor: middle;
}
text.diagram-text {
font-size: 12px;
}
a {
fill: blue;
}
text.diagram-arrow {
font-size: 16px;
}
text.label {
text-anchor: start;
}
text.comment {
font: italic 12px monospace;
}
rect {
stroke-width: 3;
stroke: black;
fill: #BCBCBC;
}
path.diagram-text {
stroke-width: 3;
stroke: black;
fill: #BCBCBC;
cursor: help;
}
]]></style>
</defs>
<g transform="translate(.5 .5)">
<path d="M 20 21 v 20 m 10 -20 v 20 m -10 -10 h 20.5"></path>
<path d="M40 31h10"></path>
<g>
<path d="M50 31h0"></path>
<path d="M1452 31h0"></path>
<g class="terminal">
<path d="M50 31h0"></path>
<path d="M134 31h0"></path>
<rect x="50" y="20" width="84" height="22" rx="10" ry="10"></rect>
<text x="92" y="35">"IMPORT"</text>
</g>
<path d="M134 31h10"></path>
<g>
<path d="M144 31h0"></path>
<path d="M432 31h0"></path>
<path d="M144 31h20"></path>
<g class="non-terminal">
<path d="M164 31h0"></path>
<path d="M296 31h116"></path>
<rect x="164" y="20" width="132" height="22"></rect>
<a xlink:href="reuse_parameterlistt.svg"><text x="230" y="35">ParameterListT</text>
</a>
</g>
<path d="M412 31h20"></path>
<path d="M144 31a10 10 0 0 1 10 10v10a10 10 0 0 0 10 10"></path>
<g>
<path d="M164 61h0"></path>
<path d="M412 61h0"></path>
<path d="M164 61h10"></path>
<g>
<path d="M174 61h0"></path>
<path d="M402 61h0"></path>
<g class="non-terminal">
<path d="M174 61h0"></path>
<path d="M242 61h0"></path>
<rect x="174" y="50" width="68" height="22"></rect>
<a xlink:href="reuse_source.svg"><text x="208" y="65">Source</text>
</a>
</g>
<path d="M242 61h10"></path>
<path d="M252 61h10"></path>
<g class="terminal">
<path d="M262 61h0"></path>
<path d="M314 61h0"></path>
<rect x="262" y="50" width="52" height="22" rx="10" ry="10"></rect>
<text x="288" y="65">"TO"</text>
</g>
<path d="M314 61h10"></path>
<path d="M324 61h10"></path>
<g class="non-terminal">
<path d="M334 61h0"></path>
<path d="M402 61h0"></path>
<rect x="334" y="50" width="68" height="22"></rect>
<a xlink:href="reuse_target.svg"><text x="368" y="65">Target</text>
</a>
</g>
</g>
<path d="M402 61h10"></path>
<path d="M174 61a10 10 0 0 0 -10 10v0a10 10 0 0 0 10 10"></path>
<g>
<path d="M174 81h228"></path>
</g>
<path d="M402 81a10 10 0 0 0 10 -10v0a10 10 0 0 0 -10 -10"></path>
</g>
<path d="M412 61a10 10 0 0 0 10 -10v-10a10 10 0 0 1 10 -10"></path>
<path d="M144 31a10 10 0 0 1 10 10v49a10 10 0 0 0 10 10"></path>
<g class="non-terminal">
<path d="M164 100h0"></path>
<path d="M240 100h172"></path>
<rect x="164" y="89" width="76" height="22"></rect>
<a xlink:href="reuse_dynamic.svg"><text x="202" y="104">Dynamic</text>
</a>
</g>
<path d="M412 100a10 10 0 0 0 10 -10v-49a10 10 0 0 1 10 -10"></path>
<path d="M144 31a10 10 0 0 1 10 10v79a10 10 0 0 0 10 10"></path>
<g>
<path d="M164 130h0"></path>
<path d="M252 130h160"></path>
<path d="M164 130h10"></path>
<g class="non-terminal">
<path d="M174 130h0"></path>
<path d="M242 130h0"></path>
<rect x="174" y="119" width="68" height="22"></rect>
<a xlink:href="reuse_target.svg"><text x="208" y="134">Target</text>
</a>
</g>
<path d="M242 130h10"></path>
<path d="M174 130a10 10 0 0 0 -10 10v0a10 10 0 0 0 10 10"></path>
<g>
<path d="M174 150h68"></path>
</g>
<path d="M242 150a10 10 0 0 0 10 -10v0a10 10 0 0 0 -10 -10"></path>
</g>
<path d="M412 130a10 10 0 0 0 10 -10v-79a10 10 0 0 1 10 -10"></path>
</g>
<path d="M432 31h10"></path>
<g class="terminal">
<path d="M442 31h0"></path>
<path d="M510 31h0"></path>
<rect x="442" y="20" width="68" height="22" rx="10" ry="10"></rect>
<text x="476" y="35">"FROM"</text>
</g>
<path d="M510 31h10"></path>
<g>
<path d="M520 31h0"></path>
<path d="M1452 31h0"></path>
<path d="M520 31h20"></path>
<g>
<path d="M540 31h0"></path>
<path d="M752 31h680"></path>
<g class="terminal">
<path d="M540 31h0"></path>
<path d="M664 31h0"></path>
<rect x="540" y="20" width="124" height="22" rx="10" ry="10"></rect>
<text x="602" y="35">"DATA BUFFER"</text>
</g>
<path d="M664 31h10"></path>
<path d="M674 31h10"></path>
<g class="non-terminal">
<path d="M684 31h0"></path>
<path d="M752 31h0"></path>
<rect x="684" y="20" width="68" height="22"></rect>
<a xlink:href="reuse_source.svg"><text x="718" y="35">Source</text>
</a>
</g>
</g>
<path d="M1432 31h20"></path>
<path d="M520 31a10 10 0 0 1 10 10v10a10 10 0 0 0 10 10"></path>
<g>
<path d="M540 61h0"></path>
<path d="M736 61h696"></path>
<g class="terminal">
<path d="M540 61h0"></path>
<path d="M648 61h0"></path>
<rect x="540" y="50" width="108" height="22" rx="10" ry="10"></rect>
<text x="594" y="65">"MEMORY ID"</text>
</g>
<path d="M648 61h10"></path>
<path d="M658 61h10"></path>
<g class="non-terminal">
<path d="M668 61h0"></path>
<path d="M736 61h0"></path>
<rect x="668" y="50" width="68" height="22"></rect>
<a xlink:href="reuse_source.svg"><text x="702" y="65">Source</text>
</a>
</g>
</g>
<path d="M1432 61a10 10 0 0 0 10 -10v-10a10 10 0 0 1 10 -10"></path>
<path d="M520 31a10 10 0 0 1 10 10v49a10 10 0 0 0 10 10"></path>
<g>
<path d="M540 100h0"></path>
<path d="M1432 100h0"></path>
<g class="terminal">
<path d="M540 100h0"></path>
<path d="M640 100h0"></path>
<rect x="540" y="89" width="100" height="22" rx="10" ry="10"></rect>
<text x="590" y="104">"DATABASE"</text>
</g>
<path d="M640 100h10"></path>
<path d="M650 100h10"></path>
<g class="non-terminal">
<path d="M660 100h0"></path>
<path d="M728 100h0"></path>
<rect x="660" y="89" width="68" height="22"></rect>
<a xlink:href="reuse_source.svg"><text x="694" y="104">Source</text>
</a>
</g>
<path d="M728 100h10"></path>
<g>
<path d="M738 100h0"></path>
<path d="M918 100h0"></path>
<path d="M738 100a10 10 0 0 0 10 -10v0a10 10 0 0 1 10 -10"></path>
<g>
<path d="M758 80h140"></path>
</g>
<path d="M898 80a10 10 0 0 1 10 10v0a10 10 0 0 0 10 10"></path>
<path d="M738 100h20"></path>
<g>
<path d="M758 100h0"></path>
<path d="M898 100h0"></path>
<g class="terminal">
<path d="M758 100h0"></path>
<path d="M810 100h0"></path>
<rect x="758" y="89" width="52" height="22" rx="10" ry="10"></rect>
<text x="784" y="104">"TO"</text>
</g>
<path d="M810 100h10"></path>
<path d="M820 100h10"></path>
<g class="non-terminal">
<path d="M830 100h0"></path>
<path d="M898 100h0"></path>
<rect x="830" y="89" width="68" height="22"></rect>
<a xlink:href="reuse_target.svg"><text x="864" y="104">Target</text>
</a>
</g>
</g>
<path d="M898 100h20"></path>
</g>
<path d="M918 100h10"></path>
<g>
<path d="M928 100h0"></path>
<path d="M1068 100h0"></path>
<g class="terminal">
<path d="M928 100h0"></path>
<path d="M980 100h0"></path>
<rect x="928" y="89" width="52" height="22" rx="10" ry="10"></rect>
<text x="954" y="104">"ID"</text>
</g>
<path d="M980 100h10"></path>
<path d="M990 100h10"></path>
<g class="non-terminal">
<path d="M1000 100h0"></path>
<path d="M1068 100h0"></path>
<rect x="1000" y="89" width="68" height="22"></rect>
<a xlink:href="reuse_source.svg"><text x="1034" y="104">Source</text>
</a>
</g>
</g>
<path d="M1068 100h10"></path>
<g>
<path d="M1078 100h0"></path>
<path d="M1432 100h0"></path>
<path d="M1078 100a10 10 0 0 0 10 -10v0a10 10 0 0 1 10 -10"></path>
<g>
<path d="M1098 80h314"></path>
</g>
<path d="M1412 80a10 10 0 0 1 10 10v0a10 10 0 0 0 10 10"></path>
<path d="M1078 100h20"></path>
<g>
<path d="M1098 100h0"></path>
<path d="M1412 100h0"></path>
<path d="M1128 100h10"></path>
<g class="terminal">
<path d="M1138 100h0"></path>
<path d="M1310 100h72"></path>
<rect x="1138" y="89" width="172" height="22" rx="10" ry="10"></rect>
<text x="1224" y="104">"ACCEPTING PADDING"</text>
</g>
<path d="M1382 100h10"></path>
<path d="M1128 100v20a10 10 0 0 0 10 10"></path>
<g class="terminal">
<path d="M1138 130h0"></path>
<path d="M1382 130h0"></path>
<rect x="1138" y="119" width="244" height="22" rx="10" ry="10"></rect>
<text x="1260" y="134">"IGNORING CONVERSION ERRORS"</text>
</g>
<path d="M1382 130a10 10 0 0 0 10 -10v-20"></path>
<path d="M1128 100v50a10 10 0 0 0 10 10"></path>
<g class="terminal">
<path d="M1138 160h0"></path>
<path d="M1334 160h48"></path>
<rect x="1138" y="149" width="196" height="22" rx="10" ry="10"></rect>
<text x="1236" y="164">"ACCEPTING TRUNCATION"</text>
</g>
<path d="M1382 160a10 10 0 0 0 10 -10v-50"></path>
<g class="diagram-text">
<title>take one or more branches, once each, in any order</title>
<path d="M 1128 90 h -26 a 4 4 0 0 0 -4 4 v 12 a 4 4 0 0 0 4 4 h 26 z" class="diagram-text"></path>
<text x="1113" y="104" class="diagram-text">1+</text>
<path d="M 1392 90 h 16 a 4 4 0 0 1 4 4 v 12 a 4 4 0 0 1 -4 4 h -16 z" class="diagram-text"></path>
<path d="M 1399 98 a 4 4 0 1 0 6 -1 m 2.75 -1 h -4 v 4 m 0 -3 h 2" style="stroke-width: 1.75"></path>
</g>
</g>
<path d="M1412 100h20"></path>
</g>
</g>
<path d="M1432 100a10 10 0 0 0 10 -10v-49a10 10 0 0 1 10 -10"></path>
</g>
</g>
<path d="M1452 31h10"></path>
<path d="M 1462 31 h 20 m -10 -10 v 20 m 10 -20 v 20"></path>
</g>
</svg>
