<svg xmlns="http://www.w3.org/2000/svg" xmlns:xlink="http://www.w3.org/1999/xlink" class="railroad-diagram" width="1428" height="221" viewBox="0 0 1428 221">
<defs>
<style type="text/css"><![CDATA[
path {
stroke-width: 3;
stroke: black;
fill: rgba(0,0,0,0);
}
text {
font: bold 14px monospace;
text-anchor: middle;
}
text.diagram-text {
font-size: 12px;
}
a {
fill: blue;
}
text.diagram-arrow {
font-size: 16px;
}
text.label {
text-anchor: start;
}
text.comment {
font: italic 12px monospace;
}
rect {
stroke-width: 3;
stroke: black;
fill: #BCBCBC;
}
path.diagram-text {
stroke-width: 3;
stroke: black;
fill: #BCBCBC;
cursor: help;
}
]]></style>
</defs>
<g transform="translate(.5 .5)">
<path d="M 20 21 v 20 m 10 -20 v 20 m -10 -10 h 20.5"></path>
<path d="M40 31h10"></path>
<g>
<path d="M50 31h0"></path>
<path d="M1378 31h0"></path>
<g class="terminal">
<path d="M50 31h0"></path>
<path d="M134 31h0"></path>
<rect x="50" y="20" width="84" height="22" rx="10" ry="10"></rect>
<text x="92" y="35">"IMPORT"</text>
</g>
<path d="M134 31h10"></path>
<g>
<path d="M144 31h0"></path>
<path d="M468 31h0"></path>
<path d="M144 31h20"></path>
<g class="non-terminal">
<path d="M164 31h0"></path>
<path d="M296 31h152"></path>
<rect x="164" y="20" width="132" height="22"></rect>
<a xlink:href="reuse_parameterlistt.svg"><text x="230" y="35">ParameterListT</text>
</a>
</g>
<path d="M448 31h20"></path>
<path d="M144 31a10 10 0 0 1 10 10v10a10 10 0 0 0 10 10"></path>
<g>
<path d="M164 61h0"></path>
<path d="M448 61h0"></path>
<path d="M164 61h10"></path>
<g>
<path d="M174 61h0"></path>
<path d="M438 61h0"></path>
<g class="non-terminal">
<path d="M174 61h0"></path>
<path d="M242 61h0"></path>
<rect x="174" y="50" width="68" height="22"></rect>
<a xlink:href="reuse_source.svg"><text x="208" y="65">Source</text>
</a>
</g>
<path d="M242 61h10"></path>
<g>
<path d="M252 61h0"></path>
<path d="M360 61h0"></path>
<path d="M252 61h20"></path>
<g class="terminal">
<path d="M272 61h0"></path>
<path d="M324 61h16"></path>
<rect x="272" y="50" width="52" height="22" rx="10" ry="10"></rect>
<text x="298" y="65">"TO"</text>
</g>
<path d="M340 61h20"></path>
<path d="M252 61a10 10 0 0 1 10 10v10a10 10 0 0 0 10 10"></path>
<g class="terminal">
<path d="M272 91h0"></path>
<path d="M340 91h0"></path>
<rect x="272" y="80" width="68" height="22" rx="10" ry="10"></rect>
<text x="306" y="95">"INTO"</text>
</g>
<path d="M340 91a10 10 0 0 0 10 -10v-10a10 10 0 0 1 10 -10"></path>
</g>
<path d="M360 61h10"></path>
<g class="non-terminal">
<path d="M370 61h0"></path>
<path d="M438 61h0"></path>
<rect x="370" y="50" width="68" height="22"></rect>
<a xlink:href="reuse_target.svg"><text x="404" y="65">Target</text>
</a>
</g>
</g>
<path d="M438 61h10"></path>
<path d="M174 61a10 10 0 0 0 -10 10v29a10 10 0 0 0 10 10"></path>
<g>
<path d="M174 110h264"></path>
</g>
<path d="M438 110a10 10 0 0 0 10 -10v-29a10 10 0 0 0 -10 -10"></path>
</g>
<path d="M448 61a10 10 0 0 0 10 -10v-10a10 10 0 0 1 10 -10"></path>
<path d="M144 31a10 10 0 0 1 10 10v78a10 10 0 0 0 10 10"></path>
<g class="non-terminal">
<path d="M164 129h0"></path>
<path d="M240 129h208"></path>
<rect x="164" y="118" width="76" height="22"></rect>
<a xlink:href="reuse_dynamic.svg"><text x="202" y="133">Dynamic</text>
</a>
</g>
<path d="M448 129a10 10 0 0 0 10 -10v-78a10 10 0 0 1 10 -10"></path>
<path d="M144 31a10 10 0 0 1 10 10v108a10 10 0 0 0 10 10"></path>
<g>
<path d="M164 159h0"></path>
<path d="M252 159h196"></path>
<path d="M164 159h10"></path>
<g class="non-terminal">
<path d="M174 159h0"></path>
<path d="M242 159h0"></path>
<rect x="174" y="148" width="68" height="22"></rect>
<a xlink:href="reuse_target.svg"><text x="208" y="163">Target</text>
</a>
</g>
<path d="M242 159h10"></path>
<path d="M174 159a10 10 0 0 0 -10 10v0a10 10 0 0 0 10 10"></path>
<g>
<path d="M174 179h68"></path>
</g>
<path d="M242 179a10 10 0 0 0 10 -10v0a10 10 0 0 0 -10 -10"></path>
</g>
<path d="M448 159a10 10 0 0 0 10 -10v-108a10 10 0 0 1 10 -10"></path>
</g>
<path d="M468 31h10"></path>
<g class="terminal">
<path d="M478 31h0"></path>
<path d="M546 31h0"></path>
<rect x="478" y="20" width="68" height="22" rx="10" ry="10"></rect>
<text x="512" y="35">"FROM"</text>
</g>
<path d="M546 31h10"></path>
<g>
<path d="M556 31h0"></path>
<path d="M1378 31h0"></path>
<path d="M556 31h20"></path>
<g>
<path d="M576 31h0"></path>
<path d="M788 31h570"></path>
<g class="terminal">
<path d="M576 31h0"></path>
<path d="M700 31h0"></path>
<rect x="576" y="20" width="124" height="22" rx="10" ry="10"></rect>
<text x="638" y="35">"DATA BUFFER"</text>
</g>
<path d="M700 31h10"></path>
<path d="M710 31h10"></path>
<g class="non-terminal">
<path d="M720 31h0"></path>
<path d="M788 31h0"></path>
<rect x="720" y="20" width="68" height="22"></rect>
<a xlink:href="reuse_source.svg"><text x="754" y="35">Source</text>
</a>
</g>
</g>
<path d="M1358 31h20"></path>
<path d="M556 31a10 10 0 0 1 10 10v10a10 10 0 0 0 10 10"></path>
<g>
<path d="M576 61h0"></path>
<path d="M772 61h586"></path>
<g class="terminal">
<path d="M576 61h0"></path>
<path d="M684 61h0"></path>
<rect x="576" y="50" width="108" height="22" rx="10" ry="10"></rect>
<text x="630" y="65">"MEMORY ID"</text>
</g>
<path d="M684 61h10"></path>
<path d="M694 61h10"></path>
<g class="non-terminal">
<path d="M704 61h0"></path>
<path d="M772 61h0"></path>
<rect x="704" y="50" width="68" height="22"></rect>
<a xlink:href="reuse_source.svg"><text x="738" y="65">Source</text>
</a>
</g>
</g>
<path d="M1358 61a10 10 0 0 0 10 -10v-10a10 10 0 0 1 10 -10"></path>
<path d="M556 31a10 10 0 0 1 10 10v49a10 10 0 0 0 10 10"></path>
<g>
<path d="M576 100h0"></path>
<path d="M1358 100h0"></path>
<g class="terminal">
<path d="M576 100h0"></path>
<path d="M676 100h0"></path>
<rect x="576" y="89" width="100" height="22" rx="10" ry="10"></rect>
<text x="626" y="104">"DATABASE"</text>
</g>
<path d="M676 100h10"></path>
<path d="M686 100h10"></path>
<g class="non-terminal">
<path d="M696 100h0"></path>
<path d="M764 100h0"></path>
<rect x="696" y="89" width="68" height="22"></rect>
<a xlink:href="reuse_source.svg"><text x="730" y="104">Source</text>
</a>
</g>
<path d="M764 100h10"></path>
<path d="M774 100h10"></path>
<g>
<path d="M784 100h0"></path>
<path d="M994 100h0"></path>
<path d="M814 100h10"></path>
<g>
<path d="M824 100h0"></path>
<path d="M964 100h0"></path>
<g class="terminal">
<path d="M824 100h0"></path>
<path d="M876 100h0"></path>
<rect x="824" y="89" width="52" height="22" rx="10" ry="10"></rect>
<text x="850" y="104">"TO"</text>
</g>
<path d="M876 100h10"></path>
<path d="M886 100h10"></path>
<g class="non-terminal">
<path d="M896 100h0"></path>
<path d="M964 100h0"></path>
<rect x="896" y="89" width="68" height="22"></rect>
<a xlink:href="reuse_target.svg"><text x="930" y="104">Target</text>
</a>
</g>
</g>
<path d="M964 100h10"></path>
<path d="M814 100v20a10 10 0 0 0 10 10"></path>
<g>
<path d="M824 130h0"></path>
<path d="M964 130h0"></path>
<g class="terminal">
<path d="M824 130h0"></path>
<path d="M876 130h0"></path>
<rect x="824" y="119" width="52" height="22" rx="10" ry="10"></rect>
<text x="850" y="134">"ID"</text>
</g>
<path d="M876 130h10"></path>
<path d="M886 130h10"></path>
<g class="non-terminal">
<path d="M896 130h0"></path>
<path d="M964 130h0"></path>
<rect x="896" y="119" width="68" height="22"></rect>
<a xlink:href="reuse_source.svg"><text x="930" y="134">Source</text>
</a>
</g>
</g>
<path d="M964 130a10 10 0 0 0 10 -10v-20"></path>
<g class="diagram-text">
<title>take one or more branches, once each, in any order</title>
<path d="M 814 90 h -26 a 4 4 0 0 0 -4 4 v 12 a 4 4 0 0 0 4 4 h 26 z" class="diagram-text"></path>
<text x="799" y="104" class="diagram-text">1+</text>
<path d="M 974 90 h 16 a 4 4 0 0 1 4 4 v 12 a 4 4 0 0 1 -4 4 h -16 z" class="diagram-text"></path>
<path d="M 981 98 a 4 4 0 1 0 6 -1 m 2.75 -1 h -4 v 4 m 0 -3 h 2" style="stroke-width: 1.75"></path>
</g>
</g>
<path d="M994 100h10"></path>
<g>
<path d="M1004 100h0"></path>
<path d="M1358 100h0"></path>
<path d="M1004 100a10 10 0 0 0 10 -10v0a10 10 0 0 1 10 -10"></path>
<g>
<path d="M1024 80h314"></path>
</g>
<path d="M1338 80a10 10 0 0 1 10 10v0a10 10 0 0 0 10 10"></path>
<path d="M1004 100h20"></path>
<g>
<path d="M1024 100h0"></path>
<path d="M1338 100h0"></path>
<path d="M1054 100h10"></path>
<g class="terminal">
<path d="M1064 100h0"></path>
<path d="M1236 100h72"></path>
<rect x="1064" y="89" width="172" height="22" rx="10" ry="10"></rect>
<text x="1150" y="104">"ACCEPTING PADDING"</text>
</g>
<path d="M1308 100h10"></path>
<path d="M1054 100v20a10 10 0 0 0 10 10"></path>
<g class="terminal">
<path d="M1064 130h0"></path>
<path d="M1308 130h0"></path>
<rect x="1064" y="119" width="244" height="22" rx="10" ry="10"></rect>
<text x="1186" y="134">"IGNORING CONVERSION ERRORS"</text>
</g>
<path d="M1308 130a10 10 0 0 0 10 -10v-20"></path>
<path d="M1054 100v50a10 10 0 0 0 10 10"></path>
<g class="terminal">
<path d="M1064 160h0"></path>
<path d="M1260 160h48"></path>
<rect x="1064" y="149" width="196" height="22" rx="10" ry="10"></rect>
<text x="1162" y="164">"ACCEPTING TRUNCATION"</text>
</g>
<path d="M1308 160a10 10 0 0 0 10 -10v-50"></path>
<g class="diagram-text">
<title>take one or more branches, once each, in any order</title>
<path d="M 1054 90 h -26 a 4 4 0 0 0 -4 4 v 12 a 4 4 0 0 0 4 4 h 26 z" class="diagram-text"></path>
<text x="1039" y="104" class="diagram-text">1+</text>
<path d="M 1318 90 h 16 a 4 4 0 0 1 4 4 v 12 a 4 4 0 0 1 -4 4 h -16 z" class="diagram-text"></path>
<path d="M 1325 98 a 4 4 0 1 0 6 -1 m 2.75 -1 h -4 v 4 m 0 -3 h 2" style="stroke-width: 1.75"></path>
</g>
</g>
<path d="M1338 100h20"></path>
</g>
</g>
<path d="M1358 100a10 10 0 0 0 10 -10v-49a10 10 0 0 1 10 -10"></path>
<path d="M556 31a10 10 0 0 1 10 10v139a10 10 0 0 0 10 10"></path>
<g>
<path d="M576 190h0"></path>
<path d="M812 190h546"></path>
<g class="terminal">
<path d="M576 190h0"></path>
<path d="M724 190h0"></path>
<rect x="576" y="179" width="148" height="22" rx="10" ry="10"></rect>
<text x="650" y="194">"INTERNAL TABLE"</text>
</g>
<path d="M724 190h10"></path>
<path d="M734 190h10"></path>
<g class="non-terminal">
<path d="M744 190h0"></path>
<path d="M812 190h0"></path>
<rect x="744" y="179" width="68" height="22"></rect>
<a xlink:href="reuse_source.svg"><text x="778" y="194">Source</text>
</a>
</g>
</g>
<path d="M1358 190a10 10 0 0 0 10 -10v-139a10 10 0 0 1 10 -10"></path>
</g>
</g>
<path d="M1378 31h10"></path>
<path d="M 1388 31 h 20 m -10 -10 v 20 m 10 -20 v 20"></path>
</g>
</svg>
