<?xml version="1.0" encoding="UTF-8" standalone="no"?>
<!DOCTYPE svg PUBLIC "-//W3C//DTD SVG 1.1//EN"
 "http://www.w3.org/Graphics/SVG/1.1/DTD/svg11.dtd">
<!-- Generated by graphviz version 2.38.0 (20140413.2041)
 -->
<!-- Title: importdynpro Pages: 1 -->
<svg width="203pt" height="620pt"
 viewBox="0.00 0.00 203.00 620.00" xmlns="http://www.w3.org/2000/svg" xmlns:xlink="http://www.w3.org/1999/xlink">
<g id="graph0" class="graph" transform="scale(1 1) rotate(0) translate(4 616)">
<title>importdynpro</title>
<polygon fill="white" stroke="none" points="-4,4 -4,-616 199.002,-616 199.002,4 -4,4"/>
<!-- start -->
<g id="node1" class="node"><title>start</title>
<polygon fill="none" stroke="black" points="124.501,-612 70.5009,-612 70.5009,-576 124.501,-576 124.501,-612"/>
<text text-anchor="middle" x="97.5009" y="-589.8" font-family="Times,serif" font-size="14.00">Start</text>
</g>
<!-- node553 -->
<g id="node9" class="node"><title>node553</title>
<ellipse fill="none" stroke="black" cx="97.5009" cy="-522" rx="97.5019" ry="18"/>
<text text-anchor="middle" x="97.5009" y="-517.8" font-family="Times,serif" font-size="14.00">&quot;IMPORT DYNPRO&quot;</text>
</g>
<!-- start&#45;&gt;node553 -->
<g id="edge8" class="edge"><title>start&#45;&gt;node553</title>
<path fill="none" stroke="black" d="M97.5009,-575.697C97.5009,-567.983 97.5009,-558.712 97.5009,-550.112"/>
<polygon fill="black" stroke="black" points="101.001,-550.104 97.5009,-540.104 94.001,-550.104 101.001,-550.104"/>
</g>
<!-- end -->
<g id="node2" class="node"><title>end</title>
<polygon fill="none" stroke="black" points="124.501,-36 70.5009,-36 70.5009,-0 124.501,-0 124.501,-36"/>
<text text-anchor="middle" x="97.5009" y="-13.8" font-family="Times,serif" font-size="14.00">End</text>
</g>
<!-- node547 -->
<g id="node3" class="node"><title>node547</title>
<g id="a_node3"><a xlink:href="reuse_source.svg" xlink:title="&lt;u&gt;source&lt;/u&gt;">
<ellipse fill="none" stroke="black" cx="97.5009" cy="-90" rx="36.4761" ry="18"/>
<text text-anchor="start" x="79.2337" y="-86.8" font-family="Times,serif" text-decoration="underline" font-size="14.00" fill="blue">source</text>
</a>
</g>
</g>
<!-- node547&#45;&gt;end -->
<g id="edge1" class="edge"><title>node547&#45;&gt;end</title>
<path fill="none" stroke="black" d="M97.5009,-71.6966C97.5009,-63.9827 97.5009,-54.7125 97.5009,-46.1124"/>
<polygon fill="black" stroke="black" points="101.001,-46.1043 97.5009,-36.1043 94.001,-46.1044 101.001,-46.1043"/>
</g>
<!-- node548 -->
<g id="node4" class="node"><title>node548</title>
<ellipse fill="none" stroke="black" cx="97.5009" cy="-162" rx="29.2019" ry="18"/>
<text text-anchor="middle" x="97.5009" y="-157.8" font-family="Times,serif" font-size="14.00">&quot;ID&quot;</text>
</g>
<!-- node548&#45;&gt;node547 -->
<g id="edge2" class="edge"><title>node548&#45;&gt;node547</title>
<path fill="none" stroke="black" d="M97.5009,-143.697C97.5009,-135.983 97.5009,-126.712 97.5009,-118.112"/>
<polygon fill="black" stroke="black" points="101.001,-118.104 97.5009,-108.104 94.001,-118.104 101.001,-118.104"/>
</g>
<!-- node549 -->
<g id="node5" class="node"><title>node549</title>
<g id="a_node5"><a xlink:href="reuse_target.svg" xlink:title="&lt;u&gt;target&lt;/u&gt;">
<ellipse fill="none" stroke="black" cx="97.5009" cy="-234" rx="33.0411" ry="18"/>
<text text-anchor="start" x="81.5654" y="-230.8" font-family="Times,serif" text-decoration="underline" font-size="14.00" fill="blue">target</text>
</a>
</g>
</g>
<!-- node549&#45;&gt;node548 -->
<g id="edge3" class="edge"><title>node549&#45;&gt;node548</title>
<path fill="none" stroke="black" d="M97.5009,-215.697C97.5009,-207.983 97.5009,-198.712 97.5009,-190.112"/>
<polygon fill="black" stroke="black" points="101.001,-190.104 97.5009,-180.104 94.001,-190.104 101.001,-190.104"/>
</g>
<!-- node550 -->
<g id="node6" class="node"><title>node550</title>
<g id="a_node6"><a xlink:href="reuse_target.svg" xlink:title="&lt;u&gt;target&lt;/u&gt;">
<ellipse fill="none" stroke="black" cx="97.5009" cy="-306" rx="33.0411" ry="18"/>
<text text-anchor="start" x="81.5654" y="-302.8" font-family="Times,serif" text-decoration="underline" font-size="14.00" fill="blue">target</text>
</a>
</g>
</g>
<!-- node550&#45;&gt;node549 -->
<g id="edge4" class="edge"><title>node550&#45;&gt;node549</title>
<path fill="none" stroke="black" d="M97.5009,-287.697C97.5009,-279.983 97.5009,-270.712 97.5009,-262.112"/>
<polygon fill="black" stroke="black" points="101.001,-262.104 97.5009,-252.104 94.001,-262.104 101.001,-262.104"/>
</g>
<!-- node551 -->
<g id="node7" class="node"><title>node551</title>
<g id="a_node7"><a xlink:href="reuse_target.svg" xlink:title="&lt;u&gt;target&lt;/u&gt;">
<ellipse fill="none" stroke="black" cx="97.5009" cy="-378" rx="33.0411" ry="18"/>
<text text-anchor="start" x="81.5654" y="-374.8" font-family="Times,serif" text-decoration="underline" font-size="14.00" fill="blue">target</text>
</a>
</g>
</g>
<!-- node551&#45;&gt;node550 -->
<g id="edge5" class="edge"><title>node551&#45;&gt;node550</title>
<path fill="none" stroke="black" d="M97.5009,-359.697C97.5009,-351.983 97.5009,-342.712 97.5009,-334.112"/>
<polygon fill="black" stroke="black" points="101.001,-334.104 97.5009,-324.104 94.001,-334.104 101.001,-334.104"/>
</g>
<!-- node552 -->
<g id="node8" class="node"><title>node552</title>
<g id="a_node8"><a xlink:href="reuse_target.svg" xlink:title="&lt;u&gt;target&lt;/u&gt;">
<ellipse fill="none" stroke="black" cx="97.5009" cy="-450" rx="33.0411" ry="18"/>
<text text-anchor="start" x="81.5654" y="-446.8" font-family="Times,serif" text-decoration="underline" font-size="14.00" fill="blue">target</text>
</a>
</g>
</g>
<!-- node552&#45;&gt;node551 -->
<g id="edge6" class="edge"><title>node552&#45;&gt;node551</title>
<path fill="none" stroke="black" d="M97.5009,-431.697C97.5009,-423.983 97.5009,-414.712 97.5009,-406.112"/>
<polygon fill="black" stroke="black" points="101.001,-406.104 97.5009,-396.104 94.001,-406.104 101.001,-406.104"/>
</g>
<!-- node553&#45;&gt;node552 -->
<g id="edge7" class="edge"><title>node553&#45;&gt;node552</title>
<path fill="none" stroke="black" d="M97.5009,-503.697C97.5009,-495.983 97.5009,-486.712 97.5009,-478.112"/>
<polygon fill="black" stroke="black" points="101.001,-478.104 97.5009,-468.104 94.001,-478.104 101.001,-478.104"/>
</g>
</g>
</svg>
