<?xml version="1.0" encoding="UTF-8" standalone="no"?>
<!DOCTYPE svg PUBLIC "-//W3C//DTD SVG 1.1//EN"
 "http://www.w3.org/Graphics/SVG/1.1/DTD/svg11.dtd">
<!-- Generated by graphviz version 2.38.0 (20140413.2041)
 -->
<!-- Title: import Pages: 1 -->
<svg width="474pt" height="692pt"
 viewBox="0.00 0.00 474.20 692.00" xmlns="http://www.w3.org/2000/svg" xmlns:xlink="http://www.w3.org/1999/xlink">
<g id="graph0" class="graph" transform="scale(1 1) rotate(0) translate(4 688)">
<title>import</title>
<polygon fill="white" stroke="none" points="-4,4 -4,-688 470.203,-688 470.203,4 -4,4"/>
<!-- start -->
<g id="node1" class="node"><title>start</title>
<polygon fill="none" stroke="black" points="341.965,-684 287.965,-684 287.965,-648 341.965,-648 341.965,-684"/>
<text text-anchor="middle" x="314.965" y="-661.8" font-family="Times,serif" font-size="14.00">Start</text>
</g>
<!-- node503 -->
<g id="node16" class="node"><title>node503</title>
<ellipse fill="none" stroke="black" cx="314.965" cy="-594" rx="55.2858" ry="18"/>
<text text-anchor="middle" x="314.965" y="-589.8" font-family="Times,serif" font-size="14.00">&quot;IMPORT&quot;</text>
</g>
<!-- start&#45;&gt;node503 -->
<g id="edge19" class="edge"><title>start&#45;&gt;node503</title>
<path fill="none" stroke="black" d="M314.965,-647.697C314.965,-639.983 314.965,-630.712 314.965,-622.112"/>
<polygon fill="black" stroke="black" points="318.466,-622.104 314.965,-612.104 311.466,-622.104 318.466,-622.104"/>
</g>
<!-- end -->
<g id="node2" class="node"><title>end</title>
<polygon fill="none" stroke="black" points="179.965,-36 125.965,-36 125.965,-0 179.965,-0 179.965,-36"/>
<text text-anchor="middle" x="152.965" y="-13.8" font-family="Times,serif" font-size="14.00">End</text>
</g>
<!-- node490 -->
<g id="node3" class="node"><title>node490</title>
<g id="a_node3"><a xlink:href="reuse_source.svg" xlink:title="&lt;u&gt;source&lt;/u&gt;">
<ellipse fill="none" stroke="black" cx="208.965" cy="-90" rx="36.4761" ry="18"/>
<text text-anchor="start" x="190.698" y="-86.8" font-family="Times,serif" text-decoration="underline" font-size="14.00" fill="blue">source</text>
</a>
</g>
</g>
<!-- node490&#45;&gt;end -->
<g id="edge1" class="edge"><title>node490&#45;&gt;end</title>
<path fill="none" stroke="black" d="M196.258,-73.1159C189.469,-64.6299 180.95,-53.9811 173.269,-44.3796"/>
<polygon fill="black" stroke="black" points="175.779,-41.9144 166.799,-36.2921 170.313,-46.2873 175.779,-41.9144"/>
</g>
<!-- node491 -->
<g id="node4" class="node"><title>node491</title>
<ellipse fill="none" stroke="black" cx="252.965" cy="-162" rx="84.7605" ry="18"/>
<text text-anchor="middle" x="252.965" y="-157.8" font-family="Times,serif" font-size="14.00">&quot;DATA BUFFER&quot;</text>
</g>
<!-- node491&#45;&gt;node490 -->
<g id="edge2" class="edge"><title>node491&#45;&gt;node490</title>
<path fill="none" stroke="black" d="M242.314,-144.055C236.995,-135.592 230.456,-125.19 224.582,-115.845"/>
<polygon fill="black" stroke="black" points="227.501,-113.911 219.216,-107.307 221.574,-117.636 227.501,-113.911"/>
</g>
<!-- node492 -->
<g id="node5" class="node"><title>node492</title>
<g id="a_node5"><a xlink:href="reuse_source.svg" xlink:title="&lt;u&gt;source&lt;/u&gt;">
<ellipse fill="none" stroke="black" cx="96.9655" cy="-90" rx="36.4761" ry="18"/>
<text text-anchor="start" x="78.6983" y="-86.8" font-family="Times,serif" text-decoration="underline" font-size="14.00" fill="blue">source</text>
</a>
</g>
</g>
<!-- node492&#45;&gt;end -->
<g id="edge3" class="edge"><title>node492&#45;&gt;end</title>
<path fill="none" stroke="black" d="M109.673,-73.1159C116.462,-64.6299 124.981,-53.9811 132.662,-44.3796"/>
<polygon fill="black" stroke="black" points="135.618,-46.2873 139.132,-36.2921 130.152,-41.9144 135.618,-46.2873"/>
</g>
<!-- node493 -->
<g id="node6" class="node"><title>node493</title>
<ellipse fill="none" stroke="black" cx="74.9655" cy="-162" rx="74.931" ry="18"/>
<text text-anchor="middle" x="74.9655" y="-157.8" font-family="Times,serif" font-size="14.00">&quot;MEMORY ID&quot;</text>
</g>
<!-- node493&#45;&gt;node492 -->
<g id="edge4" class="edge"><title>node493&#45;&gt;node492</title>
<path fill="none" stroke="black" d="M80.4037,-143.697C82.8547,-135.898 85.8057,-126.509 88.5335,-117.829"/>
<polygon fill="black" stroke="black" points="91.9305,-118.694 91.5898,-108.104 85.2525,-116.595 91.9305,-118.694"/>
</g>
<!-- node494 -->
<g id="node7" class="node"><title>node494</title>
<ellipse fill="none" stroke="black" cx="252.965" cy="-234" rx="46.0582" ry="18"/>
<text text-anchor="middle" x="252.965" y="-229.8" font-family="Times,serif" font-size="14.00">&quot;FROM&quot;</text>
</g>
<!-- node494&#45;&gt;node491 -->
<g id="edge5" class="edge"><title>node494&#45;&gt;node491</title>
<path fill="none" stroke="black" d="M252.965,-215.697C252.965,-207.983 252.965,-198.712 252.965,-190.112"/>
<polygon fill="black" stroke="black" points="256.466,-190.104 252.965,-180.104 249.466,-190.104 256.466,-190.104"/>
</g>
<!-- node494&#45;&gt;node493 -->
<g id="edge6" class="edge"><title>node494&#45;&gt;node493</title>
<path fill="none" stroke="black" d="M221.552,-220.647C193.875,-209.762 153.177,-193.757 121.682,-181.372"/>
<polygon fill="black" stroke="black" points="122.815,-178.056 112.228,-177.654 120.253,-184.571 122.815,-178.056"/>
</g>
<!-- node495 -->
<g id="node8" class="node"><title>node495</title>
<g id="a_node8"><a xlink:href="reuse_parameter_list_t.svg" xlink:title="&lt;u&gt;parameter_list_t&lt;/u&gt;">
<ellipse fill="none" stroke="black" cx="252.965" cy="-450" rx="73.5695" ry="18"/>
<text text-anchor="start" x="207.482" y="-446.8" font-family="Times,serif" text-decoration="underline" font-size="14.00" fill="blue">parameter_list_t</text>
</a>
</g>
</g>
<!-- node495&#45;&gt;node494 -->
<g id="edge7" class="edge"><title>node495&#45;&gt;node494</title>
<path fill="none" stroke="black" d="M252.965,-431.849C252.965,-394.832 252.965,-307.181 252.965,-262.386"/>
<polygon fill="black" stroke="black" points="256.466,-262.232 252.965,-252.232 249.466,-262.232 256.466,-262.232"/>
</g>
<!-- node496 -->
<g id="node9" class="node"><title>node496</title>
<ellipse fill="none" stroke="black" cx="361.965" cy="-306" rx="42.879" ry="18"/>
<text text-anchor="middle" x="361.965" y="-301.8" font-family="Times,serif" font-size="14.00">Dummy</text>
</g>
<!-- node496&#45;&gt;node494 -->
<g id="edge12" class="edge"><title>node496&#45;&gt;node494</title>
<path fill="none" stroke="black" d="M339.381,-290.496C323.557,-280.334 302.19,-266.612 284.663,-255.356"/>
<polygon fill="black" stroke="black" points="286.202,-252.185 275.896,-249.726 282.419,-258.075 286.202,-252.185"/>
</g>
<!-- node499 -->
<g id="node12" class="node"><title>node499</title>
<g id="a_node12"><a xlink:href="reuse_source.svg" xlink:title="&lt;u&gt;source&lt;/u&gt;">
<ellipse fill="none" stroke="black" cx="429.965" cy="-234" rx="36.4761" ry="18"/>
<text text-anchor="start" x="411.698" y="-230.8" font-family="Times,serif" text-decoration="underline" font-size="14.00" fill="blue">source</text>
</a>
</g>
</g>
<!-- node496&#45;&gt;node499 -->
<g id="edge11" class="edge"><title>node496&#45;&gt;node499</title>
<path fill="none" stroke="black" d="M377.396,-289.116C386.264,-279.987 397.563,-268.355 407.412,-258.217"/>
<polygon fill="black" stroke="black" points="410.139,-260.433 414.596,-250.821 405.118,-255.555 410.139,-260.433"/>
</g>
<!-- node497 -->
<g id="node10" class="node"><title>node497</title>
<g id="a_node10"><a xlink:href="reuse_target.svg" xlink:title="&lt;u&gt;target&lt;/u&gt;">
<ellipse fill="none" stroke="black" cx="396.965" cy="-90" rx="33.0411" ry="18"/>
<text text-anchor="start" x="381.03" y="-86.8" font-family="Times,serif" text-decoration="underline" font-size="14.00" fill="blue">target</text>
</a>
</g>
</g>
<!-- node497&#45;&gt;node496 -->
<g id="edge8" class="edge"><title>node497&#45;&gt;node496</title>
<path fill="none" stroke="black" d="M393.582,-108.16C391.575,-118.523 389.028,-132.003 386.965,-144 378.913,-190.836 370.662,-245.54 365.942,-277.613"/>
<polygon fill="black" stroke="black" points="362.468,-277.176 364.482,-287.578 369.394,-278.191 362.468,-277.176"/>
</g>
<!-- node498 -->
<g id="node11" class="node"><title>node498</title>
<ellipse fill="none" stroke="black" cx="427.965" cy="-162" rx="31.5723" ry="18"/>
<text text-anchor="middle" x="427.965" y="-157.8" font-family="Times,serif" font-size="14.00">&quot;TO&quot;</text>
</g>
<!-- node498&#45;&gt;node497 -->
<g id="edge9" class="edge"><title>node498&#45;&gt;node497</title>
<path fill="none" stroke="black" d="M420.619,-144.411C417.042,-136.335 412.656,-126.431 408.637,-117.355"/>
<polygon fill="black" stroke="black" points="411.724,-115.682 404.475,-107.956 405.324,-118.517 411.724,-115.682"/>
</g>
<!-- node499&#45;&gt;node498 -->
<g id="edge10" class="edge"><title>node499&#45;&gt;node498</title>
<path fill="none" stroke="black" d="M429.471,-215.697C429.251,-207.983 428.986,-198.712 428.74,-190.112"/>
<polygon fill="black" stroke="black" points="432.238,-190 428.454,-180.104 425.241,-190.2 432.238,-190"/>
</g>
<!-- node500 -->
<g id="node13" class="node"><title>node500</title>
<g id="a_node13"><a xlink:href="reuse_target.svg" xlink:title="&lt;u&gt;target&lt;/u&gt;">
<ellipse fill="none" stroke="black" cx="376.965" cy="-378" rx="33.0411" ry="18"/>
<text text-anchor="start" x="361.03" y="-374.8" font-family="Times,serif" text-decoration="underline" font-size="14.00" fill="blue">target</text>
</a>
</g>
</g>
<!-- node500&#45;&gt;node496 -->
<g id="edge14" class="edge"><title>node500&#45;&gt;node496</title>
<path fill="none" stroke="black" d="M373.334,-360.055C371.664,-352.261 369.642,-342.822 367.768,-334.079"/>
<polygon fill="black" stroke="black" points="371.185,-333.32 365.667,-324.275 364.34,-334.787 371.185,-333.32"/>
</g>
<!-- node500&#45;&gt;node499 -->
<g id="edge13" class="edge"><title>node500&#45;&gt;node499</title>
<path fill="none" stroke="black" d="M390.599,-361.37C398.624,-351.343 408.284,-337.68 413.965,-324 422.182,-304.217 426.186,-280.237 428.132,-262.156"/>
<polygon fill="black" stroke="black" points="431.635,-262.291 429.078,-252.009 424.665,-261.641 431.635,-262.291"/>
</g>
<!-- node501 -->
<g id="node14" class="node"><title>node501</title>
<ellipse fill="none" stroke="black" cx="376.965" cy="-450" rx="31.5723" ry="18"/>
<text text-anchor="middle" x="376.965" y="-445.8" font-family="Times,serif" font-size="14.00">&quot;TO&quot;</text>
</g>
<!-- node501&#45;&gt;node500 -->
<g id="edge15" class="edge"><title>node501&#45;&gt;node500</title>
<path fill="none" stroke="black" d="M376.965,-431.697C376.965,-423.983 376.965,-414.712 376.965,-406.112"/>
<polygon fill="black" stroke="black" points="380.466,-406.104 376.965,-396.104 373.466,-406.104 380.466,-406.104"/>
</g>
<!-- node502 -->
<g id="node15" class="node"><title>node502</title>
<g id="a_node15"><a xlink:href="reuse_source.svg" xlink:title="&lt;u&gt;source&lt;/u&gt;">
<ellipse fill="none" stroke="black" cx="361.965" cy="-522" rx="36.4761" ry="18"/>
<text text-anchor="start" x="343.698" y="-518.8" font-family="Times,serif" text-decoration="underline" font-size="14.00" fill="blue">source</text>
</a>
</g>
</g>
<!-- node502&#45;&gt;node501 -->
<g id="edge16" class="edge"><title>node502&#45;&gt;node501</title>
<path fill="none" stroke="black" d="M365.597,-504.055C367.267,-496.261 369.289,-486.822 371.163,-478.079"/>
<polygon fill="black" stroke="black" points="374.591,-478.787 373.264,-468.275 367.746,-477.32 374.591,-478.787"/>
</g>
<!-- node503&#45;&gt;node495 -->
<g id="edge17" class="edge"><title>node503&#45;&gt;node495</title>
<path fill="none" stroke="black" d="M307.61,-576.153C296.993,-551.838 277.268,-506.66 264.646,-477.753"/>
<polygon fill="black" stroke="black" points="267.714,-476.032 260.505,-468.268 261.299,-478.833 267.714,-476.032"/>
</g>
<!-- node503&#45;&gt;node502 -->
<g id="edge18" class="edge"><title>node503&#45;&gt;node502</title>
<path fill="none" stroke="black" d="M326.343,-576.055C332.025,-567.592 339.01,-557.19 345.284,-547.845"/>
<polygon fill="black" stroke="black" points="348.348,-549.56 351.016,-539.307 342.536,-545.658 348.348,-549.56"/>
</g>
</g>
</svg>
