<?xml version="1.0" encoding="UTF-8" standalone="no"?>
<!DOCTYPE svg PUBLIC "-//W3C//DTD SVG 1.1//EN"
 "http://www.w3.org/Graphics/SVG/1.1/DTD/svg11.dtd">
<!-- Generated by graphviz version 2.38.0 (20140413.2041)
 -->
<!-- Title: include Pages: 1 -->
<svg width="131pt" height="260pt"
 viewBox="0.00 0.00 130.57 260.00" xmlns="http://www.w3.org/2000/svg" xmlns:xlink="http://www.w3.org/1999/xlink">
<g id="graph0" class="graph" transform="scale(1 1) rotate(0) translate(4 256)">
<title>include</title>
<polygon fill="white" stroke="none" points="-4,4 -4,-256 126.565,-256 126.565,4 -4,4"/>
<!-- start -->
<g id="node1" class="node"><title>start</title>
<polygon fill="none" stroke="black" points="88.2826,-252 34.2826,-252 34.2826,-216 88.2826,-216 88.2826,-252"/>
<text text-anchor="middle" x="61.2826" y="-229.8" font-family="Times,serif" font-size="14.00">Start</text>
</g>
<!-- node466 -->
<g id="node4" class="node"><title>node466</title>
<ellipse fill="none" stroke="black" cx="61.2826" cy="-162" rx="61.0659" ry="18"/>
<text text-anchor="middle" x="61.2826" y="-157.8" font-family="Times,serif" font-size="14.00">&quot;INCLUDE&quot;</text>
</g>
<!-- start&#45;&gt;node466 -->
<g id="edge3" class="edge"><title>start&#45;&gt;node466</title>
<path fill="none" stroke="black" d="M61.2826,-215.697C61.2826,-207.983 61.2826,-198.712 61.2826,-190.112"/>
<polygon fill="black" stroke="black" points="64.7827,-190.104 61.2826,-180.104 57.7827,-190.104 64.7827,-190.104"/>
</g>
<!-- end -->
<g id="node2" class="node"><title>end</title>
<polygon fill="none" stroke="black" points="88.2826,-36 34.2826,-36 34.2826,-0 88.2826,-0 88.2826,-36"/>
<text text-anchor="middle" x="61.2826" y="-13.8" font-family="Times,serif" font-size="14.00">End</text>
</g>
<!-- node465 -->
<g id="node3" class="node"><title>node465</title>
<g id="a_node3"><a xlink:href="reuse_field.svg" xlink:title="&lt;u&gt;field&lt;/u&gt;">
<ellipse fill="none" stroke="black" cx="61.2826" cy="-90" rx="28.9696" ry="18"/>
<text text-anchor="start" x="48.4544" y="-86.8" font-family="Times,serif" text-decoration="underline" font-size="14.00" fill="blue">field</text>
</a>
</g>
</g>
<!-- node465&#45;&gt;end -->
<g id="edge1" class="edge"><title>node465&#45;&gt;end</title>
<path fill="none" stroke="black" d="M61.2826,-71.6966C61.2826,-63.9827 61.2826,-54.7125 61.2826,-46.1124"/>
<polygon fill="black" stroke="black" points="64.7827,-46.1043 61.2826,-36.1043 57.7827,-46.1044 64.7827,-46.1043"/>
</g>
<!-- node466&#45;&gt;node465 -->
<g id="edge2" class="edge"><title>node466&#45;&gt;node465</title>
<path fill="none" stroke="black" d="M61.2826,-143.697C61.2826,-135.983 61.2826,-126.712 61.2826,-118.112"/>
<polygon fill="black" stroke="black" points="64.7827,-118.104 61.2826,-108.104 57.7827,-118.104 64.7827,-118.104"/>
</g>
</g>
</svg>
