<svg xmlns="http://www.w3.org/2000/svg" xmlns:xlink="http://www.w3.org/1999/xlink" class="railroad-diagram" width="518" height="71" viewBox="0 0 518 71">
<defs>
<style type="text/css"><![CDATA[
path {
stroke-width: 3;
stroke: black;
fill: rgba(0,0,0,0);
}
text {
font: bold 14px monospace;
text-anchor: middle;
}
text.diagram-text {
font-size: 12px;
}
a {
fill: blue;
}
text.diagram-arrow {
font-size: 16px;
}
text.label {
text-anchor: start;
}
text.comment {
font: italic 12px monospace;
}
rect {
stroke-width: 3;
stroke: black;
fill: #BCBCBC;
}
path.diagram-text {
stroke-width: 3;
stroke: black;
fill: #BCBCBC;
cursor: help;
}
]]></style>
</defs>
<g transform="translate(.5 .5)">
<path d="M 20 30 v 20 m 10 -20 v 20 m -10 -10 h 20.5"></path>
<path d="M40 40h10"></path>
<g>
<path d="M50 40h0"></path>
<path d="M468 40h0"></path>
<g class="terminal">
<path d="M50 40h0"></path>
<path d="M182 40h0"></path>
<rect x="50" y="29" width="132" height="22" rx="10" ry="10"></rect>
<text x="116" y="44">"INCLUDE TYPE"</text>
</g>
<path d="M182 40h10"></path>
<path d="M192 40h10"></path>
<g class="non-terminal">
<path d="M202 40h0"></path>
<path d="M286 40h0"></path>
<rect x="202" y="29" width="84" height="22"></rect>
<a xlink:href="reuse_typename.svg"><text x="244" y="44">typename</text>
</a>
</g>
<path d="M286 40h10"></path>
<g>
<path d="M296 40h0"></path>
<path d="M468 40h0"></path>
<path d="M296 40a10 10 0 0 0 10 -10v0a10 10 0 0 1 10 -10"></path>
<g>
<path d="M316 20h132"></path>
</g>
<path d="M448 20a10 10 0 0 1 10 10v0a10 10 0 0 0 10 10"></path>
<path d="M296 40h20"></path>
<g>
<path d="M316 40h0"></path>
<path d="M448 40h0"></path>
<g class="terminal">
<path d="M316 40h0"></path>
<path d="M368 40h0"></path>
<rect x="316" y="29" width="52" height="22" rx="10" ry="10"></rect>
<text x="342" y="44">"AS"</text>
</g>
<path d="M368 40h10"></path>
<path d="M378 40h10"></path>
<g class="non-terminal">
<path d="M388 40h0"></path>
<path d="M448 40h0"></path>
<rect x="388" y="29" width="60" height="22"></rect>
<a xlink:href="reuse_field.svg"><text x="418" y="44">field</text>
</a>
</g>
</g>
<path d="M448 40h20"></path>
</g>
</g>
<path d="M468 40h10"></path>
<path d="M 478 40 h 20 m -10 -10 v 20 m 10 -20 v 20"></path>
</g>
</svg>
