<svg xmlns="http://www.w3.org/2000/svg" xmlns:xlink="http://www.w3.org/1999/xlink" class="railroad-diagram" width="626" height="101" viewBox="0 0 626 101">
<defs>
<style type="text/css"><![CDATA[
path {
stroke-width: 3;
stroke: black;
fill: rgba(0,0,0,0);
}
text {
font: bold 14px monospace;
text-anchor: middle;
}
text.diagram-text {
font-size: 12px;
}
a {
fill: blue;
}
text.diagram-arrow {
font-size: 16px;
}
text.label {
text-anchor: start;
}
text.comment {
font: italic 12px monospace;
}
rect {
stroke-width: 3;
stroke: black;
fill: #BCBCBC;
}
path.diagram-text {
stroke-width: 3;
stroke: black;
fill: #BCBCBC;
cursor: help;
}
]]></style>
</defs>
<g transform="translate(.5 .5)">
<path d="M 20 30 v 20 m 10 -20 v 20 m -10 -10 h 20.5"></path>
<path d="M40 40h10"></path>
<g>
<path d="M50 40h0"></path>
<path d="M576 40h0"></path>
<g class="terminal">
<path d="M50 40h0"></path>
<path d="M142 40h0"></path>
<rect x="50" y="29" width="92" height="22" rx="10" ry="10"></rect>
<text x="96" y="44">"INCLUDE"</text>
</g>
<path d="M142 40h10"></path>
<g>
<path d="M152 40h0"></path>
<path d="M300 40h0"></path>
<path d="M152 40h20"></path>
<g class="terminal">
<path d="M172 40h0"></path>
<path d="M240 40h40"></path>
<rect x="172" y="29" width="68" height="22" rx="10" ry="10"></rect>
<text x="206" y="44">"TYPE"</text>
</g>
<path d="M280 40h20"></path>
<path d="M152 40a10 10 0 0 1 10 10v10a10 10 0 0 0 10 10"></path>
<g class="terminal">
<path d="M172 70h0"></path>
<path d="M280 70h0"></path>
<rect x="172" y="59" width="108" height="22" rx="10" ry="10"></rect>
<text x="226" y="74">"STRUCTURE"</text>
</g>
<path d="M280 70a10 10 0 0 0 10 -10v-10a10 10 0 0 1 10 -10"></path>
</g>
<path d="M300 40h10"></path>
<g class="non-terminal">
<path d="M310 40h0"></path>
<path d="M394 40h0"></path>
<rect x="310" y="29" width="84" height="22"></rect>
<a xlink:href="reuse_typename.svg"><text x="352" y="44">TypeName</text>
</a>
</g>
<path d="M394 40h10"></path>
<g>
<path d="M404 40h0"></path>
<path d="M576 40h0"></path>
<path d="M404 40a10 10 0 0 0 10 -10v0a10 10 0 0 1 10 -10"></path>
<g>
<path d="M424 20h132"></path>
</g>
<path d="M556 20a10 10 0 0 1 10 10v0a10 10 0 0 0 10 10"></path>
<path d="M404 40h20"></path>
<g>
<path d="M424 40h0"></path>
<path d="M556 40h0"></path>
<g class="terminal">
<path d="M424 40h0"></path>
<path d="M476 40h0"></path>
<rect x="424" y="29" width="52" height="22" rx="10" ry="10"></rect>
<text x="450" y="44">"AS"</text>
</g>
<path d="M476 40h10"></path>
<path d="M486 40h10"></path>
<g class="non-terminal">
<path d="M496 40h0"></path>
<path d="M556 40h0"></path>
<rect x="496" y="29" width="60" height="22"></rect>
<a xlink:href="reuse_field.svg"><text x="526" y="44">Field</text>
</a>
</g>
</g>
<path d="M556 40h20"></path>
</g>
</g>
<path d="M576 40h10"></path>
<path d="M 586 40 h 20 m -10 -10 v 20 m 10 -20 v 20"></path>
</g>
</svg>
