<?xml version="1.0" encoding="UTF-8" standalone="no"?>
<!DOCTYPE svg PUBLIC "-//W3C//DTD SVG 1.1//EN"
 "http://www.w3.org/Graphics/SVG/1.1/DTD/svg11.dtd">
<!-- Generated by graphviz version 2.38.0 (20140413.2041)
 -->
<!-- Title: includetype Pages: 1 -->
<svg width="184pt" height="260pt"
 viewBox="0.00 0.00 183.67 260.00" xmlns="http://www.w3.org/2000/svg" xmlns:xlink="http://www.w3.org/1999/xlink">
<g id="graph0" class="graph" transform="scale(1 1) rotate(0) translate(4 256)">
<title>includetype</title>
<polygon fill="white" stroke="none" points="-4,4 -4,-256 179.671,-256 179.671,4 -4,4"/>
<!-- start -->
<g id="node1" class="node"><title>start</title>
<polygon fill="none" stroke="black" points="114.835,-252 60.8353,-252 60.8353,-216 114.835,-216 114.835,-252"/>
<text text-anchor="middle" x="87.8353" y="-229.8" font-family="Times,serif" font-size="14.00">Start</text>
</g>
<!-- node546 -->
<g id="node4" class="node"><title>node546</title>
<ellipse fill="none" stroke="black" cx="87.8353" cy="-162" rx="87.6709" ry="18"/>
<text text-anchor="middle" x="87.8353" y="-157.8" font-family="Times,serif" font-size="14.00">&quot;INCLUDE TYPE&quot;</text>
</g>
<!-- start&#45;&gt;node546 -->
<g id="edge3" class="edge"><title>start&#45;&gt;node546</title>
<path fill="none" stroke="black" d="M87.8353,-215.697C87.8353,-207.983 87.8353,-198.712 87.8353,-190.112"/>
<polygon fill="black" stroke="black" points="91.3354,-190.104 87.8353,-180.104 84.3354,-190.104 91.3354,-190.104"/>
</g>
<!-- end -->
<g id="node2" class="node"><title>end</title>
<polygon fill="none" stroke="black" points="114.835,-36 60.8353,-36 60.8353,-0 114.835,-0 114.835,-36"/>
<text text-anchor="middle" x="87.8353" y="-13.8" font-family="Times,serif" font-size="14.00">End</text>
</g>
<!-- node545 -->
<g id="node3" class="node"><title>node545</title>
<g id="a_node3"><a xlink:href="reuse_typename.svg" xlink:title="&lt;u&gt;typename&lt;/u&gt;">
<ellipse fill="none" stroke="black" cx="87.8353" cy="-90" rx="48.6559" ry="18"/>
<text text-anchor="start" x="60.6228" y="-86.8" font-family="Times,serif" text-decoration="underline" font-size="14.00" fill="blue">typename</text>
</a>
</g>
</g>
<!-- node545&#45;&gt;end -->
<g id="edge1" class="edge"><title>node545&#45;&gt;end</title>
<path fill="none" stroke="black" d="M87.8353,-71.6966C87.8353,-63.9827 87.8353,-54.7125 87.8353,-46.1124"/>
<polygon fill="black" stroke="black" points="91.3354,-46.1043 87.8353,-36.1043 84.3354,-46.1044 91.3354,-46.1043"/>
</g>
<!-- node546&#45;&gt;node545 -->
<g id="edge2" class="edge"><title>node546&#45;&gt;node545</title>
<path fill="none" stroke="black" d="M87.8353,-143.697C87.8353,-135.983 87.8353,-126.712 87.8353,-118.112"/>
<polygon fill="black" stroke="black" points="91.3354,-118.104 87.8353,-108.104 84.3354,-118.104 91.3354,-118.104"/>
</g>
</g>
</svg>
