<svg xmlns="http://www.w3.org/2000/svg" xmlns:xlink="http://www.w3.org/1999/xlink" class="railroad-diagram" width="470" height="71" viewBox="0 0 470 71">
<defs>
<style type="text/css"><![CDATA[
path {
stroke-width: 3;
stroke: black;
fill: rgba(0,0,0,0);
}
text {
font: bold 14px monospace;
text-anchor: middle;
}
text.diagram-text {
font-size: 12px;
}
a {
fill: blue;
}
text.diagram-arrow {
font-size: 16px;
}
text.label {
text-anchor: start;
}
text.comment {
font: italic 12px monospace;
}
rect {
stroke-width: 3;
stroke: black;
fill: #BCBCBC;
}
path.diagram-text {
stroke-width: 3;
stroke: black;
fill: #BCBCBC;
cursor: help;
}
]]></style>
</defs>
<g transform="translate(.5 .5)">
<path d="M 20 30 v 20 m 10 -20 v 20 m -10 -10 h 20.5"></path>
<path d="M40 40h10"></path>
<g>
<path d="M50 40h0"></path>
<path d="M420 40h0"></path>
<g class="terminal">
<path d="M50 40h0"></path>
<path d="M142 40h0"></path>
<rect x="50" y="29" width="92" height="22" rx="10" ry="10"></rect>
<text x="96" y="44">"INCLUDE"</text>
</g>
<path d="M142 40h10"></path>
<path d="M152 40h10"></path>
<g class="non-terminal">
<path d="M162 40h0"></path>
<path d="M270 40h0"></path>
<rect x="162" y="29" width="108" height="22"></rect>
<a xlink:href="reuse_includename.svg"><text x="216" y="44">IncludeName</text>
</a>
</g>
<path d="M270 40h10"></path>
<g>
<path d="M280 40h0"></path>
<path d="M420 40h0"></path>
<path d="M280 40a10 10 0 0 0 10 -10v0a10 10 0 0 1 10 -10"></path>
<g>
<path d="M300 20h100"></path>
</g>
<path d="M400 20a10 10 0 0 1 10 10v0a10 10 0 0 0 10 10"></path>
<path d="M280 40h20"></path>
<g class="terminal">
<path d="M300 40h0"></path>
<path d="M400 40h0"></path>
<rect x="300" y="29" width="100" height="22" rx="10" ry="10"></rect>
<text x="350" y="44">"IF FOUND"</text>
</g>
<path d="M400 40h20"></path>
</g>
</g>
<path d="M420 40h10"></path>
<path d="M 430 40 h 20 m -10 -10 v 20 m 10 -20 v 20"></path>
</g>
</svg>
