<?xml version="1.0" encoding="UTF-8" standalone="no"?>
<!DOCTYPE svg PUBLIC "-//W3C//DTD SVG 1.1//EN"
 "http://www.w3.org/Graphics/SVG/1.1/DTD/svg11.dtd">
<!-- Generated by graphviz version 2.38.0 (20140413.2041)
 -->
<!-- Title: inline_decl Pages: 1 -->
<svg width="296pt" height="404pt"
 viewBox="0.00 0.00 296.45 404.00" xmlns="http://www.w3.org/2000/svg" xmlns:xlink="http://www.w3.org/1999/xlink">
<g id="graph0" class="graph" transform="scale(1 1) rotate(0) translate(4 400)">
<title>inline_decl</title>
<polygon fill="white" stroke="none" points="-4,4 -4,-400 292.446,-400 292.446,4 -4,4"/>
<!-- start -->
<g id="node1" class="node"><title>start</title>
<polygon fill="none" stroke="blue" points="148.728,-396 94.7281,-396 94.7281,-360 148.728,-360 148.728,-396"/>
<text text-anchor="middle" x="121.728" y="-373.8" font-family="Times,serif" font-size="14.00">Start</text>
</g>
<!-- node74 -->
<g id="node6" class="node"><title>node74</title>
<ellipse fill="none" stroke="black" cx="45.7281" cy="-306" rx="45.9574" ry="18"/>
<text text-anchor="middle" x="45.7281" y="-301.8" font-family="Times,serif" font-size="14.00">&quot;DATA&quot;</text>
</g>
<!-- start&#45;&gt;node74 -->
<g id="edge9" class="edge"><title>start&#45;&gt;node74</title>
<path fill="none" stroke="black" d="M102.942,-359.697C93.1084,-350.64 80.9458,-339.437 70.3665,-329.693"/>
<polygon fill="black" stroke="black" points="72.7256,-327.108 62.9989,-322.907 67.9832,-332.257 72.7256,-327.108"/>
</g>
<!-- node78 -->
<g id="node10" class="node"><title>node78</title>
<ellipse fill="none" stroke="black" cx="198.728" cy="-306" rx="89.9354" ry="18"/>
<text text-anchor="middle" x="198.728" y="-301.8" font-family="Times,serif" font-size="14.00">&quot;FIELD&#45;SYMBOL&quot;</text>
</g>
<!-- start&#45;&gt;node78 -->
<g id="edge10" class="edge"><title>start&#45;&gt;node78</title>
<path fill="none" stroke="black" d="M140.762,-359.697C150.415,-350.921 162.283,-340.132 172.762,-330.606"/>
<polygon fill="black" stroke="black" points="175.399,-332.939 180.444,-323.622 170.69,-327.759 175.399,-332.939"/>
</g>
<!-- end -->
<g id="node2" class="node"><title>end</title>
<polygon fill="none" stroke="blue" points="167.728,-36 113.728,-36 113.728,-0 167.728,-0 167.728,-36"/>
<text text-anchor="middle" x="140.728" y="-13.8" font-family="Times,serif" font-size="14.00">End</text>
</g>
<!-- node71 -->
<g id="node3" class="node"><title>node71</title>
<ellipse fill="none" stroke="black" cx="99.7281" cy="-90" rx="27" ry="18"/>
<text text-anchor="middle" x="99.7281" y="-85.8" font-family="Times,serif" font-size="14.00">&quot;)&quot;</text>
</g>
<!-- node71&#45;&gt;end -->
<g id="edge1" class="edge"><title>node71&#45;&gt;end</title>
<path fill="none" stroke="black" d="M109.237,-72.7646C114.063,-64.5255 120.043,-54.3166 125.49,-45.0157"/>
<polygon fill="black" stroke="black" points="128.664,-46.5217 130.698,-36.1239 122.624,-42.9838 128.664,-46.5217"/>
</g>
<!-- node72 -->
<g id="node4" class="node"><title>node72</title>
<g id="a_node4"><a xlink:href="field.svg" xlink:title="&lt;u&gt;field&lt;/u&gt;">
<ellipse fill="none" stroke="black" cx="78.7281" cy="-162" rx="28.9696" ry="18"/>
<text text-anchor="start" x="65.8999" y="-158.8" font-family="Times,serif" text-decoration="underline" font-size="14.00" fill="blue">field</text>
</a>
</g>
</g>
<!-- node72&#45;&gt;node71 -->
<g id="edge2" class="edge"><title>node72&#45;&gt;node71</title>
<path fill="none" stroke="black" d="M83.8116,-144.055C86.2105,-136.059 89.1289,-126.331 91.8083,-117.4"/>
<polygon fill="black" stroke="black" points="95.1703,-118.373 94.6914,-107.789 88.4655,-116.362 95.1703,-118.373"/>
</g>
<!-- node73 -->
<g id="node5" class="node"><title>node73</title>
<ellipse fill="none" stroke="black" cx="67.7281" cy="-234" rx="27" ry="18"/>
<text text-anchor="middle" x="67.7281" y="-229.8" font-family="Times,serif" font-size="14.00">&quot;(&quot;</text>
</g>
<!-- node73&#45;&gt;node72 -->
<g id="edge3" class="edge"><title>node73&#45;&gt;node72</title>
<path fill="none" stroke="black" d="M70.3909,-216.055C71.6024,-208.346 73.0667,-199.027 74.428,-190.364"/>
<polygon fill="black" stroke="black" points="77.9185,-190.697 76.0134,-180.275 71.0034,-189.611 77.9185,-190.697"/>
</g>
<!-- node74&#45;&gt;node73 -->
<g id="edge4" class="edge"><title>node74&#45;&gt;node73</title>
<path fill="none" stroke="black" d="M51.0537,-288.055C53.5668,-280.059 56.6242,-270.331 59.4311,-261.4"/>
<polygon fill="black" stroke="black" points="62.7922,-262.378 62.4516,-251.789 56.1143,-260.28 62.7922,-262.378"/>
</g>
<!-- node75 -->
<g id="node7" class="node"><title>node75</title>
<ellipse fill="none" stroke="black" cx="181.728" cy="-90" rx="27" ry="18"/>
<text text-anchor="middle" x="181.728" y="-85.8" font-family="Times,serif" font-size="14.00">&quot;)&quot;</text>
</g>
<!-- node75&#45;&gt;end -->
<g id="edge5" class="edge"><title>node75&#45;&gt;end</title>
<path fill="none" stroke="black" d="M172.219,-72.7646C167.393,-64.5255 161.414,-54.3166 155.966,-45.0157"/>
<polygon fill="black" stroke="black" points="158.832,-42.9838 150.758,-36.1239 152.792,-46.5217 158.832,-42.9838"/>
</g>
<!-- node76 -->
<g id="node8" class="node"><title>node76</title>
<g id="a_node8"><a xlink:href="field_symbol.svg" xlink:title="&lt;u&gt;field_symbol&lt;/u&gt;">
<ellipse fill="none" stroke="black" cx="192.728" cy="-162" rx="61.9982" ry="18"/>
<text text-anchor="start" x="155.787" y="-158.8" font-family="Times,serif" text-decoration="underline" font-size="14.00" fill="blue">field_symbol</text>
</a>
</g>
</g>
<!-- node76&#45;&gt;node75 -->
<g id="edge6" class="edge"><title>node76&#45;&gt;node75</title>
<path fill="none" stroke="black" d="M190.009,-143.697C188.797,-135.983 187.34,-126.712 185.989,-118.112"/>
<polygon fill="black" stroke="black" points="189.426,-117.44 184.416,-108.104 182.511,-118.526 189.426,-117.44"/>
</g>
<!-- node77 -->
<g id="node9" class="node"><title>node77</title>
<ellipse fill="none" stroke="black" cx="195.728" cy="-234" rx="27" ry="18"/>
<text text-anchor="middle" x="195.728" y="-229.8" font-family="Times,serif" font-size="14.00">&quot;(&quot;</text>
</g>
<!-- node77&#45;&gt;node76 -->
<g id="edge7" class="edge"><title>node77&#45;&gt;node76</title>
<path fill="none" stroke="black" d="M194.987,-215.697C194.656,-207.983 194.259,-198.712 193.89,-190.112"/>
<polygon fill="black" stroke="black" points="197.386,-189.945 193.461,-180.104 190.393,-190.245 197.386,-189.945"/>
</g>
<!-- node78&#45;&gt;node77 -->
<g id="edge8" class="edge"><title>node78&#45;&gt;node77</title>
<path fill="none" stroke="black" d="M197.987,-287.697C197.656,-279.983 197.259,-270.712 196.89,-262.112"/>
<polygon fill="black" stroke="black" points="200.386,-261.945 196.461,-252.104 193.393,-262.245 200.386,-261.945"/>
</g>
</g>
</svg>
