<svg xmlns="http://www.w3.org/2000/svg" xmlns:xlink="http://www.w3.org/1999/xlink" class="railroad-diagram" width="1230" height="101" viewBox="0 0 1230 101">
<defs>
<style type="text/css"><![CDATA[
path {
stroke-width: 3;
stroke: black;
fill: rgba(0,0,0,0);
}
text {
font: bold 14px monospace;
text-anchor: middle;
}
text.diagram-text {
font-size: 12px;
}
a {
fill: blue;
}
text.diagram-arrow {
font-size: 16px;
}
text.label {
text-anchor: start;
}
text.comment {
font: italic 12px monospace;
}
rect {
stroke-width: 3;
stroke: black;
fill: #BCBCBC;
}
path.diagram-text {
stroke-width: 3;
stroke: black;
fill: #BCBCBC;
cursor: help;
}
]]></style>
</defs>
<g transform="translate(.5 .5)">
<path d="M 20 30 v 20 m 10 -20 v 20 m -10 -10 h 20.5"></path>
<path d="M40 40h10"></path>
<g>
<path d="M50 40h0"></path>
<path d="M1180 40h0"></path>
<g class="terminal">
<path d="M50 40h0"></path>
<path d="M134 40h0"></path>
<rect x="50" y="29" width="84" height="22" rx="10" ry="10"></rect>
<text x="92" y="44">"INSERT"</text>
</g>
<path d="M134 40h10"></path>
<g>
<path d="M144 40h0"></path>
<path d="M284 40h0"></path>
<path d="M144 40a10 10 0 0 0 10 -10v0a10 10 0 0 1 10 -10"></path>
<g>
<path d="M164 20h100"></path>
</g>
<path d="M264 20a10 10 0 0 1 10 10v0a10 10 0 0 0 10 10"></path>
<path d="M144 40h20"></path>
<g class="terminal">
<path d="M164 40h0"></path>
<path d="M264 40h0"></path>
<rect x="164" y="29" width="100" height="22" rx="10" ry="10"></rect>
<text x="214" y="44">"LINES OF"</text>
</g>
<path d="M264 40h20"></path>
</g>
<g>
<path d="M284 40h0"></path>
<path d="M400 40h0"></path>
<path d="M284 40h20"></path>
<g class="non-terminal">
<path d="M304 40h4"></path>
<path d="M376 40h4"></path>
<rect x="308" y="29" width="68" height="22"></rect>
<a xlink:href="reuse_source.svg"><text x="342" y="44">source</text>
</a>
</g>
<path d="M380 40h20"></path>
<path d="M284 40a10 10 0 0 1 10 10v10a10 10 0 0 0 10 10"></path>
<g class="non-terminal">
<path d="M304 70h0"></path>
<path d="M380 70h0"></path>
<rect x="304" y="59" width="76" height="22"></rect>
<a xlink:href="reuse_dynamic.svg"><text x="342" y="74">dynamic</text>
</a>
</g>
<path d="M380 70a10 10 0 0 0 10 -10v-10a10 10 0 0 1 10 -10"></path>
</g>
<path d="M400 40h10"></path>
<g class="terminal">
<path d="M410 40h0"></path>
<path d="M478 40h0"></path>
<rect x="410" y="29" width="68" height="22" rx="10" ry="10"></rect>
<text x="444" y="44">"INTO"</text>
</g>
<path d="M478 40h10"></path>
<g>
<path d="M488 40h0"></path>
<path d="M604 40h0"></path>
<path d="M488 40a10 10 0 0 0 10 -10v0a10 10 0 0 1 10 -10"></path>
<g>
<path d="M508 20h76"></path>
</g>
<path d="M584 20a10 10 0 0 1 10 10v0a10 10 0 0 0 10 10"></path>
<path d="M488 40h20"></path>
<g class="terminal">
<path d="M508 40h0"></path>
<path d="M584 40h0"></path>
<rect x="508" y="29" width="76" height="22" rx="10" ry="10"></rect>
<text x="546" y="44">"TABLE"</text>
</g>
<path d="M584 40h20"></path>
</g>
<path d="M604 40h10"></path>
<g class="non-terminal">
<path d="M614 40h0"></path>
<path d="M682 40h0"></path>
<rect x="614" y="29" width="68" height="22"></rect>
<a xlink:href="reuse_source.svg"><text x="648" y="44">source</text>
</a>
</g>
<path d="M682 40h10"></path>
<g>
<path d="M692 40h0"></path>
<path d="M896 40h0"></path>
<path d="M692 40a10 10 0 0 0 10 -10v0a10 10 0 0 1 10 -10"></path>
<g>
<path d="M712 20h164"></path>
</g>
<path d="M876 20a10 10 0 0 1 10 10v0a10 10 0 0 0 10 10"></path>
<path d="M692 40h20"></path>
<g>
<path d="M712 40h0"></path>
<path d="M876 40h0"></path>
<g class="terminal">
<path d="M712 40h0"></path>
<path d="M788 40h0"></path>
<rect x="712" y="29" width="76" height="22" rx="10" ry="10"></rect>
<text x="750" y="44">"INDEX"</text>
</g>
<path d="M788 40h10"></path>
<path d="M798 40h10"></path>
<g class="non-terminal">
<path d="M808 40h0"></path>
<path d="M876 40h0"></path>
<rect x="808" y="29" width="68" height="22"></rect>
<a xlink:href="reuse_source.svg"><text x="842" y="44">source</text>
</a>
</g>
</g>
<path d="M876 40h20"></path>
</g>
<g>
<path d="M896 40h0"></path>
<path d="M1180 40h0"></path>
<path d="M896 40a10 10 0 0 0 10 -10v0a10 10 0 0 1 10 -10"></path>
<g>
<path d="M916 20h244"></path>
</g>
<path d="M1160 20a10 10 0 0 1 10 10v0a10 10 0 0 0 10 10"></path>
<path d="M896 40h20"></path>
<g>
<path d="M916 40h0"></path>
<path d="M1160 40h0"></path>
<g class="terminal">
<path d="M916 40h0"></path>
<path d="M1024 40h0"></path>
<rect x="916" y="29" width="108" height="22" rx="10" ry="10"></rect>
<text x="970" y="44">"ASSIGNING"</text>
</g>
<path d="M1024 40h10"></path>
<path d="M1034 40h10"></path>
<g class="non-terminal">
<path d="M1044 40h0"></path>
<path d="M1160 40h0"></path>
<rect x="1044" y="29" width="116" height="22"></rect>
<a xlink:href="reuse_field_symbol.svg"><text x="1102" y="44">field&#95;symbol</text>
</a>
</g>
</g>
<path d="M1160 40h20"></path>
</g>
</g>
<path d="M1180 40h10"></path>
<path d="M 1190 40 h 20 m -10 -10 v 20 m 10 -20 v 20"></path>
</g>
</svg>
