<svg xmlns="http://www.w3.org/2000/svg" xmlns:xlink="http://www.w3.org/1999/xlink" class="railroad-diagram" width="718" height="169" viewBox="0 0 718 169">
<defs>
<style type="text/css"><![CDATA[
path {
stroke-width: 3;
stroke: black;
fill: rgba(0,0,0,0);
}
text {
font: bold 14px monospace;
text-anchor: middle;
}
text.diagram-text {
font-size: 12px;
}
a {
fill: blue;
}
text.diagram-arrow {
font-size: 16px;
}
text.label {
text-anchor: start;
}
text.comment {
font: italic 12px monospace;
}
rect {
stroke-width: 3;
stroke: black;
fill: #BCBCBC;
}
path.diagram-text {
stroke-width: 3;
stroke: black;
fill: #BCBCBC;
cursor: help;
}
]]></style>
</defs>
<g transform="translate(.5 .5)">
<path d="M 20 38 v 20 m 10 -20 v 20 m -10 -10 h 20.5"></path>
<path d="M40 48h10"></path>
<g>
<path d="M50 48h0"></path>
<path d="M668 48h0"></path>
<g class="terminal">
<path d="M50 48h0"></path>
<path d="M134 48h0"></path>
<rect x="50" y="37" width="84" height="22" rx="10" ry="10"></rect>
<text x="92" y="52">"INSERT"</text>
</g>
<path d="M134 48h10"></path>
<g>
<path d="M144 48h0"></path>
<path d="M668 48h0"></path>
<path d="M144 48h20"></path>
<g>
<path d="M164 48h0"></path>
<path d="M648 48h0"></path>
<g>
<path d="M164 48h0"></path>
<path d="M336 48h0"></path>
<path d="M164 48h20"></path>
<g class="non-terminal">
<path d="M184 48h0"></path>
<path d="M316 48h0"></path>
<rect x="184" y="37" width="132" height="22"></rect>
<a xlink:href="reuse_database_table.svg"><text x="250" y="52">database&#95;table</text>
</a>
</g>
<path d="M316 48h20"></path>
<path d="M164 48a10 10 0 0 1 10 10v10a10 10 0 0 0 10 10"></path>
<g class="non-terminal">
<path d="M184 78h0"></path>
<path d="M260 78h56"></path>
<rect x="184" y="67" width="76" height="22"></rect>
<a xlink:href="reuse_dynamic.svg"><text x="222" y="82">dynamic</text>
</a>
</g>
<path d="M316 78a10 10 0 0 0 10 -10v-10a10 10 0 0 1 10 -10"></path>
</g>
<g>
<path d="M336 48h0"></path>
<path d="M648 48h0"></path>
<path d="M336 48a10 10 0 0 0 10 -10v-8a10 10 0 0 1 10 -10"></path>
<g>
<path d="M356 20h272"></path>
</g>
<path d="M628 20a10 10 0 0 1 10 10v8a10 10 0 0 0 10 10"></path>
<path d="M336 48h20"></path>
<g>
<path d="M356 48h0"></path>
<path d="M628 48h0"></path>
<g class="terminal">
<path d="M356 48h0"></path>
<path d="M424 48h0"></path>
<rect x="356" y="37" width="68" height="22" rx="10" ry="10"></rect>
<text x="390" y="52">"FROM"</text>
</g>
<path d="M424 48h10"></path>
<g>
<path d="M434 48h0"></path>
<path d="M550 48h0"></path>
<path d="M434 48a10 10 0 0 0 10 -10v0a10 10 0 0 1 10 -10"></path>
<g>
<path d="M454 28h76"></path>
</g>
<path d="M530 28a10 10 0 0 1 10 10v0a10 10 0 0 0 10 10"></path>
<path d="M434 48h20"></path>
<g class="terminal">
<path d="M454 48h0"></path>
<path d="M530 48h0"></path>
<rect x="454" y="37" width="76" height="22" rx="10" ry="10"></rect>
<text x="492" y="52">"TABLE"</text>
</g>
<path d="M530 48h20"></path>
</g>
<path d="M550 48h10"></path>
<g class="non-terminal">
<path d="M560 48h0"></path>
<path d="M628 48h0"></path>
<rect x="560" y="37" width="68" height="22"></rect>
<a xlink:href="reuse_source.svg"><text x="594" y="52">source</text>
</a>
</g>
</g>
<path d="M628 48h20"></path>
</g>
</g>
<path d="M648 48h20"></path>
<path d="M144 48a10 10 0 0 1 10 10v40a10 10 0 0 0 10 10"></path>
<g>
<path d="M164 108h0"></path>
<path d="M596 108h52"></path>
<g class="terminal">
<path d="M164 108h0"></path>
<path d="M232 108h0"></path>
<rect x="164" y="97" width="68" height="22" rx="10" ry="10"></rect>
<text x="198" y="112">"INTO"</text>
</g>
<path d="M232 108h10"></path>
<g>
<path d="M242 108h0"></path>
<path d="M414 108h0"></path>
<path d="M242 108h20"></path>
<g class="non-terminal">
<path d="M262 108h0"></path>
<path d="M394 108h0"></path>
<rect x="262" y="97" width="132" height="22"></rect>
<a xlink:href="reuse_database_table.svg"><text x="328" y="112">database&#95;table</text>
</a>
</g>
<path d="M394 108h20"></path>
<path d="M242 108a10 10 0 0 1 10 10v10a10 10 0 0 0 10 10"></path>
<g class="non-terminal">
<path d="M262 138h0"></path>
<path d="M338 138h56"></path>
<rect x="262" y="127" width="76" height="22"></rect>
<a xlink:href="reuse_dynamic.svg"><text x="300" y="142">dynamic</text>
</a>
</g>
<path d="M394 138a10 10 0 0 0 10 -10v-10a10 10 0 0 1 10 -10"></path>
</g>
<path d="M414 108h10"></path>
<g class="terminal">
<path d="M424 108h0"></path>
<path d="M508 108h0"></path>
<rect x="424" y="97" width="84" height="22" rx="10" ry="10"></rect>
<text x="466" y="112">"VALUES"</text>
</g>
<path d="M508 108h10"></path>
<path d="M518 108h10"></path>
<g class="non-terminal">
<path d="M528 108h0"></path>
<path d="M596 108h0"></path>
<rect x="528" y="97" width="68" height="22"></rect>
<a xlink:href="reuse_source.svg"><text x="562" y="112">source</text>
</a>
</g>
</g>
<path d="M648 108a10 10 0 0 0 10 -10v-40a10 10 0 0 1 10 -10"></path>
</g>
</g>
<path d="M668 48h10"></path>
<path d="M 678 48 h 20 m -10 -10 v 20 m 10 -20 v 20"></path>
</g>
</svg>
