<svg xmlns="http://www.w3.org/2000/svg" xmlns:xlink="http://www.w3.org/1999/xlink" class="railroad-diagram" width="958" height="101" viewBox="0 0 958 101">
<defs>
<style type="text/css"><![CDATA[
path {
stroke-width: 3;
stroke: black;
fill: rgba(0,0,0,0);
}
text {
font: bold 14px monospace;
text-anchor: middle;
}
text.diagram-text {
font-size: 12px;
}
a {
fill: blue;
}
text.diagram-arrow {
font-size: 16px;
}
text.label {
text-anchor: start;
}
text.comment {
font: italic 12px monospace;
}
rect {
stroke-width: 3;
stroke: black;
fill: #BCBCBC;
}
path.diagram-text {
stroke-width: 3;
stroke: black;
fill: #BCBCBC;
cursor: help;
}
]]></style>
</defs>
<g transform="translate(.5 .5)">
<path d="M 20 30 v 20 m 10 -20 v 20 m -10 -10 h 20.5"></path>
<path d="M40 40h10"></path>
<g>
<path d="M50 40h0"></path>
<path d="M908 40h0"></path>
<g class="terminal">
<path d="M50 40h0"></path>
<path d="M134 40h0"></path>
<rect x="50" y="29" width="84" height="22" rx="10" ry="10"></rect>
<text x="92" y="44">"INSERT"</text>
</g>
<path d="M134 40h10"></path>
<g>
<path d="M144 40h0"></path>
<path d="M284 40h0"></path>
<path d="M144 40a10 10 0 0 0 10 -10v0a10 10 0 0 1 10 -10"></path>
<g>
<path d="M164 20h100"></path>
</g>
<path d="M264 20a10 10 0 0 1 10 10v0a10 10 0 0 0 10 10"></path>
<path d="M144 40h20"></path>
<g class="terminal">
<path d="M164 40h0"></path>
<path d="M264 40h0"></path>
<rect x="164" y="29" width="100" height="22" rx="10" ry="10"></rect>
<text x="214" y="44">"LINES OF"</text>
</g>
<path d="M264 40h20"></path>
</g>
<g>
<path d="M284 40h0"></path>
<path d="M400 40h0"></path>
<path d="M284 40h20"></path>
<g class="non-terminal">
<path d="M304 40h4"></path>
<path d="M376 40h4"></path>
<rect x="308" y="29" width="68" height="22"></rect>
<a xlink:href="reuse_source.svg"><text x="342" y="44">source</text>
</a>
</g>
<path d="M380 40h20"></path>
<path d="M284 40a10 10 0 0 1 10 10v10a10 10 0 0 0 10 10"></path>
<g class="non-terminal">
<path d="M304 70h0"></path>
<path d="M380 70h0"></path>
<rect x="304" y="59" width="76" height="22"></rect>
<a xlink:href="reuse_dynamic.svg"><text x="342" y="74">dynamic</text>
</a>
</g>
<path d="M380 70a10 10 0 0 0 10 -10v-10a10 10 0 0 1 10 -10"></path>
</g>
<path d="M400 40h10"></path>
<g class="terminal">
<path d="M410 40h0"></path>
<path d="M526 40h0"></path>
<rect x="410" y="29" width="116" height="22" rx="10" ry="10"></rect>
<text x="468" y="44">"INTO TABLE"</text>
</g>
<path d="M526 40h10"></path>
<path d="M536 40h10"></path>
<g class="non-terminal">
<path d="M546 40h0"></path>
<path d="M614 40h0"></path>
<rect x="546" y="29" width="68" height="22"></rect>
<a xlink:href="reuse_source.svg"><text x="580" y="44">source</text>
</a>
</g>
<path d="M614 40h10"></path>
<g>
<path d="M624 40h0"></path>
<path d="M908 40h0"></path>
<path d="M624 40a10 10 0 0 0 10 -10v0a10 10 0 0 1 10 -10"></path>
<g>
<path d="M644 20h244"></path>
</g>
<path d="M888 20a10 10 0 0 1 10 10v0a10 10 0 0 0 10 10"></path>
<path d="M624 40h20"></path>
<g>
<path d="M644 40h0"></path>
<path d="M888 40h0"></path>
<g class="terminal">
<path d="M644 40h0"></path>
<path d="M752 40h0"></path>
<rect x="644" y="29" width="108" height="22" rx="10" ry="10"></rect>
<text x="698" y="44">"ASSIGNING"</text>
</g>
<path d="M752 40h10"></path>
<path d="M762 40h10"></path>
<g class="non-terminal">
<path d="M772 40h0"></path>
<path d="M888 40h0"></path>
<rect x="772" y="29" width="116" height="22"></rect>
<a xlink:href="reuse_field_symbol.svg"><text x="830" y="44">field&#95;symbol</text>
</a>
</g>
</g>
<path d="M888 40h20"></path>
</g>
</g>
<path d="M908 40h10"></path>
<path d="M 918 40 h 20 m -10 -10 v 20 m 10 -20 v 20"></path>
</g>
</svg>
