<svg xmlns="http://www.w3.org/2000/svg" xmlns:xlink="http://www.w3.org/1999/xlink" class="railroad-diagram" width="1198" height="170" viewBox="0 0 1198 170">
<defs>
<style type="text/css"><![CDATA[
path {
stroke-width: 3;
stroke: black;
fill: rgba(0,0,0,0);
}
text {
font: bold 14px monospace;
text-anchor: middle;
}
text.diagram-text {
font-size: 12px;
}
a {
fill: blue;
}
text.diagram-arrow {
font-size: 16px;
}
text.label {
text-anchor: start;
}
text.comment {
font: italic 12px monospace;
}
rect {
stroke-width: 3;
stroke: black;
fill: #BCBCBC;
}
path.diagram-text {
stroke-width: 3;
stroke: black;
fill: #BCBCBC;
cursor: help;
}
]]></style>
</defs>
<g transform="translate(.5 .5)">
<path d="M 20 30 v 20 m 10 -20 v 20 m -10 -10 h 20.5"></path>
<path d="M40 40h10"></path>
<g>
<path d="M50 40h0"></path>
<path d="M1148 40h0"></path>
<g class="terminal">
<path d="M50 40h0"></path>
<path d="M134 40h0"></path>
<rect x="50" y="29" width="84" height="22" rx="10" ry="10"></rect>
<text x="92" y="44">"INSERT"</text>
</g>
<path d="M134 40h10"></path>
<g>
<path d="M144 40h0"></path>
<path d="M796 40h0"></path>
<path d="M144 40h20"></path>
<g class="terminal">
<path d="M164 40h0"></path>
<path d="M296 40h480"></path>
<rect x="164" y="29" width="132" height="22" rx="10" ry="10"></rect>
<text x="230" y="44">"INITIAL LINE"</text>
</g>
<path d="M776 40h20"></path>
<path d="M144 40a10 10 0 0 1 10 10v10a10 10 0 0 0 10 10"></path>
<g class="non-terminal">
<path d="M164 70h0"></path>
<path d="M232 70h544"></path>
<rect x="164" y="59" width="68" height="22"></rect>
<a xlink:href="reuse_target.svg"><text x="198" y="74">Target</text>
</a>
</g>
<path d="M776 70a10 10 0 0 0 10 -10v-10a10 10 0 0 1 10 -10"></path>
<path d="M144 40a10 10 0 0 1 10 10v49a10 10 0 0 0 10 10"></path>
<g>
<path d="M164 109h0"></path>
<path d="M776 109h0"></path>
<g>
<path d="M164 109h0"></path>
<path d="M304 109h0"></path>
<path d="M164 109a10 10 0 0 0 10 -10v0a10 10 0 0 1 10 -10"></path>
<g>
<path d="M184 89h100"></path>
</g>
<path d="M284 89a10 10 0 0 1 10 10v0a10 10 0 0 0 10 10"></path>
<path d="M164 109h20"></path>
<g class="terminal">
<path d="M184 109h0"></path>
<path d="M284 109h0"></path>
<rect x="184" y="98" width="100" height="22" rx="10" ry="10"></rect>
<text x="234" y="113">"LINES OF"</text>
</g>
<path d="M284 109h20"></path>
</g>
<g>
<path d="M304 109h0"></path>
<path d="M420 109h0"></path>
<path d="M304 109h20"></path>
<g class="non-terminal">
<path d="M324 109h0"></path>
<path d="M392 109h8"></path>
<rect x="324" y="98" width="68" height="22"></rect>
<a xlink:href="reuse_source.svg"><text x="358" y="113">Source</text>
</a>
</g>
<path d="M400 109h20"></path>
<path d="M304 109a10 10 0 0 1 10 10v10a10 10 0 0 0 10 10"></path>
<g class="non-terminal">
<path d="M324 139h0"></path>
<path d="M400 139h0"></path>
<rect x="324" y="128" width="76" height="22"></rect>
<a xlink:href="reuse_dynamic.svg"><text x="362" y="143">Dynamic</text>
</a>
</g>
<path d="M400 139a10 10 0 0 0 10 -10v-10a10 10 0 0 1 10 -10"></path>
</g>
<g>
<path d="M420 109h0"></path>
<path d="M776 109h0"></path>
<path d="M420 109a10 10 0 0 0 10 -10v0a10 10 0 0 1 10 -10"></path>
<g>
<path d="M440 89h316"></path>
</g>
<path d="M756 89a10 10 0 0 1 10 10v0a10 10 0 0 0 10 10"></path>
<path d="M420 109h20"></path>
<g>
<path d="M440 109h0"></path>
<path d="M756 109h0"></path>
<g class="terminal">
<path d="M440 109h0"></path>
<path d="M508 109h0"></path>
<rect x="440" y="98" width="68" height="22" rx="10" ry="10"></rect>
<text x="474" y="113">"FROM"</text>
</g>
<path d="M508 109h10"></path>
<path d="M518 109h10"></path>
<g class="non-terminal">
<path d="M528 109h0"></path>
<path d="M596 109h0"></path>
<rect x="528" y="98" width="68" height="22"></rect>
<a xlink:href="reuse_source.svg"><text x="562" y="113">Source</text>
</a>
</g>
<path d="M596 109h10"></path>
<path d="M606 109h10"></path>
<g class="terminal">
<path d="M616 109h0"></path>
<path d="M668 109h0"></path>
<rect x="616" y="98" width="52" height="22" rx="10" ry="10"></rect>
<text x="642" y="113">"TO"</text>
</g>
<path d="M668 109h10"></path>
<path d="M678 109h10"></path>
<g class="non-terminal">
<path d="M688 109h0"></path>
<path d="M756 109h0"></path>
<rect x="688" y="98" width="68" height="22"></rect>
<a xlink:href="reuse_source.svg"><text x="722" y="113">Source</text>
</a>
</g>
</g>
<path d="M756 109h20"></path>
</g>
</g>
<path d="M776 109a10 10 0 0 0 10 -10v-49a10 10 0 0 1 10 -10"></path>
</g>
<path d="M796 40h10"></path>
<g>
<path d="M806 40h0"></path>
<path d="M1148 40h0"></path>
<path d="M836 40h10"></path>
<g>
<path d="M846 40h0"></path>
<path d="M1118 40h0"></path>
<g class="terminal">
<path d="M846 40h0"></path>
<path d="M914 40h0"></path>
<rect x="846" y="29" width="68" height="22" rx="10" ry="10"></rect>
<text x="880" y="44">"INTO"</text>
</g>
<path d="M914 40h10"></path>
<g>
<path d="M924 40h0"></path>
<path d="M1040 40h0"></path>
<path d="M924 40a10 10 0 0 0 10 -10v0a10 10 0 0 1 10 -10"></path>
<g>
<path d="M944 20h76"></path>
</g>
<path d="M1020 20a10 10 0 0 1 10 10v0a10 10 0 0 0 10 10"></path>
<path d="M924 40h20"></path>
<g class="terminal">
<path d="M944 40h0"></path>
<path d="M1020 40h0"></path>
<rect x="944" y="29" width="76" height="22" rx="10" ry="10"></rect>
<text x="982" y="44">"TABLE"</text>
</g>
<path d="M1020 40h20"></path>
</g>
<path d="M1040 40h10"></path>
<g class="non-terminal">
<path d="M1050 40h0"></path>
<path d="M1118 40h0"></path>
<rect x="1050" y="29" width="68" height="22"></rect>
<a xlink:href="reuse_source.svg"><text x="1084" y="44">Source</text>
</a>
</g>
</g>
<path d="M1118 40h10"></path>
<path d="M836 40v20a10 10 0 0 0 10 10"></path>
<g>
<path d="M846 70h0"></path>
<path d="M1082 70h36"></path>
<g class="terminal">
<path d="M846 70h0"></path>
<path d="M994 70h0"></path>
<rect x="846" y="59" width="148" height="22" rx="10" ry="10"></rect>
<text x="920" y="74">"REFERENCE INTO"</text>
</g>
<path d="M994 70h10"></path>
<path d="M1004 70h10"></path>
<g class="non-terminal">
<path d="M1014 70h0"></path>
<path d="M1082 70h0"></path>
<rect x="1014" y="59" width="68" height="22"></rect>
<a xlink:href="reuse_target.svg"><text x="1048" y="74">Target</text>
</a>
</g>
</g>
<path d="M1118 70a10 10 0 0 0 10 -10v-20"></path>
<path d="M836 40v50a10 10 0 0 0 10 10"></path>
<g>
<path d="M846 100h0"></path>
<path d="M1010 100h108"></path>
<g class="terminal">
<path d="M846 100h0"></path>
<path d="M922 100h0"></path>
<rect x="846" y="89" width="76" height="22" rx="10" ry="10"></rect>
<text x="884" y="104">"INDEX"</text>
</g>
<path d="M922 100h10"></path>
<path d="M932 100h10"></path>
<g class="non-terminal">
<path d="M942 100h0"></path>
<path d="M1010 100h0"></path>
<rect x="942" y="89" width="68" height="22"></rect>
<a xlink:href="reuse_source.svg"><text x="976" y="104">Source</text>
</a>
</g>
</g>
<path d="M1118 100a10 10 0 0 0 10 -10v-50"></path>
<path d="M836 40v80a10 10 0 0 0 10 10"></path>
<g>
<path d="M846 130h0"></path>
<path d="M1058 130h60"></path>
<g class="terminal">
<path d="M846 130h0"></path>
<path d="M954 130h0"></path>
<rect x="846" y="119" width="108" height="22" rx="10" ry="10"></rect>
<text x="900" y="134">"ASSIGNING"</text>
</g>
<path d="M954 130h10"></path>
<path d="M964 130h10"></path>
<g class="non-terminal">
<path d="M974 130h0"></path>
<path d="M1058 130h0"></path>
<rect x="974" y="119" width="84" height="22"></rect>
<a xlink:href="reuse_fstarget.svg"><text x="1016" y="134">FSTarget</text>
</a>
</g>
</g>
<path d="M1118 130a10 10 0 0 0 10 -10v-80"></path>
<g class="diagram-text">
<title>take one or more branches, once each, in any order</title>
<path d="M 836 30 h -26 a 4 4 0 0 0 -4 4 v 12 a 4 4 0 0 0 4 4 h 26 z" class="diagram-text"></path>
<text x="821" y="44" class="diagram-text">1+</text>
<path d="M 1128 30 h 16 a 4 4 0 0 1 4 4 v 12 a 4 4 0 0 1 -4 4 h -16 z" class="diagram-text"></path>
<path d="M 1135 38 a 4 4 0 1 0 6 -1 m 2.75 -1 h -4 v 4 m 0 -3 h 2" style="stroke-width: 1.75"></path>
</g>
</g>
</g>
<path d="M1148 40h10"></path>
<path d="M 1158 40 h 20 m -10 -10 v 20 m 10 -20 v 20"></path>
</g>
</svg>
