<svg xmlns="http://www.w3.org/2000/svg" xmlns:xlink="http://www.w3.org/1999/xlink" class="railroad-diagram" width="1242" height="178" viewBox="0 0 1242 178">
<defs>
<style type="text/css"><![CDATA[
path {
stroke-width: 3;
stroke: black;
fill: rgba(0,0,0,0);
}
text {
font: bold 14px monospace;
text-anchor: middle;
}
text.diagram-text {
font-size: 12px;
}
a {
fill: blue;
}
text.diagram-arrow {
font-size: 16px;
}
text.label {
text-anchor: start;
}
text.comment {
font: italic 12px monospace;
}
rect {
stroke-width: 3;
stroke: black;
fill: #BCBCBC;
}
path.diagram-text {
stroke-width: 3;
stroke: black;
fill: #BCBCBC;
cursor: help;
}
]]></style>
</defs>
<g transform="translate(.5 .5)">
<path d="M 20 38 v 20 m 10 -20 v 20 m -10 -10 h 20.5"></path>
<path d="M40 48h10"></path>
<g>
<path d="M50 48h0"></path>
<path d="M1192 48h0"></path>
<g class="terminal">
<path d="M50 48h0"></path>
<path d="M134 48h0"></path>
<rect x="50" y="37" width="84" height="22" rx="10" ry="10"></rect>
<text x="92" y="52">"INSERT"</text>
</g>
<path d="M134 48h10"></path>
<g>
<path d="M144 48h0"></path>
<path d="M1192 48h0"></path>
<path d="M144 48h20"></path>
<g>
<path d="M164 48h0"></path>
<path d="M1172 48h0"></path>
<g>
<path d="M164 48h0"></path>
<path d="M328 48h0"></path>
<path d="M164 48h20"></path>
<g class="non-terminal">
<path d="M184 48h0"></path>
<path d="M308 48h0"></path>
<rect x="184" y="37" width="124" height="22"></rect>
<a xlink:href="reuse_databasetable.svg"><text x="246" y="52">DatabaseTable</text>
</a>
</g>
<path d="M308 48h20"></path>
<path d="M164 48a10 10 0 0 1 10 10v10a10 10 0 0 0 10 10"></path>
<g class="non-terminal">
<path d="M184 78h0"></path>
<path d="M260 78h48"></path>
<rect x="184" y="67" width="76" height="22"></rect>
<a xlink:href="reuse_dynamic.svg"><text x="222" y="82">Dynamic</text>
</a>
</g>
<path d="M308 78a10 10 0 0 0 10 -10v-10a10 10 0 0 1 10 -10"></path>
</g>
<g>
<path d="M328 48h0"></path>
<path d="M1172 48h0"></path>
<path d="M328 48a10 10 0 0 0 10 -10v-8a10 10 0 0 1 10 -10"></path>
<g>
<path d="M348 20h804"></path>
</g>
<path d="M1152 20a10 10 0 0 1 10 10v8a10 10 0 0 0 10 10"></path>
<path d="M328 48h20"></path>
<g>
<path d="M348 48h0"></path>
<path d="M1152 48h0"></path>
<path d="M348 48h20"></path>
<g>
<path d="M368 48h0"></path>
<path d="M1132 48h0"></path>
<g>
<path d="M368 48h0"></path>
<path d="M572 48h0"></path>
<path d="M368 48a10 10 0 0 0 10 -10v0a10 10 0 0 1 10 -10"></path>
<g>
<path d="M388 28h164"></path>
</g>
<path d="M552 28a10 10 0 0 1 10 10v0a10 10 0 0 0 10 10"></path>
<path d="M368 48h20"></path>
<g class="terminal">
<path d="M388 48h0"></path>
<path d="M552 48h0"></path>
<rect x="388" y="37" width="164" height="22" rx="10" ry="10"></rect>
<text x="470" y="52">"CLIENT SPECIFIED"</text>
</g>
<path d="M552 48h20"></path>
</g>
<path d="M572 48h10"></path>
<g class="terminal">
<path d="M582 48h0"></path>
<path d="M650 48h0"></path>
<rect x="582" y="37" width="68" height="22" rx="10" ry="10"></rect>
<text x="616" y="52">"FROM"</text>
</g>
<path d="M650 48h10"></path>
<g>
<path d="M660 48h0"></path>
<path d="M776 48h0"></path>
<path d="M660 48a10 10 0 0 0 10 -10v0a10 10 0 0 1 10 -10"></path>
<g>
<path d="M680 28h76"></path>
</g>
<path d="M756 28a10 10 0 0 1 10 10v0a10 10 0 0 0 10 10"></path>
<path d="M660 48h20"></path>
<g class="terminal">
<path d="M680 48h0"></path>
<path d="M756 48h0"></path>
<rect x="680" y="37" width="76" height="22" rx="10" ry="10"></rect>
<text x="718" y="52">"TABLE"</text>
</g>
<path d="M756 48h20"></path>
</g>
<path d="M776 48h10"></path>
<g class="non-terminal">
<path d="M786 48h0"></path>
<path d="M854 48h0"></path>
<rect x="786" y="37" width="68" height="22"></rect>
<a xlink:href="reuse_source.svg"><text x="820" y="52">Source</text>
</a>
</g>
<path d="M854 48h10"></path>
<g>
<path d="M864 48h0"></path>
<path d="M1132 48h0"></path>
<path d="M864 48a10 10 0 0 0 10 -10v0a10 10 0 0 1 10 -10"></path>
<g>
<path d="M884 28h228"></path>
</g>
<path d="M1112 28a10 10 0 0 1 10 10v0a10 10 0 0 0 10 10"></path>
<path d="M864 48h20"></path>
<g class="terminal">
<path d="M884 48h0"></path>
<path d="M1112 48h0"></path>
<rect x="884" y="37" width="228" height="22" rx="10" ry="10"></rect>
<text x="998" y="52">"ACCEPTING DUPLICATE KEYS"</text>
</g>
<path d="M1112 48h20"></path>
</g>
</g>
<path d="M1132 48h20"></path>
<path d="M348 48a10 10 0 0 1 10 10v10a10 10 0 0 0 10 10"></path>
<g class="terminal">
<path d="M368 78h0"></path>
<path d="M532 78h600"></path>
<rect x="368" y="67" width="164" height="22" rx="10" ry="10"></rect>
<text x="450" y="82">"CLIENT SPECIFIED"</text>
</g>
<path d="M1132 78a10 10 0 0 0 10 -10v-10a10 10 0 0 1 10 -10"></path>
</g>
<path d="M1152 48h20"></path>
</g>
</g>
<path d="M1172 48h20"></path>
<path d="M144 48a10 10 0 0 1 10 10v49a10 10 0 0 0 10 10"></path>
<g>
<path d="M164 117h0"></path>
<path d="M792 117h380"></path>
<g class="terminal">
<path d="M164 117h0"></path>
<path d="M232 117h0"></path>
<rect x="164" y="106" width="68" height="22" rx="10" ry="10"></rect>
<text x="198" y="121">"INTO"</text>
</g>
<path d="M232 117h10"></path>
<g>
<path d="M242 117h0"></path>
<path d="M406 117h0"></path>
<path d="M242 117h20"></path>
<g class="non-terminal">
<path d="M262 117h0"></path>
<path d="M386 117h0"></path>
<rect x="262" y="106" width="124" height="22"></rect>
<a xlink:href="reuse_databasetable.svg"><text x="324" y="121">DatabaseTable</text>
</a>
</g>
<path d="M386 117h20"></path>
<path d="M242 117a10 10 0 0 1 10 10v10a10 10 0 0 0 10 10"></path>
<g class="non-terminal">
<path d="M262 147h0"></path>
<path d="M338 147h48"></path>
<rect x="262" y="136" width="76" height="22"></rect>
<a xlink:href="reuse_dynamic.svg"><text x="300" y="151">Dynamic</text>
</a>
</g>
<path d="M386 147a10 10 0 0 0 10 -10v-10a10 10 0 0 1 10 -10"></path>
</g>
<g>
<path d="M406 117h0"></path>
<path d="M610 117h0"></path>
<path d="M406 117a10 10 0 0 0 10 -10v0a10 10 0 0 1 10 -10"></path>
<g>
<path d="M426 97h164"></path>
</g>
<path d="M590 97a10 10 0 0 1 10 10v0a10 10 0 0 0 10 10"></path>
<path d="M406 117h20"></path>
<g class="terminal">
<path d="M426 117h0"></path>
<path d="M590 117h0"></path>
<rect x="426" y="106" width="164" height="22" rx="10" ry="10"></rect>
<text x="508" y="121">"CLIENT SPECIFIED"</text>
</g>
<path d="M590 117h20"></path>
</g>
<path d="M610 117h10"></path>
<g class="terminal">
<path d="M620 117h0"></path>
<path d="M704 117h0"></path>
<rect x="620" y="106" width="84" height="22" rx="10" ry="10"></rect>
<text x="662" y="121">"VALUES"</text>
</g>
<path d="M704 117h10"></path>
<path d="M714 117h10"></path>
<g class="non-terminal">
<path d="M724 117h0"></path>
<path d="M792 117h0"></path>
<rect x="724" y="106" width="68" height="22"></rect>
<a xlink:href="reuse_source.svg"><text x="758" y="121">Source</text>
</a>
</g>
</g>
<path d="M1172 117a10 10 0 0 0 10 -10v-49a10 10 0 0 1 10 -10"></path>
</g>
</g>
<path d="M1192 48h10"></path>
<path d="M 1202 48 h 20 m -10 -10 v 20 m 10 -20 v 20"></path>
</g>
</svg>
