<svg xmlns="http://www.w3.org/2000/svg" xmlns:xlink="http://www.w3.org/1999/xlink" class="railroad-diagram" width="942" height="71" viewBox="0 0 942 71">
<defs>
<style type="text/css"><![CDATA[
path {
stroke-width: 3;
stroke: black;
fill: rgba(0,0,0,0);
}
text {
font: bold 14px monospace;
text-anchor: middle;
}
text.diagram-text {
font-size: 12px;
}
a {
fill: blue;
}
text.diagram-arrow {
font-size: 16px;
}
text.label {
text-anchor: start;
}
text.comment {
font: italic 12px monospace;
}
rect {
stroke-width: 3;
stroke: black;
fill: #BCBCBC;
}
path.diagram-text {
stroke-width: 3;
stroke: black;
fill: #BCBCBC;
cursor: help;
}
]]></style>
</defs>
<g transform="translate(.5 .5)">
<path d="M 20 30 v 20 m 10 -20 v 20 m -10 -10 h 20.5"></path>
<path d="M40 40h10"></path>
<g>
<path d="M50 40h0"></path>
<path d="M892 40h0"></path>
<g class="terminal">
<path d="M50 40h0"></path>
<path d="M206 40h0"></path>
<rect x="50" y="29" width="156" height="22" rx="10" ry="10"></rect>
<text x="128" y="44">"INSERT TEXTPOOL"</text>
</g>
<path d="M206 40h10"></path>
<path d="M216 40h10"></path>
<g class="non-terminal">
<path d="M226 40h0"></path>
<path d="M294 40h0"></path>
<rect x="226" y="29" width="68" height="22"></rect>
<a xlink:href="reuse_source.svg"><text x="260" y="44">Source</text>
</a>
</g>
<path d="M294 40h10"></path>
<path d="M304 40h10"></path>
<g class="terminal">
<path d="M314 40h0"></path>
<path d="M382 40h0"></path>
<rect x="314" y="29" width="68" height="22" rx="10" ry="10"></rect>
<text x="348" y="44">"FROM"</text>
</g>
<path d="M382 40h10"></path>
<path d="M392 40h10"></path>
<g class="non-terminal">
<path d="M402 40h0"></path>
<path d="M470 40h0"></path>
<rect x="402" y="29" width="68" height="22"></rect>
<a xlink:href="reuse_source.svg"><text x="436" y="44">Source</text>
</a>
</g>
<path d="M470 40h10"></path>
<path d="M480 40h10"></path>
<g class="terminal">
<path d="M490 40h0"></path>
<path d="M590 40h0"></path>
<rect x="490" y="29" width="100" height="22" rx="10" ry="10"></rect>
<text x="540" y="44">"LANGUAGE"</text>
</g>
<path d="M590 40h10"></path>
<path d="M600 40h10"></path>
<g class="non-terminal">
<path d="M610 40h0"></path>
<path d="M678 40h0"></path>
<rect x="610" y="29" width="68" height="22"></rect>
<a xlink:href="reuse_source.svg"><text x="644" y="44">Source</text>
</a>
</g>
<path d="M678 40h10"></path>
<g>
<path d="M688 40h0"></path>
<path d="M892 40h0"></path>
<path d="M688 40a10 10 0 0 0 10 -10v0a10 10 0 0 1 10 -10"></path>
<g>
<path d="M708 20h164"></path>
</g>
<path d="M872 20a10 10 0 0 1 10 10v0a10 10 0 0 0 10 10"></path>
<path d="M688 40h20"></path>
<g>
<path d="M708 40h0"></path>
<path d="M872 40h0"></path>
<g class="terminal">
<path d="M708 40h0"></path>
<path d="M784 40h0"></path>
<rect x="708" y="29" width="76" height="22" rx="10" ry="10"></rect>
<text x="746" y="44">"STATE"</text>
</g>
<path d="M784 40h10"></path>
<path d="M794 40h10"></path>
<g class="non-terminal">
<path d="M804 40h0"></path>
<path d="M872 40h0"></path>
<rect x="804" y="29" width="68" height="22"></rect>
<a xlink:href="reuse_source.svg"><text x="838" y="44">Source</text>
</a>
</g>
</g>
<path d="M872 40h20"></path>
</g>
</g>
<path d="M892 40h10"></path>
<path d="M 902 40 h 20 m -10 -10 v 20 m 10 -20 v 20"></path>
</g>
</svg>
