<svg xmlns="http://www.w3.org/2000/svg" xmlns:xlink="http://www.w3.org/1999/xlink" class="railroad-diagram" width="1268" height="161" viewBox="0 0 1268 161">
<defs>
<style type="text/css"><![CDATA[
path {
stroke-width: 3;
stroke: black;
fill: rgba(0,0,0,0);
}
text {
font: bold 14px monospace;
text-anchor: middle;
}
text.diagram-text {
font-size: 12px;
}
a {
fill: blue;
}
text.diagram-arrow {
font-size: 16px;
}
text.label {
text-anchor: start;
}
text.comment {
font: italic 12px monospace;
}
rect {
stroke-width: 3;
stroke: black;
fill: #BCBCBC;
}
path.diagram-text {
stroke-width: 3;
stroke: black;
fill: #BCBCBC;
cursor: help;
}
]]></style>
</defs>
<g transform="translate(.5 .5)">
<path d="M 20 21 v 20 m 10 -20 v 20 m -10 -10 h 20.5"></path>
<path d="M40 31h10"></path>
<g>
<path d="M50 31h0"></path>
<path d="M1218 31h0"></path>
<g class="terminal">
<path d="M50 31h0"></path>
<path d="M134 31h0"></path>
<rect x="50" y="20" width="84" height="22" rx="10" ry="10"></rect>
<text x="92" y="35">"INSERT"</text>
</g>
<path d="M134 31h10"></path>
<g>
<path d="M144 31h0"></path>
<path d="M440 31h0"></path>
<path d="M144 31h20"></path>
<g class="terminal">
<path d="M164 31h0"></path>
<path d="M296 31h124"></path>
<rect x="164" y="20" width="132" height="22" rx="10" ry="10"></rect>
<text x="230" y="35">"INITIAL LINE"</text>
</g>
<path d="M420 31h20"></path>
<path d="M144 31a10 10 0 0 1 10 10v10a10 10 0 0 0 10 10"></path>
<g class="non-terminal">
<path d="M164 61h0"></path>
<path d="M232 61h188"></path>
<rect x="164" y="50" width="68" height="22"></rect>
<a xlink:href="reuse_target.svg"><text x="198" y="65">Target</text>
</a>
</g>
<path d="M420 61a10 10 0 0 0 10 -10v-10a10 10 0 0 1 10 -10"></path>
<path d="M144 31a10 10 0 0 1 10 10v49a10 10 0 0 0 10 10"></path>
<g>
<path d="M164 100h0"></path>
<path d="M420 100h0"></path>
<g>
<path d="M164 100h0"></path>
<path d="M304 100h0"></path>
<path d="M164 100a10 10 0 0 0 10 -10v0a10 10 0 0 1 10 -10"></path>
<g>
<path d="M184 80h100"></path>
</g>
<path d="M284 80a10 10 0 0 1 10 10v0a10 10 0 0 0 10 10"></path>
<path d="M164 100h20"></path>
<g class="terminal">
<path d="M184 100h0"></path>
<path d="M284 100h0"></path>
<rect x="184" y="89" width="100" height="22" rx="10" ry="10"></rect>
<text x="234" y="104">"LINES OF"</text>
</g>
<path d="M284 100h20"></path>
</g>
<g>
<path d="M304 100h0"></path>
<path d="M420 100h0"></path>
<path d="M304 100h20"></path>
<g class="non-terminal">
<path d="M324 100h0"></path>
<path d="M392 100h8"></path>
<rect x="324" y="89" width="68" height="22"></rect>
<a xlink:href="reuse_source.svg"><text x="358" y="104">Source</text>
</a>
</g>
<path d="M400 100h20"></path>
<path d="M304 100a10 10 0 0 1 10 10v10a10 10 0 0 0 10 10"></path>
<g class="non-terminal">
<path d="M324 130h0"></path>
<path d="M400 130h0"></path>
<rect x="324" y="119" width="76" height="22"></rect>
<a xlink:href="reuse_dynamic.svg"><text x="362" y="134">Dynamic</text>
</a>
</g>
<path d="M400 130a10 10 0 0 0 10 -10v-10a10 10 0 0 1 10 -10"></path>
</g>
</g>
<path d="M420 100a10 10 0 0 0 10 -10v-49a10 10 0 0 1 10 -10"></path>
</g>
<g>
<path d="M440 31h0"></path>
<path d="M1218 31h0"></path>
<path d="M440 31h20"></path>
<g>
<path d="M460 31h0"></path>
<path d="M624 31h574"></path>
<g class="terminal">
<path d="M460 31h0"></path>
<path d="M536 31h0"></path>
<rect x="460" y="20" width="76" height="22" rx="10" ry="10"></rect>
<text x="498" y="35">"INDEX"</text>
</g>
<path d="M536 31h10"></path>
<path d="M546 31h10"></path>
<g class="non-terminal">
<path d="M556 31h0"></path>
<path d="M624 31h0"></path>
<rect x="556" y="20" width="68" height="22"></rect>
<a xlink:href="reuse_source.svg"><text x="590" y="35">Source</text>
</a>
</g>
</g>
<path d="M1198 31h20"></path>
<path d="M440 31a10 10 0 0 1 10 10v19a10 10 0 0 0 10 10"></path>
<g>
<path d="M460 70h0"></path>
<path d="M1198 70h0"></path>
<g class="terminal">
<path d="M460 70h0"></path>
<path d="M528 70h0"></path>
<rect x="460" y="59" width="68" height="22" rx="10" ry="10"></rect>
<text x="494" y="74">"INTO"</text>
</g>
<path d="M528 70h10"></path>
<g>
<path d="M538 70h0"></path>
<path d="M654 70h0"></path>
<path d="M538 70a10 10 0 0 0 10 -10v0a10 10 0 0 1 10 -10"></path>
<g>
<path d="M558 50h76"></path>
</g>
<path d="M634 50a10 10 0 0 1 10 10v0a10 10 0 0 0 10 10"></path>
<path d="M538 70h20"></path>
<g class="terminal">
<path d="M558 70h0"></path>
<path d="M634 70h0"></path>
<rect x="558" y="59" width="76" height="22" rx="10" ry="10"></rect>
<text x="596" y="74">"TABLE"</text>
</g>
<path d="M634 70h20"></path>
</g>
<path d="M654 70h10"></path>
<g class="non-terminal">
<path d="M664 70h0"></path>
<path d="M732 70h0"></path>
<rect x="664" y="59" width="68" height="22"></rect>
<a xlink:href="reuse_source.svg"><text x="698" y="74">Source</text>
</a>
</g>
<path d="M732 70h10"></path>
<g>
<path d="M742 70h0"></path>
<path d="M946 70h0"></path>
<path d="M742 70a10 10 0 0 0 10 -10v0a10 10 0 0 1 10 -10"></path>
<g>
<path d="M762 50h164"></path>
</g>
<path d="M926 50a10 10 0 0 1 10 10v0a10 10 0 0 0 10 10"></path>
<path d="M742 70h20"></path>
<g>
<path d="M762 70h0"></path>
<path d="M926 70h0"></path>
<g class="terminal">
<path d="M762 70h0"></path>
<path d="M838 70h0"></path>
<rect x="762" y="59" width="76" height="22" rx="10" ry="10"></rect>
<text x="800" y="74">"INDEX"</text>
</g>
<path d="M838 70h10"></path>
<path d="M848 70h10"></path>
<g class="non-terminal">
<path d="M858 70h0"></path>
<path d="M926 70h0"></path>
<rect x="858" y="59" width="68" height="22"></rect>
<a xlink:href="reuse_source.svg"><text x="892" y="74">Source</text>
</a>
</g>
</g>
<path d="M926 70h20"></path>
</g>
<g>
<path d="M946 70h0"></path>
<path d="M1198 70h0"></path>
<path d="M946 70a10 10 0 0 0 10 -10v0a10 10 0 0 1 10 -10"></path>
<g>
<path d="M966 50h212"></path>
</g>
<path d="M1178 50a10 10 0 0 1 10 10v0a10 10 0 0 0 10 10"></path>
<path d="M946 70h20"></path>
<g>
<path d="M966 70h0"></path>
<path d="M1178 70h0"></path>
<g class="terminal">
<path d="M966 70h0"></path>
<path d="M1074 70h0"></path>
<rect x="966" y="59" width="108" height="22" rx="10" ry="10"></rect>
<text x="1020" y="74">"ASSIGNING"</text>
</g>
<path d="M1074 70h10"></path>
<path d="M1084 70h10"></path>
<g class="non-terminal">
<path d="M1094 70h0"></path>
<path d="M1178 70h0"></path>
<rect x="1094" y="59" width="84" height="22"></rect>
<a xlink:href="reuse_fstarget.svg"><text x="1136" y="74">FSTarget</text>
</a>
</g>
</g>
<path d="M1178 70h20"></path>
</g>
</g>
<path d="M1198 70a10 10 0 0 0 10 -10v-19a10 10 0 0 1 10 -10"></path>
</g>
</g>
<path d="M1218 31h10"></path>
<path d="M 1228 31 h 20 m -10 -10 v 20 m 10 -20 v 20"></path>
</g>
</svg>
