<svg xmlns="http://www.w3.org/2000/svg" xmlns:xlink="http://www.w3.org/1999/xlink" class="railroad-diagram" width="1158" height="101" viewBox="0 0 1158 101">
<defs>
<style type="text/css"><![CDATA[
path {
stroke-width: 3;
stroke: black;
fill: rgba(0,0,0,0);
}
text {
font: bold 14px monospace;
text-anchor: middle;
}
text.diagram-text {
font-size: 12px;
}
a {
fill: blue;
}
text.diagram-arrow {
font-size: 16px;
}
text.label {
text-anchor: start;
}
text.comment {
font: italic 12px monospace;
}
rect {
stroke-width: 3;
stroke: black;
fill: #BCBCBC;
}
path.diagram-text {
stroke-width: 3;
stroke: black;
fill: #BCBCBC;
cursor: help;
}
]]></style>
</defs>
<g transform="translate(.5 .5)">
<path d="M 20 30 v 20 m 10 -20 v 20 m -10 -10 h 20.5"></path>
<path d="M40 40h10"></path>
<g>
<path d="M50 40h0"></path>
<path d="M1108 40h0"></path>
<g class="terminal">
<path d="M50 40h0"></path>
<path d="M134 40h0"></path>
<rect x="50" y="29" width="84" height="22" rx="10" ry="10"></rect>
<text x="92" y="44">"INSERT"</text>
</g>
<path d="M134 40h10"></path>
<g>
<path d="M144 40h0"></path>
<path d="M284 40h0"></path>
<path d="M144 40a10 10 0 0 0 10 -10v0a10 10 0 0 1 10 -10"></path>
<g>
<path d="M164 20h100"></path>
</g>
<path d="M264 20a10 10 0 0 1 10 10v0a10 10 0 0 0 10 10"></path>
<path d="M144 40h20"></path>
<g class="terminal">
<path d="M164 40h0"></path>
<path d="M264 40h0"></path>
<rect x="164" y="29" width="100" height="22" rx="10" ry="10"></rect>
<text x="214" y="44">"LINES OF"</text>
</g>
<path d="M264 40h20"></path>
</g>
<g>
<path d="M284 40h0"></path>
<path d="M512 40h0"></path>
<path d="M284 40h20"></path>
<g class="non-terminal">
<path d="M304 40h60"></path>
<path d="M432 40h60"></path>
<rect x="364" y="29" width="68" height="22"></rect>
<a xlink:href="reuse_source.svg"><text x="398" y="44">source</text>
</a>
</g>
<path d="M492 40h20"></path>
<path d="M284 40a10 10 0 0 1 10 10v10a10 10 0 0 0 10 10"></path>
<g>
<path d="M304 70h0"></path>
<path d="M492 70h0"></path>
<g class="terminal">
<path d="M304 70h0"></path>
<path d="M348 70h0"></path>
<rect x="304" y="59" width="44" height="22" rx="10" ry="10"></rect>
<text x="326" y="74">"("</text>
</g>
<path d="M348 70h10"></path>
<path d="M358 70h10"></path>
<g class="non-terminal">
<path d="M368 70h0"></path>
<path d="M428 70h0"></path>
<rect x="368" y="59" width="60" height="22"></rect>
<a xlink:href="reuse_field.svg"><text x="398" y="74">field</text>
</a>
</g>
<path d="M428 70h10"></path>
<path d="M438 70h10"></path>
<g class="terminal">
<path d="M448 70h0"></path>
<path d="M492 70h0"></path>
<rect x="448" y="59" width="44" height="22" rx="10" ry="10"></rect>
<text x="470" y="74">")"</text>
</g>
</g>
<path d="M492 70a10 10 0 0 0 10 -10v-10a10 10 0 0 1 10 -10"></path>
</g>
<g>
<path d="M512 40h0"></path>
<path d="M620 40h0"></path>
<path d="M512 40h20"></path>
<g class="terminal">
<path d="M532 40h0"></path>
<path d="M600 40h0"></path>
<rect x="532" y="29" width="68" height="22" rx="10" ry="10"></rect>
<text x="566" y="44">"FROM"</text>
</g>
<path d="M600 40h20"></path>
<path d="M512 40a10 10 0 0 1 10 10v10a10 10 0 0 0 10 10"></path>
<g class="terminal">
<path d="M532 70h0"></path>
<path d="M600 70h0"></path>
<rect x="532" y="59" width="68" height="22" rx="10" ry="10"></rect>
<text x="566" y="74">"INTO"</text>
</g>
<path d="M600 70a10 10 0 0 0 10 -10v-10a10 10 0 0 1 10 -10"></path>
</g>
<g>
<path d="M620 40h0"></path>
<path d="M736 40h0"></path>
<path d="M620 40a10 10 0 0 0 10 -10v0a10 10 0 0 1 10 -10"></path>
<g>
<path d="M640 20h76"></path>
</g>
<path d="M716 20a10 10 0 0 1 10 10v0a10 10 0 0 0 10 10"></path>
<path d="M620 40h20"></path>
<g class="terminal">
<path d="M640 40h0"></path>
<path d="M716 40h0"></path>
<rect x="640" y="29" width="76" height="22" rx="10" ry="10"></rect>
<text x="678" y="44">"TABLE"</text>
</g>
<path d="M716 40h20"></path>
</g>
<path d="M736 40h10"></path>
<g class="non-terminal">
<path d="M746 40h0"></path>
<path d="M814 40h0"></path>
<rect x="746" y="29" width="68" height="22"></rect>
<a xlink:href="reuse_source.svg"><text x="780" y="44">source</text>
</a>
</g>
<path d="M814 40h10"></path>
<g>
<path d="M824 40h0"></path>
<path d="M1108 40h0"></path>
<path d="M824 40a10 10 0 0 0 10 -10v0a10 10 0 0 1 10 -10"></path>
<g>
<path d="M844 20h244"></path>
</g>
<path d="M1088 20a10 10 0 0 1 10 10v0a10 10 0 0 0 10 10"></path>
<path d="M824 40h20"></path>
<g>
<path d="M844 40h0"></path>
<path d="M1088 40h0"></path>
<g class="terminal">
<path d="M844 40h0"></path>
<path d="M952 40h0"></path>
<rect x="844" y="29" width="108" height="22" rx="10" ry="10"></rect>
<text x="898" y="44">"ASSIGNING"</text>
</g>
<path d="M952 40h10"></path>
<path d="M962 40h10"></path>
<g class="non-terminal">
<path d="M972 40h0"></path>
<path d="M1088 40h0"></path>
<rect x="972" y="29" width="116" height="22"></rect>
<a xlink:href="reuse_field_symbol.svg"><text x="1030" y="44">field&#95;symbol</text>
</a>
</g>
</g>
<path d="M1088 40h20"></path>
</g>
</g>
<path d="M1108 40h10"></path>
<path d="M 1118 40 h 20 m -10 -10 v 20 m 10 -20 v 20"></path>
</g>
</svg>
