<svg xmlns="http://www.w3.org/2000/svg" xmlns:xlink="http://www.w3.org/1999/xlink" class="railroad-diagram" width="912" height="62" viewBox="0 0 912 62">
<defs>
<style type="text/css"><![CDATA[
path {
stroke-width: 3;
stroke: black;
fill: rgba(0,0,0,0);
}
text {
font: bold 14px monospace;
text-anchor: middle;
}
text.diagram-text {
font-size: 12px;
}
a {
fill: blue;
}
text.diagram-arrow {
font-size: 16px;
}
text.label {
text-anchor: start;
}
text.comment {
font: italic 12px monospace;
}
rect {
stroke-width: 3;
stroke: black;
fill: #BCBCBC;
}
path.diagram-text {
stroke-width: 3;
stroke: black;
fill: #BCBCBC;
cursor: help;
}
]]></style>
</defs>
<g transform="translate(.5 .5)">
<path d="M 20 21 v 20 m 10 -20 v 20 m -10 -10 h 20.5"></path>
<path d="M40 31h10"></path>
<g>
<path d="M50 31h0"></path>
<path d="M862 31h0"></path>
<g class="terminal">
<path d="M50 31h0"></path>
<path d="M206 31h0"></path>
<rect x="50" y="20" width="156" height="22" rx="10" ry="10"></rect>
<text x="128" y="35">"INSERT TEXTPOOL"</text>
</g>
<path d="M206 31h10"></path>
<path d="M216 31h10"></path>
<g class="non-terminal">
<path d="M226 31h0"></path>
<path d="M294 31h0"></path>
<rect x="226" y="20" width="68" height="22"></rect>
<a xlink:href="reuse_source.svg"><text x="260" y="35">Source</text>
</a>
</g>
<path d="M294 31h10"></path>
<path d="M304 31h10"></path>
<g class="terminal">
<path d="M314 31h0"></path>
<path d="M382 31h0"></path>
<rect x="314" y="20" width="68" height="22" rx="10" ry="10"></rect>
<text x="348" y="35">"FROM"</text>
</g>
<path d="M382 31h10"></path>
<path d="M392 31h10"></path>
<g class="non-terminal">
<path d="M402 31h0"></path>
<path d="M470 31h0"></path>
<rect x="402" y="20" width="68" height="22"></rect>
<a xlink:href="reuse_source.svg"><text x="436" y="35">Source</text>
</a>
</g>
<path d="M470 31h10"></path>
<path d="M480 31h10"></path>
<g class="terminal">
<path d="M490 31h0"></path>
<path d="M590 31h0"></path>
<rect x="490" y="20" width="100" height="22" rx="10" ry="10"></rect>
<text x="540" y="35">"LANGUAGE"</text>
</g>
<path d="M590 31h10"></path>
<path d="M600 31h10"></path>
<g class="non-terminal">
<path d="M610 31h0"></path>
<path d="M678 31h0"></path>
<rect x="610" y="20" width="68" height="22"></rect>
<a xlink:href="reuse_source.svg"><text x="644" y="35">Source</text>
</a>
</g>
<path d="M678 31h10"></path>
<path d="M688 31h10"></path>
<g class="terminal">
<path d="M698 31h0"></path>
<path d="M774 31h0"></path>
<rect x="698" y="20" width="76" height="22" rx="10" ry="10"></rect>
<text x="736" y="35">"STATE"</text>
</g>
<path d="M774 31h10"></path>
<path d="M784 31h10"></path>
<g class="non-terminal">
<path d="M794 31h0"></path>
<path d="M862 31h0"></path>
<rect x="794" y="20" width="68" height="22"></rect>
<a xlink:href="reuse_source.svg"><text x="828" y="35">Source</text>
</a>
</g>
</g>
<path d="M862 31h10"></path>
<path d="M 872 31 h 20 m -10 -10 v 20 m 10 -20 v 20"></path>
</g>
</svg>
