<svg xmlns="http://www.w3.org/2000/svg" xmlns:xlink="http://www.w3.org/1999/xlink" class="railroad-diagram" width="662" height="169" viewBox="0 0 662 169">
<defs>
<style type="text/css"><![CDATA[
path {
stroke-width: 3;
stroke: black;
fill: rgba(0,0,0,0);
}
text {
font: bold 14px monospace;
text-anchor: middle;
}
text.diagram-text {
font-size: 12px;
}
a {
fill: blue;
}
text.diagram-arrow {
font-size: 16px;
}
text.label {
text-anchor: start;
}
text.comment {
font: italic 12px monospace;
}
rect {
stroke-width: 3;
stroke: black;
fill: #BCBCBC;
}
path.diagram-text {
stroke-width: 3;
stroke: black;
fill: #BCBCBC;
cursor: help;
}
]]></style>
</defs>
<g transform="translate(.5 .5)">
<path d="M 20 38 v 20 m 10 -20 v 20 m -10 -10 h 20.5"></path>
<path d="M40 48h10"></path>
<g>
<path d="M50 48h0"></path>
<path d="M612 48h0"></path>
<g class="terminal">
<path d="M50 48h0"></path>
<path d="M134 48h0"></path>
<rect x="50" y="37" width="84" height="22" rx="10" ry="10"></rect>
<text x="92" y="52">"INSERT"</text>
</g>
<path d="M134 48h10"></path>
<g>
<path d="M144 48h0"></path>
<path d="M612 48h0"></path>
<path d="M144 48h20"></path>
<g>
<path d="M164 48h0"></path>
<path d="M592 48h0"></path>
<g>
<path d="M164 48h0"></path>
<path d="M280 48h0"></path>
<path d="M164 48h20"></path>
<g class="non-terminal">
<path d="M184 48h4"></path>
<path d="M256 48h4"></path>
<rect x="188" y="37" width="68" height="22"></rect>
<a xlink:href="reuse_source.svg"><text x="222" y="52">source</text>
</a>
</g>
<path d="M260 48h20"></path>
<path d="M164 48a10 10 0 0 1 10 10v10a10 10 0 0 0 10 10"></path>
<g class="non-terminal">
<path d="M184 78h0"></path>
<path d="M260 78h0"></path>
<rect x="184" y="67" width="76" height="22"></rect>
<a xlink:href="reuse_dynamic.svg"><text x="222" y="82">dynamic</text>
</a>
</g>
<path d="M260 78a10 10 0 0 0 10 -10v-10a10 10 0 0 1 10 -10"></path>
</g>
<g>
<path d="M280 48h0"></path>
<path d="M592 48h0"></path>
<path d="M280 48a10 10 0 0 0 10 -10v-8a10 10 0 0 1 10 -10"></path>
<g>
<path d="M300 20h272"></path>
</g>
<path d="M572 20a10 10 0 0 1 10 10v8a10 10 0 0 0 10 10"></path>
<path d="M280 48h20"></path>
<g>
<path d="M300 48h0"></path>
<path d="M572 48h0"></path>
<g class="terminal">
<path d="M300 48h0"></path>
<path d="M368 48h0"></path>
<rect x="300" y="37" width="68" height="22" rx="10" ry="10"></rect>
<text x="334" y="52">"FROM"</text>
</g>
<path d="M368 48h10"></path>
<g>
<path d="M378 48h0"></path>
<path d="M494 48h0"></path>
<path d="M378 48a10 10 0 0 0 10 -10v0a10 10 0 0 1 10 -10"></path>
<g>
<path d="M398 28h76"></path>
</g>
<path d="M474 28a10 10 0 0 1 10 10v0a10 10 0 0 0 10 10"></path>
<path d="M378 48h20"></path>
<g class="terminal">
<path d="M398 48h0"></path>
<path d="M474 48h0"></path>
<rect x="398" y="37" width="76" height="22" rx="10" ry="10"></rect>
<text x="436" y="52">"TABLE"</text>
</g>
<path d="M474 48h20"></path>
</g>
<path d="M494 48h10"></path>
<g class="non-terminal">
<path d="M504 48h0"></path>
<path d="M572 48h0"></path>
<rect x="504" y="37" width="68" height="22"></rect>
<a xlink:href="reuse_source.svg"><text x="538" y="52">source</text>
</a>
</g>
</g>
<path d="M572 48h20"></path>
</g>
</g>
<path d="M592 48h20"></path>
<path d="M144 48a10 10 0 0 1 10 10v40a10 10 0 0 0 10 10"></path>
<g>
<path d="M164 108h26"></path>
<path d="M566 108h26"></path>
<g class="terminal">
<path d="M190 108h0"></path>
<path d="M258 108h0"></path>
<rect x="190" y="97" width="68" height="22" rx="10" ry="10"></rect>
<text x="224" y="112">"INTO"</text>
</g>
<path d="M258 108h10"></path>
<g>
<path d="M268 108h0"></path>
<path d="M384 108h0"></path>
<path d="M268 108h20"></path>
<g class="non-terminal">
<path d="M288 108h4"></path>
<path d="M360 108h4"></path>
<rect x="292" y="97" width="68" height="22"></rect>
<a xlink:href="reuse_source.svg"><text x="326" y="112">source</text>
</a>
</g>
<path d="M364 108h20"></path>
<path d="M268 108a10 10 0 0 1 10 10v10a10 10 0 0 0 10 10"></path>
<g class="non-terminal">
<path d="M288 138h0"></path>
<path d="M364 138h0"></path>
<rect x="288" y="127" width="76" height="22"></rect>
<a xlink:href="reuse_dynamic.svg"><text x="326" y="142">dynamic</text>
</a>
</g>
<path d="M364 138a10 10 0 0 0 10 -10v-10a10 10 0 0 1 10 -10"></path>
</g>
<path d="M384 108h10"></path>
<g class="terminal">
<path d="M394 108h0"></path>
<path d="M478 108h0"></path>
<rect x="394" y="97" width="84" height="22" rx="10" ry="10"></rect>
<text x="436" y="112">"VALUES"</text>
</g>
<path d="M478 108h10"></path>
<path d="M488 108h10"></path>
<g class="non-terminal">
<path d="M498 108h0"></path>
<path d="M566 108h0"></path>
<rect x="498" y="97" width="68" height="22"></rect>
<a xlink:href="reuse_source.svg"><text x="532" y="112">source</text>
</a>
</g>
</g>
<path d="M592 108a10 10 0 0 0 10 -10v-40a10 10 0 0 1 10 -10"></path>
</g>
</g>
<path d="M612 48h10"></path>
<path d="M 622 48 h 20 m -10 -10 v 20 m 10 -20 v 20"></path>
</g>
</svg>
