<svg xmlns="http://www.w3.org/2000/svg" xmlns:xlink="http://www.w3.org/1999/xlink" class="railroad-diagram" width="1238" height="140" viewBox="0 0 1238 140">
<defs>
<style type="text/css"><![CDATA[
path {
stroke-width: 3;
stroke: black;
fill: rgba(0,0,0,0);
}
text {
font: bold 14px monospace;
text-anchor: middle;
}
text.diagram-text {
font-size: 12px;
}
a {
fill: blue;
}
text.diagram-arrow {
font-size: 16px;
}
text.label {
text-anchor: start;
}
text.comment {
font: italic 12px monospace;
}
rect {
stroke-width: 3;
stroke: black;
fill: #BCBCBC;
}
path.diagram-text {
stroke-width: 3;
stroke: black;
fill: #BCBCBC;
cursor: help;
}
]]></style>
</defs>
<g transform="translate(.5 .5)">
<path d="M 20 30 v 20 m 10 -20 v 20 m -10 -10 h 20.5"></path>
<path d="M40 40h10"></path>
<g>
<path d="M50 40h0"></path>
<path d="M1188 40h0"></path>
<g class="terminal">
<path d="M50 40h0"></path>
<path d="M134 40h0"></path>
<rect x="50" y="29" width="84" height="22" rx="10" ry="10"></rect>
<text x="92" y="44">"INSERT"</text>
</g>
<path d="M134 40h10"></path>
<g>
<path d="M144 40h0"></path>
<path d="M440 40h0"></path>
<path d="M144 40h20"></path>
<g class="terminal">
<path d="M164 40h0"></path>
<path d="M296 40h124"></path>
<rect x="164" y="29" width="132" height="22" rx="10" ry="10"></rect>
<text x="230" y="44">"INITIAL LINE"</text>
</g>
<path d="M420 40h20"></path>
<path d="M144 40a10 10 0 0 1 10 10v19a10 10 0 0 0 10 10"></path>
<g>
<path d="M164 79h0"></path>
<path d="M420 79h0"></path>
<g>
<path d="M164 79h0"></path>
<path d="M304 79h0"></path>
<path d="M164 79a10 10 0 0 0 10 -10v0a10 10 0 0 1 10 -10"></path>
<g>
<path d="M184 59h100"></path>
</g>
<path d="M284 59a10 10 0 0 1 10 10v0a10 10 0 0 0 10 10"></path>
<path d="M164 79h20"></path>
<g class="terminal">
<path d="M184 79h0"></path>
<path d="M284 79h0"></path>
<rect x="184" y="68" width="100" height="22" rx="10" ry="10"></rect>
<text x="234" y="83">"LINES OF"</text>
</g>
<path d="M284 79h20"></path>
</g>
<g>
<path d="M304 79h0"></path>
<path d="M420 79h0"></path>
<path d="M304 79h20"></path>
<g class="non-terminal">
<path d="M324 79h0"></path>
<path d="M392 79h8"></path>
<rect x="324" y="68" width="68" height="22"></rect>
<a xlink:href="reuse_Source.svg"><text x="358" y="83">Source</text>
</a>
</g>
<path d="M400 79h20"></path>
<path d="M304 79a10 10 0 0 1 10 10v10a10 10 0 0 0 10 10"></path>
<g class="non-terminal">
<path d="M324 109h0"></path>
<path d="M400 109h0"></path>
<rect x="324" y="98" width="76" height="22"></rect>
<a xlink:href="reuse_Dynamic.svg"><text x="362" y="113">Dynamic</text>
</a>
</g>
<path d="M400 109a10 10 0 0 0 10 -10v-10a10 10 0 0 1 10 -10"></path>
</g>
</g>
<path d="M420 79a10 10 0 0 0 10 -10v-19a10 10 0 0 1 10 -10"></path>
</g>
<path d="M440 40h10"></path>
<g class="terminal">
<path d="M450 40h0"></path>
<path d="M518 40h0"></path>
<rect x="450" y="29" width="68" height="22" rx="10" ry="10"></rect>
<text x="484" y="44">"INTO"</text>
</g>
<path d="M518 40h10"></path>
<g>
<path d="M528 40h0"></path>
<path d="M644 40h0"></path>
<path d="M528 40a10 10 0 0 0 10 -10v0a10 10 0 0 1 10 -10"></path>
<g>
<path d="M548 20h76"></path>
</g>
<path d="M624 20a10 10 0 0 1 10 10v0a10 10 0 0 0 10 10"></path>
<path d="M528 40h20"></path>
<g class="terminal">
<path d="M548 40h0"></path>
<path d="M624 40h0"></path>
<rect x="548" y="29" width="76" height="22" rx="10" ry="10"></rect>
<text x="586" y="44">"TABLE"</text>
</g>
<path d="M624 40h20"></path>
</g>
<path d="M644 40h10"></path>
<g class="non-terminal">
<path d="M654 40h0"></path>
<path d="M722 40h0"></path>
<rect x="654" y="29" width="68" height="22"></rect>
<a xlink:href="reuse_Source.svg"><text x="688" y="44">Source</text>
</a>
</g>
<path d="M722 40h10"></path>
<g>
<path d="M732 40h0"></path>
<path d="M936 40h0"></path>
<path d="M732 40a10 10 0 0 0 10 -10v0a10 10 0 0 1 10 -10"></path>
<g>
<path d="M752 20h164"></path>
</g>
<path d="M916 20a10 10 0 0 1 10 10v0a10 10 0 0 0 10 10"></path>
<path d="M732 40h20"></path>
<g>
<path d="M752 40h0"></path>
<path d="M916 40h0"></path>
<g class="terminal">
<path d="M752 40h0"></path>
<path d="M828 40h0"></path>
<rect x="752" y="29" width="76" height="22" rx="10" ry="10"></rect>
<text x="790" y="44">"INDEX"</text>
</g>
<path d="M828 40h10"></path>
<path d="M838 40h10"></path>
<g class="non-terminal">
<path d="M848 40h0"></path>
<path d="M916 40h0"></path>
<rect x="848" y="29" width="68" height="22"></rect>
<a xlink:href="reuse_Source.svg"><text x="882" y="44">Source</text>
</a>
</g>
</g>
<path d="M916 40h20"></path>
</g>
<g>
<path d="M936 40h0"></path>
<path d="M1188 40h0"></path>
<path d="M936 40a10 10 0 0 0 10 -10v0a10 10 0 0 1 10 -10"></path>
<g>
<path d="M956 20h212"></path>
</g>
<path d="M1168 20a10 10 0 0 1 10 10v0a10 10 0 0 0 10 10"></path>
<path d="M936 40h20"></path>
<g>
<path d="M956 40h0"></path>
<path d="M1168 40h0"></path>
<g class="terminal">
<path d="M956 40h0"></path>
<path d="M1064 40h0"></path>
<rect x="956" y="29" width="108" height="22" rx="10" ry="10"></rect>
<text x="1010" y="44">"ASSIGNING"</text>
</g>
<path d="M1064 40h10"></path>
<path d="M1074 40h10"></path>
<g class="non-terminal">
<path d="M1084 40h0"></path>
<path d="M1168 40h0"></path>
<rect x="1084" y="29" width="84" height="22"></rect>
<a xlink:href="reuse_FSTarget.svg"><text x="1126" y="44">FSTarget</text>
</a>
</g>
</g>
<path d="M1168 40h20"></path>
</g>
</g>
<path d="M1188 40h10"></path>
<path d="M 1198 40 h 20 m -10 -10 v 20 m 10 -20 v 20"></path>
</g>
</svg>
