<svg xmlns="http://www.w3.org/2000/svg" xmlns:xlink="http://www.w3.org/1999/xlink" class="railroad-diagram" width="1900" height="161" viewBox="0 0 1900 161">
<defs>
<style type="text/css"><![CDATA[
path {
stroke-width: 3;
stroke: black;
fill: rgba(0,0,0,0);
}
text {
font: bold 14px monospace;
text-anchor: middle;
}
text.diagram-text {
font-size: 12px;
}
a {
fill: blue;
}
text.diagram-arrow {
font-size: 16px;
}
text.label {
text-anchor: start;
}
text.comment {
font: italic 12px monospace;
}
rect {
stroke-width: 3;
stroke: black;
fill: #BCBCBC;
}
path.diagram-text {
stroke-width: 3;
stroke: black;
fill: #BCBCBC;
cursor: help;
}
]]></style>
</defs>
<g transform="translate(.5 .5)">
<path d="M 20 21 v 20 m 10 -20 v 20 m -10 -10 h 20.5"></path>
<path d="M40 31h10"></path>
<g>
<path d="M50 31h0"></path>
<path d="M1850 31h0"></path>
<g class="terminal">
<path d="M50 31h0"></path>
<path d="M134 31h0"></path>
<rect x="50" y="20" width="84" height="22" rx="10" ry="10"></rect>
<text x="92" y="35">"INSERT"</text>
</g>
<path d="M134 31h10"></path>
<g>
<path d="M144 31h0"></path>
<path d="M796 31h0"></path>
<path d="M144 31h20"></path>
<g class="terminal">
<path d="M164 31h0"></path>
<path d="M296 31h480"></path>
<rect x="164" y="20" width="132" height="22" rx="10" ry="10"></rect>
<text x="230" y="35">"INITIAL LINE"</text>
</g>
<path d="M776 31h20"></path>
<path d="M144 31a10 10 0 0 1 10 10v10a10 10 0 0 0 10 10"></path>
<g class="non-terminal">
<path d="M164 61h0"></path>
<path d="M232 61h544"></path>
<rect x="164" y="50" width="68" height="22"></rect>
<a xlink:href="reuse_target.svg"><text x="198" y="65">Target</text>
</a>
</g>
<path d="M776 61a10 10 0 0 0 10 -10v-10a10 10 0 0 1 10 -10"></path>
<path d="M144 31a10 10 0 0 1 10 10v49a10 10 0 0 0 10 10"></path>
<g>
<path d="M164 100h0"></path>
<path d="M776 100h0"></path>
<g>
<path d="M164 100h0"></path>
<path d="M304 100h0"></path>
<path d="M164 100a10 10 0 0 0 10 -10v0a10 10 0 0 1 10 -10"></path>
<g>
<path d="M184 80h100"></path>
</g>
<path d="M284 80a10 10 0 0 1 10 10v0a10 10 0 0 0 10 10"></path>
<path d="M164 100h20"></path>
<g class="terminal">
<path d="M184 100h0"></path>
<path d="M284 100h0"></path>
<rect x="184" y="89" width="100" height="22" rx="10" ry="10"></rect>
<text x="234" y="104">"LINES OF"</text>
</g>
<path d="M284 100h20"></path>
</g>
<g>
<path d="M304 100h0"></path>
<path d="M420 100h0"></path>
<path d="M304 100h20"></path>
<g class="non-terminal">
<path d="M324 100h0"></path>
<path d="M392 100h8"></path>
<rect x="324" y="89" width="68" height="22"></rect>
<a xlink:href="reuse_source.svg"><text x="358" y="104">Source</text>
</a>
</g>
<path d="M400 100h20"></path>
<path d="M304 100a10 10 0 0 1 10 10v10a10 10 0 0 0 10 10"></path>
<g class="non-terminal">
<path d="M324 130h0"></path>
<path d="M400 130h0"></path>
<rect x="324" y="119" width="76" height="22"></rect>
<a xlink:href="reuse_dynamic.svg"><text x="362" y="134">Dynamic</text>
</a>
</g>
<path d="M400 130a10 10 0 0 0 10 -10v-10a10 10 0 0 1 10 -10"></path>
</g>
<g>
<path d="M420 100h0"></path>
<path d="M776 100h0"></path>
<path d="M420 100a10 10 0 0 0 10 -10v0a10 10 0 0 1 10 -10"></path>
<g>
<path d="M440 80h316"></path>
</g>
<path d="M756 80a10 10 0 0 1 10 10v0a10 10 0 0 0 10 10"></path>
<path d="M420 100h20"></path>
<g>
<path d="M440 100h0"></path>
<path d="M756 100h0"></path>
<g class="terminal">
<path d="M440 100h0"></path>
<path d="M508 100h0"></path>
<rect x="440" y="89" width="68" height="22" rx="10" ry="10"></rect>
<text x="474" y="104">"FROM"</text>
</g>
<path d="M508 100h10"></path>
<path d="M518 100h10"></path>
<g class="non-terminal">
<path d="M528 100h0"></path>
<path d="M596 100h0"></path>
<rect x="528" y="89" width="68" height="22"></rect>
<a xlink:href="reuse_source.svg"><text x="562" y="104">Source</text>
</a>
</g>
<path d="M596 100h10"></path>
<path d="M606 100h10"></path>
<g class="terminal">
<path d="M616 100h0"></path>
<path d="M668 100h0"></path>
<rect x="616" y="89" width="52" height="22" rx="10" ry="10"></rect>
<text x="642" y="104">"TO"</text>
</g>
<path d="M668 100h10"></path>
<path d="M678 100h10"></path>
<g class="non-terminal">
<path d="M688 100h0"></path>
<path d="M756 100h0"></path>
<rect x="688" y="89" width="68" height="22"></rect>
<a xlink:href="reuse_source.svg"><text x="722" y="104">Source</text>
</a>
</g>
</g>
<path d="M756 100h20"></path>
</g>
</g>
<path d="M776 100a10 10 0 0 0 10 -10v-49a10 10 0 0 1 10 -10"></path>
</g>
<g>
<path d="M796 31h0"></path>
<path d="M1850 31h0"></path>
<path d="M796 31h20"></path>
<g>
<path d="M816 31h0"></path>
<path d="M980 31h850"></path>
<g class="terminal">
<path d="M816 31h0"></path>
<path d="M892 31h0"></path>
<rect x="816" y="20" width="76" height="22" rx="10" ry="10"></rect>
<text x="854" y="35">"INDEX"</text>
</g>
<path d="M892 31h10"></path>
<path d="M902 31h10"></path>
<g class="non-terminal">
<path d="M912 31h0"></path>
<path d="M980 31h0"></path>
<rect x="912" y="20" width="68" height="22"></rect>
<a xlink:href="reuse_source.svg"><text x="946" y="35">Source</text>
</a>
</g>
</g>
<path d="M1830 31h20"></path>
<path d="M796 31a10 10 0 0 1 10 10v19a10 10 0 0 0 10 10"></path>
<g>
<path d="M816 70h0"></path>
<path d="M1830 70h0"></path>
<g class="terminal">
<path d="M816 70h0"></path>
<path d="M884 70h0"></path>
<rect x="816" y="59" width="68" height="22" rx="10" ry="10"></rect>
<text x="850" y="74">"INTO"</text>
</g>
<path d="M884 70h10"></path>
<g>
<path d="M894 70h0"></path>
<path d="M1010 70h0"></path>
<path d="M894 70a10 10 0 0 0 10 -10v0a10 10 0 0 1 10 -10"></path>
<g>
<path d="M914 50h76"></path>
</g>
<path d="M990 50a10 10 0 0 1 10 10v0a10 10 0 0 0 10 10"></path>
<path d="M894 70h20"></path>
<g class="terminal">
<path d="M914 70h0"></path>
<path d="M990 70h0"></path>
<rect x="914" y="59" width="76" height="22" rx="10" ry="10"></rect>
<text x="952" y="74">"TABLE"</text>
</g>
<path d="M990 70h20"></path>
</g>
<path d="M1010 70h10"></path>
<g class="non-terminal">
<path d="M1020 70h0"></path>
<path d="M1088 70h0"></path>
<rect x="1020" y="59" width="68" height="22"></rect>
<a xlink:href="reuse_source.svg"><text x="1054" y="74">Source</text>
</a>
</g>
<path d="M1088 70h10"></path>
<g>
<path d="M1098 70h0"></path>
<path d="M1374 70h0"></path>
<path d="M1098 70a10 10 0 0 0 10 -10v0a10 10 0 0 1 10 -10"></path>
<g>
<path d="M1118 50h236"></path>
</g>
<path d="M1354 50a10 10 0 0 1 10 10v0a10 10 0 0 0 10 10"></path>
<path d="M1098 70h20"></path>
<g>
<path d="M1118 70h0"></path>
<path d="M1354 70h0"></path>
<g class="terminal">
<path d="M1118 70h0"></path>
<path d="M1266 70h0"></path>
<rect x="1118" y="59" width="148" height="22" rx="10" ry="10"></rect>
<text x="1192" y="74">"REFERENCE INTO"</text>
</g>
<path d="M1266 70h10"></path>
<path d="M1276 70h10"></path>
<g class="non-terminal">
<path d="M1286 70h0"></path>
<path d="M1354 70h0"></path>
<rect x="1286" y="59" width="68" height="22"></rect>
<a xlink:href="reuse_target.svg"><text x="1320" y="74">Target</text>
</a>
</g>
</g>
<path d="M1354 70h20"></path>
</g>
<g>
<path d="M1374 70h0"></path>
<path d="M1578 70h0"></path>
<path d="M1374 70a10 10 0 0 0 10 -10v0a10 10 0 0 1 10 -10"></path>
<g>
<path d="M1394 50h164"></path>
</g>
<path d="M1558 50a10 10 0 0 1 10 10v0a10 10 0 0 0 10 10"></path>
<path d="M1374 70h20"></path>
<g>
<path d="M1394 70h0"></path>
<path d="M1558 70h0"></path>
<g class="terminal">
<path d="M1394 70h0"></path>
<path d="M1470 70h0"></path>
<rect x="1394" y="59" width="76" height="22" rx="10" ry="10"></rect>
<text x="1432" y="74">"INDEX"</text>
</g>
<path d="M1470 70h10"></path>
<path d="M1480 70h10"></path>
<g class="non-terminal">
<path d="M1490 70h0"></path>
<path d="M1558 70h0"></path>
<rect x="1490" y="59" width="68" height="22"></rect>
<a xlink:href="reuse_source.svg"><text x="1524" y="74">Source</text>
</a>
</g>
</g>
<path d="M1558 70h20"></path>
</g>
<g>
<path d="M1578 70h0"></path>
<path d="M1830 70h0"></path>
<path d="M1578 70a10 10 0 0 0 10 -10v0a10 10 0 0 1 10 -10"></path>
<g>
<path d="M1598 50h212"></path>
</g>
<path d="M1810 50a10 10 0 0 1 10 10v0a10 10 0 0 0 10 10"></path>
<path d="M1578 70h20"></path>
<g>
<path d="M1598 70h0"></path>
<path d="M1810 70h0"></path>
<g class="terminal">
<path d="M1598 70h0"></path>
<path d="M1706 70h0"></path>
<rect x="1598" y="59" width="108" height="22" rx="10" ry="10"></rect>
<text x="1652" y="74">"ASSIGNING"</text>
</g>
<path d="M1706 70h10"></path>
<path d="M1716 70h10"></path>
<g class="non-terminal">
<path d="M1726 70h0"></path>
<path d="M1810 70h0"></path>
<rect x="1726" y="59" width="84" height="22"></rect>
<a xlink:href="reuse_fstarget.svg"><text x="1768" y="74">FSTarget</text>
</a>
</g>
</g>
<path d="M1810 70h20"></path>
</g>
</g>
<path d="M1830 70a10 10 0 0 0 10 -10v-19a10 10 0 0 1 10 -10"></path>
</g>
</g>
<path d="M1850 31h10"></path>
<path d="M 1860 31 h 20 m -10 -10 v 20 m 10 -20 v 20"></path>
</g>
</svg>
