<svg xmlns="http://www.w3.org/2000/svg" xmlns:xlink="http://www.w3.org/1999/xlink" class="railroad-diagram" width="868" height="191" viewBox="0 0 868 191">
<defs>
<style type="text/css"><![CDATA[
path {
stroke-width: 3;
stroke: black;
fill: rgba(0,0,0,0);
}
text {
font: bold 14px monospace;
text-anchor: middle;
}
text.diagram-text {
font-size: 12px;
}
a {
fill: blue;
}
text.diagram-arrow {
font-size: 16px;
}
text.label {
text-anchor: start;
}
text.comment {
font: italic 12px monospace;
}
rect {
stroke-width: 3;
stroke: black;
fill: #BCBCBC;
}
path.diagram-text {
stroke-width: 3;
stroke: black;
fill: #BCBCBC;
cursor: help;
}
]]></style>
</defs>
<g transform="translate(.5 .5)">
<path d="M 20 30 v 20 m 10 -20 v 20 m -10 -10 h 20.5"></path>
<path d="M40 40h10"></path>
<g>
<path d="M50 40h0"></path>
<path d="M818 40h0"></path>
<g class="terminal">
<path d="M50 40h0"></path>
<path d="M190 40h0"></path>
<rect x="50" y="29" width="140" height="22" rx="10" ry="10"></rect>
<text x="120" y="44">"INSERT REPORT"</text>
</g>
<path d="M190 40h10"></path>
<path d="M200 40h10"></path>
<g class="non-terminal">
<path d="M210 40h0"></path>
<path d="M278 40h0"></path>
<rect x="210" y="29" width="68" height="22"></rect>
<a xlink:href="reuse_source.svg"><text x="244" y="44">Source</text>
</a>
</g>
<path d="M278 40h10"></path>
<path d="M288 40h10"></path>
<g class="terminal">
<path d="M298 40h0"></path>
<path d="M366 40h0"></path>
<rect x="298" y="29" width="68" height="22" rx="10" ry="10"></rect>
<text x="332" y="44">"FROM"</text>
</g>
<path d="M366 40h10"></path>
<path d="M376 40h10"></path>
<g class="non-terminal">
<path d="M386 40h0"></path>
<path d="M454 40h0"></path>
<rect x="386" y="29" width="68" height="22"></rect>
<a xlink:href="reuse_source.svg"><text x="420" y="44">Source</text>
</a>
</g>
<path d="M454 40h10"></path>
<g>
<path d="M464 40h0"></path>
<path d="M818 40h0"></path>
<path d="M464 40a10 10 0 0 0 10 -10v0a10 10 0 0 1 10 -10"></path>
<g>
<path d="M484 20h314"></path>
</g>
<path d="M798 20a10 10 0 0 1 10 10v0a10 10 0 0 0 10 10"></path>
<path d="M464 40h20"></path>
<g>
<path d="M484 40h0"></path>
<path d="M798 40h0"></path>
<path d="M514 40h10"></path>
<g>
<path d="M524 40h0"></path>
<path d="M688 40h80"></path>
<g class="terminal">
<path d="M524 40h0"></path>
<path d="M600 40h0"></path>
<rect x="524" y="29" width="76" height="22" rx="10" ry="10"></rect>
<text x="562" y="44">"STATE"</text>
</g>
<path d="M600 40h10"></path>
<path d="M610 40h10"></path>
<g class="non-terminal">
<path d="M620 40h0"></path>
<path d="M688 40h0"></path>
<rect x="620" y="29" width="68" height="22"></rect>
<a xlink:href="reuse_source.svg"><text x="654" y="44">Source</text>
</a>
</g>
</g>
<path d="M768 40h10"></path>
<path d="M514 40v20a10 10 0 0 0 10 10"></path>
<g>
<path d="M524 70h0"></path>
<path d="M760 70h8"></path>
<g class="terminal">
<path d="M524 70h0"></path>
<path d="M672 70h0"></path>
<rect x="524" y="59" width="148" height="22" rx="10" ry="10"></rect>
<text x="598" y="74">"EXTENSION TYPE"</text>
</g>
<path d="M672 70h10"></path>
<path d="M682 70h10"></path>
<g class="non-terminal">
<path d="M692 70h0"></path>
<path d="M760 70h0"></path>
<rect x="692" y="59" width="68" height="22"></rect>
<a xlink:href="reuse_source.svg"><text x="726" y="74">Source</text>
</a>
</g>
</g>
<path d="M768 70a10 10 0 0 0 10 -10v-20"></path>
<path d="M514 40v50a10 10 0 0 0 10 10"></path>
<g>
<path d="M524 100h0"></path>
<path d="M768 100h0"></path>
<g class="terminal">
<path d="M524 100h0"></path>
<path d="M680 100h0"></path>
<rect x="524" y="89" width="156" height="22" rx="10" ry="10"></rect>
<text x="602" y="104">"DIRECTORY ENTRY"</text>
</g>
<path d="M680 100h10"></path>
<path d="M690 100h10"></path>
<g class="non-terminal">
<path d="M700 100h0"></path>
<path d="M768 100h0"></path>
<rect x="700" y="89" width="68" height="22"></rect>
<a xlink:href="reuse_source.svg"><text x="734" y="104">Source</text>
</a>
</g>
</g>
<path d="M768 100a10 10 0 0 0 10 -10v-50"></path>
<path d="M514 40v80a10 10 0 0 0 10 10"></path>
<g>
<path d="M524 130h0"></path>
<path d="M744 130h24"></path>
<g class="terminal">
<path d="M524 130h0"></path>
<path d="M656 130h0"></path>
<rect x="524" y="119" width="132" height="22" rx="10" ry="10"></rect>
<text x="590" y="134">"PROGRAM TYPE"</text>
</g>
<path d="M656 130h10"></path>
<path d="M666 130h10"></path>
<g class="non-terminal">
<path d="M676 130h0"></path>
<path d="M744 130h0"></path>
<rect x="676" y="119" width="68" height="22"></rect>
<a xlink:href="reuse_source.svg"><text x="710" y="134">Source</text>
</a>
</g>
</g>
<path d="M768 130a10 10 0 0 0 10 -10v-80"></path>
<path d="M514 40v110a10 10 0 0 0 10 10"></path>
<g class="terminal">
<path d="M524 160h0"></path>
<path d="M744 160h24"></path>
<rect x="524" y="149" width="220" height="22" rx="10" ry="10"></rect>
<text x="634" y="164">"KEEPING DIRECTORY ENTRY"</text>
</g>
<path d="M768 160a10 10 0 0 0 10 -10v-110"></path>
<g class="diagram-text">
<title>take one or more branches, once each, in any order</title>
<path d="M 514 30 h -26 a 4 4 0 0 0 -4 4 v 12 a 4 4 0 0 0 4 4 h 26 z" class="diagram-text"></path>
<text x="499" y="44" class="diagram-text">1+</text>
<path d="M 778 30 h 16 a 4 4 0 0 1 4 4 v 12 a 4 4 0 0 1 -4 4 h -16 z" class="diagram-text"></path>
<path d="M 785 38 a 4 4 0 1 0 6 -1 m 2.75 -1 h -4 v 4 m 0 -3 h 2" style="stroke-width: 1.75"></path>
</g>
</g>
<path d="M798 40h20"></path>
</g>
</g>
<path d="M818 40h10"></path>
<path d="M 828 40 h 20 m -10 -10 v 20 m 10 -20 v 20"></path>
</g>
</svg>
