<svg xmlns="http://www.w3.org/2000/svg" xmlns:xlink="http://www.w3.org/1999/xlink" class="railroad-diagram" width="1228" height="178" viewBox="0 0 1228 178">
<defs>
<style type="text/css"><![CDATA[
path {
stroke-width: 3;
stroke: black;
fill: rgba(0,0,0,0);
}
text {
font: bold 14px monospace;
text-anchor: middle;
}
text.diagram-text {
font-size: 12px;
}
a {
fill: blue;
}
text.diagram-arrow {
font-size: 16px;
}
text.label {
text-anchor: start;
}
text.comment {
font: italic 12px monospace;
}
rect {
stroke-width: 3;
stroke: black;
fill: #BCBCBC;
}
path.diagram-text {
stroke-width: 3;
stroke: black;
fill: #BCBCBC;
cursor: help;
}
]]></style>
</defs>
<g transform="translate(.5 .5)">
<path d="M 20 30 v 20 m 10 -20 v 20 m -10 -10 h 20.5"></path>
<path d="M40 40h10"></path>
<g>
<path d="M50 40h0"></path>
<path d="M1178 40h0"></path>
<g class="terminal">
<path d="M50 40h0"></path>
<path d="M134 40h0"></path>
<rect x="50" y="29" width="84" height="22" rx="10" ry="10"></rect>
<text x="92" y="44">"INSERT"</text>
</g>
<path d="M134 40h10"></path>
<g>
<path d="M144 40h0"></path>
<path d="M826 40h0"></path>
<path d="M144 40h20"></path>
<g class="terminal">
<path d="M164 40h0"></path>
<path d="M296 40h510"></path>
<rect x="164" y="29" width="132" height="22" rx="10" ry="10"></rect>
<text x="230" y="44">"INITIAL LINE"</text>
</g>
<path d="M806 40h20"></path>
<path d="M144 40a10 10 0 0 1 10 10v10a10 10 0 0 0 10 10"></path>
<g class="non-terminal">
<path d="M164 70h0"></path>
<path d="M232 70h574"></path>
<rect x="164" y="59" width="68" height="22"></rect>
<a xlink:href="reuse_target.svg"><text x="198" y="74">Target</text>
</a>
</g>
<path d="M806 70a10 10 0 0 0 10 -10v-10a10 10 0 0 1 10 -10"></path>
<path d="M144 40a10 10 0 0 1 10 10v57a10 10 0 0 0 10 10"></path>
<g>
<path d="M164 117h0"></path>
<path d="M806 117h0"></path>
<g>
<path d="M164 117h0"></path>
<path d="M304 117h0"></path>
<path d="M164 117a10 10 0 0 0 10 -10v0a10 10 0 0 1 10 -10"></path>
<g>
<path d="M184 97h100"></path>
</g>
<path d="M284 97a10 10 0 0 1 10 10v0a10 10 0 0 0 10 10"></path>
<path d="M164 117h20"></path>
<g class="terminal">
<path d="M184 117h0"></path>
<path d="M284 117h0"></path>
<rect x="184" y="106" width="100" height="22" rx="10" ry="10"></rect>
<text x="234" y="121">"LINES OF"</text>
</g>
<path d="M284 117h20"></path>
</g>
<g>
<path d="M304 117h0"></path>
<path d="M420 117h0"></path>
<path d="M304 117h20"></path>
<g class="non-terminal">
<path d="M324 117h0"></path>
<path d="M392 117h8"></path>
<rect x="324" y="106" width="68" height="22"></rect>
<a xlink:href="reuse_source.svg"><text x="358" y="121">Source</text>
</a>
</g>
<path d="M400 117h20"></path>
<path d="M304 117a10 10 0 0 1 10 10v10a10 10 0 0 0 10 10"></path>
<g class="non-terminal">
<path d="M324 147h0"></path>
<path d="M400 147h0"></path>
<rect x="324" y="136" width="76" height="22"></rect>
<a xlink:href="reuse_dynamic.svg"><text x="362" y="151">Dynamic</text>
</a>
</g>
<path d="M400 147a10 10 0 0 0 10 -10v-10a10 10 0 0 1 10 -10"></path>
</g>
<g>
<path d="M420 117h0"></path>
<path d="M806 117h0"></path>
<path d="M420 117a10 10 0 0 0 10 -10v-8a10 10 0 0 1 10 -10"></path>
<g>
<path d="M440 89h346"></path>
</g>
<path d="M786 89a10 10 0 0 1 10 10v8a10 10 0 0 0 10 10"></path>
<path d="M420 117h20"></path>
<g>
<path d="M440 117h0"></path>
<path d="M786 117h0"></path>
<g class="terminal">
<path d="M440 117h0"></path>
<path d="M508 117h0"></path>
<rect x="440" y="106" width="68" height="22" rx="10" ry="10"></rect>
<text x="474" y="121">"FROM"</text>
</g>
<path d="M508 117h10"></path>
<path d="M518 117h10"></path>
<g class="non-terminal">
<path d="M528 117h0"></path>
<path d="M596 117h0"></path>
<rect x="528" y="106" width="68" height="22"></rect>
<a xlink:href="reuse_source.svg"><text x="562" y="121">Source</text>
</a>
</g>
<path d="M596 117h10"></path>
<g>
<path d="M606 117h0"></path>
<path d="M786 117h0"></path>
<path d="M606 117a10 10 0 0 0 10 -10v0a10 10 0 0 1 10 -10"></path>
<g>
<path d="M626 97h140"></path>
</g>
<path d="M766 97a10 10 0 0 1 10 10v0a10 10 0 0 0 10 10"></path>
<path d="M606 117h20"></path>
<g>
<path d="M626 117h0"></path>
<path d="M766 117h0"></path>
<g class="terminal">
<path d="M626 117h0"></path>
<path d="M678 117h0"></path>
<rect x="626" y="106" width="52" height="22" rx="10" ry="10"></rect>
<text x="652" y="121">"TO"</text>
</g>
<path d="M678 117h10"></path>
<path d="M688 117h10"></path>
<g class="non-terminal">
<path d="M698 117h0"></path>
<path d="M766 117h0"></path>
<rect x="698" y="106" width="68" height="22"></rect>
<a xlink:href="reuse_source.svg"><text x="732" y="121">Source</text>
</a>
</g>
</g>
<path d="M766 117h20"></path>
</g>
</g>
<path d="M786 117h20"></path>
</g>
</g>
<path d="M806 117a10 10 0 0 0 10 -10v-57a10 10 0 0 1 10 -10"></path>
</g>
<path d="M826 40h10"></path>
<g>
<path d="M836 40h0"></path>
<path d="M1178 40h0"></path>
<path d="M866 40h10"></path>
<g>
<path d="M876 40h0"></path>
<path d="M1148 40h0"></path>
<g class="terminal">
<path d="M876 40h0"></path>
<path d="M944 40h0"></path>
<rect x="876" y="29" width="68" height="22" rx="10" ry="10"></rect>
<text x="910" y="44">"INTO"</text>
</g>
<path d="M944 40h10"></path>
<g>
<path d="M954 40h0"></path>
<path d="M1070 40h0"></path>
<path d="M954 40a10 10 0 0 0 10 -10v0a10 10 0 0 1 10 -10"></path>
<g>
<path d="M974 20h76"></path>
</g>
<path d="M1050 20a10 10 0 0 1 10 10v0a10 10 0 0 0 10 10"></path>
<path d="M954 40h20"></path>
<g class="terminal">
<path d="M974 40h0"></path>
<path d="M1050 40h0"></path>
<rect x="974" y="29" width="76" height="22" rx="10" ry="10"></rect>
<text x="1012" y="44">"TABLE"</text>
</g>
<path d="M1050 40h20"></path>
</g>
<path d="M1070 40h10"></path>
<g class="non-terminal">
<path d="M1080 40h0"></path>
<path d="M1148 40h0"></path>
<rect x="1080" y="29" width="68" height="22"></rect>
<a xlink:href="reuse_source.svg"><text x="1114" y="44">Source</text>
</a>
</g>
</g>
<path d="M1148 40h10"></path>
<path d="M866 40v20a10 10 0 0 0 10 10"></path>
<g>
<path d="M876 70h0"></path>
<path d="M1112 70h36"></path>
<g class="terminal">
<path d="M876 70h0"></path>
<path d="M1024 70h0"></path>
<rect x="876" y="59" width="148" height="22" rx="10" ry="10"></rect>
<text x="950" y="74">"REFERENCE INTO"</text>
</g>
<path d="M1024 70h10"></path>
<path d="M1034 70h10"></path>
<g class="non-terminal">
<path d="M1044 70h0"></path>
<path d="M1112 70h0"></path>
<rect x="1044" y="59" width="68" height="22"></rect>
<a xlink:href="reuse_target.svg"><text x="1078" y="74">Target</text>
</a>
</g>
</g>
<path d="M1148 70a10 10 0 0 0 10 -10v-20"></path>
<path d="M866 40v50a10 10 0 0 0 10 10"></path>
<g>
<path d="M876 100h0"></path>
<path d="M1040 100h108"></path>
<g class="terminal">
<path d="M876 100h0"></path>
<path d="M952 100h0"></path>
<rect x="876" y="89" width="76" height="22" rx="10" ry="10"></rect>
<text x="914" y="104">"INDEX"</text>
</g>
<path d="M952 100h10"></path>
<path d="M962 100h10"></path>
<g class="non-terminal">
<path d="M972 100h0"></path>
<path d="M1040 100h0"></path>
<rect x="972" y="89" width="68" height="22"></rect>
<a xlink:href="reuse_source.svg"><text x="1006" y="104">Source</text>
</a>
</g>
</g>
<path d="M1148 100a10 10 0 0 0 10 -10v-50"></path>
<path d="M866 40v80a10 10 0 0 0 10 10"></path>
<g>
<path d="M876 130h0"></path>
<path d="M1088 130h60"></path>
<g class="terminal">
<path d="M876 130h0"></path>
<path d="M984 130h0"></path>
<rect x="876" y="119" width="108" height="22" rx="10" ry="10"></rect>
<text x="930" y="134">"ASSIGNING"</text>
</g>
<path d="M984 130h10"></path>
<path d="M994 130h10"></path>
<g class="non-terminal">
<path d="M1004 130h0"></path>
<path d="M1088 130h0"></path>
<rect x="1004" y="119" width="84" height="22"></rect>
<a xlink:href="reuse_fstarget.svg"><text x="1046" y="134">FSTarget</text>
</a>
</g>
</g>
<path d="M1148 130a10 10 0 0 0 10 -10v-80"></path>
<g class="diagram-text">
<title>take one or more branches, once each, in any order</title>
<path d="M 866 30 h -26 a 4 4 0 0 0 -4 4 v 12 a 4 4 0 0 0 4 4 h 26 z" class="diagram-text"></path>
<text x="851" y="44" class="diagram-text">1+</text>
<path d="M 1158 30 h 16 a 4 4 0 0 1 4 4 v 12 a 4 4 0 0 1 -4 4 h -16 z" class="diagram-text"></path>
<path d="M 1165 38 a 4 4 0 1 0 6 -1 m 2.75 -1 h -4 v 4 m 0 -3 h 2" style="stroke-width: 1.75"></path>
</g>
</g>
</g>
<path d="M1178 40h10"></path>
<path d="M 1188 40 h 20 m -10 -10 v 20 m 10 -20 v 20"></path>
</g>
</svg>
