<svg xmlns="http://www.w3.org/2000/svg" xmlns:xlink="http://www.w3.org/1999/xlink" class="railroad-diagram" width="988" height="169" viewBox="0 0 988 169">
<defs>
<style type="text/css"><![CDATA[
path {
stroke-width: 3;
stroke: black;
fill: rgba(0,0,0,0);
}
text {
font: bold 14px monospace;
text-anchor: middle;
}
text.diagram-text {
font-size: 12px;
}
a {
fill: blue;
}
text.diagram-arrow {
font-size: 16px;
}
text.label {
text-anchor: start;
}
text.comment {
font: italic 12px monospace;
}
rect {
stroke-width: 3;
stroke: black;
fill: #BCBCBC;
}
path.diagram-text {
stroke-width: 3;
stroke: black;
fill: #BCBCBC;
cursor: help;
}
]]></style>
</defs>
<g transform="translate(.5 .5)">
<path d="M 20 38 v 20 m 10 -20 v 20 m -10 -10 h 20.5"></path>
<path d="M40 48h10"></path>
<g>
<path d="M50 48h0"></path>
<path d="M938 48h0"></path>
<g class="terminal">
<path d="M50 48h0"></path>
<path d="M134 48h0"></path>
<rect x="50" y="37" width="84" height="22" rx="10" ry="10"></rect>
<text x="92" y="52">"INSERT"</text>
</g>
<path d="M134 48h10"></path>
<g>
<path d="M144 48h0"></path>
<path d="M938 48h0"></path>
<path d="M144 48h20"></path>
<g>
<path d="M164 48h0"></path>
<path d="M918 48h0"></path>
<g>
<path d="M164 48h0"></path>
<path d="M328 48h0"></path>
<path d="M164 48h20"></path>
<g class="non-terminal">
<path d="M184 48h0"></path>
<path d="M308 48h0"></path>
<rect x="184" y="37" width="124" height="22"></rect>
<a xlink:href="reuse_databasetable.svg"><text x="246" y="52">DatabaseTable</text>
</a>
</g>
<path d="M308 48h20"></path>
<path d="M164 48a10 10 0 0 1 10 10v10a10 10 0 0 0 10 10"></path>
<g class="non-terminal">
<path d="M184 78h0"></path>
<path d="M260 78h48"></path>
<rect x="184" y="67" width="76" height="22"></rect>
<a xlink:href="reuse_dynamic.svg"><text x="222" y="82">Dynamic</text>
</a>
</g>
<path d="M308 78a10 10 0 0 0 10 -10v-10a10 10 0 0 1 10 -10"></path>
</g>
<g>
<path d="M328 48h0"></path>
<path d="M918 48h0"></path>
<path d="M328 48a10 10 0 0 0 10 -10v-8a10 10 0 0 1 10 -10"></path>
<g>
<path d="M348 20h550"></path>
</g>
<path d="M898 20a10 10 0 0 1 10 10v8a10 10 0 0 0 10 10"></path>
<path d="M328 48h20"></path>
<g>
<path d="M348 48h0"></path>
<path d="M898 48h0"></path>
<g class="terminal">
<path d="M348 48h0"></path>
<path d="M416 48h0"></path>
<rect x="348" y="37" width="68" height="22" rx="10" ry="10"></rect>
<text x="382" y="52">"FROM"</text>
</g>
<path d="M416 48h10"></path>
<g>
<path d="M426 48h0"></path>
<path d="M542 48h0"></path>
<path d="M426 48a10 10 0 0 0 10 -10v0a10 10 0 0 1 10 -10"></path>
<g>
<path d="M446 28h76"></path>
</g>
<path d="M522 28a10 10 0 0 1 10 10v0a10 10 0 0 0 10 10"></path>
<path d="M426 48h20"></path>
<g class="terminal">
<path d="M446 48h0"></path>
<path d="M522 48h0"></path>
<rect x="446" y="37" width="76" height="22" rx="10" ry="10"></rect>
<text x="484" y="52">"TABLE"</text>
</g>
<path d="M522 48h20"></path>
</g>
<path d="M542 48h10"></path>
<g class="non-terminal">
<path d="M552 48h0"></path>
<path d="M620 48h0"></path>
<rect x="552" y="37" width="68" height="22"></rect>
<a xlink:href="reuse_source.svg"><text x="586" y="52">Source</text>
</a>
</g>
<path d="M620 48h10"></path>
<g>
<path d="M630 48h0"></path>
<path d="M898 48h0"></path>
<path d="M630 48a10 10 0 0 0 10 -10v0a10 10 0 0 1 10 -10"></path>
<g>
<path d="M650 28h228"></path>
</g>
<path d="M878 28a10 10 0 0 1 10 10v0a10 10 0 0 0 10 10"></path>
<path d="M630 48h20"></path>
<g class="terminal">
<path d="M650 48h0"></path>
<path d="M878 48h0"></path>
<rect x="650" y="37" width="228" height="22" rx="10" ry="10"></rect>
<text x="764" y="52">"ACCEPTING DUPLICATE KEYS"</text>
</g>
<path d="M878 48h20"></path>
</g>
</g>
<path d="M898 48h20"></path>
</g>
</g>
<path d="M918 48h20"></path>
<path d="M144 48a10 10 0 0 1 10 10v40a10 10 0 0 0 10 10"></path>
<g>
<path d="M164 108h0"></path>
<path d="M588 108h330"></path>
<g class="terminal">
<path d="M164 108h0"></path>
<path d="M232 108h0"></path>
<rect x="164" y="97" width="68" height="22" rx="10" ry="10"></rect>
<text x="198" y="112">"INTO"</text>
</g>
<path d="M232 108h10"></path>
<g>
<path d="M242 108h0"></path>
<path d="M406 108h0"></path>
<path d="M242 108h20"></path>
<g class="non-terminal">
<path d="M262 108h0"></path>
<path d="M386 108h0"></path>
<rect x="262" y="97" width="124" height="22"></rect>
<a xlink:href="reuse_databasetable.svg"><text x="324" y="112">DatabaseTable</text>
</a>
</g>
<path d="M386 108h20"></path>
<path d="M242 108a10 10 0 0 1 10 10v10a10 10 0 0 0 10 10"></path>
<g class="non-terminal">
<path d="M262 138h0"></path>
<path d="M338 138h48"></path>
<rect x="262" y="127" width="76" height="22"></rect>
<a xlink:href="reuse_dynamic.svg"><text x="300" y="142">Dynamic</text>
</a>
</g>
<path d="M386 138a10 10 0 0 0 10 -10v-10a10 10 0 0 1 10 -10"></path>
</g>
<path d="M406 108h10"></path>
<g class="terminal">
<path d="M416 108h0"></path>
<path d="M500 108h0"></path>
<rect x="416" y="97" width="84" height="22" rx="10" ry="10"></rect>
<text x="458" y="112">"VALUES"</text>
</g>
<path d="M500 108h10"></path>
<path d="M510 108h10"></path>
<g class="non-terminal">
<path d="M520 108h0"></path>
<path d="M588 108h0"></path>
<rect x="520" y="97" width="68" height="22"></rect>
<a xlink:href="reuse_source.svg"><text x="554" y="112">Source</text>
</a>
</g>
</g>
<path d="M918 108a10 10 0 0 0 10 -10v-40a10 10 0 0 1 10 -10"></path>
</g>
</g>
<path d="M938 48h10"></path>
<path d="M 948 48 h 20 m -10 -10 v 20 m 10 -20 v 20"></path>
</g>
</svg>
