<svg xmlns="http://www.w3.org/2000/svg" xmlns:xlink="http://www.w3.org/1999/xlink" class="railroad-diagram" width="1254" height="71" viewBox="0 0 1254 71">
<defs>
<style type="text/css"><![CDATA[
path {
stroke-width: 3;
stroke: black;
fill: rgba(0,0,0,0);
}
text {
font: bold 14px monospace;
text-anchor: middle;
}
text.diagram-text {
font-size: 12px;
}
a {
fill: blue;
}
text.diagram-arrow {
font-size: 16px;
}
text.label {
text-anchor: start;
}
text.comment {
font: italic 12px monospace;
}
rect {
stroke-width: 3;
stroke: black;
fill: #BCBCBC;
}
path.diagram-text {
stroke-width: 3;
stroke: black;
fill: #BCBCBC;
cursor: help;
}
]]></style>
</defs>
<g transform="translate(.5 .5)">
<path d="M 20 30 v 20 m 10 -20 v 20 m -10 -10 h 20.5"></path>
<path d="M40 40h10"></path>
<g>
<path d="M50 40h0"></path>
<path d="M1204 40h0"></path>
<g class="terminal">
<path d="M50 40h0"></path>
<path d="M190 40h0"></path>
<rect x="50" y="29" width="140" height="22" rx="10" ry="10"></rect>
<text x="120" y="44">"INSERT REPORT"</text>
</g>
<path d="M190 40h10"></path>
<path d="M200 40h10"></path>
<g class="non-terminal">
<path d="M210 40h0"></path>
<path d="M278 40h0"></path>
<rect x="210" y="29" width="68" height="22"></rect>
<a xlink:href="reuse_source.svg"><text x="244" y="44">Source</text>
</a>
</g>
<path d="M278 40h10"></path>
<path d="M288 40h10"></path>
<g class="terminal">
<path d="M298 40h0"></path>
<path d="M366 40h0"></path>
<rect x="298" y="29" width="68" height="22" rx="10" ry="10"></rect>
<text x="332" y="44">"FROM"</text>
</g>
<path d="M366 40h10"></path>
<path d="M376 40h10"></path>
<g class="non-terminal">
<path d="M386 40h0"></path>
<path d="M454 40h0"></path>
<rect x="386" y="29" width="68" height="22"></rect>
<a xlink:href="reuse_source.svg"><text x="420" y="44">Source</text>
</a>
</g>
<path d="M454 40h10"></path>
<g>
<path d="M464 40h0"></path>
<path d="M668 40h0"></path>
<path d="M464 40a10 10 0 0 0 10 -10v0a10 10 0 0 1 10 -10"></path>
<g>
<path d="M484 20h164"></path>
</g>
<path d="M648 20a10 10 0 0 1 10 10v0a10 10 0 0 0 10 10"></path>
<path d="M464 40h20"></path>
<g>
<path d="M484 40h0"></path>
<path d="M648 40h0"></path>
<g class="terminal">
<path d="M484 40h0"></path>
<path d="M560 40h0"></path>
<rect x="484" y="29" width="76" height="22" rx="10" ry="10"></rect>
<text x="522" y="44">"STATE"</text>
</g>
<path d="M560 40h10"></path>
<path d="M570 40h10"></path>
<g class="non-terminal">
<path d="M580 40h0"></path>
<path d="M648 40h0"></path>
<rect x="580" y="29" width="68" height="22"></rect>
<a xlink:href="reuse_source.svg"><text x="614" y="44">Source</text>
</a>
</g>
</g>
<path d="M648 40h20"></path>
</g>
<g>
<path d="M668 40h0"></path>
<path d="M944 40h0"></path>
<path d="M668 40a10 10 0 0 0 10 -10v0a10 10 0 0 1 10 -10"></path>
<g>
<path d="M688 20h236"></path>
</g>
<path d="M924 20a10 10 0 0 1 10 10v0a10 10 0 0 0 10 10"></path>
<path d="M668 40h20"></path>
<g>
<path d="M688 40h0"></path>
<path d="M924 40h0"></path>
<g class="terminal">
<path d="M688 40h0"></path>
<path d="M836 40h0"></path>
<rect x="688" y="29" width="148" height="22" rx="10" ry="10"></rect>
<text x="762" y="44">"EXTENSION TYPE"</text>
</g>
<path d="M836 40h10"></path>
<path d="M846 40h10"></path>
<g class="non-terminal">
<path d="M856 40h0"></path>
<path d="M924 40h0"></path>
<rect x="856" y="29" width="68" height="22"></rect>
<a xlink:href="reuse_source.svg"><text x="890" y="44">Source</text>
</a>
</g>
</g>
<path d="M924 40h20"></path>
</g>
<g>
<path d="M944 40h0"></path>
<path d="M1204 40h0"></path>
<path d="M944 40a10 10 0 0 0 10 -10v0a10 10 0 0 1 10 -10"></path>
<g>
<path d="M964 20h220"></path>
</g>
<path d="M1184 20a10 10 0 0 1 10 10v0a10 10 0 0 0 10 10"></path>
<path d="M944 40h20"></path>
<g>
<path d="M964 40h0"></path>
<path d="M1184 40h0"></path>
<g class="terminal">
<path d="M964 40h0"></path>
<path d="M1096 40h0"></path>
<rect x="964" y="29" width="132" height="22" rx="10" ry="10"></rect>
<text x="1030" y="44">"PROGRAM TYPE"</text>
</g>
<path d="M1096 40h10"></path>
<path d="M1106 40h10"></path>
<g class="non-terminal">
<path d="M1116 40h0"></path>
<path d="M1184 40h0"></path>
<rect x="1116" y="29" width="68" height="22"></rect>
<a xlink:href="reuse_source.svg"><text x="1150" y="44">Source</text>
</a>
</g>
</g>
<path d="M1184 40h20"></path>
</g>
</g>
<path d="M1204 40h10"></path>
<path d="M 1214 40 h 20 m -10 -10 v 20 m 10 -20 v 20"></path>
</g>
</svg>
