<svg xmlns="http://www.w3.org/2000/svg" xmlns:xlink="http://www.w3.org/1999/xlink" class="railroad-diagram" width="1066" height="170" viewBox="0 0 1066 170">
<defs>
<style type="text/css"><![CDATA[
path {
stroke-width: 3;
stroke: black;
fill: rgba(0,0,0,0);
}
text {
font: bold 14px monospace;
text-anchor: middle;
}
text.diagram-text {
font-size: 12px;
}
a {
fill: blue;
}
text.diagram-arrow {
font-size: 16px;
}
text.label {
text-anchor: start;
}
text.comment {
font: italic 12px monospace;
}
rect {
stroke-width: 3;
stroke: black;
fill: #BCBCBC;
}
path.diagram-text {
stroke-width: 3;
stroke: black;
fill: #BCBCBC;
cursor: help;
}
]]></style>
</defs>
<g transform="translate(.5 .5)">
<path d="M 20 30 v 20 m 10 -20 v 20 m -10 -10 h 20.5"></path>
<path d="M40 40h10"></path>
<g>
<path d="M50 40h0"></path>
<path d="M1016 40h0"></path>
<g class="terminal">
<path d="M50 40h0"></path>
<path d="M166 40h0"></path>
<rect x="50" y="29" width="116" height="22" rx="10" ry="10"></rect>
<text x="108" y="44">"INTERFACES"</text>
</g>
<path d="M166 40h10"></path>
<path d="M176 40h10"></path>
<g class="non-terminal">
<path d="M186 40h0"></path>
<path d="M246 40h0"></path>
<rect x="186" y="29" width="60" height="22"></rect>
<a xlink:href="reuse_field.svg"><text x="216" y="44">Field</text>
</a>
</g>
<path d="M246 40h10"></path>
<g>
<path d="M256 40h0"></path>
<path d="M600 40h0"></path>
<path d="M256 40a10 10 0 0 0 10 -10v0a10 10 0 0 1 10 -10"></path>
<g>
<path d="M276 20h304"></path>
</g>
<path d="M580 20a10 10 0 0 1 10 10v0a10 10 0 0 0 10 10"></path>
<path d="M256 40h20"></path>
<g>
<path d="M276 40h0"></path>
<path d="M580 40h0"></path>
<path d="M276 40h20"></path>
<g>
<path d="M296 40h0"></path>
<path d="M560 40h0"></path>
<g class="terminal">
<path d="M296 40h0"></path>
<path d="M460 40h0"></path>
<rect x="296" y="29" width="164" height="22" rx="10" ry="10"></rect>
<text x="378" y="44">"ABSTRACT METHODS"</text>
</g>
<path d="M460 40h10"></path>
<path d="M470 40h10"></path>
<g>
<path d="M480 40h0"></path>
<path d="M560 40h0"></path>
<path d="M480 40h10"></path>
<g class="non-terminal">
<path d="M490 40h0"></path>
<path d="M550 40h0"></path>
<rect x="490" y="29" width="60" height="22"></rect>
<a xlink:href="reuse_field.svg"><text x="520" y="44">Field</text>
</a>
</g>
<path d="M550 40h10"></path>
<path d="M490 40a10 10 0 0 0 -10 10v0a10 10 0 0 0 10 10"></path>
<g>
<path d="M490 60h60"></path>
</g>
<path d="M550 60a10 10 0 0 0 10 -10v0a10 10 0 0 0 -10 -10"></path>
</g>
</g>
<path d="M560 40h20"></path>
<path d="M276 40a10 10 0 0 1 10 10v19a10 10 0 0 0 10 10"></path>
<g class="terminal">
<path d="M296 79h0"></path>
<path d="M492 79h68"></path>
<rect x="296" y="68" width="196" height="22" rx="10" ry="10"></rect>
<text x="394" y="83">"ALL METHODS ABSTRACT"</text>
</g>
<path d="M560 79a10 10 0 0 0 10 -10v-19a10 10 0 0 1 10 -10"></path>
<path d="M276 40a10 10 0 0 1 10 10v49a10 10 0 0 0 10 10"></path>
<g class="terminal">
<path d="M296 109h0"></path>
<path d="M468 109h92"></path>
<rect x="296" y="98" width="172" height="22" rx="10" ry="10"></rect>
<text x="382" y="113">"ALL METHODS FINAL"</text>
</g>
<path d="M560 109a10 10 0 0 0 10 -10v-49a10 10 0 0 1 10 -10"></path>
<path d="M276 40a10 10 0 0 1 10 10v79a10 10 0 0 0 10 10"></path>
<g class="terminal">
<path d="M296 139h0"></path>
<path d="M500 139h60"></path>
<rect x="296" y="128" width="204" height="22" rx="10" ry="10"></rect>
<text x="398" y="143">"PARTIALLY IMPLEMENTED"</text>
</g>
<path d="M560 139a10 10 0 0 0 10 -10v-79a10 10 0 0 1 10 -10"></path>
</g>
<path d="M580 40h20"></path>
</g>
<g>
<path d="M600 40h0"></path>
<path d="M1016 40h0"></path>
<path d="M600 40a10 10 0 0 0 10 -10v0a10 10 0 0 1 10 -10"></path>
<g>
<path d="M620 20h376"></path>
</g>
<path d="M996 20a10 10 0 0 1 10 10v0a10 10 0 0 0 10 10"></path>
<path d="M600 40h20"></path>
<g>
<path d="M620 40h0"></path>
<path d="M996 40h0"></path>
<g class="terminal">
<path d="M620 40h0"></path>
<path d="M744 40h0"></path>
<rect x="620" y="29" width="124" height="22" rx="10" ry="10"></rect>
<text x="682" y="44">"DATA VALUES"</text>
</g>
<path d="M744 40h10"></path>
<path d="M754 40h10"></path>
<g>
<path d="M764 40h0"></path>
<path d="M996 40h0"></path>
<path d="M764 40h10"></path>
<g>
<path d="M774 40h0"></path>
<path d="M986 40h0"></path>
<g class="non-terminal">
<path d="M774 40h0"></path>
<path d="M834 40h0"></path>
<rect x="774" y="29" width="60" height="22"></rect>
<a xlink:href="reuse_field.svg"><text x="804" y="44">Field</text>
</a>
</g>
<path d="M834 40h10"></path>
<path d="M844 40h10"></path>
<g class="terminal">
<path d="M854 40h0"></path>
<path d="M898 40h0"></path>
<rect x="854" y="29" width="44" height="22" rx="10" ry="10"></rect>
<text x="876" y="44">"="</text>
</g>
<path d="M898 40h10"></path>
<path d="M908 40h10"></path>
<g class="non-terminal">
<path d="M918 40h0"></path>
<path d="M986 40h0"></path>
<rect x="918" y="29" width="68" height="22"></rect>
<a xlink:href="reuse_source.svg"><text x="952" y="44">Source</text>
</a>
</g>
</g>
<path d="M986 40h10"></path>
<path d="M774 40a10 10 0 0 0 -10 10v0a10 10 0 0 0 10 10"></path>
<g>
<path d="M774 60h212"></path>
</g>
<path d="M986 60a10 10 0 0 0 10 -10v0a10 10 0 0 0 -10 -10"></path>
</g>
</g>
<path d="M996 40h20"></path>
</g>
</g>
<path d="M1016 40h10"></path>
<path d="M 1026 40 h 20 m -10 -10 v 20 m 10 -20 v 20"></path>
</g>
</svg>
