<svg xmlns="http://www.w3.org/2000/svg" xmlns:xlink="http://www.w3.org/1999/xlink" class="railroad-diagram" width="422" height="71" viewBox="0 0 422 71">
<defs>
<style type="text/css"><![CDATA[
path {
stroke-width: 3;
stroke: black;
fill: rgba(0,0,0,0);
}
text {
font: bold 14px monospace;
text-anchor: middle;
}
text.diagram-text {
font-size: 12px;
}
a {
fill: blue;
}
text.diagram-arrow {
font-size: 16px;
}
text.label {
text-anchor: start;
}
text.comment {
font: italic 12px monospace;
}
rect {
stroke-width: 3;
stroke: black;
fill: #BCBCBC;
}
path.diagram-text {
stroke-width: 3;
stroke: black;
fill: #BCBCBC;
cursor: help;
}
]]></style>
</defs>
<g transform="translate(.5 .5)">
<path d="M 20 30 v 20 m 10 -20 v 20 m -10 -10 h 20.5"></path>
<path d="M40 40h10"></path>
<g>
<path d="M50 40h0"></path>
<path d="M372 40h0"></path>
<g class="terminal">
<path d="M50 40h0"></path>
<path d="M158 40h0"></path>
<rect x="50" y="29" width="108" height="22" rx="10" ry="10"></rect>
<text x="104" y="44">"INTERFACE"</text>
</g>
<path d="M158 40h10"></path>
<path d="M168 40h10"></path>
<g class="non-terminal">
<path d="M178 40h0"></path>
<path d="M238 40h0"></path>
<rect x="178" y="29" width="60" height="22"></rect>
<a xlink:href="reuse_field.svg"><text x="208" y="44">field</text>
</a>
</g>
<path d="M238 40h10"></path>
<g>
<path d="M248 40h0"></path>
<path d="M372 40h0"></path>
<path d="M248 40a10 10 0 0 0 10 -10v0a10 10 0 0 1 10 -10"></path>
<g>
<path d="M268 20h84"></path>
</g>
<path d="M352 20a10 10 0 0 1 10 10v0a10 10 0 0 0 10 10"></path>
<path d="M248 40h20"></path>
<g class="terminal">
<path d="M268 40h0"></path>
<path d="M352 40h0"></path>
<rect x="268" y="29" width="84" height="22" rx="10" ry="10"></rect>
<text x="310" y="44">"PUBLIC"</text>
</g>
<path d="M352 40h20"></path>
</g>
</g>
<path d="M372 40h10"></path>
<path d="M 382 40 h 20 m -10 -10 v 20 m 10 -20 v 20"></path>
</g>
</svg>
