<?xml version="1.0" encoding="UTF-8" standalone="no"?>
<!DOCTYPE svg PUBLIC "-//W3C//DTD SVG 1.1//EN"
 "http://www.w3.org/Graphics/SVG/1.1/DTD/svg11.dtd">
<!-- Generated by graphviz version 2.38.0 (20140413.2041)
 -->
<!-- Title: interface Pages: 1 -->
<svg width="152pt" height="260pt"
 viewBox="0.00 0.00 152.04 260.00" xmlns="http://www.w3.org/2000/svg" xmlns:xlink="http://www.w3.org/1999/xlink">
<g id="graph0" class="graph" transform="scale(1 1) rotate(0) translate(4 256)">
<title>interface</title>
<polygon fill="white" stroke="none" points="-4,4 -4,-256 148.038,-256 148.038,4 -4,4"/>
<!-- start -->
<g id="node1" class="node"><title>start</title>
<polygon fill="none" stroke="black" points="99.0191,-252 45.0191,-252 45.0191,-216 99.0191,-216 99.0191,-252"/>
<text text-anchor="middle" x="72.0191" y="-229.8" font-family="Times,serif" font-size="14.00">Start</text>
</g>
<!-- node463 -->
<g id="node4" class="node"><title>node463</title>
<ellipse fill="none" stroke="black" cx="72.0191" cy="-162" rx="72.0383" ry="18"/>
<text text-anchor="middle" x="72.0191" y="-157.8" font-family="Times,serif" font-size="14.00">&quot;INTERFACE&quot;</text>
</g>
<!-- start&#45;&gt;node463 -->
<g id="edge3" class="edge"><title>start&#45;&gt;node463</title>
<path fill="none" stroke="black" d="M72.0191,-215.697C72.0191,-207.983 72.0191,-198.712 72.0191,-190.112"/>
<polygon fill="black" stroke="black" points="75.5192,-190.104 72.0191,-180.104 68.5192,-190.104 75.5192,-190.104"/>
</g>
<!-- end -->
<g id="node2" class="node"><title>end</title>
<polygon fill="none" stroke="black" points="99.0191,-36 45.0191,-36 45.0191,-0 99.0191,-0 99.0191,-36"/>
<text text-anchor="middle" x="72.0191" y="-13.8" font-family="Times,serif" font-size="14.00">End</text>
</g>
<!-- node462 -->
<g id="node3" class="node"><title>node462</title>
<g id="a_node3"><a xlink:href="reuse_field.svg" xlink:title="&lt;u&gt;field&lt;/u&gt;">
<ellipse fill="none" stroke="black" cx="72.0191" cy="-90" rx="28.9696" ry="18"/>
<text text-anchor="start" x="59.1909" y="-86.8" font-family="Times,serif" text-decoration="underline" font-size="14.00" fill="blue">field</text>
</a>
</g>
</g>
<!-- node462&#45;&gt;end -->
<g id="edge1" class="edge"><title>node462&#45;&gt;end</title>
<path fill="none" stroke="black" d="M72.0191,-71.6966C72.0191,-63.9827 72.0191,-54.7125 72.0191,-46.1124"/>
<polygon fill="black" stroke="black" points="75.5192,-46.1043 72.0191,-36.1043 68.5192,-46.1044 75.5192,-46.1043"/>
</g>
<!-- node463&#45;&gt;node462 -->
<g id="edge2" class="edge"><title>node463&#45;&gt;node462</title>
<path fill="none" stroke="black" d="M72.0191,-143.697C72.0191,-135.983 72.0191,-126.712 72.0191,-118.112"/>
<polygon fill="black" stroke="black" points="75.5192,-118.104 72.0191,-108.104 68.5192,-118.104 75.5192,-118.104"/>
</g>
</g>
</svg>
