<svg xmlns="http://www.w3.org/2000/svg" xmlns:xlink="http://www.w3.org/1999/xlink" class="railroad-diagram" width="780" height="260" viewBox="0 0 780 260">
<defs>
<style type="text/css"><![CDATA[
path {
stroke-width: 3;
stroke: black;
fill: rgba(0,0,0,0);
}
text {
font: bold 14px monospace;
text-anchor: middle;
}
text.diagram-text {
font-size: 12px;
}
a {
fill: blue;
}
text.diagram-arrow {
font-size: 16px;
}
text.label {
text-anchor: start;
}
text.comment {
font: italic 12px monospace;
}
rect {
stroke-width: 3;
stroke: black;
fill: #BCBCBC;
}
path.diagram-text {
stroke-width: 3;
stroke: black;
fill: #BCBCBC;
cursor: help;
}
]]></style>
</defs>
<g transform="translate(.5 .5)">
<path d="M 20 30 v 20 m 10 -20 v 20 m -10 -10 h 20.5"></path>
<path d="M40 40h10"></path>
<g>
<path d="M50 40h0"></path>
<path d="M730 40h0"></path>
<g class="terminal">
<path d="M50 40h0"></path>
<path d="M126 40h0"></path>
<rect x="50" y="29" width="76" height="22" rx="10" ry="10"></rect>
<text x="88" y="44">"LEAVE"</text>
</g>
<path d="M126 40h10"></path>
<g>
<path d="M136 40h0"></path>
<path d="M730 40h0"></path>
<path d="M136 40a10 10 0 0 0 10 -10v0a10 10 0 0 1 10 -10"></path>
<g>
<path d="M156 20h554"></path>
</g>
<path d="M710 20a10 10 0 0 1 10 10v0a10 10 0 0 0 10 10"></path>
<path d="M136 40h20"></path>
<g>
<path d="M156 40h0"></path>
<path d="M710 40h0"></path>
<path d="M156 40h20"></path>
<g class="terminal">
<path d="M176 40h0"></path>
<path d="M388 40h302"></path>
<rect x="176" y="29" width="212" height="22" rx="10" ry="10"></rect>
<text x="282" y="44">"TO CURRENT TRANSACTION"</text>
</g>
<path d="M690 40h20"></path>
<path d="M156 40a10 10 0 0 1 10 10v19a10 10 0 0 0 10 10"></path>
<g>
<path d="M176 79h0"></path>
<path d="M690 79h0"></path>
<g class="terminal">
<path d="M176 79h0"></path>
<path d="M356 79h0"></path>
<rect x="176" y="68" width="180" height="22" rx="10" ry="10"></rect>
<text x="266" y="83">"TO LIST-PROCESSING"</text>
</g>
<path d="M356 79h10"></path>
<g>
<path d="M366 79h0"></path>
<path d="M690 79h0"></path>
<path d="M366 79a10 10 0 0 0 10 -10v0a10 10 0 0 1 10 -10"></path>
<g>
<path d="M386 59h284"></path>
</g>
<path d="M670 59a10 10 0 0 1 10 10v0a10 10 0 0 0 10 10"></path>
<path d="M366 79h20"></path>
<g>
<path d="M386 79h0"></path>
<path d="M670 79h0"></path>
<g class="terminal">
<path d="M386 79h0"></path>
<path d="M582 79h0"></path>
<rect x="386" y="68" width="196" height="22" rx="10" ry="10"></rect>
<text x="484" y="83">"AND RETURN TO SCREEN"</text>
</g>
<path d="M582 79h10"></path>
<path d="M592 79h10"></path>
<g class="non-terminal">
<path d="M602 79h0"></path>
<path d="M670 79h0"></path>
<rect x="602" y="68" width="68" height="22"></rect>
<a xlink:href="reuse_source.svg"><text x="636" y="83">Source</text>
</a>
</g>
</g>
<path d="M670 79h20"></path>
</g>
</g>
<path d="M690 79a10 10 0 0 0 10 -10v-19a10 10 0 0 1 10 -10"></path>
<path d="M156 40a10 10 0 0 1 10 10v49a10 10 0 0 0 10 10"></path>
<g class="terminal">
<path d="M176 109h0"></path>
<path d="M332 109h358"></path>
<rect x="176" y="98" width="156" height="22" rx="10" ry="10"></rect>
<text x="254" y="113">"LIST-PROCESSING"</text>
</g>
<path d="M690 109a10 10 0 0 0 10 -10v-49a10 10 0 0 1 10 -10"></path>
<path d="M156 40a10 10 0 0 1 10 10v79a10 10 0 0 0 10 10"></path>
<g class="terminal">
<path d="M176 139h0"></path>
<path d="M260 139h430"></path>
<rect x="176" y="128" width="84" height="22" rx="10" ry="10"></rect>
<text x="218" y="143">"SCREEN"</text>
</g>
<path d="M690 139a10 10 0 0 0 10 -10v-79a10 10 0 0 1 10 -10"></path>
<path d="M156 40a10 10 0 0 1 10 10v109a10 10 0 0 0 10 10"></path>
<g>
<path d="M176 169h0"></path>
<path d="M412 169h278"></path>
<g class="terminal">
<path d="M176 169h0"></path>
<path d="M324 169h0"></path>
<rect x="176" y="158" width="148" height="22" rx="10" ry="10"></rect>
<text x="250" y="173">"TO TRANSACTION"</text>
</g>
<path d="M324 169h10"></path>
<path d="M334 169h10"></path>
<g class="non-terminal">
<path d="M344 169h0"></path>
<path d="M412 169h0"></path>
<rect x="344" y="158" width="68" height="22"></rect>
<a xlink:href="reuse_source.svg"><text x="378" y="173">Source</text>
</a>
</g>
</g>
<path d="M690 169a10 10 0 0 0 10 -10v-109a10 10 0 0 1 10 -10"></path>
<path d="M156 40a10 10 0 0 1 10 10v139a10 10 0 0 0 10 10"></path>
<g class="terminal">
<path d="M176 199h0"></path>
<path d="M268 199h422"></path>
<rect x="176" y="188" width="92" height="22" rx="10" ry="10"></rect>
<text x="222" y="203">"PROGRAM"</text>
</g>
<path d="M690 199a10 10 0 0 0 10 -10v-139a10 10 0 0 1 10 -10"></path>
<path d="M156 40a10 10 0 0 1 10 10v169a10 10 0 0 0 10 10"></path>
<g>
<path d="M176 229h0"></path>
<path d="M372 229h318"></path>
<g class="terminal">
<path d="M176 229h0"></path>
<path d="M284 229h0"></path>
<rect x="176" y="218" width="108" height="22" rx="10" ry="10"></rect>
<text x="230" y="233">"TO SCREEN"</text>
</g>
<path d="M284 229h10"></path>
<path d="M294 229h10"></path>
<g class="non-terminal">
<path d="M304 229h0"></path>
<path d="M372 229h0"></path>
<rect x="304" y="218" width="68" height="22"></rect>
<a xlink:href="reuse_source.svg"><text x="338" y="233">Source</text>
</a>
</g>
</g>
<path d="M690 229a10 10 0 0 0 10 -10v-169a10 10 0 0 1 10 -10"></path>
</g>
<path d="M710 40h20"></path>
</g>
</g>
<path d="M730 40h10"></path>
<path d="M 740 40 h 20 m -10 -10 v 20 m 10 -20 v 20"></path>
</g>
</svg>
