<?xml version="1.0" encoding="UTF-8" standalone="no"?>
<!DOCTYPE svg PUBLIC "-//W3C//DTD SVG 1.1//EN"
 "http://www.w3.org/Graphics/SVG/1.1/DTD/svg11.dtd">
<!-- Generated by graphviz version 2.38.0 (20140413.2041)
 -->
<!-- Title: leave Pages: 1 -->
<svg width="219pt" height="260pt"
 viewBox="0.00 0.00 218.55 260.00" xmlns="http://www.w3.org/2000/svg" xmlns:xlink="http://www.w3.org/1999/xlink">
<g id="graph0" class="graph" transform="scale(1 1) rotate(0) translate(4 256)">
<title>leave</title>
<polygon fill="white" stroke="none" points="-4,4 -4,-256 214.548,-256 214.548,4 -4,4"/>
<!-- start -->
<g id="node1" class="node"><title>start</title>
<polygon fill="none" stroke="black" points="132.274,-252 78.2738,-252 78.2738,-216 132.274,-216 132.274,-252"/>
<text text-anchor="middle" x="105.274" y="-229.8" font-family="Times,serif" font-size="14.00">Start</text>
</g>
<!-- node523 -->
<g id="node4" class="node"><title>node523</title>
<ellipse fill="none" stroke="black" cx="105.274" cy="-162" rx="105.048" ry="18"/>
<text text-anchor="middle" x="105.274" y="-157.8" font-family="Times,serif" font-size="14.00">&quot;LEAVE TO SCREEN&quot;</text>
</g>
<!-- start&#45;&gt;node523 -->
<g id="edge3" class="edge"><title>start&#45;&gt;node523</title>
<path fill="none" stroke="black" d="M105.274,-215.697C105.274,-207.983 105.274,-198.712 105.274,-190.112"/>
<polygon fill="black" stroke="black" points="108.774,-190.104 105.274,-180.104 101.774,-190.104 108.774,-190.104"/>
</g>
<!-- end -->
<g id="node2" class="node"><title>end</title>
<polygon fill="none" stroke="black" points="132.274,-36 78.2738,-36 78.2738,-0 132.274,-0 132.274,-36"/>
<text text-anchor="middle" x="105.274" y="-13.8" font-family="Times,serif" font-size="14.00">End</text>
</g>
<!-- node522 -->
<g id="node3" class="node"><title>node522</title>
<g id="a_node3"><a xlink:href="reuse_integer.svg" xlink:title="&lt;u&gt;integer&lt;/u&gt;">
<ellipse fill="none" stroke="black" cx="105.274" cy="-90" rx="37.6986" ry="18"/>
<text text-anchor="start" x="85.8383" y="-86.8" font-family="Times,serif" text-decoration="underline" font-size="14.00" fill="blue">integer</text>
</a>
</g>
</g>
<!-- node522&#45;&gt;end -->
<g id="edge1" class="edge"><title>node522&#45;&gt;end</title>
<path fill="none" stroke="black" d="M105.274,-71.6966C105.274,-63.9827 105.274,-54.7125 105.274,-46.1124"/>
<polygon fill="black" stroke="black" points="108.774,-46.1043 105.274,-36.1043 101.774,-46.1044 108.774,-46.1043"/>
</g>
<!-- node523&#45;&gt;node522 -->
<g id="edge2" class="edge"><title>node523&#45;&gt;node522</title>
<path fill="none" stroke="black" d="M105.274,-143.697C105.274,-135.983 105.274,-126.712 105.274,-118.112"/>
<polygon fill="black" stroke="black" points="108.774,-118.104 105.274,-108.104 101.774,-118.104 108.774,-118.104"/>
</g>
</g>
</svg>
