<svg xmlns="http://www.w3.org/2000/svg" xmlns:xlink="http://www.w3.org/1999/xlink" class="railroad-diagram" width="462" height="152" viewBox="0 0 462 152">
<defs>
<style type="text/css"><![CDATA[
path {
stroke-width: 3;
stroke: black;
fill: rgba(0,0,0,0);
}
text {
font: bold 14px monospace;
text-anchor: middle;
}
text.diagram-text {
font-size: 12px;
}
a {
fill: blue;
}
text.diagram-arrow {
font-size: 16px;
}
text.label {
text-anchor: start;
}
text.comment {
font: italic 12px monospace;
}
rect {
stroke-width: 3;
stroke: black;
fill: #BCBCBC;
}
path.diagram-text {
stroke-width: 3;
stroke: black;
fill: #BCBCBC;
cursor: help;
}
]]></style>
</defs>
<g transform="translate(.5 .5)">
<path d="M 20 21 v 20 m 10 -20 v 20 m -10 -10 h 20.5"></path>
<path d="M40 31h10"></path>
<g>
<path d="M50 31h0"></path>
<path d="M412 31h0"></path>
<g class="terminal">
<path d="M50 31h0"></path>
<path d="M126 31h0"></path>
<rect x="50" y="20" width="76" height="22" rx="10" ry="10"></rect>
<text x="88" y="35">"LEAVE"</text>
</g>
<path d="M126 31h10"></path>
<g>
<path d="M136 31h0"></path>
<path d="M412 31h0"></path>
<path d="M136 31h20"></path>
<g class="terminal">
<path d="M156 31h12"></path>
<path d="M380 31h12"></path>
<rect x="168" y="20" width="212" height="22" rx="10" ry="10"></rect>
<text x="274" y="35">"TO CURRENT TRANSACTION"</text>
</g>
<path d="M392 31h20"></path>
<path d="M136 31a10 10 0 0 1 10 10v10a10 10 0 0 0 10 10"></path>
<g>
<path d="M156 61h0"></path>
<path d="M392 61h0"></path>
<g class="terminal">
<path d="M156 61h0"></path>
<path d="M304 61h0"></path>
<rect x="156" y="50" width="148" height="22" rx="10" ry="10"></rect>
<text x="230" y="65">"TO TRANSACTION"</text>
</g>
<path d="M304 61h10"></path>
<path d="M314 61h10"></path>
<g class="non-terminal">
<path d="M324 61h0"></path>
<path d="M392 61h0"></path>
<rect x="324" y="50" width="68" height="22"></rect>
<a xlink:href="reuse_source.svg"><text x="358" y="65">source</text>
</a>
</g>
</g>
<path d="M392 61a10 10 0 0 0 10 -10v-10a10 10 0 0 1 10 -10"></path>
<path d="M136 31a10 10 0 0 1 10 10v40a10 10 0 0 0 10 10"></path>
<g class="terminal">
<path d="M156 91h72"></path>
<path d="M320 91h72"></path>
<rect x="228" y="80" width="92" height="22" rx="10" ry="10"></rect>
<text x="274" y="95">"PROGRAM"</text>
</g>
<path d="M392 91a10 10 0 0 0 10 -10v-40a10 10 0 0 1 10 -10"></path>
<path d="M136 31a10 10 0 0 1 10 10v70a10 10 0 0 0 10 10"></path>
<g>
<path d="M156 121h16"></path>
<path d="M376 121h16"></path>
<g class="terminal">
<path d="M172 121h0"></path>
<path d="M280 121h0"></path>
<rect x="172" y="110" width="108" height="22" rx="10" ry="10"></rect>
<text x="226" y="125">"TO SCREEN"</text>
</g>
<path d="M280 121h10"></path>
<path d="M290 121h10"></path>
<g class="non-terminal">
<path d="M300 121h0"></path>
<path d="M376 121h0"></path>
<rect x="300" y="110" width="76" height="22"></rect>
<a xlink:href="reuse_integer.svg"><text x="338" y="125">integer</text>
</a>
</g>
</g>
<path d="M392 121a10 10 0 0 0 10 -10v-70a10 10 0 0 1 10 -10"></path>
</g>
</g>
<path d="M412 31h10"></path>
<path d="M 422 31 h 20 m -10 -10 v 20 m 10 -20 v 20"></path>
</g>
</svg>
