<svg xmlns="http://www.w3.org/2000/svg" xmlns:xlink="http://www.w3.org/1999/xlink" class="railroad-diagram" width="502" height="221" viewBox="0 0 502 221">
<defs>
<style type="text/css"><![CDATA[
path {
stroke-width: 3;
stroke: black;
fill: rgba(0,0,0,0);
}
text {
font: bold 14px monospace;
text-anchor: middle;
}
text.diagram-text {
font-size: 12px;
}
a {
fill: blue;
}
text.diagram-arrow {
font-size: 16px;
}
text.label {
text-anchor: start;
}
text.comment {
font: italic 12px monospace;
}
rect {
stroke-width: 3;
stroke: black;
fill: #BCBCBC;
}
path.diagram-text {
stroke-width: 3;
stroke: black;
fill: #BCBCBC;
cursor: help;
}
]]></style>
</defs>
<g transform="translate(.5 .5)">
<path d="M 20 30 v 20 m 10 -20 v 20 m -10 -10 h 20.5"></path>
<path d="M40 40h10"></path>
<g>
<path d="M50 40h0"></path>
<path d="M452 40h0"></path>
<g class="terminal">
<path d="M50 40h0"></path>
<path d="M126 40h0"></path>
<rect x="50" y="29" width="76" height="22" rx="10" ry="10"></rect>
<text x="88" y="44">"LEAVE"</text>
</g>
<path d="M126 40h10"></path>
<g>
<path d="M136 40h0"></path>
<path d="M452 40h0"></path>
<path d="M136 40a10 10 0 0 0 10 -10v0a10 10 0 0 1 10 -10"></path>
<g>
<path d="M156 20h276"></path>
</g>
<path d="M432 20a10 10 0 0 1 10 10v0a10 10 0 0 0 10 10"></path>
<path d="M136 40h20"></path>
<g>
<path d="M156 40h0"></path>
<path d="M432 40h0"></path>
<path d="M156 40h20"></path>
<g class="terminal">
<path d="M176 40h0"></path>
<path d="M388 40h24"></path>
<rect x="176" y="29" width="212" height="22" rx="10" ry="10"></rect>
<text x="282" y="44">"TO CURRENT TRANSACTION"</text>
</g>
<path d="M412 40h20"></path>
<path d="M156 40a10 10 0 0 1 10 10v10a10 10 0 0 0 10 10"></path>
<g class="terminal">
<path d="M176 70h0"></path>
<path d="M356 70h56"></path>
<rect x="176" y="59" width="180" height="22" rx="10" ry="10"></rect>
<text x="266" y="74">"TO LIST-PROCESSING"</text>
</g>
<path d="M412 70a10 10 0 0 0 10 -10v-10a10 10 0 0 1 10 -10"></path>
<path d="M156 40a10 10 0 0 1 10 10v40a10 10 0 0 0 10 10"></path>
<g class="terminal">
<path d="M176 100h0"></path>
<path d="M260 100h152"></path>
<rect x="176" y="89" width="84" height="22" rx="10" ry="10"></rect>
<text x="218" y="104">"SCREEN"</text>
</g>
<path d="M412 100a10 10 0 0 0 10 -10v-40a10 10 0 0 1 10 -10"></path>
<path d="M156 40a10 10 0 0 1 10 10v70a10 10 0 0 0 10 10"></path>
<g>
<path d="M176 130h0"></path>
<path d="M412 130h0"></path>
<g class="terminal">
<path d="M176 130h0"></path>
<path d="M324 130h0"></path>
<rect x="176" y="119" width="148" height="22" rx="10" ry="10"></rect>
<text x="250" y="134">"TO TRANSACTION"</text>
</g>
<path d="M324 130h10"></path>
<path d="M334 130h10"></path>
<g class="non-terminal">
<path d="M344 130h0"></path>
<path d="M412 130h0"></path>
<rect x="344" y="119" width="68" height="22"></rect>
<a xlink:href="reuse_source.svg"><text x="378" y="134">Source</text>
</a>
</g>
</g>
<path d="M412 130a10 10 0 0 0 10 -10v-70a10 10 0 0 1 10 -10"></path>
<path d="M156 40a10 10 0 0 1 10 10v100a10 10 0 0 0 10 10"></path>
<g class="terminal">
<path d="M176 160h0"></path>
<path d="M268 160h144"></path>
<rect x="176" y="149" width="92" height="22" rx="10" ry="10"></rect>
<text x="222" y="164">"PROGRAM"</text>
</g>
<path d="M412 160a10 10 0 0 0 10 -10v-100a10 10 0 0 1 10 -10"></path>
<path d="M156 40a10 10 0 0 1 10 10v130a10 10 0 0 0 10 10"></path>
<g>
<path d="M176 190h0"></path>
<path d="M372 190h40"></path>
<g class="terminal">
<path d="M176 190h0"></path>
<path d="M284 190h0"></path>
<rect x="176" y="179" width="108" height="22" rx="10" ry="10"></rect>
<text x="230" y="194">"TO SCREEN"</text>
</g>
<path d="M284 190h10"></path>
<path d="M294 190h10"></path>
<g class="non-terminal">
<path d="M304 190h0"></path>
<path d="M372 190h0"></path>
<rect x="304" y="179" width="68" height="22"></rect>
<a xlink:href="reuse_source.svg"><text x="338" y="194">Source</text>
</a>
</g>
</g>
<path d="M412 190a10 10 0 0 0 10 -10v-130a10 10 0 0 1 10 -10"></path>
</g>
<path d="M432 40h20"></path>
</g>
</g>
<path d="M452 40h10"></path>
<path d="M 462 40 h 20 m -10 -10 v 20 m 10 -20 v 20"></path>
</g>
</svg>
