<svg xmlns="http://www.w3.org/2000/svg" xmlns:xlink="http://www.w3.org/1999/xlink" class="railroad-diagram" width="430" height="92" viewBox="0 0 430 92">
<defs>
<style type="text/css"><![CDATA[
path {
stroke-width: 3;
stroke: black;
fill: rgba(0,0,0,0);
}
text {
font: bold 14px monospace;
text-anchor: middle;
}
text.diagram-text {
font-size: 12px;
}
a {
fill: blue;
}
text.diagram-arrow {
font-size: 16px;
}
text.label {
text-anchor: start;
}
text.comment {
font: italic 12px monospace;
}
rect {
stroke-width: 3;
stroke: black;
fill: #BCBCBC;
}
path.diagram-text {
stroke-width: 3;
stroke: black;
fill: #BCBCBC;
cursor: help;
}
]]></style>
</defs>
<g transform="translate(.5 .5)">
<path d="M 20 21 v 20 m 10 -20 v 20 m -10 -10 h 20.5"></path>
<path d="M40 31h10"></path>
<g>
<path d="M50 31h0"></path>
<path d="M380 31h0"></path>
<g class="terminal">
<path d="M50 31h0"></path>
<path d="M126 31h0"></path>
<rect x="50" y="20" width="76" height="22" rx="10" ry="10"></rect>
<text x="88" y="35">"LEAVE"</text>
</g>
<path d="M126 31h10"></path>
<g>
<path d="M136 31h0"></path>
<path d="M380 31h0"></path>
<path d="M136 31h20"></path>
<g class="terminal">
<path d="M156 31h56"></path>
<path d="M304 31h56"></path>
<rect x="212" y="20" width="92" height="22" rx="10" ry="10"></rect>
<text x="258" y="35">"PROGRAM"</text>
</g>
<path d="M360 31h20"></path>
<path d="M136 31a10 10 0 0 1 10 10v10a10 10 0 0 0 10 10"></path>
<g>
<path d="M156 61h0"></path>
<path d="M360 61h0"></path>
<g class="terminal">
<path d="M156 61h0"></path>
<path d="M264 61h0"></path>
<rect x="156" y="50" width="108" height="22" rx="10" ry="10"></rect>
<text x="210" y="65">"TO SCREEN"</text>
</g>
<path d="M264 61h10"></path>
<path d="M274 61h10"></path>
<g class="non-terminal">
<path d="M284 61h0"></path>
<path d="M360 61h0"></path>
<rect x="284" y="50" width="76" height="22"></rect>
<a xlink:href="reuse_integer.svg"><text x="322" y="65">integer</text>
</a>
</g>
</g>
<path d="M360 61a10 10 0 0 0 10 -10v-10a10 10 0 0 1 10 -10"></path>
</g>
</g>
<path d="M380 31h10"></path>
<path d="M 390 31 h 20 m -10 -10 v 20 m 10 -20 v 20"></path>
</g>
</svg>
