<svg xmlns="http://www.w3.org/2000/svg" xmlns:xlink="http://www.w3.org/1999/xlink" class="railroad-diagram" width="858" height="269" viewBox="0 0 858 269">
<defs>
<style type="text/css"><![CDATA[
path {
stroke-width: 3;
stroke: black;
fill: rgba(0,0,0,0);
}
text {
font: bold 14px monospace;
text-anchor: middle;
}
text.diagram-text {
font-size: 12px;
}
a {
fill: blue;
}
text.diagram-arrow {
font-size: 16px;
}
text.label {
text-anchor: start;
}
text.comment {
font: italic 12px monospace;
}
rect {
stroke-width: 3;
stroke: black;
fill: #BCBCBC;
}
path.diagram-text {
stroke-width: 3;
stroke: black;
fill: #BCBCBC;
cursor: help;
}
]]></style>
</defs>
<g transform="translate(.5 .5)">
<path d="M 20 30 v 20 m 10 -20 v 20 m -10 -10 h 20.5"></path>
<path d="M40 40h10"></path>
<g>
<path d="M50 40h0"></path>
<path d="M808 40h0"></path>
<g class="terminal">
<path d="M50 40h0"></path>
<path d="M126 40h0"></path>
<rect x="50" y="29" width="76" height="22" rx="10" ry="10"></rect>
<text x="88" y="44">"LEAVE"</text>
</g>
<path d="M126 40h10"></path>
<g>
<path d="M136 40h0"></path>
<path d="M808 40h0"></path>
<path d="M136 40a10 10 0 0 0 10 -10v0a10 10 0 0 1 10 -10"></path>
<g>
<path d="M156 20h632"></path>
</g>
<path d="M788 20a10 10 0 0 1 10 10v0a10 10 0 0 0 10 10"></path>
<path d="M136 40h20"></path>
<g>
<path d="M156 40h0"></path>
<path d="M788 40h0"></path>
<path d="M156 40h20"></path>
<g class="terminal">
<path d="M176 40h0"></path>
<path d="M388 40h380"></path>
<rect x="176" y="29" width="212" height="22" rx="10" ry="10"></rect>
<text x="282" y="44">"TO CURRENT TRANSACTION"</text>
</g>
<path d="M768 40h20"></path>
<path d="M156 40a10 10 0 0 1 10 10v19a10 10 0 0 0 10 10"></path>
<g>
<path d="M176 79h0"></path>
<path d="M768 79h0"></path>
<g>
<path d="M176 79h0"></path>
<path d="M268 79h0"></path>
<path d="M176 79a10 10 0 0 0 10 -10v0a10 10 0 0 1 10 -10"></path>
<g>
<path d="M196 59h52"></path>
</g>
<path d="M248 59a10 10 0 0 1 10 10v0a10 10 0 0 0 10 10"></path>
<path d="M176 79h20"></path>
<g class="terminal">
<path d="M196 79h0"></path>
<path d="M248 79h0"></path>
<rect x="196" y="68" width="52" height="22" rx="10" ry="10"></rect>
<text x="222" y="83">"TO"</text>
</g>
<path d="M248 79h20"></path>
</g>
<path d="M268 79h10"></path>
<g class="terminal">
<path d="M278 79h0"></path>
<path d="M434 79h0"></path>
<rect x="278" y="68" width="156" height="22" rx="10" ry="10"></rect>
<text x="356" y="83">"LIST-PROCESSING"</text>
</g>
<path d="M434 79h10"></path>
<g>
<path d="M444 79h0"></path>
<path d="M768 79h0"></path>
<path d="M444 79a10 10 0 0 0 10 -10v0a10 10 0 0 1 10 -10"></path>
<g>
<path d="M464 59h284"></path>
</g>
<path d="M748 59a10 10 0 0 1 10 10v0a10 10 0 0 0 10 10"></path>
<path d="M444 79h20"></path>
<g>
<path d="M464 79h0"></path>
<path d="M748 79h0"></path>
<g class="terminal">
<path d="M464 79h0"></path>
<path d="M660 79h0"></path>
<rect x="464" y="68" width="196" height="22" rx="10" ry="10"></rect>
<text x="562" y="83">"AND RETURN TO SCREEN"</text>
</g>
<path d="M660 79h10"></path>
<path d="M670 79h10"></path>
<g class="non-terminal">
<path d="M680 79h0"></path>
<path d="M748 79h0"></path>
<rect x="680" y="68" width="68" height="22"></rect>
<a xlink:href="reuse_source.svg"><text x="714" y="83">Source</text>
</a>
</g>
</g>
<path d="M748 79h20"></path>
</g>
</g>
<path d="M768 79a10 10 0 0 0 10 -10v-19a10 10 0 0 1 10 -10"></path>
<path d="M156 40a10 10 0 0 1 10 10v49a10 10 0 0 0 10 10"></path>
<g class="terminal">
<path d="M176 109h0"></path>
<path d="M332 109h436"></path>
<rect x="176" y="98" width="156" height="22" rx="10" ry="10"></rect>
<text x="254" y="113">"LIST-PROCESSING"</text>
</g>
<path d="M768 109a10 10 0 0 0 10 -10v-49a10 10 0 0 1 10 -10"></path>
<path d="M156 40a10 10 0 0 1 10 10v79a10 10 0 0 0 10 10"></path>
<g class="terminal">
<path d="M176 139h0"></path>
<path d="M260 139h508"></path>
<rect x="176" y="128" width="84" height="22" rx="10" ry="10"></rect>
<text x="218" y="143">"SCREEN"</text>
</g>
<path d="M768 139a10 10 0 0 0 10 -10v-79a10 10 0 0 1 10 -10"></path>
<path d="M156 40a10 10 0 0 1 10 10v118a10 10 0 0 0 10 10"></path>
<g>
<path d="M176 178h0"></path>
<path d="M666 178h102"></path>
<g class="terminal">
<path d="M176 178h0"></path>
<path d="M324 178h0"></path>
<rect x="176" y="167" width="148" height="22" rx="10" ry="10"></rect>
<text x="250" y="182">"TO TRANSACTION"</text>
</g>
<path d="M324 178h10"></path>
<path d="M334 178h10"></path>
<g class="non-terminal">
<path d="M344 178h0"></path>
<path d="M412 178h0"></path>
<rect x="344" y="167" width="68" height="22"></rect>
<a xlink:href="reuse_source.svg"><text x="378" y="182">Source</text>
</a>
</g>
<path d="M412 178h10"></path>
<g>
<path d="M422 178h0"></path>
<path d="M666 178h0"></path>
<path d="M422 178a10 10 0 0 0 10 -10v0a10 10 0 0 1 10 -10"></path>
<g>
<path d="M442 158h204"></path>
</g>
<path d="M646 158a10 10 0 0 1 10 10v0a10 10 0 0 0 10 10"></path>
<path d="M422 178h20"></path>
<g class="terminal">
<path d="M442 178h0"></path>
<path d="M646 178h0"></path>
<rect x="442" y="167" width="204" height="22" rx="10" ry="10"></rect>
<text x="544" y="182">"AND SKIP FIRST SCREEN"</text>
</g>
<path d="M646 178h20"></path>
</g>
</g>
<path d="M768 178a10 10 0 0 0 10 -10v-118a10 10 0 0 1 10 -10"></path>
<path d="M156 40a10 10 0 0 1 10 10v148a10 10 0 0 0 10 10"></path>
<g class="terminal">
<path d="M176 208h0"></path>
<path d="M268 208h500"></path>
<rect x="176" y="197" width="92" height="22" rx="10" ry="10"></rect>
<text x="222" y="212">"PROGRAM"</text>
</g>
<path d="M768 208a10 10 0 0 0 10 -10v-148a10 10 0 0 1 10 -10"></path>
<path d="M156 40a10 10 0 0 1 10 10v178a10 10 0 0 0 10 10"></path>
<g>
<path d="M176 238h0"></path>
<path d="M372 238h396"></path>
<g class="terminal">
<path d="M176 238h0"></path>
<path d="M284 238h0"></path>
<rect x="176" y="227" width="108" height="22" rx="10" ry="10"></rect>
<text x="230" y="242">"TO SCREEN"</text>
</g>
<path d="M284 238h10"></path>
<path d="M294 238h10"></path>
<g class="non-terminal">
<path d="M304 238h0"></path>
<path d="M372 238h0"></path>
<rect x="304" y="227" width="68" height="22"></rect>
<a xlink:href="reuse_source.svg"><text x="338" y="242">Source</text>
</a>
</g>
</g>
<path d="M768 238a10 10 0 0 0 10 -10v-178a10 10 0 0 1 10 -10"></path>
</g>
<path d="M788 40h20"></path>
</g>
</g>
<path d="M808 40h10"></path>
<path d="M 818 40 h 20 m -10 -10 v 20 m 10 -20 v 20"></path>
</g>
</svg>
