<svg xmlns="http://www.w3.org/2000/svg" xmlns:xlink="http://www.w3.org/1999/xlink" class="railroad-diagram" width="774" height="80" viewBox="0 0 774 80">
<defs>
<style type="text/css"><![CDATA[
path {
stroke-width: 3;
stroke: black;
fill: rgba(0,0,0,0);
}
text {
font: bold 14px monospace;
text-anchor: middle;
}
text.diagram-text {
font-size: 12px;
}
a {
fill: blue;
}
text.diagram-arrow {
font-size: 16px;
}
text.label {
text-anchor: start;
}
text.comment {
font: italic 12px monospace;
}
rect {
stroke-width: 3;
stroke: black;
fill: #BCBCBC;
}
path.diagram-text {
stroke-width: 3;
stroke: black;
fill: #BCBCBC;
cursor: help;
}
]]></style>
</defs>
<g transform="translate(.5 .5)">
<path d="M 20 30 v 20 m 10 -20 v 20 m -10 -10 h 20.5"></path>
<path d="M40 40h10"></path>
<g>
<path d="M50 40h0"></path>
<path d="M724 40h0"></path>
<g class="terminal">
<path d="M50 40h0"></path>
<path d="M182 40h0"></path>
<rect x="50" y="29" width="132" height="22" rx="10" ry="10"></rect>
<text x="116" y="44">"LOG-POINT ID"</text>
</g>
<path d="M182 40h10"></path>
<path d="M192 40h10"></path>
<g class="non-terminal">
<path d="M202 40h0"></path>
<path d="M270 40h0"></path>
<rect x="202" y="29" width="68" height="22"></rect>
<a xlink:href="reuse_source.svg"><text x="236" y="44">Source</text>
</a>
</g>
<path d="M270 40h10"></path>
<g>
<path d="M280 40h0"></path>
<path d="M492 40h0"></path>
<path d="M280 40a10 10 0 0 0 10 -10v0a10 10 0 0 1 10 -10"></path>
<g>
<path d="M300 20h172"></path>
</g>
<path d="M472 20a10 10 0 0 1 10 10v0a10 10 0 0 0 10 10"></path>
<path d="M280 40h20"></path>
<g>
<path d="M300 40h0"></path>
<path d="M472 40h0"></path>
<g class="terminal">
<path d="M300 40h0"></path>
<path d="M384 40h0"></path>
<rect x="300" y="29" width="84" height="22" rx="10" ry="10"></rect>
<text x="342" y="44">"SUBKEY"</text>
</g>
<path d="M384 40h10"></path>
<path d="M394 40h10"></path>
<g class="non-terminal">
<path d="M404 40h0"></path>
<path d="M472 40h0"></path>
<rect x="404" y="29" width="68" height="22"></rect>
<a xlink:href="reuse_source.svg"><text x="438" y="44">Source</text>
</a>
</g>
</g>
<path d="M472 40h20"></path>
</g>
<g>
<path d="M492 40h0"></path>
<path d="M724 40h0"></path>
<path d="M492 40a10 10 0 0 0 10 -10v0a10 10 0 0 1 10 -10"></path>
<g>
<path d="M512 20h192"></path>
</g>
<path d="M704 20a10 10 0 0 1 10 10v0a10 10 0 0 0 10 10"></path>
<path d="M492 40h20"></path>
<g>
<path d="M512 40h0"></path>
<path d="M704 40h0"></path>
<g class="terminal">
<path d="M512 40h0"></path>
<path d="M596 40h0"></path>
<rect x="512" y="29" width="84" height="22" rx="10" ry="10"></rect>
<text x="554" y="44">"FIELDS"</text>
</g>
<path d="M596 40h10"></path>
<path d="M606 40h10"></path>
<g>
<path d="M616 40h0"></path>
<path d="M704 40h0"></path>
<path d="M616 40h10"></path>
<g class="non-terminal">
<path d="M626 40h0"></path>
<path d="M694 40h0"></path>
<rect x="626" y="29" width="68" height="22"></rect>
<a xlink:href="reuse_source.svg"><text x="660" y="44">Source</text>
</a>
</g>
<path d="M694 40h10"></path>
<path d="M626 40a10 10 0 0 0 -10 10v0a10 10 0 0 0 10 10"></path>
<g>
<path d="M626 60h68"></path>
</g>
<path d="M694 60a10 10 0 0 0 10 -10v0a10 10 0 0 0 -10 -10"></path>
</g>
</g>
<path d="M704 40h20"></path>
</g>
</g>
<path d="M724 40h10"></path>
<path d="M 734 40 h 20 m -10 -10 v 20 m 10 -20 v 20"></path>
</g>
</svg>
