<svg xmlns="http://www.w3.org/2000/svg" xmlns:xlink="http://www.w3.org/1999/xlink" class="railroad-diagram" width="806" height="80" viewBox="0 0 806 80">
<defs>
<style type="text/css"><![CDATA[
path {
stroke-width: 3;
stroke: black;
fill: rgba(0,0,0,0);
}
text {
font: bold 14px monospace;
text-anchor: middle;
}
text.diagram-text {
font-size: 12px;
}
a {
fill: blue;
}
text.diagram-arrow {
font-size: 16px;
}
text.label {
text-anchor: start;
}
text.comment {
font: italic 12px monospace;
}
rect {
stroke-width: 3;
stroke: black;
fill: #BCBCBC;
}
path.diagram-text {
stroke-width: 3;
stroke: black;
fill: #BCBCBC;
cursor: help;
}
]]></style>
</defs>
<g transform="translate(.5 .5)">
<path d="M 20 30 v 20 m 10 -20 v 20 m -10 -10 h 20.5"></path>
<path d="M40 40h10"></path>
<g>
<path d="M50 40h0"></path>
<path d="M756 40h0"></path>
<g class="terminal">
<path d="M50 40h0"></path>
<path d="M182 40h0"></path>
<rect x="50" y="29" width="132" height="22" rx="10" ry="10"></rect>
<text x="116" y="44">"LOG-POINT ID"</text>
</g>
<path d="M182 40h10"></path>
<path d="M192 40h10"></path>
<g class="non-terminal">
<path d="M202 40h0"></path>
<path d="M302 40h0"></path>
<rect x="202" y="29" width="100" height="22"></rect>
<a xlink:href="reuse_simplename.svg"><text x="252" y="44">SimpleName</text>
</a>
</g>
<path d="M302 40h10"></path>
<g>
<path d="M312 40h0"></path>
<path d="M524 40h0"></path>
<path d="M312 40a10 10 0 0 0 10 -10v0a10 10 0 0 1 10 -10"></path>
<g>
<path d="M332 20h172"></path>
</g>
<path d="M504 20a10 10 0 0 1 10 10v0a10 10 0 0 0 10 10"></path>
<path d="M312 40h20"></path>
<g>
<path d="M332 40h0"></path>
<path d="M504 40h0"></path>
<g class="terminal">
<path d="M332 40h0"></path>
<path d="M416 40h0"></path>
<rect x="332" y="29" width="84" height="22" rx="10" ry="10"></rect>
<text x="374" y="44">"SUBKEY"</text>
</g>
<path d="M416 40h10"></path>
<path d="M426 40h10"></path>
<g class="non-terminal">
<path d="M436 40h0"></path>
<path d="M504 40h0"></path>
<rect x="436" y="29" width="68" height="22"></rect>
<a xlink:href="reuse_source.svg"><text x="470" y="44">Source</text>
</a>
</g>
</g>
<path d="M504 40h20"></path>
</g>
<g>
<path d="M524 40h0"></path>
<path d="M756 40h0"></path>
<path d="M524 40a10 10 0 0 0 10 -10v0a10 10 0 0 1 10 -10"></path>
<g>
<path d="M544 20h192"></path>
</g>
<path d="M736 20a10 10 0 0 1 10 10v0a10 10 0 0 0 10 10"></path>
<path d="M524 40h20"></path>
<g>
<path d="M544 40h0"></path>
<path d="M736 40h0"></path>
<g class="terminal">
<path d="M544 40h0"></path>
<path d="M628 40h0"></path>
<rect x="544" y="29" width="84" height="22" rx="10" ry="10"></rect>
<text x="586" y="44">"FIELDS"</text>
</g>
<path d="M628 40h10"></path>
<path d="M638 40h10"></path>
<g>
<path d="M648 40h0"></path>
<path d="M736 40h0"></path>
<path d="M648 40h10"></path>
<g class="non-terminal">
<path d="M658 40h0"></path>
<path d="M726 40h0"></path>
<rect x="658" y="29" width="68" height="22"></rect>
<a xlink:href="reuse_source.svg"><text x="692" y="44">Source</text>
</a>
</g>
<path d="M726 40h10"></path>
<path d="M658 40a10 10 0 0 0 -10 10v0a10 10 0 0 0 10 10"></path>
<g>
<path d="M658 60h68"></path>
</g>
<path d="M726 60a10 10 0 0 0 10 -10v0a10 10 0 0 0 -10 -10"></path>
</g>
</g>
<path d="M736 40h20"></path>
</g>
</g>
<path d="M756 40h10"></path>
<path d="M 766 40 h 20 m -10 -10 v 20 m 10 -20 v 20"></path>
</g>
</svg>
