<svg xmlns="http://www.w3.org/2000/svg" xmlns:xlink="http://www.w3.org/1999/xlink" class="railroad-diagram" width="1248" height="297" viewBox="0 0 1248 297">
<defs>
<style type="text/css"><![CDATA[
path {
stroke-width: 3;
stroke: black;
fill: rgba(0,0,0,0);
}
text {
font: bold 14px monospace;
text-anchor: middle;
}
text.diagram-text {
font-size: 12px;
}
a {
fill: blue;
}
text.diagram-arrow {
font-size: 16px;
}
text.label {
text-anchor: start;
}
text.comment {
font: italic 12px monospace;
}
rect {
stroke-width: 3;
stroke: black;
fill: #BCBCBC;
}
path.diagram-text {
stroke-width: 3;
stroke: black;
fill: #BCBCBC;
cursor: help;
}
]]></style>
</defs>
<g transform="translate(.5 .5)">
<path d="M 20 46 v 20 m 10 -20 v 20 m -10 -10 h 20.5"></path>
<path d="M40 56h10"></path>
<g>
<path d="M50 56h0"></path>
<path d="M1198 56h0"></path>
<g class="terminal">
<path d="M50 56h0"></path>
<path d="M118 56h0"></path>
<rect x="50" y="45" width="68" height="22" rx="10" ry="10"></rect>
<text x="84" y="60">"LOOP"</text>
</g>
<path d="M118 56h10"></path>
<g>
<path d="M128 56h0"></path>
<path d="M1198 56h0"></path>
<path d="M128 56a10 10 0 0 0 10 -10v-16a10 10 0 0 1 10 -10"></path>
<g>
<path d="M148 20h1030"></path>
</g>
<path d="M1178 20a10 10 0 0 1 10 10v16a10 10 0 0 0 10 10"></path>
<path d="M128 56h20"></path>
<g>
<path d="M148 56h0"></path>
<path d="M1178 56h0"></path>
<g class="terminal">
<path d="M148 56h0"></path>
<path d="M200 56h0"></path>
<rect x="148" y="45" width="52" height="22" rx="10" ry="10"></rect>
<text x="174" y="60">"AT"</text>
</g>
<path d="M200 56h10"></path>
<path d="M210 56h10"></path>
<g class="non-terminal">
<path d="M220 56h0"></path>
<path d="M288 56h0"></path>
<rect x="220" y="45" width="68" height="22"></rect>
<a xlink:href="reuse_source.svg"><text x="254" y="60">Source</text>
</a>
</g>
<path d="M288 56h10"></path>
<g>
<path d="M298 56h0"></path>
<path d="M1178 56h0"></path>
<path d="M298 56a10 10 0 0 0 10 -10v-8a10 10 0 0 1 10 -10"></path>
<g>
<path d="M318 28h840"></path>
</g>
<path d="M1158 28a10 10 0 0 1 10 10v8a10 10 0 0 0 10 10"></path>
<path d="M298 56h20"></path>
<g>
<path d="M318 56h0"></path>
<path d="M1158 56h0"></path>
<path d="M348 56h10"></path>
<g>
<path d="M358 56h0"></path>
<path d="M1128 56h0"></path>
<path d="M358 56h20"></path>
<g>
<path d="M378 56h0"></path>
<path d="M1108 56h0"></path>
<g>
<path d="M378 56h0"></path>
<path d="M644 56h0"></path>
<path d="M378 56h20"></path>
<g>
<path d="M398 56h0"></path>
<path d="M624 56h0"></path>
<g>
<path d="M398 56h0"></path>
<path d="M546 56h0"></path>
<path d="M398 56a10 10 0 0 0 10 -10v0a10 10 0 0 1 10 -10"></path>
<g>
<path d="M418 36h108"></path>
</g>
<path d="M526 36a10 10 0 0 1 10 10v0a10 10 0 0 0 10 10"></path>
<path d="M398 56h20"></path>
<g class="terminal">
<path d="M418 56h0"></path>
<path d="M526 56h0"></path>
<rect x="418" y="45" width="108" height="22" rx="10" ry="10"></rect>
<text x="472" y="60">"REFERENCE"</text>
</g>
<path d="M526 56h20"></path>
</g>
<path d="M546 56h10"></path>
<g class="terminal">
<path d="M556 56h0"></path>
<path d="M624 56h0"></path>
<rect x="556" y="45" width="68" height="22" rx="10" ry="10"></rect>
<text x="590" y="60">"INTO"</text>
</g>
</g>
<path d="M624 56h20"></path>
<path d="M378 56a10 10 0 0 1 10 10v10a10 10 0 0 0 10 10"></path>
<g class="terminal">
<path d="M398 86h0"></path>
<path d="M506 86h118"></path>
<rect x="398" y="75" width="108" height="22" rx="10" ry="10"></rect>
<text x="452" y="90">"ASSIGNING"</text>
</g>
<path d="M624 86a10 10 0 0 0 10 -10v-10a10 10 0 0 1 10 -10"></path>
</g>
<path d="M644 56h10"></path>
<g class="non-terminal">
<path d="M654 56h0"></path>
<path d="M722 56h0"></path>
<rect x="654" y="45" width="68" height="22"></rect>
<a xlink:href="reuse_target.svg"><text x="688" y="60">Target</text>
</a>
</g>
<path d="M722 56h10"></path>
<g>
<path d="M732 56h0"></path>
<path d="M976 56h0"></path>
<path d="M732 56a10 10 0 0 0 10 -10v0a10 10 0 0 1 10 -10"></path>
<g>
<path d="M752 36h204"></path>
</g>
<path d="M956 36a10 10 0 0 1 10 10v0a10 10 0 0 0 10 10"></path>
<path d="M732 56h20"></path>
<g>
<path d="M752 56h0"></path>
<path d="M956 56h0"></path>
<g class="terminal">
<path d="M752 56h0"></path>
<path d="M852 56h0"></path>
<rect x="752" y="45" width="100" height="22" rx="10" ry="10"></rect>
<text x="802" y="60">"GROUP BY"</text>
</g>
<path d="M852 56h10"></path>
<path d="M862 56h10"></path>
<g class="non-terminal">
<path d="M872 56h0"></path>
<path d="M956 56h0"></path>
<rect x="872" y="45" width="84" height="22"></rect>
<a xlink:href="reuse_fieldsub.svg"><text x="914" y="60">FieldSub</text>
</a>
</g>
</g>
<path d="M956 56h20"></path>
</g>
<g>
<path d="M976 56h0"></path>
<path d="M1108 56h0"></path>
<path d="M976 56a10 10 0 0 0 10 -10v0a10 10 0 0 1 10 -10"></path>
<g>
<path d="M996 36h92"></path>
</g>
<path d="M1088 36a10 10 0 0 1 10 10v0a10 10 0 0 0 10 10"></path>
<path d="M976 56h20"></path>
<g class="terminal">
<path d="M996 56h0"></path>
<path d="M1088 56h0"></path>
<rect x="996" y="45" width="92" height="22" rx="10" ry="10"></rect>
<text x="1042" y="60">"CASTING"</text>
</g>
<path d="M1088 56h20"></path>
</g>
</g>
<path d="M1108 56h20"></path>
<path d="M358 56a10 10 0 0 1 10 10v40a10 10 0 0 0 10 10"></path>
<g class="terminal">
<path d="M378 116h0"></path>
<path d="M590 116h518"></path>
<rect x="378" y="105" width="212" height="22" rx="10" ry="10"></rect>
<text x="484" y="120">"TRANSPORTING NO FIELDS"</text>
</g>
<path d="M1108 116a10 10 0 0 0 10 -10v-40a10 10 0 0 1 10 -10"></path>
</g>
<path d="M1128 56h10"></path>
<path d="M348 56v80a10 10 0 0 0 10 10"></path>
<g>
<path d="M358 146h0"></path>
<path d="M514 146h614"></path>
<g class="terminal">
<path d="M358 146h0"></path>
<path d="M426 146h0"></path>
<rect x="358" y="135" width="68" height="22" rx="10" ry="10"></rect>
<text x="392" y="150">"FROM"</text>
</g>
<path d="M426 146h10"></path>
<path d="M436 146h10"></path>
<g class="non-terminal">
<path d="M446 146h0"></path>
<path d="M514 146h0"></path>
<rect x="446" y="135" width="68" height="22"></rect>
<a xlink:href="reuse_source.svg"><text x="480" y="150">Source</text>
</a>
</g>
</g>
<path d="M1128 146a10 10 0 0 0 10 -10v-80"></path>
<path d="M348 56v110a10 10 0 0 0 10 10"></path>
<g>
<path d="M358 176h0"></path>
<path d="M498 176h630"></path>
<g class="terminal">
<path d="M358 176h0"></path>
<path d="M410 176h0"></path>
<rect x="358" y="165" width="52" height="22" rx="10" ry="10"></rect>
<text x="384" y="180">"TO"</text>
</g>
<path d="M410 176h10"></path>
<path d="M420 176h10"></path>
<g class="non-terminal">
<path d="M430 176h0"></path>
<path d="M498 176h0"></path>
<rect x="430" y="165" width="68" height="22"></rect>
<a xlink:href="reuse_source.svg"><text x="464" y="180">Source</text>
</a>
</g>
</g>
<path d="M1128 176a10 10 0 0 0 10 -10v-110"></path>
<path d="M348 56v140a10 10 0 0 0 10 10"></path>
<g>
<path d="M358 206h0"></path>
<path d="M560 206h568"></path>
<g class="terminal">
<path d="M358 206h0"></path>
<path d="M434 206h0"></path>
<rect x="358" y="195" width="76" height="22" rx="10" ry="10"></rect>
<text x="396" y="210">"WHERE"</text>
</g>
<path d="M434 206h10"></path>
<g>
<path d="M444 206h0"></path>
<path d="M560 206h0"></path>
<path d="M444 206h20"></path>
<g class="non-terminal">
<path d="M464 206h0"></path>
<path d="M516 206h24"></path>
<rect x="464" y="195" width="52" height="22"></rect>
<a xlink:href="reuse_cond.svg"><text x="490" y="210">Cond</text>
</a>
</g>
<path d="M540 206h20"></path>
<path d="M444 206a10 10 0 0 1 10 10v10a10 10 0 0 0 10 10"></path>
<g class="non-terminal">
<path d="M464 236h0"></path>
<path d="M540 236h0"></path>
<rect x="464" y="225" width="76" height="22"></rect>
<a xlink:href="reuse_dynamic.svg"><text x="502" y="240">Dynamic</text>
</a>
</g>
<path d="M540 236a10 10 0 0 0 10 -10v-10a10 10 0 0 1 10 -10"></path>
</g>
</g>
<path d="M1128 206a10 10 0 0 0 10 -10v-140"></path>
<path d="M348 56v200a10 10 0 0 0 10 10"></path>
<g>
<path d="M358 266h0"></path>
<path d="M554 266h574"></path>
<g class="terminal">
<path d="M358 266h0"></path>
<path d="M466 266h0"></path>
<rect x="358" y="255" width="108" height="22" rx="10" ry="10"></rect>
<text x="412" y="270">"USING KEY"</text>
</g>
<path d="M466 266h10"></path>
<path d="M476 266h10"></path>
<g class="non-terminal">
<path d="M486 266h0"></path>
<path d="M554 266h0"></path>
<rect x="486" y="255" width="68" height="22"></rect>
<a xlink:href="reuse_source.svg"><text x="520" y="270">Source</text>
</a>
</g>
</g>
<path d="M1128 266a10 10 0 0 0 10 -10v-200"></path>
<g class="diagram-text">
<title>take one or more branches, once each, in any order</title>
<path d="M 348 46 h -26 a 4 4 0 0 0 -4 4 v 12 a 4 4 0 0 0 4 4 h 26 z" class="diagram-text"></path>
<text x="333" y="60" class="diagram-text">1+</text>
<path d="M 1138 46 h 16 a 4 4 0 0 1 4 4 v 12 a 4 4 0 0 1 -4 4 h -16 z" class="diagram-text"></path>
<path d="M 1145 54 a 4 4 0 1 0 6 -1 m 2.75 -1 h -4 v 4 m 0 -3 h 2" style="stroke-width: 1.75"></path>
</g>
</g>
<path d="M1158 56h20"></path>
</g>
</g>
<path d="M1178 56h20"></path>
</g>
</g>
<path d="M1198 56h10"></path>
<path d="M 1208 56 h 20 m -10 -10 v 20 m 10 -20 v 20"></path>
</g>
</svg>
