<?xml version="1.0" encoding="UTF-8" standalone="no"?>
<!DOCTYPE svg PUBLIC "-//W3C//DTD SVG 1.1//EN"
 "http://www.w3.org/Graphics/SVG/1.1/DTD/svg11.dtd">
<!-- Generated by graphviz version 2.38.0 (20140413.2041)
 -->
<!-- Title: loop Pages: 1 -->
<svg width="732pt" height="1052pt"
 viewBox="0.00 0.00 732.00 1052.00" xmlns="http://www.w3.org/2000/svg" xmlns:xlink="http://www.w3.org/1999/xlink">
<g id="graph0" class="graph" transform="scale(1 1) rotate(0) translate(4 1048)">
<title>loop</title>
<polygon fill="white" stroke="none" points="-4,4 -4,-1048 728,-1048 728,4 -4,4"/>
<!-- start -->
<g id="node1" class="node"><title>start</title>
<polygon fill="none" stroke="black" points="455,-1044 401,-1044 401,-1008 455,-1008 455,-1044"/>
<text text-anchor="middle" x="428" y="-1021.8" font-family="Times,serif" font-size="14.00">Start</text>
</g>
<!-- node222 -->
<g id="node16" class="node"><title>node222</title>
<ellipse fill="none" stroke="black" cx="428" cy="-954" rx="59.3203" ry="18"/>
<text text-anchor="middle" x="428" y="-949.8" font-family="Times,serif" font-size="14.00">&quot;LOOP AT&quot;</text>
</g>
<!-- start&#45;&gt;node222 -->
<g id="edge38" class="edge"><title>start&#45;&gt;node222</title>
<path fill="none" stroke="black" d="M428,-1007.7C428,-999.983 428,-990.712 428,-982.112"/>
<polygon fill="black" stroke="black" points="431.5,-982.104 428,-972.104 424.5,-982.104 431.5,-982.104"/>
</g>
<!-- end -->
<g id="node2" class="node"><title>end</title>
<polygon fill="none" stroke="black" points="446,-36 392,-36 392,-0 446,-0 446,-36"/>
<text text-anchor="middle" x="419" y="-13.8" font-family="Times,serif" font-size="14.00">End</text>
</g>
<!-- node209 -->
<g id="node3" class="node"><title>node209</title>
<g id="a_node3"><a xlink:href="reuse_cond.svg" xlink:title="&lt;u&gt;cond&lt;/u&gt;">
<ellipse fill="none" stroke="black" cx="419" cy="-90" rx="29.6185" ry="18"/>
<text text-anchor="start" x="405.393" y="-86.8" font-family="Times,serif" text-decoration="underline" font-size="14.00" fill="blue">cond</text>
</a>
</g>
</g>
<!-- node209&#45;&gt;end -->
<g id="edge1" class="edge"><title>node209&#45;&gt;end</title>
<path fill="none" stroke="black" d="M419,-71.6966C419,-63.9827 419,-54.7125 419,-46.1124"/>
<polygon fill="black" stroke="black" points="422.5,-46.1043 419,-36.1043 415.5,-46.1044 422.5,-46.1043"/>
</g>
<!-- node210 -->
<g id="node4" class="node"><title>node210</title>
<ellipse fill="none" stroke="black" cx="419" cy="-162" rx="53.4816" ry="18"/>
<text text-anchor="middle" x="419" y="-157.8" font-family="Times,serif" font-size="14.00">&quot;WHERE&quot;</text>
</g>
<!-- node210&#45;&gt;node209 -->
<g id="edge2" class="edge"><title>node210&#45;&gt;node209</title>
<path fill="none" stroke="black" d="M419,-143.697C419,-135.983 419,-126.712 419,-118.112"/>
<polygon fill="black" stroke="black" points="422.5,-118.104 419,-108.104 415.5,-118.104 422.5,-118.104"/>
</g>
<!-- node211 -->
<g id="node5" class="node"><title>node211</title>
<g id="a_node5"><a xlink:href="reuse_source.svg" xlink:title="&lt;u&gt;source&lt;/u&gt;">
<ellipse fill="none" stroke="black" cx="280" cy="-234" rx="36.4761" ry="18"/>
<text text-anchor="start" x="261.733" y="-230.8" font-family="Times,serif" text-decoration="underline" font-size="14.00" fill="blue">source</text>
</a>
</g>
</g>
<!-- node211&#45;&gt;end -->
<g id="edge4" class="edge"><title>node211&#45;&gt;end</title>
<path fill="none" stroke="black" d="M289.8,-216.271C307.246,-186.711 345.138,-123.498 380,-72 386.148,-62.9182 393.169,-53.1946 399.545,-44.5877"/>
<polygon fill="black" stroke="black" points="402.467,-46.5241 405.648,-36.4182 396.859,-42.3345 402.467,-46.5241"/>
</g>
<!-- node211&#45;&gt;node210 -->
<g id="edge3" class="edge"><title>node211&#45;&gt;node210</title>
<path fill="none" stroke="black" d="M304.53,-220.647C325.816,-209.927 356.964,-194.241 381.396,-181.937"/>
<polygon fill="black" stroke="black" points="383.039,-185.028 390.397,-177.405 379.891,-178.776 383.039,-185.028"/>
</g>
<!-- node212 -->
<g id="node6" class="node"><title>node212</title>
<ellipse fill="none" stroke="black" cx="264" cy="-306" rx="31.5723" ry="18"/>
<text text-anchor="middle" x="264" y="-301.8" font-family="Times,serif" font-size="14.00">&quot;TO&quot;</text>
</g>
<!-- node212&#45;&gt;node211 -->
<g id="edge5" class="edge"><title>node212&#45;&gt;node211</title>
<path fill="none" stroke="black" d="M267.873,-288.055C269.655,-280.261 271.812,-270.822 273.811,-262.079"/>
<polygon fill="black" stroke="black" points="277.235,-262.804 276.051,-252.275 270.411,-261.244 277.235,-262.804"/>
</g>
<!-- node213 -->
<g id="node7" class="node"><title>node213</title>
<g id="a_node7"><a xlink:href="reuse_source.svg" xlink:title="&lt;u&gt;source&lt;/u&gt;">
<ellipse fill="none" stroke="black" cx="492" cy="-378" rx="36.4761" ry="18"/>
<text text-anchor="start" x="473.733" y="-374.8" font-family="Times,serif" text-decoration="underline" font-size="14.00" fill="blue">source</text>
</a>
</g>
</g>
<!-- node213&#45;&gt;end -->
<g id="edge8" class="edge"><title>node213&#45;&gt;end</title>
<path fill="none" stroke="black" d="M493.581,-359.968C495.912,-333.332 500,-280.186 500,-235 500,-235 500,-235 500,-161 500,-114.96 467.476,-70.2501 443.646,-43.6714"/>
<polygon fill="black" stroke="black" points="445.934,-40.9904 436.576,-36.0235 440.794,-45.7423 445.934,-40.9904"/>
</g>
<!-- node213&#45;&gt;node210 -->
<g id="edge7" class="edge"><title>node213&#45;&gt;node210</title>
<path fill="none" stroke="black" d="M486.272,-360.208C473.643,-323.186 443.321,-234.297 428.075,-189.604"/>
<polygon fill="black" stroke="black" points="431.344,-188.345 424.803,-180.01 424.719,-190.605 431.344,-188.345"/>
</g>
<!-- node213&#45;&gt;node212 -->
<g id="edge6" class="edge"><title>node213&#45;&gt;node212</title>
<path fill="none" stroke="black" d="M461.723,-367.705C420.168,-354.946 345.534,-332.032 300.804,-318.299"/>
<polygon fill="black" stroke="black" points="301.782,-314.939 291.195,-315.349 299.728,-321.63 301.782,-314.939"/>
</g>
<!-- node214 -->
<g id="node8" class="node"><title>node214</title>
<ellipse fill="none" stroke="black" cx="532" cy="-450" rx="46.0582" ry="18"/>
<text text-anchor="middle" x="532" y="-445.8" font-family="Times,serif" font-size="14.00">&quot;FROM&quot;</text>
</g>
<!-- node214&#45;&gt;node213 -->
<g id="edge9" class="edge"><title>node214&#45;&gt;node213</title>
<path fill="none" stroke="black" d="M522.317,-432.055C517.6,-423.801 511.829,-413.701 506.593,-404.538"/>
<polygon fill="black" stroke="black" points="509.594,-402.735 501.594,-395.789 503.516,-406.208 509.594,-402.735"/>
</g>
<!-- node215 -->
<g id="node9" class="node"><title>node215</title>
<ellipse fill="none" stroke="black" cx="248" cy="-522" rx="143.79" ry="18"/>
<text text-anchor="middle" x="248" y="-517.8" font-family="Times,serif" font-size="14.00">&quot;TRANSPORTING NO FIELDS&quot;</text>
</g>
<!-- node215&#45;&gt;end -->
<g id="edge13" class="edge"><title>node215&#45;&gt;end</title>
<path fill="none" stroke="black" d="M214.876,-504.391C175.195,-481.874 114,-437.641 114,-379 114,-379 114,-379 114,-161 114,-44.1706 300.194,-23.2181 381.625,-19.6412"/>
<polygon fill="black" stroke="black" points="382.07,-23.1271 391.933,-19.2574 381.81,-16.1319 382.07,-23.1271"/>
</g>
<!-- node215&#45;&gt;node210 -->
<g id="edge12" class="edge"><title>node215&#45;&gt;node210</title>
<path fill="none" stroke="black" d="M269.784,-503.826C298.108,-479.39 344,-431.672 344,-379 344,-379 344,-379 344,-305 344,-259.268 374.792,-213.842 396.916,-187.106"/>
<polygon fill="black" stroke="black" points="399.636,-189.31 403.46,-179.429 394.309,-184.768 399.636,-189.31"/>
</g>
<!-- node215&#45;&gt;node212 -->
<g id="edge11" class="edge"><title>node215&#45;&gt;node212</title>
<path fill="none" stroke="black" d="M249.282,-503.849C252.05,-466.832 258.603,-379.181 261.952,-334.386"/>
<polygon fill="black" stroke="black" points="265.456,-334.466 262.712,-324.232 258.476,-333.944 265.456,-334.466"/>
</g>
<!-- node215&#45;&gt;node214 -->
<g id="edge10" class="edge"><title>node215&#45;&gt;node214</title>
<path fill="none" stroke="black" d="M309.974,-505.725C362.39,-492.805 436.406,-474.562 484.301,-462.757"/>
<polygon fill="black" stroke="black" points="485.236,-466.131 494.108,-460.34 483.561,-459.335 485.236,-466.131"/>
</g>
<!-- node216 -->
<g id="node10" class="node"><title>node216</title>
<g id="a_node10"><a xlink:href="reuse_target.svg" xlink:title="&lt;u&gt;target&lt;/u&gt;">
<ellipse fill="none" stroke="black" cx="248" cy="-594" rx="33.0411" ry="18"/>
<text text-anchor="start" x="232.065" y="-590.8" font-family="Times,serif" text-decoration="underline" font-size="14.00" fill="blue">target</text>
</a>
</g>
</g>
<!-- node216&#45;&gt;end -->
<g id="edge18" class="edge"><title>node216&#45;&gt;end</title>
<path fill="none" stroke="black" d="M215.833,-589.598C148.73,-580.537 0,-549.36 0,-451 0,-451 0,-451 0,-161 0,-92.0753 63.3934,-98.5484 127,-72 213.613,-35.8489 324.813,-24.3103 381.754,-20.6616"/>
<polygon fill="black" stroke="black" points="381.962,-24.1555 391.736,-20.068 381.546,-17.1679 381.962,-24.1555"/>
</g>
<!-- node216&#45;&gt;node210 -->
<g id="edge17" class="edge"><title>node216&#45;&gt;node210</title>
<path fill="none" stroke="black" d="M280.61,-590.845C315.602,-586.725 370.282,-574.754 401,-540 427.786,-509.694 420,-491.447 420,-451 420,-451 420,-451 420,-305 420,-264.995 419.598,-218.652 419.304,-190.079"/>
<polygon fill="black" stroke="black" points="422.804,-190.011 419.198,-180.049 415.804,-190.086 422.804,-190.011"/>
</g>
<!-- node216&#45;&gt;node212 -->
<g id="edge16" class="edge"><title>node216&#45;&gt;node212</title>
<path fill="none" stroke="black" d="M214.927,-592.077C178.7,-589.081 122.144,-578.13 95,-540 85.7208,-526.966 89.4457,-519.005 95,-504 123.624,-426.671 197.673,-359.239 237.584,-327.064"/>
<polygon fill="black" stroke="black" points="239.894,-329.699 245.554,-320.742 235.544,-324.214 239.894,-329.699"/>
</g>
<!-- node216&#45;&gt;node214 -->
<g id="edge15" class="edge"><title>node216&#45;&gt;node214</title>
<path fill="none" stroke="black" d="M279.64,-588.523C318.073,-582.092 383.965,-567.82 434,-540 464.501,-523.041 493.297,-494.889 511.68,-474.788"/>
<polygon fill="black" stroke="black" points="514.364,-477.037 518.43,-467.254 509.15,-472.366 514.364,-477.037"/>
</g>
<!-- node216&#45;&gt;node215 -->
<g id="edge14" class="edge"><title>node216&#45;&gt;node215</title>
<path fill="none" stroke="black" d="M248,-575.697C248,-567.983 248,-558.712 248,-550.112"/>
<polygon fill="black" stroke="black" points="251.5,-550.104 248,-540.104 244.5,-550.104 251.5,-550.104"/>
</g>
<!-- node217 -->
<g id="node11" class="node"><title>node217</title>
<ellipse fill="none" stroke="black" cx="228" cy="-666" rx="41.9431" ry="18"/>
<text text-anchor="middle" x="228" y="-661.8" font-family="Times,serif" font-size="14.00">&quot;INTO&quot;</text>
</g>
<!-- node217&#45;&gt;node216 -->
<g id="edge19" class="edge"><title>node217&#45;&gt;node216</title>
<path fill="none" stroke="black" d="M232.841,-648.055C235.068,-640.261 237.765,-630.822 240.263,-622.079"/>
<polygon fill="black" stroke="black" points="243.682,-622.852 243.064,-612.275 236.952,-620.929 243.682,-622.852"/>
</g>
<!-- node218 -->
<g id="node12" class="node"><title>node218</title>
<ellipse fill="none" stroke="black" cx="359" cy="-666" rx="70.8752" ry="18"/>
<text text-anchor="middle" x="359" y="-661.8" font-family="Times,serif" font-size="14.00">&quot;ASSIGNING&quot;</text>
</g>
<!-- node218&#45;&gt;node216 -->
<g id="edge20" class="edge"><title>node218&#45;&gt;node216</title>
<path fill="none" stroke="black" d="M333.812,-649.116C317.145,-638.605 295.216,-624.776 277.698,-613.728"/>
<polygon fill="black" stroke="black" points="279.316,-610.611 268.99,-608.237 275.582,-616.532 279.316,-610.611"/>
</g>
<!-- node219 -->
<g id="node13" class="node"><title>node219</title>
<g id="a_node13"><a xlink:href="reuse_integer.svg" xlink:title="&lt;u&gt;integer&lt;/u&gt;">
<ellipse fill="none" stroke="black" cx="488" cy="-738" rx="37.6986" ry="18"/>
<text text-anchor="start" x="468.565" y="-734.8" font-family="Times,serif" text-decoration="underline" font-size="14.00" fill="blue">integer</text>
</a>
</g>
</g>
<!-- node219&#45;&gt;end -->
<g id="edge27" class="edge"><title>node219&#45;&gt;end</title>
<path fill="none" stroke="black" d="M508.74,-722.93C522.185,-713.108 539.464,-699.093 552,-684 623.562,-597.843 648,-563.001 648,-451 648,-451 648,-451 648,-377 648,-224.539 596.002,-182.539 491,-72 480.23,-60.662 466.785,-50.0393 454.44,-41.325"/>
<polygon fill="black" stroke="black" points="456.34,-38.3843 446.114,-35.6116 452.379,-44.1559 456.34,-38.3843"/>
</g>
<!-- node219&#45;&gt;node210 -->
<g id="edge26" class="edge"><title>node219&#45;&gt;node210</title>
<path fill="none" stroke="black" d="M501.999,-721.18C510.396,-711.081 520.806,-697.409 528,-684 579.903,-587.263 610,-560.781 610,-451 610,-451 610,-451 610,-305 610,-235.032 526.433,-195.497 469.85,-176.748"/>
<polygon fill="black" stroke="black" points="470.565,-173.302 459.974,-173.593 468.435,-179.97 470.565,-173.302"/>
</g>
<!-- node219&#45;&gt;node212 -->
<g id="edge25" class="edge"><title>node219&#45;&gt;node212</title>
<path fill="none" stroke="black" d="M484.759,-720.004C481.084,-701.895 474.485,-672.517 466,-648 443.036,-581.643 435.636,-565.081 401,-504 363.714,-438.245 310.456,-366.732 282.6,-330.658"/>
<polygon fill="black" stroke="black" points="285.309,-328.44 276.412,-322.687 279.78,-332.733 285.309,-328.44"/>
</g>
<!-- node219&#45;&gt;node214 -->
<g id="edge24" class="edge"><title>node219&#45;&gt;node214</title>
<path fill="none" stroke="black" d="M496.47,-720.255C501.249,-710.039 506.874,-696.568 510,-684 528.083,-611.301 531.531,-522.461 532.044,-478.439"/>
<polygon fill="black" stroke="black" points="535.545,-478.275 532.118,-468.25 528.545,-478.224 535.545,-478.275"/>
</g>
<!-- node219&#45;&gt;node215 -->
<g id="edge23" class="edge"><title>node219&#45;&gt;node215</title>
<path fill="none" stroke="black" d="M481.61,-720.043C473.772,-700.898 459.02,-669.607 439,-648 396.681,-602.326 334.363,-565.632 292.534,-544.099"/>
<polygon fill="black" stroke="black" points="293.915,-540.875 283.413,-539.476 290.751,-547.118 293.915,-540.875"/>
</g>
<!-- node219&#45;&gt;node217 -->
<g id="edge21" class="edge"><title>node219&#45;&gt;node217</title>
<path fill="none" stroke="black" d="M454.494,-729.305C413.044,-719.601 340.428,-702 279,-684 275.865,-683.081 272.634,-682.096 269.392,-681.08"/>
<polygon fill="black" stroke="black" points="270.308,-677.698 259.717,-677.972 268.168,-684.363 270.308,-677.698"/>
</g>
<!-- node219&#45;&gt;node218 -->
<g id="edge22" class="edge"><title>node219&#45;&gt;node218</title>
<path fill="none" stroke="black" d="M464.038,-723.998C445.167,-713.757 418.509,-699.292 396.772,-687.497"/>
<polygon fill="black" stroke="black" points="398.253,-684.318 387.795,-682.625 394.915,-690.471 398.253,-684.318"/>
</g>
<!-- node220 -->
<g id="node14" class="node"><title>node220</title>
<ellipse fill="none" stroke="black" cx="457" cy="-810" rx="46.0582" ry="18"/>
<text text-anchor="middle" x="457" y="-805.8" font-family="Times,serif" font-size="14.00">&quot;FROM&quot;</text>
</g>
<!-- node220&#45;&gt;node219 -->
<g id="edge28" class="edge"><title>node220&#45;&gt;node219</title>
<path fill="none" stroke="black" d="M464.504,-792.055C468.084,-783.973 472.446,-774.121 476.436,-765.112"/>
<polygon fill="black" stroke="black" points="479.716,-766.35 480.565,-755.789 473.315,-763.515 479.716,-766.35"/>
</g>
<!-- node221 -->
<g id="node15" class="node"><title>node221</title>
<g id="a_node15"><a xlink:href="reuse_source.svg" xlink:title="&lt;u&gt;source&lt;/u&gt;">
<ellipse fill="none" stroke="black" cx="428" cy="-882" rx="36.4761" ry="18"/>
<text text-anchor="start" x="409.733" y="-878.8" font-family="Times,serif" text-decoration="underline" font-size="14.00" fill="blue">source</text>
</a>
</g>
</g>
<!-- node221&#45;&gt;end -->
<g id="edge36" class="edge"><title>node221&#45;&gt;end</title>
<path fill="none" stroke="black" d="M464.295,-879.952C543.336,-875.542 724,-852.993 724,-739 724,-739 724,-739 724,-161 724,-44.1706 537.806,-23.2181 456.375,-19.6412"/>
<polygon fill="black" stroke="black" points="456.19,-16.1319 446.067,-19.2574 455.93,-23.1271 456.19,-16.1319"/>
</g>
<!-- node221&#45;&gt;node210 -->
<g id="edge35" class="edge"><title>node221&#45;&gt;node210</title>
<path fill="none" stroke="black" d="M463.333,-877.835C533.993,-869.364 686,-839.466 686,-739 686,-739 686,-739 686,-377 686,-292.765 652.485,-267.722 586,-216 554.752,-191.691 512.112,-178.4 477.74,-171.208"/>
<polygon fill="black" stroke="black" points="478.31,-167.753 467.822,-169.251 476.955,-174.62 478.31,-167.753"/>
</g>
<!-- node221&#45;&gt;node212 -->
<g id="edge34" class="edge"><title>node221&#45;&gt;node212</title>
<path fill="none" stroke="black" d="M393.732,-876.065C298.565,-861.407 38,-814.389 38,-739 38,-739 38,-739 38,-449 38,-362.349 158.585,-326.521 223.592,-313.502"/>
<polygon fill="black" stroke="black" points="224.356,-316.92 233.521,-311.605 223.041,-310.044 224.356,-316.92"/>
</g>
<!-- node221&#45;&gt;node214 -->
<g id="edge33" class="edge"><title>node221&#45;&gt;node214</title>
<path fill="none" stroke="black" d="M461.893,-875.276C523.605,-862.705 648,-826.51 648,-739 648,-739 648,-739 648,-665 648,-587.994 589.229,-512.19 555.352,-474.892"/>
<polygon fill="black" stroke="black" points="557.496,-472.057 548.129,-467.106 552.365,-476.817 557.496,-472.057"/>
</g>
<!-- node221&#45;&gt;node215 -->
<g id="edge32" class="edge"><title>node221&#45;&gt;node215</title>
<path fill="none" stroke="black" d="M392.425,-878.557C319.108,-871.393 158,-843.733 158,-739 158,-739 158,-739 158,-665 158,-617.714 194.044,-573.408 220.512,-547.247"/>
<polygon fill="black" stroke="black" points="223.228,-549.492 228.026,-540.045 218.385,-544.438 223.228,-549.492"/>
</g>
<!-- node221&#45;&gt;node217 -->
<g id="edge30" class="edge"><title>node221&#45;&gt;node217</title>
<path fill="none" stroke="black" d="M413.294,-865.264C378.487,-828.022 290.914,-734.318 249.869,-690.399"/>
<polygon fill="black" stroke="black" points="252.385,-687.966 243,-683.05 247.271,-692.746 252.385,-687.966"/>
</g>
<!-- node221&#45;&gt;node218 -->
<g id="edge31" class="edge"><title>node221&#45;&gt;node218</title>
<path fill="none" stroke="black" d="M418.702,-864.188C413.307,-853.949 406.675,-840.476 402,-828 384.853,-782.241 371.614,-726.778 364.59,-694.336"/>
<polygon fill="black" stroke="black" points="367.952,-693.317 362.45,-684.263 361.105,-694.772 367.952,-693.317"/>
</g>
<!-- node221&#45;&gt;node220 -->
<g id="edge29" class="edge"><title>node221&#45;&gt;node220</title>
<path fill="none" stroke="black" d="M435.02,-864.055C438.284,-856.176 442.245,-846.617 445.9,-837.794"/>
<polygon fill="black" stroke="black" points="449.249,-838.853 449.843,-828.275 442.782,-836.174 449.249,-838.853"/>
</g>
<!-- node222&#45;&gt;node221 -->
<g id="edge37" class="edge"><title>node222&#45;&gt;node221</title>
<path fill="none" stroke="black" d="M428,-935.697C428,-927.983 428,-918.712 428,-910.112"/>
<polygon fill="black" stroke="black" points="431.5,-910.104 428,-900.104 424.5,-910.104 431.5,-910.104"/>
</g>
</g>
</svg>
