<svg xmlns="http://www.w3.org/2000/svg" xmlns:xlink="http://www.w3.org/1999/xlink" class="railroad-diagram" width="1348" height="297" viewBox="0 0 1348 297">
<defs>
<style type="text/css"><![CDATA[
path {
stroke-width: 3;
stroke: black;
fill: rgba(0,0,0,0);
}
text {
font: bold 14px monospace;
text-anchor: middle;
}
text.diagram-text {
font-size: 12px;
}
a {
fill: blue;
}
text.diagram-arrow {
font-size: 16px;
}
text.label {
text-anchor: start;
}
text.comment {
font: italic 12px monospace;
}
rect {
stroke-width: 3;
stroke: black;
fill: #BCBCBC;
}
path.diagram-text {
stroke-width: 3;
stroke: black;
fill: #BCBCBC;
cursor: help;
}
]]></style>
</defs>
<g transform="translate(.5 .5)">
<path d="M 20 46 v 20 m 10 -20 v 20 m -10 -10 h 20.5"></path>
<path d="M40 56h10"></path>
<g>
<path d="M50 56h0"></path>
<path d="M1298 56h0"></path>
<g class="terminal">
<path d="M50 56h0"></path>
<path d="M118 56h0"></path>
<rect x="50" y="45" width="68" height="22" rx="10" ry="10"></rect>
<text x="84" y="60">"LOOP"</text>
</g>
<path d="M118 56h10"></path>
<g>
<path d="M128 56h0"></path>
<path d="M1298 56h0"></path>
<path d="M128 56a10 10 0 0 0 10 -10v-16a10 10 0 0 1 10 -10"></path>
<g>
<path d="M148 20h1130"></path>
</g>
<path d="M1278 20a10 10 0 0 1 10 10v16a10 10 0 0 0 10 10"></path>
<path d="M128 56h20"></path>
<g>
<path d="M148 56h0"></path>
<path d="M1278 56h0"></path>
<g class="terminal">
<path d="M148 56h0"></path>
<path d="M200 56h0"></path>
<rect x="148" y="45" width="52" height="22" rx="10" ry="10"></rect>
<text x="174" y="60">"AT"</text>
</g>
<path d="M200 56h10"></path>
<g>
<path d="M210 56h0"></path>
<path d="M326 56h0"></path>
<path d="M210 56a10 10 0 0 0 10 -10v0a10 10 0 0 1 10 -10"></path>
<g>
<path d="M230 36h76"></path>
</g>
<path d="M306 36a10 10 0 0 1 10 10v0a10 10 0 0 0 10 10"></path>
<path d="M210 56h20"></path>
<g class="terminal">
<path d="M230 56h0"></path>
<path d="M306 56h0"></path>
<rect x="230" y="45" width="76" height="22" rx="10" ry="10"></rect>
<text x="268" y="60">"GROUP"</text>
</g>
<path d="M306 56h20"></path>
</g>
<path d="M326 56h10"></path>
<g class="non-terminal">
<path d="M336 56h0"></path>
<path d="M404 56h0"></path>
<rect x="336" y="45" width="68" height="22"></rect>
<a xlink:href="reuse_source.svg"><text x="370" y="60">Source</text>
</a>
</g>
<path d="M404 56h10"></path>
<g>
<path d="M414 56h0"></path>
<path d="M1278 56h0"></path>
<path d="M414 56a10 10 0 0 0 10 -10v-8a10 10 0 0 1 10 -10"></path>
<g>
<path d="M434 28h824"></path>
</g>
<path d="M1258 28a10 10 0 0 1 10 10v8a10 10 0 0 0 10 10"></path>
<path d="M414 56h20"></path>
<g>
<path d="M434 56h0"></path>
<path d="M1258 56h0"></path>
<path d="M464 56h10"></path>
<g>
<path d="M474 56h0"></path>
<path d="M1228 56h0"></path>
<path d="M474 56h20"></path>
<g>
<path d="M494 56h0"></path>
<path d="M1208 56h0"></path>
<g>
<path d="M494 56h0"></path>
<path d="M760 56h0"></path>
<path d="M494 56h20"></path>
<g>
<path d="M514 56h0"></path>
<path d="M740 56h0"></path>
<g>
<path d="M514 56h0"></path>
<path d="M662 56h0"></path>
<path d="M514 56a10 10 0 0 0 10 -10v0a10 10 0 0 1 10 -10"></path>
<g>
<path d="M534 36h108"></path>
</g>
<path d="M642 36a10 10 0 0 1 10 10v0a10 10 0 0 0 10 10"></path>
<path d="M514 56h20"></path>
<g class="terminal">
<path d="M534 56h0"></path>
<path d="M642 56h0"></path>
<rect x="534" y="45" width="108" height="22" rx="10" ry="10"></rect>
<text x="588" y="60">"REFERENCE"</text>
</g>
<path d="M642 56h20"></path>
</g>
<path d="M662 56h10"></path>
<g class="terminal">
<path d="M672 56h0"></path>
<path d="M740 56h0"></path>
<rect x="672" y="45" width="68" height="22" rx="10" ry="10"></rect>
<text x="706" y="60">"INTO"</text>
</g>
</g>
<path d="M740 56h20"></path>
<path d="M494 56a10 10 0 0 1 10 10v10a10 10 0 0 0 10 10"></path>
<g class="terminal">
<path d="M514 86h0"></path>
<path d="M622 86h118"></path>
<rect x="514" y="75" width="108" height="22" rx="10" ry="10"></rect>
<text x="568" y="90">"ASSIGNING"</text>
</g>
<path d="M740 86a10 10 0 0 0 10 -10v-10a10 10 0 0 1 10 -10"></path>
</g>
<path d="M760 56h10"></path>
<g class="non-terminal">
<path d="M770 56h0"></path>
<path d="M838 56h0"></path>
<rect x="770" y="45" width="68" height="22"></rect>
<a xlink:href="reuse_target.svg"><text x="804" y="60">Target</text>
</a>
</g>
<path d="M838 56h10"></path>
<g>
<path d="M848 56h0"></path>
<path d="M1076 56h0"></path>
<path d="M848 56a10 10 0 0 0 10 -10v0a10 10 0 0 1 10 -10"></path>
<g>
<path d="M868 36h188"></path>
</g>
<path d="M1056 36a10 10 0 0 1 10 10v0a10 10 0 0 0 10 10"></path>
<path d="M848 56h20"></path>
<g>
<path d="M868 56h0"></path>
<path d="M1056 56h0"></path>
<g class="terminal">
<path d="M868 56h0"></path>
<path d="M968 56h0"></path>
<rect x="868" y="45" width="100" height="22" rx="10" ry="10"></rect>
<text x="918" y="60">"GROUP BY"</text>
</g>
<path d="M968 56h10"></path>
<path d="M978 56h10"></path>
<g class="non-terminal">
<path d="M988 56h0"></path>
<path d="M1056 56h0"></path>
<rect x="988" y="45" width="68" height="22"></rect>
<a xlink:href="reuse_source.svg"><text x="1022" y="60">Source</text>
</a>
</g>
</g>
<path d="M1056 56h20"></path>
</g>
<g>
<path d="M1076 56h0"></path>
<path d="M1208 56h0"></path>
<path d="M1076 56a10 10 0 0 0 10 -10v0a10 10 0 0 1 10 -10"></path>
<g>
<path d="M1096 36h92"></path>
</g>
<path d="M1188 36a10 10 0 0 1 10 10v0a10 10 0 0 0 10 10"></path>
<path d="M1076 56h20"></path>
<g class="terminal">
<path d="M1096 56h0"></path>
<path d="M1188 56h0"></path>
<rect x="1096" y="45" width="92" height="22" rx="10" ry="10"></rect>
<text x="1142" y="60">"CASTING"</text>
</g>
<path d="M1188 56h20"></path>
</g>
</g>
<path d="M1208 56h20"></path>
<path d="M474 56a10 10 0 0 1 10 10v40a10 10 0 0 0 10 10"></path>
<g class="terminal">
<path d="M494 116h0"></path>
<path d="M706 116h502"></path>
<rect x="494" y="105" width="212" height="22" rx="10" ry="10"></rect>
<text x="600" y="120">"TRANSPORTING NO FIELDS"</text>
</g>
<path d="M1208 116a10 10 0 0 0 10 -10v-40a10 10 0 0 1 10 -10"></path>
</g>
<path d="M1228 56h10"></path>
<path d="M464 56v80a10 10 0 0 0 10 10"></path>
<g>
<path d="M474 146h0"></path>
<path d="M630 146h598"></path>
<g class="terminal">
<path d="M474 146h0"></path>
<path d="M542 146h0"></path>
<rect x="474" y="135" width="68" height="22" rx="10" ry="10"></rect>
<text x="508" y="150">"FROM"</text>
</g>
<path d="M542 146h10"></path>
<path d="M552 146h10"></path>
<g class="non-terminal">
<path d="M562 146h0"></path>
<path d="M630 146h0"></path>
<rect x="562" y="135" width="68" height="22"></rect>
<a xlink:href="reuse_source.svg"><text x="596" y="150">Source</text>
</a>
</g>
</g>
<path d="M1228 146a10 10 0 0 0 10 -10v-80"></path>
<path d="M464 56v110a10 10 0 0 0 10 10"></path>
<g>
<path d="M474 176h0"></path>
<path d="M614 176h614"></path>
<g class="terminal">
<path d="M474 176h0"></path>
<path d="M526 176h0"></path>
<rect x="474" y="165" width="52" height="22" rx="10" ry="10"></rect>
<text x="500" y="180">"TO"</text>
</g>
<path d="M526 176h10"></path>
<path d="M536 176h10"></path>
<g class="non-terminal">
<path d="M546 176h0"></path>
<path d="M614 176h0"></path>
<rect x="546" y="165" width="68" height="22"></rect>
<a xlink:href="reuse_source.svg"><text x="580" y="180">Source</text>
</a>
</g>
</g>
<path d="M1228 176a10 10 0 0 0 10 -10v-110"></path>
<path d="M464 56v140a10 10 0 0 0 10 10"></path>
<g>
<path d="M474 206h0"></path>
<path d="M676 206h552"></path>
<g class="terminal">
<path d="M474 206h0"></path>
<path d="M550 206h0"></path>
<rect x="474" y="195" width="76" height="22" rx="10" ry="10"></rect>
<text x="512" y="210">"WHERE"</text>
</g>
<path d="M550 206h10"></path>
<g>
<path d="M560 206h0"></path>
<path d="M676 206h0"></path>
<path d="M560 206h20"></path>
<g class="non-terminal">
<path d="M580 206h0"></path>
<path d="M632 206h24"></path>
<rect x="580" y="195" width="52" height="22"></rect>
<a xlink:href="reuse_cond.svg"><text x="606" y="210">Cond</text>
</a>
</g>
<path d="M656 206h20"></path>
<path d="M560 206a10 10 0 0 1 10 10v10a10 10 0 0 0 10 10"></path>
<g class="non-terminal">
<path d="M580 236h0"></path>
<path d="M656 236h0"></path>
<rect x="580" y="225" width="76" height="22"></rect>
<a xlink:href="reuse_dynamic.svg"><text x="618" y="240">Dynamic</text>
</a>
</g>
<path d="M656 236a10 10 0 0 0 10 -10v-10a10 10 0 0 1 10 -10"></path>
</g>
</g>
<path d="M1228 206a10 10 0 0 0 10 -10v-140"></path>
<path d="M464 56v200a10 10 0 0 0 10 10"></path>
<g>
<path d="M474 266h0"></path>
<path d="M670 266h558"></path>
<g class="terminal">
<path d="M474 266h0"></path>
<path d="M582 266h0"></path>
<rect x="474" y="255" width="108" height="22" rx="10" ry="10"></rect>
<text x="528" y="270">"USING KEY"</text>
</g>
<path d="M582 266h10"></path>
<path d="M592 266h10"></path>
<g class="non-terminal">
<path d="M602 266h0"></path>
<path d="M670 266h0"></path>
<rect x="602" y="255" width="68" height="22"></rect>
<a xlink:href="reuse_source.svg"><text x="636" y="270">Source</text>
</a>
</g>
</g>
<path d="M1228 266a10 10 0 0 0 10 -10v-200"></path>
<g class="diagram-text">
<title>take one or more branches, once each, in any order</title>
<path d="M 464 46 h -26 a 4 4 0 0 0 -4 4 v 12 a 4 4 0 0 0 4 4 h 26 z" class="diagram-text"></path>
<text x="449" y="60" class="diagram-text">1+</text>
<path d="M 1238 46 h 16 a 4 4 0 0 1 4 4 v 12 a 4 4 0 0 1 -4 4 h -16 z" class="diagram-text"></path>
<path d="M 1245 54 a 4 4 0 1 0 6 -1 m 2.75 -1 h -4 v 4 m 0 -3 h 2" style="stroke-width: 1.75"></path>
</g>
</g>
<path d="M1258 56h20"></path>
</g>
</g>
<path d="M1278 56h20"></path>
</g>
</g>
<path d="M1298 56h10"></path>
<path d="M 1308 56 h 20 m -10 -10 v 20 m 10 -20 v 20"></path>
</g>
</svg>
