<svg xmlns="http://www.w3.org/2000/svg" xmlns:xlink="http://www.w3.org/1999/xlink" class="railroad-diagram" width="784" height="259" viewBox="0 0 784 259">
<defs>
<style type="text/css"><![CDATA[
path {
stroke-width: 3;
stroke: black;
fill: rgba(0,0,0,0);
}
text {
font: bold 14px monospace;
text-anchor: middle;
}
text.diagram-text {
font-size: 12px;
}
a {
fill: blue;
}
text.diagram-arrow {
font-size: 16px;
}
text.label {
text-anchor: start;
}
text.comment {
font: italic 12px monospace;
}
rect {
stroke-width: 3;
stroke: black;
fill: #BCBCBC;
}
path.diagram-text {
stroke-width: 3;
stroke: black;
fill: #BCBCBC;
cursor: help;
}
]]></style>
</defs>
<g transform="translate(.5 .5)">
<path d="M 20 38 v 20 m 10 -20 v 20 m -10 -10 h 20.5"></path>
<path d="M40 48h10"></path>
<g>
<path d="M50 48h0"></path>
<path d="M734 48h0"></path>
<g class="terminal">
<path d="M50 48h0"></path>
<path d="M142 48h0"></path>
<rect x="50" y="37" width="92" height="22" rx="10" ry="10"></rect>
<text x="96" y="52">"LOOP AT"</text>
</g>
<path d="M142 48h10"></path>
<path d="M152 48h10"></path>
<g class="non-terminal">
<path d="M162 48h0"></path>
<path d="M230 48h0"></path>
<rect x="162" y="37" width="68" height="22"></rect>
<a xlink:href="reuse_Source.svg"><text x="196" y="52">Source</text>
</a>
</g>
<path d="M230 48h10"></path>
<g>
<path d="M240 48h0"></path>
<path d="M734 48h0"></path>
<path d="M240 48a10 10 0 0 0 10 -10v-8a10 10 0 0 1 10 -10"></path>
<g>
<path d="M260 20h454"></path>
</g>
<path d="M714 20a10 10 0 0 1 10 10v8a10 10 0 0 0 10 10"></path>
<path d="M240 48h20"></path>
<g>
<path d="M260 48h0"></path>
<path d="M714 48h0"></path>
<path d="M290 48h10"></path>
<g>
<path d="M300 48h0"></path>
<path d="M684 48h0"></path>
<path d="M300 48h20"></path>
<g>
<path d="M320 48h0"></path>
<path d="M664 48h0"></path>
<g>
<path d="M320 48h0"></path>
<path d="M586 48h0"></path>
<path d="M320 48h20"></path>
<g>
<path d="M340 48h0"></path>
<path d="M566 48h0"></path>
<g>
<path d="M340 48h0"></path>
<path d="M488 48h0"></path>
<path d="M340 48a10 10 0 0 0 10 -10v0a10 10 0 0 1 10 -10"></path>
<g>
<path d="M360 28h108"></path>
</g>
<path d="M468 28a10 10 0 0 1 10 10v0a10 10 0 0 0 10 10"></path>
<path d="M340 48h20"></path>
<g class="terminal">
<path d="M360 48h0"></path>
<path d="M468 48h0"></path>
<rect x="360" y="37" width="108" height="22" rx="10" ry="10"></rect>
<text x="414" y="52">"REFERENCE"</text>
</g>
<path d="M468 48h20"></path>
</g>
<path d="M488 48h10"></path>
<g class="terminal">
<path d="M498 48h0"></path>
<path d="M566 48h0"></path>
<rect x="498" y="37" width="68" height="22" rx="10" ry="10"></rect>
<text x="532" y="52">"INTO"</text>
</g>
</g>
<path d="M566 48h20"></path>
<path d="M320 48a10 10 0 0 1 10 10v10a10 10 0 0 0 10 10"></path>
<g class="terminal">
<path d="M340 78h0"></path>
<path d="M448 78h118"></path>
<rect x="340" y="67" width="108" height="22" rx="10" ry="10"></rect>
<text x="394" y="82">"ASSIGNING"</text>
</g>
<path d="M566 78a10 10 0 0 0 10 -10v-10a10 10 0 0 1 10 -10"></path>
</g>
<path d="M586 48h10"></path>
<g class="non-terminal">
<path d="M596 48h0"></path>
<path d="M664 48h0"></path>
<rect x="596" y="37" width="68" height="22"></rect>
<a xlink:href="reuse_Target.svg"><text x="630" y="52">Target</text>
</a>
</g>
</g>
<path d="M664 48h20"></path>
<path d="M300 48a10 10 0 0 1 10 10v40a10 10 0 0 0 10 10"></path>
<g class="terminal">
<path d="M320 108h0"></path>
<path d="M532 108h132"></path>
<rect x="320" y="97" width="212" height="22" rx="10" ry="10"></rect>
<text x="426" y="112">"TRANSPORTING NO FIELDS"</text>
</g>
<path d="M664 108a10 10 0 0 0 10 -10v-40a10 10 0 0 1 10 -10"></path>
</g>
<path d="M684 48h10"></path>
<path d="M290 48v80a10 10 0 0 0 10 10"></path>
<g>
<path d="M300 138h0"></path>
<path d="M456 138h228"></path>
<g class="terminal">
<path d="M300 138h0"></path>
<path d="M368 138h0"></path>
<rect x="300" y="127" width="68" height="22" rx="10" ry="10"></rect>
<text x="334" y="142">"FROM"</text>
</g>
<path d="M368 138h10"></path>
<path d="M378 138h10"></path>
<g class="non-terminal">
<path d="M388 138h0"></path>
<path d="M456 138h0"></path>
<rect x="388" y="127" width="68" height="22"></rect>
<a xlink:href="reuse_Source.svg"><text x="422" y="142">Source</text>
</a>
</g>
</g>
<path d="M684 138a10 10 0 0 0 10 -10v-80"></path>
<path d="M290 48v110a10 10 0 0 0 10 10"></path>
<g>
<path d="M300 168h0"></path>
<path d="M440 168h244"></path>
<g class="terminal">
<path d="M300 168h0"></path>
<path d="M352 168h0"></path>
<rect x="300" y="157" width="52" height="22" rx="10" ry="10"></rect>
<text x="326" y="172">"TO"</text>
</g>
<path d="M352 168h10"></path>
<path d="M362 168h10"></path>
<g class="non-terminal">
<path d="M372 168h0"></path>
<path d="M440 168h0"></path>
<rect x="372" y="157" width="68" height="22"></rect>
<a xlink:href="reuse_Source.svg"><text x="406" y="172">Source</text>
</a>
</g>
</g>
<path d="M684 168a10 10 0 0 0 10 -10v-110"></path>
<path d="M290 48v140a10 10 0 0 0 10 10"></path>
<g>
<path d="M300 198h0"></path>
<path d="M448 198h236"></path>
<g class="terminal">
<path d="M300 198h0"></path>
<path d="M376 198h0"></path>
<rect x="300" y="187" width="76" height="22" rx="10" ry="10"></rect>
<text x="338" y="202">"WHERE"</text>
</g>
<path d="M376 198h10"></path>
<path d="M386 198h10"></path>
<g class="non-terminal">
<path d="M396 198h0"></path>
<path d="M448 198h0"></path>
<rect x="396" y="187" width="52" height="22"></rect>
<a xlink:href="reuse_Cond.svg"><text x="422" y="202">Cond</text>
</a>
</g>
</g>
<path d="M684 198a10 10 0 0 0 10 -10v-140"></path>
<path d="M290 48v170a10 10 0 0 0 10 10"></path>
<g>
<path d="M300 228h0"></path>
<path d="M496 228h188"></path>
<g class="terminal">
<path d="M300 228h0"></path>
<path d="M408 228h0"></path>
<rect x="300" y="217" width="108" height="22" rx="10" ry="10"></rect>
<text x="354" y="232">"USING KEY"</text>
</g>
<path d="M408 228h10"></path>
<path d="M418 228h10"></path>
<g class="non-terminal">
<path d="M428 228h0"></path>
<path d="M496 228h0"></path>
<rect x="428" y="217" width="68" height="22"></rect>
<a xlink:href="reuse_Source.svg"><text x="462" y="232">Source</text>
</a>
</g>
</g>
<path d="M684 228a10 10 0 0 0 10 -10v-170"></path>
<g class="diagram-text">
<title>take one or more branches, once each, in any order</title>
<path d="M 290 38 h -26 a 4 4 0 0 0 -4 4 v 12 a 4 4 0 0 0 4 4 h 26 z" class="diagram-text"></path>
<text x="275" y="52" class="diagram-text">1+</text>
<path d="M 694 38 h 16 a 4 4 0 0 1 4 4 v 12 a 4 4 0 0 1 -4 4 h -16 z" class="diagram-text"></path>
<path d="M 701 46 a 4 4 0 1 0 6 -1 m 2.75 -1 h -4 v 4 m 0 -3 h 2" style="stroke-width: 1.75"></path>
</g>
</g>
<path d="M714 48h20"></path>
</g>
</g>
<path d="M734 48h10"></path>
<path d="M 744 48 h 20 m -10 -10 v 20 m 10 -20 v 20"></path>
</g>
</svg>
