<svg xmlns="http://www.w3.org/2000/svg" xmlns:xlink="http://www.w3.org/1999/xlink" class="railroad-diagram" width="1576" height="101" viewBox="0 0 1576 101">
<defs>
<style type="text/css"><![CDATA[
path {
stroke-width: 3;
stroke: black;
fill: rgba(0,0,0,0);
}
text {
font: bold 14px monospace;
text-anchor: middle;
}
text.diagram-text {
font-size: 12px;
}
a {
fill: blue;
}
text.diagram-arrow {
font-size: 16px;
}
text.label {
text-anchor: start;
}
text.comment {
font: italic 12px monospace;
}
rect {
stroke-width: 3;
stroke: black;
fill: #BCBCBC;
}
path.diagram-text {
stroke-width: 3;
stroke: black;
fill: #BCBCBC;
cursor: help;
}
]]></style>
</defs>
<g transform="translate(.5 .5)">
<path d="M 20 30 v 20 m 10 -20 v 20 m -10 -10 h 20.5"></path>
<path d="M40 40h10"></path>
<g>
<path d="M50 40h0"></path>
<path d="M1526 40h0"></path>
<g class="terminal">
<path d="M50 40h0"></path>
<path d="M142 40h0"></path>
<rect x="50" y="29" width="92" height="22" rx="10" ry="10"></rect>
<text x="96" y="44">"LOOP AT"</text>
</g>
<path d="M142 40h10"></path>
<path d="M152 40h10"></path>
<g class="non-terminal">
<path d="M162 40h0"></path>
<path d="M230 40h0"></path>
<rect x="162" y="29" width="68" height="22"></rect>
<a xlink:href="reuse_source.svg"><text x="196" y="44">source</text>
</a>
</g>
<path d="M230 40h10"></path>
<g>
<path d="M240 40h0"></path>
<path d="M444 40h0"></path>
<path d="M240 40a10 10 0 0 0 10 -10v0a10 10 0 0 1 10 -10"></path>
<g>
<path d="M260 20h164"></path>
</g>
<path d="M424 20a10 10 0 0 1 10 10v0a10 10 0 0 0 10 10"></path>
<path d="M240 40h20"></path>
<g>
<path d="M260 40h0"></path>
<path d="M424 40h0"></path>
<g class="terminal">
<path d="M260 40h0"></path>
<path d="M328 40h0"></path>
<rect x="260" y="29" width="68" height="22" rx="10" ry="10"></rect>
<text x="294" y="44">"FROM"</text>
</g>
<path d="M328 40h10"></path>
<path d="M338 40h10"></path>
<g class="non-terminal">
<path d="M348 40h0"></path>
<path d="M424 40h0"></path>
<rect x="348" y="29" width="76" height="22"></rect>
<a xlink:href="reuse_integer.svg"><text x="386" y="44">integer</text>
</a>
</g>
</g>
<path d="M424 40h20"></path>
</g>
<g>
<path d="M444 40h0"></path>
<path d="M710 40h0"></path>
<path d="M444 40a10 10 0 0 0 10 -10v0a10 10 0 0 1 10 -10"></path>
<g>
<path d="M464 20h226"></path>
</g>
<path d="M690 20a10 10 0 0 1 10 10v0a10 10 0 0 0 10 10"></path>
<path d="M444 40h20"></path>
<g>
<path d="M464 40h0"></path>
<path d="M690 40h0"></path>
<g>
<path d="M464 40h0"></path>
<path d="M612 40h0"></path>
<path d="M464 40h20"></path>
<g class="terminal">
<path d="M484 40h20"></path>
<path d="M572 40h20"></path>
<rect x="504" y="29" width="68" height="22" rx="10" ry="10"></rect>
<text x="538" y="44">"INTO"</text>
</g>
<path d="M592 40h20"></path>
<path d="M464 40a10 10 0 0 1 10 10v10a10 10 0 0 0 10 10"></path>
<g class="terminal">
<path d="M484 70h0"></path>
<path d="M592 70h0"></path>
<rect x="484" y="59" width="108" height="22" rx="10" ry="10"></rect>
<text x="538" y="74">"ASSIGNING"</text>
</g>
<path d="M592 70a10 10 0 0 0 10 -10v-10a10 10 0 0 1 10 -10"></path>
</g>
<path d="M612 40h10"></path>
<g class="non-terminal">
<path d="M622 40h0"></path>
<path d="M690 40h0"></path>
<rect x="622" y="29" width="68" height="22"></rect>
<a xlink:href="reuse_target.svg"><text x="656" y="44">target</text>
</a>
</g>
</g>
<path d="M690 40h20"></path>
</g>
<g>
<path d="M710 40h0"></path>
<path d="M962 40h0"></path>
<path d="M710 40a10 10 0 0 0 10 -10v0a10 10 0 0 1 10 -10"></path>
<g>
<path d="M730 20h212"></path>
</g>
<path d="M942 20a10 10 0 0 1 10 10v0a10 10 0 0 0 10 10"></path>
<path d="M710 40h20"></path>
<g class="terminal">
<path d="M730 40h0"></path>
<path d="M942 40h0"></path>
<rect x="730" y="29" width="212" height="22" rx="10" ry="10"></rect>
<text x="836" y="44">"TRANSPORTING NO FIELDS"</text>
</g>
<path d="M942 40h20"></path>
</g>
<g>
<path d="M962 40h0"></path>
<path d="M1158 40h0"></path>
<path d="M962 40a10 10 0 0 0 10 -10v0a10 10 0 0 1 10 -10"></path>
<g>
<path d="M982 20h156"></path>
</g>
<path d="M1138 20a10 10 0 0 1 10 10v0a10 10 0 0 0 10 10"></path>
<path d="M962 40h20"></path>
<g>
<path d="M982 40h0"></path>
<path d="M1138 40h0"></path>
<g class="terminal">
<path d="M982 40h0"></path>
<path d="M1050 40h0"></path>
<rect x="982" y="29" width="68" height="22" rx="10" ry="10"></rect>
<text x="1016" y="44">"FROM"</text>
</g>
<path d="M1050 40h10"></path>
<path d="M1060 40h10"></path>
<g class="non-terminal">
<path d="M1070 40h0"></path>
<path d="M1138 40h0"></path>
<rect x="1070" y="29" width="68" height="22"></rect>
<a xlink:href="reuse_source.svg"><text x="1104" y="44">source</text>
</a>
</g>
</g>
<path d="M1138 40h20"></path>
</g>
<g>
<path d="M1158 40h0"></path>
<path d="M1338 40h0"></path>
<path d="M1158 40a10 10 0 0 0 10 -10v0a10 10 0 0 1 10 -10"></path>
<g>
<path d="M1178 20h140"></path>
</g>
<path d="M1318 20a10 10 0 0 1 10 10v0a10 10 0 0 0 10 10"></path>
<path d="M1158 40h20"></path>
<g>
<path d="M1178 40h0"></path>
<path d="M1318 40h0"></path>
<g class="terminal">
<path d="M1178 40h0"></path>
<path d="M1230 40h0"></path>
<rect x="1178" y="29" width="52" height="22" rx="10" ry="10"></rect>
<text x="1204" y="44">"TO"</text>
</g>
<path d="M1230 40h10"></path>
<path d="M1240 40h10"></path>
<g class="non-terminal">
<path d="M1250 40h0"></path>
<path d="M1318 40h0"></path>
<rect x="1250" y="29" width="68" height="22"></rect>
<a xlink:href="reuse_source.svg"><text x="1284" y="44">source</text>
</a>
</g>
</g>
<path d="M1318 40h20"></path>
</g>
<g>
<path d="M1338 40h0"></path>
<path d="M1526 40h0"></path>
<path d="M1338 40a10 10 0 0 0 10 -10v0a10 10 0 0 1 10 -10"></path>
<g>
<path d="M1358 20h148"></path>
</g>
<path d="M1506 20a10 10 0 0 1 10 10v0a10 10 0 0 0 10 10"></path>
<path d="M1338 40h20"></path>
<g>
<path d="M1358 40h0"></path>
<path d="M1506 40h0"></path>
<g class="terminal">
<path d="M1358 40h0"></path>
<path d="M1434 40h0"></path>
<rect x="1358" y="29" width="76" height="22" rx="10" ry="10"></rect>
<text x="1396" y="44">"WHERE"</text>
</g>
<path d="M1434 40h10"></path>
<path d="M1444 40h10"></path>
<g class="non-terminal">
<path d="M1454 40h0"></path>
<path d="M1506 40h0"></path>
<rect x="1454" y="29" width="52" height="22"></rect>
<a xlink:href="reuse_cond.svg"><text x="1480" y="44">cond</text>
</a>
</g>
</g>
<path d="M1506 40h20"></path>
</g>
</g>
<path d="M1526 40h10"></path>
<path d="M 1536 40 h 20 m -10 -10 v 20 m 10 -20 v 20"></path>
</g>
</svg>
