<svg xmlns="http://www.w3.org/2000/svg" xmlns:xlink="http://www.w3.org/1999/xlink" class="railroad-diagram" width="1378" height="238" viewBox="0 0 1378 238">
<defs>
<style type="text/css"><![CDATA[
path {
stroke-width: 3;
stroke: black;
fill: rgba(0,0,0,0);
}
text {
font: bold 14px monospace;
text-anchor: middle;
}
text.diagram-text {
font-size: 12px;
}
a {
fill: blue;
}
text.diagram-arrow {
font-size: 16px;
}
text.label {
text-anchor: start;
}
text.comment {
font: italic 12px monospace;
}
rect {
stroke-width: 3;
stroke: black;
fill: #BCBCBC;
}
path.diagram-text {
stroke-width: 3;
stroke: black;
fill: #BCBCBC;
cursor: help;
}
]]></style>
</defs>
<g transform="translate(.5 .5)">
<path d="M 20 21 v 20 m 10 -20 v 20 m -10 -10 h 20.5"></path>
<path d="M40 31h10"></path>
<g>
<path d="M50 31h0"></path>
<path d="M1328 31h0"></path>
<g class="terminal">
<path d="M50 31h0"></path>
<path d="M142 31h0"></path>
<rect x="50" y="20" width="92" height="22" rx="10" ry="10"></rect>
<text x="96" y="35">"MESSAGE"</text>
</g>
<path d="M142 31h10"></path>
<path d="M152 31h10"></path>
<g>
<path d="M162 31h0"></path>
<path d="M1328 31h0"></path>
<path d="M192 31h10"></path>
<g>
<path d="M202 31h0"></path>
<path d="M710 31h588"></path>
<g>
<path d="M202 31h0"></path>
<path d="M342 31h0"></path>
<g class="terminal">
<path d="M202 31h0"></path>
<path d="M254 31h0"></path>
<rect x="202" y="20" width="52" height="22" rx="10" ry="10"></rect>
<text x="228" y="35">"ID"</text>
</g>
<path d="M254 31h10"></path>
<path d="M264 31h10"></path>
<g class="non-terminal">
<path d="M274 31h0"></path>
<path d="M342 31h0"></path>
<rect x="274" y="20" width="68" height="22"></rect>
<a xlink:href="reuse_source.svg"><text x="308" y="35">Source</text>
</a>
</g>
</g>
<path d="M342 31h10"></path>
<path d="M352 31h10"></path>
<g>
<path d="M362 31h0"></path>
<path d="M518 31h0"></path>
<g class="terminal">
<path d="M362 31h0"></path>
<path d="M430 31h0"></path>
<rect x="362" y="20" width="68" height="22" rx="10" ry="10"></rect>
<text x="396" y="35">"TYPE"</text>
</g>
<path d="M430 31h10"></path>
<path d="M440 31h10"></path>
<g class="non-terminal">
<path d="M450 31h0"></path>
<path d="M518 31h0"></path>
<rect x="450" y="20" width="68" height="22"></rect>
<a xlink:href="reuse_source.svg"><text x="484" y="35">Source</text>
</a>
</g>
</g>
<path d="M518 31h10"></path>
<path d="M528 31h10"></path>
<g>
<path d="M538 31h0"></path>
<path d="M710 31h0"></path>
<g class="terminal">
<path d="M538 31h0"></path>
<path d="M622 31h0"></path>
<rect x="538" y="20" width="84" height="22" rx="10" ry="10"></rect>
<text x="580" y="35">"NUMBER"</text>
</g>
<path d="M622 31h10"></path>
<path d="M632 31h10"></path>
<g class="non-terminal">
<path d="M642 31h0"></path>
<path d="M710 31h0"></path>
<rect x="642" y="20" width="68" height="22"></rect>
<a xlink:href="reuse_source.svg"><text x="676" y="35">Source</text>
</a>
</g>
</g>
</g>
<path d="M1298 31h10"></path>
<path d="M192 31v29a10 10 0 0 0 10 10"></path>
<g>
<path d="M202 70h0"></path>
<path d="M692 70h606"></path>
<g class="terminal">
<path d="M202 70h0"></path>
<path d="M270 70h0"></path>
<rect x="202" y="59" width="68" height="22" rx="10" ry="10"></rect>
<text x="236" y="74">"WITH"</text>
</g>
<path d="M270 70h10"></path>
<path d="M280 70h10"></path>
<g class="non-terminal">
<path d="M290 70h0"></path>
<path d="M358 70h0"></path>
<rect x="290" y="59" width="68" height="22"></rect>
<a xlink:href="reuse_source.svg"><text x="324" y="74">Source</text>
</a>
</g>
<path d="M358 70h10"></path>
<g>
<path d="M368 70h0"></path>
<path d="M476 70h0"></path>
<path d="M368 70a10 10 0 0 0 10 -10v0a10 10 0 0 1 10 -10"></path>
<g>
<path d="M388 50h68"></path>
</g>
<path d="M456 50a10 10 0 0 1 10 10v0a10 10 0 0 0 10 10"></path>
<path d="M368 70h20"></path>
<g class="non-terminal">
<path d="M388 70h0"></path>
<path d="M456 70h0"></path>
<rect x="388" y="59" width="68" height="22"></rect>
<a xlink:href="reuse_source.svg"><text x="422" y="74">Source</text>
</a>
</g>
<path d="M456 70h20"></path>
</g>
<g>
<path d="M476 70h0"></path>
<path d="M584 70h0"></path>
<path d="M476 70a10 10 0 0 0 10 -10v0a10 10 0 0 1 10 -10"></path>
<g>
<path d="M496 50h68"></path>
</g>
<path d="M564 50a10 10 0 0 1 10 10v0a10 10 0 0 0 10 10"></path>
<path d="M476 70h20"></path>
<g class="non-terminal">
<path d="M496 70h0"></path>
<path d="M564 70h0"></path>
<rect x="496" y="59" width="68" height="22"></rect>
<a xlink:href="reuse_source.svg"><text x="530" y="74">Source</text>
</a>
</g>
<path d="M564 70h20"></path>
</g>
<g>
<path d="M584 70h0"></path>
<path d="M692 70h0"></path>
<path d="M584 70a10 10 0 0 0 10 -10v0a10 10 0 0 1 10 -10"></path>
<g>
<path d="M604 50h68"></path>
</g>
<path d="M672 50a10 10 0 0 1 10 10v0a10 10 0 0 0 10 10"></path>
<path d="M584 70h20"></path>
<g class="non-terminal">
<path d="M604 70h0"></path>
<path d="M672 70h0"></path>
<rect x="604" y="59" width="68" height="22"></rect>
<a xlink:href="reuse_source.svg"><text x="638" y="74">Source</text>
</a>
</g>
<path d="M672 70h20"></path>
</g>
</g>
<path d="M1298 70a10 10 0 0 0 10 -10v-29"></path>
<path d="M192 31v59a10 10 0 0 0 10 10"></path>
<g>
<path d="M202 100h0"></path>
<path d="M358 100h940"></path>
<g class="terminal">
<path d="M202 100h0"></path>
<path d="M270 100h0"></path>
<rect x="202" y="89" width="68" height="22" rx="10" ry="10"></rect>
<text x="236" y="104">"INTO"</text>
</g>
<path d="M270 100h10"></path>
<path d="M280 100h10"></path>
<g class="non-terminal">
<path d="M290 100h0"></path>
<path d="M358 100h0"></path>
<rect x="290" y="89" width="68" height="22"></rect>
<a xlink:href="reuse_target.svg"><text x="324" y="104">Target</text>
</a>
</g>
</g>
<path d="M1298 100a10 10 0 0 0 10 -10v-59"></path>
<path d="M192 31v89a10 10 0 0 0 10 10"></path>
<g>
<path d="M202 130h0"></path>
<path d="M374 130h924"></path>
<g class="terminal">
<path d="M202 130h0"></path>
<path d="M294 130h0"></path>
<rect x="202" y="119" width="92" height="22" rx="10" ry="10"></rect>
<text x="248" y="134">"RAISING"</text>
</g>
<path d="M294 130h10"></path>
<path d="M304 130h10"></path>
<g class="non-terminal">
<path d="M314 130h0"></path>
<path d="M374 130h0"></path>
<rect x="314" y="119" width="60" height="22"></rect>
<a xlink:href="reuse_field.svg"><text x="344" y="134">Field</text>
</a>
</g>
</g>
<path d="M1298 130a10 10 0 0 0 10 -10v-89"></path>
<path d="M192 31v119a10 10 0 0 0 10 10"></path>
<g>
<path d="M202 160h0"></path>
<path d="M422 160h876"></path>
<g class="terminal">
<path d="M202 160h0"></path>
<path d="M334 160h0"></path>
<rect x="202" y="149" width="132" height="22" rx="10" ry="10"></rect>
<text x="268" y="164">"DISPLAY LIKE"</text>
</g>
<path d="M334 160h10"></path>
<path d="M344 160h10"></path>
<g class="non-terminal">
<path d="M354 160h0"></path>
<path d="M422 160h0"></path>
<rect x="354" y="149" width="68" height="22"></rect>
<a xlink:href="reuse_source.svg"><text x="388" y="164">Source</text>
</a>
</g>
</g>
<path d="M1298 160a10 10 0 0 0 10 -10v-119"></path>
<path d="M192 31v166a10 10 0 0 0 10 10"></path>
<g>
<path d="M202 207h0"></path>
<path d="M1298 207h0"></path>
<g class="non-terminal">
<path d="M202 207h0"></path>
<path d="M270 207h0"></path>
<rect x="202" y="196" width="68" height="22"></rect>
<a xlink:href="reuse_source.svg"><text x="236" y="211">Source</text>
</a>
</g>
<path d="M270 207h10"></path>
<g>
<path d="M280 207h0"></path>
<path d="M572 207h0"></path>
<path d="M280 207a10 10 0 0 0 10 -10v0a10 10 0 0 1 10 -10"></path>
<g>
<path d="M300 187h252"></path>
</g>
<path d="M552 187a10 10 0 0 1 10 10v0a10 10 0 0 0 10 10"></path>
<path d="M280 207h20"></path>
<g>
<path d="M300 207h0"></path>
<path d="M552 207h0"></path>
<g class="terminal">
<path d="M300 207h0"></path>
<path d="M352 207h0"></path>
<rect x="300" y="196" width="52" height="22" rx="10" ry="10"></rect>
<text x="326" y="211">!"("</text>
</g>
<path d="M352 207h10"></path>
<path d="M362 207h10"></path>
<g class="non-terminal">
<path d="M372 207h0"></path>
<path d="M488 207h0"></path>
<rect x="372" y="196" width="116" height="22"></rect>
<a xlink:href="reuse_messageclass.svg"><text x="430" y="211">MessageClass</text>
</a>
</g>
<path d="M488 207h10"></path>
<path d="M498 207h10"></path>
<g class="terminal">
<path d="M508 207h0"></path>
<path d="M552 207h0"></path>
<rect x="508" y="196" width="44" height="22" rx="10" ry="10"></rect>
<text x="530" y="211">")"</text>
</g>
</g>
<path d="M552 207h20"></path>
</g>
<g>
<path d="M572 207h0"></path>
<path d="M1102 207h0"></path>
<path d="M572 207a10 10 0 0 0 10 -10v-8a10 10 0 0 1 10 -10"></path>
<g>
<path d="M592 179h490"></path>
</g>
<path d="M1082 179a10 10 0 0 1 10 10v8a10 10 0 0 0 10 10"></path>
<path d="M572 207h20"></path>
<g>
<path d="M592 207h0"></path>
<path d="M1082 207h0"></path>
<g class="terminal">
<path d="M592 207h0"></path>
<path d="M660 207h0"></path>
<rect x="592" y="196" width="68" height="22" rx="10" ry="10"></rect>
<text x="626" y="211">"WITH"</text>
</g>
<path d="M660 207h10"></path>
<path d="M670 207h10"></path>
<g class="non-terminal">
<path d="M680 207h0"></path>
<path d="M748 207h0"></path>
<rect x="680" y="196" width="68" height="22"></rect>
<a xlink:href="reuse_source.svg"><text x="714" y="211">Source</text>
</a>
</g>
<path d="M748 207h10"></path>
<g>
<path d="M758 207h0"></path>
<path d="M866 207h0"></path>
<path d="M758 207a10 10 0 0 0 10 -10v0a10 10 0 0 1 10 -10"></path>
<g>
<path d="M778 187h68"></path>
</g>
<path d="M846 187a10 10 0 0 1 10 10v0a10 10 0 0 0 10 10"></path>
<path d="M758 207h20"></path>
<g class="non-terminal">
<path d="M778 207h0"></path>
<path d="M846 207h0"></path>
<rect x="778" y="196" width="68" height="22"></rect>
<a xlink:href="reuse_source.svg"><text x="812" y="211">Source</text>
</a>
</g>
<path d="M846 207h20"></path>
</g>
<g>
<path d="M866 207h0"></path>
<path d="M974 207h0"></path>
<path d="M866 207a10 10 0 0 0 10 -10v0a10 10 0 0 1 10 -10"></path>
<g>
<path d="M886 187h68"></path>
</g>
<path d="M954 187a10 10 0 0 1 10 10v0a10 10 0 0 0 10 10"></path>
<path d="M866 207h20"></path>
<g class="non-terminal">
<path d="M886 207h0"></path>
<path d="M954 207h0"></path>
<rect x="886" y="196" width="68" height="22"></rect>
<a xlink:href="reuse_source.svg"><text x="920" y="211">Source</text>
</a>
</g>
<path d="M954 207h20"></path>
</g>
<g>
<path d="M974 207h0"></path>
<path d="M1082 207h0"></path>
<path d="M974 207a10 10 0 0 0 10 -10v0a10 10 0 0 1 10 -10"></path>
<g>
<path d="M994 187h68"></path>
</g>
<path d="M1062 187a10 10 0 0 1 10 10v0a10 10 0 0 0 10 10"></path>
<path d="M974 207h20"></path>
<g class="non-terminal">
<path d="M994 207h0"></path>
<path d="M1062 207h0"></path>
<rect x="994" y="196" width="68" height="22"></rect>
<a xlink:href="reuse_source.svg"><text x="1028" y="211">Source</text>
</a>
</g>
<path d="M1062 207h20"></path>
</g>
</g>
<path d="M1082 207h20"></path>
</g>
<g>
<path d="M1102 207h0"></path>
<path d="M1298 207h0"></path>
<path d="M1102 207a10 10 0 0 0 10 -10v0a10 10 0 0 1 10 -10"></path>
<g>
<path d="M1122 187h156"></path>
</g>
<path d="M1278 187a10 10 0 0 1 10 10v0a10 10 0 0 0 10 10"></path>
<path d="M1102 207h20"></path>
<g>
<path d="M1122 207h0"></path>
<path d="M1278 207h0"></path>
<g class="terminal">
<path d="M1122 207h0"></path>
<path d="M1190 207h0"></path>
<rect x="1122" y="196" width="68" height="22" rx="10" ry="10"></rect>
<text x="1156" y="211">"TYPE"</text>
</g>
<path d="M1190 207h10"></path>
<path d="M1200 207h10"></path>
<g class="non-terminal">
<path d="M1210 207h0"></path>
<path d="M1278 207h0"></path>
<rect x="1210" y="196" width="68" height="22"></rect>
<a xlink:href="reuse_source.svg"><text x="1244" y="211">Source</text>
</a>
</g>
</g>
<path d="M1278 207h20"></path>
</g>
</g>
<path d="M1298 207a10 10 0 0 0 10 -10v-166"></path>
<g class="diagram-text">
<title>take one or more branches, once each, in any order</title>
<path d="M 192 21 h -26 a 4 4 0 0 0 -4 4 v 12 a 4 4 0 0 0 4 4 h 26 z" class="diagram-text"></path>
<text x="177" y="35" class="diagram-text">1+</text>
<path d="M 1308 21 h 16 a 4 4 0 0 1 4 4 v 12 a 4 4 0 0 1 -4 4 h -16 z" class="diagram-text"></path>
<path d="M 1315 29 a 4 4 0 1 0 6 -1 m 2.75 -1 h -4 v 4 m 0 -3 h 2" style="stroke-width: 1.75"></path>
</g>
</g>
</g>
<path d="M1328 31h10"></path>
<path d="M 1338 31 h 20 m -10 -10 v 20 m 10 -20 v 20"></path>
</g>
</svg>
