<svg xmlns="http://www.w3.org/2000/svg" xmlns:xlink="http://www.w3.org/1999/xlink" class="railroad-diagram" width="1582" height="208" viewBox="0 0 1582 208">
<defs>
<style type="text/css"><![CDATA[
path {
stroke-width: 3;
stroke: black;
fill: rgba(0,0,0,0);
}
text {
font: bold 14px monospace;
text-anchor: middle;
}
text.diagram-text {
font-size: 12px;
}
a {
fill: blue;
}
text.diagram-arrow {
font-size: 16px;
}
text.label {
text-anchor: start;
}
text.comment {
font: italic 12px monospace;
}
rect {
stroke-width: 3;
stroke: black;
fill: #BCBCBC;
}
path.diagram-text {
stroke-width: 3;
stroke: black;
fill: #BCBCBC;
cursor: help;
}
]]></style>
</defs>
<g transform="translate(.5 .5)">
<path d="M 20 21 v 20 m 10 -20 v 20 m -10 -10 h 20.5"></path>
<path d="M40 31h10"></path>
<g>
<path d="M50 31h0"></path>
<path d="M1532 31h0"></path>
<g class="terminal">
<path d="M50 31h0"></path>
<path d="M142 31h0"></path>
<rect x="50" y="20" width="92" height="22" rx="10" ry="10"></rect>
<text x="96" y="35">"MESSAGE"</text>
</g>
<path d="M142 31h10"></path>
<path d="M152 31h10"></path>
<g>
<path d="M162 31h0"></path>
<path d="M1532 31h0"></path>
<path d="M192 31h10"></path>
<g>
<path d="M202 31h0"></path>
<path d="M710 31h792"></path>
<g>
<path d="M202 31h0"></path>
<path d="M342 31h0"></path>
<g class="terminal">
<path d="M202 31h0"></path>
<path d="M254 31h0"></path>
<rect x="202" y="20" width="52" height="22" rx="10" ry="10"></rect>
<text x="228" y="35">"ID"</text>
</g>
<path d="M254 31h10"></path>
<path d="M264 31h10"></path>
<g class="non-terminal">
<path d="M274 31h0"></path>
<path d="M342 31h0"></path>
<rect x="274" y="20" width="68" height="22"></rect>
<a xlink:href="reuse_source.svg"><text x="308" y="35">source</text>
</a>
</g>
</g>
<path d="M342 31h10"></path>
<path d="M352 31h10"></path>
<g>
<path d="M362 31h0"></path>
<path d="M518 31h0"></path>
<g class="terminal">
<path d="M362 31h0"></path>
<path d="M430 31h0"></path>
<rect x="362" y="20" width="68" height="22" rx="10" ry="10"></rect>
<text x="396" y="35">"TYPE"</text>
</g>
<path d="M430 31h10"></path>
<path d="M440 31h10"></path>
<g class="non-terminal">
<path d="M450 31h0"></path>
<path d="M518 31h0"></path>
<rect x="450" y="20" width="68" height="22"></rect>
<a xlink:href="reuse_source.svg"><text x="484" y="35">source</text>
</a>
</g>
</g>
<path d="M518 31h10"></path>
<path d="M528 31h10"></path>
<g>
<path d="M538 31h0"></path>
<path d="M710 31h0"></path>
<g class="terminal">
<path d="M538 31h0"></path>
<path d="M622 31h0"></path>
<rect x="538" y="20" width="84" height="22" rx="10" ry="10"></rect>
<text x="580" y="35">"NUMBER"</text>
</g>
<path d="M622 31h10"></path>
<path d="M632 31h10"></path>
<g class="non-terminal">
<path d="M642 31h0"></path>
<path d="M710 31h0"></path>
<rect x="642" y="20" width="68" height="22"></rect>
<a xlink:href="reuse_source.svg"><text x="676" y="35">source</text>
</a>
</g>
</g>
</g>
<path d="M1502 31h10"></path>
<path d="M192 31v29a10 10 0 0 0 10 10"></path>
<g>
<path d="M202 70h0"></path>
<path d="M692 70h810"></path>
<g class="terminal">
<path d="M202 70h0"></path>
<path d="M270 70h0"></path>
<rect x="202" y="59" width="68" height="22" rx="10" ry="10"></rect>
<text x="236" y="74">"WITH"</text>
</g>
<path d="M270 70h10"></path>
<path d="M280 70h10"></path>
<g class="non-terminal">
<path d="M290 70h0"></path>
<path d="M358 70h0"></path>
<rect x="290" y="59" width="68" height="22"></rect>
<a xlink:href="reuse_source.svg"><text x="324" y="74">source</text>
</a>
</g>
<path d="M358 70h10"></path>
<g>
<path d="M368 70h0"></path>
<path d="M476 70h0"></path>
<path d="M368 70a10 10 0 0 0 10 -10v0a10 10 0 0 1 10 -10"></path>
<g>
<path d="M388 50h68"></path>
</g>
<path d="M456 50a10 10 0 0 1 10 10v0a10 10 0 0 0 10 10"></path>
<path d="M368 70h20"></path>
<g class="non-terminal">
<path d="M388 70h0"></path>
<path d="M456 70h0"></path>
<rect x="388" y="59" width="68" height="22"></rect>
<a xlink:href="reuse_source.svg"><text x="422" y="74">source</text>
</a>
</g>
<path d="M456 70h20"></path>
</g>
<g>
<path d="M476 70h0"></path>
<path d="M584 70h0"></path>
<path d="M476 70a10 10 0 0 0 10 -10v0a10 10 0 0 1 10 -10"></path>
<g>
<path d="M496 50h68"></path>
</g>
<path d="M564 50a10 10 0 0 1 10 10v0a10 10 0 0 0 10 10"></path>
<path d="M476 70h20"></path>
<g class="non-terminal">
<path d="M496 70h0"></path>
<path d="M564 70h0"></path>
<rect x="496" y="59" width="68" height="22"></rect>
<a xlink:href="reuse_source.svg"><text x="530" y="74">source</text>
</a>
</g>
<path d="M564 70h20"></path>
</g>
<g>
<path d="M584 70h0"></path>
<path d="M692 70h0"></path>
<path d="M584 70a10 10 0 0 0 10 -10v0a10 10 0 0 1 10 -10"></path>
<g>
<path d="M604 50h68"></path>
</g>
<path d="M672 50a10 10 0 0 1 10 10v0a10 10 0 0 0 10 10"></path>
<path d="M584 70h20"></path>
<g class="non-terminal">
<path d="M604 70h0"></path>
<path d="M672 70h0"></path>
<rect x="604" y="59" width="68" height="22"></rect>
<a xlink:href="reuse_source.svg"><text x="638" y="74">source</text>
</a>
</g>
<path d="M672 70h20"></path>
</g>
</g>
<path d="M1502 70a10 10 0 0 0 10 -10v-29"></path>
<path d="M192 31v59a10 10 0 0 0 10 10"></path>
<g>
<path d="M202 100h0"></path>
<path d="M358 100h1144"></path>
<g class="terminal">
<path d="M202 100h0"></path>
<path d="M270 100h0"></path>
<rect x="202" y="89" width="68" height="22" rx="10" ry="10"></rect>
<text x="236" y="104">"INTO"</text>
</g>
<path d="M270 100h10"></path>
<path d="M280 100h10"></path>
<g class="non-terminal">
<path d="M290 100h0"></path>
<path d="M358 100h0"></path>
<rect x="290" y="89" width="68" height="22"></rect>
<a xlink:href="reuse_target.svg"><text x="324" y="104">target</text>
</a>
</g>
</g>
<path d="M1502 100a10 10 0 0 0 10 -10v-59"></path>
<path d="M192 31v89a10 10 0 0 0 10 10"></path>
<g>
<path d="M202 130h0"></path>
<path d="M374 130h1128"></path>
<g class="terminal">
<path d="M202 130h0"></path>
<path d="M294 130h0"></path>
<rect x="202" y="119" width="92" height="22" rx="10" ry="10"></rect>
<text x="248" y="134">"RAISING"</text>
</g>
<path d="M294 130h10"></path>
<path d="M304 130h10"></path>
<g class="non-terminal">
<path d="M314 130h0"></path>
<path d="M374 130h0"></path>
<rect x="314" y="119" width="60" height="22"></rect>
<a xlink:href="reuse_field.svg"><text x="344" y="134">field</text>
</a>
</g>
</g>
<path d="M1502 130a10 10 0 0 0 10 -10v-89"></path>
<path d="M192 31v136a10 10 0 0 0 10 10"></path>
<g>
<path d="M202 177h0"></path>
<path d="M1502 177h0"></path>
<g class="non-terminal">
<path d="M202 177h0"></path>
<path d="M270 177h0"></path>
<rect x="202" y="166" width="68" height="22"></rect>
<a xlink:href="reuse_source.svg"><text x="236" y="181">source</text>
</a>
</g>
<path d="M270 177h10"></path>
<g>
<path d="M280 177h0"></path>
<path d="M516 177h0"></path>
<path d="M280 177a10 10 0 0 0 10 -10v0a10 10 0 0 1 10 -10"></path>
<g>
<path d="M300 157h196"></path>
</g>
<path d="M496 157a10 10 0 0 1 10 10v0a10 10 0 0 0 10 10"></path>
<path d="M280 177h20"></path>
<g>
<path d="M300 177h0"></path>
<path d="M496 177h0"></path>
<g class="terminal">
<path d="M300 177h0"></path>
<path d="M352 177h0"></path>
<rect x="300" y="166" width="52" height="22" rx="10" ry="10"></rect>
<text x="326" y="181">!"("</text>
</g>
<path d="M352 177h10"></path>
<path d="M362 177h10"></path>
<g class="non-terminal">
<path d="M372 177h0"></path>
<path d="M432 177h0"></path>
<rect x="372" y="166" width="60" height="22"></rect>
<a xlink:href="reuse_field.svg"><text x="402" y="181">field</text>
</a>
</g>
<path d="M432 177h10"></path>
<path d="M442 177h10"></path>
<g class="terminal">
<path d="M452 177h0"></path>
<path d="M496 177h0"></path>
<rect x="452" y="166" width="44" height="22" rx="10" ry="10"></rect>
<text x="474" y="181">")"</text>
</g>
</g>
<path d="M496 177h20"></path>
</g>
<g>
<path d="M516 177h0"></path>
<path d="M1046 177h0"></path>
<path d="M516 177a10 10 0 0 0 10 -10v-8a10 10 0 0 1 10 -10"></path>
<g>
<path d="M536 149h490"></path>
</g>
<path d="M1026 149a10 10 0 0 1 10 10v8a10 10 0 0 0 10 10"></path>
<path d="M516 177h20"></path>
<g>
<path d="M536 177h0"></path>
<path d="M1026 177h0"></path>
<g class="terminal">
<path d="M536 177h0"></path>
<path d="M604 177h0"></path>
<rect x="536" y="166" width="68" height="22" rx="10" ry="10"></rect>
<text x="570" y="181">"WITH"</text>
</g>
<path d="M604 177h10"></path>
<path d="M614 177h10"></path>
<g class="non-terminal">
<path d="M624 177h0"></path>
<path d="M692 177h0"></path>
<rect x="624" y="166" width="68" height="22"></rect>
<a xlink:href="reuse_source.svg"><text x="658" y="181">source</text>
</a>
</g>
<path d="M692 177h10"></path>
<g>
<path d="M702 177h0"></path>
<path d="M810 177h0"></path>
<path d="M702 177a10 10 0 0 0 10 -10v0a10 10 0 0 1 10 -10"></path>
<g>
<path d="M722 157h68"></path>
</g>
<path d="M790 157a10 10 0 0 1 10 10v0a10 10 0 0 0 10 10"></path>
<path d="M702 177h20"></path>
<g class="non-terminal">
<path d="M722 177h0"></path>
<path d="M790 177h0"></path>
<rect x="722" y="166" width="68" height="22"></rect>
<a xlink:href="reuse_source.svg"><text x="756" y="181">source</text>
</a>
</g>
<path d="M790 177h20"></path>
</g>
<g>
<path d="M810 177h0"></path>
<path d="M918 177h0"></path>
<path d="M810 177a10 10 0 0 0 10 -10v0a10 10 0 0 1 10 -10"></path>
<g>
<path d="M830 157h68"></path>
</g>
<path d="M898 157a10 10 0 0 1 10 10v0a10 10 0 0 0 10 10"></path>
<path d="M810 177h20"></path>
<g class="non-terminal">
<path d="M830 177h0"></path>
<path d="M898 177h0"></path>
<rect x="830" y="166" width="68" height="22"></rect>
<a xlink:href="reuse_source.svg"><text x="864" y="181">source</text>
</a>
</g>
<path d="M898 177h20"></path>
</g>
<g>
<path d="M918 177h0"></path>
<path d="M1026 177h0"></path>
<path d="M918 177a10 10 0 0 0 10 -10v0a10 10 0 0 1 10 -10"></path>
<g>
<path d="M938 157h68"></path>
</g>
<path d="M1006 157a10 10 0 0 1 10 10v0a10 10 0 0 0 10 10"></path>
<path d="M918 177h20"></path>
<g class="non-terminal">
<path d="M938 177h0"></path>
<path d="M1006 177h0"></path>
<rect x="938" y="166" width="68" height="22"></rect>
<a xlink:href="reuse_source.svg"><text x="972" y="181">source</text>
</a>
</g>
<path d="M1006 177h20"></path>
</g>
</g>
<path d="M1026 177h20"></path>
</g>
<g>
<path d="M1046 177h0"></path>
<path d="M1242 177h0"></path>
<path d="M1046 177a10 10 0 0 0 10 -10v0a10 10 0 0 1 10 -10"></path>
<g>
<path d="M1066 157h156"></path>
</g>
<path d="M1222 157a10 10 0 0 1 10 10v0a10 10 0 0 0 10 10"></path>
<path d="M1046 177h20"></path>
<g>
<path d="M1066 177h0"></path>
<path d="M1222 177h0"></path>
<g class="terminal">
<path d="M1066 177h0"></path>
<path d="M1134 177h0"></path>
<rect x="1066" y="166" width="68" height="22" rx="10" ry="10"></rect>
<text x="1100" y="181">"TYPE"</text>
</g>
<path d="M1134 177h10"></path>
<path d="M1144 177h10"></path>
<g class="non-terminal">
<path d="M1154 177h0"></path>
<path d="M1222 177h0"></path>
<rect x="1154" y="166" width="68" height="22"></rect>
<a xlink:href="reuse_source.svg"><text x="1188" y="181">source</text>
</a>
</g>
</g>
<path d="M1222 177h20"></path>
</g>
<g>
<path d="M1242 177h0"></path>
<path d="M1502 177h0"></path>
<path d="M1242 177a10 10 0 0 0 10 -10v0a10 10 0 0 1 10 -10"></path>
<g>
<path d="M1262 157h220"></path>
</g>
<path d="M1482 157a10 10 0 0 1 10 10v0a10 10 0 0 0 10 10"></path>
<path d="M1242 177h20"></path>
<g>
<path d="M1262 177h0"></path>
<path d="M1482 177h0"></path>
<g class="terminal">
<path d="M1262 177h0"></path>
<path d="M1394 177h0"></path>
<rect x="1262" y="166" width="132" height="22" rx="10" ry="10"></rect>
<text x="1328" y="181">"DISPLAY LIKE"</text>
</g>
<path d="M1394 177h10"></path>
<path d="M1404 177h10"></path>
<g class="non-terminal">
<path d="M1414 177h0"></path>
<path d="M1482 177h0"></path>
<rect x="1414" y="166" width="68" height="22"></rect>
<a xlink:href="reuse_source.svg"><text x="1448" y="181">source</text>
</a>
</g>
</g>
<path d="M1482 177h20"></path>
</g>
</g>
<path d="M1502 177a10 10 0 0 0 10 -10v-136"></path>
<g class="diagram-text">
<title>take one or more branches, once each, in any order</title>
<path d="M 192 21 h -26 a 4 4 0 0 0 -4 4 v 12 a 4 4 0 0 0 4 4 h 26 z" class="diagram-text"></path>
<text x="177" y="35" class="diagram-text">1+</text>
<path d="M 1512 21 h 16 a 4 4 0 0 1 4 4 v 12 a 4 4 0 0 1 -4 4 h -16 z" class="diagram-text"></path>
<path d="M 1519 29 a 4 4 0 1 0 6 -1 m 2.75 -1 h -4 v 4 m 0 -3 h 2" style="stroke-width: 1.75"></path>
</g>
</g>
</g>
<path d="M1532 31h10"></path>
<path d="M 1542 31 h 20 m -10 -10 v 20 m 10 -20 v 20"></path>
</g>
</svg>
