<svg xmlns="http://www.w3.org/2000/svg" xmlns:xlink="http://www.w3.org/1999/xlink" class="railroad-diagram" width="2054" height="118" viewBox="0 0 2054 118">
<defs>
<style type="text/css"><![CDATA[
path {
stroke-width: 3;
stroke: black;
fill: rgba(0,0,0,0);
}
text {
font: bold 14px monospace;
text-anchor: middle;
}
text.diagram-text {
font-size: 12px;
}
a {
fill: blue;
}
text.diagram-arrow {
font-size: 16px;
}
text.label {
text-anchor: start;
}
text.comment {
font: italic 12px monospace;
}
rect {
stroke-width: 3;
stroke: black;
fill: #BCBCBC;
}
path.diagram-text {
stroke-width: 3;
stroke: black;
fill: #BCBCBC;
cursor: help;
}
]]></style>
</defs>
<g transform="translate(.5 .5)">
<path d="M 20 38 v 20 m 10 -20 v 20 m -10 -10 h 20.5"></path>
<path d="M40 48h10"></path>
<g>
<path d="M50 48h0"></path>
<path d="M2004 48h0"></path>
<g class="terminal">
<path d="M50 48h0"></path>
<path d="M142 48h0"></path>
<rect x="50" y="37" width="92" height="22" rx="10" ry="10"></rect>
<text x="96" y="52">"MESSAGE"</text>
</g>
<path d="M142 48h10"></path>
<g>
<path d="M152 48h0"></path>
<path d="M1596 48h0"></path>
<path d="M152 48h20"></path>
<g>
<path d="M172 48h0"></path>
<path d="M1576 48h0"></path>
<g class="non-terminal">
<path d="M172 48h0"></path>
<path d="M240 48h0"></path>
<rect x="172" y="37" width="68" height="22"></rect>
<a xlink:href="reuse_source.svg"><text x="206" y="52">source</text>
</a>
</g>
<path d="M240 48h10"></path>
<g>
<path d="M250 48h0"></path>
<path d="M590 48h0"></path>
<path d="M250 48a10 10 0 0 0 10 -10v0a10 10 0 0 1 10 -10"></path>
<g>
<path d="M270 28h300"></path>
</g>
<path d="M570 28a10 10 0 0 1 10 10v0a10 10 0 0 0 10 10"></path>
<path d="M250 48h20"></path>
<g>
<path d="M270 48h0"></path>
<path d="M570 48h0"></path>
<g class="terminal">
<path d="M270 48h0"></path>
<path d="M426 48h0"></path>
<rect x="270" y="37" width="156" height="22" rx="10" ry="10"></rect>
<text x="348" y="52">Token "ParenLeft"</text>
</g>
<path d="M426 48h10"></path>
<path d="M436 48h10"></path>
<g class="non-terminal">
<path d="M446 48h0"></path>
<path d="M506 48h0"></path>
<rect x="446" y="37" width="60" height="22"></rect>
<a xlink:href="reuse_field.svg"><text x="476" y="52">field</text>
</a>
</g>
<path d="M506 48h10"></path>
<path d="M516 48h10"></path>
<g class="terminal">
<path d="M526 48h0"></path>
<path d="M570 48h0"></path>
<rect x="526" y="37" width="44" height="22" rx="10" ry="10"></rect>
<text x="548" y="52">")"</text>
</g>
</g>
<path d="M570 48h20"></path>
</g>
<g>
<path d="M590 48h0"></path>
<path d="M1120 48h0"></path>
<path d="M590 48a10 10 0 0 0 10 -10v-8a10 10 0 0 1 10 -10"></path>
<g>
<path d="M610 20h490"></path>
</g>
<path d="M1100 20a10 10 0 0 1 10 10v8a10 10 0 0 0 10 10"></path>
<path d="M590 48h20"></path>
<g>
<path d="M610 48h0"></path>
<path d="M1100 48h0"></path>
<g class="terminal">
<path d="M610 48h0"></path>
<path d="M678 48h0"></path>
<rect x="610" y="37" width="68" height="22" rx="10" ry="10"></rect>
<text x="644" y="52">"WITH"</text>
</g>
<path d="M678 48h10"></path>
<path d="M688 48h10"></path>
<g class="non-terminal">
<path d="M698 48h0"></path>
<path d="M766 48h0"></path>
<rect x="698" y="37" width="68" height="22"></rect>
<a xlink:href="reuse_source.svg"><text x="732" y="52">source</text>
</a>
</g>
<path d="M766 48h10"></path>
<g>
<path d="M776 48h0"></path>
<path d="M884 48h0"></path>
<path d="M776 48a10 10 0 0 0 10 -10v0a10 10 0 0 1 10 -10"></path>
<g>
<path d="M796 28h68"></path>
</g>
<path d="M864 28a10 10 0 0 1 10 10v0a10 10 0 0 0 10 10"></path>
<path d="M776 48h20"></path>
<g class="non-terminal">
<path d="M796 48h0"></path>
<path d="M864 48h0"></path>
<rect x="796" y="37" width="68" height="22"></rect>
<a xlink:href="reuse_source.svg"><text x="830" y="52">source</text>
</a>
</g>
<path d="M864 48h20"></path>
</g>
<g>
<path d="M884 48h0"></path>
<path d="M992 48h0"></path>
<path d="M884 48a10 10 0 0 0 10 -10v0a10 10 0 0 1 10 -10"></path>
<g>
<path d="M904 28h68"></path>
</g>
<path d="M972 28a10 10 0 0 1 10 10v0a10 10 0 0 0 10 10"></path>
<path d="M884 48h20"></path>
<g class="non-terminal">
<path d="M904 48h0"></path>
<path d="M972 48h0"></path>
<rect x="904" y="37" width="68" height="22"></rect>
<a xlink:href="reuse_source.svg"><text x="938" y="52">source</text>
</a>
</g>
<path d="M972 48h20"></path>
</g>
<g>
<path d="M992 48h0"></path>
<path d="M1100 48h0"></path>
<path d="M992 48a10 10 0 0 0 10 -10v0a10 10 0 0 1 10 -10"></path>
<g>
<path d="M1012 28h68"></path>
</g>
<path d="M1080 28a10 10 0 0 1 10 10v0a10 10 0 0 0 10 10"></path>
<path d="M992 48h20"></path>
<g class="non-terminal">
<path d="M1012 48h0"></path>
<path d="M1080 48h0"></path>
<rect x="1012" y="37" width="68" height="22"></rect>
<a xlink:href="reuse_source.svg"><text x="1046" y="52">source</text>
</a>
</g>
<path d="M1080 48h20"></path>
</g>
</g>
<path d="M1100 48h20"></path>
</g>
<g>
<path d="M1120 48h0"></path>
<path d="M1316 48h0"></path>
<path d="M1120 48a10 10 0 0 0 10 -10v0a10 10 0 0 1 10 -10"></path>
<g>
<path d="M1140 28h156"></path>
</g>
<path d="M1296 28a10 10 0 0 1 10 10v0a10 10 0 0 0 10 10"></path>
<path d="M1120 48h20"></path>
<g>
<path d="M1140 48h0"></path>
<path d="M1296 48h0"></path>
<g class="terminal">
<path d="M1140 48h0"></path>
<path d="M1208 48h0"></path>
<rect x="1140" y="37" width="68" height="22" rx="10" ry="10"></rect>
<text x="1174" y="52">"TYPE"</text>
</g>
<path d="M1208 48h10"></path>
<path d="M1218 48h10"></path>
<g class="non-terminal">
<path d="M1228 48h0"></path>
<path d="M1296 48h0"></path>
<rect x="1228" y="37" width="68" height="22"></rect>
<a xlink:href="reuse_source.svg"><text x="1262" y="52">source</text>
</a>
</g>
</g>
<path d="M1296 48h20"></path>
</g>
<g>
<path d="M1316 48h0"></path>
<path d="M1576 48h0"></path>
<path d="M1316 48a10 10 0 0 0 10 -10v0a10 10 0 0 1 10 -10"></path>
<g>
<path d="M1336 28h220"></path>
</g>
<path d="M1556 28a10 10 0 0 1 10 10v0a10 10 0 0 0 10 10"></path>
<path d="M1316 48h20"></path>
<g>
<path d="M1336 48h0"></path>
<path d="M1556 48h0"></path>
<g class="terminal">
<path d="M1336 48h0"></path>
<path d="M1468 48h0"></path>
<rect x="1336" y="37" width="132" height="22" rx="10" ry="10"></rect>
<text x="1402" y="52">"DISPLAY LIKE"</text>
</g>
<path d="M1468 48h10"></path>
<path d="M1478 48h10"></path>
<g class="non-terminal">
<path d="M1488 48h0"></path>
<path d="M1556 48h0"></path>
<rect x="1488" y="37" width="68" height="22"></rect>
<a xlink:href="reuse_source.svg"><text x="1522" y="52">source</text>
</a>
</g>
</g>
<path d="M1556 48h20"></path>
</g>
</g>
<path d="M1576 48h20"></path>
<path d="M152 48a10 10 0 0 1 10 10v19a10 10 0 0 0 10 10"></path>
<g>
<path d="M172 87h193"></path>
<path d="M1383 87h193"></path>
<g>
<path d="M365 87h0"></path>
<path d="M505 87h0"></path>
<g class="terminal">
<path d="M365 87h0"></path>
<path d="M417 87h0"></path>
<rect x="365" y="76" width="52" height="22" rx="10" ry="10"></rect>
<text x="391" y="91">"ID"</text>
</g>
<path d="M417 87h10"></path>
<path d="M427 87h10"></path>
<g class="non-terminal">
<path d="M437 87h0"></path>
<path d="M505 87h0"></path>
<rect x="437" y="76" width="68" height="22"></rect>
<a xlink:href="reuse_source.svg"><text x="471" y="91">source</text>
</a>
</g>
</g>
<path d="M505 87h10"></path>
<path d="M515 87h10"></path>
<g>
<path d="M525 87h0"></path>
<path d="M681 87h0"></path>
<g class="terminal">
<path d="M525 87h0"></path>
<path d="M593 87h0"></path>
<rect x="525" y="76" width="68" height="22" rx="10" ry="10"></rect>
<text x="559" y="91">"TYPE"</text>
</g>
<path d="M593 87h10"></path>
<path d="M603 87h10"></path>
<g class="non-terminal">
<path d="M613 87h0"></path>
<path d="M681 87h0"></path>
<rect x="613" y="76" width="68" height="22"></rect>
<a xlink:href="reuse_source.svg"><text x="647" y="91">source</text>
</a>
</g>
</g>
<path d="M681 87h10"></path>
<path d="M691 87h10"></path>
<g>
<path d="M701 87h0"></path>
<path d="M873 87h0"></path>
<g class="terminal">
<path d="M701 87h0"></path>
<path d="M785 87h0"></path>
<rect x="701" y="76" width="84" height="22" rx="10" ry="10"></rect>
<text x="743" y="91">"NUMBER"</text>
</g>
<path d="M785 87h10"></path>
<path d="M795 87h10"></path>
<g class="non-terminal">
<path d="M805 87h0"></path>
<path d="M873 87h0"></path>
<rect x="805" y="76" width="68" height="22"></rect>
<a xlink:href="reuse_source.svg"><text x="839" y="91">source</text>
</a>
</g>
</g>
<path d="M873 87h10"></path>
<path d="M883 87h10"></path>
<g>
<path d="M893 87h0"></path>
<path d="M1383 87h0"></path>
<g class="terminal">
<path d="M893 87h0"></path>
<path d="M961 87h0"></path>
<rect x="893" y="76" width="68" height="22" rx="10" ry="10"></rect>
<text x="927" y="91">"WITH"</text>
</g>
<path d="M961 87h10"></path>
<path d="M971 87h10"></path>
<g class="non-terminal">
<path d="M981 87h0"></path>
<path d="M1049 87h0"></path>
<rect x="981" y="76" width="68" height="22"></rect>
<a xlink:href="reuse_source.svg"><text x="1015" y="91">source</text>
</a>
</g>
<path d="M1049 87h10"></path>
<g>
<path d="M1059 87h0"></path>
<path d="M1167 87h0"></path>
<path d="M1059 87a10 10 0 0 0 10 -10v0a10 10 0 0 1 10 -10"></path>
<g>
<path d="M1079 67h68"></path>
</g>
<path d="M1147 67a10 10 0 0 1 10 10v0a10 10 0 0 0 10 10"></path>
<path d="M1059 87h20"></path>
<g class="non-terminal">
<path d="M1079 87h0"></path>
<path d="M1147 87h0"></path>
<rect x="1079" y="76" width="68" height="22"></rect>
<a xlink:href="reuse_source.svg"><text x="1113" y="91">source</text>
</a>
</g>
<path d="M1147 87h20"></path>
</g>
<g>
<path d="M1167 87h0"></path>
<path d="M1275 87h0"></path>
<path d="M1167 87a10 10 0 0 0 10 -10v0a10 10 0 0 1 10 -10"></path>
<g>
<path d="M1187 67h68"></path>
</g>
<path d="M1255 67a10 10 0 0 1 10 10v0a10 10 0 0 0 10 10"></path>
<path d="M1167 87h20"></path>
<g class="non-terminal">
<path d="M1187 87h0"></path>
<path d="M1255 87h0"></path>
<rect x="1187" y="76" width="68" height="22"></rect>
<a xlink:href="reuse_source.svg"><text x="1221" y="91">source</text>
</a>
</g>
<path d="M1255 87h20"></path>
</g>
<g>
<path d="M1275 87h0"></path>
<path d="M1383 87h0"></path>
<path d="M1275 87a10 10 0 0 0 10 -10v0a10 10 0 0 1 10 -10"></path>
<g>
<path d="M1295 67h68"></path>
</g>
<path d="M1363 67a10 10 0 0 1 10 10v0a10 10 0 0 0 10 10"></path>
<path d="M1275 87h20"></path>
<g class="non-terminal">
<path d="M1295 87h0"></path>
<path d="M1363 87h0"></path>
<rect x="1295" y="76" width="68" height="22"></rect>
<a xlink:href="reuse_source.svg"><text x="1329" y="91">source</text>
</a>
</g>
<path d="M1363 87h20"></path>
</g>
</g>
</g>
<path d="M1576 87a10 10 0 0 0 10 -10v-19a10 10 0 0 1 10 -10"></path>
</g>
<g>
<path d="M1596 48h0"></path>
<path d="M1792 48h0"></path>
<path d="M1596 48a10 10 0 0 0 10 -10v0a10 10 0 0 1 10 -10"></path>
<g>
<path d="M1616 28h156"></path>
</g>
<path d="M1772 28a10 10 0 0 1 10 10v0a10 10 0 0 0 10 10"></path>
<path d="M1596 48h20"></path>
<g>
<path d="M1616 48h0"></path>
<path d="M1772 48h0"></path>
<g class="terminal">
<path d="M1616 48h0"></path>
<path d="M1684 48h0"></path>
<rect x="1616" y="37" width="68" height="22" rx="10" ry="10"></rect>
<text x="1650" y="52">"INTO"</text>
</g>
<path d="M1684 48h10"></path>
<path d="M1694 48h10"></path>
<g class="non-terminal">
<path d="M1704 48h0"></path>
<path d="M1772 48h0"></path>
<rect x="1704" y="37" width="68" height="22"></rect>
<a xlink:href="reuse_target.svg"><text x="1738" y="52">target</text>
</a>
</g>
</g>
<path d="M1772 48h20"></path>
</g>
<g>
<path d="M1792 48h0"></path>
<path d="M2004 48h0"></path>
<path d="M1792 48a10 10 0 0 0 10 -10v0a10 10 0 0 1 10 -10"></path>
<g>
<path d="M1812 28h172"></path>
</g>
<path d="M1984 28a10 10 0 0 1 10 10v0a10 10 0 0 0 10 10"></path>
<path d="M1792 48h20"></path>
<g>
<path d="M1812 48h0"></path>
<path d="M1984 48h0"></path>
<g class="terminal">
<path d="M1812 48h0"></path>
<path d="M1904 48h0"></path>
<rect x="1812" y="37" width="92" height="22" rx="10" ry="10"></rect>
<text x="1858" y="52">"RAISING"</text>
</g>
<path d="M1904 48h10"></path>
<path d="M1914 48h10"></path>
<g class="non-terminal">
<path d="M1924 48h0"></path>
<path d="M1984 48h0"></path>
<rect x="1924" y="37" width="60" height="22"></rect>
<a xlink:href="reuse_field.svg"><text x="1954" y="52">field</text>
</a>
</g>
</g>
<path d="M1984 48h20"></path>
</g>
</g>
<path d="M2004 48h10"></path>
<path d="M 2014 48 h 20 m -10 -10 v 20 m 10 -20 v 20"></path>
</g>
</svg>
