<svg xmlns="http://www.w3.org/2000/svg" xmlns:xlink="http://www.w3.org/1999/xlink" class="railroad-diagram" width="1466" height="110" viewBox="0 0 1466 110">
<defs>
<style type="text/css"><![CDATA[
path {
stroke-width: 3;
stroke: black;
fill: rgba(0,0,0,0);
}
text {
font: bold 14px monospace;
text-anchor: middle;
}
text.diagram-text {
font-size: 12px;
}
a {
fill: blue;
}
text.diagram-arrow {
font-size: 16px;
}
text.label {
text-anchor: start;
}
text.comment {
font: italic 12px monospace;
}
rect {
stroke-width: 3;
stroke: black;
fill: #BCBCBC;
}
path.diagram-text {
stroke-width: 3;
stroke: black;
fill: #BCBCBC;
cursor: help;
}
]]></style>
</defs>
<g transform="translate(.5 .5)">
<path d="M 20 30 v 20 m 10 -20 v 20 m -10 -10 h 20.5"></path>
<path d="M40 40h10"></path>
<g>
<path d="M50 40h0"></path>
<path d="M1416 40h0"></path>
<g class="terminal">
<path d="M50 40h0"></path>
<path d="M142 40h0"></path>
<rect x="50" y="29" width="92" height="22" rx="10" ry="10"></rect>
<text x="96" y="44">"MESSAGE"</text>
</g>
<path d="M142 40h10"></path>
<g>
<path d="M152 40h0"></path>
<path d="M1416 40h0"></path>
<path d="M152 40h20"></path>
<g>
<path d="M172 40h355"></path>
<path d="M1041 40h355"></path>
<g class="non-terminal">
<path d="M527 40h0"></path>
<path d="M595 40h0"></path>
<rect x="527" y="29" width="68" height="22"></rect>
<a xlink:href="reuse_source.svg"><text x="561" y="44">source</text>
</a>
</g>
<path d="M595 40h10"></path>
<path d="M605 40h10"></path>
<g>
<path d="M615 40h0"></path>
<path d="M771 40h0"></path>
<g class="terminal">
<path d="M615 40h0"></path>
<path d="M683 40h0"></path>
<rect x="615" y="29" width="68" height="22" rx="10" ry="10"></rect>
<text x="649" y="44">"TYPE"</text>
</g>
<path d="M683 40h10"></path>
<path d="M693 40h10"></path>
<g class="non-terminal">
<path d="M703 40h0"></path>
<path d="M771 40h0"></path>
<rect x="703" y="29" width="68" height="22"></rect>
<a xlink:href="reuse_source.svg"><text x="737" y="44">source</text>
</a>
</g>
</g>
<path d="M771 40h10"></path>
<g>
<path d="M781 40h0"></path>
<path d="M1041 40h0"></path>
<path d="M781 40a10 10 0 0 0 10 -10v0a10 10 0 0 1 10 -10"></path>
<g>
<path d="M801 20h220"></path>
</g>
<path d="M1021 20a10 10 0 0 1 10 10v0a10 10 0 0 0 10 10"></path>
<path d="M781 40h20"></path>
<g>
<path d="M801 40h0"></path>
<path d="M1021 40h0"></path>
<g class="terminal">
<path d="M801 40h0"></path>
<path d="M933 40h0"></path>
<rect x="801" y="29" width="132" height="22" rx="10" ry="10"></rect>
<text x="867" y="44">"DISPLAY LIKE"</text>
</g>
<path d="M933 40h10"></path>
<path d="M943 40h10"></path>
<g class="non-terminal">
<path d="M953 40h0"></path>
<path d="M1021 40h0"></path>
<rect x="953" y="29" width="68" height="22"></rect>
<a xlink:href="reuse_source.svg"><text x="987" y="44">source</text>
</a>
</g>
</g>
<path d="M1021 40h20"></path>
</g>
</g>
<path d="M1396 40h20"></path>
<path d="M152 40a10 10 0 0 1 10 10v19a10 10 0 0 0 10 10"></path>
<g>
<path d="M172 79h0"></path>
<path d="M1396 79h0"></path>
<g>
<path d="M172 79h0"></path>
<path d="M312 79h0"></path>
<g class="terminal">
<path d="M172 79h0"></path>
<path d="M224 79h0"></path>
<rect x="172" y="68" width="52" height="22" rx="10" ry="10"></rect>
<text x="198" y="83">"ID"</text>
</g>
<path d="M224 79h10"></path>
<path d="M234 79h10"></path>
<g class="non-terminal">
<path d="M244 79h0"></path>
<path d="M312 79h0"></path>
<rect x="244" y="68" width="68" height="22"></rect>
<a xlink:href="reuse_source.svg"><text x="278" y="83">source</text>
</a>
</g>
</g>
<path d="M312 79h10"></path>
<path d="M322 79h10"></path>
<g>
<path d="M332 79h0"></path>
<path d="M488 79h0"></path>
<g class="terminal">
<path d="M332 79h0"></path>
<path d="M400 79h0"></path>
<rect x="332" y="68" width="68" height="22" rx="10" ry="10"></rect>
<text x="366" y="83">"TYPE"</text>
</g>
<path d="M400 79h10"></path>
<path d="M410 79h10"></path>
<g class="non-terminal">
<path d="M420 79h0"></path>
<path d="M488 79h0"></path>
<rect x="420" y="68" width="68" height="22"></rect>
<a xlink:href="reuse_source.svg"><text x="454" y="83">source</text>
</a>
</g>
</g>
<path d="M488 79h10"></path>
<path d="M498 79h10"></path>
<g>
<path d="M508 79h0"></path>
<path d="M680 79h0"></path>
<g class="terminal">
<path d="M508 79h0"></path>
<path d="M592 79h0"></path>
<rect x="508" y="68" width="84" height="22" rx="10" ry="10"></rect>
<text x="550" y="83">"NUMBER"</text>
</g>
<path d="M592 79h10"></path>
<path d="M602 79h10"></path>
<g class="non-terminal">
<path d="M612 79h0"></path>
<path d="M680 79h0"></path>
<rect x="612" y="68" width="68" height="22"></rect>
<a xlink:href="reuse_source.svg"><text x="646" y="83">source</text>
</a>
</g>
</g>
<path d="M680 79h10"></path>
<path d="M690 79h10"></path>
<g>
<path d="M700 79h0"></path>
<path d="M1190 79h0"></path>
<g class="terminal">
<path d="M700 79h0"></path>
<path d="M768 79h0"></path>
<rect x="700" y="68" width="68" height="22" rx="10" ry="10"></rect>
<text x="734" y="83">"WITH"</text>
</g>
<path d="M768 79h10"></path>
<path d="M778 79h10"></path>
<g class="non-terminal">
<path d="M788 79h0"></path>
<path d="M856 79h0"></path>
<rect x="788" y="68" width="68" height="22"></rect>
<a xlink:href="reuse_source.svg"><text x="822" y="83">source</text>
</a>
</g>
<path d="M856 79h10"></path>
<g>
<path d="M866 79h0"></path>
<path d="M974 79h0"></path>
<path d="M866 79a10 10 0 0 0 10 -10v0a10 10 0 0 1 10 -10"></path>
<g>
<path d="M886 59h68"></path>
</g>
<path d="M954 59a10 10 0 0 1 10 10v0a10 10 0 0 0 10 10"></path>
<path d="M866 79h20"></path>
<g class="non-terminal">
<path d="M886 79h0"></path>
<path d="M954 79h0"></path>
<rect x="886" y="68" width="68" height="22"></rect>
<a xlink:href="reuse_source.svg"><text x="920" y="83">source</text>
</a>
</g>
<path d="M954 79h20"></path>
</g>
<g>
<path d="M974 79h0"></path>
<path d="M1082 79h0"></path>
<path d="M974 79a10 10 0 0 0 10 -10v0a10 10 0 0 1 10 -10"></path>
<g>
<path d="M994 59h68"></path>
</g>
<path d="M1062 59a10 10 0 0 1 10 10v0a10 10 0 0 0 10 10"></path>
<path d="M974 79h20"></path>
<g class="non-terminal">
<path d="M994 79h0"></path>
<path d="M1062 79h0"></path>
<rect x="994" y="68" width="68" height="22"></rect>
<a xlink:href="reuse_source.svg"><text x="1028" y="83">source</text>
</a>
</g>
<path d="M1062 79h20"></path>
</g>
<g>
<path d="M1082 79h0"></path>
<path d="M1190 79h0"></path>
<path d="M1082 79a10 10 0 0 0 10 -10v0a10 10 0 0 1 10 -10"></path>
<g>
<path d="M1102 59h68"></path>
</g>
<path d="M1170 59a10 10 0 0 1 10 10v0a10 10 0 0 0 10 10"></path>
<path d="M1082 79h20"></path>
<g class="non-terminal">
<path d="M1102 79h0"></path>
<path d="M1170 79h0"></path>
<rect x="1102" y="68" width="68" height="22"></rect>
<a xlink:href="reuse_source.svg"><text x="1136" y="83">source</text>
</a>
</g>
<path d="M1170 79h20"></path>
</g>
</g>
<path d="M1190 79h10"></path>
<g>
<path d="M1200 79h0"></path>
<path d="M1396 79h0"></path>
<path d="M1200 79a10 10 0 0 0 10 -10v0a10 10 0 0 1 10 -10"></path>
<g>
<path d="M1220 59h156"></path>
</g>
<path d="M1376 59a10 10 0 0 1 10 10v0a10 10 0 0 0 10 10"></path>
<path d="M1200 79h20"></path>
<g>
<path d="M1220 79h0"></path>
<path d="M1376 79h0"></path>
<g class="terminal">
<path d="M1220 79h0"></path>
<path d="M1288 79h0"></path>
<rect x="1220" y="68" width="68" height="22" rx="10" ry="10"></rect>
<text x="1254" y="83">"INTO"</text>
</g>
<path d="M1288 79h10"></path>
<path d="M1298 79h10"></path>
<g class="non-terminal">
<path d="M1308 79h0"></path>
<path d="M1376 79h0"></path>
<rect x="1308" y="68" width="68" height="22"></rect>
<a xlink:href="reuse_target.svg"><text x="1342" y="83">target</text>
</a>
</g>
</g>
<path d="M1376 79h20"></path>
</g>
</g>
<path d="M1396 79a10 10 0 0 0 10 -10v-19a10 10 0 0 1 10 -10"></path>
</g>
</g>
<path d="M1416 40h10"></path>
<path d="M 1426 40 h 20 m -10 -10 v 20 m 10 -20 v 20"></path>
</g>
</svg>
