<svg xmlns="http://www.w3.org/2000/svg" xmlns:xlink="http://www.w3.org/1999/xlink" class="railroad-diagram" width="4316" height="205" viewBox="0 0 4316 205">
<defs>
<style type="text/css"><![CDATA[
path {
stroke-width: 3;
stroke: black;
fill: rgba(0,0,0,0);
}
text {
font: bold 14px monospace;
text-anchor: middle;
}
text.diagram-text {
font-size: 12px;
}
a {
fill: blue;
}
text.diagram-arrow {
font-size: 16px;
}
text.label {
text-anchor: start;
}
text.comment {
font: italic 12px monospace;
}
rect {
stroke-width: 3;
stroke: black;
fill: #BCBCBC;
}
path.diagram-text {
stroke-width: 3;
stroke: black;
fill: #BCBCBC;
cursor: help;
}
]]></style>
</defs>
<g transform="translate(.5 .5)">
<path d="M 20 30 v 20 m 10 -20 v 20 m -10 -10 h 20.5"></path>
<path d="M40 40h10"></path>
<g>
<path d="M50 40h0"></path>
<path d="M4266 40h0"></path>
<g>
<path d="M50 40h0"></path>
<path d="M230 40h0"></path>
<path d="M50 40h20"></path>
<g class="terminal">
<path d="M70 40h0"></path>
<path d="M210 40h0"></path>
<rect x="70" y="29" width="140" height="22" rx="10" ry="10"></rect>
<text x="140" y="44">"CLASS-METHODS"</text>
</g>
<path d="M210 40h20"></path>
<path d="M50 40a10 10 0 0 1 10 10v10a10 10 0 0 0 10 10"></path>
<g class="terminal">
<path d="M70 70h24"></path>
<path d="M186 70h24"></path>
<rect x="94" y="59" width="92" height="22" rx="10" ry="10"></rect>
<text x="140" y="74">"METHODS"</text>
</g>
<path d="M210 70a10 10 0 0 0 10 -10v-10a10 10 0 0 1 10 -10"></path>
</g>
<path d="M230 40h10"></path>
<g class="non-terminal">
<path d="M240 40h0"></path>
<path d="M300 40h0"></path>
<rect x="240" y="29" width="60" height="22"></rect>
<a xlink:href="reuse_field.svg"><text x="270" y="44">field</text>
</a>
</g>
<path d="M300 40h10"></path>
<g>
<path d="M310 40h0"></path>
<path d="M4266 40h0"></path>
<path d="M310 40h20"></path>
<g>
<path d="M330 40h1651"></path>
<path d="M2595 40h1651"></path>
<g class="terminal">
<path d="M1981 40h0"></path>
<path d="M2089 40h0"></path>
<rect x="1981" y="29" width="108" height="22" rx="10" ry="10"></rect>
<text x="2035" y="44">"FOR EVENT"</text>
</g>
<path d="M2089 40h10"></path>
<path d="M2099 40h10"></path>
<g class="non-terminal">
<path d="M2109 40h0"></path>
<path d="M2169 40h0"></path>
<rect x="2109" y="29" width="60" height="22"></rect>
<a xlink:href="reuse_field.svg"><text x="2139" y="44">field</text>
</a>
</g>
<path d="M2169 40h10"></path>
<path d="M2179 40h10"></path>
<g class="terminal">
<path d="M2189 40h0"></path>
<path d="M2241 40h0"></path>
<rect x="2189" y="29" width="52" height="22" rx="10" ry="10"></rect>
<text x="2215" y="44">"OF"</text>
</g>
<path d="M2241 40h10"></path>
<path d="M2251 40h10"></path>
<g class="non-terminal">
<path d="M2261 40h0"></path>
<path d="M2321 40h0"></path>
<rect x="2261" y="29" width="60" height="22"></rect>
<a xlink:href="reuse_field.svg"><text x="2291" y="44">field</text>
</a>
</g>
<path d="M2321 40h10"></path>
<g>
<path d="M2331 40h0"></path>
<path d="M2595 40h0"></path>
<path d="M2331 40a10 10 0 0 0 10 -10v0a10 10 0 0 1 10 -10"></path>
<g>
<path d="M2351 20h224"></path>
</g>
<path d="M2575 20a10 10 0 0 1 10 10v0a10 10 0 0 0 10 10"></path>
<path d="M2331 40h20"></path>
<g>
<path d="M2351 40h0"></path>
<path d="M2575 40h0"></path>
<g class="terminal">
<path d="M2351 40h0"></path>
<path d="M2459 40h0"></path>
<rect x="2351" y="29" width="108" height="22" rx="10" ry="10"></rect>
<text x="2405" y="44">"IMPORTING"</text>
</g>
<path d="M2459 40h10"></path>
<path d="M2469 40h10"></path>
<g>
<path d="M2479 40h0"></path>
<path d="M2575 40h0"></path>
<path d="M2479 40h10"></path>
<g class="terminal">
<path d="M2489 40h0"></path>
<path d="M2565 40h0"></path>
<rect x="2489" y="29" width="76" height="22" rx="10" ry="10"></rect>
<text x="2527" y="44">^!?\w+$</text>
</g>
<path d="M2565 40h10"></path>
<path d="M2489 40a10 10 0 0 0 -10 10v0a10 10 0 0 0 10 10"></path>
<g>
<path d="M2489 60h76"></path>
</g>
<path d="M2565 60a10 10 0 0 0 10 -10v0a10 10 0 0 0 -10 -10"></path>
</g>
</g>
<path d="M2575 40h20"></path>
</g>
</g>
<path d="M4246 40h20"></path>
<path d="M310 40a10 10 0 0 1 10 10v36a10 10 0 0 0 10 10"></path>
<g>
<path d="M330 96h0"></path>
<path d="M4246 96h0"></path>
<g>
<path d="M330 96h0"></path>
<path d="M534 96h0"></path>
<path d="M330 96a10 10 0 0 0 10 -10v0a10 10 0 0 1 10 -10"></path>
<g>
<path d="M350 76h164"></path>
</g>
<path d="M514 76a10 10 0 0 1 10 10v0a10 10 0 0 0 10 10"></path>
<path d="M330 96h20"></path>
<g>
<path d="M350 96h0"></path>
<path d="M514 96h0"></path>
<path d="M350 96h20"></path>
<g class="terminal">
<path d="M370 96h12"></path>
<path d="M482 96h12"></path>
<rect x="382" y="85" width="100" height="22" rx="10" ry="10"></rect>
<text x="432" y="100">"ABSTRACT"</text>
</g>
<path d="M494 96h20"></path>
<path d="M350 96a10 10 0 0 1 10 10v10a10 10 0 0 0 10 10"></path>
<g class="terminal">
<path d="M370 126h0"></path>
<path d="M494 126h0"></path>
<rect x="370" y="115" width="124" height="22" rx="10" ry="10"></rect>
<text x="432" y="130">"FOR TESTING"</text>
</g>
<path d="M494 126a10 10 0 0 0 10 -10v-10a10 10 0 0 1 10 -10"></path>
</g>
<path d="M514 96h20"></path>
</g>
<g>
<path d="M534 96h0"></path>
<path d="M1592 96h0"></path>
<path d="M534 96a10 10 0 0 0 10 -10v-8a10 10 0 0 1 10 -10"></path>
<g>
<path d="M554 68h1018"></path>
</g>
<path d="M1572 68a10 10 0 0 1 10 10v8a10 10 0 0 0 10 10"></path>
<path d="M534 96h20"></path>
<g>
<path d="M554 96h0"></path>
<path d="M1572 96h0"></path>
<g class="terminal">
<path d="M554 96h0"></path>
<path d="M662 96h0"></path>
<rect x="554" y="85" width="108" height="22" rx="10" ry="10"></rect>
<text x="608" y="100">"IMPORTING"</text>
</g>
<path d="M662 96h10"></path>
<path d="M672 96h10"></path>
<g>
<path d="M682 96h0"></path>
<path d="M1572 96h0"></path>
<path d="M682 96h10"></path>
<g>
<path d="M692 96h0"></path>
<path d="M1562 96h0"></path>
<g>
<path d="M692 96h0"></path>
<path d="M1412 96h0"></path>
<g>
<path d="M692 96h0"></path>
<path d="M1272 96h0"></path>
<path d="M692 96h20"></path>
<g>
<path d="M712 96h0"></path>
<path d="M1252 96h0"></path>
<g class="terminal">
<path d="M712 96h0"></path>
<path d="M788 96h0"></path>
<rect x="712" y="85" width="76" height="22" rx="10" ry="10"></rect>
<text x="750" y="100">"VALUE"</text>
</g>
<path d="M788 96h10"></path>
<path d="M798 96h10"></path>
<g class="terminal">
<path d="M808 96h0"></path>
<path d="M964 96h0"></path>
<rect x="808" y="85" width="156" height="22" rx="10" ry="10"></rect>
<text x="886" y="100">Token "ParenLeft"</text>
</g>
<path d="M964 96h10"></path>
<path d="M974 96h10"></path>
<g class="terminal">
<path d="M984 96h0"></path>
<path d="M1060 96h0"></path>
<rect x="984" y="85" width="76" height="22" rx="10" ry="10"></rect>
<text x="1022" y="100">^!?\w+$</text>
</g>
<path d="M1060 96h10"></path>
<path d="M1070 96h10"></path>
<g class="terminal">
<path d="M1080 96h0"></path>
<path d="M1252 96h0"></path>
<rect x="1080" y="85" width="172" height="22" rx="10" ry="10"></rect>
<text x="1166" y="100">Token "ParenRightW"</text>
</g>
</g>
<path d="M1252 96h20"></path>
<path d="M692 96a10 10 0 0 1 10 10v10a10 10 0 0 0 10 10"></path>
<g class="terminal">
<path d="M712 126h232"></path>
<path d="M1020 126h232"></path>
<rect x="944" y="115" width="76" height="22" rx="10" ry="10"></rect>
<text x="982" y="130">^!?\w+$</text>
</g>
<path d="M1252 126a10 10 0 0 0 10 -10v-10a10 10 0 0 1 10 -10"></path>
</g>
<g>
<path d="M1272 96h0"></path>
<path d="M1412 96h0"></path>
<path d="M1272 96h20"></path>
<g class="non-terminal">
<path d="M1292 96h24"></path>
<path d="M1368 96h24"></path>
<rect x="1316" y="85" width="52" height="22"></rect>
<a xlink:href="reuse_type.svg"><text x="1342" y="100">type</text>
</a>
</g>
<path d="M1392 96h20"></path>
<path d="M1272 96a10 10 0 0 1 10 10v10a10 10 0 0 0 10 10"></path>
<g class="non-terminal">
<path d="M1292 126h0"></path>
<path d="M1392 126h0"></path>
<rect x="1292" y="115" width="100" height="22"></rect>
<a xlink:href="reuse_type_table.svg"><text x="1342" y="130">type&#95;table</text>
</a>
</g>
<path d="M1392 126a10 10 0 0 0 10 -10v-10a10 10 0 0 1 10 -10"></path>
</g>
</g>
<path d="M1412 96h10"></path>
<g>
<path d="M1422 96h0"></path>
<path d="M1562 96h0"></path>
<path d="M1422 96a10 10 0 0 0 10 -10v0a10 10 0 0 1 10 -10"></path>
<g>
<path d="M1442 76h100"></path>
</g>
<path d="M1542 76a10 10 0 0 1 10 10v0a10 10 0 0 0 10 10"></path>
<path d="M1422 96h20"></path>
<g class="terminal">
<path d="M1442 96h0"></path>
<path d="M1542 96h0"></path>
<rect x="1442" y="85" width="100" height="22" rx="10" ry="10"></rect>
<text x="1492" y="100">"OPTIONAL"</text>
</g>
<path d="M1542 96h20"></path>
</g>
</g>
<path d="M1562 96h10"></path>
<path d="M692 96a10 10 0 0 0 -10 10v29a10 10 0 0 0 10 10"></path>
<g>
<path d="M692 145h870"></path>
</g>
<path d="M1562 145a10 10 0 0 0 10 -10v-29a10 10 0 0 0 -10 -10"></path>
</g>
</g>
<path d="M1572 96h20"></path>
</g>
<g>
<path d="M1592 96h0"></path>
<path d="M2500 96h0"></path>
<path d="M1592 96a10 10 0 0 0 10 -10v0a10 10 0 0 1 10 -10"></path>
<g>
<path d="M1612 76h868"></path>
</g>
<path d="M2480 76a10 10 0 0 1 10 10v0a10 10 0 0 0 10 10"></path>
<path d="M1592 96h20"></path>
<g>
<path d="M1612 96h0"></path>
<path d="M2480 96h0"></path>
<g class="terminal">
<path d="M1612 96h0"></path>
<path d="M1720 96h0"></path>
<rect x="1612" y="85" width="108" height="22" rx="10" ry="10"></rect>
<text x="1666" y="100">"EXPORTING"</text>
</g>
<path d="M1720 96h10"></path>
<path d="M1730 96h10"></path>
<g>
<path d="M1740 96h0"></path>
<path d="M2480 96h0"></path>
<path d="M1740 96h10"></path>
<g>
<path d="M1750 96h0"></path>
<path d="M2470 96h0"></path>
<g>
<path d="M1750 96h0"></path>
<path d="M2330 96h0"></path>
<path d="M1750 96h20"></path>
<g>
<path d="M1770 96h0"></path>
<path d="M2310 96h0"></path>
<g class="terminal">
<path d="M1770 96h0"></path>
<path d="M1846 96h0"></path>
<rect x="1770" y="85" width="76" height="22" rx="10" ry="10"></rect>
<text x="1808" y="100">"VALUE"</text>
</g>
<path d="M1846 96h10"></path>
<path d="M1856 96h10"></path>
<g class="terminal">
<path d="M1866 96h0"></path>
<path d="M2022 96h0"></path>
<rect x="1866" y="85" width="156" height="22" rx="10" ry="10"></rect>
<text x="1944" y="100">Token "ParenLeft"</text>
</g>
<path d="M2022 96h10"></path>
<path d="M2032 96h10"></path>
<g class="terminal">
<path d="M2042 96h0"></path>
<path d="M2118 96h0"></path>
<rect x="2042" y="85" width="76" height="22" rx="10" ry="10"></rect>
<text x="2080" y="100">^!?\w+$</text>
</g>
<path d="M2118 96h10"></path>
<path d="M2128 96h10"></path>
<g class="terminal">
<path d="M2138 96h0"></path>
<path d="M2310 96h0"></path>
<rect x="2138" y="85" width="172" height="22" rx="10" ry="10"></rect>
<text x="2224" y="100">Token "ParenRightW"</text>
</g>
</g>
<path d="M2310 96h20"></path>
<path d="M1750 96a10 10 0 0 1 10 10v10a10 10 0 0 0 10 10"></path>
<g class="terminal">
<path d="M1770 126h232"></path>
<path d="M2078 126h232"></path>
<rect x="2002" y="115" width="76" height="22" rx="10" ry="10"></rect>
<text x="2040" y="130">^!?\w+$</text>
</g>
<path d="M2310 126a10 10 0 0 0 10 -10v-10a10 10 0 0 1 10 -10"></path>
</g>
<g>
<path d="M2330 96h0"></path>
<path d="M2470 96h0"></path>
<path d="M2330 96h20"></path>
<g class="non-terminal">
<path d="M2350 96h24"></path>
<path d="M2426 96h24"></path>
<rect x="2374" y="85" width="52" height="22"></rect>
<a xlink:href="reuse_type.svg"><text x="2400" y="100">type</text>
</a>
</g>
<path d="M2450 96h20"></path>
<path d="M2330 96a10 10 0 0 1 10 10v10a10 10 0 0 0 10 10"></path>
<g class="non-terminal">
<path d="M2350 126h0"></path>
<path d="M2450 126h0"></path>
<rect x="2350" y="115" width="100" height="22"></rect>
<a xlink:href="reuse_type_table.svg"><text x="2400" y="130">type&#95;table</text>
</a>
</g>
<path d="M2450 126a10 10 0 0 0 10 -10v-10a10 10 0 0 1 10 -10"></path>
</g>
</g>
<path d="M2470 96h10"></path>
<path d="M1750 96a10 10 0 0 0 -10 10v29a10 10 0 0 0 10 10"></path>
<g>
<path d="M1750 145h720"></path>
</g>
<path d="M2470 145a10 10 0 0 0 10 -10v-29a10 10 0 0 0 -10 -10"></path>
</g>
</g>
<path d="M2480 96h20"></path>
</g>
<g>
<path d="M2500 96h0"></path>
<path d="M3056 96h0"></path>
<path d="M2500 96a10 10 0 0 0 10 -10v-8a10 10 0 0 1 10 -10"></path>
<g>
<path d="M2520 68h516"></path>
</g>
<path d="M3036 68a10 10 0 0 1 10 10v8a10 10 0 0 0 10 10"></path>
<path d="M2500 96h20"></path>
<g>
<path d="M2520 96h0"></path>
<path d="M3036 96h0"></path>
<g class="terminal">
<path d="M2520 96h0"></path>
<path d="M2620 96h0"></path>
<rect x="2520" y="85" width="100" height="22" rx="10" ry="10"></rect>
<text x="2570" y="100">"CHANGING"</text>
</g>
<path d="M2620 96h10"></path>
<path d="M2630 96h10"></path>
<g>
<path d="M2640 96h0"></path>
<path d="M3036 96h0"></path>
<path d="M2640 96h10"></path>
<g>
<path d="M2650 96h0"></path>
<path d="M3026 96h0"></path>
<g>
<path d="M2650 96h0"></path>
<path d="M2876 96h0"></path>
<g class="terminal">
<path d="M2650 96h0"></path>
<path d="M2726 96h0"></path>
<rect x="2650" y="85" width="76" height="22" rx="10" ry="10"></rect>
<text x="2688" y="100">^!?\w+$</text>
</g>
<path d="M2726 96h10"></path>
<g>
<path d="M2736 96h0"></path>
<path d="M2876 96h0"></path>
<path d="M2736 96h20"></path>
<g class="non-terminal">
<path d="M2756 96h24"></path>
<path d="M2832 96h24"></path>
<rect x="2780" y="85" width="52" height="22"></rect>
<a xlink:href="reuse_type.svg"><text x="2806" y="100">type</text>
</a>
</g>
<path d="M2856 96h20"></path>
<path d="M2736 96a10 10 0 0 1 10 10v10a10 10 0 0 0 10 10"></path>
<g class="non-terminal">
<path d="M2756 126h0"></path>
<path d="M2856 126h0"></path>
<rect x="2756" y="115" width="100" height="22"></rect>
<a xlink:href="reuse_type_table.svg"><text x="2806" y="130">type&#95;table</text>
</a>
</g>
<path d="M2856 126a10 10 0 0 0 10 -10v-10a10 10 0 0 1 10 -10"></path>
</g>
</g>
<path d="M2876 96h10"></path>
<g>
<path d="M2886 96h0"></path>
<path d="M3026 96h0"></path>
<path d="M2886 96a10 10 0 0 0 10 -10v0a10 10 0 0 1 10 -10"></path>
<g>
<path d="M2906 76h100"></path>
</g>
<path d="M3006 76a10 10 0 0 1 10 10v0a10 10 0 0 0 10 10"></path>
<path d="M2886 96h20"></path>
<g class="terminal">
<path d="M2906 96h0"></path>
<path d="M3006 96h0"></path>
<rect x="2906" y="85" width="100" height="22" rx="10" ry="10"></rect>
<text x="2956" y="100">"OPTIONAL"</text>
</g>
<path d="M3006 96h20"></path>
</g>
</g>
<path d="M3026 96h10"></path>
<path d="M2650 96a10 10 0 0 0 -10 10v29a10 10 0 0 0 10 10"></path>
<g>
<path d="M2650 145h376"></path>
</g>
<path d="M3026 145a10 10 0 0 0 10 -10v-29a10 10 0 0 0 -10 -10"></path>
</g>
</g>
<path d="M3036 96h20"></path>
</g>
<g>
<path d="M3056 96h0"></path>
<path d="M3934 96h0"></path>
<path d="M3056 96a10 10 0 0 0 10 -10v0a10 10 0 0 1 10 -10"></path>
<g>
<path d="M3076 76h838"></path>
</g>
<path d="M3914 76a10 10 0 0 1 10 10v0a10 10 0 0 0 10 10"></path>
<path d="M3056 96h20"></path>
<g>
<path d="M3076 96h0"></path>
<path d="M3914 96h0"></path>
<g class="terminal">
<path d="M3076 96h0"></path>
<path d="M3184 96h0"></path>
<rect x="3076" y="85" width="108" height="22" rx="10" ry="10"></rect>
<text x="3130" y="100">"RETURNING"</text>
</g>
<path d="M3184 96h10"></path>
<path d="M3194 96h10"></path>
<g>
<path d="M3204 96h0"></path>
<path d="M3914 96h0"></path>
<path d="M3204 96h10"></path>
<g>
<path d="M3214 96h0"></path>
<path d="M3904 96h0"></path>
<g>
<path d="M3214 96h0"></path>
<path d="M3754 96h0"></path>
<g class="terminal">
<path d="M3214 96h0"></path>
<path d="M3290 96h0"></path>
<rect x="3214" y="85" width="76" height="22" rx="10" ry="10"></rect>
<text x="3252" y="100">"VALUE"</text>
</g>
<path d="M3290 96h10"></path>
<path d="M3300 96h10"></path>
<g class="terminal">
<path d="M3310 96h0"></path>
<path d="M3466 96h0"></path>
<rect x="3310" y="85" width="156" height="22" rx="10" ry="10"></rect>
<text x="3388" y="100">Token "ParenLeft"</text>
</g>
<path d="M3466 96h10"></path>
<path d="M3476 96h10"></path>
<g class="terminal">
<path d="M3486 96h0"></path>
<path d="M3562 96h0"></path>
<rect x="3486" y="85" width="76" height="22" rx="10" ry="10"></rect>
<text x="3524" y="100">^!?\w+$</text>
</g>
<path d="M3562 96h10"></path>
<path d="M3572 96h10"></path>
<g class="terminal">
<path d="M3582 96h0"></path>
<path d="M3754 96h0"></path>
<rect x="3582" y="85" width="172" height="22" rx="10" ry="10"></rect>
<text x="3668" y="100">Token "ParenRightW"</text>
</g>
</g>
<path d="M3754 96h10"></path>
<g>
<path d="M3764 96h0"></path>
<path d="M3904 96h0"></path>
<path d="M3764 96h20"></path>
<g class="non-terminal">
<path d="M3784 96h24"></path>
<path d="M3860 96h24"></path>
<rect x="3808" y="85" width="52" height="22"></rect>
<a xlink:href="reuse_type.svg"><text x="3834" y="100">type</text>
</a>
</g>
<path d="M3884 96h20"></path>
<path d="M3764 96a10 10 0 0 1 10 10v10a10 10 0 0 0 10 10"></path>
<g class="non-terminal">
<path d="M3784 126h0"></path>
<path d="M3884 126h0"></path>
<rect x="3784" y="115" width="100" height="22"></rect>
<a xlink:href="reuse_type_table.svg"><text x="3834" y="130">type&#95;table</text>
</a>
</g>
<path d="M3884 126a10 10 0 0 0 10 -10v-10a10 10 0 0 1 10 -10"></path>
</g>
</g>
<path d="M3904 96h10"></path>
<path d="M3214 96a10 10 0 0 0 -10 10v29a10 10 0 0 0 10 10"></path>
<g>
<path d="M3214 145h690"></path>
</g>
<path d="M3904 145a10 10 0 0 0 10 -10v-29a10 10 0 0 0 -10 -10"></path>
</g>
</g>
<path d="M3914 96h20"></path>
</g>
<g>
<path d="M3934 96h0"></path>
<path d="M4246 96h0"></path>
<path d="M3934 96a10 10 0 0 0 10 -10v0a10 10 0 0 1 10 -10"></path>
<g>
<path d="M3954 76h272"></path>
</g>
<path d="M4226 76a10 10 0 0 1 10 10v0a10 10 0 0 0 10 10"></path>
<path d="M3934 96h20"></path>
<g>
<path d="M3954 96h0"></path>
<path d="M4226 96h0"></path>
<path d="M3954 96h20"></path>
<g>
<path d="M3974 96h0"></path>
<path d="M4206 96h0"></path>
<g class="terminal">
<path d="M3974 96h0"></path>
<path d="M4066 96h0"></path>
<rect x="3974" y="85" width="92" height="22" rx="10" ry="10"></rect>
<text x="4020" y="100">"RAISING"</text>
</g>
<path d="M4066 96h10"></path>
<path d="M4076 96h10"></path>
<g>
<path d="M4086 96h0"></path>
<path d="M4206 96h0"></path>
<path d="M4086 96h10"></path>
<g class="non-terminal">
<path d="M4096 96h0"></path>
<path d="M4196 96h0"></path>
<rect x="4096" y="85" width="100" height="22"></rect>
<a xlink:href="reuse_class_name.svg"><text x="4146" y="100">class&#95;name</text>
</a>
</g>
<path d="M4196 96h10"></path>
<path d="M4096 96a10 10 0 0 0 -10 10v0a10 10 0 0 0 10 10"></path>
<g>
<path d="M4096 116h100"></path>
</g>
<path d="M4196 116a10 10 0 0 0 10 -10v0a10 10 0 0 0 -10 -10"></path>
</g>
</g>
<path d="M4206 96h20"></path>
<path d="M3954 96a10 10 0 0 1 10 10v19a10 10 0 0 0 10 10"></path>
<g>
<path d="M3974 135h4"></path>
<path d="M4202 135h4"></path>
<g class="terminal">
<path d="M3978 135h0"></path>
<path d="M4094 135h0"></path>
<rect x="3978" y="124" width="116" height="22" rx="10" ry="10"></rect>
<text x="4036" y="139">"EXCEPTIONS"</text>
</g>
<path d="M4094 135h10"></path>
<path d="M4104 135h10"></path>
<g>
<path d="M4114 135h0"></path>
<path d="M4202 135h0"></path>
<path d="M4114 135h10"></path>
<g class="terminal">
<path d="M4124 135h0"></path>
<path d="M4192 135h0"></path>
<rect x="4124" y="124" width="68" height="22" rx="10" ry="10"></rect>
<text x="4158" y="139">^\w+?$</text>
</g>
<path d="M4192 135h10"></path>
<path d="M4124 135a10 10 0 0 0 -10 10v0a10 10 0 0 0 10 10"></path>
<g>
<path d="M4124 155h68"></path>
</g>
<path d="M4192 155a10 10 0 0 0 10 -10v0a10 10 0 0 0 -10 -10"></path>
</g>
</g>
<path d="M4206 135a10 10 0 0 0 10 -10v-19a10 10 0 0 1 10 -10"></path>
</g>
<path d="M4226 96h20"></path>
</g>
</g>
<path d="M4246 96a10 10 0 0 0 10 -10v-36a10 10 0 0 1 10 -10"></path>
<path d="M310 40a10 10 0 0 1 10 10v114a10 10 0 0 0 10 10"></path>
<g class="terminal">
<path d="M330 174h1892"></path>
<path d="M2354 174h1892"></path>
<rect x="2222" y="163" width="132" height="22" rx="10" ry="10"></rect>
<text x="2288" y="178">"REDEFINITION"</text>
</g>
<path d="M4246 174a10 10 0 0 0 10 -10v-114a10 10 0 0 1 10 -10"></path>
</g>
</g>
<path d="M4266 40h10"></path>
<path d="M 4276 40 h 20 m -10 -10 v 20 m 10 -20 v 20"></path>
</g>
</svg>
