<?xml version="1.0" encoding="UTF-8" standalone="no"?>
<!DOCTYPE svg PUBLIC "-//W3C//DTD SVG 1.1//EN"
 "http://www.w3.org/Graphics/SVG/1.1/DTD/svg11.dtd">
<!-- Generated by graphviz version 2.38.0 (20140413.2041)
 -->
<!-- Title: method_call Pages: 1 -->
<svg width="532pt" height="1052pt"
 viewBox="0.00 0.00 532.00 1052.00" xmlns="http://www.w3.org/2000/svg" xmlns:xlink="http://www.w3.org/1999/xlink">
<g id="graph0" class="graph" transform="scale(1 1) rotate(0) translate(4 1048)">
<title>method_call</title>
<polygon fill="white" stroke="none" points="-4,4 -4,-1048 528,-1048 528,4 -4,4"/>
<!-- start -->
<g id="node1" class="node"><title>start</title>
<polygon fill="none" stroke="blue" points="338,-1044 284,-1044 284,-1008 338,-1008 338,-1044"/>
<text text-anchor="middle" x="311" y="-1021.8" font-family="Times,serif" font-size="14.00">Start</text>
</g>
<!-- node105 -->
<g id="node16" class="node"><title>node105</title>
<g id="a_node16"><a xlink:href="field.svg" xlink:title="&lt;u&gt;field&lt;/u&gt;">
<ellipse fill="none" stroke="black" cx="311" cy="-954" rx="28.9696" ry="18"/>
<text text-anchor="start" x="298.172" y="-950.8" font-family="Times,serif" text-decoration="underline" font-size="14.00" fill="blue">field</text>
</a>
</g>
</g>
<!-- start&#45;&gt;node105 -->
<g id="edge31" class="edge"><title>start&#45;&gt;node105</title>
<path fill="none" stroke="black" d="M311,-1007.7C311,-999.983 311,-990.712 311,-982.112"/>
<polygon fill="black" stroke="black" points="314.5,-982.104 311,-972.104 307.5,-982.104 314.5,-982.104"/>
</g>
<!-- end -->
<g id="node2" class="node"><title>end</title>
<polygon fill="none" stroke="blue" points="227,-36 173,-36 173,-0 227,-0 227,-36"/>
<text text-anchor="middle" x="200" y="-13.8" font-family="Times,serif" font-size="14.00">End</text>
</g>
<!-- node92 -->
<g id="node3" class="node"><title>node92</title>
<ellipse fill="none" stroke="black" cx="200" cy="-90" rx="27" ry="18"/>
<text text-anchor="middle" x="200" y="-85.8" font-family="Times,serif" font-size="14.00">&quot;)&quot;</text>
</g>
<!-- node92&#45;&gt;end -->
<g id="edge1" class="edge"><title>node92&#45;&gt;end</title>
<path fill="none" stroke="black" d="M200,-71.6966C200,-63.9827 200,-54.7125 200,-46.1124"/>
<polygon fill="black" stroke="black" points="203.5,-46.1043 200,-36.1043 196.5,-46.1044 203.5,-46.1043"/>
</g>
<!-- node93 -->
<g id="node4" class="node"><title>node93</title>
<ellipse fill="none" stroke="black" cx="27" cy="-738" rx="27" ry="18"/>
<text text-anchor="middle" x="27" y="-733.8" font-family="Times,serif" font-size="14.00">.*</text>
</g>
<!-- node93&#45;&gt;node92 -->
<g id="edge2" class="edge"><title>node93&#45;&gt;node92</title>
<path fill="none" stroke="black" d="M24.8268,-719.984C21.621,-693.369 16,-640.25 16,-595 16,-595 16,-595 16,-233 16,-186.962 34.0585,-173.977 69,-144 96.6121,-120.311 136.19,-106.283 164.607,-98.6714"/>
<polygon fill="black" stroke="black" points="165.698,-102.006 174.529,-96.1516 163.975,-95.221 165.698,-102.006"/>
</g>
<!-- node94 -->
<g id="node5" class="node"><title>node94</title>
<g id="a_node5"><a xlink:href="parameter_list_t.svg" xlink:title="&lt;u&gt;parameter_list_t&lt;/u&gt;">
<ellipse fill="none" stroke="black" cx="200" cy="-162" rx="73.5695" ry="18"/>
<text text-anchor="start" x="154.516" y="-158.8" font-family="Times,serif" text-decoration="underline" font-size="14.00" fill="blue">parameter_list_t</text>
</a>
</g>
</g>
<!-- node94&#45;&gt;node92 -->
<g id="edge3" class="edge"><title>node94&#45;&gt;node92</title>
<path fill="none" stroke="black" d="M200,-143.697C200,-135.983 200,-126.712 200,-118.112"/>
<polygon fill="black" stroke="black" points="203.5,-118.104 200,-108.104 196.5,-118.104 203.5,-118.104"/>
</g>
<!-- node95 -->
<g id="node6" class="node"><title>node95</title>
<ellipse fill="none" stroke="black" cx="200" cy="-234" rx="77.8372" ry="18"/>
<text text-anchor="middle" x="200" y="-229.8" font-family="Times,serif" font-size="14.00">&quot;EXCEPTIONS&quot;</text>
</g>
<!-- node95&#45;&gt;node94 -->
<g id="edge4" class="edge"><title>node95&#45;&gt;node94</title>
<path fill="none" stroke="black" d="M200,-215.697C200,-207.983 200,-198.712 200,-190.112"/>
<polygon fill="black" stroke="black" points="203.5,-190.104 200,-180.104 196.5,-190.104 203.5,-190.104"/>
</g>
<!-- node96 -->
<g id="node7" class="node"><title>node96</title>
<g id="a_node7"><a xlink:href="parameter_t.svg" xlink:title="&lt;u&gt;parameter_t&lt;/u&gt;">
<ellipse fill="none" stroke="black" cx="391" cy="-306" rx="57.2992" ry="18"/>
<text text-anchor="start" x="357.574" y="-302.8" font-family="Times,serif" text-decoration="underline" font-size="14.00" fill="blue">parameter_t</text>
</a>
</g>
</g>
<!-- node96&#45;&gt;node92 -->
<g id="edge6" class="edge"><title>node96&#45;&gt;node92</title>
<path fill="none" stroke="black" d="M387.68,-287.622C380.669,-255.305 361.463,-185.486 320,-144 296.833,-120.82 261.795,-106.953 235.552,-99.2535"/>
<polygon fill="black" stroke="black" points="236.185,-95.7974 225.614,-96.506 234.32,-102.544 236.185,-95.7974"/>
</g>
<!-- node96&#45;&gt;node95 -->
<g id="edge5" class="edge"><title>node96&#45;&gt;node95</title>
<path fill="none" stroke="black" d="M355.074,-291.834C325.175,-280.876 282.303,-265.164 249.212,-253.036"/>
<polygon fill="black" stroke="black" points="250.314,-249.712 239.72,-249.557 247.905,-256.285 250.314,-249.712"/>
</g>
<!-- node97 -->
<g id="node8" class="node"><title>node97</title>
<ellipse fill="none" stroke="black" cx="410" cy="-378" rx="70.8752" ry="18"/>
<text text-anchor="middle" x="410" y="-373.8" font-family="Times,serif" font-size="14.00">&quot;RECEIVING&quot;</text>
</g>
<!-- node97&#45;&gt;node96 -->
<g id="edge7" class="edge"><title>node97&#45;&gt;node96</title>
<path fill="none" stroke="black" d="M405.303,-359.697C403.187,-351.898 400.638,-342.509 398.282,-333.829"/>
<polygon fill="black" stroke="black" points="401.64,-332.838 395.643,-324.104 394.884,-334.672 401.64,-332.838"/>
</g>
<!-- node98 -->
<g id="node9" class="node"><title>node98</title>
<g id="a_node9"><a xlink:href="parameter_list_t.svg" xlink:title="&lt;u&gt;parameter_list_t&lt;/u&gt;">
<ellipse fill="none" stroke="black" cx="308" cy="-450" rx="73.5695" ry="18"/>
<text text-anchor="start" x="262.516" y="-446.8" font-family="Times,serif" text-decoration="underline" font-size="14.00" fill="blue">parameter_list_t</text>
</a>
</g>
</g>
<!-- node98&#45;&gt;node92 -->
<g id="edge10" class="edge"><title>node98&#45;&gt;node92</title>
<path fill="none" stroke="black" d="M307.605,-431.952C307.022,-405.294 306,-352.119 306,-307 306,-307 306,-307 306,-233 306,-192.145 306.994,-177.067 283,-144 270.207,-126.37 249.59,-113.16 232.105,-104.339"/>
<polygon fill="black" stroke="black" points="233.315,-101.038 222.783,-99.8888 230.3,-107.355 233.315,-101.038"/>
</g>
<!-- node98&#45;&gt;node95 -->
<g id="edge9" class="edge"><title>node98&#45;&gt;node95</title>
<path fill="none" stroke="black" d="M299.344,-431.849C280.458,-394.426 235.456,-305.255 213.086,-260.93"/>
<polygon fill="black" stroke="black" points="216.177,-259.286 208.547,-251.935 209.928,-262.44 216.177,-259.286"/>
</g>
<!-- node98&#45;&gt;node97 -->
<g id="edge8" class="edge"><title>node98&#45;&gt;node97</title>
<path fill="none" stroke="black" d="M331.657,-432.765C345.432,-423.311 362.985,-411.265 377.983,-400.972"/>
<polygon fill="black" stroke="black" points="380.206,-403.692 386.471,-395.147 376.245,-397.92 380.206,-403.692"/>
</g>
<!-- node99 -->
<g id="node10" class="node"><title>node99</title>
<ellipse fill="none" stroke="black" cx="350" cy="-522" rx="70.2956" ry="18"/>
<text text-anchor="middle" x="350" y="-517.8" font-family="Times,serif" font-size="14.00">&quot;CHANGING&quot;</text>
</g>
<!-- node99&#45;&gt;node98 -->
<g id="edge11" class="edge"><title>node99&#45;&gt;node98</title>
<path fill="none" stroke="black" d="M339.833,-504.055C334.953,-495.922 328.999,-485.998 323.566,-476.943"/>
<polygon fill="black" stroke="black" points="326.511,-475.049 318.365,-468.275 320.509,-478.651 326.511,-475.049"/>
</g>
<!-- node100 -->
<g id="node11" class="node"><title>node100</title>
<g id="a_node11"><a xlink:href="parameter_list_t.svg" xlink:title="&lt;u&gt;parameter_list_t&lt;/u&gt;">
<ellipse fill="none" stroke="black" cx="232" cy="-594" rx="73.5695" ry="18"/>
<text text-anchor="start" x="186.516" y="-590.8" font-family="Times,serif" text-decoration="underline" font-size="14.00" fill="blue">parameter_list_t</text>
</a>
</g>
</g>
<!-- node100&#45;&gt;node92 -->
<g id="edge15" class="edge"><title>node100&#45;&gt;node92</title>
<path fill="none" stroke="black" d="M223.521,-575.826C199.875,-526.805 133.586,-381.422 113,-252 109.316,-228.841 115.842,-145.981 117,-144 128.066,-125.07 148.875,-111.806 166.889,-103.281"/>
<polygon fill="black" stroke="black" points="168.793,-106.266 176.529,-99.0262 165.967,-99.8617 168.793,-106.266"/>
</g>
<!-- node100&#45;&gt;node95 -->
<g id="edge14" class="edge"><title>node100&#45;&gt;node95</title>
<path fill="none" stroke="black" d="M226.739,-575.698C219.141,-549.142 206,-496.614 206,-451 206,-451 206,-451 206,-377 206,-336.96 203.589,-290.627 201.824,-262.065"/>
<polygon fill="black" stroke="black" points="205.314,-261.797 201.185,-252.039 198.328,-262.242 205.314,-261.797"/>
</g>
<!-- node100&#45;&gt;node97 -->
<g id="edge13" class="edge"><title>node100&#45;&gt;node97</title>
<path fill="none" stroke="black" d="M235.055,-575.697C239.494,-555.631 249.653,-522.898 271,-504 312.691,-467.091 353.256,-508.937 391,-468 406.271,-451.437 410.425,-425.712 411.108,-406.171"/>
<polygon fill="black" stroke="black" points="414.609,-406.073 411.179,-396.049 407.609,-406.024 414.609,-406.073"/>
</g>
<!-- node100&#45;&gt;node99 -->
<g id="edge12" class="edge"><title>node100&#45;&gt;node99</title>
<path fill="none" stroke="black" d="M258.776,-577.116C275.221,-567.36 296.484,-554.747 314.344,-544.152"/>
<polygon fill="black" stroke="black" points="316.515,-546.933 323.33,-538.821 312.944,-540.913 316.515,-546.933"/>
</g>
<!-- node101 -->
<g id="node12" class="node"><title>node101</title>
<ellipse fill="none" stroke="black" cx="309" cy="-666" rx="72.6006" ry="18"/>
<text text-anchor="middle" x="309" y="-661.8" font-family="Times,serif" font-size="14.00">&quot;IMPORTING&quot;</text>
</g>
<!-- node101&#45;&gt;node100 -->
<g id="edge16" class="edge"><title>node101&#45;&gt;node100</title>
<path fill="none" stroke="black" d="M290.752,-648.411C280.875,-639.432 268.512,-628.193 257.678,-618.344"/>
<polygon fill="black" stroke="black" points="259.871,-615.607 250.117,-611.47 255.162,-620.787 259.871,-615.607"/>
</g>
<!-- node102 -->
<g id="node13" class="node"><title>node102</title>
<g id="a_node13"><a xlink:href="parameter_list_s.svg" xlink:title="&lt;u&gt;parameter_list_s&lt;/u&gt;">
<ellipse fill="none" stroke="black" cx="208" cy="-738" rx="74.713" ry="18"/>
<text text-anchor="start" x="161.739" y="-734.8" font-family="Times,serif" text-decoration="underline" font-size="14.00" fill="blue">parameter_list_s</text>
</a>
</g>
</g>
<!-- node102&#45;&gt;node92 -->
<g id="edge21" class="edge"><title>node102&#45;&gt;node92</title>
<path fill="none" stroke="black" d="M171.113,-722.283C125.554,-701.385 54,-658.461 54,-595 54,-595 54,-595 54,-233 54,-169.72 125.352,-125.518 168.295,-104.646"/>
<polygon fill="black" stroke="black" points="169.948,-107.736 177.507,-100.313 166.969,-101.402 169.948,-107.736"/>
</g>
<!-- node102&#45;&gt;node95 -->
<g id="edge20" class="edge"><title>node102&#45;&gt;node95</title>
<path fill="none" stroke="black" d="M191.458,-720.272C168.562,-695.264 130,-645.629 130,-595 130,-595 130,-595 130,-521 130,-422.962 169.288,-311.299 188.997,-261.451"/>
<polygon fill="black" stroke="black" points="192.292,-262.637 192.772,-252.053 185.797,-260.027 192.292,-262.637"/>
</g>
<!-- node102&#45;&gt;node97 -->
<g id="edge19" class="edge"><title>node102&#45;&gt;node97</title>
<path fill="none" stroke="black" d="M274.06,-729.502C311.33,-722.586 357.08,-709.336 391,-684 428.633,-655.89 448,-641.973 448,-595 448,-595 448,-595 448,-521 448,-479.633 432.765,-433.722 421.588,-405.605"/>
<polygon fill="black" stroke="black" points="424.721,-404.019 417.69,-396.093 418.244,-406.673 424.721,-404.019"/>
</g>
<!-- node102&#45;&gt;node99 -->
<g id="edge18" class="edge"><title>node102&#45;&gt;node99</title>
<path fill="none" stroke="black" d="M207.156,-719.899C207.112,-700.329 209.974,-668.363 227,-648 254.106,-615.582 285.324,-642.083 315,-612 331.604,-595.168 340.566,-569.522 345.25,-550.077"/>
<polygon fill="black" stroke="black" points="348.675,-550.796 347.38,-540.28 341.835,-549.308 348.675,-550.796"/>
</g>
<!-- node102&#45;&gt;node101 -->
<g id="edge17" class="edge"><title>node102&#45;&gt;node101</title>
<path fill="none" stroke="black" d="M231.425,-720.765C245.065,-711.311 262.446,-699.265 277.297,-688.972"/>
<polygon fill="black" stroke="black" points="279.476,-691.72 285.702,-683.147 275.489,-685.967 279.476,-691.72"/>
</g>
<!-- node103 -->
<g id="node14" class="node"><title>node103</title>
<ellipse fill="none" stroke="black" cx="209" cy="-810" rx="73.7446" ry="18"/>
<text text-anchor="middle" x="209" y="-805.8" font-family="Times,serif" font-size="14.00">&quot;EXPORTING&quot;</text>
</g>
<!-- node103&#45;&gt;node102 -->
<g id="edge22" class="edge"><title>node103&#45;&gt;node102</title>
<path fill="none" stroke="black" d="M208.753,-791.697C208.643,-783.983 208.51,-774.712 208.387,-766.112"/>
<polygon fill="black" stroke="black" points="211.887,-766.053 208.244,-756.104 204.888,-766.153 211.887,-766.053"/>
</g>
<!-- node104 -->
<g id="node15" class="node"><title>node104</title>
<ellipse fill="none" stroke="black" cx="311" cy="-882" rx="27" ry="18"/>
<text text-anchor="middle" x="311" y="-877.8" font-family="Times,serif" font-size="14.00">&quot;(&quot;</text>
</g>
<!-- node104&#45;&gt;node92 -->
<g id="edge29" class="edge"><title>node104&#45;&gt;node92</title>
<path fill="none" stroke="black" d="M336.693,-876.436C393.344,-864.741 524,-828.109 524,-739 524,-739 524,-739 524,-233 524,-108.897 322.128,-92.2389 237.076,-90.7278"/>
<polygon fill="black" stroke="black" points="237.107,-87.228 227.067,-90.611 237.025,-94.2275 237.107,-87.228"/>
</g>
<!-- node104&#45;&gt;node93 -->
<g id="edge23" class="edge"><title>node104&#45;&gt;node93</title>
<path fill="none" stroke="black" d="M283.685,-881.588C236.964,-881.229 140.693,-874.391 78,-828 57.0587,-812.504 43.3973,-785.657 35.5338,-765.491"/>
<polygon fill="black" stroke="black" points="38.7589,-764.119 32.0376,-755.929 32.1846,-766.523 38.7589,-764.119"/>
</g>
<!-- node104&#45;&gt;node95 -->
<g id="edge28" class="edge"><title>node104&#45;&gt;node95</title>
<path fill="none" stroke="black" d="M283.812,-880.528C244.179,-878.397 170.434,-868.772 126,-828 94.8005,-799.372 92,-781.344 92,-739 92,-739 92,-739 92,-449 92,-373.555 146.161,-297.645 177.774,-259.764"/>
<polygon fill="black" stroke="black" points="180.705,-261.72 184.526,-251.838 175.377,-257.18 180.705,-261.72"/>
</g>
<!-- node104&#45;&gt;node97 -->
<g id="edge27" class="edge"><title>node104&#45;&gt;node97</title>
<path fill="none" stroke="black" d="M335.333,-873.893C383.418,-858.185 486,-815.686 486,-739 486,-739 486,-739 486,-521 486,-475.388 455.142,-430.248 432.751,-403.498"/>
<polygon fill="black" stroke="black" points="435.299,-401.094 426.118,-395.807 429.998,-405.665 435.299,-401.094"/>
</g>
<!-- node104&#45;&gt;node99 -->
<g id="edge26" class="edge"><title>node104&#45;&gt;node99</title>
<path fill="none" stroke="black" d="M328.699,-867.861C357.175,-845.064 410,-795.199 410,-739 410,-739 410,-739 410,-665 410,-621.479 385.789,-575.951 368.127,-548.526"/>
<polygon fill="black" stroke="black" points="370.879,-546.344 362.432,-539.949 365.047,-550.216 370.879,-546.344"/>
</g>
<!-- node104&#45;&gt;node101 -->
<g id="edge25" class="edge"><title>node104&#45;&gt;node101</title>
<path fill="none" stroke="black" d="M310.84,-863.849C310.494,-826.832 309.675,-739.181 309.256,-694.386"/>
<polygon fill="black" stroke="black" points="312.754,-694.199 309.161,-684.232 305.755,-694.265 312.754,-694.199"/>
</g>
<!-- node104&#45;&gt;node103 -->
<g id="edge24" class="edge"><title>node104&#45;&gt;node103</title>
<path fill="none" stroke="black" d="M292.764,-868.485C278.418,-858.64 258.074,-844.678 241.027,-832.979"/>
<polygon fill="black" stroke="black" points="242.688,-829.875 232.463,-827.102 238.728,-835.646 242.688,-829.875"/>
</g>
<!-- node105&#45;&gt;node104 -->
<g id="edge30" class="edge"><title>node105&#45;&gt;node104</title>
<path fill="none" stroke="black" d="M311,-935.697C311,-927.983 311,-918.712 311,-910.112"/>
<polygon fill="black" stroke="black" points="314.5,-910.104 311,-900.104 307.5,-910.104 314.5,-910.104"/>
</g>
</g>
</svg>
