<svg xmlns="http://www.w3.org/2000/svg" xmlns:xlink="http://www.w3.org/1999/xlink" class="railroad-diagram" width="3570" height="217" viewBox="0 0 3570 217">
<defs>
<style type="text/css"><![CDATA[
path {
stroke-width: 3;
stroke: black;
fill: rgba(0,0,0,0);
}
text {
font: bold 14px monospace;
text-anchor: middle;
}
text.diagram-text {
font-size: 12px;
}
a {
fill: blue;
}
text.diagram-arrow {
font-size: 16px;
}
text.label {
text-anchor: start;
}
text.comment {
font: italic 12px monospace;
}
rect {
stroke-width: 3;
stroke: black;
fill: #BCBCBC;
}
path.diagram-text {
stroke-width: 3;
stroke: black;
fill: #BCBCBC;
cursor: help;
}
]]></style>
</defs>
<g transform="translate(.5 .5)">
<path d="M 20 30 v 20 m 10 -20 v 20 m -10 -10 h 20.5"></path>
<path d="M40 40h10"></path>
<g>
<path d="M50 40h0"></path>
<path d="M3520 40h0"></path>
<g>
<path d="M50 40h0"></path>
<path d="M230 40h0"></path>
<path d="M50 40h20"></path>
<g class="terminal">
<path d="M70 40h0"></path>
<path d="M210 40h0"></path>
<rect x="70" y="29" width="140" height="22" rx="10" ry="10"></rect>
<text x="140" y="44">"CLASS-METHODS"</text>
</g>
<path d="M210 40h20"></path>
<path d="M50 40a10 10 0 0 1 10 10v10a10 10 0 0 0 10 10"></path>
<g class="terminal">
<path d="M70 70h0"></path>
<path d="M162 70h48"></path>
<rect x="70" y="59" width="92" height="22" rx="10" ry="10"></rect>
<text x="116" y="74">"METHODS"</text>
</g>
<path d="M210 70a10 10 0 0 0 10 -10v-10a10 10 0 0 1 10 -10"></path>
</g>
<path d="M230 40h10"></path>
<g class="non-terminal">
<path d="M240 40h0"></path>
<path d="M300 40h0"></path>
<rect x="240" y="29" width="60" height="22"></rect>
<a xlink:href="reuse_Field.svg"><text x="270" y="44">Field</text>
</a>
</g>
<path d="M300 40h10"></path>
<g>
<path d="M310 40h0"></path>
<path d="M3520 40h0"></path>
<path d="M310 40h20"></path>
<g>
<path d="M330 40h0"></path>
<path d="M1024 40h2476"></path>
<g class="terminal">
<path d="M330 40h0"></path>
<path d="M438 40h0"></path>
<rect x="330" y="29" width="108" height="22" rx="10" ry="10"></rect>
<text x="384" y="44">"FOR EVENT"</text>
</g>
<path d="M438 40h10"></path>
<path d="M448 40h10"></path>
<g class="non-terminal">
<path d="M458 40h0"></path>
<path d="M518 40h0"></path>
<rect x="458" y="29" width="60" height="22"></rect>
<a xlink:href="reuse_Field.svg"><text x="488" y="44">Field</text>
</a>
</g>
<path d="M518 40h10"></path>
<path d="M528 40h10"></path>
<g class="terminal">
<path d="M538 40h0"></path>
<path d="M590 40h0"></path>
<rect x="538" y="29" width="52" height="22" rx="10" ry="10"></rect>
<text x="564" y="44">"OF"</text>
</g>
<path d="M590 40h10"></path>
<path d="M600 40h10"></path>
<g class="non-terminal">
<path d="M610 40h0"></path>
<path d="M670 40h0"></path>
<rect x="610" y="29" width="60" height="22"></rect>
<a xlink:href="reuse_Field.svg"><text x="640" y="44">Field</text>
</a>
</g>
<path d="M670 40h10"></path>
<g>
<path d="M680 40h0"></path>
<path d="M1024 40h0"></path>
<path d="M680 40a10 10 0 0 0 10 -10v0a10 10 0 0 1 10 -10"></path>
<g>
<path d="M700 20h304"></path>
</g>
<path d="M1004 20a10 10 0 0 1 10 10v0a10 10 0 0 0 10 10"></path>
<path d="M680 40h20"></path>
<g>
<path d="M700 40h0"></path>
<path d="M1004 40h0"></path>
<g class="terminal">
<path d="M700 40h0"></path>
<path d="M808 40h0"></path>
<rect x="700" y="29" width="108" height="22" rx="10" ry="10"></rect>
<text x="754" y="44">"IMPORTING"</text>
</g>
<path d="M808 40h10"></path>
<path d="M818 40h10"></path>
<g>
<path d="M828 40h0"></path>
<path d="M1004 40h0"></path>
<path d="M828 40h10"></path>
<g class="terminal">
<path d="M838 40h0"></path>
<path d="M994 40h0"></path>
<rect x="838" y="29" width="156" height="22" rx="10" ry="10"></rect>
<text x="916" y="44">^!?(\/\w+\/)?\w+$</text>
</g>
<path d="M994 40h10"></path>
<path d="M838 40a10 10 0 0 0 -10 10v0a10 10 0 0 0 10 10"></path>
<g>
<path d="M838 60h156"></path>
</g>
<path d="M994 60a10 10 0 0 0 10 -10v0a10 10 0 0 0 -10 -10"></path>
</g>
</g>
<path d="M1004 40h20"></path>
</g>
</g>
<path d="M3500 40h20"></path>
<path d="M310 40a10 10 0 0 1 10 10v36a10 10 0 0 0 10 10"></path>
<g>
<path d="M330 96h0"></path>
<path d="M3500 96h0"></path>
<g>
<path d="M330 96h0"></path>
<path d="M534 96h0"></path>
<path d="M330 96a10 10 0 0 0 10 -10v0a10 10 0 0 1 10 -10"></path>
<g>
<path d="M350 76h164"></path>
</g>
<path d="M514 76a10 10 0 0 1 10 10v0a10 10 0 0 0 10 10"></path>
<path d="M330 96h20"></path>
<g>
<path d="M350 96h0"></path>
<path d="M514 96h0"></path>
<path d="M350 96h20"></path>
<g class="terminal">
<path d="M370 96h0"></path>
<path d="M470 96h24"></path>
<rect x="370" y="85" width="100" height="22" rx="10" ry="10"></rect>
<text x="420" y="100">"ABSTRACT"</text>
</g>
<path d="M494 96h20"></path>
<path d="M350 96a10 10 0 0 1 10 10v10a10 10 0 0 0 10 10"></path>
<g class="terminal">
<path d="M370 126h0"></path>
<path d="M446 126h48"></path>
<rect x="370" y="115" width="76" height="22" rx="10" ry="10"></rect>
<text x="408" y="130">"FINAL"</text>
</g>
<path d="M494 126a10 10 0 0 0 10 -10v-10a10 10 0 0 1 10 -10"></path>
<path d="M350 96a10 10 0 0 1 10 10v40a10 10 0 0 0 10 10"></path>
<g class="terminal">
<path d="M370 156h0"></path>
<path d="M494 156h0"></path>
<rect x="370" y="145" width="124" height="22" rx="10" ry="10"></rect>
<text x="432" y="160">"FOR TESTING"</text>
</g>
<path d="M494 156a10 10 0 0 0 10 -10v-40a10 10 0 0 1 10 -10"></path>
</g>
<path d="M514 96h20"></path>
</g>
<g>
<path d="M534 96h0"></path>
<path d="M1614 96h0"></path>
<path d="M534 96a10 10 0 0 0 10 -10v-8a10 10 0 0 1 10 -10"></path>
<g>
<path d="M554 68h1040"></path>
</g>
<path d="M1594 68a10 10 0 0 1 10 10v8a10 10 0 0 0 10 10"></path>
<path d="M534 96h20"></path>
<g>
<path d="M554 96h0"></path>
<path d="M1594 96h0"></path>
<g class="terminal">
<path d="M554 96h0"></path>
<path d="M662 96h0"></path>
<rect x="554" y="85" width="108" height="22" rx="10" ry="10"></rect>
<text x="608" y="100">"IMPORTING"</text>
</g>
<path d="M662 96h10"></path>
<path d="M672 96h10"></path>
<g>
<path d="M682 96h0"></path>
<path d="M1180 96h0"></path>
<path d="M682 96h10"></path>
<g>
<path d="M692 96h0"></path>
<path d="M1170 96h0"></path>
<g>
<path d="M692 96h0"></path>
<path d="M1020 96h0"></path>
<g>
<path d="M692 96h0"></path>
<path d="M888 96h0"></path>
<path d="M692 96h20"></path>
<g class="non-terminal">
<path d="M712 96h0"></path>
<path d="M820 96h48"></path>
<rect x="712" y="85" width="108" height="22"></rect>
<a xlink:href="reuse_PassByValue.svg"><text x="766" y="100">PassByValue</text>
</a>
</g>
<path d="M868 96h20"></path>
<path d="M692 96a10 10 0 0 1 10 10v10a10 10 0 0 0 10 10"></path>
<g class="terminal">
<path d="M712 126h0"></path>
<path d="M868 126h0"></path>
<rect x="712" y="115" width="156" height="22" rx="10" ry="10"></rect>
<text x="790" y="130">^!?(\/\w+\/)?\w+$</text>
</g>
<path d="M868 126a10 10 0 0 0 10 -10v-10a10 10 0 0 1 10 -10"></path>
</g>
<g>
<path d="M888 96h0"></path>
<path d="M1020 96h0"></path>
<path d="M888 96h20"></path>
<g class="non-terminal">
<path d="M908 96h0"></path>
<path d="M960 96h40"></path>
<rect x="908" y="85" width="52" height="22"></rect>
<a xlink:href="reuse_Type.svg"><text x="934" y="100">Type</text>
</a>
</g>
<path d="M1000 96h20"></path>
<path d="M888 96a10 10 0 0 1 10 10v10a10 10 0 0 0 10 10"></path>
<g class="non-terminal">
<path d="M908 126h0"></path>
<path d="M1000 126h0"></path>
<rect x="908" y="115" width="92" height="22"></rect>
<a xlink:href="reuse_TypeTable.svg"><text x="954" y="130">TypeTable</text>
</a>
</g>
<path d="M1000 126a10 10 0 0 0 10 -10v-10a10 10 0 0 1 10 -10"></path>
</g>
</g>
<path d="M1020 96h10"></path>
<g>
<path d="M1030 96h0"></path>
<path d="M1170 96h0"></path>
<path d="M1030 96a10 10 0 0 0 10 -10v0a10 10 0 0 1 10 -10"></path>
<g>
<path d="M1050 76h100"></path>
</g>
<path d="M1150 76a10 10 0 0 1 10 10v0a10 10 0 0 0 10 10"></path>
<path d="M1030 96h20"></path>
<g class="terminal">
<path d="M1050 96h0"></path>
<path d="M1150 96h0"></path>
<rect x="1050" y="85" width="100" height="22" rx="10" ry="10"></rect>
<text x="1100" y="100">"OPTIONAL"</text>
</g>
<path d="M1150 96h20"></path>
</g>
</g>
<path d="M1170 96h10"></path>
<path d="M692 96a10 10 0 0 0 -10 10v29a10 10 0 0 0 10 10"></path>
<g>
<path d="M692 145h478"></path>
</g>
<path d="M1170 145a10 10 0 0 0 10 -10v-29a10 10 0 0 0 -10 -10"></path>
</g>
<path d="M1180 96h10"></path>
<g>
<path d="M1190 96h0"></path>
<path d="M1594 96h0"></path>
<path d="M1190 96a10 10 0 0 0 10 -10v0a10 10 0 0 1 10 -10"></path>
<g>
<path d="M1210 76h364"></path>
</g>
<path d="M1574 76a10 10 0 0 1 10 10v0a10 10 0 0 0 10 10"></path>
<path d="M1190 96h20"></path>
<g>
<path d="M1210 96h0"></path>
<path d="M1574 96h0"></path>
<g class="terminal">
<path d="M1210 96h0"></path>
<path d="M1398 96h0"></path>
<rect x="1210" y="85" width="188" height="22" rx="10" ry="10"></rect>
<text x="1304" y="100">"PREFERRED PARAMETER"</text>
</g>
<path d="M1398 96h10"></path>
<path d="M1408 96h10"></path>
<g class="terminal">
<path d="M1418 96h0"></path>
<path d="M1574 96h0"></path>
<rect x="1418" y="85" width="156" height="22" rx="10" ry="10"></rect>
<text x="1496" y="100">^!?(\/\w+\/)?\w+$</text>
</g>
</g>
<path d="M1574 96h20"></path>
</g>
</g>
<path d="M1594 96h20"></path>
</g>
<g>
<path d="M1614 96h0"></path>
<path d="M2130 96h0"></path>
<path d="M1614 96a10 10 0 0 0 10 -10v0a10 10 0 0 1 10 -10"></path>
<g>
<path d="M1634 76h476"></path>
</g>
<path d="M2110 76a10 10 0 0 1 10 10v0a10 10 0 0 0 10 10"></path>
<path d="M1614 96h20"></path>
<g>
<path d="M1634 96h0"></path>
<path d="M2110 96h0"></path>
<g class="terminal">
<path d="M1634 96h0"></path>
<path d="M1742 96h0"></path>
<rect x="1634" y="85" width="108" height="22" rx="10" ry="10"></rect>
<text x="1688" y="100">"EXPORTING"</text>
</g>
<path d="M1742 96h10"></path>
<path d="M1752 96h10"></path>
<g>
<path d="M1762 96h0"></path>
<path d="M2110 96h0"></path>
<path d="M1762 96h10"></path>
<g>
<path d="M1772 96h0"></path>
<path d="M2100 96h0"></path>
<g>
<path d="M1772 96h0"></path>
<path d="M1968 96h0"></path>
<path d="M1772 96h20"></path>
<g class="non-terminal">
<path d="M1792 96h0"></path>
<path d="M1900 96h48"></path>
<rect x="1792" y="85" width="108" height="22"></rect>
<a xlink:href="reuse_PassByValue.svg"><text x="1846" y="100">PassByValue</text>
</a>
</g>
<path d="M1948 96h20"></path>
<path d="M1772 96a10 10 0 0 1 10 10v10a10 10 0 0 0 10 10"></path>
<g class="terminal">
<path d="M1792 126h0"></path>
<path d="M1948 126h0"></path>
<rect x="1792" y="115" width="156" height="22" rx="10" ry="10"></rect>
<text x="1870" y="130">^!?(\/\w+\/)?\w+$</text>
</g>
<path d="M1948 126a10 10 0 0 0 10 -10v-10a10 10 0 0 1 10 -10"></path>
</g>
<g>
<path d="M1968 96h0"></path>
<path d="M2100 96h0"></path>
<path d="M1968 96h20"></path>
<g class="non-terminal">
<path d="M1988 96h0"></path>
<path d="M2040 96h40"></path>
<rect x="1988" y="85" width="52" height="22"></rect>
<a xlink:href="reuse_Type.svg"><text x="2014" y="100">Type</text>
</a>
</g>
<path d="M2080 96h20"></path>
<path d="M1968 96a10 10 0 0 1 10 10v10a10 10 0 0 0 10 10"></path>
<g class="non-terminal">
<path d="M1988 126h0"></path>
<path d="M2080 126h0"></path>
<rect x="1988" y="115" width="92" height="22"></rect>
<a xlink:href="reuse_TypeTable.svg"><text x="2034" y="130">TypeTable</text>
</a>
</g>
<path d="M2080 126a10 10 0 0 0 10 -10v-10a10 10 0 0 1 10 -10"></path>
</g>
</g>
<path d="M2100 96h10"></path>
<path d="M1772 96a10 10 0 0 0 -10 10v29a10 10 0 0 0 10 10"></path>
<g>
<path d="M1772 145h328"></path>
</g>
<path d="M2100 145a10 10 0 0 0 10 -10v-29a10 10 0 0 0 -10 -10"></path>
</g>
</g>
<path d="M2110 96h20"></path>
</g>
<g>
<path d="M2130 96h0"></path>
<path d="M2758 96h0"></path>
<path d="M2130 96a10 10 0 0 0 10 -10v-8a10 10 0 0 1 10 -10"></path>
<g>
<path d="M2150 68h588"></path>
</g>
<path d="M2738 68a10 10 0 0 1 10 10v8a10 10 0 0 0 10 10"></path>
<path d="M2130 96h20"></path>
<g>
<path d="M2150 96h0"></path>
<path d="M2738 96h0"></path>
<g class="terminal">
<path d="M2150 96h0"></path>
<path d="M2250 96h0"></path>
<rect x="2150" y="85" width="100" height="22" rx="10" ry="10"></rect>
<text x="2200" y="100">"CHANGING"</text>
</g>
<path d="M2250 96h10"></path>
<path d="M2260 96h10"></path>
<g>
<path d="M2270 96h0"></path>
<path d="M2738 96h0"></path>
<path d="M2270 96h10"></path>
<g>
<path d="M2280 96h0"></path>
<path d="M2728 96h0"></path>
<g>
<path d="M2280 96h0"></path>
<path d="M2578 96h0"></path>
<g class="terminal">
<path d="M2280 96h0"></path>
<path d="M2436 96h0"></path>
<rect x="2280" y="85" width="156" height="22" rx="10" ry="10"></rect>
<text x="2358" y="100">^!?(\/\w+\/)?\w+$</text>
</g>
<path d="M2436 96h10"></path>
<g>
<path d="M2446 96h0"></path>
<path d="M2578 96h0"></path>
<path d="M2446 96h20"></path>
<g class="non-terminal">
<path d="M2466 96h0"></path>
<path d="M2518 96h40"></path>
<rect x="2466" y="85" width="52" height="22"></rect>
<a xlink:href="reuse_Type.svg"><text x="2492" y="100">Type</text>
</a>
</g>
<path d="M2558 96h20"></path>
<path d="M2446 96a10 10 0 0 1 10 10v10a10 10 0 0 0 10 10"></path>
<g class="non-terminal">
<path d="M2466 126h0"></path>
<path d="M2558 126h0"></path>
<rect x="2466" y="115" width="92" height="22"></rect>
<a xlink:href="reuse_TypeTable.svg"><text x="2512" y="130">TypeTable</text>
</a>
</g>
<path d="M2558 126a10 10 0 0 0 10 -10v-10a10 10 0 0 1 10 -10"></path>
</g>
</g>
<path d="M2578 96h10"></path>
<g>
<path d="M2588 96h0"></path>
<path d="M2728 96h0"></path>
<path d="M2588 96a10 10 0 0 0 10 -10v0a10 10 0 0 1 10 -10"></path>
<g>
<path d="M2608 76h100"></path>
</g>
<path d="M2708 76a10 10 0 0 1 10 10v0a10 10 0 0 0 10 10"></path>
<path d="M2588 96h20"></path>
<g class="terminal">
<path d="M2608 96h0"></path>
<path d="M2708 96h0"></path>
<rect x="2608" y="85" width="100" height="22" rx="10" ry="10"></rect>
<text x="2658" y="100">"OPTIONAL"</text>
</g>
<path d="M2708 96h20"></path>
</g>
</g>
<path d="M2728 96h10"></path>
<path d="M2280 96a10 10 0 0 0 -10 10v29a10 10 0 0 0 10 10"></path>
<g>
<path d="M2280 145h448"></path>
</g>
<path d="M2728 145a10 10 0 0 0 10 -10v-29a10 10 0 0 0 -10 -10"></path>
</g>
</g>
<path d="M2738 96h20"></path>
</g>
<g>
<path d="M2758 96h0"></path>
<path d="M3196 96h0"></path>
<path d="M2758 96a10 10 0 0 0 10 -10v0a10 10 0 0 1 10 -10"></path>
<g>
<path d="M2778 76h398"></path>
</g>
<path d="M3176 76a10 10 0 0 1 10 10v0a10 10 0 0 0 10 10"></path>
<path d="M2758 96h20"></path>
<g>
<path d="M2778 96h0"></path>
<path d="M3176 96h0"></path>
<g class="terminal">
<path d="M2778 96h0"></path>
<path d="M2886 96h0"></path>
<rect x="2778" y="85" width="108" height="22" rx="10" ry="10"></rect>
<text x="2832" y="100">"RETURNING"</text>
</g>
<path d="M2886 96h10"></path>
<path d="M2896 96h10"></path>
<g>
<path d="M2906 96h0"></path>
<path d="M3176 96h0"></path>
<path d="M2906 96h10"></path>
<g>
<path d="M2916 96h0"></path>
<path d="M3166 96h0"></path>
<g class="non-terminal">
<path d="M2916 96h0"></path>
<path d="M3024 96h0"></path>
<rect x="2916" y="85" width="108" height="22"></rect>
<a xlink:href="reuse_PassByValue.svg"><text x="2970" y="100">PassByValue</text>
</a>
</g>
<path d="M3024 96h10"></path>
<g>
<path d="M3034 96h0"></path>
<path d="M3166 96h0"></path>
<path d="M3034 96h20"></path>
<g class="non-terminal">
<path d="M3054 96h0"></path>
<path d="M3106 96h40"></path>
<rect x="3054" y="85" width="52" height="22"></rect>
<a xlink:href="reuse_Type.svg"><text x="3080" y="100">Type</text>
</a>
</g>
<path d="M3146 96h20"></path>
<path d="M3034 96a10 10 0 0 1 10 10v10a10 10 0 0 0 10 10"></path>
<g class="non-terminal">
<path d="M3054 126h0"></path>
<path d="M3146 126h0"></path>
<rect x="3054" y="115" width="92" height="22"></rect>
<a xlink:href="reuse_TypeTable.svg"><text x="3100" y="130">TypeTable</text>
</a>
</g>
<path d="M3146 126a10 10 0 0 0 10 -10v-10a10 10 0 0 1 10 -10"></path>
</g>
</g>
<path d="M3166 96h10"></path>
<path d="M2916 96a10 10 0 0 0 -10 10v29a10 10 0 0 0 10 10"></path>
<g>
<path d="M2916 145h250"></path>
</g>
<path d="M3166 145a10 10 0 0 0 10 -10v-29a10 10 0 0 0 -10 -10"></path>
</g>
</g>
<path d="M3176 96h20"></path>
</g>
<g>
<path d="M3196 96h0"></path>
<path d="M3500 96h0"></path>
<path d="M3196 96a10 10 0 0 0 10 -10v0a10 10 0 0 1 10 -10"></path>
<g>
<path d="M3216 76h264"></path>
</g>
<path d="M3480 76a10 10 0 0 1 10 10v0a10 10 0 0 0 10 10"></path>
<path d="M3196 96h20"></path>
<g>
<path d="M3216 96h0"></path>
<path d="M3480 96h0"></path>
<path d="M3216 96h20"></path>
<g>
<path d="M3236 96h0"></path>
<path d="M3460 96h0"></path>
<g class="terminal">
<path d="M3236 96h0"></path>
<path d="M3328 96h0"></path>
<rect x="3236" y="85" width="92" height="22" rx="10" ry="10"></rect>
<text x="3282" y="100">"RAISING"</text>
</g>
<path d="M3328 96h10"></path>
<path d="M3338 96h10"></path>
<g>
<path d="M3348 96h0"></path>
<path d="M3460 96h0"></path>
<path d="M3348 96h10"></path>
<g class="non-terminal">
<path d="M3358 96h0"></path>
<path d="M3450 96h0"></path>
<rect x="3358" y="85" width="92" height="22"></rect>
<a xlink:href="reuse_ClassName.svg"><text x="3404" y="100">ClassName</text>
</a>
</g>
<path d="M3450 96h10"></path>
<path d="M3358 96a10 10 0 0 0 -10 10v0a10 10 0 0 0 10 10"></path>
<g>
<path d="M3358 116h92"></path>
</g>
<path d="M3450 116a10 10 0 0 0 10 -10v0a10 10 0 0 0 -10 -10"></path>
</g>
</g>
<path d="M3460 96h20"></path>
<path d="M3216 96a10 10 0 0 1 10 10v19a10 10 0 0 0 10 10"></path>
<g>
<path d="M3236 135h0"></path>
<path d="M3460 135h0"></path>
<g class="terminal">
<path d="M3236 135h0"></path>
<path d="M3352 135h0"></path>
<rect x="3236" y="124" width="116" height="22" rx="10" ry="10"></rect>
<text x="3294" y="139">"EXCEPTIONS"</text>
</g>
<path d="M3352 135h10"></path>
<path d="M3362 135h10"></path>
<g>
<path d="M3372 135h0"></path>
<path d="M3460 135h0"></path>
<path d="M3372 135h10"></path>
<g class="terminal">
<path d="M3382 135h0"></path>
<path d="M3450 135h0"></path>
<rect x="3382" y="124" width="68" height="22" rx="10" ry="10"></rect>
<text x="3416" y="139">^\w+?$</text>
</g>
<path d="M3450 135h10"></path>
<path d="M3382 135a10 10 0 0 0 -10 10v0a10 10 0 0 0 10 10"></path>
<g>
<path d="M3382 155h68"></path>
</g>
<path d="M3450 155a10 10 0 0 0 10 -10v0a10 10 0 0 0 -10 -10"></path>
</g>
</g>
<path d="M3460 135a10 10 0 0 0 10 -10v-19a10 10 0 0 1 10 -10"></path>
</g>
<path d="M3480 96h20"></path>
</g>
</g>
<path d="M3500 96a10 10 0 0 0 10 -10v-36a10 10 0 0 1 10 -10"></path>
<path d="M310 40a10 10 0 0 1 10 10v126a10 10 0 0 0 10 10"></path>
<g class="terminal">
<path d="M330 186h0"></path>
<path d="M462 186h3038"></path>
<rect x="330" y="175" width="132" height="22" rx="10" ry="10"></rect>
<text x="396" y="190">"REDEFINITION"</text>
</g>
<path d="M3500 186a10 10 0 0 0 10 -10v-126a10 10 0 0 1 10 -10"></path>
</g>
</g>
<path d="M3520 40h10"></path>
<path d="M 3530 40 h 20 m -10 -10 v 20 m 10 -20 v 20"></path>
</g>
</svg>
