<?xml version="1.0" encoding="UTF-8" standalone="no"?>
<!DOCTYPE svg PUBLIC "-//W3C//DTD SVG 1.1//EN"
 "http://www.w3.org/Graphics/SVG/1.1/DTD/svg11.dtd">
<!-- Generated by graphviz version 2.38.0 (20140413.2041)
 -->
<!-- Title: method Pages: 1 -->
<svg width="128pt" height="260pt"
 viewBox="0.00 0.00 128.42 260.00" xmlns="http://www.w3.org/2000/svg" xmlns:xlink="http://www.w3.org/1999/xlink">
<g id="graph0" class="graph" transform="scale(1 1) rotate(0) translate(4 256)">
<title>method</title>
<polygon fill="white" stroke="none" points="-4,4 -4,-256 124.423,-256 124.423,4 -4,4"/>
<!-- start -->
<g id="node1" class="node"><title>start</title>
<polygon fill="none" stroke="black" points="87.2116,-252 33.2116,-252 33.2116,-216 87.2116,-216 87.2116,-252"/>
<text text-anchor="middle" x="60.2116" y="-229.8" font-family="Times,serif" font-size="14.00">Start</text>
</g>
<!-- node202 -->
<g id="node4" class="node"><title>node202</title>
<ellipse fill="none" stroke="black" cx="60.2116" cy="-162" rx="60.4239" ry="18"/>
<text text-anchor="middle" x="60.2116" y="-157.8" font-family="Times,serif" font-size="14.00">&quot;METHOD&quot;</text>
</g>
<!-- start&#45;&gt;node202 -->
<g id="edge3" class="edge"><title>start&#45;&gt;node202</title>
<path fill="none" stroke="black" d="M60.2116,-215.697C60.2116,-207.983 60.2116,-198.712 60.2116,-190.112"/>
<polygon fill="black" stroke="black" points="63.7117,-190.104 60.2116,-180.104 56.7117,-190.104 63.7117,-190.104"/>
</g>
<!-- end -->
<g id="node2" class="node"><title>end</title>
<polygon fill="none" stroke="black" points="87.2116,-36 33.2116,-36 33.2116,-0 87.2116,-0 87.2116,-36"/>
<text text-anchor="middle" x="60.2116" y="-13.8" font-family="Times,serif" font-size="14.00">End</text>
</g>
<!-- node201 -->
<g id="node3" class="node"><title>node201</title>
<ellipse fill="none" stroke="black" cx="60.2116" cy="-90" rx="37.5814" ry="18"/>
<text text-anchor="middle" x="60.2116" y="-85.8" font-family="Times,serif" font-size="14.00">[\w~]+</text>
</g>
<!-- node201&#45;&gt;end -->
<g id="edge1" class="edge"><title>node201&#45;&gt;end</title>
<path fill="none" stroke="black" d="M60.2116,-71.6966C60.2116,-63.9827 60.2116,-54.7125 60.2116,-46.1124"/>
<polygon fill="black" stroke="black" points="63.7117,-46.1043 60.2116,-36.1043 56.7117,-46.1044 63.7117,-46.1043"/>
</g>
<!-- node202&#45;&gt;node201 -->
<g id="edge2" class="edge"><title>node202&#45;&gt;node201</title>
<path fill="none" stroke="black" d="M60.2116,-143.697C60.2116,-135.983 60.2116,-126.712 60.2116,-118.112"/>
<polygon fill="black" stroke="black" points="63.7117,-118.104 60.2116,-108.104 56.7117,-118.104 63.7117,-118.104"/>
</g>
</g>
</svg>
