<svg xmlns="http://www.w3.org/2000/svg" xmlns:xlink="http://www.w3.org/1999/xlink" class="railroad-diagram" width="3950" height="264" viewBox="0 0 3950 264">
<defs>
<style type="text/css"><![CDATA[
path {
stroke-width: 3;
stroke: black;
fill: rgba(0,0,0,0);
}
text {
font: bold 14px monospace;
text-anchor: middle;
}
text.diagram-text {
font-size: 12px;
}
a {
fill: blue;
}
text.diagram-arrow {
font-size: 16px;
}
text.label {
text-anchor: start;
}
text.comment {
font: italic 12px monospace;
}
rect {
stroke-width: 3;
stroke: black;
fill: #BCBCBC;
}
path.diagram-text {
stroke-width: 3;
stroke: black;
fill: #BCBCBC;
cursor: help;
}
]]></style>
</defs>
<g transform="translate(.5 .5)">
<path d="M 20 30 v 20 m 10 -20 v 20 m -10 -10 h 20.5"></path>
<path d="M40 40h10"></path>
<g>
<path d="M50 40h0"></path>
<path d="M3900 40h0"></path>
<g>
<path d="M50 40h0"></path>
<path d="M230 40h0"></path>
<path d="M50 40h20"></path>
<g class="terminal">
<path d="M70 40h0"></path>
<path d="M210 40h0"></path>
<rect x="70" y="29" width="140" height="22" rx="10" ry="10"></rect>
<text x="140" y="44">"CLASS-METHODS"</text>
</g>
<path d="M210 40h20"></path>
<path d="M50 40a10 10 0 0 1 10 10v10a10 10 0 0 0 10 10"></path>
<g class="terminal">
<path d="M70 70h0"></path>
<path d="M162 70h48"></path>
<rect x="70" y="59" width="92" height="22" rx="10" ry="10"></rect>
<text x="116" y="74">"METHODS"</text>
</g>
<path d="M210 70a10 10 0 0 0 10 -10v-10a10 10 0 0 1 10 -10"></path>
</g>
<path d="M230 40h10"></path>
<g class="non-terminal">
<path d="M240 40h0"></path>
<path d="M300 40h0"></path>
<rect x="240" y="29" width="60" height="22"></rect>
<a xlink:href="reuse_field.svg"><text x="270" y="44">Field</text>
</a>
</g>
<path d="M300 40h10"></path>
<g>
<path d="M310 40h0"></path>
<path d="M3900 40h0"></path>
<path d="M310 40h20"></path>
<g>
<path d="M330 40h0"></path>
<path d="M1024 40h2856"></path>
<g class="terminal">
<path d="M330 40h0"></path>
<path d="M438 40h0"></path>
<rect x="330" y="29" width="108" height="22" rx="10" ry="10"></rect>
<text x="384" y="44">"FOR EVENT"</text>
</g>
<path d="M438 40h10"></path>
<path d="M448 40h10"></path>
<g class="non-terminal">
<path d="M458 40h0"></path>
<path d="M518 40h0"></path>
<rect x="458" y="29" width="60" height="22"></rect>
<a xlink:href="reuse_field.svg"><text x="488" y="44">Field</text>
</a>
</g>
<path d="M518 40h10"></path>
<path d="M528 40h10"></path>
<g class="terminal">
<path d="M538 40h0"></path>
<path d="M590 40h0"></path>
<rect x="538" y="29" width="52" height="22" rx="10" ry="10"></rect>
<text x="564" y="44">"OF"</text>
</g>
<path d="M590 40h10"></path>
<path d="M600 40h10"></path>
<g class="non-terminal">
<path d="M610 40h0"></path>
<path d="M670 40h0"></path>
<rect x="610" y="29" width="60" height="22"></rect>
<a xlink:href="reuse_field.svg"><text x="640" y="44">Field</text>
</a>
</g>
<path d="M670 40h10"></path>
<g>
<path d="M680 40h0"></path>
<path d="M1024 40h0"></path>
<path d="M680 40a10 10 0 0 0 10 -10v0a10 10 0 0 1 10 -10"></path>
<g>
<path d="M700 20h304"></path>
</g>
<path d="M1004 20a10 10 0 0 1 10 10v0a10 10 0 0 0 10 10"></path>
<path d="M680 40h20"></path>
<g>
<path d="M700 40h0"></path>
<path d="M1004 40h0"></path>
<g class="terminal">
<path d="M700 40h0"></path>
<path d="M808 40h0"></path>
<rect x="700" y="29" width="108" height="22" rx="10" ry="10"></rect>
<text x="754" y="44">"IMPORTING"</text>
</g>
<path d="M808 40h10"></path>
<path d="M818 40h10"></path>
<g>
<path d="M828 40h0"></path>
<path d="M1004 40h0"></path>
<path d="M828 40h10"></path>
<g class="terminal">
<path d="M838 40h0"></path>
<path d="M994 40h0"></path>
<rect x="838" y="29" width="156" height="22" rx="10" ry="10"></rect>
<text x="916" y="44">^!?(\/\w+\/)?\w+$</text>
</g>
<path d="M994 40h10"></path>
<path d="M838 40a10 10 0 0 0 -10 10v0a10 10 0 0 0 10 10"></path>
<g>
<path d="M838 60h156"></path>
</g>
<path d="M994 60a10 10 0 0 0 10 -10v0a10 10 0 0 0 -10 -10"></path>
</g>
</g>
<path d="M1004 40h20"></path>
</g>
</g>
<path d="M3880 40h20"></path>
<path d="M310 40a10 10 0 0 1 10 10v36a10 10 0 0 0 10 10"></path>
<g>
<path d="M330 96h0"></path>
<path d="M3880 96h0"></path>
<g>
<path d="M330 96h0"></path>
<path d="M534 96h0"></path>
<path d="M330 96a10 10 0 0 0 10 -10v0a10 10 0 0 1 10 -10"></path>
<g>
<path d="M350 76h164"></path>
</g>
<path d="M514 76a10 10 0 0 1 10 10v0a10 10 0 0 0 10 10"></path>
<path d="M330 96h20"></path>
<g>
<path d="M350 96h0"></path>
<path d="M514 96h0"></path>
<path d="M350 96h20"></path>
<g class="terminal">
<path d="M370 96h0"></path>
<path d="M470 96h24"></path>
<rect x="370" y="85" width="100" height="22" rx="10" ry="10"></rect>
<text x="420" y="100">"ABSTRACT"</text>
</g>
<path d="M494 96h20"></path>
<path d="M350 96a10 10 0 0 1 10 10v10a10 10 0 0 0 10 10"></path>
<g class="terminal">
<path d="M370 126h0"></path>
<path d="M446 126h48"></path>
<rect x="370" y="115" width="76" height="22" rx="10" ry="10"></rect>
<text x="408" y="130">"FINAL"</text>
</g>
<path d="M494 126a10 10 0 0 0 10 -10v-10a10 10 0 0 1 10 -10"></path>
<path d="M350 96a10 10 0 0 1 10 10v40a10 10 0 0 0 10 10"></path>
<g class="terminal">
<path d="M370 156h0"></path>
<path d="M494 156h0"></path>
<rect x="370" y="145" width="124" height="22" rx="10" ry="10"></rect>
<text x="432" y="160">"FOR TESTING"</text>
</g>
<path d="M494 156a10 10 0 0 0 10 -10v-40a10 10 0 0 1 10 -10"></path>
</g>
<path d="M514 96h20"></path>
</g>
<g>
<path d="M534 96h0"></path>
<path d="M1614 96h0"></path>
<path d="M534 96a10 10 0 0 0 10 -10v-8a10 10 0 0 1 10 -10"></path>
<g>
<path d="M554 68h1040"></path>
</g>
<path d="M1594 68a10 10 0 0 1 10 10v8a10 10 0 0 0 10 10"></path>
<path d="M534 96h20"></path>
<g>
<path d="M554 96h0"></path>
<path d="M1594 96h0"></path>
<g class="terminal">
<path d="M554 96h0"></path>
<path d="M662 96h0"></path>
<rect x="554" y="85" width="108" height="22" rx="10" ry="10"></rect>
<text x="608" y="100">"IMPORTING"</text>
</g>
<path d="M662 96h10"></path>
<path d="M672 96h10"></path>
<g>
<path d="M682 96h0"></path>
<path d="M1180 96h0"></path>
<path d="M682 96h10"></path>
<g>
<path d="M692 96h0"></path>
<path d="M1170 96h0"></path>
<g>
<path d="M692 96h0"></path>
<path d="M1020 96h0"></path>
<g>
<path d="M692 96h0"></path>
<path d="M888 96h0"></path>
<path d="M692 96h20"></path>
<g class="non-terminal">
<path d="M712 96h0"></path>
<path d="M820 96h48"></path>
<rect x="712" y="85" width="108" height="22"></rect>
<a xlink:href="reuse_passbyvalue.svg"><text x="766" y="100">PassByValue</text>
</a>
</g>
<path d="M868 96h20"></path>
<path d="M692 96a10 10 0 0 1 10 10v10a10 10 0 0 0 10 10"></path>
<g class="terminal">
<path d="M712 126h0"></path>
<path d="M868 126h0"></path>
<rect x="712" y="115" width="156" height="22" rx="10" ry="10"></rect>
<text x="790" y="130">^!?(\/\w+\/)?\w+$</text>
</g>
<path d="M868 126a10 10 0 0 0 10 -10v-10a10 10 0 0 1 10 -10"></path>
</g>
<g>
<path d="M888 96h0"></path>
<path d="M1020 96h0"></path>
<path d="M888 96h20"></path>
<g class="non-terminal">
<path d="M908 96h0"></path>
<path d="M960 96h40"></path>
<rect x="908" y="85" width="52" height="22"></rect>
<a xlink:href="reuse_type.svg"><text x="934" y="100">Type</text>
</a>
</g>
<path d="M1000 96h20"></path>
<path d="M888 96a10 10 0 0 1 10 10v10a10 10 0 0 0 10 10"></path>
<g class="non-terminal">
<path d="M908 126h0"></path>
<path d="M1000 126h0"></path>
<rect x="908" y="115" width="92" height="22"></rect>
<a xlink:href="reuse_typetable.svg"><text x="954" y="130">TypeTable</text>
</a>
</g>
<path d="M1000 126a10 10 0 0 0 10 -10v-10a10 10 0 0 1 10 -10"></path>
</g>
</g>
<path d="M1020 96h10"></path>
<g>
<path d="M1030 96h0"></path>
<path d="M1170 96h0"></path>
<path d="M1030 96a10 10 0 0 0 10 -10v0a10 10 0 0 1 10 -10"></path>
<g>
<path d="M1050 76h100"></path>
</g>
<path d="M1150 76a10 10 0 0 1 10 10v0a10 10 0 0 0 10 10"></path>
<path d="M1030 96h20"></path>
<g class="terminal">
<path d="M1050 96h0"></path>
<path d="M1150 96h0"></path>
<rect x="1050" y="85" width="100" height="22" rx="10" ry="10"></rect>
<text x="1100" y="100">"OPTIONAL"</text>
</g>
<path d="M1150 96h20"></path>
</g>
</g>
<path d="M1170 96h10"></path>
<path d="M692 96a10 10 0 0 0 -10 10v29a10 10 0 0 0 10 10"></path>
<g>
<path d="M692 145h478"></path>
</g>
<path d="M1170 145a10 10 0 0 0 10 -10v-29a10 10 0 0 0 -10 -10"></path>
</g>
<path d="M1180 96h10"></path>
<g>
<path d="M1190 96h0"></path>
<path d="M1594 96h0"></path>
<path d="M1190 96a10 10 0 0 0 10 -10v0a10 10 0 0 1 10 -10"></path>
<g>
<path d="M1210 76h364"></path>
</g>
<path d="M1574 76a10 10 0 0 1 10 10v0a10 10 0 0 0 10 10"></path>
<path d="M1190 96h20"></path>
<g>
<path d="M1210 96h0"></path>
<path d="M1574 96h0"></path>
<g class="terminal">
<path d="M1210 96h0"></path>
<path d="M1398 96h0"></path>
<rect x="1210" y="85" width="188" height="22" rx="10" ry="10"></rect>
<text x="1304" y="100">"PREFERRED PARAMETER"</text>
</g>
<path d="M1398 96h10"></path>
<path d="M1408 96h10"></path>
<g class="terminal">
<path d="M1418 96h0"></path>
<path d="M1574 96h0"></path>
<rect x="1418" y="85" width="156" height="22" rx="10" ry="10"></rect>
<text x="1496" y="100">^!?(\/\w+\/)?\w+$</text>
</g>
</g>
<path d="M1574 96h20"></path>
</g>
</g>
<path d="M1594 96h20"></path>
</g>
<g>
<path d="M1614 96h0"></path>
<path d="M2130 96h0"></path>
<path d="M1614 96a10 10 0 0 0 10 -10v0a10 10 0 0 1 10 -10"></path>
<g>
<path d="M1634 76h476"></path>
</g>
<path d="M2110 76a10 10 0 0 1 10 10v0a10 10 0 0 0 10 10"></path>
<path d="M1614 96h20"></path>
<g>
<path d="M1634 96h0"></path>
<path d="M2110 96h0"></path>
<g class="terminal">
<path d="M1634 96h0"></path>
<path d="M1742 96h0"></path>
<rect x="1634" y="85" width="108" height="22" rx="10" ry="10"></rect>
<text x="1688" y="100">"EXPORTING"</text>
</g>
<path d="M1742 96h10"></path>
<path d="M1752 96h10"></path>
<g>
<path d="M1762 96h0"></path>
<path d="M2110 96h0"></path>
<path d="M1762 96h10"></path>
<g>
<path d="M1772 96h0"></path>
<path d="M2100 96h0"></path>
<g>
<path d="M1772 96h0"></path>
<path d="M1968 96h0"></path>
<path d="M1772 96h20"></path>
<g class="non-terminal">
<path d="M1792 96h0"></path>
<path d="M1900 96h48"></path>
<rect x="1792" y="85" width="108" height="22"></rect>
<a xlink:href="reuse_passbyvalue.svg"><text x="1846" y="100">PassByValue</text>
</a>
</g>
<path d="M1948 96h20"></path>
<path d="M1772 96a10 10 0 0 1 10 10v10a10 10 0 0 0 10 10"></path>
<g class="terminal">
<path d="M1792 126h0"></path>
<path d="M1948 126h0"></path>
<rect x="1792" y="115" width="156" height="22" rx="10" ry="10"></rect>
<text x="1870" y="130">^!?(\/\w+\/)?\w+$</text>
</g>
<path d="M1948 126a10 10 0 0 0 10 -10v-10a10 10 0 0 1 10 -10"></path>
</g>
<g>
<path d="M1968 96h0"></path>
<path d="M2100 96h0"></path>
<path d="M1968 96h20"></path>
<g class="non-terminal">
<path d="M1988 96h0"></path>
<path d="M2040 96h40"></path>
<rect x="1988" y="85" width="52" height="22"></rect>
<a xlink:href="reuse_type.svg"><text x="2014" y="100">Type</text>
</a>
</g>
<path d="M2080 96h20"></path>
<path d="M1968 96a10 10 0 0 1 10 10v10a10 10 0 0 0 10 10"></path>
<g class="non-terminal">
<path d="M1988 126h0"></path>
<path d="M2080 126h0"></path>
<rect x="1988" y="115" width="92" height="22"></rect>
<a xlink:href="reuse_typetable.svg"><text x="2034" y="130">TypeTable</text>
</a>
</g>
<path d="M2080 126a10 10 0 0 0 10 -10v-10a10 10 0 0 1 10 -10"></path>
</g>
</g>
<path d="M2100 96h10"></path>
<path d="M1772 96a10 10 0 0 0 -10 10v29a10 10 0 0 0 10 10"></path>
<g>
<path d="M1772 145h328"></path>
</g>
<path d="M2100 145a10 10 0 0 0 10 -10v-29a10 10 0 0 0 -10 -10"></path>
</g>
</g>
<path d="M2110 96h20"></path>
</g>
<g>
<path d="M2130 96h0"></path>
<path d="M2788 96h0"></path>
<path d="M2130 96a10 10 0 0 0 10 -10v-8a10 10 0 0 1 10 -10"></path>
<g>
<path d="M2150 68h618"></path>
</g>
<path d="M2768 68a10 10 0 0 1 10 10v8a10 10 0 0 0 10 10"></path>
<path d="M2130 96h20"></path>
<g>
<path d="M2150 96h0"></path>
<path d="M2768 96h0"></path>
<g class="terminal">
<path d="M2150 96h0"></path>
<path d="M2250 96h0"></path>
<rect x="2150" y="85" width="100" height="22" rx="10" ry="10"></rect>
<text x="2200" y="100">"CHANGING"</text>
</g>
<path d="M2250 96h10"></path>
<path d="M2260 96h10"></path>
<g>
<path d="M2270 96h0"></path>
<path d="M2768 96h0"></path>
<path d="M2270 96h10"></path>
<g>
<path d="M2280 96h0"></path>
<path d="M2758 96h0"></path>
<g>
<path d="M2280 96h0"></path>
<path d="M2608 96h0"></path>
<g>
<path d="M2280 96h0"></path>
<path d="M2476 96h0"></path>
<path d="M2280 96h20"></path>
<g class="non-terminal">
<path d="M2300 96h0"></path>
<path d="M2408 96h48"></path>
<rect x="2300" y="85" width="108" height="22"></rect>
<a xlink:href="reuse_passbyvalue.svg"><text x="2354" y="100">PassByValue</text>
</a>
</g>
<path d="M2456 96h20"></path>
<path d="M2280 96a10 10 0 0 1 10 10v10a10 10 0 0 0 10 10"></path>
<g class="terminal">
<path d="M2300 126h0"></path>
<path d="M2456 126h0"></path>
<rect x="2300" y="115" width="156" height="22" rx="10" ry="10"></rect>
<text x="2378" y="130">^!?(\/\w+\/)?\w+$</text>
</g>
<path d="M2456 126a10 10 0 0 0 10 -10v-10a10 10 0 0 1 10 -10"></path>
</g>
<g>
<path d="M2476 96h0"></path>
<path d="M2608 96h0"></path>
<path d="M2476 96h20"></path>
<g class="non-terminal">
<path d="M2496 96h0"></path>
<path d="M2548 96h40"></path>
<rect x="2496" y="85" width="52" height="22"></rect>
<a xlink:href="reuse_type.svg"><text x="2522" y="100">Type</text>
</a>
</g>
<path d="M2588 96h20"></path>
<path d="M2476 96a10 10 0 0 1 10 10v10a10 10 0 0 0 10 10"></path>
<g class="non-terminal">
<path d="M2496 126h0"></path>
<path d="M2588 126h0"></path>
<rect x="2496" y="115" width="92" height="22"></rect>
<a xlink:href="reuse_typetable.svg"><text x="2542" y="130">TypeTable</text>
</a>
</g>
<path d="M2588 126a10 10 0 0 0 10 -10v-10a10 10 0 0 1 10 -10"></path>
</g>
</g>
<path d="M2608 96h10"></path>
<g>
<path d="M2618 96h0"></path>
<path d="M2758 96h0"></path>
<path d="M2618 96a10 10 0 0 0 10 -10v0a10 10 0 0 1 10 -10"></path>
<g>
<path d="M2638 76h100"></path>
</g>
<path d="M2738 76a10 10 0 0 1 10 10v0a10 10 0 0 0 10 10"></path>
<path d="M2618 96h20"></path>
<g class="terminal">
<path d="M2638 96h0"></path>
<path d="M2738 96h0"></path>
<rect x="2638" y="85" width="100" height="22" rx="10" ry="10"></rect>
<text x="2688" y="100">"OPTIONAL"</text>
</g>
<path d="M2738 96h20"></path>
</g>
</g>
<path d="M2758 96h10"></path>
<path d="M2280 96a10 10 0 0 0 -10 10v29a10 10 0 0 0 10 10"></path>
<g>
<path d="M2280 145h478"></path>
</g>
<path d="M2758 145a10 10 0 0 0 10 -10v-29a10 10 0 0 0 -10 -10"></path>
</g>
</g>
<path d="M2768 96h20"></path>
</g>
<g>
<path d="M2788 96h0"></path>
<path d="M3226 96h0"></path>
<path d="M2788 96a10 10 0 0 0 10 -10v0a10 10 0 0 1 10 -10"></path>
<g>
<path d="M2808 76h398"></path>
</g>
<path d="M3206 76a10 10 0 0 1 10 10v0a10 10 0 0 0 10 10"></path>
<path d="M2788 96h20"></path>
<g>
<path d="M2808 96h0"></path>
<path d="M3206 96h0"></path>
<g class="terminal">
<path d="M2808 96h0"></path>
<path d="M2916 96h0"></path>
<rect x="2808" y="85" width="108" height="22" rx="10" ry="10"></rect>
<text x="2862" y="100">"RETURNING"</text>
</g>
<path d="M2916 96h10"></path>
<path d="M2926 96h10"></path>
<g>
<path d="M2936 96h0"></path>
<path d="M3206 96h0"></path>
<path d="M2936 96h10"></path>
<g>
<path d="M2946 96h0"></path>
<path d="M3196 96h0"></path>
<g class="non-terminal">
<path d="M2946 96h0"></path>
<path d="M3054 96h0"></path>
<rect x="2946" y="85" width="108" height="22"></rect>
<a xlink:href="reuse_passbyvalue.svg"><text x="3000" y="100">PassByValue</text>
</a>
</g>
<path d="M3054 96h10"></path>
<g>
<path d="M3064 96h0"></path>
<path d="M3196 96h0"></path>
<path d="M3064 96h20"></path>
<g class="non-terminal">
<path d="M3084 96h0"></path>
<path d="M3136 96h40"></path>
<rect x="3084" y="85" width="52" height="22"></rect>
<a xlink:href="reuse_type.svg"><text x="3110" y="100">Type</text>
</a>
</g>
<path d="M3176 96h20"></path>
<path d="M3064 96a10 10 0 0 1 10 10v10a10 10 0 0 0 10 10"></path>
<g class="non-terminal">
<path d="M3084 126h0"></path>
<path d="M3176 126h0"></path>
<rect x="3084" y="115" width="92" height="22"></rect>
<a xlink:href="reuse_typetable.svg"><text x="3130" y="130">TypeTable</text>
</a>
</g>
<path d="M3176 126a10 10 0 0 0 10 -10v-10a10 10 0 0 1 10 -10"></path>
</g>
</g>
<path d="M3196 96h10"></path>
<path d="M2946 96a10 10 0 0 0 -10 10v29a10 10 0 0 0 10 10"></path>
<g>
<path d="M2946 145h250"></path>
</g>
<path d="M3196 145a10 10 0 0 0 10 -10v-29a10 10 0 0 0 -10 -10"></path>
</g>
</g>
<path d="M3206 96h20"></path>
</g>
<g>
<path d="M3226 96h0"></path>
<path d="M3880 96h0"></path>
<path d="M3226 96a10 10 0 0 0 10 -10v0a10 10 0 0 1 10 -10"></path>
<g>
<path d="M3246 76h614"></path>
</g>
<path d="M3860 76a10 10 0 0 1 10 10v0a10 10 0 0 0 10 10"></path>
<path d="M3226 96h20"></path>
<g>
<path d="M3246 96h0"></path>
<path d="M3860 96h0"></path>
<path d="M3246 96h20"></path>
<g>
<path d="M3266 96h0"></path>
<path d="M3840 96h0"></path>
<g class="terminal">
<path d="M3266 96h0"></path>
<path d="M3358 96h0"></path>
<rect x="3266" y="85" width="92" height="22" rx="10" ry="10"></rect>
<text x="3312" y="100">"RAISING"</text>
</g>
<path d="M3358 96h10"></path>
<path d="M3368 96h10"></path>
<g>
<path d="M3378 96h0"></path>
<path d="M3840 96h0"></path>
<path d="M3378 96h10"></path>
<g>
<path d="M3388 96h0"></path>
<path d="M3830 96h0"></path>
<path d="M3388 96h20"></path>
<g>
<path d="M3408 96h0"></path>
<path d="M3810 96h0"></path>
<g class="terminal">
<path d="M3408 96h0"></path>
<path d="M3516 96h0"></path>
<rect x="3408" y="85" width="108" height="22" rx="10" ry="10"></rect>
<text x="3462" y="100">"RESUMABLE"</text>
</g>
<path d="M3516 96h10"></path>
<path d="M3526 96h10"></path>
<g class="terminal">
<path d="M3536 96h0"></path>
<path d="M3588 96h0"></path>
<rect x="3536" y="85" width="52" height="22" rx="10" ry="10"></rect>
<text x="3562" y="100">!"("</text>
</g>
<path d="M3588 96h10"></path>
<path d="M3598 96h10"></path>
<g class="non-terminal">
<path d="M3608 96h0"></path>
<path d="M3700 96h0"></path>
<rect x="3608" y="85" width="92" height="22"></rect>
<a xlink:href="reuse_classname.svg"><text x="3654" y="100">ClassName</text>
</a>
</g>
<path d="M3700 96h10"></path>
<g>
<path d="M3710 96h0"></path>
<path d="M3810 96h0"></path>
<path d="M3710 96h20"></path>
<g class="terminal">
<path d="M3730 96h0"></path>
<path d="M3782 96h8"></path>
<rect x="3730" y="85" width="52" height="22" rx="10" ry="10"></rect>
<text x="3756" y="100">!")"</text>
</g>
<path d="M3790 96h20"></path>
<path d="M3710 96a10 10 0 0 1 10 10v10a10 10 0 0 0 10 10"></path>
<g class="terminal">
<path d="M3730 126h0"></path>
<path d="M3790 126h0"></path>
<rect x="3730" y="115" width="60" height="22" rx="10" ry="10"></rect>
<text x="3760" y="130">!") "</text>
</g>
<path d="M3790 126a10 10 0 0 0 10 -10v-10a10 10 0 0 1 10 -10"></path>
</g>
</g>
<path d="M3810 96h20"></path>
<path d="M3388 96a10 10 0 0 1 10 10v40a10 10 0 0 0 10 10"></path>
<g class="non-terminal">
<path d="M3408 156h0"></path>
<path d="M3500 156h310"></path>
<rect x="3408" y="145" width="92" height="22"></rect>
<a xlink:href="reuse_classname.svg"><text x="3454" y="160">ClassName</text>
</a>
</g>
<path d="M3810 156a10 10 0 0 0 10 -10v-40a10 10 0 0 1 10 -10"></path>
</g>
<path d="M3830 96h10"></path>
<path d="M3388 96a10 10 0 0 0 -10 10v59a10 10 0 0 0 10 10"></path>
<g>
<path d="M3388 175h442"></path>
</g>
<path d="M3830 175a10 10 0 0 0 10 -10v-59a10 10 0 0 0 -10 -10"></path>
</g>
</g>
<path d="M3840 96h20"></path>
<path d="M3246 96a10 10 0 0 1 10 10v78a10 10 0 0 0 10 10"></path>
<g>
<path d="M3266 194h0"></path>
<path d="M3490 194h350"></path>
<g class="terminal">
<path d="M3266 194h0"></path>
<path d="M3382 194h0"></path>
<rect x="3266" y="183" width="116" height="22" rx="10" ry="10"></rect>
<text x="3324" y="198">"EXCEPTIONS"</text>
</g>
<path d="M3382 194h10"></path>
<path d="M3392 194h10"></path>
<g>
<path d="M3402 194h0"></path>
<path d="M3490 194h0"></path>
<path d="M3402 194h10"></path>
<g class="terminal">
<path d="M3412 194h0"></path>
<path d="M3480 194h0"></path>
<rect x="3412" y="183" width="68" height="22" rx="10" ry="10"></rect>
<text x="3446" y="198">^\w+?$</text>
</g>
<path d="M3480 194h10"></path>
<path d="M3412 194a10 10 0 0 0 -10 10v0a10 10 0 0 0 10 10"></path>
<g>
<path d="M3412 214h68"></path>
</g>
<path d="M3480 214a10 10 0 0 0 10 -10v0a10 10 0 0 0 -10 -10"></path>
</g>
</g>
<path d="M3840 194a10 10 0 0 0 10 -10v-78a10 10 0 0 1 10 -10"></path>
</g>
<path d="M3860 96h20"></path>
</g>
</g>
<path d="M3880 96a10 10 0 0 0 10 -10v-36a10 10 0 0 1 10 -10"></path>
<path d="M310 40a10 10 0 0 1 10 10v173a10 10 0 0 0 10 10"></path>
<g class="terminal">
<path d="M330 233h0"></path>
<path d="M462 233h3418"></path>
<rect x="330" y="222" width="132" height="22" rx="10" ry="10"></rect>
<text x="396" y="237">"REDEFINITION"</text>
</g>
<path d="M3880 233a10 10 0 0 0 10 -10v-173a10 10 0 0 1 10 -10"></path>
</g>
</g>
<path d="M3900 40h10"></path>
<path d="M 3910 40 h 20 m -10 -10 v 20 m 10 -20 v 20"></path>
</g>
</svg>
