<svg xmlns="http://www.w3.org/2000/svg" xmlns:xlink="http://www.w3.org/1999/xlink" class="railroad-diagram" width="1280" height="595" viewBox="0 0 1280 595">
<defs>
<style type="text/css"><![CDATA[
path {
stroke-width: 3;
stroke: black;
fill: rgba(0,0,0,0);
}
text {
font: bold 14px monospace;
text-anchor: middle;
}
text.diagram-text {
font-size: 12px;
}
a {
fill: blue;
}
text.diagram-arrow {
font-size: 16px;
}
text.label {
text-anchor: start;
}
text.comment {
font: italic 12px monospace;
}
rect {
stroke-width: 3;
stroke: black;
fill: #BCBCBC;
}
path.diagram-text {
stroke-width: 3;
stroke: black;
fill: #BCBCBC;
cursor: help;
}
]]></style>
</defs>
<g transform="translate(.5 .5)">
<path d="M 20 30 v 20 m 10 -20 v 20 m -10 -10 h 20.5"></path>
<path d="M40 40h10"></path>
<g>
<path d="M50 40h0"></path>
<path d="M1230 40h0"></path>
<g>
<path d="M50 40h0"></path>
<path d="M230 40h0"></path>
<path d="M50 40h20"></path>
<g class="terminal">
<path d="M70 40h0"></path>
<path d="M210 40h0"></path>
<rect x="70" y="29" width="140" height="22" rx="10" ry="10"></rect>
<text x="140" y="44">"CLASS-METHODS"</text>
</g>
<path d="M210 40h20"></path>
<path d="M50 40a10 10 0 0 1 10 10v10a10 10 0 0 0 10 10"></path>
<g class="terminal">
<path d="M70 70h0"></path>
<path d="M162 70h48"></path>
<rect x="70" y="59" width="92" height="22" rx="10" ry="10"></rect>
<text x="116" y="74">"METHODS"</text>
</g>
<path d="M210 70a10 10 0 0 0 10 -10v-10a10 10 0 0 1 10 -10"></path>
</g>
<path d="M230 40h10"></path>
<g class="non-terminal">
<path d="M240 40h0"></path>
<path d="M300 40h0"></path>
<rect x="240" y="29" width="60" height="22"></rect>
<a xlink:href="reuse_field.svg"><text x="270" y="44">Field</text>
</a>
</g>
<path d="M300 40h10"></path>
<g>
<path d="M310 40h0"></path>
<path d="M1230 40h0"></path>
<path d="M310 40h20"></path>
<g>
<path d="M330 40h0"></path>
<path d="M1024 40h186"></path>
<g class="terminal">
<path d="M330 40h0"></path>
<path d="M438 40h0"></path>
<rect x="330" y="29" width="108" height="22" rx="10" ry="10"></rect>
<text x="384" y="44">"FOR EVENT"</text>
</g>
<path d="M438 40h10"></path>
<path d="M448 40h10"></path>
<g class="non-terminal">
<path d="M458 40h0"></path>
<path d="M518 40h0"></path>
<rect x="458" y="29" width="60" height="22"></rect>
<a xlink:href="reuse_field.svg"><text x="488" y="44">Field</text>
</a>
</g>
<path d="M518 40h10"></path>
<path d="M528 40h10"></path>
<g class="terminal">
<path d="M538 40h0"></path>
<path d="M590 40h0"></path>
<rect x="538" y="29" width="52" height="22" rx="10" ry="10"></rect>
<text x="564" y="44">"OF"</text>
</g>
<path d="M590 40h10"></path>
<path d="M600 40h10"></path>
<g class="non-terminal">
<path d="M610 40h0"></path>
<path d="M670 40h0"></path>
<rect x="610" y="29" width="60" height="22"></rect>
<a xlink:href="reuse_field.svg"><text x="640" y="44">Field</text>
</a>
</g>
<path d="M670 40h10"></path>
<g>
<path d="M680 40h0"></path>
<path d="M1024 40h0"></path>
<path d="M680 40a10 10 0 0 0 10 -10v0a10 10 0 0 1 10 -10"></path>
<g>
<path d="M700 20h304"></path>
</g>
<path d="M1004 20a10 10 0 0 1 10 10v0a10 10 0 0 0 10 10"></path>
<path d="M680 40h20"></path>
<g>
<path d="M700 40h0"></path>
<path d="M1004 40h0"></path>
<g class="terminal">
<path d="M700 40h0"></path>
<path d="M808 40h0"></path>
<rect x="700" y="29" width="108" height="22" rx="10" ry="10"></rect>
<text x="754" y="44">"IMPORTING"</text>
</g>
<path d="M808 40h10"></path>
<path d="M818 40h10"></path>
<g>
<path d="M828 40h0"></path>
<path d="M1004 40h0"></path>
<path d="M828 40h10"></path>
<g class="terminal">
<path d="M838 40h0"></path>
<path d="M994 40h0"></path>
<rect x="838" y="29" width="156" height="22" rx="10" ry="10"></rect>
<text x="916" y="44">^!?(\/\w+\/)?\w+$</text>
</g>
<path d="M994 40h10"></path>
<path d="M838 40a10 10 0 0 0 -10 10v0a10 10 0 0 0 10 10"></path>
<g>
<path d="M838 60h156"></path>
</g>
<path d="M994 60a10 10 0 0 0 10 -10v0a10 10 0 0 0 -10 -10"></path>
</g>
</g>
<path d="M1004 40h20"></path>
</g>
</g>
<path d="M1210 40h20"></path>
<path d="M310 40a10 10 0 0 1 10 10v28a10 10 0 0 0 10 10"></path>
<g>
<path d="M330 88h0"></path>
<path d="M330 88h10"></path>
<g>
<path d="M340 88h0"></path>
<path d="M544 88h656"></path>
<path d="M340 88a10 10 0 0 0 10 -10v0a10 10 0 0 1 10 -10"></path>
<g>
<path d="M360 68h164"></path>
</g>
<path d="M524 68a10 10 0 0 1 10 10v0a10 10 0 0 0 10 10"></path>
<path d="M340 88h20"></path>
<g>
<path d="M360 88h0"></path>
<path d="M524 88h0"></path>
<path d="M360 88h20"></path>
<g class="terminal">
<path d="M380 88h0"></path>
<path d="M480 88h24"></path>
<rect x="380" y="77" width="100" height="22" rx="10" ry="10"></rect>
<text x="430" y="92">"ABSTRACT"</text>
</g>
<path d="M504 88h20"></path>
<path d="M360 88a10 10 0 0 1 10 10v10a10 10 0 0 0 10 10"></path>
<g class="terminal">
<path d="M380 118h0"></path>
<path d="M456 118h48"></path>
<rect x="380" y="107" width="76" height="22" rx="10" ry="10"></rect>
<text x="418" y="122">"FINAL"</text>
</g>
<path d="M504 118a10 10 0 0 0 10 -10v-10a10 10 0 0 1 10 -10"></path>
<path d="M360 88a10 10 0 0 1 10 10v40a10 10 0 0 0 10 10"></path>
<g class="terminal">
<path d="M380 148h0"></path>
<path d="M504 148h0"></path>
<rect x="380" y="137" width="124" height="22" rx="10" ry="10"></rect>
<text x="442" y="152">"FOR TESTING"</text>
</g>
<path d="M504 148a10 10 0 0 0 10 -10v-40a10 10 0 0 1 10 -10"></path>
</g>
<path d="M524 88h20"></path>
</g>
<path d="M1200 88a10 10 0 0 1 10 10v59a10 10 0 0 1 -10 10h-860a10 10 0 0 0 -10 10v16a10 10 0 0 0 10 10"></path>
<g>
<path d="M340 203h0"></path>
<path d="M1200 203h0"></path>
<path d="M340 203a10 10 0 0 0 10 -10v-8a10 10 0 0 1 10 -10"></path>
<g>
<path d="M360 175h820"></path>
</g>
<path d="M1180 175a10 10 0 0 1 10 10v8a10 10 0 0 0 10 10"></path>
<path d="M340 203h20"></path>
<g>
<path d="M360 203h0"></path>
<path d="M1180 203h0"></path>
<g class="terminal">
<path d="M360 203h0"></path>
<path d="M468 203h0"></path>
<rect x="360" y="192" width="108" height="22" rx="10" ry="10"></rect>
<text x="414" y="207">"IMPORTING"</text>
</g>
<path d="M468 203h10"></path>
<path d="M478 203h10"></path>
<g>
<path d="M488 203h0"></path>
<path d="M766 203h0"></path>
<path d="M488 203h10"></path>
<g>
<path d="M498 203h0"></path>
<path d="M756 203h0"></path>
<g class="non-terminal">
<path d="M498 203h0"></path>
<path d="M606 203h0"></path>
<rect x="498" y="192" width="108" height="22"></rect>
<a xlink:href="reuse_methodparam.svg"><text x="552" y="207">MethodParam</text>
</a>
</g>
<path d="M606 203h10"></path>
<g>
<path d="M616 203h0"></path>
<path d="M756 203h0"></path>
<path d="M616 203a10 10 0 0 0 10 -10v0a10 10 0 0 1 10 -10"></path>
<g>
<path d="M636 183h100"></path>
</g>
<path d="M736 183a10 10 0 0 1 10 10v0a10 10 0 0 0 10 10"></path>
<path d="M616 203h20"></path>
<g class="terminal">
<path d="M636 203h0"></path>
<path d="M736 203h0"></path>
<rect x="636" y="192" width="100" height="22" rx="10" ry="10"></rect>
<text x="686" y="207">"OPTIONAL"</text>
</g>
<path d="M736 203h20"></path>
</g>
</g>
<path d="M756 203h10"></path>
<path d="M498 203a10 10 0 0 0 -10 10v0a10 10 0 0 0 10 10"></path>
<g>
<path d="M498 223h258"></path>
</g>
<path d="M756 223a10 10 0 0 0 10 -10v0a10 10 0 0 0 -10 -10"></path>
</g>
<path d="M766 203h10"></path>
<g>
<path d="M776 203h0"></path>
<path d="M1180 203h0"></path>
<path d="M776 203a10 10 0 0 0 10 -10v0a10 10 0 0 1 10 -10"></path>
<g>
<path d="M796 183h364"></path>
</g>
<path d="M1160 183a10 10 0 0 1 10 10v0a10 10 0 0 0 10 10"></path>
<path d="M776 203h20"></path>
<g>
<path d="M796 203h0"></path>
<path d="M1160 203h0"></path>
<g class="terminal">
<path d="M796 203h0"></path>
<path d="M984 203h0"></path>
<rect x="796" y="192" width="188" height="22" rx="10" ry="10"></rect>
<text x="890" y="207">"PREFERRED PARAMETER"</text>
</g>
<path d="M984 203h10"></path>
<path d="M994 203h10"></path>
<g class="terminal">
<path d="M1004 203h0"></path>
<path d="M1160 203h0"></path>
<rect x="1004" y="192" width="156" height="22" rx="10" ry="10"></rect>
<text x="1082" y="207">^!?(\/\w+\/)?\w+$</text>
</g>
</g>
<path d="M1160 203h20"></path>
</g>
</g>
<path d="M1180 203h20"></path>
</g>
<path d="M1200 203a10 10 0 0 1 10 10v8a10 10 0 0 1 -10 10h-860a10 10 0 0 0 -10 10v8a10 10 0 0 0 10 10"></path>
<g>
<path d="M340 259h0"></path>
<path d="M636 259h564"></path>
<path d="M340 259a10 10 0 0 0 10 -10v0a10 10 0 0 1 10 -10"></path>
<g>
<path d="M360 239h256"></path>
</g>
<path d="M616 239a10 10 0 0 1 10 10v0a10 10 0 0 0 10 10"></path>
<path d="M340 259h20"></path>
<g>
<path d="M360 259h0"></path>
<path d="M616 259h0"></path>
<g class="terminal">
<path d="M360 259h0"></path>
<path d="M468 259h0"></path>
<rect x="360" y="248" width="108" height="22" rx="10" ry="10"></rect>
<text x="414" y="263">"EXPORTING"</text>
</g>
<path d="M468 259h10"></path>
<path d="M478 259h10"></path>
<g>
<path d="M488 259h0"></path>
<path d="M616 259h0"></path>
<path d="M488 259h10"></path>
<g class="non-terminal">
<path d="M498 259h0"></path>
<path d="M606 259h0"></path>
<rect x="498" y="248" width="108" height="22"></rect>
<a xlink:href="reuse_methodparam.svg"><text x="552" y="263">MethodParam</text>
</a>
</g>
<path d="M606 259h10"></path>
<path d="M498 259a10 10 0 0 0 -10 10v0a10 10 0 0 0 10 10"></path>
<g>
<path d="M498 279h108"></path>
</g>
<path d="M606 279a10 10 0 0 0 10 -10v0a10 10 0 0 0 -10 -10"></path>
</g>
</g>
<path d="M616 259h20"></path>
</g>
<path d="M1200 259a10 10 0 0 1 10 10v8a10 10 0 0 1 -10 10h-860a10 10 0 0 0 -10 10v16a10 10 0 0 0 10 10"></path>
<g>
<path d="M340 323h0"></path>
<path d="M778 323h422"></path>
<path d="M340 323a10 10 0 0 0 10 -10v-8a10 10 0 0 1 10 -10"></path>
<g>
<path d="M360 295h398"></path>
</g>
<path d="M758 295a10 10 0 0 1 10 10v8a10 10 0 0 0 10 10"></path>
<path d="M340 323h20"></path>
<g>
<path d="M360 323h0"></path>
<path d="M758 323h0"></path>
<g class="terminal">
<path d="M360 323h0"></path>
<path d="M460 323h0"></path>
<rect x="360" y="312" width="100" height="22" rx="10" ry="10"></rect>
<text x="410" y="327">"CHANGING"</text>
</g>
<path d="M460 323h10"></path>
<path d="M470 323h10"></path>
<g>
<path d="M480 323h0"></path>
<path d="M758 323h0"></path>
<path d="M480 323h10"></path>
<g>
<path d="M490 323h0"></path>
<path d="M748 323h0"></path>
<g class="non-terminal">
<path d="M490 323h0"></path>
<path d="M598 323h0"></path>
<rect x="490" y="312" width="108" height="22"></rect>
<a xlink:href="reuse_methodparam.svg"><text x="544" y="327">MethodParam</text>
</a>
</g>
<path d="M598 323h10"></path>
<g>
<path d="M608 323h0"></path>
<path d="M748 323h0"></path>
<path d="M608 323a10 10 0 0 0 10 -10v0a10 10 0 0 1 10 -10"></path>
<g>
<path d="M628 303h100"></path>
</g>
<path d="M728 303a10 10 0 0 1 10 10v0a10 10 0 0 0 10 10"></path>
<path d="M608 323h20"></path>
<g class="terminal">
<path d="M628 323h0"></path>
<path d="M728 323h0"></path>
<rect x="628" y="312" width="100" height="22" rx="10" ry="10"></rect>
<text x="678" y="327">"OPTIONAL"</text>
</g>
<path d="M728 323h20"></path>
</g>
</g>
<path d="M748 323h10"></path>
<path d="M490 323a10 10 0 0 0 -10 10v0a10 10 0 0 0 10 10"></path>
<g>
<path d="M490 343h258"></path>
</g>
<path d="M748 343a10 10 0 0 0 10 -10v0a10 10 0 0 0 -10 -10"></path>
</g>
</g>
<path d="M758 323h20"></path>
</g>
<path d="M1200 323a10 10 0 0 1 10 10v8a10 10 0 0 1 -10 10h-860a10 10 0 0 0 -10 10v8a10 10 0 0 0 10 10"></path>
<g>
<path d="M340 379h0"></path>
<path d="M616 379h584"></path>
<path d="M340 379a10 10 0 0 0 10 -10v0a10 10 0 0 1 10 -10"></path>
<g>
<path d="M360 359h236"></path>
</g>
<path d="M596 359a10 10 0 0 1 10 10v0a10 10 0 0 0 10 10"></path>
<path d="M340 379h20"></path>
<g>
<path d="M360 379h0"></path>
<path d="M596 379h0"></path>
<g class="terminal">
<path d="M360 379h0"></path>
<path d="M468 379h0"></path>
<rect x="360" y="368" width="108" height="22" rx="10" ry="10"></rect>
<text x="414" y="383">"RETURNING"</text>
</g>
<path d="M468 379h10"></path>
<path d="M478 379h10"></path>
<g class="non-terminal">
<path d="M488 379h0"></path>
<path d="M596 379h0"></path>
<rect x="488" y="368" width="108" height="22"></rect>
<a xlink:href="reuse_methodparam.svg"><text x="542" y="383">MethodParam</text>
</a>
</g>
</g>
<path d="M596 379h20"></path>
</g>
<path d="M1200 379a10 10 0 0 1 10 10v0a10 10 0 0 1 -10 10h-860a10 10 0 0 0 -10 10v8a10 10 0 0 0 10 10"></path>
<g>
<path d="M340 427h0"></path>
<path d="M994 427h206"></path>
<path d="M340 427a10 10 0 0 0 10 -10v0a10 10 0 0 1 10 -10"></path>
<g>
<path d="M360 407h614"></path>
</g>
<path d="M974 407a10 10 0 0 1 10 10v0a10 10 0 0 0 10 10"></path>
<path d="M340 427h20"></path>
<g>
<path d="M360 427h0"></path>
<path d="M974 427h0"></path>
<path d="M360 427h20"></path>
<g>
<path d="M380 427h0"></path>
<path d="M954 427h0"></path>
<g class="terminal">
<path d="M380 427h0"></path>
<path d="M472 427h0"></path>
<rect x="380" y="416" width="92" height="22" rx="10" ry="10"></rect>
<text x="426" y="431">"RAISING"</text>
</g>
<path d="M472 427h10"></path>
<path d="M482 427h10"></path>
<g>
<path d="M492 427h0"></path>
<path d="M954 427h0"></path>
<path d="M492 427h10"></path>
<g>
<path d="M502 427h0"></path>
<path d="M944 427h0"></path>
<path d="M502 427h20"></path>
<g>
<path d="M522 427h0"></path>
<path d="M924 427h0"></path>
<g class="terminal">
<path d="M522 427h0"></path>
<path d="M630 427h0"></path>
<rect x="522" y="416" width="108" height="22" rx="10" ry="10"></rect>
<text x="576" y="431">"RESUMABLE"</text>
</g>
<path d="M630 427h10"></path>
<path d="M640 427h10"></path>
<g class="terminal">
<path d="M650 427h0"></path>
<path d="M702 427h0"></path>
<rect x="650" y="416" width="52" height="22" rx="10" ry="10"></rect>
<text x="676" y="431">!"("</text>
</g>
<path d="M702 427h10"></path>
<path d="M712 427h10"></path>
<g class="non-terminal">
<path d="M722 427h0"></path>
<path d="M814 427h0"></path>
<rect x="722" y="416" width="92" height="22"></rect>
<a xlink:href="reuse_classname.svg"><text x="768" y="431">ClassName</text>
</a>
</g>
<path d="M814 427h10"></path>
<g>
<path d="M824 427h0"></path>
<path d="M924 427h0"></path>
<path d="M824 427h20"></path>
<g class="terminal">
<path d="M844 427h0"></path>
<path d="M896 427h8"></path>
<rect x="844" y="416" width="52" height="22" rx="10" ry="10"></rect>
<text x="870" y="431">!")"</text>
</g>
<path d="M904 427h20"></path>
<path d="M824 427a10 10 0 0 1 10 10v10a10 10 0 0 0 10 10"></path>
<g class="terminal">
<path d="M844 457h0"></path>
<path d="M904 457h0"></path>
<rect x="844" y="446" width="60" height="22" rx="10" ry="10"></rect>
<text x="874" y="461">!") "</text>
</g>
<path d="M904 457a10 10 0 0 0 10 -10v-10a10 10 0 0 1 10 -10"></path>
</g>
</g>
<path d="M924 427h20"></path>
<path d="M502 427a10 10 0 0 1 10 10v40a10 10 0 0 0 10 10"></path>
<g class="non-terminal">
<path d="M522 487h0"></path>
<path d="M614 487h310"></path>
<rect x="522" y="476" width="92" height="22"></rect>
<a xlink:href="reuse_classname.svg"><text x="568" y="491">ClassName</text>
</a>
</g>
<path d="M924 487a10 10 0 0 0 10 -10v-40a10 10 0 0 1 10 -10"></path>
</g>
<path d="M944 427h10"></path>
<path d="M502 427a10 10 0 0 0 -10 10v59a10 10 0 0 0 10 10"></path>
<g>
<path d="M502 506h442"></path>
</g>
<path d="M944 506a10 10 0 0 0 10 -10v-59a10 10 0 0 0 -10 -10"></path>
</g>
</g>
<path d="M954 427h20"></path>
<path d="M360 427a10 10 0 0 1 10 10v78a10 10 0 0 0 10 10"></path>
<g>
<path d="M380 525h0"></path>
<path d="M604 525h350"></path>
<g class="terminal">
<path d="M380 525h0"></path>
<path d="M496 525h0"></path>
<rect x="380" y="514" width="116" height="22" rx="10" ry="10"></rect>
<text x="438" y="529">"EXCEPTIONS"</text>
</g>
<path d="M496 525h10"></path>
<path d="M506 525h10"></path>
<g>
<path d="M516 525h0"></path>
<path d="M604 525h0"></path>
<path d="M516 525h10"></path>
<g class="terminal">
<path d="M526 525h0"></path>
<path d="M594 525h0"></path>
<rect x="526" y="514" width="68" height="22" rx="10" ry="10"></rect>
<text x="560" y="529">^\w+?$</text>
</g>
<path d="M594 525h10"></path>
<path d="M526 525a10 10 0 0 0 -10 10v0a10 10 0 0 0 10 10"></path>
<g>
<path d="M526 545h68"></path>
</g>
<path d="M594 545a10 10 0 0 0 10 -10v0a10 10 0 0 0 -10 -10"></path>
</g>
</g>
<path d="M954 525a10 10 0 0 0 10 -10v-78a10 10 0 0 1 10 -10"></path>
</g>
<path d="M974 427h20"></path>
</g>
<path d="M1200 427h10"></path>
<path d="M1210 427h0"></path>
</g>
<path d="M1210 427a10 10 0 0 0 10 -10v-367a10 10 0 0 1 10 -10"></path>
<path d="M310 40a10 10 0 0 1 10 10v504a10 10 0 0 0 10 10"></path>
<g class="terminal">
<path d="M330 564h0"></path>
<path d="M462 564h748"></path>
<rect x="330" y="553" width="132" height="22" rx="10" ry="10"></rect>
<text x="396" y="568">"REDEFINITION"</text>
</g>
<path d="M1210 564a10 10 0 0 0 10 -10v-504a10 10 0 0 1 10 -10"></path>
</g>
</g>
<path d="M1230 40h10"></path>
<path d="M 1240 40 h 20 m -10 -10 v 20 m 10 -20 v 20"></path>
</g>
</svg>
