<svg xmlns="http://www.w3.org/2000/svg" xmlns:xlink="http://www.w3.org/1999/xlink" class="railroad-diagram" width="3618" height="217" viewBox="0 0 3618 217">
<defs>
<style type="text/css"><![CDATA[
path {
stroke-width: 3;
stroke: black;
fill: rgba(0,0,0,0);
}
text {
font: bold 14px monospace;
text-anchor: middle;
}
text.diagram-text {
font-size: 12px;
}
a {
fill: blue;
}
text.diagram-arrow {
font-size: 16px;
}
text.label {
text-anchor: start;
}
text.comment {
font: italic 12px monospace;
}
rect {
stroke-width: 3;
stroke: black;
fill: #BCBCBC;
}
path.diagram-text {
stroke-width: 3;
stroke: black;
fill: #BCBCBC;
cursor: help;
}
]]></style>
</defs>
<g transform="translate(.5 .5)">
<path d="M 20 30 v 20 m 10 -20 v 20 m -10 -10 h 20.5"></path>
<path d="M40 40h10"></path>
<g>
<path d="M50 40h0"></path>
<path d="M3568 40h0"></path>
<g>
<path d="M50 40h0"></path>
<path d="M230 40h0"></path>
<path d="M50 40h20"></path>
<g class="terminal">
<path d="M70 40h0"></path>
<path d="M210 40h0"></path>
<rect x="70" y="29" width="140" height="22" rx="10" ry="10"></rect>
<text x="140" y="44">"CLASS-METHODS"</text>
</g>
<path d="M210 40h20"></path>
<path d="M50 40a10 10 0 0 1 10 10v10a10 10 0 0 0 10 10"></path>
<g class="terminal">
<path d="M70 70h0"></path>
<path d="M162 70h48"></path>
<rect x="70" y="59" width="92" height="22" rx="10" ry="10"></rect>
<text x="116" y="74">"METHODS"</text>
</g>
<path d="M210 70a10 10 0 0 0 10 -10v-10a10 10 0 0 1 10 -10"></path>
</g>
<path d="M230 40h10"></path>
<g class="non-terminal">
<path d="M240 40h0"></path>
<path d="M300 40h0"></path>
<rect x="240" y="29" width="60" height="22"></rect>
<a xlink:href="reuse_field.svg"><text x="270" y="44">field</text>
</a>
</g>
<path d="M300 40h10"></path>
<g>
<path d="M310 40h0"></path>
<path d="M3568 40h0"></path>
<path d="M310 40h20"></path>
<g>
<path d="M330 40h0"></path>
<path d="M1024 40h2524"></path>
<g class="terminal">
<path d="M330 40h0"></path>
<path d="M438 40h0"></path>
<rect x="330" y="29" width="108" height="22" rx="10" ry="10"></rect>
<text x="384" y="44">"FOR EVENT"</text>
</g>
<path d="M438 40h10"></path>
<path d="M448 40h10"></path>
<g class="non-terminal">
<path d="M458 40h0"></path>
<path d="M518 40h0"></path>
<rect x="458" y="29" width="60" height="22"></rect>
<a xlink:href="reuse_field.svg"><text x="488" y="44">field</text>
</a>
</g>
<path d="M518 40h10"></path>
<path d="M528 40h10"></path>
<g class="terminal">
<path d="M538 40h0"></path>
<path d="M590 40h0"></path>
<rect x="538" y="29" width="52" height="22" rx="10" ry="10"></rect>
<text x="564" y="44">"OF"</text>
</g>
<path d="M590 40h10"></path>
<path d="M600 40h10"></path>
<g class="non-terminal">
<path d="M610 40h0"></path>
<path d="M670 40h0"></path>
<rect x="610" y="29" width="60" height="22"></rect>
<a xlink:href="reuse_field.svg"><text x="640" y="44">field</text>
</a>
</g>
<path d="M670 40h10"></path>
<g>
<path d="M680 40h0"></path>
<path d="M1024 40h0"></path>
<path d="M680 40a10 10 0 0 0 10 -10v0a10 10 0 0 1 10 -10"></path>
<g>
<path d="M700 20h304"></path>
</g>
<path d="M1004 20a10 10 0 0 1 10 10v0a10 10 0 0 0 10 10"></path>
<path d="M680 40h20"></path>
<g>
<path d="M700 40h0"></path>
<path d="M1004 40h0"></path>
<g class="terminal">
<path d="M700 40h0"></path>
<path d="M808 40h0"></path>
<rect x="700" y="29" width="108" height="22" rx="10" ry="10"></rect>
<text x="754" y="44">"IMPORTING"</text>
</g>
<path d="M808 40h10"></path>
<path d="M818 40h10"></path>
<g>
<path d="M828 40h0"></path>
<path d="M1004 40h0"></path>
<path d="M828 40h10"></path>
<g class="terminal">
<path d="M838 40h0"></path>
<path d="M994 40h0"></path>
<rect x="838" y="29" width="156" height="22" rx="10" ry="10"></rect>
<text x="916" y="44">^!?(\/\w+\/)?\w+$</text>
</g>
<path d="M994 40h10"></path>
<path d="M838 40a10 10 0 0 0 -10 10v0a10 10 0 0 0 10 10"></path>
<g>
<path d="M838 60h156"></path>
</g>
<path d="M994 60a10 10 0 0 0 10 -10v0a10 10 0 0 0 -10 -10"></path>
</g>
</g>
<path d="M1004 40h20"></path>
</g>
</g>
<path d="M3548 40h20"></path>
<path d="M310 40a10 10 0 0 1 10 10v36a10 10 0 0 0 10 10"></path>
<g>
<path d="M330 96h0"></path>
<path d="M3548 96h0"></path>
<g>
<path d="M330 96h0"></path>
<path d="M534 96h0"></path>
<path d="M330 96a10 10 0 0 0 10 -10v0a10 10 0 0 1 10 -10"></path>
<g>
<path d="M350 76h164"></path>
</g>
<path d="M514 76a10 10 0 0 1 10 10v0a10 10 0 0 0 10 10"></path>
<path d="M330 96h20"></path>
<g>
<path d="M350 96h0"></path>
<path d="M514 96h0"></path>
<path d="M350 96h20"></path>
<g class="terminal">
<path d="M370 96h0"></path>
<path d="M470 96h24"></path>
<rect x="370" y="85" width="100" height="22" rx="10" ry="10"></rect>
<text x="420" y="100">"ABSTRACT"</text>
</g>
<path d="M494 96h20"></path>
<path d="M350 96a10 10 0 0 1 10 10v10a10 10 0 0 0 10 10"></path>
<g class="terminal">
<path d="M370 126h0"></path>
<path d="M446 126h48"></path>
<rect x="370" y="115" width="76" height="22" rx="10" ry="10"></rect>
<text x="408" y="130">"FINAL"</text>
</g>
<path d="M494 126a10 10 0 0 0 10 -10v-10a10 10 0 0 1 10 -10"></path>
<path d="M350 96a10 10 0 0 1 10 10v40a10 10 0 0 0 10 10"></path>
<g class="terminal">
<path d="M370 156h0"></path>
<path d="M494 156h0"></path>
<rect x="370" y="145" width="124" height="22" rx="10" ry="10"></rect>
<text x="432" y="160">"FOR TESTING"</text>
</g>
<path d="M494 156a10 10 0 0 0 10 -10v-40a10 10 0 0 1 10 -10"></path>
</g>
<path d="M514 96h20"></path>
</g>
<g>
<path d="M534 96h0"></path>
<path d="M1622 96h0"></path>
<path d="M534 96a10 10 0 0 0 10 -10v-8a10 10 0 0 1 10 -10"></path>
<g>
<path d="M554 68h1048"></path>
</g>
<path d="M1602 68a10 10 0 0 1 10 10v8a10 10 0 0 0 10 10"></path>
<path d="M534 96h20"></path>
<g>
<path d="M554 96h0"></path>
<path d="M1602 96h0"></path>
<g class="terminal">
<path d="M554 96h0"></path>
<path d="M662 96h0"></path>
<rect x="554" y="85" width="108" height="22" rx="10" ry="10"></rect>
<text x="608" y="100">"IMPORTING"</text>
</g>
<path d="M662 96h10"></path>
<path d="M672 96h10"></path>
<g>
<path d="M682 96h0"></path>
<path d="M1188 96h0"></path>
<path d="M682 96h10"></path>
<g>
<path d="M692 96h0"></path>
<path d="M1178 96h0"></path>
<g>
<path d="M692 96h0"></path>
<path d="M1028 96h0"></path>
<g>
<path d="M692 96h0"></path>
<path d="M888 96h0"></path>
<path d="M692 96h20"></path>
<g class="non-terminal">
<path d="M712 96h0"></path>
<path d="M828 96h40"></path>
<rect x="712" y="85" width="116" height="22"></rect>
<a xlink:href="reuse_pass_byvalue.svg"><text x="770" y="100">pass&#95;byvalue</text>
</a>
</g>
<path d="M868 96h20"></path>
<path d="M692 96a10 10 0 0 1 10 10v10a10 10 0 0 0 10 10"></path>
<g class="terminal">
<path d="M712 126h0"></path>
<path d="M868 126h0"></path>
<rect x="712" y="115" width="156" height="22" rx="10" ry="10"></rect>
<text x="790" y="130">^!?(\/\w+\/)?\w+$</text>
</g>
<path d="M868 126a10 10 0 0 0 10 -10v-10a10 10 0 0 1 10 -10"></path>
</g>
<g>
<path d="M888 96h0"></path>
<path d="M1028 96h0"></path>
<path d="M888 96h20"></path>
<g class="non-terminal">
<path d="M908 96h0"></path>
<path d="M960 96h48"></path>
<rect x="908" y="85" width="52" height="22"></rect>
<a xlink:href="reuse_type.svg"><text x="934" y="100">type</text>
</a>
</g>
<path d="M1008 96h20"></path>
<path d="M888 96a10 10 0 0 1 10 10v10a10 10 0 0 0 10 10"></path>
<g class="non-terminal">
<path d="M908 126h0"></path>
<path d="M1008 126h0"></path>
<rect x="908" y="115" width="100" height="22"></rect>
<a xlink:href="reuse_type_table.svg"><text x="958" y="130">type&#95;table</text>
</a>
</g>
<path d="M1008 126a10 10 0 0 0 10 -10v-10a10 10 0 0 1 10 -10"></path>
</g>
</g>
<path d="M1028 96h10"></path>
<g>
<path d="M1038 96h0"></path>
<path d="M1178 96h0"></path>
<path d="M1038 96a10 10 0 0 0 10 -10v0a10 10 0 0 1 10 -10"></path>
<g>
<path d="M1058 76h100"></path>
</g>
<path d="M1158 76a10 10 0 0 1 10 10v0a10 10 0 0 0 10 10"></path>
<path d="M1038 96h20"></path>
<g class="terminal">
<path d="M1058 96h0"></path>
<path d="M1158 96h0"></path>
<rect x="1058" y="85" width="100" height="22" rx="10" ry="10"></rect>
<text x="1108" y="100">"OPTIONAL"</text>
</g>
<path d="M1158 96h20"></path>
</g>
</g>
<path d="M1178 96h10"></path>
<path d="M692 96a10 10 0 0 0 -10 10v29a10 10 0 0 0 10 10"></path>
<g>
<path d="M692 145h486"></path>
</g>
<path d="M1178 145a10 10 0 0 0 10 -10v-29a10 10 0 0 0 -10 -10"></path>
</g>
<path d="M1188 96h10"></path>
<g>
<path d="M1198 96h0"></path>
<path d="M1602 96h0"></path>
<path d="M1198 96a10 10 0 0 0 10 -10v0a10 10 0 0 1 10 -10"></path>
<g>
<path d="M1218 76h364"></path>
</g>
<path d="M1582 76a10 10 0 0 1 10 10v0a10 10 0 0 0 10 10"></path>
<path d="M1198 96h20"></path>
<g>
<path d="M1218 96h0"></path>
<path d="M1582 96h0"></path>
<g class="terminal">
<path d="M1218 96h0"></path>
<path d="M1406 96h0"></path>
<rect x="1218" y="85" width="188" height="22" rx="10" ry="10"></rect>
<text x="1312" y="100">"PREFERRED PARAMETER"</text>
</g>
<path d="M1406 96h10"></path>
<path d="M1416 96h10"></path>
<g class="terminal">
<path d="M1426 96h0"></path>
<path d="M1582 96h0"></path>
<rect x="1426" y="85" width="156" height="22" rx="10" ry="10"></rect>
<text x="1504" y="100">^!?(\/\w+\/)?\w+$</text>
</g>
</g>
<path d="M1582 96h20"></path>
</g>
</g>
<path d="M1602 96h20"></path>
</g>
<g>
<path d="M1622 96h0"></path>
<path d="M2146 96h0"></path>
<path d="M1622 96a10 10 0 0 0 10 -10v0a10 10 0 0 1 10 -10"></path>
<g>
<path d="M1642 76h484"></path>
</g>
<path d="M2126 76a10 10 0 0 1 10 10v0a10 10 0 0 0 10 10"></path>
<path d="M1622 96h20"></path>
<g>
<path d="M1642 96h0"></path>
<path d="M2126 96h0"></path>
<g class="terminal">
<path d="M1642 96h0"></path>
<path d="M1750 96h0"></path>
<rect x="1642" y="85" width="108" height="22" rx="10" ry="10"></rect>
<text x="1696" y="100">"EXPORTING"</text>
</g>
<path d="M1750 96h10"></path>
<path d="M1760 96h10"></path>
<g>
<path d="M1770 96h0"></path>
<path d="M2126 96h0"></path>
<path d="M1770 96h10"></path>
<g>
<path d="M1780 96h0"></path>
<path d="M2116 96h0"></path>
<g>
<path d="M1780 96h0"></path>
<path d="M1976 96h0"></path>
<path d="M1780 96h20"></path>
<g class="non-terminal">
<path d="M1800 96h0"></path>
<path d="M1916 96h40"></path>
<rect x="1800" y="85" width="116" height="22"></rect>
<a xlink:href="reuse_pass_byvalue.svg"><text x="1858" y="100">pass&#95;byvalue</text>
</a>
</g>
<path d="M1956 96h20"></path>
<path d="M1780 96a10 10 0 0 1 10 10v10a10 10 0 0 0 10 10"></path>
<g class="terminal">
<path d="M1800 126h0"></path>
<path d="M1956 126h0"></path>
<rect x="1800" y="115" width="156" height="22" rx="10" ry="10"></rect>
<text x="1878" y="130">^!?(\/\w+\/)?\w+$</text>
</g>
<path d="M1956 126a10 10 0 0 0 10 -10v-10a10 10 0 0 1 10 -10"></path>
</g>
<g>
<path d="M1976 96h0"></path>
<path d="M2116 96h0"></path>
<path d="M1976 96h20"></path>
<g class="non-terminal">
<path d="M1996 96h0"></path>
<path d="M2048 96h48"></path>
<rect x="1996" y="85" width="52" height="22"></rect>
<a xlink:href="reuse_type.svg"><text x="2022" y="100">type</text>
</a>
</g>
<path d="M2096 96h20"></path>
<path d="M1976 96a10 10 0 0 1 10 10v10a10 10 0 0 0 10 10"></path>
<g class="non-terminal">
<path d="M1996 126h0"></path>
<path d="M2096 126h0"></path>
<rect x="1996" y="115" width="100" height="22"></rect>
<a xlink:href="reuse_type_table.svg"><text x="2046" y="130">type&#95;table</text>
</a>
</g>
<path d="M2096 126a10 10 0 0 0 10 -10v-10a10 10 0 0 1 10 -10"></path>
</g>
</g>
<path d="M2116 96h10"></path>
<path d="M1780 96a10 10 0 0 0 -10 10v29a10 10 0 0 0 10 10"></path>
<g>
<path d="M1780 145h336"></path>
</g>
<path d="M2116 145a10 10 0 0 0 10 -10v-29a10 10 0 0 0 -10 -10"></path>
</g>
</g>
<path d="M2126 96h20"></path>
</g>
<g>
<path d="M2146 96h0"></path>
<path d="M2782 96h0"></path>
<path d="M2146 96a10 10 0 0 0 10 -10v-8a10 10 0 0 1 10 -10"></path>
<g>
<path d="M2166 68h596"></path>
</g>
<path d="M2762 68a10 10 0 0 1 10 10v8a10 10 0 0 0 10 10"></path>
<path d="M2146 96h20"></path>
<g>
<path d="M2166 96h0"></path>
<path d="M2762 96h0"></path>
<g class="terminal">
<path d="M2166 96h0"></path>
<path d="M2266 96h0"></path>
<rect x="2166" y="85" width="100" height="22" rx="10" ry="10"></rect>
<text x="2216" y="100">"CHANGING"</text>
</g>
<path d="M2266 96h10"></path>
<path d="M2276 96h10"></path>
<g>
<path d="M2286 96h0"></path>
<path d="M2762 96h0"></path>
<path d="M2286 96h10"></path>
<g>
<path d="M2296 96h0"></path>
<path d="M2752 96h0"></path>
<g>
<path d="M2296 96h0"></path>
<path d="M2602 96h0"></path>
<g class="terminal">
<path d="M2296 96h0"></path>
<path d="M2452 96h0"></path>
<rect x="2296" y="85" width="156" height="22" rx="10" ry="10"></rect>
<text x="2374" y="100">^!?(\/\w+\/)?\w+$</text>
</g>
<path d="M2452 96h10"></path>
<g>
<path d="M2462 96h0"></path>
<path d="M2602 96h0"></path>
<path d="M2462 96h20"></path>
<g class="non-terminal">
<path d="M2482 96h0"></path>
<path d="M2534 96h48"></path>
<rect x="2482" y="85" width="52" height="22"></rect>
<a xlink:href="reuse_type.svg"><text x="2508" y="100">type</text>
</a>
</g>
<path d="M2582 96h20"></path>
<path d="M2462 96a10 10 0 0 1 10 10v10a10 10 0 0 0 10 10"></path>
<g class="non-terminal">
<path d="M2482 126h0"></path>
<path d="M2582 126h0"></path>
<rect x="2482" y="115" width="100" height="22"></rect>
<a xlink:href="reuse_type_table.svg"><text x="2532" y="130">type&#95;table</text>
</a>
</g>
<path d="M2582 126a10 10 0 0 0 10 -10v-10a10 10 0 0 1 10 -10"></path>
</g>
</g>
<path d="M2602 96h10"></path>
<g>
<path d="M2612 96h0"></path>
<path d="M2752 96h0"></path>
<path d="M2612 96a10 10 0 0 0 10 -10v0a10 10 0 0 1 10 -10"></path>
<g>
<path d="M2632 76h100"></path>
</g>
<path d="M2732 76a10 10 0 0 1 10 10v0a10 10 0 0 0 10 10"></path>
<path d="M2612 96h20"></path>
<g class="terminal">
<path d="M2632 96h0"></path>
<path d="M2732 96h0"></path>
<rect x="2632" y="85" width="100" height="22" rx="10" ry="10"></rect>
<text x="2682" y="100">"OPTIONAL"</text>
</g>
<path d="M2732 96h20"></path>
</g>
</g>
<path d="M2752 96h10"></path>
<path d="M2296 96a10 10 0 0 0 -10 10v29a10 10 0 0 0 10 10"></path>
<g>
<path d="M2296 145h456"></path>
</g>
<path d="M2752 145a10 10 0 0 0 10 -10v-29a10 10 0 0 0 -10 -10"></path>
</g>
</g>
<path d="M2762 96h20"></path>
</g>
<g>
<path d="M2782 96h0"></path>
<path d="M3236 96h0"></path>
<path d="M2782 96a10 10 0 0 0 10 -10v0a10 10 0 0 1 10 -10"></path>
<g>
<path d="M2802 76h414"></path>
</g>
<path d="M3216 76a10 10 0 0 1 10 10v0a10 10 0 0 0 10 10"></path>
<path d="M2782 96h20"></path>
<g>
<path d="M2802 96h0"></path>
<path d="M3216 96h0"></path>
<g class="terminal">
<path d="M2802 96h0"></path>
<path d="M2910 96h0"></path>
<rect x="2802" y="85" width="108" height="22" rx="10" ry="10"></rect>
<text x="2856" y="100">"RETURNING"</text>
</g>
<path d="M2910 96h10"></path>
<path d="M2920 96h10"></path>
<g>
<path d="M2930 96h0"></path>
<path d="M3216 96h0"></path>
<path d="M2930 96h10"></path>
<g>
<path d="M2940 96h0"></path>
<path d="M3206 96h0"></path>
<g class="non-terminal">
<path d="M2940 96h0"></path>
<path d="M3056 96h0"></path>
<rect x="2940" y="85" width="116" height="22"></rect>
<a xlink:href="reuse_pass_byvalue.svg"><text x="2998" y="100">pass&#95;byvalue</text>
</a>
</g>
<path d="M3056 96h10"></path>
<g>
<path d="M3066 96h0"></path>
<path d="M3206 96h0"></path>
<path d="M3066 96h20"></path>
<g class="non-terminal">
<path d="M3086 96h0"></path>
<path d="M3138 96h48"></path>
<rect x="3086" y="85" width="52" height="22"></rect>
<a xlink:href="reuse_type.svg"><text x="3112" y="100">type</text>
</a>
</g>
<path d="M3186 96h20"></path>
<path d="M3066 96a10 10 0 0 1 10 10v10a10 10 0 0 0 10 10"></path>
<g class="non-terminal">
<path d="M3086 126h0"></path>
<path d="M3186 126h0"></path>
<rect x="3086" y="115" width="100" height="22"></rect>
<a xlink:href="reuse_type_table.svg"><text x="3136" y="130">type&#95;table</text>
</a>
</g>
<path d="M3186 126a10 10 0 0 0 10 -10v-10a10 10 0 0 1 10 -10"></path>
</g>
</g>
<path d="M3206 96h10"></path>
<path d="M2940 96a10 10 0 0 0 -10 10v29a10 10 0 0 0 10 10"></path>
<g>
<path d="M2940 145h266"></path>
</g>
<path d="M3206 145a10 10 0 0 0 10 -10v-29a10 10 0 0 0 -10 -10"></path>
</g>
</g>
<path d="M3216 96h20"></path>
</g>
<g>
<path d="M3236 96h0"></path>
<path d="M3548 96h0"></path>
<path d="M3236 96a10 10 0 0 0 10 -10v0a10 10 0 0 1 10 -10"></path>
<g>
<path d="M3256 76h272"></path>
</g>
<path d="M3528 76a10 10 0 0 1 10 10v0a10 10 0 0 0 10 10"></path>
<path d="M3236 96h20"></path>
<g>
<path d="M3256 96h0"></path>
<path d="M3528 96h0"></path>
<path d="M3256 96h20"></path>
<g>
<path d="M3276 96h0"></path>
<path d="M3508 96h0"></path>
<g class="terminal">
<path d="M3276 96h0"></path>
<path d="M3368 96h0"></path>
<rect x="3276" y="85" width="92" height="22" rx="10" ry="10"></rect>
<text x="3322" y="100">"RAISING"</text>
</g>
<path d="M3368 96h10"></path>
<path d="M3378 96h10"></path>
<g>
<path d="M3388 96h0"></path>
<path d="M3508 96h0"></path>
<path d="M3388 96h10"></path>
<g class="non-terminal">
<path d="M3398 96h0"></path>
<path d="M3498 96h0"></path>
<rect x="3398" y="85" width="100" height="22"></rect>
<a xlink:href="reuse_class_name.svg"><text x="3448" y="100">class&#95;name</text>
</a>
</g>
<path d="M3498 96h10"></path>
<path d="M3398 96a10 10 0 0 0 -10 10v0a10 10 0 0 0 10 10"></path>
<g>
<path d="M3398 116h100"></path>
</g>
<path d="M3498 116a10 10 0 0 0 10 -10v0a10 10 0 0 0 -10 -10"></path>
</g>
</g>
<path d="M3508 96h20"></path>
<path d="M3256 96a10 10 0 0 1 10 10v19a10 10 0 0 0 10 10"></path>
<g>
<path d="M3276 135h0"></path>
<path d="M3500 135h8"></path>
<g class="terminal">
<path d="M3276 135h0"></path>
<path d="M3392 135h0"></path>
<rect x="3276" y="124" width="116" height="22" rx="10" ry="10"></rect>
<text x="3334" y="139">"EXCEPTIONS"</text>
</g>
<path d="M3392 135h10"></path>
<path d="M3402 135h10"></path>
<g>
<path d="M3412 135h0"></path>
<path d="M3500 135h0"></path>
<path d="M3412 135h10"></path>
<g class="terminal">
<path d="M3422 135h0"></path>
<path d="M3490 135h0"></path>
<rect x="3422" y="124" width="68" height="22" rx="10" ry="10"></rect>
<text x="3456" y="139">^\w+?$</text>
</g>
<path d="M3490 135h10"></path>
<path d="M3422 135a10 10 0 0 0 -10 10v0a10 10 0 0 0 10 10"></path>
<g>
<path d="M3422 155h68"></path>
</g>
<path d="M3490 155a10 10 0 0 0 10 -10v0a10 10 0 0 0 -10 -10"></path>
</g>
</g>
<path d="M3508 135a10 10 0 0 0 10 -10v-19a10 10 0 0 1 10 -10"></path>
</g>
<path d="M3528 96h20"></path>
</g>
</g>
<path d="M3548 96a10 10 0 0 0 10 -10v-36a10 10 0 0 1 10 -10"></path>
<path d="M310 40a10 10 0 0 1 10 10v126a10 10 0 0 0 10 10"></path>
<g class="terminal">
<path d="M330 186h0"></path>
<path d="M462 186h3086"></path>
<rect x="330" y="175" width="132" height="22" rx="10" ry="10"></rect>
<text x="396" y="190">"REDEFINITION"</text>
</g>
<path d="M3548 186a10 10 0 0 0 10 -10v-126a10 10 0 0 1 10 -10"></path>
</g>
</g>
<path d="M3568 40h10"></path>
<path d="M 3578 40 h 20 m -10 -10 v 20 m 10 -20 v 20"></path>
</g>
</svg>
