<svg xmlns="http://www.w3.org/2000/svg" xmlns:xlink="http://www.w3.org/1999/xlink" class="railroad-diagram" width="3128" height="264" viewBox="0 0 3128 264">
<defs>
<style type="text/css"><![CDATA[
path {
stroke-width: 3;
stroke: black;
fill: rgba(0,0,0,0);
}
text {
font: bold 14px monospace;
text-anchor: middle;
}
text.diagram-text {
font-size: 12px;
}
a {
fill: blue;
}
text.diagram-arrow {
font-size: 16px;
}
text.label {
text-anchor: start;
}
text.comment {
font: italic 12px monospace;
}
rect {
stroke-width: 3;
stroke: black;
fill: #BCBCBC;
}
path.diagram-text {
stroke-width: 3;
stroke: black;
fill: #BCBCBC;
cursor: help;
}
]]></style>
</defs>
<g transform="translate(.5 .5)">
<path d="M 20 30 v 20 m 10 -20 v 20 m -10 -10 h 20.5"></path>
<path d="M40 40h10"></path>
<g>
<path d="M50 40h0"></path>
<path d="M3078 40h0"></path>
<g>
<path d="M50 40h0"></path>
<path d="M230 40h0"></path>
<path d="M50 40h20"></path>
<g class="terminal">
<path d="M70 40h0"></path>
<path d="M210 40h0"></path>
<rect x="70" y="29" width="140" height="22" rx="10" ry="10"></rect>
<text x="140" y="44">"CLASS-METHODS"</text>
</g>
<path d="M210 40h20"></path>
<path d="M50 40a10 10 0 0 1 10 10v10a10 10 0 0 0 10 10"></path>
<g class="terminal">
<path d="M70 70h0"></path>
<path d="M162 70h48"></path>
<rect x="70" y="59" width="92" height="22" rx="10" ry="10"></rect>
<text x="116" y="74">"METHODS"</text>
</g>
<path d="M210 70a10 10 0 0 0 10 -10v-10a10 10 0 0 1 10 -10"></path>
</g>
<path d="M230 40h10"></path>
<g class="non-terminal">
<path d="M240 40h0"></path>
<path d="M300 40h0"></path>
<rect x="240" y="29" width="60" height="22"></rect>
<a xlink:href="reuse_field.svg"><text x="270" y="44">Field</text>
</a>
</g>
<path d="M300 40h10"></path>
<g>
<path d="M310 40h0"></path>
<path d="M3078 40h0"></path>
<path d="M310 40h20"></path>
<g>
<path d="M330 40h0"></path>
<path d="M1024 40h2034"></path>
<g class="terminal">
<path d="M330 40h0"></path>
<path d="M438 40h0"></path>
<rect x="330" y="29" width="108" height="22" rx="10" ry="10"></rect>
<text x="384" y="44">"FOR EVENT"</text>
</g>
<path d="M438 40h10"></path>
<path d="M448 40h10"></path>
<g class="non-terminal">
<path d="M458 40h0"></path>
<path d="M518 40h0"></path>
<rect x="458" y="29" width="60" height="22"></rect>
<a xlink:href="reuse_field.svg"><text x="488" y="44">Field</text>
</a>
</g>
<path d="M518 40h10"></path>
<path d="M528 40h10"></path>
<g class="terminal">
<path d="M538 40h0"></path>
<path d="M590 40h0"></path>
<rect x="538" y="29" width="52" height="22" rx="10" ry="10"></rect>
<text x="564" y="44">"OF"</text>
</g>
<path d="M590 40h10"></path>
<path d="M600 40h10"></path>
<g class="non-terminal">
<path d="M610 40h0"></path>
<path d="M670 40h0"></path>
<rect x="610" y="29" width="60" height="22"></rect>
<a xlink:href="reuse_field.svg"><text x="640" y="44">Field</text>
</a>
</g>
<path d="M670 40h10"></path>
<g>
<path d="M680 40h0"></path>
<path d="M1024 40h0"></path>
<path d="M680 40a10 10 0 0 0 10 -10v0a10 10 0 0 1 10 -10"></path>
<g>
<path d="M700 20h304"></path>
</g>
<path d="M1004 20a10 10 0 0 1 10 10v0a10 10 0 0 0 10 10"></path>
<path d="M680 40h20"></path>
<g>
<path d="M700 40h0"></path>
<path d="M1004 40h0"></path>
<g class="terminal">
<path d="M700 40h0"></path>
<path d="M808 40h0"></path>
<rect x="700" y="29" width="108" height="22" rx="10" ry="10"></rect>
<text x="754" y="44">"IMPORTING"</text>
</g>
<path d="M808 40h10"></path>
<path d="M818 40h10"></path>
<g>
<path d="M828 40h0"></path>
<path d="M1004 40h0"></path>
<path d="M828 40h10"></path>
<g class="terminal">
<path d="M838 40h0"></path>
<path d="M994 40h0"></path>
<rect x="838" y="29" width="156" height="22" rx="10" ry="10"></rect>
<text x="916" y="44">^!?(\/\w+\/)?\w+$</text>
</g>
<path d="M994 40h10"></path>
<path d="M838 40a10 10 0 0 0 -10 10v0a10 10 0 0 0 10 10"></path>
<g>
<path d="M838 60h156"></path>
</g>
<path d="M994 60a10 10 0 0 0 10 -10v0a10 10 0 0 0 -10 -10"></path>
</g>
</g>
<path d="M1004 40h20"></path>
</g>
</g>
<path d="M3058 40h20"></path>
<path d="M310 40a10 10 0 0 1 10 10v36a10 10 0 0 0 10 10"></path>
<g>
<path d="M330 96h0"></path>
<path d="M3058 96h0"></path>
<g>
<path d="M330 96h0"></path>
<path d="M534 96h0"></path>
<path d="M330 96a10 10 0 0 0 10 -10v0a10 10 0 0 1 10 -10"></path>
<g>
<path d="M350 76h164"></path>
</g>
<path d="M514 76a10 10 0 0 1 10 10v0a10 10 0 0 0 10 10"></path>
<path d="M330 96h20"></path>
<g>
<path d="M350 96h0"></path>
<path d="M514 96h0"></path>
<path d="M350 96h20"></path>
<g class="terminal">
<path d="M370 96h0"></path>
<path d="M470 96h24"></path>
<rect x="370" y="85" width="100" height="22" rx="10" ry="10"></rect>
<text x="420" y="100">"ABSTRACT"</text>
</g>
<path d="M494 96h20"></path>
<path d="M350 96a10 10 0 0 1 10 10v10a10 10 0 0 0 10 10"></path>
<g class="terminal">
<path d="M370 126h0"></path>
<path d="M446 126h48"></path>
<rect x="370" y="115" width="76" height="22" rx="10" ry="10"></rect>
<text x="408" y="130">"FINAL"</text>
</g>
<path d="M494 126a10 10 0 0 0 10 -10v-10a10 10 0 0 1 10 -10"></path>
<path d="M350 96a10 10 0 0 1 10 10v40a10 10 0 0 0 10 10"></path>
<g class="terminal">
<path d="M370 156h0"></path>
<path d="M494 156h0"></path>
<rect x="370" y="145" width="124" height="22" rx="10" ry="10"></rect>
<text x="432" y="160">"FOR TESTING"</text>
</g>
<path d="M494 156a10 10 0 0 0 10 -10v-40a10 10 0 0 1 10 -10"></path>
</g>
<path d="M514 96h20"></path>
</g>
<g>
<path d="M534 96h0"></path>
<path d="M1394 96h0"></path>
<path d="M534 96a10 10 0 0 0 10 -10v-8a10 10 0 0 1 10 -10"></path>
<g>
<path d="M554 68h820"></path>
</g>
<path d="M1374 68a10 10 0 0 1 10 10v8a10 10 0 0 0 10 10"></path>
<path d="M534 96h20"></path>
<g>
<path d="M554 96h0"></path>
<path d="M1374 96h0"></path>
<g class="terminal">
<path d="M554 96h0"></path>
<path d="M662 96h0"></path>
<rect x="554" y="85" width="108" height="22" rx="10" ry="10"></rect>
<text x="608" y="100">"IMPORTING"</text>
</g>
<path d="M662 96h10"></path>
<path d="M672 96h10"></path>
<g>
<path d="M682 96h0"></path>
<path d="M960 96h0"></path>
<path d="M682 96h10"></path>
<g>
<path d="M692 96h0"></path>
<path d="M950 96h0"></path>
<g class="non-terminal">
<path d="M692 96h0"></path>
<path d="M800 96h0"></path>
<rect x="692" y="85" width="108" height="22"></rect>
<a xlink:href="reuse_methodparam.svg"><text x="746" y="100">MethodParam</text>
</a>
</g>
<path d="M800 96h10"></path>
<g>
<path d="M810 96h0"></path>
<path d="M950 96h0"></path>
<path d="M810 96a10 10 0 0 0 10 -10v0a10 10 0 0 1 10 -10"></path>
<g>
<path d="M830 76h100"></path>
</g>
<path d="M930 76a10 10 0 0 1 10 10v0a10 10 0 0 0 10 10"></path>
<path d="M810 96h20"></path>
<g class="terminal">
<path d="M830 96h0"></path>
<path d="M930 96h0"></path>
<rect x="830" y="85" width="100" height="22" rx="10" ry="10"></rect>
<text x="880" y="100">"OPTIONAL"</text>
</g>
<path d="M930 96h20"></path>
</g>
</g>
<path d="M950 96h10"></path>
<path d="M692 96a10 10 0 0 0 -10 10v0a10 10 0 0 0 10 10"></path>
<g>
<path d="M692 116h258"></path>
</g>
<path d="M950 116a10 10 0 0 0 10 -10v0a10 10 0 0 0 -10 -10"></path>
</g>
<path d="M960 96h10"></path>
<g>
<path d="M970 96h0"></path>
<path d="M1374 96h0"></path>
<path d="M970 96a10 10 0 0 0 10 -10v0a10 10 0 0 1 10 -10"></path>
<g>
<path d="M990 76h364"></path>
</g>
<path d="M1354 76a10 10 0 0 1 10 10v0a10 10 0 0 0 10 10"></path>
<path d="M970 96h20"></path>
<g>
<path d="M990 96h0"></path>
<path d="M1354 96h0"></path>
<g class="terminal">
<path d="M990 96h0"></path>
<path d="M1178 96h0"></path>
<rect x="990" y="85" width="188" height="22" rx="10" ry="10"></rect>
<text x="1084" y="100">"PREFERRED PARAMETER"</text>
</g>
<path d="M1178 96h10"></path>
<path d="M1188 96h10"></path>
<g class="terminal">
<path d="M1198 96h0"></path>
<path d="M1354 96h0"></path>
<rect x="1198" y="85" width="156" height="22" rx="10" ry="10"></rect>
<text x="1276" y="100">^!?(\/\w+\/)?\w+$</text>
</g>
</g>
<path d="M1354 96h20"></path>
</g>
</g>
<path d="M1374 96h20"></path>
</g>
<g>
<path d="M1394 96h0"></path>
<path d="M1690 96h0"></path>
<path d="M1394 96a10 10 0 0 0 10 -10v0a10 10 0 0 1 10 -10"></path>
<g>
<path d="M1414 76h256"></path>
</g>
<path d="M1670 76a10 10 0 0 1 10 10v0a10 10 0 0 0 10 10"></path>
<path d="M1394 96h20"></path>
<g>
<path d="M1414 96h0"></path>
<path d="M1670 96h0"></path>
<g class="terminal">
<path d="M1414 96h0"></path>
<path d="M1522 96h0"></path>
<rect x="1414" y="85" width="108" height="22" rx="10" ry="10"></rect>
<text x="1468" y="100">"EXPORTING"</text>
</g>
<path d="M1522 96h10"></path>
<path d="M1532 96h10"></path>
<g>
<path d="M1542 96h0"></path>
<path d="M1670 96h0"></path>
<path d="M1542 96h10"></path>
<g class="non-terminal">
<path d="M1552 96h0"></path>
<path d="M1660 96h0"></path>
<rect x="1552" y="85" width="108" height="22"></rect>
<a xlink:href="reuse_methodparam.svg"><text x="1606" y="100">MethodParam</text>
</a>
</g>
<path d="M1660 96h10"></path>
<path d="M1552 96a10 10 0 0 0 -10 10v0a10 10 0 0 0 10 10"></path>
<g>
<path d="M1552 116h108"></path>
</g>
<path d="M1660 116a10 10 0 0 0 10 -10v0a10 10 0 0 0 -10 -10"></path>
</g>
</g>
<path d="M1670 96h20"></path>
</g>
<g>
<path d="M1690 96h0"></path>
<path d="M2128 96h0"></path>
<path d="M1690 96a10 10 0 0 0 10 -10v-8a10 10 0 0 1 10 -10"></path>
<g>
<path d="M1710 68h398"></path>
</g>
<path d="M2108 68a10 10 0 0 1 10 10v8a10 10 0 0 0 10 10"></path>
<path d="M1690 96h20"></path>
<g>
<path d="M1710 96h0"></path>
<path d="M2108 96h0"></path>
<g class="terminal">
<path d="M1710 96h0"></path>
<path d="M1810 96h0"></path>
<rect x="1710" y="85" width="100" height="22" rx="10" ry="10"></rect>
<text x="1760" y="100">"CHANGING"</text>
</g>
<path d="M1810 96h10"></path>
<path d="M1820 96h10"></path>
<g>
<path d="M1830 96h0"></path>
<path d="M2108 96h0"></path>
<path d="M1830 96h10"></path>
<g>
<path d="M1840 96h0"></path>
<path d="M2098 96h0"></path>
<g class="non-terminal">
<path d="M1840 96h0"></path>
<path d="M1948 96h0"></path>
<rect x="1840" y="85" width="108" height="22"></rect>
<a xlink:href="reuse_methodparam.svg"><text x="1894" y="100">MethodParam</text>
</a>
</g>
<path d="M1948 96h10"></path>
<g>
<path d="M1958 96h0"></path>
<path d="M2098 96h0"></path>
<path d="M1958 96a10 10 0 0 0 10 -10v0a10 10 0 0 1 10 -10"></path>
<g>
<path d="M1978 76h100"></path>
</g>
<path d="M2078 76a10 10 0 0 1 10 10v0a10 10 0 0 0 10 10"></path>
<path d="M1958 96h20"></path>
<g class="terminal">
<path d="M1978 96h0"></path>
<path d="M2078 96h0"></path>
<rect x="1978" y="85" width="100" height="22" rx="10" ry="10"></rect>
<text x="2028" y="100">"OPTIONAL"</text>
</g>
<path d="M2078 96h20"></path>
</g>
</g>
<path d="M2098 96h10"></path>
<path d="M1840 96a10 10 0 0 0 -10 10v0a10 10 0 0 0 10 10"></path>
<g>
<path d="M1840 116h258"></path>
</g>
<path d="M2098 116a10 10 0 0 0 10 -10v0a10 10 0 0 0 -10 -10"></path>
</g>
</g>
<path d="M2108 96h20"></path>
</g>
<g>
<path d="M2128 96h0"></path>
<path d="M2404 96h0"></path>
<path d="M2128 96a10 10 0 0 0 10 -10v0a10 10 0 0 1 10 -10"></path>
<g>
<path d="M2148 76h236"></path>
</g>
<path d="M2384 76a10 10 0 0 1 10 10v0a10 10 0 0 0 10 10"></path>
<path d="M2128 96h20"></path>
<g>
<path d="M2148 96h0"></path>
<path d="M2384 96h0"></path>
<g class="terminal">
<path d="M2148 96h0"></path>
<path d="M2256 96h0"></path>
<rect x="2148" y="85" width="108" height="22" rx="10" ry="10"></rect>
<text x="2202" y="100">"RETURNING"</text>
</g>
<path d="M2256 96h10"></path>
<path d="M2266 96h10"></path>
<g class="non-terminal">
<path d="M2276 96h0"></path>
<path d="M2384 96h0"></path>
<rect x="2276" y="85" width="108" height="22"></rect>
<a xlink:href="reuse_methodparam.svg"><text x="2330" y="100">MethodParam</text>
</a>
</g>
</g>
<path d="M2384 96h20"></path>
</g>
<g>
<path d="M2404 96h0"></path>
<path d="M3058 96h0"></path>
<path d="M2404 96a10 10 0 0 0 10 -10v0a10 10 0 0 1 10 -10"></path>
<g>
<path d="M2424 76h614"></path>
</g>
<path d="M3038 76a10 10 0 0 1 10 10v0a10 10 0 0 0 10 10"></path>
<path d="M2404 96h20"></path>
<g>
<path d="M2424 96h0"></path>
<path d="M3038 96h0"></path>
<path d="M2424 96h20"></path>
<g>
<path d="M2444 96h0"></path>
<path d="M3018 96h0"></path>
<g class="terminal">
<path d="M2444 96h0"></path>
<path d="M2536 96h0"></path>
<rect x="2444" y="85" width="92" height="22" rx="10" ry="10"></rect>
<text x="2490" y="100">"RAISING"</text>
</g>
<path d="M2536 96h10"></path>
<path d="M2546 96h10"></path>
<g>
<path d="M2556 96h0"></path>
<path d="M3018 96h0"></path>
<path d="M2556 96h10"></path>
<g>
<path d="M2566 96h0"></path>
<path d="M3008 96h0"></path>
<path d="M2566 96h20"></path>
<g>
<path d="M2586 96h0"></path>
<path d="M2988 96h0"></path>
<g class="terminal">
<path d="M2586 96h0"></path>
<path d="M2694 96h0"></path>
<rect x="2586" y="85" width="108" height="22" rx="10" ry="10"></rect>
<text x="2640" y="100">"RESUMABLE"</text>
</g>
<path d="M2694 96h10"></path>
<path d="M2704 96h10"></path>
<g class="terminal">
<path d="M2714 96h0"></path>
<path d="M2766 96h0"></path>
<rect x="2714" y="85" width="52" height="22" rx="10" ry="10"></rect>
<text x="2740" y="100">!"("</text>
</g>
<path d="M2766 96h10"></path>
<path d="M2776 96h10"></path>
<g class="non-terminal">
<path d="M2786 96h0"></path>
<path d="M2878 96h0"></path>
<rect x="2786" y="85" width="92" height="22"></rect>
<a xlink:href="reuse_classname.svg"><text x="2832" y="100">ClassName</text>
</a>
</g>
<path d="M2878 96h10"></path>
<g>
<path d="M2888 96h0"></path>
<path d="M2988 96h0"></path>
<path d="M2888 96h20"></path>
<g class="terminal">
<path d="M2908 96h0"></path>
<path d="M2960 96h8"></path>
<rect x="2908" y="85" width="52" height="22" rx="10" ry="10"></rect>
<text x="2934" y="100">!")"</text>
</g>
<path d="M2968 96h20"></path>
<path d="M2888 96a10 10 0 0 1 10 10v10a10 10 0 0 0 10 10"></path>
<g class="terminal">
<path d="M2908 126h0"></path>
<path d="M2968 126h0"></path>
<rect x="2908" y="115" width="60" height="22" rx="10" ry="10"></rect>
<text x="2938" y="130">!") "</text>
</g>
<path d="M2968 126a10 10 0 0 0 10 -10v-10a10 10 0 0 1 10 -10"></path>
</g>
</g>
<path d="M2988 96h20"></path>
<path d="M2566 96a10 10 0 0 1 10 10v40a10 10 0 0 0 10 10"></path>
<g class="non-terminal">
<path d="M2586 156h0"></path>
<path d="M2678 156h310"></path>
<rect x="2586" y="145" width="92" height="22"></rect>
<a xlink:href="reuse_classname.svg"><text x="2632" y="160">ClassName</text>
</a>
</g>
<path d="M2988 156a10 10 0 0 0 10 -10v-40a10 10 0 0 1 10 -10"></path>
</g>
<path d="M3008 96h10"></path>
<path d="M2566 96a10 10 0 0 0 -10 10v59a10 10 0 0 0 10 10"></path>
<g>
<path d="M2566 175h442"></path>
</g>
<path d="M3008 175a10 10 0 0 0 10 -10v-59a10 10 0 0 0 -10 -10"></path>
</g>
</g>
<path d="M3018 96h20"></path>
<path d="M2424 96a10 10 0 0 1 10 10v78a10 10 0 0 0 10 10"></path>
<g>
<path d="M2444 194h0"></path>
<path d="M2668 194h350"></path>
<g class="terminal">
<path d="M2444 194h0"></path>
<path d="M2560 194h0"></path>
<rect x="2444" y="183" width="116" height="22" rx="10" ry="10"></rect>
<text x="2502" y="198">"EXCEPTIONS"</text>
</g>
<path d="M2560 194h10"></path>
<path d="M2570 194h10"></path>
<g>
<path d="M2580 194h0"></path>
<path d="M2668 194h0"></path>
<path d="M2580 194h10"></path>
<g class="terminal">
<path d="M2590 194h0"></path>
<path d="M2658 194h0"></path>
<rect x="2590" y="183" width="68" height="22" rx="10" ry="10"></rect>
<text x="2624" y="198">^\w+?$</text>
</g>
<path d="M2658 194h10"></path>
<path d="M2590 194a10 10 0 0 0 -10 10v0a10 10 0 0 0 10 10"></path>
<g>
<path d="M2590 214h68"></path>
</g>
<path d="M2658 214a10 10 0 0 0 10 -10v0a10 10 0 0 0 -10 -10"></path>
</g>
</g>
<path d="M3018 194a10 10 0 0 0 10 -10v-78a10 10 0 0 1 10 -10"></path>
</g>
<path d="M3038 96h20"></path>
</g>
</g>
<path d="M3058 96a10 10 0 0 0 10 -10v-36a10 10 0 0 1 10 -10"></path>
<path d="M310 40a10 10 0 0 1 10 10v173a10 10 0 0 0 10 10"></path>
<g class="terminal">
<path d="M330 233h0"></path>
<path d="M462 233h2596"></path>
<rect x="330" y="222" width="132" height="22" rx="10" ry="10"></rect>
<text x="396" y="237">"REDEFINITION"</text>
</g>
<path d="M3058 233a10 10 0 0 0 10 -10v-173a10 10 0 0 1 10 -10"></path>
</g>
</g>
<path d="M3078 40h10"></path>
<path d="M 3088 40 h 20 m -10 -10 v 20 m 10 -20 v 20"></path>
</g>
</svg>
