<svg xmlns="http://www.w3.org/2000/svg" xmlns:xlink="http://www.w3.org/1999/xlink" class="railroad-diagram" width="748" height="109" viewBox="0 0 748 109">
<defs>
<style type="text/css"><![CDATA[
path {
stroke-width: 3;
stroke: black;
fill: rgba(0,0,0,0);
}
text {
font: bold 14px monospace;
text-anchor: middle;
}
text.diagram-text {
font-size: 12px;
}
a {
fill: blue;
}
text.diagram-arrow {
font-size: 16px;
}
text.label {
text-anchor: start;
}
text.comment {
font: italic 12px monospace;
}
rect {
stroke-width: 3;
stroke: black;
fill: #BCBCBC;
}
path.diagram-text {
stroke-width: 3;
stroke: black;
fill: #BCBCBC;
cursor: help;
}
]]></style>
</defs>
<g transform="translate(.5 .5)">
<path d="M 20 38 v 20 m 10 -20 v 20 m -10 -10 h 20.5"></path>
<path d="M40 48h10"></path>
<g>
<path d="M50 48h0"></path>
<path d="M698 48h0"></path>
<g class="terminal">
<path d="M50 48h0"></path>
<path d="M134 48h0"></path>
<rect x="50" y="37" width="84" height="22" rx="10" ry="10"></rect>
<text x="92" y="52">"METHOD"</text>
</g>
<path d="M134 48h10"></path>
<path d="M144 48h10"></path>
<g class="terminal">
<path d="M154 48h0"></path>
<path d="M222 48h0"></path>
<rect x="154" y="37" width="68" height="22" rx="10" ry="10"></rect>
<text x="188" y="52">&#91;\w~&#93;+</text>
</g>
<path d="M222 48h10"></path>
<g>
<path d="M232 48h0"></path>
<path d="M698 48h0"></path>
<path d="M232 48a10 10 0 0 0 10 -10v-8a10 10 0 0 1 10 -10"></path>
<g>
<path d="M252 20h426"></path>
</g>
<path d="M678 20a10 10 0 0 1 10 10v8a10 10 0 0 0 10 10"></path>
<path d="M232 48h20"></path>
<g>
<path d="M252 48h0"></path>
<path d="M678 48h0"></path>
<g class="terminal">
<path d="M252 48h0"></path>
<path d="M416 48h0"></path>
<rect x="252" y="37" width="164" height="22" rx="10" ry="10"></rect>
<text x="334" y="52">"BY KERNEL MODULE"</text>
</g>
<path d="M416 48h10"></path>
<path d="M426 48h10"></path>
<g class="terminal">
<path d="M436 48h0"></path>
<path d="M504 48h0"></path>
<rect x="436" y="37" width="68" height="22" rx="10" ry="10"></rect>
<text x="470" y="52">&#91;\w~&#93;+</text>
</g>
<path d="M504 48h10"></path>
<g>
<path d="M514 48h0"></path>
<path d="M678 48h0"></path>
<path d="M514 48a10 10 0 0 0 10 -10v0a10 10 0 0 1 10 -10"></path>
<g>
<path d="M534 28h124"></path>
</g>
<path d="M658 28a10 10 0 0 1 10 10v0a10 10 0 0 0 10 10"></path>
<path d="M514 48h20"></path>
<g>
<path d="M534 48h0"></path>
<path d="M658 48h0"></path>
<path d="M534 48h20"></path>
<g class="terminal">
<path d="M554 48h0"></path>
<path d="M622 48h16"></path>
<rect x="554" y="37" width="68" height="22" rx="10" ry="10"></rect>
<text x="588" y="52">"FAIL"</text>
</g>
<path d="M638 48h20"></path>
<path d="M534 48a10 10 0 0 1 10 10v10a10 10 0 0 0 10 10"></path>
<g class="terminal">
<path d="M554 78h0"></path>
<path d="M638 78h0"></path>
<rect x="554" y="67" width="84" height="22" rx="10" ry="10"></rect>
<text x="596" y="82">"IGNORE"</text>
</g>
<path d="M638 78a10 10 0 0 0 10 -10v-10a10 10 0 0 1 10 -10"></path>
</g>
<path d="M658 48h20"></path>
</g>
</g>
<path d="M678 48h20"></path>
</g>
</g>
<path d="M698 48h10"></path>
<path d="M 708 48 h 20 m -10 -10 v 20 m 10 -20 v 20"></path>
</g>
</svg>
