<svg xmlns="http://www.w3.org/2000/svg" xmlns:xlink="http://www.w3.org/1999/xlink" class="railroad-diagram" width="708" height="101" viewBox="0 0 708 101">
<defs>
<style type="text/css"><![CDATA[
path {
stroke-width: 3;
stroke: black;
fill: rgba(0,0,0,0);
}
text {
font: bold 14px monospace;
text-anchor: middle;
}
text.diagram-text {
font-size: 12px;
}
a {
fill: blue;
}
text.diagram-arrow {
font-size: 16px;
}
text.label {
text-anchor: start;
}
text.comment {
font: italic 12px monospace;
}
rect {
stroke-width: 3;
stroke: black;
fill: #BCBCBC;
}
path.diagram-text {
stroke-width: 3;
stroke: black;
fill: #BCBCBC;
cursor: help;
}
]]></style>
</defs>
<g transform="translate(.5 .5)">
<path d="M 20 30 v 20 m 10 -20 v 20 m -10 -10 h 20.5"></path>
<path d="M40 40h10"></path>
<g>
<path d="M50 40h0"></path>
<path d="M658 40h0"></path>
<g class="terminal">
<path d="M50 40h0"></path>
<path d="M134 40h0"></path>
<rect x="50" y="29" width="84" height="22" rx="10" ry="10"></rect>
<text x="92" y="44">"METHOD"</text>
</g>
<path d="M134 40h10"></path>
<path d="M144 40h10"></path>
<g class="terminal">
<path d="M154 40h0"></path>
<path d="M222 40h0"></path>
<rect x="154" y="29" width="68" height="22" rx="10" ry="10"></rect>
<text x="188" y="44">&#91;\w~&#93;+</text>
</g>
<path d="M222 40h10"></path>
<g>
<path d="M232 40h0"></path>
<path d="M658 40h0"></path>
<path d="M232 40a10 10 0 0 0 10 -10v0a10 10 0 0 1 10 -10"></path>
<g>
<path d="M252 20h386"></path>
</g>
<path d="M638 20a10 10 0 0 1 10 10v0a10 10 0 0 0 10 10"></path>
<path d="M232 40h20"></path>
<g>
<path d="M252 40h0"></path>
<path d="M638 40h0"></path>
<g class="terminal">
<path d="M252 40h0"></path>
<path d="M416 40h0"></path>
<rect x="252" y="29" width="164" height="22" rx="10" ry="10"></rect>
<text x="334" y="44">"BY KERNEL MODULE"</text>
</g>
<path d="M416 40h10"></path>
<path d="M426 40h10"></path>
<g class="terminal">
<path d="M436 40h0"></path>
<path d="M504 40h0"></path>
<rect x="436" y="29" width="68" height="22" rx="10" ry="10"></rect>
<text x="470" y="44">&#91;\w~&#93;+</text>
</g>
<path d="M504 40h10"></path>
<g>
<path d="M514 40h0"></path>
<path d="M638 40h0"></path>
<path d="M514 40h20"></path>
<g class="terminal">
<path d="M534 40h0"></path>
<path d="M602 40h16"></path>
<rect x="534" y="29" width="68" height="22" rx="10" ry="10"></rect>
<text x="568" y="44">"FAIL"</text>
</g>
<path d="M618 40h20"></path>
<path d="M514 40a10 10 0 0 1 10 10v10a10 10 0 0 0 10 10"></path>
<g class="terminal">
<path d="M534 70h0"></path>
<path d="M618 70h0"></path>
<rect x="534" y="59" width="84" height="22" rx="10" ry="10"></rect>
<text x="576" y="74">"IGNORE"</text>
</g>
<path d="M618 70a10 10 0 0 0 10 -10v-10a10 10 0 0 1 10 -10"></path>
</g>
</g>
<path d="M638 40h20"></path>
</g>
</g>
<path d="M658 40h10"></path>
<path d="M 668 40 h 20 m -10 -10 v 20 m 10 -20 v 20"></path>
</g>
</svg>
