<svg xmlns="http://www.w3.org/2000/svg" xmlns:xlink="http://www.w3.org/1999/xlink" class="railroad-diagram" width="3822" height="205" viewBox="0 0 3822 205">
<defs>
<style type="text/css"><![CDATA[
path {
stroke-width: 3;
stroke: black;
fill: rgba(0,0,0,0);
}
text {
font: bold 14px monospace;
text-anchor: middle;
}
text.diagram-text {
font-size: 12px;
}
a {
fill: blue;
}
text.diagram-arrow {
font-size: 16px;
}
text.label {
text-anchor: start;
}
text.comment {
font: italic 12px monospace;
}
rect {
stroke-width: 3;
stroke: black;
fill: #BCBCBC;
}
path.diagram-text {
stroke-width: 3;
stroke: black;
fill: #BCBCBC;
cursor: help;
}
]]></style>
</defs>
<g transform="translate(.5 .5)">
<path d="M 20 30 v 20 m 10 -20 v 20 m -10 -10 h 20.5"></path>
<path d="M40 40h10"></path>
<g>
<path d="M50 40h0"></path>
<path d="M3772 40h0"></path>
<g>
<path d="M50 40h0"></path>
<path d="M230 40h0"></path>
<path d="M50 40h20"></path>
<g class="terminal">
<path d="M70 40h0"></path>
<path d="M210 40h0"></path>
<rect x="70" y="29" width="140" height="22" rx="10" ry="10"></rect>
<text x="140" y="44">"CLASS-METHODS"</text>
</g>
<path d="M210 40h20"></path>
<path d="M50 40a10 10 0 0 1 10 10v10a10 10 0 0 0 10 10"></path>
<g class="terminal">
<path d="M70 70h24"></path>
<path d="M186 70h24"></path>
<rect x="94" y="59" width="92" height="22" rx="10" ry="10"></rect>
<text x="140" y="74">"METHODS"</text>
</g>
<path d="M210 70a10 10 0 0 0 10 -10v-10a10 10 0 0 1 10 -10"></path>
</g>
<path d="M230 40h10"></path>
<g class="non-terminal">
<path d="M240 40h0"></path>
<path d="M300 40h0"></path>
<rect x="240" y="29" width="60" height="22"></rect>
<a xlink:href="reuse_field.svg"><text x="270" y="44">field</text>
</a>
</g>
<path d="M300 40h10"></path>
<g>
<path d="M310 40h0"></path>
<path d="M3772 40h0"></path>
<path d="M310 40h20"></path>
<g>
<path d="M330 40h1404"></path>
<path d="M2348 40h1404"></path>
<g class="terminal">
<path d="M1734 40h0"></path>
<path d="M1842 40h0"></path>
<rect x="1734" y="29" width="108" height="22" rx="10" ry="10"></rect>
<text x="1788" y="44">"FOR EVENT"</text>
</g>
<path d="M1842 40h10"></path>
<path d="M1852 40h10"></path>
<g class="non-terminal">
<path d="M1862 40h0"></path>
<path d="M1922 40h0"></path>
<rect x="1862" y="29" width="60" height="22"></rect>
<a xlink:href="reuse_field.svg"><text x="1892" y="44">field</text>
</a>
</g>
<path d="M1922 40h10"></path>
<path d="M1932 40h10"></path>
<g class="terminal">
<path d="M1942 40h0"></path>
<path d="M1994 40h0"></path>
<rect x="1942" y="29" width="52" height="22" rx="10" ry="10"></rect>
<text x="1968" y="44">"OF"</text>
</g>
<path d="M1994 40h10"></path>
<path d="M2004 40h10"></path>
<g class="non-terminal">
<path d="M2014 40h0"></path>
<path d="M2074 40h0"></path>
<rect x="2014" y="29" width="60" height="22"></rect>
<a xlink:href="reuse_field.svg"><text x="2044" y="44">field</text>
</a>
</g>
<path d="M2074 40h10"></path>
<g>
<path d="M2084 40h0"></path>
<path d="M2348 40h0"></path>
<path d="M2084 40a10 10 0 0 0 10 -10v0a10 10 0 0 1 10 -10"></path>
<g>
<path d="M2104 20h224"></path>
</g>
<path d="M2328 20a10 10 0 0 1 10 10v0a10 10 0 0 0 10 10"></path>
<path d="M2084 40h20"></path>
<g>
<path d="M2104 40h0"></path>
<path d="M2328 40h0"></path>
<g class="terminal">
<path d="M2104 40h0"></path>
<path d="M2212 40h0"></path>
<rect x="2104" y="29" width="108" height="22" rx="10" ry="10"></rect>
<text x="2158" y="44">"IMPORTING"</text>
</g>
<path d="M2212 40h10"></path>
<path d="M2222 40h10"></path>
<g>
<path d="M2232 40h0"></path>
<path d="M2328 40h0"></path>
<path d="M2232 40h10"></path>
<g class="terminal">
<path d="M2242 40h0"></path>
<path d="M2318 40h0"></path>
<rect x="2242" y="29" width="76" height="22" rx="10" ry="10"></rect>
<text x="2280" y="44">^!?\w+$</text>
</g>
<path d="M2318 40h10"></path>
<path d="M2242 40a10 10 0 0 0 -10 10v0a10 10 0 0 0 10 10"></path>
<g>
<path d="M2242 60h76"></path>
</g>
<path d="M2318 60a10 10 0 0 0 10 -10v0a10 10 0 0 0 -10 -10"></path>
</g>
</g>
<path d="M2328 40h20"></path>
</g>
</g>
<path d="M3752 40h20"></path>
<path d="M310 40a10 10 0 0 1 10 10v36a10 10 0 0 0 10 10"></path>
<g>
<path d="M330 96h0"></path>
<path d="M3752 96h0"></path>
<g>
<path d="M330 96h0"></path>
<path d="M534 96h0"></path>
<path d="M330 96a10 10 0 0 0 10 -10v0a10 10 0 0 1 10 -10"></path>
<g>
<path d="M350 76h164"></path>
</g>
<path d="M514 76a10 10 0 0 1 10 10v0a10 10 0 0 0 10 10"></path>
<path d="M330 96h20"></path>
<g>
<path d="M350 96h0"></path>
<path d="M514 96h0"></path>
<path d="M350 96h20"></path>
<g class="terminal">
<path d="M370 96h12"></path>
<path d="M482 96h12"></path>
<rect x="382" y="85" width="100" height="22" rx="10" ry="10"></rect>
<text x="432" y="100">"ABSTRACT"</text>
</g>
<path d="M494 96h20"></path>
<path d="M350 96a10 10 0 0 1 10 10v10a10 10 0 0 0 10 10"></path>
<g class="terminal">
<path d="M370 126h0"></path>
<path d="M494 126h0"></path>
<rect x="370" y="115" width="124" height="22" rx="10" ry="10"></rect>
<text x="432" y="130">"FOR TESTING"</text>
</g>
<path d="M494 126a10 10 0 0 0 10 -10v-10a10 10 0 0 1 10 -10"></path>
</g>
<path d="M514 96h20"></path>
</g>
<g>
<path d="M534 96h0"></path>
<path d="M1592 96h0"></path>
<path d="M534 96a10 10 0 0 0 10 -10v-8a10 10 0 0 1 10 -10"></path>
<g>
<path d="M554 68h1018"></path>
</g>
<path d="M1572 68a10 10 0 0 1 10 10v8a10 10 0 0 0 10 10"></path>
<path d="M534 96h20"></path>
<g>
<path d="M554 96h0"></path>
<path d="M1572 96h0"></path>
<g class="terminal">
<path d="M554 96h0"></path>
<path d="M662 96h0"></path>
<rect x="554" y="85" width="108" height="22" rx="10" ry="10"></rect>
<text x="608" y="100">"IMPORTING"</text>
</g>
<path d="M662 96h10"></path>
<path d="M672 96h10"></path>
<g>
<path d="M682 96h0"></path>
<path d="M1572 96h0"></path>
<path d="M682 96h10"></path>
<g>
<path d="M692 96h0"></path>
<path d="M1562 96h0"></path>
<g>
<path d="M692 96h0"></path>
<path d="M1412 96h0"></path>
<g>
<path d="M692 96h0"></path>
<path d="M1272 96h0"></path>
<path d="M692 96h20"></path>
<g>
<path d="M712 96h0"></path>
<path d="M1252 96h0"></path>
<g class="terminal">
<path d="M712 96h0"></path>
<path d="M788 96h0"></path>
<rect x="712" y="85" width="76" height="22" rx="10" ry="10"></rect>
<text x="750" y="100">"VALUE"</text>
</g>
<path d="M788 96h10"></path>
<path d="M798 96h10"></path>
<g class="terminal">
<path d="M808 96h0"></path>
<path d="M964 96h0"></path>
<rect x="808" y="85" width="156" height="22" rx="10" ry="10"></rect>
<text x="886" y="100">Token "ParenLeft"</text>
</g>
<path d="M964 96h10"></path>
<path d="M974 96h10"></path>
<g class="terminal">
<path d="M984 96h0"></path>
<path d="M1060 96h0"></path>
<rect x="984" y="85" width="76" height="22" rx="10" ry="10"></rect>
<text x="1022" y="100">^!?\w+$</text>
</g>
<path d="M1060 96h10"></path>
<path d="M1070 96h10"></path>
<g class="terminal">
<path d="M1080 96h0"></path>
<path d="M1252 96h0"></path>
<rect x="1080" y="85" width="172" height="22" rx="10" ry="10"></rect>
<text x="1166" y="100">Token "ParenRightW"</text>
</g>
</g>
<path d="M1252 96h20"></path>
<path d="M692 96a10 10 0 0 1 10 10v10a10 10 0 0 0 10 10"></path>
<g class="terminal">
<path d="M712 126h232"></path>
<path d="M1020 126h232"></path>
<rect x="944" y="115" width="76" height="22" rx="10" ry="10"></rect>
<text x="982" y="130">^!?\w+$</text>
</g>
<path d="M1252 126a10 10 0 0 0 10 -10v-10a10 10 0 0 1 10 -10"></path>
</g>
<g>
<path d="M1272 96h0"></path>
<path d="M1412 96h0"></path>
<path d="M1272 96h20"></path>
<g class="non-terminal">
<path d="M1292 96h24"></path>
<path d="M1368 96h24"></path>
<rect x="1316" y="85" width="52" height="22"></rect>
<a xlink:href="reuse_type.svg"><text x="1342" y="100">type</text>
</a>
</g>
<path d="M1392 96h20"></path>
<path d="M1272 96a10 10 0 0 1 10 10v10a10 10 0 0 0 10 10"></path>
<g class="non-terminal">
<path d="M1292 126h0"></path>
<path d="M1392 126h0"></path>
<rect x="1292" y="115" width="100" height="22"></rect>
<a xlink:href="reuse_type_table.svg"><text x="1342" y="130">type&#95;table</text>
</a>
</g>
<path d="M1392 126a10 10 0 0 0 10 -10v-10a10 10 0 0 1 10 -10"></path>
</g>
</g>
<path d="M1412 96h10"></path>
<g>
<path d="M1422 96h0"></path>
<path d="M1562 96h0"></path>
<path d="M1422 96a10 10 0 0 0 10 -10v0a10 10 0 0 1 10 -10"></path>
<g>
<path d="M1442 76h100"></path>
</g>
<path d="M1542 76a10 10 0 0 1 10 10v0a10 10 0 0 0 10 10"></path>
<path d="M1422 96h20"></path>
<g class="terminal">
<path d="M1442 96h0"></path>
<path d="M1542 96h0"></path>
<rect x="1442" y="85" width="100" height="22" rx="10" ry="10"></rect>
<text x="1492" y="100">"OPTIONAL"</text>
</g>
<path d="M1542 96h20"></path>
</g>
</g>
<path d="M1562 96h10"></path>
<path d="M692 96a10 10 0 0 0 -10 10v29a10 10 0 0 0 10 10"></path>
<g>
<path d="M692 145h870"></path>
</g>
<path d="M1562 145a10 10 0 0 0 10 -10v-29a10 10 0 0 0 -10 -10"></path>
</g>
</g>
<path d="M1572 96h20"></path>
</g>
<g>
<path d="M1592 96h0"></path>
<path d="M2006 96h0"></path>
<path d="M1592 96a10 10 0 0 0 10 -10v0a10 10 0 0 1 10 -10"></path>
<g>
<path d="M1612 76h374"></path>
</g>
<path d="M1986 76a10 10 0 0 1 10 10v0a10 10 0 0 0 10 10"></path>
<path d="M1592 96h20"></path>
<g>
<path d="M1612 96h0"></path>
<path d="M1986 96h0"></path>
<g class="terminal">
<path d="M1612 96h0"></path>
<path d="M1720 96h0"></path>
<rect x="1612" y="85" width="108" height="22" rx="10" ry="10"></rect>
<text x="1666" y="100">"EXPORTING"</text>
</g>
<path d="M1720 96h10"></path>
<path d="M1730 96h10"></path>
<g>
<path d="M1740 96h0"></path>
<path d="M1986 96h0"></path>
<path d="M1740 96h10"></path>
<g>
<path d="M1750 96h0"></path>
<path d="M1976 96h0"></path>
<g class="terminal">
<path d="M1750 96h0"></path>
<path d="M1826 96h0"></path>
<rect x="1750" y="85" width="76" height="22" rx="10" ry="10"></rect>
<text x="1788" y="100">^!?\w+$</text>
</g>
<path d="M1826 96h10"></path>
<g>
<path d="M1836 96h0"></path>
<path d="M1976 96h0"></path>
<path d="M1836 96h20"></path>
<g class="non-terminal">
<path d="M1856 96h24"></path>
<path d="M1932 96h24"></path>
<rect x="1880" y="85" width="52" height="22"></rect>
<a xlink:href="reuse_type.svg"><text x="1906" y="100">type</text>
</a>
</g>
<path d="M1956 96h20"></path>
<path d="M1836 96a10 10 0 0 1 10 10v10a10 10 0 0 0 10 10"></path>
<g class="non-terminal">
<path d="M1856 126h0"></path>
<path d="M1956 126h0"></path>
<rect x="1856" y="115" width="100" height="22"></rect>
<a xlink:href="reuse_type_table.svg"><text x="1906" y="130">type&#95;table</text>
</a>
</g>
<path d="M1956 126a10 10 0 0 0 10 -10v-10a10 10 0 0 1 10 -10"></path>
</g>
</g>
<path d="M1976 96h10"></path>
<path d="M1750 96a10 10 0 0 0 -10 10v29a10 10 0 0 0 10 10"></path>
<g>
<path d="M1750 145h226"></path>
</g>
<path d="M1976 145a10 10 0 0 0 10 -10v-29a10 10 0 0 0 -10 -10"></path>
</g>
</g>
<path d="M1986 96h20"></path>
</g>
<g>
<path d="M2006 96h0"></path>
<path d="M2562 96h0"></path>
<path d="M2006 96a10 10 0 0 0 10 -10v-8a10 10 0 0 1 10 -10"></path>
<g>
<path d="M2026 68h516"></path>
</g>
<path d="M2542 68a10 10 0 0 1 10 10v8a10 10 0 0 0 10 10"></path>
<path d="M2006 96h20"></path>
<g>
<path d="M2026 96h0"></path>
<path d="M2542 96h0"></path>
<g class="terminal">
<path d="M2026 96h0"></path>
<path d="M2126 96h0"></path>
<rect x="2026" y="85" width="100" height="22" rx="10" ry="10"></rect>
<text x="2076" y="100">"CHANGING"</text>
</g>
<path d="M2126 96h10"></path>
<path d="M2136 96h10"></path>
<g>
<path d="M2146 96h0"></path>
<path d="M2542 96h0"></path>
<path d="M2146 96h10"></path>
<g>
<path d="M2156 96h0"></path>
<path d="M2532 96h0"></path>
<g>
<path d="M2156 96h0"></path>
<path d="M2382 96h0"></path>
<g class="terminal">
<path d="M2156 96h0"></path>
<path d="M2232 96h0"></path>
<rect x="2156" y="85" width="76" height="22" rx="10" ry="10"></rect>
<text x="2194" y="100">^!?\w+$</text>
</g>
<path d="M2232 96h10"></path>
<g>
<path d="M2242 96h0"></path>
<path d="M2382 96h0"></path>
<path d="M2242 96h20"></path>
<g class="non-terminal">
<path d="M2262 96h24"></path>
<path d="M2338 96h24"></path>
<rect x="2286" y="85" width="52" height="22"></rect>
<a xlink:href="reuse_type.svg"><text x="2312" y="100">type</text>
</a>
</g>
<path d="M2362 96h20"></path>
<path d="M2242 96a10 10 0 0 1 10 10v10a10 10 0 0 0 10 10"></path>
<g class="non-terminal">
<path d="M2262 126h0"></path>
<path d="M2362 126h0"></path>
<rect x="2262" y="115" width="100" height="22"></rect>
<a xlink:href="reuse_type_table.svg"><text x="2312" y="130">type&#95;table</text>
</a>
</g>
<path d="M2362 126a10 10 0 0 0 10 -10v-10a10 10 0 0 1 10 -10"></path>
</g>
</g>
<path d="M2382 96h10"></path>
<g>
<path d="M2392 96h0"></path>
<path d="M2532 96h0"></path>
<path d="M2392 96a10 10 0 0 0 10 -10v0a10 10 0 0 1 10 -10"></path>
<g>
<path d="M2412 76h100"></path>
</g>
<path d="M2512 76a10 10 0 0 1 10 10v0a10 10 0 0 0 10 10"></path>
<path d="M2392 96h20"></path>
<g class="terminal">
<path d="M2412 96h0"></path>
<path d="M2512 96h0"></path>
<rect x="2412" y="85" width="100" height="22" rx="10" ry="10"></rect>
<text x="2462" y="100">"OPTIONAL"</text>
</g>
<path d="M2512 96h20"></path>
</g>
</g>
<path d="M2532 96h10"></path>
<path d="M2156 96a10 10 0 0 0 -10 10v29a10 10 0 0 0 10 10"></path>
<g>
<path d="M2156 145h376"></path>
</g>
<path d="M2532 145a10 10 0 0 0 10 -10v-29a10 10 0 0 0 -10 -10"></path>
</g>
</g>
<path d="M2542 96h20"></path>
</g>
<g>
<path d="M2562 96h0"></path>
<path d="M3440 96h0"></path>
<path d="M2562 96a10 10 0 0 0 10 -10v0a10 10 0 0 1 10 -10"></path>
<g>
<path d="M2582 76h838"></path>
</g>
<path d="M3420 76a10 10 0 0 1 10 10v0a10 10 0 0 0 10 10"></path>
<path d="M2562 96h20"></path>
<g>
<path d="M2582 96h0"></path>
<path d="M3420 96h0"></path>
<g class="terminal">
<path d="M2582 96h0"></path>
<path d="M2690 96h0"></path>
<rect x="2582" y="85" width="108" height="22" rx="10" ry="10"></rect>
<text x="2636" y="100">"RETURNING"</text>
</g>
<path d="M2690 96h10"></path>
<path d="M2700 96h10"></path>
<g>
<path d="M2710 96h0"></path>
<path d="M3420 96h0"></path>
<path d="M2710 96h10"></path>
<g>
<path d="M2720 96h0"></path>
<path d="M3410 96h0"></path>
<g>
<path d="M2720 96h0"></path>
<path d="M3260 96h0"></path>
<g class="terminal">
<path d="M2720 96h0"></path>
<path d="M2796 96h0"></path>
<rect x="2720" y="85" width="76" height="22" rx="10" ry="10"></rect>
<text x="2758" y="100">"VALUE"</text>
</g>
<path d="M2796 96h10"></path>
<path d="M2806 96h10"></path>
<g class="terminal">
<path d="M2816 96h0"></path>
<path d="M2972 96h0"></path>
<rect x="2816" y="85" width="156" height="22" rx="10" ry="10"></rect>
<text x="2894" y="100">Token "ParenLeft"</text>
</g>
<path d="M2972 96h10"></path>
<path d="M2982 96h10"></path>
<g class="terminal">
<path d="M2992 96h0"></path>
<path d="M3068 96h0"></path>
<rect x="2992" y="85" width="76" height="22" rx="10" ry="10"></rect>
<text x="3030" y="100">^!?\w+$</text>
</g>
<path d="M3068 96h10"></path>
<path d="M3078 96h10"></path>
<g class="terminal">
<path d="M3088 96h0"></path>
<path d="M3260 96h0"></path>
<rect x="3088" y="85" width="172" height="22" rx="10" ry="10"></rect>
<text x="3174" y="100">Token "ParenRightW"</text>
</g>
</g>
<path d="M3260 96h10"></path>
<g>
<path d="M3270 96h0"></path>
<path d="M3410 96h0"></path>
<path d="M3270 96h20"></path>
<g class="non-terminal">
<path d="M3290 96h24"></path>
<path d="M3366 96h24"></path>
<rect x="3314" y="85" width="52" height="22"></rect>
<a xlink:href="reuse_type.svg"><text x="3340" y="100">type</text>
</a>
</g>
<path d="M3390 96h20"></path>
<path d="M3270 96a10 10 0 0 1 10 10v10a10 10 0 0 0 10 10"></path>
<g class="non-terminal">
<path d="M3290 126h0"></path>
<path d="M3390 126h0"></path>
<rect x="3290" y="115" width="100" height="22"></rect>
<a xlink:href="reuse_type_table.svg"><text x="3340" y="130">type&#95;table</text>
</a>
</g>
<path d="M3390 126a10 10 0 0 0 10 -10v-10a10 10 0 0 1 10 -10"></path>
</g>
</g>
<path d="M3410 96h10"></path>
<path d="M2720 96a10 10 0 0 0 -10 10v29a10 10 0 0 0 10 10"></path>
<g>
<path d="M2720 145h690"></path>
</g>
<path d="M3410 145a10 10 0 0 0 10 -10v-29a10 10 0 0 0 -10 -10"></path>
</g>
</g>
<path d="M3420 96h20"></path>
</g>
<g>
<path d="M3440 96h0"></path>
<path d="M3752 96h0"></path>
<path d="M3440 96a10 10 0 0 0 10 -10v0a10 10 0 0 1 10 -10"></path>
<g>
<path d="M3460 76h272"></path>
</g>
<path d="M3732 76a10 10 0 0 1 10 10v0a10 10 0 0 0 10 10"></path>
<path d="M3440 96h20"></path>
<g>
<path d="M3460 96h0"></path>
<path d="M3732 96h0"></path>
<path d="M3460 96h20"></path>
<g>
<path d="M3480 96h0"></path>
<path d="M3712 96h0"></path>
<g class="terminal">
<path d="M3480 96h0"></path>
<path d="M3572 96h0"></path>
<rect x="3480" y="85" width="92" height="22" rx="10" ry="10"></rect>
<text x="3526" y="100">"RAISING"</text>
</g>
<path d="M3572 96h10"></path>
<path d="M3582 96h10"></path>
<g>
<path d="M3592 96h0"></path>
<path d="M3712 96h0"></path>
<path d="M3592 96h10"></path>
<g class="non-terminal">
<path d="M3602 96h0"></path>
<path d="M3702 96h0"></path>
<rect x="3602" y="85" width="100" height="22"></rect>
<a xlink:href="reuse_class_name.svg"><text x="3652" y="100">class&#95;name</text>
</a>
</g>
<path d="M3702 96h10"></path>
<path d="M3602 96a10 10 0 0 0 -10 10v0a10 10 0 0 0 10 10"></path>
<g>
<path d="M3602 116h100"></path>
</g>
<path d="M3702 116a10 10 0 0 0 10 -10v0a10 10 0 0 0 -10 -10"></path>
</g>
</g>
<path d="M3712 96h20"></path>
<path d="M3460 96a10 10 0 0 1 10 10v19a10 10 0 0 0 10 10"></path>
<g>
<path d="M3480 135h4"></path>
<path d="M3708 135h4"></path>
<g class="terminal">
<path d="M3484 135h0"></path>
<path d="M3600 135h0"></path>
<rect x="3484" y="124" width="116" height="22" rx="10" ry="10"></rect>
<text x="3542" y="139">"EXCEPTIONS"</text>
</g>
<path d="M3600 135h10"></path>
<path d="M3610 135h10"></path>
<g>
<path d="M3620 135h0"></path>
<path d="M3708 135h0"></path>
<path d="M3620 135h10"></path>
<g class="terminal">
<path d="M3630 135h0"></path>
<path d="M3698 135h0"></path>
<rect x="3630" y="124" width="68" height="22" rx="10" ry="10"></rect>
<text x="3664" y="139">^\w+?$</text>
</g>
<path d="M3698 135h10"></path>
<path d="M3630 135a10 10 0 0 0 -10 10v0a10 10 0 0 0 10 10"></path>
<g>
<path d="M3630 155h68"></path>
</g>
<path d="M3698 155a10 10 0 0 0 10 -10v0a10 10 0 0 0 -10 -10"></path>
</g>
</g>
<path d="M3712 135a10 10 0 0 0 10 -10v-19a10 10 0 0 1 10 -10"></path>
</g>
<path d="M3732 96h20"></path>
</g>
</g>
<path d="M3752 96a10 10 0 0 0 10 -10v-36a10 10 0 0 1 10 -10"></path>
<path d="M310 40a10 10 0 0 1 10 10v114a10 10 0 0 0 10 10"></path>
<g class="terminal">
<path d="M330 174h1645"></path>
<path d="M2107 174h1645"></path>
<rect x="1975" y="163" width="132" height="22" rx="10" ry="10"></rect>
<text x="2041" y="178">"REDEFINITION"</text>
</g>
<path d="M3752 174a10 10 0 0 0 10 -10v-114a10 10 0 0 1 10 -10"></path>
</g>
</g>
<path d="M3772 40h10"></path>
<path d="M 3782 40 h 20 m -10 -10 v 20 m 10 -20 v 20"></path>
</g>
</svg>
