<svg xmlns="http://www.w3.org/2000/svg" xmlns:xlink="http://www.w3.org/1999/xlink" class="railroad-diagram" width="1014" height="353" viewBox="0 0 1014 353">
<defs>
<style type="text/css"><![CDATA[
path {
stroke-width: 3;
stroke: black;
fill: rgba(0,0,0,0);
}
text {
font: bold 14px monospace;
text-anchor: middle;
}
text.diagram-text {
font-size: 12px;
}
a {
fill: blue;
}
text.diagram-arrow {
font-size: 16px;
}
text.label {
text-anchor: start;
}
text.comment {
font: italic 12px monospace;
}
rect {
stroke-width: 3;
stroke: black;
fill: #BCBCBC;
}
path.diagram-text {
stroke-width: 3;
stroke: black;
fill: #BCBCBC;
cursor: help;
}
]]></style>
</defs>
<g transform="translate(.5 .5)">
<path d="M 20 30 v 20 m 10 -20 v 20 m -10 -10 h 20.5"></path>
<path d="M40 40h10"></path>
<g>
<path d="M50 40h0"></path>
<path d="M964 40h0"></path>
<g class="terminal">
<path d="M50 40h0"></path>
<path d="M134 40h0"></path>
<rect x="50" y="29" width="84" height="22" rx="10" ry="10"></rect>
<text x="92" y="44">"MODIFY"</text>
</g>
<path d="M134 40h10"></path>
<g>
<path d="M144 40h0"></path>
<path d="M964 40h0"></path>
<path d="M144 40h20"></path>
<g>
<path d="M164 40h0"></path>
<path d="M944 40h0"></path>
<g class="non-terminal">
<path d="M164 40h0"></path>
<path d="M232 40h0"></path>
<rect x="164" y="29" width="68" height="22"></rect>
<a xlink:href="reuse_target.svg"><text x="198" y="44">Target</text>
</a>
</g>
<path d="M232 40h10"></path>
<g>
<path d="M242 40h0"></path>
<path d="M944 40h0"></path>
<path d="M242 40a10 10 0 0 0 10 -10v0a10 10 0 0 1 10 -10"></path>
<g>
<path d="M262 20h662"></path>
</g>
<path d="M924 20a10 10 0 0 1 10 10v0a10 10 0 0 0 10 10"></path>
<path d="M242 40h20"></path>
<g>
<path d="M262 40h0"></path>
<path d="M924 40h0"></path>
<path d="M262 40h20"></path>
<g>
<path d="M282 40h0"></path>
<path d="M622 40h282"></path>
<g>
<path d="M282 40h0"></path>
<path d="M446 40h0"></path>
<g class="terminal">
<path d="M282 40h0"></path>
<path d="M358 40h0"></path>
<rect x="282" y="29" width="76" height="22" rx="10" ry="10"></rect>
<text x="320" y="44">"INDEX"</text>
</g>
<path d="M358 40h10"></path>
<path d="M368 40h10"></path>
<g class="non-terminal">
<path d="M378 40h0"></path>
<path d="M446 40h0"></path>
<rect x="378" y="29" width="68" height="22"></rect>
<a xlink:href="reuse_source.svg"><text x="412" y="44">Source</text>
</a>
</g>
</g>
<path d="M446 40h10"></path>
<path d="M456 40h10"></path>
<g>
<path d="M466 40h0"></path>
<path d="M622 40h0"></path>
<g class="terminal">
<path d="M466 40h0"></path>
<path d="M534 40h0"></path>
<rect x="466" y="29" width="68" height="22" rx="10" ry="10"></rect>
<text x="500" y="44">"FROM"</text>
</g>
<path d="M534 40h10"></path>
<path d="M544 40h10"></path>
<g class="non-terminal">
<path d="M554 40h0"></path>
<path d="M622 40h0"></path>
<rect x="554" y="29" width="68" height="22"></rect>
<a xlink:href="reuse_source.svg"><text x="588" y="44">Source</text>
</a>
</g>
</g>
</g>
<path d="M904 40h20"></path>
<path d="M262 40a10 10 0 0 1 10 10v10a10 10 0 0 0 10 10"></path>
<g>
<path d="M282 70h0"></path>
<path d="M446 70h458"></path>
<g class="terminal">
<path d="M282 70h0"></path>
<path d="M358 70h0"></path>
<rect x="282" y="59" width="76" height="22" rx="10" ry="10"></rect>
<text x="320" y="74">"INDEX"</text>
</g>
<path d="M358 70h10"></path>
<path d="M368 70h10"></path>
<g class="non-terminal">
<path d="M378 70h0"></path>
<path d="M446 70h0"></path>
<rect x="378" y="59" width="68" height="22"></rect>
<a xlink:href="reuse_source.svg"><text x="412" y="74">Source</text>
</a>
</g>
</g>
<path d="M904 70a10 10 0 0 0 10 -10v-10a10 10 0 0 1 10 -10"></path>
<path d="M262 40a10 10 0 0 1 10 10v40a10 10 0 0 0 10 10"></path>
<g>
<path d="M282 100h0"></path>
<path d="M682 100h222"></path>
<g>
<path d="M282 100h0"></path>
<path d="M514 100h0"></path>
<g class="terminal">
<path d="M282 100h0"></path>
<path d="M414 100h0"></path>
<rect x="282" y="89" width="132" height="22" rx="10" ry="10"></rect>
<text x="348" y="104">"TRANSPORTING"</text>
</g>
<path d="M414 100h10"></path>
<path d="M424 100h10"></path>
<g>
<path d="M434 100h0"></path>
<path d="M514 100h0"></path>
<path d="M434 100h10"></path>
<g class="non-terminal">
<path d="M444 100h0"></path>
<path d="M504 100h0"></path>
<rect x="444" y="89" width="60" height="22"></rect>
<a xlink:href="reuse_field.svg"><text x="474" y="104">Field</text>
</a>
</g>
<path d="M504 100h10"></path>
<path d="M444 100a10 10 0 0 0 -10 10v0a10 10 0 0 0 10 10"></path>
<g>
<path d="M444 120h60"></path>
</g>
<path d="M504 120a10 10 0 0 0 10 -10v0a10 10 0 0 0 -10 -10"></path>
</g>
</g>
<path d="M514 100h10"></path>
<path d="M524 100h10"></path>
<g>
<path d="M534 100h0"></path>
<path d="M682 100h0"></path>
<g class="terminal">
<path d="M534 100h0"></path>
<path d="M610 100h0"></path>
<rect x="534" y="89" width="76" height="22" rx="10" ry="10"></rect>
<text x="572" y="104">"WHERE"</text>
</g>
<path d="M610 100h10"></path>
<path d="M620 100h10"></path>
<g class="non-terminal">
<path d="M630 100h0"></path>
<path d="M682 100h0"></path>
<rect x="630" y="89" width="52" height="22"></rect>
<a xlink:href="reuse_cond.svg"><text x="656" y="104">Cond</text>
</a>
</g>
</g>
</g>
<path d="M904 100a10 10 0 0 0 10 -10v-40a10 10 0 0 1 10 -10"></path>
<path d="M262 40a10 10 0 0 1 10 10v79a10 10 0 0 0 10 10"></path>
<g>
<path d="M282 139h0"></path>
<path d="M698 139h206"></path>
<g>
<path d="M282 139h0"></path>
<path d="M446 139h0"></path>
<g class="terminal">
<path d="M282 139h0"></path>
<path d="M358 139h0"></path>
<rect x="282" y="128" width="76" height="22" rx="10" ry="10"></rect>
<text x="320" y="143">"INDEX"</text>
</g>
<path d="M358 139h10"></path>
<path d="M368 139h10"></path>
<g class="non-terminal">
<path d="M378 139h0"></path>
<path d="M446 139h0"></path>
<rect x="378" y="128" width="68" height="22"></rect>
<a xlink:href="reuse_source.svg"><text x="412" y="143">Source</text>
</a>
</g>
</g>
<path d="M446 139h10"></path>
<path d="M456 139h10"></path>
<g>
<path d="M466 139h0"></path>
<path d="M698 139h0"></path>
<g class="terminal">
<path d="M466 139h0"></path>
<path d="M598 139h0"></path>
<rect x="466" y="128" width="132" height="22" rx="10" ry="10"></rect>
<text x="532" y="143">"TRANSPORTING"</text>
</g>
<path d="M598 139h10"></path>
<path d="M608 139h10"></path>
<g>
<path d="M618 139h0"></path>
<path d="M698 139h0"></path>
<path d="M618 139h10"></path>
<g class="non-terminal">
<path d="M628 139h0"></path>
<path d="M688 139h0"></path>
<rect x="628" y="128" width="60" height="22"></rect>
<a xlink:href="reuse_field.svg"><text x="658" y="143">Field</text>
</a>
</g>
<path d="M688 139h10"></path>
<path d="M628 139a10 10 0 0 0 -10 10v0a10 10 0 0 0 10 10"></path>
<g>
<path d="M628 159h60"></path>
</g>
<path d="M688 159a10 10 0 0 0 10 -10v0a10 10 0 0 0 -10 -10"></path>
</g>
</g>
</g>
<path d="M904 139a10 10 0 0 0 10 -10v-79a10 10 0 0 1 10 -10"></path>
<path d="M262 40a10 10 0 0 1 10 10v127a10 10 0 0 0 10 10"></path>
<g>
<path d="M282 187h0"></path>
<path d="M888 187h16"></path>
<g>
<path d="M282 187h0"></path>
<path d="M438 187h0"></path>
<g class="terminal">
<path d="M282 187h0"></path>
<path d="M350 187h0"></path>
<rect x="282" y="176" width="68" height="22" rx="10" ry="10"></rect>
<text x="316" y="191">"FROM"</text>
</g>
<path d="M350 187h10"></path>
<path d="M360 187h10"></path>
<g class="non-terminal">
<path d="M370 187h0"></path>
<path d="M438 187h0"></path>
<rect x="370" y="176" width="68" height="22"></rect>
<a xlink:href="reuse_source.svg"><text x="404" y="191">Source</text>
</a>
</g>
</g>
<path d="M438 187h10"></path>
<path d="M448 187h10"></path>
<g>
<path d="M458 187h0"></path>
<path d="M690 187h0"></path>
<g class="terminal">
<path d="M458 187h0"></path>
<path d="M590 187h0"></path>
<rect x="458" y="176" width="132" height="22" rx="10" ry="10"></rect>
<text x="524" y="191">"TRANSPORTING"</text>
</g>
<path d="M590 187h10"></path>
<path d="M600 187h10"></path>
<g>
<path d="M610 187h0"></path>
<path d="M690 187h0"></path>
<path d="M610 187h10"></path>
<g class="non-terminal">
<path d="M620 187h0"></path>
<path d="M680 187h0"></path>
<rect x="620" y="176" width="60" height="22"></rect>
<a xlink:href="reuse_field.svg"><text x="650" y="191">Field</text>
</a>
</g>
<path d="M680 187h10"></path>
<path d="M620 187a10 10 0 0 0 -10 10v0a10 10 0 0 0 10 10"></path>
<g>
<path d="M620 207h60"></path>
</g>
<path d="M680 207a10 10 0 0 0 10 -10v0a10 10 0 0 0 -10 -10"></path>
</g>
</g>
<path d="M690 187h10"></path>
<g>
<path d="M700 187h0"></path>
<path d="M888 187h0"></path>
<path d="M700 187a10 10 0 0 0 10 -10v0a10 10 0 0 1 10 -10"></path>
<g>
<path d="M720 167h148"></path>
</g>
<path d="M868 167a10 10 0 0 1 10 10v0a10 10 0 0 0 10 10"></path>
<path d="M700 187h20"></path>
<g>
<path d="M720 187h0"></path>
<path d="M868 187h0"></path>
<g class="terminal">
<path d="M720 187h0"></path>
<path d="M796 187h0"></path>
<rect x="720" y="176" width="76" height="22" rx="10" ry="10"></rect>
<text x="758" y="191">"WHERE"</text>
</g>
<path d="M796 187h10"></path>
<path d="M806 187h10"></path>
<g class="non-terminal">
<path d="M816 187h0"></path>
<path d="M868 187h0"></path>
<rect x="816" y="176" width="52" height="22"></rect>
<a xlink:href="reuse_cond.svg"><text x="842" y="191">Cond</text>
</a>
</g>
</g>
<path d="M868 187h20"></path>
</g>
</g>
<path d="M904 187a10 10 0 0 0 10 -10v-127a10 10 0 0 1 10 -10"></path>
<path d="M262 40a10 10 0 0 1 10 10v175a10 10 0 0 0 10 10"></path>
<g>
<path d="M282 235h0"></path>
<path d="M904 235h0"></path>
<g>
<path d="M282 235h0"></path>
<path d="M438 235h0"></path>
<g class="terminal">
<path d="M282 235h0"></path>
<path d="M350 235h0"></path>
<rect x="282" y="224" width="68" height="22" rx="10" ry="10"></rect>
<text x="316" y="239">"FROM"</text>
</g>
<path d="M350 235h10"></path>
<path d="M360 235h10"></path>
<g class="non-terminal">
<path d="M370 235h0"></path>
<path d="M438 235h0"></path>
<rect x="370" y="224" width="68" height="22"></rect>
<a xlink:href="reuse_source.svg"><text x="404" y="239">Source</text>
</a>
</g>
</g>
<path d="M438 235h10"></path>
<path d="M448 235h10"></path>
<g>
<path d="M458 235h0"></path>
<path d="M622 235h0"></path>
<g class="terminal">
<path d="M458 235h0"></path>
<path d="M534 235h0"></path>
<rect x="458" y="224" width="76" height="22" rx="10" ry="10"></rect>
<text x="496" y="239">"INDEX"</text>
</g>
<path d="M534 235h10"></path>
<path d="M544 235h10"></path>
<g class="non-terminal">
<path d="M554 235h0"></path>
<path d="M622 235h0"></path>
<rect x="554" y="224" width="68" height="22"></rect>
<a xlink:href="reuse_source.svg"><text x="588" y="239">Source</text>
</a>
</g>
</g>
<path d="M622 235h10"></path>
<g>
<path d="M632 235h0"></path>
<path d="M904 235h0"></path>
<path d="M632 235a10 10 0 0 0 10 -10v0a10 10 0 0 1 10 -10"></path>
<g>
<path d="M652 215h232"></path>
</g>
<path d="M884 215a10 10 0 0 1 10 10v0a10 10 0 0 0 10 10"></path>
<path d="M632 235h20"></path>
<g>
<path d="M652 235h0"></path>
<path d="M884 235h0"></path>
<g class="terminal">
<path d="M652 235h0"></path>
<path d="M784 235h0"></path>
<rect x="652" y="224" width="132" height="22" rx="10" ry="10"></rect>
<text x="718" y="239">"TRANSPORTING"</text>
</g>
<path d="M784 235h10"></path>
<path d="M794 235h10"></path>
<g>
<path d="M804 235h0"></path>
<path d="M884 235h0"></path>
<path d="M804 235h10"></path>
<g class="non-terminal">
<path d="M814 235h0"></path>
<path d="M874 235h0"></path>
<rect x="814" y="224" width="60" height="22"></rect>
<a xlink:href="reuse_field.svg"><text x="844" y="239">Field</text>
</a>
</g>
<path d="M874 235h10"></path>
<path d="M814 235a10 10 0 0 0 -10 10v0a10 10 0 0 0 10 10"></path>
<g>
<path d="M814 255h60"></path>
</g>
<path d="M874 255a10 10 0 0 0 10 -10v0a10 10 0 0 0 -10 -10"></path>
</g>
</g>
<path d="M884 235h20"></path>
</g>
</g>
<path d="M904 235a10 10 0 0 0 10 -10v-175a10 10 0 0 1 10 -10"></path>
<path d="M262 40a10 10 0 0 1 10 10v223a10 10 0 0 0 10 10"></path>
<g>
<path d="M282 283h0"></path>
<path d="M904 283h0"></path>
<g>
<path d="M282 283h0"></path>
<path d="M446 283h0"></path>
<g class="terminal">
<path d="M282 283h0"></path>
<path d="M358 283h0"></path>
<rect x="282" y="272" width="76" height="22" rx="10" ry="10"></rect>
<text x="320" y="287">"INDEX"</text>
</g>
<path d="M358 283h10"></path>
<path d="M368 283h10"></path>
<g class="non-terminal">
<path d="M378 283h0"></path>
<path d="M446 283h0"></path>
<rect x="378" y="272" width="68" height="22"></rect>
<a xlink:href="reuse_source.svg"><text x="412" y="287">Source</text>
</a>
</g>
</g>
<path d="M446 283h10"></path>
<path d="M456 283h10"></path>
<g>
<path d="M466 283h0"></path>
<path d="M622 283h0"></path>
<g class="terminal">
<path d="M466 283h0"></path>
<path d="M534 283h0"></path>
<rect x="466" y="272" width="68" height="22" rx="10" ry="10"></rect>
<text x="500" y="287">"FROM"</text>
</g>
<path d="M534 283h10"></path>
<path d="M544 283h10"></path>
<g class="non-terminal">
<path d="M554 283h0"></path>
<path d="M622 283h0"></path>
<rect x="554" y="272" width="68" height="22"></rect>
<a xlink:href="reuse_source.svg"><text x="588" y="287">Source</text>
</a>
</g>
</g>
<path d="M622 283h10"></path>
<g>
<path d="M632 283h0"></path>
<path d="M904 283h0"></path>
<path d="M632 283a10 10 0 0 0 10 -10v0a10 10 0 0 1 10 -10"></path>
<g>
<path d="M652 263h232"></path>
</g>
<path d="M884 263a10 10 0 0 1 10 10v0a10 10 0 0 0 10 10"></path>
<path d="M632 283h20"></path>
<g>
<path d="M652 283h0"></path>
<path d="M884 283h0"></path>
<g class="terminal">
<path d="M652 283h0"></path>
<path d="M784 283h0"></path>
<rect x="652" y="272" width="132" height="22" rx="10" ry="10"></rect>
<text x="718" y="287">"TRANSPORTING"</text>
</g>
<path d="M784 283h10"></path>
<path d="M794 283h10"></path>
<g>
<path d="M804 283h0"></path>
<path d="M884 283h0"></path>
<path d="M804 283h10"></path>
<g class="non-terminal">
<path d="M814 283h0"></path>
<path d="M874 283h0"></path>
<rect x="814" y="272" width="60" height="22"></rect>
<a xlink:href="reuse_field.svg"><text x="844" y="287">Field</text>
</a>
</g>
<path d="M874 283h10"></path>
<path d="M814 283a10 10 0 0 0 -10 10v0a10 10 0 0 0 10 10"></path>
<g>
<path d="M814 303h60"></path>
</g>
<path d="M874 303a10 10 0 0 0 10 -10v0a10 10 0 0 0 -10 -10"></path>
</g>
</g>
<path d="M884 283h20"></path>
</g>
</g>
<path d="M904 283a10 10 0 0 0 10 -10v-223a10 10 0 0 1 10 -10"></path>
</g>
<path d="M924 40h20"></path>
</g>
</g>
<path d="M944 40h20"></path>
<path d="M144 40a10 10 0 0 1 10 10v262a10 10 0 0 0 10 10"></path>
<g>
<path d="M164 322h0"></path>
<path d="M504 322h440"></path>
<g class="terminal">
<path d="M164 322h0"></path>
<path d="M240 322h0"></path>
<rect x="164" y="311" width="76" height="22" rx="10" ry="10"></rect>
<text x="202" y="326">"TABLE"</text>
</g>
<path d="M240 322h10"></path>
<path d="M250 322h10"></path>
<g class="non-terminal">
<path d="M260 322h0"></path>
<path d="M328 322h0"></path>
<rect x="260" y="311" width="68" height="22"></rect>
<a xlink:href="reuse_target.svg"><text x="294" y="326">Target</text>
</a>
</g>
<path d="M328 322h10"></path>
<path d="M338 322h10"></path>
<g>
<path d="M348 322h0"></path>
<path d="M504 322h0"></path>
<g class="terminal">
<path d="M348 322h0"></path>
<path d="M416 322h0"></path>
<rect x="348" y="311" width="68" height="22" rx="10" ry="10"></rect>
<text x="382" y="326">"FROM"</text>
</g>
<path d="M416 322h10"></path>
<path d="M426 322h10"></path>
<g class="non-terminal">
<path d="M436 322h0"></path>
<path d="M504 322h0"></path>
<rect x="436" y="311" width="68" height="22"></rect>
<a xlink:href="reuse_source.svg"><text x="470" y="326">Source</text>
</a>
</g>
</g>
</g>
<path d="M944 322a10 10 0 0 0 10 -10v-262a10 10 0 0 1 10 -10"></path>
</g>
</g>
<path d="M964 40h10"></path>
<path d="M 974 40 h 20 m -10 -10 v 20 m 10 -20 v 20"></path>
</g>
</svg>
