<svg xmlns="http://www.w3.org/2000/svg" xmlns:xlink="http://www.w3.org/1999/xlink" class="railroad-diagram" width="1044" height="503" viewBox="0 0 1044 503">
<defs>
<style type="text/css"><![CDATA[
path {
stroke-width: 3;
stroke: black;
fill: rgba(0,0,0,0);
}
text {
font: bold 14px monospace;
text-anchor: middle;
}
text.diagram-text {
font-size: 12px;
}
a {
fill: blue;
}
text.diagram-arrow {
font-size: 16px;
}
text.label {
text-anchor: start;
}
text.comment {
font: italic 12px monospace;
}
rect {
stroke-width: 3;
stroke: black;
fill: #BCBCBC;
}
path.diagram-text {
stroke-width: 3;
stroke: black;
fill: #BCBCBC;
cursor: help;
}
]]></style>
</defs>
<g transform="translate(.5 .5)">
<path d="M 20 30 v 20 m 10 -20 v 20 m -10 -10 h 20.5"></path>
<path d="M40 40h10"></path>
<g>
<path d="M50 40h0"></path>
<path d="M994 40h0"></path>
<g class="terminal">
<path d="M50 40h0"></path>
<path d="M134 40h0"></path>
<rect x="50" y="29" width="84" height="22" rx="10" ry="10"></rect>
<text x="92" y="44">"MODIFY"</text>
</g>
<path d="M134 40h10"></path>
<g>
<path d="M144 40h0"></path>
<path d="M994 40h0"></path>
<path d="M144 40h20"></path>
<g>
<path d="M164 40h0"></path>
<path d="M974 40h0"></path>
<g class="non-terminal">
<path d="M164 40h0"></path>
<path d="M232 40h0"></path>
<rect x="164" y="29" width="68" height="22"></rect>
<a xlink:href="reuse_target.svg"><text x="198" y="44">Target</text>
</a>
</g>
<path d="M232 40h10"></path>
<g>
<path d="M242 40h0"></path>
<path d="M974 40h0"></path>
<path d="M242 40a10 10 0 0 0 10 -10v0a10 10 0 0 1 10 -10"></path>
<g>
<path d="M262 20h692"></path>
</g>
<path d="M954 20a10 10 0 0 1 10 10v0a10 10 0 0 0 10 10"></path>
<path d="M242 40h20"></path>
<g>
<path d="M262 40h0"></path>
<path d="M954 40h0"></path>
<path d="M262 40h20"></path>
<g>
<path d="M282 40h0"></path>
<path d="M622 40h312"></path>
<g>
<path d="M282 40h0"></path>
<path d="M446 40h0"></path>
<g class="terminal">
<path d="M282 40h0"></path>
<path d="M358 40h0"></path>
<rect x="282" y="29" width="76" height="22" rx="10" ry="10"></rect>
<text x="320" y="44">"INDEX"</text>
</g>
<path d="M358 40h10"></path>
<path d="M368 40h10"></path>
<g class="non-terminal">
<path d="M378 40h0"></path>
<path d="M446 40h0"></path>
<rect x="378" y="29" width="68" height="22"></rect>
<a xlink:href="reuse_source.svg"><text x="412" y="44">Source</text>
</a>
</g>
</g>
<path d="M446 40h10"></path>
<path d="M456 40h10"></path>
<g>
<path d="M466 40h0"></path>
<path d="M622 40h0"></path>
<g class="terminal">
<path d="M466 40h0"></path>
<path d="M534 40h0"></path>
<rect x="466" y="29" width="68" height="22" rx="10" ry="10"></rect>
<text x="500" y="44">"FROM"</text>
</g>
<path d="M534 40h10"></path>
<path d="M544 40h10"></path>
<g class="non-terminal">
<path d="M554 40h0"></path>
<path d="M622 40h0"></path>
<rect x="554" y="29" width="68" height="22"></rect>
<a xlink:href="reuse_source.svg"><text x="588" y="44">Source</text>
</a>
</g>
</g>
</g>
<path d="M934 40h20"></path>
<path d="M262 40a10 10 0 0 1 10 10v10a10 10 0 0 0 10 10"></path>
<g>
<path d="M282 70h0"></path>
<path d="M446 70h488"></path>
<g class="terminal">
<path d="M282 70h0"></path>
<path d="M358 70h0"></path>
<rect x="282" y="59" width="76" height="22" rx="10" ry="10"></rect>
<text x="320" y="74">"INDEX"</text>
</g>
<path d="M358 70h10"></path>
<path d="M368 70h10"></path>
<g class="non-terminal">
<path d="M378 70h0"></path>
<path d="M446 70h0"></path>
<rect x="378" y="59" width="68" height="22"></rect>
<a xlink:href="reuse_source.svg"><text x="412" y="74">Source</text>
</a>
</g>
</g>
<path d="M934 70a10 10 0 0 0 10 -10v-10a10 10 0 0 1 10 -10"></path>
<path d="M262 40a10 10 0 0 1 10 10v40a10 10 0 0 0 10 10"></path>
<g>
<path d="M282 100h0"></path>
<path d="M712 100h222"></path>
<g>
<path d="M282 100h0"></path>
<path d="M544 100h0"></path>
<g class="terminal">
<path d="M282 100h0"></path>
<path d="M414 100h0"></path>
<rect x="282" y="89" width="132" height="22" rx="10" ry="10"></rect>
<text x="348" y="104">"TRANSPORTING"</text>
</g>
<path d="M414 100h10"></path>
<g>
<path d="M424 100h0"></path>
<path d="M544 100h0"></path>
<path d="M424 100h20"></path>
<g>
<path d="M444 100h0"></path>
<path d="M524 100h0"></path>
<path d="M444 100h10"></path>
<g class="non-terminal">
<path d="M454 100h0"></path>
<path d="M514 100h0"></path>
<rect x="454" y="89" width="60" height="22"></rect>
<a xlink:href="reuse_field.svg"><text x="484" y="104">Field</text>
</a>
</g>
<path d="M514 100h10"></path>
<path d="M454 100a10 10 0 0 0 -10 10v0a10 10 0 0 0 10 10"></path>
<g>
<path d="M454 120h60"></path>
</g>
<path d="M514 120a10 10 0 0 0 10 -10v0a10 10 0 0 0 -10 -10"></path>
</g>
<path d="M524 100h20"></path>
<path d="M424 100a10 10 0 0 1 10 10v19a10 10 0 0 0 10 10"></path>
<g class="non-terminal">
<path d="M444 139h0"></path>
<path d="M520 139h4"></path>
<rect x="444" y="128" width="76" height="22"></rect>
<a xlink:href="reuse_dynamic.svg"><text x="482" y="143">Dynamic</text>
</a>
</g>
<path d="M524 139a10 10 0 0 0 10 -10v-19a10 10 0 0 1 10 -10"></path>
</g>
</g>
<path d="M544 100h10"></path>
<path d="M554 100h10"></path>
<g>
<path d="M564 100h0"></path>
<path d="M712 100h0"></path>
<g class="terminal">
<path d="M564 100h0"></path>
<path d="M640 100h0"></path>
<rect x="564" y="89" width="76" height="22" rx="10" ry="10"></rect>
<text x="602" y="104">"WHERE"</text>
</g>
<path d="M640 100h10"></path>
<path d="M650 100h10"></path>
<g class="non-terminal">
<path d="M660 100h0"></path>
<path d="M712 100h0"></path>
<rect x="660" y="89" width="52" height="22"></rect>
<a xlink:href="reuse_cond.svg"><text x="686" y="104">Cond</text>
</a>
</g>
</g>
</g>
<path d="M934 100a10 10 0 0 0 10 -10v-40a10 10 0 0 1 10 -10"></path>
<path d="M262 40a10 10 0 0 1 10 10v109a10 10 0 0 0 10 10"></path>
<g>
<path d="M282 169h0"></path>
<path d="M728 169h206"></path>
<g>
<path d="M282 169h0"></path>
<path d="M446 169h0"></path>
<g class="terminal">
<path d="M282 169h0"></path>
<path d="M358 169h0"></path>
<rect x="282" y="158" width="76" height="22" rx="10" ry="10"></rect>
<text x="320" y="173">"INDEX"</text>
</g>
<path d="M358 169h10"></path>
<path d="M368 169h10"></path>
<g class="non-terminal">
<path d="M378 169h0"></path>
<path d="M446 169h0"></path>
<rect x="378" y="158" width="68" height="22"></rect>
<a xlink:href="reuse_source.svg"><text x="412" y="173">Source</text>
</a>
</g>
</g>
<path d="M446 169h10"></path>
<path d="M456 169h10"></path>
<g>
<path d="M466 169h0"></path>
<path d="M728 169h0"></path>
<g class="terminal">
<path d="M466 169h0"></path>
<path d="M598 169h0"></path>
<rect x="466" y="158" width="132" height="22" rx="10" ry="10"></rect>
<text x="532" y="173">"TRANSPORTING"</text>
</g>
<path d="M598 169h10"></path>
<g>
<path d="M608 169h0"></path>
<path d="M728 169h0"></path>
<path d="M608 169h20"></path>
<g>
<path d="M628 169h0"></path>
<path d="M708 169h0"></path>
<path d="M628 169h10"></path>
<g class="non-terminal">
<path d="M638 169h0"></path>
<path d="M698 169h0"></path>
<rect x="638" y="158" width="60" height="22"></rect>
<a xlink:href="reuse_field.svg"><text x="668" y="173">Field</text>
</a>
</g>
<path d="M698 169h10"></path>
<path d="M638 169a10 10 0 0 0 -10 10v0a10 10 0 0 0 10 10"></path>
<g>
<path d="M638 189h60"></path>
</g>
<path d="M698 189a10 10 0 0 0 10 -10v0a10 10 0 0 0 -10 -10"></path>
</g>
<path d="M708 169h20"></path>
<path d="M608 169a10 10 0 0 1 10 10v19a10 10 0 0 0 10 10"></path>
<g class="non-terminal">
<path d="M628 208h0"></path>
<path d="M704 208h4"></path>
<rect x="628" y="197" width="76" height="22"></rect>
<a xlink:href="reuse_dynamic.svg"><text x="666" y="212">Dynamic</text>
</a>
</g>
<path d="M708 208a10 10 0 0 0 10 -10v-19a10 10 0 0 1 10 -10"></path>
</g>
</g>
</g>
<path d="M934 169a10 10 0 0 0 10 -10v-109a10 10 0 0 1 10 -10"></path>
<path d="M262 40a10 10 0 0 1 10 10v187a10 10 0 0 0 10 10"></path>
<g>
<path d="M282 247h0"></path>
<path d="M918 247h16"></path>
<g>
<path d="M282 247h0"></path>
<path d="M438 247h0"></path>
<g class="terminal">
<path d="M282 247h0"></path>
<path d="M350 247h0"></path>
<rect x="282" y="236" width="68" height="22" rx="10" ry="10"></rect>
<text x="316" y="251">"FROM"</text>
</g>
<path d="M350 247h10"></path>
<path d="M360 247h10"></path>
<g class="non-terminal">
<path d="M370 247h0"></path>
<path d="M438 247h0"></path>
<rect x="370" y="236" width="68" height="22"></rect>
<a xlink:href="reuse_source.svg"><text x="404" y="251">Source</text>
</a>
</g>
</g>
<path d="M438 247h10"></path>
<path d="M448 247h10"></path>
<g>
<path d="M458 247h0"></path>
<path d="M720 247h0"></path>
<g class="terminal">
<path d="M458 247h0"></path>
<path d="M590 247h0"></path>
<rect x="458" y="236" width="132" height="22" rx="10" ry="10"></rect>
<text x="524" y="251">"TRANSPORTING"</text>
</g>
<path d="M590 247h10"></path>
<g>
<path d="M600 247h0"></path>
<path d="M720 247h0"></path>
<path d="M600 247h20"></path>
<g>
<path d="M620 247h0"></path>
<path d="M700 247h0"></path>
<path d="M620 247h10"></path>
<g class="non-terminal">
<path d="M630 247h0"></path>
<path d="M690 247h0"></path>
<rect x="630" y="236" width="60" height="22"></rect>
<a xlink:href="reuse_field.svg"><text x="660" y="251">Field</text>
</a>
</g>
<path d="M690 247h10"></path>
<path d="M630 247a10 10 0 0 0 -10 10v0a10 10 0 0 0 10 10"></path>
<g>
<path d="M630 267h60"></path>
</g>
<path d="M690 267a10 10 0 0 0 10 -10v0a10 10 0 0 0 -10 -10"></path>
</g>
<path d="M700 247h20"></path>
<path d="M600 247a10 10 0 0 1 10 10v19a10 10 0 0 0 10 10"></path>
<g class="non-terminal">
<path d="M620 286h0"></path>
<path d="M696 286h4"></path>
<rect x="620" y="275" width="76" height="22"></rect>
<a xlink:href="reuse_dynamic.svg"><text x="658" y="290">Dynamic</text>
</a>
</g>
<path d="M700 286a10 10 0 0 0 10 -10v-19a10 10 0 0 1 10 -10"></path>
</g>
</g>
<path d="M720 247h10"></path>
<g>
<path d="M730 247h0"></path>
<path d="M918 247h0"></path>
<path d="M730 247a10 10 0 0 0 10 -10v0a10 10 0 0 1 10 -10"></path>
<g>
<path d="M750 227h148"></path>
</g>
<path d="M898 227a10 10 0 0 1 10 10v0a10 10 0 0 0 10 10"></path>
<path d="M730 247h20"></path>
<g>
<path d="M750 247h0"></path>
<path d="M898 247h0"></path>
<g class="terminal">
<path d="M750 247h0"></path>
<path d="M826 247h0"></path>
<rect x="750" y="236" width="76" height="22" rx="10" ry="10"></rect>
<text x="788" y="251">"WHERE"</text>
</g>
<path d="M826 247h10"></path>
<path d="M836 247h10"></path>
<g class="non-terminal">
<path d="M846 247h0"></path>
<path d="M898 247h0"></path>
<rect x="846" y="236" width="52" height="22"></rect>
<a xlink:href="reuse_cond.svg"><text x="872" y="251">Cond</text>
</a>
</g>
</g>
<path d="M898 247h20"></path>
</g>
</g>
<path d="M934 247a10 10 0 0 0 10 -10v-187a10 10 0 0 1 10 -10"></path>
<path d="M262 40a10 10 0 0 1 10 10v265a10 10 0 0 0 10 10"></path>
<g>
<path d="M282 325h0"></path>
<path d="M934 325h0"></path>
<g>
<path d="M282 325h0"></path>
<path d="M438 325h0"></path>
<g class="terminal">
<path d="M282 325h0"></path>
<path d="M350 325h0"></path>
<rect x="282" y="314" width="68" height="22" rx="10" ry="10"></rect>
<text x="316" y="329">"FROM"</text>
</g>
<path d="M350 325h10"></path>
<path d="M360 325h10"></path>
<g class="non-terminal">
<path d="M370 325h0"></path>
<path d="M438 325h0"></path>
<rect x="370" y="314" width="68" height="22"></rect>
<a xlink:href="reuse_source.svg"><text x="404" y="329">Source</text>
</a>
</g>
</g>
<path d="M438 325h10"></path>
<path d="M448 325h10"></path>
<g>
<path d="M458 325h0"></path>
<path d="M622 325h0"></path>
<g class="terminal">
<path d="M458 325h0"></path>
<path d="M534 325h0"></path>
<rect x="458" y="314" width="76" height="22" rx="10" ry="10"></rect>
<text x="496" y="329">"INDEX"</text>
</g>
<path d="M534 325h10"></path>
<path d="M544 325h10"></path>
<g class="non-terminal">
<path d="M554 325h0"></path>
<path d="M622 325h0"></path>
<rect x="554" y="314" width="68" height="22"></rect>
<a xlink:href="reuse_source.svg"><text x="588" y="329">Source</text>
</a>
</g>
</g>
<path d="M622 325h10"></path>
<g>
<path d="M632 325h0"></path>
<path d="M934 325h0"></path>
<path d="M632 325a10 10 0 0 0 10 -10v0a10 10 0 0 1 10 -10"></path>
<g>
<path d="M652 305h262"></path>
</g>
<path d="M914 305a10 10 0 0 1 10 10v0a10 10 0 0 0 10 10"></path>
<path d="M632 325h20"></path>
<g>
<path d="M652 325h0"></path>
<path d="M914 325h0"></path>
<g class="terminal">
<path d="M652 325h0"></path>
<path d="M784 325h0"></path>
<rect x="652" y="314" width="132" height="22" rx="10" ry="10"></rect>
<text x="718" y="329">"TRANSPORTING"</text>
</g>
<path d="M784 325h10"></path>
<g>
<path d="M794 325h0"></path>
<path d="M914 325h0"></path>
<path d="M794 325h20"></path>
<g>
<path d="M814 325h0"></path>
<path d="M894 325h0"></path>
<path d="M814 325h10"></path>
<g class="non-terminal">
<path d="M824 325h0"></path>
<path d="M884 325h0"></path>
<rect x="824" y="314" width="60" height="22"></rect>
<a xlink:href="reuse_field.svg"><text x="854" y="329">Field</text>
</a>
</g>
<path d="M884 325h10"></path>
<path d="M824 325a10 10 0 0 0 -10 10v0a10 10 0 0 0 10 10"></path>
<g>
<path d="M824 345h60"></path>
</g>
<path d="M884 345a10 10 0 0 0 10 -10v0a10 10 0 0 0 -10 -10"></path>
</g>
<path d="M894 325h20"></path>
<path d="M794 325a10 10 0 0 1 10 10v19a10 10 0 0 0 10 10"></path>
<g class="non-terminal">
<path d="M814 364h0"></path>
<path d="M890 364h4"></path>
<rect x="814" y="353" width="76" height="22"></rect>
<a xlink:href="reuse_dynamic.svg"><text x="852" y="368">Dynamic</text>
</a>
</g>
<path d="M894 364a10 10 0 0 0 10 -10v-19a10 10 0 0 1 10 -10"></path>
</g>
</g>
<path d="M914 325h20"></path>
</g>
</g>
<path d="M934 325a10 10 0 0 0 10 -10v-265a10 10 0 0 1 10 -10"></path>
<path d="M262 40a10 10 0 0 1 10 10v343a10 10 0 0 0 10 10"></path>
<g>
<path d="M282 403h0"></path>
<path d="M934 403h0"></path>
<g>
<path d="M282 403h0"></path>
<path d="M446 403h0"></path>
<g class="terminal">
<path d="M282 403h0"></path>
<path d="M358 403h0"></path>
<rect x="282" y="392" width="76" height="22" rx="10" ry="10"></rect>
<text x="320" y="407">"INDEX"</text>
</g>
<path d="M358 403h10"></path>
<path d="M368 403h10"></path>
<g class="non-terminal">
<path d="M378 403h0"></path>
<path d="M446 403h0"></path>
<rect x="378" y="392" width="68" height="22"></rect>
<a xlink:href="reuse_source.svg"><text x="412" y="407">Source</text>
</a>
</g>
</g>
<path d="M446 403h10"></path>
<path d="M456 403h10"></path>
<g>
<path d="M466 403h0"></path>
<path d="M622 403h0"></path>
<g class="terminal">
<path d="M466 403h0"></path>
<path d="M534 403h0"></path>
<rect x="466" y="392" width="68" height="22" rx="10" ry="10"></rect>
<text x="500" y="407">"FROM"</text>
</g>
<path d="M534 403h10"></path>
<path d="M544 403h10"></path>
<g class="non-terminal">
<path d="M554 403h0"></path>
<path d="M622 403h0"></path>
<rect x="554" y="392" width="68" height="22"></rect>
<a xlink:href="reuse_source.svg"><text x="588" y="407">Source</text>
</a>
</g>
</g>
<path d="M622 403h10"></path>
<g>
<path d="M632 403h0"></path>
<path d="M934 403h0"></path>
<path d="M632 403a10 10 0 0 0 10 -10v0a10 10 0 0 1 10 -10"></path>
<g>
<path d="M652 383h262"></path>
</g>
<path d="M914 383a10 10 0 0 1 10 10v0a10 10 0 0 0 10 10"></path>
<path d="M632 403h20"></path>
<g>
<path d="M652 403h0"></path>
<path d="M914 403h0"></path>
<g class="terminal">
<path d="M652 403h0"></path>
<path d="M784 403h0"></path>
<rect x="652" y="392" width="132" height="22" rx="10" ry="10"></rect>
<text x="718" y="407">"TRANSPORTING"</text>
</g>
<path d="M784 403h10"></path>
<g>
<path d="M794 403h0"></path>
<path d="M914 403h0"></path>
<path d="M794 403h20"></path>
<g>
<path d="M814 403h0"></path>
<path d="M894 403h0"></path>
<path d="M814 403h10"></path>
<g class="non-terminal">
<path d="M824 403h0"></path>
<path d="M884 403h0"></path>
<rect x="824" y="392" width="60" height="22"></rect>
<a xlink:href="reuse_field.svg"><text x="854" y="407">Field</text>
</a>
</g>
<path d="M884 403h10"></path>
<path d="M824 403a10 10 0 0 0 -10 10v0a10 10 0 0 0 10 10"></path>
<g>
<path d="M824 423h60"></path>
</g>
<path d="M884 423a10 10 0 0 0 10 -10v0a10 10 0 0 0 -10 -10"></path>
</g>
<path d="M894 403h20"></path>
<path d="M794 403a10 10 0 0 1 10 10v19a10 10 0 0 0 10 10"></path>
<g class="non-terminal">
<path d="M814 442h0"></path>
<path d="M890 442h4"></path>
<rect x="814" y="431" width="76" height="22"></rect>
<a xlink:href="reuse_dynamic.svg"><text x="852" y="446">Dynamic</text>
</a>
</g>
<path d="M894 442a10 10 0 0 0 10 -10v-19a10 10 0 0 1 10 -10"></path>
</g>
</g>
<path d="M914 403h20"></path>
</g>
</g>
<path d="M934 403a10 10 0 0 0 10 -10v-343a10 10 0 0 1 10 -10"></path>
</g>
<path d="M954 40h20"></path>
</g>
</g>
<path d="M974 40h20"></path>
<path d="M144 40a10 10 0 0 1 10 10v412a10 10 0 0 0 10 10"></path>
<g>
<path d="M164 472h0"></path>
<path d="M504 472h470"></path>
<g class="terminal">
<path d="M164 472h0"></path>
<path d="M240 472h0"></path>
<rect x="164" y="461" width="76" height="22" rx="10" ry="10"></rect>
<text x="202" y="476">"TABLE"</text>
</g>
<path d="M240 472h10"></path>
<path d="M250 472h10"></path>
<g class="non-terminal">
<path d="M260 472h0"></path>
<path d="M328 472h0"></path>
<rect x="260" y="461" width="68" height="22"></rect>
<a xlink:href="reuse_target.svg"><text x="294" y="476">Target</text>
</a>
</g>
<path d="M328 472h10"></path>
<path d="M338 472h10"></path>
<g>
<path d="M348 472h0"></path>
<path d="M504 472h0"></path>
<g class="terminal">
<path d="M348 472h0"></path>
<path d="M416 472h0"></path>
<rect x="348" y="461" width="68" height="22" rx="10" ry="10"></rect>
<text x="382" y="476">"FROM"</text>
</g>
<path d="M416 472h10"></path>
<path d="M426 472h10"></path>
<g class="non-terminal">
<path d="M436 472h0"></path>
<path d="M504 472h0"></path>
<rect x="436" y="461" width="68" height="22"></rect>
<a xlink:href="reuse_source.svg"><text x="470" y="476">Source</text>
</a>
</g>
</g>
</g>
<path d="M974 472a10 10 0 0 0 10 -10v-412a10 10 0 0 1 10 -10"></path>
</g>
</g>
<path d="M994 40h10"></path>
<path d="M 1004 40 h 20 m -10 -10 v 20 m 10 -20 v 20"></path>
</g>
</svg>
