<svg xmlns="http://www.w3.org/2000/svg" xmlns:xlink="http://www.w3.org/1999/xlink" class="railroad-diagram" width="1180" height="109" viewBox="0 0 1180 109">
<defs>
<style type="text/css"><![CDATA[
path {
stroke-width: 3;
stroke: black;
fill: rgba(0,0,0,0);
}
text {
font: bold 14px monospace;
text-anchor: middle;
}
text.diagram-text {
font-size: 12px;
}
a {
fill: blue;
}
text.diagram-arrow {
font-size: 16px;
}
text.label {
text-anchor: start;
}
text.comment {
font: italic 12px monospace;
}
rect {
stroke-width: 3;
stroke: black;
fill: #BCBCBC;
}
path.diagram-text {
stroke-width: 3;
stroke: black;
fill: #BCBCBC;
cursor: help;
}
]]></style>
</defs>
<g transform="translate(.5 .5)">
<path d="M 20 38 v 20 m 10 -20 v 20 m -10 -10 h 20.5"></path>
<path d="M40 48h10"></path>
<g>
<path d="M50 48h0"></path>
<path d="M1130 48h0"></path>
<g class="terminal">
<path d="M50 48h0"></path>
<path d="M134 48h0"></path>
<rect x="50" y="37" width="84" height="22" rx="10" ry="10"></rect>
<text x="92" y="52">"MODIFY"</text>
</g>
<path d="M134 48h10"></path>
<g>
<path d="M144 48h0"></path>
<path d="M1130 48h0"></path>
<path d="M144 48h20"></path>
<g>
<path d="M164 48h0"></path>
<path d="M1110 48h0"></path>
<g class="non-terminal">
<path d="M164 48h0"></path>
<path d="M232 48h0"></path>
<rect x="164" y="37" width="68" height="22"></rect>
<a xlink:href="reuse_target.svg"><text x="198" y="52">Target</text>
</a>
</g>
<path d="M232 48h10"></path>
<g>
<path d="M242 48h0"></path>
<path d="M1110 48h0"></path>
<path d="M242 48a10 10 0 0 0 10 -10v-8a10 10 0 0 1 10 -10"></path>
<g>
<path d="M262 20h828"></path>
</g>
<path d="M1090 20a10 10 0 0 1 10 10v8a10 10 0 0 0 10 10"></path>
<path d="M242 48h20"></path>
<g>
<path d="M262 48h0"></path>
<path d="M1090 48h0"></path>
<g>
<path d="M262 48h0"></path>
<path d="M458 48h0"></path>
<path d="M262 48a10 10 0 0 0 10 -10v0a10 10 0 0 1 10 -10"></path>
<g>
<path d="M282 28h156"></path>
</g>
<path d="M438 28a10 10 0 0 1 10 10v0a10 10 0 0 0 10 10"></path>
<path d="M262 48h20"></path>
<g>
<path d="M282 48h0"></path>
<path d="M438 48h0"></path>
<g class="terminal">
<path d="M282 48h0"></path>
<path d="M350 48h0"></path>
<rect x="282" y="37" width="68" height="22" rx="10" ry="10"></rect>
<text x="316" y="52">"FROM"</text>
</g>
<path d="M350 48h10"></path>
<path d="M360 48h10"></path>
<g class="non-terminal">
<path d="M370 48h0"></path>
<path d="M438 48h0"></path>
<rect x="370" y="37" width="68" height="22"></rect>
<a xlink:href="reuse_source.svg"><text x="404" y="52">Source</text>
</a>
</g>
</g>
<path d="M438 48h20"></path>
</g>
<path d="M458 48h10"></path>
<g>
<path d="M468 48h0"></path>
<path d="M632 48h0"></path>
<g class="terminal">
<path d="M468 48h0"></path>
<path d="M544 48h0"></path>
<rect x="468" y="37" width="76" height="22" rx="10" ry="10"></rect>
<text x="506" y="52">"INDEX"</text>
</g>
<path d="M544 48h10"></path>
<path d="M554 48h10"></path>
<g class="non-terminal">
<path d="M564 48h0"></path>
<path d="M632 48h0"></path>
<rect x="564" y="37" width="68" height="22"></rect>
<a xlink:href="reuse_source.svg"><text x="598" y="52">Source</text>
</a>
</g>
</g>
<path d="M632 48h10"></path>
<g>
<path d="M642 48h0"></path>
<path d="M838 48h0"></path>
<path d="M642 48a10 10 0 0 0 10 -10v0a10 10 0 0 1 10 -10"></path>
<g>
<path d="M662 28h156"></path>
</g>
<path d="M818 28a10 10 0 0 1 10 10v0a10 10 0 0 0 10 10"></path>
<path d="M642 48h20"></path>
<g>
<path d="M662 48h0"></path>
<path d="M818 48h0"></path>
<g class="terminal">
<path d="M662 48h0"></path>
<path d="M730 48h0"></path>
<rect x="662" y="37" width="68" height="22" rx="10" ry="10"></rect>
<text x="696" y="52">"FROM"</text>
</g>
<path d="M730 48h10"></path>
<path d="M740 48h10"></path>
<g class="non-terminal">
<path d="M750 48h0"></path>
<path d="M818 48h0"></path>
<rect x="750" y="37" width="68" height="22"></rect>
<a xlink:href="reuse_source.svg"><text x="784" y="52">Source</text>
</a>
</g>
</g>
<path d="M818 48h20"></path>
</g>
<g>
<path d="M838 48h0"></path>
<path d="M1090 48h0"></path>
<path d="M838 48a10 10 0 0 0 10 -10v0a10 10 0 0 1 10 -10"></path>
<g>
<path d="M858 28h212"></path>
</g>
<path d="M1070 28a10 10 0 0 1 10 10v0a10 10 0 0 0 10 10"></path>
<path d="M838 48h20"></path>
<g>
<path d="M858 48h0"></path>
<path d="M1070 48h0"></path>
<g class="terminal">
<path d="M858 48h0"></path>
<path d="M990 48h0"></path>
<rect x="858" y="37" width="132" height="22" rx="10" ry="10"></rect>
<text x="924" y="52">"TRANSPORTING"</text>
</g>
<path d="M990 48h10"></path>
<path d="M1000 48h10"></path>
<g class="non-terminal">
<path d="M1010 48h0"></path>
<path d="M1070 48h0"></path>
<rect x="1010" y="37" width="60" height="22"></rect>
<a xlink:href="reuse_field.svg"><text x="1040" y="52">Field</text>
</a>
</g>
</g>
<path d="M1070 48h20"></path>
</g>
</g>
<path d="M1090 48h20"></path>
</g>
</g>
<path d="M1110 48h20"></path>
<path d="M144 48a10 10 0 0 1 10 10v10a10 10 0 0 0 10 10"></path>
<g>
<path d="M164 78h0"></path>
<path d="M504 78h606"></path>
<g class="terminal">
<path d="M164 78h0"></path>
<path d="M240 78h0"></path>
<rect x="164" y="67" width="76" height="22" rx="10" ry="10"></rect>
<text x="202" y="82">"TABLE"</text>
</g>
<path d="M240 78h10"></path>
<path d="M250 78h10"></path>
<g class="non-terminal">
<path d="M260 78h0"></path>
<path d="M328 78h0"></path>
<rect x="260" y="67" width="68" height="22"></rect>
<a xlink:href="reuse_target.svg"><text x="294" y="82">Target</text>
</a>
</g>
<path d="M328 78h10"></path>
<path d="M338 78h10"></path>
<g>
<path d="M348 78h0"></path>
<path d="M504 78h0"></path>
<g class="terminal">
<path d="M348 78h0"></path>
<path d="M416 78h0"></path>
<rect x="348" y="67" width="68" height="22" rx="10" ry="10"></rect>
<text x="382" y="82">"FROM"</text>
</g>
<path d="M416 78h10"></path>
<path d="M426 78h10"></path>
<g class="non-terminal">
<path d="M436 78h0"></path>
<path d="M504 78h0"></path>
<rect x="436" y="67" width="68" height="22"></rect>
<a xlink:href="reuse_source.svg"><text x="470" y="82">Source</text>
</a>
</g>
</g>
</g>
<path d="M1110 78a10 10 0 0 0 10 -10v-10a10 10 0 0 1 10 -10"></path>
</g>
</g>
<path d="M1130 48h10"></path>
<path d="M 1140 48 h 20 m -10 -10 v 20 m 10 -20 v 20"></path>
</g>
</svg>
