<svg xmlns="http://www.w3.org/2000/svg" xmlns:xlink="http://www.w3.org/1999/xlink" class="railroad-diagram" width="1014" height="275" viewBox="0 0 1014 275">
<defs>
<style type="text/css"><![CDATA[
path {
stroke-width: 3;
stroke: black;
fill: rgba(0,0,0,0);
}
text {
font: bold 14px monospace;
text-anchor: middle;
}
text.diagram-text {
font-size: 12px;
}
a {
fill: blue;
}
text.diagram-arrow {
font-size: 16px;
}
text.label {
text-anchor: start;
}
text.comment {
font: italic 12px monospace;
}
rect {
stroke-width: 3;
stroke: black;
fill: #BCBCBC;
}
path.diagram-text {
stroke-width: 3;
stroke: black;
fill: #BCBCBC;
cursor: help;
}
]]></style>
</defs>
<g transform="translate(.5 .5)">
<path d="M 20 30 v 20 m 10 -20 v 20 m -10 -10 h 20.5"></path>
<path d="M40 40h10"></path>
<g>
<path d="M50 40h0"></path>
<path d="M964 40h0"></path>
<g class="terminal">
<path d="M50 40h0"></path>
<path d="M134 40h0"></path>
<rect x="50" y="29" width="84" height="22" rx="10" ry="10"></rect>
<text x="92" y="44">"MODIFY"</text>
</g>
<path d="M134 40h10"></path>
<g>
<path d="M144 40h0"></path>
<path d="M964 40h0"></path>
<path d="M144 40h20"></path>
<g>
<path d="M164 40h0"></path>
<path d="M944 40h0"></path>
<g class="non-terminal">
<path d="M164 40h0"></path>
<path d="M232 40h0"></path>
<rect x="164" y="29" width="68" height="22"></rect>
<a xlink:href="reuse_target.svg"><text x="198" y="44">Target</text>
</a>
</g>
<path d="M232 40h10"></path>
<g>
<path d="M242 40h0"></path>
<path d="M944 40h0"></path>
<path d="M242 40a10 10 0 0 0 10 -10v0a10 10 0 0 1 10 -10"></path>
<g>
<path d="M262 20h662"></path>
</g>
<path d="M924 20a10 10 0 0 1 10 10v0a10 10 0 0 0 10 10"></path>
<path d="M242 40h20"></path>
<g>
<path d="M262 40h0"></path>
<path d="M924 40h0"></path>
<path d="M262 40h20"></path>
<g>
<path d="M282 40h0"></path>
<path d="M622 40h282"></path>
<g>
<path d="M282 40h0"></path>
<path d="M446 40h0"></path>
<g class="terminal">
<path d="M282 40h0"></path>
<path d="M358 40h0"></path>
<rect x="282" y="29" width="76" height="22" rx="10" ry="10"></rect>
<text x="320" y="44">"INDEX"</text>
</g>
<path d="M358 40h10"></path>
<path d="M368 40h10"></path>
<g class="non-terminal">
<path d="M378 40h0"></path>
<path d="M446 40h0"></path>
<rect x="378" y="29" width="68" height="22"></rect>
<a xlink:href="reuse_source.svg"><text x="412" y="44">Source</text>
</a>
</g>
</g>
<path d="M446 40h10"></path>
<path d="M456 40h10"></path>
<g>
<path d="M466 40h0"></path>
<path d="M622 40h0"></path>
<g class="terminal">
<path d="M466 40h0"></path>
<path d="M534 40h0"></path>
<rect x="466" y="29" width="68" height="22" rx="10" ry="10"></rect>
<text x="500" y="44">"FROM"</text>
</g>
<path d="M534 40h10"></path>
<path d="M544 40h10"></path>
<g class="non-terminal">
<path d="M554 40h0"></path>
<path d="M622 40h0"></path>
<rect x="554" y="29" width="68" height="22"></rect>
<a xlink:href="reuse_source.svg"><text x="588" y="44">Source</text>
</a>
</g>
</g>
</g>
<path d="M904 40h20"></path>
<path d="M262 40a10 10 0 0 1 10 10v10a10 10 0 0 0 10 10"></path>
<g>
<path d="M282 70h0"></path>
<path d="M446 70h458"></path>
<g class="terminal">
<path d="M282 70h0"></path>
<path d="M358 70h0"></path>
<rect x="282" y="59" width="76" height="22" rx="10" ry="10"></rect>
<text x="320" y="74">"INDEX"</text>
</g>
<path d="M358 70h10"></path>
<path d="M368 70h10"></path>
<g class="non-terminal">
<path d="M378 70h0"></path>
<path d="M446 70h0"></path>
<rect x="378" y="59" width="68" height="22"></rect>
<a xlink:href="reuse_source.svg"><text x="412" y="74">Source</text>
</a>
</g>
</g>
<path d="M904 70a10 10 0 0 0 10 -10v-10a10 10 0 0 1 10 -10"></path>
<path d="M262 40a10 10 0 0 1 10 10v49a10 10 0 0 0 10 10"></path>
<g>
<path d="M282 109h0"></path>
<path d="M888 109h16"></path>
<g>
<path d="M282 109h0"></path>
<path d="M438 109h0"></path>
<g class="terminal">
<path d="M282 109h0"></path>
<path d="M350 109h0"></path>
<rect x="282" y="98" width="68" height="22" rx="10" ry="10"></rect>
<text x="316" y="113">"FROM"</text>
</g>
<path d="M350 109h10"></path>
<path d="M360 109h10"></path>
<g class="non-terminal">
<path d="M370 109h0"></path>
<path d="M438 109h0"></path>
<rect x="370" y="98" width="68" height="22"></rect>
<a xlink:href="reuse_source.svg"><text x="404" y="113">Source</text>
</a>
</g>
</g>
<path d="M438 109h10"></path>
<path d="M448 109h10"></path>
<g>
<path d="M458 109h0"></path>
<path d="M690 109h0"></path>
<g class="terminal">
<path d="M458 109h0"></path>
<path d="M590 109h0"></path>
<rect x="458" y="98" width="132" height="22" rx="10" ry="10"></rect>
<text x="524" y="113">"TRANSPORTING"</text>
</g>
<path d="M590 109h10"></path>
<path d="M600 109h10"></path>
<g>
<path d="M610 109h0"></path>
<path d="M690 109h0"></path>
<path d="M610 109h10"></path>
<g class="non-terminal">
<path d="M620 109h0"></path>
<path d="M680 109h0"></path>
<rect x="620" y="98" width="60" height="22"></rect>
<a xlink:href="reuse_field.svg"><text x="650" y="113">Field</text>
</a>
</g>
<path d="M680 109h10"></path>
<path d="M620 109a10 10 0 0 0 -10 10v0a10 10 0 0 0 10 10"></path>
<g>
<path d="M620 129h60"></path>
</g>
<path d="M680 129a10 10 0 0 0 10 -10v0a10 10 0 0 0 -10 -10"></path>
</g>
</g>
<path d="M690 109h10"></path>
<g>
<path d="M700 109h0"></path>
<path d="M888 109h0"></path>
<path d="M700 109a10 10 0 0 0 10 -10v0a10 10 0 0 1 10 -10"></path>
<g>
<path d="M720 89h148"></path>
</g>
<path d="M868 89a10 10 0 0 1 10 10v0a10 10 0 0 0 10 10"></path>
<path d="M700 109h20"></path>
<g>
<path d="M720 109h0"></path>
<path d="M868 109h0"></path>
<g class="terminal">
<path d="M720 109h0"></path>
<path d="M796 109h0"></path>
<rect x="720" y="98" width="76" height="22" rx="10" ry="10"></rect>
<text x="758" y="113">"WHERE"</text>
</g>
<path d="M796 109h10"></path>
<path d="M806 109h10"></path>
<g class="non-terminal">
<path d="M816 109h0"></path>
<path d="M868 109h0"></path>
<rect x="816" y="98" width="52" height="22"></rect>
<a xlink:href="reuse_cond.svg"><text x="842" y="113">Cond</text>
</a>
</g>
</g>
<path d="M868 109h20"></path>
</g>
</g>
<path d="M904 109a10 10 0 0 0 10 -10v-49a10 10 0 0 1 10 -10"></path>
<path d="M262 40a10 10 0 0 1 10 10v97a10 10 0 0 0 10 10"></path>
<g>
<path d="M282 157h0"></path>
<path d="M904 157h0"></path>
<g>
<path d="M282 157h0"></path>
<path d="M438 157h0"></path>
<g class="terminal">
<path d="M282 157h0"></path>
<path d="M350 157h0"></path>
<rect x="282" y="146" width="68" height="22" rx="10" ry="10"></rect>
<text x="316" y="161">"FROM"</text>
</g>
<path d="M350 157h10"></path>
<path d="M360 157h10"></path>
<g class="non-terminal">
<path d="M370 157h0"></path>
<path d="M438 157h0"></path>
<rect x="370" y="146" width="68" height="22"></rect>
<a xlink:href="reuse_source.svg"><text x="404" y="161">Source</text>
</a>
</g>
</g>
<path d="M438 157h10"></path>
<path d="M448 157h10"></path>
<g>
<path d="M458 157h0"></path>
<path d="M622 157h0"></path>
<g class="terminal">
<path d="M458 157h0"></path>
<path d="M534 157h0"></path>
<rect x="458" y="146" width="76" height="22" rx="10" ry="10"></rect>
<text x="496" y="161">"INDEX"</text>
</g>
<path d="M534 157h10"></path>
<path d="M544 157h10"></path>
<g class="non-terminal">
<path d="M554 157h0"></path>
<path d="M622 157h0"></path>
<rect x="554" y="146" width="68" height="22"></rect>
<a xlink:href="reuse_source.svg"><text x="588" y="161">Source</text>
</a>
</g>
</g>
<path d="M622 157h10"></path>
<g>
<path d="M632 157h0"></path>
<path d="M904 157h0"></path>
<path d="M632 157a10 10 0 0 0 10 -10v0a10 10 0 0 1 10 -10"></path>
<g>
<path d="M652 137h232"></path>
</g>
<path d="M884 137a10 10 0 0 1 10 10v0a10 10 0 0 0 10 10"></path>
<path d="M632 157h20"></path>
<g>
<path d="M652 157h0"></path>
<path d="M884 157h0"></path>
<g class="terminal">
<path d="M652 157h0"></path>
<path d="M784 157h0"></path>
<rect x="652" y="146" width="132" height="22" rx="10" ry="10"></rect>
<text x="718" y="161">"TRANSPORTING"</text>
</g>
<path d="M784 157h10"></path>
<path d="M794 157h10"></path>
<g>
<path d="M804 157h0"></path>
<path d="M884 157h0"></path>
<path d="M804 157h10"></path>
<g class="non-terminal">
<path d="M814 157h0"></path>
<path d="M874 157h0"></path>
<rect x="814" y="146" width="60" height="22"></rect>
<a xlink:href="reuse_field.svg"><text x="844" y="161">Field</text>
</a>
</g>
<path d="M874 157h10"></path>
<path d="M814 157a10 10 0 0 0 -10 10v0a10 10 0 0 0 10 10"></path>
<g>
<path d="M814 177h60"></path>
</g>
<path d="M874 177a10 10 0 0 0 10 -10v0a10 10 0 0 0 -10 -10"></path>
</g>
</g>
<path d="M884 157h20"></path>
</g>
</g>
<path d="M904 157a10 10 0 0 0 10 -10v-97a10 10 0 0 1 10 -10"></path>
<path d="M262 40a10 10 0 0 1 10 10v145a10 10 0 0 0 10 10"></path>
<g>
<path d="M282 205h0"></path>
<path d="M904 205h0"></path>
<g>
<path d="M282 205h0"></path>
<path d="M446 205h0"></path>
<g class="terminal">
<path d="M282 205h0"></path>
<path d="M358 205h0"></path>
<rect x="282" y="194" width="76" height="22" rx="10" ry="10"></rect>
<text x="320" y="209">"INDEX"</text>
</g>
<path d="M358 205h10"></path>
<path d="M368 205h10"></path>
<g class="non-terminal">
<path d="M378 205h0"></path>
<path d="M446 205h0"></path>
<rect x="378" y="194" width="68" height="22"></rect>
<a xlink:href="reuse_source.svg"><text x="412" y="209">Source</text>
</a>
</g>
</g>
<path d="M446 205h10"></path>
<path d="M456 205h10"></path>
<g>
<path d="M466 205h0"></path>
<path d="M622 205h0"></path>
<g class="terminal">
<path d="M466 205h0"></path>
<path d="M534 205h0"></path>
<rect x="466" y="194" width="68" height="22" rx="10" ry="10"></rect>
<text x="500" y="209">"FROM"</text>
</g>
<path d="M534 205h10"></path>
<path d="M544 205h10"></path>
<g class="non-terminal">
<path d="M554 205h0"></path>
<path d="M622 205h0"></path>
<rect x="554" y="194" width="68" height="22"></rect>
<a xlink:href="reuse_source.svg"><text x="588" y="209">Source</text>
</a>
</g>
</g>
<path d="M622 205h10"></path>
<g>
<path d="M632 205h0"></path>
<path d="M904 205h0"></path>
<path d="M632 205a10 10 0 0 0 10 -10v0a10 10 0 0 1 10 -10"></path>
<g>
<path d="M652 185h232"></path>
</g>
<path d="M884 185a10 10 0 0 1 10 10v0a10 10 0 0 0 10 10"></path>
<path d="M632 205h20"></path>
<g>
<path d="M652 205h0"></path>
<path d="M884 205h0"></path>
<g class="terminal">
<path d="M652 205h0"></path>
<path d="M784 205h0"></path>
<rect x="652" y="194" width="132" height="22" rx="10" ry="10"></rect>
<text x="718" y="209">"TRANSPORTING"</text>
</g>
<path d="M784 205h10"></path>
<path d="M794 205h10"></path>
<g>
<path d="M804 205h0"></path>
<path d="M884 205h0"></path>
<path d="M804 205h10"></path>
<g class="non-terminal">
<path d="M814 205h0"></path>
<path d="M874 205h0"></path>
<rect x="814" y="194" width="60" height="22"></rect>
<a xlink:href="reuse_field.svg"><text x="844" y="209">Field</text>
</a>
</g>
<path d="M874 205h10"></path>
<path d="M814 205a10 10 0 0 0 -10 10v0a10 10 0 0 0 10 10"></path>
<g>
<path d="M814 225h60"></path>
</g>
<path d="M874 225a10 10 0 0 0 10 -10v0a10 10 0 0 0 -10 -10"></path>
</g>
</g>
<path d="M884 205h20"></path>
</g>
</g>
<path d="M904 205a10 10 0 0 0 10 -10v-145a10 10 0 0 1 10 -10"></path>
</g>
<path d="M924 40h20"></path>
</g>
</g>
<path d="M944 40h20"></path>
<path d="M144 40a10 10 0 0 1 10 10v184a10 10 0 0 0 10 10"></path>
<g>
<path d="M164 244h0"></path>
<path d="M504 244h440"></path>
<g class="terminal">
<path d="M164 244h0"></path>
<path d="M240 244h0"></path>
<rect x="164" y="233" width="76" height="22" rx="10" ry="10"></rect>
<text x="202" y="248">"TABLE"</text>
</g>
<path d="M240 244h10"></path>
<path d="M250 244h10"></path>
<g class="non-terminal">
<path d="M260 244h0"></path>
<path d="M328 244h0"></path>
<rect x="260" y="233" width="68" height="22"></rect>
<a xlink:href="reuse_target.svg"><text x="294" y="248">Target</text>
</a>
</g>
<path d="M328 244h10"></path>
<path d="M338 244h10"></path>
<g>
<path d="M348 244h0"></path>
<path d="M504 244h0"></path>
<g class="terminal">
<path d="M348 244h0"></path>
<path d="M416 244h0"></path>
<rect x="348" y="233" width="68" height="22" rx="10" ry="10"></rect>
<text x="382" y="248">"FROM"</text>
</g>
<path d="M416 244h10"></path>
<path d="M426 244h10"></path>
<g class="non-terminal">
<path d="M436 244h0"></path>
<path d="M504 244h0"></path>
<rect x="436" y="233" width="68" height="22"></rect>
<a xlink:href="reuse_source.svg"><text x="470" y="248">Source</text>
</a>
</g>
</g>
</g>
<path d="M944 244a10 10 0 0 0 10 -10v-184a10 10 0 0 1 10 -10"></path>
</g>
</g>
<path d="M964 40h10"></path>
<path d="M 974 40 h 20 m -10 -10 v 20 m 10 -20 v 20"></path>
</g>
</svg>
