<svg xmlns="http://www.w3.org/2000/svg" xmlns:xlink="http://www.w3.org/1999/xlink" class="railroad-diagram" width="1150" height="79" viewBox="0 0 1150 79">
<defs>
<style type="text/css"><![CDATA[
path {
stroke-width: 3;
stroke: black;
fill: rgba(0,0,0,0);
}
text {
font: bold 14px monospace;
text-anchor: middle;
}
text.diagram-text {
font-size: 12px;
}
a {
fill: blue;
}
text.diagram-arrow {
font-size: 16px;
}
text.label {
text-anchor: start;
}
text.comment {
font: italic 12px monospace;
}
rect {
stroke-width: 3;
stroke: black;
fill: #BCBCBC;
}
path.diagram-text {
stroke-width: 3;
stroke: black;
fill: #BCBCBC;
cursor: help;
}
]]></style>
</defs>
<g transform="translate(.5 .5)">
<path d="M 20 38 v 20 m 10 -20 v 20 m -10 -10 h 20.5"></path>
<path d="M40 48h10"></path>
<g>
<path d="M50 48h0"></path>
<path d="M1100 48h0"></path>
<g class="terminal">
<path d="M50 48h0"></path>
<path d="M134 48h0"></path>
<rect x="50" y="37" width="84" height="22" rx="10" ry="10"></rect>
<text x="92" y="52">"MODIFY"</text>
</g>
<path d="M134 48h10"></path>
<path d="M144 48h10"></path>
<g class="non-terminal">
<path d="M154 48h0"></path>
<path d="M222 48h0"></path>
<rect x="154" y="37" width="68" height="22"></rect>
<a xlink:href="reuse_target.svg"><text x="188" y="52">target</text>
</a>
</g>
<path d="M222 48h10"></path>
<g>
<path d="M232 48h0"></path>
<path d="M1100 48h0"></path>
<path d="M232 48a10 10 0 0 0 10 -10v-8a10 10 0 0 1 10 -10"></path>
<g>
<path d="M252 20h828"></path>
</g>
<path d="M1080 20a10 10 0 0 1 10 10v8a10 10 0 0 0 10 10"></path>
<path d="M232 48h20"></path>
<g>
<path d="M252 48h0"></path>
<path d="M1080 48h0"></path>
<g>
<path d="M252 48h0"></path>
<path d="M448 48h0"></path>
<path d="M252 48a10 10 0 0 0 10 -10v0a10 10 0 0 1 10 -10"></path>
<g>
<path d="M272 28h156"></path>
</g>
<path d="M428 28a10 10 0 0 1 10 10v0a10 10 0 0 0 10 10"></path>
<path d="M252 48h20"></path>
<g>
<path d="M272 48h0"></path>
<path d="M428 48h0"></path>
<g class="terminal">
<path d="M272 48h0"></path>
<path d="M340 48h0"></path>
<rect x="272" y="37" width="68" height="22" rx="10" ry="10"></rect>
<text x="306" y="52">"FROM"</text>
</g>
<path d="M340 48h10"></path>
<path d="M350 48h10"></path>
<g class="non-terminal">
<path d="M360 48h0"></path>
<path d="M428 48h0"></path>
<rect x="360" y="37" width="68" height="22"></rect>
<a xlink:href="reuse_source.svg"><text x="394" y="52">source</text>
</a>
</g>
</g>
<path d="M428 48h20"></path>
</g>
<path d="M448 48h10"></path>
<g>
<path d="M458 48h0"></path>
<path d="M622 48h0"></path>
<g class="terminal">
<path d="M458 48h0"></path>
<path d="M534 48h0"></path>
<rect x="458" y="37" width="76" height="22" rx="10" ry="10"></rect>
<text x="496" y="52">"INDEX"</text>
</g>
<path d="M534 48h10"></path>
<path d="M544 48h10"></path>
<g class="non-terminal">
<path d="M554 48h0"></path>
<path d="M622 48h0"></path>
<rect x="554" y="37" width="68" height="22"></rect>
<a xlink:href="reuse_source.svg"><text x="588" y="52">source</text>
</a>
</g>
</g>
<path d="M622 48h10"></path>
<g>
<path d="M632 48h0"></path>
<path d="M828 48h0"></path>
<path d="M632 48a10 10 0 0 0 10 -10v0a10 10 0 0 1 10 -10"></path>
<g>
<path d="M652 28h156"></path>
</g>
<path d="M808 28a10 10 0 0 1 10 10v0a10 10 0 0 0 10 10"></path>
<path d="M632 48h20"></path>
<g>
<path d="M652 48h0"></path>
<path d="M808 48h0"></path>
<g class="terminal">
<path d="M652 48h0"></path>
<path d="M720 48h0"></path>
<rect x="652" y="37" width="68" height="22" rx="10" ry="10"></rect>
<text x="686" y="52">"FROM"</text>
</g>
<path d="M720 48h10"></path>
<path d="M730 48h10"></path>
<g class="non-terminal">
<path d="M740 48h0"></path>
<path d="M808 48h0"></path>
<rect x="740" y="37" width="68" height="22"></rect>
<a xlink:href="reuse_source.svg"><text x="774" y="52">source</text>
</a>
</g>
</g>
<path d="M808 48h20"></path>
</g>
<g>
<path d="M828 48h0"></path>
<path d="M1080 48h0"></path>
<path d="M828 48a10 10 0 0 0 10 -10v0a10 10 0 0 1 10 -10"></path>
<g>
<path d="M848 28h212"></path>
</g>
<path d="M1060 28a10 10 0 0 1 10 10v0a10 10 0 0 0 10 10"></path>
<path d="M828 48h20"></path>
<g>
<path d="M848 48h0"></path>
<path d="M1060 48h0"></path>
<g class="terminal">
<path d="M848 48h0"></path>
<path d="M980 48h0"></path>
<rect x="848" y="37" width="132" height="22" rx="10" ry="10"></rect>
<text x="914" y="52">"TRANSPORTING"</text>
</g>
<path d="M980 48h10"></path>
<path d="M990 48h10"></path>
<g class="non-terminal">
<path d="M1000 48h0"></path>
<path d="M1060 48h0"></path>
<rect x="1000" y="37" width="60" height="22"></rect>
<a xlink:href="reuse_field.svg"><text x="1030" y="52">field</text>
</a>
</g>
</g>
<path d="M1060 48h20"></path>
</g>
</g>
<path d="M1080 48h20"></path>
</g>
</g>
<path d="M1100 48h10"></path>
<path d="M 1110 48 h 20 m -10 -10 v 20 m 10 -20 v 20"></path>
</g>
</svg>
