<svg xmlns="http://www.w3.org/2000/svg" xmlns:xlink="http://www.w3.org/1999/xlink" class="railroad-diagram" width="994" height="248" viewBox="0 0 994 248">
<defs>
<style type="text/css"><![CDATA[
path {
stroke-width: 3;
stroke: black;
fill: rgba(0,0,0,0);
}
text {
font: bold 14px monospace;
text-anchor: middle;
}
text.diagram-text {
font-size: 12px;
}
a {
fill: blue;
}
text.diagram-arrow {
font-size: 16px;
}
text.label {
text-anchor: start;
}
text.comment {
font: italic 12px monospace;
}
rect {
stroke-width: 3;
stroke: black;
fill: #BCBCBC;
}
path.diagram-text {
stroke-width: 3;
stroke: black;
fill: #BCBCBC;
cursor: help;
}
]]></style>
</defs>
<g transform="translate(.5 .5)">
<path d="M 20 30 v 20 m 10 -20 v 20 m -10 -10 h 20.5"></path>
<path d="M40 40h10"></path>
<g>
<path d="M50 40h0"></path>
<path d="M944 40h0"></path>
<g class="terminal">
<path d="M50 40h0"></path>
<path d="M134 40h0"></path>
<rect x="50" y="29" width="84" height="22" rx="10" ry="10"></rect>
<text x="92" y="44">"MODIFY"</text>
</g>
<path d="M134 40h10"></path>
<g>
<path d="M144 40h0"></path>
<path d="M944 40h0"></path>
<path d="M144 40h20"></path>
<g>
<path d="M164 40h0"></path>
<path d="M924 40h0"></path>
<g class="non-terminal">
<path d="M164 40h0"></path>
<path d="M232 40h0"></path>
<rect x="164" y="29" width="68" height="22"></rect>
<a xlink:href="reuse_target.svg"><text x="198" y="44">Target</text>
</a>
</g>
<path d="M232 40h10"></path>
<g>
<path d="M242 40h0"></path>
<path d="M924 40h0"></path>
<path d="M242 40a10 10 0 0 0 10 -10v0a10 10 0 0 1 10 -10"></path>
<g>
<path d="M262 20h642"></path>
</g>
<path d="M904 20a10 10 0 0 1 10 10v0a10 10 0 0 0 10 10"></path>
<path d="M242 40h20"></path>
<g>
<path d="M262 40h0"></path>
<path d="M904 40h0"></path>
<path d="M262 40h20"></path>
<g>
<path d="M282 40h0"></path>
<path d="M622 40h262"></path>
<g>
<path d="M282 40h0"></path>
<path d="M446 40h0"></path>
<g class="terminal">
<path d="M282 40h0"></path>
<path d="M358 40h0"></path>
<rect x="282" y="29" width="76" height="22" rx="10" ry="10"></rect>
<text x="320" y="44">"INDEX"</text>
</g>
<path d="M358 40h10"></path>
<path d="M368 40h10"></path>
<g class="non-terminal">
<path d="M378 40h0"></path>
<path d="M446 40h0"></path>
<rect x="378" y="29" width="68" height="22"></rect>
<a xlink:href="reuse_source.svg"><text x="412" y="44">Source</text>
</a>
</g>
</g>
<path d="M446 40h10"></path>
<path d="M456 40h10"></path>
<g>
<path d="M466 40h0"></path>
<path d="M622 40h0"></path>
<g class="terminal">
<path d="M466 40h0"></path>
<path d="M534 40h0"></path>
<rect x="466" y="29" width="68" height="22" rx="10" ry="10"></rect>
<text x="500" y="44">"FROM"</text>
</g>
<path d="M534 40h10"></path>
<path d="M544 40h10"></path>
<g class="non-terminal">
<path d="M554 40h0"></path>
<path d="M622 40h0"></path>
<rect x="554" y="29" width="68" height="22"></rect>
<a xlink:href="reuse_source.svg"><text x="588" y="44">Source</text>
</a>
</g>
</g>
</g>
<path d="M884 40h20"></path>
<path d="M262 40a10 10 0 0 1 10 10v10a10 10 0 0 0 10 10"></path>
<g>
<path d="M282 70h0"></path>
<path d="M446 70h438"></path>
<g class="terminal">
<path d="M282 70h0"></path>
<path d="M358 70h0"></path>
<rect x="282" y="59" width="76" height="22" rx="10" ry="10"></rect>
<text x="320" y="74">"INDEX"</text>
</g>
<path d="M358 70h10"></path>
<path d="M368 70h10"></path>
<g class="non-terminal">
<path d="M378 70h0"></path>
<path d="M446 70h0"></path>
<rect x="378" y="59" width="68" height="22"></rect>
<a xlink:href="reuse_source.svg"><text x="412" y="74">Source</text>
</a>
</g>
</g>
<path d="M884 70a10 10 0 0 0 10 -10v-10a10 10 0 0 1 10 -10"></path>
<path d="M262 40a10 10 0 0 1 10 10v49a10 10 0 0 0 10 10"></path>
<g>
<path d="M282 109h0"></path>
<path d="M868 109h16"></path>
<g>
<path d="M282 109h0"></path>
<path d="M438 109h0"></path>
<g class="terminal">
<path d="M282 109h0"></path>
<path d="M350 109h0"></path>
<rect x="282" y="98" width="68" height="22" rx="10" ry="10"></rect>
<text x="316" y="113">"FROM"</text>
</g>
<path d="M350 109h10"></path>
<path d="M360 109h10"></path>
<g class="non-terminal">
<path d="M370 109h0"></path>
<path d="M438 109h0"></path>
<rect x="370" y="98" width="68" height="22"></rect>
<a xlink:href="reuse_source.svg"><text x="404" y="113">Source</text>
</a>
</g>
</g>
<path d="M438 109h10"></path>
<path d="M448 109h10"></path>
<g>
<path d="M458 109h0"></path>
<path d="M670 109h0"></path>
<g class="terminal">
<path d="M458 109h0"></path>
<path d="M590 109h0"></path>
<rect x="458" y="98" width="132" height="22" rx="10" ry="10"></rect>
<text x="524" y="113">"TRANSPORTING"</text>
</g>
<path d="M590 109h10"></path>
<path d="M600 109h10"></path>
<g class="non-terminal">
<path d="M610 109h0"></path>
<path d="M670 109h0"></path>
<rect x="610" y="98" width="60" height="22"></rect>
<a xlink:href="reuse_field.svg"><text x="640" y="113">Field</text>
</a>
</g>
</g>
<path d="M670 109h10"></path>
<g>
<path d="M680 109h0"></path>
<path d="M868 109h0"></path>
<path d="M680 109a10 10 0 0 0 10 -10v0a10 10 0 0 1 10 -10"></path>
<g>
<path d="M700 89h148"></path>
</g>
<path d="M848 89a10 10 0 0 1 10 10v0a10 10 0 0 0 10 10"></path>
<path d="M680 109h20"></path>
<g>
<path d="M700 109h0"></path>
<path d="M848 109h0"></path>
<g class="terminal">
<path d="M700 109h0"></path>
<path d="M776 109h0"></path>
<rect x="700" y="98" width="76" height="22" rx="10" ry="10"></rect>
<text x="738" y="113">"WHERE"</text>
</g>
<path d="M776 109h10"></path>
<path d="M786 109h10"></path>
<g class="non-terminal">
<path d="M796 109h0"></path>
<path d="M848 109h0"></path>
<rect x="796" y="98" width="52" height="22"></rect>
<a xlink:href="reuse_cond.svg"><text x="822" y="113">Cond</text>
</a>
</g>
</g>
<path d="M848 109h20"></path>
</g>
</g>
<path d="M884 109a10 10 0 0 0 10 -10v-49a10 10 0 0 1 10 -10"></path>
<path d="M262 40a10 10 0 0 1 10 10v88a10 10 0 0 0 10 10"></path>
<g>
<path d="M282 148h0"></path>
<path d="M884 148h0"></path>
<g>
<path d="M282 148h0"></path>
<path d="M438 148h0"></path>
<g class="terminal">
<path d="M282 148h0"></path>
<path d="M350 148h0"></path>
<rect x="282" y="137" width="68" height="22" rx="10" ry="10"></rect>
<text x="316" y="152">"FROM"</text>
</g>
<path d="M350 148h10"></path>
<path d="M360 148h10"></path>
<g class="non-terminal">
<path d="M370 148h0"></path>
<path d="M438 148h0"></path>
<rect x="370" y="137" width="68" height="22"></rect>
<a xlink:href="reuse_source.svg"><text x="404" y="152">Source</text>
</a>
</g>
</g>
<path d="M438 148h10"></path>
<path d="M448 148h10"></path>
<g>
<path d="M458 148h0"></path>
<path d="M622 148h0"></path>
<g class="terminal">
<path d="M458 148h0"></path>
<path d="M534 148h0"></path>
<rect x="458" y="137" width="76" height="22" rx="10" ry="10"></rect>
<text x="496" y="152">"INDEX"</text>
</g>
<path d="M534 148h10"></path>
<path d="M544 148h10"></path>
<g class="non-terminal">
<path d="M554 148h0"></path>
<path d="M622 148h0"></path>
<rect x="554" y="137" width="68" height="22"></rect>
<a xlink:href="reuse_source.svg"><text x="588" y="152">Source</text>
</a>
</g>
</g>
<path d="M622 148h10"></path>
<g>
<path d="M632 148h0"></path>
<path d="M884 148h0"></path>
<path d="M632 148a10 10 0 0 0 10 -10v0a10 10 0 0 1 10 -10"></path>
<g>
<path d="M652 128h212"></path>
</g>
<path d="M864 128a10 10 0 0 1 10 10v0a10 10 0 0 0 10 10"></path>
<path d="M632 148h20"></path>
<g>
<path d="M652 148h0"></path>
<path d="M864 148h0"></path>
<g class="terminal">
<path d="M652 148h0"></path>
<path d="M784 148h0"></path>
<rect x="652" y="137" width="132" height="22" rx="10" ry="10"></rect>
<text x="718" y="152">"TRANSPORTING"</text>
</g>
<path d="M784 148h10"></path>
<path d="M794 148h10"></path>
<g class="non-terminal">
<path d="M804 148h0"></path>
<path d="M864 148h0"></path>
<rect x="804" y="137" width="60" height="22"></rect>
<a xlink:href="reuse_field.svg"><text x="834" y="152">Field</text>
</a>
</g>
</g>
<path d="M864 148h20"></path>
</g>
</g>
<path d="M884 148a10 10 0 0 0 10 -10v-88a10 10 0 0 1 10 -10"></path>
<path d="M262 40a10 10 0 0 1 10 10v127a10 10 0 0 0 10 10"></path>
<g>
<path d="M282 187h0"></path>
<path d="M884 187h0"></path>
<g>
<path d="M282 187h0"></path>
<path d="M446 187h0"></path>
<g class="terminal">
<path d="M282 187h0"></path>
<path d="M358 187h0"></path>
<rect x="282" y="176" width="76" height="22" rx="10" ry="10"></rect>
<text x="320" y="191">"INDEX"</text>
</g>
<path d="M358 187h10"></path>
<path d="M368 187h10"></path>
<g class="non-terminal">
<path d="M378 187h0"></path>
<path d="M446 187h0"></path>
<rect x="378" y="176" width="68" height="22"></rect>
<a xlink:href="reuse_source.svg"><text x="412" y="191">Source</text>
</a>
</g>
</g>
<path d="M446 187h10"></path>
<path d="M456 187h10"></path>
<g>
<path d="M466 187h0"></path>
<path d="M622 187h0"></path>
<g class="terminal">
<path d="M466 187h0"></path>
<path d="M534 187h0"></path>
<rect x="466" y="176" width="68" height="22" rx="10" ry="10"></rect>
<text x="500" y="191">"FROM"</text>
</g>
<path d="M534 187h10"></path>
<path d="M544 187h10"></path>
<g class="non-terminal">
<path d="M554 187h0"></path>
<path d="M622 187h0"></path>
<rect x="554" y="176" width="68" height="22"></rect>
<a xlink:href="reuse_source.svg"><text x="588" y="191">Source</text>
</a>
</g>
</g>
<path d="M622 187h10"></path>
<g>
<path d="M632 187h0"></path>
<path d="M884 187h0"></path>
<path d="M632 187a10 10 0 0 0 10 -10v0a10 10 0 0 1 10 -10"></path>
<g>
<path d="M652 167h212"></path>
</g>
<path d="M864 167a10 10 0 0 1 10 10v0a10 10 0 0 0 10 10"></path>
<path d="M632 187h20"></path>
<g>
<path d="M652 187h0"></path>
<path d="M864 187h0"></path>
<g class="terminal">
<path d="M652 187h0"></path>
<path d="M784 187h0"></path>
<rect x="652" y="176" width="132" height="22" rx="10" ry="10"></rect>
<text x="718" y="191">"TRANSPORTING"</text>
</g>
<path d="M784 187h10"></path>
<path d="M794 187h10"></path>
<g class="non-terminal">
<path d="M804 187h0"></path>
<path d="M864 187h0"></path>
<rect x="804" y="176" width="60" height="22"></rect>
<a xlink:href="reuse_field.svg"><text x="834" y="191">Field</text>
</a>
</g>
</g>
<path d="M864 187h20"></path>
</g>
</g>
<path d="M884 187a10 10 0 0 0 10 -10v-127a10 10 0 0 1 10 -10"></path>
</g>
<path d="M904 40h20"></path>
</g>
</g>
<path d="M924 40h20"></path>
<path d="M144 40a10 10 0 0 1 10 10v157a10 10 0 0 0 10 10"></path>
<g>
<path d="M164 217h0"></path>
<path d="M504 217h420"></path>
<g class="terminal">
<path d="M164 217h0"></path>
<path d="M240 217h0"></path>
<rect x="164" y="206" width="76" height="22" rx="10" ry="10"></rect>
<text x="202" y="221">"TABLE"</text>
</g>
<path d="M240 217h10"></path>
<path d="M250 217h10"></path>
<g class="non-terminal">
<path d="M260 217h0"></path>
<path d="M328 217h0"></path>
<rect x="260" y="206" width="68" height="22"></rect>
<a xlink:href="reuse_target.svg"><text x="294" y="221">Target</text>
</a>
</g>
<path d="M328 217h10"></path>
<path d="M338 217h10"></path>
<g>
<path d="M348 217h0"></path>
<path d="M504 217h0"></path>
<g class="terminal">
<path d="M348 217h0"></path>
<path d="M416 217h0"></path>
<rect x="348" y="206" width="68" height="22" rx="10" ry="10"></rect>
<text x="382" y="221">"FROM"</text>
</g>
<path d="M416 217h10"></path>
<path d="M426 217h10"></path>
<g class="non-terminal">
<path d="M436 217h0"></path>
<path d="M504 217h0"></path>
<rect x="436" y="206" width="68" height="22"></rect>
<a xlink:href="reuse_source.svg"><text x="470" y="221">Source</text>
</a>
</g>
</g>
</g>
<path d="M924 217a10 10 0 0 0 10 -10v-157a10 10 0 0 1 10 -10"></path>
</g>
</g>
<path d="M944 40h10"></path>
<path d="M 954 40 h 20 m -10 -10 v 20 m 10 -20 v 20"></path>
</g>
</svg>
