<svg xmlns="http://www.w3.org/2000/svg" xmlns:xlink="http://www.w3.org/1999/xlink" class="railroad-diagram" width="720" height="62" viewBox="0 0 720 62">
<defs>
<style type="text/css"><![CDATA[
path {
stroke-width: 3;
stroke: black;
fill: rgba(0,0,0,0);
}
text {
font: bold 14px monospace;
text-anchor: middle;
}
text.diagram-text {
font-size: 12px;
}
a {
fill: blue;
}
text.diagram-arrow {
font-size: 16px;
}
text.label {
text-anchor: start;
}
text.comment {
font: italic 12px monospace;
}
rect {
stroke-width: 3;
stroke: black;
fill: #BCBCBC;
}
path.diagram-text {
stroke-width: 3;
stroke: black;
fill: #BCBCBC;
cursor: help;
}
]]></style>
</defs>
<g transform="translate(.5 .5)">
<path d="M 20 21 v 20 m 10 -20 v 20 m -10 -10 h 20.5"></path>
<path d="M40 31h10"></path>
<g>
<path d="M50 31h0"></path>
<path d="M670 31h0"></path>
<g class="terminal">
<path d="M50 31h0"></path>
<path d="M174 31h0"></path>
<rect x="50" y="20" width="124" height="22" rx="10" ry="10"></rect>
<text x="112" y="35">"MODIFY LINE"</text>
</g>
<path d="M174 31h10"></path>
<path d="M184 31h10"></path>
<g class="non-terminal">
<path d="M194 31h0"></path>
<path d="M262 31h0"></path>
<rect x="194" y="20" width="68" height="22"></rect>
<a xlink:href="reuse_source.svg"><text x="228" y="35">Source</text>
</a>
</g>
<path d="M262 31h10"></path>
<path d="M272 31h10"></path>
<g class="terminal">
<path d="M282 31h0"></path>
<path d="M406 31h0"></path>
<rect x="282" y="20" width="124" height="22" rx="10" ry="10"></rect>
<text x="344" y="35">"FIELD VALUE"</text>
</g>
<path d="M406 31h10"></path>
<path d="M416 31h10"></path>
<g class="non-terminal">
<path d="M426 31h0"></path>
<path d="M494 31h0"></path>
<rect x="426" y="20" width="68" height="22"></rect>
<a xlink:href="reuse_source.svg"><text x="460" y="35">Source</text>
</a>
</g>
<path d="M494 31h10"></path>
<path d="M504 31h10"></path>
<g class="terminal">
<path d="M514 31h0"></path>
<path d="M582 31h0"></path>
<rect x="514" y="20" width="68" height="22" rx="10" ry="10"></rect>
<text x="548" y="35">"FROM"</text>
</g>
<path d="M582 31h10"></path>
<path d="M592 31h10"></path>
<g class="non-terminal">
<path d="M602 31h0"></path>
<path d="M670 31h0"></path>
<rect x="602" y="20" width="68" height="22"></rect>
<a xlink:href="reuse_source.svg"><text x="636" y="35">Source</text>
</a>
</g>
</g>
<path d="M670 31h10"></path>
<path d="M 680 31 h 20 m -10 -10 v 20 m 10 -20 v 20"></path>
</g>
</svg>
