<svg xmlns="http://www.w3.org/2000/svg" xmlns:xlink="http://www.w3.org/1999/xlink" class="railroad-diagram" width="648" height="101" viewBox="0 0 648 101">
<defs>
<style type="text/css"><![CDATA[
path {
stroke-width: 3;
stroke: black;
fill: rgba(0,0,0,0);
}
text {
font: bold 14px monospace;
text-anchor: middle;
}
text.diagram-text {
font-size: 12px;
}
a {
fill: blue;
}
text.diagram-arrow {
font-size: 16px;
}
text.label {
text-anchor: start;
}
text.comment {
font: italic 12px monospace;
}
rect {
stroke-width: 3;
stroke: black;
fill: #BCBCBC;
}
path.diagram-text {
stroke-width: 3;
stroke: black;
fill: #BCBCBC;
cursor: help;
}
]]></style>
</defs>
<g transform="translate(.5 .5)">
<path d="M 20 30 v 20 m 10 -20 v 20 m -10 -10 h 20.5"></path>
<path d="M40 40h10"></path>
<g>
<path d="M50 40h0"></path>
<path d="M598 40h0"></path>
<g class="terminal">
<path d="M50 40h0"></path>
<path d="M134 40h0"></path>
<rect x="50" y="29" width="84" height="22" rx="10" ry="10"></rect>
<text x="92" y="44">"MODIFY"</text>
</g>
<path d="M134 40h10"></path>
<g>
<path d="M144 40h0"></path>
<path d="M316 40h0"></path>
<path d="M144 40h20"></path>
<g class="non-terminal">
<path d="M164 40h0"></path>
<path d="M296 40h0"></path>
<rect x="164" y="29" width="132" height="22"></rect>
<a xlink:href="reuse_database_table.svg"><text x="230" y="44">database&#95;table</text>
</a>
</g>
<path d="M296 40h20"></path>
<path d="M144 40a10 10 0 0 1 10 10v10a10 10 0 0 0 10 10"></path>
<g class="non-terminal">
<path d="M164 70h0"></path>
<path d="M240 70h56"></path>
<rect x="164" y="59" width="76" height="22"></rect>
<a xlink:href="reuse_dynamic.svg"><text x="202" y="74">dynamic</text>
</a>
</g>
<path d="M296 70a10 10 0 0 0 10 -10v-10a10 10 0 0 1 10 -10"></path>
</g>
<path d="M316 40h10"></path>
<g>
<path d="M326 40h0"></path>
<path d="M598 40h0"></path>
<g class="terminal">
<path d="M326 40h0"></path>
<path d="M394 40h0"></path>
<rect x="326" y="29" width="68" height="22" rx="10" ry="10"></rect>
<text x="360" y="44">"FROM"</text>
</g>
<path d="M394 40h10"></path>
<g>
<path d="M404 40h0"></path>
<path d="M520 40h0"></path>
<path d="M404 40a10 10 0 0 0 10 -10v0a10 10 0 0 1 10 -10"></path>
<g>
<path d="M424 20h76"></path>
</g>
<path d="M500 20a10 10 0 0 1 10 10v0a10 10 0 0 0 10 10"></path>
<path d="M404 40h20"></path>
<g class="terminal">
<path d="M424 40h0"></path>
<path d="M500 40h0"></path>
<rect x="424" y="29" width="76" height="22" rx="10" ry="10"></rect>
<text x="462" y="44">"TABLE"</text>
</g>
<path d="M500 40h20"></path>
</g>
<path d="M520 40h10"></path>
<g class="non-terminal">
<path d="M530 40h0"></path>
<path d="M598 40h0"></path>
<rect x="530" y="29" width="68" height="22"></rect>
<a xlink:href="reuse_source.svg"><text x="564" y="44">source</text>
</a>
</g>
</g>
</g>
<path d="M598 40h10"></path>
<path d="M 608 40 h 20 m -10 -10 v 20 m 10 -20 v 20"></path>
</g>
</svg>
