<svg xmlns="http://www.w3.org/2000/svg" xmlns:xlink="http://www.w3.org/1999/xlink" class="railroad-diagram" width="622" height="109" viewBox="0 0 622 109">
<defs>
<style type="text/css"><![CDATA[
path {
stroke-width: 3;
stroke: black;
fill: rgba(0,0,0,0);
}
text {
font: bold 14px monospace;
text-anchor: middle;
}
text.diagram-text {
font-size: 12px;
}
a {
fill: blue;
}
text.diagram-arrow {
font-size: 16px;
}
text.label {
text-anchor: start;
}
text.comment {
font: italic 12px monospace;
}
rect {
stroke-width: 3;
stroke: black;
fill: #BCBCBC;
}
path.diagram-text {
stroke-width: 3;
stroke: black;
fill: #BCBCBC;
cursor: help;
}
]]></style>
</defs>
<g transform="translate(.5 .5)">
<path d="M 20 38 v 20 m 10 -20 v 20 m -10 -10 h 20.5"></path>
<path d="M40 48h10"></path>
<g>
<path d="M50 48h0"></path>
<path d="M572 48h0"></path>
<g class="terminal">
<path d="M50 48h0"></path>
<path d="M134 48h0"></path>
<rect x="50" y="37" width="84" height="22" rx="10" ry="10"></rect>
<text x="92" y="52">"MODIFY"</text>
</g>
<path d="M134 48h10"></path>
<g>
<path d="M144 48h0"></path>
<path d="M260 48h0"></path>
<path d="M144 48h20"></path>
<g class="non-terminal">
<path d="M164 48h0"></path>
<path d="M224 48h16"></path>
<rect x="164" y="37" width="60" height="22"></rect>
<a xlink:href="reuse_field.svg"><text x="194" y="52">field</text>
</a>
</g>
<path d="M240 48h20"></path>
<path d="M144 48a10 10 0 0 1 10 10v10a10 10 0 0 0 10 10"></path>
<g class="non-terminal">
<path d="M164 78h0"></path>
<path d="M240 78h0"></path>
<rect x="164" y="67" width="76" height="22"></rect>
<a xlink:href="reuse_dynamic.svg"><text x="202" y="82">dynamic</text>
</a>
</g>
<path d="M240 78a10 10 0 0 0 10 -10v-10a10 10 0 0 1 10 -10"></path>
</g>
<g>
<path d="M260 48h0"></path>
<path d="M572 48h0"></path>
<path d="M260 48a10 10 0 0 0 10 -10v-8a10 10 0 0 1 10 -10"></path>
<g>
<path d="M280 20h272"></path>
</g>
<path d="M552 20a10 10 0 0 1 10 10v8a10 10 0 0 0 10 10"></path>
<path d="M260 48h20"></path>
<g>
<path d="M280 48h0"></path>
<path d="M552 48h0"></path>
<g class="terminal">
<path d="M280 48h0"></path>
<path d="M348 48h0"></path>
<rect x="280" y="37" width="68" height="22" rx="10" ry="10"></rect>
<text x="314" y="52">"FROM"</text>
</g>
<path d="M348 48h10"></path>
<g>
<path d="M358 48h0"></path>
<path d="M474 48h0"></path>
<path d="M358 48a10 10 0 0 0 10 -10v0a10 10 0 0 1 10 -10"></path>
<g>
<path d="M378 28h76"></path>
</g>
<path d="M454 28a10 10 0 0 1 10 10v0a10 10 0 0 0 10 10"></path>
<path d="M358 48h20"></path>
<g class="terminal">
<path d="M378 48h0"></path>
<path d="M454 48h0"></path>
<rect x="378" y="37" width="76" height="22" rx="10" ry="10"></rect>
<text x="416" y="52">"TABLE"</text>
</g>
<path d="M454 48h20"></path>
</g>
<path d="M474 48h10"></path>
<g class="non-terminal">
<path d="M484 48h0"></path>
<path d="M552 48h0"></path>
<rect x="484" y="37" width="68" height="22"></rect>
<a xlink:href="reuse_source.svg"><text x="518" y="52">source</text>
</a>
</g>
</g>
<path d="M552 48h20"></path>
</g>
</g>
<path d="M572 48h10"></path>
<path d="M 582 48 h 20 m -10 -10 v 20 m 10 -20 v 20"></path>
</g>
</svg>
