<svg xmlns="http://www.w3.org/2000/svg" xmlns:xlink="http://www.w3.org/1999/xlink" class="railroad-diagram" width="1062" height="101" viewBox="0 0 1062 101">
<defs>
<style type="text/css"><![CDATA[
path {
stroke-width: 3;
stroke: black;
fill: rgba(0,0,0,0);
}
text {
font: bold 14px monospace;
text-anchor: middle;
}
text.diagram-text {
font-size: 12px;
}
a {
fill: blue;
}
text.diagram-arrow {
font-size: 16px;
}
text.label {
text-anchor: start;
}
text.comment {
font: italic 12px monospace;
}
rect {
stroke-width: 3;
stroke: black;
fill: #BCBCBC;
}
path.diagram-text {
stroke-width: 3;
stroke: black;
fill: #BCBCBC;
cursor: help;
}
]]></style>
</defs>
<g transform="translate(.5 .5)">
<path d="M 20 30 v 20 m 10 -20 v 20 m -10 -10 h 20.5"></path>
<path d="M40 40h10"></path>
<g>
<path d="M50 40h0"></path>
<path d="M1012 40h0"></path>
<g class="terminal">
<path d="M50 40h0"></path>
<path d="M134 40h0"></path>
<rect x="50" y="29" width="84" height="22" rx="10" ry="10"></rect>
<text x="92" y="44">"MODIFY"</text>
</g>
<path d="M134 40h10"></path>
<g>
<path d="M144 40h0"></path>
<path d="M340 40h0"></path>
<path d="M144 40h20"></path>
<g class="terminal">
<path d="M164 40h0"></path>
<path d="M296 40h24"></path>
<rect x="164" y="29" width="132" height="22" rx="10" ry="10"></rect>
<text x="230" y="44">"CURRENT LINE"</text>
</g>
<path d="M320 40h20"></path>
<path d="M144 40a10 10 0 0 1 10 10v10a10 10 0 0 0 10 10"></path>
<g>
<path d="M164 70h0"></path>
<path d="M320 70h0"></path>
<g class="terminal">
<path d="M164 70h0"></path>
<path d="M232 70h0"></path>
<rect x="164" y="59" width="68" height="22" rx="10" ry="10"></rect>
<text x="198" y="74">"LINE"</text>
</g>
<path d="M232 70h10"></path>
<path d="M242 70h10"></path>
<g class="non-terminal">
<path d="M252 70h0"></path>
<path d="M320 70h0"></path>
<rect x="252" y="59" width="68" height="22"></rect>
<a xlink:href="reuse_source.svg"><text x="286" y="74">Source</text>
</a>
</g>
</g>
<path d="M320 70a10 10 0 0 0 10 -10v-10a10 10 0 0 1 10 -10"></path>
</g>
<g>
<path d="M340 40h0"></path>
<path d="M544 40h0"></path>
<path d="M340 40a10 10 0 0 0 10 -10v0a10 10 0 0 1 10 -10"></path>
<g>
<path d="M360 20h164"></path>
</g>
<path d="M524 20a10 10 0 0 1 10 10v0a10 10 0 0 0 10 10"></path>
<path d="M340 40h20"></path>
<g>
<path d="M360 40h0"></path>
<path d="M524 40h0"></path>
<g class="terminal">
<path d="M360 40h0"></path>
<path d="M436 40h0"></path>
<rect x="360" y="29" width="76" height="22" rx="10" ry="10"></rect>
<text x="398" y="44">"INDEX"</text>
</g>
<path d="M436 40h10"></path>
<path d="M446 40h10"></path>
<g class="non-terminal">
<path d="M456 40h0"></path>
<path d="M524 40h0"></path>
<rect x="456" y="29" width="68" height="22"></rect>
<a xlink:href="reuse_source.svg"><text x="490" y="44">Source</text>
</a>
</g>
</g>
<path d="M524 40h20"></path>
</g>
<g>
<path d="M544 40h0"></path>
<path d="M816 40h0"></path>
<path d="M544 40a10 10 0 0 0 10 -10v0a10 10 0 0 1 10 -10"></path>
<g>
<path d="M564 20h232"></path>
</g>
<path d="M796 20a10 10 0 0 1 10 10v0a10 10 0 0 0 10 10"></path>
<path d="M544 40h20"></path>
<g>
<path d="M564 40h0"></path>
<path d="M796 40h0"></path>
<g class="terminal">
<path d="M564 40h0"></path>
<path d="M688 40h0"></path>
<rect x="564" y="29" width="124" height="22" rx="10" ry="10"></rect>
<text x="626" y="44">"FIELD VALUE"</text>
</g>
<path d="M688 40h10"></path>
<path d="M698 40h10"></path>
<g>
<path d="M708 40h0"></path>
<path d="M796 40h0"></path>
<path d="M708 40h10"></path>
<g class="non-terminal">
<path d="M718 40h0"></path>
<path d="M786 40h0"></path>
<rect x="718" y="29" width="68" height="22"></rect>
<a xlink:href="reuse_source.svg"><text x="752" y="44">Source</text>
</a>
</g>
<path d="M786 40h10"></path>
<path d="M718 40a10 10 0 0 0 -10 10v0a10 10 0 0 0 10 10"></path>
<g>
<path d="M718 60h68"></path>
</g>
<path d="M786 60a10 10 0 0 0 10 -10v0a10 10 0 0 0 -10 -10"></path>
</g>
</g>
<path d="M796 40h20"></path>
</g>
<g>
<path d="M816 40h0"></path>
<path d="M1012 40h0"></path>
<path d="M816 40a10 10 0 0 0 10 -10v0a10 10 0 0 1 10 -10"></path>
<g>
<path d="M836 20h156"></path>
</g>
<path d="M992 20a10 10 0 0 1 10 10v0a10 10 0 0 0 10 10"></path>
<path d="M816 40h20"></path>
<g>
<path d="M836 40h0"></path>
<path d="M992 40h0"></path>
<g class="terminal">
<path d="M836 40h0"></path>
<path d="M904 40h0"></path>
<rect x="836" y="29" width="68" height="22" rx="10" ry="10"></rect>
<text x="870" y="44">"FROM"</text>
</g>
<path d="M904 40h10"></path>
<path d="M914 40h10"></path>
<g class="non-terminal">
<path d="M924 40h0"></path>
<path d="M992 40h0"></path>
<rect x="924" y="29" width="68" height="22"></rect>
<a xlink:href="reuse_source.svg"><text x="958" y="44">Source</text>
</a>
</g>
</g>
<path d="M992 40h20"></path>
</g>
</g>
<path d="M1012 40h10"></path>
<path d="M 1022 40 h 20 m -10 -10 v 20 m 10 -20 v 20"></path>
</g>
</svg>
