<svg xmlns="http://www.w3.org/2000/svg" xmlns:xlink="http://www.w3.org/1999/xlink" class="railroad-diagram" width="1044" height="512" viewBox="0 0 1044 512">
<defs>
<style type="text/css"><![CDATA[
path {
stroke-width: 3;
stroke: black;
fill: rgba(0,0,0,0);
}
text {
font: bold 14px monospace;
text-anchor: middle;
}
text.diagram-text {
font-size: 12px;
}
a {
fill: blue;
}
text.diagram-arrow {
font-size: 16px;
}
text.label {
text-anchor: start;
}
text.comment {
font: italic 12px monospace;
}
rect {
stroke-width: 3;
stroke: black;
fill: #BCBCBC;
}
path.diagram-text {
stroke-width: 3;
stroke: black;
fill: #BCBCBC;
cursor: help;
}
]]></style>
</defs>
<g transform="translate(.5 .5)">
<path d="M 20 30 v 20 m 10 -20 v 20 m -10 -10 h 20.5"></path>
<path d="M40 40h10"></path>
<g>
<path d="M50 40h0"></path>
<path d="M994 40h0"></path>
<g class="terminal">
<path d="M50 40h0"></path>
<path d="M134 40h0"></path>
<rect x="50" y="29" width="84" height="22" rx="10" ry="10"></rect>
<text x="92" y="44">"MODIFY"</text>
</g>
<path d="M134 40h10"></path>
<g>
<path d="M144 40h0"></path>
<path d="M994 40h0"></path>
<path d="M144 40h20"></path>
<g>
<path d="M164 40h0"></path>
<path d="M974 40h0"></path>
<g class="non-terminal">
<path d="M164 40h0"></path>
<path d="M232 40h0"></path>
<rect x="164" y="29" width="68" height="22"></rect>
<a xlink:href="reuse_target.svg"><text x="198" y="44">Target</text>
</a>
</g>
<path d="M232 40h10"></path>
<g>
<path d="M242 40h0"></path>
<path d="M974 40h0"></path>
<path d="M242 40a10 10 0 0 0 10 -10v0a10 10 0 0 1 10 -10"></path>
<g>
<path d="M262 20h692"></path>
</g>
<path d="M954 20a10 10 0 0 1 10 10v0a10 10 0 0 0 10 10"></path>
<path d="M242 40h20"></path>
<g>
<path d="M262 40h0"></path>
<path d="M954 40h0"></path>
<path d="M262 40h20"></path>
<g>
<path d="M282 40h0"></path>
<path d="M622 40h312"></path>
<g>
<path d="M282 40h0"></path>
<path d="M446 40h0"></path>
<g class="terminal">
<path d="M282 40h0"></path>
<path d="M358 40h0"></path>
<rect x="282" y="29" width="76" height="22" rx="10" ry="10"></rect>
<text x="320" y="44">"INDEX"</text>
</g>
<path d="M358 40h10"></path>
<path d="M368 40h10"></path>
<g class="non-terminal">
<path d="M378 40h0"></path>
<path d="M446 40h0"></path>
<rect x="378" y="29" width="68" height="22"></rect>
<a xlink:href="reuse_source.svg"><text x="412" y="44">Source</text>
</a>
</g>
</g>
<path d="M446 40h10"></path>
<path d="M456 40h10"></path>
<g>
<path d="M466 40h0"></path>
<path d="M622 40h0"></path>
<g class="terminal">
<path d="M466 40h0"></path>
<path d="M534 40h0"></path>
<rect x="466" y="29" width="68" height="22" rx="10" ry="10"></rect>
<text x="500" y="44">"FROM"</text>
</g>
<path d="M534 40h10"></path>
<path d="M544 40h10"></path>
<g class="non-terminal">
<path d="M554 40h0"></path>
<path d="M622 40h0"></path>
<rect x="554" y="29" width="68" height="22"></rect>
<a xlink:href="reuse_source.svg"><text x="588" y="44">Source</text>
</a>
</g>
</g>
</g>
<path d="M934 40h20"></path>
<path d="M262 40a10 10 0 0 1 10 10v10a10 10 0 0 0 10 10"></path>
<g>
<path d="M282 70h0"></path>
<path d="M446 70h488"></path>
<g class="terminal">
<path d="M282 70h0"></path>
<path d="M358 70h0"></path>
<rect x="282" y="59" width="76" height="22" rx="10" ry="10"></rect>
<text x="320" y="74">"INDEX"</text>
</g>
<path d="M358 70h10"></path>
<path d="M368 70h10"></path>
<g class="non-terminal">
<path d="M378 70h0"></path>
<path d="M446 70h0"></path>
<rect x="378" y="59" width="68" height="22"></rect>
<a xlink:href="reuse_source.svg"><text x="412" y="74">Source</text>
</a>
</g>
</g>
<path d="M934 70a10 10 0 0 0 10 -10v-10a10 10 0 0 1 10 -10"></path>
<path d="M262 40a10 10 0 0 1 10 10v49a10 10 0 0 0 10 10"></path>
<g>
<path d="M282 109h0"></path>
<path d="M742 109h192"></path>
<g>
<path d="M282 109h0"></path>
<path d="M544 109h0"></path>
<g class="terminal">
<path d="M282 109h0"></path>
<path d="M414 109h0"></path>
<rect x="282" y="98" width="132" height="22" rx="10" ry="10"></rect>
<text x="348" y="113">"TRANSPORTING"</text>
</g>
<path d="M414 109h10"></path>
<g>
<path d="M424 109h0"></path>
<path d="M544 109h0"></path>
<path d="M424 109h20"></path>
<g>
<path d="M444 109h0"></path>
<path d="M524 109h0"></path>
<path d="M444 109h10"></path>
<g class="non-terminal">
<path d="M454 109h0"></path>
<path d="M514 109h0"></path>
<rect x="454" y="98" width="60" height="22"></rect>
<a xlink:href="reuse_field.svg"><text x="484" y="113">Field</text>
</a>
</g>
<path d="M514 109h10"></path>
<path d="M454 109a10 10 0 0 0 -10 10v0a10 10 0 0 0 10 10"></path>
<g>
<path d="M454 129h60"></path>
</g>
<path d="M514 129a10 10 0 0 0 10 -10v0a10 10 0 0 0 -10 -10"></path>
</g>
<path d="M524 109h20"></path>
<path d="M424 109a10 10 0 0 1 10 10v19a10 10 0 0 0 10 10"></path>
<g class="non-terminal">
<path d="M444 148h0"></path>
<path d="M520 148h4"></path>
<rect x="444" y="137" width="76" height="22"></rect>
<a xlink:href="reuse_dynamic.svg"><text x="482" y="152">Dynamic</text>
</a>
</g>
<path d="M524 148a10 10 0 0 0 10 -10v-19a10 10 0 0 1 10 -10"></path>
</g>
</g>
<path d="M544 109h10"></path>
<g>
<path d="M554 109h0"></path>
<path d="M742 109h0"></path>
<path d="M554 109a10 10 0 0 0 10 -10v0a10 10 0 0 1 10 -10"></path>
<g>
<path d="M574 89h148"></path>
</g>
<path d="M722 89a10 10 0 0 1 10 10v0a10 10 0 0 0 10 10"></path>
<path d="M554 109h20"></path>
<g>
<path d="M574 109h0"></path>
<path d="M722 109h0"></path>
<g class="terminal">
<path d="M574 109h0"></path>
<path d="M650 109h0"></path>
<rect x="574" y="98" width="76" height="22" rx="10" ry="10"></rect>
<text x="612" y="113">"WHERE"</text>
</g>
<path d="M650 109h10"></path>
<path d="M660 109h10"></path>
<g class="non-terminal">
<path d="M670 109h0"></path>
<path d="M722 109h0"></path>
<rect x="670" y="98" width="52" height="22"></rect>
<a xlink:href="reuse_cond.svg"><text x="696" y="113">Cond</text>
</a>
</g>
</g>
<path d="M722 109h20"></path>
</g>
</g>
<path d="M934 109a10 10 0 0 0 10 -10v-49a10 10 0 0 1 10 -10"></path>
<path d="M262 40a10 10 0 0 1 10 10v118a10 10 0 0 0 10 10"></path>
<g>
<path d="M282 178h0"></path>
<path d="M728 178h206"></path>
<g>
<path d="M282 178h0"></path>
<path d="M446 178h0"></path>
<g class="terminal">
<path d="M282 178h0"></path>
<path d="M358 178h0"></path>
<rect x="282" y="167" width="76" height="22" rx="10" ry="10"></rect>
<text x="320" y="182">"INDEX"</text>
</g>
<path d="M358 178h10"></path>
<path d="M368 178h10"></path>
<g class="non-terminal">
<path d="M378 178h0"></path>
<path d="M446 178h0"></path>
<rect x="378" y="167" width="68" height="22"></rect>
<a xlink:href="reuse_source.svg"><text x="412" y="182">Source</text>
</a>
</g>
</g>
<path d="M446 178h10"></path>
<path d="M456 178h10"></path>
<g>
<path d="M466 178h0"></path>
<path d="M728 178h0"></path>
<g class="terminal">
<path d="M466 178h0"></path>
<path d="M598 178h0"></path>
<rect x="466" y="167" width="132" height="22" rx="10" ry="10"></rect>
<text x="532" y="182">"TRANSPORTING"</text>
</g>
<path d="M598 178h10"></path>
<g>
<path d="M608 178h0"></path>
<path d="M728 178h0"></path>
<path d="M608 178h20"></path>
<g>
<path d="M628 178h0"></path>
<path d="M708 178h0"></path>
<path d="M628 178h10"></path>
<g class="non-terminal">
<path d="M638 178h0"></path>
<path d="M698 178h0"></path>
<rect x="638" y="167" width="60" height="22"></rect>
<a xlink:href="reuse_field.svg"><text x="668" y="182">Field</text>
</a>
</g>
<path d="M698 178h10"></path>
<path d="M638 178a10 10 0 0 0 -10 10v0a10 10 0 0 0 10 10"></path>
<g>
<path d="M638 198h60"></path>
</g>
<path d="M698 198a10 10 0 0 0 10 -10v0a10 10 0 0 0 -10 -10"></path>
</g>
<path d="M708 178h20"></path>
<path d="M608 178a10 10 0 0 1 10 10v19a10 10 0 0 0 10 10"></path>
<g class="non-terminal">
<path d="M628 217h0"></path>
<path d="M704 217h4"></path>
<rect x="628" y="206" width="76" height="22"></rect>
<a xlink:href="reuse_dynamic.svg"><text x="666" y="221">Dynamic</text>
</a>
</g>
<path d="M708 217a10 10 0 0 0 10 -10v-19a10 10 0 0 1 10 -10"></path>
</g>
</g>
</g>
<path d="M934 178a10 10 0 0 0 10 -10v-118a10 10 0 0 1 10 -10"></path>
<path d="M262 40a10 10 0 0 1 10 10v196a10 10 0 0 0 10 10"></path>
<g>
<path d="M282 256h0"></path>
<path d="M918 256h16"></path>
<g>
<path d="M282 256h0"></path>
<path d="M438 256h0"></path>
<g class="terminal">
<path d="M282 256h0"></path>
<path d="M350 256h0"></path>
<rect x="282" y="245" width="68" height="22" rx="10" ry="10"></rect>
<text x="316" y="260">"FROM"</text>
</g>
<path d="M350 256h10"></path>
<path d="M360 256h10"></path>
<g class="non-terminal">
<path d="M370 256h0"></path>
<path d="M438 256h0"></path>
<rect x="370" y="245" width="68" height="22"></rect>
<a xlink:href="reuse_source.svg"><text x="404" y="260">Source</text>
</a>
</g>
</g>
<path d="M438 256h10"></path>
<path d="M448 256h10"></path>
<g>
<path d="M458 256h0"></path>
<path d="M720 256h0"></path>
<g class="terminal">
<path d="M458 256h0"></path>
<path d="M590 256h0"></path>
<rect x="458" y="245" width="132" height="22" rx="10" ry="10"></rect>
<text x="524" y="260">"TRANSPORTING"</text>
</g>
<path d="M590 256h10"></path>
<g>
<path d="M600 256h0"></path>
<path d="M720 256h0"></path>
<path d="M600 256h20"></path>
<g>
<path d="M620 256h0"></path>
<path d="M700 256h0"></path>
<path d="M620 256h10"></path>
<g class="non-terminal">
<path d="M630 256h0"></path>
<path d="M690 256h0"></path>
<rect x="630" y="245" width="60" height="22"></rect>
<a xlink:href="reuse_field.svg"><text x="660" y="260">Field</text>
</a>
</g>
<path d="M690 256h10"></path>
<path d="M630 256a10 10 0 0 0 -10 10v0a10 10 0 0 0 10 10"></path>
<g>
<path d="M630 276h60"></path>
</g>
<path d="M690 276a10 10 0 0 0 10 -10v0a10 10 0 0 0 -10 -10"></path>
</g>
<path d="M700 256h20"></path>
<path d="M600 256a10 10 0 0 1 10 10v19a10 10 0 0 0 10 10"></path>
<g class="non-terminal">
<path d="M620 295h0"></path>
<path d="M696 295h4"></path>
<rect x="620" y="284" width="76" height="22"></rect>
<a xlink:href="reuse_dynamic.svg"><text x="658" y="299">Dynamic</text>
</a>
</g>
<path d="M700 295a10 10 0 0 0 10 -10v-19a10 10 0 0 1 10 -10"></path>
</g>
</g>
<path d="M720 256h10"></path>
<g>
<path d="M730 256h0"></path>
<path d="M918 256h0"></path>
<path d="M730 256a10 10 0 0 0 10 -10v0a10 10 0 0 1 10 -10"></path>
<g>
<path d="M750 236h148"></path>
</g>
<path d="M898 236a10 10 0 0 1 10 10v0a10 10 0 0 0 10 10"></path>
<path d="M730 256h20"></path>
<g>
<path d="M750 256h0"></path>
<path d="M898 256h0"></path>
<g class="terminal">
<path d="M750 256h0"></path>
<path d="M826 256h0"></path>
<rect x="750" y="245" width="76" height="22" rx="10" ry="10"></rect>
<text x="788" y="260">"WHERE"</text>
</g>
<path d="M826 256h10"></path>
<path d="M836 256h10"></path>
<g class="non-terminal">
<path d="M846 256h0"></path>
<path d="M898 256h0"></path>
<rect x="846" y="245" width="52" height="22"></rect>
<a xlink:href="reuse_cond.svg"><text x="872" y="260">Cond</text>
</a>
</g>
</g>
<path d="M898 256h20"></path>
</g>
</g>
<path d="M934 256a10 10 0 0 0 10 -10v-196a10 10 0 0 1 10 -10"></path>
<path d="M262 40a10 10 0 0 1 10 10v274a10 10 0 0 0 10 10"></path>
<g>
<path d="M282 334h0"></path>
<path d="M934 334h0"></path>
<g>
<path d="M282 334h0"></path>
<path d="M438 334h0"></path>
<g class="terminal">
<path d="M282 334h0"></path>
<path d="M350 334h0"></path>
<rect x="282" y="323" width="68" height="22" rx="10" ry="10"></rect>
<text x="316" y="338">"FROM"</text>
</g>
<path d="M350 334h10"></path>
<path d="M360 334h10"></path>
<g class="non-terminal">
<path d="M370 334h0"></path>
<path d="M438 334h0"></path>
<rect x="370" y="323" width="68" height="22"></rect>
<a xlink:href="reuse_source.svg"><text x="404" y="338">Source</text>
</a>
</g>
</g>
<path d="M438 334h10"></path>
<path d="M448 334h10"></path>
<g>
<path d="M458 334h0"></path>
<path d="M622 334h0"></path>
<g class="terminal">
<path d="M458 334h0"></path>
<path d="M534 334h0"></path>
<rect x="458" y="323" width="76" height="22" rx="10" ry="10"></rect>
<text x="496" y="338">"INDEX"</text>
</g>
<path d="M534 334h10"></path>
<path d="M544 334h10"></path>
<g class="non-terminal">
<path d="M554 334h0"></path>
<path d="M622 334h0"></path>
<rect x="554" y="323" width="68" height="22"></rect>
<a xlink:href="reuse_source.svg"><text x="588" y="338">Source</text>
</a>
</g>
</g>
<path d="M622 334h10"></path>
<g>
<path d="M632 334h0"></path>
<path d="M934 334h0"></path>
<path d="M632 334a10 10 0 0 0 10 -10v0a10 10 0 0 1 10 -10"></path>
<g>
<path d="M652 314h262"></path>
</g>
<path d="M914 314a10 10 0 0 1 10 10v0a10 10 0 0 0 10 10"></path>
<path d="M632 334h20"></path>
<g>
<path d="M652 334h0"></path>
<path d="M914 334h0"></path>
<g class="terminal">
<path d="M652 334h0"></path>
<path d="M784 334h0"></path>
<rect x="652" y="323" width="132" height="22" rx="10" ry="10"></rect>
<text x="718" y="338">"TRANSPORTING"</text>
</g>
<path d="M784 334h10"></path>
<g>
<path d="M794 334h0"></path>
<path d="M914 334h0"></path>
<path d="M794 334h20"></path>
<g>
<path d="M814 334h0"></path>
<path d="M894 334h0"></path>
<path d="M814 334h10"></path>
<g class="non-terminal">
<path d="M824 334h0"></path>
<path d="M884 334h0"></path>
<rect x="824" y="323" width="60" height="22"></rect>
<a xlink:href="reuse_field.svg"><text x="854" y="338">Field</text>
</a>
</g>
<path d="M884 334h10"></path>
<path d="M824 334a10 10 0 0 0 -10 10v0a10 10 0 0 0 10 10"></path>
<g>
<path d="M824 354h60"></path>
</g>
<path d="M884 354a10 10 0 0 0 10 -10v0a10 10 0 0 0 -10 -10"></path>
</g>
<path d="M894 334h20"></path>
<path d="M794 334a10 10 0 0 1 10 10v19a10 10 0 0 0 10 10"></path>
<g class="non-terminal">
<path d="M814 373h0"></path>
<path d="M890 373h4"></path>
<rect x="814" y="362" width="76" height="22"></rect>
<a xlink:href="reuse_dynamic.svg"><text x="852" y="377">Dynamic</text>
</a>
</g>
<path d="M894 373a10 10 0 0 0 10 -10v-19a10 10 0 0 1 10 -10"></path>
</g>
</g>
<path d="M914 334h20"></path>
</g>
</g>
<path d="M934 334a10 10 0 0 0 10 -10v-274a10 10 0 0 1 10 -10"></path>
<path d="M262 40a10 10 0 0 1 10 10v352a10 10 0 0 0 10 10"></path>
<g>
<path d="M282 412h0"></path>
<path d="M934 412h0"></path>
<g>
<path d="M282 412h0"></path>
<path d="M446 412h0"></path>
<g class="terminal">
<path d="M282 412h0"></path>
<path d="M358 412h0"></path>
<rect x="282" y="401" width="76" height="22" rx="10" ry="10"></rect>
<text x="320" y="416">"INDEX"</text>
</g>
<path d="M358 412h10"></path>
<path d="M368 412h10"></path>
<g class="non-terminal">
<path d="M378 412h0"></path>
<path d="M446 412h0"></path>
<rect x="378" y="401" width="68" height="22"></rect>
<a xlink:href="reuse_source.svg"><text x="412" y="416">Source</text>
</a>
</g>
</g>
<path d="M446 412h10"></path>
<path d="M456 412h10"></path>
<g>
<path d="M466 412h0"></path>
<path d="M622 412h0"></path>
<g class="terminal">
<path d="M466 412h0"></path>
<path d="M534 412h0"></path>
<rect x="466" y="401" width="68" height="22" rx="10" ry="10"></rect>
<text x="500" y="416">"FROM"</text>
</g>
<path d="M534 412h10"></path>
<path d="M544 412h10"></path>
<g class="non-terminal">
<path d="M554 412h0"></path>
<path d="M622 412h0"></path>
<rect x="554" y="401" width="68" height="22"></rect>
<a xlink:href="reuse_source.svg"><text x="588" y="416">Source</text>
</a>
</g>
</g>
<path d="M622 412h10"></path>
<g>
<path d="M632 412h0"></path>
<path d="M934 412h0"></path>
<path d="M632 412a10 10 0 0 0 10 -10v0a10 10 0 0 1 10 -10"></path>
<g>
<path d="M652 392h262"></path>
</g>
<path d="M914 392a10 10 0 0 1 10 10v0a10 10 0 0 0 10 10"></path>
<path d="M632 412h20"></path>
<g>
<path d="M652 412h0"></path>
<path d="M914 412h0"></path>
<g class="terminal">
<path d="M652 412h0"></path>
<path d="M784 412h0"></path>
<rect x="652" y="401" width="132" height="22" rx="10" ry="10"></rect>
<text x="718" y="416">"TRANSPORTING"</text>
</g>
<path d="M784 412h10"></path>
<g>
<path d="M794 412h0"></path>
<path d="M914 412h0"></path>
<path d="M794 412h20"></path>
<g>
<path d="M814 412h0"></path>
<path d="M894 412h0"></path>
<path d="M814 412h10"></path>
<g class="non-terminal">
<path d="M824 412h0"></path>
<path d="M884 412h0"></path>
<rect x="824" y="401" width="60" height="22"></rect>
<a xlink:href="reuse_field.svg"><text x="854" y="416">Field</text>
</a>
</g>
<path d="M884 412h10"></path>
<path d="M824 412a10 10 0 0 0 -10 10v0a10 10 0 0 0 10 10"></path>
<g>
<path d="M824 432h60"></path>
</g>
<path d="M884 432a10 10 0 0 0 10 -10v0a10 10 0 0 0 -10 -10"></path>
</g>
<path d="M894 412h20"></path>
<path d="M794 412a10 10 0 0 1 10 10v19a10 10 0 0 0 10 10"></path>
<g class="non-terminal">
<path d="M814 451h0"></path>
<path d="M890 451h4"></path>
<rect x="814" y="440" width="76" height="22"></rect>
<a xlink:href="reuse_dynamic.svg"><text x="852" y="455">Dynamic</text>
</a>
</g>
<path d="M894 451a10 10 0 0 0 10 -10v-19a10 10 0 0 1 10 -10"></path>
</g>
</g>
<path d="M914 412h20"></path>
</g>
</g>
<path d="M934 412a10 10 0 0 0 10 -10v-352a10 10 0 0 1 10 -10"></path>
</g>
<path d="M954 40h20"></path>
</g>
</g>
<path d="M974 40h20"></path>
<path d="M144 40a10 10 0 0 1 10 10v421a10 10 0 0 0 10 10"></path>
<g>
<path d="M164 481h0"></path>
<path d="M504 481h470"></path>
<g class="terminal">
<path d="M164 481h0"></path>
<path d="M240 481h0"></path>
<rect x="164" y="470" width="76" height="22" rx="10" ry="10"></rect>
<text x="202" y="485">"TABLE"</text>
</g>
<path d="M240 481h10"></path>
<path d="M250 481h10"></path>
<g class="non-terminal">
<path d="M260 481h0"></path>
<path d="M328 481h0"></path>
<rect x="260" y="470" width="68" height="22"></rect>
<a xlink:href="reuse_target.svg"><text x="294" y="485">Target</text>
</a>
</g>
<path d="M328 481h10"></path>
<path d="M338 481h10"></path>
<g>
<path d="M348 481h0"></path>
<path d="M504 481h0"></path>
<g class="terminal">
<path d="M348 481h0"></path>
<path d="M416 481h0"></path>
<rect x="348" y="470" width="68" height="22" rx="10" ry="10"></rect>
<text x="382" y="485">"FROM"</text>
</g>
<path d="M416 481h10"></path>
<path d="M426 481h10"></path>
<g class="non-terminal">
<path d="M436 481h0"></path>
<path d="M504 481h0"></path>
<rect x="436" y="470" width="68" height="22"></rect>
<a xlink:href="reuse_source.svg"><text x="470" y="485">Source</text>
</a>
</g>
</g>
</g>
<path d="M974 481a10 10 0 0 0 10 -10v-421a10 10 0 0 1 10 -10"></path>
</g>
</g>
<path d="M994 40h10"></path>
<path d="M 1004 40 h 20 m -10 -10 v 20 m 10 -20 v 20"></path>
</g>
</svg>
