<svg xmlns="http://www.w3.org/2000/svg" xmlns:xlink="http://www.w3.org/1999/xlink" class="railroad-diagram" width="788" height="92" viewBox="0 0 788 92">
<defs>
<style type="text/css"><![CDATA[
path {
stroke-width: 3;
stroke: black;
fill: rgba(0,0,0,0);
}
text {
font: bold 14px monospace;
text-anchor: middle;
}
text.diagram-text {
font-size: 12px;
}
a {
fill: blue;
}
text.diagram-arrow {
font-size: 16px;
}
text.label {
text-anchor: start;
}
text.comment {
font: italic 12px monospace;
}
rect {
stroke-width: 3;
stroke: black;
fill: #BCBCBC;
}
path.diagram-text {
stroke-width: 3;
stroke: black;
fill: #BCBCBC;
cursor: help;
}
]]></style>
</defs>
<g transform="translate(.5 .5)">
<path d="M 20 21 v 20 m 10 -20 v 20 m -10 -10 h 20.5"></path>
<path d="M40 31h10"></path>
<g>
<path d="M50 31h0"></path>
<path d="M738 31h0"></path>
<g class="terminal">
<path d="M50 31h0"></path>
<path d="M134 31h0"></path>
<rect x="50" y="20" width="84" height="22" rx="10" ry="10"></rect>
<text x="92" y="35">"MODIFY"</text>
</g>
<path d="M134 31h10"></path>
<g>
<path d="M144 31h0"></path>
<path d="M340 31h0"></path>
<path d="M144 31h20"></path>
<g class="terminal">
<path d="M164 31h0"></path>
<path d="M296 31h24"></path>
<rect x="164" y="20" width="132" height="22" rx="10" ry="10"></rect>
<text x="230" y="35">"CURRENT LINE"</text>
</g>
<path d="M320 31h20"></path>
<path d="M144 31a10 10 0 0 1 10 10v10a10 10 0 0 0 10 10"></path>
<g>
<path d="M164 61h0"></path>
<path d="M320 61h0"></path>
<g class="terminal">
<path d="M164 61h0"></path>
<path d="M232 61h0"></path>
<rect x="164" y="50" width="68" height="22" rx="10" ry="10"></rect>
<text x="198" y="65">"LINE"</text>
</g>
<path d="M232 61h10"></path>
<path d="M242 61h10"></path>
<g class="non-terminal">
<path d="M252 61h0"></path>
<path d="M320 61h0"></path>
<rect x="252" y="50" width="68" height="22"></rect>
<a xlink:href="reuse_source.svg"><text x="286" y="65">Source</text>
</a>
</g>
</g>
<path d="M320 61a10 10 0 0 0 10 -10v-10a10 10 0 0 1 10 -10"></path>
</g>
<path d="M340 31h10"></path>
<g class="terminal">
<path d="M350 31h0"></path>
<path d="M474 31h0"></path>
<rect x="350" y="20" width="124" height="22" rx="10" ry="10"></rect>
<text x="412" y="35">"FIELD VALUE"</text>
</g>
<path d="M474 31h10"></path>
<path d="M484 31h10"></path>
<g class="non-terminal">
<path d="M494 31h0"></path>
<path d="M562 31h0"></path>
<rect x="494" y="20" width="68" height="22"></rect>
<a xlink:href="reuse_source.svg"><text x="528" y="35">Source</text>
</a>
</g>
<path d="M562 31h10"></path>
<path d="M572 31h10"></path>
<g class="terminal">
<path d="M582 31h0"></path>
<path d="M650 31h0"></path>
<rect x="582" y="20" width="68" height="22" rx="10" ry="10"></rect>
<text x="616" y="35">"FROM"</text>
</g>
<path d="M650 31h10"></path>
<path d="M660 31h10"></path>
<g class="non-terminal">
<path d="M670 31h0"></path>
<path d="M738 31h0"></path>
<rect x="670" y="20" width="68" height="22"></rect>
<a xlink:href="reuse_source.svg"><text x="704" y="35">Source</text>
</a>
</g>
</g>
<path d="M738 31h10"></path>
<path d="M 748 31 h 20 m -10 -10 v 20 m 10 -20 v 20"></path>
</g>
</svg>
