<svg xmlns="http://www.w3.org/2000/svg" xmlns:xlink="http://www.w3.org/1999/xlink" class="railroad-diagram" width="964" height="221" viewBox="0 0 964 221">
<defs>
<style type="text/css"><![CDATA[
path {
stroke-width: 3;
stroke: black;
fill: rgba(0,0,0,0);
}
text {
font: bold 14px monospace;
text-anchor: middle;
}
text.diagram-text {
font-size: 12px;
}
a {
fill: blue;
}
text.diagram-arrow {
font-size: 16px;
}
text.label {
text-anchor: start;
}
text.comment {
font: italic 12px monospace;
}
rect {
stroke-width: 3;
stroke: black;
fill: #BCBCBC;
}
path.diagram-text {
stroke-width: 3;
stroke: black;
fill: #BCBCBC;
cursor: help;
}
]]></style>
</defs>
<g transform="translate(.5 .5)">
<path d="M 20 30 v 20 m 10 -20 v 20 m -10 -10 h 20.5"></path>
<path d="M40 40h10"></path>
<g>
<path d="M50 40h0"></path>
<path d="M914 40h0"></path>
<g class="terminal">
<path d="M50 40h0"></path>
<path d="M134 40h0"></path>
<rect x="50" y="29" width="84" height="22" rx="10" ry="10"></rect>
<text x="92" y="44">"MODIFY"</text>
</g>
<path d="M134 40h10"></path>
<g>
<path d="M144 40h0"></path>
<path d="M914 40h0"></path>
<path d="M144 40h20"></path>
<g>
<path d="M164 40h0"></path>
<path d="M894 40h0"></path>
<g class="non-terminal">
<path d="M164 40h0"></path>
<path d="M232 40h0"></path>
<rect x="164" y="29" width="68" height="22"></rect>
<a xlink:href="reuse_target.svg"><text x="198" y="44">Target</text>
</a>
</g>
<path d="M232 40h10"></path>
<g>
<path d="M242 40h0"></path>
<path d="M894 40h0"></path>
<path d="M242 40a10 10 0 0 0 10 -10v0a10 10 0 0 1 10 -10"></path>
<g>
<path d="M262 20h612"></path>
</g>
<path d="M874 20a10 10 0 0 1 10 10v0a10 10 0 0 0 10 10"></path>
<path d="M242 40h20"></path>
<g>
<path d="M262 40h0"></path>
<path d="M874 40h0"></path>
<path d="M262 40h20"></path>
<g>
<path d="M282 40h0"></path>
<path d="M622 40h232"></path>
<g>
<path d="M282 40h0"></path>
<path d="M446 40h0"></path>
<g class="terminal">
<path d="M282 40h0"></path>
<path d="M358 40h0"></path>
<rect x="282" y="29" width="76" height="22" rx="10" ry="10"></rect>
<text x="320" y="44">"INDEX"</text>
</g>
<path d="M358 40h10"></path>
<path d="M368 40h10"></path>
<g class="non-terminal">
<path d="M378 40h0"></path>
<path d="M446 40h0"></path>
<rect x="378" y="29" width="68" height="22"></rect>
<a xlink:href="reuse_source.svg"><text x="412" y="44">Source</text>
</a>
</g>
</g>
<path d="M446 40h10"></path>
<path d="M456 40h10"></path>
<g>
<path d="M466 40h0"></path>
<path d="M622 40h0"></path>
<g class="terminal">
<path d="M466 40h0"></path>
<path d="M534 40h0"></path>
<rect x="466" y="29" width="68" height="22" rx="10" ry="10"></rect>
<text x="500" y="44">"FROM"</text>
</g>
<path d="M534 40h10"></path>
<path d="M544 40h10"></path>
<g class="non-terminal">
<path d="M554 40h0"></path>
<path d="M622 40h0"></path>
<rect x="554" y="29" width="68" height="22"></rect>
<a xlink:href="reuse_source.svg"><text x="588" y="44">Source</text>
</a>
</g>
</g>
</g>
<path d="M854 40h20"></path>
<path d="M262 40a10 10 0 0 1 10 10v10a10 10 0 0 0 10 10"></path>
<g>
<path d="M282 70h0"></path>
<path d="M446 70h408"></path>
<g class="terminal">
<path d="M282 70h0"></path>
<path d="M358 70h0"></path>
<rect x="282" y="59" width="76" height="22" rx="10" ry="10"></rect>
<text x="320" y="74">"INDEX"</text>
</g>
<path d="M358 70h10"></path>
<path d="M368 70h10"></path>
<g class="non-terminal">
<path d="M378 70h0"></path>
<path d="M446 70h0"></path>
<rect x="378" y="59" width="68" height="22"></rect>
<a xlink:href="reuse_source.svg"><text x="412" y="74">Source</text>
</a>
</g>
</g>
<path d="M854 70a10 10 0 0 0 10 -10v-10a10 10 0 0 1 10 -10"></path>
<path d="M262 40a10 10 0 0 1 10 10v40a10 10 0 0 0 10 10"></path>
<g>
<path d="M282 100h0"></path>
<path d="M670 100h184"></path>
<g>
<path d="M282 100h0"></path>
<path d="M438 100h0"></path>
<g class="terminal">
<path d="M282 100h0"></path>
<path d="M350 100h0"></path>
<rect x="282" y="89" width="68" height="22" rx="10" ry="10"></rect>
<text x="316" y="104">"FROM"</text>
</g>
<path d="M350 100h10"></path>
<path d="M360 100h10"></path>
<g class="non-terminal">
<path d="M370 100h0"></path>
<path d="M438 100h0"></path>
<rect x="370" y="89" width="68" height="22"></rect>
<a xlink:href="reuse_source.svg"><text x="404" y="104">Source</text>
</a>
</g>
</g>
<path d="M438 100h10"></path>
<path d="M448 100h10"></path>
<g>
<path d="M458 100h0"></path>
<path d="M670 100h0"></path>
<g class="terminal">
<path d="M458 100h0"></path>
<path d="M590 100h0"></path>
<rect x="458" y="89" width="132" height="22" rx="10" ry="10"></rect>
<text x="524" y="104">"TRANSPORTING"</text>
</g>
<path d="M590 100h10"></path>
<path d="M600 100h10"></path>
<g class="non-terminal">
<path d="M610 100h0"></path>
<path d="M670 100h0"></path>
<rect x="610" y="89" width="60" height="22"></rect>
<a xlink:href="reuse_field.svg"><text x="640" y="104">Field</text>
</a>
</g>
</g>
</g>
<path d="M854 100a10 10 0 0 0 10 -10v-40a10 10 0 0 1 10 -10"></path>
<path d="M262 40a10 10 0 0 1 10 10v70a10 10 0 0 0 10 10"></path>
<g>
<path d="M282 130h0"></path>
<path d="M622 130h232"></path>
<g>
<path d="M282 130h0"></path>
<path d="M438 130h0"></path>
<g class="terminal">
<path d="M282 130h0"></path>
<path d="M350 130h0"></path>
<rect x="282" y="119" width="68" height="22" rx="10" ry="10"></rect>
<text x="316" y="134">"FROM"</text>
</g>
<path d="M350 130h10"></path>
<path d="M360 130h10"></path>
<g class="non-terminal">
<path d="M370 130h0"></path>
<path d="M438 130h0"></path>
<rect x="370" y="119" width="68" height="22"></rect>
<a xlink:href="reuse_source.svg"><text x="404" y="134">Source</text>
</a>
</g>
</g>
<path d="M438 130h10"></path>
<path d="M448 130h10"></path>
<g>
<path d="M458 130h0"></path>
<path d="M622 130h0"></path>
<g class="terminal">
<path d="M458 130h0"></path>
<path d="M534 130h0"></path>
<rect x="458" y="119" width="76" height="22" rx="10" ry="10"></rect>
<text x="496" y="134">"INDEX"</text>
</g>
<path d="M534 130h10"></path>
<path d="M544 130h10"></path>
<g class="non-terminal">
<path d="M554 130h0"></path>
<path d="M622 130h0"></path>
<rect x="554" y="119" width="68" height="22"></rect>
<a xlink:href="reuse_source.svg"><text x="588" y="134">Source</text>
</a>
</g>
</g>
</g>
<path d="M854 130a10 10 0 0 0 10 -10v-70a10 10 0 0 1 10 -10"></path>
<path d="M262 40a10 10 0 0 1 10 10v100a10 10 0 0 0 10 10"></path>
<g>
<path d="M282 160h0"></path>
<path d="M854 160h0"></path>
<g>
<path d="M282 160h0"></path>
<path d="M446 160h0"></path>
<g class="terminal">
<path d="M282 160h0"></path>
<path d="M358 160h0"></path>
<rect x="282" y="149" width="76" height="22" rx="10" ry="10"></rect>
<text x="320" y="164">"INDEX"</text>
</g>
<path d="M358 160h10"></path>
<path d="M368 160h10"></path>
<g class="non-terminal">
<path d="M378 160h0"></path>
<path d="M446 160h0"></path>
<rect x="378" y="149" width="68" height="22"></rect>
<a xlink:href="reuse_source.svg"><text x="412" y="164">Source</text>
</a>
</g>
</g>
<path d="M446 160h10"></path>
<path d="M456 160h10"></path>
<g>
<path d="M466 160h0"></path>
<path d="M622 160h0"></path>
<g class="terminal">
<path d="M466 160h0"></path>
<path d="M534 160h0"></path>
<rect x="466" y="149" width="68" height="22" rx="10" ry="10"></rect>
<text x="500" y="164">"FROM"</text>
</g>
<path d="M534 160h10"></path>
<path d="M544 160h10"></path>
<g class="non-terminal">
<path d="M554 160h0"></path>
<path d="M622 160h0"></path>
<rect x="554" y="149" width="68" height="22"></rect>
<a xlink:href="reuse_source.svg"><text x="588" y="164">Source</text>
</a>
</g>
</g>
<path d="M622 160h10"></path>
<path d="M632 160h10"></path>
<g>
<path d="M642 160h0"></path>
<path d="M854 160h0"></path>
<g class="terminal">
<path d="M642 160h0"></path>
<path d="M774 160h0"></path>
<rect x="642" y="149" width="132" height="22" rx="10" ry="10"></rect>
<text x="708" y="164">"TRANSPORTING"</text>
</g>
<path d="M774 160h10"></path>
<path d="M784 160h10"></path>
<g class="non-terminal">
<path d="M794 160h0"></path>
<path d="M854 160h0"></path>
<rect x="794" y="149" width="60" height="22"></rect>
<a xlink:href="reuse_field.svg"><text x="824" y="164">Field</text>
</a>
</g>
</g>
</g>
<path d="M854 160a10 10 0 0 0 10 -10v-100a10 10 0 0 1 10 -10"></path>
</g>
<path d="M874 40h20"></path>
</g>
</g>
<path d="M894 40h20"></path>
<path d="M144 40a10 10 0 0 1 10 10v130a10 10 0 0 0 10 10"></path>
<g>
<path d="M164 190h0"></path>
<path d="M504 190h390"></path>
<g class="terminal">
<path d="M164 190h0"></path>
<path d="M240 190h0"></path>
<rect x="164" y="179" width="76" height="22" rx="10" ry="10"></rect>
<text x="202" y="194">"TABLE"</text>
</g>
<path d="M240 190h10"></path>
<path d="M250 190h10"></path>
<g class="non-terminal">
<path d="M260 190h0"></path>
<path d="M328 190h0"></path>
<rect x="260" y="179" width="68" height="22"></rect>
<a xlink:href="reuse_target.svg"><text x="294" y="194">Target</text>
</a>
</g>
<path d="M328 190h10"></path>
<path d="M338 190h10"></path>
<g>
<path d="M348 190h0"></path>
<path d="M504 190h0"></path>
<g class="terminal">
<path d="M348 190h0"></path>
<path d="M416 190h0"></path>
<rect x="348" y="179" width="68" height="22" rx="10" ry="10"></rect>
<text x="382" y="194">"FROM"</text>
</g>
<path d="M416 190h10"></path>
<path d="M426 190h10"></path>
<g class="non-terminal">
<path d="M436 190h0"></path>
<path d="M504 190h0"></path>
<rect x="436" y="179" width="68" height="22"></rect>
<a xlink:href="reuse_source.svg"><text x="470" y="194">Source</text>
</a>
</g>
</g>
</g>
<path d="M894 190a10 10 0 0 0 10 -10v-130a10 10 0 0 1 10 -10"></path>
</g>
</g>
<path d="M914 40h10"></path>
<path d="M 924 40 h 20 m -10 -10 v 20 m 10 -20 v 20"></path>
</g>
</svg>
