<svg xmlns="http://www.w3.org/2000/svg" xmlns:xlink="http://www.w3.org/1999/xlink" class="railroad-diagram" width="470" height="101" viewBox="0 0 470 101">
<defs>
<style type="text/css"><![CDATA[
path {
stroke-width: 3;
stroke: black;
fill: rgba(0,0,0,0);
}
text {
font: bold 14px monospace;
text-anchor: middle;
}
text.diagram-text {
font-size: 12px;
}
a {
fill: blue;
}
text.diagram-arrow {
font-size: 16px;
}
text.label {
text-anchor: start;
}
text.comment {
font: italic 12px monospace;
}
rect {
stroke-width: 3;
stroke: black;
fill: #BCBCBC;
}
path.diagram-text {
stroke-width: 3;
stroke: black;
fill: #BCBCBC;
cursor: help;
}
]]></style>
</defs>
<g transform="translate(.5 .5)">
<path d="M 20 30 v 20 m 10 -20 v 20 m -10 -10 h 20.5"></path>
<path d="M40 40h10"></path>
<g>
<path d="M50 40h0"></path>
<path d="M420 40h0"></path>
<g class="terminal">
<path d="M50 40h0"></path>
<path d="M134 40h0"></path>
<rect x="50" y="29" width="84" height="22" rx="10" ry="10"></rect>
<text x="92" y="44">"MODULE"</text>
</g>
<path d="M134 40h10"></path>
<path d="M144 40h10"></path>
<g class="non-terminal">
<path d="M154 40h0"></path>
<path d="M246 40h0"></path>
<rect x="154" y="29" width="92" height="22"></rect>
<a xlink:href="reuse_form_name.svg"><text x="200" y="44">form&#95;name</text>
</a>
</g>
<path d="M246 40h10"></path>
<g>
<path d="M256 40h0"></path>
<path d="M420 40h0"></path>
<path d="M256 40a10 10 0 0 0 10 -10v0a10 10 0 0 1 10 -10"></path>
<g>
<path d="M276 20h124"></path>
</g>
<path d="M400 20a10 10 0 0 1 10 10v0a10 10 0 0 0 10 10"></path>
<path d="M256 40h20"></path>
<g>
<path d="M276 40h0"></path>
<path d="M400 40h0"></path>
<path d="M276 40h20"></path>
<g class="terminal">
<path d="M296 40h4"></path>
<path d="M376 40h4"></path>
<rect x="300" y="29" width="76" height="22" rx="10" ry="10"></rect>
<text x="338" y="44">"INPUT"</text>
</g>
<path d="M380 40h20"></path>
<path d="M276 40a10 10 0 0 1 10 10v10a10 10 0 0 0 10 10"></path>
<g class="terminal">
<path d="M296 70h0"></path>
<path d="M380 70h0"></path>
<rect x="296" y="59" width="84" height="22" rx="10" ry="10"></rect>
<text x="338" y="74">"OUTPUT"</text>
</g>
<path d="M380 70a10 10 0 0 0 10 -10v-10a10 10 0 0 1 10 -10"></path>
</g>
<path d="M400 40h20"></path>
</g>
</g>
<path d="M420 40h10"></path>
<path d="M 430 40 h 20 m -10 -10 v 20 m 10 -20 v 20"></path>
</g>
</svg>
