<svg xmlns="http://www.w3.org/2000/svg" xmlns:xlink="http://www.w3.org/1999/xlink" class="railroad-diagram" width="592" height="161" viewBox="0 0 592 161">
<defs>
<style type="text/css"><![CDATA[
path {
stroke-width: 3;
stroke: black;
fill: rgba(0,0,0,0);
}
text {
font: bold 14px monospace;
text-anchor: middle;
}
text.diagram-text {
font-size: 12px;
}
a {
fill: blue;
}
text.diagram-arrow {
font-size: 16px;
}
text.label {
text-anchor: start;
}
text.comment {
font: italic 12px monospace;
}
rect {
stroke-width: 3;
stroke: black;
fill: #BCBCBC;
}
path.diagram-text {
stroke-width: 3;
stroke: black;
fill: #BCBCBC;
cursor: help;
}
]]></style>
</defs>
<g transform="translate(.5 .5)">
<path d="M 20 30 v 20 m 10 -20 v 20 m -10 -10 h 20.5"></path>
<g>
<path d="M40 40h0"></path>
<path d="M552 40h0"></path>
<path d="M40 40h20"></path>
<g>
<path d="M60 40h0"></path>
<path d="M532 40h0"></path>
<g>
<path d="M60 40h0"></path>
<path d="M294 40h0"></path>
<path d="M60 40h20"></path>
<g>
<path d="M80 40h0"></path>
<path d="M274 40h0"></path>
<g class="terminal">
<path d="M80 40h0"></path>
<path d="M148 40h0"></path>
<rect x="80" y="29" width="68" height="22" rx="10" ry="10"></rect>
<text x="114" y="44">"MOVE"</text>
</g>
<path d="M148 40h10"></path>
<g>
<path d="M158 40h0"></path>
<path d="M274 40h0"></path>
<path d="M158 40a10 10 0 0 0 10 -10v0a10 10 0 0 1 10 -10"></path>
<g>
<path d="M178 20h76"></path>
</g>
<path d="M254 20a10 10 0 0 1 10 10v0a10 10 0 0 0 10 10"></path>
<path d="M158 40h20"></path>
<g class="terminal">
<path d="M178 40h0"></path>
<path d="M254 40h0"></path>
<rect x="178" y="29" width="76" height="22" rx="10" ry="10"></rect>
<text x="216" y="44">"EXACT"</text>
</g>
<path d="M254 40h20"></path>
</g>
</g>
<path d="M274 40h20"></path>
<path d="M60 40a10 10 0 0 1 10 10v10a10 10 0 0 0 10 10"></path>
<g class="terminal">
<path d="M80 70h0"></path>
<path d="M260 70h14"></path>
<rect x="80" y="59" width="180" height="22" rx="10" ry="10"></rect>
<text x="170" y="74">"MOVE-CORRESPONDING"</text>
</g>
<path d="M274 70a10 10 0 0 0 10 -10v-10a10 10 0 0 1 10 -10"></path>
</g>
<path d="M294 40h10"></path>
<g class="non-terminal">
<path d="M304 40h0"></path>
<path d="M372 40h0"></path>
<rect x="304" y="29" width="68" height="22"></rect>
<a xlink:href="reuse_source.svg"><text x="338" y="44">Source</text>
</a>
</g>
<path d="M372 40h10"></path>
<path d="M382 40h10"></path>
<g class="terminal">
<path d="M392 40h0"></path>
<path d="M444 40h0"></path>
<rect x="392" y="29" width="52" height="22" rx="10" ry="10"></rect>
<text x="418" y="44">"TO"</text>
</g>
<path d="M444 40h10"></path>
<path d="M454 40h10"></path>
<g class="non-terminal">
<path d="M464 40h0"></path>
<path d="M532 40h0"></path>
<rect x="464" y="29" width="68" height="22"></rect>
<a xlink:href="reuse_target.svg"><text x="498" y="44">Target</text>
</a>
</g>
</g>
<path d="M532 40h20"></path>
<path d="M40 40a10 10 0 0 1 10 10v40a10 10 0 0 0 10 10"></path>
<g>
<path d="M60 100h0"></path>
<path d="M308 100h224"></path>
<g class="non-terminal">
<path d="M60 100h0"></path>
<path d="M128 100h0"></path>
<rect x="60" y="89" width="68" height="22"></rect>
<a xlink:href="reuse_target.svg"><text x="94" y="104">Target</text>
</a>
</g>
<path d="M128 100h10"></path>
<g>
<path d="M138 100h0"></path>
<path d="M230 100h0"></path>
<path d="M138 100h20"></path>
<g class="terminal">
<path d="M158 100h0"></path>
<path d="M202 100h8"></path>
<rect x="158" y="89" width="44" height="22" rx="10" ry="10"></rect>
<text x="180" y="104">"="</text>
</g>
<path d="M210 100h20"></path>
<path d="M138 100a10 10 0 0 1 10 10v10a10 10 0 0 0 10 10"></path>
<g class="terminal">
<path d="M158 130h0"></path>
<path d="M210 130h0"></path>
<rect x="158" y="119" width="52" height="22" rx="10" ry="10"></rect>
<text x="184" y="134">"?="</text>
</g>
<path d="M210 130a10 10 0 0 0 10 -10v-10a10 10 0 0 1 10 -10"></path>
</g>
<path d="M230 100h10"></path>
<g class="non-terminal">
<path d="M240 100h0"></path>
<path d="M308 100h0"></path>
<rect x="240" y="89" width="68" height="22"></rect>
<a xlink:href="reuse_source.svg"><text x="274" y="104">Source</text>
</a>
</g>
</g>
<path d="M532 100a10 10 0 0 0 10 -10v-40a10 10 0 0 1 10 -10"></path>
</g>
<path d="M 552 40 h 20 m -10 -10 v 20 m 10 -20 v 20"></path>
</g>
</svg>
