<svg xmlns="http://www.w3.org/2000/svg" xmlns:xlink="http://www.w3.org/1999/xlink" class="railroad-diagram" width="578" height="152" viewBox="0 0 578 152">
<defs>
<style type="text/css"><![CDATA[
path {
stroke-width: 3;
stroke: black;
fill: rgba(0,0,0,0);
}
text {
font: bold 14px monospace;
text-anchor: middle;
}
text.diagram-text {
font-size: 12px;
}
a {
fill: blue;
}
text.diagram-arrow {
font-size: 16px;
}
text.label {
text-anchor: start;
}
text.comment {
font: italic 12px monospace;
}
rect {
stroke-width: 3;
stroke: black;
fill: #BCBCBC;
}
path.diagram-text {
stroke-width: 3;
stroke: black;
fill: #BCBCBC;
cursor: help;
}
]]></style>
</defs>
<g transform="translate(.5 .5)">
<path d="M 20 21 v 20 m 10 -20 v 20 m -10 -10 h 20.5"></path>
<g>
<path d="M40 31h0"></path>
<path d="M538 31h0"></path>
<path d="M40 31h20"></path>
<g>
<path d="M60 31h0"></path>
<path d="M518 31h0"></path>
<g>
<path d="M60 31h0"></path>
<path d="M280 31h0"></path>
<path d="M60 31h20"></path>
<g class="terminal">
<path d="M80 31h56"></path>
<path d="M204 31h56"></path>
<rect x="136" y="20" width="68" height="22" rx="10" ry="10"></rect>
<text x="170" y="35">"MOVE"</text>
</g>
<path d="M260 31h20"></path>
<path d="M60 31a10 10 0 0 1 10 10v10a10 10 0 0 0 10 10"></path>
<g class="terminal">
<path d="M80 61h0"></path>
<path d="M260 61h0"></path>
<rect x="80" y="50" width="180" height="22" rx="10" ry="10"></rect>
<text x="170" y="65">"MOVE-CORRESPONDING"</text>
</g>
<path d="M260 61a10 10 0 0 0 10 -10v-10a10 10 0 0 1 10 -10"></path>
</g>
<path d="M280 31h10"></path>
<g class="non-terminal">
<path d="M290 31h0"></path>
<path d="M358 31h0"></path>
<rect x="290" y="20" width="68" height="22"></rect>
<a xlink:href="reuse_source.svg"><text x="324" y="35">source</text>
</a>
</g>
<path d="M358 31h10"></path>
<path d="M368 31h10"></path>
<g class="terminal">
<path d="M378 31h0"></path>
<path d="M430 31h0"></path>
<rect x="378" y="20" width="52" height="22" rx="10" ry="10"></rect>
<text x="404" y="35">"TO"</text>
</g>
<path d="M430 31h10"></path>
<path d="M440 31h10"></path>
<g class="non-terminal">
<path d="M450 31h0"></path>
<path d="M518 31h0"></path>
<rect x="450" y="20" width="68" height="22"></rect>
<a xlink:href="reuse_target.svg"><text x="484" y="35">target</text>
</a>
</g>
</g>
<path d="M518 31h20"></path>
<path d="M40 31a10 10 0 0 1 10 10v40a10 10 0 0 0 10 10"></path>
<g>
<path d="M60 91h105"></path>
<path d="M413 91h105"></path>
<g class="non-terminal">
<path d="M165 91h0"></path>
<path d="M233 91h0"></path>
<rect x="165" y="80" width="68" height="22"></rect>
<a xlink:href="reuse_target.svg"><text x="199" y="95">target</text>
</a>
</g>
<path d="M233 91h10"></path>
<g>
<path d="M243 91h0"></path>
<path d="M335 91h0"></path>
<path d="M243 91h20"></path>
<g class="terminal">
<path d="M263 91h4"></path>
<path d="M311 91h4"></path>
<rect x="267" y="80" width="44" height="22" rx="10" ry="10"></rect>
<text x="289" y="95">"="</text>
</g>
<path d="M315 91h20"></path>
<path d="M243 91a10 10 0 0 1 10 10v10a10 10 0 0 0 10 10"></path>
<g class="terminal">
<path d="M263 121h0"></path>
<path d="M315 121h0"></path>
<rect x="263" y="110" width="52" height="22" rx="10" ry="10"></rect>
<text x="289" y="125">"?="</text>
</g>
<path d="M315 121a10 10 0 0 0 10 -10v-10a10 10 0 0 1 10 -10"></path>
</g>
<path d="M335 91h10"></path>
<g class="non-terminal">
<path d="M345 91h0"></path>
<path d="M413 91h0"></path>
<rect x="345" y="80" width="68" height="22"></rect>
<a xlink:href="reuse_source.svg"><text x="379" y="95">source</text>
</a>
</g>
</g>
<path d="M518 91a10 10 0 0 0 10 -10v-40a10 10 0 0 1 10 -10"></path>
</g>
<path d="M 538 31 h 20 m -10 -10 v 20 m 10 -20 v 20"></path>
</g>
</svg>
