<svg xmlns="http://www.w3.org/2000/svg" xmlns:xlink="http://www.w3.org/1999/xlink" class="railroad-diagram" width="422" height="101" viewBox="0 0 422 101">
<defs>
<style type="text/css"><![CDATA[
path {
stroke-width: 3;
stroke: black;
fill: rgba(0,0,0,0);
}
text {
font: bold 14px monospace;
text-anchor: middle;
}
text.diagram-text {
font-size: 12px;
}
a {
fill: blue;
}
text.diagram-arrow {
font-size: 16px;
}
text.label {
text-anchor: start;
}
text.comment {
font: italic 12px monospace;
}
rect {
stroke-width: 3;
stroke: black;
fill: #BCBCBC;
}
path.diagram-text {
stroke-width: 3;
stroke: black;
fill: #BCBCBC;
cursor: help;
}
]]></style>
</defs>
<g transform="translate(.5 .5)">
<path d="M 20 30 v 20 m 10 -20 v 20 m -10 -10 h 20.5"></path>
<path d="M40 40h10"></path>
<g>
<path d="M50 40h0"></path>
<path d="M372 40h0"></path>
<g class="terminal">
<path d="M50 40h0"></path>
<path d="M150 40h0"></path>
<rect x="50" y="29" width="100" height="22" rx="10" ry="10"></rect>
<text x="100" y="44">"NEW-LINE"</text>
</g>
<path d="M150 40h10"></path>
<g>
<path d="M160 40h0"></path>
<path d="M372 40h0"></path>
<path d="M160 40a10 10 0 0 0 10 -10v0a10 10 0 0 1 10 -10"></path>
<g>
<path d="M180 20h172"></path>
</g>
<path d="M352 20a10 10 0 0 1 10 10v0a10 10 0 0 0 10 10"></path>
<path d="M160 40h20"></path>
<g>
<path d="M180 40h0"></path>
<path d="M352 40h0"></path>
<path d="M180 40h20"></path>
<g class="terminal">
<path d="M200 40h0"></path>
<path d="M308 40h24"></path>
<rect x="200" y="29" width="108" height="22" rx="10" ry="10"></rect>
<text x="254" y="44">"SCROLLING"</text>
</g>
<path d="M332 40h20"></path>
<path d="M180 40a10 10 0 0 1 10 10v10a10 10 0 0 0 10 10"></path>
<g class="terminal">
<path d="M200 70h0"></path>
<path d="M332 70h0"></path>
<rect x="200" y="59" width="132" height="22" rx="10" ry="10"></rect>
<text x="266" y="74">"NO-SCROLLING"</text>
</g>
<path d="M332 70a10 10 0 0 0 10 -10v-10a10 10 0 0 1 10 -10"></path>
</g>
<path d="M352 40h20"></path>
</g>
</g>
<path d="M372 40h10"></path>
<path d="M 382 40 h 20 m -10 -10 v 20 m 10 -20 v 20"></path>
</g>
</svg>
