<svg xmlns="http://www.w3.org/2000/svg" xmlns:xlink="http://www.w3.org/1999/xlink" class="railroad-diagram" width="486" height="212" viewBox="0 0 486 212">
<defs>
<style type="text/css"><![CDATA[
path {
stroke-width: 3;
stroke: black;
fill: rgba(0,0,0,0);
}
text {
font: bold 14px monospace;
text-anchor: middle;
}
text.diagram-text {
font-size: 12px;
}
a {
fill: blue;
}
text.diagram-arrow {
font-size: 16px;
}
text.label {
text-anchor: start;
}
text.comment {
font: italic 12px monospace;
}
rect {
stroke-width: 3;
stroke: black;
fill: #BCBCBC;
}
path.diagram-text {
stroke-width: 3;
stroke: black;
fill: #BCBCBC;
cursor: help;
}
]]></style>
</defs>
<g transform="translate(.5 .5)">
<path d="M 20 21 v 20 m 10 -20 v 20 m -10 -10 h 20.5"></path>
<path d="M40 31h10"></path>
<g>
<path d="M50 31h0"></path>
<path d="M436 31h0"></path>
<g class="terminal">
<path d="M50 31h0"></path>
<path d="M150 31h0"></path>
<rect x="50" y="20" width="100" height="22" rx="10" ry="10"></rect>
<text x="100" y="35">"NEW-PAGE"</text>
</g>
<path d="M150 31h10"></path>
<path d="M160 31h10"></path>
<g>
<path d="M170 31h0"></path>
<path d="M436 31h0"></path>
<path d="M200 31h10"></path>
<g>
<path d="M210 31h0"></path>
<path d="M396 31h10"></path>
<g class="terminal">
<path d="M210 31h0"></path>
<path d="M286 31h0"></path>
<rect x="210" y="20" width="76" height="22" rx="10" ry="10"></rect>
<text x="248" y="35">"PRINT"</text>
</g>
<path d="M286 31h10"></path>
<g>
<path d="M296 31h0"></path>
<path d="M396 31h0"></path>
<path d="M296 31h20"></path>
<g class="terminal">
<path d="M316 31h0"></path>
<path d="M376 31h0"></path>
<rect x="316" y="20" width="60" height="22" rx="10" ry="10"></rect>
<text x="346" y="35">"OFF"</text>
</g>
<path d="M376 31h20"></path>
<path d="M296 31a10 10 0 0 1 10 10v10a10 10 0 0 0 10 10"></path>
<g class="terminal">
<path d="M316 61h0"></path>
<path d="M368 61h8"></path>
<rect x="316" y="50" width="52" height="22" rx="10" ry="10"></rect>
<text x="342" y="65">"ON"</text>
</g>
<path d="M376 61a10 10 0 0 0 10 -10v-10a10 10 0 0 1 10 -10"></path>
</g>
</g>
<path d="M406 31h10"></path>
<path d="M200 31v50a10 10 0 0 0 10 10"></path>
<g>
<path d="M210 91h0"></path>
<path d="M366 91h40"></path>
<path d="M210 91h20"></path>
<g class="terminal">
<path d="M230 91h0"></path>
<path d="M330 91h16"></path>
<rect x="230" y="80" width="100" height="22" rx="10" ry="10"></rect>
<text x="280" y="95">"NO-TITLE"</text>
</g>
<path d="M346 91h20"></path>
<path d="M210 91a10 10 0 0 1 10 10v10a10 10 0 0 0 10 10"></path>
<g class="terminal">
<path d="M230 121h0"></path>
<path d="M346 121h0"></path>
<rect x="230" y="110" width="116" height="22" rx="10" ry="10"></rect>
<text x="288" y="125">"WITH-TITLE"</text>
</g>
<path d="M346 121a10 10 0 0 0 10 -10v-10a10 10 0 0 1 10 -10"></path>
</g>
<path d="M406 91a10 10 0 0 0 10 -10v-50"></path>
<path d="M200 31v110a10 10 0 0 0 10 10"></path>
<g class="terminal">
<path d="M210 151h0"></path>
<path d="M326 151h80"></path>
<rect x="210" y="140" width="116" height="22" rx="10" ry="10"></rect>
<text x="268" y="155">"NO-HEADING"</text>
</g>
<path d="M406 151a10 10 0 0 0 10 -10v-110"></path>
<path d="M200 31v140a10 10 0 0 0 10 10"></path>
<g>
<path d="M210 181h0"></path>
<path d="M406 181h0"></path>
<g class="terminal">
<path d="M210 181h0"></path>
<path d="M318 181h0"></path>
<rect x="210" y="170" width="108" height="22" rx="10" ry="10"></rect>
<text x="264" y="185">"LINE-SIZE"</text>
</g>
<path d="M318 181h10"></path>
<path d="M328 181h10"></path>
<g class="non-terminal">
<path d="M338 181h0"></path>
<path d="M406 181h0"></path>
<rect x="338" y="170" width="68" height="22"></rect>
<a xlink:href="reuse_source.svg"><text x="372" y="185">Source</text>
</a>
</g>
</g>
<path d="M406 181a10 10 0 0 0 10 -10v-140"></path>
<g class="diagram-text">
<title>take one or more branches, once each, in any order</title>
<path d="M 200 21 h -26 a 4 4 0 0 0 -4 4 v 12 a 4 4 0 0 0 4 4 h 26 z" class="diagram-text"></path>
<text x="185" y="35" class="diagram-text">1+</text>
<path d="M 416 21 h 16 a 4 4 0 0 1 4 4 v 12 a 4 4 0 0 1 -4 4 h -16 z" class="diagram-text"></path>
<path d="M 423 29 a 4 4 0 1 0 6 -1 m 2.75 -1 h -4 v 4 m 0 -3 h 2" style="stroke-width: 1.75"></path>
</g>
</g>
</g>
<path d="M436 31h10"></path>
<path d="M 446 31 h 20 m -10 -10 v 20 m 10 -20 v 20"></path>
</g>
</svg>
