<svg xmlns="http://www.w3.org/2000/svg" xmlns:xlink="http://www.w3.org/1999/xlink" class="railroad-diagram" width="810" height="302" viewBox="0 0 810 302">
<defs>
<style type="text/css"><![CDATA[
path {
stroke-width: 3;
stroke: black;
fill: rgba(0,0,0,0);
}
text {
font: bold 14px monospace;
text-anchor: middle;
}
text.diagram-text {
font-size: 12px;
}
a {
fill: blue;
}
text.diagram-arrow {
font-size: 16px;
}
text.label {
text-anchor: start;
}
text.comment {
font: italic 12px monospace;
}
rect {
stroke-width: 3;
stroke: black;
fill: #BCBCBC;
}
path.diagram-text {
stroke-width: 3;
stroke: black;
fill: #BCBCBC;
cursor: help;
}
]]></style>
</defs>
<g transform="translate(.5 .5)">
<path d="M 20 21 v 20 m 10 -20 v 20 m -10 -10 h 20.5"></path>
<path d="M40 31h10"></path>
<g>
<path d="M50 31h0"></path>
<path d="M760 31h0"></path>
<g class="terminal">
<path d="M50 31h0"></path>
<path d="M182 31h0"></path>
<rect x="50" y="20" width="132" height="22" rx="10" ry="10"></rect>
<text x="116" y="35">"OPEN DATASET"</text>
</g>
<path d="M182 31h10"></path>
<path d="M192 31h10"></path>
<g class="non-terminal">
<path d="M202 31h0"></path>
<path d="M270 31h0"></path>
<rect x="202" y="20" width="68" height="22"></rect>
<a xlink:href="reuse_target.svg"><text x="236" y="35">Target</text>
</a>
</g>
<path d="M270 31h10"></path>
<g>
<path d="M280 31h0"></path>
<path d="M436 31h0"></path>
<path d="M280 31h20"></path>
<g class="terminal">
<path d="M300 31h0"></path>
<path d="M416 31h0"></path>
<rect x="300" y="20" width="116" height="22" rx="10" ry="10"></rect>
<text x="358" y="35">"FOR OUTPUT"</text>
</g>
<path d="M416 31h20"></path>
<path d="M280 31a10 10 0 0 1 10 10v10a10 10 0 0 0 10 10"></path>
<g class="terminal">
<path d="M300 61h0"></path>
<path d="M408 61h8"></path>
<rect x="300" y="50" width="108" height="22" rx="10" ry="10"></rect>
<text x="354" y="65">"FOR INPUT"</text>
</g>
<path d="M416 61a10 10 0 0 0 10 -10v-10a10 10 0 0 1 10 -10"></path>
</g>
<path d="M436 31h10"></path>
<g>
<path d="M446 31h0"></path>
<path d="M760 31h0"></path>
<path d="M476 31h10"></path>
<g>
<path d="M486 31h0"></path>
<path d="M730 31h0"></path>
<path d="M486 31h20"></path>
<g class="terminal">
<path d="M506 31h0"></path>
<path d="M654 31h56"></path>
<rect x="506" y="20" width="148" height="22" rx="10" ry="10"></rect>
<text x="580" y="35">"IN BINARY MODE"</text>
</g>
<path d="M710 31h20"></path>
<path d="M486 31a10 10 0 0 1 10 10v10a10 10 0 0 0 10 10"></path>
<g class="terminal">
<path d="M506 61h0"></path>
<path d="M638 61h72"></path>
<rect x="506" y="50" width="132" height="22" rx="10" ry="10"></rect>
<text x="572" y="65">"IN TEXT MODE"</text>
</g>
<path d="M710 61a10 10 0 0 0 10 -10v-10a10 10 0 0 1 10 -10"></path>
<path d="M486 31a10 10 0 0 1 10 10v40a10 10 0 0 0 10 10"></path>
<g class="terminal">
<path d="M506 91h0"></path>
<path d="M694 91h16"></path>
<rect x="506" y="80" width="188" height="22" rx="10" ry="10"></rect>
<text x="600" y="95">"IN LEGACY TEXT MODE"</text>
</g>
<path d="M710 91a10 10 0 0 0 10 -10v-40a10 10 0 0 1 10 -10"></path>
<path d="M486 31a10 10 0 0 1 10 10v70a10 10 0 0 0 10 10"></path>
<g class="terminal">
<path d="M506 121h0"></path>
<path d="M710 121h0"></path>
<rect x="506" y="110" width="204" height="22" rx="10" ry="10"></rect>
<text x="608" y="125">"IN LEGACY BINARY MODE"</text>
</g>
<path d="M710 121a10 10 0 0 0 10 -10v-70a10 10 0 0 1 10 -10"></path>
</g>
<path d="M730 31h10"></path>
<path d="M476 31v110a10 10 0 0 0 10 10"></path>
<g>
<path d="M486 151h0"></path>
<path d="M674 151h56"></path>
<g class="terminal">
<path d="M486 151h0"></path>
<path d="M586 151h0"></path>
<rect x="486" y="140" width="100" height="22" rx="10" ry="10"></rect>
<text x="536" y="155">"ENCODING"</text>
</g>
<path d="M586 151h10"></path>
<path d="M596 151h10"></path>
<g class="non-terminal">
<path d="M606 151h0"></path>
<path d="M674 151h0"></path>
<rect x="606" y="140" width="68" height="22"></rect>
<a xlink:href="reuse_source.svg"><text x="640" y="155">Source</text>
</a>
</g>
</g>
<path d="M730 151a10 10 0 0 0 10 -10v-110"></path>
<path d="M476 31v140a10 10 0 0 0 10 10"></path>
<g>
<path d="M486 181h0"></path>
<path d="M698 181h32"></path>
<g class="terminal">
<path d="M486 181h0"></path>
<path d="M610 181h0"></path>
<rect x="486" y="170" width="124" height="22" rx="10" ry="10"></rect>
<text x="548" y="185">"AT POSITION"</text>
</g>
<path d="M610 181h10"></path>
<path d="M620 181h10"></path>
<g class="non-terminal">
<path d="M630 181h0"></path>
<path d="M698 181h0"></path>
<rect x="630" y="170" width="68" height="22"></rect>
<a xlink:href="reuse_source.svg"><text x="664" y="185">Source</text>
</a>
</g>
</g>
<path d="M730 181a10 10 0 0 0 10 -10v-140"></path>
<path d="M476 31v170a10 10 0 0 0 10 10"></path>
<g>
<path d="M486 211h0"></path>
<path d="M666 211h64"></path>
<g class="terminal">
<path d="M486 211h0"></path>
<path d="M578 211h0"></path>
<rect x="486" y="200" width="92" height="22" rx="10" ry="10"></rect>
<text x="532" y="215">"MESSAGE"</text>
</g>
<path d="M578 211h10"></path>
<path d="M588 211h10"></path>
<g class="non-terminal">
<path d="M598 211h0"></path>
<path d="M666 211h0"></path>
<rect x="598" y="200" width="68" height="22"></rect>
<a xlink:href="reuse_target.svg"><text x="632" y="215">Target</text>
</a>
</g>
</g>
<path d="M730 211a10 10 0 0 0 10 -10v-170"></path>
<path d="M476 31v200a10 10 0 0 0 10 10"></path>
<g class="terminal">
<path d="M486 241h0"></path>
<path d="M730 241h0"></path>
<rect x="486" y="230" width="244" height="22" rx="10" ry="10"></rect>
<text x="608" y="245">"IGNORING CONVERSION ERRORS"</text>
</g>
<path d="M730 241a10 10 0 0 0 10 -10v-200"></path>
<path d="M476 31v230a10 10 0 0 0 10 10"></path>
<g class="terminal">
<path d="M486 271h0"></path>
<path d="M714 271h16"></path>
<rect x="486" y="260" width="228" height="22" rx="10" ry="10"></rect>
<text x="600" y="275">"SKIPPING BYTE-ORDER MARK"</text>
</g>
<path d="M730 271a10 10 0 0 0 10 -10v-230"></path>
<g class="diagram-text">
<title>take one or more branches, once each, in any order</title>
<path d="M 476 21 h -26 a 4 4 0 0 0 -4 4 v 12 a 4 4 0 0 0 4 4 h 26 z" class="diagram-text"></path>
<text x="461" y="35" class="diagram-text">1+</text>
<path d="M 740 21 h 16 a 4 4 0 0 1 4 4 v 12 a 4 4 0 0 1 -4 4 h -16 z" class="diagram-text"></path>
<path d="M 747 29 a 4 4 0 1 0 6 -1 m 2.75 -1 h -4 v 4 m 0 -3 h 2" style="stroke-width: 1.75"></path>
</g>
</g>
</g>
<path d="M760 31h10"></path>
<path d="M 770 31 h 20 m -10 -10 v 20 m 10 -20 v 20"></path>
</g>
</svg>
