<svg xmlns="http://www.w3.org/2000/svg" xmlns:xlink="http://www.w3.org/1999/xlink" class="railroad-diagram" width="910" height="101" viewBox="0 0 910 101">
<defs>
<style type="text/css"><![CDATA[
path {
stroke-width: 3;
stroke: black;
fill: rgba(0,0,0,0);
}
text {
font: bold 14px monospace;
text-anchor: middle;
}
text.diagram-text {
font-size: 12px;
}
a {
fill: blue;
}
text.diagram-arrow {
font-size: 16px;
}
text.label {
text-anchor: start;
}
text.comment {
font: italic 12px monospace;
}
rect {
stroke-width: 3;
stroke: black;
fill: #BCBCBC;
}
path.diagram-text {
stroke-width: 3;
stroke: black;
fill: #BCBCBC;
cursor: help;
}
]]></style>
</defs>
<g transform="translate(.5 .5)">
<path d="M 20 30 v 20 m 10 -20 v 20 m -10 -10 h 20.5"></path>
<path d="M40 40h10"></path>
<g>
<path d="M50 40h0"></path>
<path d="M860 40h0"></path>
<g class="terminal">
<path d="M50 40h0"></path>
<path d="M182 40h0"></path>
<rect x="50" y="29" width="132" height="22" rx="10" ry="10"></rect>
<text x="116" y="44">"OPEN DATASET"</text>
</g>
<path d="M182 40h10"></path>
<path d="M192 40h10"></path>
<g class="non-terminal">
<path d="M202 40h0"></path>
<path d="M262 40h0"></path>
<rect x="202" y="29" width="60" height="22"></rect>
<a xlink:href="reuse_Field.svg"><text x="232" y="44">Field</text>
</a>
</g>
<path d="M262 40h10"></path>
<g>
<path d="M272 40h0"></path>
<path d="M428 40h0"></path>
<path d="M272 40h20"></path>
<g class="terminal">
<path d="M292 40h0"></path>
<path d="M408 40h0"></path>
<rect x="292" y="29" width="116" height="22" rx="10" ry="10"></rect>
<text x="350" y="44">"FOR OUTPUT"</text>
</g>
<path d="M408 40h20"></path>
<path d="M272 40a10 10 0 0 1 10 10v10a10 10 0 0 0 10 10"></path>
<g class="terminal">
<path d="M292 70h0"></path>
<path d="M400 70h8"></path>
<rect x="292" y="59" width="108" height="22" rx="10" ry="10"></rect>
<text x="346" y="74">"FOR INPUT"</text>
</g>
<path d="M408 70a10 10 0 0 0 10 -10v-10a10 10 0 0 1 10 -10"></path>
</g>
<g>
<path d="M428 40h0"></path>
<path d="M656 40h0"></path>
<path d="M428 40a10 10 0 0 0 10 -10v0a10 10 0 0 1 10 -10"></path>
<g>
<path d="M448 20h188"></path>
</g>
<path d="M636 20a10 10 0 0 1 10 10v0a10 10 0 0 0 10 10"></path>
<path d="M428 40h20"></path>
<g>
<path d="M448 40h0"></path>
<path d="M636 40h0"></path>
<path d="M448 40h20"></path>
<g class="terminal">
<path d="M468 40h0"></path>
<path d="M616 40h0"></path>
<rect x="468" y="29" width="148" height="22" rx="10" ry="10"></rect>
<text x="542" y="44">"IN BINARY MODE"</text>
</g>
<path d="M616 40h20"></path>
<path d="M448 40a10 10 0 0 1 10 10v10a10 10 0 0 0 10 10"></path>
<g class="terminal">
<path d="M468 70h0"></path>
<path d="M600 70h16"></path>
<rect x="468" y="59" width="132" height="22" rx="10" ry="10"></rect>
<text x="534" y="74">"IN TEXT MODE"</text>
</g>
<path d="M616 70a10 10 0 0 0 10 -10v-10a10 10 0 0 1 10 -10"></path>
</g>
<path d="M636 40h20"></path>
</g>
<g>
<path d="M656 40h0"></path>
<path d="M860 40h0"></path>
<path d="M656 40a10 10 0 0 0 10 -10v0a10 10 0 0 1 10 -10"></path>
<g>
<path d="M676 20h164"></path>
</g>
<path d="M840 20a10 10 0 0 1 10 10v0a10 10 0 0 0 10 10"></path>
<path d="M656 40h20"></path>
<g class="terminal">
<path d="M676 40h0"></path>
<path d="M840 40h0"></path>
<rect x="676" y="29" width="164" height="22" rx="10" ry="10"></rect>
<text x="758" y="44">"ENCODING DEFAULT"</text>
</g>
<path d="M840 40h20"></path>
</g>
</g>
<path d="M860 40h10"></path>
<path d="M 870 40 h 20 m -10 -10 v 20 m 10 -20 v 20"></path>
</g>
</svg>
