<svg xmlns="http://www.w3.org/2000/svg" xmlns:xlink="http://www.w3.org/1999/xlink" class="railroad-diagram" width="916" height="251" viewBox="0 0 916 251">
<defs>
<style type="text/css"><![CDATA[
path {
stroke-width: 3;
stroke: black;
fill: rgba(0,0,0,0);
}
text {
font: bold 14px monospace;
text-anchor: middle;
}
text.diagram-text {
font-size: 12px;
}
a {
fill: blue;
}
text.diagram-arrow {
font-size: 16px;
}
text.label {
text-anchor: start;
}
text.comment {
font: italic 12px monospace;
}
rect {
stroke-width: 3;
stroke: black;
fill: #BCBCBC;
}
path.diagram-text {
stroke-width: 3;
stroke: black;
fill: #BCBCBC;
cursor: help;
}
]]></style>
</defs>
<g transform="translate(.5 .5)">
<path d="M 20 30 v 20 m 10 -20 v 20 m -10 -10 h 20.5"></path>
<path d="M40 40h10"></path>
<g>
<path d="M50 40h0"></path>
<path d="M866 40h0"></path>
<g class="terminal">
<path d="M50 40h0"></path>
<path d="M182 40h0"></path>
<rect x="50" y="29" width="132" height="22" rx="10" ry="10"></rect>
<text x="116" y="44">"OPEN DATASET"</text>
</g>
<path d="M182 40h10"></path>
<path d="M192 40h10"></path>
<g class="non-terminal">
<path d="M202 40h0"></path>
<path d="M270 40h0"></path>
<rect x="202" y="29" width="68" height="22"></rect>
<a xlink:href="reuse_target.svg"><text x="236" y="44">Target</text>
</a>
</g>
<path d="M270 40h10"></path>
<g>
<path d="M280 40h0"></path>
<path d="M436 40h0"></path>
<path d="M280 40h20"></path>
<g class="terminal">
<path d="M300 40h0"></path>
<path d="M416 40h0"></path>
<rect x="300" y="29" width="116" height="22" rx="10" ry="10"></rect>
<text x="358" y="44">"FOR OUTPUT"</text>
</g>
<path d="M416 40h20"></path>
<path d="M280 40a10 10 0 0 1 10 10v10a10 10 0 0 0 10 10"></path>
<g class="terminal">
<path d="M300 70h0"></path>
<path d="M408 70h8"></path>
<rect x="300" y="59" width="108" height="22" rx="10" ry="10"></rect>
<text x="354" y="74">"FOR INPUT"</text>
</g>
<path d="M416 70a10 10 0 0 0 10 -10v-10a10 10 0 0 1 10 -10"></path>
</g>
<path d="M436 40h10"></path>
<g>
<path d="M446 40h0"></path>
<path d="M866 40h0"></path>
<path d="M476 40h10"></path>
<g>
<path d="M486 40h0"></path>
<path d="M836 40h0"></path>
<g class="terminal">
<path d="M486 40h0"></path>
<path d="M538 40h0"></path>
<rect x="486" y="29" width="52" height="22" rx="10" ry="10"></rect>
<text x="512" y="44">"IN"</text>
</g>
<path d="M538 40h10"></path>
<g>
<path d="M548 40h0"></path>
<path d="M672 40h0"></path>
<path d="M548 40a10 10 0 0 0 10 -10v0a10 10 0 0 1 10 -10"></path>
<g>
<path d="M568 20h84"></path>
</g>
<path d="M652 20a10 10 0 0 1 10 10v0a10 10 0 0 0 10 10"></path>
<path d="M548 40h20"></path>
<g class="terminal">
<path d="M568 40h0"></path>
<path d="M652 40h0"></path>
<rect x="568" y="29" width="84" height="22" rx="10" ry="10"></rect>
<text x="610" y="44">"LEGACY"</text>
</g>
<path d="M652 40h20"></path>
</g>
<g>
<path d="M672 40h0"></path>
<path d="M836 40h0"></path>
<path d="M672 40h20"></path>
<g class="terminal">
<path d="M692 40h0"></path>
<path d="M816 40h0"></path>
<rect x="692" y="29" width="124" height="22" rx="10" ry="10"></rect>
<text x="754" y="44">"BINARY MODE"</text>
</g>
<path d="M816 40h20"></path>
<path d="M672 40a10 10 0 0 1 10 10v10a10 10 0 0 0 10 10"></path>
<g class="terminal">
<path d="M692 70h0"></path>
<path d="M800 70h16"></path>
<rect x="692" y="59" width="108" height="22" rx="10" ry="10"></rect>
<text x="746" y="74">"TEXT MODE"</text>
</g>
<path d="M816 70a10 10 0 0 0 10 -10v-10a10 10 0 0 1 10 -10"></path>
</g>
</g>
<path d="M836 40h10"></path>
<path d="M476 40v50a10 10 0 0 0 10 10"></path>
<g>
<path d="M486 100h0"></path>
<path d="M674 100h162"></path>
<g class="terminal">
<path d="M486 100h0"></path>
<path d="M586 100h0"></path>
<rect x="486" y="89" width="100" height="22" rx="10" ry="10"></rect>
<text x="536" y="104">"ENCODING"</text>
</g>
<path d="M586 100h10"></path>
<path d="M596 100h10"></path>
<g class="non-terminal">
<path d="M606 100h0"></path>
<path d="M674 100h0"></path>
<rect x="606" y="89" width="68" height="22"></rect>
<a xlink:href="reuse_source.svg"><text x="640" y="104">Source</text>
</a>
</g>
</g>
<path d="M836 100a10 10 0 0 0 10 -10v-50"></path>
<path d="M476 40v80a10 10 0 0 0 10 10"></path>
<g>
<path d="M486 130h0"></path>
<path d="M698 130h138"></path>
<g class="terminal">
<path d="M486 130h0"></path>
<path d="M610 130h0"></path>
<rect x="486" y="119" width="124" height="22" rx="10" ry="10"></rect>
<text x="548" y="134">"AT POSITION"</text>
</g>
<path d="M610 130h10"></path>
<path d="M620 130h10"></path>
<g class="non-terminal">
<path d="M630 130h0"></path>
<path d="M698 130h0"></path>
<rect x="630" y="119" width="68" height="22"></rect>
<a xlink:href="reuse_source.svg"><text x="664" y="134">Source</text>
</a>
</g>
</g>
<path d="M836 130a10 10 0 0 0 10 -10v-80"></path>
<path d="M476 40v110a10 10 0 0 0 10 10"></path>
<g>
<path d="M486 160h0"></path>
<path d="M666 160h170"></path>
<g class="terminal">
<path d="M486 160h0"></path>
<path d="M578 160h0"></path>
<rect x="486" y="149" width="92" height="22" rx="10" ry="10"></rect>
<text x="532" y="164">"MESSAGE"</text>
</g>
<path d="M578 160h10"></path>
<path d="M588 160h10"></path>
<g class="non-terminal">
<path d="M598 160h0"></path>
<path d="M666 160h0"></path>
<rect x="598" y="149" width="68" height="22"></rect>
<a xlink:href="reuse_target.svg"><text x="632" y="164">Target</text>
</a>
</g>
</g>
<path d="M836 160a10 10 0 0 0 10 -10v-110"></path>
<path d="M476 40v140a10 10 0 0 0 10 10"></path>
<g class="terminal">
<path d="M486 190h0"></path>
<path d="M730 190h106"></path>
<rect x="486" y="179" width="244" height="22" rx="10" ry="10"></rect>
<text x="608" y="194">"IGNORING CONVERSION ERRORS"</text>
</g>
<path d="M836 190a10 10 0 0 0 10 -10v-140"></path>
<path d="M476 40v170a10 10 0 0 0 10 10"></path>
<g class="terminal">
<path d="M486 220h0"></path>
<path d="M714 220h122"></path>
<rect x="486" y="209" width="228" height="22" rx="10" ry="10"></rect>
<text x="600" y="224">"SKIPPING BYTE-ORDER MARK"</text>
</g>
<path d="M836 220a10 10 0 0 0 10 -10v-170"></path>
<g class="diagram-text">
<title>take one or more branches, once each, in any order</title>
<path d="M 476 30 h -26 a 4 4 0 0 0 -4 4 v 12 a 4 4 0 0 0 4 4 h 26 z" class="diagram-text"></path>
<text x="461" y="44" class="diagram-text">1+</text>
<path d="M 846 30 h 16 a 4 4 0 0 1 4 4 v 12 a 4 4 0 0 1 -4 4 h -16 z" class="diagram-text"></path>
<path d="M 853 38 a 4 4 0 1 0 6 -1 m 2.75 -1 h -4 v 4 m 0 -3 h 2" style="stroke-width: 1.75"></path>
</g>
</g>
</g>
<path d="M866 40h10"></path>
<path d="M 876 40 h 20 m -10 -10 v 20 m 10 -20 v 20"></path>
</g>
</svg>
