<svg xmlns="http://www.w3.org/2000/svg" xmlns:xlink="http://www.w3.org/1999/xlink" class="railroad-diagram" width="760" height="371" viewBox="0 0 760 371">
<defs>
<style type="text/css"><![CDATA[
path {
stroke-width: 3;
stroke: black;
fill: rgba(0,0,0,0);
}
text {
font: bold 14px monospace;
text-anchor: middle;
}
text.diagram-text {
font-size: 12px;
}
a {
fill: blue;
}
text.diagram-arrow {
font-size: 16px;
}
text.label {
text-anchor: start;
}
text.comment {
font: italic 12px monospace;
}
rect {
stroke-width: 3;
stroke: black;
fill: #BCBCBC;
}
path.diagram-text {
stroke-width: 3;
stroke: black;
fill: #BCBCBC;
cursor: help;
}
]]></style>
</defs>
<g transform="translate(.5 .5)">
<path d="M 20 21 v 20 m 10 -20 v 20 m -10 -10 h 20.5"></path>
<path d="M40 31h10"></path>
<g>
<path d="M50 31h0"></path>
<path d="M710 31h0"></path>
<g class="terminal">
<path d="M50 31h0"></path>
<path d="M182 31h0"></path>
<rect x="50" y="20" width="132" height="22" rx="10" ry="10"></rect>
<text x="116" y="35">"OPEN DATASET"</text>
</g>
<path d="M182 31h10"></path>
<path d="M192 31h10"></path>
<g class="non-terminal">
<path d="M202 31h0"></path>
<path d="M270 31h0"></path>
<rect x="202" y="20" width="68" height="22"></rect>
<a xlink:href="reuse_target.svg"><text x="236" y="35">Target</text>
</a>
</g>
<path d="M270 31h10"></path>
<path d="M280 31h10"></path>
<g>
<path d="M290 31h0"></path>
<path d="M710 31h0"></path>
<path d="M320 31h10"></path>
<g>
<path d="M330 31h0"></path>
<path d="M548 31h132"></path>
<g class="terminal">
<path d="M330 31h0"></path>
<path d="M390 31h0"></path>
<rect x="330" y="20" width="60" height="22" rx="10" ry="10"></rect>
<text x="360" y="35">"FOR"</text>
</g>
<path d="M390 31h10"></path>
<g>
<path d="M400 31h0"></path>
<path d="M548 31h0"></path>
<path d="M400 31h20"></path>
<g class="terminal">
<path d="M420 31h0"></path>
<path d="M504 31h24"></path>
<rect x="420" y="20" width="84" height="22" rx="10" ry="10"></rect>
<text x="462" y="35">"OUTPUT"</text>
</g>
<path d="M528 31h20"></path>
<path d="M400 31a10 10 0 0 1 10 10v10a10 10 0 0 0 10 10"></path>
<g class="terminal">
<path d="M420 61h0"></path>
<path d="M496 61h32"></path>
<rect x="420" y="50" width="76" height="22" rx="10" ry="10"></rect>
<text x="458" y="65">"INPUT"</text>
</g>
<path d="M528 61a10 10 0 0 0 10 -10v-10a10 10 0 0 1 10 -10"></path>
<path d="M400 31a10 10 0 0 1 10 10v40a10 10 0 0 0 10 10"></path>
<g class="terminal">
<path d="M420 91h0"></path>
<path d="M528 91h0"></path>
<rect x="420" y="80" width="108" height="22" rx="10" ry="10"></rect>
<text x="474" y="95">"APPENDING"</text>
</g>
<path d="M528 91a10 10 0 0 0 10 -10v-40a10 10 0 0 1 10 -10"></path>
</g>
</g>
<path d="M680 31h10"></path>
<path d="M320 31v89a10 10 0 0 0 10 10"></path>
<g>
<path d="M330 130h0"></path>
<path d="M680 130h0"></path>
<g class="terminal">
<path d="M330 130h0"></path>
<path d="M382 130h0"></path>
<rect x="330" y="119" width="52" height="22" rx="10" ry="10"></rect>
<text x="356" y="134">"IN"</text>
</g>
<path d="M382 130h10"></path>
<g>
<path d="M392 130h0"></path>
<path d="M516 130h0"></path>
<path d="M392 130a10 10 0 0 0 10 -10v0a10 10 0 0 1 10 -10"></path>
<g>
<path d="M412 110h84"></path>
</g>
<path d="M496 110a10 10 0 0 1 10 10v0a10 10 0 0 0 10 10"></path>
<path d="M392 130h20"></path>
<g class="terminal">
<path d="M412 130h0"></path>
<path d="M496 130h0"></path>
<rect x="412" y="119" width="84" height="22" rx="10" ry="10"></rect>
<text x="454" y="134">"LEGACY"</text>
</g>
<path d="M496 130h20"></path>
</g>
<g>
<path d="M516 130h0"></path>
<path d="M680 130h0"></path>
<path d="M516 130h20"></path>
<g class="terminal">
<path d="M536 130h0"></path>
<path d="M660 130h0"></path>
<rect x="536" y="119" width="124" height="22" rx="10" ry="10"></rect>
<text x="598" y="134">"BINARY MODE"</text>
</g>
<path d="M660 130h20"></path>
<path d="M516 130a10 10 0 0 1 10 10v10a10 10 0 0 0 10 10"></path>
<g class="terminal">
<path d="M536 160h0"></path>
<path d="M644 160h16"></path>
<rect x="536" y="149" width="108" height="22" rx="10" ry="10"></rect>
<text x="590" y="164">"TEXT MODE"</text>
</g>
<path d="M660 160a10 10 0 0 0 10 -10v-10a10 10 0 0 1 10 -10"></path>
</g>
</g>
<path d="M680 130a10 10 0 0 0 10 -10v-89"></path>
<path d="M320 31v149a10 10 0 0 0 10 10"></path>
<g>
<path d="M330 190h0"></path>
<path d="M518 190h162"></path>
<g class="terminal">
<path d="M330 190h0"></path>
<path d="M430 190h0"></path>
<rect x="330" y="179" width="100" height="22" rx="10" ry="10"></rect>
<text x="380" y="194">"ENCODING"</text>
</g>
<path d="M430 190h10"></path>
<path d="M440 190h10"></path>
<g class="non-terminal">
<path d="M450 190h0"></path>
<path d="M518 190h0"></path>
<rect x="450" y="179" width="68" height="22"></rect>
<a xlink:href="reuse_source.svg"><text x="484" y="194">Source</text>
</a>
</g>
</g>
<path d="M680 190a10 10 0 0 0 10 -10v-149"></path>
<path d="M320 31v179a10 10 0 0 0 10 10"></path>
<g>
<path d="M330 220h0"></path>
<path d="M542 220h138"></path>
<g class="terminal">
<path d="M330 220h0"></path>
<path d="M454 220h0"></path>
<rect x="330" y="209" width="124" height="22" rx="10" ry="10"></rect>
<text x="392" y="224">"AT POSITION"</text>
</g>
<path d="M454 220h10"></path>
<path d="M464 220h10"></path>
<g class="non-terminal">
<path d="M474 220h0"></path>
<path d="M542 220h0"></path>
<rect x="474" y="209" width="68" height="22"></rect>
<a xlink:href="reuse_source.svg"><text x="508" y="224">Source</text>
</a>
</g>
</g>
<path d="M680 220a10 10 0 0 0 10 -10v-179"></path>
<path d="M320 31v209a10 10 0 0 0 10 10"></path>
<g>
<path d="M330 250h0"></path>
<path d="M510 250h170"></path>
<g class="terminal">
<path d="M330 250h0"></path>
<path d="M422 250h0"></path>
<rect x="330" y="239" width="92" height="22" rx="10" ry="10"></rect>
<text x="376" y="254">"MESSAGE"</text>
</g>
<path d="M422 250h10"></path>
<path d="M432 250h10"></path>
<g class="non-terminal">
<path d="M442 250h0"></path>
<path d="M510 250h0"></path>
<rect x="442" y="239" width="68" height="22"></rect>
<a xlink:href="reuse_target.svg"><text x="476" y="254">Target</text>
</a>
</g>
</g>
<path d="M680 250a10 10 0 0 0 10 -10v-209"></path>
<path d="M320 31v239a10 10 0 0 0 10 10"></path>
<g class="terminal">
<path d="M330 280h0"></path>
<path d="M574 280h106"></path>
<rect x="330" y="269" width="244" height="22" rx="10" ry="10"></rect>
<text x="452" y="284">"IGNORING CONVERSION ERRORS"</text>
</g>
<path d="M680 280a10 10 0 0 0 10 -10v-239"></path>
<path d="M320 31v269a10 10 0 0 0 10 10"></path>
<g class="terminal">
<path d="M330 310h0"></path>
<path d="M558 310h122"></path>
<rect x="330" y="299" width="228" height="22" rx="10" ry="10"></rect>
<text x="444" y="314">"SKIPPING BYTE-ORDER MARK"</text>
</g>
<path d="M680 310a10 10 0 0 0 10 -10v-269"></path>
<path d="M320 31v299a10 10 0 0 0 10 10"></path>
<g>
<path d="M330 340h0"></path>
<path d="M526 340h154"></path>
<g class="terminal">
<path d="M330 340h0"></path>
<path d="M438 340h0"></path>
<rect x="330" y="329" width="108" height="22" rx="10" ry="10"></rect>
<text x="384" y="344">"CODE PAGE"</text>
</g>
<path d="M438 340h10"></path>
<path d="M448 340h10"></path>
<g class="non-terminal">
<path d="M458 340h0"></path>
<path d="M526 340h0"></path>
<rect x="458" y="329" width="68" height="22"></rect>
<a xlink:href="reuse_source.svg"><text x="492" y="344">Source</text>
</a>
</g>
</g>
<path d="M680 340a10 10 0 0 0 10 -10v-299"></path>
<g class="diagram-text">
<title>take one or more branches, once each, in any order</title>
<path d="M 320 21 h -26 a 4 4 0 0 0 -4 4 v 12 a 4 4 0 0 0 4 4 h 26 z" class="diagram-text"></path>
<text x="305" y="35" class="diagram-text">1+</text>
<path d="M 690 21 h 16 a 4 4 0 0 1 4 4 v 12 a 4 4 0 0 1 -4 4 h -16 z" class="diagram-text"></path>
<path d="M 697 29 a 4 4 0 1 0 6 -1 m 2.75 -1 h -4 v 4 m 0 -3 h 2" style="stroke-width: 1.75"></path>
</g>
</g>
</g>
<path d="M710 31h10"></path>
<path d="M 720 31 h 20 m -10 -10 v 20 m 10 -20 v 20"></path>
</g>
</svg>
