<svg xmlns="http://www.w3.org/2000/svg" xmlns:xlink="http://www.w3.org/1999/xlink" class="railroad-diagram" width="802" height="302" viewBox="0 0 802 302">
<defs>
<style type="text/css"><![CDATA[
path {
stroke-width: 3;
stroke: black;
fill: rgba(0,0,0,0);
}
text {
font: bold 14px monospace;
text-anchor: middle;
}
text.diagram-text {
font-size: 12px;
}
a {
fill: blue;
}
text.diagram-arrow {
font-size: 16px;
}
text.label {
text-anchor: start;
}
text.comment {
font: italic 12px monospace;
}
rect {
stroke-width: 3;
stroke: black;
fill: #BCBCBC;
}
path.diagram-text {
stroke-width: 3;
stroke: black;
fill: #BCBCBC;
cursor: help;
}
]]></style>
</defs>
<g transform="translate(.5 .5)">
<path d="M 20 21 v 20 m 10 -20 v 20 m -10 -10 h 20.5"></path>
<path d="M40 31h10"></path>
<g>
<path d="M50 31h0"></path>
<path d="M752 31h0"></path>
<g class="terminal">
<path d="M50 31h0"></path>
<path d="M182 31h0"></path>
<rect x="50" y="20" width="132" height="22" rx="10" ry="10"></rect>
<text x="116" y="35">"OPEN DATASET"</text>
</g>
<path d="M182 31h10"></path>
<path d="M192 31h10"></path>
<g class="non-terminal">
<path d="M202 31h0"></path>
<path d="M262 31h0"></path>
<rect x="202" y="20" width="60" height="22"></rect>
<a xlink:href="reuse_field.svg"><text x="232" y="35">Field</text>
</a>
</g>
<path d="M262 31h10"></path>
<g>
<path d="M272 31h0"></path>
<path d="M428 31h0"></path>
<path d="M272 31h20"></path>
<g class="terminal">
<path d="M292 31h0"></path>
<path d="M408 31h0"></path>
<rect x="292" y="20" width="116" height="22" rx="10" ry="10"></rect>
<text x="350" y="35">"FOR OUTPUT"</text>
</g>
<path d="M408 31h20"></path>
<path d="M272 31a10 10 0 0 1 10 10v10a10 10 0 0 0 10 10"></path>
<g class="terminal">
<path d="M292 61h0"></path>
<path d="M400 61h8"></path>
<rect x="292" y="50" width="108" height="22" rx="10" ry="10"></rect>
<text x="346" y="65">"FOR INPUT"</text>
</g>
<path d="M408 61a10 10 0 0 0 10 -10v-10a10 10 0 0 1 10 -10"></path>
</g>
<path d="M428 31h10"></path>
<g>
<path d="M438 31h0"></path>
<path d="M752 31h0"></path>
<path d="M468 31h10"></path>
<g>
<path d="M478 31h0"></path>
<path d="M722 31h0"></path>
<path d="M478 31h20"></path>
<g class="terminal">
<path d="M498 31h0"></path>
<path d="M646 31h56"></path>
<rect x="498" y="20" width="148" height="22" rx="10" ry="10"></rect>
<text x="572" y="35">"IN BINARY MODE"</text>
</g>
<path d="M702 31h20"></path>
<path d="M478 31a10 10 0 0 1 10 10v10a10 10 0 0 0 10 10"></path>
<g class="terminal">
<path d="M498 61h0"></path>
<path d="M630 61h72"></path>
<rect x="498" y="50" width="132" height="22" rx="10" ry="10"></rect>
<text x="564" y="65">"IN TEXT MODE"</text>
</g>
<path d="M702 61a10 10 0 0 0 10 -10v-10a10 10 0 0 1 10 -10"></path>
<path d="M478 31a10 10 0 0 1 10 10v40a10 10 0 0 0 10 10"></path>
<g class="terminal">
<path d="M498 91h0"></path>
<path d="M686 91h16"></path>
<rect x="498" y="80" width="188" height="22" rx="10" ry="10"></rect>
<text x="592" y="95">"IN LEGACY TEXT MODE"</text>
</g>
<path d="M702 91a10 10 0 0 0 10 -10v-40a10 10 0 0 1 10 -10"></path>
<path d="M478 31a10 10 0 0 1 10 10v70a10 10 0 0 0 10 10"></path>
<g class="terminal">
<path d="M498 121h0"></path>
<path d="M702 121h0"></path>
<rect x="498" y="110" width="204" height="22" rx="10" ry="10"></rect>
<text x="600" y="125">"IN LEGACY BINARY MODE"</text>
</g>
<path d="M702 121a10 10 0 0 0 10 -10v-70a10 10 0 0 1 10 -10"></path>
</g>
<path d="M722 31h10"></path>
<path d="M468 31v110a10 10 0 0 0 10 10"></path>
<g>
<path d="M478 151h0"></path>
<path d="M666 151h56"></path>
<g class="terminal">
<path d="M478 151h0"></path>
<path d="M578 151h0"></path>
<rect x="478" y="140" width="100" height="22" rx="10" ry="10"></rect>
<text x="528" y="155">"ENCODING"</text>
</g>
<path d="M578 151h10"></path>
<path d="M588 151h10"></path>
<g class="non-terminal">
<path d="M598 151h0"></path>
<path d="M666 151h0"></path>
<rect x="598" y="140" width="68" height="22"></rect>
<a xlink:href="reuse_source.svg"><text x="632" y="155">Source</text>
</a>
</g>
</g>
<path d="M722 151a10 10 0 0 0 10 -10v-110"></path>
<path d="M468 31v140a10 10 0 0 0 10 10"></path>
<g>
<path d="M478 181h0"></path>
<path d="M690 181h32"></path>
<g class="terminal">
<path d="M478 181h0"></path>
<path d="M602 181h0"></path>
<rect x="478" y="170" width="124" height="22" rx="10" ry="10"></rect>
<text x="540" y="185">"AT POSITION"</text>
</g>
<path d="M602 181h10"></path>
<path d="M612 181h10"></path>
<g class="non-terminal">
<path d="M622 181h0"></path>
<path d="M690 181h0"></path>
<rect x="622" y="170" width="68" height="22"></rect>
<a xlink:href="reuse_source.svg"><text x="656" y="185">Source</text>
</a>
</g>
</g>
<path d="M722 181a10 10 0 0 0 10 -10v-140"></path>
<path d="M468 31v170a10 10 0 0 0 10 10"></path>
<g>
<path d="M478 211h0"></path>
<path d="M658 211h64"></path>
<g class="terminal">
<path d="M478 211h0"></path>
<path d="M570 211h0"></path>
<rect x="478" y="200" width="92" height="22" rx="10" ry="10"></rect>
<text x="524" y="215">"MESSAGE"</text>
</g>
<path d="M570 211h10"></path>
<path d="M580 211h10"></path>
<g class="non-terminal">
<path d="M590 211h0"></path>
<path d="M658 211h0"></path>
<rect x="590" y="200" width="68" height="22"></rect>
<a xlink:href="reuse_target.svg"><text x="624" y="215">Target</text>
</a>
</g>
</g>
<path d="M722 211a10 10 0 0 0 10 -10v-170"></path>
<path d="M468 31v200a10 10 0 0 0 10 10"></path>
<g class="terminal">
<path d="M478 241h0"></path>
<path d="M722 241h0"></path>
<rect x="478" y="230" width="244" height="22" rx="10" ry="10"></rect>
<text x="600" y="245">"IGNORING CONVERSION ERRORS"</text>
</g>
<path d="M722 241a10 10 0 0 0 10 -10v-200"></path>
<path d="M468 31v230a10 10 0 0 0 10 10"></path>
<g class="terminal">
<path d="M478 271h0"></path>
<path d="M706 271h16"></path>
<rect x="478" y="260" width="228" height="22" rx="10" ry="10"></rect>
<text x="592" y="275">"SKIPPING BYTE-ORDER MARK"</text>
</g>
<path d="M722 271a10 10 0 0 0 10 -10v-230"></path>
<g class="diagram-text">
<title>take one or more branches, once each, in any order</title>
<path d="M 468 21 h -26 a 4 4 0 0 0 -4 4 v 12 a 4 4 0 0 0 4 4 h 26 z" class="diagram-text"></path>
<text x="453" y="35" class="diagram-text">1+</text>
<path d="M 732 21 h 16 a 4 4 0 0 1 4 4 v 12 a 4 4 0 0 1 -4 4 h -16 z" class="diagram-text"></path>
<path d="M 739 29 a 4 4 0 1 0 6 -1 m 2.75 -1 h -4 v 4 m 0 -3 h 2" style="stroke-width: 1.75"></path>
</g>
</g>
</g>
<path d="M752 31h10"></path>
<path d="M 762 31 h 20 m -10 -10 v 20 m 10 -20 v 20"></path>
</g>
</svg>
