<svg xmlns="http://www.w3.org/2000/svg" xmlns:xlink="http://www.w3.org/1999/xlink" class="railroad-diagram" width="662" height="71" viewBox="0 0 662 71">
<defs>
<style type="text/css"><![CDATA[
path {
stroke-width: 3;
stroke: black;
fill: rgba(0,0,0,0);
}
text {
font: bold 14px monospace;
text-anchor: middle;
}
text.diagram-text {
font-size: 12px;
}
a {
fill: blue;
}
text.diagram-arrow {
font-size: 16px;
}
text.label {
text-anchor: start;
}
text.comment {
font: italic 12px monospace;
}
rect {
stroke-width: 3;
stroke: black;
fill: #BCBCBC;
}
path.diagram-text {
stroke-width: 3;
stroke: black;
fill: #BCBCBC;
cursor: help;
}
]]></style>
</defs>
<g transform="translate(.5 .5)">
<path d="M 20 30 v 20 m 10 -20 v 20 m -10 -10 h 20.5"></path>
<path d="M40 40h10"></path>
<g>
<path d="M50 40h0"></path>
<path d="M612 40h0"></path>
<g class="terminal">
<path d="M50 40h0"></path>
<path d="M142 40h0"></path>
<rect x="50" y="29" width="92" height="22" rx="10" ry="10"></rect>
<text x="96" y="44">"OVERLAY"</text>
</g>
<path d="M142 40h10"></path>
<path d="M152 40h10"></path>
<g class="non-terminal">
<path d="M162 40h0"></path>
<path d="M230 40h0"></path>
<rect x="162" y="29" width="68" height="22"></rect>
<a xlink:href="reuse_target.svg"><text x="196" y="44">Target</text>
</a>
</g>
<path d="M230 40h10"></path>
<path d="M240 40h10"></path>
<g class="terminal">
<path d="M250 40h0"></path>
<path d="M318 40h0"></path>
<rect x="250" y="29" width="68" height="22" rx="10" ry="10"></rect>
<text x="284" y="44">"WITH"</text>
</g>
<path d="M318 40h10"></path>
<path d="M328 40h10"></path>
<g class="non-terminal">
<path d="M338 40h0"></path>
<path d="M406 40h0"></path>
<rect x="338" y="29" width="68" height="22"></rect>
<a xlink:href="reuse_source.svg"><text x="372" y="44">Source</text>
</a>
</g>
<path d="M406 40h10"></path>
<g>
<path d="M416 40h0"></path>
<path d="M612 40h0"></path>
<path d="M416 40a10 10 0 0 0 10 -10v0a10 10 0 0 1 10 -10"></path>
<g>
<path d="M436 20h156"></path>
</g>
<path d="M592 20a10 10 0 0 1 10 10v0a10 10 0 0 0 10 10"></path>
<path d="M416 40h20"></path>
<g>
<path d="M436 40h0"></path>
<path d="M592 40h0"></path>
<g class="terminal">
<path d="M436 40h0"></path>
<path d="M504 40h0"></path>
<rect x="436" y="29" width="68" height="22" rx="10" ry="10"></rect>
<text x="470" y="44">"ONLY"</text>
</g>
<path d="M504 40h10"></path>
<path d="M514 40h10"></path>
<g class="non-terminal">
<path d="M524 40h0"></path>
<path d="M592 40h0"></path>
<rect x="524" y="29" width="68" height="22"></rect>
<a xlink:href="reuse_source.svg"><text x="558" y="44">Source</text>
</a>
</g>
</g>
<path d="M592 40h20"></path>
</g>
</g>
<path d="M612 40h10"></path>
<path d="M 622 40 h 20 m -10 -10 v 20 m 10 -20 v 20"></path>
</g>
</svg>
