<svg xmlns="http://www.w3.org/2000/svg" xmlns:xlink="http://www.w3.org/1999/xlink" class="railroad-diagram" width="1348" height="371" viewBox="0 0 1348 371">
<defs>
<style type="text/css"><![CDATA[
path {
stroke-width: 3;
stroke: black;
fill: rgba(0,0,0,0);
}
text {
font: bold 14px monospace;
text-anchor: middle;
}
text.diagram-text {
font-size: 12px;
}
a {
fill: blue;
}
text.diagram-arrow {
font-size: 16px;
}
text.label {
text-anchor: start;
}
text.comment {
font: italic 12px monospace;
}
rect {
stroke-width: 3;
stroke: black;
fill: #BCBCBC;
}
path.diagram-text {
stroke-width: 3;
stroke: black;
fill: #BCBCBC;
cursor: help;
}
]]></style>
</defs>
<g transform="translate(.5 .5)">
<path d="M 20 30 v 20 m 10 -20 v 20 m -10 -10 h 20.5"></path>
<path d="M40 40h10"></path>
<g>
<path d="M50 40h0"></path>
<path d="M1298 40h0"></path>
<g>
<path d="M50 40h0"></path>
<path d="M206 40h0"></path>
<path d="M50 40h20"></path>
<g class="terminal">
<path d="M70 40h0"></path>
<path d="M178 40h8"></path>
<rect x="70" y="29" width="108" height="22" rx="10" ry="10"></rect>
<text x="124" y="44">"PARAMETER"</text>
</g>
<path d="M186 40h20"></path>
<path d="M50 40a10 10 0 0 1 10 10v10a10 10 0 0 0 10 10"></path>
<g class="terminal">
<path d="M70 70h0"></path>
<path d="M186 70h0"></path>
<rect x="70" y="59" width="116" height="22" rx="10" ry="10"></rect>
<text x="128" y="74">"PARAMETERS"</text>
</g>
<path d="M186 70a10 10 0 0 0 10 -10v-10a10 10 0 0 1 10 -10"></path>
</g>
<path d="M206 40h10"></path>
<g class="non-terminal">
<path d="M216 40h0"></path>
<path d="M276 40h0"></path>
<rect x="216" y="29" width="60" height="22"></rect>
<a xlink:href="reuse_field.svg"><text x="246" y="44">field</text>
</a>
</g>
<path d="M276 40h10"></path>
<g>
<path d="M286 40h0"></path>
<path d="M528 40h0"></path>
<path d="M286 40a10 10 0 0 0 10 -10v0a10 10 0 0 1 10 -10"></path>
<g>
<path d="M306 20h202"></path>
</g>
<path d="M508 20a10 10 0 0 1 10 10v0a10 10 0 0 0 10 10"></path>
<path d="M286 40h20"></path>
<g>
<path d="M306 40h0"></path>
<path d="M508 40h0"></path>
<g>
<path d="M306 40h0"></path>
<path d="M414 40h0"></path>
<path d="M306 40h20"></path>
<g class="terminal">
<path d="M326 40h0"></path>
<path d="M394 40h0"></path>
<rect x="326" y="29" width="68" height="22" rx="10" ry="10"></rect>
<text x="360" y="44">"TYPE"</text>
</g>
<path d="M394 40h20"></path>
<path d="M306 40a10 10 0 0 1 10 10v10a10 10 0 0 0 10 10"></path>
<g class="terminal">
<path d="M326 70h0"></path>
<path d="M394 70h0"></path>
<rect x="326" y="59" width="68" height="22" rx="10" ry="10"></rect>
<text x="360" y="74">"LIKE"</text>
</g>
<path d="M394 70a10 10 0 0 0 10 -10v-10a10 10 0 0 1 10 -10"></path>
</g>
<path d="M414 40h10"></path>
<g class="non-terminal">
<path d="M424 40h0"></path>
<path d="M508 40h0"></path>
<rect x="424" y="29" width="84" height="22"></rect>
<a xlink:href="reuse_typename.svg"><text x="466" y="44">typename</text>
</a>
</g>
</g>
<path d="M508 40h20"></path>
</g>
<g>
<path d="M528 40h0"></path>
<path d="M684 40h0"></path>
<path d="M528 40a10 10 0 0 0 10 -10v0a10 10 0 0 1 10 -10"></path>
<g>
<path d="M548 20h116"></path>
</g>
<path d="M664 20a10 10 0 0 1 10 10v0a10 10 0 0 0 10 10"></path>
<path d="M528 40h20"></path>
<g class="terminal">
<path d="M548 40h0"></path>
<path d="M664 40h0"></path>
<rect x="548" y="29" width="116" height="22" rx="10" ry="10"></rect>
<text x="606" y="44">"NO-DISPLAY"</text>
</g>
<path d="M664 40h20"></path>
</g>
<g>
<path d="M684 40h0"></path>
<path d="M848 40h0"></path>
<path d="M684 40a10 10 0 0 0 10 -10v0a10 10 0 0 1 10 -10"></path>
<g>
<path d="M704 20h124"></path>
</g>
<path d="M828 20a10 10 0 0 1 10 10v0a10 10 0 0 0 10 10"></path>
<path d="M684 40h20"></path>
<g class="terminal">
<path d="M704 40h0"></path>
<path d="M828 40h0"></path>
<rect x="704" y="29" width="124" height="22" rx="10" ry="10"></rect>
<text x="766" y="44">"AS CHECKBOX"</text>
</g>
<path d="M828 40h20"></path>
</g>
<g>
<path d="M848 40h0"></path>
<path d="M1298 40h0"></path>
<path d="M848 40a10 10 0 0 0 10 -10v0a10 10 0 0 1 10 -10"></path>
<g>
<path d="M868 20h410"></path>
</g>
<path d="M1278 20a10 10 0 0 1 10 10v0a10 10 0 0 0 10 10"></path>
<path d="M848 40h20"></path>
<g>
<path d="M868 40h0"></path>
<path d="M1278 40h0"></path>
<path d="M898 40h10"></path>
<g>
<path d="M908 40h0"></path>
<path d="M1158 40h90"></path>
<g class="terminal">
<path d="M908 40h0"></path>
<path d="M1000 40h0"></path>
<rect x="908" y="29" width="92" height="22" rx="10" ry="10"></rect>
<text x="954" y="44">"DEFAULT"</text>
</g>
<path d="M1000 40h10"></path>
<g>
<path d="M1010 40h0"></path>
<path d="M1158 40h0"></path>
<path d="M1010 40h20"></path>
<g class="non-terminal">
<path d="M1030 40h0"></path>
<path d="M1114 40h24"></path>
<rect x="1030" y="29" width="84" height="22"></rect>
<a xlink:href="reuse_constant.svg"><text x="1072" y="44">constant</text>
</a>
</g>
<path d="M1138 40h20"></path>
<path d="M1010 40a10 10 0 0 1 10 10v10a10 10 0 0 0 10 10"></path>
<g class="non-terminal">
<path d="M1030 70h0"></path>
<path d="M1138 70h0"></path>
<rect x="1030" y="59" width="108" height="22"></rect>
<a xlink:href="reuse_field_chain.svg"><text x="1084" y="74">field&#95;chain</text>
</a>
</g>
<path d="M1138 70a10 10 0 0 0 10 -10v-10a10 10 0 0 1 10 -10"></path>
</g>
</g>
<path d="M1248 40h10"></path>
<path d="M898 40v50a10 10 0 0 0 10 10"></path>
<g class="terminal">
<path d="M908 100h0"></path>
<path d="M1024 100h224"></path>
<rect x="908" y="89" width="116" height="22" rx="10" ry="10"></rect>
<text x="966" y="104">"OBLIGATORY"</text>
</g>
<path d="M1248 100a10 10 0 0 0 10 -10v-50"></path>
<path d="M898 40v80a10 10 0 0 0 10 10"></path>
<g>
<path d="M908 130h0"></path>
<path d="M1152 130h96"></path>
<g class="terminal">
<path d="M908 130h0"></path>
<path d="M1072 130h0"></path>
<rect x="908" y="119" width="164" height="22" rx="10" ry="10"></rect>
<text x="990" y="134">"MATCHCODE OBJECT"</text>
</g>
<path d="M1072 130h10"></path>
<path d="M1082 130h10"></path>
<g class="non-terminal">
<path d="M1092 130h0"></path>
<path d="M1152 130h0"></path>
<rect x="1092" y="119" width="60" height="22"></rect>
<a xlink:href="reuse_field.svg"><text x="1122" y="134">field</text>
</a>
</g>
</g>
<path d="M1248 130a10 10 0 0 0 10 -10v-80"></path>
<path d="M898 40v110a10 10 0 0 0 10 10"></path>
<g>
<path d="M908 160h0"></path>
<path d="M1120 160h128"></path>
<g class="terminal">
<path d="M908 160h0"></path>
<path d="M1040 160h0"></path>
<rect x="908" y="149" width="132" height="22" rx="10" ry="10"></rect>
<text x="974" y="164">"USER-COMMAND"</text>
</g>
<path d="M1040 160h10"></path>
<path d="M1050 160h10"></path>
<g class="non-terminal">
<path d="M1060 160h0"></path>
<path d="M1120 160h0"></path>
<rect x="1060" y="149" width="60" height="22"></rect>
<a xlink:href="reuse_field.svg"><text x="1090" y="164">field</text>
</a>
</g>
</g>
<path d="M1248 160a10 10 0 0 0 10 -10v-110"></path>
<path d="M898 40v140a10 10 0 0 0 10 10"></path>
<g>
<path d="M908 190h0"></path>
<path d="M1160 190h88"></path>
<g class="terminal">
<path d="M908 190h0"></path>
<path d="M1080 190h0"></path>
<rect x="908" y="179" width="172" height="22" rx="10" ry="10"></rect>
<text x="994" y="194">"RADIOBUTTON GROUP"</text>
</g>
<path d="M1080 190h10"></path>
<path d="M1090 190h10"></path>
<g class="non-terminal">
<path d="M1100 190h0"></path>
<path d="M1160 190h0"></path>
<rect x="1100" y="179" width="60" height="22"></rect>
<a xlink:href="reuse_field.svg"><text x="1130" y="194">field</text>
</a>
</g>
</g>
<path d="M1248 190a10 10 0 0 0 10 -10v-140"></path>
<path d="M898 40v170a10 10 0 0 0 10 10"></path>
<g>
<path d="M908 220h0"></path>
<path d="M1096 220h152"></path>
<g class="terminal">
<path d="M908 220h0"></path>
<path d="M1016 220h0"></path>
<rect x="908" y="209" width="108" height="22" rx="10" ry="10"></rect>
<text x="962" y="224">"MEMORY ID"</text>
</g>
<path d="M1016 220h10"></path>
<path d="M1026 220h10"></path>
<g class="non-terminal">
<path d="M1036 220h0"></path>
<path d="M1096 220h0"></path>
<rect x="1036" y="209" width="60" height="22"></rect>
<a xlink:href="reuse_field.svg"><text x="1066" y="224">field</text>
</a>
</g>
</g>
<path d="M1248 220a10 10 0 0 0 10 -10v-170"></path>
<path d="M898 40v200a10 10 0 0 0 10 10"></path>
<g>
<path d="M908 250h0"></path>
<path d="M1088 250h160"></path>
<g class="terminal">
<path d="M908 250h0"></path>
<path d="M1008 250h0"></path>
<rect x="908" y="239" width="100" height="22" rx="10" ry="10"></rect>
<text x="958" y="254">"MODIF ID"</text>
</g>
<path d="M1008 250h10"></path>
<path d="M1018 250h10"></path>
<g class="non-terminal">
<path d="M1028 250h0"></path>
<path d="M1088 250h0"></path>
<rect x="1028" y="239" width="60" height="22"></rect>
<a xlink:href="reuse_field.svg"><text x="1058" y="254">field</text>
</a>
</g>
</g>
<path d="M1248 250a10 10 0 0 0 10 -10v-200"></path>
<path d="M898 40v230a10 10 0 0 0 10 10"></path>
<g>
<path d="M908 280h0"></path>
<path d="M1248 280h0"></path>
<g class="terminal">
<path d="M908 280h0"></path>
<path d="M1144 280h0"></path>
<rect x="908" y="269" width="236" height="22" rx="10" ry="10"></rect>
<text x="1026" y="284">"AS LISTBOX VISIBLE LENGTH"</text>
</g>
<path d="M1144 280h10"></path>
<path d="M1154 280h10"></path>
<g class="non-terminal">
<path d="M1164 280h0"></path>
<path d="M1248 280h0"></path>
<rect x="1164" y="269" width="84" height="22"></rect>
<a xlink:href="reuse_constant.svg"><text x="1206" y="284">constant</text>
</a>
</g>
</g>
<path d="M1248 280a10 10 0 0 0 10 -10v-230"></path>
<path d="M898 40v260a10 10 0 0 0 10 10"></path>
<g>
<path d="M908 310h0"></path>
<path d="M1160 310h88"></path>
<g class="terminal">
<path d="M908 310h0"></path>
<path d="M1056 310h0"></path>
<rect x="908" y="299" width="148" height="22" rx="10" ry="10"></rect>
<text x="982" y="314">"VISIBLE LENGTH"</text>
</g>
<path d="M1056 310h10"></path>
<path d="M1066 310h10"></path>
<g class="non-terminal">
<path d="M1076 310h0"></path>
<path d="M1160 310h0"></path>
<rect x="1076" y="299" width="84" height="22"></rect>
<a xlink:href="reuse_constant.svg"><text x="1118" y="314">constant</text>
</a>
</g>
</g>
<path d="M1248 310a10 10 0 0 0 10 -10v-260"></path>
<path d="M898 40v290a10 10 0 0 0 10 10"></path>
<g class="terminal">
<path d="M908 340h0"></path>
<path d="M1024 340h224"></path>
<rect x="908" y="329" width="116" height="22" rx="10" ry="10"></rect>
<text x="966" y="344">"LOWER CASE"</text>
</g>
<path d="M1248 340a10 10 0 0 0 10 -10v-290"></path>
<g class="diagram-text">
<title>take one or more branches, once each, in any order</title>
<path d="M 898 30 h -26 a 4 4 0 0 0 -4 4 v 12 a 4 4 0 0 0 4 4 h 26 z" class="diagram-text"></path>
<text x="883" y="44" class="diagram-text">1+</text>
<path d="M 1258 30 h 16 a 4 4 0 0 1 4 4 v 12 a 4 4 0 0 1 -4 4 h -16 z" class="diagram-text"></path>
<path d="M 1265 38 a 4 4 0 1 0 6 -1 m 2.75 -1 h -4 v 4 m 0 -3 h 2" style="stroke-width: 1.75"></path>
</g>
</g>
<path d="M1278 40h20"></path>
</g>
</g>
<path d="M1298 40h10"></path>
<path d="M 1308 40 h 20 m -10 -10 v 20 m 10 -20 v 20"></path>
</g>
</svg>
