<?xml version="1.0" encoding="UTF-8" standalone="no"?>
<!DOCTYPE svg PUBLIC "-//W3C//DTD SVG 1.1//EN"
 "http://www.w3.org/Graphics/SVG/1.1/DTD/svg11.dtd">
<!-- Generated by graphviz version 2.38.0 (20140413.2041)
 -->
<!-- Title: parameter_t Pages: 1 -->
<svg width="74pt" height="332pt"
 viewBox="0.00 0.00 74.04 332.00" xmlns="http://www.w3.org/2000/svg" xmlns:xlink="http://www.w3.org/1999/xlink">
<g id="graph0" class="graph" transform="scale(1 1) rotate(0) translate(4 328)">
<title>parameter_t</title>
<polygon fill="white" stroke="none" points="-4,4 -4,-328 70.0411,-328 70.0411,4 -4,4"/>
<!-- start -->
<g id="node1" class="node"><title>start</title>
<polygon fill="none" stroke="blue" points="60.0205,-324 6.02054,-324 6.02054,-288 60.0205,-288 60.0205,-324"/>
<text text-anchor="middle" x="33.0205" y="-301.8" font-family="Times,serif" font-size="14.00">Start</text>
</g>
<!-- node85 -->
<g id="node5" class="node"><title>node85</title>
<g id="a_node5"><a xlink:href="field.svg" xlink:title="&lt;u&gt;field&lt;/u&gt;">
<ellipse fill="none" stroke="black" cx="33.0205" cy="-234" rx="28.9696" ry="18"/>
<text text-anchor="start" x="20.1923" y="-230.8" font-family="Times,serif" text-decoration="underline" font-size="14.00" fill="blue">field</text>
</a>
</g>
</g>
<!-- start&#45;&gt;node85 -->
<g id="edge4" class="edge"><title>start&#45;&gt;node85</title>
<path fill="none" stroke="black" d="M33.0205,-287.697C33.0205,-279.983 33.0205,-270.712 33.0205,-262.112"/>
<polygon fill="black" stroke="black" points="36.5206,-262.104 33.0205,-252.104 29.5206,-262.104 36.5206,-262.104"/>
</g>
<!-- end -->
<g id="node2" class="node"><title>end</title>
<polygon fill="none" stroke="blue" points="60.0205,-36 6.02054,-36 6.02054,-0 60.0205,-0 60.0205,-36"/>
<text text-anchor="middle" x="33.0205" y="-13.8" font-family="Times,serif" font-size="14.00">End</text>
</g>
<!-- node83 -->
<g id="node3" class="node"><title>node83</title>
<g id="a_node3"><a xlink:href="target.svg" xlink:title="&lt;u&gt;target&lt;/u&gt;">
<ellipse fill="none" stroke="black" cx="33.0205" cy="-90" rx="33.0411" ry="18"/>
<text text-anchor="start" x="17.085" y="-86.8" font-family="Times,serif" text-decoration="underline" font-size="14.00" fill="blue">target</text>
</a>
</g>
</g>
<!-- node83&#45;&gt;end -->
<g id="edge1" class="edge"><title>node83&#45;&gt;end</title>
<path fill="none" stroke="black" d="M33.0205,-71.6966C33.0205,-63.9827 33.0205,-54.7125 33.0205,-46.1124"/>
<polygon fill="black" stroke="black" points="36.5206,-46.1043 33.0205,-36.1043 29.5206,-46.1044 36.5206,-46.1043"/>
</g>
<!-- node84 -->
<g id="node4" class="node"><title>node84</title>
<ellipse fill="none" stroke="black" cx="33.0205" cy="-162" rx="27" ry="18"/>
<text text-anchor="middle" x="33.0205" y="-157.8" font-family="Times,serif" font-size="14.00">&quot;=&quot;</text>
</g>
<!-- node84&#45;&gt;node83 -->
<g id="edge2" class="edge"><title>node84&#45;&gt;node83</title>
<path fill="none" stroke="black" d="M33.0205,-143.697C33.0205,-135.983 33.0205,-126.712 33.0205,-118.112"/>
<polygon fill="black" stroke="black" points="36.5206,-118.104 33.0205,-108.104 29.5206,-118.104 36.5206,-118.104"/>
</g>
<!-- node85&#45;&gt;node84 -->
<g id="edge3" class="edge"><title>node85&#45;&gt;node84</title>
<path fill="none" stroke="black" d="M33.0205,-215.697C33.0205,-207.983 33.0205,-198.712 33.0205,-190.112"/>
<polygon fill="black" stroke="black" points="36.5206,-190.104 33.0205,-180.104 29.5206,-190.104 36.5206,-190.104"/>
</g>
</g>
</svg>
