<svg xmlns="http://www.w3.org/2000/svg" xmlns:xlink="http://www.w3.org/1999/xlink" class="railroad-diagram" width="1192" height="431" viewBox="0 0 1192 431">
<defs>
<style type="text/css"><![CDATA[
path {
stroke-width: 3;
stroke: black;
fill: rgba(0,0,0,0);
}
text {
font: bold 14px monospace;
text-anchor: middle;
}
text.diagram-text {
font-size: 12px;
}
a {
fill: blue;
}
text.diagram-arrow {
font-size: 16px;
}
text.label {
text-anchor: start;
}
text.comment {
font: italic 12px monospace;
}
rect {
stroke-width: 3;
stroke: black;
fill: #BCBCBC;
}
path.diagram-text {
stroke-width: 3;
stroke: black;
fill: #BCBCBC;
cursor: help;
}
]]></style>
</defs>
<g transform="translate(.5 .5)">
<path d="M 20 30 v 20 m 10 -20 v 20 m -10 -10 h 20.5"></path>
<path d="M40 40h10"></path>
<g>
<path d="M50 40h0"></path>
<path d="M1142 40h0"></path>
<g>
<path d="M50 40h0"></path>
<path d="M206 40h0"></path>
<path d="M50 40h20"></path>
<g class="terminal">
<path d="M70 40h0"></path>
<path d="M178 40h8"></path>
<rect x="70" y="29" width="108" height="22" rx="10" ry="10"></rect>
<text x="124" y="44">"PARAMETER"</text>
</g>
<path d="M186 40h20"></path>
<path d="M50 40a10 10 0 0 1 10 10v10a10 10 0 0 0 10 10"></path>
<g class="terminal">
<path d="M70 70h0"></path>
<path d="M186 70h0"></path>
<rect x="70" y="59" width="116" height="22" rx="10" ry="10"></rect>
<text x="128" y="74">"PARAMETERS"</text>
</g>
<path d="M186 70a10 10 0 0 0 10 -10v-10a10 10 0 0 1 10 -10"></path>
</g>
<path d="M206 40h10"></path>
<g class="non-terminal">
<path d="M216 40h0"></path>
<path d="M276 40h0"></path>
<rect x="216" y="29" width="60" height="22"></rect>
<a xlink:href="reuse_field.svg"><text x="246" y="44">Field</text>
</a>
</g>
<path d="M276 40h10"></path>
<g>
<path d="M286 40h0"></path>
<path d="M434 40h0"></path>
<path d="M286 40a10 10 0 0 0 10 -10v0a10 10 0 0 1 10 -10"></path>
<g>
<path d="M306 20h108"></path>
</g>
<path d="M414 20a10 10 0 0 1 10 10v0a10 10 0 0 0 10 10"></path>
<path d="M286 40h20"></path>
<g class="non-terminal">
<path d="M306 40h0"></path>
<path d="M414 40h0"></path>
<rect x="306" y="29" width="108" height="22"></rect>
<a xlink:href="reuse_fieldlength.svg"><text x="360" y="44">FieldLength</text>
</a>
</g>
<path d="M414 40h20"></path>
</g>
<g>
<path d="M434 40h0"></path>
<path d="M692 40h0"></path>
<path d="M434 40a10 10 0 0 0 10 -10v0a10 10 0 0 1 10 -10"></path>
<g>
<path d="M454 20h218"></path>
</g>
<path d="M672 20a10 10 0 0 1 10 10v0a10 10 0 0 0 10 10"></path>
<path d="M434 40h20"></path>
<g>
<path d="M454 40h0"></path>
<path d="M672 40h0"></path>
<g>
<path d="M454 40h0"></path>
<path d="M562 40h0"></path>
<path d="M454 40h20"></path>
<g class="terminal">
<path d="M474 40h0"></path>
<path d="M542 40h0"></path>
<rect x="474" y="29" width="68" height="22" rx="10" ry="10"></rect>
<text x="508" y="44">"TYPE"</text>
</g>
<path d="M542 40h20"></path>
<path d="M454 40a10 10 0 0 1 10 10v10a10 10 0 0 0 10 10"></path>
<g class="terminal">
<path d="M474 70h0"></path>
<path d="M542 70h0"></path>
<rect x="474" y="59" width="68" height="22" rx="10" ry="10"></rect>
<text x="508" y="74">"LIKE"</text>
</g>
<path d="M542 70a10 10 0 0 0 10 -10v-10a10 10 0 0 1 10 -10"></path>
</g>
<path d="M562 40h10"></path>
<g class="non-terminal">
<path d="M572 40h0"></path>
<path d="M672 40h0"></path>
<rect x="572" y="29" width="100" height="22"></rect>
<a xlink:href="reuse_fieldchain.svg"><text x="622" y="44">FieldChain</text>
</a>
</g>
</g>
<path d="M672 40h20"></path>
</g>
<g>
<path d="M692 40h0"></path>
<path d="M1142 40h0"></path>
<path d="M692 40a10 10 0 0 0 10 -10v0a10 10 0 0 1 10 -10"></path>
<g>
<path d="M712 20h410"></path>
</g>
<path d="M1122 20a10 10 0 0 1 10 10v0a10 10 0 0 0 10 10"></path>
<path d="M692 40h20"></path>
<g>
<path d="M712 40h0"></path>
<path d="M1122 40h0"></path>
<path d="M742 40h10"></path>
<g>
<path d="M752 40h0"></path>
<path d="M994 40h98"></path>
<g class="terminal">
<path d="M752 40h0"></path>
<path d="M844 40h0"></path>
<rect x="752" y="29" width="92" height="22" rx="10" ry="10"></rect>
<text x="798" y="44">"DEFAULT"</text>
</g>
<path d="M844 40h10"></path>
<g>
<path d="M854 40h0"></path>
<path d="M994 40h0"></path>
<path d="M854 40h20"></path>
<g class="non-terminal">
<path d="M874 40h0"></path>
<path d="M958 40h16"></path>
<rect x="874" y="29" width="84" height="22"></rect>
<a xlink:href="reuse_constant.svg"><text x="916" y="44">Constant</text>
</a>
</g>
<path d="M974 40h20"></path>
<path d="M854 40a10 10 0 0 1 10 10v10a10 10 0 0 0 10 10"></path>
<g class="non-terminal">
<path d="M874 70h0"></path>
<path d="M974 70h0"></path>
<rect x="874" y="59" width="100" height="22"></rect>
<a xlink:href="reuse_fieldchain.svg"><text x="924" y="74">FieldChain</text>
</a>
</g>
<path d="M974 70a10 10 0 0 0 10 -10v-10a10 10 0 0 1 10 -10"></path>
</g>
</g>
<path d="M1092 40h10"></path>
<path d="M742 40v50a10 10 0 0 0 10 10"></path>
<g class="terminal">
<path d="M752 100h0"></path>
<path d="M868 100h224"></path>
<rect x="752" y="89" width="116" height="22" rx="10" ry="10"></rect>
<text x="810" y="104">"OBLIGATORY"</text>
</g>
<path d="M1092 100a10 10 0 0 0 10 -10v-50"></path>
<path d="M742 40v80a10 10 0 0 0 10 10"></path>
<g>
<path d="M752 130h0"></path>
<path d="M996 130h96"></path>
<g class="terminal">
<path d="M752 130h0"></path>
<path d="M916 130h0"></path>
<rect x="752" y="119" width="164" height="22" rx="10" ry="10"></rect>
<text x="834" y="134">"MATCHCODE OBJECT"</text>
</g>
<path d="M916 130h10"></path>
<path d="M926 130h10"></path>
<g class="non-terminal">
<path d="M936 130h0"></path>
<path d="M996 130h0"></path>
<rect x="936" y="119" width="60" height="22"></rect>
<a xlink:href="reuse_field.svg"><text x="966" y="134">Field</text>
</a>
</g>
</g>
<path d="M1092 130a10 10 0 0 0 10 -10v-80"></path>
<path d="M742 40v110a10 10 0 0 0 10 10"></path>
<g>
<path d="M752 160h0"></path>
<path d="M964 160h128"></path>
<g class="terminal">
<path d="M752 160h0"></path>
<path d="M884 160h0"></path>
<rect x="752" y="149" width="132" height="22" rx="10" ry="10"></rect>
<text x="818" y="164">"USER-COMMAND"</text>
</g>
<path d="M884 160h10"></path>
<path d="M894 160h10"></path>
<g class="non-terminal">
<path d="M904 160h0"></path>
<path d="M964 160h0"></path>
<rect x="904" y="149" width="60" height="22"></rect>
<a xlink:href="reuse_field.svg"><text x="934" y="164">Field</text>
</a>
</g>
</g>
<path d="M1092 160a10 10 0 0 0 10 -10v-110"></path>
<path d="M742 40v140a10 10 0 0 0 10 10"></path>
<g>
<path d="M752 190h0"></path>
<path d="M1004 190h88"></path>
<g class="terminal">
<path d="M752 190h0"></path>
<path d="M924 190h0"></path>
<rect x="752" y="179" width="172" height="22" rx="10" ry="10"></rect>
<text x="838" y="194">"RADIOBUTTON GROUP"</text>
</g>
<path d="M924 190h10"></path>
<path d="M934 190h10"></path>
<g class="non-terminal">
<path d="M944 190h0"></path>
<path d="M1004 190h0"></path>
<rect x="944" y="179" width="60" height="22"></rect>
<a xlink:href="reuse_field.svg"><text x="974" y="194">Field</text>
</a>
</g>
</g>
<path d="M1092 190a10 10 0 0 0 10 -10v-140"></path>
<path d="M742 40v170a10 10 0 0 0 10 10"></path>
<g>
<path d="M752 220h0"></path>
<path d="M940 220h152"></path>
<g class="terminal">
<path d="M752 220h0"></path>
<path d="M860 220h0"></path>
<rect x="752" y="209" width="108" height="22" rx="10" ry="10"></rect>
<text x="806" y="224">"MEMORY ID"</text>
</g>
<path d="M860 220h10"></path>
<path d="M870 220h10"></path>
<g class="non-terminal">
<path d="M880 220h0"></path>
<path d="M940 220h0"></path>
<rect x="880" y="209" width="60" height="22"></rect>
<a xlink:href="reuse_field.svg"><text x="910" y="224">Field</text>
</a>
</g>
</g>
<path d="M1092 220a10 10 0 0 0 10 -10v-170"></path>
<path d="M742 40v200a10 10 0 0 0 10 10"></path>
<g>
<path d="M752 250h0"></path>
<path d="M932 250h160"></path>
<g class="terminal">
<path d="M752 250h0"></path>
<path d="M852 250h0"></path>
<rect x="752" y="239" width="100" height="22" rx="10" ry="10"></rect>
<text x="802" y="254">"MODIF ID"</text>
</g>
<path d="M852 250h10"></path>
<path d="M862 250h10"></path>
<g class="non-terminal">
<path d="M872 250h0"></path>
<path d="M932 250h0"></path>
<rect x="872" y="239" width="60" height="22"></rect>
<a xlink:href="reuse_field.svg"><text x="902" y="254">Field</text>
</a>
</g>
</g>
<path d="M1092 250a10 10 0 0 0 10 -10v-200"></path>
<path d="M742 40v230a10 10 0 0 0 10 10"></path>
<g>
<path d="M752 280h0"></path>
<path d="M1092 280h0"></path>
<g class="terminal">
<path d="M752 280h0"></path>
<path d="M988 280h0"></path>
<rect x="752" y="269" width="236" height="22" rx="10" ry="10"></rect>
<text x="870" y="284">"AS LISTBOX VISIBLE LENGTH"</text>
</g>
<path d="M988 280h10"></path>
<path d="M998 280h10"></path>
<g class="non-terminal">
<path d="M1008 280h0"></path>
<path d="M1092 280h0"></path>
<rect x="1008" y="269" width="84" height="22"></rect>
<a xlink:href="reuse_constant.svg"><text x="1050" y="284">Constant</text>
</a>
</g>
</g>
<path d="M1092 280a10 10 0 0 0 10 -10v-230"></path>
<path d="M742 40v260a10 10 0 0 0 10 10"></path>
<g>
<path d="M752 310h0"></path>
<path d="M1004 310h88"></path>
<g class="terminal">
<path d="M752 310h0"></path>
<path d="M900 310h0"></path>
<rect x="752" y="299" width="148" height="22" rx="10" ry="10"></rect>
<text x="826" y="314">"VISIBLE LENGTH"</text>
</g>
<path d="M900 310h10"></path>
<path d="M910 310h10"></path>
<g class="non-terminal">
<path d="M920 310h0"></path>
<path d="M1004 310h0"></path>
<rect x="920" y="299" width="84" height="22"></rect>
<a xlink:href="reuse_constant.svg"><text x="962" y="314">Constant</text>
</a>
</g>
</g>
<path d="M1092 310a10 10 0 0 0 10 -10v-260"></path>
<path d="M742 40v290a10 10 0 0 0 10 10"></path>
<g class="terminal">
<path d="M752 340h0"></path>
<path d="M868 340h224"></path>
<rect x="752" y="329" width="116" height="22" rx="10" ry="10"></rect>
<text x="810" y="344">"NO-DISPLAY"</text>
</g>
<path d="M1092 340a10 10 0 0 0 10 -10v-290"></path>
<path d="M742 40v320a10 10 0 0 0 10 10"></path>
<g class="terminal">
<path d="M752 370h0"></path>
<path d="M876 370h216"></path>
<rect x="752" y="359" width="124" height="22" rx="10" ry="10"></rect>
<text x="814" y="374">"AS CHECKBOX"</text>
</g>
<path d="M1092 370a10 10 0 0 0 10 -10v-320"></path>
<path d="M742 40v350a10 10 0 0 0 10 10"></path>
<g class="terminal">
<path d="M752 400h0"></path>
<path d="M868 400h224"></path>
<rect x="752" y="389" width="116" height="22" rx="10" ry="10"></rect>
<text x="810" y="404">"LOWER CASE"</text>
</g>
<path d="M1092 400a10 10 0 0 0 10 -10v-350"></path>
<g class="diagram-text">
<title>take one or more branches, once each, in any order</title>
<path d="M 742 30 h -26 a 4 4 0 0 0 -4 4 v 12 a 4 4 0 0 0 4 4 h 26 z" class="diagram-text"></path>
<text x="727" y="44" class="diagram-text">1+</text>
<path d="M 1102 30 h 16 a 4 4 0 0 1 4 4 v 12 a 4 4 0 0 1 -4 4 h -16 z" class="diagram-text"></path>
<path d="M 1109 38 a 4 4 0 1 0 6 -1 m 2.75 -1 h -4 v 4 m 0 -3 h 2" style="stroke-width: 1.75"></path>
</g>
</g>
<path d="M1122 40h20"></path>
</g>
</g>
<path d="M1142 40h10"></path>
<path d="M 1152 40 h 20 m -10 -10 v 20 m 10 -20 v 20"></path>
</g>
</svg>
