<svg xmlns="http://www.w3.org/2000/svg" xmlns:xlink="http://www.w3.org/1999/xlink" class="railroad-diagram" width="1512" height="371" viewBox="0 0 1512 371">
<defs>
<style type="text/css"><![CDATA[
path {
stroke-width: 3;
stroke: black;
fill: rgba(0,0,0,0);
}
text {
font: bold 14px monospace;
text-anchor: middle;
}
text.diagram-text {
font-size: 12px;
}
a {
fill: blue;
}
text.diagram-arrow {
font-size: 16px;
}
text.label {
text-anchor: start;
}
text.comment {
font: italic 12px monospace;
}
rect {
stroke-width: 3;
stroke: black;
fill: #BCBCBC;
}
path.diagram-text {
stroke-width: 3;
stroke: black;
fill: #BCBCBC;
cursor: help;
}
]]></style>
</defs>
<g transform="translate(.5 .5)">
<path d="M 20 30 v 20 m 10 -20 v 20 m -10 -10 h 20.5"></path>
<path d="M40 40h10"></path>
<g>
<path d="M50 40h0"></path>
<path d="M1462 40h0"></path>
<g>
<path d="M50 40h0"></path>
<path d="M206 40h0"></path>
<path d="M50 40h20"></path>
<g class="terminal">
<path d="M70 40h0"></path>
<path d="M178 40h8"></path>
<rect x="70" y="29" width="108" height="22" rx="10" ry="10"></rect>
<text x="124" y="44">"PARAMETER"</text>
</g>
<path d="M186 40h20"></path>
<path d="M50 40a10 10 0 0 1 10 10v10a10 10 0 0 0 10 10"></path>
<g class="terminal">
<path d="M70 70h0"></path>
<path d="M186 70h0"></path>
<rect x="70" y="59" width="116" height="22" rx="10" ry="10"></rect>
<text x="128" y="74">"PARAMETERS"</text>
</g>
<path d="M186 70a10 10 0 0 0 10 -10v-10a10 10 0 0 1 10 -10"></path>
</g>
<path d="M206 40h10"></path>
<g class="non-terminal">
<path d="M216 40h0"></path>
<path d="M276 40h0"></path>
<rect x="216" y="29" width="60" height="22"></rect>
<a xlink:href="reuse_field.svg"><text x="246" y="44">Field</text>
</a>
</g>
<path d="M276 40h10"></path>
<g>
<path d="M286 40h0"></path>
<path d="M434 40h0"></path>
<path d="M286 40a10 10 0 0 0 10 -10v0a10 10 0 0 1 10 -10"></path>
<g>
<path d="M306 20h108"></path>
</g>
<path d="M414 20a10 10 0 0 1 10 10v0a10 10 0 0 0 10 10"></path>
<path d="M286 40h20"></path>
<g class="non-terminal">
<path d="M306 40h0"></path>
<path d="M414 40h0"></path>
<rect x="306" y="29" width="108" height="22"></rect>
<a xlink:href="reuse_fieldlength.svg"><text x="360" y="44">FieldLength</text>
</a>
</g>
<path d="M414 40h20"></path>
</g>
<g>
<path d="M434 40h0"></path>
<path d="M692 40h0"></path>
<path d="M434 40a10 10 0 0 0 10 -10v0a10 10 0 0 1 10 -10"></path>
<g>
<path d="M454 20h218"></path>
</g>
<path d="M672 20a10 10 0 0 1 10 10v0a10 10 0 0 0 10 10"></path>
<path d="M434 40h20"></path>
<g>
<path d="M454 40h0"></path>
<path d="M672 40h0"></path>
<g>
<path d="M454 40h0"></path>
<path d="M562 40h0"></path>
<path d="M454 40h20"></path>
<g class="terminal">
<path d="M474 40h0"></path>
<path d="M542 40h0"></path>
<rect x="474" y="29" width="68" height="22" rx="10" ry="10"></rect>
<text x="508" y="44">"TYPE"</text>
</g>
<path d="M542 40h20"></path>
<path d="M454 40a10 10 0 0 1 10 10v10a10 10 0 0 0 10 10"></path>
<g class="terminal">
<path d="M474 70h0"></path>
<path d="M542 70h0"></path>
<rect x="474" y="59" width="68" height="22" rx="10" ry="10"></rect>
<text x="508" y="74">"LIKE"</text>
</g>
<path d="M542 70a10 10 0 0 0 10 -10v-10a10 10 0 0 1 10 -10"></path>
</g>
<path d="M562 40h10"></path>
<g class="non-terminal">
<path d="M572 40h0"></path>
<path d="M672 40h0"></path>
<rect x="572" y="29" width="100" height="22"></rect>
<a xlink:href="reuse_fieldchain.svg"><text x="622" y="44">FieldChain</text>
</a>
</g>
</g>
<path d="M672 40h20"></path>
</g>
<g>
<path d="M692 40h0"></path>
<path d="M848 40h0"></path>
<path d="M692 40a10 10 0 0 0 10 -10v0a10 10 0 0 1 10 -10"></path>
<g>
<path d="M712 20h116"></path>
</g>
<path d="M828 20a10 10 0 0 1 10 10v0a10 10 0 0 0 10 10"></path>
<path d="M692 40h20"></path>
<g class="terminal">
<path d="M712 40h0"></path>
<path d="M828 40h0"></path>
<rect x="712" y="29" width="116" height="22" rx="10" ry="10"></rect>
<text x="770" y="44">"NO-DISPLAY"</text>
</g>
<path d="M828 40h20"></path>
</g>
<g>
<path d="M848 40h0"></path>
<path d="M1012 40h0"></path>
<path d="M848 40a10 10 0 0 0 10 -10v0a10 10 0 0 1 10 -10"></path>
<g>
<path d="M868 20h124"></path>
</g>
<path d="M992 20a10 10 0 0 1 10 10v0a10 10 0 0 0 10 10"></path>
<path d="M848 40h20"></path>
<g class="terminal">
<path d="M868 40h0"></path>
<path d="M992 40h0"></path>
<rect x="868" y="29" width="124" height="22" rx="10" ry="10"></rect>
<text x="930" y="44">"AS CHECKBOX"</text>
</g>
<path d="M992 40h20"></path>
</g>
<g>
<path d="M1012 40h0"></path>
<path d="M1462 40h0"></path>
<path d="M1012 40a10 10 0 0 0 10 -10v0a10 10 0 0 1 10 -10"></path>
<g>
<path d="M1032 20h410"></path>
</g>
<path d="M1442 20a10 10 0 0 1 10 10v0a10 10 0 0 0 10 10"></path>
<path d="M1012 40h20"></path>
<g>
<path d="M1032 40h0"></path>
<path d="M1442 40h0"></path>
<path d="M1062 40h10"></path>
<g>
<path d="M1072 40h0"></path>
<path d="M1314 40h98"></path>
<g class="terminal">
<path d="M1072 40h0"></path>
<path d="M1164 40h0"></path>
<rect x="1072" y="29" width="92" height="22" rx="10" ry="10"></rect>
<text x="1118" y="44">"DEFAULT"</text>
</g>
<path d="M1164 40h10"></path>
<g>
<path d="M1174 40h0"></path>
<path d="M1314 40h0"></path>
<path d="M1174 40h20"></path>
<g class="non-terminal">
<path d="M1194 40h0"></path>
<path d="M1278 40h16"></path>
<rect x="1194" y="29" width="84" height="22"></rect>
<a xlink:href="reuse_constant.svg"><text x="1236" y="44">Constant</text>
</a>
</g>
<path d="M1294 40h20"></path>
<path d="M1174 40a10 10 0 0 1 10 10v10a10 10 0 0 0 10 10"></path>
<g class="non-terminal">
<path d="M1194 70h0"></path>
<path d="M1294 70h0"></path>
<rect x="1194" y="59" width="100" height="22"></rect>
<a xlink:href="reuse_fieldchain.svg"><text x="1244" y="74">FieldChain</text>
</a>
</g>
<path d="M1294 70a10 10 0 0 0 10 -10v-10a10 10 0 0 1 10 -10"></path>
</g>
</g>
<path d="M1412 40h10"></path>
<path d="M1062 40v50a10 10 0 0 0 10 10"></path>
<g class="terminal">
<path d="M1072 100h0"></path>
<path d="M1188 100h224"></path>
<rect x="1072" y="89" width="116" height="22" rx="10" ry="10"></rect>
<text x="1130" y="104">"OBLIGATORY"</text>
</g>
<path d="M1412 100a10 10 0 0 0 10 -10v-50"></path>
<path d="M1062 40v80a10 10 0 0 0 10 10"></path>
<g>
<path d="M1072 130h0"></path>
<path d="M1316 130h96"></path>
<g class="terminal">
<path d="M1072 130h0"></path>
<path d="M1236 130h0"></path>
<rect x="1072" y="119" width="164" height="22" rx="10" ry="10"></rect>
<text x="1154" y="134">"MATCHCODE OBJECT"</text>
</g>
<path d="M1236 130h10"></path>
<path d="M1246 130h10"></path>
<g class="non-terminal">
<path d="M1256 130h0"></path>
<path d="M1316 130h0"></path>
<rect x="1256" y="119" width="60" height="22"></rect>
<a xlink:href="reuse_field.svg"><text x="1286" y="134">Field</text>
</a>
</g>
</g>
<path d="M1412 130a10 10 0 0 0 10 -10v-80"></path>
<path d="M1062 40v110a10 10 0 0 0 10 10"></path>
<g>
<path d="M1072 160h0"></path>
<path d="M1284 160h128"></path>
<g class="terminal">
<path d="M1072 160h0"></path>
<path d="M1204 160h0"></path>
<rect x="1072" y="149" width="132" height="22" rx="10" ry="10"></rect>
<text x="1138" y="164">"USER-COMMAND"</text>
</g>
<path d="M1204 160h10"></path>
<path d="M1214 160h10"></path>
<g class="non-terminal">
<path d="M1224 160h0"></path>
<path d="M1284 160h0"></path>
<rect x="1224" y="149" width="60" height="22"></rect>
<a xlink:href="reuse_field.svg"><text x="1254" y="164">Field</text>
</a>
</g>
</g>
<path d="M1412 160a10 10 0 0 0 10 -10v-110"></path>
<path d="M1062 40v140a10 10 0 0 0 10 10"></path>
<g>
<path d="M1072 190h0"></path>
<path d="M1324 190h88"></path>
<g class="terminal">
<path d="M1072 190h0"></path>
<path d="M1244 190h0"></path>
<rect x="1072" y="179" width="172" height="22" rx="10" ry="10"></rect>
<text x="1158" y="194">"RADIOBUTTON GROUP"</text>
</g>
<path d="M1244 190h10"></path>
<path d="M1254 190h10"></path>
<g class="non-terminal">
<path d="M1264 190h0"></path>
<path d="M1324 190h0"></path>
<rect x="1264" y="179" width="60" height="22"></rect>
<a xlink:href="reuse_field.svg"><text x="1294" y="194">Field</text>
</a>
</g>
</g>
<path d="M1412 190a10 10 0 0 0 10 -10v-140"></path>
<path d="M1062 40v170a10 10 0 0 0 10 10"></path>
<g>
<path d="M1072 220h0"></path>
<path d="M1260 220h152"></path>
<g class="terminal">
<path d="M1072 220h0"></path>
<path d="M1180 220h0"></path>
<rect x="1072" y="209" width="108" height="22" rx="10" ry="10"></rect>
<text x="1126" y="224">"MEMORY ID"</text>
</g>
<path d="M1180 220h10"></path>
<path d="M1190 220h10"></path>
<g class="non-terminal">
<path d="M1200 220h0"></path>
<path d="M1260 220h0"></path>
<rect x="1200" y="209" width="60" height="22"></rect>
<a xlink:href="reuse_field.svg"><text x="1230" y="224">Field</text>
</a>
</g>
</g>
<path d="M1412 220a10 10 0 0 0 10 -10v-170"></path>
<path d="M1062 40v200a10 10 0 0 0 10 10"></path>
<g>
<path d="M1072 250h0"></path>
<path d="M1252 250h160"></path>
<g class="terminal">
<path d="M1072 250h0"></path>
<path d="M1172 250h0"></path>
<rect x="1072" y="239" width="100" height="22" rx="10" ry="10"></rect>
<text x="1122" y="254">"MODIF ID"</text>
</g>
<path d="M1172 250h10"></path>
<path d="M1182 250h10"></path>
<g class="non-terminal">
<path d="M1192 250h0"></path>
<path d="M1252 250h0"></path>
<rect x="1192" y="239" width="60" height="22"></rect>
<a xlink:href="reuse_field.svg"><text x="1222" y="254">Field</text>
</a>
</g>
</g>
<path d="M1412 250a10 10 0 0 0 10 -10v-200"></path>
<path d="M1062 40v230a10 10 0 0 0 10 10"></path>
<g>
<path d="M1072 280h0"></path>
<path d="M1412 280h0"></path>
<g class="terminal">
<path d="M1072 280h0"></path>
<path d="M1308 280h0"></path>
<rect x="1072" y="269" width="236" height="22" rx="10" ry="10"></rect>
<text x="1190" y="284">"AS LISTBOX VISIBLE LENGTH"</text>
</g>
<path d="M1308 280h10"></path>
<path d="M1318 280h10"></path>
<g class="non-terminal">
<path d="M1328 280h0"></path>
<path d="M1412 280h0"></path>
<rect x="1328" y="269" width="84" height="22"></rect>
<a xlink:href="reuse_constant.svg"><text x="1370" y="284">Constant</text>
</a>
</g>
</g>
<path d="M1412 280a10 10 0 0 0 10 -10v-230"></path>
<path d="M1062 40v260a10 10 0 0 0 10 10"></path>
<g>
<path d="M1072 310h0"></path>
<path d="M1324 310h88"></path>
<g class="terminal">
<path d="M1072 310h0"></path>
<path d="M1220 310h0"></path>
<rect x="1072" y="299" width="148" height="22" rx="10" ry="10"></rect>
<text x="1146" y="314">"VISIBLE LENGTH"</text>
</g>
<path d="M1220 310h10"></path>
<path d="M1230 310h10"></path>
<g class="non-terminal">
<path d="M1240 310h0"></path>
<path d="M1324 310h0"></path>
<rect x="1240" y="299" width="84" height="22"></rect>
<a xlink:href="reuse_constant.svg"><text x="1282" y="314">Constant</text>
</a>
</g>
</g>
<path d="M1412 310a10 10 0 0 0 10 -10v-260"></path>
<path d="M1062 40v290a10 10 0 0 0 10 10"></path>
<g class="terminal">
<path d="M1072 340h0"></path>
<path d="M1188 340h224"></path>
<rect x="1072" y="329" width="116" height="22" rx="10" ry="10"></rect>
<text x="1130" y="344">"LOWER CASE"</text>
</g>
<path d="M1412 340a10 10 0 0 0 10 -10v-290"></path>
<g class="diagram-text">
<title>take one or more branches, once each, in any order</title>
<path d="M 1062 30 h -26 a 4 4 0 0 0 -4 4 v 12 a 4 4 0 0 0 4 4 h 26 z" class="diagram-text"></path>
<text x="1047" y="44" class="diagram-text">1+</text>
<path d="M 1422 30 h 16 a 4 4 0 0 1 4 4 v 12 a 4 4 0 0 1 -4 4 h -16 z" class="diagram-text"></path>
<path d="M 1429 38 a 4 4 0 1 0 6 -1 m 2.75 -1 h -4 v 4 m 0 -3 h 2" style="stroke-width: 1.75"></path>
</g>
</g>
<path d="M1442 40h20"></path>
</g>
</g>
<path d="M1462 40h10"></path>
<path d="M 1472 40 h 20 m -10 -10 v 20 m 10 -20 v 20"></path>
</g>
</svg>
