<svg xmlns="http://www.w3.org/2000/svg" xmlns:xlink="http://www.w3.org/1999/xlink" class="railroad-diagram" width="1348" height="341" viewBox="0 0 1348 341">
<defs>
<style type="text/css"><![CDATA[
path {
stroke-width: 3;
stroke: black;
fill: rgba(0,0,0,0);
}
text {
font: bold 14px monospace;
text-anchor: middle;
}
text.diagram-text {
font-size: 12px;
}
a {
fill: blue;
}
text.diagram-arrow {
font-size: 16px;
}
text.label {
text-anchor: start;
}
text.comment {
font: italic 12px monospace;
}
rect {
stroke-width: 3;
stroke: black;
fill: #BCBCBC;
}
path.diagram-text {
stroke-width: 3;
stroke: black;
fill: #BCBCBC;
cursor: help;
}
]]></style>
</defs>
<g transform="translate(.5 .5)">
<path d="M 20 30 v 20 m 10 -20 v 20 m -10 -10 h 20.5"></path>
<path d="M40 40h10"></path>
<g>
<path d="M50 40h0"></path>
<path d="M1298 40h0"></path>
<g>
<path d="M50 40h0"></path>
<path d="M206 40h0"></path>
<path d="M50 40h20"></path>
<g class="terminal">
<path d="M70 40h4"></path>
<path d="M182 40h4"></path>
<rect x="74" y="29" width="108" height="22" rx="10" ry="10"></rect>
<text x="128" y="44">"PARAMETER"</text>
</g>
<path d="M186 40h20"></path>
<path d="M50 40a10 10 0 0 1 10 10v10a10 10 0 0 0 10 10"></path>
<g class="terminal">
<path d="M70 70h0"></path>
<path d="M186 70h0"></path>
<rect x="70" y="59" width="116" height="22" rx="10" ry="10"></rect>
<text x="128" y="74">"PARAMETERS"</text>
</g>
<path d="M186 70a10 10 0 0 0 10 -10v-10a10 10 0 0 1 10 -10"></path>
</g>
<path d="M206 40h10"></path>
<g class="non-terminal">
<path d="M216 40h0"></path>
<path d="M276 40h0"></path>
<rect x="216" y="29" width="60" height="22"></rect>
<a xlink:href="reuse_field.svg"><text x="246" y="44">field</text>
</a>
</g>
<path d="M276 40h10"></path>
<g>
<path d="M286 40h0"></path>
<path d="M528 40h0"></path>
<path d="M286 40a10 10 0 0 0 10 -10v0a10 10 0 0 1 10 -10"></path>
<g>
<path d="M306 20h202"></path>
</g>
<path d="M508 20a10 10 0 0 1 10 10v0a10 10 0 0 0 10 10"></path>
<path d="M286 40h20"></path>
<g>
<path d="M306 40h0"></path>
<path d="M508 40h0"></path>
<g>
<path d="M306 40h0"></path>
<path d="M414 40h0"></path>
<path d="M306 40h20"></path>
<g class="terminal">
<path d="M326 40h0"></path>
<path d="M394 40h0"></path>
<rect x="326" y="29" width="68" height="22" rx="10" ry="10"></rect>
<text x="360" y="44">"TYPE"</text>
</g>
<path d="M394 40h20"></path>
<path d="M306 40a10 10 0 0 1 10 10v10a10 10 0 0 0 10 10"></path>
<g class="terminal">
<path d="M326 70h0"></path>
<path d="M394 70h0"></path>
<rect x="326" y="59" width="68" height="22" rx="10" ry="10"></rect>
<text x="360" y="74">"LIKE"</text>
</g>
<path d="M394 70a10 10 0 0 0 10 -10v-10a10 10 0 0 1 10 -10"></path>
</g>
<path d="M414 40h10"></path>
<g class="non-terminal">
<path d="M424 40h0"></path>
<path d="M508 40h0"></path>
<rect x="424" y="29" width="84" height="22"></rect>
<a xlink:href="reuse_typename.svg"><text x="466" y="44">typename</text>
</a>
</g>
</g>
<path d="M508 40h20"></path>
</g>
<g>
<path d="M528 40h0"></path>
<path d="M684 40h0"></path>
<path d="M528 40a10 10 0 0 0 10 -10v0a10 10 0 0 1 10 -10"></path>
<g>
<path d="M548 20h116"></path>
</g>
<path d="M664 20a10 10 0 0 1 10 10v0a10 10 0 0 0 10 10"></path>
<path d="M528 40h20"></path>
<g class="terminal">
<path d="M548 40h0"></path>
<path d="M664 40h0"></path>
<rect x="548" y="29" width="116" height="22" rx="10" ry="10"></rect>
<text x="606" y="44">"NO-DISPLAY"</text>
</g>
<path d="M664 40h20"></path>
</g>
<g>
<path d="M684 40h0"></path>
<path d="M848 40h0"></path>
<path d="M684 40a10 10 0 0 0 10 -10v0a10 10 0 0 1 10 -10"></path>
<g>
<path d="M704 20h124"></path>
</g>
<path d="M828 20a10 10 0 0 1 10 10v0a10 10 0 0 0 10 10"></path>
<path d="M684 40h20"></path>
<g class="terminal">
<path d="M704 40h0"></path>
<path d="M828 40h0"></path>
<rect x="704" y="29" width="124" height="22" rx="10" ry="10"></rect>
<text x="766" y="44">"AS CHECKBOX"</text>
</g>
<path d="M828 40h20"></path>
</g>
<g>
<path d="M848 40h0"></path>
<path d="M1298 40h0"></path>
<path d="M848 40a10 10 0 0 0 10 -10v0a10 10 0 0 1 10 -10"></path>
<g>
<path d="M868 20h410"></path>
</g>
<path d="M1278 20a10 10 0 0 1 10 10v0a10 10 0 0 0 10 10"></path>
<path d="M848 40h20"></path>
<g>
<path d="M868 40h0"></path>
<path d="M1278 40h0"></path>
<path d="M898 40h10"></path>
<g>
<path d="M908 40h45"></path>
<path d="M1203 40h45"></path>
<g class="terminal">
<path d="M953 40h0"></path>
<path d="M1045 40h0"></path>
<rect x="953" y="29" width="92" height="22" rx="10" ry="10"></rect>
<text x="999" y="44">"DEFAULT"</text>
</g>
<path d="M1045 40h10"></path>
<g>
<path d="M1055 40h0"></path>
<path d="M1203 40h0"></path>
<path d="M1055 40h20"></path>
<g class="non-terminal">
<path d="M1075 40h12"></path>
<path d="M1171 40h12"></path>
<rect x="1087" y="29" width="84" height="22"></rect>
<a xlink:href="reuse_constant.svg"><text x="1129" y="44">constant</text>
</a>
</g>
<path d="M1183 40h20"></path>
<path d="M1055 40a10 10 0 0 1 10 10v10a10 10 0 0 0 10 10"></path>
<g class="non-terminal">
<path d="M1075 70h0"></path>
<path d="M1183 70h0"></path>
<rect x="1075" y="59" width="108" height="22"></rect>
<a xlink:href="reuse_field_chain.svg"><text x="1129" y="74">field&#95;chain</text>
</a>
</g>
<path d="M1183 70a10 10 0 0 0 10 -10v-10a10 10 0 0 1 10 -10"></path>
</g>
</g>
<path d="M1248 40h10"></path>
<path d="M898 40v50a10 10 0 0 0 10 10"></path>
<g class="terminal">
<path d="M908 100h112"></path>
<path d="M1136 100h112"></path>
<rect x="1020" y="89" width="116" height="22" rx="10" ry="10"></rect>
<text x="1078" y="104">"OBLIGATORY"</text>
</g>
<path d="M1248 100a10 10 0 0 0 10 -10v-50"></path>
<path d="M898 40v80a10 10 0 0 0 10 10"></path>
<g>
<path d="M908 130h48"></path>
<path d="M1200 130h48"></path>
<g class="terminal">
<path d="M956 130h0"></path>
<path d="M1120 130h0"></path>
<rect x="956" y="119" width="164" height="22" rx="10" ry="10"></rect>
<text x="1038" y="134">"MATCHCODE OBJECT"</text>
</g>
<path d="M1120 130h10"></path>
<path d="M1130 130h10"></path>
<g class="non-terminal">
<path d="M1140 130h0"></path>
<path d="M1200 130h0"></path>
<rect x="1140" y="119" width="60" height="22"></rect>
<a xlink:href="reuse_field.svg"><text x="1170" y="134">field</text>
</a>
</g>
</g>
<path d="M1248 130a10 10 0 0 0 10 -10v-80"></path>
<path d="M898 40v110a10 10 0 0 0 10 10"></path>
<g>
<path d="M908 160h64"></path>
<path d="M1184 160h64"></path>
<g class="terminal">
<path d="M972 160h0"></path>
<path d="M1104 160h0"></path>
<rect x="972" y="149" width="132" height="22" rx="10" ry="10"></rect>
<text x="1038" y="164">"USER-COMMAND"</text>
</g>
<path d="M1104 160h10"></path>
<path d="M1114 160h10"></path>
<g class="non-terminal">
<path d="M1124 160h0"></path>
<path d="M1184 160h0"></path>
<rect x="1124" y="149" width="60" height="22"></rect>
<a xlink:href="reuse_field.svg"><text x="1154" y="164">field</text>
</a>
</g>
</g>
<path d="M1248 160a10 10 0 0 0 10 -10v-110"></path>
<path d="M898 40v140a10 10 0 0 0 10 10"></path>
<g>
<path d="M908 190h44"></path>
<path d="M1204 190h44"></path>
<g class="terminal">
<path d="M952 190h0"></path>
<path d="M1124 190h0"></path>
<rect x="952" y="179" width="172" height="22" rx="10" ry="10"></rect>
<text x="1038" y="194">"RADIOBUTTON GROUP"</text>
</g>
<path d="M1124 190h10"></path>
<path d="M1134 190h10"></path>
<g class="non-terminal">
<path d="M1144 190h0"></path>
<path d="M1204 190h0"></path>
<rect x="1144" y="179" width="60" height="22"></rect>
<a xlink:href="reuse_field.svg"><text x="1174" y="194">field</text>
</a>
</g>
</g>
<path d="M1248 190a10 10 0 0 0 10 -10v-140"></path>
<path d="M898 40v170a10 10 0 0 0 10 10"></path>
<g>
<path d="M908 220h76"></path>
<path d="M1172 220h76"></path>
<g class="terminal">
<path d="M984 220h0"></path>
<path d="M1092 220h0"></path>
<rect x="984" y="209" width="108" height="22" rx="10" ry="10"></rect>
<text x="1038" y="224">"MEMORY ID"</text>
</g>
<path d="M1092 220h10"></path>
<path d="M1102 220h10"></path>
<g class="non-terminal">
<path d="M1112 220h0"></path>
<path d="M1172 220h0"></path>
<rect x="1112" y="209" width="60" height="22"></rect>
<a xlink:href="reuse_field.svg"><text x="1142" y="224">field</text>
</a>
</g>
</g>
<path d="M1248 220a10 10 0 0 0 10 -10v-170"></path>
<path d="M898 40v200a10 10 0 0 0 10 10"></path>
<g>
<path d="M908 250h80"></path>
<path d="M1168 250h80"></path>
<g class="terminal">
<path d="M988 250h0"></path>
<path d="M1088 250h0"></path>
<rect x="988" y="239" width="100" height="22" rx="10" ry="10"></rect>
<text x="1038" y="254">"MODIF ID"</text>
</g>
<path d="M1088 250h10"></path>
<path d="M1098 250h10"></path>
<g class="non-terminal">
<path d="M1108 250h0"></path>
<path d="M1168 250h0"></path>
<rect x="1108" y="239" width="60" height="22"></rect>
<a xlink:href="reuse_field.svg"><text x="1138" y="254">field</text>
</a>
</g>
</g>
<path d="M1248 250a10 10 0 0 0 10 -10v-200"></path>
<path d="M898 40v230a10 10 0 0 0 10 10"></path>
<g>
<path d="M908 280h0"></path>
<path d="M1248 280h0"></path>
<g class="terminal">
<path d="M908 280h0"></path>
<path d="M1144 280h0"></path>
<rect x="908" y="269" width="236" height="22" rx="10" ry="10"></rect>
<text x="1026" y="284">"AS LISTBOX VISIBLE LENGTH"</text>
</g>
<path d="M1144 280h10"></path>
<path d="M1154 280h10"></path>
<g class="non-terminal">
<path d="M1164 280h0"></path>
<path d="M1248 280h0"></path>
<rect x="1164" y="269" width="84" height="22"></rect>
<a xlink:href="reuse_constant.svg"><text x="1206" y="284">constant</text>
</a>
</g>
</g>
<path d="M1248 280a10 10 0 0 0 10 -10v-230"></path>
<path d="M898 40v260a10 10 0 0 0 10 10"></path>
<g class="terminal">
<path d="M908 310h112"></path>
<path d="M1136 310h112"></path>
<rect x="1020" y="299" width="116" height="22" rx="10" ry="10"></rect>
<text x="1078" y="314">"LOWER CASE"</text>
</g>
<path d="M1248 310a10 10 0 0 0 10 -10v-260"></path>
<g class="diagram-text">
<title>take one or more branches, once each, in any order</title>
<path d="M 898 30 h -26 a 4 4 0 0 0 -4 4 v 12 a 4 4 0 0 0 4 4 h 26 z" class="diagram-text"></path>
<text x="883" y="44" class="diagram-text">1+</text>
<path d="M 1258 30 h 16 a 4 4 0 0 1 4 4 v 12 a 4 4 0 0 1 -4 4 h -16 z" class="diagram-text"></path>
<path d="M 1265 38 a 4 4 0 1 0 6 -1 m 2.75 -1 h -4 v 4 m 0 -3 h 2" style="stroke-width: 1.75"></path>
</g>
</g>
<path d="M1278 40h20"></path>
</g>
</g>
<path d="M1298 40h10"></path>
<path d="M 1308 40 h 20 m -10 -10 v 20 m 10 -20 v 20"></path>
</g>
</svg>
