<svg xmlns="http://www.w3.org/2000/svg" xmlns:xlink="http://www.w3.org/1999/xlink" class="railroad-diagram" width="1372" height="371" viewBox="0 0 1372 371">
<defs>
<style type="text/css"><![CDATA[
path {
stroke-width: 3;
stroke: black;
fill: rgba(0,0,0,0);
}
text {
font: bold 14px monospace;
text-anchor: middle;
}
text.diagram-text {
font-size: 12px;
}
a {
fill: blue;
}
text.diagram-arrow {
font-size: 16px;
}
text.label {
text-anchor: start;
}
text.comment {
font: italic 12px monospace;
}
rect {
stroke-width: 3;
stroke: black;
fill: #BCBCBC;
}
path.diagram-text {
stroke-width: 3;
stroke: black;
fill: #BCBCBC;
cursor: help;
}
]]></style>
</defs>
<g transform="translate(.5 .5)">
<path d="M 20 30 v 20 m 10 -20 v 20 m -10 -10 h 20.5"></path>
<path d="M40 40h10"></path>
<g>
<path d="M50 40h0"></path>
<path d="M1322 40h0"></path>
<g>
<path d="M50 40h0"></path>
<path d="M206 40h0"></path>
<path d="M50 40h20"></path>
<g class="terminal">
<path d="M70 40h0"></path>
<path d="M178 40h8"></path>
<rect x="70" y="29" width="108" height="22" rx="10" ry="10"></rect>
<text x="124" y="44">"PARAMETER"</text>
</g>
<path d="M186 40h20"></path>
<path d="M50 40a10 10 0 0 1 10 10v10a10 10 0 0 0 10 10"></path>
<g class="terminal">
<path d="M70 70h0"></path>
<path d="M186 70h0"></path>
<rect x="70" y="59" width="116" height="22" rx="10" ry="10"></rect>
<text x="128" y="74">"PARAMETERS"</text>
</g>
<path d="M186 70a10 10 0 0 0 10 -10v-10a10 10 0 0 1 10 -10"></path>
</g>
<path d="M206 40h10"></path>
<g class="non-terminal">
<path d="M216 40h0"></path>
<path d="M276 40h0"></path>
<rect x="216" y="29" width="60" height="22"></rect>
<a xlink:href="reuse_Field.svg"><text x="246" y="44">Field</text>
</a>
</g>
<path d="M276 40h10"></path>
<g>
<path d="M286 40h0"></path>
<path d="M552 40h0"></path>
<path d="M286 40a10 10 0 0 0 10 -10v0a10 10 0 0 1 10 -10"></path>
<g>
<path d="M306 20h226"></path>
</g>
<path d="M532 20a10 10 0 0 1 10 10v0a10 10 0 0 0 10 10"></path>
<path d="M286 40h20"></path>
<g>
<path d="M306 40h0"></path>
<path d="M532 40h0"></path>
<g>
<path d="M306 40h0"></path>
<path d="M414 40h0"></path>
<path d="M306 40h20"></path>
<g class="terminal">
<path d="M326 40h0"></path>
<path d="M394 40h0"></path>
<rect x="326" y="29" width="68" height="22" rx="10" ry="10"></rect>
<text x="360" y="44">"TYPE"</text>
</g>
<path d="M394 40h20"></path>
<path d="M306 40a10 10 0 0 1 10 10v10a10 10 0 0 0 10 10"></path>
<g class="terminal">
<path d="M326 70h0"></path>
<path d="M394 70h0"></path>
<rect x="326" y="59" width="68" height="22" rx="10" ry="10"></rect>
<text x="360" y="74">"LIKE"</text>
</g>
<path d="M394 70a10 10 0 0 0 10 -10v-10a10 10 0 0 1 10 -10"></path>
</g>
<path d="M414 40h10"></path>
<g class="non-terminal">
<path d="M424 40h0"></path>
<path d="M532 40h0"></path>
<rect x="424" y="29" width="108" height="22"></rect>
<a xlink:href="reuse_TypeDefName.svg"><text x="478" y="44">TypeDefName</text>
</a>
</g>
</g>
<path d="M532 40h20"></path>
</g>
<g>
<path d="M552 40h0"></path>
<path d="M708 40h0"></path>
<path d="M552 40a10 10 0 0 0 10 -10v0a10 10 0 0 1 10 -10"></path>
<g>
<path d="M572 20h116"></path>
</g>
<path d="M688 20a10 10 0 0 1 10 10v0a10 10 0 0 0 10 10"></path>
<path d="M552 40h20"></path>
<g class="terminal">
<path d="M572 40h0"></path>
<path d="M688 40h0"></path>
<rect x="572" y="29" width="116" height="22" rx="10" ry="10"></rect>
<text x="630" y="44">"NO-DISPLAY"</text>
</g>
<path d="M688 40h20"></path>
</g>
<g>
<path d="M708 40h0"></path>
<path d="M872 40h0"></path>
<path d="M708 40a10 10 0 0 0 10 -10v0a10 10 0 0 1 10 -10"></path>
<g>
<path d="M728 20h124"></path>
</g>
<path d="M852 20a10 10 0 0 1 10 10v0a10 10 0 0 0 10 10"></path>
<path d="M708 40h20"></path>
<g class="terminal">
<path d="M728 40h0"></path>
<path d="M852 40h0"></path>
<rect x="728" y="29" width="124" height="22" rx="10" ry="10"></rect>
<text x="790" y="44">"AS CHECKBOX"</text>
</g>
<path d="M852 40h20"></path>
</g>
<g>
<path d="M872 40h0"></path>
<path d="M1322 40h0"></path>
<path d="M872 40a10 10 0 0 0 10 -10v0a10 10 0 0 1 10 -10"></path>
<g>
<path d="M892 20h410"></path>
</g>
<path d="M1302 20a10 10 0 0 1 10 10v0a10 10 0 0 0 10 10"></path>
<path d="M872 40h20"></path>
<g>
<path d="M892 40h0"></path>
<path d="M1302 40h0"></path>
<path d="M922 40h10"></path>
<g>
<path d="M932 40h0"></path>
<path d="M1174 40h98"></path>
<g class="terminal">
<path d="M932 40h0"></path>
<path d="M1024 40h0"></path>
<rect x="932" y="29" width="92" height="22" rx="10" ry="10"></rect>
<text x="978" y="44">"DEFAULT"</text>
</g>
<path d="M1024 40h10"></path>
<g>
<path d="M1034 40h0"></path>
<path d="M1174 40h0"></path>
<path d="M1034 40h20"></path>
<g class="non-terminal">
<path d="M1054 40h0"></path>
<path d="M1138 40h16"></path>
<rect x="1054" y="29" width="84" height="22"></rect>
<a xlink:href="reuse_Constant.svg"><text x="1096" y="44">Constant</text>
</a>
</g>
<path d="M1154 40h20"></path>
<path d="M1034 40a10 10 0 0 1 10 10v10a10 10 0 0 0 10 10"></path>
<g class="non-terminal">
<path d="M1054 70h0"></path>
<path d="M1154 70h0"></path>
<rect x="1054" y="59" width="100" height="22"></rect>
<a xlink:href="reuse_FieldChain.svg"><text x="1104" y="74">FieldChain</text>
</a>
</g>
<path d="M1154 70a10 10 0 0 0 10 -10v-10a10 10 0 0 1 10 -10"></path>
</g>
</g>
<path d="M1272 40h10"></path>
<path d="M922 40v50a10 10 0 0 0 10 10"></path>
<g class="terminal">
<path d="M932 100h0"></path>
<path d="M1048 100h224"></path>
<rect x="932" y="89" width="116" height="22" rx="10" ry="10"></rect>
<text x="990" y="104">"OBLIGATORY"</text>
</g>
<path d="M1272 100a10 10 0 0 0 10 -10v-50"></path>
<path d="M922 40v80a10 10 0 0 0 10 10"></path>
<g>
<path d="M932 130h0"></path>
<path d="M1176 130h96"></path>
<g class="terminal">
<path d="M932 130h0"></path>
<path d="M1096 130h0"></path>
<rect x="932" y="119" width="164" height="22" rx="10" ry="10"></rect>
<text x="1014" y="134">"MATCHCODE OBJECT"</text>
</g>
<path d="M1096 130h10"></path>
<path d="M1106 130h10"></path>
<g class="non-terminal">
<path d="M1116 130h0"></path>
<path d="M1176 130h0"></path>
<rect x="1116" y="119" width="60" height="22"></rect>
<a xlink:href="reuse_Field.svg"><text x="1146" y="134">Field</text>
</a>
</g>
</g>
<path d="M1272 130a10 10 0 0 0 10 -10v-80"></path>
<path d="M922 40v110a10 10 0 0 0 10 10"></path>
<g>
<path d="M932 160h0"></path>
<path d="M1144 160h128"></path>
<g class="terminal">
<path d="M932 160h0"></path>
<path d="M1064 160h0"></path>
<rect x="932" y="149" width="132" height="22" rx="10" ry="10"></rect>
<text x="998" y="164">"USER-COMMAND"</text>
</g>
<path d="M1064 160h10"></path>
<path d="M1074 160h10"></path>
<g class="non-terminal">
<path d="M1084 160h0"></path>
<path d="M1144 160h0"></path>
<rect x="1084" y="149" width="60" height="22"></rect>
<a xlink:href="reuse_Field.svg"><text x="1114" y="164">Field</text>
</a>
</g>
</g>
<path d="M1272 160a10 10 0 0 0 10 -10v-110"></path>
<path d="M922 40v140a10 10 0 0 0 10 10"></path>
<g>
<path d="M932 190h0"></path>
<path d="M1184 190h88"></path>
<g class="terminal">
<path d="M932 190h0"></path>
<path d="M1104 190h0"></path>
<rect x="932" y="179" width="172" height="22" rx="10" ry="10"></rect>
<text x="1018" y="194">"RADIOBUTTON GROUP"</text>
</g>
<path d="M1104 190h10"></path>
<path d="M1114 190h10"></path>
<g class="non-terminal">
<path d="M1124 190h0"></path>
<path d="M1184 190h0"></path>
<rect x="1124" y="179" width="60" height="22"></rect>
<a xlink:href="reuse_Field.svg"><text x="1154" y="194">Field</text>
</a>
</g>
</g>
<path d="M1272 190a10 10 0 0 0 10 -10v-140"></path>
<path d="M922 40v170a10 10 0 0 0 10 10"></path>
<g>
<path d="M932 220h0"></path>
<path d="M1120 220h152"></path>
<g class="terminal">
<path d="M932 220h0"></path>
<path d="M1040 220h0"></path>
<rect x="932" y="209" width="108" height="22" rx="10" ry="10"></rect>
<text x="986" y="224">"MEMORY ID"</text>
</g>
<path d="M1040 220h10"></path>
<path d="M1050 220h10"></path>
<g class="non-terminal">
<path d="M1060 220h0"></path>
<path d="M1120 220h0"></path>
<rect x="1060" y="209" width="60" height="22"></rect>
<a xlink:href="reuse_Field.svg"><text x="1090" y="224">Field</text>
</a>
</g>
</g>
<path d="M1272 220a10 10 0 0 0 10 -10v-170"></path>
<path d="M922 40v200a10 10 0 0 0 10 10"></path>
<g>
<path d="M932 250h0"></path>
<path d="M1112 250h160"></path>
<g class="terminal">
<path d="M932 250h0"></path>
<path d="M1032 250h0"></path>
<rect x="932" y="239" width="100" height="22" rx="10" ry="10"></rect>
<text x="982" y="254">"MODIF ID"</text>
</g>
<path d="M1032 250h10"></path>
<path d="M1042 250h10"></path>
<g class="non-terminal">
<path d="M1052 250h0"></path>
<path d="M1112 250h0"></path>
<rect x="1052" y="239" width="60" height="22"></rect>
<a xlink:href="reuse_Field.svg"><text x="1082" y="254">Field</text>
</a>
</g>
</g>
<path d="M1272 250a10 10 0 0 0 10 -10v-200"></path>
<path d="M922 40v230a10 10 0 0 0 10 10"></path>
<g>
<path d="M932 280h0"></path>
<path d="M1272 280h0"></path>
<g class="terminal">
<path d="M932 280h0"></path>
<path d="M1168 280h0"></path>
<rect x="932" y="269" width="236" height="22" rx="10" ry="10"></rect>
<text x="1050" y="284">"AS LISTBOX VISIBLE LENGTH"</text>
</g>
<path d="M1168 280h10"></path>
<path d="M1178 280h10"></path>
<g class="non-terminal">
<path d="M1188 280h0"></path>
<path d="M1272 280h0"></path>
<rect x="1188" y="269" width="84" height="22"></rect>
<a xlink:href="reuse_Constant.svg"><text x="1230" y="284">Constant</text>
</a>
</g>
</g>
<path d="M1272 280a10 10 0 0 0 10 -10v-230"></path>
<path d="M922 40v260a10 10 0 0 0 10 10"></path>
<g>
<path d="M932 310h0"></path>
<path d="M1184 310h88"></path>
<g class="terminal">
<path d="M932 310h0"></path>
<path d="M1080 310h0"></path>
<rect x="932" y="299" width="148" height="22" rx="10" ry="10"></rect>
<text x="1006" y="314">"VISIBLE LENGTH"</text>
</g>
<path d="M1080 310h10"></path>
<path d="M1090 310h10"></path>
<g class="non-terminal">
<path d="M1100 310h0"></path>
<path d="M1184 310h0"></path>
<rect x="1100" y="299" width="84" height="22"></rect>
<a xlink:href="reuse_Constant.svg"><text x="1142" y="314">Constant</text>
</a>
</g>
</g>
<path d="M1272 310a10 10 0 0 0 10 -10v-260"></path>
<path d="M922 40v290a10 10 0 0 0 10 10"></path>
<g class="terminal">
<path d="M932 340h0"></path>
<path d="M1048 340h224"></path>
<rect x="932" y="329" width="116" height="22" rx="10" ry="10"></rect>
<text x="990" y="344">"LOWER CASE"</text>
</g>
<path d="M1272 340a10 10 0 0 0 10 -10v-290"></path>
<g class="diagram-text">
<title>take one or more branches, once each, in any order</title>
<path d="M 922 30 h -26 a 4 4 0 0 0 -4 4 v 12 a 4 4 0 0 0 4 4 h 26 z" class="diagram-text"></path>
<text x="907" y="44" class="diagram-text">1+</text>
<path d="M 1282 30 h 16 a 4 4 0 0 1 4 4 v 12 a 4 4 0 0 1 -4 4 h -16 z" class="diagram-text"></path>
<path d="M 1289 38 a 4 4 0 1 0 6 -1 m 2.75 -1 h -4 v 4 m 0 -3 h 2" style="stroke-width: 1.75"></path>
</g>
</g>
<path d="M1302 40h20"></path>
</g>
</g>
<path d="M1322 40h10"></path>
<path d="M 1332 40 h 20 m -10 -10 v 20 m 10 -20 v 20"></path>
</g>
</svg>
