<svg xmlns="http://www.w3.org/2000/svg" xmlns:xlink="http://www.w3.org/1999/xlink" class="railroad-diagram" width="2756" height="131" viewBox="0 0 2756 131">
<defs>
<style type="text/css"><![CDATA[
path {
stroke-width: 3;
stroke: black;
fill: rgba(0,0,0,0);
}
text {
font: bold 14px monospace;
text-anchor: middle;
}
text.diagram-text {
font-size: 12px;
}
a {
fill: blue;
}
text.diagram-arrow {
font-size: 16px;
}
text.label {
text-anchor: start;
}
text.comment {
font: italic 12px monospace;
}
rect {
stroke-width: 3;
stroke: black;
fill: #BCBCBC;
}
path.diagram-text {
stroke-width: 3;
stroke: black;
fill: #BCBCBC;
cursor: help;
}
]]></style>
</defs>
<g transform="translate(.5 .5)">
<path d="M 20 30 v 20 m 10 -20 v 20 m -10 -10 h 20.5"></path>
<path d="M40 40h10"></path>
<g>
<path d="M50 40h0"></path>
<path d="M2706 40h0"></path>
<g>
<path d="M50 40h0"></path>
<path d="M206 40h0"></path>
<path d="M50 40h20"></path>
<g class="terminal">
<path d="M70 40h4"></path>
<path d="M182 40h4"></path>
<rect x="74" y="29" width="108" height="22" rx="10" ry="10"></rect>
<text x="128" y="44">"PARAMETER"</text>
</g>
<path d="M186 40h20"></path>
<path d="M50 40a10 10 0 0 1 10 10v10a10 10 0 0 0 10 10"></path>
<g class="terminal">
<path d="M70 70h0"></path>
<path d="M186 70h0"></path>
<rect x="70" y="59" width="116" height="22" rx="10" ry="10"></rect>
<text x="128" y="74">"PARAMETERS"</text>
</g>
<path d="M186 70a10 10 0 0 0 10 -10v-10a10 10 0 0 1 10 -10"></path>
</g>
<path d="M206 40h10"></path>
<g class="non-terminal">
<path d="M216 40h0"></path>
<path d="M276 40h0"></path>
<rect x="216" y="29" width="60" height="22"></rect>
<a xlink:href="reuse_field.svg"><text x="246" y="44">field</text>
</a>
</g>
<path d="M276 40h10"></path>
<g>
<path d="M286 40h0"></path>
<path d="M498 40h0"></path>
<path d="M286 40a10 10 0 0 0 10 -10v0a10 10 0 0 1 10 -10"></path>
<g>
<path d="M306 20h172"></path>
</g>
<path d="M478 20a10 10 0 0 1 10 10v0a10 10 0 0 0 10 10"></path>
<path d="M286 40h20"></path>
<g>
<path d="M306 40h0"></path>
<path d="M478 40h0"></path>
<g class="terminal">
<path d="M306 40h0"></path>
<path d="M374 40h0"></path>
<rect x="306" y="29" width="68" height="22" rx="10" ry="10"></rect>
<text x="340" y="44">"TYPE"</text>
</g>
<path d="M374 40h10"></path>
<path d="M384 40h10"></path>
<g class="non-terminal">
<path d="M394 40h0"></path>
<path d="M478 40h0"></path>
<rect x="394" y="29" width="84" height="22"></rect>
<a xlink:href="reuse_typename.svg"><text x="436" y="44">typename</text>
</a>
</g>
</g>
<path d="M478 40h20"></path>
</g>
<g>
<path d="M498 40h0"></path>
<path d="M878 40h0"></path>
<path d="M498 40a10 10 0 0 0 10 -10v0a10 10 0 0 1 10 -10"></path>
<g>
<path d="M518 20h340"></path>
</g>
<path d="M858 20a10 10 0 0 1 10 10v0a10 10 0 0 0 10 10"></path>
<path d="M498 40h20"></path>
<g>
<path d="M518 40h0"></path>
<path d="M858 40h0"></path>
<g class="terminal">
<path d="M518 40h0"></path>
<path d="M754 40h0"></path>
<rect x="518" y="29" width="236" height="22" rx="10" ry="10"></rect>
<text x="636" y="44">"AS LISTBOX VISIBLE LENGTH"</text>
</g>
<path d="M754 40h10"></path>
<path d="M764 40h10"></path>
<g class="non-terminal">
<path d="M774 40h0"></path>
<path d="M858 40h0"></path>
<rect x="774" y="29" width="84" height="22"></rect>
<a xlink:href="reuse_constant.svg"><text x="816" y="44">constant</text>
</a>
</g>
</g>
<path d="M858 40h20"></path>
</g>
<g>
<path d="M878 40h0"></path>
<path d="M1034 40h0"></path>
<path d="M878 40a10 10 0 0 0 10 -10v0a10 10 0 0 1 10 -10"></path>
<g>
<path d="M898 20h116"></path>
</g>
<path d="M1014 20a10 10 0 0 1 10 10v0a10 10 0 0 0 10 10"></path>
<path d="M878 40h20"></path>
<g class="terminal">
<path d="M898 40h0"></path>
<path d="M1014 40h0"></path>
<rect x="898" y="29" width="116" height="22" rx="10" ry="10"></rect>
<text x="956" y="44">"LOWER CASE"</text>
</g>
<path d="M1014 40h20"></path>
</g>
<g>
<path d="M1034 40h0"></path>
<path d="M1190 40h0"></path>
<path d="M1034 40a10 10 0 0 0 10 -10v0a10 10 0 0 1 10 -10"></path>
<g>
<path d="M1054 20h116"></path>
</g>
<path d="M1170 20a10 10 0 0 1 10 10v0a10 10 0 0 0 10 10"></path>
<path d="M1034 40h20"></path>
<g class="terminal">
<path d="M1054 40h0"></path>
<path d="M1170 40h0"></path>
<rect x="1054" y="29" width="116" height="22" rx="10" ry="10"></rect>
<text x="1112" y="44">"NO-DISPLAY"</text>
</g>
<path d="M1170 40h20"></path>
</g>
<g>
<path d="M1190 40h0"></path>
<path d="M1410 40h0"></path>
<path d="M1190 40a10 10 0 0 0 10 -10v0a10 10 0 0 1 10 -10"></path>
<g>
<path d="M1210 20h180"></path>
</g>
<path d="M1390 20a10 10 0 0 1 10 10v0a10 10 0 0 0 10 10"></path>
<path d="M1190 40h20"></path>
<g>
<path d="M1210 40h0"></path>
<path d="M1390 40h0"></path>
<g class="terminal">
<path d="M1210 40h0"></path>
<path d="M1310 40h0"></path>
<rect x="1210" y="29" width="100" height="22" rx="10" ry="10"></rect>
<text x="1260" y="44">"MODIF ID"</text>
</g>
<path d="M1310 40h10"></path>
<path d="M1320 40h10"></path>
<g class="non-terminal">
<path d="M1330 40h0"></path>
<path d="M1390 40h0"></path>
<rect x="1330" y="29" width="60" height="22"></rect>
<a xlink:href="reuse_field.svg"><text x="1360" y="44">field</text>
</a>
</g>
</g>
<path d="M1390 40h20"></path>
</g>
<g>
<path d="M1410 40h0"></path>
<path d="M1574 40h0"></path>
<path d="M1410 40a10 10 0 0 0 10 -10v0a10 10 0 0 1 10 -10"></path>
<g>
<path d="M1430 20h124"></path>
</g>
<path d="M1554 20a10 10 0 0 1 10 10v0a10 10 0 0 0 10 10"></path>
<path d="M1410 40h20"></path>
<g class="terminal">
<path d="M1430 40h0"></path>
<path d="M1554 40h0"></path>
<rect x="1430" y="29" width="124" height="22" rx="10" ry="10"></rect>
<text x="1492" y="44">"AS CHECKBOX"</text>
</g>
<path d="M1554 40h20"></path>
</g>
<g>
<path d="M1574 40h0"></path>
<path d="M1802 40h0"></path>
<path d="M1574 40a10 10 0 0 0 10 -10v0a10 10 0 0 1 10 -10"></path>
<g>
<path d="M1594 20h188"></path>
</g>
<path d="M1782 20a10 10 0 0 1 10 10v0a10 10 0 0 0 10 10"></path>
<path d="M1574 40h20"></path>
<g>
<path d="M1594 40h0"></path>
<path d="M1782 40h0"></path>
<g class="terminal">
<path d="M1594 40h0"></path>
<path d="M1702 40h0"></path>
<rect x="1594" y="29" width="108" height="22" rx="10" ry="10"></rect>
<text x="1648" y="44">"MEMORY ID"</text>
</g>
<path d="M1702 40h10"></path>
<path d="M1712 40h10"></path>
<g class="non-terminal">
<path d="M1722 40h0"></path>
<path d="M1782 40h0"></path>
<rect x="1722" y="29" width="60" height="22"></rect>
<a xlink:href="reuse_field.svg"><text x="1752" y="44">field</text>
</a>
</g>
</g>
<path d="M1782 40h20"></path>
</g>
<g>
<path d="M1802 40h0"></path>
<path d="M2094 40h0"></path>
<path d="M1802 40a10 10 0 0 0 10 -10v0a10 10 0 0 1 10 -10"></path>
<g>
<path d="M1822 20h252"></path>
</g>
<path d="M2074 20a10 10 0 0 1 10 10v0a10 10 0 0 0 10 10"></path>
<path d="M1802 40h20"></path>
<g>
<path d="M1822 40h0"></path>
<path d="M2074 40h0"></path>
<g class="terminal">
<path d="M1822 40h0"></path>
<path d="M1994 40h0"></path>
<rect x="1822" y="29" width="172" height="22" rx="10" ry="10"></rect>
<text x="1908" y="44">"RADIOBUTTON GROUP"</text>
</g>
<path d="M1994 40h10"></path>
<path d="M2004 40h10"></path>
<g class="non-terminal">
<path d="M2014 40h0"></path>
<path d="M2074 40h0"></path>
<rect x="2014" y="29" width="60" height="22"></rect>
<a xlink:href="reuse_field.svg"><text x="2044" y="44">field</text>
</a>
</g>
</g>
<path d="M2074 40h20"></path>
</g>
<g>
<path d="M2094 40h0"></path>
<path d="M2346 40h0"></path>
<path d="M2094 40a10 10 0 0 0 10 -10v0a10 10 0 0 1 10 -10"></path>
<g>
<path d="M2114 20h212"></path>
</g>
<path d="M2326 20a10 10 0 0 1 10 10v0a10 10 0 0 0 10 10"></path>
<path d="M2094 40h20"></path>
<g>
<path d="M2114 40h0"></path>
<path d="M2326 40h0"></path>
<g class="terminal">
<path d="M2114 40h0"></path>
<path d="M2246 40h0"></path>
<rect x="2114" y="29" width="132" height="22" rx="10" ry="10"></rect>
<text x="2180" y="44">"USER-COMMAND"</text>
</g>
<path d="M2246 40h10"></path>
<path d="M2256 40h10"></path>
<g class="non-terminal">
<path d="M2266 40h0"></path>
<path d="M2326 40h0"></path>
<rect x="2266" y="29" width="60" height="22"></rect>
<a xlink:href="reuse_field.svg"><text x="2296" y="44">field</text>
</a>
</g>
</g>
<path d="M2326 40h20"></path>
</g>
<g>
<path d="M2346 40h0"></path>
<path d="M2706 40h0"></path>
<path d="M2346 40a10 10 0 0 0 10 -10v0a10 10 0 0 1 10 -10"></path>
<g>
<path d="M2366 20h320"></path>
</g>
<path d="M2686 20a10 10 0 0 1 10 10v0a10 10 0 0 0 10 10"></path>
<path d="M2346 40h20"></path>
<g>
<path d="M2366 40h0"></path>
<path d="M2686 40h0"></path>
<path d="M2396 40h10"></path>
<g>
<path d="M2406 40h0"></path>
<path d="M2656 40h0"></path>
<g class="terminal">
<path d="M2406 40h0"></path>
<path d="M2498 40h0"></path>
<rect x="2406" y="29" width="92" height="22" rx="10" ry="10"></rect>
<text x="2452" y="44">"DEFAULT"</text>
</g>
<path d="M2498 40h10"></path>
<g>
<path d="M2508 40h0"></path>
<path d="M2656 40h0"></path>
<path d="M2508 40h20"></path>
<g class="non-terminal">
<path d="M2528 40h12"></path>
<path d="M2624 40h12"></path>
<rect x="2540" y="29" width="84" height="22"></rect>
<a xlink:href="reuse_constant.svg"><text x="2582" y="44">constant</text>
</a>
</g>
<path d="M2636 40h20"></path>
<path d="M2508 40a10 10 0 0 1 10 10v10a10 10 0 0 0 10 10"></path>
<g class="non-terminal">
<path d="M2528 70h0"></path>
<path d="M2636 70h0"></path>
<rect x="2528" y="59" width="108" height="22"></rect>
<a xlink:href="reuse_field_chain.svg"><text x="2582" y="74">field&#95;chain</text>
</a>
</g>
<path d="M2636 70a10 10 0 0 0 10 -10v-10a10 10 0 0 1 10 -10"></path>
</g>
</g>
<path d="M2656 40h10"></path>
<path d="M2396 40v50a10 10 0 0 0 10 10"></path>
<g class="terminal">
<path d="M2406 100h67"></path>
<path d="M2589 100h67"></path>
<rect x="2473" y="89" width="116" height="22" rx="10" ry="10"></rect>
<text x="2531" y="104">"OBLIGATORY"</text>
</g>
<path d="M2656 100a10 10 0 0 0 10 -10v-50"></path>
<g class="diagram-text">
<title>take one or more branches, once each, in any order</title>
<path d="M 2396 30 h -26 a 4 4 0 0 0 -4 4 v 12 a 4 4 0 0 0 4 4 h 26 z" class="diagram-text"></path>
<text x="2381" y="44" class="diagram-text">1+</text>
<path d="M 2666 30 h 16 a 4 4 0 0 1 4 4 v 12 a 4 4 0 0 1 -4 4 h -16 z" class="diagram-text"></path>
<path d="M 2673 38 a 4 4 0 1 0 6 -1 m 2.75 -1 h -4 v 4 m 0 -3 h 2" style="stroke-width: 1.75"></path>
</g>
</g>
<path d="M2686 40h20"></path>
</g>
</g>
<path d="M2706 40h10"></path>
<path d="M 2716 40 h 20 m -10 -10 v 20 m 10 -20 v 20"></path>
</g>
</svg>
