<svg xmlns="http://www.w3.org/2000/svg" xmlns:xlink="http://www.w3.org/1999/xlink" class="railroad-diagram" width="1364" height="371" viewBox="0 0 1364 371">
<defs>
<style type="text/css"><![CDATA[
path {
stroke-width: 3;
stroke: black;
fill: rgba(0,0,0,0);
}
text {
font: bold 14px monospace;
text-anchor: middle;
}
text.diagram-text {
font-size: 12px;
}
a {
fill: blue;
}
text.diagram-arrow {
font-size: 16px;
}
text.label {
text-anchor: start;
}
text.comment {
font: italic 12px monospace;
}
rect {
stroke-width: 3;
stroke: black;
fill: #BCBCBC;
}
path.diagram-text {
stroke-width: 3;
stroke: black;
fill: #BCBCBC;
cursor: help;
}
]]></style>
</defs>
<g transform="translate(.5 .5)">
<path d="M 20 30 v 20 m 10 -20 v 20 m -10 -10 h 20.5"></path>
<path d="M40 40h10"></path>
<g>
<path d="M50 40h0"></path>
<path d="M1314 40h0"></path>
<g>
<path d="M50 40h0"></path>
<path d="M206 40h0"></path>
<path d="M50 40h20"></path>
<g class="terminal">
<path d="M70 40h0"></path>
<path d="M178 40h8"></path>
<rect x="70" y="29" width="108" height="22" rx="10" ry="10"></rect>
<text x="124" y="44">"PARAMETER"</text>
</g>
<path d="M186 40h20"></path>
<path d="M50 40a10 10 0 0 1 10 10v10a10 10 0 0 0 10 10"></path>
<g class="terminal">
<path d="M70 70h0"></path>
<path d="M186 70h0"></path>
<rect x="70" y="59" width="116" height="22" rx="10" ry="10"></rect>
<text x="128" y="74">"PARAMETERS"</text>
</g>
<path d="M186 70a10 10 0 0 0 10 -10v-10a10 10 0 0 1 10 -10"></path>
</g>
<path d="M206 40h10"></path>
<g class="non-terminal">
<path d="M216 40h0"></path>
<path d="M276 40h0"></path>
<rect x="216" y="29" width="60" height="22"></rect>
<a xlink:href="reuse_field.svg"><text x="246" y="44">Field</text>
</a>
</g>
<path d="M276 40h10"></path>
<g>
<path d="M286 40h0"></path>
<path d="M544 40h0"></path>
<path d="M286 40a10 10 0 0 0 10 -10v0a10 10 0 0 1 10 -10"></path>
<g>
<path d="M306 20h218"></path>
</g>
<path d="M524 20a10 10 0 0 1 10 10v0a10 10 0 0 0 10 10"></path>
<path d="M286 40h20"></path>
<g>
<path d="M306 40h0"></path>
<path d="M524 40h0"></path>
<g>
<path d="M306 40h0"></path>
<path d="M414 40h0"></path>
<path d="M306 40h20"></path>
<g class="terminal">
<path d="M326 40h0"></path>
<path d="M394 40h0"></path>
<rect x="326" y="29" width="68" height="22" rx="10" ry="10"></rect>
<text x="360" y="44">"TYPE"</text>
</g>
<path d="M394 40h20"></path>
<path d="M306 40a10 10 0 0 1 10 10v10a10 10 0 0 0 10 10"></path>
<g class="terminal">
<path d="M326 70h0"></path>
<path d="M394 70h0"></path>
<rect x="326" y="59" width="68" height="22" rx="10" ry="10"></rect>
<text x="360" y="74">"LIKE"</text>
</g>
<path d="M394 70a10 10 0 0 0 10 -10v-10a10 10 0 0 1 10 -10"></path>
</g>
<path d="M414 40h10"></path>
<g class="non-terminal">
<path d="M424 40h0"></path>
<path d="M524 40h0"></path>
<rect x="424" y="29" width="100" height="22"></rect>
<a xlink:href="reuse_fieldchain.svg"><text x="474" y="44">FieldChain</text>
</a>
</g>
</g>
<path d="M524 40h20"></path>
</g>
<g>
<path d="M544 40h0"></path>
<path d="M700 40h0"></path>
<path d="M544 40a10 10 0 0 0 10 -10v0a10 10 0 0 1 10 -10"></path>
<g>
<path d="M564 20h116"></path>
</g>
<path d="M680 20a10 10 0 0 1 10 10v0a10 10 0 0 0 10 10"></path>
<path d="M544 40h20"></path>
<g class="terminal">
<path d="M564 40h0"></path>
<path d="M680 40h0"></path>
<rect x="564" y="29" width="116" height="22" rx="10" ry="10"></rect>
<text x="622" y="44">"NO-DISPLAY"</text>
</g>
<path d="M680 40h20"></path>
</g>
<g>
<path d="M700 40h0"></path>
<path d="M864 40h0"></path>
<path d="M700 40a10 10 0 0 0 10 -10v0a10 10 0 0 1 10 -10"></path>
<g>
<path d="M720 20h124"></path>
</g>
<path d="M844 20a10 10 0 0 1 10 10v0a10 10 0 0 0 10 10"></path>
<path d="M700 40h20"></path>
<g class="terminal">
<path d="M720 40h0"></path>
<path d="M844 40h0"></path>
<rect x="720" y="29" width="124" height="22" rx="10" ry="10"></rect>
<text x="782" y="44">"AS CHECKBOX"</text>
</g>
<path d="M844 40h20"></path>
</g>
<g>
<path d="M864 40h0"></path>
<path d="M1314 40h0"></path>
<path d="M864 40a10 10 0 0 0 10 -10v0a10 10 0 0 1 10 -10"></path>
<g>
<path d="M884 20h410"></path>
</g>
<path d="M1294 20a10 10 0 0 1 10 10v0a10 10 0 0 0 10 10"></path>
<path d="M864 40h20"></path>
<g>
<path d="M884 40h0"></path>
<path d="M1294 40h0"></path>
<path d="M914 40h10"></path>
<g>
<path d="M924 40h0"></path>
<path d="M1166 40h98"></path>
<g class="terminal">
<path d="M924 40h0"></path>
<path d="M1016 40h0"></path>
<rect x="924" y="29" width="92" height="22" rx="10" ry="10"></rect>
<text x="970" y="44">"DEFAULT"</text>
</g>
<path d="M1016 40h10"></path>
<g>
<path d="M1026 40h0"></path>
<path d="M1166 40h0"></path>
<path d="M1026 40h20"></path>
<g class="non-terminal">
<path d="M1046 40h0"></path>
<path d="M1130 40h16"></path>
<rect x="1046" y="29" width="84" height="22"></rect>
<a xlink:href="reuse_constant.svg"><text x="1088" y="44">Constant</text>
</a>
</g>
<path d="M1146 40h20"></path>
<path d="M1026 40a10 10 0 0 1 10 10v10a10 10 0 0 0 10 10"></path>
<g class="non-terminal">
<path d="M1046 70h0"></path>
<path d="M1146 70h0"></path>
<rect x="1046" y="59" width="100" height="22"></rect>
<a xlink:href="reuse_fieldchain.svg"><text x="1096" y="74">FieldChain</text>
</a>
</g>
<path d="M1146 70a10 10 0 0 0 10 -10v-10a10 10 0 0 1 10 -10"></path>
</g>
</g>
<path d="M1264 40h10"></path>
<path d="M914 40v50a10 10 0 0 0 10 10"></path>
<g class="terminal">
<path d="M924 100h0"></path>
<path d="M1040 100h224"></path>
<rect x="924" y="89" width="116" height="22" rx="10" ry="10"></rect>
<text x="982" y="104">"OBLIGATORY"</text>
</g>
<path d="M1264 100a10 10 0 0 0 10 -10v-50"></path>
<path d="M914 40v80a10 10 0 0 0 10 10"></path>
<g>
<path d="M924 130h0"></path>
<path d="M1168 130h96"></path>
<g class="terminal">
<path d="M924 130h0"></path>
<path d="M1088 130h0"></path>
<rect x="924" y="119" width="164" height="22" rx="10" ry="10"></rect>
<text x="1006" y="134">"MATCHCODE OBJECT"</text>
</g>
<path d="M1088 130h10"></path>
<path d="M1098 130h10"></path>
<g class="non-terminal">
<path d="M1108 130h0"></path>
<path d="M1168 130h0"></path>
<rect x="1108" y="119" width="60" height="22"></rect>
<a xlink:href="reuse_field.svg"><text x="1138" y="134">Field</text>
</a>
</g>
</g>
<path d="M1264 130a10 10 0 0 0 10 -10v-80"></path>
<path d="M914 40v110a10 10 0 0 0 10 10"></path>
<g>
<path d="M924 160h0"></path>
<path d="M1136 160h128"></path>
<g class="terminal">
<path d="M924 160h0"></path>
<path d="M1056 160h0"></path>
<rect x="924" y="149" width="132" height="22" rx="10" ry="10"></rect>
<text x="990" y="164">"USER-COMMAND"</text>
</g>
<path d="M1056 160h10"></path>
<path d="M1066 160h10"></path>
<g class="non-terminal">
<path d="M1076 160h0"></path>
<path d="M1136 160h0"></path>
<rect x="1076" y="149" width="60" height="22"></rect>
<a xlink:href="reuse_field.svg"><text x="1106" y="164">Field</text>
</a>
</g>
</g>
<path d="M1264 160a10 10 0 0 0 10 -10v-110"></path>
<path d="M914 40v140a10 10 0 0 0 10 10"></path>
<g>
<path d="M924 190h0"></path>
<path d="M1176 190h88"></path>
<g class="terminal">
<path d="M924 190h0"></path>
<path d="M1096 190h0"></path>
<rect x="924" y="179" width="172" height="22" rx="10" ry="10"></rect>
<text x="1010" y="194">"RADIOBUTTON GROUP"</text>
</g>
<path d="M1096 190h10"></path>
<path d="M1106 190h10"></path>
<g class="non-terminal">
<path d="M1116 190h0"></path>
<path d="M1176 190h0"></path>
<rect x="1116" y="179" width="60" height="22"></rect>
<a xlink:href="reuse_field.svg"><text x="1146" y="194">Field</text>
</a>
</g>
</g>
<path d="M1264 190a10 10 0 0 0 10 -10v-140"></path>
<path d="M914 40v170a10 10 0 0 0 10 10"></path>
<g>
<path d="M924 220h0"></path>
<path d="M1112 220h152"></path>
<g class="terminal">
<path d="M924 220h0"></path>
<path d="M1032 220h0"></path>
<rect x="924" y="209" width="108" height="22" rx="10" ry="10"></rect>
<text x="978" y="224">"MEMORY ID"</text>
</g>
<path d="M1032 220h10"></path>
<path d="M1042 220h10"></path>
<g class="non-terminal">
<path d="M1052 220h0"></path>
<path d="M1112 220h0"></path>
<rect x="1052" y="209" width="60" height="22"></rect>
<a xlink:href="reuse_field.svg"><text x="1082" y="224">Field</text>
</a>
</g>
</g>
<path d="M1264 220a10 10 0 0 0 10 -10v-170"></path>
<path d="M914 40v200a10 10 0 0 0 10 10"></path>
<g>
<path d="M924 250h0"></path>
<path d="M1104 250h160"></path>
<g class="terminal">
<path d="M924 250h0"></path>
<path d="M1024 250h0"></path>
<rect x="924" y="239" width="100" height="22" rx="10" ry="10"></rect>
<text x="974" y="254">"MODIF ID"</text>
</g>
<path d="M1024 250h10"></path>
<path d="M1034 250h10"></path>
<g class="non-terminal">
<path d="M1044 250h0"></path>
<path d="M1104 250h0"></path>
<rect x="1044" y="239" width="60" height="22"></rect>
<a xlink:href="reuse_field.svg"><text x="1074" y="254">Field</text>
</a>
</g>
</g>
<path d="M1264 250a10 10 0 0 0 10 -10v-200"></path>
<path d="M914 40v230a10 10 0 0 0 10 10"></path>
<g>
<path d="M924 280h0"></path>
<path d="M1264 280h0"></path>
<g class="terminal">
<path d="M924 280h0"></path>
<path d="M1160 280h0"></path>
<rect x="924" y="269" width="236" height="22" rx="10" ry="10"></rect>
<text x="1042" y="284">"AS LISTBOX VISIBLE LENGTH"</text>
</g>
<path d="M1160 280h10"></path>
<path d="M1170 280h10"></path>
<g class="non-terminal">
<path d="M1180 280h0"></path>
<path d="M1264 280h0"></path>
<rect x="1180" y="269" width="84" height="22"></rect>
<a xlink:href="reuse_constant.svg"><text x="1222" y="284">Constant</text>
</a>
</g>
</g>
<path d="M1264 280a10 10 0 0 0 10 -10v-230"></path>
<path d="M914 40v260a10 10 0 0 0 10 10"></path>
<g>
<path d="M924 310h0"></path>
<path d="M1176 310h88"></path>
<g class="terminal">
<path d="M924 310h0"></path>
<path d="M1072 310h0"></path>
<rect x="924" y="299" width="148" height="22" rx="10" ry="10"></rect>
<text x="998" y="314">"VISIBLE LENGTH"</text>
</g>
<path d="M1072 310h10"></path>
<path d="M1082 310h10"></path>
<g class="non-terminal">
<path d="M1092 310h0"></path>
<path d="M1176 310h0"></path>
<rect x="1092" y="299" width="84" height="22"></rect>
<a xlink:href="reuse_constant.svg"><text x="1134" y="314">Constant</text>
</a>
</g>
</g>
<path d="M1264 310a10 10 0 0 0 10 -10v-260"></path>
<path d="M914 40v290a10 10 0 0 0 10 10"></path>
<g class="terminal">
<path d="M924 340h0"></path>
<path d="M1040 340h224"></path>
<rect x="924" y="329" width="116" height="22" rx="10" ry="10"></rect>
<text x="982" y="344">"LOWER CASE"</text>
</g>
<path d="M1264 340a10 10 0 0 0 10 -10v-290"></path>
<g class="diagram-text">
<title>take one or more branches, once each, in any order</title>
<path d="M 914 30 h -26 a 4 4 0 0 0 -4 4 v 12 a 4 4 0 0 0 4 4 h 26 z" class="diagram-text"></path>
<text x="899" y="44" class="diagram-text">1+</text>
<path d="M 1274 30 h 16 a 4 4 0 0 1 4 4 v 12 a 4 4 0 0 1 -4 4 h -16 z" class="diagram-text"></path>
<path d="M 1281 38 a 4 4 0 1 0 6 -1 m 2.75 -1 h -4 v 4 m 0 -3 h 2" style="stroke-width: 1.75"></path>
</g>
</g>
<path d="M1294 40h20"></path>
</g>
</g>
<path d="M1314 40h10"></path>
<path d="M 1324 40 h 20 m -10 -10 v 20 m 10 -20 v 20"></path>
</g>
</svg>
