<?xml version="1.0" encoding="UTF-8" standalone="no"?>
<!DOCTYPE svg PUBLIC "-//W3C//DTD SVG 1.1//EN"
 "http://www.w3.org/Graphics/SVG/1.1/DTD/svg11.dtd">
<!-- Generated by graphviz version 2.38.0 (20140413.2041)
 -->
<!-- Title: parameter_list_s Pages: 1 -->
<svg width="196pt" height="260pt"
 viewBox="0.00 0.00 196.22 260.00" xmlns="http://www.w3.org/2000/svg" xmlns:xlink="http://www.w3.org/1999/xlink">
<g id="graph0" class="graph" transform="scale(1 1) rotate(0) translate(4 256)">
<title>parameter_list_s</title>
<polygon fill="white" stroke="none" points="-4,4 -4,-256 192.221,-256 192.221,4 -4,4"/>
<!-- start -->
<g id="node1" class="node"><title>start</title>
<polygon fill="none" stroke="blue" points="156,-252 102,-252 102,-216 156,-216 156,-252"/>
<text text-anchor="middle" x="129" y="-229.8" font-family="Times,serif" font-size="14.00">Start</text>
</g>
<!-- node88 -->
<g id="node5" class="node"><title>node88</title>
<g id="a_node5"><a xlink:href="parameter_s.svg" xlink:title="&lt;u&gt;parameter_s&lt;/u&gt;">
<ellipse fill="none" stroke="black" cx="129" cy="-162" rx="58.4435" ry="18"/>
<text text-anchor="start" x="94.7973" y="-158.8" font-family="Times,serif" text-decoration="underline" font-size="14.00" fill="blue">parameter_s</text>
</a>
</g>
</g>
<!-- start&#45;&gt;node88 -->
<g id="edge6" class="edge"><title>start&#45;&gt;node88</title>
<path fill="none" stroke="black" d="M129,-215.697C129,-207.983 129,-198.712 129,-190.112"/>
<polygon fill="black" stroke="black" points="132.5,-190.104 129,-180.104 125.5,-190.104 132.5,-190.104"/>
</g>
<!-- end -->
<g id="node2" class="node"><title>end</title>
<polygon fill="none" stroke="blue" points="54,-36 0,-36 0,-0 54,-0 54,-36"/>
<text text-anchor="middle" x="27" y="-13.8" font-family="Times,serif" font-size="14.00">End</text>
</g>
<!-- node86 -->
<g id="node3" class="node"><title>node86</title>
<ellipse fill="none" stroke="black" cx="94" cy="-90" rx="42.879" ry="18"/>
<text text-anchor="middle" x="94" y="-85.8" font-family="Times,serif" font-size="14.00">Dummy</text>
</g>
<!-- node86&#45;&gt;end -->
<g id="edge3" class="edge"><title>node86&#45;&gt;end</title>
<path fill="none" stroke="black" d="M78.7967,-73.1159C70.5102,-64.4584 60.0692,-53.55 50.7362,-43.799"/>
<polygon fill="black" stroke="black" points="52.9941,-41.0962 43.5511,-36.2921 47.9372,-45.9365 52.9941,-41.0962"/>
</g>
<!-- node87 -->
<g id="node4" class="node"><title>node87</title>
<g id="a_node4"><a xlink:href="parameter_s.svg" xlink:title="&lt;u&gt;parameter_s&lt;/u&gt;">
<ellipse fill="none" stroke="black" cx="130" cy="-18" rx="58.4435" ry="18"/>
<text text-anchor="start" x="95.7973" y="-14.8" font-family="Times,serif" text-decoration="underline" font-size="14.00" fill="blue">parameter_s</text>
</a>
</g>
</g>
<!-- node86&#45;&gt;node87 -->
<g id="edge2" class="edge"><title>node86&#45;&gt;node87</title>
<path fill="none" stroke="black" d="M96.9832,-71.6966C100.379,-63.4374 105.345,-53.394 110.475,-44.2994"/>
<polygon fill="black" stroke="black" points="113.529,-46.0111 115.608,-35.6223 107.504,-42.4471 113.529,-46.0111"/>
</g>
<!-- node87&#45;&gt;node86 -->
<g id="edge1" class="edge"><title>node87&#45;&gt;node86</title>
<path fill="none" stroke="black" d="M127.09,-36.1239C123.659,-44.4999 118.592,-54.7429 113.37,-63.9755"/>
<polygon fill="black" stroke="black" points="110.247,-62.3794 108.15,-72.7646 116.266,-65.9537 110.247,-62.3794"/>
</g>
<!-- node88&#45;&gt;node86 -->
<g id="edge5" class="edge"><title>node88&#45;&gt;node86</title>
<path fill="none" stroke="black" d="M120.527,-144.055C116.443,-135.887 111.456,-125.912 106.912,-116.824"/>
<polygon fill="black" stroke="black" points="109.997,-115.168 102.395,-107.789 103.736,-118.299 109.997,-115.168"/>
</g>
<!-- node88&#45;&gt;node87 -->
<g id="edge4" class="edge"><title>node88&#45;&gt;node87</title>
<path fill="none" stroke="black" d="M136.066,-143.665C139.838,-133.47 144.088,-120.22 146,-108 148.473,-92.1923 148.337,-87.8284 146,-72 144.702,-63.2121 142.256,-53.8616 139.66,-45.5001"/>
<polygon fill="black" stroke="black" points="142.947,-44.2923 136.486,-35.8957 136.301,-46.4889 142.947,-44.2923"/>
</g>
</g>
</svg>
