<?xml version="1.0" encoding="UTF-8" standalone="no"?>
<!DOCTYPE svg PUBLIC "-//W3C//DTD SVG 1.1//EN"
 "http://www.w3.org/Graphics/SVG/1.1/DTD/svg11.dtd">
<!-- Generated by graphviz version 2.38.0 (20140413.2041)
 -->
<!-- Title: parameter_list_t Pages: 1 -->
<svg width="194pt" height="260pt"
 viewBox="0.00 0.00 194.15 260.00" xmlns="http://www.w3.org/2000/svg" xmlns:xlink="http://www.w3.org/1999/xlink">
<g id="graph0" class="graph" transform="scale(1 1) rotate(0) translate(4 256)">
<title>parameter_list_t</title>
<polygon fill="white" stroke="none" points="-4,4 -4,-256 190.149,-256 190.149,4 -4,4"/>
<!-- start -->
<g id="node1" class="node"><title>start</title>
<polygon fill="none" stroke="blue" points="155,-252 101,-252 101,-216 155,-216 155,-252"/>
<text text-anchor="middle" x="128" y="-229.8" font-family="Times,serif" font-size="14.00">Start</text>
</g>
<!-- node97 -->
<g id="node5" class="node"><title>node97</title>
<g id="a_node5"><a xlink:href="parameter_t.svg" xlink:title="&lt;u&gt;parameter_t&lt;/u&gt;">
<ellipse fill="none" stroke="black" cx="128" cy="-162" rx="57.2992" ry="18"/>
<text text-anchor="start" x="94.5743" y="-158.8" font-family="Times,serif" text-decoration="underline" font-size="14.00" fill="blue">parameter_t</text>
</a>
</g>
</g>
<!-- start&#45;&gt;node97 -->
<g id="edge6" class="edge"><title>start&#45;&gt;node97</title>
<path fill="none" stroke="black" d="M128,-215.697C128,-207.983 128,-198.712 128,-190.112"/>
<polygon fill="black" stroke="black" points="131.5,-190.104 128,-180.104 124.5,-190.104 131.5,-190.104"/>
</g>
<!-- end -->
<g id="node2" class="node"><title>end</title>
<polygon fill="none" stroke="blue" points="54,-36 0,-36 0,-0 54,-0 54,-36"/>
<text text-anchor="middle" x="27" y="-13.8" font-family="Times,serif" font-size="14.00">End</text>
</g>
<!-- node95 -->
<g id="node3" class="node"><title>node95</title>
<ellipse fill="none" stroke="black" cx="93" cy="-90" rx="42.879" ry="18"/>
<text text-anchor="middle" x="93" y="-85.8" font-family="Times,serif" font-size="14.00">Dummy</text>
</g>
<!-- node95&#45;&gt;end -->
<g id="edge3" class="edge"><title>node95&#45;&gt;end</title>
<path fill="none" stroke="black" d="M78.0236,-73.1159C69.8608,-64.4584 59.5757,-53.55 50.3819,-43.799"/>
<polygon fill="black" stroke="black" points="52.7108,-41.167 43.304,-36.2921 47.6176,-45.9691 52.7108,-41.167"/>
</g>
<!-- node96 -->
<g id="node4" class="node"><title>node96</title>
<g id="a_node4"><a xlink:href="parameter_t.svg" xlink:title="&lt;u&gt;parameter_t&lt;/u&gt;">
<ellipse fill="none" stroke="black" cx="129" cy="-18" rx="57.2992" ry="18"/>
<text text-anchor="start" x="95.5743" y="-14.8" font-family="Times,serif" text-decoration="underline" font-size="14.00" fill="blue">parameter_t</text>
</a>
</g>
</g>
<!-- node95&#45;&gt;node96 -->
<g id="edge2" class="edge"><title>node95&#45;&gt;node96</title>
<path fill="none" stroke="black" d="M95.9832,-71.6966C99.3788,-63.4374 104.345,-53.394 109.475,-44.2994"/>
<polygon fill="black" stroke="black" points="112.529,-46.0111 114.608,-35.6223 106.504,-42.4471 112.529,-46.0111"/>
</g>
<!-- node96&#45;&gt;node95 -->
<g id="edge1" class="edge"><title>node96&#45;&gt;node95</title>
<path fill="none" stroke="black" d="M126.09,-36.1239C122.659,-44.4999 117.592,-54.7429 112.37,-63.9755"/>
<polygon fill="black" stroke="black" points="109.247,-62.3794 107.15,-72.7646 115.266,-65.9537 109.247,-62.3794"/>
</g>
<!-- node97&#45;&gt;node95 -->
<g id="edge5" class="edge"><title>node97&#45;&gt;node95</title>
<path fill="none" stroke="black" d="M119.527,-144.055C115.443,-135.887 110.456,-125.912 105.912,-116.824"/>
<polygon fill="black" stroke="black" points="108.997,-115.168 101.395,-107.789 102.736,-118.299 108.997,-115.168"/>
</g>
<!-- node97&#45;&gt;node96 -->
<g id="edge4" class="edge"><title>node97&#45;&gt;node96</title>
<path fill="none" stroke="black" d="M135.066,-143.665C138.838,-133.47 143.088,-120.22 145,-108 147.473,-92.1923 147.337,-87.8284 145,-72 143.702,-63.2121 141.256,-53.8616 138.66,-45.5001"/>
<polygon fill="black" stroke="black" points="141.947,-44.2923 135.486,-35.8957 135.301,-46.4889 141.947,-44.2923"/>
</g>
</g>
</svg>
