<?xml version="1.0" encoding="UTF-8" standalone="no"?>
<!DOCTYPE svg PUBLIC "-//W3C//DTD SVG 1.1//EN"
 "http://www.w3.org/Graphics/SVG/1.1/DTD/svg11.dtd">
<!-- Generated by graphviz version 2.38.0 (20140413.2041)
 -->
<!-- Title: parameter_s Pages: 1 -->
<svg width="80pt" height="332pt"
 viewBox="0.00 0.00 80.47 332.00" xmlns="http://www.w3.org/2000/svg" xmlns:xlink="http://www.w3.org/1999/xlink">
<g id="graph0" class="graph" transform="scale(1 1) rotate(0) translate(4 328)">
<title>parameter_s</title>
<polygon fill="white" stroke="none" points="-4,4 -4,-328 76.4745,-328 76.4745,4 -4,4"/>
<!-- start -->
<g id="node1" class="node"><title>start</title>
<polygon fill="none" stroke="blue" points="63.2373,-324 9.23727,-324 9.23727,-288 63.2373,-288 63.2373,-324"/>
<text text-anchor="middle" x="36.2373" y="-301.8" font-family="Times,serif" font-size="14.00">Start</text>
</g>
<!-- node82 -->
<g id="node5" class="node"><title>node82</title>
<g id="a_node5"><a xlink:href="field.svg" xlink:title="&lt;u&gt;field&lt;/u&gt;">
<ellipse fill="none" stroke="black" cx="36.2373" cy="-234" rx="28.9696" ry="18"/>
<text text-anchor="start" x="23.4091" y="-230.8" font-family="Times,serif" text-decoration="underline" font-size="14.00" fill="blue">field</text>
</a>
</g>
</g>
<!-- start&#45;&gt;node82 -->
<g id="edge4" class="edge"><title>start&#45;&gt;node82</title>
<path fill="none" stroke="black" d="M36.2373,-287.697C36.2373,-279.983 36.2373,-270.712 36.2373,-262.112"/>
<polygon fill="black" stroke="black" points="39.7374,-262.104 36.2373,-252.104 32.7374,-262.104 39.7374,-262.104"/>
</g>
<!-- end -->
<g id="node2" class="node"><title>end</title>
<polygon fill="none" stroke="blue" points="63.2373,-36 9.23727,-36 9.23727,-0 63.2373,-0 63.2373,-36"/>
<text text-anchor="middle" x="36.2373" y="-13.8" font-family="Times,serif" font-size="14.00">End</text>
</g>
<!-- node80 -->
<g id="node3" class="node"><title>node80</title>
<g id="a_node3"><a xlink:href="source.svg" xlink:title="&lt;u&gt;source&lt;/u&gt;">
<ellipse fill="none" stroke="black" cx="36.2373" cy="-90" rx="36.4761" ry="18"/>
<text text-anchor="start" x="17.9701" y="-86.8" font-family="Times,serif" text-decoration="underline" font-size="14.00" fill="blue">source</text>
</a>
</g>
</g>
<!-- node80&#45;&gt;end -->
<g id="edge1" class="edge"><title>node80&#45;&gt;end</title>
<path fill="none" stroke="black" d="M36.2373,-71.6966C36.2373,-63.9827 36.2373,-54.7125 36.2373,-46.1124"/>
<polygon fill="black" stroke="black" points="39.7374,-46.1043 36.2373,-36.1043 32.7374,-46.1044 39.7374,-46.1043"/>
</g>
<!-- node81 -->
<g id="node4" class="node"><title>node81</title>
<ellipse fill="none" stroke="black" cx="36.2373" cy="-162" rx="27" ry="18"/>
<text text-anchor="middle" x="36.2373" y="-157.8" font-family="Times,serif" font-size="14.00">&quot;=&quot;</text>
</g>
<!-- node81&#45;&gt;node80 -->
<g id="edge2" class="edge"><title>node81&#45;&gt;node80</title>
<path fill="none" stroke="black" d="M36.2373,-143.697C36.2373,-135.983 36.2373,-126.712 36.2373,-118.112"/>
<polygon fill="black" stroke="black" points="39.7374,-118.104 36.2373,-108.104 32.7374,-118.104 39.7374,-118.104"/>
</g>
<!-- node82&#45;&gt;node81 -->
<g id="edge3" class="edge"><title>node82&#45;&gt;node81</title>
<path fill="none" stroke="black" d="M36.2373,-215.697C36.2373,-207.983 36.2373,-198.712 36.2373,-190.112"/>
<polygon fill="black" stroke="black" points="39.7374,-190.104 36.2373,-180.104 32.7374,-190.104 39.7374,-190.104"/>
</g>
</g>
</svg>
