<svg xmlns="http://www.w3.org/2000/svg" xmlns:xlink="http://www.w3.org/1999/xlink" class="railroad-diagram" width="1830" height="178" viewBox="0 0 1830 178">
<defs>
<style type="text/css"><![CDATA[
path {
stroke-width: 3;
stroke: black;
fill: rgba(0,0,0,0);
}
text {
font: bold 14px monospace;
text-anchor: middle;
}
text.diagram-text {
font-size: 12px;
}
a {
fill: blue;
}
text.diagram-arrow {
font-size: 16px;
}
text.label {
text-anchor: start;
}
text.comment {
font: italic 12px monospace;
}
rect {
stroke-width: 3;
stroke: black;
fill: #BCBCBC;
}
path.diagram-text {
stroke-width: 3;
stroke: black;
fill: #BCBCBC;
cursor: help;
}
]]></style>
</defs>
<g transform="translate(.5 .5)">
<path d="M 20 30 v 20 m 10 -20 v 20 m -10 -10 h 20.5"></path>
<path d="M40 40h10"></path>
<g>
<path d="M50 40h0"></path>
<path d="M1780 40h0"></path>
<g class="terminal">
<path d="M50 40h0"></path>
<path d="M142 40h0"></path>
<rect x="50" y="29" width="92" height="22" rx="10" ry="10"></rect>
<text x="96" y="44">"PERFORM"</text>
</g>
<path d="M142 40h10"></path>
<g>
<path d="M152 40h0"></path>
<path d="M788 40h0"></path>
<path d="M152 40h20"></path>
<g>
<path d="M172 40h0"></path>
<path d="M518 40h250"></path>
<g class="non-terminal">
<path d="M172 40h0"></path>
<path d="M256 40h0"></path>
<rect x="172" y="29" width="84" height="22"></rect>
<a xlink:href="reuse_formname.svg"><text x="214" y="44">FormName</text>
</a>
</g>
<path d="M256 40h10"></path>
<path d="M266 40h10"></path>
<g class="terminal">
<path d="M276 40h0"></path>
<path d="M328 40h0"></path>
<rect x="276" y="29" width="52" height="22" rx="10" ry="10"></rect>
<text x="302" y="44">!"("</text>
</g>
<path d="M328 40h10"></path>
<path d="M338 40h10"></path>
<g class="non-terminal">
<path d="M348 40h0"></path>
<path d="M408 40h0"></path>
<rect x="348" y="29" width="60" height="22"></rect>
<a xlink:href="reuse_field.svg"><text x="378" y="44">Field</text>
</a>
</g>
<path d="M408 40h10"></path>
<g>
<path d="M418 40h0"></path>
<path d="M518 40h0"></path>
<path d="M418 40h20"></path>
<g class="terminal">
<path d="M438 40h0"></path>
<path d="M498 40h0"></path>
<rect x="438" y="29" width="60" height="22" rx="10" ry="10"></rect>
<text x="468" y="44">!") "</text>
</g>
<path d="M498 40h20"></path>
<path d="M418 40a10 10 0 0 1 10 10v10a10 10 0 0 0 10 10"></path>
<g class="terminal">
<path d="M438 70h0"></path>
<path d="M490 70h8"></path>
<rect x="438" y="59" width="52" height="22" rx="10" ry="10"></rect>
<text x="464" y="74">!")"</text>
</g>
<path d="M498 70a10 10 0 0 0 10 -10v-10a10 10 0 0 1 10 -10"></path>
</g>
</g>
<path d="M768 40h20"></path>
<path d="M152 40a10 10 0 0 1 10 10v57a10 10 0 0 0 10 10"></path>
<g>
<path d="M172 117h0"></path>
<path d="M768 117h0"></path>
<g>
<path d="M172 117h0"></path>
<path d="M296 117h0"></path>
<path d="M172 117h20"></path>
<g class="non-terminal">
<path d="M192 117h0"></path>
<path d="M276 117h0"></path>
<rect x="192" y="106" width="84" height="22"></rect>
<a xlink:href="reuse_formname.svg"><text x="234" y="121">FormName</text>
</a>
</g>
<path d="M276 117h20"></path>
<path d="M172 117a10 10 0 0 1 10 10v10a10 10 0 0 0 10 10"></path>
<g class="non-terminal">
<path d="M192 147h0"></path>
<path d="M268 147h8"></path>
<rect x="192" y="136" width="76" height="22"></rect>
<a xlink:href="reuse_dynamic.svg"><text x="230" y="151">Dynamic</text>
</a>
</g>
<path d="M276 147a10 10 0 0 0 10 -10v-10a10 10 0 0 1 10 -10"></path>
</g>
<g>
<path d="M296 117h0"></path>
<path d="M768 117h0"></path>
<path d="M296 117a10 10 0 0 0 10 -10v-8a10 10 0 0 1 10 -10"></path>
<g>
<path d="M316 89h432"></path>
</g>
<path d="M748 89a10 10 0 0 1 10 10v8a10 10 0 0 0 10 10"></path>
<path d="M296 117h20"></path>
<g>
<path d="M316 117h0"></path>
<path d="M748 117h0"></path>
<g>
<path d="M316 117h0"></path>
<path d="M598 117h0"></path>
<g class="terminal">
<path d="M316 117h0"></path>
<path d="M432 117h0"></path>
<rect x="316" y="106" width="116" height="22" rx="10" ry="10"></rect>
<text x="374" y="121">"IN PROGRAM"</text>
</g>
<path d="M432 117h10"></path>
<g>
<path d="M442 117h0"></path>
<path d="M598 117h0"></path>
<path d="M442 117a10 10 0 0 0 10 -10v0a10 10 0 0 1 10 -10"></path>
<g>
<path d="M462 97h116"></path>
</g>
<path d="M578 97a10 10 0 0 1 10 10v0a10 10 0 0 0 10 10"></path>
<path d="M442 117h20"></path>
<g>
<path d="M462 117h0"></path>
<path d="M578 117h0"></path>
<path d="M462 117h20"></path>
<g class="non-terminal">
<path d="M482 117h0"></path>
<path d="M558 117h0"></path>
<rect x="482" y="106" width="76" height="22"></rect>
<a xlink:href="reuse_dynamic.svg"><text x="520" y="121">Dynamic</text>
</a>
</g>
<path d="M558 117h20"></path>
<path d="M462 117a10 10 0 0 1 10 10v10a10 10 0 0 0 10 10"></path>
<g class="non-terminal">
<path d="M482 147h0"></path>
<path d="M542 147h16"></path>
<rect x="482" y="136" width="60" height="22"></rect>
<a xlink:href="reuse_field.svg"><text x="512" y="151">Field</text>
</a>
</g>
<path d="M558 147a10 10 0 0 0 10 -10v-10a10 10 0 0 1 10 -10"></path>
</g>
<path d="M578 117h20"></path>
</g>
</g>
<path d="M598 117h10"></path>
<g>
<path d="M608 117h0"></path>
<path d="M748 117h0"></path>
<path d="M608 117a10 10 0 0 0 10 -10v0a10 10 0 0 1 10 -10"></path>
<g>
<path d="M628 97h100"></path>
</g>
<path d="M728 97a10 10 0 0 1 10 10v0a10 10 0 0 0 10 10"></path>
<path d="M608 117h20"></path>
<g class="terminal">
<path d="M628 117h0"></path>
<path d="M728 117h0"></path>
<rect x="628" y="106" width="100" height="22" rx="10" ry="10"></rect>
<text x="678" y="121">"IF FOUND"</text>
</g>
<path d="M728 117h20"></path>
</g>
</g>
<path d="M748 117h20"></path>
</g>
</g>
<path d="M768 117a10 10 0 0 0 10 -10v-57a10 10 0 0 1 10 -10"></path>
</g>
<g>
<path d="M788 40h0"></path>
<path d="M1020 40h0"></path>
<path d="M788 40a10 10 0 0 0 10 -10v0a10 10 0 0 1 10 -10"></path>
<g>
<path d="M808 20h192"></path>
</g>
<path d="M1000 20a10 10 0 0 1 10 10v0a10 10 0 0 0 10 10"></path>
<path d="M788 40h20"></path>
<g>
<path d="M808 40h0"></path>
<path d="M1000 40h0"></path>
<g class="terminal">
<path d="M808 40h0"></path>
<path d="M892 40h0"></path>
<rect x="808" y="29" width="84" height="22" rx="10" ry="10"></rect>
<text x="850" y="44">"TABLES"</text>
</g>
<path d="M892 40h10"></path>
<path d="M902 40h10"></path>
<g>
<path d="M912 40h0"></path>
<path d="M1000 40h0"></path>
<path d="M912 40h10"></path>
<g class="non-terminal">
<path d="M922 40h0"></path>
<path d="M990 40h0"></path>
<rect x="922" y="29" width="68" height="22"></rect>
<a xlink:href="reuse_source.svg"><text x="956" y="44">Source</text>
</a>
</g>
<path d="M990 40h10"></path>
<path d="M922 40a10 10 0 0 0 -10 10v0a10 10 0 0 0 10 10"></path>
<g>
<path d="M922 60h68"></path>
</g>
<path d="M990 60a10 10 0 0 0 10 -10v0a10 10 0 0 0 -10 -10"></path>
</g>
</g>
<path d="M1000 40h20"></path>
</g>
<g>
<path d="M1020 40h0"></path>
<path d="M1244 40h0"></path>
<path d="M1020 40a10 10 0 0 0 10 -10v0a10 10 0 0 1 10 -10"></path>
<g>
<path d="M1040 20h184"></path>
</g>
<path d="M1224 20a10 10 0 0 1 10 10v0a10 10 0 0 0 10 10"></path>
<path d="M1020 40h20"></path>
<g>
<path d="M1040 40h0"></path>
<path d="M1224 40h0"></path>
<g class="terminal">
<path d="M1040 40h0"></path>
<path d="M1116 40h0"></path>
<rect x="1040" y="29" width="76" height="22" rx="10" ry="10"></rect>
<text x="1078" y="44">"USING"</text>
</g>
<path d="M1116 40h10"></path>
<path d="M1126 40h10"></path>
<g>
<path d="M1136 40h0"></path>
<path d="M1224 40h0"></path>
<path d="M1136 40h10"></path>
<g class="non-terminal">
<path d="M1146 40h0"></path>
<path d="M1214 40h0"></path>
<rect x="1146" y="29" width="68" height="22"></rect>
<a xlink:href="reuse_source.svg"><text x="1180" y="44">Source</text>
</a>
</g>
<path d="M1214 40h10"></path>
<path d="M1146 40a10 10 0 0 0 -10 10v0a10 10 0 0 0 10 10"></path>
<g>
<path d="M1146 60h68"></path>
</g>
<path d="M1214 60a10 10 0 0 0 10 -10v0a10 10 0 0 0 -10 -10"></path>
</g>
</g>
<path d="M1224 40h20"></path>
</g>
<g>
<path d="M1244 40h0"></path>
<path d="M1492 40h0"></path>
<path d="M1244 40a10 10 0 0 0 10 -10v0a10 10 0 0 1 10 -10"></path>
<g>
<path d="M1264 20h208"></path>
</g>
<path d="M1472 20a10 10 0 0 1 10 10v0a10 10 0 0 0 10 10"></path>
<path d="M1244 40h20"></path>
<g>
<path d="M1264 40h0"></path>
<path d="M1472 40h0"></path>
<g class="terminal">
<path d="M1264 40h0"></path>
<path d="M1364 40h0"></path>
<rect x="1264" y="29" width="100" height="22" rx="10" ry="10"></rect>
<text x="1314" y="44">"CHANGING"</text>
</g>
<path d="M1364 40h10"></path>
<path d="M1374 40h10"></path>
<g>
<path d="M1384 40h0"></path>
<path d="M1472 40h0"></path>
<path d="M1384 40h10"></path>
<g class="non-terminal">
<path d="M1394 40h0"></path>
<path d="M1462 40h0"></path>
<rect x="1394" y="29" width="68" height="22"></rect>
<a xlink:href="reuse_source.svg"><text x="1428" y="44">Source</text>
</a>
</g>
<path d="M1462 40h10"></path>
<path d="M1394 40a10 10 0 0 0 -10 10v0a10 10 0 0 0 10 10"></path>
<g>
<path d="M1394 60h68"></path>
</g>
<path d="M1462 60a10 10 0 0 0 10 -10v0a10 10 0 0 0 -10 -10"></path>
</g>
</g>
<path d="M1472 40h20"></path>
</g>
<g>
<path d="M1492 40h0"></path>
<path d="M1632 40h0"></path>
<path d="M1492 40a10 10 0 0 0 10 -10v0a10 10 0 0 1 10 -10"></path>
<g>
<path d="M1512 20h100"></path>
</g>
<path d="M1612 20a10 10 0 0 1 10 10v0a10 10 0 0 0 10 10"></path>
<path d="M1492 40h20"></path>
<g class="terminal">
<path d="M1512 40h0"></path>
<path d="M1612 40h0"></path>
<rect x="1512" y="29" width="100" height="22" rx="10" ry="10"></rect>
<text x="1562" y="44">"IF FOUND"</text>
</g>
<path d="M1612 40h20"></path>
</g>
<g>
<path d="M1632 40h0"></path>
<path d="M1780 40h0"></path>
<path d="M1632 40a10 10 0 0 0 10 -10v0a10 10 0 0 1 10 -10"></path>
<g>
<path d="M1652 20h108"></path>
</g>
<path d="M1760 20a10 10 0 0 1 10 10v0a10 10 0 0 0 10 10"></path>
<path d="M1632 40h20"></path>
<g class="terminal">
<path d="M1652 40h0"></path>
<path d="M1760 40h0"></path>
<rect x="1652" y="29" width="108" height="22" rx="10" ry="10"></rect>
<text x="1706" y="44">"ON COMMIT"</text>
</g>
<path d="M1760 40h20"></path>
</g>
</g>
<path d="M1780 40h10"></path>
<path d="M 1790 40 h 20 m -10 -10 v 20 m 10 -20 v 20"></path>
</g>
</svg>
