<svg xmlns="http://www.w3.org/2000/svg" xmlns:xlink="http://www.w3.org/1999/xlink" class="railroad-diagram" width="2024" height="216" viewBox="0 0 2024 216">
<defs>
<style type="text/css"><![CDATA[
path {
stroke-width: 3;
stroke: black;
fill: rgba(0,0,0,0);
}
text {
font: bold 14px monospace;
text-anchor: middle;
}
text.diagram-text {
font-size: 12px;
}
a {
fill: blue;
}
text.diagram-arrow {
font-size: 16px;
}
text.label {
text-anchor: start;
}
text.comment {
font: italic 12px monospace;
}
rect {
stroke-width: 3;
stroke: black;
fill: #BCBCBC;
}
path.diagram-text {
stroke-width: 3;
stroke: black;
fill: #BCBCBC;
cursor: help;
}
]]></style>
</defs>
<g transform="translate(.5 .5)">
<path d="M 20 38 v 20 m 10 -20 v 20 m -10 -10 h 20.5"></path>
<path d="M40 48h10"></path>
<g>
<path d="M50 48h0"></path>
<path d="M1974 48h0"></path>
<g class="terminal">
<path d="M50 48h0"></path>
<path d="M142 48h0"></path>
<rect x="50" y="37" width="92" height="22" rx="10" ry="10"></rect>
<text x="96" y="52">"PERFORM"</text>
</g>
<path d="M142 48h10"></path>
<path d="M152 48h10"></path>
<g>
<path d="M162 48h0"></path>
<path d="M718 48h0"></path>
<path d="M192 48h10"></path>
<g>
<path d="M202 48h0"></path>
<path d="M688 48h0"></path>
<path d="M202 48h20"></path>
<g>
<path d="M222 48h0"></path>
<path d="M568 48h100"></path>
<g class="non-terminal">
<path d="M222 48h0"></path>
<path d="M306 48h0"></path>
<rect x="222" y="37" width="84" height="22"></rect>
<a xlink:href="reuse_formname.svg"><text x="264" y="52">FormName</text>
</a>
</g>
<path d="M306 48h10"></path>
<path d="M316 48h10"></path>
<g class="terminal">
<path d="M326 48h0"></path>
<path d="M378 48h0"></path>
<rect x="326" y="37" width="52" height="22" rx="10" ry="10"></rect>
<text x="352" y="52">!"("</text>
</g>
<path d="M378 48h10"></path>
<path d="M388 48h10"></path>
<g class="non-terminal">
<path d="M398 48h0"></path>
<path d="M458 48h0"></path>
<rect x="398" y="37" width="60" height="22"></rect>
<a xlink:href="reuse_field.svg"><text x="428" y="52">Field</text>
</a>
</g>
<path d="M458 48h10"></path>
<g>
<path d="M468 48h0"></path>
<path d="M568 48h0"></path>
<path d="M468 48h20"></path>
<g class="terminal">
<path d="M488 48h0"></path>
<path d="M548 48h0"></path>
<rect x="488" y="37" width="60" height="22" rx="10" ry="10"></rect>
<text x="518" y="52">!") "</text>
</g>
<path d="M548 48h20"></path>
<path d="M468 48a10 10 0 0 1 10 10v10a10 10 0 0 0 10 10"></path>
<g class="terminal">
<path d="M488 78h0"></path>
<path d="M540 78h8"></path>
<rect x="488" y="67" width="52" height="22" rx="10" ry="10"></rect>
<text x="514" y="82">!")"</text>
</g>
<path d="M548 78a10 10 0 0 0 10 -10v-10a10 10 0 0 1 10 -10"></path>
</g>
</g>
<path d="M668 48h20"></path>
<path d="M202 48a10 10 0 0 1 10 10v57a10 10 0 0 0 10 10"></path>
<g>
<path d="M222 125h0"></path>
<path d="M668 125h0"></path>
<g>
<path d="M222 125h0"></path>
<path d="M346 125h0"></path>
<path d="M222 125h20"></path>
<g class="non-terminal">
<path d="M242 125h0"></path>
<path d="M326 125h0"></path>
<rect x="242" y="114" width="84" height="22"></rect>
<a xlink:href="reuse_formname.svg"><text x="284" y="129">FormName</text>
</a>
</g>
<path d="M326 125h20"></path>
<path d="M222 125a10 10 0 0 1 10 10v10a10 10 0 0 0 10 10"></path>
<g class="non-terminal">
<path d="M242 155h0"></path>
<path d="M318 155h8"></path>
<rect x="242" y="144" width="76" height="22"></rect>
<a xlink:href="reuse_dynamic.svg"><text x="280" y="159">Dynamic</text>
</a>
</g>
<path d="M326 155a10 10 0 0 0 10 -10v-10a10 10 0 0 1 10 -10"></path>
</g>
<g>
<path d="M346 125h0"></path>
<path d="M668 125h0"></path>
<path d="M346 125a10 10 0 0 0 10 -10v-8a10 10 0 0 1 10 -10"></path>
<g>
<path d="M366 97h282"></path>
</g>
<path d="M648 97a10 10 0 0 1 10 10v8a10 10 0 0 0 10 10"></path>
<path d="M346 125h20"></path>
<g>
<path d="M366 125h0"></path>
<path d="M648 125h0"></path>
<g class="terminal">
<path d="M366 125h0"></path>
<path d="M482 125h0"></path>
<rect x="366" y="114" width="116" height="22" rx="10" ry="10"></rect>
<text x="424" y="129">"IN PROGRAM"</text>
</g>
<path d="M482 125h10"></path>
<g>
<path d="M492 125h0"></path>
<path d="M648 125h0"></path>
<path d="M492 125a10 10 0 0 0 10 -10v0a10 10 0 0 1 10 -10"></path>
<g>
<path d="M512 105h116"></path>
</g>
<path d="M628 105a10 10 0 0 1 10 10v0a10 10 0 0 0 10 10"></path>
<path d="M492 125h20"></path>
<g>
<path d="M512 125h0"></path>
<path d="M628 125h0"></path>
<path d="M512 125h20"></path>
<g class="non-terminal">
<path d="M532 125h0"></path>
<path d="M608 125h0"></path>
<rect x="532" y="114" width="76" height="22"></rect>
<a xlink:href="reuse_dynamic.svg"><text x="570" y="129">Dynamic</text>
</a>
</g>
<path d="M608 125h20"></path>
<path d="M512 125a10 10 0 0 1 10 10v10a10 10 0 0 0 10 10"></path>
<g class="non-terminal">
<path d="M532 155h0"></path>
<path d="M592 155h16"></path>
<rect x="532" y="144" width="60" height="22"></rect>
<a xlink:href="reuse_field.svg"><text x="562" y="159">Field</text>
</a>
</g>
<path d="M608 155a10 10 0 0 0 10 -10v-10a10 10 0 0 1 10 -10"></path>
</g>
<path d="M628 125h20"></path>
</g>
</g>
<path d="M648 125h20"></path>
</g>
</g>
<path d="M668 125a10 10 0 0 0 10 -10v-57a10 10 0 0 1 10 -10"></path>
</g>
<path d="M688 48h10"></path>
<path d="M192 48v127a10 10 0 0 0 10 10"></path>
<g class="terminal">
<path d="M202 185h0"></path>
<path d="M302 185h386"></path>
<rect x="202" y="174" width="100" height="22" rx="10" ry="10"></rect>
<text x="252" y="189">"IF FOUND"</text>
</g>
<path d="M688 185a10 10 0 0 0 10 -10v-127"></path>
<g class="diagram-text">
<title>take one or more branches, once each, in any order</title>
<path d="M 192 38 h -26 a 4 4 0 0 0 -4 4 v 12 a 4 4 0 0 0 4 4 h 26 z" class="diagram-text"></path>
<text x="177" y="52" class="diagram-text">1+</text>
<path d="M 698 38 h 16 a 4 4 0 0 1 4 4 v 12 a 4 4 0 0 1 -4 4 h -16 z" class="diagram-text"></path>
<path d="M 705 46 a 4 4 0 1 0 6 -1 m 2.75 -1 h -4 v 4 m 0 -3 h 2" style="stroke-width: 1.75"></path>
</g>
</g>
<path d="M718 48h10"></path>
<g>
<path d="M728 48h0"></path>
<path d="M960 48h0"></path>
<path d="M728 48a10 10 0 0 0 10 -10v0a10 10 0 0 1 10 -10"></path>
<g>
<path d="M748 28h192"></path>
</g>
<path d="M940 28a10 10 0 0 1 10 10v0a10 10 0 0 0 10 10"></path>
<path d="M728 48h20"></path>
<g>
<path d="M748 48h0"></path>
<path d="M940 48h0"></path>
<g class="terminal">
<path d="M748 48h0"></path>
<path d="M832 48h0"></path>
<rect x="748" y="37" width="84" height="22" rx="10" ry="10"></rect>
<text x="790" y="52">"TABLES"</text>
</g>
<path d="M832 48h10"></path>
<path d="M842 48h10"></path>
<g>
<path d="M852 48h0"></path>
<path d="M940 48h0"></path>
<path d="M852 48h10"></path>
<g class="non-terminal">
<path d="M862 48h0"></path>
<path d="M930 48h0"></path>
<rect x="862" y="37" width="68" height="22"></rect>
<a xlink:href="reuse_source.svg"><text x="896" y="52">Source</text>
</a>
</g>
<path d="M930 48h10"></path>
<path d="M862 48a10 10 0 0 0 -10 10v0a10 10 0 0 0 10 10"></path>
<g>
<path d="M862 68h68"></path>
</g>
<path d="M930 68a10 10 0 0 0 10 -10v0a10 10 0 0 0 -10 -10"></path>
</g>
</g>
<path d="M940 48h20"></path>
</g>
<g>
<path d="M960 48h0"></path>
<path d="M1184 48h0"></path>
<path d="M960 48a10 10 0 0 0 10 -10v0a10 10 0 0 1 10 -10"></path>
<g>
<path d="M980 28h184"></path>
</g>
<path d="M1164 28a10 10 0 0 1 10 10v0a10 10 0 0 0 10 10"></path>
<path d="M960 48h20"></path>
<g>
<path d="M980 48h0"></path>
<path d="M1164 48h0"></path>
<g class="terminal">
<path d="M980 48h0"></path>
<path d="M1056 48h0"></path>
<rect x="980" y="37" width="76" height="22" rx="10" ry="10"></rect>
<text x="1018" y="52">"USING"</text>
</g>
<path d="M1056 48h10"></path>
<path d="M1066 48h10"></path>
<g>
<path d="M1076 48h0"></path>
<path d="M1164 48h0"></path>
<path d="M1076 48h10"></path>
<g class="non-terminal">
<path d="M1086 48h0"></path>
<path d="M1154 48h0"></path>
<rect x="1086" y="37" width="68" height="22"></rect>
<a xlink:href="reuse_source.svg"><text x="1120" y="52">Source</text>
</a>
</g>
<path d="M1154 48h10"></path>
<path d="M1086 48a10 10 0 0 0 -10 10v0a10 10 0 0 0 10 10"></path>
<g>
<path d="M1086 68h68"></path>
</g>
<path d="M1154 68a10 10 0 0 0 10 -10v0a10 10 0 0 0 -10 -10"></path>
</g>
</g>
<path d="M1164 48h20"></path>
</g>
<g>
<path d="M1184 48h0"></path>
<path d="M1432 48h0"></path>
<path d="M1184 48a10 10 0 0 0 10 -10v0a10 10 0 0 1 10 -10"></path>
<g>
<path d="M1204 28h208"></path>
</g>
<path d="M1412 28a10 10 0 0 1 10 10v0a10 10 0 0 0 10 10"></path>
<path d="M1184 48h20"></path>
<g>
<path d="M1204 48h0"></path>
<path d="M1412 48h0"></path>
<g class="terminal">
<path d="M1204 48h0"></path>
<path d="M1304 48h0"></path>
<rect x="1204" y="37" width="100" height="22" rx="10" ry="10"></rect>
<text x="1254" y="52">"CHANGING"</text>
</g>
<path d="M1304 48h10"></path>
<path d="M1314 48h10"></path>
<g>
<path d="M1324 48h0"></path>
<path d="M1412 48h0"></path>
<path d="M1324 48h10"></path>
<g class="non-terminal">
<path d="M1334 48h0"></path>
<path d="M1402 48h0"></path>
<rect x="1334" y="37" width="68" height="22"></rect>
<a xlink:href="reuse_source.svg"><text x="1368" y="52">Source</text>
</a>
</g>
<path d="M1402 48h10"></path>
<path d="M1334 48a10 10 0 0 0 -10 10v0a10 10 0 0 0 10 10"></path>
<g>
<path d="M1334 68h68"></path>
</g>
<path d="M1402 68a10 10 0 0 0 10 -10v0a10 10 0 0 0 -10 -10"></path>
</g>
</g>
<path d="M1412 48h20"></path>
</g>
<g>
<path d="M1432 48h0"></path>
<path d="M1572 48h0"></path>
<path d="M1432 48a10 10 0 0 0 10 -10v0a10 10 0 0 1 10 -10"></path>
<g>
<path d="M1452 28h100"></path>
</g>
<path d="M1552 28a10 10 0 0 1 10 10v0a10 10 0 0 0 10 10"></path>
<path d="M1432 48h20"></path>
<g class="terminal">
<path d="M1452 48h0"></path>
<path d="M1552 48h0"></path>
<rect x="1452" y="37" width="100" height="22" rx="10" ry="10"></rect>
<text x="1502" y="52">"IF FOUND"</text>
</g>
<path d="M1552 48h20"></path>
</g>
<g>
<path d="M1572 48h0"></path>
<path d="M1974 48h0"></path>
<path d="M1572 48a10 10 0 0 0 10 -10v-8a10 10 0 0 1 10 -10"></path>
<g>
<path d="M1592 20h362"></path>
</g>
<path d="M1954 20a10 10 0 0 1 10 10v8a10 10 0 0 0 10 10"></path>
<path d="M1572 48h20"></path>
<g>
<path d="M1592 48h0"></path>
<path d="M1954 48h0"></path>
<path d="M1592 48h20"></path>
<g>
<path d="M1612 48h0"></path>
<path d="M1934 48h0"></path>
<g class="terminal">
<path d="M1612 48h0"></path>
<path d="M1720 48h0"></path>
<rect x="1612" y="37" width="108" height="22" rx="10" ry="10"></rect>
<text x="1666" y="52">"ON COMMIT"</text>
</g>
<path d="M1720 48h10"></path>
<g>
<path d="M1730 48h0"></path>
<path d="M1934 48h0"></path>
<path d="M1730 48a10 10 0 0 0 10 -10v0a10 10 0 0 1 10 -10"></path>
<g>
<path d="M1750 28h164"></path>
</g>
<path d="M1914 28a10 10 0 0 1 10 10v0a10 10 0 0 0 10 10"></path>
<path d="M1730 48h20"></path>
<g>
<path d="M1750 48h0"></path>
<path d="M1914 48h0"></path>
<g class="terminal">
<path d="M1750 48h0"></path>
<path d="M1826 48h0"></path>
<rect x="1750" y="37" width="76" height="22" rx="10" ry="10"></rect>
<text x="1788" y="52">"LEVEL"</text>
</g>
<path d="M1826 48h10"></path>
<path d="M1836 48h10"></path>
<g class="non-terminal">
<path d="M1846 48h0"></path>
<path d="M1914 48h0"></path>
<rect x="1846" y="37" width="68" height="22"></rect>
<a xlink:href="reuse_source.svg"><text x="1880" y="52">Source</text>
</a>
</g>
</g>
<path d="M1914 48h20"></path>
</g>
</g>
<path d="M1934 48h20"></path>
<path d="M1592 48a10 10 0 0 1 10 10v10a10 10 0 0 0 10 10"></path>
<g class="terminal">
<path d="M1612 78h0"></path>
<path d="M1736 78h198"></path>
<rect x="1612" y="67" width="124" height="22" rx="10" ry="10"></rect>
<text x="1674" y="82">"ON ROLLBACK"</text>
</g>
<path d="M1934 78a10 10 0 0 0 10 -10v-10a10 10 0 0 1 10 -10"></path>
</g>
<path d="M1954 48h20"></path>
</g>
</g>
<path d="M1974 48h10"></path>
<path d="M 1984 48 h 20 m -10 -10 v 20 m 10 -20 v 20"></path>
</g>
</svg>
