<svg xmlns="http://www.w3.org/2000/svg" xmlns:xlink="http://www.w3.org/1999/xlink" class="railroad-diagram" width="1476" height="110" viewBox="0 0 1476 110">
<defs>
<style type="text/css"><![CDATA[
path {
stroke-width: 3;
stroke: black;
fill: rgba(0,0,0,0);
}
text {
font: bold 14px monospace;
text-anchor: middle;
}
text.diagram-text {
font-size: 12px;
}
a {
fill: blue;
}
text.diagram-arrow {
font-size: 16px;
}
text.label {
text-anchor: start;
}
text.comment {
font: italic 12px monospace;
}
rect {
stroke-width: 3;
stroke: black;
fill: #BCBCBC;
}
path.diagram-text {
stroke-width: 3;
stroke: black;
fill: #BCBCBC;
cursor: help;
}
]]></style>
</defs>
<g transform="translate(.5 .5)">
<path d="M 20 30 v 20 m 10 -20 v 20 m -10 -10 h 20.5"></path>
<path d="M40 40h10"></path>
<g>
<path d="M50 40h0"></path>
<path d="M1426 40h0"></path>
<g class="terminal">
<path d="M50 40h0"></path>
<path d="M142 40h0"></path>
<rect x="50" y="29" width="92" height="22" rx="10" ry="10"></rect>
<text x="96" y="44">"PERFORM"</text>
</g>
<path d="M142 40h10"></path>
<g>
<path d="M152 40h0"></path>
<path d="M276 40h0"></path>
<path d="M152 40h20"></path>
<g class="non-terminal">
<path d="M172 40h0"></path>
<path d="M256 40h0"></path>
<rect x="172" y="29" width="84" height="22"></rect>
<a xlink:href="reuse_formname.svg"><text x="214" y="44">FormName</text>
</a>
</g>
<path d="M256 40h20"></path>
<path d="M152 40a10 10 0 0 1 10 10v10a10 10 0 0 0 10 10"></path>
<g class="non-terminal">
<path d="M172 70h0"></path>
<path d="M248 70h8"></path>
<rect x="172" y="59" width="76" height="22"></rect>
<a xlink:href="reuse_dynamic.svg"><text x="210" y="74">Dynamic</text>
</a>
</g>
<path d="M256 70a10 10 0 0 0 10 -10v-10a10 10 0 0 1 10 -10"></path>
</g>
<g>
<path d="M276 40h0"></path>
<path d="M582 40h0"></path>
<path d="M276 40a10 10 0 0 0 10 -10v0a10 10 0 0 1 10 -10"></path>
<g>
<path d="M296 20h266"></path>
</g>
<path d="M562 20a10 10 0 0 1 10 10v0a10 10 0 0 0 10 10"></path>
<path d="M276 40h20"></path>
<g>
<path d="M296 40h0"></path>
<path d="M562 40h0"></path>
<g class="terminal">
<path d="M296 40h0"></path>
<path d="M412 40h0"></path>
<rect x="296" y="29" width="116" height="22" rx="10" ry="10"></rect>
<text x="354" y="44">"IN PROGRAM"</text>
</g>
<path d="M412 40h10"></path>
<g>
<path d="M422 40h0"></path>
<path d="M562 40h0"></path>
<path d="M422 40h20"></path>
<g class="non-terminal">
<path d="M442 40h0"></path>
<path d="M518 40h24"></path>
<rect x="442" y="29" width="76" height="22"></rect>
<a xlink:href="reuse_dynamic.svg"><text x="480" y="44">Dynamic</text>
</a>
</g>
<path d="M542 40h20"></path>
<path d="M422 40a10 10 0 0 1 10 10v19a10 10 0 0 0 10 10"></path>
<g>
<path d="M442 79h0"></path>
<path d="M542 79h0"></path>
<path d="M442 79a10 10 0 0 0 10 -10v0a10 10 0 0 1 10 -10"></path>
<g>
<path d="M462 59h60"></path>
</g>
<path d="M522 59a10 10 0 0 1 10 10v0a10 10 0 0 0 10 10"></path>
<path d="M442 79h20"></path>
<g class="non-terminal">
<path d="M462 79h0"></path>
<path d="M522 79h0"></path>
<rect x="462" y="68" width="60" height="22"></rect>
<a xlink:href="reuse_field.svg"><text x="492" y="83">Field</text>
</a>
</g>
<path d="M522 79h20"></path>
</g>
<path d="M542 79a10 10 0 0 0 10 -10v-19a10 10 0 0 1 10 -10"></path>
</g>
</g>
<path d="M562 40h20"></path>
</g>
<g>
<path d="M582 40h0"></path>
<path d="M814 40h0"></path>
<path d="M582 40a10 10 0 0 0 10 -10v0a10 10 0 0 1 10 -10"></path>
<g>
<path d="M602 20h192"></path>
</g>
<path d="M794 20a10 10 0 0 1 10 10v0a10 10 0 0 0 10 10"></path>
<path d="M582 40h20"></path>
<g>
<path d="M602 40h0"></path>
<path d="M794 40h0"></path>
<g class="terminal">
<path d="M602 40h0"></path>
<path d="M686 40h0"></path>
<rect x="602" y="29" width="84" height="22" rx="10" ry="10"></rect>
<text x="644" y="44">"TABLES"</text>
</g>
<path d="M686 40h10"></path>
<path d="M696 40h10"></path>
<g>
<path d="M706 40h0"></path>
<path d="M794 40h0"></path>
<path d="M706 40h10"></path>
<g class="non-terminal">
<path d="M716 40h0"></path>
<path d="M784 40h0"></path>
<rect x="716" y="29" width="68" height="22"></rect>
<a xlink:href="reuse_source.svg"><text x="750" y="44">Source</text>
</a>
</g>
<path d="M784 40h10"></path>
<path d="M716 40a10 10 0 0 0 -10 10v0a10 10 0 0 0 10 10"></path>
<g>
<path d="M716 60h68"></path>
</g>
<path d="M784 60a10 10 0 0 0 10 -10v0a10 10 0 0 0 -10 -10"></path>
</g>
</g>
<path d="M794 40h20"></path>
</g>
<g>
<path d="M814 40h0"></path>
<path d="M1038 40h0"></path>
<path d="M814 40a10 10 0 0 0 10 -10v0a10 10 0 0 1 10 -10"></path>
<g>
<path d="M834 20h184"></path>
</g>
<path d="M1018 20a10 10 0 0 1 10 10v0a10 10 0 0 0 10 10"></path>
<path d="M814 40h20"></path>
<g>
<path d="M834 40h0"></path>
<path d="M1018 40h0"></path>
<g class="terminal">
<path d="M834 40h0"></path>
<path d="M910 40h0"></path>
<rect x="834" y="29" width="76" height="22" rx="10" ry="10"></rect>
<text x="872" y="44">"USING"</text>
</g>
<path d="M910 40h10"></path>
<path d="M920 40h10"></path>
<g>
<path d="M930 40h0"></path>
<path d="M1018 40h0"></path>
<path d="M930 40h10"></path>
<g class="non-terminal">
<path d="M940 40h0"></path>
<path d="M1008 40h0"></path>
<rect x="940" y="29" width="68" height="22"></rect>
<a xlink:href="reuse_source.svg"><text x="974" y="44">Source</text>
</a>
</g>
<path d="M1008 40h10"></path>
<path d="M940 40a10 10 0 0 0 -10 10v0a10 10 0 0 0 10 10"></path>
<g>
<path d="M940 60h68"></path>
</g>
<path d="M1008 60a10 10 0 0 0 10 -10v0a10 10 0 0 0 -10 -10"></path>
</g>
</g>
<path d="M1018 40h20"></path>
</g>
<g>
<path d="M1038 40h0"></path>
<path d="M1286 40h0"></path>
<path d="M1038 40a10 10 0 0 0 10 -10v0a10 10 0 0 1 10 -10"></path>
<g>
<path d="M1058 20h208"></path>
</g>
<path d="M1266 20a10 10 0 0 1 10 10v0a10 10 0 0 0 10 10"></path>
<path d="M1038 40h20"></path>
<g>
<path d="M1058 40h0"></path>
<path d="M1266 40h0"></path>
<g class="terminal">
<path d="M1058 40h0"></path>
<path d="M1158 40h0"></path>
<rect x="1058" y="29" width="100" height="22" rx="10" ry="10"></rect>
<text x="1108" y="44">"CHANGING"</text>
</g>
<path d="M1158 40h10"></path>
<path d="M1168 40h10"></path>
<g>
<path d="M1178 40h0"></path>
<path d="M1266 40h0"></path>
<path d="M1178 40h10"></path>
<g class="non-terminal">
<path d="M1188 40h0"></path>
<path d="M1256 40h0"></path>
<rect x="1188" y="29" width="68" height="22"></rect>
<a xlink:href="reuse_source.svg"><text x="1222" y="44">Source</text>
</a>
</g>
<path d="M1256 40h10"></path>
<path d="M1188 40a10 10 0 0 0 -10 10v0a10 10 0 0 0 10 10"></path>
<g>
<path d="M1188 60h68"></path>
</g>
<path d="M1256 60a10 10 0 0 0 10 -10v0a10 10 0 0 0 -10 -10"></path>
</g>
</g>
<path d="M1266 40h20"></path>
</g>
<g>
<path d="M1286 40h0"></path>
<path d="M1426 40h0"></path>
<path d="M1286 40a10 10 0 0 0 10 -10v0a10 10 0 0 1 10 -10"></path>
<g>
<path d="M1306 20h100"></path>
</g>
<path d="M1406 20a10 10 0 0 1 10 10v0a10 10 0 0 0 10 10"></path>
<path d="M1286 40h20"></path>
<g class="terminal">
<path d="M1306 40h0"></path>
<path d="M1406 40h0"></path>
<rect x="1306" y="29" width="100" height="22" rx="10" ry="10"></rect>
<text x="1356" y="44">"IF FOUND"</text>
</g>
<path d="M1406 40h20"></path>
</g>
</g>
<path d="M1426 40h10"></path>
<path d="M 1436 40 h 20 m -10 -10 v 20 m 10 -20 v 20"></path>
</g>
</svg>
