<svg xmlns="http://www.w3.org/2000/svg" xmlns:xlink="http://www.w3.org/1999/xlink" class="railroad-diagram" width="1516" height="149" viewBox="0 0 1516 149">
<defs>
<style type="text/css"><![CDATA[
path {
stroke-width: 3;
stroke: black;
fill: rgba(0,0,0,0);
}
text {
font: bold 14px monospace;
text-anchor: middle;
}
text.diagram-text {
font-size: 12px;
}
a {
fill: blue;
}
text.diagram-arrow {
font-size: 16px;
}
text.label {
text-anchor: start;
}
text.comment {
font: italic 12px monospace;
}
rect {
stroke-width: 3;
stroke: black;
fill: #BCBCBC;
}
path.diagram-text {
stroke-width: 3;
stroke: black;
fill: #BCBCBC;
cursor: help;
}
]]></style>
</defs>
<g transform="translate(.5 .5)">
<path d="M 20 30 v 20 m 10 -20 v 20 m -10 -10 h 20.5"></path>
<path d="M40 40h10"></path>
<g>
<path d="M50 40h0"></path>
<path d="M1466 40h0"></path>
<g class="terminal">
<path d="M50 40h0"></path>
<path d="M142 40h0"></path>
<rect x="50" y="29" width="92" height="22" rx="10" ry="10"></rect>
<text x="96" y="44">"PERFORM"</text>
</g>
<path d="M142 40h10"></path>
<g>
<path d="M152 40h0"></path>
<path d="M622 40h0"></path>
<path d="M152 40h20"></path>
<g>
<path d="M172 40h0"></path>
<path d="M488 40h114"></path>
<g class="non-terminal">
<path d="M172 40h0"></path>
<path d="M256 40h0"></path>
<rect x="172" y="29" width="84" height="22"></rect>
<a xlink:href="reuse_formname.svg"><text x="214" y="44">FormName</text>
</a>
</g>
<path d="M256 40h10"></path>
<path d="M266 40h10"></path>
<g class="terminal">
<path d="M276 40h0"></path>
<path d="M328 40h0"></path>
<rect x="276" y="29" width="52" height="22" rx="10" ry="10"></rect>
<text x="302" y="44">!"("</text>
</g>
<path d="M328 40h10"></path>
<path d="M338 40h10"></path>
<g class="non-terminal">
<path d="M348 40h0"></path>
<path d="M408 40h0"></path>
<rect x="348" y="29" width="60" height="22"></rect>
<a xlink:href="reuse_field.svg"><text x="378" y="44">Field</text>
</a>
</g>
<path d="M408 40h10"></path>
<path d="M418 40h10"></path>
<g class="terminal">
<path d="M428 40h0"></path>
<path d="M488 40h0"></path>
<rect x="428" y="29" width="60" height="22" rx="10" ry="10"></rect>
<text x="458" y="44">!") "</text>
</g>
</g>
<path d="M602 40h20"></path>
<path d="M152 40a10 10 0 0 1 10 10v19a10 10 0 0 0 10 10"></path>
<g>
<path d="M172 79h0"></path>
<path d="M602 79h0"></path>
<g>
<path d="M172 79h0"></path>
<path d="M296 79h0"></path>
<path d="M172 79h20"></path>
<g class="non-terminal">
<path d="M192 79h0"></path>
<path d="M276 79h0"></path>
<rect x="192" y="68" width="84" height="22"></rect>
<a xlink:href="reuse_formname.svg"><text x="234" y="83">FormName</text>
</a>
</g>
<path d="M276 79h20"></path>
<path d="M172 79a10 10 0 0 1 10 10v10a10 10 0 0 0 10 10"></path>
<g class="non-terminal">
<path d="M192 109h0"></path>
<path d="M268 109h8"></path>
<rect x="192" y="98" width="76" height="22"></rect>
<a xlink:href="reuse_dynamic.svg"><text x="230" y="113">Dynamic</text>
</a>
</g>
<path d="M276 109a10 10 0 0 0 10 -10v-10a10 10 0 0 1 10 -10"></path>
</g>
<g>
<path d="M296 79h0"></path>
<path d="M602 79h0"></path>
<path d="M296 79a10 10 0 0 0 10 -10v0a10 10 0 0 1 10 -10"></path>
<g>
<path d="M316 59h266"></path>
</g>
<path d="M582 59a10 10 0 0 1 10 10v0a10 10 0 0 0 10 10"></path>
<path d="M296 79h20"></path>
<g>
<path d="M316 79h0"></path>
<path d="M582 79h0"></path>
<g class="terminal">
<path d="M316 79h0"></path>
<path d="M432 79h0"></path>
<rect x="316" y="68" width="116" height="22" rx="10" ry="10"></rect>
<text x="374" y="83">"IN PROGRAM"</text>
</g>
<path d="M432 79h10"></path>
<g>
<path d="M442 79h0"></path>
<path d="M582 79h0"></path>
<path d="M442 79h20"></path>
<g class="non-terminal">
<path d="M462 79h0"></path>
<path d="M538 79h24"></path>
<rect x="462" y="68" width="76" height="22"></rect>
<a xlink:href="reuse_dynamic.svg"><text x="500" y="83">Dynamic</text>
</a>
</g>
<path d="M562 79h20"></path>
<path d="M442 79a10 10 0 0 1 10 10v19a10 10 0 0 0 10 10"></path>
<g>
<path d="M462 118h0"></path>
<path d="M562 118h0"></path>
<path d="M462 118a10 10 0 0 0 10 -10v0a10 10 0 0 1 10 -10"></path>
<g>
<path d="M482 98h60"></path>
</g>
<path d="M542 98a10 10 0 0 1 10 10v0a10 10 0 0 0 10 10"></path>
<path d="M462 118h20"></path>
<g class="non-terminal">
<path d="M482 118h0"></path>
<path d="M542 118h0"></path>
<rect x="482" y="107" width="60" height="22"></rect>
<a xlink:href="reuse_field.svg"><text x="512" y="122">Field</text>
</a>
</g>
<path d="M542 118h20"></path>
</g>
<path d="M562 118a10 10 0 0 0 10 -10v-19a10 10 0 0 1 10 -10"></path>
</g>
</g>
<path d="M582 79h20"></path>
</g>
</g>
<path d="M602 79a10 10 0 0 0 10 -10v-19a10 10 0 0 1 10 -10"></path>
</g>
<g>
<path d="M622 40h0"></path>
<path d="M854 40h0"></path>
<path d="M622 40a10 10 0 0 0 10 -10v0a10 10 0 0 1 10 -10"></path>
<g>
<path d="M642 20h192"></path>
</g>
<path d="M834 20a10 10 0 0 1 10 10v0a10 10 0 0 0 10 10"></path>
<path d="M622 40h20"></path>
<g>
<path d="M642 40h0"></path>
<path d="M834 40h0"></path>
<g class="terminal">
<path d="M642 40h0"></path>
<path d="M726 40h0"></path>
<rect x="642" y="29" width="84" height="22" rx="10" ry="10"></rect>
<text x="684" y="44">"TABLES"</text>
</g>
<path d="M726 40h10"></path>
<path d="M736 40h10"></path>
<g>
<path d="M746 40h0"></path>
<path d="M834 40h0"></path>
<path d="M746 40h10"></path>
<g class="non-terminal">
<path d="M756 40h0"></path>
<path d="M824 40h0"></path>
<rect x="756" y="29" width="68" height="22"></rect>
<a xlink:href="reuse_source.svg"><text x="790" y="44">Source</text>
</a>
</g>
<path d="M824 40h10"></path>
<path d="M756 40a10 10 0 0 0 -10 10v0a10 10 0 0 0 10 10"></path>
<g>
<path d="M756 60h68"></path>
</g>
<path d="M824 60a10 10 0 0 0 10 -10v0a10 10 0 0 0 -10 -10"></path>
</g>
</g>
<path d="M834 40h20"></path>
</g>
<g>
<path d="M854 40h0"></path>
<path d="M1078 40h0"></path>
<path d="M854 40a10 10 0 0 0 10 -10v0a10 10 0 0 1 10 -10"></path>
<g>
<path d="M874 20h184"></path>
</g>
<path d="M1058 20a10 10 0 0 1 10 10v0a10 10 0 0 0 10 10"></path>
<path d="M854 40h20"></path>
<g>
<path d="M874 40h0"></path>
<path d="M1058 40h0"></path>
<g class="terminal">
<path d="M874 40h0"></path>
<path d="M950 40h0"></path>
<rect x="874" y="29" width="76" height="22" rx="10" ry="10"></rect>
<text x="912" y="44">"USING"</text>
</g>
<path d="M950 40h10"></path>
<path d="M960 40h10"></path>
<g>
<path d="M970 40h0"></path>
<path d="M1058 40h0"></path>
<path d="M970 40h10"></path>
<g class="non-terminal">
<path d="M980 40h0"></path>
<path d="M1048 40h0"></path>
<rect x="980" y="29" width="68" height="22"></rect>
<a xlink:href="reuse_source.svg"><text x="1014" y="44">Source</text>
</a>
</g>
<path d="M1048 40h10"></path>
<path d="M980 40a10 10 0 0 0 -10 10v0a10 10 0 0 0 10 10"></path>
<g>
<path d="M980 60h68"></path>
</g>
<path d="M1048 60a10 10 0 0 0 10 -10v0a10 10 0 0 0 -10 -10"></path>
</g>
</g>
<path d="M1058 40h20"></path>
</g>
<g>
<path d="M1078 40h0"></path>
<path d="M1326 40h0"></path>
<path d="M1078 40a10 10 0 0 0 10 -10v0a10 10 0 0 1 10 -10"></path>
<g>
<path d="M1098 20h208"></path>
</g>
<path d="M1306 20a10 10 0 0 1 10 10v0a10 10 0 0 0 10 10"></path>
<path d="M1078 40h20"></path>
<g>
<path d="M1098 40h0"></path>
<path d="M1306 40h0"></path>
<g class="terminal">
<path d="M1098 40h0"></path>
<path d="M1198 40h0"></path>
<rect x="1098" y="29" width="100" height="22" rx="10" ry="10"></rect>
<text x="1148" y="44">"CHANGING"</text>
</g>
<path d="M1198 40h10"></path>
<path d="M1208 40h10"></path>
<g>
<path d="M1218 40h0"></path>
<path d="M1306 40h0"></path>
<path d="M1218 40h10"></path>
<g class="non-terminal">
<path d="M1228 40h0"></path>
<path d="M1296 40h0"></path>
<rect x="1228" y="29" width="68" height="22"></rect>
<a xlink:href="reuse_source.svg"><text x="1262" y="44">Source</text>
</a>
</g>
<path d="M1296 40h10"></path>
<path d="M1228 40a10 10 0 0 0 -10 10v0a10 10 0 0 0 10 10"></path>
<g>
<path d="M1228 60h68"></path>
</g>
<path d="M1296 60a10 10 0 0 0 10 -10v0a10 10 0 0 0 -10 -10"></path>
</g>
</g>
<path d="M1306 40h20"></path>
</g>
<g>
<path d="M1326 40h0"></path>
<path d="M1466 40h0"></path>
<path d="M1326 40a10 10 0 0 0 10 -10v0a10 10 0 0 1 10 -10"></path>
<g>
<path d="M1346 20h100"></path>
</g>
<path d="M1446 20a10 10 0 0 1 10 10v0a10 10 0 0 0 10 10"></path>
<path d="M1326 40h20"></path>
<g class="terminal">
<path d="M1346 40h0"></path>
<path d="M1446 40h0"></path>
<rect x="1346" y="29" width="100" height="22" rx="10" ry="10"></rect>
<text x="1396" y="44">"IF FOUND"</text>
</g>
<path d="M1446 40h20"></path>
</g>
</g>
<path d="M1466 40h10"></path>
<path d="M 1476 40 h 20 m -10 -10 v 20 m 10 -20 v 20"></path>
</g>
</svg>
