<svg xmlns="http://www.w3.org/2000/svg" xmlns:xlink="http://www.w3.org/1999/xlink" class="railroad-diagram" width="2084" height="186" viewBox="0 0 2084 186">
<defs>
<style type="text/css"><![CDATA[
path {
stroke-width: 3;
stroke: black;
fill: rgba(0,0,0,0);
}
text {
font: bold 14px monospace;
text-anchor: middle;
}
text.diagram-text {
font-size: 12px;
}
a {
fill: blue;
}
text.diagram-arrow {
font-size: 16px;
}
text.label {
text-anchor: start;
}
text.comment {
font: italic 12px monospace;
}
rect {
stroke-width: 3;
stroke: black;
fill: #BCBCBC;
}
path.diagram-text {
stroke-width: 3;
stroke: black;
fill: #BCBCBC;
cursor: help;
}
]]></style>
</defs>
<g transform="translate(.5 .5)">
<path d="M 20 38 v 20 m 10 -20 v 20 m -10 -10 h 20.5"></path>
<path d="M40 48h10"></path>
<g>
<path d="M50 48h0"></path>
<path d="M2034 48h0"></path>
<g class="terminal">
<path d="M50 48h0"></path>
<path d="M142 48h0"></path>
<rect x="50" y="37" width="92" height="22" rx="10" ry="10"></rect>
<text x="96" y="52">"PERFORM"</text>
</g>
<path d="M142 48h10"></path>
<g>
<path d="M152 48h0"></path>
<path d="M788 48h0"></path>
<path d="M152 48h20"></path>
<g>
<path d="M172 48h0"></path>
<path d="M518 48h250"></path>
<g class="non-terminal">
<path d="M172 48h0"></path>
<path d="M256 48h0"></path>
<rect x="172" y="37" width="84" height="22"></rect>
<a xlink:href="reuse_formname.svg"><text x="214" y="52">FormName</text>
</a>
</g>
<path d="M256 48h10"></path>
<path d="M266 48h10"></path>
<g class="terminal">
<path d="M276 48h0"></path>
<path d="M328 48h0"></path>
<rect x="276" y="37" width="52" height="22" rx="10" ry="10"></rect>
<text x="302" y="52">!"("</text>
</g>
<path d="M328 48h10"></path>
<path d="M338 48h10"></path>
<g class="non-terminal">
<path d="M348 48h0"></path>
<path d="M408 48h0"></path>
<rect x="348" y="37" width="60" height="22"></rect>
<a xlink:href="reuse_field.svg"><text x="378" y="52">Field</text>
</a>
</g>
<path d="M408 48h10"></path>
<g>
<path d="M418 48h0"></path>
<path d="M518 48h0"></path>
<path d="M418 48h20"></path>
<g class="terminal">
<path d="M438 48h0"></path>
<path d="M498 48h0"></path>
<rect x="438" y="37" width="60" height="22" rx="10" ry="10"></rect>
<text x="468" y="52">!") "</text>
</g>
<path d="M498 48h20"></path>
<path d="M418 48a10 10 0 0 1 10 10v10a10 10 0 0 0 10 10"></path>
<g class="terminal">
<path d="M438 78h0"></path>
<path d="M490 78h8"></path>
<rect x="438" y="67" width="52" height="22" rx="10" ry="10"></rect>
<text x="464" y="82">!")"</text>
</g>
<path d="M498 78a10 10 0 0 0 10 -10v-10a10 10 0 0 1 10 -10"></path>
</g>
</g>
<path d="M768 48h20"></path>
<path d="M152 48a10 10 0 0 1 10 10v57a10 10 0 0 0 10 10"></path>
<g>
<path d="M172 125h0"></path>
<path d="M768 125h0"></path>
<g>
<path d="M172 125h0"></path>
<path d="M296 125h0"></path>
<path d="M172 125h20"></path>
<g class="non-terminal">
<path d="M192 125h0"></path>
<path d="M276 125h0"></path>
<rect x="192" y="114" width="84" height="22"></rect>
<a xlink:href="reuse_formname.svg"><text x="234" y="129">FormName</text>
</a>
</g>
<path d="M276 125h20"></path>
<path d="M172 125a10 10 0 0 1 10 10v10a10 10 0 0 0 10 10"></path>
<g class="non-terminal">
<path d="M192 155h0"></path>
<path d="M268 155h8"></path>
<rect x="192" y="144" width="76" height="22"></rect>
<a xlink:href="reuse_dynamic.svg"><text x="230" y="159">Dynamic</text>
</a>
</g>
<path d="M276 155a10 10 0 0 0 10 -10v-10a10 10 0 0 1 10 -10"></path>
</g>
<g>
<path d="M296 125h0"></path>
<path d="M768 125h0"></path>
<path d="M296 125a10 10 0 0 0 10 -10v-8a10 10 0 0 1 10 -10"></path>
<g>
<path d="M316 97h432"></path>
</g>
<path d="M748 97a10 10 0 0 1 10 10v8a10 10 0 0 0 10 10"></path>
<path d="M296 125h20"></path>
<g>
<path d="M316 125h0"></path>
<path d="M748 125h0"></path>
<g>
<path d="M316 125h0"></path>
<path d="M598 125h0"></path>
<g class="terminal">
<path d="M316 125h0"></path>
<path d="M432 125h0"></path>
<rect x="316" y="114" width="116" height="22" rx="10" ry="10"></rect>
<text x="374" y="129">"IN PROGRAM"</text>
</g>
<path d="M432 125h10"></path>
<g>
<path d="M442 125h0"></path>
<path d="M598 125h0"></path>
<path d="M442 125a10 10 0 0 0 10 -10v0a10 10 0 0 1 10 -10"></path>
<g>
<path d="M462 105h116"></path>
</g>
<path d="M578 105a10 10 0 0 1 10 10v0a10 10 0 0 0 10 10"></path>
<path d="M442 125h20"></path>
<g>
<path d="M462 125h0"></path>
<path d="M578 125h0"></path>
<path d="M462 125h20"></path>
<g class="non-terminal">
<path d="M482 125h0"></path>
<path d="M558 125h0"></path>
<rect x="482" y="114" width="76" height="22"></rect>
<a xlink:href="reuse_dynamic.svg"><text x="520" y="129">Dynamic</text>
</a>
</g>
<path d="M558 125h20"></path>
<path d="M462 125a10 10 0 0 1 10 10v10a10 10 0 0 0 10 10"></path>
<g class="non-terminal">
<path d="M482 155h0"></path>
<path d="M542 155h16"></path>
<rect x="482" y="144" width="60" height="22"></rect>
<a xlink:href="reuse_field.svg"><text x="512" y="159">Field</text>
</a>
</g>
<path d="M558 155a10 10 0 0 0 10 -10v-10a10 10 0 0 1 10 -10"></path>
</g>
<path d="M578 125h20"></path>
</g>
</g>
<path d="M598 125h10"></path>
<g>
<path d="M608 125h0"></path>
<path d="M748 125h0"></path>
<path d="M608 125a10 10 0 0 0 10 -10v0a10 10 0 0 1 10 -10"></path>
<g>
<path d="M628 105h100"></path>
</g>
<path d="M728 105a10 10 0 0 1 10 10v0a10 10 0 0 0 10 10"></path>
<path d="M608 125h20"></path>
<g class="terminal">
<path d="M628 125h0"></path>
<path d="M728 125h0"></path>
<rect x="628" y="114" width="100" height="22" rx="10" ry="10"></rect>
<text x="678" y="129">"IF FOUND"</text>
</g>
<path d="M728 125h20"></path>
</g>
</g>
<path d="M748 125h20"></path>
</g>
</g>
<path d="M768 125a10 10 0 0 0 10 -10v-57a10 10 0 0 1 10 -10"></path>
</g>
<g>
<path d="M788 48h0"></path>
<path d="M1020 48h0"></path>
<path d="M788 48a10 10 0 0 0 10 -10v0a10 10 0 0 1 10 -10"></path>
<g>
<path d="M808 28h192"></path>
</g>
<path d="M1000 28a10 10 0 0 1 10 10v0a10 10 0 0 0 10 10"></path>
<path d="M788 48h20"></path>
<g>
<path d="M808 48h0"></path>
<path d="M1000 48h0"></path>
<g class="terminal">
<path d="M808 48h0"></path>
<path d="M892 48h0"></path>
<rect x="808" y="37" width="84" height="22" rx="10" ry="10"></rect>
<text x="850" y="52">"TABLES"</text>
</g>
<path d="M892 48h10"></path>
<path d="M902 48h10"></path>
<g>
<path d="M912 48h0"></path>
<path d="M1000 48h0"></path>
<path d="M912 48h10"></path>
<g class="non-terminal">
<path d="M922 48h0"></path>
<path d="M990 48h0"></path>
<rect x="922" y="37" width="68" height="22"></rect>
<a xlink:href="reuse_source.svg"><text x="956" y="52">Source</text>
</a>
</g>
<path d="M990 48h10"></path>
<path d="M922 48a10 10 0 0 0 -10 10v0a10 10 0 0 0 10 10"></path>
<g>
<path d="M922 68h68"></path>
</g>
<path d="M990 68a10 10 0 0 0 10 -10v0a10 10 0 0 0 -10 -10"></path>
</g>
</g>
<path d="M1000 48h20"></path>
</g>
<g>
<path d="M1020 48h0"></path>
<path d="M1244 48h0"></path>
<path d="M1020 48a10 10 0 0 0 10 -10v0a10 10 0 0 1 10 -10"></path>
<g>
<path d="M1040 28h184"></path>
</g>
<path d="M1224 28a10 10 0 0 1 10 10v0a10 10 0 0 0 10 10"></path>
<path d="M1020 48h20"></path>
<g>
<path d="M1040 48h0"></path>
<path d="M1224 48h0"></path>
<g class="terminal">
<path d="M1040 48h0"></path>
<path d="M1116 48h0"></path>
<rect x="1040" y="37" width="76" height="22" rx="10" ry="10"></rect>
<text x="1078" y="52">"USING"</text>
</g>
<path d="M1116 48h10"></path>
<path d="M1126 48h10"></path>
<g>
<path d="M1136 48h0"></path>
<path d="M1224 48h0"></path>
<path d="M1136 48h10"></path>
<g class="non-terminal">
<path d="M1146 48h0"></path>
<path d="M1214 48h0"></path>
<rect x="1146" y="37" width="68" height="22"></rect>
<a xlink:href="reuse_source.svg"><text x="1180" y="52">Source</text>
</a>
</g>
<path d="M1214 48h10"></path>
<path d="M1146 48a10 10 0 0 0 -10 10v0a10 10 0 0 0 10 10"></path>
<g>
<path d="M1146 68h68"></path>
</g>
<path d="M1214 68a10 10 0 0 0 10 -10v0a10 10 0 0 0 -10 -10"></path>
</g>
</g>
<path d="M1224 48h20"></path>
</g>
<g>
<path d="M1244 48h0"></path>
<path d="M1492 48h0"></path>
<path d="M1244 48a10 10 0 0 0 10 -10v0a10 10 0 0 1 10 -10"></path>
<g>
<path d="M1264 28h208"></path>
</g>
<path d="M1472 28a10 10 0 0 1 10 10v0a10 10 0 0 0 10 10"></path>
<path d="M1244 48h20"></path>
<g>
<path d="M1264 48h0"></path>
<path d="M1472 48h0"></path>
<g class="terminal">
<path d="M1264 48h0"></path>
<path d="M1364 48h0"></path>
<rect x="1264" y="37" width="100" height="22" rx="10" ry="10"></rect>
<text x="1314" y="52">"CHANGING"</text>
</g>
<path d="M1364 48h10"></path>
<path d="M1374 48h10"></path>
<g>
<path d="M1384 48h0"></path>
<path d="M1472 48h0"></path>
<path d="M1384 48h10"></path>
<g class="non-terminal">
<path d="M1394 48h0"></path>
<path d="M1462 48h0"></path>
<rect x="1394" y="37" width="68" height="22"></rect>
<a xlink:href="reuse_source.svg"><text x="1428" y="52">Source</text>
</a>
</g>
<path d="M1462 48h10"></path>
<path d="M1394 48a10 10 0 0 0 -10 10v0a10 10 0 0 0 10 10"></path>
<g>
<path d="M1394 68h68"></path>
</g>
<path d="M1462 68a10 10 0 0 0 10 -10v0a10 10 0 0 0 -10 -10"></path>
</g>
</g>
<path d="M1472 48h20"></path>
</g>
<g>
<path d="M1492 48h0"></path>
<path d="M1632 48h0"></path>
<path d="M1492 48a10 10 0 0 0 10 -10v0a10 10 0 0 1 10 -10"></path>
<g>
<path d="M1512 28h100"></path>
</g>
<path d="M1612 28a10 10 0 0 1 10 10v0a10 10 0 0 0 10 10"></path>
<path d="M1492 48h20"></path>
<g class="terminal">
<path d="M1512 48h0"></path>
<path d="M1612 48h0"></path>
<rect x="1512" y="37" width="100" height="22" rx="10" ry="10"></rect>
<text x="1562" y="52">"IF FOUND"</text>
</g>
<path d="M1612 48h20"></path>
</g>
<g>
<path d="M1632 48h0"></path>
<path d="M2034 48h0"></path>
<path d="M1632 48a10 10 0 0 0 10 -10v-8a10 10 0 0 1 10 -10"></path>
<g>
<path d="M1652 20h362"></path>
</g>
<path d="M2014 20a10 10 0 0 1 10 10v8a10 10 0 0 0 10 10"></path>
<path d="M1632 48h20"></path>
<g>
<path d="M1652 48h0"></path>
<path d="M2014 48h0"></path>
<path d="M1652 48h20"></path>
<g>
<path d="M1672 48h0"></path>
<path d="M1994 48h0"></path>
<g class="terminal">
<path d="M1672 48h0"></path>
<path d="M1780 48h0"></path>
<rect x="1672" y="37" width="108" height="22" rx="10" ry="10"></rect>
<text x="1726" y="52">"ON COMMIT"</text>
</g>
<path d="M1780 48h10"></path>
<g>
<path d="M1790 48h0"></path>
<path d="M1994 48h0"></path>
<path d="M1790 48a10 10 0 0 0 10 -10v0a10 10 0 0 1 10 -10"></path>
<g>
<path d="M1810 28h164"></path>
</g>
<path d="M1974 28a10 10 0 0 1 10 10v0a10 10 0 0 0 10 10"></path>
<path d="M1790 48h20"></path>
<g>
<path d="M1810 48h0"></path>
<path d="M1974 48h0"></path>
<g class="terminal">
<path d="M1810 48h0"></path>
<path d="M1886 48h0"></path>
<rect x="1810" y="37" width="76" height="22" rx="10" ry="10"></rect>
<text x="1848" y="52">"LEVEL"</text>
</g>
<path d="M1886 48h10"></path>
<path d="M1896 48h10"></path>
<g class="non-terminal">
<path d="M1906 48h0"></path>
<path d="M1974 48h0"></path>
<rect x="1906" y="37" width="68" height="22"></rect>
<a xlink:href="reuse_source.svg"><text x="1940" y="52">Source</text>
</a>
</g>
</g>
<path d="M1974 48h20"></path>
</g>
</g>
<path d="M1994 48h20"></path>
<path d="M1652 48a10 10 0 0 1 10 10v10a10 10 0 0 0 10 10"></path>
<g class="terminal">
<path d="M1672 78h0"></path>
<path d="M1796 78h198"></path>
<rect x="1672" y="67" width="124" height="22" rx="10" ry="10"></rect>
<text x="1734" y="82">"ON ROLLBACK"</text>
</g>
<path d="M1994 78a10 10 0 0 0 10 -10v-10a10 10 0 0 1 10 -10"></path>
</g>
<path d="M2014 48h20"></path>
</g>
</g>
<path d="M2034 48h10"></path>
<path d="M 2044 48 h 20 m -10 -10 v 20 m 10 -20 v 20"></path>
</g>
</svg>
