<svg xmlns="http://www.w3.org/2000/svg" xmlns:xlink="http://www.w3.org/1999/xlink" class="railroad-diagram" width="1436" height="109" viewBox="0 0 1436 109">
<defs>
<style type="text/css"><![CDATA[
path {
stroke-width: 3;
stroke: black;
fill: rgba(0,0,0,0);
}
text {
font: bold 14px monospace;
text-anchor: middle;
}
text.diagram-text {
font-size: 12px;
}
a {
fill: blue;
}
text.diagram-arrow {
font-size: 16px;
}
text.label {
text-anchor: start;
}
text.comment {
font: italic 12px monospace;
}
rect {
stroke-width: 3;
stroke: black;
fill: #BCBCBC;
}
path.diagram-text {
stroke-width: 3;
stroke: black;
fill: #BCBCBC;
cursor: help;
}
]]></style>
</defs>
<g transform="translate(.5 .5)">
<path d="M 20 38 v 20 m 10 -20 v 20 m -10 -10 h 20.5"></path>
<path d="M40 48h10"></path>
<g>
<path d="M50 48h0"></path>
<path d="M1386 48h0"></path>
<g class="terminal">
<path d="M50 48h0"></path>
<path d="M142 48h0"></path>
<rect x="50" y="37" width="92" height="22" rx="10" ry="10"></rect>
<text x="96" y="52">"PERFORM"</text>
</g>
<path d="M142 48h10"></path>
<g>
<path d="M152 48h0"></path>
<path d="M276 48h0"></path>
<path d="M152 48h20"></path>
<g class="non-terminal">
<path d="M172 48h0"></path>
<path d="M256 48h0"></path>
<rect x="172" y="37" width="84" height="22"></rect>
<a xlink:href="reuse_FormName.svg"><text x="214" y="52">FormName</text>
</a>
</g>
<path d="M256 48h20"></path>
<path d="M152 48a10 10 0 0 1 10 10v10a10 10 0 0 0 10 10"></path>
<g class="non-terminal">
<path d="M172 78h0"></path>
<path d="M248 78h8"></path>
<rect x="172" y="67" width="76" height="22"></rect>
<a xlink:href="reuse_Dynamic.svg"><text x="210" y="82">Dynamic</text>
</a>
</g>
<path d="M256 78a10 10 0 0 0 10 -10v-10a10 10 0 0 1 10 -10"></path>
</g>
<g>
<path d="M276 48h0"></path>
<path d="M542 48h0"></path>
<path d="M276 48a10 10 0 0 0 10 -10v-8a10 10 0 0 1 10 -10"></path>
<g>
<path d="M296 20h226"></path>
</g>
<path d="M522 20a10 10 0 0 1 10 10v8a10 10 0 0 0 10 10"></path>
<path d="M276 48h20"></path>
<g>
<path d="M296 48h0"></path>
<path d="M522 48h0"></path>
<g class="terminal">
<path d="M296 48h0"></path>
<path d="M412 48h0"></path>
<rect x="296" y="37" width="116" height="22" rx="10" ry="10"></rect>
<text x="354" y="52">"IN PROGRAM"</text>
</g>
<path d="M412 48h10"></path>
<g>
<path d="M422 48h0"></path>
<path d="M522 48h0"></path>
<path d="M422 48a10 10 0 0 0 10 -10v0a10 10 0 0 1 10 -10"></path>
<g>
<path d="M442 28h60"></path>
</g>
<path d="M502 28a10 10 0 0 1 10 10v0a10 10 0 0 0 10 10"></path>
<path d="M422 48h20"></path>
<g class="non-terminal">
<path d="M442 48h0"></path>
<path d="M502 48h0"></path>
<rect x="442" y="37" width="60" height="22"></rect>
<a xlink:href="reuse_Field.svg"><text x="472" y="52">Field</text>
</a>
</g>
<path d="M502 48h20"></path>
</g>
</g>
<path d="M522 48h20"></path>
</g>
<g>
<path d="M542 48h0"></path>
<path d="M682 48h0"></path>
<path d="M542 48a10 10 0 0 0 10 -10v0a10 10 0 0 1 10 -10"></path>
<g>
<path d="M562 28h100"></path>
</g>
<path d="M662 28a10 10 0 0 1 10 10v0a10 10 0 0 0 10 10"></path>
<path d="M542 48h20"></path>
<g class="terminal">
<path d="M562 48h0"></path>
<path d="M662 48h0"></path>
<rect x="562" y="37" width="100" height="22" rx="10" ry="10"></rect>
<text x="612" y="52">"IF FOUND"</text>
</g>
<path d="M662 48h20"></path>
</g>
<g>
<path d="M682 48h0"></path>
<path d="M914 48h0"></path>
<path d="M682 48a10 10 0 0 0 10 -10v0a10 10 0 0 1 10 -10"></path>
<g>
<path d="M702 28h192"></path>
</g>
<path d="M894 28a10 10 0 0 1 10 10v0a10 10 0 0 0 10 10"></path>
<path d="M682 48h20"></path>
<g>
<path d="M702 48h0"></path>
<path d="M894 48h0"></path>
<g class="terminal">
<path d="M702 48h0"></path>
<path d="M786 48h0"></path>
<rect x="702" y="37" width="84" height="22" rx="10" ry="10"></rect>
<text x="744" y="52">"TABLES"</text>
</g>
<path d="M786 48h10"></path>
<path d="M796 48h10"></path>
<g>
<path d="M806 48h0"></path>
<path d="M894 48h0"></path>
<path d="M806 48h10"></path>
<g class="non-terminal">
<path d="M816 48h0"></path>
<path d="M884 48h0"></path>
<rect x="816" y="37" width="68" height="22"></rect>
<a xlink:href="reuse_Source.svg"><text x="850" y="52">Source</text>
</a>
</g>
<path d="M884 48h10"></path>
<path d="M816 48a10 10 0 0 0 -10 10v0a10 10 0 0 0 10 10"></path>
<g>
<path d="M816 68h68"></path>
</g>
<path d="M884 68a10 10 0 0 0 10 -10v0a10 10 0 0 0 -10 -10"></path>
</g>
</g>
<path d="M894 48h20"></path>
</g>
<g>
<path d="M914 48h0"></path>
<path d="M1138 48h0"></path>
<path d="M914 48a10 10 0 0 0 10 -10v0a10 10 0 0 1 10 -10"></path>
<g>
<path d="M934 28h184"></path>
</g>
<path d="M1118 28a10 10 0 0 1 10 10v0a10 10 0 0 0 10 10"></path>
<path d="M914 48h20"></path>
<g>
<path d="M934 48h0"></path>
<path d="M1118 48h0"></path>
<g class="terminal">
<path d="M934 48h0"></path>
<path d="M1010 48h0"></path>
<rect x="934" y="37" width="76" height="22" rx="10" ry="10"></rect>
<text x="972" y="52">"USING"</text>
</g>
<path d="M1010 48h10"></path>
<path d="M1020 48h10"></path>
<g>
<path d="M1030 48h0"></path>
<path d="M1118 48h0"></path>
<path d="M1030 48h10"></path>
<g class="non-terminal">
<path d="M1040 48h0"></path>
<path d="M1108 48h0"></path>
<rect x="1040" y="37" width="68" height="22"></rect>
<a xlink:href="reuse_Source.svg"><text x="1074" y="52">Source</text>
</a>
</g>
<path d="M1108 48h10"></path>
<path d="M1040 48a10 10 0 0 0 -10 10v0a10 10 0 0 0 10 10"></path>
<g>
<path d="M1040 68h68"></path>
</g>
<path d="M1108 68a10 10 0 0 0 10 -10v0a10 10 0 0 0 -10 -10"></path>
</g>
</g>
<path d="M1118 48h20"></path>
</g>
<g>
<path d="M1138 48h0"></path>
<path d="M1386 48h0"></path>
<path d="M1138 48a10 10 0 0 0 10 -10v0a10 10 0 0 1 10 -10"></path>
<g>
<path d="M1158 28h208"></path>
</g>
<path d="M1366 28a10 10 0 0 1 10 10v0a10 10 0 0 0 10 10"></path>
<path d="M1138 48h20"></path>
<g>
<path d="M1158 48h0"></path>
<path d="M1366 48h0"></path>
<g class="terminal">
<path d="M1158 48h0"></path>
<path d="M1258 48h0"></path>
<rect x="1158" y="37" width="100" height="22" rx="10" ry="10"></rect>
<text x="1208" y="52">"CHANGING"</text>
</g>
<path d="M1258 48h10"></path>
<path d="M1268 48h10"></path>
<g>
<path d="M1278 48h0"></path>
<path d="M1366 48h0"></path>
<path d="M1278 48h10"></path>
<g class="non-terminal">
<path d="M1288 48h0"></path>
<path d="M1356 48h0"></path>
<rect x="1288" y="37" width="68" height="22"></rect>
<a xlink:href="reuse_Source.svg"><text x="1322" y="52">Source</text>
</a>
</g>
<path d="M1356 48h10"></path>
<path d="M1288 48a10 10 0 0 0 -10 10v0a10 10 0 0 0 10 10"></path>
<g>
<path d="M1288 68h68"></path>
</g>
<path d="M1356 68a10 10 0 0 0 10 -10v0a10 10 0 0 0 -10 -10"></path>
</g>
</g>
<path d="M1366 48h20"></path>
</g>
</g>
<path d="M1386 48h10"></path>
<path d="M 1396 48 h 20 m -10 -10 v 20 m 10 -20 v 20"></path>
</g>
</svg>
