<svg xmlns="http://www.w3.org/2000/svg" xmlns:xlink="http://www.w3.org/1999/xlink" class="railroad-diagram" width="1130" height="80" viewBox="0 0 1130 80">
<defs>
<style type="text/css"><![CDATA[
path {
stroke-width: 3;
stroke: black;
fill: rgba(0,0,0,0);
}
text {
font: bold 14px monospace;
text-anchor: middle;
}
text.diagram-text {
font-size: 12px;
}
a {
fill: blue;
}
text.diagram-arrow {
font-size: 16px;
}
text.label {
text-anchor: start;
}
text.comment {
font: italic 12px monospace;
}
rect {
stroke-width: 3;
stroke: black;
fill: #BCBCBC;
}
path.diagram-text {
stroke-width: 3;
stroke: black;
fill: #BCBCBC;
cursor: help;
}
]]></style>
</defs>
<g transform="translate(.5 .5)">
<path d="M 20 30 v 20 m 10 -20 v 20 m -10 -10 h 20.5"></path>
<path d="M40 40h10"></path>
<g>
<path d="M50 40h0"></path>
<path d="M1080 40h0"></path>
<g class="terminal">
<path d="M50 40h0"></path>
<path d="M142 40h0"></path>
<rect x="50" y="29" width="92" height="22" rx="10" ry="10"></rect>
<text x="96" y="44">"PERFORM"</text>
</g>
<path d="M142 40h10"></path>
<path d="M152 40h10"></path>
<g class="non-terminal">
<path d="M162 40h0"></path>
<path d="M222 40h0"></path>
<rect x="162" y="29" width="60" height="22"></rect>
<a xlink:href="reuse_field.svg"><text x="192" y="44">field</text>
</a>
</g>
<path d="M222 40h10"></path>
<g>
<path d="M232 40h0"></path>
<path d="M468 40h0"></path>
<path d="M232 40a10 10 0 0 0 10 -10v0a10 10 0 0 1 10 -10"></path>
<g>
<path d="M252 20h196"></path>
</g>
<path d="M448 20a10 10 0 0 1 10 10v0a10 10 0 0 0 10 10"></path>
<path d="M232 40h20"></path>
<g>
<path d="M252 40h0"></path>
<path d="M448 40h0"></path>
<g class="terminal">
<path d="M252 40h0"></path>
<path d="M368 40h0"></path>
<rect x="252" y="29" width="116" height="22" rx="10" ry="10"></rect>
<text x="310" y="44">"IN PROGRAM"</text>
</g>
<path d="M368 40h10"></path>
<path d="M378 40h10"></path>
<g class="non-terminal">
<path d="M388 40h0"></path>
<path d="M448 40h0"></path>
<rect x="388" y="29" width="60" height="22"></rect>
<a xlink:href="reuse_field.svg"><text x="418" y="44">field</text>
</a>
</g>
</g>
<path d="M448 40h20"></path>
</g>
<g>
<path d="M468 40h0"></path>
<path d="M608 40h0"></path>
<path d="M468 40a10 10 0 0 0 10 -10v0a10 10 0 0 1 10 -10"></path>
<g>
<path d="M488 20h100"></path>
</g>
<path d="M588 20a10 10 0 0 1 10 10v0a10 10 0 0 0 10 10"></path>
<path d="M468 40h20"></path>
<g class="terminal">
<path d="M488 40h0"></path>
<path d="M588 40h0"></path>
<rect x="488" y="29" width="100" height="22" rx="10" ry="10"></rect>
<text x="538" y="44">"IF FOUND"</text>
</g>
<path d="M588 40h20"></path>
</g>
<g>
<path d="M608 40h0"></path>
<path d="M832 40h0"></path>
<path d="M608 40a10 10 0 0 0 10 -10v0a10 10 0 0 1 10 -10"></path>
<g>
<path d="M628 20h184"></path>
</g>
<path d="M812 20a10 10 0 0 1 10 10v0a10 10 0 0 0 10 10"></path>
<path d="M608 40h20"></path>
<g>
<path d="M628 40h0"></path>
<path d="M812 40h0"></path>
<g class="terminal">
<path d="M628 40h0"></path>
<path d="M704 40h0"></path>
<rect x="628" y="29" width="76" height="22" rx="10" ry="10"></rect>
<text x="666" y="44">"USING"</text>
</g>
<path d="M704 40h10"></path>
<path d="M714 40h10"></path>
<g>
<path d="M724 40h0"></path>
<path d="M812 40h0"></path>
<path d="M724 40h10"></path>
<g class="non-terminal">
<path d="M734 40h0"></path>
<path d="M802 40h0"></path>
<rect x="734" y="29" width="68" height="22"></rect>
<a xlink:href="reuse_source.svg"><text x="768" y="44">source</text>
</a>
</g>
<path d="M802 40h10"></path>
<path d="M734 40a10 10 0 0 0 -10 10v0a10 10 0 0 0 10 10"></path>
<g>
<path d="M734 60h68"></path>
</g>
<path d="M802 60a10 10 0 0 0 10 -10v0a10 10 0 0 0 -10 -10"></path>
</g>
</g>
<path d="M812 40h20"></path>
</g>
<g>
<path d="M832 40h0"></path>
<path d="M1080 40h0"></path>
<path d="M832 40a10 10 0 0 0 10 -10v0a10 10 0 0 1 10 -10"></path>
<g>
<path d="M852 20h208"></path>
</g>
<path d="M1060 20a10 10 0 0 1 10 10v0a10 10 0 0 0 10 10"></path>
<path d="M832 40h20"></path>
<g>
<path d="M852 40h0"></path>
<path d="M1060 40h0"></path>
<g class="terminal">
<path d="M852 40h0"></path>
<path d="M952 40h0"></path>
<rect x="852" y="29" width="100" height="22" rx="10" ry="10"></rect>
<text x="902" y="44">"CHANGING"</text>
</g>
<path d="M952 40h10"></path>
<path d="M962 40h10"></path>
<g>
<path d="M972 40h0"></path>
<path d="M1060 40h0"></path>
<path d="M972 40h10"></path>
<g class="non-terminal">
<path d="M982 40h0"></path>
<path d="M1050 40h0"></path>
<rect x="982" y="29" width="68" height="22"></rect>
<a xlink:href="reuse_source.svg"><text x="1016" y="44">source</text>
</a>
</g>
<path d="M1050 40h10"></path>
<path d="M982 40a10 10 0 0 0 -10 10v0a10 10 0 0 0 10 10"></path>
<g>
<path d="M982 60h68"></path>
</g>
<path d="M1050 60a10 10 0 0 0 10 -10v0a10 10 0 0 0 -10 -10"></path>
</g>
</g>
<path d="M1060 40h20"></path>
</g>
</g>
<path d="M1080 40h10"></path>
<path d="M 1090 40 h 20 m -10 -10 v 20 m 10 -20 v 20"></path>
</g>
</svg>
