<svg xmlns="http://www.w3.org/2000/svg" xmlns:xlink="http://www.w3.org/1999/xlink" class="railroad-diagram" width="1444" height="109" viewBox="0 0 1444 109">
<defs>
<style type="text/css"><![CDATA[
path {
stroke-width: 3;
stroke: black;
fill: rgba(0,0,0,0);
}
text {
font: bold 14px monospace;
text-anchor: middle;
}
text.diagram-text {
font-size: 12px;
}
a {
fill: blue;
}
text.diagram-arrow {
font-size: 16px;
}
text.label {
text-anchor: start;
}
text.comment {
font: italic 12px monospace;
}
rect {
stroke-width: 3;
stroke: black;
fill: #BCBCBC;
}
path.diagram-text {
stroke-width: 3;
stroke: black;
fill: #BCBCBC;
cursor: help;
}
]]></style>
</defs>
<g transform="translate(.5 .5)">
<path d="M 20 38 v 20 m 10 -20 v 20 m -10 -10 h 20.5"></path>
<path d="M40 48h10"></path>
<g>
<path d="M50 48h0"></path>
<path d="M1394 48h0"></path>
<g class="terminal">
<path d="M50 48h0"></path>
<path d="M142 48h0"></path>
<rect x="50" y="37" width="92" height="22" rx="10" ry="10"></rect>
<text x="96" y="52">"PERFORM"</text>
</g>
<path d="M142 48h10"></path>
<g>
<path d="M152 48h0"></path>
<path d="M284 48h0"></path>
<path d="M152 48h20"></path>
<g class="non-terminal">
<path d="M172 48h0"></path>
<path d="M264 48h0"></path>
<rect x="172" y="37" width="92" height="22"></rect>
<a xlink:href="reuse_form_name.svg"><text x="218" y="52">form&#95;name</text>
</a>
</g>
<path d="M264 48h20"></path>
<path d="M152 48a10 10 0 0 1 10 10v10a10 10 0 0 0 10 10"></path>
<g class="non-terminal">
<path d="M172 78h0"></path>
<path d="M248 78h16"></path>
<rect x="172" y="67" width="76" height="22"></rect>
<a xlink:href="reuse_dynamic.svg"><text x="210" y="82">dynamic</text>
</a>
</g>
<path d="M264 78a10 10 0 0 0 10 -10v-10a10 10 0 0 1 10 -10"></path>
</g>
<g>
<path d="M284 48h0"></path>
<path d="M550 48h0"></path>
<path d="M284 48a10 10 0 0 0 10 -10v-8a10 10 0 0 1 10 -10"></path>
<g>
<path d="M304 20h226"></path>
</g>
<path d="M530 20a10 10 0 0 1 10 10v8a10 10 0 0 0 10 10"></path>
<path d="M284 48h20"></path>
<g>
<path d="M304 48h0"></path>
<path d="M530 48h0"></path>
<g class="terminal">
<path d="M304 48h0"></path>
<path d="M420 48h0"></path>
<rect x="304" y="37" width="116" height="22" rx="10" ry="10"></rect>
<text x="362" y="52">"IN PROGRAM"</text>
</g>
<path d="M420 48h10"></path>
<g>
<path d="M430 48h0"></path>
<path d="M530 48h0"></path>
<path d="M430 48a10 10 0 0 0 10 -10v0a10 10 0 0 1 10 -10"></path>
<g>
<path d="M450 28h60"></path>
</g>
<path d="M510 28a10 10 0 0 1 10 10v0a10 10 0 0 0 10 10"></path>
<path d="M430 48h20"></path>
<g class="non-terminal">
<path d="M450 48h0"></path>
<path d="M510 48h0"></path>
<rect x="450" y="37" width="60" height="22"></rect>
<a xlink:href="reuse_field.svg"><text x="480" y="52">field</text>
</a>
</g>
<path d="M510 48h20"></path>
</g>
</g>
<path d="M530 48h20"></path>
</g>
<g>
<path d="M550 48h0"></path>
<path d="M690 48h0"></path>
<path d="M550 48a10 10 0 0 0 10 -10v0a10 10 0 0 1 10 -10"></path>
<g>
<path d="M570 28h100"></path>
</g>
<path d="M670 28a10 10 0 0 1 10 10v0a10 10 0 0 0 10 10"></path>
<path d="M550 48h20"></path>
<g class="terminal">
<path d="M570 48h0"></path>
<path d="M670 48h0"></path>
<rect x="570" y="37" width="100" height="22" rx="10" ry="10"></rect>
<text x="620" y="52">"IF FOUND"</text>
</g>
<path d="M670 48h20"></path>
</g>
<g>
<path d="M690 48h0"></path>
<path d="M922 48h0"></path>
<path d="M690 48a10 10 0 0 0 10 -10v0a10 10 0 0 1 10 -10"></path>
<g>
<path d="M710 28h192"></path>
</g>
<path d="M902 28a10 10 0 0 1 10 10v0a10 10 0 0 0 10 10"></path>
<path d="M690 48h20"></path>
<g>
<path d="M710 48h0"></path>
<path d="M902 48h0"></path>
<g class="terminal">
<path d="M710 48h0"></path>
<path d="M794 48h0"></path>
<rect x="710" y="37" width="84" height="22" rx="10" ry="10"></rect>
<text x="752" y="52">"TABLES"</text>
</g>
<path d="M794 48h10"></path>
<path d="M804 48h10"></path>
<g>
<path d="M814 48h0"></path>
<path d="M902 48h0"></path>
<path d="M814 48h10"></path>
<g class="non-terminal">
<path d="M824 48h0"></path>
<path d="M892 48h0"></path>
<rect x="824" y="37" width="68" height="22"></rect>
<a xlink:href="reuse_source.svg"><text x="858" y="52">source</text>
</a>
</g>
<path d="M892 48h10"></path>
<path d="M824 48a10 10 0 0 0 -10 10v0a10 10 0 0 0 10 10"></path>
<g>
<path d="M824 68h68"></path>
</g>
<path d="M892 68a10 10 0 0 0 10 -10v0a10 10 0 0 0 -10 -10"></path>
</g>
</g>
<path d="M902 48h20"></path>
</g>
<g>
<path d="M922 48h0"></path>
<path d="M1146 48h0"></path>
<path d="M922 48a10 10 0 0 0 10 -10v0a10 10 0 0 1 10 -10"></path>
<g>
<path d="M942 28h184"></path>
</g>
<path d="M1126 28a10 10 0 0 1 10 10v0a10 10 0 0 0 10 10"></path>
<path d="M922 48h20"></path>
<g>
<path d="M942 48h0"></path>
<path d="M1126 48h0"></path>
<g class="terminal">
<path d="M942 48h0"></path>
<path d="M1018 48h0"></path>
<rect x="942" y="37" width="76" height="22" rx="10" ry="10"></rect>
<text x="980" y="52">"USING"</text>
</g>
<path d="M1018 48h10"></path>
<path d="M1028 48h10"></path>
<g>
<path d="M1038 48h0"></path>
<path d="M1126 48h0"></path>
<path d="M1038 48h10"></path>
<g class="non-terminal">
<path d="M1048 48h0"></path>
<path d="M1116 48h0"></path>
<rect x="1048" y="37" width="68" height="22"></rect>
<a xlink:href="reuse_source.svg"><text x="1082" y="52">source</text>
</a>
</g>
<path d="M1116 48h10"></path>
<path d="M1048 48a10 10 0 0 0 -10 10v0a10 10 0 0 0 10 10"></path>
<g>
<path d="M1048 68h68"></path>
</g>
<path d="M1116 68a10 10 0 0 0 10 -10v0a10 10 0 0 0 -10 -10"></path>
</g>
</g>
<path d="M1126 48h20"></path>
</g>
<g>
<path d="M1146 48h0"></path>
<path d="M1394 48h0"></path>
<path d="M1146 48a10 10 0 0 0 10 -10v0a10 10 0 0 1 10 -10"></path>
<g>
<path d="M1166 28h208"></path>
</g>
<path d="M1374 28a10 10 0 0 1 10 10v0a10 10 0 0 0 10 10"></path>
<path d="M1146 48h20"></path>
<g>
<path d="M1166 48h0"></path>
<path d="M1374 48h0"></path>
<g class="terminal">
<path d="M1166 48h0"></path>
<path d="M1266 48h0"></path>
<rect x="1166" y="37" width="100" height="22" rx="10" ry="10"></rect>
<text x="1216" y="52">"CHANGING"</text>
</g>
<path d="M1266 48h10"></path>
<path d="M1276 48h10"></path>
<g>
<path d="M1286 48h0"></path>
<path d="M1374 48h0"></path>
<path d="M1286 48h10"></path>
<g class="non-terminal">
<path d="M1296 48h0"></path>
<path d="M1364 48h0"></path>
<rect x="1296" y="37" width="68" height="22"></rect>
<a xlink:href="reuse_source.svg"><text x="1330" y="52">source</text>
</a>
</g>
<path d="M1364 48h10"></path>
<path d="M1296 48a10 10 0 0 0 -10 10v0a10 10 0 0 0 10 10"></path>
<g>
<path d="M1296 68h68"></path>
</g>
<path d="M1364 68a10 10 0 0 0 10 -10v0a10 10 0 0 0 -10 -10"></path>
</g>
</g>
<path d="M1374 48h20"></path>
</g>
</g>
<path d="M1394 48h10"></path>
<path d="M 1404 48 h 20 m -10 -10 v 20 m 10 -20 v 20"></path>
</g>
</svg>
