<?xml version="1.0" encoding="UTF-8" standalone="no"?>
<!DOCTYPE svg PUBLIC "-//W3C//DTD SVG 1.1//EN"
 "http://www.w3.org/Graphics/SVG/1.1/DTD/svg11.dtd">
<!-- Generated by graphviz version 2.38.0 (20140413.2041)
 -->
<!-- Title: perform Pages: 1 -->
<svg width="261pt" height="692pt"
 viewBox="0.00 0.00 260.75 692.00" xmlns="http://www.w3.org/2000/svg" xmlns:xlink="http://www.w3.org/1999/xlink">
<g id="graph0" class="graph" transform="scale(1 1) rotate(0) translate(4 688)">
<title>perform</title>
<polygon fill="white" stroke="none" points="-4,4 -4,-688 256.746,-688 256.746,4 -4,4"/>
<!-- start -->
<g id="node1" class="node"><title>start</title>
<polygon fill="none" stroke="black" points="116.89,-684 62.8901,-684 62.8901,-648 116.89,-648 116.89,-684"/>
<text text-anchor="middle" x="89.8901" y="-661.8" font-family="Times,serif" font-size="14.00">Start</text>
</g>
<!-- node239 -->
<g id="node11" class="node"><title>node239</title>
<ellipse fill="none" stroke="black" cx="89.8901" cy="-594" rx="63.973" ry="18"/>
<text text-anchor="middle" x="89.8901" y="-589.8" font-family="Times,serif" font-size="14.00">&quot;PERFORM&quot;</text>
</g>
<!-- start&#45;&gt;node239 -->
<g id="edge18" class="edge"><title>start&#45;&gt;node239</title>
<path fill="none" stroke="black" d="M89.8901,-647.697C89.8901,-639.983 89.8901,-630.712 89.8901,-622.112"/>
<polygon fill="black" stroke="black" points="93.3902,-622.104 89.8901,-612.104 86.3902,-622.104 93.3902,-622.104"/>
</g>
<!-- end -->
<g id="node2" class="node"><title>end</title>
<polygon fill="none" stroke="black" points="217.89,-36 163.89,-36 163.89,-0 217.89,-0 217.89,-36"/>
<text text-anchor="middle" x="190.89" y="-13.8" font-family="Times,serif" font-size="14.00">End</text>
</g>
<!-- node231 -->
<g id="node3" class="node"><title>node231</title>
<ellipse fill="none" stroke="black" cx="95.8901" cy="-90" rx="42.879" ry="18"/>
<text text-anchor="middle" x="95.8901" y="-85.8" font-family="Times,serif" font-size="14.00">Dummy</text>
</g>
<!-- node231&#45;&gt;end -->
<g id="edge3" class="edge"><title>node231&#45;&gt;end</title>
<path fill="none" stroke="black" d="M116.504,-73.811C128.977,-64.6205 145.137,-52.7126 159.208,-42.3449"/>
<polygon fill="black" stroke="black" points="161.672,-44.8765 167.647,-36.1267 157.52,-39.2411 161.672,-44.8765"/>
</g>
<!-- node232 -->
<g id="node4" class="node"><title>node232</title>
<g id="a_node4"><a xlink:href="reuse_source.svg" xlink:title="&lt;u&gt;source&lt;/u&gt;">
<ellipse fill="none" stroke="black" cx="95.8901" cy="-18" rx="36.4761" ry="18"/>
<text text-anchor="start" x="77.6229" y="-14.8" font-family="Times,serif" text-decoration="underline" font-size="14.00" fill="blue">source</text>
</a>
</g>
</g>
<!-- node231&#45;&gt;node232 -->
<g id="edge2" class="edge"><title>node231&#45;&gt;node232</title>
<path fill="none" stroke="black" d="M90.0119,-72.055C89.1816,-64.2306 88.9444,-54.7484 89.3003,-45.9768"/>
<polygon fill="black" stroke="black" points="92.8065,-46.0131 90.0285,-35.789 85.8244,-45.514 92.8065,-46.0131"/>
</g>
<!-- node232&#45;&gt;node231 -->
<g id="edge1" class="edge"><title>node232&#45;&gt;node231</title>
<path fill="none" stroke="black" d="M101.752,-35.789C102.59,-43.5912 102.835,-53.067 102.487,-61.8479"/>
<polygon fill="black" stroke="black" points="98.9794,-61.8338 101.768,-72.055 105.962,-62.3255 98.9794,-61.8338"/>
</g>
<!-- node233 -->
<g id="node5" class="node"><title>node233</title>
<g id="a_node5"><a xlink:href="reuse_source.svg" xlink:title="&lt;u&gt;source&lt;/u&gt;">
<ellipse fill="none" stroke="black" cx="75.8901" cy="-162" rx="36.4761" ry="18"/>
<text text-anchor="start" x="57.6229" y="-158.8" font-family="Times,serif" text-decoration="underline" font-size="14.00" fill="blue">source</text>
</a>
</g>
</g>
<!-- node233&#45;&gt;node231 -->
<g id="edge5" class="edge"><title>node233&#45;&gt;node231</title>
<path fill="none" stroke="black" d="M80.7316,-144.055C82.9584,-136.261 85.6553,-126.822 88.1533,-118.079"/>
<polygon fill="black" stroke="black" points="91.5724,-118.852 90.9543,-108.275 84.8417,-116.929 91.5724,-118.852"/>
</g>
<!-- node233&#45;&gt;node232 -->
<g id="edge4" class="edge"><title>node233&#45;&gt;node232</title>
<path fill="none" stroke="black" d="M62.9827,-145.09C50.0955,-127.163 33.5794,-97.2314 43.8901,-72 48.9187,-59.6944 58.3342,-48.7025 67.7862,-39.9628"/>
<polygon fill="black" stroke="black" points="70.3645,-42.3603 75.6389,-33.1717 65.7856,-37.0656 70.3645,-42.3603"/>
</g>
<!-- node234 -->
<g id="node6" class="node"><title>node234</title>
<ellipse fill="none" stroke="black" cx="75.8901" cy="-234" rx="48.3237" ry="18"/>
<text text-anchor="middle" x="75.8901" y="-229.8" font-family="Times,serif" font-size="14.00">&quot;USING&quot;</text>
</g>
<!-- node234&#45;&gt;node233 -->
<g id="edge6" class="edge"><title>node234&#45;&gt;node233</title>
<path fill="none" stroke="black" d="M75.8901,-215.697C75.8901,-207.983 75.8901,-198.712 75.8901,-190.112"/>
<polygon fill="black" stroke="black" points="79.3902,-190.104 75.8901,-180.104 72.3902,-190.104 79.3902,-190.104"/>
</g>
<!-- node235 -->
<g id="node7" class="node"><title>node235</title>
<ellipse fill="none" stroke="black" cx="75.8901" cy="-306" rx="63.3318" ry="18"/>
<text text-anchor="middle" x="75.8901" y="-301.8" font-family="Times,serif" font-size="14.00">&quot;IF FOUND&quot;</text>
</g>
<!-- node235&#45;&gt;end -->
<g id="edge8" class="edge"><title>node235&#45;&gt;end</title>
<path fill="none" stroke="black" d="M98.6513,-288.998C110.519,-279.526 124.31,-266.549 132.89,-252 172.491,-184.852 185.186,-91.4716 189.152,-46.0163"/>
<polygon fill="black" stroke="black" points="192.641,-46.2929 189.947,-36.0463 185.663,-45.7365 192.641,-46.2929"/>
</g>
<!-- node235&#45;&gt;node234 -->
<g id="edge7" class="edge"><title>node235&#45;&gt;node234</title>
<path fill="none" stroke="black" d="M75.8901,-287.697C75.8901,-279.983 75.8901,-270.712 75.8901,-262.112"/>
<polygon fill="black" stroke="black" points="79.3902,-262.104 75.8901,-252.104 72.3902,-262.104 79.3902,-262.104"/>
</g>
<!-- node236 -->
<g id="node8" class="node"><title>node236</title>
<g id="a_node8"><a xlink:href="reuse_field.svg" xlink:title="&lt;u&gt;field&lt;/u&gt;">
<ellipse fill="none" stroke="black" cx="158.89" cy="-378" rx="28.9696" ry="18"/>
<text text-anchor="start" x="146.062" y="-374.8" font-family="Times,serif" text-decoration="underline" font-size="14.00" fill="blue">field</text>
</a>
</g>
</g>
<!-- node236&#45;&gt;end -->
<g id="edge11" class="edge"><title>node236&#45;&gt;end</title>
<path fill="none" stroke="black" d="M167.978,-360.514C181.384,-334.608 204.89,-282.423 204.89,-235 204.89,-235 204.89,-235 204.89,-161 204.89,-121.022 199.326,-75.0165 195.214,-46.4708"/>
<polygon fill="black" stroke="black" points="198.654,-45.8115 193.723,-36.4342 191.73,-46.8398 198.654,-45.8115"/>
</g>
<!-- node236&#45;&gt;node234 -->
<g id="edge10" class="edge"><title>node236&#45;&gt;node234</title>
<path fill="none" stroke="black" d="M160.609,-360.004C161.696,-341.104 160.947,-310.304 147.89,-288 139.657,-273.935 126.065,-262.492 112.895,-253.886"/>
<polygon fill="black" stroke="black" points="114.715,-250.896 104.362,-248.641 111.049,-256.859 114.715,-250.896"/>
</g>
<!-- node236&#45;&gt;node235 -->
<g id="edge9" class="edge"><title>node236&#45;&gt;node235</title>
<path fill="none" stroke="black" d="M142.492,-363.17C131.224,-353.667 116.002,-340.83 102.955,-329.826"/>
<polygon fill="black" stroke="black" points="105.068,-327.029 95.1667,-323.257 100.555,-332.38 105.068,-327.029"/>
</g>
<!-- node237 -->
<g id="node9" class="node"><title>node237</title>
<ellipse fill="none" stroke="black" cx="143.89" cy="-450" rx="79.0244" ry="18"/>
<text text-anchor="middle" x="143.89" y="-445.8" font-family="Times,serif" font-size="14.00">&quot;IN PROGRAM&quot;</text>
</g>
<!-- node237&#45;&gt;node236 -->
<g id="edge12" class="edge"><title>node237&#45;&gt;node236</title>
<path fill="none" stroke="black" d="M147.598,-431.697C149.251,-423.983 151.237,-414.712 153.08,-406.112"/>
<polygon fill="black" stroke="black" points="156.552,-406.616 155.225,-396.104 149.707,-405.149 156.552,-406.616"/>
</g>
<!-- node238 -->
<g id="node10" class="node"><title>node238</title>
<g id="a_node10"><a xlink:href="reuse_field.svg" xlink:title="&lt;u&gt;field&lt;/u&gt;">
<ellipse fill="none" stroke="black" cx="89.8901" cy="-522" rx="28.9696" ry="18"/>
<text text-anchor="start" x="77.0619" y="-518.8" font-family="Times,serif" text-decoration="underline" font-size="14.00" fill="blue">field</text>
</a>
</g>
</g>
<!-- node238&#45;&gt;end -->
<g id="edge16" class="edge"><title>node238&#45;&gt;end</title>
<path fill="none" stroke="black" d="M118.165,-518.422C150.57,-513.909 202.923,-501.569 231.89,-468 258.314,-437.378 250.89,-419.447 250.89,-379 250.89,-379 250.89,-379 250.89,-161 250.89,-117.719 226.946,-72.4535 209.31,-44.9827"/>
<polygon fill="black" stroke="black" points="212.052,-42.7845 203.615,-36.3772 206.215,-46.648 212.052,-42.7845"/>
</g>
<!-- node238&#45;&gt;node234 -->
<g id="edge15" class="edge"><title>node238&#45;&gt;node234</title>
<path fill="none" stroke="black" d="M75.3637,-506.374C66.081,-496.317 54.4156,-482.249 46.8901,-468 15.6981,-408.938 13.5471,-390.091 3.89012,-324 1.5768,-308.168 -3.32925,-302.279 3.89012,-288 11.1863,-273.569 24.468,-262.107 37.6553,-253.586"/>
<polygon fill="black" stroke="black" points="39.4855,-256.569 46.2437,-248.41 35.8722,-250.574 39.4855,-256.569"/>
</g>
<!-- node238&#45;&gt;node235 -->
<g id="edge14" class="edge"><title>node238&#45;&gt;node235</title>
<path fill="none" stroke="black" d="M76.8926,-505.94C69.1338,-495.92 60.0115,-482.057 55.8901,-468 42.4472,-422.149 55.6028,-366.367 66.0084,-333.95"/>
<polygon fill="black" stroke="black" points="69.3874,-334.882 69.253,-324.288 62.7515,-332.654 69.3874,-334.882"/>
</g>
<!-- node238&#45;&gt;node237 -->
<g id="edge13" class="edge"><title>node238&#45;&gt;node237</title>
<path fill="none" stroke="black" d="M101.874,-505.465C108.574,-496.78 117.083,-485.75 124.689,-475.891"/>
<polygon fill="black" stroke="black" points="127.468,-478.017 130.805,-467.962 121.926,-473.742 127.468,-478.017"/>
</g>
<!-- node239&#45;&gt;node238 -->
<g id="edge17" class="edge"><title>node239&#45;&gt;node238</title>
<path fill="none" stroke="black" d="M89.8901,-575.697C89.8901,-567.983 89.8901,-558.712 89.8901,-550.112"/>
<polygon fill="black" stroke="black" points="93.3902,-550.104 89.8901,-540.104 86.3902,-550.104 93.3902,-550.104"/>
</g>
</g>
</svg>
