<svg xmlns="http://www.w3.org/2000/svg" xmlns:xlink="http://www.w3.org/1999/xlink" class="railroad-diagram" width="494" height="92" viewBox="0 0 494 92">
<defs>
<style type="text/css"><![CDATA[
path {
stroke-width: 3;
stroke: black;
fill: rgba(0,0,0,0);
}
text {
font: bold 14px monospace;
text-anchor: middle;
}
text.diagram-text {
font-size: 12px;
}
a {
fill: blue;
}
text.diagram-arrow {
font-size: 16px;
}
text.label {
text-anchor: start;
}
text.comment {
font: italic 12px monospace;
}
rect {
stroke-width: 3;
stroke: black;
fill: #BCBCBC;
}
path.diagram-text {
stroke-width: 3;
stroke: black;
fill: #BCBCBC;
cursor: help;
}
]]></style>
</defs>
<g transform="translate(.5 .5)">
<path d="M 20 21 v 20 m 10 -20 v 20 m -10 -10 h 20.5"></path>
<path d="M40 31h10"></path>
<g>
<path d="M50 31h0"></path>
<path d="M444 31h0"></path>
<g class="terminal">
<path d="M50 31h0"></path>
<path d="M190 31h0"></path>
<rect x="50" y="20" width="140" height="22" rx="10" ry="10"></rect>
<text x="120" y="35">"PRINT-CONTROL"</text>
</g>
<path d="M190 31h10"></path>
<g>
<path d="M200 31h0"></path>
<path d="M444 31h0"></path>
<path d="M200 31h20"></path>
<g>
<path d="M220 31h0"></path>
<path d="M424 31h0"></path>
<g class="terminal">
<path d="M220 31h0"></path>
<path d="M336 31h0"></path>
<rect x="220" y="20" width="116" height="22" rx="10" ry="10"></rect>
<text x="278" y="35">"INDEX-LINE"</text>
</g>
<path d="M336 31h10"></path>
<path d="M346 31h10"></path>
<g class="non-terminal">
<path d="M356 31h0"></path>
<path d="M424 31h0"></path>
<rect x="356" y="20" width="68" height="22"></rect>
<a xlink:href="reuse_source.svg"><text x="390" y="35">Source</text>
</a>
</g>
</g>
<path d="M424 31h20"></path>
<path d="M200 31a10 10 0 0 1 10 10v10a10 10 0 0 0 10 10"></path>
<g>
<path d="M220 61h0"></path>
<path d="M408 61h16"></path>
<g class="terminal">
<path d="M220 61h0"></path>
<path d="M320 61h0"></path>
<rect x="220" y="50" width="100" height="22" rx="10" ry="10"></rect>
<text x="270" y="65">"FUNCTION"</text>
</g>
<path d="M320 61h10"></path>
<path d="M330 61h10"></path>
<g class="non-terminal">
<path d="M340 61h0"></path>
<path d="M408 61h0"></path>
<rect x="340" y="50" width="68" height="22"></rect>
<a xlink:href="reuse_source.svg"><text x="374" y="65">Source</text>
</a>
</g>
</g>
<path d="M424 61a10 10 0 0 0 10 -10v-10a10 10 0 0 1 10 -10"></path>
</g>
</g>
<path d="M444 31h10"></path>
<path d="M 454 31 h 20 m -10 -10 v 20 m 10 -20 v 20"></path>
</g>
</svg>
