<?xml version="1.0" encoding="UTF-8" standalone="no"?>
<!DOCTYPE svg PUBLIC "-//W3C//DTD SVG 1.1//EN"
 "http://www.w3.org/Graphics/SVG/1.1/DTD/svg11.dtd">
<!-- Generated by graphviz version 2.38.0 (20140413.2041)
 -->
<!-- Title: private Pages: 1 -->
<svg width="214pt" height="188pt"
 viewBox="0.00 0.00 213.72 188.00" xmlns="http://www.w3.org/2000/svg" xmlns:xlink="http://www.w3.org/1999/xlink">
<g id="graph0" class="graph" transform="scale(1 1) rotate(0) translate(4 184)">
<title>private</title>
<polygon fill="white" stroke="none" points="-4,4 -4,-184 209.717,-184 209.717,4 -4,4"/>
<!-- start -->
<g id="node1" class="node"><title>start</title>
<polygon fill="none" stroke="black" points="129.859,-180 75.8586,-180 75.8586,-144 129.859,-144 129.859,-180"/>
<text text-anchor="middle" x="102.859" y="-157.8" font-family="Times,serif" font-size="14.00">Start</text>
</g>
<!-- node459 -->
<g id="node3" class="node"><title>node459</title>
<ellipse fill="none" stroke="black" cx="102.859" cy="-90" rx="102.717" ry="18"/>
<text text-anchor="middle" x="102.859" y="-85.8" font-family="Times,serif" font-size="14.00">&quot;PRIVATE SECTION&quot;</text>
</g>
<!-- start&#45;&gt;node459 -->
<g id="edge2" class="edge"><title>start&#45;&gt;node459</title>
<path fill="none" stroke="black" d="M102.859,-143.697C102.859,-135.983 102.859,-126.712 102.859,-118.112"/>
<polygon fill="black" stroke="black" points="106.359,-118.104 102.859,-108.104 99.3587,-118.104 106.359,-118.104"/>
</g>
<!-- end -->
<g id="node2" class="node"><title>end</title>
<polygon fill="none" stroke="black" points="129.859,-36 75.8586,-36 75.8586,-0 129.859,-0 129.859,-36"/>
<text text-anchor="middle" x="102.859" y="-13.8" font-family="Times,serif" font-size="14.00">End</text>
</g>
<!-- node459&#45;&gt;end -->
<g id="edge1" class="edge"><title>node459&#45;&gt;end</title>
<path fill="none" stroke="black" d="M102.859,-71.6966C102.859,-63.9827 102.859,-54.7125 102.859,-46.1124"/>
<polygon fill="black" stroke="black" points="106.359,-46.1043 102.859,-36.1043 99.3587,-46.1044 106.359,-46.1043"/>
</g>
</g>
</svg>
