<svg xmlns="http://www.w3.org/2000/svg" xmlns:xlink="http://www.w3.org/1999/xlink" class="railroad-diagram" width="620" height="161" viewBox="0 0 620 161">
<defs>
<style type="text/css"><![CDATA[
path {
stroke-width: 3;
stroke: black;
fill: rgba(0,0,0,0);
}
text {
font: bold 14px monospace;
text-anchor: middle;
}
text.diagram-text {
font-size: 12px;
}
a {
fill: blue;
}
text.diagram-arrow {
font-size: 16px;
}
text.label {
text-anchor: start;
}
text.comment {
font: italic 12px monospace;
}
rect {
stroke-width: 3;
stroke: black;
fill: #BCBCBC;
}
path.diagram-text {
stroke-width: 3;
stroke: black;
fill: #BCBCBC;
cursor: help;
}
]]></style>
</defs>
<g transform="translate(.5 .5)">
<path d="M 20 30 v 20 m 10 -20 v 20 m -10 -10 h 20.5"></path>
<path d="M40 40h10"></path>
<g>
<path d="M50 40h0"></path>
<path d="M570 40h0"></path>
<g class="terminal">
<path d="M50 40h0"></path>
<path d="M142 40h0"></path>
<rect x="50" y="29" width="92" height="22" rx="10" ry="10"></rect>
<text x="96" y="44">"PROGRAM"</text>
</g>
<path d="M142 40h10"></path>
<path d="M152 40h10"></path>
<g class="non-terminal">
<path d="M162 40h0"></path>
<path d="M222 40h0"></path>
<rect x="162" y="29" width="60" height="22"></rect>
<a xlink:href="reuse_field.svg"><text x="192" y="44">Field</text>
</a>
</g>
<path d="M222 40h10"></path>
<g>
<path d="M232 40h0"></path>
<path d="M570 40h0"></path>
<path d="M232 40a10 10 0 0 0 10 -10v0a10 10 0 0 1 10 -10"></path>
<g>
<path d="M252 20h298"></path>
</g>
<path d="M550 20a10 10 0 0 1 10 10v0a10 10 0 0 0 10 10"></path>
<path d="M232 40h20"></path>
<g>
<path d="M252 40h0"></path>
<path d="M550 40h0"></path>
<path d="M282 40h10"></path>
<g>
<path d="M292 40h0"></path>
<path d="M496 40h24"></path>
<g class="terminal">
<path d="M292 40h0"></path>
<path d="M408 40h0"></path>
<rect x="292" y="29" width="116" height="22" rx="10" ry="10"></rect>
<text x="350" y="44">"MESSAGE-ID"</text>
</g>
<path d="M408 40h10"></path>
<path d="M418 40h10"></path>
<g class="non-terminal">
<path d="M428 40h0"></path>
<path d="M496 40h0"></path>
<rect x="428" y="29" width="68" height="22"></rect>
<a xlink:href="reuse_source.svg"><text x="462" y="44">Source</text>
</a>
</g>
</g>
<path d="M520 40h10"></path>
<path d="M282 40v20a10 10 0 0 0 10 10"></path>
<g>
<path d="M292 70h0"></path>
<path d="M488 70h32"></path>
<g class="terminal">
<path d="M292 70h0"></path>
<path d="M400 70h0"></path>
<rect x="292" y="59" width="108" height="22" rx="10" ry="10"></rect>
<text x="346" y="74">"LINE-SIZE"</text>
</g>
<path d="M400 70h10"></path>
<path d="M410 70h10"></path>
<g class="non-terminal">
<path d="M420 70h0"></path>
<path d="M488 70h0"></path>
<rect x="420" y="59" width="68" height="22"></rect>
<a xlink:href="reuse_source.svg"><text x="454" y="74">Source</text>
</a>
</g>
</g>
<path d="M520 70a10 10 0 0 0 10 -10v-20"></path>
<path d="M282 40v50a10 10 0 0 0 10 10"></path>
<g class="terminal">
<path d="M292 100h0"></path>
<path d="M520 100h0"></path>
<rect x="292" y="89" width="228" height="22" rx="10" ry="10"></rect>
<text x="406" y="104">"NO STANDARD PAGE HEADING"</text>
</g>
<path d="M520 100a10 10 0 0 0 10 -10v-50"></path>
<path d="M282 40v80a10 10 0 0 0 10 10"></path>
<g>
<path d="M292 130h0"></path>
<path d="M488 130h32"></path>
<g class="terminal">
<path d="M292 130h0"></path>
<path d="M400 130h0"></path>
<rect x="292" y="119" width="108" height="22" rx="10" ry="10"></rect>
<text x="346" y="134">"LINE-SIZE"</text>
</g>
<path d="M400 130h10"></path>
<path d="M410 130h10"></path>
<g class="non-terminal">
<path d="M420 130h0"></path>
<path d="M488 130h0"></path>
<rect x="420" y="119" width="68" height="22"></rect>
<a xlink:href="reuse_source.svg"><text x="454" y="134">Source</text>
</a>
</g>
</g>
<path d="M520 130a10 10 0 0 0 10 -10v-80"></path>
<g class="diagram-text">
<title>take one or more branches, once each, in any order</title>
<path d="M 282 30 h -26 a 4 4 0 0 0 -4 4 v 12 a 4 4 0 0 0 4 4 h 26 z" class="diagram-text"></path>
<text x="267" y="44" class="diagram-text">1+</text>
<path d="M 530 30 h 16 a 4 4 0 0 1 4 4 v 12 a 4 4 0 0 1 -4 4 h -16 z" class="diagram-text"></path>
<path d="M 537 38 a 4 4 0 1 0 6 -1 m 2.75 -1 h -4 v 4 m 0 -3 h 2" style="stroke-width: 1.75"></path>
</g>
</g>
<path d="M550 40h20"></path>
</g>
</g>
<path d="M570 40h10"></path>
<path d="M 580 40 h 20 m -10 -10 v 20 m 10 -20 v 20"></path>
</g>
</svg>
