<svg xmlns="http://www.w3.org/2000/svg" xmlns:xlink="http://www.w3.org/1999/xlink" class="railroad-diagram" width="640" height="161" viewBox="0 0 640 161">
<defs>
<style type="text/css"><![CDATA[
path {
stroke-width: 3;
stroke: black;
fill: rgba(0,0,0,0);
}
text {
font: bold 14px monospace;
text-anchor: middle;
}
text.diagram-text {
font-size: 12px;
}
a {
fill: blue;
}
text.diagram-arrow {
font-size: 16px;
}
text.label {
text-anchor: start;
}
text.comment {
font: italic 12px monospace;
}
rect {
stroke-width: 3;
stroke: black;
fill: #BCBCBC;
}
path.diagram-text {
stroke-width: 3;
stroke: black;
fill: #BCBCBC;
cursor: help;
}
]]></style>
</defs>
<g transform="translate(.5 .5)">
<path d="M 20 30 v 20 m 10 -20 v 20 m -10 -10 h 20.5"></path>
<path d="M40 40h10"></path>
<g>
<path d="M50 40h0"></path>
<path d="M590 40h0"></path>
<g class="terminal">
<path d="M50 40h0"></path>
<path d="M142 40h0"></path>
<rect x="50" y="29" width="92" height="22" rx="10" ry="10"></rect>
<text x="96" y="44">"PROGRAM"</text>
</g>
<path d="M142 40h10"></path>
<g>
<path d="M152 40h0"></path>
<path d="M252 40h0"></path>
<path d="M152 40a10 10 0 0 0 10 -10v0a10 10 0 0 1 10 -10"></path>
<g>
<path d="M172 20h60"></path>
</g>
<path d="M232 20a10 10 0 0 1 10 10v0a10 10 0 0 0 10 10"></path>
<path d="M152 40h20"></path>
<g class="non-terminal">
<path d="M172 40h0"></path>
<path d="M232 40h0"></path>
<rect x="172" y="29" width="60" height="22"></rect>
<a xlink:href="reuse_field.svg"><text x="202" y="44">Field</text>
</a>
</g>
<path d="M232 40h20"></path>
</g>
<g>
<path d="M252 40h0"></path>
<path d="M590 40h0"></path>
<path d="M252 40a10 10 0 0 0 10 -10v0a10 10 0 0 1 10 -10"></path>
<g>
<path d="M272 20h298"></path>
</g>
<path d="M570 20a10 10 0 0 1 10 10v0a10 10 0 0 0 10 10"></path>
<path d="M252 40h20"></path>
<g>
<path d="M272 40h0"></path>
<path d="M570 40h0"></path>
<path d="M302 40h10"></path>
<g>
<path d="M312 40h0"></path>
<path d="M516 40h24"></path>
<g class="terminal">
<path d="M312 40h0"></path>
<path d="M428 40h0"></path>
<rect x="312" y="29" width="116" height="22" rx="10" ry="10"></rect>
<text x="370" y="44">"MESSAGE-ID"</text>
</g>
<path d="M428 40h10"></path>
<path d="M438 40h10"></path>
<g class="non-terminal">
<path d="M448 40h0"></path>
<path d="M516 40h0"></path>
<rect x="448" y="29" width="68" height="22"></rect>
<a xlink:href="reuse_source.svg"><text x="482" y="44">Source</text>
</a>
</g>
</g>
<path d="M540 40h10"></path>
<path d="M302 40v20a10 10 0 0 0 10 10"></path>
<g>
<path d="M312 70h0"></path>
<path d="M508 70h32"></path>
<g class="terminal">
<path d="M312 70h0"></path>
<path d="M420 70h0"></path>
<rect x="312" y="59" width="108" height="22" rx="10" ry="10"></rect>
<text x="366" y="74">"LINE-SIZE"</text>
</g>
<path d="M420 70h10"></path>
<path d="M430 70h10"></path>
<g class="non-terminal">
<path d="M440 70h0"></path>
<path d="M508 70h0"></path>
<rect x="440" y="59" width="68" height="22"></rect>
<a xlink:href="reuse_source.svg"><text x="474" y="74">Source</text>
</a>
</g>
</g>
<path d="M540 70a10 10 0 0 0 10 -10v-20"></path>
<path d="M302 40v50a10 10 0 0 0 10 10"></path>
<g class="terminal">
<path d="M312 100h0"></path>
<path d="M540 100h0"></path>
<rect x="312" y="89" width="228" height="22" rx="10" ry="10"></rect>
<text x="426" y="104">"NO STANDARD PAGE HEADING"</text>
</g>
<path d="M540 100a10 10 0 0 0 10 -10v-50"></path>
<path d="M302 40v80a10 10 0 0 0 10 10"></path>
<g>
<path d="M312 130h0"></path>
<path d="M508 130h32"></path>
<g class="terminal">
<path d="M312 130h0"></path>
<path d="M420 130h0"></path>
<rect x="312" y="119" width="108" height="22" rx="10" ry="10"></rect>
<text x="366" y="134">"LINE-SIZE"</text>
</g>
<path d="M420 130h10"></path>
<path d="M430 130h10"></path>
<g class="non-terminal">
<path d="M440 130h0"></path>
<path d="M508 130h0"></path>
<rect x="440" y="119" width="68" height="22"></rect>
<a xlink:href="reuse_source.svg"><text x="474" y="134">Source</text>
</a>
</g>
</g>
<path d="M540 130a10 10 0 0 0 10 -10v-80"></path>
<g class="diagram-text">
<title>take one or more branches, once each, in any order</title>
<path d="M 302 30 h -26 a 4 4 0 0 0 -4 4 v 12 a 4 4 0 0 0 4 4 h 26 z" class="diagram-text"></path>
<text x="287" y="44" class="diagram-text">1+</text>
<path d="M 550 30 h 16 a 4 4 0 0 1 4 4 v 12 a 4 4 0 0 1 -4 4 h -16 z" class="diagram-text"></path>
<path d="M 557 38 a 4 4 0 1 0 6 -1 m 2.75 -1 h -4 v 4 m 0 -3 h 2" style="stroke-width: 1.75"></path>
</g>
</g>
<path d="M570 40h20"></path>
</g>
</g>
<path d="M590 40h10"></path>
<path d="M 600 40 h 20 m -10 -10 v 20 m 10 -20 v 20"></path>
</g>
</svg>
