<?xml version="1.0" encoding="UTF-8" standalone="no"?>
<!DOCTYPE svg PUBLIC "-//W3C//DTD SVG 1.1//EN"
 "http://www.w3.org/Graphics/SVG/1.1/DTD/svg11.dtd">
<!-- Generated by graphviz version 2.38.0 (20140413.2041)
 -->
<!-- Title: protected Pages: 1 -->
<svg width="244pt" height="188pt"
 viewBox="0.00 0.00 243.77 188.00" xmlns="http://www.w3.org/2000/svg" xmlns:xlink="http://www.w3.org/1999/xlink">
<g id="graph0" class="graph" transform="scale(1 1) rotate(0) translate(4 184)">
<title>protected</title>
<polygon fill="white" stroke="none" points="-4,4 -4,-184 239.766,-184 239.766,4 -4,4"/>
<!-- start -->
<g id="node1" class="node"><title>start</title>
<polygon fill="none" stroke="black" points="144.883,-180 90.8829,-180 90.8829,-144 144.883,-144 144.883,-180"/>
<text text-anchor="middle" x="117.883" y="-157.8" font-family="Times,serif" font-size="14.00">Start</text>
</g>
<!-- node460 -->
<g id="node3" class="node"><title>node460</title>
<ellipse fill="none" stroke="black" cx="117.883" cy="-90" rx="117.766" ry="18"/>
<text text-anchor="middle" x="117.883" y="-85.8" font-family="Times,serif" font-size="14.00">&quot;PROTECTED SECTION&quot;</text>
</g>
<!-- start&#45;&gt;node460 -->
<g id="edge2" class="edge"><title>start&#45;&gt;node460</title>
<path fill="none" stroke="black" d="M117.883,-143.697C117.883,-135.983 117.883,-126.712 117.883,-118.112"/>
<polygon fill="black" stroke="black" points="121.383,-118.104 117.883,-108.104 114.383,-118.104 121.383,-118.104"/>
</g>
<!-- end -->
<g id="node2" class="node"><title>end</title>
<polygon fill="none" stroke="black" points="144.883,-36 90.8829,-36 90.8829,-0 144.883,-0 144.883,-36"/>
<text text-anchor="middle" x="117.883" y="-13.8" font-family="Times,serif" font-size="14.00">End</text>
</g>
<!-- node460&#45;&gt;end -->
<g id="edge1" class="edge"><title>node460&#45;&gt;end</title>
<path fill="none" stroke="black" d="M117.883,-71.6966C117.883,-63.9827 117.883,-54.7125 117.883,-46.1124"/>
<polygon fill="black" stroke="black" points="121.383,-46.1043 117.883,-36.1043 114.383,-46.1044 121.383,-46.1043"/>
</g>
</g>
</svg>
