<svg xmlns="http://www.w3.org/2000/svg" xmlns:xlink="http://www.w3.org/1999/xlink" class="railroad-diagram" width="614" height="71" viewBox="0 0 614 71">
<defs>
<style type="text/css"><![CDATA[
path {
stroke-width: 3;
stroke: black;
fill: rgba(0,0,0,0);
}
text {
font: bold 14px monospace;
text-anchor: middle;
}
text.diagram-text {
font-size: 12px;
}
a {
fill: blue;
}
text.diagram-arrow {
font-size: 16px;
}
text.label {
text-anchor: start;
}
text.comment {
font: italic 12px monospace;
}
rect {
stroke-width: 3;
stroke: black;
fill: #BCBCBC;
}
path.diagram-text {
stroke-width: 3;
stroke: black;
fill: #BCBCBC;
cursor: help;
}
]]></style>
</defs>
<g transform="translate(.5 .5)">
<path d="M 20 30 v 20 m 10 -20 v 20 m -10 -10 h 20.5"></path>
<path d="M40 40h10"></path>
<g>
<path d="M50 40h0"></path>
<path d="M564 40h0"></path>
<g class="terminal">
<path d="M50 40h0"></path>
<path d="M174 40h0"></path>
<rect x="50" y="29" width="124" height="22" rx="10" ry="10"></rect>
<text x="112" y="44">"RAISE EVENT"</text>
</g>
<path d="M174 40h10"></path>
<path d="M184 40h10"></path>
<g class="non-terminal">
<path d="M194 40h0"></path>
<path d="M254 40h0"></path>
<rect x="194" y="29" width="60" height="22"></rect>
<a xlink:href="reuse_field.svg"><text x="224" y="44">Field</text>
</a>
</g>
<path d="M254 40h10"></path>
<g>
<path d="M264 40h0"></path>
<path d="M564 40h0"></path>
<path d="M264 40a10 10 0 0 0 10 -10v0a10 10 0 0 1 10 -10"></path>
<g>
<path d="M284 20h260"></path>
</g>
<path d="M544 20a10 10 0 0 1 10 10v0a10 10 0 0 0 10 10"></path>
<path d="M264 40h20"></path>
<g>
<path d="M284 40h0"></path>
<path d="M544 40h0"></path>
<g class="terminal">
<path d="M284 40h0"></path>
<path d="M392 40h0"></path>
<rect x="284" y="29" width="108" height="22" rx="10" ry="10"></rect>
<text x="338" y="44">"EXPORTING"</text>
</g>
<path d="M392 40h10"></path>
<path d="M402 40h10"></path>
<g class="non-terminal">
<path d="M412 40h0"></path>
<path d="M544 40h0"></path>
<rect x="412" y="29" width="132" height="22"></rect>
<a xlink:href="reuse_parameterlists.svg"><text x="478" y="44">ParameterListS</text>
</a>
</g>
</g>
<path d="M544 40h20"></path>
</g>
</g>
<path d="M564 40h10"></path>
<path d="M 574 40 h 20 m -10 -10 v 20 m 10 -20 v 20"></path>
</g>
</svg>
