<svg xmlns="http://www.w3.org/2000/svg" xmlns:xlink="http://www.w3.org/1999/xlink" class="railroad-diagram" width="888" height="101" viewBox="0 0 888 101">
<defs>
<style type="text/css"><![CDATA[
path {
stroke-width: 3;
stroke: black;
fill: rgba(0,0,0,0);
}
text {
font: bold 14px monospace;
text-anchor: middle;
}
text.diagram-text {
font-size: 12px;
}
a {
fill: blue;
}
text.diagram-arrow {
font-size: 16px;
}
text.label {
text-anchor: start;
}
text.comment {
font: italic 12px monospace;
}
rect {
stroke-width: 3;
stroke: black;
fill: #BCBCBC;
}
path.diagram-text {
stroke-width: 3;
stroke: black;
fill: #BCBCBC;
cursor: help;
}
]]></style>
</defs>
<g transform="translate(.5 .5)">
<path d="M 20 21 v 20 m 10 -20 v 20 m -10 -10 h 20.5"></path>
<path d="M40 31h10"></path>
<g>
<path d="M50 31h0"></path>
<path d="M838 31h0"></path>
<g class="terminal">
<path d="M50 31h0"></path>
<path d="M126 31h0"></path>
<rect x="50" y="20" width="76" height="22" rx="10" ry="10"></rect>
<text x="88" y="35">"RAISE"</text>
</g>
<path d="M126 31h10"></path>
<g>
<path d="M136 31h0"></path>
<path d="M838 31h0"></path>
<path d="M136 31h20"></path>
<g class="non-terminal">
<path d="M156 31h0"></path>
<path d="M216 31h602"></path>
<rect x="156" y="20" width="60" height="22"></rect>
<a xlink:href="reuse_field.svg"><text x="186" y="35">field</text>
</a>
</g>
<path d="M818 31h20"></path>
<path d="M136 31a10 10 0 0 1 10 10v19a10 10 0 0 0 10 10"></path>
<g>
<path d="M156 70h0"></path>
<path d="M818 70h0"></path>
<g class="terminal">
<path d="M156 70h0"></path>
<path d="M264 70h0"></path>
<rect x="156" y="59" width="108" height="22" rx="10" ry="10"></rect>
<text x="210" y="74">"EXCEPTION"</text>
</g>
<path d="M264 70h10"></path>
<g>
<path d="M274 70h0"></path>
<path d="M382 70h0"></path>
<path d="M274 70a10 10 0 0 0 10 -10v0a10 10 0 0 1 10 -10"></path>
<g>
<path d="M294 50h68"></path>
</g>
<path d="M362 50a10 10 0 0 1 10 10v0a10 10 0 0 0 10 10"></path>
<path d="M274 70h20"></path>
<g class="terminal">
<path d="M294 70h0"></path>
<path d="M362 70h0"></path>
<rect x="294" y="59" width="68" height="22" rx="10" ry="10"></rect>
<text x="328" y="74">"TYPE"</text>
</g>
<path d="M362 70h20"></path>
</g>
<path d="M382 70h10"></path>
<g class="non-terminal">
<path d="M392 70h0"></path>
<path d="M492 70h0"></path>
<rect x="392" y="59" width="100" height="22"></rect>
<a xlink:href="reuse_class_name.svg"><text x="442" y="74">class&#95;name</text>
</a>
</g>
<path d="M492 70h10"></path>
<g>
<path d="M502 70h0"></path>
<path d="M818 70h0"></path>
<path d="M502 70a10 10 0 0 0 10 -10v0a10 10 0 0 1 10 -10"></path>
<g>
<path d="M522 50h276"></path>
</g>
<path d="M798 50a10 10 0 0 1 10 10v0a10 10 0 0 0 10 10"></path>
<path d="M502 70h20"></path>
<g>
<path d="M522 70h0"></path>
<path d="M798 70h0"></path>
<g class="terminal">
<path d="M522 70h0"></path>
<path d="M630 70h0"></path>
<rect x="522" y="59" width="108" height="22" rx="10" ry="10"></rect>
<text x="576" y="74">"EXPORTING"</text>
</g>
<path d="M630 70h10"></path>
<path d="M640 70h10"></path>
<g class="non-terminal">
<path d="M650 70h0"></path>
<path d="M798 70h0"></path>
<rect x="650" y="59" width="148" height="22"></rect>
<a xlink:href="reuse_parameter_list_s.svg"><text x="724" y="74">parameter&#95;list&#95;s</text>
</a>
</g>
</g>
<path d="M798 70h20"></path>
</g>
</g>
<path d="M818 70a10 10 0 0 0 10 -10v-19a10 10 0 0 1 10 -10"></path>
</g>
</g>
<path d="M838 31h10"></path>
<path d="M 848 31 h 20 m -10 -10 v 20 m 10 -20 v 20"></path>
</g>
</svg>
