<svg xmlns="http://www.w3.org/2000/svg" xmlns:xlink="http://www.w3.org/1999/xlink" class="railroad-diagram" width="864" height="101" viewBox="0 0 864 101">
<defs>
<style type="text/css"><![CDATA[
path {
stroke-width: 3;
stroke: black;
fill: rgba(0,0,0,0);
}
text {
font: bold 14px monospace;
text-anchor: middle;
}
text.diagram-text {
font-size: 12px;
}
a {
fill: blue;
}
text.diagram-arrow {
font-size: 16px;
}
text.label {
text-anchor: start;
}
text.comment {
font: italic 12px monospace;
}
rect {
stroke-width: 3;
stroke: black;
fill: #BCBCBC;
}
path.diagram-text {
stroke-width: 3;
stroke: black;
fill: #BCBCBC;
cursor: help;
}
]]></style>
</defs>
<g transform="translate(.5 .5)">
<path d="M 20 21 v 20 m 10 -20 v 20 m -10 -10 h 20.5"></path>
<path d="M40 31h10"></path>
<g>
<path d="M50 31h0"></path>
<path d="M814 31h0"></path>
<g class="terminal">
<path d="M50 31h0"></path>
<path d="M126 31h0"></path>
<rect x="50" y="20" width="76" height="22" rx="10" ry="10"></rect>
<text x="88" y="35">"RAISE"</text>
</g>
<path d="M126 31h10"></path>
<g>
<path d="M136 31h0"></path>
<path d="M814 31h0"></path>
<path d="M136 31h20"></path>
<g class="non-terminal">
<path d="M156 31h0"></path>
<path d="M216 31h578"></path>
<rect x="156" y="20" width="60" height="22"></rect>
<a xlink:href="reuse_field.svg"><text x="186" y="35">Field</text>
</a>
</g>
<path d="M794 31h20"></path>
<path d="M136 31a10 10 0 0 1 10 10v19a10 10 0 0 0 10 10"></path>
<g>
<path d="M156 70h0"></path>
<path d="M794 70h0"></path>
<g class="terminal">
<path d="M156 70h0"></path>
<path d="M264 70h0"></path>
<rect x="156" y="59" width="108" height="22" rx="10" ry="10"></rect>
<text x="210" y="74">"EXCEPTION"</text>
</g>
<path d="M264 70h10"></path>
<g>
<path d="M274 70h0"></path>
<path d="M382 70h0"></path>
<path d="M274 70a10 10 0 0 0 10 -10v0a10 10 0 0 1 10 -10"></path>
<g>
<path d="M294 50h68"></path>
</g>
<path d="M362 50a10 10 0 0 1 10 10v0a10 10 0 0 0 10 10"></path>
<path d="M274 70h20"></path>
<g class="terminal">
<path d="M294 70h0"></path>
<path d="M362 70h0"></path>
<rect x="294" y="59" width="68" height="22" rx="10" ry="10"></rect>
<text x="328" y="74">"TYPE"</text>
</g>
<path d="M362 70h20"></path>
</g>
<path d="M382 70h10"></path>
<g class="non-terminal">
<path d="M392 70h0"></path>
<path d="M484 70h0"></path>
<rect x="392" y="59" width="92" height="22"></rect>
<a xlink:href="reuse_classname.svg"><text x="438" y="74">ClassName</text>
</a>
</g>
<path d="M484 70h10"></path>
<g>
<path d="M494 70h0"></path>
<path d="M794 70h0"></path>
<path d="M494 70a10 10 0 0 0 10 -10v0a10 10 0 0 1 10 -10"></path>
<g>
<path d="M514 50h260"></path>
</g>
<path d="M774 50a10 10 0 0 1 10 10v0a10 10 0 0 0 10 10"></path>
<path d="M494 70h20"></path>
<g>
<path d="M514 70h0"></path>
<path d="M774 70h0"></path>
<g class="terminal">
<path d="M514 70h0"></path>
<path d="M622 70h0"></path>
<rect x="514" y="59" width="108" height="22" rx="10" ry="10"></rect>
<text x="568" y="74">"EXPORTING"</text>
</g>
<path d="M622 70h10"></path>
<path d="M632 70h10"></path>
<g class="non-terminal">
<path d="M642 70h0"></path>
<path d="M774 70h0"></path>
<rect x="642" y="59" width="132" height="22"></rect>
<a xlink:href="reuse_parameterlists.svg"><text x="708" y="74">ParameterListS</text>
</a>
</g>
</g>
<path d="M774 70h20"></path>
</g>
</g>
<path d="M794 70a10 10 0 0 0 10 -10v-19a10 10 0 0 1 10 -10"></path>
</g>
</g>
<path d="M814 31h10"></path>
<path d="M 824 31 h 20 m -10 -10 v 20 m 10 -20 v 20"></path>
</g>
</svg>
