<svg xmlns="http://www.w3.org/2000/svg" xmlns:xlink="http://www.w3.org/1999/xlink" class="railroad-diagram" width="722" height="101" viewBox="0 0 722 101">
<defs>
<style type="text/css"><![CDATA[
path {
stroke-width: 3;
stroke: black;
fill: rgba(0,0,0,0);
}
text {
font: bold 14px monospace;
text-anchor: middle;
}
text.diagram-text {
font-size: 12px;
}
a {
fill: blue;
}
text.diagram-arrow {
font-size: 16px;
}
text.label {
text-anchor: start;
}
text.comment {
font: italic 12px monospace;
}
rect {
stroke-width: 3;
stroke: black;
fill: #BCBCBC;
}
path.diagram-text {
stroke-width: 3;
stroke: black;
fill: #BCBCBC;
cursor: help;
}
]]></style>
</defs>
<g transform="translate(.5 .5)">
<path d="M 20 21 v 20 m 10 -20 v 20 m -10 -10 h 20.5"></path>
<g>
<path d="M40 31h0"></path>
<path d="M682 31h0"></path>
<path d="M40 31h20"></path>
<g>
<path d="M60 31h223"></path>
<path d="M439 31h223"></path>
<g class="terminal">
<path d="M283 31h0"></path>
<path d="M359 31h0"></path>
<rect x="283" y="20" width="76" height="22" rx="10" ry="10"></rect>
<text x="321" y="35">"RAISE"</text>
</g>
<path d="M359 31h10"></path>
<path d="M369 31h10"></path>
<g class="non-terminal">
<path d="M379 31h0"></path>
<path d="M439 31h0"></path>
<rect x="379" y="20" width="60" height="22"></rect>
<a xlink:href="reuse_field.svg"><text x="409" y="35">field</text>
</a>
</g>
</g>
<path d="M662 31h20"></path>
<path d="M40 31a10 10 0 0 1 10 10v19a10 10 0 0 0 10 10"></path>
<g>
<path d="M60 70h0"></path>
<path d="M662 70h0"></path>
<g class="terminal">
<path d="M60 70h0"></path>
<path d="M256 70h0"></path>
<rect x="60" y="59" width="196" height="22" rx="10" ry="10"></rect>
<text x="158" y="74">"RAISE EXCEPTION TYPE"</text>
</g>
<path d="M256 70h10"></path>
<path d="M266 70h10"></path>
<g class="non-terminal">
<path d="M276 70h0"></path>
<path d="M336 70h0"></path>
<rect x="276" y="59" width="60" height="22"></rect>
<a xlink:href="reuse_field.svg"><text x="306" y="74">field</text>
</a>
</g>
<path d="M336 70h10"></path>
<g>
<path d="M346 70h0"></path>
<path d="M662 70h0"></path>
<path d="M346 70a10 10 0 0 0 10 -10v0a10 10 0 0 1 10 -10"></path>
<g>
<path d="M366 50h276"></path>
</g>
<path d="M642 50a10 10 0 0 1 10 10v0a10 10 0 0 0 10 10"></path>
<path d="M346 70h20"></path>
<g>
<path d="M366 70h0"></path>
<path d="M642 70h0"></path>
<g class="terminal">
<path d="M366 70h0"></path>
<path d="M474 70h0"></path>
<rect x="366" y="59" width="108" height="22" rx="10" ry="10"></rect>
<text x="420" y="74">"EXPORTING"</text>
</g>
<path d="M474 70h10"></path>
<path d="M484 70h10"></path>
<g class="non-terminal">
<path d="M494 70h0"></path>
<path d="M642 70h0"></path>
<rect x="494" y="59" width="148" height="22"></rect>
<a xlink:href="reuse_parameter_list_s.svg"><text x="568" y="74">parameter&#95;list&#95;s</text>
</a>
</g>
</g>
<path d="M642 70h20"></path>
</g>
</g>
<path d="M662 70a10 10 0 0 0 10 -10v-19a10 10 0 0 1 10 -10"></path>
</g>
<path d="M 682 31 h 20 m -10 -10 v 20 m 10 -20 v 20"></path>
</g>
</svg>
