<?xml version="1.0" encoding="UTF-8" standalone="no"?>
<!DOCTYPE svg PUBLIC "-//W3C//DTD SVG 1.1//EN"
 "http://www.w3.org/Graphics/SVG/1.1/DTD/svg11.dtd">
<!-- Generated by graphviz version 2.38.0 (20140413.2041)
 -->
<!-- Title: raise Pages: 1 -->
<svg width="378pt" height="404pt"
 viewBox="0.00 0.00 378.22 404.00" xmlns="http://www.w3.org/2000/svg" xmlns:xlink="http://www.w3.org/1999/xlink">
<g id="graph0" class="graph" transform="scale(1 1) rotate(0) translate(4 400)">
<title>raise</title>
<polygon fill="white" stroke="none" points="-4,4 -4,-400 374.22,-400 374.22,4 -4,4"/>
<!-- start -->
<g id="node1" class="node"><title>start</title>
<polygon fill="none" stroke="black" points="170.809,-396 116.809,-396 116.809,-360 170.809,-360 170.809,-396"/>
<text text-anchor="middle" x="143.809" y="-373.8" font-family="Times,serif" font-size="14.00">Start</text>
</g>
<!-- node453 -->
<g id="node4" class="node"><title>node453</title>
<ellipse fill="none" stroke="black" cx="46.8087" cy="-306" rx="46.6182" ry="18"/>
<text text-anchor="middle" x="46.8087" y="-301.8" font-family="Times,serif" font-size="14.00">&quot;RAISE&quot;</text>
</g>
<!-- start&#45;&gt;node453 -->
<g id="edge8" class="edge"><title>start&#45;&gt;node453</title>
<path fill="none" stroke="black" d="M119.831,-359.697C106.637,-350.175 90.1559,-338.281 76.1922,-328.205"/>
<polygon fill="black" stroke="black" points="78.0321,-325.216 67.875,-322.202 73.9358,-330.892 78.0321,-325.216"/>
</g>
<!-- node457 -->
<g id="node8" class="node"><title>node457</title>
<ellipse fill="none" stroke="black" cx="240.809" cy="-306" rx="129.323" ry="18"/>
<text text-anchor="middle" x="240.809" y="-301.8" font-family="Times,serif" font-size="14.00">&quot;RAISE EXCEPTION TYPE&quot;</text>
</g>
<!-- start&#45;&gt;node457 -->
<g id="edge9" class="edge"><title>start&#45;&gt;node457</title>
<path fill="none" stroke="black" d="M167.786,-359.697C180.212,-350.73 195.552,-339.659 208.96,-329.984"/>
<polygon fill="black" stroke="black" points="211.381,-332.553 217.442,-323.863 207.285,-326.877 211.381,-332.553"/>
</g>
<!-- end -->
<g id="node2" class="node"><title>end</title>
<polygon fill="none" stroke="black" points="159.809,-36 105.809,-36 105.809,-0 159.809,-0 159.809,-36"/>
<text text-anchor="middle" x="132.809" y="-13.8" font-family="Times,serif" font-size="14.00">End</text>
</g>
<!-- node452 -->
<g id="node3" class="node"><title>node452</title>
<g id="a_node3"><a xlink:href="reuse_field.svg" xlink:title="&lt;u&gt;field&lt;/u&gt;">
<ellipse fill="none" stroke="black" cx="71.8087" cy="-162" rx="28.9696" ry="18"/>
<text text-anchor="start" x="58.9805" y="-158.8" font-family="Times,serif" text-decoration="underline" font-size="14.00" fill="blue">field</text>
</a>
</g>
</g>
<!-- node452&#45;&gt;end -->
<g id="edge1" class="edge"><title>node452&#45;&gt;end</title>
<path fill="none" stroke="black" d="M78.9256,-144.433C89.3275,-120.219 108.798,-74.8941 121.265,-45.8711"/>
<polygon fill="black" stroke="black" points="124.626,-46.9161 125.357,-36.3465 118.194,-44.1531 124.626,-46.9161"/>
</g>
<!-- node453&#45;&gt;node452 -->
<g id="edge2" class="edge"><title>node453&#45;&gt;node452</title>
<path fill="none" stroke="black" d="M49.8243,-287.871C54.0851,-263.67 61.9125,-219.211 66.986,-190.393"/>
<polygon fill="black" stroke="black" points="70.4955,-190.645 68.7824,-180.189 63.6015,-189.431 70.4955,-190.645"/>
</g>
<!-- node454 -->
<g id="node5" class="node"><title>node454</title>
<g id="a_node5"><a xlink:href="reuse_parameter_list_s.svg" xlink:title="&lt;u&gt;parameter_list_s&lt;/u&gt;">
<ellipse fill="none" stroke="black" cx="235.809" cy="-90" rx="74.713" ry="18"/>
<text text-anchor="start" x="189.548" y="-86.8" font-family="Times,serif" text-decoration="underline" font-size="14.00" fill="blue">parameter_list_s</text>
</a>
</g>
</g>
<!-- node454&#45;&gt;end -->
<g id="edge3" class="edge"><title>node454&#45;&gt;end</title>
<path fill="none" stroke="black" d="M211.92,-72.7646C198.407,-63.5814 181.294,-51.9512 166.443,-41.8586"/>
<polygon fill="black" stroke="black" points="168.243,-38.8501 158.005,-36.1239 164.309,-44.6396 168.243,-38.8501"/>
</g>
<!-- node455 -->
<g id="node6" class="node"><title>node455</title>
<ellipse fill="none" stroke="black" cx="235.809" cy="-162" rx="73.7446" ry="18"/>
<text text-anchor="middle" x="235.809" y="-157.8" font-family="Times,serif" font-size="14.00">&quot;EXPORTING&quot;</text>
</g>
<!-- node455&#45;&gt;node454 -->
<g id="edge4" class="edge"><title>node455&#45;&gt;node454</title>
<path fill="none" stroke="black" d="M235.809,-143.697C235.809,-135.983 235.809,-126.712 235.809,-118.112"/>
<polygon fill="black" stroke="black" points="239.309,-118.104 235.809,-108.104 232.309,-118.104 239.309,-118.104"/>
</g>
<!-- node456 -->
<g id="node7" class="node"><title>node456</title>
<g id="a_node7"><a xlink:href="reuse_field.svg" xlink:title="&lt;u&gt;field&lt;/u&gt;">
<ellipse fill="none" stroke="black" cx="235.809" cy="-234" rx="28.9696" ry="18"/>
<text text-anchor="start" x="222.981" y="-230.8" font-family="Times,serif" text-decoration="underline" font-size="14.00" fill="blue">field</text>
</a>
</g>
</g>
<!-- node456&#45;&gt;end -->
<g id="edge6" class="edge"><title>node456&#45;&gt;end</title>
<path fill="none" stroke="black" d="M211.556,-224.253C192.292,-215.962 166.406,-201.542 152.809,-180 126.898,-138.95 126.81,-80.2002 129.52,-46.1886"/>
<polygon fill="black" stroke="black" points="133.02,-46.352 130.468,-36.0689 126.05,-45.6985 133.02,-46.352"/>
</g>
<!-- node456&#45;&gt;node455 -->
<g id="edge5" class="edge"><title>node456&#45;&gt;node455</title>
<path fill="none" stroke="black" d="M235.809,-215.697C235.809,-207.983 235.809,-198.712 235.809,-190.112"/>
<polygon fill="black" stroke="black" points="239.309,-190.104 235.809,-180.104 232.309,-190.104 239.309,-190.104"/>
</g>
<!-- node457&#45;&gt;node456 -->
<g id="edge7" class="edge"><title>node457&#45;&gt;node456</title>
<path fill="none" stroke="black" d="M239.573,-287.697C239.022,-279.983 238.36,-270.712 237.745,-262.112"/>
<polygon fill="black" stroke="black" points="241.234,-261.83 237.03,-252.104 234.252,-262.328 241.234,-261.83"/>
</g>
</g>
</svg>
