<svg xmlns="http://www.w3.org/2000/svg" xmlns:xlink="http://www.w3.org/1999/xlink" class="railroad-diagram" width="998" height="101" viewBox="0 0 998 101">
<defs>
<style type="text/css"><![CDATA[
path {
stroke-width: 3;
stroke: black;
fill: rgba(0,0,0,0);
}
text {
font: bold 14px monospace;
text-anchor: middle;
}
text.diagram-text {
font-size: 12px;
}
a {
fill: blue;
}
text.diagram-arrow {
font-size: 16px;
}
text.label {
text-anchor: start;
}
text.comment {
font: italic 12px monospace;
}
rect {
stroke-width: 3;
stroke: black;
fill: #BCBCBC;
}
path.diagram-text {
stroke-width: 3;
stroke: black;
fill: #BCBCBC;
cursor: help;
}
]]></style>
</defs>
<g transform="translate(.5 .5)">
<path d="M 20 21 v 20 m 10 -20 v 20 m -10 -10 h 20.5"></path>
<path d="M40 31h10"></path>
<g>
<path d="M50 31h0"></path>
<path d="M948 31h0"></path>
<g class="terminal">
<path d="M50 31h0"></path>
<path d="M126 31h0"></path>
<rect x="50" y="20" width="76" height="22" rx="10" ry="10"></rect>
<text x="88" y="35">"RAISE"</text>
</g>
<path d="M126 31h10"></path>
<g>
<path d="M136 31h0"></path>
<path d="M948 31h0"></path>
<path d="M136 31h20"></path>
<g class="non-terminal">
<path d="M156 31h0"></path>
<path d="M216 31h712"></path>
<rect x="156" y="20" width="60" height="22"></rect>
<a xlink:href="reuse_field.svg"><text x="186" y="35">Field</text>
</a>
</g>
<path d="M928 31h20"></path>
<path d="M136 31a10 10 0 0 1 10 10v19a10 10 0 0 0 10 10"></path>
<g>
<path d="M156 70h0"></path>
<path d="M928 70h0"></path>
<g>
<path d="M156 70h0"></path>
<path d="M304 70h0"></path>
<path d="M156 70a10 10 0 0 0 10 -10v0a10 10 0 0 1 10 -10"></path>
<g>
<path d="M176 50h108"></path>
</g>
<path d="M284 50a10 10 0 0 1 10 10v0a10 10 0 0 0 10 10"></path>
<path d="M156 70h20"></path>
<g class="terminal">
<path d="M176 70h0"></path>
<path d="M284 70h0"></path>
<rect x="176" y="59" width="108" height="22" rx="10" ry="10"></rect>
<text x="230" y="74">"RESUMABLE"</text>
</g>
<path d="M284 70h20"></path>
</g>
<path d="M304 70h10"></path>
<g class="terminal">
<path d="M314 70h0"></path>
<path d="M422 70h0"></path>
<rect x="314" y="59" width="108" height="22" rx="10" ry="10"></rect>
<text x="368" y="74">"EXCEPTION"</text>
</g>
<path d="M422 70h10"></path>
<g>
<path d="M432 70h0"></path>
<path d="M540 70h0"></path>
<path d="M432 70a10 10 0 0 0 10 -10v0a10 10 0 0 1 10 -10"></path>
<g>
<path d="M452 50h68"></path>
</g>
<path d="M520 50a10 10 0 0 1 10 10v0a10 10 0 0 0 10 10"></path>
<path d="M432 70h20"></path>
<g class="terminal">
<path d="M452 70h0"></path>
<path d="M520 70h0"></path>
<rect x="452" y="59" width="68" height="22" rx="10" ry="10"></rect>
<text x="486" y="74">"TYPE"</text>
</g>
<path d="M520 70h20"></path>
</g>
<path d="M540 70h10"></path>
<g class="non-terminal">
<path d="M550 70h0"></path>
<path d="M618 70h0"></path>
<rect x="550" y="59" width="68" height="22"></rect>
<a xlink:href="reuse_source.svg"><text x="584" y="74">Source</text>
</a>
</g>
<path d="M618 70h10"></path>
<g>
<path d="M628 70h0"></path>
<path d="M928 70h0"></path>
<path d="M628 70a10 10 0 0 0 10 -10v0a10 10 0 0 1 10 -10"></path>
<g>
<path d="M648 50h260"></path>
</g>
<path d="M908 50a10 10 0 0 1 10 10v0a10 10 0 0 0 10 10"></path>
<path d="M628 70h20"></path>
<g>
<path d="M648 70h0"></path>
<path d="M908 70h0"></path>
<g class="terminal">
<path d="M648 70h0"></path>
<path d="M756 70h0"></path>
<rect x="648" y="59" width="108" height="22" rx="10" ry="10"></rect>
<text x="702" y="74">"EXPORTING"</text>
</g>
<path d="M756 70h10"></path>
<path d="M766 70h10"></path>
<g class="non-terminal">
<path d="M776 70h0"></path>
<path d="M908 70h0"></path>
<rect x="776" y="59" width="132" height="22"></rect>
<a xlink:href="reuse_parameterlists.svg"><text x="842" y="74">ParameterListS</text>
</a>
</g>
</g>
<path d="M908 70h20"></path>
</g>
</g>
<path d="M928 70a10 10 0 0 0 10 -10v-19a10 10 0 0 1 10 -10"></path>
</g>
</g>
<path d="M948 31h10"></path>
<path d="M 958 31 h 20 m -10 -10 v 20 m 10 -20 v 20"></path>
</g>
</svg>
