<svg xmlns="http://www.w3.org/2000/svg" xmlns:xlink="http://www.w3.org/1999/xlink" class="railroad-diagram" width="830" height="101" viewBox="0 0 830 101">
<defs>
<style type="text/css"><![CDATA[
path {
stroke-width: 3;
stroke: black;
fill: rgba(0,0,0,0);
}
text {
font: bold 14px monospace;
text-anchor: middle;
}
text.diagram-text {
font-size: 12px;
}
a {
fill: blue;
}
text.diagram-arrow {
font-size: 16px;
}
text.label {
text-anchor: start;
}
text.comment {
font: italic 12px monospace;
}
rect {
stroke-width: 3;
stroke: black;
fill: #BCBCBC;
}
path.diagram-text {
stroke-width: 3;
stroke: black;
fill: #BCBCBC;
cursor: help;
}
]]></style>
</defs>
<g transform="translate(.5 .5)">
<path d="M 20 21 v 20 m 10 -20 v 20 m -10 -10 h 20.5"></path>
<g>
<path d="M40 31h0"></path>
<path d="M790 31h0"></path>
<path d="M40 31h20"></path>
<g>
<path d="M60 31h0"></path>
<path d="M216 31h554"></path>
<g class="terminal">
<path d="M60 31h0"></path>
<path d="M136 31h0"></path>
<rect x="60" y="20" width="76" height="22" rx="10" ry="10"></rect>
<text x="98" y="35">"RAISE"</text>
</g>
<path d="M136 31h10"></path>
<path d="M146 31h10"></path>
<g class="non-terminal">
<path d="M156 31h0"></path>
<path d="M216 31h0"></path>
<rect x="156" y="20" width="60" height="22"></rect>
<a xlink:href="reuse_field.svg"><text x="186" y="35">field</text>
</a>
</g>
</g>
<path d="M770 31h20"></path>
<path d="M40 31a10 10 0 0 1 10 10v19a10 10 0 0 0 10 10"></path>
<g>
<path d="M60 70h0"></path>
<path d="M770 70h0"></path>
<g class="terminal">
<path d="M60 70h0"></path>
<path d="M216 70h0"></path>
<rect x="60" y="59" width="156" height="22" rx="10" ry="10"></rect>
<text x="138" y="74">"RAISE EXCEPTION"</text>
</g>
<path d="M216 70h10"></path>
<g>
<path d="M226 70h0"></path>
<path d="M334 70h0"></path>
<path d="M226 70a10 10 0 0 0 10 -10v0a10 10 0 0 1 10 -10"></path>
<g>
<path d="M246 50h68"></path>
</g>
<path d="M314 50a10 10 0 0 1 10 10v0a10 10 0 0 0 10 10"></path>
<path d="M226 70h20"></path>
<g class="terminal">
<path d="M246 70h0"></path>
<path d="M314 70h0"></path>
<rect x="246" y="59" width="68" height="22" rx="10" ry="10"></rect>
<text x="280" y="74">"TYPE"</text>
</g>
<path d="M314 70h20"></path>
</g>
<path d="M334 70h10"></path>
<g class="non-terminal">
<path d="M344 70h0"></path>
<path d="M444 70h0"></path>
<rect x="344" y="59" width="100" height="22"></rect>
<a xlink:href="reuse_class_name.svg"><text x="394" y="74">class&#95;name</text>
</a>
</g>
<path d="M444 70h10"></path>
<g>
<path d="M454 70h0"></path>
<path d="M770 70h0"></path>
<path d="M454 70a10 10 0 0 0 10 -10v0a10 10 0 0 1 10 -10"></path>
<g>
<path d="M474 50h276"></path>
</g>
<path d="M750 50a10 10 0 0 1 10 10v0a10 10 0 0 0 10 10"></path>
<path d="M454 70h20"></path>
<g>
<path d="M474 70h0"></path>
<path d="M750 70h0"></path>
<g class="terminal">
<path d="M474 70h0"></path>
<path d="M582 70h0"></path>
<rect x="474" y="59" width="108" height="22" rx="10" ry="10"></rect>
<text x="528" y="74">"EXPORTING"</text>
</g>
<path d="M582 70h10"></path>
<path d="M592 70h10"></path>
<g class="non-terminal">
<path d="M602 70h0"></path>
<path d="M750 70h0"></path>
<rect x="602" y="59" width="148" height="22"></rect>
<a xlink:href="reuse_parameter_list_s.svg"><text x="676" y="74">parameter&#95;list&#95;s</text>
</a>
</g>
</g>
<path d="M750 70h20"></path>
</g>
</g>
<path d="M770 70a10 10 0 0 0 10 -10v-19a10 10 0 0 1 10 -10"></path>
</g>
<path d="M 790 31 h 20 m -10 -10 v 20 m 10 -20 v 20"></path>
</g>
</svg>
