<svg xmlns="http://www.w3.org/2000/svg" xmlns:xlink="http://www.w3.org/1999/xlink" class="railroad-diagram" width="710" height="71" viewBox="0 0 710 71">
<defs>
<style type="text/css"><![CDATA[
path {
stroke-width: 3;
stroke: black;
fill: rgba(0,0,0,0);
}
text {
font: bold 14px monospace;
text-anchor: middle;
}
text.diagram-text {
font-size: 12px;
}
a {
fill: blue;
}
text.diagram-arrow {
font-size: 16px;
}
text.label {
text-anchor: start;
}
text.comment {
font: italic 12px monospace;
}
rect {
stroke-width: 3;
stroke: black;
fill: #BCBCBC;
}
path.diagram-text {
stroke-width: 3;
stroke: black;
fill: #BCBCBC;
cursor: help;
}
]]></style>
</defs>
<g transform="translate(.5 .5)">
<path d="M 20 30 v 20 m 10 -20 v 20 m -10 -10 h 20.5"></path>
<path d="M40 40h10"></path>
<g>
<path d="M50 40h0"></path>
<path d="M660 40h0"></path>
<g class="terminal">
<path d="M50 40h0"></path>
<path d="M134 40h0"></path>
<rect x="50" y="29" width="84" height="22" rx="10" ry="10"></rect>
<text x="92" y="44">"RANGES"</text>
</g>
<path d="M134 40h10"></path>
<path d="M144 40h10"></path>
<g class="non-terminal">
<path d="M154 40h0"></path>
<path d="M254 40h0"></path>
<rect x="154" y="29" width="100" height="22"></rect>
<a xlink:href="reuse_simplename.svg"><text x="204" y="44">SimpleName</text>
</a>
</g>
<path d="M254 40h10"></path>
<path d="M264 40h10"></path>
<g class="terminal">
<path d="M274 40h0"></path>
<path d="M334 40h0"></path>
<rect x="274" y="29" width="60" height="22" rx="10" ry="10"></rect>
<text x="304" y="44">"FOR"</text>
</g>
<path d="M334 40h10"></path>
<path d="M344 40h10"></path>
<g class="non-terminal">
<path d="M354 40h0"></path>
<path d="M438 40h0"></path>
<rect x="354" y="29" width="84" height="22"></rect>
<a xlink:href="reuse_fieldsub.svg"><text x="396" y="44">FieldSub</text>
</a>
</g>
<path d="M438 40h10"></path>
<g>
<path d="M448 40h0"></path>
<path d="M660 40h0"></path>
<path d="M448 40a10 10 0 0 0 10 -10v0a10 10 0 0 1 10 -10"></path>
<g>
<path d="M468 20h172"></path>
</g>
<path d="M640 20a10 10 0 0 1 10 10v0a10 10 0 0 0 10 10"></path>
<path d="M448 40h20"></path>
<g>
<path d="M468 40h0"></path>
<path d="M640 40h0"></path>
<g class="terminal">
<path d="M468 40h0"></path>
<path d="M552 40h0"></path>
<rect x="468" y="29" width="84" height="22" rx="10" ry="10"></rect>
<text x="510" y="44">"OCCURS"</text>
</g>
<path d="M552 40h10"></path>
<path d="M562 40h10"></path>
<g class="non-terminal">
<path d="M572 40h0"></path>
<path d="M640 40h0"></path>
<rect x="572" y="29" width="68" height="22"></rect>
<a xlink:href="reuse_source.svg"><text x="606" y="44">Source</text>
</a>
</g>
</g>
<path d="M640 40h20"></path>
</g>
</g>
<path d="M660 40h10"></path>
<path d="M 670 40 h 20 m -10 -10 v 20 m 10 -20 v 20"></path>
</g>
</svg>
