<?xml version="1.0" encoding="UTF-8" standalone="no"?>
<!DOCTYPE svg PUBLIC "-//W3C//DTD SVG 1.1//EN"
 "http://www.w3.org/Graphics/SVG/1.1/DTD/svg11.dtd">
<!-- Generated by graphviz version 2.38.0 (20140413.2041)
 -->
<!-- Title: readtextpool Pages: 1 -->
<svg width="203pt" height="548pt"
 viewBox="0.00 0.00 202.98 548.00" xmlns="http://www.w3.org/2000/svg" xmlns:xlink="http://www.w3.org/1999/xlink">
<g id="graph0" class="graph" transform="scale(1 1) rotate(0) translate(4 544)">
<title>readtextpool</title>
<polygon fill="white" stroke="none" points="-4,4 -4,-544 198.983,-544 198.983,4 -4,4"/>
<!-- start -->
<g id="node1" class="node"><title>start</title>
<polygon fill="none" stroke="black" points="124.491,-540 70.4913,-540 70.4913,-504 124.491,-504 124.491,-540"/>
<text text-anchor="middle" x="97.4913" y="-517.8" font-family="Times,serif" font-size="14.00">Start</text>
</g>
<!-- node595 -->
<g id="node8" class="node"><title>node595</title>
<ellipse fill="none" stroke="black" cx="97.4913" cy="-450" rx="97.4825" ry="18"/>
<text text-anchor="middle" x="97.4913" y="-445.8" font-family="Times,serif" font-size="14.00">&quot;READ TEXTPOOL&quot;</text>
</g>
<!-- start&#45;&gt;node595 -->
<g id="edge7" class="edge"><title>start&#45;&gt;node595</title>
<path fill="none" stroke="black" d="M97.4913,-503.697C97.4913,-495.983 97.4913,-486.712 97.4913,-478.112"/>
<polygon fill="black" stroke="black" points="100.991,-478.104 97.4913,-468.104 93.9914,-478.104 100.991,-478.104"/>
</g>
<!-- end -->
<g id="node2" class="node"><title>end</title>
<polygon fill="none" stroke="black" points="124.491,-36 70.4913,-36 70.4913,-0 124.491,-0 124.491,-36"/>
<text text-anchor="middle" x="97.4913" y="-13.8" font-family="Times,serif" font-size="14.00">End</text>
</g>
<!-- node590 -->
<g id="node3" class="node"><title>node590</title>
<g id="a_node3"><a xlink:href="reuse_source.svg" xlink:title="&lt;u&gt;source&lt;/u&gt;">
<ellipse fill="none" stroke="black" cx="97.4913" cy="-90" rx="36.4761" ry="18"/>
<text text-anchor="start" x="79.2241" y="-86.8" font-family="Times,serif" text-decoration="underline" font-size="14.00" fill="blue">source</text>
</a>
</g>
</g>
<!-- node590&#45;&gt;end -->
<g id="edge1" class="edge"><title>node590&#45;&gt;end</title>
<path fill="none" stroke="black" d="M97.4913,-71.6966C97.4913,-63.9827 97.4913,-54.7125 97.4913,-46.1124"/>
<polygon fill="black" stroke="black" points="100.991,-46.1043 97.4913,-36.1043 93.9914,-46.1044 100.991,-46.1043"/>
</g>
<!-- node591 -->
<g id="node4" class="node"><title>node591</title>
<ellipse fill="none" stroke="black" cx="97.4913" cy="-162" rx="72.5832" ry="18"/>
<text text-anchor="middle" x="97.4913" y="-157.8" font-family="Times,serif" font-size="14.00">&quot;LANGUAGE&quot;</text>
</g>
<!-- node591&#45;&gt;node590 -->
<g id="edge2" class="edge"><title>node591&#45;&gt;node590</title>
<path fill="none" stroke="black" d="M97.4913,-143.697C97.4913,-135.983 97.4913,-126.712 97.4913,-118.112"/>
<polygon fill="black" stroke="black" points="100.991,-118.104 97.4913,-108.104 93.9914,-118.104 100.991,-118.104"/>
</g>
<!-- node592 -->
<g id="node5" class="node"><title>node592</title>
<g id="a_node5"><a xlink:href="reuse_target.svg" xlink:title="&lt;u&gt;target&lt;/u&gt;">
<ellipse fill="none" stroke="black" cx="97.4913" cy="-234" rx="33.0411" ry="18"/>
<text text-anchor="start" x="81.5558" y="-230.8" font-family="Times,serif" text-decoration="underline" font-size="14.00" fill="blue">target</text>
</a>
</g>
</g>
<!-- node592&#45;&gt;node591 -->
<g id="edge3" class="edge"><title>node592&#45;&gt;node591</title>
<path fill="none" stroke="black" d="M97.4913,-215.697C97.4913,-207.983 97.4913,-198.712 97.4913,-190.112"/>
<polygon fill="black" stroke="black" points="100.991,-190.104 97.4913,-180.104 93.9914,-190.104 100.991,-190.104"/>
</g>
<!-- node593 -->
<g id="node6" class="node"><title>node593</title>
<ellipse fill="none" stroke="black" cx="97.4913" cy="-306" rx="41.9431" ry="18"/>
<text text-anchor="middle" x="97.4913" y="-301.8" font-family="Times,serif" font-size="14.00">&quot;INTO&quot;</text>
</g>
<!-- node593&#45;&gt;node592 -->
<g id="edge4" class="edge"><title>node593&#45;&gt;node592</title>
<path fill="none" stroke="black" d="M97.4913,-287.697C97.4913,-279.983 97.4913,-270.712 97.4913,-262.112"/>
<polygon fill="black" stroke="black" points="100.991,-262.104 97.4913,-252.104 93.9914,-262.104 100.991,-262.104"/>
</g>
<!-- node594 -->
<g id="node7" class="node"><title>node594</title>
<g id="a_node7"><a xlink:href="reuse_source.svg" xlink:title="&lt;u&gt;source&lt;/u&gt;">
<ellipse fill="none" stroke="black" cx="97.4913" cy="-378" rx="36.4761" ry="18"/>
<text text-anchor="start" x="79.2241" y="-374.8" font-family="Times,serif" text-decoration="underline" font-size="14.00" fill="blue">source</text>
</a>
</g>
</g>
<!-- node594&#45;&gt;node593 -->
<g id="edge5" class="edge"><title>node594&#45;&gt;node593</title>
<path fill="none" stroke="black" d="M97.4913,-359.697C97.4913,-351.983 97.4913,-342.712 97.4913,-334.112"/>
<polygon fill="black" stroke="black" points="100.991,-334.104 97.4913,-324.104 93.9914,-334.104 100.991,-334.104"/>
</g>
<!-- node595&#45;&gt;node594 -->
<g id="edge6" class="edge"><title>node595&#45;&gt;node594</title>
<path fill="none" stroke="black" d="M97.4913,-431.697C97.4913,-423.983 97.4913,-414.712 97.4913,-406.112"/>
<polygon fill="black" stroke="black" points="100.991,-406.104 97.4913,-396.104 93.9914,-406.104 100.991,-406.104"/>
</g>
</g>
</svg>
