<svg xmlns="http://www.w3.org/2000/svg" xmlns:xlink="http://www.w3.org/1999/xlink" class="railroad-diagram" width="560" height="62" viewBox="0 0 560 62">
<defs>
<style type="text/css"><![CDATA[
path {
stroke-width: 3;
stroke: black;
fill: rgba(0,0,0,0);
}
text {
font: bold 14px monospace;
text-anchor: middle;
}
text.diagram-text {
font-size: 12px;
}
a {
fill: blue;
}
text.diagram-arrow {
font-size: 16px;
}
text.label {
text-anchor: start;
}
text.comment {
font: italic 12px monospace;
}
rect {
stroke-width: 3;
stroke: black;
fill: #BCBCBC;
}
path.diagram-text {
stroke-width: 3;
stroke: black;
fill: #BCBCBC;
cursor: help;
}
]]></style>
</defs>
<g transform="translate(.5 .5)">
<path d="M 20 21 v 20 m 10 -20 v 20 m -10 -10 h 20.5"></path>
<path d="M40 31h10"></path>
<g>
<path d="M50 31h0"></path>
<path d="M510 31h0"></path>
<g class="terminal">
<path d="M50 31h0"></path>
<path d="M158 31h0"></path>
<rect x="50" y="20" width="108" height="22" rx="10" ry="10"></rect>
<text x="104" y="35">"READ LINE"</text>
</g>
<path d="M158 31h10"></path>
<path d="M168 31h10"></path>
<g class="non-terminal">
<path d="M178 31h0"></path>
<path d="M246 31h0"></path>
<rect x="178" y="20" width="68" height="22"></rect>
<a xlink:href="reuse_source.svg"><text x="212" y="35">source</text>
</a>
</g>
<path d="M246 31h10"></path>
<path d="M256 31h10"></path>
<g class="terminal">
<path d="M266 31h0"></path>
<path d="M422 31h0"></path>
<rect x="266" y="20" width="156" height="22" rx="10" ry="10"></rect>
<text x="344" y="35">"LINE VALUE INTO"</text>
</g>
<path d="M422 31h10"></path>
<path d="M432 31h10"></path>
<g class="non-terminal">
<path d="M442 31h0"></path>
<path d="M510 31h0"></path>
<rect x="442" y="20" width="68" height="22"></rect>
<a xlink:href="reuse_target.svg"><text x="476" y="35">target</text>
</a>
</g>
</g>
<path d="M510 31h10"></path>
<path d="M 520 31 h 20 m -10 -10 v 20 m 10 -20 v 20"></path>
</g>
</svg>
