<svg xmlns="http://www.w3.org/2000/svg" xmlns:xlink="http://www.w3.org/1999/xlink" class="railroad-diagram" width="1194" height="474" viewBox="0 0 1194 474">
<defs>
<style type="text/css"><![CDATA[
path {
stroke-width: 3;
stroke: black;
fill: rgba(0,0,0,0);
}
text {
font: bold 14px monospace;
text-anchor: middle;
}
text.diagram-text {
font-size: 12px;
}
a {
fill: blue;
}
text.diagram-arrow {
font-size: 16px;
}
text.label {
text-anchor: start;
}
text.comment {
font: italic 12px monospace;
}
rect {
stroke-width: 3;
stroke: black;
fill: #BCBCBC;
}
path.diagram-text {
stroke-width: 3;
stroke: black;
fill: #BCBCBC;
cursor: help;
}
]]></style>
</defs>
<g transform="translate(.5 .5)">
<path d="M 20 30 v 20 m 10 -20 v 20 m -10 -10 h 20.5"></path>
<path d="M40 40h10"></path>
<g>
<path d="M50 40h0"></path>
<path d="M1144 40h0"></path>
<g class="terminal">
<path d="M50 40h0"></path>
<path d="M166 40h0"></path>
<rect x="50" y="29" width="116" height="22" rx="10" ry="10"></rect>
<text x="108" y="44">"READ TABLE"</text>
</g>
<path d="M166 40h10"></path>
<path d="M176 40h10"></path>
<g class="non-terminal">
<path d="M186 40h0"></path>
<path d="M254 40h0"></path>
<rect x="186" y="29" width="68" height="22"></rect>
<a xlink:href="reuse_source.svg"><text x="220" y="44">Source</text>
</a>
</g>
<path d="M254 40h10"></path>
<g>
<path d="M264 40h0"></path>
<path d="M1144 40h0"></path>
<path d="M264 40a10 10 0 0 0 10 -10v0a10 10 0 0 1 10 -10"></path>
<g>
<path d="M284 20h840"></path>
</g>
<path d="M1124 20a10 10 0 0 1 10 10v0a10 10 0 0 0 10 10"></path>
<path d="M264 40h20"></path>
<g>
<path d="M284 40h0"></path>
<path d="M1124 40h0"></path>
<path d="M314 40h10"></path>
<g>
<path d="M324 40h0"></path>
<path d="M1094 40h0"></path>
<path d="M324 40h20"></path>
<g>
<path d="M344 40h0"></path>
<path d="M508 40h566"></path>
<g class="terminal">
<path d="M344 40h0"></path>
<path d="M420 40h0"></path>
<rect x="344" y="29" width="76" height="22" rx="10" ry="10"></rect>
<text x="382" y="44">"INDEX"</text>
</g>
<path d="M420 40h10"></path>
<path d="M430 40h10"></path>
<g class="non-terminal">
<path d="M440 40h0"></path>
<path d="M508 40h0"></path>
<rect x="440" y="29" width="68" height="22"></rect>
<a xlink:href="reuse_source.svg"><text x="474" y="44">Source</text>
</a>
</g>
</g>
<path d="M1074 40h20"></path>
<path d="M324 40a10 10 0 0 1 10 10v10a10 10 0 0 0 10 10"></path>
<g>
<path d="M344 70h0"></path>
<path d="M1074 70h0"></path>
<g>
<path d="M344 70h0"></path>
<path d="M532 70h0"></path>
<path d="M344 70h20"></path>
<g class="terminal">
<path d="M364 70h0"></path>
<path d="M464 70h48"></path>
<rect x="364" y="59" width="100" height="22" rx="10" ry="10"></rect>
<text x="414" y="74">"WITH KEY"</text>
</g>
<path d="M512 70h20"></path>
<path d="M344 70a10 10 0 0 1 10 10v10a10 10 0 0 0 10 10"></path>
<g class="terminal">
<path d="M364 100h0"></path>
<path d="M512 100h0"></path>
<rect x="364" y="89" width="148" height="22" rx="10" ry="10"></rect>
<text x="438" y="104">"WITH TABLE KEY"</text>
</g>
<path d="M512 100a10 10 0 0 0 10 -10v-10a10 10 0 0 1 10 -10"></path>
</g>
<g>
<path d="M532 70h0"></path>
<path d="M1074 70h0"></path>
<path d="M532 70h20"></path>
<g>
<path d="M552 70h0"></path>
<path d="M838 70h216"></path>
<path d="M552 70h10"></path>
<g>
<path d="M562 70h0"></path>
<path d="M828 70h0"></path>
<g>
<path d="M562 70h0"></path>
<path d="M686 70h0"></path>
<path d="M562 70h20"></path>
<g class="non-terminal">
<path d="M582 70h0"></path>
<path d="M666 70h0"></path>
<rect x="582" y="59" width="84" height="22"></rect>
<a xlink:href="reuse_fieldsub.svg"><text x="624" y="74">FieldSub</text>
</a>
</g>
<path d="M666 70h20"></path>
<path d="M562 70a10 10 0 0 1 10 10v10a10 10 0 0 0 10 10"></path>
<g class="non-terminal">
<path d="M582 100h0"></path>
<path d="M658 100h8"></path>
<rect x="582" y="89" width="76" height="22"></rect>
<a xlink:href="reuse_dynamic.svg"><text x="620" y="104">Dynamic</text>
</a>
</g>
<path d="M666 100a10 10 0 0 0 10 -10v-10a10 10 0 0 1 10 -10"></path>
</g>
<path d="M686 70h10"></path>
<g class="terminal">
<path d="M696 70h0"></path>
<path d="M740 70h0"></path>
<rect x="696" y="59" width="44" height="22" rx="10" ry="10"></rect>
<text x="718" y="74">"="</text>
</g>
<path d="M740 70h10"></path>
<path d="M750 70h10"></path>
<g class="non-terminal">
<path d="M760 70h0"></path>
<path d="M828 70h0"></path>
<rect x="760" y="59" width="68" height="22"></rect>
<a xlink:href="reuse_source.svg"><text x="794" y="74">Source</text>
</a>
</g>
</g>
<path d="M828 70h10"></path>
<path d="M562 70a10 10 0 0 0 -10 10v29a10 10 0 0 0 10 10"></path>
<g>
<path d="M562 119h266"></path>
</g>
<path d="M828 119a10 10 0 0 0 10 -10v-29a10 10 0 0 0 -10 -10"></path>
</g>
<path d="M1054 70h20"></path>
<path d="M532 70a10 10 0 0 1 10 10v48a10 10 0 0 0 10 10"></path>
<g>
<path d="M552 138h0"></path>
<path d="M1054 138h0"></path>
<g class="non-terminal">
<path d="M552 138h0"></path>
<path d="M612 138h0"></path>
<rect x="552" y="127" width="60" height="22"></rect>
<a xlink:href="reuse_field.svg"><text x="582" y="142">Field</text>
</a>
</g>
<path d="M612 138h10"></path>
<path d="M622 138h10"></path>
<g class="terminal">
<path d="M632 138h0"></path>
<path d="M748 138h0"></path>
<rect x="632" y="127" width="116" height="22" rx="10" ry="10"></rect>
<text x="690" y="142">"COMPONENTS"</text>
</g>
<path d="M748 138h10"></path>
<path d="M758 138h10"></path>
<g>
<path d="M768 138h0"></path>
<path d="M1054 138h0"></path>
<path d="M768 138h10"></path>
<g>
<path d="M778 138h0"></path>
<path d="M1044 138h0"></path>
<g>
<path d="M778 138h0"></path>
<path d="M902 138h0"></path>
<path d="M778 138h20"></path>
<g class="non-terminal">
<path d="M798 138h0"></path>
<path d="M882 138h0"></path>
<rect x="798" y="127" width="84" height="22"></rect>
<a xlink:href="reuse_fieldsub.svg"><text x="840" y="142">FieldSub</text>
</a>
</g>
<path d="M882 138h20"></path>
<path d="M778 138a10 10 0 0 1 10 10v10a10 10 0 0 0 10 10"></path>
<g class="non-terminal">
<path d="M798 168h0"></path>
<path d="M874 168h8"></path>
<rect x="798" y="157" width="76" height="22"></rect>
<a xlink:href="reuse_dynamic.svg"><text x="836" y="172">Dynamic</text>
</a>
</g>
<path d="M882 168a10 10 0 0 0 10 -10v-10a10 10 0 0 1 10 -10"></path>
</g>
<path d="M902 138h10"></path>
<g class="terminal">
<path d="M912 138h0"></path>
<path d="M956 138h0"></path>
<rect x="912" y="127" width="44" height="22" rx="10" ry="10"></rect>
<text x="934" y="142">"="</text>
</g>
<path d="M956 138h10"></path>
<path d="M966 138h10"></path>
<g class="non-terminal">
<path d="M976 138h0"></path>
<path d="M1044 138h0"></path>
<rect x="976" y="127" width="68" height="22"></rect>
<a xlink:href="reuse_source.svg"><text x="1010" y="142">Source</text>
</a>
</g>
</g>
<path d="M1044 138h10"></path>
<path d="M778 138a10 10 0 0 0 -10 10v29a10 10 0 0 0 10 10"></path>
<g>
<path d="M778 187h266"></path>
</g>
<path d="M1044 187a10 10 0 0 0 10 -10v-29a10 10 0 0 0 -10 -10"></path>
</g>
</g>
<path d="M1054 138a10 10 0 0 0 10 -10v-48a10 10 0 0 1 10 -10"></path>
<path d="M532 70a10 10 0 0 1 10 10v125a10 10 0 0 0 10 10"></path>
<g>
<path d="M552 215h0"></path>
<path d="M714 215h340"></path>
<g>
<path d="M552 215h0"></path>
<path d="M636 215h0"></path>
<path d="M552 215a10 10 0 0 0 10 -10v0a10 10 0 0 1 10 -10"></path>
<g>
<path d="M572 195h44"></path>
</g>
<path d="M616 195a10 10 0 0 1 10 10v0a10 10 0 0 0 10 10"></path>
<path d="M552 215h20"></path>
<g class="terminal">
<path d="M572 215h0"></path>
<path d="M616 215h0"></path>
<rect x="572" y="204" width="44" height="22" rx="10" ry="10"></rect>
<text x="594" y="219">"="</text>
</g>
<path d="M616 215h20"></path>
</g>
<path d="M636 215h10"></path>
<g class="non-terminal">
<path d="M646 215h0"></path>
<path d="M714 215h0"></path>
<rect x="646" y="204" width="68" height="22"></rect>
<a xlink:href="reuse_source.svg"><text x="680" y="219">Source</text>
</a>
</g>
</g>
<path d="M1054 215a10 10 0 0 0 10 -10v-125a10 10 0 0 1 10 -10"></path>
</g>
</g>
<path d="M1074 70a10 10 0 0 0 10 -10v-10a10 10 0 0 1 10 -10"></path>
<path d="M324 40a10 10 0 0 1 10 10v185a10 10 0 0 0 10 10"></path>
<g>
<path d="M344 245h0"></path>
<path d="M500 245h574"></path>
<g class="terminal">
<path d="M344 245h0"></path>
<path d="M412 245h0"></path>
<rect x="344" y="234" width="68" height="22" rx="10" ry="10"></rect>
<text x="378" y="249">"FROM"</text>
</g>
<path d="M412 245h10"></path>
<path d="M422 245h10"></path>
<g class="non-terminal">
<path d="M432 245h0"></path>
<path d="M500 245h0"></path>
<rect x="432" y="234" width="68" height="22"></rect>
<a xlink:href="reuse_source.svg"><text x="466" y="249">Source</text>
</a>
</g>
</g>
<path d="M1074 245a10 10 0 0 0 10 -10v-185a10 10 0 0 1 10 -10"></path>
</g>
<path d="M1094 40h10"></path>
<path d="M314 40v225a10 10 0 0 0 10 10"></path>
<g>
<path d="M324 275h0"></path>
<path d="M916 275h178"></path>
<path d="M324 275h20"></path>
<g>
<path d="M344 275h0"></path>
<path d="M540 275h356"></path>
<g class="terminal">
<path d="M344 275h0"></path>
<path d="M452 275h0"></path>
<rect x="344" y="264" width="108" height="22" rx="10" ry="10"></rect>
<text x="398" y="279">"ASSIGNING"</text>
</g>
<path d="M452 275h10"></path>
<path d="M462 275h10"></path>
<g class="non-terminal">
<path d="M472 275h0"></path>
<path d="M540 275h0"></path>
<rect x="472" y="264" width="68" height="22"></rect>
<a xlink:href="reuse_target.svg"><text x="506" y="279">Target</text>
</a>
</g>
</g>
<path d="M896 275h20"></path>
<path d="M324 275a10 10 0 0 1 10 10v19a10 10 0 0 0 10 10"></path>
<g>
<path d="M344 314h0"></path>
<path d="M896 314h0"></path>
<g>
<path d="M344 314h0"></path>
<path d="M492 314h0"></path>
<path d="M344 314a10 10 0 0 0 10 -10v0a10 10 0 0 1 10 -10"></path>
<g>
<path d="M364 294h108"></path>
</g>
<path d="M472 294a10 10 0 0 1 10 10v0a10 10 0 0 0 10 10"></path>
<path d="M344 314h20"></path>
<g class="terminal">
<path d="M364 314h0"></path>
<path d="M472 314h0"></path>
<rect x="364" y="303" width="108" height="22" rx="10" ry="10"></rect>
<text x="418" y="318">"REFERENCE"</text>
</g>
<path d="M472 314h20"></path>
</g>
<path d="M492 314h10"></path>
<g class="terminal">
<path d="M502 314h0"></path>
<path d="M570 314h0"></path>
<rect x="502" y="303" width="68" height="22" rx="10" ry="10"></rect>
<text x="536" y="318">"INTO"</text>
</g>
<path d="M570 314h10"></path>
<path d="M580 314h10"></path>
<g class="non-terminal">
<path d="M590 314h0"></path>
<path d="M658 314h0"></path>
<rect x="590" y="303" width="68" height="22"></rect>
<a xlink:href="reuse_target.svg"><text x="624" y="318">Target</text>
</a>
</g>
<path d="M658 314h10"></path>
<g>
<path d="M668 314h0"></path>
<path d="M896 314h0"></path>
<path d="M668 314a10 10 0 0 0 10 -10v0a10 10 0 0 1 10 -10"></path>
<g>
<path d="M688 294h188"></path>
</g>
<path d="M876 294a10 10 0 0 1 10 10v0a10 10 0 0 0 10 10"></path>
<path d="M668 314h20"></path>
<g>
<path d="M688 314h0"></path>
<path d="M876 314h0"></path>
<g class="terminal">
<path d="M688 314h0"></path>
<path d="M796 314h0"></path>
<rect x="688" y="303" width="108" height="22" rx="10" ry="10"></rect>
<text x="742" y="318">"COMPARING"</text>
</g>
<path d="M796 314h10"></path>
<path d="M806 314h10"></path>
<g class="non-terminal">
<path d="M816 314h0"></path>
<path d="M876 314h0"></path>
<rect x="816" y="303" width="60" height="22"></rect>
<a xlink:href="reuse_field.svg"><text x="846" y="318">Field</text>
</a>
</g>
</g>
<path d="M876 314h20"></path>
</g>
</g>
<path d="M896 314a10 10 0 0 0 10 -10v-19a10 10 0 0 1 10 -10"></path>
<path d="M324 275a10 10 0 0 1 10 10v49a10 10 0 0 0 10 10"></path>
<g class="terminal">
<path d="M344 344h0"></path>
<path d="M556 344h340"></path>
<rect x="344" y="333" width="212" height="22" rx="10" ry="10"></rect>
<text x="450" y="348">"TRANSPORTING NO FIELDS"</text>
</g>
<path d="M896 344a10 10 0 0 0 10 -10v-49a10 10 0 0 1 10 -10"></path>
</g>
<path d="M1094 275a10 10 0 0 0 10 -10v-225"></path>
<path d="M314 40v324a10 10 0 0 0 10 10"></path>
<g class="terminal">
<path d="M324 374h0"></path>
<path d="M416 374h678"></path>
<rect x="324" y="363" width="92" height="22" rx="10" ry="10"></rect>
<text x="370" y="378">"CASTING"</text>
</g>
<path d="M1094 374a10 10 0 0 0 10 -10v-324"></path>
<path d="M314 40v354a10 10 0 0 0 10 10"></path>
<g>
<path d="M324 404h0"></path>
<path d="M556 404h538"></path>
<g class="terminal">
<path d="M324 404h0"></path>
<path d="M456 404h0"></path>
<rect x="324" y="393" width="132" height="22" rx="10" ry="10"></rect>
<text x="390" y="408">"TRANSPORTING"</text>
</g>
<path d="M456 404h10"></path>
<path d="M466 404h10"></path>
<g>
<path d="M476 404h0"></path>
<path d="M556 404h0"></path>
<path d="M476 404h10"></path>
<g class="non-terminal">
<path d="M486 404h0"></path>
<path d="M546 404h0"></path>
<rect x="486" y="393" width="60" height="22"></rect>
<a xlink:href="reuse_field.svg"><text x="516" y="408">Field</text>
</a>
</g>
<path d="M546 404h10"></path>
<path d="M486 404a10 10 0 0 0 -10 10v0a10 10 0 0 0 10 10"></path>
<g>
<path d="M486 424h60"></path>
</g>
<path d="M546 424a10 10 0 0 0 10 -10v0a10 10 0 0 0 -10 -10"></path>
</g>
</g>
<path d="M1094 404a10 10 0 0 0 10 -10v-354"></path>
<path d="M314 40v393a10 10 0 0 0 10 10"></path>
<g class="terminal">
<path d="M324 443h0"></path>
<path d="M464 443h630"></path>
<rect x="324" y="432" width="140" height="22" rx="10" ry="10"></rect>
<text x="394" y="447">"BINARY SEARCH"</text>
</g>
<path d="M1094 443a10 10 0 0 0 10 -10v-393"></path>
<g class="diagram-text">
<title>take one or more branches, once each, in any order</title>
<path d="M 314 30 h -26 a 4 4 0 0 0 -4 4 v 12 a 4 4 0 0 0 4 4 h 26 z" class="diagram-text"></path>
<text x="299" y="44" class="diagram-text">1+</text>
<path d="M 1104 30 h 16 a 4 4 0 0 1 4 4 v 12 a 4 4 0 0 1 -4 4 h -16 z" class="diagram-text"></path>
<path d="M 1111 38 a 4 4 0 1 0 6 -1 m 2.75 -1 h -4 v 4 m 0 -3 h 2" style="stroke-width: 1.75"></path>
</g>
</g>
<path d="M1124 40h20"></path>
</g>
</g>
<path d="M1144 40h10"></path>
<path d="M 1154 40 h 20 m -10 -10 v 20 m 10 -20 v 20"></path>
</g>
</svg>
