<?xml version="1.0" encoding="UTF-8" standalone="no"?>
<!DOCTYPE svg PUBLIC "-//W3C//DTD SVG 1.1//EN"
 "http://www.w3.org/Graphics/SVG/1.1/DTD/svg11.dtd">
<!-- Generated by graphviz version 2.38.0 (20140413.2041)
 -->
<!-- Title: readreport Pages: 1 -->
<svg width="181pt" height="548pt"
 viewBox="0.00 0.00 180.58 548.00" xmlns="http://www.w3.org/2000/svg" xmlns:xlink="http://www.w3.org/1999/xlink">
<g id="graph0" class="graph" transform="scale(1 1) rotate(0) translate(4 544)">
<title>readreport</title>
<polygon fill="white" stroke="none" points="-4,4 -4,-544 176.583,-544 176.583,4 -4,4"/>
<!-- start -->
<g id="node1" class="node"><title>start</title>
<polygon fill="none" stroke="black" points="111.63,-540 57.6302,-540 57.6302,-504 111.63,-504 111.63,-540"/>
<text text-anchor="middle" x="84.6302" y="-517.8" font-family="Times,serif" font-size="14.00">Start</text>
</g>
<!-- node601 -->
<g id="node8" class="node"><title>node601</title>
<ellipse fill="none" stroke="black" cx="84.6302" cy="-450" rx="84.7605" ry="18"/>
<text text-anchor="middle" x="84.6302" y="-445.8" font-family="Times,serif" font-size="14.00">&quot;READ REPORT&quot;</text>
</g>
<!-- start&#45;&gt;node601 -->
<g id="edge8" class="edge"><title>start&#45;&gt;node601</title>
<path fill="none" stroke="black" d="M84.6302,-503.697C84.6302,-495.983 84.6302,-486.712 84.6302,-478.112"/>
<polygon fill="black" stroke="black" points="88.1303,-478.104 84.6302,-468.104 81.1303,-478.104 88.1303,-478.104"/>
</g>
<!-- end -->
<g id="node2" class="node"><title>end</title>
<polygon fill="none" stroke="black" points="108.63,-36 54.6302,-36 54.6302,-0 108.63,-0 108.63,-36"/>
<text text-anchor="middle" x="81.6302" y="-13.8" font-family="Times,serif" font-size="14.00">End</text>
</g>
<!-- node596 -->
<g id="node3" class="node"><title>node596</title>
<g id="a_node3"><a xlink:href="reuse_source.svg" xlink:title="&lt;u&gt;source&lt;/u&gt;">
<ellipse fill="none" stroke="black" cx="116.63" cy="-90" rx="36.4761" ry="18"/>
<text text-anchor="start" x="98.363" y="-86.8" font-family="Times,serif" text-decoration="underline" font-size="14.00" fill="blue">source</text>
</a>
</g>
</g>
<!-- node596&#45;&gt;end -->
<g id="edge1" class="edge"><title>node596&#45;&gt;end</title>
<path fill="none" stroke="black" d="M108.336,-72.411C104.315,-64.3693 99.3876,-54.5148 94.865,-45.4698"/>
<polygon fill="black" stroke="black" points="97.9562,-43.8258 90.3535,-36.4468 91.6952,-46.9563 97.9562,-43.8258"/>
</g>
<!-- node597 -->
<g id="node4" class="node"><title>node597</title>
<ellipse fill="none" stroke="black" cx="123.63" cy="-162" rx="48.9052" ry="18"/>
<text text-anchor="middle" x="123.63" y="-157.8" font-family="Times,serif" font-size="14.00">&quot;STATE&quot;</text>
</g>
<!-- node597&#45;&gt;node596 -->
<g id="edge2" class="edge"><title>node597&#45;&gt;node596</title>
<path fill="none" stroke="black" d="M121.9,-143.697C121.128,-135.983 120.201,-126.712 119.341,-118.112"/>
<polygon fill="black" stroke="black" points="122.818,-117.706 118.341,-108.104 115.853,-118.403 122.818,-117.706"/>
</g>
<!-- node598 -->
<g id="node5" class="node"><title>node598</title>
<g id="a_node5"><a xlink:href="reuse_target.svg" xlink:title="&lt;u&gt;target&lt;/u&gt;">
<ellipse fill="none" stroke="black" cx="84.6302" cy="-234" rx="33.0411" ry="18"/>
<text text-anchor="start" x="68.6947" y="-230.8" font-family="Times,serif" text-decoration="underline" font-size="14.00" fill="blue">target</text>
</a>
</g>
</g>
<!-- node598&#45;&gt;end -->
<g id="edge4" class="edge"><title>node598&#45;&gt;end</title>
<path fill="none" stroke="black" d="M76.9344,-216.22C72.672,-205.991 67.8064,-192.519 65.6302,-180 57.5048,-133.257 67.0667,-78.108 74.5132,-45.9938"/>
<polygon fill="black" stroke="black" points="77.9737,-46.5746 76.9289,-36.0315 71.1709,-44.925 77.9737,-46.5746"/>
</g>
<!-- node598&#45;&gt;node597 -->
<g id="edge3" class="edge"><title>node598&#45;&gt;node597</title>
<path fill="none" stroke="black" d="M93.8726,-216.411C98.4677,-208.163 104.125,-198.009 109.269,-188.777"/>
<polygon fill="black" stroke="black" points="112.374,-190.395 114.183,-179.956 106.259,-186.988 112.374,-190.395"/>
</g>
<!-- node599 -->
<g id="node6" class="node"><title>node599</title>
<ellipse fill="none" stroke="black" cx="84.6302" cy="-306" rx="41.9431" ry="18"/>
<text text-anchor="middle" x="84.6302" y="-301.8" font-family="Times,serif" font-size="14.00">&quot;INTO&quot;</text>
</g>
<!-- node599&#45;&gt;node598 -->
<g id="edge5" class="edge"><title>node599&#45;&gt;node598</title>
<path fill="none" stroke="black" d="M84.6302,-287.697C84.6302,-279.983 84.6302,-270.712 84.6302,-262.112"/>
<polygon fill="black" stroke="black" points="88.1303,-262.104 84.6302,-252.104 81.1303,-262.104 88.1303,-262.104"/>
</g>
<!-- node600 -->
<g id="node7" class="node"><title>node600</title>
<g id="a_node7"><a xlink:href="reuse_source.svg" xlink:title="&lt;u&gt;source&lt;/u&gt;">
<ellipse fill="none" stroke="black" cx="84.6302" cy="-378" rx="36.4761" ry="18"/>
<text text-anchor="start" x="66.363" y="-374.8" font-family="Times,serif" text-decoration="underline" font-size="14.00" fill="blue">source</text>
</a>
</g>
</g>
<!-- node600&#45;&gt;node599 -->
<g id="edge6" class="edge"><title>node600&#45;&gt;node599</title>
<path fill="none" stroke="black" d="M84.6302,-359.697C84.6302,-351.983 84.6302,-342.712 84.6302,-334.112"/>
<polygon fill="black" stroke="black" points="88.1303,-334.104 84.6302,-324.104 81.1303,-334.104 88.1303,-334.104"/>
</g>
<!-- node601&#45;&gt;node600 -->
<g id="edge7" class="edge"><title>node601&#45;&gt;node600</title>
<path fill="none" stroke="black" d="M84.6302,-431.697C84.6302,-423.983 84.6302,-414.712 84.6302,-406.112"/>
<polygon fill="black" stroke="black" points="88.1303,-406.104 84.6302,-396.104 81.1303,-406.104 88.1303,-406.104"/>
</g>
</g>
</svg>
