<svg xmlns="http://www.w3.org/2000/svg" xmlns:xlink="http://www.w3.org/1999/xlink" class="railroad-diagram" width="1262" height="71" viewBox="0 0 1262 71">
<defs>
<style type="text/css"><![CDATA[
path {
stroke-width: 3;
stroke: black;
fill: rgba(0,0,0,0);
}
text {
font: bold 14px monospace;
text-anchor: middle;
}
text.diagram-text {
font-size: 12px;
}
a {
fill: blue;
}
text.diagram-arrow {
font-size: 16px;
}
text.label {
text-anchor: start;
}
text.comment {
font: italic 12px monospace;
}
rect {
stroke-width: 3;
stroke: black;
fill: #BCBCBC;
}
path.diagram-text {
stroke-width: 3;
stroke: black;
fill: #BCBCBC;
cursor: help;
}
]]></style>
</defs>
<g transform="translate(.5 .5)">
<path d="M 20 30 v 20 m 10 -20 v 20 m -10 -10 h 20.5"></path>
<path d="M40 40h10"></path>
<g>
<path d="M50 40h0"></path>
<path d="M1212 40h0"></path>
<g class="terminal">
<path d="M50 40h0"></path>
<path d="M182 40h0"></path>
<rect x="50" y="29" width="132" height="22" rx="10" ry="10"></rect>
<text x="116" y="44">"READ DATASET"</text>
</g>
<path d="M182 40h10"></path>
<path d="M192 40h10"></path>
<g class="non-terminal">
<path d="M202 40h0"></path>
<path d="M270 40h0"></path>
<rect x="202" y="29" width="68" height="22"></rect>
<a xlink:href="reuse_Source.svg"><text x="236" y="44">Source</text>
</a>
</g>
<path d="M270 40h10"></path>
<path d="M280 40h10"></path>
<g class="terminal">
<path d="M290 40h0"></path>
<path d="M358 40h0"></path>
<rect x="290" y="29" width="68" height="22" rx="10" ry="10"></rect>
<text x="324" y="44">"INTO"</text>
</g>
<path d="M358 40h10"></path>
<path d="M368 40h10"></path>
<g class="non-terminal">
<path d="M378 40h0"></path>
<path d="M446 40h0"></path>
<rect x="378" y="29" width="68" height="22"></rect>
<a xlink:href="reuse_Target.svg"><text x="412" y="44">Target</text>
</a>
</g>
<path d="M446 40h10"></path>
<g>
<path d="M456 40h0"></path>
<path d="M732 40h0"></path>
<path d="M456 40a10 10 0 0 0 10 -10v0a10 10 0 0 1 10 -10"></path>
<g>
<path d="M476 20h236"></path>
</g>
<path d="M712 20a10 10 0 0 1 10 10v0a10 10 0 0 0 10 10"></path>
<path d="M456 40h20"></path>
<g>
<path d="M476 40h0"></path>
<path d="M712 40h0"></path>
<g class="terminal">
<path d="M476 40h0"></path>
<path d="M624 40h0"></path>
<rect x="476" y="29" width="148" height="22" rx="10" ry="10"></rect>
<text x="550" y="44">"MAXIMUM LENGTH"</text>
</g>
<path d="M624 40h10"></path>
<path d="M634 40h10"></path>
<g class="non-terminal">
<path d="M644 40h0"></path>
<path d="M712 40h0"></path>
<rect x="644" y="29" width="68" height="22"></rect>
<a xlink:href="reuse_Target.svg"><text x="678" y="44">Target</text>
</a>
</g>
</g>
<path d="M712 40h20"></path>
</g>
<g>
<path d="M732 40h0"></path>
<path d="M1000 40h0"></path>
<path d="M732 40a10 10 0 0 0 10 -10v0a10 10 0 0 1 10 -10"></path>
<g>
<path d="M752 20h228"></path>
</g>
<path d="M980 20a10 10 0 0 1 10 10v0a10 10 0 0 0 10 10"></path>
<path d="M732 40h20"></path>
<g>
<path d="M752 40h0"></path>
<path d="M980 40h0"></path>
<g class="terminal">
<path d="M752 40h0"></path>
<path d="M892 40h0"></path>
<rect x="752" y="29" width="140" height="22" rx="10" ry="10"></rect>
<text x="822" y="44">"ACTUAL LENGTH"</text>
</g>
<path d="M892 40h10"></path>
<path d="M902 40h10"></path>
<g class="non-terminal">
<path d="M912 40h0"></path>
<path d="M980 40h0"></path>
<rect x="912" y="29" width="68" height="22"></rect>
<a xlink:href="reuse_Target.svg"><text x="946" y="44">Target</text>
</a>
</g>
</g>
<path d="M980 40h20"></path>
</g>
<g>
<path d="M1000 40h0"></path>
<path d="M1212 40h0"></path>
<path d="M1000 40a10 10 0 0 0 10 -10v0a10 10 0 0 1 10 -10"></path>
<g>
<path d="M1020 20h172"></path>
</g>
<path d="M1192 20a10 10 0 0 1 10 10v0a10 10 0 0 0 10 10"></path>
<path d="M1000 40h20"></path>
<g>
<path d="M1020 40h0"></path>
<path d="M1192 40h0"></path>
<g class="terminal">
<path d="M1020 40h0"></path>
<path d="M1104 40h0"></path>
<rect x="1020" y="29" width="84" height="22" rx="10" ry="10"></rect>
<text x="1062" y="44">"LENGTH"</text>
</g>
<path d="M1104 40h10"></path>
<path d="M1114 40h10"></path>
<g class="non-terminal">
<path d="M1124 40h0"></path>
<path d="M1192 40h0"></path>
<rect x="1124" y="29" width="68" height="22"></rect>
<a xlink:href="reuse_Target.svg"><text x="1158" y="44">Target</text>
</a>
</g>
</g>
<path d="M1192 40h20"></path>
</g>
</g>
<path d="M1212 40h10"></path>
<path d="M 1222 40 h 20 m -10 -10 v 20 m 10 -20 v 20"></path>
</g>
</svg>
