<svg xmlns="http://www.w3.org/2000/svg" xmlns:xlink="http://www.w3.org/1999/xlink" class="railroad-diagram" width="1004" height="437" viewBox="0 0 1004 437">
<defs>
<style type="text/css"><![CDATA[
path {
stroke-width: 3;
stroke: black;
fill: rgba(0,0,0,0);
}
text {
font: bold 14px monospace;
text-anchor: middle;
}
text.diagram-text {
font-size: 12px;
}
a {
fill: blue;
}
text.diagram-arrow {
font-size: 16px;
}
text.label {
text-anchor: start;
}
text.comment {
font: italic 12px monospace;
}
rect {
stroke-width: 3;
stroke: black;
fill: #BCBCBC;
}
path.diagram-text {
stroke-width: 3;
stroke: black;
fill: #BCBCBC;
cursor: help;
}
]]></style>
</defs>
<g transform="translate(.5 .5)">
<path d="M 20 30 v 20 m 10 -20 v 20 m -10 -10 h 20.5"></path>
<path d="M40 40h10"></path>
<g>
<path d="M50 40h0"></path>
<path d="M954 40h0"></path>
<g class="terminal">
<path d="M50 40h0"></path>
<path d="M166 40h0"></path>
<rect x="50" y="29" width="116" height="22" rx="10" ry="10"></rect>
<text x="108" y="44">"READ TABLE"</text>
</g>
<path d="M166 40h10"></path>
<path d="M176 40h10"></path>
<g class="non-terminal">
<path d="M186 40h0"></path>
<path d="M254 40h0"></path>
<rect x="186" y="29" width="68" height="22"></rect>
<a xlink:href="reuse_source.svg"><text x="220" y="44">Source</text>
</a>
</g>
<path d="M254 40h10"></path>
<g>
<path d="M264 40h0"></path>
<path d="M954 40h0"></path>
<path d="M264 40a10 10 0 0 0 10 -10v0a10 10 0 0 1 10 -10"></path>
<g>
<path d="M284 20h650"></path>
</g>
<path d="M934 20a10 10 0 0 1 10 10v0a10 10 0 0 0 10 10"></path>
<path d="M264 40h20"></path>
<g>
<path d="M284 40h0"></path>
<path d="M934 40h0"></path>
<path d="M314 40h10"></path>
<g>
<path d="M324 40h0"></path>
<path d="M904 40h0"></path>
<path d="M324 40h20"></path>
<g>
<path d="M344 40h0"></path>
<path d="M508 40h376"></path>
<g class="terminal">
<path d="M344 40h0"></path>
<path d="M420 40h0"></path>
<rect x="344" y="29" width="76" height="22" rx="10" ry="10"></rect>
<text x="382" y="44">"INDEX"</text>
</g>
<path d="M420 40h10"></path>
<path d="M430 40h10"></path>
<g class="non-terminal">
<path d="M440 40h0"></path>
<path d="M508 40h0"></path>
<rect x="440" y="29" width="68" height="22"></rect>
<a xlink:href="reuse_source.svg"><text x="474" y="44">Source</text>
</a>
</g>
</g>
<path d="M884 40h20"></path>
<path d="M324 40a10 10 0 0 1 10 10v10a10 10 0 0 0 10 10"></path>
<g>
<path d="M344 70h0"></path>
<path d="M884 70h0"></path>
<g>
<path d="M344 70h0"></path>
<path d="M532 70h0"></path>
<path d="M344 70h20"></path>
<g class="terminal">
<path d="M364 70h0"></path>
<path d="M464 70h48"></path>
<rect x="364" y="59" width="100" height="22" rx="10" ry="10"></rect>
<text x="414" y="74">"WITH KEY"</text>
</g>
<path d="M512 70h20"></path>
<path d="M344 70a10 10 0 0 1 10 10v10a10 10 0 0 0 10 10"></path>
<g class="terminal">
<path d="M364 100h0"></path>
<path d="M512 100h0"></path>
<rect x="364" y="89" width="148" height="22" rx="10" ry="10"></rect>
<text x="438" y="104">"WITH TABLE KEY"</text>
</g>
<path d="M512 100a10 10 0 0 0 10 -10v-10a10 10 0 0 1 10 -10"></path>
</g>
<g>
<path d="M532 70h0"></path>
<path d="M884 70h0"></path>
<path d="M532 70h20"></path>
<g>
<path d="M552 70h0"></path>
<path d="M648 70h216"></path>
<path d="M552 70h10"></path>
<g class="non-terminal">
<path d="M562 70h0"></path>
<path d="M638 70h0"></path>
<rect x="562" y="59" width="76" height="22"></rect>
<a xlink:href="reuse_compare.svg"><text x="600" y="74">Compare</text>
</a>
</g>
<path d="M638 70h10"></path>
<path d="M562 70a10 10 0 0 0 -10 10v0a10 10 0 0 0 10 10"></path>
<g>
<path d="M562 90h76"></path>
</g>
<path d="M638 90a10 10 0 0 0 10 -10v0a10 10 0 0 0 -10 -10"></path>
</g>
<path d="M864 70h20"></path>
<path d="M532 70a10 10 0 0 1 10 10v19a10 10 0 0 0 10 10"></path>
<g>
<path d="M552 109h0"></path>
<path d="M864 109h0"></path>
<g class="non-terminal">
<path d="M552 109h0"></path>
<path d="M612 109h0"></path>
<rect x="552" y="98" width="60" height="22"></rect>
<a xlink:href="reuse_field.svg"><text x="582" y="113">Field</text>
</a>
</g>
<path d="M612 109h10"></path>
<path d="M622 109h10"></path>
<g class="terminal">
<path d="M632 109h0"></path>
<path d="M748 109h0"></path>
<rect x="632" y="98" width="116" height="22" rx="10" ry="10"></rect>
<text x="690" y="113">"COMPONENTS"</text>
</g>
<path d="M748 109h10"></path>
<path d="M758 109h10"></path>
<g>
<path d="M768 109h0"></path>
<path d="M864 109h0"></path>
<path d="M768 109h10"></path>
<g class="non-terminal">
<path d="M778 109h0"></path>
<path d="M854 109h0"></path>
<rect x="778" y="98" width="76" height="22"></rect>
<a xlink:href="reuse_compare.svg"><text x="816" y="113">Compare</text>
</a>
</g>
<path d="M854 109h10"></path>
<path d="M778 109a10 10 0 0 0 -10 10v0a10 10 0 0 0 10 10"></path>
<g>
<path d="M778 129h76"></path>
</g>
<path d="M854 129a10 10 0 0 0 10 -10v0a10 10 0 0 0 -10 -10"></path>
</g>
</g>
<path d="M864 109a10 10 0 0 0 10 -10v-19a10 10 0 0 1 10 -10"></path>
<path d="M532 70a10 10 0 0 1 10 10v58a10 10 0 0 0 10 10"></path>
<g class="non-terminal">
<path d="M552 148h0"></path>
<path d="M636 148h228"></path>
<rect x="552" y="137" width="84" height="22"></rect>
<a xlink:href="reuse_fieldsub.svg"><text x="594" y="152">FieldSub</text>
</a>
</g>
<path d="M864 148a10 10 0 0 0 10 -10v-58a10 10 0 0 1 10 -10"></path>
<path d="M532 70a10 10 0 0 1 10 10v88a10 10 0 0 0 10 10"></path>
<g class="non-terminal">
<path d="M552 178h0"></path>
<path d="M660 178h204"></path>
<rect x="552" y="167" width="108" height="22"></rect>
<a xlink:href="reuse_fieldsymbol.svg"><text x="606" y="182">FieldSymbol</text>
</a>
</g>
<path d="M864 178a10 10 0 0 0 10 -10v-88a10 10 0 0 1 10 -10"></path>
</g>
</g>
<path d="M884 70a10 10 0 0 0 10 -10v-10a10 10 0 0 1 10 -10"></path>
<path d="M324 40a10 10 0 0 1 10 10v148a10 10 0 0 0 10 10"></path>
<g>
<path d="M344 208h0"></path>
<path d="M500 208h384"></path>
<g class="terminal">
<path d="M344 208h0"></path>
<path d="M412 208h0"></path>
<rect x="344" y="197" width="68" height="22" rx="10" ry="10"></rect>
<text x="378" y="212">"FROM"</text>
</g>
<path d="M412 208h10"></path>
<path d="M422 208h10"></path>
<g class="non-terminal">
<path d="M432 208h0"></path>
<path d="M500 208h0"></path>
<rect x="432" y="197" width="68" height="22"></rect>
<a xlink:href="reuse_source.svg"><text x="466" y="212">Source</text>
</a>
</g>
</g>
<path d="M884 208a10 10 0 0 0 10 -10v-148a10 10 0 0 1 10 -10"></path>
</g>
<path d="M904 40h10"></path>
<path d="M314 40v188a10 10 0 0 0 10 10"></path>
<g>
<path d="M324 238h0"></path>
<path d="M678 238h226"></path>
<path d="M324 238h20"></path>
<g>
<path d="M344 238h0"></path>
<path d="M540 238h118"></path>
<g class="terminal">
<path d="M344 238h0"></path>
<path d="M452 238h0"></path>
<rect x="344" y="227" width="108" height="22" rx="10" ry="10"></rect>
<text x="398" y="242">"ASSIGNING"</text>
</g>
<path d="M452 238h10"></path>
<path d="M462 238h10"></path>
<g class="non-terminal">
<path d="M472 238h0"></path>
<path d="M540 238h0"></path>
<rect x="472" y="227" width="68" height="22"></rect>
<a xlink:href="reuse_target.svg"><text x="506" y="242">Target</text>
</a>
</g>
</g>
<path d="M658 238h20"></path>
<path d="M324 238a10 10 0 0 1 10 10v19a10 10 0 0 0 10 10"></path>
<g>
<path d="M344 277h0"></path>
<path d="M658 277h0"></path>
<g>
<path d="M344 277h0"></path>
<path d="M492 277h0"></path>
<path d="M344 277a10 10 0 0 0 10 -10v0a10 10 0 0 1 10 -10"></path>
<g>
<path d="M364 257h108"></path>
</g>
<path d="M472 257a10 10 0 0 1 10 10v0a10 10 0 0 0 10 10"></path>
<path d="M344 277h20"></path>
<g class="terminal">
<path d="M364 277h0"></path>
<path d="M472 277h0"></path>
<rect x="364" y="266" width="108" height="22" rx="10" ry="10"></rect>
<text x="418" y="281">"REFERENCE"</text>
</g>
<path d="M472 277h20"></path>
</g>
<path d="M492 277h10"></path>
<g class="terminal">
<path d="M502 277h0"></path>
<path d="M570 277h0"></path>
<rect x="502" y="266" width="68" height="22" rx="10" ry="10"></rect>
<text x="536" y="281">"INTO"</text>
</g>
<path d="M570 277h10"></path>
<path d="M580 277h10"></path>
<g class="non-terminal">
<path d="M590 277h0"></path>
<path d="M658 277h0"></path>
<rect x="590" y="266" width="68" height="22"></rect>
<a xlink:href="reuse_target.svg"><text x="624" y="281">Target</text>
</a>
</g>
</g>
<path d="M658 277a10 10 0 0 0 10 -10v-19a10 10 0 0 1 10 -10"></path>
<path d="M324 238a10 10 0 0 1 10 10v49a10 10 0 0 0 10 10"></path>
<g class="terminal">
<path d="M344 307h0"></path>
<path d="M556 307h102"></path>
<rect x="344" y="296" width="212" height="22" rx="10" ry="10"></rect>
<text x="450" y="311">"TRANSPORTING NO FIELDS"</text>
</g>
<path d="M658 307a10 10 0 0 0 10 -10v-49a10 10 0 0 1 10 -10"></path>
</g>
<path d="M904 238a10 10 0 0 0 10 -10v-188"></path>
<path d="M314 40v287a10 10 0 0 0 10 10"></path>
<g class="terminal">
<path d="M324 337h0"></path>
<path d="M416 337h488"></path>
<rect x="324" y="326" width="92" height="22" rx="10" ry="10"></rect>
<text x="370" y="341">"CASTING"</text>
</g>
<path d="M904 337a10 10 0 0 0 10 -10v-287"></path>
<path d="M314 40v317a10 10 0 0 0 10 10"></path>
<g>
<path d="M324 367h0"></path>
<path d="M556 367h348"></path>
<g class="terminal">
<path d="M324 367h0"></path>
<path d="M456 367h0"></path>
<rect x="324" y="356" width="132" height="22" rx="10" ry="10"></rect>
<text x="390" y="371">"TRANSPORTING"</text>
</g>
<path d="M456 367h10"></path>
<path d="M466 367h10"></path>
<g>
<path d="M476 367h0"></path>
<path d="M556 367h0"></path>
<path d="M476 367h10"></path>
<g class="non-terminal">
<path d="M486 367h0"></path>
<path d="M546 367h0"></path>
<rect x="486" y="356" width="60" height="22"></rect>
<a xlink:href="reuse_field.svg"><text x="516" y="371">Field</text>
</a>
</g>
<path d="M546 367h10"></path>
<path d="M486 367a10 10 0 0 0 -10 10v0a10 10 0 0 0 10 10"></path>
<g>
<path d="M486 387h60"></path>
</g>
<path d="M546 387a10 10 0 0 0 10 -10v0a10 10 0 0 0 -10 -10"></path>
</g>
</g>
<path d="M904 367a10 10 0 0 0 10 -10v-317"></path>
<path d="M314 40v356a10 10 0 0 0 10 10"></path>
<g class="terminal">
<path d="M324 406h0"></path>
<path d="M464 406h440"></path>
<rect x="324" y="395" width="140" height="22" rx="10" ry="10"></rect>
<text x="394" y="410">"BINARY SEARCH"</text>
</g>
<path d="M904 406a10 10 0 0 0 10 -10v-356"></path>
<g class="diagram-text">
<title>take one or more branches, once each, in any order</title>
<path d="M 314 30 h -26 a 4 4 0 0 0 -4 4 v 12 a 4 4 0 0 0 4 4 h 26 z" class="diagram-text"></path>
<text x="299" y="44" class="diagram-text">1+</text>
<path d="M 914 30 h 16 a 4 4 0 0 1 4 4 v 12 a 4 4 0 0 1 -4 4 h -16 z" class="diagram-text"></path>
<path d="M 921 38 a 4 4 0 1 0 6 -1 m 2.75 -1 h -4 v 4 m 0 -3 h 2" style="stroke-width: 1.75"></path>
</g>
</g>
<path d="M934 40h20"></path>
</g>
</g>
<path d="M954 40h10"></path>
<path d="M 964 40 h 20 m -10 -10 v 20 m 10 -20 v 20"></path>
</g>
</svg>
