<svg xmlns="http://www.w3.org/2000/svg" xmlns:xlink="http://www.w3.org/1999/xlink" class="railroad-diagram" width="1232" height="564" viewBox="0 0 1232 564">
<defs>
<style type="text/css"><![CDATA[
path {
stroke-width: 3;
stroke: black;
fill: rgba(0,0,0,0);
}
text {
font: bold 14px monospace;
text-anchor: middle;
}
text.diagram-text {
font-size: 12px;
}
a {
fill: blue;
}
text.diagram-arrow {
font-size: 16px;
}
text.label {
text-anchor: start;
}
text.comment {
font: italic 12px monospace;
}
rect {
stroke-width: 3;
stroke: black;
fill: #BCBCBC;
}
path.diagram-text {
stroke-width: 3;
stroke: black;
fill: #BCBCBC;
cursor: help;
}
]]></style>
</defs>
<g transform="translate(.5 .5)">
<path d="M 20 30 v 20 m 10 -20 v 20 m -10 -10 h 20.5"></path>
<path d="M40 40h10"></path>
<g>
<path d="M50 40h0"></path>
<path d="M1182 40h0"></path>
<g class="terminal">
<path d="M50 40h0"></path>
<path d="M166 40h0"></path>
<rect x="50" y="29" width="116" height="22" rx="10" ry="10"></rect>
<text x="108" y="44">"READ TABLE"</text>
</g>
<path d="M166 40h10"></path>
<path d="M176 40h10"></path>
<g class="non-terminal">
<path d="M186 40h0"></path>
<path d="M254 40h0"></path>
<rect x="186" y="29" width="68" height="22"></rect>
<a xlink:href="reuse_source.svg"><text x="220" y="44">Source</text>
</a>
</g>
<path d="M254 40h10"></path>
<g>
<path d="M264 40h0"></path>
<path d="M1182 40h0"></path>
<path d="M264 40a10 10 0 0 0 10 -10v0a10 10 0 0 1 10 -10"></path>
<g>
<path d="M284 20h878"></path>
</g>
<path d="M1162 20a10 10 0 0 1 10 10v0a10 10 0 0 0 10 10"></path>
<path d="M264 40h20"></path>
<g>
<path d="M284 40h0"></path>
<path d="M1162 40h0"></path>
<path d="M314 40h10"></path>
<g>
<path d="M324 40h0"></path>
<path d="M1132 40h0"></path>
<path d="M324 40h20"></path>
<g>
<path d="M344 40h0"></path>
<path d="M508 40h604"></path>
<g class="terminal">
<path d="M344 40h0"></path>
<path d="M420 40h0"></path>
<rect x="344" y="29" width="76" height="22" rx="10" ry="10"></rect>
<text x="382" y="44">"INDEX"</text>
</g>
<path d="M420 40h10"></path>
<path d="M430 40h10"></path>
<g class="non-terminal">
<path d="M440 40h0"></path>
<path d="M508 40h0"></path>
<rect x="440" y="29" width="68" height="22"></rect>
<a xlink:href="reuse_source.svg"><text x="474" y="44">Source</text>
</a>
</g>
</g>
<path d="M1112 40h20"></path>
<path d="M324 40a10 10 0 0 1 10 10v10a10 10 0 0 0 10 10"></path>
<g>
<path d="M344 70h0"></path>
<path d="M1112 70h0"></path>
<g>
<path d="M344 70h0"></path>
<path d="M532 70h0"></path>
<path d="M344 70h20"></path>
<g class="terminal">
<path d="M364 70h0"></path>
<path d="M464 70h48"></path>
<rect x="364" y="59" width="100" height="22" rx="10" ry="10"></rect>
<text x="414" y="74">"WITH KEY"</text>
</g>
<path d="M512 70h20"></path>
<path d="M344 70a10 10 0 0 1 10 10v10a10 10 0 0 0 10 10"></path>
<g class="terminal">
<path d="M364 100h0"></path>
<path d="M512 100h0"></path>
<rect x="364" y="89" width="148" height="22" rx="10" ry="10"></rect>
<text x="438" y="104">"WITH TABLE KEY"</text>
</g>
<path d="M512 100a10 10 0 0 0 10 -10v-10a10 10 0 0 1 10 -10"></path>
</g>
<g>
<path d="M532 70h0"></path>
<path d="M1112 70h0"></path>
<path d="M532 70h20"></path>
<g>
<path d="M552 70h0"></path>
<path d="M830 70h262"></path>
<path d="M552 70h10"></path>
<g>
<path d="M562 70h0"></path>
<path d="M820 70h0"></path>
<g>
<path d="M562 70h0"></path>
<path d="M678 70h0"></path>
<path d="M562 70h20"></path>
<g class="non-terminal">
<path d="M582 70h0"></path>
<path d="M650 70h8"></path>
<rect x="582" y="59" width="68" height="22"></rect>
<a xlink:href="reuse_target.svg"><text x="616" y="74">Target</text>
</a>
</g>
<path d="M658 70h20"></path>
<path d="M562 70a10 10 0 0 1 10 10v10a10 10 0 0 0 10 10"></path>
<g class="non-terminal">
<path d="M582 100h0"></path>
<path d="M658 100h0"></path>
<rect x="582" y="89" width="76" height="22"></rect>
<a xlink:href="reuse_dynamic.svg"><text x="620" y="104">Dynamic</text>
</a>
</g>
<path d="M658 100a10 10 0 0 0 10 -10v-10a10 10 0 0 1 10 -10"></path>
</g>
<path d="M678 70h10"></path>
<g class="terminal">
<path d="M688 70h0"></path>
<path d="M732 70h0"></path>
<rect x="688" y="59" width="44" height="22" rx="10" ry="10"></rect>
<text x="710" y="74">"="</text>
</g>
<path d="M732 70h10"></path>
<path d="M742 70h10"></path>
<g class="non-terminal">
<path d="M752 70h0"></path>
<path d="M820 70h0"></path>
<rect x="752" y="59" width="68" height="22"></rect>
<a xlink:href="reuse_source.svg"><text x="786" y="74">Source</text>
</a>
</g>
</g>
<path d="M820 70h10"></path>
<path d="M562 70a10 10 0 0 0 -10 10v29a10 10 0 0 0 10 10"></path>
<g>
<path d="M562 119h258"></path>
</g>
<path d="M820 119a10 10 0 0 0 10 -10v-29a10 10 0 0 0 -10 -10"></path>
</g>
<path d="M1092 70h20"></path>
<path d="M532 70a10 10 0 0 1 10 10v48a10 10 0 0 0 10 10"></path>
<g>
<path d="M552 138h0"></path>
<path d="M1092 138h0"></path>
<g>
<path d="M552 138h0"></path>
<path d="M668 138h0"></path>
<path d="M552 138h20"></path>
<g class="non-terminal">
<path d="M572 138h0"></path>
<path d="M632 138h16"></path>
<rect x="572" y="127" width="60" height="22"></rect>
<a xlink:href="reuse_field.svg"><text x="602" y="142">Field</text>
</a>
</g>
<path d="M648 138h20"></path>
<path d="M552 138a10 10 0 0 1 10 10v10a10 10 0 0 0 10 10"></path>
<g class="non-terminal">
<path d="M572 168h0"></path>
<path d="M648 168h0"></path>
<rect x="572" y="157" width="76" height="22"></rect>
<a xlink:href="reuse_dynamic.svg"><text x="610" y="172">Dynamic</text>
</a>
</g>
<path d="M648 168a10 10 0 0 0 10 -10v-10a10 10 0 0 1 10 -10"></path>
</g>
<path d="M668 138h10"></path>
<g class="terminal">
<path d="M678 138h0"></path>
<path d="M794 138h0"></path>
<rect x="678" y="127" width="116" height="22" rx="10" ry="10"></rect>
<text x="736" y="142">"COMPONENTS"</text>
</g>
<path d="M794 138h10"></path>
<path d="M804 138h10"></path>
<g>
<path d="M814 138h0"></path>
<path d="M1092 138h0"></path>
<path d="M814 138h10"></path>
<g>
<path d="M824 138h0"></path>
<path d="M1082 138h0"></path>
<g>
<path d="M824 138h0"></path>
<path d="M940 138h0"></path>
<path d="M824 138h20"></path>
<g class="non-terminal">
<path d="M844 138h0"></path>
<path d="M912 138h8"></path>
<rect x="844" y="127" width="68" height="22"></rect>
<a xlink:href="reuse_target.svg"><text x="878" y="142">Target</text>
</a>
</g>
<path d="M920 138h20"></path>
<path d="M824 138a10 10 0 0 1 10 10v10a10 10 0 0 0 10 10"></path>
<g class="non-terminal">
<path d="M844 168h0"></path>
<path d="M920 168h0"></path>
<rect x="844" y="157" width="76" height="22"></rect>
<a xlink:href="reuse_dynamic.svg"><text x="882" y="172">Dynamic</text>
</a>
</g>
<path d="M920 168a10 10 0 0 0 10 -10v-10a10 10 0 0 1 10 -10"></path>
</g>
<path d="M940 138h10"></path>
<g class="terminal">
<path d="M950 138h0"></path>
<path d="M994 138h0"></path>
<rect x="950" y="127" width="44" height="22" rx="10" ry="10"></rect>
<text x="972" y="142">"="</text>
</g>
<path d="M994 138h10"></path>
<path d="M1004 138h10"></path>
<g class="non-terminal">
<path d="M1014 138h0"></path>
<path d="M1082 138h0"></path>
<rect x="1014" y="127" width="68" height="22"></rect>
<a xlink:href="reuse_source.svg"><text x="1048" y="142">Source</text>
</a>
</g>
</g>
<path d="M1082 138h10"></path>
<path d="M824 138a10 10 0 0 0 -10 10v29a10 10 0 0 0 10 10"></path>
<g>
<path d="M824 187h258"></path>
</g>
<path d="M1082 187a10 10 0 0 0 10 -10v-29a10 10 0 0 0 -10 -10"></path>
</g>
</g>
<path d="M1092 138a10 10 0 0 0 10 -10v-48a10 10 0 0 1 10 -10"></path>
<path d="M532 70a10 10 0 0 1 10 10v125a10 10 0 0 0 10 10"></path>
<g>
<path d="M552 215h0"></path>
<path d="M714 215h378"></path>
<g>
<path d="M552 215h0"></path>
<path d="M636 215h0"></path>
<path d="M552 215a10 10 0 0 0 10 -10v0a10 10 0 0 1 10 -10"></path>
<g>
<path d="M572 195h44"></path>
</g>
<path d="M616 195a10 10 0 0 1 10 10v0a10 10 0 0 0 10 10"></path>
<path d="M552 215h20"></path>
<g class="terminal">
<path d="M572 215h0"></path>
<path d="M616 215h0"></path>
<rect x="572" y="204" width="44" height="22" rx="10" ry="10"></rect>
<text x="594" y="219">"="</text>
</g>
<path d="M616 215h20"></path>
</g>
<path d="M636 215h10"></path>
<g class="non-terminal">
<path d="M646 215h0"></path>
<path d="M714 215h0"></path>
<rect x="646" y="204" width="68" height="22"></rect>
<a xlink:href="reuse_source.svg"><text x="680" y="219">Source</text>
</a>
</g>
</g>
<path d="M1092 215a10 10 0 0 0 10 -10v-125a10 10 0 0 1 10 -10"></path>
</g>
</g>
<path d="M1112 70a10 10 0 0 0 10 -10v-10a10 10 0 0 1 10 -10"></path>
<path d="M324 40a10 10 0 0 1 10 10v185a10 10 0 0 0 10 10"></path>
<g>
<path d="M344 245h0"></path>
<path d="M500 245h612"></path>
<g class="terminal">
<path d="M344 245h0"></path>
<path d="M412 245h0"></path>
<rect x="344" y="234" width="68" height="22" rx="10" ry="10"></rect>
<text x="378" y="249">"FROM"</text>
</g>
<path d="M412 245h10"></path>
<path d="M422 245h10"></path>
<g class="non-terminal">
<path d="M432 245h0"></path>
<path d="M500 245h0"></path>
<rect x="432" y="234" width="68" height="22"></rect>
<a xlink:href="reuse_source.svg"><text x="466" y="249">Source</text>
</a>
</g>
</g>
<path d="M1112 245a10 10 0 0 0 10 -10v-185a10 10 0 0 1 10 -10"></path>
</g>
<path d="M1132 40h10"></path>
<path d="M314 40v225a10 10 0 0 0 10 10"></path>
<g>
<path d="M324 275h0"></path>
<path d="M678 275h454"></path>
<path d="M324 275h20"></path>
<g>
<path d="M344 275h0"></path>
<path d="M556 275h102"></path>
<g class="terminal">
<path d="M344 275h0"></path>
<path d="M452 275h0"></path>
<rect x="344" y="264" width="108" height="22" rx="10" ry="10"></rect>
<text x="398" y="279">"ASSIGNING"</text>
</g>
<path d="M452 275h10"></path>
<path d="M462 275h10"></path>
<g class="non-terminal">
<path d="M472 275h0"></path>
<path d="M556 275h0"></path>
<rect x="472" y="264" width="84" height="22"></rect>
<a xlink:href="reuse_fstarget.svg"><text x="514" y="279">FSTarget</text>
</a>
</g>
</g>
<path d="M658 275h20"></path>
<path d="M324 275a10 10 0 0 1 10 10v19a10 10 0 0 0 10 10"></path>
<g>
<path d="M344 314h0"></path>
<path d="M658 314h0"></path>
<g>
<path d="M344 314h0"></path>
<path d="M492 314h0"></path>
<path d="M344 314a10 10 0 0 0 10 -10v0a10 10 0 0 1 10 -10"></path>
<g>
<path d="M364 294h108"></path>
</g>
<path d="M472 294a10 10 0 0 1 10 10v0a10 10 0 0 0 10 10"></path>
<path d="M344 314h20"></path>
<g class="terminal">
<path d="M364 314h0"></path>
<path d="M472 314h0"></path>
<rect x="364" y="303" width="108" height="22" rx="10" ry="10"></rect>
<text x="418" y="318">"REFERENCE"</text>
</g>
<path d="M472 314h20"></path>
</g>
<path d="M492 314h10"></path>
<g class="terminal">
<path d="M502 314h0"></path>
<path d="M570 314h0"></path>
<rect x="502" y="303" width="68" height="22" rx="10" ry="10"></rect>
<text x="536" y="318">"INTO"</text>
</g>
<path d="M570 314h10"></path>
<path d="M580 314h10"></path>
<g class="non-terminal">
<path d="M590 314h0"></path>
<path d="M658 314h0"></path>
<rect x="590" y="303" width="68" height="22"></rect>
<a xlink:href="reuse_target.svg"><text x="624" y="318">Target</text>
</a>
</g>
</g>
<path d="M658 314a10 10 0 0 0 10 -10v-19a10 10 0 0 1 10 -10"></path>
<path d="M324 275a10 10 0 0 1 10 10v49a10 10 0 0 0 10 10"></path>
<g class="terminal">
<path d="M344 344h0"></path>
<path d="M556 344h102"></path>
<rect x="344" y="333" width="212" height="22" rx="10" ry="10"></rect>
<text x="450" y="348">"TRANSPORTING NO FIELDS"</text>
</g>
<path d="M658 344a10 10 0 0 0 10 -10v-49a10 10 0 0 1 10 -10"></path>
</g>
<path d="M1132 275a10 10 0 0 0 10 -10v-225"></path>
<path d="M314 40v324a10 10 0 0 0 10 10"></path>
<g>
<path d="M324 374h0"></path>
<path d="M558 374h574"></path>
<g class="terminal">
<path d="M324 374h0"></path>
<path d="M432 374h0"></path>
<rect x="324" y="363" width="108" height="22" rx="10" ry="10"></rect>
<text x="378" y="378">"USING KEY"</text>
</g>
<path d="M432 374h10"></path>
<g>
<path d="M442 374h0"></path>
<path d="M558 374h0"></path>
<path d="M442 374h20"></path>
<g class="non-terminal">
<path d="M462 374h0"></path>
<path d="M522 374h16"></path>
<rect x="462" y="363" width="60" height="22"></rect>
<a xlink:href="reuse_field.svg"><text x="492" y="378">Field</text>
</a>
</g>
<path d="M538 374h20"></path>
<path d="M442 374a10 10 0 0 1 10 10v10a10 10 0 0 0 10 10"></path>
<g class="non-terminal">
<path d="M462 404h0"></path>
<path d="M538 404h0"></path>
<rect x="462" y="393" width="76" height="22"></rect>
<a xlink:href="reuse_dynamic.svg"><text x="500" y="408">Dynamic</text>
</a>
</g>
<path d="M538 404a10 10 0 0 0 10 -10v-10a10 10 0 0 1 10 -10"></path>
</g>
</g>
<path d="M1132 374a10 10 0 0 0 10 -10v-324"></path>
<path d="M314 40v384a10 10 0 0 0 10 10"></path>
<g>
<path d="M324 434h0"></path>
<path d="M512 434h620"></path>
<g class="terminal">
<path d="M324 434h0"></path>
<path d="M432 434h0"></path>
<rect x="324" y="423" width="108" height="22" rx="10" ry="10"></rect>
<text x="378" y="438">"COMPARING"</text>
</g>
<path d="M432 434h10"></path>
<path d="M442 434h10"></path>
<g class="non-terminal">
<path d="M452 434h0"></path>
<path d="M512 434h0"></path>
<rect x="452" y="423" width="60" height="22"></rect>
<a xlink:href="reuse_field.svg"><text x="482" y="438">Field</text>
</a>
</g>
</g>
<path d="M1132 434a10 10 0 0 0 10 -10v-384"></path>
<path d="M314 40v414a10 10 0 0 0 10 10"></path>
<g class="terminal">
<path d="M324 464h0"></path>
<path d="M416 464h716"></path>
<rect x="324" y="453" width="92" height="22" rx="10" ry="10"></rect>
<text x="370" y="468">"CASTING"</text>
</g>
<path d="M1132 464a10 10 0 0 0 10 -10v-414"></path>
<path d="M314 40v444a10 10 0 0 0 10 10"></path>
<g>
<path d="M324 494h0"></path>
<path d="M556 494h576"></path>
<g class="terminal">
<path d="M324 494h0"></path>
<path d="M456 494h0"></path>
<rect x="324" y="483" width="132" height="22" rx="10" ry="10"></rect>
<text x="390" y="498">"TRANSPORTING"</text>
</g>
<path d="M456 494h10"></path>
<path d="M466 494h10"></path>
<g>
<path d="M476 494h0"></path>
<path d="M556 494h0"></path>
<path d="M476 494h10"></path>
<g class="non-terminal">
<path d="M486 494h0"></path>
<path d="M546 494h0"></path>
<rect x="486" y="483" width="60" height="22"></rect>
<a xlink:href="reuse_field.svg"><text x="516" y="498">Field</text>
</a>
</g>
<path d="M546 494h10"></path>
<path d="M486 494a10 10 0 0 0 -10 10v0a10 10 0 0 0 10 10"></path>
<g>
<path d="M486 514h60"></path>
</g>
<path d="M546 514a10 10 0 0 0 10 -10v0a10 10 0 0 0 -10 -10"></path>
</g>
</g>
<path d="M1132 494a10 10 0 0 0 10 -10v-444"></path>
<path d="M314 40v483a10 10 0 0 0 10 10"></path>
<g class="terminal">
<path d="M324 533h0"></path>
<path d="M464 533h668"></path>
<rect x="324" y="522" width="140" height="22" rx="10" ry="10"></rect>
<text x="394" y="537">"BINARY SEARCH"</text>
</g>
<path d="M1132 533a10 10 0 0 0 10 -10v-483"></path>
<g class="diagram-text">
<title>take one or more branches, once each, in any order</title>
<path d="M 314 30 h -26 a 4 4 0 0 0 -4 4 v 12 a 4 4 0 0 0 4 4 h 26 z" class="diagram-text"></path>
<text x="299" y="44" class="diagram-text">1+</text>
<path d="M 1142 30 h 16 a 4 4 0 0 1 4 4 v 12 a 4 4 0 0 1 -4 4 h -16 z" class="diagram-text"></path>
<path d="M 1149 38 a 4 4 0 1 0 6 -1 m 2.75 -1 h -4 v 4 m 0 -3 h 2" style="stroke-width: 1.75"></path>
</g>
</g>
<path d="M1162 40h20"></path>
</g>
</g>
<path d="M1182 40h10"></path>
<path d="M 1192 40 h 20 m -10 -10 v 20 m 10 -20 v 20"></path>
</g>
</svg>
