<svg xmlns="http://www.w3.org/2000/svg" xmlns:xlink="http://www.w3.org/1999/xlink" class="railroad-diagram" width="1004" height="377" viewBox="0 0 1004 377">
<defs>
<style type="text/css"><![CDATA[
path {
stroke-width: 3;
stroke: black;
fill: rgba(0,0,0,0);
}
text {
font: bold 14px monospace;
text-anchor: middle;
}
text.diagram-text {
font-size: 12px;
}
a {
fill: blue;
}
text.diagram-arrow {
font-size: 16px;
}
text.label {
text-anchor: start;
}
text.comment {
font: italic 12px monospace;
}
rect {
stroke-width: 3;
stroke: black;
fill: #BCBCBC;
}
path.diagram-text {
stroke-width: 3;
stroke: black;
fill: #BCBCBC;
cursor: help;
}
]]></style>
</defs>
<g transform="translate(.5 .5)">
<path d="M 20 30 v 20 m 10 -20 v 20 m -10 -10 h 20.5"></path>
<path d="M40 40h10"></path>
<g>
<path d="M50 40h0"></path>
<path d="M954 40h0"></path>
<g class="terminal">
<path d="M50 40h0"></path>
<path d="M166 40h0"></path>
<rect x="50" y="29" width="116" height="22" rx="10" ry="10"></rect>
<text x="108" y="44">"READ TABLE"</text>
</g>
<path d="M166 40h10"></path>
<path d="M176 40h10"></path>
<g class="non-terminal">
<path d="M186 40h0"></path>
<path d="M254 40h0"></path>
<rect x="186" y="29" width="68" height="22"></rect>
<a xlink:href="reuse_source.svg"><text x="220" y="44">Source</text>
</a>
</g>
<path d="M254 40h10"></path>
<g>
<path d="M264 40h0"></path>
<path d="M954 40h0"></path>
<path d="M264 40a10 10 0 0 0 10 -10v0a10 10 0 0 1 10 -10"></path>
<g>
<path d="M284 20h650"></path>
</g>
<path d="M934 20a10 10 0 0 1 10 10v0a10 10 0 0 0 10 10"></path>
<path d="M264 40h20"></path>
<g>
<path d="M284 40h0"></path>
<path d="M934 40h0"></path>
<path d="M314 40h10"></path>
<g>
<path d="M324 40h0"></path>
<path d="M904 40h0"></path>
<path d="M324 40h20"></path>
<g>
<path d="M344 40h0"></path>
<path d="M508 40h376"></path>
<g class="terminal">
<path d="M344 40h0"></path>
<path d="M420 40h0"></path>
<rect x="344" y="29" width="76" height="22" rx="10" ry="10"></rect>
<text x="382" y="44">"INDEX"</text>
</g>
<path d="M420 40h10"></path>
<path d="M430 40h10"></path>
<g class="non-terminal">
<path d="M440 40h0"></path>
<path d="M508 40h0"></path>
<rect x="440" y="29" width="68" height="22"></rect>
<a xlink:href="reuse_source.svg"><text x="474" y="44">Source</text>
</a>
</g>
</g>
<path d="M884 40h20"></path>
<path d="M324 40a10 10 0 0 1 10 10v10a10 10 0 0 0 10 10"></path>
<g>
<path d="M344 70h0"></path>
<path d="M884 70h0"></path>
<g>
<path d="M344 70h0"></path>
<path d="M532 70h0"></path>
<path d="M344 70h20"></path>
<g class="terminal">
<path d="M364 70h0"></path>
<path d="M464 70h48"></path>
<rect x="364" y="59" width="100" height="22" rx="10" ry="10"></rect>
<text x="414" y="74">"WITH KEY"</text>
</g>
<path d="M512 70h20"></path>
<path d="M344 70a10 10 0 0 1 10 10v10a10 10 0 0 0 10 10"></path>
<g class="terminal">
<path d="M364 100h0"></path>
<path d="M512 100h0"></path>
<rect x="364" y="89" width="148" height="22" rx="10" ry="10"></rect>
<text x="438" y="104">"WITH TABLE KEY"</text>
</g>
<path d="M512 100a10 10 0 0 0 10 -10v-10a10 10 0 0 1 10 -10"></path>
</g>
<g>
<path d="M532 70h0"></path>
<path d="M884 70h0"></path>
<path d="M532 70h20"></path>
<g>
<path d="M552 70h0"></path>
<path d="M648 70h216"></path>
<path d="M552 70h10"></path>
<g class="non-terminal">
<path d="M562 70h0"></path>
<path d="M638 70h0"></path>
<rect x="562" y="59" width="76" height="22"></rect>
<a xlink:href="reuse_compare.svg"><text x="600" y="74">Compare</text>
</a>
</g>
<path d="M638 70h10"></path>
<path d="M562 70a10 10 0 0 0 -10 10v0a10 10 0 0 0 10 10"></path>
<g>
<path d="M562 90h76"></path>
</g>
<path d="M638 90a10 10 0 0 0 10 -10v0a10 10 0 0 0 -10 -10"></path>
</g>
<path d="M864 70h20"></path>
<path d="M532 70a10 10 0 0 1 10 10v19a10 10 0 0 0 10 10"></path>
<g>
<path d="M552 109h0"></path>
<path d="M864 109h0"></path>
<g class="non-terminal">
<path d="M552 109h0"></path>
<path d="M612 109h0"></path>
<rect x="552" y="98" width="60" height="22"></rect>
<a xlink:href="reuse_field.svg"><text x="582" y="113">Field</text>
</a>
</g>
<path d="M612 109h10"></path>
<path d="M622 109h10"></path>
<g class="terminal">
<path d="M632 109h0"></path>
<path d="M748 109h0"></path>
<rect x="632" y="98" width="116" height="22" rx="10" ry="10"></rect>
<text x="690" y="113">"COMPONENTS"</text>
</g>
<path d="M748 109h10"></path>
<path d="M758 109h10"></path>
<g>
<path d="M768 109h0"></path>
<path d="M864 109h0"></path>
<path d="M768 109h10"></path>
<g class="non-terminal">
<path d="M778 109h0"></path>
<path d="M854 109h0"></path>
<rect x="778" y="98" width="76" height="22"></rect>
<a xlink:href="reuse_compare.svg"><text x="816" y="113">Compare</text>
</a>
</g>
<path d="M854 109h10"></path>
<path d="M778 109a10 10 0 0 0 -10 10v0a10 10 0 0 0 10 10"></path>
<g>
<path d="M778 129h76"></path>
</g>
<path d="M854 129a10 10 0 0 0 10 -10v0a10 10 0 0 0 -10 -10"></path>
</g>
</g>
<path d="M864 109a10 10 0 0 0 10 -10v-19a10 10 0 0 1 10 -10"></path>
<path d="M532 70a10 10 0 0 1 10 10v58a10 10 0 0 0 10 10"></path>
<g class="non-terminal">
<path d="M552 148h0"></path>
<path d="M660 148h204"></path>
<rect x="552" y="137" width="108" height="22"></rect>
<a xlink:href="reuse_fieldsymbol.svg"><text x="606" y="152">FieldSymbol</text>
</a>
</g>
<path d="M864 148a10 10 0 0 0 10 -10v-58a10 10 0 0 1 10 -10"></path>
</g>
</g>
<path d="M884 70a10 10 0 0 0 10 -10v-10a10 10 0 0 1 10 -10"></path>
<path d="M324 40a10 10 0 0 1 10 10v118a10 10 0 0 0 10 10"></path>
<g>
<path d="M344 178h0"></path>
<path d="M500 178h384"></path>
<g class="terminal">
<path d="M344 178h0"></path>
<path d="M412 178h0"></path>
<rect x="344" y="167" width="68" height="22" rx="10" ry="10"></rect>
<text x="378" y="182">"FROM"</text>
</g>
<path d="M412 178h10"></path>
<path d="M422 178h10"></path>
<g class="non-terminal">
<path d="M432 178h0"></path>
<path d="M500 178h0"></path>
<rect x="432" y="167" width="68" height="22"></rect>
<a xlink:href="reuse_source.svg"><text x="466" y="182">Source</text>
</a>
</g>
</g>
<path d="M884 178a10 10 0 0 0 10 -10v-118a10 10 0 0 1 10 -10"></path>
</g>
<path d="M904 40h10"></path>
<path d="M314 40v158a10 10 0 0 0 10 10"></path>
<g>
<path d="M324 208h0"></path>
<path d="M678 208h226"></path>
<path d="M324 208h20"></path>
<g>
<path d="M344 208h0"></path>
<path d="M540 208h118"></path>
<g class="terminal">
<path d="M344 208h0"></path>
<path d="M452 208h0"></path>
<rect x="344" y="197" width="108" height="22" rx="10" ry="10"></rect>
<text x="398" y="212">"ASSIGNING"</text>
</g>
<path d="M452 208h10"></path>
<path d="M462 208h10"></path>
<g class="non-terminal">
<path d="M472 208h0"></path>
<path d="M540 208h0"></path>
<rect x="472" y="197" width="68" height="22"></rect>
<a xlink:href="reuse_target.svg"><text x="506" y="212">Target</text>
</a>
</g>
</g>
<path d="M658 208h20"></path>
<path d="M324 208a10 10 0 0 1 10 10v19a10 10 0 0 0 10 10"></path>
<g>
<path d="M344 247h0"></path>
<path d="M658 247h0"></path>
<g>
<path d="M344 247h0"></path>
<path d="M492 247h0"></path>
<path d="M344 247a10 10 0 0 0 10 -10v0a10 10 0 0 1 10 -10"></path>
<g>
<path d="M364 227h108"></path>
</g>
<path d="M472 227a10 10 0 0 1 10 10v0a10 10 0 0 0 10 10"></path>
<path d="M344 247h20"></path>
<g class="terminal">
<path d="M364 247h0"></path>
<path d="M472 247h0"></path>
<rect x="364" y="236" width="108" height="22" rx="10" ry="10"></rect>
<text x="418" y="251">"REFERENCE"</text>
</g>
<path d="M472 247h20"></path>
</g>
<path d="M492 247h10"></path>
<g class="terminal">
<path d="M502 247h0"></path>
<path d="M570 247h0"></path>
<rect x="502" y="236" width="68" height="22" rx="10" ry="10"></rect>
<text x="536" y="251">"INTO"</text>
</g>
<path d="M570 247h10"></path>
<path d="M580 247h10"></path>
<g class="non-terminal">
<path d="M590 247h0"></path>
<path d="M658 247h0"></path>
<rect x="590" y="236" width="68" height="22"></rect>
<a xlink:href="reuse_target.svg"><text x="624" y="251">Target</text>
</a>
</g>
</g>
<path d="M658 247a10 10 0 0 0 10 -10v-19a10 10 0 0 1 10 -10"></path>
<path d="M324 208a10 10 0 0 1 10 10v49a10 10 0 0 0 10 10"></path>
<g class="terminal">
<path d="M344 277h0"></path>
<path d="M556 277h102"></path>
<rect x="344" y="266" width="212" height="22" rx="10" ry="10"></rect>
<text x="450" y="281">"TRANSPORTING NO FIELDS"</text>
</g>
<path d="M658 277a10 10 0 0 0 10 -10v-49a10 10 0 0 1 10 -10"></path>
</g>
<path d="M904 208a10 10 0 0 0 10 -10v-158"></path>
<path d="M314 40v257a10 10 0 0 0 10 10"></path>
<g>
<path d="M324 307h0"></path>
<path d="M556 307h348"></path>
<g class="terminal">
<path d="M324 307h0"></path>
<path d="M456 307h0"></path>
<rect x="324" y="296" width="132" height="22" rx="10" ry="10"></rect>
<text x="390" y="311">"TRANSPORTING"</text>
</g>
<path d="M456 307h10"></path>
<path d="M466 307h10"></path>
<g>
<path d="M476 307h0"></path>
<path d="M556 307h0"></path>
<path d="M476 307h10"></path>
<g class="non-terminal">
<path d="M486 307h0"></path>
<path d="M546 307h0"></path>
<rect x="486" y="296" width="60" height="22"></rect>
<a xlink:href="reuse_field.svg"><text x="516" y="311">Field</text>
</a>
</g>
<path d="M546 307h10"></path>
<path d="M486 307a10 10 0 0 0 -10 10v0a10 10 0 0 0 10 10"></path>
<g>
<path d="M486 327h60"></path>
</g>
<path d="M546 327a10 10 0 0 0 10 -10v0a10 10 0 0 0 -10 -10"></path>
</g>
</g>
<path d="M904 307a10 10 0 0 0 10 -10v-257"></path>
<path d="M314 40v296a10 10 0 0 0 10 10"></path>
<g class="terminal">
<path d="M324 346h0"></path>
<path d="M464 346h440"></path>
<rect x="324" y="335" width="140" height="22" rx="10" ry="10"></rect>
<text x="394" y="350">"BINARY SEARCH"</text>
</g>
<path d="M904 346a10 10 0 0 0 10 -10v-296"></path>
<g class="diagram-text">
<title>take one or more branches, once each, in any order</title>
<path d="M 314 30 h -26 a 4 4 0 0 0 -4 4 v 12 a 4 4 0 0 0 4 4 h 26 z" class="diagram-text"></path>
<text x="299" y="44" class="diagram-text">1+</text>
<path d="M 914 30 h 16 a 4 4 0 0 1 4 4 v 12 a 4 4 0 0 1 -4 4 h -16 z" class="diagram-text"></path>
<path d="M 921 38 a 4 4 0 1 0 6 -1 m 2.75 -1 h -4 v 4 m 0 -3 h 2" style="stroke-width: 1.75"></path>
</g>
</g>
<path d="M934 40h20"></path>
</g>
</g>
<path d="M954 40h10"></path>
<path d="M 964 40 h 20 m -10 -10 v 20 m 10 -20 v 20"></path>
</g>
</svg>
