<svg xmlns="http://www.w3.org/2000/svg" xmlns:xlink="http://www.w3.org/1999/xlink" class="railroad-diagram" width="1016" height="416" viewBox="0 0 1016 416">
<defs>
<style type="text/css"><![CDATA[
path {
stroke-width: 3;
stroke: black;
fill: rgba(0,0,0,0);
}
text {
font: bold 14px monospace;
text-anchor: middle;
}
text.diagram-text {
font-size: 12px;
}
a {
fill: blue;
}
text.diagram-arrow {
font-size: 16px;
}
text.label {
text-anchor: start;
}
text.comment {
font: italic 12px monospace;
}
rect {
stroke-width: 3;
stroke: black;
fill: #BCBCBC;
}
path.diagram-text {
stroke-width: 3;
stroke: black;
fill: #BCBCBC;
cursor: help;
}
]]></style>
</defs>
<g transform="translate(.5 .5)">
<path d="M 20 30 v 20 m 10 -20 v 20 m -10 -10 h 20.5"></path>
<path d="M40 40h10"></path>
<g>
<path d="M50 40h0"></path>
<path d="M966 40h0"></path>
<g class="terminal">
<path d="M50 40h0"></path>
<path d="M166 40h0"></path>
<rect x="50" y="29" width="116" height="22" rx="10" ry="10"></rect>
<text x="108" y="44">"READ TABLE"</text>
</g>
<path d="M166 40h10"></path>
<path d="M176 40h10"></path>
<g class="non-terminal">
<path d="M186 40h0"></path>
<path d="M254 40h0"></path>
<rect x="186" y="29" width="68" height="22"></rect>
<a xlink:href="reuse_source.svg"><text x="220" y="44">Source</text>
</a>
</g>
<path d="M254 40h10"></path>
<g>
<path d="M264 40h0"></path>
<path d="M966 40h0"></path>
<path d="M264 40a10 10 0 0 0 10 -10v0a10 10 0 0 1 10 -10"></path>
<g>
<path d="M284 20h662"></path>
</g>
<path d="M946 20a10 10 0 0 1 10 10v0a10 10 0 0 0 10 10"></path>
<path d="M264 40h20"></path>
<g>
<path d="M284 40h0"></path>
<path d="M946 40h0"></path>
<path d="M314 40h10"></path>
<g>
<path d="M324 40h0"></path>
<path d="M904 40h12"></path>
<path d="M324 40h20"></path>
<g>
<path d="M344 40h0"></path>
<path d="M508 40h376"></path>
<g class="terminal">
<path d="M344 40h0"></path>
<path d="M420 40h0"></path>
<rect x="344" y="29" width="76" height="22" rx="10" ry="10"></rect>
<text x="382" y="44">"INDEX"</text>
</g>
<path d="M420 40h10"></path>
<path d="M430 40h10"></path>
<g class="non-terminal">
<path d="M440 40h0"></path>
<path d="M508 40h0"></path>
<rect x="440" y="29" width="68" height="22"></rect>
<a xlink:href="reuse_source.svg"><text x="474" y="44">Source</text>
</a>
</g>
</g>
<path d="M884 40h20"></path>
<path d="M324 40a10 10 0 0 1 10 10v10a10 10 0 0 0 10 10"></path>
<g>
<path d="M344 70h0"></path>
<path d="M884 70h0"></path>
<g>
<path d="M344 70h0"></path>
<path d="M532 70h0"></path>
<path d="M344 70h20"></path>
<g class="terminal">
<path d="M364 70h0"></path>
<path d="M464 70h48"></path>
<rect x="364" y="59" width="100" height="22" rx="10" ry="10"></rect>
<text x="414" y="74">"WITH KEY"</text>
</g>
<path d="M512 70h20"></path>
<path d="M344 70a10 10 0 0 1 10 10v10a10 10 0 0 0 10 10"></path>
<g class="terminal">
<path d="M364 100h0"></path>
<path d="M512 100h0"></path>
<rect x="364" y="89" width="148" height="22" rx="10" ry="10"></rect>
<text x="438" y="104">"WITH TABLE KEY"</text>
</g>
<path d="M512 100a10 10 0 0 0 10 -10v-10a10 10 0 0 1 10 -10"></path>
</g>
<g>
<path d="M532 70h0"></path>
<path d="M884 70h0"></path>
<path d="M532 70h20"></path>
<g>
<path d="M552 70h0"></path>
<path d="M648 70h216"></path>
<path d="M552 70h10"></path>
<g class="non-terminal">
<path d="M562 70h0"></path>
<path d="M638 70h0"></path>
<rect x="562" y="59" width="76" height="22"></rect>
<a xlink:href="reuse_compare.svg"><text x="600" y="74">Compare</text>
</a>
</g>
<path d="M638 70h10"></path>
<path d="M562 70a10 10 0 0 0 -10 10v0a10 10 0 0 0 10 10"></path>
<g>
<path d="M562 90h76"></path>
</g>
<path d="M638 90a10 10 0 0 0 10 -10v0a10 10 0 0 0 -10 -10"></path>
</g>
<path d="M864 70h20"></path>
<path d="M532 70a10 10 0 0 1 10 10v19a10 10 0 0 0 10 10"></path>
<g>
<path d="M552 109h0"></path>
<path d="M864 109h0"></path>
<g class="non-terminal">
<path d="M552 109h0"></path>
<path d="M612 109h0"></path>
<rect x="552" y="98" width="60" height="22"></rect>
<a xlink:href="reuse_field.svg"><text x="582" y="113">Field</text>
</a>
</g>
<path d="M612 109h10"></path>
<path d="M622 109h10"></path>
<g class="terminal">
<path d="M632 109h0"></path>
<path d="M748 109h0"></path>
<rect x="632" y="98" width="116" height="22" rx="10" ry="10"></rect>
<text x="690" y="113">"COMPONENTS"</text>
</g>
<path d="M748 109h10"></path>
<path d="M758 109h10"></path>
<g>
<path d="M768 109h0"></path>
<path d="M864 109h0"></path>
<path d="M768 109h10"></path>
<g class="non-terminal">
<path d="M778 109h0"></path>
<path d="M854 109h0"></path>
<rect x="778" y="98" width="76" height="22"></rect>
<a xlink:href="reuse_compare.svg"><text x="816" y="113">Compare</text>
</a>
</g>
<path d="M854 109h10"></path>
<path d="M778 109a10 10 0 0 0 -10 10v0a10 10 0 0 0 10 10"></path>
<g>
<path d="M778 129h76"></path>
</g>
<path d="M854 129a10 10 0 0 0 10 -10v0a10 10 0 0 0 -10 -10"></path>
</g>
</g>
<path d="M864 109a10 10 0 0 0 10 -10v-19a10 10 0 0 1 10 -10"></path>
<path d="M532 70a10 10 0 0 1 10 10v67a10 10 0 0 0 10 10"></path>
<g>
<path d="M552 157h0"></path>
<path d="M714 157h150"></path>
<g>
<path d="M552 157h0"></path>
<path d="M636 157h0"></path>
<path d="M552 157a10 10 0 0 0 10 -10v0a10 10 0 0 1 10 -10"></path>
<g>
<path d="M572 137h44"></path>
</g>
<path d="M616 137a10 10 0 0 1 10 10v0a10 10 0 0 0 10 10"></path>
<path d="M552 157h20"></path>
<g class="terminal">
<path d="M572 157h0"></path>
<path d="M616 157h0"></path>
<rect x="572" y="146" width="44" height="22" rx="10" ry="10"></rect>
<text x="594" y="161">"="</text>
</g>
<path d="M616 157h20"></path>
</g>
<path d="M636 157h10"></path>
<g class="non-terminal">
<path d="M646 157h0"></path>
<path d="M714 157h0"></path>
<rect x="646" y="146" width="68" height="22"></rect>
<a xlink:href="reuse_source.svg"><text x="680" y="161">Source</text>
</a>
</g>
</g>
<path d="M864 157a10 10 0 0 0 10 -10v-67a10 10 0 0 1 10 -10"></path>
</g>
</g>
<path d="M884 70a10 10 0 0 0 10 -10v-10a10 10 0 0 1 10 -10"></path>
<path d="M324 40a10 10 0 0 1 10 10v127a10 10 0 0 0 10 10"></path>
<g>
<path d="M344 187h0"></path>
<path d="M500 187h384"></path>
<g class="terminal">
<path d="M344 187h0"></path>
<path d="M412 187h0"></path>
<rect x="344" y="176" width="68" height="22" rx="10" ry="10"></rect>
<text x="378" y="191">"FROM"</text>
</g>
<path d="M412 187h10"></path>
<path d="M422 187h10"></path>
<g class="non-terminal">
<path d="M432 187h0"></path>
<path d="M500 187h0"></path>
<rect x="432" y="176" width="68" height="22"></rect>
<a xlink:href="reuse_source.svg"><text x="466" y="191">Source</text>
</a>
</g>
</g>
<path d="M884 187a10 10 0 0 0 10 -10v-127a10 10 0 0 1 10 -10"></path>
</g>
<path d="M916 40h10"></path>
<path d="M314 40v167a10 10 0 0 0 10 10"></path>
<g>
<path d="M324 217h0"></path>
<path d="M916 217h0"></path>
<path d="M324 217h20"></path>
<g>
<path d="M344 217h0"></path>
<path d="M540 217h356"></path>
<g class="terminal">
<path d="M344 217h0"></path>
<path d="M452 217h0"></path>
<rect x="344" y="206" width="108" height="22" rx="10" ry="10"></rect>
<text x="398" y="221">"ASSIGNING"</text>
</g>
<path d="M452 217h10"></path>
<path d="M462 217h10"></path>
<g class="non-terminal">
<path d="M472 217h0"></path>
<path d="M540 217h0"></path>
<rect x="472" y="206" width="68" height="22"></rect>
<a xlink:href="reuse_target.svg"><text x="506" y="221">Target</text>
</a>
</g>
</g>
<path d="M896 217h20"></path>
<path d="M324 217a10 10 0 0 1 10 10v19a10 10 0 0 0 10 10"></path>
<g>
<path d="M344 256h0"></path>
<path d="M896 256h0"></path>
<g>
<path d="M344 256h0"></path>
<path d="M492 256h0"></path>
<path d="M344 256a10 10 0 0 0 10 -10v0a10 10 0 0 1 10 -10"></path>
<g>
<path d="M364 236h108"></path>
</g>
<path d="M472 236a10 10 0 0 1 10 10v0a10 10 0 0 0 10 10"></path>
<path d="M344 256h20"></path>
<g class="terminal">
<path d="M364 256h0"></path>
<path d="M472 256h0"></path>
<rect x="364" y="245" width="108" height="22" rx="10" ry="10"></rect>
<text x="418" y="260">"REFERENCE"</text>
</g>
<path d="M472 256h20"></path>
</g>
<path d="M492 256h10"></path>
<g class="terminal">
<path d="M502 256h0"></path>
<path d="M570 256h0"></path>
<rect x="502" y="245" width="68" height="22" rx="10" ry="10"></rect>
<text x="536" y="260">"INTO"</text>
</g>
<path d="M570 256h10"></path>
<path d="M580 256h10"></path>
<g class="non-terminal">
<path d="M590 256h0"></path>
<path d="M658 256h0"></path>
<rect x="590" y="245" width="68" height="22"></rect>
<a xlink:href="reuse_target.svg"><text x="624" y="260">Target</text>
</a>
</g>
<path d="M658 256h10"></path>
<g>
<path d="M668 256h0"></path>
<path d="M896 256h0"></path>
<path d="M668 256a10 10 0 0 0 10 -10v0a10 10 0 0 1 10 -10"></path>
<g>
<path d="M688 236h188"></path>
</g>
<path d="M876 236a10 10 0 0 1 10 10v0a10 10 0 0 0 10 10"></path>
<path d="M668 256h20"></path>
<g>
<path d="M688 256h0"></path>
<path d="M876 256h0"></path>
<g class="terminal">
<path d="M688 256h0"></path>
<path d="M796 256h0"></path>
<rect x="688" y="245" width="108" height="22" rx="10" ry="10"></rect>
<text x="742" y="260">"COMPARING"</text>
</g>
<path d="M796 256h10"></path>
<path d="M806 256h10"></path>
<g class="non-terminal">
<path d="M816 256h0"></path>
<path d="M876 256h0"></path>
<rect x="816" y="245" width="60" height="22"></rect>
<a xlink:href="reuse_field.svg"><text x="846" y="260">Field</text>
</a>
</g>
</g>
<path d="M876 256h20"></path>
</g>
</g>
<path d="M896 256a10 10 0 0 0 10 -10v-19a10 10 0 0 1 10 -10"></path>
<path d="M324 217a10 10 0 0 1 10 10v49a10 10 0 0 0 10 10"></path>
<g class="terminal">
<path d="M344 286h0"></path>
<path d="M556 286h340"></path>
<rect x="344" y="275" width="212" height="22" rx="10" ry="10"></rect>
<text x="450" y="290">"TRANSPORTING NO FIELDS"</text>
</g>
<path d="M896 286a10 10 0 0 0 10 -10v-49a10 10 0 0 1 10 -10"></path>
</g>
<path d="M916 217a10 10 0 0 0 10 -10v-167"></path>
<path d="M314 40v266a10 10 0 0 0 10 10"></path>
<g class="terminal">
<path d="M324 316h0"></path>
<path d="M416 316h500"></path>
<rect x="324" y="305" width="92" height="22" rx="10" ry="10"></rect>
<text x="370" y="320">"CASTING"</text>
</g>
<path d="M916 316a10 10 0 0 0 10 -10v-266"></path>
<path d="M314 40v296a10 10 0 0 0 10 10"></path>
<g>
<path d="M324 346h0"></path>
<path d="M556 346h360"></path>
<g class="terminal">
<path d="M324 346h0"></path>
<path d="M456 346h0"></path>
<rect x="324" y="335" width="132" height="22" rx="10" ry="10"></rect>
<text x="390" y="350">"TRANSPORTING"</text>
</g>
<path d="M456 346h10"></path>
<path d="M466 346h10"></path>
<g>
<path d="M476 346h0"></path>
<path d="M556 346h0"></path>
<path d="M476 346h10"></path>
<g class="non-terminal">
<path d="M486 346h0"></path>
<path d="M546 346h0"></path>
<rect x="486" y="335" width="60" height="22"></rect>
<a xlink:href="reuse_field.svg"><text x="516" y="350">Field</text>
</a>
</g>
<path d="M546 346h10"></path>
<path d="M486 346a10 10 0 0 0 -10 10v0a10 10 0 0 0 10 10"></path>
<g>
<path d="M486 366h60"></path>
</g>
<path d="M546 366a10 10 0 0 0 10 -10v0a10 10 0 0 0 -10 -10"></path>
</g>
</g>
<path d="M916 346a10 10 0 0 0 10 -10v-296"></path>
<path d="M314 40v335a10 10 0 0 0 10 10"></path>
<g class="terminal">
<path d="M324 385h0"></path>
<path d="M464 385h452"></path>
<rect x="324" y="374" width="140" height="22" rx="10" ry="10"></rect>
<text x="394" y="389">"BINARY SEARCH"</text>
</g>
<path d="M916 385a10 10 0 0 0 10 -10v-335"></path>
<g class="diagram-text">
<title>take one or more branches, once each, in any order</title>
<path d="M 314 30 h -26 a 4 4 0 0 0 -4 4 v 12 a 4 4 0 0 0 4 4 h 26 z" class="diagram-text"></path>
<text x="299" y="44" class="diagram-text">1+</text>
<path d="M 926 30 h 16 a 4 4 0 0 1 4 4 v 12 a 4 4 0 0 1 -4 4 h -16 z" class="diagram-text"></path>
<path d="M 933 38 a 4 4 0 1 0 6 -1 m 2.75 -1 h -4 v 4 m 0 -3 h 2" style="stroke-width: 1.75"></path>
</g>
</g>
<path d="M946 40h20"></path>
</g>
</g>
<path d="M966 40h10"></path>
<path d="M 976 40 h 20 m -10 -10 v 20 m 10 -20 v 20"></path>
</g>
</svg>
