<svg xmlns="http://www.w3.org/2000/svg" xmlns:xlink="http://www.w3.org/1999/xlink" class="railroad-diagram" width="804" height="140" viewBox="0 0 804 140">
<defs>
<style type="text/css"><![CDATA[
path {
stroke-width: 3;
stroke: black;
fill: rgba(0,0,0,0);
}
text {
font: bold 14px monospace;
text-anchor: middle;
}
text.diagram-text {
font-size: 12px;
}
a {
fill: blue;
}
text.diagram-arrow {
font-size: 16px;
}
text.label {
text-anchor: start;
}
text.comment {
font: italic 12px monospace;
}
rect {
stroke-width: 3;
stroke: black;
fill: #BCBCBC;
}
path.diagram-text {
stroke-width: 3;
stroke: black;
fill: #BCBCBC;
cursor: help;
}
]]></style>
</defs>
<g transform="translate(.5 .5)">
<path d="M 20 30 v 20 m 10 -20 v 20 m -10 -10 h 20.5"></path>
<path d="M40 40h10"></path>
<g>
<path d="M50 40h0"></path>
<path d="M754 40h0"></path>
<g class="terminal">
<path d="M50 40h0"></path>
<path d="M158 40h0"></path>
<rect x="50" y="29" width="108" height="22" rx="10" ry="10"></rect>
<text x="104" y="44">"READ LINE"</text>
</g>
<path d="M158 40h10"></path>
<path d="M168 40h10"></path>
<g class="non-terminal">
<path d="M178 40h0"></path>
<path d="M246 40h0"></path>
<rect x="178" y="29" width="68" height="22"></rect>
<a xlink:href="reuse_source.svg"><text x="212" y="44">Source</text>
</a>
</g>
<path d="M246 40h10"></path>
<g>
<path d="M256 40h0"></path>
<path d="M754 40h0"></path>
<path d="M256 40a10 10 0 0 0 10 -10v0a10 10 0 0 1 10 -10"></path>
<g>
<path d="M276 20h458"></path>
</g>
<path d="M734 20a10 10 0 0 1 10 10v0a10 10 0 0 0 10 10"></path>
<path d="M256 40h20"></path>
<g>
<path d="M276 40h0"></path>
<path d="M734 40h0"></path>
<path d="M276 40h20"></path>
<g>
<path d="M296 40h0"></path>
<path d="M540 40h174"></path>
<g class="terminal">
<path d="M296 40h0"></path>
<path d="M452 40h0"></path>
<rect x="296" y="29" width="156" height="22" rx="10" ry="10"></rect>
<text x="374" y="44">"LINE VALUE INTO"</text>
</g>
<path d="M452 40h10"></path>
<path d="M462 40h10"></path>
<g class="non-terminal">
<path d="M472 40h0"></path>
<path d="M540 40h0"></path>
<rect x="472" y="29" width="68" height="22"></rect>
<a xlink:href="reuse_target.svg"><text x="506" y="44">Target</text>
</a>
</g>
</g>
<path d="M714 40h20"></path>
<path d="M276 40a10 10 0 0 1 10 10v10a10 10 0 0 0 10 10"></path>
<g>
<path d="M296 70h0"></path>
<path d="M460 70h254"></path>
<g class="terminal">
<path d="M296 70h0"></path>
<path d="M372 70h0"></path>
<rect x="296" y="59" width="76" height="22" rx="10" ry="10"></rect>
<text x="334" y="74">"INDEX"</text>
</g>
<path d="M372 70h10"></path>
<path d="M382 70h10"></path>
<g class="non-terminal">
<path d="M392 70h0"></path>
<path d="M460 70h0"></path>
<rect x="392" y="59" width="68" height="22"></rect>
<a xlink:href="reuse_source.svg"><text x="426" y="74">Source</text>
</a>
</g>
</g>
<path d="M714 70a10 10 0 0 0 10 -10v-10a10 10 0 0 1 10 -10"></path>
<path d="M276 40a10 10 0 0 1 10 10v49a10 10 0 0 0 10 10"></path>
<g>
<path d="M296 109h0"></path>
<path d="M714 109h0"></path>
<g class="terminal">
<path d="M296 109h0"></path>
<path d="M420 109h0"></path>
<rect x="296" y="98" width="124" height="22" rx="10" ry="10"></rect>
<text x="358" y="113">"FIELD VALUE"</text>
</g>
<path d="M420 109h10"></path>
<path d="M430 109h10"></path>
<g class="non-terminal">
<path d="M440 109h0"></path>
<path d="M508 109h0"></path>
<rect x="440" y="98" width="68" height="22"></rect>
<a xlink:href="reuse_target.svg"><text x="474" y="113">Target</text>
</a>
</g>
<path d="M508 109h10"></path>
<g>
<path d="M518 109h0"></path>
<path d="M714 109h0"></path>
<path d="M518 109a10 10 0 0 0 10 -10v0a10 10 0 0 1 10 -10"></path>
<g>
<path d="M538 89h156"></path>
</g>
<path d="M694 89a10 10 0 0 1 10 10v0a10 10 0 0 0 10 10"></path>
<path d="M518 109h20"></path>
<g>
<path d="M538 109h0"></path>
<path d="M694 109h0"></path>
<g class="terminal">
<path d="M538 109h0"></path>
<path d="M606 109h0"></path>
<rect x="538" y="98" width="68" height="22" rx="10" ry="10"></rect>
<text x="572" y="113">"INTO"</text>
</g>
<path d="M606 109h10"></path>
<path d="M616 109h10"></path>
<g class="non-terminal">
<path d="M626 109h0"></path>
<path d="M694 109h0"></path>
<rect x="626" y="98" width="68" height="22"></rect>
<a xlink:href="reuse_target.svg"><text x="660" y="113">Target</text>
</a>
</g>
</g>
<path d="M694 109h20"></path>
</g>
</g>
<path d="M714 109a10 10 0 0 0 10 -10v-49a10 10 0 0 1 10 -10"></path>
</g>
<path d="M734 40h20"></path>
</g>
</g>
<path d="M754 40h10"></path>
<path d="M 764 40 h 20 m -10 -10 v 20 m 10 -20 v 20"></path>
</g>
</svg>
