<svg xmlns="http://www.w3.org/2000/svg" xmlns:xlink="http://www.w3.org/1999/xlink" class="railroad-diagram" width="606" height="122" viewBox="0 0 606 122">
<defs>
<style type="text/css"><![CDATA[
path {
stroke-width: 3;
stroke: black;
fill: rgba(0,0,0,0);
}
text {
font: bold 14px monospace;
text-anchor: middle;
}
text.diagram-text {
font-size: 12px;
}
a {
fill: blue;
}
text.diagram-arrow {
font-size: 16px;
}
text.label {
text-anchor: start;
}
text.comment {
font: italic 12px monospace;
}
rect {
stroke-width: 3;
stroke: black;
fill: #BCBCBC;
}
path.diagram-text {
stroke-width: 3;
stroke: black;
fill: #BCBCBC;
cursor: help;
}
]]></style>
</defs>
<g transform="translate(.5 .5)">
<path d="M 20 21 v 20 m 10 -20 v 20 m -10 -10 h 20.5"></path>
<path d="M40 31h10"></path>
<g>
<path d="M50 31h0"></path>
<path d="M556 31h0"></path>
<g class="terminal">
<path d="M50 31h0"></path>
<path d="M190 31h0"></path>
<rect x="50" y="20" width="140" height="22" rx="10" ry="10"></rect>
<text x="120" y="35">"READ TEXTPOOL"</text>
</g>
<path d="M190 31h10"></path>
<path d="M200 31h10"></path>
<g class="non-terminal">
<path d="M210 31h0"></path>
<path d="M278 31h0"></path>
<rect x="210" y="20" width="68" height="22"></rect>
<a xlink:href="reuse_source.svg"><text x="244" y="35">Source</text>
</a>
</g>
<path d="M278 31h10"></path>
<path d="M288 31h10"></path>
<g>
<path d="M298 31h0"></path>
<path d="M556 31h0"></path>
<path d="M328 31h10"></path>
<g>
<path d="M338 31h0"></path>
<path d="M494 31h32"></path>
<g class="terminal">
<path d="M338 31h0"></path>
<path d="M406 31h0"></path>
<rect x="338" y="20" width="68" height="22" rx="10" ry="10"></rect>
<text x="372" y="35">"INTO"</text>
</g>
<path d="M406 31h10"></path>
<path d="M416 31h10"></path>
<g class="non-terminal">
<path d="M426 31h0"></path>
<path d="M494 31h0"></path>
<rect x="426" y="20" width="68" height="22"></rect>
<a xlink:href="reuse_target.svg"><text x="460" y="35">Target</text>
</a>
</g>
</g>
<path d="M526 31h10"></path>
<path d="M328 31v20a10 10 0 0 0 10 10"></path>
<g>
<path d="M338 61h0"></path>
<path d="M526 61h0"></path>
<g class="terminal">
<path d="M338 61h0"></path>
<path d="M438 61h0"></path>
<rect x="338" y="50" width="100" height="22" rx="10" ry="10"></rect>
<text x="388" y="65">"LANGUAGE"</text>
</g>
<path d="M438 61h10"></path>
<path d="M448 61h10"></path>
<g class="non-terminal">
<path d="M458 61h0"></path>
<path d="M526 61h0"></path>
<rect x="458" y="50" width="68" height="22"></rect>
<a xlink:href="reuse_source.svg"><text x="492" y="65">Source</text>
</a>
</g>
</g>
<path d="M526 61a10 10 0 0 0 10 -10v-20"></path>
<path d="M328 31v50a10 10 0 0 0 10 10"></path>
<g>
<path d="M338 91h0"></path>
<path d="M502 91h24"></path>
<g class="terminal">
<path d="M338 91h0"></path>
<path d="M414 91h0"></path>
<rect x="338" y="80" width="76" height="22" rx="10" ry="10"></rect>
<text x="376" y="95">"STATE"</text>
</g>
<path d="M414 91h10"></path>
<path d="M424 91h10"></path>
<g class="non-terminal">
<path d="M434 91h0"></path>
<path d="M502 91h0"></path>
<rect x="434" y="80" width="68" height="22"></rect>
<a xlink:href="reuse_source.svg"><text x="468" y="95">Source</text>
</a>
</g>
</g>
<path d="M526 91a10 10 0 0 0 10 -10v-50"></path>
<g class="diagram-text">
<title>take one or more branches, once each, in any order</title>
<path d="M 328 21 h -26 a 4 4 0 0 0 -4 4 v 12 a 4 4 0 0 0 4 4 h 26 z" class="diagram-text"></path>
<text x="313" y="35" class="diagram-text">1+</text>
<path d="M 536 21 h 16 a 4 4 0 0 1 4 4 v 12 a 4 4 0 0 1 -4 4 h -16 z" class="diagram-text"></path>
<path d="M 543 29 a 4 4 0 1 0 6 -1 m 2.75 -1 h -4 v 4 m 0 -3 h 2" style="stroke-width: 1.75"></path>
</g>
</g>
</g>
<path d="M556 31h10"></path>
<path d="M 566 31 h 20 m -10 -10 v 20 m 10 -20 v 20"></path>
</g>
</svg>
