<svg xmlns="http://www.w3.org/2000/svg" xmlns:xlink="http://www.w3.org/1999/xlink" class="railroad-diagram" width="1398" height="492" viewBox="0 0 1398 492">
<defs>
<style type="text/css"><![CDATA[
path {
stroke-width: 3;
stroke: black;
fill: rgba(0,0,0,0);
}
text {
font: bold 14px monospace;
text-anchor: middle;
}
text.diagram-text {
font-size: 12px;
}
a {
fill: blue;
}
text.diagram-arrow {
font-size: 16px;
}
text.label {
text-anchor: start;
}
text.comment {
font: italic 12px monospace;
}
rect {
stroke-width: 3;
stroke: black;
fill: #BCBCBC;
}
path.diagram-text {
stroke-width: 3;
stroke: black;
fill: #BCBCBC;
cursor: help;
}
]]></style>
</defs>
<g transform="translate(.5 .5)">
<path d="M 20 30 v 20 m 10 -20 v 20 m -10 -10 h 20.5"></path>
<path d="M40 40h10"></path>
<g>
<path d="M50 40h0"></path>
<path d="M1348 40h0"></path>
<g class="terminal">
<path d="M50 40h0"></path>
<path d="M166 40h0"></path>
<rect x="50" y="29" width="116" height="22" rx="10" ry="10"></rect>
<text x="108" y="44">"READ TABLE"</text>
</g>
<path d="M166 40h10"></path>
<path d="M176 40h10"></path>
<g class="non-terminal">
<path d="M186 40h0"></path>
<path d="M254 40h0"></path>
<rect x="186" y="29" width="68" height="22"></rect>
<a xlink:href="reuse_source.svg"><text x="220" y="44">Source</text>
</a>
</g>
<path d="M254 40h10"></path>
<g>
<path d="M264 40h0"></path>
<path d="M1348 40h0"></path>
<path d="M264 40a10 10 0 0 0 10 -10v0a10 10 0 0 1 10 -10"></path>
<g>
<path d="M284 20h1044"></path>
</g>
<path d="M1328 20a10 10 0 0 1 10 10v0a10 10 0 0 0 10 10"></path>
<path d="M264 40h20"></path>
<g>
<path d="M284 40h0"></path>
<path d="M1328 40h0"></path>
<path d="M314 40h10"></path>
<g>
<path d="M324 40h0"></path>
<path d="M1298 40h0"></path>
<path d="M324 40h20"></path>
<g>
<path d="M344 40h0"></path>
<path d="M508 40h770"></path>
<g class="terminal">
<path d="M344 40h0"></path>
<path d="M420 40h0"></path>
<rect x="344" y="29" width="76" height="22" rx="10" ry="10"></rect>
<text x="382" y="44">"INDEX"</text>
</g>
<path d="M420 40h10"></path>
<path d="M430 40h10"></path>
<g class="non-terminal">
<path d="M440 40h0"></path>
<path d="M508 40h0"></path>
<rect x="440" y="29" width="68" height="22"></rect>
<a xlink:href="reuse_source.svg"><text x="474" y="44">Source</text>
</a>
</g>
</g>
<path d="M1278 40h20"></path>
<path d="M324 40a10 10 0 0 1 10 10v19a10 10 0 0 0 10 10"></path>
<g>
<path d="M344 79h0"></path>
<path d="M1278 79h0"></path>
<g>
<path d="M344 79h0"></path>
<path d="M532 79h0"></path>
<path d="M344 79h20"></path>
<g class="terminal">
<path d="M364 79h0"></path>
<path d="M464 79h48"></path>
<rect x="364" y="68" width="100" height="22" rx="10" ry="10"></rect>
<text x="414" y="83">"WITH KEY"</text>
</g>
<path d="M512 79h20"></path>
<path d="M344 79a10 10 0 0 1 10 10v10a10 10 0 0 0 10 10"></path>
<g class="terminal">
<path d="M364 109h0"></path>
<path d="M512 109h0"></path>
<rect x="364" y="98" width="148" height="22" rx="10" ry="10"></rect>
<text x="438" y="113">"WITH TABLE KEY"</text>
</g>
<path d="M512 109a10 10 0 0 0 10 -10v-10a10 10 0 0 1 10 -10"></path>
</g>
<g>
<path d="M532 79h0"></path>
<path d="M1278 79h0"></path>
<path d="M532 79h20"></path>
<g>
<path d="M552 79h0"></path>
<path d="M996 79h262"></path>
<path d="M552 79h10"></path>
<g>
<path d="M562 79h0"></path>
<path d="M986 79h0"></path>
<g>
<path d="M562 79h0"></path>
<path d="M844 79h0"></path>
<path d="M562 79h20"></path>
<g>
<path d="M582 79h0"></path>
<path d="M824 79h0"></path>
<g class="non-terminal">
<path d="M582 79h0"></path>
<path d="M666 79h0"></path>
<rect x="582" y="68" width="84" height="22"></rect>
<a xlink:href="reuse_fieldsub.svg"><text x="624" y="83">FieldSub</text>
</a>
</g>
<path d="M666 79h10"></path>
<g>
<path d="M676 79h0"></path>
<path d="M824 79h0"></path>
<path d="M676 79a10 10 0 0 0 10 -10v0a10 10 0 0 1 10 -10"></path>
<g>
<path d="M696 59h108"></path>
</g>
<path d="M804 59a10 10 0 0 1 10 10v0a10 10 0 0 0 10 10"></path>
<path d="M676 79h20"></path>
<g class="non-terminal">
<path d="M696 79h0"></path>
<path d="M804 79h0"></path>
<rect x="696" y="68" width="108" height="22"></rect>
<a xlink:href="reuse_fieldlength.svg"><text x="750" y="83">FieldLength</text>
</a>
</g>
<path d="M804 79h20"></path>
</g>
</g>
<path d="M824 79h20"></path>
<path d="M562 79a10 10 0 0 1 10 10v10a10 10 0 0 0 10 10"></path>
<g class="non-terminal">
<path d="M582 109h0"></path>
<path d="M658 109h166"></path>
<rect x="582" y="98" width="76" height="22"></rect>
<a xlink:href="reuse_dynamic.svg"><text x="620" y="113">Dynamic</text>
</a>
</g>
<path d="M824 109a10 10 0 0 0 10 -10v-10a10 10 0 0 1 10 -10"></path>
</g>
<path d="M844 79h10"></path>
<g class="terminal">
<path d="M854 79h0"></path>
<path d="M898 79h0"></path>
<rect x="854" y="68" width="44" height="22" rx="10" ry="10"></rect>
<text x="876" y="83">"="</text>
</g>
<path d="M898 79h10"></path>
<path d="M908 79h10"></path>
<g class="non-terminal">
<path d="M918 79h0"></path>
<path d="M986 79h0"></path>
<rect x="918" y="68" width="68" height="22"></rect>
<a xlink:href="reuse_source.svg"><text x="952" y="83">Source</text>
</a>
</g>
</g>
<path d="M986 79h10"></path>
<path d="M562 79a10 10 0 0 0 -10 10v29a10 10 0 0 0 10 10"></path>
<g>
<path d="M562 128h424"></path>
</g>
<path d="M986 128a10 10 0 0 0 10 -10v-29a10 10 0 0 0 -10 -10"></path>
</g>
<path d="M1258 79h20"></path>
<path d="M532 79a10 10 0 0 1 10 10v57a10 10 0 0 0 10 10"></path>
<g>
<path d="M552 156h0"></path>
<path d="M1258 156h0"></path>
<g>
<path d="M552 156h0"></path>
<path d="M668 156h0"></path>
<path d="M552 156h20"></path>
<g class="non-terminal">
<path d="M572 156h0"></path>
<path d="M632 156h16"></path>
<rect x="572" y="145" width="60" height="22"></rect>
<a xlink:href="reuse_field.svg"><text x="602" y="160">Field</text>
</a>
</g>
<path d="M648 156h20"></path>
<path d="M552 156a10 10 0 0 1 10 10v10a10 10 0 0 0 10 10"></path>
<g class="non-terminal">
<path d="M572 186h0"></path>
<path d="M648 186h0"></path>
<rect x="572" y="175" width="76" height="22"></rect>
<a xlink:href="reuse_dynamic.svg"><text x="610" y="190">Dynamic</text>
</a>
</g>
<path d="M648 186a10 10 0 0 0 10 -10v-10a10 10 0 0 1 10 -10"></path>
</g>
<path d="M668 156h10"></path>
<g class="terminal">
<path d="M678 156h0"></path>
<path d="M794 156h0"></path>
<rect x="678" y="145" width="116" height="22" rx="10" ry="10"></rect>
<text x="736" y="160">"COMPONENTS"</text>
</g>
<path d="M794 156h10"></path>
<path d="M804 156h10"></path>
<g>
<path d="M814 156h0"></path>
<path d="M1258 156h0"></path>
<path d="M814 156h10"></path>
<g>
<path d="M824 156h0"></path>
<path d="M1248 156h0"></path>
<g>
<path d="M824 156h0"></path>
<path d="M1106 156h0"></path>
<path d="M824 156h20"></path>
<g>
<path d="M844 156h0"></path>
<path d="M1086 156h0"></path>
<g class="non-terminal">
<path d="M844 156h0"></path>
<path d="M928 156h0"></path>
<rect x="844" y="145" width="84" height="22"></rect>
<a xlink:href="reuse_fieldsub.svg"><text x="886" y="160">FieldSub</text>
</a>
</g>
<path d="M928 156h10"></path>
<g>
<path d="M938 156h0"></path>
<path d="M1086 156h0"></path>
<path d="M938 156a10 10 0 0 0 10 -10v0a10 10 0 0 1 10 -10"></path>
<g>
<path d="M958 136h108"></path>
</g>
<path d="M1066 136a10 10 0 0 1 10 10v0a10 10 0 0 0 10 10"></path>
<path d="M938 156h20"></path>
<g class="non-terminal">
<path d="M958 156h0"></path>
<path d="M1066 156h0"></path>
<rect x="958" y="145" width="108" height="22"></rect>
<a xlink:href="reuse_fieldlength.svg"><text x="1012" y="160">FieldLength</text>
</a>
</g>
<path d="M1066 156h20"></path>
</g>
</g>
<path d="M1086 156h20"></path>
<path d="M824 156a10 10 0 0 1 10 10v10a10 10 0 0 0 10 10"></path>
<g class="non-terminal">
<path d="M844 186h0"></path>
<path d="M920 186h166"></path>
<rect x="844" y="175" width="76" height="22"></rect>
<a xlink:href="reuse_dynamic.svg"><text x="882" y="190">Dynamic</text>
</a>
</g>
<path d="M1086 186a10 10 0 0 0 10 -10v-10a10 10 0 0 1 10 -10"></path>
</g>
<path d="M1106 156h10"></path>
<g class="terminal">
<path d="M1116 156h0"></path>
<path d="M1160 156h0"></path>
<rect x="1116" y="145" width="44" height="22" rx="10" ry="10"></rect>
<text x="1138" y="160">"="</text>
</g>
<path d="M1160 156h10"></path>
<path d="M1170 156h10"></path>
<g class="non-terminal">
<path d="M1180 156h0"></path>
<path d="M1248 156h0"></path>
<rect x="1180" y="145" width="68" height="22"></rect>
<a xlink:href="reuse_source.svg"><text x="1214" y="160">Source</text>
</a>
</g>
</g>
<path d="M1248 156h10"></path>
<path d="M824 156a10 10 0 0 0 -10 10v29a10 10 0 0 0 10 10"></path>
<g>
<path d="M824 205h424"></path>
</g>
<path d="M1248 205a10 10 0 0 0 10 -10v-29a10 10 0 0 0 -10 -10"></path>
</g>
</g>
<path d="M1258 156a10 10 0 0 0 10 -10v-57a10 10 0 0 1 10 -10"></path>
<path d="M532 79a10 10 0 0 1 10 10v134a10 10 0 0 0 10 10"></path>
<g>
<path d="M552 233h0"></path>
<path d="M714 233h544"></path>
<g>
<path d="M552 233h0"></path>
<path d="M636 233h0"></path>
<path d="M552 233a10 10 0 0 0 10 -10v0a10 10 0 0 1 10 -10"></path>
<g>
<path d="M572 213h44"></path>
</g>
<path d="M616 213a10 10 0 0 1 10 10v0a10 10 0 0 0 10 10"></path>
<path d="M552 233h20"></path>
<g class="terminal">
<path d="M572 233h0"></path>
<path d="M616 233h0"></path>
<rect x="572" y="222" width="44" height="22" rx="10" ry="10"></rect>
<text x="594" y="237">"="</text>
</g>
<path d="M616 233h20"></path>
</g>
<path d="M636 233h10"></path>
<g class="non-terminal">
<path d="M646 233h0"></path>
<path d="M714 233h0"></path>
<rect x="646" y="222" width="68" height="22"></rect>
<a xlink:href="reuse_source.svg"><text x="680" y="237">Source</text>
</a>
</g>
</g>
<path d="M1258 233a10 10 0 0 0 10 -10v-134a10 10 0 0 1 10 -10"></path>
</g>
</g>
<path d="M1278 79a10 10 0 0 0 10 -10v-19a10 10 0 0 1 10 -10"></path>
<path d="M324 40a10 10 0 0 1 10 10v203a10 10 0 0 0 10 10"></path>
<g>
<path d="M344 263h0"></path>
<path d="M500 263h778"></path>
<g class="terminal">
<path d="M344 263h0"></path>
<path d="M412 263h0"></path>
<rect x="344" y="252" width="68" height="22" rx="10" ry="10"></rect>
<text x="378" y="267">"FROM"</text>
</g>
<path d="M412 263h10"></path>
<path d="M422 263h10"></path>
<g class="non-terminal">
<path d="M432 263h0"></path>
<path d="M500 263h0"></path>
<rect x="432" y="252" width="68" height="22"></rect>
<a xlink:href="reuse_source.svg"><text x="466" y="267">Source</text>
</a>
</g>
</g>
<path d="M1278 263a10 10 0 0 0 10 -10v-203a10 10 0 0 1 10 -10"></path>
</g>
<path d="M1298 40h10"></path>
<path d="M314 40v243a10 10 0 0 0 10 10"></path>
<g>
<path d="M324 293h0"></path>
<path d="M916 293h382"></path>
<path d="M324 293h20"></path>
<g>
<path d="M344 293h0"></path>
<path d="M540 293h356"></path>
<g class="terminal">
<path d="M344 293h0"></path>
<path d="M452 293h0"></path>
<rect x="344" y="282" width="108" height="22" rx="10" ry="10"></rect>
<text x="398" y="297">"ASSIGNING"</text>
</g>
<path d="M452 293h10"></path>
<path d="M462 293h10"></path>
<g class="non-terminal">
<path d="M472 293h0"></path>
<path d="M540 293h0"></path>
<rect x="472" y="282" width="68" height="22"></rect>
<a xlink:href="reuse_target.svg"><text x="506" y="297">Target</text>
</a>
</g>
</g>
<path d="M896 293h20"></path>
<path d="M324 293a10 10 0 0 1 10 10v19a10 10 0 0 0 10 10"></path>
<g>
<path d="M344 332h0"></path>
<path d="M896 332h0"></path>
<g>
<path d="M344 332h0"></path>
<path d="M492 332h0"></path>
<path d="M344 332a10 10 0 0 0 10 -10v0a10 10 0 0 1 10 -10"></path>
<g>
<path d="M364 312h108"></path>
</g>
<path d="M472 312a10 10 0 0 1 10 10v0a10 10 0 0 0 10 10"></path>
<path d="M344 332h20"></path>
<g class="terminal">
<path d="M364 332h0"></path>
<path d="M472 332h0"></path>
<rect x="364" y="321" width="108" height="22" rx="10" ry="10"></rect>
<text x="418" y="336">"REFERENCE"</text>
</g>
<path d="M472 332h20"></path>
</g>
<path d="M492 332h10"></path>
<g class="terminal">
<path d="M502 332h0"></path>
<path d="M570 332h0"></path>
<rect x="502" y="321" width="68" height="22" rx="10" ry="10"></rect>
<text x="536" y="336">"INTO"</text>
</g>
<path d="M570 332h10"></path>
<path d="M580 332h10"></path>
<g class="non-terminal">
<path d="M590 332h0"></path>
<path d="M658 332h0"></path>
<rect x="590" y="321" width="68" height="22"></rect>
<a xlink:href="reuse_target.svg"><text x="624" y="336">Target</text>
</a>
</g>
<path d="M658 332h10"></path>
<g>
<path d="M668 332h0"></path>
<path d="M896 332h0"></path>
<path d="M668 332a10 10 0 0 0 10 -10v0a10 10 0 0 1 10 -10"></path>
<g>
<path d="M688 312h188"></path>
</g>
<path d="M876 312a10 10 0 0 1 10 10v0a10 10 0 0 0 10 10"></path>
<path d="M668 332h20"></path>
<g>
<path d="M688 332h0"></path>
<path d="M876 332h0"></path>
<g class="terminal">
<path d="M688 332h0"></path>
<path d="M796 332h0"></path>
<rect x="688" y="321" width="108" height="22" rx="10" ry="10"></rect>
<text x="742" y="336">"COMPARING"</text>
</g>
<path d="M796 332h10"></path>
<path d="M806 332h10"></path>
<g class="non-terminal">
<path d="M816 332h0"></path>
<path d="M876 332h0"></path>
<rect x="816" y="321" width="60" height="22"></rect>
<a xlink:href="reuse_field.svg"><text x="846" y="336">Field</text>
</a>
</g>
</g>
<path d="M876 332h20"></path>
</g>
</g>
<path d="M896 332a10 10 0 0 0 10 -10v-19a10 10 0 0 1 10 -10"></path>
<path d="M324 293a10 10 0 0 1 10 10v49a10 10 0 0 0 10 10"></path>
<g class="terminal">
<path d="M344 362h0"></path>
<path d="M556 362h340"></path>
<rect x="344" y="351" width="212" height="22" rx="10" ry="10"></rect>
<text x="450" y="366">"TRANSPORTING NO FIELDS"</text>
</g>
<path d="M896 362a10 10 0 0 0 10 -10v-49a10 10 0 0 1 10 -10"></path>
</g>
<path d="M1298 293a10 10 0 0 0 10 -10v-243"></path>
<path d="M314 40v342a10 10 0 0 0 10 10"></path>
<g class="terminal">
<path d="M324 392h0"></path>
<path d="M416 392h882"></path>
<rect x="324" y="381" width="92" height="22" rx="10" ry="10"></rect>
<text x="370" y="396">"CASTING"</text>
</g>
<path d="M1298 392a10 10 0 0 0 10 -10v-342"></path>
<path d="M314 40v372a10 10 0 0 0 10 10"></path>
<g>
<path d="M324 422h0"></path>
<path d="M556 422h742"></path>
<g class="terminal">
<path d="M324 422h0"></path>
<path d="M456 422h0"></path>
<rect x="324" y="411" width="132" height="22" rx="10" ry="10"></rect>
<text x="390" y="426">"TRANSPORTING"</text>
</g>
<path d="M456 422h10"></path>
<path d="M466 422h10"></path>
<g>
<path d="M476 422h0"></path>
<path d="M556 422h0"></path>
<path d="M476 422h10"></path>
<g class="non-terminal">
<path d="M486 422h0"></path>
<path d="M546 422h0"></path>
<rect x="486" y="411" width="60" height="22"></rect>
<a xlink:href="reuse_field.svg"><text x="516" y="426">Field</text>
</a>
</g>
<path d="M546 422h10"></path>
<path d="M486 422a10 10 0 0 0 -10 10v0a10 10 0 0 0 10 10"></path>
<g>
<path d="M486 442h60"></path>
</g>
<path d="M546 442a10 10 0 0 0 10 -10v0a10 10 0 0 0 -10 -10"></path>
</g>
</g>
<path d="M1298 422a10 10 0 0 0 10 -10v-372"></path>
<path d="M314 40v411a10 10 0 0 0 10 10"></path>
<g class="terminal">
<path d="M324 461h0"></path>
<path d="M464 461h834"></path>
<rect x="324" y="450" width="140" height="22" rx="10" ry="10"></rect>
<text x="394" y="465">"BINARY SEARCH"</text>
</g>
<path d="M1298 461a10 10 0 0 0 10 -10v-411"></path>
<g class="diagram-text">
<title>take one or more branches, once each, in any order</title>
<path d="M 314 30 h -26 a 4 4 0 0 0 -4 4 v 12 a 4 4 0 0 0 4 4 h 26 z" class="diagram-text"></path>
<text x="299" y="44" class="diagram-text">1+</text>
<path d="M 1308 30 h 16 a 4 4 0 0 1 4 4 v 12 a 4 4 0 0 1 -4 4 h -16 z" class="diagram-text"></path>
<path d="M 1315 38 a 4 4 0 1 0 6 -1 m 2.75 -1 h -4 v 4 m 0 -3 h 2" style="stroke-width: 1.75"></path>
</g>
</g>
<path d="M1328 40h20"></path>
</g>
</g>
<path d="M1348 40h10"></path>
<path d="M 1358 40 h 20 m -10 -10 v 20 m 10 -20 v 20"></path>
</g>
</svg>
