<svg xmlns="http://www.w3.org/2000/svg" xmlns:xlink="http://www.w3.org/1999/xlink" class="railroad-diagram" width="566" height="92" viewBox="0 0 566 92">
<defs>
<style type="text/css"><![CDATA[
path {
stroke-width: 3;
stroke: black;
fill: rgba(0,0,0,0);
}
text {
font: bold 14px monospace;
text-anchor: middle;
}
text.diagram-text {
font-size: 12px;
}
a {
fill: blue;
}
text.diagram-arrow {
font-size: 16px;
}
text.label {
text-anchor: start;
}
text.comment {
font: italic 12px monospace;
}
rect {
stroke-width: 3;
stroke: black;
fill: #BCBCBC;
}
path.diagram-text {
stroke-width: 3;
stroke: black;
fill: #BCBCBC;
cursor: help;
}
]]></style>
</defs>
<g transform="translate(.5 .5)">
<path d="M 20 21 v 20 m 10 -20 v 20 m -10 -10 h 20.5"></path>
<path d="M40 31h10"></path>
<g>
<path d="M50 31h0"></path>
<path d="M516 31h0"></path>
<g class="terminal">
<path d="M50 31h0"></path>
<path d="M174 31h0"></path>
<rect x="50" y="20" width="124" height="22" rx="10" ry="10"></rect>
<text x="112" y="35">"READ REPORT"</text>
</g>
<path d="M174 31h10"></path>
<path d="M184 31h10"></path>
<g class="non-terminal">
<path d="M194 31h0"></path>
<path d="M262 31h0"></path>
<rect x="194" y="20" width="68" height="22"></rect>
<a xlink:href="reuse_source.svg"><text x="228" y="35">Source</text>
</a>
</g>
<path d="M262 31h10"></path>
<path d="M272 31h10"></path>
<g>
<path d="M282 31h0"></path>
<path d="M516 31h0"></path>
<path d="M312 31h10"></path>
<g>
<path d="M322 31h0"></path>
<path d="M486 31h0"></path>
<g class="terminal">
<path d="M322 31h0"></path>
<path d="M398 31h0"></path>
<rect x="322" y="20" width="76" height="22" rx="10" ry="10"></rect>
<text x="360" y="35">"STATE"</text>
</g>
<path d="M398 31h10"></path>
<path d="M408 31h10"></path>
<g class="non-terminal">
<path d="M418 31h0"></path>
<path d="M486 31h0"></path>
<rect x="418" y="20" width="68" height="22"></rect>
<a xlink:href="reuse_source.svg"><text x="452" y="35">Source</text>
</a>
</g>
</g>
<path d="M486 31h10"></path>
<path d="M312 31v20a10 10 0 0 0 10 10"></path>
<g>
<path d="M322 61h0"></path>
<path d="M478 61h8"></path>
<g class="terminal">
<path d="M322 61h0"></path>
<path d="M390 61h0"></path>
<rect x="322" y="50" width="68" height="22" rx="10" ry="10"></rect>
<text x="356" y="65">"INTO"</text>
</g>
<path d="M390 61h10"></path>
<path d="M400 61h10"></path>
<g class="non-terminal">
<path d="M410 61h0"></path>
<path d="M478 61h0"></path>
<rect x="410" y="50" width="68" height="22"></rect>
<a xlink:href="reuse_target.svg"><text x="444" y="65">Target</text>
</a>
</g>
</g>
<path d="M486 61a10 10 0 0 0 10 -10v-20"></path>
<g class="diagram-text">
<title>take one or more branches, once each, in any order</title>
<path d="M 312 21 h -26 a 4 4 0 0 0 -4 4 v 12 a 4 4 0 0 0 4 4 h 26 z" class="diagram-text"></path>
<text x="297" y="35" class="diagram-text">1+</text>
<path d="M 496 21 h 16 a 4 4 0 0 1 4 4 v 12 a 4 4 0 0 1 -4 4 h -16 z" class="diagram-text"></path>
<path d="M 503 29 a 4 4 0 1 0 6 -1 m 2.75 -1 h -4 v 4 m 0 -3 h 2" style="stroke-width: 1.75"></path>
</g>
</g>
</g>
<path d="M516 31h10"></path>
<path d="M 526 31 h 20 m -10 -10 v 20 m 10 -20 v 20"></path>
</g>
</svg>
