<?xml version="1.0" encoding="UTF-8" standalone="no"?>
<!DOCTYPE svg PUBLIC "-//W3C//DTD SVG 1.1//EN"
 "http://www.w3.org/Graphics/SVG/1.1/DTD/svg11.dtd">
<!-- Generated by graphviz version 2.38.0 (20140413.2041)
 -->
<!-- Title: readline Pages: 1 -->
<svg width="211pt" height="404pt"
 viewBox="0.00 0.00 211.00 404.00" xmlns="http://www.w3.org/2000/svg" xmlns:xlink="http://www.w3.org/1999/xlink">
<g id="graph0" class="graph" transform="scale(1 1) rotate(0) translate(4 400)">
<title>readline</title>
<polygon fill="white" stroke="none" points="-4,4 -4,-400 206.996,-400 206.996,4 -4,4"/>
<!-- start -->
<g id="node1" class="node"><title>start</title>
<polygon fill="none" stroke="black" points="128.498,-396 74.4979,-396 74.4979,-360 128.498,-360 128.498,-396"/>
<text text-anchor="middle" x="101.498" y="-373.8" font-family="Times,serif" font-size="14.00">Start</text>
</g>
<!-- node589 -->
<g id="node6" class="node"><title>node589</title>
<ellipse fill="none" stroke="black" cx="101.498" cy="-306" rx="69.6926" ry="18"/>
<text text-anchor="middle" x="101.498" y="-301.8" font-family="Times,serif" font-size="14.00">&quot;READ LINE&quot;</text>
</g>
<!-- start&#45;&gt;node589 -->
<g id="edge5" class="edge"><title>start&#45;&gt;node589</title>
<path fill="none" stroke="black" d="M101.498,-359.697C101.498,-351.983 101.498,-342.712 101.498,-334.112"/>
<polygon fill="black" stroke="black" points="104.998,-334.104 101.498,-324.104 97.998,-334.104 104.998,-334.104"/>
</g>
<!-- end -->
<g id="node2" class="node"><title>end</title>
<polygon fill="none" stroke="black" points="128.498,-36 74.4979,-36 74.4979,-0 128.498,-0 128.498,-36"/>
<text text-anchor="middle" x="101.498" y="-13.8" font-family="Times,serif" font-size="14.00">End</text>
</g>
<!-- node586 -->
<g id="node3" class="node"><title>node586</title>
<g id="a_node3"><a xlink:href="reuse_target.svg" xlink:title="&lt;u&gt;target&lt;/u&gt;">
<ellipse fill="none" stroke="black" cx="101.498" cy="-90" rx="33.0411" ry="18"/>
<text text-anchor="start" x="85.5624" y="-86.8" font-family="Times,serif" text-decoration="underline" font-size="14.00" fill="blue">target</text>
</a>
</g>
</g>
<!-- node586&#45;&gt;end -->
<g id="edge1" class="edge"><title>node586&#45;&gt;end</title>
<path fill="none" stroke="black" d="M101.498,-71.6966C101.498,-63.9827 101.498,-54.7125 101.498,-46.1124"/>
<polygon fill="black" stroke="black" points="104.998,-46.1043 101.498,-36.1043 97.998,-46.1044 104.998,-46.1043"/>
</g>
<!-- node587 -->
<g id="node4" class="node"><title>node587</title>
<ellipse fill="none" stroke="black" cx="101.498" cy="-162" rx="101.496" ry="18"/>
<text text-anchor="middle" x="101.498" y="-157.8" font-family="Times,serif" font-size="14.00">&quot;LINE VALUE INTO&quot;</text>
</g>
<!-- node587&#45;&gt;node586 -->
<g id="edge2" class="edge"><title>node587&#45;&gt;node586</title>
<path fill="none" stroke="black" d="M101.498,-143.697C101.498,-135.983 101.498,-126.712 101.498,-118.112"/>
<polygon fill="black" stroke="black" points="104.998,-118.104 101.498,-108.104 97.998,-118.104 104.998,-118.104"/>
</g>
<!-- node588 -->
<g id="node5" class="node"><title>node588</title>
<g id="a_node5"><a xlink:href="reuse_source.svg" xlink:title="&lt;u&gt;source&lt;/u&gt;">
<ellipse fill="none" stroke="black" cx="101.498" cy="-234" rx="36.4761" ry="18"/>
<text text-anchor="start" x="83.2307" y="-230.8" font-family="Times,serif" text-decoration="underline" font-size="14.00" fill="blue">source</text>
</a>
</g>
</g>
<!-- node588&#45;&gt;node587 -->
<g id="edge3" class="edge"><title>node588&#45;&gt;node587</title>
<path fill="none" stroke="black" d="M101.498,-215.697C101.498,-207.983 101.498,-198.712 101.498,-190.112"/>
<polygon fill="black" stroke="black" points="104.998,-190.104 101.498,-180.104 97.998,-190.104 104.998,-190.104"/>
</g>
<!-- node589&#45;&gt;node588 -->
<g id="edge4" class="edge"><title>node589&#45;&gt;node588</title>
<path fill="none" stroke="black" d="M101.498,-287.697C101.498,-279.983 101.498,-270.712 101.498,-262.112"/>
<polygon fill="black" stroke="black" points="104.998,-262.104 101.498,-252.104 97.998,-262.104 104.998,-262.104"/>
</g>
</g>
</svg>
