<svg xmlns="http://www.w3.org/2000/svg" xmlns:xlink="http://www.w3.org/1999/xlink" class="railroad-diagram" width="948" height="260" viewBox="0 0 948 260">
<defs>
<style type="text/css"><![CDATA[
path {
stroke-width: 3;
stroke: black;
fill: rgba(0,0,0,0);
}
text {
font: bold 14px monospace;
text-anchor: middle;
}
text.diagram-text {
font-size: 12px;
}
a {
fill: blue;
}
text.diagram-arrow {
font-size: 16px;
}
text.label {
text-anchor: start;
}
text.comment {
font: italic 12px monospace;
}
rect {
stroke-width: 3;
stroke: black;
fill: #BCBCBC;
}
path.diagram-text {
stroke-width: 3;
stroke: black;
fill: #BCBCBC;
cursor: help;
}
]]></style>
</defs>
<g transform="translate(.5 .5)">
<path d="M 20 30 v 20 m 10 -20 v 20 m -10 -10 h 20.5"></path>
<path d="M40 40h10"></path>
<g>
<path d="M50 40h0"></path>
<path d="M898 40h0"></path>
<g class="terminal">
<path d="M50 40h0"></path>
<path d="M166 40h0"></path>
<rect x="50" y="29" width="116" height="22" rx="10" ry="10"></rect>
<text x="108" y="44">"READ TABLE"</text>
</g>
<path d="M166 40h10"></path>
<path d="M176 40h10"></path>
<g class="non-terminal">
<path d="M186 40h0"></path>
<path d="M254 40h0"></path>
<rect x="186" y="29" width="68" height="22"></rect>
<a xlink:href="reuse_source.svg"><text x="220" y="44">source</text>
</a>
</g>
<path d="M254 40h10"></path>
<g>
<path d="M264 40h0"></path>
<path d="M898 40h0"></path>
<path d="M264 40a10 10 0 0 0 10 -10v0a10 10 0 0 1 10 -10"></path>
<g>
<path d="M284 20h594"></path>
</g>
<path d="M878 20a10 10 0 0 1 10 10v0a10 10 0 0 0 10 10"></path>
<path d="M264 40h20"></path>
<g>
<path d="M284 40h0"></path>
<path d="M878 40h0"></path>
<path d="M314 40h10"></path>
<g>
<path d="M324 40h0"></path>
<path d="M848 40h0"></path>
<path d="M324 40h20"></path>
<g>
<path d="M344 40h160"></path>
<path d="M668 40h160"></path>
<g class="terminal">
<path d="M504 40h0"></path>
<path d="M580 40h0"></path>
<rect x="504" y="29" width="76" height="22" rx="10" ry="10"></rect>
<text x="542" y="44">"INDEX"</text>
</g>
<path d="M580 40h10"></path>
<path d="M590 40h10"></path>
<g class="non-terminal">
<path d="M600 40h0"></path>
<path d="M668 40h0"></path>
<rect x="600" y="29" width="68" height="22"></rect>
<a xlink:href="reuse_source.svg"><text x="634" y="44">source</text>
</a>
</g>
</g>
<path d="M828 40h20"></path>
<path d="M324 40a10 10 0 0 1 10 10v19a10 10 0 0 0 10 10"></path>
<g>
<path d="M344 79h0"></path>
<path d="M828 79h0"></path>
<g>
<path d="M344 79h0"></path>
<path d="M532 79h0"></path>
<path d="M344 79h20"></path>
<g class="terminal">
<path d="M364 79h24"></path>
<path d="M488 79h24"></path>
<rect x="388" y="68" width="100" height="22" rx="10" ry="10"></rect>
<text x="438" y="83">"WITH KEY"</text>
</g>
<path d="M512 79h20"></path>
<path d="M344 79a10 10 0 0 1 10 10v10a10 10 0 0 0 10 10"></path>
<g class="terminal">
<path d="M364 109h0"></path>
<path d="M512 109h0"></path>
<rect x="364" y="98" width="148" height="22" rx="10" ry="10"></rect>
<text x="438" y="113">"WITH TABLE KEY"</text>
</g>
<path d="M512 109a10 10 0 0 0 10 -10v-10a10 10 0 0 1 10 -10"></path>
</g>
<path d="M532 79h10"></path>
<g>
<path d="M542 79h0"></path>
<path d="M638 79h0"></path>
<path d="M542 79h10"></path>
<g class="non-terminal">
<path d="M552 79h0"></path>
<path d="M628 79h0"></path>
<rect x="552" y="68" width="76" height="22"></rect>
<a xlink:href="reuse_compare.svg"><text x="590" y="83">compare</text>
</a>
</g>
<path d="M628 79h10"></path>
<path d="M552 79a10 10 0 0 0 -10 10v0a10 10 0 0 0 10 10"></path>
<g>
<path d="M552 99h76"></path>
</g>
<path d="M628 99a10 10 0 0 0 10 -10v0a10 10 0 0 0 -10 -10"></path>
</g>
<path d="M638 79h10"></path>
<g>
<path d="M648 79h0"></path>
<path d="M828 79h0"></path>
<path d="M648 79a10 10 0 0 0 10 -10v0a10 10 0 0 1 10 -10"></path>
<g>
<path d="M668 59h140"></path>
</g>
<path d="M808 59a10 10 0 0 1 10 10v0a10 10 0 0 0 10 10"></path>
<path d="M648 79h20"></path>
<g class="terminal">
<path d="M668 79h0"></path>
<path d="M808 79h0"></path>
<rect x="668" y="68" width="140" height="22" rx="10" ry="10"></rect>
<text x="738" y="83">"BINARY SEARCH"</text>
</g>
<path d="M808 79h20"></path>
</g>
</g>
<path d="M828 79a10 10 0 0 0 10 -10v-19a10 10 0 0 1 10 -10"></path>
<path d="M324 40a10 10 0 0 1 10 10v79a10 10 0 0 0 10 10"></path>
<g>
<path d="M344 139h164"></path>
<path d="M664 139h164"></path>
<g class="terminal">
<path d="M508 139h0"></path>
<path d="M576 139h0"></path>
<rect x="508" y="128" width="68" height="22" rx="10" ry="10"></rect>
<text x="542" y="143">"FROM"</text>
</g>
<path d="M576 139h10"></path>
<path d="M586 139h10"></path>
<g class="non-terminal">
<path d="M596 139h0"></path>
<path d="M664 139h0"></path>
<rect x="596" y="128" width="68" height="22"></rect>
<a xlink:href="reuse_source.svg"><text x="630" y="143">source</text>
</a>
</g>
</g>
<path d="M828 139a10 10 0 0 0 10 -10v-79a10 10 0 0 1 10 -10"></path>
</g>
<path d="M848 40h10"></path>
<path d="M314 40v119a10 10 0 0 0 10 10"></path>
<g>
<path d="M324 169h136"></path>
<path d="M712 169h136"></path>
<path d="M460 169h20"></path>
<g>
<path d="M480 169h8"></path>
<path d="M684 169h8"></path>
<g class="terminal">
<path d="M488 169h0"></path>
<path d="M596 169h0"></path>
<rect x="488" y="158" width="108" height="22" rx="10" ry="10"></rect>
<text x="542" y="173">"ASSIGNING"</text>
</g>
<path d="M596 169h10"></path>
<path d="M606 169h10"></path>
<g class="non-terminal">
<path d="M616 169h0"></path>
<path d="M684 169h0"></path>
<rect x="616" y="158" width="68" height="22"></rect>
<a xlink:href="reuse_target.svg"><text x="650" y="173">target</text>
</a>
</g>
</g>
<path d="M692 169h20"></path>
<path d="M460 169a10 10 0 0 1 10 10v10a10 10 0 0 0 10 10"></path>
<g>
<path d="M480 199h28"></path>
<path d="M664 199h28"></path>
<g class="terminal">
<path d="M508 199h0"></path>
<path d="M576 199h0"></path>
<rect x="508" y="188" width="68" height="22" rx="10" ry="10"></rect>
<text x="542" y="203">"INTO"</text>
</g>
<path d="M576 199h10"></path>
<path d="M586 199h10"></path>
<g class="non-terminal">
<path d="M596 199h0"></path>
<path d="M664 199h0"></path>
<rect x="596" y="188" width="68" height="22"></rect>
<a xlink:href="reuse_target.svg"><text x="630" y="203">target</text>
</a>
</g>
</g>
<path d="M692 199a10 10 0 0 0 10 -10v-10a10 10 0 0 1 10 -10"></path>
<path d="M460 169a10 10 0 0 1 10 10v40a10 10 0 0 0 10 10"></path>
<g class="terminal">
<path d="M480 229h0"></path>
<path d="M692 229h0"></path>
<rect x="480" y="218" width="212" height="22" rx="10" ry="10"></rect>
<text x="586" y="233">"TRANSPORTING NO FIELDS"</text>
</g>
<path d="M692 229a10 10 0 0 0 10 -10v-40a10 10 0 0 1 10 -10"></path>
</g>
<path d="M848 169a10 10 0 0 0 10 -10v-119"></path>
<g class="diagram-text">
<title>take one or more branches, once each, in any order</title>
<path d="M 314 30 h -26 a 4 4 0 0 0 -4 4 v 12 a 4 4 0 0 0 4 4 h 26 z" class="diagram-text"></path>
<text x="299" y="44" class="diagram-text">1+</text>
<path d="M 858 30 h 16 a 4 4 0 0 1 4 4 v 12 a 4 4 0 0 1 -4 4 h -16 z" class="diagram-text"></path>
<path d="M 865 38 a 4 4 0 1 0 6 -1 m 2.75 -1 h -4 v 4 m 0 -3 h 2" style="stroke-width: 1.75"></path>
</g>
</g>
<path d="M878 40h20"></path>
</g>
</g>
<path d="M898 40h10"></path>
<path d="M 908 40 h 20 m -10 -10 v 20 m 10 -20 v 20"></path>
</g>
</svg>
