<?xml version="1.0" encoding="UTF-8" standalone="no"?>
<!DOCTYPE svg PUBLIC "-//W3C//DTD SVG 1.1//EN"
 "http://www.w3.org/Graphics/SVG/1.1/DTD/svg11.dtd">
<!-- Generated by graphviz version 2.38.0 (20140413.2041)
 -->
<!-- Title: read Pages: 1 -->
<svg width="1472pt" height="1484pt"
 viewBox="0.00 0.00 1472.00 1484.00" xmlns="http://www.w3.org/2000/svg" xmlns:xlink="http://www.w3.org/1999/xlink">
<g id="graph0" class="graph" transform="scale(1 1) rotate(0) translate(4 1480)">
<title>read</title>
<polygon fill="white" stroke="none" points="-4,4 -4,-1480 1468,-1480 1468,4 -4,4"/>
<!-- start -->
<g id="node1" class="node"><title>start</title>
<polygon fill="none" stroke="black" points="728,-1476 674,-1476 674,-1440 728,-1440 728,-1476"/>
<text text-anchor="middle" x="701" y="-1453.8" font-family="Times,serif" font-size="14.00">Start</text>
</g>
<!-- node302 -->
<g id="node27" class="node"><title>node302</title>
<ellipse fill="none" stroke="black" cx="701" cy="-1386" rx="78.9428" ry="18"/>
<text text-anchor="middle" x="701" y="-1381.8" font-family="Times,serif" font-size="14.00">&quot;READ TABLE&quot;</text>
</g>
<!-- start&#45;&gt;node302 -->
<g id="edge95" class="edge"><title>start&#45;&gt;node302</title>
<path fill="none" stroke="black" d="M701,-1439.7C701,-1431.98 701,-1422.71 701,-1414.11"/>
<polygon fill="black" stroke="black" points="704.5,-1414.1 701,-1404.1 697.5,-1414.1 704.5,-1414.1"/>
</g>
<!-- end -->
<g id="node2" class="node"><title>end</title>
<polygon fill="none" stroke="black" points="1035,-36 981,-36 981,-0 1035,-0 1035,-36"/>
<text text-anchor="middle" x="1008" y="-13.8" font-family="Times,serif" font-size="14.00">End</text>
</g>
<!-- node278 -->
<g id="node3" class="node"><title>node278</title>
<ellipse fill="none" stroke="black" cx="733" cy="-90" rx="143.79" ry="18"/>
<text text-anchor="middle" x="733" y="-85.8" font-family="Times,serif" font-size="14.00">&quot;TRANSPORTING NO FIELDS&quot;</text>
</g>
<!-- node278&#45;&gt;end -->
<g id="edge1" class="edge"><title>node278&#45;&gt;end</title>
<path fill="none" stroke="black" d="M793.35,-73.6382C847.589,-59.8318 925.509,-39.9976 971.027,-28.4114"/>
<polygon fill="black" stroke="black" points="971.946,-31.789 980.774,-25.9303 970.219,-25.0053 971.946,-31.789"/>
</g>
<!-- node279 -->
<g id="node4" class="node"><title>node279</title>
<ellipse fill="none" stroke="black" cx="1132" cy="-162" rx="96.3581" ry="18"/>
<text text-anchor="middle" x="1132" y="-157.8" font-family="Times,serif" font-size="14.00">&quot;BINARY SEARCH&quot;</text>
</g>
<!-- node279&#45;&gt;end -->
<g id="edge3" class="edge"><title>node279&#45;&gt;end</title>
<path fill="none" stroke="black" d="M1117.29,-144.153C1095.59,-119.307 1054.87,-72.6771 1029.73,-43.8832"/>
<polygon fill="black" stroke="black" points="1032.29,-41.498 1023.08,-36.2678 1027.02,-46.1023 1032.29,-41.498"/>
</g>
<!-- node279&#45;&gt;node278 -->
<g id="edge2" class="edge"><title>node279&#45;&gt;node278</title>
<path fill="none" stroke="black" d="M1064.32,-149.125C997.956,-137.484 896.378,-119.663 823.191,-106.823"/>
<polygon fill="black" stroke="black" points="823.514,-103.326 813.06,-105.046 822.304,-110.221 823.514,-103.326"/>
</g>
<!-- node280 -->
<g id="node5" class="node"><title>node280</title>
<ellipse fill="none" stroke="black" cx="679" cy="-234" rx="42.879" ry="18"/>
<text text-anchor="middle" x="679" y="-229.8" font-family="Times,serif" font-size="14.00">Dummy</text>
</g>
<!-- node280&#45;&gt;end -->
<g id="edge8" class="edge"><title>node280&#45;&gt;end</title>
<path fill="none" stroke="black" d="M703.647,-219.048C742.88,-196.632 821.674,-150.768 886,-108 917.834,-86.8349 952.982,-60.9076 977.342,-42.5089"/>
<polygon fill="black" stroke="black" points="979.631,-45.1657 985.486,-36.3352 975.402,-39.5875 979.631,-45.1657"/>
</g>
<!-- node280&#45;&gt;node278 -->
<g id="edge7" class="edge"><title>node280&#45;&gt;node278</title>
<path fill="none" stroke="black" d="M692.062,-216.729C699.519,-206.681 708.458,-193.22 714,-180 722.285,-160.239 727.124,-136.437 729.843,-118.422"/>
<polygon fill="black" stroke="black" points="733.34,-118.685 731.242,-108.3 726.406,-117.726 733.34,-118.685"/>
</g>
<!-- node280&#45;&gt;node279 -->
<g id="edge6" class="edge"><title>node280&#45;&gt;node279</title>
<path fill="none" stroke="black" d="M711.617,-222.268C719.533,-219.943 728.017,-217.681 736,-216 861.365,-189.603 895.126,-197.785 1022,-180 1031.37,-178.686 1041.19,-177.252 1050.93,-175.793"/>
<polygon fill="black" stroke="black" points="1051.67,-179.221 1061.04,-174.267 1050.63,-172.3 1051.67,-179.221"/>
</g>
<!-- node281 -->
<g id="node6" class="node"><title>node281</title>
<g id="a_node6"><a xlink:href="reuse_compare.svg" xlink:title="&lt;u&gt;compare&lt;/u&gt;">
<ellipse fill="none" stroke="black" cx="661" cy="-162" rx="44.0622" ry="18"/>
<text text-anchor="start" x="636.903" y="-158.8" font-family="Times,serif" text-decoration="underline" font-size="14.00" fill="blue">compare</text>
</a>
</g>
</g>
<!-- node280&#45;&gt;node281 -->
<g id="edge5" class="edge"><title>node280&#45;&gt;node281</title>
<path fill="none" stroke="black" d="M668.894,-216.411C666.042,-208.623 663.348,-199.135 661.424,-190.329"/>
<polygon fill="black" stroke="black" points="664.852,-189.623 659.556,-180.447 657.974,-190.923 664.852,-189.623"/>
</g>
<!-- node281&#45;&gt;node280 -->
<g id="edge4" class="edge"><title>node281&#45;&gt;node280</title>
<path fill="none" stroke="black" d="M671.118,-179.622C673.979,-187.441 676.681,-196.967 678.604,-205.796"/>
<polygon fill="black" stroke="black" points="675.178,-206.516 680.466,-215.697 682.057,-205.222 675.178,-206.516"/>
</g>
<!-- node282 -->
<g id="node7" class="node"><title>node282</title>
<g id="a_node7"><a xlink:href="reuse_compare.svg" xlink:title="&lt;u&gt;compare&lt;/u&gt;">
<ellipse fill="none" stroke="black" cx="651" cy="-306" rx="44.0622" ry="18"/>
<text text-anchor="start" x="626.903" y="-302.8" font-family="Times,serif" text-decoration="underline" font-size="14.00" fill="blue">compare</text>
</a>
</g>
</g>
<!-- node282&#45;&gt;node280 -->
<g id="edge10" class="edge"><title>node282&#45;&gt;node280</title>
<path fill="none" stroke="black" d="M657.778,-288.055C661.011,-279.973 664.951,-270.121 668.555,-261.112"/>
<polygon fill="black" stroke="black" points="671.82,-262.374 672.284,-251.789 665.321,-259.774 671.82,-262.374"/>
</g>
<!-- node282&#45;&gt;node281 -->
<g id="edge9" class="edge"><title>node282&#45;&gt;node281</title>
<path fill="none" stroke="black" d="M640.894,-288.208C631.398,-270.269 619.661,-241.032 627,-216 629.922,-206.034 635.357,-196.166 641.038,-187.696"/>
<polygon fill="black" stroke="black" points="643.981,-189.599 646.953,-179.429 638.287,-185.526 643.981,-189.599"/>
</g>
<!-- node283 -->
<g id="node8" class="node"><title>node283</title>
<ellipse fill="none" stroke="black" cx="408" cy="-378" rx="66.2438" ry="18"/>
<text text-anchor="middle" x="408" y="-373.8" font-family="Times,serif" font-size="14.00">&quot;WITH KEY&quot;</text>
</g>
<!-- node283&#45;&gt;node282 -->
<g id="edge11" class="edge"><title>node283&#45;&gt;node282</title>
<path fill="none" stroke="black" d="M451.724,-364.405C495.333,-351.842 562.001,-332.637 606.039,-319.952"/>
<polygon fill="black" stroke="black" points="607.256,-323.243 615.897,-317.112 605.319,-316.517 607.256,-323.243"/>
</g>
<!-- node284 -->
<g id="node9" class="node"><title>node284</title>
<ellipse fill="none" stroke="black" cx="736" cy="-378" rx="99.7918" ry="18"/>
<text text-anchor="middle" x="736" y="-373.8" font-family="Times,serif" font-size="14.00">&quot;WITH TABLE KEY&quot;</text>
</g>
<!-- node284&#45;&gt;node282 -->
<g id="edge12" class="edge"><title>node284&#45;&gt;node282</title>
<path fill="none" stroke="black" d="M715.424,-360.055C704.086,-350.718 689.883,-339.021 677.699,-328.987"/>
<polygon fill="black" stroke="black" points="679.591,-326.012 669.647,-322.356 675.141,-331.415 679.591,-326.012"/>
</g>
<!-- node285 -->
<g id="node10" class="node"><title>node285</title>
<g id="a_node10"><a xlink:href="reuse_source.svg" xlink:title="&lt;u&gt;source&lt;/u&gt;">
<ellipse fill="none" stroke="black" cx="602" cy="-450" rx="36.4761" ry="18"/>
<text text-anchor="start" x="583.733" y="-446.8" font-family="Times,serif" text-decoration="underline" font-size="14.00" fill="blue">source</text>
</a>
</g>
</g>
<!-- node285&#45;&gt;end -->
<g id="edge17" class="edge"><title>node285&#45;&gt;end</title>
<path fill="none" stroke="black" d="M590.854,-432.561C584.561,-422.454 577.148,-408.989 573,-396 529.186,-258.792 476.039,-171.689 580,-72 608.026,-45.1252 871.664,-27.0041 970.67,-21.0965"/>
<polygon fill="black" stroke="black" points="971.04,-24.5809 980.817,-20.4995 970.629,-17.5929 971.04,-24.5809"/>
</g>
<!-- node285&#45;&gt;node278 -->
<g id="edge16" class="edge"><title>node285&#45;&gt;node278</title>
<path fill="none" stroke="black" d="M595.678,-432.227C586.352,-405.937 570,-353.246 570,-307 570,-307 570,-307 570,-233 570,-189.99 577.549,-174.375 608,-144 623.059,-128.979 643.032,-117.962 662.584,-109.993"/>
<polygon fill="black" stroke="black" points="664.049,-113.18 672.125,-106.322 661.535,-106.647 664.049,-113.18"/>
</g>
<!-- node285&#45;&gt;node279 -->
<g id="edge15" class="edge"><title>node285&#45;&gt;node279</title>
<path fill="none" stroke="black" d="M602.419,-431.769C603.798,-412.076 608.912,-379.995 627,-360 643.113,-342.188 954.771,-227.47 1080.28,-181.758"/>
<polygon fill="black" stroke="black" points="1081.5,-185.038 1089.7,-178.329 1079.11,-178.46 1081.5,-185.038"/>
</g>
<!-- node285&#45;&gt;node283 -->
<g id="edge13" class="edge"><title>node285&#45;&gt;node283</title>
<path fill="none" stroke="black" d="M573.375,-438.671C542.414,-427.5 492.543,-409.505 455.653,-396.194"/>
<polygon fill="black" stroke="black" points="456.691,-392.848 446.097,-392.746 454.315,-399.433 456.691,-392.848"/>
</g>
<!-- node285&#45;&gt;node284 -->
<g id="edge14" class="edge"><title>node285&#45;&gt;node284</title>
<path fill="none" stroke="black" d="M625.957,-436.485C645.276,-426.393 672.877,-411.975 695.602,-400.103"/>
<polygon fill="black" stroke="black" points="697.44,-403.092 704.683,-395.359 694.199,-396.887 697.44,-403.092"/>
</g>
<!-- node286 -->
<g id="node11" class="node"><title>node286</title>
<ellipse fill="none" stroke="black" cx="592" cy="-522" rx="46.0582" ry="18"/>
<text text-anchor="middle" x="592" y="-517.8" font-family="Times,serif" font-size="14.00">&quot;FROM&quot;</text>
</g>
<!-- node286&#45;&gt;node285 -->
<g id="edge18" class="edge"><title>node286&#45;&gt;node285</title>
<path fill="none" stroke="black" d="M594.472,-503.697C595.574,-495.983 596.898,-486.712 598.127,-478.112"/>
<polygon fill="black" stroke="black" points="601.607,-478.499 599.557,-468.104 594.677,-477.509 601.607,-478.499"/>
</g>
<!-- node287 -->
<g id="node12" class="node"><title>node287</title>
<g id="a_node12"><a xlink:href="reuse_source.svg" xlink:title="&lt;u&gt;source&lt;/u&gt;">
<ellipse fill="none" stroke="black" cx="862" cy="-594" rx="36.4761" ry="18"/>
<text text-anchor="start" x="843.733" y="-590.8" font-family="Times,serif" text-decoration="underline" font-size="14.00" fill="blue">source</text>
</a>
</g>
</g>
<!-- node287&#45;&gt;end -->
<g id="edge24" class="edge"><title>node287&#45;&gt;end</title>
<path fill="none" stroke="black" d="M893.216,-584.787C995.04,-555.92 1311,-449.098 1311,-235 1311,-235 1311,-235 1311,-161 1311,-44.9389 1126.47,-23.5444 1045.42,-19.745"/>
<polygon fill="black" stroke="black" points="1045.29,-16.237 1035.16,-19.3327 1045.01,-23.2313 1045.29,-16.237"/>
</g>
<!-- node287&#45;&gt;node278 -->
<g id="edge23" class="edge"><title>node287&#45;&gt;node278</title>
<path fill="none" stroke="black" d="M862.203,-575.915C862.711,-531.551 864,-409.039 864,-307 864,-307 864,-307 864,-233 864,-179.125 812.429,-136.955 774.001,-113.01"/>
<polygon fill="black" stroke="black" points="775.416,-109.776 765.046,-107.606 771.8,-115.769 775.416,-109.776"/>
</g>
<!-- node287&#45;&gt;node279 -->
<g id="edge22" class="edge"><title>node287&#45;&gt;node279</title>
<path fill="none" stroke="black" d="M865.557,-575.75C878.261,-517.972 926.38,-328.575 1032,-216 1045.16,-201.975 1062.87,-190.927 1079.74,-182.63"/>
<polygon fill="black" stroke="black" points="1081.41,-185.711 1088.98,-178.302 1078.44,-179.372 1081.41,-185.711"/>
</g>
<!-- node287&#45;&gt;node283 -->
<g id="edge20" class="edge"><title>node287&#45;&gt;node283</title>
<path fill="none" stroke="black" d="M843.088,-578.41C816.572,-558.657 766.177,-523.623 718,-504 650.094,-476.342 622.75,-500.453 557,-468 534.65,-456.968 534.844,-445.666 514,-432 494.244,-419.047 470.887,-407.052 451.133,-397.761"/>
<polygon fill="black" stroke="black" points="452.593,-394.58 442.047,-393.557 449.653,-400.933 452.593,-394.58"/>
</g>
<!-- node287&#45;&gt;node284 -->
<g id="edge21" class="edge"><title>node287&#45;&gt;node284</title>
<path fill="none" stroke="black" d="M852.322,-576.563C830.534,-539.557 777.488,-449.464 751.234,-404.874"/>
<polygon fill="black" stroke="black" points="754.149,-402.927 746.06,-396.085 748.117,-406.479 754.149,-402.927"/>
</g>
<!-- node287&#45;&gt;node286 -->
<g id="edge19" class="edge"><title>node287&#45;&gt;node286</title>
<path fill="none" stroke="black" d="M830.499,-584.833C783.355,-572.61 694.125,-549.477 639.181,-535.232"/>
<polygon fill="black" stroke="black" points="639.897,-531.802 629.339,-532.68 638.14,-538.578 639.897,-531.802"/>
</g>
<!-- node288 -->
<g id="node13" class="node"><title>node288</title>
<ellipse fill="none" stroke="black" cx="855" cy="-666" rx="48.8859" ry="18"/>
<text text-anchor="middle" x="855" y="-661.8" font-family="Times,serif" font-size="14.00">&quot;INDEX&quot;</text>
</g>
<!-- node288&#45;&gt;node287 -->
<g id="edge25" class="edge"><title>node288&#45;&gt;node287</title>
<path fill="none" stroke="black" d="M856.73,-647.697C857.502,-639.983 858.429,-630.712 859.289,-622.112"/>
<polygon fill="black" stroke="black" points="862.777,-622.403 860.29,-612.104 855.812,-621.706 862.777,-622.403"/>
</g>
<!-- node289 -->
<g id="node14" class="node"><title>node289</title>
<g id="a_node14"><a xlink:href="reuse_target.svg" xlink:title="&lt;u&gt;target&lt;/u&gt;">
<ellipse fill="none" stroke="black" cx="437" cy="-738" rx="33.0411" ry="18"/>
<text text-anchor="start" x="421.065" y="-734.8" font-family="Times,serif" text-decoration="underline" font-size="14.00" fill="blue">target</text>
</a>
</g>
</g>
<!-- node289&#45;&gt;end -->
<g id="edge32" class="edge"><title>node289&#45;&gt;end</title>
<path fill="none" stroke="black" d="M417.574,-723.393C404.583,-713.567 387.778,-699.366 376,-684 354.355,-655.761 354.718,-644.83 341,-612 269.738,-441.461 112.504,-370.469 214,-216 302.545,-81.2415 391.229,-113.657 547,-72 700.493,-30.9526 891.097,-21.6947 970.529,-19.6073"/>
<polygon fill="black" stroke="black" points="971.071,-23.0955 980.984,-19.3578 970.903,-16.0975 971.071,-23.0955"/>
</g>
<!-- node289&#45;&gt;node278 -->
<g id="edge31" class="edge"><title>node289&#45;&gt;node278</title>
<path fill="none" stroke="black" d="M424.983,-720.964C386.671,-667.751 273.339,-492.856 333,-360 392.195,-228.182 451.042,-216.563 576,-144 601.702,-129.075 632.229,-117.565 659.5,-109.144"/>
<polygon fill="black" stroke="black" points="660.812,-112.404 669.385,-106.18 658.801,-105.699 660.812,-112.404"/>
</g>
<!-- node289&#45;&gt;node279 -->
<g id="edge30" class="edge"><title>node289&#45;&gt;node279</title>
<path fill="none" stroke="black" d="M466.505,-729.804C566.714,-705.28 888.802,-625.731 907,-612 1003.25,-539.369 1046,-499.583 1046,-379 1046,-379 1046,-379 1046,-305 1046,-258.045 1080.83,-213.343 1106.16,-187.044"/>
<polygon fill="black" stroke="black" points="1108.78,-189.373 1113.34,-179.81 1103.81,-184.442 1108.78,-189.373"/>
</g>
<!-- node289&#45;&gt;node283 -->
<g id="edge28" class="edge"><title>node289&#45;&gt;node283</title>
<path fill="none" stroke="black" d="M435.601,-719.733C430.94,-662.194 415.911,-476.658 410.216,-406.351"/>
<polygon fill="black" stroke="black" points="413.681,-405.779 409.385,-396.094 406.704,-406.344 413.681,-405.779"/>
</g>
<!-- node289&#45;&gt;node284 -->
<g id="edge29" class="edge"><title>node289&#45;&gt;node284</title>
<path fill="none" stroke="black" d="M439.448,-719.882C446.461,-677.128 470.574,-564.755 537,-504 574.958,-469.283 603.168,-494.924 647,-468 661.888,-458.855 692.907,-426.404 714.093,-403.334"/>
<polygon fill="black" stroke="black" points="716.706,-405.662 720.863,-395.917 711.536,-400.943 716.706,-405.662"/>
</g>
<!-- node289&#45;&gt;node286 -->
<g id="edge27" class="edge"><title>node289&#45;&gt;node286</title>
<path fill="none" stroke="black" d="M448.65,-720.915C475.514,-683.826 541.952,-592.099 574.06,-547.769"/>
<polygon fill="black" stroke="black" points="576.97,-549.718 580.002,-539.566 571.301,-545.611 576.97,-549.718"/>
</g>
<!-- node289&#45;&gt;node288 -->
<g id="edge26" class="edge"><title>node289&#45;&gt;node288</title>
<path fill="none" stroke="black" d="M469.041,-733.473C531.547,-726.316 673.967,-708.65 792,-684 797.136,-682.927 802.475,-681.687 807.777,-680.373"/>
<polygon fill="black" stroke="black" points="809.045,-683.661 817.861,-677.784 807.304,-676.881 809.045,-683.661"/>
</g>
<!-- node290 -->
<g id="node15" class="node"><title>node290</title>
<ellipse fill="none" stroke="black" cx="403" cy="-810" rx="70.8752" ry="18"/>
<text text-anchor="middle" x="403" y="-805.8" font-family="Times,serif" font-size="14.00">&quot;ASSIGNING&quot;</text>
</g>
<!-- node290&#45;&gt;node289 -->
<g id="edge33" class="edge"><title>node290&#45;&gt;node289</title>
<path fill="none" stroke="black" d="M411.23,-792.055C415.198,-783.887 420.043,-773.912 424.457,-764.824"/>
<polygon fill="black" stroke="black" points="427.625,-766.313 428.845,-755.789 421.328,-763.255 427.625,-766.313"/>
</g>
<!-- node291 -->
<g id="node16" class="node"><title>node291</title>
<g id="a_node16"><a xlink:href="reuse_target.svg" xlink:title="&lt;u&gt;target&lt;/u&gt;">
<ellipse fill="none" stroke="black" cx="1067" cy="-738" rx="33.0411" ry="18"/>
<text text-anchor="start" x="1051.06" y="-734.8" font-family="Times,serif" text-decoration="underline" font-size="14.00" fill="blue">target</text>
</a>
</g>
</g>
<!-- node291&#45;&gt;end -->
<g id="edge40" class="edge"><title>node291&#45;&gt;end</title>
<path fill="none" stroke="black" d="M1081.83,-721.732C1144.05,-655.831 1378.27,-388.063 1325,-144 1317.49,-109.609 1319.75,-93.6592 1292,-72 1254.09,-42.4128 1113.65,-27.4143 1045.53,-21.749"/>
<polygon fill="black" stroke="black" points="1045.5,-18.2348 1035.25,-20.9191 1044.93,-25.2122 1045.5,-18.2348"/>
</g>
<!-- node291&#45;&gt;node278 -->
<g id="edge39" class="edge"><title>node291&#45;&gt;node278</title>
<path fill="none" stroke="black" d="M1062.64,-719.907C1040.01,-632.19 933.468,-233.265 846,-144 831.988,-129.7 813.371,-118.818 795.298,-110.75"/>
<polygon fill="black" stroke="black" points="796.497,-107.458 785.924,-106.785 793.77,-113.904 796.497,-107.458"/>
</g>
<!-- node291&#45;&gt;node279 -->
<g id="edge38" class="edge"><title>node291&#45;&gt;node279</title>
<path fill="none" stroke="black" d="M1072.97,-719.982C1087.36,-677.907 1123.71,-565.342 1136,-468 1148.84,-366.254 1139.97,-243.906 1134.88,-190.351"/>
<polygon fill="black" stroke="black" points="1138.35,-189.901 1133.89,-180.291 1131.39,-190.586 1138.35,-189.901"/>
</g>
<!-- node291&#45;&gt;node283 -->
<g id="edge36" class="edge"><title>node291&#45;&gt;node283</title>
<path fill="none" stroke="black" d="M1045.93,-724.116C1029.65,-713.87 1006.8,-698.837 988,-684 969.484,-669.385 969.635,-659.43 949,-648 895.806,-618.536 872.62,-636.579 817,-612 776.062,-593.909 687.955,-522.052 647,-504 590.964,-479.301 567.405,-497.968 514,-468 493.712,-456.615 493.64,-447.168 476,-432 463.828,-421.533 449.92,-410.534 437.867,-401.286"/>
<polygon fill="black" stroke="black" points="439.939,-398.465 429.863,-395.191 435.698,-404.034 439.939,-398.465"/>
</g>
<!-- node291&#45;&gt;node284 -->
<g id="edge37" class="edge"><title>node291&#45;&gt;node284</title>
<path fill="none" stroke="black" d="M1053.79,-721.321C1015.04,-675.548 897.788,-538.6 793,-432 783.283,-422.115 772.201,-411.642 762.409,-402.64"/>
<polygon fill="black" stroke="black" points="764.629,-399.928 754.883,-395.775 759.912,-405.1 764.629,-399.928"/>
</g>
<!-- node291&#45;&gt;node286 -->
<g id="edge35" class="edge"><title>node291&#45;&gt;node286</title>
<path fill="none" stroke="black" d="M1040.9,-726.744C1017.77,-717.147 983.485,-701.666 956,-684 935.033,-670.524 935.055,-659.611 913,-648 860.329,-620.271 839.852,-632.584 784,-612 727.908,-591.327 665.556,-560.98 627.561,-541.607"/>
<polygon fill="black" stroke="black" points="628.94,-538.381 618.445,-536.931 625.745,-544.609 628.94,-538.381"/>
</g>
<!-- node291&#45;&gt;node288 -->
<g id="edge34" class="edge"><title>node291&#45;&gt;node288</title>
<path fill="none" stroke="black" d="M1040.22,-727.122C1033.62,-724.743 1026.57,-722.242 1020,-720 980.002,-706.348 934.221,-691.72 901.045,-681.299"/>
<polygon fill="black" stroke="black" points="901.763,-677.856 891.174,-678.205 899.67,-684.535 901.763,-677.856"/>
</g>
<!-- node292 -->
<g id="node17" class="node"><title>node292</title>
<ellipse fill="none" stroke="black" cx="1134" cy="-810" rx="41.9431" ry="18"/>
<text text-anchor="middle" x="1134" y="-805.8" font-family="Times,serif" font-size="14.00">&quot;INTO&quot;</text>
</g>
<!-- node292&#45;&gt;node291 -->
<g id="edge41" class="edge"><title>node292&#45;&gt;node291</title>
<path fill="none" stroke="black" d="M1118.8,-793.116C1109.94,-783.858 1098.61,-772.027 1088.81,-761.789"/>
<polygon fill="black" stroke="black" points="1091.13,-759.144 1081.68,-754.34 1086.07,-763.984 1091.13,-759.144"/>
</g>
<!-- node293 -->
<g id="node18" class="node"><title>node293</title>
<ellipse fill="none" stroke="black" cx="814" cy="-882" rx="42.879" ry="18"/>
<text text-anchor="middle" x="814" y="-877.8" font-family="Times,serif" font-size="14.00">Dummy</text>
</g>
<!-- node293&#45;&gt;end -->
<g id="edge52" class="edge"><title>node293&#45;&gt;end</title>
<path fill="none" stroke="black" d="M852.292,-873.913C893.774,-865.572 961.467,-850.011 1017,-828 1048.06,-815.688 1052.74,-806.172 1083,-792 1122.39,-773.552 1139.43,-782.391 1174,-756 1299.94,-659.864 1425,-483.055 1425,-307 1425,-307 1425,-307 1425,-161 1425,-99.485 1374.82,-97.8459 1319,-72 1227.1,-29.4501 1105.72,-20.7164 1045.38,-19.1473"/>
<polygon fill="black" stroke="black" points="1045.26,-15.6442 1035.19,-18.9364 1045.11,-22.6427 1045.26,-15.6442"/>
</g>
<!-- node293&#45;&gt;node278 -->
<g id="edge51" class="edge"><title>node293&#45;&gt;node278</title>
<path fill="none" stroke="black" d="M833.219,-865.765C859.167,-845.929 907.523,-811.499 954,-792 1019.22,-764.639 1053.22,-799.482 1109,-756 1149.02,-724.805 1153.18,-698.229 1146,-648 1110,-396.019 1068.5,-308.199 874,-144 855.554,-128.427 832.076,-117.194 809.595,-109.195"/>
<polygon fill="black" stroke="black" points="810.633,-105.851 800.039,-105.962 808.39,-112.482 810.633,-105.851"/>
</g>
<!-- node293&#45;&gt;node279 -->
<g id="edge50" class="edge"><title>node293&#45;&gt;node279</title>
<path fill="none" stroke="black" d="M844.835,-869.416C925.914,-838.935 1139.08,-758.651 1142,-756 1221.52,-683.91 1225.34,-644.46 1250,-540 1266.44,-470.354 1177.67,-263.735 1144.29,-189.738"/>
<polygon fill="black" stroke="black" points="1147.28,-187.865 1139.96,-180.204 1140.91,-190.757 1147.28,-187.865"/>
</g>
<!-- node293&#45;&gt;node283 -->
<g id="edge48" class="edge"><title>node293&#45;&gt;node283</title>
<path fill="none" stroke="black" d="M801.145,-864.639C786.817,-846.567 762.789,-816.749 741,-792 639.199,-676.373 595.612,-663.109 503,-540 469.438,-495.386 438.086,-438.035 421.128,-405.207"/>
<polygon fill="black" stroke="black" points="424.209,-403.546 416.538,-396.239 417.978,-406.735 424.209,-403.546"/>
</g>
<!-- node293&#45;&gt;node284 -->
<g id="edge49" class="edge"><title>node293&#45;&gt;node284</title>
<path fill="none" stroke="black" d="M811.36,-864.01C799.904,-790.279 754.435,-497.645 740.25,-406.351"/>
<polygon fill="black" stroke="black" points="743.673,-405.588 738.679,-396.244 736.756,-406.662 743.673,-405.588"/>
</g>
<!-- node293&#45;&gt;node286 -->
<g id="edge47" class="edge"><title>node293&#45;&gt;node286</title>
<path fill="none" stroke="black" d="M807.457,-864.18C800.14,-845.966 787.529,-816.265 774,-792 721.377,-697.615 645.544,-593.789 610.744,-547.555"/>
<polygon fill="black" stroke="black" points="613.365,-545.22 604.544,-539.352 607.781,-549.44 613.365,-545.22"/>
</g>
<!-- node293&#45;&gt;node288 -->
<g id="edge46" class="edge"><title>node293&#45;&gt;node288</title>
<path fill="none" stroke="black" d="M828.703,-864.657C836.604,-854.792 845.604,-841.542 850,-828 864.66,-782.834 862.072,-726.751 858.667,-694.104"/>
<polygon fill="black" stroke="black" points="862.123,-693.517 857.505,-683.981 855.168,-694.315 862.123,-693.517"/>
</g>
<!-- node293&#45;&gt;node290 -->
<g id="edge44" class="edge"><title>node293&#45;&gt;node290</title>
<path fill="none" stroke="black" d="M774.964,-874.351C704.901,-862.419 557.056,-837.238 470.343,-822.47"/>
<polygon fill="black" stroke="black" points="470.785,-818.995 460.339,-820.766 469.609,-825.895 470.785,-818.995"/>
</g>
<!-- node293&#45;&gt;node292 -->
<g id="edge45" class="edge"><title>node293&#45;&gt;node292</title>
<path fill="none" stroke="black" d="M852.736,-874.433C904.427,-865.396 998.663,-847.956 1078,-828 1082.39,-826.897 1086.94,-825.663 1091.47,-824.378"/>
<polygon fill="black" stroke="black" points="1092.66,-827.676 1101.28,-821.512 1090.7,-820.957 1092.66,-827.676"/>
</g>
<!-- node294 -->
<g id="node19" class="node"><title>node294</title>
<g id="a_node19"><a xlink:href="reuse_compare.svg" xlink:title="&lt;u&gt;compare&lt;/u&gt;">
<ellipse fill="none" stroke="black" cx="688" cy="-810" rx="44.0622" ry="18"/>
<text text-anchor="start" x="663.903" y="-806.8" font-family="Times,serif" text-decoration="underline" font-size="14.00" fill="blue">compare</text>
</a>
</g>
</g>
<!-- node293&#45;&gt;node294 -->
<g id="edge43" class="edge"><title>node293&#45;&gt;node294</title>
<path fill="none" stroke="black" d="M785.842,-868.324C765.646,-857.959 738.643,-843.112 718.048,-831.125"/>
<polygon fill="black" stroke="black" points="719.763,-828.072 709.369,-826.015 716.211,-834.105 719.763,-828.072"/>
</g>
<!-- node294&#45;&gt;node293 -->
<g id="edge42" class="edge"><title>node294&#45;&gt;node293</title>
<path fill="none" stroke="black" d="M716.673,-823.941C736.925,-834.351 763.833,-849.156 784.296,-861.076"/>
<polygon fill="black" stroke="black" points="782.522,-864.093 792.915,-866.155 786.076,-858.062 782.522,-864.093"/>
</g>
<!-- node295 -->
<g id="node20" class="node"><title>node295</title>
<g id="a_node20"><a xlink:href="reuse_compare.svg" xlink:title="&lt;u&gt;compare&lt;/u&gt;">
<ellipse fill="none" stroke="black" cx="746" cy="-954" rx="44.0622" ry="18"/>
<text text-anchor="start" x="721.903" y="-950.8" font-family="Times,serif" text-decoration="underline" font-size="14.00" fill="blue">compare</text>
</a>
</g>
</g>
<!-- node295&#45;&gt;node293 -->
<g id="edge54" class="edge"><title>node295&#45;&gt;node293</title>
<path fill="none" stroke="black" d="M761.43,-937.116C770.298,-927.987 781.598,-916.355 791.447,-906.217"/>
<polygon fill="black" stroke="black" points="794.173,-908.433 798.631,-898.821 789.152,-903.555 794.173,-908.433"/>
</g>
<!-- node295&#45;&gt;node294 -->
<g id="edge53" class="edge"><title>node295&#45;&gt;node294</title>
<path fill="none" stroke="black" d="M739.119,-936.153C729.134,-911.706 710.535,-866.171 698.736,-837.286"/>
<polygon fill="black" stroke="black" points="701.894,-835.759 694.872,-827.825 695.413,-838.406 701.894,-835.759"/>
</g>
<!-- node296 -->
<g id="node21" class="node"><title>node296</title>
<ellipse fill="none" stroke="black" cx="740" cy="-1026" rx="66.2438" ry="18"/>
<text text-anchor="middle" x="740" y="-1021.8" font-family="Times,serif" font-size="14.00">&quot;WITH KEY&quot;</text>
</g>
<!-- node296&#45;&gt;node295 -->
<g id="edge55" class="edge"><title>node296&#45;&gt;node295</title>
<path fill="none" stroke="black" d="M741.483,-1007.7C742.144,-999.983 742.939,-990.712 743.676,-982.112"/>
<polygon fill="black" stroke="black" points="747.167,-982.367 744.534,-972.104 740.193,-981.769 747.167,-982.367"/>
</g>
<!-- node297 -->
<g id="node22" class="node"><title>node297</title>
<ellipse fill="none" stroke="black" cx="962" cy="-1026" rx="99.7918" ry="18"/>
<text text-anchor="middle" x="962" y="-1021.8" font-family="Times,serif" font-size="14.00">&quot;WITH TABLE KEY&quot;</text>
</g>
<!-- node297&#45;&gt;node295 -->
<g id="edge56" class="edge"><title>node297&#45;&gt;node295</title>
<path fill="none" stroke="black" d="M915.663,-1009.98C878.271,-997.866 826.049,-980.942 789.45,-969.081"/>
<polygon fill="black" stroke="black" points="790.159,-965.632 779.567,-965.878 788.001,-972.291 790.159,-965.632"/>
</g>
<!-- node298 -->
<g id="node23" class="node"><title>node298</title>
<g id="a_node23"><a xlink:href="reuse_source.svg" xlink:title="&lt;u&gt;source&lt;/u&gt;">
<ellipse fill="none" stroke="black" cx="513" cy="-1098" rx="36.4761" ry="18"/>
<text text-anchor="start" x="494.733" y="-1094.8" font-family="Times,serif" text-decoration="underline" font-size="14.00" fill="blue">source</text>
</a>
</g>
</g>
<!-- node298&#45;&gt;end -->
<g id="edge67" class="edge"><title>node298&#45;&gt;end</title>
<path fill="none" stroke="black" d="M476.627,-1097.46C427.949,-1096.25 341.137,-1087.52 284,-1044 166.495,-954.504 152,-886.706 152,-739 152,-739 152,-739 152,-593 152,-496.401 114,-475.599 114,-379 114,-379 114,-379 114,-161 114,-46.4014 244.083,-96.6467 356,-72 585.539,-21.4503 870.068,-17.9938 970.657,-18.5246"/>
<polygon fill="black" stroke="black" points="970.884,-22.0262 980.908,-18.5964 970.933,-15.0263 970.884,-22.0262"/>
</g>
<!-- node298&#45;&gt;node278 -->
<g id="edge66" class="edge"><title>node298&#45;&gt;node278</title>
<path fill="none" stroke="black" d="M477.873,-1093.12C409.681,-1083.44 266,-1051.58 266,-955 266,-955 266,-955 266,-881 266,-780.069 190,-767.931 190,-667 190,-667 190,-667 190,-521 190,-438.584 341.251,-272.766 401,-216 442.555,-176.52 455.473,-166.944 508,-144 547.836,-126.6 594.243,-114.436 634.528,-106.192"/>
<polygon fill="black" stroke="black" points="635.239,-109.619 644.361,-104.232 633.87,-102.754 635.239,-109.619"/>
</g>
<!-- node298&#45;&gt;node279 -->
<g id="edge65" class="edge"><title>node298&#45;&gt;node279</title>
<path fill="none" stroke="black" d="M540.417,-1085.9C563.078,-1076.2 595.686,-1061.05 622,-1044 642.919,-1030.45 642.457,-1018.63 665,-1008 743.92,-970.777 774.63,-997.754 858,-972 1009.73,-925.13 1062.69,-929.286 1185,-828 1244.82,-778.463 1260.96,-758.171 1284,-684 1337.16,-512.853 1272.92,-455.041 1208,-288 1195.44,-255.688 1196.26,-245.467 1178,-216 1171.81,-206.009 1163.75,-196.022 1156.11,-187.455"/>
<polygon fill="black" stroke="black" points="1158.63,-185.018 1149.28,-180.026 1153.48,-189.756 1158.63,-185.018"/>
</g>
<!-- node298&#45;&gt;node283 -->
<g id="edge63" class="edge"><title>node298&#45;&gt;node283</title>
<path fill="none" stroke="black" d="M496.445,-1081.78C456.52,-1043.77 355.814,-939.63 323,-828 276.735,-670.613 360.662,-474.545 394.648,-404.962"/>
<polygon fill="black" stroke="black" points="397.785,-406.514 399.094,-396 391.515,-403.403 397.785,-406.514"/>
</g>
<!-- node298&#45;&gt;node284 -->
<g id="edge64" class="edge"><title>node298&#45;&gt;node284</title>
<path fill="none" stroke="black" d="M517.695,-1079.99C528.378,-1041.44 555.477,-944.53 580,-864 633.415,-688.592 702.618,-479.23 727.012,-405.929"/>
<polygon fill="black" stroke="black" points="730.439,-406.715 730.279,-396.122 723.798,-404.503 730.439,-406.715"/>
</g>
<!-- node298&#45;&gt;node286 -->
<g id="edge62" class="edge"><title>node298&#45;&gt;node286</title>
<path fill="none" stroke="black" d="M512.545,-1079.69C511.573,-1032.99 510.517,-900.611 526,-792 538.866,-701.746 568.874,-597.637 583.577,-549.695"/>
<polygon fill="black" stroke="black" points="586.941,-550.665 586.554,-540.077 580.254,-548.595 586.941,-550.665"/>
</g>
<!-- node298&#45;&gt;node288 -->
<g id="edge61" class="edge"><title>node298&#45;&gt;node288</title>
<path fill="none" stroke="black" d="M524.363,-1080.82C531.22,-1070.58 539.8,-1056.89 546,-1044 597.473,-936.952 558.771,-883.092 635,-792 681.782,-736.097 760.35,-700.147 809.842,-681.77"/>
<polygon fill="black" stroke="black" points="811.126,-685.028 819.335,-678.329 808.74,-678.447 811.126,-685.028"/>
</g>
<!-- node298&#45;&gt;node290 -->
<g id="edge59" class="edge"><title>node298&#45;&gt;node290</title>
<path fill="none" stroke="black" d="M501.545,-1080.86C494.653,-1070.64 486.069,-1056.96 480,-1044 446.457,-972.387 421.075,-882.128 409.654,-837.911"/>
<polygon fill="black" stroke="black" points="413.04,-837.024 407.179,-828.198 406.257,-838.753 413.04,-837.024"/>
</g>
<!-- node298&#45;&gt;node292 -->
<g id="edge60" class="edge"><title>node298&#45;&gt;node292</title>
<path fill="none" stroke="black" d="M532.295,-1082.62C546.579,-1071.96 566.511,-1057.09 584,-1044 605.351,-1028.02 607.738,-1019.07 632,-1008 701.081,-976.492 727.174,-996.615 799,-972 914.596,-932.385 1042.48,-863.28 1101.22,-829.992"/>
<polygon fill="black" stroke="black" points="1103.09,-832.958 1110.05,-824.967 1099.62,-826.875 1103.09,-832.958"/>
</g>
<!-- node298&#45;&gt;node296 -->
<g id="edge57" class="edge"><title>node298&#45;&gt;node296</title>
<path fill="none" stroke="black" d="M543.144,-1087.7C580.032,-1076.33 643.101,-1056.88 687.906,-1043.06"/>
<polygon fill="black" stroke="black" points="689.214,-1046.32 697.739,-1040.03 687.151,-1039.63 689.214,-1046.32"/>
</g>
<!-- node298&#45;&gt;node297 -->
<g id="edge58" class="edge"><title>node298&#45;&gt;node297</title>
<path fill="none" stroke="black" d="M547.117,-1091.68C617.256,-1080.75 779.398,-1055.47 878.942,-1039.95"/>
<polygon fill="black" stroke="black" points="879.629,-1043.38 888.97,-1038.39 878.55,-1036.47 879.629,-1043.38"/>
</g>
<!-- node299 -->
<g id="node24" class="node"><title>node299</title>
<ellipse fill="none" stroke="black" cx="267" cy="-1170" rx="48.8859" ry="18"/>
<text text-anchor="middle" x="267" y="-1165.8" font-family="Times,serif" font-size="14.00">&quot;INDEX&quot;</text>
</g>
<!-- node299&#45;&gt;node298 -->
<g id="edge68" class="edge"><title>node299&#45;&gt;node298</title>
<path fill="none" stroke="black" d="M304.362,-1158.37C349.692,-1145.47 425.829,-1123.8 472.52,-1110.52"/>
<polygon fill="black" stroke="black" points="473.638,-1113.84 482.299,-1107.74 471.723,-1107.11 473.638,-1113.84"/>
</g>
<!-- node300 -->
<g id="node25" class="node"><title>node300</title>
<ellipse fill="none" stroke="black" cx="873" cy="-1242" rx="143.79" ry="18"/>
<text text-anchor="middle" x="873" y="-1237.8" font-family="Times,serif" font-size="14.00">&quot;TRANSPORTING NO FIELDS&quot;</text>
</g>
<!-- node300&#45;&gt;end -->
<g id="edge80" class="edge"><title>node300&#45;&gt;end</title>
<path fill="none" stroke="black" d="M979.734,-1229.86C1052.75,-1220.82 1142.07,-1206.54 1175,-1188 1273.3,-1132.65 1464,-748.304 1464,-595 1464,-595 1464,-595 1464,-161 1464,-104.745 1424.36,-97.0656 1374,-72 1316.72,-43.4923 1126.8,-27.2492 1045.48,-21.4526"/>
<polygon fill="black" stroke="black" points="1045.42,-17.9404 1035.2,-20.7349 1044.94,-24.9233 1045.42,-17.9404"/>
</g>
<!-- node300&#45;&gt;node278 -->
<g id="edge79" class="edge"><title>node300&#45;&gt;node278</title>
<path fill="none" stroke="black" d="M731.94,-1238.37C548.833,-1233.65 247.969,-1220.94 209,-1188 143.02,-1132.22 114,-897.397 114,-811 114,-811 114,-811 114,-593 114,-346.653 218.822,-254.491 439,-144 486.695,-120.066 543.543,-106.809 594.482,-99.5133"/>
<polygon fill="black" stroke="black" points="595.153,-102.954 604.587,-98.1322 594.205,-96.0187 595.153,-102.954"/>
</g>
<!-- node300&#45;&gt;node279 -->
<g id="edge78" class="edge"><title>node300&#45;&gt;node279</title>
<path fill="none" stroke="black" d="M992.097,-1231.83C1038.5,-1224.5 1090.8,-1211.4 1134,-1188 1205.29,-1149.39 1217.83,-1120.03 1246,-1044 1340.77,-788.226 1383.29,-689.038 1292,-432 1257.14,-333.836 1264.64,-298.469 1201,-216 1191.94,-204.26 1179.68,-193.73 1168.01,-185.209"/>
<polygon fill="black" stroke="black" points="1169.87,-182.238 1159.67,-179.37 1165.85,-187.972 1169.87,-182.238"/>
</g>
<!-- node300&#45;&gt;node283 -->
<g id="edge76" class="edge"><title>node300&#45;&gt;node283</title>
<path fill="none" stroke="black" d="M743.661,-1233.98C672.35,-1227.22 583.105,-1213.98 507,-1188 383.823,-1145.96 317.614,-1156.41 252,-1044 121.826,-820.994 325.964,-496.237 389.874,-404.167"/>
<polygon fill="black" stroke="black" points="392.897,-405.952 395.774,-395.755 387.166,-401.932 392.897,-405.952"/>
</g>
<!-- node300&#45;&gt;node284 -->
<g id="edge77" class="edge"><title>node300&#45;&gt;node284</title>
<path fill="none" stroke="black" d="M991.961,-1231.77C1028.77,-1224.23 1067.59,-1211 1098,-1188 1243.98,-1077.6 1284.19,-959.754 1211,-792 1122.84,-589.936 878.639,-449.861 779.086,-399.562"/>
<polygon fill="black" stroke="black" points="780.423,-396.317 769.914,-394.976 777.293,-402.578 780.423,-396.317"/>
</g>
<!-- node300&#45;&gt;node286 -->
<g id="edge75" class="edge"><title>node300&#45;&gt;node286</title>
<path fill="none" stroke="black" d="M874.062,-1223.98C875.738,-1181.45 873.97,-1069.56 815,-1008 775.893,-967.175 734.847,-1010.01 693,-972 641.928,-925.608 652.836,-894.651 635,-828 608.164,-727.72 597.302,-604.143 593.619,-550.265"/>
<polygon fill="black" stroke="black" points="597.102,-549.902 592.957,-540.152 590.117,-550.359 597.102,-549.902"/>
</g>
<!-- node300&#45;&gt;node288 -->
<g id="edge74" class="edge"><title>node300&#45;&gt;node288</title>
<path fill="none" stroke="black" d="M906.771,-1224.29C970.526,-1190.14 1099.76,-1107.16 1071,-1008 1032.28,-874.522 923.923,-743.204 877.059,-690.805"/>
<polygon fill="black" stroke="black" points="879.645,-688.446 870.345,-683.369 874.449,-693.137 879.645,-688.446"/>
</g>
<!-- node300&#45;&gt;node290 -->
<g id="edge72" class="edge"><title>node300&#45;&gt;node290</title>
<path fill="none" stroke="black" d="M745.484,-1233.63C655.927,-1221.68 539.761,-1191.44 468,-1116 393.882,-1038.08 395.65,-897.451 400.164,-838.342"/>
<polygon fill="black" stroke="black" points="403.659,-838.548 401.021,-828.287 396.684,-837.953 403.659,-838.548"/>
</g>
<!-- node300&#45;&gt;node292 -->
<g id="edge73" class="edge"><title>node300&#45;&gt;node292</title>
<path fill="none" stroke="black" d="M974.952,-1229.13C1006.7,-1221.43 1040.13,-1208.78 1066,-1188 1125.79,-1139.99 1128,-1103.68 1128,-1027 1128,-1027 1128,-1027 1128,-953 1128,-912.96 1130.41,-866.627 1132.18,-838.065"/>
<polygon fill="black" stroke="black" points="1135.67,-838.242 1132.81,-828.039 1128.69,-837.797 1135.67,-838.242"/>
</g>
<!-- node300&#45;&gt;node296 -->
<g id="edge70" class="edge"><title>node300&#45;&gt;node296</title>
<path fill="none" stroke="black" d="M853.027,-1223.94C842.353,-1214.15 829.494,-1201.21 820,-1188 788.63,-1144.36 763.267,-1086.59 750.023,-1053.44"/>
<polygon fill="black" stroke="black" points="753.222,-1052.01 746.308,-1043.98 746.707,-1054.57 753.222,-1052.01"/>
</g>
<!-- node300&#45;&gt;node297 -->
<g id="edge71" class="edge"><title>node300&#45;&gt;node297</title>
<path fill="none" stroke="black" d="M880.133,-1223.85C895.626,-1186.6 932.444,-1098.07 950.963,-1053.54"/>
<polygon fill="black" stroke="black" points="954.225,-1054.81 954.833,-1044.23 947.761,-1052.12 954.225,-1054.81"/>
</g>
<!-- node300&#45;&gt;node299 -->
<g id="edge69" class="edge"><title>node300&#45;&gt;node299</title>
<path fill="none" stroke="black" d="M742.421,-1234.36C631.902,-1227.29 469.655,-1213.48 330,-1188 324.637,-1187.02 319.063,-1185.81 313.549,-1184.49"/>
<polygon fill="black" stroke="black" points="314.296,-1181.07 303.743,-1182.02 312.584,-1187.85 314.296,-1181.07"/>
</g>
<!-- node301 -->
<g id="node26" class="node"><title>node301</title>
<g id="a_node26"><a xlink:href="reuse_source.svg" xlink:title="&lt;u&gt;source&lt;/u&gt;">
<ellipse fill="none" stroke="black" cx="701" cy="-1314" rx="36.4761" ry="18"/>
<text text-anchor="start" x="682.733" y="-1310.8" font-family="Times,serif" text-decoration="underline" font-size="14.00" fill="blue">source</text>
</a>
</g>
</g>
<!-- node301&#45;&gt;end -->
<g id="edge93" class="edge"><title>node301&#45;&gt;end</title>
<path fill="none" stroke="black" d="M664.583,-1312.08C534.635,-1308.51 98.7125,-1294.09 47,-1260 9.65418,-1235.38 0,-1215.73 0,-1171 0,-1171 0,-1171 0,-161 0,-91.7108 62.5368,-94.7058 128,-72 287.236,-16.7693 823.801,-17.3425 970.602,-18.5805"/>
<polygon fill="black" stroke="black" points="970.848,-22.0827 980.879,-18.6738 970.911,-15.083 970.848,-22.0827"/>
</g>
<!-- node301&#45;&gt;node278 -->
<g id="edge92" class="edge"><title>node301&#45;&gt;node278</title>
<path fill="none" stroke="black" d="M664.968,-1311.77C541.393,-1307.3 139.686,-1290.54 91,-1260 51.9983,-1235.54 38,-1217.04 38,-1171 38,-1171 38,-1171 38,-593 38,-345.08 137.155,-231.817 369,-144 438.728,-117.589 520.569,-104.244 588.97,-97.5415"/>
<polygon fill="black" stroke="black" points="589.334,-101.023 598.961,-96.5999 588.677,-94.0536 589.334,-101.023"/>
</g>
<!-- node301&#45;&gt;node279 -->
<g id="edge91" class="edge"><title>node301&#45;&gt;node279</title>
<path fill="none" stroke="black" d="M737.419,-1312.11C850.39,-1308.99 1193.55,-1296.64 1298,-1260 1365.46,-1236.33 1432,-1242.49 1432,-1171 1432,-1171 1432,-1171 1432,-809 1432,-713.852 1426,-690.148 1426,-595 1426,-595 1426,-595 1426,-521 1426,-359.385 1346.28,-326.13 1228,-216 1213.77,-202.755 1195.63,-191.645 1178.95,-183.074"/>
<polygon fill="black" stroke="black" points="1180.38,-179.878 1169.87,-178.576 1177.28,-186.151 1180.38,-179.878"/>
</g>
<!-- node301&#45;&gt;node283 -->
<g id="edge89" class="edge"><title>node301&#45;&gt;node283</title>
<path fill="none" stroke="black" d="M664.682,-1313.02C556.888,-1312.55 240.719,-1307.09 151,-1260 105.197,-1235.96 76,-1222.73 76,-1171 76,-1171 76,-1171 76,-665 76,-518.047 265.021,-430.029 357.813,-395.673"/>
<polygon fill="black" stroke="black" points="359.088,-398.934 367.29,-392.227 356.696,-392.355 359.088,-398.934"/>
</g>
<!-- node301&#45;&gt;node284 -->
<g id="edge90" class="edge"><title>node301&#45;&gt;node284</title>
<path fill="none" stroke="black" d="M737.619,-1312.95C875.558,-1311.78 1356,-1298.56 1356,-1171 1356,-1171 1356,-1171 1356,-1025 1356,-742.529 1218.02,-673.431 992,-504 945.545,-469.175 934.897,-458.03 883,-432 855.247,-418.08 822.93,-406.014 795.675,-396.926"/>
<polygon fill="black" stroke="black" points="796.474,-393.504 785.881,-393.714 794.293,-400.156 796.474,-393.504"/>
</g>
<!-- node301&#45;&gt;node286 -->
<g id="edge88" class="edge"><title>node301&#45;&gt;node286</title>
<path fill="none" stroke="black" d="M664.724,-1312.05C536.744,-1307.74 114,-1284.89 114,-1171 114,-1171 114,-1171 114,-1025 114,-770.705 439.676,-594.186 553.384,-540.305"/>
<polygon fill="black" stroke="black" points="554.89,-543.465 562.46,-536.053 551.919,-537.127 554.89,-543.465"/>
</g>
<!-- node301&#45;&gt;node288 -->
<g id="edge87" class="edge"><title>node301&#45;&gt;node288</title>
<path fill="none" stroke="black" d="M737.064,-1311.54C820.647,-1307.59 1024.9,-1294.6 1083,-1260 1145.36,-1222.87 1143.95,-1186.78 1160,-1116 1191.95,-975.15 1275.22,-904.779 1185,-792 1139.47,-735.083 1093.42,-781.117 1025,-756 974.832,-737.585 920.784,-707.301 887.418,-687.254"/>
<polygon fill="black" stroke="black" points="888.941,-684.085 878.576,-681.89 885.31,-690.069 888.941,-684.085"/>
</g>
<!-- node301&#45;&gt;node290 -->
<g id="edge85" class="edge"><title>node301&#45;&gt;node290</title>
<path fill="none" stroke="black" d="M665.428,-1309.71C561.711,-1299.3 263.506,-1263.19 209,-1188 119.769,-1064.91 300.799,-895.039 374.081,-833.996"/>
<polygon fill="black" stroke="black" points="376.558,-836.49 382.052,-827.432 372.108,-831.087 376.558,-836.49"/>
</g>
<!-- node301&#45;&gt;node292 -->
<g id="edge86" class="edge"><title>node301&#45;&gt;node292</title>
<path fill="none" stroke="black" d="M736.94,-1311.31C815.212,-1307.03 998.149,-1293.62 1049,-1260 1189.29,-1167.25 1155.53,-920.235 1139.77,-838.032"/>
<polygon fill="black" stroke="black" points="1143.15,-837.112 1137.77,-827.985 1136.29,-838.476 1143.15,-837.112"/>
</g>
<!-- node301&#45;&gt;node296 -->
<g id="edge83" class="edge"><title>node301&#45;&gt;node296</title>
<path fill="none" stroke="black" d="M703.323,-1295.97C709.837,-1248.19 728.324,-1112.62 736.282,-1054.27"/>
<polygon fill="black" stroke="black" points="739.757,-1054.69 737.64,-1044.31 732.821,-1053.74 739.757,-1054.69"/>
</g>
<!-- node301&#45;&gt;node297 -->
<g id="edge84" class="edge"><title>node301&#45;&gt;node297</title>
<path fill="none" stroke="black" d="M737.261,-1312.72C814.091,-1311.28 989.249,-1303.23 1026,-1260 1078.18,-1198.62 1016.05,-1098.21 981.756,-1051.87"/>
<polygon fill="black" stroke="black" points="984.531,-1049.73 975.71,-1043.86 978.946,-1053.95 984.531,-1049.73"/>
</g>
<!-- node301&#45;&gt;node299 -->
<g id="edge82" class="edge"><title>node301&#45;&gt;node299</title>
<path fill="none" stroke="black" d="M671.511,-1303.35C597.035,-1278.98 400.98,-1214.84 312.032,-1185.73"/>
<polygon fill="black" stroke="black" points="313.085,-1182.4 302.492,-1182.61 310.908,-1189.05 313.085,-1182.4"/>
</g>
<!-- node301&#45;&gt;node300 -->
<g id="edge81" class="edge"><title>node301&#45;&gt;node300</title>
<path fill="none" stroke="black" d="M728.254,-1301.91C753.75,-1291.53 792.441,-1275.79 823.408,-1263.18"/>
<polygon fill="black" stroke="black" points="824.804,-1266.39 832.747,-1259.38 822.166,-1259.91 824.804,-1266.39"/>
</g>
<!-- node302&#45;&gt;node301 -->
<g id="edge94" class="edge"><title>node302&#45;&gt;node301</title>
<path fill="none" stroke="black" d="M701,-1367.7C701,-1359.98 701,-1350.71 701,-1342.11"/>
<polygon fill="black" stroke="black" points="704.5,-1342.1 701,-1332.1 697.5,-1342.1 704.5,-1342.1"/>
</g>
</g>
</svg>
