<?xml version="1.0" encoding="UTF-8" standalone="no"?>
<!DOCTYPE svg PUBLIC "-//W3C//DTD SVG 1.1//EN"
 "http://www.w3.org/Graphics/SVG/1.1/DTD/svg11.dtd">
<!-- Generated by graphviz version 2.38.0 (20140413.2041)
 -->
<!-- Title: refresh Pages: 1 -->
<svg width="131pt" height="260pt"
 viewBox="0.00 0.00 130.60 260.00" xmlns="http://www.w3.org/2000/svg" xmlns:xlink="http://www.w3.org/1999/xlink">
<g id="graph0" class="graph" transform="scale(1 1) rotate(0) translate(4 256)">
<title>refresh</title>
<polygon fill="white" stroke="none" points="-4,4 -4,-256 126.604,-256 126.604,4 -4,4"/>
<!-- start -->
<g id="node1" class="node"><title>start</title>
<polygon fill="none" stroke="black" points="88.3019,-252 34.3019,-252 34.3019,-216 88.3019,-216 88.3019,-252"/>
<text text-anchor="middle" x="61.3019" y="-229.8" font-family="Times,serif" font-size="14.00">Start</text>
</g>
<!-- node507 -->
<g id="node4" class="node"><title>node507</title>
<ellipse fill="none" stroke="black" cx="61.3019" cy="-162" rx="61.1044" ry="18"/>
<text text-anchor="middle" x="61.3019" y="-157.8" font-family="Times,serif" font-size="14.00">&quot;REFRESH&quot;</text>
</g>
<!-- start&#45;&gt;node507 -->
<g id="edge3" class="edge"><title>start&#45;&gt;node507</title>
<path fill="none" stroke="black" d="M61.3019,-215.697C61.3019,-207.983 61.3019,-198.712 61.3019,-190.112"/>
<polygon fill="black" stroke="black" points="64.802,-190.104 61.3019,-180.104 57.802,-190.104 64.802,-190.104"/>
</g>
<!-- end -->
<g id="node2" class="node"><title>end</title>
<polygon fill="none" stroke="black" points="88.3019,-36 34.3019,-36 34.3019,-0 88.3019,-0 88.3019,-36"/>
<text text-anchor="middle" x="61.3019" y="-13.8" font-family="Times,serif" font-size="14.00">End</text>
</g>
<!-- node506 -->
<g id="node3" class="node"><title>node506</title>
<g id="a_node3"><a xlink:href="reuse_target.svg" xlink:title="&lt;u&gt;target&lt;/u&gt;">
<ellipse fill="none" stroke="black" cx="61.3019" cy="-90" rx="33.0411" ry="18"/>
<text text-anchor="start" x="45.3664" y="-86.8" font-family="Times,serif" text-decoration="underline" font-size="14.00" fill="blue">target</text>
</a>
</g>
</g>
<!-- node506&#45;&gt;end -->
<g id="edge1" class="edge"><title>node506&#45;&gt;end</title>
<path fill="none" stroke="black" d="M61.3019,-71.6966C61.3019,-63.9827 61.3019,-54.7125 61.3019,-46.1124"/>
<polygon fill="black" stroke="black" points="64.802,-46.1043 61.3019,-36.1043 57.802,-46.1044 64.802,-46.1043"/>
</g>
<!-- node507&#45;&gt;node506 -->
<g id="edge2" class="edge"><title>node507&#45;&gt;node506</title>
<path fill="none" stroke="black" d="M61.3019,-143.697C61.3019,-135.983 61.3019,-126.712 61.3019,-118.112"/>
<polygon fill="black" stroke="black" points="64.802,-118.104 61.3019,-108.104 57.802,-118.104 64.802,-118.104"/>
</g>
</g>
</svg>
