<?xml version="1.0" encoding="UTF-8" standalone="no"?>
<!DOCTYPE svg PUBLIC "-//W3C//DTD SVG 1.1//EN"
 "http://www.w3.org/Graphics/SVG/1.1/DTD/svg11.dtd">
<!-- Generated by graphviz version 2.38.0 (20140413.2041)
 -->
<!-- Title: replace Pages: 1 -->
<svg width="472pt" height="836pt"
 viewBox="0.00 0.00 471.92 836.00" xmlns="http://www.w3.org/2000/svg" xmlns:xlink="http://www.w3.org/1999/xlink">
<g id="graph0" class="graph" transform="scale(1 1) rotate(0) translate(4 832)">
<title>replace</title>
<polygon fill="white" stroke="none" points="-4,4 -4,-832 467.915,-832 467.915,4 -4,4"/>
<!-- start -->
<g id="node1" class="node"><title>start</title>
<polygon fill="none" stroke="black" points="257.381,-828 203.381,-828 203.381,-792 257.381,-792 257.381,-828"/>
<text text-anchor="middle" x="230.381" y="-805.8" font-family="Times,serif" font-size="14.00">Start</text>
</g>
<!-- node449 -->
<g id="node13" class="node"><title>node449</title>
<ellipse fill="none" stroke="black" cx="230.381" cy="-738" rx="61.6665" ry="18"/>
<text text-anchor="middle" x="230.381" y="-733.8" font-family="Times,serif" font-size="14.00">&quot;REPLACE&quot;</text>
</g>
<!-- start&#45;&gt;node449 -->
<g id="edge15" class="edge"><title>start&#45;&gt;node449</title>
<path fill="none" stroke="black" d="M230.381,-791.697C230.381,-783.983 230.381,-774.712 230.381,-766.112"/>
<polygon fill="black" stroke="black" points="233.881,-766.104 230.381,-756.104 226.881,-766.104 233.881,-766.104"/>
</g>
<!-- end -->
<g id="node2" class="node"><title>end</title>
<polygon fill="none" stroke="black" points="257.381,-36 203.381,-36 203.381,-0 257.381,-0 257.381,-36"/>
<text text-anchor="middle" x="230.381" y="-13.8" font-family="Times,serif" font-size="14.00">End</text>
</g>
<!-- node439 -->
<g id="node3" class="node"><title>node439</title>
<ellipse fill="none" stroke="black" cx="291.381" cy="-90" rx="93.97" ry="18"/>
<text text-anchor="middle" x="291.381" y="-85.8" font-family="Times,serif" font-size="14.00">&quot;IGNORING CASE&quot;</text>
</g>
<!-- node439&#45;&gt;end -->
<g id="edge1" class="edge"><title>node439&#45;&gt;end</title>
<path fill="none" stroke="black" d="M276.615,-72.055C269.232,-63.5832 260.156,-53.1679 252.006,-43.8154"/>
<polygon fill="black" stroke="black" points="254.644,-41.515 245.436,-36.2753 249.367,-46.1139 254.644,-41.515"/>
</g>
<!-- node440 -->
<g id="node4" class="node"><title>node440</title>
<g id="a_node4"><a xlink:href="reuse_source.svg" xlink:title="&lt;u&gt;source&lt;/u&gt;">
<ellipse fill="none" stroke="black" cx="230.381" cy="-162" rx="36.4761" ry="18"/>
<text text-anchor="start" x="212.114" y="-158.8" font-family="Times,serif" text-decoration="underline" font-size="14.00" fill="blue">source</text>
</a>
</g>
</g>
<!-- node440&#45;&gt;end -->
<g id="edge3" class="edge"><title>node440&#45;&gt;end</title>
<path fill="none" stroke="black" d="M213.521,-145.596C204.152,-135.856 193.4,-122.414 188.381,-108 183.12,-92.8898 183.12,-87.1102 188.381,-72 191.914,-61.855 198.287,-52.1914 205.018,-43.961"/>
<polygon fill="black" stroke="black" points="207.821,-46.0723 211.777,-36.2436 202.556,-41.4602 207.821,-46.0723"/>
</g>
<!-- node440&#45;&gt;node439 -->
<g id="edge2" class="edge"><title>node440&#45;&gt;node439</title>
<path fill="none" stroke="black" d="M244.223,-145.116C251.879,-136.331 261.554,-125.229 270.145,-115.37"/>
<polygon fill="black" stroke="black" points="272.813,-117.636 276.744,-107.797 267.535,-113.037 272.813,-117.636"/>
</g>
<!-- node441 -->
<g id="node5" class="node"><title>node441</title>
<ellipse fill="none" stroke="black" cx="230.381" cy="-234" rx="44.2311" ry="18"/>
<text text-anchor="middle" x="230.381" y="-229.8" font-family="Times,serif" font-size="14.00">&quot;WITH&quot;</text>
</g>
<!-- node441&#45;&gt;node440 -->
<g id="edge4" class="edge"><title>node441&#45;&gt;node440</title>
<path fill="none" stroke="black" d="M230.381,-215.697C230.381,-207.983 230.381,-198.712 230.381,-190.112"/>
<polygon fill="black" stroke="black" points="233.881,-190.104 230.381,-180.104 226.881,-190.104 233.881,-190.104"/>
</g>
<!-- node442 -->
<g id="node6" class="node"><title>node442</title>
<g id="a_node6"><a xlink:href="reuse_target.svg" xlink:title="&lt;u&gt;target&lt;/u&gt;">
<ellipse fill="none" stroke="black" cx="230.381" cy="-306" rx="33.0411" ry="18"/>
<text text-anchor="start" x="214.446" y="-302.8" font-family="Times,serif" text-decoration="underline" font-size="14.00" fill="blue">target</text>
</a>
</g>
</g>
<!-- node442&#45;&gt;node441 -->
<g id="edge5" class="edge"><title>node442&#45;&gt;node441</title>
<path fill="none" stroke="black" d="M230.381,-287.697C230.381,-279.983 230.381,-270.712 230.381,-262.112"/>
<polygon fill="black" stroke="black" points="233.881,-262.104 230.381,-252.104 226.881,-262.104 233.881,-262.104"/>
</g>
<!-- node443 -->
<g id="node7" class="node"><title>node443</title>
<ellipse fill="none" stroke="black" cx="230.381" cy="-378" rx="29.2019" ry="18"/>
<text text-anchor="middle" x="230.381" y="-373.8" font-family="Times,serif" font-size="14.00">&quot;IN&quot;</text>
</g>
<!-- node443&#45;&gt;node442 -->
<g id="edge6" class="edge"><title>node443&#45;&gt;node442</title>
<path fill="none" stroke="black" d="M230.381,-359.697C230.381,-351.983 230.381,-342.712 230.381,-334.112"/>
<polygon fill="black" stroke="black" points="233.881,-334.104 230.381,-324.104 226.881,-334.104 233.881,-334.104"/>
</g>
<!-- node444 -->
<g id="node8" class="node"><title>node444</title>
<g id="a_node8"><a xlink:href="reuse_source.svg" xlink:title="&lt;u&gt;source&lt;/u&gt;">
<ellipse fill="none" stroke="black" cx="230.381" cy="-450" rx="36.4761" ry="18"/>
<text text-anchor="start" x="212.114" y="-446.8" font-family="Times,serif" text-decoration="underline" font-size="14.00" fill="blue">source</text>
</a>
</g>
</g>
<!-- node444&#45;&gt;node443 -->
<g id="edge7" class="edge"><title>node444&#45;&gt;node443</title>
<path fill="none" stroke="black" d="M230.381,-431.697C230.381,-423.983 230.381,-414.712 230.381,-406.112"/>
<polygon fill="black" stroke="black" points="233.881,-406.104 230.381,-396.104 226.881,-406.104 233.881,-406.104"/>
</g>
<!-- node445 -->
<g id="node9" class="node"><title>node445</title>
<ellipse fill="none" stroke="black" cx="270.381" cy="-522" rx="51.193" ry="18"/>
<text text-anchor="middle" x="270.381" y="-517.8" font-family="Times,serif" font-size="14.00">&quot;REGEX&quot;</text>
</g>
<!-- node445&#45;&gt;node444 -->
<g id="edge8" class="edge"><title>node445&#45;&gt;node444</title>
<path fill="none" stroke="black" d="M260.698,-504.055C255.982,-495.801 250.211,-485.701 244.974,-476.538"/>
<polygon fill="black" stroke="black" points="247.975,-474.735 239.975,-467.789 241.898,-478.208 247.975,-474.735"/>
</g>
<!-- node446 -->
<g id="node10" class="node"><title>node446</title>
<ellipse fill="none" stroke="black" cx="230.381" cy="-594" rx="31.0105" ry="18"/>
<text text-anchor="middle" x="230.381" y="-589.8" font-family="Times,serif" font-size="14.00">&quot;OF&quot;</text>
</g>
<!-- node446&#45;&gt;node444 -->
<g id="edge10" class="edge"><title>node446&#45;&gt;node444</title>
<path fill="none" stroke="black" d="M222.283,-576.262C217.797,-566.048 212.676,-552.578 210.381,-540 207.51,-524.26 207.51,-519.74 210.381,-504 212.03,-494.96 215.14,-485.458 218.424,-477.036"/>
<polygon fill="black" stroke="black" points="221.683,-478.316 222.283,-467.738 215.217,-475.633 221.683,-478.316"/>
</g>
<!-- node446&#45;&gt;node445 -->
<g id="edge9" class="edge"><title>node446&#45;&gt;node445</title>
<path fill="none" stroke="black" d="M239.659,-576.765C244.367,-568.525 250.2,-558.317 255.515,-549.016"/>
<polygon fill="black" stroke="black" points="258.674,-550.543 260.596,-540.124 252.596,-547.07 258.674,-550.543"/>
</g>
<!-- node447 -->
<g id="node11" class="node"><title>node447</title>
<ellipse fill="none" stroke="black" cx="110.381" cy="-666" rx="110.263" ry="18"/>
<text text-anchor="middle" x="110.381" y="-661.8" font-family="Times,serif" font-size="14.00">&quot;ALL OCCURRENCES&quot;</text>
</g>
<!-- node447&#45;&gt;node446 -->
<g id="edge11" class="edge"><title>node447&#45;&gt;node446</title>
<path fill="none" stroke="black" d="M138.516,-648.588C157.09,-637.753 181.404,-623.57 200.352,-612.517"/>
<polygon fill="black" stroke="black" points="202.3,-615.433 209.174,-607.371 198.772,-609.387 202.3,-615.433"/>
</g>
<!-- node448 -->
<g id="node12" class="node"><title>node448</title>
<ellipse fill="none" stroke="black" cx="351.381" cy="-666" rx="112.568" ry="18"/>
<text text-anchor="middle" x="351.381" y="-661.8" font-family="Times,serif" font-size="14.00">&quot;FIRST OCCURRENCE&quot;</text>
</g>
<!-- node448&#45;&gt;node446 -->
<g id="edge12" class="edge"><title>node448&#45;&gt;node446</title>
<path fill="none" stroke="black" d="M322.706,-648.411C303.968,-637.571 279.536,-623.437 260.513,-612.431"/>
<polygon fill="black" stroke="black" points="262.066,-609.286 251.657,-607.308 258.56,-615.345 262.066,-609.286"/>
</g>
<!-- node449&#45;&gt;node447 -->
<g id="edge13" class="edge"><title>node449&#45;&gt;node447</title>
<path fill="none" stroke="black" d="M204.047,-721.638C187.446,-711.954 165.76,-699.304 147.437,-688.616"/>
<polygon fill="black" stroke="black" points="149.15,-685.563 138.748,-683.547 145.623,-691.609 149.15,-685.563"/>
</g>
<!-- node449&#45;&gt;node448 -->
<g id="edge14" class="edge"><title>node449&#45;&gt;node448</title>
<path fill="none" stroke="black" d="M256.935,-721.638C273.675,-711.954 295.541,-699.304 314.017,-688.616"/>
<polygon fill="black" stroke="black" points="315.875,-691.585 322.778,-683.547 312.369,-685.525 315.875,-691.585"/>
</g>
</g>
</svg>
