<svg xmlns="http://www.w3.org/2000/svg" xmlns:xlink="http://www.w3.org/1999/xlink" class="railroad-diagram" width="1898" height="178" viewBox="0 0 1898 178">
<defs>
<style type="text/css"><![CDATA[
path {
stroke-width: 3;
stroke: black;
fill: rgba(0,0,0,0);
}
text {
font: bold 14px monospace;
text-anchor: middle;
}
text.diagram-text {
font-size: 12px;
}
a {
fill: blue;
}
text.diagram-arrow {
font-size: 16px;
}
text.label {
text-anchor: start;
}
text.comment {
font: italic 12px monospace;
}
rect {
stroke-width: 3;
stroke: black;
fill: #BCBCBC;
}
path.diagram-text {
stroke-width: 3;
stroke: black;
fill: #BCBCBC;
cursor: help;
}
]]></style>
</defs>
<g transform="translate(.5 .5)">
<path d="M 20 38 v 20 m 10 -20 v 20 m -10 -10 h 20.5"></path>
<path d="M40 48h10"></path>
<g>
<path d="M50 48h0"></path>
<path d="M1848 48h0"></path>
<g class="terminal">
<path d="M50 48h0"></path>
<path d="M142 48h0"></path>
<rect x="50" y="37" width="92" height="22" rx="10" ry="10"></rect>
<text x="96" y="52">"REPLACE"</text>
</g>
<path d="M142 48h10"></path>
<path d="M152 48h10"></path>
<g>
<path d="M162 48h0"></path>
<path d="M848 48h0"></path>
<path d="M192 48h10"></path>
<g>
<path d="M202 48h0"></path>
<path d="M818 48h0"></path>
<g>
<path d="M202 48h0"></path>
<path d="M294 48h0"></path>
<path d="M202 48a10 10 0 0 0 10 -10v0a10 10 0 0 1 10 -10"></path>
<g>
<path d="M222 28h52"></path>
</g>
<path d="M274 28a10 10 0 0 1 10 10v0a10 10 0 0 0 10 10"></path>
<path d="M202 48h20"></path>
<g class="terminal">
<path d="M222 48h0"></path>
<path d="M274 48h0"></path>
<rect x="222" y="37" width="52" height="22" rx="10" ry="10"></rect>
<text x="248" y="52">"IN"</text>
</g>
<path d="M274 48h20"></path>
</g>
<path d="M294 48h10"></path>
<g class="terminal">
<path d="M304 48h0"></path>
<path d="M396 48h0"></path>
<rect x="304" y="37" width="92" height="22" rx="10" ry="10"></rect>
<text x="350" y="52">"SECTION"</text>
</g>
<path d="M396 48h10"></path>
<path d="M406 48h10"></path>
<g>
<path d="M416 48h0"></path>
<path d="M658 48h0"></path>
<path d="M446 48h10"></path>
<g>
<path d="M456 48h0"></path>
<path d="M628 48h0"></path>
<g class="terminal">
<path d="M456 48h0"></path>
<path d="M540 48h0"></path>
<rect x="456" y="37" width="84" height="22" rx="10" ry="10"></rect>
<text x="498" y="52">"OFFSET"</text>
</g>
<path d="M540 48h10"></path>
<path d="M550 48h10"></path>
<g class="non-terminal">
<path d="M560 48h0"></path>
<path d="M628 48h0"></path>
<rect x="560" y="37" width="68" height="22"></rect>
<a xlink:href="reuse_source.svg"><text x="594" y="52">Source</text>
</a>
</g>
</g>
<path d="M628 48h10"></path>
<path d="M446 48v20a10 10 0 0 0 10 10"></path>
<g>
<path d="M456 78h0"></path>
<path d="M628 78h0"></path>
<g class="terminal">
<path d="M456 78h0"></path>
<path d="M540 78h0"></path>
<rect x="456" y="67" width="84" height="22" rx="10" ry="10"></rect>
<text x="498" y="82">"LENGTH"</text>
</g>
<path d="M540 78h10"></path>
<path d="M550 78h10"></path>
<g class="non-terminal">
<path d="M560 78h0"></path>
<path d="M628 78h0"></path>
<rect x="560" y="67" width="68" height="22"></rect>
<a xlink:href="reuse_source.svg"><text x="594" y="82">Source</text>
</a>
</g>
</g>
<path d="M628 78a10 10 0 0 0 10 -10v-20"></path>
<g class="diagram-text">
<title>take one or more branches, once each, in any order</title>
<path d="M 446 38 h -26 a 4 4 0 0 0 -4 4 v 12 a 4 4 0 0 0 4 4 h 26 z" class="diagram-text"></path>
<text x="431" y="52" class="diagram-text">1+</text>
<path d="M 638 38 h 16 a 4 4 0 0 1 4 4 v 12 a 4 4 0 0 1 -4 4 h -16 z" class="diagram-text"></path>
<path d="M 645 46 a 4 4 0 1 0 6 -1 m 2.75 -1 h -4 v 4 m 0 -3 h 2" style="stroke-width: 1.75"></path>
</g>
</g>
<path d="M658 48h10"></path>
<path d="M668 48h10"></path>
<g class="terminal">
<path d="M678 48h0"></path>
<path d="M730 48h0"></path>
<rect x="678" y="37" width="52" height="22" rx="10" ry="10"></rect>
<text x="704" y="52">"OF"</text>
</g>
<path d="M730 48h10"></path>
<path d="M740 48h10"></path>
<g class="non-terminal">
<path d="M750 48h0"></path>
<path d="M818 48h0"></path>
<rect x="750" y="37" width="68" height="22"></rect>
<a xlink:href="reuse_source.svg"><text x="784" y="52">Source</text>
</a>
</g>
</g>
<path d="M818 48h10"></path>
<path d="M192 48v59a10 10 0 0 0 10 10"></path>
<g>
<path d="M202 117h0"></path>
<path d="M742 117h76"></path>
<g>
<path d="M202 117h0"></path>
<path d="M446 117h0"></path>
<path d="M202 117a10 10 0 0 0 10 -10v0a10 10 0 0 1 10 -10"></path>
<g>
<path d="M222 97h204"></path>
</g>
<path d="M426 97a10 10 0 0 1 10 10v0a10 10 0 0 0 10 10"></path>
<path d="M202 117h20"></path>
<g>
<path d="M222 117h0"></path>
<path d="M426 117h0"></path>
<path d="M222 117h20"></path>
<g class="terminal">
<path d="M242 117h0"></path>
<path d="M398 117h8"></path>
<rect x="242" y="106" width="156" height="22" rx="10" ry="10"></rect>
<text x="320" y="121">"ALL OCCURRENCES"</text>
</g>
<path d="M406 117h20"></path>
<path d="M222 117a10 10 0 0 1 10 10v10a10 10 0 0 0 10 10"></path>
<g class="terminal">
<path d="M242 147h0"></path>
<path d="M406 147h0"></path>
<rect x="242" y="136" width="164" height="22" rx="10" ry="10"></rect>
<text x="324" y="151">"FIRST OCCURRENCE"</text>
</g>
<path d="M406 147a10 10 0 0 0 10 -10v-10a10 10 0 0 1 10 -10"></path>
</g>
<path d="M426 117h20"></path>
</g>
<path d="M446 117h10"></path>
<g>
<path d="M456 117h0"></path>
<path d="M742 117h0"></path>
<g>
<path d="M456 117h0"></path>
<path d="M548 117h0"></path>
<path d="M456 117a10 10 0 0 0 10 -10v0a10 10 0 0 1 10 -10"></path>
<g>
<path d="M476 97h52"></path>
</g>
<path d="M528 97a10 10 0 0 1 10 10v0a10 10 0 0 0 10 10"></path>
<path d="M456 117h20"></path>
<g class="terminal">
<path d="M476 117h0"></path>
<path d="M528 117h0"></path>
<rect x="476" y="106" width="52" height="22" rx="10" ry="10"></rect>
<text x="502" y="121">"OF"</text>
</g>
<path d="M528 117h20"></path>
</g>
<g>
<path d="M548 117h0"></path>
<path d="M664 117h0"></path>
<path d="M548 117a10 10 0 0 0 10 -10v0a10 10 0 0 1 10 -10"></path>
<g>
<path d="M568 97h76"></path>
</g>
<path d="M644 97a10 10 0 0 1 10 10v0a10 10 0 0 0 10 10"></path>
<path d="M548 117h20"></path>
<g class="terminal">
<path d="M568 117h0"></path>
<path d="M644 117h0"></path>
<rect x="568" y="106" width="76" height="22" rx="10" ry="10"></rect>
<text x="606" y="121">"REGEX"</text>
</g>
<path d="M644 117h20"></path>
</g>
<path d="M664 117h10"></path>
<g class="non-terminal">
<path d="M674 117h0"></path>
<path d="M742 117h0"></path>
<rect x="674" y="106" width="68" height="22"></rect>
<a xlink:href="reuse_source.svg"><text x="708" y="121">Source</text>
</a>
</g>
</g>
</g>
<path d="M818 117a10 10 0 0 0 10 -10v-59"></path>
<g class="diagram-text">
<title>take one or more branches, once each, in any order</title>
<path d="M 192 38 h -26 a 4 4 0 0 0 -4 4 v 12 a 4 4 0 0 0 4 4 h 26 z" class="diagram-text"></path>
<text x="177" y="52" class="diagram-text">1+</text>
<path d="M 828 38 h 16 a 4 4 0 0 1 4 4 v 12 a 4 4 0 0 1 -4 4 h -16 z" class="diagram-text"></path>
<path d="M 835 46 a 4 4 0 1 0 6 -1 m 2.75 -1 h -4 v 4 m 0 -3 h 2" style="stroke-width: 1.75"></path>
</g>
</g>
<path d="M848 48h10"></path>
<g>
<path d="M858 48h0"></path>
<path d="M1154 48h0"></path>
<path d="M858 48a10 10 0 0 0 10 -10v-8a10 10 0 0 1 10 -10"></path>
<g>
<path d="M878 20h256"></path>
</g>
<path d="M1134 20a10 10 0 0 1 10 10v8a10 10 0 0 0 10 10"></path>
<path d="M858 48h20"></path>
<g>
<path d="M878 48h0"></path>
<path d="M1134 48h0"></path>
<g class="terminal">
<path d="M878 48h0"></path>
<path d="M930 48h0"></path>
<rect x="878" y="37" width="52" height="22" rx="10" ry="10"></rect>
<text x="904" y="52">"IN"</text>
</g>
<path d="M930 48h10"></path>
<g>
<path d="M940 48h0"></path>
<path d="M1056 48h0"></path>
<path d="M940 48a10 10 0 0 0 10 -10v0a10 10 0 0 1 10 -10"></path>
<g>
<path d="M960 28h76"></path>
</g>
<path d="M1036 28a10 10 0 0 1 10 10v0a10 10 0 0 0 10 10"></path>
<path d="M940 48h20"></path>
<g class="terminal">
<path d="M960 48h0"></path>
<path d="M1036 48h0"></path>
<rect x="960" y="37" width="76" height="22" rx="10" ry="10"></rect>
<text x="998" y="52">"TABLE"</text>
</g>
<path d="M1036 48h20"></path>
</g>
<path d="M1056 48h10"></path>
<g class="non-terminal">
<path d="M1066 48h0"></path>
<path d="M1134 48h0"></path>
<rect x="1066" y="37" width="68" height="22"></rect>
<a xlink:href="reuse_target.svg"><text x="1100" y="52">Target</text>
</a>
</g>
</g>
<path d="M1134 48h20"></path>
</g>
<path d="M1154 48h10"></path>
<g>
<path d="M1164 48h0"></path>
<path d="M1390 48h0"></path>
<path d="M1194 48h10"></path>
<g>
<path d="M1204 48h0"></path>
<path d="M1360 48h0"></path>
<g class="terminal">
<path d="M1204 48h0"></path>
<path d="M1272 48h0"></path>
<rect x="1204" y="37" width="68" height="22" rx="10" ry="10"></rect>
<text x="1238" y="52">"WITH"</text>
</g>
<path d="M1272 48h10"></path>
<path d="M1282 48h10"></path>
<g class="non-terminal">
<path d="M1292 48h0"></path>
<path d="M1360 48h0"></path>
<rect x="1292" y="37" width="68" height="22"></rect>
<a xlink:href="reuse_source.svg"><text x="1326" y="52">Source</text>
</a>
</g>
</g>
<path d="M1360 48h10"></path>
<path d="M1194 48v20a10 10 0 0 0 10 10"></path>
<g>
<path d="M1204 78h0"></path>
<path d="M1360 78h0"></path>
<g class="terminal">
<path d="M1204 78h0"></path>
<path d="M1272 78h0"></path>
<rect x="1204" y="67" width="68" height="22" rx="10" ry="10"></rect>
<text x="1238" y="82">"INTO"</text>
</g>
<path d="M1272 78h10"></path>
<path d="M1282 78h10"></path>
<g class="non-terminal">
<path d="M1292 78h0"></path>
<path d="M1360 78h0"></path>
<rect x="1292" y="67" width="68" height="22"></rect>
<a xlink:href="reuse_target.svg"><text x="1326" y="82">Target</text>
</a>
</g>
</g>
<path d="M1360 78a10 10 0 0 0 10 -10v-20"></path>
<g class="diagram-text">
<title>take one or more branches, once each, in any order</title>
<path d="M 1194 38 h -26 a 4 4 0 0 0 -4 4 v 12 a 4 4 0 0 0 4 4 h 26 z" class="diagram-text"></path>
<text x="1179" y="52" class="diagram-text">1+</text>
<path d="M 1370 38 h 16 a 4 4 0 0 1 4 4 v 12 a 4 4 0 0 1 -4 4 h -16 z" class="diagram-text"></path>
<path d="M 1377 46 a 4 4 0 1 0 6 -1 m 2.75 -1 h -4 v 4 m 0 -3 h 2" style="stroke-width: 1.75"></path>
</g>
</g>
<path d="M1390 48h10"></path>
<g>
<path d="M1400 48h0"></path>
<path d="M1636 48h0"></path>
<path d="M1400 48a10 10 0 0 0 10 -10v0a10 10 0 0 1 10 -10"></path>
<g>
<path d="M1420 28h196"></path>
</g>
<path d="M1616 28a10 10 0 0 1 10 10v0a10 10 0 0 0 10 10"></path>
<path d="M1400 48h20"></path>
<g>
<path d="M1420 48h0"></path>
<path d="M1616 48h0"></path>
<path d="M1420 48h20"></path>
<g class="terminal">
<path d="M1440 48h0"></path>
<path d="M1580 48h16"></path>
<rect x="1440" y="37" width="140" height="22" rx="10" ry="10"></rect>
<text x="1510" y="52">"IGNORING CASE"</text>
</g>
<path d="M1596 48h20"></path>
<path d="M1420 48a10 10 0 0 1 10 10v10a10 10 0 0 0 10 10"></path>
<g class="terminal">
<path d="M1440 78h0"></path>
<path d="M1596 78h0"></path>
<rect x="1440" y="67" width="156" height="22" rx="10" ry="10"></rect>
<text x="1518" y="82">"RESPECTING CASE"</text>
</g>
<path d="M1596 78a10 10 0 0 0 10 -10v-10a10 10 0 0 1 10 -10"></path>
</g>
<path d="M1616 48h20"></path>
</g>
<g>
<path d="M1636 48h0"></path>
<path d="M1848 48h0"></path>
<path d="M1636 48a10 10 0 0 0 10 -10v0a10 10 0 0 1 10 -10"></path>
<g>
<path d="M1656 28h172"></path>
</g>
<path d="M1828 28a10 10 0 0 1 10 10v0a10 10 0 0 0 10 10"></path>
<path d="M1636 48h20"></path>
<g class="terminal">
<path d="M1656 48h0"></path>
<path d="M1828 48h0"></path>
<rect x="1656" y="37" width="172" height="22" rx="10" ry="10"></rect>
<text x="1742" y="52">"IN CHARACTER MODE"</text>
</g>
<path d="M1828 48h20"></path>
</g>
</g>
<path d="M1848 48h10"></path>
<path d="M 1858 48 h 20 m -10 -10 v 20 m 10 -20 v 20"></path>
</g>
</svg>
