<svg xmlns="http://www.w3.org/2000/svg" xmlns:xlink="http://www.w3.org/1999/xlink" class="railroad-diagram" width="1854" height="140" viewBox="0 0 1854 140">
<defs>
<style type="text/css"><![CDATA[
path {
stroke-width: 3;
stroke: black;
fill: rgba(0,0,0,0);
}
text {
font: bold 14px monospace;
text-anchor: middle;
}
text.diagram-text {
font-size: 12px;
}
a {
fill: blue;
}
text.diagram-arrow {
font-size: 16px;
}
text.label {
text-anchor: start;
}
text.comment {
font: italic 12px monospace;
}
rect {
stroke-width: 3;
stroke: black;
fill: #BCBCBC;
}
path.diagram-text {
stroke-width: 3;
stroke: black;
fill: #BCBCBC;
cursor: help;
}
]]></style>
</defs>
<g transform="translate(.5 .5)">
<path d="M 20 30 v 20 m 10 -20 v 20 m -10 -10 h 20.5"></path>
<path d="M40 40h10"></path>
<g>
<path d="M50 40h0"></path>
<path d="M1804 40h0"></path>
<g class="terminal">
<path d="M50 40h0"></path>
<path d="M142 40h0"></path>
<rect x="50" y="29" width="92" height="22" rx="10" ry="10"></rect>
<text x="96" y="44">"REPLACE"</text>
</g>
<path d="M142 40h10"></path>
<g>
<path d="M152 40h0"></path>
<path d="M690 40h0"></path>
<path d="M152 40a10 10 0 0 0 10 -10v0a10 10 0 0 1 10 -10"></path>
<g>
<path d="M172 20h498"></path>
</g>
<path d="M670 20a10 10 0 0 1 10 10v0a10 10 0 0 0 10 10"></path>
<path d="M152 40h20"></path>
<g>
<path d="M172 40h0"></path>
<path d="M670 40h0"></path>
<path d="M172 40h20"></path>
<g class="terminal">
<path d="M192 40h0"></path>
<path d="M348 40h302"></path>
<rect x="192" y="29" width="156" height="22" rx="10" ry="10"></rect>
<text x="270" y="44">"ALL OCCURRENCES"</text>
</g>
<path d="M650 40h20"></path>
<path d="M172 40a10 10 0 0 1 10 10v10a10 10 0 0 0 10 10"></path>
<g class="terminal">
<path d="M192 70h0"></path>
<path d="M356 70h294"></path>
<rect x="192" y="59" width="164" height="22" rx="10" ry="10"></rect>
<text x="274" y="74">"FIRST OCCURRENCE"</text>
</g>
<path d="M650 70a10 10 0 0 0 10 -10v-10a10 10 0 0 1 10 -10"></path>
<path d="M172 40a10 10 0 0 1 10 10v49a10 10 0 0 0 10 10"></path>
<g>
<path d="M192 109h0"></path>
<path d="M650 109h0"></path>
<g class="terminal">
<path d="M192 109h0"></path>
<path d="M340 109h0"></path>
<rect x="192" y="98" width="148" height="22" rx="10" ry="10"></rect>
<text x="266" y="113">"SECTION OFFSET"</text>
</g>
<path d="M340 109h10"></path>
<path d="M350 109h10"></path>
<g class="non-terminal">
<path d="M360 109h0"></path>
<path d="M428 109h0"></path>
<rect x="360" y="98" width="68" height="22"></rect>
<a xlink:href="reuse_source.svg"><text x="394" y="113">Source</text>
</a>
</g>
<path d="M428 109h10"></path>
<g>
<path d="M438 109h0"></path>
<path d="M650 109h0"></path>
<path d="M438 109a10 10 0 0 0 10 -10v0a10 10 0 0 1 10 -10"></path>
<g>
<path d="M458 89h172"></path>
</g>
<path d="M630 89a10 10 0 0 1 10 10v0a10 10 0 0 0 10 10"></path>
<path d="M438 109h20"></path>
<g>
<path d="M458 109h0"></path>
<path d="M630 109h0"></path>
<g class="terminal">
<path d="M458 109h0"></path>
<path d="M542 109h0"></path>
<rect x="458" y="98" width="84" height="22" rx="10" ry="10"></rect>
<text x="500" y="113">"LENGTH"</text>
</g>
<path d="M542 109h10"></path>
<path d="M552 109h10"></path>
<g class="non-terminal">
<path d="M562 109h0"></path>
<path d="M630 109h0"></path>
<rect x="562" y="98" width="68" height="22"></rect>
<a xlink:href="reuse_source.svg"><text x="596" y="113">Source</text>
</a>
</g>
</g>
<path d="M630 109h20"></path>
</g>
</g>
<path d="M650 109a10 10 0 0 0 10 -10v-49a10 10 0 0 1 10 -10"></path>
</g>
<path d="M670 40h20"></path>
</g>
<g>
<path d="M690 40h0"></path>
<path d="M782 40h0"></path>
<path d="M690 40a10 10 0 0 0 10 -10v0a10 10 0 0 1 10 -10"></path>
<g>
<path d="M710 20h52"></path>
</g>
<path d="M762 20a10 10 0 0 1 10 10v0a10 10 0 0 0 10 10"></path>
<path d="M690 40h20"></path>
<g class="terminal">
<path d="M710 40h0"></path>
<path d="M762 40h0"></path>
<rect x="710" y="29" width="52" height="22" rx="10" ry="10"></rect>
<text x="736" y="44">"OF"</text>
</g>
<path d="M762 40h20"></path>
</g>
<g>
<path d="M782 40h0"></path>
<path d="M898 40h0"></path>
<path d="M782 40a10 10 0 0 0 10 -10v0a10 10 0 0 1 10 -10"></path>
<g>
<path d="M802 20h76"></path>
</g>
<path d="M878 20a10 10 0 0 1 10 10v0a10 10 0 0 0 10 10"></path>
<path d="M782 40h20"></path>
<g class="terminal">
<path d="M802 40h0"></path>
<path d="M878 40h0"></path>
<rect x="802" y="29" width="76" height="22" rx="10" ry="10"></rect>
<text x="840" y="44">"REGEX"</text>
</g>
<path d="M878 40h20"></path>
</g>
<path d="M898 40h10"></path>
<g class="non-terminal">
<path d="M908 40h0"></path>
<path d="M976 40h0"></path>
<rect x="908" y="29" width="68" height="22"></rect>
<a xlink:href="reuse_source.svg"><text x="942" y="44">Source</text>
</a>
</g>
<path d="M976 40h10"></path>
<g>
<path d="M986 40h0"></path>
<path d="M1166 40h0"></path>
<path d="M986 40a10 10 0 0 0 10 -10v0a10 10 0 0 1 10 -10"></path>
<g>
<path d="M1006 20h140"></path>
</g>
<path d="M1146 20a10 10 0 0 1 10 10v0a10 10 0 0 0 10 10"></path>
<path d="M986 40h20"></path>
<g>
<path d="M1006 40h0"></path>
<path d="M1146 40h0"></path>
<g class="terminal">
<path d="M1006 40h0"></path>
<path d="M1058 40h0"></path>
<rect x="1006" y="29" width="52" height="22" rx="10" ry="10"></rect>
<text x="1032" y="44">"IN"</text>
</g>
<path d="M1058 40h10"></path>
<path d="M1068 40h10"></path>
<g class="non-terminal">
<path d="M1078 40h0"></path>
<path d="M1146 40h0"></path>
<rect x="1078" y="29" width="68" height="22"></rect>
<a xlink:href="reuse_target.svg"><text x="1112" y="44">Target</text>
</a>
</g>
</g>
<path d="M1146 40h20"></path>
</g>
<path d="M1166 40h10"></path>
<g>
<path d="M1176 40h0"></path>
<path d="M1402 40h0"></path>
<path d="M1206 40h10"></path>
<g>
<path d="M1216 40h0"></path>
<path d="M1372 40h0"></path>
<g class="terminal">
<path d="M1216 40h0"></path>
<path d="M1284 40h0"></path>
<rect x="1216" y="29" width="68" height="22" rx="10" ry="10"></rect>
<text x="1250" y="44">"WITH"</text>
</g>
<path d="M1284 40h10"></path>
<path d="M1294 40h10"></path>
<g class="non-terminal">
<path d="M1304 40h0"></path>
<path d="M1372 40h0"></path>
<rect x="1304" y="29" width="68" height="22"></rect>
<a xlink:href="reuse_source.svg"><text x="1338" y="44">Source</text>
</a>
</g>
</g>
<path d="M1372 40h10"></path>
<path d="M1206 40v20a10 10 0 0 0 10 10"></path>
<g>
<path d="M1216 70h0"></path>
<path d="M1372 70h0"></path>
<g class="terminal">
<path d="M1216 70h0"></path>
<path d="M1284 70h0"></path>
<rect x="1216" y="59" width="68" height="22" rx="10" ry="10"></rect>
<text x="1250" y="74">"INTO"</text>
</g>
<path d="M1284 70h10"></path>
<path d="M1294 70h10"></path>
<g class="non-terminal">
<path d="M1304 70h0"></path>
<path d="M1372 70h0"></path>
<rect x="1304" y="59" width="68" height="22"></rect>
<a xlink:href="reuse_target.svg"><text x="1338" y="74">Target</text>
</a>
</g>
</g>
<path d="M1372 70a10 10 0 0 0 10 -10v-20"></path>
<g class="diagram-text">
<title>take one or more branches, once each, in any order</title>
<path d="M 1206 30 h -26 a 4 4 0 0 0 -4 4 v 12 a 4 4 0 0 0 4 4 h 26 z" class="diagram-text"></path>
<text x="1191" y="44" class="diagram-text">1+</text>
<path d="M 1382 30 h 16 a 4 4 0 0 1 4 4 v 12 a 4 4 0 0 1 -4 4 h -16 z" class="diagram-text"></path>
<path d="M 1389 38 a 4 4 0 1 0 6 -1 m 2.75 -1 h -4 v 4 m 0 -3 h 2" style="stroke-width: 1.75"></path>
</g>
</g>
<path d="M1402 40h10"></path>
<g>
<path d="M1412 40h0"></path>
<path d="M1592 40h0"></path>
<path d="M1412 40a10 10 0 0 0 10 -10v0a10 10 0 0 1 10 -10"></path>
<g>
<path d="M1432 20h140"></path>
</g>
<path d="M1572 20a10 10 0 0 1 10 10v0a10 10 0 0 0 10 10"></path>
<path d="M1412 40h20"></path>
<g class="terminal">
<path d="M1432 40h0"></path>
<path d="M1572 40h0"></path>
<rect x="1432" y="29" width="140" height="22" rx="10" ry="10"></rect>
<text x="1502" y="44">"IGNORING CASE"</text>
</g>
<path d="M1572 40h20"></path>
</g>
<g>
<path d="M1592 40h0"></path>
<path d="M1804 40h0"></path>
<path d="M1592 40a10 10 0 0 0 10 -10v0a10 10 0 0 1 10 -10"></path>
<g>
<path d="M1612 20h172"></path>
</g>
<path d="M1784 20a10 10 0 0 1 10 10v0a10 10 0 0 0 10 10"></path>
<path d="M1592 40h20"></path>
<g class="terminal">
<path d="M1612 40h0"></path>
<path d="M1784 40h0"></path>
<rect x="1612" y="29" width="172" height="22" rx="10" ry="10"></rect>
<text x="1698" y="44">"IN CHARACTER MODE"</text>
</g>
<path d="M1784 40h20"></path>
</g>
</g>
<path d="M1804 40h10"></path>
<path d="M 1814 40 h 20 m -10 -10 v 20 m 10 -20 v 20"></path>
</g>
</svg>
