<svg xmlns="http://www.w3.org/2000/svg" xmlns:xlink="http://www.w3.org/1999/xlink" class="railroad-diagram" width="1970" height="148" viewBox="0 0 1970 148">
<defs>
<style type="text/css"><![CDATA[
path {
stroke-width: 3;
stroke: black;
fill: rgba(0,0,0,0);
}
text {
font: bold 14px monospace;
text-anchor: middle;
}
text.diagram-text {
font-size: 12px;
}
a {
fill: blue;
}
text.diagram-arrow {
font-size: 16px;
}
text.label {
text-anchor: start;
}
text.comment {
font: italic 12px monospace;
}
rect {
stroke-width: 3;
stroke: black;
fill: #BCBCBC;
}
path.diagram-text {
stroke-width: 3;
stroke: black;
fill: #BCBCBC;
cursor: help;
}
]]></style>
</defs>
<g transform="translate(.5 .5)">
<path d="M 20 38 v 20 m 10 -20 v 20 m -10 -10 h 20.5"></path>
<path d="M40 48h10"></path>
<g>
<path d="M50 48h0"></path>
<path d="M1920 48h0"></path>
<g class="terminal">
<path d="M50 48h0"></path>
<path d="M142 48h0"></path>
<rect x="50" y="37" width="92" height="22" rx="10" ry="10"></rect>
<text x="96" y="52">"REPLACE"</text>
</g>
<path d="M142 48h10"></path>
<g>
<path d="M152 48h0"></path>
<path d="M690 48h0"></path>
<path d="M152 48a10 10 0 0 0 10 -10v0a10 10 0 0 1 10 -10"></path>
<g>
<path d="M172 28h498"></path>
</g>
<path d="M670 28a10 10 0 0 1 10 10v0a10 10 0 0 0 10 10"></path>
<path d="M152 48h20"></path>
<g>
<path d="M172 48h0"></path>
<path d="M670 48h0"></path>
<path d="M172 48h20"></path>
<g class="terminal">
<path d="M192 48h0"></path>
<path d="M348 48h302"></path>
<rect x="192" y="37" width="156" height="22" rx="10" ry="10"></rect>
<text x="270" y="52">"ALL OCCURRENCES"</text>
</g>
<path d="M650 48h20"></path>
<path d="M172 48a10 10 0 0 1 10 10v10a10 10 0 0 0 10 10"></path>
<g class="terminal">
<path d="M192 78h0"></path>
<path d="M356 78h294"></path>
<rect x="192" y="67" width="164" height="22" rx="10" ry="10"></rect>
<text x="274" y="82">"FIRST OCCURRENCE"</text>
</g>
<path d="M650 78a10 10 0 0 0 10 -10v-10a10 10 0 0 1 10 -10"></path>
<path d="M172 48a10 10 0 0 1 10 10v49a10 10 0 0 0 10 10"></path>
<g>
<path d="M192 117h0"></path>
<path d="M650 117h0"></path>
<g class="terminal">
<path d="M192 117h0"></path>
<path d="M340 117h0"></path>
<rect x="192" y="106" width="148" height="22" rx="10" ry="10"></rect>
<text x="266" y="121">"SECTION OFFSET"</text>
</g>
<path d="M340 117h10"></path>
<path d="M350 117h10"></path>
<g class="non-terminal">
<path d="M360 117h0"></path>
<path d="M428 117h0"></path>
<rect x="360" y="106" width="68" height="22"></rect>
<a xlink:href="reuse_source.svg"><text x="394" y="121">Source</text>
</a>
</g>
<path d="M428 117h10"></path>
<g>
<path d="M438 117h0"></path>
<path d="M650 117h0"></path>
<path d="M438 117a10 10 0 0 0 10 -10v0a10 10 0 0 1 10 -10"></path>
<g>
<path d="M458 97h172"></path>
</g>
<path d="M630 97a10 10 0 0 1 10 10v0a10 10 0 0 0 10 10"></path>
<path d="M438 117h20"></path>
<g>
<path d="M458 117h0"></path>
<path d="M630 117h0"></path>
<g class="terminal">
<path d="M458 117h0"></path>
<path d="M542 117h0"></path>
<rect x="458" y="106" width="84" height="22" rx="10" ry="10"></rect>
<text x="500" y="121">"LENGTH"</text>
</g>
<path d="M542 117h10"></path>
<path d="M552 117h10"></path>
<g class="non-terminal">
<path d="M562 117h0"></path>
<path d="M630 117h0"></path>
<rect x="562" y="106" width="68" height="22"></rect>
<a xlink:href="reuse_source.svg"><text x="596" y="121">Source</text>
</a>
</g>
</g>
<path d="M630 117h20"></path>
</g>
</g>
<path d="M650 117a10 10 0 0 0 10 -10v-49a10 10 0 0 1 10 -10"></path>
</g>
<path d="M670 48h20"></path>
</g>
<g>
<path d="M690 48h0"></path>
<path d="M782 48h0"></path>
<path d="M690 48a10 10 0 0 0 10 -10v0a10 10 0 0 1 10 -10"></path>
<g>
<path d="M710 28h52"></path>
</g>
<path d="M762 28a10 10 0 0 1 10 10v0a10 10 0 0 0 10 10"></path>
<path d="M690 48h20"></path>
<g class="terminal">
<path d="M710 48h0"></path>
<path d="M762 48h0"></path>
<rect x="710" y="37" width="52" height="22" rx="10" ry="10"></rect>
<text x="736" y="52">"OF"</text>
</g>
<path d="M762 48h20"></path>
</g>
<g>
<path d="M782 48h0"></path>
<path d="M898 48h0"></path>
<path d="M782 48a10 10 0 0 0 10 -10v0a10 10 0 0 1 10 -10"></path>
<g>
<path d="M802 28h76"></path>
</g>
<path d="M878 28a10 10 0 0 1 10 10v0a10 10 0 0 0 10 10"></path>
<path d="M782 48h20"></path>
<g class="terminal">
<path d="M802 48h0"></path>
<path d="M878 48h0"></path>
<rect x="802" y="37" width="76" height="22" rx="10" ry="10"></rect>
<text x="840" y="52">"REGEX"</text>
</g>
<path d="M878 48h20"></path>
</g>
<path d="M898 48h10"></path>
<g class="non-terminal">
<path d="M908 48h0"></path>
<path d="M976 48h0"></path>
<rect x="908" y="37" width="68" height="22"></rect>
<a xlink:href="reuse_source.svg"><text x="942" y="52">Source</text>
</a>
</g>
<path d="M976 48h10"></path>
<g>
<path d="M986 48h0"></path>
<path d="M1282 48h0"></path>
<path d="M986 48a10 10 0 0 0 10 -10v-8a10 10 0 0 1 10 -10"></path>
<g>
<path d="M1006 20h256"></path>
</g>
<path d="M1262 20a10 10 0 0 1 10 10v8a10 10 0 0 0 10 10"></path>
<path d="M986 48h20"></path>
<g>
<path d="M1006 48h0"></path>
<path d="M1262 48h0"></path>
<g class="terminal">
<path d="M1006 48h0"></path>
<path d="M1058 48h0"></path>
<rect x="1006" y="37" width="52" height="22" rx="10" ry="10"></rect>
<text x="1032" y="52">"IN"</text>
</g>
<path d="M1058 48h10"></path>
<g>
<path d="M1068 48h0"></path>
<path d="M1184 48h0"></path>
<path d="M1068 48a10 10 0 0 0 10 -10v0a10 10 0 0 1 10 -10"></path>
<g>
<path d="M1088 28h76"></path>
</g>
<path d="M1164 28a10 10 0 0 1 10 10v0a10 10 0 0 0 10 10"></path>
<path d="M1068 48h20"></path>
<g class="terminal">
<path d="M1088 48h0"></path>
<path d="M1164 48h0"></path>
<rect x="1088" y="37" width="76" height="22" rx="10" ry="10"></rect>
<text x="1126" y="52">"TABLE"</text>
</g>
<path d="M1164 48h20"></path>
</g>
<path d="M1184 48h10"></path>
<g class="non-terminal">
<path d="M1194 48h0"></path>
<path d="M1262 48h0"></path>
<rect x="1194" y="37" width="68" height="22"></rect>
<a xlink:href="reuse_target.svg"><text x="1228" y="52">Target</text>
</a>
</g>
</g>
<path d="M1262 48h20"></path>
</g>
<path d="M1282 48h10"></path>
<g>
<path d="M1292 48h0"></path>
<path d="M1518 48h0"></path>
<path d="M1322 48h10"></path>
<g>
<path d="M1332 48h0"></path>
<path d="M1488 48h0"></path>
<g class="terminal">
<path d="M1332 48h0"></path>
<path d="M1400 48h0"></path>
<rect x="1332" y="37" width="68" height="22" rx="10" ry="10"></rect>
<text x="1366" y="52">"WITH"</text>
</g>
<path d="M1400 48h10"></path>
<path d="M1410 48h10"></path>
<g class="non-terminal">
<path d="M1420 48h0"></path>
<path d="M1488 48h0"></path>
<rect x="1420" y="37" width="68" height="22"></rect>
<a xlink:href="reuse_source.svg"><text x="1454" y="52">Source</text>
</a>
</g>
</g>
<path d="M1488 48h10"></path>
<path d="M1322 48v20a10 10 0 0 0 10 10"></path>
<g>
<path d="M1332 78h0"></path>
<path d="M1488 78h0"></path>
<g class="terminal">
<path d="M1332 78h0"></path>
<path d="M1400 78h0"></path>
<rect x="1332" y="67" width="68" height="22" rx="10" ry="10"></rect>
<text x="1366" y="82">"INTO"</text>
</g>
<path d="M1400 78h10"></path>
<path d="M1410 78h10"></path>
<g class="non-terminal">
<path d="M1420 78h0"></path>
<path d="M1488 78h0"></path>
<rect x="1420" y="67" width="68" height="22"></rect>
<a xlink:href="reuse_target.svg"><text x="1454" y="82">Target</text>
</a>
</g>
</g>
<path d="M1488 78a10 10 0 0 0 10 -10v-20"></path>
<g class="diagram-text">
<title>take one or more branches, once each, in any order</title>
<path d="M 1322 38 h -26 a 4 4 0 0 0 -4 4 v 12 a 4 4 0 0 0 4 4 h 26 z" class="diagram-text"></path>
<text x="1307" y="52" class="diagram-text">1+</text>
<path d="M 1498 38 h 16 a 4 4 0 0 1 4 4 v 12 a 4 4 0 0 1 -4 4 h -16 z" class="diagram-text"></path>
<path d="M 1505 46 a 4 4 0 1 0 6 -1 m 2.75 -1 h -4 v 4 m 0 -3 h 2" style="stroke-width: 1.75"></path>
</g>
</g>
<path d="M1518 48h10"></path>
<g>
<path d="M1528 48h0"></path>
<path d="M1708 48h0"></path>
<path d="M1528 48a10 10 0 0 0 10 -10v0a10 10 0 0 1 10 -10"></path>
<g>
<path d="M1548 28h140"></path>
</g>
<path d="M1688 28a10 10 0 0 1 10 10v0a10 10 0 0 0 10 10"></path>
<path d="M1528 48h20"></path>
<g class="terminal">
<path d="M1548 48h0"></path>
<path d="M1688 48h0"></path>
<rect x="1548" y="37" width="140" height="22" rx="10" ry="10"></rect>
<text x="1618" y="52">"IGNORING CASE"</text>
</g>
<path d="M1688 48h20"></path>
</g>
<g>
<path d="M1708 48h0"></path>
<path d="M1920 48h0"></path>
<path d="M1708 48a10 10 0 0 0 10 -10v0a10 10 0 0 1 10 -10"></path>
<g>
<path d="M1728 28h172"></path>
</g>
<path d="M1900 28a10 10 0 0 1 10 10v0a10 10 0 0 0 10 10"></path>
<path d="M1708 48h20"></path>
<g class="terminal">
<path d="M1728 48h0"></path>
<path d="M1900 48h0"></path>
<rect x="1728" y="37" width="172" height="22" rx="10" ry="10"></rect>
<text x="1814" y="52">"IN CHARACTER MODE"</text>
</g>
<path d="M1900 48h20"></path>
</g>
</g>
<path d="M1920 48h10"></path>
<path d="M 1930 48 h 20 m -10 -10 v 20 m 10 -20 v 20"></path>
</g>
</svg>
