<svg xmlns="http://www.w3.org/2000/svg" xmlns:xlink="http://www.w3.org/1999/xlink" class="railroad-diagram" width="1632" height="131" viewBox="0 0 1632 131">
<defs>
<style type="text/css"><![CDATA[
path {
stroke-width: 3;
stroke: black;
fill: rgba(0,0,0,0);
}
text {
font: bold 14px monospace;
text-anchor: middle;
}
text.diagram-text {
font-size: 12px;
}
a {
fill: blue;
}
text.diagram-arrow {
font-size: 16px;
}
text.label {
text-anchor: start;
}
text.comment {
font: italic 12px monospace;
}
rect {
stroke-width: 3;
stroke: black;
fill: #BCBCBC;
}
path.diagram-text {
stroke-width: 3;
stroke: black;
fill: #BCBCBC;
cursor: help;
}
]]></style>
</defs>
<g transform="translate(.5 .5)">
<path d="M 20 30 v 20 m 10 -20 v 20 m -10 -10 h 20.5"></path>
<path d="M40 40h10"></path>
<g>
<path d="M50 40h0"></path>
<path d="M1582 40h0"></path>
<g class="terminal">
<path d="M50 40h0"></path>
<path d="M142 40h0"></path>
<rect x="50" y="29" width="92" height="22" rx="10" ry="10"></rect>
<text x="96" y="44">"REPLACE"</text>
</g>
<path d="M142 40h10"></path>
<g>
<path d="M152 40h0"></path>
<path d="M468 40h0"></path>
<path d="M152 40a10 10 0 0 0 10 -10v0a10 10 0 0 1 10 -10"></path>
<g>
<path d="M172 20h276"></path>
</g>
<path d="M448 20a10 10 0 0 1 10 10v0a10 10 0 0 0 10 10"></path>
<path d="M152 40h20"></path>
<g>
<path d="M172 40h0"></path>
<path d="M448 40h0"></path>
<path d="M172 40h20"></path>
<g class="terminal">
<path d="M192 40h0"></path>
<path d="M348 40h80"></path>
<rect x="192" y="29" width="156" height="22" rx="10" ry="10"></rect>
<text x="270" y="44">"ALL OCCURRENCES"</text>
</g>
<path d="M428 40h20"></path>
<path d="M172 40a10 10 0 0 1 10 10v10a10 10 0 0 0 10 10"></path>
<g class="terminal">
<path d="M192 70h0"></path>
<path d="M356 70h72"></path>
<rect x="192" y="59" width="164" height="22" rx="10" ry="10"></rect>
<text x="274" y="74">"FIRST OCCURRENCE"</text>
</g>
<path d="M428 70a10 10 0 0 0 10 -10v-10a10 10 0 0 1 10 -10"></path>
<path d="M172 40a10 10 0 0 1 10 10v40a10 10 0 0 0 10 10"></path>
<g>
<path d="M192 100h0"></path>
<path d="M428 100h0"></path>
<g class="terminal">
<path d="M192 100h0"></path>
<path d="M340 100h0"></path>
<rect x="192" y="89" width="148" height="22" rx="10" ry="10"></rect>
<text x="266" y="104">"SECTION OFFSET"</text>
</g>
<path d="M340 100h10"></path>
<path d="M350 100h10"></path>
<g class="non-terminal">
<path d="M360 100h0"></path>
<path d="M428 100h0"></path>
<rect x="360" y="89" width="68" height="22"></rect>
<a xlink:href="reuse_source.svg"><text x="394" y="104">Source</text>
</a>
</g>
</g>
<path d="M428 100a10 10 0 0 0 10 -10v-40a10 10 0 0 1 10 -10"></path>
</g>
<path d="M448 40h20"></path>
</g>
<g>
<path d="M468 40h0"></path>
<path d="M560 40h0"></path>
<path d="M468 40a10 10 0 0 0 10 -10v0a10 10 0 0 1 10 -10"></path>
<g>
<path d="M488 20h52"></path>
</g>
<path d="M540 20a10 10 0 0 1 10 10v0a10 10 0 0 0 10 10"></path>
<path d="M468 40h20"></path>
<g class="terminal">
<path d="M488 40h0"></path>
<path d="M540 40h0"></path>
<rect x="488" y="29" width="52" height="22" rx="10" ry="10"></rect>
<text x="514" y="44">"OF"</text>
</g>
<path d="M540 40h20"></path>
</g>
<g>
<path d="M560 40h0"></path>
<path d="M676 40h0"></path>
<path d="M560 40a10 10 0 0 0 10 -10v0a10 10 0 0 1 10 -10"></path>
<g>
<path d="M580 20h76"></path>
</g>
<path d="M656 20a10 10 0 0 1 10 10v0a10 10 0 0 0 10 10"></path>
<path d="M560 40h20"></path>
<g class="terminal">
<path d="M580 40h0"></path>
<path d="M656 40h0"></path>
<rect x="580" y="29" width="76" height="22" rx="10" ry="10"></rect>
<text x="618" y="44">"REGEX"</text>
</g>
<path d="M656 40h20"></path>
</g>
<path d="M676 40h10"></path>
<g class="non-terminal">
<path d="M686 40h0"></path>
<path d="M754 40h0"></path>
<rect x="686" y="29" width="68" height="22"></rect>
<a xlink:href="reuse_source.svg"><text x="720" y="44">Source</text>
</a>
</g>
<path d="M754 40h10"></path>
<g>
<path d="M764 40h0"></path>
<path d="M944 40h0"></path>
<path d="M764 40a10 10 0 0 0 10 -10v0a10 10 0 0 1 10 -10"></path>
<g>
<path d="M784 20h140"></path>
</g>
<path d="M924 20a10 10 0 0 1 10 10v0a10 10 0 0 0 10 10"></path>
<path d="M764 40h20"></path>
<g>
<path d="M784 40h0"></path>
<path d="M924 40h0"></path>
<g class="terminal">
<path d="M784 40h0"></path>
<path d="M836 40h0"></path>
<rect x="784" y="29" width="52" height="22" rx="10" ry="10"></rect>
<text x="810" y="44">"IN"</text>
</g>
<path d="M836 40h10"></path>
<path d="M846 40h10"></path>
<g class="non-terminal">
<path d="M856 40h0"></path>
<path d="M924 40h0"></path>
<rect x="856" y="29" width="68" height="22"></rect>
<a xlink:href="reuse_target.svg"><text x="890" y="44">Target</text>
</a>
</g>
</g>
<path d="M924 40h20"></path>
</g>
<path d="M944 40h10"></path>
<g>
<path d="M954 40h0"></path>
<path d="M1180 40h0"></path>
<path d="M984 40h10"></path>
<g>
<path d="M994 40h0"></path>
<path d="M1150 40h0"></path>
<g class="terminal">
<path d="M994 40h0"></path>
<path d="M1062 40h0"></path>
<rect x="994" y="29" width="68" height="22" rx="10" ry="10"></rect>
<text x="1028" y="44">"WITH"</text>
</g>
<path d="M1062 40h10"></path>
<path d="M1072 40h10"></path>
<g class="non-terminal">
<path d="M1082 40h0"></path>
<path d="M1150 40h0"></path>
<rect x="1082" y="29" width="68" height="22"></rect>
<a xlink:href="reuse_source.svg"><text x="1116" y="44">Source</text>
</a>
</g>
</g>
<path d="M1150 40h10"></path>
<path d="M984 40v20a10 10 0 0 0 10 10"></path>
<g>
<path d="M994 70h0"></path>
<path d="M1150 70h0"></path>
<g class="terminal">
<path d="M994 70h0"></path>
<path d="M1062 70h0"></path>
<rect x="994" y="59" width="68" height="22" rx="10" ry="10"></rect>
<text x="1028" y="74">"INTO"</text>
</g>
<path d="M1062 70h10"></path>
<path d="M1072 70h10"></path>
<g class="non-terminal">
<path d="M1082 70h0"></path>
<path d="M1150 70h0"></path>
<rect x="1082" y="59" width="68" height="22"></rect>
<a xlink:href="reuse_target.svg"><text x="1116" y="74">Target</text>
</a>
</g>
</g>
<path d="M1150 70a10 10 0 0 0 10 -10v-20"></path>
<g class="diagram-text">
<title>take one or more branches, once each, in any order</title>
<path d="M 984 30 h -26 a 4 4 0 0 0 -4 4 v 12 a 4 4 0 0 0 4 4 h 26 z" class="diagram-text"></path>
<text x="969" y="44" class="diagram-text">1+</text>
<path d="M 1160 30 h 16 a 4 4 0 0 1 4 4 v 12 a 4 4 0 0 1 -4 4 h -16 z" class="diagram-text"></path>
<path d="M 1167 38 a 4 4 0 1 0 6 -1 m 2.75 -1 h -4 v 4 m 0 -3 h 2" style="stroke-width: 1.75"></path>
</g>
</g>
<path d="M1180 40h10"></path>
<g>
<path d="M1190 40h0"></path>
<path d="M1370 40h0"></path>
<path d="M1190 40a10 10 0 0 0 10 -10v0a10 10 0 0 1 10 -10"></path>
<g>
<path d="M1210 20h140"></path>
</g>
<path d="M1350 20a10 10 0 0 1 10 10v0a10 10 0 0 0 10 10"></path>
<path d="M1190 40h20"></path>
<g class="terminal">
<path d="M1210 40h0"></path>
<path d="M1350 40h0"></path>
<rect x="1210" y="29" width="140" height="22" rx="10" ry="10"></rect>
<text x="1280" y="44">"IGNORING CASE"</text>
</g>
<path d="M1350 40h20"></path>
</g>
<g>
<path d="M1370 40h0"></path>
<path d="M1582 40h0"></path>
<path d="M1370 40a10 10 0 0 0 10 -10v0a10 10 0 0 1 10 -10"></path>
<g>
<path d="M1390 20h172"></path>
</g>
<path d="M1562 20a10 10 0 0 1 10 10v0a10 10 0 0 0 10 10"></path>
<path d="M1370 40h20"></path>
<g class="terminal">
<path d="M1390 40h0"></path>
<path d="M1562 40h0"></path>
<rect x="1390" y="29" width="172" height="22" rx="10" ry="10"></rect>
<text x="1476" y="44">"IN CHARACTER MODE"</text>
</g>
<path d="M1562 40h20"></path>
</g>
</g>
<path d="M1582 40h10"></path>
<path d="M 1592 40 h 20 m -10 -10 v 20 m 10 -20 v 20"></path>
</g>
</svg>
