<svg xmlns="http://www.w3.org/2000/svg" xmlns:xlink="http://www.w3.org/1999/xlink" class="railroad-diagram" width="1474" height="101" viewBox="0 0 1474 101">
<defs>
<style type="text/css"><![CDATA[
path {
stroke-width: 3;
stroke: black;
fill: rgba(0,0,0,0);
}
text {
font: bold 14px monospace;
text-anchor: middle;
}
text.diagram-text {
font-size: 12px;
}
a {
fill: blue;
}
text.diagram-arrow {
font-size: 16px;
}
text.label {
text-anchor: start;
}
text.comment {
font: italic 12px monospace;
}
rect {
stroke-width: 3;
stroke: black;
fill: #BCBCBC;
}
path.diagram-text {
stroke-width: 3;
stroke: black;
fill: #BCBCBC;
cursor: help;
}
]]></style>
</defs>
<g transform="translate(.5 .5)">
<path d="M 20 30 v 20 m 10 -20 v 20 m -10 -10 h 20.5"></path>
<path d="M40 40h10"></path>
<g>
<path d="M50 40h0"></path>
<path d="M1424 40h0"></path>
<g class="terminal">
<path d="M50 40h0"></path>
<path d="M142 40h0"></path>
<rect x="50" y="29" width="92" height="22" rx="10" ry="10"></rect>
<text x="96" y="44">"REPLACE"</text>
</g>
<path d="M142 40h10"></path>
<g>
<path d="M152 40h0"></path>
<path d="M396 40h0"></path>
<path d="M152 40a10 10 0 0 0 10 -10v0a10 10 0 0 1 10 -10"></path>
<g>
<path d="M172 20h204"></path>
</g>
<path d="M376 20a10 10 0 0 1 10 10v0a10 10 0 0 0 10 10"></path>
<path d="M152 40h20"></path>
<g>
<path d="M172 40h0"></path>
<path d="M376 40h0"></path>
<path d="M172 40h20"></path>
<g class="terminal">
<path d="M192 40h4"></path>
<path d="M352 40h4"></path>
<rect x="196" y="29" width="156" height="22" rx="10" ry="10"></rect>
<text x="274" y="44">"ALL OCCURRENCES"</text>
</g>
<path d="M356 40h20"></path>
<path d="M172 40a10 10 0 0 1 10 10v10a10 10 0 0 0 10 10"></path>
<g class="terminal">
<path d="M192 70h0"></path>
<path d="M356 70h0"></path>
<rect x="192" y="59" width="164" height="22" rx="10" ry="10"></rect>
<text x="274" y="74">"FIRST OCCURRENCE"</text>
</g>
<path d="M356 70a10 10 0 0 0 10 -10v-10a10 10 0 0 1 10 -10"></path>
</g>
<path d="M376 40h20"></path>
</g>
<g>
<path d="M396 40h0"></path>
<path d="M488 40h0"></path>
<path d="M396 40a10 10 0 0 0 10 -10v0a10 10 0 0 1 10 -10"></path>
<g>
<path d="M416 20h52"></path>
</g>
<path d="M468 20a10 10 0 0 1 10 10v0a10 10 0 0 0 10 10"></path>
<path d="M396 40h20"></path>
<g class="terminal">
<path d="M416 40h0"></path>
<path d="M468 40h0"></path>
<rect x="416" y="29" width="52" height="22" rx="10" ry="10"></rect>
<text x="442" y="44">"OF"</text>
</g>
<path d="M468 40h20"></path>
</g>
<g>
<path d="M488 40h0"></path>
<path d="M604 40h0"></path>
<path d="M488 40a10 10 0 0 0 10 -10v0a10 10 0 0 1 10 -10"></path>
<g>
<path d="M508 20h76"></path>
</g>
<path d="M584 20a10 10 0 0 1 10 10v0a10 10 0 0 0 10 10"></path>
<path d="M488 40h20"></path>
<g class="terminal">
<path d="M508 40h0"></path>
<path d="M584 40h0"></path>
<rect x="508" y="29" width="76" height="22" rx="10" ry="10"></rect>
<text x="546" y="44">"REGEX"</text>
</g>
<path d="M584 40h20"></path>
</g>
<path d="M604 40h10"></path>
<g class="non-terminal">
<path d="M614 40h0"></path>
<path d="M682 40h0"></path>
<rect x="614" y="29" width="68" height="22"></rect>
<a xlink:href="reuse_source.svg"><text x="648" y="44">source</text>
</a>
</g>
<path d="M682 40h10"></path>
<g>
<path d="M692 40h0"></path>
<path d="M872 40h0"></path>
<path d="M692 40a10 10 0 0 0 10 -10v0a10 10 0 0 1 10 -10"></path>
<g>
<path d="M712 20h140"></path>
</g>
<path d="M852 20a10 10 0 0 1 10 10v0a10 10 0 0 0 10 10"></path>
<path d="M692 40h20"></path>
<g>
<path d="M712 40h0"></path>
<path d="M852 40h0"></path>
<g class="terminal">
<path d="M712 40h0"></path>
<path d="M764 40h0"></path>
<rect x="712" y="29" width="52" height="22" rx="10" ry="10"></rect>
<text x="738" y="44">"IN"</text>
</g>
<path d="M764 40h10"></path>
<path d="M774 40h10"></path>
<g class="non-terminal">
<path d="M784 40h0"></path>
<path d="M852 40h0"></path>
<rect x="784" y="29" width="68" height="22"></rect>
<a xlink:href="reuse_target.svg"><text x="818" y="44">target</text>
</a>
</g>
</g>
<path d="M852 40h20"></path>
</g>
<path d="M872 40h10"></path>
<g class="terminal">
<path d="M882 40h0"></path>
<path d="M950 40h0"></path>
<rect x="882" y="29" width="68" height="22" rx="10" ry="10"></rect>
<text x="916" y="44">"WITH"</text>
</g>
<path d="M950 40h10"></path>
<path d="M960 40h10"></path>
<g class="non-terminal">
<path d="M970 40h0"></path>
<path d="M1038 40h0"></path>
<rect x="970" y="29" width="68" height="22"></rect>
<a xlink:href="reuse_source.svg"><text x="1004" y="44">source</text>
</a>
</g>
<path d="M1038 40h10"></path>
<g>
<path d="M1048 40h0"></path>
<path d="M1244 40h0"></path>
<path d="M1048 40a10 10 0 0 0 10 -10v0a10 10 0 0 1 10 -10"></path>
<g>
<path d="M1068 20h156"></path>
</g>
<path d="M1224 20a10 10 0 0 1 10 10v0a10 10 0 0 0 10 10"></path>
<path d="M1048 40h20"></path>
<g>
<path d="M1068 40h0"></path>
<path d="M1224 40h0"></path>
<g class="terminal">
<path d="M1068 40h0"></path>
<path d="M1136 40h0"></path>
<rect x="1068" y="29" width="68" height="22" rx="10" ry="10"></rect>
<text x="1102" y="44">"INTO"</text>
</g>
<path d="M1136 40h10"></path>
<path d="M1146 40h10"></path>
<g class="non-terminal">
<path d="M1156 40h0"></path>
<path d="M1224 40h0"></path>
<rect x="1156" y="29" width="68" height="22"></rect>
<a xlink:href="reuse_target.svg"><text x="1190" y="44">target</text>
</a>
</g>
</g>
<path d="M1224 40h20"></path>
</g>
<g>
<path d="M1244 40h0"></path>
<path d="M1424 40h0"></path>
<path d="M1244 40a10 10 0 0 0 10 -10v0a10 10 0 0 1 10 -10"></path>
<g>
<path d="M1264 20h140"></path>
</g>
<path d="M1404 20a10 10 0 0 1 10 10v0a10 10 0 0 0 10 10"></path>
<path d="M1244 40h20"></path>
<g class="terminal">
<path d="M1264 40h0"></path>
<path d="M1404 40h0"></path>
<rect x="1264" y="29" width="140" height="22" rx="10" ry="10"></rect>
<text x="1334" y="44">"IGNORING CASE"</text>
</g>
<path d="M1404 40h20"></path>
</g>
</g>
<path d="M1424 40h10"></path>
<path d="M 1434 40 h 20 m -10 -10 v 20 m 10 -20 v 20"></path>
</g>
</svg>
