<svg xmlns="http://www.w3.org/2000/svg" xmlns:xlink="http://www.w3.org/1999/xlink" class="railroad-diagram" width="768" height="161" viewBox="0 0 768 161">
<defs>
<style type="text/css"><![CDATA[
path {
stroke-width: 3;
stroke: black;
fill: rgba(0,0,0,0);
}
text {
font: bold 14px monospace;
text-anchor: middle;
}
text.diagram-text {
font-size: 12px;
}
a {
fill: blue;
}
text.diagram-arrow {
font-size: 16px;
}
text.label {
text-anchor: start;
}
text.comment {
font: italic 12px monospace;
}
rect {
stroke-width: 3;
stroke: black;
fill: #BCBCBC;
}
path.diagram-text {
stroke-width: 3;
stroke: black;
fill: #BCBCBC;
cursor: help;
}
]]></style>
</defs>
<g transform="translate(.5 .5)">
<path d="M 20 30 v 20 m 10 -20 v 20 m -10 -10 h 20.5"></path>
<path d="M40 40h10"></path>
<g>
<path d="M50 40h0"></path>
<path d="M718 40h0"></path>
<g class="terminal">
<path d="M50 40h0"></path>
<path d="M134 40h0"></path>
<rect x="50" y="29" width="84" height="22" rx="10" ry="10"></rect>
<text x="92" y="44">"REPORT"</text>
</g>
<path d="M134 40h10"></path>
<g>
<path d="M144 40h0"></path>
<path d="M356 40h0"></path>
<path d="M144 40a10 10 0 0 0 10 -10v0a10 10 0 0 1 10 -10"></path>
<g>
<path d="M164 20h172"></path>
</g>
<path d="M336 20a10 10 0 0 1 10 10v0a10 10 0 0 0 10 10"></path>
<path d="M144 40h20"></path>
<g class="non-terminal">
<path d="M164 40h0"></path>
<path d="M336 40h0"></path>
<rect x="164" y="29" width="172" height="22"></rect>
<a xlink:href="reuse_namespacesimplename.svg"><text x="250" y="44">NamespaceSimpleName</text>
</a>
</g>
<path d="M336 40h20"></path>
</g>
<g>
<path d="M356 40h0"></path>
<path d="M718 40h0"></path>
<path d="M356 40a10 10 0 0 0 10 -10v0a10 10 0 0 1 10 -10"></path>
<g>
<path d="M376 20h322"></path>
</g>
<path d="M698 20a10 10 0 0 1 10 10v0a10 10 0 0 0 10 10"></path>
<path d="M356 40h20"></path>
<g>
<path d="M376 40h0"></path>
<path d="M698 40h0"></path>
<path d="M406 40h10"></path>
<g class="terminal">
<path d="M416 40h0"></path>
<path d="M644 40h24"></path>
<rect x="416" y="29" width="228" height="22" rx="10" ry="10"></rect>
<text x="530" y="44">"NO STANDARD PAGE HEADING"</text>
</g>
<path d="M668 40h10"></path>
<path d="M406 40v20a10 10 0 0 0 10 10"></path>
<g>
<path d="M416 70h0"></path>
<path d="M620 70h48"></path>
<g class="terminal">
<path d="M416 70h0"></path>
<path d="M524 70h0"></path>
<rect x="416" y="59" width="108" height="22" rx="10" ry="10"></rect>
<text x="470" y="74">"LINE-SIZE"</text>
</g>
<path d="M524 70h10"></path>
<path d="M534 70h10"></path>
<g class="non-terminal">
<path d="M544 70h0"></path>
<path d="M620 70h0"></path>
<rect x="544" y="59" width="76" height="22"></rect>
<a xlink:href="reuse_integer.svg"><text x="582" y="74">Integer</text>
</a>
</g>
</g>
<path d="M668 70a10 10 0 0 0 10 -10v-20"></path>
<path d="M406 40v50a10 10 0 0 0 10 10"></path>
<g>
<path d="M416 100h0"></path>
<path d="M628 100h40"></path>
<g class="terminal">
<path d="M416 100h0"></path>
<path d="M532 100h0"></path>
<rect x="416" y="89" width="116" height="22" rx="10" ry="10"></rect>
<text x="474" y="104">"LINE-COUNT"</text>
</g>
<path d="M532 100h10"></path>
<path d="M542 100h10"></path>
<g class="non-terminal">
<path d="M552 100h0"></path>
<path d="M628 100h0"></path>
<rect x="552" y="89" width="76" height="22"></rect>
<a xlink:href="reuse_integer.svg"><text x="590" y="104">Integer</text>
</a>
</g>
</g>
<path d="M668 100a10 10 0 0 0 10 -10v-50"></path>
<path d="M406 40v80a10 10 0 0 0 10 10"></path>
<g>
<path d="M416 130h0"></path>
<path d="M668 130h0"></path>
<g class="terminal">
<path d="M416 130h0"></path>
<path d="M532 130h0"></path>
<rect x="416" y="119" width="116" height="22" rx="10" ry="10"></rect>
<text x="474" y="134">"MESSAGE-ID"</text>
</g>
<path d="M532 130h10"></path>
<path d="M542 130h10"></path>
<g class="non-terminal">
<path d="M552 130h0"></path>
<path d="M668 130h0"></path>
<rect x="552" y="119" width="116" height="22"></rect>
<a xlink:href="reuse_messageclass.svg"><text x="610" y="134">MessageClass</text>
</a>
</g>
</g>
<path d="M668 130a10 10 0 0 0 10 -10v-80"></path>
<g class="diagram-text">
<title>take one or more branches, once each, in any order</title>
<path d="M 406 30 h -26 a 4 4 0 0 0 -4 4 v 12 a 4 4 0 0 0 4 4 h 26 z" class="diagram-text"></path>
<text x="391" y="44" class="diagram-text">1+</text>
<path d="M 678 30 h 16 a 4 4 0 0 1 4 4 v 12 a 4 4 0 0 1 -4 4 h -16 z" class="diagram-text"></path>
<path d="M 685 38 a 4 4 0 1 0 6 -1 m 2.75 -1 h -4 v 4 m 0 -3 h 2" style="stroke-width: 1.75"></path>
</g>
</g>
<path d="M698 40h20"></path>
</g>
</g>
<path d="M718 40h10"></path>
<path d="M 728 40 h 20 m -10 -10 v 20 m 10 -20 v 20"></path>
</g>
</svg>
