<?xml version="1.0" encoding="UTF-8" standalone="no"?>
<!DOCTYPE svg PUBLIC "-//W3C//DTD SVG 1.1//EN"
 "http://www.w3.org/Graphics/SVG/1.1/DTD/svg11.dtd">
<!-- Generated by graphviz version 2.38.0 (20140413.2041)
 -->
<!-- Title: report Pages: 1 -->
<svg width="174pt" height="404pt"
 viewBox="0.00 0.00 174.43 404.00" xmlns="http://www.w3.org/2000/svg" xmlns:xlink="http://www.w3.org/1999/xlink">
<g id="graph0" class="graph" transform="scale(1 1) rotate(0) translate(4 400)">
<title>report</title>
<polygon fill="white" stroke="none" points="-4,4 -4,-400 170.43,-400 170.43,4 -4,4"/>
<!-- start -->
<g id="node1" class="node"><title>start</title>
<polygon fill="none" stroke="black" points="82.9336,-396 28.9336,-396 28.9336,-360 82.9336,-360 82.9336,-396"/>
<text text-anchor="middle" x="55.9336" y="-373.8" font-family="Times,serif" font-size="14.00">Start</text>
</g>
<!-- node199 -->
<g id="node6" class="node"><title>node199</title>
<ellipse fill="none" stroke="black" cx="55.9336" cy="-306" rx="55.8672" ry="18"/>
<text text-anchor="middle" x="55.9336" y="-301.8" font-family="Times,serif" font-size="14.00">&quot;REPORT&quot;</text>
</g>
<!-- start&#45;&gt;node199 -->
<g id="edge6" class="edge"><title>start&#45;&gt;node199</title>
<path fill="none" stroke="black" d="M55.9336,-359.697C55.9336,-351.983 55.9336,-342.712 55.9336,-334.112"/>
<polygon fill="black" stroke="black" points="59.4337,-334.104 55.9336,-324.104 52.4337,-334.104 59.4337,-334.104"/>
</g>
<!-- end -->
<g id="node2" class="node"><title>end</title>
<polygon fill="none" stroke="black" points="75.9336,-36 21.9336,-36 21.9336,-0 75.9336,-0 75.9336,-36"/>
<text text-anchor="middle" x="48.9336" y="-13.8" font-family="Times,serif" font-size="14.00">End</text>
</g>
<!-- node196 -->
<g id="node3" class="node"><title>node196</title>
<g id="a_node3"><a xlink:href="reuse_integer.svg" xlink:title="&lt;u&gt;integer&lt;/u&gt;">
<ellipse fill="none" stroke="black" cx="88.9336" cy="-90" rx="37.6986" ry="18"/>
<text text-anchor="start" x="69.4981" y="-86.8" font-family="Times,serif" text-decoration="underline" font-size="14.00" fill="blue">integer</text>
</a>
</g>
</g>
<!-- node196&#45;&gt;end -->
<g id="edge1" class="edge"><title>node196&#45;&gt;end</title>
<path fill="none" stroke="black" d="M79.4541,-72.411C74.8105,-64.2846 69.1091,-54.3072 63.8961,-45.1844"/>
<polygon fill="black" stroke="black" points="66.9035,-43.3927 58.9032,-36.4468 60.8257,-46.8657 66.9035,-43.3927"/>
</g>
<!-- node197 -->
<g id="node4" class="node"><title>node197</title>
<ellipse fill="none" stroke="black" cx="101.934" cy="-162" rx="64.4928" ry="18"/>
<text text-anchor="middle" x="101.934" y="-157.8" font-family="Times,serif" font-size="14.00">&quot;LINE&#45;SIZE&quot;</text>
</g>
<!-- node197&#45;&gt;node196 -->
<g id="edge2" class="edge"><title>node197&#45;&gt;node196</title>
<path fill="none" stroke="black" d="M98.7201,-143.697C97.2875,-135.983 95.5659,-126.712 93.9687,-118.112"/>
<polygon fill="black" stroke="black" points="97.3773,-117.297 92.1101,-108.104 90.4949,-118.575 97.3773,-117.297"/>
</g>
<!-- node198 -->
<g id="node5" class="node"><title>node198</title>
<g id="a_node5"><a xlink:href="reuse_field.svg" xlink:title="&lt;u&gt;field&lt;/u&gt;">
<ellipse fill="none" stroke="black" cx="55.9336" cy="-234" rx="28.9696" ry="18"/>
<text text-anchor="start" x="43.1054" y="-230.8" font-family="Times,serif" text-decoration="underline" font-size="14.00" fill="blue">field</text>
</a>
</g>
</g>
<!-- node198&#45;&gt;end -->
<g id="edge4" class="edge"><title>node198&#45;&gt;end</title>
<path fill="none" stroke="black" d="M45.3056,-217.071C39.1942,-206.931 32.1152,-193.255 28.9336,-180 17.7809,-133.538 30.1914,-77.9554 39.8337,-45.7418"/>
<polygon fill="black" stroke="black" points="43.1905,-46.734 42.8337,-36.1452 36.5093,-44.6454 43.1905,-46.734"/>
</g>
<!-- node198&#45;&gt;node197 -->
<g id="edge3" class="edge"><title>node198&#45;&gt;node197</title>
<path fill="none" stroke="black" d="M66.3717,-217.116C71.9731,-208.592 79.0084,-197.886 85.3399,-188.251"/>
<polygon fill="black" stroke="black" points="88.3285,-190.077 90.8953,-179.797 82.4785,-186.232 88.3285,-190.077"/>
</g>
<!-- node199&#45;&gt;node198 -->
<g id="edge5" class="edge"><title>node199&#45;&gt;node198</title>
<path fill="none" stroke="black" d="M55.9336,-287.697C55.9336,-279.983 55.9336,-270.712 55.9336,-262.112"/>
<polygon fill="black" stroke="black" points="59.4337,-262.104 55.9336,-252.104 52.4337,-262.104 59.4337,-262.104"/>
</g>
</g>
</svg>
