<svg xmlns="http://www.w3.org/2000/svg" xmlns:xlink="http://www.w3.org/1999/xlink" class="railroad-diagram" width="602" height="161" viewBox="0 0 602 161">
<defs>
<style type="text/css"><![CDATA[
path {
stroke-width: 3;
stroke: black;
fill: rgba(0,0,0,0);
}
text {
font: bold 14px monospace;
text-anchor: middle;
}
text.diagram-text {
font-size: 12px;
}
a {
fill: blue;
}
text.diagram-arrow {
font-size: 16px;
}
text.label {
text-anchor: start;
}
text.comment {
font: italic 12px monospace;
}
rect {
stroke-width: 3;
stroke: black;
fill: #BCBCBC;
}
path.diagram-text {
stroke-width: 3;
stroke: black;
fill: #BCBCBC;
cursor: help;
}
]]></style>
</defs>
<g transform="translate(.5 .5)">
<path d="M 20 30 v 20 m 10 -20 v 20 m -10 -10 h 20.5"></path>
<path d="M40 40h10"></path>
<g>
<path d="M50 40h0"></path>
<path d="M552 40h0"></path>
<g class="terminal">
<path d="M50 40h0"></path>
<path d="M134 40h0"></path>
<rect x="50" y="29" width="84" height="22" rx="10" ry="10"></rect>
<text x="92" y="44">"REPORT"</text>
</g>
<path d="M134 40h10"></path>
<g>
<path d="M144 40h0"></path>
<path d="M244 40h0"></path>
<path d="M144 40a10 10 0 0 0 10 -10v0a10 10 0 0 1 10 -10"></path>
<g>
<path d="M164 20h60"></path>
</g>
<path d="M224 20a10 10 0 0 1 10 10v0a10 10 0 0 0 10 10"></path>
<path d="M144 40h20"></path>
<g class="non-terminal">
<path d="M164 40h0"></path>
<path d="M224 40h0"></path>
<rect x="164" y="29" width="60" height="22"></rect>
<a xlink:href="reuse_field.svg"><text x="194" y="44">Field</text>
</a>
</g>
<path d="M224 40h20"></path>
</g>
<path d="M244 40h10"></path>
<g>
<path d="M254 40h0"></path>
<path d="M552 40h0"></path>
<path d="M284 40h10"></path>
<g class="terminal">
<path d="M294 40h0"></path>
<path d="M522 40h0"></path>
<rect x="294" y="29" width="228" height="22" rx="10" ry="10"></rect>
<text x="408" y="44">"NO STANDARD PAGE HEADING"</text>
</g>
<path d="M522 40h10"></path>
<path d="M284 40v20a10 10 0 0 0 10 10"></path>
<g>
<path d="M294 70h0"></path>
<path d="M498 70h24"></path>
<g class="terminal">
<path d="M294 70h0"></path>
<path d="M402 70h0"></path>
<rect x="294" y="59" width="108" height="22" rx="10" ry="10"></rect>
<text x="348" y="74">"LINE-SIZE"</text>
</g>
<path d="M402 70h10"></path>
<path d="M412 70h10"></path>
<g class="non-terminal">
<path d="M422 70h0"></path>
<path d="M498 70h0"></path>
<rect x="422" y="59" width="76" height="22"></rect>
<a xlink:href="reuse_integer.svg"><text x="460" y="74">Integer</text>
</a>
</g>
</g>
<path d="M522 70a10 10 0 0 0 10 -10v-20"></path>
<path d="M284 40v50a10 10 0 0 0 10 10"></path>
<g>
<path d="M294 100h0"></path>
<path d="M506 100h16"></path>
<g class="terminal">
<path d="M294 100h0"></path>
<path d="M410 100h0"></path>
<rect x="294" y="89" width="116" height="22" rx="10" ry="10"></rect>
<text x="352" y="104">"LINE-COUNT"</text>
</g>
<path d="M410 100h10"></path>
<path d="M420 100h10"></path>
<g class="non-terminal">
<path d="M430 100h0"></path>
<path d="M506 100h0"></path>
<rect x="430" y="89" width="76" height="22"></rect>
<a xlink:href="reuse_integer.svg"><text x="468" y="104">Integer</text>
</a>
</g>
</g>
<path d="M522 100a10 10 0 0 0 10 -10v-50"></path>
<path d="M284 40v80a10 10 0 0 0 10 10"></path>
<g>
<path d="M294 130h0"></path>
<path d="M490 130h32"></path>
<g class="terminal">
<path d="M294 130h0"></path>
<path d="M410 130h0"></path>
<rect x="294" y="119" width="116" height="22" rx="10" ry="10"></rect>
<text x="352" y="134">"MESSAGE-ID"</text>
</g>
<path d="M410 130h10"></path>
<path d="M420 130h10"></path>
<g class="non-terminal">
<path d="M430 130h0"></path>
<path d="M490 130h0"></path>
<rect x="430" y="119" width="60" height="22"></rect>
<a xlink:href="reuse_field.svg"><text x="460" y="134">Field</text>
</a>
</g>
</g>
<path d="M522 130a10 10 0 0 0 10 -10v-80"></path>
<g class="diagram-text">
<title>take one or more branches, once each, in any order</title>
<path d="M 284 30 h -26 a 4 4 0 0 0 -4 4 v 12 a 4 4 0 0 0 4 4 h 26 z" class="diagram-text"></path>
<text x="269" y="44" class="diagram-text">1+</text>
<path d="M 532 30 h 16 a 4 4 0 0 1 4 4 v 12 a 4 4 0 0 1 -4 4 h -16 z" class="diagram-text"></path>
<path d="M 539 38 a 4 4 0 1 0 6 -1 m 2.75 -1 h -4 v 4 m 0 -3 h 2" style="stroke-width: 1.75"></path>
</g>
</g>
</g>
<path d="M552 40h10"></path>
<path d="M 562 40 h 20 m -10 -10 v 20 m 10 -20 v 20"></path>
</g>
</svg>
