<svg xmlns="http://www.w3.org/2000/svg" xmlns:xlink="http://www.w3.org/1999/xlink" class="railroad-diagram" width="1538" height="71" viewBox="0 0 1538 71">
<defs>
<style type="text/css"><![CDATA[
path {
stroke-width: 3;
stroke: black;
fill: rgba(0,0,0,0);
}
text {
font: bold 14px monospace;
text-anchor: middle;
}
text.diagram-text {
font-size: 12px;
}
a {
fill: blue;
}
text.diagram-arrow {
font-size: 16px;
}
text.label {
text-anchor: start;
}
text.comment {
font: italic 12px monospace;
}
rect {
stroke-width: 3;
stroke: black;
fill: #BCBCBC;
}
path.diagram-text {
stroke-width: 3;
stroke: black;
fill: #BCBCBC;
cursor: help;
}
]]></style>
</defs>
<g transform="translate(.5 .5)">
<path d="M 20 30 v 20 m 10 -20 v 20 m -10 -10 h 20.5"></path>
<path d="M40 40h10"></path>
<g>
<path d="M50 40h0"></path>
<path d="M1488 40h0"></path>
<g class="terminal">
<path d="M50 40h0"></path>
<path d="M134 40h0"></path>
<rect x="50" y="29" width="84" height="22" rx="10" ry="10"></rect>
<text x="92" y="44">"REPORT"</text>
</g>
<path d="M134 40h10"></path>
<g>
<path d="M144 40h0"></path>
<path d="M244 40h0"></path>
<path d="M144 40a10 10 0 0 0 10 -10v0a10 10 0 0 1 10 -10"></path>
<g>
<path d="M164 20h60"></path>
</g>
<path d="M224 20a10 10 0 0 1 10 10v0a10 10 0 0 0 10 10"></path>
<path d="M144 40h20"></path>
<g class="non-terminal">
<path d="M164 40h0"></path>
<path d="M224 40h0"></path>
<rect x="164" y="29" width="60" height="22"></rect>
<a xlink:href="reuse_field.svg"><text x="194" y="44">field</text>
</a>
</g>
<path d="M224 40h20"></path>
</g>
<g>
<path d="M244 40h0"></path>
<path d="M488 40h0"></path>
<path d="M244 40a10 10 0 0 0 10 -10v0a10 10 0 0 1 10 -10"></path>
<g>
<path d="M264 20h204"></path>
</g>
<path d="M468 20a10 10 0 0 1 10 10v0a10 10 0 0 0 10 10"></path>
<path d="M244 40h20"></path>
<g>
<path d="M264 40h0"></path>
<path d="M468 40h0"></path>
<g class="terminal">
<path d="M264 40h0"></path>
<path d="M372 40h0"></path>
<rect x="264" y="29" width="108" height="22" rx="10" ry="10"></rect>
<text x="318" y="44">"LINE-SIZE"</text>
</g>
<path d="M372 40h10"></path>
<path d="M382 40h10"></path>
<g class="non-terminal">
<path d="M392 40h0"></path>
<path d="M468 40h0"></path>
<rect x="392" y="29" width="76" height="22"></rect>
<a xlink:href="reuse_integer.svg"><text x="430" y="44">integer</text>
</a>
</g>
</g>
<path d="M468 40h20"></path>
</g>
<g>
<path d="M488 40h0"></path>
<path d="M756 40h0"></path>
<path d="M488 40a10 10 0 0 0 10 -10v0a10 10 0 0 1 10 -10"></path>
<g>
<path d="M508 20h228"></path>
</g>
<path d="M736 20a10 10 0 0 1 10 10v0a10 10 0 0 0 10 10"></path>
<path d="M488 40h20"></path>
<g class="terminal">
<path d="M508 40h0"></path>
<path d="M736 40h0"></path>
<rect x="508" y="29" width="228" height="22" rx="10" ry="10"></rect>
<text x="622" y="44">"NO STANDARD PAGE HEADING"</text>
</g>
<path d="M736 40h20"></path>
</g>
<g>
<path d="M756 40h0"></path>
<path d="M1000 40h0"></path>
<path d="M756 40a10 10 0 0 0 10 -10v0a10 10 0 0 1 10 -10"></path>
<g>
<path d="M776 20h204"></path>
</g>
<path d="M980 20a10 10 0 0 1 10 10v0a10 10 0 0 0 10 10"></path>
<path d="M756 40h20"></path>
<g>
<path d="M776 40h0"></path>
<path d="M980 40h0"></path>
<g class="terminal">
<path d="M776 40h0"></path>
<path d="M884 40h0"></path>
<rect x="776" y="29" width="108" height="22" rx="10" ry="10"></rect>
<text x="830" y="44">"LINE-SIZE"</text>
</g>
<path d="M884 40h10"></path>
<path d="M894 40h10"></path>
<g class="non-terminal">
<path d="M904 40h0"></path>
<path d="M980 40h0"></path>
<rect x="904" y="29" width="76" height="22"></rect>
<a xlink:href="reuse_integer.svg"><text x="942" y="44">integer</text>
</a>
</g>
</g>
<path d="M980 40h20"></path>
</g>
<g>
<path d="M1000 40h0"></path>
<path d="M1252 40h0"></path>
<path d="M1000 40a10 10 0 0 0 10 -10v0a10 10 0 0 1 10 -10"></path>
<g>
<path d="M1020 20h212"></path>
</g>
<path d="M1232 20a10 10 0 0 1 10 10v0a10 10 0 0 0 10 10"></path>
<path d="M1000 40h20"></path>
<g>
<path d="M1020 40h0"></path>
<path d="M1232 40h0"></path>
<g class="terminal">
<path d="M1020 40h0"></path>
<path d="M1136 40h0"></path>
<rect x="1020" y="29" width="116" height="22" rx="10" ry="10"></rect>
<text x="1078" y="44">"LINE-COUNT"</text>
</g>
<path d="M1136 40h10"></path>
<path d="M1146 40h10"></path>
<g class="non-terminal">
<path d="M1156 40h0"></path>
<path d="M1232 40h0"></path>
<rect x="1156" y="29" width="76" height="22"></rect>
<a xlink:href="reuse_integer.svg"><text x="1194" y="44">integer</text>
</a>
</g>
</g>
<path d="M1232 40h20"></path>
</g>
<g>
<path d="M1252 40h0"></path>
<path d="M1488 40h0"></path>
<path d="M1252 40a10 10 0 0 0 10 -10v0a10 10 0 0 1 10 -10"></path>
<g>
<path d="M1272 20h196"></path>
</g>
<path d="M1468 20a10 10 0 0 1 10 10v0a10 10 0 0 0 10 10"></path>
<path d="M1252 40h20"></path>
<g>
<path d="M1272 40h0"></path>
<path d="M1468 40h0"></path>
<g class="terminal">
<path d="M1272 40h0"></path>
<path d="M1388 40h0"></path>
<rect x="1272" y="29" width="116" height="22" rx="10" ry="10"></rect>
<text x="1330" y="44">"MESSAGE-ID"</text>
</g>
<path d="M1388 40h10"></path>
<path d="M1398 40h10"></path>
<g class="non-terminal">
<path d="M1408 40h0"></path>
<path d="M1468 40h0"></path>
<rect x="1408" y="29" width="60" height="22"></rect>
<a xlink:href="reuse_field.svg"><text x="1438" y="44">field</text>
</a>
</g>
</g>
<path d="M1468 40h20"></path>
</g>
</g>
<path d="M1488 40h10"></path>
<path d="M 1498 40 h 20 m -10 -10 v 20 m 10 -20 v 20"></path>
</g>
</svg>
