<?xml version="1.0" encoding="UTF-8" standalone="no"?>
<!DOCTYPE svg PUBLIC "-//W3C//DTD SVG 1.1//EN"
 "http://www.w3.org/Graphics/SVG/1.1/DTD/svg11.dtd">
<!-- Generated by graphviz version 2.38.0 (20140413.2041)
 -->
<!-- Title: return Pages: 1 -->
<svg width="123pt" height="188pt"
 viewBox="0.00 0.00 123.07 188.00" xmlns="http://www.w3.org/2000/svg" xmlns:xlink="http://www.w3.org/1999/xlink">
<g id="graph0" class="graph" transform="scale(1 1) rotate(0) translate(4 184)">
<title>return</title>
<polygon fill="white" stroke="none" points="-4,4 -4,-184 119.073,-184 119.073,4 -4,4"/>
<!-- start -->
<g id="node1" class="node"><title>start</title>
<polygon fill="none" stroke="black" points="84.5366,-180 30.5366,-180 30.5366,-144 84.5366,-144 84.5366,-180"/>
<text text-anchor="middle" x="57.5366" y="-157.8" font-family="Times,serif" font-size="14.00">Start</text>
</g>
<!-- node270 -->
<g id="node3" class="node"><title>node270</title>
<ellipse fill="none" stroke="black" cx="57.5366" cy="-90" rx="57.5733" ry="18"/>
<text text-anchor="middle" x="57.5366" y="-85.8" font-family="Times,serif" font-size="14.00">&quot;RETURN&quot;</text>
</g>
<!-- start&#45;&gt;node270 -->
<g id="edge2" class="edge"><title>start&#45;&gt;node270</title>
<path fill="none" stroke="black" d="M57.5366,-143.697C57.5366,-135.983 57.5366,-126.712 57.5366,-118.112"/>
<polygon fill="black" stroke="black" points="61.0367,-118.104 57.5366,-108.104 54.0367,-118.104 61.0367,-118.104"/>
</g>
<!-- end -->
<g id="node2" class="node"><title>end</title>
<polygon fill="none" stroke="black" points="84.5366,-36 30.5366,-36 30.5366,-0 84.5366,-0 84.5366,-36"/>
<text text-anchor="middle" x="57.5366" y="-13.8" font-family="Times,serif" font-size="14.00">End</text>
</g>
<!-- node270&#45;&gt;end -->
<g id="edge1" class="edge"><title>node270&#45;&gt;end</title>
<path fill="none" stroke="black" d="M57.5366,-71.6966C57.5366,-63.9827 57.5366,-54.7125 57.5366,-46.1124"/>
<polygon fill="black" stroke="black" points="61.0367,-46.1043 57.5366,-36.1043 54.0367,-46.1044 61.0367,-46.1043"/>
</g>
</g>
</svg>
