<svg xmlns="http://www.w3.org/2000/svg" xmlns:xlink="http://www.w3.org/1999/xlink" class="railroad-diagram" width="1298" height="208" viewBox="0 0 1298 208">
<defs>
<style type="text/css"><![CDATA[
path {
stroke-width: 3;
stroke: black;
fill: rgba(0,0,0,0);
}
text {
font: bold 14px monospace;
text-anchor: middle;
}
text.diagram-text {
font-size: 12px;
}
a {
fill: blue;
}
text.diagram-arrow {
font-size: 16px;
}
text.label {
text-anchor: start;
}
text.comment {
font: italic 12px monospace;
}
rect {
stroke-width: 3;
stroke: black;
fill: #BCBCBC;
}
path.diagram-text {
stroke-width: 3;
stroke: black;
fill: #BCBCBC;
cursor: help;
}
]]></style>
</defs>
<g transform="translate(.5 .5)">
<path d="M 20 38 v 20 m 0 -10 h 20.5"></path>
<path d="M40 48h10"></path>
<g>
<path d="M50 48h0"></path>
<path d="M1248 48h0"></path>
<g>
<path d="M50 48h0"></path>
<path d="M750 48h0"></path>
<path d="M50 48h20"></path>
<g>
<path d="M70 48h0"></path>
<path d="M400 48h330"></path>
<g>
<path d="M70 48h0"></path>
<path d="M290 48h0"></path>
<path d="M70 48a10 10 0 0 0 10 -10v0a10 10 0 0 1 10 -10"></path>
<g>
<path d="M90 28h180"></path>
</g>
<path d="M270 28a10 10 0 0 1 10 10v0a10 10 0 0 0 10 10"></path>
<path d="M70 48h20"></path>
<g>
<path d="M90 48h0"></path>
<path d="M270 48h0"></path>
<g class="non-terminal">
<path d="M90 48h0"></path>
<path d="M190 48h0"></path>
<rect x="90" y="37" width="100" height="22"></rect>
<a xlink:href="reuse_FieldChain.svg"><text x="140" y="52">FieldChain</text>
</a>
</g>
<path d="M190 48h10"></path>
<path d="M200 48h10"></path>
<g class="non-terminal">
<path d="M210 48h0"></path>
<path d="M270 48h0"></path>
<rect x="210" y="37" width="60" height="22"></rect>
<a xlink:href="reuse_Arrow.svg"><text x="240" y="52">Arrow</text>
</a>
</g>
</g>
<path d="M270 48h20"></path>
</g>
<path d="M290 48h10"></path>
<g class="non-terminal">
<path d="M300 48h0"></path>
<path d="M400 48h0"></path>
<rect x="300" y="37" width="100" height="22"></rect>
<a xlink:href="reuse_MethodCall.svg"><text x="350" y="52">MethodCall</text>
</a>
</g>
</g>
<path d="M730 48h20"></path>
<path d="M50 48a10 10 0 0 1 10 10v19a10 10 0 0 0 10 10"></path>
<g>
<path d="M70 87h0"></path>
<path d="M730 87h0"></path>
<g>
<path d="M70 87h0"></path>
<path d="M136 87h0"></path>
<text x="103" y="92" class="comment">v740sp02</text>
</g>
<path d="M136 87h10"></path>
<path d="M146 87h10"></path>
<g>
<path d="M156 87h0"></path>
<path d="M730 87h0"></path>
<g class="terminal">
<path d="M156 87h0"></path>
<path d="M216 87h0"></path>
<rect x="156" y="76" width="60" height="22" rx="10" ry="10"></rect>
<text x="186" y="91">"NEW"</text>
</g>
<path d="M216 87h10"></path>
<path d="M226 87h10"></path>
<g class="non-terminal">
<path d="M236 87h0"></path>
<path d="M320 87h0"></path>
<rect x="236" y="76" width="84" height="22"></rect>
<a xlink:href="reuse_TypeName.svg"><text x="278" y="91">TypeName</text>
</a>
</g>
<path d="M320 87h10"></path>
<path d="M330 87h10"></path>
<g class="terminal">
<path d="M340 87h0"></path>
<path d="M400 87h0"></path>
<rect x="340" y="76" width="60" height="22" rx="10" ry="10"></rect>
<text x="370" y="91">!"( "</text>
</g>
<path d="M400 87h10"></path>
<g>
<path d="M410 87h0"></path>
<path d="M622 87h0"></path>
<path d="M410 87a10 10 0 0 0 10 -10v0a10 10 0 0 1 10 -10"></path>
<g>
<path d="M430 67h172"></path>
</g>
<path d="M602 67a10 10 0 0 1 10 10v0a10 10 0 0 0 10 10"></path>
<path d="M410 87h20"></path>
<g>
<path d="M430 87h0"></path>
<path d="M602 87h0"></path>
<path d="M430 87h20"></path>
<g class="non-terminal">
<path d="M450 87h0"></path>
<path d="M518 87h64"></path>
<rect x="450" y="76" width="68" height="22"></rect>
<a xlink:href="reuse_Source.svg"><text x="484" y="91">Source</text>
</a>
</g>
<path d="M582 87h20"></path>
<path d="M430 87a10 10 0 0 1 10 10v10a10 10 0 0 0 10 10"></path>
<g class="non-terminal">
<path d="M450 117h0"></path>
<path d="M582 117h0"></path>
<rect x="450" y="106" width="132" height="22"></rect>
<a xlink:href="reuse_ParameterListS.svg"><text x="516" y="121">ParameterListS</text>
</a>
</g>
<path d="M582 117a10 10 0 0 0 10 -10v-10a10 10 0 0 1 10 -10"></path>
</g>
<path d="M602 87h20"></path>
</g>
<g>
<path d="M622 87h0"></path>
<path d="M730 87h0"></path>
<path d="M622 87h20"></path>
<g class="terminal">
<path d="M642 87h0"></path>
<path d="M710 87h0"></path>
<rect x="642" y="76" width="68" height="22" rx="10" ry="10"></rect>
<text x="676" y="91">!" ) "</text>
</g>
<path d="M710 87h20"></path>
<path d="M622 87a10 10 0 0 1 10 10v10a10 10 0 0 0 10 10"></path>
<g class="terminal">
<path d="M642 117h0"></path>
<path d="M702 117h8"></path>
<rect x="642" y="106" width="60" height="22" rx="10" ry="10"></rect>
<text x="672" y="121">!" )"</text>
</g>
<path d="M710 117a10 10 0 0 0 10 -10v-10a10 10 0 0 1 10 -10"></path>
</g>
</g>
</g>
<path d="M730 87a10 10 0 0 0 10 -10v-19a10 10 0 0 1 10 -10"></path>
<path d="M50 48a10 10 0 0 1 10 10v79a10 10 0 0 0 10 10"></path>
<g>
<path d="M70 147h0"></path>
<path d="M614 147h116"></path>
<g>
<path d="M70 147h0"></path>
<path d="M136 147h0"></path>
<text x="103" y="152" class="comment">v740sp02</text>
</g>
<path d="M136 147h10"></path>
<path d="M146 147h10"></path>
<g>
<path d="M156 147h0"></path>
<path d="M614 147h0"></path>
<g class="terminal">
<path d="M156 147h0"></path>
<path d="M224 147h0"></path>
<rect x="156" y="136" width="68" height="22" rx="10" ry="10"></rect>
<text x="190" y="151">"CAST"</text>
</g>
<path d="M224 147h10"></path>
<path d="M234 147h10"></path>
<g class="non-terminal">
<path d="M244 147h0"></path>
<path d="M328 147h0"></path>
<rect x="244" y="136" width="84" height="22"></rect>
<a xlink:href="reuse_TypeName.svg"><text x="286" y="151">TypeName</text>
</a>
</g>
<path d="M328 147h10"></path>
<path d="M338 147h10"></path>
<g class="terminal">
<path d="M348 147h0"></path>
<path d="M408 147h0"></path>
<rect x="348" y="136" width="60" height="22" rx="10" ry="10"></rect>
<text x="378" y="151">!"( "</text>
</g>
<path d="M408 147h10"></path>
<path d="M418 147h10"></path>
<g class="non-terminal">
<path d="M428 147h0"></path>
<path d="M496 147h0"></path>
<rect x="428" y="136" width="68" height="22"></rect>
<a xlink:href="reuse_Source.svg"><text x="462" y="151">Source</text>
</a>
</g>
<path d="M496 147h10"></path>
<g>
<path d="M506 147h0"></path>
<path d="M614 147h0"></path>
<path d="M506 147h20"></path>
<g class="terminal">
<path d="M526 147h0"></path>
<path d="M594 147h0"></path>
<rect x="526" y="136" width="68" height="22" rx="10" ry="10"></rect>
<text x="560" y="151">!" ) "</text>
</g>
<path d="M594 147h20"></path>
<path d="M506 147a10 10 0 0 1 10 10v10a10 10 0 0 0 10 10"></path>
<g class="terminal">
<path d="M526 177h0"></path>
<path d="M586 177h8"></path>
<rect x="526" y="166" width="60" height="22" rx="10" ry="10"></rect>
<text x="556" y="181">!" )"</text>
</g>
<path d="M594 177a10 10 0 0 0 10 -10v-10a10 10 0 0 1 10 -10"></path>
</g>
</g>
</g>
<path d="M730 147a10 10 0 0 0 10 -10v-79a10 10 0 0 1 10 -10"></path>
</g>
<g>
<path d="M750 48h0"></path>
<path d="M1248 48h0"></path>
<path d="M750 48a10 10 0 0 0 10 -10v-8a10 10 0 0 1 10 -10"></path>
<g>
<path d="M770 20h458"></path>
</g>
<path d="M1228 20a10 10 0 0 1 10 10v8a10 10 0 0 0 10 10"></path>
<path d="M750 48h20"></path>
<g>
<path d="M770 48h0"></path>
<path d="M1228 48h0"></path>
<path d="M770 48h10"></path>
<g>
<path d="M780 48h0"></path>
<path d="M1218 48h0"></path>
<g>
<path d="M780 48h0"></path>
<path d="M1028 48h0"></path>
<path d="M780 48a10 10 0 0 0 10 -10v0a10 10 0 0 1 10 -10"></path>
<g>
<path d="M800 28h208"></path>
</g>
<path d="M1008 28a10 10 0 0 1 10 10v0a10 10 0 0 0 10 10"></path>
<path d="M780 48h20"></path>
<g>
<path d="M800 48h0"></path>
<path d="M1008 48h0"></path>
<path d="M800 48h10"></path>
<g>
<path d="M810 48h0"></path>
<path d="M998 48h0"></path>
<g class="non-terminal">
<path d="M810 48h0"></path>
<path d="M918 48h0"></path>
<rect x="810" y="37" width="108" height="22"></rect>
<a xlink:href="reuse_ArrowOrDash.svg"><text x="864" y="52">ArrowOrDash</text>
</a>
</g>
<path d="M918 48h10"></path>
<path d="M928 48h10"></path>
<g class="non-terminal">
<path d="M938 48h0"></path>
<path d="M998 48h0"></path>
<rect x="938" y="37" width="60" height="22"></rect>
<a xlink:href="reuse_Field.svg"><text x="968" y="52">Field</text>
</a>
</g>
</g>
<path d="M998 48h10"></path>
<path d="M810 48a10 10 0 0 0 -10 10v0a10 10 0 0 0 10 10"></path>
<g>
<path d="M810 68h188"></path>
</g>
<path d="M998 68a10 10 0 0 0 10 -10v0a10 10 0 0 0 -10 -10"></path>
</g>
<path d="M1008 48h20"></path>
</g>
<path d="M1028 48h10"></path>
<g class="non-terminal">
<path d="M1038 48h0"></path>
<path d="M1098 48h0"></path>
<rect x="1038" y="37" width="60" height="22"></rect>
<a xlink:href="reuse_Arrow.svg"><text x="1068" y="52">Arrow</text>
</a>
</g>
<path d="M1098 48h10"></path>
<path d="M1108 48h10"></path>
<g class="non-terminal">
<path d="M1118 48h0"></path>
<path d="M1218 48h0"></path>
<rect x="1118" y="37" width="100" height="22"></rect>
<a xlink:href="reuse_MethodCall.svg"><text x="1168" y="52">MethodCall</text>
</a>
</g>
</g>
<path d="M1218 48h10"></path>
<path d="M780 48a10 10 0 0 0 -10 10v8a10 10 0 0 0 10 10"></path>
<g>
<path d="M780 76h438"></path>
</g>
<path d="M1218 76a10 10 0 0 0 10 -10v-8a10 10 0 0 0 -10 -10"></path>
</g>
<path d="M1228 48h20"></path>
</g>
</g>
<path d="M1248 48h10"></path>
<path d="M 1258 48 h 20 m 0 -10 v 20"></path>
</g>
</svg>
