<svg xmlns="http://www.w3.org/2000/svg" xmlns:xlink="http://www.w3.org/1999/xlink" class="railroad-diagram" width="440" height="92" viewBox="0 0 440 92">
<defs>
<style type="text/css"><![CDATA[
path {
stroke-width: 3;
stroke: black;
fill: rgba(0,0,0,0);
}
text {
font: bold 14px monospace;
text-anchor: middle;
}
text.diagram-text {
font-size: 12px;
}
a {
fill: blue;
}
text.diagram-arrow {
font-size: 16px;
}
text.label {
text-anchor: start;
}
text.comment {
font: italic 12px monospace;
}
rect {
stroke-width: 3;
stroke: black;
fill: #BCBCBC;
}
path.diagram-text {
stroke-width: 3;
stroke: black;
fill: #BCBCBC;
cursor: help;
}
]]></style>
</defs>
<g transform="translate(.5 .5)">
<path d="M 20 21 v 20 m 0 -10 h 20.5"></path>
<path d="M40 31h10"></path>
<g>
<path d="M50 31h0"></path>
<path d="M390 31h0"></path>
<g>
<path d="M50 31h0"></path>
<path d="M150 31h0"></path>
<path d="M50 31h20"></path>
<g class="terminal">
<path d="M70 31h0"></path>
<path d="M130 31h0"></path>
<rect x="70" y="20" width="60" height="22" rx="10" ry="10"></rect>
<text x="100" y="35">!" ("</text>
</g>
<path d="M130 31h20"></path>
<path d="M50 31a10 10 0 0 1 10 10v10a10 10 0 0 0 10 10"></path>
<g class="terminal">
<path d="M70 61h0"></path>
<path d="M122 61h8"></path>
<rect x="70" y="50" width="52" height="22" rx="10" ry="10"></rect>
<text x="96" y="65">!"("</text>
</g>
<path d="M130 61a10 10 0 0 0 10 -10v-10a10 10 0 0 1 10 -10"></path>
</g>
<g>
<path d="M150 31h0"></path>
<path d="M290 31h0"></path>
<path d="M150 31h20"></path>
<g class="non-terminal">
<path d="M170 31h0"></path>
<path d="M270 31h0"></path>
<rect x="170" y="20" width="100" height="22"></rect>
<a xlink:href="reuse_FieldChain.svg"><text x="220" y="35">FieldChain</text>
</a>
</g>
<path d="M270 31h20"></path>
<path d="M150 31a10 10 0 0 1 10 10v10a10 10 0 0 0 10 10"></path>
<g class="non-terminal">
<path d="M170 61h0"></path>
<path d="M254 61h16"></path>
<rect x="170" y="50" width="84" height="22"></rect>
<a xlink:href="reuse_Constant.svg"><text x="212" y="65">Constant</text>
</a>
</g>
<path d="M270 61a10 10 0 0 0 10 -10v-10a10 10 0 0 1 10 -10"></path>
</g>
<g>
<path d="M290 31h0"></path>
<path d="M390 31h0"></path>
<path d="M290 31h20"></path>
<g class="terminal">
<path d="M310 31h0"></path>
<path d="M370 31h0"></path>
<rect x="310" y="20" width="60" height="22" rx="10" ry="10"></rect>
<text x="340" y="35">!") "</text>
</g>
<path d="M370 31h20"></path>
<path d="M290 31a10 10 0 0 1 10 10v10a10 10 0 0 0 10 10"></path>
<g class="terminal">
<path d="M310 61h0"></path>
<path d="M362 61h8"></path>
<rect x="310" y="50" width="52" height="22" rx="10" ry="10"></rect>
<text x="336" y="65">!")"</text>
</g>
<path d="M370 61a10 10 0 0 0 10 -10v-10a10 10 0 0 1 10 -10"></path>
</g>
</g>
<path d="M390 31h10"></path>
<path d="M 400 31 h 20 m 0 -10 v 20"></path>
</g>
</svg>
