<svg xmlns="http://www.w3.org/2000/svg" xmlns:xlink="http://www.w3.org/1999/xlink" class="railroad-diagram" width="1066" height="341" viewBox="0 0 1066 341">
<defs>
<style type="text/css"><![CDATA[
path {
stroke-width: 3;
stroke: black;
fill: rgba(0,0,0,0);
}
text {
font: bold 14px monospace;
text-anchor: middle;
}
text.diagram-text {
font-size: 12px;
}
a {
fill: blue;
}
text.diagram-arrow {
font-size: 16px;
}
text.label {
text-anchor: start;
}
text.comment {
font: italic 12px monospace;
}
rect {
stroke-width: 3;
stroke: black;
fill: #BCBCBC;
}
path.diagram-text {
stroke-width: 3;
stroke: black;
fill: #BCBCBC;
cursor: help;
}
]]></style>
</defs>
<g transform="translate(.5 .5)">
<path d="M 20 21 v 20 m 0 -10 h 20.5"></path>
<path d="M40 31h10"></path>
<g>
<path d="M50 31h0"></path>
<path d="M1016 31h0"></path>
<g class="terminal">
<path d="M50 31h0"></path>
<path d="M118 31h0"></path>
<rect x="50" y="20" width="68" height="22" rx="10" ry="10"></rect>
<text x="84" y="35">"TYPE"</text>
</g>
<path d="M118 31h10"></path>
<g>
<path d="M128 31h0"></path>
<path d="M1016 31h0"></path>
<path d="M128 31h20"></path>
<g>
<path d="M148 31h0"></path>
<path d="M374 31h622"></path>
<g>
<path d="M148 31h0"></path>
<path d="M288 31h0"></path>
<path d="M148 31h20"></path>
<g class="terminal">
<path d="M168 31h0"></path>
<path d="M268 31h0"></path>
<rect x="168" y="20" width="100" height="22" rx="10" ry="10"></rect>
<text x="218" y="35">"STANDARD"</text>
</g>
<path d="M268 31h20"></path>
<path d="M148 31a10 10 0 0 1 10 10v10a10 10 0 0 0 10 10"></path>
<g class="terminal">
<path d="M168 61h0"></path>
<path d="M252 61h16"></path>
<rect x="168" y="50" width="84" height="22" rx="10" ry="10"></rect>
<text x="210" y="65">"HASHED"</text>
</g>
<path d="M268 61a10 10 0 0 0 10 -10v-10a10 10 0 0 1 10 -10"></path>
<path d="M148 31a10 10 0 0 1 10 10v40a10 10 0 0 0 10 10"></path>
<g class="terminal">
<path d="M168 91h0"></path>
<path d="M244 91h24"></path>
<rect x="168" y="80" width="76" height="22" rx="10" ry="10"></rect>
<text x="206" y="95">"INDEX"</text>
</g>
<path d="M268 91a10 10 0 0 0 10 -10v-40a10 10 0 0 1 10 -10"></path>
<path d="M148 31a10 10 0 0 1 10 10v70a10 10 0 0 0 10 10"></path>
<g class="terminal">
<path d="M168 121h0"></path>
<path d="M252 121h16"></path>
<rect x="168" y="110" width="84" height="22" rx="10" ry="10"></rect>
<text x="210" y="125">"SORTED"</text>
</g>
<path d="M268 121a10 10 0 0 0 10 -10v-70a10 10 0 0 1 10 -10"></path>
<path d="M148 31a10 10 0 0 1 10 10v100a10 10 0 0 0 10 10"></path>
<g class="terminal">
<path d="M168 151h0"></path>
<path d="M228 151h40"></path>
<rect x="168" y="140" width="60" height="22" rx="10" ry="10"></rect>
<text x="198" y="155">"ANY"</text>
</g>
<path d="M268 151a10 10 0 0 0 10 -10v-100a10 10 0 0 1 10 -10"></path>
</g>
<path d="M288 31h10"></path>
<g class="terminal">
<path d="M298 31h0"></path>
<path d="M374 31h0"></path>
<rect x="298" y="20" width="76" height="22" rx="10" ry="10"></rect>
<text x="336" y="35">"TABLE"</text>
</g>
</g>
<path d="M996 31h20"></path>
<path d="M128 31a10 10 0 0 1 10 10v139a10 10 0 0 0 10 10"></path>
<g>
<path d="M148 190h0"></path>
<path d="M996 190h0"></path>
<g>
<path d="M148 190h0"></path>
<path d="M486 190h0"></path>
<path d="M148 190a10 10 0 0 0 10 -10v0a10 10 0 0 1 10 -10"></path>
<g>
<path d="M168 170h298"></path>
</g>
<path d="M466 170a10 10 0 0 1 10 10v0a10 10 0 0 0 10 10"></path>
<path d="M148 190h20"></path>
<g>
<path d="M168 190h0"></path>
<path d="M466 190h0"></path>
<g>
<path d="M168 190h0"></path>
<path d="M394 190h0"></path>
<g>
<path d="M168 190h0"></path>
<path d="M308 190h0"></path>
<path d="M168 190h20"></path>
<g class="terminal">
<path d="M188 190h0"></path>
<path d="M288 190h0"></path>
<rect x="188" y="179" width="100" height="22" rx="10" ry="10"></rect>
<text x="238" y="194">"STANDARD"</text>
</g>
<path d="M288 190h20"></path>
<path d="M168 190a10 10 0 0 1 10 10v10a10 10 0 0 0 10 10"></path>
<g class="terminal">
<path d="M188 220h0"></path>
<path d="M272 220h16"></path>
<rect x="188" y="209" width="84" height="22" rx="10" ry="10"></rect>
<text x="230" y="224">"HASHED"</text>
</g>
<path d="M288 220a10 10 0 0 0 10 -10v-10a10 10 0 0 1 10 -10"></path>
<path d="M168 190a10 10 0 0 1 10 10v40a10 10 0 0 0 10 10"></path>
<g class="terminal">
<path d="M188 250h0"></path>
<path d="M264 250h24"></path>
<rect x="188" y="239" width="76" height="22" rx="10" ry="10"></rect>
<text x="226" y="254">"INDEX"</text>
</g>
<path d="M288 250a10 10 0 0 0 10 -10v-40a10 10 0 0 1 10 -10"></path>
<path d="M168 190a10 10 0 0 1 10 10v70a10 10 0 0 0 10 10"></path>
<g class="terminal">
<path d="M188 280h0"></path>
<path d="M272 280h16"></path>
<rect x="188" y="269" width="84" height="22" rx="10" ry="10"></rect>
<text x="230" y="284">"SORTED"</text>
</g>
<path d="M288 280a10 10 0 0 0 10 -10v-70a10 10 0 0 1 10 -10"></path>
<path d="M168 190a10 10 0 0 1 10 10v100a10 10 0 0 0 10 10"></path>
<g class="terminal">
<path d="M188 310h0"></path>
<path d="M248 310h40"></path>
<rect x="188" y="299" width="60" height="22" rx="10" ry="10"></rect>
<text x="218" y="314">"ANY"</text>
</g>
<path d="M288 310a10 10 0 0 0 10 -10v-100a10 10 0 0 1 10 -10"></path>
</g>
<path d="M308 190h10"></path>
<g class="terminal">
<path d="M318 190h0"></path>
<path d="M394 190h0"></path>
<rect x="318" y="179" width="76" height="22" rx="10" ry="10"></rect>
<text x="356" y="194">"TABLE"</text>
</g>
</g>
<path d="M394 190h10"></path>
<path d="M404 190h10"></path>
<g class="terminal">
<path d="M414 190h0"></path>
<path d="M466 190h0"></path>
<rect x="414" y="179" width="52" height="22" rx="10" ry="10"></rect>
<text x="440" y="194">"OF"</text>
</g>
</g>
<path d="M466 190h20"></path>
</g>
<g>
<path d="M486 190h0"></path>
<path d="M610 190h0"></path>
<path d="M486 190a10 10 0 0 0 10 -10v0a10 10 0 0 1 10 -10"></path>
<g>
<path d="M506 170h84"></path>
</g>
<path d="M590 170a10 10 0 0 1 10 10v0a10 10 0 0 0 10 10"></path>
<path d="M486 190h20"></path>
<g class="terminal">
<path d="M506 190h0"></path>
<path d="M590 190h0"></path>
<rect x="506" y="179" width="84" height="22" rx="10" ry="10"></rect>
<text x="548" y="194">"REF TO"</text>
</g>
<path d="M590 190h20"></path>
</g>
<path d="M610 190h10"></path>
<g class="non-terminal">
<path d="M620 190h0"></path>
<path d="M704 190h0"></path>
<rect x="620" y="179" width="84" height="22"></rect>
<a xlink:href="reuse_typename.svg"><text x="662" y="194">TypeName</text>
</a>
</g>
<path d="M704 190h10"></path>
<g>
<path d="M714 190h0"></path>
<path d="M996 190h0"></path>
<path d="M714 190a10 10 0 0 0 10 -10v0a10 10 0 0 1 10 -10"></path>
<g>
<path d="M734 170h242"></path>
</g>
<path d="M976 170a10 10 0 0 1 10 10v0a10 10 0 0 0 10 10"></path>
<path d="M714 190h20"></path>
<g>
<path d="M734 190h0"></path>
<path d="M976 190h0"></path>
<g class="terminal">
<path d="M734 190h0"></path>
<path d="M826 190h0"></path>
<rect x="734" y="179" width="92" height="22" rx="10" ry="10"></rect>
<text x="780" y="194">"DEFAULT"</text>
</g>
<path d="M826 190h10"></path>
<g>
<path d="M836 190h0"></path>
<path d="M976 190h0"></path>
<path d="M836 190h20"></path>
<g class="non-terminal">
<path d="M856 190h0"></path>
<path d="M940 190h16"></path>
<rect x="856" y="179" width="84" height="22"></rect>
<a xlink:href="reuse_constant.svg"><text x="898" y="194">Constant</text>
</a>
</g>
<path d="M956 190h20"></path>
<path d="M836 190a10 10 0 0 1 10 10v10a10 10 0 0 0 10 10"></path>
<g class="non-terminal">
<path d="M856 220h0"></path>
<path d="M956 220h0"></path>
<rect x="856" y="209" width="100" height="22"></rect>
<a xlink:href="reuse_fieldchain.svg"><text x="906" y="224">FieldChain</text>
</a>
</g>
<path d="M956 220a10 10 0 0 0 10 -10v-10a10 10 0 0 1 10 -10"></path>
</g>
</g>
<path d="M976 190h20"></path>
</g>
</g>
<path d="M996 190a10 10 0 0 0 10 -10v-139a10 10 0 0 1 10 -10"></path>
</g>
</g>
<path d="M1016 31h10"></path>
<path d="M 1026 31 h 20 m 0 -10 v 20"></path>
</g>
</svg>
