<?xml version="1.0" encoding="UTF-8" standalone="no"?>
<!DOCTYPE svg PUBLIC "-//W3C//DTD SVG 1.1//EN"
 "http://www.w3.org/Graphics/SVG/1.1/DTD/svg11.dtd">
<!-- Generated by graphviz version 2.38.0 (20140413.2041)
 -->
<!-- Title: field_sub Pages: 1 -->
<svg width="172pt" height="332pt"
 viewBox="0.00 0.00 172.00 332.00" xmlns="http://www.w3.org/2000/svg" xmlns:xlink="http://www.w3.org/1999/xlink">
<g id="graph0" class="graph" transform="scale(1 1) rotate(0) translate(4 328)">
<title>field_sub</title>
<polygon fill="white" stroke="none" points="-4,4 -4,-328 168,-328 168,4 -4,4"/>
<!-- start -->
<g id="node1" class="node"><title>start</title>
<polygon fill="none" stroke="blue" points="136,-324 82,-324 82,-288 136,-288 136,-324"/>
<text text-anchor="middle" x="109" y="-301.8" font-family="Times,serif" font-size="14.00">Start</text>
</g>
<!-- node148 -->
<g id="node6" class="node"><title>node148</title>
<ellipse fill="none" stroke="black" cx="109" cy="-234" rx="35.4874" ry="18"/>
<text text-anchor="middle" x="109" y="-229.8" font-family="Times,serif" font-size="14.00">^\w+$</text>
</g>
<!-- start&#45;&gt;node148 -->
<g id="edge7" class="edge"><title>start&#45;&gt;node148</title>
<path fill="none" stroke="black" d="M109,-287.697C109,-279.983 109,-270.712 109,-262.112"/>
<polygon fill="black" stroke="black" points="112.5,-262.104 109,-252.104 105.5,-262.104 112.5,-262.104"/>
</g>
<!-- end -->
<g id="node2" class="node"><title>end</title>
<polygon fill="none" stroke="blue" points="54,-108 0,-108 0,-72 54,-72 54,-108"/>
<text text-anchor="middle" x="27" y="-85.8" font-family="Times,serif" font-size="14.00">End</text>
</g>
<!-- node145 -->
<g id="node3" class="node"><title>node145</title>
<ellipse fill="none" stroke="black" cx="74" cy="-162" rx="42.879" ry="18"/>
<text text-anchor="middle" x="74" y="-157.8" font-family="Times,serif" font-size="14.00">Dummy</text>
</g>
<!-- node145&#45;&gt;end -->
<g id="edge4" class="edge"><title>node145&#45;&gt;end</title>
<path fill="none" stroke="black" d="M62.8617,-144.411C57.3486,-136.2 50.5665,-126.099 44.3897,-116.9"/>
<polygon fill="black" stroke="black" points="47.1944,-114.798 38.7143,-108.447 41.3829,-118.7 47.1944,-114.798"/>
</g>
<!-- node147 -->
<g id="node5" class="node"><title>node147</title>
<ellipse fill="none" stroke="black" cx="137" cy="-90" rx="27" ry="18"/>
<text text-anchor="middle" x="137" y="-85.8" font-family="Times,serif" font-size="14.00">^&#45;$</text>
</g>
<!-- node145&#45;&gt;node147 -->
<g id="edge3" class="edge"><title>node145&#45;&gt;node147</title>
<path fill="none" stroke="black" d="M88.6118,-144.765C97.0698,-135.367 107.834,-123.406 117.062,-113.154"/>
<polygon fill="black" stroke="black" points="119.667,-115.491 123.755,-105.717 114.464,-110.809 119.667,-115.491"/>
</g>
<!-- node146 -->
<g id="node4" class="node"><title>node146</title>
<ellipse fill="none" stroke="black" cx="109" cy="-18" rx="35.4874" ry="18"/>
<text text-anchor="middle" x="109" y="-13.8" font-family="Times,serif" font-size="14.00">^\w+$</text>
</g>
<!-- node146&#45;&gt;node145 -->
<g id="edge1" class="edge"><title>node146&#45;&gt;node145</title>
<path fill="none" stroke="black" d="M104.763,-36.1893C98.7635,-60.5311 87.7339,-105.28 80.6405,-134.059"/>
<polygon fill="black" stroke="black" points="77.2168,-133.324 78.2218,-143.871 84.0134,-135 77.2168,-133.324"/>
</g>
<!-- node147&#45;&gt;node146 -->
<g id="edge2" class="edge"><title>node147&#45;&gt;node146</title>
<path fill="none" stroke="black" d="M130.364,-72.411C127.134,-64.3352 123.172,-54.4312 119.542,-45.3547"/>
<polygon fill="black" stroke="black" points="122.746,-43.9411 115.782,-35.9562 116.247,-46.5409 122.746,-43.9411"/>
</g>
<!-- node148&#45;&gt;node145 -->
<g id="edge6" class="edge"><title>node148&#45;&gt;node145</title>
<path fill="none" stroke="black" d="M100.705,-216.411C96.6246,-208.249 91.6101,-198.22 87.0327,-189.065"/>
<polygon fill="black" stroke="black" points="90.0808,-187.335 82.4781,-179.956 83.8198,-190.466 90.0808,-187.335"/>
</g>
<!-- node148&#45;&gt;node147 -->
<g id="edge5" class="edge"><title>node148&#45;&gt;node147</title>
<path fill="none" stroke="black" d="M115.338,-216.037C118.958,-205.744 123.299,-192.268 126,-180 130.49,-159.602 133.295,-136.141 134.948,-118.43"/>
<polygon fill="black" stroke="black" points="138.456,-118.488 135.833,-108.223 131.482,-117.884 138.456,-118.488"/>
</g>
</g>
</svg>
