<svg xmlns="http://www.w3.org/2000/svg" xmlns:xlink="http://www.w3.org/1999/xlink" class="railroad-diagram" width="420" height="101" viewBox="0 0 420 101">
<defs>
<style type="text/css"><![CDATA[
path {
stroke-width: 3;
stroke: black;
fill: rgba(0,0,0,0);
}
text {
font: bold 14px monospace;
text-anchor: middle;
}
text.diagram-text {
font-size: 12px;
}
a {
fill: blue;
}
text.diagram-arrow {
font-size: 16px;
}
text.label {
text-anchor: start;
}
text.comment {
font: italic 12px monospace;
}
rect {
stroke-width: 3;
stroke: black;
fill: #BCBCBC;
}
path.diagram-text {
stroke-width: 3;
stroke: black;
fill: #BCBCBC;
cursor: help;
}
]]></style>
</defs>
<g transform="translate(.5 .5)">
<path d="M 20 30 v 20 m 0 -10 h 20.5"></path>
<path d="M40 40h10"></path>
<g>
<path d="M50 40h0"></path>
<path d="M370 40h0"></path>
<g>
<path d="M50 40h0"></path>
<path d="M198 40h0"></path>
<path d="M50 40h20"></path>
<g class="terminal">
<path d="M70 40h0"></path>
<path d="M130 40h48"></path>
<rect x="70" y="29" width="60" height="22" rx="10" ry="10"></rect>
<text x="100" y="44">^\w+$</text>
</g>
<path d="M178 40h20"></path>
<path d="M50 40a10 10 0 0 1 10 10v10a10 10 0 0 0 10 10"></path>
<g class="non-terminal">
<path d="M70 70h0"></path>
<path d="M178 70h0"></path>
<rect x="70" y="59" width="108" height="22"></rect>
<a xlink:href="reuse_passbyvalue.svg"><text x="124" y="74">PassByValue</text>
</a>
</g>
<path d="M178 70a10 10 0 0 0 10 -10v-10a10 10 0 0 1 10 -10"></path>
</g>
<g>
<path d="M198 40h0"></path>
<path d="M370 40h0"></path>
<path d="M198 40a10 10 0 0 0 10 -10v0a10 10 0 0 1 10 -10"></path>
<g>
<path d="M218 20h132"></path>
</g>
<path d="M350 20a10 10 0 0 1 10 10v0a10 10 0 0 0 10 10"></path>
<path d="M198 40h20"></path>
<g>
<path d="M218 40h0"></path>
<path d="M350 40h0"></path>
<path d="M218 40h20"></path>
<g class="non-terminal">
<path d="M238 40h0"></path>
<path d="M290 40h40"></path>
<rect x="238" y="29" width="52" height="22"></rect>
<a xlink:href="reuse_type.svg"><text x="264" y="44">Type</text>
</a>
</g>
<path d="M330 40h20"></path>
<path d="M218 40a10 10 0 0 1 10 10v10a10 10 0 0 0 10 10"></path>
<g class="non-terminal">
<path d="M238 70h0"></path>
<path d="M330 70h0"></path>
<rect x="238" y="59" width="92" height="22"></rect>
<a xlink:href="reuse_typetable.svg"><text x="284" y="74">TypeTable</text>
</a>
</g>
<path d="M330 70a10 10 0 0 0 10 -10v-10a10 10 0 0 1 10 -10"></path>
</g>
<path d="M350 40h20"></path>
</g>
</g>
<path d="M370 40h10"></path>
<path d="M 380 40 h 20 m 0 -10 v 20"></path>
</g>
</svg>
