<svg xmlns="http://www.w3.org/2000/svg" xmlns:xlink="http://www.w3.org/1999/xlink" class="railroad-diagram" width="2662" height="612" viewBox="0 0 2662 612">
<defs>
<style type="text/css"><![CDATA[
path {
stroke-width: 3;
stroke: black;
fill: rgba(0,0,0,0);
}
text {
font: bold 14px monospace;
text-anchor: middle;
}
text.diagram-text {
font-size: 12px;
}
a {
fill: blue;
}
text.diagram-arrow {
font-size: 16px;
}
text.label {
text-anchor: start;
}
text.comment {
font: italic 12px monospace;
}
rect {
stroke-width: 3;
stroke: black;
fill: #BCBCBC;
}
path.diagram-text {
stroke-width: 3;
stroke: black;
fill: #BCBCBC;
cursor: help;
}
]]></style>
</defs>
<g transform="translate(.5 .5)">
<path d="M 20 38 v 20 m 0 -10 h 20.5"></path>
<path d="M40 48h10"></path>
<g>
<path d="M50 48h0"></path>
<path d="M2612 48h0"></path>
<g class="terminal">
<path d="M50 48h0"></path>
<path d="M134 48h0"></path>
<rect x="50" y="37" width="84" height="22" rx="10" ry="10"></rect>
<text x="92" y="52">"SELECT"</text>
</g>
<path d="M134 48h10"></path>
<g>
<path d="M144 48h0"></path>
<path d="M474 48h0"></path>
<path d="M144 48h20"></path>
<g class="terminal">
<path d="M164 48h0"></path>
<path d="M264 48h190"></path>
<rect x="164" y="37" width="100" height="22" rx="10" ry="10"></rect>
<text x="214" y="52">"DISTINCT"</text>
</g>
<path d="M454 48h20"></path>
<path d="M144 48a10 10 0 0 1 10 10v27a10 10 0 0 0 10 10"></path>
<g>
<path d="M164 95h0"></path>
<path d="M454 95h0"></path>
<path d="M164 95a10 10 0 0 0 10 -10v-8a10 10 0 0 1 10 -10"></path>
<g>
<path d="M184 67h250"></path>
</g>
<path d="M434 67a10 10 0 0 1 10 10v8a10 10 0 0 0 10 10"></path>
<path d="M164 95h20"></path>
<g>
<path d="M184 95h0"></path>
<path d="M434 95h0"></path>
<g class="terminal">
<path d="M184 95h0"></path>
<path d="M268 95h0"></path>
<rect x="184" y="84" width="84" height="22" rx="10" ry="10"></rect>
<text x="226" y="99">"SINGLE"</text>
</g>
<path d="M268 95h10"></path>
<g>
<path d="M278 95h0"></path>
<path d="M434 95h0"></path>
<path d="M278 95a10 10 0 0 0 10 -10v0a10 10 0 0 1 10 -10"></path>
<g>
<path d="M298 75h116"></path>
</g>
<path d="M414 75a10 10 0 0 1 10 10v0a10 10 0 0 0 10 10"></path>
<path d="M278 95h20"></path>
<g class="terminal">
<path d="M298 95h0"></path>
<path d="M414 95h0"></path>
<rect x="298" y="84" width="116" height="22" rx="10" ry="10"></rect>
<text x="356" y="99">"FOR UPDATE"</text>
</g>
<path d="M414 95h20"></path>
</g>
</g>
<path d="M434 95h20"></path>
</g>
<path d="M454 95a10 10 0 0 0 10 -10v-27a10 10 0 0 1 10 -10"></path>
</g>
<g>
<path d="M474 48h0"></path>
<path d="M1054 48h0"></path>
<path d="M474 48h20"></path>
<g class="terminal">
<path d="M494 48h0"></path>
<path d="M538 48h496"></path>
<rect x="494" y="37" width="44" height="22" rx="10" ry="10"></rect>
<text x="516" y="52">"&#42;"</text>
</g>
<path d="M1034 48h20"></path>
<path d="M474 48a10 10 0 0 1 10 10v10a10 10 0 0 0 10 10"></path>
<g class="non-terminal">
<path d="M494 78h0"></path>
<path d="M570 78h464"></path>
<rect x="494" y="67" width="76" height="22"></rect>
<a xlink:href="reuse_dynamic.svg"><text x="532" y="82">Dynamic</text>
</a>
</g>
<path d="M1034 78a10 10 0 0 0 10 -10v-10a10 10 0 0 1 10 -10"></path>
<path d="M474 48a10 10 0 0 1 10 10v40a10 10 0 0 0 10 10"></path>
<g>
<path d="M494 108h0"></path>
<path d="M1034 108h0"></path>
<path d="M494 108h10"></path>
<g>
<path d="M504 108h0"></path>
<path d="M1024 108h0"></path>
<path d="M504 108h20"></path>
<g class="non-terminal">
<path d="M524 108h0"></path>
<path d="M584 108h420"></path>
<rect x="524" y="97" width="60" height="22"></rect>
<a xlink:href="reuse_field.svg"><text x="554" y="112">Field</text>
</a>
</g>
<path d="M1004 108h20"></path>
<path d="M504 108a10 10 0 0 1 10 10v19a10 10 0 0 0 10 10"></path>
<g>
<path d="M524 147h0"></path>
<path d="M1004 147h0"></path>
<g class="terminal">
<path d="M524 147h0"></path>
<path d="M600 147h0"></path>
<rect x="524" y="136" width="76" height="22" rx="10" ry="10"></rect>
<text x="562" y="151">"COUNT"</text>
</g>
<path d="M600 147h10"></path>
<g>
<path d="M610 147h0"></path>
<path d="M710 147h0"></path>
<path d="M610 147h20"></path>
<g class="terminal">
<path d="M630 147h0"></path>
<path d="M682 147h8"></path>
<rect x="630" y="136" width="52" height="22" rx="10" ry="10"></rect>
<text x="656" y="151">!"("</text>
</g>
<path d="M690 147h20"></path>
<path d="M610 147a10 10 0 0 1 10 10v10a10 10 0 0 0 10 10"></path>
<g class="terminal">
<path d="M630 177h0"></path>
<path d="M690 177h0"></path>
<rect x="630" y="166" width="60" height="22" rx="10" ry="10"></rect>
<text x="660" y="181">!"( "</text>
</g>
<path d="M690 177a10 10 0 0 0 10 -10v-10a10 10 0 0 1 10 -10"></path>
</g>
<g>
<path d="M710 147h0"></path>
<path d="M850 147h0"></path>
<path d="M710 147a10 10 0 0 0 10 -10v0a10 10 0 0 1 10 -10"></path>
<g>
<path d="M730 127h100"></path>
</g>
<path d="M830 127a10 10 0 0 1 10 10v0a10 10 0 0 0 10 10"></path>
<path d="M710 147h20"></path>
<g class="terminal">
<path d="M730 147h0"></path>
<path d="M830 147h0"></path>
<rect x="730" y="136" width="100" height="22" rx="10" ry="10"></rect>
<text x="780" y="151">"DISTINCT"</text>
</g>
<path d="M830 147h20"></path>
</g>
<g>
<path d="M850 147h0"></path>
<path d="M950 147h0"></path>
<path d="M850 147h20"></path>
<g class="terminal">
<path d="M870 147h0"></path>
<path d="M914 147h16"></path>
<rect x="870" y="136" width="44" height="22" rx="10" ry="10"></rect>
<text x="892" y="151">"&#42;"</text>
</g>
<path d="M930 147h20"></path>
<path d="M850 147a10 10 0 0 1 10 10v10a10 10 0 0 0 10 10"></path>
<g class="non-terminal">
<path d="M870 177h0"></path>
<path d="M930 177h0"></path>
<rect x="870" y="166" width="60" height="22"></rect>
<a xlink:href="reuse_field.svg"><text x="900" y="181">Field</text>
</a>
</g>
<path d="M930 177a10 10 0 0 0 10 -10v-10a10 10 0 0 1 10 -10"></path>
</g>
<path d="M950 147h10"></path>
<g class="terminal">
<path d="M960 147h0"></path>
<path d="M1004 147h0"></path>
<rect x="960" y="136" width="44" height="22" rx="10" ry="10"></rect>
<text x="982" y="151">")"</text>
</g>
</g>
<path d="M1004 147a10 10 0 0 0 10 -10v-19a10 10 0 0 1 10 -10"></path>
<path d="M504 108a10 10 0 0 1 10 10v79a10 10 0 0 0 10 10"></path>
<g>
<path d="M524 207h0"></path>
<path d="M828 207h176"></path>
<g class="terminal">
<path d="M524 207h0"></path>
<path d="M584 207h0"></path>
<rect x="524" y="196" width="60" height="22" rx="10" ry="10"></rect>
<text x="554" y="211">"MAX"</text>
</g>
<path d="M584 207h10"></path>
<g>
<path d="M594 207h0"></path>
<path d="M694 207h0"></path>
<path d="M594 207h20"></path>
<g class="terminal">
<path d="M614 207h0"></path>
<path d="M666 207h8"></path>
<rect x="614" y="196" width="52" height="22" rx="10" ry="10"></rect>
<text x="640" y="211">!"("</text>
</g>
<path d="M674 207h20"></path>
<path d="M594 207a10 10 0 0 1 10 10v10a10 10 0 0 0 10 10"></path>
<g class="terminal">
<path d="M614 237h0"></path>
<path d="M674 237h0"></path>
<rect x="614" y="226" width="60" height="22" rx="10" ry="10"></rect>
<text x="644" y="241">!"( "</text>
</g>
<path d="M674 237a10 10 0 0 0 10 -10v-10a10 10 0 0 1 10 -10"></path>
</g>
<path d="M694 207h10"></path>
<g class="non-terminal">
<path d="M704 207h0"></path>
<path d="M764 207h0"></path>
<rect x="704" y="196" width="60" height="22"></rect>
<a xlink:href="reuse_field.svg"><text x="734" y="211">Field</text>
</a>
</g>
<path d="M764 207h10"></path>
<path d="M774 207h10"></path>
<g class="terminal">
<path d="M784 207h0"></path>
<path d="M828 207h0"></path>
<rect x="784" y="196" width="44" height="22" rx="10" ry="10"></rect>
<text x="806" y="211">")"</text>
</g>
</g>
<path d="M1004 207a10 10 0 0 0 10 -10v-79a10 10 0 0 1 10 -10"></path>
<path d="M504 108a10 10 0 0 1 10 10v139a10 10 0 0 0 10 10"></path>
<g>
<path d="M524 267h0"></path>
<path d="M828 267h176"></path>
<g class="terminal">
<path d="M524 267h0"></path>
<path d="M584 267h0"></path>
<rect x="524" y="256" width="60" height="22" rx="10" ry="10"></rect>
<text x="554" y="271">"MIN"</text>
</g>
<path d="M584 267h10"></path>
<g>
<path d="M594 267h0"></path>
<path d="M694 267h0"></path>
<path d="M594 267h20"></path>
<g class="terminal">
<path d="M614 267h0"></path>
<path d="M666 267h8"></path>
<rect x="614" y="256" width="52" height="22" rx="10" ry="10"></rect>
<text x="640" y="271">!"("</text>
</g>
<path d="M674 267h20"></path>
<path d="M594 267a10 10 0 0 1 10 10v10a10 10 0 0 0 10 10"></path>
<g class="terminal">
<path d="M614 297h0"></path>
<path d="M674 297h0"></path>
<rect x="614" y="286" width="60" height="22" rx="10" ry="10"></rect>
<text x="644" y="301">!"( "</text>
</g>
<path d="M674 297a10 10 0 0 0 10 -10v-10a10 10 0 0 1 10 -10"></path>
</g>
<path d="M694 267h10"></path>
<g class="non-terminal">
<path d="M704 267h0"></path>
<path d="M764 267h0"></path>
<rect x="704" y="256" width="60" height="22"></rect>
<a xlink:href="reuse_field.svg"><text x="734" y="271">Field</text>
</a>
</g>
<path d="M764 267h10"></path>
<path d="M774 267h10"></path>
<g class="terminal">
<path d="M784 267h0"></path>
<path d="M828 267h0"></path>
<rect x="784" y="256" width="44" height="22" rx="10" ry="10"></rect>
<text x="806" y="271">")"</text>
</g>
</g>
<path d="M1004 267a10 10 0 0 0 10 -10v-139a10 10 0 0 1 10 -10"></path>
</g>
<path d="M1024 108h10"></path>
<path d="M504 108a10 10 0 0 0 -10 10v188a10 10 0 0 0 10 10"></path>
<g>
<path d="M504 316h520"></path>
</g>
<path d="M1024 316a10 10 0 0 0 10 -10v-188a10 10 0 0 0 -10 -10"></path>
</g>
<path d="M1034 108a10 10 0 0 0 10 -10v-40a10 10 0 0 1 10 -10"></path>
</g>
<path d="M1054 48h10"></path>
<g>
<path d="M1064 48h0"></path>
<path d="M2612 48h0"></path>
<path d="M1094 48h10"></path>
<g>
<path d="M1104 48h0"></path>
<path d="M2582 48h0"></path>
<g>
<path d="M1104 48h0"></path>
<path d="M1626 48h0"></path>
<g class="terminal">
<path d="M1104 48h0"></path>
<path d="M1172 48h0"></path>
<rect x="1104" y="37" width="68" height="22" rx="10" ry="10"></rect>
<text x="1138" y="52">"FROM"</text>
</g>
<path d="M1172 48h10"></path>
<g>
<path d="M1182 48h0"></path>
<path d="M1290 48h0"></path>
<path d="M1182 48a10 10 0 0 0 10 -10v0a10 10 0 0 1 10 -10"></path>
<g>
<path d="M1202 28h68"></path>
</g>
<path d="M1270 28a10 10 0 0 1 10 10v0a10 10 0 0 0 10 10"></path>
<path d="M1182 48h20"></path>
<g class="terminal">
<path d="M1202 48h0"></path>
<path d="M1270 48h0"></path>
<rect x="1202" y="37" width="68" height="22" rx="10" ry="10"></rect>
<text x="1236" y="52">!" ( "</text>
</g>
<path d="M1270 48h20"></path>
</g>
<g>
<path d="M1290 48h0"></path>
<path d="M1454 48h0"></path>
<path d="M1290 48h20"></path>
<g class="non-terminal">
<path d="M1310 48h0"></path>
<path d="M1386 48h48"></path>
<rect x="1310" y="37" width="76" height="22"></rect>
<a xlink:href="reuse_dynamic.svg"><text x="1348" y="52">Dynamic</text>
</a>
</g>
<path d="M1434 48h20"></path>
<path d="M1290 48a10 10 0 0 1 10 10v10a10 10 0 0 0 10 10"></path>
<g class="non-terminal">
<path d="M1310 78h0"></path>
<path d="M1434 78h0"></path>
<rect x="1310" y="67" width="124" height="22"></rect>
<a xlink:href="reuse_databasetable.svg"><text x="1372" y="82">DatabaseTable</text>
</a>
</g>
<path d="M1434 78a10 10 0 0 0 10 -10v-10a10 10 0 0 1 10 -10"></path>
</g>
<g>
<path d="M1454 48h0"></path>
<path d="M1626 48h0"></path>
<path d="M1454 48a10 10 0 0 0 10 -10v0a10 10 0 0 1 10 -10"></path>
<g>
<path d="M1474 28h132"></path>
</g>
<path d="M1606 28a10 10 0 0 1 10 10v0a10 10 0 0 0 10 10"></path>
<path d="M1454 48h20"></path>
<g>
<path d="M1474 48h0"></path>
<path d="M1606 48h0"></path>
<g class="terminal">
<path d="M1474 48h0"></path>
<path d="M1526 48h0"></path>
<rect x="1474" y="37" width="52" height="22" rx="10" ry="10"></rect>
<text x="1500" y="52">"AS"</text>
</g>
<path d="M1526 48h10"></path>
<path d="M1536 48h10"></path>
<g class="non-terminal">
<path d="M1546 48h0"></path>
<path d="M1606 48h0"></path>
<rect x="1546" y="37" width="60" height="22"></rect>
<a xlink:href="reuse_field.svg"><text x="1576" y="52">Field</text>
</a>
</g>
</g>
<path d="M1606 48h20"></path>
</g>
</g>
<path d="M1626 48h10"></path>
<g>
<path d="M1636 48h0"></path>
<path d="M2474 48h0"></path>
<path d="M1636 48a10 10 0 0 0 10 -10v-8a10 10 0 0 1 10 -10"></path>
<g>
<path d="M1656 20h798"></path>
</g>
<path d="M2454 20a10 10 0 0 1 10 10v8a10 10 0 0 0 10 10"></path>
<path d="M1636 48h20"></path>
<g>
<path d="M1656 48h0"></path>
<path d="M2454 48h0"></path>
<path d="M1656 48h10"></path>
<g>
<path d="M1666 48h0"></path>
<path d="M2444 48h0"></path>
<g>
<path d="M1666 48h0"></path>
<path d="M1940 48h0"></path>
<g>
<path d="M1666 48h0"></path>
<path d="M1862 48h0"></path>
<path d="M1666 48a10 10 0 0 0 10 -10v0a10 10 0 0 1 10 -10"></path>
<g>
<path d="M1686 28h156"></path>
</g>
<path d="M1842 28a10 10 0 0 1 10 10v0a10 10 0 0 0 10 10"></path>
<path d="M1666 48h20"></path>
<g>
<path d="M1686 48h0"></path>
<path d="M1842 48h0"></path>
<path d="M1686 48h20"></path>
<g class="terminal">
<path d="M1706 48h0"></path>
<path d="M1782 48h40"></path>
<rect x="1706" y="37" width="76" height="22" rx="10" ry="10"></rect>
<text x="1744" y="52">"INNER"</text>
</g>
<path d="M1822 48h20"></path>
<path d="M1686 48a10 10 0 0 1 10 10v10a10 10 0 0 0 10 10"></path>
<g class="terminal">
<path d="M1706 78h0"></path>
<path d="M1822 78h0"></path>
<rect x="1706" y="67" width="116" height="22" rx="10" ry="10"></rect>
<text x="1764" y="82">"LEFT OUTER"</text>
</g>
<path d="M1822 78a10 10 0 0 0 10 -10v-10a10 10 0 0 1 10 -10"></path>
<path d="M1686 48a10 10 0 0 1 10 10v40a10 10 0 0 0 10 10"></path>
<g class="terminal">
<path d="M1706 108h0"></path>
<path d="M1774 108h48"></path>
<rect x="1706" y="97" width="68" height="22" rx="10" ry="10"></rect>
<text x="1740" y="112">"LEFT"</text>
</g>
<path d="M1822 108a10 10 0 0 0 10 -10v-40a10 10 0 0 1 10 -10"></path>
</g>
<path d="M1842 48h20"></path>
</g>
<path d="M1862 48h10"></path>
<g class="terminal">
<path d="M1872 48h0"></path>
<path d="M1940 48h0"></path>
<rect x="1872" y="37" width="68" height="22" rx="10" ry="10"></rect>
<text x="1906" y="52">"JOIN"</text>
</g>
</g>
<path d="M1940 48h10"></path>
<path d="M1950 48h10"></path>
<g class="non-terminal">
<path d="M1960 48h0"></path>
<path d="M2084 48h0"></path>
<rect x="1960" y="37" width="124" height="22"></rect>
<a xlink:href="reuse_databasetable.svg"><text x="2022" y="52">DatabaseTable</text>
</a>
</g>
<path d="M2084 48h10"></path>
<g>
<path d="M2094 48h0"></path>
<path d="M2266 48h0"></path>
<path d="M2094 48a10 10 0 0 0 10 -10v0a10 10 0 0 1 10 -10"></path>
<g>
<path d="M2114 28h132"></path>
</g>
<path d="M2246 28a10 10 0 0 1 10 10v0a10 10 0 0 0 10 10"></path>
<path d="M2094 48h20"></path>
<g>
<path d="M2114 48h0"></path>
<path d="M2246 48h0"></path>
<g class="terminal">
<path d="M2114 48h0"></path>
<path d="M2166 48h0"></path>
<rect x="2114" y="37" width="52" height="22" rx="10" ry="10"></rect>
<text x="2140" y="52">"AS"</text>
</g>
<path d="M2166 48h10"></path>
<path d="M2176 48h10"></path>
<g class="non-terminal">
<path d="M2186 48h0"></path>
<path d="M2246 48h0"></path>
<rect x="2186" y="37" width="60" height="22"></rect>
<a xlink:href="reuse_field.svg"><text x="2216" y="52">Field</text>
</a>
</g>
</g>
<path d="M2246 48h20"></path>
</g>
<path d="M2266 48h10"></path>
<g class="terminal">
<path d="M2276 48h0"></path>
<path d="M2328 48h0"></path>
<rect x="2276" y="37" width="52" height="22" rx="10" ry="10"></rect>
<text x="2302" y="52">"ON"</text>
</g>
<path d="M2328 48h10"></path>
<path d="M2338 48h10"></path>
<g>
<path d="M2348 48h0"></path>
<path d="M2444 48h0"></path>
<path d="M2348 48h10"></path>
<g class="non-terminal">
<path d="M2358 48h0"></path>
<path d="M2434 48h0"></path>
<rect x="2358" y="37" width="76" height="22"></rect>
<a xlink:href="reuse_sqlcond.svg"><text x="2396" y="52">SQLCond</text>
</a>
</g>
<path d="M2434 48h10"></path>
<path d="M2358 48a10 10 0 0 0 -10 10v0a10 10 0 0 0 10 10"></path>
<g>
<path d="M2358 68h76"></path>
</g>
<path d="M2434 68a10 10 0 0 0 10 -10v0a10 10 0 0 0 -10 -10"></path>
</g>
</g>
<path d="M2444 48h10"></path>
<path d="M1666 48a10 10 0 0 0 -10 10v59a10 10 0 0 0 10 10"></path>
<g>
<path d="M1666 127h778"></path>
</g>
<path d="M2444 127a10 10 0 0 0 10 -10v-59a10 10 0 0 0 -10 -10"></path>
</g>
<path d="M2454 48h20"></path>
</g>
<g>
<path d="M2474 48h0"></path>
<path d="M2582 48h0"></path>
<path d="M2474 48a10 10 0 0 0 10 -10v0a10 10 0 0 1 10 -10"></path>
<g>
<path d="M2494 28h68"></path>
</g>
<path d="M2562 28a10 10 0 0 1 10 10v0a10 10 0 0 0 10 10"></path>
<path d="M2474 48h20"></path>
<g class="terminal">
<path d="M2494 48h0"></path>
<path d="M2562 48h0"></path>
<rect x="2494" y="37" width="68" height="22" rx="10" ry="10"></rect>
<text x="2528" y="52">!" ) "</text>
</g>
<path d="M2562 48h20"></path>
</g>
</g>
<path d="M2582 48h10"></path>
<path d="M1094 48v97a10 10 0 0 0 10 10"></path>
<g>
<path d="M1104 155h0"></path>
<path d="M1912 155h670"></path>
<path d="M1104 155h20"></path>
<g>
<path d="M1124 155h0"></path>
<path d="M1766 155h126"></path>
<g class="terminal">
<path d="M1124 155h0"></path>
<path d="M1192 155h0"></path>
<rect x="1124" y="144" width="68" height="22" rx="10" ry="10"></rect>
<text x="1158" y="159">"INTO"</text>
</g>
<path d="M1192 155h10"></path>
<g>
<path d="M1202 155h0"></path>
<path d="M1766 155h0"></path>
<path d="M1202 155h20"></path>
<g>
<path d="M1222 155h0"></path>
<path d="M1626 155h120"></path>
<g class="terminal">
<path d="M1222 155h0"></path>
<path d="M1282 155h0"></path>
<rect x="1222" y="144" width="60" height="22" rx="10" ry="10"></rect>
<text x="1252" y="159">!" ("</text>
</g>
<path d="M1282 155h10"></path>
<g>
<path d="M1292 155h0"></path>
<path d="M1484 155h0"></path>
<path d="M1292 155a10 10 0 0 0 10 -10v0a10 10 0 0 1 10 -10"></path>
<g>
<path d="M1312 135h152"></path>
</g>
<path d="M1464 135a10 10 0 0 1 10 10v0a10 10 0 0 0 10 10"></path>
<path d="M1292 155h20"></path>
<g>
<path d="M1312 155h0"></path>
<path d="M1464 155h0"></path>
<path d="M1312 155h10"></path>
<g>
<path d="M1322 155h0"></path>
<path d="M1454 155h0"></path>
<g class="non-terminal">
<path d="M1322 155h0"></path>
<path d="M1390 155h0"></path>
<rect x="1322" y="144" width="68" height="22"></rect>
<a xlink:href="reuse_target.svg"><text x="1356" y="159">Target</text>
</a>
</g>
<path d="M1390 155h10"></path>
<path d="M1400 155h10"></path>
<g class="terminal">
<path d="M1410 155h0"></path>
<path d="M1454 155h0"></path>
<rect x="1410" y="144" width="44" height="22" rx="10" ry="10"></rect>
<text x="1432" y="159">","</text>
</g>
</g>
<path d="M1454 155h10"></path>
<path d="M1322 155a10 10 0 0 0 -10 10v0a10 10 0 0 0 10 10"></path>
<g>
<path d="M1322 175h132"></path>
</g>
<path d="M1454 175a10 10 0 0 0 10 -10v0a10 10 0 0 0 -10 -10"></path>
</g>
<path d="M1464 155h20"></path>
</g>
<path d="M1484 155h10"></path>
<g class="non-terminal">
<path d="M1494 155h0"></path>
<path d="M1562 155h0"></path>
<rect x="1494" y="144" width="68" height="22"></rect>
<a xlink:href="reuse_target.svg"><text x="1528" y="159">Target</text>
</a>
</g>
<path d="M1562 155h10"></path>
<path d="M1572 155h10"></path>
<g class="terminal">
<path d="M1582 155h0"></path>
<path d="M1626 155h0"></path>
<rect x="1582" y="144" width="44" height="22" rx="10" ry="10"></rect>
<text x="1604" y="159">")"</text>
</g>
</g>
<path d="M1746 155h20"></path>
<path d="M1202 155a10 10 0 0 1 10 10v28a10 10 0 0 0 10 10"></path>
<g>
<path d="M1222 203h0"></path>
<path d="M1746 203h0"></path>
<g>
<path d="M1222 203h0"></path>
<path d="M1482 203h0"></path>
<path d="M1222 203a10 10 0 0 0 10 -10v0a10 10 0 0 1 10 -10"></path>
<g>
<path d="M1242 183h220"></path>
</g>
<path d="M1462 183a10 10 0 0 1 10 10v0a10 10 0 0 0 10 10"></path>
<path d="M1222 203h20"></path>
<g class="terminal">
<path d="M1242 203h0"></path>
<path d="M1462 203h0"></path>
<rect x="1242" y="192" width="220" height="22" rx="10" ry="10"></rect>
<text x="1352" y="207">"CORRESPONDING FIELDS OF"</text>
</g>
<path d="M1462 203h20"></path>
</g>
<g>
<path d="M1482 203h0"></path>
<path d="M1668 203h0"></path>
<path d="M1482 203a10 10 0 0 0 10 -10v0a10 10 0 0 1 10 -10"></path>
<g>
<path d="M1502 183h146"></path>
</g>
<path d="M1648 183a10 10 0 0 1 10 10v0a10 10 0 0 0 10 10"></path>
<path d="M1482 203h20"></path>
<g>
<path d="M1502 203h0"></path>
<path d="M1648 203h0"></path>
<g>
<path d="M1502 203h0"></path>
<path d="M1568 203h0"></path>
<text x="1535" y="208" class="comment">v740sp05</text>
</g>
<path d="M1568 203h10"></path>
<path d="M1578 203h10"></path>
<g class="terminal">
<path d="M1588 203h0"></path>
<path d="M1648 203h0"></path>
<rect x="1588" y="192" width="60" height="22" rx="10" ry="10"></rect>
<text x="1618" y="207">!" @"</text>
</g>
</g>
<path d="M1648 203h20"></path>
</g>
<path d="M1668 203h10"></path>
<g class="non-terminal">
<path d="M1678 203h0"></path>
<path d="M1746 203h0"></path>
<rect x="1678" y="192" width="68" height="22"></rect>
<a xlink:href="reuse_target.svg"><text x="1712" y="207">Target</text>
</a>
</g>
</g>
<path d="M1746 203a10 10 0 0 0 10 -10v-28a10 10 0 0 1 10 -10"></path>
</g>
</g>
<path d="M1892 155h20"></path>
<path d="M1104 155a10 10 0 0 1 10 10v67a10 10 0 0 0 10 10"></path>
<g>
<path d="M1124 242h0"></path>
<path d="M1892 242h0"></path>
<g>
<path d="M1124 242h0"></path>
<path d="M1272 242h0"></path>
<path d="M1124 242h20"></path>
<g class="terminal">
<path d="M1144 242h0"></path>
<path d="M1212 242h40"></path>
<rect x="1144" y="231" width="68" height="22" rx="10" ry="10"></rect>
<text x="1178" y="246">"INTO"</text>
</g>
<path d="M1252 242h20"></path>
<path d="M1124 242a10 10 0 0 1 10 10v10a10 10 0 0 0 10 10"></path>
<g class="terminal">
<path d="M1144 272h0"></path>
<path d="M1252 272h0"></path>
<rect x="1144" y="261" width="108" height="22" rx="10" ry="10"></rect>
<text x="1198" y="276">"APPENDING"</text>
</g>
<path d="M1252 272a10 10 0 0 0 10 -10v-10a10 10 0 0 1 10 -10"></path>
</g>
<g>
<path d="M1272 242h0"></path>
<path d="M1532 242h0"></path>
<path d="M1272 242a10 10 0 0 0 10 -10v0a10 10 0 0 1 10 -10"></path>
<g>
<path d="M1292 222h220"></path>
</g>
<path d="M1512 222a10 10 0 0 1 10 10v0a10 10 0 0 0 10 10"></path>
<path d="M1272 242h20"></path>
<g class="terminal">
<path d="M1292 242h0"></path>
<path d="M1512 242h0"></path>
<rect x="1292" y="231" width="220" height="22" rx="10" ry="10"></rect>
<text x="1402" y="246">"CORRESPONDING FIELDS OF"</text>
</g>
<path d="M1512 242h20"></path>
</g>
<path d="M1532 242h10"></path>
<g class="terminal">
<path d="M1542 242h0"></path>
<path d="M1618 242h0"></path>
<rect x="1542" y="231" width="76" height="22" rx="10" ry="10"></rect>
<text x="1580" y="246">"TABLE"</text>
</g>
<path d="M1618 242h10"></path>
<g>
<path d="M1628 242h0"></path>
<path d="M1814 242h0"></path>
<path d="M1628 242a10 10 0 0 0 10 -10v0a10 10 0 0 1 10 -10"></path>
<g>
<path d="M1648 222h146"></path>
</g>
<path d="M1794 222a10 10 0 0 1 10 10v0a10 10 0 0 0 10 10"></path>
<path d="M1628 242h20"></path>
<g>
<path d="M1648 242h0"></path>
<path d="M1794 242h0"></path>
<g>
<path d="M1648 242h0"></path>
<path d="M1714 242h0"></path>
<text x="1681" y="247" class="comment">v740sp05</text>
</g>
<path d="M1714 242h10"></path>
<path d="M1724 242h10"></path>
<g class="terminal">
<path d="M1734 242h0"></path>
<path d="M1794 242h0"></path>
<rect x="1734" y="231" width="60" height="22" rx="10" ry="10"></rect>
<text x="1764" y="246">!" @"</text>
</g>
</g>
<path d="M1794 242h20"></path>
</g>
<path d="M1814 242h10"></path>
<g class="non-terminal">
<path d="M1824 242h0"></path>
<path d="M1892 242h0"></path>
<rect x="1824" y="231" width="68" height="22"></rect>
<a xlink:href="reuse_target.svg"><text x="1858" y="246">Target</text>
</a>
</g>
</g>
<path d="M1892 242a10 10 0 0 0 10 -10v-67a10 10 0 0 1 10 -10"></path>
</g>
<path d="M2582 155a10 10 0 0 0 10 -10v-97"></path>
<path d="M1094 48v244a10 10 0 0 0 10 10"></path>
<g>
<path d="M1104 302h0"></path>
<path d="M1372 302h1210"></path>
<g class="terminal">
<path d="M1104 302h0"></path>
<path d="M1284 302h0"></path>
<rect x="1104" y="291" width="180" height="22" rx="10" ry="10"></rect>
<text x="1194" y="306">"FOR ALL ENTRIES IN"</text>
</g>
<path d="M1284 302h10"></path>
<path d="M1294 302h10"></path>
<g class="non-terminal">
<path d="M1304 302h0"></path>
<path d="M1372 302h0"></path>
<rect x="1304" y="291" width="68" height="22"></rect>
<a xlink:href="reuse_source.svg"><text x="1338" y="306">Source</text>
</a>
</g>
</g>
<path d="M2582 302a10 10 0 0 0 10 -10v-244"></path>
<path d="M1094 48v274a10 10 0 0 0 10 10"></path>
<g>
<path d="M1104 332h0"></path>
<path d="M1276 332h1306"></path>
<g class="terminal">
<path d="M1104 332h0"></path>
<path d="M1180 332h0"></path>
<rect x="1104" y="321" width="76" height="22" rx="10" ry="10"></rect>
<text x="1142" y="336">"WHERE"</text>
</g>
<path d="M1180 332h10"></path>
<path d="M1190 332h10"></path>
<g class="non-terminal">
<path d="M1200 332h0"></path>
<path d="M1276 332h0"></path>
<rect x="1200" y="321" width="76" height="22"></rect>
<a xlink:href="reuse_sqlcond.svg"><text x="1238" y="336">SQLCond</text>
</a>
</g>
</g>
<path d="M2582 332a10 10 0 0 0 10 -10v-274"></path>
<path d="M1094 48v304a10 10 0 0 0 10 10"></path>
<g>
<path d="M1104 362h0"></path>
<path d="M1378 362h1204"></path>
<g class="terminal">
<path d="M1104 362h0"></path>
<path d="M1204 362h0"></path>
<rect x="1104" y="351" width="100" height="22" rx="10" ry="10"></rect>
<text x="1154" y="366">"ORDER BY"</text>
</g>
<path d="M1204 362h10"></path>
<g>
<path d="M1214 362h0"></path>
<path d="M1378 362h0"></path>
<path d="M1214 362h20"></path>
<g>
<path d="M1234 362h0"></path>
<path d="M1314 362h44"></path>
<path d="M1234 362h10"></path>
<g class="non-terminal">
<path d="M1244 362h0"></path>
<path d="M1304 362h0"></path>
<rect x="1244" y="351" width="60" height="22"></rect>
<a xlink:href="reuse_field.svg"><text x="1274" y="366">Field</text>
</a>
</g>
<path d="M1304 362h10"></path>
<path d="M1244 362a10 10 0 0 0 -10 10v0a10 10 0 0 0 10 10"></path>
<g>
<path d="M1244 382h60"></path>
</g>
<path d="M1304 382a10 10 0 0 0 10 -10v0a10 10 0 0 0 -10 -10"></path>
</g>
<path d="M1358 362h20"></path>
<path d="M1214 362a10 10 0 0 1 10 10v19a10 10 0 0 0 10 10"></path>
<g class="terminal">
<path d="M1234 401h0"></path>
<path d="M1358 401h0"></path>
<rect x="1234" y="390" width="124" height="22" rx="10" ry="10"></rect>
<text x="1296" y="405">"PRIMARY KEY"</text>
</g>
<path d="M1358 401a10 10 0 0 0 10 -10v-19a10 10 0 0 1 10 -10"></path>
<path d="M1214 362a10 10 0 0 1 10 10v49a10 10 0 0 0 10 10"></path>
<g class="non-terminal">
<path d="M1234 431h0"></path>
<path d="M1310 431h48"></path>
<rect x="1234" y="420" width="76" height="22"></rect>
<a xlink:href="reuse_dynamic.svg"><text x="1272" y="435">Dynamic</text>
</a>
</g>
<path d="M1358 431a10 10 0 0 0 10 -10v-49a10 10 0 0 1 10 -10"></path>
</g>
</g>
<path d="M2582 362a10 10 0 0 0 10 -10v-304"></path>
<path d="M1094 48v403a10 10 0 0 0 10 10"></path>
<g>
<path d="M1104 461h0"></path>
<path d="M1356 461h1226"></path>
<g class="terminal">
<path d="M1104 461h0"></path>
<path d="M1180 461h0"></path>
<rect x="1104" y="450" width="76" height="22" rx="10" ry="10"></rect>
<text x="1142" y="465">"UP TO"</text>
</g>
<path d="M1180 461h10"></path>
<path d="M1190 461h10"></path>
<g class="non-terminal">
<path d="M1200 461h0"></path>
<path d="M1268 461h0"></path>
<rect x="1200" y="450" width="68" height="22"></rect>
<a xlink:href="reuse_source.svg"><text x="1234" y="465">Source</text>
</a>
</g>
<path d="M1268 461h10"></path>
<path d="M1278 461h10"></path>
<g class="terminal">
<path d="M1288 461h0"></path>
<path d="M1356 461h0"></path>
<rect x="1288" y="450" width="68" height="22" rx="10" ry="10"></rect>
<text x="1322" y="465">"ROWS"</text>
</g>
</g>
<path d="M2582 461a10 10 0 0 0 10 -10v-403"></path>
<path d="M1094 48v433a10 10 0 0 0 10 10"></path>
<g class="terminal">
<path d="M1104 491h0"></path>
<path d="M1268 491h1314"></path>
<rect x="1104" y="480" width="164" height="22" rx="10" ry="10"></rect>
<text x="1186" y="495">"CLIENT SPECIFIED"</text>
</g>
<path d="M2582 491a10 10 0 0 0 10 -10v-433"></path>
<path d="M1094 48v463a10 10 0 0 0 10 10"></path>
<g class="terminal">
<path d="M1104 521h0"></path>
<path d="M1268 521h1314"></path>
<rect x="1104" y="510" width="164" height="22" rx="10" ry="10"></rect>
<text x="1186" y="525">"BYPASSING BUFFER"</text>
</g>
<path d="M2582 521a10 10 0 0 0 10 -10v-463"></path>
<path d="M1094 48v493a10 10 0 0 0 10 10"></path>
<g>
<path d="M1104 551h0"></path>
<path d="M1324 551h1258"></path>
<g class="terminal">
<path d="M1104 551h0"></path>
<path d="M1236 551h0"></path>
<rect x="1104" y="540" width="132" height="22" rx="10" ry="10"></rect>
<text x="1170" y="555">"PACKAGE SIZE"</text>
</g>
<path d="M1236 551h10"></path>
<path d="M1246 551h10"></path>
<g class="non-terminal">
<path d="M1256 551h0"></path>
<path d="M1324 551h0"></path>
<rect x="1256" y="540" width="68" height="22"></rect>
<a xlink:href="reuse_source.svg"><text x="1290" y="555">Source</text>
</a>
</g>
</g>
<path d="M2582 551a10 10 0 0 0 10 -10v-493"></path>
<path d="M1094 48v523a10 10 0 0 0 10 10"></path>
<g>
<path d="M1104 581h0"></path>
<path d="M1284 581h1298"></path>
<g class="terminal">
<path d="M1104 581h0"></path>
<path d="M1204 581h0"></path>
<rect x="1104" y="570" width="100" height="22" rx="10" ry="10"></rect>
<text x="1154" y="585">"GROUP BY"</text>
</g>
<path d="M1204 581h10"></path>
<path d="M1214 581h10"></path>
<g class="non-terminal">
<path d="M1224 581h0"></path>
<path d="M1284 581h0"></path>
<rect x="1224" y="570" width="60" height="22"></rect>
<a xlink:href="reuse_field.svg"><text x="1254" y="585">Field</text>
</a>
</g>
</g>
<path d="M2582 581a10 10 0 0 0 10 -10v-523"></path>
<g class="diagram-text">
<title>take one or more branches, once each, in any order</title>
<path d="M 1094 38 h -26 a 4 4 0 0 0 -4 4 v 12 a 4 4 0 0 0 4 4 h 26 z" class="diagram-text"></path>
<text x="1079" y="52" class="diagram-text">1+</text>
<path d="M 2592 38 h 16 a 4 4 0 0 1 4 4 v 12 a 4 4 0 0 1 -4 4 h -16 z" class="diagram-text"></path>
<path d="M 2599 46 a 4 4 0 1 0 6 -1 m 2.75 -1 h -4 v 4 m 0 -3 h 2" style="stroke-width: 1.75"></path>
</g>
</g>
</g>
<path d="M2612 48h10"></path>
<path d="M 2622 48 h 20 m 0 -10 v 20"></path>
</g>
</svg>
