<?xml version="1.0" encoding="UTF-8" standalone="no"?>
<!DOCTYPE svg PUBLIC "-//W3C//DTD SVG 1.1//EN"
 "http://www.w3.org/Graphics/SVG/1.1/DTD/svg11.dtd">
<!-- Generated by graphviz version 2.38.0 (20140413.2041)
 -->
<!-- Title: compare Pages: 1 -->
<svg width="1308pt" height="476pt"
 viewBox="0.00 0.00 1308.24 476.00" xmlns="http://www.w3.org/2000/svg" xmlns:xlink="http://www.w3.org/1999/xlink">
<g id="graph0" class="graph" transform="scale(1 1) rotate(0) translate(4 472)">
<title>compare</title>
<polygon fill="white" stroke="none" points="-4,4 -4,-472 1304.24,-472 1304.24,4 -4,4"/>
<!-- start -->
<g id="node1" class="node"><title>start</title>
<polygon fill="none" stroke="blue" points="534,-468 480,-468 480,-432 534,-432 534,-468"/>
<text text-anchor="middle" x="507" y="-445.8" font-family="Times,serif" font-size="14.00">Start</text>
</g>
<!-- node63 -->
<g id="node23" class="node"><title>node63</title>
<g id="a_node23"><a xlink:href="reuse_source.svg" xlink:title="&lt;u&gt;source&lt;/u&gt;">
<ellipse fill="none" stroke="black" cx="507" cy="-306" rx="36.4761" ry="18"/>
<text text-anchor="start" x="488.733" y="-302.8" font-family="Times,serif" text-decoration="underline" font-size="14.00" fill="blue">source</text>
</a>
</g>
</g>
<!-- start&#45;&gt;node63 -->
<g id="edge55" class="edge"><title>start&#45;&gt;node63</title>
<path fill="none" stroke="black" d="M501.176,-431.56C498.069,-421.33 494.569,-408.08 493,-396 490.94,-380.133 490.94,-375.867 493,-360 494.133,-351.277 496.272,-341.945 498.544,-333.58"/>
<polygon fill="black" stroke="black" points="501.909,-334.541 501.322,-323.962 495.184,-332.598 501.909,-334.541"/>
</g>
<!-- node64 -->
<g id="node24" class="node"><title>node64</title>
<ellipse fill="none" stroke="black" cx="541" cy="-378" rx="38.5151" ry="18"/>
<text text-anchor="middle" x="541" y="-373.8" font-family="Times,serif" font-size="14.00">&quot;NOT&quot;</text>
</g>
<!-- start&#45;&gt;node64 -->
<g id="edge54" class="edge"><title>start&#45;&gt;node64</title>
<path fill="none" stroke="black" d="M515.404,-431.697C519.333,-423.609 524.091,-413.812 528.435,-404.869"/>
<polygon fill="black" stroke="black" points="531.705,-406.147 532.926,-395.622 525.409,-403.088 531.705,-406.147"/>
</g>
<!-- end -->
<g id="node2" class="node"><title>end</title>
<polygon fill="none" stroke="blue" points="1003,-36 949,-36 949,-0 1003,-0 1003,-36"/>
<text text-anchor="middle" x="976" y="-13.8" font-family="Times,serif" font-size="14.00">End</text>
</g>
<!-- node43 -->
<g id="node3" class="node"><title>node43</title>
<g id="a_node3"><a xlink:href="reuse_source.svg" xlink:title="&lt;u&gt;source&lt;/u&gt;">
<ellipse fill="none" stroke="black" cx="500" cy="-90" rx="36.4761" ry="18"/>
<text text-anchor="start" x="481.733" y="-86.8" font-family="Times,serif" text-decoration="underline" font-size="14.00" fill="blue">source</text>
</a>
</g>
</g>
<!-- node43&#45;&gt;end -->
<g id="edge1" class="edge"><title>node43&#45;&gt;end</title>
<path fill="none" stroke="black" d="M534.233,-83.9658C620.969,-71.2104 848.847,-37.6989 938.756,-24.4771"/>
<polygon fill="black" stroke="black" points="939.385,-27.9224 948.769,-23.0046 938.366,-20.9968 939.385,-27.9224"/>
</g>
<!-- node44 -->
<g id="node4" class="node"><title>node44</title>
<ellipse fill="none" stroke="black" cx="735" cy="-162" rx="27" ry="18"/>
<text text-anchor="middle" x="735" y="-157.8" font-family="Times,serif" font-size="14.00">&quot;=&quot;</text>
</g>
<!-- node44&#45;&gt;node43 -->
<g id="edge2" class="edge"><title>node44&#45;&gt;node43</title>
<path fill="none" stroke="black" d="M713.951,-150.282C709.11,-148.036 703.933,-145.805 699,-144 646.38,-124.748 583.607,-109.205 542.833,-100.045"/>
<polygon fill="black" stroke="black" points="543.481,-96.6033 532.96,-97.8548 541.965,-103.437 543.481,-96.6033"/>
</g>
<!-- node45 -->
<g id="node5" class="node"><title>node45</title>
<ellipse fill="none" stroke="black" cx="810" cy="-162" rx="29.6127" ry="18"/>
<text text-anchor="middle" x="810" y="-157.8" font-family="Times,serif" font-size="14.00">&quot;&lt;&gt;&quot;</text>
</g>
<!-- node45&#45;&gt;node43 -->
<g id="edge3" class="edge"><title>node45&#45;&gt;node43</title>
<path fill="none" stroke="black" d="M787.219,-150.082C781.974,-147.847 776.359,-145.67 771,-144 693.174,-119.746 599.173,-104.329 544.82,-96.7103"/>
<polygon fill="black" stroke="black" points="545.204,-93.2302 534.82,-95.3341 544.25,-100.165 545.204,-93.2302"/>
</g>
<!-- node46 -->
<g id="node6" class="node"><title>node46</title>
<ellipse fill="none" stroke="black" cx="885" cy="-162" rx="27" ry="18"/>
<text text-anchor="middle" x="885" y="-157.8" font-family="Times,serif" font-size="14.00">&quot;&lt;&quot;</text>
</g>
<!-- node46&#45;&gt;node43 -->
<g id="edge4" class="edge"><title>node46&#45;&gt;node43</title>
<path fill="none" stroke="black" d="M864.469,-150.053C859.513,-147.765 854.157,-145.572 849,-144 743.555,-111.85 613.986,-98.7134 546.254,-93.7437"/>
<polygon fill="black" stroke="black" points="546.149,-90.2276 535.927,-93.0145 545.656,-97.2103 546.149,-90.2276"/>
</g>
<!-- node47 -->
<g id="node7" class="node"><title>node47</title>
<ellipse fill="none" stroke="black" cx="27" cy="-162" rx="27" ry="18"/>
<text text-anchor="middle" x="27" y="-157.8" font-family="Times,serif" font-size="14.00">&quot;&gt;&quot;</text>
</g>
<!-- node47&#45;&gt;node43 -->
<g id="edge5" class="edge"><title>node47&#45;&gt;node43</title>
<path fill="none" stroke="black" d="M47.4977,-149.941C52.4547,-147.657 57.8201,-145.495 63,-144 201.262,-104.102 372.551,-94.2232 453.482,-91.7885"/>
<polygon fill="black" stroke="black" points="453.926,-95.2777 463.826,-91.5035 453.733,-88.2803 453.926,-95.2777"/>
</g>
<!-- node48 -->
<g id="node8" class="node"><title>node48</title>
<ellipse fill="none" stroke="black" cx="102" cy="-162" rx="29.6127" ry="18"/>
<text text-anchor="middle" x="102" y="-157.8" font-family="Times,serif" font-size="14.00">&quot;&lt;=&quot;</text>
</g>
<!-- node48&#45;&gt;node43 -->
<g id="edge6" class="edge"><title>node48&#45;&gt;node43</title>
<path fill="none" stroke="black" d="M124.725,-149.897C129.974,-147.671 135.603,-145.545 141,-144 250.75,-112.581 384.991,-99.0868 454.071,-93.8833"/>
<polygon fill="black" stroke="black" points="454.463,-97.3641 464.182,-93.1462 453.954,-90.3826 454.463,-97.3641"/>
</g>
<!-- node49 -->
<g id="node9" class="node"><title>node49</title>
<ellipse fill="none" stroke="black" cx="180" cy="-162" rx="29.6127" ry="18"/>
<text text-anchor="middle" x="180" y="-157.8" font-family="Times,serif" font-size="14.00">&quot;&gt;=&quot;</text>
</g>
<!-- node49&#45;&gt;node43 -->
<g id="edge7" class="edge"><title>node49&#45;&gt;node43</title>
<path fill="none" stroke="black" d="M202.772,-150.056C208.018,-147.822 213.635,-145.652 219,-144 300.292,-118.965 398.64,-103.7 454.8,-96.3419"/>
<polygon fill="black" stroke="black" points="455.309,-99.8053 464.781,-95.0593 454.417,-92.8624 455.309,-99.8053"/>
</g>
<!-- node50 -->
<g id="node10" class="node"><title>node50</title>
<ellipse fill="none" stroke="black" cx="260" cy="-162" rx="32.1533" ry="18"/>
<text text-anchor="middle" x="260" y="-157.8" font-family="Times,serif" font-size="14.00">&quot;CA&quot;</text>
</g>
<!-- node50&#45;&gt;node43 -->
<g id="edge8" class="edge"><title>node50&#45;&gt;node43</title>
<path fill="none" stroke="black" d="M285.131,-150.242C290.642,-148.048 296.48,-145.848 302,-144 355.039,-126.242 417.589,-110.311 457.976,-100.657"/>
<polygon fill="black" stroke="black" points="458.825,-104.053 467.748,-98.3408 457.21,-97.2419 458.825,-104.053"/>
</g>
<!-- node51 -->
<g id="node11" class="node"><title>node51</title>
<ellipse fill="none" stroke="black" cx="343" cy="-162" rx="32.1533" ry="18"/>
<text text-anchor="middle" x="343" y="-157.8" font-family="Times,serif" font-size="14.00">&quot;CO&quot;</text>
</g>
<!-- node51&#45;&gt;node43 -->
<g id="edge9" class="edge"><title>node51&#45;&gt;node43</title>
<path fill="none" stroke="black" d="M367.531,-150.062C393.601,-138.439 435.063,-119.953 464.654,-106.759"/>
<polygon fill="black" stroke="black" points="466.102,-109.946 473.81,-102.677 463.252,-103.553 466.102,-109.946"/>
</g>
<!-- node52 -->
<g id="node12" class="node"><title>node52</title>
<ellipse fill="none" stroke="black" cx="422" cy="-162" rx="29.2019" ry="18"/>
<text text-anchor="middle" x="422" y="-157.8" font-family="Times,serif" font-size="14.00">&quot;IN&quot;</text>
</g>
<!-- node52&#45;&gt;node43 -->
<g id="edge10" class="edge"><title>node52&#45;&gt;node43</title>
<path fill="none" stroke="black" d="M437.784,-146.834C448.593,-137.134 463.143,-124.077 475.454,-113.028"/>
<polygon fill="black" stroke="black" points="478.054,-115.398 483.159,-106.114 473.379,-110.188 478.054,-115.398"/>
</g>
<!-- node53 -->
<g id="node13" class="node"><title>node53</title>
<ellipse fill="none" stroke="black" cx="500" cy="-162" rx="30.9479" ry="18"/>
<text text-anchor="middle" x="500" y="-157.8" font-family="Times,serif" font-size="14.00">&quot;CP&quot;</text>
</g>
<!-- node53&#45;&gt;node43 -->
<g id="edge11" class="edge"><title>node53&#45;&gt;node43</title>
<path fill="none" stroke="black" d="M500,-143.697C500,-135.983 500,-126.712 500,-118.112"/>
<polygon fill="black" stroke="black" points="503.5,-118.104 500,-108.104 496.5,-118.104 503.5,-118.104"/>
</g>
<!-- node54 -->
<g id="node14" class="node"><title>node54</title>
<ellipse fill="none" stroke="black" cx="579" cy="-162" rx="30.9479" ry="18"/>
<text text-anchor="middle" x="579" y="-157.8" font-family="Times,serif" font-size="14.00">&quot;CS&quot;</text>
</g>
<!-- node54&#45;&gt;node43 -->
<g id="edge12" class="edge"><title>node54&#45;&gt;node43</title>
<path fill="none" stroke="black" d="M562.631,-146.496C551.657,-136.772 537.006,-123.79 524.633,-112.827"/>
<polygon fill="black" stroke="black" points="526.699,-109.981 516.893,-105.968 522.056,-115.22 526.699,-109.981"/>
</g>
<!-- node55 -->
<g id="node15" class="node"><title>node55</title>
<ellipse fill="none" stroke="black" cx="659" cy="-162" rx="31.0105" ry="18"/>
<text text-anchor="middle" x="659" y="-157.8" font-family="Times,serif" font-size="14.00">&quot;NP&quot;</text>
</g>
<!-- node55&#45;&gt;node43 -->
<g id="edge13" class="edge"><title>node55&#45;&gt;node43</title>
<path fill="none" stroke="black" d="M634.851,-150.369C608.434,-138.738 565.828,-119.981 535.582,-106.665"/>
<polygon fill="black" stroke="black" points="536.795,-103.375 526.232,-102.549 533.974,-109.781 536.795,-103.375"/>
</g>
<!-- node56 -->
<g id="node16" class="node"><title>node56</title>
<ellipse fill="none" stroke="black" cx="474" cy="-234" rx="38.5151" ry="18"/>
<text text-anchor="middle" x="474" y="-229.8" font-family="Times,serif" font-size="14.00">&quot;NOT&quot;</text>
</g>
<!-- node56&#45;&gt;node44 -->
<g id="edge14" class="edge"><title>node56&#45;&gt;node44</title>
<path fill="none" stroke="black" d="M509.73,-226.982C554.67,-218.872 633.839,-202.776 699,-180 700.908,-179.333 702.851,-178.596 704.794,-177.815"/>
<polygon fill="black" stroke="black" points="706.598,-180.847 714.371,-173.647 703.805,-174.428 706.598,-180.847"/>
</g>
<!-- node56&#45;&gt;node45 -->
<g id="edge15" class="edge"><title>node56&#45;&gt;node45</title>
<path fill="none" stroke="black" d="M511.701,-229.142C568.751,-222.666 680.01,-207.532 771,-180 773.267,-179.314 775.577,-178.533 777.885,-177.692"/>
<polygon fill="black" stroke="black" points="779.234,-180.923 787.24,-173.983 776.654,-174.416 779.234,-180.923"/>
</g>
<!-- node56&#45;&gt;node46 -->
<g id="edge16" class="edge"><title>node56&#45;&gt;node46</title>
<path fill="none" stroke="black" d="M512.602,-231.361C581.505,-227.601 729.632,-215.724 849,-180 850.937,-179.42 852.901,-178.751 854.861,-178.021"/>
<polygon fill="black" stroke="black" points="856.613,-181.081 864.481,-173.985 853.905,-174.626 856.613,-181.081"/>
</g>
<!-- node56&#45;&gt;node47 -->
<g id="edge17" class="edge"><title>node56&#45;&gt;node47</title>
<path fill="none" stroke="black" d="M435.216,-232.015C361.333,-229.266 195.919,-218.9 63,-180 61.0597,-179.432 59.0928,-178.772 57.1307,-178.048"/>
<polygon fill="black" stroke="black" points="58.0825,-174.653 47.5059,-174.031 55.386,-181.113 58.0825,-174.653"/>
</g>
<!-- node56&#45;&gt;node48 -->
<g id="edge18" class="edge"><title>node56&#45;&gt;node48</title>
<path fill="none" stroke="black" d="M436.112,-230.111C373.597,-224.651 245.369,-210.515 141,-180 138.727,-179.335 136.412,-178.571 134.1,-177.741"/>
<polygon fill="black" stroke="black" points="135.325,-174.462 124.738,-174.058 132.763,-180.976 135.325,-174.462"/>
</g>
<!-- node56&#45;&gt;node49 -->
<g id="edge19" class="edge"><title>node56&#45;&gt;node49</title>
<path fill="none" stroke="black" d="M437.501,-227.84C387.449,-220.22 295.052,-204.194 219,-180 216.743,-179.282 214.44,-178.477 212.137,-177.619"/>
<polygon fill="black" stroke="black" points="213.379,-174.346 202.795,-173.871 210.773,-180.843 213.379,-174.346"/>
</g>
<!-- node56&#45;&gt;node50 -->
<g id="edge20" class="edge"><title>node56&#45;&gt;node50</title>
<path fill="none" stroke="black" d="M441.713,-223.948C406.943,-213.992 350.134,-197.122 302,-180 299.601,-179.146 297.136,-178.237 294.662,-177.299"/>
<polygon fill="black" stroke="black" points="295.773,-173.976 285.185,-173.602 293.229,-180.497 295.773,-173.976"/>
</g>
<!-- node56&#45;&gt;node51 -->
<g id="edge21" class="edge"><title>node56&#45;&gt;node51</title>
<path fill="none" stroke="black" d="M449.36,-219.834C428.254,-208.556 397.724,-192.242 374.782,-179.983"/>
<polygon fill="black" stroke="black" points="376.246,-176.797 365.776,-175.171 372.947,-182.97 376.246,-176.797"/>
</g>
<!-- node56&#45;&gt;node52 -->
<g id="edge22" class="edge"><title>node56&#45;&gt;node52</title>
<path fill="none" stroke="black" d="M461.939,-216.765C455.349,-207.893 447.063,-196.738 439.748,-186.892"/>
<polygon fill="black" stroke="black" points="442.41,-184.606 433.637,-178.666 436.791,-188.78 442.41,-184.606"/>
</g>
<!-- node56&#45;&gt;node53 -->
<g id="edge23" class="edge"><title>node56&#45;&gt;node53</title>
<path fill="none" stroke="black" d="M480.294,-216.055C483.264,-208.059 486.877,-198.331 490.194,-189.4"/>
<polygon fill="black" stroke="black" points="493.563,-190.382 493.764,-179.789 487.001,-187.945 493.563,-190.382"/>
</g>
<!-- node56&#45;&gt;node54 -->
<g id="edge24" class="edge"><title>node56&#45;&gt;node54</title>
<path fill="none" stroke="black" d="M495.248,-218.834C511.272,-208.152 533.401,-193.399 550.889,-181.741"/>
<polygon fill="black" stroke="black" points="553.175,-184.423 559.554,-175.964 549.292,-178.599 553.175,-184.423"/>
</g>
<!-- node56&#45;&gt;node55 -->
<g id="edge25" class="edge"><title>node56&#45;&gt;node55</title>
<path fill="none" stroke="black" d="M504.162,-222.485C533.611,-212.099 579.613,-195.556 619,-180 621.053,-179.189 623.159,-178.342 625.279,-177.477"/>
<polygon fill="black" stroke="black" points="626.651,-180.697 634.544,-173.629 623.966,-174.232 626.651,-180.697"/>
</g>
<!-- node57 -->
<g id="node17" class="node"><title>node57</title>
<ellipse fill="none" stroke="black" cx="1112" cy="-90" rx="63.9518" ry="18"/>
<text text-anchor="middle" x="1112" y="-85.8" font-family="Times,serif" font-size="14.00">&quot;SUPPLIED&quot;</text>
</g>
<!-- node57&#45;&gt;end -->
<g id="edge26" class="edge"><title>node57&#45;&gt;end</title>
<path fill="none" stroke="black" d="M1082.49,-73.811C1061.85,-63.1855 1034.15,-48.9278 1012.17,-37.6174"/>
<polygon fill="black" stroke="black" points="1013.63,-34.4343 1003.14,-32.9698 1010.43,-40.6582 1013.63,-34.4343"/>
</g>
<!-- node58 -->
<g id="node18" class="node"><title>node58</title>
<ellipse fill="none" stroke="black" cx="1247" cy="-90" rx="53.4816" ry="18"/>
<text text-anchor="middle" x="1247" y="-85.8" font-family="Times,serif" font-size="14.00">&quot;BOUND&quot;</text>
</g>
<!-- node58&#45;&gt;end -->
<g id="edge27" class="edge"><title>node58&#45;&gt;end</title>
<path fill="none" stroke="black" d="M1207.01,-77.913C1199.69,-75.9197 1192.12,-73.8794 1185,-72 1124.81,-56.1187 1054.63,-38.5067 1012.84,-28.1133"/>
<polygon fill="black" stroke="black" points="1013.65,-24.7083 1003.1,-25.6946 1011.96,-31.5019 1013.65,-24.7083"/>
</g>
<!-- node59 -->
<g id="node19" class="node"><title>node59</title>
<ellipse fill="none" stroke="black" cx="837" cy="-90" rx="66.802" ry="18"/>
<text text-anchor="middle" x="837" y="-85.8" font-family="Times,serif" font-size="14.00">&quot;ASSIGNED&quot;</text>
</g>
<!-- node59&#45;&gt;end -->
<g id="edge28" class="edge"><title>node59&#45;&gt;end</title>
<path fill="none" stroke="black" d="M867.161,-73.811C888.495,-63.0674 917.202,-48.6103 939.778,-37.2413"/>
<polygon fill="black" stroke="black" points="941.367,-40.3597 948.725,-32.7358 938.219,-34.1077 941.367,-40.3597"/>
</g>
<!-- node60 -->
<g id="node20" class="node"><title>node60</title>
<ellipse fill="none" stroke="black" cx="976" cy="-90" rx="54.1019" ry="18"/>
<text text-anchor="middle" x="976" y="-85.8" font-family="Times,serif" font-size="14.00">&quot;INITIAL&quot;</text>
</g>
<!-- node60&#45;&gt;end -->
<g id="edge29" class="edge"><title>node60&#45;&gt;end</title>
<path fill="none" stroke="black" d="M976,-71.6966C976,-63.9827 976,-54.7125 976,-46.1124"/>
<polygon fill="black" stroke="black" points="979.5,-46.1043 976,-36.1043 972.5,-46.1044 979.5,-46.1043"/>
</g>
<!-- node61 -->
<g id="node21" class="node"><title>node61</title>
<ellipse fill="none" stroke="black" cx="1045" cy="-162" rx="38.5151" ry="18"/>
<text text-anchor="middle" x="1045" y="-157.8" font-family="Times,serif" font-size="14.00">&quot;NOT&quot;</text>
</g>
<!-- node61&#45;&gt;node57 -->
<g id="edge30" class="edge"><title>node61&#45;&gt;node57</title>
<path fill="none" stroke="black" d="M1060.2,-145.116C1068.69,-136.244 1079.45,-125.009 1088.95,-115.077"/>
<polygon fill="black" stroke="black" points="1091.54,-117.442 1095.92,-107.797 1086.48,-112.601 1091.54,-117.442"/>
</g>
<!-- node61&#45;&gt;node58 -->
<g id="edge31" class="edge"><title>node61&#45;&gt;node58</title>
<path fill="none" stroke="black" d="M1075.24,-150.52C1108.58,-138.967 1162.6,-120.249 1201.15,-106.889"/>
<polygon fill="black" stroke="black" points="1202.79,-110.026 1211.09,-103.445 1200.49,-103.412 1202.79,-110.026"/>
</g>
<!-- node61&#45;&gt;node59 -->
<g id="edge32" class="edge"><title>node61&#45;&gt;node59</title>
<path fill="none" stroke="black" d="M1014.31,-150.671C980.693,-139.358 926.286,-121.048 886.595,-107.691"/>
<polygon fill="black" stroke="black" points="887.691,-104.367 877.097,-104.494 885.458,-111.001 887.691,-104.367"/>
</g>
<!-- node61&#45;&gt;node60 -->
<g id="edge33" class="edge"><title>node61&#45;&gt;node60</title>
<path fill="none" stroke="black" d="M1029.34,-145.116C1020.47,-136.116 1009.2,-124.682 999.308,-114.646"/>
<polygon fill="black" stroke="black" points="1001.59,-111.972 992.074,-107.307 996.601,-116.886 1001.59,-111.972"/>
</g>
<!-- node62 -->
<g id="node22" class="node"><title>node62</title>
<ellipse fill="none" stroke="black" cx="1011" cy="-234" rx="27.4955" ry="18"/>
<text text-anchor="middle" x="1011" y="-229.8" font-family="Times,serif" font-size="14.00">&quot;IS&quot;</text>
</g>
<!-- node62&#45;&gt;node57 -->
<g id="edge35" class="edge"><title>node62&#45;&gt;node57</title>
<path fill="none" stroke="black" d="M1034.11,-224.031C1052.89,-215.531 1078.57,-200.933 1093,-180 1105.5,-161.866 1110.02,-137.088 1111.55,-118.281"/>
<polygon fill="black" stroke="black" points="1115.04,-118.445 1112.13,-108.26 1108.06,-118.041 1115.04,-118.445"/>
</g>
<!-- node62&#45;&gt;node58 -->
<g id="edge36" class="edge"><title>node62&#45;&gt;node58</title>
<path fill="none" stroke="black" d="M1032.69,-222.738C1053.81,-212.539 1086.62,-196.131 1114,-180 1150.34,-158.584 1190.36,-131.264 1216.91,-112.577"/>
<polygon fill="black" stroke="black" points="1219.23,-115.223 1225.37,-106.591 1215.19,-109.508 1219.23,-115.223"/>
</g>
<!-- node62&#45;&gt;node59 -->
<g id="edge37" class="edge"><title>node62&#45;&gt;node59</title>
<path fill="none" stroke="black" d="M997.848,-218.135C981.049,-199.605 950.594,-167.511 921,-144 906.215,-132.254 888.708,-120.859 873.514,-111.664"/>
<polygon fill="black" stroke="black" points="875.256,-108.628 864.873,-106.518 871.674,-114.642 875.256,-108.628"/>
</g>
<!-- node62&#45;&gt;node60 -->
<g id="edge38" class="edge"><title>node62&#45;&gt;node60</title>
<path fill="none" stroke="black" d="M1006.34,-215.844C1003.56,-205.482 1000,-192.003 997,-180 991.834,-159.338 986.316,-135.89 982.233,-118.25"/>
<polygon fill="black" stroke="black" points="985.548,-117.053 979.892,-108.094 978.727,-118.625 985.548,-117.053"/>
</g>
<!-- node62&#45;&gt;node61 -->
<g id="edge34" class="edge"><title>node62&#45;&gt;node61</title>
<path fill="none" stroke="black" d="M1019.06,-216.411C1023.02,-208.249 1027.89,-198.22 1032.34,-189.065"/>
<polygon fill="black" stroke="black" points="1035.54,-190.48 1036.76,-179.956 1029.25,-187.422 1035.54,-190.48"/>
</g>
<!-- node63&#45;&gt;node44 -->
<g id="edge40" class="edge"><title>node63&#45;&gt;node44</title>
<path fill="none" stroke="black" d="M529.714,-291.965C548.003,-281.388 574.31,-265.989 597,-252 635.977,-227.968 680.368,-199.058 708.036,-180.85"/>
<polygon fill="black" stroke="black" points="709.98,-183.761 716.403,-175.335 706.128,-177.916 709.98,-183.761"/>
</g>
<!-- node63&#45;&gt;node45 -->
<g id="edge41" class="edge"><title>node63&#45;&gt;node45</title>
<path fill="none" stroke="black" d="M535.176,-294.474C561.925,-284.276 603.115,-268.04 638,-252 688.679,-228.698 745.908,-198.22 779.914,-179.653"/>
<polygon fill="black" stroke="black" points="781.777,-182.623 788.865,-174.748 778.413,-176.485 781.777,-182.623"/>
</g>
<!-- node63&#45;&gt;node46 -->
<g id="edge42" class="edge"><title>node63&#45;&gt;node46</title>
<path fill="none" stroke="black" d="M538.812,-297.085C575.295,-287.687 636.685,-270.888 688,-252 761.56,-224.924 777.779,-212.737 849,-180 850.79,-179.177 852.627,-178.327 854.48,-177.466"/>
<polygon fill="black" stroke="black" points="856.142,-180.552 863.714,-173.141 853.173,-174.213 856.142,-180.552"/>
</g>
<!-- node63&#45;&gt;node47 -->
<g id="edge43" class="edge"><title>node63&#45;&gt;node47</title>
<path fill="none" stroke="black" d="M470.729,-303.375C409.391,-299.698 281.995,-288.021 181,-252 132.764,-234.796 82.3944,-202.531 52.8993,-181.939"/>
<polygon fill="black" stroke="black" points="54.6258,-178.873 44.4414,-175.953 50.5818,-184.587 54.6258,-178.873"/>
</g>
<!-- node63&#45;&gt;node48 -->
<g id="edge44" class="edge"><title>node63&#45;&gt;node48</title>
<path fill="none" stroke="black" d="M471.877,-301.346C421.895,-295.334 327.992,-281.013 253,-252 206.448,-233.99 157.558,-202.52 128.438,-182.233"/>
<polygon fill="black" stroke="black" points="130.25,-179.228 120.06,-176.324 126.215,-184.948 130.25,-179.228"/>
</g>
<!-- node63&#45;&gt;node49 -->
<g id="edge45" class="edge"><title>node63&#45;&gt;node49</title>
<path fill="none" stroke="black" d="M473.751,-298.533C435.748,-290.464 372.193,-274.881 321,-252 278.313,-232.921 233.363,-202.488 205.997,-182.623"/>
<polygon fill="black" stroke="black" points="207.888,-179.669 197.756,-176.573 203.745,-185.312 207.888,-179.669"/>
</g>
<!-- node63&#45;&gt;node50 -->
<g id="edge46" class="edge"><title>node63&#45;&gt;node50</title>
<path fill="none" stroke="black" d="M477.571,-295.347C450.758,-285.992 410.5,-270.523 378,-252 343.452,-232.31 307.491,-203.845 284.487,-184.444"/>
<polygon fill="black" stroke="black" points="286.505,-181.565 276.625,-177.74 281.963,-186.891 286.505,-181.565"/>
</g>
<!-- node63&#45;&gt;node51 -->
<g id="edge47" class="edge"><title>node63&#45;&gt;node51</title>
<path fill="none" stroke="black" d="M480.526,-293.527C460.661,-284.136 433.479,-269.562 413,-252 391.229,-233.33 371.538,-207.034 358.626,-187.868"/>
<polygon fill="black" stroke="black" points="361.444,-185.783 353.021,-179.357 355.598,-189.634 361.444,-185.783"/>
</g>
<!-- node63&#45;&gt;node52 -->
<g id="edge48" class="edge"><title>node63&#45;&gt;node52</title>
<path fill="none" stroke="black" d="M478.558,-294.441C460.126,-285.974 437.486,-272.147 426,-252 415.32,-233.267 415.086,-208.543 417.088,-189.908"/>
<polygon fill="black" stroke="black" points="420.557,-190.372 418.42,-179.995 413.62,-189.44 420.557,-190.372"/>
</g>
<!-- node63&#45;&gt;node53 -->
<g id="edge49" class="edge"><title>node63&#45;&gt;node53</title>
<path fill="none" stroke="black" d="M513.477,-288.214C519.546,-270.281 526.992,-241.048 522,-216 520.181,-206.871 516.758,-197.345 513.146,-188.929"/>
<polygon fill="black" stroke="black" points="516.244,-187.287 508.902,-179.648 509.878,-190.198 516.244,-187.287"/>
</g>
<!-- node63&#45;&gt;node54 -->
<g id="edge50" class="edge"><title>node63&#45;&gt;node54</title>
<path fill="none" stroke="black" d="M516.778,-288.464C522.804,-278.096 530.58,-264.392 537,-252 547.875,-231.008 559.265,-206.706 567.436,-188.806"/>
<polygon fill="black" stroke="black" points="570.676,-190.135 571.62,-179.582 564.301,-187.243 570.676,-190.135"/>
</g>
<!-- node63&#45;&gt;node55 -->
<g id="edge51" class="edge"><title>node63&#45;&gt;node55</title>
<path fill="none" stroke="black" d="M523.267,-289.804C550.378,-264.476 604.886,-213.554 635.945,-184.538"/>
<polygon fill="black" stroke="black" points="638.388,-187.046 643.306,-177.662 633.609,-181.931 638.388,-187.046"/>
</g>
<!-- node63&#45;&gt;node56 -->
<g id="edge39" class="edge"><title>node63&#45;&gt;node56</title>
<path fill="none" stroke="black" d="M499.179,-288.411C495.332,-280.249 490.604,-270.22 486.288,-261.065"/>
<polygon fill="black" stroke="black" points="489.424,-259.509 481.994,-251.956 483.092,-262.494 489.424,-259.509"/>
</g>
<!-- node63&#45;&gt;node62 -->
<g id="edge52" class="edge"><title>node63&#45;&gt;node62</title>
<path fill="none" stroke="black" d="M541.642,-300.189C633.082,-287.489 880.336,-253.148 974.189,-240.113"/>
<polygon fill="black" stroke="black" points="974.916,-243.545 984.339,-238.703 973.953,-236.612 974.916,-243.545"/>
</g>
<!-- node64&#45;&gt;node63 -->
<g id="edge53" class="edge"><title>node64&#45;&gt;node63</title>
<path fill="none" stroke="black" d="M532.77,-360.055C528.802,-351.887 523.957,-341.912 519.543,-332.824"/>
<polygon fill="black" stroke="black" points="522.672,-331.255 515.155,-323.789 516.375,-334.313 522.672,-331.255"/>
</g>
</g>
</svg>
