<svg xmlns="http://www.w3.org/2000/svg" xmlns:xlink="http://www.w3.org/1999/xlink" class="railroad-diagram" width="628" height="92" viewBox="0 0 628 92">
<defs>
<style type="text/css"><![CDATA[
path {
stroke-width: 3;
stroke: black;
fill: rgba(0,0,0,0);
}
text {
font: bold 14px monospace;
text-anchor: middle;
}
text.diagram-text {
font-size: 12px;
}
a {
fill: blue;
}
text.diagram-arrow {
font-size: 16px;
}
text.label {
text-anchor: start;
}
text.comment {
font: italic 12px monospace;
}
rect {
stroke-width: 3;
stroke: black;
fill: #BCBCBC;
}
path.diagram-text {
stroke-width: 3;
stroke: black;
fill: #BCBCBC;
cursor: help;
}
]]></style>
</defs>
<g transform="translate(.5 .5)">
<path d="M 20 21 v 20 m 0 -10 h 20.5"></path>
<path d="M40 31h10"></path>
<g>
<path d="M50 31h0"></path>
<path d="M578 31h0"></path>
<g>
<path d="M50 31h0"></path>
<path d="M116 31h0"></path>
<text x="83" y="36" class="comment">v740sp02</text>
</g>
<path d="M116 31h10"></path>
<path d="M126 31h10"></path>
<g>
<path d="M136 31h0"></path>
<path d="M578 31h0"></path>
<g class="terminal">
<path d="M136 31h0"></path>
<path d="M268 31h0"></path>
<rect x="136" y="20" width="132" height="22" rx="10" ry="10"></rect>
<text x="202" y="35">"FIELD-SYMBOL"</text>
</g>
<path d="M268 31h10"></path>
<path d="M278 31h10"></path>
<g class="terminal">
<path d="M288 31h0"></path>
<path d="M340 31h0"></path>
<rect x="288" y="20" width="52" height="22" rx="10" ry="10"></rect>
<text x="314" y="35">!"("</text>
</g>
<path d="M340 31h10"></path>
<path d="M350 31h10"></path>
<g class="non-terminal">
<path d="M360 31h0"></path>
<path d="M468 31h0"></path>
<rect x="360" y="20" width="108" height="22"></rect>
<a xlink:href="reuse_FieldSymbol.svg"><text x="414" y="35">FieldSymbol</text>
</a>
</g>
<path d="M468 31h10"></path>
<g>
<path d="M478 31h0"></path>
<path d="M578 31h0"></path>
<path d="M478 31h20"></path>
<g class="terminal">
<path d="M498 31h0"></path>
<path d="M550 31h8"></path>
<rect x="498" y="20" width="52" height="22" rx="10" ry="10"></rect>
<text x="524" y="35">!")"</text>
</g>
<path d="M558 31h20"></path>
<path d="M478 31a10 10 0 0 1 10 10v10a10 10 0 0 0 10 10"></path>
<g class="terminal">
<path d="M498 61h0"></path>
<path d="M558 61h0"></path>
<rect x="498" y="50" width="60" height="22" rx="10" ry="10"></rect>
<text x="528" y="65">!") "</text>
</g>
<path d="M558 61a10 10 0 0 0 10 -10v-10a10 10 0 0 1 10 -10"></path>
</g>
</g>
</g>
<path d="M578 31h10"></path>
<path d="M 588 31 h 20 m 0 -10 v 20"></path>
</g>
</svg>
