<svg xmlns="http://www.w3.org/2000/svg" xmlns:xlink="http://www.w3.org/1999/xlink" class="railroad-diagram" width="1638" height="169" viewBox="0 0 1638 169">
<defs>
<style type="text/css"><![CDATA[
path {
stroke-width: 3;
stroke: black;
fill: rgba(0,0,0,0);
}
text {
font: bold 14px monospace;
text-anchor: middle;
}
text.diagram-text {
font-size: 12px;
}
a {
fill: blue;
}
text.diagram-arrow {
font-size: 16px;
}
text.label {
text-anchor: start;
}
text.comment {
font: italic 12px monospace;
}
rect {
stroke-width: 3;
stroke: black;
fill: #BCBCBC;
}
path.diagram-text {
stroke-width: 3;
stroke: black;
fill: #BCBCBC;
cursor: help;
}
]]></style>
</defs>
<g transform="translate(.5 .5)">
<path d="M 20 38 v 20 m 0 -10 h 20.5"></path>
<path d="M40 48h10"></path>
<g>
<path d="M50 48h0"></path>
<path d="M1588 48h0"></path>
<g>
<path d="M50 48h0"></path>
<path d="M650 48h0"></path>
<g>
<path d="M50 48h0"></path>
<path d="M158 48h0"></path>
<path d="M50 48h20"></path>
<g class="terminal">
<path d="M70 48h0"></path>
<path d="M138 48h0"></path>
<rect x="70" y="37" width="68" height="22" rx="10" ry="10"></rect>
<text x="104" y="52">"LIKE"</text>
</g>
<path d="M138 48h20"></path>
<path d="M50 48a10 10 0 0 1 10 10v10a10 10 0 0 0 10 10"></path>
<g class="terminal">
<path d="M70 78h0"></path>
<path d="M138 78h0"></path>
<rect x="70" y="67" width="68" height="22" rx="10" ry="10"></rect>
<text x="104" y="82">"TYPE"</text>
</g>
<path d="M138 78a10 10 0 0 0 10 -10v-10a10 10 0 0 1 10 -10"></path>
</g>
<g>
<path d="M158 48h0"></path>
<path d="M338 48h0"></path>
<path d="M158 48a10 10 0 0 0 10 -10v0a10 10 0 0 1 10 -10"></path>
<g>
<path d="M178 28h140"></path>
</g>
<path d="M318 28a10 10 0 0 1 10 10v0a10 10 0 0 0 10 10"></path>
<path d="M158 48h20"></path>
<g>
<path d="M178 48h0"></path>
<path d="M318 48h0"></path>
<path d="M178 48h20"></path>
<g class="terminal">
<path d="M198 48h0"></path>
<path d="M298 48h0"></path>
<rect x="198" y="37" width="100" height="22" rx="10" ry="10"></rect>
<text x="248" y="52">"STANDARD"</text>
</g>
<path d="M298 48h20"></path>
<path d="M178 48a10 10 0 0 1 10 10v10a10 10 0 0 0 10 10"></path>
<g class="terminal">
<path d="M198 78h0"></path>
<path d="M282 78h16"></path>
<rect x="198" y="67" width="84" height="22" rx="10" ry="10"></rect>
<text x="240" y="82">"HASHED"</text>
</g>
<path d="M298 78a10 10 0 0 0 10 -10v-10a10 10 0 0 1 10 -10"></path>
<path d="M178 48a10 10 0 0 1 10 10v40a10 10 0 0 0 10 10"></path>
<g class="terminal">
<path d="M198 108h0"></path>
<path d="M282 108h16"></path>
<rect x="198" y="97" width="84" height="22" rx="10" ry="10"></rect>
<text x="240" y="112">"SORTED"</text>
</g>
<path d="M298 108a10 10 0 0 0 10 -10v-40a10 10 0 0 1 10 -10"></path>
<path d="M178 48a10 10 0 0 1 10 10v70a10 10 0 0 0 10 10"></path>
<g class="terminal">
<path d="M198 138h0"></path>
<path d="M258 138h40"></path>
<rect x="198" y="127" width="60" height="22" rx="10" ry="10"></rect>
<text x="228" y="142">"ANY"</text>
</g>
<path d="M298 138a10 10 0 0 0 10 -10v-70a10 10 0 0 1 10 -10"></path>
</g>
<path d="M318 48h20"></path>
</g>
<path d="M338 48h10"></path>
<g class="terminal">
<path d="M348 48h0"></path>
<path d="M424 48h0"></path>
<rect x="348" y="37" width="76" height="22" rx="10" ry="10"></rect>
<text x="386" y="52">"TABLE"</text>
</g>
<path d="M424 48h10"></path>
<g>
<path d="M434 48h0"></path>
<path d="M526 48h0"></path>
<path d="M434 48a10 10 0 0 0 10 -10v0a10 10 0 0 1 10 -10"></path>
<g>
<path d="M454 28h52"></path>
</g>
<path d="M506 28a10 10 0 0 1 10 10v0a10 10 0 0 0 10 10"></path>
<path d="M434 48h20"></path>
<g class="terminal">
<path d="M454 48h0"></path>
<path d="M506 48h0"></path>
<rect x="454" y="37" width="52" height="22" rx="10" ry="10"></rect>
<text x="480" y="52">"OF"</text>
</g>
<path d="M506 48h20"></path>
</g>
<g>
<path d="M526 48h0"></path>
<path d="M650 48h0"></path>
<path d="M526 48a10 10 0 0 0 10 -10v0a10 10 0 0 1 10 -10"></path>
<g>
<path d="M546 28h84"></path>
</g>
<path d="M630 28a10 10 0 0 1 10 10v0a10 10 0 0 0 10 10"></path>
<path d="M526 48h20"></path>
<g class="terminal">
<path d="M546 48h0"></path>
<path d="M630 48h0"></path>
<rect x="546" y="37" width="84" height="22" rx="10" ry="10"></rect>
<text x="588" y="52">"REF TO"</text>
</g>
<path d="M630 48h20"></path>
</g>
</g>
<path d="M650 48h10"></path>
<g>
<path d="M660 48h0"></path>
<path d="M808 48h0"></path>
<path d="M660 48a10 10 0 0 0 10 -10v0a10 10 0 0 1 10 -10"></path>
<g>
<path d="M680 28h108"></path>
</g>
<path d="M788 28a10 10 0 0 1 10 10v0a10 10 0 0 0 10 10"></path>
<path d="M660 48h20"></path>
<g class="non-terminal">
<path d="M680 48h0"></path>
<path d="M788 48h0"></path>
<rect x="680" y="37" width="108" height="22"></rect>
<a xlink:href="reuse_TypeDefName.svg"><text x="734" y="52">TypeDefName</text>
</a>
</g>
<path d="M788 48h20"></path>
</g>
<g>
<path d="M808 48h0"></path>
<path d="M1588 48h0"></path>
<path d="M808 48a10 10 0 0 0 10 -10v-8a10 10 0 0 1 10 -10"></path>
<g>
<path d="M828 20h740"></path>
</g>
<path d="M1568 20a10 10 0 0 1 10 10v8a10 10 0 0 0 10 10"></path>
<path d="M808 48h20"></path>
<g>
<path d="M828 48h0"></path>
<path d="M1568 48h0"></path>
<g class="terminal">
<path d="M828 48h0"></path>
<path d="M896 48h0"></path>
<rect x="828" y="37" width="68" height="22" rx="10" ry="10"></rect>
<text x="862" y="52">"WITH"</text>
</g>
<path d="M896 48h10"></path>
<g>
<path d="M906 48h0"></path>
<path d="M1102 48h0"></path>
<path d="M906 48a10 10 0 0 0 10 -10v0a10 10 0 0 1 10 -10"></path>
<g>
<path d="M926 28h156"></path>
</g>
<path d="M1082 28a10 10 0 0 1 10 10v0a10 10 0 0 0 10 10"></path>
<path d="M906 48h20"></path>
<g>
<path d="M926 48h0"></path>
<path d="M1082 48h0"></path>
<path d="M926 48h20"></path>
<g class="terminal">
<path d="M946 48h0"></path>
<path d="M1062 48h0"></path>
<rect x="946" y="37" width="116" height="22" rx="10" ry="10"></rect>
<text x="1004" y="52">"NON-UNIQUE"</text>
</g>
<path d="M1062 48h20"></path>
<path d="M926 48a10 10 0 0 1 10 10v10a10 10 0 0 0 10 10"></path>
<g class="terminal">
<path d="M946 78h0"></path>
<path d="M1030 78h32"></path>
<rect x="946" y="67" width="84" height="22" rx="10" ry="10"></rect>
<text x="988" y="82">"UNIQUE"</text>
</g>
<path d="M1062 78a10 10 0 0 0 10 -10v-10a10 10 0 0 1 10 -10"></path>
</g>
<path d="M1082 48h20"></path>
</g>
<g>
<path d="M1102 48h0"></path>
<path d="M1344 48h0"></path>
<path d="M1102 48a10 10 0 0 0 10 -10v0a10 10 0 0 1 10 -10"></path>
<g>
<path d="M1122 28h202"></path>
</g>
<path d="M1324 28a10 10 0 0 1 10 10v0a10 10 0 0 0 10 10"></path>
<path d="M1102 48h20"></path>
<g>
<path d="M1122 48h0"></path>
<path d="M1324 48h0"></path>
<path d="M1122 48h20"></path>
<g class="terminal">
<path d="M1142 48h0"></path>
<path d="M1234 48h70"></path>
<rect x="1142" y="37" width="92" height="22" rx="10" ry="10"></rect>
<text x="1188" y="52">"DEFAULT"</text>
</g>
<path d="M1304 48h20"></path>
<path d="M1122 48a10 10 0 0 1 10 10v10a10 10 0 0 0 10 10"></path>
<g>
<path d="M1142 78h0"></path>
<path d="M1304 78h0"></path>
<g>
<path d="M1142 78h0"></path>
<path d="M1208 78h0"></path>
<text x="1175" y="83" class="comment">v740sp02</text>
</g>
<path d="M1208 78h10"></path>
<path d="M1218 78h10"></path>
<g class="terminal">
<path d="M1228 78h0"></path>
<path d="M1304 78h0"></path>
<rect x="1228" y="67" width="76" height="22" rx="10" ry="10"></rect>
<text x="1266" y="82">"EMPTY"</text>
</g>
</g>
<path d="M1304 78a10 10 0 0 0 10 -10v-10a10 10 0 0 1 10 -10"></path>
</g>
<path d="M1324 48h20"></path>
</g>
<path d="M1344 48h10"></path>
<g class="terminal">
<path d="M1354 48h0"></path>
<path d="M1414 48h0"></path>
<rect x="1354" y="37" width="60" height="22" rx="10" ry="10"></rect>
<text x="1384" y="52">"KEY"</text>
</g>
<path d="M1414 48h10"></path>
<g>
<path d="M1424 48h0"></path>
<path d="M1568 48h0"></path>
<path d="M1424 48a10 10 0 0 0 10 -10v0a10 10 0 0 1 10 -10"></path>
<g>
<path d="M1444 28h104"></path>
</g>
<path d="M1548 28a10 10 0 0 1 10 10v0a10 10 0 0 0 10 10"></path>
<path d="M1424 48h20"></path>
<g>
<path d="M1444 48h0"></path>
<path d="M1548 48h0"></path>
<path d="M1444 48h10"></path>
<g class="non-terminal">
<path d="M1454 48h0"></path>
<path d="M1538 48h0"></path>
<rect x="1454" y="37" width="84" height="22"></rect>
<a xlink:href="reuse_FieldSub.svg"><text x="1496" y="52">FieldSub</text>
</a>
</g>
<path d="M1538 48h10"></path>
<path d="M1454 48a10 10 0 0 0 -10 10v0a10 10 0 0 0 10 10"></path>
<g>
<path d="M1454 68h84"></path>
</g>
<path d="M1538 68a10 10 0 0 0 10 -10v0a10 10 0 0 0 -10 -10"></path>
</g>
<path d="M1548 48h20"></path>
</g>
</g>
<path d="M1568 48h20"></path>
</g>
</g>
<path d="M1588 48h10"></path>
<path d="M 1598 48 h 20 m 0 -10 v 20"></path>
</g>
</svg>
