<svg xmlns="http://www.w3.org/2000/svg" xmlns:xlink="http://www.w3.org/1999/xlink" class="railroad-diagram" width="1276" height="208" viewBox="0 0 1276 208">
<defs>
<style type="text/css"><![CDATA[
path {
stroke-width: 3;
stroke: black;
fill: rgba(0,0,0,0);
}
text {
font: bold 14px monospace;
text-anchor: middle;
}
text.diagram-text {
font-size: 12px;
}
a {
fill: blue;
}
text.diagram-arrow {
font-size: 16px;
}
text.label {
text-anchor: start;
}
text.comment {
font: italic 12px monospace;
}
rect {
stroke-width: 3;
stroke: black;
fill: #BCBCBC;
}
path.diagram-text {
stroke-width: 3;
stroke: black;
fill: #BCBCBC;
cursor: help;
}
]]></style>
</defs>
<g transform="translate(.5 .5)">
<path d="M 20 21 v 20 m 0 -10 h 20.5"></path>
<g>
<path d="M40 31h0"></path>
<path d="M1236 31h0"></path>
<path d="M40 31h20"></path>
<g class="non-terminal">
<path d="M60 31h0"></path>
<path d="M160 31h1056"></path>
<rect x="60" y="20" width="100" height="22"></rect>
<a xlink:href="reuse_inlinedata.svg"><text x="110" y="35">InlineData</text>
</a>
</g>
<path d="M1216 31h20"></path>
<path d="M40 31a10 10 0 0 1 10 10v10a10 10 0 0 0 10 10"></path>
<g class="non-terminal">
<path d="M60 61h0"></path>
<path d="M144 61h1072"></path>
<rect x="60" y="50" width="84" height="22"></rect>
<a xlink:href="reuse_inlinefs.svg"><text x="102" y="65">InlineFS</text>
</a>
</g>
<path d="M1216 61a10 10 0 0 0 10 -10v-10a10 10 0 0 1 10 -10"></path>
<path d="M40 31a10 10 0 0 1 10 10v57a10 10 0 0 0 10 10"></path>
<g>
<path d="M60 108h0"></path>
<path d="M1216 108h0"></path>
<g>
<path d="M60 108h0"></path>
<path d="M870 108h0"></path>
<g>
<path d="M60 108h0"></path>
<path d="M208 108h0"></path>
<path d="M60 108h20"></path>
<g class="non-terminal">
<path d="M80 108h0"></path>
<path d="M140 108h48"></path>
<rect x="80" y="97" width="60" height="22"></rect>
<a xlink:href="reuse_field.svg"><text x="110" y="112">Field</text>
</a>
</g>
<path d="M188 108h20"></path>
<path d="M60 108a10 10 0 0 1 10 10v10a10 10 0 0 0 10 10"></path>
<g class="non-terminal">
<path d="M80 138h0"></path>
<path d="M188 138h0"></path>
<rect x="80" y="127" width="108" height="22"></rect>
<a xlink:href="reuse_fieldsymbol.svg"><text x="134" y="142">FieldSymbol</text>
</a>
</g>
<path d="M188 138a10 10 0 0 0 10 -10v-10a10 10 0 0 1 10 -10"></path>
</g>
<g>
<path d="M208 108h0"></path>
<path d="M388 108h0"></path>
<path d="M208 108a10 10 0 0 0 10 -10v0a10 10 0 0 1 10 -10"></path>
<g>
<path d="M228 88h140"></path>
</g>
<path d="M368 88a10 10 0 0 1 10 10v0a10 10 0 0 0 10 10"></path>
<path d="M208 108h20"></path>
<g class="non-terminal">
<path d="M228 108h0"></path>
<path d="M368 108h0"></path>
<rect x="228" y="97" width="140" height="22"></rect>
<a xlink:href="reuse_tableexpression.svg"><text x="298" y="112">TableExpression</text>
</a>
</g>
<path d="M368 108h20"></path>
</g>
<g>
<path d="M388 108h0"></path>
<path d="M870 108h0"></path>
<path d="M388 108a10 10 0 0 0 10 -10v-8a10 10 0 0 1 10 -10"></path>
<g>
<path d="M408 80h442"></path>
</g>
<path d="M850 80a10 10 0 0 1 10 10v8a10 10 0 0 0 10 10"></path>
<path d="M388 108h20"></path>
<g>
<path d="M408 108h0"></path>
<path d="M850 108h0"></path>
<path d="M408 108h10"></path>
<g>
<path d="M418 108h0"></path>
<path d="M840 108h0"></path>
<g class="non-terminal">
<path d="M418 108h0"></path>
<path d="M526 108h0"></path>
<rect x="418" y="97" width="108" height="22"></rect>
<a xlink:href="reuse_arrowordash.svg"><text x="472" y="112">ArrowOrDash</text>
</a>
</g>
<path d="M526 108h10"></path>
<g>
<path d="M536 108h0"></path>
<path d="M660 108h0"></path>
<path d="M536 108h20"></path>
<g class="terminal">
<path d="M556 108h0"></path>
<path d="M600 108h40"></path>
<rect x="556" y="97" width="44" height="22" rx="10" ry="10"></rect>
<text x="578" y="112">"&#42;"</text>
</g>
<path d="M640 108h20"></path>
<path d="M536 108a10 10 0 0 1 10 10v10a10 10 0 0 0 10 10"></path>
<g class="non-terminal">
<path d="M556 138h0"></path>
<path d="M640 138h0"></path>
<rect x="556" y="127" width="84" height="22"></rect>
<a xlink:href="reuse_fieldall.svg"><text x="598" y="142">FieldAll</text>
</a>
</g>
<path d="M640 138a10 10 0 0 0 10 -10v-10a10 10 0 0 1 10 -10"></path>
</g>
<g>
<path d="M660 108h0"></path>
<path d="M840 108h0"></path>
<path d="M660 108a10 10 0 0 0 10 -10v0a10 10 0 0 1 10 -10"></path>
<g>
<path d="M680 88h140"></path>
</g>
<path d="M820 88a10 10 0 0 1 10 10v0a10 10 0 0 0 10 10"></path>
<path d="M660 108h20"></path>
<g class="non-terminal">
<path d="M680 108h0"></path>
<path d="M820 108h0"></path>
<rect x="680" y="97" width="140" height="22"></rect>
<a xlink:href="reuse_tableexpression.svg"><text x="750" y="112">TableExpression</text>
</a>
</g>
<path d="M820 108h20"></path>
</g>
</g>
<path d="M840 108h10"></path>
<path d="M418 108a10 10 0 0 0 -10 10v29a10 10 0 0 0 10 10"></path>
<g>
<path d="M418 157h422"></path>
</g>
<path d="M840 157a10 10 0 0 0 10 -10v-29a10 10 0 0 0 -10 -10"></path>
</g>
<path d="M850 108h20"></path>
</g>
</g>
<path d="M870 108h10"></path>
<g>
<path d="M880 108h0"></path>
<path d="M1216 108h0"></path>
<path d="M880 108h20"></path>
<g class="non-terminal">
<path d="M900 108h0"></path>
<path d="M992 108h204"></path>
<rect x="900" y="97" width="92" height="22"></rect>
<a xlink:href="reuse_tablebody.svg"><text x="946" y="112">TableBody</text>
</a>
</g>
<path d="M1196 108h20"></path>
<path d="M880 108a10 10 0 0 1 10 10v19a10 10 0 0 0 10 10"></path>
<g>
<path d="M900 147h0"></path>
<path d="M1196 147h0"></path>
<g>
<path d="M900 147h0"></path>
<path d="M1048 147h0"></path>
<path d="M900 147a10 10 0 0 0 10 -10v0a10 10 0 0 1 10 -10"></path>
<g>
<path d="M920 127h108"></path>
</g>
<path d="M1028 127a10 10 0 0 1 10 10v0a10 10 0 0 0 10 10"></path>
<path d="M900 147h20"></path>
<g class="non-terminal">
<path d="M920 147h0"></path>
<path d="M1028 147h0"></path>
<rect x="920" y="136" width="108" height="22"></rect>
<a xlink:href="reuse_fieldoffset.svg"><text x="974" y="151">FieldOffset</text>
</a>
</g>
<path d="M1028 147h20"></path>
</g>
<g>
<path d="M1048 147h0"></path>
<path d="M1196 147h0"></path>
<path d="M1048 147a10 10 0 0 0 10 -10v0a10 10 0 0 1 10 -10"></path>
<g>
<path d="M1068 127h108"></path>
</g>
<path d="M1176 127a10 10 0 0 1 10 10v0a10 10 0 0 0 10 10"></path>
<path d="M1048 147h20"></path>
<g class="non-terminal">
<path d="M1068 147h0"></path>
<path d="M1176 147h0"></path>
<rect x="1068" y="136" width="108" height="22"></rect>
<a xlink:href="reuse_fieldlength.svg"><text x="1122" y="151">FieldLength</text>
</a>
</g>
<path d="M1176 147h20"></path>
</g>
</g>
<path d="M1196 147a10 10 0 0 0 10 -10v-19a10 10 0 0 1 10 -10"></path>
<path d="M880 108a10 10 0 0 1 10 10v49a10 10 0 0 0 10 10"></path>
<g>
<path d="M900 177h0"></path>
<path d="M1048 177h148"></path>
<g class="terminal">
<path d="M900 177h0"></path>
<path d="M984 177h0"></path>
<rect x="900" y="166" width="84" height="22" rx="10" ry="10"></rect>
<text x="942" y="181">!"->/=>"</text>
</g>
<path d="M984 177h10"></path>
<path d="M994 177h10"></path>
<g class="terminal">
<path d="M1004 177h0"></path>
<path d="M1048 177h0"></path>
<rect x="1004" y="166" width="44" height="22" rx="10" ry="10"></rect>
<text x="1026" y="181">"&#42;"</text>
</g>
</g>
<path d="M1196 177a10 10 0 0 0 10 -10v-49a10 10 0 0 1 10 -10"></path>
</g>
</g>
<path d="M1216 108a10 10 0 0 0 10 -10v-57a10 10 0 0 1 10 -10"></path>
</g>
<path d="M 1236 31 h 20 m 0 -10 v 20"></path>
</g>
</svg>
