<?xml version="1.0" encoding="UTF-8" standalone="no"?>
<!DOCTYPE svg PUBLIC "-//W3C//DTD SVG 1.1//EN"
 "http://www.w3.org/Graphics/SVG/1.1/DTD/svg11.dtd">
<!-- Generated by graphviz version 2.38.0 (20140413.2041)
 -->
<!-- Title: cond Pages: 1 -->
<svg width="354pt" height="764pt"
 viewBox="0.00 0.00 354.47 764.00" xmlns="http://www.w3.org/2000/svg" xmlns:xlink="http://www.w3.org/1999/xlink">
<g id="graph0" class="graph" transform="scale(1 1) rotate(0) translate(4 760)">
<title>cond</title>
<polygon fill="white" stroke="none" points="-4,4 -4,-760 350.466,-760 350.466,4 -4,4"/>
<!-- start -->
<g id="node1" class="node"><title>start</title>
<polygon fill="none" stroke="blue" points="244,-756 190,-756 190,-720 244,-720 244,-756"/>
<text text-anchor="middle" x="217" y="-733.8" font-family="Times,serif" font-size="14.00">Start</text>
</g>
<!-- node73 -->
<g id="node11" class="node"><title>node73</title>
<g id="a_node11"><a xlink:href="reuse_compare.svg" xlink:title="&lt;u&gt;compare&lt;/u&gt;">
<ellipse fill="none" stroke="black" cx="255" cy="-450" rx="44.0622" ry="18"/>
<text text-anchor="start" x="230.903" y="-446.8" font-family="Times,serif" text-decoration="underline" font-size="14.00" fill="blue">compare</text>
</a>
</g>
</g>
<!-- start&#45;&gt;node73 -->
<g id="edge24" class="edge"><title>start&#45;&gt;node73</title>
<path fill="none" stroke="black" d="M219.263,-719.966C225.611,-672.192 243.624,-536.623 251.377,-478.266"/>
<polygon fill="black" stroke="black" points="254.853,-478.68 252.701,-468.306 247.914,-477.758 254.853,-478.68"/>
</g>
<!-- node76 -->
<g id="node14" class="node"><title>node76</title>
<ellipse fill="none" stroke="black" cx="166" cy="-594" rx="27" ry="18"/>
<text text-anchor="middle" x="166" y="-589.8" font-family="Times,serif" font-size="14.00">&quot;(&quot;</text>
</g>
<!-- start&#45;&gt;node76 -->
<g id="edge26" class="edge"><title>start&#45;&gt;node76</title>
<path fill="none" stroke="black" d="M215.051,-719.778C212.587,-701.481 207.475,-671.947 198,-648 194.067,-638.06 188.361,-627.844 182.852,-619.067"/>
<polygon fill="black" stroke="black" points="185.664,-616.972 177.265,-610.513 179.803,-620.8 185.664,-616.972"/>
</g>
<!-- node77 -->
<g id="node15" class="node"><title>node77</title>
<ellipse fill="none" stroke="black" cx="150" cy="-666" rx="38.5151" ry="18"/>
<text text-anchor="middle" x="150" y="-661.8" font-family="Times,serif" font-size="14.00">&quot;NOT&quot;</text>
</g>
<!-- start&#45;&gt;node77 -->
<g id="edge25" class="edge"><title>start&#45;&gt;node77</title>
<path fill="none" stroke="black" d="M200.438,-719.697C191.877,-710.752 181.312,-699.714 172.067,-690.055"/>
<polygon fill="black" stroke="black" points="174.443,-687.475 165,-682.671 169.386,-692.316 174.443,-687.475"/>
</g>
<!-- end -->
<g id="node2" class="node"><title>end</title>
<polygon fill="none" stroke="blue" points="54,-324 0,-324 0,-288 54,-288 54,-324"/>
<text text-anchor="middle" x="27" y="-301.8" font-family="Times,serif" font-size="14.00">End</text>
</g>
<!-- node65 -->
<g id="node3" class="node"><title>node65</title>
<ellipse fill="none" stroke="black" cx="121" cy="-378" rx="42.879" ry="18"/>
<text text-anchor="middle" x="121" y="-373.8" font-family="Times,serif" font-size="14.00">Dummy</text>
</g>
<!-- node65&#45;&gt;end -->
<g id="edge14" class="edge"><title>node65&#45;&gt;end</title>
<path fill="none" stroke="black" d="M100.603,-361.811C88.2618,-352.621 72.2712,-340.713 58.3489,-330.345"/>
<polygon fill="black" stroke="black" points="60.1096,-327.292 49.9987,-324.127 55.9288,-332.907 60.1096,-327.292"/>
</g>
<!-- node71 -->
<g id="node9" class="node"><title>node71</title>
<ellipse fill="none" stroke="black" cx="287" cy="-306" rx="39.6581" ry="18"/>
<text text-anchor="middle" x="287" y="-301.8" font-family="Times,serif" font-size="14.00">&quot;AND&quot;</text>
</g>
<!-- node65&#45;&gt;node71 -->
<g id="edge12" class="edge"><title>node65&#45;&gt;node71</title>
<path fill="none" stroke="black" d="M150.295,-364.647C177.927,-352.995 219.476,-335.474 249.512,-322.808"/>
<polygon fill="black" stroke="black" points="250.974,-325.99 258.828,-318.88 248.254,-319.54 250.974,-325.99"/>
</g>
<!-- node72 -->
<g id="node10" class="node"><title>node72</title>
<ellipse fill="none" stroke="black" cx="192" cy="-306" rx="32.1533" ry="18"/>
<text text-anchor="middle" x="192" y="-301.8" font-family="Times,serif" font-size="14.00">&quot;OR&quot;</text>
</g>
<!-- node65&#45;&gt;node72 -->
<g id="edge13" class="edge"><title>node65&#45;&gt;node72</title>
<path fill="none" stroke="black" d="M137.111,-361.116C146.593,-351.768 158.737,-339.795 169.19,-329.489"/>
<polygon fill="black" stroke="black" points="171.777,-331.853 176.441,-322.34 166.862,-326.869 171.777,-331.853"/>
</g>
<!-- node66 -->
<g id="node4" class="node"><title>node66</title>
<g id="a_node4"><a xlink:href="reuse_compare.svg" xlink:title="&lt;u&gt;compare&lt;/u&gt;">
<ellipse fill="none" stroke="black" cx="192" cy="-234" rx="44.0622" ry="18"/>
<text text-anchor="start" x="167.903" y="-230.8" font-family="Times,serif" text-decoration="underline" font-size="14.00" fill="blue">compare</text>
</a>
</g>
</g>
<!-- node66&#45;&gt;node65 -->
<g id="edge1" class="edge"><title>node66&#45;&gt;node65</title>
<path fill="none" stroke="black" d="M177.17,-251.191C168.602,-261.21 158.141,-274.669 151,-288 140.395,-307.797 132.518,-332.054 127.502,-350.242"/>
<polygon fill="black" stroke="black" points="124.118,-349.349 124.946,-359.912 130.886,-351.138 124.118,-349.349"/>
</g>
<!-- node67 -->
<g id="node5" class="node"><title>node67</title>
<ellipse fill="none" stroke="black" cx="130" cy="-18" rx="27" ry="18"/>
<text text-anchor="middle" x="130" y="-13.8" font-family="Times,serif" font-size="14.00">&quot;)&quot;</text>
</g>
<!-- node67&#45;&gt;node65 -->
<g id="edge2" class="edge"><title>node67&#45;&gt;node65</title>
<path fill="none" stroke="black" d="M120.745,-35.0163C106.797,-60.7086 82,-113.117 82,-161 82,-235 82,-235 82,-235 82,-276.44 97.6357,-322.332 109.107,-350.425"/>
<polygon fill="black" stroke="black" points="106.002,-352.069 113.108,-359.928 112.453,-349.353 106.002,-352.069"/>
</g>
<!-- node68 -->
<g id="node6" class="node"><title>node68</title>
<g id="a_node6"><a xlink:href="reuse_cond.svg" xlink:title="&lt;u&gt;cond&lt;/u&gt;">
<ellipse fill="none" stroke="black" cx="178" cy="-90" rx="29.6185" ry="18"/>
<text text-anchor="start" x="164.393" y="-86.8" font-family="Times,serif" text-decoration="underline" font-size="14.00" fill="blue">cond</text>
</a>
</g>
</g>
<!-- node68&#45;&gt;node67 -->
<g id="edge3" class="edge"><title>node68&#45;&gt;node67</title>
<path fill="none" stroke="black" d="M167.108,-73.1159C161.032,-64.2555 153.34,-53.0373 146.536,-43.1152"/>
<polygon fill="black" stroke="black" points="149.391,-41.0892 140.849,-34.8212 143.618,-45.0479 149.391,-41.0892"/>
</g>
<!-- node69 -->
<g id="node7" class="node"><title>node69</title>
<ellipse fill="none" stroke="black" cx="254" cy="-162" rx="27" ry="18"/>
<text text-anchor="middle" x="254" y="-157.8" font-family="Times,serif" font-size="14.00">&quot;(&quot;</text>
</g>
<!-- node69&#45;&gt;node68 -->
<g id="edge4" class="edge"><title>node69&#45;&gt;node68</title>
<path fill="none" stroke="black" d="M238.62,-146.834C227.875,-136.938 213.336,-123.546 201.19,-112.359"/>
<polygon fill="black" stroke="black" points="203.344,-109.585 193.618,-105.385 198.602,-114.734 203.344,-109.585"/>
</g>
<!-- node70 -->
<g id="node8" class="node"><title>node70</title>
<ellipse fill="none" stroke="black" cx="293" cy="-234" rx="38.5151" ry="18"/>
<text text-anchor="middle" x="293" y="-229.8" font-family="Times,serif" font-size="14.00">&quot;NOT&quot;</text>
</g>
<!-- node70&#45;&gt;node69 -->
<g id="edge5" class="edge"><title>node70&#45;&gt;node69</title>
<path fill="none" stroke="black" d="M283.758,-216.411C279.095,-208.042 273.338,-197.71 268.135,-188.37"/>
<polygon fill="black" stroke="black" points="271.101,-186.502 263.176,-179.47 264.986,-189.909 271.101,-186.502"/>
</g>
<!-- node71&#45;&gt;node66 -->
<g id="edge6" class="edge"><title>node71&#45;&gt;node66</title>
<path fill="none" stroke="black" d="M266.853,-290.155C253.467,-280.292 235.685,-267.189 220.812,-256.23"/>
<polygon fill="black" stroke="black" points="222.572,-253.179 212.446,-250.065 218.42,-258.815 222.572,-253.179"/>
</g>
<!-- node71&#45;&gt;node69 -->
<g id="edge8" class="edge"><title>node71&#45;&gt;node69</title>
<path fill="none" stroke="black" d="M308.288,-290.781C320.356,-281.374 334.34,-267.867 341,-252 347.192,-237.247 348.836,-229.95 341,-216 329.588,-195.686 306.882,-182.243 287.527,-173.98"/>
<polygon fill="black" stroke="black" points="288.661,-170.665 278.075,-170.227 286.078,-177.171 288.661,-170.665"/>
</g>
<!-- node71&#45;&gt;node70 -->
<g id="edge7" class="edge"><title>node71&#45;&gt;node70</title>
<path fill="none" stroke="black" d="M288.483,-287.697C289.144,-279.983 289.939,-270.712 290.676,-262.112"/>
<polygon fill="black" stroke="black" points="294.167,-262.367 291.534,-252.104 287.193,-261.769 294.167,-262.367"/>
</g>
<!-- node72&#45;&gt;node66 -->
<g id="edge9" class="edge"><title>node72&#45;&gt;node66</title>
<path fill="none" stroke="black" d="M192,-287.697C192,-279.983 192,-270.712 192,-262.112"/>
<polygon fill="black" stroke="black" points="195.5,-262.104 192,-252.104 188.5,-262.104 195.5,-262.104"/>
</g>
<!-- node72&#45;&gt;node69 -->
<g id="edge11" class="edge"><title>node72&#45;&gt;node69</title>
<path fill="none" stroke="black" d="M172.177,-291.549C160.094,-282.081 145.723,-268.23 139,-252 132.877,-237.218 130.373,-229.475 139,-216 156.237,-189.076 191,-175.638 217.815,-169.053"/>
<polygon fill="black" stroke="black" points="218.656,-172.451 227.65,-166.851 217.127,-165.62 218.656,-172.451"/>
</g>
<!-- node72&#45;&gt;node70 -->
<g id="edge10" class="edge"><title>node72&#45;&gt;node70</title>
<path fill="none" stroke="black" d="M211.474,-291.503C226.313,-281.218 246.989,-266.889 263.805,-255.234"/>
<polygon fill="black" stroke="black" points="265.97,-257.992 272.195,-249.419 261.982,-252.239 265.97,-257.992"/>
</g>
<!-- node73&#45;&gt;node65 -->
<g id="edge17" class="edge"><title>node73&#45;&gt;node65</title>
<path fill="none" stroke="black" d="M228.845,-435.337C208.093,-424.497 178.888,-409.24 156.102,-397.337"/>
<polygon fill="black" stroke="black" points="157.573,-394.156 147.089,-392.628 154.332,-400.361 157.573,-394.156"/>
</g>
<!-- node73&#45;&gt;node71 -->
<g id="edge15" class="edge"><title>node73&#45;&gt;node71</title>
<path fill="none" stroke="black" d="M265.917,-432.071C271.805,-422.011 278.555,-408.761 282,-396 287.47,-375.737 288.547,-351.965 288.351,-334.089"/>
<polygon fill="black" stroke="black" points="291.849,-333.971 288.103,-324.061 284.852,-334.145 291.849,-333.971"/>
</g>
<!-- node73&#45;&gt;node72 -->
<g id="edge16" class="edge"><title>node73&#45;&gt;node72</title>
<path fill="none" stroke="black" d="M247.526,-432.153C236.68,-407.706 216.477,-362.171 203.662,-333.286"/>
<polygon fill="black" stroke="black" points="206.719,-331.546 199.465,-323.825 200.321,-334.385 206.719,-331.546"/>
</g>
<!-- node74 -->
<g id="node12" class="node"><title>node74</title>
<ellipse fill="none" stroke="black" cx="166" cy="-450" rx="27" ry="18"/>
<text text-anchor="middle" x="166" y="-445.8" font-family="Times,serif" font-size="14.00">&quot;)&quot;</text>
</g>
<!-- node74&#45;&gt;node65 -->
<g id="edge20" class="edge"><title>node74&#45;&gt;node65</title>
<path fill="none" stroke="black" d="M155.789,-433.116C150.309,-424.592 143.427,-413.886 137.233,-404.251"/>
<polygon fill="black" stroke="black" points="140.15,-402.316 131.798,-395.797 134.262,-406.102 140.15,-402.316"/>
</g>
<!-- node74&#45;&gt;node71 -->
<g id="edge18" class="edge"><title>node74&#45;&gt;node71</title>
<path fill="none" stroke="black" d="M178.72,-434.072C199.685,-409.469 241.665,-360.203 266.749,-330.765"/>
<polygon fill="black" stroke="black" points="269.523,-332.907 273.345,-323.025 264.195,-328.366 269.523,-332.907"/>
</g>
<!-- node74&#45;&gt;node72 -->
<g id="edge19" class="edge"><title>node74&#45;&gt;node72</title>
<path fill="none" stroke="black" d="M169.136,-431.871C173.567,-407.67 181.708,-363.211 186.984,-334.393"/>
<polygon fill="black" stroke="black" points="190.494,-334.656 188.853,-324.189 183.609,-333.395 190.494,-334.656"/>
</g>
<!-- node75 -->
<g id="node13" class="node"><title>node75</title>
<g id="a_node13"><a xlink:href="reuse_cond.svg" xlink:title="&lt;u&gt;cond&lt;/u&gt;">
<ellipse fill="none" stroke="black" cx="166" cy="-522" rx="29.6185" ry="18"/>
<text text-anchor="start" x="152.393" y="-518.8" font-family="Times,serif" text-decoration="underline" font-size="14.00" fill="blue">cond</text>
</a>
</g>
</g>
<!-- node75&#45;&gt;node74 -->
<g id="edge21" class="edge"><title>node75&#45;&gt;node74</title>
<path fill="none" stroke="black" d="M166,-503.697C166,-495.983 166,-486.712 166,-478.112"/>
<polygon fill="black" stroke="black" points="169.5,-478.104 166,-468.104 162.5,-478.104 169.5,-478.104"/>
</g>
<!-- node76&#45;&gt;node75 -->
<g id="edge22" class="edge"><title>node76&#45;&gt;node75</title>
<path fill="none" stroke="black" d="M166,-575.697C166,-567.983 166,-558.712 166,-550.112"/>
<polygon fill="black" stroke="black" points="169.5,-550.104 166,-540.104 162.5,-550.104 169.5,-550.104"/>
</g>
<!-- node77&#45;&gt;node76 -->
<g id="edge23" class="edge"><title>node77&#45;&gt;node76</title>
<path fill="none" stroke="black" d="M153.873,-648.055C155.655,-640.261 157.812,-630.822 159.811,-622.079"/>
<polygon fill="black" stroke="black" points="163.235,-622.804 162.051,-612.275 156.411,-621.244 163.235,-622.804"/>
</g>
</g>
</svg>
