<svg xmlns="http://www.w3.org/2000/svg" xmlns:xlink="http://www.w3.org/1999/xlink" class="railroad-diagram" width="1478" height="79" viewBox="0 0 1478 79">
<defs>
<style type="text/css"><![CDATA[
path {
stroke-width: 3;
stroke: black;
fill: rgba(0,0,0,0);
}
text {
font: bold 14px monospace;
text-anchor: middle;
}
text.diagram-text {
font-size: 12px;
}
a {
fill: blue;
}
text.diagram-arrow {
font-size: 16px;
}
text.label {
text-anchor: start;
}
text.comment {
font: italic 12px monospace;
}
rect {
stroke-width: 3;
stroke: black;
fill: #BCBCBC;
}
path.diagram-text {
stroke-width: 3;
stroke: black;
fill: #BCBCBC;
cursor: help;
}
]]></style>
</defs>
<g transform="translate(.5 .5)">
<path d="M 20 38 v 20 m 0 -10 h 20.5"></path>
<path d="M40 48h10"></path>
<g>
<path d="M50 48h0"></path>
<path d="M1428 48h0"></path>
<g>
<path d="M50 48h0"></path>
<path d="M350 48h0"></path>
<path d="M50 48a10 10 0 0 0 10 -10v0a10 10 0 0 1 10 -10"></path>
<g>
<path d="M70 28h260"></path>
</g>
<path d="M330 28a10 10 0 0 1 10 10v0a10 10 0 0 0 10 10"></path>
<path d="M50 48h20"></path>
<g>
<path d="M70 48h0"></path>
<path d="M330 48h0"></path>
<g class="terminal">
<path d="M70 48h0"></path>
<path d="M178 48h0"></path>
<rect x="70" y="37" width="108" height="22" rx="10" ry="10"></rect>
<text x="124" y="52">"IMPORTING"</text>
</g>
<path d="M178 48h10"></path>
<path d="M188 48h10"></path>
<g class="non-terminal">
<path d="M198 48h0"></path>
<path d="M330 48h0"></path>
<rect x="198" y="37" width="132" height="22"></rect>
<a xlink:href="reuse_parameterlistt.svg"><text x="264" y="52">ParameterListT</text>
</a>
</g>
</g>
<path d="M330 48h20"></path>
</g>
<g>
<path d="M350 48h0"></path>
<path d="M642 48h0"></path>
<path d="M350 48a10 10 0 0 0 10 -10v0a10 10 0 0 1 10 -10"></path>
<g>
<path d="M370 28h252"></path>
</g>
<path d="M622 28a10 10 0 0 1 10 10v0a10 10 0 0 0 10 10"></path>
<path d="M350 48h20"></path>
<g>
<path d="M370 48h0"></path>
<path d="M622 48h0"></path>
<g class="terminal">
<path d="M370 48h0"></path>
<path d="M470 48h0"></path>
<rect x="370" y="37" width="100" height="22" rx="10" ry="10"></rect>
<text x="420" y="52">"CHANGING"</text>
</g>
<path d="M470 48h10"></path>
<path d="M480 48h10"></path>
<g class="non-terminal">
<path d="M490 48h0"></path>
<path d="M622 48h0"></path>
<rect x="490" y="37" width="132" height="22"></rect>
<a xlink:href="reuse_parameterlistt.svg"><text x="556" y="52">ParameterListT</text>
</a>
</g>
</g>
<path d="M622 48h20"></path>
</g>
<g>
<path d="M642 48h0"></path>
<path d="M918 48h0"></path>
<path d="M642 48a10 10 0 0 0 10 -10v0a10 10 0 0 1 10 -10"></path>
<g>
<path d="M662 28h236"></path>
</g>
<path d="M898 28a10 10 0 0 1 10 10v0a10 10 0 0 0 10 10"></path>
<path d="M642 48h20"></path>
<g>
<path d="M662 48h0"></path>
<path d="M898 48h0"></path>
<g class="terminal">
<path d="M662 48h0"></path>
<path d="M746 48h0"></path>
<rect x="662" y="37" width="84" height="22" rx="10" ry="10"></rect>
<text x="704" y="52">"TABLES"</text>
</g>
<path d="M746 48h10"></path>
<path d="M756 48h10"></path>
<g class="non-terminal">
<path d="M766 48h0"></path>
<path d="M898 48h0"></path>
<rect x="766" y="37" width="132" height="22"></rect>
<a xlink:href="reuse_parameterlistt.svg"><text x="832" y="52">ParameterListT</text>
</a>
</g>
</g>
<path d="M898 48h20"></path>
</g>
<g>
<path d="M918 48h0"></path>
<path d="M1428 48h0"></path>
<path d="M918 48a10 10 0 0 0 10 -10v-8a10 10 0 0 1 10 -10"></path>
<g>
<path d="M938 20h470"></path>
</g>
<path d="M1408 20a10 10 0 0 1 10 10v8a10 10 0 0 0 10 10"></path>
<path d="M918 48h20"></path>
<g>
<path d="M938 48h0"></path>
<path d="M1408 48h0"></path>
<g class="terminal">
<path d="M938 48h0"></path>
<path d="M1054 48h0"></path>
<rect x="938" y="37" width="116" height="22" rx="10" ry="10"></rect>
<text x="996" y="52">"EXCEPTIONS"</text>
</g>
<path d="M1054 48h10"></path>
<g>
<path d="M1064 48h0"></path>
<path d="M1308 48h0"></path>
<path d="M1064 48a10 10 0 0 0 10 -10v0a10 10 0 0 1 10 -10"></path>
<g>
<path d="M1084 28h204"></path>
</g>
<path d="M1288 28a10 10 0 0 1 10 10v0a10 10 0 0 0 10 10"></path>
<path d="M1064 48h20"></path>
<g class="non-terminal">
<path d="M1084 48h0"></path>
<path d="M1288 48h0"></path>
<rect x="1084" y="37" width="204" height="22"></rect>
<a xlink:href="reuse_parameterlistexceptions.svg"><text x="1186" y="52">ParameterListExceptions</text>
</a>
</g>
<path d="M1288 48h20"></path>
</g>
<g>
<path d="M1308 48h0"></path>
<path d="M1408 48h0"></path>
<path d="M1308 48a10 10 0 0 0 10 -10v0a10 10 0 0 1 10 -10"></path>
<g>
<path d="M1328 28h60"></path>
</g>
<path d="M1388 28a10 10 0 0 1 10 10v0a10 10 0 0 0 10 10"></path>
<path d="M1308 48h20"></path>
<g class="non-terminal">
<path d="M1328 48h0"></path>
<path d="M1388 48h0"></path>
<rect x="1328" y="37" width="60" height="22"></rect>
<a xlink:href="reuse_field.svg"><text x="1358" y="52">Field</text>
</a>
</g>
<path d="M1388 48h20"></path>
</g>
</g>
<path d="M1408 48h20"></path>
</g>
</g>
<path d="M1428 48h10"></path>
<path d="M 1438 48 h 20 m 0 -10 v 20"></path>
</g>
</svg>
