<svg xmlns="http://www.w3.org/2000/svg" xmlns:xlink="http://www.w3.org/1999/xlink" class="railroad-diagram" width="1640" height="71" viewBox="0 0 1640 71">
<defs>
<style type="text/css"><![CDATA[
path {
stroke-width: 3;
stroke: black;
fill: rgba(0,0,0,0);
}
text {
font: bold 14px monospace;
text-anchor: middle;
}
text.diagram-text {
font-size: 12px;
}
a {
fill: blue;
}
text.diagram-arrow {
font-size: 16px;
}
text.label {
text-anchor: start;
}
text.comment {
font: italic 12px monospace;
}
rect {
stroke-width: 3;
stroke: black;
fill: #BCBCBC;
}
path.diagram-text {
stroke-width: 3;
stroke: black;
fill: #BCBCBC;
cursor: help;
}
]]></style>
</defs>
<g transform="translate(.5 .5)">
<path d="M 20 30 v 20 m 0 -10 h 20.5"></path>
<path d="M40 40h10"></path>
<g>
<path d="M50 40h0"></path>
<path d="M1590 40h0"></path>
<g>
<path d="M50 40h0"></path>
<path d="M350 40h0"></path>
<path d="M50 40a10 10 0 0 0 10 -10v0a10 10 0 0 1 10 -10"></path>
<g>
<path d="M70 20h260"></path>
</g>
<path d="M330 20a10 10 0 0 1 10 10v0a10 10 0 0 0 10 10"></path>
<path d="M50 40h20"></path>
<g>
<path d="M70 40h0"></path>
<path d="M330 40h0"></path>
<g class="terminal">
<path d="M70 40h0"></path>
<path d="M178 40h0"></path>
<rect x="70" y="29" width="108" height="22" rx="10" ry="10"></rect>
<text x="124" y="44">"EXPORTING"</text>
</g>
<path d="M178 40h10"></path>
<path d="M188 40h10"></path>
<g class="non-terminal">
<path d="M198 40h0"></path>
<path d="M330 40h0"></path>
<rect x="198" y="29" width="132" height="22"></rect>
<a xlink:href="reuse_parameterlists.svg"><text x="264" y="44">ParameterListS</text>
</a>
</g>
</g>
<path d="M330 40h20"></path>
</g>
<g>
<path d="M350 40h0"></path>
<path d="M650 40h0"></path>
<path d="M350 40a10 10 0 0 0 10 -10v0a10 10 0 0 1 10 -10"></path>
<g>
<path d="M370 20h260"></path>
</g>
<path d="M630 20a10 10 0 0 1 10 10v0a10 10 0 0 0 10 10"></path>
<path d="M350 40h20"></path>
<g>
<path d="M370 40h0"></path>
<path d="M630 40h0"></path>
<g class="terminal">
<path d="M370 40h0"></path>
<path d="M478 40h0"></path>
<rect x="370" y="29" width="108" height="22" rx="10" ry="10"></rect>
<text x="424" y="44">"IMPORTING"</text>
</g>
<path d="M478 40h10"></path>
<path d="M488 40h10"></path>
<g class="non-terminal">
<path d="M498 40h0"></path>
<path d="M630 40h0"></path>
<rect x="498" y="29" width="132" height="22"></rect>
<a xlink:href="reuse_parameterlistt.svg"><text x="564" y="44">ParameterListT</text>
</a>
</g>
</g>
<path d="M630 40h20"></path>
</g>
<g>
<path d="M650 40h0"></path>
<path d="M942 40h0"></path>
<path d="M650 40a10 10 0 0 0 10 -10v0a10 10 0 0 1 10 -10"></path>
<g>
<path d="M670 20h252"></path>
</g>
<path d="M922 20a10 10 0 0 1 10 10v0a10 10 0 0 0 10 10"></path>
<path d="M650 40h20"></path>
<g>
<path d="M670 40h0"></path>
<path d="M922 40h0"></path>
<g class="terminal">
<path d="M670 40h0"></path>
<path d="M770 40h0"></path>
<rect x="670" y="29" width="100" height="22" rx="10" ry="10"></rect>
<text x="720" y="44">"CHANGING"</text>
</g>
<path d="M770 40h10"></path>
<path d="M780 40h10"></path>
<g class="non-terminal">
<path d="M790 40h0"></path>
<path d="M922 40h0"></path>
<rect x="790" y="29" width="132" height="22"></rect>
<a xlink:href="reuse_parameterlistt.svg"><text x="856" y="44">ParameterListT</text>
</a>
</g>
</g>
<path d="M922 40h20"></path>
</g>
<g>
<path d="M942 40h0"></path>
<path d="M1210 40h0"></path>
<path d="M942 40a10 10 0 0 0 10 -10v0a10 10 0 0 1 10 -10"></path>
<g>
<path d="M962 20h228"></path>
</g>
<path d="M1190 20a10 10 0 0 1 10 10v0a10 10 0 0 0 10 10"></path>
<path d="M942 40h20"></path>
<g>
<path d="M962 40h0"></path>
<path d="M1190 40h0"></path>
<g class="terminal">
<path d="M962 40h0"></path>
<path d="M1070 40h0"></path>
<rect x="962" y="29" width="108" height="22" rx="10" ry="10"></rect>
<text x="1016" y="44">"RECEIVING"</text>
</g>
<path d="M1070 40h10"></path>
<path d="M1080 40h10"></path>
<g class="non-terminal">
<path d="M1090 40h0"></path>
<path d="M1190 40h0"></path>
<rect x="1090" y="29" width="100" height="22"></rect>
<a xlink:href="reuse_parametert.svg"><text x="1140" y="44">ParameterT</text>
</a>
</g>
</g>
<path d="M1190 40h20"></path>
</g>
<g>
<path d="M1210 40h0"></path>
<path d="M1590 40h0"></path>
<path d="M1210 40a10 10 0 0 0 10 -10v0a10 10 0 0 1 10 -10"></path>
<g>
<path d="M1230 20h340"></path>
</g>
<path d="M1570 20a10 10 0 0 1 10 10v0a10 10 0 0 0 10 10"></path>
<path d="M1210 40h20"></path>
<g>
<path d="M1230 40h0"></path>
<path d="M1570 40h0"></path>
<g class="terminal">
<path d="M1230 40h0"></path>
<path d="M1346 40h0"></path>
<rect x="1230" y="29" width="116" height="22" rx="10" ry="10"></rect>
<text x="1288" y="44">"EXCEPTIONS"</text>
</g>
<path d="M1346 40h10"></path>
<path d="M1356 40h10"></path>
<g class="non-terminal">
<path d="M1366 40h0"></path>
<path d="M1570 40h0"></path>
<rect x="1366" y="29" width="204" height="22"></rect>
<a xlink:href="reuse_parameterlistexceptions.svg"><text x="1468" y="44">ParameterListExceptions</text>
</a>
</g>
</g>
<path d="M1570 40h20"></path>
</g>
</g>
<path d="M1590 40h10"></path>
<path d="M 1600 40 h 20 m 0 -10 v 20"></path>
</g>
</svg>
