<?xml version="1.0" encoding="UTF-8" standalone="no"?>
<!DOCTYPE svg PUBLIC "-//W3C//DTD SVG 1.1//EN"
 "http://www.w3.org/Graphics/SVG/1.1/DTD/svg11.dtd">
<!-- Generated by graphviz version 2.38.0 (20140413.2041)
 -->
<!-- Title: parameter_exception Pages: 1 -->
<svg width="84pt" height="332pt"
 viewBox="0.00 0.00 83.70 332.00" xmlns="http://www.w3.org/2000/svg" xmlns:xlink="http://www.w3.org/1999/xlink">
<g id="graph0" class="graph" transform="scale(1 1) rotate(0) translate(4 328)">
<title>parameter_exception</title>
<polygon fill="white" stroke="none" points="-4,4 -4,-328 79.698,-328 79.698,4 -4,4"/>
<!-- start -->
<g id="node1" class="node"><title>start</title>
<polygon fill="none" stroke="blue" points="64.849,-324 10.849,-324 10.849,-288 64.849,-288 64.849,-324"/>
<text text-anchor="middle" x="37.849" y="-301.8" font-family="Times,serif" font-size="14.00">Start</text>
</g>
<!-- node37 -->
<g id="node5" class="node"><title>node37</title>
<g id="a_node5"><a xlink:href="reuse_field.svg" xlink:title="&lt;u&gt;field&lt;/u&gt;">
<ellipse fill="none" stroke="black" cx="37.849" cy="-234" rx="28.9696" ry="18"/>
<text text-anchor="start" x="25.0208" y="-230.8" font-family="Times,serif" text-decoration="underline" font-size="14.00" fill="blue">field</text>
</a>
</g>
</g>
<!-- start&#45;&gt;node37 -->
<g id="edge4" class="edge"><title>start&#45;&gt;node37</title>
<path fill="none" stroke="black" d="M37.849,-287.697C37.849,-279.983 37.849,-270.712 37.849,-262.112"/>
<polygon fill="black" stroke="black" points="41.3491,-262.104 37.849,-252.104 34.3491,-262.104 41.3491,-262.104"/>
</g>
<!-- end -->
<g id="node2" class="node"><title>end</title>
<polygon fill="none" stroke="blue" points="64.849,-36 10.849,-36 10.849,-0 64.849,-0 64.849,-36"/>
<text text-anchor="middle" x="37.849" y="-13.8" font-family="Times,serif" font-size="14.00">End</text>
</g>
<!-- node35 -->
<g id="node3" class="node"><title>node35</title>
<g id="a_node3"><a xlink:href="reuse_integer.svg" xlink:title="&lt;u&gt;integer&lt;/u&gt;">
<ellipse fill="none" stroke="black" cx="37.849" cy="-90" rx="37.6986" ry="18"/>
<text text-anchor="start" x="18.4135" y="-86.8" font-family="Times,serif" text-decoration="underline" font-size="14.00" fill="blue">integer</text>
</a>
</g>
</g>
<!-- node35&#45;&gt;end -->
<g id="edge1" class="edge"><title>node35&#45;&gt;end</title>
<path fill="none" stroke="black" d="M37.849,-71.6966C37.849,-63.9827 37.849,-54.7125 37.849,-46.1124"/>
<polygon fill="black" stroke="black" points="41.3491,-46.1043 37.849,-36.1043 34.3491,-46.1044 41.3491,-46.1043"/>
</g>
<!-- node36 -->
<g id="node4" class="node"><title>node36</title>
<ellipse fill="none" stroke="black" cx="37.849" cy="-162" rx="27" ry="18"/>
<text text-anchor="middle" x="37.849" y="-157.8" font-family="Times,serif" font-size="14.00">&quot;=&quot;</text>
</g>
<!-- node36&#45;&gt;node35 -->
<g id="edge2" class="edge"><title>node36&#45;&gt;node35</title>
<path fill="none" stroke="black" d="M37.849,-143.697C37.849,-135.983 37.849,-126.712 37.849,-118.112"/>
<polygon fill="black" stroke="black" points="41.3491,-118.104 37.849,-108.104 34.3491,-118.104 41.3491,-118.104"/>
</g>
<!-- node37&#45;&gt;node36 -->
<g id="edge3" class="edge"><title>node37&#45;&gt;node36</title>
<path fill="none" stroke="black" d="M37.849,-215.697C37.849,-207.983 37.849,-198.712 37.849,-190.112"/>
<polygon fill="black" stroke="black" points="41.3491,-190.104 37.849,-180.104 34.3491,-190.104 41.3491,-190.104"/>
</g>
</g>
</svg>
