<svg xmlns="http://www.w3.org/2000/svg" xmlns:xlink="http://www.w3.org/1999/xlink" class="railroad-diagram" width="2124" height="268" viewBox="0 0 2124 268">
<defs>
<style type="text/css"><![CDATA[
path {
stroke-width: 3;
stroke: black;
fill: rgba(0,0,0,0);
}
text {
font: bold 14px monospace;
text-anchor: middle;
}
text.diagram-text {
font-size: 12px;
}
a {
fill: blue;
}
text.diagram-arrow {
font-size: 16px;
}
text.label {
text-anchor: start;
}
text.comment {
font: italic 12px monospace;
}
rect {
stroke-width: 3;
stroke: black;
fill: #BCBCBC;
}
path.diagram-text {
stroke-width: 3;
stroke: black;
fill: #BCBCBC;
cursor: help;
}
]]></style>
</defs>
<g transform="translate(.5 .5)">
<path d="M 20 30 v 20 m 0 -10 h 20.5"></path>
<path d="M40 40h10"></path>
<g>
<path d="M50 40h0"></path>
<path d="M2074 40h0"></path>
<g>
<path d="M50 40h0"></path>
<path d="M158 40h0"></path>
<path d="M50 40h20"></path>
<g class="terminal">
<path d="M70 40h0"></path>
<path d="M138 40h0"></path>
<rect x="70" y="29" width="68" height="22" rx="10" ry="10"></rect>
<text x="104" y="44">"LIKE"</text>
</g>
<path d="M138 40h20"></path>
<path d="M50 40a10 10 0 0 1 10 10v10a10 10 0 0 0 10 10"></path>
<g class="terminal">
<path d="M70 70h0"></path>
<path d="M138 70h0"></path>
<rect x="70" y="59" width="68" height="22" rx="10" ry="10"></rect>
<text x="104" y="74">"TYPE"</text>
</g>
<path d="M138 70a10 10 0 0 0 10 -10v-10a10 10 0 0 1 10 -10"></path>
</g>
<g>
<path d="M158 40h0"></path>
<path d="M2074 40h0"></path>
<path d="M158 40h20"></path>
<g>
<path d="M178 40h0"></path>
<path d="M706 40h1348"></path>
<g class="non-terminal">
<path d="M178 40h0"></path>
<path d="M262 40h0"></path>
<rect x="178" y="29" width="84" height="22"></rect>
<a xlink:href="reuse_typename.svg"><text x="220" y="44">TypeName</text>
</a>
</g>
<path d="M262 40h10"></path>
<g>
<path d="M272 40h0"></path>
<path d="M706 40h0"></path>
<path d="M272 40h20"></path>
<g>
<path d="M292 40h0"></path>
<path d="M686 40h0"></path>
<g>
<path d="M292 40h0"></path>
<path d="M472 40h0"></path>
<g class="terminal">
<path d="M292 40h0"></path>
<path d="M376 40h0"></path>
<rect x="292" y="29" width="84" height="22" rx="10" ry="10"></rect>
<text x="334" y="44">"OCCURS"</text>
</g>
<path d="M376 40h10"></path>
<path d="M386 40h10"></path>
<g class="non-terminal">
<path d="M396 40h0"></path>
<path d="M472 40h0"></path>
<rect x="396" y="29" width="76" height="22"></rect>
<a xlink:href="reuse_integer.svg"><text x="434" y="44">Integer</text>
</a>
</g>
</g>
<path d="M472 40h10"></path>
<g>
<path d="M482 40h0"></path>
<path d="M686 40h0"></path>
<path d="M482 40a10 10 0 0 0 10 -10v0a10 10 0 0 1 10 -10"></path>
<g>
<path d="M502 20h164"></path>
</g>
<path d="M666 20a10 10 0 0 1 10 10v0a10 10 0 0 0 10 10"></path>
<path d="M482 40h20"></path>
<g class="terminal">
<path d="M502 40h0"></path>
<path d="M666 40h0"></path>
<rect x="502" y="29" width="164" height="22" rx="10" ry="10"></rect>
<text x="584" y="44">"WITH HEADER LINE"</text>
</g>
<path d="M666 40h20"></path>
</g>
</g>
<path d="M686 40h20"></path>
<path d="M272 40a10 10 0 0 1 10 10v10a10 10 0 0 0 10 10"></path>
<g class="terminal">
<path d="M292 70h0"></path>
<path d="M456 70h230"></path>
<rect x="292" y="59" width="164" height="22" rx="10" ry="10"></rect>
<text x="374" y="74">"WITH HEADER LINE"</text>
</g>
<path d="M686 70a10 10 0 0 0 10 -10v-10a10 10 0 0 1 10 -10"></path>
</g>
</g>
<path d="M2054 40h20"></path>
<path d="M158 40a10 10 0 0 1 10 10v57a10 10 0 0 0 10 10"></path>
<g>
<path d="M178 117h0"></path>
<path d="M2054 117h0"></path>
<g>
<path d="M178 117h0"></path>
<path d="M358 117h0"></path>
<path d="M178 117a10 10 0 0 0 10 -10v0a10 10 0 0 1 10 -10"></path>
<g>
<path d="M198 97h140"></path>
</g>
<path d="M338 97a10 10 0 0 1 10 10v0a10 10 0 0 0 10 10"></path>
<path d="M178 117h20"></path>
<g>
<path d="M198 117h0"></path>
<path d="M338 117h0"></path>
<path d="M198 117h20"></path>
<g class="terminal">
<path d="M218 117h0"></path>
<path d="M318 117h0"></path>
<rect x="218" y="106" width="100" height="22" rx="10" ry="10"></rect>
<text x="268" y="121">"STANDARD"</text>
</g>
<path d="M318 117h20"></path>
<path d="M198 117a10 10 0 0 1 10 10v10a10 10 0 0 0 10 10"></path>
<g class="terminal">
<path d="M218 147h0"></path>
<path d="M302 147h16"></path>
<rect x="218" y="136" width="84" height="22" rx="10" ry="10"></rect>
<text x="260" y="151">"HASHED"</text>
</g>
<path d="M318 147a10 10 0 0 0 10 -10v-10a10 10 0 0 1 10 -10"></path>
<path d="M198 117a10 10 0 0 1 10 10v40a10 10 0 0 0 10 10"></path>
<g class="terminal">
<path d="M218 177h0"></path>
<path d="M294 177h24"></path>
<rect x="218" y="166" width="76" height="22" rx="10" ry="10"></rect>
<text x="256" y="181">"INDEX"</text>
</g>
<path d="M318 177a10 10 0 0 0 10 -10v-40a10 10 0 0 1 10 -10"></path>
<path d="M198 117a10 10 0 0 1 10 10v70a10 10 0 0 0 10 10"></path>
<g class="terminal">
<path d="M218 207h0"></path>
<path d="M302 207h16"></path>
<rect x="218" y="196" width="84" height="22" rx="10" ry="10"></rect>
<text x="260" y="211">"SORTED"</text>
</g>
<path d="M318 207a10 10 0 0 0 10 -10v-70a10 10 0 0 1 10 -10"></path>
<path d="M198 117a10 10 0 0 1 10 10v100a10 10 0 0 0 10 10"></path>
<g class="terminal">
<path d="M218 237h0"></path>
<path d="M278 237h40"></path>
<rect x="218" y="226" width="60" height="22" rx="10" ry="10"></rect>
<text x="248" y="241">"ANY"</text>
</g>
<path d="M318 237a10 10 0 0 0 10 -10v-100a10 10 0 0 1 10 -10"></path>
</g>
<path d="M338 117h20"></path>
</g>
<path d="M358 117h10"></path>
<g class="terminal">
<path d="M368 117h0"></path>
<path d="M444 117h0"></path>
<rect x="368" y="106" width="76" height="22" rx="10" ry="10"></rect>
<text x="406" y="121">"TABLE"</text>
</g>
<path d="M444 117h10"></path>
<g>
<path d="M454 117h0"></path>
<path d="M546 117h0"></path>
<path d="M454 117a10 10 0 0 0 10 -10v0a10 10 0 0 1 10 -10"></path>
<g>
<path d="M474 97h52"></path>
</g>
<path d="M526 97a10 10 0 0 1 10 10v0a10 10 0 0 0 10 10"></path>
<path d="M454 117h20"></path>
<g class="terminal">
<path d="M474 117h0"></path>
<path d="M526 117h0"></path>
<rect x="474" y="106" width="52" height="22" rx="10" ry="10"></rect>
<text x="500" y="121">"OF"</text>
</g>
<path d="M526 117h20"></path>
</g>
<g>
<path d="M546 117h0"></path>
<path d="M670 117h0"></path>
<path d="M546 117a10 10 0 0 0 10 -10v0a10 10 0 0 1 10 -10"></path>
<g>
<path d="M566 97h84"></path>
</g>
<path d="M650 97a10 10 0 0 1 10 10v0a10 10 0 0 0 10 10"></path>
<path d="M546 117h20"></path>
<g class="terminal">
<path d="M566 117h0"></path>
<path d="M650 117h0"></path>
<rect x="566" y="106" width="84" height="22" rx="10" ry="10"></rect>
<text x="608" y="121">"REF TO"</text>
</g>
<path d="M650 117h20"></path>
</g>
<g>
<path d="M670 117h0"></path>
<path d="M794 117h0"></path>
<path d="M670 117a10 10 0 0 0 10 -10v0a10 10 0 0 1 10 -10"></path>
<g>
<path d="M690 97h84"></path>
</g>
<path d="M774 97a10 10 0 0 1 10 10v0a10 10 0 0 0 10 10"></path>
<path d="M670 117h20"></path>
<g class="non-terminal">
<path d="M690 117h0"></path>
<path d="M774 117h0"></path>
<rect x="690" y="106" width="84" height="22"></rect>
<a xlink:href="reuse_typename.svg"><text x="732" y="121">TypeName</text>
</a>
</g>
<path d="M774 117h20"></path>
</g>
<g>
<path d="M794 117h0"></path>
<path d="M998 117h0"></path>
<path d="M794 117a10 10 0 0 0 10 -10v0a10 10 0 0 1 10 -10"></path>
<g>
<path d="M814 97h164"></path>
</g>
<path d="M978 97a10 10 0 0 1 10 10v0a10 10 0 0 0 10 10"></path>
<path d="M794 117h20"></path>
<g class="terminal">
<path d="M814 117h0"></path>
<path d="M978 117h0"></path>
<rect x="814" y="106" width="164" height="22" rx="10" ry="10"></rect>
<text x="896" y="121">"WITH HEADER LINE"</text>
</g>
<path d="M978 117h20"></path>
</g>
<g>
<path d="M998 117h0"></path>
<path d="M1274 117h0"></path>
<path d="M998 117a10 10 0 0 0 10 -10v0a10 10 0 0 1 10 -10"></path>
<g>
<path d="M1018 97h236"></path>
</g>
<path d="M1254 97a10 10 0 0 1 10 10v0a10 10 0 0 0 10 10"></path>
<path d="M998 117h20"></path>
<g>
<path d="M1018 117h0"></path>
<path d="M1254 117h0"></path>
<g class="terminal">
<path d="M1018 117h0"></path>
<path d="M1150 117h0"></path>
<rect x="1018" y="106" width="132" height="22" rx="10" ry="10"></rect>
<text x="1084" y="121">"INITIAL SIZE"</text>
</g>
<path d="M1150 117h10"></path>
<path d="M1160 117h10"></path>
<g class="non-terminal">
<path d="M1170 117h0"></path>
<path d="M1254 117h0"></path>
<rect x="1170" y="106" width="84" height="22"></rect>
<a xlink:href="reuse_constant.svg"><text x="1212" y="121">Constant</text>
</a>
</g>
</g>
<path d="M1254 117h20"></path>
</g>
<g>
<path d="M1274 117h0"></path>
<path d="M2054 117h0"></path>
<path d="M1274 117a10 10 0 0 0 10 -10v-8a10 10 0 0 1 10 -10"></path>
<g>
<path d="M1294 89h740"></path>
</g>
<path d="M2034 89a10 10 0 0 1 10 10v8a10 10 0 0 0 10 10"></path>
<path d="M1274 117h20"></path>
<g>
<path d="M1294 117h0"></path>
<path d="M2034 117h0"></path>
<g class="terminal">
<path d="M1294 117h0"></path>
<path d="M1362 117h0"></path>
<rect x="1294" y="106" width="68" height="22" rx="10" ry="10"></rect>
<text x="1328" y="121">"WITH"</text>
</g>
<path d="M1362 117h10"></path>
<g>
<path d="M1372 117h0"></path>
<path d="M1568 117h0"></path>
<path d="M1372 117a10 10 0 0 0 10 -10v0a10 10 0 0 1 10 -10"></path>
<g>
<path d="M1392 97h156"></path>
</g>
<path d="M1548 97a10 10 0 0 1 10 10v0a10 10 0 0 0 10 10"></path>
<path d="M1372 117h20"></path>
<g>
<path d="M1392 117h0"></path>
<path d="M1548 117h0"></path>
<path d="M1392 117h20"></path>
<g class="terminal">
<path d="M1412 117h0"></path>
<path d="M1528 117h0"></path>
<rect x="1412" y="106" width="116" height="22" rx="10" ry="10"></rect>
<text x="1470" y="121">"NON-UNIQUE"</text>
</g>
<path d="M1528 117h20"></path>
<path d="M1392 117a10 10 0 0 1 10 10v10a10 10 0 0 0 10 10"></path>
<g class="terminal">
<path d="M1412 147h0"></path>
<path d="M1496 147h32"></path>
<rect x="1412" y="136" width="84" height="22" rx="10" ry="10"></rect>
<text x="1454" y="151">"UNIQUE"</text>
</g>
<path d="M1528 147a10 10 0 0 0 10 -10v-10a10 10 0 0 1 10 -10"></path>
</g>
<path d="M1548 117h20"></path>
</g>
<g>
<path d="M1568 117h0"></path>
<path d="M1810 117h0"></path>
<path d="M1568 117a10 10 0 0 0 10 -10v0a10 10 0 0 1 10 -10"></path>
<g>
<path d="M1588 97h202"></path>
</g>
<path d="M1790 97a10 10 0 0 1 10 10v0a10 10 0 0 0 10 10"></path>
<path d="M1568 117h20"></path>
<g>
<path d="M1588 117h0"></path>
<path d="M1790 117h0"></path>
<path d="M1588 117h20"></path>
<g class="terminal">
<path d="M1608 117h0"></path>
<path d="M1700 117h70"></path>
<rect x="1608" y="106" width="92" height="22" rx="10" ry="10"></rect>
<text x="1654" y="121">"DEFAULT"</text>
</g>
<path d="M1770 117h20"></path>
<path d="M1588 117a10 10 0 0 1 10 10v10a10 10 0 0 0 10 10"></path>
<g class="terminal">
<path d="M1608 147h0"></path>
<path d="M1692 147h78"></path>
<rect x="1608" y="136" width="84" height="22" rx="10" ry="10"></rect>
<text x="1650" y="151">"SORTED"</text>
</g>
<path d="M1770 147a10 10 0 0 0 10 -10v-10a10 10 0 0 1 10 -10"></path>
<path d="M1588 117a10 10 0 0 1 10 10v40a10 10 0 0 0 10 10"></path>
<g>
<path d="M1608 177h0"></path>
<path d="M1770 177h0"></path>
<g>
<path d="M1608 177h0"></path>
<path d="M1674 177h0"></path>
<text x="1641" y="182" class="comment">v740sp02</text>
</g>
<path d="M1674 177h10"></path>
<path d="M1684 177h10"></path>
<g class="terminal">
<path d="M1694 177h0"></path>
<path d="M1770 177h0"></path>
<rect x="1694" y="166" width="76" height="22" rx="10" ry="10"></rect>
<text x="1732" y="181">"EMPTY"</text>
</g>
</g>
<path d="M1770 177a10 10 0 0 0 10 -10v-40a10 10 0 0 1 10 -10"></path>
</g>
<path d="M1790 117h20"></path>
</g>
<path d="M1810 117h10"></path>
<g class="terminal">
<path d="M1820 117h0"></path>
<path d="M1880 117h0"></path>
<rect x="1820" y="106" width="60" height="22" rx="10" ry="10"></rect>
<text x="1850" y="121">"KEY"</text>
</g>
<path d="M1880 117h10"></path>
<g>
<path d="M1890 117h0"></path>
<path d="M2034 117h0"></path>
<path d="M1890 117a10 10 0 0 0 10 -10v0a10 10 0 0 1 10 -10"></path>
<g>
<path d="M1910 97h104"></path>
</g>
<path d="M2014 97a10 10 0 0 1 10 10v0a10 10 0 0 0 10 10"></path>
<path d="M1890 117h20"></path>
<g>
<path d="M1910 117h0"></path>
<path d="M2014 117h0"></path>
<path d="M1910 117h10"></path>
<g class="non-terminal">
<path d="M1920 117h0"></path>
<path d="M2004 117h0"></path>
<rect x="1920" y="106" width="84" height="22"></rect>
<a xlink:href="reuse_fieldsub.svg"><text x="1962" y="121">FieldSub</text>
</a>
</g>
<path d="M2004 117h10"></path>
<path d="M1920 117a10 10 0 0 0 -10 10v0a10 10 0 0 0 10 10"></path>
<g>
<path d="M1920 137h84"></path>
</g>
<path d="M2004 137a10 10 0 0 0 10 -10v0a10 10 0 0 0 -10 -10"></path>
</g>
<path d="M2014 117h20"></path>
</g>
</g>
<path d="M2034 117h20"></path>
</g>
</g>
<path d="M2054 117a10 10 0 0 0 10 -10v-57a10 10 0 0 1 10 -10"></path>
</g>
</g>
<path d="M2074 40h10"></path>
<path d="M 2084 40 h 20 m 0 -10 v 20"></path>
</g>
</svg>
