<svg xmlns="http://www.w3.org/2000/svg" xmlns:xlink="http://www.w3.org/1999/xlink" class="railroad-diagram" width="292" height="71" viewBox="0 0 292 71">
<defs>
<style type="text/css"><![CDATA[
path {
stroke-width: 3;
stroke: black;
fill: rgba(0,0,0,0);
}
text {
font: bold 14px monospace;
text-anchor: middle;
}
text.diagram-text {
font-size: 12px;
}
a {
fill: blue;
}
text.diagram-arrow {
font-size: 16px;
}
text.label {
text-anchor: start;
}
text.comment {
font: italic 12px monospace;
}
rect {
stroke-width: 3;
stroke: black;
fill: #BCBCBC;
}
path.diagram-text {
stroke-width: 3;
stroke: black;
fill: #BCBCBC;
cursor: help;
}
]]></style>
</defs>
<g transform="translate(.5 .5)">
<path d="M 20 21 v 20 m 0 -10 h 20.5"></path>
<path d="M40 31h10"></path>
<g>
<path d="M50 31h0"></path>
<path d="M242 31h0"></path>
<path d="M50 31h10"></path>
<g class="non-terminal">
<path d="M60 31h0"></path>
<path d="M232 31h0"></path>
<rect x="60" y="20" width="172" height="22"></rect>
<a xlink:href="reuse_parameter_exception.svg"><text x="146" y="35">parameter&#95;exception</text>
</a>
</g>
<path d="M232 31h10"></path>
<path d="M60 31a10 10 0 0 0 -10 10v0a10 10 0 0 0 10 10"></path>
<g>
<path d="M60 51h172"></path>
</g>
<path d="M232 51a10 10 0 0 0 10 -10v0a10 10 0 0 0 -10 -10"></path>
</g>
<path d="M242 31h10"></path>
<path d="M 252 31 h 20 m 0 -10 v 20"></path>
</g>
</svg>
