<svg xmlns="http://www.w3.org/2000/svg" xmlns:xlink="http://www.w3.org/1999/xlink" class="railroad-diagram" width="978" height="96" viewBox="0 0 978 96">
<defs>
<style type="text/css"><![CDATA[
path {
stroke-width: 3;
stroke: black;
fill: rgba(0,0,0,0);
}
text {
font: bold 14px monospace;
text-anchor: middle;
}
text.diagram-text {
font-size: 12px;
}
a {
fill: blue;
}
text.diagram-arrow {
font-size: 16px;
}
text.label {
text-anchor: start;
}
text.comment {
font: italic 12px monospace;
}
rect {
stroke-width: 3;
stroke: black;
fill: #BCBCBC;
}
path.diagram-text {
stroke-width: 3;
stroke: black;
fill: #BCBCBC;
cursor: help;
}
]]></style>
</defs>
<g transform="translate(.5 .5)">
<path d="M 20 38 v 20 m 0 -10 h 20.5"></path>
<path d="M40 48h10"></path>
<g>
<path d="M50 48h0"></path>
<path d="M928 48h0"></path>
<g>
<path d="M50 48h0"></path>
<path d="M278 48h0"></path>
<path d="M50 48a10 10 0 0 0 10 -10v0a10 10 0 0 1 10 -10"></path>
<g>
<path d="M70 28h188"></path>
</g>
<path d="M258 28a10 10 0 0 1 10 10v0a10 10 0 0 0 10 10"></path>
<path d="M50 48h20"></path>
<g>
<path d="M70 48h0"></path>
<path d="M258 48h0"></path>
<g class="non-terminal">
<path d="M70 48h0"></path>
<path d="M178 48h0"></path>
<rect x="70" y="37" width="108" height="22"></rect>
<a xlink:href="reuse_field_chain.svg"><text x="124" y="52">field&#95;chain</text>
</a>
</g>
<path d="M178 48h10"></path>
<path d="M188 48h10"></path>
<g class="non-terminal">
<path d="M198 48h0"></path>
<path d="M258 48h0"></path>
<rect x="198" y="37" width="60" height="22"></rect>
<a xlink:href="reuse_arrow.svg"><text x="228" y="52">arrow</text>
</a>
</g>
</g>
<path d="M258 48h20"></path>
</g>
<path d="M278 48h10"></path>
<g class="non-terminal">
<path d="M288 48h0"></path>
<path d="M396 48h0"></path>
<rect x="288" y="37" width="108" height="22"></rect>
<a xlink:href="reuse_method_call.svg"><text x="342" y="52">method&#95;call</text>
</a>
</g>
<path d="M396 48h10"></path>
<g>
<path d="M406 48h0"></path>
<path d="M928 48h0"></path>
<path d="M406 48a10 10 0 0 0 10 -10v-8a10 10 0 0 1 10 -10"></path>
<g>
<path d="M426 20h482"></path>
</g>
<path d="M908 20a10 10 0 0 1 10 10v8a10 10 0 0 0 10 10"></path>
<path d="M406 48h20"></path>
<g>
<path d="M426 48h0"></path>
<path d="M908 48h0"></path>
<path d="M426 48h10"></path>
<g>
<path d="M436 48h0"></path>
<path d="M898 48h0"></path>
<g>
<path d="M436 48h0"></path>
<path d="M700 48h0"></path>
<path d="M436 48a10 10 0 0 0 10 -10v0a10 10 0 0 1 10 -10"></path>
<g>
<path d="M456 28h224"></path>
</g>
<path d="M680 28a10 10 0 0 1 10 10v0a10 10 0 0 0 10 10"></path>
<path d="M436 48h20"></path>
<g>
<path d="M456 48h0"></path>
<path d="M680 48h0"></path>
<path d="M456 48h10"></path>
<g>
<path d="M466 48h0"></path>
<path d="M670 48h0"></path>
<g class="non-terminal">
<path d="M466 48h0"></path>
<path d="M590 48h0"></path>
<rect x="466" y="37" width="124" height="22"></rect>
<a xlink:href="reuse_arrow_or_dash.svg"><text x="528" y="52">arrow&#95;or&#95;dash</text>
</a>
</g>
<path d="M590 48h10"></path>
<path d="M600 48h10"></path>
<g class="non-terminal">
<path d="M610 48h0"></path>
<path d="M670 48h0"></path>
<rect x="610" y="37" width="60" height="22"></rect>
<a xlink:href="reuse_field.svg"><text x="640" y="52">field</text>
</a>
</g>
</g>
<path d="M670 48h10"></path>
<path d="M466 48a10 10 0 0 0 -10 10v0a10 10 0 0 0 10 10"></path>
<g>
<path d="M466 68h204"></path>
</g>
<path d="M670 68a10 10 0 0 0 10 -10v0a10 10 0 0 0 -10 -10"></path>
</g>
<path d="M680 48h20"></path>
</g>
<path d="M700 48h10"></path>
<g class="non-terminal">
<path d="M710 48h0"></path>
<path d="M770 48h0"></path>
<rect x="710" y="37" width="60" height="22"></rect>
<a xlink:href="reuse_arrow.svg"><text x="740" y="52">arrow</text>
</a>
</g>
<path d="M770 48h10"></path>
<path d="M780 48h10"></path>
<g class="non-terminal">
<path d="M790 48h0"></path>
<path d="M898 48h0"></path>
<rect x="790" y="37" width="108" height="22"></rect>
<a xlink:href="reuse_method_call.svg"><text x="844" y="52">method&#95;call</text>
</a>
</g>
</g>
<path d="M898 48h10"></path>
<path d="M436 48a10 10 0 0 0 -10 10v8a10 10 0 0 0 10 10"></path>
<g>
<path d="M436 76h462"></path>
</g>
<path d="M898 76a10 10 0 0 0 10 -10v-8a10 10 0 0 0 -10 -10"></path>
</g>
<path d="M908 48h20"></path>
</g>
</g>
<path d="M928 48h10"></path>
<path d="M 938 48 h 20 m 0 -10 v 20"></path>
</g>
</svg>
