<svg xmlns="http://www.w3.org/2000/svg" xmlns:xlink="http://www.w3.org/1999/xlink" class="railroad-diagram" width="450" height="80" viewBox="0 0 450 80">
<defs>
<style type="text/css"><![CDATA[
path {
stroke-width: 3;
stroke: black;
fill: rgba(0,0,0,0);
}
text {
font: bold 14px monospace;
text-anchor: middle;
}
text.diagram-text {
font-size: 12px;
}
a {
fill: blue;
}
text.diagram-arrow {
font-size: 16px;
}
text.label {
text-anchor: start;
}
text.comment {
font: italic 12px monospace;
}
rect {
stroke-width: 3;
stroke: black;
fill: #BCBCBC;
}
path.diagram-text {
stroke-width: 3;
stroke: black;
fill: #BCBCBC;
cursor: help;
}
]]></style>
</defs>
<g transform="translate(.5 .5)">
<path d="M 20 30 v 20 m 0 -10 h 20.5"></path>
<path d="M40 40h10"></path>
<g>
<path d="M50 40h0"></path>
<path d="M400 40h0"></path>
<g class="terminal">
<path d="M50 40h0"></path>
<path d="M198 40h0"></path>
<rect x="50" y="29" width="148" height="22" rx="10" ry="10"></rect>
<text x="124" y="44">^&#91;\w%&#93;&#91;\w\&#42;&#93;&#42;>?$</text>
</g>
<path d="M198 40h10"></path>
<g>
<path d="M208 40h0"></path>
<path d="M400 40h0"></path>
<path d="M208 40a10 10 0 0 0 10 -10v0a10 10 0 0 1 10 -10"></path>
<g>
<path d="M228 20h152"></path>
</g>
<path d="M380 20a10 10 0 0 1 10 10v0a10 10 0 0 0 10 10"></path>
<path d="M208 40h20"></path>
<g>
<path d="M228 40h0"></path>
<path d="M380 40h0"></path>
<path d="M228 40h10"></path>
<g>
<path d="M238 40h0"></path>
<path d="M370 40h0"></path>
<g class="terminal">
<path d="M238 40h0"></path>
<path d="M290 40h0"></path>
<rect x="238" y="29" width="52" height="22" rx="10" ry="10"></rect>
<text x="264" y="44">!"-"</text>
</g>
<path d="M290 40h10"></path>
<path d="M300 40h10"></path>
<g class="terminal">
<path d="M310 40h0"></path>
<path d="M370 40h0"></path>
<rect x="310" y="29" width="60" height="22" rx="10" ry="10"></rect>
<text x="340" y="44">^\w+$</text>
</g>
</g>
<path d="M370 40h10"></path>
<path d="M238 40a10 10 0 0 0 -10 10v0a10 10 0 0 0 10 10"></path>
<g>
<path d="M238 60h132"></path>
</g>
<path d="M370 60a10 10 0 0 0 10 -10v0a10 10 0 0 0 -10 -10"></path>
</g>
<path d="M380 40h20"></path>
</g>
</g>
<path d="M400 40h10"></path>
<path d="M 410 40 h 20 m 0 -10 v 20"></path>
</g>
</svg>
