<svg xmlns="http://www.w3.org/2000/svg" xmlns:xlink="http://www.w3.org/1999/xlink" class="railroad-diagram" width="1042" height="200" viewBox="0 0 1042 200">
<defs>
<style type="text/css"><![CDATA[
path {
stroke-width: 3;
stroke: black;
fill: rgba(0,0,0,0);
}
text {
font: bold 14px monospace;
text-anchor: middle;
}
text.diagram-text {
font-size: 12px;
}
a {
fill: blue;
}
text.diagram-arrow {
font-size: 16px;
}
text.label {
text-anchor: start;
}
text.comment {
font: italic 12px monospace;
}
rect {
stroke-width: 3;
stroke: black;
fill: #BCBCBC;
}
path.diagram-text {
stroke-width: 3;
stroke: black;
fill: #BCBCBC;
cursor: help;
}
]]></style>
</defs>
<g transform="translate(.5 .5)">
<path d="M 20 21 v 20 m 0 -10 h 20.5"></path>
<g>
<path d="M40 31h0"></path>
<path d="M1002 31h0"></path>
<path d="M40 31h20"></path>
<g class="non-terminal">
<path d="M60 31h0"></path>
<path d="M160 31h822"></path>
<rect x="60" y="20" width="100" height="22"></rect>
<a xlink:href="reuse_inlinedata.svg"><text x="110" y="35">InlineData</text>
</a>
</g>
<path d="M982 31h20"></path>
<path d="M40 31a10 10 0 0 1 10 10v10a10 10 0 0 0 10 10"></path>
<g class="non-terminal">
<path d="M60 61h0"></path>
<path d="M144 61h838"></path>
<rect x="60" y="50" width="84" height="22"></rect>
<a xlink:href="reuse_inlinefs.svg"><text x="102" y="65">InlineFS</text>
</a>
</g>
<path d="M982 61a10 10 0 0 0 10 -10v-10a10 10 0 0 1 10 -10"></path>
<path d="M40 31a10 10 0 0 1 10 10v49a10 10 0 0 0 10 10"></path>
<g>
<path d="M60 100h0"></path>
<path d="M982 100h0"></path>
<g>
<path d="M60 100h0"></path>
<path d="M636 100h0"></path>
<g>
<path d="M60 100h0"></path>
<path d="M208 100h0"></path>
<path d="M60 100h20"></path>
<g class="non-terminal">
<path d="M80 100h0"></path>
<path d="M140 100h48"></path>
<rect x="80" y="89" width="60" height="22"></rect>
<a xlink:href="reuse_field.svg"><text x="110" y="104">Field</text>
</a>
</g>
<path d="M188 100h20"></path>
<path d="M60 100a10 10 0 0 1 10 10v10a10 10 0 0 0 10 10"></path>
<g class="non-terminal">
<path d="M80 130h0"></path>
<path d="M188 130h0"></path>
<rect x="80" y="119" width="108" height="22"></rect>
<a xlink:href="reuse_fieldsymbol.svg"><text x="134" y="134">FieldSymbol</text>
</a>
</g>
<path d="M188 130a10 10 0 0 0 10 -10v-10a10 10 0 0 1 10 -10"></path>
</g>
<g>
<path d="M208 100h0"></path>
<path d="M388 100h0"></path>
<path d="M208 100a10 10 0 0 0 10 -10v0a10 10 0 0 1 10 -10"></path>
<g>
<path d="M228 80h140"></path>
</g>
<path d="M368 80a10 10 0 0 1 10 10v0a10 10 0 0 0 10 10"></path>
<path d="M208 100h20"></path>
<g class="non-terminal">
<path d="M228 100h0"></path>
<path d="M368 100h0"></path>
<rect x="228" y="89" width="140" height="22"></rect>
<a xlink:href="reuse_tableexpression.svg"><text x="298" y="104">TableExpression</text>
</a>
</g>
<path d="M368 100h20"></path>
</g>
<g>
<path d="M388 100h0"></path>
<path d="M636 100h0"></path>
<path d="M388 100a10 10 0 0 0 10 -10v0a10 10 0 0 1 10 -10"></path>
<g>
<path d="M408 80h208"></path>
</g>
<path d="M616 80a10 10 0 0 1 10 10v0a10 10 0 0 0 10 10"></path>
<path d="M388 100h20"></path>
<g>
<path d="M408 100h0"></path>
<path d="M616 100h0"></path>
<path d="M408 100h10"></path>
<g>
<path d="M418 100h0"></path>
<path d="M606 100h0"></path>
<g class="non-terminal">
<path d="M418 100h0"></path>
<path d="M526 100h0"></path>
<rect x="418" y="89" width="108" height="22"></rect>
<a xlink:href="reuse_arrowordash.svg"><text x="472" y="104">ArrowOrDash</text>
</a>
</g>
<path d="M526 100h10"></path>
<path d="M536 100h10"></path>
<g class="non-terminal">
<path d="M546 100h0"></path>
<path d="M606 100h0"></path>
<rect x="546" y="89" width="60" height="22"></rect>
<a xlink:href="reuse_field.svg"><text x="576" y="104">Field</text>
</a>
</g>
</g>
<path d="M606 100h10"></path>
<path d="M418 100a10 10 0 0 0 -10 10v0a10 10 0 0 0 10 10"></path>
<g>
<path d="M418 120h188"></path>
</g>
<path d="M606 120a10 10 0 0 0 10 -10v0a10 10 0 0 0 -10 -10"></path>
</g>
<path d="M616 100h20"></path>
</g>
</g>
<path d="M636 100h10"></path>
<g>
<path d="M646 100h0"></path>
<path d="M982 100h0"></path>
<path d="M646 100h20"></path>
<g class="non-terminal">
<path d="M666 100h0"></path>
<path d="M758 100h204"></path>
<rect x="666" y="89" width="92" height="22"></rect>
<a xlink:href="reuse_tablebody.svg"><text x="712" y="104">TableBody</text>
</a>
</g>
<path d="M962 100h20"></path>
<path d="M646 100a10 10 0 0 1 10 10v19a10 10 0 0 0 10 10"></path>
<g>
<path d="M666 139h0"></path>
<path d="M962 139h0"></path>
<g>
<path d="M666 139h0"></path>
<path d="M814 139h0"></path>
<path d="M666 139a10 10 0 0 0 10 -10v0a10 10 0 0 1 10 -10"></path>
<g>
<path d="M686 119h108"></path>
</g>
<path d="M794 119a10 10 0 0 1 10 10v0a10 10 0 0 0 10 10"></path>
<path d="M666 139h20"></path>
<g class="non-terminal">
<path d="M686 139h0"></path>
<path d="M794 139h0"></path>
<rect x="686" y="128" width="108" height="22"></rect>
<a xlink:href="reuse_fieldoffset.svg"><text x="740" y="143">FieldOffset</text>
</a>
</g>
<path d="M794 139h20"></path>
</g>
<g>
<path d="M814 139h0"></path>
<path d="M962 139h0"></path>
<path d="M814 139a10 10 0 0 0 10 -10v0a10 10 0 0 1 10 -10"></path>
<g>
<path d="M834 119h108"></path>
</g>
<path d="M942 119a10 10 0 0 1 10 10v0a10 10 0 0 0 10 10"></path>
<path d="M814 139h20"></path>
<g class="non-terminal">
<path d="M834 139h0"></path>
<path d="M942 139h0"></path>
<rect x="834" y="128" width="108" height="22"></rect>
<a xlink:href="reuse_fieldlength.svg"><text x="888" y="143">FieldLength</text>
</a>
</g>
<path d="M942 139h20"></path>
</g>
</g>
<path d="M962 139a10 10 0 0 0 10 -10v-19a10 10 0 0 1 10 -10"></path>
<path d="M646 100a10 10 0 0 1 10 10v49a10 10 0 0 0 10 10"></path>
<g>
<path d="M666 169h0"></path>
<path d="M814 169h148"></path>
<g class="terminal">
<path d="M666 169h0"></path>
<path d="M750 169h0"></path>
<rect x="666" y="158" width="84" height="22" rx="10" ry="10"></rect>
<text x="708" y="173">!"->/=>"</text>
</g>
<path d="M750 169h10"></path>
<path d="M760 169h10"></path>
<g class="terminal">
<path d="M770 169h0"></path>
<path d="M814 169h0"></path>
<rect x="770" y="158" width="44" height="22" rx="10" ry="10"></rect>
<text x="792" y="173">"&#42;"</text>
</g>
</g>
<path d="M962 169a10 10 0 0 0 10 -10v-49a10 10 0 0 1 10 -10"></path>
</g>
</g>
<path d="M982 100a10 10 0 0 0 10 -10v-49a10 10 0 0 1 10 -10"></path>
</g>
<path d="M 1002 31 h 20 m 0 -10 v 20"></path>
</g>
</svg>
