<?xml version="1.0" encoding="UTF-8" standalone="no"?>
<!DOCTYPE svg PUBLIC "-//W3C//DTD SVG 1.1//EN"
 "http://www.w3.org/Graphics/SVG/1.1/DTD/svg11.dtd">
<!-- Generated by graphviz version 2.38.0 (20140413.2041)
 -->
<!-- Title: method_parameters Pages: 1 -->
<svg width="553pt" height="836pt"
 viewBox="0.00 0.00 553.00 836.00" xmlns="http://www.w3.org/2000/svg" xmlns:xlink="http://www.w3.org/1999/xlink">
<g id="graph0" class="graph" transform="scale(1 1) rotate(0) translate(4 832)">
<title>method_parameters</title>
<polygon fill="white" stroke="none" points="-4,4 -4,-832 549,-832 549,4 -4,4"/>
<!-- start -->
<g id="node1" class="node"><title>start</title>
<polygon fill="none" stroke="blue" points="122,-828 68,-828 68,-792 122,-792 122,-828"/>
<text text-anchor="middle" x="95" y="-805.8" font-family="Times,serif" font-size="14.00">Start</text>
</g>
<!-- end -->
<g id="node2" class="node"><title>end</title>
<polygon fill="none" stroke="blue" points="426,-36 372,-36 372,-0 426,-0 426,-36"/>
<text text-anchor="middle" x="399" y="-13.8" font-family="Times,serif" font-size="14.00">End</text>
</g>
<!-- start&#45;&gt;end -->
<g id="edge26" class="edge"><title>start&#45;&gt;end</title>
<path fill="none" stroke="black" d="M73.443,-791.777C45.414,-767.284 0,-719.5 0,-667 0,-667 0,-667 0,-161 0,-84.6487 262.599,-38.7226 361.725,-24.1063"/>
<polygon fill="black" stroke="black" points="362.494,-27.5315 371.889,-22.6333 361.49,-20.6038 362.494,-27.5315"/>
</g>
<!-- node89 -->
<g id="node4" class="node"><title>node89</title>
<ellipse fill="none" stroke="black" cx="312" cy="-162" rx="77.8372" ry="18"/>
<text text-anchor="middle" x="312" y="-157.8" font-family="Times,serif" font-size="14.00">&quot;EXCEPTIONS&quot;</text>
</g>
<!-- start&#45;&gt;node89 -->
<g id="edge25" class="edge"><title>start&#45;&gt;node89</title>
<path fill="none" stroke="black" d="M83.1896,-791.958C66.4939,-766.158 38,-715.082 38,-667 38,-667 38,-667 38,-305 38,-217.396 149.774,-183.77 230.543,-170.908"/>
<polygon fill="black" stroke="black" points="231.36,-174.324 240.725,-169.369 230.314,-167.403 231.36,-174.324"/>
</g>
<!-- node91 -->
<g id="node6" class="node"><title>node91</title>
<ellipse fill="none" stroke="black" cx="189" cy="-306" rx="70.8752" ry="18"/>
<text text-anchor="middle" x="189" y="-301.8" font-family="Times,serif" font-size="14.00">&quot;RECEIVING&quot;</text>
</g>
<!-- start&#45;&gt;node91 -->
<g id="edge24" class="edge"><title>start&#45;&gt;node91</title>
<path fill="none" stroke="black" d="M91.1551,-791.612C85.6032,-764.942 76,-712.268 76,-667 76,-667 76,-667 76,-449 76,-397.301 122.428,-353.535 155.765,-328.775"/>
<polygon fill="black" stroke="black" points="157.855,-331.582 163.922,-322.896 153.763,-325.903 157.855,-331.582"/>
</g>
<!-- node93 -->
<g id="node8" class="node"><title>node93</title>
<ellipse fill="none" stroke="black" cx="174" cy="-450" rx="70.2956" ry="18"/>
<text text-anchor="middle" x="174" y="-445.8" font-family="Times,serif" font-size="14.00">&quot;CHANGING&quot;</text>
</g>
<!-- start&#45;&gt;node93 -->
<g id="edge23" class="edge"><title>start&#45;&gt;node93</title>
<path fill="none" stroke="black" d="M98.8449,-791.612C104.397,-764.942 114,-712.268 114,-667 114,-667 114,-667 114,-593 114,-549.479 138.211,-503.951 155.873,-476.526"/>
<polygon fill="black" stroke="black" points="158.953,-478.216 161.568,-467.949 153.121,-474.344 158.953,-478.216"/>
</g>
<!-- node95 -->
<g id="node10" class="node"><title>node95</title>
<ellipse fill="none" stroke="black" cx="215" cy="-594" rx="72.6006" ry="18"/>
<text text-anchor="middle" x="215" y="-589.8" font-family="Times,serif" font-size="14.00">&quot;IMPORTING&quot;</text>
</g>
<!-- start&#45;&gt;node95 -->
<g id="edge22" class="edge"><title>start&#45;&gt;node95</title>
<path fill="none" stroke="black" d="M105.97,-791.976C112.524,-781.662 120.923,-768.185 128,-756 155.185,-709.191 184.72,-653.376 201.436,-621.276"/>
<polygon fill="black" stroke="black" points="204.693,-622.599 206.195,-612.111 198.48,-619.373 204.693,-622.599"/>
</g>
<!-- node97 -->
<g id="node12" class="node"><title>node97</title>
<ellipse fill="none" stroke="black" cx="301" cy="-738" rx="73.7446" ry="18"/>
<text text-anchor="middle" x="301" y="-733.8" font-family="Times,serif" font-size="14.00">&quot;EXPORTING&quot;</text>
</g>
<!-- start&#45;&gt;node97 -->
<g id="edge21" class="edge"><title>start&#45;&gt;node97</title>
<path fill="none" stroke="black" d="M122.355,-799.705C154.811,-788.676 209.6,-770.058 249.964,-756.342"/>
<polygon fill="black" stroke="black" points="251.291,-759.588 259.633,-753.057 249.039,-752.96 251.291,-759.588"/>
</g>
<!-- node88 -->
<g id="node3" class="node"><title>node88</title>
<g id="a_node3"><a xlink:href="reuse_parameter_list_exceptions.svg" xlink:title="&lt;u&gt;parameter_list_exceptions&lt;/u&gt;">
<ellipse fill="none" stroke="black" cx="329" cy="-90" rx="112.296" ry="18"/>
<text text-anchor="start" x="255.527" y="-86.8" font-family="Times,serif" text-decoration="underline" font-size="14.00" fill="blue">parameter_list_exceptions</text>
</a>
</g>
</g>
<!-- node88&#45;&gt;end -->
<g id="edge1" class="edge"><title>node88&#45;&gt;end</title>
<path fill="none" stroke="black" d="M345.945,-72.055C354.502,-63.4984 365.041,-52.9594 374.465,-43.5352"/>
<polygon fill="black" stroke="black" points="377.128,-45.8213 381.725,-36.2753 372.179,-40.8715 377.128,-45.8213"/>
</g>
<!-- node89&#45;&gt;node88 -->
<g id="edge2" class="edge"><title>node89&#45;&gt;node88</title>
<path fill="none" stroke="black" d="M316.202,-143.697C318.096,-135.898 320.377,-126.509 322.484,-117.829"/>
<polygon fill="black" stroke="black" points="325.887,-118.648 324.846,-108.104 319.085,-116.996 325.887,-118.648"/>
</g>
<!-- node90 -->
<g id="node5" class="node"><title>node90</title>
<g id="a_node5"><a xlink:href="reuse_parameter_t.svg" xlink:title="&lt;u&gt;parameter_t&lt;/u&gt;">
<ellipse fill="none" stroke="black" cx="189" cy="-234" rx="57.2992" ry="18"/>
<text text-anchor="start" x="155.574" y="-230.8" font-family="Times,serif" text-decoration="underline" font-size="14.00" fill="blue">parameter_t</text>
</a>
</g>
</g>
<!-- node90&#45;&gt;end -->
<g id="edge4" class="edge"><title>node90&#45;&gt;end</title>
<path fill="none" stroke="black" d="M185.373,-215.536C179.725,-183.074 172.825,-113.024 208,-72 227.867,-48.83 311.904,-32.3231 361.645,-24.3697"/>
<polygon fill="black" stroke="black" points="362.361,-27.8005 371.703,-22.8031 361.284,-20.8839 362.361,-27.8005"/>
</g>
<!-- node90&#45;&gt;node89 -->
<g id="edge3" class="edge"><title>node90&#45;&gt;node89</title>
<path fill="none" stroke="black" d="M215.387,-217.983C232.815,-208.065 255.901,-194.926 275.135,-183.98"/>
<polygon fill="black" stroke="black" points="276.986,-186.954 283.946,-178.966 273.524,-180.87 276.986,-186.954"/>
</g>
<!-- node91&#45;&gt;node90 -->
<g id="edge5" class="edge"><title>node91&#45;&gt;node90</title>
<path fill="none" stroke="black" d="M189,-287.697C189,-279.983 189,-270.712 189,-262.112"/>
<polygon fill="black" stroke="black" points="192.5,-262.104 189,-252.104 185.5,-262.104 192.5,-262.104"/>
</g>
<!-- node92 -->
<g id="node7" class="node"><title>node92</title>
<g id="a_node7"><a xlink:href="reuse_parameter_list_t.svg" xlink:title="&lt;u&gt;parameter_list_t&lt;/u&gt;">
<ellipse fill="none" stroke="black" cx="291" cy="-378" rx="73.5695" ry="18"/>
<text text-anchor="start" x="245.516" y="-374.8" font-family="Times,serif" text-decoration="underline" font-size="14.00" fill="blue">parameter_list_t</text>
</a>
</g>
</g>
<!-- node92&#45;&gt;end -->
<g id="edge8" class="edge"><title>node92&#45;&gt;end</title>
<path fill="none" stroke="black" d="M335,-363.466C387.711,-344.195 469,-303.39 469,-235 469,-235 469,-235 469,-161 469,-120.553 468.973,-107.721 450,-72 444.348,-61.3586 435.934,-51.3613 427.561,-42.979"/>
<polygon fill="black" stroke="black" points="429.941,-40.4124 420.285,-36.0529 425.115,-45.4827 429.941,-40.4124"/>
</g>
<!-- node92&#45;&gt;node89 -->
<g id="edge7" class="edge"><title>node92&#45;&gt;node89</title>
<path fill="none" stroke="black" d="M292.683,-359.849C296.316,-322.832 304.917,-235.181 309.313,-190.386"/>
<polygon fill="black" stroke="black" points="312.816,-190.526 310.309,-180.232 305.849,-189.843 312.816,-190.526"/>
</g>
<!-- node92&#45;&gt;node91 -->
<g id="edge6" class="edge"><title>node92&#45;&gt;node91</title>
<path fill="none" stroke="black" d="M267.343,-360.765C253.568,-351.311 236.015,-339.265 221.017,-328.972"/>
<polygon fill="black" stroke="black" points="222.755,-325.92 212.529,-323.147 218.794,-331.692 222.755,-325.92"/>
</g>
<!-- node93&#45;&gt;node92 -->
<g id="edge9" class="edge"><title>node93&#45;&gt;node92</title>
<path fill="none" stroke="black" d="M200.257,-433.291C216.551,-423.542 237.698,-410.89 255.478,-400.252"/>
<polygon fill="black" stroke="black" points="257.641,-403.037 264.426,-394.899 254.047,-397.03 257.641,-403.037"/>
</g>
<!-- node94 -->
<g id="node9" class="node"><title>node94</title>
<g id="a_node9"><a xlink:href="reuse_parameter_list_t.svg" xlink:title="&lt;u&gt;parameter_list_t&lt;/u&gt;">
<ellipse fill="none" stroke="black" cx="272" cy="-522" rx="73.5695" ry="18"/>
<text text-anchor="start" x="226.516" y="-518.8" font-family="Times,serif" text-decoration="underline" font-size="14.00" fill="blue">parameter_list_t</text>
</a>
</g>
</g>
<!-- node94&#45;&gt;end -->
<g id="edge13" class="edge"><title>node94&#45;&gt;end</title>
<path fill="none" stroke="black" d="M332.213,-511.456C401.84,-496.593 507,-460.632 507,-379 507,-379 507,-379 507,-161 507,-118.496 498.018,-105.611 472,-72 461.934,-58.9962 447.844,-47.7435 434.725,-38.993"/>
<polygon fill="black" stroke="black" points="436.609,-36.0428 426.297,-33.6108 432.841,-41.9426 436.609,-36.0428"/>
</g>
<!-- node94&#45;&gt;node89 -->
<g id="edge12" class="edge"><title>node94&#45;&gt;node89</title>
<path fill="none" stroke="black" d="M299.457,-505.156C335.157,-482.265 393,-436.329 393,-379 393,-379 393,-379 393,-305 393,-258.703 360.111,-213.751 336.248,-187.228"/>
<polygon fill="black" stroke="black" points="338.545,-184.558 329.178,-179.607 333.413,-189.318 338.545,-184.558"/>
</g>
<!-- node94&#45;&gt;node91 -->
<g id="edge11" class="edge"><title>node94&#45;&gt;node91</title>
<path fill="none" stroke="black" d="M272.681,-503.682C272.541,-484.204 269.475,-452.61 253,-432 229.16,-402.177 195.578,-428.161 175,-396 163.138,-377.461 168.546,-352.413 175.822,-333.613"/>
<polygon fill="black" stroke="black" points="179.151,-334.729 179.837,-324.156 172.707,-331.993 179.151,-334.729"/>
</g>
<!-- node94&#45;&gt;node93 -->
<g id="edge10" class="edge"><title>node94&#45;&gt;node93</title>
<path fill="none" stroke="black" d="M249.271,-504.765C236.036,-495.311 219.171,-483.265 204.761,-472.972"/>
<polygon fill="black" stroke="black" points="206.778,-470.112 196.606,-467.147 202.709,-475.808 206.778,-470.112"/>
</g>
<!-- node95&#45;&gt;node94 -->
<g id="edge14" class="edge"><title>node95&#45;&gt;node94</title>
<path fill="none" stroke="black" d="M228.798,-576.055C235.73,-567.543 244.259,-557.068 251.902,-547.681"/>
<polygon fill="black" stroke="black" points="254.729,-549.753 258.329,-539.789 249.301,-545.333 254.729,-549.753"/>
</g>
<!-- node96 -->
<g id="node11" class="node"><title>node96</title>
<g id="a_node11"><a xlink:href="reuse_parameter_list_s.svg" xlink:title="&lt;u&gt;parameter_list_s&lt;/u&gt;">
<ellipse fill="none" stroke="black" cx="332" cy="-666" rx="74.713" ry="18"/>
<text text-anchor="start" x="285.739" y="-662.8" font-family="Times,serif" text-decoration="underline" font-size="14.00" fill="blue">parameter_list_s</text>
</a>
</g>
</g>
<!-- node96&#45;&gt;end -->
<g id="edge19" class="edge"><title>node96&#45;&gt;end</title>
<path fill="none" stroke="black" d="M386.576,-653.64C449.685,-636.936 545,-599.109 545,-523 545,-523 545,-523 545,-161 545,-116.473 530.322,-103.647 499,-72 481.221,-54.0366 456.062,-40.7444 435.428,-31.9642"/>
<polygon fill="black" stroke="black" points="436.594,-28.66 426.012,-28.1316 433.955,-35.1435 436.594,-28.66"/>
</g>
<!-- node96&#45;&gt;node89 -->
<g id="edge18" class="edge"><title>node96&#45;&gt;node89</title>
<path fill="none" stroke="black" d="M353.971,-648.384C383.138,-624.249 431,-576.494 431,-523 431,-523 431,-523 431,-305 431,-252.516 382.654,-209.248 347.593,-184.77"/>
<polygon fill="black" stroke="black" points="349.247,-181.663 339.003,-178.957 345.324,-187.46 349.247,-181.663"/>
</g>
<!-- node96&#45;&gt;node91 -->
<g id="edge17" class="edge"><title>node96&#45;&gt;node91</title>
<path fill="none" stroke="black" d="M340.363,-647.706C353.828,-617.271 376.711,-552.748 355,-504 335.539,-460.303 314.127,-459.518 275,-432 247.349,-412.554 228.297,-423.032 208,-396 194.695,-378.28 190.266,-353.262 188.98,-334.262"/>
<polygon fill="black" stroke="black" points="192.472,-333.982 188.548,-324.141 185.478,-334.281 192.472,-333.982"/>
</g>
<!-- node96&#45;&gt;node93 -->
<g id="edge16" class="edge"><title>node96&#45;&gt;node93</title>
<path fill="none" stroke="black" d="M329.675,-647.84C326.091,-627.911 317.359,-595.309 297,-576 260.289,-541.182 221.904,-578.436 189,-540 174.556,-523.127 171.508,-497.653 171.665,-478.275"/>
<polygon fill="black" stroke="black" points="175.165,-478.351 172.03,-468.231 168.169,-478.097 175.165,-478.351"/>
</g>
<!-- node96&#45;&gt;node95 -->
<g id="edge15" class="edge"><title>node96&#45;&gt;node95</title>
<path fill="none" stroke="black" d="M305.451,-649.116C289.145,-639.36 268.063,-626.747 250.354,-616.152"/>
<polygon fill="black" stroke="black" points="251.822,-612.952 241.444,-610.821 248.228,-618.959 251.822,-612.952"/>
</g>
<!-- node97&#45;&gt;node96 -->
<g id="edge20" class="edge"><title>node97&#45;&gt;node96</title>
<path fill="none" stroke="black" d="M308.504,-720.055C312.031,-712.091 316.318,-702.411 320.26,-693.51"/>
<polygon fill="black" stroke="black" points="323.5,-694.836 324.35,-684.275 317.1,-692.002 323.5,-694.836"/>
</g>
</g>
</svg>
