<svg xmlns="http://www.w3.org/2000/svg" xmlns:xlink="http://www.w3.org/1999/xlink" class="railroad-diagram" width="664" height="92" viewBox="0 0 664 92">
<defs>
<style type="text/css"><![CDATA[
path {
stroke-width: 3;
stroke: black;
fill: rgba(0,0,0,0);
}
text {
font: bold 14px monospace;
text-anchor: middle;
}
text.diagram-text {
font-size: 12px;
}
a {
fill: blue;
}
text.diagram-arrow {
font-size: 16px;
}
text.label {
text-anchor: start;
}
text.comment {
font: italic 12px monospace;
}
rect {
stroke-width: 3;
stroke: black;
fill: #BCBCBC;
}
path.diagram-text {
stroke-width: 3;
stroke: black;
fill: #BCBCBC;
cursor: help;
}
]]></style>
</defs>
<g transform="translate(.5 .5)">
<path d="M 20 21 v 20 m 0 -10 h 20.5"></path>
<path d="M40 31h10"></path>
<g>
<path d="M50 31h0"></path>
<path d="M614 31h0"></path>
<g>
<path d="M50 31h0"></path>
<path d="M254 31h0"></path>
<path d="M50 31h20"></path>
<g class="terminal">
<path d="M70 31h0"></path>
<path d="M234 31h0"></path>
<rect x="70" y="20" width="164" height="22" rx="10" ry="10"></rect>
<text x="152" y="35">Token "WParenLeft"</text>
</g>
<path d="M234 31h20"></path>
<path d="M50 31a10 10 0 0 1 10 10v10a10 10 0 0 0 10 10"></path>
<g class="terminal">
<path d="M70 61h4"></path>
<path d="M230 61h4"></path>
<rect x="74" y="50" width="156" height="22" rx="10" ry="10"></rect>
<text x="152" y="65">Token "ParenLeft"</text>
</g>
<path d="M234 61a10 10 0 0 0 10 -10v-10a10 10 0 0 1 10 -10"></path>
</g>
<g>
<path d="M254 31h0"></path>
<path d="M402 31h0"></path>
<path d="M254 31h20"></path>
<g class="non-terminal">
<path d="M274 31h0"></path>
<path d="M382 31h0"></path>
<rect x="274" y="20" width="108" height="22"></rect>
<a xlink:href="reuse_field_chain.svg"><text x="328" y="35">field&#95;chain</text>
</a>
</g>
<path d="M382 31h20"></path>
<path d="M254 31a10 10 0 0 1 10 10v10a10 10 0 0 0 10 10"></path>
<g class="non-terminal">
<path d="M274 61h12"></path>
<path d="M370 61h12"></path>
<rect x="286" y="50" width="84" height="22"></rect>
<a xlink:href="reuse_constant.svg"><text x="328" y="65">constant</text>
</a>
</g>
<path d="M382 61a10 10 0 0 0 10 -10v-10a10 10 0 0 1 10 -10"></path>
</g>
<g>
<path d="M402 31h0"></path>
<path d="M614 31h0"></path>
<path d="M402 31h20"></path>
<g class="terminal">
<path d="M422 31h0"></path>
<path d="M594 31h0"></path>
<rect x="422" y="20" width="172" height="22" rx="10" ry="10"></rect>
<text x="508" y="35">Token "ParenRightW"</text>
</g>
<path d="M594 31h20"></path>
<path d="M402 31a10 10 0 0 1 10 10v10a10 10 0 0 0 10 10"></path>
<g class="terminal">
<path d="M422 61h4"></path>
<path d="M590 61h4"></path>
<rect x="426" y="50" width="164" height="22" rx="10" ry="10"></rect>
<text x="508" y="65">Token "ParenRight"</text>
</g>
<path d="M594 61a10 10 0 0 0 10 -10v-10a10 10 0 0 1 10 -10"></path>
</g>
</g>
<path d="M614 31h10"></path>
<path d="M 624 31 h 20 m 0 -10 v 20"></path>
</g>
</svg>
