<svg xmlns="http://www.w3.org/2000/svg" xmlns:xlink="http://www.w3.org/1999/xlink" class="railroad-diagram" width="1316" height="682" viewBox="0 0 1316 682">
<defs>
<style type="text/css"><![CDATA[
path {
stroke-width: 3;
stroke: black;
fill: rgba(0,0,0,0);
}
text {
font: bold 14px monospace;
text-anchor: middle;
}
text.diagram-text {
font-size: 12px;
}
a {
fill: blue;
}
text.diagram-arrow {
font-size: 16px;
}
text.label {
text-anchor: start;
}
text.comment {
font: italic 12px monospace;
}
rect {
stroke-width: 3;
stroke: black;
fill: #BCBCBC;
}
path.diagram-text {
stroke-width: 3;
stroke: black;
fill: #BCBCBC;
cursor: help;
}
]]></style>
</defs>
<g transform="translate(.5 .5)">
<path d="M 20 30 v 20 m 0 -10 h 20.5"></path>
<g>
<path d="M40 40h0"></path>
<path d="M1276 40h0"></path>
<path d="M40 40h20"></path>
<g>
<path d="M60 40h0"></path>
<path d="M840 40h416"></path>
<g>
<path d="M60 40h0"></path>
<path d="M518 40h0"></path>
<path d="M60 40h20"></path>
<g class="non-terminal">
<path d="M80 40h0"></path>
<path d="M164 40h334"></path>
<rect x="80" y="29" width="84" height="22"></rect>
<a xlink:href="reuse_constant.svg"><text x="122" y="44">Constant</text>
</a>
</g>
<path d="M498 40h20"></path>
<path d="M60 40a10 10 0 0 1 10 10v10a10 10 0 0 0 10 10"></path>
<g class="non-terminal">
<path d="M80 70h0"></path>
<path d="M212 70h286"></path>
<rect x="80" y="59" width="132" height="22"></rect>
<a xlink:href="reuse_stringtemplate.svg"><text x="146" y="74">StringTemplate</text>
</a>
</g>
<path d="M498 70a10 10 0 0 0 10 -10v-10a10 10 0 0 1 10 -10"></path>
<path d="M60 40a10 10 0 0 1 10 10v40a10 10 0 0 0 10 10"></path>
<g>
<path d="M80 100h0"></path>
<path d="M372 100h126"></path>
<g class="terminal">
<path d="M80 100h0"></path>
<path d="M156 100h0"></path>
<rect x="80" y="89" width="76" height="22" rx="10" ry="10"></rect>
<text x="118" y="104">"BOOLC"</text>
</g>
<path d="M156 100h10"></path>
<path d="M166 100h10"></path>
<g class="terminal">
<path d="M176 100h0"></path>
<path d="M236 100h0"></path>
<rect x="176" y="89" width="60" height="22" rx="10" ry="10"></rect>
<text x="206" y="104">!"( "</text>
</g>
<path d="M236 100h10"></path>
<path d="M246 100h10"></path>
<g class="non-terminal">
<path d="M256 100h0"></path>
<path d="M308 100h0"></path>
<rect x="256" y="89" width="52" height="22"></rect>
<a xlink:href="reuse_cond.svg"><text x="282" y="104">Cond</text>
</a>
</g>
<path d="M308 100h10"></path>
<path d="M318 100h10"></path>
<g class="terminal">
<path d="M328 100h0"></path>
<path d="M372 100h0"></path>
<rect x="328" y="89" width="44" height="22" rx="10" ry="10"></rect>
<text x="350" y="104">")"</text>
</g>
</g>
<path d="M498 100a10 10 0 0 0 10 -10v-40a10 10 0 0 1 10 -10"></path>
<path d="M60 40a10 10 0 0 1 10 10v79a10 10 0 0 0 10 10"></path>
<g>
<path d="M80 139h0"></path>
<path d="M498 139h0"></path>
<g class="non-terminal">
<path d="M80 139h0"></path>
<path d="M220 139h0"></path>
<rect x="80" y="128" width="140" height="22"></rect>
<a xlink:href="reuse_methodcallchain.svg"><text x="150" y="143">MethodCallChain</text>
</a>
</g>
<path d="M220 139h10"></path>
<g>
<path d="M230 139h0"></path>
<path d="M498 139h0"></path>
<path d="M230 139a10 10 0 0 0 10 -10v0a10 10 0 0 1 10 -10"></path>
<g>
<path d="M250 119h228"></path>
</g>
<path d="M478 119a10 10 0 0 1 10 10v0a10 10 0 0 0 10 10"></path>
<path d="M230 139h20"></path>
<g>
<path d="M250 139h0"></path>
<path d="M478 139h0"></path>
<g class="non-terminal">
<path d="M250 139h0"></path>
<path d="M358 139h0"></path>
<rect x="250" y="128" width="108" height="22"></rect>
<a xlink:href="reuse_arrowordash.svg"><text x="304" y="143">ArrowOrDash</text>
</a>
</g>
<path d="M358 139h10"></path>
<path d="M368 139h10"></path>
<g class="non-terminal">
<path d="M378 139h0"></path>
<path d="M478 139h0"></path>
<rect x="378" y="128" width="100" height="22"></rect>
<a xlink:href="reuse_fieldchain.svg"><text x="428" y="143">FieldChain</text>
</a>
</g>
</g>
<path d="M478 139h20"></path>
</g>
</g>
<path d="M498 139a10 10 0 0 0 10 -10v-79a10 10 0 0 1 10 -10"></path>
<path d="M60 40a10 10 0 0 1 10 10v118a10 10 0 0 0 10 10"></path>
<g>
<path d="M80 178h0"></path>
<path d="M362 178h136"></path>
<g>
<path d="M80 178h0"></path>
<path d="M252 178h0"></path>
<path d="M80 178a10 10 0 0 0 10 -10v0a10 10 0 0 1 10 -10"></path>
<g>
<path d="M100 158h132"></path>
</g>
<path d="M232 158a10 10 0 0 1 10 10v0a10 10 0 0 0 10 10"></path>
<path d="M80 178h20"></path>
<g>
<path d="M100 178h0"></path>
<path d="M232 178h0"></path>
<path d="M100 178h20"></path>
<g class="terminal">
<path d="M120 178h0"></path>
<path d="M188 178h24"></path>
<rect x="120" y="167" width="68" height="22" rx="10" ry="10"></rect>
<text x="154" y="182">!" - "</text>
</g>
<path d="M212 178h20"></path>
<path d="M100 178a10 10 0 0 1 10 10v10a10 10 0 0 0 10 10"></path>
<g class="terminal">
<path d="M120 208h0"></path>
<path d="M212 208h0"></path>
<rect x="120" y="197" width="92" height="22" rx="10" ry="10"></rect>
<text x="166" y="212">"BIT-NOT"</text>
</g>
<path d="M212 208a10 10 0 0 0 10 -10v-10a10 10 0 0 1 10 -10"></path>
</g>
<path d="M232 178h20"></path>
</g>
<path d="M252 178h10"></path>
<g class="non-terminal">
<path d="M262 178h0"></path>
<path d="M362 178h0"></path>
<rect x="262" y="167" width="100" height="22"></rect>
<a xlink:href="reuse_fieldchain.svg"><text x="312" y="182">FieldChain</text>
</a>
</g>
</g>
<path d="M498 178a10 10 0 0 0 10 -10v-118a10 10 0 0 1 10 -10"></path>
<path d="M60 40a10 10 0 0 1 10 10v178a10 10 0 0 0 10 10"></path>
<g>
<path d="M80 238h0"></path>
<path d="M354 238h144"></path>
<g class="terminal">
<path d="M80 238h0"></path>
<path d="M148 238h0"></path>
<rect x="80" y="227" width="68" height="22" rx="10" ry="10"></rect>
<text x="114" y="242">!" ( "</text>
</g>
<path d="M148 238h10"></path>
<path d="M158 238h10"></path>
<g class="non-terminal">
<path d="M168 238h0"></path>
<path d="M236 238h0"></path>
<rect x="168" y="227" width="68" height="22"></rect>
<a xlink:href="reuse_source.svg"><text x="202" y="242">Source</text>
</a>
</g>
<path d="M236 238h10"></path>
<g>
<path d="M246 238h0"></path>
<path d="M354 238h0"></path>
<path d="M246 238h20"></path>
<g class="terminal">
<path d="M266 238h0"></path>
<path d="M334 238h0"></path>
<rect x="266" y="227" width="68" height="22" rx="10" ry="10"></rect>
<text x="300" y="242">!" ) "</text>
</g>
<path d="M334 238h20"></path>
<path d="M246 238a10 10 0 0 1 10 10v10a10 10 0 0 0 10 10"></path>
<g class="terminal">
<path d="M266 268h0"></path>
<path d="M326 268h8"></path>
<rect x="266" y="257" width="60" height="22" rx="10" ry="10"></rect>
<text x="296" y="272">!" )"</text>
</g>
<path d="M334 268a10 10 0 0 0 10 -10v-10a10 10 0 0 1 10 -10"></path>
</g>
</g>
<path d="M498 238a10 10 0 0 0 10 -10v-178a10 10 0 0 1 10 -10"></path>
</g>
<g>
<path d="M518 40h0"></path>
<path d="M840 40h0"></path>
<path d="M518 40a10 10 0 0 0 10 -10v0a10 10 0 0 1 10 -10"></path>
<g>
<path d="M538 20h282"></path>
</g>
<path d="M820 20a10 10 0 0 1 10 10v0a10 10 0 0 0 10 10"></path>
<path d="M518 40h20"></path>
<g>
<path d="M538 40h0"></path>
<path d="M820 40h0"></path>
<path d="M538 40h20"></path>
<g>
<path d="M558 40h0"></path>
<path d="M706 40h94"></path>
<g class="terminal">
<path d="M558 40h0"></path>
<path d="M642 40h0"></path>
<rect x="558" y="29" width="84" height="22" rx="10" ry="10"></rect>
<text x="600" y="44">!"->/=>"</text>
</g>
<path d="M642 40h10"></path>
<path d="M652 40h10"></path>
<g class="terminal">
<path d="M662 40h0"></path>
<path d="M706 40h0"></path>
<rect x="662" y="29" width="44" height="22" rx="10" ry="10"></rect>
<text x="684" y="44">"&#42;"</text>
</g>
</g>
<path d="M800 40h20"></path>
<path d="M538 40a10 10 0 0 1 10 10v10a10 10 0 0 0 10 10"></path>
<g>
<path d="M558 70h0"></path>
<path d="M800 70h0"></path>
<g>
<path d="M558 70h0"></path>
<path d="M722 70h0"></path>
<path d="M558 70h20"></path>
<g class="terminal">
<path d="M578 70h0"></path>
<path d="M622 70h80"></path>
<rect x="578" y="59" width="44" height="22" rx="10" ry="10"></rect>
<text x="600" y="74">"&#38;"</text>
</g>
<path d="M702 70h20"></path>
<path d="M558 70a10 10 0 0 1 10 10v10a10 10 0 0 0 10 10"></path>
<g class="terminal">
<path d="M578 100h0"></path>
<path d="M630 100h72"></path>
<rect x="578" y="89" width="52" height="22" rx="10" ry="10"></rect>
<text x="604" y="104">"&#38;&#38;"</text>
</g>
<path d="M702 100a10 10 0 0 0 10 -10v-10a10 10 0 0 1 10 -10"></path>
<path d="M558 70a10 10 0 0 1 10 10v40a10 10 0 0 0 10 10"></path>
<g class="non-terminal">
<path d="M578 130h0"></path>
<path d="M702 130h0"></path>
<rect x="578" y="119" width="124" height="22"></rect>
<a xlink:href="reuse_arithoperator.svg"><text x="640" y="134">ArithOperator</text>
</a>
</g>
<path d="M702 130a10 10 0 0 0 10 -10v-40a10 10 0 0 1 10 -10"></path>
</g>
<path d="M722 70h10"></path>
<g class="non-terminal">
<path d="M732 70h0"></path>
<path d="M800 70h0"></path>
<rect x="732" y="59" width="68" height="22"></rect>
<a xlink:href="reuse_source.svg"><text x="766" y="74">Source</text>
</a>
</g>
</g>
<path d="M800 70a10 10 0 0 0 10 -10v-10a10 10 0 0 1 10 -10"></path>
<path d="M538 40a10 10 0 0 1 10 10v100a10 10 0 0 0 10 10"></path>
<g class="non-terminal">
<path d="M558 160h0"></path>
<path d="M650 160h150"></path>
<rect x="558" y="149" width="92" height="22"></rect>
<a xlink:href="reuse_tablebody.svg"><text x="604" y="164">TableBody</text>
</a>
</g>
<path d="M800 160a10 10 0 0 0 10 -10v-100a10 10 0 0 1 10 -10"></path>
</g>
<path d="M820 40h20"></path>
</g>
</g>
<path d="M1256 40h20"></path>
<path d="M40 40a10 10 0 0 1 10 10v247a10 10 0 0 0 10 10"></path>
<g>
<path d="M60 307h0"></path>
<path d="M1256 307h0"></path>
<g>
<path d="M60 307h0"></path>
<path d="M126 307h0"></path>
<text x="93" y="312" class="comment">v740sp05</text>
</g>
<path d="M126 307h10"></path>
<path d="M136 307h10"></path>
<g>
<path d="M146 307h0"></path>
<path d="M1256 307h0"></path>
<g class="terminal">
<path d="M146 307h0"></path>
<path d="M286 307h0"></path>
<rect x="146" y="296" width="140" height="22" rx="10" ry="10"></rect>
<text x="216" y="311">"CORRESPONDING"</text>
</g>
<path d="M286 307h10"></path>
<path d="M296 307h10"></path>
<g class="non-terminal">
<path d="M306 307h0"></path>
<path d="M390 307h0"></path>
<rect x="306" y="296" width="84" height="22"></rect>
<a xlink:href="reuse_typename.svg"><text x="348" y="311">TypeName</text>
</a>
</g>
<path d="M390 307h10"></path>
<path d="M400 307h10"></path>
<g class="terminal">
<path d="M410 307h0"></path>
<path d="M470 307h0"></path>
<rect x="410" y="296" width="60" height="22" rx="10" ry="10"></rect>
<text x="440" y="311">!"( "</text>
</g>
<path d="M470 307h10"></path>
<path d="M480 307h10"></path>
<g class="non-terminal">
<path d="M490 307h0"></path>
<path d="M558 307h0"></path>
<rect x="490" y="296" width="68" height="22"></rect>
<a xlink:href="reuse_source.svg"><text x="524" y="311">Source</text>
</a>
</g>
<path d="M558 307h10"></path>
<g>
<path d="M568 307h0"></path>
<path d="M772 307h0"></path>
<path d="M568 307a10 10 0 0 0 10 -10v0a10 10 0 0 1 10 -10"></path>
<g>
<path d="M588 287h164"></path>
</g>
<path d="M752 287a10 10 0 0 1 10 10v0a10 10 0 0 0 10 10"></path>
<path d="M568 307h20"></path>
<g>
<path d="M588 307h0"></path>
<path d="M752 307h0"></path>
<g class="terminal">
<path d="M588 307h0"></path>
<path d="M672 307h0"></path>
<rect x="588" y="296" width="84" height="22" rx="10" ry="10"></rect>
<text x="630" y="311">"EXCEPT"</text>
</g>
<path d="M672 307h10"></path>
<path d="M682 307h10"></path>
<g class="non-terminal">
<path d="M692 307h0"></path>
<path d="M752 307h0"></path>
<rect x="692" y="296" width="60" height="22"></rect>
<a xlink:href="reuse_field.svg"><text x="722" y="311">Field</text>
</a>
</g>
</g>
<path d="M752 307h20"></path>
</g>
<g>
<path d="M772 307h0"></path>
<path d="M1148 307h0"></path>
<path d="M772 307a10 10 0 0 0 10 -10v0a10 10 0 0 1 10 -10"></path>
<g>
<path d="M792 287h336"></path>
</g>
<path d="M1128 287a10 10 0 0 1 10 10v0a10 10 0 0 0 10 10"></path>
<path d="M772 307h20"></path>
<g>
<path d="M792 307h0"></path>
<path d="M1128 307h0"></path>
<g class="terminal">
<path d="M792 307h0"></path>
<path d="M884 307h0"></path>
<rect x="792" y="296" width="92" height="22" rx="10" ry="10"></rect>
<text x="838" y="311">"MAPPING"</text>
</g>
<path d="M884 307h10"></path>
<path d="M894 307h10"></path>
<g>
<path d="M904 307h0"></path>
<path d="M1128 307h0"></path>
<path d="M904 307h10"></path>
<g>
<path d="M914 307h0"></path>
<path d="M1118 307h0"></path>
<g class="non-terminal">
<path d="M914 307h0"></path>
<path d="M974 307h0"></path>
<rect x="914" y="296" width="60" height="22"></rect>
<a xlink:href="reuse_field.svg"><text x="944" y="311">Field</text>
</a>
</g>
<path d="M974 307h10"></path>
<path d="M984 307h10"></path>
<g class="terminal">
<path d="M994 307h0"></path>
<path d="M1038 307h0"></path>
<rect x="994" y="296" width="44" height="22" rx="10" ry="10"></rect>
<text x="1016" y="311">"="</text>
</g>
<path d="M1038 307h10"></path>
<path d="M1048 307h10"></path>
<g class="non-terminal">
<path d="M1058 307h0"></path>
<path d="M1118 307h0"></path>
<rect x="1058" y="296" width="60" height="22"></rect>
<a xlink:href="reuse_field.svg"><text x="1088" y="311">Field</text>
</a>
</g>
</g>
<path d="M1118 307h10"></path>
<path d="M914 307a10 10 0 0 0 -10 10v0a10 10 0 0 0 10 10"></path>
<g>
<path d="M914 327h204"></path>
</g>
<path d="M1118 327a10 10 0 0 0 10 -10v0a10 10 0 0 0 -10 -10"></path>
</g>
</g>
<path d="M1128 307h20"></path>
</g>
<g>
<path d="M1148 307h0"></path>
<path d="M1256 307h0"></path>
<path d="M1148 307h20"></path>
<g class="terminal">
<path d="M1168 307h0"></path>
<path d="M1236 307h0"></path>
<rect x="1168" y="296" width="68" height="22" rx="10" ry="10"></rect>
<text x="1202" y="311">!" ) "</text>
</g>
<path d="M1236 307h20"></path>
<path d="M1148 307a10 10 0 0 1 10 10v10a10 10 0 0 0 10 10"></path>
<g class="terminal">
<path d="M1168 337h0"></path>
<path d="M1228 337h8"></path>
<rect x="1168" y="326" width="60" height="22" rx="10" ry="10"></rect>
<text x="1198" y="341">!" )"</text>
</g>
<path d="M1236 337a10 10 0 0 0 10 -10v-10a10 10 0 0 1 10 -10"></path>
</g>
</g>
</g>
<path d="M1256 307a10 10 0 0 0 10 -10v-247a10 10 0 0 1 10 -10"></path>
<path d="M40 40a10 10 0 0 1 10 10v307a10 10 0 0 0 10 10"></path>
<g>
<path d="M60 367h0"></path>
<path d="M604 367h652"></path>
<g>
<path d="M60 367h0"></path>
<path d="M126 367h0"></path>
<text x="93" y="372" class="comment">v740sp02</text>
</g>
<path d="M126 367h10"></path>
<path d="M136 367h10"></path>
<g>
<path d="M146 367h0"></path>
<path d="M604 367h0"></path>
<g class="terminal">
<path d="M146 367h0"></path>
<path d="M214 367h0"></path>
<rect x="146" y="356" width="68" height="22" rx="10" ry="10"></rect>
<text x="180" y="371">"CONV"</text>
</g>
<path d="M214 367h10"></path>
<path d="M224 367h10"></path>
<g class="non-terminal">
<path d="M234 367h0"></path>
<path d="M318 367h0"></path>
<rect x="234" y="356" width="84" height="22"></rect>
<a xlink:href="reuse_typename.svg"><text x="276" y="371">TypeName</text>
</a>
</g>
<path d="M318 367h10"></path>
<path d="M328 367h10"></path>
<g class="terminal">
<path d="M338 367h0"></path>
<path d="M398 367h0"></path>
<rect x="338" y="356" width="60" height="22" rx="10" ry="10"></rect>
<text x="368" y="371">!"( "</text>
</g>
<path d="M398 367h10"></path>
<path d="M408 367h10"></path>
<g class="non-terminal">
<path d="M418 367h0"></path>
<path d="M486 367h0"></path>
<rect x="418" y="356" width="68" height="22"></rect>
<a xlink:href="reuse_source.svg"><text x="452" y="371">Source</text>
</a>
</g>
<path d="M486 367h10"></path>
<g>
<path d="M496 367h0"></path>
<path d="M604 367h0"></path>
<path d="M496 367h20"></path>
<g class="terminal">
<path d="M516 367h0"></path>
<path d="M584 367h0"></path>
<rect x="516" y="356" width="68" height="22" rx="10" ry="10"></rect>
<text x="550" y="371">!" ) "</text>
</g>
<path d="M584 367h20"></path>
<path d="M496 367a10 10 0 0 1 10 10v10a10 10 0 0 0 10 10"></path>
<g class="terminal">
<path d="M516 397h0"></path>
<path d="M576 397h8"></path>
<rect x="516" y="386" width="60" height="22" rx="10" ry="10"></rect>
<text x="546" y="401">!" )"</text>
</g>
<path d="M584 397a10 10 0 0 0 10 -10v-10a10 10 0 0 1 10 -10"></path>
</g>
</g>
</g>
<path d="M1256 367a10 10 0 0 0 10 -10v-307a10 10 0 0 1 10 -10"></path>
<path d="M40 40a10 10 0 0 1 10 10v376a10 10 0 0 0 10 10"></path>
<g>
<path d="M60 436h0"></path>
<path d="M1032 436h224"></path>
<g>
<path d="M60 436h0"></path>
<path d="M126 436h0"></path>
<text x="93" y="441" class="comment">v740sp02</text>
</g>
<path d="M126 436h10"></path>
<path d="M136 436h10"></path>
<g>
<path d="M146 436h0"></path>
<path d="M1032 436h0"></path>
<g class="terminal">
<path d="M146 436h0"></path>
<path d="M222 436h0"></path>
<rect x="146" y="425" width="76" height="22" rx="10" ry="10"></rect>
<text x="184" y="440">"VALUE"</text>
</g>
<path d="M222 436h10"></path>
<path d="M232 436h10"></path>
<g class="non-terminal">
<path d="M242 436h0"></path>
<path d="M326 436h0"></path>
<rect x="242" y="425" width="84" height="22"></rect>
<a xlink:href="reuse_typename.svg"><text x="284" y="440">TypeName</text>
</a>
</g>
<path d="M326 436h10"></path>
<path d="M336 436h10"></path>
<g class="terminal">
<path d="M346 436h0"></path>
<path d="M406 436h0"></path>
<rect x="346" y="425" width="60" height="22" rx="10" ry="10"></rect>
<text x="376" y="440">!"( "</text>
</g>
<path d="M406 436h10"></path>
<g>
<path d="M416 436h0"></path>
<path d="M924 436h0"></path>
<path d="M416 436a10 10 0 0 0 10 -10v0a10 10 0 0 1 10 -10"></path>
<g>
<path d="M436 416h468"></path>
</g>
<path d="M904 416a10 10 0 0 1 10 10v0a10 10 0 0 0 10 10"></path>
<path d="M416 436h20"></path>
<g>
<path d="M436 436h0"></path>
<path d="M904 436h0"></path>
<path d="M436 436h20"></path>
<g class="non-terminal">
<path d="M456 436h0"></path>
<path d="M524 436h360"></path>
<rect x="456" y="425" width="68" height="22"></rect>
<a xlink:href="reuse_source.svg"><text x="490" y="440">Source</text>
</a>
</g>
<path d="M884 436h20"></path>
<path d="M436 436a10 10 0 0 1 10 10v10a10 10 0 0 0 10 10"></path>
<g>
<path d="M456 466h0"></path>
<path d="M688 466h196"></path>
<path d="M456 466h10"></path>
<g>
<path d="M466 466h0"></path>
<path d="M678 466h0"></path>
<g class="non-terminal">
<path d="M466 466h0"></path>
<path d="M526 466h0"></path>
<rect x="466" y="455" width="60" height="22"></rect>
<a xlink:href="reuse_field.svg"><text x="496" y="470">Field</text>
</a>
</g>
<path d="M526 466h10"></path>
<path d="M536 466h10"></path>
<g class="terminal">
<path d="M546 466h0"></path>
<path d="M590 466h0"></path>
<rect x="546" y="455" width="44" height="22" rx="10" ry="10"></rect>
<text x="568" y="470">"="</text>
</g>
<path d="M590 466h10"></path>
<path d="M600 466h10"></path>
<g class="non-terminal">
<path d="M610 466h0"></path>
<path d="M678 466h0"></path>
<rect x="610" y="455" width="68" height="22"></rect>
<a xlink:href="reuse_source.svg"><text x="644" y="470">Source</text>
</a>
</g>
</g>
<path d="M678 466h10"></path>
<path d="M466 466a10 10 0 0 0 -10 10v0a10 10 0 0 0 10 10"></path>
<g>
<path d="M466 486h212"></path>
</g>
<path d="M678 486a10 10 0 0 0 10 -10v0a10 10 0 0 0 -10 -10"></path>
</g>
<path d="M884 466a10 10 0 0 0 10 -10v-10a10 10 0 0 1 10 -10"></path>
<path d="M436 436a10 10 0 0 1 10 10v49a10 10 0 0 0 10 10"></path>
<g>
<path d="M456 505h0"></path>
<path d="M884 505h0"></path>
<path d="M456 505h10"></path>
<g>
<path d="M466 505h0"></path>
<path d="M874 505h0"></path>
<g class="terminal">
<path d="M466 505h0"></path>
<path d="M534 505h0"></path>
<rect x="466" y="494" width="68" height="22" rx="10" ry="10"></rect>
<text x="500" y="509">!" ( "</text>
</g>
<path d="M534 505h10"></path>
<path d="M544 505h10"></path>
<g>
<path d="M554 505h0"></path>
<path d="M786 505h0"></path>
<path d="M554 505h10"></path>
<g>
<path d="M564 505h0"></path>
<path d="M776 505h0"></path>
<g class="non-terminal">
<path d="M564 505h0"></path>
<path d="M624 505h0"></path>
<rect x="564" y="494" width="60" height="22"></rect>
<a xlink:href="reuse_field.svg"><text x="594" y="509">Field</text>
</a>
</g>
<path d="M624 505h10"></path>
<path d="M634 505h10"></path>
<g class="terminal">
<path d="M644 505h0"></path>
<path d="M688 505h0"></path>
<rect x="644" y="494" width="44" height="22" rx="10" ry="10"></rect>
<text x="666" y="509">"="</text>
</g>
<path d="M688 505h10"></path>
<path d="M698 505h10"></path>
<g class="non-terminal">
<path d="M708 505h0"></path>
<path d="M776 505h0"></path>
<rect x="708" y="494" width="68" height="22"></rect>
<a xlink:href="reuse_source.svg"><text x="742" y="509">Source</text>
</a>
</g>
</g>
<path d="M776 505h10"></path>
<path d="M564 505a10 10 0 0 0 -10 10v0a10 10 0 0 0 10 10"></path>
<g>
<path d="M564 525h212"></path>
</g>
<path d="M776 525a10 10 0 0 0 10 -10v0a10 10 0 0 0 -10 -10"></path>
</g>
<path d="M786 505h10"></path>
<path d="M796 505h10"></path>
<g class="terminal">
<path d="M806 505h0"></path>
<path d="M874 505h0"></path>
<rect x="806" y="494" width="68" height="22" rx="10" ry="10"></rect>
<text x="840" y="509">!" ) "</text>
</g>
</g>
<path d="M874 505h10"></path>
<path d="M466 505a10 10 0 0 0 -10 10v8a10 10 0 0 0 10 10"></path>
<g>
<path d="M466 533h408"></path>
</g>
<path d="M874 533a10 10 0 0 0 10 -10v-8a10 10 0 0 0 -10 -10"></path>
</g>
<path d="M884 505a10 10 0 0 0 10 -10v-49a10 10 0 0 1 10 -10"></path>
</g>
<path d="M904 436h20"></path>
</g>
<g>
<path d="M924 436h0"></path>
<path d="M1032 436h0"></path>
<path d="M924 436h20"></path>
<g class="terminal">
<path d="M944 436h0"></path>
<path d="M1012 436h0"></path>
<rect x="944" y="425" width="68" height="22" rx="10" ry="10"></rect>
<text x="978" y="440">!" ) "</text>
</g>
<path d="M1012 436h20"></path>
<path d="M924 436a10 10 0 0 1 10 10v10a10 10 0 0 0 10 10"></path>
<g class="terminal">
<path d="M944 466h0"></path>
<path d="M1004 466h8"></path>
<rect x="944" y="455" width="60" height="22" rx="10" ry="10"></rect>
<text x="974" y="470">!" )"</text>
</g>
<path d="M1012 466a10 10 0 0 0 10 -10v-10a10 10 0 0 1 10 -10"></path>
</g>
</g>
</g>
<path d="M1256 436a10 10 0 0 0 10 -10v-376a10 10 0 0 1 10 -10"></path>
<path d="M40 40a10 10 0 0 1 10 10v501a10 10 0 0 0 10 10"></path>
<g>
<path d="M60 561h0"></path>
<path d="M1068 561h188"></path>
<g>
<path d="M60 561h0"></path>
<path d="M126 561h0"></path>
<text x="93" y="566" class="comment">v740sp02</text>
</g>
<path d="M126 561h10"></path>
<path d="M136 561h10"></path>
<g>
<path d="M146 561h0"></path>
<path d="M1068 561h0"></path>
<g class="terminal">
<path d="M146 561h0"></path>
<path d="M214 561h0"></path>
<rect x="146" y="550" width="68" height="22" rx="10" ry="10"></rect>
<text x="180" y="565">"COND"</text>
</g>
<path d="M214 561h10"></path>
<path d="M224 561h10"></path>
<g class="non-terminal">
<path d="M234 561h0"></path>
<path d="M318 561h0"></path>
<rect x="234" y="550" width="84" height="22"></rect>
<a xlink:href="reuse_typename.svg"><text x="276" y="565">TypeName</text>
</a>
</g>
<path d="M318 561h10"></path>
<path d="M328 561h10"></path>
<g class="terminal">
<path d="M338 561h0"></path>
<path d="M398 561h0"></path>
<rect x="338" y="550" width="60" height="22" rx="10" ry="10"></rect>
<text x="368" y="565">!"( "</text>
</g>
<path d="M398 561h10"></path>
<path d="M408 561h10"></path>
<g>
<path d="M418 561h0"></path>
<path d="M754 561h0"></path>
<path d="M418 561h10"></path>
<g>
<path d="M428 561h0"></path>
<path d="M744 561h0"></path>
<g class="terminal">
<path d="M428 561h0"></path>
<path d="M496 561h0"></path>
<rect x="428" y="550" width="68" height="22" rx="10" ry="10"></rect>
<text x="462" y="565">"WHEN"</text>
</g>
<path d="M496 561h10"></path>
<path d="M506 561h10"></path>
<g class="non-terminal">
<path d="M516 561h0"></path>
<path d="M568 561h0"></path>
<rect x="516" y="550" width="52" height="22"></rect>
<a xlink:href="reuse_cond.svg"><text x="542" y="565">Cond</text>
</a>
</g>
<path d="M568 561h10"></path>
<path d="M578 561h10"></path>
<g class="terminal">
<path d="M588 561h0"></path>
<path d="M656 561h0"></path>
<rect x="588" y="550" width="68" height="22" rx="10" ry="10"></rect>
<text x="622" y="565">"THEN"</text>
</g>
<path d="M656 561h10"></path>
<path d="M666 561h10"></path>
<g class="non-terminal">
<path d="M676 561h0"></path>
<path d="M744 561h0"></path>
<rect x="676" y="550" width="68" height="22"></rect>
<a xlink:href="reuse_source.svg"><text x="710" y="565">Source</text>
</a>
</g>
</g>
<path d="M744 561h10"></path>
<path d="M428 561a10 10 0 0 0 -10 10v0a10 10 0 0 0 10 10"></path>
<g>
<path d="M428 581h316"></path>
</g>
<path d="M744 581a10 10 0 0 0 10 -10v0a10 10 0 0 0 -10 -10"></path>
</g>
<path d="M754 561h10"></path>
<g>
<path d="M764 561h0"></path>
<path d="M960 561h0"></path>
<path d="M764 561a10 10 0 0 0 10 -10v0a10 10 0 0 1 10 -10"></path>
<g>
<path d="M784 541h156"></path>
</g>
<path d="M940 541a10 10 0 0 1 10 10v0a10 10 0 0 0 10 10"></path>
<path d="M764 561h20"></path>
<g>
<path d="M784 561h0"></path>
<path d="M940 561h0"></path>
<g class="terminal">
<path d="M784 561h0"></path>
<path d="M852 561h0"></path>
<rect x="784" y="550" width="68" height="22" rx="10" ry="10"></rect>
<text x="818" y="565">"ELSE"</text>
</g>
<path d="M852 561h10"></path>
<path d="M862 561h10"></path>
<g class="non-terminal">
<path d="M872 561h0"></path>
<path d="M940 561h0"></path>
<rect x="872" y="550" width="68" height="22"></rect>
<a xlink:href="reuse_source.svg"><text x="906" y="565">Source</text>
</a>
</g>
</g>
<path d="M940 561h20"></path>
</g>
<g>
<path d="M960 561h0"></path>
<path d="M1068 561h0"></path>
<path d="M960 561h20"></path>
<g class="terminal">
<path d="M980 561h0"></path>
<path d="M1048 561h0"></path>
<rect x="980" y="550" width="68" height="22" rx="10" ry="10"></rect>
<text x="1014" y="565">!" ) "</text>
</g>
<path d="M1048 561h20"></path>
<path d="M960 561a10 10 0 0 1 10 10v10a10 10 0 0 0 10 10"></path>
<g class="terminal">
<path d="M980 591h0"></path>
<path d="M1040 591h8"></path>
<rect x="980" y="580" width="60" height="22" rx="10" ry="10"></rect>
<text x="1010" y="595">!" )"</text>
</g>
<path d="M1048 591a10 10 0 0 0 10 -10v-10a10 10 0 0 1 10 -10"></path>
</g>
</g>
</g>
<path d="M1256 561a10 10 0 0 0 10 -10v-501a10 10 0 0 1 10 -10"></path>
<path d="M40 40a10 10 0 0 1 10 10v561a10 10 0 0 0 10 10"></path>
<g>
<path d="M60 621h0"></path>
<path d="M596 621h660"></path>
<g>
<path d="M60 621h0"></path>
<path d="M126 621h0"></path>
<text x="93" y="626" class="comment">v740sp02</text>
</g>
<path d="M126 621h10"></path>
<path d="M136 621h10"></path>
<g>
<path d="M146 621h0"></path>
<path d="M596 621h0"></path>
<g class="terminal">
<path d="M146 621h0"></path>
<path d="M206 621h0"></path>
<rect x="146" y="610" width="60" height="22" rx="10" ry="10"></rect>
<text x="176" y="625">"REF"</text>
</g>
<path d="M206 621h10"></path>
<path d="M216 621h10"></path>
<g class="non-terminal">
<path d="M226 621h0"></path>
<path d="M310 621h0"></path>
<rect x="226" y="610" width="84" height="22"></rect>
<a xlink:href="reuse_typename.svg"><text x="268" y="625">TypeName</text>
</a>
</g>
<path d="M310 621h10"></path>
<path d="M320 621h10"></path>
<g class="terminal">
<path d="M330 621h0"></path>
<path d="M390 621h0"></path>
<rect x="330" y="610" width="60" height="22" rx="10" ry="10"></rect>
<text x="360" y="625">!"( "</text>
</g>
<path d="M390 621h10"></path>
<path d="M400 621h10"></path>
<g class="non-terminal">
<path d="M410 621h0"></path>
<path d="M478 621h0"></path>
<rect x="410" y="610" width="68" height="22"></rect>
<a xlink:href="reuse_source.svg"><text x="444" y="625">Source</text>
</a>
</g>
<path d="M478 621h10"></path>
<g>
<path d="M488 621h0"></path>
<path d="M596 621h0"></path>
<path d="M488 621h20"></path>
<g class="terminal">
<path d="M508 621h0"></path>
<path d="M576 621h0"></path>
<rect x="508" y="610" width="68" height="22" rx="10" ry="10"></rect>
<text x="542" y="625">!" ) "</text>
</g>
<path d="M576 621h20"></path>
<path d="M488 621a10 10 0 0 1 10 10v10a10 10 0 0 0 10 10"></path>
<g class="terminal">
<path d="M508 651h0"></path>
<path d="M568 651h8"></path>
<rect x="508" y="640" width="60" height="22" rx="10" ry="10"></rect>
<text x="538" y="655">!" )"</text>
</g>
<path d="M576 651a10 10 0 0 0 10 -10v-10a10 10 0 0 1 10 -10"></path>
</g>
</g>
</g>
<path d="M1256 621a10 10 0 0 0 10 -10v-561a10 10 0 0 1 10 -10"></path>
</g>
<path d="M 1276 40 h 20 m 0 -10 v 20"></path>
</g>
</svg>
