<svg xmlns="http://www.w3.org/2000/svg" xmlns:xlink="http://www.w3.org/1999/xlink" class="railroad-diagram" width="960" height="260" viewBox="0 0 960 260">
<defs>
<style type="text/css"><![CDATA[
path {
stroke-width: 3;
stroke: black;
fill: rgba(0,0,0,0);
}
text {
font: bold 14px monospace;
text-anchor: middle;
}
text.diagram-text {
font-size: 12px;
}
a {
fill: blue;
}
text.diagram-arrow {
font-size: 16px;
}
text.label {
text-anchor: start;
}
text.comment {
font: italic 12px monospace;
}
rect {
stroke-width: 3;
stroke: black;
fill: #BCBCBC;
}
path.diagram-text {
stroke-width: 3;
stroke: black;
fill: #BCBCBC;
cursor: help;
}
]]></style>
</defs>
<g transform="translate(.5 .5)">
<path d="M 20 30 v 20 m 0 -10 h 20.5"></path>
<path d="M40 40h10"></path>
<g>
<path d="M50 40h0"></path>
<path d="M910 40h0"></path>
<g>
<path d="M50 40h0"></path>
<path d="M580 40h0"></path>
<path d="M50 40h20"></path>
<g class="non-terminal">
<path d="M70 40h203"></path>
<path d="M357 40h203"></path>
<rect x="273" y="29" width="84" height="22"></rect>
<a xlink:href="reuse_constant.svg"><text x="315" y="44">constant</text>
</a>
</g>
<path d="M560 40h20"></path>
<path d="M50 40a10 10 0 0 1 10 10v10a10 10 0 0 0 10 10"></path>
<g class="non-terminal">
<path d="M70 70h175"></path>
<path d="M385 70h175"></path>
<rect x="245" y="59" width="140" height="22"></rect>
<a xlink:href="reuse_string_template.svg"><text x="315" y="74">string&#95;template</text>
</a>
</g>
<path d="M560 70a10 10 0 0 0 10 -10v-10a10 10 0 0 1 10 -10"></path>
<path d="M50 40a10 10 0 0 1 10 10v40a10 10 0 0 0 10 10"></path>
<g>
<path d="M70 100h47"></path>
<path d="M513 100h47"></path>
<g class="terminal">
<path d="M117 100h0"></path>
<path d="M193 100h0"></path>
<rect x="117" y="89" width="76" height="22" rx="10" ry="10"></rect>
<text x="155" y="104">"BOOLC"</text>
</g>
<path d="M193 100h10"></path>
<path d="M203 100h10"></path>
<g class="terminal">
<path d="M213 100h0"></path>
<path d="M377 100h0"></path>
<rect x="213" y="89" width="164" height="22" rx="10" ry="10"></rect>
<text x="295" y="104">Token "ParenLeftW"</text>
</g>
<path d="M377 100h10"></path>
<path d="M387 100h10"></path>
<g class="non-terminal">
<path d="M397 100h0"></path>
<path d="M449 100h0"></path>
<rect x="397" y="89" width="52" height="22"></rect>
<a xlink:href="reuse_cond.svg"><text x="423" y="104">cond</text>
</a>
</g>
<path d="M449 100h10"></path>
<path d="M459 100h10"></path>
<g class="terminal">
<path d="M469 100h0"></path>
<path d="M513 100h0"></path>
<rect x="469" y="89" width="44" height="22" rx="10" ry="10"></rect>
<text x="491" y="104">")"</text>
</g>
</g>
<path d="M560 100a10 10 0 0 0 10 -10v-40a10 10 0 0 1 10 -10"></path>
<path d="M50 40a10 10 0 0 1 10 10v79a10 10 0 0 0 10 10"></path>
<g>
<path d="M70 139h16"></path>
<path d="M544 139h16"></path>
<g class="non-terminal">
<path d="M86 139h0"></path>
<path d="M242 139h0"></path>
<rect x="86" y="128" width="156" height="22"></rect>
<a xlink:href="reuse_method_call_chain.svg"><text x="164" y="143">method&#95;call&#95;chain</text>
</a>
</g>
<path d="M242 139h10"></path>
<g>
<path d="M252 139h0"></path>
<path d="M544 139h0"></path>
<path d="M252 139a10 10 0 0 0 10 -10v0a10 10 0 0 1 10 -10"></path>
<g>
<path d="M272 119h252"></path>
</g>
<path d="M524 119a10 10 0 0 1 10 10v0a10 10 0 0 0 10 10"></path>
<path d="M252 139h20"></path>
<g>
<path d="M272 139h0"></path>
<path d="M524 139h0"></path>
<g class="non-terminal">
<path d="M272 139h0"></path>
<path d="M396 139h0"></path>
<rect x="272" y="128" width="124" height="22"></rect>
<a xlink:href="reuse_arrow_or_dash.svg"><text x="334" y="143">arrow&#95;or&#95;dash</text>
</a>
</g>
<path d="M396 139h10"></path>
<path d="M406 139h10"></path>
<g class="non-terminal">
<path d="M416 139h0"></path>
<path d="M524 139h0"></path>
<rect x="416" y="128" width="108" height="22"></rect>
<a xlink:href="reuse_field_chain.svg"><text x="470" y="143">field&#95;chain</text>
</a>
</g>
</g>
<path d="M524 139h20"></path>
</g>
</g>
<path d="M560 139a10 10 0 0 0 10 -10v-79a10 10 0 0 1 10 -10"></path>
<path d="M50 40a10 10 0 0 1 10 10v109a10 10 0 0 0 10 10"></path>
<g class="non-terminal">
<path d="M70 169h191"></path>
<path d="M369 169h191"></path>
<rect x="261" y="158" width="108" height="22"></rect>
<a xlink:href="reuse_field_chain.svg"><text x="315" y="173">field&#95;chain</text>
</a>
</g>
<path d="M560 169a10 10 0 0 0 10 -10v-109a10 10 0 0 1 10 -10"></path>
<path d="M50 40a10 10 0 0 1 10 10v139a10 10 0 0 0 10 10"></path>
<g>
<path d="M70 199h0"></path>
<path d="M560 199h0"></path>
<g class="terminal">
<path d="M70 199h0"></path>
<path d="M242 199h0"></path>
<rect x="70" y="188" width="172" height="22" rx="10" ry="10"></rect>
<text x="156" y="203">Token "WParenLeftW"</text>
</g>
<path d="M242 199h10"></path>
<path d="M252 199h10"></path>
<g class="non-terminal">
<path d="M262 199h0"></path>
<path d="M330 199h0"></path>
<rect x="262" y="188" width="68" height="22"></rect>
<a xlink:href="reuse_source.svg"><text x="296" y="203">source</text>
</a>
</g>
<path d="M330 199h10"></path>
<g>
<path d="M340 199h0"></path>
<path d="M560 199h0"></path>
<path d="M340 199h20"></path>
<g class="terminal">
<path d="M360 199h0"></path>
<path d="M540 199h0"></path>
<rect x="360" y="188" width="180" height="22" rx="10" ry="10"></rect>
<text x="450" y="203">Token "WParenRightW"</text>
</g>
<path d="M540 199h20"></path>
<path d="M340 199a10 10 0 0 1 10 10v10a10 10 0 0 0 10 10"></path>
<g class="terminal">
<path d="M360 229h4"></path>
<path d="M536 229h4"></path>
<rect x="364" y="218" width="172" height="22" rx="10" ry="10"></rect>
<text x="450" y="233">Token "WParenRight"</text>
</g>
<path d="M540 229a10 10 0 0 0 10 -10v-10a10 10 0 0 1 10 -10"></path>
</g>
</g>
<path d="M560 199a10 10 0 0 0 10 -10v-139a10 10 0 0 1 10 -10"></path>
</g>
<g>
<path d="M580 40h0"></path>
<path d="M910 40h0"></path>
<path d="M580 40a10 10 0 0 0 10 -10v0a10 10 0 0 1 10 -10"></path>
<g>
<path d="M600 20h290"></path>
</g>
<path d="M890 20a10 10 0 0 1 10 10v0a10 10 0 0 0 10 10"></path>
<path d="M580 40h20"></path>
<g>
<path d="M600 40h0"></path>
<path d="M890 40h0"></path>
<path d="M600 40h20"></path>
<g>
<path d="M620 40h63"></path>
<path d="M807 40h63"></path>
<g class="non-terminal">
<path d="M683 40h0"></path>
<path d="M743 40h0"></path>
<rect x="683" y="29" width="60" height="22"></rect>
<a xlink:href="reuse_arrow.svg"><text x="713" y="44">arrow</text>
</a>
</g>
<path d="M743 40h10"></path>
<path d="M753 40h10"></path>
<g class="terminal">
<path d="M763 40h0"></path>
<path d="M807 40h0"></path>
<rect x="763" y="29" width="44" height="22" rx="10" ry="10"></rect>
<text x="785" y="44">"&#42;"</text>
</g>
</g>
<path d="M870 40h20"></path>
<path d="M600 40a10 10 0 0 1 10 10v10a10 10 0 0 0 10 10"></path>
<g>
<path d="M620 70h0"></path>
<path d="M870 70h0"></path>
<g>
<path d="M620 70h0"></path>
<path d="M792 70h0"></path>
<path d="M620 70h20"></path>
<g class="terminal">
<path d="M640 70h44"></path>
<path d="M728 70h44"></path>
<rect x="684" y="59" width="44" height="22" rx="10" ry="10"></rect>
<text x="706" y="74">"&#38;"</text>
</g>
<path d="M772 70h20"></path>
<path d="M620 70a10 10 0 0 1 10 10v10a10 10 0 0 0 10 10"></path>
<g class="terminal">
<path d="M640 100h40"></path>
<path d="M732 100h40"></path>
<rect x="680" y="89" width="52" height="22" rx="10" ry="10"></rect>
<text x="706" y="104">"&#38;&#38;"</text>
</g>
<path d="M772 100a10 10 0 0 0 10 -10v-10a10 10 0 0 1 10 -10"></path>
<path d="M620 70a10 10 0 0 1 10 10v40a10 10 0 0 0 10 10"></path>
<g class="non-terminal">
<path d="M640 130h0"></path>
<path d="M772 130h0"></path>
<rect x="640" y="119" width="132" height="22"></rect>
<a xlink:href="reuse_arith_operator.svg"><text x="706" y="134">arith&#95;operator</text>
</a>
</g>
<path d="M772 130a10 10 0 0 0 10 -10v-40a10 10 0 0 1 10 -10"></path>
</g>
<path d="M792 70h10"></path>
<g class="non-terminal">
<path d="M802 70h0"></path>
<path d="M870 70h0"></path>
<rect x="802" y="59" width="68" height="22"></rect>
<a xlink:href="reuse_source.svg"><text x="836" y="74">source</text>
</a>
</g>
</g>
<path d="M870 70a10 10 0 0 0 10 -10v-10a10 10 0 0 1 10 -10"></path>
<path d="M600 40a10 10 0 0 1 10 10v100a10 10 0 0 0 10 10"></path>
<g class="non-terminal">
<path d="M620 160h75"></path>
<path d="M795 160h75"></path>
<rect x="695" y="149" width="100" height="22"></rect>
<a xlink:href="reuse_table_body.svg"><text x="745" y="164">table&#95;body</text>
</a>
</g>
<path d="M870 160a10 10 0 0 0 10 -10v-100a10 10 0 0 1 10 -10"></path>
</g>
<path d="M890 40h20"></path>
</g>
</g>
<path d="M910 40h10"></path>
<path d="M 920 40 h 20 m 0 -10 v 20"></path>
</g>
</svg>
