<?xml version="1.0" encoding="UTF-8" standalone="no"?>
<!DOCTYPE svg PUBLIC "-//W3C//DTD SVG 1.1//EN"
 "http://www.w3.org/Graphics/SVG/1.1/DTD/svg11.dtd">
<!-- Generated by graphviz version 2.38.0 (20140413.2041)
 -->
<!-- Title: constant Pages: 1 -->
<svg width="199pt" height="404pt"
 viewBox="0.00 0.00 199.38 404.00" xmlns="http://www.w3.org/2000/svg" xmlns:xlink="http://www.w3.org/1999/xlink">
<g id="graph0" class="graph" transform="scale(1 1) rotate(0) translate(4 400)">
<title>constant</title>
<polygon fill="white" stroke="none" points="-4,4 -4,-400 195.376,-400 195.376,4 -4,4"/>
<!-- start -->
<g id="node1" class="node"><title>start</title>
<polygon fill="none" stroke="blue" points="134.527,-396 80.5273,-396 80.5273,-360 134.527,-360 134.527,-396"/>
<text text-anchor="middle" x="107.527" y="-373.8" font-family="Times,serif" font-size="14.00">Start</text>
</g>
<!-- node153 -->
<g id="node6" class="node"><title>node153</title>
<ellipse fill="none" stroke="black" cx="62.5273" cy="-306" rx="62.5547" ry="18"/>
<text text-anchor="middle" x="62.5273" y="-301.8" font-family="Times,serif" font-size="14.00">^(&#39;.*&#39;)|(`.*`)$</text>
</g>
<!-- start&#45;&gt;node153 -->
<g id="edge7" class="edge"><title>start&#45;&gt;node153</title>
<path fill="none" stroke="black" d="M96.4037,-359.697C91.1723,-351.559 84.8274,-341.689 79.0496,-332.701"/>
<polygon fill="black" stroke="black" points="81.8747,-330.623 73.523,-324.104 75.9865,-334.409 81.8747,-330.623"/>
</g>
<!-- node154 -->
<g id="node7" class="node"><title>node154</title>
<g id="a_node7"><a xlink:href="reuse_integer.svg" xlink:title="&lt;u&gt;integer&lt;/u&gt;">
<ellipse fill="none" stroke="black" cx="153.527" cy="-234" rx="37.6986" ry="18"/>
<text text-anchor="start" x="134.092" y="-230.8" font-family="Times,serif" text-decoration="underline" font-size="14.00" fill="blue">integer</text>
</a>
</g>
</g>
<!-- start&#45;&gt;node154 -->
<g id="edge8" class="edge"><title>start&#45;&gt;node154</title>
<path fill="none" stroke="black" d="M117.714,-359.844C123.36,-349.708 130.11,-336.458 134.527,-324 141.688,-303.804 146.594,-280.028 149.625,-262.134"/>
<polygon fill="black" stroke="black" points="153.107,-262.521 151.234,-252.093 146.196,-261.413 153.107,-262.521"/>
</g>
<!-- end -->
<g id="node2" class="node"><title>end</title>
<polygon fill="none" stroke="blue" points="109.527,-36 55.5273,-36 55.5273,-0 109.527,-0 109.527,-36"/>
<text text-anchor="middle" x="82.5273" y="-13.8" font-family="Times,serif" font-size="14.00">End</text>
</g>
<!-- node150 -->
<g id="node3" class="node"><title>node150</title>
<ellipse fill="none" stroke="black" cx="82.5273" cy="-90" rx="27" ry="18"/>
<text text-anchor="middle" x="82.5273" y="-85.8" font-family="Times,serif" font-size="14.00">&quot;)&quot;</text>
</g>
<!-- node150&#45;&gt;end -->
<g id="edge1" class="edge"><title>node150&#45;&gt;end</title>
<path fill="none" stroke="black" d="M82.5273,-71.6966C82.5273,-63.9827 82.5273,-54.7125 82.5273,-46.1124"/>
<polygon fill="black" stroke="black" points="86.0274,-46.1043 82.5273,-36.1043 79.0274,-46.1044 86.0274,-46.1043"/>
</g>
<!-- node151 -->
<g id="node4" class="node"><title>node151</title>
<ellipse fill="none" stroke="black" cx="82.5273" cy="-162" rx="42.8592" ry="18"/>
<text text-anchor="middle" x="82.5273" y="-157.8" font-family="Times,serif" font-size="14.00">^\d\d\d$</text>
</g>
<!-- node151&#45;&gt;node150 -->
<g id="edge2" class="edge"><title>node151&#45;&gt;node150</title>
<path fill="none" stroke="black" d="M82.5273,-143.697C82.5273,-135.983 82.5273,-126.712 82.5273,-118.112"/>
<polygon fill="black" stroke="black" points="86.0274,-118.104 82.5273,-108.104 79.0274,-118.104 86.0274,-118.104"/>
</g>
<!-- node152 -->
<g id="node5" class="node"><title>node152</title>
<ellipse fill="none" stroke="black" cx="68.5273" cy="-234" rx="27" ry="18"/>
<text text-anchor="middle" x="68.5273" y="-229.8" font-family="Times,serif" font-size="14.00">&quot;(&quot;</text>
</g>
<!-- node152&#45;&gt;node151 -->
<g id="edge3" class="edge"><title>node152&#45;&gt;node151</title>
<path fill="none" stroke="black" d="M71.9163,-216.055C73.4582,-208.346 75.322,-199.027 77.0545,-190.364"/>
<polygon fill="black" stroke="black" points="80.5431,-190.768 79.0723,-180.275 73.679,-189.395 80.5431,-190.768"/>
</g>
<!-- node153&#45;&gt;end -->
<g id="edge5" class="edge"><title>node153&#45;&gt;end</title>
<path fill="none" stroke="black" d="M50.2486,-288.279C43.6557,-278.288 36.1557,-265.038 32.5273,-252 19.6563,-205.749 25.2888,-191.722 30.5273,-144 34.1043,-111.415 33.5309,-102.094 46.5273,-72 50.6514,-62.4504 56.5663,-52.8053 62.4134,-44.4088"/>
<polygon fill="black" stroke="black" points="65.3556,-46.3138 68.4042,-36.167 59.6934,-42.198 65.3556,-46.3138"/>
</g>
<!-- node153&#45;&gt;node152 -->
<g id="edge4" class="edge"><title>node153&#45;&gt;node152</title>
<path fill="none" stroke="black" d="M64.0105,-287.697C64.6717,-279.983 65.4663,-270.712 66.2034,-262.112"/>
<polygon fill="black" stroke="black" points="69.6944,-262.367 67.0613,-252.104 62.7199,-261.769 69.6944,-262.367"/>
</g>
<!-- node154&#45;&gt;end -->
<g id="edge6" class="edge"><title>node154&#45;&gt;end</title>
<path fill="none" stroke="black" d="M151.994,-215.887C148.824,-185.734 139.961,-121.632 118.527,-72 114.403,-62.4504 108.488,-52.8053 102.641,-44.4088"/>
<polygon fill="black" stroke="black" points="105.361,-42.198 96.6505,-36.167 99.6991,-46.3138 105.361,-42.198"/>
</g>
</g>
</svg>
