<svg xmlns="http://www.w3.org/2000/svg" xmlns:xlink="http://www.w3.org/1999/xlink" class="railroad-diagram" width="1010" height="727" viewBox="0 0 1010 727">
<defs>
<style type="text/css"><![CDATA[
path {
stroke-width: 3;
stroke: black;
fill: rgba(0,0,0,0);
}
text {
font: bold 14px monospace;
text-anchor: middle;
}
text.diagram-text {
font-size: 12px;
}
a {
fill: blue;
}
text.diagram-arrow {
font-size: 16px;
}
text.label {
text-anchor: start;
}
text.comment {
font: italic 12px monospace;
}
rect {
stroke-width: 3;
stroke: black;
fill: #BCBCBC;
}
path.diagram-text {
stroke-width: 3;
stroke: black;
fill: #BCBCBC;
cursor: help;
}
]]></style>
</defs>
<g transform="translate(.5 .5)">
<path d="M 20 30 v 20 m 0 -10 h 20.5"></path>
<g>
<path d="M40 40h0"></path>
<path d="M970 40h0"></path>
<path d="M40 40h20"></path>
<g>
<path d="M60 40h0"></path>
<path d="M950 40h0"></path>
<g class="non-terminal">
<path d="M60 40h0"></path>
<path d="M176 40h0"></path>
<rect x="60" y="29" width="116" height="22"></rect>
<a xlink:href="reuse_sqlfieldname.svg"><text x="118" y="44">SQLFieldName</text>
</a>
</g>
<path d="M176 40h10"></path>
<g>
<path d="M186 40h0"></path>
<path d="M950 40h0"></path>
<path d="M186 40h20"></path>
<g>
<path d="M206 40h0"></path>
<path d="M578 40h352"></path>
<g>
<path d="M206 40h0"></path>
<path d="M314 40h0"></path>
<path d="M206 40h20"></path>
<g class="terminal">
<path d="M226 40h0"></path>
<path d="M270 40h24"></path>
<rect x="226" y="29" width="44" height="22" rx="10" ry="10"></rect>
<text x="248" y="44">"="</text>
</g>
<path d="M294 40h20"></path>
<path d="M206 40a10 10 0 0 1 10 10v10a10 10 0 0 0 10 10"></path>
<g class="terminal">
<path d="M226 70h0"></path>
<path d="M278 70h16"></path>
<rect x="226" y="59" width="52" height="22" rx="10" ry="10"></rect>
<text x="252" y="74">"&#60;>"</text>
</g>
<path d="M294 70a10 10 0 0 0 10 -10v-10a10 10 0 0 1 10 -10"></path>
<path d="M206 40a10 10 0 0 1 10 10v40a10 10 0 0 0 10 10"></path>
<g class="terminal">
<path d="M226 100h0"></path>
<path d="M278 100h16"></path>
<rect x="226" y="89" width="52" height="22" rx="10" ry="10"></rect>
<text x="252" y="104">">&#60;"</text>
</g>
<path d="M294 100a10 10 0 0 0 10 -10v-40a10 10 0 0 1 10 -10"></path>
<path d="M206 40a10 10 0 0 1 10 10v70a10 10 0 0 0 10 10"></path>
<g class="terminal">
<path d="M226 130h0"></path>
<path d="M270 130h24"></path>
<rect x="226" y="119" width="44" height="22" rx="10" ry="10"></rect>
<text x="248" y="134">"&#60;"</text>
</g>
<path d="M294 130a10 10 0 0 0 10 -10v-70a10 10 0 0 1 10 -10"></path>
<path d="M206 40a10 10 0 0 1 10 10v100a10 10 0 0 0 10 10"></path>
<g class="terminal">
<path d="M226 160h0"></path>
<path d="M270 160h24"></path>
<rect x="226" y="149" width="44" height="22" rx="10" ry="10"></rect>
<text x="248" y="164">">"</text>
</g>
<path d="M294 160a10 10 0 0 0 10 -10v-100a10 10 0 0 1 10 -10"></path>
<path d="M206 40a10 10 0 0 1 10 10v130a10 10 0 0 0 10 10"></path>
<g class="terminal">
<path d="M226 190h0"></path>
<path d="M278 190h16"></path>
<rect x="226" y="179" width="52" height="22" rx="10" ry="10"></rect>
<text x="252" y="194">"&#60;="</text>
</g>
<path d="M294 190a10 10 0 0 0 10 -10v-130a10 10 0 0 1 10 -10"></path>
<path d="M206 40a10 10 0 0 1 10 10v160a10 10 0 0 0 10 10"></path>
<g class="terminal">
<path d="M226 220h0"></path>
<path d="M278 220h16"></path>
<rect x="226" y="209" width="52" height="22" rx="10" ry="10"></rect>
<text x="252" y="224">">="</text>
</g>
<path d="M294 220a10 10 0 0 0 10 -10v-160a10 10 0 0 1 10 -10"></path>
<path d="M206 40a10 10 0 0 1 10 10v190a10 10 0 0 0 10 10"></path>
<g class="terminal">
<path d="M226 250h0"></path>
<path d="M278 250h16"></path>
<rect x="226" y="239" width="52" height="22" rx="10" ry="10"></rect>
<text x="252" y="254">"EQ"</text>
</g>
<path d="M294 250a10 10 0 0 0 10 -10v-190a10 10 0 0 1 10 -10"></path>
<path d="M206 40a10 10 0 0 1 10 10v220a10 10 0 0 0 10 10"></path>
<g class="terminal">
<path d="M226 280h0"></path>
<path d="M278 280h16"></path>
<rect x="226" y="269" width="52" height="22" rx="10" ry="10"></rect>
<text x="252" y="284">"NE"</text>
</g>
<path d="M294 280a10 10 0 0 0 10 -10v-220a10 10 0 0 1 10 -10"></path>
<path d="M206 40a10 10 0 0 1 10 10v250a10 10 0 0 0 10 10"></path>
<g class="terminal">
<path d="M226 310h0"></path>
<path d="M278 310h16"></path>
<rect x="226" y="299" width="52" height="22" rx="10" ry="10"></rect>
<text x="252" y="314">"GE"</text>
</g>
<path d="M294 310a10 10 0 0 0 10 -10v-250a10 10 0 0 1 10 -10"></path>
<path d="M206 40a10 10 0 0 1 10 10v280a10 10 0 0 0 10 10"></path>
<g class="terminal">
<path d="M226 340h0"></path>
<path d="M278 340h16"></path>
<rect x="226" y="329" width="52" height="22" rx="10" ry="10"></rect>
<text x="252" y="344">"GT"</text>
</g>
<path d="M294 340a10 10 0 0 0 10 -10v-280a10 10 0 0 1 10 -10"></path>
<path d="M206 40a10 10 0 0 1 10 10v310a10 10 0 0 0 10 10"></path>
<g class="terminal">
<path d="M226 370h0"></path>
<path d="M278 370h16"></path>
<rect x="226" y="359" width="52" height="22" rx="10" ry="10"></rect>
<text x="252" y="374">"LT"</text>
</g>
<path d="M294 370a10 10 0 0 0 10 -10v-310a10 10 0 0 1 10 -10"></path>
<path d="M206 40a10 10 0 0 1 10 10v340a10 10 0 0 0 10 10"></path>
<g class="terminal">
<path d="M226 400h0"></path>
<path d="M278 400h16"></path>
<rect x="226" y="389" width="52" height="22" rx="10" ry="10"></rect>
<text x="252" y="404">"LE"</text>
</g>
<path d="M294 400a10 10 0 0 0 10 -10v-340a10 10 0 0 1 10 -10"></path>
<path d="M206 40a10 10 0 0 1 10 10v370a10 10 0 0 0 10 10"></path>
<g class="terminal">
<path d="M226 430h0"></path>
<path d="M294 430h0"></path>
<rect x="226" y="419" width="68" height="22" rx="10" ry="10"></rect>
<text x="260" y="434">"LIKE"</text>
</g>
<path d="M294 430a10 10 0 0 0 10 -10v-370a10 10 0 0 1 10 -10"></path>
</g>
<g>
<path d="M314 40h0"></path>
<path d="M500 40h0"></path>
<path d="M314 40a10 10 0 0 0 10 -10v0a10 10 0 0 1 10 -10"></path>
<g>
<path d="M334 20h146"></path>
</g>
<path d="M480 20a10 10 0 0 1 10 10v0a10 10 0 0 0 10 10"></path>
<path d="M314 40h20"></path>
<g>
<path d="M334 40h0"></path>
<path d="M480 40h0"></path>
<g>
<path d="M334 40h0"></path>
<path d="M400 40h0"></path>
<text x="367" y="45" class="comment">v740sp05</text>
</g>
<path d="M400 40h10"></path>
<path d="M410 40h10"></path>
<g class="terminal">
<path d="M420 40h0"></path>
<path d="M480 40h0"></path>
<rect x="420" y="29" width="60" height="22" rx="10" ry="10"></rect>
<text x="450" y="44">!" @"</text>
</g>
</g>
<path d="M480 40h20"></path>
</g>
<path d="M500 40h10"></path>
<g class="non-terminal">
<path d="M510 40h0"></path>
<path d="M578 40h0"></path>
<rect x="510" y="29" width="68" height="22"></rect>
<a xlink:href="reuse_source.svg"><text x="544" y="44">Source</text>
</a>
</g>
</g>
<path d="M930 40h20"></path>
<path d="M186 40a10 10 0 0 1 10 10v409a10 10 0 0 0 10 10"></path>
<g>
<path d="M206 469h0"></path>
<path d="M930 469h0"></path>
<g>
<path d="M206 469h0"></path>
<path d="M306 469h0"></path>
<path d="M206 469a10 10 0 0 0 10 -10v0a10 10 0 0 1 10 -10"></path>
<g>
<path d="M226 449h60"></path>
</g>
<path d="M286 449a10 10 0 0 1 10 10v0a10 10 0 0 0 10 10"></path>
<path d="M206 469h20"></path>
<g class="terminal">
<path d="M226 469h0"></path>
<path d="M286 469h0"></path>
<rect x="226" y="458" width="60" height="22" rx="10" ry="10"></rect>
<text x="256" y="473">"NOT"</text>
</g>
<path d="M286 469h20"></path>
</g>
<path d="M306 469h10"></path>
<g class="terminal">
<path d="M316 469h0"></path>
<path d="M368 469h0"></path>
<rect x="316" y="458" width="52" height="22" rx="10" ry="10"></rect>
<text x="342" y="473">"IN"</text>
</g>
<path d="M368 469h10"></path>
<g>
<path d="M378 469h0"></path>
<path d="M930 469h0"></path>
<path d="M378 469h20"></path>
<g class="non-terminal">
<path d="M398 469h0"></path>
<path d="M466 469h444"></path>
<rect x="398" y="458" width="68" height="22"></rect>
<a xlink:href="reuse_source.svg"><text x="432" y="473">Source</text>
</a>
</g>
<path d="M910 469h20"></path>
<path d="M378 469a10 10 0 0 1 10 10v10a10 10 0 0 0 10 10"></path>
<g>
<path d="M398 499h0"></path>
<path d="M910 499h0"></path>
<g class="terminal">
<path d="M398 499h0"></path>
<path d="M458 499h0"></path>
<rect x="398" y="488" width="60" height="22" rx="10" ry="10"></rect>
<text x="428" y="503">!" ("</text>
</g>
<path d="M458 499h10"></path>
<g>
<path d="M468 499h0"></path>
<path d="M592 499h0"></path>
<path d="M468 499h20"></path>
<g class="non-terminal">
<path d="M488 499h0"></path>
<path d="M572 499h0"></path>
<rect x="488" y="488" width="84" height="22"></rect>
<a xlink:href="reuse_fieldsub.svg"><text x="530" y="503">FieldSub</text>
</a>
</g>
<path d="M572 499h20"></path>
<path d="M468 499a10 10 0 0 1 10 10v10a10 10 0 0 0 10 10"></path>
<g class="non-terminal">
<path d="M488 529h0"></path>
<path d="M572 529h0"></path>
<rect x="488" y="518" width="84" height="22"></rect>
<a xlink:href="reuse_constant.svg"><text x="530" y="533">Constant</text>
</a>
</g>
<path d="M572 529a10 10 0 0 0 10 -10v-10a10 10 0 0 1 10 -10"></path>
</g>
<path d="M592 499h10"></path>
<g>
<path d="M602 499h0"></path>
<path d="M800 499h0"></path>
<path d="M602 499h10"></path>
<g>
<path d="M612 499h0"></path>
<path d="M790 499h0"></path>
<g class="terminal">
<path d="M612 499h0"></path>
<path d="M656 499h0"></path>
<rect x="612" y="488" width="44" height="22" rx="10" ry="10"></rect>
<text x="634" y="503">","</text>
</g>
<path d="M656 499h10"></path>
<g>
<path d="M666 499h0"></path>
<path d="M790 499h0"></path>
<path d="M666 499h20"></path>
<g class="non-terminal">
<path d="M686 499h0"></path>
<path d="M770 499h0"></path>
<rect x="686" y="488" width="84" height="22"></rect>
<a xlink:href="reuse_fieldsub.svg"><text x="728" y="503">FieldSub</text>
</a>
</g>
<path d="M770 499h20"></path>
<path d="M666 499a10 10 0 0 1 10 10v10a10 10 0 0 0 10 10"></path>
<g class="non-terminal">
<path d="M686 529h0"></path>
<path d="M770 529h0"></path>
<rect x="686" y="518" width="84" height="22"></rect>
<a xlink:href="reuse_constant.svg"><text x="728" y="533">Constant</text>
</a>
</g>
<path d="M770 529a10 10 0 0 0 10 -10v-10a10 10 0 0 1 10 -10"></path>
</g>
</g>
<path d="M790 499h10"></path>
<path d="M612 499a10 10 0 0 0 -10 10v29a10 10 0 0 0 10 10"></path>
<g>
<path d="M612 548h178"></path>
</g>
<path d="M790 548a10 10 0 0 0 10 -10v-29a10 10 0 0 0 -10 -10"></path>
</g>
<path d="M800 499h10"></path>
<g>
<path d="M810 499h0"></path>
<path d="M910 499h0"></path>
<path d="M810 499h20"></path>
<g class="terminal">
<path d="M830 499h0"></path>
<path d="M890 499h0"></path>
<rect x="830" y="488" width="60" height="22" rx="10" ry="10"></rect>
<text x="860" y="503">!") "</text>
</g>
<path d="M890 499h20"></path>
<path d="M810 499a10 10 0 0 1 10 10v10a10 10 0 0 0 10 10"></path>
<g class="terminal">
<path d="M830 529h0"></path>
<path d="M882 529h8"></path>
<rect x="830" y="518" width="52" height="22" rx="10" ry="10"></rect>
<text x="856" y="533">!")"</text>
</g>
<path d="M890 529a10 10 0 0 0 10 -10v-10a10 10 0 0 1 10 -10"></path>
</g>
</g>
<path d="M910 499a10 10 0 0 0 10 -10v-10a10 10 0 0 1 10 -10"></path>
<path d="M378 469a10 10 0 0 1 10 10v78a10 10 0 0 0 10 10"></path>
<g>
<path d="M398 567h0"></path>
<path d="M594 567h316"></path>
<g class="terminal">
<path d="M398 567h0"></path>
<path d="M442 567h0"></path>
<rect x="398" y="556" width="44" height="22" rx="10" ry="10"></rect>
<text x="420" y="571">"("</text>
</g>
<path d="M442 567h10"></path>
<path d="M452 567h10"></path>
<g class="non-terminal">
<path d="M462 567h0"></path>
<path d="M530 567h0"></path>
<rect x="462" y="556" width="68" height="22"></rect>
<a xlink:href="reuse_select.svg"><text x="496" y="571">Select</text>
</a>
</g>
<path d="M530 567h10"></path>
<path d="M540 567h10"></path>
<g class="terminal">
<path d="M550 567h0"></path>
<path d="M594 567h0"></path>
<rect x="550" y="556" width="44" height="22" rx="10" ry="10"></rect>
<text x="572" y="571">")"</text>
</g>
</g>
<path d="M910 567a10 10 0 0 0 10 -10v-78a10 10 0 0 1 10 -10"></path>
</g>
</g>
<path d="M930 469a10 10 0 0 0 10 -10v-409a10 10 0 0 1 10 -10"></path>
<path d="M186 40a10 10 0 0 1 10 10v537a10 10 0 0 0 10 10"></path>
<g>
<path d="M206 597h0"></path>
<path d="M554 597h376"></path>
<g class="terminal">
<path d="M206 597h0"></path>
<path d="M298 597h0"></path>
<rect x="206" y="586" width="92" height="22" rx="10" ry="10"></rect>
<text x="252" y="601">"BETWEEN"</text>
</g>
<path d="M298 597h10"></path>
<path d="M308 597h10"></path>
<g class="non-terminal">
<path d="M318 597h0"></path>
<path d="M386 597h0"></path>
<rect x="318" y="586" width="68" height="22"></rect>
<a xlink:href="reuse_source.svg"><text x="352" y="601">Source</text>
</a>
</g>
<path d="M386 597h10"></path>
<path d="M396 597h10"></path>
<g class="terminal">
<path d="M406 597h0"></path>
<path d="M466 597h0"></path>
<rect x="406" y="586" width="60" height="22" rx="10" ry="10"></rect>
<text x="436" y="601">"AND"</text>
</g>
<path d="M466 597h10"></path>
<path d="M476 597h10"></path>
<g class="non-terminal">
<path d="M486 597h0"></path>
<path d="M554 597h0"></path>
<rect x="486" y="586" width="68" height="22"></rect>
<a xlink:href="reuse_source.svg"><text x="520" y="601">Source</text>
</a>
</g>
</g>
<path d="M930 597a10 10 0 0 0 10 -10v-537a10 10 0 0 1 10 -10"></path>
<path d="M186 40a10 10 0 0 1 10 10v576a10 10 0 0 0 10 10"></path>
<g>
<path d="M206 636h0"></path>
<path d="M446 636h484"></path>
<g class="terminal">
<path d="M206 636h0"></path>
<path d="M258 636h0"></path>
<rect x="206" y="625" width="52" height="22" rx="10" ry="10"></rect>
<text x="232" y="640">"IS"</text>
</g>
<path d="M258 636h10"></path>
<g>
<path d="M268 636h0"></path>
<path d="M368 636h0"></path>
<path d="M268 636a10 10 0 0 0 10 -10v0a10 10 0 0 1 10 -10"></path>
<g>
<path d="M288 616h60"></path>
</g>
<path d="M348 616a10 10 0 0 1 10 10v0a10 10 0 0 0 10 10"></path>
<path d="M268 636h20"></path>
<g class="terminal">
<path d="M288 636h0"></path>
<path d="M348 636h0"></path>
<rect x="288" y="625" width="60" height="22" rx="10" ry="10"></rect>
<text x="318" y="640">"NOT"</text>
</g>
<path d="M348 636h20"></path>
</g>
<path d="M368 636h10"></path>
<g class="terminal">
<path d="M378 636h0"></path>
<path d="M446 636h0"></path>
<rect x="378" y="625" width="68" height="22" rx="10" ry="10"></rect>
<text x="412" y="640">"NULL"</text>
</g>
</g>
<path d="M930 636a10 10 0 0 0 10 -10v-576a10 10 0 0 1 10 -10"></path>
</g>
</g>
<path d="M950 40h20"></path>
<path d="M40 40a10 10 0 0 1 10 10v606a10 10 0 0 0 10 10"></path>
<g class="non-terminal">
<path d="M60 666h0"></path>
<path d="M136 666h814"></path>
<rect x="60" y="655" width="76" height="22"></rect>
<a xlink:href="reuse_dynamic.svg"><text x="98" y="670">Dynamic</text>
</a>
</g>
<path d="M950 666a10 10 0 0 0 10 -10v-606a10 10 0 0 1 10 -10"></path>
<path d="M40 40a10 10 0 0 1 10 10v636a10 10 0 0 0 10 10"></path>
<g>
<path d="M60 696h0"></path>
<path d="M360 696h590"></path>
<g class="terminal">
<path d="M60 696h0"></path>
<path d="M144 696h0"></path>
<rect x="60" y="685" width="84" height="22" rx="10" ry="10"></rect>
<text x="102" y="700">"EXISTS"</text>
</g>
<path d="M144 696h10"></path>
<path d="M154 696h10"></path>
<g>
<path d="M164 696h0"></path>
<path d="M360 696h0"></path>
<g class="terminal">
<path d="M164 696h0"></path>
<path d="M208 696h0"></path>
<rect x="164" y="685" width="44" height="22" rx="10" ry="10"></rect>
<text x="186" y="700">"("</text>
</g>
<path d="M208 696h10"></path>
<path d="M218 696h10"></path>
<g class="non-terminal">
<path d="M228 696h0"></path>
<path d="M296 696h0"></path>
<rect x="228" y="685" width="68" height="22"></rect>
<a xlink:href="reuse_select.svg"><text x="262" y="700">Select</text>
</a>
</g>
<path d="M296 696h10"></path>
<path d="M306 696h10"></path>
<g class="terminal">
<path d="M316 696h0"></path>
<path d="M360 696h0"></path>
<rect x="316" y="685" width="44" height="22" rx="10" ry="10"></rect>
<text x="338" y="700">")"</text>
</g>
</g>
</g>
<path d="M950 696a10 10 0 0 0 10 -10v-636a10 10 0 0 1 10 -10"></path>
</g>
<path d="M 970 40 h 20 m 0 -10 v 20"></path>
</g>
</svg>
