<svg xmlns="http://www.w3.org/2000/svg" xmlns:xlink="http://www.w3.org/1999/xlink" class="railroad-diagram" width="312" height="62" viewBox="0 0 312 62">
<defs>
<style type="text/css"><![CDATA[
path {
stroke-width: 3;
stroke: black;
fill: rgba(0,0,0,0);
}
text {
font: bold 14px monospace;
text-anchor: middle;
}
text.diagram-text {
font-size: 12px;
}
a {
fill: blue;
}
text.diagram-arrow {
font-size: 16px;
}
text.label {
text-anchor: start;
}
text.comment {
font: italic 12px monospace;
}
rect {
stroke-width: 3;
stroke: black;
fill: #BCBCBC;
}
path.diagram-text {
stroke-width: 3;
stroke: black;
fill: #BCBCBC;
cursor: help;
}
]]></style>
</defs>
<g transform="translate(.5 .5)">
<path d="M 20 21 v 20 m 0 -10 h 20.5"></path>
<path d="M40 31h10"></path>
<g>
<path d="M50 31h0"></path>
<path d="M262 31h0"></path>
<g class="non-terminal">
<path d="M50 31h0"></path>
<path d="M110 31h0"></path>
<rect x="50" y="20" width="60" height="22"></rect>
<a xlink:href="reuse_Field.svg"><text x="80" y="35">Field</text>
</a>
</g>
<path d="M110 31h10"></path>
<path d="M120 31h10"></path>
<g class="terminal">
<path d="M130 31h0"></path>
<path d="M174 31h0"></path>
<rect x="130" y="20" width="44" height="22" rx="10" ry="10"></rect>
<text x="152" y="35">"="</text>
</g>
<path d="M174 31h10"></path>
<path d="M184 31h10"></path>
<g class="non-terminal">
<path d="M194 31h0"></path>
<path d="M262 31h0"></path>
<rect x="194" y="20" width="68" height="22"></rect>
<a xlink:href="reuse_Target.svg"><text x="228" y="35">Target</text>
</a>
</g>
</g>
<path d="M262 31h10"></path>
<path d="M 272 31 h 20 m 0 -10 v 20"></path>
</g>
</svg>
