<svg xmlns="http://www.w3.org/2000/svg" xmlns:xlink="http://www.w3.org/1999/xlink" class="railroad-diagram" width="342" height="122" viewBox="0 0 342 122">
<defs>
<style type="text/css"><![CDATA[
path {
stroke-width: 3;
stroke: black;
fill: rgba(0,0,0,0);
}
text {
font: bold 14px monospace;
text-anchor: middle;
}
text.diagram-text {
font-size: 12px;
}
a {
fill: blue;
}
text.diagram-arrow {
font-size: 16px;
}
text.label {
text-anchor: start;
}
text.comment {
font: italic 12px monospace;
}
rect {
stroke-width: 3;
stroke: black;
fill: #BCBCBC;
}
path.diagram-text {
stroke-width: 3;
stroke: black;
fill: #BCBCBC;
cursor: help;
}
]]></style>
</defs>
<g transform="translate(.5 .5)">
<path d="M 20 21 v 20 m 0 -10 h 20.5"></path>
<path d="M40 31h10"></path>
<g>
<path d="M50 31h0"></path>
<path d="M292 31h0"></path>
<g class="terminal">
<path d="M50 31h0"></path>
<path d="M126 31h0"></path>
<rect x="50" y="20" width="76" height="22" rx="10" ry="10"></rect>
<text x="88" y="35">"VALUE"</text>
</g>
<path d="M126 31h10"></path>
<g>
<path d="M136 31h0"></path>
<path d="M292 31h0"></path>
<path d="M136 31h20"></path>
<g class="non-terminal">
<path d="M156 31h0"></path>
<path d="M240 31h32"></path>
<rect x="156" y="20" width="84" height="22"></rect>
<a xlink:href="reuse_Constant.svg"><text x="198" y="35">Constant</text>
</a>
</g>
<path d="M272 31h20"></path>
<path d="M136 31a10 10 0 0 1 10 10v10a10 10 0 0 0 10 10"></path>
<g class="terminal">
<path d="M156 61h0"></path>
<path d="M272 61h0"></path>
<rect x="156" y="50" width="116" height="22" rx="10" ry="10"></rect>
<text x="214" y="65">"IS INITIAL"</text>
</g>
<path d="M272 61a10 10 0 0 0 10 -10v-10a10 10 0 0 1 10 -10"></path>
<path d="M136 31a10 10 0 0 1 10 10v40a10 10 0 0 0 10 10"></path>
<g class="non-terminal">
<path d="M156 91h0"></path>
<path d="M256 91h16"></path>
<rect x="156" y="80" width="100" height="22"></rect>
<a xlink:href="reuse_FieldChain.svg"><text x="206" y="95">FieldChain</text>
</a>
</g>
<path d="M272 91a10 10 0 0 0 10 -10v-40a10 10 0 0 1 10 -10"></path>
</g>
</g>
<path d="M292 31h10"></path>
<path d="M 302 31 h 20 m 0 -10 v 20"></path>
</g>
</svg>
