<svg xmlns="http://www.w3.org/2000/svg" xmlns:xlink="http://www.w3.org/1999/xlink" class="railroad-diagram" width="602" height="101" viewBox="0 0 602 101">
<defs>
<style type="text/css"><![CDATA[
path {
stroke-width: 3;
stroke: black;
fill: rgba(0,0,0,0);
}
text {
font: bold 14px monospace;
text-anchor: middle;
}
text.diagram-text {
font-size: 12px;
}
a {
fill: blue;
}
text.diagram-arrow {
font-size: 16px;
}
text.label {
text-anchor: start;
}
text.comment {
font: italic 12px monospace;
}
rect {
stroke-width: 3;
stroke: black;
fill: #BCBCBC;
}
path.diagram-text {
stroke-width: 3;
stroke: black;
fill: #BCBCBC;
cursor: help;
}
]]></style>
</defs>
<g transform="translate(.5 .5)">
<path d="M 20 30 v 20 m 0 -10 h 20.5"></path>
<path d="M40 40h10"></path>
<g>
<path d="M50 40h0"></path>
<path d="M552 40h0"></path>
<g class="terminal">
<path d="M50 40h0"></path>
<path d="M102 40h0"></path>
<rect x="50" y="29" width="52" height="22" rx="10" ry="10"></rect>
<text x="76" y="44">!"("</text>
</g>
<path d="M102 40h10"></path>
<path d="M112 40h10"></path>
<g class="terminal">
<path d="M122 40h0"></path>
<path d="M214 40h0"></path>
<rect x="122" y="29" width="92" height="22" rx="10" ry="10"></rect>
<text x="168" y="44">^&#91;\d\w&#93;+$</text>
</g>
<path d="M214 40h10"></path>
<g>
<path d="M224 40h0"></path>
<path d="M452 40h0"></path>
<path d="M224 40a10 10 0 0 0 10 -10v0a10 10 0 0 1 10 -10"></path>
<g>
<path d="M244 20h188"></path>
</g>
<path d="M432 20a10 10 0 0 1 10 10v0a10 10 0 0 0 10 10"></path>
<path d="M224 40h20"></path>
<g>
<path d="M244 40h0"></path>
<path d="M432 40h0"></path>
<g class="non-terminal">
<path d="M244 40h0"></path>
<path d="M352 40h0"></path>
<rect x="244" y="29" width="108" height="22"></rect>
<a xlink:href="reuse_ArrowOrDash.svg"><text x="298" y="44">ArrowOrDash</text>
</a>
</g>
<path d="M352 40h10"></path>
<path d="M362 40h10"></path>
<g class="non-terminal">
<path d="M372 40h0"></path>
<path d="M432 40h0"></path>
<rect x="372" y="29" width="60" height="22"></rect>
<a xlink:href="reuse_Field.svg"><text x="402" y="44">Field</text>
</a>
</g>
</g>
<path d="M432 40h20"></path>
</g>
<g>
<path d="M452 40h0"></path>
<path d="M552 40h0"></path>
<path d="M452 40h20"></path>
<g class="terminal">
<path d="M472 40h0"></path>
<path d="M532 40h0"></path>
<rect x="472" y="29" width="60" height="22" rx="10" ry="10"></rect>
<text x="502" y="44">!") "</text>
</g>
<path d="M532 40h20"></path>
<path d="M452 40a10 10 0 0 1 10 10v10a10 10 0 0 0 10 10"></path>
<g class="terminal">
<path d="M472 70h0"></path>
<path d="M524 70h8"></path>
<rect x="472" y="59" width="52" height="22" rx="10" ry="10"></rect>
<text x="498" y="74">!")"</text>
</g>
<path d="M532 70a10 10 0 0 0 10 -10v-10a10 10 0 0 1 10 -10"></path>
</g>
</g>
<path d="M552 40h10"></path>
<path d="M 562 40 h 20 m 0 -10 v 20"></path>
</g>
</svg>
