<svg xmlns="http://www.w3.org/2000/svg" xmlns:xlink="http://www.w3.org/1999/xlink" class="railroad-diagram" width="1512" height="139" viewBox="0 0 1512 139">
<defs>
<style type="text/css"><![CDATA[
path {
stroke-width: 3;
stroke: black;
fill: rgba(0,0,0,0);
}
text {
font: bold 14px monospace;
text-anchor: middle;
}
text.diagram-text {
font-size: 12px;
}
a {
fill: blue;
}
text.diagram-arrow {
font-size: 16px;
}
text.label {
text-anchor: start;
}
text.comment {
font: italic 12px monospace;
}
rect {
stroke-width: 3;
stroke: black;
fill: #BCBCBC;
}
path.diagram-text {
stroke-width: 3;
stroke: black;
fill: #BCBCBC;
cursor: help;
}
]]></style>
</defs>
<g transform="translate(.5 .5)">
<path d="M 20 38 v 20 m 0 -10 h 20.5"></path>
<path d="M40 48h10"></path>
<g>
<path d="M50 48h0"></path>
<path d="M1462 48h0"></path>
<g>
<path d="M50 48h0"></path>
<path d="M650 48h0"></path>
<g>
<path d="M50 48h0"></path>
<path d="M158 48h0"></path>
<path d="M50 48h20"></path>
<g class="terminal">
<path d="M70 48h0"></path>
<path d="M138 48h0"></path>
<rect x="70" y="37" width="68" height="22" rx="10" ry="10"></rect>
<text x="104" y="52">"LIKE"</text>
</g>
<path d="M138 48h20"></path>
<path d="M50 48a10 10 0 0 1 10 10v10a10 10 0 0 0 10 10"></path>
<g class="terminal">
<path d="M70 78h0"></path>
<path d="M138 78h0"></path>
<rect x="70" y="67" width="68" height="22" rx="10" ry="10"></rect>
<text x="104" y="82">"TYPE"</text>
</g>
<path d="M138 78a10 10 0 0 0 10 -10v-10a10 10 0 0 1 10 -10"></path>
</g>
<g>
<path d="M158 48h0"></path>
<path d="M338 48h0"></path>
<path d="M158 48a10 10 0 0 0 10 -10v0a10 10 0 0 1 10 -10"></path>
<g>
<path d="M178 28h140"></path>
</g>
<path d="M318 28a10 10 0 0 1 10 10v0a10 10 0 0 0 10 10"></path>
<path d="M158 48h20"></path>
<g>
<path d="M178 48h0"></path>
<path d="M318 48h0"></path>
<path d="M178 48h20"></path>
<g class="terminal">
<path d="M198 48h0"></path>
<path d="M298 48h0"></path>
<rect x="198" y="37" width="100" height="22" rx="10" ry="10"></rect>
<text x="248" y="52">"STANDARD"</text>
</g>
<path d="M298 48h20"></path>
<path d="M178 48a10 10 0 0 1 10 10v10a10 10 0 0 0 10 10"></path>
<g class="terminal">
<path d="M198 78h8"></path>
<path d="M290 78h8"></path>
<rect x="206" y="67" width="84" height="22" rx="10" ry="10"></rect>
<text x="248" y="82">"HASHED"</text>
</g>
<path d="M298 78a10 10 0 0 0 10 -10v-10a10 10 0 0 1 10 -10"></path>
<path d="M178 48a10 10 0 0 1 10 10v40a10 10 0 0 0 10 10"></path>
<g class="terminal">
<path d="M198 108h8"></path>
<path d="M290 108h8"></path>
<rect x="206" y="97" width="84" height="22" rx="10" ry="10"></rect>
<text x="248" y="112">"SORTED"</text>
</g>
<path d="M298 108a10 10 0 0 0 10 -10v-40a10 10 0 0 1 10 -10"></path>
</g>
<path d="M318 48h20"></path>
</g>
<path d="M338 48h10"></path>
<g class="terminal">
<path d="M348 48h0"></path>
<path d="M424 48h0"></path>
<rect x="348" y="37" width="76" height="22" rx="10" ry="10"></rect>
<text x="386" y="52">"TABLE"</text>
</g>
<path d="M424 48h10"></path>
<g>
<path d="M434 48h0"></path>
<path d="M526 48h0"></path>
<path d="M434 48a10 10 0 0 0 10 -10v0a10 10 0 0 1 10 -10"></path>
<g>
<path d="M454 28h52"></path>
</g>
<path d="M506 28a10 10 0 0 1 10 10v0a10 10 0 0 0 10 10"></path>
<path d="M434 48h20"></path>
<g class="terminal">
<path d="M454 48h0"></path>
<path d="M506 48h0"></path>
<rect x="454" y="37" width="52" height="22" rx="10" ry="10"></rect>
<text x="480" y="52">"OF"</text>
</g>
<path d="M506 48h20"></path>
</g>
<g>
<path d="M526 48h0"></path>
<path d="M650 48h0"></path>
<path d="M526 48a10 10 0 0 0 10 -10v0a10 10 0 0 1 10 -10"></path>
<g>
<path d="M546 28h84"></path>
</g>
<path d="M630 28a10 10 0 0 1 10 10v0a10 10 0 0 0 10 10"></path>
<path d="M526 48h20"></path>
<g class="terminal">
<path d="M546 48h0"></path>
<path d="M630 48h0"></path>
<rect x="546" y="37" width="84" height="22" rx="10" ry="10"></rect>
<text x="588" y="52">"REF TO"</text>
</g>
<path d="M630 48h20"></path>
</g>
</g>
<path d="M650 48h10"></path>
<g>
<path d="M660 48h0"></path>
<path d="M784 48h0"></path>
<path d="M660 48a10 10 0 0 0 10 -10v0a10 10 0 0 1 10 -10"></path>
<g>
<path d="M680 28h84"></path>
</g>
<path d="M764 28a10 10 0 0 1 10 10v0a10 10 0 0 0 10 10"></path>
<path d="M660 48h20"></path>
<g class="non-terminal">
<path d="M680 48h0"></path>
<path d="M764 48h0"></path>
<rect x="680" y="37" width="84" height="22"></rect>
<a xlink:href="reuse_typename.svg"><text x="722" y="52">typename</text>
</a>
</g>
<path d="M764 48h20"></path>
</g>
<g>
<path d="M784 48h0"></path>
<path d="M1462 48h0"></path>
<path d="M784 48a10 10 0 0 0 10 -10v-8a10 10 0 0 1 10 -10"></path>
<g>
<path d="M804 20h638"></path>
</g>
<path d="M1442 20a10 10 0 0 1 10 10v8a10 10 0 0 0 10 10"></path>
<path d="M784 48h20"></path>
<g>
<path d="M804 48h0"></path>
<path d="M1442 48h0"></path>
<g class="terminal">
<path d="M804 48h0"></path>
<path d="M872 48h0"></path>
<rect x="804" y="37" width="68" height="22" rx="10" ry="10"></rect>
<text x="838" y="52">"WITH"</text>
</g>
<path d="M872 48h10"></path>
<g>
<path d="M882 48h0"></path>
<path d="M1078 48h0"></path>
<path d="M882 48a10 10 0 0 0 10 -10v0a10 10 0 0 1 10 -10"></path>
<g>
<path d="M902 28h156"></path>
</g>
<path d="M1058 28a10 10 0 0 1 10 10v0a10 10 0 0 0 10 10"></path>
<path d="M882 48h20"></path>
<g>
<path d="M902 48h0"></path>
<path d="M1058 48h0"></path>
<path d="M902 48h20"></path>
<g class="terminal">
<path d="M922 48h0"></path>
<path d="M1038 48h0"></path>
<rect x="922" y="37" width="116" height="22" rx="10" ry="10"></rect>
<text x="980" y="52">"NON-UNIQUE"</text>
</g>
<path d="M1038 48h20"></path>
<path d="M902 48a10 10 0 0 1 10 10v10a10 10 0 0 0 10 10"></path>
<g class="terminal">
<path d="M922 78h16"></path>
<path d="M1022 78h16"></path>
<rect x="938" y="67" width="84" height="22" rx="10" ry="10"></rect>
<text x="980" y="82">"UNIQUE"</text>
</g>
<path d="M1038 78a10 10 0 0 0 10 -10v-10a10 10 0 0 1 10 -10"></path>
</g>
<path d="M1058 48h20"></path>
</g>
<g>
<path d="M1078 48h0"></path>
<path d="M1210 48h0"></path>
<path d="M1078 48a10 10 0 0 0 10 -10v0a10 10 0 0 1 10 -10"></path>
<g>
<path d="M1098 28h92"></path>
</g>
<path d="M1190 28a10 10 0 0 1 10 10v0a10 10 0 0 0 10 10"></path>
<path d="M1078 48h20"></path>
<g class="terminal">
<path d="M1098 48h0"></path>
<path d="M1190 48h0"></path>
<rect x="1098" y="37" width="92" height="22" rx="10" ry="10"></rect>
<text x="1144" y="52">"DEFAULT"</text>
</g>
<path d="M1190 48h20"></path>
</g>
<path d="M1210 48h10"></path>
<g class="terminal">
<path d="M1220 48h0"></path>
<path d="M1280 48h0"></path>
<rect x="1220" y="37" width="60" height="22" rx="10" ry="10"></rect>
<text x="1250" y="52">"KEY"</text>
</g>
<path d="M1280 48h10"></path>
<g>
<path d="M1290 48h0"></path>
<path d="M1442 48h0"></path>
<path d="M1290 48a10 10 0 0 0 10 -10v0a10 10 0 0 1 10 -10"></path>
<g>
<path d="M1310 28h112"></path>
</g>
<path d="M1422 28a10 10 0 0 1 10 10v0a10 10 0 0 0 10 10"></path>
<path d="M1290 48h20"></path>
<g>
<path d="M1310 48h0"></path>
<path d="M1422 48h0"></path>
<path d="M1310 48h10"></path>
<g class="non-terminal">
<path d="M1320 48h0"></path>
<path d="M1412 48h0"></path>
<rect x="1320" y="37" width="92" height="22"></rect>
<a xlink:href="reuse_field_sub.svg"><text x="1366" y="52">field&#95;sub</text>
</a>
</g>
<path d="M1412 48h10"></path>
<path d="M1320 48a10 10 0 0 0 -10 10v0a10 10 0 0 0 10 10"></path>
<g>
<path d="M1320 68h92"></path>
</g>
<path d="M1412 68a10 10 0 0 0 10 -10v0a10 10 0 0 0 -10 -10"></path>
</g>
<path d="M1422 48h20"></path>
</g>
</g>
<path d="M1442 48h20"></path>
</g>
</g>
<path d="M1462 48h10"></path>
<path d="M 1472 48 h 20 m 0 -10 v 20"></path>
</g>
</svg>
