<svg xmlns="http://www.w3.org/2000/svg" xmlns:xlink="http://www.w3.org/1999/xlink" class="railroad-diagram" width="212" height="332" viewBox="0 0 212 332">
<defs>
<style type="text/css"><![CDATA[
path {
stroke-width: 3;
stroke: black;
fill: rgba(0,0,0,0);
}
text {
font: bold 14px monospace;
text-anchor: middle;
}
text.diagram-text {
font-size: 12px;
}
a {
fill: blue;
}
text.diagram-arrow {
font-size: 16px;
}
text.label {
text-anchor: start;
}
text.comment {
font: italic 12px monospace;
}
rect {
stroke-width: 3;
stroke: black;
fill: #BCBCBC;
}
path.diagram-text {
stroke-width: 3;
stroke: black;
fill: #BCBCBC;
cursor: help;
}
]]></style>
</defs>
<g transform="translate(.5 .5)">
<path d="M 20 21 v 20 m 0 -10 h 20.5"></path>
<g>
<path d="M40 31h0"></path>
<path d="M172 31h0"></path>
<path d="M40 31h20"></path>
<g class="terminal">
<path d="M60 31h0"></path>
<path d="M128 31h24"></path>
<rect x="60" y="20" width="68" height="22" rx="10" ry="10"></rect>
<text x="94" y="35">!" + "</text>
</g>
<path d="M152 31h20"></path>
<path d="M40 31a10 10 0 0 1 10 10v10a10 10 0 0 0 10 10"></path>
<g class="terminal">
<path d="M60 61h0"></path>
<path d="M128 61h24"></path>
<rect x="60" y="50" width="68" height="22" rx="10" ry="10"></rect>
<text x="94" y="65">!" - "</text>
</g>
<path d="M152 61a10 10 0 0 0 10 -10v-10a10 10 0 0 1 10 -10"></path>
<path d="M40 31a10 10 0 0 1 10 10v40a10 10 0 0 0 10 10"></path>
<g class="terminal">
<path d="M60 91h0"></path>
<path d="M104 91h48"></path>
<rect x="60" y="80" width="44" height="22" rx="10" ry="10"></rect>
<text x="82" y="95">"&#42;"</text>
</g>
<path d="M152 91a10 10 0 0 0 10 -10v-40a10 10 0 0 1 10 -10"></path>
<path d="M40 31a10 10 0 0 1 10 10v70a10 10 0 0 0 10 10"></path>
<g class="terminal">
<path d="M60 121h0"></path>
<path d="M112 121h40"></path>
<rect x="60" y="110" width="52" height="22" rx="10" ry="10"></rect>
<text x="86" y="125">"&#42;&#42;"</text>
</g>
<path d="M152 121a10 10 0 0 0 10 -10v-70a10 10 0 0 1 10 -10"></path>
<path d="M40 31a10 10 0 0 1 10 10v100a10 10 0 0 0 10 10"></path>
<g class="terminal">
<path d="M60 151h0"></path>
<path d="M104 151h48"></path>
<rect x="60" y="140" width="44" height="22" rx="10" ry="10"></rect>
<text x="82" y="155">"/"</text>
</g>
<path d="M152 151a10 10 0 0 0 10 -10v-100a10 10 0 0 1 10 -10"></path>
<path d="M40 31a10 10 0 0 1 10 10v130a10 10 0 0 0 10 10"></path>
<g class="terminal">
<path d="M60 181h0"></path>
<path d="M152 181h0"></path>
<rect x="60" y="170" width="92" height="22" rx="10" ry="10"></rect>
<text x="106" y="185">"BIT-XOR"</text>
</g>
<path d="M152 181a10 10 0 0 0 10 -10v-130a10 10 0 0 1 10 -10"></path>
<path d="M40 31a10 10 0 0 1 10 10v160a10 10 0 0 0 10 10"></path>
<g class="terminal">
<path d="M60 211h0"></path>
<path d="M152 211h0"></path>
<rect x="60" y="200" width="92" height="22" rx="10" ry="10"></rect>
<text x="106" y="215">"BIT-AND"</text>
</g>
<path d="M152 211a10 10 0 0 0 10 -10v-160a10 10 0 0 1 10 -10"></path>
<path d="M40 31a10 10 0 0 1 10 10v190a10 10 0 0 0 10 10"></path>
<g class="terminal">
<path d="M60 241h0"></path>
<path d="M144 241h8"></path>
<rect x="60" y="230" width="84" height="22" rx="10" ry="10"></rect>
<text x="102" y="245">"BIT-OR"</text>
</g>
<path d="M152 241a10 10 0 0 0 10 -10v-190a10 10 0 0 1 10 -10"></path>
<path d="M40 31a10 10 0 0 1 10 10v220a10 10 0 0 0 10 10"></path>
<g class="terminal">
<path d="M60 271h0"></path>
<path d="M120 271h32"></path>
<rect x="60" y="260" width="60" height="22" rx="10" ry="10"></rect>
<text x="90" y="275">"DIV"</text>
</g>
<path d="M152 271a10 10 0 0 0 10 -10v-220a10 10 0 0 1 10 -10"></path>
<path d="M40 31a10 10 0 0 1 10 10v250a10 10 0 0 0 10 10"></path>
<g class="terminal">
<path d="M60 301h0"></path>
<path d="M120 301h32"></path>
<rect x="60" y="290" width="60" height="22" rx="10" ry="10"></rect>
<text x="90" y="305">"MOD"</text>
</g>
<path d="M152 301a10 10 0 0 0 10 -10v-250a10 10 0 0 1 10 -10"></path>
</g>
<path d="M 172 31 h 20 m 0 -10 v 20"></path>
</g>
</svg>
