<svg xmlns="http://www.w3.org/2000/svg" xmlns:xlink="http://www.w3.org/1999/xlink" class="railroad-diagram" width="920" height="118" viewBox="0 0 920 118">
<defs>
<style type="text/css"><![CDATA[
path {
stroke-width: 3;
stroke: black;
fill: rgba(0,0,0,0);
}
text {
font: bold 14px monospace;
text-anchor: middle;
}
text.diagram-text {
font-size: 12px;
}
a {
fill: blue;
}
text.diagram-arrow {
font-size: 16px;
}
text.label {
text-anchor: start;
}
text.comment {
font: italic 12px monospace;
}
rect {
stroke-width: 3;
stroke: black;
fill: #BCBCBC;
}
path.diagram-text {
stroke-width: 3;
stroke: black;
fill: #BCBCBC;
cursor: help;
}
]]></style>
</defs>
<g transform="translate(.5 .5)">
<path d="M 20 30 v 20 m 0 -10 h 20.5"></path>
<path d="M40 40h10"></path>
<g>
<path d="M50 40h0"></path>
<path d="M870 40h0"></path>
<g>
<path d="M50 40h0"></path>
<path d="M380 40h0"></path>
<path d="M50 40h20"></path>
<g class="non-terminal">
<path d="M70 40h107"></path>
<path d="M253 40h107"></path>
<rect x="177" y="29" width="76" height="22"></rect>
<a xlink:href="reuse_compare.svg"><text x="215" y="44">compare</text>
</a>
</g>
<path d="M360 40h20"></path>
<path d="M50 40a10 10 0 0 1 10 10v19a10 10 0 0 0 10 10"></path>
<g>
<path d="M70 79h0"></path>
<path d="M360 79h0"></path>
<g>
<path d="M70 79h0"></path>
<path d="M170 79h0"></path>
<path d="M70 79a10 10 0 0 0 10 -10v0a10 10 0 0 1 10 -10"></path>
<g>
<path d="M90 59h60"></path>
</g>
<path d="M150 59a10 10 0 0 1 10 10v0a10 10 0 0 0 10 10"></path>
<path d="M70 79h20"></path>
<g class="terminal">
<path d="M90 79h0"></path>
<path d="M150 79h0"></path>
<rect x="90" y="68" width="60" height="22" rx="10" ry="10"></rect>
<text x="120" y="83">"NOT"</text>
</g>
<path d="M150 79h20"></path>
</g>
<path d="M170 79h10"></path>
<g class="terminal">
<path d="M180 79h0"></path>
<path d="M224 79h0"></path>
<rect x="180" y="68" width="44" height="22" rx="10" ry="10"></rect>
<text x="202" y="83">"("</text>
</g>
<path d="M224 79h10"></path>
<path d="M234 79h10"></path>
<g class="non-terminal">
<path d="M244 79h0"></path>
<path d="M296 79h0"></path>
<rect x="244" y="68" width="52" height="22"></rect>
<a xlink:href="reuse_cond.svg"><text x="270" y="83">cond</text>
</a>
</g>
<path d="M296 79h10"></path>
<path d="M306 79h10"></path>
<g class="terminal">
<path d="M316 79h0"></path>
<path d="M360 79h0"></path>
<rect x="316" y="68" width="44" height="22" rx="10" ry="10"></rect>
<text x="338" y="83">")"</text>
</g>
</g>
<path d="M360 79a10 10 0 0 0 10 -10v-19a10 10 0 0 1 10 -10"></path>
</g>
<g>
<path d="M380 40h0"></path>
<path d="M870 40h0"></path>
<path d="M380 40a10 10 0 0 0 10 -10v0a10 10 0 0 1 10 -10"></path>
<g>
<path d="M400 20h450"></path>
</g>
<path d="M850 20a10 10 0 0 1 10 10v0a10 10 0 0 0 10 10"></path>
<path d="M380 40h20"></path>
<g>
<path d="M400 40h0"></path>
<path d="M850 40h0"></path>
<path d="M400 40h10"></path>
<g>
<path d="M410 40h0"></path>
<path d="M840 40h0"></path>
<g>
<path d="M410 40h0"></path>
<path d="M510 40h0"></path>
<path d="M410 40h20"></path>
<g class="terminal">
<path d="M430 40h0"></path>
<path d="M490 40h0"></path>
<rect x="430" y="29" width="60" height="22" rx="10" ry="10"></rect>
<text x="460" y="44">"AND"</text>
</g>
<path d="M490 40h20"></path>
<path d="M410 40a10 10 0 0 1 10 10v10a10 10 0 0 0 10 10"></path>
<g class="terminal">
<path d="M430 70h4"></path>
<path d="M486 70h4"></path>
<rect x="434" y="59" width="52" height="22" rx="10" ry="10"></rect>
<text x="460" y="74">"OR"</text>
</g>
<path d="M490 70a10 10 0 0 0 10 -10v-10a10 10 0 0 1 10 -10"></path>
</g>
<g>
<path d="M510 40h0"></path>
<path d="M840 40h0"></path>
<path d="M510 40h20"></path>
<g class="non-terminal">
<path d="M530 40h107"></path>
<path d="M713 40h107"></path>
<rect x="637" y="29" width="76" height="22"></rect>
<a xlink:href="reuse_compare.svg"><text x="675" y="44">compare</text>
</a>
</g>
<path d="M820 40h20"></path>
<path d="M510 40a10 10 0 0 1 10 10v19a10 10 0 0 0 10 10"></path>
<g>
<path d="M530 79h0"></path>
<path d="M820 79h0"></path>
<g>
<path d="M530 79h0"></path>
<path d="M630 79h0"></path>
<path d="M530 79a10 10 0 0 0 10 -10v0a10 10 0 0 1 10 -10"></path>
<g>
<path d="M550 59h60"></path>
</g>
<path d="M610 59a10 10 0 0 1 10 10v0a10 10 0 0 0 10 10"></path>
<path d="M530 79h20"></path>
<g class="terminal">
<path d="M550 79h0"></path>
<path d="M610 79h0"></path>
<rect x="550" y="68" width="60" height="22" rx="10" ry="10"></rect>
<text x="580" y="83">"NOT"</text>
</g>
<path d="M610 79h20"></path>
</g>
<path d="M630 79h10"></path>
<g class="terminal">
<path d="M640 79h0"></path>
<path d="M684 79h0"></path>
<rect x="640" y="68" width="44" height="22" rx="10" ry="10"></rect>
<text x="662" y="83">"("</text>
</g>
<path d="M684 79h10"></path>
<path d="M694 79h10"></path>
<g class="non-terminal">
<path d="M704 79h0"></path>
<path d="M756 79h0"></path>
<rect x="704" y="68" width="52" height="22"></rect>
<a xlink:href="reuse_cond.svg"><text x="730" y="83">cond</text>
</a>
</g>
<path d="M756 79h10"></path>
<path d="M766 79h10"></path>
<g class="terminal">
<path d="M776 79h0"></path>
<path d="M820 79h0"></path>
<rect x="776" y="68" width="44" height="22" rx="10" ry="10"></rect>
<text x="798" y="83">")"</text>
</g>
</g>
<path d="M820 79a10 10 0 0 0 10 -10v-19a10 10 0 0 1 10 -10"></path>
</g>
</g>
<path d="M840 40h10"></path>
<path d="M410 40a10 10 0 0 0 -10 10v38a10 10 0 0 0 10 10"></path>
<g>
<path d="M410 98h430"></path>
</g>
<path d="M840 98a10 10 0 0 0 10 -10v-38a10 10 0 0 0 -10 -10"></path>
</g>
<path d="M850 40h20"></path>
</g>
</g>
<path d="M870 40h10"></path>
<path d="M 880 40 h 20 m 0 -10 v 20"></path>
</g>
</svg>
