<?xml version="1.0" encoding="UTF-8" standalone="no"?>
<!DOCTYPE svg PUBLIC "-//W3C//DTD SVG 1.1//EN"
 "http://www.w3.org/Graphics/SVG/1.1/DTD/svg11.dtd">
<!-- Generated by graphviz version 2.38.0 (20140413.2041)
 -->
<!-- Title: arith_operator Pages: 1 -->
<svg width="378pt" height="188pt"
 viewBox="0.00 0.00 378.44 188.00" xmlns="http://www.w3.org/2000/svg" xmlns:xlink="http://www.w3.org/1999/xlink">
<g id="graph0" class="graph" transform="scale(1 1) rotate(0) translate(4 184)">
<title>arith_operator</title>
<polygon fill="white" stroke="none" points="-4,4 -4,-184 374.441,-184 374.441,4 -4,4"/>
<!-- start -->
<g id="node1" class="node"><title>start</title>
<polygon fill="none" stroke="blue" points="198,-180 144,-180 144,-144 198,-144 198,-180"/>
<text text-anchor="middle" x="171" y="-157.8" font-family="Times,serif" font-size="14.00">Start</text>
</g>
<!-- node126 -->
<g id="node3" class="node"><title>node126</title>
<ellipse fill="none" stroke="black" cx="27" cy="-90" rx="27" ry="18"/>
<text text-anchor="middle" x="27" y="-85.8" font-family="Times,serif" font-size="14.00">&quot;+&quot;</text>
</g>
<!-- start&#45;&gt;node126 -->
<g id="edge6" class="edge"><title>start&#45;&gt;node126</title>
<path fill="none" stroke="black" d="M143.915,-147.834C119.352,-135.894 83.1788,-118.309 57.5847,-105.868"/>
<polygon fill="black" stroke="black" points="58.8636,-102.598 48.3397,-101.373 55.8032,-108.893 58.8636,-102.598"/>
</g>
<!-- node127 -->
<g id="node4" class="node"><title>node127</title>
<ellipse fill="none" stroke="black" cx="99" cy="-90" rx="27" ry="18"/>
<text text-anchor="middle" x="99" y="-85.8" font-family="Times,serif" font-size="14.00">&quot;&#45;&quot;</text>
</g>
<!-- start&#45;&gt;node127 -->
<g id="edge7" class="edge"><title>start&#45;&gt;node127</title>
<path fill="none" stroke="black" d="M153.202,-143.697C143.512,-134.276 131.435,-122.534 121.142,-112.527"/>
<polygon fill="black" stroke="black" points="123.297,-109.74 113.687,-105.279 118.417,-114.759 123.297,-109.74"/>
</g>
<!-- node128 -->
<g id="node5" class="node"><title>node128</title>
<ellipse fill="none" stroke="black" cx="171" cy="-90" rx="27" ry="18"/>
<text text-anchor="middle" x="171" y="-85.8" font-family="Times,serif" font-size="14.00">&quot;*&quot;</text>
</g>
<!-- start&#45;&gt;node128 -->
<g id="edge8" class="edge"><title>start&#45;&gt;node128</title>
<path fill="none" stroke="black" d="M171,-143.697C171,-135.983 171,-126.712 171,-118.112"/>
<polygon fill="black" stroke="black" points="174.5,-118.104 171,-108.104 167.5,-118.104 174.5,-118.104"/>
</g>
<!-- node129 -->
<g id="node6" class="node"><title>node129</title>
<ellipse fill="none" stroke="black" cx="243" cy="-90" rx="27" ry="18"/>
<text text-anchor="middle" x="243" y="-85.8" font-family="Times,serif" font-size="14.00">&quot;/&quot;</text>
</g>
<!-- start&#45;&gt;node129 -->
<g id="edge9" class="edge"><title>start&#45;&gt;node129</title>
<path fill="none" stroke="black" d="M188.798,-143.697C198.488,-134.276 210.565,-122.534 220.858,-112.527"/>
<polygon fill="black" stroke="black" points="223.583,-114.759 228.313,-105.279 218.703,-109.74 223.583,-114.759"/>
</g>
<!-- node130 -->
<g id="node7" class="node"><title>node130</title>
<ellipse fill="none" stroke="black" cx="329" cy="-90" rx="41.3829" ry="18"/>
<text text-anchor="middle" x="329" y="-85.8" font-family="Times,serif" font-size="14.00">&quot;MOD&quot;</text>
</g>
<!-- start&#45;&gt;node130 -->
<g id="edge10" class="edge"><title>start&#45;&gt;node130</title>
<path fill="none" stroke="black" d="M198.161,-148.967C224.003,-137.518 263.096,-120.198 291.822,-107.471"/>
<polygon fill="black" stroke="black" points="293.407,-110.597 301.132,-103.347 290.571,-104.197 293.407,-110.597"/>
</g>
<!-- end -->
<g id="node2" class="node"><title>end</title>
<polygon fill="none" stroke="blue" points="198,-36 144,-36 144,-0 198,-0 198,-36"/>
<text text-anchor="middle" x="171" y="-13.8" font-family="Times,serif" font-size="14.00">End</text>
</g>
<!-- node126&#45;&gt;end -->
<g id="edge1" class="edge"><title>node126&#45;&gt;end</title>
<path fill="none" stroke="black" d="M48.2477,-78.6713C70.9222,-67.6489 107.26,-49.9846 134.527,-36.7299"/>
<polygon fill="black" stroke="black" points="136.293,-39.7634 143.756,-32.2436 133.232,-33.4678 136.293,-39.7634"/>
</g>
<!-- node127&#45;&gt;end -->
<g id="edge2" class="edge"><title>node127&#45;&gt;end</title>
<path fill="none" stroke="black" d="M113.57,-74.8345C122.918,-65.7459 135.298,-53.7105 146.169,-43.1413"/>
<polygon fill="black" stroke="black" points="148.668,-45.593 153.398,-36.1127 143.789,-40.5741 148.668,-45.593"/>
</g>
<!-- node128&#45;&gt;end -->
<g id="edge3" class="edge"><title>node128&#45;&gt;end</title>
<path fill="none" stroke="black" d="M171,-71.6966C171,-63.9827 171,-54.7125 171,-46.1124"/>
<polygon fill="black" stroke="black" points="174.5,-46.1043 171,-36.1043 167.5,-46.1044 174.5,-46.1043"/>
</g>
<!-- node129&#45;&gt;end -->
<g id="edge4" class="edge"><title>node129&#45;&gt;end</title>
<path fill="none" stroke="black" d="M228.43,-74.8345C219.082,-65.7459 206.702,-53.7105 195.831,-43.1413"/>
<polygon fill="black" stroke="black" points="198.211,-40.5741 188.602,-36.1127 193.332,-45.593 198.211,-40.5741"/>
</g>
<!-- node130&#45;&gt;end -->
<g id="edge5" class="edge"><title>node130&#45;&gt;end</title>
<path fill="none" stroke="black" d="M301.116,-76.6465C275.01,-65.0803 235.851,-47.7316 207.314,-35.0883"/>
<polygon fill="black" stroke="black" points="208.638,-31.8468 198.077,-30.9961 205.802,-38.2468 208.638,-31.8468"/>
</g>
</g>
</svg>
