<svg xmlns="http://www.w3.org/2000/svg" xmlns:xlink="http://www.w3.org/1999/xlink" class="railroad-diagram" width="672" height="122" viewBox="0 0 672 122">
<defs>
<style type="text/css"><![CDATA[
path {
stroke-width: 3;
stroke: black;
fill: rgba(0,0,0,0);
}
text {
font: bold 14px monospace;
text-anchor: middle;
}
text.diagram-text {
font-size: 12px;
}
a {
fill: blue;
}
text.diagram-arrow {
font-size: 16px;
}
text.label {
text-anchor: start;
}
text.comment {
font: italic 12px monospace;
}
rect {
stroke-width: 3;
stroke: black;
fill: #BCBCBC;
}
path.diagram-text {
stroke-width: 3;
stroke: black;
fill: #BCBCBC;
cursor: help;
}
]]></style>
</defs>
<g transform="translate(.5 .5)">
<path d="M 20 21 v 20 m 0 -10 h 20.5"></path>
<path d="M40 31h10"></path>
<g>
<path d="M50 31h0"></path>
<path d="M622 31h0"></path>
<g class="non-terminal">
<path d="M50 31h0"></path>
<path d="M158 31h0"></path>
<rect x="50" y="20" width="108" height="22"></rect>
<a xlink:href="reuse_method_name.svg"><text x="104" y="35">method&#95;name</text>
</a>
</g>
<path d="M158 31h10"></path>
<g>
<path d="M168 31h0"></path>
<path d="M372 31h0"></path>
<path d="M168 31h20"></path>
<g class="terminal">
<path d="M188 31h0"></path>
<path d="M352 31h0"></path>
<rect x="188" y="20" width="164" height="22" rx="10" ry="10"></rect>
<text x="270" y="35">Token "ParenLeftW"</text>
</g>
<path d="M352 31h20"></path>
<path d="M168 31a10 10 0 0 1 10 10v10a10 10 0 0 0 10 10"></path>
<g class="terminal">
<path d="M188 61h4"></path>
<path d="M348 61h4"></path>
<rect x="192" y="50" width="156" height="22" rx="10" ry="10"></rect>
<text x="270" y="65">Token "ParenLeft"</text>
</g>
<path d="M352 61a10 10 0 0 0 10 -10v-10a10 10 0 0 1 10 -10"></path>
</g>
<g>
<path d="M372 31h0"></path>
<path d="M568 31h0"></path>
<path d="M372 31h20"></path>
<g class="non-terminal">
<path d="M392 31h44"></path>
<path d="M504 31h44"></path>
<rect x="436" y="20" width="68" height="22"></rect>
<a xlink:href="reuse_source.svg"><text x="470" y="35">source</text>
</a>
</g>
<path d="M548 31h20"></path>
<path d="M372 31a10 10 0 0 1 10 10v10a10 10 0 0 0 10 10"></path>
<g class="non-terminal">
<path d="M392 61h4"></path>
<path d="M544 61h4"></path>
<rect x="396" y="50" width="148" height="22"></rect>
<a xlink:href="reuse_parameter_list_s.svg"><text x="470" y="65">parameter&#95;list&#95;s</text>
</a>
</g>
<path d="M548 61a10 10 0 0 0 10 -10v-10a10 10 0 0 1 10 -10"></path>
<path d="M372 31a10 10 0 0 1 10 10v40a10 10 0 0 0 10 10"></path>
<g class="non-terminal">
<path d="M392 91h0"></path>
<path d="M548 91h0"></path>
<rect x="392" y="80" width="156" height="22"></rect>
<a xlink:href="reuse_method_parameters.svg"><text x="470" y="95">method&#95;parameters</text>
</a>
</g>
<path d="M548 91a10 10 0 0 0 10 -10v-40a10 10 0 0 1 10 -10"></path>
</g>
<path d="M568 31h10"></path>
<g class="terminal">
<path d="M578 31h0"></path>
<path d="M622 31h0"></path>
<rect x="578" y="20" width="44" height="22" rx="10" ry="10"></rect>
<text x="600" y="35">")"</text>
</g>
</g>
<path d="M622 31h10"></path>
<path d="M 632 31 h 20 m 0 -10 v 20"></path>
</g>
</svg>
