<svg xmlns="http://www.w3.org/2000/svg" xmlns:xlink="http://www.w3.org/1999/xlink" class="railroad-diagram" width="1232" height="208" viewBox="0 0 1232 208">
<defs>
<style type="text/css"><![CDATA[
path {
stroke-width: 3;
stroke: black;
fill: rgba(0,0,0,0);
}
text {
font: bold 14px monospace;
text-anchor: middle;
}
text.diagram-text {
font-size: 12px;
}
a {
fill: blue;
}
text.diagram-arrow {
font-size: 16px;
}
text.label {
text-anchor: start;
}
text.comment {
font: italic 12px monospace;
}
rect {
stroke-width: 3;
stroke: black;
fill: #BCBCBC;
}
path.diagram-text {
stroke-width: 3;
stroke: black;
fill: #BCBCBC;
cursor: help;
}
]]></style>
</defs>
<g transform="translate(.5 .5)">
<path d="M 20 21 v 20 m 0 -10 h 20.5"></path>
<g>
<path d="M40 31h0"></path>
<path d="M1192 31h0"></path>
<path d="M40 31h20"></path>
<g class="non-terminal">
<path d="M60 31h0"></path>
<path d="M160 31h1012"></path>
<rect x="60" y="20" width="100" height="22"></rect>
<a xlink:href="reuse_inlinedata.svg"><text x="110" y="35">InlineData</text>
</a>
</g>
<path d="M1172 31h20"></path>
<path d="M40 31a10 10 0 0 1 10 10v10a10 10 0 0 0 10 10"></path>
<g class="non-terminal">
<path d="M60 61h0"></path>
<path d="M144 61h1028"></path>
<rect x="60" y="50" width="84" height="22"></rect>
<a xlink:href="reuse_inlinefs.svg"><text x="102" y="65">InlineFS</text>
</a>
</g>
<path d="M1172 61a10 10 0 0 0 10 -10v-10a10 10 0 0 1 10 -10"></path>
<path d="M40 31a10 10 0 0 1 10 10v57a10 10 0 0 0 10 10"></path>
<g>
<path d="M60 108h0"></path>
<path d="M1172 108h0"></path>
<g>
<path d="M60 108h0"></path>
<path d="M826 108h0"></path>
<g>
<path d="M60 108h0"></path>
<path d="M208 108h0"></path>
<path d="M60 108h20"></path>
<g class="non-terminal">
<path d="M80 108h0"></path>
<path d="M140 108h48"></path>
<rect x="80" y="97" width="60" height="22"></rect>
<a xlink:href="reuse_field.svg"><text x="110" y="112">Field</text>
</a>
</g>
<path d="M188 108h20"></path>
<path d="M60 108a10 10 0 0 1 10 10v10a10 10 0 0 0 10 10"></path>
<g class="non-terminal">
<path d="M80 138h0"></path>
<path d="M188 138h0"></path>
<rect x="80" y="127" width="108" height="22"></rect>
<a xlink:href="reuse_fieldsymbol.svg"><text x="134" y="142">FieldSymbol</text>
</a>
</g>
<path d="M188 138a10 10 0 0 0 10 -10v-10a10 10 0 0 1 10 -10"></path>
</g>
<g>
<path d="M208 108h0"></path>
<path d="M388 108h0"></path>
<path d="M208 108a10 10 0 0 0 10 -10v0a10 10 0 0 1 10 -10"></path>
<g>
<path d="M228 88h140"></path>
</g>
<path d="M368 88a10 10 0 0 1 10 10v0a10 10 0 0 0 10 10"></path>
<path d="M208 108h20"></path>
<g class="non-terminal">
<path d="M228 108h0"></path>
<path d="M368 108h0"></path>
<rect x="228" y="97" width="140" height="22"></rect>
<a xlink:href="reuse_tableexpression.svg"><text x="298" y="112">TableExpression</text>
</a>
</g>
<path d="M368 108h20"></path>
</g>
<g>
<path d="M388 108h0"></path>
<path d="M826 108h0"></path>
<path d="M388 108a10 10 0 0 0 10 -10v-8a10 10 0 0 1 10 -10"></path>
<g>
<path d="M408 80h398"></path>
</g>
<path d="M806 80a10 10 0 0 1 10 10v8a10 10 0 0 0 10 10"></path>
<path d="M388 108h20"></path>
<g>
<path d="M408 108h0"></path>
<path d="M806 108h0"></path>
<path d="M408 108h10"></path>
<g>
<path d="M418 108h0"></path>
<path d="M796 108h0"></path>
<g class="non-terminal">
<path d="M418 108h0"></path>
<path d="M526 108h0"></path>
<rect x="418" y="97" width="108" height="22"></rect>
<a xlink:href="reuse_arrowordash.svg"><text x="472" y="112">ArrowOrDash</text>
</a>
</g>
<path d="M526 108h10"></path>
<path d="M536 108h10"></path>
<g class="non-terminal">
<path d="M546 108h0"></path>
<path d="M606 108h0"></path>
<rect x="546" y="97" width="60" height="22"></rect>
<a xlink:href="reuse_field.svg"><text x="576" y="112">Field</text>
</a>
</g>
<path d="M606 108h10"></path>
<g>
<path d="M616 108h0"></path>
<path d="M796 108h0"></path>
<path d="M616 108a10 10 0 0 0 10 -10v0a10 10 0 0 1 10 -10"></path>
<g>
<path d="M636 88h140"></path>
</g>
<path d="M776 88a10 10 0 0 1 10 10v0a10 10 0 0 0 10 10"></path>
<path d="M616 108h20"></path>
<g class="non-terminal">
<path d="M636 108h0"></path>
<path d="M776 108h0"></path>
<rect x="636" y="97" width="140" height="22"></rect>
<a xlink:href="reuse_tableexpression.svg"><text x="706" y="112">TableExpression</text>
</a>
</g>
<path d="M776 108h20"></path>
</g>
</g>
<path d="M796 108h10"></path>
<path d="M418 108a10 10 0 0 0 -10 10v0a10 10 0 0 0 10 10"></path>
<g>
<path d="M418 128h378"></path>
</g>
<path d="M796 128a10 10 0 0 0 10 -10v0a10 10 0 0 0 -10 -10"></path>
</g>
<path d="M806 108h20"></path>
</g>
</g>
<path d="M826 108h10"></path>
<g>
<path d="M836 108h0"></path>
<path d="M1172 108h0"></path>
<path d="M836 108h20"></path>
<g class="non-terminal">
<path d="M856 108h0"></path>
<path d="M948 108h204"></path>
<rect x="856" y="97" width="92" height="22"></rect>
<a xlink:href="reuse_tablebody.svg"><text x="902" y="112">TableBody</text>
</a>
</g>
<path d="M1152 108h20"></path>
<path d="M836 108a10 10 0 0 1 10 10v19a10 10 0 0 0 10 10"></path>
<g>
<path d="M856 147h0"></path>
<path d="M1152 147h0"></path>
<g>
<path d="M856 147h0"></path>
<path d="M1004 147h0"></path>
<path d="M856 147a10 10 0 0 0 10 -10v0a10 10 0 0 1 10 -10"></path>
<g>
<path d="M876 127h108"></path>
</g>
<path d="M984 127a10 10 0 0 1 10 10v0a10 10 0 0 0 10 10"></path>
<path d="M856 147h20"></path>
<g class="non-terminal">
<path d="M876 147h0"></path>
<path d="M984 147h0"></path>
<rect x="876" y="136" width="108" height="22"></rect>
<a xlink:href="reuse_fieldoffset.svg"><text x="930" y="151">FieldOffset</text>
</a>
</g>
<path d="M984 147h20"></path>
</g>
<g>
<path d="M1004 147h0"></path>
<path d="M1152 147h0"></path>
<path d="M1004 147a10 10 0 0 0 10 -10v0a10 10 0 0 1 10 -10"></path>
<g>
<path d="M1024 127h108"></path>
</g>
<path d="M1132 127a10 10 0 0 1 10 10v0a10 10 0 0 0 10 10"></path>
<path d="M1004 147h20"></path>
<g class="non-terminal">
<path d="M1024 147h0"></path>
<path d="M1132 147h0"></path>
<rect x="1024" y="136" width="108" height="22"></rect>
<a xlink:href="reuse_fieldlength.svg"><text x="1078" y="151">FieldLength</text>
</a>
</g>
<path d="M1132 147h20"></path>
</g>
</g>
<path d="M1152 147a10 10 0 0 0 10 -10v-19a10 10 0 0 1 10 -10"></path>
<path d="M836 108a10 10 0 0 1 10 10v49a10 10 0 0 0 10 10"></path>
<g>
<path d="M856 177h0"></path>
<path d="M1004 177h148"></path>
<g class="terminal">
<path d="M856 177h0"></path>
<path d="M940 177h0"></path>
<rect x="856" y="166" width="84" height="22" rx="10" ry="10"></rect>
<text x="898" y="181">!"->/=>"</text>
</g>
<path d="M940 177h10"></path>
<path d="M950 177h10"></path>
<g class="terminal">
<path d="M960 177h0"></path>
<path d="M1004 177h0"></path>
<rect x="960" y="166" width="44" height="22" rx="10" ry="10"></rect>
<text x="982" y="181">"&#42;"</text>
</g>
</g>
<path d="M1152 177a10 10 0 0 0 10 -10v-49a10 10 0 0 1 10 -10"></path>
</g>
</g>
<path d="M1172 108a10 10 0 0 0 10 -10v-57a10 10 0 0 1 10 -10"></path>
</g>
<path d="M 1192 31 h 20 m 0 -10 v 20"></path>
</g>
</svg>
