<svg xmlns="http://www.w3.org/2000/svg" xmlns:xlink="http://www.w3.org/1999/xlink" class="railroad-diagram" width="746" height="131" viewBox="0 0 746 131">
<defs>
<style type="text/css"><![CDATA[
path {
stroke-width: 3;
stroke: black;
fill: rgba(0,0,0,0);
}
text {
font: bold 14px monospace;
text-anchor: middle;
}
text.diagram-text {
font-size: 12px;
}
a {
fill: blue;
}
text.diagram-arrow {
font-size: 16px;
}
text.label {
text-anchor: start;
}
text.comment {
font: italic 12px monospace;
}
rect {
stroke-width: 3;
stroke: black;
fill: #BCBCBC;
}
path.diagram-text {
stroke-width: 3;
stroke: black;
fill: #BCBCBC;
cursor: help;
}
]]></style>
</defs>
<g transform="translate(.5 .5)">
<path d="M 20 21 v 20 m 0 -10 h 20.5"></path>
<g>
<path d="M40 31h0"></path>
<path d="M706 31h0"></path>
<path d="M40 31h20"></path>
<g class="non-terminal">
<path d="M60 31h259"></path>
<path d="M427 31h259"></path>
<rect x="319" y="20" width="108" height="22"></rect>
<a xlink:href="reuse_inline_decl.svg"><text x="373" y="35">inline&#95;decl</text>
</a>
</g>
<path d="M686 31h20"></path>
<path d="M40 31a10 10 0 0 1 10 10v19a10 10 0 0 0 10 10"></path>
<g>
<path d="M60 70h0"></path>
<path d="M686 70h0"></path>
<g>
<path d="M60 70h0"></path>
<path d="M480 70h0"></path>
<g>
<path d="M60 70h0"></path>
<path d="M216 70h0"></path>
<path d="M60 70h20"></path>
<g class="non-terminal">
<path d="M80 70h28"></path>
<path d="M168 70h28"></path>
<rect x="108" y="59" width="60" height="22"></rect>
<a xlink:href="reuse_field.svg"><text x="138" y="74">field</text>
</a>
</g>
<path d="M196 70h20"></path>
<path d="M60 70a10 10 0 0 1 10 10v10a10 10 0 0 0 10 10"></path>
<g class="non-terminal">
<path d="M80 100h0"></path>
<path d="M196 100h0"></path>
<rect x="80" y="89" width="116" height="22"></rect>
<a xlink:href="reuse_field_symbol.svg"><text x="138" y="104">field&#95;symbol</text>
</a>
</g>
<path d="M196 100a10 10 0 0 0 10 -10v-10a10 10 0 0 1 10 -10"></path>
</g>
<g>
<path d="M216 70h0"></path>
<path d="M480 70h0"></path>
<path d="M216 70a10 10 0 0 0 10 -10v0a10 10 0 0 1 10 -10"></path>
<g>
<path d="M236 50h224"></path>
</g>
<path d="M460 50a10 10 0 0 1 10 10v0a10 10 0 0 0 10 10"></path>
<path d="M216 70h20"></path>
<g>
<path d="M236 70h0"></path>
<path d="M460 70h0"></path>
<path d="M236 70h10"></path>
<g>
<path d="M246 70h0"></path>
<path d="M450 70h0"></path>
<g class="non-terminal">
<path d="M246 70h0"></path>
<path d="M370 70h0"></path>
<rect x="246" y="59" width="124" height="22"></rect>
<a xlink:href="reuse_arrow_or_dash.svg"><text x="308" y="74">arrow&#95;or&#95;dash</text>
</a>
</g>
<path d="M370 70h10"></path>
<path d="M380 70h10"></path>
<g class="non-terminal">
<path d="M390 70h0"></path>
<path d="M450 70h0"></path>
<rect x="390" y="59" width="60" height="22"></rect>
<a xlink:href="reuse_field.svg"><text x="420" y="74">field</text>
</a>
</g>
</g>
<path d="M450 70h10"></path>
<path d="M246 70a10 10 0 0 0 -10 10v0a10 10 0 0 0 10 10"></path>
<g>
<path d="M246 90h204"></path>
</g>
<path d="M450 90a10 10 0 0 0 10 -10v0a10 10 0 0 0 -10 -10"></path>
</g>
<path d="M460 70h20"></path>
</g>
</g>
<path d="M480 70h10"></path>
<g>
<path d="M490 70h0"></path>
<path d="M686 70h0"></path>
<path d="M490 70a10 10 0 0 0 10 -10v0a10 10 0 0 1 10 -10"></path>
<g>
<path d="M510 50h156"></path>
</g>
<path d="M666 50a10 10 0 0 1 10 10v0a10 10 0 0 0 10 10"></path>
<path d="M490 70h20"></path>
<g>
<path d="M510 70h0"></path>
<path d="M666 70h0"></path>
<path d="M510 70h20"></path>
<g>
<path d="M530 70h4"></path>
<path d="M642 70h4"></path>
<g class="terminal">
<path d="M534 70h0"></path>
<path d="M578 70h0"></path>
<rect x="534" y="59" width="44" height="22" rx="10" ry="10"></rect>
<text x="556" y="74">"&#91;"</text>
</g>
<path d="M578 70h10"></path>
<path d="M588 70h10"></path>
<g class="terminal">
<path d="M598 70h0"></path>
<path d="M642 70h0"></path>
<rect x="598" y="59" width="44" height="22" rx="10" ry="10"></rect>
<text x="620" y="74">"&#93;"</text>
</g>
</g>
<path d="M646 70h20"></path>
<path d="M510 70a10 10 0 0 1 10 10v10a10 10 0 0 0 10 10"></path>
<g class="non-terminal">
<path d="M530 100h0"></path>
<path d="M646 100h0"></path>
<rect x="530" y="89" width="116" height="22"></rect>
<a xlink:href="reuse_field_offset.svg"><text x="588" y="104">field&#95;offset</text>
</a>
</g>
<path d="M646 100a10 10 0 0 0 10 -10v-10a10 10 0 0 1 10 -10"></path>
</g>
<path d="M666 70h20"></path>
</g>
</g>
<path d="M686 70a10 10 0 0 0 10 -10v-19a10 10 0 0 1 10 -10"></path>
</g>
<path d="M 706 31 h 20 m 0 -10 v 20"></path>
</g>
</svg>
