<svg xmlns="http://www.w3.org/2000/svg" xmlns:xlink="http://www.w3.org/1999/xlink" class="railroad-diagram" width="254" height="71" viewBox="0 0 254 71">
<defs>
<style type="text/css"><![CDATA[
path {
stroke-width: 3;
stroke: black;
fill: rgba(0,0,0,0);
}
text {
font: bold 14px monospace;
text-anchor: middle;
}
text.diagram-text {
font-size: 12px;
}
a {
fill: blue;
}
text.diagram-arrow {
font-size: 16px;
}
text.label {
text-anchor: start;
}
text.comment {
font: italic 12px monospace;
}
rect {
stroke-width: 3;
stroke: black;
fill: #BCBCBC;
}
path.diagram-text {
stroke-width: 3;
stroke: black;
fill: #BCBCBC;
cursor: help;
}
]]></style>
</defs>
<g transform="translate(.5 .5)">
<path d="M 20 30 v 20 m 0 -10 h 20.5"></path>
<path d="M40 40h10"></path>
<g>
<path d="M50 40h0"></path>
<path d="M204 40h0"></path>
<g>
<path d="M50 40h0"></path>
<path d="M134 40h0"></path>
<path d="M50 40a10 10 0 0 0 10 -10v0a10 10 0 0 1 10 -10"></path>
<g>
<path d="M70 20h44"></path>
</g>
<path d="M114 20a10 10 0 0 1 10 10v0a10 10 0 0 0 10 10"></path>
<path d="M50 40h20"></path>
<g class="terminal">
<path d="M70 40h0"></path>
<path d="M114 40h0"></path>
<rect x="70" y="29" width="44" height="22" rx="10" ry="10"></rect>
<text x="92" y="44">^-$</text>
</g>
<path d="M114 40h20"></path>
</g>
<path d="M134 40h10"></path>
<g class="terminal">
<path d="M144 40h0"></path>
<path d="M204 40h0"></path>
<rect x="144" y="29" width="60" height="22" rx="10" ry="10"></rect>
<text x="174" y="44">^\d+$</text>
</g>
</g>
<path d="M204 40h10"></path>
<path d="M 214 40 h 20 m 0 -10 v 20"></path>
</g>
</svg>
