<svg xmlns="http://www.w3.org/2000/svg" xmlns:xlink="http://www.w3.org/1999/xlink" class="railroad-diagram" width="362" height="80" viewBox="0 0 362 80">
<defs>
<style type="text/css"><![CDATA[
path {
stroke-width: 3;
stroke: black;
fill: rgba(0,0,0,0);
}
text {
font: bold 14px monospace;
text-anchor: middle;
}
text.diagram-text {
font-size: 12px;
}
a {
fill: blue;
}
text.diagram-arrow {
font-size: 16px;
}
text.label {
text-anchor: start;
}
text.comment {
font: italic 12px monospace;
}
rect {
stroke-width: 3;
stroke: black;
fill: #BCBCBC;
}
path.diagram-text {
stroke-width: 3;
stroke: black;
fill: #BCBCBC;
cursor: help;
}
]]></style>
</defs>
<g transform="translate(.5 .5)">
<path d="M 20 30 v 20 m 0 -10 h 20.5"></path>
<path d="M40 40h10"></path>
<g>
<path d="M50 40h0"></path>
<path d="M312 40h0"></path>
<g class="terminal">
<path d="M50 40h0"></path>
<path d="M110 40h0"></path>
<rect x="50" y="29" width="60" height="22" rx="10" ry="10"></rect>
<text x="80" y="44">^\w+$</text>
</g>
<path d="M110 40h10"></path>
<g>
<path d="M120 40h0"></path>
<path d="M312 40h0"></path>
<path d="M120 40a10 10 0 0 0 10 -10v0a10 10 0 0 1 10 -10"></path>
<g>
<path d="M140 20h152"></path>
</g>
<path d="M292 20a10 10 0 0 1 10 10v0a10 10 0 0 0 10 10"></path>
<path d="M120 40h20"></path>
<g>
<path d="M140 40h0"></path>
<path d="M292 40h0"></path>
<path d="M140 40h10"></path>
<g>
<path d="M150 40h0"></path>
<path d="M282 40h0"></path>
<g class="terminal">
<path d="M150 40h0"></path>
<path d="M202 40h0"></path>
<rect x="150" y="29" width="52" height="22" rx="10" ry="10"></rect>
<text x="176" y="44">!"-"</text>
</g>
<path d="M202 40h10"></path>
<path d="M212 40h10"></path>
<g class="terminal">
<path d="M222 40h0"></path>
<path d="M282 40h0"></path>
<rect x="222" y="29" width="60" height="22" rx="10" ry="10"></rect>
<text x="252" y="44">^\w+$</text>
</g>
</g>
<path d="M282 40h10"></path>
<path d="M150 40a10 10 0 0 0 -10 10v0a10 10 0 0 0 10 10"></path>
<g>
<path d="M150 60h132"></path>
</g>
<path d="M282 60a10 10 0 0 0 10 -10v0a10 10 0 0 0 -10 -10"></path>
</g>
<path d="M292 40h20"></path>
</g>
</g>
<path d="M312 40h10"></path>
<path d="M 322 40 h 20 m 0 -10 v 20"></path>
</g>
</svg>
