<svg xmlns="http://www.w3.org/2000/svg" xmlns:xlink="http://www.w3.org/1999/xlink" class="railroad-diagram" width="516" height="92" viewBox="0 0 516 92">
<defs>
<style type="text/css"><![CDATA[
path {
stroke-width: 3;
stroke: black;
fill: rgba(0,0,0,0);
}
text {
font: bold 14px monospace;
text-anchor: middle;
}
text.diagram-text {
font-size: 12px;
}
a {
fill: blue;
}
text.diagram-arrow {
font-size: 16px;
}
text.label {
text-anchor: start;
}
text.comment {
font: italic 12px monospace;
}
rect {
stroke-width: 3;
stroke: black;
fill: #BCBCBC;
}
path.diagram-text {
stroke-width: 3;
stroke: black;
fill: #BCBCBC;
cursor: help;
}
]]></style>
</defs>
<g transform="translate(.5 .5)">
<path d="M 20 21 v 20 m 0 -10 h 20.5"></path>
<path d="M40 31h10"></path>
<g>
<path d="M50 31h0"></path>
<path d="M466 31h0"></path>
<g>
<path d="M50 31h0"></path>
<path d="M116 31h0"></path>
<text x="83" y="36" class="comment">v740sp02</text>
</g>
<path d="M116 31h10"></path>
<path d="M126 31h10"></path>
<g>
<path d="M136 31h0"></path>
<path d="M466 31h0"></path>
<g class="terminal">
<path d="M136 31h0"></path>
<path d="M204 31h0"></path>
<rect x="136" y="20" width="68" height="22" rx="10" ry="10"></rect>
<text x="170" y="35">"DATA"</text>
</g>
<path d="M204 31h10"></path>
<path d="M214 31h10"></path>
<g class="terminal">
<path d="M224 31h0"></path>
<path d="M276 31h0"></path>
<rect x="224" y="20" width="52" height="22" rx="10" ry="10"></rect>
<text x="250" y="35">!"("</text>
</g>
<path d="M276 31h10"></path>
<path d="M286 31h10"></path>
<g class="non-terminal">
<path d="M296 31h0"></path>
<path d="M356 31h0"></path>
<rect x="296" y="20" width="60" height="22"></rect>
<a xlink:href="reuse_Field.svg"><text x="326" y="35">Field</text>
</a>
</g>
<path d="M356 31h10"></path>
<g>
<path d="M366 31h0"></path>
<path d="M466 31h0"></path>
<path d="M366 31h20"></path>
<g class="terminal">
<path d="M386 31h0"></path>
<path d="M438 31h8"></path>
<rect x="386" y="20" width="52" height="22" rx="10" ry="10"></rect>
<text x="412" y="35">!")"</text>
</g>
<path d="M446 31h20"></path>
<path d="M366 31a10 10 0 0 1 10 10v10a10 10 0 0 0 10 10"></path>
<g class="terminal">
<path d="M386 61h0"></path>
<path d="M446 61h0"></path>
<rect x="386" y="50" width="60" height="22" rx="10" ry="10"></rect>
<text x="416" y="65">!") "</text>
</g>
<path d="M446 61a10 10 0 0 0 10 -10v-10a10 10 0 0 1 10 -10"></path>
</g>
</g>
</g>
<path d="M466 31h10"></path>
<path d="M 476 31 h 20 m 0 -10 v 20"></path>
</g>
</svg>
