<svg xmlns="http://www.w3.org/2000/svg" xmlns:xlink="http://www.w3.org/1999/xlink" class="railroad-diagram" width="1086" height="371" viewBox="0 0 1086 371">
<defs>
<style type="text/css"><![CDATA[
path {
stroke-width: 3;
stroke: black;
fill: rgba(0,0,0,0);
}
text {
font: bold 14px monospace;
text-anchor: middle;
}
text.diagram-text {
font-size: 12px;
}
a {
fill: blue;
}
text.diagram-arrow {
font-size: 16px;
}
text.label {
text-anchor: start;
}
text.comment {
font: italic 12px monospace;
}
rect {
stroke-width: 3;
stroke: black;
fill: #BCBCBC;
}
path.diagram-text {
stroke-width: 3;
stroke: black;
fill: #BCBCBC;
cursor: help;
}
]]></style>
</defs>
<g transform="translate(.5 .5)">
<path d="M 20 21 v 20 m 0 -10 h 20.5"></path>
<g>
<path d="M40 31h0"></path>
<path d="M1046 31h0"></path>
<path d="M40 31h20"></path>
<g>
<path d="M60 31h0"></path>
<path d="M1026 31h0"></path>
<g class="terminal">
<path d="M60 31h0"></path>
<path d="M128 31h0"></path>
<rect x="60" y="20" width="68" height="22" rx="10" ry="10"></rect>
<text x="94" y="35">"TYPE"</text>
</g>
<path d="M128 31h10"></path>
<g>
<path d="M138 31h0"></path>
<path d="M1026 31h0"></path>
<path d="M138 31h20"></path>
<g>
<path d="M158 31h0"></path>
<path d="M384 31h622"></path>
<g>
<path d="M158 31h0"></path>
<path d="M298 31h0"></path>
<path d="M158 31h20"></path>
<g class="terminal">
<path d="M178 31h0"></path>
<path d="M278 31h0"></path>
<rect x="178" y="20" width="100" height="22" rx="10" ry="10"></rect>
<text x="228" y="35">"STANDARD"</text>
</g>
<path d="M278 31h20"></path>
<path d="M158 31a10 10 0 0 1 10 10v10a10 10 0 0 0 10 10"></path>
<g class="terminal">
<path d="M178 61h0"></path>
<path d="M262 61h16"></path>
<rect x="178" y="50" width="84" height="22" rx="10" ry="10"></rect>
<text x="220" y="65">"HASHED"</text>
</g>
<path d="M278 61a10 10 0 0 0 10 -10v-10a10 10 0 0 1 10 -10"></path>
<path d="M158 31a10 10 0 0 1 10 10v40a10 10 0 0 0 10 10"></path>
<g class="terminal">
<path d="M178 91h0"></path>
<path d="M254 91h24"></path>
<rect x="178" y="80" width="76" height="22" rx="10" ry="10"></rect>
<text x="216" y="95">"INDEX"</text>
</g>
<path d="M278 91a10 10 0 0 0 10 -10v-40a10 10 0 0 1 10 -10"></path>
<path d="M158 31a10 10 0 0 1 10 10v70a10 10 0 0 0 10 10"></path>
<g class="terminal">
<path d="M178 121h0"></path>
<path d="M262 121h16"></path>
<rect x="178" y="110" width="84" height="22" rx="10" ry="10"></rect>
<text x="220" y="125">"SORTED"</text>
</g>
<path d="M278 121a10 10 0 0 0 10 -10v-70a10 10 0 0 1 10 -10"></path>
<path d="M158 31a10 10 0 0 1 10 10v100a10 10 0 0 0 10 10"></path>
<g class="terminal">
<path d="M178 151h0"></path>
<path d="M238 151h40"></path>
<rect x="178" y="140" width="60" height="22" rx="10" ry="10"></rect>
<text x="208" y="155">"ANY"</text>
</g>
<path d="M278 151a10 10 0 0 0 10 -10v-100a10 10 0 0 1 10 -10"></path>
</g>
<path d="M298 31h10"></path>
<g class="terminal">
<path d="M308 31h0"></path>
<path d="M384 31h0"></path>
<rect x="308" y="20" width="76" height="22" rx="10" ry="10"></rect>
<text x="346" y="35">"TABLE"</text>
</g>
</g>
<path d="M1006 31h20"></path>
<path d="M138 31a10 10 0 0 1 10 10v139a10 10 0 0 0 10 10"></path>
<g>
<path d="M158 190h0"></path>
<path d="M1006 190h0"></path>
<g>
<path d="M158 190h0"></path>
<path d="M496 190h0"></path>
<path d="M158 190a10 10 0 0 0 10 -10v0a10 10 0 0 1 10 -10"></path>
<g>
<path d="M178 170h298"></path>
</g>
<path d="M476 170a10 10 0 0 1 10 10v0a10 10 0 0 0 10 10"></path>
<path d="M158 190h20"></path>
<g>
<path d="M178 190h0"></path>
<path d="M476 190h0"></path>
<g>
<path d="M178 190h0"></path>
<path d="M404 190h0"></path>
<g>
<path d="M178 190h0"></path>
<path d="M318 190h0"></path>
<path d="M178 190h20"></path>
<g class="terminal">
<path d="M198 190h0"></path>
<path d="M298 190h0"></path>
<rect x="198" y="179" width="100" height="22" rx="10" ry="10"></rect>
<text x="248" y="194">"STANDARD"</text>
</g>
<path d="M298 190h20"></path>
<path d="M178 190a10 10 0 0 1 10 10v10a10 10 0 0 0 10 10"></path>
<g class="terminal">
<path d="M198 220h0"></path>
<path d="M282 220h16"></path>
<rect x="198" y="209" width="84" height="22" rx="10" ry="10"></rect>
<text x="240" y="224">"HASHED"</text>
</g>
<path d="M298 220a10 10 0 0 0 10 -10v-10a10 10 0 0 1 10 -10"></path>
<path d="M178 190a10 10 0 0 1 10 10v40a10 10 0 0 0 10 10"></path>
<g class="terminal">
<path d="M198 250h0"></path>
<path d="M274 250h24"></path>
<rect x="198" y="239" width="76" height="22" rx="10" ry="10"></rect>
<text x="236" y="254">"INDEX"</text>
</g>
<path d="M298 250a10 10 0 0 0 10 -10v-40a10 10 0 0 1 10 -10"></path>
<path d="M178 190a10 10 0 0 1 10 10v70a10 10 0 0 0 10 10"></path>
<g class="terminal">
<path d="M198 280h0"></path>
<path d="M282 280h16"></path>
<rect x="198" y="269" width="84" height="22" rx="10" ry="10"></rect>
<text x="240" y="284">"SORTED"</text>
</g>
<path d="M298 280a10 10 0 0 0 10 -10v-70a10 10 0 0 1 10 -10"></path>
<path d="M178 190a10 10 0 0 1 10 10v100a10 10 0 0 0 10 10"></path>
<g class="terminal">
<path d="M198 310h0"></path>
<path d="M258 310h40"></path>
<rect x="198" y="299" width="60" height="22" rx="10" ry="10"></rect>
<text x="228" y="314">"ANY"</text>
</g>
<path d="M298 310a10 10 0 0 0 10 -10v-100a10 10 0 0 1 10 -10"></path>
</g>
<path d="M318 190h10"></path>
<g class="terminal">
<path d="M328 190h0"></path>
<path d="M404 190h0"></path>
<rect x="328" y="179" width="76" height="22" rx="10" ry="10"></rect>
<text x="366" y="194">"TABLE"</text>
</g>
</g>
<path d="M404 190h10"></path>
<path d="M414 190h10"></path>
<g class="terminal">
<path d="M424 190h0"></path>
<path d="M476 190h0"></path>
<rect x="424" y="179" width="52" height="22" rx="10" ry="10"></rect>
<text x="450" y="194">"OF"</text>
</g>
</g>
<path d="M476 190h20"></path>
</g>
<g>
<path d="M496 190h0"></path>
<path d="M620 190h0"></path>
<path d="M496 190a10 10 0 0 0 10 -10v0a10 10 0 0 1 10 -10"></path>
<g>
<path d="M516 170h84"></path>
</g>
<path d="M600 170a10 10 0 0 1 10 10v0a10 10 0 0 0 10 10"></path>
<path d="M496 190h20"></path>
<g class="terminal">
<path d="M516 190h0"></path>
<path d="M600 190h0"></path>
<rect x="516" y="179" width="84" height="22" rx="10" ry="10"></rect>
<text x="558" y="194">"REF TO"</text>
</g>
<path d="M600 190h20"></path>
</g>
<path d="M620 190h10"></path>
<g class="non-terminal">
<path d="M630 190h0"></path>
<path d="M714 190h0"></path>
<rect x="630" y="179" width="84" height="22"></rect>
<a xlink:href="reuse_typename.svg"><text x="672" y="194">TypeName</text>
</a>
</g>
<path d="M714 190h10"></path>
<g>
<path d="M724 190h0"></path>
<path d="M1006 190h0"></path>
<path d="M724 190a10 10 0 0 0 10 -10v0a10 10 0 0 1 10 -10"></path>
<g>
<path d="M744 170h242"></path>
</g>
<path d="M986 170a10 10 0 0 1 10 10v0a10 10 0 0 0 10 10"></path>
<path d="M724 190h20"></path>
<g>
<path d="M744 190h0"></path>
<path d="M986 190h0"></path>
<g class="terminal">
<path d="M744 190h0"></path>
<path d="M836 190h0"></path>
<rect x="744" y="179" width="92" height="22" rx="10" ry="10"></rect>
<text x="790" y="194">"DEFAULT"</text>
</g>
<path d="M836 190h10"></path>
<g>
<path d="M846 190h0"></path>
<path d="M986 190h0"></path>
<path d="M846 190h20"></path>
<g class="non-terminal">
<path d="M866 190h0"></path>
<path d="M950 190h16"></path>
<rect x="866" y="179" width="84" height="22"></rect>
<a xlink:href="reuse_constant.svg"><text x="908" y="194">Constant</text>
</a>
</g>
<path d="M966 190h20"></path>
<path d="M846 190a10 10 0 0 1 10 10v10a10 10 0 0 0 10 10"></path>
<g class="non-terminal">
<path d="M866 220h0"></path>
<path d="M966 220h0"></path>
<rect x="866" y="209" width="100" height="22"></rect>
<a xlink:href="reuse_fieldchain.svg"><text x="916" y="224">FieldChain</text>
</a>
</g>
<path d="M966 220a10 10 0 0 0 10 -10v-10a10 10 0 0 1 10 -10"></path>
</g>
</g>
<path d="M986 190h20"></path>
</g>
</g>
<path d="M1006 190a10 10 0 0 0 10 -10v-139a10 10 0 0 1 10 -10"></path>
</g>
</g>
<path d="M1026 31h20"></path>
<path d="M40 31a10 10 0 0 1 10 10v289a10 10 0 0 0 10 10"></path>
<g>
<path d="M60 340h0"></path>
<path d="M248 340h778"></path>
<g class="terminal">
<path d="M60 340h0"></path>
<path d="M128 340h0"></path>
<rect x="60" y="329" width="68" height="22" rx="10" ry="10"></rect>
<text x="94" y="344">"LIKE"</text>
</g>
<path d="M128 340h10"></path>
<path d="M138 340h10"></path>
<g class="non-terminal">
<path d="M148 340h0"></path>
<path d="M248 340h0"></path>
<rect x="148" y="329" width="100" height="22"></rect>
<a xlink:href="reuse_fieldchain.svg"><text x="198" y="344">FieldChain</text>
</a>
</g>
</g>
<path d="M1026 340a10 10 0 0 0 10 -10v-289a10 10 0 0 1 10 -10"></path>
</g>
<path d="M 1046 31 h 20 m 0 -10 v 20"></path>
</g>
</svg>
