<svg xmlns="http://www.w3.org/2000/svg" xmlns:xlink="http://www.w3.org/1999/xlink" class="railroad-diagram" width="410" height="80" viewBox="0 0 410 80">
<defs>
<style type="text/css"><![CDATA[
path {
stroke-width: 3;
stroke: black;
fill: rgba(0,0,0,0);
}
text {
font: bold 14px monospace;
text-anchor: middle;
}
text.diagram-text {
font-size: 12px;
}
a {
fill: blue;
}
text.diagram-arrow {
font-size: 16px;
}
text.label {
text-anchor: start;
}
text.comment {
font: italic 12px monospace;
}
rect {
stroke-width: 3;
stroke: black;
fill: #BCBCBC;
}
path.diagram-text {
stroke-width: 3;
stroke: black;
fill: #BCBCBC;
cursor: help;
}
]]></style>
</defs>
<g transform="translate(.5 .5)">
<path d="M 20 30 v 20 m 0 -10 h 20.5"></path>
<path d="M40 40h10"></path>
<g>
<path d="M50 40h0"></path>
<path d="M360 40h0"></path>
<g class="terminal">
<path d="M50 40h0"></path>
<path d="M158 40h0"></path>
<rect x="50" y="29" width="108" height="22" rx="10" ry="10"></rect>
<text x="104" y="44">^\w&#91;\w\&#42;&#93;&#42;$</text>
</g>
<path d="M158 40h10"></path>
<g>
<path d="M168 40h0"></path>
<path d="M360 40h0"></path>
<path d="M168 40a10 10 0 0 0 10 -10v0a10 10 0 0 1 10 -10"></path>
<g>
<path d="M188 20h152"></path>
</g>
<path d="M340 20a10 10 0 0 1 10 10v0a10 10 0 0 0 10 10"></path>
<path d="M168 40h20"></path>
<g>
<path d="M188 40h0"></path>
<path d="M340 40h0"></path>
<path d="M188 40h10"></path>
<g>
<path d="M198 40h0"></path>
<path d="M330 40h0"></path>
<g class="terminal">
<path d="M198 40h0"></path>
<path d="M250 40h0"></path>
<rect x="198" y="29" width="52" height="22" rx="10" ry="10"></rect>
<text x="224" y="44">!"-"</text>
</g>
<path d="M250 40h10"></path>
<path d="M260 40h10"></path>
<g class="terminal">
<path d="M270 40h0"></path>
<path d="M330 40h0"></path>
<rect x="270" y="29" width="60" height="22" rx="10" ry="10"></rect>
<text x="300" y="44">^\w+$</text>
</g>
</g>
<path d="M330 40h10"></path>
<path d="M198 40a10 10 0 0 0 -10 10v0a10 10 0 0 0 10 10"></path>
<g>
<path d="M198 60h132"></path>
</g>
<path d="M330 60a10 10 0 0 0 10 -10v0a10 10 0 0 0 -10 -10"></path>
</g>
<path d="M340 40h20"></path>
</g>
</g>
<path d="M360 40h10"></path>
<path d="M 370 40 h 20 m 0 -10 v 20"></path>
</g>
</svg>
