<svg xmlns="http://www.w3.org/2000/svg" xmlns:xlink="http://www.w3.org/1999/xlink" class="railroad-diagram" width="550" height="71" viewBox="0 0 550 71">
<defs>
<style type="text/css"><![CDATA[
path {
stroke-width: 3;
stroke: black;
fill: rgba(0,0,0,0);
}
text {
font: bold 14px monospace;
text-anchor: middle;
}
text.diagram-text {
font-size: 12px;
}
a {
fill: blue;
}
text.diagram-arrow {
font-size: 16px;
}
text.label {
text-anchor: start;
}
text.comment {
font: italic 12px monospace;
}
rect {
stroke-width: 3;
stroke: black;
fill: #BCBCBC;
}
path.diagram-text {
stroke-width: 3;
stroke: black;
fill: #BCBCBC;
cursor: help;
}
]]></style>
</defs>
<g transform="translate(.5 .5)">
<path d="M 20 30 v 20 m 0 -10 h 20.5"></path>
<path d="M40 40h10"></path>
<g>
<path d="M50 40h0"></path>
<path d="M500 40h0"></path>
<g class="non-terminal">
<path d="M50 40h0"></path>
<path d="M110 40h0"></path>
<rect x="50" y="29" width="60" height="22"></rect>
<a xlink:href="reuse_Field.svg"><text x="80" y="44">Field</text>
</a>
</g>
<path d="M110 40h10"></path>
<path d="M120 40h10"></path>
<g class="terminal">
<path d="M130 40h0"></path>
<path d="M174 40h0"></path>
<rect x="130" y="29" width="44" height="22" rx="10" ry="10"></rect>
<text x="152" y="44">"="</text>
</g>
<path d="M174 40h10"></path>
<path d="M184 40h10"></path>
<g class="non-terminal">
<path d="M194 40h0"></path>
<path d="M270 40h0"></path>
<rect x="194" y="29" width="76" height="22"></rect>
<a xlink:href="reuse_Integer.svg"><text x="232" y="44">Integer</text>
</a>
</g>
<path d="M270 40h10"></path>
<g>
<path d="M280 40h0"></path>
<path d="M500 40h0"></path>
<path d="M280 40a10 10 0 0 0 10 -10v0a10 10 0 0 1 10 -10"></path>
<g>
<path d="M300 20h180"></path>
</g>
<path d="M480 20a10 10 0 0 1 10 10v0a10 10 0 0 0 10 10"></path>
<path d="M280 40h20"></path>
<g>
<path d="M300 40h0"></path>
<path d="M480 40h0"></path>
<g class="terminal">
<path d="M300 40h0"></path>
<path d="M392 40h0"></path>
<rect x="300" y="29" width="92" height="22" rx="10" ry="10"></rect>
<text x="346" y="44">"MESSAGE"</text>
</g>
<path d="M392 40h10"></path>
<path d="M402 40h10"></path>
<g class="non-terminal">
<path d="M412 40h0"></path>
<path d="M480 40h0"></path>
<rect x="412" y="29" width="68" height="22"></rect>
<a xlink:href="reuse_Target.svg"><text x="446" y="44">Target</text>
</a>
</g>
</g>
<path d="M480 40h20"></path>
</g>
</g>
<path d="M500 40h10"></path>
<path d="M 510 40 h 20 m 0 -10 v 20"></path>
</g>
</svg>
