<svg xmlns="http://www.w3.org/2000/svg" xmlns:xlink="http://www.w3.org/1999/xlink" class="railroad-diagram" width="438" height="92" viewBox="0 0 438 92">
<defs>
<style type="text/css"><![CDATA[
path {
stroke-width: 3;
stroke: black;
fill: rgba(0,0,0,0);
}
text {
font: bold 14px monospace;
text-anchor: middle;
}
text.diagram-text {
font-size: 12px;
}
a {
fill: blue;
}
text.diagram-arrow {
font-size: 16px;
}
text.label {
text-anchor: start;
}
text.comment {
font: italic 12px monospace;
}
rect {
stroke-width: 3;
stroke: black;
fill: #BCBCBC;
}
path.diagram-text {
stroke-width: 3;
stroke: black;
fill: #BCBCBC;
cursor: help;
}
]]></style>
</defs>
<g transform="translate(.5 .5)">
<path d="M 20 21 v 20 m 0 -10 h 20.5"></path>
<path d="M40 31h10"></path>
<g>
<path d="M50 31h0"></path>
<path d="M388 31h0"></path>
<g class="terminal">
<path d="M50 31h0"></path>
<path d="M126 31h0"></path>
<rect x="50" y="20" width="76" height="22" rx="10" ry="10"></rect>
<text x="88" y="35">"VALUE"</text>
</g>
<path d="M126 31h10"></path>
<path d="M136 31h10"></path>
<g class="terminal">
<path d="M146 31h0"></path>
<path d="M198 31h0"></path>
<rect x="146" y="20" width="52" height="22" rx="10" ry="10"></rect>
<text x="172" y="35">!"("</text>
</g>
<path d="M198 31h10"></path>
<path d="M208 31h10"></path>
<g class="non-terminal">
<path d="M218 31h0"></path>
<path d="M278 31h0"></path>
<rect x="218" y="20" width="60" height="22"></rect>
<a xlink:href="reuse_field.svg"><text x="248" y="35">Field</text>
</a>
</g>
<path d="M278 31h10"></path>
<g>
<path d="M288 31h0"></path>
<path d="M388 31h0"></path>
<path d="M288 31h20"></path>
<g class="terminal">
<path d="M308 31h0"></path>
<path d="M360 31h8"></path>
<rect x="308" y="20" width="52" height="22" rx="10" ry="10"></rect>
<text x="334" y="35">!")"</text>
</g>
<path d="M368 31h20"></path>
<path d="M288 31a10 10 0 0 1 10 10v10a10 10 0 0 0 10 10"></path>
<g class="terminal">
<path d="M308 61h0"></path>
<path d="M368 61h0"></path>
<rect x="308" y="50" width="60" height="22" rx="10" ry="10"></rect>
<text x="338" y="65">!") "</text>
</g>
<path d="M368 61a10 10 0 0 0 10 -10v-10a10 10 0 0 1 10 -10"></path>
</g>
</g>
<path d="M388 31h10"></path>
<path d="M 398 31 h 20 m 0 -10 v 20"></path>
</g>
</svg>
