<svg xmlns="http://www.w3.org/2000/svg" xmlns:xlink="http://www.w3.org/1999/xlink" class="railroad-diagram" width="768" height="80" viewBox="0 0 768 80">
<defs>
<style type="text/css"><![CDATA[
path {
stroke-width: 3;
stroke: black;
fill: rgba(0,0,0,0);
}
text {
font: bold 14px monospace;
text-anchor: middle;
}
text.diagram-text {
font-size: 12px;
}
a {
fill: blue;
}
text.diagram-arrow {
font-size: 16px;
}
text.label {
text-anchor: start;
}
text.comment {
font: italic 12px monospace;
}
rect {
stroke-width: 3;
stroke: black;
fill: #BCBCBC;
}
path.diagram-text {
stroke-width: 3;
stroke: black;
fill: #BCBCBC;
cursor: help;
}
]]></style>
</defs>
<g transform="translate(.5 .5)">
<path d="M 20 30 v 20 m 0 -10 h 20.5"></path>
<path d="M40 40h10"></path>
<g>
<path d="M50 40h0"></path>
<path d="M718 40h0"></path>
<g>
<path d="M50 40h0"></path>
<path d="M278 40h0"></path>
<path d="M50 40a10 10 0 0 0 10 -10v0a10 10 0 0 1 10 -10"></path>
<g>
<path d="M70 20h188"></path>
</g>
<path d="M258 20a10 10 0 0 1 10 10v0a10 10 0 0 0 10 10"></path>
<path d="M50 40h20"></path>
<g>
<path d="M70 40h0"></path>
<path d="M258 40h0"></path>
<g class="non-terminal">
<path d="M70 40h0"></path>
<path d="M178 40h0"></path>
<rect x="70" y="29" width="108" height="22"></rect>
<a xlink:href="reuse_field_chain.svg"><text x="124" y="44">field&#95;chain</text>
</a>
</g>
<path d="M178 40h10"></path>
<path d="M188 40h10"></path>
<g class="non-terminal">
<path d="M198 40h0"></path>
<path d="M258 40h0"></path>
<rect x="198" y="29" width="60" height="22"></rect>
<a xlink:href="reuse_arrow.svg"><text x="228" y="44">arrow</text>
</a>
</g>
</g>
<path d="M258 40h20"></path>
</g>
<path d="M278 40h10"></path>
<g class="non-terminal">
<path d="M288 40h0"></path>
<path d="M396 40h0"></path>
<rect x="288" y="29" width="108" height="22"></rect>
<a xlink:href="reuse_method_call.svg"><text x="342" y="44">method&#95;call</text>
</a>
</g>
<path d="M396 40h10"></path>
<g>
<path d="M406 40h0"></path>
<path d="M718 40h0"></path>
<path d="M406 40a10 10 0 0 0 10 -10v0a10 10 0 0 1 10 -10"></path>
<g>
<path d="M426 20h272"></path>
</g>
<path d="M698 20a10 10 0 0 1 10 10v0a10 10 0 0 0 10 10"></path>
<path d="M406 40h20"></path>
<g>
<path d="M426 40h0"></path>
<path d="M698 40h0"></path>
<path d="M426 40h10"></path>
<g>
<path d="M436 40h0"></path>
<path d="M688 40h0"></path>
<g class="non-terminal">
<path d="M436 40h0"></path>
<path d="M560 40h0"></path>
<rect x="436" y="29" width="124" height="22"></rect>
<a xlink:href="reuse_arrow_or_dash.svg"><text x="498" y="44">arrow&#95;or&#95;dash</text>
</a>
</g>
<path d="M560 40h10"></path>
<path d="M570 40h10"></path>
<g class="non-terminal">
<path d="M580 40h0"></path>
<path d="M688 40h0"></path>
<rect x="580" y="29" width="108" height="22"></rect>
<a xlink:href="reuse_method_call.svg"><text x="634" y="44">method&#95;call</text>
</a>
</g>
</g>
<path d="M688 40h10"></path>
<path d="M436 40a10 10 0 0 0 -10 10v0a10 10 0 0 0 10 10"></path>
<g>
<path d="M436 60h252"></path>
</g>
<path d="M688 60a10 10 0 0 0 10 -10v0a10 10 0 0 0 -10 -10"></path>
</g>
<path d="M698 40h20"></path>
</g>
</g>
<path d="M718 40h10"></path>
<path d="M 728 40 h 20 m 0 -10 v 20"></path>
</g>
</svg>
