<svg xmlns="http://www.w3.org/2000/svg" xmlns:xlink="http://www.w3.org/1999/xlink" class="railroad-diagram" width="1848" height="229" viewBox="0 0 1848 229">
<defs>
<style type="text/css"><![CDATA[
path {
stroke-width: 3;
stroke: black;
fill: rgba(0,0,0,0);
}
text {
font: bold 14px monospace;
text-anchor: middle;
}
text.diagram-text {
font-size: 12px;
}
a {
fill: blue;
}
text.diagram-arrow {
font-size: 16px;
}
text.label {
text-anchor: start;
}
text.comment {
font: italic 12px monospace;
}
rect {
stroke-width: 3;
stroke: black;
fill: #BCBCBC;
}
path.diagram-text {
stroke-width: 3;
stroke: black;
fill: #BCBCBC;
cursor: help;
}
]]></style>
</defs>
<g transform="translate(.5 .5)">
<path d="M 20 21 v 20 m 0 -10 h 20.5"></path>
<path d="M40 31h10"></path>
<g>
<path d="M50 31h0"></path>
<path d="M1798 31h0"></path>
<g>
<path d="M50 31h0"></path>
<path d="M158 31h0"></path>
<path d="M50 31h20"></path>
<g class="terminal">
<path d="M70 31h0"></path>
<path d="M138 31h0"></path>
<rect x="70" y="20" width="68" height="22" rx="10" ry="10"></rect>
<text x="104" y="35">"LIKE"</text>
</g>
<path d="M138 31h20"></path>
<path d="M50 31a10 10 0 0 1 10 10v10a10 10 0 0 0 10 10"></path>
<g class="terminal">
<path d="M70 61h0"></path>
<path d="M138 61h0"></path>
<rect x="70" y="50" width="68" height="22" rx="10" ry="10"></rect>
<text x="104" y="65">"TYPE"</text>
</g>
<path d="M138 61a10 10 0 0 0 10 -10v-10a10 10 0 0 1 10 -10"></path>
</g>
<g>
<path d="M158 31h0"></path>
<path d="M1798 31h0"></path>
<path d="M158 31h20"></path>
<g>
<path d="M178 31h0"></path>
<path d="M532 31h1246"></path>
<g class="non-terminal">
<path d="M178 31h0"></path>
<path d="M262 31h0"></path>
<rect x="178" y="20" width="84" height="22"></rect>
<a xlink:href="reuse_typename.svg"><text x="220" y="35">TypeName</text>
</a>
</g>
<path d="M262 31h10"></path>
<path d="M272 31h10"></path>
<g>
<path d="M282 31h0"></path>
<path d="M532 31h0"></path>
<path d="M312 31h10"></path>
<g>
<path d="M322 31h0"></path>
<path d="M502 31h0"></path>
<g class="terminal">
<path d="M322 31h0"></path>
<path d="M406 31h0"></path>
<rect x="322" y="20" width="84" height="22" rx="10" ry="10"></rect>
<text x="364" y="35">"OCCURS"</text>
</g>
<path d="M406 31h10"></path>
<path d="M416 31h10"></path>
<g class="non-terminal">
<path d="M426 31h0"></path>
<path d="M502 31h0"></path>
<rect x="426" y="20" width="76" height="22"></rect>
<a xlink:href="reuse_integer.svg"><text x="464" y="35">Integer</text>
</a>
</g>
</g>
<path d="M502 31h10"></path>
<path d="M312 31v20a10 10 0 0 0 10 10"></path>
<g class="terminal">
<path d="M322 61h0"></path>
<path d="M486 61h16"></path>
<rect x="322" y="50" width="164" height="22" rx="10" ry="10"></rect>
<text x="404" y="65">"WITH HEADER LINE"</text>
</g>
<path d="M502 61a10 10 0 0 0 10 -10v-20"></path>
<g class="diagram-text">
<title>take one or more branches, once each, in any order</title>
<path d="M 312 21 h -26 a 4 4 0 0 0 -4 4 v 12 a 4 4 0 0 0 4 4 h 26 z" class="diagram-text"></path>
<text x="297" y="35" class="diagram-text">1+</text>
<path d="M 512 21 h 16 a 4 4 0 0 1 4 4 v 12 a 4 4 0 0 1 -4 4 h -16 z" class="diagram-text"></path>
<path d="M 519 29 a 4 4 0 1 0 6 -1 m 2.75 -1 h -4 v 4 m 0 -3 h 2" style="stroke-width: 1.75"></path>
</g>
</g>
</g>
<path d="M1778 31h20"></path>
<path d="M158 31a10 10 0 0 1 10 10v57a10 10 0 0 0 10 10"></path>
<g>
<path d="M178 108h0"></path>
<path d="M1778 108h0"></path>
<g>
<path d="M178 108h0"></path>
<path d="M358 108h0"></path>
<path d="M178 108a10 10 0 0 0 10 -10v0a10 10 0 0 1 10 -10"></path>
<g>
<path d="M198 88h140"></path>
</g>
<path d="M338 88a10 10 0 0 1 10 10v0a10 10 0 0 0 10 10"></path>
<path d="M178 108h20"></path>
<g>
<path d="M198 108h0"></path>
<path d="M338 108h0"></path>
<path d="M198 108h20"></path>
<g class="terminal">
<path d="M218 108h0"></path>
<path d="M318 108h0"></path>
<rect x="218" y="97" width="100" height="22" rx="10" ry="10"></rect>
<text x="268" y="112">"STANDARD"</text>
</g>
<path d="M318 108h20"></path>
<path d="M198 108a10 10 0 0 1 10 10v10a10 10 0 0 0 10 10"></path>
<g class="terminal">
<path d="M218 138h0"></path>
<path d="M302 138h16"></path>
<rect x="218" y="127" width="84" height="22" rx="10" ry="10"></rect>
<text x="260" y="142">"HASHED"</text>
</g>
<path d="M318 138a10 10 0 0 0 10 -10v-10a10 10 0 0 1 10 -10"></path>
<path d="M198 108a10 10 0 0 1 10 10v40a10 10 0 0 0 10 10"></path>
<g class="terminal">
<path d="M218 168h0"></path>
<path d="M302 168h16"></path>
<rect x="218" y="157" width="84" height="22" rx="10" ry="10"></rect>
<text x="260" y="172">"SORTED"</text>
</g>
<path d="M318 168a10 10 0 0 0 10 -10v-40a10 10 0 0 1 10 -10"></path>
<path d="M198 108a10 10 0 0 1 10 10v70a10 10 0 0 0 10 10"></path>
<g class="terminal">
<path d="M218 198h0"></path>
<path d="M278 198h40"></path>
<rect x="218" y="187" width="60" height="22" rx="10" ry="10"></rect>
<text x="248" y="202">"ANY"</text>
</g>
<path d="M318 198a10 10 0 0 0 10 -10v-70a10 10 0 0 1 10 -10"></path>
</g>
<path d="M338 108h20"></path>
</g>
<path d="M358 108h10"></path>
<g class="terminal">
<path d="M368 108h0"></path>
<path d="M444 108h0"></path>
<rect x="368" y="97" width="76" height="22" rx="10" ry="10"></rect>
<text x="406" y="112">"TABLE"</text>
</g>
<path d="M444 108h10"></path>
<g>
<path d="M454 108h0"></path>
<path d="M546 108h0"></path>
<path d="M454 108a10 10 0 0 0 10 -10v0a10 10 0 0 1 10 -10"></path>
<g>
<path d="M474 88h52"></path>
</g>
<path d="M526 88a10 10 0 0 1 10 10v0a10 10 0 0 0 10 10"></path>
<path d="M454 108h20"></path>
<g class="terminal">
<path d="M474 108h0"></path>
<path d="M526 108h0"></path>
<rect x="474" y="97" width="52" height="22" rx="10" ry="10"></rect>
<text x="500" y="112">"OF"</text>
</g>
<path d="M526 108h20"></path>
</g>
<g>
<path d="M546 108h0"></path>
<path d="M670 108h0"></path>
<path d="M546 108a10 10 0 0 0 10 -10v0a10 10 0 0 1 10 -10"></path>
<g>
<path d="M566 88h84"></path>
</g>
<path d="M650 88a10 10 0 0 1 10 10v0a10 10 0 0 0 10 10"></path>
<path d="M546 108h20"></path>
<g class="terminal">
<path d="M566 108h0"></path>
<path d="M650 108h0"></path>
<rect x="566" y="97" width="84" height="22" rx="10" ry="10"></rect>
<text x="608" y="112">"REF TO"</text>
</g>
<path d="M650 108h20"></path>
</g>
<g>
<path d="M670 108h0"></path>
<path d="M794 108h0"></path>
<path d="M670 108a10 10 0 0 0 10 -10v0a10 10 0 0 1 10 -10"></path>
<g>
<path d="M690 88h84"></path>
</g>
<path d="M774 88a10 10 0 0 1 10 10v0a10 10 0 0 0 10 10"></path>
<path d="M670 108h20"></path>
<g class="non-terminal">
<path d="M690 108h0"></path>
<path d="M774 108h0"></path>
<rect x="690" y="97" width="84" height="22"></rect>
<a xlink:href="reuse_typename.svg"><text x="732" y="112">TypeName</text>
</a>
</g>
<path d="M774 108h20"></path>
</g>
<g>
<path d="M794 108h0"></path>
<path d="M998 108h0"></path>
<path d="M794 108a10 10 0 0 0 10 -10v0a10 10 0 0 1 10 -10"></path>
<g>
<path d="M814 88h164"></path>
</g>
<path d="M978 88a10 10 0 0 1 10 10v0a10 10 0 0 0 10 10"></path>
<path d="M794 108h20"></path>
<g class="terminal">
<path d="M814 108h0"></path>
<path d="M978 108h0"></path>
<rect x="814" y="97" width="164" height="22" rx="10" ry="10"></rect>
<text x="896" y="112">"WITH HEADER LINE"</text>
</g>
<path d="M978 108h20"></path>
</g>
<g>
<path d="M998 108h0"></path>
<path d="M1778 108h0"></path>
<path d="M998 108a10 10 0 0 0 10 -10v-8a10 10 0 0 1 10 -10"></path>
<g>
<path d="M1018 80h740"></path>
</g>
<path d="M1758 80a10 10 0 0 1 10 10v8a10 10 0 0 0 10 10"></path>
<path d="M998 108h20"></path>
<g>
<path d="M1018 108h0"></path>
<path d="M1758 108h0"></path>
<g class="terminal">
<path d="M1018 108h0"></path>
<path d="M1086 108h0"></path>
<rect x="1018" y="97" width="68" height="22" rx="10" ry="10"></rect>
<text x="1052" y="112">"WITH"</text>
</g>
<path d="M1086 108h10"></path>
<g>
<path d="M1096 108h0"></path>
<path d="M1292 108h0"></path>
<path d="M1096 108a10 10 0 0 0 10 -10v0a10 10 0 0 1 10 -10"></path>
<g>
<path d="M1116 88h156"></path>
</g>
<path d="M1272 88a10 10 0 0 1 10 10v0a10 10 0 0 0 10 10"></path>
<path d="M1096 108h20"></path>
<g>
<path d="M1116 108h0"></path>
<path d="M1272 108h0"></path>
<path d="M1116 108h20"></path>
<g class="terminal">
<path d="M1136 108h0"></path>
<path d="M1252 108h0"></path>
<rect x="1136" y="97" width="116" height="22" rx="10" ry="10"></rect>
<text x="1194" y="112">"NON-UNIQUE"</text>
</g>
<path d="M1252 108h20"></path>
<path d="M1116 108a10 10 0 0 1 10 10v10a10 10 0 0 0 10 10"></path>
<g class="terminal">
<path d="M1136 138h0"></path>
<path d="M1220 138h32"></path>
<rect x="1136" y="127" width="84" height="22" rx="10" ry="10"></rect>
<text x="1178" y="142">"UNIQUE"</text>
</g>
<path d="M1252 138a10 10 0 0 0 10 -10v-10a10 10 0 0 1 10 -10"></path>
</g>
<path d="M1272 108h20"></path>
</g>
<g>
<path d="M1292 108h0"></path>
<path d="M1534 108h0"></path>
<path d="M1292 108a10 10 0 0 0 10 -10v0a10 10 0 0 1 10 -10"></path>
<g>
<path d="M1312 88h202"></path>
</g>
<path d="M1514 88a10 10 0 0 1 10 10v0a10 10 0 0 0 10 10"></path>
<path d="M1292 108h20"></path>
<g>
<path d="M1312 108h0"></path>
<path d="M1514 108h0"></path>
<path d="M1312 108h20"></path>
<g class="terminal">
<path d="M1332 108h0"></path>
<path d="M1424 108h70"></path>
<rect x="1332" y="97" width="92" height="22" rx="10" ry="10"></rect>
<text x="1378" y="112">"DEFAULT"</text>
</g>
<path d="M1494 108h20"></path>
<path d="M1312 108a10 10 0 0 1 10 10v10a10 10 0 0 0 10 10"></path>
<g>
<path d="M1332 138h0"></path>
<path d="M1494 138h0"></path>
<g>
<path d="M1332 138h0"></path>
<path d="M1398 138h0"></path>
<text x="1365" y="143" class="comment">v740sp02</text>
</g>
<path d="M1398 138h10"></path>
<path d="M1408 138h10"></path>
<g class="terminal">
<path d="M1418 138h0"></path>
<path d="M1494 138h0"></path>
<rect x="1418" y="127" width="76" height="22" rx="10" ry="10"></rect>
<text x="1456" y="142">"EMPTY"</text>
</g>
</g>
<path d="M1494 138a10 10 0 0 0 10 -10v-10a10 10 0 0 1 10 -10"></path>
</g>
<path d="M1514 108h20"></path>
</g>
<path d="M1534 108h10"></path>
<g class="terminal">
<path d="M1544 108h0"></path>
<path d="M1604 108h0"></path>
<rect x="1544" y="97" width="60" height="22" rx="10" ry="10"></rect>
<text x="1574" y="112">"KEY"</text>
</g>
<path d="M1604 108h10"></path>
<g>
<path d="M1614 108h0"></path>
<path d="M1758 108h0"></path>
<path d="M1614 108a10 10 0 0 0 10 -10v0a10 10 0 0 1 10 -10"></path>
<g>
<path d="M1634 88h104"></path>
</g>
<path d="M1738 88a10 10 0 0 1 10 10v0a10 10 0 0 0 10 10"></path>
<path d="M1614 108h20"></path>
<g>
<path d="M1634 108h0"></path>
<path d="M1738 108h0"></path>
<path d="M1634 108h10"></path>
<g class="non-terminal">
<path d="M1644 108h0"></path>
<path d="M1728 108h0"></path>
<rect x="1644" y="97" width="84" height="22"></rect>
<a xlink:href="reuse_fieldsub.svg"><text x="1686" y="112">FieldSub</text>
</a>
</g>
<path d="M1728 108h10"></path>
<path d="M1644 108a10 10 0 0 0 -10 10v0a10 10 0 0 0 10 10"></path>
<g>
<path d="M1644 128h84"></path>
</g>
<path d="M1728 128a10 10 0 0 0 10 -10v0a10 10 0 0 0 -10 -10"></path>
</g>
<path d="M1738 108h20"></path>
</g>
</g>
<path d="M1758 108h20"></path>
</g>
</g>
<path d="M1778 108a10 10 0 0 0 10 -10v-57a10 10 0 0 1 10 -10"></path>
</g>
</g>
<path d="M1798 31h10"></path>
<path d="M 1808 31 h 20 m 0 -10 v 20"></path>
</g>
</svg>
