<svg xmlns="http://www.w3.org/2000/svg" xmlns:xlink="http://www.w3.org/1999/xlink" class="railroad-diagram" width="1346" height="208" viewBox="0 0 1346 208">
<defs>
<style type="text/css"><![CDATA[
path {
stroke-width: 3;
stroke: black;
fill: rgba(0,0,0,0);
}
text {
font: bold 14px monospace;
text-anchor: middle;
}
text.diagram-text {
font-size: 12px;
}
a {
fill: blue;
}
text.diagram-arrow {
font-size: 16px;
}
text.label {
text-anchor: start;
}
text.comment {
font: italic 12px monospace;
}
rect {
stroke-width: 3;
stroke: black;
fill: #BCBCBC;
}
path.diagram-text {
stroke-width: 3;
stroke: black;
fill: #BCBCBC;
cursor: help;
}
]]></style>
</defs>
<g transform="translate(.5 .5)">
<path d="M 20 38 v 20 m 0 -10 h 20.5"></path>
<path d="M40 48h10"></path>
<g>
<path d="M50 48h0"></path>
<path d="M1296 48h0"></path>
<g>
<path d="M50 48h0"></path>
<path d="M774 48h0"></path>
<path d="M50 48h20"></path>
<g>
<path d="M70 48h0"></path>
<path d="M416 48h338"></path>
<g>
<path d="M70 48h0"></path>
<path d="M298 48h0"></path>
<path d="M70 48a10 10 0 0 0 10 -10v0a10 10 0 0 1 10 -10"></path>
<g>
<path d="M90 28h188"></path>
</g>
<path d="M278 28a10 10 0 0 1 10 10v0a10 10 0 0 0 10 10"></path>
<path d="M70 48h20"></path>
<g>
<path d="M90 48h0"></path>
<path d="M278 48h0"></path>
<g class="non-terminal">
<path d="M90 48h0"></path>
<path d="M198 48h0"></path>
<rect x="90" y="37" width="108" height="22"></rect>
<a xlink:href="reuse_field_chain.svg"><text x="144" y="52">field&#95;chain</text>
</a>
</g>
<path d="M198 48h10"></path>
<path d="M208 48h10"></path>
<g class="non-terminal">
<path d="M218 48h0"></path>
<path d="M278 48h0"></path>
<rect x="218" y="37" width="60" height="22"></rect>
<a xlink:href="reuse_arrow.svg"><text x="248" y="52">arrow</text>
</a>
</g>
</g>
<path d="M278 48h20"></path>
</g>
<path d="M298 48h10"></path>
<g class="non-terminal">
<path d="M308 48h0"></path>
<path d="M416 48h0"></path>
<rect x="308" y="37" width="108" height="22"></rect>
<a xlink:href="reuse_method_call.svg"><text x="362" y="52">method&#95;call</text>
</a>
</g>
</g>
<path d="M754 48h20"></path>
<path d="M50 48a10 10 0 0 1 10 10v19a10 10 0 0 0 10 10"></path>
<g>
<path d="M70 87h0"></path>
<path d="M754 87h0"></path>
<g>
<path d="M70 87h0"></path>
<path d="M136 87h0"></path>
<text x="103" y="92" class="comment">v740sp02</text>
</g>
<path d="M136 87h10"></path>
<path d="M146 87h10"></path>
<g>
<path d="M156 87h0"></path>
<path d="M754 87h0"></path>
<g class="terminal">
<path d="M156 87h0"></path>
<path d="M216 87h0"></path>
<rect x="156" y="76" width="60" height="22" rx="10" ry="10"></rect>
<text x="186" y="91">"NEW"</text>
</g>
<path d="M216 87h10"></path>
<path d="M226 87h10"></path>
<g class="non-terminal">
<path d="M236 87h0"></path>
<path d="M328 87h0"></path>
<rect x="236" y="76" width="92" height="22"></rect>
<a xlink:href="reuse_type_name.svg"><text x="282" y="91">type&#95;name</text>
</a>
</g>
<path d="M328 87h10"></path>
<path d="M338 87h10"></path>
<g class="terminal">
<path d="M348 87h0"></path>
<path d="M408 87h0"></path>
<rect x="348" y="76" width="60" height="22" rx="10" ry="10"></rect>
<text x="378" y="91">!"( "</text>
</g>
<path d="M408 87h10"></path>
<g>
<path d="M418 87h0"></path>
<path d="M646 87h0"></path>
<path d="M418 87a10 10 0 0 0 10 -10v0a10 10 0 0 1 10 -10"></path>
<g>
<path d="M438 67h188"></path>
</g>
<path d="M626 67a10 10 0 0 1 10 10v0a10 10 0 0 0 10 10"></path>
<path d="M418 87h20"></path>
<g>
<path d="M438 87h0"></path>
<path d="M626 87h0"></path>
<path d="M438 87h20"></path>
<g class="non-terminal">
<path d="M458 87h0"></path>
<path d="M526 87h80"></path>
<rect x="458" y="76" width="68" height="22"></rect>
<a xlink:href="reuse_source.svg"><text x="492" y="91">source</text>
</a>
</g>
<path d="M606 87h20"></path>
<path d="M438 87a10 10 0 0 1 10 10v10a10 10 0 0 0 10 10"></path>
<g class="non-terminal">
<path d="M458 117h0"></path>
<path d="M606 117h0"></path>
<rect x="458" y="106" width="148" height="22"></rect>
<a xlink:href="reuse_parameter_list_s.svg"><text x="532" y="121">parameter&#95;list&#95;s</text>
</a>
</g>
<path d="M606 117a10 10 0 0 0 10 -10v-10a10 10 0 0 1 10 -10"></path>
</g>
<path d="M626 87h20"></path>
</g>
<g>
<path d="M646 87h0"></path>
<path d="M754 87h0"></path>
<path d="M646 87h20"></path>
<g class="terminal">
<path d="M666 87h0"></path>
<path d="M734 87h0"></path>
<rect x="666" y="76" width="68" height="22" rx="10" ry="10"></rect>
<text x="700" y="91">!" ) "</text>
</g>
<path d="M734 87h20"></path>
<path d="M646 87a10 10 0 0 1 10 10v10a10 10 0 0 0 10 10"></path>
<g class="terminal">
<path d="M666 117h0"></path>
<path d="M726 117h8"></path>
<rect x="666" y="106" width="60" height="22" rx="10" ry="10"></rect>
<text x="696" y="121">!" )"</text>
</g>
<path d="M734 117a10 10 0 0 0 10 -10v-10a10 10 0 0 1 10 -10"></path>
</g>
</g>
</g>
<path d="M754 87a10 10 0 0 0 10 -10v-19a10 10 0 0 1 10 -10"></path>
<path d="M50 48a10 10 0 0 1 10 10v79a10 10 0 0 0 10 10"></path>
<g>
<path d="M70 147h0"></path>
<path d="M622 147h132"></path>
<g>
<path d="M70 147h0"></path>
<path d="M136 147h0"></path>
<text x="103" y="152" class="comment">v740sp02</text>
</g>
<path d="M136 147h10"></path>
<path d="M146 147h10"></path>
<g>
<path d="M156 147h0"></path>
<path d="M622 147h0"></path>
<g class="terminal">
<path d="M156 147h0"></path>
<path d="M224 147h0"></path>
<rect x="156" y="136" width="68" height="22" rx="10" ry="10"></rect>
<text x="190" y="151">"CAST"</text>
</g>
<path d="M224 147h10"></path>
<path d="M234 147h10"></path>
<g class="non-terminal">
<path d="M244 147h0"></path>
<path d="M336 147h0"></path>
<rect x="244" y="136" width="92" height="22"></rect>
<a xlink:href="reuse_type_name.svg"><text x="290" y="151">type&#95;name</text>
</a>
</g>
<path d="M336 147h10"></path>
<path d="M346 147h10"></path>
<g class="terminal">
<path d="M356 147h0"></path>
<path d="M416 147h0"></path>
<rect x="356" y="136" width="60" height="22" rx="10" ry="10"></rect>
<text x="386" y="151">!"( "</text>
</g>
<path d="M416 147h10"></path>
<path d="M426 147h10"></path>
<g class="non-terminal">
<path d="M436 147h0"></path>
<path d="M504 147h0"></path>
<rect x="436" y="136" width="68" height="22"></rect>
<a xlink:href="reuse_source.svg"><text x="470" y="151">source</text>
</a>
</g>
<path d="M504 147h10"></path>
<g>
<path d="M514 147h0"></path>
<path d="M622 147h0"></path>
<path d="M514 147h20"></path>
<g class="terminal">
<path d="M534 147h0"></path>
<path d="M602 147h0"></path>
<rect x="534" y="136" width="68" height="22" rx="10" ry="10"></rect>
<text x="568" y="151">!" ) "</text>
</g>
<path d="M602 147h20"></path>
<path d="M514 147a10 10 0 0 1 10 10v10a10 10 0 0 0 10 10"></path>
<g class="terminal">
<path d="M534 177h0"></path>
<path d="M594 177h8"></path>
<rect x="534" y="166" width="60" height="22" rx="10" ry="10"></rect>
<text x="564" y="181">!" )"</text>
</g>
<path d="M602 177a10 10 0 0 0 10 -10v-10a10 10 0 0 1 10 -10"></path>
</g>
</g>
</g>
<path d="M754 147a10 10 0 0 0 10 -10v-79a10 10 0 0 1 10 -10"></path>
</g>
<g>
<path d="M774 48h0"></path>
<path d="M1296 48h0"></path>
<path d="M774 48a10 10 0 0 0 10 -10v-8a10 10 0 0 1 10 -10"></path>
<g>
<path d="M794 20h482"></path>
</g>
<path d="M1276 20a10 10 0 0 1 10 10v8a10 10 0 0 0 10 10"></path>
<path d="M774 48h20"></path>
<g>
<path d="M794 48h0"></path>
<path d="M1276 48h0"></path>
<path d="M794 48h10"></path>
<g>
<path d="M804 48h0"></path>
<path d="M1266 48h0"></path>
<g>
<path d="M804 48h0"></path>
<path d="M1068 48h0"></path>
<path d="M804 48a10 10 0 0 0 10 -10v0a10 10 0 0 1 10 -10"></path>
<g>
<path d="M824 28h224"></path>
</g>
<path d="M1048 28a10 10 0 0 1 10 10v0a10 10 0 0 0 10 10"></path>
<path d="M804 48h20"></path>
<g>
<path d="M824 48h0"></path>
<path d="M1048 48h0"></path>
<path d="M824 48h10"></path>
<g>
<path d="M834 48h0"></path>
<path d="M1038 48h0"></path>
<g class="non-terminal">
<path d="M834 48h0"></path>
<path d="M958 48h0"></path>
<rect x="834" y="37" width="124" height="22"></rect>
<a xlink:href="reuse_arrow_or_dash.svg"><text x="896" y="52">arrow&#95;or&#95;dash</text>
</a>
</g>
<path d="M958 48h10"></path>
<path d="M968 48h10"></path>
<g class="non-terminal">
<path d="M978 48h0"></path>
<path d="M1038 48h0"></path>
<rect x="978" y="37" width="60" height="22"></rect>
<a xlink:href="reuse_field.svg"><text x="1008" y="52">field</text>
</a>
</g>
</g>
<path d="M1038 48h10"></path>
<path d="M834 48a10 10 0 0 0 -10 10v0a10 10 0 0 0 10 10"></path>
<g>
<path d="M834 68h204"></path>
</g>
<path d="M1038 68a10 10 0 0 0 10 -10v0a10 10 0 0 0 -10 -10"></path>
</g>
<path d="M1048 48h20"></path>
</g>
<path d="M1068 48h10"></path>
<g class="non-terminal">
<path d="M1078 48h0"></path>
<path d="M1138 48h0"></path>
<rect x="1078" y="37" width="60" height="22"></rect>
<a xlink:href="reuse_arrow.svg"><text x="1108" y="52">arrow</text>
</a>
</g>
<path d="M1138 48h10"></path>
<path d="M1148 48h10"></path>
<g class="non-terminal">
<path d="M1158 48h0"></path>
<path d="M1266 48h0"></path>
<rect x="1158" y="37" width="108" height="22"></rect>
<a xlink:href="reuse_method_call.svg"><text x="1212" y="52">method&#95;call</text>
</a>
</g>
</g>
<path d="M1266 48h10"></path>
<path d="M804 48a10 10 0 0 0 -10 10v8a10 10 0 0 0 10 10"></path>
<g>
<path d="M804 76h462"></path>
</g>
<path d="M1266 76a10 10 0 0 0 10 -10v-8a10 10 0 0 0 -10 -10"></path>
</g>
<path d="M1276 48h20"></path>
</g>
</g>
<path d="M1296 48h10"></path>
<path d="M 1306 48 h 20 m 0 -10 v 20"></path>
</g>
</svg>
