<svg xmlns="http://www.w3.org/2000/svg" xmlns:xlink="http://www.w3.org/1999/xlink" class="railroad-diagram" width="826" height="110" viewBox="0 0 826 110">
<defs>
<style type="text/css"><![CDATA[
path {
stroke-width: 3;
stroke: black;
fill: rgba(0,0,0,0);
}
text {
font: bold 14px monospace;
text-anchor: middle;
}
text.diagram-text {
font-size: 12px;
}
a {
fill: blue;
}
text.diagram-arrow {
font-size: 16px;
}
text.label {
text-anchor: start;
}
text.comment {
font: italic 12px monospace;
}
rect {
stroke-width: 3;
stroke: black;
fill: #BCBCBC;
}
path.diagram-text {
stroke-width: 3;
stroke: black;
fill: #BCBCBC;
cursor: help;
}
]]></style>
</defs>
<g transform="translate(.5 .5)">
<path d="M 20 21 v 20 m 0 -10 h 20.5"></path>
<path d="M40 31h10"></path>
<g>
<path d="M50 31h0"></path>
<path d="M776 31h0"></path>
<g>
<path d="M50 31h0"></path>
<path d="M116 31h0"></path>
<text x="83" y="36" class="comment">v740sp02</text>
</g>
<path d="M116 31h10"></path>
<path d="M126 31h10"></path>
<g>
<path d="M136 31h0"></path>
<path d="M776 31h0"></path>
<g class="terminal">
<path d="M136 31h0"></path>
<path d="M196 31h0"></path>
<rect x="136" y="20" width="60" height="22" rx="10" ry="10"></rect>
<text x="166" y="35">!"&#91; "</text>
</g>
<path d="M196 31h10"></path>
<g>
<path d="M206 31h0"></path>
<path d="M668 31h0"></path>
<path d="M206 31h20"></path>
<g class="non-terminal">
<path d="M226 31h0"></path>
<path d="M294 31h354"></path>
<rect x="226" y="20" width="68" height="22"></rect>
<a xlink:href="reuse_source.svg"><text x="260" y="35">Source</text>
</a>
</g>
<path d="M648 31h20"></path>
<path d="M206 31a10 10 0 0 1 10 10v19a10 10 0 0 0 10 10"></path>
<g>
<path d="M226 70h0"></path>
<path d="M648 70h0"></path>
<g>
<path d="M226 70h0"></path>
<path d="M406 70h0"></path>
<path d="M226 70a10 10 0 0 0 10 -10v0a10 10 0 0 1 10 -10"></path>
<g>
<path d="M246 50h140"></path>
</g>
<path d="M386 50a10 10 0 0 1 10 10v0a10 10 0 0 0 10 10"></path>
<path d="M226 70h20"></path>
<g>
<path d="M246 70h0"></path>
<path d="M386 70h0"></path>
<g class="terminal">
<path d="M246 70h0"></path>
<path d="M306 70h0"></path>
<rect x="246" y="59" width="60" height="22" rx="10" ry="10"></rect>
<text x="276" y="74">"KEY"</text>
</g>
<path d="M306 70h10"></path>
<path d="M316 70h10"></path>
<g class="non-terminal">
<path d="M326 70h0"></path>
<path d="M386 70h0"></path>
<rect x="326" y="59" width="60" height="22"></rect>
<a xlink:href="reuse_field.svg"><text x="356" y="74">Field</text>
</a>
</g>
</g>
<path d="M386 70h20"></path>
</g>
<path d="M406 70h10"></path>
<g>
<path d="M416 70h0"></path>
<path d="M648 70h0"></path>
<path d="M416 70h10"></path>
<g>
<path d="M426 70h0"></path>
<path d="M638 70h0"></path>
<g class="non-terminal">
<path d="M426 70h0"></path>
<path d="M486 70h0"></path>
<rect x="426" y="59" width="60" height="22"></rect>
<a xlink:href="reuse_field.svg"><text x="456" y="74">Field</text>
</a>
</g>
<path d="M486 70h10"></path>
<path d="M496 70h10"></path>
<g class="terminal">
<path d="M506 70h0"></path>
<path d="M550 70h0"></path>
<rect x="506" y="59" width="44" height="22" rx="10" ry="10"></rect>
<text x="528" y="74">"="</text>
</g>
<path d="M550 70h10"></path>
<path d="M560 70h10"></path>
<g class="non-terminal">
<path d="M570 70h0"></path>
<path d="M638 70h0"></path>
<rect x="570" y="59" width="68" height="22"></rect>
<a xlink:href="reuse_source.svg"><text x="604" y="74">Source</text>
</a>
</g>
</g>
<path d="M638 70h10"></path>
<path d="M426 70a10 10 0 0 0 -10 10v0a10 10 0 0 0 10 10"></path>
<g>
<path d="M426 90h212"></path>
</g>
<path d="M638 90a10 10 0 0 0 10 -10v0a10 10 0 0 0 -10 -10"></path>
</g>
</g>
<path d="M648 70a10 10 0 0 0 10 -10v-19a10 10 0 0 1 10 -10"></path>
</g>
<g>
<path d="M668 31h0"></path>
<path d="M776 31h0"></path>
<path d="M668 31h20"></path>
<g class="terminal">
<path d="M688 31h0"></path>
<path d="M748 31h8"></path>
<rect x="688" y="20" width="60" height="22" rx="10" ry="10"></rect>
<text x="718" y="35">!" &#93;"</text>
</g>
<path d="M756 31h20"></path>
<path d="M668 31a10 10 0 0 1 10 10v10a10 10 0 0 0 10 10"></path>
<g class="terminal">
<path d="M688 61h0"></path>
<path d="M756 61h0"></path>
<rect x="688" y="50" width="68" height="22" rx="10" ry="10"></rect>
<text x="722" y="65">!" &#93; "</text>
</g>
<path d="M756 61a10 10 0 0 0 10 -10v-10a10 10 0 0 1 10 -10"></path>
</g>
</g>
</g>
<path d="M776 31h10"></path>
<path d="M 786 31 h 20 m 0 -10 v 20"></path>
</g>
</svg>
