<svg xmlns="http://www.w3.org/2000/svg" xmlns:xlink="http://www.w3.org/1999/xlink" class="railroad-diagram" width="252" height="272" viewBox="0 0 252 272">
<defs>
<style type="text/css"><![CDATA[
path {
stroke-width: 3;
stroke: black;
fill: rgba(0,0,0,0);
}
text {
font: bold 14px monospace;
text-anchor: middle;
}
text.diagram-text {
font-size: 12px;
}
a {
fill: blue;
}
text.diagram-arrow {
font-size: 16px;
}
text.label {
text-anchor: start;
}
text.comment {
font: italic 12px monospace;
}
rect {
stroke-width: 3;
stroke: black;
fill: #BCBCBC;
}
path.diagram-text {
stroke-width: 3;
stroke: black;
fill: #BCBCBC;
cursor: help;
}
]]></style>
</defs>
<g transform="translate(.5 .5)">
<path d="M 20 21 v 20 m 0 -10 h 20.5"></path>
<g>
<path d="M40 31h0"></path>
<path d="M212 31h0"></path>
<path d="M40 31h20"></path>
<g class="terminal">
<path d="M60 31h0"></path>
<path d="M192 31h0"></path>
<rect x="60" y="20" width="132" height="22" rx="10" ry="10"></rect>
<text x="126" y="35">Token "WPlusW"</text>
</g>
<path d="M192 31h20"></path>
<path d="M40 31a10 10 0 0 1 10 10v10a10 10 0 0 0 10 10"></path>
<g class="terminal">
<path d="M60 61h0"></path>
<path d="M192 61h0"></path>
<rect x="60" y="50" width="132" height="22" rx="10" ry="10"></rect>
<text x="126" y="65">Token "WDashW"</text>
</g>
<path d="M192 61a10 10 0 0 0 10 -10v-10a10 10 0 0 1 10 -10"></path>
<path d="M40 31a10 10 0 0 1 10 10v40a10 10 0 0 0 10 10"></path>
<g class="terminal">
<path d="M60 91h44"></path>
<path d="M148 91h44"></path>
<rect x="104" y="80" width="44" height="22" rx="10" ry="10"></rect>
<text x="126" y="95">"&#42;"</text>
</g>
<path d="M192 91a10 10 0 0 0 10 -10v-40a10 10 0 0 1 10 -10"></path>
<path d="M40 31a10 10 0 0 1 10 10v70a10 10 0 0 0 10 10"></path>
<g class="terminal">
<path d="M60 121h44"></path>
<path d="M148 121h44"></path>
<rect x="104" y="110" width="44" height="22" rx="10" ry="10"></rect>
<text x="126" y="125">"/"</text>
</g>
<path d="M192 121a10 10 0 0 0 10 -10v-70a10 10 0 0 1 10 -10"></path>
<path d="M40 31a10 10 0 0 1 10 10v100a10 10 0 0 0 10 10"></path>
<g class="terminal">
<path d="M60 151h20"></path>
<path d="M172 151h20"></path>
<rect x="80" y="140" width="92" height="22" rx="10" ry="10"></rect>
<text x="126" y="155">"BIT-XOR"</text>
</g>
<path d="M192 151a10 10 0 0 0 10 -10v-100a10 10 0 0 1 10 -10"></path>
<path d="M40 31a10 10 0 0 1 10 10v130a10 10 0 0 0 10 10"></path>
<g class="terminal">
<path d="M60 181h20"></path>
<path d="M172 181h20"></path>
<rect x="80" y="170" width="92" height="22" rx="10" ry="10"></rect>
<text x="126" y="185">"BIT-AND"</text>
</g>
<path d="M192 181a10 10 0 0 0 10 -10v-130a10 10 0 0 1 10 -10"></path>
<path d="M40 31a10 10 0 0 1 10 10v160a10 10 0 0 0 10 10"></path>
<g class="terminal">
<path d="M60 211h24"></path>
<path d="M168 211h24"></path>
<rect x="84" y="200" width="84" height="22" rx="10" ry="10"></rect>
<text x="126" y="215">"BIT-OR"</text>
</g>
<path d="M192 211a10 10 0 0 0 10 -10v-160a10 10 0 0 1 10 -10"></path>
<path d="M40 31a10 10 0 0 1 10 10v190a10 10 0 0 0 10 10"></path>
<g class="terminal">
<path d="M60 241h36"></path>
<path d="M156 241h36"></path>
<rect x="96" y="230" width="60" height="22" rx="10" ry="10"></rect>
<text x="126" y="245">"MOD"</text>
</g>
<path d="M192 241a10 10 0 0 0 10 -10v-190a10 10 0 0 1 10 -10"></path>
</g>
<path d="M 212 31 h 20 m 0 -10 v 20"></path>
</g>
</svg>
