<svg xmlns="http://www.w3.org/2000/svg" xmlns:xlink="http://www.w3.org/1999/xlink" class="railroad-diagram" width="676" height="800" viewBox="0 0 676 800">
<defs>
<style type="text/css"><![CDATA[
path {
stroke-width: 3;
stroke: black;
fill: rgba(0,0,0,0);
}
text {
font: bold 14px monospace;
text-anchor: middle;
}
text.diagram-text {
font-size: 12px;
}
a {
fill: blue;
}
text.diagram-arrow {
font-size: 16px;
}
text.label {
text-anchor: start;
}
text.comment {
font: italic 12px monospace;
}
rect {
stroke-width: 3;
stroke: black;
fill: #BCBCBC;
}
path.diagram-text {
stroke-width: 3;
stroke: black;
fill: #BCBCBC;
cursor: help;
}
]]></style>
</defs>
<g transform="translate(.5 .5)">
<path d="M 20 30 v 20 m 0 -10 h 20.5"></path>
<path d="M40 40h10"></path>
<g>
<path d="M50 40h0"></path>
<path d="M626 40h0"></path>
<g>
<path d="M50 40h0"></path>
<path d="M150 40h0"></path>
<path d="M50 40a10 10 0 0 0 10 -10v0a10 10 0 0 1 10 -10"></path>
<g>
<path d="M70 20h60"></path>
</g>
<path d="M130 20a10 10 0 0 1 10 10v0a10 10 0 0 0 10 10"></path>
<path d="M50 40h20"></path>
<g class="terminal">
<path d="M70 40h0"></path>
<path d="M130 40h0"></path>
<rect x="70" y="29" width="60" height="22" rx="10" ry="10"></rect>
<text x="100" y="44">"NOT"</text>
</g>
<path d="M130 40h20"></path>
</g>
<path d="M150 40h10"></path>
<g class="non-terminal">
<path d="M160 40h0"></path>
<path d="M228 40h0"></path>
<rect x="160" y="29" width="68" height="22"></rect>
<a xlink:href="reuse_source.svg"><text x="194" y="44">source</text>
</a>
</g>
<path d="M228 40h10"></path>
<g>
<path d="M238 40h0"></path>
<path d="M626 40h0"></path>
<path d="M238 40h20"></path>
<g>
<path d="M258 40h34"></path>
<path d="M572 40h34"></path>
<g>
<path d="M292 40h0"></path>
<path d="M484 40h0"></path>
<g>
<path d="M292 40h0"></path>
<path d="M392 40h0"></path>
<path d="M292 40a10 10 0 0 0 10 -10v0a10 10 0 0 1 10 -10"></path>
<g>
<path d="M312 20h60"></path>
</g>
<path d="M372 20a10 10 0 0 1 10 10v0a10 10 0 0 0 10 10"></path>
<path d="M292 40h20"></path>
<g class="terminal">
<path d="M312 40h0"></path>
<path d="M372 40h0"></path>
<rect x="312" y="29" width="60" height="22" rx="10" ry="10"></rect>
<text x="342" y="44">"NOT"</text>
</g>
<path d="M372 40h20"></path>
</g>
<g>
<path d="M392 40h0"></path>
<path d="M484 40h0"></path>
<path d="M392 40h20"></path>
<g class="terminal">
<path d="M412 40h4"></path>
<path d="M460 40h4"></path>
<rect x="416" y="29" width="44" height="22" rx="10" ry="10"></rect>
<text x="438" y="44">"="</text>
</g>
<path d="M464 40h20"></path>
<path d="M392 40a10 10 0 0 1 10 10v10a10 10 0 0 0 10 10"></path>
<g class="terminal">
<path d="M412 70h0"></path>
<path d="M464 70h0"></path>
<rect x="412" y="59" width="52" height="22" rx="10" ry="10"></rect>
<text x="438" y="74">"&#60;>"</text>
</g>
<path d="M464 70a10 10 0 0 0 10 -10v-10a10 10 0 0 1 10 -10"></path>
<path d="M392 40a10 10 0 0 1 10 10v40a10 10 0 0 0 10 10"></path>
<g class="terminal">
<path d="M412 100h4"></path>
<path d="M460 100h4"></path>
<rect x="416" y="89" width="44" height="22" rx="10" ry="10"></rect>
<text x="438" y="104">"&#60;"</text>
</g>
<path d="M464 100a10 10 0 0 0 10 -10v-40a10 10 0 0 1 10 -10"></path>
<path d="M392 40a10 10 0 0 1 10 10v70a10 10 0 0 0 10 10"></path>
<g class="terminal">
<path d="M412 130h4"></path>
<path d="M460 130h4"></path>
<rect x="416" y="119" width="44" height="22" rx="10" ry="10"></rect>
<text x="438" y="134">">"</text>
</g>
<path d="M464 130a10 10 0 0 0 10 -10v-70a10 10 0 0 1 10 -10"></path>
<path d="M392 40a10 10 0 0 1 10 10v100a10 10 0 0 0 10 10"></path>
<g class="terminal">
<path d="M412 160h0"></path>
<path d="M464 160h0"></path>
<rect x="412" y="149" width="52" height="22" rx="10" ry="10"></rect>
<text x="438" y="164">"&#60;="</text>
</g>
<path d="M464 160a10 10 0 0 0 10 -10v-100a10 10 0 0 1 10 -10"></path>
<path d="M392 40a10 10 0 0 1 10 10v130a10 10 0 0 0 10 10"></path>
<g class="terminal">
<path d="M412 190h0"></path>
<path d="M464 190h0"></path>
<rect x="412" y="179" width="52" height="22" rx="10" ry="10"></rect>
<text x="438" y="194">">="</text>
</g>
<path d="M464 190a10 10 0 0 0 10 -10v-130a10 10 0 0 1 10 -10"></path>
<path d="M392 40a10 10 0 0 1 10 10v160a10 10 0 0 0 10 10"></path>
<g class="terminal">
<path d="M412 220h0"></path>
<path d="M464 220h0"></path>
<rect x="412" y="209" width="52" height="22" rx="10" ry="10"></rect>
<text x="438" y="224">"CA"</text>
</g>
<path d="M464 220a10 10 0 0 0 10 -10v-160a10 10 0 0 1 10 -10"></path>
<path d="M392 40a10 10 0 0 1 10 10v190a10 10 0 0 0 10 10"></path>
<g class="terminal">
<path d="M412 250h0"></path>
<path d="M464 250h0"></path>
<rect x="412" y="239" width="52" height="22" rx="10" ry="10"></rect>
<text x="438" y="254">"CO"</text>
</g>
<path d="M464 250a10 10 0 0 0 10 -10v-190a10 10 0 0 1 10 -10"></path>
<path d="M392 40a10 10 0 0 1 10 10v220a10 10 0 0 0 10 10"></path>
<g class="terminal">
<path d="M412 280h0"></path>
<path d="M464 280h0"></path>
<rect x="412" y="269" width="52" height="22" rx="10" ry="10"></rect>
<text x="438" y="284">"IN"</text>
</g>
<path d="M464 280a10 10 0 0 0 10 -10v-220a10 10 0 0 1 10 -10"></path>
<path d="M392 40a10 10 0 0 1 10 10v250a10 10 0 0 0 10 10"></path>
<g class="terminal">
<path d="M412 310h0"></path>
<path d="M464 310h0"></path>
<rect x="412" y="299" width="52" height="22" rx="10" ry="10"></rect>
<text x="438" y="314">"CP"</text>
</g>
<path d="M464 310a10 10 0 0 0 10 -10v-250a10 10 0 0 1 10 -10"></path>
<path d="M392 40a10 10 0 0 1 10 10v280a10 10 0 0 0 10 10"></path>
<g class="terminal">
<path d="M412 340h0"></path>
<path d="M464 340h0"></path>
<rect x="412" y="329" width="52" height="22" rx="10" ry="10"></rect>
<text x="438" y="344">"EQ"</text>
</g>
<path d="M464 340a10 10 0 0 0 10 -10v-280a10 10 0 0 1 10 -10"></path>
<path d="M392 40a10 10 0 0 1 10 10v310a10 10 0 0 0 10 10"></path>
<g class="terminal">
<path d="M412 370h0"></path>
<path d="M464 370h0"></path>
<rect x="412" y="359" width="52" height="22" rx="10" ry="10"></rect>
<text x="438" y="374">"NE"</text>
</g>
<path d="M464 370a10 10 0 0 0 10 -10v-310a10 10 0 0 1 10 -10"></path>
<path d="M392 40a10 10 0 0 1 10 10v340a10 10 0 0 0 10 10"></path>
<g class="terminal">
<path d="M412 400h0"></path>
<path d="M464 400h0"></path>
<rect x="412" y="389" width="52" height="22" rx="10" ry="10"></rect>
<text x="438" y="404">"CN"</text>
</g>
<path d="M464 400a10 10 0 0 0 10 -10v-340a10 10 0 0 1 10 -10"></path>
<path d="M392 40a10 10 0 0 1 10 10v370a10 10 0 0 0 10 10"></path>
<g class="terminal">
<path d="M412 430h0"></path>
<path d="M464 430h0"></path>
<rect x="412" y="419" width="52" height="22" rx="10" ry="10"></rect>
<text x="438" y="434">"GE"</text>
</g>
<path d="M464 430a10 10 0 0 0 10 -10v-370a10 10 0 0 1 10 -10"></path>
<path d="M392 40a10 10 0 0 1 10 10v400a10 10 0 0 0 10 10"></path>
<g class="terminal">
<path d="M412 460h0"></path>
<path d="M464 460h0"></path>
<rect x="412" y="449" width="52" height="22" rx="10" ry="10"></rect>
<text x="438" y="464">"GT"</text>
</g>
<path d="M464 460a10 10 0 0 0 10 -10v-400a10 10 0 0 1 10 -10"></path>
<path d="M392 40a10 10 0 0 1 10 10v430a10 10 0 0 0 10 10"></path>
<g class="terminal">
<path d="M412 490h0"></path>
<path d="M464 490h0"></path>
<rect x="412" y="479" width="52" height="22" rx="10" ry="10"></rect>
<text x="438" y="494">"LT"</text>
</g>
<path d="M464 490a10 10 0 0 0 10 -10v-430a10 10 0 0 1 10 -10"></path>
<path d="M392 40a10 10 0 0 1 10 10v460a10 10 0 0 0 10 10"></path>
<g class="terminal">
<path d="M412 520h0"></path>
<path d="M464 520h0"></path>
<rect x="412" y="509" width="52" height="22" rx="10" ry="10"></rect>
<text x="438" y="524">"LE"</text>
</g>
<path d="M464 520a10 10 0 0 0 10 -10v-460a10 10 0 0 1 10 -10"></path>
<path d="M392 40a10 10 0 0 1 10 10v490a10 10 0 0 0 10 10"></path>
<g class="terminal">
<path d="M412 550h0"></path>
<path d="M464 550h0"></path>
<rect x="412" y="539" width="52" height="22" rx="10" ry="10"></rect>
<text x="438" y="554">"CS"</text>
</g>
<path d="M464 550a10 10 0 0 0 10 -10v-490a10 10 0 0 1 10 -10"></path>
<path d="M392 40a10 10 0 0 1 10 10v520a10 10 0 0 0 10 10"></path>
<g class="terminal">
<path d="M412 580h0"></path>
<path d="M464 580h0"></path>
<rect x="412" y="569" width="52" height="22" rx="10" ry="10"></rect>
<text x="438" y="584">"NP"</text>
</g>
<path d="M464 580a10 10 0 0 0 10 -10v-520a10 10 0 0 1 10 -10"></path>
</g>
</g>
<path d="M484 40h10"></path>
<path d="M494 40h10"></path>
<g class="non-terminal">
<path d="M504 40h0"></path>
<path d="M572 40h0"></path>
<rect x="504" y="29" width="68" height="22"></rect>
<a xlink:href="reuse_source.svg"><text x="538" y="44">source</text>
</a>
</g>
</g>
<path d="M606 40h20"></path>
<path d="M238 40a10 10 0 0 1 10 10v550a10 10 0 0 0 10 10"></path>
<g>
<path d="M258 610h0"></path>
<path d="M606 610h0"></path>
<g class="terminal">
<path d="M258 610h0"></path>
<path d="M350 610h0"></path>
<rect x="258" y="599" width="92" height="22" rx="10" ry="10"></rect>
<text x="304" y="614">"BETWEEN"</text>
</g>
<path d="M350 610h10"></path>
<path d="M360 610h10"></path>
<g class="non-terminal">
<path d="M370 610h0"></path>
<path d="M438 610h0"></path>
<rect x="370" y="599" width="68" height="22"></rect>
<a xlink:href="reuse_source.svg"><text x="404" y="614">source</text>
</a>
</g>
<path d="M438 610h10"></path>
<path d="M448 610h10"></path>
<g class="terminal">
<path d="M458 610h0"></path>
<path d="M518 610h0"></path>
<rect x="458" y="599" width="60" height="22" rx="10" ry="10"></rect>
<text x="488" y="614">"AND"</text>
</g>
<path d="M518 610h10"></path>
<path d="M528 610h10"></path>
<g class="non-terminal">
<path d="M538 610h0"></path>
<path d="M606 610h0"></path>
<rect x="538" y="599" width="68" height="22"></rect>
<a xlink:href="reuse_source.svg"><text x="572" y="614">source</text>
</a>
</g>
</g>
<path d="M606 610a10 10 0 0 0 10 -10v-550a10 10 0 0 1 10 -10"></path>
<path d="M238 40a10 10 0 0 1 10 10v589a10 10 0 0 0 10 10"></path>
<g>
<path d="M258 649h19"></path>
<path d="M587 649h19"></path>
<g class="terminal">
<path d="M277 649h0"></path>
<path d="M329 649h0"></path>
<rect x="277" y="638" width="52" height="22" rx="10" ry="10"></rect>
<text x="303" y="653">"IS"</text>
</g>
<path d="M329 649h10"></path>
<g>
<path d="M339 649h0"></path>
<path d="M439 649h0"></path>
<path d="M339 649a10 10 0 0 0 10 -10v0a10 10 0 0 1 10 -10"></path>
<g>
<path d="M359 629h60"></path>
</g>
<path d="M419 629a10 10 0 0 1 10 10v0a10 10 0 0 0 10 10"></path>
<path d="M339 649h20"></path>
<g class="terminal">
<path d="M359 649h0"></path>
<path d="M419 649h0"></path>
<rect x="359" y="638" width="60" height="22" rx="10" ry="10"></rect>
<text x="389" y="653">"NOT"</text>
</g>
<path d="M419 649h20"></path>
</g>
<g>
<path d="M439 649h0"></path>
<path d="M587 649h0"></path>
<path d="M439 649h20"></path>
<g class="terminal">
<path d="M459 649h4"></path>
<path d="M563 649h4"></path>
<rect x="463" y="638" width="100" height="22" rx="10" ry="10"></rect>
<text x="513" y="653">"SUPPLIED"</text>
</g>
<path d="M567 649h20"></path>
<path d="M439 649a10 10 0 0 1 10 10v10a10 10 0 0 0 10 10"></path>
<g class="terminal">
<path d="M459 679h16"></path>
<path d="M551 679h16"></path>
<rect x="475" y="668" width="76" height="22" rx="10" ry="10"></rect>
<text x="513" y="683">"BOUND"</text>
</g>
<path d="M567 679a10 10 0 0 0 10 -10v-10a10 10 0 0 1 10 -10"></path>
<path d="M439 649a10 10 0 0 1 10 10v40a10 10 0 0 0 10 10"></path>
<g class="terminal">
<path d="M459 709h0"></path>
<path d="M567 709h0"></path>
<rect x="459" y="698" width="108" height="22" rx="10" ry="10"></rect>
<text x="513" y="713">"REQUESTED"</text>
</g>
<path d="M567 709a10 10 0 0 0 10 -10v-40a10 10 0 0 1 10 -10"></path>
<path d="M439 649a10 10 0 0 1 10 10v70a10 10 0 0 0 10 10"></path>
<g class="terminal">
<path d="M459 739h4"></path>
<path d="M563 739h4"></path>
<rect x="463" y="728" width="100" height="22" rx="10" ry="10"></rect>
<text x="513" y="743">"ASSIGNED"</text>
</g>
<path d="M567 739a10 10 0 0 0 10 -10v-70a10 10 0 0 1 10 -10"></path>
<path d="M439 649a10 10 0 0 1 10 10v100a10 10 0 0 0 10 10"></path>
<g class="terminal">
<path d="M459 769h8"></path>
<path d="M559 769h8"></path>
<rect x="467" y="758" width="92" height="22" rx="10" ry="10"></rect>
<text x="513" y="773">"INITIAL"</text>
</g>
<path d="M567 769a10 10 0 0 0 10 -10v-100a10 10 0 0 1 10 -10"></path>
</g>
</g>
<path d="M606 649a10 10 0 0 0 10 -10v-589a10 10 0 0 1 10 -10"></path>
</g>
</g>
<path d="M626 40h10"></path>
<path d="M 636 40 h 20 m 0 -10 v 20"></path>
</g>
</svg>
