<svg xmlns="http://www.w3.org/2000/svg" xmlns:xlink="http://www.w3.org/1999/xlink" class="railroad-diagram" width="1124" height="147" viewBox="0 0 1124 147">
<defs>
<style type="text/css"><![CDATA[
path {
stroke-width: 3;
stroke: black;
fill: rgba(0,0,0,0);
}
text {
font: bold 14px monospace;
text-anchor: middle;
}
text.diagram-text {
font-size: 12px;
}
a {
fill: blue;
}
text.diagram-arrow {
font-size: 16px;
}
text.label {
text-anchor: start;
}
text.comment {
font: italic 12px monospace;
}
rect {
stroke-width: 3;
stroke: black;
fill: #BCBCBC;
}
path.diagram-text {
stroke-width: 3;
stroke: black;
fill: #BCBCBC;
cursor: help;
}
]]></style>
</defs>
<g transform="translate(.5 .5)">
<path d="M 20 38 v 20 m 0 -10 h 20.5"></path>
<path d="M40 48h10"></path>
<g>
<path d="M50 48h0"></path>
<path d="M1074 48h0"></path>
<g>
<path d="M50 48h0"></path>
<path d="M472 48h0"></path>
<g>
<path d="M50 48h0"></path>
<path d="M150 48h0"></path>
<path d="M50 48a10 10 0 0 0 10 -10v0a10 10 0 0 1 10 -10"></path>
<g>
<path d="M70 28h60"></path>
</g>
<path d="M130 28a10 10 0 0 1 10 10v0a10 10 0 0 0 10 10"></path>
<path d="M50 48h20"></path>
<g class="terminal">
<path d="M70 48h0"></path>
<path d="M130 48h0"></path>
<rect x="70" y="37" width="60" height="22" rx="10" ry="10"></rect>
<text x="100" y="52">"NOT"</text>
</g>
<path d="M130 48h20"></path>
</g>
<g>
<path d="M150 48h0"></path>
<path d="M472 48h0"></path>
<path d="M150 48h20"></path>
<g class="non-terminal">
<path d="M170 48h0"></path>
<path d="M270 48h182"></path>
<rect x="170" y="37" width="100" height="22"></rect>
<a xlink:href="reuse_sqlcompare.svg"><text x="220" y="52">SQLCompare</text>
</a>
</g>
<path d="M452 48h20"></path>
<path d="M150 48a10 10 0 0 1 10 10v10a10 10 0 0 0 10 10"></path>
<g>
<path d="M170 78h0"></path>
<path d="M452 78h0"></path>
<g class="terminal">
<path d="M170 78h0"></path>
<path d="M238 78h0"></path>
<rect x="170" y="67" width="68" height="22" rx="10" ry="10"></rect>
<text x="204" y="82">!" ( "</text>
</g>
<path d="M238 78h10"></path>
<path d="M248 78h10"></path>
<g class="non-terminal">
<path d="M258 78h0"></path>
<path d="M334 78h0"></path>
<rect x="258" y="67" width="76" height="22"></rect>
<a xlink:href="reuse_sqlcond.svg"><text x="296" y="82">SQLCond</text>
</a>
</g>
<path d="M334 78h10"></path>
<g>
<path d="M344 78h0"></path>
<path d="M452 78h0"></path>
<path d="M344 78h20"></path>
<g class="terminal">
<path d="M364 78h0"></path>
<path d="M432 78h0"></path>
<rect x="364" y="67" width="68" height="22" rx="10" ry="10"></rect>
<text x="398" y="82">!" ) "</text>
</g>
<path d="M432 78h20"></path>
<path d="M344 78a10 10 0 0 1 10 10v10a10 10 0 0 0 10 10"></path>
<g class="terminal">
<path d="M364 108h0"></path>
<path d="M424 108h8"></path>
<rect x="364" y="97" width="60" height="22" rx="10" ry="10"></rect>
<text x="394" y="112">!" )"</text>
</g>
<path d="M432 108a10 10 0 0 0 10 -10v-10a10 10 0 0 1 10 -10"></path>
</g>
</g>
<path d="M452 78a10 10 0 0 0 10 -10v-10a10 10 0 0 1 10 -10"></path>
</g>
</g>
<path d="M472 48h10"></path>
<g>
<path d="M482 48h0"></path>
<path d="M1074 48h0"></path>
<path d="M482 48a10 10 0 0 0 10 -10v-8a10 10 0 0 1 10 -10"></path>
<g>
<path d="M502 20h552"></path>
</g>
<path d="M1054 20a10 10 0 0 1 10 10v8a10 10 0 0 0 10 10"></path>
<path d="M482 48h20"></path>
<g>
<path d="M502 48h0"></path>
<path d="M1054 48h0"></path>
<path d="M502 48h10"></path>
<g>
<path d="M512 48h0"></path>
<path d="M1044 48h0"></path>
<g>
<path d="M512 48h0"></path>
<path d="M612 48h0"></path>
<path d="M512 48h20"></path>
<g class="terminal">
<path d="M532 48h0"></path>
<path d="M592 48h0"></path>
<rect x="532" y="37" width="60" height="22" rx="10" ry="10"></rect>
<text x="562" y="52">"AND"</text>
</g>
<path d="M592 48h20"></path>
<path d="M512 48a10 10 0 0 1 10 10v10a10 10 0 0 0 10 10"></path>
<g class="terminal">
<path d="M532 78h0"></path>
<path d="M584 78h8"></path>
<rect x="532" y="67" width="52" height="22" rx="10" ry="10"></rect>
<text x="558" y="82">"OR"</text>
</g>
<path d="M592 78a10 10 0 0 0 10 -10v-10a10 10 0 0 1 10 -10"></path>
</g>
<path d="M612 48h10"></path>
<g>
<path d="M622 48h0"></path>
<path d="M1044 48h0"></path>
<g>
<path d="M622 48h0"></path>
<path d="M722 48h0"></path>
<path d="M622 48a10 10 0 0 0 10 -10v0a10 10 0 0 1 10 -10"></path>
<g>
<path d="M642 28h60"></path>
</g>
<path d="M702 28a10 10 0 0 1 10 10v0a10 10 0 0 0 10 10"></path>
<path d="M622 48h20"></path>
<g class="terminal">
<path d="M642 48h0"></path>
<path d="M702 48h0"></path>
<rect x="642" y="37" width="60" height="22" rx="10" ry="10"></rect>
<text x="672" y="52">"NOT"</text>
</g>
<path d="M702 48h20"></path>
</g>
<g>
<path d="M722 48h0"></path>
<path d="M1044 48h0"></path>
<path d="M722 48h20"></path>
<g class="non-terminal">
<path d="M742 48h0"></path>
<path d="M842 48h182"></path>
<rect x="742" y="37" width="100" height="22"></rect>
<a xlink:href="reuse_sqlcompare.svg"><text x="792" y="52">SQLCompare</text>
</a>
</g>
<path d="M1024 48h20"></path>
<path d="M722 48a10 10 0 0 1 10 10v10a10 10 0 0 0 10 10"></path>
<g>
<path d="M742 78h0"></path>
<path d="M1024 78h0"></path>
<g class="terminal">
<path d="M742 78h0"></path>
<path d="M810 78h0"></path>
<rect x="742" y="67" width="68" height="22" rx="10" ry="10"></rect>
<text x="776" y="82">!" ( "</text>
</g>
<path d="M810 78h10"></path>
<path d="M820 78h10"></path>
<g class="non-terminal">
<path d="M830 78h0"></path>
<path d="M906 78h0"></path>
<rect x="830" y="67" width="76" height="22"></rect>
<a xlink:href="reuse_sqlcond.svg"><text x="868" y="82">SQLCond</text>
</a>
</g>
<path d="M906 78h10"></path>
<g>
<path d="M916 78h0"></path>
<path d="M1024 78h0"></path>
<path d="M916 78h20"></path>
<g class="terminal">
<path d="M936 78h0"></path>
<path d="M1004 78h0"></path>
<rect x="936" y="67" width="68" height="22" rx="10" ry="10"></rect>
<text x="970" y="82">!" ) "</text>
</g>
<path d="M1004 78h20"></path>
<path d="M916 78a10 10 0 0 1 10 10v10a10 10 0 0 0 10 10"></path>
<g class="terminal">
<path d="M936 108h0"></path>
<path d="M996 108h8"></path>
<rect x="936" y="97" width="60" height="22" rx="10" ry="10"></rect>
<text x="966" y="112">!" )"</text>
</g>
<path d="M1004 108a10 10 0 0 0 10 -10v-10a10 10 0 0 1 10 -10"></path>
</g>
</g>
<path d="M1024 78a10 10 0 0 0 10 -10v-10a10 10 0 0 1 10 -10"></path>
</g>
</g>
</g>
<path d="M1044 48h10"></path>
<path d="M512 48a10 10 0 0 0 -10 10v59a10 10 0 0 0 10 10"></path>
<g>
<path d="M512 127h532"></path>
</g>
<path d="M1044 127a10 10 0 0 0 10 -10v-59a10 10 0 0 0 -10 -10"></path>
</g>
<path d="M1054 48h20"></path>
</g>
</g>
<path d="M1074 48h10"></path>
<path d="M 1084 48 h 20 m 0 -10 v 20"></path>
</g>
</svg>
