<svg xmlns="http://www.w3.org/2000/svg" xmlns:xlink="http://www.w3.org/1999/xlink" class="railroad-diagram" width="678" height="131" viewBox="0 0 678 131">
<defs>
<style type="text/css"><![CDATA[
path {
stroke-width: 3;
stroke: black;
fill: rgba(0,0,0,0);
}
text {
font: bold 14px monospace;
text-anchor: middle;
}
text.diagram-text {
font-size: 12px;
}
a {
fill: blue;
}
text.diagram-arrow {
font-size: 16px;
}
text.label {
text-anchor: start;
}
text.comment {
font: italic 12px monospace;
}
rect {
stroke-width: 3;
stroke: black;
fill: #BCBCBC;
}
path.diagram-text {
stroke-width: 3;
stroke: black;
fill: #BCBCBC;
cursor: help;
}
]]></style>
</defs>
<g transform="translate(.5 .5)">
<path d="M 20 30 v 20 m 0 -10 h 20.5"></path>
<path d="M40 40h10"></path>
<g>
<path d="M50 40h0"></path>
<path d="M628 40h0"></path>
<g class="terminal">
<path d="M50 40h0"></path>
<path d="M102 40h0"></path>
<rect x="50" y="29" width="52" height="22" rx="10" ry="10"></rect>
<text x="76" y="44">!"("</text>
</g>
<path d="M102 40h10"></path>
<g>
<path d="M112 40h0"></path>
<path d="M528 40h0"></path>
<path d="M112 40h20"></path>
<g>
<path d="M132 40h0"></path>
<path d="M508 40h0"></path>
<g>
<path d="M132 40h0"></path>
<path d="M280 40h0"></path>
<path d="M132 40h20"></path>
<g class="terminal">
<path d="M152 40h0"></path>
<path d="M244 40h16"></path>
<rect x="152" y="29" width="92" height="22" rx="10" ry="10"></rect>
<text x="198" y="44">^&#91;\d\w&#93;+$</text>
</g>
<path d="M260 40h20"></path>
<path d="M132 40a10 10 0 0 1 10 10v10a10 10 0 0 0 10 10"></path>
<g class="non-terminal">
<path d="M152 70h0"></path>
<path d="M260 70h0"></path>
<rect x="152" y="59" width="108" height="22"></rect>
<a xlink:href="reuse_fieldsymbol.svg"><text x="206" y="74">FieldSymbol</text>
</a>
</g>
<path d="M260 70a10 10 0 0 0 10 -10v-10a10 10 0 0 1 10 -10"></path>
</g>
<g>
<path d="M280 40h0"></path>
<path d="M508 40h0"></path>
<path d="M280 40a10 10 0 0 0 10 -10v0a10 10 0 0 1 10 -10"></path>
<g>
<path d="M300 20h188"></path>
</g>
<path d="M488 20a10 10 0 0 1 10 10v0a10 10 0 0 0 10 10"></path>
<path d="M280 40h20"></path>
<g>
<path d="M300 40h0"></path>
<path d="M488 40h0"></path>
<g class="non-terminal">
<path d="M300 40h0"></path>
<path d="M408 40h0"></path>
<rect x="300" y="29" width="108" height="22"></rect>
<a xlink:href="reuse_arrowordash.svg"><text x="354" y="44">ArrowOrDash</text>
</a>
</g>
<path d="M408 40h10"></path>
<path d="M418 40h10"></path>
<g class="non-terminal">
<path d="M428 40h0"></path>
<path d="M488 40h0"></path>
<rect x="428" y="29" width="60" height="22"></rect>
<a xlink:href="reuse_field.svg"><text x="458" y="44">Field</text>
</a>
</g>
</g>
<path d="M488 40h20"></path>
</g>
</g>
<path d="M508 40h20"></path>
<path d="M112 40a10 10 0 0 1 10 10v40a10 10 0 0 0 10 10"></path>
<g class="terminal">
<path d="M132 100h0"></path>
<path d="M176 100h332"></path>
<rect x="132" y="89" width="44" height="22" rx="10" ry="10"></rect>
<text x="154" y="104">"&#42;"</text>
</g>
<path d="M508 100a10 10 0 0 0 10 -10v-40a10 10 0 0 1 10 -10"></path>
</g>
<g>
<path d="M528 40h0"></path>
<path d="M628 40h0"></path>
<path d="M528 40h20"></path>
<g class="terminal">
<path d="M548 40h0"></path>
<path d="M608 40h0"></path>
<rect x="548" y="29" width="60" height="22" rx="10" ry="10"></rect>
<text x="578" y="44">!") "</text>
</g>
<path d="M608 40h20"></path>
<path d="M528 40a10 10 0 0 1 10 10v10a10 10 0 0 0 10 10"></path>
<g class="terminal">
<path d="M548 70h0"></path>
<path d="M600 70h8"></path>
<rect x="548" y="59" width="52" height="22" rx="10" ry="10"></rect>
<text x="574" y="74">!")"</text>
</g>
<path d="M608 70a10 10 0 0 0 10 -10v-10a10 10 0 0 1 10 -10"></path>
</g>
</g>
<path d="M628 40h10"></path>
<path d="M 638 40 h 20 m 0 -10 v 20"></path>
</g>
</svg>
