<svg xmlns="http://www.w3.org/2000/svg" xmlns:xlink="http://www.w3.org/1999/xlink" class="railroad-diagram" width="510" height="71" viewBox="0 0 510 71">
<defs>
<style type="text/css"><![CDATA[
path {
stroke-width: 3;
stroke: black;
fill: rgba(0,0,0,0);
}
text {
font: bold 14px monospace;
text-anchor: middle;
}
text.diagram-text {
font-size: 12px;
}
a {
fill: blue;
}
text.diagram-arrow {
font-size: 16px;
}
text.label {
text-anchor: start;
}
text.comment {
font: italic 12px monospace;
}
rect {
stroke-width: 3;
stroke: black;
fill: #BCBCBC;
}
path.diagram-text {
stroke-width: 3;
stroke: black;
fill: #BCBCBC;
cursor: help;
}
]]></style>
</defs>
<g transform="translate(.5 .5)">
<path d="M 20 30 v 20 m 0 -10 h 20.5"></path>
<path d="M40 40h10"></path>
<g>
<path d="M50 40h0"></path>
<path d="M460 40h0"></path>
<g class="terminal">
<path d="M50 40h0"></path>
<path d="M278 40h0"></path>
<rect x="50" y="29" width="228" height="22" rx="10" ry="10"></rect>
<text x="164" y="44">^&#60;?(\/\w+\/)?\w+(~\w+)?>?$</text>
</g>
<path d="M278 40h10"></path>
<g>
<path d="M288 40h0"></path>
<path d="M460 40h0"></path>
<path d="M288 40a10 10 0 0 0 10 -10v0a10 10 0 0 1 10 -10"></path>
<g>
<path d="M308 20h132"></path>
</g>
<path d="M440 20a10 10 0 0 1 10 10v0a10 10 0 0 0 10 10"></path>
<path d="M288 40h20"></path>
<g>
<path d="M308 40h0"></path>
<path d="M440 40h0"></path>
<g class="terminal">
<path d="M308 40h0"></path>
<path d="M360 40h0"></path>
<rect x="308" y="29" width="52" height="22" rx="10" ry="10"></rect>
<text x="334" y="44">!"-"</text>
</g>
<path d="M360 40h10"></path>
<path d="M370 40h10"></path>
<g class="terminal">
<path d="M380 40h0"></path>
<path d="M440 40h0"></path>
<rect x="380" y="29" width="60" height="22" rx="10" ry="10"></rect>
<text x="410" y="44">^\w+$</text>
</g>
</g>
<path d="M440 40h20"></path>
</g>
</g>
<path d="M460 40h10"></path>
<path d="M 470 40 h 20 m 0 -10 v 20"></path>
</g>
</svg>
