<svg xmlns="http://www.w3.org/2000/svg" xmlns:xlink="http://www.w3.org/1999/xlink" class="railroad-diagram" width="676" height="1010" viewBox="0 0 676 1010">
<defs>
<style type="text/css"><![CDATA[
path {
stroke-width: 3;
stroke: black;
fill: rgba(0,0,0,0);
}
text {
font: bold 14px monospace;
text-anchor: middle;
}
text.diagram-text {
font-size: 12px;
}
a {
fill: blue;
}
text.diagram-arrow {
font-size: 16px;
}
text.label {
text-anchor: start;
}
text.comment {
font: italic 12px monospace;
}
rect {
stroke-width: 3;
stroke: black;
fill: #BCBCBC;
}
path.diagram-text {
stroke-width: 3;
stroke: black;
fill: #BCBCBC;
cursor: help;
}
]]></style>
</defs>
<g transform="translate(.5 .5)">
<path d="M 20 30 v 20 m 0 -10 h 20.5"></path>
<path d="M40 40h10"></path>
<g>
<path d="M50 40h0"></path>
<path d="M626 40h0"></path>
<g>
<path d="M50 40h0"></path>
<path d="M150 40h0"></path>
<path d="M50 40a10 10 0 0 0 10 -10v0a10 10 0 0 1 10 -10"></path>
<g>
<path d="M70 20h60"></path>
</g>
<path d="M130 20a10 10 0 0 1 10 10v0a10 10 0 0 0 10 10"></path>
<path d="M50 40h20"></path>
<g class="terminal">
<path d="M70 40h0"></path>
<path d="M130 40h0"></path>
<rect x="70" y="29" width="60" height="22" rx="10" ry="10"></rect>
<text x="100" y="44">"NOT"</text>
</g>
<path d="M130 40h20"></path>
</g>
<path d="M150 40h10"></path>
<g class="non-terminal">
<path d="M160 40h0"></path>
<path d="M228 40h0"></path>
<rect x="160" y="29" width="68" height="22"></rect>
<a xlink:href="reuse_source.svg"><text x="194" y="44">Source</text>
</a>
</g>
<path d="M228 40h10"></path>
<g>
<path d="M238 40h0"></path>
<path d="M626 40h0"></path>
<path d="M238 40h20"></path>
<g>
<path d="M258 40h0"></path>
<path d="M554 40h52"></path>
<g>
<path d="M258 40h0"></path>
<path d="M466 40h0"></path>
<g>
<path d="M258 40h0"></path>
<path d="M358 40h0"></path>
<path d="M258 40a10 10 0 0 0 10 -10v0a10 10 0 0 1 10 -10"></path>
<g>
<path d="M278 20h60"></path>
</g>
<path d="M338 20a10 10 0 0 1 10 10v0a10 10 0 0 0 10 10"></path>
<path d="M258 40h20"></path>
<g class="terminal">
<path d="M278 40h0"></path>
<path d="M338 40h0"></path>
<rect x="278" y="29" width="60" height="22" rx="10" ry="10"></rect>
<text x="308" y="44">"NOT"</text>
</g>
<path d="M338 40h20"></path>
</g>
<g>
<path d="M358 40h0"></path>
<path d="M466 40h0"></path>
<path d="M358 40h20"></path>
<g class="terminal">
<path d="M378 40h0"></path>
<path d="M422 40h24"></path>
<rect x="378" y="29" width="44" height="22" rx="10" ry="10"></rect>
<text x="400" y="44">"="</text>
</g>
<path d="M446 40h20"></path>
<path d="M358 40a10 10 0 0 1 10 10v10a10 10 0 0 0 10 10"></path>
<g class="terminal">
<path d="M378 70h0"></path>
<path d="M430 70h16"></path>
<rect x="378" y="59" width="52" height="22" rx="10" ry="10"></rect>
<text x="404" y="74">"&#60;>"</text>
</g>
<path d="M446 70a10 10 0 0 0 10 -10v-10a10 10 0 0 1 10 -10"></path>
<path d="M358 40a10 10 0 0 1 10 10v40a10 10 0 0 0 10 10"></path>
<g class="terminal">
<path d="M378 100h0"></path>
<path d="M430 100h16"></path>
<rect x="378" y="89" width="52" height="22" rx="10" ry="10"></rect>
<text x="404" y="104">">&#60;"</text>
</g>
<path d="M446 100a10 10 0 0 0 10 -10v-40a10 10 0 0 1 10 -10"></path>
<path d="M358 40a10 10 0 0 1 10 10v70a10 10 0 0 0 10 10"></path>
<g class="terminal">
<path d="M378 130h0"></path>
<path d="M422 130h24"></path>
<rect x="378" y="119" width="44" height="22" rx="10" ry="10"></rect>
<text x="400" y="134">"&#60;"</text>
</g>
<path d="M446 130a10 10 0 0 0 10 -10v-70a10 10 0 0 1 10 -10"></path>
<path d="M358 40a10 10 0 0 1 10 10v100a10 10 0 0 0 10 10"></path>
<g class="terminal">
<path d="M378 160h0"></path>
<path d="M422 160h24"></path>
<rect x="378" y="149" width="44" height="22" rx="10" ry="10"></rect>
<text x="400" y="164">">"</text>
</g>
<path d="M446 160a10 10 0 0 0 10 -10v-100a10 10 0 0 1 10 -10"></path>
<path d="M358 40a10 10 0 0 1 10 10v130a10 10 0 0 0 10 10"></path>
<g class="terminal">
<path d="M378 190h0"></path>
<path d="M430 190h16"></path>
<rect x="378" y="179" width="52" height="22" rx="10" ry="10"></rect>
<text x="404" y="194">"&#60;="</text>
</g>
<path d="M446 190a10 10 0 0 0 10 -10v-130a10 10 0 0 1 10 -10"></path>
<path d="M358 40a10 10 0 0 1 10 10v160a10 10 0 0 0 10 10"></path>
<g class="terminal">
<path d="M378 220h0"></path>
<path d="M430 220h16"></path>
<rect x="378" y="209" width="52" height="22" rx="10" ry="10"></rect>
<text x="404" y="224">">="</text>
</g>
<path d="M446 220a10 10 0 0 0 10 -10v-160a10 10 0 0 1 10 -10"></path>
<path d="M358 40a10 10 0 0 1 10 10v190a10 10 0 0 0 10 10"></path>
<g class="terminal">
<path d="M378 250h0"></path>
<path d="M430 250h16"></path>
<rect x="378" y="239" width="52" height="22" rx="10" ry="10"></rect>
<text x="404" y="254">"CA"</text>
</g>
<path d="M446 250a10 10 0 0 0 10 -10v-190a10 10 0 0 1 10 -10"></path>
<path d="M358 40a10 10 0 0 1 10 10v220a10 10 0 0 0 10 10"></path>
<g class="terminal">
<path d="M378 280h0"></path>
<path d="M430 280h16"></path>
<rect x="378" y="269" width="52" height="22" rx="10" ry="10"></rect>
<text x="404" y="284">"CO"</text>
</g>
<path d="M446 280a10 10 0 0 0 10 -10v-220a10 10 0 0 1 10 -10"></path>
<path d="M358 40a10 10 0 0 1 10 10v250a10 10 0 0 0 10 10"></path>
<g class="terminal">
<path d="M378 310h0"></path>
<path d="M430 310h16"></path>
<rect x="378" y="299" width="52" height="22" rx="10" ry="10"></rect>
<text x="404" y="314">"IN"</text>
</g>
<path d="M446 310a10 10 0 0 0 10 -10v-250a10 10 0 0 1 10 -10"></path>
<path d="M358 40a10 10 0 0 1 10 10v280a10 10 0 0 0 10 10"></path>
<g class="terminal">
<path d="M378 340h0"></path>
<path d="M430 340h16"></path>
<rect x="378" y="329" width="52" height="22" rx="10" ry="10"></rect>
<text x="404" y="344">"CP"</text>
</g>
<path d="M446 340a10 10 0 0 0 10 -10v-280a10 10 0 0 1 10 -10"></path>
<path d="M358 40a10 10 0 0 1 10 10v310a10 10 0 0 0 10 10"></path>
<g class="terminal">
<path d="M378 370h0"></path>
<path d="M430 370h16"></path>
<rect x="378" y="359" width="52" height="22" rx="10" ry="10"></rect>
<text x="404" y="374">"EQ"</text>
</g>
<path d="M446 370a10 10 0 0 0 10 -10v-310a10 10 0 0 1 10 -10"></path>
<path d="M358 40a10 10 0 0 1 10 10v340a10 10 0 0 0 10 10"></path>
<g class="terminal">
<path d="M378 400h0"></path>
<path d="M430 400h16"></path>
<rect x="378" y="389" width="52" height="22" rx="10" ry="10"></rect>
<text x="404" y="404">"NE"</text>
</g>
<path d="M446 400a10 10 0 0 0 10 -10v-340a10 10 0 0 1 10 -10"></path>
<path d="M358 40a10 10 0 0 1 10 10v370a10 10 0 0 0 10 10"></path>
<g class="terminal">
<path d="M378 430h0"></path>
<path d="M430 430h16"></path>
<rect x="378" y="419" width="52" height="22" rx="10" ry="10"></rect>
<text x="404" y="434">"CN"</text>
</g>
<path d="M446 430a10 10 0 0 0 10 -10v-370a10 10 0 0 1 10 -10"></path>
<path d="M358 40a10 10 0 0 1 10 10v400a10 10 0 0 0 10 10"></path>
<g class="terminal">
<path d="M378 460h0"></path>
<path d="M430 460h16"></path>
<rect x="378" y="449" width="52" height="22" rx="10" ry="10"></rect>
<text x="404" y="464">"GE"</text>
</g>
<path d="M446 460a10 10 0 0 0 10 -10v-400a10 10 0 0 1 10 -10"></path>
<path d="M358 40a10 10 0 0 1 10 10v430a10 10 0 0 0 10 10"></path>
<g class="terminal">
<path d="M378 490h0"></path>
<path d="M430 490h16"></path>
<rect x="378" y="479" width="52" height="22" rx="10" ry="10"></rect>
<text x="404" y="494">"GT"</text>
</g>
<path d="M446 490a10 10 0 0 0 10 -10v-430a10 10 0 0 1 10 -10"></path>
<path d="M358 40a10 10 0 0 1 10 10v460a10 10 0 0 0 10 10"></path>
<g class="terminal">
<path d="M378 520h0"></path>
<path d="M430 520h16"></path>
<rect x="378" y="509" width="52" height="22" rx="10" ry="10"></rect>
<text x="404" y="524">"LT"</text>
</g>
<path d="M446 520a10 10 0 0 0 10 -10v-460a10 10 0 0 1 10 -10"></path>
<path d="M358 40a10 10 0 0 1 10 10v490a10 10 0 0 0 10 10"></path>
<g class="terminal">
<path d="M378 550h0"></path>
<path d="M430 550h16"></path>
<rect x="378" y="539" width="52" height="22" rx="10" ry="10"></rect>
<text x="404" y="554">"LE"</text>
</g>
<path d="M446 550a10 10 0 0 0 10 -10v-490a10 10 0 0 1 10 -10"></path>
<path d="M358 40a10 10 0 0 1 10 10v520a10 10 0 0 0 10 10"></path>
<g class="terminal">
<path d="M378 580h0"></path>
<path d="M430 580h16"></path>
<rect x="378" y="569" width="52" height="22" rx="10" ry="10"></rect>
<text x="404" y="584">"CS"</text>
</g>
<path d="M446 580a10 10 0 0 0 10 -10v-520a10 10 0 0 1 10 -10"></path>
<path d="M358 40a10 10 0 0 1 10 10v550a10 10 0 0 0 10 10"></path>
<g class="terminal">
<path d="M378 610h0"></path>
<path d="M430 610h16"></path>
<rect x="378" y="599" width="52" height="22" rx="10" ry="10"></rect>
<text x="404" y="614">"NS"</text>
</g>
<path d="M446 610a10 10 0 0 0 10 -10v-550a10 10 0 0 1 10 -10"></path>
<path d="M358 40a10 10 0 0 1 10 10v580a10 10 0 0 0 10 10"></path>
<g class="terminal">
<path d="M378 640h0"></path>
<path d="M430 640h16"></path>
<rect x="378" y="629" width="52" height="22" rx="10" ry="10"></rect>
<text x="404" y="644">"NA"</text>
</g>
<path d="M446 640a10 10 0 0 0 10 -10v-580a10 10 0 0 1 10 -10"></path>
<path d="M358 40a10 10 0 0 1 10 10v610a10 10 0 0 0 10 10"></path>
<g class="terminal">
<path d="M378 670h0"></path>
<path d="M430 670h16"></path>
<rect x="378" y="659" width="52" height="22" rx="10" ry="10"></rect>
<text x="404" y="674">"NP"</text>
</g>
<path d="M446 670a10 10 0 0 0 10 -10v-610a10 10 0 0 1 10 -10"></path>
<path d="M358 40a10 10 0 0 1 10 10v640a10 10 0 0 0 10 10"></path>
<g class="terminal">
<path d="M378 700h0"></path>
<path d="M422 700h24"></path>
<rect x="378" y="689" width="44" height="22" rx="10" ry="10"></rect>
<text x="400" y="704">"O"</text>
</g>
<path d="M446 700a10 10 0 0 0 10 -10v-640a10 10 0 0 1 10 -10"></path>
<path d="M358 40a10 10 0 0 1 10 10v670a10 10 0 0 0 10 10"></path>
<g class="terminal">
<path d="M378 730h0"></path>
<path d="M422 730h24"></path>
<rect x="378" y="719" width="44" height="22" rx="10" ry="10"></rect>
<text x="400" y="734">"Z"</text>
</g>
<path d="M446 730a10 10 0 0 0 10 -10v-670a10 10 0 0 1 10 -10"></path>
<path d="M358 40a10 10 0 0 1 10 10v700a10 10 0 0 0 10 10"></path>
<g class="terminal">
<path d="M378 760h0"></path>
<path d="M422 760h24"></path>
<rect x="378" y="749" width="44" height="22" rx="10" ry="10"></rect>
<text x="400" y="764">"M"</text>
</g>
<path d="M446 760a10 10 0 0 0 10 -10v-700a10 10 0 0 1 10 -10"></path>
<path d="M358 40a10 10 0 0 1 10 10v730a10 10 0 0 0 10 10"></path>
<g class="terminal">
<path d="M378 790h0"></path>
<path d="M446 790h0"></path>
<rect x="378" y="779" width="68" height="22" rx="10" ry="10"></rect>
<text x="412" y="794">"LIKE"</text>
</g>
<path d="M446 790a10 10 0 0 0 10 -10v-730a10 10 0 0 1 10 -10"></path>
</g>
</g>
<path d="M466 40h10"></path>
<path d="M476 40h10"></path>
<g class="non-terminal">
<path d="M486 40h0"></path>
<path d="M554 40h0"></path>
<rect x="486" y="29" width="68" height="22"></rect>
<a xlink:href="reuse_source.svg"><text x="520" y="44">Source</text>
</a>
</g>
</g>
<path d="M606 40h20"></path>
<path d="M238 40a10 10 0 0 1 10 10v760a10 10 0 0 0 10 10"></path>
<g>
<path d="M258 820h0"></path>
<path d="M606 820h0"></path>
<g class="terminal">
<path d="M258 820h0"></path>
<path d="M350 820h0"></path>
<rect x="258" y="809" width="92" height="22" rx="10" ry="10"></rect>
<text x="304" y="824">"BETWEEN"</text>
</g>
<path d="M350 820h10"></path>
<path d="M360 820h10"></path>
<g class="non-terminal">
<path d="M370 820h0"></path>
<path d="M438 820h0"></path>
<rect x="370" y="809" width="68" height="22"></rect>
<a xlink:href="reuse_source.svg"><text x="404" y="824">Source</text>
</a>
</g>
<path d="M438 820h10"></path>
<path d="M448 820h10"></path>
<g class="terminal">
<path d="M458 820h0"></path>
<path d="M518 820h0"></path>
<rect x="458" y="809" width="60" height="22" rx="10" ry="10"></rect>
<text x="488" y="824">"AND"</text>
</g>
<path d="M518 820h10"></path>
<path d="M528 820h10"></path>
<g class="non-terminal">
<path d="M538 820h0"></path>
<path d="M606 820h0"></path>
<rect x="538" y="809" width="68" height="22"></rect>
<a xlink:href="reuse_source.svg"><text x="572" y="824">Source</text>
</a>
</g>
</g>
<path d="M606 820a10 10 0 0 0 10 -10v-760a10 10 0 0 1 10 -10"></path>
<path d="M238 40a10 10 0 0 1 10 10v799a10 10 0 0 0 10 10"></path>
<g>
<path d="M258 859h0"></path>
<path d="M568 859h38"></path>
<g class="terminal">
<path d="M258 859h0"></path>
<path d="M310 859h0"></path>
<rect x="258" y="848" width="52" height="22" rx="10" ry="10"></rect>
<text x="284" y="863">"IS"</text>
</g>
<path d="M310 859h10"></path>
<g>
<path d="M320 859h0"></path>
<path d="M420 859h0"></path>
<path d="M320 859a10 10 0 0 0 10 -10v0a10 10 0 0 1 10 -10"></path>
<g>
<path d="M340 839h60"></path>
</g>
<path d="M400 839a10 10 0 0 1 10 10v0a10 10 0 0 0 10 10"></path>
<path d="M320 859h20"></path>
<g class="terminal">
<path d="M340 859h0"></path>
<path d="M400 859h0"></path>
<rect x="340" y="848" width="60" height="22" rx="10" ry="10"></rect>
<text x="370" y="863">"NOT"</text>
</g>
<path d="M400 859h20"></path>
</g>
<g>
<path d="M420 859h0"></path>
<path d="M568 859h0"></path>
<path d="M420 859h20"></path>
<g class="terminal">
<path d="M440 859h0"></path>
<path d="M540 859h8"></path>
<rect x="440" y="848" width="100" height="22" rx="10" ry="10"></rect>
<text x="490" y="863">"SUPPLIED"</text>
</g>
<path d="M548 859h20"></path>
<path d="M420 859a10 10 0 0 1 10 10v10a10 10 0 0 0 10 10"></path>
<g class="terminal">
<path d="M440 889h0"></path>
<path d="M516 889h32"></path>
<rect x="440" y="878" width="76" height="22" rx="10" ry="10"></rect>
<text x="478" y="893">"BOUND"</text>
</g>
<path d="M548 889a10 10 0 0 0 10 -10v-10a10 10 0 0 1 10 -10"></path>
<path d="M420 859a10 10 0 0 1 10 10v40a10 10 0 0 0 10 10"></path>
<g class="terminal">
<path d="M440 919h0"></path>
<path d="M548 919h0"></path>
<rect x="440" y="908" width="108" height="22" rx="10" ry="10"></rect>
<text x="494" y="923">"REQUESTED"</text>
</g>
<path d="M548 919a10 10 0 0 0 10 -10v-40a10 10 0 0 1 10 -10"></path>
<path d="M420 859a10 10 0 0 1 10 10v70a10 10 0 0 0 10 10"></path>
<g class="terminal">
<path d="M440 949h0"></path>
<path d="M540 949h8"></path>
<rect x="440" y="938" width="100" height="22" rx="10" ry="10"></rect>
<text x="490" y="953">"ASSIGNED"</text>
</g>
<path d="M548 949a10 10 0 0 0 10 -10v-70a10 10 0 0 1 10 -10"></path>
<path d="M420 859a10 10 0 0 1 10 10v100a10 10 0 0 0 10 10"></path>
<g class="terminal">
<path d="M440 979h0"></path>
<path d="M532 979h16"></path>
<rect x="440" y="968" width="92" height="22" rx="10" ry="10"></rect>
<text x="486" y="983">"INITIAL"</text>
</g>
<path d="M548 979a10 10 0 0 0 10 -10v-100a10 10 0 0 1 10 -10"></path>
</g>
</g>
<path d="M606 859a10 10 0 0 0 10 -10v-799a10 10 0 0 1 10 -10"></path>
</g>
</g>
<path d="M626 40h10"></path>
<path d="M 636 40 h 20 m 0 -10 v 20"></path>
</g>
</svg>
