<?xml version="1.0" encoding="UTF-8" standalone="no"?>
<!DOCTYPE svg PUBLIC "-//W3C//DTD SVG 1.1//EN"
 "http://www.w3.org/Graphics/SVG/1.1/DTD/svg11.dtd">
<!-- Generated by graphviz version 2.38.0 (20140413.2041)
 -->
<!-- Title: string_template Pages: 1 -->
<svg width="113pt" height="188pt"
 viewBox="0.00 0.00 113.47 188.00" xmlns="http://www.w3.org/2000/svg" xmlns:xlink="http://www.w3.org/1999/xlink">
<g id="graph0" class="graph" transform="scale(1 1) rotate(0) translate(4 184)">
<title>string_template</title>
<polygon fill="white" stroke="none" points="-4,4 -4,-184 109.472,-184 109.472,4 -4,4"/>
<!-- start -->
<g id="node1" class="node"><title>start</title>
<polygon fill="none" stroke="blue" points="79.7362,-180 25.7362,-180 25.7362,-144 79.7362,-144 79.7362,-180"/>
<text text-anchor="middle" x="52.7362" y="-157.8" font-family="Times,serif" font-size="14.00">Start</text>
</g>
<!-- node125 -->
<g id="node3" class="node"><title>node125</title>
<ellipse fill="none" stroke="black" cx="52.7362" cy="-90" rx="52.9734" ry="18"/>
<text text-anchor="middle" x="52.7362" y="-85.8" font-family="Times,serif" font-size="14.00">^\|(.|\n)*\|$</text>
</g>
<!-- start&#45;&gt;node125 -->
<g id="edge2" class="edge"><title>start&#45;&gt;node125</title>
<path fill="none" stroke="black" d="M52.7362,-143.697C52.7362,-135.983 52.7362,-126.712 52.7362,-118.112"/>
<polygon fill="black" stroke="black" points="56.2363,-118.104 52.7362,-108.104 49.2363,-118.104 56.2363,-118.104"/>
</g>
<!-- end -->
<g id="node2" class="node"><title>end</title>
<polygon fill="none" stroke="blue" points="79.7362,-36 25.7362,-36 25.7362,-0 79.7362,-0 79.7362,-36"/>
<text text-anchor="middle" x="52.7362" y="-13.8" font-family="Times,serif" font-size="14.00">End</text>
</g>
<!-- node125&#45;&gt;end -->
<g id="edge1" class="edge"><title>node125&#45;&gt;end</title>
<path fill="none" stroke="black" d="M52.7362,-71.6966C52.7362,-63.9827 52.7362,-54.7125 52.7362,-46.1124"/>
<polygon fill="black" stroke="black" points="56.2363,-46.1043 52.7362,-36.1043 49.2363,-46.1044 56.2363,-46.1043"/>
</g>
</g>
</svg>
