<svg xmlns="http://www.w3.org/2000/svg" xmlns:xlink="http://www.w3.org/1999/xlink" class="railroad-diagram" width="1718" height="109" viewBox="0 0 1718 109">
<defs>
<style type="text/css"><![CDATA[
path {
stroke-width: 3;
stroke: black;
fill: rgba(0,0,0,0);
}
text {
font: bold 14px monospace;
text-anchor: middle;
}
text.diagram-text {
font-size: 12px;
}
a {
fill: blue;
}
text.diagram-arrow {
font-size: 16px;
}
text.label {
text-anchor: start;
}
text.comment {
font: italic 12px monospace;
}
rect {
stroke-width: 3;
stroke: black;
fill: #BCBCBC;
}
path.diagram-text {
stroke-width: 3;
stroke: black;
fill: #BCBCBC;
cursor: help;
}
]]></style>
</defs>
<g transform="translate(.5 .5)">
<path d="M 20 38 v 20 m 0 -10 h 20.5"></path>
<path d="M40 48h10"></path>
<g>
<path d="M50 48h0"></path>
<path d="M1668 48h0"></path>
<g>
<path d="M50 48h0"></path>
<path d="M350 48h0"></path>
<path d="M50 48a10 10 0 0 0 10 -10v0a10 10 0 0 1 10 -10"></path>
<g>
<path d="M70 28h260"></path>
</g>
<path d="M330 28a10 10 0 0 1 10 10v0a10 10 0 0 0 10 10"></path>
<path d="M50 48h20"></path>
<g>
<path d="M70 48h0"></path>
<path d="M330 48h0"></path>
<g class="terminal">
<path d="M70 48h0"></path>
<path d="M178 48h0"></path>
<rect x="70" y="37" width="108" height="22" rx="10" ry="10"></rect>
<text x="124" y="52">"EXPORTING"</text>
</g>
<path d="M178 48h10"></path>
<path d="M188 48h10"></path>
<g class="non-terminal">
<path d="M198 48h0"></path>
<path d="M330 48h0"></path>
<rect x="198" y="37" width="132" height="22"></rect>
<a xlink:href="reuse_parameterlists.svg"><text x="264" y="52">ParameterListS</text>
</a>
</g>
</g>
<path d="M330 48h20"></path>
</g>
<g>
<path d="M350 48h0"></path>
<path d="M650 48h0"></path>
<path d="M350 48a10 10 0 0 0 10 -10v0a10 10 0 0 1 10 -10"></path>
<g>
<path d="M370 28h260"></path>
</g>
<path d="M630 28a10 10 0 0 1 10 10v0a10 10 0 0 0 10 10"></path>
<path d="M350 48h20"></path>
<g>
<path d="M370 48h0"></path>
<path d="M630 48h0"></path>
<g class="terminal">
<path d="M370 48h0"></path>
<path d="M478 48h0"></path>
<rect x="370" y="37" width="108" height="22" rx="10" ry="10"></rect>
<text x="424" y="52">"IMPORTING"</text>
</g>
<path d="M478 48h10"></path>
<path d="M488 48h10"></path>
<g class="non-terminal">
<path d="M498 48h0"></path>
<path d="M630 48h0"></path>
<rect x="498" y="37" width="132" height="22"></rect>
<a xlink:href="reuse_parameterlistt.svg"><text x="564" y="52">ParameterListT</text>
</a>
</g>
</g>
<path d="M630 48h20"></path>
</g>
<g>
<path d="M650 48h0"></path>
<path d="M926 48h0"></path>
<path d="M650 48a10 10 0 0 0 10 -10v0a10 10 0 0 1 10 -10"></path>
<g>
<path d="M670 28h236"></path>
</g>
<path d="M906 28a10 10 0 0 1 10 10v0a10 10 0 0 0 10 10"></path>
<path d="M650 48h20"></path>
<g>
<path d="M670 48h0"></path>
<path d="M906 48h0"></path>
<g class="terminal">
<path d="M670 48h0"></path>
<path d="M754 48h0"></path>
<rect x="670" y="37" width="84" height="22" rx="10" ry="10"></rect>
<text x="712" y="52">"TABLES"</text>
</g>
<path d="M754 48h10"></path>
<path d="M764 48h10"></path>
<g class="non-terminal">
<path d="M774 48h0"></path>
<path d="M906 48h0"></path>
<rect x="774" y="37" width="132" height="22"></rect>
<a xlink:href="reuse_parameterlistt.svg"><text x="840" y="52">ParameterListT</text>
</a>
</g>
</g>
<path d="M906 48h20"></path>
</g>
<g>
<path d="M926 48h0"></path>
<path d="M1218 48h0"></path>
<path d="M926 48a10 10 0 0 0 10 -10v0a10 10 0 0 1 10 -10"></path>
<g>
<path d="M946 28h252"></path>
</g>
<path d="M1198 28a10 10 0 0 1 10 10v0a10 10 0 0 0 10 10"></path>
<path d="M926 48h20"></path>
<g>
<path d="M946 48h0"></path>
<path d="M1198 48h0"></path>
<g class="terminal">
<path d="M946 48h0"></path>
<path d="M1046 48h0"></path>
<rect x="946" y="37" width="100" height="22" rx="10" ry="10"></rect>
<text x="996" y="52">"CHANGING"</text>
</g>
<path d="M1046 48h10"></path>
<path d="M1056 48h10"></path>
<g class="non-terminal">
<path d="M1066 48h0"></path>
<path d="M1198 48h0"></path>
<rect x="1066" y="37" width="132" height="22"></rect>
<a xlink:href="reuse_parameterlistt.svg"><text x="1132" y="52">ParameterListT</text>
</a>
</g>
</g>
<path d="M1198 48h20"></path>
</g>
<g>
<path d="M1218 48h0"></path>
<path d="M1668 48h0"></path>
<path d="M1218 48a10 10 0 0 0 10 -10v-8a10 10 0 0 1 10 -10"></path>
<g>
<path d="M1238 20h410"></path>
</g>
<path d="M1648 20a10 10 0 0 1 10 10v8a10 10 0 0 0 10 10"></path>
<path d="M1218 48h20"></path>
<g>
<path d="M1238 48h0"></path>
<path d="M1648 48h0"></path>
<g class="terminal">
<path d="M1238 48h0"></path>
<path d="M1354 48h0"></path>
<rect x="1238" y="37" width="116" height="22" rx="10" ry="10"></rect>
<text x="1296" y="52">"EXCEPTIONS"</text>
</g>
<path d="M1354 48h10"></path>
<g>
<path d="M1364 48h0"></path>
<path d="M1648 48h0"></path>
<path d="M1364 48a10 10 0 0 0 10 -10v0a10 10 0 0 1 10 -10"></path>
<g>
<path d="M1384 28h244"></path>
</g>
<path d="M1628 28a10 10 0 0 1 10 10v0a10 10 0 0 0 10 10"></path>
<path d="M1364 48h20"></path>
<g>
<path d="M1384 48h0"></path>
<path d="M1628 48h0"></path>
<path d="M1384 48h20"></path>
<g class="non-terminal">
<path d="M1404 48h0"></path>
<path d="M1608 48h0"></path>
<rect x="1404" y="37" width="204" height="22"></rect>
<a xlink:href="reuse_parameterlistexceptions.svg"><text x="1506" y="52">ParameterListExceptions</text>
</a>
</g>
<path d="M1608 48h20"></path>
<path d="M1384 48a10 10 0 0 1 10 10v10a10 10 0 0 0 10 10"></path>
<g class="non-terminal">
<path d="M1404 78h0"></path>
<path d="M1464 78h144"></path>
<rect x="1404" y="67" width="60" height="22"></rect>
<a xlink:href="reuse_field.svg"><text x="1434" y="82">Field</text>
</a>
</g>
<path d="M1608 78a10 10 0 0 0 10 -10v-10a10 10 0 0 1 10 -10"></path>
</g>
<path d="M1628 48h20"></path>
</g>
</g>
<path d="M1648 48h20"></path>
</g>
</g>
<path d="M1668 48h10"></path>
<path d="M 1678 48 h 20 m 0 -10 v 20"></path>
</g>
</svg>
