<?xml version="1.0" encoding="UTF-8" standalone="no"?>
<!DOCTYPE svg PUBLIC "-//W3C//DTD SVG 1.1//EN"
 "http://www.w3.org/Graphics/SVG/1.1/DTD/svg11.dtd">
<!-- Generated by graphviz version 2.38.0 (20140413.2041)
 -->
<!-- Title: method_call_chain Pages: 1 -->
<svg width="256pt" height="476pt"
 viewBox="0.00 0.00 255.95 476.00" xmlns="http://www.w3.org/2000/svg" xmlns:xlink="http://www.w3.org/1999/xlink">
<g id="graph0" class="graph" transform="scale(1 1) rotate(0) translate(4 472)">
<title>method_call_chain</title>
<polygon fill="white" stroke="none" points="-4,4 -4,-472 251.952,-472 251.952,4 -4,4"/>
<!-- start -->
<g id="node1" class="node"><title>start</title>
<polygon fill="none" stroke="blue" points="155,-468 101,-468 101,-432 155,-432 155,-468"/>
<text text-anchor="middle" x="128" y="-445.8" font-family="Times,serif" font-size="14.00">Start</text>
</g>
<!-- node101 -->
<g id="node6" class="node"><title>node101</title>
<g id="a_node6"><a xlink:href="reuse_method_call.svg" xlink:title="&lt;u&gt;method_call&lt;/u&gt;">
<ellipse fill="none" stroke="black" cx="123" cy="-234" rx="58.5482" ry="18"/>
<text text-anchor="start" x="88.3969" y="-230.8" font-family="Times,serif" text-decoration="underline" font-size="14.00" fill="blue">method_call</text>
</a>
</g>
</g>
<!-- start&#45;&gt;node101 -->
<g id="edge10" class="edge"><title>start&#45;&gt;node101</title>
<path fill="none" stroke="black" d="M118.869,-431.88C113.993,-421.756 108.493,-408.506 106,-396 96.7208,-349.442 107.087,-294.234 115.214,-262.058"/>
<polygon fill="black" stroke="black" points="118.681,-262.637 117.853,-252.075 111.913,-260.849 118.681,-262.637"/>
</g>
<!-- node103 -->
<g id="node8" class="node"><title>node103</title>
<g id="a_node8"><a xlink:href="reuse_field_chain.svg" xlink:title="&lt;u&gt;field_chain&lt;/u&gt;">
<ellipse fill="none" stroke="black" cx="169" cy="-378" rx="54.4527" ry="18"/>
<text text-anchor="start" x="137.512" y="-374.8" font-family="Times,serif" text-decoration="underline" font-size="14.00" fill="blue">field_chain</text>
</a>
</g>
</g>
<!-- start&#45;&gt;node103 -->
<g id="edge9" class="edge"><title>start&#45;&gt;node103</title>
<path fill="none" stroke="black" d="M138.135,-431.697C142.852,-423.644 148.562,-413.894 153.782,-404.982"/>
<polygon fill="black" stroke="black" points="156.948,-406.502 158.982,-396.104 150.908,-402.964 156.948,-406.502"/>
</g>
<!-- end -->
<g id="node2" class="node"><title>end</title>
<polygon fill="none" stroke="blue" points="54,-108 0,-108 0,-72 54,-72 54,-108"/>
<text text-anchor="middle" x="27" y="-85.8" font-family="Times,serif" font-size="14.00">End</text>
</g>
<!-- node98 -->
<g id="node3" class="node"><title>node98</title>
<ellipse fill="none" stroke="black" cx="88" cy="-162" rx="42.879" ry="18"/>
<text text-anchor="middle" x="88" y="-157.8" font-family="Times,serif" font-size="14.00">Dummy</text>
</g>
<!-- node98&#45;&gt;end -->
<g id="edge4" class="edge"><title>node98&#45;&gt;end</title>
<path fill="none" stroke="black" d="M73.8521,-144.765C66.373,-136.182 57.0316,-125.462 48.662,-115.858"/>
<polygon fill="black" stroke="black" points="51.1308,-113.364 41.9223,-108.124 45.8534,-117.962 51.1308,-113.364"/>
</g>
<!-- node100 -->
<g id="node5" class="node"><title>node100</title>
<g id="a_node5"><a xlink:href="reuse_arrow_or_dash.svg" xlink:title="&lt;u&gt;arrow_or_dash&lt;/u&gt;">
<ellipse fill="none" stroke="black" cx="179" cy="-90" rx="68.9042" ry="18"/>
<text text-anchor="start" x="137.019" y="-86.8" font-family="Times,serif" text-decoration="underline" font-size="14.00" fill="blue">arrow_or_dash</text>
</a>
</g>
</g>
<!-- node98&#45;&gt;node100 -->
<g id="edge3" class="edge"><title>node98&#45;&gt;node100</title>
<path fill="none" stroke="black" d="M107.746,-145.811C119.953,-136.421 135.848,-124.194 149.528,-113.671"/>
<polygon fill="black" stroke="black" points="151.914,-116.251 157.706,-107.38 147.646,-110.703 151.914,-116.251"/>
</g>
<!-- node99 -->
<g id="node4" class="node"><title>node99</title>
<g id="a_node4"><a xlink:href="reuse_method_call.svg" xlink:title="&lt;u&gt;method_call&lt;/u&gt;">
<ellipse fill="none" stroke="black" cx="130" cy="-18" rx="58.5482" ry="18"/>
<text text-anchor="start" x="95.3969" y="-14.8" font-family="Times,serif" text-decoration="underline" font-size="14.00" fill="blue">method_call</text>
</a>
</g>
</g>
<!-- node99&#45;&gt;node98 -->
<g id="edge1" class="edge"><title>node99&#45;&gt;node98</title>
<path fill="none" stroke="black" d="M118.695,-35.951C112.51,-46.018 105.26,-59.268 101,-72 94.2808,-92.0835 91.0324,-115.866 89.463,-133.792"/>
<polygon fill="black" stroke="black" points="85.9662,-133.619 88.7031,-143.854 92.9464,-134.146 85.9662,-133.619"/>
</g>
<!-- node100&#45;&gt;node99 -->
<g id="edge2" class="edge"><title>node100&#45;&gt;node99</title>
<path fill="none" stroke="black" d="M167.138,-72.055C161.3,-63.7147 154.144,-53.4908 147.676,-44.2517"/>
<polygon fill="black" stroke="black" points="150.354,-41.9742 141.752,-35.789 144.62,-45.9885 150.354,-41.9742"/>
</g>
<!-- node101&#45;&gt;node98 -->
<g id="edge6" class="edge"><title>node101&#45;&gt;node98</title>
<path fill="none" stroke="black" d="M114.527,-216.055C110.443,-207.887 105.456,-197.912 100.912,-188.824"/>
<polygon fill="black" stroke="black" points="103.997,-187.168 96.3945,-179.789 97.7362,-190.299 103.997,-187.168"/>
</g>
<!-- node101&#45;&gt;node100 -->
<g id="edge5" class="edge"><title>node101&#45;&gt;node100</title>
<path fill="none" stroke="black" d="M129.755,-215.871C139.383,-191.457 157.142,-146.426 168.496,-117.635"/>
<polygon fill="black" stroke="black" points="171.808,-118.776 172.221,-108.189 165.296,-116.208 171.808,-118.776"/>
</g>
<!-- node102 -->
<g id="node7" class="node"><title>node102</title>
<g id="a_node7"><a xlink:href="reuse_arrow.svg" xlink:title="&lt;u&gt;arrow&lt;/u&gt;">
<ellipse fill="none" stroke="black" cx="159" cy="-306" rx="33.6054" ry="18"/>
<text text-anchor="start" x="142.679" y="-302.8" font-family="Times,serif" text-decoration="underline" font-size="14.00" fill="blue">arrow</text>
</a>
</g>
</g>
<!-- node102&#45;&gt;node101 -->
<g id="edge7" class="edge"><title>node102&#45;&gt;node101</title>
<path fill="none" stroke="black" d="M150.469,-288.411C146.271,-280.249 141.113,-270.22 136.405,-261.065"/>
<polygon fill="black" stroke="black" points="139.406,-259.248 131.72,-251.956 133.181,-262.45 139.406,-259.248"/>
</g>
<!-- node103&#45;&gt;node102 -->
<g id="edge8" class="edge"><title>node103&#45;&gt;node102</title>
<path fill="none" stroke="black" d="M166.528,-359.697C165.426,-351.983 164.102,-342.712 162.873,-334.112"/>
<polygon fill="black" stroke="black" points="166.323,-333.509 161.443,-324.104 159.393,-334.499 166.323,-333.509"/>
</g>
</g>
</svg>
