<svg xmlns="http://www.w3.org/2000/svg" xmlns:xlink="http://www.w3.org/1999/xlink" class="railroad-diagram" width="902" height="170" viewBox="0 0 902 170">
<defs>
<style type="text/css"><![CDATA[
path {
stroke-width: 3;
stroke: black;
fill: rgba(0,0,0,0);
}
text {
font: bold 14px monospace;
text-anchor: middle;
}
text.diagram-text {
font-size: 12px;
}
a {
fill: blue;
}
text.diagram-arrow {
font-size: 16px;
}
text.label {
text-anchor: start;
}
text.comment {
font: italic 12px monospace;
}
rect {
stroke-width: 3;
stroke: black;
fill: #BCBCBC;
}
path.diagram-text {
stroke-width: 3;
stroke: black;
fill: #BCBCBC;
cursor: help;
}
]]></style>
</defs>
<g transform="translate(.5 .5)">
<path d="M 20 21 v 20 m 0 -10 h 20.5"></path>
<g>
<path d="M40 31h0"></path>
<path d="M862 31h0"></path>
<path d="M40 31h20"></path>
<g class="non-terminal">
<path d="M60 31h0"></path>
<path d="M168 31h674"></path>
<rect x="60" y="20" width="108" height="22"></rect>
<a xlink:href="reuse_inline_data.svg"><text x="114" y="35">inline&#95;data</text>
</a>
</g>
<path d="M842 31h20"></path>
<path d="M40 31a10 10 0 0 1 10 10v10a10 10 0 0 0 10 10"></path>
<g class="non-terminal">
<path d="M60 61h0"></path>
<path d="M152 61h690"></path>
<rect x="60" y="50" width="92" height="22"></rect>
<a xlink:href="reuse_inline_fs.svg"><text x="106" y="65">inline&#95;fs</text>
</a>
</g>
<path d="M842 61a10 10 0 0 0 10 -10v-10a10 10 0 0 1 10 -10"></path>
<path d="M40 31a10 10 0 0 1 10 10v49a10 10 0 0 0 10 10"></path>
<g>
<path d="M60 100h0"></path>
<path d="M842 100h0"></path>
<g>
<path d="M60 100h0"></path>
<path d="M480 100h0"></path>
<g>
<path d="M60 100h0"></path>
<path d="M216 100h0"></path>
<path d="M60 100h20"></path>
<g class="non-terminal">
<path d="M80 100h0"></path>
<path d="M140 100h56"></path>
<rect x="80" y="89" width="60" height="22"></rect>
<a xlink:href="reuse_field.svg"><text x="110" y="104">field</text>
</a>
</g>
<path d="M196 100h20"></path>
<path d="M60 100a10 10 0 0 1 10 10v10a10 10 0 0 0 10 10"></path>
<g class="non-terminal">
<path d="M80 130h0"></path>
<path d="M196 130h0"></path>
<rect x="80" y="119" width="116" height="22"></rect>
<a xlink:href="reuse_field_symbol.svg"><text x="138" y="134">field&#95;symbol</text>
</a>
</g>
<path d="M196 130a10 10 0 0 0 10 -10v-10a10 10 0 0 1 10 -10"></path>
</g>
<g>
<path d="M216 100h0"></path>
<path d="M480 100h0"></path>
<path d="M216 100a10 10 0 0 0 10 -10v0a10 10 0 0 1 10 -10"></path>
<g>
<path d="M236 80h224"></path>
</g>
<path d="M460 80a10 10 0 0 1 10 10v0a10 10 0 0 0 10 10"></path>
<path d="M216 100h20"></path>
<g>
<path d="M236 100h0"></path>
<path d="M460 100h0"></path>
<path d="M236 100h10"></path>
<g>
<path d="M246 100h0"></path>
<path d="M450 100h0"></path>
<g class="non-terminal">
<path d="M246 100h0"></path>
<path d="M370 100h0"></path>
<rect x="246" y="89" width="124" height="22"></rect>
<a xlink:href="reuse_arrow_or_dash.svg"><text x="308" y="104">arrow&#95;or&#95;dash</text>
</a>
</g>
<path d="M370 100h10"></path>
<path d="M380 100h10"></path>
<g class="non-terminal">
<path d="M390 100h0"></path>
<path d="M450 100h0"></path>
<rect x="390" y="89" width="60" height="22"></rect>
<a xlink:href="reuse_field.svg"><text x="420" y="104">field</text>
</a>
</g>
</g>
<path d="M450 100h10"></path>
<path d="M246 100a10 10 0 0 0 -10 10v0a10 10 0 0 0 10 10"></path>
<g>
<path d="M246 120h204"></path>
</g>
<path d="M450 120a10 10 0 0 0 10 -10v0a10 10 0 0 0 -10 -10"></path>
</g>
<path d="M460 100h20"></path>
</g>
</g>
<path d="M480 100h10"></path>
<g>
<path d="M490 100h0"></path>
<path d="M842 100h0"></path>
<path d="M490 100h20"></path>
<g class="non-terminal">
<path d="M510 100h0"></path>
<path d="M610 100h212"></path>
<rect x="510" y="89" width="100" height="22"></rect>
<a xlink:href="reuse_table_body.svg"><text x="560" y="104">table&#95;body</text>
</a>
</g>
<path d="M822 100h20"></path>
<path d="M490 100a10 10 0 0 1 10 10v19a10 10 0 0 0 10 10"></path>
<g>
<path d="M510 139h0"></path>
<path d="M822 139h0"></path>
<g>
<path d="M510 139h0"></path>
<path d="M666 139h0"></path>
<path d="M510 139a10 10 0 0 0 10 -10v0a10 10 0 0 1 10 -10"></path>
<g>
<path d="M530 119h116"></path>
</g>
<path d="M646 119a10 10 0 0 1 10 10v0a10 10 0 0 0 10 10"></path>
<path d="M510 139h20"></path>
<g class="non-terminal">
<path d="M530 139h0"></path>
<path d="M646 139h0"></path>
<rect x="530" y="128" width="116" height="22"></rect>
<a xlink:href="reuse_field_offset.svg"><text x="588" y="143">field&#95;offset</text>
</a>
</g>
<path d="M646 139h20"></path>
</g>
<g>
<path d="M666 139h0"></path>
<path d="M822 139h0"></path>
<path d="M666 139a10 10 0 0 0 10 -10v0a10 10 0 0 1 10 -10"></path>
<g>
<path d="M686 119h116"></path>
</g>
<path d="M802 119a10 10 0 0 1 10 10v0a10 10 0 0 0 10 10"></path>
<path d="M666 139h20"></path>
<g class="non-terminal">
<path d="M686 139h0"></path>
<path d="M802 139h0"></path>
<rect x="686" y="128" width="116" height="22"></rect>
<a xlink:href="reuse_field_length.svg"><text x="744" y="143">field&#95;length</text>
</a>
</g>
<path d="M802 139h20"></path>
</g>
</g>
<path d="M822 139a10 10 0 0 0 10 -10v-19a10 10 0 0 1 10 -10"></path>
</g>
</g>
<path d="M842 100a10 10 0 0 0 10 -10v-49a10 10 0 0 1 10 -10"></path>
</g>
<path d="M 862 31 h 20 m 0 -10 v 20"></path>
</g>
</svg>
