<svg xmlns="http://www.w3.org/2000/svg" xmlns:xlink="http://www.w3.org/1999/xlink" class="railroad-diagram" width="562" height="152" viewBox="0 0 562 152">
<defs>
<style type="text/css"><![CDATA[
path {
stroke-width: 3;
stroke: black;
fill: rgba(0,0,0,0);
}
text {
font: bold 14px monospace;
text-anchor: middle;
}
text.diagram-text {
font-size: 12px;
}
a {
fill: blue;
}
text.diagram-arrow {
font-size: 16px;
}
text.label {
text-anchor: start;
}
text.comment {
font: italic 12px monospace;
}
rect {
stroke-width: 3;
stroke: black;
fill: #BCBCBC;
}
path.diagram-text {
stroke-width: 3;
stroke: black;
fill: #BCBCBC;
cursor: help;
}
]]></style>
</defs>
<g transform="translate(.5 .5)">
<path d="M 20 21 v 20 m 0 -10 h 20.5"></path>
<path d="M40 31h10"></path>
<g>
<path d="M50 31h0"></path>
<path d="M512 31h0"></path>
<g class="non-terminal">
<path d="M50 31h0"></path>
<path d="M150 31h0"></path>
<rect x="50" y="20" width="100" height="22"></rect>
<a xlink:href="reuse_methodname.svg"><text x="100" y="35">MethodName</text>
</a>
</g>
<path d="M150 31h10"></path>
<g>
<path d="M160 31h0"></path>
<path d="M458 31h0"></path>
<path d="M160 31h20"></path>
<g>
<path d="M180 31h0"></path>
<path d="M438 31h0"></path>
<g class="terminal">
<path d="M180 31h0"></path>
<path d="M240 31h0"></path>
<rect x="180" y="20" width="60" height="22" rx="10" ry="10"></rect>
<text x="210" y="35">!"( "</text>
</g>
<path d="M240 31h10"></path>
<g>
<path d="M250 31h0"></path>
<path d="M438 31h0"></path>
<path d="M250 31h20"></path>
<g class="non-terminal">
<path d="M270 31h0"></path>
<path d="M338 31h80"></path>
<rect x="270" y="20" width="68" height="22"></rect>
<a xlink:href="reuse_source.svg"><text x="304" y="35">Source</text>
</a>
</g>
<path d="M418 31h20"></path>
<path d="M250 31a10 10 0 0 1 10 10v10a10 10 0 0 0 10 10"></path>
<g class="non-terminal">
<path d="M270 61h0"></path>
<path d="M402 61h16"></path>
<rect x="270" y="50" width="132" height="22"></rect>
<a xlink:href="reuse_parameterlists.svg"><text x="336" y="65">ParameterListS</text>
</a>
</g>
<path d="M418 61a10 10 0 0 0 10 -10v-10a10 10 0 0 1 10 -10"></path>
<path d="M250 31a10 10 0 0 1 10 10v40a10 10 0 0 0 10 10"></path>
<g class="non-terminal">
<path d="M270 91h0"></path>
<path d="M418 91h0"></path>
<rect x="270" y="80" width="148" height="22"></rect>
<a xlink:href="reuse_methodparameters.svg"><text x="344" y="95">MethodParameters</text>
</a>
</g>
<path d="M418 91a10 10 0 0 0 10 -10v-40a10 10 0 0 1 10 -10"></path>
</g>
</g>
<path d="M438 31h20"></path>
<path d="M160 31a10 10 0 0 1 10 10v70a10 10 0 0 0 10 10"></path>
<g>
<path d="M180 121h0"></path>
<path d="M384 121h54"></path>
<g class="terminal">
<path d="M180 121h0"></path>
<path d="M232 121h0"></path>
<rect x="180" y="110" width="52" height="22" rx="10" ry="10"></rect>
<text x="206" y="125">!"("</text>
</g>
<path d="M232 121h10"></path>
<path d="M242 121h10"></path>
<g class="non-terminal">
<path d="M252 121h0"></path>
<path d="M384 121h0"></path>
<rect x="252" y="110" width="132" height="22"></rect>
<a xlink:href="reuse_constantstring.svg"><text x="318" y="125">ConstantString</text>
</a>
</g>
</g>
<path d="M438 121a10 10 0 0 0 10 -10v-70a10 10 0 0 1 10 -10"></path>
</g>
<path d="M458 31h10"></path>
<g class="terminal">
<path d="M468 31h0"></path>
<path d="M512 31h0"></path>
<rect x="468" y="20" width="44" height="22" rx="10" ry="10"></rect>
<text x="490" y="35">")"</text>
</g>
</g>
<path d="M512 31h10"></path>
<path d="M 522 31 h 20 m 0 -10 v 20"></path>
</g>
</svg>
