<svg xmlns="http://www.w3.org/2000/svg" xmlns:xlink="http://www.w3.org/1999/xlink" class="railroad-diagram" width="862" height="170" viewBox="0 0 862 170">
<defs>
<style type="text/css"><![CDATA[
path {
stroke-width: 3;
stroke: black;
fill: rgba(0,0,0,0);
}
text {
font: bold 14px monospace;
text-anchor: middle;
}
text.diagram-text {
font-size: 12px;
}
a {
fill: blue;
}
text.diagram-arrow {
font-size: 16px;
}
text.label {
text-anchor: start;
}
text.comment {
font: italic 12px monospace;
}
rect {
stroke-width: 3;
stroke: black;
fill: #BCBCBC;
}
path.diagram-text {
stroke-width: 3;
stroke: black;
fill: #BCBCBC;
cursor: help;
}
]]></style>
</defs>
<g transform="translate(.5 .5)">
<path d="M 20 21 v 20 m 0 -10 h 20.5"></path>
<g>
<path d="M40 31h0"></path>
<path d="M822 31h0"></path>
<path d="M40 31h20"></path>
<g class="non-terminal">
<path d="M60 31h0"></path>
<path d="M160 31h642"></path>
<rect x="60" y="20" width="100" height="22"></rect>
<a xlink:href="reuse_inlinedata.svg"><text x="110" y="35">InlineData</text>
</a>
</g>
<path d="M802 31h20"></path>
<path d="M40 31a10 10 0 0 1 10 10v10a10 10 0 0 0 10 10"></path>
<g class="non-terminal">
<path d="M60 61h0"></path>
<path d="M144 61h658"></path>
<rect x="60" y="50" width="84" height="22"></rect>
<a xlink:href="reuse_inlinefs.svg"><text x="102" y="65">InlineFS</text>
</a>
</g>
<path d="M802 61a10 10 0 0 0 10 -10v-10a10 10 0 0 1 10 -10"></path>
<path d="M40 31a10 10 0 0 1 10 10v49a10 10 0 0 0 10 10"></path>
<g>
<path d="M60 100h0"></path>
<path d="M802 100h0"></path>
<g>
<path d="M60 100h0"></path>
<path d="M456 100h0"></path>
<g>
<path d="M60 100h0"></path>
<path d="M208 100h0"></path>
<path d="M60 100h20"></path>
<g class="non-terminal">
<path d="M80 100h0"></path>
<path d="M140 100h48"></path>
<rect x="80" y="89" width="60" height="22"></rect>
<a xlink:href="reuse_field.svg"><text x="110" y="104">Field</text>
</a>
</g>
<path d="M188 100h20"></path>
<path d="M60 100a10 10 0 0 1 10 10v10a10 10 0 0 0 10 10"></path>
<g class="non-terminal">
<path d="M80 130h0"></path>
<path d="M188 130h0"></path>
<rect x="80" y="119" width="108" height="22"></rect>
<a xlink:href="reuse_fieldsymbol.svg"><text x="134" y="134">FieldSymbol</text>
</a>
</g>
<path d="M188 130a10 10 0 0 0 10 -10v-10a10 10 0 0 1 10 -10"></path>
</g>
<g>
<path d="M208 100h0"></path>
<path d="M456 100h0"></path>
<path d="M208 100a10 10 0 0 0 10 -10v0a10 10 0 0 1 10 -10"></path>
<g>
<path d="M228 80h208"></path>
</g>
<path d="M436 80a10 10 0 0 1 10 10v0a10 10 0 0 0 10 10"></path>
<path d="M208 100h20"></path>
<g>
<path d="M228 100h0"></path>
<path d="M436 100h0"></path>
<path d="M228 100h10"></path>
<g>
<path d="M238 100h0"></path>
<path d="M426 100h0"></path>
<g class="non-terminal">
<path d="M238 100h0"></path>
<path d="M346 100h0"></path>
<rect x="238" y="89" width="108" height="22"></rect>
<a xlink:href="reuse_arrowordash.svg"><text x="292" y="104">ArrowOrDash</text>
</a>
</g>
<path d="M346 100h10"></path>
<path d="M356 100h10"></path>
<g class="non-terminal">
<path d="M366 100h0"></path>
<path d="M426 100h0"></path>
<rect x="366" y="89" width="60" height="22"></rect>
<a xlink:href="reuse_field.svg"><text x="396" y="104">Field</text>
</a>
</g>
</g>
<path d="M426 100h10"></path>
<path d="M238 100a10 10 0 0 0 -10 10v0a10 10 0 0 0 10 10"></path>
<g>
<path d="M238 120h188"></path>
</g>
<path d="M426 120a10 10 0 0 0 10 -10v0a10 10 0 0 0 -10 -10"></path>
</g>
<path d="M436 100h20"></path>
</g>
</g>
<path d="M456 100h10"></path>
<g>
<path d="M466 100h0"></path>
<path d="M802 100h0"></path>
<path d="M466 100h20"></path>
<g class="non-terminal">
<path d="M486 100h0"></path>
<path d="M578 100h204"></path>
<rect x="486" y="89" width="92" height="22"></rect>
<a xlink:href="reuse_tablebody.svg"><text x="532" y="104">TableBody</text>
</a>
</g>
<path d="M782 100h20"></path>
<path d="M466 100a10 10 0 0 1 10 10v19a10 10 0 0 0 10 10"></path>
<g>
<path d="M486 139h0"></path>
<path d="M782 139h0"></path>
<g>
<path d="M486 139h0"></path>
<path d="M634 139h0"></path>
<path d="M486 139a10 10 0 0 0 10 -10v0a10 10 0 0 1 10 -10"></path>
<g>
<path d="M506 119h108"></path>
</g>
<path d="M614 119a10 10 0 0 1 10 10v0a10 10 0 0 0 10 10"></path>
<path d="M486 139h20"></path>
<g class="non-terminal">
<path d="M506 139h0"></path>
<path d="M614 139h0"></path>
<rect x="506" y="128" width="108" height="22"></rect>
<a xlink:href="reuse_fieldoffset.svg"><text x="560" y="143">FieldOffset</text>
</a>
</g>
<path d="M614 139h20"></path>
</g>
<g>
<path d="M634 139h0"></path>
<path d="M782 139h0"></path>
<path d="M634 139a10 10 0 0 0 10 -10v0a10 10 0 0 1 10 -10"></path>
<g>
<path d="M654 119h108"></path>
</g>
<path d="M762 119a10 10 0 0 1 10 10v0a10 10 0 0 0 10 10"></path>
<path d="M634 139h20"></path>
<g class="non-terminal">
<path d="M654 139h0"></path>
<path d="M762 139h0"></path>
<rect x="654" y="128" width="108" height="22"></rect>
<a xlink:href="reuse_fieldlength.svg"><text x="708" y="143">FieldLength</text>
</a>
</g>
<path d="M762 139h20"></path>
</g>
</g>
<path d="M782 139a10 10 0 0 0 10 -10v-19a10 10 0 0 1 10 -10"></path>
</g>
</g>
<path d="M802 100a10 10 0 0 0 10 -10v-49a10 10 0 0 1 10 -10"></path>
</g>
<path d="M 822 31 h 20 m 0 -10 v 20"></path>
</g>
</svg>
