<svg xmlns="http://www.w3.org/2000/svg" xmlns:xlink="http://www.w3.org/1999/xlink" class="railroad-diagram" width="552" height="101" viewBox="0 0 552 101">
<defs>
<style type="text/css"><![CDATA[
path {
stroke-width: 3;
stroke: black;
fill: rgba(0,0,0,0);
}
text {
font: bold 14px monospace;
text-anchor: middle;
}
text.diagram-text {
font-size: 12px;
}
a {
fill: blue;
}
text.diagram-arrow {
font-size: 16px;
}
text.label {
text-anchor: start;
}
text.comment {
font: italic 12px monospace;
}
rect {
stroke-width: 3;
stroke: black;
fill: #BCBCBC;
}
path.diagram-text {
stroke-width: 3;
stroke: black;
fill: #BCBCBC;
cursor: help;
}
]]></style>
</defs>
<g transform="translate(.5 .5)">
<path d="M 20 30 v 20 m 0 -10 h 20.5"></path>
<g>
<path d="M40 40h0"></path>
<path d="M512 40h0"></path>
<path d="M40 40h20"></path>
<g>
<path d="M60 40h0"></path>
<path d="M492 40h0"></path>
<g>
<path d="M60 40h0"></path>
<path d="M240 40h0"></path>
<path d="M60 40a10 10 0 0 0 10 -10v0a10 10 0 0 1 10 -10"></path>
<g>
<path d="M80 20h140"></path>
</g>
<path d="M220 20a10 10 0 0 1 10 10v0a10 10 0 0 0 10 10"></path>
<path d="M60 40h20"></path>
<g>
<path d="M80 40h0"></path>
<path d="M220 40h0"></path>
<g class="terminal">
<path d="M80 40h0"></path>
<path d="M140 40h0"></path>
<rect x="80" y="29" width="60" height="22" rx="10" ry="10"></rect>
<text x="110" y="44">^\w+$</text>
</g>
<path d="M140 40h10"></path>
<path d="M150 40h10"></path>
<g class="non-terminal">
<path d="M160 40h0"></path>
<path d="M220 40h0"></path>
<rect x="160" y="29" width="60" height="22"></rect>
<a xlink:href="reuse_arrow.svg"><text x="190" y="44">Arrow</text>
</a>
</g>
</g>
<path d="M220 40h20"></path>
</g>
<path d="M240 40h10"></path>
<g class="terminal">
<path d="M250 40h0"></path>
<path d="M310 40h0"></path>
<rect x="250" y="29" width="60" height="22" rx="10" ry="10"></rect>
<text x="280" y="44">^\w+$</text>
</g>
<path d="M310 40h10"></path>
<g>
<path d="M320 40h0"></path>
<path d="M492 40h0"></path>
<path d="M320 40a10 10 0 0 0 10 -10v0a10 10 0 0 1 10 -10"></path>
<g>
<path d="M340 20h132"></path>
</g>
<path d="M472 20a10 10 0 0 1 10 10v0a10 10 0 0 0 10 10"></path>
<path d="M320 40h20"></path>
<g>
<path d="M340 40h0"></path>
<path d="M472 40h0"></path>
<g class="terminal">
<path d="M340 40h0"></path>
<path d="M392 40h0"></path>
<rect x="340" y="29" width="52" height="22" rx="10" ry="10"></rect>
<text x="366" y="44">!"-"</text>
</g>
<path d="M392 40h10"></path>
<path d="M402 40h10"></path>
<g class="terminal">
<path d="M412 40h0"></path>
<path d="M472 40h0"></path>
<rect x="412" y="29" width="60" height="22" rx="10" ry="10"></rect>
<text x="442" y="44">^\w+$</text>
</g>
</g>
<path d="M472 40h20"></path>
</g>
</g>
<path d="M492 40h20"></path>
<path d="M40 40a10 10 0 0 1 10 10v10a10 10 0 0 0 10 10"></path>
<g class="terminal">
<path d="M60 70h0"></path>
<path d="M104 70h388"></path>
<rect x="60" y="59" width="44" height="22" rx="10" ry="10"></rect>
<text x="82" y="74">"#"</text>
</g>
<path d="M492 70a10 10 0 0 0 10 -10v-10a10 10 0 0 1 10 -10"></path>
</g>
<path d="M 512 40 h 20 m 0 -10 v 20"></path>
</g>
</svg>
