<svg xmlns="http://www.w3.org/2000/svg" xmlns:xlink="http://www.w3.org/1999/xlink" class="railroad-diagram" width="548" height="101" viewBox="0 0 548 101">
<defs>
<style type="text/css"><![CDATA[
path {
stroke-width: 3;
stroke: black;
fill: rgba(0,0,0,0);
}
text {
font: bold 14px monospace;
text-anchor: middle;
}
text.diagram-text {
font-size: 12px;
}
a {
fill: blue;
}
text.diagram-arrow {
font-size: 16px;
}
text.label {
text-anchor: start;
}
text.comment {
font: italic 12px monospace;
}
rect {
stroke-width: 3;
stroke: black;
fill: #BCBCBC;
}
path.diagram-text {
stroke-width: 3;
stroke: black;
fill: #BCBCBC;
cursor: help;
}
]]></style>
</defs>
<g transform="translate(.5 .5)">
<path d="M 20 30 v 20 m 0 -10 h 20.5"></path>
<path d="M40 40h10"></path>
<g>
<path d="M50 40h0"></path>
<path d="M498 40h0"></path>
<g class="terminal">
<path d="M50 40h0"></path>
<path d="M190 40h0"></path>
<rect x="50" y="29" width="140" height="22" rx="10" ry="10"></rect>
<text x="120" y="44">^('.&#42;')|(&#96;.&#42;&#96;)$</text>
</g>
<path d="M190 40h10"></path>
<g>
<path d="M200 40h0"></path>
<path d="M498 40h0"></path>
<path d="M200 40a10 10 0 0 0 10 -10v0a10 10 0 0 1 10 -10"></path>
<g>
<path d="M220 20h258"></path>
</g>
<path d="M478 20a10 10 0 0 1 10 10v0a10 10 0 0 0 10 10"></path>
<path d="M200 40h20"></path>
<g>
<path d="M220 40h0"></path>
<path d="M478 40h0"></path>
<g class="terminal">
<path d="M220 40h0"></path>
<path d="M272 40h0"></path>
<rect x="220" y="29" width="52" height="22" rx="10" ry="10"></rect>
<text x="246" y="44">!"("</text>
</g>
<path d="M272 40h10"></path>
<path d="M282 40h10"></path>
<g class="terminal">
<path d="M292 40h0"></path>
<path d="M368 40h0"></path>
<rect x="292" y="29" width="76" height="22" rx="10" ry="10"></rect>
<text x="330" y="44">^\w{3}$</text>
</g>
<path d="M368 40h10"></path>
<g>
<path d="M378 40h0"></path>
<path d="M478 40h0"></path>
<path d="M378 40h20"></path>
<g class="terminal">
<path d="M398 40h0"></path>
<path d="M458 40h0"></path>
<rect x="398" y="29" width="60" height="22" rx="10" ry="10"></rect>
<text x="428" y="44">!") "</text>
</g>
<path d="M458 40h20"></path>
<path d="M378 40a10 10 0 0 1 10 10v10a10 10 0 0 0 10 10"></path>
<g class="terminal">
<path d="M398 70h0"></path>
<path d="M450 70h8"></path>
<rect x="398" y="59" width="52" height="22" rx="10" ry="10"></rect>
<text x="424" y="74">!")"</text>
</g>
<path d="M458 70a10 10 0 0 0 10 -10v-10a10 10 0 0 1 10 -10"></path>
</g>
</g>
<path d="M478 40h20"></path>
</g>
</g>
<path d="M498 40h10"></path>
<path d="M 508 40 h 20 m 0 -10 v 20"></path>
</g>
</svg>
