<svg xmlns="http://www.w3.org/2000/svg" xmlns:xlink="http://www.w3.org/1999/xlink" class="railroad-diagram" width="1712" height="71" viewBox="0 0 1712 71">
<defs>
<style type="text/css"><![CDATA[
path {
stroke-width: 3;
stroke: black;
fill: rgba(0,0,0,0);
}
text {
font: bold 14px monospace;
text-anchor: middle;
}
text.diagram-text {
font-size: 12px;
}
a {
fill: blue;
}
text.diagram-arrow {
font-size: 16px;
}
text.label {
text-anchor: start;
}
text.comment {
font: italic 12px monospace;
}
rect {
stroke-width: 3;
stroke: black;
fill: #BCBCBC;
}
path.diagram-text {
stroke-width: 3;
stroke: black;
fill: #BCBCBC;
cursor: help;
}
]]></style>
</defs>
<g transform="translate(.5 .5)">
<path d="M 20 30 v 20 m 0 -10 h 20.5"></path>
<path d="M40 40h10"></path>
<g>
<path d="M50 40h0"></path>
<path d="M1662 40h0"></path>
<g>
<path d="M50 40h0"></path>
<path d="M366 40h0"></path>
<path d="M50 40a10 10 0 0 0 10 -10v0a10 10 0 0 1 10 -10"></path>
<g>
<path d="M70 20h276"></path>
</g>
<path d="M346 20a10 10 0 0 1 10 10v0a10 10 0 0 0 10 10"></path>
<path d="M50 40h20"></path>
<g>
<path d="M70 40h0"></path>
<path d="M346 40h0"></path>
<g class="terminal">
<path d="M70 40h0"></path>
<path d="M178 40h0"></path>
<rect x="70" y="29" width="108" height="22" rx="10" ry="10"></rect>
<text x="124" y="44">"EXPORTING"</text>
</g>
<path d="M178 40h10"></path>
<path d="M188 40h10"></path>
<g class="non-terminal">
<path d="M198 40h0"></path>
<path d="M346 40h0"></path>
<rect x="198" y="29" width="148" height="22"></rect>
<a xlink:href="reuse_parameter_list_s.svg"><text x="272" y="44">parameter&#95;list&#95;s</text>
</a>
</g>
</g>
<path d="M346 40h20"></path>
</g>
<g>
<path d="M366 40h0"></path>
<path d="M682 40h0"></path>
<path d="M366 40a10 10 0 0 0 10 -10v0a10 10 0 0 1 10 -10"></path>
<g>
<path d="M386 20h276"></path>
</g>
<path d="M662 20a10 10 0 0 1 10 10v0a10 10 0 0 0 10 10"></path>
<path d="M366 40h20"></path>
<g>
<path d="M386 40h0"></path>
<path d="M662 40h0"></path>
<g class="terminal">
<path d="M386 40h0"></path>
<path d="M494 40h0"></path>
<rect x="386" y="29" width="108" height="22" rx="10" ry="10"></rect>
<text x="440" y="44">"IMPORTING"</text>
</g>
<path d="M494 40h10"></path>
<path d="M504 40h10"></path>
<g class="non-terminal">
<path d="M514 40h0"></path>
<path d="M662 40h0"></path>
<rect x="514" y="29" width="148" height="22"></rect>
<a xlink:href="reuse_parameter_list_t.svg"><text x="588" y="44">parameter&#95;list&#95;t</text>
</a>
</g>
</g>
<path d="M662 40h20"></path>
</g>
<g>
<path d="M682 40h0"></path>
<path d="M990 40h0"></path>
<path d="M682 40a10 10 0 0 0 10 -10v0a10 10 0 0 1 10 -10"></path>
<g>
<path d="M702 20h268"></path>
</g>
<path d="M970 20a10 10 0 0 1 10 10v0a10 10 0 0 0 10 10"></path>
<path d="M682 40h20"></path>
<g>
<path d="M702 40h0"></path>
<path d="M970 40h0"></path>
<g class="terminal">
<path d="M702 40h0"></path>
<path d="M802 40h0"></path>
<rect x="702" y="29" width="100" height="22" rx="10" ry="10"></rect>
<text x="752" y="44">"CHANGING"</text>
</g>
<path d="M802 40h10"></path>
<path d="M812 40h10"></path>
<g class="non-terminal">
<path d="M822 40h0"></path>
<path d="M970 40h0"></path>
<rect x="822" y="29" width="148" height="22"></rect>
<a xlink:href="reuse_parameter_list_t.svg"><text x="896" y="44">parameter&#95;list&#95;t</text>
</a>
</g>
</g>
<path d="M970 40h20"></path>
</g>
<g>
<path d="M990 40h0"></path>
<path d="M1266 40h0"></path>
<path d="M990 40a10 10 0 0 0 10 -10v0a10 10 0 0 1 10 -10"></path>
<g>
<path d="M1010 20h236"></path>
</g>
<path d="M1246 20a10 10 0 0 1 10 10v0a10 10 0 0 0 10 10"></path>
<path d="M990 40h20"></path>
<g>
<path d="M1010 40h0"></path>
<path d="M1246 40h0"></path>
<g class="terminal">
<path d="M1010 40h0"></path>
<path d="M1118 40h0"></path>
<rect x="1010" y="29" width="108" height="22" rx="10" ry="10"></rect>
<text x="1064" y="44">"RECEIVING"</text>
</g>
<path d="M1118 40h10"></path>
<path d="M1128 40h10"></path>
<g class="non-terminal">
<path d="M1138 40h0"></path>
<path d="M1246 40h0"></path>
<rect x="1138" y="29" width="108" height="22"></rect>
<a xlink:href="reuse_parameter_t.svg"><text x="1192" y="44">parameter&#95;t</text>
</a>
</g>
</g>
<path d="M1246 40h20"></path>
</g>
<g>
<path d="M1266 40h0"></path>
<path d="M1662 40h0"></path>
<path d="M1266 40a10 10 0 0 0 10 -10v0a10 10 0 0 1 10 -10"></path>
<g>
<path d="M1286 20h356"></path>
</g>
<path d="M1642 20a10 10 0 0 1 10 10v0a10 10 0 0 0 10 10"></path>
<path d="M1266 40h20"></path>
<g>
<path d="M1286 40h0"></path>
<path d="M1642 40h0"></path>
<g class="terminal">
<path d="M1286 40h0"></path>
<path d="M1402 40h0"></path>
<rect x="1286" y="29" width="116" height="22" rx="10" ry="10"></rect>
<text x="1344" y="44">"EXCEPTIONS"</text>
</g>
<path d="M1402 40h10"></path>
<path d="M1412 40h10"></path>
<g class="non-terminal">
<path d="M1422 40h0"></path>
<path d="M1642 40h0"></path>
<rect x="1422" y="29" width="220" height="22"></rect>
<a xlink:href="reuse_parameter_list_exceptions.svg"><text x="1532" y="44">parameter&#95;list&#95;exceptions</text>
</a>
</g>
</g>
<path d="M1642 40h20"></path>
</g>
</g>
<path d="M1662 40h10"></path>
<path d="M 1672 40 h 20 m 0 -10 v 20"></path>
</g>
</svg>
