<svg xmlns="http://www.w3.org/2000/svg" xmlns:xlink="http://www.w3.org/1999/xlink" class="railroad-diagram" width="1096" height="187" viewBox="0 0 1096 187">
<defs>
<style type="text/css"><![CDATA[
path {
stroke-width: 3;
stroke: black;
fill: rgba(0,0,0,0);
}
text {
font: bold 14px monospace;
text-anchor: middle;
}
text.diagram-text {
font-size: 12px;
}
a {
fill: blue;
}
text.diagram-arrow {
font-size: 16px;
}
text.label {
text-anchor: start;
}
text.comment {
font: italic 12px monospace;
}
rect {
stroke-width: 3;
stroke: black;
fill: #BCBCBC;
}
path.diagram-text {
stroke-width: 3;
stroke: black;
fill: #BCBCBC;
cursor: help;
}
]]></style>
</defs>
<g transform="translate(.5 .5)">
<path d="M 20 30 v 20 m 0 -10 h 20.5"></path>
<g>
<path d="M40 40h0"></path>
<path d="M1056 40h0"></path>
<path d="M40 40h20"></path>
<g>
<path d="M60 40h0"></path>
<path d="M1036 40h0"></path>
<g>
<path d="M60 40h0"></path>
<path d="M468 40h0"></path>
<path d="M60 40h20"></path>
<g class="non-terminal">
<path d="M80 40h0"></path>
<path d="M156 40h292"></path>
<rect x="80" y="29" width="76" height="22"></rect>
<a xlink:href="reuse_compare.svg"><text x="118" y="44">Compare</text>
</a>
</g>
<path d="M448 40h20"></path>
<path d="M60 40a10 10 0 0 1 10 10v19a10 10 0 0 0 10 10"></path>
<g>
<path d="M80 79h0"></path>
<path d="M448 79h0"></path>
<g>
<path d="M80 79h0"></path>
<path d="M180 79h0"></path>
<path d="M80 79a10 10 0 0 0 10 -10v0a10 10 0 0 1 10 -10"></path>
<g>
<path d="M100 59h60"></path>
</g>
<path d="M160 59a10 10 0 0 1 10 10v0a10 10 0 0 0 10 10"></path>
<path d="M80 79h20"></path>
<g class="terminal">
<path d="M100 79h0"></path>
<path d="M160 79h0"></path>
<rect x="100" y="68" width="60" height="22" rx="10" ry="10"></rect>
<text x="130" y="83">"NOT"</text>
</g>
<path d="M160 79h20"></path>
</g>
<path d="M180 79h10"></path>
<g class="terminal">
<path d="M190 79h0"></path>
<path d="M258 79h0"></path>
<rect x="190" y="68" width="68" height="22" rx="10" ry="10"></rect>
<text x="224" y="83">!" ( "</text>
</g>
<path d="M258 79h10"></path>
<path d="M268 79h10"></path>
<g class="non-terminal">
<path d="M278 79h0"></path>
<path d="M330 79h0"></path>
<rect x="278" y="68" width="52" height="22"></rect>
<a xlink:href="reuse_cond.svg"><text x="304" y="83">Cond</text>
</a>
</g>
<path d="M330 79h10"></path>
<g>
<path d="M340 79h0"></path>
<path d="M448 79h0"></path>
<path d="M340 79h20"></path>
<g class="terminal">
<path d="M360 79h0"></path>
<path d="M428 79h0"></path>
<rect x="360" y="68" width="68" height="22" rx="10" ry="10"></rect>
<text x="394" y="83">!" ) "</text>
</g>
<path d="M428 79h20"></path>
<path d="M340 79a10 10 0 0 1 10 10v10a10 10 0 0 0 10 10"></path>
<g class="terminal">
<path d="M360 109h0"></path>
<path d="M420 109h8"></path>
<rect x="360" y="98" width="60" height="22" rx="10" ry="10"></rect>
<text x="390" y="113">!" )"</text>
</g>
<path d="M428 109a10 10 0 0 0 10 -10v-10a10 10 0 0 1 10 -10"></path>
</g>
</g>
<path d="M448 79a10 10 0 0 0 10 -10v-19a10 10 0 0 1 10 -10"></path>
</g>
<g>
<path d="M468 40h0"></path>
<path d="M1036 40h0"></path>
<path d="M468 40a10 10 0 0 0 10 -10v0a10 10 0 0 1 10 -10"></path>
<g>
<path d="M488 20h528"></path>
</g>
<path d="M1016 20a10 10 0 0 1 10 10v0a10 10 0 0 0 10 10"></path>
<path d="M468 40h20"></path>
<g>
<path d="M488 40h0"></path>
<path d="M1016 40h0"></path>
<path d="M488 40h10"></path>
<g>
<path d="M498 40h0"></path>
<path d="M1006 40h0"></path>
<g>
<path d="M498 40h0"></path>
<path d="M598 40h0"></path>
<path d="M498 40h20"></path>
<g class="terminal">
<path d="M518 40h0"></path>
<path d="M578 40h0"></path>
<rect x="518" y="29" width="60" height="22" rx="10" ry="10"></rect>
<text x="548" y="44">"AND"</text>
</g>
<path d="M578 40h20"></path>
<path d="M498 40a10 10 0 0 1 10 10v10a10 10 0 0 0 10 10"></path>
<g class="terminal">
<path d="M518 70h0"></path>
<path d="M570 70h8"></path>
<rect x="518" y="59" width="52" height="22" rx="10" ry="10"></rect>
<text x="544" y="74">"OR"</text>
</g>
<path d="M578 70a10 10 0 0 0 10 -10v-10a10 10 0 0 1 10 -10"></path>
</g>
<g>
<path d="M598 40h0"></path>
<path d="M1006 40h0"></path>
<path d="M598 40h20"></path>
<g class="non-terminal">
<path d="M618 40h0"></path>
<path d="M694 40h292"></path>
<rect x="618" y="29" width="76" height="22"></rect>
<a xlink:href="reuse_compare.svg"><text x="656" y="44">Compare</text>
</a>
</g>
<path d="M986 40h20"></path>
<path d="M598 40a10 10 0 0 1 10 10v19a10 10 0 0 0 10 10"></path>
<g>
<path d="M618 79h0"></path>
<path d="M986 79h0"></path>
<g>
<path d="M618 79h0"></path>
<path d="M718 79h0"></path>
<path d="M618 79a10 10 0 0 0 10 -10v0a10 10 0 0 1 10 -10"></path>
<g>
<path d="M638 59h60"></path>
</g>
<path d="M698 59a10 10 0 0 1 10 10v0a10 10 0 0 0 10 10"></path>
<path d="M618 79h20"></path>
<g class="terminal">
<path d="M638 79h0"></path>
<path d="M698 79h0"></path>
<rect x="638" y="68" width="60" height="22" rx="10" ry="10"></rect>
<text x="668" y="83">"NOT"</text>
</g>
<path d="M698 79h20"></path>
</g>
<path d="M718 79h10"></path>
<g class="terminal">
<path d="M728 79h0"></path>
<path d="M796 79h0"></path>
<rect x="728" y="68" width="68" height="22" rx="10" ry="10"></rect>
<text x="762" y="83">!" ( "</text>
</g>
<path d="M796 79h10"></path>
<path d="M806 79h10"></path>
<g class="non-terminal">
<path d="M816 79h0"></path>
<path d="M868 79h0"></path>
<rect x="816" y="68" width="52" height="22"></rect>
<a xlink:href="reuse_cond.svg"><text x="842" y="83">Cond</text>
</a>
</g>
<path d="M868 79h10"></path>
<g>
<path d="M878 79h0"></path>
<path d="M986 79h0"></path>
<path d="M878 79h20"></path>
<g class="terminal">
<path d="M898 79h0"></path>
<path d="M966 79h0"></path>
<rect x="898" y="68" width="68" height="22" rx="10" ry="10"></rect>
<text x="932" y="83">!" ) "</text>
</g>
<path d="M966 79h20"></path>
<path d="M878 79a10 10 0 0 1 10 10v10a10 10 0 0 0 10 10"></path>
<g class="terminal">
<path d="M898 109h0"></path>
<path d="M958 109h8"></path>
<rect x="898" y="98" width="60" height="22" rx="10" ry="10"></rect>
<text x="928" y="113">!" )"</text>
</g>
<path d="M966 109a10 10 0 0 0 10 -10v-10a10 10 0 0 1 10 -10"></path>
</g>
</g>
<path d="M986 79a10 10 0 0 0 10 -10v-19a10 10 0 0 1 10 -10"></path>
</g>
</g>
<path d="M1006 40h10"></path>
<path d="M498 40a10 10 0 0 0 -10 10v68a10 10 0 0 0 10 10"></path>
<g>
<path d="M498 128h508"></path>
</g>
<path d="M1006 128a10 10 0 0 0 10 -10v-68a10 10 0 0 0 -10 -10"></path>
</g>
<path d="M1016 40h20"></path>
</g>
</g>
<path d="M1036 40h20"></path>
<path d="M40 40a10 10 0 0 1 10 10v96a10 10 0 0 0 10 10"></path>
<g>
<path d="M60 156h0"></path>
<path d="M396 156h640"></path>
<g>
<path d="M60 156h0"></path>
<path d="M126 156h0"></path>
<text x="93" y="161" class="comment">v740sp08</text>
</g>
<path d="M126 156h10"></path>
<path d="M136 156h10"></path>
<g>
<path d="M146 156h0"></path>
<path d="M396 156h0"></path>
<g>
<path d="M146 156h0"></path>
<path d="M246 156h0"></path>
<path d="M146 156a10 10 0 0 0 10 -10v0a10 10 0 0 1 10 -10"></path>
<g>
<path d="M166 136h60"></path>
</g>
<path d="M226 136a10 10 0 0 1 10 10v0a10 10 0 0 0 10 10"></path>
<path d="M146 156h20"></path>
<g class="terminal">
<path d="M166 156h0"></path>
<path d="M226 156h0"></path>
<rect x="166" y="145" width="60" height="22" rx="10" ry="10"></rect>
<text x="196" y="160">"NOT"</text>
</g>
<path d="M226 156h20"></path>
</g>
<path d="M246 156h10"></path>
<g class="non-terminal">
<path d="M256 156h0"></path>
<path d="M396 156h0"></path>
<rect x="256" y="145" width="140" height="22"></rect>
<a xlink:href="reuse_methodcallchain.svg"><text x="326" y="160">MethodCallChain</text>
</a>
</g>
</g>
</g>
<path d="M1036 156a10 10 0 0 0 10 -10v-96a10 10 0 0 1 10 -10"></path>
</g>
<path d="M 1056 40 h 20 m 0 -10 v 20"></path>
</g>
</svg>
