<svg xmlns="http://www.w3.org/2000/svg" xmlns:xlink="http://www.w3.org/1999/xlink" class="railroad-diagram" width="324" height="92" viewBox="0 0 324 92">
<defs>
<style type="text/css"><![CDATA[
path {
stroke-width: 3;
stroke: black;
fill: rgba(0,0,0,0);
}
text {
font: bold 14px monospace;
text-anchor: middle;
}
text.diagram-text {
font-size: 12px;
}
a {
fill: blue;
}
text.diagram-arrow {
font-size: 16px;
}
text.label {
text-anchor: start;
}
text.comment {
font: italic 12px monospace;
}
rect {
stroke-width: 3;
stroke: black;
fill: #BCBCBC;
}
path.diagram-text {
stroke-width: 3;
stroke: black;
fill: #BCBCBC;
cursor: help;
}
]]></style>
</defs>
<g transform="translate(.5 .5)">
<path d="M 20 21 v 20 m 0 -10 h 20.5"></path>
<path d="M40 31h10"></path>
<g>
<path d="M50 31h0"></path>
<path d="M274 31h0"></path>
<g>
<path d="M50 31h0"></path>
<path d="M116 31h0"></path>
<text x="83" y="36" class="comment">v740sp02</text>
</g>
<path d="M116 31h10"></path>
<g>
<path d="M126 31h0"></path>
<path d="M274 31h0"></path>
<path d="M126 31h20"></path>
<g class="non-terminal">
<path d="M146 31h0"></path>
<path d="M254 31h0"></path>
<rect x="146" y="20" width="108" height="22"></rect>
<a xlink:href="reuse_inline_data.svg"><text x="200" y="35">inline&#95;data</text>
</a>
</g>
<path d="M254 31h20"></path>
<path d="M126 31a10 10 0 0 1 10 10v10a10 10 0 0 0 10 10"></path>
<g class="non-terminal">
<path d="M146 61h8"></path>
<path d="M246 61h8"></path>
<rect x="154" y="50" width="92" height="22"></rect>
<a xlink:href="reuse_inline_fs.svg"><text x="200" y="65">inline&#95;fs</text>
</a>
</g>
<path d="M254 61a10 10 0 0 0 10 -10v-10a10 10 0 0 1 10 -10"></path>
</g>
</g>
<path d="M274 31h10"></path>
<path d="M 284 31 h 20 m 0 -10 v 20"></path>
</g>
</svg>
