<svg xmlns="http://www.w3.org/2000/svg" xmlns:xlink="http://www.w3.org/1999/xlink" class="railroad-diagram" width="878" height="131" viewBox="0 0 878 131">
<defs>
<style type="text/css"><![CDATA[
path {
stroke-width: 3;
stroke: black;
fill: rgba(0,0,0,0);
}
text {
font: bold 14px monospace;
text-anchor: middle;
}
text.diagram-text {
font-size: 12px;
}
a {
fill: blue;
}
text.diagram-arrow {
font-size: 16px;
}
text.label {
text-anchor: start;
}
text.comment {
font: italic 12px monospace;
}
rect {
stroke-width: 3;
stroke: black;
fill: #BCBCBC;
}
path.diagram-text {
stroke-width: 3;
stroke: black;
fill: #BCBCBC;
cursor: help;
}
]]></style>
</defs>
<g transform="translate(.5 .5)">
<path d="M 20 30 v 20 m 0 -10 h 20.5"></path>
<path d="M40 40h10"></path>
<g>
<path d="M50 40h0"></path>
<path d="M828 40h0"></path>
<g>
<path d="M50 40h0"></path>
<path d="M324 40h0"></path>
<g>
<path d="M50 40h0"></path>
<path d="M246 40h0"></path>
<path d="M50 40a10 10 0 0 0 10 -10v0a10 10 0 0 1 10 -10"></path>
<g>
<path d="M70 20h156"></path>
</g>
<path d="M226 20a10 10 0 0 1 10 10v0a10 10 0 0 0 10 10"></path>
<path d="M50 40h20"></path>
<g>
<path d="M70 40h0"></path>
<path d="M226 40h0"></path>
<path d="M70 40h20"></path>
<g class="terminal">
<path d="M90 40h0"></path>
<path d="M166 40h40"></path>
<rect x="90" y="29" width="76" height="22" rx="10" ry="10"></rect>
<text x="128" y="44">"INNER"</text>
</g>
<path d="M206 40h20"></path>
<path d="M70 40a10 10 0 0 1 10 10v10a10 10 0 0 0 10 10"></path>
<g class="terminal">
<path d="M90 70h0"></path>
<path d="M206 70h0"></path>
<rect x="90" y="59" width="116" height="22" rx="10" ry="10"></rect>
<text x="148" y="74">"LEFT OUTER"</text>
</g>
<path d="M206 70a10 10 0 0 0 10 -10v-10a10 10 0 0 1 10 -10"></path>
<path d="M70 40a10 10 0 0 1 10 10v40a10 10 0 0 0 10 10"></path>
<g class="terminal">
<path d="M90 100h0"></path>
<path d="M158 100h48"></path>
<rect x="90" y="89" width="68" height="22" rx="10" ry="10"></rect>
<text x="124" y="104">"LEFT"</text>
</g>
<path d="M206 100a10 10 0 0 0 10 -10v-40a10 10 0 0 1 10 -10"></path>
</g>
<path d="M226 40h20"></path>
</g>
<path d="M246 40h10"></path>
<g class="terminal">
<path d="M256 40h0"></path>
<path d="M324 40h0"></path>
<rect x="256" y="29" width="68" height="22" rx="10" ry="10"></rect>
<text x="290" y="44">"JOIN"</text>
</g>
</g>
<path d="M324 40h10"></path>
<path d="M334 40h10"></path>
<g class="non-terminal">
<path d="M344 40h0"></path>
<path d="M468 40h0"></path>
<rect x="344" y="29" width="124" height="22"></rect>
<a xlink:href="reuse_databasetable.svg"><text x="406" y="44">DatabaseTable</text>
</a>
</g>
<path d="M468 40h10"></path>
<g>
<path d="M478 40h0"></path>
<path d="M650 40h0"></path>
<path d="M478 40a10 10 0 0 0 10 -10v0a10 10 0 0 1 10 -10"></path>
<g>
<path d="M498 20h132"></path>
</g>
<path d="M630 20a10 10 0 0 1 10 10v0a10 10 0 0 0 10 10"></path>
<path d="M478 40h20"></path>
<g>
<path d="M498 40h0"></path>
<path d="M630 40h0"></path>
<g class="terminal">
<path d="M498 40h0"></path>
<path d="M550 40h0"></path>
<rect x="498" y="29" width="52" height="22" rx="10" ry="10"></rect>
<text x="524" y="44">"AS"</text>
</g>
<path d="M550 40h10"></path>
<path d="M560 40h10"></path>
<g class="non-terminal">
<path d="M570 40h0"></path>
<path d="M630 40h0"></path>
<rect x="570" y="29" width="60" height="22"></rect>
<a xlink:href="reuse_field.svg"><text x="600" y="44">Field</text>
</a>
</g>
</g>
<path d="M630 40h20"></path>
</g>
<path d="M650 40h10"></path>
<g class="terminal">
<path d="M660 40h0"></path>
<path d="M712 40h0"></path>
<rect x="660" y="29" width="52" height="22" rx="10" ry="10"></rect>
<text x="686" y="44">"ON"</text>
</g>
<path d="M712 40h10"></path>
<path d="M722 40h10"></path>
<g>
<path d="M732 40h0"></path>
<path d="M828 40h0"></path>
<path d="M732 40h10"></path>
<g class="non-terminal">
<path d="M742 40h0"></path>
<path d="M818 40h0"></path>
<rect x="742" y="29" width="76" height="22"></rect>
<a xlink:href="reuse_sqlcond.svg"><text x="780" y="44">SQLCond</text>
</a>
</g>
<path d="M818 40h10"></path>
<path d="M742 40a10 10 0 0 0 -10 10v0a10 10 0 0 0 10 10"></path>
<g>
<path d="M742 60h76"></path>
</g>
<path d="M818 60a10 10 0 0 0 10 -10v0a10 10 0 0 0 -10 -10"></path>
</g>
</g>
<path d="M828 40h10"></path>
<path d="M 838 40 h 20 m 0 -10 v 20"></path>
</g>
</svg>
