<?xml version="1.0" encoding="UTF-8" standalone="no"?>
<!DOCTYPE svg PUBLIC "-//W3C//DTD SVG 1.1//EN"
 "http://www.w3.org/Graphics/SVG/1.1/DTD/svg11.dtd">
<!-- Generated by graphviz version 2.38.0 (20140413.2041)
 -->
<!-- Title: source Pages: 1 -->
<svg width="722pt" height="620pt"
 viewBox="0.00 0.00 722.00 620.00" xmlns="http://www.w3.org/2000/svg" xmlns:xlink="http://www.w3.org/1999/xlink">
<g id="graph0" class="graph" transform="scale(1 1) rotate(0) translate(4 616)">
<title>source</title>
<polygon fill="white" stroke="none" points="-4,4 -4,-616 718,-616 718,4 -4,4"/>
<!-- start -->
<g id="node1" class="node"><title>start</title>
<polygon fill="none" stroke="blue" points="471,-612 417,-612 417,-576 471,-576 471,-612"/>
<text text-anchor="middle" x="444" y="-589.8" font-family="Times,serif" font-size="14.00">Start</text>
</g>
<!-- node136 -->
<g id="node8" class="node"><title>node136</title>
<g id="a_node8"><a xlink:href="reuse_constant.svg" xlink:title="&lt;u&gt;constant&lt;/u&gt;">
<ellipse fill="none" stroke="black" cx="236" cy="-378" rx="43.4377" ry="18"/>
<text text-anchor="start" x="212.673" y="-374.8" font-family="Times,serif" text-decoration="underline" font-size="14.00" fill="blue">constant</text>
</a>
</g>
</g>
<!-- start&#45;&gt;node136 -->
<g id="edge35" class="edge"><title>start&#45;&gt;node136</title>
<path fill="none" stroke="black" d="M427.33,-575.849C390.226,-537.675 300.784,-445.653 258.661,-402.315"/>
<polygon fill="black" stroke="black" points="261.087,-399.789 251.607,-395.057 256.067,-404.668 261.087,-399.789"/>
</g>
<!-- node137 -->
<g id="node9" class="node"><title>node137</title>
<g id="a_node9"><a xlink:href="reuse_string_template.svg" xlink:title="&lt;u&gt;string_template&lt;/u&gt;">
<ellipse fill="none" stroke="black" cx="444" cy="-378" rx="71.223" ry="18"/>
<text text-anchor="start" x="400.454" y="-374.8" font-family="Times,serif" text-decoration="underline" font-size="14.00" fill="blue">string_template</text>
</a>
</g>
</g>
<!-- start&#45;&gt;node137 -->
<g id="edge36" class="edge"><title>start&#45;&gt;node137</title>
<path fill="none" stroke="black" d="M444,-575.849C444,-538.832 444,-451.181 444,-406.386"/>
<polygon fill="black" stroke="black" points="447.5,-406.232 444,-396.232 440.5,-406.232 447.5,-406.232"/>
</g>
<!-- node140 -->
<g id="node12" class="node"><title>node140</title>
<g id="a_node12"><a xlink:href="reuse_method_call_chain.svg" xlink:title="&lt;u&gt;method_call_chain&lt;/u&gt;">
<ellipse fill="none" stroke="black" cx="141" cy="-522" rx="84.5324" ry="18"/>
<text text-anchor="start" x="87.737" y="-518.8" font-family="Times,serif" text-decoration="underline" font-size="14.00" fill="blue">method_call_chain</text>
</a>
</g>
</g>
<!-- start&#45;&gt;node140 -->
<g id="edge37" class="edge"><title>start&#45;&gt;node140</title>
<path fill="none" stroke="black" d="M416.844,-586.726C369.73,-575.842 271.608,-553.174 206.013,-538.019"/>
<polygon fill="black" stroke="black" points="206.71,-534.589 196.179,-535.748 205.135,-541.409 206.71,-534.589"/>
</g>
<!-- node141 -->
<g id="node13" class="node"><title>node141</title>
<g id="a_node13"><a xlink:href="reuse_field_chain.svg" xlink:title="&lt;u&gt;field_chain&lt;/u&gt;">
<ellipse fill="none" stroke="black" cx="588" cy="-378" rx="54.4527" ry="18"/>
<text text-anchor="start" x="556.512" y="-374.8" font-family="Times,serif" text-decoration="underline" font-size="14.00" fill="blue">field_chain</text>
</a>
</g>
</g>
<!-- start&#45;&gt;node141 -->
<g id="edge38" class="edge"><title>start&#45;&gt;node141</title>
<path fill="none" stroke="black" d="M455.541,-575.849C480.891,-538.177 541.528,-448.063 571.145,-404.049"/>
<polygon fill="black" stroke="black" points="574.124,-405.891 576.803,-395.641 568.316,-401.983 574.124,-405.891"/>
</g>
<!-- node144 -->
<g id="node16" class="node"><title>node144</title>
<ellipse fill="none" stroke="black" cx="611" cy="-522" rx="27" ry="18"/>
<text text-anchor="middle" x="611" y="-517.8" font-family="Times,serif" font-size="14.00">&quot;(&quot;</text>
</g>
<!-- start&#45;&gt;node144 -->
<g id="edge39" class="edge"><title>start&#45;&gt;node144</title>
<path fill="none" stroke="black" d="M471.203,-581.597C500.726,-569.223 547.825,-549.481 579.077,-536.381"/>
<polygon fill="black" stroke="black" points="580.756,-539.472 588.625,-532.379 578.05,-533.017 580.756,-539.472"/>
</g>
<!-- end -->
<g id="node2" class="node"><title>end</title>
<polygon fill="none" stroke="blue" points="350,-36 296,-36 296,-0 350,-0 350,-36"/>
<text text-anchor="middle" x="323" y="-13.8" font-family="Times,serif" font-size="14.00">End</text>
</g>
<!-- node131 -->
<g id="node3" class="node"><title>node131</title>
<ellipse fill="none" stroke="black" cx="296" cy="-90" rx="27" ry="18"/>
<text text-anchor="middle" x="296" y="-85.8" font-family="Times,serif" font-size="14.00">&quot;]&quot;</text>
</g>
<!-- node131&#45;&gt;end -->
<g id="edge1" class="edge"><title>node131&#45;&gt;end</title>
<path fill="none" stroke="black" d="M302.399,-72.411C305.435,-64.5386 309.142,-54.9289 312.569,-46.0421"/>
<polygon fill="black" stroke="black" points="315.937,-47.0364 316.271,-36.4468 309.406,-44.5172 315.937,-47.0364"/>
</g>
<!-- node132 -->
<g id="node4" class="node"><title>node132</title>
<ellipse fill="none" stroke="black" cx="296" cy="-162" rx="27" ry="18"/>
<text text-anchor="middle" x="296" y="-157.8" font-family="Times,serif" font-size="14.00">&quot;[&quot;</text>
</g>
<!-- node132&#45;&gt;node131 -->
<g id="edge2" class="edge"><title>node132&#45;&gt;node131</title>
<path fill="none" stroke="black" d="M296,-143.697C296,-135.983 296,-126.712 296,-118.112"/>
<polygon fill="black" stroke="black" points="299.5,-118.104 296,-108.104 292.5,-118.104 299.5,-118.104"/>
</g>
<!-- node133 -->
<g id="node5" class="node"><title>node133</title>
<g id="a_node5"><a xlink:href="reuse_source.svg" xlink:title="&lt;u&gt;source&lt;/u&gt;">
<ellipse fill="none" stroke="black" cx="324" cy="-234" rx="36.4761" ry="18"/>
<text text-anchor="start" x="305.733" y="-230.8" font-family="Times,serif" text-decoration="underline" font-size="14.00" fill="blue">source</text>
</a>
</g>
</g>
<!-- node133&#45;&gt;end -->
<g id="edge4" class="edge"><title>node133&#45;&gt;end</title>
<path fill="none" stroke="black" d="M327.248,-215.888C329.046,-205.542 331.095,-192.063 332,-180 335.592,-132.135 336.032,-119.83 332,-72 331.283,-63.4991 329.931,-54.3119 328.488,-46.0122"/>
<polygon fill="black" stroke="black" points="331.914,-45.2892 326.654,-36.0925 325.031,-46.5623 331.914,-45.2892"/>
</g>
<!-- node133&#45;&gt;node132 -->
<g id="edge3" class="edge"><title>node133&#45;&gt;node132</title>
<path fill="none" stroke="black" d="M317.222,-216.055C313.989,-207.973 310.049,-198.121 306.445,-189.112"/>
<polygon fill="black" stroke="black" points="309.679,-187.774 302.716,-179.789 303.18,-190.374 309.679,-187.774"/>
</g>
<!-- node134 -->
<g id="node6" class="node"><title>node134</title>
<ellipse fill="none" stroke="black" cx="287" cy="-306" rx="33.8779" ry="18"/>
<text text-anchor="middle" x="287" y="-301.8" font-family="Times,serif" font-size="14.00">&quot;&amp;&amp;&quot;</text>
</g>
<!-- node134&#45;&gt;node133 -->
<g id="edge5" class="edge"><title>node134&#45;&gt;node133</title>
<path fill="none" stroke="black" d="M295.768,-288.411C300.083,-280.249 305.384,-270.22 310.223,-261.065"/>
<polygon fill="black" stroke="black" points="313.459,-262.433 315.037,-251.956 307.27,-259.162 313.459,-262.433"/>
</g>
<!-- node135 -->
<g id="node7" class="node"><title>node135</title>
<g id="a_node7"><a xlink:href="reuse_arith_operator.svg" xlink:title="&lt;u&gt;arith_operator&lt;/u&gt;">
<ellipse fill="none" stroke="black" cx="405" cy="-306" rx="65.9697" ry="18"/>
<text text-anchor="start" x="365.351" y="-302.8" font-family="Times,serif" text-decoration="underline" font-size="14.00" fill="blue">arith_operator</text>
</a>
</g>
</g>
<!-- node135&#45;&gt;node133 -->
<g id="edge6" class="edge"><title>node135&#45;&gt;node133</title>
<path fill="none" stroke="black" d="M385.804,-288.411C374.857,-278.95 361.007,-266.981 349.194,-256.772"/>
<polygon fill="black" stroke="black" points="351.256,-253.929 341.401,-250.038 346.679,-259.225 351.256,-253.929"/>
</g>
<!-- node136&#45;&gt;end -->
<g id="edge10" class="edge"><title>node136&#45;&gt;end</title>
<path fill="none" stroke="black" d="M226.084,-360.162C211.766,-334.212 187,-282.464 187,-235 187,-235 187,-235 187,-161 187,-103.083 246.739,-59.5619 287.031,-36.7953"/>
<polygon fill="black" stroke="black" points="288.717,-39.8628 295.805,-31.9886 285.353,-33.7237 288.717,-39.8628"/>
</g>
<!-- node136&#45;&gt;node132 -->
<g id="edge9" class="edge"><title>node136&#45;&gt;node132</title>
<path fill="none" stroke="black" d="M236.008,-359.683C236.375,-341.559 237.979,-312.4 244,-288 252.849,-252.141 270.427,-213.206 282.684,-188.483"/>
<polygon fill="black" stroke="black" points="285.872,-189.934 287.251,-179.429 279.622,-186.781 285.872,-189.934"/>
</g>
<!-- node136&#45;&gt;node134 -->
<g id="edge7" class="edge"><title>node136&#45;&gt;node134</title>
<path fill="none" stroke="black" d="M248.086,-360.411C254.465,-351.655 262.41,-340.751 269.455,-331.082"/>
<polygon fill="black" stroke="black" points="272.292,-333.132 275.352,-322.988 266.634,-329.009 272.292,-333.132"/>
</g>
<!-- node136&#45;&gt;node135 -->
<g id="edge8" class="edge"><title>node136&#45;&gt;node135</title>
<path fill="none" stroke="black" d="M265.438,-364.807C291.806,-353.885 330.844,-337.715 360.933,-325.252"/>
<polygon fill="black" stroke="black" points="362.461,-328.408 370.361,-321.348 359.782,-321.941 362.461,-328.408"/>
</g>
<!-- node137&#45;&gt;end -->
<g id="edge14" class="edge"><title>node137&#45;&gt;end</title>
<path fill="none" stroke="black" d="M467.092,-360.922C478.401,-351.6 490.875,-338.787 497,-324 503.123,-309.218 501.53,-303.345 497,-288 467.138,-186.852 386.054,-87.9647 346.009,-43.4801"/>
<polygon fill="black" stroke="black" points="348.58,-41.1051 339.26,-36.067 343.404,-45.8177 348.58,-41.1051"/>
</g>
<!-- node137&#45;&gt;node132 -->
<g id="edge13" class="edge"><title>node137&#45;&gt;node132</title>
<path fill="none" stroke="black" d="M459.563,-360.138C474.42,-341.888 492.793,-312.156 480,-288 448.225,-228.001 373.316,-191.458 329.502,-174.451"/>
<polygon fill="black" stroke="black" points="330.456,-171.07 319.864,-170.83 327.995,-177.623 330.456,-171.07"/>
</g>
<!-- node137&#45;&gt;node134 -->
<g id="edge11" class="edge"><title>node137&#45;&gt;node134</title>
<path fill="none" stroke="black" d="M410.32,-361.983C384.159,-350.319 348.012,-334.203 321.617,-322.434"/>
<polygon fill="black" stroke="black" points="322.929,-319.187 312.371,-318.312 320.079,-325.581 322.929,-319.187"/>
</g>
<!-- node137&#45;&gt;node135 -->
<g id="edge12" class="edge"><title>node137&#45;&gt;node135</title>
<path fill="none" stroke="black" d="M434.559,-360.055C430.075,-352.007 424.614,-342.205 419.612,-333.226"/>
<polygon fill="black" stroke="black" points="422.549,-331.308 414.625,-324.275 416.434,-334.714 422.549,-331.308"/>
</g>
<!-- node138 -->
<g id="node10" class="node"><title>node138</title>
<g id="a_node10"><a xlink:href="reuse_field_chain.svg" xlink:title="&lt;u&gt;field_chain&lt;/u&gt;">
<ellipse fill="none" stroke="black" cx="120" cy="-378" rx="54.4527" ry="18"/>
<text text-anchor="start" x="88.5119" y="-374.8" font-family="Times,serif" text-decoration="underline" font-size="14.00" fill="blue">field_chain</text>
</a>
</g>
</g>
<!-- node138&#45;&gt;end -->
<g id="edge18" class="edge"><title>node138&#45;&gt;end</title>
<path fill="none" stroke="black" d="M119.283,-359.71C118.136,-308.285 121.993,-154.736 203,-72 225.506,-49.0139 259.709,-35.2582 285.849,-27.5448"/>
<polygon fill="black" stroke="black" points="287.088,-30.8333 295.786,-24.785 285.214,-24.0886 287.088,-30.8333"/>
</g>
<!-- node138&#45;&gt;node132 -->
<g id="edge17" class="edge"><title>node138&#45;&gt;node132</title>
<path fill="none" stroke="black" d="M133.458,-360.517C157.296,-331.337 208.526,-268.695 252,-216 260.123,-206.154 269.121,-195.305 276.853,-186.001"/>
<polygon fill="black" stroke="black" points="279.565,-188.214 283.267,-178.287 274.182,-183.738 279.565,-188.214"/>
</g>
<!-- node138&#45;&gt;node134 -->
<g id="edge15" class="edge"><title>node138&#45;&gt;node134</title>
<path fill="none" stroke="black" d="M152.596,-363.337C181.08,-351.398 222.343,-334.102 251.622,-321.829"/>
<polygon fill="black" stroke="black" points="253.187,-324.968 261.057,-317.874 250.481,-318.512 253.187,-324.968"/>
</g>
<!-- node138&#45;&gt;node135 -->
<g id="edge16" class="edge"><title>node138&#45;&gt;node135</title>
<path fill="none" stroke="black" d="M160.932,-365.969C168.589,-363.951 176.532,-361.887 184,-360 239.124,-346.071 302.214,-331.03 346.836,-320.542"/>
<polygon fill="black" stroke="black" points="347.696,-323.936 356.632,-318.243 346.097,-317.121 347.696,-323.936"/>
</g>
<!-- node139 -->
<g id="node11" class="node"><title>node139</title>
<g id="a_node11"><a xlink:href="reuse_arrow_or_dash.svg" xlink:title="&lt;u&gt;arrow_or_dash&lt;/u&gt;">
<ellipse fill="none" stroke="black" cx="138" cy="-450" rx="68.9042" ry="18"/>
<text text-anchor="start" x="96.0189" y="-446.8" font-family="Times,serif" text-decoration="underline" font-size="14.00" fill="blue">arrow_or_dash</text>
</a>
</g>
</g>
<!-- node139&#45;&gt;node138 -->
<g id="edge19" class="edge"><title>node139&#45;&gt;node138</title>
<path fill="none" stroke="black" d="M133.551,-431.697C131.545,-423.898 129.131,-414.509 126.899,-405.829"/>
<polygon fill="black" stroke="black" points="130.278,-404.918 124.398,-396.104 123.499,-406.661 130.278,-404.918"/>
</g>
<!-- node140&#45;&gt;end -->
<g id="edge24" class="edge"><title>node140&#45;&gt;end</title>
<path fill="none" stroke="black" d="M99.5397,-506.305C79.8048,-497.634 57.0671,-484.987 41,-468 11.0737,-436.36 0,-422.551 0,-379 0,-379 0,-379 0,-161 0,-37.3655 200.771,-20.4144 285.736,-18.7763"/>
<polygon fill="black" stroke="black" points="285.787,-22.276 295.74,-18.6446 285.694,-15.2766 285.787,-22.276"/>
</g>
<!-- node140&#45;&gt;node132 -->
<g id="edge23" class="edge"><title>node140&#45;&gt;node132</title>
<path fill="none" stroke="black" d="M103.037,-505.771C86.8592,-497.207 69.5443,-484.805 60,-468 36.2859,-426.246 37.262,-403.774 57,-360 98.9104,-267.052 209.855,-203.718 264.576,-177.12"/>
<polygon fill="black" stroke="black" points="266.274,-180.188 273.797,-172.729 263.264,-173.869 266.274,-180.188"/>
</g>
<!-- node140&#45;&gt;node134 -->
<g id="edge21" class="edge"><title>node140&#45;&gt;node134</title>
<path fill="none" stroke="black" d="M173.534,-505.275C209.885,-485.58 266.462,-447.996 288,-396 296.107,-376.428 295.244,-352.295 292.694,-334.099"/>
<polygon fill="black" stroke="black" points="296.134,-333.447 291.052,-324.15 289.227,-334.587 296.134,-333.447"/>
</g>
<!-- node140&#45;&gt;node135 -->
<g id="edge22" class="edge"><title>node140&#45;&gt;node135</title>
<path fill="none" stroke="black" d="M185.701,-506.705C209.657,-497.786 238.907,-484.791 262,-468 290.158,-447.526 353.037,-371.622 385.21,-331.782"/>
<polygon fill="black" stroke="black" points="388.042,-333.845 391.586,-323.861 382.589,-329.456 388.042,-333.845"/>
</g>
<!-- node140&#45;&gt;node139 -->
<g id="edge20" class="edge"><title>node140&#45;&gt;node139</title>
<path fill="none" stroke="black" d="M140.258,-503.697C139.928,-495.983 139.531,-486.712 139.162,-478.112"/>
<polygon fill="black" stroke="black" points="142.658,-477.945 138.733,-468.104 135.665,-478.245 142.658,-477.945"/>
</g>
<!-- node141&#45;&gt;end -->
<g id="edge28" class="edge"><title>node141&#45;&gt;end</title>
<path fill="none" stroke="black" d="M593.059,-359.684C600.364,-333.11 613,-280.558 613,-235 613,-235 613,-235 613,-161 613,-49.7693 438.788,-25.6576 360.416,-20.4383"/>
<polygon fill="black" stroke="black" points="360.212,-16.92 350.022,-19.8201 359.797,-23.9077 360.212,-16.92"/>
</g>
<!-- node141&#45;&gt;node132 -->
<g id="edge27" class="edge"><title>node141&#45;&gt;node132</title>
<path fill="none" stroke="black" d="M577.541,-360.098C556.638,-327.647 506.558,-256.271 447,-216 411.383,-191.917 363.648,-177.583 331.462,-170.012"/>
<polygon fill="black" stroke="black" points="332.118,-166.572 321.593,-167.788 330.578,-173.401 332.118,-166.572"/>
</g>
<!-- node141&#45;&gt;node134 -->
<g id="edge25" class="edge"><title>node141&#45;&gt;node134</title>
<path fill="none" stroke="black" d="M547.83,-365.83C539.955,-363.782 531.739,-361.743 524,-360 438.449,-340.729 414.279,-348.234 330,-324 327.413,-323.256 324.766,-322.416 322.119,-321.516"/>
<polygon fill="black" stroke="black" points="323.236,-318.198 312.642,-318.071 320.844,-324.777 323.236,-318.198"/>
</g>
<!-- node141&#45;&gt;node135 -->
<g id="edge26" class="edge"><title>node141&#45;&gt;node135</title>
<path fill="none" stroke="black" d="M553.579,-363.834C524.68,-352.779 483.131,-336.886 451.315,-324.716"/>
<polygon fill="black" stroke="black" points="452.369,-321.372 441.778,-321.068 449.868,-327.91 452.369,-321.372"/>
</g>
<!-- node142 -->
<g id="node14" class="node"><title>node142</title>
<ellipse fill="none" stroke="black" cx="687" cy="-378" rx="27" ry="18"/>
<text text-anchor="middle" x="687" y="-373.8" font-family="Times,serif" font-size="14.00">&quot;)&quot;</text>
</g>
<!-- node142&#45;&gt;end -->
<g id="edge32" class="edge"><title>node142&#45;&gt;end</title>
<path fill="none" stroke="black" d="M687.395,-359.952C687.978,-333.294 689,-280.119 689,-235 689,-235 689,-235 689,-161 689,-102.819 644.854,-98.3862 593,-72 516.565,-33.106 414.547,-22.6981 360.421,-19.9507"/>
<polygon fill="black" stroke="black" points="360.402,-16.4465 350.256,-19.4972 360.09,-23.4395 360.402,-16.4465"/>
</g>
<!-- node142&#45;&gt;node132 -->
<g id="edge31" class="edge"><title>node142&#45;&gt;node132</title>
<path fill="none" stroke="black" d="M672.491,-362.222C640.8,-330.759 561.82,-256.714 482,-216 433.198,-191.107 371.048,-176.416 332.389,-169.034"/>
<polygon fill="black" stroke="black" points="332.608,-165.516 322.139,-167.144 331.338,-172.399 332.608,-165.516"/>
</g>
<!-- node142&#45;&gt;node134 -->
<g id="edge29" class="edge"><title>node142&#45;&gt;node134</title>
<path fill="none" stroke="black" d="M666.512,-365.907C661.555,-363.624 656.187,-361.471 651,-360 512.889,-320.819 469.306,-358.694 330,-324 327.225,-323.309 324.39,-322.481 321.564,-321.568"/>
<polygon fill="black" stroke="black" points="322.695,-318.255 312.1,-318.208 320.353,-324.852 322.695,-318.255"/>
</g>
<!-- node142&#45;&gt;node135 -->
<g id="edge30" class="edge"><title>node142&#45;&gt;node135</title>
<path fill="none" stroke="black" d="M666.395,-366.282C661.443,-363.984 656.106,-361.73 651,-360 591.773,-339.932 521.87,-325.736 471.746,-317.119"/>
<polygon fill="black" stroke="black" points="472.122,-313.633 461.678,-315.418 470.955,-320.535 472.122,-313.633"/>
</g>
<!-- node143 -->
<g id="node15" class="node"><title>node143</title>
<g id="a_node15"><a xlink:href="reuse_source.svg" xlink:title="&lt;u&gt;source&lt;/u&gt;">
<ellipse fill="none" stroke="black" cx="651" cy="-450" rx="36.4761" ry="18"/>
<text text-anchor="start" x="632.733" y="-446.8" font-family="Times,serif" text-decoration="underline" font-size="14.00" fill="blue">source</text>
</a>
</g>
</g>
<!-- node143&#45;&gt;node142 -->
<g id="edge33" class="edge"><title>node143&#45;&gt;node142</title>
<path fill="none" stroke="black" d="M659.531,-432.411C663.836,-424.042 669.149,-413.71 673.953,-404.37"/>
<polygon fill="black" stroke="black" points="677.069,-405.964 678.53,-395.47 670.844,-402.762 677.069,-405.964"/>
</g>
<!-- node144&#45;&gt;node143 -->
<g id="edge34" class="edge"><title>node144&#45;&gt;node143</title>
<path fill="none" stroke="black" d="M620.277,-504.765C625.055,-496.404 630.991,-486.016 636.368,-476.606"/>
<polygon fill="black" stroke="black" points="639.573,-478.052 641.495,-467.633 633.495,-474.579 639.573,-478.052"/>
</g>
</g>
</svg>
