<svg xmlns="http://www.w3.org/2000/svg" xmlns:xlink="http://www.w3.org/1999/xlink" class="railroad-diagram" width="676" height="950" viewBox="0 0 676 950">
<defs>
<style type="text/css"><![CDATA[
path {
stroke-width: 3;
stroke: black;
fill: rgba(0,0,0,0);
}
text {
font: bold 14px monospace;
text-anchor: middle;
}
text.diagram-text {
font-size: 12px;
}
a {
fill: blue;
}
text.diagram-arrow {
font-size: 16px;
}
text.label {
text-anchor: start;
}
text.comment {
font: italic 12px monospace;
}
rect {
stroke-width: 3;
stroke: black;
fill: #BCBCBC;
}
path.diagram-text {
stroke-width: 3;
stroke: black;
fill: #BCBCBC;
cursor: help;
}
]]></style>
</defs>
<g transform="translate(.5 .5)">
<path d="M 20 30 v 20 m 0 -10 h 20.5"></path>
<path d="M40 40h10"></path>
<g>
<path d="M50 40h0"></path>
<path d="M626 40h0"></path>
<g>
<path d="M50 40h0"></path>
<path d="M150 40h0"></path>
<path d="M50 40a10 10 0 0 0 10 -10v0a10 10 0 0 1 10 -10"></path>
<g>
<path d="M70 20h60"></path>
</g>
<path d="M130 20a10 10 0 0 1 10 10v0a10 10 0 0 0 10 10"></path>
<path d="M50 40h20"></path>
<g class="terminal">
<path d="M70 40h0"></path>
<path d="M130 40h0"></path>
<rect x="70" y="29" width="60" height="22" rx="10" ry="10"></rect>
<text x="100" y="44">"NOT"</text>
</g>
<path d="M130 40h20"></path>
</g>
<path d="M150 40h10"></path>
<g class="non-terminal">
<path d="M160 40h0"></path>
<path d="M228 40h0"></path>
<rect x="160" y="29" width="68" height="22"></rect>
<a xlink:href="reuse_source.svg"><text x="194" y="44">Source</text>
</a>
</g>
<path d="M228 40h10"></path>
<g>
<path d="M238 40h0"></path>
<path d="M626 40h0"></path>
<path d="M238 40h20"></path>
<g>
<path d="M258 40h0"></path>
<path d="M554 40h52"></path>
<g>
<path d="M258 40h0"></path>
<path d="M466 40h0"></path>
<g>
<path d="M258 40h0"></path>
<path d="M358 40h0"></path>
<path d="M258 40a10 10 0 0 0 10 -10v0a10 10 0 0 1 10 -10"></path>
<g>
<path d="M278 20h60"></path>
</g>
<path d="M338 20a10 10 0 0 1 10 10v0a10 10 0 0 0 10 10"></path>
<path d="M258 40h20"></path>
<g class="terminal">
<path d="M278 40h0"></path>
<path d="M338 40h0"></path>
<rect x="278" y="29" width="60" height="22" rx="10" ry="10"></rect>
<text x="308" y="44">"NOT"</text>
</g>
<path d="M338 40h20"></path>
</g>
<g>
<path d="M358 40h0"></path>
<path d="M466 40h0"></path>
<path d="M358 40h20"></path>
<g class="terminal">
<path d="M378 40h0"></path>
<path d="M422 40h24"></path>
<rect x="378" y="29" width="44" height="22" rx="10" ry="10"></rect>
<text x="400" y="44">"="</text>
</g>
<path d="M446 40h20"></path>
<path d="M358 40a10 10 0 0 1 10 10v10a10 10 0 0 0 10 10"></path>
<g class="terminal">
<path d="M378 70h0"></path>
<path d="M430 70h16"></path>
<rect x="378" y="59" width="52" height="22" rx="10" ry="10"></rect>
<text x="404" y="74">"&#60;>"</text>
</g>
<path d="M446 70a10 10 0 0 0 10 -10v-10a10 10 0 0 1 10 -10"></path>
<path d="M358 40a10 10 0 0 1 10 10v40a10 10 0 0 0 10 10"></path>
<g class="terminal">
<path d="M378 100h0"></path>
<path d="M422 100h24"></path>
<rect x="378" y="89" width="44" height="22" rx="10" ry="10"></rect>
<text x="400" y="104">"&#60;"</text>
</g>
<path d="M446 100a10 10 0 0 0 10 -10v-40a10 10 0 0 1 10 -10"></path>
<path d="M358 40a10 10 0 0 1 10 10v70a10 10 0 0 0 10 10"></path>
<g class="terminal">
<path d="M378 130h0"></path>
<path d="M422 130h24"></path>
<rect x="378" y="119" width="44" height="22" rx="10" ry="10"></rect>
<text x="400" y="134">">"</text>
</g>
<path d="M446 130a10 10 0 0 0 10 -10v-70a10 10 0 0 1 10 -10"></path>
<path d="M358 40a10 10 0 0 1 10 10v100a10 10 0 0 0 10 10"></path>
<g class="terminal">
<path d="M378 160h0"></path>
<path d="M430 160h16"></path>
<rect x="378" y="149" width="52" height="22" rx="10" ry="10"></rect>
<text x="404" y="164">"&#60;="</text>
</g>
<path d="M446 160a10 10 0 0 0 10 -10v-100a10 10 0 0 1 10 -10"></path>
<path d="M358 40a10 10 0 0 1 10 10v130a10 10 0 0 0 10 10"></path>
<g class="terminal">
<path d="M378 190h0"></path>
<path d="M430 190h16"></path>
<rect x="378" y="179" width="52" height="22" rx="10" ry="10"></rect>
<text x="404" y="194">">="</text>
</g>
<path d="M446 190a10 10 0 0 0 10 -10v-130a10 10 0 0 1 10 -10"></path>
<path d="M358 40a10 10 0 0 1 10 10v160a10 10 0 0 0 10 10"></path>
<g class="terminal">
<path d="M378 220h0"></path>
<path d="M430 220h16"></path>
<rect x="378" y="209" width="52" height="22" rx="10" ry="10"></rect>
<text x="404" y="224">"CA"</text>
</g>
<path d="M446 220a10 10 0 0 0 10 -10v-160a10 10 0 0 1 10 -10"></path>
<path d="M358 40a10 10 0 0 1 10 10v190a10 10 0 0 0 10 10"></path>
<g class="terminal">
<path d="M378 250h0"></path>
<path d="M430 250h16"></path>
<rect x="378" y="239" width="52" height="22" rx="10" ry="10"></rect>
<text x="404" y="254">"CO"</text>
</g>
<path d="M446 250a10 10 0 0 0 10 -10v-190a10 10 0 0 1 10 -10"></path>
<path d="M358 40a10 10 0 0 1 10 10v220a10 10 0 0 0 10 10"></path>
<g class="terminal">
<path d="M378 280h0"></path>
<path d="M430 280h16"></path>
<rect x="378" y="269" width="52" height="22" rx="10" ry="10"></rect>
<text x="404" y="284">"IN"</text>
</g>
<path d="M446 280a10 10 0 0 0 10 -10v-220a10 10 0 0 1 10 -10"></path>
<path d="M358 40a10 10 0 0 1 10 10v250a10 10 0 0 0 10 10"></path>
<g class="terminal">
<path d="M378 310h0"></path>
<path d="M430 310h16"></path>
<rect x="378" y="299" width="52" height="22" rx="10" ry="10"></rect>
<text x="404" y="314">"CP"</text>
</g>
<path d="M446 310a10 10 0 0 0 10 -10v-250a10 10 0 0 1 10 -10"></path>
<path d="M358 40a10 10 0 0 1 10 10v280a10 10 0 0 0 10 10"></path>
<g class="terminal">
<path d="M378 340h0"></path>
<path d="M430 340h16"></path>
<rect x="378" y="329" width="52" height="22" rx="10" ry="10"></rect>
<text x="404" y="344">"EQ"</text>
</g>
<path d="M446 340a10 10 0 0 0 10 -10v-280a10 10 0 0 1 10 -10"></path>
<path d="M358 40a10 10 0 0 1 10 10v310a10 10 0 0 0 10 10"></path>
<g class="terminal">
<path d="M378 370h0"></path>
<path d="M430 370h16"></path>
<rect x="378" y="359" width="52" height="22" rx="10" ry="10"></rect>
<text x="404" y="374">"NE"</text>
</g>
<path d="M446 370a10 10 0 0 0 10 -10v-310a10 10 0 0 1 10 -10"></path>
<path d="M358 40a10 10 0 0 1 10 10v340a10 10 0 0 0 10 10"></path>
<g class="terminal">
<path d="M378 400h0"></path>
<path d="M430 400h16"></path>
<rect x="378" y="389" width="52" height="22" rx="10" ry="10"></rect>
<text x="404" y="404">"CN"</text>
</g>
<path d="M446 400a10 10 0 0 0 10 -10v-340a10 10 0 0 1 10 -10"></path>
<path d="M358 40a10 10 0 0 1 10 10v370a10 10 0 0 0 10 10"></path>
<g class="terminal">
<path d="M378 430h0"></path>
<path d="M430 430h16"></path>
<rect x="378" y="419" width="52" height="22" rx="10" ry="10"></rect>
<text x="404" y="434">"GE"</text>
</g>
<path d="M446 430a10 10 0 0 0 10 -10v-370a10 10 0 0 1 10 -10"></path>
<path d="M358 40a10 10 0 0 1 10 10v400a10 10 0 0 0 10 10"></path>
<g class="terminal">
<path d="M378 460h0"></path>
<path d="M430 460h16"></path>
<rect x="378" y="449" width="52" height="22" rx="10" ry="10"></rect>
<text x="404" y="464">"GT"</text>
</g>
<path d="M446 460a10 10 0 0 0 10 -10v-400a10 10 0 0 1 10 -10"></path>
<path d="M358 40a10 10 0 0 1 10 10v430a10 10 0 0 0 10 10"></path>
<g class="terminal">
<path d="M378 490h0"></path>
<path d="M430 490h16"></path>
<rect x="378" y="479" width="52" height="22" rx="10" ry="10"></rect>
<text x="404" y="494">"LT"</text>
</g>
<path d="M446 490a10 10 0 0 0 10 -10v-430a10 10 0 0 1 10 -10"></path>
<path d="M358 40a10 10 0 0 1 10 10v460a10 10 0 0 0 10 10"></path>
<g class="terminal">
<path d="M378 520h0"></path>
<path d="M430 520h16"></path>
<rect x="378" y="509" width="52" height="22" rx="10" ry="10"></rect>
<text x="404" y="524">"LE"</text>
</g>
<path d="M446 520a10 10 0 0 0 10 -10v-460a10 10 0 0 1 10 -10"></path>
<path d="M358 40a10 10 0 0 1 10 10v490a10 10 0 0 0 10 10"></path>
<g class="terminal">
<path d="M378 550h0"></path>
<path d="M430 550h16"></path>
<rect x="378" y="539" width="52" height="22" rx="10" ry="10"></rect>
<text x="404" y="554">"CS"</text>
</g>
<path d="M446 550a10 10 0 0 0 10 -10v-490a10 10 0 0 1 10 -10"></path>
<path d="M358 40a10 10 0 0 1 10 10v520a10 10 0 0 0 10 10"></path>
<g class="terminal">
<path d="M378 580h0"></path>
<path d="M430 580h16"></path>
<rect x="378" y="569" width="52" height="22" rx="10" ry="10"></rect>
<text x="404" y="584">"NS"</text>
</g>
<path d="M446 580a10 10 0 0 0 10 -10v-520a10 10 0 0 1 10 -10"></path>
<path d="M358 40a10 10 0 0 1 10 10v550a10 10 0 0 0 10 10"></path>
<g class="terminal">
<path d="M378 610h0"></path>
<path d="M430 610h16"></path>
<rect x="378" y="599" width="52" height="22" rx="10" ry="10"></rect>
<text x="404" y="614">"NP"</text>
</g>
<path d="M446 610a10 10 0 0 0 10 -10v-550a10 10 0 0 1 10 -10"></path>
<path d="M358 40a10 10 0 0 1 10 10v580a10 10 0 0 0 10 10"></path>
<g class="terminal">
<path d="M378 640h0"></path>
<path d="M422 640h24"></path>
<rect x="378" y="629" width="44" height="22" rx="10" ry="10"></rect>
<text x="400" y="644">"O"</text>
</g>
<path d="M446 640a10 10 0 0 0 10 -10v-580a10 10 0 0 1 10 -10"></path>
<path d="M358 40a10 10 0 0 1 10 10v610a10 10 0 0 0 10 10"></path>
<g class="terminal">
<path d="M378 670h0"></path>
<path d="M422 670h24"></path>
<rect x="378" y="659" width="44" height="22" rx="10" ry="10"></rect>
<text x="400" y="674">"Z"</text>
</g>
<path d="M446 670a10 10 0 0 0 10 -10v-610a10 10 0 0 1 10 -10"></path>
<path d="M358 40a10 10 0 0 1 10 10v640a10 10 0 0 0 10 10"></path>
<g class="terminal">
<path d="M378 700h0"></path>
<path d="M422 700h24"></path>
<rect x="378" y="689" width="44" height="22" rx="10" ry="10"></rect>
<text x="400" y="704">"M"</text>
</g>
<path d="M446 700a10 10 0 0 0 10 -10v-640a10 10 0 0 1 10 -10"></path>
<path d="M358 40a10 10 0 0 1 10 10v670a10 10 0 0 0 10 10"></path>
<g class="terminal">
<path d="M378 730h0"></path>
<path d="M446 730h0"></path>
<rect x="378" y="719" width="68" height="22" rx="10" ry="10"></rect>
<text x="412" y="734">"LIKE"</text>
</g>
<path d="M446 730a10 10 0 0 0 10 -10v-670a10 10 0 0 1 10 -10"></path>
</g>
</g>
<path d="M466 40h10"></path>
<path d="M476 40h10"></path>
<g class="non-terminal">
<path d="M486 40h0"></path>
<path d="M554 40h0"></path>
<rect x="486" y="29" width="68" height="22"></rect>
<a xlink:href="reuse_source.svg"><text x="520" y="44">Source</text>
</a>
</g>
</g>
<path d="M606 40h20"></path>
<path d="M238 40a10 10 0 0 1 10 10v700a10 10 0 0 0 10 10"></path>
<g>
<path d="M258 760h0"></path>
<path d="M606 760h0"></path>
<g class="terminal">
<path d="M258 760h0"></path>
<path d="M350 760h0"></path>
<rect x="258" y="749" width="92" height="22" rx="10" ry="10"></rect>
<text x="304" y="764">"BETWEEN"</text>
</g>
<path d="M350 760h10"></path>
<path d="M360 760h10"></path>
<g class="non-terminal">
<path d="M370 760h0"></path>
<path d="M438 760h0"></path>
<rect x="370" y="749" width="68" height="22"></rect>
<a xlink:href="reuse_source.svg"><text x="404" y="764">Source</text>
</a>
</g>
<path d="M438 760h10"></path>
<path d="M448 760h10"></path>
<g class="terminal">
<path d="M458 760h0"></path>
<path d="M518 760h0"></path>
<rect x="458" y="749" width="60" height="22" rx="10" ry="10"></rect>
<text x="488" y="764">"AND"</text>
</g>
<path d="M518 760h10"></path>
<path d="M528 760h10"></path>
<g class="non-terminal">
<path d="M538 760h0"></path>
<path d="M606 760h0"></path>
<rect x="538" y="749" width="68" height="22"></rect>
<a xlink:href="reuse_source.svg"><text x="572" y="764">Source</text>
</a>
</g>
</g>
<path d="M606 760a10 10 0 0 0 10 -10v-700a10 10 0 0 1 10 -10"></path>
<path d="M238 40a10 10 0 0 1 10 10v739a10 10 0 0 0 10 10"></path>
<g>
<path d="M258 799h0"></path>
<path d="M568 799h38"></path>
<g class="terminal">
<path d="M258 799h0"></path>
<path d="M310 799h0"></path>
<rect x="258" y="788" width="52" height="22" rx="10" ry="10"></rect>
<text x="284" y="803">"IS"</text>
</g>
<path d="M310 799h10"></path>
<g>
<path d="M320 799h0"></path>
<path d="M420 799h0"></path>
<path d="M320 799a10 10 0 0 0 10 -10v0a10 10 0 0 1 10 -10"></path>
<g>
<path d="M340 779h60"></path>
</g>
<path d="M400 779a10 10 0 0 1 10 10v0a10 10 0 0 0 10 10"></path>
<path d="M320 799h20"></path>
<g class="terminal">
<path d="M340 799h0"></path>
<path d="M400 799h0"></path>
<rect x="340" y="788" width="60" height="22" rx="10" ry="10"></rect>
<text x="370" y="803">"NOT"</text>
</g>
<path d="M400 799h20"></path>
</g>
<g>
<path d="M420 799h0"></path>
<path d="M568 799h0"></path>
<path d="M420 799h20"></path>
<g class="terminal">
<path d="M440 799h0"></path>
<path d="M540 799h8"></path>
<rect x="440" y="788" width="100" height="22" rx="10" ry="10"></rect>
<text x="490" y="803">"SUPPLIED"</text>
</g>
<path d="M548 799h20"></path>
<path d="M420 799a10 10 0 0 1 10 10v10a10 10 0 0 0 10 10"></path>
<g class="terminal">
<path d="M440 829h0"></path>
<path d="M516 829h32"></path>
<rect x="440" y="818" width="76" height="22" rx="10" ry="10"></rect>
<text x="478" y="833">"BOUND"</text>
</g>
<path d="M548 829a10 10 0 0 0 10 -10v-10a10 10 0 0 1 10 -10"></path>
<path d="M420 799a10 10 0 0 1 10 10v40a10 10 0 0 0 10 10"></path>
<g class="terminal">
<path d="M440 859h0"></path>
<path d="M548 859h0"></path>
<rect x="440" y="848" width="108" height="22" rx="10" ry="10"></rect>
<text x="494" y="863">"REQUESTED"</text>
</g>
<path d="M548 859a10 10 0 0 0 10 -10v-40a10 10 0 0 1 10 -10"></path>
<path d="M420 799a10 10 0 0 1 10 10v70a10 10 0 0 0 10 10"></path>
<g class="terminal">
<path d="M440 889h0"></path>
<path d="M540 889h8"></path>
<rect x="440" y="878" width="100" height="22" rx="10" ry="10"></rect>
<text x="490" y="893">"ASSIGNED"</text>
</g>
<path d="M548 889a10 10 0 0 0 10 -10v-70a10 10 0 0 1 10 -10"></path>
<path d="M420 799a10 10 0 0 1 10 10v100a10 10 0 0 0 10 10"></path>
<g class="terminal">
<path d="M440 919h0"></path>
<path d="M532 919h16"></path>
<rect x="440" y="908" width="92" height="22" rx="10" ry="10"></rect>
<text x="486" y="923">"INITIAL"</text>
</g>
<path d="M548 919a10 10 0 0 0 10 -10v-100a10 10 0 0 1 10 -10"></path>
</g>
</g>
<path d="M606 799a10 10 0 0 0 10 -10v-739a10 10 0 0 1 10 -10"></path>
</g>
</g>
<path d="M626 40h10"></path>
<path d="M 636 40 h 20 m 0 -10 v 20"></path>
</g>
</svg>
