<?xml version="1.0" encoding="UTF-8" standalone="no"?>
<!DOCTYPE svg PUBLIC "-//W3C//DTD SVG 1.1//EN"
 "http://www.w3.org/Graphics/SVG/1.1/DTD/svg11.dtd">
<!-- Generated by graphviz version 2.38.0 (20140413.2041)
 -->
<!-- Title: field_length Pages: 1 -->
<svg width="175pt" height="476pt"
 viewBox="0.00 0.00 175.39 476.00" xmlns="http://www.w3.org/2000/svg" xmlns:xlink="http://www.w3.org/1999/xlink">
<g id="graph0" class="graph" transform="scale(1 1) rotate(0) translate(4 472)">
<title>field_length</title>
<polygon fill="white" stroke="none" points="-4,4 -4,-472 171.388,-472 171.388,4 -4,4"/>
<!-- start -->
<g id="node1" class="node"><title>start</title>
<polygon fill="none" stroke="blue" points="76.4354,-468 22.4354,-468 22.4354,-432 76.4354,-432 76.4354,-468"/>
<text text-anchor="middle" x="49.4354" y="-445.8" font-family="Times,serif" font-size="14.00">Start</text>
</g>
<!-- node110 -->
<g id="node7" class="node"><title>node110</title>
<ellipse fill="none" stroke="black" cx="49.4354" cy="-378" rx="27" ry="18"/>
<text text-anchor="middle" x="49.4354" y="-373.8" font-family="Times,serif" font-size="14.00">&quot;(&quot;</text>
</g>
<!-- start&#45;&gt;node110 -->
<g id="edge7" class="edge"><title>start&#45;&gt;node110</title>
<path fill="none" stroke="black" d="M49.4354,-431.697C49.4354,-423.983 49.4354,-414.712 49.4354,-406.112"/>
<polygon fill="black" stroke="black" points="52.9355,-406.104 49.4354,-396.104 45.9355,-406.104 52.9355,-406.104"/>
</g>
<!-- end -->
<g id="node2" class="node"><title>end</title>
<polygon fill="none" stroke="blue" points="66.4354,-36 12.4354,-36 12.4354,-0 66.4354,-0 66.4354,-36"/>
<text text-anchor="middle" x="39.4354" y="-13.8" font-family="Times,serif" font-size="14.00">End</text>
</g>
<!-- node106 -->
<g id="node3" class="node"><title>node106</title>
<ellipse fill="none" stroke="black" cx="39.4354" cy="-90" rx="27" ry="18"/>
<text text-anchor="middle" x="39.4354" y="-85.8" font-family="Times,serif" font-size="14.00">&quot;)&quot;</text>
</g>
<!-- node106&#45;&gt;end -->
<g id="edge1" class="edge"><title>node106&#45;&gt;end</title>
<path fill="none" stroke="black" d="M39.4354,-71.6966C39.4354,-63.9827 39.4354,-54.7125 39.4354,-46.1124"/>
<polygon fill="black" stroke="black" points="42.9355,-46.1043 39.4354,-36.1043 35.9355,-46.1044 42.9355,-46.1043"/>
</g>
<!-- node107 -->
<g id="node4" class="node"><title>node107</title>
<g id="a_node4"><a xlink:href="reuse_field.svg" xlink:title="&lt;u&gt;field&lt;/u&gt;">
<ellipse fill="none" stroke="black" cx="78.4354" cy="-162" rx="28.9696" ry="18"/>
<text text-anchor="start" x="65.6072" y="-158.8" font-family="Times,serif" text-decoration="underline" font-size="14.00" fill="blue">field</text>
</a>
</g>
</g>
<!-- node107&#45;&gt;node106 -->
<g id="edge2" class="edge"><title>node107&#45;&gt;node106</title>
<path fill="none" stroke="black" d="M69.39,-144.765C64.6154,-136.195 58.6535,-125.494 53.3085,-115.9"/>
<polygon fill="black" stroke="black" points="56.3563,-114.18 48.4318,-107.147 50.2414,-117.586 56.3563,-114.18"/>
</g>
<!-- node108 -->
<g id="node5" class="node"><title>node108</title>
<g id="a_node5"><a xlink:href="reuse_arrow_or_dash.svg" xlink:title="&lt;u&gt;arrow_or_dash&lt;/u&gt;">
<ellipse fill="none" stroke="black" cx="98.4354" cy="-234" rx="68.9042" ry="18"/>
<text text-anchor="start" x="56.4543" y="-230.8" font-family="Times,serif" text-decoration="underline" font-size="14.00" fill="blue">arrow_or_dash</text>
</a>
</g>
</g>
<!-- node108&#45;&gt;node107 -->
<g id="edge3" class="edge"><title>node108&#45;&gt;node107</title>
<path fill="none" stroke="black" d="M93.4916,-215.697C91.2634,-207.898 88.5807,-198.509 86.1009,-189.829"/>
<polygon fill="black" stroke="black" points="89.435,-188.758 83.3224,-180.104 82.7043,-190.681 89.435,-188.758"/>
</g>
<!-- node109 -->
<g id="node6" class="node"><title>node109</title>
<ellipse fill="none" stroke="black" cx="49.4354" cy="-306" rx="49.3709" ry="18"/>
<text text-anchor="middle" x="49.4354" y="-301.8" font-family="Times,serif" font-size="14.00">^[\d\w]+$</text>
</g>
<!-- node109&#45;&gt;node106 -->
<g id="edge5" class="edge"><title>node109&#45;&gt;node106</title>
<path fill="none" stroke="black" d="M37.4298,-288.255C31.0113,-278.257 23.7613,-265.007 20.4354,-252 8.54452,-205.496 20.9289,-149.501 30.5221,-117.298"/>
<polygon fill="black" stroke="black" points="33.8729,-118.31 33.5044,-107.721 27.1894,-116.228 33.8729,-118.31"/>
</g>
<!-- node109&#45;&gt;node108 -->
<g id="edge4" class="edge"><title>node109&#45;&gt;node108</title>
<path fill="none" stroke="black" d="M61.0477,-288.411C66.9414,-279.992 74.2259,-269.585 80.7949,-260.201"/>
<polygon fill="black" stroke="black" points="83.6987,-262.156 86.5661,-251.956 77.9641,-258.141 83.6987,-262.156"/>
</g>
<!-- node110&#45;&gt;node109 -->
<g id="edge6" class="edge"><title>node110&#45;&gt;node109</title>
<path fill="none" stroke="black" d="M49.4354,-359.697C49.4354,-351.983 49.4354,-342.712 49.4354,-334.112"/>
<polygon fill="black" stroke="black" points="52.9355,-334.104 49.4354,-324.104 45.9355,-334.104 52.9355,-334.104"/>
</g>
</g>
</svg>
