<?xml version="1.0" encoding="UTF-8" standalone="no"?>
<!DOCTYPE svg PUBLIC "-//W3C//DTD SVG 1.1//EN"
 "http://www.w3.org/Graphics/SVG/1.1/DTD/svg11.dtd">
<!-- Generated by graphviz version 2.38.0 (20140413.2041)
 -->
<!-- Title: field_chain Pages: 1 -->
<svg width="416pt" height="404pt"
 viewBox="0.00 0.00 415.65 404.00" xmlns="http://www.w3.org/2000/svg" xmlns:xlink="http://www.w3.org/1999/xlink">
<g id="graph0" class="graph" transform="scale(1 1) rotate(0) translate(4 400)">
<title>field_chain</title>
<polygon fill="white" stroke="none" points="-4,4 -4,-400 411.654,-400 411.654,4 -4,4"/>
<!-- start -->
<g id="node1" class="node"><title>start</title>
<polygon fill="none" stroke="blue" points="310.702,-396 256.702,-396 256.702,-360 310.702,-360 310.702,-396"/>
<text text-anchor="middle" x="283.702" y="-373.8" font-family="Times,serif" font-size="14.00">Start</text>
</g>
<!-- node116 -->
<g id="node8" class="node"><title>node116</title>
<g id="a_node8"><a xlink:href="reuse_field.svg" xlink:title="&lt;u&gt;field&lt;/u&gt;">
<ellipse fill="none" stroke="black" cx="338.702" cy="-306" rx="28.9696" ry="18"/>
<text text-anchor="start" x="325.874" y="-302.8" font-family="Times,serif" text-decoration="underline" font-size="14.00" fill="blue">field</text>
</a>
</g>
</g>
<!-- start&#45;&gt;node116 -->
<g id="edge14" class="edge"><title>start&#45;&gt;node116</title>
<path fill="none" stroke="black" d="M297.297,-359.697C304.186,-350.929 312.655,-340.15 320.135,-330.631"/>
<polygon fill="black" stroke="black" points="322.963,-332.697 326.389,-322.671 317.458,-328.372 322.963,-332.697"/>
</g>
<!-- node117 -->
<g id="node9" class="node"><title>node117</title>
<g id="a_node9"><a xlink:href="reuse_field_symbol.svg" xlink:title="&lt;u&gt;field_symbol&lt;/u&gt;">
<ellipse fill="none" stroke="black" cx="229.702" cy="-306" rx="61.9982" ry="18"/>
<text text-anchor="start" x="192.761" y="-302.8" font-family="Times,serif" text-decoration="underline" font-size="14.00" fill="blue">field_symbol</text>
</a>
</g>
</g>
<!-- start&#45;&gt;node117 -->
<g id="edge15" class="edge"><title>start&#45;&gt;node117</title>
<path fill="none" stroke="black" d="M270.353,-359.697C263.849,-351.265 255.911,-340.975 248.781,-331.732"/>
<polygon fill="black" stroke="black" points="251.404,-329.402 242.525,-323.622 245.862,-333.678 251.404,-329.402"/>
</g>
<!-- end -->
<g id="node2" class="node"><title>end</title>
<polygon fill="none" stroke="blue" points="170.702,-36 116.702,-36 116.702,-0 170.702,-0 170.702,-36"/>
<text text-anchor="middle" x="143.702" y="-13.8" font-family="Times,serif" font-size="14.00">End</text>
</g>
<!-- node111 -->
<g id="node3" class="node"><title>node111</title>
<g id="a_node3"><a xlink:href="reuse_field_length.svg" xlink:title="&lt;u&gt;field_length&lt;/u&gt;">
<ellipse fill="none" stroke="black" cx="57.7018" cy="-90" rx="57.9042" ry="18"/>
<text text-anchor="start" x="23.8757" y="-86.8" font-family="Times,serif" text-decoration="underline" font-size="14.00" fill="blue">field_length</text>
</a>
</g>
</g>
<!-- node111&#45;&gt;end -->
<g id="edge1" class="edge"><title>node111&#45;&gt;end</title>
<path fill="none" stroke="black" d="M77.6481,-72.7646C88.614,-63.8389 102.42,-52.6015 114.571,-42.711"/>
<polygon fill="black" stroke="black" points="117.118,-45.1512 122.664,-36.1239 112.699,-39.7222 117.118,-45.1512"/>
</g>
<!-- node112 -->
<g id="node4" class="node"><title>node112</title>
<g id="a_node4"><a xlink:href="reuse_field_offset.svg" xlink:title="&lt;u&gt;field_offset&lt;/u&gt;">
<ellipse fill="none" stroke="black" cx="119.702" cy="-162" rx="55.5927" ry="18"/>
<text text-anchor="start" x="87.4381" y="-158.8" font-family="Times,serif" text-decoration="underline" font-size="14.00" fill="blue">field_offset</text>
</a>
</g>
</g>
<!-- node112&#45;&gt;end -->
<g id="edge3" class="edge"><title>node112&#45;&gt;end</title>
<path fill="none" stroke="black" d="M122.597,-143.871C126.687,-119.67 134.201,-75.2108 139.072,-46.3932"/>
<polygon fill="black" stroke="black" points="142.581,-46.6327 140.797,-36.1893 135.679,-45.4661 142.581,-46.6327"/>
</g>
<!-- node112&#45;&gt;node111 -->
<g id="edge2" class="edge"><title>node112&#45;&gt;node111</title>
<path fill="none" stroke="black" d="M105.009,-144.411C97.2873,-135.693 87.6791,-124.845 79.1429,-115.208"/>
<polygon fill="black" stroke="black" points="81.5399,-112.635 72.2894,-107.47 76.2997,-117.276 81.5399,-112.635"/>
</g>
<!-- node113 -->
<g id="node5" class="node"><title>node113</title>
<ellipse fill="none" stroke="black" cx="229.702" cy="-234" rx="42.879" ry="18"/>
<text text-anchor="middle" x="229.702" y="-229.8" font-family="Times,serif" font-size="14.00">Dummy</text>
</g>
<!-- node113&#45;&gt;end -->
<g id="edge9" class="edge"><title>node113&#45;&gt;end</title>
<path fill="none" stroke="black" d="M222.953,-216.208C208.044,-179.108 172.203,-89.9226 154.28,-45.3227"/>
<polygon fill="black" stroke="black" points="157.514,-43.984 150.538,-36.0103 151.019,-46.5942 157.514,-43.984"/>
</g>
<!-- node113&#45;&gt;node111 -->
<g id="edge8" class="edge"><title>node113&#45;&gt;node111</title>
<path fill="none" stroke="black" d="M186.711,-233.418C145.381,-231.229 84.8728,-220.662 54.7018,-180 41.5827,-162.319 43.9876,-136.769 48.7048,-117.576"/>
<polygon fill="black" stroke="black" points="52.081,-118.498 51.3956,-107.926 45.3382,-116.618 52.081,-118.498"/>
</g>
<!-- node113&#45;&gt;node112 -->
<g id="edge7" class="edge"><title>node113&#45;&gt;node112</title>
<path fill="none" stroke="black" d="M207.176,-218.666C191.44,-208.651 170.177,-195.121 152.556,-183.907"/>
<polygon fill="black" stroke="black" points="154.037,-180.701 143.722,-178.285 150.279,-186.607 154.037,-180.701"/>
</g>
<!-- node115 -->
<g id="node7" class="node"><title>node115</title>
<g id="a_node7"><a xlink:href="reuse_arrow_or_dash.svg" xlink:title="&lt;u&gt;arrow_or_dash&lt;/u&gt;">
<ellipse fill="none" stroke="black" cx="338.702" cy="-162" rx="68.9042" ry="18"/>
<text text-anchor="start" x="296.721" y="-158.8" font-family="Times,serif" text-decoration="underline" font-size="14.00" fill="blue">arrow_or_dash</text>
</a>
</g>
</g>
<!-- node113&#45;&gt;node115 -->
<g id="edge6" class="edge"><title>node113&#45;&gt;node115</title>
<path fill="none" stroke="black" d="M252.287,-218.496C267.58,-208.675 288.049,-195.529 305.228,-184.497"/>
<polygon fill="black" stroke="black" points="307.343,-187.298 313.866,-178.95 303.56,-181.408 307.343,-187.298"/>
</g>
<!-- node114 -->
<g id="node6" class="node"><title>node114</title>
<g id="a_node6"><a xlink:href="reuse_field.svg" xlink:title="&lt;u&gt;field&lt;/u&gt;">
<ellipse fill="none" stroke="black" cx="299.702" cy="-90" rx="28.9696" ry="18"/>
<text text-anchor="start" x="286.874" y="-86.8" font-family="Times,serif" text-decoration="underline" font-size="14.00" fill="blue">field</text>
</a>
</g>
</g>
<!-- node114&#45;&gt;node113 -->
<g id="edge4" class="edge"><title>node114&#45;&gt;node113</title>
<path fill="none" stroke="black" d="M286.432,-106.41C278.187,-116.569 267.836,-130.456 260.702,-144 250.2,-163.939 242.025,-188.186 236.713,-206.333"/>
<polygon fill="black" stroke="black" points="233.339,-205.402 233.99,-215.977 240.076,-207.304 233.339,-205.402"/>
</g>
<!-- node115&#45;&gt;node114 -->
<g id="edge5" class="edge"><title>node115&#45;&gt;node114</title>
<path fill="none" stroke="black" d="M329.261,-144.055C324.594,-135.679 318.87,-125.404 313.705,-116.134"/>
<polygon fill="black" stroke="black" points="316.712,-114.339 308.787,-107.307 310.597,-117.746 316.712,-114.339"/>
</g>
<!-- node116&#45;&gt;node113 -->
<g id="edge11" class="edge"><title>node116&#45;&gt;node113</title>
<path fill="none" stroke="black" d="M319.215,-292.485C303.039,-282.097 279.726,-267.126 260.947,-255.066"/>
<polygon fill="black" stroke="black" points="262.718,-252.044 252.413,-249.585 258.936,-257.934 262.718,-252.044"/>
</g>
<!-- node116&#45;&gt;node115 -->
<g id="edge10" class="edge"><title>node116&#45;&gt;node115</title>
<path fill="none" stroke="black" d="M338.702,-287.871C338.702,-263.67 338.702,-219.211 338.702,-190.393"/>
<polygon fill="black" stroke="black" points="342.202,-190.189 338.702,-180.189 335.202,-190.189 342.202,-190.189"/>
</g>
<!-- node117&#45;&gt;node113 -->
<g id="edge13" class="edge"><title>node117&#45;&gt;node113</title>
<path fill="none" stroke="black" d="M229.702,-287.697C229.702,-279.983 229.702,-270.712 229.702,-262.112"/>
<polygon fill="black" stroke="black" points="233.202,-262.104 229.702,-252.104 226.202,-262.104 233.202,-262.104"/>
</g>
<!-- node117&#45;&gt;node115 -->
<g id="edge12" class="edge"><title>node117&#45;&gt;node115</title>
<path fill="none" stroke="black" d="M247.503,-288.646C258.013,-278.569 271.259,-265.106 281.702,-252 297.743,-231.866 313.321,-207.07 324.126,-188.769"/>
<polygon fill="black" stroke="black" points="327.165,-190.506 329.173,-180.103 321.116,-186.983 327.165,-190.506"/>
</g>
</g>
</svg>
