<svg xmlns="http://www.w3.org/2000/svg" xmlns:xlink="http://www.w3.org/1999/xlink" class="railroad-diagram" width="334" height="71" viewBox="0 0 334 71">
<defs>
<style type="text/css"><![CDATA[
path {
stroke-width: 3;
stroke: black;
fill: rgba(0,0,0,0);
}
text {
font: bold 14px monospace;
text-anchor: middle;
}
text.diagram-text {
font-size: 12px;
}
a {
fill: blue;
}
text.diagram-arrow {
font-size: 16px;
}
text.label {
text-anchor: start;
}
text.comment {
font: italic 12px monospace;
}
rect {
stroke-width: 3;
stroke: black;
fill: #BCBCBC;
}
path.diagram-text {
stroke-width: 3;
stroke: black;
fill: #BCBCBC;
cursor: help;
}
]]></style>
</defs>
<g transform="translate(.5 .5)">
<path d="M 20 30 v 20 m 0 -10 h 20.5"></path>
<path d="M40 40h10"></path>
<g>
<path d="M50 40h0"></path>
<path d="M284 40h0"></path>
<g>
<path d="M50 40h0"></path>
<path d="M214 40h0"></path>
<path d="M50 40a10 10 0 0 0 10 -10v0a10 10 0 0 1 10 -10"></path>
<g>
<path d="M70 20h124"></path>
</g>
<path d="M194 20a10 10 0 0 1 10 10v0a10 10 0 0 0 10 10"></path>
<path d="M50 40h20"></path>
<g class="terminal">
<path d="M70 40h0"></path>
<path d="M194 40h0"></path>
<rect x="70" y="29" width="124" height="22" rx="10" ry="10"></rect>
<text x="132" y="44">Token "WDash"</text>
</g>
<path d="M194 40h20"></path>
</g>
<path d="M214 40h10"></path>
<g class="terminal">
<path d="M224 40h0"></path>
<path d="M284 40h0"></path>
<rect x="224" y="29" width="60" height="22" rx="10" ry="10"></rect>
<text x="254" y="44">^\d+$</text>
</g>
</g>
<path d="M284 40h10"></path>
<path d="M 294 40 h 20 m 0 -10 v 20"></path>
</g>
</svg>
