<?xml version="1.0" encoding="UTF-8" standalone="no"?>
<!DOCTYPE svg PUBLIC "-//W3C//DTD SVG 1.1//EN"
 "http://www.w3.org/Graphics/SVG/1.1/DTD/svg11.dtd">
<!-- Generated by graphviz version 2.38.0 (20140413.2041)
 -->
<!-- Title: typename Pages: 1 -->
<svg width="256pt" height="332pt"
 viewBox="0.00 0.00 255.95 332.00" xmlns="http://www.w3.org/2000/svg" xmlns:xlink="http://www.w3.org/1999/xlink">
<g id="graph0" class="graph" transform="scale(1 1) rotate(0) translate(4 328)">
<title>typename</title>
<polygon fill="white" stroke="none" points="-4,4 -4,-328 251.952,-328 251.952,4 -4,4"/>
<!-- start -->
<g id="node1" class="node"><title>start</title>
<polygon fill="none" stroke="blue" points="157,-324 103,-324 103,-288 157,-288 157,-324"/>
<text text-anchor="middle" x="130" y="-301.8" font-family="Times,serif" font-size="14.00">Start</text>
</g>
<!-- node5 -->
<g id="node6" class="node"><title>node5</title>
<ellipse fill="none" stroke="black" cx="130" cy="-234" rx="72.0905" ry="18"/>
<text text-anchor="middle" x="130" y="-229.8" font-family="Times,serif" font-size="14.00">^(\/\w+\/)?\w+$</text>
</g>
<!-- start&#45;&gt;node5 -->
<g id="edge7" class="edge"><title>start&#45;&gt;node5</title>
<path fill="none" stroke="black" d="M130,-287.697C130,-279.983 130,-270.712 130,-262.112"/>
<polygon fill="black" stroke="black" points="133.5,-262.104 130,-252.104 126.5,-262.104 133.5,-262.104"/>
</g>
<!-- end -->
<g id="node2" class="node"><title>end</title>
<polygon fill="none" stroke="blue" points="54,-108 0,-108 0,-72 54,-72 54,-108"/>
<text text-anchor="middle" x="27" y="-85.8" font-family="Times,serif" font-size="14.00">End</text>
</g>
<!-- node2 -->
<g id="node3" class="node"><title>node2</title>
<ellipse fill="none" stroke="black" cx="88" cy="-162" rx="42.879" ry="18"/>
<text text-anchor="middle" x="88" y="-157.8" font-family="Times,serif" font-size="14.00">Dummy</text>
</g>
<!-- node2&#45;&gt;end -->
<g id="edge4" class="edge"><title>node2&#45;&gt;end</title>
<path fill="none" stroke="black" d="M73.8521,-144.765C66.373,-136.182 57.0316,-125.462 48.662,-115.858"/>
<polygon fill="black" stroke="black" points="51.1308,-113.364 41.9223,-108.124 45.8534,-117.962 51.1308,-113.364"/>
</g>
<!-- node4 -->
<g id="node5" class="node"><title>node4</title>
<g id="a_node5"><a xlink:href="reuse_arrow_or_dash.svg" xlink:title="&lt;u&gt;arrow_or_dash&lt;/u&gt;">
<ellipse fill="none" stroke="black" cx="179" cy="-90" rx="68.9042" ry="18"/>
<text text-anchor="start" x="137.019" y="-86.8" font-family="Times,serif" text-decoration="underline" font-size="14.00" fill="blue">arrow_or_dash</text>
</a>
</g>
</g>
<!-- node2&#45;&gt;node4 -->
<g id="edge3" class="edge"><title>node2&#45;&gt;node4</title>
<path fill="none" stroke="black" d="M107.746,-145.811C119.953,-136.421 135.848,-124.194 149.528,-113.671"/>
<polygon fill="black" stroke="black" points="151.914,-116.251 157.706,-107.38 147.646,-110.703 151.914,-116.251"/>
</g>
<!-- node3 -->
<g id="node4" class="node"><title>node3</title>
<ellipse fill="none" stroke="black" cx="130" cy="-18" rx="35.4874" ry="18"/>
<text text-anchor="middle" x="130" y="-13.8" font-family="Times,serif" font-size="14.00">^\w+$</text>
</g>
<!-- node3&#45;&gt;node2 -->
<g id="edge1" class="edge"><title>node3&#45;&gt;node2</title>
<path fill="none" stroke="black" d="M118.984,-35.4815C112.737,-45.6039 105.326,-59.0691 101,-72 94.2808,-92.0835 91.0324,-115.866 89.463,-133.792"/>
<polygon fill="black" stroke="black" points="85.9662,-133.619 88.7031,-143.854 92.9464,-134.146 85.9662,-133.619"/>
</g>
<!-- node4&#45;&gt;node3 -->
<g id="edge2" class="edge"><title>node4&#45;&gt;node3</title>
<path fill="none" stroke="black" d="M167.138,-72.055C161.153,-63.5048 153.782,-52.975 147.189,-43.5561"/>
<polygon fill="black" stroke="black" points="150.017,-41.4922 141.415,-35.307 144.282,-45.5065 150.017,-41.4922"/>
</g>
<!-- node5&#45;&gt;node2 -->
<g id="edge6" class="edge"><title>node5&#45;&gt;node2</title>
<path fill="none" stroke="black" d="M119.833,-216.055C114.88,-207.801 108.821,-197.701 103.323,-188.538"/>
<polygon fill="black" stroke="black" points="106.22,-186.563 98.0734,-179.789 100.217,-190.165 106.22,-186.563"/>
</g>
<!-- node5&#45;&gt;node4 -->
<g id="edge5" class="edge"><title>node5&#45;&gt;node4</title>
<path fill="none" stroke="black" d="M135.911,-215.871C144.298,-191.564 159.739,-146.819 169.679,-118.013"/>
<polygon fill="black" stroke="black" points="173.115,-118.784 173.068,-108.189 166.498,-116.501 173.115,-118.784"/>
</g>
</g>
</svg>
