<svg xmlns="http://www.w3.org/2000/svg" xmlns:xlink="http://www.w3.org/1999/xlink" class="railroad-diagram" width="594" height="131" viewBox="0 0 594 131">
<defs>
<style type="text/css"><![CDATA[
path {
stroke-width: 3;
stroke: black;
fill: rgba(0,0,0,0);
}
text {
font: bold 14px monospace;
text-anchor: middle;
}
text.diagram-text {
font-size: 12px;
}
a {
fill: blue;
}
text.diagram-arrow {
font-size: 16px;
}
text.label {
text-anchor: start;
}
text.comment {
font: italic 12px monospace;
}
rect {
stroke-width: 3;
stroke: black;
fill: #BCBCBC;
}
path.diagram-text {
stroke-width: 3;
stroke: black;
fill: #BCBCBC;
cursor: help;
}
]]></style>
</defs>
<g transform="translate(.5 .5)">
<path d="M 20 30 v 20 m 0 -10 h 20.5"></path>
<path d="M40 40h10"></path>
<g>
<path d="M50 40h0"></path>
<path d="M544 40h0"></path>
<g class="non-terminal">
<path d="M50 40h0"></path>
<path d="M110 40h0"></path>
<rect x="50" y="29" width="60" height="22"></rect>
<a xlink:href="reuse_field.svg"><text x="80" y="44">Field</text>
</a>
</g>
<path d="M110 40h10"></path>
<path d="M120 40h10"></path>
<g class="terminal">
<path d="M130 40h0"></path>
<path d="M174 40h0"></path>
<rect x="130" y="29" width="44" height="22" rx="10" ry="10"></rect>
<text x="152" y="44">"="</text>
</g>
<path d="M174 40h10"></path>
<g>
<path d="M184 40h0"></path>
<path d="M324 40h0"></path>
<path d="M184 40h20"></path>
<g class="non-terminal">
<path d="M204 40h0"></path>
<path d="M288 40h16"></path>
<rect x="204" y="29" width="84" height="22"></rect>
<a xlink:href="reuse_constant.svg"><text x="246" y="44">Constant</text>
</a>
</g>
<path d="M304 40h20"></path>
<path d="M184 40a10 10 0 0 1 10 10v10a10 10 0 0 0 10 10"></path>
<g class="non-terminal">
<path d="M204 70h0"></path>
<path d="M288 70h16"></path>
<rect x="204" y="59" width="84" height="22"></rect>
<a xlink:href="reuse_fieldsub.svg"><text x="246" y="74">FieldSub</text>
</a>
</g>
<path d="M304 70a10 10 0 0 0 10 -10v-10a10 10 0 0 1 10 -10"></path>
<path d="M184 40a10 10 0 0 1 10 10v40a10 10 0 0 0 10 10"></path>
<g class="non-terminal">
<path d="M204 100h0"></path>
<path d="M304 100h0"></path>
<rect x="204" y="89" width="100" height="22"></rect>
<a xlink:href="reuse_fieldchain.svg"><text x="254" y="104">FieldChain</text>
</a>
</g>
<path d="M304 100a10 10 0 0 0 10 -10v-40a10 10 0 0 1 10 -10"></path>
</g>
<g>
<path d="M324 40h0"></path>
<path d="M544 40h0"></path>
<path d="M324 40a10 10 0 0 0 10 -10v0a10 10 0 0 1 10 -10"></path>
<g>
<path d="M344 20h180"></path>
</g>
<path d="M524 20a10 10 0 0 1 10 10v0a10 10 0 0 0 10 10"></path>
<path d="M324 40h20"></path>
<g>
<path d="M344 40h0"></path>
<path d="M524 40h0"></path>
<g class="terminal">
<path d="M344 40h0"></path>
<path d="M436 40h0"></path>
<rect x="344" y="29" width="92" height="22" rx="10" ry="10"></rect>
<text x="390" y="44">"MESSAGE"</text>
</g>
<path d="M436 40h10"></path>
<path d="M446 40h10"></path>
<g class="non-terminal">
<path d="M456 40h0"></path>
<path d="M524 40h0"></path>
<rect x="456" y="29" width="68" height="22"></rect>
<a xlink:href="reuse_target.svg"><text x="490" y="44">Target</text>
</a>
</g>
</g>
<path d="M524 40h20"></path>
</g>
</g>
<path d="M544 40h10"></path>
<path d="M 554 40 h 20 m 0 -10 v 20"></path>
</g>
</svg>
