<svg xmlns="http://www.w3.org/2000/svg" xmlns:xlink="http://www.w3.org/1999/xlink" class="railroad-diagram" width="262" height="92" viewBox="0 0 262 92">
<defs>
<style type="text/css"><![CDATA[
path {
stroke-width: 3;
stroke: black;
fill: rgba(0,0,0,0);
}
text {
font: bold 14px monospace;
text-anchor: middle;
}
text.diagram-text {
font-size: 12px;
}
a {
fill: blue;
}
text.diagram-arrow {
font-size: 16px;
}
text.label {
text-anchor: start;
}
text.comment {
font: italic 12px monospace;
}
rect {
stroke-width: 3;
stroke: black;
fill: #BCBCBC;
}
path.diagram-text {
stroke-width: 3;
stroke: black;
fill: #BCBCBC;
cursor: help;
}
]]></style>
</defs>
<g transform="translate(.5 .5)">
<path d="M 20 21 v 20 m 0 -10 h 20.5"></path>
<path d="M40 31h10"></path>
<g>
<path d="M50 31h0"></path>
<path d="M212 31h0"></path>
<g class="terminal">
<path d="M50 31h0"></path>
<path d="M102 31h0"></path>
<rect x="50" y="20" width="52" height="22" rx="10" ry="10"></rect>
<text x="76" y="35">!"&#91;"</text>
</g>
<path d="M102 31h10"></path>
<g>
<path d="M112 31h0"></path>
<path d="M212 31h0"></path>
<path d="M112 31h20"></path>
<g class="terminal">
<path d="M132 31h0"></path>
<path d="M184 31h8"></path>
<rect x="132" y="20" width="52" height="22" rx="10" ry="10"></rect>
<text x="158" y="35">!"&#93;"</text>
</g>
<path d="M192 31h20"></path>
<path d="M112 31a10 10 0 0 1 10 10v10a10 10 0 0 0 10 10"></path>
<g class="terminal">
<path d="M132 61h0"></path>
<path d="M192 61h0"></path>
<rect x="132" y="50" width="60" height="22" rx="10" ry="10"></rect>
<text x="162" y="65">!"&#93; "</text>
</g>
<path d="M192 61a10 10 0 0 0 10 -10v-10a10 10 0 0 1 10 -10"></path>
</g>
</g>
<path d="M212 31h10"></path>
<path d="M 222 31 h 20 m 0 -10 v 20"></path>
</g>
</svg>
