<svg xmlns="http://www.w3.org/2000/svg" xmlns:xlink="http://www.w3.org/1999/xlink" class="railroad-diagram" width="514" height="80" viewBox="0 0 514 80">
<defs>
<style type="text/css"><![CDATA[
path {
stroke-width: 3;
stroke: black;
fill: rgba(0,0,0,0);
}
text {
font: bold 14px monospace;
text-anchor: middle;
}
text.diagram-text {
font-size: 12px;
}
a {
fill: blue;
}
text.diagram-arrow {
font-size: 16px;
}
text.label {
text-anchor: start;
}
text.comment {
font: italic 12px monospace;
}
rect {
stroke-width: 3;
stroke: black;
fill: #BCBCBC;
}
path.diagram-text {
stroke-width: 3;
stroke: black;
fill: #BCBCBC;
cursor: help;
}
]]></style>
</defs>
<g transform="translate(.5 .5)">
<path d="M 20 30 v 20 m 0 -10 h 20.5"></path>
<path d="M40 40h10"></path>
<g>
<path d="M50 40h0"></path>
<path d="M464 40h0"></path>
<g class="terminal">
<path d="M50 40h0"></path>
<path d="M190 40h0"></path>
<rect x="50" y="29" width="140" height="22" rx="10" ry="10"></rect>
<text x="120" y="44">^(\/\w+\/)?\w+$</text>
</g>
<path d="M190 40h10"></path>
<g>
<path d="M200 40h0"></path>
<path d="M464 40h0"></path>
<path d="M200 40a10 10 0 0 0 10 -10v0a10 10 0 0 1 10 -10"></path>
<g>
<path d="M220 20h224"></path>
</g>
<path d="M444 20a10 10 0 0 1 10 10v0a10 10 0 0 0 10 10"></path>
<path d="M200 40h20"></path>
<g>
<path d="M220 40h0"></path>
<path d="M444 40h0"></path>
<path d="M220 40h10"></path>
<g>
<path d="M230 40h0"></path>
<path d="M434 40h0"></path>
<g class="non-terminal">
<path d="M230 40h0"></path>
<path d="M354 40h0"></path>
<rect x="230" y="29" width="124" height="22"></rect>
<a xlink:href="reuse_arrow_or_dash.svg"><text x="292" y="44">arrow&#95;or&#95;dash</text>
</a>
</g>
<path d="M354 40h10"></path>
<path d="M364 40h10"></path>
<g class="terminal">
<path d="M374 40h0"></path>
<path d="M434 40h0"></path>
<rect x="374" y="29" width="60" height="22" rx="10" ry="10"></rect>
<text x="404" y="44">^\w+$</text>
</g>
</g>
<path d="M434 40h10"></path>
<path d="M230 40a10 10 0 0 0 -10 10v0a10 10 0 0 0 10 10"></path>
<g>
<path d="M230 60h204"></path>
</g>
<path d="M434 60a10 10 0 0 0 10 -10v0a10 10 0 0 0 -10 -10"></path>
</g>
<path d="M444 40h20"></path>
</g>
</g>
<path d="M464 40h10"></path>
<path d="M 474 40 h 20 m 0 -10 v 20"></path>
</g>
</svg>
