<svg xmlns="http://www.w3.org/2000/svg" xmlns:xlink="http://www.w3.org/1999/xlink" class="railroad-diagram" width="1364" height="110" viewBox="0 0 1364 110">
<defs>
<style type="text/css"><![CDATA[
path {
stroke-width: 3;
stroke: black;
fill: rgba(0,0,0,0);
}
text {
font: bold 14px monospace;
text-anchor: middle;
}
text.diagram-text {
font-size: 12px;
}
a {
fill: blue;
}
text.diagram-arrow {
font-size: 16px;
}
text.label {
text-anchor: start;
}
text.comment {
font: italic 12px monospace;
}
rect {
stroke-width: 3;
stroke: black;
fill: #BCBCBC;
}
path.diagram-text {
stroke-width: 3;
stroke: black;
fill: #BCBCBC;
cursor: help;
}
]]></style>
</defs>
<g transform="translate(.5 .5)">
<path d="M 20 30 v 20 m 0 -10 h 20.5"></path>
<path d="M40 40h10"></path>
<g>
<path d="M50 40h0"></path>
<path d="M1314 40h0"></path>
<g>
<path d="M50 40h0"></path>
<path d="M992 40h0"></path>
<g>
<path d="M50 40h0"></path>
<path d="M206 40h0"></path>
<path d="M50 40h20"></path>
<g class="non-terminal">
<path d="M70 40h0"></path>
<path d="M130 40h56"></path>
<rect x="70" y="29" width="60" height="22"></rect>
<a xlink:href="reuse_field.svg"><text x="100" y="44">field</text>
</a>
</g>
<path d="M186 40h20"></path>
<path d="M50 40a10 10 0 0 1 10 10v10a10 10 0 0 0 10 10"></path>
<g class="non-terminal">
<path d="M70 70h0"></path>
<path d="M186 70h0"></path>
<rect x="70" y="59" width="116" height="22"></rect>
<a xlink:href="reuse_field_symbol.svg"><text x="128" y="74">field&#95;symbol</text>
</a>
</g>
<path d="M186 70a10 10 0 0 0 10 -10v-10a10 10 0 0 1 10 -10"></path>
</g>
<g>
<path d="M206 40h0"></path>
<path d="M728 40h0"></path>
<path d="M206 40a10 10 0 0 0 10 -10v0a10 10 0 0 1 10 -10"></path>
<g>
<path d="M226 20h482"></path>
</g>
<path d="M708 20a10 10 0 0 1 10 10v0a10 10 0 0 0 10 10"></path>
<path d="M206 40h20"></path>
<g>
<path d="M226 40h0"></path>
<path d="M708 40h0"></path>
<g>
<path d="M226 40h0"></path>
<path d="M292 40h0"></path>
<text x="259" y="45" class="comment">v740sp02</text>
</g>
<path d="M292 40h10"></path>
<path d="M302 40h10"></path>
<g>
<path d="M312 40h0"></path>
<path d="M708 40h0"></path>
<g class="terminal">
<path d="M312 40h0"></path>
<path d="M372 40h0"></path>
<rect x="312" y="29" width="60" height="22" rx="10" ry="10"></rect>
<text x="342" y="44">!"&#91; "</text>
</g>
<path d="M372 40h10"></path>
<g>
<path d="M382 40h0"></path>
<path d="M654 40h0"></path>
<path d="M382 40h20"></path>
<g class="non-terminal">
<path d="M402 40h0"></path>
<path d="M486 40h148"></path>
<rect x="402" y="29" width="84" height="22"></rect>
<a xlink:href="reuse_constant.svg"><text x="444" y="44">constant</text>
</a>
</g>
<path d="M634 40h20"></path>
<path d="M382 40a10 10 0 0 1 10 10v10a10 10 0 0 0 10 10"></path>
<g>
<path d="M402 70h0"></path>
<path d="M634 70h0"></path>
<path d="M402 70h10"></path>
<g>
<path d="M412 70h0"></path>
<path d="M624 70h0"></path>
<g class="non-terminal">
<path d="M412 70h0"></path>
<path d="M472 70h0"></path>
<rect x="412" y="59" width="60" height="22"></rect>
<a xlink:href="reuse_field.svg"><text x="442" y="74">field</text>
</a>
</g>
<path d="M472 70h10"></path>
<path d="M482 70h10"></path>
<g class="terminal">
<path d="M492 70h0"></path>
<path d="M536 70h0"></path>
<rect x="492" y="59" width="44" height="22" rx="10" ry="10"></rect>
<text x="514" y="74">"="</text>
</g>
<path d="M536 70h10"></path>
<path d="M546 70h10"></path>
<g class="non-terminal">
<path d="M556 70h0"></path>
<path d="M624 70h0"></path>
<rect x="556" y="59" width="68" height="22"></rect>
<a xlink:href="reuse_source.svg"><text x="590" y="74">source</text>
</a>
</g>
</g>
<path d="M624 70h10"></path>
<path d="M412 70a10 10 0 0 0 -10 10v0a10 10 0 0 0 10 10"></path>
<g>
<path d="M412 90h212"></path>
</g>
<path d="M624 90a10 10 0 0 0 10 -10v0a10 10 0 0 0 -10 -10"></path>
</g>
<path d="M634 70a10 10 0 0 0 10 -10v-10a10 10 0 0 1 10 -10"></path>
</g>
<path d="M654 40h10"></path>
<g class="terminal">
<path d="M664 40h0"></path>
<path d="M708 40h0"></path>
<rect x="664" y="29" width="44" height="22" rx="10" ry="10"></rect>
<text x="686" y="44">"&#93;"</text>
</g>
</g>
</g>
<path d="M708 40h20"></path>
</g>
<g>
<path d="M728 40h0"></path>
<path d="M992 40h0"></path>
<path d="M728 40a10 10 0 0 0 10 -10v0a10 10 0 0 1 10 -10"></path>
<g>
<path d="M748 20h224"></path>
</g>
<path d="M972 20a10 10 0 0 1 10 10v0a10 10 0 0 0 10 10"></path>
<path d="M728 40h20"></path>
<g>
<path d="M748 40h0"></path>
<path d="M972 40h0"></path>
<path d="M748 40h10"></path>
<g>
<path d="M758 40h0"></path>
<path d="M962 40h0"></path>
<g class="non-terminal">
<path d="M758 40h0"></path>
<path d="M882 40h0"></path>
<rect x="758" y="29" width="124" height="22"></rect>
<a xlink:href="reuse_arrow_or_dash.svg"><text x="820" y="44">arrow&#95;or&#95;dash</text>
</a>
</g>
<path d="M882 40h10"></path>
<path d="M892 40h10"></path>
<g class="non-terminal">
<path d="M902 40h0"></path>
<path d="M962 40h0"></path>
<rect x="902" y="29" width="60" height="22"></rect>
<a xlink:href="reuse_field.svg"><text x="932" y="44">field</text>
</a>
</g>
</g>
<path d="M962 40h10"></path>
<path d="M758 40a10 10 0 0 0 -10 10v0a10 10 0 0 0 10 10"></path>
<g>
<path d="M758 60h204"></path>
</g>
<path d="M962 60a10 10 0 0 0 10 -10v0a10 10 0 0 0 -10 -10"></path>
</g>
<path d="M972 40h20"></path>
</g>
</g>
<path d="M992 40h10"></path>
<g>
<path d="M1002 40h0"></path>
<path d="M1158 40h0"></path>
<path d="M1002 40a10 10 0 0 0 10 -10v0a10 10 0 0 1 10 -10"></path>
<g>
<path d="M1022 20h116"></path>
</g>
<path d="M1138 20a10 10 0 0 1 10 10v0a10 10 0 0 0 10 10"></path>
<path d="M1002 40h20"></path>
<g class="non-terminal">
<path d="M1022 40h0"></path>
<path d="M1138 40h0"></path>
<rect x="1022" y="29" width="116" height="22"></rect>
<a xlink:href="reuse_field_offset.svg"><text x="1080" y="44">field&#95;offset</text>
</a>
</g>
<path d="M1138 40h20"></path>
</g>
<g>
<path d="M1158 40h0"></path>
<path d="M1314 40h0"></path>
<path d="M1158 40a10 10 0 0 0 10 -10v0a10 10 0 0 1 10 -10"></path>
<g>
<path d="M1178 20h116"></path>
</g>
<path d="M1294 20a10 10 0 0 1 10 10v0a10 10 0 0 0 10 10"></path>
<path d="M1158 40h20"></path>
<g class="non-terminal">
<path d="M1178 40h0"></path>
<path d="M1294 40h0"></path>
<rect x="1178" y="29" width="116" height="22"></rect>
<a xlink:href="reuse_field_length.svg"><text x="1236" y="44">field&#95;length</text>
</a>
</g>
<path d="M1294 40h20"></path>
</g>
</g>
<path d="M1314 40h10"></path>
<path d="M 1324 40 h 20 m 0 -10 v 20"></path>
</g>
</svg>
