<svg xmlns="http://www.w3.org/2000/svg" xmlns:xlink="http://www.w3.org/1999/xlink" class="railroad-diagram" width="538" height="101" viewBox="0 0 538 101">
<defs>
<style type="text/css"><![CDATA[
path {
stroke-width: 3;
stroke: black;
fill: rgba(0,0,0,0);
}
text {
font: bold 14px monospace;
text-anchor: middle;
}
text.diagram-text {
font-size: 12px;
}
a {
fill: blue;
}
text.diagram-arrow {
font-size: 16px;
}
text.label {
text-anchor: start;
}
text.comment {
font: italic 12px monospace;
}
rect {
stroke-width: 3;
stroke: black;
fill: #BCBCBC;
}
path.diagram-text {
stroke-width: 3;
stroke: black;
fill: #BCBCBC;
cursor: help;
}
]]></style>
</defs>
<g transform="translate(.5 .5)">
<path d="M 20 30 v 20 m 0 -10 h 20.5"></path>
<path d="M40 40h10"></path>
<g>
<path d="M50 40h0"></path>
<path d="M488 40h0"></path>
<g class="terminal">
<path d="M50 40h0"></path>
<path d="M102 40h0"></path>
<rect x="50" y="29" width="52" height="22" rx="10" ry="10"></rect>
<text x="76" y="44">!"+"</text>
</g>
<path d="M102 40h10"></path>
<g>
<path d="M112 40h0"></path>
<path d="M260 40h0"></path>
<path d="M112 40h20"></path>
<g class="terminal">
<path d="M132 40h0"></path>
<path d="M224 40h16"></path>
<rect x="132" y="29" width="92" height="22" rx="10" ry="10"></rect>
<text x="178" y="44">^&#91;\d\w&#93;+$</text>
</g>
<path d="M240 40h20"></path>
<path d="M112 40a10 10 0 0 1 10 10v10a10 10 0 0 0 10 10"></path>
<g class="non-terminal">
<path d="M132 70h0"></path>
<path d="M240 70h0"></path>
<rect x="132" y="59" width="108" height="22"></rect>
<a xlink:href="reuse_fieldsymbol.svg"><text x="186" y="74">FieldSymbol</text>
</a>
</g>
<path d="M240 70a10 10 0 0 0 10 -10v-10a10 10 0 0 1 10 -10"></path>
</g>
<g>
<path d="M260 40h0"></path>
<path d="M488 40h0"></path>
<path d="M260 40a10 10 0 0 0 10 -10v0a10 10 0 0 1 10 -10"></path>
<g>
<path d="M280 20h188"></path>
</g>
<path d="M468 20a10 10 0 0 1 10 10v0a10 10 0 0 0 10 10"></path>
<path d="M260 40h20"></path>
<g>
<path d="M280 40h0"></path>
<path d="M468 40h0"></path>
<g class="non-terminal">
<path d="M280 40h0"></path>
<path d="M388 40h0"></path>
<rect x="280" y="29" width="108" height="22"></rect>
<a xlink:href="reuse_arrowordash.svg"><text x="334" y="44">ArrowOrDash</text>
</a>
</g>
<path d="M388 40h10"></path>
<path d="M398 40h10"></path>
<g class="non-terminal">
<path d="M408 40h0"></path>
<path d="M468 40h0"></path>
<rect x="408" y="29" width="60" height="22"></rect>
<a xlink:href="reuse_field.svg"><text x="438" y="44">Field</text>
</a>
</g>
</g>
<path d="M468 40h20"></path>
</g>
</g>
<path d="M488 40h10"></path>
<path d="M 498 40 h 20 m 0 -10 v 20"></path>
</g>
</svg>
