<svg xmlns="http://www.w3.org/2000/svg" xmlns:xlink="http://www.w3.org/1999/xlink" class="railroad-diagram" width="564" height="71" viewBox="0 0 564 71">
<defs>
<style type="text/css"><![CDATA[
path {
stroke-width: 3;
stroke: black;
fill: rgba(0,0,0,0);
}
text {
font: bold 14px monospace;
text-anchor: middle;
}
text.diagram-text {
font-size: 12px;
}
a {
fill: blue;
}
text.diagram-arrow {
font-size: 16px;
}
text.label {
text-anchor: start;
}
text.comment {
font: italic 12px monospace;
}
rect {
stroke-width: 3;
stroke: black;
fill: #BCBCBC;
}
path.diagram-text {
stroke-width: 3;
stroke: black;
fill: #BCBCBC;
cursor: help;
}
]]></style>
</defs>
<g transform="translate(.5 .5)">
<path d="M 20 30 v 20 m 0 -10 h 20.5"></path>
<path d="M40 40h10"></path>
<g>
<path d="M50 40h0"></path>
<path d="M514 40h0"></path>
<g class="terminal">
<path d="M50 40h0"></path>
<path d="M94 40h0"></path>
<rect x="50" y="29" width="44" height="22" rx="10" ry="10"></rect>
<text x="72" y="44">"("</text>
</g>
<path d="M94 40h10"></path>
<path d="M104 40h10"></path>
<g class="terminal">
<path d="M114 40h0"></path>
<path d="M206 40h0"></path>
<rect x="114" y="29" width="92" height="22" rx="10" ry="10"></rect>
<text x="160" y="44">^&#91;\d\w&#93;+$</text>
</g>
<path d="M206 40h10"></path>
<g>
<path d="M216 40h0"></path>
<path d="M460 40h0"></path>
<path d="M216 40a10 10 0 0 0 10 -10v0a10 10 0 0 1 10 -10"></path>
<g>
<path d="M236 20h204"></path>
</g>
<path d="M440 20a10 10 0 0 1 10 10v0a10 10 0 0 0 10 10"></path>
<path d="M216 40h20"></path>
<g>
<path d="M236 40h0"></path>
<path d="M440 40h0"></path>
<g class="non-terminal">
<path d="M236 40h0"></path>
<path d="M360 40h0"></path>
<rect x="236" y="29" width="124" height="22"></rect>
<a xlink:href="reuse_arrow_or_dash.svg"><text x="298" y="44">arrow&#95;or&#95;dash</text>
</a>
</g>
<path d="M360 40h10"></path>
<path d="M370 40h10"></path>
<g class="non-terminal">
<path d="M380 40h0"></path>
<path d="M440 40h0"></path>
<rect x="380" y="29" width="60" height="22"></rect>
<a xlink:href="reuse_field.svg"><text x="410" y="44">field</text>
</a>
</g>
</g>
<path d="M440 40h20"></path>
</g>
<path d="M460 40h10"></path>
<g class="terminal">
<path d="M470 40h0"></path>
<path d="M514 40h0"></path>
<rect x="470" y="29" width="44" height="22" rx="10" ry="10"></rect>
<text x="492" y="44">")"</text>
</g>
</g>
<path d="M514 40h10"></path>
<path d="M 524 40 h 20 m 0 -10 v 20"></path>
</g>
</svg>
