<?xml version="1.0" encoding="UTF-8" standalone="no"?>
<!DOCTYPE svg PUBLIC "-//W3C//DTD SVG 1.1//EN"
 "http://www.w3.org/Graphics/SVG/1.1/DTD/svg11.dtd">
<!-- Generated by graphviz version 2.38.0 (20140413.2041)
 -->
<!-- Title: method_name Pages: 1 -->
<svg width="141pt" height="188pt"
 viewBox="0.00 0.00 141.07 188.00" xmlns="http://www.w3.org/2000/svg" xmlns:xlink="http://www.w3.org/1999/xlink">
<g id="graph0" class="graph" transform="scale(1 1) rotate(0) translate(4 184)">
<title>method_name</title>
<polygon fill="white" stroke="none" points="-4,4 -4,-184 137.068,-184 137.068,4 -4,4"/>
<!-- start -->
<g id="node1" class="node"><title>start</title>
<polygon fill="none" stroke="blue" points="93.534,-180 39.534,-180 39.534,-144 93.534,-144 93.534,-180"/>
<text text-anchor="middle" x="66.534" y="-157.8" font-family="Times,serif" font-size="14.00">Start</text>
</g>
<!-- node118 -->
<g id="node3" class="node"><title>node118</title>
<ellipse fill="none" stroke="black" cx="66.534" cy="-90" rx="66.568" ry="18"/>
<text text-anchor="middle" x="66.534" y="-85.8" font-family="Times,serif" font-size="14.00">^\w+(~\w+)?$</text>
</g>
<!-- start&#45;&gt;node118 -->
<g id="edge2" class="edge"><title>start&#45;&gt;node118</title>
<path fill="none" stroke="black" d="M66.534,-143.697C66.534,-135.983 66.534,-126.712 66.534,-118.112"/>
<polygon fill="black" stroke="black" points="70.0341,-118.104 66.534,-108.104 63.0341,-118.104 70.0341,-118.104"/>
</g>
<!-- end -->
<g id="node2" class="node"><title>end</title>
<polygon fill="none" stroke="blue" points="93.534,-36 39.534,-36 39.534,-0 93.534,-0 93.534,-36"/>
<text text-anchor="middle" x="66.534" y="-13.8" font-family="Times,serif" font-size="14.00">End</text>
</g>
<!-- node118&#45;&gt;end -->
<g id="edge1" class="edge"><title>node118&#45;&gt;end</title>
<path fill="none" stroke="black" d="M66.534,-71.6966C66.534,-63.9827 66.534,-54.7125 66.534,-46.1124"/>
<polygon fill="black" stroke="black" points="70.0341,-46.1043 66.534,-36.1043 63.0341,-46.1044 70.0341,-46.1043"/>
</g>
</g>
</svg>
