<svg xmlns="http://www.w3.org/2000/svg" xmlns:xlink="http://www.w3.org/1999/xlink" class="railroad-diagram" width="1020" height="509" viewBox="0 0 1020 509">
<defs>
<style type="text/css"><![CDATA[
path {
stroke-width: 3;
stroke: black;
fill: rgba(0,0,0,0);
}
text {
font: bold 14px monospace;
text-anchor: middle;
}
text.diagram-text {
font-size: 12px;
}
a {
fill: blue;
}
text.diagram-arrow {
font-size: 16px;
}
text.label {
text-anchor: start;
}
text.comment {
font: italic 12px monospace;
}
rect {
stroke-width: 3;
stroke: black;
fill: #BCBCBC;
}
path.diagram-text {
stroke-width: 3;
stroke: black;
fill: #BCBCBC;
cursor: help;
}
]]></style>
</defs>
<g transform="translate(.5 .5)">
<path d="M 20 30 v 20 m 0 -10 h 20.5"></path>
<g>
<path d="M40 40h0"></path>
<path d="M980 40h0"></path>
<path d="M40 40h20"></path>
<g>
<path d="M60 40h20"></path>
<path d="M940 40h20"></path>
<g>
<path d="M80 40h0"></path>
<path d="M610 40h0"></path>
<path d="M80 40h20"></path>
<g class="non-terminal">
<path d="M100 40h203"></path>
<path d="M387 40h203"></path>
<rect x="303" y="29" width="84" height="22"></rect>
<a xlink:href="reuse_constant.svg"><text x="345" y="44">constant</text>
</a>
</g>
<path d="M590 40h20"></path>
<path d="M80 40a10 10 0 0 1 10 10v10a10 10 0 0 0 10 10"></path>
<g class="non-terminal">
<path d="M100 70h175"></path>
<path d="M415 70h175"></path>
<rect x="275" y="59" width="140" height="22"></rect>
<a xlink:href="reuse_string_template.svg"><text x="345" y="74">string&#95;template</text>
</a>
</g>
<path d="M590 70a10 10 0 0 0 10 -10v-10a10 10 0 0 1 10 -10"></path>
<path d="M80 40a10 10 0 0 1 10 10v40a10 10 0 0 0 10 10"></path>
<g>
<path d="M100 100h47"></path>
<path d="M543 100h47"></path>
<g class="terminal">
<path d="M147 100h0"></path>
<path d="M223 100h0"></path>
<rect x="147" y="89" width="76" height="22" rx="10" ry="10"></rect>
<text x="185" y="104">"BOOLC"</text>
</g>
<path d="M223 100h10"></path>
<path d="M233 100h10"></path>
<g class="terminal">
<path d="M243 100h0"></path>
<path d="M407 100h0"></path>
<rect x="243" y="89" width="164" height="22" rx="10" ry="10"></rect>
<text x="325" y="104">Token "ParenLeftW"</text>
</g>
<path d="M407 100h10"></path>
<path d="M417 100h10"></path>
<g class="non-terminal">
<path d="M427 100h0"></path>
<path d="M479 100h0"></path>
<rect x="427" y="89" width="52" height="22"></rect>
<a xlink:href="reuse_cond.svg"><text x="453" y="104">cond</text>
</a>
</g>
<path d="M479 100h10"></path>
<path d="M489 100h10"></path>
<g class="terminal">
<path d="M499 100h0"></path>
<path d="M543 100h0"></path>
<rect x="499" y="89" width="44" height="22" rx="10" ry="10"></rect>
<text x="521" y="104">")"</text>
</g>
</g>
<path d="M590 100a10 10 0 0 0 10 -10v-40a10 10 0 0 1 10 -10"></path>
<path d="M80 40a10 10 0 0 1 10 10v79a10 10 0 0 0 10 10"></path>
<g>
<path d="M100 139h16"></path>
<path d="M574 139h16"></path>
<g class="non-terminal">
<path d="M116 139h0"></path>
<path d="M272 139h0"></path>
<rect x="116" y="128" width="156" height="22"></rect>
<a xlink:href="reuse_method_call_chain.svg"><text x="194" y="143">method&#95;call&#95;chain</text>
</a>
</g>
<path d="M272 139h10"></path>
<g>
<path d="M282 139h0"></path>
<path d="M574 139h0"></path>
<path d="M282 139a10 10 0 0 0 10 -10v0a10 10 0 0 1 10 -10"></path>
<g>
<path d="M302 119h252"></path>
</g>
<path d="M554 119a10 10 0 0 1 10 10v0a10 10 0 0 0 10 10"></path>
<path d="M282 139h20"></path>
<g>
<path d="M302 139h0"></path>
<path d="M554 139h0"></path>
<g class="non-terminal">
<path d="M302 139h0"></path>
<path d="M426 139h0"></path>
<rect x="302" y="128" width="124" height="22"></rect>
<a xlink:href="reuse_arrow_or_dash.svg"><text x="364" y="143">arrow&#95;or&#95;dash</text>
</a>
</g>
<path d="M426 139h10"></path>
<path d="M436 139h10"></path>
<g class="non-terminal">
<path d="M446 139h0"></path>
<path d="M554 139h0"></path>
<rect x="446" y="128" width="108" height="22"></rect>
<a xlink:href="reuse_field_chain.svg"><text x="500" y="143">field&#95;chain</text>
</a>
</g>
</g>
<path d="M554 139h20"></path>
</g>
</g>
<path d="M590 139a10 10 0 0 0 10 -10v-79a10 10 0 0 1 10 -10"></path>
<path d="M80 40a10 10 0 0 1 10 10v109a10 10 0 0 0 10 10"></path>
<g class="non-terminal">
<path d="M100 169h191"></path>
<path d="M399 169h191"></path>
<rect x="291" y="158" width="108" height="22"></rect>
<a xlink:href="reuse_field_chain.svg"><text x="345" y="173">field&#95;chain</text>
</a>
</g>
<path d="M590 169a10 10 0 0 0 10 -10v-109a10 10 0 0 1 10 -10"></path>
<path d="M80 40a10 10 0 0 1 10 10v139a10 10 0 0 0 10 10"></path>
<g>
<path d="M100 199h0"></path>
<path d="M590 199h0"></path>
<g class="terminal">
<path d="M100 199h0"></path>
<path d="M272 199h0"></path>
<rect x="100" y="188" width="172" height="22" rx="10" ry="10"></rect>
<text x="186" y="203">Token "WParenLeftW"</text>
</g>
<path d="M272 199h10"></path>
<path d="M282 199h10"></path>
<g class="non-terminal">
<path d="M292 199h0"></path>
<path d="M360 199h0"></path>
<rect x="292" y="188" width="68" height="22"></rect>
<a xlink:href="reuse_source.svg"><text x="326" y="203">source</text>
</a>
</g>
<path d="M360 199h10"></path>
<g>
<path d="M370 199h0"></path>
<path d="M590 199h0"></path>
<path d="M370 199h20"></path>
<g class="terminal">
<path d="M390 199h0"></path>
<path d="M570 199h0"></path>
<rect x="390" y="188" width="180" height="22" rx="10" ry="10"></rect>
<text x="480" y="203">Token "WParenRightW"</text>
</g>
<path d="M570 199h20"></path>
<path d="M370 199a10 10 0 0 1 10 10v10a10 10 0 0 0 10 10"></path>
<g class="terminal">
<path d="M390 229h4"></path>
<path d="M566 229h4"></path>
<rect x="394" y="218" width="172" height="22" rx="10" ry="10"></rect>
<text x="480" y="233">Token "WParenRight"</text>
</g>
<path d="M570 229a10 10 0 0 0 10 -10v-10a10 10 0 0 1 10 -10"></path>
</g>
</g>
<path d="M590 199a10 10 0 0 0 10 -10v-139a10 10 0 0 1 10 -10"></path>
</g>
<g>
<path d="M610 40h0"></path>
<path d="M940 40h0"></path>
<path d="M610 40a10 10 0 0 0 10 -10v0a10 10 0 0 1 10 -10"></path>
<g>
<path d="M630 20h290"></path>
</g>
<path d="M920 20a10 10 0 0 1 10 10v0a10 10 0 0 0 10 10"></path>
<path d="M610 40h20"></path>
<g>
<path d="M630 40h0"></path>
<path d="M920 40h0"></path>
<path d="M630 40h20"></path>
<g>
<path d="M650 40h63"></path>
<path d="M837 40h63"></path>
<g class="non-terminal">
<path d="M713 40h0"></path>
<path d="M773 40h0"></path>
<rect x="713" y="29" width="60" height="22"></rect>
<a xlink:href="reuse_arrow.svg"><text x="743" y="44">arrow</text>
</a>
</g>
<path d="M773 40h10"></path>
<path d="M783 40h10"></path>
<g class="terminal">
<path d="M793 40h0"></path>
<path d="M837 40h0"></path>
<rect x="793" y="29" width="44" height="22" rx="10" ry="10"></rect>
<text x="815" y="44">"&#42;"</text>
</g>
</g>
<path d="M900 40h20"></path>
<path d="M630 40a10 10 0 0 1 10 10v10a10 10 0 0 0 10 10"></path>
<g>
<path d="M650 70h0"></path>
<path d="M900 70h0"></path>
<g>
<path d="M650 70h0"></path>
<path d="M822 70h0"></path>
<path d="M650 70h20"></path>
<g class="terminal">
<path d="M670 70h44"></path>
<path d="M758 70h44"></path>
<rect x="714" y="59" width="44" height="22" rx="10" ry="10"></rect>
<text x="736" y="74">"&#38;"</text>
</g>
<path d="M802 70h20"></path>
<path d="M650 70a10 10 0 0 1 10 10v10a10 10 0 0 0 10 10"></path>
<g class="terminal">
<path d="M670 100h40"></path>
<path d="M762 100h40"></path>
<rect x="710" y="89" width="52" height="22" rx="10" ry="10"></rect>
<text x="736" y="104">"&#38;&#38;"</text>
</g>
<path d="M802 100a10 10 0 0 0 10 -10v-10a10 10 0 0 1 10 -10"></path>
<path d="M650 70a10 10 0 0 1 10 10v40a10 10 0 0 0 10 10"></path>
<g class="non-terminal">
<path d="M670 130h0"></path>
<path d="M802 130h0"></path>
<rect x="670" y="119" width="132" height="22"></rect>
<a xlink:href="reuse_arith_operator.svg"><text x="736" y="134">arith&#95;operator</text>
</a>
</g>
<path d="M802 130a10 10 0 0 0 10 -10v-40a10 10 0 0 1 10 -10"></path>
</g>
<path d="M822 70h10"></path>
<g class="non-terminal">
<path d="M832 70h0"></path>
<path d="M900 70h0"></path>
<rect x="832" y="59" width="68" height="22"></rect>
<a xlink:href="reuse_source.svg"><text x="866" y="74">source</text>
</a>
</g>
</g>
<path d="M900 70a10 10 0 0 0 10 -10v-10a10 10 0 0 1 10 -10"></path>
<path d="M630 40a10 10 0 0 1 10 10v100a10 10 0 0 0 10 10"></path>
<g class="non-terminal">
<path d="M650 160h75"></path>
<path d="M825 160h75"></path>
<rect x="725" y="149" width="100" height="22"></rect>
<a xlink:href="reuse_table_body.svg"><text x="775" y="164">table&#95;body</text>
</a>
</g>
<path d="M900 160a10 10 0 0 0 10 -10v-100a10 10 0 0 1 10 -10"></path>
</g>
<path d="M920 40h20"></path>
</g>
</g>
<path d="M960 40h20"></path>
<path d="M40 40a10 10 0 0 1 10 10v199a10 10 0 0 0 10 10"></path>
<g>
<path d="M60 259h66"></path>
<path d="M894 259h66"></path>
<g>
<path d="M126 259h0"></path>
<path d="M192 259h0"></path>
<text x="159" y="264" class="comment">v740sp02</text>
</g>
<path d="M192 259h10"></path>
<path d="M202 259h10"></path>
<g>
<path d="M212 259h0"></path>
<path d="M894 259h0"></path>
<g class="terminal">
<path d="M212 259h0"></path>
<path d="M280 259h0"></path>
<rect x="212" y="248" width="68" height="22" rx="10" ry="10"></rect>
<text x="246" y="263">"CAST"</text>
</g>
<path d="M280 259h10"></path>
<path d="M290 259h10"></path>
<g class="non-terminal">
<path d="M300 259h0"></path>
<path d="M392 259h0"></path>
<rect x="300" y="248" width="92" height="22"></rect>
<a xlink:href="reuse_type_name.svg"><text x="346" y="263">type&#95;name</text>
</a>
</g>
<path d="M392 259h10"></path>
<path d="M402 259h10"></path>
<g class="terminal">
<path d="M412 259h0"></path>
<path d="M576 259h0"></path>
<rect x="412" y="248" width="164" height="22" rx="10" ry="10"></rect>
<text x="494" y="263">Token "ParenLeftW"</text>
</g>
<path d="M576 259h10"></path>
<path d="M586 259h10"></path>
<g class="non-terminal">
<path d="M596 259h0"></path>
<path d="M664 259h0"></path>
<rect x="596" y="248" width="68" height="22"></rect>
<a xlink:href="reuse_source.svg"><text x="630" y="263">source</text>
</a>
</g>
<path d="M664 259h10"></path>
<g>
<path d="M674 259h0"></path>
<path d="M894 259h0"></path>
<path d="M674 259h20"></path>
<g class="terminal">
<path d="M694 259h0"></path>
<path d="M874 259h0"></path>
<rect x="694" y="248" width="180" height="22" rx="10" ry="10"></rect>
<text x="784" y="263">Token "WParenRightW"</text>
</g>
<path d="M874 259h20"></path>
<path d="M674 259a10 10 0 0 1 10 10v10a10 10 0 0 0 10 10"></path>
<g class="terminal">
<path d="M694 289h4"></path>
<path d="M870 289h4"></path>
<rect x="698" y="278" width="172" height="22" rx="10" ry="10"></rect>
<text x="784" y="293">Token "WParenRight"</text>
</g>
<path d="M874 289a10 10 0 0 0 10 -10v-10a10 10 0 0 1 10 -10"></path>
</g>
</g>
</g>
<path d="M960 259a10 10 0 0 0 10 -10v-199a10 10 0 0 1 10 -10"></path>
<path d="M40 40a10 10 0 0 1 10 10v268a10 10 0 0 0 10 10"></path>
<g>
<path d="M60 328h0"></path>
<path d="M960 328h0"></path>
<g>
<path d="M60 328h0"></path>
<path d="M126 328h0"></path>
<text x="93" y="333" class="comment">v740sp02</text>
</g>
<path d="M126 328h10"></path>
<path d="M136 328h10"></path>
<g>
<path d="M146 328h0"></path>
<path d="M960 328h0"></path>
<g class="terminal">
<path d="M146 328h0"></path>
<path d="M206 328h0"></path>
<rect x="146" y="317" width="60" height="22" rx="10" ry="10"></rect>
<text x="176" y="332">"NEW"</text>
</g>
<path d="M206 328h10"></path>
<path d="M216 328h10"></path>
<g class="non-terminal">
<path d="M226 328h0"></path>
<path d="M318 328h0"></path>
<rect x="226" y="317" width="92" height="22"></rect>
<a xlink:href="reuse_type_name.svg"><text x="272" y="332">type&#95;name</text>
</a>
</g>
<path d="M318 328h10"></path>
<path d="M328 328h10"></path>
<g class="terminal">
<path d="M338 328h0"></path>
<path d="M502 328h0"></path>
<rect x="338" y="317" width="164" height="22" rx="10" ry="10"></rect>
<text x="420" y="332">Token "ParenLeftW"</text>
</g>
<path d="M502 328h10"></path>
<g>
<path d="M512 328h0"></path>
<path d="M740 328h0"></path>
<path d="M512 328a10 10 0 0 0 10 -10v0a10 10 0 0 1 10 -10"></path>
<g>
<path d="M532 308h188"></path>
</g>
<path d="M720 308a10 10 0 0 1 10 10v0a10 10 0 0 0 10 10"></path>
<path d="M512 328h20"></path>
<g>
<path d="M532 328h0"></path>
<path d="M720 328h0"></path>
<path d="M532 328h20"></path>
<g class="non-terminal">
<path d="M552 328h40"></path>
<path d="M660 328h40"></path>
<rect x="592" y="317" width="68" height="22"></rect>
<a xlink:href="reuse_source.svg"><text x="626" y="332">source</text>
</a>
</g>
<path d="M700 328h20"></path>
<path d="M532 328a10 10 0 0 1 10 10v10a10 10 0 0 0 10 10"></path>
<g class="non-terminal">
<path d="M552 358h0"></path>
<path d="M700 358h0"></path>
<rect x="552" y="347" width="148" height="22"></rect>
<a xlink:href="reuse_parameter_list_s.svg"><text x="626" y="362">parameter&#95;list&#95;s</text>
</a>
</g>
<path d="M700 358a10 10 0 0 0 10 -10v-10a10 10 0 0 1 10 -10"></path>
</g>
<path d="M720 328h20"></path>
</g>
<g>
<path d="M740 328h0"></path>
<path d="M960 328h0"></path>
<path d="M740 328h20"></path>
<g class="terminal">
<path d="M760 328h0"></path>
<path d="M940 328h0"></path>
<rect x="760" y="317" width="180" height="22" rx="10" ry="10"></rect>
<text x="850" y="332">Token "WParenRightW"</text>
</g>
<path d="M940 328h20"></path>
<path d="M740 328a10 10 0 0 1 10 10v10a10 10 0 0 0 10 10"></path>
<g class="terminal">
<path d="M760 358h4"></path>
<path d="M936 358h4"></path>
<rect x="764" y="347" width="172" height="22" rx="10" ry="10"></rect>
<text x="850" y="362">Token "WParenRight"</text>
</g>
<path d="M940 358a10 10 0 0 0 10 -10v-10a10 10 0 0 1 10 -10"></path>
</g>
</g>
</g>
<path d="M960 328a10 10 0 0 0 10 -10v-268a10 10 0 0 1 10 -10"></path>
<path d="M40 40a10 10 0 0 1 10 10v328a10 10 0 0 0 10 10"></path>
<g>
<path d="M60 388h30"></path>
<path d="M930 388h30"></path>
<g>
<path d="M90 388h0"></path>
<path d="M156 388h0"></path>
<text x="123" y="393" class="comment">v740sp05</text>
</g>
<path d="M156 388h10"></path>
<path d="M166 388h10"></path>
<g>
<path d="M176 388h0"></path>
<path d="M930 388h0"></path>
<g class="terminal">
<path d="M176 388h0"></path>
<path d="M316 388h0"></path>
<rect x="176" y="377" width="140" height="22" rx="10" ry="10"></rect>
<text x="246" y="392">"CORRESPONDING"</text>
</g>
<path d="M316 388h10"></path>
<path d="M326 388h10"></path>
<g class="non-terminal">
<path d="M336 388h0"></path>
<path d="M428 388h0"></path>
<rect x="336" y="377" width="92" height="22"></rect>
<a xlink:href="reuse_type_name.svg"><text x="382" y="392">type&#95;name</text>
</a>
</g>
<path d="M428 388h10"></path>
<path d="M438 388h10"></path>
<g class="terminal">
<path d="M448 388h0"></path>
<path d="M612 388h0"></path>
<rect x="448" y="377" width="164" height="22" rx="10" ry="10"></rect>
<text x="530" y="392">Token "ParenLeftW"</text>
</g>
<path d="M612 388h10"></path>
<path d="M622 388h10"></path>
<g class="non-terminal">
<path d="M632 388h0"></path>
<path d="M700 388h0"></path>
<rect x="632" y="377" width="68" height="22"></rect>
<a xlink:href="reuse_source.svg"><text x="666" y="392">source</text>
</a>
</g>
<path d="M700 388h10"></path>
<g>
<path d="M710 388h0"></path>
<path d="M930 388h0"></path>
<path d="M710 388h20"></path>
<g class="terminal">
<path d="M730 388h0"></path>
<path d="M910 388h0"></path>
<rect x="730" y="377" width="180" height="22" rx="10" ry="10"></rect>
<text x="820" y="392">Token "WParenRightW"</text>
</g>
<path d="M910 388h20"></path>
<path d="M710 388a10 10 0 0 1 10 10v10a10 10 0 0 0 10 10"></path>
<g class="terminal">
<path d="M730 418h4"></path>
<path d="M906 418h4"></path>
<rect x="734" y="407" width="172" height="22" rx="10" ry="10"></rect>
<text x="820" y="422">Token "WParenRight"</text>
</g>
<path d="M910 418a10 10 0 0 0 10 -10v-10a10 10 0 0 1 10 -10"></path>
</g>
</g>
</g>
<path d="M960 388a10 10 0 0 0 10 -10v-328a10 10 0 0 1 10 -10"></path>
<path d="M40 40a10 10 0 0 1 10 10v388a10 10 0 0 0 10 10"></path>
<g>
<path d="M60 448h66"></path>
<path d="M894 448h66"></path>
<g>
<path d="M126 448h0"></path>
<path d="M192 448h0"></path>
<text x="159" y="453" class="comment">v740sp02</text>
</g>
<path d="M192 448h10"></path>
<path d="M202 448h10"></path>
<g>
<path d="M212 448h0"></path>
<path d="M894 448h0"></path>
<g class="terminal">
<path d="M212 448h0"></path>
<path d="M280 448h0"></path>
<rect x="212" y="437" width="68" height="22" rx="10" ry="10"></rect>
<text x="246" y="452">"CONV"</text>
</g>
<path d="M280 448h10"></path>
<path d="M290 448h10"></path>
<g class="non-terminal">
<path d="M300 448h0"></path>
<path d="M392 448h0"></path>
<rect x="300" y="437" width="92" height="22"></rect>
<a xlink:href="reuse_type_name.svg"><text x="346" y="452">type&#95;name</text>
</a>
</g>
<path d="M392 448h10"></path>
<path d="M402 448h10"></path>
<g class="terminal">
<path d="M412 448h0"></path>
<path d="M576 448h0"></path>
<rect x="412" y="437" width="164" height="22" rx="10" ry="10"></rect>
<text x="494" y="452">Token "ParenLeftW"</text>
</g>
<path d="M576 448h10"></path>
<path d="M586 448h10"></path>
<g class="non-terminal">
<path d="M596 448h0"></path>
<path d="M664 448h0"></path>
<rect x="596" y="437" width="68" height="22"></rect>
<a xlink:href="reuse_source.svg"><text x="630" y="452">source</text>
</a>
</g>
<path d="M664 448h10"></path>
<g>
<path d="M674 448h0"></path>
<path d="M894 448h0"></path>
<path d="M674 448h20"></path>
<g class="terminal">
<path d="M694 448h0"></path>
<path d="M874 448h0"></path>
<rect x="694" y="437" width="180" height="22" rx="10" ry="10"></rect>
<text x="784" y="452">Token "WParenRightW"</text>
</g>
<path d="M874 448h20"></path>
<path d="M674 448a10 10 0 0 1 10 10v10a10 10 0 0 0 10 10"></path>
<g class="terminal">
<path d="M694 478h4"></path>
<path d="M870 478h4"></path>
<rect x="698" y="467" width="172" height="22" rx="10" ry="10"></rect>
<text x="784" y="482">Token "WParenRight"</text>
</g>
<path d="M874 478a10 10 0 0 0 10 -10v-10a10 10 0 0 1 10 -10"></path>
</g>
</g>
</g>
<path d="M960 448a10 10 0 0 0 10 -10v-388a10 10 0 0 1 10 -10"></path>
</g>
<path d="M 980 40 h 20 m 0 -10 v 20"></path>
</g>
</svg>
