<svg xmlns="http://www.w3.org/2000/svg" xmlns:xlink="http://www.w3.org/1999/xlink" class="railroad-diagram" width="1126" height="200" viewBox="0 0 1126 200">
<defs>
<style type="text/css"><![CDATA[
path {
stroke-width: 3;
stroke: black;
fill: rgba(0,0,0,0);
}
text {
font: bold 14px monospace;
text-anchor: middle;
}
text.diagram-text {
font-size: 12px;
}
a {
fill: blue;
}
text.diagram-arrow {
font-size: 16px;
}
text.label {
text-anchor: start;
}
text.comment {
font: italic 12px monospace;
}
rect {
stroke-width: 3;
stroke: black;
fill: #BCBCBC;
}
path.diagram-text {
stroke-width: 3;
stroke: black;
fill: #BCBCBC;
cursor: help;
}
]]></style>
</defs>
<g transform="translate(.5 .5)">
<path d="M 20 30 v 20 m 0 -10 h 20.5"></path>
<path d="M40 40h10"></path>
<g>
<path d="M50 40h0"></path>
<path d="M1076 40h0"></path>
<g>
<path d="M50 40h0"></path>
<path d="M918 40h0"></path>
<g>
<path d="M50 40h0"></path>
<path d="M588 40h0"></path>
<path d="M50 40h20"></path>
<g class="non-terminal">
<path d="M70 40h207"></path>
<path d="M361 40h207"></path>
<rect x="277" y="29" width="84" height="22"></rect>
<a xlink:href="reuse_constant.svg"><text x="319" y="44">constant</text>
</a>
</g>
<path d="M568 40h20"></path>
<path d="M50 40a10 10 0 0 1 10 10v10a10 10 0 0 0 10 10"></path>
<g class="non-terminal">
<path d="M70 70h179"></path>
<path d="M389 70h179"></path>
<rect x="249" y="59" width="140" height="22"></rect>
<a xlink:href="reuse_string_template.svg"><text x="319" y="74">string&#95;template</text>
</a>
</g>
<path d="M568 70a10 10 0 0 0 10 -10v-10a10 10 0 0 1 10 -10"></path>
<path d="M50 40a10 10 0 0 1 10 10v49a10 10 0 0 0 10 10"></path>
<g>
<path d="M70 109h0"></path>
<path d="M568 109h0"></path>
<path d="M70 109h20"></path>
<g>
<path d="M90 109h0"></path>
<path d="M548 109h0"></path>
<g class="non-terminal">
<path d="M90 109h0"></path>
<path d="M246 109h0"></path>
<rect x="90" y="98" width="156" height="22"></rect>
<a xlink:href="reuse_method_call_chain.svg"><text x="168" y="113">method&#95;call&#95;chain</text>
</a>
</g>
<path d="M246 109h10"></path>
<g>
<path d="M256 109h0"></path>
<path d="M548 109h0"></path>
<path d="M256 109a10 10 0 0 0 10 -10v0a10 10 0 0 1 10 -10"></path>
<g>
<path d="M276 89h252"></path>
</g>
<path d="M528 89a10 10 0 0 1 10 10v0a10 10 0 0 0 10 10"></path>
<path d="M256 109h20"></path>
<g>
<path d="M276 109h0"></path>
<path d="M528 109h0"></path>
<g class="non-terminal">
<path d="M276 109h0"></path>
<path d="M400 109h0"></path>
<rect x="276" y="98" width="124" height="22"></rect>
<a xlink:href="reuse_arrow_or_dash.svg"><text x="338" y="113">arrow&#95;or&#95;dash</text>
</a>
</g>
<path d="M400 109h10"></path>
<path d="M410 109h10"></path>
<g class="non-terminal">
<path d="M420 109h0"></path>
<path d="M528 109h0"></path>
<rect x="420" y="98" width="108" height="22"></rect>
<a xlink:href="reuse_field_chain.svg"><text x="474" y="113">field&#95;chain</text>
</a>
</g>
</g>
<path d="M528 109h20"></path>
</g>
</g>
<path d="M548 109h20"></path>
<path d="M70 109a10 10 0 0 1 10 10v10a10 10 0 0 0 10 10"></path>
<g class="non-terminal">
<path d="M90 139h175"></path>
<path d="M373 139h175"></path>
<rect x="265" y="128" width="108" height="22"></rect>
<a xlink:href="reuse_field_chain.svg"><text x="319" y="143">field&#95;chain</text>
</a>
</g>
<path d="M548 139a10 10 0 0 0 10 -10v-10a10 10 0 0 1 10 -10"></path>
</g>
<path d="M568 109a10 10 0 0 0 10 -10v-49a10 10 0 0 1 10 -10"></path>
<path d="M50 40a10 10 0 0 1 10 10v109a10 10 0 0 0 10 10"></path>
<g>
<path d="M70 169h151"></path>
<path d="M417 169h151"></path>
<g class="terminal">
<path d="M221 169h0"></path>
<path d="M265 169h0"></path>
<rect x="221" y="158" width="44" height="22" rx="10" ry="10"></rect>
<text x="243" y="173">"("</text>
</g>
<path d="M265 169h10"></path>
<path d="M275 169h10"></path>
<g class="non-terminal">
<path d="M285 169h0"></path>
<path d="M353 169h0"></path>
<rect x="285" y="158" width="68" height="22"></rect>
<a xlink:href="reuse_source.svg"><text x="319" y="173">source</text>
</a>
</g>
<path d="M353 169h10"></path>
<path d="M363 169h10"></path>
<g class="terminal">
<path d="M373 169h0"></path>
<path d="M417 169h0"></path>
<rect x="373" y="158" width="44" height="22" rx="10" ry="10"></rect>
<text x="395" y="173">")"</text>
</g>
</g>
<path d="M568 169a10 10 0 0 0 10 -10v-109a10 10 0 0 1 10 -10"></path>
</g>
<g>
<path d="M588 40h0"></path>
<path d="M918 40h0"></path>
<path d="M588 40a10 10 0 0 0 10 -10v0a10 10 0 0 1 10 -10"></path>
<g>
<path d="M608 20h290"></path>
</g>
<path d="M898 20a10 10 0 0 1 10 10v0a10 10 0 0 0 10 10"></path>
<path d="M588 40h20"></path>
<g>
<path d="M608 40h0"></path>
<path d="M898 40h0"></path>
<path d="M608 40h20"></path>
<g>
<path d="M628 40h63"></path>
<path d="M815 40h63"></path>
<g class="non-terminal">
<path d="M691 40h0"></path>
<path d="M751 40h0"></path>
<rect x="691" y="29" width="60" height="22"></rect>
<a xlink:href="reuse_arrow.svg"><text x="721" y="44">arrow</text>
</a>
</g>
<path d="M751 40h10"></path>
<path d="M761 40h10"></path>
<g class="terminal">
<path d="M771 40h0"></path>
<path d="M815 40h0"></path>
<rect x="771" y="29" width="44" height="22" rx="10" ry="10"></rect>
<text x="793" y="44">"&#42;"</text>
</g>
</g>
<path d="M878 40h20"></path>
<path d="M608 40a10 10 0 0 1 10 10v10a10 10 0 0 0 10 10"></path>
<g>
<path d="M628 70h0"></path>
<path d="M878 70h0"></path>
<g>
<path d="M628 70h0"></path>
<path d="M800 70h0"></path>
<path d="M628 70h20"></path>
<g class="terminal">
<path d="M648 70h40"></path>
<path d="M740 70h40"></path>
<rect x="688" y="59" width="52" height="22" rx="10" ry="10"></rect>
<text x="714" y="74">"&#38;&#38;"</text>
</g>
<path d="M780 70h20"></path>
<path d="M628 70a10 10 0 0 1 10 10v10a10 10 0 0 0 10 10"></path>
<g class="non-terminal">
<path d="M648 100h0"></path>
<path d="M780 100h0"></path>
<rect x="648" y="89" width="132" height="22"></rect>
<a xlink:href="reuse_arith_operator.svg"><text x="714" y="104">arith&#95;operator</text>
</a>
</g>
<path d="M780 100a10 10 0 0 0 10 -10v-10a10 10 0 0 1 10 -10"></path>
</g>
<path d="M800 70h10"></path>
<g class="non-terminal">
<path d="M810 70h0"></path>
<path d="M878 70h0"></path>
<rect x="810" y="59" width="68" height="22"></rect>
<a xlink:href="reuse_source.svg"><text x="844" y="74">source</text>
</a>
</g>
</g>
<path d="M878 70a10 10 0 0 0 10 -10v-10a10 10 0 0 1 10 -10"></path>
</g>
<path d="M898 40h20"></path>
</g>
</g>
<path d="M918 40h10"></path>
<g>
<path d="M928 40h0"></path>
<path d="M1076 40h0"></path>
<path d="M928 40a10 10 0 0 0 10 -10v0a10 10 0 0 1 10 -10"></path>
<g>
<path d="M948 20h108"></path>
</g>
<path d="M1056 20a10 10 0 0 1 10 10v0a10 10 0 0 0 10 10"></path>
<path d="M928 40h20"></path>
<g>
<path d="M948 40h0"></path>
<path d="M1056 40h0"></path>
<g class="terminal">
<path d="M948 40h0"></path>
<path d="M992 40h0"></path>
<rect x="948" y="29" width="44" height="22" rx="10" ry="10"></rect>
<text x="970" y="44">"&#91;"</text>
</g>
<path d="M992 40h10"></path>
<path d="M1002 40h10"></path>
<g class="terminal">
<path d="M1012 40h0"></path>
<path d="M1056 40h0"></path>
<rect x="1012" y="29" width="44" height="22" rx="10" ry="10"></rect>
<text x="1034" y="44">"&#93;"</text>
</g>
</g>
<path d="M1056 40h20"></path>
</g>
</g>
<path d="M1076 40h10"></path>
<path d="M 1086 40 h 20 m 0 -10 v 20"></path>
</g>
</svg>
