<svg xmlns="http://www.w3.org/2000/svg" xmlns:xlink="http://www.w3.org/1999/xlink" class="railroad-diagram" width="582" height="71" viewBox="0 0 582 71">
<defs>
<style type="text/css"><![CDATA[
path {
stroke-width: 3;
stroke: black;
fill: rgba(0,0,0,0);
}
text {
font: bold 14px monospace;
text-anchor: middle;
}
text.diagram-text {
font-size: 12px;
}
a {
fill: blue;
}
text.diagram-arrow {
font-size: 16px;
}
text.label {
text-anchor: start;
}
text.comment {
font: italic 12px monospace;
}
rect {
stroke-width: 3;
stroke: black;
fill: #BCBCBC;
}
path.diagram-text {
stroke-width: 3;
stroke: black;
fill: #BCBCBC;
cursor: help;
}
]]></style>
</defs>
<g transform="translate(.5 .5)">
<path d="M 20 30 v 20 m 0 -10 h 20.5"></path>
<path d="M40 40h10"></path>
<g>
<path d="M50 40h0"></path>
<path d="M532 40h0"></path>
<g class="terminal">
<path d="M50 40h0"></path>
<path d="M166 40h0"></path>
<rect x="50" y="29" width="116" height="22" rx="10" ry="10"></rect>
<text x="108" y="44">Token "Plus"</text>
</g>
<path d="M166 40h10"></path>
<path d="M176 40h10"></path>
<g class="terminal">
<path d="M186 40h0"></path>
<path d="M278 40h0"></path>
<rect x="186" y="29" width="92" height="22" rx="10" ry="10"></rect>
<text x="232" y="44">^&#91;\d\w&#93;+$</text>
</g>
<path d="M278 40h10"></path>
<g>
<path d="M288 40h0"></path>
<path d="M532 40h0"></path>
<path d="M288 40a10 10 0 0 0 10 -10v0a10 10 0 0 1 10 -10"></path>
<g>
<path d="M308 20h204"></path>
</g>
<path d="M512 20a10 10 0 0 1 10 10v0a10 10 0 0 0 10 10"></path>
<path d="M288 40h20"></path>
<g>
<path d="M308 40h0"></path>
<path d="M512 40h0"></path>
<g class="non-terminal">
<path d="M308 40h0"></path>
<path d="M432 40h0"></path>
<rect x="308" y="29" width="124" height="22"></rect>
<a xlink:href="reuse_arrow_or_dash.svg"><text x="370" y="44">arrow&#95;or&#95;dash</text>
</a>
</g>
<path d="M432 40h10"></path>
<path d="M442 40h10"></path>
<g class="non-terminal">
<path d="M452 40h0"></path>
<path d="M512 40h0"></path>
<rect x="452" y="29" width="60" height="22"></rect>
<a xlink:href="reuse_field.svg"><text x="482" y="44">field</text>
</a>
</g>
</g>
<path d="M512 40h20"></path>
</g>
</g>
<path d="M532 40h10"></path>
<path d="M 542 40 h 20 m 0 -10 v 20"></path>
</g>
</svg>
