<svg xmlns="http://www.w3.org/2000/svg" xmlns:xlink="http://www.w3.org/1999/xlink" class="railroad-diagram" width="516" height="92" viewBox="0 0 516 92">
<defs>
<style type="text/css"><![CDATA[
path {
stroke-width: 3;
stroke: black;
fill: rgba(0,0,0,0);
}
text {
font: bold 14px monospace;
text-anchor: middle;
}
text.diagram-text {
font-size: 12px;
}
a {
fill: blue;
}
text.diagram-arrow {
font-size: 16px;
}
text.label {
text-anchor: start;
}
text.comment {
font: italic 12px monospace;
}
rect {
stroke-width: 3;
stroke: black;
fill: #BCBCBC;
}
path.diagram-text {
stroke-width: 3;
stroke: black;
fill: #BCBCBC;
cursor: help;
}
]]></style>
</defs>
<g transform="translate(.5 .5)">
<path d="M 20 21 v 20 m 0 -10 h 20.5"></path>
<g>
<path d="M40 31h0"></path>
<path d="M476 31h0"></path>
<path d="M40 31h20"></path>
<g>
<path d="M60 31h60"></path>
<path d="M396 31h60"></path>
<g class="terminal">
<path d="M120 31h0"></path>
<path d="M188 31h0"></path>
<rect x="120" y="20" width="68" height="22" rx="10" ry="10"></rect>
<text x="154" y="35">"DATA"</text>
</g>
<path d="M188 31h10"></path>
<path d="M198 31h10"></path>
<g class="terminal">
<path d="M208 31h0"></path>
<path d="M252 31h0"></path>
<rect x="208" y="20" width="44" height="22" rx="10" ry="10"></rect>
<text x="230" y="35">"("</text>
</g>
<path d="M252 31h10"></path>
<path d="M262 31h10"></path>
<g class="non-terminal">
<path d="M272 31h0"></path>
<path d="M332 31h0"></path>
<rect x="272" y="20" width="60" height="22"></rect>
<a xlink:href="reuse_field.svg"><text x="302" y="35">field</text>
</a>
</g>
<path d="M332 31h10"></path>
<path d="M342 31h10"></path>
<g class="terminal">
<path d="M352 31h0"></path>
<path d="M396 31h0"></path>
<rect x="352" y="20" width="44" height="22" rx="10" ry="10"></rect>
<text x="374" y="35">")"</text>
</g>
</g>
<path d="M456 31h20"></path>
<path d="M40 31a10 10 0 0 1 10 10v10a10 10 0 0 0 10 10"></path>
<g>
<path d="M60 61h0"></path>
<path d="M456 61h0"></path>
<g class="terminal">
<path d="M60 61h0"></path>
<path d="M192 61h0"></path>
<rect x="60" y="50" width="132" height="22" rx="10" ry="10"></rect>
<text x="126" y="65">"FIELD-SYMBOL"</text>
</g>
<path d="M192 61h10"></path>
<path d="M202 61h10"></path>
<g class="terminal">
<path d="M212 61h0"></path>
<path d="M256 61h0"></path>
<rect x="212" y="50" width="44" height="22" rx="10" ry="10"></rect>
<text x="234" y="65">"("</text>
</g>
<path d="M256 61h10"></path>
<path d="M266 61h10"></path>
<g class="non-terminal">
<path d="M276 61h0"></path>
<path d="M392 61h0"></path>
<rect x="276" y="50" width="116" height="22"></rect>
<a xlink:href="reuse_field_symbol.svg"><text x="334" y="65">field&#95;symbol</text>
</a>
</g>
<path d="M392 61h10"></path>
<path d="M402 61h10"></path>
<g class="terminal">
<path d="M412 61h0"></path>
<path d="M456 61h0"></path>
<rect x="412" y="50" width="44" height="22" rx="10" ry="10"></rect>
<text x="434" y="65">")"</text>
</g>
</g>
<path d="M456 61a10 10 0 0 0 10 -10v-10a10 10 0 0 1 10 -10"></path>
</g>
<path d="M 476 31 h 20 m 0 -10 v 20"></path>
</g>
</svg>
