<svg xmlns="http://www.w3.org/2000/svg" xmlns:xlink="http://www.w3.org/1999/xlink" class="railroad-diagram" width="434" height="80" viewBox="0 0 434 80">
<defs>
<style type="text/css"><![CDATA[
path {
stroke-width: 3;
stroke: black;
fill: rgba(0,0,0,0);
}
text {
font: bold 14px monospace;
text-anchor: middle;
}
text.diagram-text {
font-size: 12px;
}
a {
fill: blue;
}
text.diagram-arrow {
font-size: 16px;
}
text.label {
text-anchor: start;
}
text.comment {
font: italic 12px monospace;
}
rect {
stroke-width: 3;
stroke: black;
fill: #BCBCBC;
}
path.diagram-text {
stroke-width: 3;
stroke: black;
fill: #BCBCBC;
cursor: help;
}
]]></style>
</defs>
<g transform="translate(.5 .5)">
<path d="M 20 30 v 20 m 0 -10 h 20.5"></path>
<path d="M40 40h10"></path>
<g>
<path d="M50 40h0"></path>
<path d="M384 40h0"></path>
<g class="terminal">
<path d="M50 40h0"></path>
<path d="M182 40h0"></path>
<rect x="50" y="29" width="132" height="22" rx="10" ry="10"></rect>
<text x="116" y="44">^&#91;\w%&#93;&#91;\w\&#42;&#93;&#42;$</text>
</g>
<path d="M182 40h10"></path>
<g>
<path d="M192 40h0"></path>
<path d="M384 40h0"></path>
<path d="M192 40a10 10 0 0 0 10 -10v0a10 10 0 0 1 10 -10"></path>
<g>
<path d="M212 20h152"></path>
</g>
<path d="M364 20a10 10 0 0 1 10 10v0a10 10 0 0 0 10 10"></path>
<path d="M192 40h20"></path>
<g>
<path d="M212 40h0"></path>
<path d="M364 40h0"></path>
<path d="M212 40h10"></path>
<g>
<path d="M222 40h0"></path>
<path d="M354 40h0"></path>
<g class="terminal">
<path d="M222 40h0"></path>
<path d="M274 40h0"></path>
<rect x="222" y="29" width="52" height="22" rx="10" ry="10"></rect>
<text x="248" y="44">!"-"</text>
</g>
<path d="M274 40h10"></path>
<path d="M284 40h10"></path>
<g class="terminal">
<path d="M294 40h0"></path>
<path d="M354 40h0"></path>
<rect x="294" y="29" width="60" height="22" rx="10" ry="10"></rect>
<text x="324" y="44">^\w+$</text>
</g>
</g>
<path d="M354 40h10"></path>
<path d="M222 40a10 10 0 0 0 -10 10v0a10 10 0 0 0 10 10"></path>
<g>
<path d="M222 60h132"></path>
</g>
<path d="M354 60a10 10 0 0 0 10 -10v0a10 10 0 0 0 -10 -10"></path>
</g>
<path d="M364 40h20"></path>
</g>
</g>
<path d="M384 40h10"></path>
<path d="M 394 40 h 20 m 0 -10 v 20"></path>
</g>
</svg>
