<svg xmlns="http://www.w3.org/2000/svg" xmlns:xlink="http://www.w3.org/1999/xlink" class="railroad-diagram" width="1324" height="110" viewBox="0 0 1324 110">
<defs>
<style type="text/css"><![CDATA[
path {
stroke-width: 3;
stroke: black;
fill: rgba(0,0,0,0);
}
text {
font: bold 14px monospace;
text-anchor: middle;
}
text.diagram-text {
font-size: 12px;
}
a {
fill: blue;
}
text.diagram-arrow {
font-size: 16px;
}
text.label {
text-anchor: start;
}
text.comment {
font: italic 12px monospace;
}
rect {
stroke-width: 3;
stroke: black;
fill: #BCBCBC;
}
path.diagram-text {
stroke-width: 3;
stroke: black;
fill: #BCBCBC;
cursor: help;
}
]]></style>
</defs>
<g transform="translate(.5 .5)">
<path d="M 20 30 v 20 m 0 -10 h 20.5"></path>
<path d="M40 40h10"></path>
<g>
<path d="M50 40h0"></path>
<path d="M1274 40h0"></path>
<g>
<path d="M50 40h0"></path>
<path d="M968 40h0"></path>
<g>
<path d="M50 40h0"></path>
<path d="M198 40h0"></path>
<path d="M50 40h20"></path>
<g class="non-terminal">
<path d="M70 40h0"></path>
<path d="M130 40h48"></path>
<rect x="70" y="29" width="60" height="22"></rect>
<a xlink:href="reuse_field.svg"><text x="100" y="44">Field</text>
</a>
</g>
<path d="M178 40h20"></path>
<path d="M50 40a10 10 0 0 1 10 10v10a10 10 0 0 0 10 10"></path>
<g class="non-terminal">
<path d="M70 70h0"></path>
<path d="M178 70h0"></path>
<rect x="70" y="59" width="108" height="22"></rect>
<a xlink:href="reuse_fieldsymbol.svg"><text x="124" y="74">FieldSymbol</text>
</a>
</g>
<path d="M178 70a10 10 0 0 0 10 -10v-10a10 10 0 0 1 10 -10"></path>
</g>
<g>
<path d="M198 40h0"></path>
<path d="M720 40h0"></path>
<path d="M198 40a10 10 0 0 0 10 -10v0a10 10 0 0 1 10 -10"></path>
<g>
<path d="M218 20h482"></path>
</g>
<path d="M700 20a10 10 0 0 1 10 10v0a10 10 0 0 0 10 10"></path>
<path d="M198 40h20"></path>
<g>
<path d="M218 40h0"></path>
<path d="M700 40h0"></path>
<g>
<path d="M218 40h0"></path>
<path d="M284 40h0"></path>
<text x="251" y="45" class="comment">v740sp02</text>
</g>
<path d="M284 40h10"></path>
<path d="M294 40h10"></path>
<g>
<path d="M304 40h0"></path>
<path d="M700 40h0"></path>
<g class="terminal">
<path d="M304 40h0"></path>
<path d="M364 40h0"></path>
<rect x="304" y="29" width="60" height="22" rx="10" ry="10"></rect>
<text x="334" y="44">!"&#91; "</text>
</g>
<path d="M364 40h10"></path>
<g>
<path d="M374 40h0"></path>
<path d="M646 40h0"></path>
<path d="M374 40h20"></path>
<g class="non-terminal">
<path d="M394 40h0"></path>
<path d="M462 40h164"></path>
<rect x="394" y="29" width="68" height="22"></rect>
<a xlink:href="reuse_source.svg"><text x="428" y="44">Source</text>
</a>
</g>
<path d="M626 40h20"></path>
<path d="M374 40a10 10 0 0 1 10 10v10a10 10 0 0 0 10 10"></path>
<g>
<path d="M394 70h0"></path>
<path d="M626 70h0"></path>
<path d="M394 70h10"></path>
<g>
<path d="M404 70h0"></path>
<path d="M616 70h0"></path>
<g class="non-terminal">
<path d="M404 70h0"></path>
<path d="M464 70h0"></path>
<rect x="404" y="59" width="60" height="22"></rect>
<a xlink:href="reuse_field.svg"><text x="434" y="74">Field</text>
</a>
</g>
<path d="M464 70h10"></path>
<path d="M474 70h10"></path>
<g class="terminal">
<path d="M484 70h0"></path>
<path d="M528 70h0"></path>
<rect x="484" y="59" width="44" height="22" rx="10" ry="10"></rect>
<text x="506" y="74">"="</text>
</g>
<path d="M528 70h10"></path>
<path d="M538 70h10"></path>
<g class="non-terminal">
<path d="M548 70h0"></path>
<path d="M616 70h0"></path>
<rect x="548" y="59" width="68" height="22"></rect>
<a xlink:href="reuse_source.svg"><text x="582" y="74">Source</text>
</a>
</g>
</g>
<path d="M616 70h10"></path>
<path d="M404 70a10 10 0 0 0 -10 10v0a10 10 0 0 0 10 10"></path>
<g>
<path d="M404 90h212"></path>
</g>
<path d="M616 90a10 10 0 0 0 10 -10v0a10 10 0 0 0 -10 -10"></path>
</g>
<path d="M626 70a10 10 0 0 0 10 -10v-10a10 10 0 0 1 10 -10"></path>
</g>
<path d="M646 40h10"></path>
<g class="terminal">
<path d="M656 40h0"></path>
<path d="M700 40h0"></path>
<rect x="656" y="29" width="44" height="22" rx="10" ry="10"></rect>
<text x="678" y="44">"&#93;"</text>
</g>
</g>
</g>
<path d="M700 40h20"></path>
</g>
<g>
<path d="M720 40h0"></path>
<path d="M968 40h0"></path>
<path d="M720 40a10 10 0 0 0 10 -10v0a10 10 0 0 1 10 -10"></path>
<g>
<path d="M740 20h208"></path>
</g>
<path d="M948 20a10 10 0 0 1 10 10v0a10 10 0 0 0 10 10"></path>
<path d="M720 40h20"></path>
<g>
<path d="M740 40h0"></path>
<path d="M948 40h0"></path>
<path d="M740 40h10"></path>
<g>
<path d="M750 40h0"></path>
<path d="M938 40h0"></path>
<g class="non-terminal">
<path d="M750 40h0"></path>
<path d="M858 40h0"></path>
<rect x="750" y="29" width="108" height="22"></rect>
<a xlink:href="reuse_arrowordash.svg"><text x="804" y="44">ArrowOrDash</text>
</a>
</g>
<path d="M858 40h10"></path>
<path d="M868 40h10"></path>
<g class="non-terminal">
<path d="M878 40h0"></path>
<path d="M938 40h0"></path>
<rect x="878" y="29" width="60" height="22"></rect>
<a xlink:href="reuse_field.svg"><text x="908" y="44">Field</text>
</a>
</g>
</g>
<path d="M938 40h10"></path>
<path d="M750 40a10 10 0 0 0 -10 10v0a10 10 0 0 0 10 10"></path>
<g>
<path d="M750 60h188"></path>
</g>
<path d="M938 60a10 10 0 0 0 10 -10v0a10 10 0 0 0 -10 -10"></path>
</g>
<path d="M948 40h20"></path>
</g>
</g>
<path d="M968 40h10"></path>
<g>
<path d="M978 40h0"></path>
<path d="M1126 40h0"></path>
<path d="M978 40a10 10 0 0 0 10 -10v0a10 10 0 0 1 10 -10"></path>
<g>
<path d="M998 20h108"></path>
</g>
<path d="M1106 20a10 10 0 0 1 10 10v0a10 10 0 0 0 10 10"></path>
<path d="M978 40h20"></path>
<g class="non-terminal">
<path d="M998 40h0"></path>
<path d="M1106 40h0"></path>
<rect x="998" y="29" width="108" height="22"></rect>
<a xlink:href="reuse_fieldoffset.svg"><text x="1052" y="44">FieldOffset</text>
</a>
</g>
<path d="M1106 40h20"></path>
</g>
<g>
<path d="M1126 40h0"></path>
<path d="M1274 40h0"></path>
<path d="M1126 40a10 10 0 0 0 10 -10v0a10 10 0 0 1 10 -10"></path>
<g>
<path d="M1146 20h108"></path>
</g>
<path d="M1254 20a10 10 0 0 1 10 10v0a10 10 0 0 0 10 10"></path>
<path d="M1126 40h20"></path>
<g class="non-terminal">
<path d="M1146 40h0"></path>
<path d="M1254 40h0"></path>
<rect x="1146" y="29" width="108" height="22"></rect>
<a xlink:href="reuse_fieldlength.svg"><text x="1200" y="44">FieldLength</text>
</a>
</g>
<path d="M1254 40h20"></path>
</g>
</g>
<path d="M1274 40h10"></path>
<path d="M 1284 40 h 20 m 0 -10 v 20"></path>
</g>
</svg>
