<svg xmlns="http://www.w3.org/2000/svg" xmlns:xlink="http://www.w3.org/1999/xlink" class="railroad-diagram" width="180" height="182" viewBox="0 0 180 182">
<defs>
<style type="text/css"><![CDATA[
path {
stroke-width: 3;
stroke: black;
fill: rgba(0,0,0,0);
}
text {
font: bold 14px monospace;
text-anchor: middle;
}
text.diagram-text {
font-size: 12px;
}
a {
fill: blue;
}
text.diagram-arrow {
font-size: 16px;
}
text.label {
text-anchor: start;
}
text.comment {
font: italic 12px monospace;
}
rect {
stroke-width: 3;
stroke: black;
fill: #BCBCBC;
}
path.diagram-text {
stroke-width: 3;
stroke: black;
fill: #BCBCBC;
cursor: help;
}
]]></style>
</defs>
<g transform="translate(.5 .5)">
<path d="M 20 21 v 20 m 0 -10 h 20.5"></path>
<g>
<path d="M40 31h0"></path>
<path d="M140 31h0"></path>
<path d="M40 31h20"></path>
<g class="terminal">
<path d="M60 31h8"></path>
<path d="M112 31h8"></path>
<rect x="68" y="20" width="44" height="22" rx="10" ry="10"></rect>
<text x="90" y="35">"+"</text>
</g>
<path d="M120 31h20"></path>
<path d="M40 31a10 10 0 0 1 10 10v10a10 10 0 0 0 10 10"></path>
<g class="terminal">
<path d="M60 61h8"></path>
<path d="M112 61h8"></path>
<rect x="68" y="50" width="44" height="22" rx="10" ry="10"></rect>
<text x="90" y="65">"-"</text>
</g>
<path d="M120 61a10 10 0 0 0 10 -10v-10a10 10 0 0 1 10 -10"></path>
<path d="M40 31a10 10 0 0 1 10 10v40a10 10 0 0 0 10 10"></path>
<g class="terminal">
<path d="M60 91h8"></path>
<path d="M112 91h8"></path>
<rect x="68" y="80" width="44" height="22" rx="10" ry="10"></rect>
<text x="90" y="95">"&#42;"</text>
</g>
<path d="M120 91a10 10 0 0 0 10 -10v-40a10 10 0 0 1 10 -10"></path>
<path d="M40 31a10 10 0 0 1 10 10v70a10 10 0 0 0 10 10"></path>
<g class="terminal">
<path d="M60 121h8"></path>
<path d="M112 121h8"></path>
<rect x="68" y="110" width="44" height="22" rx="10" ry="10"></rect>
<text x="90" y="125">"/"</text>
</g>
<path d="M120 121a10 10 0 0 0 10 -10v-70a10 10 0 0 1 10 -10"></path>
<path d="M40 31a10 10 0 0 1 10 10v100a10 10 0 0 0 10 10"></path>
<g class="terminal">
<path d="M60 151h0"></path>
<path d="M120 151h0"></path>
<rect x="60" y="140" width="60" height="22" rx="10" ry="10"></rect>
<text x="90" y="155">"MOD"</text>
</g>
<path d="M120 151a10 10 0 0 0 10 -10v-100a10 10 0 0 1 10 -10"></path>
</g>
<path d="M 140 31 h 20 m 0 -10 v 20"></path>
</g>
</svg>
