<svg xmlns="http://www.w3.org/2000/svg" xmlns:xlink="http://www.w3.org/1999/xlink" class="railroad-diagram" width="1196" height="109" viewBox="0 0 1196 109">
<defs>
<style type="text/css"><![CDATA[
path {
stroke-width: 3;
stroke: black;
fill: rgba(0,0,0,0);
}
text {
font: bold 14px monospace;
text-anchor: middle;
}
text.diagram-text {
font-size: 12px;
}
a {
fill: blue;
}
text.diagram-arrow {
font-size: 16px;
}
text.label {
text-anchor: start;
}
text.comment {
font: italic 12px monospace;
}
rect {
stroke-width: 3;
stroke: black;
fill: #BCBCBC;
}
path.diagram-text {
stroke-width: 3;
stroke: black;
fill: #BCBCBC;
cursor: help;
}
]]></style>
</defs>
<g transform="translate(.5 .5)">
<path d="M 20 38 v 20 m 0 -10 h 20.5"></path>
<path d="M40 48h10"></path>
<g>
<path d="M50 48h0"></path>
<path d="M1146 48h0"></path>
<g>
<path d="M50 48h0"></path>
<path d="M840 48h0"></path>
<g>
<path d="M50 48h0"></path>
<path d="M198 48h0"></path>
<path d="M50 48h20"></path>
<g class="non-terminal">
<path d="M70 48h0"></path>
<path d="M130 48h48"></path>
<rect x="70" y="37" width="60" height="22"></rect>
<a xlink:href="reuse_field.svg"><text x="100" y="52">Field</text>
</a>
</g>
<path d="M178 48h20"></path>
<path d="M50 48a10 10 0 0 1 10 10v10a10 10 0 0 0 10 10"></path>
<g class="non-terminal">
<path d="M70 78h0"></path>
<path d="M178 78h0"></path>
<rect x="70" y="67" width="108" height="22"></rect>
<a xlink:href="reuse_fieldsymbol.svg"><text x="124" y="82">FieldSymbol</text>
</a>
</g>
<path d="M178 78a10 10 0 0 0 10 -10v-10a10 10 0 0 1 10 -10"></path>
</g>
<g>
<path d="M198 48h0"></path>
<path d="M378 48h0"></path>
<path d="M198 48a10 10 0 0 0 10 -10v0a10 10 0 0 1 10 -10"></path>
<g>
<path d="M218 28h140"></path>
</g>
<path d="M358 28a10 10 0 0 1 10 10v0a10 10 0 0 0 10 10"></path>
<path d="M198 48h20"></path>
<g class="non-terminal">
<path d="M218 48h0"></path>
<path d="M358 48h0"></path>
<rect x="218" y="37" width="140" height="22"></rect>
<a xlink:href="reuse_tableexpression.svg"><text x="288" y="52">TableExpression</text>
</a>
</g>
<path d="M358 48h20"></path>
</g>
<g>
<path d="M378 48h0"></path>
<path d="M840 48h0"></path>
<path d="M378 48a10 10 0 0 0 10 -10v-8a10 10 0 0 1 10 -10"></path>
<g>
<path d="M398 20h422"></path>
</g>
<path d="M820 20a10 10 0 0 1 10 10v8a10 10 0 0 0 10 10"></path>
<path d="M378 48h20"></path>
<g>
<path d="M398 48h0"></path>
<path d="M820 48h0"></path>
<path d="M398 48h10"></path>
<g>
<path d="M408 48h0"></path>
<path d="M810 48h0"></path>
<g class="non-terminal">
<path d="M408 48h0"></path>
<path d="M516 48h0"></path>
<rect x="408" y="37" width="108" height="22"></rect>
<a xlink:href="reuse_arrowordash.svg"><text x="462" y="52">ArrowOrDash</text>
</a>
</g>
<path d="M516 48h10"></path>
<path d="M526 48h10"></path>
<g class="non-terminal">
<path d="M536 48h0"></path>
<path d="M620 48h0"></path>
<rect x="536" y="37" width="84" height="22"></rect>
<a xlink:href="reuse_fieldall.svg"><text x="578" y="52">FieldAll</text>
</a>
</g>
<path d="M620 48h10"></path>
<g>
<path d="M630 48h0"></path>
<path d="M810 48h0"></path>
<path d="M630 48a10 10 0 0 0 10 -10v0a10 10 0 0 1 10 -10"></path>
<g>
<path d="M650 28h140"></path>
</g>
<path d="M790 28a10 10 0 0 1 10 10v0a10 10 0 0 0 10 10"></path>
<path d="M630 48h20"></path>
<g class="non-terminal">
<path d="M650 48h0"></path>
<path d="M790 48h0"></path>
<rect x="650" y="37" width="140" height="22"></rect>
<a xlink:href="reuse_tableexpression.svg"><text x="720" y="52">TableExpression</text>
</a>
</g>
<path d="M790 48h20"></path>
</g>
</g>
<path d="M810 48h10"></path>
<path d="M408 48a10 10 0 0 0 -10 10v0a10 10 0 0 0 10 10"></path>
<g>
<path d="M408 68h402"></path>
</g>
<path d="M810 68a10 10 0 0 0 10 -10v0a10 10 0 0 0 -10 -10"></path>
</g>
<path d="M820 48h20"></path>
</g>
</g>
<path d="M840 48h10"></path>
<g>
<path d="M850 48h0"></path>
<path d="M998 48h0"></path>
<path d="M850 48a10 10 0 0 0 10 -10v0a10 10 0 0 1 10 -10"></path>
<g>
<path d="M870 28h108"></path>
</g>
<path d="M978 28a10 10 0 0 1 10 10v0a10 10 0 0 0 10 10"></path>
<path d="M850 48h20"></path>
<g class="non-terminal">
<path d="M870 48h0"></path>
<path d="M978 48h0"></path>
<rect x="870" y="37" width="108" height="22"></rect>
<a xlink:href="reuse_fieldoffset.svg"><text x="924" y="52">FieldOffset</text>
</a>
</g>
<path d="M978 48h20"></path>
</g>
<g>
<path d="M998 48h0"></path>
<path d="M1146 48h0"></path>
<path d="M998 48a10 10 0 0 0 10 -10v0a10 10 0 0 1 10 -10"></path>
<g>
<path d="M1018 28h108"></path>
</g>
<path d="M1126 28a10 10 0 0 1 10 10v0a10 10 0 0 0 10 10"></path>
<path d="M998 48h20"></path>
<g class="non-terminal">
<path d="M1018 48h0"></path>
<path d="M1126 48h0"></path>
<rect x="1018" y="37" width="108" height="22"></rect>
<a xlink:href="reuse_fieldlength.svg"><text x="1072" y="52">FieldLength</text>
</a>
</g>
<path d="M1126 48h20"></path>
</g>
</g>
<path d="M1146 48h10"></path>
<path d="M 1156 48 h 20 m 0 -10 v 20"></path>
</g>
</svg>
