<svg xmlns="http://www.w3.org/2000/svg" xmlns:xlink="http://www.w3.org/1999/xlink" class="railroad-diagram" width="576" height="101" viewBox="0 0 576 101">
<defs>
<style type="text/css"><![CDATA[
path {
stroke-width: 3;
stroke: black;
fill: rgba(0,0,0,0);
}
text {
font: bold 14px monospace;
text-anchor: middle;
}
text.diagram-text {
font-size: 12px;
}
a {
fill: blue;
}
text.diagram-arrow {
font-size: 16px;
}
text.label {
text-anchor: start;
}
text.comment {
font: italic 12px monospace;
}
rect {
stroke-width: 3;
stroke: black;
fill: #BCBCBC;
}
path.diagram-text {
stroke-width: 3;
stroke: black;
fill: #BCBCBC;
cursor: help;
}
]]></style>
</defs>
<g transform="translate(.5 .5)">
<path d="M 20 30 v 20 m 0 -10 h 20.5"></path>
<g>
<path d="M40 40h0"></path>
<path d="M536 40h0"></path>
<path d="M40 40h20"></path>
<g>
<path d="M60 40h0"></path>
<path d="M516 40h0"></path>
<g>
<path d="M60 40h0"></path>
<path d="M264 40h0"></path>
<path d="M60 40a10 10 0 0 0 10 -10v0a10 10 0 0 1 10 -10"></path>
<g>
<path d="M80 20h164"></path>
</g>
<path d="M244 20a10 10 0 0 1 10 10v0a10 10 0 0 0 10 10"></path>
<path d="M60 40h20"></path>
<g>
<path d="M80 40h0"></path>
<path d="M244 40h0"></path>
<g class="terminal">
<path d="M80 40h0"></path>
<path d="M140 40h0"></path>
<rect x="80" y="29" width="60" height="22" rx="10" ry="10"></rect>
<text x="110" y="44">^\w+$</text>
</g>
<path d="M140 40h10"></path>
<path d="M150 40h10"></path>
<g class="terminal">
<path d="M160 40h0"></path>
<path d="M244 40h0"></path>
<rect x="160" y="29" width="84" height="22" rx="10" ry="10"></rect>
<text x="202" y="44">!"->/=>"</text>
</g>
</g>
<path d="M244 40h20"></path>
</g>
<path d="M264 40h10"></path>
<g class="terminal">
<path d="M274 40h0"></path>
<path d="M334 40h0"></path>
<rect x="274" y="29" width="60" height="22" rx="10" ry="10"></rect>
<text x="304" y="44">^\w+$</text>
</g>
<path d="M334 40h10"></path>
<g>
<path d="M344 40h0"></path>
<path d="M516 40h0"></path>
<path d="M344 40a10 10 0 0 0 10 -10v0a10 10 0 0 1 10 -10"></path>
<g>
<path d="M364 20h132"></path>
</g>
<path d="M496 20a10 10 0 0 1 10 10v0a10 10 0 0 0 10 10"></path>
<path d="M344 40h20"></path>
<g>
<path d="M364 40h0"></path>
<path d="M496 40h0"></path>
<g class="terminal">
<path d="M364 40h0"></path>
<path d="M416 40h0"></path>
<rect x="364" y="29" width="52" height="22" rx="10" ry="10"></rect>
<text x="390" y="44">!"-"</text>
</g>
<path d="M416 40h10"></path>
<path d="M426 40h10"></path>
<g class="terminal">
<path d="M436 40h0"></path>
<path d="M496 40h0"></path>
<rect x="436" y="29" width="60" height="22" rx="10" ry="10"></rect>
<text x="466" y="44">^\w+$</text>
</g>
</g>
<path d="M496 40h20"></path>
</g>
</g>
<path d="M516 40h20"></path>
<path d="M40 40a10 10 0 0 1 10 10v10a10 10 0 0 0 10 10"></path>
<g class="terminal">
<path d="M60 70h0"></path>
<path d="M104 70h412"></path>
<rect x="60" y="59" width="44" height="22" rx="10" ry="10"></rect>
<text x="82" y="74">"#"</text>
</g>
<path d="M516 70a10 10 0 0 0 10 -10v-10a10 10 0 0 1 10 -10"></path>
</g>
<path d="M 536 40 h 20 m 0 -10 v 20"></path>
</g>
</svg>
