<?xml version="1.0" encoding="UTF-8" standalone="no"?>
<!DOCTYPE svg PUBLIC "-//W3C//DTD SVG 1.1//EN"
 "http://www.w3.org/Graphics/SVG/1.1/DTD/svg11.dtd">
<!-- Generated by graphviz version 2.38.0 (20140413.2041)
 -->
<!-- Title: field Pages: 1 -->
<svg width="103pt" height="188pt"
 viewBox="0.00 0.00 102.59 188.00" xmlns="http://www.w3.org/2000/svg" xmlns:xlink="http://www.w3.org/1999/xlink">
<g id="graph0" class="graph" transform="scale(1 1) rotate(0) translate(4 184)">
<title>field</title>
<polygon fill="white" stroke="none" points="-4,4 -4,-184 98.5851,-184 98.5851,4 -4,4"/>
<!-- start -->
<g id="node1" class="node"><title>start</title>
<polygon fill="none" stroke="blue" points="74.2925,-180 20.2925,-180 20.2925,-144 74.2925,-144 74.2925,-180"/>
<text text-anchor="middle" x="47.2925" y="-157.8" font-family="Times,serif" font-size="14.00">Start</text>
</g>
<!-- node149 -->
<g id="node3" class="node"><title>node149</title>
<ellipse fill="none" stroke="black" cx="47.2925" cy="-90" rx="47.086" ry="18"/>
<text text-anchor="middle" x="47.2925" y="-85.8" font-family="Times,serif" font-size="14.00">^&amp;?\w+$</text>
</g>
<!-- start&#45;&gt;node149 -->
<g id="edge2" class="edge"><title>start&#45;&gt;node149</title>
<path fill="none" stroke="black" d="M47.2925,-143.697C47.2925,-135.983 47.2925,-126.712 47.2925,-118.112"/>
<polygon fill="black" stroke="black" points="50.7926,-118.104 47.2925,-108.104 43.7926,-118.104 50.7926,-118.104"/>
</g>
<!-- end -->
<g id="node2" class="node"><title>end</title>
<polygon fill="none" stroke="blue" points="74.2925,-36 20.2925,-36 20.2925,-0 74.2925,-0 74.2925,-36"/>
<text text-anchor="middle" x="47.2925" y="-13.8" font-family="Times,serif" font-size="14.00">End</text>
</g>
<!-- node149&#45;&gt;end -->
<g id="edge1" class="edge"><title>node149&#45;&gt;end</title>
<path fill="none" stroke="black" d="M47.2925,-71.6966C47.2925,-63.9827 47.2925,-54.7125 47.2925,-46.1124"/>
<polygon fill="black" stroke="black" points="50.7926,-46.1043 47.2925,-36.1043 43.7926,-46.1044 50.7926,-46.1043"/>
</g>
</g>
</svg>
