<?xml version="1.0" encoding="UTF-8" standalone="no"?>
<!DOCTYPE svg PUBLIC "-//W3C//DTD SVG 1.1//EN"
 "http://www.w3.org/Graphics/SVG/1.1/DTD/svg11.dtd">
<!-- Generated by graphviz version 2.38.0 (20140413.2041)
 -->
<!-- Title: field_offset Pages: 1 -->
<svg width="75pt" height="260pt"
 viewBox="0.00 0.00 74.70 260.00" xmlns="http://www.w3.org/2000/svg" xmlns:xlink="http://www.w3.org/1999/xlink">
<g id="graph0" class="graph" transform="scale(1 1) rotate(0) translate(4 256)">
<title>field_offset</title>
<polygon fill="white" stroke="none" points="-4,4 -4,-256 70.7016,-256 70.7016,4 -4,4"/>
<!-- start -->
<g id="node1" class="node"><title>start</title>
<polygon fill="none" stroke="blue" points="60.3508,-252 6.35081,-252 6.35081,-216 60.3508,-216 60.3508,-252"/>
<text text-anchor="middle" x="33.3508" y="-229.8" font-family="Times,serif" font-size="14.00">Start</text>
</g>
<!-- node105 -->
<g id="node4" class="node"><title>node105</title>
<ellipse fill="none" stroke="black" cx="33.3508" cy="-162" rx="27" ry="18"/>
<text text-anchor="middle" x="33.3508" y="-157.8" font-family="Times,serif" font-size="14.00">&quot;+&quot;</text>
</g>
<!-- start&#45;&gt;node105 -->
<g id="edge3" class="edge"><title>start&#45;&gt;node105</title>
<path fill="none" stroke="black" d="M33.3508,-215.697C33.3508,-207.983 33.3508,-198.712 33.3508,-190.112"/>
<polygon fill="black" stroke="black" points="36.8509,-190.104 33.3508,-180.104 29.8509,-190.104 36.8509,-190.104"/>
</g>
<!-- end -->
<g id="node2" class="node"><title>end</title>
<polygon fill="none" stroke="blue" points="60.3508,-36 6.35081,-36 6.35081,-0 60.3508,-0 60.3508,-36"/>
<text text-anchor="middle" x="33.3508" y="-13.8" font-family="Times,serif" font-size="14.00">End</text>
</g>
<!-- node104 -->
<g id="node3" class="node"><title>node104</title>
<ellipse fill="none" stroke="black" cx="33.3508" cy="-90" rx="33.2023" ry="18"/>
<text text-anchor="middle" x="33.3508" y="-85.8" font-family="Times,serif" font-size="14.00">^\d+$</text>
</g>
<!-- node104&#45;&gt;end -->
<g id="edge1" class="edge"><title>node104&#45;&gt;end</title>
<path fill="none" stroke="black" d="M33.3508,-71.6966C33.3508,-63.9827 33.3508,-54.7125 33.3508,-46.1124"/>
<polygon fill="black" stroke="black" points="36.8509,-46.1043 33.3508,-36.1043 29.8509,-46.1044 36.8509,-46.1043"/>
</g>
<!-- node105&#45;&gt;node104 -->
<g id="edge2" class="edge"><title>node105&#45;&gt;node104</title>
<path fill="none" stroke="black" d="M33.3508,-143.697C33.3508,-135.983 33.3508,-126.712 33.3508,-118.112"/>
<polygon fill="black" stroke="black" points="36.8509,-118.104 33.3508,-108.104 29.8509,-118.104 36.8509,-118.104"/>
</g>
</g>
</svg>
