<svg xmlns="http://www.w3.org/2000/svg" xmlns:xlink="http://www.w3.org/1999/xlink" class="railroad-diagram" width="546" height="101" viewBox="0 0 546 101">
<defs>
<style type="text/css"><![CDATA[
path {
stroke-width: 3;
stroke: black;
fill: rgba(0,0,0,0);
}
text {
font: bold 14px monospace;
text-anchor: middle;
}
text.diagram-text {
font-size: 12px;
}
a {
fill: blue;
}
text.diagram-arrow {
font-size: 16px;
}
text.label {
text-anchor: start;
}
text.comment {
font: italic 12px monospace;
}
rect {
stroke-width: 3;
stroke: black;
fill: #BCBCBC;
}
path.diagram-text {
stroke-width: 3;
stroke: black;
fill: #BCBCBC;
cursor: help;
}
]]></style>
</defs>
<g transform="translate(.5 .5)">
<path d="M 20 30 v 20 m 0 -10 h 20.5"></path>
<path d="M40 40h10"></path>
<g>
<path d="M50 40h0"></path>
<path d="M496 40h0"></path>
<g>
<path d="M50 40h0"></path>
<path d="M332 40h0"></path>
<path d="M50 40h20"></path>
<g>
<path d="M70 40h0"></path>
<path d="M312 40h0"></path>
<g class="terminal">
<path d="M70 40h0"></path>
<path d="M130 40h0"></path>
<rect x="70" y="29" width="60" height="22" rx="10" ry="10"></rect>
<text x="100" y="44">^\w+$</text>
</g>
<path d="M130 40h10"></path>
<g>
<path d="M140 40h0"></path>
<path d="M312 40h0"></path>
<path d="M140 40a10 10 0 0 0 10 -10v0a10 10 0 0 1 10 -10"></path>
<g>
<path d="M160 20h132"></path>
</g>
<path d="M292 20a10 10 0 0 1 10 10v0a10 10 0 0 0 10 10"></path>
<path d="M140 40h20"></path>
<g>
<path d="M160 40h0"></path>
<path d="M292 40h0"></path>
<g class="terminal">
<path d="M160 40h0"></path>
<path d="M212 40h0"></path>
<rect x="160" y="29" width="52" height="22" rx="10" ry="10"></rect>
<text x="186" y="44">!"-"</text>
</g>
<path d="M212 40h10"></path>
<path d="M222 40h10"></path>
<g class="terminal">
<path d="M232 40h0"></path>
<path d="M292 40h0"></path>
<rect x="232" y="29" width="60" height="22" rx="10" ry="10"></rect>
<text x="262" y="44">^\w+$</text>
</g>
</g>
<path d="M292 40h20"></path>
</g>
</g>
<path d="M312 40h20"></path>
<path d="M50 40a10 10 0 0 1 10 10v10a10 10 0 0 0 10 10"></path>
<g class="non-terminal">
<path d="M70 70h0"></path>
<path d="M178 70h134"></path>
<rect x="70" y="59" width="108" height="22"></rect>
<a xlink:href="reuse_passbyvalue.svg"><text x="124" y="74">PassByValue</text>
</a>
</g>
<path d="M312 70a10 10 0 0 0 10 -10v-10a10 10 0 0 1 10 -10"></path>
</g>
<g>
<path d="M332 40h0"></path>
<path d="M496 40h0"></path>
<path d="M332 40a10 10 0 0 0 10 -10v0a10 10 0 0 1 10 -10"></path>
<g>
<path d="M352 20h124"></path>
</g>
<path d="M476 20a10 10 0 0 1 10 10v0a10 10 0 0 0 10 10"></path>
<path d="M332 40h20"></path>
<g class="non-terminal">
<path d="M352 40h0"></path>
<path d="M476 40h0"></path>
<rect x="352" y="29" width="124" height="22"></rect>
<a xlink:href="reuse_formparamtype.svg"><text x="414" y="44">FormParamType</text>
</a>
</g>
<path d="M476 40h20"></path>
</g>
</g>
<path d="M496 40h10"></path>
<path d="M 506 40 h 20 m 0 -10 v 20"></path>
</g>
</svg>
