<svg xmlns="http://www.w3.org/2000/svg" xmlns:xlink="http://www.w3.org/1999/xlink" class="railroad-diagram" width="1992" height="626" viewBox="0 0 1992 626">
<defs>
<style type="text/css"><![CDATA[
path {
stroke-width: 3;
stroke: black;
fill: rgba(0,0,0,0);
}
text {
font: bold 14px monospace;
text-anchor: middle;
}
text.diagram-text {
font-size: 12px;
}
a {
fill: blue;
}
text.diagram-arrow {
font-size: 16px;
}
text.label {
text-anchor: start;
}
text.comment {
font: italic 12px monospace;
}
rect {
stroke-width: 3;
stroke: black;
fill: #BCBCBC;
}
path.diagram-text {
stroke-width: 3;
stroke: black;
fill: #BCBCBC;
cursor: help;
}
]]></style>
</defs>
<g transform="translate(.5 .5)">
<path d="M 20 30 v 20 m 0 -10 h 20.5"></path>
<path d="M40 40h10"></path>
<g>
<path d="M50 40h0"></path>
<path d="M1942 40h0"></path>
<g class="terminal">
<path d="M50 40h0"></path>
<path d="M134 40h0"></path>
<rect x="50" y="29" width="84" height="22" rx="10" ry="10"></rect>
<text x="92" y="44">"SELECT"</text>
</g>
<path d="M134 40h10"></path>
<g>
<path d="M144 40h0"></path>
<path d="M474 40h0"></path>
<path d="M144 40h20"></path>
<g class="terminal">
<path d="M164 40h0"></path>
<path d="M264 40h190"></path>
<rect x="164" y="29" width="100" height="22" rx="10" ry="10"></rect>
<text x="214" y="44">"DISTINCT"</text>
</g>
<path d="M454 40h20"></path>
<path d="M144 40a10 10 0 0 1 10 10v27a10 10 0 0 0 10 10"></path>
<g>
<path d="M164 87h0"></path>
<path d="M454 87h0"></path>
<path d="M164 87a10 10 0 0 0 10 -10v-8a10 10 0 0 1 10 -10"></path>
<g>
<path d="M184 59h250"></path>
</g>
<path d="M434 59a10 10 0 0 1 10 10v8a10 10 0 0 0 10 10"></path>
<path d="M164 87h20"></path>
<g>
<path d="M184 87h0"></path>
<path d="M434 87h0"></path>
<g class="terminal">
<path d="M184 87h0"></path>
<path d="M268 87h0"></path>
<rect x="184" y="76" width="84" height="22" rx="10" ry="10"></rect>
<text x="226" y="91">"SINGLE"</text>
</g>
<path d="M268 87h10"></path>
<g>
<path d="M278 87h0"></path>
<path d="M434 87h0"></path>
<path d="M278 87a10 10 0 0 0 10 -10v0a10 10 0 0 1 10 -10"></path>
<g>
<path d="M298 67h116"></path>
</g>
<path d="M414 67a10 10 0 0 1 10 10v0a10 10 0 0 0 10 10"></path>
<path d="M278 87h20"></path>
<g class="terminal">
<path d="M298 87h0"></path>
<path d="M414 87h0"></path>
<rect x="298" y="76" width="116" height="22" rx="10" ry="10"></rect>
<text x="356" y="91">"FOR UPDATE"</text>
</g>
<path d="M414 87h20"></path>
</g>
</g>
<path d="M434 87h20"></path>
</g>
<path d="M454 87a10 10 0 0 0 10 -10v-27a10 10 0 0 1 10 -10"></path>
</g>
<g>
<path d="M474 40h0"></path>
<path d="M1054 40h0"></path>
<path d="M474 40h20"></path>
<g class="terminal">
<path d="M494 40h0"></path>
<path d="M538 40h496"></path>
<rect x="494" y="29" width="44" height="22" rx="10" ry="10"></rect>
<text x="516" y="44">"&#42;"</text>
</g>
<path d="M1034 40h20"></path>
<path d="M474 40a10 10 0 0 1 10 10v10a10 10 0 0 0 10 10"></path>
<g class="non-terminal">
<path d="M494 70h0"></path>
<path d="M570 70h464"></path>
<rect x="494" y="59" width="76" height="22"></rect>
<a xlink:href="reuse_dynamic.svg"><text x="532" y="74">Dynamic</text>
</a>
</g>
<path d="M1034 70a10 10 0 0 0 10 -10v-10a10 10 0 0 1 10 -10"></path>
<path d="M474 40a10 10 0 0 1 10 10v40a10 10 0 0 0 10 10"></path>
<g>
<path d="M494 100h0"></path>
<path d="M1034 100h0"></path>
<path d="M494 100h10"></path>
<g>
<path d="M504 100h0"></path>
<path d="M1024 100h0"></path>
<path d="M504 100h20"></path>
<g class="non-terminal">
<path d="M524 100h0"></path>
<path d="M584 100h420"></path>
<rect x="524" y="89" width="60" height="22"></rect>
<a xlink:href="reuse_field.svg"><text x="554" y="104">Field</text>
</a>
</g>
<path d="M1004 100h20"></path>
<path d="M504 100a10 10 0 0 1 10 10v19a10 10 0 0 0 10 10"></path>
<g>
<path d="M524 139h0"></path>
<path d="M1004 139h0"></path>
<g class="terminal">
<path d="M524 139h0"></path>
<path d="M600 139h0"></path>
<rect x="524" y="128" width="76" height="22" rx="10" ry="10"></rect>
<text x="562" y="143">"COUNT"</text>
</g>
<path d="M600 139h10"></path>
<g>
<path d="M610 139h0"></path>
<path d="M710 139h0"></path>
<path d="M610 139h20"></path>
<g class="terminal">
<path d="M630 139h0"></path>
<path d="M682 139h8"></path>
<rect x="630" y="128" width="52" height="22" rx="10" ry="10"></rect>
<text x="656" y="143">!"("</text>
</g>
<path d="M690 139h20"></path>
<path d="M610 139a10 10 0 0 1 10 10v10a10 10 0 0 0 10 10"></path>
<g class="terminal">
<path d="M630 169h0"></path>
<path d="M690 169h0"></path>
<rect x="630" y="158" width="60" height="22" rx="10" ry="10"></rect>
<text x="660" y="173">!"( "</text>
</g>
<path d="M690 169a10 10 0 0 0 10 -10v-10a10 10 0 0 1 10 -10"></path>
</g>
<g>
<path d="M710 139h0"></path>
<path d="M850 139h0"></path>
<path d="M710 139a10 10 0 0 0 10 -10v0a10 10 0 0 1 10 -10"></path>
<g>
<path d="M730 119h100"></path>
</g>
<path d="M830 119a10 10 0 0 1 10 10v0a10 10 0 0 0 10 10"></path>
<path d="M710 139h20"></path>
<g class="terminal">
<path d="M730 139h0"></path>
<path d="M830 139h0"></path>
<rect x="730" y="128" width="100" height="22" rx="10" ry="10"></rect>
<text x="780" y="143">"DISTINCT"</text>
</g>
<path d="M830 139h20"></path>
</g>
<g>
<path d="M850 139h0"></path>
<path d="M950 139h0"></path>
<path d="M850 139h20"></path>
<g class="terminal">
<path d="M870 139h0"></path>
<path d="M914 139h16"></path>
<rect x="870" y="128" width="44" height="22" rx="10" ry="10"></rect>
<text x="892" y="143">"&#42;"</text>
</g>
<path d="M930 139h20"></path>
<path d="M850 139a10 10 0 0 1 10 10v10a10 10 0 0 0 10 10"></path>
<g class="non-terminal">
<path d="M870 169h0"></path>
<path d="M930 169h0"></path>
<rect x="870" y="158" width="60" height="22"></rect>
<a xlink:href="reuse_field.svg"><text x="900" y="173">Field</text>
</a>
</g>
<path d="M930 169a10 10 0 0 0 10 -10v-10a10 10 0 0 1 10 -10"></path>
</g>
<path d="M950 139h10"></path>
<g class="terminal">
<path d="M960 139h0"></path>
<path d="M1004 139h0"></path>
<rect x="960" y="128" width="44" height="22" rx="10" ry="10"></rect>
<text x="982" y="143">")"</text>
</g>
</g>
<path d="M1004 139a10 10 0 0 0 10 -10v-19a10 10 0 0 1 10 -10"></path>
<path d="M504 100a10 10 0 0 1 10 10v79a10 10 0 0 0 10 10"></path>
<g>
<path d="M524 199h0"></path>
<path d="M828 199h176"></path>
<g class="terminal">
<path d="M524 199h0"></path>
<path d="M584 199h0"></path>
<rect x="524" y="188" width="60" height="22" rx="10" ry="10"></rect>
<text x="554" y="203">"MAX"</text>
</g>
<path d="M584 199h10"></path>
<g>
<path d="M594 199h0"></path>
<path d="M694 199h0"></path>
<path d="M594 199h20"></path>
<g class="terminal">
<path d="M614 199h0"></path>
<path d="M666 199h8"></path>
<rect x="614" y="188" width="52" height="22" rx="10" ry="10"></rect>
<text x="640" y="203">!"("</text>
</g>
<path d="M674 199h20"></path>
<path d="M594 199a10 10 0 0 1 10 10v10a10 10 0 0 0 10 10"></path>
<g class="terminal">
<path d="M614 229h0"></path>
<path d="M674 229h0"></path>
<rect x="614" y="218" width="60" height="22" rx="10" ry="10"></rect>
<text x="644" y="233">!"( "</text>
</g>
<path d="M674 229a10 10 0 0 0 10 -10v-10a10 10 0 0 1 10 -10"></path>
</g>
<path d="M694 199h10"></path>
<g class="non-terminal">
<path d="M704 199h0"></path>
<path d="M764 199h0"></path>
<rect x="704" y="188" width="60" height="22"></rect>
<a xlink:href="reuse_field.svg"><text x="734" y="203">Field</text>
</a>
</g>
<path d="M764 199h10"></path>
<path d="M774 199h10"></path>
<g class="terminal">
<path d="M784 199h0"></path>
<path d="M828 199h0"></path>
<rect x="784" y="188" width="44" height="22" rx="10" ry="10"></rect>
<text x="806" y="203">")"</text>
</g>
</g>
<path d="M1004 199a10 10 0 0 0 10 -10v-79a10 10 0 0 1 10 -10"></path>
<path d="M504 100a10 10 0 0 1 10 10v139a10 10 0 0 0 10 10"></path>
<g>
<path d="M524 259h0"></path>
<path d="M828 259h176"></path>
<g class="terminal">
<path d="M524 259h0"></path>
<path d="M584 259h0"></path>
<rect x="524" y="248" width="60" height="22" rx="10" ry="10"></rect>
<text x="554" y="263">"MIN"</text>
</g>
<path d="M584 259h10"></path>
<g>
<path d="M594 259h0"></path>
<path d="M694 259h0"></path>
<path d="M594 259h20"></path>
<g class="terminal">
<path d="M614 259h0"></path>
<path d="M666 259h8"></path>
<rect x="614" y="248" width="52" height="22" rx="10" ry="10"></rect>
<text x="640" y="263">!"("</text>
</g>
<path d="M674 259h20"></path>
<path d="M594 259a10 10 0 0 1 10 10v10a10 10 0 0 0 10 10"></path>
<g class="terminal">
<path d="M614 289h0"></path>
<path d="M674 289h0"></path>
<rect x="614" y="278" width="60" height="22" rx="10" ry="10"></rect>
<text x="644" y="293">!"( "</text>
</g>
<path d="M674 289a10 10 0 0 0 10 -10v-10a10 10 0 0 1 10 -10"></path>
</g>
<path d="M694 259h10"></path>
<g class="non-terminal">
<path d="M704 259h0"></path>
<path d="M764 259h0"></path>
<rect x="704" y="248" width="60" height="22"></rect>
<a xlink:href="reuse_field.svg"><text x="734" y="263">Field</text>
</a>
</g>
<path d="M764 259h10"></path>
<path d="M774 259h10"></path>
<g class="terminal">
<path d="M784 259h0"></path>
<path d="M828 259h0"></path>
<rect x="784" y="248" width="44" height="22" rx="10" ry="10"></rect>
<text x="806" y="263">")"</text>
</g>
</g>
<path d="M1004 259a10 10 0 0 0 10 -10v-139a10 10 0 0 1 10 -10"></path>
<path d="M504 100a10 10 0 0 1 10 10v199a10 10 0 0 0 10 10"></path>
<g>
<path d="M524 319h0"></path>
<path d="M828 319h176"></path>
<g class="terminal">
<path d="M524 319h0"></path>
<path d="M584 319h0"></path>
<rect x="524" y="308" width="60" height="22" rx="10" ry="10"></rect>
<text x="554" y="323">"SUM"</text>
</g>
<path d="M584 319h10"></path>
<g>
<path d="M594 319h0"></path>
<path d="M694 319h0"></path>
<path d="M594 319h20"></path>
<g class="terminal">
<path d="M614 319h0"></path>
<path d="M666 319h8"></path>
<rect x="614" y="308" width="52" height="22" rx="10" ry="10"></rect>
<text x="640" y="323">!"("</text>
</g>
<path d="M674 319h20"></path>
<path d="M594 319a10 10 0 0 1 10 10v10a10 10 0 0 0 10 10"></path>
<g class="terminal">
<path d="M614 349h0"></path>
<path d="M674 349h0"></path>
<rect x="614" y="338" width="60" height="22" rx="10" ry="10"></rect>
<text x="644" y="353">!"( "</text>
</g>
<path d="M674 349a10 10 0 0 0 10 -10v-10a10 10 0 0 1 10 -10"></path>
</g>
<path d="M694 319h10"></path>
<g class="non-terminal">
<path d="M704 319h0"></path>
<path d="M764 319h0"></path>
<rect x="704" y="308" width="60" height="22"></rect>
<a xlink:href="reuse_field.svg"><text x="734" y="323">Field</text>
</a>
</g>
<path d="M764 319h10"></path>
<path d="M774 319h10"></path>
<g class="terminal">
<path d="M784 319h0"></path>
<path d="M828 319h0"></path>
<rect x="784" y="308" width="44" height="22" rx="10" ry="10"></rect>
<text x="806" y="323">")"</text>
</g>
</g>
<path d="M1004 319a10 10 0 0 0 10 -10v-199a10 10 0 0 1 10 -10"></path>
</g>
<path d="M1024 100h10"></path>
<path d="M504 100a10 10 0 0 0 -10 10v248a10 10 0 0 0 10 10"></path>
<g>
<path d="M504 368h520"></path>
</g>
<path d="M1024 368a10 10 0 0 0 10 -10v-248a10 10 0 0 0 -10 -10"></path>
</g>
<path d="M1034 100a10 10 0 0 0 10 -10v-40a10 10 0 0 1 10 -10"></path>
</g>
<path d="M1054 40h10"></path>
<g>
<path d="M1064 40h0"></path>
<path d="M1942 40h0"></path>
<path d="M1094 40h10"></path>
<g>
<path d="M1104 40h0"></path>
<path d="M1880 40h32"></path>
<g>
<path d="M1104 40h0"></path>
<path d="M1626 40h0"></path>
<g class="terminal">
<path d="M1104 40h0"></path>
<path d="M1172 40h0"></path>
<rect x="1104" y="29" width="68" height="22" rx="10" ry="10"></rect>
<text x="1138" y="44">"FROM"</text>
</g>
<path d="M1172 40h10"></path>
<g>
<path d="M1182 40h0"></path>
<path d="M1290 40h0"></path>
<path d="M1182 40a10 10 0 0 0 10 -10v0a10 10 0 0 1 10 -10"></path>
<g>
<path d="M1202 20h68"></path>
</g>
<path d="M1270 20a10 10 0 0 1 10 10v0a10 10 0 0 0 10 10"></path>
<path d="M1182 40h20"></path>
<g class="terminal">
<path d="M1202 40h0"></path>
<path d="M1270 40h0"></path>
<rect x="1202" y="29" width="68" height="22" rx="10" ry="10"></rect>
<text x="1236" y="44">!" ( "</text>
</g>
<path d="M1270 40h20"></path>
</g>
<g>
<path d="M1290 40h0"></path>
<path d="M1454 40h0"></path>
<path d="M1290 40h20"></path>
<g class="non-terminal">
<path d="M1310 40h0"></path>
<path d="M1386 40h48"></path>
<rect x="1310" y="29" width="76" height="22"></rect>
<a xlink:href="reuse_dynamic.svg"><text x="1348" y="44">Dynamic</text>
</a>
</g>
<path d="M1434 40h20"></path>
<path d="M1290 40a10 10 0 0 1 10 10v10a10 10 0 0 0 10 10"></path>
<g class="non-terminal">
<path d="M1310 70h0"></path>
<path d="M1434 70h0"></path>
<rect x="1310" y="59" width="124" height="22"></rect>
<a xlink:href="reuse_databasetable.svg"><text x="1372" y="74">DatabaseTable</text>
</a>
</g>
<path d="M1434 70a10 10 0 0 0 10 -10v-10a10 10 0 0 1 10 -10"></path>
</g>
<g>
<path d="M1454 40h0"></path>
<path d="M1626 40h0"></path>
<path d="M1454 40a10 10 0 0 0 10 -10v0a10 10 0 0 1 10 -10"></path>
<g>
<path d="M1474 20h132"></path>
</g>
<path d="M1606 20a10 10 0 0 1 10 10v0a10 10 0 0 0 10 10"></path>
<path d="M1454 40h20"></path>
<g>
<path d="M1474 40h0"></path>
<path d="M1606 40h0"></path>
<g class="terminal">
<path d="M1474 40h0"></path>
<path d="M1526 40h0"></path>
<rect x="1474" y="29" width="52" height="22" rx="10" ry="10"></rect>
<text x="1500" y="44">"AS"</text>
</g>
<path d="M1526 40h10"></path>
<path d="M1536 40h10"></path>
<g class="non-terminal">
<path d="M1546 40h0"></path>
<path d="M1606 40h0"></path>
<rect x="1546" y="29" width="60" height="22"></rect>
<a xlink:href="reuse_field.svg"><text x="1576" y="44">Field</text>
</a>
</g>
</g>
<path d="M1606 40h20"></path>
</g>
</g>
<path d="M1626 40h10"></path>
<g>
<path d="M1636 40h0"></path>
<path d="M1772 40h0"></path>
<path d="M1636 40a10 10 0 0 0 10 -10v0a10 10 0 0 1 10 -10"></path>
<g>
<path d="M1656 20h96"></path>
</g>
<path d="M1752 20a10 10 0 0 1 10 10v0a10 10 0 0 0 10 10"></path>
<path d="M1636 40h20"></path>
<g>
<path d="M1656 40h0"></path>
<path d="M1752 40h0"></path>
<path d="M1656 40h10"></path>
<g class="non-terminal">
<path d="M1666 40h0"></path>
<path d="M1742 40h0"></path>
<rect x="1666" y="29" width="76" height="22"></rect>
<a xlink:href="reuse_sqljoin.svg"><text x="1704" y="44">SQLJoin</text>
</a>
</g>
<path d="M1742 40h10"></path>
<path d="M1666 40a10 10 0 0 0 -10 10v0a10 10 0 0 0 10 10"></path>
<g>
<path d="M1666 60h76"></path>
</g>
<path d="M1742 60a10 10 0 0 0 10 -10v0a10 10 0 0 0 -10 -10"></path>
</g>
<path d="M1752 40h20"></path>
</g>
<g>
<path d="M1772 40h0"></path>
<path d="M1880 40h0"></path>
<path d="M1772 40a10 10 0 0 0 10 -10v0a10 10 0 0 1 10 -10"></path>
<g>
<path d="M1792 20h68"></path>
</g>
<path d="M1860 20a10 10 0 0 1 10 10v0a10 10 0 0 0 10 10"></path>
<path d="M1772 40h20"></path>
<g class="terminal">
<path d="M1792 40h0"></path>
<path d="M1860 40h0"></path>
<rect x="1792" y="29" width="68" height="22" rx="10" ry="10"></rect>
<text x="1826" y="44">!" ) "</text>
</g>
<path d="M1860 40h20"></path>
</g>
</g>
<path d="M1912 40h10"></path>
<path d="M1094 40v59a10 10 0 0 0 10 10"></path>
<g>
<path d="M1104 109h0"></path>
<path d="M1912 109h0"></path>
<path d="M1104 109h20"></path>
<g>
<path d="M1124 109h0"></path>
<path d="M1766 109h126"></path>
<g class="terminal">
<path d="M1124 109h0"></path>
<path d="M1192 109h0"></path>
<rect x="1124" y="98" width="68" height="22" rx="10" ry="10"></rect>
<text x="1158" y="113">"INTO"</text>
</g>
<path d="M1192 109h10"></path>
<g>
<path d="M1202 109h0"></path>
<path d="M1766 109h0"></path>
<path d="M1202 109h20"></path>
<g>
<path d="M1222 109h0"></path>
<path d="M1626 109h120"></path>
<g class="terminal">
<path d="M1222 109h0"></path>
<path d="M1282 109h0"></path>
<rect x="1222" y="98" width="60" height="22" rx="10" ry="10"></rect>
<text x="1252" y="113">!" ("</text>
</g>
<path d="M1282 109h10"></path>
<g>
<path d="M1292 109h0"></path>
<path d="M1484 109h0"></path>
<path d="M1292 109a10 10 0 0 0 10 -10v0a10 10 0 0 1 10 -10"></path>
<g>
<path d="M1312 89h152"></path>
</g>
<path d="M1464 89a10 10 0 0 1 10 10v0a10 10 0 0 0 10 10"></path>
<path d="M1292 109h20"></path>
<g>
<path d="M1312 109h0"></path>
<path d="M1464 109h0"></path>
<path d="M1312 109h10"></path>
<g>
<path d="M1322 109h0"></path>
<path d="M1454 109h0"></path>
<g class="non-terminal">
<path d="M1322 109h0"></path>
<path d="M1390 109h0"></path>
<rect x="1322" y="98" width="68" height="22"></rect>
<a xlink:href="reuse_target.svg"><text x="1356" y="113">Target</text>
</a>
</g>
<path d="M1390 109h10"></path>
<path d="M1400 109h10"></path>
<g class="terminal">
<path d="M1410 109h0"></path>
<path d="M1454 109h0"></path>
<rect x="1410" y="98" width="44" height="22" rx="10" ry="10"></rect>
<text x="1432" y="113">","</text>
</g>
</g>
<path d="M1454 109h10"></path>
<path d="M1322 109a10 10 0 0 0 -10 10v0a10 10 0 0 0 10 10"></path>
<g>
<path d="M1322 129h132"></path>
</g>
<path d="M1454 129a10 10 0 0 0 10 -10v0a10 10 0 0 0 -10 -10"></path>
</g>
<path d="M1464 109h20"></path>
</g>
<path d="M1484 109h10"></path>
<g class="non-terminal">
<path d="M1494 109h0"></path>
<path d="M1562 109h0"></path>
<rect x="1494" y="98" width="68" height="22"></rect>
<a xlink:href="reuse_target.svg"><text x="1528" y="113">Target</text>
</a>
</g>
<path d="M1562 109h10"></path>
<path d="M1572 109h10"></path>
<g class="terminal">
<path d="M1582 109h0"></path>
<path d="M1626 109h0"></path>
<rect x="1582" y="98" width="44" height="22" rx="10" ry="10"></rect>
<text x="1604" y="113">")"</text>
</g>
</g>
<path d="M1746 109h20"></path>
<path d="M1202 109a10 10 0 0 1 10 10v28a10 10 0 0 0 10 10"></path>
<g>
<path d="M1222 157h0"></path>
<path d="M1746 157h0"></path>
<g>
<path d="M1222 157h0"></path>
<path d="M1482 157h0"></path>
<path d="M1222 157a10 10 0 0 0 10 -10v0a10 10 0 0 1 10 -10"></path>
<g>
<path d="M1242 137h220"></path>
</g>
<path d="M1462 137a10 10 0 0 1 10 10v0a10 10 0 0 0 10 10"></path>
<path d="M1222 157h20"></path>
<g class="terminal">
<path d="M1242 157h0"></path>
<path d="M1462 157h0"></path>
<rect x="1242" y="146" width="220" height="22" rx="10" ry="10"></rect>
<text x="1352" y="161">"CORRESPONDING FIELDS OF"</text>
</g>
<path d="M1462 157h20"></path>
</g>
<g>
<path d="M1482 157h0"></path>
<path d="M1668 157h0"></path>
<path d="M1482 157a10 10 0 0 0 10 -10v0a10 10 0 0 1 10 -10"></path>
<g>
<path d="M1502 137h146"></path>
</g>
<path d="M1648 137a10 10 0 0 1 10 10v0a10 10 0 0 0 10 10"></path>
<path d="M1482 157h20"></path>
<g>
<path d="M1502 157h0"></path>
<path d="M1648 157h0"></path>
<g>
<path d="M1502 157h0"></path>
<path d="M1568 157h0"></path>
<text x="1535" y="162" class="comment">v740sp05</text>
</g>
<path d="M1568 157h10"></path>
<path d="M1578 157h10"></path>
<g class="terminal">
<path d="M1588 157h0"></path>
<path d="M1648 157h0"></path>
<rect x="1588" y="146" width="60" height="22" rx="10" ry="10"></rect>
<text x="1618" y="161">!" @"</text>
</g>
</g>
<path d="M1648 157h20"></path>
</g>
<path d="M1668 157h10"></path>
<g class="non-terminal">
<path d="M1678 157h0"></path>
<path d="M1746 157h0"></path>
<rect x="1678" y="146" width="68" height="22"></rect>
<a xlink:href="reuse_target.svg"><text x="1712" y="161">Target</text>
</a>
</g>
</g>
<path d="M1746 157a10 10 0 0 0 10 -10v-28a10 10 0 0 1 10 -10"></path>
</g>
</g>
<path d="M1892 109h20"></path>
<path d="M1104 109a10 10 0 0 1 10 10v67a10 10 0 0 0 10 10"></path>
<g>
<path d="M1124 196h0"></path>
<path d="M1892 196h0"></path>
<g>
<path d="M1124 196h0"></path>
<path d="M1272 196h0"></path>
<path d="M1124 196h20"></path>
<g class="terminal">
<path d="M1144 196h0"></path>
<path d="M1212 196h40"></path>
<rect x="1144" y="185" width="68" height="22" rx="10" ry="10"></rect>
<text x="1178" y="200">"INTO"</text>
</g>
<path d="M1252 196h20"></path>
<path d="M1124 196a10 10 0 0 1 10 10v10a10 10 0 0 0 10 10"></path>
<g class="terminal">
<path d="M1144 226h0"></path>
<path d="M1252 226h0"></path>
<rect x="1144" y="215" width="108" height="22" rx="10" ry="10"></rect>
<text x="1198" y="230">"APPENDING"</text>
</g>
<path d="M1252 226a10 10 0 0 0 10 -10v-10a10 10 0 0 1 10 -10"></path>
</g>
<g>
<path d="M1272 196h0"></path>
<path d="M1532 196h0"></path>
<path d="M1272 196a10 10 0 0 0 10 -10v0a10 10 0 0 1 10 -10"></path>
<g>
<path d="M1292 176h220"></path>
</g>
<path d="M1512 176a10 10 0 0 1 10 10v0a10 10 0 0 0 10 10"></path>
<path d="M1272 196h20"></path>
<g class="terminal">
<path d="M1292 196h0"></path>
<path d="M1512 196h0"></path>
<rect x="1292" y="185" width="220" height="22" rx="10" ry="10"></rect>
<text x="1402" y="200">"CORRESPONDING FIELDS OF"</text>
</g>
<path d="M1512 196h20"></path>
</g>
<path d="M1532 196h10"></path>
<g class="terminal">
<path d="M1542 196h0"></path>
<path d="M1618 196h0"></path>
<rect x="1542" y="185" width="76" height="22" rx="10" ry="10"></rect>
<text x="1580" y="200">"TABLE"</text>
</g>
<path d="M1618 196h10"></path>
<g>
<path d="M1628 196h0"></path>
<path d="M1814 196h0"></path>
<path d="M1628 196a10 10 0 0 0 10 -10v0a10 10 0 0 1 10 -10"></path>
<g>
<path d="M1648 176h146"></path>
</g>
<path d="M1794 176a10 10 0 0 1 10 10v0a10 10 0 0 0 10 10"></path>
<path d="M1628 196h20"></path>
<g>
<path d="M1648 196h0"></path>
<path d="M1794 196h0"></path>
<g>
<path d="M1648 196h0"></path>
<path d="M1714 196h0"></path>
<text x="1681" y="201" class="comment">v740sp05</text>
</g>
<path d="M1714 196h10"></path>
<path d="M1724 196h10"></path>
<g class="terminal">
<path d="M1734 196h0"></path>
<path d="M1794 196h0"></path>
<rect x="1734" y="185" width="60" height="22" rx="10" ry="10"></rect>
<text x="1764" y="200">!" @"</text>
</g>
</g>
<path d="M1794 196h20"></path>
</g>
<path d="M1814 196h10"></path>
<g class="non-terminal">
<path d="M1824 196h0"></path>
<path d="M1892 196h0"></path>
<rect x="1824" y="185" width="68" height="22"></rect>
<a xlink:href="reuse_target.svg"><text x="1858" y="200">Target</text>
</a>
</g>
</g>
<path d="M1892 196a10 10 0 0 0 10 -10v-67a10 10 0 0 1 10 -10"></path>
</g>
<path d="M1912 109a10 10 0 0 0 10 -10v-59"></path>
<path d="M1094 40v206a10 10 0 0 0 10 10"></path>
<g>
<path d="M1104 256h0"></path>
<path d="M1372 256h540"></path>
<g class="terminal">
<path d="M1104 256h0"></path>
<path d="M1284 256h0"></path>
<rect x="1104" y="245" width="180" height="22" rx="10" ry="10"></rect>
<text x="1194" y="260">"FOR ALL ENTRIES IN"</text>
</g>
<path d="M1284 256h10"></path>
<path d="M1294 256h10"></path>
<g class="non-terminal">
<path d="M1304 256h0"></path>
<path d="M1372 256h0"></path>
<rect x="1304" y="245" width="68" height="22"></rect>
<a xlink:href="reuse_source.svg"><text x="1338" y="260">Source</text>
</a>
</g>
</g>
<path d="M1912 256a10 10 0 0 0 10 -10v-206"></path>
<path d="M1094 40v236a10 10 0 0 0 10 10"></path>
<g>
<path d="M1104 286h0"></path>
<path d="M1276 286h636"></path>
<g class="terminal">
<path d="M1104 286h0"></path>
<path d="M1180 286h0"></path>
<rect x="1104" y="275" width="76" height="22" rx="10" ry="10"></rect>
<text x="1142" y="290">"WHERE"</text>
</g>
<path d="M1180 286h10"></path>
<path d="M1190 286h10"></path>
<g class="non-terminal">
<path d="M1200 286h0"></path>
<path d="M1276 286h0"></path>
<rect x="1200" y="275" width="76" height="22"></rect>
<a xlink:href="reuse_sqlcond.svg"><text x="1238" y="290">SQLCond</text>
</a>
</g>
</g>
<path d="M1912 286a10 10 0 0 0 10 -10v-236"></path>
<path d="M1094 40v266a10 10 0 0 0 10 10"></path>
<g>
<path d="M1104 316h0"></path>
<path d="M1378 316h534"></path>
<g class="terminal">
<path d="M1104 316h0"></path>
<path d="M1204 316h0"></path>
<rect x="1104" y="305" width="100" height="22" rx="10" ry="10"></rect>
<text x="1154" y="320">"ORDER BY"</text>
</g>
<path d="M1204 316h10"></path>
<g>
<path d="M1214 316h0"></path>
<path d="M1378 316h0"></path>
<path d="M1214 316h20"></path>
<g>
<path d="M1234 316h0"></path>
<path d="M1314 316h44"></path>
<path d="M1234 316h10"></path>
<g class="non-terminal">
<path d="M1244 316h0"></path>
<path d="M1304 316h0"></path>
<rect x="1244" y="305" width="60" height="22"></rect>
<a xlink:href="reuse_field.svg"><text x="1274" y="320">Field</text>
</a>
</g>
<path d="M1304 316h10"></path>
<path d="M1244 316a10 10 0 0 0 -10 10v0a10 10 0 0 0 10 10"></path>
<g>
<path d="M1244 336h60"></path>
</g>
<path d="M1304 336a10 10 0 0 0 10 -10v0a10 10 0 0 0 -10 -10"></path>
</g>
<path d="M1358 316h20"></path>
<path d="M1214 316a10 10 0 0 1 10 10v19a10 10 0 0 0 10 10"></path>
<g class="terminal">
<path d="M1234 355h0"></path>
<path d="M1358 355h0"></path>
<rect x="1234" y="344" width="124" height="22" rx="10" ry="10"></rect>
<text x="1296" y="359">"PRIMARY KEY"</text>
</g>
<path d="M1358 355a10 10 0 0 0 10 -10v-19a10 10 0 0 1 10 -10"></path>
<path d="M1214 316a10 10 0 0 1 10 10v49a10 10 0 0 0 10 10"></path>
<g class="non-terminal">
<path d="M1234 385h0"></path>
<path d="M1310 385h48"></path>
<rect x="1234" y="374" width="76" height="22"></rect>
<a xlink:href="reuse_dynamic.svg"><text x="1272" y="389">Dynamic</text>
</a>
</g>
<path d="M1358 385a10 10 0 0 0 10 -10v-49a10 10 0 0 1 10 -10"></path>
</g>
</g>
<path d="M1912 316a10 10 0 0 0 10 -10v-266"></path>
<path d="M1094 40v365a10 10 0 0 0 10 10"></path>
<g>
<path d="M1104 415h0"></path>
<path d="M1356 415h556"></path>
<g class="terminal">
<path d="M1104 415h0"></path>
<path d="M1180 415h0"></path>
<rect x="1104" y="404" width="76" height="22" rx="10" ry="10"></rect>
<text x="1142" y="419">"UP TO"</text>
</g>
<path d="M1180 415h10"></path>
<path d="M1190 415h10"></path>
<g class="non-terminal">
<path d="M1200 415h0"></path>
<path d="M1268 415h0"></path>
<rect x="1200" y="404" width="68" height="22"></rect>
<a xlink:href="reuse_source.svg"><text x="1234" y="419">Source</text>
</a>
</g>
<path d="M1268 415h10"></path>
<path d="M1278 415h10"></path>
<g class="terminal">
<path d="M1288 415h0"></path>
<path d="M1356 415h0"></path>
<rect x="1288" y="404" width="68" height="22" rx="10" ry="10"></rect>
<text x="1322" y="419">"ROWS"</text>
</g>
</g>
<path d="M1912 415a10 10 0 0 0 10 -10v-365"></path>
<path d="M1094 40v395a10 10 0 0 0 10 10"></path>
<g class="terminal">
<path d="M1104 445h0"></path>
<path d="M1268 445h644"></path>
<rect x="1104" y="434" width="164" height="22" rx="10" ry="10"></rect>
<text x="1186" y="449">"CLIENT SPECIFIED"</text>
</g>
<path d="M1912 445a10 10 0 0 0 10 -10v-395"></path>
<path d="M1094 40v425a10 10 0 0 0 10 10"></path>
<g class="terminal">
<path d="M1104 475h0"></path>
<path d="M1268 475h644"></path>
<rect x="1104" y="464" width="164" height="22" rx="10" ry="10"></rect>
<text x="1186" y="479">"BYPASSING BUFFER"</text>
</g>
<path d="M1912 475a10 10 0 0 0 10 -10v-425"></path>
<path d="M1094 40v455a10 10 0 0 0 10 10"></path>
<g>
<path d="M1104 505h0"></path>
<path d="M1324 505h588"></path>
<g class="terminal">
<path d="M1104 505h0"></path>
<path d="M1236 505h0"></path>
<rect x="1104" y="494" width="132" height="22" rx="10" ry="10"></rect>
<text x="1170" y="509">"PACKAGE SIZE"</text>
</g>
<path d="M1236 505h10"></path>
<path d="M1246 505h10"></path>
<g class="non-terminal">
<path d="M1256 505h0"></path>
<path d="M1324 505h0"></path>
<rect x="1256" y="494" width="68" height="22"></rect>
<a xlink:href="reuse_source.svg"><text x="1290" y="509">Source</text>
</a>
</g>
</g>
<path d="M1912 505a10 10 0 0 0 10 -10v-455"></path>
<path d="M1094 40v485a10 10 0 0 0 10 10"></path>
<g>
<path d="M1104 535h0"></path>
<path d="M1330 535h582"></path>
<g class="terminal">
<path d="M1104 535h0"></path>
<path d="M1204 535h0"></path>
<rect x="1104" y="524" width="100" height="22" rx="10" ry="10"></rect>
<text x="1154" y="539">"GROUP BY"</text>
</g>
<path d="M1204 535h10"></path>
<g>
<path d="M1214 535h0"></path>
<path d="M1330 535h0"></path>
<path d="M1214 535h20"></path>
<g class="non-terminal">
<path d="M1234 535h0"></path>
<path d="M1294 535h16"></path>
<rect x="1234" y="524" width="60" height="22"></rect>
<a xlink:href="reuse_field.svg"><text x="1264" y="539">Field</text>
</a>
</g>
<path d="M1310 535h20"></path>
<path d="M1214 535a10 10 0 0 1 10 10v10a10 10 0 0 0 10 10"></path>
<g class="non-terminal">
<path d="M1234 565h0"></path>
<path d="M1310 565h0"></path>
<rect x="1234" y="554" width="76" height="22"></rect>
<a xlink:href="reuse_dynamic.svg"><text x="1272" y="569">Dynamic</text>
</a>
</g>
<path d="M1310 565a10 10 0 0 0 10 -10v-10a10 10 0 0 1 10 -10"></path>
</g>
</g>
<path d="M1912 535a10 10 0 0 0 10 -10v-485"></path>
<path d="M1094 40v545a10 10 0 0 0 10 10"></path>
<g>
<path d="M1104 595h0"></path>
<path d="M1316 595h596"></path>
<g class="terminal">
<path d="M1104 595h0"></path>
<path d="M1220 595h0"></path>
<rect x="1104" y="584" width="116" height="22" rx="10" ry="10"></rect>
<text x="1162" y="599">"CONNECTION"</text>
</g>
<path d="M1220 595h10"></path>
<path d="M1230 595h10"></path>
<g class="non-terminal">
<path d="M1240 595h0"></path>
<path d="M1316 595h0"></path>
<rect x="1240" y="584" width="76" height="22"></rect>
<a xlink:href="reuse_dynamic.svg"><text x="1278" y="599">Dynamic</text>
</a>
</g>
</g>
<path d="M1912 595a10 10 0 0 0 10 -10v-545"></path>
<g class="diagram-text">
<title>take one or more branches, once each, in any order</title>
<path d="M 1094 30 h -26 a 4 4 0 0 0 -4 4 v 12 a 4 4 0 0 0 4 4 h 26 z" class="diagram-text"></path>
<text x="1079" y="44" class="diagram-text">1+</text>
<path d="M 1922 30 h 16 a 4 4 0 0 1 4 4 v 12 a 4 4 0 0 1 -4 4 h -16 z" class="diagram-text"></path>
<path d="M 1929 38 a 4 4 0 1 0 6 -1 m 2.75 -1 h -4 v 4 m 0 -3 h 2" style="stroke-width: 1.75"></path>
</g>
</g>
</g>
<path d="M1942 40h10"></path>
<path d="M 1952 40 h 20 m 0 -10 v 20"></path>
</g>
</svg>
