<?xml version="1.0" encoding="UTF-8" standalone="no"?>
<!DOCTYPE svg PUBLIC "-//W3C//DTD SVG 1.1//EN"
 "http://www.w3.org/Graphics/SVG/1.1/DTD/svg11.dtd">
<!-- Generated by graphviz version 2.38.0 (20140413.2041)
 -->
<!-- Title: arrow Pages: 1 -->
<svg width="105pt" height="188pt"
 viewBox="0.00 0.00 104.61 188.00" xmlns="http://www.w3.org/2000/svg" xmlns:xlink="http://www.w3.org/1999/xlink">
<g id="graph0" class="graph" transform="scale(1 1) rotate(0) translate(4 184)">
<title>arrow</title>
<polygon fill="white" stroke="none" points="-4,4 -4,-184 100.609,-184 100.609,4 -4,4"/>
<!-- start -->
<g id="node1" class="node"><title>start</title>
<polygon fill="none" stroke="blue" points="75.3046,-180 21.3046,-180 21.3046,-144 75.3046,-144 75.3046,-180"/>
<text text-anchor="middle" x="48.3046" y="-157.8" font-family="Times,serif" font-size="14.00">Start</text>
</g>
<!-- node21 -->
<g id="node3" class="node"><title>node21</title>
<ellipse fill="none" stroke="black" cx="48.3046" cy="-90" rx="48.11" ry="18"/>
<text text-anchor="middle" x="48.3046" y="-85.8" font-family="Times,serif" font-size="14.00">^(&#45;&gt;|=&gt;)$</text>
</g>
<!-- start&#45;&gt;node21 -->
<g id="edge2" class="edge"><title>start&#45;&gt;node21</title>
<path fill="none" stroke="black" d="M48.3046,-143.697C48.3046,-135.983 48.3046,-126.712 48.3046,-118.112"/>
<polygon fill="black" stroke="black" points="51.8047,-118.104 48.3046,-108.104 44.8047,-118.104 51.8047,-118.104"/>
</g>
<!-- end -->
<g id="node2" class="node"><title>end</title>
<polygon fill="none" stroke="blue" points="75.3046,-36 21.3046,-36 21.3046,-0 75.3046,-0 75.3046,-36"/>
<text text-anchor="middle" x="48.3046" y="-13.8" font-family="Times,serif" font-size="14.00">End</text>
</g>
<!-- node21&#45;&gt;end -->
<g id="edge1" class="edge"><title>node21&#45;&gt;end</title>
<path fill="none" stroke="black" d="M48.3046,-71.6966C48.3046,-63.9827 48.3046,-54.7125 48.3046,-46.1124"/>
<polygon fill="black" stroke="black" points="51.8047,-46.1043 48.3046,-36.1043 44.8047,-46.1044 51.8047,-46.1043"/>
</g>
</g>
</svg>
