<svg xmlns="http://www.w3.org/2000/svg" xmlns:xlink="http://www.w3.org/1999/xlink" class="railroad-diagram" width="568" height="122" viewBox="0 0 568 122">
<defs>
<style type="text/css"><![CDATA[
path {
stroke-width: 3;
stroke: black;
fill: rgba(0,0,0,0);
}
text {
font: bold 14px monospace;
text-anchor: middle;
}
text.diagram-text {
font-size: 12px;
}
a {
fill: blue;
}
text.diagram-arrow {
font-size: 16px;
}
text.label {
text-anchor: start;
}
text.comment {
font: italic 12px monospace;
}
rect {
stroke-width: 3;
stroke: black;
fill: #BCBCBC;
}
path.diagram-text {
stroke-width: 3;
stroke: black;
fill: #BCBCBC;
cursor: help;
}
]]></style>
</defs>
<g transform="translate(.5 .5)">
<path d="M 20 21 v 20 m 0 -10 h 20.5"></path>
<path d="M40 31h10"></path>
<g>
<path d="M50 31h0"></path>
<path d="M518 31h0"></path>
<g class="non-terminal">
<path d="M50 31h0"></path>
<path d="M158 31h0"></path>
<rect x="50" y="20" width="108" height="22"></rect>
<a xlink:href="reuse_method_name.svg"><text x="104" y="35">method&#95;name</text>
</a>
</g>
<path d="M158 31h10"></path>
<g>
<path d="M168 31h0"></path>
<path d="M268 31h0"></path>
<path d="M168 31h20"></path>
<g class="terminal">
<path d="M188 31h0"></path>
<path d="M248 31h0"></path>
<rect x="188" y="20" width="60" height="22" rx="10" ry="10"></rect>
<text x="218" y="35">!"( "</text>
</g>
<path d="M248 31h20"></path>
<path d="M168 31a10 10 0 0 1 10 10v10a10 10 0 0 0 10 10"></path>
<g class="terminal">
<path d="M188 61h0"></path>
<path d="M240 61h8"></path>
<rect x="188" y="50" width="52" height="22" rx="10" ry="10"></rect>
<text x="214" y="65">!"("</text>
</g>
<path d="M248 61a10 10 0 0 0 10 -10v-10a10 10 0 0 1 10 -10"></path>
</g>
<g>
<path d="M268 31h0"></path>
<path d="M464 31h0"></path>
<path d="M268 31h20"></path>
<g class="non-terminal">
<path d="M288 31h0"></path>
<path d="M356 31h88"></path>
<rect x="288" y="20" width="68" height="22"></rect>
<a xlink:href="reuse_source.svg"><text x="322" y="35">source</text>
</a>
</g>
<path d="M444 31h20"></path>
<path d="M268 31a10 10 0 0 1 10 10v10a10 10 0 0 0 10 10"></path>
<g class="non-terminal">
<path d="M288 61h0"></path>
<path d="M436 61h8"></path>
<rect x="288" y="50" width="148" height="22"></rect>
<a xlink:href="reuse_parameter_list_s.svg"><text x="362" y="65">parameter&#95;list&#95;s</text>
</a>
</g>
<path d="M444 61a10 10 0 0 0 10 -10v-10a10 10 0 0 1 10 -10"></path>
<path d="M268 31a10 10 0 0 1 10 10v40a10 10 0 0 0 10 10"></path>
<g class="non-terminal">
<path d="M288 91h0"></path>
<path d="M444 91h0"></path>
<rect x="288" y="80" width="156" height="22"></rect>
<a xlink:href="reuse_method_parameters.svg"><text x="366" y="95">method&#95;parameters</text>
</a>
</g>
<path d="M444 91a10 10 0 0 0 10 -10v-40a10 10 0 0 1 10 -10"></path>
</g>
<path d="M464 31h10"></path>
<g class="terminal">
<path d="M474 31h0"></path>
<path d="M518 31h0"></path>
<rect x="474" y="20" width="44" height="22" rx="10" ry="10"></rect>
<text x="496" y="35">")"</text>
</g>
</g>
<path d="M518 31h10"></path>
<path d="M 528 31 h 20 m 0 -10 v 20"></path>
</g>
</svg>
