<svg xmlns="http://www.w3.org/2000/svg" xmlns:xlink="http://www.w3.org/1999/xlink" class="railroad-diagram" width="1316" height="772" viewBox="0 0 1316 772">
<defs>
<style type="text/css"><![CDATA[
path {
stroke-width: 3;
stroke: black;
fill: rgba(0,0,0,0);
}
text {
font: bold 14px monospace;
text-anchor: middle;
}
text.diagram-text {
font-size: 12px;
}
a {
fill: blue;
}
text.diagram-arrow {
font-size: 16px;
}
text.label {
text-anchor: start;
}
text.comment {
font: italic 12px monospace;
}
rect {
stroke-width: 3;
stroke: black;
fill: #BCBCBC;
}
path.diagram-text {
stroke-width: 3;
stroke: black;
fill: #BCBCBC;
cursor: help;
}
]]></style>
</defs>
<g transform="translate(.5 .5)">
<path d="M 20 30 v 20 m 0 -10 h 20.5"></path>
<g>
<path d="M40 40h0"></path>
<path d="M1276 40h0"></path>
<path d="M40 40h20"></path>
<g>
<path d="M60 40h0"></path>
<path d="M840 40h416"></path>
<g>
<path d="M60 40h0"></path>
<path d="M518 40h0"></path>
<path d="M60 40h20"></path>
<g class="non-terminal">
<path d="M80 40h0"></path>
<path d="M164 40h334"></path>
<rect x="80" y="29" width="84" height="22"></rect>
<a xlink:href="reuse_constant.svg"><text x="122" y="44">Constant</text>
</a>
</g>
<path d="M498 40h20"></path>
<path d="M60 40a10 10 0 0 1 10 10v10a10 10 0 0 0 10 10"></path>
<g class="non-terminal">
<path d="M80 70h0"></path>
<path d="M212 70h286"></path>
<rect x="80" y="59" width="132" height="22"></rect>
<a xlink:href="reuse_stringtemplate.svg"><text x="146" y="74">StringTemplate</text>
</a>
</g>
<path d="M498 70a10 10 0 0 0 10 -10v-10a10 10 0 0 1 10 -10"></path>
<path d="M60 40a10 10 0 0 1 10 10v40a10 10 0 0 0 10 10"></path>
<g>
<path d="M80 100h0"></path>
<path d="M418 100h80"></path>
<g>
<path d="M80 100h0"></path>
<path d="M212 100h0"></path>
<path d="M80 100h20"></path>
<g class="terminal">
<path d="M100 100h0"></path>
<path d="M176 100h16"></path>
<rect x="100" y="89" width="76" height="22" rx="10" ry="10"></rect>
<text x="138" y="104">"BOOLC"</text>
</g>
<path d="M192 100h20"></path>
<path d="M80 100a10 10 0 0 1 10 10v10a10 10 0 0 0 10 10"></path>
<g class="terminal">
<path d="M100 130h0"></path>
<path d="M192 130h0"></path>
<rect x="100" y="119" width="92" height="22" rx="10" ry="10"></rect>
<text x="146" y="134">"XSDBOOL"</text>
</g>
<path d="M192 130a10 10 0 0 0 10 -10v-10a10 10 0 0 1 10 -10"></path>
</g>
<path d="M212 100h10"></path>
<g class="terminal">
<path d="M222 100h0"></path>
<path d="M282 100h0"></path>
<rect x="222" y="89" width="60" height="22" rx="10" ry="10"></rect>
<text x="252" y="104">!"( "</text>
</g>
<path d="M282 100h10"></path>
<path d="M292 100h10"></path>
<g class="non-terminal">
<path d="M302 100h0"></path>
<path d="M354 100h0"></path>
<rect x="302" y="89" width="52" height="22"></rect>
<a xlink:href="reuse_cond.svg"><text x="328" y="104">Cond</text>
</a>
</g>
<path d="M354 100h10"></path>
<path d="M364 100h10"></path>
<g class="terminal">
<path d="M374 100h0"></path>
<path d="M418 100h0"></path>
<rect x="374" y="89" width="44" height="22" rx="10" ry="10"></rect>
<text x="396" y="104">")"</text>
</g>
</g>
<path d="M498 100a10 10 0 0 0 10 -10v-40a10 10 0 0 1 10 -10"></path>
<path d="M60 40a10 10 0 0 1 10 10v109a10 10 0 0 0 10 10"></path>
<g>
<path d="M80 169h0"></path>
<path d="M498 169h0"></path>
<g class="non-terminal">
<path d="M80 169h0"></path>
<path d="M220 169h0"></path>
<rect x="80" y="158" width="140" height="22"></rect>
<a xlink:href="reuse_methodcallchain.svg"><text x="150" y="173">MethodCallChain</text>
</a>
</g>
<path d="M220 169h10"></path>
<g>
<path d="M230 169h0"></path>
<path d="M498 169h0"></path>
<path d="M230 169a10 10 0 0 0 10 -10v0a10 10 0 0 1 10 -10"></path>
<g>
<path d="M250 149h228"></path>
</g>
<path d="M478 149a10 10 0 0 1 10 10v0a10 10 0 0 0 10 10"></path>
<path d="M230 169h20"></path>
<g>
<path d="M250 169h0"></path>
<path d="M478 169h0"></path>
<g class="non-terminal">
<path d="M250 169h0"></path>
<path d="M358 169h0"></path>
<rect x="250" y="158" width="108" height="22"></rect>
<a xlink:href="reuse_arrowordash.svg"><text x="304" y="173">ArrowOrDash</text>
</a>
</g>
<path d="M358 169h10"></path>
<path d="M368 169h10"></path>
<g class="non-terminal">
<path d="M378 169h0"></path>
<path d="M478 169h0"></path>
<rect x="378" y="158" width="100" height="22"></rect>
<a xlink:href="reuse_fieldchain.svg"><text x="428" y="173">FieldChain</text>
</a>
</g>
</g>
<path d="M478 169h20"></path>
</g>
</g>
<path d="M498 169a10 10 0 0 0 10 -10v-109a10 10 0 0 1 10 -10"></path>
<path d="M60 40a10 10 0 0 1 10 10v148a10 10 0 0 0 10 10"></path>
<g>
<path d="M80 208h0"></path>
<path d="M362 208h136"></path>
<g>
<path d="M80 208h0"></path>
<path d="M252 208h0"></path>
<path d="M80 208a10 10 0 0 0 10 -10v0a10 10 0 0 1 10 -10"></path>
<g>
<path d="M100 188h132"></path>
</g>
<path d="M232 188a10 10 0 0 1 10 10v0a10 10 0 0 0 10 10"></path>
<path d="M80 208h20"></path>
<g>
<path d="M100 208h0"></path>
<path d="M232 208h0"></path>
<path d="M100 208h20"></path>
<g class="terminal">
<path d="M120 208h0"></path>
<path d="M188 208h24"></path>
<rect x="120" y="197" width="68" height="22" rx="10" ry="10"></rect>
<text x="154" y="212">!" - "</text>
</g>
<path d="M212 208h20"></path>
<path d="M100 208a10 10 0 0 1 10 10v10a10 10 0 0 0 10 10"></path>
<g class="terminal">
<path d="M120 238h0"></path>
<path d="M212 238h0"></path>
<rect x="120" y="227" width="92" height="22" rx="10" ry="10"></rect>
<text x="166" y="242">"BIT-NOT"</text>
</g>
<path d="M212 238a10 10 0 0 0 10 -10v-10a10 10 0 0 1 10 -10"></path>
</g>
<path d="M232 208h20"></path>
</g>
<path d="M252 208h10"></path>
<g class="non-terminal">
<path d="M262 208h0"></path>
<path d="M362 208h0"></path>
<rect x="262" y="197" width="100" height="22"></rect>
<a xlink:href="reuse_fieldchain.svg"><text x="312" y="212">FieldChain</text>
</a>
</g>
</g>
<path d="M498 208a10 10 0 0 0 10 -10v-148a10 10 0 0 1 10 -10"></path>
<path d="M60 40a10 10 0 0 1 10 10v208a10 10 0 0 0 10 10"></path>
<g>
<path d="M80 268h0"></path>
<path d="M354 268h144"></path>
<g class="terminal">
<path d="M80 268h0"></path>
<path d="M148 268h0"></path>
<rect x="80" y="257" width="68" height="22" rx="10" ry="10"></rect>
<text x="114" y="272">!" ( "</text>
</g>
<path d="M148 268h10"></path>
<path d="M158 268h10"></path>
<g class="non-terminal">
<path d="M168 268h0"></path>
<path d="M236 268h0"></path>
<rect x="168" y="257" width="68" height="22"></rect>
<a xlink:href="reuse_source.svg"><text x="202" y="272">Source</text>
</a>
</g>
<path d="M236 268h10"></path>
<g>
<path d="M246 268h0"></path>
<path d="M354 268h0"></path>
<path d="M246 268h20"></path>
<g class="terminal">
<path d="M266 268h0"></path>
<path d="M334 268h0"></path>
<rect x="266" y="257" width="68" height="22" rx="10" ry="10"></rect>
<text x="300" y="272">!" ) "</text>
</g>
<path d="M334 268h20"></path>
<path d="M246 268a10 10 0 0 1 10 10v10a10 10 0 0 0 10 10"></path>
<g class="terminal">
<path d="M266 298h0"></path>
<path d="M326 298h8"></path>
<rect x="266" y="287" width="60" height="22" rx="10" ry="10"></rect>
<text x="296" y="302">!" )"</text>
</g>
<path d="M334 298a10 10 0 0 0 10 -10v-10a10 10 0 0 1 10 -10"></path>
</g>
</g>
<path d="M498 268a10 10 0 0 0 10 -10v-208a10 10 0 0 1 10 -10"></path>
</g>
<g>
<path d="M518 40h0"></path>
<path d="M840 40h0"></path>
<path d="M518 40a10 10 0 0 0 10 -10v0a10 10 0 0 1 10 -10"></path>
<g>
<path d="M538 20h282"></path>
</g>
<path d="M820 20a10 10 0 0 1 10 10v0a10 10 0 0 0 10 10"></path>
<path d="M518 40h20"></path>
<g>
<path d="M538 40h0"></path>
<path d="M820 40h0"></path>
<path d="M538 40h20"></path>
<g>
<path d="M558 40h0"></path>
<path d="M706 40h94"></path>
<g class="terminal">
<path d="M558 40h0"></path>
<path d="M642 40h0"></path>
<rect x="558" y="29" width="84" height="22" rx="10" ry="10"></rect>
<text x="600" y="44">!"->/=>"</text>
</g>
<path d="M642 40h10"></path>
<path d="M652 40h10"></path>
<g class="terminal">
<path d="M662 40h0"></path>
<path d="M706 40h0"></path>
<rect x="662" y="29" width="44" height="22" rx="10" ry="10"></rect>
<text x="684" y="44">"&#42;"</text>
</g>
</g>
<path d="M800 40h20"></path>
<path d="M538 40a10 10 0 0 1 10 10v10a10 10 0 0 0 10 10"></path>
<g>
<path d="M558 70h0"></path>
<path d="M800 70h0"></path>
<g>
<path d="M558 70h0"></path>
<path d="M722 70h0"></path>
<path d="M558 70h20"></path>
<g class="terminal">
<path d="M578 70h0"></path>
<path d="M622 70h80"></path>
<rect x="578" y="59" width="44" height="22" rx="10" ry="10"></rect>
<text x="600" y="74">"&#38;"</text>
</g>
<path d="M702 70h20"></path>
<path d="M558 70a10 10 0 0 1 10 10v10a10 10 0 0 0 10 10"></path>
<g class="terminal">
<path d="M578 100h0"></path>
<path d="M630 100h72"></path>
<rect x="578" y="89" width="52" height="22" rx="10" ry="10"></rect>
<text x="604" y="104">"&#38;&#38;"</text>
</g>
<path d="M702 100a10 10 0 0 0 10 -10v-10a10 10 0 0 1 10 -10"></path>
<path d="M558 70a10 10 0 0 1 10 10v40a10 10 0 0 0 10 10"></path>
<g class="non-terminal">
<path d="M578 130h0"></path>
<path d="M702 130h0"></path>
<rect x="578" y="119" width="124" height="22"></rect>
<a xlink:href="reuse_arithoperator.svg"><text x="640" y="134">ArithOperator</text>
</a>
</g>
<path d="M702 130a10 10 0 0 0 10 -10v-40a10 10 0 0 1 10 -10"></path>
</g>
<path d="M722 70h10"></path>
<g class="non-terminal">
<path d="M732 70h0"></path>
<path d="M800 70h0"></path>
<rect x="732" y="59" width="68" height="22"></rect>
<a xlink:href="reuse_source.svg"><text x="766" y="74">Source</text>
</a>
</g>
</g>
<path d="M800 70a10 10 0 0 0 10 -10v-10a10 10 0 0 1 10 -10"></path>
<path d="M538 40a10 10 0 0 1 10 10v100a10 10 0 0 0 10 10"></path>
<g class="non-terminal">
<path d="M558 160h0"></path>
<path d="M650 160h150"></path>
<rect x="558" y="149" width="92" height="22"></rect>
<a xlink:href="reuse_tablebody.svg"><text x="604" y="164">TableBody</text>
</a>
</g>
<path d="M800 160a10 10 0 0 0 10 -10v-100a10 10 0 0 1 10 -10"></path>
</g>
<path d="M820 40h20"></path>
</g>
</g>
<path d="M1256 40h20"></path>
<path d="M40 40a10 10 0 0 1 10 10v277a10 10 0 0 0 10 10"></path>
<g>
<path d="M60 337h0"></path>
<path d="M1256 337h0"></path>
<g>
<path d="M60 337h0"></path>
<path d="M126 337h0"></path>
<text x="93" y="342" class="comment">v740sp05</text>
</g>
<path d="M126 337h10"></path>
<path d="M136 337h10"></path>
<g>
<path d="M146 337h0"></path>
<path d="M1256 337h0"></path>
<g class="terminal">
<path d="M146 337h0"></path>
<path d="M286 337h0"></path>
<rect x="146" y="326" width="140" height="22" rx="10" ry="10"></rect>
<text x="216" y="341">"CORRESPONDING"</text>
</g>
<path d="M286 337h10"></path>
<path d="M296 337h10"></path>
<g class="non-terminal">
<path d="M306 337h0"></path>
<path d="M390 337h0"></path>
<rect x="306" y="326" width="84" height="22"></rect>
<a xlink:href="reuse_typename.svg"><text x="348" y="341">TypeName</text>
</a>
</g>
<path d="M390 337h10"></path>
<path d="M400 337h10"></path>
<g class="terminal">
<path d="M410 337h0"></path>
<path d="M470 337h0"></path>
<rect x="410" y="326" width="60" height="22" rx="10" ry="10"></rect>
<text x="440" y="341">!"( "</text>
</g>
<path d="M470 337h10"></path>
<path d="M480 337h10"></path>
<g class="non-terminal">
<path d="M490 337h0"></path>
<path d="M558 337h0"></path>
<rect x="490" y="326" width="68" height="22"></rect>
<a xlink:href="reuse_source.svg"><text x="524" y="341">Source</text>
</a>
</g>
<path d="M558 337h10"></path>
<g>
<path d="M568 337h0"></path>
<path d="M772 337h0"></path>
<path d="M568 337a10 10 0 0 0 10 -10v0a10 10 0 0 1 10 -10"></path>
<g>
<path d="M588 317h164"></path>
</g>
<path d="M752 317a10 10 0 0 1 10 10v0a10 10 0 0 0 10 10"></path>
<path d="M568 337h20"></path>
<g>
<path d="M588 337h0"></path>
<path d="M752 337h0"></path>
<g class="terminal">
<path d="M588 337h0"></path>
<path d="M672 337h0"></path>
<rect x="588" y="326" width="84" height="22" rx="10" ry="10"></rect>
<text x="630" y="341">"EXCEPT"</text>
</g>
<path d="M672 337h10"></path>
<path d="M682 337h10"></path>
<g class="non-terminal">
<path d="M692 337h0"></path>
<path d="M752 337h0"></path>
<rect x="692" y="326" width="60" height="22"></rect>
<a xlink:href="reuse_field.svg"><text x="722" y="341">Field</text>
</a>
</g>
</g>
<path d="M752 337h20"></path>
</g>
<g>
<path d="M772 337h0"></path>
<path d="M1148 337h0"></path>
<path d="M772 337a10 10 0 0 0 10 -10v0a10 10 0 0 1 10 -10"></path>
<g>
<path d="M792 317h336"></path>
</g>
<path d="M1128 317a10 10 0 0 1 10 10v0a10 10 0 0 0 10 10"></path>
<path d="M772 337h20"></path>
<g>
<path d="M792 337h0"></path>
<path d="M1128 337h0"></path>
<g class="terminal">
<path d="M792 337h0"></path>
<path d="M884 337h0"></path>
<rect x="792" y="326" width="92" height="22" rx="10" ry="10"></rect>
<text x="838" y="341">"MAPPING"</text>
</g>
<path d="M884 337h10"></path>
<path d="M894 337h10"></path>
<g>
<path d="M904 337h0"></path>
<path d="M1128 337h0"></path>
<path d="M904 337h10"></path>
<g>
<path d="M914 337h0"></path>
<path d="M1118 337h0"></path>
<g class="non-terminal">
<path d="M914 337h0"></path>
<path d="M974 337h0"></path>
<rect x="914" y="326" width="60" height="22"></rect>
<a xlink:href="reuse_field.svg"><text x="944" y="341">Field</text>
</a>
</g>
<path d="M974 337h10"></path>
<path d="M984 337h10"></path>
<g class="terminal">
<path d="M994 337h0"></path>
<path d="M1038 337h0"></path>
<rect x="994" y="326" width="44" height="22" rx="10" ry="10"></rect>
<text x="1016" y="341">"="</text>
</g>
<path d="M1038 337h10"></path>
<path d="M1048 337h10"></path>
<g class="non-terminal">
<path d="M1058 337h0"></path>
<path d="M1118 337h0"></path>
<rect x="1058" y="326" width="60" height="22"></rect>
<a xlink:href="reuse_field.svg"><text x="1088" y="341">Field</text>
</a>
</g>
</g>
<path d="M1118 337h10"></path>
<path d="M914 337a10 10 0 0 0 -10 10v0a10 10 0 0 0 10 10"></path>
<g>
<path d="M914 357h204"></path>
</g>
<path d="M1118 357a10 10 0 0 0 10 -10v0a10 10 0 0 0 -10 -10"></path>
</g>
</g>
<path d="M1128 337h20"></path>
</g>
<g>
<path d="M1148 337h0"></path>
<path d="M1256 337h0"></path>
<path d="M1148 337h20"></path>
<g class="terminal">
<path d="M1168 337h0"></path>
<path d="M1236 337h0"></path>
<rect x="1168" y="326" width="68" height="22" rx="10" ry="10"></rect>
<text x="1202" y="341">!" ) "</text>
</g>
<path d="M1236 337h20"></path>
<path d="M1148 337a10 10 0 0 1 10 10v10a10 10 0 0 0 10 10"></path>
<g class="terminal">
<path d="M1168 367h0"></path>
<path d="M1228 367h8"></path>
<rect x="1168" y="356" width="60" height="22" rx="10" ry="10"></rect>
<text x="1198" y="371">!" )"</text>
</g>
<path d="M1236 367a10 10 0 0 0 10 -10v-10a10 10 0 0 1 10 -10"></path>
</g>
</g>
</g>
<path d="M1256 337a10 10 0 0 0 10 -10v-277a10 10 0 0 1 10 -10"></path>
<path d="M40 40a10 10 0 0 1 10 10v337a10 10 0 0 0 10 10"></path>
<g>
<path d="M60 397h0"></path>
<path d="M604 397h652"></path>
<g>
<path d="M60 397h0"></path>
<path d="M126 397h0"></path>
<text x="93" y="402" class="comment">v740sp02</text>
</g>
<path d="M126 397h10"></path>
<path d="M136 397h10"></path>
<g>
<path d="M146 397h0"></path>
<path d="M604 397h0"></path>
<g class="terminal">
<path d="M146 397h0"></path>
<path d="M214 397h0"></path>
<rect x="146" y="386" width="68" height="22" rx="10" ry="10"></rect>
<text x="180" y="401">"CONV"</text>
</g>
<path d="M214 397h10"></path>
<path d="M224 397h10"></path>
<g class="non-terminal">
<path d="M234 397h0"></path>
<path d="M318 397h0"></path>
<rect x="234" y="386" width="84" height="22"></rect>
<a xlink:href="reuse_typename.svg"><text x="276" y="401">TypeName</text>
</a>
</g>
<path d="M318 397h10"></path>
<path d="M328 397h10"></path>
<g class="terminal">
<path d="M338 397h0"></path>
<path d="M398 397h0"></path>
<rect x="338" y="386" width="60" height="22" rx="10" ry="10"></rect>
<text x="368" y="401">!"( "</text>
</g>
<path d="M398 397h10"></path>
<path d="M408 397h10"></path>
<g class="non-terminal">
<path d="M418 397h0"></path>
<path d="M486 397h0"></path>
<rect x="418" y="386" width="68" height="22"></rect>
<a xlink:href="reuse_source.svg"><text x="452" y="401">Source</text>
</a>
</g>
<path d="M486 397h10"></path>
<g>
<path d="M496 397h0"></path>
<path d="M604 397h0"></path>
<path d="M496 397h20"></path>
<g class="terminal">
<path d="M516 397h0"></path>
<path d="M584 397h0"></path>
<rect x="516" y="386" width="68" height="22" rx="10" ry="10"></rect>
<text x="550" y="401">!" ) "</text>
</g>
<path d="M584 397h20"></path>
<path d="M496 397a10 10 0 0 1 10 10v10a10 10 0 0 0 10 10"></path>
<g class="terminal">
<path d="M516 427h0"></path>
<path d="M576 427h8"></path>
<rect x="516" y="416" width="60" height="22" rx="10" ry="10"></rect>
<text x="546" y="431">!" )"</text>
</g>
<path d="M584 427a10 10 0 0 0 10 -10v-10a10 10 0 0 1 10 -10"></path>
</g>
</g>
</g>
<path d="M1256 397a10 10 0 0 0 10 -10v-337a10 10 0 0 1 10 -10"></path>
<path d="M40 40a10 10 0 0 1 10 10v406a10 10 0 0 0 10 10"></path>
<g>
<path d="M60 466h0"></path>
<path d="M1032 466h224"></path>
<g>
<path d="M60 466h0"></path>
<path d="M126 466h0"></path>
<text x="93" y="471" class="comment">v740sp02</text>
</g>
<path d="M126 466h10"></path>
<path d="M136 466h10"></path>
<g>
<path d="M146 466h0"></path>
<path d="M1032 466h0"></path>
<g class="terminal">
<path d="M146 466h0"></path>
<path d="M222 466h0"></path>
<rect x="146" y="455" width="76" height="22" rx="10" ry="10"></rect>
<text x="184" y="470">"VALUE"</text>
</g>
<path d="M222 466h10"></path>
<path d="M232 466h10"></path>
<g class="non-terminal">
<path d="M242 466h0"></path>
<path d="M326 466h0"></path>
<rect x="242" y="455" width="84" height="22"></rect>
<a xlink:href="reuse_typename.svg"><text x="284" y="470">TypeName</text>
</a>
</g>
<path d="M326 466h10"></path>
<path d="M336 466h10"></path>
<g class="terminal">
<path d="M346 466h0"></path>
<path d="M406 466h0"></path>
<rect x="346" y="455" width="60" height="22" rx="10" ry="10"></rect>
<text x="376" y="470">!"( "</text>
</g>
<path d="M406 466h10"></path>
<g>
<path d="M416 466h0"></path>
<path d="M924 466h0"></path>
<path d="M416 466a10 10 0 0 0 10 -10v0a10 10 0 0 1 10 -10"></path>
<g>
<path d="M436 446h468"></path>
</g>
<path d="M904 446a10 10 0 0 1 10 10v0a10 10 0 0 0 10 10"></path>
<path d="M416 466h20"></path>
<g>
<path d="M436 466h0"></path>
<path d="M904 466h0"></path>
<path d="M436 466h20"></path>
<g class="non-terminal">
<path d="M456 466h0"></path>
<path d="M524 466h360"></path>
<rect x="456" y="455" width="68" height="22"></rect>
<a xlink:href="reuse_source.svg"><text x="490" y="470">Source</text>
</a>
</g>
<path d="M884 466h20"></path>
<path d="M436 466a10 10 0 0 1 10 10v10a10 10 0 0 0 10 10"></path>
<g>
<path d="M456 496h0"></path>
<path d="M688 496h196"></path>
<path d="M456 496h10"></path>
<g>
<path d="M466 496h0"></path>
<path d="M678 496h0"></path>
<g class="non-terminal">
<path d="M466 496h0"></path>
<path d="M526 496h0"></path>
<rect x="466" y="485" width="60" height="22"></rect>
<a xlink:href="reuse_field.svg"><text x="496" y="500">Field</text>
</a>
</g>
<path d="M526 496h10"></path>
<path d="M536 496h10"></path>
<g class="terminal">
<path d="M546 496h0"></path>
<path d="M590 496h0"></path>
<rect x="546" y="485" width="44" height="22" rx="10" ry="10"></rect>
<text x="568" y="500">"="</text>
</g>
<path d="M590 496h10"></path>
<path d="M600 496h10"></path>
<g class="non-terminal">
<path d="M610 496h0"></path>
<path d="M678 496h0"></path>
<rect x="610" y="485" width="68" height="22"></rect>
<a xlink:href="reuse_source.svg"><text x="644" y="500">Source</text>
</a>
</g>
</g>
<path d="M678 496h10"></path>
<path d="M466 496a10 10 0 0 0 -10 10v0a10 10 0 0 0 10 10"></path>
<g>
<path d="M466 516h212"></path>
</g>
<path d="M678 516a10 10 0 0 0 10 -10v0a10 10 0 0 0 -10 -10"></path>
</g>
<path d="M884 496a10 10 0 0 0 10 -10v-10a10 10 0 0 1 10 -10"></path>
<path d="M436 466a10 10 0 0 1 10 10v49a10 10 0 0 0 10 10"></path>
<g>
<path d="M456 535h0"></path>
<path d="M884 535h0"></path>
<path d="M456 535h10"></path>
<g>
<path d="M466 535h0"></path>
<path d="M874 535h0"></path>
<g class="terminal">
<path d="M466 535h0"></path>
<path d="M534 535h0"></path>
<rect x="466" y="524" width="68" height="22" rx="10" ry="10"></rect>
<text x="500" y="539">!" ( "</text>
</g>
<path d="M534 535h10"></path>
<path d="M544 535h10"></path>
<g>
<path d="M554 535h0"></path>
<path d="M786 535h0"></path>
<path d="M554 535h10"></path>
<g>
<path d="M564 535h0"></path>
<path d="M776 535h0"></path>
<g class="non-terminal">
<path d="M564 535h0"></path>
<path d="M624 535h0"></path>
<rect x="564" y="524" width="60" height="22"></rect>
<a xlink:href="reuse_field.svg"><text x="594" y="539">Field</text>
</a>
</g>
<path d="M624 535h10"></path>
<path d="M634 535h10"></path>
<g class="terminal">
<path d="M644 535h0"></path>
<path d="M688 535h0"></path>
<rect x="644" y="524" width="44" height="22" rx="10" ry="10"></rect>
<text x="666" y="539">"="</text>
</g>
<path d="M688 535h10"></path>
<path d="M698 535h10"></path>
<g class="non-terminal">
<path d="M708 535h0"></path>
<path d="M776 535h0"></path>
<rect x="708" y="524" width="68" height="22"></rect>
<a xlink:href="reuse_source.svg"><text x="742" y="539">Source</text>
</a>
</g>
</g>
<path d="M776 535h10"></path>
<path d="M564 535a10 10 0 0 0 -10 10v0a10 10 0 0 0 10 10"></path>
<g>
<path d="M564 555h212"></path>
</g>
<path d="M776 555a10 10 0 0 0 10 -10v0a10 10 0 0 0 -10 -10"></path>
</g>
<path d="M786 535h10"></path>
<path d="M796 535h10"></path>
<g class="terminal">
<path d="M806 535h0"></path>
<path d="M874 535h0"></path>
<rect x="806" y="524" width="68" height="22" rx="10" ry="10"></rect>
<text x="840" y="539">!" ) "</text>
</g>
</g>
<path d="M874 535h10"></path>
<path d="M466 535a10 10 0 0 0 -10 10v8a10 10 0 0 0 10 10"></path>
<g>
<path d="M466 563h408"></path>
</g>
<path d="M874 563a10 10 0 0 0 10 -10v-8a10 10 0 0 0 -10 -10"></path>
</g>
<path d="M884 535a10 10 0 0 0 10 -10v-49a10 10 0 0 1 10 -10"></path>
</g>
<path d="M904 466h20"></path>
</g>
<g>
<path d="M924 466h0"></path>
<path d="M1032 466h0"></path>
<path d="M924 466h20"></path>
<g class="terminal">
<path d="M944 466h0"></path>
<path d="M1012 466h0"></path>
<rect x="944" y="455" width="68" height="22" rx="10" ry="10"></rect>
<text x="978" y="470">!" ) "</text>
</g>
<path d="M1012 466h20"></path>
<path d="M924 466a10 10 0 0 1 10 10v10a10 10 0 0 0 10 10"></path>
<g class="terminal">
<path d="M944 496h0"></path>
<path d="M1004 496h8"></path>
<rect x="944" y="485" width="60" height="22" rx="10" ry="10"></rect>
<text x="974" y="500">!" )"</text>
</g>
<path d="M1012 496a10 10 0 0 0 10 -10v-10a10 10 0 0 1 10 -10"></path>
</g>
</g>
</g>
<path d="M1256 466a10 10 0 0 0 10 -10v-406a10 10 0 0 1 10 -10"></path>
<path d="M40 40a10 10 0 0 1 10 10v531a10 10 0 0 0 10 10"></path>
<g>
<path d="M60 591h0"></path>
<path d="M1068 591h188"></path>
<g>
<path d="M60 591h0"></path>
<path d="M126 591h0"></path>
<text x="93" y="596" class="comment">v740sp02</text>
</g>
<path d="M126 591h10"></path>
<path d="M136 591h10"></path>
<g>
<path d="M146 591h0"></path>
<path d="M1068 591h0"></path>
<g class="terminal">
<path d="M146 591h0"></path>
<path d="M214 591h0"></path>
<rect x="146" y="580" width="68" height="22" rx="10" ry="10"></rect>
<text x="180" y="595">"COND"</text>
</g>
<path d="M214 591h10"></path>
<path d="M224 591h10"></path>
<g class="non-terminal">
<path d="M234 591h0"></path>
<path d="M318 591h0"></path>
<rect x="234" y="580" width="84" height="22"></rect>
<a xlink:href="reuse_typename.svg"><text x="276" y="595">TypeName</text>
</a>
</g>
<path d="M318 591h10"></path>
<path d="M328 591h10"></path>
<g class="terminal">
<path d="M338 591h0"></path>
<path d="M398 591h0"></path>
<rect x="338" y="580" width="60" height="22" rx="10" ry="10"></rect>
<text x="368" y="595">!"( "</text>
</g>
<path d="M398 591h10"></path>
<path d="M408 591h10"></path>
<g>
<path d="M418 591h0"></path>
<path d="M754 591h0"></path>
<path d="M418 591h10"></path>
<g>
<path d="M428 591h0"></path>
<path d="M744 591h0"></path>
<g class="terminal">
<path d="M428 591h0"></path>
<path d="M496 591h0"></path>
<rect x="428" y="580" width="68" height="22" rx="10" ry="10"></rect>
<text x="462" y="595">"WHEN"</text>
</g>
<path d="M496 591h10"></path>
<path d="M506 591h10"></path>
<g class="non-terminal">
<path d="M516 591h0"></path>
<path d="M568 591h0"></path>
<rect x="516" y="580" width="52" height="22"></rect>
<a xlink:href="reuse_cond.svg"><text x="542" y="595">Cond</text>
</a>
</g>
<path d="M568 591h10"></path>
<path d="M578 591h10"></path>
<g class="terminal">
<path d="M588 591h0"></path>
<path d="M656 591h0"></path>
<rect x="588" y="580" width="68" height="22" rx="10" ry="10"></rect>
<text x="622" y="595">"THEN"</text>
</g>
<path d="M656 591h10"></path>
<path d="M666 591h10"></path>
<g class="non-terminal">
<path d="M676 591h0"></path>
<path d="M744 591h0"></path>
<rect x="676" y="580" width="68" height="22"></rect>
<a xlink:href="reuse_source.svg"><text x="710" y="595">Source</text>
</a>
</g>
</g>
<path d="M744 591h10"></path>
<path d="M428 591a10 10 0 0 0 -10 10v0a10 10 0 0 0 10 10"></path>
<g>
<path d="M428 611h316"></path>
</g>
<path d="M744 611a10 10 0 0 0 10 -10v0a10 10 0 0 0 -10 -10"></path>
</g>
<path d="M754 591h10"></path>
<g>
<path d="M764 591h0"></path>
<path d="M960 591h0"></path>
<path d="M764 591a10 10 0 0 0 10 -10v0a10 10 0 0 1 10 -10"></path>
<g>
<path d="M784 571h156"></path>
</g>
<path d="M940 571a10 10 0 0 1 10 10v0a10 10 0 0 0 10 10"></path>
<path d="M764 591h20"></path>
<g>
<path d="M784 591h0"></path>
<path d="M940 591h0"></path>
<g class="terminal">
<path d="M784 591h0"></path>
<path d="M852 591h0"></path>
<rect x="784" y="580" width="68" height="22" rx="10" ry="10"></rect>
<text x="818" y="595">"ELSE"</text>
</g>
<path d="M852 591h10"></path>
<path d="M862 591h10"></path>
<g class="non-terminal">
<path d="M872 591h0"></path>
<path d="M940 591h0"></path>
<rect x="872" y="580" width="68" height="22"></rect>
<a xlink:href="reuse_source.svg"><text x="906" y="595">Source</text>
</a>
</g>
</g>
<path d="M940 591h20"></path>
</g>
<g>
<path d="M960 591h0"></path>
<path d="M1068 591h0"></path>
<path d="M960 591h20"></path>
<g class="terminal">
<path d="M980 591h0"></path>
<path d="M1048 591h0"></path>
<rect x="980" y="580" width="68" height="22" rx="10" ry="10"></rect>
<text x="1014" y="595">!" ) "</text>
</g>
<path d="M1048 591h20"></path>
<path d="M960 591a10 10 0 0 1 10 10v10a10 10 0 0 0 10 10"></path>
<g class="terminal">
<path d="M980 621h0"></path>
<path d="M1040 621h8"></path>
<rect x="980" y="610" width="60" height="22" rx="10" ry="10"></rect>
<text x="1010" y="625">!" )"</text>
</g>
<path d="M1048 621a10 10 0 0 0 10 -10v-10a10 10 0 0 1 10 -10"></path>
</g>
</g>
</g>
<path d="M1256 591a10 10 0 0 0 10 -10v-531a10 10 0 0 1 10 -10"></path>
<path d="M40 40a10 10 0 0 1 10 10v591a10 10 0 0 0 10 10"></path>
<g>
<path d="M60 651h0"></path>
<path d="M596 651h660"></path>
<g>
<path d="M60 651h0"></path>
<path d="M126 651h0"></path>
<text x="93" y="656" class="comment">v740sp02</text>
</g>
<path d="M126 651h10"></path>
<path d="M136 651h10"></path>
<g>
<path d="M146 651h0"></path>
<path d="M596 651h0"></path>
<g class="terminal">
<path d="M146 651h0"></path>
<path d="M206 651h0"></path>
<rect x="146" y="640" width="60" height="22" rx="10" ry="10"></rect>
<text x="176" y="655">"REF"</text>
</g>
<path d="M206 651h10"></path>
<path d="M216 651h10"></path>
<g class="non-terminal">
<path d="M226 651h0"></path>
<path d="M310 651h0"></path>
<rect x="226" y="640" width="84" height="22"></rect>
<a xlink:href="reuse_typename.svg"><text x="268" y="655">TypeName</text>
</a>
</g>
<path d="M310 651h10"></path>
<path d="M320 651h10"></path>
<g class="terminal">
<path d="M330 651h0"></path>
<path d="M390 651h0"></path>
<rect x="330" y="640" width="60" height="22" rx="10" ry="10"></rect>
<text x="360" y="655">!"( "</text>
</g>
<path d="M390 651h10"></path>
<path d="M400 651h10"></path>
<g class="non-terminal">
<path d="M410 651h0"></path>
<path d="M478 651h0"></path>
<rect x="410" y="640" width="68" height="22"></rect>
<a xlink:href="reuse_source.svg"><text x="444" y="655">Source</text>
</a>
</g>
<path d="M478 651h10"></path>
<g>
<path d="M488 651h0"></path>
<path d="M596 651h0"></path>
<path d="M488 651h20"></path>
<g class="terminal">
<path d="M508 651h0"></path>
<path d="M576 651h0"></path>
<rect x="508" y="640" width="68" height="22" rx="10" ry="10"></rect>
<text x="542" y="655">!" ) "</text>
</g>
<path d="M576 651h20"></path>
<path d="M488 651a10 10 0 0 1 10 10v10a10 10 0 0 0 10 10"></path>
<g class="terminal">
<path d="M508 681h0"></path>
<path d="M568 681h8"></path>
<rect x="508" y="670" width="60" height="22" rx="10" ry="10"></rect>
<text x="538" y="685">!" )"</text>
</g>
<path d="M576 681a10 10 0 0 0 10 -10v-10a10 10 0 0 1 10 -10"></path>
</g>
</g>
</g>
<path d="M1256 651a10 10 0 0 0 10 -10v-591a10 10 0 0 1 10 -10"></path>
<path d="M40 40a10 10 0 0 1 10 10v651a10 10 0 0 0 10 10"></path>
<g>
<path d="M60 711h0"></path>
<path d="M992 711h264"></path>
<g>
<path d="M60 711h0"></path>
<path d="M126 711h0"></path>
<text x="93" y="716" class="comment">v740sp02</text>
</g>
<path d="M126 711h10"></path>
<path d="M136 711h10"></path>
<g>
<path d="M146 711h0"></path>
<path d="M992 711h0"></path>
<g class="terminal">
<path d="M146 711h0"></path>
<path d="M230 711h0"></path>
<rect x="146" y="700" width="84" height="22" rx="10" ry="10"></rect>
<text x="188" y="715">"SWITCH"</text>
</g>
<path d="M230 711h10"></path>
<path d="M240 711h10"></path>
<g class="non-terminal">
<path d="M250 711h0"></path>
<path d="M334 711h0"></path>
<rect x="250" y="700" width="84" height="22"></rect>
<a xlink:href="reuse_typename.svg"><text x="292" y="715">TypeName</text>
</a>
</g>
<path d="M334 711h10"></path>
<path d="M344 711h10"></path>
<g class="terminal">
<path d="M354 711h0"></path>
<path d="M414 711h0"></path>
<rect x="354" y="700" width="60" height="22" rx="10" ry="10"></rect>
<text x="384" y="715">!"( "</text>
</g>
<path d="M414 711h10"></path>
<path d="M424 711h10"></path>
<g class="non-terminal">
<path d="M434 711h0"></path>
<path d="M502 711h0"></path>
<rect x="434" y="700" width="68" height="22"></rect>
<a xlink:href="reuse_source.svg"><text x="468" y="715">Source</text>
</a>
</g>
<path d="M502 711h10"></path>
<path d="M512 711h10"></path>
<g>
<path d="M522 711h0"></path>
<path d="M874 711h0"></path>
<path d="M522 711h10"></path>
<g>
<path d="M532 711h0"></path>
<path d="M864 711h0"></path>
<g class="terminal">
<path d="M532 711h0"></path>
<path d="M600 711h0"></path>
<rect x="532" y="700" width="68" height="22" rx="10" ry="10"></rect>
<text x="566" y="715">"WHEN"</text>
</g>
<path d="M600 711h10"></path>
<path d="M610 711h10"></path>
<g class="non-terminal">
<path d="M620 711h0"></path>
<path d="M688 711h0"></path>
<rect x="620" y="700" width="68" height="22"></rect>
<a xlink:href="reuse_source.svg"><text x="654" y="715">Source</text>
</a>
</g>
<path d="M688 711h10"></path>
<path d="M698 711h10"></path>
<g class="terminal">
<path d="M708 711h0"></path>
<path d="M776 711h0"></path>
<rect x="708" y="700" width="68" height="22" rx="10" ry="10"></rect>
<text x="742" y="715">"THEN"</text>
</g>
<path d="M776 711h10"></path>
<path d="M786 711h10"></path>
<g class="non-terminal">
<path d="M796 711h0"></path>
<path d="M864 711h0"></path>
<rect x="796" y="700" width="68" height="22"></rect>
<a xlink:href="reuse_source.svg"><text x="830" y="715">Source</text>
</a>
</g>
</g>
<path d="M864 711h10"></path>
<path d="M532 711a10 10 0 0 0 -10 10v0a10 10 0 0 0 10 10"></path>
<g>
<path d="M532 731h332"></path>
</g>
<path d="M864 731a10 10 0 0 0 10 -10v0a10 10 0 0 0 -10 -10"></path>
</g>
<path d="M874 711h10"></path>
<g>
<path d="M884 711h0"></path>
<path d="M992 711h0"></path>
<path d="M884 711h20"></path>
<g class="terminal">
<path d="M904 711h0"></path>
<path d="M972 711h0"></path>
<rect x="904" y="700" width="68" height="22" rx="10" ry="10"></rect>
<text x="938" y="715">!" ) "</text>
</g>
<path d="M972 711h20"></path>
<path d="M884 711a10 10 0 0 1 10 10v10a10 10 0 0 0 10 10"></path>
<g class="terminal">
<path d="M904 741h0"></path>
<path d="M964 741h8"></path>
<rect x="904" y="730" width="60" height="22" rx="10" ry="10"></rect>
<text x="934" y="745">!" )"</text>
</g>
<path d="M972 741a10 10 0 0 0 10 -10v-10a10 10 0 0 1 10 -10"></path>
</g>
</g>
</g>
<path d="M1256 711a10 10 0 0 0 10 -10v-651a10 10 0 0 1 10 -10"></path>
</g>
<path d="M 1276 40 h 20 m 0 -10 v 20"></path>
</g>
</svg>
