<svg xmlns="http://www.w3.org/2000/svg" xmlns:xlink="http://www.w3.org/1999/xlink" class="railroad-diagram" width="902" height="140" viewBox="0 0 902 140">
<defs>
<style type="text/css"><![CDATA[
path {
stroke-width: 3;
stroke: black;
fill: rgba(0,0,0,0);
}
text {
font: bold 14px monospace;
text-anchor: middle;
}
text.diagram-text {
font-size: 12px;
}
a {
fill: blue;
}
text.diagram-arrow {
font-size: 16px;
}
text.label {
text-anchor: start;
}
text.comment {
font: italic 12px monospace;
}
rect {
stroke-width: 3;
stroke: black;
fill: #BCBCBC;
}
path.diagram-text {
stroke-width: 3;
stroke: black;
fill: #BCBCBC;
cursor: help;
}
]]></style>
</defs>
<g transform="translate(.5 .5)">
<path d="M 20 21 v 20 m 0 -10 h 20.5"></path>
<g>
<path d="M40 31h0"></path>
<path d="M862 31h0"></path>
<path d="M40 31h20"></path>
<g class="non-terminal">
<path d="M60 31h337"></path>
<path d="M505 31h337"></path>
<rect x="397" y="20" width="108" height="22"></rect>
<a xlink:href="reuse_inline_decl.svg"><text x="451" y="35">inline&#95;decl</text>
</a>
</g>
<path d="M842 31h20"></path>
<path d="M40 31a10 10 0 0 1 10 10v19a10 10 0 0 0 10 10"></path>
<g>
<path d="M60 70h0"></path>
<path d="M842 70h0"></path>
<g>
<path d="M60 70h0"></path>
<path d="M480 70h0"></path>
<g>
<path d="M60 70h0"></path>
<path d="M216 70h0"></path>
<path d="M60 70h20"></path>
<g class="non-terminal">
<path d="M80 70h28"></path>
<path d="M168 70h28"></path>
<rect x="108" y="59" width="60" height="22"></rect>
<a xlink:href="reuse_field.svg"><text x="138" y="74">field</text>
</a>
</g>
<path d="M196 70h20"></path>
<path d="M60 70a10 10 0 0 1 10 10v10a10 10 0 0 0 10 10"></path>
<g class="non-terminal">
<path d="M80 100h0"></path>
<path d="M196 100h0"></path>
<rect x="80" y="89" width="116" height="22"></rect>
<a xlink:href="reuse_field_symbol.svg"><text x="138" y="104">field&#95;symbol</text>
</a>
</g>
<path d="M196 100a10 10 0 0 0 10 -10v-10a10 10 0 0 1 10 -10"></path>
</g>
<g>
<path d="M216 70h0"></path>
<path d="M480 70h0"></path>
<path d="M216 70a10 10 0 0 0 10 -10v0a10 10 0 0 1 10 -10"></path>
<g>
<path d="M236 50h224"></path>
</g>
<path d="M460 50a10 10 0 0 1 10 10v0a10 10 0 0 0 10 10"></path>
<path d="M216 70h20"></path>
<g>
<path d="M236 70h0"></path>
<path d="M460 70h0"></path>
<path d="M236 70h10"></path>
<g>
<path d="M246 70h0"></path>
<path d="M450 70h0"></path>
<g class="non-terminal">
<path d="M246 70h0"></path>
<path d="M370 70h0"></path>
<rect x="246" y="59" width="124" height="22"></rect>
<a xlink:href="reuse_arrow_or_dash.svg"><text x="308" y="74">arrow&#95;or&#95;dash</text>
</a>
</g>
<path d="M370 70h10"></path>
<path d="M380 70h10"></path>
<g class="non-terminal">
<path d="M390 70h0"></path>
<path d="M450 70h0"></path>
<rect x="390" y="59" width="60" height="22"></rect>
<a xlink:href="reuse_field.svg"><text x="420" y="74">field</text>
</a>
</g>
</g>
<path d="M450 70h10"></path>
<path d="M246 70a10 10 0 0 0 -10 10v0a10 10 0 0 0 10 10"></path>
<g>
<path d="M246 90h204"></path>
</g>
<path d="M450 90a10 10 0 0 0 10 -10v0a10 10 0 0 0 -10 -10"></path>
</g>
<path d="M460 70h20"></path>
</g>
</g>
<path d="M480 70h10"></path>
<g>
<path d="M490 70h0"></path>
<path d="M842 70h0"></path>
<path d="M490 70h20"></path>
<g class="non-terminal">
<path d="M510 70h106"></path>
<path d="M716 70h106"></path>
<rect x="616" y="59" width="100" height="22"></rect>
<a xlink:href="reuse_table_body.svg"><text x="666" y="74">table&#95;body</text>
</a>
</g>
<path d="M822 70h20"></path>
<path d="M490 70a10 10 0 0 1 10 10v19a10 10 0 0 0 10 10"></path>
<g>
<path d="M510 109h0"></path>
<path d="M822 109h0"></path>
<g>
<path d="M510 109h0"></path>
<path d="M666 109h0"></path>
<path d="M510 109a10 10 0 0 0 10 -10v0a10 10 0 0 1 10 -10"></path>
<g>
<path d="M530 89h116"></path>
</g>
<path d="M646 89a10 10 0 0 1 10 10v0a10 10 0 0 0 10 10"></path>
<path d="M510 109h20"></path>
<g class="non-terminal">
<path d="M530 109h0"></path>
<path d="M646 109h0"></path>
<rect x="530" y="98" width="116" height="22"></rect>
<a xlink:href="reuse_field_offset.svg"><text x="588" y="113">field&#95;offset</text>
</a>
</g>
<path d="M646 109h20"></path>
</g>
<g>
<path d="M666 109h0"></path>
<path d="M822 109h0"></path>
<path d="M666 109a10 10 0 0 0 10 -10v0a10 10 0 0 1 10 -10"></path>
<g>
<path d="M686 89h116"></path>
</g>
<path d="M802 89a10 10 0 0 1 10 10v0a10 10 0 0 0 10 10"></path>
<path d="M666 109h20"></path>
<g class="non-terminal">
<path d="M686 109h0"></path>
<path d="M802 109h0"></path>
<rect x="686" y="98" width="116" height="22"></rect>
<a xlink:href="reuse_field_length.svg"><text x="744" y="113">field&#95;length</text>
</a>
</g>
<path d="M802 109h20"></path>
</g>
</g>
<path d="M822 109a10 10 0 0 0 10 -10v-19a10 10 0 0 1 10 -10"></path>
</g>
</g>
<path d="M842 70a10 10 0 0 0 10 -10v-19a10 10 0 0 1 10 -10"></path>
</g>
<path d="M 862 31 h 20 m 0 -10 v 20"></path>
</g>
</svg>
