<svg xmlns="http://www.w3.org/2000/svg" xmlns:xlink="http://www.w3.org/1999/xlink" class="railroad-diagram" width="428" height="92" viewBox="0 0 428 92">
<defs>
<style type="text/css"><![CDATA[
path {
stroke-width: 3;
stroke: black;
fill: rgba(0,0,0,0);
}
text {
font: bold 14px monospace;
text-anchor: middle;
}
text.diagram-text {
font-size: 12px;
}
a {
fill: blue;
}
text.diagram-arrow {
font-size: 16px;
}
text.label {
text-anchor: start;
}
text.comment {
font: italic 12px monospace;
}
rect {
stroke-width: 3;
stroke: black;
fill: #BCBCBC;
}
path.diagram-text {
stroke-width: 3;
stroke: black;
fill: #BCBCBC;
cursor: help;
}
]]></style>
</defs>
<g transform="translate(.5 .5)">
<path d="M 20 21 v 20 m 0 -10 h 20.5"></path>
<path d="M40 31h10"></path>
<g>
<path d="M50 31h0"></path>
<path d="M378 31h0"></path>
<g>
<path d="M50 31h0"></path>
<path d="M246 31h0"></path>
<path d="M50 31h20"></path>
<g class="non-terminal">
<path d="M70 31h0"></path>
<path d="M178 31h48"></path>
<rect x="70" y="20" width="108" height="22"></rect>
<a xlink:href="reuse_passbyvalue.svg"><text x="124" y="35">PassByValue</text>
</a>
</g>
<path d="M226 31h20"></path>
<path d="M50 31a10 10 0 0 1 10 10v10a10 10 0 0 0 10 10"></path>
<g class="terminal">
<path d="M70 61h0"></path>
<path d="M226 61h0"></path>
<rect x="70" y="50" width="156" height="22" rx="10" ry="10"></rect>
<text x="148" y="65">^!?(\/\w+\/)?\w+$</text>
</g>
<path d="M226 61a10 10 0 0 0 10 -10v-10a10 10 0 0 1 10 -10"></path>
</g>
<g>
<path d="M246 31h0"></path>
<path d="M378 31h0"></path>
<path d="M246 31h20"></path>
<g class="non-terminal">
<path d="M266 31h0"></path>
<path d="M318 31h40"></path>
<rect x="266" y="20" width="52" height="22"></rect>
<a xlink:href="reuse_type.svg"><text x="292" y="35">Type</text>
</a>
</g>
<path d="M358 31h20"></path>
<path d="M246 31a10 10 0 0 1 10 10v10a10 10 0 0 0 10 10"></path>
<g class="non-terminal">
<path d="M266 61h0"></path>
<path d="M358 61h0"></path>
<rect x="266" y="50" width="92" height="22"></rect>
<a xlink:href="reuse_typetable.svg"><text x="312" y="65">TypeTable</text>
</a>
</g>
<path d="M358 61a10 10 0 0 0 10 -10v-10a10 10 0 0 1 10 -10"></path>
</g>
</g>
<path d="M378 31h10"></path>
<path d="M 388 31 h 20 m 0 -10 v 20"></path>
</g>
</svg>
