<svg xmlns="http://www.w3.org/2000/svg" xmlns:xlink="http://www.w3.org/1999/xlink" class="railroad-diagram" width="1186" height="79" viewBox="0 0 1186 79">
<defs>
<style type="text/css"><![CDATA[
path {
stroke-width: 3;
stroke: black;
fill: rgba(0,0,0,0);
}
text {
font: bold 14px monospace;
text-anchor: middle;
}
text.diagram-text {
font-size: 12px;
}
a {
fill: blue;
}
text.diagram-arrow {
font-size: 16px;
}
text.label {
text-anchor: start;
}
text.comment {
font: italic 12px monospace;
}
rect {
stroke-width: 3;
stroke: black;
fill: #BCBCBC;
}
path.diagram-text {
stroke-width: 3;
stroke: black;
fill: #BCBCBC;
cursor: help;
}
]]></style>
</defs>
<g transform="translate(.5 .5)">
<path d="M 20 38 v 20 m 0 -10 h 20.5"></path>
<path d="M40 48h10"></path>
<g>
<path d="M50 48h0"></path>
<path d="M1136 48h0"></path>
<g>
<path d="M50 48h0"></path>
<path d="M350 48h0"></path>
<path d="M50 48a10 10 0 0 0 10 -10v0a10 10 0 0 1 10 -10"></path>
<g>
<path d="M70 28h260"></path>
</g>
<path d="M330 28a10 10 0 0 1 10 10v0a10 10 0 0 0 10 10"></path>
<path d="M50 48h20"></path>
<g>
<path d="M70 48h0"></path>
<path d="M330 48h0"></path>
<g class="terminal">
<path d="M70 48h0"></path>
<path d="M178 48h0"></path>
<rect x="70" y="37" width="108" height="22" rx="10" ry="10"></rect>
<text x="124" y="52">"IMPORTING"</text>
</g>
<path d="M178 48h10"></path>
<path d="M188 48h10"></path>
<g class="non-terminal">
<path d="M198 48h0"></path>
<path d="M330 48h0"></path>
<rect x="198" y="37" width="132" height="22"></rect>
<a xlink:href="reuse_parameterlistt.svg"><text x="264" y="52">ParameterListT</text>
</a>
</g>
</g>
<path d="M330 48h20"></path>
</g>
<g>
<path d="M350 48h0"></path>
<path d="M626 48h0"></path>
<path d="M350 48a10 10 0 0 0 10 -10v0a10 10 0 0 1 10 -10"></path>
<g>
<path d="M370 28h236"></path>
</g>
<path d="M606 28a10 10 0 0 1 10 10v0a10 10 0 0 0 10 10"></path>
<path d="M350 48h20"></path>
<g>
<path d="M370 48h0"></path>
<path d="M606 48h0"></path>
<g class="terminal">
<path d="M370 48h0"></path>
<path d="M454 48h0"></path>
<rect x="370" y="37" width="84" height="22" rx="10" ry="10"></rect>
<text x="412" y="52">"TABLES"</text>
</g>
<path d="M454 48h10"></path>
<path d="M464 48h10"></path>
<g class="non-terminal">
<path d="M474 48h0"></path>
<path d="M606 48h0"></path>
<rect x="474" y="37" width="132" height="22"></rect>
<a xlink:href="reuse_parameterlistt.svg"><text x="540" y="52">ParameterListT</text>
</a>
</g>
</g>
<path d="M606 48h20"></path>
</g>
<g>
<path d="M626 48h0"></path>
<path d="M1136 48h0"></path>
<path d="M626 48a10 10 0 0 0 10 -10v-8a10 10 0 0 1 10 -10"></path>
<g>
<path d="M646 20h470"></path>
</g>
<path d="M1116 20a10 10 0 0 1 10 10v8a10 10 0 0 0 10 10"></path>
<path d="M626 48h20"></path>
<g>
<path d="M646 48h0"></path>
<path d="M1116 48h0"></path>
<g class="terminal">
<path d="M646 48h0"></path>
<path d="M762 48h0"></path>
<rect x="646" y="37" width="116" height="22" rx="10" ry="10"></rect>
<text x="704" y="52">"EXCEPTIONS"</text>
</g>
<path d="M762 48h10"></path>
<g>
<path d="M772 48h0"></path>
<path d="M1016 48h0"></path>
<path d="M772 48a10 10 0 0 0 10 -10v0a10 10 0 0 1 10 -10"></path>
<g>
<path d="M792 28h204"></path>
</g>
<path d="M996 28a10 10 0 0 1 10 10v0a10 10 0 0 0 10 10"></path>
<path d="M772 48h20"></path>
<g class="non-terminal">
<path d="M792 48h0"></path>
<path d="M996 48h0"></path>
<rect x="792" y="37" width="204" height="22"></rect>
<a xlink:href="reuse_parameterlistexceptions.svg"><text x="894" y="52">ParameterListExceptions</text>
</a>
</g>
<path d="M996 48h20"></path>
</g>
<g>
<path d="M1016 48h0"></path>
<path d="M1116 48h0"></path>
<path d="M1016 48a10 10 0 0 0 10 -10v0a10 10 0 0 1 10 -10"></path>
<g>
<path d="M1036 28h60"></path>
</g>
<path d="M1096 28a10 10 0 0 1 10 10v0a10 10 0 0 0 10 10"></path>
<path d="M1016 48h20"></path>
<g class="non-terminal">
<path d="M1036 48h0"></path>
<path d="M1096 48h0"></path>
<rect x="1036" y="37" width="60" height="22"></rect>
<a xlink:href="reuse_field.svg"><text x="1066" y="52">Field</text>
</a>
</g>
<path d="M1096 48h20"></path>
</g>
</g>
<path d="M1116 48h20"></path>
</g>
</g>
<path d="M1136 48h10"></path>
<path d="M 1146 48 h 20 m 0 -10 v 20"></path>
</g>
</svg>
