<svg xmlns="http://www.w3.org/2000/svg" xmlns:xlink="http://www.w3.org/1999/xlink" class="railroad-diagram" width="1072" height="1165" viewBox="0 0 1072 1165">
<defs>
<style type="text/css"><![CDATA[
path {
stroke-width: 3;
stroke: black;
fill: rgba(0,0,0,0);
}
text {
font: bold 14px monospace;
text-anchor: middle;
}
text.diagram-text {
font-size: 12px;
}
a {
fill: blue;
}
text.diagram-arrow {
font-size: 16px;
}
text.label {
text-anchor: start;
}
text.comment {
font: italic 12px monospace;
}
rect {
stroke-width: 3;
stroke: black;
fill: #BCBCBC;
}
path.diagram-text {
stroke-width: 3;
stroke: black;
fill: #BCBCBC;
cursor: help;
}
]]></style>
</defs>
<g transform="translate(.5 .5)">
<path d="M 20 30 v 20 m 0 -10 h 20.5"></path>
<g>
<path d="M40 40h0"></path>
<path d="M1032 40h0"></path>
<path d="M40 40h20"></path>
<g>
<path d="M60 40h0"></path>
<path d="M396 40h616"></path>
<g>
<path d="M60 40h0"></path>
<path d="M126 40h0"></path>
<text x="93" y="45" class="comment">v740sp08</text>
</g>
<path d="M126 40h10"></path>
<path d="M136 40h10"></path>
<g>
<path d="M146 40h0"></path>
<path d="M396 40h0"></path>
<g>
<path d="M146 40h0"></path>
<path d="M246 40h0"></path>
<path d="M146 40a10 10 0 0 0 10 -10v0a10 10 0 0 1 10 -10"></path>
<g>
<path d="M166 20h60"></path>
</g>
<path d="M226 20a10 10 0 0 1 10 10v0a10 10 0 0 0 10 10"></path>
<path d="M146 40h20"></path>
<g class="terminal">
<path d="M166 40h0"></path>
<path d="M226 40h0"></path>
<rect x="166" y="29" width="60" height="22" rx="10" ry="10"></rect>
<text x="196" y="44">"NOT"</text>
</g>
<path d="M226 40h20"></path>
</g>
<path d="M246 40h10"></path>
<g class="non-terminal">
<path d="M256 40h0"></path>
<path d="M396 40h0"></path>
<rect x="256" y="29" width="140" height="22"></rect>
<a xlink:href="reuse_methodcallchain.svg"><text x="326" y="44">MethodCallChain</text>
</a>
</g>
</g>
</g>
<path d="M1012 40h20"></path>
<path d="M40 40a10 10 0 0 1 10 10v19a10 10 0 0 0 10 10"></path>
<g>
<path d="M60 79h0"></path>
<path d="M1012 79h0"></path>
<g>
<path d="M60 79h0"></path>
<path d="M160 79h0"></path>
<path d="M60 79a10 10 0 0 0 10 -10v0a10 10 0 0 1 10 -10"></path>
<g>
<path d="M80 59h60"></path>
</g>
<path d="M140 59a10 10 0 0 1 10 10v0a10 10 0 0 0 10 10"></path>
<path d="M60 79h20"></path>
<g class="terminal">
<path d="M80 79h0"></path>
<path d="M140 79h0"></path>
<rect x="80" y="68" width="60" height="22" rx="10" ry="10"></rect>
<text x="110" y="83">"NOT"</text>
</g>
<path d="M140 79h20"></path>
</g>
<path d="M160 79h10"></path>
<g class="non-terminal">
<path d="M170 79h0"></path>
<path d="M238 79h0"></path>
<rect x="170" y="68" width="68" height="22"></rect>
<a xlink:href="reuse_source.svg"><text x="204" y="83">Source</text>
</a>
</g>
<path d="M238 79h10"></path>
<g>
<path d="M248 79h0"></path>
<path d="M1012 79h0"></path>
<path d="M248 79h20"></path>
<g>
<path d="M268 79h0"></path>
<path d="M750 79h242"></path>
<g>
<path d="M268 79h0"></path>
<path d="M476 79h0"></path>
<g>
<path d="M268 79h0"></path>
<path d="M368 79h0"></path>
<path d="M268 79a10 10 0 0 0 10 -10v0a10 10 0 0 1 10 -10"></path>
<g>
<path d="M288 59h60"></path>
</g>
<path d="M348 59a10 10 0 0 1 10 10v0a10 10 0 0 0 10 10"></path>
<path d="M268 79h20"></path>
<g class="terminal">
<path d="M288 79h0"></path>
<path d="M348 79h0"></path>
<rect x="288" y="68" width="60" height="22" rx="10" ry="10"></rect>
<text x="318" y="83">"NOT"</text>
</g>
<path d="M348 79h20"></path>
</g>
<g>
<path d="M368 79h0"></path>
<path d="M476 79h0"></path>
<path d="M368 79h20"></path>
<g class="terminal">
<path d="M388 79h0"></path>
<path d="M432 79h24"></path>
<rect x="388" y="68" width="44" height="22" rx="10" ry="10"></rect>
<text x="410" y="83">"="</text>
</g>
<path d="M456 79h20"></path>
<path d="M368 79a10 10 0 0 1 10 10v10a10 10 0 0 0 10 10"></path>
<g class="terminal">
<path d="M388 109h0"></path>
<path d="M440 109h16"></path>
<rect x="388" y="98" width="52" height="22" rx="10" ry="10"></rect>
<text x="414" y="113">"&#60;>"</text>
</g>
<path d="M456 109a10 10 0 0 0 10 -10v-10a10 10 0 0 1 10 -10"></path>
<path d="M368 79a10 10 0 0 1 10 10v40a10 10 0 0 0 10 10"></path>
<g class="terminal">
<path d="M388 139h0"></path>
<path d="M440 139h16"></path>
<rect x="388" y="128" width="52" height="22" rx="10" ry="10"></rect>
<text x="414" y="143">">&#60;"</text>
</g>
<path d="M456 139a10 10 0 0 0 10 -10v-40a10 10 0 0 1 10 -10"></path>
<path d="M368 79a10 10 0 0 1 10 10v70a10 10 0 0 0 10 10"></path>
<g class="terminal">
<path d="M388 169h0"></path>
<path d="M432 169h24"></path>
<rect x="388" y="158" width="44" height="22" rx="10" ry="10"></rect>
<text x="410" y="173">"&#60;"</text>
</g>
<path d="M456 169a10 10 0 0 0 10 -10v-70a10 10 0 0 1 10 -10"></path>
<path d="M368 79a10 10 0 0 1 10 10v100a10 10 0 0 0 10 10"></path>
<g class="terminal">
<path d="M388 199h0"></path>
<path d="M432 199h24"></path>
<rect x="388" y="188" width="44" height="22" rx="10" ry="10"></rect>
<text x="410" y="203">">"</text>
</g>
<path d="M456 199a10 10 0 0 0 10 -10v-100a10 10 0 0 1 10 -10"></path>
<path d="M368 79a10 10 0 0 1 10 10v130a10 10 0 0 0 10 10"></path>
<g class="terminal">
<path d="M388 229h0"></path>
<path d="M440 229h16"></path>
<rect x="388" y="218" width="52" height="22" rx="10" ry="10"></rect>
<text x="414" y="233">"&#60;="</text>
</g>
<path d="M456 229a10 10 0 0 0 10 -10v-130a10 10 0 0 1 10 -10"></path>
<path d="M368 79a10 10 0 0 1 10 10v160a10 10 0 0 0 10 10"></path>
<g class="terminal">
<path d="M388 259h0"></path>
<path d="M440 259h16"></path>
<rect x="388" y="248" width="52" height="22" rx="10" ry="10"></rect>
<text x="414" y="263">">="</text>
</g>
<path d="M456 259a10 10 0 0 0 10 -10v-160a10 10 0 0 1 10 -10"></path>
<path d="M368 79a10 10 0 0 1 10 10v190a10 10 0 0 0 10 10"></path>
<g class="terminal">
<path d="M388 289h0"></path>
<path d="M440 289h16"></path>
<rect x="388" y="278" width="52" height="22" rx="10" ry="10"></rect>
<text x="414" y="293">"=>"</text>
</g>
<path d="M456 289a10 10 0 0 0 10 -10v-190a10 10 0 0 1 10 -10"></path>
<path d="M368 79a10 10 0 0 1 10 10v220a10 10 0 0 0 10 10"></path>
<g class="terminal">
<path d="M388 319h0"></path>
<path d="M440 319h16"></path>
<rect x="388" y="308" width="52" height="22" rx="10" ry="10"></rect>
<text x="414" y="323">"CA"</text>
</g>
<path d="M456 319a10 10 0 0 0 10 -10v-220a10 10 0 0 1 10 -10"></path>
<path d="M368 79a10 10 0 0 1 10 10v250a10 10 0 0 0 10 10"></path>
<g class="terminal">
<path d="M388 349h0"></path>
<path d="M440 349h16"></path>
<rect x="388" y="338" width="52" height="22" rx="10" ry="10"></rect>
<text x="414" y="353">"CO"</text>
</g>
<path d="M456 349a10 10 0 0 0 10 -10v-250a10 10 0 0 1 10 -10"></path>
<path d="M368 79a10 10 0 0 1 10 10v280a10 10 0 0 0 10 10"></path>
<g class="terminal">
<path d="M388 379h0"></path>
<path d="M440 379h16"></path>
<rect x="388" y="368" width="52" height="22" rx="10" ry="10"></rect>
<text x="414" y="383">"CP"</text>
</g>
<path d="M456 379a10 10 0 0 0 10 -10v-280a10 10 0 0 1 10 -10"></path>
<path d="M368 79a10 10 0 0 1 10 10v310a10 10 0 0 0 10 10"></path>
<g class="terminal">
<path d="M388 409h0"></path>
<path d="M440 409h16"></path>
<rect x="388" y="398" width="52" height="22" rx="10" ry="10"></rect>
<text x="414" y="413">"EQ"</text>
</g>
<path d="M456 409a10 10 0 0 0 10 -10v-310a10 10 0 0 1 10 -10"></path>
<path d="M368 79a10 10 0 0 1 10 10v340a10 10 0 0 0 10 10"></path>
<g class="terminal">
<path d="M388 439h0"></path>
<path d="M440 439h16"></path>
<rect x="388" y="428" width="52" height="22" rx="10" ry="10"></rect>
<text x="414" y="443">"NE"</text>
</g>
<path d="M456 439a10 10 0 0 0 10 -10v-340a10 10 0 0 1 10 -10"></path>
<path d="M368 79a10 10 0 0 1 10 10v370a10 10 0 0 0 10 10"></path>
<g class="terminal">
<path d="M388 469h0"></path>
<path d="M440 469h16"></path>
<rect x="388" y="458" width="52" height="22" rx="10" ry="10"></rect>
<text x="414" y="473">"CN"</text>
</g>
<path d="M456 469a10 10 0 0 0 10 -10v-370a10 10 0 0 1 10 -10"></path>
<path d="M368 79a10 10 0 0 1 10 10v400a10 10 0 0 0 10 10"></path>
<g class="terminal">
<path d="M388 499h0"></path>
<path d="M440 499h16"></path>
<rect x="388" y="488" width="52" height="22" rx="10" ry="10"></rect>
<text x="414" y="503">"GE"</text>
</g>
<path d="M456 499a10 10 0 0 0 10 -10v-400a10 10 0 0 1 10 -10"></path>
<path d="M368 79a10 10 0 0 1 10 10v430a10 10 0 0 0 10 10"></path>
<g class="terminal">
<path d="M388 529h0"></path>
<path d="M440 529h16"></path>
<rect x="388" y="518" width="52" height="22" rx="10" ry="10"></rect>
<text x="414" y="533">"GT"</text>
</g>
<path d="M456 529a10 10 0 0 0 10 -10v-430a10 10 0 0 1 10 -10"></path>
<path d="M368 79a10 10 0 0 1 10 10v460a10 10 0 0 0 10 10"></path>
<g class="terminal">
<path d="M388 559h0"></path>
<path d="M440 559h16"></path>
<rect x="388" y="548" width="52" height="22" rx="10" ry="10"></rect>
<text x="414" y="563">"LT"</text>
</g>
<path d="M456 559a10 10 0 0 0 10 -10v-460a10 10 0 0 1 10 -10"></path>
<path d="M368 79a10 10 0 0 1 10 10v490a10 10 0 0 0 10 10"></path>
<g class="terminal">
<path d="M388 589h0"></path>
<path d="M440 589h16"></path>
<rect x="388" y="578" width="52" height="22" rx="10" ry="10"></rect>
<text x="414" y="593">"LE"</text>
</g>
<path d="M456 589a10 10 0 0 0 10 -10v-490a10 10 0 0 1 10 -10"></path>
<path d="M368 79a10 10 0 0 1 10 10v520a10 10 0 0 0 10 10"></path>
<g class="terminal">
<path d="M388 619h0"></path>
<path d="M440 619h16"></path>
<rect x="388" y="608" width="52" height="22" rx="10" ry="10"></rect>
<text x="414" y="623">"CS"</text>
</g>
<path d="M456 619a10 10 0 0 0 10 -10v-520a10 10 0 0 1 10 -10"></path>
<path d="M368 79a10 10 0 0 1 10 10v550a10 10 0 0 0 10 10"></path>
<g class="terminal">
<path d="M388 649h0"></path>
<path d="M440 649h16"></path>
<rect x="388" y="638" width="52" height="22" rx="10" ry="10"></rect>
<text x="414" y="653">"NS"</text>
</g>
<path d="M456 649a10 10 0 0 0 10 -10v-550a10 10 0 0 1 10 -10"></path>
<path d="M368 79a10 10 0 0 1 10 10v580a10 10 0 0 0 10 10"></path>
<g class="terminal">
<path d="M388 679h0"></path>
<path d="M440 679h16"></path>
<rect x="388" y="668" width="52" height="22" rx="10" ry="10"></rect>
<text x="414" y="683">"NA"</text>
</g>
<path d="M456 679a10 10 0 0 0 10 -10v-580a10 10 0 0 1 10 -10"></path>
<path d="M368 79a10 10 0 0 1 10 10v610a10 10 0 0 0 10 10"></path>
<g class="terminal">
<path d="M388 709h0"></path>
<path d="M440 709h16"></path>
<rect x="388" y="698" width="52" height="22" rx="10" ry="10"></rect>
<text x="414" y="713">"NP"</text>
</g>
<path d="M456 709a10 10 0 0 0 10 -10v-610a10 10 0 0 1 10 -10"></path>
<path d="M368 79a10 10 0 0 1 10 10v640a10 10 0 0 0 10 10"></path>
<g class="terminal">
<path d="M388 739h0"></path>
<path d="M432 739h24"></path>
<rect x="388" y="728" width="44" height="22" rx="10" ry="10"></rect>
<text x="410" y="743">"O"</text>
</g>
<path d="M456 739a10 10 0 0 0 10 -10v-640a10 10 0 0 1 10 -10"></path>
<path d="M368 79a10 10 0 0 1 10 10v670a10 10 0 0 0 10 10"></path>
<g class="terminal">
<path d="M388 769h0"></path>
<path d="M432 769h24"></path>
<rect x="388" y="758" width="44" height="22" rx="10" ry="10"></rect>
<text x="410" y="773">"Z"</text>
</g>
<path d="M456 769a10 10 0 0 0 10 -10v-670a10 10 0 0 1 10 -10"></path>
<path d="M368 79a10 10 0 0 1 10 10v700a10 10 0 0 0 10 10"></path>
<g class="terminal">
<path d="M388 799h0"></path>
<path d="M432 799h24"></path>
<rect x="388" y="788" width="44" height="22" rx="10" ry="10"></rect>
<text x="410" y="803">"M"</text>
</g>
<path d="M456 799a10 10 0 0 0 10 -10v-700a10 10 0 0 1 10 -10"></path>
<path d="M368 79a10 10 0 0 1 10 10v730a10 10 0 0 0 10 10"></path>
<g class="terminal">
<path d="M388 829h0"></path>
<path d="M456 829h0"></path>
<rect x="388" y="818" width="68" height="22" rx="10" ry="10"></rect>
<text x="422" y="833">"LIKE"</text>
</g>
<path d="M456 829a10 10 0 0 0 10 -10v-730a10 10 0 0 1 10 -10"></path>
</g>
</g>
<path d="M476 79h10"></path>
<g>
<path d="M486 79h0"></path>
<path d="M672 79h0"></path>
<path d="M486 79a10 10 0 0 0 10 -10v0a10 10 0 0 1 10 -10"></path>
<g>
<path d="M506 59h146"></path>
</g>
<path d="M652 59a10 10 0 0 1 10 10v0a10 10 0 0 0 10 10"></path>
<path d="M486 79h20"></path>
<g>
<path d="M506 79h0"></path>
<path d="M652 79h0"></path>
<g>
<path d="M506 79h0"></path>
<path d="M572 79h0"></path>
<text x="539" y="84" class="comment">v740sp05</text>
</g>
<path d="M572 79h10"></path>
<path d="M582 79h10"></path>
<g class="terminal">
<path d="M592 79h0"></path>
<path d="M652 79h0"></path>
<rect x="592" y="68" width="60" height="22" rx="10" ry="10"></rect>
<text x="622" y="83">!" @"</text>
</g>
</g>
<path d="M652 79h20"></path>
</g>
<path d="M672 79h10"></path>
<g class="non-terminal">
<path d="M682 79h0"></path>
<path d="M750 79h0"></path>
<rect x="682" y="68" width="68" height="22"></rect>
<a xlink:href="reuse_source.svg"><text x="716" y="83">Source</text>
</a>
</g>
</g>
<path d="M992 79h20"></path>
<path d="M248 79a10 10 0 0 1 10 10v769a10 10 0 0 0 10 10"></path>
<g>
<path d="M268 868h0"></path>
<path d="M992 868h0"></path>
<g>
<path d="M268 868h0"></path>
<path d="M368 868h0"></path>
<path d="M268 868a10 10 0 0 0 10 -10v0a10 10 0 0 1 10 -10"></path>
<g>
<path d="M288 848h60"></path>
</g>
<path d="M348 848a10 10 0 0 1 10 10v0a10 10 0 0 0 10 10"></path>
<path d="M268 868h20"></path>
<g class="terminal">
<path d="M288 868h0"></path>
<path d="M348 868h0"></path>
<rect x="288" y="857" width="60" height="22" rx="10" ry="10"></rect>
<text x="318" y="872">"NOT"</text>
</g>
<path d="M348 868h20"></path>
</g>
<path d="M368 868h10"></path>
<g class="terminal">
<path d="M378 868h0"></path>
<path d="M430 868h0"></path>
<rect x="378" y="857" width="52" height="22" rx="10" ry="10"></rect>
<text x="404" y="872">"IN"</text>
</g>
<path d="M430 868h10"></path>
<g>
<path d="M440 868h0"></path>
<path d="M992 868h0"></path>
<path d="M440 868h20"></path>
<g class="non-terminal">
<path d="M460 868h0"></path>
<path d="M528 868h444"></path>
<rect x="460" y="857" width="68" height="22"></rect>
<a xlink:href="reuse_source.svg"><text x="494" y="872">Source</text>
</a>
</g>
<path d="M972 868h20"></path>
<path d="M440 868a10 10 0 0 1 10 10v10a10 10 0 0 0 10 10"></path>
<g>
<path d="M460 898h0"></path>
<path d="M972 898h0"></path>
<g class="terminal">
<path d="M460 898h0"></path>
<path d="M520 898h0"></path>
<rect x="460" y="887" width="60" height="22" rx="10" ry="10"></rect>
<text x="490" y="902">!" ("</text>
</g>
<path d="M520 898h10"></path>
<g>
<path d="M530 898h0"></path>
<path d="M654 898h0"></path>
<path d="M530 898h20"></path>
<g class="non-terminal">
<path d="M550 898h0"></path>
<path d="M634 898h0"></path>
<rect x="550" y="887" width="84" height="22"></rect>
<a xlink:href="reuse_fieldsub.svg"><text x="592" y="902">FieldSub</text>
</a>
</g>
<path d="M634 898h20"></path>
<path d="M530 898a10 10 0 0 1 10 10v10a10 10 0 0 0 10 10"></path>
<g class="non-terminal">
<path d="M550 928h0"></path>
<path d="M634 928h0"></path>
<rect x="550" y="917" width="84" height="22"></rect>
<a xlink:href="reuse_constant.svg"><text x="592" y="932">Constant</text>
</a>
</g>
<path d="M634 928a10 10 0 0 0 10 -10v-10a10 10 0 0 1 10 -10"></path>
</g>
<path d="M654 898h10"></path>
<g>
<path d="M664 898h0"></path>
<path d="M862 898h0"></path>
<path d="M664 898h10"></path>
<g>
<path d="M674 898h0"></path>
<path d="M852 898h0"></path>
<g class="terminal">
<path d="M674 898h0"></path>
<path d="M718 898h0"></path>
<rect x="674" y="887" width="44" height="22" rx="10" ry="10"></rect>
<text x="696" y="902">","</text>
</g>
<path d="M718 898h10"></path>
<g>
<path d="M728 898h0"></path>
<path d="M852 898h0"></path>
<path d="M728 898h20"></path>
<g class="non-terminal">
<path d="M748 898h0"></path>
<path d="M832 898h0"></path>
<rect x="748" y="887" width="84" height="22"></rect>
<a xlink:href="reuse_fieldsub.svg"><text x="790" y="902">FieldSub</text>
</a>
</g>
<path d="M832 898h20"></path>
<path d="M728 898a10 10 0 0 1 10 10v10a10 10 0 0 0 10 10"></path>
<g class="non-terminal">
<path d="M748 928h0"></path>
<path d="M832 928h0"></path>
<rect x="748" y="917" width="84" height="22"></rect>
<a xlink:href="reuse_constant.svg"><text x="790" y="932">Constant</text>
</a>
</g>
<path d="M832 928a10 10 0 0 0 10 -10v-10a10 10 0 0 1 10 -10"></path>
</g>
</g>
<path d="M852 898h10"></path>
<path d="M674 898a10 10 0 0 0 -10 10v29a10 10 0 0 0 10 10"></path>
<g>
<path d="M674 947h178"></path>
</g>
<path d="M852 947a10 10 0 0 0 10 -10v-29a10 10 0 0 0 -10 -10"></path>
</g>
<path d="M862 898h10"></path>
<g>
<path d="M872 898h0"></path>
<path d="M972 898h0"></path>
<path d="M872 898h20"></path>
<g class="terminal">
<path d="M892 898h0"></path>
<path d="M952 898h0"></path>
<rect x="892" y="887" width="60" height="22" rx="10" ry="10"></rect>
<text x="922" y="902">!") "</text>
</g>
<path d="M952 898h20"></path>
<path d="M872 898a10 10 0 0 1 10 10v10a10 10 0 0 0 10 10"></path>
<g class="terminal">
<path d="M892 928h0"></path>
<path d="M944 928h8"></path>
<rect x="892" y="917" width="52" height="22" rx="10" ry="10"></rect>
<text x="918" y="932">!")"</text>
</g>
<path d="M952 928a10 10 0 0 0 10 -10v-10a10 10 0 0 1 10 -10"></path>
</g>
</g>
<path d="M972 898a10 10 0 0 0 10 -10v-10a10 10 0 0 1 10 -10"></path>
</g>
</g>
<path d="M992 868a10 10 0 0 0 10 -10v-769a10 10 0 0 1 10 -10"></path>
<path d="M248 79a10 10 0 0 1 10 10v876a10 10 0 0 0 10 10"></path>
<g>
<path d="M268 975h0"></path>
<path d="M726 975h266"></path>
<g>
<path d="M268 975h0"></path>
<path d="M368 975h0"></path>
<path d="M268 975a10 10 0 0 0 10 -10v0a10 10 0 0 1 10 -10"></path>
<g>
<path d="M288 955h60"></path>
</g>
<path d="M348 955a10 10 0 0 1 10 10v0a10 10 0 0 0 10 10"></path>
<path d="M268 975h20"></path>
<g class="terminal">
<path d="M288 975h0"></path>
<path d="M348 975h0"></path>
<rect x="288" y="964" width="60" height="22" rx="10" ry="10"></rect>
<text x="318" y="979">"NOT"</text>
</g>
<path d="M348 975h20"></path>
</g>
<path d="M368 975h10"></path>
<g class="terminal">
<path d="M378 975h0"></path>
<path d="M470 975h0"></path>
<rect x="378" y="964" width="92" height="22" rx="10" ry="10"></rect>
<text x="424" y="979">"BETWEEN"</text>
</g>
<path d="M470 975h10"></path>
<path d="M480 975h10"></path>
<g class="non-terminal">
<path d="M490 975h0"></path>
<path d="M558 975h0"></path>
<rect x="490" y="964" width="68" height="22"></rect>
<a xlink:href="reuse_source.svg"><text x="524" y="979">Source</text>
</a>
</g>
<path d="M558 975h10"></path>
<path d="M568 975h10"></path>
<g class="terminal">
<path d="M578 975h0"></path>
<path d="M638 975h0"></path>
<rect x="578" y="964" width="60" height="22" rx="10" ry="10"></rect>
<text x="608" y="979">"AND"</text>
</g>
<path d="M638 975h10"></path>
<path d="M648 975h10"></path>
<g class="non-terminal">
<path d="M658 975h0"></path>
<path d="M726 975h0"></path>
<rect x="658" y="964" width="68" height="22"></rect>
<a xlink:href="reuse_source.svg"><text x="692" y="979">Source</text>
</a>
</g>
</g>
<path d="M992 975a10 10 0 0 0 10 -10v-876a10 10 0 0 1 10 -10"></path>
<path d="M248 79a10 10 0 0 1 10 10v915a10 10 0 0 0 10 10"></path>
<g>
<path d="M268 1014h0"></path>
<path d="M578 1014h414"></path>
<g class="terminal">
<path d="M268 1014h0"></path>
<path d="M320 1014h0"></path>
<rect x="268" y="1003" width="52" height="22" rx="10" ry="10"></rect>
<text x="294" y="1018">"IS"</text>
</g>
<path d="M320 1014h10"></path>
<g>
<path d="M330 1014h0"></path>
<path d="M430 1014h0"></path>
<path d="M330 1014a10 10 0 0 0 10 -10v0a10 10 0 0 1 10 -10"></path>
<g>
<path d="M350 994h60"></path>
</g>
<path d="M410 994a10 10 0 0 1 10 10v0a10 10 0 0 0 10 10"></path>
<path d="M330 1014h20"></path>
<g class="terminal">
<path d="M350 1014h0"></path>
<path d="M410 1014h0"></path>
<rect x="350" y="1003" width="60" height="22" rx="10" ry="10"></rect>
<text x="380" y="1018">"NOT"</text>
</g>
<path d="M410 1014h20"></path>
</g>
<g>
<path d="M430 1014h0"></path>
<path d="M578 1014h0"></path>
<path d="M430 1014h20"></path>
<g class="terminal">
<path d="M450 1014h0"></path>
<path d="M550 1014h8"></path>
<rect x="450" y="1003" width="100" height="22" rx="10" ry="10"></rect>
<text x="500" y="1018">"SUPPLIED"</text>
</g>
<path d="M558 1014h20"></path>
<path d="M430 1014a10 10 0 0 1 10 10v10a10 10 0 0 0 10 10"></path>
<g class="terminal">
<path d="M450 1044h0"></path>
<path d="M526 1044h32"></path>
<rect x="450" y="1033" width="76" height="22" rx="10" ry="10"></rect>
<text x="488" y="1048">"BOUND"</text>
</g>
<path d="M558 1044a10 10 0 0 0 10 -10v-10a10 10 0 0 1 10 -10"></path>
<path d="M430 1014a10 10 0 0 1 10 10v40a10 10 0 0 0 10 10"></path>
<g class="terminal">
<path d="M450 1074h0"></path>
<path d="M558 1074h0"></path>
<rect x="450" y="1063" width="108" height="22" rx="10" ry="10"></rect>
<text x="504" y="1078">"REQUESTED"</text>
</g>
<path d="M558 1074a10 10 0 0 0 10 -10v-40a10 10 0 0 1 10 -10"></path>
<path d="M430 1014a10 10 0 0 1 10 10v70a10 10 0 0 0 10 10"></path>
<g class="terminal">
<path d="M450 1104h0"></path>
<path d="M550 1104h8"></path>
<rect x="450" y="1093" width="100" height="22" rx="10" ry="10"></rect>
<text x="500" y="1108">"ASSIGNED"</text>
</g>
<path d="M558 1104a10 10 0 0 0 10 -10v-70a10 10 0 0 1 10 -10"></path>
<path d="M430 1014a10 10 0 0 1 10 10v100a10 10 0 0 0 10 10"></path>
<g class="terminal">
<path d="M450 1134h0"></path>
<path d="M542 1134h16"></path>
<rect x="450" y="1123" width="92" height="22" rx="10" ry="10"></rect>
<text x="496" y="1138">"INITIAL"</text>
</g>
<path d="M558 1134a10 10 0 0 0 10 -10v-100a10 10 0 0 1 10 -10"></path>
</g>
</g>
<path d="M992 1014a10 10 0 0 0 10 -10v-915a10 10 0 0 1 10 -10"></path>
</g>
</g>
<path d="M1012 79a10 10 0 0 0 10 -10v-19a10 10 0 0 1 10 -10"></path>
</g>
<path d="M 1032 40 h 20 m 0 -10 v 20"></path>
</g>
</svg>
