<?xml version="1.0" encoding="UTF-8" standalone="no"?>
<!DOCTYPE svg PUBLIC "-//W3C//DTD SVG 1.1//EN"
 "http://www.w3.org/Graphics/SVG/1.1/DTD/svg11.dtd">
<!-- Generated by graphviz version 2.38.0 (20140413.2041)
 -->
<!-- Title: function_parameters Pages: 1 -->
<svg width="580pt" height="836pt"
 viewBox="0.00 0.00 580.00 836.00" xmlns="http://www.w3.org/2000/svg" xmlns:xlink="http://www.w3.org/1999/xlink">
<g id="graph0" class="graph" transform="scale(1 1) rotate(0) translate(4 832)">
<title>function_parameters</title>
<polygon fill="white" stroke="none" points="-4,4 -4,-832 576,-832 576,4 -4,4"/>
<!-- start -->
<g id="node1" class="node"><title>start</title>
<polygon fill="none" stroke="blue" points="122,-828 68,-828 68,-792 122,-792 122,-828"/>
<text text-anchor="middle" x="95" y="-805.8" font-family="Times,serif" font-size="14.00">Start</text>
</g>
<!-- end -->
<g id="node2" class="node"><title>end</title>
<polygon fill="none" stroke="blue" points="453,-36 399,-36 399,-0 453,-0 453,-36"/>
<text text-anchor="middle" x="426" y="-13.8" font-family="Times,serif" font-size="14.00">End</text>
</g>
<!-- start&#45;&gt;end -->
<g id="edge26" class="edge"><title>start&#45;&gt;end</title>
<path fill="none" stroke="black" d="M73.443,-791.777C45.414,-767.284 0,-719.5 0,-667 0,-667 0,-667 0,-161 0,-79.4115 284.784,-36.3122 388.66,-23.3053"/>
<polygon fill="black" stroke="black" points="389.205,-26.7648 398.704,-22.0714 388.352,-19.817 389.205,-26.7648"/>
</g>
<!-- node79 -->
<g id="node4" class="node"><title>node79</title>
<ellipse fill="none" stroke="black" cx="339" cy="-162" rx="77.8372" ry="18"/>
<text text-anchor="middle" x="339" y="-157.8" font-family="Times,serif" font-size="14.00">&quot;EXCEPTIONS&quot;</text>
</g>
<!-- start&#45;&gt;node79 -->
<g id="edge25" class="edge"><title>start&#45;&gt;node79</title>
<path fill="none" stroke="black" d="M83.1896,-791.958C66.4939,-766.158 38,-715.082 38,-667 38,-667 38,-667 38,-305 38,-209.167 164.345,-177.906 253.322,-167.773"/>
<polygon fill="black" stroke="black" points="253.862,-171.236 263.434,-166.694 253.118,-164.275 253.862,-171.236"/>
</g>
<!-- node81 -->
<g id="node6" class="node"><title>node81</title>
<ellipse fill="none" stroke="black" cx="216" cy="-306" rx="70.2956" ry="18"/>
<text text-anchor="middle" x="216" y="-301.8" font-family="Times,serif" font-size="14.00">&quot;CHANGING&quot;</text>
</g>
<!-- start&#45;&gt;node81 -->
<g id="edge24" class="edge"><title>start&#45;&gt;node81</title>
<path fill="none" stroke="black" d="M91.1551,-791.612C85.6032,-764.942 76,-712.268 76,-667 76,-667 76,-667 76,-449 76,-392.235 133.434,-349.931 174.729,-326.852"/>
<polygon fill="black" stroke="black" points="176.404,-329.925 183.529,-322.084 173.07,-323.77 176.404,-329.925"/>
</g>
<!-- node83 -->
<g id="node8" class="node"><title>node83</title>
<ellipse fill="none" stroke="black" cx="159" cy="-450" rx="55.2858" ry="18"/>
<text text-anchor="middle" x="159" y="-445.8" font-family="Times,serif" font-size="14.00">&quot;TABLES&quot;</text>
</g>
<!-- start&#45;&gt;node83 -->
<g id="edge23" class="edge"><title>start&#45;&gt;node83</title>
<path fill="none" stroke="black" d="M98.8449,-791.612C104.397,-764.942 114,-712.268 114,-667 114,-667 114,-667 114,-593 114,-550.897 132.2,-504.915 145.451,-477.016"/>
<polygon fill="black" stroke="black" points="148.642,-478.458 149.894,-467.937 142.354,-475.381 148.642,-478.458"/>
</g>
<!-- node85 -->
<g id="node10" class="node"><title>node85</title>
<ellipse fill="none" stroke="black" cx="215" cy="-594" rx="72.6006" ry="18"/>
<text text-anchor="middle" x="215" y="-589.8" font-family="Times,serif" font-size="14.00">&quot;IMPORTING&quot;</text>
</g>
<!-- start&#45;&gt;node85 -->
<g id="edge22" class="edge"><title>start&#45;&gt;node85</title>
<path fill="none" stroke="black" d="M105.97,-791.976C112.524,-781.662 120.923,-768.185 128,-756 155.185,-709.191 184.72,-653.376 201.436,-621.276"/>
<polygon fill="black" stroke="black" points="204.693,-622.599 206.195,-612.111 198.48,-619.373 204.693,-622.599"/>
</g>
<!-- node87 -->
<g id="node12" class="node"><title>node87</title>
<ellipse fill="none" stroke="black" cx="301" cy="-738" rx="73.7446" ry="18"/>
<text text-anchor="middle" x="301" y="-733.8" font-family="Times,serif" font-size="14.00">&quot;EXPORTING&quot;</text>
</g>
<!-- start&#45;&gt;node87 -->
<g id="edge21" class="edge"><title>start&#45;&gt;node87</title>
<path fill="none" stroke="black" d="M122.355,-799.705C154.811,-788.676 209.6,-770.058 249.964,-756.342"/>
<polygon fill="black" stroke="black" points="251.291,-759.588 259.633,-753.057 249.039,-752.96 251.291,-759.588"/>
</g>
<!-- node78 -->
<g id="node3" class="node"><title>node78</title>
<g id="a_node3"><a xlink:href="reuse_parameter_list_exceptions.svg" xlink:title="&lt;u&gt;parameter_list_exceptions&lt;/u&gt;">
<ellipse fill="none" stroke="black" cx="356" cy="-90" rx="112.296" ry="18"/>
<text text-anchor="start" x="282.527" y="-86.8" font-family="Times,serif" text-decoration="underline" font-size="14.00" fill="blue">parameter_list_exceptions</text>
</a>
</g>
</g>
<!-- node78&#45;&gt;end -->
<g id="edge1" class="edge"><title>node78&#45;&gt;end</title>
<path fill="none" stroke="black" d="M372.945,-72.055C381.502,-63.4984 392.041,-52.9594 401.465,-43.5352"/>
<polygon fill="black" stroke="black" points="404.128,-45.8213 408.725,-36.2753 399.179,-40.8715 404.128,-45.8213"/>
</g>
<!-- node79&#45;&gt;node78 -->
<g id="edge2" class="edge"><title>node79&#45;&gt;node78</title>
<path fill="none" stroke="black" d="M343.202,-143.697C345.096,-135.898 347.377,-126.509 349.484,-117.829"/>
<polygon fill="black" stroke="black" points="352.887,-118.648 351.846,-108.104 346.085,-116.996 352.887,-118.648"/>
</g>
<!-- node80 -->
<g id="node5" class="node"><title>node80</title>
<g id="a_node5"><a xlink:href="reuse_parameter_list_t.svg" xlink:title="&lt;u&gt;parameter_list_t&lt;/u&gt;">
<ellipse fill="none" stroke="black" cx="216" cy="-234" rx="73.5695" ry="18"/>
<text text-anchor="start" x="170.516" y="-230.8" font-family="Times,serif" text-decoration="underline" font-size="14.00" fill="blue">parameter_list_t</text>
</a>
</g>
</g>
<!-- node80&#45;&gt;end -->
<g id="edge4" class="edge"><title>node80&#45;&gt;end</title>
<path fill="none" stroke="black" d="M212.373,-215.536C206.725,-183.074 199.825,-113.024 235,-72 254.867,-48.83 338.904,-32.3231 388.645,-24.3697"/>
<polygon fill="black" stroke="black" points="389.361,-27.8005 398.703,-22.8031 388.284,-20.8839 389.361,-27.8005"/>
</g>
<!-- node80&#45;&gt;node79 -->
<g id="edge3" class="edge"><title>node80&#45;&gt;node79</title>
<path fill="none" stroke="black" d="M243.604,-217.291C260.89,-207.453 283.373,-194.658 302.17,-183.96"/>
<polygon fill="black" stroke="black" points="304.103,-186.887 311.063,-178.899 300.641,-180.803 304.103,-186.887"/>
</g>
<!-- node81&#45;&gt;node80 -->
<g id="edge5" class="edge"><title>node81&#45;&gt;node80</title>
<path fill="none" stroke="black" d="M216,-287.697C216,-279.983 216,-270.712 216,-262.112"/>
<polygon fill="black" stroke="black" points="219.5,-262.104 216,-252.104 212.5,-262.104 219.5,-262.104"/>
</g>
<!-- node82 -->
<g id="node7" class="node"><title>node82</title>
<g id="a_node7"><a xlink:href="reuse_parameter_list_t.svg" xlink:title="&lt;u&gt;parameter_list_t&lt;/u&gt;">
<ellipse fill="none" stroke="black" cx="318" cy="-378" rx="73.5695" ry="18"/>
<text text-anchor="start" x="272.516" y="-374.8" font-family="Times,serif" text-decoration="underline" font-size="14.00" fill="blue">parameter_list_t</text>
</a>
</g>
</g>
<!-- node82&#45;&gt;end -->
<g id="edge8" class="edge"><title>node82&#45;&gt;end</title>
<path fill="none" stroke="black" d="M362,-363.466C414.711,-344.195 496,-303.39 496,-235 496,-235 496,-235 496,-161 496,-120.553 495.973,-107.721 477,-72 471.348,-61.3586 462.934,-51.3613 454.561,-42.979"/>
<polygon fill="black" stroke="black" points="456.941,-40.4124 447.285,-36.0529 452.115,-45.4827 456.941,-40.4124"/>
</g>
<!-- node82&#45;&gt;node79 -->
<g id="edge7" class="edge"><title>node82&#45;&gt;node79</title>
<path fill="none" stroke="black" d="M319.683,-359.849C323.316,-322.832 331.917,-235.181 336.313,-190.386"/>
<polygon fill="black" stroke="black" points="339.816,-190.526 337.309,-180.232 332.849,-189.843 339.816,-190.526"/>
</g>
<!-- node82&#45;&gt;node81 -->
<g id="edge6" class="edge"><title>node82&#45;&gt;node81</title>
<path fill="none" stroke="black" d="M294.343,-360.765C280.568,-351.311 263.015,-339.265 248.017,-328.972"/>
<polygon fill="black" stroke="black" points="249.755,-325.92 239.529,-323.147 245.794,-331.692 249.755,-325.92"/>
</g>
<!-- node83&#45;&gt;node82 -->
<g id="edge9" class="edge"><title>node83&#45;&gt;node82</title>
<path fill="none" stroke="black" d="M190.413,-435.17C214.433,-424.595 247.834,-409.89 274.436,-398.179"/>
<polygon fill="black" stroke="black" points="276.158,-401.245 283.9,-394.013 273.337,-394.839 276.158,-401.245"/>
</g>
<!-- node84 -->
<g id="node9" class="node"><title>node84</title>
<g id="a_node9"><a xlink:href="reuse_parameter_list_t.svg" xlink:title="&lt;u&gt;parameter_list_t&lt;/u&gt;">
<ellipse fill="none" stroke="black" cx="254" cy="-522" rx="73.5695" ry="18"/>
<text text-anchor="start" x="208.516" y="-518.8" font-family="Times,serif" text-decoration="underline" font-size="14.00" fill="blue">parameter_list_t</text>
</a>
</g>
</g>
<!-- node84&#45;&gt;end -->
<g id="edge13" class="edge"><title>node84&#45;&gt;end</title>
<path fill="none" stroke="black" d="M323.214,-515.635C406.13,-504.992 534,-473.294 534,-379 534,-379 534,-379 534,-161 534,-118.331 524.171,-105.7 498,-72 488.176,-59.3504 474.574,-48.2873 461.836,-39.587"/>
<polygon fill="black" stroke="black" points="463.497,-36.4918 453.212,-33.9508 459.668,-42.3514 463.497,-36.4918"/>
</g>
<!-- node84&#45;&gt;node79 -->
<g id="edge12" class="edge"><title>node84&#45;&gt;node79</title>
<path fill="none" stroke="black" d="M294.608,-506.764C343.752,-486.634 420,-444.8 420,-379 420,-379 420,-379 420,-305 420,-258.703 387.111,-213.751 363.248,-187.228"/>
<polygon fill="black" stroke="black" points="365.545,-184.558 356.178,-179.607 360.413,-189.318 365.545,-184.558"/>
</g>
<!-- node84&#45;&gt;node81 -->
<g id="edge11" class="edge"><title>node84&#45;&gt;node81</title>
<path fill="none" stroke="black" d="M249.116,-503.888C243.674,-485.682 234.157,-456.224 223,-432 215.251,-415.176 206.834,-413.881 202,-396 196.438,-375.426 200.763,-351.54 206.026,-333.696"/>
<polygon fill="black" stroke="black" points="209.428,-334.55 209.165,-323.959 202.765,-332.402 209.428,-334.55"/>
</g>
<!-- node84&#45;&gt;node83 -->
<g id="edge10" class="edge"><title>node84&#45;&gt;node83</title>
<path fill="none" stroke="black" d="M231.966,-504.765C219.075,-495.266 202.631,-483.149 188.618,-472.824"/>
<polygon fill="black" stroke="black" points="190.387,-469.78 180.261,-466.666 186.235,-475.416 190.387,-469.78"/>
</g>
<!-- node85&#45;&gt;node84 -->
<g id="edge14" class="edge"><title>node85&#45;&gt;node84</title>
<path fill="none" stroke="black" d="M224.441,-576.055C228.925,-568.007 234.386,-558.205 239.388,-549.226"/>
<polygon fill="black" stroke="black" points="242.566,-550.714 244.375,-540.275 236.451,-547.308 242.566,-550.714"/>
</g>
<!-- node86 -->
<g id="node11" class="node"><title>node86</title>
<g id="a_node11"><a xlink:href="reuse_parameter_list_s.svg" xlink:title="&lt;u&gt;parameter_list_s&lt;/u&gt;">
<ellipse fill="none" stroke="black" cx="332" cy="-666" rx="74.713" ry="18"/>
<text text-anchor="start" x="285.739" y="-662.8" font-family="Times,serif" text-decoration="underline" font-size="14.00" fill="blue">parameter_list_s</text>
</a>
</g>
</g>
<!-- node86&#45;&gt;end -->
<g id="edge19" class="edge"><title>node86&#45;&gt;end</title>
<path fill="none" stroke="black" d="M393.806,-655.812C464.916,-641.334 572,-605.787 572,-523 572,-523 572,-523 572,-161 572,-116.058 555.76,-103.797 524,-72 506.732,-54.7117 482.642,-41.5798 462.668,-32.712"/>
<polygon fill="black" stroke="black" points="463.814,-29.3958 453.241,-28.7018 461.073,-35.8372 463.814,-29.3958"/>
</g>
<!-- node86&#45;&gt;node79 -->
<g id="edge18" class="edge"><title>node86&#45;&gt;node79</title>
<path fill="none" stroke="black" d="M360.907,-649.253C398.106,-626.629 458,-581.172 458,-523 458,-523 458,-523 458,-305 458,-252.516 409.654,-209.248 374.593,-184.77"/>
<polygon fill="black" stroke="black" points="376.247,-181.663 366.003,-178.957 372.324,-187.46 376.247,-181.663"/>
</g>
<!-- node86&#45;&gt;node81 -->
<g id="edge17" class="edge"><title>node86&#45;&gt;node81</title>
<path fill="none" stroke="black" d="M336.861,-647.781C344.496,-617.463 356.527,-553.114 337,-504 312.608,-442.648 265.698,-454.453 235,-396 224.929,-376.823 220.196,-352.662 217.971,-334.354"/>
<polygon fill="black" stroke="black" points="221.445,-333.918 216.93,-324.333 214.482,-334.642 221.445,-333.918"/>
</g>
<!-- node86&#45;&gt;node83 -->
<g id="edge16" class="edge"><title>node86&#45;&gt;node83</title>
<path fill="none" stroke="black" d="M329.818,-647.685C326.373,-627.607 317.774,-594.862 297,-576 253.881,-536.849 209.107,-584.044 171,-540 156.54,-523.287 154.414,-497.795 155.396,-478.371"/>
<polygon fill="black" stroke="black" points="158.894,-478.545 156.204,-468.298 151.916,-477.986 158.894,-478.545"/>
</g>
<!-- node86&#45;&gt;node85 -->
<g id="edge15" class="edge"><title>node86&#45;&gt;node85</title>
<path fill="none" stroke="black" d="M305.451,-649.116C289.145,-639.36 268.063,-626.747 250.354,-616.152"/>
<polygon fill="black" stroke="black" points="251.822,-612.952 241.444,-610.821 248.228,-618.959 251.822,-612.952"/>
</g>
<!-- node87&#45;&gt;node86 -->
<g id="edge20" class="edge"><title>node87&#45;&gt;node86</title>
<path fill="none" stroke="black" d="M308.504,-720.055C312.031,-712.091 316.318,-702.411 320.26,-693.51"/>
<polygon fill="black" stroke="black" points="323.5,-694.836 324.35,-684.275 317.1,-692.002 323.5,-694.836"/>
</g>
</g>
</svg>
