<svg xmlns="http://www.w3.org/2000/svg" xmlns:xlink="http://www.w3.org/1999/xlink" class="railroad-diagram" width="510" height="92" viewBox="0 0 510 92">
<defs>
<style type="text/css"><![CDATA[
path {
stroke-width: 3;
stroke: black;
fill: rgba(0,0,0,0);
}
text {
font: bold 14px monospace;
text-anchor: middle;
}
text.diagram-text {
font-size: 12px;
}
a {
fill: blue;
}
text.diagram-arrow {
font-size: 16px;
}
text.label {
text-anchor: start;
}
text.comment {
font: italic 12px monospace;
}
rect {
stroke-width: 3;
stroke: black;
fill: #BCBCBC;
}
path.diagram-text {
stroke-width: 3;
stroke: black;
fill: #BCBCBC;
cursor: help;
}
]]></style>
</defs>
<g transform="translate(.5 .5)">
<path d="M 20 21 v 20 m 0 -10 h 20.5"></path>
<path d="M40 31h10"></path>
<g>
<path d="M50 31h0"></path>
<path d="M460 31h0"></path>
<g class="terminal">
<path d="M50 31h0"></path>
<path d="M222 31h0"></path>
<rect x="50" y="20" width="172" height="22" rx="10" ry="10"></rect>
<text x="136" y="35">Token "BracketLeft"</text>
</g>
<path d="M222 31h10"></path>
<g>
<path d="M232 31h0"></path>
<path d="M460 31h0"></path>
<path d="M232 31h20"></path>
<g class="terminal">
<path d="M252 31h4"></path>
<path d="M436 31h4"></path>
<rect x="256" y="20" width="180" height="22" rx="10" ry="10"></rect>
<text x="346" y="35">Token "BracketRight"</text>
</g>
<path d="M440 31h20"></path>
<path d="M232 31a10 10 0 0 1 10 10v10a10 10 0 0 0 10 10"></path>
<g class="terminal">
<path d="M252 61h0"></path>
<path d="M440 61h0"></path>
<rect x="252" y="50" width="188" height="22" rx="10" ry="10"></rect>
<text x="346" y="65">Token "BracketRightW"</text>
</g>
<path d="M440 61a10 10 0 0 0 10 -10v-10a10 10 0 0 1 10 -10"></path>
</g>
</g>
<path d="M460 31h10"></path>
<path d="M 470 31 h 20 m 0 -10 v 20"></path>
</g>
</svg>
