<svg xmlns="http://www.w3.org/2000/svg" xmlns:xlink="http://www.w3.org/1999/xlink" class="railroad-diagram" width="532" height="122" viewBox="0 0 532 122">
<defs>
<style type="text/css"><![CDATA[
path {
stroke-width: 3;
stroke: black;
fill: rgba(0,0,0,0);
}
text {
font: bold 14px monospace;
text-anchor: middle;
}
text.diagram-text {
font-size: 12px;
}
a {
fill: blue;
}
text.diagram-arrow {
font-size: 16px;
}
text.label {
text-anchor: start;
}
text.comment {
font: italic 12px monospace;
}
rect {
stroke-width: 3;
stroke: black;
fill: #BCBCBC;
}
path.diagram-text {
stroke-width: 3;
stroke: black;
fill: #BCBCBC;
cursor: help;
}
]]></style>
</defs>
<g transform="translate(.5 .5)">
<path d="M 20 21 v 20 m 0 -10 h 20.5"></path>
<path d="M40 31h10"></path>
<g>
<path d="M50 31h0"></path>
<path d="M482 31h0"></path>
<g class="non-terminal">
<path d="M50 31h0"></path>
<path d="M158 31h0"></path>
<rect x="50" y="20" width="108" height="22"></rect>
<a xlink:href="reuse_method_name.svg"><text x="104" y="35">method&#95;name</text>
</a>
</g>
<path d="M158 31h10"></path>
<path d="M168 31h10"></path>
<g class="terminal">
<path d="M178 31h0"></path>
<path d="M222 31h0"></path>
<rect x="178" y="20" width="44" height="22" rx="10" ry="10"></rect>
<text x="200" y="35">"("</text>
</g>
<path d="M222 31h10"></path>
<g>
<path d="M232 31h0"></path>
<path d="M428 31h0"></path>
<path d="M232 31h20"></path>
<g class="non-terminal">
<path d="M252 31h44"></path>
<path d="M364 31h44"></path>
<rect x="296" y="20" width="68" height="22"></rect>
<a xlink:href="reuse_source.svg"><text x="330" y="35">source</text>
</a>
</g>
<path d="M408 31h20"></path>
<path d="M232 31a10 10 0 0 1 10 10v10a10 10 0 0 0 10 10"></path>
<g class="non-terminal">
<path d="M252 61h4"></path>
<path d="M404 61h4"></path>
<rect x="256" y="50" width="148" height="22"></rect>
<a xlink:href="reuse_parameter_list_s.svg"><text x="330" y="65">parameter&#95;list&#95;s</text>
</a>
</g>
<path d="M408 61a10 10 0 0 0 10 -10v-10a10 10 0 0 1 10 -10"></path>
<path d="M232 31a10 10 0 0 1 10 10v40a10 10 0 0 0 10 10"></path>
<g class="non-terminal">
<path d="M252 91h0"></path>
<path d="M408 91h0"></path>
<rect x="252" y="80" width="156" height="22"></rect>
<a xlink:href="reuse_method_parameters.svg"><text x="330" y="95">method&#95;parameters</text>
</a>
</g>
<path d="M408 91a10 10 0 0 0 10 -10v-40a10 10 0 0 1 10 -10"></path>
</g>
<path d="M428 31h10"></path>
<g class="terminal">
<path d="M438 31h0"></path>
<path d="M482 31h0"></path>
<rect x="438" y="20" width="44" height="22" rx="10" ry="10"></rect>
<text x="460" y="35">")"</text>
</g>
</g>
<path d="M482 31h10"></path>
<path d="M 492 31 h 20 m 0 -10 v 20"></path>
</g>
</svg>
