<svg xmlns="http://www.w3.org/2000/svg" xmlns:xlink="http://www.w3.org/1999/xlink" class="railroad-diagram" width="442" height="80" viewBox="0 0 442 80">
<defs>
<style type="text/css"><![CDATA[
path {
stroke-width: 3;
stroke: black;
fill: rgba(0,0,0,0);
}
text {
font: bold 14px monospace;
text-anchor: middle;
}
text.diagram-text {
font-size: 12px;
}
a {
fill: blue;
}
text.diagram-arrow {
font-size: 16px;
}
text.label {
text-anchor: start;
}
text.comment {
font: italic 12px monospace;
}
rect {
stroke-width: 3;
stroke: black;
fill: #BCBCBC;
}
path.diagram-text {
stroke-width: 3;
stroke: black;
fill: #BCBCBC;
cursor: help;
}
]]></style>
</defs>
<g transform="translate(.5 .5)">
<path d="M 20 30 v 20 m 0 -10 h 20.5"></path>
<path d="M40 40h10"></path>
<g>
<path d="M50 40h0"></path>
<path d="M392 40h0"></path>
<g class="terminal">
<path d="M50 40h0"></path>
<path d="M190 40h0"></path>
<rect x="50" y="29" width="140" height="22" rx="10" ry="10"></rect>
<text x="120" y="44">^(\/\w+\/)?\w+$</text>
</g>
<path d="M190 40h10"></path>
<g>
<path d="M200 40h0"></path>
<path d="M392 40h0"></path>
<path d="M200 40a10 10 0 0 0 10 -10v0a10 10 0 0 1 10 -10"></path>
<g>
<path d="M220 20h152"></path>
</g>
<path d="M372 20a10 10 0 0 1 10 10v0a10 10 0 0 0 10 10"></path>
<path d="M200 40h20"></path>
<g>
<path d="M220 40h0"></path>
<path d="M372 40h0"></path>
<path d="M220 40h10"></path>
<g>
<path d="M230 40h0"></path>
<path d="M362 40h0"></path>
<g class="terminal">
<path d="M230 40h0"></path>
<path d="M282 40h0"></path>
<rect x="230" y="29" width="52" height="22" rx="10" ry="10"></rect>
<text x="256" y="44">!"-"</text>
</g>
<path d="M282 40h10"></path>
<path d="M292 40h10"></path>
<g class="terminal">
<path d="M302 40h0"></path>
<path d="M362 40h0"></path>
<rect x="302" y="29" width="60" height="22" rx="10" ry="10"></rect>
<text x="332" y="44">^\w+$</text>
</g>
</g>
<path d="M362 40h10"></path>
<path d="M230 40a10 10 0 0 0 -10 10v0a10 10 0 0 0 10 10"></path>
<g>
<path d="M230 60h132"></path>
</g>
<path d="M362 60a10 10 0 0 0 10 -10v0a10 10 0 0 0 -10 -10"></path>
</g>
<path d="M372 40h20"></path>
</g>
</g>
<path d="M392 40h10"></path>
<path d="M 402 40 h 20 m 0 -10 v 20"></path>
</g>
</svg>
