<svg xmlns="http://www.w3.org/2000/svg" xmlns:xlink="http://www.w3.org/1999/xlink" class="railroad-diagram" width="448" height="92" viewBox="0 0 448 92">
<defs>
<style type="text/css"><![CDATA[
path {
stroke-width: 3;
stroke: black;
fill: rgba(0,0,0,0);
}
text {
font: bold 14px monospace;
text-anchor: middle;
}
text.diagram-text {
font-size: 12px;
}
a {
fill: blue;
}
text.diagram-arrow {
font-size: 16px;
}
text.label {
text-anchor: start;
}
text.comment {
font: italic 12px monospace;
}
rect {
stroke-width: 3;
stroke: black;
fill: #BCBCBC;
}
path.diagram-text {
stroke-width: 3;
stroke: black;
fill: #BCBCBC;
cursor: help;
}
]]></style>
</defs>
<g transform="translate(.5 .5)">
<path d="M 20 21 v 20 m 0 -10 h 20.5"></path>
<path d="M40 31h10"></path>
<g>
<path d="M50 31h0"></path>
<path d="M398 31h0"></path>
<g>
<path d="M50 31h0"></path>
<path d="M150 31h0"></path>
<path d="M50 31h20"></path>
<g class="terminal">
<path d="M70 31h0"></path>
<path d="M130 31h0"></path>
<rect x="70" y="20" width="60" height="22" rx="10" ry="10"></rect>
<text x="100" y="35">!" ("</text>
</g>
<path d="M130 31h20"></path>
<path d="M50 31a10 10 0 0 1 10 10v10a10 10 0 0 0 10 10"></path>
<g class="terminal">
<path d="M70 61h0"></path>
<path d="M122 61h8"></path>
<rect x="70" y="50" width="52" height="22" rx="10" ry="10"></rect>
<text x="96" y="65">!"("</text>
</g>
<path d="M130 61a10 10 0 0 0 10 -10v-10a10 10 0 0 1 10 -10"></path>
</g>
<g>
<path d="M150 31h0"></path>
<path d="M298 31h0"></path>
<path d="M150 31h20"></path>
<g class="non-terminal">
<path d="M170 31h0"></path>
<path d="M278 31h0"></path>
<rect x="170" y="20" width="108" height="22"></rect>
<a xlink:href="reuse_field_chain.svg"><text x="224" y="35">field&#95;chain</text>
</a>
</g>
<path d="M278 31h20"></path>
<path d="M150 31a10 10 0 0 1 10 10v10a10 10 0 0 0 10 10"></path>
<g class="non-terminal">
<path d="M170 61h0"></path>
<path d="M254 61h24"></path>
<rect x="170" y="50" width="84" height="22"></rect>
<a xlink:href="reuse_constant.svg"><text x="212" y="65">constant</text>
</a>
</g>
<path d="M278 61a10 10 0 0 0 10 -10v-10a10 10 0 0 1 10 -10"></path>
</g>
<g>
<path d="M298 31h0"></path>
<path d="M398 31h0"></path>
<path d="M298 31h20"></path>
<g class="terminal">
<path d="M318 31h0"></path>
<path d="M378 31h0"></path>
<rect x="318" y="20" width="60" height="22" rx="10" ry="10"></rect>
<text x="348" y="35">!") "</text>
</g>
<path d="M378 31h20"></path>
<path d="M298 31a10 10 0 0 1 10 10v10a10 10 0 0 0 10 10"></path>
<g class="terminal">
<path d="M318 61h0"></path>
<path d="M370 61h8"></path>
<rect x="318" y="50" width="52" height="22" rx="10" ry="10"></rect>
<text x="344" y="65">!")"</text>
</g>
<path d="M378 61a10 10 0 0 0 10 -10v-10a10 10 0 0 1 10 -10"></path>
</g>
</g>
<path d="M398 31h10"></path>
<path d="M 408 31 h 20 m 0 -10 v 20"></path>
</g>
</svg>
