<svg xmlns="http://www.w3.org/2000/svg" xmlns:xlink="http://www.w3.org/1999/xlink" class="railroad-diagram" width="1082" height="1345" viewBox="0 0 1082 1345">
<defs>
<style type="text/css"><![CDATA[
path {
stroke-width: 3;
stroke: black;
fill: rgba(0,0,0,0);
}
text {
font: bold 14px monospace;
text-anchor: middle;
}
text.diagram-text {
font-size: 12px;
}
a {
fill: blue;
}
text.diagram-arrow {
font-size: 16px;
}
text.label {
text-anchor: start;
}
text.comment {
font: italic 12px monospace;
}
rect {
stroke-width: 3;
stroke: black;
fill: #BCBCBC;
}
path.diagram-text {
stroke-width: 3;
stroke: black;
fill: #BCBCBC;
cursor: help;
}
]]></style>
</defs>
<g transform="translate(.5 .5)">
<path d="M 20 30 v 20 m 0 -10 h 20.5"></path>
<path d="M40 40h10"></path>
<g>
<path d="M50 40h0"></path>
<path d="M1032 40h0"></path>
<g>
<path d="M50 40h0"></path>
<path d="M150 40h0"></path>
<path d="M50 40a10 10 0 0 0 10 -10v0a10 10 0 0 1 10 -10"></path>
<g>
<path d="M70 20h60"></path>
</g>
<path d="M130 20a10 10 0 0 1 10 10v0a10 10 0 0 0 10 10"></path>
<path d="M50 40h20"></path>
<g class="terminal">
<path d="M70 40h0"></path>
<path d="M130 40h0"></path>
<rect x="70" y="29" width="60" height="22" rx="10" ry="10"></rect>
<text x="100" y="44">"NOT"</text>
</g>
<path d="M130 40h20"></path>
</g>
<g>
<path d="M150 40h0"></path>
<path d="M1032 40h0"></path>
<path d="M150 40h20"></path>
<g>
<path d="M170 40h0"></path>
<path d="M396 40h616"></path>
<g>
<path d="M170 40h0"></path>
<path d="M236 40h0"></path>
<text x="203" y="45" class="comment">v740sp08</text>
</g>
<path d="M236 40h10"></path>
<path d="M246 40h10"></path>
<g class="non-terminal">
<path d="M256 40h0"></path>
<path d="M396 40h0"></path>
<rect x="256" y="29" width="140" height="22"></rect>
<a xlink:href="reuse_methodcallchain.svg"><text x="326" y="44">MethodCallChain</text>
</a>
</g>
</g>
<path d="M1012 40h20"></path>
<path d="M150 40a10 10 0 0 1 10 10v19a10 10 0 0 0 10 10"></path>
<g>
<path d="M170 79h0"></path>
<path d="M1012 79h0"></path>
<g class="non-terminal">
<path d="M170 79h0"></path>
<path d="M238 79h0"></path>
<rect x="170" y="68" width="68" height="22"></rect>
<a xlink:href="reuse_source.svg"><text x="204" y="83">Source</text>
</a>
</g>
<path d="M238 79h10"></path>
<g>
<path d="M248 79h0"></path>
<path d="M1012 79h0"></path>
<path d="M248 79h20"></path>
<g>
<path d="M268 79h0"></path>
<path d="M588 79h404"></path>
<g>
<path d="M268 79h0"></path>
<path d="M500 79h0"></path>
<g>
<path d="M268 79h0"></path>
<path d="M368 79h0"></path>
<path d="M268 79a10 10 0 0 0 10 -10v0a10 10 0 0 1 10 -10"></path>
<g>
<path d="M288 59h60"></path>
</g>
<path d="M348 59a10 10 0 0 1 10 10v0a10 10 0 0 0 10 10"></path>
<path d="M268 79h20"></path>
<g class="terminal">
<path d="M288 79h0"></path>
<path d="M348 79h0"></path>
<rect x="288" y="68" width="60" height="22" rx="10" ry="10"></rect>
<text x="318" y="83">"NOT"</text>
</g>
<path d="M348 79h20"></path>
</g>
<g>
<path d="M368 79h0"></path>
<path d="M500 79h0"></path>
<path d="M368 79h20"></path>
<g class="terminal">
<path d="M388 79h0"></path>
<path d="M432 79h48"></path>
<rect x="388" y="68" width="44" height="22" rx="10" ry="10"></rect>
<text x="410" y="83">"="</text>
</g>
<path d="M480 79h20"></path>
<path d="M368 79a10 10 0 0 1 10 10v10a10 10 0 0 0 10 10"></path>
<g class="terminal">
<path d="M388 109h0"></path>
<path d="M440 109h40"></path>
<rect x="388" y="98" width="52" height="22" rx="10" ry="10"></rect>
<text x="414" y="113">"&#60;>"</text>
</g>
<path d="M480 109a10 10 0 0 0 10 -10v-10a10 10 0 0 1 10 -10"></path>
<path d="M368 79a10 10 0 0 1 10 10v40a10 10 0 0 0 10 10"></path>
<g class="terminal">
<path d="M388 139h0"></path>
<path d="M440 139h40"></path>
<rect x="388" y="128" width="52" height="22" rx="10" ry="10"></rect>
<text x="414" y="143">">&#60;"</text>
</g>
<path d="M480 139a10 10 0 0 0 10 -10v-40a10 10 0 0 1 10 -10"></path>
<path d="M368 79a10 10 0 0 1 10 10v70a10 10 0 0 0 10 10"></path>
<g class="terminal">
<path d="M388 169h0"></path>
<path d="M432 169h48"></path>
<rect x="388" y="158" width="44" height="22" rx="10" ry="10"></rect>
<text x="410" y="173">"&#60;"</text>
</g>
<path d="M480 169a10 10 0 0 0 10 -10v-70a10 10 0 0 1 10 -10"></path>
<path d="M368 79a10 10 0 0 1 10 10v100a10 10 0 0 0 10 10"></path>
<g class="terminal">
<path d="M388 199h0"></path>
<path d="M432 199h48"></path>
<rect x="388" y="188" width="44" height="22" rx="10" ry="10"></rect>
<text x="410" y="203">">"</text>
</g>
<path d="M480 199a10 10 0 0 0 10 -10v-100a10 10 0 0 1 10 -10"></path>
<path d="M368 79a10 10 0 0 1 10 10v130a10 10 0 0 0 10 10"></path>
<g class="terminal">
<path d="M388 229h0"></path>
<path d="M440 229h40"></path>
<rect x="388" y="218" width="52" height="22" rx="10" ry="10"></rect>
<text x="414" y="233">"&#60;="</text>
</g>
<path d="M480 229a10 10 0 0 0 10 -10v-130a10 10 0 0 1 10 -10"></path>
<path d="M368 79a10 10 0 0 1 10 10v160a10 10 0 0 0 10 10"></path>
<g class="terminal">
<path d="M388 259h0"></path>
<path d="M440 259h40"></path>
<rect x="388" y="248" width="52" height="22" rx="10" ry="10"></rect>
<text x="414" y="263">">="</text>
</g>
<path d="M480 259a10 10 0 0 0 10 -10v-160a10 10 0 0 1 10 -10"></path>
<path d="M368 79a10 10 0 0 1 10 10v190a10 10 0 0 0 10 10"></path>
<g class="terminal">
<path d="M388 289h0"></path>
<path d="M440 289h40"></path>
<rect x="388" y="278" width="52" height="22" rx="10" ry="10"></rect>
<text x="414" y="293">"=>"</text>
</g>
<path d="M480 289a10 10 0 0 0 10 -10v-190a10 10 0 0 1 10 -10"></path>
<path d="M368 79a10 10 0 0 1 10 10v220a10 10 0 0 0 10 10"></path>
<g class="terminal">
<path d="M388 319h0"></path>
<path d="M440 319h40"></path>
<rect x="388" y="308" width="52" height="22" rx="10" ry="10"></rect>
<text x="414" y="323">"=&#60;"</text>
</g>
<path d="M480 319a10 10 0 0 0 10 -10v-220a10 10 0 0 1 10 -10"></path>
<path d="M368 79a10 10 0 0 1 10 10v250a10 10 0 0 0 10 10"></path>
<g class="terminal">
<path d="M388 349h0"></path>
<path d="M440 349h40"></path>
<rect x="388" y="338" width="52" height="22" rx="10" ry="10"></rect>
<text x="414" y="353">"CA"</text>
</g>
<path d="M480 349a10 10 0 0 0 10 -10v-250a10 10 0 0 1 10 -10"></path>
<path d="M368 79a10 10 0 0 1 10 10v280a10 10 0 0 0 10 10"></path>
<g class="terminal">
<path d="M388 379h0"></path>
<path d="M440 379h40"></path>
<rect x="388" y="368" width="52" height="22" rx="10" ry="10"></rect>
<text x="414" y="383">"CO"</text>
</g>
<path d="M480 379a10 10 0 0 0 10 -10v-280a10 10 0 0 1 10 -10"></path>
<path d="M368 79a10 10 0 0 1 10 10v310a10 10 0 0 0 10 10"></path>
<g class="terminal">
<path d="M388 409h0"></path>
<path d="M440 409h40"></path>
<rect x="388" y="398" width="52" height="22" rx="10" ry="10"></rect>
<text x="414" y="413">"CP"</text>
</g>
<path d="M480 409a10 10 0 0 0 10 -10v-310a10 10 0 0 1 10 -10"></path>
<path d="M368 79a10 10 0 0 1 10 10v340a10 10 0 0 0 10 10"></path>
<g class="terminal">
<path d="M388 439h0"></path>
<path d="M440 439h40"></path>
<rect x="388" y="428" width="52" height="22" rx="10" ry="10"></rect>
<text x="414" y="443">"EQ"</text>
</g>
<path d="M480 439a10 10 0 0 0 10 -10v-340a10 10 0 0 1 10 -10"></path>
<path d="M368 79a10 10 0 0 1 10 10v370a10 10 0 0 0 10 10"></path>
<g class="terminal">
<path d="M388 469h0"></path>
<path d="M440 469h40"></path>
<rect x="388" y="458" width="52" height="22" rx="10" ry="10"></rect>
<text x="414" y="473">"NE"</text>
</g>
<path d="M480 469a10 10 0 0 0 10 -10v-370a10 10 0 0 1 10 -10"></path>
<path d="M368 79a10 10 0 0 1 10 10v400a10 10 0 0 0 10 10"></path>
<g class="terminal">
<path d="M388 499h0"></path>
<path d="M440 499h40"></path>
<rect x="388" y="488" width="52" height="22" rx="10" ry="10"></rect>
<text x="414" y="503">"CN"</text>
</g>
<path d="M480 499a10 10 0 0 0 10 -10v-400a10 10 0 0 1 10 -10"></path>
<path d="M368 79a10 10 0 0 1 10 10v430a10 10 0 0 0 10 10"></path>
<g class="terminal">
<path d="M388 529h0"></path>
<path d="M440 529h40"></path>
<rect x="388" y="518" width="52" height="22" rx="10" ry="10"></rect>
<text x="414" y="533">"GE"</text>
</g>
<path d="M480 529a10 10 0 0 0 10 -10v-430a10 10 0 0 1 10 -10"></path>
<path d="M368 79a10 10 0 0 1 10 10v460a10 10 0 0 0 10 10"></path>
<g class="terminal">
<path d="M388 559h0"></path>
<path d="M440 559h40"></path>
<rect x="388" y="548" width="52" height="22" rx="10" ry="10"></rect>
<text x="414" y="563">"GT"</text>
</g>
<path d="M480 559a10 10 0 0 0 10 -10v-460a10 10 0 0 1 10 -10"></path>
<path d="M368 79a10 10 0 0 1 10 10v490a10 10 0 0 0 10 10"></path>
<g class="terminal">
<path d="M388 589h0"></path>
<path d="M440 589h40"></path>
<rect x="388" y="578" width="52" height="22" rx="10" ry="10"></rect>
<text x="414" y="593">"LT"</text>
</g>
<path d="M480 589a10 10 0 0 0 10 -10v-490a10 10 0 0 1 10 -10"></path>
<path d="M368 79a10 10 0 0 1 10 10v520a10 10 0 0 0 10 10"></path>
<g class="terminal">
<path d="M388 619h0"></path>
<path d="M440 619h40"></path>
<rect x="388" y="608" width="52" height="22" rx="10" ry="10"></rect>
<text x="414" y="623">"LE"</text>
</g>
<path d="M480 619a10 10 0 0 0 10 -10v-520a10 10 0 0 1 10 -10"></path>
<path d="M368 79a10 10 0 0 1 10 10v550a10 10 0 0 0 10 10"></path>
<g class="terminal">
<path d="M388 649h0"></path>
<path d="M440 649h40"></path>
<rect x="388" y="638" width="52" height="22" rx="10" ry="10"></rect>
<text x="414" y="653">"CS"</text>
</g>
<path d="M480 649a10 10 0 0 0 10 -10v-550a10 10 0 0 1 10 -10"></path>
<path d="M368 79a10 10 0 0 1 10 10v580a10 10 0 0 0 10 10"></path>
<g class="terminal">
<path d="M388 679h0"></path>
<path d="M440 679h40"></path>
<rect x="388" y="668" width="52" height="22" rx="10" ry="10"></rect>
<text x="414" y="683">"NS"</text>
</g>
<path d="M480 679a10 10 0 0 0 10 -10v-580a10 10 0 0 1 10 -10"></path>
<path d="M368 79a10 10 0 0 1 10 10v610a10 10 0 0 0 10 10"></path>
<g class="terminal">
<path d="M388 709h0"></path>
<path d="M440 709h40"></path>
<rect x="388" y="698" width="52" height="22" rx="10" ry="10"></rect>
<text x="414" y="713">"NA"</text>
</g>
<path d="M480 709a10 10 0 0 0 10 -10v-610a10 10 0 0 1 10 -10"></path>
<path d="M368 79a10 10 0 0 1 10 10v640a10 10 0 0 0 10 10"></path>
<g class="terminal">
<path d="M388 739h0"></path>
<path d="M440 739h40"></path>
<rect x="388" y="728" width="52" height="22" rx="10" ry="10"></rect>
<text x="414" y="743">"NP"</text>
</g>
<path d="M480 739a10 10 0 0 0 10 -10v-640a10 10 0 0 1 10 -10"></path>
<path d="M368 79a10 10 0 0 1 10 10v670a10 10 0 0 0 10 10"></path>
<g class="terminal">
<path d="M388 769h0"></path>
<path d="M480 769h0"></path>
<rect x="388" y="758" width="92" height="22" rx="10" ry="10"></rect>
<text x="434" y="773">"BYTE-CO"</text>
</g>
<path d="M480 769a10 10 0 0 0 10 -10v-670a10 10 0 0 1 10 -10"></path>
<path d="M368 79a10 10 0 0 1 10 10v700a10 10 0 0 0 10 10"></path>
<g class="terminal">
<path d="M388 799h0"></path>
<path d="M480 799h0"></path>
<rect x="388" y="788" width="92" height="22" rx="10" ry="10"></rect>
<text x="434" y="803">"BYTE-CA"</text>
</g>
<path d="M480 799a10 10 0 0 0 10 -10v-700a10 10 0 0 1 10 -10"></path>
<path d="M368 79a10 10 0 0 1 10 10v730a10 10 0 0 0 10 10"></path>
<g class="terminal">
<path d="M388 829h0"></path>
<path d="M480 829h0"></path>
<rect x="388" y="818" width="92" height="22" rx="10" ry="10"></rect>
<text x="434" y="833">"BYTE-CS"</text>
</g>
<path d="M480 829a10 10 0 0 0 10 -10v-730a10 10 0 0 1 10 -10"></path>
<path d="M368 79a10 10 0 0 1 10 10v760a10 10 0 0 0 10 10"></path>
<g class="terminal">
<path d="M388 859h0"></path>
<path d="M480 859h0"></path>
<rect x="388" y="848" width="92" height="22" rx="10" ry="10"></rect>
<text x="434" y="863">"BYTE-CN"</text>
</g>
<path d="M480 859a10 10 0 0 0 10 -10v-760a10 10 0 0 1 10 -10"></path>
<path d="M368 79a10 10 0 0 1 10 10v790a10 10 0 0 0 10 10"></path>
<g class="terminal">
<path d="M388 889h0"></path>
<path d="M480 889h0"></path>
<rect x="388" y="878" width="92" height="22" rx="10" ry="10"></rect>
<text x="434" y="893">"BYTE-NA"</text>
</g>
<path d="M480 889a10 10 0 0 0 10 -10v-790a10 10 0 0 1 10 -10"></path>
<path d="M368 79a10 10 0 0 1 10 10v820a10 10 0 0 0 10 10"></path>
<g class="terminal">
<path d="M388 919h0"></path>
<path d="M480 919h0"></path>
<rect x="388" y="908" width="92" height="22" rx="10" ry="10"></rect>
<text x="434" y="923">"BYTE-NS"</text>
</g>
<path d="M480 919a10 10 0 0 0 10 -10v-820a10 10 0 0 1 10 -10"></path>
<path d="M368 79a10 10 0 0 1 10 10v850a10 10 0 0 0 10 10"></path>
<g class="terminal">
<path d="M388 949h0"></path>
<path d="M432 949h48"></path>
<rect x="388" y="938" width="44" height="22" rx="10" ry="10"></rect>
<text x="410" y="953">"O"</text>
</g>
<path d="M480 949a10 10 0 0 0 10 -10v-850a10 10 0 0 1 10 -10"></path>
<path d="M368 79a10 10 0 0 1 10 10v880a10 10 0 0 0 10 10"></path>
<g class="terminal">
<path d="M388 979h0"></path>
<path d="M432 979h48"></path>
<rect x="388" y="968" width="44" height="22" rx="10" ry="10"></rect>
<text x="410" y="983">"Z"</text>
</g>
<path d="M480 979a10 10 0 0 0 10 -10v-880a10 10 0 0 1 10 -10"></path>
<path d="M368 79a10 10 0 0 1 10 10v910a10 10 0 0 0 10 10"></path>
<g class="terminal">
<path d="M388 1009h0"></path>
<path d="M432 1009h48"></path>
<rect x="388" y="998" width="44" height="22" rx="10" ry="10"></rect>
<text x="410" y="1013">"M"</text>
</g>
<path d="M480 1009a10 10 0 0 0 10 -10v-910a10 10 0 0 1 10 -10"></path>
</g>
</g>
<path d="M500 79h10"></path>
<path d="M510 79h10"></path>
<g class="non-terminal">
<path d="M520 79h0"></path>
<path d="M588 79h0"></path>
<rect x="520" y="68" width="68" height="22"></rect>
<a xlink:href="reuse_source.svg"><text x="554" y="83">Source</text>
</a>
</g>
</g>
<path d="M992 79h20"></path>
<path d="M248 79a10 10 0 0 1 10 10v949a10 10 0 0 0 10 10"></path>
<g>
<path d="M268 1048h0"></path>
<path d="M992 1048h0"></path>
<g>
<path d="M268 1048h0"></path>
<path d="M368 1048h0"></path>
<path d="M268 1048a10 10 0 0 0 10 -10v0a10 10 0 0 1 10 -10"></path>
<g>
<path d="M288 1028h60"></path>
</g>
<path d="M348 1028a10 10 0 0 1 10 10v0a10 10 0 0 0 10 10"></path>
<path d="M268 1048h20"></path>
<g class="terminal">
<path d="M288 1048h0"></path>
<path d="M348 1048h0"></path>
<rect x="288" y="1037" width="60" height="22" rx="10" ry="10"></rect>
<text x="318" y="1052">"NOT"</text>
</g>
<path d="M348 1048h20"></path>
</g>
<path d="M368 1048h10"></path>
<g class="terminal">
<path d="M378 1048h0"></path>
<path d="M430 1048h0"></path>
<rect x="378" y="1037" width="52" height="22" rx="10" ry="10"></rect>
<text x="404" y="1052">"IN"</text>
</g>
<path d="M430 1048h10"></path>
<g>
<path d="M440 1048h0"></path>
<path d="M992 1048h0"></path>
<path d="M440 1048h20"></path>
<g class="non-terminal">
<path d="M460 1048h0"></path>
<path d="M528 1048h444"></path>
<rect x="460" y="1037" width="68" height="22"></rect>
<a xlink:href="reuse_source.svg"><text x="494" y="1052">Source</text>
</a>
</g>
<path d="M972 1048h20"></path>
<path d="M440 1048a10 10 0 0 1 10 10v10a10 10 0 0 0 10 10"></path>
<g>
<path d="M460 1078h0"></path>
<path d="M972 1078h0"></path>
<g class="terminal">
<path d="M460 1078h0"></path>
<path d="M520 1078h0"></path>
<rect x="460" y="1067" width="60" height="22" rx="10" ry="10"></rect>
<text x="490" y="1082">!" ("</text>
</g>
<path d="M520 1078h10"></path>
<g>
<path d="M530 1078h0"></path>
<path d="M654 1078h0"></path>
<path d="M530 1078h20"></path>
<g class="non-terminal">
<path d="M550 1078h0"></path>
<path d="M634 1078h0"></path>
<rect x="550" y="1067" width="84" height="22"></rect>
<a xlink:href="reuse_fieldsub.svg"><text x="592" y="1082">FieldSub</text>
</a>
</g>
<path d="M634 1078h20"></path>
<path d="M530 1078a10 10 0 0 1 10 10v10a10 10 0 0 0 10 10"></path>
<g class="non-terminal">
<path d="M550 1108h0"></path>
<path d="M634 1108h0"></path>
<rect x="550" y="1097" width="84" height="22"></rect>
<a xlink:href="reuse_constant.svg"><text x="592" y="1112">Constant</text>
</a>
</g>
<path d="M634 1108a10 10 0 0 0 10 -10v-10a10 10 0 0 1 10 -10"></path>
</g>
<path d="M654 1078h10"></path>
<g>
<path d="M664 1078h0"></path>
<path d="M862 1078h0"></path>
<path d="M664 1078h10"></path>
<g>
<path d="M674 1078h0"></path>
<path d="M852 1078h0"></path>
<g class="terminal">
<path d="M674 1078h0"></path>
<path d="M718 1078h0"></path>
<rect x="674" y="1067" width="44" height="22" rx="10" ry="10"></rect>
<text x="696" y="1082">","</text>
</g>
<path d="M718 1078h10"></path>
<g>
<path d="M728 1078h0"></path>
<path d="M852 1078h0"></path>
<path d="M728 1078h20"></path>
<g class="non-terminal">
<path d="M748 1078h0"></path>
<path d="M832 1078h0"></path>
<rect x="748" y="1067" width="84" height="22"></rect>
<a xlink:href="reuse_fieldsub.svg"><text x="790" y="1082">FieldSub</text>
</a>
</g>
<path d="M832 1078h20"></path>
<path d="M728 1078a10 10 0 0 1 10 10v10a10 10 0 0 0 10 10"></path>
<g class="non-terminal">
<path d="M748 1108h0"></path>
<path d="M832 1108h0"></path>
<rect x="748" y="1097" width="84" height="22"></rect>
<a xlink:href="reuse_constant.svg"><text x="790" y="1112">Constant</text>
</a>
</g>
<path d="M832 1108a10 10 0 0 0 10 -10v-10a10 10 0 0 1 10 -10"></path>
</g>
</g>
<path d="M852 1078h10"></path>
<path d="M674 1078a10 10 0 0 0 -10 10v29a10 10 0 0 0 10 10"></path>
<g>
<path d="M674 1127h178"></path>
</g>
<path d="M852 1127a10 10 0 0 0 10 -10v-29a10 10 0 0 0 -10 -10"></path>
</g>
<path d="M862 1078h10"></path>
<g>
<path d="M872 1078h0"></path>
<path d="M972 1078h0"></path>
<path d="M872 1078h20"></path>
<g class="terminal">
<path d="M892 1078h0"></path>
<path d="M952 1078h0"></path>
<rect x="892" y="1067" width="60" height="22" rx="10" ry="10"></rect>
<text x="922" y="1082">!") "</text>
</g>
<path d="M952 1078h20"></path>
<path d="M872 1078a10 10 0 0 1 10 10v10a10 10 0 0 0 10 10"></path>
<g class="terminal">
<path d="M892 1108h0"></path>
<path d="M944 1108h8"></path>
<rect x="892" y="1097" width="52" height="22" rx="10" ry="10"></rect>
<text x="918" y="1112">!")"</text>
</g>
<path d="M952 1108a10 10 0 0 0 10 -10v-10a10 10 0 0 1 10 -10"></path>
</g>
</g>
<path d="M972 1078a10 10 0 0 0 10 -10v-10a10 10 0 0 1 10 -10"></path>
</g>
</g>
<path d="M992 1048a10 10 0 0 0 10 -10v-949a10 10 0 0 1 10 -10"></path>
<path d="M248 79a10 10 0 0 1 10 10v1056a10 10 0 0 0 10 10"></path>
<g>
<path d="M268 1155h0"></path>
<path d="M726 1155h266"></path>
<g>
<path d="M268 1155h0"></path>
<path d="M368 1155h0"></path>
<path d="M268 1155a10 10 0 0 0 10 -10v0a10 10 0 0 1 10 -10"></path>
<g>
<path d="M288 1135h60"></path>
</g>
<path d="M348 1135a10 10 0 0 1 10 10v0a10 10 0 0 0 10 10"></path>
<path d="M268 1155h20"></path>
<g class="terminal">
<path d="M288 1155h0"></path>
<path d="M348 1155h0"></path>
<rect x="288" y="1144" width="60" height="22" rx="10" ry="10"></rect>
<text x="318" y="1159">"NOT"</text>
</g>
<path d="M348 1155h20"></path>
</g>
<path d="M368 1155h10"></path>
<g class="terminal">
<path d="M378 1155h0"></path>
<path d="M470 1155h0"></path>
<rect x="378" y="1144" width="92" height="22" rx="10" ry="10"></rect>
<text x="424" y="1159">"BETWEEN"</text>
</g>
<path d="M470 1155h10"></path>
<path d="M480 1155h10"></path>
<g class="non-terminal">
<path d="M490 1155h0"></path>
<path d="M558 1155h0"></path>
<rect x="490" y="1144" width="68" height="22"></rect>
<a xlink:href="reuse_source.svg"><text x="524" y="1159">Source</text>
</a>
</g>
<path d="M558 1155h10"></path>
<path d="M568 1155h10"></path>
<g class="terminal">
<path d="M578 1155h0"></path>
<path d="M638 1155h0"></path>
<rect x="578" y="1144" width="60" height="22" rx="10" ry="10"></rect>
<text x="608" y="1159">"AND"</text>
</g>
<path d="M638 1155h10"></path>
<path d="M648 1155h10"></path>
<g class="non-terminal">
<path d="M658 1155h0"></path>
<path d="M726 1155h0"></path>
<rect x="658" y="1144" width="68" height="22"></rect>
<a xlink:href="reuse_source.svg"><text x="692" y="1159">Source</text>
</a>
</g>
</g>
<path d="M992 1155a10 10 0 0 0 10 -10v-1056a10 10 0 0 1 10 -10"></path>
<path d="M248 79a10 10 0 0 1 10 10v1095a10 10 0 0 0 10 10"></path>
<g>
<path d="M268 1194h0"></path>
<path d="M578 1194h414"></path>
<g class="terminal">
<path d="M268 1194h0"></path>
<path d="M320 1194h0"></path>
<rect x="268" y="1183" width="52" height="22" rx="10" ry="10"></rect>
<text x="294" y="1198">"IS"</text>
</g>
<path d="M320 1194h10"></path>
<g>
<path d="M330 1194h0"></path>
<path d="M430 1194h0"></path>
<path d="M330 1194a10 10 0 0 0 10 -10v0a10 10 0 0 1 10 -10"></path>
<g>
<path d="M350 1174h60"></path>
</g>
<path d="M410 1174a10 10 0 0 1 10 10v0a10 10 0 0 0 10 10"></path>
<path d="M330 1194h20"></path>
<g class="terminal">
<path d="M350 1194h0"></path>
<path d="M410 1194h0"></path>
<rect x="350" y="1183" width="60" height="22" rx="10" ry="10"></rect>
<text x="380" y="1198">"NOT"</text>
</g>
<path d="M410 1194h20"></path>
</g>
<g>
<path d="M430 1194h0"></path>
<path d="M578 1194h0"></path>
<path d="M430 1194h20"></path>
<g class="terminal">
<path d="M450 1194h0"></path>
<path d="M550 1194h8"></path>
<rect x="450" y="1183" width="100" height="22" rx="10" ry="10"></rect>
<text x="500" y="1198">"SUPPLIED"</text>
</g>
<path d="M558 1194h20"></path>
<path d="M430 1194a10 10 0 0 1 10 10v10a10 10 0 0 0 10 10"></path>
<g class="terminal">
<path d="M450 1224h0"></path>
<path d="M526 1224h32"></path>
<rect x="450" y="1213" width="76" height="22" rx="10" ry="10"></rect>
<text x="488" y="1228">"BOUND"</text>
</g>
<path d="M558 1224a10 10 0 0 0 10 -10v-10a10 10 0 0 1 10 -10"></path>
<path d="M430 1194a10 10 0 0 1 10 10v40a10 10 0 0 0 10 10"></path>
<g class="terminal">
<path d="M450 1254h0"></path>
<path d="M558 1254h0"></path>
<rect x="450" y="1243" width="108" height="22" rx="10" ry="10"></rect>
<text x="504" y="1258">"REQUESTED"</text>
</g>
<path d="M558 1254a10 10 0 0 0 10 -10v-40a10 10 0 0 1 10 -10"></path>
<path d="M430 1194a10 10 0 0 1 10 10v70a10 10 0 0 0 10 10"></path>
<g class="terminal">
<path d="M450 1284h0"></path>
<path d="M550 1284h8"></path>
<rect x="450" y="1273" width="100" height="22" rx="10" ry="10"></rect>
<text x="500" y="1288">"ASSIGNED"</text>
</g>
<path d="M558 1284a10 10 0 0 0 10 -10v-70a10 10 0 0 1 10 -10"></path>
<path d="M430 1194a10 10 0 0 1 10 10v100a10 10 0 0 0 10 10"></path>
<g class="terminal">
<path d="M450 1314h0"></path>
<path d="M542 1314h16"></path>
<rect x="450" y="1303" width="92" height="22" rx="10" ry="10"></rect>
<text x="496" y="1318">"INITIAL"</text>
</g>
<path d="M558 1314a10 10 0 0 0 10 -10v-100a10 10 0 0 1 10 -10"></path>
</g>
</g>
<path d="M992 1194a10 10 0 0 0 10 -10v-1095a10 10 0 0 1 10 -10"></path>
</g>
</g>
<path d="M1012 79a10 10 0 0 0 10 -10v-19a10 10 0 0 1 10 -10"></path>
</g>
</g>
<path d="M1032 40h10"></path>
<path d="M 1042 40 h 20 m 0 -10 v 20"></path>
</g>
</svg>
