<svg xmlns="http://www.w3.org/2000/svg" xmlns:xlink="http://www.w3.org/1999/xlink" class="railroad-diagram" width="1272" height="131" viewBox="0 0 1272 131">
<defs>
<style type="text/css"><![CDATA[
path {
stroke-width: 3;
stroke: black;
fill: rgba(0,0,0,0);
}
text {
font: bold 14px monospace;
text-anchor: middle;
}
text.diagram-text {
font-size: 12px;
}
a {
fill: blue;
}
text.diagram-arrow {
font-size: 16px;
}
text.label {
text-anchor: start;
}
text.comment {
font: italic 12px monospace;
}
rect {
stroke-width: 3;
stroke: black;
fill: #BCBCBC;
}
path.diagram-text {
stroke-width: 3;
stroke: black;
fill: #BCBCBC;
cursor: help;
}
]]></style>
</defs>
<g transform="translate(.5 .5)">
<path d="M 20 30 v 20 m 0 -10 h 20.5"></path>
<path d="M40 40h10"></path>
<g>
<path d="M50 40h0"></path>
<path d="M1222 40h0"></path>
<g>
<path d="M50 40h0"></path>
<path d="M338 40h0"></path>
<g>
<path d="M50 40h0"></path>
<path d="M158 40h0"></path>
<path d="M50 40h20"></path>
<g class="terminal">
<path d="M70 40h0"></path>
<path d="M138 40h0"></path>
<rect x="70" y="29" width="68" height="22" rx="10" ry="10"></rect>
<text x="104" y="44">"LIKE"</text>
</g>
<path d="M138 40h20"></path>
<path d="M50 40a10 10 0 0 1 10 10v10a10 10 0 0 0 10 10"></path>
<g class="terminal">
<path d="M70 70h0"></path>
<path d="M138 70h0"></path>
<rect x="70" y="59" width="68" height="22" rx="10" ry="10"></rect>
<text x="104" y="74">"TYPE"</text>
</g>
<path d="M138 70a10 10 0 0 0 10 -10v-10a10 10 0 0 1 10 -10"></path>
</g>
<g>
<path d="M158 40h0"></path>
<path d="M338 40h0"></path>
<path d="M158 40a10 10 0 0 0 10 -10v0a10 10 0 0 1 10 -10"></path>
<g>
<path d="M178 20h140"></path>
</g>
<path d="M318 20a10 10 0 0 1 10 10v0a10 10 0 0 0 10 10"></path>
<path d="M158 40h20"></path>
<g>
<path d="M178 40h0"></path>
<path d="M318 40h0"></path>
<path d="M178 40h20"></path>
<g class="terminal">
<path d="M198 40h0"></path>
<path d="M290 40h8"></path>
<rect x="198" y="29" width="92" height="22" rx="10" ry="10"></rect>
<text x="244" y="44">"LINE OF"</text>
</g>
<path d="M298 40h20"></path>
<path d="M178 40a10 10 0 0 1 10 10v10a10 10 0 0 0 10 10"></path>
<g class="terminal">
<path d="M198 70h0"></path>
<path d="M282 70h16"></path>
<rect x="198" y="59" width="84" height="22" rx="10" ry="10"></rect>
<text x="240" y="74">"REF TO"</text>
</g>
<path d="M298 70a10 10 0 0 0 10 -10v-10a10 10 0 0 1 10 -10"></path>
<path d="M178 40a10 10 0 0 1 10 10v40a10 10 0 0 0 10 10"></path>
<g class="terminal">
<path d="M198 100h0"></path>
<path d="M298 100h0"></path>
<rect x="198" y="89" width="100" height="22" rx="10" ry="10"></rect>
<text x="248" y="104">"RANGE OF"</text>
</g>
<path d="M298 100a10 10 0 0 0 10 -10v-40a10 10 0 0 1 10 -10"></path>
</g>
<path d="M318 40h20"></path>
</g>
</g>
<path d="M338 40h10"></path>
<path d="M348 40h10"></path>
<g class="non-terminal">
<path d="M358 40h0"></path>
<path d="M466 40h0"></path>
<rect x="358" y="29" width="108" height="22"></rect>
<a xlink:href="reuse_field_chain.svg"><text x="412" y="44">field&#95;chain</text>
</a>
</g>
<path d="M466 40h10"></path>
<g>
<path d="M476 40h0"></path>
<path d="M766 40h0"></path>
<path d="M476 40a10 10 0 0 0 10 -10v0a10 10 0 0 1 10 -10"></path>
<g>
<path d="M496 20h250"></path>
</g>
<path d="M746 20a10 10 0 0 1 10 10v0a10 10 0 0 0 10 10"></path>
<path d="M476 40h20"></path>
<g>
<path d="M496 40h0"></path>
<path d="M746 40h0"></path>
<g class="terminal">
<path d="M496 40h0"></path>
<path d="M588 40h0"></path>
<rect x="496" y="29" width="92" height="22" rx="10" ry="10"></rect>
<text x="542" y="44">"DEFAULT"</text>
</g>
<path d="M588 40h10"></path>
<g>
<path d="M598 40h0"></path>
<path d="M746 40h0"></path>
<path d="M598 40h20"></path>
<g class="non-terminal">
<path d="M618 40h0"></path>
<path d="M702 40h24"></path>
<rect x="618" y="29" width="84" height="22"></rect>
<a xlink:href="reuse_constant.svg"><text x="660" y="44">constant</text>
</a>
</g>
<path d="M726 40h20"></path>
<path d="M598 40a10 10 0 0 1 10 10v10a10 10 0 0 0 10 10"></path>
<g class="non-terminal">
<path d="M618 70h0"></path>
<path d="M726 70h0"></path>
<rect x="618" y="59" width="108" height="22"></rect>
<a xlink:href="reuse_field_chain.svg"><text x="672" y="74">field&#95;chain</text>
</a>
</g>
<path d="M726 70a10 10 0 0 0 10 -10v-10a10 10 0 0 1 10 -10"></path>
</g>
</g>
<path d="M746 40h20"></path>
</g>
<g>
<path d="M766 40h0"></path>
<path d="M986 40h0"></path>
<path d="M766 40a10 10 0 0 0 10 -10v0a10 10 0 0 1 10 -10"></path>
<g>
<path d="M786 20h180"></path>
</g>
<path d="M966 20a10 10 0 0 1 10 10v0a10 10 0 0 0 10 10"></path>
<path d="M766 40h20"></path>
<g>
<path d="M786 40h0"></path>
<path d="M966 40h0"></path>
<g class="terminal">
<path d="M786 40h0"></path>
<path d="M870 40h0"></path>
<rect x="786" y="29" width="84" height="22" rx="10" ry="10"></rect>
<text x="828" y="44">"LENGTH"</text>
</g>
<path d="M870 40h10"></path>
<path d="M880 40h10"></path>
<g class="non-terminal">
<path d="M890 40h0"></path>
<path d="M966 40h0"></path>
<rect x="890" y="29" width="76" height="22"></rect>
<a xlink:href="reuse_integer.svg"><text x="928" y="44">integer</text>
</a>
</g>
</g>
<path d="M966 40h20"></path>
</g>
<g>
<path d="M986 40h0"></path>
<path d="M1222 40h0"></path>
<path d="M986 40a10 10 0 0 0 10 -10v0a10 10 0 0 1 10 -10"></path>
<g>
<path d="M1006 20h196"></path>
</g>
<path d="M1202 20a10 10 0 0 1 10 10v0a10 10 0 0 0 10 10"></path>
<path d="M986 40h20"></path>
<g>
<path d="M1006 40h0"></path>
<path d="M1202 40h0"></path>
<g class="terminal">
<path d="M1006 40h0"></path>
<path d="M1106 40h0"></path>
<rect x="1006" y="29" width="100" height="22" rx="10" ry="10"></rect>
<text x="1056" y="44">"DECIMALS"</text>
</g>
<path d="M1106 40h10"></path>
<path d="M1116 40h10"></path>
<g class="non-terminal">
<path d="M1126 40h0"></path>
<path d="M1202 40h0"></path>
<rect x="1126" y="29" width="76" height="22"></rect>
<a xlink:href="reuse_integer.svg"><text x="1164" y="44">integer</text>
</a>
</g>
</g>
<path d="M1202 40h20"></path>
</g>
</g>
<path d="M1222 40h10"></path>
<path d="M 1232 40 h 20 m 0 -10 v 20"></path>
</g>
</svg>
