<svg xmlns="http://www.w3.org/2000/svg" xmlns:xlink="http://www.w3.org/1999/xlink" class="railroad-diagram" width="852" height="92" viewBox="0 0 852 92">
<defs>
<style type="text/css"><![CDATA[
path {
stroke-width: 3;
stroke: black;
fill: rgba(0,0,0,0);
}
text {
font: bold 14px monospace;
text-anchor: middle;
}
text.diagram-text {
font-size: 12px;
}
a {
fill: blue;
}
text.diagram-arrow {
font-size: 16px;
}
text.label {
text-anchor: start;
}
text.comment {
font: italic 12px monospace;
}
rect {
stroke-width: 3;
stroke: black;
fill: #BCBCBC;
}
path.diagram-text {
stroke-width: 3;
stroke: black;
fill: #BCBCBC;
cursor: help;
}
]]></style>
</defs>
<g transform="translate(.5 .5)">
<path d="M 20 21 v 20 m 0 -10 h 20.5"></path>
<path d="M40 31h10"></path>
<g>
<path d="M50 31h0"></path>
<path d="M802 31h0"></path>
<g>
<path d="M50 31h0"></path>
<path d="M116 31h0"></path>
<text x="83" y="36" class="comment">v740sp02</text>
</g>
<path d="M116 31h10"></path>
<path d="M126 31h10"></path>
<g>
<path d="M136 31h0"></path>
<path d="M802 31h0"></path>
<g class="terminal">
<path d="M136 31h0"></path>
<path d="M268 31h0"></path>
<rect x="136" y="20" width="132" height="22" rx="10" ry="10"></rect>
<text x="202" y="35">"FIELD-SYMBOL"</text>
</g>
<path d="M268 31h10"></path>
<path d="M278 31h10"></path>
<g class="terminal">
<path d="M288 31h0"></path>
<path d="M444 31h0"></path>
<rect x="288" y="20" width="156" height="22" rx="10" ry="10"></rect>
<text x="366" y="35">Token "ParenLeft"</text>
</g>
<path d="M444 31h10"></path>
<path d="M454 31h10"></path>
<g class="non-terminal">
<path d="M464 31h0"></path>
<path d="M580 31h0"></path>
<rect x="464" y="20" width="116" height="22"></rect>
<a xlink:href="reuse_field_symbol.svg"><text x="522" y="35">field&#95;symbol</text>
</a>
</g>
<path d="M580 31h10"></path>
<g>
<path d="M590 31h0"></path>
<path d="M802 31h0"></path>
<path d="M590 31h20"></path>
<g class="terminal">
<path d="M610 31h4"></path>
<path d="M778 31h4"></path>
<rect x="614" y="20" width="164" height="22" rx="10" ry="10"></rect>
<text x="696" y="35">Token "ParenRight"</text>
</g>
<path d="M782 31h20"></path>
<path d="M590 31a10 10 0 0 1 10 10v10a10 10 0 0 0 10 10"></path>
<g class="terminal">
<path d="M610 61h0"></path>
<path d="M782 61h0"></path>
<rect x="610" y="50" width="172" height="22" rx="10" ry="10"></rect>
<text x="696" y="65">Token "ParenRightW"</text>
</g>
<path d="M782 61a10 10 0 0 0 10 -10v-10a10 10 0 0 1 10 -10"></path>
</g>
</g>
</g>
<path d="M802 31h10"></path>
<path d="M 812 31 h 20 m 0 -10 v 20"></path>
</g>
</svg>
