<svg xmlns="http://www.w3.org/2000/svg" xmlns:xlink="http://www.w3.org/1999/xlink" class="railroad-diagram" width="1128" height="664" viewBox="0 0 1128 664">
<defs>
<style type="text/css"><![CDATA[
path {
stroke-width: 3;
stroke: black;
fill: rgba(0,0,0,0);
}
text {
font: bold 14px monospace;
text-anchor: middle;
}
text.diagram-text {
font-size: 12px;
}
a {
fill: blue;
}
text.diagram-arrow {
font-size: 16px;
}
text.label {
text-anchor: start;
}
text.comment {
font: italic 12px monospace;
}
rect {
stroke-width: 3;
stroke: black;
fill: #BCBCBC;
}
path.diagram-text {
stroke-width: 3;
stroke: black;
fill: #BCBCBC;
cursor: help;
}
]]></style>
</defs>
<g transform="translate(.5 .5)">
<path d="M 20 30 v 20 m 0 -10 h 20.5"></path>
<g>
<path d="M40 40h0"></path>
<path d="M1088 40h0"></path>
<path d="M40 40h20"></path>
<g>
<path d="M60 40h0"></path>
<path d="M840 40h228"></path>
<g>
<path d="M60 40h0"></path>
<path d="M518 40h0"></path>
<path d="M60 40h20"></path>
<g class="non-terminal">
<path d="M80 40h0"></path>
<path d="M164 40h334"></path>
<rect x="80" y="29" width="84" height="22"></rect>
<a xlink:href="reuse_constant.svg"><text x="122" y="44">Constant</text>
</a>
</g>
<path d="M498 40h20"></path>
<path d="M60 40a10 10 0 0 1 10 10v10a10 10 0 0 0 10 10"></path>
<g class="non-terminal">
<path d="M80 70h0"></path>
<path d="M212 70h286"></path>
<rect x="80" y="59" width="132" height="22"></rect>
<a xlink:href="reuse_stringtemplate.svg"><text x="146" y="74">StringTemplate</text>
</a>
</g>
<path d="M498 70a10 10 0 0 0 10 -10v-10a10 10 0 0 1 10 -10"></path>
<path d="M60 40a10 10 0 0 1 10 10v40a10 10 0 0 0 10 10"></path>
<g>
<path d="M80 100h0"></path>
<path d="M372 100h126"></path>
<g class="terminal">
<path d="M80 100h0"></path>
<path d="M156 100h0"></path>
<rect x="80" y="89" width="76" height="22" rx="10" ry="10"></rect>
<text x="118" y="104">"BOOLC"</text>
</g>
<path d="M156 100h10"></path>
<path d="M166 100h10"></path>
<g class="terminal">
<path d="M176 100h0"></path>
<path d="M236 100h0"></path>
<rect x="176" y="89" width="60" height="22" rx="10" ry="10"></rect>
<text x="206" y="104">!"( "</text>
</g>
<path d="M236 100h10"></path>
<path d="M246 100h10"></path>
<g class="non-terminal">
<path d="M256 100h0"></path>
<path d="M308 100h0"></path>
<rect x="256" y="89" width="52" height="22"></rect>
<a xlink:href="reuse_cond.svg"><text x="282" y="104">Cond</text>
</a>
</g>
<path d="M308 100h10"></path>
<path d="M318 100h10"></path>
<g class="terminal">
<path d="M328 100h0"></path>
<path d="M372 100h0"></path>
<rect x="328" y="89" width="44" height="22" rx="10" ry="10"></rect>
<text x="350" y="104">")"</text>
</g>
</g>
<path d="M498 100a10 10 0 0 0 10 -10v-40a10 10 0 0 1 10 -10"></path>
<path d="M60 40a10 10 0 0 1 10 10v79a10 10 0 0 0 10 10"></path>
<g>
<path d="M80 139h0"></path>
<path d="M498 139h0"></path>
<g class="non-terminal">
<path d="M80 139h0"></path>
<path d="M220 139h0"></path>
<rect x="80" y="128" width="140" height="22"></rect>
<a xlink:href="reuse_methodcallchain.svg"><text x="150" y="143">MethodCallChain</text>
</a>
</g>
<path d="M220 139h10"></path>
<g>
<path d="M230 139h0"></path>
<path d="M498 139h0"></path>
<path d="M230 139a10 10 0 0 0 10 -10v0a10 10 0 0 1 10 -10"></path>
<g>
<path d="M250 119h228"></path>
</g>
<path d="M478 119a10 10 0 0 1 10 10v0a10 10 0 0 0 10 10"></path>
<path d="M230 139h20"></path>
<g>
<path d="M250 139h0"></path>
<path d="M478 139h0"></path>
<g class="non-terminal">
<path d="M250 139h0"></path>
<path d="M358 139h0"></path>
<rect x="250" y="128" width="108" height="22"></rect>
<a xlink:href="reuse_arrowordash.svg"><text x="304" y="143">ArrowOrDash</text>
</a>
</g>
<path d="M358 139h10"></path>
<path d="M368 139h10"></path>
<g class="non-terminal">
<path d="M378 139h0"></path>
<path d="M478 139h0"></path>
<rect x="378" y="128" width="100" height="22"></rect>
<a xlink:href="reuse_fieldchain.svg"><text x="428" y="143">FieldChain</text>
</a>
</g>
</g>
<path d="M478 139h20"></path>
</g>
</g>
<path d="M498 139a10 10 0 0 0 10 -10v-79a10 10 0 0 1 10 -10"></path>
<path d="M60 40a10 10 0 0 1 10 10v118a10 10 0 0 0 10 10"></path>
<g>
<path d="M80 178h0"></path>
<path d="M362 178h136"></path>
<g>
<path d="M80 178h0"></path>
<path d="M252 178h0"></path>
<path d="M80 178a10 10 0 0 0 10 -10v0a10 10 0 0 1 10 -10"></path>
<g>
<path d="M100 158h132"></path>
</g>
<path d="M232 158a10 10 0 0 1 10 10v0a10 10 0 0 0 10 10"></path>
<path d="M80 178h20"></path>
<g>
<path d="M100 178h0"></path>
<path d="M232 178h0"></path>
<path d="M100 178h20"></path>
<g class="terminal">
<path d="M120 178h0"></path>
<path d="M188 178h24"></path>
<rect x="120" y="167" width="68" height="22" rx="10" ry="10"></rect>
<text x="154" y="182">!" - "</text>
</g>
<path d="M212 178h20"></path>
<path d="M100 178a10 10 0 0 1 10 10v10a10 10 0 0 0 10 10"></path>
<g class="terminal">
<path d="M120 208h0"></path>
<path d="M212 208h0"></path>
<rect x="120" y="197" width="92" height="22" rx="10" ry="10"></rect>
<text x="166" y="212">"BIT-NOT"</text>
</g>
<path d="M212 208a10 10 0 0 0 10 -10v-10a10 10 0 0 1 10 -10"></path>
</g>
<path d="M232 178h20"></path>
</g>
<path d="M252 178h10"></path>
<g class="non-terminal">
<path d="M262 178h0"></path>
<path d="M362 178h0"></path>
<rect x="262" y="167" width="100" height="22"></rect>
<a xlink:href="reuse_fieldchain.svg"><text x="312" y="182">FieldChain</text>
</a>
</g>
</g>
<path d="M498 178a10 10 0 0 0 10 -10v-118a10 10 0 0 1 10 -10"></path>
<path d="M60 40a10 10 0 0 1 10 10v178a10 10 0 0 0 10 10"></path>
<g>
<path d="M80 238h0"></path>
<path d="M354 238h144"></path>
<g class="terminal">
<path d="M80 238h0"></path>
<path d="M148 238h0"></path>
<rect x="80" y="227" width="68" height="22" rx="10" ry="10"></rect>
<text x="114" y="242">!" ( "</text>
</g>
<path d="M148 238h10"></path>
<path d="M158 238h10"></path>
<g class="non-terminal">
<path d="M168 238h0"></path>
<path d="M236 238h0"></path>
<rect x="168" y="227" width="68" height="22"></rect>
<a xlink:href="reuse_source.svg"><text x="202" y="242">Source</text>
</a>
</g>
<path d="M236 238h10"></path>
<g>
<path d="M246 238h0"></path>
<path d="M354 238h0"></path>
<path d="M246 238h20"></path>
<g class="terminal">
<path d="M266 238h0"></path>
<path d="M334 238h0"></path>
<rect x="266" y="227" width="68" height="22" rx="10" ry="10"></rect>
<text x="300" y="242">!" ) "</text>
</g>
<path d="M334 238h20"></path>
<path d="M246 238a10 10 0 0 1 10 10v10a10 10 0 0 0 10 10"></path>
<g class="terminal">
<path d="M266 268h0"></path>
<path d="M326 268h8"></path>
<rect x="266" y="257" width="60" height="22" rx="10" ry="10"></rect>
<text x="296" y="272">!" )"</text>
</g>
<path d="M334 268a10 10 0 0 0 10 -10v-10a10 10 0 0 1 10 -10"></path>
</g>
</g>
<path d="M498 238a10 10 0 0 0 10 -10v-178a10 10 0 0 1 10 -10"></path>
</g>
<g>
<path d="M518 40h0"></path>
<path d="M840 40h0"></path>
<path d="M518 40a10 10 0 0 0 10 -10v0a10 10 0 0 1 10 -10"></path>
<g>
<path d="M538 20h282"></path>
</g>
<path d="M820 20a10 10 0 0 1 10 10v0a10 10 0 0 0 10 10"></path>
<path d="M518 40h20"></path>
<g>
<path d="M538 40h0"></path>
<path d="M820 40h0"></path>
<path d="M538 40h20"></path>
<g>
<path d="M558 40h0"></path>
<path d="M682 40h118"></path>
<g class="non-terminal">
<path d="M558 40h0"></path>
<path d="M618 40h0"></path>
<rect x="558" y="29" width="60" height="22"></rect>
<a xlink:href="reuse_arrow.svg"><text x="588" y="44">Arrow</text>
</a>
</g>
<path d="M618 40h10"></path>
<path d="M628 40h10"></path>
<g class="terminal">
<path d="M638 40h0"></path>
<path d="M682 40h0"></path>
<rect x="638" y="29" width="44" height="22" rx="10" ry="10"></rect>
<text x="660" y="44">"&#42;"</text>
</g>
</g>
<path d="M800 40h20"></path>
<path d="M538 40a10 10 0 0 1 10 10v10a10 10 0 0 0 10 10"></path>
<g>
<path d="M558 70h0"></path>
<path d="M800 70h0"></path>
<g>
<path d="M558 70h0"></path>
<path d="M722 70h0"></path>
<path d="M558 70h20"></path>
<g class="terminal">
<path d="M578 70h0"></path>
<path d="M622 70h80"></path>
<rect x="578" y="59" width="44" height="22" rx="10" ry="10"></rect>
<text x="600" y="74">"&#38;"</text>
</g>
<path d="M702 70h20"></path>
<path d="M558 70a10 10 0 0 1 10 10v10a10 10 0 0 0 10 10"></path>
<g class="terminal">
<path d="M578 100h0"></path>
<path d="M630 100h72"></path>
<rect x="578" y="89" width="52" height="22" rx="10" ry="10"></rect>
<text x="604" y="104">"&#38;&#38;"</text>
</g>
<path d="M702 100a10 10 0 0 0 10 -10v-10a10 10 0 0 1 10 -10"></path>
<path d="M558 70a10 10 0 0 1 10 10v40a10 10 0 0 0 10 10"></path>
<g class="non-terminal">
<path d="M578 130h0"></path>
<path d="M702 130h0"></path>
<rect x="578" y="119" width="124" height="22"></rect>
<a xlink:href="reuse_arithoperator.svg"><text x="640" y="134">ArithOperator</text>
</a>
</g>
<path d="M702 130a10 10 0 0 0 10 -10v-40a10 10 0 0 1 10 -10"></path>
</g>
<path d="M722 70h10"></path>
<g class="non-terminal">
<path d="M732 70h0"></path>
<path d="M800 70h0"></path>
<rect x="732" y="59" width="68" height="22"></rect>
<a xlink:href="reuse_source.svg"><text x="766" y="74">Source</text>
</a>
</g>
</g>
<path d="M800 70a10 10 0 0 0 10 -10v-10a10 10 0 0 1 10 -10"></path>
<path d="M538 40a10 10 0 0 1 10 10v100a10 10 0 0 0 10 10"></path>
<g class="non-terminal">
<path d="M558 160h0"></path>
<path d="M650 160h150"></path>
<rect x="558" y="149" width="92" height="22"></rect>
<a xlink:href="reuse_tablebody.svg"><text x="604" y="164">TableBody</text>
</a>
</g>
<path d="M800 160a10 10 0 0 0 10 -10v-100a10 10 0 0 1 10 -10"></path>
</g>
<path d="M820 40h20"></path>
</g>
</g>
<path d="M1068 40h20"></path>
<path d="M40 40a10 10 0 0 1 10 10v238a10 10 0 0 0 10 10"></path>
<g>
<path d="M60 298h0"></path>
<path d="M676 298h392"></path>
<g>
<path d="M60 298h0"></path>
<path d="M126 298h0"></path>
<text x="93" y="303" class="comment">v740sp05</text>
</g>
<path d="M126 298h10"></path>
<path d="M136 298h10"></path>
<g>
<path d="M146 298h0"></path>
<path d="M676 298h0"></path>
<g class="terminal">
<path d="M146 298h0"></path>
<path d="M286 298h0"></path>
<rect x="146" y="287" width="140" height="22" rx="10" ry="10"></rect>
<text x="216" y="302">"CORRESPONDING"</text>
</g>
<path d="M286 298h10"></path>
<path d="M296 298h10"></path>
<g class="non-terminal">
<path d="M306 298h0"></path>
<path d="M390 298h0"></path>
<rect x="306" y="287" width="84" height="22"></rect>
<a xlink:href="reuse_typename.svg"><text x="348" y="302">TypeName</text>
</a>
</g>
<path d="M390 298h10"></path>
<path d="M400 298h10"></path>
<g class="terminal">
<path d="M410 298h0"></path>
<path d="M470 298h0"></path>
<rect x="410" y="287" width="60" height="22" rx="10" ry="10"></rect>
<text x="440" y="302">!"( "</text>
</g>
<path d="M470 298h10"></path>
<path d="M480 298h10"></path>
<g class="non-terminal">
<path d="M490 298h0"></path>
<path d="M558 298h0"></path>
<rect x="490" y="287" width="68" height="22"></rect>
<a xlink:href="reuse_source.svg"><text x="524" y="302">Source</text>
</a>
</g>
<path d="M558 298h10"></path>
<g>
<path d="M568 298h0"></path>
<path d="M676 298h0"></path>
<path d="M568 298h20"></path>
<g class="terminal">
<path d="M588 298h0"></path>
<path d="M656 298h0"></path>
<rect x="588" y="287" width="68" height="22" rx="10" ry="10"></rect>
<text x="622" y="302">!" ) "</text>
</g>
<path d="M656 298h20"></path>
<path d="M568 298a10 10 0 0 1 10 10v10a10 10 0 0 0 10 10"></path>
<g class="terminal">
<path d="M588 328h0"></path>
<path d="M648 328h8"></path>
<rect x="588" y="317" width="60" height="22" rx="10" ry="10"></rect>
<text x="618" y="332">!" )"</text>
</g>
<path d="M656 328a10 10 0 0 0 10 -10v-10a10 10 0 0 1 10 -10"></path>
</g>
</g>
</g>
<path d="M1068 298a10 10 0 0 0 10 -10v-238a10 10 0 0 1 10 -10"></path>
<path d="M40 40a10 10 0 0 1 10 10v298a10 10 0 0 0 10 10"></path>
<g>
<path d="M60 358h0"></path>
<path d="M604 358h464"></path>
<g>
<path d="M60 358h0"></path>
<path d="M126 358h0"></path>
<text x="93" y="363" class="comment">v740sp02</text>
</g>
<path d="M126 358h10"></path>
<path d="M136 358h10"></path>
<g>
<path d="M146 358h0"></path>
<path d="M604 358h0"></path>
<g class="terminal">
<path d="M146 358h0"></path>
<path d="M214 358h0"></path>
<rect x="146" y="347" width="68" height="22" rx="10" ry="10"></rect>
<text x="180" y="362">"CONV"</text>
</g>
<path d="M214 358h10"></path>
<path d="M224 358h10"></path>
<g class="non-terminal">
<path d="M234 358h0"></path>
<path d="M318 358h0"></path>
<rect x="234" y="347" width="84" height="22"></rect>
<a xlink:href="reuse_typename.svg"><text x="276" y="362">TypeName</text>
</a>
</g>
<path d="M318 358h10"></path>
<path d="M328 358h10"></path>
<g class="terminal">
<path d="M338 358h0"></path>
<path d="M398 358h0"></path>
<rect x="338" y="347" width="60" height="22" rx="10" ry="10"></rect>
<text x="368" y="362">!"( "</text>
</g>
<path d="M398 358h10"></path>
<path d="M408 358h10"></path>
<g class="non-terminal">
<path d="M418 358h0"></path>
<path d="M486 358h0"></path>
<rect x="418" y="347" width="68" height="22"></rect>
<a xlink:href="reuse_source.svg"><text x="452" y="362">Source</text>
</a>
</g>
<path d="M486 358h10"></path>
<g>
<path d="M496 358h0"></path>
<path d="M604 358h0"></path>
<path d="M496 358h20"></path>
<g class="terminal">
<path d="M516 358h0"></path>
<path d="M584 358h0"></path>
<rect x="516" y="347" width="68" height="22" rx="10" ry="10"></rect>
<text x="550" y="362">!" ) "</text>
</g>
<path d="M584 358h20"></path>
<path d="M496 358a10 10 0 0 1 10 10v10a10 10 0 0 0 10 10"></path>
<g class="terminal">
<path d="M516 388h0"></path>
<path d="M576 388h8"></path>
<rect x="516" y="377" width="60" height="22" rx="10" ry="10"></rect>
<text x="546" y="392">!" )"</text>
</g>
<path d="M584 388a10 10 0 0 0 10 -10v-10a10 10 0 0 1 10 -10"></path>
</g>
</g>
</g>
<path d="M1068 358a10 10 0 0 0 10 -10v-298a10 10 0 0 1 10 -10"></path>
<path d="M40 40a10 10 0 0 1 10 10v358a10 10 0 0 0 10 10"></path>
<g>
<path d="M60 418h0"></path>
<path d="M992 418h76"></path>
<g>
<path d="M60 418h0"></path>
<path d="M126 418h0"></path>
<text x="93" y="423" class="comment">v740sp02</text>
</g>
<path d="M126 418h10"></path>
<path d="M136 418h10"></path>
<g>
<path d="M146 418h0"></path>
<path d="M992 418h0"></path>
<g class="terminal">
<path d="M146 418h0"></path>
<path d="M222 418h0"></path>
<rect x="146" y="407" width="76" height="22" rx="10" ry="10"></rect>
<text x="184" y="422">"VALUE"</text>
</g>
<path d="M222 418h10"></path>
<path d="M232 418h10"></path>
<g class="non-terminal">
<path d="M242 418h0"></path>
<path d="M326 418h0"></path>
<rect x="242" y="407" width="84" height="22"></rect>
<a xlink:href="reuse_typename.svg"><text x="284" y="422">TypeName</text>
</a>
</g>
<path d="M326 418h10"></path>
<path d="M336 418h10"></path>
<g class="terminal">
<path d="M346 418h0"></path>
<path d="M406 418h0"></path>
<rect x="346" y="407" width="60" height="22" rx="10" ry="10"></rect>
<text x="376" y="422">!"( "</text>
</g>
<path d="M406 418h10"></path>
<g>
<path d="M416 418h0"></path>
<path d="M884 418h0"></path>
<path d="M416 418h20"></path>
<g class="non-terminal">
<path d="M436 418h0"></path>
<path d="M504 418h360"></path>
<rect x="436" y="407" width="68" height="22"></rect>
<a xlink:href="reuse_source.svg"><text x="470" y="422">Source</text>
</a>
</g>
<path d="M864 418h20"></path>
<path d="M416 418a10 10 0 0 1 10 10v10a10 10 0 0 0 10 10"></path>
<g>
<path d="M436 448h0"></path>
<path d="M668 448h196"></path>
<path d="M436 448h10"></path>
<g>
<path d="M446 448h0"></path>
<path d="M658 448h0"></path>
<g class="non-terminal">
<path d="M446 448h0"></path>
<path d="M506 448h0"></path>
<rect x="446" y="437" width="60" height="22"></rect>
<a xlink:href="reuse_field.svg"><text x="476" y="452">Field</text>
</a>
</g>
<path d="M506 448h10"></path>
<path d="M516 448h10"></path>
<g class="terminal">
<path d="M526 448h0"></path>
<path d="M570 448h0"></path>
<rect x="526" y="437" width="44" height="22" rx="10" ry="10"></rect>
<text x="548" y="452">"="</text>
</g>
<path d="M570 448h10"></path>
<path d="M580 448h10"></path>
<g class="non-terminal">
<path d="M590 448h0"></path>
<path d="M658 448h0"></path>
<rect x="590" y="437" width="68" height="22"></rect>
<a xlink:href="reuse_source.svg"><text x="624" y="452">Source</text>
</a>
</g>
</g>
<path d="M658 448h10"></path>
<path d="M446 448a10 10 0 0 0 -10 10v0a10 10 0 0 0 10 10"></path>
<g>
<path d="M446 468h212"></path>
</g>
<path d="M658 468a10 10 0 0 0 10 -10v0a10 10 0 0 0 -10 -10"></path>
</g>
<path d="M864 448a10 10 0 0 0 10 -10v-10a10 10 0 0 1 10 -10"></path>
<path d="M416 418a10 10 0 0 1 10 10v49a10 10 0 0 0 10 10"></path>
<g>
<path d="M436 487h0"></path>
<path d="M864 487h0"></path>
<path d="M436 487h10"></path>
<g>
<path d="M446 487h0"></path>
<path d="M854 487h0"></path>
<g class="terminal">
<path d="M446 487h0"></path>
<path d="M514 487h0"></path>
<rect x="446" y="476" width="68" height="22" rx="10" ry="10"></rect>
<text x="480" y="491">!" ( "</text>
</g>
<path d="M514 487h10"></path>
<path d="M524 487h10"></path>
<g>
<path d="M534 487h0"></path>
<path d="M766 487h0"></path>
<path d="M534 487h10"></path>
<g>
<path d="M544 487h0"></path>
<path d="M756 487h0"></path>
<g class="non-terminal">
<path d="M544 487h0"></path>
<path d="M604 487h0"></path>
<rect x="544" y="476" width="60" height="22"></rect>
<a xlink:href="reuse_field.svg"><text x="574" y="491">Field</text>
</a>
</g>
<path d="M604 487h10"></path>
<path d="M614 487h10"></path>
<g class="terminal">
<path d="M624 487h0"></path>
<path d="M668 487h0"></path>
<rect x="624" y="476" width="44" height="22" rx="10" ry="10"></rect>
<text x="646" y="491">"="</text>
</g>
<path d="M668 487h10"></path>
<path d="M678 487h10"></path>
<g class="non-terminal">
<path d="M688 487h0"></path>
<path d="M756 487h0"></path>
<rect x="688" y="476" width="68" height="22"></rect>
<a xlink:href="reuse_source.svg"><text x="722" y="491">Source</text>
</a>
</g>
</g>
<path d="M756 487h10"></path>
<path d="M544 487a10 10 0 0 0 -10 10v0a10 10 0 0 0 10 10"></path>
<g>
<path d="M544 507h212"></path>
</g>
<path d="M756 507a10 10 0 0 0 10 -10v0a10 10 0 0 0 -10 -10"></path>
</g>
<path d="M766 487h10"></path>
<path d="M776 487h10"></path>
<g class="terminal">
<path d="M786 487h0"></path>
<path d="M854 487h0"></path>
<rect x="786" y="476" width="68" height="22" rx="10" ry="10"></rect>
<text x="820" y="491">!" ) "</text>
</g>
</g>
<path d="M854 487h10"></path>
<path d="M446 487a10 10 0 0 0 -10 10v8a10 10 0 0 0 10 10"></path>
<g>
<path d="M446 515h408"></path>
</g>
<path d="M854 515a10 10 0 0 0 10 -10v-8a10 10 0 0 0 -10 -10"></path>
</g>
<path d="M864 487a10 10 0 0 0 10 -10v-49a10 10 0 0 1 10 -10"></path>
</g>
<g>
<path d="M884 418h0"></path>
<path d="M992 418h0"></path>
<path d="M884 418h20"></path>
<g class="terminal">
<path d="M904 418h0"></path>
<path d="M972 418h0"></path>
<rect x="904" y="407" width="68" height="22" rx="10" ry="10"></rect>
<text x="938" y="422">!" ) "</text>
</g>
<path d="M972 418h20"></path>
<path d="M884 418a10 10 0 0 1 10 10v10a10 10 0 0 0 10 10"></path>
<g class="terminal">
<path d="M904 448h0"></path>
<path d="M964 448h8"></path>
<rect x="904" y="437" width="60" height="22" rx="10" ry="10"></rect>
<text x="934" y="452">!" )"</text>
</g>
<path d="M972 448a10 10 0 0 0 10 -10v-10a10 10 0 0 1 10 -10"></path>
</g>
</g>
</g>
<path d="M1068 418a10 10 0 0 0 10 -10v-358a10 10 0 0 1 10 -10"></path>
<path d="M40 40a10 10 0 0 1 10 10v483a10 10 0 0 0 10 10"></path>
<g>
<path d="M60 543h0"></path>
<path d="M1068 543h0"></path>
<g>
<path d="M60 543h0"></path>
<path d="M126 543h0"></path>
<text x="93" y="548" class="comment">v740sp02</text>
</g>
<path d="M126 543h10"></path>
<path d="M136 543h10"></path>
<g>
<path d="M146 543h0"></path>
<path d="M1068 543h0"></path>
<g class="terminal">
<path d="M146 543h0"></path>
<path d="M214 543h0"></path>
<rect x="146" y="532" width="68" height="22" rx="10" ry="10"></rect>
<text x="180" y="547">"COND"</text>
</g>
<path d="M214 543h10"></path>
<path d="M224 543h10"></path>
<g class="non-terminal">
<path d="M234 543h0"></path>
<path d="M318 543h0"></path>
<rect x="234" y="532" width="84" height="22"></rect>
<a xlink:href="reuse_typename.svg"><text x="276" y="547">TypeName</text>
</a>
</g>
<path d="M318 543h10"></path>
<path d="M328 543h10"></path>
<g class="terminal">
<path d="M338 543h0"></path>
<path d="M398 543h0"></path>
<rect x="338" y="532" width="60" height="22" rx="10" ry="10"></rect>
<text x="368" y="547">!"( "</text>
</g>
<path d="M398 543h10"></path>
<path d="M408 543h10"></path>
<g>
<path d="M418 543h0"></path>
<path d="M754 543h0"></path>
<path d="M418 543h10"></path>
<g>
<path d="M428 543h0"></path>
<path d="M744 543h0"></path>
<g class="terminal">
<path d="M428 543h0"></path>
<path d="M496 543h0"></path>
<rect x="428" y="532" width="68" height="22" rx="10" ry="10"></rect>
<text x="462" y="547">"WHEN"</text>
</g>
<path d="M496 543h10"></path>
<path d="M506 543h10"></path>
<g class="non-terminal">
<path d="M516 543h0"></path>
<path d="M568 543h0"></path>
<rect x="516" y="532" width="52" height="22"></rect>
<a xlink:href="reuse_cond.svg"><text x="542" y="547">Cond</text>
</a>
</g>
<path d="M568 543h10"></path>
<path d="M578 543h10"></path>
<g class="terminal">
<path d="M588 543h0"></path>
<path d="M656 543h0"></path>
<rect x="588" y="532" width="68" height="22" rx="10" ry="10"></rect>
<text x="622" y="547">"THEN"</text>
</g>
<path d="M656 543h10"></path>
<path d="M666 543h10"></path>
<g class="non-terminal">
<path d="M676 543h0"></path>
<path d="M744 543h0"></path>
<rect x="676" y="532" width="68" height="22"></rect>
<a xlink:href="reuse_source.svg"><text x="710" y="547">Source</text>
</a>
</g>
</g>
<path d="M744 543h10"></path>
<path d="M428 543a10 10 0 0 0 -10 10v0a10 10 0 0 0 10 10"></path>
<g>
<path d="M428 563h316"></path>
</g>
<path d="M744 563a10 10 0 0 0 10 -10v0a10 10 0 0 0 -10 -10"></path>
</g>
<path d="M754 543h10"></path>
<g>
<path d="M764 543h0"></path>
<path d="M960 543h0"></path>
<path d="M764 543a10 10 0 0 0 10 -10v0a10 10 0 0 1 10 -10"></path>
<g>
<path d="M784 523h156"></path>
</g>
<path d="M940 523a10 10 0 0 1 10 10v0a10 10 0 0 0 10 10"></path>
<path d="M764 543h20"></path>
<g>
<path d="M784 543h0"></path>
<path d="M940 543h0"></path>
<g class="terminal">
<path d="M784 543h0"></path>
<path d="M852 543h0"></path>
<rect x="784" y="532" width="68" height="22" rx="10" ry="10"></rect>
<text x="818" y="547">"ELSE"</text>
</g>
<path d="M852 543h10"></path>
<path d="M862 543h10"></path>
<g class="non-terminal">
<path d="M872 543h0"></path>
<path d="M940 543h0"></path>
<rect x="872" y="532" width="68" height="22"></rect>
<a xlink:href="reuse_source.svg"><text x="906" y="547">Source</text>
</a>
</g>
</g>
<path d="M940 543h20"></path>
</g>
<g>
<path d="M960 543h0"></path>
<path d="M1068 543h0"></path>
<path d="M960 543h20"></path>
<g class="terminal">
<path d="M980 543h0"></path>
<path d="M1048 543h0"></path>
<rect x="980" y="532" width="68" height="22" rx="10" ry="10"></rect>
<text x="1014" y="547">!" ) "</text>
</g>
<path d="M1048 543h20"></path>
<path d="M960 543a10 10 0 0 1 10 10v10a10 10 0 0 0 10 10"></path>
<g class="terminal">
<path d="M980 573h0"></path>
<path d="M1040 573h8"></path>
<rect x="980" y="562" width="60" height="22" rx="10" ry="10"></rect>
<text x="1010" y="577">!" )"</text>
</g>
<path d="M1048 573a10 10 0 0 0 10 -10v-10a10 10 0 0 1 10 -10"></path>
</g>
</g>
</g>
<path d="M1068 543a10 10 0 0 0 10 -10v-483a10 10 0 0 1 10 -10"></path>
<path d="M40 40a10 10 0 0 1 10 10v543a10 10 0 0 0 10 10"></path>
<g>
<path d="M60 603h0"></path>
<path d="M596 603h472"></path>
<g>
<path d="M60 603h0"></path>
<path d="M126 603h0"></path>
<text x="93" y="608" class="comment">v740sp02</text>
</g>
<path d="M126 603h10"></path>
<path d="M136 603h10"></path>
<g>
<path d="M146 603h0"></path>
<path d="M596 603h0"></path>
<g class="terminal">
<path d="M146 603h0"></path>
<path d="M206 603h0"></path>
<rect x="146" y="592" width="60" height="22" rx="10" ry="10"></rect>
<text x="176" y="607">"REF"</text>
</g>
<path d="M206 603h10"></path>
<path d="M216 603h10"></path>
<g class="non-terminal">
<path d="M226 603h0"></path>
<path d="M310 603h0"></path>
<rect x="226" y="592" width="84" height="22"></rect>
<a xlink:href="reuse_typename.svg"><text x="268" y="607">TypeName</text>
</a>
</g>
<path d="M310 603h10"></path>
<path d="M320 603h10"></path>
<g class="terminal">
<path d="M330 603h0"></path>
<path d="M390 603h0"></path>
<rect x="330" y="592" width="60" height="22" rx="10" ry="10"></rect>
<text x="360" y="607">!"( "</text>
</g>
<path d="M390 603h10"></path>
<path d="M400 603h10"></path>
<g class="non-terminal">
<path d="M410 603h0"></path>
<path d="M478 603h0"></path>
<rect x="410" y="592" width="68" height="22"></rect>
<a xlink:href="reuse_source.svg"><text x="444" y="607">Source</text>
</a>
</g>
<path d="M478 603h10"></path>
<g>
<path d="M488 603h0"></path>
<path d="M596 603h0"></path>
<path d="M488 603h20"></path>
<g class="terminal">
<path d="M508 603h0"></path>
<path d="M576 603h0"></path>
<rect x="508" y="592" width="68" height="22" rx="10" ry="10"></rect>
<text x="542" y="607">!" ) "</text>
</g>
<path d="M576 603h20"></path>
<path d="M488 603a10 10 0 0 1 10 10v10a10 10 0 0 0 10 10"></path>
<g class="terminal">
<path d="M508 633h0"></path>
<path d="M568 633h8"></path>
<rect x="508" y="622" width="60" height="22" rx="10" ry="10"></rect>
<text x="538" y="637">!" )"</text>
</g>
<path d="M576 633a10 10 0 0 0 10 -10v-10a10 10 0 0 1 10 -10"></path>
</g>
</g>
</g>
<path d="M1068 603a10 10 0 0 0 10 -10v-543a10 10 0 0 1 10 -10"></path>
</g>
<path d="M 1088 40 h 20 m 0 -10 v 20"></path>
</g>
</svg>
