<svg xmlns="http://www.w3.org/2000/svg" xmlns:xlink="http://www.w3.org/1999/xlink" class="railroad-diagram" width="496" height="88" viewBox="0 0 496 88">
<defs>
<style type="text/css"><![CDATA[
path {
stroke-width: 3;
stroke: black;
fill: rgba(0,0,0,0);
}
text {
font: bold 14px monospace;
text-anchor: middle;
}
text.diagram-text {
font-size: 12px;
}
a {
fill: blue;
}
text.diagram-arrow {
font-size: 16px;
}
text.label {
text-anchor: start;
}
text.comment {
font: italic 12px monospace;
}
rect {
stroke-width: 3;
stroke: black;
fill: #BCBCBC;
}
path.diagram-text {
stroke-width: 3;
stroke: black;
fill: #BCBCBC;
cursor: help;
}
]]></style>
</defs>
<g transform="translate(.5 .5)">
<path d="M 20 38 v 20 m 0 -10 h 20.5"></path>
<path d="M40 48h10"></path>
<g>
<path d="M50 48h0"></path>
<path d="M446 48h0"></path>
<g class="terminal">
<path d="M50 48h0"></path>
<path d="M214 48h0"></path>
<rect x="50" y="37" width="164" height="22" rx="10" ry="10"></rect>
<text x="132" y="52">^&#91;\w%\/&#93;&#91;\w\&#42;\/&#93;&#42;$</text>
</g>
<path d="M214 48h10"></path>
<g>
<path d="M224 48h0"></path>
<path d="M446 48h0"></path>
<path d="M224 48a10 10 0 0 0 10 -10v-8a10 10 0 0 1 10 -10"></path>
<g>
<path d="M244 20h182"></path>
</g>
<path d="M426 20a10 10 0 0 1 10 10v8a10 10 0 0 0 10 10"></path>
<path d="M224 48h20"></path>
<g>
<path d="M244 48h0"></path>
<path d="M426 48h0"></path>
<path d="M244 48h10"></path>
<g>
<path d="M254 48h0"></path>
<path d="M416 48h0"></path>
<g class="terminal">
<path d="M254 48h0"></path>
<path d="M306 48h0"></path>
<rect x="254" y="37" width="52" height="22" rx="10" ry="10"></rect>
<text x="280" y="52">!"-"</text>
</g>
<path d="M306 48h10"></path>
<g>
<path d="M316 48h0"></path>
<path d="M416 48h0"></path>
<path d="M316 48a10 10 0 0 0 10 -10v0a10 10 0 0 1 10 -10"></path>
<g>
<path d="M336 28h60"></path>
</g>
<path d="M396 28a10 10 0 0 1 10 10v0a10 10 0 0 0 10 10"></path>
<path d="M316 48h20"></path>
<g class="terminal">
<path d="M336 48h0"></path>
<path d="M396 48h0"></path>
<rect x="336" y="37" width="60" height="22" rx="10" ry="10"></rect>
<text x="366" y="52">^\w+$</text>
</g>
<path d="M396 48h20"></path>
</g>
</g>
<path d="M416 48h10"></path>
<path d="M254 48a10 10 0 0 0 -10 10v0a10 10 0 0 0 10 10"></path>
<g>
<path d="M254 68h162"></path>
</g>
<path d="M416 68a10 10 0 0 0 10 -10v0a10 10 0 0 0 -10 -10"></path>
</g>
<path d="M426 48h20"></path>
</g>
</g>
<path d="M446 48h10"></path>
<path d="M 456 48 h 20 m 0 -10 v 20"></path>
</g>
</svg>
