<svg xmlns="http://www.w3.org/2000/svg" xmlns:xlink="http://www.w3.org/1999/xlink" class="railroad-diagram" width="1136" height="664" viewBox="0 0 1136 664">
<defs>
<style type="text/css"><![CDATA[
path {
stroke-width: 3;
stroke: black;
fill: rgba(0,0,0,0);
}
text {
font: bold 14px monospace;
text-anchor: middle;
}
text.diagram-text {
font-size: 12px;
}
a {
fill: blue;
}
text.diagram-arrow {
font-size: 16px;
}
text.label {
text-anchor: start;
}
text.comment {
font: italic 12px monospace;
}
rect {
stroke-width: 3;
stroke: black;
fill: #BCBCBC;
}
path.diagram-text {
stroke-width: 3;
stroke: black;
fill: #BCBCBC;
cursor: help;
}
]]></style>
</defs>
<g transform="translate(.5 .5)">
<path d="M 20 30 v 20 m 0 -10 h 20.5"></path>
<g>
<path d="M40 40h0"></path>
<path d="M1096 40h0"></path>
<path d="M40 40h20"></path>
<g>
<path d="M60 40h0"></path>
<path d="M888 40h188"></path>
<g>
<path d="M60 40h0"></path>
<path d="M558 40h0"></path>
<path d="M60 40h20"></path>
<g class="non-terminal">
<path d="M80 40h0"></path>
<path d="M164 40h374"></path>
<rect x="80" y="29" width="84" height="22"></rect>
<a xlink:href="reuse_constant.svg"><text x="122" y="44">constant</text>
</a>
</g>
<path d="M538 40h20"></path>
<path d="M60 40a10 10 0 0 1 10 10v10a10 10 0 0 0 10 10"></path>
<g class="non-terminal">
<path d="M80 70h0"></path>
<path d="M220 70h318"></path>
<rect x="80" y="59" width="140" height="22"></rect>
<a xlink:href="reuse_string_template.svg"><text x="150" y="74">string&#95;template</text>
</a>
</g>
<path d="M538 70a10 10 0 0 0 10 -10v-10a10 10 0 0 1 10 -10"></path>
<path d="M60 40a10 10 0 0 1 10 10v40a10 10 0 0 0 10 10"></path>
<g>
<path d="M80 100h0"></path>
<path d="M372 100h166"></path>
<g class="terminal">
<path d="M80 100h0"></path>
<path d="M156 100h0"></path>
<rect x="80" y="89" width="76" height="22" rx="10" ry="10"></rect>
<text x="118" y="104">"BOOLC"</text>
</g>
<path d="M156 100h10"></path>
<path d="M166 100h10"></path>
<g class="terminal">
<path d="M176 100h0"></path>
<path d="M236 100h0"></path>
<rect x="176" y="89" width="60" height="22" rx="10" ry="10"></rect>
<text x="206" y="104">!"( "</text>
</g>
<path d="M236 100h10"></path>
<path d="M246 100h10"></path>
<g class="non-terminal">
<path d="M256 100h0"></path>
<path d="M308 100h0"></path>
<rect x="256" y="89" width="52" height="22"></rect>
<a xlink:href="reuse_cond.svg"><text x="282" y="104">cond</text>
</a>
</g>
<path d="M308 100h10"></path>
<path d="M318 100h10"></path>
<g class="terminal">
<path d="M328 100h0"></path>
<path d="M372 100h0"></path>
<rect x="328" y="89" width="44" height="22" rx="10" ry="10"></rect>
<text x="350" y="104">")"</text>
</g>
</g>
<path d="M538 100a10 10 0 0 0 10 -10v-40a10 10 0 0 1 10 -10"></path>
<path d="M60 40a10 10 0 0 1 10 10v79a10 10 0 0 0 10 10"></path>
<g>
<path d="M80 139h0"></path>
<path d="M538 139h0"></path>
<g class="non-terminal">
<path d="M80 139h0"></path>
<path d="M236 139h0"></path>
<rect x="80" y="128" width="156" height="22"></rect>
<a xlink:href="reuse_method_call_chain.svg"><text x="158" y="143">method&#95;call&#95;chain</text>
</a>
</g>
<path d="M236 139h10"></path>
<g>
<path d="M246 139h0"></path>
<path d="M538 139h0"></path>
<path d="M246 139a10 10 0 0 0 10 -10v0a10 10 0 0 1 10 -10"></path>
<g>
<path d="M266 119h252"></path>
</g>
<path d="M518 119a10 10 0 0 1 10 10v0a10 10 0 0 0 10 10"></path>
<path d="M246 139h20"></path>
<g>
<path d="M266 139h0"></path>
<path d="M518 139h0"></path>
<g class="non-terminal">
<path d="M266 139h0"></path>
<path d="M390 139h0"></path>
<rect x="266" y="128" width="124" height="22"></rect>
<a xlink:href="reuse_arrow_or_dash.svg"><text x="328" y="143">arrow&#95;or&#95;dash</text>
</a>
</g>
<path d="M390 139h10"></path>
<path d="M400 139h10"></path>
<g class="non-terminal">
<path d="M410 139h0"></path>
<path d="M518 139h0"></path>
<rect x="410" y="128" width="108" height="22"></rect>
<a xlink:href="reuse_field_chain.svg"><text x="464" y="143">field&#95;chain</text>
</a>
</g>
</g>
<path d="M518 139h20"></path>
</g>
</g>
<path d="M538 139a10 10 0 0 0 10 -10v-79a10 10 0 0 1 10 -10"></path>
<path d="M60 40a10 10 0 0 1 10 10v118a10 10 0 0 0 10 10"></path>
<g>
<path d="M80 178h0"></path>
<path d="M370 178h168"></path>
<g>
<path d="M80 178h0"></path>
<path d="M252 178h0"></path>
<path d="M80 178a10 10 0 0 0 10 -10v0a10 10 0 0 1 10 -10"></path>
<g>
<path d="M100 158h132"></path>
</g>
<path d="M232 158a10 10 0 0 1 10 10v0a10 10 0 0 0 10 10"></path>
<path d="M80 178h20"></path>
<g>
<path d="M100 178h0"></path>
<path d="M232 178h0"></path>
<path d="M100 178h20"></path>
<g class="terminal">
<path d="M120 178h0"></path>
<path d="M188 178h24"></path>
<rect x="120" y="167" width="68" height="22" rx="10" ry="10"></rect>
<text x="154" y="182">!" - "</text>
</g>
<path d="M212 178h20"></path>
<path d="M100 178a10 10 0 0 1 10 10v10a10 10 0 0 0 10 10"></path>
<g class="terminal">
<path d="M120 208h0"></path>
<path d="M212 208h0"></path>
<rect x="120" y="197" width="92" height="22" rx="10" ry="10"></rect>
<text x="166" y="212">"BIT-NOT"</text>
</g>
<path d="M212 208a10 10 0 0 0 10 -10v-10a10 10 0 0 1 10 -10"></path>
</g>
<path d="M232 178h20"></path>
</g>
<path d="M252 178h10"></path>
<g class="non-terminal">
<path d="M262 178h0"></path>
<path d="M370 178h0"></path>
<rect x="262" y="167" width="108" height="22"></rect>
<a xlink:href="reuse_field_chain.svg"><text x="316" y="182">field&#95;chain</text>
</a>
</g>
</g>
<path d="M538 178a10 10 0 0 0 10 -10v-118a10 10 0 0 1 10 -10"></path>
<path d="M60 40a10 10 0 0 1 10 10v178a10 10 0 0 0 10 10"></path>
<g>
<path d="M80 238h0"></path>
<path d="M354 238h184"></path>
<g class="terminal">
<path d="M80 238h0"></path>
<path d="M148 238h0"></path>
<rect x="80" y="227" width="68" height="22" rx="10" ry="10"></rect>
<text x="114" y="242">!" ( "</text>
</g>
<path d="M148 238h10"></path>
<path d="M158 238h10"></path>
<g class="non-terminal">
<path d="M168 238h0"></path>
<path d="M236 238h0"></path>
<rect x="168" y="227" width="68" height="22"></rect>
<a xlink:href="reuse_source.svg"><text x="202" y="242">source</text>
</a>
</g>
<path d="M236 238h10"></path>
<g>
<path d="M246 238h0"></path>
<path d="M354 238h0"></path>
<path d="M246 238h20"></path>
<g class="terminal">
<path d="M266 238h0"></path>
<path d="M334 238h0"></path>
<rect x="266" y="227" width="68" height="22" rx="10" ry="10"></rect>
<text x="300" y="242">!" ) "</text>
</g>
<path d="M334 238h20"></path>
<path d="M246 238a10 10 0 0 1 10 10v10a10 10 0 0 0 10 10"></path>
<g class="terminal">
<path d="M266 268h0"></path>
<path d="M326 268h8"></path>
<rect x="266" y="257" width="60" height="22" rx="10" ry="10"></rect>
<text x="296" y="272">!" )"</text>
</g>
<path d="M334 268a10 10 0 0 0 10 -10v-10a10 10 0 0 1 10 -10"></path>
</g>
</g>
<path d="M538 238a10 10 0 0 0 10 -10v-178a10 10 0 0 1 10 -10"></path>
</g>
<g>
<path d="M558 40h0"></path>
<path d="M888 40h0"></path>
<path d="M558 40a10 10 0 0 0 10 -10v0a10 10 0 0 1 10 -10"></path>
<g>
<path d="M578 20h290"></path>
</g>
<path d="M868 20a10 10 0 0 1 10 10v0a10 10 0 0 0 10 10"></path>
<path d="M558 40h20"></path>
<g>
<path d="M578 40h0"></path>
<path d="M868 40h0"></path>
<path d="M578 40h20"></path>
<g>
<path d="M598 40h0"></path>
<path d="M722 40h126"></path>
<g class="non-terminal">
<path d="M598 40h0"></path>
<path d="M658 40h0"></path>
<rect x="598" y="29" width="60" height="22"></rect>
<a xlink:href="reuse_arrow.svg"><text x="628" y="44">arrow</text>
</a>
</g>
<path d="M658 40h10"></path>
<path d="M668 40h10"></path>
<g class="terminal">
<path d="M678 40h0"></path>
<path d="M722 40h0"></path>
<rect x="678" y="29" width="44" height="22" rx="10" ry="10"></rect>
<text x="700" y="44">"&#42;"</text>
</g>
</g>
<path d="M848 40h20"></path>
<path d="M578 40a10 10 0 0 1 10 10v10a10 10 0 0 0 10 10"></path>
<g>
<path d="M598 70h0"></path>
<path d="M848 70h0"></path>
<g>
<path d="M598 70h0"></path>
<path d="M770 70h0"></path>
<path d="M598 70h20"></path>
<g class="terminal">
<path d="M618 70h0"></path>
<path d="M662 70h88"></path>
<rect x="618" y="59" width="44" height="22" rx="10" ry="10"></rect>
<text x="640" y="74">"&#38;"</text>
</g>
<path d="M750 70h20"></path>
<path d="M598 70a10 10 0 0 1 10 10v10a10 10 0 0 0 10 10"></path>
<g class="terminal">
<path d="M618 100h0"></path>
<path d="M670 100h80"></path>
<rect x="618" y="89" width="52" height="22" rx="10" ry="10"></rect>
<text x="644" y="104">"&#38;&#38;"</text>
</g>
<path d="M750 100a10 10 0 0 0 10 -10v-10a10 10 0 0 1 10 -10"></path>
<path d="M598 70a10 10 0 0 1 10 10v40a10 10 0 0 0 10 10"></path>
<g class="non-terminal">
<path d="M618 130h0"></path>
<path d="M750 130h0"></path>
<rect x="618" y="119" width="132" height="22"></rect>
<a xlink:href="reuse_arith_operator.svg"><text x="684" y="134">arith&#95;operator</text>
</a>
</g>
<path d="M750 130a10 10 0 0 0 10 -10v-40a10 10 0 0 1 10 -10"></path>
</g>
<path d="M770 70h10"></path>
<g class="non-terminal">
<path d="M780 70h0"></path>
<path d="M848 70h0"></path>
<rect x="780" y="59" width="68" height="22"></rect>
<a xlink:href="reuse_source.svg"><text x="814" y="74">source</text>
</a>
</g>
</g>
<path d="M848 70a10 10 0 0 0 10 -10v-10a10 10 0 0 1 10 -10"></path>
<path d="M578 40a10 10 0 0 1 10 10v100a10 10 0 0 0 10 10"></path>
<g class="non-terminal">
<path d="M598 160h0"></path>
<path d="M698 160h150"></path>
<rect x="598" y="149" width="100" height="22"></rect>
<a xlink:href="reuse_table_body.svg"><text x="648" y="164">table&#95;body</text>
</a>
</g>
<path d="M848 160a10 10 0 0 0 10 -10v-100a10 10 0 0 1 10 -10"></path>
</g>
<path d="M868 40h20"></path>
</g>
</g>
<path d="M1076 40h20"></path>
<path d="M40 40a10 10 0 0 1 10 10v238a10 10 0 0 0 10 10"></path>
<g>
<path d="M60 298h0"></path>
<path d="M684 298h392"></path>
<g>
<path d="M60 298h0"></path>
<path d="M126 298h0"></path>
<text x="93" y="303" class="comment">v740sp05</text>
</g>
<path d="M126 298h10"></path>
<path d="M136 298h10"></path>
<g>
<path d="M146 298h0"></path>
<path d="M684 298h0"></path>
<g class="terminal">
<path d="M146 298h0"></path>
<path d="M286 298h0"></path>
<rect x="146" y="287" width="140" height="22" rx="10" ry="10"></rect>
<text x="216" y="302">"CORRESPONDING"</text>
</g>
<path d="M286 298h10"></path>
<path d="M296 298h10"></path>
<g class="non-terminal">
<path d="M306 298h0"></path>
<path d="M398 298h0"></path>
<rect x="306" y="287" width="92" height="22"></rect>
<a xlink:href="reuse_type_name.svg"><text x="352" y="302">type&#95;name</text>
</a>
</g>
<path d="M398 298h10"></path>
<path d="M408 298h10"></path>
<g class="terminal">
<path d="M418 298h0"></path>
<path d="M478 298h0"></path>
<rect x="418" y="287" width="60" height="22" rx="10" ry="10"></rect>
<text x="448" y="302">!"( "</text>
</g>
<path d="M478 298h10"></path>
<path d="M488 298h10"></path>
<g class="non-terminal">
<path d="M498 298h0"></path>
<path d="M566 298h0"></path>
<rect x="498" y="287" width="68" height="22"></rect>
<a xlink:href="reuse_source.svg"><text x="532" y="302">source</text>
</a>
</g>
<path d="M566 298h10"></path>
<g>
<path d="M576 298h0"></path>
<path d="M684 298h0"></path>
<path d="M576 298h20"></path>
<g class="terminal">
<path d="M596 298h0"></path>
<path d="M664 298h0"></path>
<rect x="596" y="287" width="68" height="22" rx="10" ry="10"></rect>
<text x="630" y="302">!" ) "</text>
</g>
<path d="M664 298h20"></path>
<path d="M576 298a10 10 0 0 1 10 10v10a10 10 0 0 0 10 10"></path>
<g class="terminal">
<path d="M596 328h0"></path>
<path d="M656 328h8"></path>
<rect x="596" y="317" width="60" height="22" rx="10" ry="10"></rect>
<text x="626" y="332">!" )"</text>
</g>
<path d="M664 328a10 10 0 0 0 10 -10v-10a10 10 0 0 1 10 -10"></path>
</g>
</g>
</g>
<path d="M1076 298a10 10 0 0 0 10 -10v-238a10 10 0 0 1 10 -10"></path>
<path d="M40 40a10 10 0 0 1 10 10v298a10 10 0 0 0 10 10"></path>
<g>
<path d="M60 358h0"></path>
<path d="M612 358h464"></path>
<g>
<path d="M60 358h0"></path>
<path d="M126 358h0"></path>
<text x="93" y="363" class="comment">v740sp02</text>
</g>
<path d="M126 358h10"></path>
<path d="M136 358h10"></path>
<g>
<path d="M146 358h0"></path>
<path d="M612 358h0"></path>
<g class="terminal">
<path d="M146 358h0"></path>
<path d="M214 358h0"></path>
<rect x="146" y="347" width="68" height="22" rx="10" ry="10"></rect>
<text x="180" y="362">"CONV"</text>
</g>
<path d="M214 358h10"></path>
<path d="M224 358h10"></path>
<g class="non-terminal">
<path d="M234 358h0"></path>
<path d="M326 358h0"></path>
<rect x="234" y="347" width="92" height="22"></rect>
<a xlink:href="reuse_type_name.svg"><text x="280" y="362">type&#95;name</text>
</a>
</g>
<path d="M326 358h10"></path>
<path d="M336 358h10"></path>
<g class="terminal">
<path d="M346 358h0"></path>
<path d="M406 358h0"></path>
<rect x="346" y="347" width="60" height="22" rx="10" ry="10"></rect>
<text x="376" y="362">!"( "</text>
</g>
<path d="M406 358h10"></path>
<path d="M416 358h10"></path>
<g class="non-terminal">
<path d="M426 358h0"></path>
<path d="M494 358h0"></path>
<rect x="426" y="347" width="68" height="22"></rect>
<a xlink:href="reuse_source.svg"><text x="460" y="362">source</text>
</a>
</g>
<path d="M494 358h10"></path>
<g>
<path d="M504 358h0"></path>
<path d="M612 358h0"></path>
<path d="M504 358h20"></path>
<g class="terminal">
<path d="M524 358h0"></path>
<path d="M592 358h0"></path>
<rect x="524" y="347" width="68" height="22" rx="10" ry="10"></rect>
<text x="558" y="362">!" ) "</text>
</g>
<path d="M592 358h20"></path>
<path d="M504 358a10 10 0 0 1 10 10v10a10 10 0 0 0 10 10"></path>
<g class="terminal">
<path d="M524 388h0"></path>
<path d="M584 388h8"></path>
<rect x="524" y="377" width="60" height="22" rx="10" ry="10"></rect>
<text x="554" y="392">!" )"</text>
</g>
<path d="M592 388a10 10 0 0 0 10 -10v-10a10 10 0 0 1 10 -10"></path>
</g>
</g>
</g>
<path d="M1076 358a10 10 0 0 0 10 -10v-298a10 10 0 0 1 10 -10"></path>
<path d="M40 40a10 10 0 0 1 10 10v358a10 10 0 0 0 10 10"></path>
<g>
<path d="M60 418h0"></path>
<path d="M1000 418h76"></path>
<g>
<path d="M60 418h0"></path>
<path d="M126 418h0"></path>
<text x="93" y="423" class="comment">v740sp02</text>
</g>
<path d="M126 418h10"></path>
<path d="M136 418h10"></path>
<g>
<path d="M146 418h0"></path>
<path d="M1000 418h0"></path>
<g class="terminal">
<path d="M146 418h0"></path>
<path d="M222 418h0"></path>
<rect x="146" y="407" width="76" height="22" rx="10" ry="10"></rect>
<text x="184" y="422">"VALUE"</text>
</g>
<path d="M222 418h10"></path>
<path d="M232 418h10"></path>
<g class="non-terminal">
<path d="M242 418h0"></path>
<path d="M334 418h0"></path>
<rect x="242" y="407" width="92" height="22"></rect>
<a xlink:href="reuse_type_name.svg"><text x="288" y="422">type&#95;name</text>
</a>
</g>
<path d="M334 418h10"></path>
<path d="M344 418h10"></path>
<g class="terminal">
<path d="M354 418h0"></path>
<path d="M414 418h0"></path>
<rect x="354" y="407" width="60" height="22" rx="10" ry="10"></rect>
<text x="384" y="422">!"( "</text>
</g>
<path d="M414 418h10"></path>
<g>
<path d="M424 418h0"></path>
<path d="M892 418h0"></path>
<path d="M424 418h20"></path>
<g class="non-terminal">
<path d="M444 418h0"></path>
<path d="M512 418h360"></path>
<rect x="444" y="407" width="68" height="22"></rect>
<a xlink:href="reuse_source.svg"><text x="478" y="422">source</text>
</a>
</g>
<path d="M872 418h20"></path>
<path d="M424 418a10 10 0 0 1 10 10v10a10 10 0 0 0 10 10"></path>
<g>
<path d="M444 448h0"></path>
<path d="M676 448h196"></path>
<path d="M444 448h10"></path>
<g>
<path d="M454 448h0"></path>
<path d="M666 448h0"></path>
<g class="non-terminal">
<path d="M454 448h0"></path>
<path d="M514 448h0"></path>
<rect x="454" y="437" width="60" height="22"></rect>
<a xlink:href="reuse_field.svg"><text x="484" y="452">field</text>
</a>
</g>
<path d="M514 448h10"></path>
<path d="M524 448h10"></path>
<g class="terminal">
<path d="M534 448h0"></path>
<path d="M578 448h0"></path>
<rect x="534" y="437" width="44" height="22" rx="10" ry="10"></rect>
<text x="556" y="452">"="</text>
</g>
<path d="M578 448h10"></path>
<path d="M588 448h10"></path>
<g class="non-terminal">
<path d="M598 448h0"></path>
<path d="M666 448h0"></path>
<rect x="598" y="437" width="68" height="22"></rect>
<a xlink:href="reuse_source.svg"><text x="632" y="452">source</text>
</a>
</g>
</g>
<path d="M666 448h10"></path>
<path d="M454 448a10 10 0 0 0 -10 10v0a10 10 0 0 0 10 10"></path>
<g>
<path d="M454 468h212"></path>
</g>
<path d="M666 468a10 10 0 0 0 10 -10v0a10 10 0 0 0 -10 -10"></path>
</g>
<path d="M872 448a10 10 0 0 0 10 -10v-10a10 10 0 0 1 10 -10"></path>
<path d="M424 418a10 10 0 0 1 10 10v49a10 10 0 0 0 10 10"></path>
<g>
<path d="M444 487h0"></path>
<path d="M872 487h0"></path>
<path d="M444 487h10"></path>
<g>
<path d="M454 487h0"></path>
<path d="M862 487h0"></path>
<g class="terminal">
<path d="M454 487h0"></path>
<path d="M522 487h0"></path>
<rect x="454" y="476" width="68" height="22" rx="10" ry="10"></rect>
<text x="488" y="491">!" ( "</text>
</g>
<path d="M522 487h10"></path>
<path d="M532 487h10"></path>
<g>
<path d="M542 487h0"></path>
<path d="M774 487h0"></path>
<path d="M542 487h10"></path>
<g>
<path d="M552 487h0"></path>
<path d="M764 487h0"></path>
<g class="non-terminal">
<path d="M552 487h0"></path>
<path d="M612 487h0"></path>
<rect x="552" y="476" width="60" height="22"></rect>
<a xlink:href="reuse_field.svg"><text x="582" y="491">field</text>
</a>
</g>
<path d="M612 487h10"></path>
<path d="M622 487h10"></path>
<g class="terminal">
<path d="M632 487h0"></path>
<path d="M676 487h0"></path>
<rect x="632" y="476" width="44" height="22" rx="10" ry="10"></rect>
<text x="654" y="491">"="</text>
</g>
<path d="M676 487h10"></path>
<path d="M686 487h10"></path>
<g class="non-terminal">
<path d="M696 487h0"></path>
<path d="M764 487h0"></path>
<rect x="696" y="476" width="68" height="22"></rect>
<a xlink:href="reuse_source.svg"><text x="730" y="491">source</text>
</a>
</g>
</g>
<path d="M764 487h10"></path>
<path d="M552 487a10 10 0 0 0 -10 10v0a10 10 0 0 0 10 10"></path>
<g>
<path d="M552 507h212"></path>
</g>
<path d="M764 507a10 10 0 0 0 10 -10v0a10 10 0 0 0 -10 -10"></path>
</g>
<path d="M774 487h10"></path>
<path d="M784 487h10"></path>
<g class="terminal">
<path d="M794 487h0"></path>
<path d="M862 487h0"></path>
<rect x="794" y="476" width="68" height="22" rx="10" ry="10"></rect>
<text x="828" y="491">!" ) "</text>
</g>
</g>
<path d="M862 487h10"></path>
<path d="M454 487a10 10 0 0 0 -10 10v8a10 10 0 0 0 10 10"></path>
<g>
<path d="M454 515h408"></path>
</g>
<path d="M862 515a10 10 0 0 0 10 -10v-8a10 10 0 0 0 -10 -10"></path>
</g>
<path d="M872 487a10 10 0 0 0 10 -10v-49a10 10 0 0 1 10 -10"></path>
</g>
<g>
<path d="M892 418h0"></path>
<path d="M1000 418h0"></path>
<path d="M892 418h20"></path>
<g class="terminal">
<path d="M912 418h0"></path>
<path d="M980 418h0"></path>
<rect x="912" y="407" width="68" height="22" rx="10" ry="10"></rect>
<text x="946" y="422">!" ) "</text>
</g>
<path d="M980 418h20"></path>
<path d="M892 418a10 10 0 0 1 10 10v10a10 10 0 0 0 10 10"></path>
<g class="terminal">
<path d="M912 448h0"></path>
<path d="M972 448h8"></path>
<rect x="912" y="437" width="60" height="22" rx="10" ry="10"></rect>
<text x="942" y="452">!" )"</text>
</g>
<path d="M980 448a10 10 0 0 0 10 -10v-10a10 10 0 0 1 10 -10"></path>
</g>
</g>
</g>
<path d="M1076 418a10 10 0 0 0 10 -10v-358a10 10 0 0 1 10 -10"></path>
<path d="M40 40a10 10 0 0 1 10 10v483a10 10 0 0 0 10 10"></path>
<g>
<path d="M60 543h0"></path>
<path d="M1076 543h0"></path>
<g>
<path d="M60 543h0"></path>
<path d="M126 543h0"></path>
<text x="93" y="548" class="comment">v740sp02</text>
</g>
<path d="M126 543h10"></path>
<path d="M136 543h10"></path>
<g>
<path d="M146 543h0"></path>
<path d="M1076 543h0"></path>
<g class="terminal">
<path d="M146 543h0"></path>
<path d="M214 543h0"></path>
<rect x="146" y="532" width="68" height="22" rx="10" ry="10"></rect>
<text x="180" y="547">"COND"</text>
</g>
<path d="M214 543h10"></path>
<path d="M224 543h10"></path>
<g class="non-terminal">
<path d="M234 543h0"></path>
<path d="M326 543h0"></path>
<rect x="234" y="532" width="92" height="22"></rect>
<a xlink:href="reuse_type_name.svg"><text x="280" y="547">type&#95;name</text>
</a>
</g>
<path d="M326 543h10"></path>
<path d="M336 543h10"></path>
<g class="terminal">
<path d="M346 543h0"></path>
<path d="M406 543h0"></path>
<rect x="346" y="532" width="60" height="22" rx="10" ry="10"></rect>
<text x="376" y="547">!"( "</text>
</g>
<path d="M406 543h10"></path>
<path d="M416 543h10"></path>
<g>
<path d="M426 543h0"></path>
<path d="M762 543h0"></path>
<path d="M426 543h10"></path>
<g>
<path d="M436 543h0"></path>
<path d="M752 543h0"></path>
<g class="terminal">
<path d="M436 543h0"></path>
<path d="M504 543h0"></path>
<rect x="436" y="532" width="68" height="22" rx="10" ry="10"></rect>
<text x="470" y="547">"WHEN"</text>
</g>
<path d="M504 543h10"></path>
<path d="M514 543h10"></path>
<g class="non-terminal">
<path d="M524 543h0"></path>
<path d="M576 543h0"></path>
<rect x="524" y="532" width="52" height="22"></rect>
<a xlink:href="reuse_cond.svg"><text x="550" y="547">cond</text>
</a>
</g>
<path d="M576 543h10"></path>
<path d="M586 543h10"></path>
<g class="terminal">
<path d="M596 543h0"></path>
<path d="M664 543h0"></path>
<rect x="596" y="532" width="68" height="22" rx="10" ry="10"></rect>
<text x="630" y="547">"THEN"</text>
</g>
<path d="M664 543h10"></path>
<path d="M674 543h10"></path>
<g class="non-terminal">
<path d="M684 543h0"></path>
<path d="M752 543h0"></path>
<rect x="684" y="532" width="68" height="22"></rect>
<a xlink:href="reuse_source.svg"><text x="718" y="547">source</text>
</a>
</g>
</g>
<path d="M752 543h10"></path>
<path d="M436 543a10 10 0 0 0 -10 10v0a10 10 0 0 0 10 10"></path>
<g>
<path d="M436 563h316"></path>
</g>
<path d="M752 563a10 10 0 0 0 10 -10v0a10 10 0 0 0 -10 -10"></path>
</g>
<path d="M762 543h10"></path>
<g>
<path d="M772 543h0"></path>
<path d="M968 543h0"></path>
<path d="M772 543a10 10 0 0 0 10 -10v0a10 10 0 0 1 10 -10"></path>
<g>
<path d="M792 523h156"></path>
</g>
<path d="M948 523a10 10 0 0 1 10 10v0a10 10 0 0 0 10 10"></path>
<path d="M772 543h20"></path>
<g>
<path d="M792 543h0"></path>
<path d="M948 543h0"></path>
<g class="terminal">
<path d="M792 543h0"></path>
<path d="M860 543h0"></path>
<rect x="792" y="532" width="68" height="22" rx="10" ry="10"></rect>
<text x="826" y="547">"ELSE"</text>
</g>
<path d="M860 543h10"></path>
<path d="M870 543h10"></path>
<g class="non-terminal">
<path d="M880 543h0"></path>
<path d="M948 543h0"></path>
<rect x="880" y="532" width="68" height="22"></rect>
<a xlink:href="reuse_source.svg"><text x="914" y="547">source</text>
</a>
</g>
</g>
<path d="M948 543h20"></path>
</g>
<g>
<path d="M968 543h0"></path>
<path d="M1076 543h0"></path>
<path d="M968 543h20"></path>
<g class="terminal">
<path d="M988 543h0"></path>
<path d="M1056 543h0"></path>
<rect x="988" y="532" width="68" height="22" rx="10" ry="10"></rect>
<text x="1022" y="547">!" ) "</text>
</g>
<path d="M1056 543h20"></path>
<path d="M968 543a10 10 0 0 1 10 10v10a10 10 0 0 0 10 10"></path>
<g class="terminal">
<path d="M988 573h0"></path>
<path d="M1048 573h8"></path>
<rect x="988" y="562" width="60" height="22" rx="10" ry="10"></rect>
<text x="1018" y="577">!" )"</text>
</g>
<path d="M1056 573a10 10 0 0 0 10 -10v-10a10 10 0 0 1 10 -10"></path>
</g>
</g>
</g>
<path d="M1076 543a10 10 0 0 0 10 -10v-483a10 10 0 0 1 10 -10"></path>
<path d="M40 40a10 10 0 0 1 10 10v543a10 10 0 0 0 10 10"></path>
<g>
<path d="M60 603h0"></path>
<path d="M604 603h472"></path>
<g>
<path d="M60 603h0"></path>
<path d="M126 603h0"></path>
<text x="93" y="608" class="comment">v740sp02</text>
</g>
<path d="M126 603h10"></path>
<path d="M136 603h10"></path>
<g>
<path d="M146 603h0"></path>
<path d="M604 603h0"></path>
<g class="terminal">
<path d="M146 603h0"></path>
<path d="M206 603h0"></path>
<rect x="146" y="592" width="60" height="22" rx="10" ry="10"></rect>
<text x="176" y="607">"REF"</text>
</g>
<path d="M206 603h10"></path>
<path d="M216 603h10"></path>
<g class="non-terminal">
<path d="M226 603h0"></path>
<path d="M318 603h0"></path>
<rect x="226" y="592" width="92" height="22"></rect>
<a xlink:href="reuse_type_name.svg"><text x="272" y="607">type&#95;name</text>
</a>
</g>
<path d="M318 603h10"></path>
<path d="M328 603h10"></path>
<g class="terminal">
<path d="M338 603h0"></path>
<path d="M398 603h0"></path>
<rect x="338" y="592" width="60" height="22" rx="10" ry="10"></rect>
<text x="368" y="607">!"( "</text>
</g>
<path d="M398 603h10"></path>
<path d="M408 603h10"></path>
<g class="non-terminal">
<path d="M418 603h0"></path>
<path d="M486 603h0"></path>
<rect x="418" y="592" width="68" height="22"></rect>
<a xlink:href="reuse_source.svg"><text x="452" y="607">source</text>
</a>
</g>
<path d="M486 603h10"></path>
<g>
<path d="M496 603h0"></path>
<path d="M604 603h0"></path>
<path d="M496 603h20"></path>
<g class="terminal">
<path d="M516 603h0"></path>
<path d="M584 603h0"></path>
<rect x="516" y="592" width="68" height="22" rx="10" ry="10"></rect>
<text x="550" y="607">!" ) "</text>
</g>
<path d="M584 603h20"></path>
<path d="M496 603a10 10 0 0 1 10 10v10a10 10 0 0 0 10 10"></path>
<g class="terminal">
<path d="M516 633h0"></path>
<path d="M576 633h8"></path>
<rect x="516" y="622" width="60" height="22" rx="10" ry="10"></rect>
<text x="546" y="637">!" )"</text>
</g>
<path d="M584 633a10 10 0 0 0 10 -10v-10a10 10 0 0 1 10 -10"></path>
</g>
</g>
</g>
<path d="M1076 603a10 10 0 0 0 10 -10v-543a10 10 0 0 1 10 -10"></path>
</g>
<path d="M 1096 40 h 20 m 0 -10 v 20"></path>
</g>
</svg>
