<svg xmlns="http://www.w3.org/2000/svg" xmlns:xlink="http://www.w3.org/1999/xlink" class="railroad-diagram" width="1010" height="736" viewBox="0 0 1010 736">
<defs>
<style type="text/css"><![CDATA[
path {
stroke-width: 3;
stroke: black;
fill: rgba(0,0,0,0);
}
text {
font: bold 14px monospace;
text-anchor: middle;
}
text.diagram-text {
font-size: 12px;
}
a {
fill: blue;
}
text.diagram-arrow {
font-size: 16px;
}
text.label {
text-anchor: start;
}
text.comment {
font: italic 12px monospace;
}
rect {
stroke-width: 3;
stroke: black;
fill: #BCBCBC;
}
path.diagram-text {
stroke-width: 3;
stroke: black;
fill: #BCBCBC;
cursor: help;
}
]]></style>
</defs>
<g transform="translate(.5 .5)">
<path d="M 20 30 v 20 m 0 -10 h 20.5"></path>
<g>
<path d="M40 40h0"></path>
<path d="M970 40h0"></path>
<path d="M40 40h20"></path>
<g>
<path d="M60 40h0"></path>
<path d="M950 40h0"></path>
<g class="non-terminal">
<path d="M60 40h0"></path>
<path d="M176 40h0"></path>
<rect x="60" y="29" width="116" height="22"></rect>
<a xlink:href="reuse_sqlfieldname.svg"><text x="118" y="44">SQLFieldName</text>
</a>
</g>
<path d="M176 40h10"></path>
<g>
<path d="M186 40h0"></path>
<path d="M950 40h0"></path>
<path d="M186 40h20"></path>
<g>
<path d="M206 40h0"></path>
<path d="M562 40h368"></path>
<g>
<path d="M206 40h0"></path>
<path d="M298 40h0"></path>
<path d="M206 40h20"></path>
<g class="terminal">
<path d="M226 40h0"></path>
<path d="M270 40h8"></path>
<rect x="226" y="29" width="44" height="22" rx="10" ry="10"></rect>
<text x="248" y="44">"="</text>
</g>
<path d="M278 40h20"></path>
<path d="M206 40a10 10 0 0 1 10 10v10a10 10 0 0 0 10 10"></path>
<g class="terminal">
<path d="M226 70h0"></path>
<path d="M278 70h0"></path>
<rect x="226" y="59" width="52" height="22" rx="10" ry="10"></rect>
<text x="252" y="74">"&#60;>"</text>
</g>
<path d="M278 70a10 10 0 0 0 10 -10v-10a10 10 0 0 1 10 -10"></path>
<path d="M206 40a10 10 0 0 1 10 10v40a10 10 0 0 0 10 10"></path>
<g class="terminal">
<path d="M226 100h0"></path>
<path d="M278 100h0"></path>
<rect x="226" y="89" width="52" height="22" rx="10" ry="10"></rect>
<text x="252" y="104">">&#60;"</text>
</g>
<path d="M278 100a10 10 0 0 0 10 -10v-40a10 10 0 0 1 10 -10"></path>
<path d="M206 40a10 10 0 0 1 10 10v70a10 10 0 0 0 10 10"></path>
<g class="terminal">
<path d="M226 130h0"></path>
<path d="M270 130h8"></path>
<rect x="226" y="119" width="44" height="22" rx="10" ry="10"></rect>
<text x="248" y="134">"&#60;"</text>
</g>
<path d="M278 130a10 10 0 0 0 10 -10v-70a10 10 0 0 1 10 -10"></path>
<path d="M206 40a10 10 0 0 1 10 10v100a10 10 0 0 0 10 10"></path>
<g class="terminal">
<path d="M226 160h0"></path>
<path d="M270 160h8"></path>
<rect x="226" y="149" width="44" height="22" rx="10" ry="10"></rect>
<text x="248" y="164">">"</text>
</g>
<path d="M278 160a10 10 0 0 0 10 -10v-100a10 10 0 0 1 10 -10"></path>
<path d="M206 40a10 10 0 0 1 10 10v130a10 10 0 0 0 10 10"></path>
<g class="terminal">
<path d="M226 190h0"></path>
<path d="M278 190h0"></path>
<rect x="226" y="179" width="52" height="22" rx="10" ry="10"></rect>
<text x="252" y="194">"&#60;="</text>
</g>
<path d="M278 190a10 10 0 0 0 10 -10v-130a10 10 0 0 1 10 -10"></path>
<path d="M206 40a10 10 0 0 1 10 10v160a10 10 0 0 0 10 10"></path>
<g class="terminal">
<path d="M226 220h0"></path>
<path d="M278 220h0"></path>
<rect x="226" y="209" width="52" height="22" rx="10" ry="10"></rect>
<text x="252" y="224">">="</text>
</g>
<path d="M278 220a10 10 0 0 0 10 -10v-160a10 10 0 0 1 10 -10"></path>
<path d="M206 40a10 10 0 0 1 10 10v190a10 10 0 0 0 10 10"></path>
<g class="terminal">
<path d="M226 250h0"></path>
<path d="M278 250h0"></path>
<rect x="226" y="239" width="52" height="22" rx="10" ry="10"></rect>
<text x="252" y="254">"EQ"</text>
</g>
<path d="M278 250a10 10 0 0 0 10 -10v-190a10 10 0 0 1 10 -10"></path>
<path d="M206 40a10 10 0 0 1 10 10v220a10 10 0 0 0 10 10"></path>
<g class="terminal">
<path d="M226 280h0"></path>
<path d="M278 280h0"></path>
<rect x="226" y="269" width="52" height="22" rx="10" ry="10"></rect>
<text x="252" y="284">"NE"</text>
</g>
<path d="M278 280a10 10 0 0 0 10 -10v-220a10 10 0 0 1 10 -10"></path>
<path d="M206 40a10 10 0 0 1 10 10v250a10 10 0 0 0 10 10"></path>
<g class="terminal">
<path d="M226 310h0"></path>
<path d="M278 310h0"></path>
<rect x="226" y="299" width="52" height="22" rx="10" ry="10"></rect>
<text x="252" y="314">"GE"</text>
</g>
<path d="M278 310a10 10 0 0 0 10 -10v-250a10 10 0 0 1 10 -10"></path>
<path d="M206 40a10 10 0 0 1 10 10v280a10 10 0 0 0 10 10"></path>
<g class="terminal">
<path d="M226 340h0"></path>
<path d="M278 340h0"></path>
<rect x="226" y="329" width="52" height="22" rx="10" ry="10"></rect>
<text x="252" y="344">"GT"</text>
</g>
<path d="M278 340a10 10 0 0 0 10 -10v-280a10 10 0 0 1 10 -10"></path>
<path d="M206 40a10 10 0 0 1 10 10v310a10 10 0 0 0 10 10"></path>
<g class="terminal">
<path d="M226 370h0"></path>
<path d="M278 370h0"></path>
<rect x="226" y="359" width="52" height="22" rx="10" ry="10"></rect>
<text x="252" y="374">"LT"</text>
</g>
<path d="M278 370a10 10 0 0 0 10 -10v-310a10 10 0 0 1 10 -10"></path>
<path d="M206 40a10 10 0 0 1 10 10v340a10 10 0 0 0 10 10"></path>
<g class="terminal">
<path d="M226 400h0"></path>
<path d="M278 400h0"></path>
<rect x="226" y="389" width="52" height="22" rx="10" ry="10"></rect>
<text x="252" y="404">"LE"</text>
</g>
<path d="M278 400a10 10 0 0 0 10 -10v-340a10 10 0 0 1 10 -10"></path>
</g>
<g>
<path d="M298 40h0"></path>
<path d="M484 40h0"></path>
<path d="M298 40a10 10 0 0 0 10 -10v0a10 10 0 0 1 10 -10"></path>
<g>
<path d="M318 20h146"></path>
</g>
<path d="M464 20a10 10 0 0 1 10 10v0a10 10 0 0 0 10 10"></path>
<path d="M298 40h20"></path>
<g>
<path d="M318 40h0"></path>
<path d="M464 40h0"></path>
<g>
<path d="M318 40h0"></path>
<path d="M384 40h0"></path>
<text x="351" y="45" class="comment">v740sp05</text>
</g>
<path d="M384 40h10"></path>
<path d="M394 40h10"></path>
<g class="terminal">
<path d="M404 40h0"></path>
<path d="M464 40h0"></path>
<rect x="404" y="29" width="60" height="22" rx="10" ry="10"></rect>
<text x="434" y="44">!" @"</text>
</g>
</g>
<path d="M464 40h20"></path>
</g>
<path d="M484 40h10"></path>
<g class="non-terminal">
<path d="M494 40h0"></path>
<path d="M562 40h0"></path>
<rect x="494" y="29" width="68" height="22"></rect>
<a xlink:href="reuse_source.svg"><text x="528" y="44">Source</text>
</a>
</g>
</g>
<path d="M930 40h20"></path>
<path d="M186 40a10 10 0 0 1 10 10v379a10 10 0 0 0 10 10"></path>
<g>
<path d="M206 439h0"></path>
<path d="M930 439h0"></path>
<g>
<path d="M206 439h0"></path>
<path d="M306 439h0"></path>
<path d="M206 439a10 10 0 0 0 10 -10v0a10 10 0 0 1 10 -10"></path>
<g>
<path d="M226 419h60"></path>
</g>
<path d="M286 419a10 10 0 0 1 10 10v0a10 10 0 0 0 10 10"></path>
<path d="M206 439h20"></path>
<g class="terminal">
<path d="M226 439h0"></path>
<path d="M286 439h0"></path>
<rect x="226" y="428" width="60" height="22" rx="10" ry="10"></rect>
<text x="256" y="443">"NOT"</text>
</g>
<path d="M286 439h20"></path>
</g>
<path d="M306 439h10"></path>
<g class="terminal">
<path d="M316 439h0"></path>
<path d="M368 439h0"></path>
<rect x="316" y="428" width="52" height="22" rx="10" ry="10"></rect>
<text x="342" y="443">"IN"</text>
</g>
<path d="M368 439h10"></path>
<g>
<path d="M378 439h0"></path>
<path d="M930 439h0"></path>
<path d="M378 439h20"></path>
<g class="non-terminal">
<path d="M398 439h0"></path>
<path d="M466 439h444"></path>
<rect x="398" y="428" width="68" height="22"></rect>
<a xlink:href="reuse_source.svg"><text x="432" y="443">Source</text>
</a>
</g>
<path d="M910 439h20"></path>
<path d="M378 439a10 10 0 0 1 10 10v10a10 10 0 0 0 10 10"></path>
<g>
<path d="M398 469h0"></path>
<path d="M910 469h0"></path>
<g class="terminal">
<path d="M398 469h0"></path>
<path d="M458 469h0"></path>
<rect x="398" y="458" width="60" height="22" rx="10" ry="10"></rect>
<text x="428" y="473">!" ("</text>
</g>
<path d="M458 469h10"></path>
<g>
<path d="M468 469h0"></path>
<path d="M592 469h0"></path>
<path d="M468 469h20"></path>
<g class="non-terminal">
<path d="M488 469h0"></path>
<path d="M572 469h0"></path>
<rect x="488" y="458" width="84" height="22"></rect>
<a xlink:href="reuse_fieldsub.svg"><text x="530" y="473">FieldSub</text>
</a>
</g>
<path d="M572 469h20"></path>
<path d="M468 469a10 10 0 0 1 10 10v10a10 10 0 0 0 10 10"></path>
<g class="non-terminal">
<path d="M488 499h0"></path>
<path d="M572 499h0"></path>
<rect x="488" y="488" width="84" height="22"></rect>
<a xlink:href="reuse_constant.svg"><text x="530" y="503">Constant</text>
</a>
</g>
<path d="M572 499a10 10 0 0 0 10 -10v-10a10 10 0 0 1 10 -10"></path>
</g>
<path d="M592 469h10"></path>
<g>
<path d="M602 469h0"></path>
<path d="M800 469h0"></path>
<path d="M602 469h10"></path>
<g>
<path d="M612 469h0"></path>
<path d="M790 469h0"></path>
<g class="terminal">
<path d="M612 469h0"></path>
<path d="M656 469h0"></path>
<rect x="612" y="458" width="44" height="22" rx="10" ry="10"></rect>
<text x="634" y="473">","</text>
</g>
<path d="M656 469h10"></path>
<g>
<path d="M666 469h0"></path>
<path d="M790 469h0"></path>
<path d="M666 469h20"></path>
<g class="non-terminal">
<path d="M686 469h0"></path>
<path d="M770 469h0"></path>
<rect x="686" y="458" width="84" height="22"></rect>
<a xlink:href="reuse_fieldsub.svg"><text x="728" y="473">FieldSub</text>
</a>
</g>
<path d="M770 469h20"></path>
<path d="M666 469a10 10 0 0 1 10 10v10a10 10 0 0 0 10 10"></path>
<g class="non-terminal">
<path d="M686 499h0"></path>
<path d="M770 499h0"></path>
<rect x="686" y="488" width="84" height="22"></rect>
<a xlink:href="reuse_constant.svg"><text x="728" y="503">Constant</text>
</a>
</g>
<path d="M770 499a10 10 0 0 0 10 -10v-10a10 10 0 0 1 10 -10"></path>
</g>
</g>
<path d="M790 469h10"></path>
<path d="M612 469a10 10 0 0 0 -10 10v29a10 10 0 0 0 10 10"></path>
<g>
<path d="M612 518h178"></path>
</g>
<path d="M790 518a10 10 0 0 0 10 -10v-29a10 10 0 0 0 -10 -10"></path>
</g>
<path d="M800 469h10"></path>
<g>
<path d="M810 469h0"></path>
<path d="M910 469h0"></path>
<path d="M810 469h20"></path>
<g class="terminal">
<path d="M830 469h0"></path>
<path d="M890 469h0"></path>
<rect x="830" y="458" width="60" height="22" rx="10" ry="10"></rect>
<text x="860" y="473">!") "</text>
</g>
<path d="M890 469h20"></path>
<path d="M810 469a10 10 0 0 1 10 10v10a10 10 0 0 0 10 10"></path>
<g class="terminal">
<path d="M830 499h0"></path>
<path d="M882 499h8"></path>
<rect x="830" y="488" width="52" height="22" rx="10" ry="10"></rect>
<text x="856" y="503">!")"</text>
</g>
<path d="M890 499a10 10 0 0 0 10 -10v-10a10 10 0 0 1 10 -10"></path>
</g>
</g>
<path d="M910 469a10 10 0 0 0 10 -10v-10a10 10 0 0 1 10 -10"></path>
<path d="M378 439a10 10 0 0 1 10 10v78a10 10 0 0 0 10 10"></path>
<g>
<path d="M398 537h0"></path>
<path d="M594 537h316"></path>
<g class="terminal">
<path d="M398 537h0"></path>
<path d="M442 537h0"></path>
<rect x="398" y="526" width="44" height="22" rx="10" ry="10"></rect>
<text x="420" y="541">"("</text>
</g>
<path d="M442 537h10"></path>
<path d="M452 537h10"></path>
<g class="non-terminal">
<path d="M462 537h0"></path>
<path d="M530 537h0"></path>
<rect x="462" y="526" width="68" height="22"></rect>
<a xlink:href="reuse_select.svg"><text x="496" y="541">Select</text>
</a>
</g>
<path d="M530 537h10"></path>
<path d="M540 537h10"></path>
<g class="terminal">
<path d="M550 537h0"></path>
<path d="M594 537h0"></path>
<rect x="550" y="526" width="44" height="22" rx="10" ry="10"></rect>
<text x="572" y="541">")"</text>
</g>
</g>
<path d="M910 537a10 10 0 0 0 10 -10v-78a10 10 0 0 1 10 -10"></path>
</g>
</g>
<path d="M930 439a10 10 0 0 0 10 -10v-379a10 10 0 0 1 10 -10"></path>
<path d="M186 40a10 10 0 0 1 10 10v516a10 10 0 0 0 10 10"></path>
<g>
<path d="M206 576h0"></path>
<path d="M694 576h236"></path>
<g>
<path d="M206 576h0"></path>
<path d="M306 576h0"></path>
<path d="M206 576a10 10 0 0 0 10 -10v0a10 10 0 0 1 10 -10"></path>
<g>
<path d="M226 556h60"></path>
</g>
<path d="M286 556a10 10 0 0 1 10 10v0a10 10 0 0 0 10 10"></path>
<path d="M206 576h20"></path>
<g class="terminal">
<path d="M226 576h0"></path>
<path d="M286 576h0"></path>
<rect x="226" y="565" width="60" height="22" rx="10" ry="10"></rect>
<text x="256" y="580">"NOT"</text>
</g>
<path d="M286 576h20"></path>
</g>
<path d="M306 576h10"></path>
<g class="terminal">
<path d="M316 576h0"></path>
<path d="M384 576h0"></path>
<rect x="316" y="565" width="68" height="22" rx="10" ry="10"></rect>
<text x="350" y="580">"LIKE"</text>
</g>
<path d="M384 576h10"></path>
<path d="M394 576h10"></path>
<g class="non-terminal">
<path d="M404 576h0"></path>
<path d="M472 576h0"></path>
<rect x="404" y="565" width="68" height="22"></rect>
<a xlink:href="reuse_source.svg"><text x="438" y="580">Source</text>
</a>
</g>
<path d="M472 576h10"></path>
<g>
<path d="M482 576h0"></path>
<path d="M694 576h0"></path>
<path d="M482 576a10 10 0 0 0 10 -10v0a10 10 0 0 1 10 -10"></path>
<g>
<path d="M502 556h172"></path>
</g>
<path d="M674 556a10 10 0 0 1 10 10v0a10 10 0 0 0 10 10"></path>
<path d="M482 576h20"></path>
<g>
<path d="M502 576h0"></path>
<path d="M674 576h0"></path>
<g class="terminal">
<path d="M502 576h0"></path>
<path d="M586 576h0"></path>
<rect x="502" y="565" width="84" height="22" rx="10" ry="10"></rect>
<text x="544" y="580">"ESCAPE"</text>
</g>
<path d="M586 576h10"></path>
<path d="M596 576h10"></path>
<g class="non-terminal">
<path d="M606 576h0"></path>
<path d="M674 576h0"></path>
<rect x="606" y="565" width="68" height="22"></rect>
<a xlink:href="reuse_source.svg"><text x="640" y="580">Source</text>
</a>
</g>
</g>
<path d="M674 576h20"></path>
</g>
</g>
<path d="M930 576a10 10 0 0 0 10 -10v-516a10 10 0 0 1 10 -10"></path>
<path d="M186 40a10 10 0 0 1 10 10v546a10 10 0 0 0 10 10"></path>
<g>
<path d="M206 606h0"></path>
<path d="M554 606h376"></path>
<g class="terminal">
<path d="M206 606h0"></path>
<path d="M298 606h0"></path>
<rect x="206" y="595" width="92" height="22" rx="10" ry="10"></rect>
<text x="252" y="610">"BETWEEN"</text>
</g>
<path d="M298 606h10"></path>
<path d="M308 606h10"></path>
<g class="non-terminal">
<path d="M318 606h0"></path>
<path d="M386 606h0"></path>
<rect x="318" y="595" width="68" height="22"></rect>
<a xlink:href="reuse_source.svg"><text x="352" y="610">Source</text>
</a>
</g>
<path d="M386 606h10"></path>
<path d="M396 606h10"></path>
<g class="terminal">
<path d="M406 606h0"></path>
<path d="M466 606h0"></path>
<rect x="406" y="595" width="60" height="22" rx="10" ry="10"></rect>
<text x="436" y="610">"AND"</text>
</g>
<path d="M466 606h10"></path>
<path d="M476 606h10"></path>
<g class="non-terminal">
<path d="M486 606h0"></path>
<path d="M554 606h0"></path>
<rect x="486" y="595" width="68" height="22"></rect>
<a xlink:href="reuse_source.svg"><text x="520" y="610">Source</text>
</a>
</g>
</g>
<path d="M930 606a10 10 0 0 0 10 -10v-546a10 10 0 0 1 10 -10"></path>
<path d="M186 40a10 10 0 0 1 10 10v585a10 10 0 0 0 10 10"></path>
<g>
<path d="M206 645h0"></path>
<path d="M446 645h484"></path>
<g class="terminal">
<path d="M206 645h0"></path>
<path d="M258 645h0"></path>
<rect x="206" y="634" width="52" height="22" rx="10" ry="10"></rect>
<text x="232" y="649">"IS"</text>
</g>
<path d="M258 645h10"></path>
<g>
<path d="M268 645h0"></path>
<path d="M368 645h0"></path>
<path d="M268 645a10 10 0 0 0 10 -10v0a10 10 0 0 1 10 -10"></path>
<g>
<path d="M288 625h60"></path>
</g>
<path d="M348 625a10 10 0 0 1 10 10v0a10 10 0 0 0 10 10"></path>
<path d="M268 645h20"></path>
<g class="terminal">
<path d="M288 645h0"></path>
<path d="M348 645h0"></path>
<rect x="288" y="634" width="60" height="22" rx="10" ry="10"></rect>
<text x="318" y="649">"NOT"</text>
</g>
<path d="M348 645h20"></path>
</g>
<path d="M368 645h10"></path>
<g class="terminal">
<path d="M378 645h0"></path>
<path d="M446 645h0"></path>
<rect x="378" y="634" width="68" height="22" rx="10" ry="10"></rect>
<text x="412" y="649">"NULL"</text>
</g>
</g>
<path d="M930 645a10 10 0 0 0 10 -10v-585a10 10 0 0 1 10 -10"></path>
</g>
</g>
<path d="M950 40h20"></path>
<path d="M40 40a10 10 0 0 1 10 10v615a10 10 0 0 0 10 10"></path>
<g class="non-terminal">
<path d="M60 675h0"></path>
<path d="M136 675h814"></path>
<rect x="60" y="664" width="76" height="22"></rect>
<a xlink:href="reuse_dynamic.svg"><text x="98" y="679">Dynamic</text>
</a>
</g>
<path d="M950 675a10 10 0 0 0 10 -10v-615a10 10 0 0 1 10 -10"></path>
<path d="M40 40a10 10 0 0 1 10 10v645a10 10 0 0 0 10 10"></path>
<g>
<path d="M60 705h0"></path>
<path d="M360 705h590"></path>
<g class="terminal">
<path d="M60 705h0"></path>
<path d="M144 705h0"></path>
<rect x="60" y="694" width="84" height="22" rx="10" ry="10"></rect>
<text x="102" y="709">"EXISTS"</text>
</g>
<path d="M144 705h10"></path>
<path d="M154 705h10"></path>
<g>
<path d="M164 705h0"></path>
<path d="M360 705h0"></path>
<g class="terminal">
<path d="M164 705h0"></path>
<path d="M208 705h0"></path>
<rect x="164" y="694" width="44" height="22" rx="10" ry="10"></rect>
<text x="186" y="709">"("</text>
</g>
<path d="M208 705h10"></path>
<path d="M218 705h10"></path>
<g class="non-terminal">
<path d="M228 705h0"></path>
<path d="M296 705h0"></path>
<rect x="228" y="694" width="68" height="22"></rect>
<a xlink:href="reuse_select.svg"><text x="262" y="709">Select</text>
</a>
</g>
<path d="M296 705h10"></path>
<path d="M306 705h10"></path>
<g class="terminal">
<path d="M316 705h0"></path>
<path d="M360 705h0"></path>
<rect x="316" y="694" width="44" height="22" rx="10" ry="10"></rect>
<text x="338" y="709">")"</text>
</g>
</g>
</g>
<path d="M950 705a10 10 0 0 0 10 -10v-645a10 10 0 0 1 10 -10"></path>
</g>
<path d="M 970 40 h 20 m 0 -10 v 20"></path>
</g>
</svg>
