<svg xmlns="http://www.w3.org/2000/svg" xmlns:xlink="http://www.w3.org/1999/xlink" class="railroad-diagram" width="786" height="152" viewBox="0 0 786 152">
<defs>
<style type="text/css"><![CDATA[
path {
stroke-width: 3;
stroke: black;
fill: rgba(0,0,0,0);
}
text {
font: bold 14px monospace;
text-anchor: middle;
}
text.diagram-text {
font-size: 12px;
}
a {
fill: blue;
}
text.diagram-arrow {
font-size: 16px;
}
text.label {
text-anchor: start;
}
text.comment {
font: italic 12px monospace;
}
rect {
stroke-width: 3;
stroke: black;
fill: #BCBCBC;
}
path.diagram-text {
stroke-width: 3;
stroke: black;
fill: #BCBCBC;
cursor: help;
}
]]></style>
</defs>
<g transform="translate(.5 .5)">
<path d="M 20 21 v 20 m 0 -10 h 20.5"></path>
<g>
<path d="M40 31h0"></path>
<path d="M746 31h0"></path>
<path d="M40 31h20"></path>
<g>
<path d="M60 31h60"></path>
<path d="M666 31h60"></path>
<g class="terminal">
<path d="M120 31h0"></path>
<path d="M188 31h0"></path>
<rect x="120" y="20" width="68" height="22" rx="10" ry="10"></rect>
<text x="154" y="35">"DATA"</text>
</g>
<path d="M188 31h10"></path>
<path d="M198 31h10"></path>
<g class="terminal">
<path d="M208 31h0"></path>
<path d="M364 31h0"></path>
<rect x="208" y="20" width="156" height="22" rx="10" ry="10"></rect>
<text x="286" y="35">Token "ParenLeft"</text>
</g>
<path d="M364 31h10"></path>
<path d="M374 31h10"></path>
<g class="non-terminal">
<path d="M384 31h0"></path>
<path d="M444 31h0"></path>
<rect x="384" y="20" width="60" height="22"></rect>
<a xlink:href="reuse_field.svg"><text x="414" y="35">field</text>
</a>
</g>
<path d="M444 31h10"></path>
<g>
<path d="M454 31h0"></path>
<path d="M666 31h0"></path>
<path d="M454 31h20"></path>
<g class="terminal">
<path d="M474 31h4"></path>
<path d="M642 31h4"></path>
<rect x="478" y="20" width="164" height="22" rx="10" ry="10"></rect>
<text x="560" y="35">Token "ParenRight"</text>
</g>
<path d="M646 31h20"></path>
<path d="M454 31a10 10 0 0 1 10 10v10a10 10 0 0 0 10 10"></path>
<g class="terminal">
<path d="M474 61h0"></path>
<path d="M646 61h0"></path>
<rect x="474" y="50" width="172" height="22" rx="10" ry="10"></rect>
<text x="560" y="65">Token "ParenRightW"</text>
</g>
<path d="M646 61a10 10 0 0 0 10 -10v-10a10 10 0 0 1 10 -10"></path>
</g>
</g>
<path d="M726 31h20"></path>
<path d="M40 31a10 10 0 0 1 10 10v40a10 10 0 0 0 10 10"></path>
<g>
<path d="M60 91h0"></path>
<path d="M726 91h0"></path>
<g class="terminal">
<path d="M60 91h0"></path>
<path d="M192 91h0"></path>
<rect x="60" y="80" width="132" height="22" rx="10" ry="10"></rect>
<text x="126" y="95">"FIELD-SYMBOL"</text>
</g>
<path d="M192 91h10"></path>
<path d="M202 91h10"></path>
<g class="terminal">
<path d="M212 91h0"></path>
<path d="M368 91h0"></path>
<rect x="212" y="80" width="156" height="22" rx="10" ry="10"></rect>
<text x="290" y="95">Token "ParenLeft"</text>
</g>
<path d="M368 91h10"></path>
<path d="M378 91h10"></path>
<g class="non-terminal">
<path d="M388 91h0"></path>
<path d="M504 91h0"></path>
<rect x="388" y="80" width="116" height="22"></rect>
<a xlink:href="reuse_field_symbol.svg"><text x="446" y="95">field&#95;symbol</text>
</a>
</g>
<path d="M504 91h10"></path>
<g>
<path d="M514 91h0"></path>
<path d="M726 91h0"></path>
<path d="M514 91h20"></path>
<g class="terminal">
<path d="M534 91h4"></path>
<path d="M702 91h4"></path>
<rect x="538" y="80" width="164" height="22" rx="10" ry="10"></rect>
<text x="620" y="95">Token "ParenRight"</text>
</g>
<path d="M706 91h20"></path>
<path d="M514 91a10 10 0 0 1 10 10v10a10 10 0 0 0 10 10"></path>
<g class="terminal">
<path d="M534 121h0"></path>
<path d="M706 121h0"></path>
<rect x="534" y="110" width="172" height="22" rx="10" ry="10"></rect>
<text x="620" y="125">Token "ParenRightW"</text>
</g>
<path d="M706 121a10 10 0 0 0 10 -10v-10a10 10 0 0 1 10 -10"></path>
</g>
</g>
<path d="M726 91a10 10 0 0 0 10 -10v-40a10 10 0 0 1 10 -10"></path>
</g>
<path d="M 746 31 h 20 m 0 -10 v 20"></path>
</g>
</svg>
