<svg xmlns="http://www.w3.org/2000/svg" xmlns:xlink="http://www.w3.org/1999/xlink" class="railroad-diagram" width="748" height="290" viewBox="0 0 748 290">
<defs>
<style type="text/css"><![CDATA[
path {
stroke-width: 3;
stroke: black;
fill: rgba(0,0,0,0);
}
text {
font: bold 14px monospace;
text-anchor: middle;
}
text.diagram-text {
font-size: 12px;
}
a {
fill: blue;
}
text.diagram-arrow {
font-size: 16px;
}
text.label {
text-anchor: start;
}
text.comment {
font: italic 12px monospace;
}
rect {
stroke-width: 3;
stroke: black;
fill: #BCBCBC;
}
path.diagram-text {
stroke-width: 3;
stroke: black;
fill: #BCBCBC;
cursor: help;
}
]]></style>
</defs>
<g transform="translate(.5 .5)">
<path d="M 20 30 v 20 m 0 -10 h 20.5"></path>
<g>
<path d="M40 40h0"></path>
<path d="M708 40h0"></path>
<path d="M40 40h20"></path>
<g>
<path d="M60 40h0"></path>
<path d="M688 40h0"></path>
<g class="terminal">
<path d="M60 40h0"></path>
<path d="M128 40h0"></path>
<rect x="60" y="29" width="68" height="22" rx="10" ry="10"></rect>
<text x="94" y="44">"TYPE"</text>
</g>
<path d="M128 40h10"></path>
<g>
<path d="M138 40h0"></path>
<path d="M688 40h0"></path>
<path d="M138 40h20"></path>
<g>
<path d="M158 40h0"></path>
<path d="M590 40h78"></path>
<g>
<path d="M158 40h0"></path>
<path d="M384 40h0"></path>
<g>
<path d="M158 40h0"></path>
<path d="M298 40h0"></path>
<path d="M158 40h20"></path>
<g class="terminal">
<path d="M178 40h0"></path>
<path d="M278 40h0"></path>
<rect x="178" y="29" width="100" height="22" rx="10" ry="10"></rect>
<text x="228" y="44">"STANDARD"</text>
</g>
<path d="M278 40h20"></path>
<path d="M158 40a10 10 0 0 1 10 10v10a10 10 0 0 0 10 10"></path>
<g class="terminal">
<path d="M178 70h0"></path>
<path d="M262 70h16"></path>
<rect x="178" y="59" width="84" height="22" rx="10" ry="10"></rect>
<text x="220" y="74">"HASHED"</text>
</g>
<path d="M278 70a10 10 0 0 0 10 -10v-10a10 10 0 0 1 10 -10"></path>
<path d="M158 40a10 10 0 0 1 10 10v40a10 10 0 0 0 10 10"></path>
<g class="terminal">
<path d="M178 100h0"></path>
<path d="M254 100h24"></path>
<rect x="178" y="89" width="76" height="22" rx="10" ry="10"></rect>
<text x="216" y="104">"INDEX"</text>
</g>
<path d="M278 100a10 10 0 0 0 10 -10v-40a10 10 0 0 1 10 -10"></path>
<path d="M158 40a10 10 0 0 1 10 10v70a10 10 0 0 0 10 10"></path>
<g class="terminal">
<path d="M178 130h0"></path>
<path d="M262 130h16"></path>
<rect x="178" y="119" width="84" height="22" rx="10" ry="10"></rect>
<text x="220" y="134">"SORTED"</text>
</g>
<path d="M278 130a10 10 0 0 0 10 -10v-70a10 10 0 0 1 10 -10"></path>
<path d="M158 40a10 10 0 0 1 10 10v100a10 10 0 0 0 10 10"></path>
<g class="terminal">
<path d="M178 160h0"></path>
<path d="M238 160h40"></path>
<rect x="178" y="149" width="60" height="22" rx="10" ry="10"></rect>
<text x="208" y="164">"ANY"</text>
</g>
<path d="M278 160a10 10 0 0 0 10 -10v-100a10 10 0 0 1 10 -10"></path>
</g>
<path d="M298 40h10"></path>
<g class="terminal">
<path d="M308 40h0"></path>
<path d="M384 40h0"></path>
<rect x="308" y="29" width="76" height="22" rx="10" ry="10"></rect>
<text x="346" y="44">"TABLE"</text>
</g>
</g>
<path d="M384 40h10"></path>
<g>
<path d="M394 40h0"></path>
<path d="M590 40h0"></path>
<path d="M394 40a10 10 0 0 0 10 -10v0a10 10 0 0 1 10 -10"></path>
<g>
<path d="M414 20h156"></path>
</g>
<path d="M570 20a10 10 0 0 1 10 10v0a10 10 0 0 0 10 10"></path>
<path d="M394 40h20"></path>
<g>
<path d="M414 40h0"></path>
<path d="M570 40h0"></path>
<g class="terminal">
<path d="M414 40h0"></path>
<path d="M466 40h0"></path>
<rect x="414" y="29" width="52" height="22" rx="10" ry="10"></rect>
<text x="440" y="44">"OF"</text>
</g>
<path d="M466 40h10"></path>
<path d="M476 40h10"></path>
<g class="non-terminal">
<path d="M486 40h0"></path>
<path d="M570 40h0"></path>
<rect x="486" y="29" width="84" height="22"></rect>
<a xlink:href="reuse_typename.svg"><text x="528" y="44">TypeName</text>
</a>
</g>
</g>
<path d="M570 40h20"></path>
</g>
</g>
<path d="M668 40h20"></path>
<path d="M138 40a10 10 0 0 1 10 10v139a10 10 0 0 0 10 10"></path>
<g>
<path d="M158 199h0"></path>
<path d="M668 199h0"></path>
<g>
<path d="M158 199h0"></path>
<path d="M282 199h0"></path>
<path d="M158 199a10 10 0 0 0 10 -10v0a10 10 0 0 1 10 -10"></path>
<g>
<path d="M178 179h84"></path>
</g>
<path d="M262 179a10 10 0 0 1 10 10v0a10 10 0 0 0 10 10"></path>
<path d="M158 199h20"></path>
<g class="terminal">
<path d="M178 199h0"></path>
<path d="M262 199h0"></path>
<rect x="178" y="188" width="84" height="22" rx="10" ry="10"></rect>
<text x="220" y="203">"REF TO"</text>
</g>
<path d="M262 199h20"></path>
</g>
<path d="M282 199h10"></path>
<g class="non-terminal">
<path d="M292 199h0"></path>
<path d="M376 199h0"></path>
<rect x="292" y="188" width="84" height="22"></rect>
<a xlink:href="reuse_typename.svg"><text x="334" y="203">TypeName</text>
</a>
</g>
<path d="M376 199h10"></path>
<g>
<path d="M386 199h0"></path>
<path d="M668 199h0"></path>
<path d="M386 199a10 10 0 0 0 10 -10v0a10 10 0 0 1 10 -10"></path>
<g>
<path d="M406 179h242"></path>
</g>
<path d="M648 179a10 10 0 0 1 10 10v0a10 10 0 0 0 10 10"></path>
<path d="M386 199h20"></path>
<g>
<path d="M406 199h0"></path>
<path d="M648 199h0"></path>
<g class="terminal">
<path d="M406 199h0"></path>
<path d="M498 199h0"></path>
<rect x="406" y="188" width="92" height="22" rx="10" ry="10"></rect>
<text x="452" y="203">"DEFAULT"</text>
</g>
<path d="M498 199h10"></path>
<g>
<path d="M508 199h0"></path>
<path d="M648 199h0"></path>
<path d="M508 199h20"></path>
<g class="non-terminal">
<path d="M528 199h0"></path>
<path d="M612 199h16"></path>
<rect x="528" y="188" width="84" height="22"></rect>
<a xlink:href="reuse_constant.svg"><text x="570" y="203">Constant</text>
</a>
</g>
<path d="M628 199h20"></path>
<path d="M508 199a10 10 0 0 1 10 10v10a10 10 0 0 0 10 10"></path>
<g class="non-terminal">
<path d="M528 229h0"></path>
<path d="M628 229h0"></path>
<rect x="528" y="218" width="100" height="22"></rect>
<a xlink:href="reuse_fieldchain.svg"><text x="578" y="233">FieldChain</text>
</a>
</g>
<path d="M628 229a10 10 0 0 0 10 -10v-10a10 10 0 0 1 10 -10"></path>
</g>
</g>
<path d="M648 199h20"></path>
</g>
</g>
<path d="M668 199a10 10 0 0 0 10 -10v-139a10 10 0 0 1 10 -10"></path>
</g>
</g>
<path d="M688 40h20"></path>
<path d="M40 40a10 10 0 0 1 10 10v199a10 10 0 0 0 10 10"></path>
<g>
<path d="M60 259h0"></path>
<path d="M248 259h440"></path>
<g class="terminal">
<path d="M60 259h0"></path>
<path d="M128 259h0"></path>
<rect x="60" y="248" width="68" height="22" rx="10" ry="10"></rect>
<text x="94" y="263">"LIKE"</text>
</g>
<path d="M128 259h10"></path>
<path d="M138 259h10"></path>
<g class="non-terminal">
<path d="M148 259h0"></path>
<path d="M248 259h0"></path>
<rect x="148" y="248" width="100" height="22"></rect>
<a xlink:href="reuse_fieldchain.svg"><text x="198" y="263">FieldChain</text>
</a>
</g>
</g>
<path d="M688 259a10 10 0 0 0 10 -10v-199a10 10 0 0 1 10 -10"></path>
</g>
<path d="M 708 40 h 20 m 0 -10 v 20"></path>
</g>
</svg>
