<svg xmlns="http://www.w3.org/2000/svg" xmlns:xlink="http://www.w3.org/1999/xlink" class="railroad-diagram" width="624" height="62" viewBox="0 0 624 62">
<defs>
<style type="text/css"><![CDATA[
path {
stroke-width: 3;
stroke: black;
fill: rgba(0,0,0,0);
}
text {
font: bold 14px monospace;
text-anchor: middle;
}
text.diagram-text {
font-size: 12px;
}
a {
fill: blue;
}
text.diagram-arrow {
font-size: 16px;
}
text.label {
text-anchor: start;
}
text.comment {
font: italic 12px monospace;
}
rect {
stroke-width: 3;
stroke: black;
fill: #BCBCBC;
}
path.diagram-text {
stroke-width: 3;
stroke: black;
fill: #BCBCBC;
cursor: help;
}
]]></style>
</defs>
<g transform="translate(.5 .5)">
<path d="M 20 21 v 20 m 0 -10 h 20.5"></path>
<path d="M40 31h10"></path>
<g>
<path d="M50 31h0"></path>
<path d="M574 31h0"></path>
<g class="terminal">
<path d="M50 31h0"></path>
<path d="M126 31h0"></path>
<rect x="50" y="20" width="76" height="22" rx="10" ry="10"></rect>
<text x="88" y="35">"VALUE"</text>
</g>
<path d="M126 31h10"></path>
<path d="M136 31h10"></path>
<g class="terminal">
<path d="M146 31h0"></path>
<path d="M302 31h0"></path>
<rect x="146" y="20" width="156" height="22" rx="10" ry="10"></rect>
<text x="224" y="35">Token "ParenLeft"</text>
</g>
<path d="M302 31h10"></path>
<path d="M312 31h10"></path>
<g class="non-terminal">
<path d="M322 31h0"></path>
<path d="M382 31h0"></path>
<rect x="322" y="20" width="60" height="22"></rect>
<a xlink:href="reuse_field.svg"><text x="352" y="35">field</text>
</a>
</g>
<path d="M382 31h10"></path>
<path d="M392 31h10"></path>
<g class="terminal">
<path d="M402 31h0"></path>
<path d="M574 31h0"></path>
<rect x="402" y="20" width="172" height="22" rx="10" ry="10"></rect>
<text x="488" y="35">Token "ParenRightW"</text>
</g>
</g>
<path d="M574 31h10"></path>
<path d="M 584 31 h 20 m 0 -10 v 20"></path>
</g>
</svg>
