<svg xmlns="http://www.w3.org/2000/svg" xmlns:xlink="http://www.w3.org/1999/xlink" class="railroad-diagram" width="618" height="101" viewBox="0 0 618 101">
<defs>
<style type="text/css"><![CDATA[
path {
stroke-width: 3;
stroke: black;
fill: rgba(0,0,0,0);
}
text {
font: bold 14px monospace;
text-anchor: middle;
}
text.diagram-text {
font-size: 12px;
}
a {
fill: blue;
}
text.diagram-arrow {
font-size: 16px;
}
text.label {
text-anchor: start;
}
text.comment {
font: italic 12px monospace;
}
rect {
stroke-width: 3;
stroke: black;
fill: #BCBCBC;
}
path.diagram-text {
stroke-width: 3;
stroke: black;
fill: #BCBCBC;
cursor: help;
}
]]></style>
</defs>
<g transform="translate(.5 .5)">
<path d="M 20 30 v 20 m 0 -10 h 20.5"></path>
<path d="M40 40h10"></path>
<g>
<path d="M50 40h0"></path>
<path d="M568 40h0"></path>
<g class="terminal">
<path d="M50 40h0"></path>
<path d="M102 40h0"></path>
<rect x="50" y="29" width="52" height="22" rx="10" ry="10"></rect>
<text x="76" y="44">!"("</text>
</g>
<path d="M102 40h10"></path>
<path d="M112 40h10"></path>
<g class="terminal">
<path d="M122 40h0"></path>
<path d="M214 40h0"></path>
<rect x="122" y="29" width="92" height="22" rx="10" ry="10"></rect>
<text x="168" y="44">^&#91;\d\w&#93;+$</text>
</g>
<path d="M214 40h10"></path>
<g>
<path d="M224 40h0"></path>
<path d="M468 40h0"></path>
<path d="M224 40a10 10 0 0 0 10 -10v0a10 10 0 0 1 10 -10"></path>
<g>
<path d="M244 20h204"></path>
</g>
<path d="M448 20a10 10 0 0 1 10 10v0a10 10 0 0 0 10 10"></path>
<path d="M224 40h20"></path>
<g>
<path d="M244 40h0"></path>
<path d="M448 40h0"></path>
<g class="non-terminal">
<path d="M244 40h0"></path>
<path d="M368 40h0"></path>
<rect x="244" y="29" width="124" height="22"></rect>
<a xlink:href="reuse_arrow_or_dash.svg"><text x="306" y="44">arrow&#95;or&#95;dash</text>
</a>
</g>
<path d="M368 40h10"></path>
<path d="M378 40h10"></path>
<g class="non-terminal">
<path d="M388 40h0"></path>
<path d="M448 40h0"></path>
<rect x="388" y="29" width="60" height="22"></rect>
<a xlink:href="reuse_field.svg"><text x="418" y="44">field</text>
</a>
</g>
</g>
<path d="M448 40h20"></path>
</g>
<g>
<path d="M468 40h0"></path>
<path d="M568 40h0"></path>
<path d="M468 40h20"></path>
<g class="terminal">
<path d="M488 40h0"></path>
<path d="M548 40h0"></path>
<rect x="488" y="29" width="60" height="22" rx="10" ry="10"></rect>
<text x="518" y="44">!") "</text>
</g>
<path d="M548 40h20"></path>
<path d="M468 40a10 10 0 0 1 10 10v10a10 10 0 0 0 10 10"></path>
<g class="terminal">
<path d="M488 70h0"></path>
<path d="M540 70h8"></path>
<rect x="488" y="59" width="52" height="22" rx="10" ry="10"></rect>
<text x="514" y="74">!")"</text>
</g>
<path d="M548 70a10 10 0 0 0 10 -10v-10a10 10 0 0 1 10 -10"></path>
</g>
</g>
<path d="M568 40h10"></path>
<path d="M 578 40 h 20 m 0 -10 v 20"></path>
</g>
</svg>
