<svg xmlns="http://www.w3.org/2000/svg" xmlns:xlink="http://www.w3.org/1999/xlink" class="railroad-diagram" width="1124" height="148" viewBox="0 0 1124 148">
<defs>
<style type="text/css"><![CDATA[
path {
stroke-width: 3;
stroke: black;
fill: rgba(0,0,0,0);
}
text {
font: bold 14px monospace;
text-anchor: middle;
}
text.diagram-text {
font-size: 12px;
}
a {
fill: blue;
}
text.diagram-arrow {
font-size: 16px;
}
text.label {
text-anchor: start;
}
text.comment {
font: italic 12px monospace;
}
rect {
stroke-width: 3;
stroke: black;
fill: #BCBCBC;
}
path.diagram-text {
stroke-width: 3;
stroke: black;
fill: #BCBCBC;
cursor: help;
}
]]></style>
</defs>
<g transform="translate(.5 .5)">
<path d="M 20 30 v 20 m 0 -10 h 20.5"></path>
<path d="M40 40h10"></path>
<g>
<path d="M50 40h0"></path>
<path d="M1074 40h0"></path>
<g>
<path d="M50 40h0"></path>
<path d="M482 40h0"></path>
<path d="M50 40h20"></path>
<g class="non-terminal">
<path d="M70 40h0"></path>
<path d="M170 40h292"></path>
<rect x="70" y="29" width="100" height="22"></rect>
<a xlink:href="reuse_sqlcompare.svg"><text x="120" y="44">SQLCompare</text>
</a>
</g>
<path d="M462 40h20"></path>
<path d="M50 40a10 10 0 0 1 10 10v19a10 10 0 0 0 10 10"></path>
<g>
<path d="M70 79h0"></path>
<path d="M462 79h0"></path>
<g>
<path d="M70 79h0"></path>
<path d="M170 79h0"></path>
<path d="M70 79a10 10 0 0 0 10 -10v0a10 10 0 0 1 10 -10"></path>
<g>
<path d="M90 59h60"></path>
</g>
<path d="M150 59a10 10 0 0 1 10 10v0a10 10 0 0 0 10 10"></path>
<path d="M70 79h20"></path>
<g class="terminal">
<path d="M90 79h0"></path>
<path d="M150 79h0"></path>
<rect x="90" y="68" width="60" height="22" rx="10" ry="10"></rect>
<text x="120" y="83">"NOT"</text>
</g>
<path d="M150 79h20"></path>
</g>
<path d="M170 79h10"></path>
<g class="terminal">
<path d="M180 79h0"></path>
<path d="M248 79h0"></path>
<rect x="180" y="68" width="68" height="22" rx="10" ry="10"></rect>
<text x="214" y="83">!" ( "</text>
</g>
<path d="M248 79h10"></path>
<path d="M258 79h10"></path>
<g class="non-terminal">
<path d="M268 79h0"></path>
<path d="M344 79h0"></path>
<rect x="268" y="68" width="76" height="22"></rect>
<a xlink:href="reuse_sqlcond.svg"><text x="306" y="83">SQLCond</text>
</a>
</g>
<path d="M344 79h10"></path>
<g>
<path d="M354 79h0"></path>
<path d="M462 79h0"></path>
<path d="M354 79h20"></path>
<g class="terminal">
<path d="M374 79h0"></path>
<path d="M442 79h0"></path>
<rect x="374" y="68" width="68" height="22" rx="10" ry="10"></rect>
<text x="408" y="83">!" ) "</text>
</g>
<path d="M442 79h20"></path>
<path d="M354 79a10 10 0 0 1 10 10v10a10 10 0 0 0 10 10"></path>
<g class="terminal">
<path d="M374 109h0"></path>
<path d="M434 109h8"></path>
<rect x="374" y="98" width="60" height="22" rx="10" ry="10"></rect>
<text x="404" y="113">!" )"</text>
</g>
<path d="M442 109a10 10 0 0 0 10 -10v-10a10 10 0 0 1 10 -10"></path>
</g>
</g>
<path d="M462 79a10 10 0 0 0 10 -10v-19a10 10 0 0 1 10 -10"></path>
</g>
<g>
<path d="M482 40h0"></path>
<path d="M1074 40h0"></path>
<path d="M482 40a10 10 0 0 0 10 -10v0a10 10 0 0 1 10 -10"></path>
<g>
<path d="M502 20h552"></path>
</g>
<path d="M1054 20a10 10 0 0 1 10 10v0a10 10 0 0 0 10 10"></path>
<path d="M482 40h20"></path>
<g>
<path d="M502 40h0"></path>
<path d="M1054 40h0"></path>
<path d="M502 40h10"></path>
<g>
<path d="M512 40h0"></path>
<path d="M1044 40h0"></path>
<g>
<path d="M512 40h0"></path>
<path d="M612 40h0"></path>
<path d="M512 40h20"></path>
<g class="terminal">
<path d="M532 40h0"></path>
<path d="M592 40h0"></path>
<rect x="532" y="29" width="60" height="22" rx="10" ry="10"></rect>
<text x="562" y="44">"AND"</text>
</g>
<path d="M592 40h20"></path>
<path d="M512 40a10 10 0 0 1 10 10v10a10 10 0 0 0 10 10"></path>
<g class="terminal">
<path d="M532 70h0"></path>
<path d="M584 70h8"></path>
<rect x="532" y="59" width="52" height="22" rx="10" ry="10"></rect>
<text x="558" y="74">"OR"</text>
</g>
<path d="M592 70a10 10 0 0 0 10 -10v-10a10 10 0 0 1 10 -10"></path>
</g>
<g>
<path d="M612 40h0"></path>
<path d="M1044 40h0"></path>
<path d="M612 40h20"></path>
<g class="non-terminal">
<path d="M632 40h0"></path>
<path d="M732 40h292"></path>
<rect x="632" y="29" width="100" height="22"></rect>
<a xlink:href="reuse_sqlcompare.svg"><text x="682" y="44">SQLCompare</text>
</a>
</g>
<path d="M1024 40h20"></path>
<path d="M612 40a10 10 0 0 1 10 10v19a10 10 0 0 0 10 10"></path>
<g>
<path d="M632 79h0"></path>
<path d="M1024 79h0"></path>
<g>
<path d="M632 79h0"></path>
<path d="M732 79h0"></path>
<path d="M632 79a10 10 0 0 0 10 -10v0a10 10 0 0 1 10 -10"></path>
<g>
<path d="M652 59h60"></path>
</g>
<path d="M712 59a10 10 0 0 1 10 10v0a10 10 0 0 0 10 10"></path>
<path d="M632 79h20"></path>
<g class="terminal">
<path d="M652 79h0"></path>
<path d="M712 79h0"></path>
<rect x="652" y="68" width="60" height="22" rx="10" ry="10"></rect>
<text x="682" y="83">"NOT"</text>
</g>
<path d="M712 79h20"></path>
</g>
<path d="M732 79h10"></path>
<g class="terminal">
<path d="M742 79h0"></path>
<path d="M810 79h0"></path>
<rect x="742" y="68" width="68" height="22" rx="10" ry="10"></rect>
<text x="776" y="83">!" ( "</text>
</g>
<path d="M810 79h10"></path>
<path d="M820 79h10"></path>
<g class="non-terminal">
<path d="M830 79h0"></path>
<path d="M906 79h0"></path>
<rect x="830" y="68" width="76" height="22"></rect>
<a xlink:href="reuse_sqlcond.svg"><text x="868" y="83">SQLCond</text>
</a>
</g>
<path d="M906 79h10"></path>
<g>
<path d="M916 79h0"></path>
<path d="M1024 79h0"></path>
<path d="M916 79h20"></path>
<g class="terminal">
<path d="M936 79h0"></path>
<path d="M1004 79h0"></path>
<rect x="936" y="68" width="68" height="22" rx="10" ry="10"></rect>
<text x="970" y="83">!" ) "</text>
</g>
<path d="M1004 79h20"></path>
<path d="M916 79a10 10 0 0 1 10 10v10a10 10 0 0 0 10 10"></path>
<g class="terminal">
<path d="M936 109h0"></path>
<path d="M996 109h8"></path>
<rect x="936" y="98" width="60" height="22" rx="10" ry="10"></rect>
<text x="966" y="113">!" )"</text>
</g>
<path d="M1004 109a10 10 0 0 0 10 -10v-10a10 10 0 0 1 10 -10"></path>
</g>
</g>
<path d="M1024 79a10 10 0 0 0 10 -10v-19a10 10 0 0 1 10 -10"></path>
</g>
</g>
<path d="M1044 40h10"></path>
<path d="M512 40a10 10 0 0 0 -10 10v68a10 10 0 0 0 10 10"></path>
<g>
<path d="M512 128h532"></path>
</g>
<path d="M1044 128a10 10 0 0 0 10 -10v-68a10 10 0 0 0 -10 -10"></path>
</g>
<path d="M1054 40h20"></path>
</g>
</g>
<path d="M1074 40h10"></path>
<path d="M 1084 40 h 20 m 0 -10 v 20"></path>
</g>
</svg>
