<?xml version="1.0" encoding="UTF-8" standalone="no"?>
<!DOCTYPE svg PUBLIC "-//W3C//DTD SVG 1.1//EN"
 "http://www.w3.org/Graphics/SVG/1.1/DTD/svg11.dtd">
<!-- Generated by graphviz version 2.38.0 (20140413.2041)
 -->
<!-- Title: integer Pages: 1 -->
<svg width="75pt" height="188pt"
 viewBox="0.00 0.00 74.70 188.00" xmlns="http://www.w3.org/2000/svg" xmlns:xlink="http://www.w3.org/1999/xlink">
<g id="graph0" class="graph" transform="scale(1 1) rotate(0) translate(4 184)">
<title>integer</title>
<polygon fill="white" stroke="none" points="-4,4 -4,-184 70.7016,-184 70.7016,4 -4,4"/>
<!-- start -->
<g id="node1" class="node"><title>start</title>
<polygon fill="none" stroke="blue" points="60.3508,-180 6.35081,-180 6.35081,-144 60.3508,-144 60.3508,-180"/>
<text text-anchor="middle" x="33.3508" y="-157.8" font-family="Times,serif" font-size="14.00">Start</text>
</g>
<!-- node1 -->
<g id="node3" class="node"><title>node1</title>
<ellipse fill="none" stroke="black" cx="33.3508" cy="-90" rx="33.2023" ry="18"/>
<text text-anchor="middle" x="33.3508" y="-85.8" font-family="Times,serif" font-size="14.00">^\d+$</text>
</g>
<!-- start&#45;&gt;node1 -->
<g id="edge2" class="edge"><title>start&#45;&gt;node1</title>
<path fill="none" stroke="black" d="M33.3508,-143.697C33.3508,-135.983 33.3508,-126.712 33.3508,-118.112"/>
<polygon fill="black" stroke="black" points="36.8509,-118.104 33.3508,-108.104 29.8509,-118.104 36.8509,-118.104"/>
</g>
<!-- end -->
<g id="node2" class="node"><title>end</title>
<polygon fill="none" stroke="blue" points="60.3508,-36 6.35081,-36 6.35081,-0 60.3508,-0 60.3508,-36"/>
<text text-anchor="middle" x="33.3508" y="-13.8" font-family="Times,serif" font-size="14.00">End</text>
</g>
<!-- node1&#45;&gt;end -->
<g id="edge1" class="edge"><title>node1&#45;&gt;end</title>
<path fill="none" stroke="black" d="M33.3508,-71.6966C33.3508,-63.9827 33.3508,-54.7125 33.3508,-46.1124"/>
<polygon fill="black" stroke="black" points="36.8509,-46.1043 33.3508,-36.1043 29.8509,-46.1044 36.8509,-46.1043"/>
</g>
</g>
</svg>
