<svg xmlns="http://www.w3.org/2000/svg" xmlns:xlink="http://www.w3.org/1999/xlink" class="railroad-diagram" width="552" height="122" viewBox="0 0 552 122">
<defs>
<style type="text/css"><![CDATA[
path {
stroke-width: 3;
stroke: black;
fill: rgba(0,0,0,0);
}
text {
font: bold 14px monospace;
text-anchor: middle;
}
text.diagram-text {
font-size: 12px;
}
a {
fill: blue;
}
text.diagram-arrow {
font-size: 16px;
}
text.label {
text-anchor: start;
}
text.comment {
font: italic 12px monospace;
}
rect {
stroke-width: 3;
stroke: black;
fill: #BCBCBC;
}
path.diagram-text {
stroke-width: 3;
stroke: black;
fill: #BCBCBC;
cursor: help;
}
]]></style>
</defs>
<g transform="translate(.5 .5)">
<path d="M 20 21 v 20 m 0 -10 h 20.5"></path>
<path d="M40 31h10"></path>
<g>
<path d="M50 31h0"></path>
<path d="M502 31h0"></path>
<g class="non-terminal">
<path d="M50 31h0"></path>
<path d="M150 31h0"></path>
<rect x="50" y="20" width="100" height="22"></rect>
<a xlink:href="reuse_methodname.svg"><text x="100" y="35">MethodName</text>
</a>
</g>
<path d="M150 31h10"></path>
<g>
<path d="M160 31h0"></path>
<path d="M260 31h0"></path>
<path d="M160 31h20"></path>
<g class="terminal">
<path d="M180 31h0"></path>
<path d="M240 31h0"></path>
<rect x="180" y="20" width="60" height="22" rx="10" ry="10"></rect>
<text x="210" y="35">!"( "</text>
</g>
<path d="M240 31h20"></path>
<path d="M160 31a10 10 0 0 1 10 10v10a10 10 0 0 0 10 10"></path>
<g class="terminal">
<path d="M180 61h0"></path>
<path d="M232 61h8"></path>
<rect x="180" y="50" width="52" height="22" rx="10" ry="10"></rect>
<text x="206" y="65">!"("</text>
</g>
<path d="M240 61a10 10 0 0 0 10 -10v-10a10 10 0 0 1 10 -10"></path>
</g>
<g>
<path d="M260 31h0"></path>
<path d="M448 31h0"></path>
<path d="M260 31h20"></path>
<g class="non-terminal">
<path d="M280 31h0"></path>
<path d="M348 31h80"></path>
<rect x="280" y="20" width="68" height="22"></rect>
<a xlink:href="reuse_source.svg"><text x="314" y="35">Source</text>
</a>
</g>
<path d="M428 31h20"></path>
<path d="M260 31a10 10 0 0 1 10 10v10a10 10 0 0 0 10 10"></path>
<g class="non-terminal">
<path d="M280 61h0"></path>
<path d="M412 61h16"></path>
<rect x="280" y="50" width="132" height="22"></rect>
<a xlink:href="reuse_parameterlists.svg"><text x="346" y="65">ParameterListS</text>
</a>
</g>
<path d="M428 61a10 10 0 0 0 10 -10v-10a10 10 0 0 1 10 -10"></path>
<path d="M260 31a10 10 0 0 1 10 10v40a10 10 0 0 0 10 10"></path>
<g class="non-terminal">
<path d="M280 91h0"></path>
<path d="M428 91h0"></path>
<rect x="280" y="80" width="148" height="22"></rect>
<a xlink:href="reuse_methodparameters.svg"><text x="354" y="95">MethodParameters</text>
</a>
</g>
<path d="M428 91a10 10 0 0 0 10 -10v-40a10 10 0 0 1 10 -10"></path>
</g>
<path d="M448 31h10"></path>
<g class="terminal">
<path d="M458 31h0"></path>
<path d="M502 31h0"></path>
<rect x="458" y="20" width="44" height="22" rx="10" ry="10"></rect>
<text x="480" y="35">")"</text>
</g>
</g>
<path d="M502 31h10"></path>
<path d="M 512 31 h 20 m 0 -10 v 20"></path>
</g>
</svg>
