<?xml version="1.0" encoding="UTF-8" standalone="no"?>
<!DOCTYPE svg PUBLIC "-//W3C//DTD SVG 1.1//EN"
 "http://www.w3.org/Graphics/SVG/1.1/DTD/svg11.dtd">
<!-- Generated by graphviz version 2.38.0 (20140413.2041)
 -->
<!-- Title: rollback Pages: 1 -->
<svg width="214pt" height="188pt"
 viewBox="0.00 0.00 213.72 188.00" xmlns="http://www.w3.org/2000/svg" xmlns:xlink="http://www.w3.org/1999/xlink">
<g id="graph0" class="graph" transform="scale(1 1) rotate(0) translate(4 184)">
<title>rollback</title>
<polygon fill="white" stroke="none" points="-4,4 -4,-184 209.721,-184 209.721,4 -4,4"/>
<!-- start -->
<g id="node1" class="node"><title>start</title>
<polygon fill="none" stroke="black" points="129.861,-180 75.8605,-180 75.8605,-144 129.861,-144 129.861,-180"/>
<text text-anchor="middle" x="102.861" y="-157.8" font-family="Times,serif" font-size="14.00">Start</text>
</g>
<!-- node387 -->
<g id="node3" class="node"><title>node387</title>
<ellipse fill="none" stroke="black" cx="102.861" cy="-90" rx="102.721" ry="18"/>
<text text-anchor="middle" x="102.861" y="-85.8" font-family="Times,serif" font-size="14.00">&quot;ROLLBACK WORK&quot;</text>
</g>
<!-- start&#45;&gt;node387 -->
<g id="edge2" class="edge"><title>start&#45;&gt;node387</title>
<path fill="none" stroke="black" d="M102.861,-143.697C102.861,-135.983 102.861,-126.712 102.861,-118.112"/>
<polygon fill="black" stroke="black" points="106.361,-118.104 102.861,-108.104 99.3606,-118.104 106.361,-118.104"/>
</g>
<!-- end -->
<g id="node2" class="node"><title>end</title>
<polygon fill="none" stroke="black" points="129.861,-36 75.8605,-36 75.8605,-0 129.861,-0 129.861,-36"/>
<text text-anchor="middle" x="102.861" y="-13.8" font-family="Times,serif" font-size="14.00">End</text>
</g>
<!-- node387&#45;&gt;end -->
<g id="edge1" class="edge"><title>node387&#45;&gt;end</title>
<path fill="none" stroke="black" d="M102.861,-71.6966C102.861,-63.9827 102.861,-54.7125 102.861,-46.1124"/>
<polygon fill="black" stroke="black" points="106.361,-46.1043 102.861,-36.1043 99.3606,-46.1044 106.361,-46.1043"/>
</g>
</g>
</svg>
