<svg xmlns="http://www.w3.org/2000/svg" xmlns:xlink="http://www.w3.org/1999/xlink" class="railroad-diagram" width="492" height="122" viewBox="0 0 492 122">
<defs>
<style type="text/css"><![CDATA[
path {
stroke-width: 3;
stroke: black;
fill: rgba(0,0,0,0);
}
text {
font: bold 14px monospace;
text-anchor: middle;
}
text.diagram-text {
font-size: 12px;
}
a {
fill: blue;
}
text.diagram-arrow {
font-size: 16px;
}
text.label {
text-anchor: start;
}
text.comment {
font: italic 12px monospace;
}
rect {
stroke-width: 3;
stroke: black;
fill: #BCBCBC;
}
path.diagram-text {
stroke-width: 3;
stroke: black;
fill: #BCBCBC;
cursor: help;
}
]]></style>
</defs>
<g transform="translate(.5 .5)">
<path d="M 20 21 v 20 m 10 -20 v 20 m -10 -10 h 20.5"></path>
<path d="M40 31h10"></path>
<g>
<path d="M50 31h0"></path>
<path d="M442 31h0"></path>
<g class="terminal">
<path d="M50 31h0"></path>
<path d="M150 31h0"></path>
<rect x="50" y="20" width="100" height="22" rx="10" ry="10"></rect>
<text x="100" y="35">"ROLLBACK"</text>
</g>
<path d="M150 31h10"></path>
<g>
<path d="M160 31h0"></path>
<path d="M442 31h0"></path>
<path d="M160 31h20"></path>
<g class="terminal">
<path d="M180 31h0"></path>
<path d="M248 31h174"></path>
<rect x="180" y="20" width="68" height="22" rx="10" ry="10"></rect>
<text x="214" y="35">"WORK"</text>
</g>
<path d="M422 31h20"></path>
<path d="M160 31a10 10 0 0 1 10 10v10a10 10 0 0 0 10 10"></path>
<g>
<path d="M180 61h0"></path>
<path d="M422 61h0"></path>
<g class="terminal">
<path d="M180 61h0"></path>
<path d="M296 61h0"></path>
<rect x="180" y="50" width="116" height="22" rx="10" ry="10"></rect>
<text x="238" y="65">"CONNECTION"</text>
</g>
<path d="M296 61h10"></path>
<g>
<path d="M306 61h0"></path>
<path d="M422 61h0"></path>
<path d="M306 61h20"></path>
<g class="non-terminal">
<path d="M326 61h0"></path>
<path d="M402 61h0"></path>
<rect x="326" y="50" width="76" height="22"></rect>
<a xlink:href="reuse_dynamic.svg"><text x="364" y="65">Dynamic</text>
</a>
</g>
<path d="M402 61h20"></path>
<path d="M306 61a10 10 0 0 1 10 10v10a10 10 0 0 0 10 10"></path>
<g class="non-terminal">
<path d="M326 91h0"></path>
<path d="M386 91h16"></path>
<rect x="326" y="80" width="60" height="22"></rect>
<a xlink:href="reuse_field.svg"><text x="356" y="95">Field</text>
</a>
</g>
<path d="M402 91a10 10 0 0 0 10 -10v-10a10 10 0 0 1 10 -10"></path>
</g>
</g>
<path d="M422 61a10 10 0 0 0 10 -10v-10a10 10 0 0 1 10 -10"></path>
</g>
</g>
<path d="M442 31h10"></path>
<path d="M 452 31 h 20 m -10 -10 v 20 m 10 -20 v 20"></path>
</g>
</svg>
