<svg xmlns="http://www.w3.org/2000/svg" xmlns:xlink="http://www.w3.org/1999/xlink" class="railroad-diagram" width="2006" height="71" viewBox="0 0 2006 71">
<defs>
<style type="text/css"><![CDATA[
path {
stroke-width: 3;
stroke: black;
fill: rgba(0,0,0,0);
}
text {
font: bold 14px monospace;
text-anchor: middle;
}
text.diagram-text {
font-size: 12px;
}
a {
fill: blue;
}
text.diagram-arrow {
font-size: 16px;
}
text.label {
text-anchor: start;
}
text.comment {
font: italic 12px monospace;
}
rect {
stroke-width: 3;
stroke: black;
fill: #BCBCBC;
}
path.diagram-text {
stroke-width: 3;
stroke: black;
fill: #BCBCBC;
cursor: help;
}
]]></style>
</defs>
<g transform="translate(.5 .5)">
<path d="M 20 30 v 20 m 10 -20 v 20 m -10 -10 h 20.5"></path>
<path d="M40 40h10"></path>
<g>
<path d="M50 40h0"></path>
<path d="M1956 40h0"></path>
<g class="terminal">
<path d="M50 40h0"></path>
<path d="M214 40h0"></path>
<rect x="50" y="29" width="164" height="22" rx="10" ry="10"></rect>
<text x="132" y="44">"SCAN ABAP-SOURCE"</text>
</g>
<path d="M214 40h10"></path>
<path d="M224 40h10"></path>
<g class="non-terminal">
<path d="M234 40h0"></path>
<path d="M302 40h0"></path>
<rect x="234" y="29" width="68" height="22"></rect>
<a xlink:href="reuse_source.svg"><text x="268" y="44">source</text>
</a>
</g>
<path d="M302 40h10"></path>
<path d="M312 40h10"></path>
<g>
<path d="M322 40h0"></path>
<path d="M534 40h0"></path>
<g class="terminal">
<path d="M322 40h0"></path>
<path d="M446 40h0"></path>
<rect x="322" y="29" width="124" height="22" rx="10" ry="10"></rect>
<text x="384" y="44">"TOKENS INTO"</text>
</g>
<path d="M446 40h10"></path>
<path d="M456 40h10"></path>
<g class="non-terminal">
<path d="M466 40h0"></path>
<path d="M534 40h0"></path>
<rect x="466" y="29" width="68" height="22"></rect>
<a xlink:href="reuse_target.svg"><text x="500" y="44">target</text>
</a>
</g>
</g>
<path d="M534 40h10"></path>
<path d="M544 40h10"></path>
<g>
<path d="M554 40h0"></path>
<path d="M798 40h0"></path>
<g class="terminal">
<path d="M554 40h0"></path>
<path d="M710 40h0"></path>
<rect x="554" y="29" width="156" height="22" rx="10" ry="10"></rect>
<text x="632" y="44">"STATEMENTS INTO"</text>
</g>
<path d="M710 40h10"></path>
<path d="M720 40h10"></path>
<g class="non-terminal">
<path d="M730 40h0"></path>
<path d="M798 40h0"></path>
<rect x="730" y="29" width="68" height="22"></rect>
<a xlink:href="reuse_target.svg"><text x="764" y="44">target</text>
</a>
</g>
</g>
<path d="M798 40h10"></path>
<g>
<path d="M808 40h0"></path>
<path d="M1060 40h0"></path>
<path d="M808 40a10 10 0 0 0 10 -10v0a10 10 0 0 1 10 -10"></path>
<g>
<path d="M828 20h212"></path>
</g>
<path d="M1040 20a10 10 0 0 1 10 10v0a10 10 0 0 0 10 10"></path>
<path d="M808 40h20"></path>
<g>
<path d="M828 40h0"></path>
<path d="M1040 40h0"></path>
<g class="terminal">
<path d="M828 40h0"></path>
<path d="M952 40h0"></path>
<rect x="828" y="29" width="124" height="22" rx="10" ry="10"></rect>
<text x="890" y="44">"LEVELS INTO"</text>
</g>
<path d="M952 40h10"></path>
<path d="M962 40h10"></path>
<g class="non-terminal">
<path d="M972 40h0"></path>
<path d="M1040 40h0"></path>
<rect x="972" y="29" width="68" height="22"></rect>
<a xlink:href="reuse_target.svg"><text x="1006" y="44">target</text>
</a>
</g>
</g>
<path d="M1040 40h20"></path>
</g>
<g>
<path d="M1060 40h0"></path>
<path d="M1344 40h0"></path>
<path d="M1060 40a10 10 0 0 0 10 -10v0a10 10 0 0 1 10 -10"></path>
<g>
<path d="M1080 20h244"></path>
</g>
<path d="M1324 20a10 10 0 0 1 10 10v0a10 10 0 0 0 10 10"></path>
<path d="M1060 40h20"></path>
<g>
<path d="M1080 40h0"></path>
<path d="M1324 40h0"></path>
<g class="terminal">
<path d="M1080 40h0"></path>
<path d="M1236 40h0"></path>
<rect x="1080" y="29" width="156" height="22" rx="10" ry="10"></rect>
<text x="1158" y="44">"STRUCTURES INTO"</text>
</g>
<path d="M1236 40h10"></path>
<path d="M1246 40h10"></path>
<g class="non-terminal">
<path d="M1256 40h0"></path>
<path d="M1324 40h0"></path>
<rect x="1256" y="29" width="68" height="22"></rect>
<a xlink:href="reuse_target.svg"><text x="1290" y="44">target</text>
</a>
</g>
</g>
<path d="M1324 40h20"></path>
</g>
<g>
<path d="M1344 40h0"></path>
<path d="M1524 40h0"></path>
<path d="M1344 40a10 10 0 0 0 10 -10v0a10 10 0 0 1 10 -10"></path>
<g>
<path d="M1364 20h140"></path>
</g>
<path d="M1504 20a10 10 0 0 1 10 10v0a10 10 0 0 0 10 10"></path>
<path d="M1344 40h20"></path>
<g class="terminal">
<path d="M1364 40h0"></path>
<path d="M1504 40h0"></path>
<rect x="1364" y="29" width="140" height="22" rx="10" ry="10"></rect>
<text x="1434" y="44">"WITH ANALYSIS"</text>
</g>
<path d="M1504 40h20"></path>
</g>
<g>
<path d="M1524 40h0"></path>
<path d="M1704 40h0"></path>
<path d="M1524 40a10 10 0 0 0 10 -10v0a10 10 0 0 1 10 -10"></path>
<g>
<path d="M1544 20h140"></path>
</g>
<path d="M1684 20a10 10 0 0 1 10 10v0a10 10 0 0 0 10 10"></path>
<path d="M1524 40h20"></path>
<g class="terminal">
<path d="M1544 40h0"></path>
<path d="M1684 40h0"></path>
<rect x="1544" y="29" width="140" height="22" rx="10" ry="10"></rect>
<text x="1614" y="44">"WITH COMMENTS"</text>
</g>
<path d="M1684 40h20"></path>
</g>
<g>
<path d="M1704 40h0"></path>
<path d="M1956 40h0"></path>
<path d="M1704 40a10 10 0 0 0 10 -10v0a10 10 0 0 1 10 -10"></path>
<g>
<path d="M1724 20h212"></path>
</g>
<path d="M1936 20a10 10 0 0 1 10 10v0a10 10 0 0 0 10 10"></path>
<path d="M1704 40h20"></path>
<g>
<path d="M1724 40h0"></path>
<path d="M1936 40h0"></path>
<g class="terminal">
<path d="M1724 40h0"></path>
<path d="M1856 40h0"></path>
<rect x="1724" y="29" width="132" height="22" rx="10" ry="10"></rect>
<text x="1790" y="44">"WITH PRAGMAS"</text>
</g>
<path d="M1856 40h10"></path>
<path d="M1866 40h10"></path>
<g class="non-terminal">
<path d="M1876 40h0"></path>
<path d="M1936 40h0"></path>
<rect x="1876" y="29" width="60" height="22"></rect>
<a xlink:href="reuse_field.svg"><text x="1906" y="44">field</text>
</a>
</g>
</g>
<path d="M1936 40h20"></path>
</g>
</g>
<path d="M1956 40h10"></path>
<path d="M 1966 40 h 20 m -10 -10 v 20 m 10 -20 v 20"></path>
</g>
</svg>
