<svg xmlns="http://www.w3.org/2000/svg" xmlns:xlink="http://www.w3.org/1999/xlink" class="railroad-diagram" width="726" height="632" viewBox="0 0 726 632">
<defs>
<style type="text/css"><![CDATA[
path {
stroke-width: 3;
stroke: black;
fill: rgba(0,0,0,0);
}
text {
font: bold 14px monospace;
text-anchor: middle;
}
text.diagram-text {
font-size: 12px;
}
a {
fill: blue;
}
text.diagram-arrow {
font-size: 16px;
}
text.label {
text-anchor: start;
}
text.comment {
font: italic 12px monospace;
}
rect {
stroke-width: 3;
stroke: black;
fill: #BCBCBC;
}
path.diagram-text {
stroke-width: 3;
stroke: black;
fill: #BCBCBC;
cursor: help;
}
]]></style>
</defs>
<g transform="translate(.5 .5)">
<path d="M 20 21 v 20 m 10 -20 v 20 m -10 -10 h 20.5"></path>
<path d="M40 31h10"></path>
<g>
<path d="M50 31h0"></path>
<path d="M676 31h0"></path>
<g class="terminal">
<path d="M50 31h0"></path>
<path d="M214 31h0"></path>
<rect x="50" y="20" width="164" height="22" rx="10" ry="10"></rect>
<text x="132" y="35">"SCAN ABAP-SOURCE"</text>
</g>
<path d="M214 31h10"></path>
<path d="M224 31h10"></path>
<g class="non-terminal">
<path d="M234 31h0"></path>
<path d="M302 31h0"></path>
<rect x="234" y="20" width="68" height="22"></rect>
<a xlink:href="reuse_source.svg"><text x="268" y="35">Source</text>
</a>
</g>
<path d="M302 31h10"></path>
<path d="M312 31h10"></path>
<g>
<path d="M322 31h0"></path>
<path d="M676 31h0"></path>
<path d="M352 31h10"></path>
<g>
<path d="M362 31h0"></path>
<path d="M574 31h72"></path>
<g class="terminal">
<path d="M362 31h0"></path>
<path d="M486 31h0"></path>
<rect x="362" y="20" width="124" height="22" rx="10" ry="10"></rect>
<text x="424" y="35">"TOKENS INTO"</text>
</g>
<path d="M486 31h10"></path>
<path d="M496 31h10"></path>
<g class="non-terminal">
<path d="M506 31h0"></path>
<path d="M574 31h0"></path>
<rect x="506" y="20" width="68" height="22"></rect>
<a xlink:href="reuse_target.svg"><text x="540" y="35">Target</text>
</a>
</g>
</g>
<path d="M646 31h10"></path>
<path d="M352 31v20a10 10 0 0 0 10 10"></path>
<g>
<path d="M362 61h0"></path>
<path d="M574 61h72"></path>
<g class="terminal">
<path d="M362 61h0"></path>
<path d="M486 61h0"></path>
<rect x="362" y="50" width="124" height="22" rx="10" ry="10"></rect>
<text x="424" y="65">"LEVELS INTO"</text>
</g>
<path d="M486 61h10"></path>
<path d="M496 61h10"></path>
<g class="non-terminal">
<path d="M506 61h0"></path>
<path d="M574 61h0"></path>
<rect x="506" y="50" width="68" height="22"></rect>
<a xlink:href="reuse_target.svg"><text x="540" y="65">Target</text>
</a>
</g>
</g>
<path d="M646 61a10 10 0 0 0 10 -10v-20"></path>
<path d="M352 31v50a10 10 0 0 0 10 10"></path>
<g>
<path d="M362 91h0"></path>
<path d="M606 91h40"></path>
<g class="terminal">
<path d="M362 91h0"></path>
<path d="M518 91h0"></path>
<rect x="362" y="80" width="156" height="22" rx="10" ry="10"></rect>
<text x="440" y="95">"STATEMENTS INTO"</text>
</g>
<path d="M518 91h10"></path>
<path d="M528 91h10"></path>
<g class="non-terminal">
<path d="M538 91h0"></path>
<path d="M606 91h0"></path>
<rect x="538" y="80" width="68" height="22"></rect>
<a xlink:href="reuse_target.svg"><text x="572" y="95">Target</text>
</a>
</g>
</g>
<path d="M646 91a10 10 0 0 0 10 -10v-50"></path>
<path d="M352 31v80a10 10 0 0 0 10 10"></path>
<g>
<path d="M362 121h0"></path>
<path d="M606 121h40"></path>
<g class="terminal">
<path d="M362 121h0"></path>
<path d="M518 121h0"></path>
<rect x="362" y="110" width="156" height="22" rx="10" ry="10"></rect>
<text x="440" y="125">"STRUCTURES INTO"</text>
</g>
<path d="M518 121h10"></path>
<path d="M528 121h10"></path>
<g class="non-terminal">
<path d="M538 121h0"></path>
<path d="M606 121h0"></path>
<rect x="538" y="110" width="68" height="22"></rect>
<a xlink:href="reuse_target.svg"><text x="572" y="125">Target</text>
</a>
</g>
</g>
<path d="M646 121a10 10 0 0 0 10 -10v-80"></path>
<path d="M352 31v110a10 10 0 0 0 10 10"></path>
<g>
<path d="M362 151h0"></path>
<path d="M590 151h56"></path>
<g class="terminal">
<path d="M362 151h0"></path>
<path d="M502 151h0"></path>
<rect x="362" y="140" width="140" height="22" rx="10" ry="10"></rect>
<text x="432" y="155">"KEYWORDS FROM"</text>
</g>
<path d="M502 151h10"></path>
<path d="M512 151h10"></path>
<g class="non-terminal">
<path d="M522 151h0"></path>
<path d="M590 151h0"></path>
<rect x="522" y="140" width="68" height="22"></rect>
<a xlink:href="reuse_source.svg"><text x="556" y="155">Source</text>
</a>
</g>
</g>
<path d="M646 151a10 10 0 0 0 10 -10v-110"></path>
<path d="M352 31v140a10 10 0 0 0 10 10"></path>
<g>
<path d="M362 181h0"></path>
<path d="M558 181h88"></path>
<g class="terminal">
<path d="M362 181h0"></path>
<path d="M470 181h0"></path>
<rect x="362" y="170" width="108" height="22" rx="10" ry="10"></rect>
<text x="416" y="185">"WORD INTO"</text>
</g>
<path d="M470 181h10"></path>
<path d="M480 181h10"></path>
<g class="non-terminal">
<path d="M490 181h0"></path>
<path d="M558 181h0"></path>
<rect x="490" y="170" width="68" height="22"></rect>
<a xlink:href="reuse_target.svg"><text x="524" y="185">Target</text>
</a>
</g>
</g>
<path d="M646 181a10 10 0 0 0 10 -10v-140"></path>
<path d="M352 31v170a10 10 0 0 0 10 10"></path>
<g>
<path d="M362 211h0"></path>
<path d="M558 211h88"></path>
<g class="terminal">
<path d="M362 211h0"></path>
<path d="M470 211h0"></path>
<rect x="362" y="200" width="108" height="22" rx="10" ry="10"></rect>
<text x="416" y="215">"LINE INTO"</text>
</g>
<path d="M470 211h10"></path>
<path d="M480 211h10"></path>
<g class="non-terminal">
<path d="M490 211h0"></path>
<path d="M558 211h0"></path>
<rect x="490" y="200" width="68" height="22"></rect>
<a xlink:href="reuse_target.svg"><text x="524" y="215">Target</text>
</a>
</g>
</g>
<path d="M646 211a10 10 0 0 0 10 -10v-170"></path>
<path d="M352 31v200a10 10 0 0 0 10 10"></path>
<g>
<path d="M362 241h0"></path>
<path d="M590 241h56"></path>
<g class="terminal">
<path d="M362 241h0"></path>
<path d="M502 241h0"></path>
<rect x="362" y="230" width="140" height="22" rx="10" ry="10"></rect>
<text x="432" y="245">"OVERFLOW INTO"</text>
</g>
<path d="M502 241h10"></path>
<path d="M512 241h10"></path>
<g class="non-terminal">
<path d="M522 241h0"></path>
<path d="M590 241h0"></path>
<rect x="522" y="230" width="68" height="22"></rect>
<a xlink:href="reuse_target.svg"><text x="556" y="245">Target</text>
</a>
</g>
</g>
<path d="M646 241a10 10 0 0 0 10 -10v-200"></path>
<path d="M352 31v230a10 10 0 0 0 10 10"></path>
<g>
<path d="M362 271h0"></path>
<path d="M582 271h64"></path>
<g class="terminal">
<path d="M362 271h0"></path>
<path d="M494 271h0"></path>
<rect x="362" y="260" width="132" height="22" rx="10" ry="10"></rect>
<text x="428" y="275">"MESSAGE INTO"</text>
</g>
<path d="M494 271h10"></path>
<path d="M504 271h10"></path>
<g class="non-terminal">
<path d="M514 271h0"></path>
<path d="M582 271h0"></path>
<rect x="514" y="260" width="68" height="22"></rect>
<a xlink:href="reuse_target.svg"><text x="548" y="275">Target</text>
</a>
</g>
</g>
<path d="M646 271a10 10 0 0 0 10 -10v-230"></path>
<path d="M352 31v260a10 10 0 0 0 10 10"></path>
<g>
<path d="M362 301h0"></path>
<path d="M646 301h0"></path>
<g class="terminal">
<path d="M362 301h0"></path>
<path d="M558 301h0"></path>
<rect x="362" y="290" width="196" height="22" rx="10" ry="10"></rect>
<text x="460" y="305">"INCLUDE PROGRAM FROM"</text>
</g>
<path d="M558 301h10"></path>
<path d="M568 301h10"></path>
<g class="non-terminal">
<path d="M578 301h0"></path>
<path d="M646 301h0"></path>
<rect x="578" y="290" width="68" height="22"></rect>
<a xlink:href="reuse_source.svg"><text x="612" y="305">Source</text>
</a>
</g>
</g>
<path d="M646 301a10 10 0 0 0 10 -10v-260"></path>
<path d="M352 31v290a10 10 0 0 0 10 10"></path>
<g>
<path d="M362 331h0"></path>
<path d="M582 331h64"></path>
<g class="terminal">
<path d="M362 331h0"></path>
<path d="M494 331h0"></path>
<rect x="362" y="320" width="132" height="22" rx="10" ry="10"></rect>
<text x="428" y="335">"INCLUDE INTO"</text>
</g>
<path d="M494 331h10"></path>
<path d="M504 331h10"></path>
<g class="non-terminal">
<path d="M514 331h0"></path>
<path d="M582 331h0"></path>
<rect x="514" y="320" width="68" height="22"></rect>
<a xlink:href="reuse_target.svg"><text x="548" y="335">Target</text>
</a>
</g>
</g>
<path d="M646 331a10 10 0 0 0 10 -10v-290"></path>
<path d="M352 31v320a10 10 0 0 0 10 10"></path>
<g>
<path d="M362 361h0"></path>
<path d="M630 361h16"></path>
<g class="terminal">
<path d="M362 361h0"></path>
<path d="M542 361h0"></path>
<rect x="362" y="350" width="180" height="22" rx="10" ry="10"></rect>
<text x="452" y="365">"FRAME PROGRAM FROM"</text>
</g>
<path d="M542 361h10"></path>
<path d="M552 361h10"></path>
<g class="non-terminal">
<path d="M562 361h0"></path>
<path d="M630 361h0"></path>
<rect x="562" y="350" width="68" height="22"></rect>
<a xlink:href="reuse_source.svg"><text x="596" y="365">Source</text>
</a>
</g>
</g>
<path d="M646 361a10 10 0 0 0 10 -10v-320"></path>
<path d="M352 31v350a10 10 0 0 0 10 10"></path>
<g>
<path d="M362 391h0"></path>
<path d="M582 391h64"></path>
<g class="terminal">
<path d="M362 391h0"></path>
<path d="M494 391h0"></path>
<rect x="362" y="380" width="132" height="22" rx="10" ry="10"></rect>
<text x="428" y="395">"PROGRAM FROM"</text>
</g>
<path d="M494 391h10"></path>
<path d="M504 391h10"></path>
<g class="non-terminal">
<path d="M514 391h0"></path>
<path d="M582 391h0"></path>
<rect x="514" y="380" width="68" height="22"></rect>
<a xlink:href="reuse_source.svg"><text x="548" y="395">Source</text>
</a>
</g>
</g>
<path d="M646 391a10 10 0 0 0 10 -10v-350"></path>
<path d="M352 31v380a10 10 0 0 0 10 10"></path>
<g class="terminal">
<path d="M362 421h0"></path>
<path d="M502 421h144"></path>
<rect x="362" y="410" width="140" height="22" rx="10" ry="10"></rect>
<text x="432" y="425">"WITH ANALYSIS"</text>
</g>
<path d="M646 421a10 10 0 0 0 10 -10v-380"></path>
<path d="M352 31v410a10 10 0 0 0 10 10"></path>
<g class="terminal">
<path d="M362 451h0"></path>
<path d="M502 451h144"></path>
<rect x="362" y="440" width="140" height="22" rx="10" ry="10"></rect>
<text x="432" y="455">"WITH COMMENTS"</text>
</g>
<path d="M646 451a10 10 0 0 0 10 -10v-410"></path>
<path d="M352 31v440a10 10 0 0 0 10 10"></path>
<g class="terminal">
<path d="M362 481h0"></path>
<path d="M502 481h144"></path>
<rect x="362" y="470" width="140" height="22" rx="10" ry="10"></rect>
<text x="432" y="485">"WITH INCLUDES"</text>
</g>
<path d="M646 481a10 10 0 0 0 10 -10v-440"></path>
<path d="M352 31v470a10 10 0 0 0 10 10"></path>
<g class="terminal">
<path d="M362 511h0"></path>
<path d="M502 511h144"></path>
<rect x="362" y="500" width="140" height="22" rx="10" ry="10"></rect>
<text x="432" y="515">"WITHOUT TRMAC"</text>
</g>
<path d="M646 511a10 10 0 0 0 10 -10v-470"></path>
<path d="M352 31v500a10 10 0 0 0 10 10"></path>
<g class="terminal">
<path d="M362 541h0"></path>
<path d="M534 541h112"></path>
<rect x="362" y="530" width="172" height="22" rx="10" ry="10"></rect>
<text x="448" y="545">"WITH DECLARATIONS"</text>
</g>
<path d="M646 541a10 10 0 0 0 10 -10v-500"></path>
<path d="M352 31v530a10 10 0 0 0 10 10"></path>
<g class="terminal">
<path d="M362 571h0"></path>
<path d="M486 571h160"></path>
<rect x="362" y="560" width="124" height="22" rx="10" ry="10"></rect>
<text x="424" y="575">"WITH BLOCKS"</text>
</g>
<path d="M646 571a10 10 0 0 0 10 -10v-530"></path>
<path d="M352 31v560a10 10 0 0 0 10 10"></path>
<g>
<path d="M362 601h0"></path>
<path d="M574 601h72"></path>
<g class="terminal">
<path d="M362 601h0"></path>
<path d="M494 601h0"></path>
<rect x="362" y="590" width="132" height="22" rx="10" ry="10"></rect>
<text x="428" y="605">"WITH PRAGMAS"</text>
</g>
<path d="M494 601h10"></path>
<path d="M504 601h10"></path>
<g class="non-terminal">
<path d="M514 601h0"></path>
<path d="M574 601h0"></path>
<rect x="514" y="590" width="60" height="22"></rect>
<a xlink:href="reuse_field.svg"><text x="544" y="605">Field</text>
</a>
</g>
</g>
<path d="M646 601a10 10 0 0 0 10 -10v-560"></path>
<g class="diagram-text">
<title>take one or more branches, once each, in any order</title>
<path d="M 352 21 h -26 a 4 4 0 0 0 -4 4 v 12 a 4 4 0 0 0 4 4 h 26 z" class="diagram-text"></path>
<text x="337" y="35" class="diagram-text">1+</text>
<path d="M 656 21 h 16 a 4 4 0 0 1 4 4 v 12 a 4 4 0 0 1 -4 4 h -16 z" class="diagram-text"></path>
<path d="M 663 29 a 4 4 0 1 0 6 -1 m 2.75 -1 h -4 v 4 m 0 -3 h 2" style="stroke-width: 1.75"></path>
</g>
</g>
</g>
<path d="M676 31h10"></path>
<path d="M 686 31 h 20 m -10 -10 v 20 m 10 -20 v 20"></path>
</g>
</svg>
