<svg xmlns="http://www.w3.org/2000/svg" xmlns:xlink="http://www.w3.org/1999/xlink" class="railroad-diagram" width="804" height="92" viewBox="0 0 804 92">
<defs>
<style type="text/css"><![CDATA[
path {
stroke-width: 3;
stroke: black;
fill: rgba(0,0,0,0);
}
text {
font: bold 14px monospace;
text-anchor: middle;
}
text.diagram-text {
font-size: 12px;
}
a {
fill: blue;
}
text.diagram-arrow {
font-size: 16px;
}
text.label {
text-anchor: start;
}
text.comment {
font: italic 12px monospace;
}
rect {
stroke-width: 3;
stroke: black;
fill: #BCBCBC;
}
path.diagram-text {
stroke-width: 3;
stroke: black;
fill: #BCBCBC;
cursor: help;
}
]]></style>
</defs>
<g transform="translate(.5 .5)">
<path d="M 20 21 v 20 m 10 -20 v 20 m -10 -10 h 20.5"></path>
<path d="M40 31h10"></path>
<g>
<path d="M50 31h0"></path>
<path d="M754 31h0"></path>
<g class="terminal">
<path d="M50 31h0"></path>
<path d="M222 31h0"></path>
<rect x="50" y="20" width="172" height="22" rx="10" ry="10"></rect>
<text x="136" y="35">"SCROLL LIST INDEX"</text>
</g>
<path d="M222 31h10"></path>
<path d="M232 31h10"></path>
<g class="non-terminal">
<path d="M242 31h0"></path>
<path d="M310 31h0"></path>
<rect x="242" y="20" width="68" height="22"></rect>
<a xlink:href="reuse_source.svg"><text x="276" y="35">Source</text>
</a>
</g>
<path d="M310 31h10"></path>
<path d="M320 31h10"></path>
<g class="terminal">
<path d="M330 31h0"></path>
<path d="M382 31h0"></path>
<rect x="330" y="20" width="52" height="22" rx="10" ry="10"></rect>
<text x="356" y="35">"TO"</text>
</g>
<path d="M382 31h10"></path>
<g>
<path d="M392 31h0"></path>
<path d="M588 31h0"></path>
<path d="M392 31h20"></path>
<g class="terminal">
<path d="M412 31h0"></path>
<path d="M528 31h40"></path>
<rect x="412" y="20" width="116" height="22" rx="10" ry="10"></rect>
<text x="470" y="35">"FIRST PAGE"</text>
</g>
<path d="M568 31h20"></path>
<path d="M392 31a10 10 0 0 1 10 10v10a10 10 0 0 0 10 10"></path>
<g>
<path d="M412 61h0"></path>
<path d="M568 61h0"></path>
<g class="terminal">
<path d="M412 61h0"></path>
<path d="M480 61h0"></path>
<rect x="412" y="50" width="68" height="22" rx="10" ry="10"></rect>
<text x="446" y="65">"PAGE"</text>
</g>
<path d="M480 61h10"></path>
<path d="M490 61h10"></path>
<g class="non-terminal">
<path d="M500 61h0"></path>
<path d="M568 61h0"></path>
<rect x="500" y="50" width="68" height="22"></rect>
<a xlink:href="reuse_source.svg"><text x="534" y="65">Source</text>
</a>
</g>
</g>
<path d="M568 61a10 10 0 0 0 10 -10v-10a10 10 0 0 1 10 -10"></path>
</g>
<path d="M588 31h10"></path>
<g class="terminal">
<path d="M598 31h0"></path>
<path d="M666 31h0"></path>
<rect x="598" y="20" width="68" height="22" rx="10" ry="10"></rect>
<text x="632" y="35">"LINE"</text>
</g>
<path d="M666 31h10"></path>
<path d="M676 31h10"></path>
<g class="non-terminal">
<path d="M686 31h0"></path>
<path d="M754 31h0"></path>
<rect x="686" y="20" width="68" height="22"></rect>
<a xlink:href="reuse_source.svg"><text x="720" y="35">Source</text>
</a>
</g>
</g>
<path d="M754 31h10"></path>
<path d="M 764 31 h 20 m -10 -10 v 20 m 10 -20 v 20"></path>
</g>
</svg>
