<svg xmlns="http://www.w3.org/2000/svg" xmlns:xlink="http://www.w3.org/1999/xlink" class="railroad-diagram" width="612" height="242" viewBox="0 0 612 242">
<defs>
<style type="text/css"><![CDATA[
path {
stroke-width: 3;
stroke: black;
fill: rgba(0,0,0,0);
}
text {
font: bold 14px monospace;
text-anchor: middle;
}
text.diagram-text {
font-size: 12px;
}
a {
fill: blue;
}
text.diagram-arrow {
font-size: 16px;
}
text.label {
text-anchor: start;
}
text.comment {
font: italic 12px monospace;
}
rect {
stroke-width: 3;
stroke: black;
fill: #BCBCBC;
}
path.diagram-text {
stroke-width: 3;
stroke: black;
fill: #BCBCBC;
cursor: help;
}
]]></style>
</defs>
<g transform="translate(.5 .5)">
<path d="M 20 21 v 20 m 10 -20 v 20 m -10 -10 h 20.5"></path>
<path d="M40 31h10"></path>
<g>
<path d="M50 31h0"></path>
<path d="M562 31h0"></path>
<g class="terminal">
<path d="M50 31h0"></path>
<path d="M174 31h0"></path>
<rect x="50" y="20" width="124" height="22" rx="10" ry="10"></rect>
<text x="112" y="35">"SCROLL LIST"</text>
</g>
<path d="M174 31h10"></path>
<path d="M184 31h10"></path>
<g>
<path d="M194 31h0"></path>
<path d="M562 31h0"></path>
<path d="M224 31h10"></path>
<g>
<path d="M234 31h0"></path>
<path d="M398 31h134"></path>
<g class="terminal">
<path d="M234 31h0"></path>
<path d="M310 31h0"></path>
<rect x="234" y="20" width="76" height="22" rx="10" ry="10"></rect>
<text x="272" y="35">"INDEX"</text>
</g>
<path d="M310 31h10"></path>
<path d="M320 31h10"></path>
<g class="non-terminal">
<path d="M330 31h0"></path>
<path d="M398 31h0"></path>
<rect x="330" y="20" width="68" height="22"></rect>
<a xlink:href="reuse_source.svg"><text x="364" y="35">Source</text>
</a>
</g>
</g>
<path d="M532 31h10"></path>
<path d="M224 31v20a10 10 0 0 0 10 10"></path>
<g>
<path d="M234 61h0"></path>
<path d="M532 61h0"></path>
<path d="M234 61h20"></path>
<g>
<path d="M254 61h0"></path>
<path d="M512 61h0"></path>
<g class="terminal">
<path d="M254 61h0"></path>
<path d="M306 61h0"></path>
<rect x="254" y="50" width="52" height="22" rx="10" ry="10"></rect>
<text x="280" y="65">"TO"</text>
</g>
<path d="M306 61h10"></path>
<g>
<path d="M316 61h0"></path>
<path d="M512 61h0"></path>
<path d="M316 61h20"></path>
<g class="terminal">
<path d="M336 61h0"></path>
<path d="M452 61h40"></path>
<rect x="336" y="50" width="116" height="22" rx="10" ry="10"></rect>
<text x="394" y="65">"FIRST PAGE"</text>
</g>
<path d="M492 61h20"></path>
<path d="M316 61a10 10 0 0 1 10 10v10a10 10 0 0 0 10 10"></path>
<g class="terminal">
<path d="M336 91h0"></path>
<path d="M444 91h48"></path>
<rect x="336" y="80" width="108" height="22" rx="10" ry="10"></rect>
<text x="390" y="95">"LAST PAGE"</text>
</g>
<path d="M492 91a10 10 0 0 0 10 -10v-10a10 10 0 0 1 10 -10"></path>
<path d="M316 61a10 10 0 0 1 10 10v40a10 10 0 0 0 10 10"></path>
<g>
<path d="M336 121h0"></path>
<path d="M492 121h0"></path>
<g class="terminal">
<path d="M336 121h0"></path>
<path d="M404 121h0"></path>
<rect x="336" y="110" width="68" height="22" rx="10" ry="10"></rect>
<text x="370" y="125">"PAGE"</text>
</g>
<path d="M404 121h10"></path>
<path d="M414 121h10"></path>
<g class="non-terminal">
<path d="M424 121h0"></path>
<path d="M492 121h0"></path>
<rect x="424" y="110" width="68" height="22"></rect>
<a xlink:href="reuse_source.svg"><text x="458" y="125">Source</text>
</a>
</g>
</g>
<path d="M492 121a10 10 0 0 0 10 -10v-40a10 10 0 0 1 10 -10"></path>
</g>
</g>
<path d="M512 61h20"></path>
<path d="M234 61a10 10 0 0 1 10 10v70a10 10 0 0 0 10 10"></path>
<g class="terminal">
<path d="M254 151h0"></path>
<path d="M354 151h158"></path>
<rect x="254" y="140" width="100" height="22" rx="10" ry="10"></rect>
<text x="304" y="155">"BACKWARD"</text>
</g>
<path d="M512 151a10 10 0 0 0 10 -10v-70a10 10 0 0 1 10 -10"></path>
<path d="M234 61a10 10 0 0 1 10 10v100a10 10 0 0 0 10 10"></path>
<g class="terminal">
<path d="M254 181h0"></path>
<path d="M346 181h166"></path>
<rect x="254" y="170" width="92" height="22" rx="10" ry="10"></rect>
<text x="300" y="185">"FORWARD"</text>
</g>
<path d="M512 181a10 10 0 0 0 10 -10v-100a10 10 0 0 1 10 -10"></path>
</g>
<path d="M532 61a10 10 0 0 0 10 -10v-20"></path>
<path d="M224 31v170a10 10 0 0 0 10 10"></path>
<g>
<path d="M234 211h0"></path>
<path d="M390 211h142"></path>
<g class="terminal">
<path d="M234 211h0"></path>
<path d="M302 211h0"></path>
<rect x="234" y="200" width="68" height="22" rx="10" ry="10"></rect>
<text x="268" y="215">"LINE"</text>
</g>
<path d="M302 211h10"></path>
<path d="M312 211h10"></path>
<g class="non-terminal">
<path d="M322 211h0"></path>
<path d="M390 211h0"></path>
<rect x="322" y="200" width="68" height="22"></rect>
<a xlink:href="reuse_source.svg"><text x="356" y="215">Source</text>
</a>
</g>
</g>
<path d="M532 211a10 10 0 0 0 10 -10v-170"></path>
<g class="diagram-text">
<title>take one or more branches, once each, in any order</title>
<path d="M 224 21 h -26 a 4 4 0 0 0 -4 4 v 12 a 4 4 0 0 0 4 4 h 26 z" class="diagram-text"></path>
<text x="209" y="35" class="diagram-text">1+</text>
<path d="M 542 21 h 16 a 4 4 0 0 1 4 4 v 12 a 4 4 0 0 1 -4 4 h -16 z" class="diagram-text"></path>
<path d="M 549 29 a 4 4 0 1 0 6 -1 m 2.75 -1 h -4 v 4 m 0 -3 h 2" style="stroke-width: 1.75"></path>
</g>
</g>
</g>
<path d="M562 31h10"></path>
<path d="M 572 31 h 20 m -10 -10 v 20 m 10 -20 v 20"></path>
</g>
</svg>
