<svg xmlns="http://www.w3.org/2000/svg" xmlns:xlink="http://www.w3.org/1999/xlink" class="railroad-diagram" width="932" height="161" viewBox="0 0 932 161">
<defs>
<style type="text/css"><![CDATA[
path {
stroke-width: 3;
stroke: black;
fill: rgba(0,0,0,0);
}
text {
font: bold 14px monospace;
text-anchor: middle;
}
text.diagram-text {
font-size: 12px;
}
a {
fill: blue;
}
text.diagram-arrow {
font-size: 16px;
}
text.label {
text-anchor: start;
}
text.comment {
font: italic 12px monospace;
}
rect {
stroke-width: 3;
stroke: black;
fill: #BCBCBC;
}
path.diagram-text {
stroke-width: 3;
stroke: black;
fill: #BCBCBC;
cursor: help;
}
]]></style>
</defs>
<g transform="translate(.5 .5)">
<path d="M 20 30 v 20 m 10 -20 v 20 m -10 -10 h 20.5"></path>
<path d="M40 40h10"></path>
<g>
<path d="M50 40h0"></path>
<path d="M882 40h0"></path>
<g class="terminal">
<path d="M50 40h0"></path>
<path d="M174 40h0"></path>
<rect x="50" y="29" width="124" height="22" rx="10" ry="10"></rect>
<text x="112" y="44">"SCROLL LIST"</text>
</g>
<path d="M174 40h10"></path>
<g>
<path d="M184 40h0"></path>
<path d="M388 40h0"></path>
<path d="M184 40a10 10 0 0 0 10 -10v0a10 10 0 0 1 10 -10"></path>
<g>
<path d="M204 20h164"></path>
</g>
<path d="M368 20a10 10 0 0 1 10 10v0a10 10 0 0 0 10 10"></path>
<path d="M184 40h20"></path>
<g>
<path d="M204 40h0"></path>
<path d="M368 40h0"></path>
<g class="terminal">
<path d="M204 40h0"></path>
<path d="M280 40h0"></path>
<rect x="204" y="29" width="76" height="22" rx="10" ry="10"></rect>
<text x="242" y="44">"INDEX"</text>
</g>
<path d="M280 40h10"></path>
<path d="M290 40h10"></path>
<g class="non-terminal">
<path d="M300 40h0"></path>
<path d="M368 40h0"></path>
<rect x="300" y="29" width="68" height="22"></rect>
<a xlink:href="reuse_source.svg"><text x="334" y="44">Source</text>
</a>
</g>
</g>
<path d="M368 40h20"></path>
</g>
<g>
<path d="M388 40h0"></path>
<path d="M686 40h0"></path>
<path d="M388 40h20"></path>
<g>
<path d="M408 40h0"></path>
<path d="M666 40h0"></path>
<g class="terminal">
<path d="M408 40h0"></path>
<path d="M460 40h0"></path>
<rect x="408" y="29" width="52" height="22" rx="10" ry="10"></rect>
<text x="434" y="44">"TO"</text>
</g>
<path d="M460 40h10"></path>
<g>
<path d="M470 40h0"></path>
<path d="M666 40h0"></path>
<path d="M470 40h20"></path>
<g class="terminal">
<path d="M490 40h0"></path>
<path d="M606 40h40"></path>
<rect x="490" y="29" width="116" height="22" rx="10" ry="10"></rect>
<text x="548" y="44">"FIRST PAGE"</text>
</g>
<path d="M646 40h20"></path>
<path d="M470 40a10 10 0 0 1 10 10v10a10 10 0 0 0 10 10"></path>
<g class="terminal">
<path d="M490 70h0"></path>
<path d="M598 70h48"></path>
<rect x="490" y="59" width="108" height="22" rx="10" ry="10"></rect>
<text x="544" y="74">"LAST PAGE"</text>
</g>
<path d="M646 70a10 10 0 0 0 10 -10v-10a10 10 0 0 1 10 -10"></path>
<path d="M470 40a10 10 0 0 1 10 10v40a10 10 0 0 0 10 10"></path>
<g>
<path d="M490 100h0"></path>
<path d="M646 100h0"></path>
<g class="terminal">
<path d="M490 100h0"></path>
<path d="M558 100h0"></path>
<rect x="490" y="89" width="68" height="22" rx="10" ry="10"></rect>
<text x="524" y="104">"PAGE"</text>
</g>
<path d="M558 100h10"></path>
<path d="M568 100h10"></path>
<g class="non-terminal">
<path d="M578 100h0"></path>
<path d="M646 100h0"></path>
<rect x="578" y="89" width="68" height="22"></rect>
<a xlink:href="reuse_source.svg"><text x="612" y="104">Source</text>
</a>
</g>
</g>
<path d="M646 100a10 10 0 0 0 10 -10v-40a10 10 0 0 1 10 -10"></path>
</g>
</g>
<path d="M666 40h20"></path>
<path d="M388 40a10 10 0 0 1 10 10v70a10 10 0 0 0 10 10"></path>
<g class="terminal">
<path d="M408 130h0"></path>
<path d="M508 130h158"></path>
<rect x="408" y="119" width="100" height="22" rx="10" ry="10"></rect>
<text x="458" y="134">"BACKWARD"</text>
</g>
<path d="M666 130a10 10 0 0 0 10 -10v-70a10 10 0 0 1 10 -10"></path>
</g>
<g>
<path d="M686 40h0"></path>
<path d="M882 40h0"></path>
<path d="M686 40a10 10 0 0 0 10 -10v0a10 10 0 0 1 10 -10"></path>
<g>
<path d="M706 20h156"></path>
</g>
<path d="M862 20a10 10 0 0 1 10 10v0a10 10 0 0 0 10 10"></path>
<path d="M686 40h20"></path>
<g>
<path d="M706 40h0"></path>
<path d="M862 40h0"></path>
<g class="terminal">
<path d="M706 40h0"></path>
<path d="M774 40h0"></path>
<rect x="706" y="29" width="68" height="22" rx="10" ry="10"></rect>
<text x="740" y="44">"LINE"</text>
</g>
<path d="M774 40h10"></path>
<path d="M784 40h10"></path>
<g class="non-terminal">
<path d="M794 40h0"></path>
<path d="M862 40h0"></path>
<rect x="794" y="29" width="68" height="22"></rect>
<a xlink:href="reuse_source.svg"><text x="828" y="44">Source</text>
</a>
</g>
</g>
<path d="M862 40h20"></path>
</g>
</g>
<path d="M882 40h10"></path>
<path d="M 892 40 h 20 m -10 -10 v 20 m 10 -20 v 20"></path>
</g>
</svg>
