<svg xmlns="http://www.w3.org/2000/svg" xmlns:xlink="http://www.w3.org/1999/xlink" class="railroad-diagram" width="1190" height="101" viewBox="0 0 1190 101">
<defs>
<style type="text/css"><![CDATA[
path {
stroke-width: 3;
stroke: black;
fill: rgba(0,0,0,0);
}
text {
font: bold 14px monospace;
text-anchor: middle;
}
text.diagram-text {
font-size: 12px;
}
a {
fill: blue;
}
text.diagram-arrow {
font-size: 16px;
}
text.label {
text-anchor: start;
}
text.comment {
font: italic 12px monospace;
}
rect {
stroke-width: 3;
stroke: black;
fill: #BCBCBC;
}
path.diagram-text {
stroke-width: 3;
stroke: black;
fill: #BCBCBC;
cursor: help;
}
]]></style>
</defs>
<g transform="translate(.5 .5)">
<path d="M 20 30 v 20 m 10 -20 v 20 m -10 -10 h 20.5"></path>
<path d="M40 40h10"></path>
<g>
<path d="M50 40h0"></path>
<path d="M1140 40h0"></path>
<g class="terminal">
<path d="M50 40h0"></path>
<path d="M134 40h0"></path>
<rect x="50" y="29" width="84" height="22" rx="10" ry="10"></rect>
<text x="92" y="44">"SEARCH"</text>
</g>
<path d="M134 40h10"></path>
<path d="M144 40h10"></path>
<g class="non-terminal">
<path d="M154 40h0"></path>
<path d="M222 40h0"></path>
<rect x="154" y="29" width="68" height="22"></rect>
<a xlink:href="reuse_source.svg"><text x="188" y="44">Source</text>
</a>
</g>
<path d="M222 40h10"></path>
<path d="M232 40h10"></path>
<g class="terminal">
<path d="M242 40h0"></path>
<path d="M302 40h0"></path>
<rect x="242" y="29" width="60" height="22" rx="10" ry="10"></rect>
<text x="272" y="44">"FOR"</text>
</g>
<path d="M302 40h10"></path>
<path d="M312 40h10"></path>
<g class="non-terminal">
<path d="M322 40h0"></path>
<path d="M390 40h0"></path>
<rect x="322" y="29" width="68" height="22"></rect>
<a xlink:href="reuse_source.svg"><text x="356" y="44">Source</text>
</a>
</g>
<path d="M390 40h10"></path>
<g>
<path d="M400 40h0"></path>
<path d="M652 40h0"></path>
<path d="M400 40a10 10 0 0 0 10 -10v0a10 10 0 0 1 10 -10"></path>
<g>
<path d="M420 20h212"></path>
</g>
<path d="M632 20a10 10 0 0 1 10 10v0a10 10 0 0 0 10 10"></path>
<path d="M400 40h20"></path>
<g>
<path d="M420 40h0"></path>
<path d="M632 40h0"></path>
<path d="M420 40h20"></path>
<g class="terminal">
<path d="M440 40h0"></path>
<path d="M572 40h40"></path>
<rect x="440" y="29" width="132" height="22" rx="10" ry="10"></rect>
<text x="506" y="44">"IN BYTE MODE"</text>
</g>
<path d="M612 40h20"></path>
<path d="M420 40a10 10 0 0 1 10 10v10a10 10 0 0 0 10 10"></path>
<g class="terminal">
<path d="M440 70h0"></path>
<path d="M612 70h0"></path>
<rect x="440" y="59" width="172" height="22" rx="10" ry="10"></rect>
<text x="526" y="74">"IN CHARACTER MODE"</text>
</g>
<path d="M612 70a10 10 0 0 0 10 -10v-10a10 10 0 0 1 10 -10"></path>
</g>
<path d="M632 40h20"></path>
</g>
<g>
<path d="M652 40h0"></path>
<path d="M904 40h0"></path>
<path d="M652 40a10 10 0 0 0 10 -10v0a10 10 0 0 1 10 -10"></path>
<g>
<path d="M672 20h212"></path>
</g>
<path d="M884 20a10 10 0 0 1 10 10v0a10 10 0 0 0 10 10"></path>
<path d="M652 40h20"></path>
<g>
<path d="M672 40h0"></path>
<path d="M884 40h0"></path>
<g class="terminal">
<path d="M672 40h0"></path>
<path d="M796 40h0"></path>
<rect x="672" y="29" width="124" height="22" rx="10" ry="10"></rect>
<text x="734" y="44">"STARTING AT"</text>
</g>
<path d="M796 40h10"></path>
<path d="M806 40h10"></path>
<g class="non-terminal">
<path d="M816 40h0"></path>
<path d="M884 40h0"></path>
<rect x="816" y="29" width="68" height="22"></rect>
<a xlink:href="reuse_source.svg"><text x="850" y="44">Source</text>
</a>
</g>
</g>
<path d="M884 40h20"></path>
</g>
<g>
<path d="M904 40h0"></path>
<path d="M1140 40h0"></path>
<path d="M904 40a10 10 0 0 0 10 -10v0a10 10 0 0 1 10 -10"></path>
<g>
<path d="M924 20h196"></path>
</g>
<path d="M1120 20a10 10 0 0 1 10 10v0a10 10 0 0 0 10 10"></path>
<path d="M904 40h20"></path>
<g>
<path d="M924 40h0"></path>
<path d="M1120 40h0"></path>
<g class="terminal">
<path d="M924 40h0"></path>
<path d="M1032 40h0"></path>
<rect x="924" y="29" width="108" height="22" rx="10" ry="10"></rect>
<text x="978" y="44">"ENDING AT"</text>
</g>
<path d="M1032 40h10"></path>
<path d="M1042 40h10"></path>
<g class="non-terminal">
<path d="M1052 40h0"></path>
<path d="M1120 40h0"></path>
<rect x="1052" y="29" width="68" height="22"></rect>
<a xlink:href="reuse_source.svg"><text x="1086" y="44">Source</text>
</a>
</g>
</g>
<path d="M1120 40h20"></path>
</g>
</g>
<path d="M1140 40h10"></path>
<path d="M 1150 40 h 20 m -10 -10 v 20 m 10 -20 v 20"></path>
</g>
</svg>
