<svg xmlns="http://www.w3.org/2000/svg" xmlns:xlink="http://www.w3.org/1999/xlink" class="railroad-diagram" width="772" height="191" viewBox="0 0 772 191">
<defs>
<style type="text/css"><![CDATA[
path {
stroke-width: 3;
stroke: black;
fill: rgba(0,0,0,0);
}
text {
font: bold 14px monospace;
text-anchor: middle;
}
text.diagram-text {
font-size: 12px;
}
a {
fill: blue;
}
text.diagram-arrow {
font-size: 16px;
}
text.label {
text-anchor: start;
}
text.comment {
font: italic 12px monospace;
}
rect {
stroke-width: 3;
stroke: black;
fill: #BCBCBC;
}
path.diagram-text {
stroke-width: 3;
stroke: black;
fill: #BCBCBC;
cursor: help;
}
]]></style>
</defs>
<g transform="translate(.5 .5)">
<path d="M 20 30 v 20 m 10 -20 v 20 m -10 -10 h 20.5"></path>
<path d="M40 40h10"></path>
<g>
<path d="M50 40h0"></path>
<path d="M722 40h0"></path>
<g class="terminal">
<path d="M50 40h0"></path>
<path d="M134 40h0"></path>
<rect x="50" y="29" width="84" height="22" rx="10" ry="10"></rect>
<text x="92" y="44">"SEARCH"</text>
</g>
<path d="M134 40h10"></path>
<path d="M144 40h10"></path>
<g class="non-terminal">
<path d="M154 40h0"></path>
<path d="M222 40h0"></path>
<rect x="154" y="29" width="68" height="22"></rect>
<a xlink:href="reuse_source.svg"><text x="188" y="44">Source</text>
</a>
</g>
<path d="M222 40h10"></path>
<path d="M232 40h10"></path>
<g class="terminal">
<path d="M242 40h0"></path>
<path d="M302 40h0"></path>
<rect x="242" y="29" width="60" height="22" rx="10" ry="10"></rect>
<text x="272" y="44">"FOR"</text>
</g>
<path d="M302 40h10"></path>
<path d="M312 40h10"></path>
<g class="non-terminal">
<path d="M322 40h0"></path>
<path d="M390 40h0"></path>
<rect x="322" y="29" width="68" height="22"></rect>
<a xlink:href="reuse_source.svg"><text x="356" y="44">Source</text>
</a>
</g>
<path d="M390 40h10"></path>
<g>
<path d="M400 40h0"></path>
<path d="M722 40h0"></path>
<path d="M400 40a10 10 0 0 0 10 -10v0a10 10 0 0 1 10 -10"></path>
<g>
<path d="M420 20h282"></path>
</g>
<path d="M702 20a10 10 0 0 1 10 10v0a10 10 0 0 0 10 10"></path>
<path d="M400 40h20"></path>
<g>
<path d="M420 40h0"></path>
<path d="M702 40h0"></path>
<path d="M450 40h10"></path>
<g>
<path d="M460 40h0"></path>
<path d="M672 40h0"></path>
<path d="M460 40h20"></path>
<g class="terminal">
<path d="M480 40h0"></path>
<path d="M612 40h40"></path>
<rect x="480" y="29" width="132" height="22" rx="10" ry="10"></rect>
<text x="546" y="44">"IN BYTE MODE"</text>
</g>
<path d="M652 40h20"></path>
<path d="M460 40a10 10 0 0 1 10 10v10a10 10 0 0 0 10 10"></path>
<g class="terminal">
<path d="M480 70h0"></path>
<path d="M652 70h0"></path>
<rect x="480" y="59" width="172" height="22" rx="10" ry="10"></rect>
<text x="566" y="74">"IN CHARACTER MODE"</text>
</g>
<path d="M652 70a10 10 0 0 0 10 -10v-10a10 10 0 0 1 10 -10"></path>
</g>
<path d="M672 40h10"></path>
<path d="M450 40v50a10 10 0 0 0 10 10"></path>
<g>
<path d="M460 100h0"></path>
<path d="M672 100h0"></path>
<g class="terminal">
<path d="M460 100h0"></path>
<path d="M584 100h0"></path>
<rect x="460" y="89" width="124" height="22" rx="10" ry="10"></rect>
<text x="522" y="104">"STARTING AT"</text>
</g>
<path d="M584 100h10"></path>
<path d="M594 100h10"></path>
<g class="non-terminal">
<path d="M604 100h0"></path>
<path d="M672 100h0"></path>
<rect x="604" y="89" width="68" height="22"></rect>
<a xlink:href="reuse_source.svg"><text x="638" y="104">Source</text>
</a>
</g>
</g>
<path d="M672 100a10 10 0 0 0 10 -10v-50"></path>
<path d="M450 40v80a10 10 0 0 0 10 10"></path>
<g>
<path d="M460 130h0"></path>
<path d="M656 130h16"></path>
<g class="terminal">
<path d="M460 130h0"></path>
<path d="M568 130h0"></path>
<rect x="460" y="119" width="108" height="22" rx="10" ry="10"></rect>
<text x="514" y="134">"ENDING AT"</text>
</g>
<path d="M568 130h10"></path>
<path d="M578 130h10"></path>
<g class="non-terminal">
<path d="M588 130h0"></path>
<path d="M656 130h0"></path>
<rect x="588" y="119" width="68" height="22"></rect>
<a xlink:href="reuse_source.svg"><text x="622" y="134">Source</text>
</a>
</g>
</g>
<path d="M672 130a10 10 0 0 0 10 -10v-80"></path>
<path d="M450 40v110a10 10 0 0 0 10 10"></path>
<g class="terminal">
<path d="M460 160h0"></path>
<path d="M560 160h112"></path>
<rect x="460" y="149" width="100" height="22" rx="10" ry="10"></rect>
<text x="510" y="164">"AND MARK"</text>
</g>
<path d="M672 160a10 10 0 0 0 10 -10v-110"></path>
<g class="diagram-text">
<title>take one or more branches, once each, in any order</title>
<path d="M 450 30 h -26 a 4 4 0 0 0 -4 4 v 12 a 4 4 0 0 0 4 4 h 26 z" class="diagram-text"></path>
<text x="435" y="44" class="diagram-text">1+</text>
<path d="M 682 30 h 16 a 4 4 0 0 1 4 4 v 12 a 4 4 0 0 1 -4 4 h -16 z" class="diagram-text"></path>
<path d="M 689 38 a 4 4 0 1 0 6 -1 m 2.75 -1 h -4 v 4 m 0 -3 h 2" style="stroke-width: 1.75"></path>
</g>
</g>
<path d="M702 40h20"></path>
</g>
</g>
<path d="M722 40h10"></path>
<path d="M 732 40 h 20 m -10 -10 v 20 m 10 -20 v 20"></path>
</g>
</svg>
