<svg xmlns="http://www.w3.org/2000/svg" xmlns:xlink="http://www.w3.org/1999/xlink" class="railroad-diagram" width="1372" height="458" viewBox="0 0 1372 458">
<defs>
<style type="text/css"><![CDATA[
path {
stroke-width: 3;
stroke: black;
fill: rgba(0,0,0,0);
}
text {
font: bold 14px monospace;
text-anchor: middle;
}
text.diagram-text {
font-size: 12px;
}
a {
fill: blue;
}
text.diagram-arrow {
font-size: 16px;
}
text.label {
text-anchor: start;
}
text.comment {
font: italic 12px monospace;
}
rect {
stroke-width: 3;
stroke: black;
fill: #BCBCBC;
}
path.diagram-text {
stroke-width: 3;
stroke: black;
fill: #BCBCBC;
cursor: help;
}
]]></style>
</defs>
<g transform="translate(.5 .5)">
<path d="M 20 30 v 20 m 10 -20 v 20 m -10 -10 h 20.5"></path>
<path d="M40 40h10"></path>
<g>
<path d="M50 40h0"></path>
<path d="M1322 40h0"></path>
<g class="terminal">
<path d="M50 40h0"></path>
<path d="M214 40h0"></path>
<rect x="50" y="29" width="164" height="22" rx="10" ry="10"></rect>
<text x="132" y="44">"SELECTION-SCREEN"</text>
</g>
<path d="M214 40h10"></path>
<g>
<path d="M224 40h0"></path>
<path d="M1322 40h0"></path>
<path d="M224 40h20"></path>
<g>
<path d="M244 40h0"></path>
<path d="M1302 40h0"></path>
<g class="terminal">
<path d="M244 40h0"></path>
<path d="M336 40h0"></path>
<rect x="244" y="29" width="92" height="22" rx="10" ry="10"></rect>
<text x="290" y="44">"COMMENT"</text>
</g>
<path d="M336 40h10"></path>
<g>
<path d="M346 40h0"></path>
<path d="M470 40h0"></path>
<path d="M346 40a10 10 0 0 0 10 -10v0a10 10 0 0 1 10 -10"></path>
<g>
<path d="M366 20h84"></path>
</g>
<path d="M450 20a10 10 0 0 1 10 10v0a10 10 0 0 0 10 10"></path>
<path d="M346 40h20"></path>
<g class="terminal">
<path d="M366 40h0"></path>
<path d="M450 40h0"></path>
<rect x="366" y="29" width="84" height="22" rx="10" ry="10"></rect>
<text x="408" y="44">^\/?\d+$</text>
</g>
<path d="M450 40h20"></path>
</g>
<g>
<path d="M470 40h0"></path>
<path d="M570 40h0"></path>
<path d="M470 40h20"></path>
<g class="terminal">
<path d="M490 40h0"></path>
<path d="M542 40h8"></path>
<rect x="490" y="29" width="52" height="22" rx="10" ry="10"></rect>
<text x="516" y="44">!"("</text>
</g>
<path d="M550 40h20"></path>
<path d="M470 40a10 10 0 0 1 10 10v10a10 10 0 0 0 10 10"></path>
<g class="terminal">
<path d="M490 70h0"></path>
<path d="M550 70h0"></path>
<rect x="490" y="59" width="60" height="22" rx="10" ry="10"></rect>
<text x="520" y="74">!" ("</text>
</g>
<path d="M550 70a10 10 0 0 0 10 -10v-10a10 10 0 0 1 10 -10"></path>
</g>
<path d="M570 40h10"></path>
<g class="non-terminal">
<path d="M580 40h0"></path>
<path d="M656 40h0"></path>
<rect x="580" y="29" width="76" height="22"></rect>
<a xlink:href="reuse_integer.svg"><text x="618" y="44">Integer</text>
</a>
</g>
<path d="M656 40h10"></path>
<path d="M666 40h10"></path>
<g class="terminal">
<path d="M676 40h0"></path>
<path d="M736 40h0"></path>
<rect x="676" y="29" width="60" height="22" rx="10" ry="10"></rect>
<text x="706" y="44">!") "</text>
</g>
<path d="M736 40h10"></path>
<g>
<path d="M746 40h0"></path>
<path d="M854 40h0"></path>
<path d="M746 40a10 10 0 0 0 10 -10v0a10 10 0 0 1 10 -10"></path>
<g>
<path d="M766 20h68"></path>
</g>
<path d="M834 20a10 10 0 0 1 10 10v0a10 10 0 0 0 10 10"></path>
<path d="M746 40h20"></path>
<g class="non-terminal">
<path d="M766 40h0"></path>
<path d="M834 40h0"></path>
<rect x="766" y="29" width="68" height="22"></rect>
<a xlink:href="reuse_source.svg"><text x="800" y="44">Source</text>
</a>
</g>
<path d="M834 40h20"></path>
</g>
<g>
<path d="M854 40h0"></path>
<path d="M1082 40h0"></path>
<path d="M854 40a10 10 0 0 0 10 -10v0a10 10 0 0 1 10 -10"></path>
<g>
<path d="M874 20h188"></path>
</g>
<path d="M1062 20a10 10 0 0 1 10 10v0a10 10 0 0 0 10 10"></path>
<path d="M854 40h20"></path>
<g>
<path d="M874 40h0"></path>
<path d="M1062 40h0"></path>
<g class="terminal">
<path d="M874 40h0"></path>
<path d="M982 40h0"></path>
<rect x="874" y="29" width="108" height="22" rx="10" ry="10"></rect>
<text x="928" y="44">"FOR FIELD"</text>
</g>
<path d="M982 40h10"></path>
<path d="M992 40h10"></path>
<g class="non-terminal">
<path d="M1002 40h0"></path>
<path d="M1062 40h0"></path>
<rect x="1002" y="29" width="60" height="22"></rect>
<a xlink:href="reuse_field.svg"><text x="1032" y="44">Field</text>
</a>
</g>
</g>
<path d="M1062 40h20"></path>
</g>
<g>
<path d="M1082 40h0"></path>
<path d="M1302 40h0"></path>
<path d="M1082 40a10 10 0 0 0 10 -10v0a10 10 0 0 1 10 -10"></path>
<g>
<path d="M1102 20h180"></path>
</g>
<path d="M1282 20a10 10 0 0 1 10 10v0a10 10 0 0 0 10 10"></path>
<path d="M1082 40h20"></path>
<g>
<path d="M1102 40h0"></path>
<path d="M1282 40h0"></path>
<g class="terminal">
<path d="M1102 40h0"></path>
<path d="M1202 40h0"></path>
<rect x="1102" y="29" width="100" height="22" rx="10" ry="10"></rect>
<text x="1152" y="44">"MODIF ID"</text>
</g>
<path d="M1202 40h10"></path>
<path d="M1212 40h10"></path>
<g class="non-terminal">
<path d="M1222 40h0"></path>
<path d="M1282 40h0"></path>
<rect x="1222" y="29" width="60" height="22"></rect>
<a xlink:href="reuse_field.svg"><text x="1252" y="44">Field</text>
</a>
</g>
</g>
<path d="M1282 40h20"></path>
</g>
</g>
<path d="M1302 40h20"></path>
<path d="M224 40a10 10 0 0 1 10 10v40a10 10 0 0 0 10 10"></path>
<g>
<path d="M244 100h0"></path>
<path d="M472 100h830"></path>
<g class="terminal">
<path d="M244 100h0"></path>
<path d="M376 100h0"></path>
<rect x="244" y="89" width="132" height="22" rx="10" ry="10"></rect>
<text x="310" y="104">"FUNCTION KEY"</text>
</g>
<path d="M376 100h10"></path>
<path d="M386 100h10"></path>
<g class="non-terminal">
<path d="M396 100h0"></path>
<path d="M472 100h0"></path>
<rect x="396" y="89" width="76" height="22"></rect>
<a xlink:href="reuse_integer.svg"><text x="434" y="104">Integer</text>
</a>
</g>
</g>
<path d="M1302 100a10 10 0 0 0 10 -10v-40a10 10 0 0 1 10 -10"></path>
<path d="M224 40a10 10 0 0 1 10 10v79a10 10 0 0 0 10 10"></path>
<g>
<path d="M244 139h0"></path>
<path d="M438 139h864"></path>
<g class="terminal">
<path d="M244 139h0"></path>
<path d="M312 139h0"></path>
<rect x="244" y="128" width="68" height="22" rx="10" ry="10"></rect>
<text x="278" y="143">"SKIP"</text>
</g>
<path d="M312 139h10"></path>
<g>
<path d="M322 139h0"></path>
<path d="M438 139h0"></path>
<path d="M322 139a10 10 0 0 0 10 -10v0a10 10 0 0 1 10 -10"></path>
<g>
<path d="M342 119h76"></path>
</g>
<path d="M418 119a10 10 0 0 1 10 10v0a10 10 0 0 0 10 10"></path>
<path d="M322 139h20"></path>
<g class="non-terminal">
<path d="M342 139h0"></path>
<path d="M418 139h0"></path>
<rect x="342" y="128" width="76" height="22"></rect>
<a xlink:href="reuse_integer.svg"><text x="380" y="143">Integer</text>
</a>
</g>
<path d="M418 139h20"></path>
</g>
</g>
<path d="M1302 139a10 10 0 0 0 10 -10v-79a10 10 0 0 1 10 -10"></path>
<path d="M224 40a10 10 0 0 1 10 10v109a10 10 0 0 0 10 10"></path>
<g>
<path d="M244 169h0"></path>
<path d="M440 169h862"></path>
<g class="terminal">
<path d="M244 169h0"></path>
<path d="M344 169h0"></path>
<rect x="244" y="158" width="100" height="22" rx="10" ry="10"></rect>
<text x="294" y="173">"POSITION"</text>
</g>
<path d="M344 169h10"></path>
<path d="M354 169h10"></path>
<g class="non-terminal">
<path d="M364 169h0"></path>
<path d="M440 169h0"></path>
<rect x="364" y="158" width="76" height="22"></rect>
<a xlink:href="reuse_integer.svg"><text x="402" y="173">Integer</text>
</a>
</g>
</g>
<path d="M1302 169a10 10 0 0 0 10 -10v-109a10 10 0 0 1 10 -10"></path>
<path d="M224 40a10 10 0 0 1 10 10v139a10 10 0 0 0 10 10"></path>
<g>
<path d="M244 199h0"></path>
<path d="M472 199h830"></path>
<g class="terminal">
<path d="M244 199h0"></path>
<path d="M392 199h0"></path>
<rect x="244" y="188" width="148" height="22" rx="10" ry="10"></rect>
<text x="318" y="203">"INCLUDE BLOCKS"</text>
</g>
<path d="M392 199h10"></path>
<path d="M402 199h10"></path>
<g class="terminal">
<path d="M412 199h0"></path>
<path d="M472 199h0"></path>
<rect x="412" y="188" width="60" height="22" rx="10" ry="10"></rect>
<text x="442" y="203">^\w+$</text>
</g>
</g>
<path d="M1302 199a10 10 0 0 0 10 -10v-139a10 10 0 0 1 10 -10"></path>
<path d="M224 40a10 10 0 0 1 10 10v178a10 10 0 0 0 10 10"></path>
<g>
<path d="M244 238h0"></path>
<path d="M842 238h460"></path>
<g class="terminal">
<path d="M244 238h0"></path>
<path d="M392 238h0"></path>
<rect x="244" y="227" width="148" height="22" rx="10" ry="10"></rect>
<text x="318" y="242">"BEGIN OF BLOCK"</text>
</g>
<path d="M392 238h10"></path>
<path d="M402 238h10"></path>
<g class="terminal">
<path d="M412 238h0"></path>
<path d="M472 238h0"></path>
<rect x="412" y="227" width="60" height="22" rx="10" ry="10"></rect>
<text x="442" y="242">^\w+$</text>
</g>
<path d="M472 238h10"></path>
<g>
<path d="M482 238h0"></path>
<path d="M638 238h0"></path>
<path d="M482 238a10 10 0 0 0 10 -10v0a10 10 0 0 1 10 -10"></path>
<g>
<path d="M502 218h116"></path>
</g>
<path d="M618 218a10 10 0 0 1 10 10v0a10 10 0 0 0 10 10"></path>
<path d="M482 238h20"></path>
<g class="terminal">
<path d="M502 238h0"></path>
<path d="M618 238h0"></path>
<rect x="502" y="227" width="116" height="22" rx="10" ry="10"></rect>
<text x="560" y="242">"WITH FRAME"</text>
</g>
<path d="M618 238h20"></path>
</g>
<g>
<path d="M638 238h0"></path>
<path d="M842 238h0"></path>
<path d="M638 238a10 10 0 0 0 10 -10v0a10 10 0 0 1 10 -10"></path>
<g>
<path d="M658 218h164"></path>
</g>
<path d="M822 218a10 10 0 0 1 10 10v0a10 10 0 0 0 10 10"></path>
<path d="M638 238h20"></path>
<g>
<path d="M658 238h0"></path>
<path d="M822 238h0"></path>
<g class="terminal">
<path d="M658 238h0"></path>
<path d="M734 238h0"></path>
<rect x="658" y="227" width="76" height="22" rx="10" ry="10"></rect>
<text x="696" y="242">"TITLE"</text>
</g>
<path d="M734 238h10"></path>
<path d="M744 238h10"></path>
<g class="non-terminal">
<path d="M754 238h0"></path>
<path d="M822 238h0"></path>
<rect x="754" y="227" width="68" height="22"></rect>
<a xlink:href="reuse_source.svg"><text x="788" y="242">Source</text>
</a>
</g>
</g>
<path d="M822 238h20"></path>
</g>
</g>
<path d="M1302 238a10 10 0 0 0 10 -10v-178a10 10 0 0 1 10 -10"></path>
<path d="M224 40a10 10 0 0 1 10 10v208a10 10 0 0 0 10 10"></path>
<g>
<path d="M244 268h0"></path>
<path d="M800 268h502"></path>
<g class="terminal">
<path d="M244 268h0"></path>
<path d="M448 268h0"></path>
<rect x="244" y="257" width="204" height="22" rx="10" ry="10"></rect>
<text x="346" y="272">"BEGIN OF TABBED BLOCK"</text>
</g>
<path d="M448 268h10"></path>
<path d="M458 268h10"></path>
<g class="non-terminal">
<path d="M468 268h0"></path>
<path d="M528 268h0"></path>
<rect x="468" y="257" width="60" height="22"></rect>
<a xlink:href="reuse_field.svg"><text x="498" y="272">Field</text>
</a>
</g>
<path d="M528 268h10"></path>
<path d="M538 268h10"></path>
<g class="terminal">
<path d="M548 268h0"></path>
<path d="M608 268h0"></path>
<rect x="548" y="257" width="60" height="22" rx="10" ry="10"></rect>
<text x="578" y="272">"FOR"</text>
</g>
<path d="M608 268h10"></path>
<path d="M618 268h10"></path>
<g class="non-terminal">
<path d="M628 268h0"></path>
<path d="M704 268h0"></path>
<rect x="628" y="257" width="76" height="22"></rect>
<a xlink:href="reuse_integer.svg"><text x="666" y="272">Integer</text>
</a>
</g>
<path d="M704 268h10"></path>
<path d="M714 268h10"></path>
<g class="terminal">
<path d="M724 268h0"></path>
<path d="M800 268h0"></path>
<rect x="724" y="257" width="76" height="22" rx="10" ry="10"></rect>
<text x="762" y="272">"LINES"</text>
</g>
</g>
<path d="M1302 268a10 10 0 0 0 10 -10v-208a10 10 0 0 1 10 -10"></path>
<path d="M224 40a10 10 0 0 1 10 10v238a10 10 0 0 0 10 10"></path>
<g>
<path d="M244 298h0"></path>
<path d="M456 298h846"></path>
<g class="terminal">
<path d="M244 298h0"></path>
<path d="M376 298h0"></path>
<rect x="244" y="287" width="132" height="22" rx="10" ry="10"></rect>
<text x="310" y="302">"END OF BLOCK"</text>
</g>
<path d="M376 298h10"></path>
<path d="M386 298h10"></path>
<g class="terminal">
<path d="M396 298h0"></path>
<path d="M456 298h0"></path>
<rect x="396" y="287" width="60" height="22" rx="10" ry="10"></rect>
<text x="426" y="302">^\w+$</text>
</g>
</g>
<path d="M1302 298a10 10 0 0 0 10 -10v-238a10 10 0 0 1 10 -10"></path>
<path d="M224 40a10 10 0 0 1 10 10v268a10 10 0 0 0 10 10"></path>
<g class="terminal">
<path d="M244 328h0"></path>
<path d="M384 328h918"></path>
<rect x="244" y="317" width="140" height="22" rx="10" ry="10"></rect>
<text x="314" y="332">"BEGIN OF LINE"</text>
</g>
<path d="M1302 328a10 10 0 0 0 10 -10v-268a10 10 0 0 1 10 -10"></path>
<path d="M224 40a10 10 0 0 1 10 10v298a10 10 0 0 0 10 10"></path>
<g class="terminal">
<path d="M244 358h0"></path>
<path d="M368 358h934"></path>
<rect x="244" y="347" width="124" height="22" rx="10" ry="10"></rect>
<text x="306" y="362">"END OF LINE"</text>
</g>
<path d="M1302 358a10 10 0 0 0 10 -10v-298a10 10 0 0 1 10 -10"></path>
<path d="M224 40a10 10 0 0 1 10 10v337a10 10 0 0 0 10 10"></path>
<g>
<path d="M244 397h0"></path>
<path d="M882 397h420"></path>
<g class="terminal">
<path d="M244 397h0"></path>
<path d="M400 397h0"></path>
<rect x="244" y="386" width="156" height="22" rx="10" ry="10"></rect>
<text x="322" y="401">"BEGIN OF SCREEN"</text>
</g>
<path d="M400 397h10"></path>
<path d="M410 397h10"></path>
<g class="non-terminal">
<path d="M420 397h0"></path>
<path d="M496 397h0"></path>
<rect x="420" y="386" width="76" height="22"></rect>
<a xlink:href="reuse_integer.svg"><text x="458" y="401">Integer</text>
</a>
</g>
<path d="M496 397h10"></path>
<g>
<path d="M506 397h0"></path>
<path d="M678 397h0"></path>
<path d="M506 397a10 10 0 0 0 10 -10v0a10 10 0 0 1 10 -10"></path>
<g>
<path d="M526 377h132"></path>
</g>
<path d="M658 377a10 10 0 0 1 10 10v0a10 10 0 0 0 10 10"></path>
<path d="M506 397h20"></path>
<g class="terminal">
<path d="M526 397h0"></path>
<path d="M658 397h0"></path>
<rect x="526" y="386" width="132" height="22" rx="10" ry="10"></rect>
<text x="592" y="401">"AS SUBSCREEN"</text>
</g>
<path d="M658 397h20"></path>
</g>
<g>
<path d="M678 397h0"></path>
<path d="M882 397h0"></path>
<path d="M678 397a10 10 0 0 0 10 -10v0a10 10 0 0 1 10 -10"></path>
<g>
<path d="M698 377h164"></path>
</g>
<path d="M862 377a10 10 0 0 1 10 10v0a10 10 0 0 0 10 10"></path>
<path d="M678 397h20"></path>
<g>
<path d="M698 397h0"></path>
<path d="M862 397h0"></path>
<g class="terminal">
<path d="M698 397h0"></path>
<path d="M774 397h0"></path>
<rect x="698" y="386" width="76" height="22" rx="10" ry="10"></rect>
<text x="736" y="401">"TITLE"</text>
</g>
<path d="M774 397h10"></path>
<path d="M784 397h10"></path>
<g class="non-terminal">
<path d="M794 397h0"></path>
<path d="M862 397h0"></path>
<rect x="794" y="386" width="68" height="22"></rect>
<a xlink:href="reuse_source.svg"><text x="828" y="401">Source</text>
</a>
</g>
</g>
<path d="M862 397h20"></path>
</g>
</g>
<path d="M1302 397a10 10 0 0 0 10 -10v-337a10 10 0 0 1 10 -10"></path>
<path d="M224 40a10 10 0 0 1 10 10v367a10 10 0 0 0 10 10"></path>
<g>
<path d="M244 427h0"></path>
<path d="M480 427h822"></path>
<g class="terminal">
<path d="M244 427h0"></path>
<path d="M384 427h0"></path>
<rect x="244" y="416" width="140" height="22" rx="10" ry="10"></rect>
<text x="314" y="431">"END OF SCREEN"</text>
</g>
<path d="M384 427h10"></path>
<path d="M394 427h10"></path>
<g class="non-terminal">
<path d="M404 427h0"></path>
<path d="M480 427h0"></path>
<rect x="404" y="416" width="76" height="22"></rect>
<a xlink:href="reuse_integer.svg"><text x="442" y="431">Integer</text>
</a>
</g>
</g>
<path d="M1302 427a10 10 0 0 0 10 -10v-367a10 10 0 0 1 10 -10"></path>
</g>
</g>
<path d="M1322 40h10"></path>
<path d="M 1332 40 h 20 m -10 -10 v 20 m 10 -20 v 20"></path>
</g>
</svg>
