<svg xmlns="http://www.w3.org/2000/svg" xmlns:xlink="http://www.w3.org/1999/xlink" class="railroad-diagram" width="1848" height="386" viewBox="0 0 1848 386">
<defs>
<style type="text/css"><![CDATA[
path {
stroke-width: 3;
stroke: black;
fill: rgba(0,0,0,0);
}
text {
font: bold 14px monospace;
text-anchor: middle;
}
text.diagram-text {
font-size: 12px;
}
a {
fill: blue;
}
text.diagram-arrow {
font-size: 16px;
}
text.label {
text-anchor: start;
}
text.comment {
font: italic 12px monospace;
}
rect {
stroke-width: 3;
stroke: black;
fill: #BCBCBC;
}
path.diagram-text {
stroke-width: 3;
stroke: black;
fill: #BCBCBC;
cursor: help;
}
]]></style>
</defs>
<g transform="translate(.5 .5)">
<path d="M 20 30 v 20 m 10 -20 v 20 m -10 -10 h 20.5"></path>
<path d="M40 40h10"></path>
<g>
<path d="M50 40h0"></path>
<path d="M1798 40h0"></path>
<g class="terminal">
<path d="M50 40h0"></path>
<path d="M134 40h0"></path>
<rect x="50" y="29" width="84" height="22" rx="10" ry="10"></rect>
<text x="92" y="44">"SELECT"</text>
</g>
<path d="M134 40h10"></path>
<g>
<path d="M144 40h0"></path>
<path d="M268 40h0"></path>
<path d="M144 40a10 10 0 0 0 10 -10v0a10 10 0 0 1 10 -10"></path>
<g>
<path d="M164 20h84"></path>
</g>
<path d="M248 20a10 10 0 0 1 10 10v0a10 10 0 0 0 10 10"></path>
<path d="M144 40h20"></path>
<g class="terminal">
<path d="M164 40h0"></path>
<path d="M248 40h0"></path>
<rect x="164" y="29" width="84" height="22" rx="10" ry="10"></rect>
<text x="206" y="44">"SINGLE"</text>
</g>
<path d="M248 40h20"></path>
</g>
<g>
<path d="M268 40h0"></path>
<path d="M716 40h0"></path>
<path d="M268 40h20"></path>
<g class="terminal">
<path d="M288 40h182"></path>
<path d="M514 40h182"></path>
<rect x="470" y="29" width="44" height="22" rx="10" ry="10"></rect>
<text x="492" y="44">"&#42;"</text>
</g>
<path d="M696 40h20"></path>
<path d="M268 40a10 10 0 0 1 10 10v10a10 10 0 0 0 10 10"></path>
<g>
<path d="M288 70h0"></path>
<path d="M696 70h0"></path>
<g class="terminal">
<path d="M288 70h0"></path>
<path d="M364 70h0"></path>
<rect x="288" y="59" width="76" height="22" rx="10" ry="10"></rect>
<text x="326" y="74">"COUNT"</text>
</g>
<path d="M364 70h10"></path>
<g>
<path d="M374 70h0"></path>
<path d="M578 70h0"></path>
<path d="M374 70h20"></path>
<g class="terminal">
<path d="M394 70h4"></path>
<path d="M554 70h4"></path>
<rect x="398" y="59" width="156" height="22" rx="10" ry="10"></rect>
<text x="476" y="74">Token "ParenLeft"</text>
</g>
<path d="M558 70h20"></path>
<path d="M374 70a10 10 0 0 1 10 10v10a10 10 0 0 0 10 10"></path>
<g class="terminal">
<path d="M394 100h0"></path>
<path d="M558 100h0"></path>
<rect x="394" y="89" width="164" height="22" rx="10" ry="10"></rect>
<text x="476" y="104">Token "ParenLeftW"</text>
</g>
<path d="M558 100a10 10 0 0 0 10 -10v-10a10 10 0 0 1 10 -10"></path>
</g>
<path d="M578 70h10"></path>
<g class="terminal">
<path d="M588 70h0"></path>
<path d="M632 70h0"></path>
<rect x="588" y="59" width="44" height="22" rx="10" ry="10"></rect>
<text x="610" y="74">"&#42;"</text>
</g>
<path d="M632 70h10"></path>
<path d="M642 70h10"></path>
<g class="terminal">
<path d="M652 70h0"></path>
<path d="M696 70h0"></path>
<rect x="652" y="59" width="44" height="22" rx="10" ry="10"></rect>
<text x="674" y="74">")"</text>
</g>
</g>
<path d="M696 70a10 10 0 0 0 10 -10v-10a10 10 0 0 1 10 -10"></path>
<path d="M268 40a10 10 0 0 1 10 10v70a10 10 0 0 0 10 10"></path>
<g>
<path d="M288 130h164"></path>
<path d="M532 130h164"></path>
<path d="M452 130h10"></path>
<g class="non-terminal">
<path d="M462 130h0"></path>
<path d="M522 130h0"></path>
<rect x="462" y="119" width="60" height="22"></rect>
<a xlink:href="reuse_field.svg"><text x="492" y="134">field</text>
</a>
</g>
<path d="M522 130h10"></path>
<path d="M462 130a10 10 0 0 0 -10 10v0a10 10 0 0 0 10 10"></path>
<g>
<path d="M462 150h60"></path>
</g>
<path d="M522 150a10 10 0 0 0 10 -10v0a10 10 0 0 0 -10 -10"></path>
</g>
<path d="M696 130a10 10 0 0 0 10 -10v-70a10 10 0 0 1 10 -10"></path>
</g>
<path d="M716 40h10"></path>
<g>
<path d="M726 40h0"></path>
<path d="M1798 40h0"></path>
<path d="M756 40h10"></path>
<g>
<path d="M766 40h254"></path>
<path d="M1514 40h254"></path>
<g class="terminal">
<path d="M1020 40h0"></path>
<path d="M1088 40h0"></path>
<rect x="1020" y="29" width="68" height="22" rx="10" ry="10"></rect>
<text x="1054" y="44">"FROM"</text>
</g>
<path d="M1088 40h10"></path>
<g>
<path d="M1098 40h0"></path>
<path d="M1270 40h0"></path>
<path d="M1098 40h20"></path>
<g class="non-terminal">
<path d="M1118 40h28"></path>
<path d="M1222 40h28"></path>
<rect x="1146" y="29" width="76" height="22"></rect>
<a xlink:href="reuse_dynamic.svg"><text x="1184" y="44">dynamic</text>
</a>
</g>
<path d="M1250 40h20"></path>
<path d="M1098 40a10 10 0 0 1 10 10v10a10 10 0 0 0 10 10"></path>
<g class="non-terminal">
<path d="M1118 70h0"></path>
<path d="M1250 70h0"></path>
<rect x="1118" y="59" width="132" height="22"></rect>
<a xlink:href="reuse_database_table.svg"><text x="1184" y="74">database&#95;table</text>
</a>
</g>
<path d="M1250 70a10 10 0 0 0 10 -10v-10a10 10 0 0 1 10 -10"></path>
</g>
<g>
<path d="M1270 40h0"></path>
<path d="M1514 40h0"></path>
<path d="M1270 40a10 10 0 0 0 10 -10v0a10 10 0 0 1 10 -10"></path>
<g>
<path d="M1290 20h204"></path>
</g>
<path d="M1494 20a10 10 0 0 1 10 10v0a10 10 0 0 0 10 10"></path>
<path d="M1270 40h20"></path>
<g>
<path d="M1290 40h0"></path>
<path d="M1494 40h0"></path>
<g class="terminal">
<path d="M1290 40h0"></path>
<path d="M1342 40h0"></path>
<rect x="1290" y="29" width="52" height="22" rx="10" ry="10"></rect>
<text x="1316" y="44">"AS"</text>
</g>
<path d="M1342 40h10"></path>
<path d="M1352 40h10"></path>
<g class="non-terminal">
<path d="M1362 40h0"></path>
<path d="M1494 40h0"></path>
<rect x="1362" y="29" width="132" height="22"></rect>
<a xlink:href="reuse_database_table.svg"><text x="1428" y="44">database&#95;table</text>
</a>
</g>
</g>
<path d="M1494 40h20"></path>
</g>
</g>
<path d="M1768 40h10"></path>
<path d="M756 40v50a10 10 0 0 0 10 10"></path>
<g>
<path d="M766 100h285"></path>
<path d="M1483 100h285"></path>
<g class="terminal">
<path d="M1051 100h0"></path>
<path d="M1167 100h0"></path>
<rect x="1051" y="89" width="116" height="22" rx="10" ry="10"></rect>
<text x="1109" y="104">"INNER JOIN"</text>
</g>
<path d="M1167 100h10"></path>
<path d="M1177 100h10"></path>
<g class="non-terminal">
<path d="M1187 100h0"></path>
<path d="M1319 100h0"></path>
<rect x="1187" y="89" width="132" height="22"></rect>
<a xlink:href="reuse_database_table.svg"><text x="1253" y="104">database&#95;table</text>
</a>
</g>
<path d="M1319 100h10"></path>
<path d="M1329 100h10"></path>
<g class="terminal">
<path d="M1339 100h0"></path>
<path d="M1391 100h0"></path>
<rect x="1339" y="89" width="52" height="22" rx="10" ry="10"></rect>
<text x="1365" y="104">"ON"</text>
</g>
<path d="M1391 100h10"></path>
<path d="M1401 100h10"></path>
<g>
<path d="M1411 100h0"></path>
<path d="M1483 100h0"></path>
<path d="M1411 100h10"></path>
<g class="non-terminal">
<path d="M1421 100h0"></path>
<path d="M1473 100h0"></path>
<rect x="1421" y="89" width="52" height="22"></rect>
<a xlink:href="reuse_cond.svg"><text x="1447" y="104">cond</text>
</a>
</g>
<path d="M1473 100h10"></path>
<path d="M1421 100a10 10 0 0 0 -10 10v0a10 10 0 0 0 10 10"></path>
<g>
<path d="M1421 120h52"></path>
</g>
<path d="M1473 120a10 10 0 0 0 10 -10v0a10 10 0 0 0 -10 -10"></path>
</g>
</g>
<path d="M1768 100a10 10 0 0 0 10 -10v-50"></path>
<path d="M756 40v98a10 10 0 0 0 10 10"></path>
<g>
<path d="M766 148h0"></path>
<path d="M1768 148h0"></path>
<g class="terminal">
<path d="M766 148h0"></path>
<path d="M834 148h0"></path>
<rect x="766" y="137" width="68" height="22" rx="10" ry="10"></rect>
<text x="800" y="152">"INTO"</text>
</g>
<path d="M834 148h10"></path>
<g>
<path d="M844 148h0"></path>
<path d="M1104 148h0"></path>
<path d="M844 148a10 10 0 0 0 10 -10v0a10 10 0 0 1 10 -10"></path>
<g>
<path d="M864 128h220"></path>
</g>
<path d="M1084 128a10 10 0 0 1 10 10v0a10 10 0 0 0 10 10"></path>
<path d="M844 148h20"></path>
<g class="terminal">
<path d="M864 148h0"></path>
<path d="M1084 148h0"></path>
<rect x="864" y="137" width="220" height="22" rx="10" ry="10"></rect>
<text x="974" y="152">"CORRESPONDING FIELDS OF"</text>
</g>
<path d="M1084 148h20"></path>
</g>
<g>
<path d="M1104 148h0"></path>
<path d="M1220 148h0"></path>
<path d="M1104 148a10 10 0 0 0 10 -10v0a10 10 0 0 1 10 -10"></path>
<g>
<path d="M1124 128h76"></path>
</g>
<path d="M1200 128a10 10 0 0 1 10 10v0a10 10 0 0 0 10 10"></path>
<path d="M1104 148h20"></path>
<g class="terminal">
<path d="M1124 148h0"></path>
<path d="M1200 148h0"></path>
<rect x="1124" y="137" width="76" height="22" rx="10" ry="10"></rect>
<text x="1162" y="152">"TABLE"</text>
</g>
<path d="M1200 148h20"></path>
</g>
<g>
<path d="M1220 148h0"></path>
<path d="M1768 148h0"></path>
<path d="M1220 148h20"></path>
<g class="non-terminal">
<path d="M1240 148h220"></path>
<path d="M1528 148h220"></path>
<rect x="1460" y="137" width="68" height="22"></rect>
<a xlink:href="reuse_target.svg"><text x="1494" y="152">target</text>
</a>
</g>
<path d="M1748 148h20"></path>
<path d="M1220 148a10 10 0 0 1 10 10v19a10 10 0 0 0 10 10"></path>
<g>
<path d="M1240 187h0"></path>
<path d="M1748 187h0"></path>
<g class="terminal">
<path d="M1240 187h0"></path>
<path d="M1404 187h0"></path>
<rect x="1240" y="176" width="164" height="22" rx="10" ry="10"></rect>
<text x="1322" y="191">Token "WParenLeft"</text>
</g>
<path d="M1404 187h10"></path>
<g>
<path d="M1414 187h0"></path>
<path d="M1606 187h0"></path>
<path d="M1414 187a10 10 0 0 0 10 -10v0a10 10 0 0 1 10 -10"></path>
<g>
<path d="M1434 167h152"></path>
</g>
<path d="M1586 167a10 10 0 0 1 10 10v0a10 10 0 0 0 10 10"></path>
<path d="M1414 187h20"></path>
<g>
<path d="M1434 187h0"></path>
<path d="M1586 187h0"></path>
<path d="M1434 187h10"></path>
<g>
<path d="M1444 187h0"></path>
<path d="M1576 187h0"></path>
<g class="non-terminal">
<path d="M1444 187h0"></path>
<path d="M1512 187h0"></path>
<rect x="1444" y="176" width="68" height="22"></rect>
<a xlink:href="reuse_target.svg"><text x="1478" y="191">target</text>
</a>
</g>
<path d="M1512 187h10"></path>
<path d="M1522 187h10"></path>
<g class="terminal">
<path d="M1532 187h0"></path>
<path d="M1576 187h0"></path>
<rect x="1532" y="176" width="44" height="22" rx="10" ry="10"></rect>
<text x="1554" y="191">","</text>
</g>
</g>
<path d="M1576 187h10"></path>
<path d="M1444 187a10 10 0 0 0 -10 10v0a10 10 0 0 0 10 10"></path>
<g>
<path d="M1444 207h132"></path>
</g>
<path d="M1576 207a10 10 0 0 0 10 -10v0a10 10 0 0 0 -10 -10"></path>
</g>
<path d="M1586 187h20"></path>
</g>
<path d="M1606 187h10"></path>
<g class="non-terminal">
<path d="M1616 187h0"></path>
<path d="M1684 187h0"></path>
<rect x="1616" y="176" width="68" height="22"></rect>
<a xlink:href="reuse_target.svg"><text x="1650" y="191">target</text>
</a>
</g>
<path d="M1684 187h10"></path>
<path d="M1694 187h10"></path>
<g class="terminal">
<path d="M1704 187h0"></path>
<path d="M1748 187h0"></path>
<rect x="1704" y="176" width="44" height="22" rx="10" ry="10"></rect>
<text x="1726" y="191">")"</text>
</g>
</g>
<path d="M1748 187a10 10 0 0 0 10 -10v-19a10 10 0 0 1 10 -10"></path>
</g>
</g>
<path d="M1768 148a10 10 0 0 0 10 -10v-98"></path>
<path d="M756 40v176a10 10 0 0 0 10 10"></path>
<g>
<path d="M766 226h367"></path>
<path d="M1401 226h367"></path>
<g class="terminal">
<path d="M1133 226h0"></path>
<path d="M1313 226h0"></path>
<rect x="1133" y="215" width="180" height="22" rx="10" ry="10"></rect>
<text x="1223" y="230">"FOR ALL ENTRIES IN"</text>
</g>
<path d="M1313 226h10"></path>
<path d="M1323 226h10"></path>
<g class="non-terminal">
<path d="M1333 226h0"></path>
<path d="M1401 226h0"></path>
<rect x="1333" y="215" width="68" height="22"></rect>
<a xlink:href="reuse_source.svg"><text x="1367" y="230">source</text>
</a>
</g>
</g>
<path d="M1768 226a10 10 0 0 0 10 -10v-176"></path>
<path d="M756 40v206a10 10 0 0 0 10 10"></path>
<g>
<path d="M766 256h427"></path>
<path d="M1341 256h427"></path>
<g class="terminal">
<path d="M1193 256h0"></path>
<path d="M1269 256h0"></path>
<rect x="1193" y="245" width="76" height="22" rx="10" ry="10"></rect>
<text x="1231" y="260">"WHERE"</text>
</g>
<path d="M1269 256h10"></path>
<path d="M1279 256h10"></path>
<g class="non-terminal">
<path d="M1289 256h0"></path>
<path d="M1341 256h0"></path>
<rect x="1289" y="245" width="52" height="22"></rect>
<a xlink:href="reuse_cond.svg"><text x="1315" y="260">cond</text>
</a>
</g>
</g>
<path d="M1768 256a10 10 0 0 0 10 -10v-206"></path>
<path d="M756 40v236a10 10 0 0 0 10 10"></path>
<g>
<path d="M766 286h364"></path>
<path d="M1404 286h364"></path>
<g class="terminal">
<path d="M1130 286h0"></path>
<path d="M1230 286h0"></path>
<rect x="1130" y="275" width="100" height="22" rx="10" ry="10"></rect>
<text x="1180" y="290">"ORDER BY"</text>
</g>
<path d="M1230 286h10"></path>
<g>
<path d="M1240 286h0"></path>
<path d="M1404 286h0"></path>
<path d="M1240 286h20"></path>
<g>
<path d="M1260 286h22"></path>
<path d="M1362 286h22"></path>
<path d="M1282 286h10"></path>
<g class="non-terminal">
<path d="M1292 286h0"></path>
<path d="M1352 286h0"></path>
<rect x="1292" y="275" width="60" height="22"></rect>
<a xlink:href="reuse_field.svg"><text x="1322" y="290">field</text>
</a>
</g>
<path d="M1352 286h10"></path>
<path d="M1292 286a10 10 0 0 0 -10 10v0a10 10 0 0 0 10 10"></path>
<g>
<path d="M1292 306h60"></path>
</g>
<path d="M1352 306a10 10 0 0 0 10 -10v0a10 10 0 0 0 -10 -10"></path>
</g>
<path d="M1384 286h20"></path>
<path d="M1240 286a10 10 0 0 1 10 10v19a10 10 0 0 0 10 10"></path>
<g class="terminal">
<path d="M1260 325h0"></path>
<path d="M1384 325h0"></path>
<rect x="1260" y="314" width="124" height="22" rx="10" ry="10"></rect>
<text x="1322" y="329">"PRIMARY KEY"</text>
</g>
<path d="M1384 325a10 10 0 0 0 10 -10v-19a10 10 0 0 1 10 -10"></path>
</g>
</g>
<path d="M1768 286a10 10 0 0 0 10 -10v-236"></path>
<path d="M756 40v305a10 10 0 0 0 10 10"></path>
<g>
<path d="M766 355h375"></path>
<path d="M1393 355h375"></path>
<g class="terminal">
<path d="M1141 355h0"></path>
<path d="M1217 355h0"></path>
<rect x="1141" y="344" width="76" height="22" rx="10" ry="10"></rect>
<text x="1179" y="359">"UP TO"</text>
</g>
<path d="M1217 355h10"></path>
<path d="M1227 355h10"></path>
<g class="non-terminal">
<path d="M1237 355h0"></path>
<path d="M1305 355h0"></path>
<rect x="1237" y="344" width="68" height="22"></rect>
<a xlink:href="reuse_source.svg"><text x="1271" y="359">source</text>
</a>
</g>
<path d="M1305 355h10"></path>
<path d="M1315 355h10"></path>
<g class="terminal">
<path d="M1325 355h0"></path>
<path d="M1393 355h0"></path>
<rect x="1325" y="344" width="68" height="22" rx="10" ry="10"></rect>
<text x="1359" y="359">"ROWS"</text>
</g>
</g>
<path d="M1768 355a10 10 0 0 0 10 -10v-305"></path>
<g class="diagram-text">
<title>take one or more branches, once each, in any order</title>
<path d="M 756 30 h -26 a 4 4 0 0 0 -4 4 v 12 a 4 4 0 0 0 4 4 h 26 z" class="diagram-text"></path>
<text x="741" y="44" class="diagram-text">1+</text>
<path d="M 1778 30 h 16 a 4 4 0 0 1 4 4 v 12 a 4 4 0 0 1 -4 4 h -16 z" class="diagram-text"></path>
<path d="M 1785 38 a 4 4 0 1 0 6 -1 m 2.75 -1 h -4 v 4 m 0 -3 h 2" style="stroke-width: 1.75"></path>
</g>
</g>
</g>
<path d="M1798 40h10"></path>
<path d="M 1808 40 h 20 m -10 -10 v 20 m 10 -20 v 20"></path>
</g>
</svg>
