<svg xmlns="http://www.w3.org/2000/svg" xmlns:xlink="http://www.w3.org/1999/xlink" class="railroad-diagram" width="876" height="281" viewBox="0 0 876 281">
<defs>
<style type="text/css"><![CDATA[
path {
stroke-width: 3;
stroke: black;
fill: rgba(0,0,0,0);
}
text {
font: bold 14px monospace;
text-anchor: middle;
}
text.diagram-text {
font-size: 12px;
}
a {
fill: blue;
}
text.diagram-arrow {
font-size: 16px;
}
text.label {
text-anchor: start;
}
text.comment {
font: italic 12px monospace;
}
rect {
stroke-width: 3;
stroke: black;
fill: #BCBCBC;
}
path.diagram-text {
stroke-width: 3;
stroke: black;
fill: #BCBCBC;
cursor: help;
}
]]></style>
</defs>
<g transform="translate(.5 .5)">
<path d="M 20 30 v 20 m 10 -20 v 20 m -10 -10 h 20.5"></path>
<path d="M40 40h10"></path>
<g>
<path d="M50 40h0"></path>
<path d="M826 40h0"></path>
<g class="terminal">
<path d="M50 40h0"></path>
<path d="M198 40h0"></path>
<rect x="50" y="29" width="148" height="22" rx="10" ry="10"></rect>
<text x="124" y="44">"SELECT-OPTIONS"</text>
</g>
<path d="M198 40h10"></path>
<path d="M208 40h10"></path>
<g class="non-terminal">
<path d="M218 40h0"></path>
<path d="M278 40h0"></path>
<rect x="218" y="29" width="60" height="22"></rect>
<a xlink:href="reuse_field.svg"><text x="248" y="44">Field</text>
</a>
</g>
<path d="M278 40h10"></path>
<path d="M288 40h10"></path>
<g class="terminal">
<path d="M298 40h0"></path>
<path d="M358 40h0"></path>
<rect x="298" y="29" width="60" height="22" rx="10" ry="10"></rect>
<text x="328" y="44">"FOR"</text>
</g>
<path d="M358 40h10"></path>
<path d="M368 40h10"></path>
<g class="non-terminal">
<path d="M378 40h0"></path>
<path d="M462 40h0"></path>
<rect x="378" y="29" width="84" height="22"></rect>
<a xlink:href="reuse_fieldsub.svg"><text x="420" y="44">FieldSub</text>
</a>
</g>
<path d="M462 40h10"></path>
<g>
<path d="M472 40h0"></path>
<path d="M826 40h0"></path>
<path d="M472 40a10 10 0 0 0 10 -10v0a10 10 0 0 1 10 -10"></path>
<g>
<path d="M492 20h314"></path>
</g>
<path d="M806 20a10 10 0 0 1 10 10v0a10 10 0 0 0 10 10"></path>
<path d="M472 40h20"></path>
<g>
<path d="M492 40h0"></path>
<path d="M806 40h0"></path>
<path d="M522 40h10"></path>
<g>
<path d="M532 40h0"></path>
<path d="M774 40h2"></path>
<g class="terminal">
<path d="M532 40h0"></path>
<path d="M624 40h0"></path>
<rect x="532" y="29" width="92" height="22" rx="10" ry="10"></rect>
<text x="578" y="44">"DEFAULT"</text>
</g>
<path d="M624 40h10"></path>
<g>
<path d="M634 40h0"></path>
<path d="M774 40h0"></path>
<path d="M634 40h20"></path>
<g class="non-terminal">
<path d="M654 40h0"></path>
<path d="M738 40h16"></path>
<rect x="654" y="29" width="84" height="22"></rect>
<a xlink:href="reuse_constant.svg"><text x="696" y="44">Constant</text>
</a>
</g>
<path d="M754 40h20"></path>
<path d="M634 40a10 10 0 0 1 10 10v10a10 10 0 0 0 10 10"></path>
<g class="non-terminal">
<path d="M654 70h0"></path>
<path d="M754 70h0"></path>
<rect x="654" y="59" width="100" height="22"></rect>
<a xlink:href="reuse_fieldchain.svg"><text x="704" y="74">FieldChain</text>
</a>
</g>
<path d="M754 70a10 10 0 0 0 10 -10v-10a10 10 0 0 1 10 -10"></path>
</g>
</g>
<path d="M776 40h10"></path>
<path d="M522 40v50a10 10 0 0 0 10 10"></path>
<g>
<path d="M532 100h0"></path>
<path d="M696 100h80"></path>
<g class="terminal">
<path d="M532 100h0"></path>
<path d="M616 100h0"></path>
<rect x="532" y="89" width="84" height="22" rx="10" ry="10"></rect>
<text x="574" y="104">"OPTION"</text>
</g>
<path d="M616 100h10"></path>
<path d="M626 100h10"></path>
<g class="non-terminal">
<path d="M636 100h0"></path>
<path d="M696 100h0"></path>
<rect x="636" y="89" width="60" height="22"></rect>
<a xlink:href="reuse_field.svg"><text x="666" y="104">Field</text>
</a>
</g>
</g>
<path d="M776 100a10 10 0 0 0 10 -10v-50"></path>
<path d="M522 40v80a10 10 0 0 0 10 10"></path>
<g>
<path d="M532 130h0"></path>
<path d="M720 130h56"></path>
<g class="terminal">
<path d="M532 130h0"></path>
<path d="M640 130h0"></path>
<rect x="532" y="119" width="108" height="22" rx="10" ry="10"></rect>
<text x="586" y="134">"MEMORY ID"</text>
</g>
<path d="M640 130h10"></path>
<path d="M650 130h10"></path>
<g class="non-terminal">
<path d="M660 130h0"></path>
<path d="M720 130h0"></path>
<rect x="660" y="119" width="60" height="22"></rect>
<a xlink:href="reuse_field.svg"><text x="690" y="134">Field</text>
</a>
</g>
</g>
<path d="M776 130a10 10 0 0 0 10 -10v-80"></path>
<path d="M522 40v110a10 10 0 0 0 10 10"></path>
<g>
<path d="M532 160h0"></path>
<path d="M776 160h0"></path>
<g class="terminal">
<path d="M532 160h0"></path>
<path d="M696 160h0"></path>
<rect x="532" y="149" width="164" height="22" rx="10" ry="10"></rect>
<text x="614" y="164">"MATCHCODE OBJECT"</text>
</g>
<path d="M696 160h10"></path>
<path d="M706 160h10"></path>
<g class="non-terminal">
<path d="M716 160h0"></path>
<path d="M776 160h0"></path>
<rect x="716" y="149" width="60" height="22"></rect>
<a xlink:href="reuse_field.svg"><text x="746" y="164">Field</text>
</a>
</g>
</g>
<path d="M776 160a10 10 0 0 0 10 -10v-110"></path>
<path d="M522 40v140a10 10 0 0 0 10 10"></path>
<g class="terminal">
<path d="M532 190h0"></path>
<path d="M664 190h112"></path>
<rect x="532" y="179" width="132" height="22" rx="10" ry="10"></rect>
<text x="598" y="194">"NO-EXTENSION"</text>
</g>
<path d="M776 190a10 10 0 0 0 10 -10v-140"></path>
<path d="M522 40v170a10 10 0 0 0 10 10"></path>
<g class="terminal">
<path d="M532 220h0"></path>
<path d="M664 220h112"></path>
<rect x="532" y="209" width="132" height="22" rx="10" ry="10"></rect>
<text x="598" y="224">"NO INTERVALS"</text>
</g>
<path d="M776 220a10 10 0 0 0 10 -10v-170"></path>
<path d="M522 40v200a10 10 0 0 0 10 10"></path>
<g class="terminal">
<path d="M532 250h0"></path>
<path d="M648 250h128"></path>
<rect x="532" y="239" width="116" height="22" rx="10" ry="10"></rect>
<text x="590" y="254">"OBLIGATORY"</text>
</g>
<path d="M776 250a10 10 0 0 0 10 -10v-200"></path>
<g class="diagram-text">
<title>take one or more branches, once each, in any order</title>
<path d="M 522 30 h -26 a 4 4 0 0 0 -4 4 v 12 a 4 4 0 0 0 4 4 h 26 z" class="diagram-text"></path>
<text x="507" y="44" class="diagram-text">1+</text>
<path d="M 786 30 h 16 a 4 4 0 0 1 4 4 v 12 a 4 4 0 0 1 -4 4 h -16 z" class="diagram-text"></path>
<path d="M 793 38 a 4 4 0 1 0 6 -1 m 2.75 -1 h -4 v 4 m 0 -3 h 2" style="stroke-width: 1.75"></path>
</g>
</g>
<path d="M806 40h20"></path>
</g>
</g>
<path d="M826 40h10"></path>
<path d="M 836 40 h 20 m -10 -10 v 20 m 10 -20 v 20"></path>
</g>
</svg>
