<svg xmlns="http://www.w3.org/2000/svg" xmlns:xlink="http://www.w3.org/1999/xlink" class="railroad-diagram" width="1262" height="772" viewBox="0 0 1262 772">
<defs>
<style type="text/css"><![CDATA[
path {
stroke-width: 3;
stroke: black;
fill: rgba(0,0,0,0);
}
text {
font: bold 14px monospace;
text-anchor: middle;
}
text.diagram-text {
font-size: 12px;
}
a {
fill: blue;
}
text.diagram-arrow {
font-size: 16px;
}
text.label {
text-anchor: start;
}
text.comment {
font: italic 12px monospace;
}
rect {
stroke-width: 3;
stroke: black;
fill: #BCBCBC;
}
path.diagram-text {
stroke-width: 3;
stroke: black;
fill: #BCBCBC;
cursor: help;
}
]]></style>
</defs>
<g transform="translate(.5 .5)">
<path d="M 20 30 v 20 m 10 -20 v 20 m -10 -10 h 20.5"></path>
<path d="M40 40h10"></path>
<g>
<path d="M50 40h0"></path>
<path d="M1212 40h0"></path>
<g class="terminal">
<path d="M50 40h0"></path>
<path d="M214 40h0"></path>
<rect x="50" y="29" width="164" height="22" rx="10" ry="10"></rect>
<text x="132" y="44">"SELECTION-SCREEN"</text>
</g>
<path d="M214 40h10"></path>
<g>
<path d="M224 40h0"></path>
<path d="M1212 40h0"></path>
<path d="M224 40h20"></path>
<g>
<path d="M244 40h0"></path>
<path d="M1192 40h0"></path>
<g class="terminal">
<path d="M244 40h0"></path>
<path d="M336 40h0"></path>
<rect x="244" y="29" width="92" height="22" rx="10" ry="10"></rect>
<text x="290" y="44">"COMMENT"</text>
</g>
<path d="M336 40h10"></path>
<path d="M346 40h10"></path>
<g>
<path d="M356 40h0"></path>
<path d="M776 40h0"></path>
<g>
<path d="M356 40h0"></path>
<path d="M480 40h0"></path>
<path d="M356 40a10 10 0 0 0 10 -10v0a10 10 0 0 1 10 -10"></path>
<g>
<path d="M376 20h84"></path>
</g>
<path d="M460 20a10 10 0 0 1 10 10v0a10 10 0 0 0 10 10"></path>
<path d="M356 40h20"></path>
<g class="terminal">
<path d="M376 40h0"></path>
<path d="M460 40h0"></path>
<rect x="376" y="29" width="84" height="22" rx="10" ry="10"></rect>
<text x="418" y="44">^\/?\d+$</text>
</g>
<path d="M460 40h20"></path>
</g>
<g>
<path d="M480 40h0"></path>
<path d="M580 40h0"></path>
<path d="M480 40h20"></path>
<g class="terminal">
<path d="M500 40h0"></path>
<path d="M552 40h8"></path>
<rect x="500" y="29" width="52" height="22" rx="10" ry="10"></rect>
<text x="526" y="44">!"("</text>
</g>
<path d="M560 40h20"></path>
<path d="M480 40a10 10 0 0 1 10 10v10a10 10 0 0 0 10 10"></path>
<g class="terminal">
<path d="M500 70h0"></path>
<path d="M560 70h0"></path>
<rect x="500" y="59" width="60" height="22" rx="10" ry="10"></rect>
<text x="530" y="74">!" ("</text>
</g>
<path d="M560 70a10 10 0 0 0 10 -10v-10a10 10 0 0 1 10 -10"></path>
</g>
<path d="M580 40h10"></path>
<g class="non-terminal">
<path d="M590 40h0"></path>
<path d="M666 40h0"></path>
<rect x="590" y="29" width="76" height="22"></rect>
<a xlink:href="reuse_integer.svg"><text x="628" y="44">Integer</text>
</a>
</g>
<path d="M666 40h10"></path>
<g>
<path d="M676 40h0"></path>
<path d="M776 40h0"></path>
<path d="M676 40h20"></path>
<g class="terminal">
<path d="M696 40h0"></path>
<path d="M756 40h0"></path>
<rect x="696" y="29" width="60" height="22" rx="10" ry="10"></rect>
<text x="726" y="44">!") "</text>
</g>
<path d="M756 40h20"></path>
<path d="M676 40a10 10 0 0 1 10 10v10a10 10 0 0 0 10 10"></path>
<g class="terminal">
<path d="M696 70h0"></path>
<path d="M748 70h8"></path>
<rect x="696" y="59" width="52" height="22" rx="10" ry="10"></rect>
<text x="722" y="74">!")"</text>
</g>
<path d="M756 70a10 10 0 0 0 10 -10v-10a10 10 0 0 1 10 -10"></path>
</g>
</g>
<path d="M776 40h10"></path>
<g>
<path d="M786 40h0"></path>
<path d="M894 40h0"></path>
<path d="M786 40a10 10 0 0 0 10 -10v0a10 10 0 0 1 10 -10"></path>
<g>
<path d="M806 20h68"></path>
</g>
<path d="M874 20a10 10 0 0 1 10 10v0a10 10 0 0 0 10 10"></path>
<path d="M786 40h20"></path>
<g class="non-terminal">
<path d="M806 40h0"></path>
<path d="M874 40h0"></path>
<rect x="806" y="29" width="68" height="22"></rect>
<a xlink:href="reuse_source.svg"><text x="840" y="44">Source</text>
</a>
</g>
<path d="M874 40h20"></path>
</g>
<g>
<path d="M894 40h0"></path>
<path d="M1192 40h0"></path>
<path d="M894 40a10 10 0 0 0 10 -10v0a10 10 0 0 1 10 -10"></path>
<g>
<path d="M914 20h258"></path>
</g>
<path d="M1172 20a10 10 0 0 1 10 10v0a10 10 0 0 0 10 10"></path>
<path d="M894 40h20"></path>
<g>
<path d="M914 40h0"></path>
<path d="M1172 40h0"></path>
<path d="M944 40h10"></path>
<g>
<path d="M954 40h0"></path>
<path d="M1142 40h0"></path>
<g class="terminal">
<path d="M954 40h0"></path>
<path d="M1062 40h0"></path>
<rect x="954" y="29" width="108" height="22" rx="10" ry="10"></rect>
<text x="1008" y="44">"FOR FIELD"</text>
</g>
<path d="M1062 40h10"></path>
<path d="M1072 40h10"></path>
<g class="non-terminal">
<path d="M1082 40h0"></path>
<path d="M1142 40h0"></path>
<rect x="1082" y="29" width="60" height="22"></rect>
<a xlink:href="reuse_field.svg"><text x="1112" y="44">Field</text>
</a>
</g>
</g>
<path d="M1142 40h10"></path>
<path d="M944 40v20a10 10 0 0 0 10 10"></path>
<g>
<path d="M954 70h0"></path>
<path d="M1134 70h8"></path>
<g class="terminal">
<path d="M954 70h0"></path>
<path d="M1054 70h0"></path>
<rect x="954" y="59" width="100" height="22" rx="10" ry="10"></rect>
<text x="1004" y="74">"MODIF ID"</text>
</g>
<path d="M1054 70h10"></path>
<path d="M1064 70h10"></path>
<g class="non-terminal">
<path d="M1074 70h0"></path>
<path d="M1134 70h0"></path>
<rect x="1074" y="59" width="60" height="22"></rect>
<a xlink:href="reuse_field.svg"><text x="1104" y="74">Field</text>
</a>
</g>
</g>
<path d="M1142 70a10 10 0 0 0 10 -10v-20"></path>
<g class="diagram-text">
<title>take one or more branches, once each, in any order</title>
<path d="M 944 30 h -26 a 4 4 0 0 0 -4 4 v 12 a 4 4 0 0 0 4 4 h 26 z" class="diagram-text"></path>
<text x="929" y="44" class="diagram-text">1+</text>
<path d="M 1152 30 h 16 a 4 4 0 0 1 4 4 v 12 a 4 4 0 0 1 -4 4 h -16 z" class="diagram-text"></path>
<path d="M 1159 38 a 4 4 0 1 0 6 -1 m 2.75 -1 h -4 v 4 m 0 -3 h 2" style="stroke-width: 1.75"></path>
</g>
</g>
<path d="M1172 40h20"></path>
</g>
</g>
<path d="M1192 40h20"></path>
<path d="M224 40a10 10 0 0 1 10 10v40a10 10 0 0 0 10 10"></path>
<g>
<path d="M244 100h0"></path>
<path d="M472 100h720"></path>
<g class="terminal">
<path d="M244 100h0"></path>
<path d="M376 100h0"></path>
<rect x="244" y="89" width="132" height="22" rx="10" ry="10"></rect>
<text x="310" y="104">"FUNCTION KEY"</text>
</g>
<path d="M376 100h10"></path>
<path d="M386 100h10"></path>
<g class="non-terminal">
<path d="M396 100h0"></path>
<path d="M472 100h0"></path>
<rect x="396" y="89" width="76" height="22"></rect>
<a xlink:href="reuse_integer.svg"><text x="434" y="104">Integer</text>
</a>
</g>
</g>
<path d="M1192 100a10 10 0 0 0 10 -10v-40a10 10 0 0 1 10 -10"></path>
<path d="M224 40a10 10 0 0 1 10 10v79a10 10 0 0 0 10 10"></path>
<g>
<path d="M244 139h0"></path>
<path d="M438 139h754"></path>
<g class="terminal">
<path d="M244 139h0"></path>
<path d="M312 139h0"></path>
<rect x="244" y="128" width="68" height="22" rx="10" ry="10"></rect>
<text x="278" y="143">"SKIP"</text>
</g>
<path d="M312 139h10"></path>
<g>
<path d="M322 139h0"></path>
<path d="M438 139h0"></path>
<path d="M322 139a10 10 0 0 0 10 -10v0a10 10 0 0 1 10 -10"></path>
<g>
<path d="M342 119h76"></path>
</g>
<path d="M418 119a10 10 0 0 1 10 10v0a10 10 0 0 0 10 10"></path>
<path d="M322 139h20"></path>
<g class="non-terminal">
<path d="M342 139h0"></path>
<path d="M418 139h0"></path>
<rect x="342" y="128" width="76" height="22"></rect>
<a xlink:href="reuse_integer.svg"><text x="380" y="143">Integer</text>
</a>
</g>
<path d="M418 139h20"></path>
</g>
</g>
<path d="M1192 139a10 10 0 0 0 10 -10v-79a10 10 0 0 1 10 -10"></path>
<path d="M224 40a10 10 0 0 1 10 10v109a10 10 0 0 0 10 10"></path>
<g>
<path d="M244 169h0"></path>
<path d="M432 169h760"></path>
<g class="terminal">
<path d="M244 169h0"></path>
<path d="M344 169h0"></path>
<rect x="244" y="158" width="100" height="22" rx="10" ry="10"></rect>
<text x="294" y="173">"POSITION"</text>
</g>
<path d="M344 169h10"></path>
<path d="M354 169h10"></path>
<g class="non-terminal">
<path d="M364 169h0"></path>
<path d="M432 169h0"></path>
<rect x="364" y="158" width="68" height="22"></rect>
<a xlink:href="reuse_source.svg"><text x="398" y="173">Source</text>
</a>
</g>
</g>
<path d="M1192 169a10 10 0 0 0 10 -10v-109a10 10 0 0 1 10 -10"></path>
<path d="M224 40a10 10 0 0 1 10 10v139a10 10 0 0 0 10 10"></path>
<g>
<path d="M244 199h0"></path>
<path d="M472 199h720"></path>
<g class="terminal">
<path d="M244 199h0"></path>
<path d="M392 199h0"></path>
<rect x="244" y="188" width="148" height="22" rx="10" ry="10"></rect>
<text x="318" y="203">"INCLUDE BLOCKS"</text>
</g>
<path d="M392 199h10"></path>
<path d="M402 199h10"></path>
<g class="terminal">
<path d="M412 199h0"></path>
<path d="M472 199h0"></path>
<rect x="412" y="188" width="60" height="22" rx="10" ry="10"></rect>
<text x="442" y="203">^\w+$</text>
</g>
</g>
<path d="M1192 199a10 10 0 0 0 10 -10v-139a10 10 0 0 1 10 -10"></path>
<path d="M224 40a10 10 0 0 1 10 10v178a10 10 0 0 0 10 10"></path>
<g>
<path d="M244 238h0"></path>
<path d="M1120 238h72"></path>
<g class="terminal">
<path d="M244 238h0"></path>
<path d="M360 238h0"></path>
<rect x="244" y="227" width="116" height="22" rx="10" ry="10"></rect>
<text x="302" y="242">"PUSHBUTTON"</text>
</g>
<path d="M360 238h10"></path>
<path d="M370 238h10"></path>
<g>
<path d="M380 238h0"></path>
<path d="M800 238h0"></path>
<g>
<path d="M380 238h0"></path>
<path d="M504 238h0"></path>
<path d="M380 238a10 10 0 0 0 10 -10v0a10 10 0 0 1 10 -10"></path>
<g>
<path d="M400 218h84"></path>
</g>
<path d="M484 218a10 10 0 0 1 10 10v0a10 10 0 0 0 10 10"></path>
<path d="M380 238h20"></path>
<g class="terminal">
<path d="M400 238h0"></path>
<path d="M484 238h0"></path>
<rect x="400" y="227" width="84" height="22" rx="10" ry="10"></rect>
<text x="442" y="242">^\/?\d+$</text>
</g>
<path d="M484 238h20"></path>
</g>
<g>
<path d="M504 238h0"></path>
<path d="M604 238h0"></path>
<path d="M504 238h20"></path>
<g class="terminal">
<path d="M524 238h0"></path>
<path d="M576 238h8"></path>
<rect x="524" y="227" width="52" height="22" rx="10" ry="10"></rect>
<text x="550" y="242">!"("</text>
</g>
<path d="M584 238h20"></path>
<path d="M504 238a10 10 0 0 1 10 10v10a10 10 0 0 0 10 10"></path>
<g class="terminal">
<path d="M524 268h0"></path>
<path d="M584 268h0"></path>
<rect x="524" y="257" width="60" height="22" rx="10" ry="10"></rect>
<text x="554" y="272">!" ("</text>
</g>
<path d="M584 268a10 10 0 0 0 10 -10v-10a10 10 0 0 1 10 -10"></path>
</g>
<path d="M604 238h10"></path>
<g class="non-terminal">
<path d="M614 238h0"></path>
<path d="M690 238h0"></path>
<rect x="614" y="227" width="76" height="22"></rect>
<a xlink:href="reuse_integer.svg"><text x="652" y="242">Integer</text>
</a>
</g>
<path d="M690 238h10"></path>
<g>
<path d="M700 238h0"></path>
<path d="M800 238h0"></path>
<path d="M700 238h20"></path>
<g class="terminal">
<path d="M720 238h0"></path>
<path d="M780 238h0"></path>
<rect x="720" y="227" width="60" height="22" rx="10" ry="10"></rect>
<text x="750" y="242">!") "</text>
</g>
<path d="M780 238h20"></path>
<path d="M700 238a10 10 0 0 1 10 10v10a10 10 0 0 0 10 10"></path>
<g class="terminal">
<path d="M720 268h0"></path>
<path d="M772 268h8"></path>
<rect x="720" y="257" width="52" height="22" rx="10" ry="10"></rect>
<text x="746" y="272">!")"</text>
</g>
<path d="M780 268a10 10 0 0 0 10 -10v-10a10 10 0 0 1 10 -10"></path>
</g>
</g>
<path d="M800 238h10"></path>
<path d="M810 238h10"></path>
<g class="non-terminal">
<path d="M820 238h0"></path>
<path d="M888 238h0"></path>
<rect x="820" y="227" width="68" height="22"></rect>
<a xlink:href="reuse_source.svg"><text x="854" y="242">Source</text>
</a>
</g>
<path d="M888 238h10"></path>
<path d="M898 238h10"></path>
<g>
<path d="M908 238h0"></path>
<path d="M1120 238h0"></path>
<g class="terminal">
<path d="M908 238h0"></path>
<path d="M1040 238h0"></path>
<rect x="908" y="227" width="132" height="22" rx="10" ry="10"></rect>
<text x="974" y="242">"USER-COMMAND"</text>
</g>
<path d="M1040 238h10"></path>
<path d="M1050 238h10"></path>
<g class="non-terminal">
<path d="M1060 238h0"></path>
<path d="M1120 238h0"></path>
<rect x="1060" y="227" width="60" height="22"></rect>
<a xlink:href="reuse_field.svg"><text x="1090" y="242">Field</text>
</a>
</g>
</g>
</g>
<path d="M1192 238a10 10 0 0 0 10 -10v-178a10 10 0 0 1 10 -10"></path>
<path d="M224 40a10 10 0 0 1 10 10v247a10 10 0 0 0 10 10"></path>
<g>
<path d="M244 307h0"></path>
<path d="M1166 307h26"></path>
<g class="terminal">
<path d="M244 307h0"></path>
<path d="M304 307h0"></path>
<rect x="244" y="296" width="60" height="22" rx="10" ry="10"></rect>
<text x="274" y="311">"TAB"</text>
</g>
<path d="M304 307h10"></path>
<path d="M314 307h10"></path>
<g class="terminal">
<path d="M324 307h0"></path>
<path d="M384 307h0"></path>
<rect x="324" y="296" width="60" height="22" rx="10" ry="10"></rect>
<text x="354" y="311">!" ("</text>
</g>
<path d="M384 307h10"></path>
<path d="M394 307h10"></path>
<g class="non-terminal">
<path d="M404 307h0"></path>
<path d="M480 307h0"></path>
<rect x="404" y="296" width="76" height="22"></rect>
<a xlink:href="reuse_integer.svg"><text x="442" y="311">Integer</text>
</a>
</g>
<path d="M480 307h10"></path>
<path d="M490 307h10"></path>
<g class="terminal">
<path d="M500 307h0"></path>
<path d="M560 307h0"></path>
<rect x="500" y="296" width="60" height="22" rx="10" ry="10"></rect>
<text x="530" y="311">!") "</text>
</g>
<path d="M560 307h10"></path>
<path d="M570 307h10"></path>
<g class="non-terminal">
<path d="M580 307h0"></path>
<path d="M640 307h0"></path>
<rect x="580" y="296" width="60" height="22"></rect>
<a xlink:href="reuse_field.svg"><text x="610" y="311">Field</text>
</a>
</g>
<path d="M640 307h10"></path>
<path d="M650 307h10"></path>
<g>
<path d="M660 307h0"></path>
<path d="M872 307h0"></path>
<g class="terminal">
<path d="M660 307h0"></path>
<path d="M792 307h0"></path>
<rect x="660" y="296" width="132" height="22" rx="10" ry="10"></rect>
<text x="726" y="311">"USER-COMMAND"</text>
</g>
<path d="M792 307h10"></path>
<path d="M802 307h10"></path>
<g class="non-terminal">
<path d="M812 307h0"></path>
<path d="M872 307h0"></path>
<rect x="812" y="296" width="60" height="22"></rect>
<a xlink:href="reuse_field.svg"><text x="842" y="311">Field</text>
</a>
</g>
</g>
<path d="M872 307h10"></path>
<g>
<path d="M882 307h0"></path>
<path d="M1166 307h0"></path>
<path d="M882 307a10 10 0 0 0 10 -10v0a10 10 0 0 1 10 -10"></path>
<g>
<path d="M902 287h244"></path>
</g>
<path d="M1146 287a10 10 0 0 1 10 10v0a10 10 0 0 0 10 10"></path>
<path d="M882 307h20"></path>
<g>
<path d="M902 307h0"></path>
<path d="M1146 307h0"></path>
<g class="terminal">
<path d="M902 307h0"></path>
<path d="M1050 307h0"></path>
<rect x="902" y="296" width="148" height="22" rx="10" ry="10"></rect>
<text x="976" y="311">"DEFAULT SCREEN"</text>
</g>
<path d="M1050 307h10"></path>
<path d="M1060 307h10"></path>
<g class="non-terminal">
<path d="M1070 307h0"></path>
<path d="M1146 307h0"></path>
<rect x="1070" y="296" width="76" height="22"></rect>
<a xlink:href="reuse_integer.svg"><text x="1108" y="311">Integer</text>
</a>
</g>
</g>
<path d="M1146 307h20"></path>
</g>
</g>
<path d="M1192 307a10 10 0 0 0 10 -10v-247a10 10 0 0 1 10 -10"></path>
<path d="M224 40a10 10 0 0 1 10 10v294a10 10 0 0 0 10 10"></path>
<g>
<path d="M244 354h0"></path>
<path d="M790 354h402"></path>
<g class="terminal">
<path d="M244 354h0"></path>
<path d="M320 354h0"></path>
<rect x="244" y="343" width="76" height="22" rx="10" ry="10"></rect>
<text x="282" y="358">"ULINE"</text>
</g>
<path d="M320 354h10"></path>
<g>
<path d="M330 354h0"></path>
<path d="M790 354h0"></path>
<path d="M330 354a10 10 0 0 0 10 -10v-8a10 10 0 0 1 10 -10"></path>
<g>
<path d="M350 326h420"></path>
</g>
<path d="M770 326a10 10 0 0 1 10 10v8a10 10 0 0 0 10 10"></path>
<path d="M330 354h20"></path>
<g>
<path d="M350 354h0"></path>
<path d="M770 354h0"></path>
<g>
<path d="M350 354h0"></path>
<path d="M474 354h0"></path>
<path d="M350 354a10 10 0 0 0 10 -10v0a10 10 0 0 1 10 -10"></path>
<g>
<path d="M370 334h84"></path>
</g>
<path d="M454 334a10 10 0 0 1 10 10v0a10 10 0 0 0 10 10"></path>
<path d="M350 354h20"></path>
<g class="terminal">
<path d="M370 354h0"></path>
<path d="M454 354h0"></path>
<rect x="370" y="343" width="84" height="22" rx="10" ry="10"></rect>
<text x="412" y="358">^\/?\d+$</text>
</g>
<path d="M454 354h20"></path>
</g>
<g>
<path d="M474 354h0"></path>
<path d="M574 354h0"></path>
<path d="M474 354h20"></path>
<g class="terminal">
<path d="M494 354h0"></path>
<path d="M546 354h8"></path>
<rect x="494" y="343" width="52" height="22" rx="10" ry="10"></rect>
<text x="520" y="358">!"("</text>
</g>
<path d="M554 354h20"></path>
<path d="M474 354a10 10 0 0 1 10 10v10a10 10 0 0 0 10 10"></path>
<g class="terminal">
<path d="M494 384h0"></path>
<path d="M554 384h0"></path>
<rect x="494" y="373" width="60" height="22" rx="10" ry="10"></rect>
<text x="524" y="388">!" ("</text>
</g>
<path d="M554 384a10 10 0 0 0 10 -10v-10a10 10 0 0 1 10 -10"></path>
</g>
<path d="M574 354h10"></path>
<g class="non-terminal">
<path d="M584 354h0"></path>
<path d="M660 354h0"></path>
<rect x="584" y="343" width="76" height="22"></rect>
<a xlink:href="reuse_integer.svg"><text x="622" y="358">Integer</text>
</a>
</g>
<path d="M660 354h10"></path>
<g>
<path d="M670 354h0"></path>
<path d="M770 354h0"></path>
<path d="M670 354h20"></path>
<g class="terminal">
<path d="M690 354h0"></path>
<path d="M750 354h0"></path>
<rect x="690" y="343" width="60" height="22" rx="10" ry="10"></rect>
<text x="720" y="358">!") "</text>
</g>
<path d="M750 354h20"></path>
<path d="M670 354a10 10 0 0 1 10 10v10a10 10 0 0 0 10 10"></path>
<g class="terminal">
<path d="M690 384h0"></path>
<path d="M742 384h8"></path>
<rect x="690" y="373" width="52" height="22" rx="10" ry="10"></rect>
<text x="716" y="388">!")"</text>
</g>
<path d="M750 384a10 10 0 0 0 10 -10v-10a10 10 0 0 1 10 -10"></path>
</g>
</g>
<path d="M770 354h20"></path>
</g>
</g>
<path d="M1192 354a10 10 0 0 0 10 -10v-294a10 10 0 0 1 10 -10"></path>
<path d="M224 40a10 10 0 0 1 10 10v363a10 10 0 0 0 10 10"></path>
<g>
<path d="M244 423h0"></path>
<path d="M1014 423h178"></path>
<g class="terminal">
<path d="M244 423h0"></path>
<path d="M392 423h0"></path>
<rect x="244" y="412" width="148" height="22" rx="10" ry="10"></rect>
<text x="318" y="427">"BEGIN OF BLOCK"</text>
</g>
<path d="M392 423h10"></path>
<path d="M402 423h10"></path>
<g class="terminal">
<path d="M412 423h0"></path>
<path d="M472 423h0"></path>
<rect x="412" y="412" width="60" height="22" rx="10" ry="10"></rect>
<text x="442" y="427">^\w+$</text>
</g>
<path d="M472 423h10"></path>
<g>
<path d="M482 423h0"></path>
<path d="M638 423h0"></path>
<path d="M482 423a10 10 0 0 0 10 -10v0a10 10 0 0 1 10 -10"></path>
<g>
<path d="M502 403h116"></path>
</g>
<path d="M618 403a10 10 0 0 1 10 10v0a10 10 0 0 0 10 10"></path>
<path d="M482 423h20"></path>
<g class="terminal">
<path d="M502 423h0"></path>
<path d="M618 423h0"></path>
<rect x="502" y="412" width="116" height="22" rx="10" ry="10"></rect>
<text x="560" y="427">"WITH FRAME"</text>
</g>
<path d="M618 423h20"></path>
</g>
<g>
<path d="M638 423h0"></path>
<path d="M842 423h0"></path>
<path d="M638 423a10 10 0 0 0 10 -10v0a10 10 0 0 1 10 -10"></path>
<g>
<path d="M658 403h164"></path>
</g>
<path d="M822 403a10 10 0 0 1 10 10v0a10 10 0 0 0 10 10"></path>
<path d="M638 423h20"></path>
<g>
<path d="M658 423h0"></path>
<path d="M822 423h0"></path>
<g class="terminal">
<path d="M658 423h0"></path>
<path d="M734 423h0"></path>
<rect x="658" y="412" width="76" height="22" rx="10" ry="10"></rect>
<text x="696" y="427">"TITLE"</text>
</g>
<path d="M734 423h10"></path>
<path d="M744 423h10"></path>
<g class="non-terminal">
<path d="M754 423h0"></path>
<path d="M822 423h0"></path>
<rect x="754" y="412" width="68" height="22"></rect>
<a xlink:href="reuse_source.svg"><text x="788" y="427">Source</text>
</a>
</g>
</g>
<path d="M822 423h20"></path>
</g>
<g>
<path d="M842 423h0"></path>
<path d="M1014 423h0"></path>
<path d="M842 423a10 10 0 0 0 10 -10v0a10 10 0 0 1 10 -10"></path>
<g>
<path d="M862 403h132"></path>
</g>
<path d="M994 403a10 10 0 0 1 10 10v0a10 10 0 0 0 10 10"></path>
<path d="M842 423h20"></path>
<g class="terminal">
<path d="M862 423h0"></path>
<path d="M994 423h0"></path>
<rect x="862" y="412" width="132" height="22" rx="10" ry="10"></rect>
<text x="928" y="427">"NO INTERVALS"</text>
</g>
<path d="M994 423h20"></path>
</g>
</g>
<path d="M1192 423a10 10 0 0 0 10 -10v-363a10 10 0 0 1 10 -10"></path>
<path d="M224 40a10 10 0 0 1 10 10v402a10 10 0 0 0 10 10"></path>
<g>
<path d="M244 462h0"></path>
<path d="M982 462h210"></path>
<g class="terminal">
<path d="M244 462h0"></path>
<path d="M448 462h0"></path>
<rect x="244" y="451" width="204" height="22" rx="10" ry="10"></rect>
<text x="346" y="466">"BEGIN OF TABBED BLOCK"</text>
</g>
<path d="M448 462h10"></path>
<path d="M458 462h10"></path>
<g class="non-terminal">
<path d="M468 462h0"></path>
<path d="M528 462h0"></path>
<rect x="468" y="451" width="60" height="22"></rect>
<a xlink:href="reuse_field.svg"><text x="498" y="466">Field</text>
</a>
</g>
<path d="M528 462h10"></path>
<path d="M538 462h10"></path>
<g class="terminal">
<path d="M548 462h0"></path>
<path d="M608 462h0"></path>
<rect x="548" y="451" width="60" height="22" rx="10" ry="10"></rect>
<text x="578" y="466">"FOR"</text>
</g>
<path d="M608 462h10"></path>
<path d="M618 462h10"></path>
<g class="non-terminal">
<path d="M628 462h0"></path>
<path d="M704 462h0"></path>
<rect x="628" y="451" width="76" height="22"></rect>
<a xlink:href="reuse_integer.svg"><text x="666" y="466">Integer</text>
</a>
</g>
<path d="M704 462h10"></path>
<path d="M714 462h10"></path>
<g class="terminal">
<path d="M724 462h0"></path>
<path d="M800 462h0"></path>
<rect x="724" y="451" width="76" height="22" rx="10" ry="10"></rect>
<text x="762" y="466">"LINES"</text>
</g>
<path d="M800 462h10"></path>
<g>
<path d="M810 462h0"></path>
<path d="M982 462h0"></path>
<path d="M810 462a10 10 0 0 0 10 -10v0a10 10 0 0 1 10 -10"></path>
<g>
<path d="M830 442h132"></path>
</g>
<path d="M962 442a10 10 0 0 1 10 10v0a10 10 0 0 0 10 10"></path>
<path d="M810 462h20"></path>
<g class="terminal">
<path d="M830 462h0"></path>
<path d="M962 462h0"></path>
<rect x="830" y="451" width="132" height="22" rx="10" ry="10"></rect>
<text x="896" y="466">"NO INTERVALS"</text>
</g>
<path d="M962 462h20"></path>
</g>
</g>
<path d="M1192 462a10 10 0 0 0 10 -10v-402a10 10 0 0 1 10 -10"></path>
<path d="M224 40a10 10 0 0 1 10 10v432a10 10 0 0 0 10 10"></path>
<g>
<path d="M244 492h0"></path>
<path d="M456 492h736"></path>
<g class="terminal">
<path d="M244 492h0"></path>
<path d="M376 492h0"></path>
<rect x="244" y="481" width="132" height="22" rx="10" ry="10"></rect>
<text x="310" y="496">"END OF BLOCK"</text>
</g>
<path d="M376 492h10"></path>
<path d="M386 492h10"></path>
<g class="terminal">
<path d="M396 492h0"></path>
<path d="M456 492h0"></path>
<rect x="396" y="481" width="60" height="22" rx="10" ry="10"></rect>
<text x="426" y="496">^\w+$</text>
</g>
</g>
<path d="M1192 492a10 10 0 0 0 10 -10v-432a10 10 0 0 1 10 -10"></path>
<path d="M224 40a10 10 0 0 1 10 10v462a10 10 0 0 0 10 10"></path>
<g class="terminal">
<path d="M244 522h0"></path>
<path d="M384 522h808"></path>
<rect x="244" y="511" width="140" height="22" rx="10" ry="10"></rect>
<text x="314" y="526">"BEGIN OF LINE"</text>
</g>
<path d="M1192 522a10 10 0 0 0 10 -10v-462a10 10 0 0 1 10 -10"></path>
<path d="M224 40a10 10 0 0 1 10 10v492a10 10 0 0 0 10 10"></path>
<g class="terminal">
<path d="M244 552h0"></path>
<path d="M368 552h824"></path>
<rect x="244" y="541" width="124" height="22" rx="10" ry="10"></rect>
<text x="306" y="556">"END OF LINE"</text>
</g>
<path d="M1192 552a10 10 0 0 0 10 -10v-492a10 10 0 0 1 10 -10"></path>
<path d="M224 40a10 10 0 0 1 10 10v531a10 10 0 0 0 10 10"></path>
<g>
<path d="M244 591h0"></path>
<path d="M844 591h348"></path>
<g class="terminal">
<path d="M244 591h0"></path>
<path d="M400 591h0"></path>
<rect x="244" y="580" width="156" height="22" rx="10" ry="10"></rect>
<text x="322" y="595">"BEGIN OF SCREEN"</text>
</g>
<path d="M400 591h10"></path>
<path d="M410 591h10"></path>
<g class="non-terminal">
<path d="M420 591h0"></path>
<path d="M496 591h0"></path>
<rect x="420" y="580" width="76" height="22"></rect>
<a xlink:href="reuse_integer.svg"><text x="458" y="595">Integer</text>
</a>
</g>
<path d="M496 591h10"></path>
<g>
<path d="M506 591h0"></path>
<path d="M844 591h0"></path>
<path d="M506 591a10 10 0 0 0 10 -10v0a10 10 0 0 1 10 -10"></path>
<g>
<path d="M526 571h298"></path>
</g>
<path d="M824 571a10 10 0 0 1 10 10v0a10 10 0 0 0 10 10"></path>
<path d="M506 591h20"></path>
<g>
<path d="M526 591h0"></path>
<path d="M824 591h0"></path>
<path d="M556 591h10"></path>
<g>
<path d="M566 591h0"></path>
<path d="M776 591h18"></path>
<g class="terminal">
<path d="M566 591h0"></path>
<path d="M618 591h0"></path>
<rect x="566" y="580" width="52" height="22" rx="10" ry="10"></rect>
<text x="592" y="595">"AS"</text>
</g>
<path d="M618 591h10"></path>
<g>
<path d="M628 591h0"></path>
<path d="M776 591h0"></path>
<path d="M628 591h20"></path>
<g class="terminal">
<path d="M648 591h0"></path>
<path d="M732 591h24"></path>
<rect x="648" y="580" width="84" height="22" rx="10" ry="10"></rect>
<text x="690" y="595">"WINDOW"</text>
</g>
<path d="M756 591h20"></path>
<path d="M628 591a10 10 0 0 1 10 10v10a10 10 0 0 0 10 10"></path>
<g class="terminal">
<path d="M648 621h0"></path>
<path d="M756 621h0"></path>
<rect x="648" y="610" width="108" height="22" rx="10" ry="10"></rect>
<text x="702" y="625">"SUBSCREEN"</text>
</g>
<path d="M756 621a10 10 0 0 0 10 -10v-10a10 10 0 0 1 10 -10"></path>
</g>
</g>
<path d="M794 591h10"></path>
<path d="M556 591v50a10 10 0 0 0 10 10"></path>
<g>
<path d="M566 651h0"></path>
<path d="M730 651h64"></path>
<g class="terminal">
<path d="M566 651h0"></path>
<path d="M642 651h0"></path>
<rect x="566" y="640" width="76" height="22" rx="10" ry="10"></rect>
<text x="604" y="655">"TITLE"</text>
</g>
<path d="M642 651h10"></path>
<path d="M652 651h10"></path>
<g class="non-terminal">
<path d="M662 651h0"></path>
<path d="M730 651h0"></path>
<rect x="662" y="640" width="68" height="22"></rect>
<a xlink:href="reuse_source.svg"><text x="696" y="655">Source</text>
</a>
</g>
</g>
<path d="M794 651a10 10 0 0 0 10 -10v-50"></path>
<path d="M556 591v80a10 10 0 0 0 10 10"></path>
<g class="terminal">
<path d="M566 681h0"></path>
<path d="M698 681h96"></path>
<rect x="566" y="670" width="132" height="22" rx="10" ry="10"></rect>
<text x="632" y="685">"NO INTERVALS"</text>
</g>
<path d="M794 681a10 10 0 0 0 10 -10v-80"></path>
<path d="M556 591v110a10 10 0 0 0 10 10"></path>
<g>
<path d="M566 711h0"></path>
<path d="M794 711h0"></path>
<g class="terminal">
<path d="M566 711h0"></path>
<path d="M706 711h0"></path>
<rect x="566" y="700" width="140" height="22" rx="10" ry="10"></rect>
<text x="636" y="715">"NESTING LEVEL"</text>
</g>
<path d="M706 711h10"></path>
<path d="M716 711h10"></path>
<g class="non-terminal">
<path d="M726 711h0"></path>
<path d="M794 711h0"></path>
<rect x="726" y="700" width="68" height="22"></rect>
<a xlink:href="reuse_source.svg"><text x="760" y="715">Source</text>
</a>
</g>
</g>
<path d="M794 711a10 10 0 0 0 10 -10v-110"></path>
<g class="diagram-text">
<title>take one or more branches, once each, in any order</title>
<path d="M 556 581 h -26 a 4 4 0 0 0 -4 4 v 12 a 4 4 0 0 0 4 4 h 26 z" class="diagram-text"></path>
<text x="541" y="595" class="diagram-text">1+</text>
<path d="M 804 581 h 16 a 4 4 0 0 1 4 4 v 12 a 4 4 0 0 1 -4 4 h -16 z" class="diagram-text"></path>
<path d="M 811 589 a 4 4 0 1 0 6 -1 m 2.75 -1 h -4 v 4 m 0 -3 h 2" style="stroke-width: 1.75"></path>
</g>
</g>
<path d="M824 591h20"></path>
</g>
</g>
<path d="M1192 591a10 10 0 0 0 10 -10v-531a10 10 0 0 1 10 -10"></path>
<path d="M224 40a10 10 0 0 1 10 10v681a10 10 0 0 0 10 10"></path>
<g>
<path d="M244 741h0"></path>
<path d="M480 741h712"></path>
<g class="terminal">
<path d="M244 741h0"></path>
<path d="M384 741h0"></path>
<rect x="244" y="730" width="140" height="22" rx="10" ry="10"></rect>
<text x="314" y="745">"END OF SCREEN"</text>
</g>
<path d="M384 741h10"></path>
<path d="M394 741h10"></path>
<g class="non-terminal">
<path d="M404 741h0"></path>
<path d="M480 741h0"></path>
<rect x="404" y="730" width="76" height="22"></rect>
<a xlink:href="reuse_integer.svg"><text x="442" y="745">Integer</text>
</a>
</g>
</g>
<path d="M1192 741a10 10 0 0 0 10 -10v-681a10 10 0 0 1 10 -10"></path>
</g>
</g>
<path d="M1212 40h10"></path>
<path d="M 1222 40 h 20 m -10 -10 v 20 m 10 -20 v 20"></path>
</g>
</svg>
