<svg xmlns="http://www.w3.org/2000/svg" xmlns:xlink="http://www.w3.org/1999/xlink" class="railroad-diagram" width="1756" height="643" viewBox="0 0 1756 643">
<defs>
<style type="text/css"><![CDATA[
path {
stroke-width: 3;
stroke: black;
fill: rgba(0,0,0,0);
}
text {
font: bold 14px monospace;
text-anchor: middle;
}
text.diagram-text {
font-size: 12px;
}
a {
fill: blue;
}
text.diagram-arrow {
font-size: 16px;
}
text.label {
text-anchor: start;
}
text.comment {
font: italic 12px monospace;
}
rect {
stroke-width: 3;
stroke: black;
fill: #BCBCBC;
}
path.diagram-text {
stroke-width: 3;
stroke: black;
fill: #BCBCBC;
cursor: help;
}
]]></style>
</defs>
<g transform="translate(.5 .5)">
<path d="M 20 30 v 20 m 10 -20 v 20 m -10 -10 h 20.5"></path>
<path d="M40 40h10"></path>
<g>
<path d="M50 40h0"></path>
<path d="M1706 40h0"></path>
<g class="terminal">
<path d="M50 40h0"></path>
<path d="M134 40h0"></path>
<rect x="50" y="29" width="84" height="22" rx="10" ry="10"></rect>
<text x="92" y="44">"SELECT"</text>
</g>
<path d="M134 40h10"></path>
<g>
<path d="M144 40h0"></path>
<path d="M474 40h0"></path>
<path d="M144 40h20"></path>
<g class="terminal">
<path d="M164 40h0"></path>
<path d="M264 40h190"></path>
<rect x="164" y="29" width="100" height="22" rx="10" ry="10"></rect>
<text x="214" y="44">"DISTINCT"</text>
</g>
<path d="M454 40h20"></path>
<path d="M144 40a10 10 0 0 1 10 10v27a10 10 0 0 0 10 10"></path>
<g>
<path d="M164 87h0"></path>
<path d="M454 87h0"></path>
<path d="M164 87a10 10 0 0 0 10 -10v-8a10 10 0 0 1 10 -10"></path>
<g>
<path d="M184 59h250"></path>
</g>
<path d="M434 59a10 10 0 0 1 10 10v8a10 10 0 0 0 10 10"></path>
<path d="M164 87h20"></path>
<g>
<path d="M184 87h0"></path>
<path d="M434 87h0"></path>
<g class="terminal">
<path d="M184 87h0"></path>
<path d="M268 87h0"></path>
<rect x="184" y="76" width="84" height="22" rx="10" ry="10"></rect>
<text x="226" y="91">"SINGLE"</text>
</g>
<path d="M268 87h10"></path>
<g>
<path d="M278 87h0"></path>
<path d="M434 87h0"></path>
<path d="M278 87a10 10 0 0 0 10 -10v0a10 10 0 0 1 10 -10"></path>
<g>
<path d="M298 67h116"></path>
</g>
<path d="M414 67a10 10 0 0 1 10 10v0a10 10 0 0 0 10 10"></path>
<path d="M278 87h20"></path>
<g class="terminal">
<path d="M298 87h0"></path>
<path d="M414 87h0"></path>
<rect x="298" y="76" width="116" height="22" rx="10" ry="10"></rect>
<text x="356" y="91">"FOR UPDATE"</text>
</g>
<path d="M414 87h20"></path>
</g>
</g>
<path d="M434 87h20"></path>
</g>
<path d="M454 87a10 10 0 0 0 10 -10v-27a10 10 0 0 1 10 -10"></path>
</g>
<g>
<path d="M474 40h0"></path>
<path d="M818 40h0"></path>
<path d="M474 40h20"></path>
<g class="terminal">
<path d="M494 40h0"></path>
<path d="M538 40h260"></path>
<rect x="494" y="29" width="44" height="22" rx="10" ry="10"></rect>
<text x="516" y="44">"&#42;"</text>
</g>
<path d="M798 40h20"></path>
<path d="M474 40a10 10 0 0 1 10 10v10a10 10 0 0 0 10 10"></path>
<g class="non-terminal">
<path d="M494 70h0"></path>
<path d="M570 70h228"></path>
<rect x="494" y="59" width="76" height="22"></rect>
<a xlink:href="reuse_dynamic.svg"><text x="532" y="74">Dynamic</text>
</a>
</g>
<path d="M798 70a10 10 0 0 0 10 -10v-10a10 10 0 0 1 10 -10"></path>
<path d="M474 40a10 10 0 0 1 10 10v40a10 10 0 0 0 10 10"></path>
<g>
<path d="M494 100h0"></path>
<path d="M798 100h0"></path>
<g class="terminal">
<path d="M494 100h0"></path>
<path d="M570 100h0"></path>
<rect x="494" y="89" width="76" height="22" rx="10" ry="10"></rect>
<text x="532" y="104">"COUNT"</text>
</g>
<path d="M570 100h10"></path>
<g>
<path d="M580 100h0"></path>
<path d="M680 100h0"></path>
<path d="M580 100h20"></path>
<g class="terminal">
<path d="M600 100h0"></path>
<path d="M652 100h8"></path>
<rect x="600" y="89" width="52" height="22" rx="10" ry="10"></rect>
<text x="626" y="104">!"("</text>
</g>
<path d="M660 100h20"></path>
<path d="M580 100a10 10 0 0 1 10 10v10a10 10 0 0 0 10 10"></path>
<g class="terminal">
<path d="M600 130h0"></path>
<path d="M660 130h0"></path>
<rect x="600" y="119" width="60" height="22" rx="10" ry="10"></rect>
<text x="630" y="134">!"( "</text>
</g>
<path d="M660 130a10 10 0 0 0 10 -10v-10a10 10 0 0 1 10 -10"></path>
</g>
<path d="M680 100h10"></path>
<g class="terminal">
<path d="M690 100h0"></path>
<path d="M734 100h0"></path>
<rect x="690" y="89" width="44" height="22" rx="10" ry="10"></rect>
<text x="712" y="104">"&#42;"</text>
</g>
<path d="M734 100h10"></path>
<path d="M744 100h10"></path>
<g class="terminal">
<path d="M754 100h0"></path>
<path d="M798 100h0"></path>
<rect x="754" y="89" width="44" height="22" rx="10" ry="10"></rect>
<text x="776" y="104">")"</text>
</g>
</g>
<path d="M798 100a10 10 0 0 0 10 -10v-40a10 10 0 0 1 10 -10"></path>
<path d="M474 40a10 10 0 0 1 10 10v100a10 10 0 0 0 10 10"></path>
<g>
<path d="M494 160h0"></path>
<path d="M798 160h0"></path>
<g class="terminal">
<path d="M494 160h0"></path>
<path d="M554 160h0"></path>
<rect x="494" y="149" width="60" height="22" rx="10" ry="10"></rect>
<text x="524" y="164">"MAX"</text>
</g>
<path d="M554 160h10"></path>
<g>
<path d="M564 160h0"></path>
<path d="M664 160h0"></path>
<path d="M564 160h20"></path>
<g class="terminal">
<path d="M584 160h0"></path>
<path d="M636 160h8"></path>
<rect x="584" y="149" width="52" height="22" rx="10" ry="10"></rect>
<text x="610" y="164">!"("</text>
</g>
<path d="M644 160h20"></path>
<path d="M564 160a10 10 0 0 1 10 10v10a10 10 0 0 0 10 10"></path>
<g class="terminal">
<path d="M584 190h0"></path>
<path d="M644 190h0"></path>
<rect x="584" y="179" width="60" height="22" rx="10" ry="10"></rect>
<text x="614" y="194">!"( "</text>
</g>
<path d="M644 190a10 10 0 0 0 10 -10v-10a10 10 0 0 1 10 -10"></path>
</g>
<path d="M664 160h10"></path>
<g class="non-terminal">
<path d="M674 160h0"></path>
<path d="M734 160h0"></path>
<rect x="674" y="149" width="60" height="22"></rect>
<a xlink:href="reuse_field.svg"><text x="704" y="164">Field</text>
</a>
</g>
<path d="M734 160h10"></path>
<path d="M744 160h10"></path>
<g class="terminal">
<path d="M754 160h0"></path>
<path d="M798 160h0"></path>
<rect x="754" y="149" width="44" height="22" rx="10" ry="10"></rect>
<text x="776" y="164">")"</text>
</g>
</g>
<path d="M798 160a10 10 0 0 0 10 -10v-100a10 10 0 0 1 10 -10"></path>
<path d="M474 40a10 10 0 0 1 10 10v160a10 10 0 0 0 10 10"></path>
<g>
<path d="M494 220h0"></path>
<path d="M798 220h0"></path>
<g class="terminal">
<path d="M494 220h0"></path>
<path d="M554 220h0"></path>
<rect x="494" y="209" width="60" height="22" rx="10" ry="10"></rect>
<text x="524" y="224">"MIN"</text>
</g>
<path d="M554 220h10"></path>
<g>
<path d="M564 220h0"></path>
<path d="M664 220h0"></path>
<path d="M564 220h20"></path>
<g class="terminal">
<path d="M584 220h0"></path>
<path d="M636 220h8"></path>
<rect x="584" y="209" width="52" height="22" rx="10" ry="10"></rect>
<text x="610" y="224">!"("</text>
</g>
<path d="M644 220h20"></path>
<path d="M564 220a10 10 0 0 1 10 10v10a10 10 0 0 0 10 10"></path>
<g class="terminal">
<path d="M584 250h0"></path>
<path d="M644 250h0"></path>
<rect x="584" y="239" width="60" height="22" rx="10" ry="10"></rect>
<text x="614" y="254">!"( "</text>
</g>
<path d="M644 250a10 10 0 0 0 10 -10v-10a10 10 0 0 1 10 -10"></path>
</g>
<path d="M664 220h10"></path>
<g class="non-terminal">
<path d="M674 220h0"></path>
<path d="M734 220h0"></path>
<rect x="674" y="209" width="60" height="22"></rect>
<a xlink:href="reuse_field.svg"><text x="704" y="224">Field</text>
</a>
</g>
<path d="M734 220h10"></path>
<path d="M744 220h10"></path>
<g class="terminal">
<path d="M754 220h0"></path>
<path d="M798 220h0"></path>
<rect x="754" y="209" width="44" height="22" rx="10" ry="10"></rect>
<text x="776" y="224">")"</text>
</g>
</g>
<path d="M798 220a10 10 0 0 0 10 -10v-160a10 10 0 0 1 10 -10"></path>
<path d="M474 40a10 10 0 0 1 10 10v220a10 10 0 0 0 10 10"></path>
<g>
<path d="M494 280h0"></path>
<path d="M574 280h224"></path>
<path d="M494 280h10"></path>
<g class="non-terminal">
<path d="M504 280h0"></path>
<path d="M564 280h0"></path>
<rect x="504" y="269" width="60" height="22"></rect>
<a xlink:href="reuse_field.svg"><text x="534" y="284">Field</text>
</a>
</g>
<path d="M564 280h10"></path>
<path d="M504 280a10 10 0 0 0 -10 10v0a10 10 0 0 0 10 10"></path>
<g>
<path d="M504 300h60"></path>
</g>
<path d="M564 300a10 10 0 0 0 10 -10v0a10 10 0 0 0 -10 -10"></path>
</g>
<path d="M798 280a10 10 0 0 0 10 -10v-220a10 10 0 0 1 10 -10"></path>
</g>
<path d="M818 40h10"></path>
<g>
<path d="M828 40h0"></path>
<path d="M1706 40h0"></path>
<path d="M858 40h10"></path>
<g>
<path d="M868 40h0"></path>
<path d="M1346 40h330"></path>
<g class="terminal">
<path d="M868 40h0"></path>
<path d="M936 40h0"></path>
<rect x="868" y="29" width="68" height="22" rx="10" ry="10"></rect>
<text x="902" y="44">"FROM"</text>
</g>
<path d="M936 40h10"></path>
<g>
<path d="M946 40h0"></path>
<path d="M1110 40h0"></path>
<path d="M946 40h20"></path>
<g class="non-terminal">
<path d="M966 40h0"></path>
<path d="M1042 40h48"></path>
<rect x="966" y="29" width="76" height="22"></rect>
<a xlink:href="reuse_dynamic.svg"><text x="1004" y="44">Dynamic</text>
</a>
</g>
<path d="M1090 40h20"></path>
<path d="M946 40a10 10 0 0 1 10 10v10a10 10 0 0 0 10 10"></path>
<g class="non-terminal">
<path d="M966 70h0"></path>
<path d="M1090 70h0"></path>
<rect x="966" y="59" width="124" height="22"></rect>
<a xlink:href="reuse_databasetable.svg"><text x="1028" y="74">DatabaseTable</text>
</a>
</g>
<path d="M1090 70a10 10 0 0 0 10 -10v-10a10 10 0 0 1 10 -10"></path>
</g>
<g>
<path d="M1110 40h0"></path>
<path d="M1346 40h0"></path>
<path d="M1110 40a10 10 0 0 0 10 -10v0a10 10 0 0 1 10 -10"></path>
<g>
<path d="M1130 20h196"></path>
</g>
<path d="M1326 20a10 10 0 0 1 10 10v0a10 10 0 0 0 10 10"></path>
<path d="M1110 40h20"></path>
<g>
<path d="M1130 40h0"></path>
<path d="M1326 40h0"></path>
<g class="terminal">
<path d="M1130 40h0"></path>
<path d="M1182 40h0"></path>
<rect x="1130" y="29" width="52" height="22" rx="10" ry="10"></rect>
<text x="1156" y="44">"AS"</text>
</g>
<path d="M1182 40h10"></path>
<path d="M1192 40h10"></path>
<g class="non-terminal">
<path d="M1202 40h0"></path>
<path d="M1326 40h0"></path>
<rect x="1202" y="29" width="124" height="22"></rect>
<a xlink:href="reuse_databasetable.svg"><text x="1264" y="44">DatabaseTable</text>
</a>
</g>
</g>
<path d="M1326 40h20"></path>
</g>
</g>
<path d="M1676 40h10"></path>
<path d="M858 40v59a10 10 0 0 0 10 10"></path>
<g>
<path d="M868 109h0"></path>
<path d="M1642 109h34"></path>
<path d="M868 109h10"></path>
<g>
<path d="M878 109h0"></path>
<path d="M1632 109h0"></path>
<g>
<path d="M878 109h0"></path>
<path d="M1152 109h0"></path>
<g>
<path d="M878 109h0"></path>
<path d="M1074 109h0"></path>
<path d="M878 109a10 10 0 0 0 10 -10v0a10 10 0 0 1 10 -10"></path>
<g>
<path d="M898 89h156"></path>
</g>
<path d="M1054 89a10 10 0 0 1 10 10v0a10 10 0 0 0 10 10"></path>
<path d="M878 109h20"></path>
<g>
<path d="M898 109h0"></path>
<path d="M1054 109h0"></path>
<path d="M898 109h20"></path>
<g class="terminal">
<path d="M918 109h0"></path>
<path d="M994 109h40"></path>
<rect x="918" y="98" width="76" height="22" rx="10" ry="10"></rect>
<text x="956" y="113">"INNER"</text>
</g>
<path d="M1034 109h20"></path>
<path d="M898 109a10 10 0 0 1 10 10v10a10 10 0 0 0 10 10"></path>
<g class="terminal">
<path d="M918 139h0"></path>
<path d="M1034 139h0"></path>
<rect x="918" y="128" width="116" height="22" rx="10" ry="10"></rect>
<text x="976" y="143">"LEFT OUTER"</text>
</g>
<path d="M1034 139a10 10 0 0 0 10 -10v-10a10 10 0 0 1 10 -10"></path>
</g>
<path d="M1054 109h20"></path>
</g>
<path d="M1074 109h10"></path>
<g class="terminal">
<path d="M1084 109h0"></path>
<path d="M1152 109h0"></path>
<rect x="1084" y="98" width="68" height="22" rx="10" ry="10"></rect>
<text x="1118" y="113">"JOIN"</text>
</g>
</g>
<path d="M1152 109h10"></path>
<path d="M1162 109h10"></path>
<g class="non-terminal">
<path d="M1172 109h0"></path>
<path d="M1296 109h0"></path>
<rect x="1172" y="98" width="124" height="22"></rect>
<a xlink:href="reuse_databasetable.svg"><text x="1234" y="113">DatabaseTable</text>
</a>
</g>
<path d="M1296 109h10"></path>
<g>
<path d="M1306 109h0"></path>
<path d="M1478 109h0"></path>
<path d="M1306 109a10 10 0 0 0 10 -10v0a10 10 0 0 1 10 -10"></path>
<g>
<path d="M1326 89h132"></path>
</g>
<path d="M1458 89a10 10 0 0 1 10 10v0a10 10 0 0 0 10 10"></path>
<path d="M1306 109h20"></path>
<g>
<path d="M1326 109h0"></path>
<path d="M1458 109h0"></path>
<g class="terminal">
<path d="M1326 109h0"></path>
<path d="M1378 109h0"></path>
<rect x="1326" y="98" width="52" height="22" rx="10" ry="10"></rect>
<text x="1352" y="113">"AS"</text>
</g>
<path d="M1378 109h10"></path>
<path d="M1388 109h10"></path>
<g class="non-terminal">
<path d="M1398 109h0"></path>
<path d="M1458 109h0"></path>
<rect x="1398" y="98" width="60" height="22"></rect>
<a xlink:href="reuse_field.svg"><text x="1428" y="113">Field</text>
</a>
</g>
</g>
<path d="M1458 109h20"></path>
</g>
<path d="M1478 109h10"></path>
<g class="terminal">
<path d="M1488 109h0"></path>
<path d="M1540 109h0"></path>
<rect x="1488" y="98" width="52" height="22" rx="10" ry="10"></rect>
<text x="1514" y="113">"ON"</text>
</g>
<path d="M1540 109h10"></path>
<path d="M1550 109h10"></path>
<g>
<path d="M1560 109h0"></path>
<path d="M1632 109h0"></path>
<path d="M1560 109h10"></path>
<g class="non-terminal">
<path d="M1570 109h0"></path>
<path d="M1622 109h0"></path>
<rect x="1570" y="98" width="52" height="22"></rect>
<a xlink:href="reuse_cond.svg"><text x="1596" y="113">Cond</text>
</a>
</g>
<path d="M1622 109h10"></path>
<path d="M1570 109a10 10 0 0 0 -10 10v0a10 10 0 0 0 10 10"></path>
<g>
<path d="M1570 129h52"></path>
</g>
<path d="M1622 129a10 10 0 0 0 10 -10v0a10 10 0 0 0 -10 -10"></path>
</g>
</g>
<path d="M1632 109h10"></path>
<path d="M878 109a10 10 0 0 0 -10 10v29a10 10 0 0 0 10 10"></path>
<g>
<path d="M878 158h754"></path>
</g>
<path d="M1632 158a10 10 0 0 0 10 -10v-29a10 10 0 0 0 -10 -10"></path>
</g>
<path d="M1676 109a10 10 0 0 0 10 -10v-59"></path>
<path d="M858 40v136a10 10 0 0 0 10 10"></path>
<g>
<path d="M868 186h0"></path>
<path d="M1676 186h0"></path>
<path d="M868 186h20"></path>
<g>
<path d="M888 186h0"></path>
<path d="M1380 186h276"></path>
<g class="terminal">
<path d="M888 186h0"></path>
<path d="M956 186h0"></path>
<rect x="888" y="175" width="68" height="22" rx="10" ry="10"></rect>
<text x="922" y="190">"INTO"</text>
</g>
<path d="M956 186h10"></path>
<path d="M966 186h10"></path>
<g class="terminal">
<path d="M976 186h0"></path>
<path d="M1036 186h0"></path>
<rect x="976" y="175" width="60" height="22" rx="10" ry="10"></rect>
<text x="1006" y="190">!" ("</text>
</g>
<path d="M1036 186h10"></path>
<g>
<path d="M1046 186h0"></path>
<path d="M1238 186h0"></path>
<path d="M1046 186a10 10 0 0 0 10 -10v0a10 10 0 0 1 10 -10"></path>
<g>
<path d="M1066 166h152"></path>
</g>
<path d="M1218 166a10 10 0 0 1 10 10v0a10 10 0 0 0 10 10"></path>
<path d="M1046 186h20"></path>
<g>
<path d="M1066 186h0"></path>
<path d="M1218 186h0"></path>
<path d="M1066 186h10"></path>
<g>
<path d="M1076 186h0"></path>
<path d="M1208 186h0"></path>
<g class="non-terminal">
<path d="M1076 186h0"></path>
<path d="M1144 186h0"></path>
<rect x="1076" y="175" width="68" height="22"></rect>
<a xlink:href="reuse_target.svg"><text x="1110" y="190">Target</text>
</a>
</g>
<path d="M1144 186h10"></path>
<path d="M1154 186h10"></path>
<g class="terminal">
<path d="M1164 186h0"></path>
<path d="M1208 186h0"></path>
<rect x="1164" y="175" width="44" height="22" rx="10" ry="10"></rect>
<text x="1186" y="190">","</text>
</g>
</g>
<path d="M1208 186h10"></path>
<path d="M1076 186a10 10 0 0 0 -10 10v0a10 10 0 0 0 10 10"></path>
<g>
<path d="M1076 206h132"></path>
</g>
<path d="M1208 206a10 10 0 0 0 10 -10v0a10 10 0 0 0 -10 -10"></path>
</g>
<path d="M1218 186h20"></path>
</g>
<path d="M1238 186h10"></path>
<g class="non-terminal">
<path d="M1248 186h0"></path>
<path d="M1316 186h0"></path>
<rect x="1248" y="175" width="68" height="22"></rect>
<a xlink:href="reuse_target.svg"><text x="1282" y="190">Target</text>
</a>
</g>
<path d="M1316 186h10"></path>
<path d="M1326 186h10"></path>
<g class="terminal">
<path d="M1336 186h0"></path>
<path d="M1380 186h0"></path>
<rect x="1336" y="175" width="44" height="22" rx="10" ry="10"></rect>
<text x="1358" y="190">")"</text>
</g>
</g>
<path d="M1656 186h20"></path>
<path d="M868 186a10 10 0 0 1 10 10v28a10 10 0 0 0 10 10"></path>
<g>
<path d="M888 234h0"></path>
<path d="M1656 234h0"></path>
<g>
<path d="M888 234h0"></path>
<path d="M1036 234h0"></path>
<path d="M888 234h20"></path>
<g class="terminal">
<path d="M908 234h0"></path>
<path d="M976 234h40"></path>
<rect x="908" y="223" width="68" height="22" rx="10" ry="10"></rect>
<text x="942" y="238">"INTO"</text>
</g>
<path d="M1016 234h20"></path>
<path d="M888 234a10 10 0 0 1 10 10v10a10 10 0 0 0 10 10"></path>
<g class="terminal">
<path d="M908 264h0"></path>
<path d="M1016 264h0"></path>
<rect x="908" y="253" width="108" height="22" rx="10" ry="10"></rect>
<text x="962" y="268">"APPENDING"</text>
</g>
<path d="M1016 264a10 10 0 0 0 10 -10v-10a10 10 0 0 1 10 -10"></path>
</g>
<g>
<path d="M1036 234h0"></path>
<path d="M1296 234h0"></path>
<path d="M1036 234a10 10 0 0 0 10 -10v0a10 10 0 0 1 10 -10"></path>
<g>
<path d="M1056 214h220"></path>
</g>
<path d="M1276 214a10 10 0 0 1 10 10v0a10 10 0 0 0 10 10"></path>
<path d="M1036 234h20"></path>
<g class="terminal">
<path d="M1056 234h0"></path>
<path d="M1276 234h0"></path>
<rect x="1056" y="223" width="220" height="22" rx="10" ry="10"></rect>
<text x="1166" y="238">"CORRESPONDING FIELDS OF"</text>
</g>
<path d="M1276 234h20"></path>
</g>
<path d="M1296 234h10"></path>
<g class="terminal">
<path d="M1306 234h0"></path>
<path d="M1382 234h0"></path>
<rect x="1306" y="223" width="76" height="22" rx="10" ry="10"></rect>
<text x="1344" y="238">"TABLE"</text>
</g>
<path d="M1382 234h10"></path>
<g>
<path d="M1392 234h0"></path>
<path d="M1578 234h0"></path>
<path d="M1392 234a10 10 0 0 0 10 -10v0a10 10 0 0 1 10 -10"></path>
<g>
<path d="M1412 214h146"></path>
</g>
<path d="M1558 214a10 10 0 0 1 10 10v0a10 10 0 0 0 10 10"></path>
<path d="M1392 234h20"></path>
<g>
<path d="M1412 234h0"></path>
<path d="M1558 234h0"></path>
<g>
<path d="M1412 234h0"></path>
<path d="M1478 234h0"></path>
<text x="1445" y="239" class="comment">v740sp02</text>
</g>
<path d="M1478 234h10"></path>
<path d="M1488 234h10"></path>
<g class="terminal">
<path d="M1498 234h0"></path>
<path d="M1558 234h0"></path>
<rect x="1498" y="223" width="60" height="22" rx="10" ry="10"></rect>
<text x="1528" y="238">!" @"</text>
</g>
</g>
<path d="M1558 234h20"></path>
</g>
<path d="M1578 234h10"></path>
<g class="non-terminal">
<path d="M1588 234h0"></path>
<path d="M1656 234h0"></path>
<rect x="1588" y="223" width="68" height="22"></rect>
<a xlink:href="reuse_target.svg"><text x="1622" y="238">Target</text>
</a>
</g>
</g>
<path d="M1656 234a10 10 0 0 0 10 -10v-28a10 10 0 0 1 10 -10"></path>
<path d="M868 186a10 10 0 0 1 10 10v97a10 10 0 0 0 10 10"></path>
<g>
<path d="M888 303h0"></path>
<path d="M1490 303h166"></path>
<g class="terminal">
<path d="M888 303h0"></path>
<path d="M956 303h0"></path>
<rect x="888" y="292" width="68" height="22" rx="10" ry="10"></rect>
<text x="922" y="307">"INTO"</text>
</g>
<path d="M956 303h10"></path>
<g>
<path d="M966 303h0"></path>
<path d="M1226 303h0"></path>
<path d="M966 303a10 10 0 0 0 10 -10v0a10 10 0 0 1 10 -10"></path>
<g>
<path d="M986 283h220"></path>
</g>
<path d="M1206 283a10 10 0 0 1 10 10v0a10 10 0 0 0 10 10"></path>
<path d="M966 303h20"></path>
<g class="terminal">
<path d="M986 303h0"></path>
<path d="M1206 303h0"></path>
<rect x="986" y="292" width="220" height="22" rx="10" ry="10"></rect>
<text x="1096" y="307">"CORRESPONDING FIELDS OF"</text>
</g>
<path d="M1206 303h20"></path>
</g>
<g>
<path d="M1226 303h0"></path>
<path d="M1412 303h0"></path>
<path d="M1226 303a10 10 0 0 0 10 -10v0a10 10 0 0 1 10 -10"></path>
<g>
<path d="M1246 283h146"></path>
</g>
<path d="M1392 283a10 10 0 0 1 10 10v0a10 10 0 0 0 10 10"></path>
<path d="M1226 303h20"></path>
<g>
<path d="M1246 303h0"></path>
<path d="M1392 303h0"></path>
<g>
<path d="M1246 303h0"></path>
<path d="M1312 303h0"></path>
<text x="1279" y="308" class="comment">v740sp02</text>
</g>
<path d="M1312 303h10"></path>
<path d="M1322 303h10"></path>
<g class="terminal">
<path d="M1332 303h0"></path>
<path d="M1392 303h0"></path>
<rect x="1332" y="292" width="60" height="22" rx="10" ry="10"></rect>
<text x="1362" y="307">!" @"</text>
</g>
</g>
<path d="M1392 303h20"></path>
</g>
<path d="M1412 303h10"></path>
<g class="non-terminal">
<path d="M1422 303h0"></path>
<path d="M1490 303h0"></path>
<rect x="1422" y="292" width="68" height="22"></rect>
<a xlink:href="reuse_target.svg"><text x="1456" y="307">Target</text>
</a>
</g>
</g>
<path d="M1656 303a10 10 0 0 0 10 -10v-97a10 10 0 0 1 10 -10"></path>
</g>
<path d="M1676 186a10 10 0 0 0 10 -10v-136"></path>
<path d="M858 40v283a10 10 0 0 0 10 10"></path>
<g>
<path d="M868 333h0"></path>
<path d="M1136 333h540"></path>
<g class="terminal">
<path d="M868 333h0"></path>
<path d="M1048 333h0"></path>
<rect x="868" y="322" width="180" height="22" rx="10" ry="10"></rect>
<text x="958" y="337">"FOR ALL ENTRIES IN"</text>
</g>
<path d="M1048 333h10"></path>
<path d="M1058 333h10"></path>
<g class="non-terminal">
<path d="M1068 333h0"></path>
<path d="M1136 333h0"></path>
<rect x="1068" y="322" width="68" height="22"></rect>
<a xlink:href="reuse_source.svg"><text x="1102" y="337">Source</text>
</a>
</g>
</g>
<path d="M1676 333a10 10 0 0 0 10 -10v-283"></path>
<path d="M858 40v313a10 10 0 0 0 10 10"></path>
<g>
<path d="M868 363h0"></path>
<path d="M1070 363h606"></path>
<g class="terminal">
<path d="M868 363h0"></path>
<path d="M944 363h0"></path>
<rect x="868" y="352" width="76" height="22" rx="10" ry="10"></rect>
<text x="906" y="367">"WHERE"</text>
</g>
<path d="M944 363h10"></path>
<g>
<path d="M954 363h0"></path>
<path d="M1070 363h0"></path>
<path d="M954 363h20"></path>
<g class="non-terminal">
<path d="M974 363h0"></path>
<path d="M1026 363h24"></path>
<rect x="974" y="352" width="52" height="22"></rect>
<a xlink:href="reuse_cond.svg"><text x="1000" y="367">Cond</text>
</a>
</g>
<path d="M1050 363h20"></path>
<path d="M954 363a10 10 0 0 1 10 10v10a10 10 0 0 0 10 10"></path>
<g class="non-terminal">
<path d="M974 393h0"></path>
<path d="M1050 393h0"></path>
<rect x="974" y="382" width="76" height="22"></rect>
<a xlink:href="reuse_dynamic.svg"><text x="1012" y="397">Dynamic</text>
</a>
</g>
<path d="M1050 393a10 10 0 0 0 10 -10v-10a10 10 0 0 1 10 -10"></path>
</g>
</g>
<path d="M1676 363a10 10 0 0 0 10 -10v-313"></path>
<path d="M858 40v373a10 10 0 0 0 10 10"></path>
<g>
<path d="M868 423h0"></path>
<path d="M1142 423h534"></path>
<g class="terminal">
<path d="M868 423h0"></path>
<path d="M968 423h0"></path>
<rect x="868" y="412" width="100" height="22" rx="10" ry="10"></rect>
<text x="918" y="427">"ORDER BY"</text>
</g>
<path d="M968 423h10"></path>
<g>
<path d="M978 423h0"></path>
<path d="M1142 423h0"></path>
<path d="M978 423h20"></path>
<g>
<path d="M998 423h0"></path>
<path d="M1078 423h44"></path>
<path d="M998 423h10"></path>
<g class="non-terminal">
<path d="M1008 423h0"></path>
<path d="M1068 423h0"></path>
<rect x="1008" y="412" width="60" height="22"></rect>
<a xlink:href="reuse_field.svg"><text x="1038" y="427">Field</text>
</a>
</g>
<path d="M1068 423h10"></path>
<path d="M1008 423a10 10 0 0 0 -10 10v0a10 10 0 0 0 10 10"></path>
<g>
<path d="M1008 443h60"></path>
</g>
<path d="M1068 443a10 10 0 0 0 10 -10v0a10 10 0 0 0 -10 -10"></path>
</g>
<path d="M1122 423h20"></path>
<path d="M978 423a10 10 0 0 1 10 10v19a10 10 0 0 0 10 10"></path>
<g class="terminal">
<path d="M998 462h0"></path>
<path d="M1122 462h0"></path>
<rect x="998" y="451" width="124" height="22" rx="10" ry="10"></rect>
<text x="1060" y="466">"PRIMARY KEY"</text>
</g>
<path d="M1122 462a10 10 0 0 0 10 -10v-19a10 10 0 0 1 10 -10"></path>
<path d="M978 423a10 10 0 0 1 10 10v49a10 10 0 0 0 10 10"></path>
<g class="non-terminal">
<path d="M998 492h0"></path>
<path d="M1074 492h48"></path>
<rect x="998" y="481" width="76" height="22"></rect>
<a xlink:href="reuse_dynamic.svg"><text x="1036" y="496">Dynamic</text>
</a>
</g>
<path d="M1122 492a10 10 0 0 0 10 -10v-49a10 10 0 0 1 10 -10"></path>
</g>
</g>
<path d="M1676 423a10 10 0 0 0 10 -10v-373"></path>
<path d="M858 40v472a10 10 0 0 0 10 10"></path>
<g>
<path d="M868 522h0"></path>
<path d="M1120 522h556"></path>
<g class="terminal">
<path d="M868 522h0"></path>
<path d="M944 522h0"></path>
<rect x="868" y="511" width="76" height="22" rx="10" ry="10"></rect>
<text x="906" y="526">"UP TO"</text>
</g>
<path d="M944 522h10"></path>
<path d="M954 522h10"></path>
<g class="non-terminal">
<path d="M964 522h0"></path>
<path d="M1032 522h0"></path>
<rect x="964" y="511" width="68" height="22"></rect>
<a xlink:href="reuse_source.svg"><text x="998" y="526">Source</text>
</a>
</g>
<path d="M1032 522h10"></path>
<path d="M1042 522h10"></path>
<g class="terminal">
<path d="M1052 522h0"></path>
<path d="M1120 522h0"></path>
<rect x="1052" y="511" width="68" height="22" rx="10" ry="10"></rect>
<text x="1086" y="526">"ROWS"</text>
</g>
</g>
<path d="M1676 522a10 10 0 0 0 10 -10v-472"></path>
<path d="M858 40v502a10 10 0 0 0 10 10"></path>
<g class="terminal">
<path d="M868 552h0"></path>
<path d="M1032 552h644"></path>
<rect x="868" y="541" width="164" height="22" rx="10" ry="10"></rect>
<text x="950" y="556">"CLIENT SPECIFIED"</text>
</g>
<path d="M1676 552a10 10 0 0 0 10 -10v-502"></path>
<path d="M858 40v532a10 10 0 0 0 10 10"></path>
<g class="terminal">
<path d="M868 582h0"></path>
<path d="M1032 582h644"></path>
<rect x="868" y="571" width="164" height="22" rx="10" ry="10"></rect>
<text x="950" y="586">"BYPASSING BUFFER"</text>
</g>
<path d="M1676 582a10 10 0 0 0 10 -10v-532"></path>
<path d="M858 40v562a10 10 0 0 0 10 10"></path>
<g>
<path d="M868 612h0"></path>
<path d="M1088 612h588"></path>
<g class="terminal">
<path d="M868 612h0"></path>
<path d="M1000 612h0"></path>
<rect x="868" y="601" width="132" height="22" rx="10" ry="10"></rect>
<text x="934" y="616">"PACKAGE SIZE"</text>
</g>
<path d="M1000 612h10"></path>
<path d="M1010 612h10"></path>
<g class="non-terminal">
<path d="M1020 612h0"></path>
<path d="M1088 612h0"></path>
<rect x="1020" y="601" width="68" height="22"></rect>
<a xlink:href="reuse_source.svg"><text x="1054" y="616">Source</text>
</a>
</g>
</g>
<path d="M1676 612a10 10 0 0 0 10 -10v-562"></path>
<g class="diagram-text">
<title>take one or more branches, once each, in any order</title>
<path d="M 858 30 h -26 a 4 4 0 0 0 -4 4 v 12 a 4 4 0 0 0 4 4 h 26 z" class="diagram-text"></path>
<text x="843" y="44" class="diagram-text">1+</text>
<path d="M 1686 30 h 16 a 4 4 0 0 1 4 4 v 12 a 4 4 0 0 1 -4 4 h -16 z" class="diagram-text"></path>
<path d="M 1693 38 a 4 4 0 1 0 6 -1 m 2.75 -1 h -4 v 4 m 0 -3 h 2" style="stroke-width: 1.75"></path>
</g>
</g>
</g>
<path d="M1706 40h10"></path>
<path d="M 1716 40 h 20 m -10 -10 v 20 m 10 -20 v 20"></path>
</g>
</svg>
