<svg xmlns="http://www.w3.org/2000/svg" xmlns:xlink="http://www.w3.org/1999/xlink" class="railroad-diagram" width="1742" height="892" viewBox="0 0 1742 892">
<defs>
<style type="text/css"><![CDATA[
path {
stroke-width: 3;
stroke: black;
fill: rgba(0,0,0,0);
}
text {
font: bold 14px monospace;
text-anchor: middle;
}
text.diagram-text {
font-size: 12px;
}
a {
fill: blue;
}
text.diagram-arrow {
font-size: 16px;
}
text.label {
text-anchor: start;
}
text.comment {
font: italic 12px monospace;
}
rect {
stroke-width: 3;
stroke: black;
fill: #BCBCBC;
}
path.diagram-text {
stroke-width: 3;
stroke: black;
fill: #BCBCBC;
cursor: help;
}
]]></style>
</defs>
<g transform="translate(.5 .5)">
<path d="M 20 30 v 20 m 10 -20 v 20 m -10 -10 h 20.5"></path>
<path d="M40 40h10"></path>
<g>
<path d="M50 40h0"></path>
<path d="M1692 40h0"></path>
<g class="terminal">
<path d="M50 40h0"></path>
<path d="M214 40h0"></path>
<rect x="50" y="29" width="164" height="22" rx="10" ry="10"></rect>
<text x="132" y="44">"SELECTION-SCREEN"</text>
</g>
<path d="M214 40h10"></path>
<g>
<path d="M224 40h0"></path>
<path d="M1692 40h0"></path>
<path d="M224 40h20"></path>
<g>
<path d="M244 40h0"></path>
<path d="M1232 40h440"></path>
<g class="terminal">
<path d="M244 40h0"></path>
<path d="M336 40h0"></path>
<rect x="244" y="29" width="92" height="22" rx="10" ry="10"></rect>
<text x="290" y="44">"COMMENT"</text>
</g>
<path d="M336 40h10"></path>
<path d="M346 40h10"></path>
<g>
<path d="M356 40h0"></path>
<path d="M776 40h0"></path>
<g>
<path d="M356 40h0"></path>
<path d="M480 40h0"></path>
<path d="M356 40a10 10 0 0 0 10 -10v0a10 10 0 0 1 10 -10"></path>
<g>
<path d="M376 20h84"></path>
</g>
<path d="M460 20a10 10 0 0 1 10 10v0a10 10 0 0 0 10 10"></path>
<path d="M356 40h20"></path>
<g class="terminal">
<path d="M376 40h0"></path>
<path d="M460 40h0"></path>
<rect x="376" y="29" width="84" height="22" rx="10" ry="10"></rect>
<text x="418" y="44">^\/?\d+$</text>
</g>
<path d="M460 40h20"></path>
</g>
<g>
<path d="M480 40h0"></path>
<path d="M580 40h0"></path>
<path d="M480 40h20"></path>
<g class="terminal">
<path d="M500 40h0"></path>
<path d="M552 40h8"></path>
<rect x="500" y="29" width="52" height="22" rx="10" ry="10"></rect>
<text x="526" y="44">!"("</text>
</g>
<path d="M560 40h20"></path>
<path d="M480 40a10 10 0 0 1 10 10v10a10 10 0 0 0 10 10"></path>
<g class="terminal">
<path d="M500 70h0"></path>
<path d="M560 70h0"></path>
<rect x="500" y="59" width="60" height="22" rx="10" ry="10"></rect>
<text x="530" y="74">!" ("</text>
</g>
<path d="M560 70a10 10 0 0 0 10 -10v-10a10 10 0 0 1 10 -10"></path>
</g>
<path d="M580 40h10"></path>
<g class="non-terminal">
<path d="M590 40h0"></path>
<path d="M666 40h0"></path>
<rect x="590" y="29" width="76" height="22"></rect>
<a xlink:href="reuse_integer.svg"><text x="628" y="44">Integer</text>
</a>
</g>
<path d="M666 40h10"></path>
<g>
<path d="M676 40h0"></path>
<path d="M776 40h0"></path>
<path d="M676 40h20"></path>
<g class="terminal">
<path d="M696 40h0"></path>
<path d="M756 40h0"></path>
<rect x="696" y="29" width="60" height="22" rx="10" ry="10"></rect>
<text x="726" y="44">!") "</text>
</g>
<path d="M756 40h20"></path>
<path d="M676 40a10 10 0 0 1 10 10v10a10 10 0 0 0 10 10"></path>
<g class="terminal">
<path d="M696 70h0"></path>
<path d="M748 70h8"></path>
<rect x="696" y="59" width="52" height="22" rx="10" ry="10"></rect>
<text x="722" y="74">!")"</text>
</g>
<path d="M756 70a10 10 0 0 0 10 -10v-10a10 10 0 0 1 10 -10"></path>
</g>
</g>
<path d="M776 40h10"></path>
<g>
<path d="M786 40h0"></path>
<path d="M894 40h0"></path>
<path d="M786 40a10 10 0 0 0 10 -10v0a10 10 0 0 1 10 -10"></path>
<g>
<path d="M806 20h68"></path>
</g>
<path d="M874 20a10 10 0 0 1 10 10v0a10 10 0 0 0 10 10"></path>
<path d="M786 40h20"></path>
<g class="non-terminal">
<path d="M806 40h0"></path>
<path d="M874 40h0"></path>
<rect x="806" y="29" width="68" height="22"></rect>
<a xlink:href="reuse_source.svg"><text x="840" y="44">Source</text>
</a>
</g>
<path d="M874 40h20"></path>
</g>
<g>
<path d="M894 40h0"></path>
<path d="M1232 40h0"></path>
<path d="M894 40a10 10 0 0 0 10 -10v0a10 10 0 0 1 10 -10"></path>
<g>
<path d="M914 20h298"></path>
</g>
<path d="M1212 20a10 10 0 0 1 10 10v0a10 10 0 0 0 10 10"></path>
<path d="M894 40h20"></path>
<g>
<path d="M914 40h0"></path>
<path d="M1212 40h0"></path>
<path d="M944 40h10"></path>
<g>
<path d="M954 40h0"></path>
<path d="M1142 40h40"></path>
<g class="terminal">
<path d="M954 40h0"></path>
<path d="M1062 40h0"></path>
<rect x="954" y="29" width="108" height="22" rx="10" ry="10"></rect>
<text x="1008" y="44">"FOR FIELD"</text>
</g>
<path d="M1062 40h10"></path>
<path d="M1072 40h10"></path>
<g class="non-terminal">
<path d="M1082 40h0"></path>
<path d="M1142 40h0"></path>
<rect x="1082" y="29" width="60" height="22"></rect>
<a xlink:href="reuse_field.svg"><text x="1112" y="44">Field</text>
</a>
</g>
</g>
<path d="M1182 40h10"></path>
<path d="M944 40v20a10 10 0 0 0 10 10"></path>
<g>
<path d="M954 70h0"></path>
<path d="M1134 70h48"></path>
<g class="terminal">
<path d="M954 70h0"></path>
<path d="M1054 70h0"></path>
<rect x="954" y="59" width="100" height="22" rx="10" ry="10"></rect>
<text x="1004" y="74">"MODIF ID"</text>
</g>
<path d="M1054 70h10"></path>
<path d="M1064 70h10"></path>
<g class="non-terminal">
<path d="M1074 70h0"></path>
<path d="M1134 70h0"></path>
<rect x="1074" y="59" width="60" height="22"></rect>
<a xlink:href="reuse_modif.svg"><text x="1104" y="74">Modif</text>
</a>
</g>
</g>
<path d="M1182 70a10 10 0 0 0 10 -10v-20"></path>
<path d="M944 40v50a10 10 0 0 0 10 10"></path>
<g>
<path d="M954 100h0"></path>
<path d="M1182 100h0"></path>
<g class="terminal">
<path d="M954 100h0"></path>
<path d="M1102 100h0"></path>
<rect x="954" y="89" width="148" height="22" rx="10" ry="10"></rect>
<text x="1028" y="104">"VISIBLE LENGTH"</text>
</g>
<path d="M1102 100h10"></path>
<path d="M1112 100h10"></path>
<g class="terminal">
<path d="M1122 100h0"></path>
<path d="M1182 100h0"></path>
<rect x="1122" y="89" width="60" height="22" rx="10" ry="10"></rect>
<text x="1152" y="104">^\d+$</text>
</g>
</g>
<path d="M1182 100a10 10 0 0 0 10 -10v-50"></path>
<g class="diagram-text">
<title>take one or more branches, once each, in any order</title>
<path d="M 944 30 h -26 a 4 4 0 0 0 -4 4 v 12 a 4 4 0 0 0 4 4 h 26 z" class="diagram-text"></path>
<text x="929" y="44" class="diagram-text">1+</text>
<path d="M 1192 30 h 16 a 4 4 0 0 1 4 4 v 12 a 4 4 0 0 1 -4 4 h -16 z" class="diagram-text"></path>
<path d="M 1199 38 a 4 4 0 1 0 6 -1 m 2.75 -1 h -4 v 4 m 0 -3 h 2" style="stroke-width: 1.75"></path>
</g>
</g>
<path d="M1212 40h20"></path>
</g>
</g>
<path d="M1672 40h20"></path>
<path d="M224 40a10 10 0 0 1 10 10v70a10 10 0 0 0 10 10"></path>
<g>
<path d="M244 130h0"></path>
<path d="M472 130h1200"></path>
<g class="terminal">
<path d="M244 130h0"></path>
<path d="M376 130h0"></path>
<rect x="244" y="119" width="132" height="22" rx="10" ry="10"></rect>
<text x="310" y="134">"FUNCTION KEY"</text>
</g>
<path d="M376 130h10"></path>
<path d="M386 130h10"></path>
<g class="non-terminal">
<path d="M396 130h0"></path>
<path d="M472 130h0"></path>
<rect x="396" y="119" width="76" height="22"></rect>
<a xlink:href="reuse_integer.svg"><text x="434" y="134">Integer</text>
</a>
</g>
</g>
<path d="M1672 130a10 10 0 0 0 10 -10v-70a10 10 0 0 1 10 -10"></path>
<path d="M224 40a10 10 0 0 1 10 10v109a10 10 0 0 0 10 10"></path>
<g>
<path d="M244 169h0"></path>
<path d="M438 169h1234"></path>
<g class="terminal">
<path d="M244 169h0"></path>
<path d="M312 169h0"></path>
<rect x="244" y="158" width="68" height="22" rx="10" ry="10"></rect>
<text x="278" y="173">"SKIP"</text>
</g>
<path d="M312 169h10"></path>
<g>
<path d="M322 169h0"></path>
<path d="M438 169h0"></path>
<path d="M322 169a10 10 0 0 0 10 -10v0a10 10 0 0 1 10 -10"></path>
<g>
<path d="M342 149h76"></path>
</g>
<path d="M418 149a10 10 0 0 1 10 10v0a10 10 0 0 0 10 10"></path>
<path d="M322 169h20"></path>
<g class="non-terminal">
<path d="M342 169h0"></path>
<path d="M418 169h0"></path>
<rect x="342" y="158" width="76" height="22"></rect>
<a xlink:href="reuse_integer.svg"><text x="380" y="173">Integer</text>
</a>
</g>
<path d="M418 169h20"></path>
</g>
</g>
<path d="M1672 169a10 10 0 0 0 10 -10v-109a10 10 0 0 1 10 -10"></path>
<path d="M224 40a10 10 0 0 1 10 10v139a10 10 0 0 0 10 10"></path>
<g>
<path d="M244 199h0"></path>
<path d="M432 199h1240"></path>
<g class="terminal">
<path d="M244 199h0"></path>
<path d="M344 199h0"></path>
<rect x="244" y="188" width="100" height="22" rx="10" ry="10"></rect>
<text x="294" y="203">"POSITION"</text>
</g>
<path d="M344 199h10"></path>
<path d="M354 199h10"></path>
<g class="non-terminal">
<path d="M364 199h0"></path>
<path d="M432 199h0"></path>
<rect x="364" y="188" width="68" height="22"></rect>
<a xlink:href="reuse_source.svg"><text x="398" y="203">Source</text>
</a>
</g>
</g>
<path d="M1672 199a10 10 0 0 0 10 -10v-139a10 10 0 0 1 10 -10"></path>
<path d="M224 40a10 10 0 0 1 10 10v169a10 10 0 0 0 10 10"></path>
<g>
<path d="M244 229h0"></path>
<path d="M496 229h1176"></path>
<g class="terminal">
<path d="M244 229h0"></path>
<path d="M392 229h0"></path>
<rect x="244" y="218" width="148" height="22" rx="10" ry="10"></rect>
<text x="318" y="233">"INCLUDE BLOCKS"</text>
</g>
<path d="M392 229h10"></path>
<path d="M402 229h10"></path>
<g class="non-terminal">
<path d="M412 229h0"></path>
<path d="M496 229h0"></path>
<rect x="412" y="218" width="84" height="22"></rect>
<a xlink:href="reuse_fieldsub.svg"><text x="454" y="233">FieldSub</text>
</a>
</g>
</g>
<path d="M1672 229a10 10 0 0 0 10 -10v-169a10 10 0 0 1 10 -10"></path>
<path d="M224 40a10 10 0 0 1 10 10v199a10 10 0 0 0 10 10"></path>
<g>
<path d="M244 259h0"></path>
<path d="M536 259h1136"></path>
<g class="terminal">
<path d="M244 259h0"></path>
<path d="M456 259h0"></path>
<rect x="244" y="248" width="212" height="22" rx="10" ry="10"></rect>
<text x="350" y="263">"INCLUDE SELECT-OPTIONS"</text>
</g>
<path d="M456 259h10"></path>
<path d="M466 259h10"></path>
<g class="non-terminal">
<path d="M476 259h0"></path>
<path d="M536 259h0"></path>
<rect x="476" y="248" width="60" height="22"></rect>
<a xlink:href="reuse_field.svg"><text x="506" y="263">Field</text>
</a>
</g>
</g>
<path d="M1672 259a10 10 0 0 0 10 -10v-199a10 10 0 0 1 10 -10"></path>
<path d="M224 40a10 10 0 0 1 10 10v238a10 10 0 0 0 10 10"></path>
<g>
<path d="M244 298h0"></path>
<path d="M1672 298h0"></path>
<g class="terminal">
<path d="M244 298h0"></path>
<path d="M360 298h0"></path>
<rect x="244" y="287" width="116" height="22" rx="10" ry="10"></rect>
<text x="302" y="302">"PUSHBUTTON"</text>
</g>
<path d="M360 298h10"></path>
<path d="M370 298h10"></path>
<g>
<path d="M380 298h0"></path>
<path d="M800 298h0"></path>
<g>
<path d="M380 298h0"></path>
<path d="M504 298h0"></path>
<path d="M380 298a10 10 0 0 0 10 -10v0a10 10 0 0 1 10 -10"></path>
<g>
<path d="M400 278h84"></path>
</g>
<path d="M484 278a10 10 0 0 1 10 10v0a10 10 0 0 0 10 10"></path>
<path d="M380 298h20"></path>
<g class="terminal">
<path d="M400 298h0"></path>
<path d="M484 298h0"></path>
<rect x="400" y="287" width="84" height="22" rx="10" ry="10"></rect>
<text x="442" y="302">^\/?\d+$</text>
</g>
<path d="M484 298h20"></path>
</g>
<g>
<path d="M504 298h0"></path>
<path d="M604 298h0"></path>
<path d="M504 298h20"></path>
<g class="terminal">
<path d="M524 298h0"></path>
<path d="M576 298h8"></path>
<rect x="524" y="287" width="52" height="22" rx="10" ry="10"></rect>
<text x="550" y="302">!"("</text>
</g>
<path d="M584 298h20"></path>
<path d="M504 298a10 10 0 0 1 10 10v10a10 10 0 0 0 10 10"></path>
<g class="terminal">
<path d="M524 328h0"></path>
<path d="M584 328h0"></path>
<rect x="524" y="317" width="60" height="22" rx="10" ry="10"></rect>
<text x="554" y="332">!" ("</text>
</g>
<path d="M584 328a10 10 0 0 0 10 -10v-10a10 10 0 0 1 10 -10"></path>
</g>
<path d="M604 298h10"></path>
<g class="non-terminal">
<path d="M614 298h0"></path>
<path d="M690 298h0"></path>
<rect x="614" y="287" width="76" height="22"></rect>
<a xlink:href="reuse_integer.svg"><text x="652" y="302">Integer</text>
</a>
</g>
<path d="M690 298h10"></path>
<g>
<path d="M700 298h0"></path>
<path d="M800 298h0"></path>
<path d="M700 298h20"></path>
<g class="terminal">
<path d="M720 298h0"></path>
<path d="M780 298h0"></path>
<rect x="720" y="287" width="60" height="22" rx="10" ry="10"></rect>
<text x="750" y="302">!") "</text>
</g>
<path d="M780 298h20"></path>
<path d="M700 298a10 10 0 0 1 10 10v10a10 10 0 0 0 10 10"></path>
<g class="terminal">
<path d="M720 328h0"></path>
<path d="M772 328h8"></path>
<rect x="720" y="317" width="52" height="22" rx="10" ry="10"></rect>
<text x="746" y="332">!")"</text>
</g>
<path d="M780 328a10 10 0 0 0 10 -10v-10a10 10 0 0 1 10 -10"></path>
</g>
</g>
<path d="M800 298h10"></path>
<path d="M810 298h10"></path>
<g class="non-terminal">
<path d="M820 298h0"></path>
<path d="M888 298h0"></path>
<rect x="820" y="287" width="68" height="22"></rect>
<a xlink:href="reuse_source.svg"><text x="854" y="302">Source</text>
</a>
</g>
<path d="M888 298h10"></path>
<path d="M898 298h10"></path>
<g>
<path d="M908 298h0"></path>
<path d="M1174 298h0"></path>
<g class="terminal">
<path d="M908 298h0"></path>
<path d="M1040 298h0"></path>
<rect x="908" y="287" width="132" height="22" rx="10" ry="10"></rect>
<text x="974" y="302">"USER-COMMAND"</text>
</g>
<path d="M1040 298h10"></path>
<g>
<path d="M1050 298h0"></path>
<path d="M1174 298h0"></path>
<path d="M1050 298h20"></path>
<g class="non-terminal">
<path d="M1070 298h0"></path>
<path d="M1130 298h24"></path>
<rect x="1070" y="287" width="60" height="22"></rect>
<a xlink:href="reuse_field.svg"><text x="1100" y="302">Field</text>
</a>
</g>
<path d="M1154 298h20"></path>
<path d="M1050 298a10 10 0 0 1 10 10v10a10 10 0 0 0 10 10"></path>
<g class="non-terminal">
<path d="M1070 328h0"></path>
<path d="M1154 328h0"></path>
<rect x="1070" y="317" width="84" height="22"></rect>
<a xlink:href="reuse_constant.svg"><text x="1112" y="332">Constant</text>
</a>
</g>
<path d="M1154 328a10 10 0 0 0 10 -10v-10a10 10 0 0 1 10 -10"></path>
</g>
</g>
<path d="M1174 298h10"></path>
<g>
<path d="M1184 298h0"></path>
<path d="M1404 298h0"></path>
<path d="M1184 298a10 10 0 0 0 10 -10v0a10 10 0 0 1 10 -10"></path>
<g>
<path d="M1204 278h180"></path>
</g>
<path d="M1384 278a10 10 0 0 1 10 10v0a10 10 0 0 0 10 10"></path>
<path d="M1184 298h20"></path>
<g>
<path d="M1204 298h0"></path>
<path d="M1384 298h0"></path>
<g class="terminal">
<path d="M1204 298h0"></path>
<path d="M1304 298h0"></path>
<rect x="1204" y="287" width="100" height="22" rx="10" ry="10"></rect>
<text x="1254" y="302">"MODIF ID"</text>
</g>
<path d="M1304 298h10"></path>
<path d="M1314 298h10"></path>
<g class="non-terminal">
<path d="M1324 298h0"></path>
<path d="M1384 298h0"></path>
<rect x="1324" y="287" width="60" height="22"></rect>
<a xlink:href="reuse_modif.svg"><text x="1354" y="302">Modif</text>
</a>
</g>
</g>
<path d="M1384 298h20"></path>
</g>
<g>
<path d="M1404 298h0"></path>
<path d="M1672 298h0"></path>
<path d="M1404 298a10 10 0 0 0 10 -10v0a10 10 0 0 1 10 -10"></path>
<g>
<path d="M1424 278h228"></path>
</g>
<path d="M1652 278a10 10 0 0 1 10 10v0a10 10 0 0 0 10 10"></path>
<path d="M1404 298h20"></path>
<g>
<path d="M1424 298h0"></path>
<path d="M1652 298h0"></path>
<g class="terminal">
<path d="M1424 298h0"></path>
<path d="M1572 298h0"></path>
<rect x="1424" y="287" width="148" height="22" rx="10" ry="10"></rect>
<text x="1498" y="302">"VISIBLE LENGTH"</text>
</g>
<path d="M1572 298h10"></path>
<path d="M1582 298h10"></path>
<g class="terminal">
<path d="M1592 298h0"></path>
<path d="M1652 298h0"></path>
<rect x="1592" y="287" width="60" height="22" rx="10" ry="10"></rect>
<text x="1622" y="302">^\d+$</text>
</g>
</g>
<path d="M1652 298h20"></path>
</g>
</g>
<path d="M1672 298a10 10 0 0 0 10 -10v-238a10 10 0 0 1 10 -10"></path>
<path d="M224 40a10 10 0 0 1 10 10v307a10 10 0 0 0 10 10"></path>
<g>
<path d="M244 367h0"></path>
<path d="M1244 367h428"></path>
<g class="terminal">
<path d="M244 367h0"></path>
<path d="M304 367h0"></path>
<rect x="244" y="356" width="60" height="22" rx="10" ry="10"></rect>
<text x="274" y="371">"TAB"</text>
</g>
<path d="M304 367h10"></path>
<path d="M314 367h10"></path>
<g class="terminal">
<path d="M324 367h0"></path>
<path d="M384 367h0"></path>
<rect x="324" y="356" width="60" height="22" rx="10" ry="10"></rect>
<text x="354" y="371">!" ("</text>
</g>
<path d="M384 367h10"></path>
<path d="M394 367h10"></path>
<g class="non-terminal">
<path d="M404 367h0"></path>
<path d="M480 367h0"></path>
<rect x="404" y="356" width="76" height="22"></rect>
<a xlink:href="reuse_integer.svg"><text x="442" y="371">Integer</text>
</a>
</g>
<path d="M480 367h10"></path>
<path d="M490 367h10"></path>
<g class="terminal">
<path d="M500 367h0"></path>
<path d="M560 367h0"></path>
<rect x="500" y="356" width="60" height="22" rx="10" ry="10"></rect>
<text x="530" y="371">!") "</text>
</g>
<path d="M560 367h10"></path>
<path d="M570 367h10"></path>
<g class="non-terminal">
<path d="M580 367h0"></path>
<path d="M664 367h0"></path>
<rect x="580" y="356" width="84" height="22"></rect>
<a xlink:href="reuse_fieldsub.svg"><text x="622" y="371">FieldSub</text>
</a>
</g>
<path d="M664 367h10"></path>
<path d="M674 367h10"></path>
<g>
<path d="M684 367h0"></path>
<path d="M950 367h0"></path>
<g class="terminal">
<path d="M684 367h0"></path>
<path d="M816 367h0"></path>
<rect x="684" y="356" width="132" height="22" rx="10" ry="10"></rect>
<text x="750" y="371">"USER-COMMAND"</text>
</g>
<path d="M816 367h10"></path>
<g>
<path d="M826 367h0"></path>
<path d="M950 367h0"></path>
<path d="M826 367h20"></path>
<g class="non-terminal">
<path d="M846 367h0"></path>
<path d="M906 367h24"></path>
<rect x="846" y="356" width="60" height="22"></rect>
<a xlink:href="reuse_field.svg"><text x="876" y="371">Field</text>
</a>
</g>
<path d="M930 367h20"></path>
<path d="M826 367a10 10 0 0 1 10 10v10a10 10 0 0 0 10 10"></path>
<g class="non-terminal">
<path d="M846 397h0"></path>
<path d="M930 397h0"></path>
<rect x="846" y="386" width="84" height="22"></rect>
<a xlink:href="reuse_constant.svg"><text x="888" y="401">Constant</text>
</a>
</g>
<path d="M930 397a10 10 0 0 0 10 -10v-10a10 10 0 0 1 10 -10"></path>
</g>
</g>
<path d="M950 367h10"></path>
<g>
<path d="M960 367h0"></path>
<path d="M1244 367h0"></path>
<path d="M960 367a10 10 0 0 0 10 -10v0a10 10 0 0 1 10 -10"></path>
<g>
<path d="M980 347h244"></path>
</g>
<path d="M1224 347a10 10 0 0 1 10 10v0a10 10 0 0 0 10 10"></path>
<path d="M960 367h20"></path>
<g>
<path d="M980 367h0"></path>
<path d="M1224 367h0"></path>
<g class="terminal">
<path d="M980 367h0"></path>
<path d="M1128 367h0"></path>
<rect x="980" y="356" width="148" height="22" rx="10" ry="10"></rect>
<text x="1054" y="371">"DEFAULT SCREEN"</text>
</g>
<path d="M1128 367h10"></path>
<path d="M1138 367h10"></path>
<g class="non-terminal">
<path d="M1148 367h0"></path>
<path d="M1224 367h0"></path>
<rect x="1148" y="356" width="76" height="22"></rect>
<a xlink:href="reuse_integer.svg"><text x="1186" y="371">Integer</text>
</a>
</g>
</g>
<path d="M1224 367h20"></path>
</g>
</g>
<path d="M1672 367a10 10 0 0 0 10 -10v-307a10 10 0 0 1 10 -10"></path>
<path d="M224 40a10 10 0 0 1 10 10v384a10 10 0 0 0 10 10"></path>
<g>
<path d="M244 444h0"></path>
<path d="M790 444h882"></path>
<g class="terminal">
<path d="M244 444h0"></path>
<path d="M320 444h0"></path>
<rect x="244" y="433" width="76" height="22" rx="10" ry="10"></rect>
<text x="282" y="448">"ULINE"</text>
</g>
<path d="M320 444h10"></path>
<g>
<path d="M330 444h0"></path>
<path d="M790 444h0"></path>
<path d="M330 444a10 10 0 0 0 10 -10v-8a10 10 0 0 1 10 -10"></path>
<g>
<path d="M350 416h420"></path>
</g>
<path d="M770 416a10 10 0 0 1 10 10v8a10 10 0 0 0 10 10"></path>
<path d="M330 444h20"></path>
<g>
<path d="M350 444h0"></path>
<path d="M770 444h0"></path>
<g>
<path d="M350 444h0"></path>
<path d="M474 444h0"></path>
<path d="M350 444a10 10 0 0 0 10 -10v0a10 10 0 0 1 10 -10"></path>
<g>
<path d="M370 424h84"></path>
</g>
<path d="M454 424a10 10 0 0 1 10 10v0a10 10 0 0 0 10 10"></path>
<path d="M350 444h20"></path>
<g class="terminal">
<path d="M370 444h0"></path>
<path d="M454 444h0"></path>
<rect x="370" y="433" width="84" height="22" rx="10" ry="10"></rect>
<text x="412" y="448">^\/?\d+$</text>
</g>
<path d="M454 444h20"></path>
</g>
<g>
<path d="M474 444h0"></path>
<path d="M574 444h0"></path>
<path d="M474 444h20"></path>
<g class="terminal">
<path d="M494 444h0"></path>
<path d="M546 444h8"></path>
<rect x="494" y="433" width="52" height="22" rx="10" ry="10"></rect>
<text x="520" y="448">!"("</text>
</g>
<path d="M554 444h20"></path>
<path d="M474 444a10 10 0 0 1 10 10v10a10 10 0 0 0 10 10"></path>
<g class="terminal">
<path d="M494 474h0"></path>
<path d="M554 474h0"></path>
<rect x="494" y="463" width="60" height="22" rx="10" ry="10"></rect>
<text x="524" y="478">!" ("</text>
</g>
<path d="M554 474a10 10 0 0 0 10 -10v-10a10 10 0 0 1 10 -10"></path>
</g>
<path d="M574 444h10"></path>
<g class="non-terminal">
<path d="M584 444h0"></path>
<path d="M660 444h0"></path>
<rect x="584" y="433" width="76" height="22"></rect>
<a xlink:href="reuse_integer.svg"><text x="622" y="448">Integer</text>
</a>
</g>
<path d="M660 444h10"></path>
<g>
<path d="M670 444h0"></path>
<path d="M770 444h0"></path>
<path d="M670 444h20"></path>
<g class="terminal">
<path d="M690 444h0"></path>
<path d="M750 444h0"></path>
<rect x="690" y="433" width="60" height="22" rx="10" ry="10"></rect>
<text x="720" y="448">!") "</text>
</g>
<path d="M750 444h20"></path>
<path d="M670 444a10 10 0 0 1 10 10v10a10 10 0 0 0 10 10"></path>
<g class="terminal">
<path d="M690 474h0"></path>
<path d="M742 474h8"></path>
<rect x="690" y="463" width="52" height="22" rx="10" ry="10"></rect>
<text x="716" y="478">!")"</text>
</g>
<path d="M750 474a10 10 0 0 0 10 -10v-10a10 10 0 0 1 10 -10"></path>
</g>
</g>
<path d="M770 444h20"></path>
</g>
</g>
<path d="M1672 444a10 10 0 0 0 10 -10v-384a10 10 0 0 1 10 -10"></path>
<path d="M224 40a10 10 0 0 1 10 10v453a10 10 0 0 0 10 10"></path>
<g>
<path d="M244 513h0"></path>
<path d="M1038 513h634"></path>
<g class="terminal">
<path d="M244 513h0"></path>
<path d="M392 513h0"></path>
<rect x="244" y="502" width="148" height="22" rx="10" ry="10"></rect>
<text x="318" y="517">"BEGIN OF BLOCK"</text>
</g>
<path d="M392 513h10"></path>
<path d="M402 513h10"></path>
<g class="non-terminal">
<path d="M412 513h0"></path>
<path d="M496 513h0"></path>
<rect x="412" y="502" width="84" height="22"></rect>
<a xlink:href="reuse_fieldsub.svg"><text x="454" y="517">FieldSub</text>
</a>
</g>
<path d="M496 513h10"></path>
<g>
<path d="M506 513h0"></path>
<path d="M662 513h0"></path>
<path d="M506 513a10 10 0 0 0 10 -10v0a10 10 0 0 1 10 -10"></path>
<g>
<path d="M526 493h116"></path>
</g>
<path d="M642 493a10 10 0 0 1 10 10v0a10 10 0 0 0 10 10"></path>
<path d="M506 513h20"></path>
<g class="terminal">
<path d="M526 513h0"></path>
<path d="M642 513h0"></path>
<rect x="526" y="502" width="116" height="22" rx="10" ry="10"></rect>
<text x="584" y="517">"WITH FRAME"</text>
</g>
<path d="M642 513h20"></path>
</g>
<g>
<path d="M662 513h0"></path>
<path d="M866 513h0"></path>
<path d="M662 513a10 10 0 0 0 10 -10v0a10 10 0 0 1 10 -10"></path>
<g>
<path d="M682 493h164"></path>
</g>
<path d="M846 493a10 10 0 0 1 10 10v0a10 10 0 0 0 10 10"></path>
<path d="M662 513h20"></path>
<g>
<path d="M682 513h0"></path>
<path d="M846 513h0"></path>
<g class="terminal">
<path d="M682 513h0"></path>
<path d="M758 513h0"></path>
<rect x="682" y="502" width="76" height="22" rx="10" ry="10"></rect>
<text x="720" y="517">"TITLE"</text>
</g>
<path d="M758 513h10"></path>
<path d="M768 513h10"></path>
<g class="non-terminal">
<path d="M778 513h0"></path>
<path d="M846 513h0"></path>
<rect x="778" y="502" width="68" height="22"></rect>
<a xlink:href="reuse_source.svg"><text x="812" y="517">Source</text>
</a>
</g>
</g>
<path d="M846 513h20"></path>
</g>
<g>
<path d="M866 513h0"></path>
<path d="M1038 513h0"></path>
<path d="M866 513a10 10 0 0 0 10 -10v0a10 10 0 0 1 10 -10"></path>
<g>
<path d="M886 493h132"></path>
</g>
<path d="M1018 493a10 10 0 0 1 10 10v0a10 10 0 0 0 10 10"></path>
<path d="M866 513h20"></path>
<g class="terminal">
<path d="M886 513h0"></path>
<path d="M1018 513h0"></path>
<rect x="886" y="502" width="132" height="22" rx="10" ry="10"></rect>
<text x="952" y="517">"NO INTERVALS"</text>
</g>
<path d="M1018 513h20"></path>
</g>
</g>
<path d="M1672 513a10 10 0 0 0 10 -10v-453a10 10 0 0 1 10 -10"></path>
<path d="M224 40a10 10 0 0 1 10 10v492a10 10 0 0 0 10 10"></path>
<g>
<path d="M244 552h0"></path>
<path d="M982 552h690"></path>
<g class="terminal">
<path d="M244 552h0"></path>
<path d="M448 552h0"></path>
<rect x="244" y="541" width="204" height="22" rx="10" ry="10"></rect>
<text x="346" y="556">"BEGIN OF TABBED BLOCK"</text>
</g>
<path d="M448 552h10"></path>
<path d="M458 552h10"></path>
<g class="non-terminal">
<path d="M468 552h0"></path>
<path d="M528 552h0"></path>
<rect x="468" y="541" width="60" height="22"></rect>
<a xlink:href="reuse_field.svg"><text x="498" y="556">Field</text>
</a>
</g>
<path d="M528 552h10"></path>
<path d="M538 552h10"></path>
<g class="terminal">
<path d="M548 552h0"></path>
<path d="M608 552h0"></path>
<rect x="548" y="541" width="60" height="22" rx="10" ry="10"></rect>
<text x="578" y="556">"FOR"</text>
</g>
<path d="M608 552h10"></path>
<path d="M618 552h10"></path>
<g class="non-terminal">
<path d="M628 552h0"></path>
<path d="M704 552h0"></path>
<rect x="628" y="541" width="76" height="22"></rect>
<a xlink:href="reuse_integer.svg"><text x="666" y="556">Integer</text>
</a>
</g>
<path d="M704 552h10"></path>
<path d="M714 552h10"></path>
<g class="terminal">
<path d="M724 552h0"></path>
<path d="M800 552h0"></path>
<rect x="724" y="541" width="76" height="22" rx="10" ry="10"></rect>
<text x="762" y="556">"LINES"</text>
</g>
<path d="M800 552h10"></path>
<g>
<path d="M810 552h0"></path>
<path d="M982 552h0"></path>
<path d="M810 552a10 10 0 0 0 10 -10v0a10 10 0 0 1 10 -10"></path>
<g>
<path d="M830 532h132"></path>
</g>
<path d="M962 532a10 10 0 0 1 10 10v0a10 10 0 0 0 10 10"></path>
<path d="M810 552h20"></path>
<g class="terminal">
<path d="M830 552h0"></path>
<path d="M962 552h0"></path>
<rect x="830" y="541" width="132" height="22" rx="10" ry="10"></rect>
<text x="896" y="556">"NO INTERVALS"</text>
</g>
<path d="M962 552h20"></path>
</g>
</g>
<path d="M1672 552a10 10 0 0 0 10 -10v-492a10 10 0 0 1 10 -10"></path>
<path d="M224 40a10 10 0 0 1 10 10v522a10 10 0 0 0 10 10"></path>
<g>
<path d="M244 582h0"></path>
<path d="M480 582h1192"></path>
<g class="terminal">
<path d="M244 582h0"></path>
<path d="M376 582h0"></path>
<rect x="244" y="571" width="132" height="22" rx="10" ry="10"></rect>
<text x="310" y="586">"END OF BLOCK"</text>
</g>
<path d="M376 582h10"></path>
<path d="M386 582h10"></path>
<g class="non-terminal">
<path d="M396 582h0"></path>
<path d="M480 582h0"></path>
<rect x="396" y="571" width="84" height="22"></rect>
<a xlink:href="reuse_fieldsub.svg"><text x="438" y="586">FieldSub</text>
</a>
</g>
</g>
<path d="M1672 582a10 10 0 0 0 10 -10v-522a10 10 0 0 1 10 -10"></path>
<path d="M224 40a10 10 0 0 1 10 10v552a10 10 0 0 0 10 10"></path>
<g class="terminal">
<path d="M244 612h0"></path>
<path d="M384 612h1288"></path>
<rect x="244" y="601" width="140" height="22" rx="10" ry="10"></rect>
<text x="314" y="616">"BEGIN OF LINE"</text>
</g>
<path d="M1672 612a10 10 0 0 0 10 -10v-552a10 10 0 0 1 10 -10"></path>
<path d="M224 40a10 10 0 0 1 10 10v582a10 10 0 0 0 10 10"></path>
<g class="terminal">
<path d="M244 642h0"></path>
<path d="M368 642h1304"></path>
<rect x="244" y="631" width="124" height="22" rx="10" ry="10"></rect>
<text x="306" y="646">"END OF LINE"</text>
</g>
<path d="M1672 642a10 10 0 0 0 10 -10v-582a10 10 0 0 1 10 -10"></path>
<path d="M224 40a10 10 0 0 1 10 10v612a10 10 0 0 0 10 10"></path>
<g>
<path d="M244 672h0"></path>
<path d="M504 672h1168"></path>
<g class="terminal">
<path d="M244 672h0"></path>
<path d="M424 672h0"></path>
<rect x="244" y="661" width="180" height="22" rx="10" ry="10"></rect>
<text x="334" y="676">"INCLUDE PARAMETERS"</text>
</g>
<path d="M424 672h10"></path>
<path d="M434 672h10"></path>
<g class="non-terminal">
<path d="M444 672h0"></path>
<path d="M504 672h0"></path>
<rect x="444" y="661" width="60" height="22"></rect>
<a xlink:href="reuse_field.svg"><text x="474" y="676">Field</text>
</a>
</g>
</g>
<path d="M1672 672a10 10 0 0 0 10 -10v-612a10 10 0 0 1 10 -10"></path>
<path d="M224 40a10 10 0 0 1 10 10v651a10 10 0 0 0 10 10"></path>
<g>
<path d="M244 711h0"></path>
<path d="M844 711h828"></path>
<g class="terminal">
<path d="M244 711h0"></path>
<path d="M400 711h0"></path>
<rect x="244" y="700" width="156" height="22" rx="10" ry="10"></rect>
<text x="322" y="715">"BEGIN OF SCREEN"</text>
</g>
<path d="M400 711h10"></path>
<path d="M410 711h10"></path>
<g class="non-terminal">
<path d="M420 711h0"></path>
<path d="M496 711h0"></path>
<rect x="420" y="700" width="76" height="22"></rect>
<a xlink:href="reuse_integer.svg"><text x="458" y="715">Integer</text>
</a>
</g>
<path d="M496 711h10"></path>
<g>
<path d="M506 711h0"></path>
<path d="M844 711h0"></path>
<path d="M506 711a10 10 0 0 0 10 -10v0a10 10 0 0 1 10 -10"></path>
<g>
<path d="M526 691h298"></path>
</g>
<path d="M824 691a10 10 0 0 1 10 10v0a10 10 0 0 0 10 10"></path>
<path d="M506 711h20"></path>
<g>
<path d="M526 711h0"></path>
<path d="M824 711h0"></path>
<path d="M556 711h10"></path>
<g>
<path d="M566 711h0"></path>
<path d="M776 711h18"></path>
<g class="terminal">
<path d="M566 711h0"></path>
<path d="M618 711h0"></path>
<rect x="566" y="700" width="52" height="22" rx="10" ry="10"></rect>
<text x="592" y="715">"AS"</text>
</g>
<path d="M618 711h10"></path>
<g>
<path d="M628 711h0"></path>
<path d="M776 711h0"></path>
<path d="M628 711h20"></path>
<g class="terminal">
<path d="M648 711h0"></path>
<path d="M732 711h24"></path>
<rect x="648" y="700" width="84" height="22" rx="10" ry="10"></rect>
<text x="690" y="715">"WINDOW"</text>
</g>
<path d="M756 711h20"></path>
<path d="M628 711a10 10 0 0 1 10 10v10a10 10 0 0 0 10 10"></path>
<g class="terminal">
<path d="M648 741h0"></path>
<path d="M756 741h0"></path>
<rect x="648" y="730" width="108" height="22" rx="10" ry="10"></rect>
<text x="702" y="745">"SUBSCREEN"</text>
</g>
<path d="M756 741a10 10 0 0 0 10 -10v-10a10 10 0 0 1 10 -10"></path>
</g>
</g>
<path d="M794 711h10"></path>
<path d="M556 711v50a10 10 0 0 0 10 10"></path>
<g>
<path d="M566 771h0"></path>
<path d="M730 771h64"></path>
<g class="terminal">
<path d="M566 771h0"></path>
<path d="M642 771h0"></path>
<rect x="566" y="760" width="76" height="22" rx="10" ry="10"></rect>
<text x="604" y="775">"TITLE"</text>
</g>
<path d="M642 771h10"></path>
<path d="M652 771h10"></path>
<g class="non-terminal">
<path d="M662 771h0"></path>
<path d="M730 771h0"></path>
<rect x="662" y="760" width="68" height="22"></rect>
<a xlink:href="reuse_source.svg"><text x="696" y="775">Source</text>
</a>
</g>
</g>
<path d="M794 771a10 10 0 0 0 10 -10v-50"></path>
<path d="M556 711v80a10 10 0 0 0 10 10"></path>
<g class="terminal">
<path d="M566 801h0"></path>
<path d="M698 801h96"></path>
<rect x="566" y="790" width="132" height="22" rx="10" ry="10"></rect>
<text x="632" y="805">"NO INTERVALS"</text>
</g>
<path d="M794 801a10 10 0 0 0 10 -10v-80"></path>
<path d="M556 711v110a10 10 0 0 0 10 10"></path>
<g>
<path d="M566 831h0"></path>
<path d="M794 831h0"></path>
<g class="terminal">
<path d="M566 831h0"></path>
<path d="M706 831h0"></path>
<rect x="566" y="820" width="140" height="22" rx="10" ry="10"></rect>
<text x="636" y="835">"NESTING LEVEL"</text>
</g>
<path d="M706 831h10"></path>
<path d="M716 831h10"></path>
<g class="non-terminal">
<path d="M726 831h0"></path>
<path d="M794 831h0"></path>
<rect x="726" y="820" width="68" height="22"></rect>
<a xlink:href="reuse_source.svg"><text x="760" y="835">Source</text>
</a>
</g>
</g>
<path d="M794 831a10 10 0 0 0 10 -10v-110"></path>
<g class="diagram-text">
<title>take one or more branches, once each, in any order</title>
<path d="M 556 701 h -26 a 4 4 0 0 0 -4 4 v 12 a 4 4 0 0 0 4 4 h 26 z" class="diagram-text"></path>
<text x="541" y="715" class="diagram-text">1+</text>
<path d="M 804 701 h 16 a 4 4 0 0 1 4 4 v 12 a 4 4 0 0 1 -4 4 h -16 z" class="diagram-text"></path>
<path d="M 811 709 a 4 4 0 1 0 6 -1 m 2.75 -1 h -4 v 4 m 0 -3 h 2" style="stroke-width: 1.75"></path>
</g>
</g>
<path d="M824 711h20"></path>
</g>
</g>
<path d="M1672 711a10 10 0 0 0 10 -10v-651a10 10 0 0 1 10 -10"></path>
<path d="M224 40a10 10 0 0 1 10 10v801a10 10 0 0 0 10 10"></path>
<g>
<path d="M244 861h0"></path>
<path d="M480 861h1192"></path>
<g class="terminal">
<path d="M244 861h0"></path>
<path d="M384 861h0"></path>
<rect x="244" y="850" width="140" height="22" rx="10" ry="10"></rect>
<text x="314" y="865">"END OF SCREEN"</text>
</g>
<path d="M384 861h10"></path>
<path d="M394 861h10"></path>
<g class="non-terminal">
<path d="M404 861h0"></path>
<path d="M480 861h0"></path>
<rect x="404" y="850" width="76" height="22"></rect>
<a xlink:href="reuse_integer.svg"><text x="442" y="865">Integer</text>
</a>
</g>
</g>
<path d="M1672 861a10 10 0 0 0 10 -10v-801a10 10 0 0 1 10 -10"></path>
</g>
</g>
<path d="M1692 40h10"></path>
<path d="M 1702 40 h 20 m -10 -10 v 20 m 10 -20 v 20"></path>
</g>
</svg>
