<svg xmlns="http://www.w3.org/2000/svg" xmlns:xlink="http://www.w3.org/1999/xlink" class="railroad-diagram" width="1570" height="523" viewBox="0 0 1570 523">
<defs>
<style type="text/css"><![CDATA[
path {
stroke-width: 3;
stroke: black;
fill: rgba(0,0,0,0);
}
text {
font: bold 14px monospace;
text-anchor: middle;
}
text.diagram-text {
font-size: 12px;
}
a {
fill: blue;
}
text.diagram-arrow {
font-size: 16px;
}
text.label {
text-anchor: start;
}
text.comment {
font: italic 12px monospace;
}
rect {
stroke-width: 3;
stroke: black;
fill: #BCBCBC;
}
path.diagram-text {
stroke-width: 3;
stroke: black;
fill: #BCBCBC;
cursor: help;
}
]]></style>
</defs>
<g transform="translate(.5 .5)">
<path d="M 20 30 v 20 m 10 -20 v 20 m -10 -10 h 20.5"></path>
<path d="M40 40h10"></path>
<g>
<path d="M50 40h0"></path>
<path d="M1520 40h0"></path>
<g class="terminal">
<path d="M50 40h0"></path>
<path d="M134 40h0"></path>
<rect x="50" y="29" width="84" height="22" rx="10" ry="10"></rect>
<text x="92" y="44">"SELECT"</text>
</g>
<path d="M134 40h10"></path>
<g>
<path d="M144 40h0"></path>
<path d="M474 40h0"></path>
<path d="M144 40h20"></path>
<g class="terminal">
<path d="M164 40h0"></path>
<path d="M264 40h190"></path>
<rect x="164" y="29" width="100" height="22" rx="10" ry="10"></rect>
<text x="214" y="44">"DISTINCT"</text>
</g>
<path d="M454 40h20"></path>
<path d="M144 40a10 10 0 0 1 10 10v27a10 10 0 0 0 10 10"></path>
<g>
<path d="M164 87h0"></path>
<path d="M454 87h0"></path>
<path d="M164 87a10 10 0 0 0 10 -10v-8a10 10 0 0 1 10 -10"></path>
<g>
<path d="M184 59h250"></path>
</g>
<path d="M434 59a10 10 0 0 1 10 10v8a10 10 0 0 0 10 10"></path>
<path d="M164 87h20"></path>
<g>
<path d="M184 87h0"></path>
<path d="M434 87h0"></path>
<g class="terminal">
<path d="M184 87h0"></path>
<path d="M268 87h0"></path>
<rect x="184" y="76" width="84" height="22" rx="10" ry="10"></rect>
<text x="226" y="91">"SINGLE"</text>
</g>
<path d="M268 87h10"></path>
<g>
<path d="M278 87h0"></path>
<path d="M434 87h0"></path>
<path d="M278 87a10 10 0 0 0 10 -10v0a10 10 0 0 1 10 -10"></path>
<g>
<path d="M298 67h116"></path>
</g>
<path d="M414 67a10 10 0 0 1 10 10v0a10 10 0 0 0 10 10"></path>
<path d="M278 87h20"></path>
<g class="terminal">
<path d="M298 87h0"></path>
<path d="M414 87h0"></path>
<rect x="298" y="76" width="116" height="22" rx="10" ry="10"></rect>
<text x="356" y="91">"FOR UPDATE"</text>
</g>
<path d="M414 87h20"></path>
</g>
</g>
<path d="M434 87h20"></path>
</g>
<path d="M454 87a10 10 0 0 0 10 -10v-27a10 10 0 0 1 10 -10"></path>
</g>
<g>
<path d="M474 40h0"></path>
<path d="M818 40h0"></path>
<path d="M474 40h20"></path>
<g class="terminal">
<path d="M494 40h0"></path>
<path d="M538 40h260"></path>
<rect x="494" y="29" width="44" height="22" rx="10" ry="10"></rect>
<text x="516" y="44">"&#42;"</text>
</g>
<path d="M798 40h20"></path>
<path d="M474 40a10 10 0 0 1 10 10v10a10 10 0 0 0 10 10"></path>
<g>
<path d="M494 70h0"></path>
<path d="M798 70h0"></path>
<g class="terminal">
<path d="M494 70h0"></path>
<path d="M570 70h0"></path>
<rect x="494" y="59" width="76" height="22" rx="10" ry="10"></rect>
<text x="532" y="74">"COUNT"</text>
</g>
<path d="M570 70h10"></path>
<g>
<path d="M580 70h0"></path>
<path d="M680 70h0"></path>
<path d="M580 70h20"></path>
<g class="terminal">
<path d="M600 70h0"></path>
<path d="M652 70h8"></path>
<rect x="600" y="59" width="52" height="22" rx="10" ry="10"></rect>
<text x="626" y="74">!"("</text>
</g>
<path d="M660 70h20"></path>
<path d="M580 70a10 10 0 0 1 10 10v10a10 10 0 0 0 10 10"></path>
<g class="terminal">
<path d="M600 100h0"></path>
<path d="M660 100h0"></path>
<rect x="600" y="89" width="60" height="22" rx="10" ry="10"></rect>
<text x="630" y="104">!"( "</text>
</g>
<path d="M660 100a10 10 0 0 0 10 -10v-10a10 10 0 0 1 10 -10"></path>
</g>
<path d="M680 70h10"></path>
<g class="terminal">
<path d="M690 70h0"></path>
<path d="M734 70h0"></path>
<rect x="690" y="59" width="44" height="22" rx="10" ry="10"></rect>
<text x="712" y="74">"&#42;"</text>
</g>
<path d="M734 70h10"></path>
<path d="M744 70h10"></path>
<g class="terminal">
<path d="M754 70h0"></path>
<path d="M798 70h0"></path>
<rect x="754" y="59" width="44" height="22" rx="10" ry="10"></rect>
<text x="776" y="74">")"</text>
</g>
</g>
<path d="M798 70a10 10 0 0 0 10 -10v-10a10 10 0 0 1 10 -10"></path>
<path d="M474 40a10 10 0 0 1 10 10v70a10 10 0 0 0 10 10"></path>
<g>
<path d="M494 130h0"></path>
<path d="M574 130h224"></path>
<path d="M494 130h10"></path>
<g class="non-terminal">
<path d="M504 130h0"></path>
<path d="M564 130h0"></path>
<rect x="504" y="119" width="60" height="22"></rect>
<a xlink:href="reuse_field.svg"><text x="534" y="134">Field</text>
</a>
</g>
<path d="M564 130h10"></path>
<path d="M504 130a10 10 0 0 0 -10 10v0a10 10 0 0 0 10 10"></path>
<g>
<path d="M504 150h60"></path>
</g>
<path d="M564 150a10 10 0 0 0 10 -10v0a10 10 0 0 0 -10 -10"></path>
</g>
<path d="M798 130a10 10 0 0 0 10 -10v-70a10 10 0 0 1 10 -10"></path>
</g>
<path d="M818 40h10"></path>
<g>
<path d="M828 40h0"></path>
<path d="M1520 40h0"></path>
<path d="M858 40h10"></path>
<g>
<path d="M868 40h0"></path>
<path d="M1346 40h144"></path>
<g class="terminal">
<path d="M868 40h0"></path>
<path d="M936 40h0"></path>
<rect x="868" y="29" width="68" height="22" rx="10" ry="10"></rect>
<text x="902" y="44">"FROM"</text>
</g>
<path d="M936 40h10"></path>
<g>
<path d="M946 40h0"></path>
<path d="M1110 40h0"></path>
<path d="M946 40h20"></path>
<g class="non-terminal">
<path d="M966 40h0"></path>
<path d="M1042 40h48"></path>
<rect x="966" y="29" width="76" height="22"></rect>
<a xlink:href="reuse_dynamic.svg"><text x="1004" y="44">Dynamic</text>
</a>
</g>
<path d="M1090 40h20"></path>
<path d="M946 40a10 10 0 0 1 10 10v10a10 10 0 0 0 10 10"></path>
<g class="non-terminal">
<path d="M966 70h0"></path>
<path d="M1090 70h0"></path>
<rect x="966" y="59" width="124" height="22"></rect>
<a xlink:href="reuse_databasetable.svg"><text x="1028" y="74">DatabaseTable</text>
</a>
</g>
<path d="M1090 70a10 10 0 0 0 10 -10v-10a10 10 0 0 1 10 -10"></path>
</g>
<g>
<path d="M1110 40h0"></path>
<path d="M1346 40h0"></path>
<path d="M1110 40a10 10 0 0 0 10 -10v0a10 10 0 0 1 10 -10"></path>
<g>
<path d="M1130 20h196"></path>
</g>
<path d="M1326 20a10 10 0 0 1 10 10v0a10 10 0 0 0 10 10"></path>
<path d="M1110 40h20"></path>
<g>
<path d="M1130 40h0"></path>
<path d="M1326 40h0"></path>
<g class="terminal">
<path d="M1130 40h0"></path>
<path d="M1182 40h0"></path>
<rect x="1130" y="29" width="52" height="22" rx="10" ry="10"></rect>
<text x="1156" y="44">"AS"</text>
</g>
<path d="M1182 40h10"></path>
<path d="M1192 40h10"></path>
<g class="non-terminal">
<path d="M1202 40h0"></path>
<path d="M1326 40h0"></path>
<rect x="1202" y="29" width="124" height="22"></rect>
<a xlink:href="reuse_databasetable.svg"><text x="1264" y="44">DatabaseTable</text>
</a>
</g>
</g>
<path d="M1326 40h20"></path>
</g>
</g>
<path d="M1490 40h10"></path>
<path d="M858 40v50a10 10 0 0 0 10 10"></path>
<g>
<path d="M868 100h0"></path>
<path d="M1312 100h178"></path>
<path d="M868 100h10"></path>
<g>
<path d="M878 100h0"></path>
<path d="M1302 100h0"></path>
<g class="terminal">
<path d="M878 100h0"></path>
<path d="M994 100h0"></path>
<rect x="878" y="89" width="116" height="22" rx="10" ry="10"></rect>
<text x="936" y="104">"INNER JOIN"</text>
</g>
<path d="M994 100h10"></path>
<path d="M1004 100h10"></path>
<g class="non-terminal">
<path d="M1014 100h0"></path>
<path d="M1138 100h0"></path>
<rect x="1014" y="89" width="124" height="22"></rect>
<a xlink:href="reuse_databasetable.svg"><text x="1076" y="104">DatabaseTable</text>
</a>
</g>
<path d="M1138 100h10"></path>
<path d="M1148 100h10"></path>
<g class="terminal">
<path d="M1158 100h0"></path>
<path d="M1210 100h0"></path>
<rect x="1158" y="89" width="52" height="22" rx="10" ry="10"></rect>
<text x="1184" y="104">"ON"</text>
</g>
<path d="M1210 100h10"></path>
<path d="M1220 100h10"></path>
<g>
<path d="M1230 100h0"></path>
<path d="M1302 100h0"></path>
<path d="M1230 100h10"></path>
<g class="non-terminal">
<path d="M1240 100h0"></path>
<path d="M1292 100h0"></path>
<rect x="1240" y="89" width="52" height="22"></rect>
<a xlink:href="reuse_cond.svg"><text x="1266" y="104">Cond</text>
</a>
</g>
<path d="M1292 100h10"></path>
<path d="M1240 100a10 10 0 0 0 -10 10v0a10 10 0 0 0 10 10"></path>
<g>
<path d="M1240 120h52"></path>
</g>
<path d="M1292 120a10 10 0 0 0 10 -10v0a10 10 0 0 0 -10 -10"></path>
</g>
</g>
<path d="M1302 100h10"></path>
<path d="M878 100a10 10 0 0 0 -10 10v8a10 10 0 0 0 10 10"></path>
<g>
<path d="M878 128h424"></path>
</g>
<path d="M1302 128a10 10 0 0 0 10 -10v-8a10 10 0 0 0 -10 -10"></path>
</g>
<path d="M1490 100a10 10 0 0 0 10 -10v-50"></path>
<path d="M858 40v106a10 10 0 0 0 10 10"></path>
<g>
<path d="M868 156h0"></path>
<path d="M1490 156h0"></path>
<path d="M868 156h20"></path>
<g>
<path d="M888 156h0"></path>
<path d="M1380 156h90"></path>
<g class="terminal">
<path d="M888 156h0"></path>
<path d="M956 156h0"></path>
<rect x="888" y="145" width="68" height="22" rx="10" ry="10"></rect>
<text x="922" y="160">"INTO"</text>
</g>
<path d="M956 156h10"></path>
<path d="M966 156h10"></path>
<g class="terminal">
<path d="M976 156h0"></path>
<path d="M1036 156h0"></path>
<rect x="976" y="145" width="60" height="22" rx="10" ry="10"></rect>
<text x="1006" y="160">!" ("</text>
</g>
<path d="M1036 156h10"></path>
<g>
<path d="M1046 156h0"></path>
<path d="M1238 156h0"></path>
<path d="M1046 156a10 10 0 0 0 10 -10v0a10 10 0 0 1 10 -10"></path>
<g>
<path d="M1066 136h152"></path>
</g>
<path d="M1218 136a10 10 0 0 1 10 10v0a10 10 0 0 0 10 10"></path>
<path d="M1046 156h20"></path>
<g>
<path d="M1066 156h0"></path>
<path d="M1218 156h0"></path>
<path d="M1066 156h10"></path>
<g>
<path d="M1076 156h0"></path>
<path d="M1208 156h0"></path>
<g class="non-terminal">
<path d="M1076 156h0"></path>
<path d="M1144 156h0"></path>
<rect x="1076" y="145" width="68" height="22"></rect>
<a xlink:href="reuse_target.svg"><text x="1110" y="160">Target</text>
</a>
</g>
<path d="M1144 156h10"></path>
<path d="M1154 156h10"></path>
<g class="terminal">
<path d="M1164 156h0"></path>
<path d="M1208 156h0"></path>
<rect x="1164" y="145" width="44" height="22" rx="10" ry="10"></rect>
<text x="1186" y="160">","</text>
</g>
</g>
<path d="M1208 156h10"></path>
<path d="M1076 156a10 10 0 0 0 -10 10v0a10 10 0 0 0 10 10"></path>
<g>
<path d="M1076 176h132"></path>
</g>
<path d="M1208 176a10 10 0 0 0 10 -10v0a10 10 0 0 0 -10 -10"></path>
</g>
<path d="M1218 156h20"></path>
</g>
<path d="M1238 156h10"></path>
<g class="non-terminal">
<path d="M1248 156h0"></path>
<path d="M1316 156h0"></path>
<rect x="1248" y="145" width="68" height="22"></rect>
<a xlink:href="reuse_target.svg"><text x="1282" y="160">Target</text>
</a>
</g>
<path d="M1316 156h10"></path>
<path d="M1326 156h10"></path>
<g class="terminal">
<path d="M1336 156h0"></path>
<path d="M1380 156h0"></path>
<rect x="1336" y="145" width="44" height="22" rx="10" ry="10"></rect>
<text x="1358" y="160">")"</text>
</g>
</g>
<path d="M1470 156h20"></path>
<path d="M868 156a10 10 0 0 1 10 10v28a10 10 0 0 0 10 10"></path>
<g>
<path d="M888 204h0"></path>
<path d="M1470 204h0"></path>
<g>
<path d="M888 204h0"></path>
<path d="M1036 204h0"></path>
<path d="M888 204h20"></path>
<g class="terminal">
<path d="M908 204h0"></path>
<path d="M976 204h40"></path>
<rect x="908" y="193" width="68" height="22" rx="10" ry="10"></rect>
<text x="942" y="208">"INTO"</text>
</g>
<path d="M1016 204h20"></path>
<path d="M888 204a10 10 0 0 1 10 10v10a10 10 0 0 0 10 10"></path>
<g class="terminal">
<path d="M908 234h0"></path>
<path d="M1016 234h0"></path>
<rect x="908" y="223" width="108" height="22" rx="10" ry="10"></rect>
<text x="962" y="238">"APPENDING"</text>
</g>
<path d="M1016 234a10 10 0 0 0 10 -10v-10a10 10 0 0 1 10 -10"></path>
</g>
<g>
<path d="M1036 204h0"></path>
<path d="M1296 204h0"></path>
<path d="M1036 204a10 10 0 0 0 10 -10v0a10 10 0 0 1 10 -10"></path>
<g>
<path d="M1056 184h220"></path>
</g>
<path d="M1276 184a10 10 0 0 1 10 10v0a10 10 0 0 0 10 10"></path>
<path d="M1036 204h20"></path>
<g class="terminal">
<path d="M1056 204h0"></path>
<path d="M1276 204h0"></path>
<rect x="1056" y="193" width="220" height="22" rx="10" ry="10"></rect>
<text x="1166" y="208">"CORRESPONDING FIELDS OF"</text>
</g>
<path d="M1276 204h20"></path>
</g>
<path d="M1296 204h10"></path>
<g class="terminal">
<path d="M1306 204h0"></path>
<path d="M1382 204h0"></path>
<rect x="1306" y="193" width="76" height="22" rx="10" ry="10"></rect>
<text x="1344" y="208">"TABLE"</text>
</g>
<path d="M1382 204h10"></path>
<path d="M1392 204h10"></path>
<g class="non-terminal">
<path d="M1402 204h0"></path>
<path d="M1470 204h0"></path>
<rect x="1402" y="193" width="68" height="22"></rect>
<a xlink:href="reuse_target.svg"><text x="1436" y="208">Target</text>
</a>
</g>
</g>
<path d="M1470 204a10 10 0 0 0 10 -10v-28a10 10 0 0 1 10 -10"></path>
<path d="M868 156a10 10 0 0 1 10 10v97a10 10 0 0 0 10 10"></path>
<g>
<path d="M888 273h0"></path>
<path d="M1304 273h166"></path>
<g class="terminal">
<path d="M888 273h0"></path>
<path d="M956 273h0"></path>
<rect x="888" y="262" width="68" height="22" rx="10" ry="10"></rect>
<text x="922" y="277">"INTO"</text>
</g>
<path d="M956 273h10"></path>
<g>
<path d="M966 273h0"></path>
<path d="M1226 273h0"></path>
<path d="M966 273a10 10 0 0 0 10 -10v0a10 10 0 0 1 10 -10"></path>
<g>
<path d="M986 253h220"></path>
</g>
<path d="M1206 253a10 10 0 0 1 10 10v0a10 10 0 0 0 10 10"></path>
<path d="M966 273h20"></path>
<g class="terminal">
<path d="M986 273h0"></path>
<path d="M1206 273h0"></path>
<rect x="986" y="262" width="220" height="22" rx="10" ry="10"></rect>
<text x="1096" y="277">"CORRESPONDING FIELDS OF"</text>
</g>
<path d="M1206 273h20"></path>
</g>
<path d="M1226 273h10"></path>
<g class="non-terminal">
<path d="M1236 273h0"></path>
<path d="M1304 273h0"></path>
<rect x="1236" y="262" width="68" height="22"></rect>
<a xlink:href="reuse_target.svg"><text x="1270" y="277">Target</text>
</a>
</g>
</g>
<path d="M1470 273a10 10 0 0 0 10 -10v-97a10 10 0 0 1 10 -10"></path>
</g>
<path d="M1490 156a10 10 0 0 0 10 -10v-106"></path>
<path d="M858 40v253a10 10 0 0 0 10 10"></path>
<g>
<path d="M868 303h0"></path>
<path d="M1136 303h354"></path>
<g class="terminal">
<path d="M868 303h0"></path>
<path d="M1048 303h0"></path>
<rect x="868" y="292" width="180" height="22" rx="10" ry="10"></rect>
<text x="958" y="307">"FOR ALL ENTRIES IN"</text>
</g>
<path d="M1048 303h10"></path>
<path d="M1058 303h10"></path>
<g class="non-terminal">
<path d="M1068 303h0"></path>
<path d="M1136 303h0"></path>
<rect x="1068" y="292" width="68" height="22"></rect>
<a xlink:href="reuse_source.svg"><text x="1102" y="307">Source</text>
</a>
</g>
</g>
<path d="M1490 303a10 10 0 0 0 10 -10v-253"></path>
<path d="M858 40v283a10 10 0 0 0 10 10"></path>
<g>
<path d="M868 333h0"></path>
<path d="M1070 333h420"></path>
<g class="terminal">
<path d="M868 333h0"></path>
<path d="M944 333h0"></path>
<rect x="868" y="322" width="76" height="22" rx="10" ry="10"></rect>
<text x="906" y="337">"WHERE"</text>
</g>
<path d="M944 333h10"></path>
<g>
<path d="M954 333h0"></path>
<path d="M1070 333h0"></path>
<path d="M954 333h20"></path>
<g class="non-terminal">
<path d="M974 333h0"></path>
<path d="M1026 333h24"></path>
<rect x="974" y="322" width="52" height="22"></rect>
<a xlink:href="reuse_cond.svg"><text x="1000" y="337">Cond</text>
</a>
</g>
<path d="M1050 333h20"></path>
<path d="M954 333a10 10 0 0 1 10 10v10a10 10 0 0 0 10 10"></path>
<g class="non-terminal">
<path d="M974 363h0"></path>
<path d="M1050 363h0"></path>
<rect x="974" y="352" width="76" height="22"></rect>
<a xlink:href="reuse_dynamic.svg"><text x="1012" y="367">Dynamic</text>
</a>
</g>
<path d="M1050 363a10 10 0 0 0 10 -10v-10a10 10 0 0 1 10 -10"></path>
</g>
</g>
<path d="M1490 333a10 10 0 0 0 10 -10v-283"></path>
<path d="M858 40v343a10 10 0 0 0 10 10"></path>
<g>
<path d="M868 393h0"></path>
<path d="M1142 393h348"></path>
<g class="terminal">
<path d="M868 393h0"></path>
<path d="M968 393h0"></path>
<rect x="868" y="382" width="100" height="22" rx="10" ry="10"></rect>
<text x="918" y="397">"ORDER BY"</text>
</g>
<path d="M968 393h10"></path>
<g>
<path d="M978 393h0"></path>
<path d="M1142 393h0"></path>
<path d="M978 393h20"></path>
<g>
<path d="M998 393h0"></path>
<path d="M1078 393h44"></path>
<path d="M998 393h10"></path>
<g class="non-terminal">
<path d="M1008 393h0"></path>
<path d="M1068 393h0"></path>
<rect x="1008" y="382" width="60" height="22"></rect>
<a xlink:href="reuse_field.svg"><text x="1038" y="397">Field</text>
</a>
</g>
<path d="M1068 393h10"></path>
<path d="M1008 393a10 10 0 0 0 -10 10v0a10 10 0 0 0 10 10"></path>
<g>
<path d="M1008 413h60"></path>
</g>
<path d="M1068 413a10 10 0 0 0 10 -10v0a10 10 0 0 0 -10 -10"></path>
</g>
<path d="M1122 393h20"></path>
<path d="M978 393a10 10 0 0 1 10 10v19a10 10 0 0 0 10 10"></path>
<g class="terminal">
<path d="M998 432h0"></path>
<path d="M1122 432h0"></path>
<rect x="998" y="421" width="124" height="22" rx="10" ry="10"></rect>
<text x="1060" y="436">"PRIMARY KEY"</text>
</g>
<path d="M1122 432a10 10 0 0 0 10 -10v-19a10 10 0 0 1 10 -10"></path>
<path d="M978 393a10 10 0 0 1 10 10v49a10 10 0 0 0 10 10"></path>
<g class="non-terminal">
<path d="M998 462h0"></path>
<path d="M1074 462h48"></path>
<rect x="998" y="451" width="76" height="22"></rect>
<a xlink:href="reuse_dynamic.svg"><text x="1036" y="466">Dynamic</text>
</a>
</g>
<path d="M1122 462a10 10 0 0 0 10 -10v-49a10 10 0 0 1 10 -10"></path>
</g>
</g>
<path d="M1490 393a10 10 0 0 0 10 -10v-343"></path>
<path d="M858 40v442a10 10 0 0 0 10 10"></path>
<g>
<path d="M868 492h0"></path>
<path d="M1120 492h370"></path>
<g class="terminal">
<path d="M868 492h0"></path>
<path d="M944 492h0"></path>
<rect x="868" y="481" width="76" height="22" rx="10" ry="10"></rect>
<text x="906" y="496">"UP TO"</text>
</g>
<path d="M944 492h10"></path>
<path d="M954 492h10"></path>
<g class="non-terminal">
<path d="M964 492h0"></path>
<path d="M1032 492h0"></path>
<rect x="964" y="481" width="68" height="22"></rect>
<a xlink:href="reuse_source.svg"><text x="998" y="496">Source</text>
</a>
</g>
<path d="M1032 492h10"></path>
<path d="M1042 492h10"></path>
<g class="terminal">
<path d="M1052 492h0"></path>
<path d="M1120 492h0"></path>
<rect x="1052" y="481" width="68" height="22" rx="10" ry="10"></rect>
<text x="1086" y="496">"ROWS"</text>
</g>
</g>
<path d="M1490 492a10 10 0 0 0 10 -10v-442"></path>
<g class="diagram-text">
<title>take one or more branches, once each, in any order</title>
<path d="M 858 30 h -26 a 4 4 0 0 0 -4 4 v 12 a 4 4 0 0 0 4 4 h 26 z" class="diagram-text"></path>
<text x="843" y="44" class="diagram-text">1+</text>
<path d="M 1500 30 h 16 a 4 4 0 0 1 4 4 v 12 a 4 4 0 0 1 -4 4 h -16 z" class="diagram-text"></path>
<path d="M 1507 38 a 4 4 0 1 0 6 -1 m 2.75 -1 h -4 v 4 m 0 -3 h 2" style="stroke-width: 1.75"></path>
</g>
</g>
</g>
<path d="M1520 40h10"></path>
<path d="M 1530 40 h 20 m -10 -10 v 20 m 10 -20 v 20"></path>
</g>
</svg>
