<svg xmlns="http://www.w3.org/2000/svg" xmlns:xlink="http://www.w3.org/1999/xlink" class="railroad-diagram" width="1742" height="862" viewBox="0 0 1742 862">
<defs>
<style type="text/css"><![CDATA[
path {
stroke-width: 3;
stroke: black;
fill: rgba(0,0,0,0);
}
text {
font: bold 14px monospace;
text-anchor: middle;
}
text.diagram-text {
font-size: 12px;
}
a {
fill: blue;
}
text.diagram-arrow {
font-size: 16px;
}
text.label {
text-anchor: start;
}
text.comment {
font: italic 12px monospace;
}
rect {
stroke-width: 3;
stroke: black;
fill: #BCBCBC;
}
path.diagram-text {
stroke-width: 3;
stroke: black;
fill: #BCBCBC;
cursor: help;
}
]]></style>
</defs>
<g transform="translate(.5 .5)">
<path d="M 20 30 v 20 m 10 -20 v 20 m -10 -10 h 20.5"></path>
<path d="M40 40h10"></path>
<g>
<path d="M50 40h0"></path>
<path d="M1692 40h0"></path>
<g class="terminal">
<path d="M50 40h0"></path>
<path d="M214 40h0"></path>
<rect x="50" y="29" width="164" height="22" rx="10" ry="10"></rect>
<text x="132" y="44">"SELECTION-SCREEN"</text>
</g>
<path d="M214 40h10"></path>
<g>
<path d="M224 40h0"></path>
<path d="M1692 40h0"></path>
<path d="M224 40h20"></path>
<g>
<path d="M244 40h0"></path>
<path d="M1232 40h440"></path>
<g class="terminal">
<path d="M244 40h0"></path>
<path d="M336 40h0"></path>
<rect x="244" y="29" width="92" height="22" rx="10" ry="10"></rect>
<text x="290" y="44">"COMMENT"</text>
</g>
<path d="M336 40h10"></path>
<path d="M346 40h10"></path>
<g>
<path d="M356 40h0"></path>
<path d="M776 40h0"></path>
<g>
<path d="M356 40h0"></path>
<path d="M480 40h0"></path>
<path d="M356 40a10 10 0 0 0 10 -10v0a10 10 0 0 1 10 -10"></path>
<g>
<path d="M376 20h84"></path>
</g>
<path d="M460 20a10 10 0 0 1 10 10v0a10 10 0 0 0 10 10"></path>
<path d="M356 40h20"></path>
<g class="terminal">
<path d="M376 40h0"></path>
<path d="M460 40h0"></path>
<rect x="376" y="29" width="84" height="22" rx="10" ry="10"></rect>
<text x="418" y="44">^\/?\d+$</text>
</g>
<path d="M460 40h20"></path>
</g>
<g>
<path d="M480 40h0"></path>
<path d="M580 40h0"></path>
<path d="M480 40h20"></path>
<g class="terminal">
<path d="M500 40h0"></path>
<path d="M552 40h8"></path>
<rect x="500" y="29" width="52" height="22" rx="10" ry="10"></rect>
<text x="526" y="44">!"("</text>
</g>
<path d="M560 40h20"></path>
<path d="M480 40a10 10 0 0 1 10 10v10a10 10 0 0 0 10 10"></path>
<g class="terminal">
<path d="M500 70h0"></path>
<path d="M560 70h0"></path>
<rect x="500" y="59" width="60" height="22" rx="10" ry="10"></rect>
<text x="530" y="74">!" ("</text>
</g>
<path d="M560 70a10 10 0 0 0 10 -10v-10a10 10 0 0 1 10 -10"></path>
</g>
<path d="M580 40h10"></path>
<g class="non-terminal">
<path d="M590 40h0"></path>
<path d="M666 40h0"></path>
<rect x="590" y="29" width="76" height="22"></rect>
<a xlink:href="reuse_integer.svg"><text x="628" y="44">Integer</text>
</a>
</g>
<path d="M666 40h10"></path>
<g>
<path d="M676 40h0"></path>
<path d="M776 40h0"></path>
<path d="M676 40h20"></path>
<g class="terminal">
<path d="M696 40h0"></path>
<path d="M756 40h0"></path>
<rect x="696" y="29" width="60" height="22" rx="10" ry="10"></rect>
<text x="726" y="44">!") "</text>
</g>
<path d="M756 40h20"></path>
<path d="M676 40a10 10 0 0 1 10 10v10a10 10 0 0 0 10 10"></path>
<g class="terminal">
<path d="M696 70h0"></path>
<path d="M748 70h8"></path>
<rect x="696" y="59" width="52" height="22" rx="10" ry="10"></rect>
<text x="722" y="74">!")"</text>
</g>
<path d="M756 70a10 10 0 0 0 10 -10v-10a10 10 0 0 1 10 -10"></path>
</g>
</g>
<path d="M776 40h10"></path>
<g>
<path d="M786 40h0"></path>
<path d="M894 40h0"></path>
<path d="M786 40a10 10 0 0 0 10 -10v0a10 10 0 0 1 10 -10"></path>
<g>
<path d="M806 20h68"></path>
</g>
<path d="M874 20a10 10 0 0 1 10 10v0a10 10 0 0 0 10 10"></path>
<path d="M786 40h20"></path>
<g class="non-terminal">
<path d="M806 40h0"></path>
<path d="M874 40h0"></path>
<rect x="806" y="29" width="68" height="22"></rect>
<a xlink:href="reuse_source.svg"><text x="840" y="44">Source</text>
</a>
</g>
<path d="M874 40h20"></path>
</g>
<g>
<path d="M894 40h0"></path>
<path d="M1232 40h0"></path>
<path d="M894 40a10 10 0 0 0 10 -10v0a10 10 0 0 1 10 -10"></path>
<g>
<path d="M914 20h298"></path>
</g>
<path d="M1212 20a10 10 0 0 1 10 10v0a10 10 0 0 0 10 10"></path>
<path d="M894 40h20"></path>
<g>
<path d="M914 40h0"></path>
<path d="M1212 40h0"></path>
<path d="M944 40h10"></path>
<g>
<path d="M954 40h0"></path>
<path d="M1142 40h40"></path>
<g class="terminal">
<path d="M954 40h0"></path>
<path d="M1062 40h0"></path>
<rect x="954" y="29" width="108" height="22" rx="10" ry="10"></rect>
<text x="1008" y="44">"FOR FIELD"</text>
</g>
<path d="M1062 40h10"></path>
<path d="M1072 40h10"></path>
<g class="non-terminal">
<path d="M1082 40h0"></path>
<path d="M1142 40h0"></path>
<rect x="1082" y="29" width="60" height="22"></rect>
<a xlink:href="reuse_field.svg"><text x="1112" y="44">Field</text>
</a>
</g>
</g>
<path d="M1182 40h10"></path>
<path d="M944 40v20a10 10 0 0 0 10 10"></path>
<g>
<path d="M954 70h0"></path>
<path d="M1134 70h48"></path>
<g class="terminal">
<path d="M954 70h0"></path>
<path d="M1054 70h0"></path>
<rect x="954" y="59" width="100" height="22" rx="10" ry="10"></rect>
<text x="1004" y="74">"MODIF ID"</text>
</g>
<path d="M1054 70h10"></path>
<path d="M1064 70h10"></path>
<g class="non-terminal">
<path d="M1074 70h0"></path>
<path d="M1134 70h0"></path>
<rect x="1074" y="59" width="60" height="22"></rect>
<a xlink:href="reuse_modif.svg"><text x="1104" y="74">Modif</text>
</a>
</g>
</g>
<path d="M1182 70a10 10 0 0 0 10 -10v-20"></path>
<path d="M944 40v50a10 10 0 0 0 10 10"></path>
<g>
<path d="M954 100h0"></path>
<path d="M1182 100h0"></path>
<g class="terminal">
<path d="M954 100h0"></path>
<path d="M1102 100h0"></path>
<rect x="954" y="89" width="148" height="22" rx="10" ry="10"></rect>
<text x="1028" y="104">"VISIBLE LENGTH"</text>
</g>
<path d="M1102 100h10"></path>
<path d="M1112 100h10"></path>
<g class="terminal">
<path d="M1122 100h0"></path>
<path d="M1182 100h0"></path>
<rect x="1122" y="89" width="60" height="22" rx="10" ry="10"></rect>
<text x="1152" y="104">^\d+$</text>
</g>
</g>
<path d="M1182 100a10 10 0 0 0 10 -10v-50"></path>
<g class="diagram-text">
<title>take one or more branches, once each, in any order</title>
<path d="M 944 30 h -26 a 4 4 0 0 0 -4 4 v 12 a 4 4 0 0 0 4 4 h 26 z" class="diagram-text"></path>
<text x="929" y="44" class="diagram-text">1+</text>
<path d="M 1192 30 h 16 a 4 4 0 0 1 4 4 v 12 a 4 4 0 0 1 -4 4 h -16 z" class="diagram-text"></path>
<path d="M 1199 38 a 4 4 0 1 0 6 -1 m 2.75 -1 h -4 v 4 m 0 -3 h 2" style="stroke-width: 1.75"></path>
</g>
</g>
<path d="M1212 40h20"></path>
</g>
</g>
<path d="M1672 40h20"></path>
<path d="M224 40a10 10 0 0 1 10 10v70a10 10 0 0 0 10 10"></path>
<g>
<path d="M244 130h0"></path>
<path d="M472 130h1200"></path>
<g class="terminal">
<path d="M244 130h0"></path>
<path d="M376 130h0"></path>
<rect x="244" y="119" width="132" height="22" rx="10" ry="10"></rect>
<text x="310" y="134">"FUNCTION KEY"</text>
</g>
<path d="M376 130h10"></path>
<path d="M386 130h10"></path>
<g class="non-terminal">
<path d="M396 130h0"></path>
<path d="M472 130h0"></path>
<rect x="396" y="119" width="76" height="22"></rect>
<a xlink:href="reuse_integer.svg"><text x="434" y="134">Integer</text>
</a>
</g>
</g>
<path d="M1672 130a10 10 0 0 0 10 -10v-70a10 10 0 0 1 10 -10"></path>
<path d="M224 40a10 10 0 0 1 10 10v109a10 10 0 0 0 10 10"></path>
<g>
<path d="M244 169h0"></path>
<path d="M438 169h1234"></path>
<g class="terminal">
<path d="M244 169h0"></path>
<path d="M312 169h0"></path>
<rect x="244" y="158" width="68" height="22" rx="10" ry="10"></rect>
<text x="278" y="173">"SKIP"</text>
</g>
<path d="M312 169h10"></path>
<g>
<path d="M322 169h0"></path>
<path d="M438 169h0"></path>
<path d="M322 169a10 10 0 0 0 10 -10v0a10 10 0 0 1 10 -10"></path>
<g>
<path d="M342 149h76"></path>
</g>
<path d="M418 149a10 10 0 0 1 10 10v0a10 10 0 0 0 10 10"></path>
<path d="M322 169h20"></path>
<g class="non-terminal">
<path d="M342 169h0"></path>
<path d="M418 169h0"></path>
<rect x="342" y="158" width="76" height="22"></rect>
<a xlink:href="reuse_integer.svg"><text x="380" y="173">Integer</text>
</a>
</g>
<path d="M418 169h20"></path>
</g>
</g>
<path d="M1672 169a10 10 0 0 0 10 -10v-109a10 10 0 0 1 10 -10"></path>
<path d="M224 40a10 10 0 0 1 10 10v139a10 10 0 0 0 10 10"></path>
<g>
<path d="M244 199h0"></path>
<path d="M432 199h1240"></path>
<g class="terminal">
<path d="M244 199h0"></path>
<path d="M344 199h0"></path>
<rect x="244" y="188" width="100" height="22" rx="10" ry="10"></rect>
<text x="294" y="203">"POSITION"</text>
</g>
<path d="M344 199h10"></path>
<path d="M354 199h10"></path>
<g class="non-terminal">
<path d="M364 199h0"></path>
<path d="M432 199h0"></path>
<rect x="364" y="188" width="68" height="22"></rect>
<a xlink:href="reuse_source.svg"><text x="398" y="203">Source</text>
</a>
</g>
</g>
<path d="M1672 199a10 10 0 0 0 10 -10v-139a10 10 0 0 1 10 -10"></path>
<path d="M224 40a10 10 0 0 1 10 10v169a10 10 0 0 0 10 10"></path>
<g>
<path d="M244 229h0"></path>
<path d="M496 229h1176"></path>
<g class="terminal">
<path d="M244 229h0"></path>
<path d="M392 229h0"></path>
<rect x="244" y="218" width="148" height="22" rx="10" ry="10"></rect>
<text x="318" y="233">"INCLUDE BLOCKS"</text>
</g>
<path d="M392 229h10"></path>
<path d="M402 229h10"></path>
<g class="non-terminal">
<path d="M412 229h0"></path>
<path d="M496 229h0"></path>
<rect x="412" y="218" width="84" height="22"></rect>
<a xlink:href="reuse_fieldsub.svg"><text x="454" y="233">FieldSub</text>
</a>
</g>
</g>
<path d="M1672 229a10 10 0 0 0 10 -10v-169a10 10 0 0 1 10 -10"></path>
<path d="M224 40a10 10 0 0 1 10 10v208a10 10 0 0 0 10 10"></path>
<g>
<path d="M244 268h0"></path>
<path d="M1672 268h0"></path>
<g class="terminal">
<path d="M244 268h0"></path>
<path d="M360 268h0"></path>
<rect x="244" y="257" width="116" height="22" rx="10" ry="10"></rect>
<text x="302" y="272">"PUSHBUTTON"</text>
</g>
<path d="M360 268h10"></path>
<path d="M370 268h10"></path>
<g>
<path d="M380 268h0"></path>
<path d="M800 268h0"></path>
<g>
<path d="M380 268h0"></path>
<path d="M504 268h0"></path>
<path d="M380 268a10 10 0 0 0 10 -10v0a10 10 0 0 1 10 -10"></path>
<g>
<path d="M400 248h84"></path>
</g>
<path d="M484 248a10 10 0 0 1 10 10v0a10 10 0 0 0 10 10"></path>
<path d="M380 268h20"></path>
<g class="terminal">
<path d="M400 268h0"></path>
<path d="M484 268h0"></path>
<rect x="400" y="257" width="84" height="22" rx="10" ry="10"></rect>
<text x="442" y="272">^\/?\d+$</text>
</g>
<path d="M484 268h20"></path>
</g>
<g>
<path d="M504 268h0"></path>
<path d="M604 268h0"></path>
<path d="M504 268h20"></path>
<g class="terminal">
<path d="M524 268h0"></path>
<path d="M576 268h8"></path>
<rect x="524" y="257" width="52" height="22" rx="10" ry="10"></rect>
<text x="550" y="272">!"("</text>
</g>
<path d="M584 268h20"></path>
<path d="M504 268a10 10 0 0 1 10 10v10a10 10 0 0 0 10 10"></path>
<g class="terminal">
<path d="M524 298h0"></path>
<path d="M584 298h0"></path>
<rect x="524" y="287" width="60" height="22" rx="10" ry="10"></rect>
<text x="554" y="302">!" ("</text>
</g>
<path d="M584 298a10 10 0 0 0 10 -10v-10a10 10 0 0 1 10 -10"></path>
</g>
<path d="M604 268h10"></path>
<g class="non-terminal">
<path d="M614 268h0"></path>
<path d="M690 268h0"></path>
<rect x="614" y="257" width="76" height="22"></rect>
<a xlink:href="reuse_integer.svg"><text x="652" y="272">Integer</text>
</a>
</g>
<path d="M690 268h10"></path>
<g>
<path d="M700 268h0"></path>
<path d="M800 268h0"></path>
<path d="M700 268h20"></path>
<g class="terminal">
<path d="M720 268h0"></path>
<path d="M780 268h0"></path>
<rect x="720" y="257" width="60" height="22" rx="10" ry="10"></rect>
<text x="750" y="272">!") "</text>
</g>
<path d="M780 268h20"></path>
<path d="M700 268a10 10 0 0 1 10 10v10a10 10 0 0 0 10 10"></path>
<g class="terminal">
<path d="M720 298h0"></path>
<path d="M772 298h8"></path>
<rect x="720" y="287" width="52" height="22" rx="10" ry="10"></rect>
<text x="746" y="302">!")"</text>
</g>
<path d="M780 298a10 10 0 0 0 10 -10v-10a10 10 0 0 1 10 -10"></path>
</g>
</g>
<path d="M800 268h10"></path>
<path d="M810 268h10"></path>
<g class="non-terminal">
<path d="M820 268h0"></path>
<path d="M888 268h0"></path>
<rect x="820" y="257" width="68" height="22"></rect>
<a xlink:href="reuse_source.svg"><text x="854" y="272">Source</text>
</a>
</g>
<path d="M888 268h10"></path>
<path d="M898 268h10"></path>
<g>
<path d="M908 268h0"></path>
<path d="M1174 268h0"></path>
<g class="terminal">
<path d="M908 268h0"></path>
<path d="M1040 268h0"></path>
<rect x="908" y="257" width="132" height="22" rx="10" ry="10"></rect>
<text x="974" y="272">"USER-COMMAND"</text>
</g>
<path d="M1040 268h10"></path>
<g>
<path d="M1050 268h0"></path>
<path d="M1174 268h0"></path>
<path d="M1050 268h20"></path>
<g class="non-terminal">
<path d="M1070 268h0"></path>
<path d="M1130 268h24"></path>
<rect x="1070" y="257" width="60" height="22"></rect>
<a xlink:href="reuse_field.svg"><text x="1100" y="272">Field</text>
</a>
</g>
<path d="M1154 268h20"></path>
<path d="M1050 268a10 10 0 0 1 10 10v10a10 10 0 0 0 10 10"></path>
<g class="non-terminal">
<path d="M1070 298h0"></path>
<path d="M1154 298h0"></path>
<rect x="1070" y="287" width="84" height="22"></rect>
<a xlink:href="reuse_constant.svg"><text x="1112" y="302">Constant</text>
</a>
</g>
<path d="M1154 298a10 10 0 0 0 10 -10v-10a10 10 0 0 1 10 -10"></path>
</g>
</g>
<path d="M1174 268h10"></path>
<g>
<path d="M1184 268h0"></path>
<path d="M1404 268h0"></path>
<path d="M1184 268a10 10 0 0 0 10 -10v0a10 10 0 0 1 10 -10"></path>
<g>
<path d="M1204 248h180"></path>
</g>
<path d="M1384 248a10 10 0 0 1 10 10v0a10 10 0 0 0 10 10"></path>
<path d="M1184 268h20"></path>
<g>
<path d="M1204 268h0"></path>
<path d="M1384 268h0"></path>
<g class="terminal">
<path d="M1204 268h0"></path>
<path d="M1304 268h0"></path>
<rect x="1204" y="257" width="100" height="22" rx="10" ry="10"></rect>
<text x="1254" y="272">"MODIF ID"</text>
</g>
<path d="M1304 268h10"></path>
<path d="M1314 268h10"></path>
<g class="non-terminal">
<path d="M1324 268h0"></path>
<path d="M1384 268h0"></path>
<rect x="1324" y="257" width="60" height="22"></rect>
<a xlink:href="reuse_modif.svg"><text x="1354" y="272">Modif</text>
</a>
</g>
</g>
<path d="M1384 268h20"></path>
</g>
<g>
<path d="M1404 268h0"></path>
<path d="M1672 268h0"></path>
<path d="M1404 268a10 10 0 0 0 10 -10v0a10 10 0 0 1 10 -10"></path>
<g>
<path d="M1424 248h228"></path>
</g>
<path d="M1652 248a10 10 0 0 1 10 10v0a10 10 0 0 0 10 10"></path>
<path d="M1404 268h20"></path>
<g>
<path d="M1424 268h0"></path>
<path d="M1652 268h0"></path>
<g class="terminal">
<path d="M1424 268h0"></path>
<path d="M1572 268h0"></path>
<rect x="1424" y="257" width="148" height="22" rx="10" ry="10"></rect>
<text x="1498" y="272">"VISIBLE LENGTH"</text>
</g>
<path d="M1572 268h10"></path>
<path d="M1582 268h10"></path>
<g class="terminal">
<path d="M1592 268h0"></path>
<path d="M1652 268h0"></path>
<rect x="1592" y="257" width="60" height="22" rx="10" ry="10"></rect>
<text x="1622" y="272">^\d+$</text>
</g>
</g>
<path d="M1652 268h20"></path>
</g>
</g>
<path d="M1672 268a10 10 0 0 0 10 -10v-208a10 10 0 0 1 10 -10"></path>
<path d="M224 40a10 10 0 0 1 10 10v277a10 10 0 0 0 10 10"></path>
<g>
<path d="M244 337h0"></path>
<path d="M1244 337h428"></path>
<g class="terminal">
<path d="M244 337h0"></path>
<path d="M304 337h0"></path>
<rect x="244" y="326" width="60" height="22" rx="10" ry="10"></rect>
<text x="274" y="341">"TAB"</text>
</g>
<path d="M304 337h10"></path>
<path d="M314 337h10"></path>
<g class="terminal">
<path d="M324 337h0"></path>
<path d="M384 337h0"></path>
<rect x="324" y="326" width="60" height="22" rx="10" ry="10"></rect>
<text x="354" y="341">!" ("</text>
</g>
<path d="M384 337h10"></path>
<path d="M394 337h10"></path>
<g class="non-terminal">
<path d="M404 337h0"></path>
<path d="M480 337h0"></path>
<rect x="404" y="326" width="76" height="22"></rect>
<a xlink:href="reuse_integer.svg"><text x="442" y="341">Integer</text>
</a>
</g>
<path d="M480 337h10"></path>
<path d="M490 337h10"></path>
<g class="terminal">
<path d="M500 337h0"></path>
<path d="M560 337h0"></path>
<rect x="500" y="326" width="60" height="22" rx="10" ry="10"></rect>
<text x="530" y="341">!") "</text>
</g>
<path d="M560 337h10"></path>
<path d="M570 337h10"></path>
<g class="non-terminal">
<path d="M580 337h0"></path>
<path d="M664 337h0"></path>
<rect x="580" y="326" width="84" height="22"></rect>
<a xlink:href="reuse_fieldsub.svg"><text x="622" y="341">FieldSub</text>
</a>
</g>
<path d="M664 337h10"></path>
<path d="M674 337h10"></path>
<g>
<path d="M684 337h0"></path>
<path d="M950 337h0"></path>
<g class="terminal">
<path d="M684 337h0"></path>
<path d="M816 337h0"></path>
<rect x="684" y="326" width="132" height="22" rx="10" ry="10"></rect>
<text x="750" y="341">"USER-COMMAND"</text>
</g>
<path d="M816 337h10"></path>
<g>
<path d="M826 337h0"></path>
<path d="M950 337h0"></path>
<path d="M826 337h20"></path>
<g class="non-terminal">
<path d="M846 337h0"></path>
<path d="M906 337h24"></path>
<rect x="846" y="326" width="60" height="22"></rect>
<a xlink:href="reuse_field.svg"><text x="876" y="341">Field</text>
</a>
</g>
<path d="M930 337h20"></path>
<path d="M826 337a10 10 0 0 1 10 10v10a10 10 0 0 0 10 10"></path>
<g class="non-terminal">
<path d="M846 367h0"></path>
<path d="M930 367h0"></path>
<rect x="846" y="356" width="84" height="22"></rect>
<a xlink:href="reuse_constant.svg"><text x="888" y="371">Constant</text>
</a>
</g>
<path d="M930 367a10 10 0 0 0 10 -10v-10a10 10 0 0 1 10 -10"></path>
</g>
</g>
<path d="M950 337h10"></path>
<g>
<path d="M960 337h0"></path>
<path d="M1244 337h0"></path>
<path d="M960 337a10 10 0 0 0 10 -10v0a10 10 0 0 1 10 -10"></path>
<g>
<path d="M980 317h244"></path>
</g>
<path d="M1224 317a10 10 0 0 1 10 10v0a10 10 0 0 0 10 10"></path>
<path d="M960 337h20"></path>
<g>
<path d="M980 337h0"></path>
<path d="M1224 337h0"></path>
<g class="terminal">
<path d="M980 337h0"></path>
<path d="M1128 337h0"></path>
<rect x="980" y="326" width="148" height="22" rx="10" ry="10"></rect>
<text x="1054" y="341">"DEFAULT SCREEN"</text>
</g>
<path d="M1128 337h10"></path>
<path d="M1138 337h10"></path>
<g class="non-terminal">
<path d="M1148 337h0"></path>
<path d="M1224 337h0"></path>
<rect x="1148" y="326" width="76" height="22"></rect>
<a xlink:href="reuse_integer.svg"><text x="1186" y="341">Integer</text>
</a>
</g>
</g>
<path d="M1224 337h20"></path>
</g>
</g>
<path d="M1672 337a10 10 0 0 0 10 -10v-277a10 10 0 0 1 10 -10"></path>
<path d="M224 40a10 10 0 0 1 10 10v354a10 10 0 0 0 10 10"></path>
<g>
<path d="M244 414h0"></path>
<path d="M790 414h882"></path>
<g class="terminal">
<path d="M244 414h0"></path>
<path d="M320 414h0"></path>
<rect x="244" y="403" width="76" height="22" rx="10" ry="10"></rect>
<text x="282" y="418">"ULINE"</text>
</g>
<path d="M320 414h10"></path>
<g>
<path d="M330 414h0"></path>
<path d="M790 414h0"></path>
<path d="M330 414a10 10 0 0 0 10 -10v-8a10 10 0 0 1 10 -10"></path>
<g>
<path d="M350 386h420"></path>
</g>
<path d="M770 386a10 10 0 0 1 10 10v8a10 10 0 0 0 10 10"></path>
<path d="M330 414h20"></path>
<g>
<path d="M350 414h0"></path>
<path d="M770 414h0"></path>
<g>
<path d="M350 414h0"></path>
<path d="M474 414h0"></path>
<path d="M350 414a10 10 0 0 0 10 -10v0a10 10 0 0 1 10 -10"></path>
<g>
<path d="M370 394h84"></path>
</g>
<path d="M454 394a10 10 0 0 1 10 10v0a10 10 0 0 0 10 10"></path>
<path d="M350 414h20"></path>
<g class="terminal">
<path d="M370 414h0"></path>
<path d="M454 414h0"></path>
<rect x="370" y="403" width="84" height="22" rx="10" ry="10"></rect>
<text x="412" y="418">^\/?\d+$</text>
</g>
<path d="M454 414h20"></path>
</g>
<g>
<path d="M474 414h0"></path>
<path d="M574 414h0"></path>
<path d="M474 414h20"></path>
<g class="terminal">
<path d="M494 414h0"></path>
<path d="M546 414h8"></path>
<rect x="494" y="403" width="52" height="22" rx="10" ry="10"></rect>
<text x="520" y="418">!"("</text>
</g>
<path d="M554 414h20"></path>
<path d="M474 414a10 10 0 0 1 10 10v10a10 10 0 0 0 10 10"></path>
<g class="terminal">
<path d="M494 444h0"></path>
<path d="M554 444h0"></path>
<rect x="494" y="433" width="60" height="22" rx="10" ry="10"></rect>
<text x="524" y="448">!" ("</text>
</g>
<path d="M554 444a10 10 0 0 0 10 -10v-10a10 10 0 0 1 10 -10"></path>
</g>
<path d="M574 414h10"></path>
<g class="non-terminal">
<path d="M584 414h0"></path>
<path d="M660 414h0"></path>
<rect x="584" y="403" width="76" height="22"></rect>
<a xlink:href="reuse_integer.svg"><text x="622" y="418">Integer</text>
</a>
</g>
<path d="M660 414h10"></path>
<g>
<path d="M670 414h0"></path>
<path d="M770 414h0"></path>
<path d="M670 414h20"></path>
<g class="terminal">
<path d="M690 414h0"></path>
<path d="M750 414h0"></path>
<rect x="690" y="403" width="60" height="22" rx="10" ry="10"></rect>
<text x="720" y="418">!") "</text>
</g>
<path d="M750 414h20"></path>
<path d="M670 414a10 10 0 0 1 10 10v10a10 10 0 0 0 10 10"></path>
<g class="terminal">
<path d="M690 444h0"></path>
<path d="M742 444h8"></path>
<rect x="690" y="433" width="52" height="22" rx="10" ry="10"></rect>
<text x="716" y="448">!")"</text>
</g>
<path d="M750 444a10 10 0 0 0 10 -10v-10a10 10 0 0 1 10 -10"></path>
</g>
</g>
<path d="M770 414h20"></path>
</g>
</g>
<path d="M1672 414a10 10 0 0 0 10 -10v-354a10 10 0 0 1 10 -10"></path>
<path d="M224 40a10 10 0 0 1 10 10v423a10 10 0 0 0 10 10"></path>
<g>
<path d="M244 483h0"></path>
<path d="M1038 483h634"></path>
<g class="terminal">
<path d="M244 483h0"></path>
<path d="M392 483h0"></path>
<rect x="244" y="472" width="148" height="22" rx="10" ry="10"></rect>
<text x="318" y="487">"BEGIN OF BLOCK"</text>
</g>
<path d="M392 483h10"></path>
<path d="M402 483h10"></path>
<g class="non-terminal">
<path d="M412 483h0"></path>
<path d="M496 483h0"></path>
<rect x="412" y="472" width="84" height="22"></rect>
<a xlink:href="reuse_fieldsub.svg"><text x="454" y="487">FieldSub</text>
</a>
</g>
<path d="M496 483h10"></path>
<g>
<path d="M506 483h0"></path>
<path d="M662 483h0"></path>
<path d="M506 483a10 10 0 0 0 10 -10v0a10 10 0 0 1 10 -10"></path>
<g>
<path d="M526 463h116"></path>
</g>
<path d="M642 463a10 10 0 0 1 10 10v0a10 10 0 0 0 10 10"></path>
<path d="M506 483h20"></path>
<g class="terminal">
<path d="M526 483h0"></path>
<path d="M642 483h0"></path>
<rect x="526" y="472" width="116" height="22" rx="10" ry="10"></rect>
<text x="584" y="487">"WITH FRAME"</text>
</g>
<path d="M642 483h20"></path>
</g>
<g>
<path d="M662 483h0"></path>
<path d="M866 483h0"></path>
<path d="M662 483a10 10 0 0 0 10 -10v0a10 10 0 0 1 10 -10"></path>
<g>
<path d="M682 463h164"></path>
</g>
<path d="M846 463a10 10 0 0 1 10 10v0a10 10 0 0 0 10 10"></path>
<path d="M662 483h20"></path>
<g>
<path d="M682 483h0"></path>
<path d="M846 483h0"></path>
<g class="terminal">
<path d="M682 483h0"></path>
<path d="M758 483h0"></path>
<rect x="682" y="472" width="76" height="22" rx="10" ry="10"></rect>
<text x="720" y="487">"TITLE"</text>
</g>
<path d="M758 483h10"></path>
<path d="M768 483h10"></path>
<g class="non-terminal">
<path d="M778 483h0"></path>
<path d="M846 483h0"></path>
<rect x="778" y="472" width="68" height="22"></rect>
<a xlink:href="reuse_source.svg"><text x="812" y="487">Source</text>
</a>
</g>
</g>
<path d="M846 483h20"></path>
</g>
<g>
<path d="M866 483h0"></path>
<path d="M1038 483h0"></path>
<path d="M866 483a10 10 0 0 0 10 -10v0a10 10 0 0 1 10 -10"></path>
<g>
<path d="M886 463h132"></path>
</g>
<path d="M1018 463a10 10 0 0 1 10 10v0a10 10 0 0 0 10 10"></path>
<path d="M866 483h20"></path>
<g class="terminal">
<path d="M886 483h0"></path>
<path d="M1018 483h0"></path>
<rect x="886" y="472" width="132" height="22" rx="10" ry="10"></rect>
<text x="952" y="487">"NO INTERVALS"</text>
</g>
<path d="M1018 483h20"></path>
</g>
</g>
<path d="M1672 483a10 10 0 0 0 10 -10v-423a10 10 0 0 1 10 -10"></path>
<path d="M224 40a10 10 0 0 1 10 10v462a10 10 0 0 0 10 10"></path>
<g>
<path d="M244 522h0"></path>
<path d="M982 522h690"></path>
<g class="terminal">
<path d="M244 522h0"></path>
<path d="M448 522h0"></path>
<rect x="244" y="511" width="204" height="22" rx="10" ry="10"></rect>
<text x="346" y="526">"BEGIN OF TABBED BLOCK"</text>
</g>
<path d="M448 522h10"></path>
<path d="M458 522h10"></path>
<g class="non-terminal">
<path d="M468 522h0"></path>
<path d="M528 522h0"></path>
<rect x="468" y="511" width="60" height="22"></rect>
<a xlink:href="reuse_field.svg"><text x="498" y="526">Field</text>
</a>
</g>
<path d="M528 522h10"></path>
<path d="M538 522h10"></path>
<g class="terminal">
<path d="M548 522h0"></path>
<path d="M608 522h0"></path>
<rect x="548" y="511" width="60" height="22" rx="10" ry="10"></rect>
<text x="578" y="526">"FOR"</text>
</g>
<path d="M608 522h10"></path>
<path d="M618 522h10"></path>
<g class="non-terminal">
<path d="M628 522h0"></path>
<path d="M704 522h0"></path>
<rect x="628" y="511" width="76" height="22"></rect>
<a xlink:href="reuse_integer.svg"><text x="666" y="526">Integer</text>
</a>
</g>
<path d="M704 522h10"></path>
<path d="M714 522h10"></path>
<g class="terminal">
<path d="M724 522h0"></path>
<path d="M800 522h0"></path>
<rect x="724" y="511" width="76" height="22" rx="10" ry="10"></rect>
<text x="762" y="526">"LINES"</text>
</g>
<path d="M800 522h10"></path>
<g>
<path d="M810 522h0"></path>
<path d="M982 522h0"></path>
<path d="M810 522a10 10 0 0 0 10 -10v0a10 10 0 0 1 10 -10"></path>
<g>
<path d="M830 502h132"></path>
</g>
<path d="M962 502a10 10 0 0 1 10 10v0a10 10 0 0 0 10 10"></path>
<path d="M810 522h20"></path>
<g class="terminal">
<path d="M830 522h0"></path>
<path d="M962 522h0"></path>
<rect x="830" y="511" width="132" height="22" rx="10" ry="10"></rect>
<text x="896" y="526">"NO INTERVALS"</text>
</g>
<path d="M962 522h20"></path>
</g>
</g>
<path d="M1672 522a10 10 0 0 0 10 -10v-462a10 10 0 0 1 10 -10"></path>
<path d="M224 40a10 10 0 0 1 10 10v492a10 10 0 0 0 10 10"></path>
<g>
<path d="M244 552h0"></path>
<path d="M480 552h1192"></path>
<g class="terminal">
<path d="M244 552h0"></path>
<path d="M376 552h0"></path>
<rect x="244" y="541" width="132" height="22" rx="10" ry="10"></rect>
<text x="310" y="556">"END OF BLOCK"</text>
</g>
<path d="M376 552h10"></path>
<path d="M386 552h10"></path>
<g class="non-terminal">
<path d="M396 552h0"></path>
<path d="M480 552h0"></path>
<rect x="396" y="541" width="84" height="22"></rect>
<a xlink:href="reuse_fieldsub.svg"><text x="438" y="556">FieldSub</text>
</a>
</g>
</g>
<path d="M1672 552a10 10 0 0 0 10 -10v-492a10 10 0 0 1 10 -10"></path>
<path d="M224 40a10 10 0 0 1 10 10v522a10 10 0 0 0 10 10"></path>
<g class="terminal">
<path d="M244 582h0"></path>
<path d="M384 582h1288"></path>
<rect x="244" y="571" width="140" height="22" rx="10" ry="10"></rect>
<text x="314" y="586">"BEGIN OF LINE"</text>
</g>
<path d="M1672 582a10 10 0 0 0 10 -10v-522a10 10 0 0 1 10 -10"></path>
<path d="M224 40a10 10 0 0 1 10 10v552a10 10 0 0 0 10 10"></path>
<g class="terminal">
<path d="M244 612h0"></path>
<path d="M368 612h1304"></path>
<rect x="244" y="601" width="124" height="22" rx="10" ry="10"></rect>
<text x="306" y="616">"END OF LINE"</text>
</g>
<path d="M1672 612a10 10 0 0 0 10 -10v-552a10 10 0 0 1 10 -10"></path>
<path d="M224 40a10 10 0 0 1 10 10v582a10 10 0 0 0 10 10"></path>
<g>
<path d="M244 642h0"></path>
<path d="M504 642h1168"></path>
<g class="terminal">
<path d="M244 642h0"></path>
<path d="M424 642h0"></path>
<rect x="244" y="631" width="180" height="22" rx="10" ry="10"></rect>
<text x="334" y="646">"INCLUDE PARAMETERS"</text>
</g>
<path d="M424 642h10"></path>
<path d="M434 642h10"></path>
<g class="non-terminal">
<path d="M444 642h0"></path>
<path d="M504 642h0"></path>
<rect x="444" y="631" width="60" height="22"></rect>
<a xlink:href="reuse_field.svg"><text x="474" y="646">Field</text>
</a>
</g>
</g>
<path d="M1672 642a10 10 0 0 0 10 -10v-582a10 10 0 0 1 10 -10"></path>
<path d="M224 40a10 10 0 0 1 10 10v621a10 10 0 0 0 10 10"></path>
<g>
<path d="M244 681h0"></path>
<path d="M844 681h828"></path>
<g class="terminal">
<path d="M244 681h0"></path>
<path d="M400 681h0"></path>
<rect x="244" y="670" width="156" height="22" rx="10" ry="10"></rect>
<text x="322" y="685">"BEGIN OF SCREEN"</text>
</g>
<path d="M400 681h10"></path>
<path d="M410 681h10"></path>
<g class="non-terminal">
<path d="M420 681h0"></path>
<path d="M496 681h0"></path>
<rect x="420" y="670" width="76" height="22"></rect>
<a xlink:href="reuse_integer.svg"><text x="458" y="685">Integer</text>
</a>
</g>
<path d="M496 681h10"></path>
<g>
<path d="M506 681h0"></path>
<path d="M844 681h0"></path>
<path d="M506 681a10 10 0 0 0 10 -10v0a10 10 0 0 1 10 -10"></path>
<g>
<path d="M526 661h298"></path>
</g>
<path d="M824 661a10 10 0 0 1 10 10v0a10 10 0 0 0 10 10"></path>
<path d="M506 681h20"></path>
<g>
<path d="M526 681h0"></path>
<path d="M824 681h0"></path>
<path d="M556 681h10"></path>
<g>
<path d="M566 681h0"></path>
<path d="M776 681h18"></path>
<g class="terminal">
<path d="M566 681h0"></path>
<path d="M618 681h0"></path>
<rect x="566" y="670" width="52" height="22" rx="10" ry="10"></rect>
<text x="592" y="685">"AS"</text>
</g>
<path d="M618 681h10"></path>
<g>
<path d="M628 681h0"></path>
<path d="M776 681h0"></path>
<path d="M628 681h20"></path>
<g class="terminal">
<path d="M648 681h0"></path>
<path d="M732 681h24"></path>
<rect x="648" y="670" width="84" height="22" rx="10" ry="10"></rect>
<text x="690" y="685">"WINDOW"</text>
</g>
<path d="M756 681h20"></path>
<path d="M628 681a10 10 0 0 1 10 10v10a10 10 0 0 0 10 10"></path>
<g class="terminal">
<path d="M648 711h0"></path>
<path d="M756 711h0"></path>
<rect x="648" y="700" width="108" height="22" rx="10" ry="10"></rect>
<text x="702" y="715">"SUBSCREEN"</text>
</g>
<path d="M756 711a10 10 0 0 0 10 -10v-10a10 10 0 0 1 10 -10"></path>
</g>
</g>
<path d="M794 681h10"></path>
<path d="M556 681v50a10 10 0 0 0 10 10"></path>
<g>
<path d="M566 741h0"></path>
<path d="M730 741h64"></path>
<g class="terminal">
<path d="M566 741h0"></path>
<path d="M642 741h0"></path>
<rect x="566" y="730" width="76" height="22" rx="10" ry="10"></rect>
<text x="604" y="745">"TITLE"</text>
</g>
<path d="M642 741h10"></path>
<path d="M652 741h10"></path>
<g class="non-terminal">
<path d="M662 741h0"></path>
<path d="M730 741h0"></path>
<rect x="662" y="730" width="68" height="22"></rect>
<a xlink:href="reuse_source.svg"><text x="696" y="745">Source</text>
</a>
</g>
</g>
<path d="M794 741a10 10 0 0 0 10 -10v-50"></path>
<path d="M556 681v80a10 10 0 0 0 10 10"></path>
<g class="terminal">
<path d="M566 771h0"></path>
<path d="M698 771h96"></path>
<rect x="566" y="760" width="132" height="22" rx="10" ry="10"></rect>
<text x="632" y="775">"NO INTERVALS"</text>
</g>
<path d="M794 771a10 10 0 0 0 10 -10v-80"></path>
<path d="M556 681v110a10 10 0 0 0 10 10"></path>
<g>
<path d="M566 801h0"></path>
<path d="M794 801h0"></path>
<g class="terminal">
<path d="M566 801h0"></path>
<path d="M706 801h0"></path>
<rect x="566" y="790" width="140" height="22" rx="10" ry="10"></rect>
<text x="636" y="805">"NESTING LEVEL"</text>
</g>
<path d="M706 801h10"></path>
<path d="M716 801h10"></path>
<g class="non-terminal">
<path d="M726 801h0"></path>
<path d="M794 801h0"></path>
<rect x="726" y="790" width="68" height="22"></rect>
<a xlink:href="reuse_source.svg"><text x="760" y="805">Source</text>
</a>
</g>
</g>
<path d="M794 801a10 10 0 0 0 10 -10v-110"></path>
<g class="diagram-text">
<title>take one or more branches, once each, in any order</title>
<path d="M 556 671 h -26 a 4 4 0 0 0 -4 4 v 12 a 4 4 0 0 0 4 4 h 26 z" class="diagram-text"></path>
<text x="541" y="685" class="diagram-text">1+</text>
<path d="M 804 671 h 16 a 4 4 0 0 1 4 4 v 12 a 4 4 0 0 1 -4 4 h -16 z" class="diagram-text"></path>
<path d="M 811 679 a 4 4 0 1 0 6 -1 m 2.75 -1 h -4 v 4 m 0 -3 h 2" style="stroke-width: 1.75"></path>
</g>
</g>
<path d="M824 681h20"></path>
</g>
</g>
<path d="M1672 681a10 10 0 0 0 10 -10v-621a10 10 0 0 1 10 -10"></path>
<path d="M224 40a10 10 0 0 1 10 10v771a10 10 0 0 0 10 10"></path>
<g>
<path d="M244 831h0"></path>
<path d="M480 831h1192"></path>
<g class="terminal">
<path d="M244 831h0"></path>
<path d="M384 831h0"></path>
<rect x="244" y="820" width="140" height="22" rx="10" ry="10"></rect>
<text x="314" y="835">"END OF SCREEN"</text>
</g>
<path d="M384 831h10"></path>
<path d="M394 831h10"></path>
<g class="non-terminal">
<path d="M404 831h0"></path>
<path d="M480 831h0"></path>
<rect x="404" y="820" width="76" height="22"></rect>
<a xlink:href="reuse_integer.svg"><text x="442" y="835">Integer</text>
</a>
</g>
</g>
<path d="M1672 831a10 10 0 0 0 10 -10v-771a10 10 0 0 1 10 -10"></path>
</g>
</g>
<path d="M1692 40h10"></path>
<path d="M 1702 40 h 20 m -10 -10 v 20 m 10 -20 v 20"></path>
</g>
</svg>
