<svg xmlns="http://www.w3.org/2000/svg" xmlns:xlink="http://www.w3.org/1999/xlink" class="railroad-diagram" width="922" height="259" viewBox="0 0 922 259">
<defs>
<style type="text/css"><![CDATA[
path {
stroke-width: 3;
stroke: black;
fill: rgba(0,0,0,0);
}
text {
font: bold 14px monospace;
text-anchor: middle;
}
text.diagram-text {
font-size: 12px;
}
a {
fill: blue;
}
text.diagram-arrow {
font-size: 16px;
}
text.label {
text-anchor: start;
}
text.comment {
font: italic 12px monospace;
}
rect {
stroke-width: 3;
stroke: black;
fill: #BCBCBC;
}
path.diagram-text {
stroke-width: 3;
stroke: black;
fill: #BCBCBC;
cursor: help;
}
]]></style>
</defs>
<g transform="translate(.5 .5)">
<path d="M 20 21 v 20 m 10 -20 v 20 m -10 -10 h 20.5"></path>
<path d="M40 31h10"></path>
<g>
<path d="M50 31h0"></path>
<path d="M872 31h0"></path>
<g class="terminal">
<path d="M50 31h0"></path>
<path d="M214 31h0"></path>
<rect x="50" y="20" width="164" height="22" rx="10" ry="10"></rect>
<text x="132" y="35">"SELECTION-SCREEN"</text>
</g>
<path d="M214 31h10"></path>
<g>
<path d="M224 31h0"></path>
<path d="M872 31h0"></path>
<path d="M224 31h20"></path>
<g>
<path d="M244 31h2"></path>
<path d="M850 31h2"></path>
<g class="terminal">
<path d="M246 31h0"></path>
<path d="M338 31h0"></path>
<rect x="246" y="20" width="92" height="22" rx="10" ry="10"></rect>
<text x="292" y="35">"COMMENT"</text>
</g>
<path d="M338 31h10"></path>
<path d="M348 31h10"></path>
<g class="terminal">
<path d="M358 31h0"></path>
<path d="M402 31h0"></path>
<rect x="358" y="20" width="44" height="22" rx="10" ry="10"></rect>
<text x="380" y="35">"("</text>
</g>
<path d="M402 31h10"></path>
<path d="M412 31h10"></path>
<g class="non-terminal">
<path d="M422 31h0"></path>
<path d="M498 31h0"></path>
<rect x="422" y="20" width="76" height="22"></rect>
<a xlink:href="reuse_integer.svg"><text x="460" y="35">integer</text>
</a>
</g>
<path d="M498 31h10"></path>
<path d="M508 31h10"></path>
<g class="terminal">
<path d="M518 31h0"></path>
<path d="M562 31h0"></path>
<rect x="518" y="20" width="44" height="22" rx="10" ry="10"></rect>
<text x="540" y="35">")"</text>
</g>
<path d="M562 31h10"></path>
<path d="M572 31h10"></path>
<g class="non-terminal">
<path d="M582 31h0"></path>
<path d="M642 31h0"></path>
<rect x="582" y="20" width="60" height="22"></rect>
<a xlink:href="reuse_field.svg"><text x="612" y="35">field</text>
</a>
</g>
<path d="M642 31h10"></path>
<path d="M652 31h10"></path>
<g class="terminal">
<path d="M662 31h0"></path>
<path d="M770 31h0"></path>
<rect x="662" y="20" width="108" height="22" rx="10" ry="10"></rect>
<text x="716" y="35">"FOR FIELD"</text>
</g>
<path d="M770 31h10"></path>
<path d="M780 31h10"></path>
<g class="non-terminal">
<path d="M790 31h0"></path>
<path d="M850 31h0"></path>
<rect x="790" y="20" width="60" height="22"></rect>
<a xlink:href="reuse_field.svg"><text x="820" y="35">field</text>
</a>
</g>
</g>
<path d="M852 31h20"></path>
<path d="M224 31a10 10 0 0 1 10 10v27a10 10 0 0 0 10 10"></path>
<g>
<path d="M244 78h0"></path>
<path d="M852 78h0"></path>
<g class="terminal">
<path d="M244 78h0"></path>
<path d="M392 78h0"></path>
<rect x="244" y="67" width="148" height="22" rx="10" ry="10"></rect>
<text x="318" y="82">"BEGIN OF BLOCK"</text>
</g>
<path d="M392 78h10"></path>
<path d="M402 78h10"></path>
<g class="terminal">
<path d="M412 78h0"></path>
<path d="M472 78h0"></path>
<rect x="412" y="67" width="60" height="22" rx="10" ry="10"></rect>
<text x="442" y="82">^\w+$</text>
</g>
<path d="M472 78h10"></path>
<g>
<path d="M482 78h0"></path>
<path d="M852 78h0"></path>
<path d="M482 78a10 10 0 0 0 10 -10v-8a10 10 0 0 1 10 -10"></path>
<g>
<path d="M502 50h330"></path>
</g>
<path d="M832 50a10 10 0 0 1 10 10v8a10 10 0 0 0 10 10"></path>
<path d="M482 78h20"></path>
<g>
<path d="M502 78h0"></path>
<path d="M832 78h0"></path>
<g class="terminal">
<path d="M502 78h0"></path>
<path d="M618 78h0"></path>
<rect x="502" y="67" width="116" height="22" rx="10" ry="10"></rect>
<text x="560" y="82">"WITH FRAME"</text>
</g>
<path d="M618 78h10"></path>
<g>
<path d="M628 78h0"></path>
<path d="M832 78h0"></path>
<path d="M628 78a10 10 0 0 0 10 -10v0a10 10 0 0 1 10 -10"></path>
<g>
<path d="M648 58h164"></path>
</g>
<path d="M812 58a10 10 0 0 1 10 10v0a10 10 0 0 0 10 10"></path>
<path d="M628 78h20"></path>
<g>
<path d="M648 78h0"></path>
<path d="M812 78h0"></path>
<g class="terminal">
<path d="M648 78h0"></path>
<path d="M724 78h0"></path>
<rect x="648" y="67" width="76" height="22" rx="10" ry="10"></rect>
<text x="686" y="82">"TITLE"</text>
</g>
<path d="M724 78h10"></path>
<path d="M734 78h10"></path>
<g class="non-terminal">
<path d="M744 78h0"></path>
<path d="M812 78h0"></path>
<rect x="744" y="67" width="68" height="22"></rect>
<a xlink:href="reuse_source.svg"><text x="778" y="82">source</text>
</a>
</g>
</g>
<path d="M812 78h20"></path>
</g>
</g>
<path d="M832 78h20"></path>
</g>
</g>
<path d="M852 78a10 10 0 0 0 10 -10v-27a10 10 0 0 1 10 -10"></path>
<path d="M224 31a10 10 0 0 1 10 10v57a10 10 0 0 0 10 10"></path>
<g>
<path d="M244 108h198"></path>
<path d="M654 108h198"></path>
<g class="terminal">
<path d="M442 108h0"></path>
<path d="M574 108h0"></path>
<rect x="442" y="97" width="132" height="22" rx="10" ry="10"></rect>
<text x="508" y="112">"END OF BLOCK"</text>
</g>
<path d="M574 108h10"></path>
<path d="M584 108h10"></path>
<g class="terminal">
<path d="M594 108h0"></path>
<path d="M654 108h0"></path>
<rect x="594" y="97" width="60" height="22" rx="10" ry="10"></rect>
<text x="624" y="112">^\w+$</text>
</g>
</g>
<path d="M852 108a10 10 0 0 0 10 -10v-57a10 10 0 0 1 10 -10"></path>
<path d="M224 31a10 10 0 0 1 10 10v87a10 10 0 0 0 10 10"></path>
<g class="terminal">
<path d="M244 138h234"></path>
<path d="M618 138h234"></path>
<rect x="478" y="127" width="140" height="22" rx="10" ry="10"></rect>
<text x="548" y="142">"BEGIN OF LINE"</text>
</g>
<path d="M852 138a10 10 0 0 0 10 -10v-87a10 10 0 0 1 10 -10"></path>
<path d="M224 31a10 10 0 0 1 10 10v117a10 10 0 0 0 10 10"></path>
<g class="terminal">
<path d="M244 168h242"></path>
<path d="M610 168h242"></path>
<rect x="486" y="157" width="124" height="22" rx="10" ry="10"></rect>
<text x="548" y="172">"END OF LINE"</text>
</g>
<path d="M852 168a10 10 0 0 0 10 -10v-117a10 10 0 0 1 10 -10"></path>
<path d="M224 31a10 10 0 0 1 10 10v147a10 10 0 0 0 10 10"></path>
<g>
<path d="M244 198h178"></path>
<path d="M674 198h178"></path>
<g class="terminal">
<path d="M422 198h0"></path>
<path d="M578 198h0"></path>
<rect x="422" y="187" width="156" height="22" rx="10" ry="10"></rect>
<text x="500" y="202">"BEGIN OF SCREEN"</text>
</g>
<path d="M578 198h10"></path>
<path d="M588 198h10"></path>
<g class="non-terminal">
<path d="M598 198h0"></path>
<path d="M674 198h0"></path>
<rect x="598" y="187" width="76" height="22"></rect>
<a xlink:href="reuse_integer.svg"><text x="636" y="202">integer</text>
</a>
</g>
</g>
<path d="M852 198a10 10 0 0 0 10 -10v-147a10 10 0 0 1 10 -10"></path>
<path d="M224 31a10 10 0 0 1 10 10v177a10 10 0 0 0 10 10"></path>
<g>
<path d="M244 228h186"></path>
<path d="M666 228h186"></path>
<g class="terminal">
<path d="M430 228h0"></path>
<path d="M570 228h0"></path>
<rect x="430" y="217" width="140" height="22" rx="10" ry="10"></rect>
<text x="500" y="232">"END OF SCREEN"</text>
</g>
<path d="M570 228h10"></path>
<path d="M580 228h10"></path>
<g class="non-terminal">
<path d="M590 228h0"></path>
<path d="M666 228h0"></path>
<rect x="590" y="217" width="76" height="22"></rect>
<a xlink:href="reuse_integer.svg"><text x="628" y="232">integer</text>
</a>
</g>
</g>
<path d="M852 228a10 10 0 0 0 10 -10v-177a10 10 0 0 1 10 -10"></path>
</g>
</g>
<path d="M872 31h10"></path>
<path d="M 882 31 h 20 m -10 -10 v 20 m 10 -20 v 20"></path>
</g>
</svg>
