<svg xmlns="http://www.w3.org/2000/svg" xmlns:xlink="http://www.w3.org/1999/xlink" class="railroad-diagram" width="1522" height="832" viewBox="0 0 1522 832">
<defs>
<style type="text/css"><![CDATA[
path {
stroke-width: 3;
stroke: black;
fill: rgba(0,0,0,0);
}
text {
font: bold 14px monospace;
text-anchor: middle;
}
text.diagram-text {
font-size: 12px;
}
a {
fill: blue;
}
text.diagram-arrow {
font-size: 16px;
}
text.label {
text-anchor: start;
}
text.comment {
font: italic 12px monospace;
}
rect {
stroke-width: 3;
stroke: black;
fill: #BCBCBC;
}
path.diagram-text {
stroke-width: 3;
stroke: black;
fill: #BCBCBC;
cursor: help;
}
]]></style>
</defs>
<g transform="translate(.5 .5)">
<path d="M 20 30 v 20 m 10 -20 v 20 m -10 -10 h 20.5"></path>
<path d="M40 40h10"></path>
<g>
<path d="M50 40h0"></path>
<path d="M1472 40h0"></path>
<g class="terminal">
<path d="M50 40h0"></path>
<path d="M214 40h0"></path>
<rect x="50" y="29" width="164" height="22" rx="10" ry="10"></rect>
<text x="132" y="44">"SELECTION-SCREEN"</text>
</g>
<path d="M214 40h10"></path>
<g>
<path d="M224 40h0"></path>
<path d="M1472 40h0"></path>
<path d="M224 40h20"></path>
<g>
<path d="M244 40h0"></path>
<path d="M1192 40h260"></path>
<g class="terminal">
<path d="M244 40h0"></path>
<path d="M336 40h0"></path>
<rect x="244" y="29" width="92" height="22" rx="10" ry="10"></rect>
<text x="290" y="44">"COMMENT"</text>
</g>
<path d="M336 40h10"></path>
<path d="M346 40h10"></path>
<g>
<path d="M356 40h0"></path>
<path d="M776 40h0"></path>
<g>
<path d="M356 40h0"></path>
<path d="M480 40h0"></path>
<path d="M356 40a10 10 0 0 0 10 -10v0a10 10 0 0 1 10 -10"></path>
<g>
<path d="M376 20h84"></path>
</g>
<path d="M460 20a10 10 0 0 1 10 10v0a10 10 0 0 0 10 10"></path>
<path d="M356 40h20"></path>
<g class="terminal">
<path d="M376 40h0"></path>
<path d="M460 40h0"></path>
<rect x="376" y="29" width="84" height="22" rx="10" ry="10"></rect>
<text x="418" y="44">^\/?\d+$</text>
</g>
<path d="M460 40h20"></path>
</g>
<g>
<path d="M480 40h0"></path>
<path d="M580 40h0"></path>
<path d="M480 40h20"></path>
<g class="terminal">
<path d="M500 40h0"></path>
<path d="M552 40h8"></path>
<rect x="500" y="29" width="52" height="22" rx="10" ry="10"></rect>
<text x="526" y="44">!"("</text>
</g>
<path d="M560 40h20"></path>
<path d="M480 40a10 10 0 0 1 10 10v10a10 10 0 0 0 10 10"></path>
<g class="terminal">
<path d="M500 70h0"></path>
<path d="M560 70h0"></path>
<rect x="500" y="59" width="60" height="22" rx="10" ry="10"></rect>
<text x="530" y="74">!" ("</text>
</g>
<path d="M560 70a10 10 0 0 0 10 -10v-10a10 10 0 0 1 10 -10"></path>
</g>
<path d="M580 40h10"></path>
<g class="non-terminal">
<path d="M590 40h0"></path>
<path d="M666 40h0"></path>
<rect x="590" y="29" width="76" height="22"></rect>
<a xlink:href="reuse_integer.svg"><text x="628" y="44">Integer</text>
</a>
</g>
<path d="M666 40h10"></path>
<g>
<path d="M676 40h0"></path>
<path d="M776 40h0"></path>
<path d="M676 40h20"></path>
<g class="terminal">
<path d="M696 40h0"></path>
<path d="M756 40h0"></path>
<rect x="696" y="29" width="60" height="22" rx="10" ry="10"></rect>
<text x="726" y="44">!") "</text>
</g>
<path d="M756 40h20"></path>
<path d="M676 40a10 10 0 0 1 10 10v10a10 10 0 0 0 10 10"></path>
<g class="terminal">
<path d="M696 70h0"></path>
<path d="M748 70h8"></path>
<rect x="696" y="59" width="52" height="22" rx="10" ry="10"></rect>
<text x="722" y="74">!")"</text>
</g>
<path d="M756 70a10 10 0 0 0 10 -10v-10a10 10 0 0 1 10 -10"></path>
</g>
</g>
<path d="M776 40h10"></path>
<g>
<path d="M786 40h0"></path>
<path d="M894 40h0"></path>
<path d="M786 40a10 10 0 0 0 10 -10v0a10 10 0 0 1 10 -10"></path>
<g>
<path d="M806 20h68"></path>
</g>
<path d="M874 20a10 10 0 0 1 10 10v0a10 10 0 0 0 10 10"></path>
<path d="M786 40h20"></path>
<g class="non-terminal">
<path d="M806 40h0"></path>
<path d="M874 40h0"></path>
<rect x="806" y="29" width="68" height="22"></rect>
<a xlink:href="reuse_source.svg"><text x="840" y="44">Source</text>
</a>
</g>
<path d="M874 40h20"></path>
</g>
<g>
<path d="M894 40h0"></path>
<path d="M1192 40h0"></path>
<path d="M894 40a10 10 0 0 0 10 -10v0a10 10 0 0 1 10 -10"></path>
<g>
<path d="M914 20h258"></path>
</g>
<path d="M1172 20a10 10 0 0 1 10 10v0a10 10 0 0 0 10 10"></path>
<path d="M894 40h20"></path>
<g>
<path d="M914 40h0"></path>
<path d="M1172 40h0"></path>
<path d="M944 40h10"></path>
<g>
<path d="M954 40h0"></path>
<path d="M1142 40h0"></path>
<g class="terminal">
<path d="M954 40h0"></path>
<path d="M1062 40h0"></path>
<rect x="954" y="29" width="108" height="22" rx="10" ry="10"></rect>
<text x="1008" y="44">"FOR FIELD"</text>
</g>
<path d="M1062 40h10"></path>
<path d="M1072 40h10"></path>
<g class="non-terminal">
<path d="M1082 40h0"></path>
<path d="M1142 40h0"></path>
<rect x="1082" y="29" width="60" height="22"></rect>
<a xlink:href="reuse_field.svg"><text x="1112" y="44">Field</text>
</a>
</g>
</g>
<path d="M1142 40h10"></path>
<path d="M944 40v20a10 10 0 0 0 10 10"></path>
<g>
<path d="M954 70h0"></path>
<path d="M1134 70h8"></path>
<g class="terminal">
<path d="M954 70h0"></path>
<path d="M1054 70h0"></path>
<rect x="954" y="59" width="100" height="22" rx="10" ry="10"></rect>
<text x="1004" y="74">"MODIF ID"</text>
</g>
<path d="M1054 70h10"></path>
<path d="M1064 70h10"></path>
<g class="non-terminal">
<path d="M1074 70h0"></path>
<path d="M1134 70h0"></path>
<rect x="1074" y="59" width="60" height="22"></rect>
<a xlink:href="reuse_modif.svg"><text x="1104" y="74">Modif</text>
</a>
</g>
</g>
<path d="M1142 70a10 10 0 0 0 10 -10v-20"></path>
<g class="diagram-text">
<title>take one or more branches, once each, in any order</title>
<path d="M 944 30 h -26 a 4 4 0 0 0 -4 4 v 12 a 4 4 0 0 0 4 4 h 26 z" class="diagram-text"></path>
<text x="929" y="44" class="diagram-text">1+</text>
<path d="M 1152 30 h 16 a 4 4 0 0 1 4 4 v 12 a 4 4 0 0 1 -4 4 h -16 z" class="diagram-text"></path>
<path d="M 1159 38 a 4 4 0 1 0 6 -1 m 2.75 -1 h -4 v 4 m 0 -3 h 2" style="stroke-width: 1.75"></path>
</g>
</g>
<path d="M1172 40h20"></path>
</g>
</g>
<path d="M1452 40h20"></path>
<path d="M224 40a10 10 0 0 1 10 10v40a10 10 0 0 0 10 10"></path>
<g>
<path d="M244 100h0"></path>
<path d="M472 100h980"></path>
<g class="terminal">
<path d="M244 100h0"></path>
<path d="M376 100h0"></path>
<rect x="244" y="89" width="132" height="22" rx="10" ry="10"></rect>
<text x="310" y="104">"FUNCTION KEY"</text>
</g>
<path d="M376 100h10"></path>
<path d="M386 100h10"></path>
<g class="non-terminal">
<path d="M396 100h0"></path>
<path d="M472 100h0"></path>
<rect x="396" y="89" width="76" height="22"></rect>
<a xlink:href="reuse_integer.svg"><text x="434" y="104">Integer</text>
</a>
</g>
</g>
<path d="M1452 100a10 10 0 0 0 10 -10v-40a10 10 0 0 1 10 -10"></path>
<path d="M224 40a10 10 0 0 1 10 10v79a10 10 0 0 0 10 10"></path>
<g>
<path d="M244 139h0"></path>
<path d="M438 139h1014"></path>
<g class="terminal">
<path d="M244 139h0"></path>
<path d="M312 139h0"></path>
<rect x="244" y="128" width="68" height="22" rx="10" ry="10"></rect>
<text x="278" y="143">"SKIP"</text>
</g>
<path d="M312 139h10"></path>
<g>
<path d="M322 139h0"></path>
<path d="M438 139h0"></path>
<path d="M322 139a10 10 0 0 0 10 -10v0a10 10 0 0 1 10 -10"></path>
<g>
<path d="M342 119h76"></path>
</g>
<path d="M418 119a10 10 0 0 1 10 10v0a10 10 0 0 0 10 10"></path>
<path d="M322 139h20"></path>
<g class="non-terminal">
<path d="M342 139h0"></path>
<path d="M418 139h0"></path>
<rect x="342" y="128" width="76" height="22"></rect>
<a xlink:href="reuse_integer.svg"><text x="380" y="143">Integer</text>
</a>
</g>
<path d="M418 139h20"></path>
</g>
</g>
<path d="M1452 139a10 10 0 0 0 10 -10v-79a10 10 0 0 1 10 -10"></path>
<path d="M224 40a10 10 0 0 1 10 10v109a10 10 0 0 0 10 10"></path>
<g>
<path d="M244 169h0"></path>
<path d="M432 169h1020"></path>
<g class="terminal">
<path d="M244 169h0"></path>
<path d="M344 169h0"></path>
<rect x="244" y="158" width="100" height="22" rx="10" ry="10"></rect>
<text x="294" y="173">"POSITION"</text>
</g>
<path d="M344 169h10"></path>
<path d="M354 169h10"></path>
<g class="non-terminal">
<path d="M364 169h0"></path>
<path d="M432 169h0"></path>
<rect x="364" y="158" width="68" height="22"></rect>
<a xlink:href="reuse_source.svg"><text x="398" y="173">Source</text>
</a>
</g>
</g>
<path d="M1452 169a10 10 0 0 0 10 -10v-109a10 10 0 0 1 10 -10"></path>
<path d="M224 40a10 10 0 0 1 10 10v139a10 10 0 0 0 10 10"></path>
<g>
<path d="M244 199h0"></path>
<path d="M496 199h956"></path>
<g class="terminal">
<path d="M244 199h0"></path>
<path d="M392 199h0"></path>
<rect x="244" y="188" width="148" height="22" rx="10" ry="10"></rect>
<text x="318" y="203">"INCLUDE BLOCKS"</text>
</g>
<path d="M392 199h10"></path>
<path d="M402 199h10"></path>
<g class="non-terminal">
<path d="M412 199h0"></path>
<path d="M496 199h0"></path>
<rect x="412" y="188" width="84" height="22"></rect>
<a xlink:href="reuse_fieldsub.svg"><text x="454" y="203">FieldSub</text>
</a>
</g>
</g>
<path d="M1452 199a10 10 0 0 0 10 -10v-139a10 10 0 0 1 10 -10"></path>
<path d="M224 40a10 10 0 0 1 10 10v178a10 10 0 0 0 10 10"></path>
<g>
<path d="M244 238h0"></path>
<path d="M1452 238h0"></path>
<g class="terminal">
<path d="M244 238h0"></path>
<path d="M360 238h0"></path>
<rect x="244" y="227" width="116" height="22" rx="10" ry="10"></rect>
<text x="302" y="242">"PUSHBUTTON"</text>
</g>
<path d="M360 238h10"></path>
<path d="M370 238h10"></path>
<g>
<path d="M380 238h0"></path>
<path d="M800 238h0"></path>
<g>
<path d="M380 238h0"></path>
<path d="M504 238h0"></path>
<path d="M380 238a10 10 0 0 0 10 -10v0a10 10 0 0 1 10 -10"></path>
<g>
<path d="M400 218h84"></path>
</g>
<path d="M484 218a10 10 0 0 1 10 10v0a10 10 0 0 0 10 10"></path>
<path d="M380 238h20"></path>
<g class="terminal">
<path d="M400 238h0"></path>
<path d="M484 238h0"></path>
<rect x="400" y="227" width="84" height="22" rx="10" ry="10"></rect>
<text x="442" y="242">^\/?\d+$</text>
</g>
<path d="M484 238h20"></path>
</g>
<g>
<path d="M504 238h0"></path>
<path d="M604 238h0"></path>
<path d="M504 238h20"></path>
<g class="terminal">
<path d="M524 238h0"></path>
<path d="M576 238h8"></path>
<rect x="524" y="227" width="52" height="22" rx="10" ry="10"></rect>
<text x="550" y="242">!"("</text>
</g>
<path d="M584 238h20"></path>
<path d="M504 238a10 10 0 0 1 10 10v10a10 10 0 0 0 10 10"></path>
<g class="terminal">
<path d="M524 268h0"></path>
<path d="M584 268h0"></path>
<rect x="524" y="257" width="60" height="22" rx="10" ry="10"></rect>
<text x="554" y="272">!" ("</text>
</g>
<path d="M584 268a10 10 0 0 0 10 -10v-10a10 10 0 0 1 10 -10"></path>
</g>
<path d="M604 238h10"></path>
<g class="non-terminal">
<path d="M614 238h0"></path>
<path d="M690 238h0"></path>
<rect x="614" y="227" width="76" height="22"></rect>
<a xlink:href="reuse_integer.svg"><text x="652" y="242">Integer</text>
</a>
</g>
<path d="M690 238h10"></path>
<g>
<path d="M700 238h0"></path>
<path d="M800 238h0"></path>
<path d="M700 238h20"></path>
<g class="terminal">
<path d="M720 238h0"></path>
<path d="M780 238h0"></path>
<rect x="720" y="227" width="60" height="22" rx="10" ry="10"></rect>
<text x="750" y="242">!") "</text>
</g>
<path d="M780 238h20"></path>
<path d="M700 238a10 10 0 0 1 10 10v10a10 10 0 0 0 10 10"></path>
<g class="terminal">
<path d="M720 268h0"></path>
<path d="M772 268h8"></path>
<rect x="720" y="257" width="52" height="22" rx="10" ry="10"></rect>
<text x="746" y="272">!")"</text>
</g>
<path d="M780 268a10 10 0 0 0 10 -10v-10a10 10 0 0 1 10 -10"></path>
</g>
</g>
<path d="M800 238h10"></path>
<path d="M810 238h10"></path>
<g class="non-terminal">
<path d="M820 238h0"></path>
<path d="M888 238h0"></path>
<rect x="820" y="227" width="68" height="22"></rect>
<a xlink:href="reuse_source.svg"><text x="854" y="242">Source</text>
</a>
</g>
<path d="M888 238h10"></path>
<path d="M898 238h10"></path>
<g>
<path d="M908 238h0"></path>
<path d="M1174 238h0"></path>
<g class="terminal">
<path d="M908 238h0"></path>
<path d="M1040 238h0"></path>
<rect x="908" y="227" width="132" height="22" rx="10" ry="10"></rect>
<text x="974" y="242">"USER-COMMAND"</text>
</g>
<path d="M1040 238h10"></path>
<g>
<path d="M1050 238h0"></path>
<path d="M1174 238h0"></path>
<path d="M1050 238h20"></path>
<g class="non-terminal">
<path d="M1070 238h0"></path>
<path d="M1130 238h24"></path>
<rect x="1070" y="227" width="60" height="22"></rect>
<a xlink:href="reuse_field.svg"><text x="1100" y="242">Field</text>
</a>
</g>
<path d="M1154 238h20"></path>
<path d="M1050 238a10 10 0 0 1 10 10v10a10 10 0 0 0 10 10"></path>
<g class="non-terminal">
<path d="M1070 268h0"></path>
<path d="M1154 268h0"></path>
<rect x="1070" y="257" width="84" height="22"></rect>
<a xlink:href="reuse_constant.svg"><text x="1112" y="272">Constant</text>
</a>
</g>
<path d="M1154 268a10 10 0 0 0 10 -10v-10a10 10 0 0 1 10 -10"></path>
</g>
</g>
<path d="M1174 238h10"></path>
<g>
<path d="M1184 238h0"></path>
<path d="M1452 238h0"></path>
<path d="M1184 238a10 10 0 0 0 10 -10v0a10 10 0 0 1 10 -10"></path>
<g>
<path d="M1204 218h228"></path>
</g>
<path d="M1432 218a10 10 0 0 1 10 10v0a10 10 0 0 0 10 10"></path>
<path d="M1184 238h20"></path>
<g>
<path d="M1204 238h0"></path>
<path d="M1432 238h0"></path>
<g class="terminal">
<path d="M1204 238h0"></path>
<path d="M1352 238h0"></path>
<rect x="1204" y="227" width="148" height="22" rx="10" ry="10"></rect>
<text x="1278" y="242">"VISIBLE LENGTH"</text>
</g>
<path d="M1352 238h10"></path>
<path d="M1362 238h10"></path>
<g class="terminal">
<path d="M1372 238h0"></path>
<path d="M1432 238h0"></path>
<rect x="1372" y="227" width="60" height="22" rx="10" ry="10"></rect>
<text x="1402" y="242">^\d+$</text>
</g>
</g>
<path d="M1432 238h20"></path>
</g>
</g>
<path d="M1452 238a10 10 0 0 0 10 -10v-178a10 10 0 0 1 10 -10"></path>
<path d="M224 40a10 10 0 0 1 10 10v247a10 10 0 0 0 10 10"></path>
<g>
<path d="M244 307h0"></path>
<path d="M1220 307h232"></path>
<g class="terminal">
<path d="M244 307h0"></path>
<path d="M304 307h0"></path>
<rect x="244" y="296" width="60" height="22" rx="10" ry="10"></rect>
<text x="274" y="311">"TAB"</text>
</g>
<path d="M304 307h10"></path>
<path d="M314 307h10"></path>
<g class="terminal">
<path d="M324 307h0"></path>
<path d="M384 307h0"></path>
<rect x="324" y="296" width="60" height="22" rx="10" ry="10"></rect>
<text x="354" y="311">!" ("</text>
</g>
<path d="M384 307h10"></path>
<path d="M394 307h10"></path>
<g class="non-terminal">
<path d="M404 307h0"></path>
<path d="M480 307h0"></path>
<rect x="404" y="296" width="76" height="22"></rect>
<a xlink:href="reuse_integer.svg"><text x="442" y="311">Integer</text>
</a>
</g>
<path d="M480 307h10"></path>
<path d="M490 307h10"></path>
<g class="terminal">
<path d="M500 307h0"></path>
<path d="M560 307h0"></path>
<rect x="500" y="296" width="60" height="22" rx="10" ry="10"></rect>
<text x="530" y="311">!") "</text>
</g>
<path d="M560 307h10"></path>
<path d="M570 307h10"></path>
<g class="non-terminal">
<path d="M580 307h0"></path>
<path d="M640 307h0"></path>
<rect x="580" y="296" width="60" height="22"></rect>
<a xlink:href="reuse_field.svg"><text x="610" y="311">Field</text>
</a>
</g>
<path d="M640 307h10"></path>
<path d="M650 307h10"></path>
<g>
<path d="M660 307h0"></path>
<path d="M926 307h0"></path>
<g class="terminal">
<path d="M660 307h0"></path>
<path d="M792 307h0"></path>
<rect x="660" y="296" width="132" height="22" rx="10" ry="10"></rect>
<text x="726" y="311">"USER-COMMAND"</text>
</g>
<path d="M792 307h10"></path>
<g>
<path d="M802 307h0"></path>
<path d="M926 307h0"></path>
<path d="M802 307h20"></path>
<g class="non-terminal">
<path d="M822 307h0"></path>
<path d="M882 307h24"></path>
<rect x="822" y="296" width="60" height="22"></rect>
<a xlink:href="reuse_field.svg"><text x="852" y="311">Field</text>
</a>
</g>
<path d="M906 307h20"></path>
<path d="M802 307a10 10 0 0 1 10 10v10a10 10 0 0 0 10 10"></path>
<g class="non-terminal">
<path d="M822 337h0"></path>
<path d="M906 337h0"></path>
<rect x="822" y="326" width="84" height="22"></rect>
<a xlink:href="reuse_constant.svg"><text x="864" y="341">Constant</text>
</a>
</g>
<path d="M906 337a10 10 0 0 0 10 -10v-10a10 10 0 0 1 10 -10"></path>
</g>
</g>
<path d="M926 307h10"></path>
<g>
<path d="M936 307h0"></path>
<path d="M1220 307h0"></path>
<path d="M936 307a10 10 0 0 0 10 -10v0a10 10 0 0 1 10 -10"></path>
<g>
<path d="M956 287h244"></path>
</g>
<path d="M1200 287a10 10 0 0 1 10 10v0a10 10 0 0 0 10 10"></path>
<path d="M936 307h20"></path>
<g>
<path d="M956 307h0"></path>
<path d="M1200 307h0"></path>
<g class="terminal">
<path d="M956 307h0"></path>
<path d="M1104 307h0"></path>
<rect x="956" y="296" width="148" height="22" rx="10" ry="10"></rect>
<text x="1030" y="311">"DEFAULT SCREEN"</text>
</g>
<path d="M1104 307h10"></path>
<path d="M1114 307h10"></path>
<g class="non-terminal">
<path d="M1124 307h0"></path>
<path d="M1200 307h0"></path>
<rect x="1124" y="296" width="76" height="22"></rect>
<a xlink:href="reuse_integer.svg"><text x="1162" y="311">Integer</text>
</a>
</g>
</g>
<path d="M1200 307h20"></path>
</g>
</g>
<path d="M1452 307a10 10 0 0 0 10 -10v-247a10 10 0 0 1 10 -10"></path>
<path d="M224 40a10 10 0 0 1 10 10v324a10 10 0 0 0 10 10"></path>
<g>
<path d="M244 384h0"></path>
<path d="M790 384h662"></path>
<g class="terminal">
<path d="M244 384h0"></path>
<path d="M320 384h0"></path>
<rect x="244" y="373" width="76" height="22" rx="10" ry="10"></rect>
<text x="282" y="388">"ULINE"</text>
</g>
<path d="M320 384h10"></path>
<g>
<path d="M330 384h0"></path>
<path d="M790 384h0"></path>
<path d="M330 384a10 10 0 0 0 10 -10v-8a10 10 0 0 1 10 -10"></path>
<g>
<path d="M350 356h420"></path>
</g>
<path d="M770 356a10 10 0 0 1 10 10v8a10 10 0 0 0 10 10"></path>
<path d="M330 384h20"></path>
<g>
<path d="M350 384h0"></path>
<path d="M770 384h0"></path>
<g>
<path d="M350 384h0"></path>
<path d="M474 384h0"></path>
<path d="M350 384a10 10 0 0 0 10 -10v0a10 10 0 0 1 10 -10"></path>
<g>
<path d="M370 364h84"></path>
</g>
<path d="M454 364a10 10 0 0 1 10 10v0a10 10 0 0 0 10 10"></path>
<path d="M350 384h20"></path>
<g class="terminal">
<path d="M370 384h0"></path>
<path d="M454 384h0"></path>
<rect x="370" y="373" width="84" height="22" rx="10" ry="10"></rect>
<text x="412" y="388">^\/?\d+$</text>
</g>
<path d="M454 384h20"></path>
</g>
<g>
<path d="M474 384h0"></path>
<path d="M574 384h0"></path>
<path d="M474 384h20"></path>
<g class="terminal">
<path d="M494 384h0"></path>
<path d="M546 384h8"></path>
<rect x="494" y="373" width="52" height="22" rx="10" ry="10"></rect>
<text x="520" y="388">!"("</text>
</g>
<path d="M554 384h20"></path>
<path d="M474 384a10 10 0 0 1 10 10v10a10 10 0 0 0 10 10"></path>
<g class="terminal">
<path d="M494 414h0"></path>
<path d="M554 414h0"></path>
<rect x="494" y="403" width="60" height="22" rx="10" ry="10"></rect>
<text x="524" y="418">!" ("</text>
</g>
<path d="M554 414a10 10 0 0 0 10 -10v-10a10 10 0 0 1 10 -10"></path>
</g>
<path d="M574 384h10"></path>
<g class="non-terminal">
<path d="M584 384h0"></path>
<path d="M660 384h0"></path>
<rect x="584" y="373" width="76" height="22"></rect>
<a xlink:href="reuse_integer.svg"><text x="622" y="388">Integer</text>
</a>
</g>
<path d="M660 384h10"></path>
<g>
<path d="M670 384h0"></path>
<path d="M770 384h0"></path>
<path d="M670 384h20"></path>
<g class="terminal">
<path d="M690 384h0"></path>
<path d="M750 384h0"></path>
<rect x="690" y="373" width="60" height="22" rx="10" ry="10"></rect>
<text x="720" y="388">!") "</text>
</g>
<path d="M750 384h20"></path>
<path d="M670 384a10 10 0 0 1 10 10v10a10 10 0 0 0 10 10"></path>
<g class="terminal">
<path d="M690 414h0"></path>
<path d="M742 414h8"></path>
<rect x="690" y="403" width="52" height="22" rx="10" ry="10"></rect>
<text x="716" y="418">!")"</text>
</g>
<path d="M750 414a10 10 0 0 0 10 -10v-10a10 10 0 0 1 10 -10"></path>
</g>
</g>
<path d="M770 384h20"></path>
</g>
</g>
<path d="M1452 384a10 10 0 0 0 10 -10v-324a10 10 0 0 1 10 -10"></path>
<path d="M224 40a10 10 0 0 1 10 10v393a10 10 0 0 0 10 10"></path>
<g>
<path d="M244 453h0"></path>
<path d="M1038 453h414"></path>
<g class="terminal">
<path d="M244 453h0"></path>
<path d="M392 453h0"></path>
<rect x="244" y="442" width="148" height="22" rx="10" ry="10"></rect>
<text x="318" y="457">"BEGIN OF BLOCK"</text>
</g>
<path d="M392 453h10"></path>
<path d="M402 453h10"></path>
<g class="non-terminal">
<path d="M412 453h0"></path>
<path d="M496 453h0"></path>
<rect x="412" y="442" width="84" height="22"></rect>
<a xlink:href="reuse_fieldsub.svg"><text x="454" y="457">FieldSub</text>
</a>
</g>
<path d="M496 453h10"></path>
<g>
<path d="M506 453h0"></path>
<path d="M662 453h0"></path>
<path d="M506 453a10 10 0 0 0 10 -10v0a10 10 0 0 1 10 -10"></path>
<g>
<path d="M526 433h116"></path>
</g>
<path d="M642 433a10 10 0 0 1 10 10v0a10 10 0 0 0 10 10"></path>
<path d="M506 453h20"></path>
<g class="terminal">
<path d="M526 453h0"></path>
<path d="M642 453h0"></path>
<rect x="526" y="442" width="116" height="22" rx="10" ry="10"></rect>
<text x="584" y="457">"WITH FRAME"</text>
</g>
<path d="M642 453h20"></path>
</g>
<g>
<path d="M662 453h0"></path>
<path d="M866 453h0"></path>
<path d="M662 453a10 10 0 0 0 10 -10v0a10 10 0 0 1 10 -10"></path>
<g>
<path d="M682 433h164"></path>
</g>
<path d="M846 433a10 10 0 0 1 10 10v0a10 10 0 0 0 10 10"></path>
<path d="M662 453h20"></path>
<g>
<path d="M682 453h0"></path>
<path d="M846 453h0"></path>
<g class="terminal">
<path d="M682 453h0"></path>
<path d="M758 453h0"></path>
<rect x="682" y="442" width="76" height="22" rx="10" ry="10"></rect>
<text x="720" y="457">"TITLE"</text>
</g>
<path d="M758 453h10"></path>
<path d="M768 453h10"></path>
<g class="non-terminal">
<path d="M778 453h0"></path>
<path d="M846 453h0"></path>
<rect x="778" y="442" width="68" height="22"></rect>
<a xlink:href="reuse_source.svg"><text x="812" y="457">Source</text>
</a>
</g>
</g>
<path d="M846 453h20"></path>
</g>
<g>
<path d="M866 453h0"></path>
<path d="M1038 453h0"></path>
<path d="M866 453a10 10 0 0 0 10 -10v0a10 10 0 0 1 10 -10"></path>
<g>
<path d="M886 433h132"></path>
</g>
<path d="M1018 433a10 10 0 0 1 10 10v0a10 10 0 0 0 10 10"></path>
<path d="M866 453h20"></path>
<g class="terminal">
<path d="M886 453h0"></path>
<path d="M1018 453h0"></path>
<rect x="886" y="442" width="132" height="22" rx="10" ry="10"></rect>
<text x="952" y="457">"NO INTERVALS"</text>
</g>
<path d="M1018 453h20"></path>
</g>
</g>
<path d="M1452 453a10 10 0 0 0 10 -10v-393a10 10 0 0 1 10 -10"></path>
<path d="M224 40a10 10 0 0 1 10 10v432a10 10 0 0 0 10 10"></path>
<g>
<path d="M244 492h0"></path>
<path d="M982 492h470"></path>
<g class="terminal">
<path d="M244 492h0"></path>
<path d="M448 492h0"></path>
<rect x="244" y="481" width="204" height="22" rx="10" ry="10"></rect>
<text x="346" y="496">"BEGIN OF TABBED BLOCK"</text>
</g>
<path d="M448 492h10"></path>
<path d="M458 492h10"></path>
<g class="non-terminal">
<path d="M468 492h0"></path>
<path d="M528 492h0"></path>
<rect x="468" y="481" width="60" height="22"></rect>
<a xlink:href="reuse_field.svg"><text x="498" y="496">Field</text>
</a>
</g>
<path d="M528 492h10"></path>
<path d="M538 492h10"></path>
<g class="terminal">
<path d="M548 492h0"></path>
<path d="M608 492h0"></path>
<rect x="548" y="481" width="60" height="22" rx="10" ry="10"></rect>
<text x="578" y="496">"FOR"</text>
</g>
<path d="M608 492h10"></path>
<path d="M618 492h10"></path>
<g class="non-terminal">
<path d="M628 492h0"></path>
<path d="M704 492h0"></path>
<rect x="628" y="481" width="76" height="22"></rect>
<a xlink:href="reuse_integer.svg"><text x="666" y="496">Integer</text>
</a>
</g>
<path d="M704 492h10"></path>
<path d="M714 492h10"></path>
<g class="terminal">
<path d="M724 492h0"></path>
<path d="M800 492h0"></path>
<rect x="724" y="481" width="76" height="22" rx="10" ry="10"></rect>
<text x="762" y="496">"LINES"</text>
</g>
<path d="M800 492h10"></path>
<g>
<path d="M810 492h0"></path>
<path d="M982 492h0"></path>
<path d="M810 492a10 10 0 0 0 10 -10v0a10 10 0 0 1 10 -10"></path>
<g>
<path d="M830 472h132"></path>
</g>
<path d="M962 472a10 10 0 0 1 10 10v0a10 10 0 0 0 10 10"></path>
<path d="M810 492h20"></path>
<g class="terminal">
<path d="M830 492h0"></path>
<path d="M962 492h0"></path>
<rect x="830" y="481" width="132" height="22" rx="10" ry="10"></rect>
<text x="896" y="496">"NO INTERVALS"</text>
</g>
<path d="M962 492h20"></path>
</g>
</g>
<path d="M1452 492a10 10 0 0 0 10 -10v-432a10 10 0 0 1 10 -10"></path>
<path d="M224 40a10 10 0 0 1 10 10v462a10 10 0 0 0 10 10"></path>
<g>
<path d="M244 522h0"></path>
<path d="M480 522h972"></path>
<g class="terminal">
<path d="M244 522h0"></path>
<path d="M376 522h0"></path>
<rect x="244" y="511" width="132" height="22" rx="10" ry="10"></rect>
<text x="310" y="526">"END OF BLOCK"</text>
</g>
<path d="M376 522h10"></path>
<path d="M386 522h10"></path>
<g class="non-terminal">
<path d="M396 522h0"></path>
<path d="M480 522h0"></path>
<rect x="396" y="511" width="84" height="22"></rect>
<a xlink:href="reuse_fieldsub.svg"><text x="438" y="526">FieldSub</text>
</a>
</g>
</g>
<path d="M1452 522a10 10 0 0 0 10 -10v-462a10 10 0 0 1 10 -10"></path>
<path d="M224 40a10 10 0 0 1 10 10v492a10 10 0 0 0 10 10"></path>
<g class="terminal">
<path d="M244 552h0"></path>
<path d="M384 552h1068"></path>
<rect x="244" y="541" width="140" height="22" rx="10" ry="10"></rect>
<text x="314" y="556">"BEGIN OF LINE"</text>
</g>
<path d="M1452 552a10 10 0 0 0 10 -10v-492a10 10 0 0 1 10 -10"></path>
<path d="M224 40a10 10 0 0 1 10 10v522a10 10 0 0 0 10 10"></path>
<g class="terminal">
<path d="M244 582h0"></path>
<path d="M368 582h1084"></path>
<rect x="244" y="571" width="124" height="22" rx="10" ry="10"></rect>
<text x="306" y="586">"END OF LINE"</text>
</g>
<path d="M1452 582a10 10 0 0 0 10 -10v-522a10 10 0 0 1 10 -10"></path>
<path d="M224 40a10 10 0 0 1 10 10v552a10 10 0 0 0 10 10"></path>
<g>
<path d="M244 612h0"></path>
<path d="M504 612h948"></path>
<g class="terminal">
<path d="M244 612h0"></path>
<path d="M424 612h0"></path>
<rect x="244" y="601" width="180" height="22" rx="10" ry="10"></rect>
<text x="334" y="616">"INCLUDE PARAMETERS"</text>
</g>
<path d="M424 612h10"></path>
<path d="M434 612h10"></path>
<g class="non-terminal">
<path d="M444 612h0"></path>
<path d="M504 612h0"></path>
<rect x="444" y="601" width="60" height="22"></rect>
<a xlink:href="reuse_field.svg"><text x="474" y="616">Field</text>
</a>
</g>
</g>
<path d="M1452 612a10 10 0 0 0 10 -10v-552a10 10 0 0 1 10 -10"></path>
<path d="M224 40a10 10 0 0 1 10 10v591a10 10 0 0 0 10 10"></path>
<g>
<path d="M244 651h0"></path>
<path d="M844 651h608"></path>
<g class="terminal">
<path d="M244 651h0"></path>
<path d="M400 651h0"></path>
<rect x="244" y="640" width="156" height="22" rx="10" ry="10"></rect>
<text x="322" y="655">"BEGIN OF SCREEN"</text>
</g>
<path d="M400 651h10"></path>
<path d="M410 651h10"></path>
<g class="non-terminal">
<path d="M420 651h0"></path>
<path d="M496 651h0"></path>
<rect x="420" y="640" width="76" height="22"></rect>
<a xlink:href="reuse_integer.svg"><text x="458" y="655">Integer</text>
</a>
</g>
<path d="M496 651h10"></path>
<g>
<path d="M506 651h0"></path>
<path d="M844 651h0"></path>
<path d="M506 651a10 10 0 0 0 10 -10v0a10 10 0 0 1 10 -10"></path>
<g>
<path d="M526 631h298"></path>
</g>
<path d="M824 631a10 10 0 0 1 10 10v0a10 10 0 0 0 10 10"></path>
<path d="M506 651h20"></path>
<g>
<path d="M526 651h0"></path>
<path d="M824 651h0"></path>
<path d="M556 651h10"></path>
<g>
<path d="M566 651h0"></path>
<path d="M776 651h18"></path>
<g class="terminal">
<path d="M566 651h0"></path>
<path d="M618 651h0"></path>
<rect x="566" y="640" width="52" height="22" rx="10" ry="10"></rect>
<text x="592" y="655">"AS"</text>
</g>
<path d="M618 651h10"></path>
<g>
<path d="M628 651h0"></path>
<path d="M776 651h0"></path>
<path d="M628 651h20"></path>
<g class="terminal">
<path d="M648 651h0"></path>
<path d="M732 651h24"></path>
<rect x="648" y="640" width="84" height="22" rx="10" ry="10"></rect>
<text x="690" y="655">"WINDOW"</text>
</g>
<path d="M756 651h20"></path>
<path d="M628 651a10 10 0 0 1 10 10v10a10 10 0 0 0 10 10"></path>
<g class="terminal">
<path d="M648 681h0"></path>
<path d="M756 681h0"></path>
<rect x="648" y="670" width="108" height="22" rx="10" ry="10"></rect>
<text x="702" y="685">"SUBSCREEN"</text>
</g>
<path d="M756 681a10 10 0 0 0 10 -10v-10a10 10 0 0 1 10 -10"></path>
</g>
</g>
<path d="M794 651h10"></path>
<path d="M556 651v50a10 10 0 0 0 10 10"></path>
<g>
<path d="M566 711h0"></path>
<path d="M730 711h64"></path>
<g class="terminal">
<path d="M566 711h0"></path>
<path d="M642 711h0"></path>
<rect x="566" y="700" width="76" height="22" rx="10" ry="10"></rect>
<text x="604" y="715">"TITLE"</text>
</g>
<path d="M642 711h10"></path>
<path d="M652 711h10"></path>
<g class="non-terminal">
<path d="M662 711h0"></path>
<path d="M730 711h0"></path>
<rect x="662" y="700" width="68" height="22"></rect>
<a xlink:href="reuse_source.svg"><text x="696" y="715">Source</text>
</a>
</g>
</g>
<path d="M794 711a10 10 0 0 0 10 -10v-50"></path>
<path d="M556 651v80a10 10 0 0 0 10 10"></path>
<g class="terminal">
<path d="M566 741h0"></path>
<path d="M698 741h96"></path>
<rect x="566" y="730" width="132" height="22" rx="10" ry="10"></rect>
<text x="632" y="745">"NO INTERVALS"</text>
</g>
<path d="M794 741a10 10 0 0 0 10 -10v-80"></path>
<path d="M556 651v110a10 10 0 0 0 10 10"></path>
<g>
<path d="M566 771h0"></path>
<path d="M794 771h0"></path>
<g class="terminal">
<path d="M566 771h0"></path>
<path d="M706 771h0"></path>
<rect x="566" y="760" width="140" height="22" rx="10" ry="10"></rect>
<text x="636" y="775">"NESTING LEVEL"</text>
</g>
<path d="M706 771h10"></path>
<path d="M716 771h10"></path>
<g class="non-terminal">
<path d="M726 771h0"></path>
<path d="M794 771h0"></path>
<rect x="726" y="760" width="68" height="22"></rect>
<a xlink:href="reuse_source.svg"><text x="760" y="775">Source</text>
</a>
</g>
</g>
<path d="M794 771a10 10 0 0 0 10 -10v-110"></path>
<g class="diagram-text">
<title>take one or more branches, once each, in any order</title>
<path d="M 556 641 h -26 a 4 4 0 0 0 -4 4 v 12 a 4 4 0 0 0 4 4 h 26 z" class="diagram-text"></path>
<text x="541" y="655" class="diagram-text">1+</text>
<path d="M 804 641 h 16 a 4 4 0 0 1 4 4 v 12 a 4 4 0 0 1 -4 4 h -16 z" class="diagram-text"></path>
<path d="M 811 649 a 4 4 0 1 0 6 -1 m 2.75 -1 h -4 v 4 m 0 -3 h 2" style="stroke-width: 1.75"></path>
</g>
</g>
<path d="M824 651h20"></path>
</g>
</g>
<path d="M1452 651a10 10 0 0 0 10 -10v-591a10 10 0 0 1 10 -10"></path>
<path d="M224 40a10 10 0 0 1 10 10v741a10 10 0 0 0 10 10"></path>
<g>
<path d="M244 801h0"></path>
<path d="M480 801h972"></path>
<g class="terminal">
<path d="M244 801h0"></path>
<path d="M384 801h0"></path>
<rect x="244" y="790" width="140" height="22" rx="10" ry="10"></rect>
<text x="314" y="805">"END OF SCREEN"</text>
</g>
<path d="M384 801h10"></path>
<path d="M394 801h10"></path>
<g class="non-terminal">
<path d="M404 801h0"></path>
<path d="M480 801h0"></path>
<rect x="404" y="790" width="76" height="22"></rect>
<a xlink:href="reuse_integer.svg"><text x="442" y="805">Integer</text>
</a>
</g>
</g>
<path d="M1452 801a10 10 0 0 0 10 -10v-741a10 10 0 0 1 10 -10"></path>
</g>
</g>
<path d="M1472 40h10"></path>
<path d="M 1482 40 h 20 m -10 -10 v 20 m 10 -20 v 20"></path>
</g>
</svg>
