<svg xmlns="http://www.w3.org/2000/svg" xmlns:xlink="http://www.w3.org/1999/xlink" class="railroad-diagram" width="1090" height="409" viewBox="0 0 1090 409">
<defs>
<style type="text/css"><![CDATA[
path {
stroke-width: 3;
stroke: black;
fill: rgba(0,0,0,0);
}
text {
font: bold 14px monospace;
text-anchor: middle;
}
text.diagram-text {
font-size: 12px;
}
a {
fill: blue;
}
text.diagram-arrow {
font-size: 16px;
}
text.label {
text-anchor: start;
}
text.comment {
font: italic 12px monospace;
}
rect {
stroke-width: 3;
stroke: black;
fill: #BCBCBC;
}
path.diagram-text {
stroke-width: 3;
stroke: black;
fill: #BCBCBC;
cursor: help;
}
]]></style>
</defs>
<g transform="translate(.5 .5)">
<path d="M 20 38 v 20 m 10 -20 v 20 m -10 -10 h 20.5"></path>
<path d="M40 48h10"></path>
<g>
<path d="M50 48h0"></path>
<path d="M1040 48h0"></path>
<g class="terminal">
<path d="M50 48h0"></path>
<path d="M198 48h0"></path>
<rect x="50" y="37" width="148" height="22" rx="10" ry="10"></rect>
<text x="124" y="52">"SELECT-OPTIONS"</text>
</g>
<path d="M198 48h10"></path>
<path d="M208 48h10"></path>
<g class="non-terminal">
<path d="M218 48h0"></path>
<path d="M278 48h0"></path>
<rect x="218" y="37" width="60" height="22"></rect>
<a xlink:href="reuse_field.svg"><text x="248" y="52">Field</text>
</a>
</g>
<path d="M278 48h10"></path>
<path d="M288 48h10"></path>
<g class="terminal">
<path d="M298 48h0"></path>
<path d="M358 48h0"></path>
<rect x="298" y="37" width="60" height="22" rx="10" ry="10"></rect>
<text x="328" y="52">"FOR"</text>
</g>
<path d="M358 48h10"></path>
<g>
<path d="M368 48h0"></path>
<path d="M492 48h0"></path>
<path d="M368 48h20"></path>
<g class="non-terminal">
<path d="M388 48h0"></path>
<path d="M472 48h0"></path>
<rect x="388" y="37" width="84" height="22"></rect>
<a xlink:href="reuse_fieldsub.svg"><text x="430" y="52">FieldSub</text>
</a>
</g>
<path d="M472 48h20"></path>
<path d="M368 48a10 10 0 0 1 10 10v10a10 10 0 0 0 10 10"></path>
<g class="non-terminal">
<path d="M388 78h0"></path>
<path d="M464 78h8"></path>
<rect x="388" y="67" width="76" height="22"></rect>
<a xlink:href="reuse_dynamic.svg"><text x="426" y="82">Dynamic</text>
</a>
</g>
<path d="M472 78a10 10 0 0 0 10 -10v-10a10 10 0 0 1 10 -10"></path>
</g>
<g>
<path d="M492 48h0"></path>
<path d="M1040 48h0"></path>
<path d="M492 48a10 10 0 0 0 10 -10v-8a10 10 0 0 1 10 -10"></path>
<g>
<path d="M512 20h508"></path>
</g>
<path d="M1020 20a10 10 0 0 1 10 10v8a10 10 0 0 0 10 10"></path>
<path d="M492 48h20"></path>
<g>
<path d="M512 48h0"></path>
<path d="M1020 48h0"></path>
<path d="M542 48h10"></path>
<g>
<path d="M552 48h0"></path>
<path d="M990 48h0"></path>
<g class="terminal">
<path d="M552 48h0"></path>
<path d="M644 48h0"></path>
<rect x="552" y="37" width="92" height="22" rx="10" ry="10"></rect>
<text x="598" y="52">"DEFAULT"</text>
</g>
<path d="M644 48h10"></path>
<g>
<path d="M654 48h0"></path>
<path d="M794 48h0"></path>
<path d="M654 48h20"></path>
<g class="non-terminal">
<path d="M674 48h0"></path>
<path d="M758 48h16"></path>
<rect x="674" y="37" width="84" height="22"></rect>
<a xlink:href="reuse_constant.svg"><text x="716" y="52">Constant</text>
</a>
</g>
<path d="M774 48h20"></path>
<path d="M654 48a10 10 0 0 1 10 10v10a10 10 0 0 0 10 10"></path>
<g class="non-terminal">
<path d="M674 78h0"></path>
<path d="M774 78h0"></path>
<rect x="674" y="67" width="100" height="22"></rect>
<a xlink:href="reuse_fieldchain.svg"><text x="724" y="82">FieldChain</text>
</a>
</g>
<path d="M774 78a10 10 0 0 0 10 -10v-10a10 10 0 0 1 10 -10"></path>
</g>
<g>
<path d="M794 48h0"></path>
<path d="M990 48h0"></path>
<path d="M794 48a10 10 0 0 0 10 -10v0a10 10 0 0 1 10 -10"></path>
<g>
<path d="M814 28h156"></path>
</g>
<path d="M970 28a10 10 0 0 1 10 10v0a10 10 0 0 0 10 10"></path>
<path d="M794 48h20"></path>
<g>
<path d="M814 48h0"></path>
<path d="M970 48h0"></path>
<g class="terminal">
<path d="M814 48h0"></path>
<path d="M866 48h0"></path>
<rect x="814" y="37" width="52" height="22" rx="10" ry="10"></rect>
<text x="840" y="52">"TO"</text>
</g>
<path d="M866 48h10"></path>
<path d="M876 48h10"></path>
<g class="non-terminal">
<path d="M886 48h0"></path>
<path d="M970 48h0"></path>
<rect x="886" y="37" width="84" height="22"></rect>
<a xlink:href="reuse_constant.svg"><text x="928" y="52">Constant</text>
</a>
</g>
</g>
<path d="M970 48h20"></path>
</g>
</g>
<path d="M990 48h10"></path>
<path d="M542 48v50a10 10 0 0 0 10 10"></path>
<g>
<path d="M552 108h0"></path>
<path d="M716 108h274"></path>
<g class="terminal">
<path d="M552 108h0"></path>
<path d="M636 108h0"></path>
<rect x="552" y="97" width="84" height="22" rx="10" ry="10"></rect>
<text x="594" y="112">"OPTION"</text>
</g>
<path d="M636 108h10"></path>
<path d="M646 108h10"></path>
<g class="non-terminal">
<path d="M656 108h0"></path>
<path d="M716 108h0"></path>
<rect x="656" y="97" width="60" height="22"></rect>
<a xlink:href="reuse_field.svg"><text x="686" y="112">Field</text>
</a>
</g>
</g>
<path d="M990 108a10 10 0 0 0 10 -10v-50"></path>
<path d="M542 48v80a10 10 0 0 0 10 10"></path>
<g>
<path d="M552 138h0"></path>
<path d="M740 138h250"></path>
<g class="terminal">
<path d="M552 138h0"></path>
<path d="M660 138h0"></path>
<rect x="552" y="127" width="108" height="22" rx="10" ry="10"></rect>
<text x="606" y="142">"MEMORY ID"</text>
</g>
<path d="M660 138h10"></path>
<path d="M670 138h10"></path>
<g class="non-terminal">
<path d="M680 138h0"></path>
<path d="M740 138h0"></path>
<rect x="680" y="127" width="60" height="22"></rect>
<a xlink:href="reuse_field.svg"><text x="710" y="142">Field</text>
</a>
</g>
</g>
<path d="M990 138a10 10 0 0 0 10 -10v-80"></path>
<path d="M542 48v110a10 10 0 0 0 10 10"></path>
<g>
<path d="M552 168h0"></path>
<path d="M796 168h194"></path>
<g class="terminal">
<path d="M552 168h0"></path>
<path d="M716 168h0"></path>
<rect x="552" y="157" width="164" height="22" rx="10" ry="10"></rect>
<text x="634" y="172">"MATCHCODE OBJECT"</text>
</g>
<path d="M716 168h10"></path>
<path d="M726 168h10"></path>
<g class="non-terminal">
<path d="M736 168h0"></path>
<path d="M796 168h0"></path>
<rect x="736" y="157" width="60" height="22"></rect>
<a xlink:href="reuse_field.svg"><text x="766" y="172">Field</text>
</a>
</g>
</g>
<path d="M990 168a10 10 0 0 0 10 -10v-110"></path>
<path d="M542 48v140a10 10 0 0 0 10 10"></path>
<g>
<path d="M552 198h0"></path>
<path d="M788 198h202"></path>
<g class="terminal">
<path d="M552 198h0"></path>
<path d="M700 198h0"></path>
<rect x="552" y="187" width="148" height="22" rx="10" ry="10"></rect>
<text x="626" y="202">"VISIBLE LENGTH"</text>
</g>
<path d="M700 198h10"></path>
<path d="M710 198h10"></path>
<g class="non-terminal">
<path d="M720 198h0"></path>
<path d="M788 198h0"></path>
<rect x="720" y="187" width="68" height="22"></rect>
<a xlink:href="reuse_source.svg"><text x="754" y="202">Source</text>
</a>
</g>
</g>
<path d="M990 198a10 10 0 0 0 10 -10v-140"></path>
<path d="M542 48v170a10 10 0 0 0 10 10"></path>
<g>
<path d="M552 228h0"></path>
<path d="M732 228h258"></path>
<g class="terminal">
<path d="M552 228h0"></path>
<path d="M652 228h0"></path>
<rect x="552" y="217" width="100" height="22" rx="10" ry="10"></rect>
<text x="602" y="232">"MODIF ID"</text>
</g>
<path d="M652 228h10"></path>
<path d="M662 228h10"></path>
<g class="non-terminal">
<path d="M672 228h0"></path>
<path d="M732 228h0"></path>
<rect x="672" y="217" width="60" height="22"></rect>
<a xlink:href="reuse_field.svg"><text x="702" y="232">Field</text>
</a>
</g>
</g>
<path d="M990 228a10 10 0 0 0 10 -10v-170"></path>
<path d="M542 48v200a10 10 0 0 0 10 10"></path>
<g class="terminal">
<path d="M552 258h0"></path>
<path d="M668 258h322"></path>
<rect x="552" y="247" width="116" height="22" rx="10" ry="10"></rect>
<text x="610" y="262">"LOWER CASE"</text>
</g>
<path d="M990 258a10 10 0 0 0 10 -10v-200"></path>
<path d="M542 48v230a10 10 0 0 0 10 10"></path>
<g class="terminal">
<path d="M552 288h0"></path>
<path d="M684 288h306"></path>
<rect x="552" y="277" width="132" height="22" rx="10" ry="10"></rect>
<text x="618" y="292">"NO-EXTENSION"</text>
</g>
<path d="M990 288a10 10 0 0 0 10 -10v-230"></path>
<path d="M542 48v260a10 10 0 0 0 10 10"></path>
<g class="terminal">
<path d="M552 318h0"></path>
<path d="M684 318h306"></path>
<rect x="552" y="307" width="132" height="22" rx="10" ry="10"></rect>
<text x="618" y="322">"NO INTERVALS"</text>
</g>
<path d="M990 318a10 10 0 0 0 10 -10v-260"></path>
<path d="M542 48v290a10 10 0 0 0 10 10"></path>
<g class="terminal">
<path d="M552 348h0"></path>
<path d="M668 348h322"></path>
<rect x="552" y="337" width="116" height="22" rx="10" ry="10"></rect>
<text x="610" y="352">"NO-DISPLAY"</text>
</g>
<path d="M990 348a10 10 0 0 0 10 -10v-290"></path>
<path d="M542 48v320a10 10 0 0 0 10 10"></path>
<g class="terminal">
<path d="M552 378h0"></path>
<path d="M668 378h322"></path>
<rect x="552" y="367" width="116" height="22" rx="10" ry="10"></rect>
<text x="610" y="382">"OBLIGATORY"</text>
</g>
<path d="M990 378a10 10 0 0 0 10 -10v-320"></path>
<g class="diagram-text">
<title>take one or more branches, once each, in any order</title>
<path d="M 542 38 h -26 a 4 4 0 0 0 -4 4 v 12 a 4 4 0 0 0 4 4 h 26 z" class="diagram-text"></path>
<text x="527" y="52" class="diagram-text">1+</text>
<path d="M 1000 38 h 16 a 4 4 0 0 1 4 4 v 12 a 4 4 0 0 1 -4 4 h -16 z" class="diagram-text"></path>
<path d="M 1007 46 a 4 4 0 1 0 6 -1 m 2.75 -1 h -4 v 4 m 0 -3 h 2" style="stroke-width: 1.75"></path>
</g>
</g>
<path d="M1020 48h20"></path>
</g>
</g>
<path d="M1040 48h10"></path>
<path d="M 1050 48 h 20 m -10 -10 v 20 m 10 -20 v 20"></path>
</g>
</svg>
