<svg xmlns="http://www.w3.org/2000/svg" xmlns:xlink="http://www.w3.org/1999/xlink" class="railroad-diagram" width="1232" height="716" viewBox="0 0 1232 716">
<defs>
<style type="text/css"><![CDATA[
path {
stroke-width: 3;
stroke: black;
fill: rgba(0,0,0,0);
}
text {
font: bold 14px monospace;
text-anchor: middle;
}
text.diagram-text {
font-size: 12px;
}
a {
fill: blue;
}
text.diagram-arrow {
font-size: 16px;
}
text.label {
text-anchor: start;
}
text.comment {
font: italic 12px monospace;
}
rect {
stroke-width: 3;
stroke: black;
fill: #BCBCBC;
}
path.diagram-text {
stroke-width: 3;
stroke: black;
fill: #BCBCBC;
cursor: help;
}
]]></style>
</defs>
<g transform="translate(.5 .5)">
<path d="M 20 30 v 20 m 10 -20 v 20 m -10 -10 h 20.5"></path>
<path d="M40 40h10"></path>
<g>
<path d="M50 40h0"></path>
<path d="M1182 40h0"></path>
<g class="terminal">
<path d="M50 40h0"></path>
<path d="M214 40h0"></path>
<rect x="50" y="29" width="164" height="22" rx="10" ry="10"></rect>
<text x="132" y="44">"SELECTION-SCREEN"</text>
</g>
<path d="M214 40h10"></path>
<g>
<path d="M224 40h0"></path>
<path d="M1182 40h0"></path>
<path d="M224 40h20"></path>
<g>
<path d="M244 40h0"></path>
<path d="M1162 40h0"></path>
<g class="terminal">
<path d="M244 40h0"></path>
<path d="M336 40h0"></path>
<rect x="244" y="29" width="92" height="22" rx="10" ry="10"></rect>
<text x="290" y="44">"COMMENT"</text>
</g>
<path d="M336 40h10"></path>
<path d="M346 40h10"></path>
<g>
<path d="M356 40h0"></path>
<path d="M746 40h0"></path>
<g>
<path d="M356 40h0"></path>
<path d="M480 40h0"></path>
<path d="M356 40a10 10 0 0 0 10 -10v0a10 10 0 0 1 10 -10"></path>
<g>
<path d="M376 20h84"></path>
</g>
<path d="M460 20a10 10 0 0 1 10 10v0a10 10 0 0 0 10 10"></path>
<path d="M356 40h20"></path>
<g class="terminal">
<path d="M376 40h0"></path>
<path d="M460 40h0"></path>
<rect x="376" y="29" width="84" height="22" rx="10" ry="10"></rect>
<text x="418" y="44">^\/?\d+$</text>
</g>
<path d="M460 40h20"></path>
</g>
<g>
<path d="M480 40h0"></path>
<path d="M580 40h0"></path>
<path d="M480 40h20"></path>
<g class="terminal">
<path d="M500 40h0"></path>
<path d="M552 40h8"></path>
<rect x="500" y="29" width="52" height="22" rx="10" ry="10"></rect>
<text x="526" y="44">!"("</text>
</g>
<path d="M560 40h20"></path>
<path d="M480 40a10 10 0 0 1 10 10v10a10 10 0 0 0 10 10"></path>
<g class="terminal">
<path d="M500 70h0"></path>
<path d="M560 70h0"></path>
<rect x="500" y="59" width="60" height="22" rx="10" ry="10"></rect>
<text x="530" y="74">!" ("</text>
</g>
<path d="M560 70a10 10 0 0 0 10 -10v-10a10 10 0 0 1 10 -10"></path>
</g>
<path d="M580 40h10"></path>
<g class="non-terminal">
<path d="M590 40h0"></path>
<path d="M666 40h0"></path>
<rect x="590" y="29" width="76" height="22"></rect>
<a xlink:href="reuse_integer.svg"><text x="628" y="44">Integer</text>
</a>
</g>
<path d="M666 40h10"></path>
<path d="M676 40h10"></path>
<g class="terminal">
<path d="M686 40h0"></path>
<path d="M746 40h0"></path>
<rect x="686" y="29" width="60" height="22" rx="10" ry="10"></rect>
<text x="716" y="44">!") "</text>
</g>
</g>
<path d="M746 40h10"></path>
<g>
<path d="M756 40h0"></path>
<path d="M864 40h0"></path>
<path d="M756 40a10 10 0 0 0 10 -10v0a10 10 0 0 1 10 -10"></path>
<g>
<path d="M776 20h68"></path>
</g>
<path d="M844 20a10 10 0 0 1 10 10v0a10 10 0 0 0 10 10"></path>
<path d="M756 40h20"></path>
<g class="non-terminal">
<path d="M776 40h0"></path>
<path d="M844 40h0"></path>
<rect x="776" y="29" width="68" height="22"></rect>
<a xlink:href="reuse_source.svg"><text x="810" y="44">Source</text>
</a>
</g>
<path d="M844 40h20"></path>
</g>
<g>
<path d="M864 40h0"></path>
<path d="M1162 40h0"></path>
<path d="M864 40a10 10 0 0 0 10 -10v0a10 10 0 0 1 10 -10"></path>
<g>
<path d="M884 20h258"></path>
</g>
<path d="M1142 20a10 10 0 0 1 10 10v0a10 10 0 0 0 10 10"></path>
<path d="M864 40h20"></path>
<g>
<path d="M884 40h0"></path>
<path d="M1142 40h0"></path>
<path d="M914 40h10"></path>
<g>
<path d="M924 40h0"></path>
<path d="M1112 40h0"></path>
<g class="terminal">
<path d="M924 40h0"></path>
<path d="M1032 40h0"></path>
<rect x="924" y="29" width="108" height="22" rx="10" ry="10"></rect>
<text x="978" y="44">"FOR FIELD"</text>
</g>
<path d="M1032 40h10"></path>
<path d="M1042 40h10"></path>
<g class="non-terminal">
<path d="M1052 40h0"></path>
<path d="M1112 40h0"></path>
<rect x="1052" y="29" width="60" height="22"></rect>
<a xlink:href="reuse_field.svg"><text x="1082" y="44">Field</text>
</a>
</g>
</g>
<path d="M1112 40h10"></path>
<path d="M914 40v20a10 10 0 0 0 10 10"></path>
<g>
<path d="M924 70h0"></path>
<path d="M1104 70h8"></path>
<g class="terminal">
<path d="M924 70h0"></path>
<path d="M1024 70h0"></path>
<rect x="924" y="59" width="100" height="22" rx="10" ry="10"></rect>
<text x="974" y="74">"MODIF ID"</text>
</g>
<path d="M1024 70h10"></path>
<path d="M1034 70h10"></path>
<g class="non-terminal">
<path d="M1044 70h0"></path>
<path d="M1104 70h0"></path>
<rect x="1044" y="59" width="60" height="22"></rect>
<a xlink:href="reuse_field.svg"><text x="1074" y="74">Field</text>
</a>
</g>
</g>
<path d="M1112 70a10 10 0 0 0 10 -10v-20"></path>
<g class="diagram-text">
<title>take one or more branches, once each, in any order</title>
<path d="M 914 30 h -26 a 4 4 0 0 0 -4 4 v 12 a 4 4 0 0 0 4 4 h 26 z" class="diagram-text"></path>
<text x="899" y="44" class="diagram-text">1+</text>
<path d="M 1122 30 h 16 a 4 4 0 0 1 4 4 v 12 a 4 4 0 0 1 -4 4 h -16 z" class="diagram-text"></path>
<path d="M 1129 38 a 4 4 0 1 0 6 -1 m 2.75 -1 h -4 v 4 m 0 -3 h 2" style="stroke-width: 1.75"></path>
</g>
</g>
<path d="M1142 40h20"></path>
</g>
</g>
<path d="M1162 40h20"></path>
<path d="M224 40a10 10 0 0 1 10 10v40a10 10 0 0 0 10 10"></path>
<g>
<path d="M244 100h0"></path>
<path d="M472 100h690"></path>
<g class="terminal">
<path d="M244 100h0"></path>
<path d="M376 100h0"></path>
<rect x="244" y="89" width="132" height="22" rx="10" ry="10"></rect>
<text x="310" y="104">"FUNCTION KEY"</text>
</g>
<path d="M376 100h10"></path>
<path d="M386 100h10"></path>
<g class="non-terminal">
<path d="M396 100h0"></path>
<path d="M472 100h0"></path>
<rect x="396" y="89" width="76" height="22"></rect>
<a xlink:href="reuse_integer.svg"><text x="434" y="104">Integer</text>
</a>
</g>
</g>
<path d="M1162 100a10 10 0 0 0 10 -10v-40a10 10 0 0 1 10 -10"></path>
<path d="M224 40a10 10 0 0 1 10 10v79a10 10 0 0 0 10 10"></path>
<g>
<path d="M244 139h0"></path>
<path d="M438 139h724"></path>
<g class="terminal">
<path d="M244 139h0"></path>
<path d="M312 139h0"></path>
<rect x="244" y="128" width="68" height="22" rx="10" ry="10"></rect>
<text x="278" y="143">"SKIP"</text>
</g>
<path d="M312 139h10"></path>
<g>
<path d="M322 139h0"></path>
<path d="M438 139h0"></path>
<path d="M322 139a10 10 0 0 0 10 -10v0a10 10 0 0 1 10 -10"></path>
<g>
<path d="M342 119h76"></path>
</g>
<path d="M418 119a10 10 0 0 1 10 10v0a10 10 0 0 0 10 10"></path>
<path d="M322 139h20"></path>
<g class="non-terminal">
<path d="M342 139h0"></path>
<path d="M418 139h0"></path>
<rect x="342" y="128" width="76" height="22"></rect>
<a xlink:href="reuse_integer.svg"><text x="380" y="143">Integer</text>
</a>
</g>
<path d="M418 139h20"></path>
</g>
</g>
<path d="M1162 139a10 10 0 0 0 10 -10v-79a10 10 0 0 1 10 -10"></path>
<path d="M224 40a10 10 0 0 1 10 10v109a10 10 0 0 0 10 10"></path>
<g>
<path d="M244 169h0"></path>
<path d="M432 169h730"></path>
<g class="terminal">
<path d="M244 169h0"></path>
<path d="M344 169h0"></path>
<rect x="244" y="158" width="100" height="22" rx="10" ry="10"></rect>
<text x="294" y="173">"POSITION"</text>
</g>
<path d="M344 169h10"></path>
<path d="M354 169h10"></path>
<g class="non-terminal">
<path d="M364 169h0"></path>
<path d="M432 169h0"></path>
<rect x="364" y="158" width="68" height="22"></rect>
<a xlink:href="reuse_source.svg"><text x="398" y="173">Source</text>
</a>
</g>
</g>
<path d="M1162 169a10 10 0 0 0 10 -10v-109a10 10 0 0 1 10 -10"></path>
<path d="M224 40a10 10 0 0 1 10 10v139a10 10 0 0 0 10 10"></path>
<g>
<path d="M244 199h0"></path>
<path d="M472 199h690"></path>
<g class="terminal">
<path d="M244 199h0"></path>
<path d="M392 199h0"></path>
<rect x="244" y="188" width="148" height="22" rx="10" ry="10"></rect>
<text x="318" y="203">"INCLUDE BLOCKS"</text>
</g>
<path d="M392 199h10"></path>
<path d="M402 199h10"></path>
<g class="terminal">
<path d="M412 199h0"></path>
<path d="M472 199h0"></path>
<rect x="412" y="188" width="60" height="22" rx="10" ry="10"></rect>
<text x="442" y="203">^\w+$</text>
</g>
</g>
<path d="M1162 199a10 10 0 0 0 10 -10v-139a10 10 0 0 1 10 -10"></path>
<path d="M224 40a10 10 0 0 1 10 10v178a10 10 0 0 0 10 10"></path>
<g>
<path d="M244 238h0"></path>
<path d="M1090 238h72"></path>
<g class="terminal">
<path d="M244 238h0"></path>
<path d="M360 238h0"></path>
<rect x="244" y="227" width="116" height="22" rx="10" ry="10"></rect>
<text x="302" y="242">"PUSHBUTTON"</text>
</g>
<path d="M360 238h10"></path>
<path d="M370 238h10"></path>
<g>
<path d="M380 238h0"></path>
<path d="M770 238h0"></path>
<g>
<path d="M380 238h0"></path>
<path d="M504 238h0"></path>
<path d="M380 238a10 10 0 0 0 10 -10v0a10 10 0 0 1 10 -10"></path>
<g>
<path d="M400 218h84"></path>
</g>
<path d="M484 218a10 10 0 0 1 10 10v0a10 10 0 0 0 10 10"></path>
<path d="M380 238h20"></path>
<g class="terminal">
<path d="M400 238h0"></path>
<path d="M484 238h0"></path>
<rect x="400" y="227" width="84" height="22" rx="10" ry="10"></rect>
<text x="442" y="242">^\/?\d+$</text>
</g>
<path d="M484 238h20"></path>
</g>
<g>
<path d="M504 238h0"></path>
<path d="M604 238h0"></path>
<path d="M504 238h20"></path>
<g class="terminal">
<path d="M524 238h0"></path>
<path d="M576 238h8"></path>
<rect x="524" y="227" width="52" height="22" rx="10" ry="10"></rect>
<text x="550" y="242">!"("</text>
</g>
<path d="M584 238h20"></path>
<path d="M504 238a10 10 0 0 1 10 10v10a10 10 0 0 0 10 10"></path>
<g class="terminal">
<path d="M524 268h0"></path>
<path d="M584 268h0"></path>
<rect x="524" y="257" width="60" height="22" rx="10" ry="10"></rect>
<text x="554" y="272">!" ("</text>
</g>
<path d="M584 268a10 10 0 0 0 10 -10v-10a10 10 0 0 1 10 -10"></path>
</g>
<path d="M604 238h10"></path>
<g class="non-terminal">
<path d="M614 238h0"></path>
<path d="M690 238h0"></path>
<rect x="614" y="227" width="76" height="22"></rect>
<a xlink:href="reuse_integer.svg"><text x="652" y="242">Integer</text>
</a>
</g>
<path d="M690 238h10"></path>
<path d="M700 238h10"></path>
<g class="terminal">
<path d="M710 238h0"></path>
<path d="M770 238h0"></path>
<rect x="710" y="227" width="60" height="22" rx="10" ry="10"></rect>
<text x="740" y="242">!") "</text>
</g>
</g>
<path d="M770 238h10"></path>
<path d="M780 238h10"></path>
<g class="non-terminal">
<path d="M790 238h0"></path>
<path d="M858 238h0"></path>
<rect x="790" y="227" width="68" height="22"></rect>
<a xlink:href="reuse_source.svg"><text x="824" y="242">Source</text>
</a>
</g>
<path d="M858 238h10"></path>
<path d="M868 238h10"></path>
<g>
<path d="M878 238h0"></path>
<path d="M1090 238h0"></path>
<g class="terminal">
<path d="M878 238h0"></path>
<path d="M1010 238h0"></path>
<rect x="878" y="227" width="132" height="22" rx="10" ry="10"></rect>
<text x="944" y="242">"USER-COMMAND"</text>
</g>
<path d="M1010 238h10"></path>
<path d="M1020 238h10"></path>
<g class="non-terminal">
<path d="M1030 238h0"></path>
<path d="M1090 238h0"></path>
<rect x="1030" y="227" width="60" height="22"></rect>
<a xlink:href="reuse_field.svg"><text x="1060" y="242">Field</text>
</a>
</g>
</g>
</g>
<path d="M1162 238a10 10 0 0 0 10 -10v-178a10 10 0 0 1 10 -10"></path>
<path d="M224 40a10 10 0 0 1 10 10v238a10 10 0 0 0 10 10"></path>
<g>
<path d="M244 298h0"></path>
<path d="M1136 298h26"></path>
<g class="terminal">
<path d="M244 298h0"></path>
<path d="M304 298h0"></path>
<rect x="244" y="287" width="60" height="22" rx="10" ry="10"></rect>
<text x="274" y="302">"TAB"</text>
</g>
<path d="M304 298h10"></path>
<path d="M314 298h10"></path>
<g class="terminal">
<path d="M324 298h0"></path>
<path d="M384 298h0"></path>
<rect x="324" y="287" width="60" height="22" rx="10" ry="10"></rect>
<text x="354" y="302">!" ("</text>
</g>
<path d="M384 298h10"></path>
<path d="M394 298h10"></path>
<g class="non-terminal">
<path d="M404 298h0"></path>
<path d="M480 298h0"></path>
<rect x="404" y="287" width="76" height="22"></rect>
<a xlink:href="reuse_integer.svg"><text x="442" y="302">Integer</text>
</a>
</g>
<path d="M480 298h10"></path>
<path d="M490 298h10"></path>
<g class="terminal">
<path d="M500 298h0"></path>
<path d="M560 298h0"></path>
<rect x="500" y="287" width="60" height="22" rx="10" ry="10"></rect>
<text x="530" y="302">!") "</text>
</g>
<path d="M560 298h10"></path>
<path d="M570 298h10"></path>
<g class="non-terminal">
<path d="M580 298h0"></path>
<path d="M640 298h0"></path>
<rect x="580" y="287" width="60" height="22"></rect>
<a xlink:href="reuse_field.svg"><text x="610" y="302">Field</text>
</a>
</g>
<path d="M640 298h10"></path>
<path d="M650 298h10"></path>
<g>
<path d="M660 298h0"></path>
<path d="M872 298h0"></path>
<g class="terminal">
<path d="M660 298h0"></path>
<path d="M792 298h0"></path>
<rect x="660" y="287" width="132" height="22" rx="10" ry="10"></rect>
<text x="726" y="302">"USER-COMMAND"</text>
</g>
<path d="M792 298h10"></path>
<path d="M802 298h10"></path>
<g class="non-terminal">
<path d="M812 298h0"></path>
<path d="M872 298h0"></path>
<rect x="812" y="287" width="60" height="22"></rect>
<a xlink:href="reuse_field.svg"><text x="842" y="302">Field</text>
</a>
</g>
</g>
<path d="M872 298h10"></path>
<path d="M882 298h10"></path>
<g class="terminal">
<path d="M892 298h0"></path>
<path d="M1040 298h0"></path>
<rect x="892" y="287" width="148" height="22" rx="10" ry="10"></rect>
<text x="966" y="302">"DEFAULT SCREEN"</text>
</g>
<path d="M1040 298h10"></path>
<path d="M1050 298h10"></path>
<g class="non-terminal">
<path d="M1060 298h0"></path>
<path d="M1136 298h0"></path>
<rect x="1060" y="287" width="76" height="22"></rect>
<a xlink:href="reuse_integer.svg"><text x="1098" y="302">Integer</text>
</a>
</g>
</g>
<path d="M1162 298a10 10 0 0 0 10 -10v-238a10 10 0 0 1 10 -10"></path>
<path d="M224 40a10 10 0 0 1 10 10v268a10 10 0 0 0 10 10"></path>
<g class="terminal">
<path d="M244 328h0"></path>
<path d="M320 328h842"></path>
<rect x="244" y="317" width="76" height="22" rx="10" ry="10"></rect>
<text x="282" y="332">"ULINE"</text>
</g>
<path d="M1162 328a10 10 0 0 0 10 -10v-268a10 10 0 0 1 10 -10"></path>
<path d="M224 40a10 10 0 0 1 10 10v307a10 10 0 0 0 10 10"></path>
<g>
<path d="M244 367h0"></path>
<path d="M1014 367h148"></path>
<g class="terminal">
<path d="M244 367h0"></path>
<path d="M392 367h0"></path>
<rect x="244" y="356" width="148" height="22" rx="10" ry="10"></rect>
<text x="318" y="371">"BEGIN OF BLOCK"</text>
</g>
<path d="M392 367h10"></path>
<path d="M402 367h10"></path>
<g class="terminal">
<path d="M412 367h0"></path>
<path d="M472 367h0"></path>
<rect x="412" y="356" width="60" height="22" rx="10" ry="10"></rect>
<text x="442" y="371">^\w+$</text>
</g>
<path d="M472 367h10"></path>
<g>
<path d="M482 367h0"></path>
<path d="M638 367h0"></path>
<path d="M482 367a10 10 0 0 0 10 -10v0a10 10 0 0 1 10 -10"></path>
<g>
<path d="M502 347h116"></path>
</g>
<path d="M618 347a10 10 0 0 1 10 10v0a10 10 0 0 0 10 10"></path>
<path d="M482 367h20"></path>
<g class="terminal">
<path d="M502 367h0"></path>
<path d="M618 367h0"></path>
<rect x="502" y="356" width="116" height="22" rx="10" ry="10"></rect>
<text x="560" y="371">"WITH FRAME"</text>
</g>
<path d="M618 367h20"></path>
</g>
<g>
<path d="M638 367h0"></path>
<path d="M842 367h0"></path>
<path d="M638 367a10 10 0 0 0 10 -10v0a10 10 0 0 1 10 -10"></path>
<g>
<path d="M658 347h164"></path>
</g>
<path d="M822 347a10 10 0 0 1 10 10v0a10 10 0 0 0 10 10"></path>
<path d="M638 367h20"></path>
<g>
<path d="M658 367h0"></path>
<path d="M822 367h0"></path>
<g class="terminal">
<path d="M658 367h0"></path>
<path d="M734 367h0"></path>
<rect x="658" y="356" width="76" height="22" rx="10" ry="10"></rect>
<text x="696" y="371">"TITLE"</text>
</g>
<path d="M734 367h10"></path>
<path d="M744 367h10"></path>
<g class="non-terminal">
<path d="M754 367h0"></path>
<path d="M822 367h0"></path>
<rect x="754" y="356" width="68" height="22"></rect>
<a xlink:href="reuse_source.svg"><text x="788" y="371">Source</text>
</a>
</g>
</g>
<path d="M822 367h20"></path>
</g>
<g>
<path d="M842 367h0"></path>
<path d="M1014 367h0"></path>
<path d="M842 367a10 10 0 0 0 10 -10v0a10 10 0 0 1 10 -10"></path>
<g>
<path d="M862 347h132"></path>
</g>
<path d="M994 347a10 10 0 0 1 10 10v0a10 10 0 0 0 10 10"></path>
<path d="M842 367h20"></path>
<g class="terminal">
<path d="M862 367h0"></path>
<path d="M994 367h0"></path>
<rect x="862" y="356" width="132" height="22" rx="10" ry="10"></rect>
<text x="928" y="371">"NO INTERVALS"</text>
</g>
<path d="M994 367h20"></path>
</g>
</g>
<path d="M1162 367a10 10 0 0 0 10 -10v-307a10 10 0 0 1 10 -10"></path>
<path d="M224 40a10 10 0 0 1 10 10v346a10 10 0 0 0 10 10"></path>
<g>
<path d="M244 406h0"></path>
<path d="M982 406h180"></path>
<g class="terminal">
<path d="M244 406h0"></path>
<path d="M448 406h0"></path>
<rect x="244" y="395" width="204" height="22" rx="10" ry="10"></rect>
<text x="346" y="410">"BEGIN OF TABBED BLOCK"</text>
</g>
<path d="M448 406h10"></path>
<path d="M458 406h10"></path>
<g class="non-terminal">
<path d="M468 406h0"></path>
<path d="M528 406h0"></path>
<rect x="468" y="395" width="60" height="22"></rect>
<a xlink:href="reuse_field.svg"><text x="498" y="410">Field</text>
</a>
</g>
<path d="M528 406h10"></path>
<path d="M538 406h10"></path>
<g class="terminal">
<path d="M548 406h0"></path>
<path d="M608 406h0"></path>
<rect x="548" y="395" width="60" height="22" rx="10" ry="10"></rect>
<text x="578" y="410">"FOR"</text>
</g>
<path d="M608 406h10"></path>
<path d="M618 406h10"></path>
<g class="non-terminal">
<path d="M628 406h0"></path>
<path d="M704 406h0"></path>
<rect x="628" y="395" width="76" height="22"></rect>
<a xlink:href="reuse_integer.svg"><text x="666" y="410">Integer</text>
</a>
</g>
<path d="M704 406h10"></path>
<path d="M714 406h10"></path>
<g class="terminal">
<path d="M724 406h0"></path>
<path d="M800 406h0"></path>
<rect x="724" y="395" width="76" height="22" rx="10" ry="10"></rect>
<text x="762" y="410">"LINES"</text>
</g>
<path d="M800 406h10"></path>
<g>
<path d="M810 406h0"></path>
<path d="M982 406h0"></path>
<path d="M810 406a10 10 0 0 0 10 -10v0a10 10 0 0 1 10 -10"></path>
<g>
<path d="M830 386h132"></path>
</g>
<path d="M962 386a10 10 0 0 1 10 10v0a10 10 0 0 0 10 10"></path>
<path d="M810 406h20"></path>
<g class="terminal">
<path d="M830 406h0"></path>
<path d="M962 406h0"></path>
<rect x="830" y="395" width="132" height="22" rx="10" ry="10"></rect>
<text x="896" y="410">"NO INTERVALS"</text>
</g>
<path d="M962 406h20"></path>
</g>
</g>
<path d="M1162 406a10 10 0 0 0 10 -10v-346a10 10 0 0 1 10 -10"></path>
<path d="M224 40a10 10 0 0 1 10 10v376a10 10 0 0 0 10 10"></path>
<g>
<path d="M244 436h0"></path>
<path d="M456 436h706"></path>
<g class="terminal">
<path d="M244 436h0"></path>
<path d="M376 436h0"></path>
<rect x="244" y="425" width="132" height="22" rx="10" ry="10"></rect>
<text x="310" y="440">"END OF BLOCK"</text>
</g>
<path d="M376 436h10"></path>
<path d="M386 436h10"></path>
<g class="terminal">
<path d="M396 436h0"></path>
<path d="M456 436h0"></path>
<rect x="396" y="425" width="60" height="22" rx="10" ry="10"></rect>
<text x="426" y="440">^\w+$</text>
</g>
</g>
<path d="M1162 436a10 10 0 0 0 10 -10v-376a10 10 0 0 1 10 -10"></path>
<path d="M224 40a10 10 0 0 1 10 10v406a10 10 0 0 0 10 10"></path>
<g class="terminal">
<path d="M244 466h0"></path>
<path d="M384 466h778"></path>
<rect x="244" y="455" width="140" height="22" rx="10" ry="10"></rect>
<text x="314" y="470">"BEGIN OF LINE"</text>
</g>
<path d="M1162 466a10 10 0 0 0 10 -10v-406a10 10 0 0 1 10 -10"></path>
<path d="M224 40a10 10 0 0 1 10 10v436a10 10 0 0 0 10 10"></path>
<g class="terminal">
<path d="M244 496h0"></path>
<path d="M368 496h794"></path>
<rect x="244" y="485" width="124" height="22" rx="10" ry="10"></rect>
<text x="306" y="500">"END OF LINE"</text>
</g>
<path d="M1162 496a10 10 0 0 0 10 -10v-436a10 10 0 0 1 10 -10"></path>
<path d="M224 40a10 10 0 0 1 10 10v475a10 10 0 0 0 10 10"></path>
<g>
<path d="M244 535h0"></path>
<path d="M844 535h318"></path>
<g class="terminal">
<path d="M244 535h0"></path>
<path d="M400 535h0"></path>
<rect x="244" y="524" width="156" height="22" rx="10" ry="10"></rect>
<text x="322" y="539">"BEGIN OF SCREEN"</text>
</g>
<path d="M400 535h10"></path>
<path d="M410 535h10"></path>
<g class="non-terminal">
<path d="M420 535h0"></path>
<path d="M496 535h0"></path>
<rect x="420" y="524" width="76" height="22"></rect>
<a xlink:href="reuse_integer.svg"><text x="458" y="539">Integer</text>
</a>
</g>
<path d="M496 535h10"></path>
<g>
<path d="M506 535h0"></path>
<path d="M844 535h0"></path>
<path d="M506 535a10 10 0 0 0 10 -10v0a10 10 0 0 1 10 -10"></path>
<g>
<path d="M526 515h298"></path>
</g>
<path d="M824 515a10 10 0 0 1 10 10v0a10 10 0 0 0 10 10"></path>
<path d="M506 535h20"></path>
<g>
<path d="M526 535h0"></path>
<path d="M824 535h0"></path>
<path d="M556 535h10"></path>
<g>
<path d="M566 535h0"></path>
<path d="M776 535h18"></path>
<g class="terminal">
<path d="M566 535h0"></path>
<path d="M618 535h0"></path>
<rect x="566" y="524" width="52" height="22" rx="10" ry="10"></rect>
<text x="592" y="539">"AS"</text>
</g>
<path d="M618 535h10"></path>
<g>
<path d="M628 535h0"></path>
<path d="M776 535h0"></path>
<path d="M628 535h20"></path>
<g class="terminal">
<path d="M648 535h0"></path>
<path d="M732 535h24"></path>
<rect x="648" y="524" width="84" height="22" rx="10" ry="10"></rect>
<text x="690" y="539">"WINDOW"</text>
</g>
<path d="M756 535h20"></path>
<path d="M628 535a10 10 0 0 1 10 10v10a10 10 0 0 0 10 10"></path>
<g class="terminal">
<path d="M648 565h0"></path>
<path d="M756 565h0"></path>
<rect x="648" y="554" width="108" height="22" rx="10" ry="10"></rect>
<text x="702" y="569">"SUBSCREEN"</text>
</g>
<path d="M756 565a10 10 0 0 0 10 -10v-10a10 10 0 0 1 10 -10"></path>
</g>
</g>
<path d="M794 535h10"></path>
<path d="M556 535v50a10 10 0 0 0 10 10"></path>
<g>
<path d="M566 595h0"></path>
<path d="M730 595h64"></path>
<g class="terminal">
<path d="M566 595h0"></path>
<path d="M642 595h0"></path>
<rect x="566" y="584" width="76" height="22" rx="10" ry="10"></rect>
<text x="604" y="599">"TITLE"</text>
</g>
<path d="M642 595h10"></path>
<path d="M652 595h10"></path>
<g class="non-terminal">
<path d="M662 595h0"></path>
<path d="M730 595h0"></path>
<rect x="662" y="584" width="68" height="22"></rect>
<a xlink:href="reuse_source.svg"><text x="696" y="599">Source</text>
</a>
</g>
</g>
<path d="M794 595a10 10 0 0 0 10 -10v-50"></path>
<path d="M556 535v80a10 10 0 0 0 10 10"></path>
<g class="terminal">
<path d="M566 625h0"></path>
<path d="M698 625h96"></path>
<rect x="566" y="614" width="132" height="22" rx="10" ry="10"></rect>
<text x="632" y="629">"NO INTERVALS"</text>
</g>
<path d="M794 625a10 10 0 0 0 10 -10v-80"></path>
<path d="M556 535v110a10 10 0 0 0 10 10"></path>
<g>
<path d="M566 655h0"></path>
<path d="M794 655h0"></path>
<g class="terminal">
<path d="M566 655h0"></path>
<path d="M706 655h0"></path>
<rect x="566" y="644" width="140" height="22" rx="10" ry="10"></rect>
<text x="636" y="659">"NESTING LEVEL"</text>
</g>
<path d="M706 655h10"></path>
<path d="M716 655h10"></path>
<g class="non-terminal">
<path d="M726 655h0"></path>
<path d="M794 655h0"></path>
<rect x="726" y="644" width="68" height="22"></rect>
<a xlink:href="reuse_source.svg"><text x="760" y="659">Source</text>
</a>
</g>
</g>
<path d="M794 655a10 10 0 0 0 10 -10v-110"></path>
<g class="diagram-text">
<title>take one or more branches, once each, in any order</title>
<path d="M 556 525 h -26 a 4 4 0 0 0 -4 4 v 12 a 4 4 0 0 0 4 4 h 26 z" class="diagram-text"></path>
<text x="541" y="539" class="diagram-text">1+</text>
<path d="M 804 525 h 16 a 4 4 0 0 1 4 4 v 12 a 4 4 0 0 1 -4 4 h -16 z" class="diagram-text"></path>
<path d="M 811 533 a 4 4 0 1 0 6 -1 m 2.75 -1 h -4 v 4 m 0 -3 h 2" style="stroke-width: 1.75"></path>
</g>
</g>
<path d="M824 535h20"></path>
</g>
</g>
<path d="M1162 535a10 10 0 0 0 10 -10v-475a10 10 0 0 1 10 -10"></path>
<path d="M224 40a10 10 0 0 1 10 10v625a10 10 0 0 0 10 10"></path>
<g>
<path d="M244 685h0"></path>
<path d="M480 685h682"></path>
<g class="terminal">
<path d="M244 685h0"></path>
<path d="M384 685h0"></path>
<rect x="244" y="674" width="140" height="22" rx="10" ry="10"></rect>
<text x="314" y="689">"END OF SCREEN"</text>
</g>
<path d="M384 685h10"></path>
<path d="M394 685h10"></path>
<g class="non-terminal">
<path d="M404 685h0"></path>
<path d="M480 685h0"></path>
<rect x="404" y="674" width="76" height="22"></rect>
<a xlink:href="reuse_integer.svg"><text x="442" y="689">Integer</text>
</a>
</g>
</g>
<path d="M1162 685a10 10 0 0 0 10 -10v-625a10 10 0 0 1 10 -10"></path>
</g>
</g>
<path d="M1182 40h10"></path>
<path d="M 1192 40 h 20 m -10 -10 v 20 m 10 -20 v 20"></path>
</g>
</svg>
