<svg xmlns="http://www.w3.org/2000/svg" xmlns:xlink="http://www.w3.org/1999/xlink" class="railroad-diagram" width="1688" height="523" viewBox="0 0 1688 523">
<defs>
<style type="text/css"><![CDATA[
path {
stroke-width: 3;
stroke: black;
fill: rgba(0,0,0,0);
}
text {
font: bold 14px monospace;
text-anchor: middle;
}
text.diagram-text {
font-size: 12px;
}
a {
fill: blue;
}
text.diagram-arrow {
font-size: 16px;
}
text.label {
text-anchor: start;
}
text.comment {
font: italic 12px monospace;
}
rect {
stroke-width: 3;
stroke: black;
fill: #BCBCBC;
}
path.diagram-text {
stroke-width: 3;
stroke: black;
fill: #BCBCBC;
cursor: help;
}
]]></style>
</defs>
<g transform="translate(.5 .5)">
<path d="M 20 30 v 20 m 10 -20 v 20 m -10 -10 h 20.5"></path>
<path d="M40 40h10"></path>
<g>
<path d="M50 40h0"></path>
<path d="M1638 40h0"></path>
<g class="terminal">
<path d="M50 40h0"></path>
<path d="M134 40h0"></path>
<rect x="50" y="29" width="84" height="22" rx="10" ry="10"></rect>
<text x="92" y="44">"SELECT"</text>
</g>
<path d="M134 40h10"></path>
<g>
<path d="M144 40h0"></path>
<path d="M474 40h0"></path>
<path d="M144 40h20"></path>
<g class="terminal">
<path d="M164 40h95"></path>
<path d="M359 40h95"></path>
<rect x="259" y="29" width="100" height="22" rx="10" ry="10"></rect>
<text x="309" y="44">"DISTINCT"</text>
</g>
<path d="M454 40h20"></path>
<path d="M144 40a10 10 0 0 1 10 10v27a10 10 0 0 0 10 10"></path>
<g>
<path d="M164 87h0"></path>
<path d="M454 87h0"></path>
<path d="M164 87a10 10 0 0 0 10 -10v-8a10 10 0 0 1 10 -10"></path>
<g>
<path d="M184 59h250"></path>
</g>
<path d="M434 59a10 10 0 0 1 10 10v8a10 10 0 0 0 10 10"></path>
<path d="M164 87h20"></path>
<g>
<path d="M184 87h0"></path>
<path d="M434 87h0"></path>
<g class="terminal">
<path d="M184 87h0"></path>
<path d="M268 87h0"></path>
<rect x="184" y="76" width="84" height="22" rx="10" ry="10"></rect>
<text x="226" y="91">"SINGLE"</text>
</g>
<path d="M268 87h10"></path>
<g>
<path d="M278 87h0"></path>
<path d="M434 87h0"></path>
<path d="M278 87a10 10 0 0 0 10 -10v0a10 10 0 0 1 10 -10"></path>
<g>
<path d="M298 67h116"></path>
</g>
<path d="M414 67a10 10 0 0 1 10 10v0a10 10 0 0 0 10 10"></path>
<path d="M278 87h20"></path>
<g class="terminal">
<path d="M298 87h0"></path>
<path d="M414 87h0"></path>
<rect x="298" y="76" width="116" height="22" rx="10" ry="10"></rect>
<text x="356" y="91">"FOR UPDATE"</text>
</g>
<path d="M414 87h20"></path>
</g>
</g>
<path d="M434 87h20"></path>
</g>
<path d="M454 87a10 10 0 0 0 10 -10v-27a10 10 0 0 1 10 -10"></path>
</g>
<g>
<path d="M474 40h0"></path>
<path d="M922 40h0"></path>
<path d="M474 40h20"></path>
<g class="terminal">
<path d="M494 40h182"></path>
<path d="M720 40h182"></path>
<rect x="676" y="29" width="44" height="22" rx="10" ry="10"></rect>
<text x="698" y="44">"&#42;"</text>
</g>
<path d="M902 40h20"></path>
<path d="M474 40a10 10 0 0 1 10 10v10a10 10 0 0 0 10 10"></path>
<g>
<path d="M494 70h0"></path>
<path d="M902 70h0"></path>
<g class="terminal">
<path d="M494 70h0"></path>
<path d="M570 70h0"></path>
<rect x="494" y="59" width="76" height="22" rx="10" ry="10"></rect>
<text x="532" y="74">"COUNT"</text>
</g>
<path d="M570 70h10"></path>
<g>
<path d="M580 70h0"></path>
<path d="M784 70h0"></path>
<path d="M580 70h20"></path>
<g class="terminal">
<path d="M600 70h4"></path>
<path d="M760 70h4"></path>
<rect x="604" y="59" width="156" height="22" rx="10" ry="10"></rect>
<text x="682" y="74">Token "ParenLeft"</text>
</g>
<path d="M764 70h20"></path>
<path d="M580 70a10 10 0 0 1 10 10v10a10 10 0 0 0 10 10"></path>
<g class="terminal">
<path d="M600 100h0"></path>
<path d="M764 100h0"></path>
<rect x="600" y="89" width="164" height="22" rx="10" ry="10"></rect>
<text x="682" y="104">Token "ParenLeftW"</text>
</g>
<path d="M764 100a10 10 0 0 0 10 -10v-10a10 10 0 0 1 10 -10"></path>
</g>
<path d="M784 70h10"></path>
<g class="terminal">
<path d="M794 70h0"></path>
<path d="M838 70h0"></path>
<rect x="794" y="59" width="44" height="22" rx="10" ry="10"></rect>
<text x="816" y="74">"&#42;"</text>
</g>
<path d="M838 70h10"></path>
<path d="M848 70h10"></path>
<g class="terminal">
<path d="M858 70h0"></path>
<path d="M902 70h0"></path>
<rect x="858" y="59" width="44" height="22" rx="10" ry="10"></rect>
<text x="880" y="74">")"</text>
</g>
</g>
<path d="M902 70a10 10 0 0 0 10 -10v-10a10 10 0 0 1 10 -10"></path>
<path d="M474 40a10 10 0 0 1 10 10v70a10 10 0 0 0 10 10"></path>
<g>
<path d="M494 130h164"></path>
<path d="M738 130h164"></path>
<path d="M658 130h10"></path>
<g class="non-terminal">
<path d="M668 130h0"></path>
<path d="M728 130h0"></path>
<rect x="668" y="119" width="60" height="22"></rect>
<a xlink:href="reuse_field.svg"><text x="698" y="134">field</text>
</a>
</g>
<path d="M728 130h10"></path>
<path d="M668 130a10 10 0 0 0 -10 10v0a10 10 0 0 0 10 10"></path>
<g>
<path d="M668 150h60"></path>
</g>
<path d="M728 150a10 10 0 0 0 10 -10v0a10 10 0 0 0 -10 -10"></path>
</g>
<path d="M902 130a10 10 0 0 0 10 -10v-70a10 10 0 0 1 10 -10"></path>
</g>
<path d="M922 40h10"></path>
<g>
<path d="M932 40h0"></path>
<path d="M1638 40h0"></path>
<path d="M962 40h10"></path>
<g>
<path d="M972 40h71"></path>
<path d="M1537 40h71"></path>
<g class="terminal">
<path d="M1043 40h0"></path>
<path d="M1111 40h0"></path>
<rect x="1043" y="29" width="68" height="22" rx="10" ry="10"></rect>
<text x="1077" y="44">"FROM"</text>
</g>
<path d="M1111 40h10"></path>
<g>
<path d="M1121 40h0"></path>
<path d="M1293 40h0"></path>
<path d="M1121 40h20"></path>
<g class="non-terminal">
<path d="M1141 40h28"></path>
<path d="M1245 40h28"></path>
<rect x="1169" y="29" width="76" height="22"></rect>
<a xlink:href="reuse_dynamic.svg"><text x="1207" y="44">dynamic</text>
</a>
</g>
<path d="M1273 40h20"></path>
<path d="M1121 40a10 10 0 0 1 10 10v10a10 10 0 0 0 10 10"></path>
<g class="non-terminal">
<path d="M1141 70h0"></path>
<path d="M1273 70h0"></path>
<rect x="1141" y="59" width="132" height="22"></rect>
<a xlink:href="reuse_database_table.svg"><text x="1207" y="74">database&#95;table</text>
</a>
</g>
<path d="M1273 70a10 10 0 0 0 10 -10v-10a10 10 0 0 1 10 -10"></path>
</g>
<g>
<path d="M1293 40h0"></path>
<path d="M1537 40h0"></path>
<path d="M1293 40a10 10 0 0 0 10 -10v0a10 10 0 0 1 10 -10"></path>
<g>
<path d="M1313 20h204"></path>
</g>
<path d="M1517 20a10 10 0 0 1 10 10v0a10 10 0 0 0 10 10"></path>
<path d="M1293 40h20"></path>
<g>
<path d="M1313 40h0"></path>
<path d="M1517 40h0"></path>
<g class="terminal">
<path d="M1313 40h0"></path>
<path d="M1365 40h0"></path>
<rect x="1313" y="29" width="52" height="22" rx="10" ry="10"></rect>
<text x="1339" y="44">"AS"</text>
</g>
<path d="M1365 40h10"></path>
<path d="M1375 40h10"></path>
<g class="non-terminal">
<path d="M1385 40h0"></path>
<path d="M1517 40h0"></path>
<rect x="1385" y="29" width="132" height="22"></rect>
<a xlink:href="reuse_database_table.svg"><text x="1451" y="44">database&#95;table</text>
</a>
</g>
</g>
<path d="M1517 40h20"></path>
</g>
</g>
<path d="M1608 40h10"></path>
<path d="M962 40v50a10 10 0 0 0 10 10"></path>
<g>
<path d="M972 100h92"></path>
<path d="M1516 100h92"></path>
<path d="M1064 100h10"></path>
<g>
<path d="M1074 100h0"></path>
<path d="M1506 100h0"></path>
<g class="terminal">
<path d="M1074 100h0"></path>
<path d="M1190 100h0"></path>
<rect x="1074" y="89" width="116" height="22" rx="10" ry="10"></rect>
<text x="1132" y="104">"INNER JOIN"</text>
</g>
<path d="M1190 100h10"></path>
<path d="M1200 100h10"></path>
<g class="non-terminal">
<path d="M1210 100h0"></path>
<path d="M1342 100h0"></path>
<rect x="1210" y="89" width="132" height="22"></rect>
<a xlink:href="reuse_database_table.svg"><text x="1276" y="104">database&#95;table</text>
</a>
</g>
<path d="M1342 100h10"></path>
<path d="M1352 100h10"></path>
<g class="terminal">
<path d="M1362 100h0"></path>
<path d="M1414 100h0"></path>
<rect x="1362" y="89" width="52" height="22" rx="10" ry="10"></rect>
<text x="1388" y="104">"ON"</text>
</g>
<path d="M1414 100h10"></path>
<path d="M1424 100h10"></path>
<g>
<path d="M1434 100h0"></path>
<path d="M1506 100h0"></path>
<path d="M1434 100h10"></path>
<g class="non-terminal">
<path d="M1444 100h0"></path>
<path d="M1496 100h0"></path>
<rect x="1444" y="89" width="52" height="22"></rect>
<a xlink:href="reuse_cond.svg"><text x="1470" y="104">cond</text>
</a>
</g>
<path d="M1496 100h10"></path>
<path d="M1444 100a10 10 0 0 0 -10 10v0a10 10 0 0 0 10 10"></path>
<g>
<path d="M1444 120h52"></path>
</g>
<path d="M1496 120a10 10 0 0 0 10 -10v0a10 10 0 0 0 -10 -10"></path>
</g>
</g>
<path d="M1506 100h10"></path>
<path d="M1074 100a10 10 0 0 0 -10 10v8a10 10 0 0 0 10 10"></path>
<g>
<path d="M1074 128h432"></path>
</g>
<path d="M1506 128a10 10 0 0 0 10 -10v-8a10 10 0 0 0 -10 -10"></path>
</g>
<path d="M1608 100a10 10 0 0 0 10 -10v-50"></path>
<path d="M962 40v106a10 10 0 0 0 10 10"></path>
<g>
<path d="M972 156h0"></path>
<path d="M1608 156h0"></path>
<path d="M972 156h20"></path>
<g>
<path d="M992 156h0"></path>
<path d="M1588 156h0"></path>
<g class="terminal">
<path d="M992 156h0"></path>
<path d="M1060 156h0"></path>
<rect x="992" y="145" width="68" height="22" rx="10" ry="10"></rect>
<text x="1026" y="160">"INTO"</text>
</g>
<path d="M1060 156h10"></path>
<path d="M1070 156h10"></path>
<g class="terminal">
<path d="M1080 156h0"></path>
<path d="M1244 156h0"></path>
<rect x="1080" y="145" width="164" height="22" rx="10" ry="10"></rect>
<text x="1162" y="160">Token "WParenLeft"</text>
</g>
<path d="M1244 156h10"></path>
<g>
<path d="M1254 156h0"></path>
<path d="M1446 156h0"></path>
<path d="M1254 156a10 10 0 0 0 10 -10v0a10 10 0 0 1 10 -10"></path>
<g>
<path d="M1274 136h152"></path>
</g>
<path d="M1426 136a10 10 0 0 1 10 10v0a10 10 0 0 0 10 10"></path>
<path d="M1254 156h20"></path>
<g>
<path d="M1274 156h0"></path>
<path d="M1426 156h0"></path>
<path d="M1274 156h10"></path>
<g>
<path d="M1284 156h0"></path>
<path d="M1416 156h0"></path>
<g class="non-terminal">
<path d="M1284 156h0"></path>
<path d="M1352 156h0"></path>
<rect x="1284" y="145" width="68" height="22"></rect>
<a xlink:href="reuse_target.svg"><text x="1318" y="160">target</text>
</a>
</g>
<path d="M1352 156h10"></path>
<path d="M1362 156h10"></path>
<g class="terminal">
<path d="M1372 156h0"></path>
<path d="M1416 156h0"></path>
<rect x="1372" y="145" width="44" height="22" rx="10" ry="10"></rect>
<text x="1394" y="160">","</text>
</g>
</g>
<path d="M1416 156h10"></path>
<path d="M1284 156a10 10 0 0 0 -10 10v0a10 10 0 0 0 10 10"></path>
<g>
<path d="M1284 176h132"></path>
</g>
<path d="M1416 176a10 10 0 0 0 10 -10v0a10 10 0 0 0 -10 -10"></path>
</g>
<path d="M1426 156h20"></path>
</g>
<path d="M1446 156h10"></path>
<g class="non-terminal">
<path d="M1456 156h0"></path>
<path d="M1524 156h0"></path>
<rect x="1456" y="145" width="68" height="22"></rect>
<a xlink:href="reuse_target.svg"><text x="1490" y="160">target</text>
</a>
</g>
<path d="M1524 156h10"></path>
<path d="M1534 156h10"></path>
<g class="terminal">
<path d="M1544 156h0"></path>
<path d="M1588 156h0"></path>
<rect x="1544" y="145" width="44" height="22" rx="10" ry="10"></rect>
<text x="1566" y="160">")"</text>
</g>
</g>
<path d="M1588 156h20"></path>
<path d="M972 156a10 10 0 0 1 10 10v28a10 10 0 0 0 10 10"></path>
<g>
<path d="M992 204h7"></path>
<path d="M1581 204h7"></path>
<g>
<path d="M999 204h0"></path>
<path d="M1147 204h0"></path>
<path d="M999 204h20"></path>
<g class="terminal">
<path d="M1019 204h20"></path>
<path d="M1107 204h20"></path>
<rect x="1039" y="193" width="68" height="22" rx="10" ry="10"></rect>
<text x="1073" y="208">"INTO"</text>
</g>
<path d="M1127 204h20"></path>
<path d="M999 204a10 10 0 0 1 10 10v10a10 10 0 0 0 10 10"></path>
<g class="terminal">
<path d="M1019 234h0"></path>
<path d="M1127 234h0"></path>
<rect x="1019" y="223" width="108" height="22" rx="10" ry="10"></rect>
<text x="1073" y="238">"APPENDING"</text>
</g>
<path d="M1127 234a10 10 0 0 0 10 -10v-10a10 10 0 0 1 10 -10"></path>
</g>
<g>
<path d="M1147 204h0"></path>
<path d="M1407 204h0"></path>
<path d="M1147 204a10 10 0 0 0 10 -10v0a10 10 0 0 1 10 -10"></path>
<g>
<path d="M1167 184h220"></path>
</g>
<path d="M1387 184a10 10 0 0 1 10 10v0a10 10 0 0 0 10 10"></path>
<path d="M1147 204h20"></path>
<g class="terminal">
<path d="M1167 204h0"></path>
<path d="M1387 204h0"></path>
<rect x="1167" y="193" width="220" height="22" rx="10" ry="10"></rect>
<text x="1277" y="208">"CORRESPONDING FIELDS OF"</text>
</g>
<path d="M1387 204h20"></path>
</g>
<path d="M1407 204h10"></path>
<g class="terminal">
<path d="M1417 204h0"></path>
<path d="M1493 204h0"></path>
<rect x="1417" y="193" width="76" height="22" rx="10" ry="10"></rect>
<text x="1455" y="208">"TABLE"</text>
</g>
<path d="M1493 204h10"></path>
<path d="M1503 204h10"></path>
<g class="non-terminal">
<path d="M1513 204h0"></path>
<path d="M1581 204h0"></path>
<rect x="1513" y="193" width="68" height="22"></rect>
<a xlink:href="reuse_target.svg"><text x="1547" y="208">target</text>
</a>
</g>
</g>
<path d="M1588 204a10 10 0 0 0 10 -10v-28a10 10 0 0 1 10 -10"></path>
<path d="M972 156a10 10 0 0 1 10 10v97a10 10 0 0 0 10 10"></path>
<g>
<path d="M992 273h90"></path>
<path d="M1498 273h90"></path>
<g class="terminal">
<path d="M1082 273h0"></path>
<path d="M1150 273h0"></path>
<rect x="1082" y="262" width="68" height="22" rx="10" ry="10"></rect>
<text x="1116" y="277">"INTO"</text>
</g>
<path d="M1150 273h10"></path>
<g>
<path d="M1160 273h0"></path>
<path d="M1420 273h0"></path>
<path d="M1160 273a10 10 0 0 0 10 -10v0a10 10 0 0 1 10 -10"></path>
<g>
<path d="M1180 253h220"></path>
</g>
<path d="M1400 253a10 10 0 0 1 10 10v0a10 10 0 0 0 10 10"></path>
<path d="M1160 273h20"></path>
<g class="terminal">
<path d="M1180 273h0"></path>
<path d="M1400 273h0"></path>
<rect x="1180" y="262" width="220" height="22" rx="10" ry="10"></rect>
<text x="1290" y="277">"CORRESPONDING FIELDS OF"</text>
</g>
<path d="M1400 273h20"></path>
</g>
<path d="M1420 273h10"></path>
<g class="non-terminal">
<path d="M1430 273h0"></path>
<path d="M1498 273h0"></path>
<rect x="1430" y="262" width="68" height="22"></rect>
<a xlink:href="reuse_target.svg"><text x="1464" y="277">target</text>
</a>
</g>
</g>
<path d="M1588 273a10 10 0 0 0 10 -10v-97a10 10 0 0 1 10 -10"></path>
</g>
<path d="M1608 156a10 10 0 0 0 10 -10v-106"></path>
<path d="M962 40v253a10 10 0 0 0 10 10"></path>
<g>
<path d="M972 303h184"></path>
<path d="M1424 303h184"></path>
<g class="terminal">
<path d="M1156 303h0"></path>
<path d="M1336 303h0"></path>
<rect x="1156" y="292" width="180" height="22" rx="10" ry="10"></rect>
<text x="1246" y="307">"FOR ALL ENTRIES IN"</text>
</g>
<path d="M1336 303h10"></path>
<path d="M1346 303h10"></path>
<g class="non-terminal">
<path d="M1356 303h0"></path>
<path d="M1424 303h0"></path>
<rect x="1356" y="292" width="68" height="22"></rect>
<a xlink:href="reuse_source.svg"><text x="1390" y="307">source</text>
</a>
</g>
</g>
<path d="M1608 303a10 10 0 0 0 10 -10v-253"></path>
<path d="M962 40v283a10 10 0 0 0 10 10"></path>
<g>
<path d="M972 333h217"></path>
<path d="M1391 333h217"></path>
<g class="terminal">
<path d="M1189 333h0"></path>
<path d="M1265 333h0"></path>
<rect x="1189" y="322" width="76" height="22" rx="10" ry="10"></rect>
<text x="1227" y="337">"WHERE"</text>
</g>
<path d="M1265 333h10"></path>
<g>
<path d="M1275 333h0"></path>
<path d="M1391 333h0"></path>
<path d="M1275 333h20"></path>
<g class="non-terminal">
<path d="M1295 333h12"></path>
<path d="M1359 333h12"></path>
<rect x="1307" y="322" width="52" height="22"></rect>
<a xlink:href="reuse_cond.svg"><text x="1333" y="337">cond</text>
</a>
</g>
<path d="M1371 333h20"></path>
<path d="M1275 333a10 10 0 0 1 10 10v10a10 10 0 0 0 10 10"></path>
<g class="non-terminal">
<path d="M1295 363h0"></path>
<path d="M1371 363h0"></path>
<rect x="1295" y="352" width="76" height="22"></rect>
<a xlink:href="reuse_dynamic.svg"><text x="1333" y="367">dynamic</text>
</a>
</g>
<path d="M1371 363a10 10 0 0 0 10 -10v-10a10 10 0 0 1 10 -10"></path>
</g>
</g>
<path d="M1608 333a10 10 0 0 0 10 -10v-283"></path>
<path d="M962 40v343a10 10 0 0 0 10 10"></path>
<g>
<path d="M972 393h181"></path>
<path d="M1427 393h181"></path>
<g class="terminal">
<path d="M1153 393h0"></path>
<path d="M1253 393h0"></path>
<rect x="1153" y="382" width="100" height="22" rx="10" ry="10"></rect>
<text x="1203" y="397">"ORDER BY"</text>
</g>
<path d="M1253 393h10"></path>
<g>
<path d="M1263 393h0"></path>
<path d="M1427 393h0"></path>
<path d="M1263 393h20"></path>
<g>
<path d="M1283 393h22"></path>
<path d="M1385 393h22"></path>
<path d="M1305 393h10"></path>
<g class="non-terminal">
<path d="M1315 393h0"></path>
<path d="M1375 393h0"></path>
<rect x="1315" y="382" width="60" height="22"></rect>
<a xlink:href="reuse_field.svg"><text x="1345" y="397">field</text>
</a>
</g>
<path d="M1375 393h10"></path>
<path d="M1315 393a10 10 0 0 0 -10 10v0a10 10 0 0 0 10 10"></path>
<g>
<path d="M1315 413h60"></path>
</g>
<path d="M1375 413a10 10 0 0 0 10 -10v0a10 10 0 0 0 -10 -10"></path>
</g>
<path d="M1407 393h20"></path>
<path d="M1263 393a10 10 0 0 1 10 10v19a10 10 0 0 0 10 10"></path>
<g class="terminal">
<path d="M1283 432h0"></path>
<path d="M1407 432h0"></path>
<rect x="1283" y="421" width="124" height="22" rx="10" ry="10"></rect>
<text x="1345" y="436">"PRIMARY KEY"</text>
</g>
<path d="M1407 432a10 10 0 0 0 10 -10v-19a10 10 0 0 1 10 -10"></path>
<path d="M1263 393a10 10 0 0 1 10 10v49a10 10 0 0 0 10 10"></path>
<g class="non-terminal">
<path d="M1283 462h24"></path>
<path d="M1383 462h24"></path>
<rect x="1307" y="451" width="76" height="22"></rect>
<a xlink:href="reuse_dynamic.svg"><text x="1345" y="466">dynamic</text>
</a>
</g>
<path d="M1407 462a10 10 0 0 0 10 -10v-49a10 10 0 0 1 10 -10"></path>
</g>
</g>
<path d="M1608 393a10 10 0 0 0 10 -10v-343"></path>
<path d="M962 40v442a10 10 0 0 0 10 10"></path>
<g>
<path d="M972 492h192"></path>
<path d="M1416 492h192"></path>
<g class="terminal">
<path d="M1164 492h0"></path>
<path d="M1240 492h0"></path>
<rect x="1164" y="481" width="76" height="22" rx="10" ry="10"></rect>
<text x="1202" y="496">"UP TO"</text>
</g>
<path d="M1240 492h10"></path>
<path d="M1250 492h10"></path>
<g class="non-terminal">
<path d="M1260 492h0"></path>
<path d="M1328 492h0"></path>
<rect x="1260" y="481" width="68" height="22"></rect>
<a xlink:href="reuse_source.svg"><text x="1294" y="496">source</text>
</a>
</g>
<path d="M1328 492h10"></path>
<path d="M1338 492h10"></path>
<g class="terminal">
<path d="M1348 492h0"></path>
<path d="M1416 492h0"></path>
<rect x="1348" y="481" width="68" height="22" rx="10" ry="10"></rect>
<text x="1382" y="496">"ROWS"</text>
</g>
</g>
<path d="M1608 492a10 10 0 0 0 10 -10v-442"></path>
<g class="diagram-text">
<title>take one or more branches, once each, in any order</title>
<path d="M 962 30 h -26 a 4 4 0 0 0 -4 4 v 12 a 4 4 0 0 0 4 4 h 26 z" class="diagram-text"></path>
<text x="947" y="44" class="diagram-text">1+</text>
<path d="M 1618 30 h 16 a 4 4 0 0 1 4 4 v 12 a 4 4 0 0 1 -4 4 h -16 z" class="diagram-text"></path>
<path d="M 1625 38 a 4 4 0 1 0 6 -1 m 2.75 -1 h -4 v 4 m 0 -3 h 2" style="stroke-width: 1.75"></path>
</g>
</g>
</g>
<path d="M1638 40h10"></path>
<path d="M 1648 40 h 20 m -10 -10 v 20 m 10 -20 v 20"></path>
</g>
</svg>
