<svg xmlns="http://www.w3.org/2000/svg" xmlns:xlink="http://www.w3.org/1999/xlink" class="railroad-diagram" width="890" height="281" viewBox="0 0 890 281">
<defs>
<style type="text/css"><![CDATA[
path {
stroke-width: 3;
stroke: black;
fill: rgba(0,0,0,0);
}
text {
font: bold 14px monospace;
text-anchor: middle;
}
text.diagram-text {
font-size: 12px;
}
a {
fill: blue;
}
text.diagram-arrow {
font-size: 16px;
}
text.label {
text-anchor: start;
}
text.comment {
font: italic 12px monospace;
}
rect {
stroke-width: 3;
stroke: black;
fill: #BCBCBC;
}
path.diagram-text {
stroke-width: 3;
stroke: black;
fill: #BCBCBC;
cursor: help;
}
]]></style>
</defs>
<g transform="translate(.5 .5)">
<path d="M 20 30 v 20 m 10 -20 v 20 m -10 -10 h 20.5"></path>
<path d="M40 40h10"></path>
<g>
<path d="M50 40h0"></path>
<path d="M840 40h0"></path>
<g class="terminal">
<path d="M50 40h0"></path>
<path d="M198 40h0"></path>
<rect x="50" y="29" width="148" height="22" rx="10" ry="10"></rect>
<text x="124" y="44">"SELECT-OPTIONS"</text>
</g>
<path d="M198 40h10"></path>
<path d="M208 40h10"></path>
<g class="non-terminal">
<path d="M218 40h0"></path>
<path d="M278 40h0"></path>
<rect x="218" y="29" width="60" height="22"></rect>
<a xlink:href="reuse_field.svg"><text x="248" y="44">field</text>
</a>
</g>
<path d="M278 40h10"></path>
<path d="M288 40h10"></path>
<g class="terminal">
<path d="M298 40h0"></path>
<path d="M358 40h0"></path>
<rect x="298" y="29" width="60" height="22" rx="10" ry="10"></rect>
<text x="328" y="44">"FOR"</text>
</g>
<path d="M358 40h10"></path>
<path d="M368 40h10"></path>
<g class="non-terminal">
<path d="M378 40h0"></path>
<path d="M470 40h0"></path>
<rect x="378" y="29" width="92" height="22"></rect>
<a xlink:href="reuse_field_sub.svg"><text x="424" y="44">field&#95;sub</text>
</a>
</g>
<path d="M470 40h10"></path>
<g>
<path d="M480 40h0"></path>
<path d="M840 40h0"></path>
<path d="M480 40a10 10 0 0 0 10 -10v0a10 10 0 0 1 10 -10"></path>
<g>
<path d="M500 20h320"></path>
</g>
<path d="M820 20a10 10 0 0 1 10 10v0a10 10 0 0 0 10 10"></path>
<path d="M480 40h20"></path>
<g>
<path d="M500 40h0"></path>
<path d="M820 40h0"></path>
<path d="M530 40h10"></path>
<g>
<path d="M540 40h0"></path>
<path d="M790 40h0"></path>
<g class="terminal">
<path d="M540 40h0"></path>
<path d="M632 40h0"></path>
<rect x="540" y="29" width="92" height="22" rx="10" ry="10"></rect>
<text x="586" y="44">"DEFAULT"</text>
</g>
<path d="M632 40h10"></path>
<g>
<path d="M642 40h0"></path>
<path d="M790 40h0"></path>
<path d="M642 40h20"></path>
<g class="non-terminal">
<path d="M662 40h0"></path>
<path d="M746 40h24"></path>
<rect x="662" y="29" width="84" height="22"></rect>
<a xlink:href="reuse_constant.svg"><text x="704" y="44">constant</text>
</a>
</g>
<path d="M770 40h20"></path>
<path d="M642 40a10 10 0 0 1 10 10v10a10 10 0 0 0 10 10"></path>
<g class="non-terminal">
<path d="M662 70h0"></path>
<path d="M770 70h0"></path>
<rect x="662" y="59" width="108" height="22"></rect>
<a xlink:href="reuse_field_chain.svg"><text x="716" y="74">field&#95;chain</text>
</a>
</g>
<path d="M770 70a10 10 0 0 0 10 -10v-10a10 10 0 0 1 10 -10"></path>
</g>
</g>
<path d="M790 40h10"></path>
<path d="M530 40v50a10 10 0 0 0 10 10"></path>
<g>
<path d="M540 100h0"></path>
<path d="M704 100h86"></path>
<g class="terminal">
<path d="M540 100h0"></path>
<path d="M624 100h0"></path>
<rect x="540" y="89" width="84" height="22" rx="10" ry="10"></rect>
<text x="582" y="104">"OPTION"</text>
</g>
<path d="M624 100h10"></path>
<path d="M634 100h10"></path>
<g class="non-terminal">
<path d="M644 100h0"></path>
<path d="M704 100h0"></path>
<rect x="644" y="89" width="60" height="22"></rect>
<a xlink:href="reuse_field.svg"><text x="674" y="104">field</text>
</a>
</g>
</g>
<path d="M790 100a10 10 0 0 0 10 -10v-50"></path>
<path d="M530 40v80a10 10 0 0 0 10 10"></path>
<g>
<path d="M540 130h0"></path>
<path d="M728 130h62"></path>
<g class="terminal">
<path d="M540 130h0"></path>
<path d="M648 130h0"></path>
<rect x="540" y="119" width="108" height="22" rx="10" ry="10"></rect>
<text x="594" y="134">"MEMORY ID"</text>
</g>
<path d="M648 130h10"></path>
<path d="M658 130h10"></path>
<g class="non-terminal">
<path d="M668 130h0"></path>
<path d="M728 130h0"></path>
<rect x="668" y="119" width="60" height="22"></rect>
<a xlink:href="reuse_field.svg"><text x="698" y="134">field</text>
</a>
</g>
</g>
<path d="M790 130a10 10 0 0 0 10 -10v-80"></path>
<path d="M530 40v110a10 10 0 0 0 10 10"></path>
<g>
<path d="M540 160h0"></path>
<path d="M784 160h6"></path>
<g class="terminal">
<path d="M540 160h0"></path>
<path d="M704 160h0"></path>
<rect x="540" y="149" width="164" height="22" rx="10" ry="10"></rect>
<text x="622" y="164">"MATCHCODE OBJECT"</text>
</g>
<path d="M704 160h10"></path>
<path d="M714 160h10"></path>
<g class="non-terminal">
<path d="M724 160h0"></path>
<path d="M784 160h0"></path>
<rect x="724" y="149" width="60" height="22"></rect>
<a xlink:href="reuse_field.svg"><text x="754" y="164">field</text>
</a>
</g>
</g>
<path d="M790 160a10 10 0 0 0 10 -10v-110"></path>
<path d="M530 40v140a10 10 0 0 0 10 10"></path>
<g class="terminal">
<path d="M540 190h0"></path>
<path d="M672 190h118"></path>
<rect x="540" y="179" width="132" height="22" rx="10" ry="10"></rect>
<text x="606" y="194">"NO-EXTENSION"</text>
</g>
<path d="M790 190a10 10 0 0 0 10 -10v-140"></path>
<path d="M530 40v170a10 10 0 0 0 10 10"></path>
<g class="terminal">
<path d="M540 220h0"></path>
<path d="M672 220h118"></path>
<rect x="540" y="209" width="132" height="22" rx="10" ry="10"></rect>
<text x="606" y="224">"NO INTERVALS"</text>
</g>
<path d="M790 220a10 10 0 0 0 10 -10v-170"></path>
<path d="M530 40v200a10 10 0 0 0 10 10"></path>
<g class="terminal">
<path d="M540 250h0"></path>
<path d="M656 250h134"></path>
<rect x="540" y="239" width="116" height="22" rx="10" ry="10"></rect>
<text x="598" y="254">"OBLIGATORY"</text>
</g>
<path d="M790 250a10 10 0 0 0 10 -10v-200"></path>
<g class="diagram-text">
<title>take one or more branches, once each, in any order</title>
<path d="M 530 30 h -26 a 4 4 0 0 0 -4 4 v 12 a 4 4 0 0 0 4 4 h 26 z" class="diagram-text"></path>
<text x="515" y="44" class="diagram-text">1+</text>
<path d="M 800 30 h 16 a 4 4 0 0 1 4 4 v 12 a 4 4 0 0 1 -4 4 h -16 z" class="diagram-text"></path>
<path d="M 807 38 a 4 4 0 1 0 6 -1 m 2.75 -1 h -4 v 4 m 0 -3 h 2" style="stroke-width: 1.75"></path>
</g>
</g>
<path d="M820 40h20"></path>
</g>
</g>
<path d="M840 40h10"></path>
<path d="M 850 40 h 20 m -10 -10 v 20 m 10 -20 v 20"></path>
</g>
</svg>
