<svg xmlns="http://www.w3.org/2000/svg" xmlns:xlink="http://www.w3.org/1999/xlink" class="railroad-diagram" width="896" height="341" viewBox="0 0 896 341">
<defs>
<style type="text/css"><![CDATA[
path {
stroke-width: 3;
stroke: black;
fill: rgba(0,0,0,0);
}
text {
font: bold 14px monospace;
text-anchor: middle;
}
text.diagram-text {
font-size: 12px;
}
a {
fill: blue;
}
text.diagram-arrow {
font-size: 16px;
}
text.label {
text-anchor: start;
}
text.comment {
font: italic 12px monospace;
}
rect {
stroke-width: 3;
stroke: black;
fill: #BCBCBC;
}
path.diagram-text {
stroke-width: 3;
stroke: black;
fill: #BCBCBC;
cursor: help;
}
]]></style>
</defs>
<g transform="translate(.5 .5)">
<path d="M 20 30 v 20 m 10 -20 v 20 m -10 -10 h 20.5"></path>
<path d="M40 40h10"></path>
<g>
<path d="M50 40h0"></path>
<path d="M846 40h0"></path>
<g class="terminal">
<path d="M50 40h0"></path>
<path d="M198 40h0"></path>
<rect x="50" y="29" width="148" height="22" rx="10" ry="10"></rect>
<text x="124" y="44">"SELECT-OPTIONS"</text>
</g>
<path d="M198 40h10"></path>
<path d="M208 40h10"></path>
<g class="non-terminal">
<path d="M218 40h0"></path>
<path d="M278 40h0"></path>
<rect x="218" y="29" width="60" height="22"></rect>
<a xlink:href="reuse_field.svg"><text x="248" y="44">Field</text>
</a>
</g>
<path d="M278 40h10"></path>
<path d="M288 40h10"></path>
<g class="terminal">
<path d="M298 40h0"></path>
<path d="M358 40h0"></path>
<rect x="298" y="29" width="60" height="22" rx="10" ry="10"></rect>
<text x="328" y="44">"FOR"</text>
</g>
<path d="M358 40h10"></path>
<g>
<path d="M368 40h0"></path>
<path d="M492 40h0"></path>
<path d="M368 40h20"></path>
<g class="non-terminal">
<path d="M388 40h0"></path>
<path d="M472 40h0"></path>
<rect x="388" y="29" width="84" height="22"></rect>
<a xlink:href="reuse_fieldsub.svg"><text x="430" y="44">FieldSub</text>
</a>
</g>
<path d="M472 40h20"></path>
<path d="M368 40a10 10 0 0 1 10 10v10a10 10 0 0 0 10 10"></path>
<g class="non-terminal">
<path d="M388 70h0"></path>
<path d="M464 70h8"></path>
<rect x="388" y="59" width="76" height="22"></rect>
<a xlink:href="reuse_dynamic.svg"><text x="426" y="74">Dynamic</text>
</a>
</g>
<path d="M472 70a10 10 0 0 0 10 -10v-10a10 10 0 0 1 10 -10"></path>
</g>
<g>
<path d="M492 40h0"></path>
<path d="M846 40h0"></path>
<path d="M492 40a10 10 0 0 0 10 -10v0a10 10 0 0 1 10 -10"></path>
<g>
<path d="M512 20h314"></path>
</g>
<path d="M826 20a10 10 0 0 1 10 10v0a10 10 0 0 0 10 10"></path>
<path d="M492 40h20"></path>
<g>
<path d="M512 40h0"></path>
<path d="M826 40h0"></path>
<path d="M542 40h10"></path>
<g>
<path d="M552 40h0"></path>
<path d="M794 40h2"></path>
<g class="terminal">
<path d="M552 40h0"></path>
<path d="M644 40h0"></path>
<rect x="552" y="29" width="92" height="22" rx="10" ry="10"></rect>
<text x="598" y="44">"DEFAULT"</text>
</g>
<path d="M644 40h10"></path>
<g>
<path d="M654 40h0"></path>
<path d="M794 40h0"></path>
<path d="M654 40h20"></path>
<g class="non-terminal">
<path d="M674 40h0"></path>
<path d="M758 40h16"></path>
<rect x="674" y="29" width="84" height="22"></rect>
<a xlink:href="reuse_constant.svg"><text x="716" y="44">Constant</text>
</a>
</g>
<path d="M774 40h20"></path>
<path d="M654 40a10 10 0 0 1 10 10v10a10 10 0 0 0 10 10"></path>
<g class="non-terminal">
<path d="M674 70h0"></path>
<path d="M774 70h0"></path>
<rect x="674" y="59" width="100" height="22"></rect>
<a xlink:href="reuse_fieldchain.svg"><text x="724" y="74">FieldChain</text>
</a>
</g>
<path d="M774 70a10 10 0 0 0 10 -10v-10a10 10 0 0 1 10 -10"></path>
</g>
</g>
<path d="M796 40h10"></path>
<path d="M542 40v50a10 10 0 0 0 10 10"></path>
<g>
<path d="M552 100h0"></path>
<path d="M716 100h80"></path>
<g class="terminal">
<path d="M552 100h0"></path>
<path d="M636 100h0"></path>
<rect x="552" y="89" width="84" height="22" rx="10" ry="10"></rect>
<text x="594" y="104">"OPTION"</text>
</g>
<path d="M636 100h10"></path>
<path d="M646 100h10"></path>
<g class="non-terminal">
<path d="M656 100h0"></path>
<path d="M716 100h0"></path>
<rect x="656" y="89" width="60" height="22"></rect>
<a xlink:href="reuse_field.svg"><text x="686" y="104">Field</text>
</a>
</g>
</g>
<path d="M796 100a10 10 0 0 0 10 -10v-50"></path>
<path d="M542 40v80a10 10 0 0 0 10 10"></path>
<g>
<path d="M552 130h0"></path>
<path d="M740 130h56"></path>
<g class="terminal">
<path d="M552 130h0"></path>
<path d="M660 130h0"></path>
<rect x="552" y="119" width="108" height="22" rx="10" ry="10"></rect>
<text x="606" y="134">"MEMORY ID"</text>
</g>
<path d="M660 130h10"></path>
<path d="M670 130h10"></path>
<g class="non-terminal">
<path d="M680 130h0"></path>
<path d="M740 130h0"></path>
<rect x="680" y="119" width="60" height="22"></rect>
<a xlink:href="reuse_field.svg"><text x="710" y="134">Field</text>
</a>
</g>
</g>
<path d="M796 130a10 10 0 0 0 10 -10v-80"></path>
<path d="M542 40v110a10 10 0 0 0 10 10"></path>
<g>
<path d="M552 160h0"></path>
<path d="M796 160h0"></path>
<g class="terminal">
<path d="M552 160h0"></path>
<path d="M716 160h0"></path>
<rect x="552" y="149" width="164" height="22" rx="10" ry="10"></rect>
<text x="634" y="164">"MATCHCODE OBJECT"</text>
</g>
<path d="M716 160h10"></path>
<path d="M726 160h10"></path>
<g class="non-terminal">
<path d="M736 160h0"></path>
<path d="M796 160h0"></path>
<rect x="736" y="149" width="60" height="22"></rect>
<a xlink:href="reuse_field.svg"><text x="766" y="164">Field</text>
</a>
</g>
</g>
<path d="M796 160a10 10 0 0 0 10 -10v-110"></path>
<path d="M542 40v140a10 10 0 0 0 10 10"></path>
<g>
<path d="M552 190h0"></path>
<path d="M788 190h8"></path>
<g class="terminal">
<path d="M552 190h0"></path>
<path d="M700 190h0"></path>
<rect x="552" y="179" width="148" height="22" rx="10" ry="10"></rect>
<text x="626" y="194">"VISIBLE LENGTH"</text>
</g>
<path d="M700 190h10"></path>
<path d="M710 190h10"></path>
<g class="non-terminal">
<path d="M720 190h0"></path>
<path d="M788 190h0"></path>
<rect x="720" y="179" width="68" height="22"></rect>
<a xlink:href="reuse_source.svg"><text x="754" y="194">Source</text>
</a>
</g>
</g>
<path d="M796 190a10 10 0 0 0 10 -10v-140"></path>
<path d="M542 40v170a10 10 0 0 0 10 10"></path>
<g>
<path d="M552 220h0"></path>
<path d="M732 220h64"></path>
<g class="terminal">
<path d="M552 220h0"></path>
<path d="M652 220h0"></path>
<rect x="552" y="209" width="100" height="22" rx="10" ry="10"></rect>
<text x="602" y="224">"MODIF ID"</text>
</g>
<path d="M652 220h10"></path>
<path d="M662 220h10"></path>
<g class="non-terminal">
<path d="M672 220h0"></path>
<path d="M732 220h0"></path>
<rect x="672" y="209" width="60" height="22"></rect>
<a xlink:href="reuse_field.svg"><text x="702" y="224">Field</text>
</a>
</g>
</g>
<path d="M796 220a10 10 0 0 0 10 -10v-170"></path>
<path d="M542 40v200a10 10 0 0 0 10 10"></path>
<g class="terminal">
<path d="M552 250h0"></path>
<path d="M684 250h112"></path>
<rect x="552" y="239" width="132" height="22" rx="10" ry="10"></rect>
<text x="618" y="254">"NO-EXTENSION"</text>
</g>
<path d="M796 250a10 10 0 0 0 10 -10v-200"></path>
<path d="M542 40v230a10 10 0 0 0 10 10"></path>
<g class="terminal">
<path d="M552 280h0"></path>
<path d="M684 280h112"></path>
<rect x="552" y="269" width="132" height="22" rx="10" ry="10"></rect>
<text x="618" y="284">"NO INTERVALS"</text>
</g>
<path d="M796 280a10 10 0 0 0 10 -10v-230"></path>
<path d="M542 40v260a10 10 0 0 0 10 10"></path>
<g class="terminal">
<path d="M552 310h0"></path>
<path d="M668 310h128"></path>
<rect x="552" y="299" width="116" height="22" rx="10" ry="10"></rect>
<text x="610" y="314">"OBLIGATORY"</text>
</g>
<path d="M796 310a10 10 0 0 0 10 -10v-260"></path>
<g class="diagram-text">
<title>take one or more branches, once each, in any order</title>
<path d="M 542 30 h -26 a 4 4 0 0 0 -4 4 v 12 a 4 4 0 0 0 4 4 h 26 z" class="diagram-text"></path>
<text x="527" y="44" class="diagram-text">1+</text>
<path d="M 806 30 h 16 a 4 4 0 0 1 4 4 v 12 a 4 4 0 0 1 -4 4 h -16 z" class="diagram-text"></path>
<path d="M 813 38 a 4 4 0 1 0 6 -1 m 2.75 -1 h -4 v 4 m 0 -3 h 2" style="stroke-width: 1.75"></path>
</g>
</g>
<path d="M826 40h20"></path>
</g>
</g>
<path d="M846 40h10"></path>
<path d="M 856 40 h 20 m -10 -10 v 20 m 10 -20 v 20"></path>
</g>
</svg>
