<svg xmlns="http://www.w3.org/2000/svg" xmlns:xlink="http://www.w3.org/1999/xlink" class="railroad-diagram" width="1222" height="548" viewBox="0 0 1222 548">
<defs>
<style type="text/css"><![CDATA[
path {
stroke-width: 3;
stroke: black;
fill: rgba(0,0,0,0);
}
text {
font: bold 14px monospace;
text-anchor: middle;
}
text.diagram-text {
font-size: 12px;
}
a {
fill: blue;
}
text.diagram-arrow {
font-size: 16px;
}
text.label {
text-anchor: start;
}
text.comment {
font: italic 12px monospace;
}
rect {
stroke-width: 3;
stroke: black;
fill: #BCBCBC;
}
path.diagram-text {
stroke-width: 3;
stroke: black;
fill: #BCBCBC;
cursor: help;
}
]]></style>
</defs>
<g transform="translate(.5 .5)">
<path d="M 20 30 v 20 m 10 -20 v 20 m -10 -10 h 20.5"></path>
<path d="M40 40h10"></path>
<g>
<path d="M50 40h0"></path>
<path d="M1172 40h0"></path>
<g class="terminal">
<path d="M50 40h0"></path>
<path d="M214 40h0"></path>
<rect x="50" y="29" width="164" height="22" rx="10" ry="10"></rect>
<text x="132" y="44">"SELECTION-SCREEN"</text>
</g>
<path d="M214 40h10"></path>
<g>
<path d="M224 40h0"></path>
<path d="M1172 40h0"></path>
<path d="M224 40h20"></path>
<g>
<path d="M244 40h0"></path>
<path d="M1152 40h0"></path>
<g class="terminal">
<path d="M244 40h0"></path>
<path d="M336 40h0"></path>
<rect x="244" y="29" width="92" height="22" rx="10" ry="10"></rect>
<text x="290" y="44">"COMMENT"</text>
</g>
<path d="M336 40h10"></path>
<g>
<path d="M346 40h0"></path>
<path d="M470 40h0"></path>
<path d="M346 40a10 10 0 0 0 10 -10v0a10 10 0 0 1 10 -10"></path>
<g>
<path d="M366 20h84"></path>
</g>
<path d="M450 20a10 10 0 0 1 10 10v0a10 10 0 0 0 10 10"></path>
<path d="M346 40h20"></path>
<g class="terminal">
<path d="M366 40h0"></path>
<path d="M450 40h0"></path>
<rect x="366" y="29" width="84" height="22" rx="10" ry="10"></rect>
<text x="408" y="44">^\/?\d+$</text>
</g>
<path d="M450 40h20"></path>
</g>
<g>
<path d="M470 40h0"></path>
<path d="M570 40h0"></path>
<path d="M470 40h20"></path>
<g class="terminal">
<path d="M490 40h0"></path>
<path d="M542 40h8"></path>
<rect x="490" y="29" width="52" height="22" rx="10" ry="10"></rect>
<text x="516" y="44">!"("</text>
</g>
<path d="M550 40h20"></path>
<path d="M470 40a10 10 0 0 1 10 10v10a10 10 0 0 0 10 10"></path>
<g class="terminal">
<path d="M490 70h0"></path>
<path d="M550 70h0"></path>
<rect x="490" y="59" width="60" height="22" rx="10" ry="10"></rect>
<text x="520" y="74">!" ("</text>
</g>
<path d="M550 70a10 10 0 0 0 10 -10v-10a10 10 0 0 1 10 -10"></path>
</g>
<path d="M570 40h10"></path>
<g class="non-terminal">
<path d="M580 40h0"></path>
<path d="M656 40h0"></path>
<rect x="580" y="29" width="76" height="22"></rect>
<a xlink:href="reuse_integer.svg"><text x="618" y="44">Integer</text>
</a>
</g>
<path d="M656 40h10"></path>
<path d="M666 40h10"></path>
<g class="terminal">
<path d="M676 40h0"></path>
<path d="M736 40h0"></path>
<rect x="676" y="29" width="60" height="22" rx="10" ry="10"></rect>
<text x="706" y="44">!") "</text>
</g>
<path d="M736 40h10"></path>
<g>
<path d="M746 40h0"></path>
<path d="M854 40h0"></path>
<path d="M746 40a10 10 0 0 0 10 -10v0a10 10 0 0 1 10 -10"></path>
<g>
<path d="M766 20h68"></path>
</g>
<path d="M834 20a10 10 0 0 1 10 10v0a10 10 0 0 0 10 10"></path>
<path d="M746 40h20"></path>
<g class="non-terminal">
<path d="M766 40h0"></path>
<path d="M834 40h0"></path>
<rect x="766" y="29" width="68" height="22"></rect>
<a xlink:href="reuse_source.svg"><text x="800" y="44">Source</text>
</a>
</g>
<path d="M834 40h20"></path>
</g>
<g>
<path d="M854 40h0"></path>
<path d="M1152 40h0"></path>
<path d="M854 40a10 10 0 0 0 10 -10v0a10 10 0 0 1 10 -10"></path>
<g>
<path d="M874 20h258"></path>
</g>
<path d="M1132 20a10 10 0 0 1 10 10v0a10 10 0 0 0 10 10"></path>
<path d="M854 40h20"></path>
<g>
<path d="M874 40h0"></path>
<path d="M1132 40h0"></path>
<path d="M904 40h10"></path>
<g>
<path d="M914 40h0"></path>
<path d="M1102 40h0"></path>
<g class="terminal">
<path d="M914 40h0"></path>
<path d="M1022 40h0"></path>
<rect x="914" y="29" width="108" height="22" rx="10" ry="10"></rect>
<text x="968" y="44">"FOR FIELD"</text>
</g>
<path d="M1022 40h10"></path>
<path d="M1032 40h10"></path>
<g class="non-terminal">
<path d="M1042 40h0"></path>
<path d="M1102 40h0"></path>
<rect x="1042" y="29" width="60" height="22"></rect>
<a xlink:href="reuse_field.svg"><text x="1072" y="44">Field</text>
</a>
</g>
</g>
<path d="M1102 40h10"></path>
<path d="M904 40v20a10 10 0 0 0 10 10"></path>
<g>
<path d="M914 70h0"></path>
<path d="M1094 70h8"></path>
<g class="terminal">
<path d="M914 70h0"></path>
<path d="M1014 70h0"></path>
<rect x="914" y="59" width="100" height="22" rx="10" ry="10"></rect>
<text x="964" y="74">"MODIF ID"</text>
</g>
<path d="M1014 70h10"></path>
<path d="M1024 70h10"></path>
<g class="non-terminal">
<path d="M1034 70h0"></path>
<path d="M1094 70h0"></path>
<rect x="1034" y="59" width="60" height="22"></rect>
<a xlink:href="reuse_field.svg"><text x="1064" y="74">Field</text>
</a>
</g>
</g>
<path d="M1102 70a10 10 0 0 0 10 -10v-20"></path>
<g class="diagram-text">
<title>take one or more branches, once each, in any order</title>
<path d="M 904 30 h -26 a 4 4 0 0 0 -4 4 v 12 a 4 4 0 0 0 4 4 h 26 z" class="diagram-text"></path>
<text x="889" y="44" class="diagram-text">1+</text>
<path d="M 1112 30 h 16 a 4 4 0 0 1 4 4 v 12 a 4 4 0 0 1 -4 4 h -16 z" class="diagram-text"></path>
<path d="M 1119 38 a 4 4 0 1 0 6 -1 m 2.75 -1 h -4 v 4 m 0 -3 h 2" style="stroke-width: 1.75"></path>
</g>
</g>
<path d="M1132 40h20"></path>
</g>
</g>
<path d="M1152 40h20"></path>
<path d="M224 40a10 10 0 0 1 10 10v40a10 10 0 0 0 10 10"></path>
<g>
<path d="M244 100h0"></path>
<path d="M472 100h680"></path>
<g class="terminal">
<path d="M244 100h0"></path>
<path d="M376 100h0"></path>
<rect x="244" y="89" width="132" height="22" rx="10" ry="10"></rect>
<text x="310" y="104">"FUNCTION KEY"</text>
</g>
<path d="M376 100h10"></path>
<path d="M386 100h10"></path>
<g class="non-terminal">
<path d="M396 100h0"></path>
<path d="M472 100h0"></path>
<rect x="396" y="89" width="76" height="22"></rect>
<a xlink:href="reuse_integer.svg"><text x="434" y="104">Integer</text>
</a>
</g>
</g>
<path d="M1152 100a10 10 0 0 0 10 -10v-40a10 10 0 0 1 10 -10"></path>
<path d="M224 40a10 10 0 0 1 10 10v79a10 10 0 0 0 10 10"></path>
<g>
<path d="M244 139h0"></path>
<path d="M438 139h714"></path>
<g class="terminal">
<path d="M244 139h0"></path>
<path d="M312 139h0"></path>
<rect x="244" y="128" width="68" height="22" rx="10" ry="10"></rect>
<text x="278" y="143">"SKIP"</text>
</g>
<path d="M312 139h10"></path>
<g>
<path d="M322 139h0"></path>
<path d="M438 139h0"></path>
<path d="M322 139a10 10 0 0 0 10 -10v0a10 10 0 0 1 10 -10"></path>
<g>
<path d="M342 119h76"></path>
</g>
<path d="M418 119a10 10 0 0 1 10 10v0a10 10 0 0 0 10 10"></path>
<path d="M322 139h20"></path>
<g class="non-terminal">
<path d="M342 139h0"></path>
<path d="M418 139h0"></path>
<rect x="342" y="128" width="76" height="22"></rect>
<a xlink:href="reuse_integer.svg"><text x="380" y="143">Integer</text>
</a>
</g>
<path d="M418 139h20"></path>
</g>
</g>
<path d="M1152 139a10 10 0 0 0 10 -10v-79a10 10 0 0 1 10 -10"></path>
<path d="M224 40a10 10 0 0 1 10 10v109a10 10 0 0 0 10 10"></path>
<g>
<path d="M244 169h0"></path>
<path d="M440 169h712"></path>
<g class="terminal">
<path d="M244 169h0"></path>
<path d="M344 169h0"></path>
<rect x="244" y="158" width="100" height="22" rx="10" ry="10"></rect>
<text x="294" y="173">"POSITION"</text>
</g>
<path d="M344 169h10"></path>
<path d="M354 169h10"></path>
<g class="non-terminal">
<path d="M364 169h0"></path>
<path d="M440 169h0"></path>
<rect x="364" y="158" width="76" height="22"></rect>
<a xlink:href="reuse_integer.svg"><text x="402" y="173">Integer</text>
</a>
</g>
</g>
<path d="M1152 169a10 10 0 0 0 10 -10v-109a10 10 0 0 1 10 -10"></path>
<path d="M224 40a10 10 0 0 1 10 10v139a10 10 0 0 0 10 10"></path>
<g>
<path d="M244 199h0"></path>
<path d="M472 199h680"></path>
<g class="terminal">
<path d="M244 199h0"></path>
<path d="M392 199h0"></path>
<rect x="244" y="188" width="148" height="22" rx="10" ry="10"></rect>
<text x="318" y="203">"INCLUDE BLOCKS"</text>
</g>
<path d="M392 199h10"></path>
<path d="M402 199h10"></path>
<g class="terminal">
<path d="M412 199h0"></path>
<path d="M472 199h0"></path>
<rect x="412" y="188" width="60" height="22" rx="10" ry="10"></rect>
<text x="442" y="203">^\w+$</text>
</g>
</g>
<path d="M1152 199a10 10 0 0 0 10 -10v-139a10 10 0 0 1 10 -10"></path>
<path d="M224 40a10 10 0 0 1 10 10v169a10 10 0 0 0 10 10"></path>
<g>
<path d="M244 229h0"></path>
<path d="M1136 229h16"></path>
<g class="terminal">
<path d="M244 229h0"></path>
<path d="M304 229h0"></path>
<rect x="244" y="218" width="60" height="22" rx="10" ry="10"></rect>
<text x="274" y="233">"TAB"</text>
</g>
<path d="M304 229h10"></path>
<path d="M314 229h10"></path>
<g class="terminal">
<path d="M324 229h0"></path>
<path d="M384 229h0"></path>
<rect x="324" y="218" width="60" height="22" rx="10" ry="10"></rect>
<text x="354" y="233">!" ("</text>
</g>
<path d="M384 229h10"></path>
<path d="M394 229h10"></path>
<g class="non-terminal">
<path d="M404 229h0"></path>
<path d="M480 229h0"></path>
<rect x="404" y="218" width="76" height="22"></rect>
<a xlink:href="reuse_integer.svg"><text x="442" y="233">Integer</text>
</a>
</g>
<path d="M480 229h10"></path>
<path d="M490 229h10"></path>
<g class="terminal">
<path d="M500 229h0"></path>
<path d="M560 229h0"></path>
<rect x="500" y="218" width="60" height="22" rx="10" ry="10"></rect>
<text x="530" y="233">!") "</text>
</g>
<path d="M560 229h10"></path>
<path d="M570 229h10"></path>
<g class="non-terminal">
<path d="M580 229h0"></path>
<path d="M640 229h0"></path>
<rect x="580" y="218" width="60" height="22"></rect>
<a xlink:href="reuse_field.svg"><text x="610" y="233">Field</text>
</a>
</g>
<path d="M640 229h10"></path>
<path d="M650 229h10"></path>
<g class="terminal">
<path d="M660 229h0"></path>
<path d="M792 229h0"></path>
<rect x="660" y="218" width="132" height="22" rx="10" ry="10"></rect>
<text x="726" y="233">"USER-COMMAND"</text>
</g>
<path d="M792 229h10"></path>
<path d="M802 229h10"></path>
<g class="non-terminal">
<path d="M812 229h0"></path>
<path d="M872 229h0"></path>
<rect x="812" y="218" width="60" height="22"></rect>
<a xlink:href="reuse_field.svg"><text x="842" y="233">Field</text>
</a>
</g>
<path d="M872 229h10"></path>
<path d="M882 229h10"></path>
<g class="terminal">
<path d="M892 229h0"></path>
<path d="M1040 229h0"></path>
<rect x="892" y="218" width="148" height="22" rx="10" ry="10"></rect>
<text x="966" y="233">"DEFAULT SCREEN"</text>
</g>
<path d="M1040 229h10"></path>
<path d="M1050 229h10"></path>
<g class="non-terminal">
<path d="M1060 229h0"></path>
<path d="M1136 229h0"></path>
<rect x="1060" y="218" width="76" height="22"></rect>
<a xlink:href="reuse_integer.svg"><text x="1098" y="233">Integer</text>
</a>
</g>
</g>
<path d="M1152 229a10 10 0 0 0 10 -10v-169a10 10 0 0 1 10 -10"></path>
<path d="M224 40a10 10 0 0 1 10 10v199a10 10 0 0 0 10 10"></path>
<g class="terminal">
<path d="M244 259h0"></path>
<path d="M320 259h832"></path>
<rect x="244" y="248" width="76" height="22" rx="10" ry="10"></rect>
<text x="282" y="263">"ULINE"</text>
</g>
<path d="M1152 259a10 10 0 0 0 10 -10v-199a10 10 0 0 1 10 -10"></path>
<path d="M224 40a10 10 0 0 1 10 10v238a10 10 0 0 0 10 10"></path>
<g>
<path d="M244 298h0"></path>
<path d="M1014 298h138"></path>
<g class="terminal">
<path d="M244 298h0"></path>
<path d="M392 298h0"></path>
<rect x="244" y="287" width="148" height="22" rx="10" ry="10"></rect>
<text x="318" y="302">"BEGIN OF BLOCK"</text>
</g>
<path d="M392 298h10"></path>
<path d="M402 298h10"></path>
<g class="terminal">
<path d="M412 298h0"></path>
<path d="M472 298h0"></path>
<rect x="412" y="287" width="60" height="22" rx="10" ry="10"></rect>
<text x="442" y="302">^\w+$</text>
</g>
<path d="M472 298h10"></path>
<g>
<path d="M482 298h0"></path>
<path d="M638 298h0"></path>
<path d="M482 298a10 10 0 0 0 10 -10v0a10 10 0 0 1 10 -10"></path>
<g>
<path d="M502 278h116"></path>
</g>
<path d="M618 278a10 10 0 0 1 10 10v0a10 10 0 0 0 10 10"></path>
<path d="M482 298h20"></path>
<g class="terminal">
<path d="M502 298h0"></path>
<path d="M618 298h0"></path>
<rect x="502" y="287" width="116" height="22" rx="10" ry="10"></rect>
<text x="560" y="302">"WITH FRAME"</text>
</g>
<path d="M618 298h20"></path>
</g>
<g>
<path d="M638 298h0"></path>
<path d="M842 298h0"></path>
<path d="M638 298a10 10 0 0 0 10 -10v0a10 10 0 0 1 10 -10"></path>
<g>
<path d="M658 278h164"></path>
</g>
<path d="M822 278a10 10 0 0 1 10 10v0a10 10 0 0 0 10 10"></path>
<path d="M638 298h20"></path>
<g>
<path d="M658 298h0"></path>
<path d="M822 298h0"></path>
<g class="terminal">
<path d="M658 298h0"></path>
<path d="M734 298h0"></path>
<rect x="658" y="287" width="76" height="22" rx="10" ry="10"></rect>
<text x="696" y="302">"TITLE"</text>
</g>
<path d="M734 298h10"></path>
<path d="M744 298h10"></path>
<g class="non-terminal">
<path d="M754 298h0"></path>
<path d="M822 298h0"></path>
<rect x="754" y="287" width="68" height="22"></rect>
<a xlink:href="reuse_source.svg"><text x="788" y="302">Source</text>
</a>
</g>
</g>
<path d="M822 298h20"></path>
</g>
<g>
<path d="M842 298h0"></path>
<path d="M1014 298h0"></path>
<path d="M842 298a10 10 0 0 0 10 -10v0a10 10 0 0 1 10 -10"></path>
<g>
<path d="M862 278h132"></path>
</g>
<path d="M994 278a10 10 0 0 1 10 10v0a10 10 0 0 0 10 10"></path>
<path d="M842 298h20"></path>
<g class="terminal">
<path d="M862 298h0"></path>
<path d="M994 298h0"></path>
<rect x="862" y="287" width="132" height="22" rx="10" ry="10"></rect>
<text x="928" y="302">"NO INTERVALS"</text>
</g>
<path d="M994 298h20"></path>
</g>
</g>
<path d="M1152 298a10 10 0 0 0 10 -10v-238a10 10 0 0 1 10 -10"></path>
<path d="M224 40a10 10 0 0 1 10 10v268a10 10 0 0 0 10 10"></path>
<g>
<path d="M244 328h0"></path>
<path d="M800 328h352"></path>
<g class="terminal">
<path d="M244 328h0"></path>
<path d="M448 328h0"></path>
<rect x="244" y="317" width="204" height="22" rx="10" ry="10"></rect>
<text x="346" y="332">"BEGIN OF TABBED BLOCK"</text>
</g>
<path d="M448 328h10"></path>
<path d="M458 328h10"></path>
<g class="non-terminal">
<path d="M468 328h0"></path>
<path d="M528 328h0"></path>
<rect x="468" y="317" width="60" height="22"></rect>
<a xlink:href="reuse_field.svg"><text x="498" y="332">Field</text>
</a>
</g>
<path d="M528 328h10"></path>
<path d="M538 328h10"></path>
<g class="terminal">
<path d="M548 328h0"></path>
<path d="M608 328h0"></path>
<rect x="548" y="317" width="60" height="22" rx="10" ry="10"></rect>
<text x="578" y="332">"FOR"</text>
</g>
<path d="M608 328h10"></path>
<path d="M618 328h10"></path>
<g class="non-terminal">
<path d="M628 328h0"></path>
<path d="M704 328h0"></path>
<rect x="628" y="317" width="76" height="22"></rect>
<a xlink:href="reuse_integer.svg"><text x="666" y="332">Integer</text>
</a>
</g>
<path d="M704 328h10"></path>
<path d="M714 328h10"></path>
<g class="terminal">
<path d="M724 328h0"></path>
<path d="M800 328h0"></path>
<rect x="724" y="317" width="76" height="22" rx="10" ry="10"></rect>
<text x="762" y="332">"LINES"</text>
</g>
</g>
<path d="M1152 328a10 10 0 0 0 10 -10v-268a10 10 0 0 1 10 -10"></path>
<path d="M224 40a10 10 0 0 1 10 10v298a10 10 0 0 0 10 10"></path>
<g>
<path d="M244 358h0"></path>
<path d="M456 358h696"></path>
<g class="terminal">
<path d="M244 358h0"></path>
<path d="M376 358h0"></path>
<rect x="244" y="347" width="132" height="22" rx="10" ry="10"></rect>
<text x="310" y="362">"END OF BLOCK"</text>
</g>
<path d="M376 358h10"></path>
<path d="M386 358h10"></path>
<g class="terminal">
<path d="M396 358h0"></path>
<path d="M456 358h0"></path>
<rect x="396" y="347" width="60" height="22" rx="10" ry="10"></rect>
<text x="426" y="362">^\w+$</text>
</g>
</g>
<path d="M1152 358a10 10 0 0 0 10 -10v-298a10 10 0 0 1 10 -10"></path>
<path d="M224 40a10 10 0 0 1 10 10v328a10 10 0 0 0 10 10"></path>
<g class="terminal">
<path d="M244 388h0"></path>
<path d="M384 388h768"></path>
<rect x="244" y="377" width="140" height="22" rx="10" ry="10"></rect>
<text x="314" y="392">"BEGIN OF LINE"</text>
</g>
<path d="M1152 388a10 10 0 0 0 10 -10v-328a10 10 0 0 1 10 -10"></path>
<path d="M224 40a10 10 0 0 1 10 10v358a10 10 0 0 0 10 10"></path>
<g class="terminal">
<path d="M244 418h0"></path>
<path d="M368 418h784"></path>
<rect x="244" y="407" width="124" height="22" rx="10" ry="10"></rect>
<text x="306" y="422">"END OF LINE"</text>
</g>
<path d="M1152 418a10 10 0 0 0 10 -10v-358a10 10 0 0 1 10 -10"></path>
<path d="M224 40a10 10 0 0 1 10 10v397a10 10 0 0 0 10 10"></path>
<g>
<path d="M244 457h0"></path>
<path d="M1132 457h20"></path>
<g class="terminal">
<path d="M244 457h0"></path>
<path d="M400 457h0"></path>
<rect x="244" y="446" width="156" height="22" rx="10" ry="10"></rect>
<text x="322" y="461">"BEGIN OF SCREEN"</text>
</g>
<path d="M400 457h10"></path>
<path d="M410 457h10"></path>
<g class="non-terminal">
<path d="M420 457h0"></path>
<path d="M496 457h0"></path>
<rect x="420" y="446" width="76" height="22"></rect>
<a xlink:href="reuse_integer.svg"><text x="458" y="461">Integer</text>
</a>
</g>
<path d="M496 457h10"></path>
<g>
<path d="M506 457h0"></path>
<path d="M756 457h0"></path>
<path d="M506 457a10 10 0 0 0 10 -10v0a10 10 0 0 1 10 -10"></path>
<g>
<path d="M526 437h210"></path>
</g>
<path d="M736 437a10 10 0 0 1 10 10v0a10 10 0 0 0 10 10"></path>
<path d="M506 457h20"></path>
<g>
<path d="M526 457h0"></path>
<path d="M736 457h0"></path>
<g class="terminal">
<path d="M526 457h0"></path>
<path d="M578 457h0"></path>
<rect x="526" y="446" width="52" height="22" rx="10" ry="10"></rect>
<text x="552" y="461">"AS"</text>
</g>
<path d="M578 457h10"></path>
<g>
<path d="M588 457h0"></path>
<path d="M736 457h0"></path>
<path d="M588 457h20"></path>
<g class="terminal">
<path d="M608 457h0"></path>
<path d="M692 457h24"></path>
<rect x="608" y="446" width="84" height="22" rx="10" ry="10"></rect>
<text x="650" y="461">"WINDOW"</text>
</g>
<path d="M716 457h20"></path>
<path d="M588 457a10 10 0 0 1 10 10v10a10 10 0 0 0 10 10"></path>
<g class="terminal">
<path d="M608 487h0"></path>
<path d="M716 487h0"></path>
<rect x="608" y="476" width="108" height="22" rx="10" ry="10"></rect>
<text x="662" y="491">"SUBSCREEN"</text>
</g>
<path d="M716 487a10 10 0 0 0 10 -10v-10a10 10 0 0 1 10 -10"></path>
</g>
</g>
<path d="M736 457h20"></path>
</g>
<g>
<path d="M756 457h0"></path>
<path d="M960 457h0"></path>
<path d="M756 457a10 10 0 0 0 10 -10v0a10 10 0 0 1 10 -10"></path>
<g>
<path d="M776 437h164"></path>
</g>
<path d="M940 437a10 10 0 0 1 10 10v0a10 10 0 0 0 10 10"></path>
<path d="M756 457h20"></path>
<g>
<path d="M776 457h0"></path>
<path d="M940 457h0"></path>
<g class="terminal">
<path d="M776 457h0"></path>
<path d="M852 457h0"></path>
<rect x="776" y="446" width="76" height="22" rx="10" ry="10"></rect>
<text x="814" y="461">"TITLE"</text>
</g>
<path d="M852 457h10"></path>
<path d="M862 457h10"></path>
<g class="non-terminal">
<path d="M872 457h0"></path>
<path d="M940 457h0"></path>
<rect x="872" y="446" width="68" height="22"></rect>
<a xlink:href="reuse_source.svg"><text x="906" y="461">Source</text>
</a>
</g>
</g>
<path d="M940 457h20"></path>
</g>
<g>
<path d="M960 457h0"></path>
<path d="M1132 457h0"></path>
<path d="M960 457a10 10 0 0 0 10 -10v0a10 10 0 0 1 10 -10"></path>
<g>
<path d="M980 437h132"></path>
</g>
<path d="M1112 437a10 10 0 0 1 10 10v0a10 10 0 0 0 10 10"></path>
<path d="M960 457h20"></path>
<g class="terminal">
<path d="M980 457h0"></path>
<path d="M1112 457h0"></path>
<rect x="980" y="446" width="132" height="22" rx="10" ry="10"></rect>
<text x="1046" y="461">"NO INTERVALS"</text>
</g>
<path d="M1112 457h20"></path>
</g>
</g>
<path d="M1152 457a10 10 0 0 0 10 -10v-397a10 10 0 0 1 10 -10"></path>
<path d="M224 40a10 10 0 0 1 10 10v457a10 10 0 0 0 10 10"></path>
<g>
<path d="M244 517h0"></path>
<path d="M480 517h672"></path>
<g class="terminal">
<path d="M244 517h0"></path>
<path d="M384 517h0"></path>
<rect x="244" y="506" width="140" height="22" rx="10" ry="10"></rect>
<text x="314" y="521">"END OF SCREEN"</text>
</g>
<path d="M384 517h10"></path>
<path d="M394 517h10"></path>
<g class="non-terminal">
<path d="M404 517h0"></path>
<path d="M480 517h0"></path>
<rect x="404" y="506" width="76" height="22"></rect>
<a xlink:href="reuse_integer.svg"><text x="442" y="521">Integer</text>
</a>
</g>
</g>
<path d="M1152 517a10 10 0 0 0 10 -10v-457a10 10 0 0 1 10 -10"></path>
</g>
</g>
<path d="M1172 40h10"></path>
<path d="M 1182 40 h 20 m -10 -10 v 20 m 10 -20 v 20"></path>
</g>
</svg>
