<svg xmlns="http://www.w3.org/2000/svg" xmlns:xlink="http://www.w3.org/1999/xlink" class="railroad-diagram" width="630" height="71" viewBox="0 0 630 71">
<defs>
<style type="text/css"><![CDATA[
path {
stroke-width: 3;
stroke: black;
fill: rgba(0,0,0,0);
}
text {
font: bold 14px monospace;
text-anchor: middle;
}
text.diagram-text {
font-size: 12px;
}
a {
fill: blue;
}
text.diagram-arrow {
font-size: 16px;
}
text.label {
text-anchor: start;
}
text.comment {
font: italic 12px monospace;
}
rect {
stroke-width: 3;
stroke: black;
fill: #BCBCBC;
}
path.diagram-text {
stroke-width: 3;
stroke: black;
fill: #BCBCBC;
cursor: help;
}
]]></style>
</defs>
<g transform="translate(.5 .5)">
<path d="M 20 30 v 20 m 10 -20 v 20 m -10 -10 h 20.5"></path>
<path d="M40 40h10"></path>
<g>
<path d="M50 40h0"></path>
<path d="M580 40h0"></path>
<g class="terminal">
<path d="M50 40h0"></path>
<path d="M142 40h0"></path>
<rect x="50" y="29" width="92" height="22" rx="10" ry="10"></rect>
<text x="96" y="44">"SET BIT"</text>
</g>
<path d="M142 40h10"></path>
<path d="M152 40h10"></path>
<g class="non-terminal">
<path d="M162 40h0"></path>
<path d="M230 40h0"></path>
<rect x="162" y="29" width="68" height="22"></rect>
<a xlink:href="reuse_Source.svg"><text x="196" y="44">Source</text>
</a>
</g>
<path d="M230 40h10"></path>
<path d="M240 40h10"></path>
<g class="terminal">
<path d="M250 40h0"></path>
<path d="M302 40h0"></path>
<rect x="250" y="29" width="52" height="22" rx="10" ry="10"></rect>
<text x="276" y="44">"OF"</text>
</g>
<path d="M302 40h10"></path>
<path d="M312 40h10"></path>
<g class="non-terminal">
<path d="M322 40h0"></path>
<path d="M390 40h0"></path>
<rect x="322" y="29" width="68" height="22"></rect>
<a xlink:href="reuse_Target.svg"><text x="356" y="44">Target</text>
</a>
</g>
<path d="M390 40h10"></path>
<g>
<path d="M400 40h0"></path>
<path d="M580 40h0"></path>
<path d="M400 40a10 10 0 0 0 10 -10v0a10 10 0 0 1 10 -10"></path>
<g>
<path d="M420 20h140"></path>
</g>
<path d="M560 20a10 10 0 0 1 10 10v0a10 10 0 0 0 10 10"></path>
<path d="M400 40h20"></path>
<g>
<path d="M420 40h0"></path>
<path d="M560 40h0"></path>
<g class="terminal">
<path d="M420 40h0"></path>
<path d="M472 40h0"></path>
<rect x="420" y="29" width="52" height="22" rx="10" ry="10"></rect>
<text x="446" y="44">"TO"</text>
</g>
<path d="M472 40h10"></path>
<path d="M482 40h10"></path>
<g class="non-terminal">
<path d="M492 40h0"></path>
<path d="M560 40h0"></path>
<rect x="492" y="29" width="68" height="22"></rect>
<a xlink:href="reuse_Source.svg"><text x="526" y="44">Source</text>
</a>
</g>
</g>
<path d="M560 40h20"></path>
</g>
</g>
<path d="M580 40h10"></path>
<path d="M 590 40 h 20 m -10 -10 v 20 m 10 -20 v 20"></path>
</g>
</svg>
