<svg xmlns="http://www.w3.org/2000/svg" xmlns:xlink="http://www.w3.org/1999/xlink" class="railroad-diagram" width="826" height="101" viewBox="0 0 826 101">
<defs>
<style type="text/css"><![CDATA[
path {
stroke-width: 3;
stroke: black;
fill: rgba(0,0,0,0);
}
text {
font: bold 14px monospace;
text-anchor: middle;
}
text.diagram-text {
font-size: 12px;
}
a {
fill: blue;
}
text.diagram-arrow {
font-size: 16px;
}
text.label {
text-anchor: start;
}
text.comment {
font: italic 12px monospace;
}
rect {
stroke-width: 3;
stroke: black;
fill: #BCBCBC;
}
path.diagram-text {
stroke-width: 3;
stroke: black;
fill: #BCBCBC;
cursor: help;
}
]]></style>
</defs>
<g transform="translate(.5 .5)">
<path d="M 20 30 v 20 m 10 -20 v 20 m -10 -10 h 20.5"></path>
<path d="M40 40h10"></path>
<g>
<path d="M50 40h0"></path>
<path d="M776 40h0"></path>
<g class="terminal">
<path d="M50 40h0"></path>
<path d="M174 40h0"></path>
<rect x="50" y="29" width="124" height="22" rx="10" ry="10"></rect>
<text x="112" y="44">"SET HANDLER"</text>
</g>
<path d="M174 40h10"></path>
<path d="M184 40h10"></path>
<g class="non-terminal">
<path d="M194 40h0"></path>
<path d="M262 40h0"></path>
<rect x="194" y="29" width="68" height="22"></rect>
<a xlink:href="reuse_target.svg"><text x="228" y="44">Target</text>
</a>
</g>
<path d="M262 40h10"></path>
<path d="M272 40h10"></path>
<g class="terminal">
<path d="M282 40h0"></path>
<path d="M342 40h0"></path>
<rect x="282" y="29" width="60" height="22" rx="10" ry="10"></rect>
<text x="312" y="44">"FOR"</text>
</g>
<path d="M342 40h10"></path>
<g>
<path d="M352 40h0"></path>
<path d="M532 40h0"></path>
<path d="M352 40h20"></path>
<g class="terminal">
<path d="M372 40h0"></path>
<path d="M512 40h0"></path>
<rect x="372" y="29" width="140" height="22" rx="10" ry="10"></rect>
<text x="442" y="44">"ALL INSTANCES"</text>
</g>
<path d="M512 40h20"></path>
<path d="M352 40a10 10 0 0 1 10 10v10a10 10 0 0 0 10 10"></path>
<g class="non-terminal">
<path d="M372 70h0"></path>
<path d="M440 70h72"></path>
<rect x="372" y="59" width="68" height="22"></rect>
<a xlink:href="reuse_source.svg"><text x="406" y="74">Source</text>
</a>
</g>
<path d="M512 70a10 10 0 0 0 10 -10v-10a10 10 0 0 1 10 -10"></path>
</g>
<g>
<path d="M532 40h0"></path>
<path d="M776 40h0"></path>
<path d="M532 40a10 10 0 0 0 10 -10v0a10 10 0 0 1 10 -10"></path>
<g>
<path d="M552 20h204"></path>
</g>
<path d="M756 20a10 10 0 0 1 10 10v0a10 10 0 0 0 10 10"></path>
<path d="M532 40h20"></path>
<g>
<path d="M552 40h0"></path>
<path d="M756 40h0"></path>
<g class="terminal">
<path d="M552 40h0"></path>
<path d="M668 40h0"></path>
<rect x="552" y="29" width="116" height="22" rx="10" ry="10"></rect>
<text x="610" y="44">"ACTIVATION"</text>
</g>
<path d="M668 40h10"></path>
<path d="M678 40h10"></path>
<g class="non-terminal">
<path d="M688 40h0"></path>
<path d="M756 40h0"></path>
<rect x="688" y="29" width="68" height="22"></rect>
<a xlink:href="reuse_source.svg"><text x="722" y="44">Source</text>
</a>
</g>
</g>
<path d="M756 40h20"></path>
</g>
</g>
<path d="M776 40h10"></path>
<path d="M 786 40 h 20 m -10 -10 v 20 m 10 -20 v 20"></path>
</g>
</svg>
