<svg xmlns="http://www.w3.org/2000/svg" xmlns:xlink="http://www.w3.org/1999/xlink" class="railroad-diagram" width="876" height="101" viewBox="0 0 876 101">
<defs>
<style type="text/css"><![CDATA[
path {
stroke-width: 3;
stroke: black;
fill: rgba(0,0,0,0);
}
text {
font: bold 14px monospace;
text-anchor: middle;
}
text.diagram-text {
font-size: 12px;
}
a {
fill: blue;
}
text.diagram-arrow {
font-size: 16px;
}
text.label {
text-anchor: start;
}
text.comment {
font: italic 12px monospace;
}
rect {
stroke-width: 3;
stroke: black;
fill: #BCBCBC;
}
path.diagram-text {
stroke-width: 3;
stroke: black;
fill: #BCBCBC;
cursor: help;
}
]]></style>
</defs>
<g transform="translate(.5 .5)">
<path d="M 20 30 v 20 m 10 -20 v 20 m -10 -10 h 20.5"></path>
<path d="M40 40h10"></path>
<g>
<path d="M50 40h0"></path>
<path d="M826 40h0"></path>
<g class="terminal">
<path d="M50 40h0"></path>
<path d="M174 40h0"></path>
<rect x="50" y="29" width="124" height="22" rx="10" ry="10"></rect>
<text x="112" y="44">"SET HANDLER"</text>
</g>
<path d="M174 40h10"></path>
<path d="M184 40h10"></path>
<g>
<path d="M194 40h0"></path>
<path d="M282 40h0"></path>
<path d="M194 40h10"></path>
<g class="non-terminal">
<path d="M204 40h0"></path>
<path d="M272 40h0"></path>
<rect x="204" y="29" width="68" height="22"></rect>
<a xlink:href="reuse_target.svg"><text x="238" y="44">Target</text>
</a>
</g>
<path d="M272 40h10"></path>
<path d="M204 40a10 10 0 0 0 -10 10v0a10 10 0 0 0 10 10"></path>
<g>
<path d="M204 60h68"></path>
</g>
<path d="M272 60a10 10 0 0 0 10 -10v0a10 10 0 0 0 -10 -10"></path>
</g>
<path d="M282 40h10"></path>
<g>
<path d="M292 40h0"></path>
<path d="M582 40h0"></path>
<path d="M292 40a10 10 0 0 0 10 -10v0a10 10 0 0 1 10 -10"></path>
<g>
<path d="M312 20h250"></path>
</g>
<path d="M562 20a10 10 0 0 1 10 10v0a10 10 0 0 0 10 10"></path>
<path d="M292 40h20"></path>
<g>
<path d="M312 40h0"></path>
<path d="M562 40h0"></path>
<g class="terminal">
<path d="M312 40h0"></path>
<path d="M372 40h0"></path>
<rect x="312" y="29" width="60" height="22" rx="10" ry="10"></rect>
<text x="342" y="44">"FOR"</text>
</g>
<path d="M372 40h10"></path>
<g>
<path d="M382 40h0"></path>
<path d="M562 40h0"></path>
<path d="M382 40h20"></path>
<g class="terminal">
<path d="M402 40h0"></path>
<path d="M542 40h0"></path>
<rect x="402" y="29" width="140" height="22" rx="10" ry="10"></rect>
<text x="472" y="44">"ALL INSTANCES"</text>
</g>
<path d="M542 40h20"></path>
<path d="M382 40a10 10 0 0 1 10 10v10a10 10 0 0 0 10 10"></path>
<g class="non-terminal">
<path d="M402 70h0"></path>
<path d="M470 70h72"></path>
<rect x="402" y="59" width="68" height="22"></rect>
<a xlink:href="reuse_source.svg"><text x="436" y="74">Source</text>
</a>
</g>
<path d="M542 70a10 10 0 0 0 10 -10v-10a10 10 0 0 1 10 -10"></path>
</g>
</g>
<path d="M562 40h20"></path>
</g>
<g>
<path d="M582 40h0"></path>
<path d="M826 40h0"></path>
<path d="M582 40a10 10 0 0 0 10 -10v0a10 10 0 0 1 10 -10"></path>
<g>
<path d="M602 20h204"></path>
</g>
<path d="M806 20a10 10 0 0 1 10 10v0a10 10 0 0 0 10 10"></path>
<path d="M582 40h20"></path>
<g>
<path d="M602 40h0"></path>
<path d="M806 40h0"></path>
<g class="terminal">
<path d="M602 40h0"></path>
<path d="M718 40h0"></path>
<rect x="602" y="29" width="116" height="22" rx="10" ry="10"></rect>
<text x="660" y="44">"ACTIVATION"</text>
</g>
<path d="M718 40h10"></path>
<path d="M728 40h10"></path>
<g class="non-terminal">
<path d="M738 40h0"></path>
<path d="M806 40h0"></path>
<rect x="738" y="29" width="68" height="22"></rect>
<a xlink:href="reuse_source.svg"><text x="772" y="44">Source</text>
</a>
</g>
</g>
<path d="M806 40h20"></path>
</g>
</g>
<path d="M826 40h10"></path>
<path d="M 836 40 h 20 m -10 -10 v 20 m 10 -20 v 20"></path>
</g>
</svg>
