<svg xmlns="http://www.w3.org/2000/svg" xmlns:xlink="http://www.w3.org/1999/xlink" class="railroad-diagram" width="876" height="109" viewBox="0 0 876 109">
<defs>
<style type="text/css"><![CDATA[
path {
stroke-width: 3;
stroke: black;
fill: rgba(0,0,0,0);
}
text {
font: bold 14px monospace;
text-anchor: middle;
}
text.diagram-text {
font-size: 12px;
}
a {
fill: blue;
}
text.diagram-arrow {
font-size: 16px;
}
text.label {
text-anchor: start;
}
text.comment {
font: italic 12px monospace;
}
rect {
stroke-width: 3;
stroke: black;
fill: #BCBCBC;
}
path.diagram-text {
stroke-width: 3;
stroke: black;
fill: #BCBCBC;
cursor: help;
}
]]></style>
</defs>
<g transform="translate(.5 .5)">
<path d="M 20 38 v 20 m 10 -20 v 20 m -10 -10 h 20.5"></path>
<path d="M40 48h10"></path>
<g>
<path d="M50 48h0"></path>
<path d="M826 48h0"></path>
<g class="terminal">
<path d="M50 48h0"></path>
<path d="M174 48h0"></path>
<rect x="50" y="37" width="124" height="22" rx="10" ry="10"></rect>
<text x="112" y="52">"SET HANDLER"</text>
</g>
<path d="M174 48h10"></path>
<path d="M184 48h10"></path>
<g>
<path d="M194 48h0"></path>
<path d="M282 48h0"></path>
<path d="M194 48h10"></path>
<g class="non-terminal">
<path d="M204 48h0"></path>
<path d="M272 48h0"></path>
<rect x="204" y="37" width="68" height="22"></rect>
<a xlink:href="reuse_target.svg"><text x="238" y="52">Target</text>
</a>
</g>
<path d="M272 48h10"></path>
<path d="M204 48a10 10 0 0 0 -10 10v0a10 10 0 0 0 10 10"></path>
<g>
<path d="M204 68h68"></path>
</g>
<path d="M272 68a10 10 0 0 0 10 -10v0a10 10 0 0 0 -10 -10"></path>
</g>
<path d="M282 48h10"></path>
<g>
<path d="M292 48h0"></path>
<path d="M826 48h0"></path>
<path d="M292 48a10 10 0 0 0 10 -10v-8a10 10 0 0 1 10 -10"></path>
<g>
<path d="M312 20h494"></path>
</g>
<path d="M806 20a10 10 0 0 1 10 10v8a10 10 0 0 0 10 10"></path>
<path d="M292 48h20"></path>
<g>
<path d="M312 48h0"></path>
<path d="M806 48h0"></path>
<g class="terminal">
<path d="M312 48h0"></path>
<path d="M372 48h0"></path>
<rect x="312" y="37" width="60" height="22" rx="10" ry="10"></rect>
<text x="342" y="52">"FOR"</text>
</g>
<path d="M372 48h10"></path>
<g>
<path d="M382 48h0"></path>
<path d="M562 48h0"></path>
<path d="M382 48h20"></path>
<g class="terminal">
<path d="M402 48h0"></path>
<path d="M542 48h0"></path>
<rect x="402" y="37" width="140" height="22" rx="10" ry="10"></rect>
<text x="472" y="52">"ALL INSTANCES"</text>
</g>
<path d="M542 48h20"></path>
<path d="M382 48a10 10 0 0 1 10 10v10a10 10 0 0 0 10 10"></path>
<g class="non-terminal">
<path d="M402 78h0"></path>
<path d="M470 78h72"></path>
<rect x="402" y="67" width="68" height="22"></rect>
<a xlink:href="reuse_source.svg"><text x="436" y="82">Source</text>
</a>
</g>
<path d="M542 78a10 10 0 0 0 10 -10v-10a10 10 0 0 1 10 -10"></path>
</g>
<g>
<path d="M562 48h0"></path>
<path d="M806 48h0"></path>
<path d="M562 48a10 10 0 0 0 10 -10v0a10 10 0 0 1 10 -10"></path>
<g>
<path d="M582 28h204"></path>
</g>
<path d="M786 28a10 10 0 0 1 10 10v0a10 10 0 0 0 10 10"></path>
<path d="M562 48h20"></path>
<g>
<path d="M582 48h0"></path>
<path d="M786 48h0"></path>
<g class="terminal">
<path d="M582 48h0"></path>
<path d="M698 48h0"></path>
<rect x="582" y="37" width="116" height="22" rx="10" ry="10"></rect>
<text x="640" y="52">"ACTIVATION"</text>
</g>
<path d="M698 48h10"></path>
<path d="M708 48h10"></path>
<g class="non-terminal">
<path d="M718 48h0"></path>
<path d="M786 48h0"></path>
<rect x="718" y="37" width="68" height="22"></rect>
<a xlink:href="reuse_source.svg"><text x="752" y="52">Source</text>
</a>
</g>
</g>
<path d="M786 48h20"></path>
</g>
</g>
<path d="M806 48h20"></path>
</g>
</g>
<path d="M826 48h10"></path>
<path d="M 836 48 h 20 m -10 -10 v 20 m 10 -20 v 20"></path>
</g>
</svg>
