<svg xmlns="http://www.w3.org/2000/svg" xmlns:xlink="http://www.w3.org/1999/xlink" class="railroad-diagram" width="606" height="71" viewBox="0 0 606 71">
<defs>
<style type="text/css"><![CDATA[
path {
stroke-width: 3;
stroke: black;
fill: rgba(0,0,0,0);
}
text {
font: bold 14px monospace;
text-anchor: middle;
}
text.diagram-text {
font-size: 12px;
}
a {
fill: blue;
}
text.diagram-arrow {
font-size: 16px;
}
text.label {
text-anchor: start;
}
text.comment {
font: italic 12px monospace;
}
rect {
stroke-width: 3;
stroke: black;
fill: #BCBCBC;
}
path.diagram-text {
stroke-width: 3;
stroke: black;
fill: #BCBCBC;
cursor: help;
}
]]></style>
</defs>
<g transform="translate(.5 .5)">
<path d="M 20 30 v 20 m 10 -20 v 20 m -10 -10 h 20.5"></path>
<path d="M40 40h10"></path>
<g>
<path d="M50 40h0"></path>
<path d="M556 40h0"></path>
<g class="terminal">
<path d="M50 40h0"></path>
<path d="M238 40h0"></path>
<rect x="50" y="29" width="188" height="22" rx="10" ry="10"></rect>
<text x="144" y="44">"SET LOCALE LANGUAGE"</text>
</g>
<path d="M238 40h10"></path>
<path d="M248 40h10"></path>
<g class="non-terminal">
<path d="M258 40h0"></path>
<path d="M326 40h0"></path>
<rect x="258" y="29" width="68" height="22"></rect>
<a xlink:href="reuse_source.svg"><text x="292" y="44">Source</text>
</a>
</g>
<path d="M326 40h10"></path>
<g>
<path d="M336 40h0"></path>
<path d="M556 40h0"></path>
<path d="M336 40a10 10 0 0 0 10 -10v0a10 10 0 0 1 10 -10"></path>
<g>
<path d="M356 20h180"></path>
</g>
<path d="M536 20a10 10 0 0 1 10 10v0a10 10 0 0 0 10 10"></path>
<path d="M336 40h20"></path>
<g>
<path d="M356 40h0"></path>
<path d="M536 40h0"></path>
<g class="terminal">
<path d="M356 40h0"></path>
<path d="M448 40h0"></path>
<rect x="356" y="29" width="92" height="22" rx="10" ry="10"></rect>
<text x="402" y="44">"COUNTRY"</text>
</g>
<path d="M448 40h10"></path>
<path d="M458 40h10"></path>
<g class="non-terminal">
<path d="M468 40h0"></path>
<path d="M536 40h0"></path>
<rect x="468" y="29" width="68" height="22"></rect>
<a xlink:href="reuse_source.svg"><text x="502" y="44">Source</text>
</a>
</g>
</g>
<path d="M536 40h20"></path>
</g>
</g>
<path d="M556 40h10"></path>
<path d="M 566 40 h 20 m -10 -10 v 20 m 10 -20 v 20"></path>
</g>
</svg>
