<svg xmlns="http://www.w3.org/2000/svg" xmlns:xlink="http://www.w3.org/1999/xlink" class="railroad-diagram" width="652" height="131" viewBox="0 0 652 131">
<defs>
<style type="text/css"><![CDATA[
path {
stroke-width: 3;
stroke: black;
fill: rgba(0,0,0,0);
}
text {
font: bold 14px monospace;
text-anchor: middle;
}
text.diagram-text {
font-size: 12px;
}
a {
fill: blue;
}
text.diagram-arrow {
font-size: 16px;
}
text.label {
text-anchor: start;
}
text.comment {
font: italic 12px monospace;
}
rect {
stroke-width: 3;
stroke: black;
fill: #BCBCBC;
}
path.diagram-text {
stroke-width: 3;
stroke: black;
fill: #BCBCBC;
cursor: help;
}
]]></style>
</defs>
<g transform="translate(.5 .5)">
<path d="M 20 30 v 20 m 10 -20 v 20 m -10 -10 h 20.5"></path>
<path d="M40 40h10"></path>
<g>
<path d="M50 40h0"></path>
<path d="M602 40h0"></path>
<g class="terminal">
<path d="M50 40h0"></path>
<path d="M190 40h0"></path>
<rect x="50" y="29" width="140" height="22" rx="10" ry="10"></rect>
<text x="120" y="44">"SET PF-STATUS"</text>
</g>
<path d="M190 40h10"></path>
<path d="M200 40h10"></path>
<g class="non-terminal">
<path d="M210 40h0"></path>
<path d="M278 40h0"></path>
<rect x="210" y="29" width="68" height="22"></rect>
<a xlink:href="reuse_source.svg"><text x="244" y="44">Source</text>
</a>
</g>
<path d="M278 40h10"></path>
<g>
<path d="M288 40h0"></path>
<path d="M602 40h0"></path>
<path d="M288 40a10 10 0 0 0 10 -10v0a10 10 0 0 1 10 -10"></path>
<g>
<path d="M308 20h274"></path>
</g>
<path d="M582 20a10 10 0 0 1 10 10v0a10 10 0 0 0 10 10"></path>
<path d="M288 40h20"></path>
<g>
<path d="M308 40h0"></path>
<path d="M582 40h0"></path>
<path d="M338 40h10"></path>
<g>
<path d="M348 40h0"></path>
<path d="M552 40h0"></path>
<g class="terminal">
<path d="M348 40h0"></path>
<path d="M464 40h0"></path>
<rect x="348" y="29" width="116" height="22" rx="10" ry="10"></rect>
<text x="406" y="44">"OF PROGRAM"</text>
</g>
<path d="M464 40h10"></path>
<path d="M474 40h10"></path>
<g class="non-terminal">
<path d="M484 40h0"></path>
<path d="M552 40h0"></path>
<rect x="484" y="29" width="68" height="22"></rect>
<a xlink:href="reuse_source.svg"><text x="518" y="44">Source</text>
</a>
</g>
</g>
<path d="M552 40h10"></path>
<path d="M338 40v20a10 10 0 0 0 10 10"></path>
<g class="terminal">
<path d="M348 70h0"></path>
<path d="M472 70h80"></path>
<rect x="348" y="59" width="124" height="22" rx="10" ry="10"></rect>
<text x="410" y="74">"IMMEDIATELY"</text>
</g>
<path d="M552 70a10 10 0 0 0 10 -10v-20"></path>
<path d="M338 40v50a10 10 0 0 0 10 10"></path>
<g>
<path d="M348 100h0"></path>
<path d="M544 100h8"></path>
<g class="terminal">
<path d="M348 100h0"></path>
<path d="M456 100h0"></path>
<rect x="348" y="89" width="108" height="22" rx="10" ry="10"></rect>
<text x="402" y="104">"EXCLUDING"</text>
</g>
<path d="M456 100h10"></path>
<path d="M466 100h10"></path>
<g class="non-terminal">
<path d="M476 100h0"></path>
<path d="M544 100h0"></path>
<rect x="476" y="89" width="68" height="22"></rect>
<a xlink:href="reuse_source.svg"><text x="510" y="104">Source</text>
</a>
</g>
</g>
<path d="M552 100a10 10 0 0 0 10 -10v-50"></path>
<g class="diagram-text">
<title>take one or more branches, once each, in any order</title>
<path d="M 338 30 h -26 a 4 4 0 0 0 -4 4 v 12 a 4 4 0 0 0 4 4 h 26 z" class="diagram-text"></path>
<text x="323" y="44" class="diagram-text">1+</text>
<path d="M 562 30 h 16 a 4 4 0 0 1 4 4 v 12 a 4 4 0 0 1 -4 4 h -16 z" class="diagram-text"></path>
<path d="M 569 38 a 4 4 0 1 0 6 -1 m 2.75 -1 h -4 v 4 m 0 -3 h 2" style="stroke-width: 1.75"></path>
</g>
</g>
<path d="M582 40h20"></path>
</g>
</g>
<path d="M602 40h10"></path>
<path d="M 612 40 h 20 m -10 -10 v 20 m 10 -20 v 20"></path>
</g>
</svg>
