<svg xmlns="http://www.w3.org/2000/svg" xmlns:xlink="http://www.w3.org/1999/xlink" class="railroad-diagram" width="982" height="71" viewBox="0 0 982 71">
<defs>
<style type="text/css"><![CDATA[
path {
stroke-width: 3;
stroke: black;
fill: rgba(0,0,0,0);
}
text {
font: bold 14px monospace;
text-anchor: middle;
}
text.diagram-text {
font-size: 12px;
}
a {
fill: blue;
}
text.diagram-arrow {
font-size: 16px;
}
text.label {
text-anchor: start;
}
text.comment {
font: italic 12px monospace;
}
rect {
stroke-width: 3;
stroke: black;
fill: #BCBCBC;
}
path.diagram-text {
stroke-width: 3;
stroke: black;
fill: #BCBCBC;
cursor: help;
}
]]></style>
</defs>
<g transform="translate(.5 .5)">
<path d="M 20 30 v 20 m 10 -20 v 20 m -10 -10 h 20.5"></path>
<path d="M40 40h10"></path>
<g>
<path d="M50 40h0"></path>
<path d="M932 40h0"></path>
<g class="terminal">
<path d="M50 40h0"></path>
<path d="M190 40h0"></path>
<rect x="50" y="29" width="140" height="22" rx="10" ry="10"></rect>
<text x="120" y="44">"SET PF-STATUS"</text>
</g>
<path d="M190 40h10"></path>
<path d="M200 40h10"></path>
<g class="non-terminal">
<path d="M210 40h0"></path>
<path d="M278 40h0"></path>
<rect x="210" y="29" width="68" height="22"></rect>
<a xlink:href="reuse_source.svg"><text x="244" y="44">Source</text>
</a>
</g>
<path d="M278 40h10"></path>
<g>
<path d="M288 40h0"></path>
<path d="M532 40h0"></path>
<path d="M288 40a10 10 0 0 0 10 -10v0a10 10 0 0 1 10 -10"></path>
<g>
<path d="M308 20h204"></path>
</g>
<path d="M512 20a10 10 0 0 1 10 10v0a10 10 0 0 0 10 10"></path>
<path d="M288 40h20"></path>
<g>
<path d="M308 40h0"></path>
<path d="M512 40h0"></path>
<g class="terminal">
<path d="M308 40h0"></path>
<path d="M424 40h0"></path>
<rect x="308" y="29" width="116" height="22" rx="10" ry="10"></rect>
<text x="366" y="44">"OF PROGRAM"</text>
</g>
<path d="M424 40h10"></path>
<path d="M434 40h10"></path>
<g class="non-terminal">
<path d="M444 40h0"></path>
<path d="M512 40h0"></path>
<rect x="444" y="29" width="68" height="22"></rect>
<a xlink:href="reuse_source.svg"><text x="478" y="44">Source</text>
</a>
</g>
</g>
<path d="M512 40h20"></path>
</g>
<g>
<path d="M532 40h0"></path>
<path d="M696 40h0"></path>
<path d="M532 40a10 10 0 0 0 10 -10v0a10 10 0 0 1 10 -10"></path>
<g>
<path d="M552 20h124"></path>
</g>
<path d="M676 20a10 10 0 0 1 10 10v0a10 10 0 0 0 10 10"></path>
<path d="M532 40h20"></path>
<g class="terminal">
<path d="M552 40h0"></path>
<path d="M676 40h0"></path>
<rect x="552" y="29" width="124" height="22" rx="10" ry="10"></rect>
<text x="614" y="44">"IMMEDIATELY"</text>
</g>
<path d="M676 40h20"></path>
</g>
<g>
<path d="M696 40h0"></path>
<path d="M932 40h0"></path>
<path d="M696 40a10 10 0 0 0 10 -10v0a10 10 0 0 1 10 -10"></path>
<g>
<path d="M716 20h196"></path>
</g>
<path d="M912 20a10 10 0 0 1 10 10v0a10 10 0 0 0 10 10"></path>
<path d="M696 40h20"></path>
<g>
<path d="M716 40h0"></path>
<path d="M912 40h0"></path>
<g class="terminal">
<path d="M716 40h0"></path>
<path d="M824 40h0"></path>
<rect x="716" y="29" width="108" height="22" rx="10" ry="10"></rect>
<text x="770" y="44">"EXCLUDING"</text>
</g>
<path d="M824 40h10"></path>
<path d="M834 40h10"></path>
<g class="non-terminal">
<path d="M844 40h0"></path>
<path d="M912 40h0"></path>
<rect x="844" y="29" width="68" height="22"></rect>
<a xlink:href="reuse_source.svg"><text x="878" y="44">Source</text>
</a>
</g>
</g>
<path d="M912 40h20"></path>
</g>
</g>
<path d="M932 40h10"></path>
<path d="M 942 40 h 20 m -10 -10 v 20 m 10 -20 v 20"></path>
</g>
</svg>
