<svg xmlns="http://www.w3.org/2000/svg" xmlns:xlink="http://www.w3.org/1999/xlink" class="railroad-diagram" width="564" height="152" viewBox="0 0 564 152">
<defs>
<style type="text/css"><![CDATA[
path {
stroke-width: 3;
stroke: black;
fill: rgba(0,0,0,0);
}
text {
font: bold 14px monospace;
text-anchor: middle;
}
text.diagram-text {
font-size: 12px;
}
a {
fill: blue;
}
text.diagram-arrow {
font-size: 16px;
}
text.label {
text-anchor: start;
}
text.comment {
font: italic 12px monospace;
}
rect {
stroke-width: 3;
stroke: black;
fill: #BCBCBC;
}
path.diagram-text {
stroke-width: 3;
stroke: black;
fill: #BCBCBC;
cursor: help;
}
]]></style>
</defs>
<g transform="translate(.5 .5)">
<path d="M 20 21 v 20 m 10 -20 v 20 m -10 -10 h 20.5"></path>
<path d="M40 31h10"></path>
<g>
<path d="M50 31h0"></path>
<path d="M514 31h0"></path>
<g class="terminal">
<path d="M50 31h0"></path>
<path d="M182 31h0"></path>
<rect x="50" y="20" width="132" height="22" rx="10" ry="10"></rect>
<text x="116" y="35">"SET RUN TIME"</text>
</g>
<path d="M182 31h10"></path>
<g>
<path d="M192 31h0"></path>
<path d="M514 31h0"></path>
<path d="M192 31h20"></path>
<g>
<path d="M212 31h0"></path>
<path d="M494 31h0"></path>
<g class="terminal">
<path d="M212 31h0"></path>
<path d="M376 31h0"></path>
<rect x="212" y="20" width="164" height="22" rx="10" ry="10"></rect>
<text x="294" y="35">"CLOCK RESOLUTION"</text>
</g>
<path d="M376 31h10"></path>
<g>
<path d="M386 31h0"></path>
<path d="M494 31h0"></path>
<path d="M386 31h20"></path>
<g class="terminal">
<path d="M406 31h0"></path>
<path d="M466 31h8"></path>
<rect x="406" y="20" width="60" height="22" rx="10" ry="10"></rect>
<text x="436" y="35">"LOW"</text>
</g>
<path d="M474 31h20"></path>
<path d="M386 31a10 10 0 0 1 10 10v10a10 10 0 0 0 10 10"></path>
<g class="terminal">
<path d="M406 61h0"></path>
<path d="M474 61h0"></path>
<rect x="406" y="50" width="68" height="22" rx="10" ry="10"></rect>
<text x="440" y="65">"HIGH"</text>
</g>
<path d="M474 61a10 10 0 0 0 10 -10v-10a10 10 0 0 1 10 -10"></path>
</g>
</g>
<path d="M494 31h20"></path>
<path d="M192 31a10 10 0 0 1 10 10v40a10 10 0 0 0 10 10"></path>
<g>
<path d="M212 91h0"></path>
<path d="M422 91h72"></path>
<g class="terminal">
<path d="M212 91h0"></path>
<path d="M312 91h0"></path>
<rect x="212" y="80" width="100" height="22" rx="10" ry="10"></rect>
<text x="262" y="95">"ANALYZER"</text>
</g>
<path d="M312 91h10"></path>
<g>
<path d="M322 91h0"></path>
<path d="M422 91h0"></path>
<path d="M322 91h20"></path>
<g class="terminal">
<path d="M342 91h0"></path>
<path d="M394 91h8"></path>
<rect x="342" y="80" width="52" height="22" rx="10" ry="10"></rect>
<text x="368" y="95">"ON"</text>
</g>
<path d="M402 91h20"></path>
<path d="M322 91a10 10 0 0 1 10 10v10a10 10 0 0 0 10 10"></path>
<g class="terminal">
<path d="M342 121h0"></path>
<path d="M402 121h0"></path>
<rect x="342" y="110" width="60" height="22" rx="10" ry="10"></rect>
<text x="372" y="125">"OFF"</text>
</g>
<path d="M402 121a10 10 0 0 0 10 -10v-10a10 10 0 0 1 10 -10"></path>
</g>
</g>
<path d="M494 91a10 10 0 0 0 10 -10v-40a10 10 0 0 1 10 -10"></path>
</g>
</g>
<path d="M514 31h10"></path>
<path d="M 524 31 h 20 m -10 -10 v 20 m 10 -20 v 20"></path>
</g>
</svg>
