<svg xmlns="http://www.w3.org/2000/svg" xmlns:xlink="http://www.w3.org/1999/xlink" class="railroad-diagram" width="1078" height="349" viewBox="0 0 1078 349">
<defs>
<style type="text/css"><![CDATA[
path {
stroke-width: 3;
stroke: black;
fill: rgba(0,0,0,0);
}
text {
font: bold 14px monospace;
text-anchor: middle;
}
text.diagram-text {
font-size: 12px;
}
a {
fill: blue;
}
text.diagram-arrow {
font-size: 16px;
}
text.label {
text-anchor: start;
}
text.comment {
font: italic 12px monospace;
}
rect {
stroke-width: 3;
stroke: black;
fill: #BCBCBC;
}
path.diagram-text {
stroke-width: 3;
stroke: black;
fill: #BCBCBC;
cursor: help;
}
]]></style>
</defs>
<g transform="translate(.5 .5)">
<path d="M 20 38 v 20 m 10 -20 v 20 m -10 -10 h 20.5"></path>
<path d="M40 48h10"></path>
<g>
<path d="M50 48h0"></path>
<path d="M1028 48h0"></path>
<g class="terminal">
<path d="M50 48h0"></path>
<path d="M126 48h0"></path>
<rect x="50" y="37" width="76" height="22" rx="10" ry="10"></rect>
<text x="88" y="52">"SHIFT"</text>
</g>
<path d="M126 48h10"></path>
<path d="M136 48h10"></path>
<g class="non-terminal">
<path d="M146 48h0"></path>
<path d="M214 48h0"></path>
<rect x="146" y="37" width="68" height="22"></rect>
<a xlink:href="reuse_target.svg"><text x="180" y="52">Target</text>
</a>
</g>
<path d="M214 48h10"></path>
<g>
<path d="M224 48h0"></path>
<path d="M1028 48h0"></path>
<path d="M224 48a10 10 0 0 0 10 -10v-8a10 10 0 0 1 10 -10"></path>
<g>
<path d="M244 20h764"></path>
</g>
<path d="M1008 20a10 10 0 0 1 10 10v8a10 10 0 0 0 10 10"></path>
<path d="M224 48h20"></path>
<g>
<path d="M244 48h0"></path>
<path d="M1008 48h0"></path>
<g>
<path d="M244 48h0"></path>
<path d="M756 48h0"></path>
<path d="M244 48h20"></path>
<g>
<path d="M264 48h0"></path>
<path d="M736 48h0"></path>
<g>
<path d="M264 48h0"></path>
<path d="M524 48h0"></path>
<path d="M264 48h20"></path>
<g class="terminal">
<path d="M284 48h0"></path>
<path d="M488 48h16"></path>
<rect x="284" y="37" width="204" height="22" rx="10" ry="10"></rect>
<text x="386" y="52">"LEFT DELETING LEADING"</text>
</g>
<path d="M504 48h20"></path>
<path d="M264 48a10 10 0 0 1 10 10v10a10 10 0 0 0 10 10"></path>
<g class="terminal">
<path d="M284 78h0"></path>
<path d="M504 78h0"></path>
<rect x="284" y="67" width="220" height="22" rx="10" ry="10"></rect>
<text x="394" y="82">"RIGHT DELETING TRAILING"</text>
</g>
<path d="M504 78a10 10 0 0 0 10 -10v-10a10 10 0 0 1 10 -10"></path>
<path d="M264 48a10 10 0 0 1 10 10v40a10 10 0 0 0 10 10"></path>
<g class="terminal">
<path d="M284 108h0"></path>
<path d="M384 108h120"></path>
<rect x="284" y="97" width="100" height="22" rx="10" ry="10"></rect>
<text x="334" y="112">"RIGHT BY"</text>
</g>
<path d="M504 108a10 10 0 0 0 10 -10v-40a10 10 0 0 1 10 -10"></path>
<path d="M264 48a10 10 0 0 1 10 10v70a10 10 0 0 0 10 10"></path>
<g class="terminal">
<path d="M284 138h0"></path>
<path d="M448 138h56"></path>
<rect x="284" y="127" width="164" height="22" rx="10" ry="10"></rect>
<text x="366" y="142">"LEFT CIRCULAR BY"</text>
</g>
<path d="M504 138a10 10 0 0 0 10 -10v-70a10 10 0 0 1 10 -10"></path>
<path d="M264 48a10 10 0 0 1 10 10v100a10 10 0 0 0 10 10"></path>
<g class="terminal">
<path d="M284 168h0"></path>
<path d="M400 168h104"></path>
<rect x="284" y="157" width="116" height="22" rx="10" ry="10"></rect>
<text x="342" y="172">"LEFT UP TO"</text>
</g>
<path d="M504 168a10 10 0 0 0 10 -10v-100a10 10 0 0 1 10 -10"></path>
<path d="M264 48a10 10 0 0 1 10 10v130a10 10 0 0 0 10 10"></path>
<g class="terminal">
<path d="M284 198h0"></path>
<path d="M376 198h128"></path>
<rect x="284" y="187" width="92" height="22" rx="10" ry="10"></rect>
<text x="330" y="202">"LEFT BY"</text>
</g>
<path d="M504 198a10 10 0 0 0 10 -10v-130a10 10 0 0 1 10 -10"></path>
<path d="M264 48a10 10 0 0 1 10 10v160a10 10 0 0 0 10 10"></path>
<g class="terminal">
<path d="M284 228h0"></path>
<path d="M336 228h168"></path>
<rect x="284" y="217" width="52" height="22" rx="10" ry="10"></rect>
<text x="310" y="232">"BY"</text>
</g>
<path d="M504 228a10 10 0 0 0 10 -10v-160a10 10 0 0 1 10 -10"></path>
</g>
<path d="M524 48h10"></path>
<g class="non-terminal">
<path d="M534 48h0"></path>
<path d="M602 48h0"></path>
<rect x="534" y="37" width="68" height="22"></rect>
<a xlink:href="reuse_source.svg"><text x="568" y="52">Source</text>
</a>
</g>
<path d="M602 48h10"></path>
<g>
<path d="M612 48h0"></path>
<path d="M736 48h0"></path>
<path d="M612 48a10 10 0 0 0 10 -10v0a10 10 0 0 1 10 -10"></path>
<g>
<path d="M632 28h84"></path>
</g>
<path d="M716 28a10 10 0 0 1 10 10v0a10 10 0 0 0 10 10"></path>
<path d="M612 48h20"></path>
<g class="terminal">
<path d="M632 48h0"></path>
<path d="M716 48h0"></path>
<rect x="632" y="37" width="84" height="22" rx="10" ry="10"></rect>
<text x="674" y="52">"PLACES"</text>
</g>
<path d="M716 48h20"></path>
</g>
</g>
<path d="M736 48h20"></path>
<path d="M244 48a10 10 0 0 1 10 10v190a10 10 0 0 0 10 10"></path>
<g class="terminal">
<path d="M264 258h0"></path>
<path d="M340 258h396"></path>
<rect x="264" y="247" width="76" height="22" rx="10" ry="10"></rect>
<text x="302" y="262">"RIGHT"</text>
</g>
<path d="M736 258a10 10 0 0 0 10 -10v-190a10 10 0 0 1 10 -10"></path>
<path d="M244 48a10 10 0 0 1 10 10v220a10 10 0 0 0 10 10"></path>
<g class="terminal">
<path d="M264 288h0"></path>
<path d="M332 288h404"></path>
<rect x="264" y="277" width="68" height="22" rx="10" ry="10"></rect>
<text x="298" y="292">"LEFT"</text>
</g>
<path d="M736 288a10 10 0 0 0 10 -10v-220a10 10 0 0 1 10 -10"></path>
<path d="M244 48a10 10 0 0 1 10 10v250a10 10 0 0 0 10 10"></path>
<g>
<path d="M264 318h0"></path>
<path d="M548 318h188"></path>
<g class="terminal">
<path d="M264 318h0"></path>
<path d="M316 318h0"></path>
<rect x="264" y="307" width="52" height="22" rx="10" ry="10"></rect>
<text x="290" y="322">"BY"</text>
</g>
<path d="M316 318h10"></path>
<path d="M326 318h10"></path>
<g class="non-terminal">
<path d="M336 318h0"></path>
<path d="M404 318h0"></path>
<rect x="336" y="307" width="68" height="22"></rect>
<a xlink:href="reuse_source.svg"><text x="370" y="322">Source</text>
</a>
</g>
<path d="M404 318h10"></path>
<path d="M414 318h10"></path>
<g class="terminal">
<path d="M424 318h0"></path>
<path d="M548 318h0"></path>
<rect x="424" y="307" width="124" height="22" rx="10" ry="10"></rect>
<text x="486" y="322">"PLACES LEFT"</text>
</g>
</g>
<path d="M736 318a10 10 0 0 0 10 -10v-250a10 10 0 0 1 10 -10"></path>
</g>
<g>
<path d="M756 48h0"></path>
<path d="M1008 48h0"></path>
<path d="M756 48a10 10 0 0 0 10 -10v0a10 10 0 0 1 10 -10"></path>
<g>
<path d="M776 28h212"></path>
</g>
<path d="M988 28a10 10 0 0 1 10 10v0a10 10 0 0 0 10 10"></path>
<path d="M756 48h20"></path>
<g>
<path d="M776 48h0"></path>
<path d="M988 48h0"></path>
<path d="M776 48h20"></path>
<g class="terminal">
<path d="M796 48h0"></path>
<path d="M968 48h0"></path>
<rect x="796" y="37" width="172" height="22" rx="10" ry="10"></rect>
<text x="882" y="52">"IN CHARACTER MODE"</text>
</g>
<path d="M968 48h20"></path>
<path d="M776 48a10 10 0 0 1 10 10v10a10 10 0 0 0 10 10"></path>
<g class="terminal">
<path d="M796 78h0"></path>
<path d="M928 78h40"></path>
<rect x="796" y="67" width="132" height="22" rx="10" ry="10"></rect>
<text x="862" y="82">"IN BYTE MODE"</text>
</g>
<path d="M968 78a10 10 0 0 0 10 -10v-10a10 10 0 0 1 10 -10"></path>
</g>
<path d="M988 48h20"></path>
</g>
</g>
<path d="M1008 48h20"></path>
</g>
</g>
<path d="M1028 48h10"></path>
<path d="M 1038 48 h 20 m -10 -10 v 20 m 10 -20 v 20"></path>
</g>
</svg>
