<svg xmlns="http://www.w3.org/2000/svg" xmlns:xlink="http://www.w3.org/1999/xlink" class="railroad-diagram" width="998" height="199" viewBox="0 0 998 199">
<defs>
<style type="text/css"><![CDATA[
path {
stroke-width: 3;
stroke: black;
fill: rgba(0,0,0,0);
}
text {
font: bold 14px monospace;
text-anchor: middle;
}
text.diagram-text {
font-size: 12px;
}
a {
fill: blue;
}
text.diagram-arrow {
font-size: 16px;
}
text.label {
text-anchor: start;
}
text.comment {
font: italic 12px monospace;
}
rect {
stroke-width: 3;
stroke: black;
fill: #BCBCBC;
}
path.diagram-text {
stroke-width: 3;
stroke: black;
fill: #BCBCBC;
cursor: help;
}
]]></style>
</defs>
<g transform="translate(.5 .5)">
<path d="M 20 38 v 20 m 10 -20 v 20 m -10 -10 h 20.5"></path>
<path d="M40 48h10"></path>
<g>
<path d="M50 48h0"></path>
<path d="M948 48h0"></path>
<g class="terminal">
<path d="M50 48h0"></path>
<path d="M126 48h0"></path>
<rect x="50" y="37" width="76" height="22" rx="10" ry="10"></rect>
<text x="88" y="52">"SHIFT"</text>
</g>
<path d="M126 48h10"></path>
<path d="M136 48h10"></path>
<g class="non-terminal">
<path d="M146 48h0"></path>
<path d="M214 48h0"></path>
<rect x="146" y="37" width="68" height="22"></rect>
<a xlink:href="reuse_target.svg"><text x="180" y="52">target</text>
</a>
</g>
<path d="M214 48h10"></path>
<g>
<path d="M224 48h0"></path>
<path d="M948 48h0"></path>
<path d="M224 48a10 10 0 0 0 10 -10v-8a10 10 0 0 1 10 -10"></path>
<g>
<path d="M244 20h684"></path>
</g>
<path d="M928 20a10 10 0 0 1 10 10v8a10 10 0 0 0 10 10"></path>
<path d="M224 48h20"></path>
<g>
<path d="M244 48h0"></path>
<path d="M928 48h0"></path>
<g>
<path d="M244 48h0"></path>
<path d="M504 48h0"></path>
<path d="M244 48h20"></path>
<g class="terminal">
<path d="M264 48h8"></path>
<path d="M476 48h8"></path>
<rect x="272" y="37" width="204" height="22" rx="10" ry="10"></rect>
<text x="374" y="52">"LEFT DELETING LEADING"</text>
</g>
<path d="M484 48h20"></path>
<path d="M244 48a10 10 0 0 1 10 10v10a10 10 0 0 0 10 10"></path>
<g class="terminal">
<path d="M264 78h0"></path>
<path d="M484 78h0"></path>
<rect x="264" y="67" width="220" height="22" rx="10" ry="10"></rect>
<text x="374" y="82">"RIGHT DELETING TRAILING"</text>
</g>
<path d="M484 78a10 10 0 0 0 10 -10v-10a10 10 0 0 1 10 -10"></path>
<path d="M244 48a10 10 0 0 1 10 10v40a10 10 0 0 0 10 10"></path>
<g class="terminal">
<path d="M264 108h60"></path>
<path d="M424 108h60"></path>
<rect x="324" y="97" width="100" height="22" rx="10" ry="10"></rect>
<text x="374" y="112">"RIGHT BY"</text>
</g>
<path d="M484 108a10 10 0 0 0 10 -10v-40a10 10 0 0 1 10 -10"></path>
<path d="M244 48a10 10 0 0 1 10 10v70a10 10 0 0 0 10 10"></path>
<g class="terminal">
<path d="M264 138h64"></path>
<path d="M420 138h64"></path>
<rect x="328" y="127" width="92" height="22" rx="10" ry="10"></rect>
<text x="374" y="142">"LEFT BY"</text>
</g>
<path d="M484 138a10 10 0 0 0 10 -10v-70a10 10 0 0 1 10 -10"></path>
<path d="M244 48a10 10 0 0 1 10 10v100a10 10 0 0 0 10 10"></path>
<g class="terminal">
<path d="M264 168h84"></path>
<path d="M400 168h84"></path>
<rect x="348" y="157" width="52" height="22" rx="10" ry="10"></rect>
<text x="374" y="172">"BY"</text>
</g>
<path d="M484 168a10 10 0 0 0 10 -10v-100a10 10 0 0 1 10 -10"></path>
</g>
<path d="M504 48h10"></path>
<g class="non-terminal">
<path d="M514 48h0"></path>
<path d="M582 48h0"></path>
<rect x="514" y="37" width="68" height="22"></rect>
<a xlink:href="reuse_source.svg"><text x="548" y="52">source</text>
</a>
</g>
<path d="M582 48h10"></path>
<g>
<path d="M592 48h0"></path>
<path d="M716 48h0"></path>
<path d="M592 48a10 10 0 0 0 10 -10v0a10 10 0 0 1 10 -10"></path>
<g>
<path d="M612 28h84"></path>
</g>
<path d="M696 28a10 10 0 0 1 10 10v0a10 10 0 0 0 10 10"></path>
<path d="M592 48h20"></path>
<g class="terminal">
<path d="M612 48h0"></path>
<path d="M696 48h0"></path>
<rect x="612" y="37" width="84" height="22" rx="10" ry="10"></rect>
<text x="654" y="52">"PLACES"</text>
</g>
<path d="M696 48h20"></path>
</g>
<g>
<path d="M716 48h0"></path>
<path d="M928 48h0"></path>
<path d="M716 48a10 10 0 0 0 10 -10v0a10 10 0 0 1 10 -10"></path>
<g>
<path d="M736 28h172"></path>
</g>
<path d="M908 28a10 10 0 0 1 10 10v0a10 10 0 0 0 10 10"></path>
<path d="M716 48h20"></path>
<g class="terminal">
<path d="M736 48h0"></path>
<path d="M908 48h0"></path>
<rect x="736" y="37" width="172" height="22" rx="10" ry="10"></rect>
<text x="822" y="52">"IN CHARACTER MODE"</text>
</g>
<path d="M908 48h20"></path>
</g>
</g>
<path d="M928 48h20"></path>
</g>
</g>
<path d="M948 48h10"></path>
<path d="M 958 48 h 20 m -10 -10 v 20 m 10 -20 v 20"></path>
</g>
</svg>
