<svg xmlns="http://www.w3.org/2000/svg" xmlns:xlink="http://www.w3.org/1999/xlink" class="railroad-diagram" width="682" height="311" viewBox="0 0 682 311">
<defs>
<style type="text/css"><![CDATA[
path {
stroke-width: 3;
stroke: black;
fill: rgba(0,0,0,0);
}
text {
font: bold 14px monospace;
text-anchor: middle;
}
text.diagram-text {
font-size: 12px;
}
a {
fill: blue;
}
text.diagram-arrow {
font-size: 16px;
}
text.label {
text-anchor: start;
}
text.comment {
font: italic 12px monospace;
}
rect {
stroke-width: 3;
stroke: black;
fill: #BCBCBC;
}
path.diagram-text {
stroke-width: 3;
stroke: black;
fill: #BCBCBC;
cursor: help;
}
]]></style>
</defs>
<g transform="translate(.5 .5)">
<path d="M 20 21 v 20 m 10 -20 v 20 m -10 -10 h 20.5"></path>
<path d="M40 31h10"></path>
<g>
<path d="M50 31h0"></path>
<path d="M632 31h0"></path>
<g class="terminal">
<path d="M50 31h0"></path>
<path d="M126 31h0"></path>
<rect x="50" y="20" width="76" height="22" rx="10" ry="10"></rect>
<text x="88" y="35">"SHIFT"</text>
</g>
<path d="M126 31h10"></path>
<path d="M136 31h10"></path>
<g class="non-terminal">
<path d="M146 31h0"></path>
<path d="M214 31h0"></path>
<rect x="146" y="20" width="68" height="22"></rect>
<a xlink:href="reuse_target.svg"><text x="180" y="35">Target</text>
</a>
</g>
<path d="M214 31h10"></path>
<path d="M224 31h10"></path>
<g>
<path d="M234 31h0"></path>
<path d="M632 31h0"></path>
<path d="M264 31h10"></path>
<g>
<path d="M274 31h0"></path>
<path d="M602 31h0"></path>
<g class="terminal">
<path d="M274 31h0"></path>
<path d="M374 31h0"></path>
<rect x="274" y="20" width="100" height="22" rx="10" ry="10"></rect>
<text x="324" y="35">"DELETING"</text>
</g>
<path d="M374 31h10"></path>
<g>
<path d="M384 31h0"></path>
<path d="M524 31h0"></path>
<path d="M384 31h20"></path>
<g class="terminal">
<path d="M404 31h0"></path>
<path d="M496 31h8"></path>
<rect x="404" y="20" width="92" height="22" rx="10" ry="10"></rect>
<text x="450" y="35">"LEADING"</text>
</g>
<path d="M504 31h20"></path>
<path d="M384 31a10 10 0 0 1 10 10v10a10 10 0 0 0 10 10"></path>
<g class="terminal">
<path d="M404 61h0"></path>
<path d="M504 61h0"></path>
<rect x="404" y="50" width="100" height="22" rx="10" ry="10"></rect>
<text x="454" y="65">"TRAILING"</text>
</g>
<path d="M504 61a10 10 0 0 0 10 -10v-10a10 10 0 0 1 10 -10"></path>
</g>
<path d="M524 31h10"></path>
<g class="non-terminal">
<path d="M534 31h0"></path>
<path d="M602 31h0"></path>
<rect x="534" y="20" width="68" height="22"></rect>
<a xlink:href="reuse_source.svg"><text x="568" y="35">Source</text>
</a>
</g>
</g>
<path d="M602 31h10"></path>
<path d="M264 31v50a10 10 0 0 0 10 10"></path>
<g>
<path d="M274 91h0"></path>
<path d="M438 91h164"></path>
<g class="terminal">
<path d="M274 91h0"></path>
<path d="M350 91h0"></path>
<rect x="274" y="80" width="76" height="22" rx="10" ry="10"></rect>
<text x="312" y="95">"UP TO"</text>
</g>
<path d="M350 91h10"></path>
<path d="M360 91h10"></path>
<g class="non-terminal">
<path d="M370 91h0"></path>
<path d="M438 91h0"></path>
<rect x="370" y="80" width="68" height="22"></rect>
<a xlink:href="reuse_source.svg"><text x="404" y="95">Source</text>
</a>
</g>
</g>
<path d="M602 91a10 10 0 0 0 10 -10v-50"></path>
<path d="M264 31v80a10 10 0 0 0 10 10"></path>
<g>
<path d="M274 121h0"></path>
<path d="M562 121h40"></path>
<g class="terminal">
<path d="M274 121h0"></path>
<path d="M326 121h0"></path>
<rect x="274" y="110" width="52" height="22" rx="10" ry="10"></rect>
<text x="300" y="125">"IN"</text>
</g>
<path d="M326 121h10"></path>
<g>
<path d="M336 121h0"></path>
<path d="M484 121h0"></path>
<path d="M336 121h20"></path>
<g class="terminal">
<path d="M356 121h0"></path>
<path d="M464 121h0"></path>
<rect x="356" y="110" width="108" height="22" rx="10" ry="10"></rect>
<text x="410" y="125">"CHARACTER"</text>
</g>
<path d="M464 121h20"></path>
<path d="M336 121a10 10 0 0 1 10 10v10a10 10 0 0 0 10 10"></path>
<g class="terminal">
<path d="M356 151h0"></path>
<path d="M424 151h40"></path>
<rect x="356" y="140" width="68" height="22" rx="10" ry="10"></rect>
<text x="390" y="155">"BYTE"</text>
</g>
<path d="M464 151a10 10 0 0 0 10 -10v-10a10 10 0 0 1 10 -10"></path>
</g>
<path d="M484 121h10"></path>
<g class="terminal">
<path d="M494 121h0"></path>
<path d="M562 121h0"></path>
<rect x="494" y="110" width="68" height="22" rx="10" ry="10"></rect>
<text x="528" y="125">"MODE"</text>
</g>
</g>
<path d="M602 121a10 10 0 0 0 10 -10v-80"></path>
<path d="M264 31v140a10 10 0 0 0 10 10"></path>
<g>
<path d="M274 181h0"></path>
<path d="M390 181h212"></path>
<path d="M274 181h20"></path>
<g class="terminal">
<path d="M294 181h0"></path>
<path d="M362 181h8"></path>
<rect x="294" y="170" width="68" height="22" rx="10" ry="10"></rect>
<text x="328" y="185">"LEFT"</text>
</g>
<path d="M370 181h20"></path>
<path d="M274 181a10 10 0 0 1 10 10v10a10 10 0 0 0 10 10"></path>
<g class="terminal">
<path d="M294 211h0"></path>
<path d="M370 211h0"></path>
<rect x="294" y="200" width="76" height="22" rx="10" ry="10"></rect>
<text x="332" y="215">"RIGHT"</text>
</g>
<path d="M370 211a10 10 0 0 0 10 -10v-10a10 10 0 0 1 10 -10"></path>
</g>
<path d="M602 181a10 10 0 0 0 10 -10v-140"></path>
<path d="M264 31v209a10 10 0 0 0 10 10"></path>
<g>
<path d="M274 250h0"></path>
<path d="M548 250h54"></path>
<g class="terminal">
<path d="M274 250h0"></path>
<path d="M326 250h0"></path>
<rect x="274" y="239" width="52" height="22" rx="10" ry="10"></rect>
<text x="300" y="254">"BY"</text>
</g>
<path d="M326 250h10"></path>
<path d="M336 250h10"></path>
<g class="non-terminal">
<path d="M346 250h0"></path>
<path d="M414 250h0"></path>
<rect x="346" y="239" width="68" height="22"></rect>
<a xlink:href="reuse_source.svg"><text x="380" y="254">Source</text>
</a>
</g>
<path d="M414 250h10"></path>
<g>
<path d="M424 250h0"></path>
<path d="M548 250h0"></path>
<path d="M424 250a10 10 0 0 0 10 -10v0a10 10 0 0 1 10 -10"></path>
<g>
<path d="M444 230h84"></path>
</g>
<path d="M528 230a10 10 0 0 1 10 10v0a10 10 0 0 0 10 10"></path>
<path d="M424 250h20"></path>
<g class="terminal">
<path d="M444 250h0"></path>
<path d="M528 250h0"></path>
<rect x="444" y="239" width="84" height="22" rx="10" ry="10"></rect>
<text x="486" y="254">"PLACES"</text>
</g>
<path d="M528 250h20"></path>
</g>
</g>
<path d="M602 250a10 10 0 0 0 10 -10v-209"></path>
<path d="M264 31v239a10 10 0 0 0 10 10"></path>
<g class="terminal">
<path d="M274 280h0"></path>
<path d="M374 280h228"></path>
<rect x="274" y="269" width="100" height="22" rx="10" ry="10"></rect>
<text x="324" y="284">"CIRCULAR"</text>
</g>
<path d="M602 280a10 10 0 0 0 10 -10v-239"></path>
<g class="diagram-text">
<title>take one or more branches, once each, in any order</title>
<path d="M 264 21 h -26 a 4 4 0 0 0 -4 4 v 12 a 4 4 0 0 0 4 4 h 26 z" class="diagram-text"></path>
<text x="249" y="35" class="diagram-text">1+</text>
<path d="M 612 21 h 16 a 4 4 0 0 1 4 4 v 12 a 4 4 0 0 1 -4 4 h -16 z" class="diagram-text"></path>
<path d="M 619 29 a 4 4 0 1 0 6 -1 m 2.75 -1 h -4 v 4 m 0 -3 h 2" style="stroke-width: 1.75"></path>
</g>
</g>
</g>
<path d="M632 31h10"></path>
<path d="M 642 31 h 20 m -10 -10 v 20 m 10 -20 v 20"></path>
</g>
</svg>
