<?xml version="1.0" encoding="UTF-8" standalone="no"?>
<!DOCTYPE svg PUBLIC "-//W3C//DTD SVG 1.1//EN"
 "http://www.w3.org/Graphics/SVG/1.1/DTD/svg11.dtd">
<!-- Generated by graphviz version 2.38.0 (20140413.2041)
 -->
<!-- Title: shift Pages: 1 -->
<svg width="543pt" height="548pt"
 viewBox="0.00 0.00 542.75 548.00" xmlns="http://www.w3.org/2000/svg" xmlns:xlink="http://www.w3.org/1999/xlink">
<g id="graph0" class="graph" transform="scale(1 1) rotate(0) translate(4 544)">
<title>shift</title>
<polygon fill="white" stroke="none" points="-4,4 -4,-544 538.748,-544 538.748,4 -4,4"/>
<!-- start -->
<g id="node1" class="node"><title>start</title>
<polygon fill="none" stroke="black" points="304.422,-540 250.422,-540 250.422,-504 304.422,-504 304.422,-540"/>
<text text-anchor="middle" x="277.422" y="-517.8" font-family="Times,serif" font-size="14.00">Start</text>
</g>
<!-- node515 -->
<g id="node10" class="node"><title>node515</title>
<ellipse fill="none" stroke="black" cx="277.422" cy="-450" rx="45.9748" ry="18"/>
<text text-anchor="middle" x="277.422" y="-445.8" font-family="Times,serif" font-size="14.00">&quot;SHIFT&quot;</text>
</g>
<!-- start&#45;&gt;node515 -->
<g id="edge15" class="edge"><title>start&#45;&gt;node515</title>
<path fill="none" stroke="black" d="M277.422,-503.697C277.422,-495.983 277.422,-486.712 277.422,-478.112"/>
<polygon fill="black" stroke="black" points="280.922,-478.104 277.422,-468.104 273.922,-478.104 280.922,-478.104"/>
</g>
<!-- end -->
<g id="node2" class="node"><title>end</title>
<polygon fill="none" stroke="black" points="240.422,-36 186.422,-36 186.422,-0 240.422,-0 240.422,-36"/>
<text text-anchor="middle" x="213.422" y="-13.8" font-family="Times,serif" font-size="14.00">End</text>
</g>
<!-- node508 -->
<g id="node3" class="node"><title>node508</title>
<ellipse fill="none" stroke="black" cx="288.422" cy="-90" rx="120.659" ry="18"/>
<text text-anchor="middle" x="288.422" y="-85.8" font-family="Times,serif" font-size="14.00">&quot;IN CHARACTER MODE&quot;</text>
</g>
<!-- node508&#45;&gt;end -->
<g id="edge1" class="edge"><title>node508&#45;&gt;end</title>
<path fill="none" stroke="black" d="M270.267,-72.055C260.939,-63.3492 249.413,-52.5913 239.183,-43.0432"/>
<polygon fill="black" stroke="black" points="241.369,-40.2961 231.67,-36.0316 236.593,-45.4135 241.369,-40.2961"/>
</g>
<!-- node509 -->
<g id="node4" class="node"><title>node509</title>
<ellipse fill="none" stroke="black" cx="371.422" cy="-162" rx="54.7237" ry="18"/>
<text text-anchor="middle" x="371.422" y="-157.8" font-family="Times,serif" font-size="14.00">&quot;PLACES&quot;</text>
</g>
<!-- node509&#45;&gt;end -->
<g id="edge3" class="edge"><title>node509&#45;&gt;end</title>
<path fill="none" stroke="black" d="M390.636,-144.908C410.537,-126.286 436.395,-95.2105 418.422,-72 398.061,-45.705 304.074,-30.1039 250.709,-23.2157"/>
<polygon fill="black" stroke="black" points="250.968,-19.7209 240.611,-21.9536 250.1,-26.6669 250.968,-19.7209"/>
</g>
<!-- node509&#45;&gt;node508 -->
<g id="edge2" class="edge"><title>node509&#45;&gt;node508</title>
<path fill="none" stroke="black" d="M352.172,-144.765C341.51,-135.773 328.068,-124.436 316.278,-114.493"/>
<polygon fill="black" stroke="black" points="318.336,-111.65 308.435,-107.878 313.823,-117.001 318.336,-111.65"/>
</g>
<!-- node510 -->
<g id="node5" class="node"><title>node510</title>
<g id="a_node5"><a xlink:href="reuse_source.svg" xlink:title="&lt;u&gt;source&lt;/u&gt;">
<ellipse fill="none" stroke="black" cx="329.422" cy="-234" rx="36.4761" ry="18"/>
<text text-anchor="start" x="311.155" y="-230.8" font-family="Times,serif" text-decoration="underline" font-size="14.00" fill="blue">source</text>
</a>
</g>
</g>
<!-- node510&#45;&gt;end -->
<g id="edge6" class="edge"><title>node510&#45;&gt;end</title>
<path fill="none" stroke="black" d="M301.416,-222.24C261.156,-205.052 188.47,-167.186 158.422,-108 151.179,-93.7334 152.163,-86.7248 158.422,-72 163.157,-60.8623 171.506,-50.9298 180.291,-42.7587"/>
<polygon fill="black" stroke="black" points="182.774,-45.2377 188.043,-36.0455 178.192,-39.9461 182.774,-45.2377"/>
</g>
<!-- node510&#45;&gt;node508 -->
<g id="edge5" class="edge"><title>node510&#45;&gt;node508</title>
<path fill="none" stroke="black" d="M321.478,-216.108C316.886,-205.84 311.273,-192.366 307.422,-180 301.09,-159.667 296.159,-136.073 292.909,-118.288"/>
<polygon fill="black" stroke="black" points="296.331,-117.542 291.148,-108.302 289.437,-118.758 296.331,-117.542"/>
</g>
<!-- node510&#45;&gt;node509 -->
<g id="edge4" class="edge"><title>node510&#45;&gt;node509</title>
<path fill="none" stroke="black" d="M339.376,-216.411C344.324,-208.163 350.417,-198.009 355.956,-188.777"/>
<polygon fill="black" stroke="black" points="359.105,-190.332 361.248,-179.956 353.102,-186.73 359.105,-190.332"/>
</g>
<!-- node511 -->
<g id="node6" class="node"><title>node511</title>
<ellipse fill="none" stroke="black" cx="167.422" cy="-306" rx="137.371" ry="18"/>
<text text-anchor="middle" x="167.422" y="-301.8" font-family="Times,serif" font-size="14.00">&quot;LEFT DELETING LEADING&quot;</text>
</g>
<!-- node511&#45;&gt;node510 -->
<g id="edge7" class="edge"><title>node511&#45;&gt;node510</title>
<path fill="none" stroke="black" d="M205.404,-288.588C232.057,-277.071 267.465,-261.772 293.622,-250.469"/>
<polygon fill="black" stroke="black" points="295.016,-253.68 302.807,-246.5 292.239,-247.254 295.016,-253.68"/>
</g>
<!-- node512 -->
<g id="node7" class="node"><title>node512</title>
<ellipse fill="none" stroke="black" cx="387.422" cy="-306" rx="64.476" ry="18"/>
<text text-anchor="middle" x="387.422" y="-301.8" font-family="Times,serif" font-size="14.00">&quot;RIGHT BY&quot;</text>
</g>
<!-- node512&#45;&gt;node510 -->
<g id="edge8" class="edge"><title>node512&#45;&gt;node510</title>
<path fill="none" stroke="black" d="M373.677,-288.411C366.349,-279.567 357.205,-268.531 349.133,-258.789"/>
<polygon fill="black" stroke="black" points="351.745,-256.455 342.669,-250.988 346.355,-260.921 351.745,-256.455"/>
</g>
<!-- node513 -->
<g id="node8" class="node"><title>node513</title>
<ellipse fill="none" stroke="black" cx="502.422" cy="-306" rx="32.1533" ry="18"/>
<text text-anchor="middle" x="502.422" y="-301.8" font-family="Times,serif" font-size="14.00">&quot;BY&quot;</text>
</g>
<!-- node513&#45;&gt;node510 -->
<g id="edge9" class="edge"><title>node513&#45;&gt;node510</title>
<path fill="none" stroke="black" d="M476.895,-294.671C447.639,-282.833 399.448,-263.334 366.159,-249.865"/>
<polygon fill="black" stroke="black" points="367.352,-246.572 356.769,-246.065 364.726,-253.061 367.352,-246.572"/>
</g>
<!-- node514 -->
<g id="node9" class="node"><title>node514</title>
<g id="a_node9"><a xlink:href="reuse_target.svg" xlink:title="&lt;u&gt;target&lt;/u&gt;">
<ellipse fill="none" stroke="black" cx="277.422" cy="-378" rx="33.0411" ry="18"/>
<text text-anchor="start" x="261.487" y="-374.8" font-family="Times,serif" text-decoration="underline" font-size="14.00" fill="blue">target</text>
</a>
</g>
</g>
<!-- node514&#45;&gt;end -->
<g id="edge13" class="edge"><title>node514&#45;&gt;end</title>
<path fill="none" stroke="black" d="M244.666,-374.6C182.889,-369.395 52.5683,-354.954 21.4221,-324 -7.26637,-295.488 2.42212,-275.447 2.42212,-235 2.42212,-235 2.42212,-235 2.42212,-161 2.42212,-78.1457 115.786,-40.4613 176.325,-26.2441"/>
<polygon fill="black" stroke="black" points="177.281,-29.6166 186.27,-24.008 175.745,-22.7872 177.281,-29.6166"/>
</g>
<!-- node514&#45;&gt;node511 -->
<g id="edge10" class="edge"><title>node514&#45;&gt;node511</title>
<path fill="none" stroke="black" d="M256.732,-363.834C241.436,-354.1 220.245,-340.614 202.343,-329.222"/>
<polygon fill="black" stroke="black" points="204.175,-326.24 193.86,-323.824 200.417,-332.145 204.175,-326.24"/>
</g>
<!-- node514&#45;&gt;node512 -->
<g id="edge11" class="edge"><title>node514&#45;&gt;node512</title>
<path fill="none" stroke="black" d="M298.112,-363.834C313.836,-353.827 335.79,-339.857 353.995,-328.271"/>
<polygon fill="black" stroke="black" points="356.031,-331.125 362.588,-322.803 352.272,-325.219 356.031,-331.125"/>
</g>
<!-- node514&#45;&gt;node513 -->
<g id="edge12" class="edge"><title>node514&#45;&gt;node513</title>
<path fill="none" stroke="black" d="M306.872,-369.47C343.277,-359.934 406.973,-342.502 460.422,-324 462.829,-323.167 465.298,-322.273 467.777,-321.346"/>
<polygon fill="black" stroke="black" points="469.201,-324.548 477.262,-317.672 466.673,-318.02 469.201,-324.548"/>
</g>
<!-- node515&#45;&gt;node514 -->
<g id="edge14" class="edge"><title>node515&#45;&gt;node514</title>
<path fill="none" stroke="black" d="M277.422,-431.697C277.422,-423.983 277.422,-414.712 277.422,-406.112"/>
<polygon fill="black" stroke="black" points="280.922,-406.104 277.422,-396.104 273.922,-406.104 280.922,-406.104"/>
</g>
</g>
</svg>
