<svg xmlns="http://www.w3.org/2000/svg" xmlns:xlink="http://www.w3.org/1999/xlink" class="railroad-diagram" width="836" height="238" viewBox="0 0 836 238">
<defs>
<style type="text/css"><![CDATA[
path {
stroke-width: 3;
stroke: black;
fill: rgba(0,0,0,0);
}
text {
font: bold 14px monospace;
text-anchor: middle;
}
text.diagram-text {
font-size: 12px;
}
a {
fill: blue;
}
text.diagram-arrow {
font-size: 16px;
}
text.label {
text-anchor: start;
}
text.comment {
font: italic 12px monospace;
}
rect {
stroke-width: 3;
stroke: black;
fill: #BCBCBC;
}
path.diagram-text {
stroke-width: 3;
stroke: black;
fill: #BCBCBC;
cursor: help;
}
]]></style>
</defs>
<g transform="translate(.5 .5)">
<path d="M 20 30 v 20 m 10 -20 v 20 m -10 -10 h 20.5"></path>
<path d="M40 40h10"></path>
<g>
<path d="M50 40h0"></path>
<path d="M786 40h0"></path>
<g class="terminal">
<path d="M50 40h0"></path>
<path d="M118 40h0"></path>
<rect x="50" y="29" width="68" height="22" rx="10" ry="10"></rect>
<text x="84" y="44">"SORT"</text>
</g>
<path d="M118 40h10"></path>
<path d="M128 40h10"></path>
<g>
<path d="M138 40h0"></path>
<path d="M644 40h0"></path>
<path d="M168 40h10"></path>
<g>
<path d="M178 40h0"></path>
<path d="M614 40h0"></path>
<g class="terminal">
<path d="M178 40h0"></path>
<path d="M230 40h0"></path>
<rect x="178" y="29" width="52" height="22" rx="10" ry="10"></rect>
<text x="204" y="44">"BY"</text>
</g>
<path d="M230 40h10"></path>
<path d="M240 40h10"></path>
<g>
<path d="M250 40h0"></path>
<path d="M614 40h0"></path>
<path d="M250 40h10"></path>
<g>
<path d="M260 40h0"></path>
<path d="M604 40h0"></path>
<g>
<path d="M260 40h0"></path>
<path d="M408 40h0"></path>
<path d="M260 40h20"></path>
<g class="non-terminal">
<path d="M280 40h0"></path>
<path d="M364 40h24"></path>
<rect x="280" y="29" width="84" height="22"></rect>
<a xlink:href="reuse_fieldsub.svg"><text x="322" y="44">FieldSub</text>
</a>
</g>
<path d="M388 40h20"></path>
<path d="M260 40a10 10 0 0 1 10 10v10a10 10 0 0 0 10 10"></path>
<g class="non-terminal">
<path d="M280 70h0"></path>
<path d="M388 70h0"></path>
<rect x="280" y="59" width="108" height="22"></rect>
<a xlink:href="reuse_fieldsymbol.svg"><text x="334" y="74">FieldSymbol</text>
</a>
</g>
<path d="M388 70a10 10 0 0 0 10 -10v-10a10 10 0 0 1 10 -10"></path>
<path d="M260 40a10 10 0 0 1 10 10v40a10 10 0 0 0 10 10"></path>
<g class="non-terminal">
<path d="M280 100h0"></path>
<path d="M356 100h32"></path>
<rect x="280" y="89" width="76" height="22"></rect>
<a xlink:href="reuse_dynamic.svg"><text x="318" y="104">Dynamic</text>
</a>
</g>
<path d="M388 100a10 10 0 0 0 10 -10v-40a10 10 0 0 1 10 -10"></path>
</g>
<g>
<path d="M408 40h0"></path>
<path d="M604 40h0"></path>
<path d="M408 40a10 10 0 0 0 10 -10v0a10 10 0 0 1 10 -10"></path>
<g>
<path d="M428 20h156"></path>
</g>
<path d="M584 20a10 10 0 0 1 10 10v0a10 10 0 0 0 10 10"></path>
<path d="M408 40h20"></path>
<g>
<path d="M428 40h0"></path>
<path d="M584 40h0"></path>
<path d="M428 40h20"></path>
<g class="terminal">
<path d="M448 40h0"></path>
<path d="M556 40h8"></path>
<rect x="448" y="29" width="108" height="22" rx="10" ry="10"></rect>
<text x="502" y="44">"ASCENDING"</text>
</g>
<path d="M564 40h20"></path>
<path d="M428 40a10 10 0 0 1 10 10v10a10 10 0 0 0 10 10"></path>
<g class="terminal">
<path d="M448 70h0"></path>
<path d="M564 70h0"></path>
<rect x="448" y="59" width="116" height="22" rx="10" ry="10"></rect>
<text x="506" y="74">"DESCENDING"</text>
</g>
<path d="M564 70a10 10 0 0 0 10 -10v-10a10 10 0 0 1 10 -10"></path>
</g>
<path d="M584 40h20"></path>
</g>
</g>
<path d="M604 40h10"></path>
<path d="M260 40a10 10 0 0 0 -10 10v59a10 10 0 0 0 10 10"></path>
<g>
<path d="M260 119h344"></path>
</g>
<path d="M604 119a10 10 0 0 0 10 -10v-59a10 10 0 0 0 -10 -10"></path>
</g>
</g>
<path d="M614 40h10"></path>
<path d="M168 40v97a10 10 0 0 0 10 10"></path>
<g>
<path d="M178 147h0"></path>
<path d="M492 147h122"></path>
<g class="non-terminal">
<path d="M178 147h0"></path>
<path d="M246 147h0"></path>
<rect x="178" y="136" width="68" height="22"></rect>
<a xlink:href="reuse_target.svg"><text x="212" y="151">Target</text>
</a>
</g>
<path d="M246 147h10"></path>
<g>
<path d="M256 147h0"></path>
<path d="M492 147h0"></path>
<path d="M256 147a10 10 0 0 0 10 -10v0a10 10 0 0 1 10 -10"></path>
<g>
<path d="M276 127h196"></path>
</g>
<path d="M472 127a10 10 0 0 1 10 10v0a10 10 0 0 0 10 10"></path>
<path d="M256 147h20"></path>
<g>
<path d="M276 147h0"></path>
<path d="M472 147h0"></path>
<path d="M276 147h20"></path>
<g class="terminal">
<path d="M296 147h0"></path>
<path d="M380 147h72"></path>
<rect x="296" y="136" width="84" height="22" rx="10" ry="10"></rect>
<text x="338" y="151">"STABLE"</text>
</g>
<path d="M452 147h20"></path>
<path d="M276 147a10 10 0 0 1 10 10v10a10 10 0 0 0 10 10"></path>
<g>
<path d="M296 177h0"></path>
<path d="M452 177h0"></path>
<path d="M296 177h20"></path>
<g class="terminal">
<path d="M316 177h0"></path>
<path d="M424 177h8"></path>
<rect x="316" y="166" width="108" height="22" rx="10" ry="10"></rect>
<text x="370" y="181">"ASCENDING"</text>
</g>
<path d="M432 177h20"></path>
<path d="M296 177a10 10 0 0 1 10 10v10a10 10 0 0 0 10 10"></path>
<g class="terminal">
<path d="M316 207h0"></path>
<path d="M432 207h0"></path>
<rect x="316" y="196" width="116" height="22" rx="10" ry="10"></rect>
<text x="374" y="211">"DESCENDING"</text>
</g>
<path d="M432 207a10 10 0 0 0 10 -10v-10a10 10 0 0 1 10 -10"></path>
</g>
<path d="M452 177a10 10 0 0 0 10 -10v-10a10 10 0 0 1 10 -10"></path>
</g>
<path d="M472 147h20"></path>
</g>
</g>
<path d="M614 147a10 10 0 0 0 10 -10v-97"></path>
<g class="diagram-text">
<title>take one or more branches, once each, in any order</title>
<path d="M 168 30 h -26 a 4 4 0 0 0 -4 4 v 12 a 4 4 0 0 0 4 4 h 26 z" class="diagram-text"></path>
<text x="153" y="44" class="diagram-text">1+</text>
<path d="M 624 30 h 16 a 4 4 0 0 1 4 4 v 12 a 4 4 0 0 1 -4 4 h -16 z" class="diagram-text"></path>
<path d="M 631 38 a 4 4 0 1 0 6 -1 m 2.75 -1 h -4 v 4 m 0 -3 h 2" style="stroke-width: 1.75"></path>
</g>
</g>
<path d="M644 40h10"></path>
<g>
<path d="M654 40h0"></path>
<path d="M786 40h0"></path>
<path d="M654 40a10 10 0 0 0 10 -10v0a10 10 0 0 1 10 -10"></path>
<g>
<path d="M674 20h92"></path>
</g>
<path d="M766 20a10 10 0 0 1 10 10v0a10 10 0 0 0 10 10"></path>
<path d="M654 40h20"></path>
<g class="terminal">
<path d="M674 40h0"></path>
<path d="M766 40h0"></path>
<rect x="674" y="29" width="92" height="22" rx="10" ry="10"></rect>
<text x="720" y="44">"AS TEXT"</text>
</g>
<path d="M766 40h20"></path>
</g>
</g>
<path d="M786 40h10"></path>
<path d="M 796 40 h 20 m -10 -10 v 20 m 10 -20 v 20"></path>
</g>
</svg>
