<svg xmlns="http://www.w3.org/2000/svg" xmlns:xlink="http://www.w3.org/1999/xlink" class="railroad-diagram" width="1140" height="177" viewBox="0 0 1140 177">
<defs>
<style type="text/css"><![CDATA[
path {
stroke-width: 3;
stroke: black;
fill: rgba(0,0,0,0);
}
text {
font: bold 14px monospace;
text-anchor: middle;
}
text.diagram-text {
font-size: 12px;
}
a {
fill: blue;
}
text.diagram-arrow {
font-size: 16px;
}
text.label {
text-anchor: start;
}
text.comment {
font: italic 12px monospace;
}
rect {
stroke-width: 3;
stroke: black;
fill: #BCBCBC;
}
path.diagram-text {
stroke-width: 3;
stroke: black;
fill: #BCBCBC;
cursor: help;
}
]]></style>
</defs>
<g transform="translate(.5 .5)">
<path d="M 20 38 v 20 m 10 -20 v 20 m -10 -10 h 20.5"></path>
<path d="M40 48h10"></path>
<g>
<path d="M50 48h0"></path>
<path d="M1090 48h0"></path>
<g class="terminal">
<path d="M50 48h0"></path>
<path d="M118 48h0"></path>
<rect x="50" y="37" width="68" height="22" rx="10" ry="10"></rect>
<text x="84" y="52">"SORT"</text>
</g>
<path d="M118 48h10"></path>
<path d="M128 48h10"></path>
<g class="non-terminal">
<path d="M138 48h0"></path>
<path d="M206 48h0"></path>
<rect x="138" y="37" width="68" height="22"></rect>
<a xlink:href="reuse_target.svg"><text x="172" y="52">Target</text>
</a>
</g>
<path d="M206 48h10"></path>
<g>
<path d="M216 48h0"></path>
<path d="M452 48h0"></path>
<path d="M216 48a10 10 0 0 0 10 -10v0a10 10 0 0 1 10 -10"></path>
<g>
<path d="M236 28h196"></path>
</g>
<path d="M432 28a10 10 0 0 1 10 10v0a10 10 0 0 0 10 10"></path>
<path d="M216 48h20"></path>
<g>
<path d="M236 48h0"></path>
<path d="M432 48h0"></path>
<path d="M236 48h20"></path>
<g class="terminal">
<path d="M256 48h0"></path>
<path d="M340 48h72"></path>
<rect x="256" y="37" width="84" height="22" rx="10" ry="10"></rect>
<text x="298" y="52">"STABLE"</text>
</g>
<path d="M412 48h20"></path>
<path d="M236 48a10 10 0 0 1 10 10v10a10 10 0 0 0 10 10"></path>
<g>
<path d="M256 78h0"></path>
<path d="M412 78h0"></path>
<path d="M256 78h20"></path>
<g class="terminal">
<path d="M276 78h0"></path>
<path d="M384 78h8"></path>
<rect x="276" y="67" width="108" height="22" rx="10" ry="10"></rect>
<text x="330" y="82">"ASCENDING"</text>
</g>
<path d="M392 78h20"></path>
<path d="M256 78a10 10 0 0 1 10 10v10a10 10 0 0 0 10 10"></path>
<g class="terminal">
<path d="M276 108h0"></path>
<path d="M392 108h0"></path>
<rect x="276" y="97" width="116" height="22" rx="10" ry="10"></rect>
<text x="334" y="112">"DESCENDING"</text>
</g>
<path d="M392 108a10 10 0 0 0 10 -10v-10a10 10 0 0 1 10 -10"></path>
</g>
<path d="M412 78a10 10 0 0 0 10 -10v-10a10 10 0 0 1 10 -10"></path>
</g>
<path d="M432 48h20"></path>
</g>
<g>
<path d="M452 48h0"></path>
<path d="M1090 48h0"></path>
<path d="M452 48a10 10 0 0 0 10 -10v-8a10 10 0 0 1 10 -10"></path>
<g>
<path d="M472 20h598"></path>
</g>
<path d="M1070 20a10 10 0 0 1 10 10v8a10 10 0 0 0 10 10"></path>
<path d="M452 48h20"></path>
<g>
<path d="M472 48h0"></path>
<path d="M1070 48h0"></path>
<g class="terminal">
<path d="M472 48h0"></path>
<path d="M524 48h0"></path>
<rect x="472" y="37" width="52" height="22" rx="10" ry="10"></rect>
<text x="498" y="52">"BY"</text>
</g>
<path d="M524 48h10"></path>
<g>
<path d="M534 48h0"></path>
<path d="M1070 48h0"></path>
<path d="M534 48h20"></path>
<g>
<path d="M554 48h0"></path>
<path d="M1050 48h0"></path>
<path d="M554 48h10"></path>
<g>
<path d="M564 48h0"></path>
<path d="M1040 48h0"></path>
<g>
<path d="M564 48h0"></path>
<path d="M712 48h0"></path>
<path d="M564 48h20"></path>
<g class="non-terminal">
<path d="M584 48h0"></path>
<path d="M668 48h24"></path>
<rect x="584" y="37" width="84" height="22"></rect>
<a xlink:href="reuse_fieldsub.svg"><text x="626" y="52">FieldSub</text>
</a>
</g>
<path d="M692 48h20"></path>
<path d="M564 48a10 10 0 0 1 10 10v10a10 10 0 0 0 10 10"></path>
<g class="non-terminal">
<path d="M584 78h0"></path>
<path d="M692 78h0"></path>
<rect x="584" y="67" width="108" height="22"></rect>
<a xlink:href="reuse_fieldsymbol.svg"><text x="638" y="82">FieldSymbol</text>
</a>
</g>
<path d="M692 78a10 10 0 0 0 10 -10v-10a10 10 0 0 1 10 -10"></path>
<path d="M564 48a10 10 0 0 1 10 10v40a10 10 0 0 0 10 10"></path>
<g class="non-terminal">
<path d="M584 108h0"></path>
<path d="M660 108h32"></path>
<rect x="584" y="97" width="76" height="22"></rect>
<a xlink:href="reuse_dynamic.svg"><text x="622" y="112">Dynamic</text>
</a>
</g>
<path d="M692 108a10 10 0 0 0 10 -10v-40a10 10 0 0 1 10 -10"></path>
</g>
<g>
<path d="M712 48h0"></path>
<path d="M908 48h0"></path>
<path d="M712 48a10 10 0 0 0 10 -10v0a10 10 0 0 1 10 -10"></path>
<g>
<path d="M732 28h156"></path>
</g>
<path d="M888 28a10 10 0 0 1 10 10v0a10 10 0 0 0 10 10"></path>
<path d="M712 48h20"></path>
<g>
<path d="M732 48h0"></path>
<path d="M888 48h0"></path>
<path d="M732 48h20"></path>
<g class="terminal">
<path d="M752 48h0"></path>
<path d="M860 48h8"></path>
<rect x="752" y="37" width="108" height="22" rx="10" ry="10"></rect>
<text x="806" y="52">"ASCENDING"</text>
</g>
<path d="M868 48h20"></path>
<path d="M732 48a10 10 0 0 1 10 10v10a10 10 0 0 0 10 10"></path>
<g class="terminal">
<path d="M752 78h0"></path>
<path d="M868 78h0"></path>
<rect x="752" y="67" width="116" height="22" rx="10" ry="10"></rect>
<text x="810" y="82">"DESCENDING"</text>
</g>
<path d="M868 78a10 10 0 0 0 10 -10v-10a10 10 0 0 1 10 -10"></path>
</g>
<path d="M888 48h20"></path>
</g>
<g>
<path d="M908 48h0"></path>
<path d="M1040 48h0"></path>
<path d="M908 48a10 10 0 0 0 10 -10v0a10 10 0 0 1 10 -10"></path>
<g>
<path d="M928 28h92"></path>
</g>
<path d="M1020 28a10 10 0 0 1 10 10v0a10 10 0 0 0 10 10"></path>
<path d="M908 48h20"></path>
<g class="terminal">
<path d="M928 48h0"></path>
<path d="M1020 48h0"></path>
<rect x="928" y="37" width="92" height="22" rx="10" ry="10"></rect>
<text x="974" y="52">"AS TEXT"</text>
</g>
<path d="M1020 48h20"></path>
</g>
</g>
<path d="M1040 48h10"></path>
<path d="M564 48a10 10 0 0 0 -10 10v59a10 10 0 0 0 10 10"></path>
<g>
<path d="M564 127h476"></path>
</g>
<path d="M1040 127a10 10 0 0 0 10 -10v-59a10 10 0 0 0 -10 -10"></path>
</g>
<path d="M1050 48h20"></path>
<path d="M534 48a10 10 0 0 1 10 10v78a10 10 0 0 0 10 10"></path>
<g class="non-terminal">
<path d="M554 146h0"></path>
<path d="M630 146h420"></path>
<rect x="554" y="135" width="76" height="22"></rect>
<a xlink:href="reuse_dynamic.svg"><text x="592" y="150">Dynamic</text>
</a>
</g>
<path d="M1050 146a10 10 0 0 0 10 -10v-78a10 10 0 0 1 10 -10"></path>
</g>
</g>
<path d="M1070 48h20"></path>
</g>
</g>
<path d="M1090 48h10"></path>
<path d="M 1100 48 h 20 m -10 -10 v 20 m 10 -20 v 20"></path>
</g>
</svg>
