<?xml version="1.0" encoding="UTF-8" standalone="no"?>
<!DOCTYPE svg PUBLIC "-//W3C//DTD SVG 1.1//EN"
 "http://www.w3.org/Graphics/SVG/1.1/DTD/svg11.dtd">
<!-- Generated by graphviz version 2.38.0 (20140413.2041)
 -->
<!-- Title: sort Pages: 1 -->
<svg width="497pt" height="764pt"
 viewBox="0.00 0.00 497.19 764.00" xmlns="http://www.w3.org/2000/svg" xmlns:xlink="http://www.w3.org/1999/xlink">
<g id="graph0" class="graph" transform="scale(1 1) rotate(0) translate(4 760)">
<title>sort</title>
<polygon fill="white" stroke="none" points="-4,4 -4,-760 493.187,-760 493.187,4 -4,4"/>
<!-- start -->
<g id="node1" class="node"><title>start</title>
<polygon fill="none" stroke="black" points="105,-756 51,-756 51,-720 105,-720 105,-756"/>
<text text-anchor="middle" x="78" y="-733.8" font-family="Times,serif" font-size="14.00">Start</text>
</g>
<!-- node438 -->
<g id="node14" class="node"><title>node438</title>
<ellipse fill="none" stroke="black" cx="78" cy="-666" rx="43.6881" ry="18"/>
<text text-anchor="middle" x="78" y="-661.8" font-family="Times,serif" font-size="14.00">&quot;SORT&quot;</text>
</g>
<!-- start&#45;&gt;node438 -->
<g id="edge29" class="edge"><title>start&#45;&gt;node438</title>
<path fill="none" stroke="black" d="M78,-719.697C78,-711.983 78,-702.712 78,-694.112"/>
<polygon fill="black" stroke="black" points="81.5001,-694.104 78,-684.104 74.5001,-694.104 81.5001,-694.104"/>
</g>
<!-- end -->
<g id="node2" class="node"><title>end</title>
<polygon fill="none" stroke="black" points="54,-180 0,-180 0,-144 54,-144 54,-180"/>
<text text-anchor="middle" x="27" y="-157.8" font-family="Times,serif" font-size="14.00">End</text>
</g>
<!-- node427 -->
<g id="node3" class="node"><title>node427</title>
<ellipse fill="none" stroke="black" cx="167" cy="-234" rx="42.879" ry="18"/>
<text text-anchor="middle" x="167" y="-229.8" font-family="Times,serif" font-size="14.00">Dummy</text>
</g>
<!-- node427&#45;&gt;end -->
<g id="edge11" class="edge"><title>node427&#45;&gt;end</title>
<path fill="none" stroke="black" d="M140.338,-219.669C118.486,-208.743 87.3443,-193.172 63.2324,-181.116"/>
<polygon fill="black" stroke="black" points="64.5496,-177.862 54.0401,-176.52 61.4191,-184.123 64.5496,-177.862"/>
</g>
<!-- node431 -->
<g id="node7" class="node"><title>node431</title>
<g id="a_node7"><a xlink:href="reuse_field_sub.svg" xlink:title="&lt;u&gt;field_sub&lt;/u&gt;">
<ellipse fill="none" stroke="black" cx="324" cy="-162" rx="46.9497" ry="18"/>
<text text-anchor="start" x="297.95" y="-158.8" font-family="Times,serif" text-decoration="underline" font-size="14.00" fill="blue">field_sub</text>
</a>
</g>
</g>
<!-- node427&#45;&gt;node431 -->
<g id="edge10" class="edge"><title>node427&#45;&gt;node431</title>
<path fill="none" stroke="black" d="M192.163,-219.337C216.474,-207.791 253.507,-191.235 282.205,-179.057"/>
<polygon fill="black" stroke="black" points="283.728,-182.214 291.587,-175.109 281.012,-175.762 283.728,-182.214"/>
</g>
<!-- node428 -->
<g id="node4" class="node"><title>node428</title>
<ellipse fill="none" stroke="black" cx="277" cy="-18" rx="58.1768" ry="18"/>
<text text-anchor="middle" x="277" y="-13.8" font-family="Times,serif" font-size="14.00">&quot;AS TEXT&quot;</text>
</g>
<!-- node428&#45;&gt;node427 -->
<g id="edge1" class="edge"><title>node428&#45;&gt;node427</title>
<path fill="none" stroke="black" d="M218.609,-19.6144C178.505,-23.4769 127.84,-35.8873 101,-72 68.8027,-115.321 113.701,-176.599 143.761,-209.665"/>
<polygon fill="black" stroke="black" points="141.274,-212.13 150.657,-217.049 146.39,-207.352 141.274,-212.13"/>
</g>
<!-- node429 -->
<g id="node5" class="node"><title>node429</title>
<ellipse fill="none" stroke="black" cx="364" cy="-90" rx="74.8887" ry="18"/>
<text text-anchor="middle" x="364" y="-85.8" font-family="Times,serif" font-size="14.00">&quot;ASCENDING&quot;</text>
</g>
<!-- node429&#45;&gt;node427 -->
<g id="edge3" class="edge"><title>node429&#45;&gt;node427</title>
<path fill="none" stroke="black" d="M332.274,-106.3C313.054,-116.102 288.393,-129.644 268,-144 239.488,-164.072 209.904,-190.977 190.183,-209.933"/>
<polygon fill="black" stroke="black" points="187.612,-207.55 182.876,-217.027 192.489,-212.573 187.612,-207.55"/>
</g>
<!-- node429&#45;&gt;node428 -->
<g id="edge2" class="edge"><title>node429&#45;&gt;node428</title>
<path fill="none" stroke="black" d="M343.382,-72.411C331.841,-63.1248 317.295,-51.4214 304.763,-41.3384"/>
<polygon fill="black" stroke="black" points="306.856,-38.53 296.871,-34.9881 302.468,-43.9838 306.856,-38.53"/>
</g>
<!-- node430 -->
<g id="node6" class="node"><title>node430</title>
<ellipse fill="none" stroke="black" cx="191" cy="-90" rx="80.6872" ry="18"/>
<text text-anchor="middle" x="191" y="-85.8" font-family="Times,serif" font-size="14.00">&quot;DESCENDING&quot;</text>
</g>
<!-- node430&#45;&gt;node427 -->
<g id="edge5" class="edge"><title>node430&#45;&gt;node427</title>
<path fill="none" stroke="black" d="M188.095,-108.189C183.999,-132.424 176.484,-176.888 171.618,-205.679"/>
<polygon fill="black" stroke="black" points="168.11,-205.428 169.895,-215.871 175.013,-206.595 168.11,-205.428"/>
</g>
<!-- node430&#45;&gt;node428 -->
<g id="edge4" class="edge"><title>node430&#45;&gt;node428</title>
<path fill="none" stroke="black" d="M211.381,-72.411C222.79,-63.1248 237.168,-51.4214 249.556,-41.3384"/>
<polygon fill="black" stroke="black" points="251.811,-44.0153 257.357,-34.9881 247.392,-38.5864 251.811,-44.0153"/>
</g>
<!-- node431&#45;&gt;node427 -->
<g id="edge9" class="edge"><title>node431&#45;&gt;node427</title>
<path fill="none" stroke="black" d="M297.886,-177.114C273.166,-188.828 235.913,-205.463 207.397,-217.535"/>
<polygon fill="black" stroke="black" points="205.958,-214.343 198.092,-221.441 208.667,-220.798 205.958,-214.343"/>
</g>
<!-- node431&#45;&gt;node428 -->
<g id="edge8" class="edge"><title>node431&#45;&gt;node428</title>
<path fill="none" stroke="black" d="M367.405,-154.785C395.559,-148.258 430.201,-134.964 448,-108 456.814,-94.6468 457.492,-84.88 448,-72 424.488,-40.0966 381.973,-26.8258 345.22,-21.5412"/>
<polygon fill="black" stroke="black" points="345.387,-18.0345 335.027,-20.2536 344.51,-24.9793 345.387,-18.0345"/>
</g>
<!-- node431&#45;&gt;node429 -->
<g id="edge6" class="edge"><title>node431&#45;&gt;node429</title>
<path fill="none" stroke="black" d="M333.683,-144.055C338.282,-136.007 343.883,-126.205 349.014,-117.226"/>
<polygon fill="black" stroke="black" points="352.206,-118.694 354.128,-108.275 346.128,-115.221 352.206,-118.694"/>
</g>
<!-- node431&#45;&gt;node430 -->
<g id="edge7" class="edge"><title>node431&#45;&gt;node430</title>
<path fill="none" stroke="black" d="M297.405,-147.003C278.169,-136.879 251.864,-123.034 230.222,-111.643"/>
<polygon fill="black" stroke="black" points="231.746,-108.49 221.267,-106.93 228.486,-114.685 231.746,-108.49"/>
</g>
<!-- node432 -->
<g id="node8" class="node"><title>node432</title>
<ellipse fill="none" stroke="black" cx="324" cy="-306" rx="58.1768" ry="18"/>
<text text-anchor="middle" x="324" y="-301.8" font-family="Times,serif" font-size="14.00">&quot;AS TEXT&quot;</text>
</g>
<!-- node432&#45;&gt;node427 -->
<g id="edge13" class="edge"><title>node432&#45;&gt;node427</title>
<path fill="none" stroke="black" d="M292.229,-290.834C266.932,-279.556 231.456,-263.738 204.718,-251.817"/>
<polygon fill="black" stroke="black" points="205.857,-248.493 195.298,-247.617 203.006,-254.886 205.857,-248.493"/>
</g>
<!-- node432&#45;&gt;node431 -->
<g id="edge12" class="edge"><title>node432&#45;&gt;node431</title>
<path fill="none" stroke="black" d="M324,-287.871C324,-263.67 324,-219.211 324,-190.393"/>
<polygon fill="black" stroke="black" points="327.5,-190.189 324,-180.189 320.5,-190.189 327.5,-190.189"/>
</g>
<!-- node433 -->
<g id="node9" class="node"><title>node433</title>
<ellipse fill="none" stroke="black" cx="171" cy="-378" rx="74.8887" ry="18"/>
<text text-anchor="middle" x="171" y="-373.8" font-family="Times,serif" font-size="14.00">&quot;ASCENDING&quot;</text>
</g>
<!-- node433&#45;&gt;node427 -->
<g id="edge16" class="edge"><title>node433&#45;&gt;node427</title>
<path fill="none" stroke="black" d="M170.518,-359.871C169.836,-335.67 168.583,-291.211 167.772,-262.393"/>
<polygon fill="black" stroke="black" points="171.264,-262.087 167.484,-252.189 164.267,-262.284 171.264,-262.087"/>
</g>
<!-- node433&#45;&gt;node431 -->
<g id="edge15" class="edge"><title>node433&#45;&gt;node431</title>
<path fill="none" stroke="black" d="M183.006,-360.208C209.819,-322.704 274.687,-231.973 306.211,-187.881"/>
<polygon fill="black" stroke="black" points="309.081,-189.885 312.05,-179.714 303.387,-185.813 309.081,-189.885"/>
</g>
<!-- node433&#45;&gt;node432 -->
<g id="edge14" class="edge"><title>node433&#45;&gt;node432</title>
<path fill="none" stroke="black" d="M204.199,-361.811C227.5,-351.15 258.794,-336.833 283.554,-325.505"/>
<polygon fill="black" stroke="black" points="285.056,-328.666 292.694,-321.323 282.144,-322.301 285.056,-328.666"/>
</g>
<!-- node434 -->
<g id="node10" class="node"><title>node434</title>
<ellipse fill="none" stroke="black" cx="383" cy="-378" rx="80.6872" ry="18"/>
<text text-anchor="middle" x="383" y="-373.8" font-family="Times,serif" font-size="14.00">&quot;DESCENDING&quot;</text>
</g>
<!-- node434&#45;&gt;node427 -->
<g id="edge19" class="edge"><title>node434&#45;&gt;node427</title>
<path fill="none" stroke="black" d="M338.352,-362.944C313.266,-353.917 282.061,-340.743 257,-324 229.82,-305.842 203.84,-278.737 186.842,-259.213"/>
<polygon fill="black" stroke="black" points="189.287,-256.686 180.13,-251.358 183.965,-261.234 189.287,-256.686"/>
</g>
<!-- node434&#45;&gt;node431 -->
<g id="edge18" class="edge"><title>node434&#45;&gt;node431</title>
<path fill="none" stroke="black" d="M387.839,-360.007C392.231,-341.901 397.159,-312.526 391,-288 381.6,-250.567 358.592,-212.11 342.165,-187.917"/>
<polygon fill="black" stroke="black" points="345.024,-185.899 336.448,-179.678 339.273,-189.889 345.024,-185.899"/>
</g>
<!-- node434&#45;&gt;node432 -->
<g id="edge17" class="edge"><title>node434&#45;&gt;node432</title>
<path fill="none" stroke="black" d="M368.718,-360.055C361.543,-351.543 352.715,-341.068 344.803,-331.681"/>
<polygon fill="black" stroke="black" points="347.272,-329.18 338.151,-323.789 341.919,-333.691 347.272,-329.18"/>
</g>
<!-- node435 -->
<g id="node11" class="node"><title>node435</title>
<g id="a_node11"><a xlink:href="reuse_field_sub.svg" xlink:title="&lt;u&gt;field_sub&lt;/u&gt;">
<ellipse fill="none" stroke="black" cx="222" cy="-450" rx="46.9497" ry="18"/>
<text text-anchor="start" x="195.95" y="-446.8" font-family="Times,serif" text-decoration="underline" font-size="14.00" fill="blue">field_sub</text>
</a>
</g>
</g>
<!-- node435&#45;&gt;node427 -->
<g id="edge24" class="edge"><title>node435&#45;&gt;node427</title>
<path fill="none" stroke="black" d="M177.183,-444.344C146.197,-438.526 107.069,-425.439 87,-396 55.5872,-349.921 106.995,-289.735 140.916,-257.58"/>
<polygon fill="black" stroke="black" points="143.71,-259.764 148.685,-250.409 138.963,-254.62 143.71,-259.764"/>
</g>
<!-- node435&#45;&gt;node431 -->
<g id="edge23" class="edge"><title>node435&#45;&gt;node431</title>
<path fill="none" stroke="black" d="M268.012,-446.036C333.286,-440.763 447.684,-427.22 473,-396 532.09,-323.13 414.181,-225.763 355.038,-183.743"/>
<polygon fill="black" stroke="black" points="356.966,-180.821 346.766,-177.955 352.952,-186.556 356.966,-180.821"/>
</g>
<!-- node435&#45;&gt;node432 -->
<g id="edge22" class="edge"><title>node435&#45;&gt;node432</title>
<path fill="none" stroke="black" d="M233.9,-432.433C251.617,-407.769 285.066,-361.203 305.848,-332.271"/>
<polygon fill="black" stroke="black" points="308.868,-334.066 311.859,-323.902 303.183,-329.982 308.868,-334.066"/>
</g>
<!-- node435&#45;&gt;node433 -->
<g id="edge20" class="edge"><title>node435&#45;&gt;node433</title>
<path fill="none" stroke="black" d="M209.914,-432.411C203.78,-423.992 196.198,-413.585 189.361,-404.201"/>
<polygon fill="black" stroke="black" points="192.071,-401.978 183.354,-395.956 186.414,-406.1 192.071,-401.978"/>
</g>
<!-- node435&#45;&gt;node434 -->
<g id="edge21" class="edge"><title>node435&#45;&gt;node434</title>
<path fill="none" stroke="black" d="M251.906,-435.998C276.228,-425.423 310.914,-410.342 338.498,-398.349"/>
<polygon fill="black" stroke="black" points="340.155,-401.445 347.93,-394.248 337.363,-395.026 340.155,-401.445"/>
</g>
<!-- node436 -->
<g id="node12" class="node"><title>node436</title>
<ellipse fill="none" stroke="black" cx="128" cy="-522" rx="32.1533" ry="18"/>
<text text-anchor="middle" x="128" y="-517.8" font-family="Times,serif" font-size="14.00">&quot;BY&quot;</text>
</g>
<!-- node436&#45;&gt;node435 -->
<g id="edge25" class="edge"><title>node436&#45;&gt;node435</title>
<path fill="none" stroke="black" d="M146.571,-507.17C159.934,-497.219 178.208,-483.611 193.422,-472.281"/>
<polygon fill="black" stroke="black" points="195.579,-475.039 201.509,-466.259 191.398,-469.425 195.579,-475.039"/>
</g>
<!-- node437 -->
<g id="node13" class="node"><title>node437</title>
<g id="a_node13"><a xlink:href="reuse_target.svg" xlink:title="&lt;u&gt;target&lt;/u&gt;">
<ellipse fill="none" stroke="black" cx="78" cy="-594" rx="33.0411" ry="18"/>
<text text-anchor="start" x="62.0645" y="-590.8" font-family="Times,serif" text-decoration="underline" font-size="14.00" fill="blue">target</text>
</a>
</g>
</g>
<!-- node437&#45;&gt;end -->
<g id="edge27" class="edge"><title>node437&#45;&gt;end</title>
<path fill="none" stroke="black" d="M68.1216,-576.613C53.5501,-550.84 28,-498.83 28,-451 28,-451 28,-451 28,-305 28,-264.995 27.5982,-218.652 27.304,-190.079"/>
<polygon fill="black" stroke="black" points="30.8036,-190.011 27.1976,-180.049 23.804,-190.086 30.8036,-190.011"/>
</g>
<!-- node437&#45;&gt;node436 -->
<g id="edge26" class="edge"><title>node437&#45;&gt;node436</title>
<path fill="none" stroke="black" d="M89.5967,-576.765C95.8442,-568.018 103.677,-557.052 110.637,-547.308"/>
<polygon fill="black" stroke="black" points="113.502,-549.319 116.466,-539.147 107.806,-545.25 113.502,-549.319"/>
</g>
<!-- node438&#45;&gt;node437 -->
<g id="edge28" class="edge"><title>node438&#45;&gt;node437</title>
<path fill="none" stroke="black" d="M78,-647.697C78,-639.983 78,-630.712 78,-622.112"/>
<polygon fill="black" stroke="black" points="81.5001,-622.104 78,-612.104 74.5001,-622.104 81.5001,-622.104"/>
</g>
</g>
</svg>
