<svg xmlns="http://www.w3.org/2000/svg" xmlns:xlink="http://www.w3.org/1999/xlink" class="railroad-diagram" width="812" height="366" viewBox="0 0 812 366">
<defs>
<style type="text/css"><![CDATA[
path {
stroke-width: 3;
stroke: black;
fill: rgba(0,0,0,0);
}
text {
font: bold 14px monospace;
text-anchor: middle;
}
text.diagram-text {
font-size: 12px;
}
a {
fill: blue;
}
text.diagram-arrow {
font-size: 16px;
}
text.label {
text-anchor: start;
}
text.comment {
font: italic 12px monospace;
}
rect {
stroke-width: 3;
stroke: black;
fill: #BCBCBC;
}
path.diagram-text {
stroke-width: 3;
stroke: black;
fill: #BCBCBC;
cursor: help;
}
]]></style>
</defs>
<g transform="translate(.5 .5)">
<path d="M 20 30 v 20 m 10 -20 v 20 m -10 -10 h 20.5"></path>
<path d="M40 40h10"></path>
<g>
<path d="M50 40h0"></path>
<path d="M762 40h0"></path>
<g class="terminal">
<path d="M50 40h0"></path>
<path d="M118 40h0"></path>
<rect x="50" y="29" width="68" height="22" rx="10" ry="10"></rect>
<text x="84" y="44">"SORT"</text>
</g>
<path d="M118 40h10"></path>
<g>
<path d="M128 40h0"></path>
<path d="M762 40h0"></path>
<path d="M128 40h20"></path>
<g>
<path d="M148 40h0"></path>
<path d="M584 40h158"></path>
<g class="terminal">
<path d="M148 40h0"></path>
<path d="M200 40h0"></path>
<rect x="148" y="29" width="52" height="22" rx="10" ry="10"></rect>
<text x="174" y="44">"BY"</text>
</g>
<path d="M200 40h10"></path>
<path d="M210 40h10"></path>
<g>
<path d="M220 40h0"></path>
<path d="M584 40h0"></path>
<path d="M220 40h10"></path>
<g>
<path d="M230 40h0"></path>
<path d="M574 40h0"></path>
<g>
<path d="M230 40h0"></path>
<path d="M378 40h0"></path>
<path d="M230 40h20"></path>
<g class="non-terminal">
<path d="M250 40h0"></path>
<path d="M334 40h24"></path>
<rect x="250" y="29" width="84" height="22"></rect>
<a xlink:href="reuse_fieldsub.svg"><text x="292" y="44">FieldSub</text>
</a>
</g>
<path d="M358 40h20"></path>
<path d="M230 40a10 10 0 0 1 10 10v10a10 10 0 0 0 10 10"></path>
<g class="non-terminal">
<path d="M250 70h0"></path>
<path d="M358 70h0"></path>
<rect x="250" y="59" width="108" height="22"></rect>
<a xlink:href="reuse_fieldsymbol.svg"><text x="304" y="74">FieldSymbol</text>
</a>
</g>
<path d="M358 70a10 10 0 0 0 10 -10v-10a10 10 0 0 1 10 -10"></path>
<path d="M230 40a10 10 0 0 1 10 10v40a10 10 0 0 0 10 10"></path>
<g class="non-terminal">
<path d="M250 100h0"></path>
<path d="M326 100h32"></path>
<rect x="250" y="89" width="76" height="22"></rect>
<a xlink:href="reuse_dynamic.svg"><text x="288" y="104">Dynamic</text>
</a>
</g>
<path d="M358 100a10 10 0 0 0 10 -10v-40a10 10 0 0 1 10 -10"></path>
</g>
<g>
<path d="M378 40h0"></path>
<path d="M574 40h0"></path>
<path d="M378 40a10 10 0 0 0 10 -10v0a10 10 0 0 1 10 -10"></path>
<g>
<path d="M398 20h156"></path>
</g>
<path d="M554 20a10 10 0 0 1 10 10v0a10 10 0 0 0 10 10"></path>
<path d="M378 40h20"></path>
<g>
<path d="M398 40h0"></path>
<path d="M554 40h0"></path>
<path d="M398 40h20"></path>
<g class="terminal">
<path d="M418 40h0"></path>
<path d="M526 40h8"></path>
<rect x="418" y="29" width="108" height="22" rx="10" ry="10"></rect>
<text x="472" y="44">"ASCENDING"</text>
</g>
<path d="M534 40h20"></path>
<path d="M398 40a10 10 0 0 1 10 10v10a10 10 0 0 0 10 10"></path>
<g class="terminal">
<path d="M418 70h0"></path>
<path d="M534 70h0"></path>
<rect x="418" y="59" width="116" height="22" rx="10" ry="10"></rect>
<text x="476" y="74">"DESCENDING"</text>
</g>
<path d="M534 70a10 10 0 0 0 10 -10v-10a10 10 0 0 1 10 -10"></path>
</g>
<path d="M554 40h20"></path>
</g>
</g>
<path d="M574 40h10"></path>
<path d="M230 40a10 10 0 0 0 -10 10v59a10 10 0 0 0 10 10"></path>
<g>
<path d="M230 119h344"></path>
</g>
<path d="M574 119a10 10 0 0 0 10 -10v-59a10 10 0 0 0 -10 -10"></path>
</g>
</g>
<path d="M742 40h20"></path>
<path d="M128 40a10 10 0 0 1 10 10v78a10 10 0 0 0 10 10"></path>
<g>
<path d="M148 138h0"></path>
<path d="M742 138h0"></path>
<g class="non-terminal">
<path d="M148 138h0"></path>
<path d="M216 138h0"></path>
<rect x="148" y="127" width="68" height="22"></rect>
<a xlink:href="reuse_target.svg"><text x="182" y="142">Target</text>
</a>
</g>
<path d="M216 138h10"></path>
<path d="M226 138h10"></path>
<g>
<path d="M236 138h0"></path>
<path d="M742 138h0"></path>
<path d="M266 138h10"></path>
<g>
<path d="M276 138h0"></path>
<path d="M432 138h280"></path>
<path d="M276 138h20"></path>
<g class="terminal">
<path d="M296 138h0"></path>
<path d="M404 138h8"></path>
<rect x="296" y="127" width="108" height="22" rx="10" ry="10"></rect>
<text x="350" y="142">"ASCENDING"</text>
</g>
<path d="M412 138h20"></path>
<path d="M276 138a10 10 0 0 1 10 10v10a10 10 0 0 0 10 10"></path>
<g class="terminal">
<path d="M296 168h0"></path>
<path d="M412 168h0"></path>
<rect x="296" y="157" width="116" height="22" rx="10" ry="10"></rect>
<text x="354" y="172">"DESCENDING"</text>
</g>
<path d="M412 168a10 10 0 0 0 10 -10v-10a10 10 0 0 1 10 -10"></path>
</g>
<path d="M712 138h10"></path>
<path d="M266 138v59a10 10 0 0 0 10 10"></path>
<g>
<path d="M276 207h0"></path>
<path d="M712 207h0"></path>
<g class="terminal">
<path d="M276 207h0"></path>
<path d="M328 207h0"></path>
<rect x="276" y="196" width="52" height="22" rx="10" ry="10"></rect>
<text x="302" y="211">"BY"</text>
</g>
<path d="M328 207h10"></path>
<path d="M338 207h10"></path>
<g>
<path d="M348 207h0"></path>
<path d="M712 207h0"></path>
<path d="M348 207h10"></path>
<g>
<path d="M358 207h0"></path>
<path d="M702 207h0"></path>
<g>
<path d="M358 207h0"></path>
<path d="M506 207h0"></path>
<path d="M358 207h20"></path>
<g class="non-terminal">
<path d="M378 207h0"></path>
<path d="M462 207h24"></path>
<rect x="378" y="196" width="84" height="22"></rect>
<a xlink:href="reuse_fieldsub.svg"><text x="420" y="211">FieldSub</text>
</a>
</g>
<path d="M486 207h20"></path>
<path d="M358 207a10 10 0 0 1 10 10v10a10 10 0 0 0 10 10"></path>
<g class="non-terminal">
<path d="M378 237h0"></path>
<path d="M486 237h0"></path>
<rect x="378" y="226" width="108" height="22"></rect>
<a xlink:href="reuse_fieldsymbol.svg"><text x="432" y="241">FieldSymbol</text>
</a>
</g>
<path d="M486 237a10 10 0 0 0 10 -10v-10a10 10 0 0 1 10 -10"></path>
<path d="M358 207a10 10 0 0 1 10 10v40a10 10 0 0 0 10 10"></path>
<g class="non-terminal">
<path d="M378 267h0"></path>
<path d="M454 267h32"></path>
<rect x="378" y="256" width="76" height="22"></rect>
<a xlink:href="reuse_dynamic.svg"><text x="416" y="271">Dynamic</text>
</a>
</g>
<path d="M486 267a10 10 0 0 0 10 -10v-40a10 10 0 0 1 10 -10"></path>
</g>
<g>
<path d="M506 207h0"></path>
<path d="M702 207h0"></path>
<path d="M506 207a10 10 0 0 0 10 -10v0a10 10 0 0 1 10 -10"></path>
<g>
<path d="M526 187h156"></path>
</g>
<path d="M682 187a10 10 0 0 1 10 10v0a10 10 0 0 0 10 10"></path>
<path d="M506 207h20"></path>
<g>
<path d="M526 207h0"></path>
<path d="M682 207h0"></path>
<path d="M526 207h20"></path>
<g class="terminal">
<path d="M546 207h0"></path>
<path d="M654 207h8"></path>
<rect x="546" y="196" width="108" height="22" rx="10" ry="10"></rect>
<text x="600" y="211">"ASCENDING"</text>
</g>
<path d="M662 207h20"></path>
<path d="M526 207a10 10 0 0 1 10 10v10a10 10 0 0 0 10 10"></path>
<g class="terminal">
<path d="M546 237h0"></path>
<path d="M662 237h0"></path>
<rect x="546" y="226" width="116" height="22" rx="10" ry="10"></rect>
<text x="604" y="241">"DESCENDING"</text>
</g>
<path d="M662 237a10 10 0 0 0 10 -10v-10a10 10 0 0 1 10 -10"></path>
</g>
<path d="M682 207h20"></path>
</g>
</g>
<path d="M702 207h10"></path>
<path d="M358 207a10 10 0 0 0 -10 10v59a10 10 0 0 0 10 10"></path>
<g>
<path d="M358 286h344"></path>
</g>
<path d="M702 286a10 10 0 0 0 10 -10v-59a10 10 0 0 0 -10 -10"></path>
</g>
</g>
<path d="M712 207a10 10 0 0 0 10 -10v-59"></path>
<path d="M266 138v157a10 10 0 0 0 10 10"></path>
<g class="terminal">
<path d="M276 305h0"></path>
<path d="M360 305h352"></path>
<rect x="276" y="294" width="84" height="22" rx="10" ry="10"></rect>
<text x="318" y="309">"STABLE"</text>
</g>
<path d="M712 305a10 10 0 0 0 10 -10v-157"></path>
<path d="M266 138v187a10 10 0 0 0 10 10"></path>
<g class="terminal">
<path d="M276 335h0"></path>
<path d="M368 335h344"></path>
<rect x="276" y="324" width="92" height="22" rx="10" ry="10"></rect>
<text x="322" y="339">"AS TEXT"</text>
</g>
<path d="M712 335a10 10 0 0 0 10 -10v-187"></path>
<g class="diagram-text">
<title>take one or more branches, once each, in any order</title>
<path d="M 266 128 h -26 a 4 4 0 0 0 -4 4 v 12 a 4 4 0 0 0 4 4 h 26 z" class="diagram-text"></path>
<text x="251" y="142" class="diagram-text">1+</text>
<path d="M 722 128 h 16 a 4 4 0 0 1 4 4 v 12 a 4 4 0 0 1 -4 4 h -16 z" class="diagram-text"></path>
<path d="M 729 136 a 4 4 0 1 0 6 -1 m 2.75 -1 h -4 v 4 m 0 -3 h 2" style="stroke-width: 1.75"></path>
</g>
</g>
</g>
<path d="M742 138a10 10 0 0 0 10 -10v-78a10 10 0 0 1 10 -10"></path>
</g>
</g>
<path d="M762 40h10"></path>
<path d="M 772 40 h 20 m -10 -10 v 20 m 10 -20 v 20"></path>
</g>
</svg>
