<svg xmlns="http://www.w3.org/2000/svg" xmlns:xlink="http://www.w3.org/1999/xlink" class="railroad-diagram" width="898" height="207" viewBox="0 0 898 207">
<defs>
<style type="text/css"><![CDATA[
path {
stroke-width: 3;
stroke: black;
fill: rgba(0,0,0,0);
}
text {
font: bold 14px monospace;
text-anchor: middle;
}
text.diagram-text {
font-size: 12px;
}
a {
fill: blue;
}
text.diagram-arrow {
font-size: 16px;
}
text.label {
text-anchor: start;
}
text.comment {
font: italic 12px monospace;
}
rect {
stroke-width: 3;
stroke: black;
fill: #BCBCBC;
}
path.diagram-text {
stroke-width: 3;
stroke: black;
fill: #BCBCBC;
cursor: help;
}
]]></style>
</defs>
<g transform="translate(.5 .5)">
<path d="M 20 38 v 20 m 10 -20 v 20 m -10 -10 h 20.5"></path>
<path d="M40 48h10"></path>
<g>
<path d="M50 48h0"></path>
<path d="M848 48h0"></path>
<g class="terminal">
<path d="M50 48h0"></path>
<path d="M118 48h0"></path>
<rect x="50" y="37" width="68" height="22" rx="10" ry="10"></rect>
<text x="84" y="52">"SORT"</text>
</g>
<path d="M118 48h10"></path>
<path d="M128 48h10"></path>
<g class="non-terminal">
<path d="M138 48h0"></path>
<path d="M206 48h0"></path>
<rect x="138" y="37" width="68" height="22"></rect>
<a xlink:href="reuse_target.svg"><text x="172" y="52">target</text>
</a>
</g>
<path d="M206 48h10"></path>
<g>
<path d="M216 48h0"></path>
<path d="M848 48h0"></path>
<path d="M216 48a10 10 0 0 0 10 -10v-8a10 10 0 0 1 10 -10"></path>
<g>
<path d="M236 20h592"></path>
</g>
<path d="M828 20a10 10 0 0 1 10 10v8a10 10 0 0 0 10 10"></path>
<path d="M216 48h20"></path>
<g>
<path d="M236 48h0"></path>
<path d="M828 48h0"></path>
<path d="M236 48h20"></path>
<g>
<path d="M256 48h0"></path>
<path d="M808 48h0"></path>
<g class="terminal">
<path d="M256 48h0"></path>
<path d="M308 48h0"></path>
<rect x="256" y="37" width="52" height="22" rx="10" ry="10"></rect>
<text x="282" y="52">"BY"</text>
</g>
<path d="M308 48h10"></path>
<g>
<path d="M318 48h0"></path>
<path d="M808 48h0"></path>
<path d="M318 48h20"></path>
<g>
<path d="M338 48h0"></path>
<path d="M788 48h0"></path>
<path d="M338 48h10"></path>
<g>
<path d="M348 48h0"></path>
<path d="M778 48h0"></path>
<g class="non-terminal">
<path d="M348 48h0"></path>
<path d="M440 48h0"></path>
<rect x="348" y="37" width="92" height="22"></rect>
<a xlink:href="reuse_field_sub.svg"><text x="394" y="52">field&#95;sub</text>
</a>
</g>
<path d="M440 48h10"></path>
<g>
<path d="M450 48h0"></path>
<path d="M646 48h0"></path>
<path d="M450 48a10 10 0 0 0 10 -10v0a10 10 0 0 1 10 -10"></path>
<g>
<path d="M470 28h156"></path>
</g>
<path d="M626 28a10 10 0 0 1 10 10v0a10 10 0 0 0 10 10"></path>
<path d="M450 48h20"></path>
<g>
<path d="M470 48h0"></path>
<path d="M626 48h0"></path>
<path d="M470 48h20"></path>
<g class="terminal">
<path d="M490 48h4"></path>
<path d="M602 48h4"></path>
<rect x="494" y="37" width="108" height="22" rx="10" ry="10"></rect>
<text x="548" y="52">"ASCENDING"</text>
</g>
<path d="M606 48h20"></path>
<path d="M470 48a10 10 0 0 1 10 10v10a10 10 0 0 0 10 10"></path>
<g class="terminal">
<path d="M490 78h0"></path>
<path d="M606 78h0"></path>
<rect x="490" y="67" width="116" height="22" rx="10" ry="10"></rect>
<text x="548" y="82">"DESCENDING"</text>
</g>
<path d="M606 78a10 10 0 0 0 10 -10v-10a10 10 0 0 1 10 -10"></path>
</g>
<path d="M626 48h20"></path>
</g>
<g>
<path d="M646 48h0"></path>
<path d="M778 48h0"></path>
<path d="M646 48a10 10 0 0 0 10 -10v0a10 10 0 0 1 10 -10"></path>
<g>
<path d="M666 28h92"></path>
</g>
<path d="M758 28a10 10 0 0 1 10 10v0a10 10 0 0 0 10 10"></path>
<path d="M646 48h20"></path>
<g class="terminal">
<path d="M666 48h0"></path>
<path d="M758 48h0"></path>
<rect x="666" y="37" width="92" height="22" rx="10" ry="10"></rect>
<text x="712" y="52">"AS TEXT"</text>
</g>
<path d="M758 48h20"></path>
</g>
</g>
<path d="M778 48h10"></path>
<path d="M348 48a10 10 0 0 0 -10 10v29a10 10 0 0 0 10 10"></path>
<g>
<path d="M348 97h430"></path>
</g>
<path d="M778 97a10 10 0 0 0 10 -10v-29a10 10 0 0 0 -10 -10"></path>
</g>
<path d="M788 48h20"></path>
<path d="M318 48a10 10 0 0 1 10 10v48a10 10 0 0 0 10 10"></path>
<g class="non-terminal">
<path d="M338 116h187"></path>
<path d="M601 116h187"></path>
<rect x="525" y="105" width="76" height="22"></rect>
<a xlink:href="reuse_dynamic.svg"><text x="563" y="120">dynamic</text>
</a>
</g>
<path d="M788 116a10 10 0 0 0 10 -10v-48a10 10 0 0 1 10 -10"></path>
</g>
</g>
<path d="M808 48h20"></path>
<path d="M236 48a10 10 0 0 1 10 10v78a10 10 0 0 0 10 10"></path>
<g>
<path d="M256 146h198"></path>
<path d="M610 146h198"></path>
<path d="M454 146h20"></path>
<g class="terminal">
<path d="M474 146h4"></path>
<path d="M586 146h4"></path>
<rect x="478" y="135" width="108" height="22" rx="10" ry="10"></rect>
<text x="532" y="150">"ASCENDING"</text>
</g>
<path d="M590 146h20"></path>
<path d="M454 146a10 10 0 0 1 10 10v10a10 10 0 0 0 10 10"></path>
<g class="terminal">
<path d="M474 176h0"></path>
<path d="M590 176h0"></path>
<rect x="474" y="165" width="116" height="22" rx="10" ry="10"></rect>
<text x="532" y="180">"DESCENDING"</text>
</g>
<path d="M590 176a10 10 0 0 0 10 -10v-10a10 10 0 0 1 10 -10"></path>
</g>
<path d="M808 146a10 10 0 0 0 10 -10v-78a10 10 0 0 1 10 -10"></path>
</g>
<path d="M828 48h20"></path>
</g>
</g>
<path d="M848 48h10"></path>
<path d="M 858 48 h 20 m -10 -10 v 20 m 10 -20 v 20"></path>
</g>
</svg>
