<svg xmlns="http://www.w3.org/2000/svg" xmlns:xlink="http://www.w3.org/1999/xlink" class="railroad-diagram" width="858" height="147" viewBox="0 0 858 147">
<defs>
<style type="text/css"><![CDATA[
path {
stroke-width: 3;
stroke: black;
fill: rgba(0,0,0,0);
}
text {
font: bold 14px monospace;
text-anchor: middle;
}
text.diagram-text {
font-size: 12px;
}
a {
fill: blue;
}
text.diagram-arrow {
font-size: 16px;
}
text.label {
text-anchor: start;
}
text.comment {
font: italic 12px monospace;
}
rect {
stroke-width: 3;
stroke: black;
fill: #BCBCBC;
}
path.diagram-text {
stroke-width: 3;
stroke: black;
fill: #BCBCBC;
cursor: help;
}
]]></style>
</defs>
<g transform="translate(.5 .5)">
<path d="M 20 38 v 20 m 10 -20 v 20 m -10 -10 h 20.5"></path>
<path d="M40 48h10"></path>
<g>
<path d="M50 48h0"></path>
<path d="M808 48h0"></path>
<g class="terminal">
<path d="M50 48h0"></path>
<path d="M118 48h0"></path>
<rect x="50" y="37" width="68" height="22" rx="10" ry="10"></rect>
<text x="84" y="52">"SORT"</text>
</g>
<path d="M118 48h10"></path>
<path d="M128 48h10"></path>
<g class="non-terminal">
<path d="M138 48h0"></path>
<path d="M206 48h0"></path>
<rect x="138" y="37" width="68" height="22"></rect>
<a xlink:href="reuse_target.svg"><text x="172" y="52">target</text>
</a>
</g>
<path d="M206 48h10"></path>
<g>
<path d="M216 48h0"></path>
<path d="M808 48h0"></path>
<path d="M216 48a10 10 0 0 0 10 -10v-8a10 10 0 0 1 10 -10"></path>
<g>
<path d="M236 20h552"></path>
</g>
<path d="M788 20a10 10 0 0 1 10 10v8a10 10 0 0 0 10 10"></path>
<path d="M216 48h20"></path>
<g>
<path d="M236 48h0"></path>
<path d="M788 48h0"></path>
<g class="terminal">
<path d="M236 48h0"></path>
<path d="M288 48h0"></path>
<rect x="236" y="37" width="52" height="22" rx="10" ry="10"></rect>
<text x="262" y="52">"BY"</text>
</g>
<path d="M288 48h10"></path>
<g>
<path d="M298 48h0"></path>
<path d="M788 48h0"></path>
<path d="M298 48h20"></path>
<g>
<path d="M318 48h0"></path>
<path d="M768 48h0"></path>
<path d="M318 48h10"></path>
<g>
<path d="M328 48h0"></path>
<path d="M758 48h0"></path>
<g class="non-terminal">
<path d="M328 48h0"></path>
<path d="M420 48h0"></path>
<rect x="328" y="37" width="92" height="22"></rect>
<a xlink:href="reuse_field_sub.svg"><text x="374" y="52">field&#95;sub</text>
</a>
</g>
<path d="M420 48h10"></path>
<g>
<path d="M430 48h0"></path>
<path d="M626 48h0"></path>
<path d="M430 48a10 10 0 0 0 10 -10v0a10 10 0 0 1 10 -10"></path>
<g>
<path d="M450 28h156"></path>
</g>
<path d="M606 28a10 10 0 0 1 10 10v0a10 10 0 0 0 10 10"></path>
<path d="M430 48h20"></path>
<g>
<path d="M450 48h0"></path>
<path d="M606 48h0"></path>
<path d="M450 48h20"></path>
<g class="terminal">
<path d="M470 48h4"></path>
<path d="M582 48h4"></path>
<rect x="474" y="37" width="108" height="22" rx="10" ry="10"></rect>
<text x="528" y="52">"ASCENDING"</text>
</g>
<path d="M586 48h20"></path>
<path d="M450 48a10 10 0 0 1 10 10v10a10 10 0 0 0 10 10"></path>
<g class="terminal">
<path d="M470 78h0"></path>
<path d="M586 78h0"></path>
<rect x="470" y="67" width="116" height="22" rx="10" ry="10"></rect>
<text x="528" y="82">"DESCENDING"</text>
</g>
<path d="M586 78a10 10 0 0 0 10 -10v-10a10 10 0 0 1 10 -10"></path>
</g>
<path d="M606 48h20"></path>
</g>
<g>
<path d="M626 48h0"></path>
<path d="M758 48h0"></path>
<path d="M626 48a10 10 0 0 0 10 -10v0a10 10 0 0 1 10 -10"></path>
<g>
<path d="M646 28h92"></path>
</g>
<path d="M738 28a10 10 0 0 1 10 10v0a10 10 0 0 0 10 10"></path>
<path d="M626 48h20"></path>
<g class="terminal">
<path d="M646 48h0"></path>
<path d="M738 48h0"></path>
<rect x="646" y="37" width="92" height="22" rx="10" ry="10"></rect>
<text x="692" y="52">"AS TEXT"</text>
</g>
<path d="M738 48h20"></path>
</g>
</g>
<path d="M758 48h10"></path>
<path d="M328 48a10 10 0 0 0 -10 10v29a10 10 0 0 0 10 10"></path>
<g>
<path d="M328 97h430"></path>
</g>
<path d="M758 97a10 10 0 0 0 10 -10v-29a10 10 0 0 0 -10 -10"></path>
</g>
<path d="M768 48h20"></path>
<path d="M298 48a10 10 0 0 1 10 10v48a10 10 0 0 0 10 10"></path>
<g>
<path d="M318 116h127"></path>
<path d="M641 116h127"></path>
<g class="terminal">
<path d="M445 116h0"></path>
<path d="M489 116h0"></path>
<rect x="445" y="105" width="44" height="22" rx="10" ry="10"></rect>
<text x="467" y="120">"("</text>
</g>
<path d="M489 116h10"></path>
<path d="M499 116h10"></path>
<g class="non-terminal">
<path d="M509 116h0"></path>
<path d="M577 116h0"></path>
<rect x="509" y="105" width="68" height="22"></rect>
<a xlink:href="reuse_source.svg"><text x="543" y="120">source</text>
</a>
</g>
<path d="M577 116h10"></path>
<path d="M587 116h10"></path>
<g class="terminal">
<path d="M597 116h0"></path>
<path d="M641 116h0"></path>
<rect x="597" y="105" width="44" height="22" rx="10" ry="10"></rect>
<text x="619" y="120">")"</text>
</g>
</g>
<path d="M768 116a10 10 0 0 0 10 -10v-48a10 10 0 0 1 10 -10"></path>
</g>
</g>
<path d="M788 48h20"></path>
</g>
</g>
<path d="M808 48h10"></path>
<path d="M 818 48 h 20 m -10 -10 v 20 m 10 -20 v 20"></path>
</g>
</svg>
