<?xml version="1.0" encoding="UTF-8" standalone="no"?>
<!DOCTYPE svg PUBLIC "-//W3C//DTD SVG 1.1//EN"
 "http://www.w3.org/Graphics/SVG/1.1/DTD/svg11.dtd">
<!-- Generated by graphviz version 2.38.0 (20140413.2041)
 -->
<!-- Title: source Pages: 1 -->
<svg width="469pt" height="332pt"
 viewBox="0.00 0.00 469.03 332.00" xmlns="http://www.w3.org/2000/svg" xmlns:xlink="http://www.w3.org/1999/xlink">
<g id="graph0" class="graph" transform="scale(1 1) rotate(0) translate(4 328)">
<title>source</title>
<polygon fill="white" stroke="none" points="-4,4 -4,-328 465.03,-328 465.03,4 -4,4"/>
<!-- start -->
<g id="node1" class="node"><title>start</title>
<polygon fill="none" stroke="blue" points="180.218,-324 126.218,-324 126.218,-288 180.218,-288 180.218,-324"/>
<text text-anchor="middle" x="153.218" y="-301.8" font-family="Times,serif" font-size="14.00">Start</text>
</g>
<!-- node112 -->
<g id="node3" class="node"><title>node112</title>
<g id="a_node3"><a xlink:href="constant.svg" xlink:title="&lt;u&gt;constant&lt;/u&gt;">
<ellipse fill="none" stroke="black" cx="43.2183" cy="-162" rx="43.4377" ry="18"/>
<text text-anchor="start" x="19.8908" y="-158.8" font-family="Times,serif" text-decoration="underline" font-size="14.00" fill="blue">constant</text>
</a>
</g>
</g>
<!-- start&#45;&gt;node112 -->
<g id="edge12" class="edge"><title>start&#45;&gt;node112</title>
<path fill="none" stroke="black" d="M125.926,-296.027C105.273,-287.816 77.8766,-273.618 62.2183,-252 49.2193,-234.054 44.7607,-209.058 43.3863,-190.123"/>
<polygon fill="black" stroke="black" points="46.8779,-189.862 42.8987,-180.043 39.8861,-190.201 46.8779,-189.862"/>
</g>
<!-- node116 -->
<g id="node7" class="node"><title>node116</title>
<g id="a_node7"><a xlink:href="field.svg" xlink:title="&lt;u&gt;field&lt;/u&gt;">
<ellipse fill="none" stroke="black" cx="100.218" cy="-234" rx="28.9696" ry="18"/>
<text text-anchor="start" x="87.3901" y="-230.8" font-family="Times,serif" text-decoration="underline" font-size="14.00" fill="blue">field</text>
</a>
</g>
</g>
<!-- start&#45;&gt;node116 -->
<g id="edge13" class="edge"><title>start&#45;&gt;node116</title>
<path fill="none" stroke="black" d="M140.117,-287.697C133.546,-279.017 125.483,-268.368 118.329,-258.92"/>
<polygon fill="black" stroke="black" points="120.91,-256.531 112.084,-250.671 115.33,-260.757 120.91,-256.531"/>
</g>
<!-- node117 -->
<g id="node8" class="node"><title>node117</title>
<g id="a_node8"><a xlink:href="method_call.svg" xlink:title="&lt;u&gt;method_call&lt;/u&gt;">
<ellipse fill="none" stroke="black" cx="206.218" cy="-234" rx="58.5482" ry="18"/>
<text text-anchor="start" x="171.615" y="-230.8" font-family="Times,serif" text-decoration="underline" font-size="14.00" fill="blue">method_call</text>
</a>
</g>
</g>
<!-- start&#45;&gt;node117 -->
<g id="edge14" class="edge"><title>start&#45;&gt;node117</title>
<path fill="none" stroke="black" d="M166.319,-287.697C172.703,-279.265 180.495,-268.975 187.492,-259.732"/>
<polygon fill="black" stroke="black" points="190.387,-261.708 193.633,-251.622 184.806,-257.482 190.387,-261.708"/>
</g>
<!-- node118 -->
<g id="node9" class="node"><title>node118</title>
<g id="a_node9"><a xlink:href="field_symbol_offset.svg" xlink:title="&lt;u&gt;field_symbol_offset&lt;/u&gt;">
<ellipse fill="none" stroke="black" cx="372.218" cy="-234" rx="88.6236" ry="18"/>
<text text-anchor="start" x="315.842" y="-230.8" font-family="Times,serif" text-decoration="underline" font-size="14.00" fill="blue">field_symbol_offset</text>
</a>
</g>
</g>
<!-- start&#45;&gt;node118 -->
<g id="edge15" class="edge"><title>start&#45;&gt;node118</title>
<path fill="none" stroke="black" d="M180.512,-296.276C214.517,-285.407 273.449,-266.57 317.021,-252.643"/>
<polygon fill="black" stroke="black" points="318.167,-255.951 326.626,-249.573 316.035,-249.284 318.167,-255.951"/>
</g>
<!-- end -->
<g id="node2" class="node"><title>end</title>
<polygon fill="none" stroke="blue" points="101.218,-108 47.2183,-108 47.2183,-72 101.218,-72 101.218,-108"/>
<text text-anchor="middle" x="74.2183" y="-85.8" font-family="Times,serif" font-size="14.00">End</text>
</g>
<!-- node112&#45;&gt;end -->
<g id="edge1" class="edge"><title>node112&#45;&gt;end</title>
<path fill="none" stroke="black" d="M50.7225,-144.055C54.2492,-136.091 58.5364,-126.411 62.4783,-117.51"/>
<polygon fill="black" stroke="black" points="65.7187,-118.836 66.5678,-108.275 59.3182,-116.002 65.7187,-118.836"/>
</g>
<!-- node113 -->
<g id="node4" class="node"><title>node113</title>
<ellipse fill="none" stroke="black" cx="185.218" cy="-162" rx="42.879" ry="18"/>
<text text-anchor="middle" x="185.218" y="-157.8" font-family="Times,serif" font-size="14.00">Dummy</text>
</g>
<!-- node113&#45;&gt;end -->
<g id="edge5" class="edge"><title>node113&#45;&gt;end</title>
<path fill="none" stroke="black" d="M162.488,-146.666C147.365,-137.128 127.184,-124.402 109.936,-113.524"/>
<polygon fill="black" stroke="black" points="111.551,-110.405 101.226,-108.032 107.817,-116.326 111.551,-110.405"/>
</g>
<!-- node115 -->
<g id="node6" class="node"><title>node115</title>
<g id="a_node6"><a xlink:href="arrow_or_dash.svg" xlink:title="&lt;u&gt;arrow_or_dash&lt;/u&gt;">
<ellipse fill="none" stroke="black" cx="256.218" cy="-90" rx="68.9042" ry="18"/>
<text text-anchor="start" x="214.237" y="-86.8" font-family="Times,serif" text-decoration="underline" font-size="14.00" fill="blue">arrow_or_dash</text>
</a>
</g>
</g>
<!-- node113&#45;&gt;node115 -->
<g id="edge4" class="edge"><title>node113&#45;&gt;node115</title>
<path fill="none" stroke="black" d="M201.329,-145.116C210.328,-136.244 221.724,-125.009 231.797,-115.077"/>
<polygon fill="black" stroke="black" points="234.517,-117.31 239.181,-107.797 229.603,-112.326 234.517,-117.31"/>
</g>
<!-- node114 -->
<g id="node5" class="node"><title>node114</title>
<g id="a_node5"><a xlink:href="field.svg" xlink:title="&lt;u&gt;field&lt;/u&gt;">
<ellipse fill="none" stroke="black" cx="207.218" cy="-18" rx="28.9696" ry="18"/>
<text text-anchor="start" x="194.39" y="-14.8" font-family="Times,serif" text-decoration="underline" font-size="14.00" fill="blue">field</text>
</a>
</g>
</g>
<!-- node114&#45;&gt;node113 -->
<g id="edge2" class="edge"><title>node114&#45;&gt;node113</title>
<path fill="none" stroke="black" d="M195.812,-34.817C189.251,-44.9145 181.648,-58.5864 178.218,-72 173.011,-92.3649 175.286,-116.131 178.576,-133.979"/>
<polygon fill="black" stroke="black" points="175.193,-134.901 180.64,-143.988 182.048,-133.487 175.193,-134.901"/>
</g>
<!-- node115&#45;&gt;node114 -->
<g id="edge3" class="edge"><title>node115&#45;&gt;node114</title>
<path fill="none" stroke="black" d="M244.357,-72.055C238.285,-63.3808 230.787,-52.6694 224.121,-43.1473"/>
<polygon fill="black" stroke="black" points="226.901,-41.0146 218.299,-34.8294 221.166,-45.0289 226.901,-41.0146"/>
</g>
<!-- node116&#45;&gt;node113 -->
<g id="edge7" class="edge"><title>node116&#45;&gt;node113</title>
<path fill="none" stroke="black" d="M117.012,-219.17C128.871,-209.403 145.009,-196.114 158.61,-184.913"/>
<polygon fill="black" stroke="black" points="161.195,-187.318 166.689,-178.259 156.745,-181.914 161.195,-187.318"/>
</g>
<!-- node116&#45;&gt;node115 -->
<g id="edge6" class="edge"><title>node116&#45;&gt;node115</title>
<path fill="none" stroke="black" d="M102.478,-215.797C105.9,-196.132 114.155,-164.077 133.218,-144 150.164,-126.154 174.121,-114.005 196.396,-105.893"/>
<polygon fill="black" stroke="black" points="197.822,-109.104 206.147,-102.551 195.552,-102.482 197.822,-109.104"/>
</g>
<!-- node117&#45;&gt;node113 -->
<g id="edge9" class="edge"><title>node117&#45;&gt;node113</title>
<path fill="none" stroke="black" d="M201.135,-216.055C198.797,-208.261 195.965,-198.822 193.342,-190.079"/>
<polygon fill="black" stroke="black" points="196.627,-188.848 190.401,-180.275 189.922,-190.859 196.627,-188.848"/>
</g>
<!-- node117&#45;&gt;node115 -->
<g id="edge8" class="edge"><title>node117&#45;&gt;node115</title>
<path fill="none" stroke="black" d="M218.02,-216.042C224.537,-205.972 232.287,-192.722 237.218,-180 244.963,-160.021 249.834,-136.232 252.703,-118.277"/>
<polygon fill="black" stroke="black" points="256.193,-118.602 254.203,-108.196 249.269,-117.572 256.193,-118.602"/>
</g>
<!-- node118&#45;&gt;node113 -->
<g id="edge11" class="edge"><title>node118&#45;&gt;node113</title>
<path fill="none" stroke="black" d="M331.642,-217.811C300.334,-206.092 257.222,-189.953 225.89,-178.225"/>
<polygon fill="black" stroke="black" points="226.754,-174.811 216.161,-174.583 224.3,-181.367 226.754,-174.811"/>
</g>
<!-- node118&#45;&gt;node115 -->
<g id="edge10" class="edge"><title>node118&#45;&gt;node115</title>
<path fill="none" stroke="black" d="M358.456,-216.153C338.137,-191.279 299.983,-144.574 276.467,-115.788"/>
<polygon fill="black" stroke="black" points="279,-113.355 269.963,-107.825 273.579,-117.784 279,-113.355"/>
</g>
</g>
</svg>
