<svg xmlns="http://www.w3.org/2000/svg" xmlns:xlink="http://www.w3.org/1999/xlink" class="railroad-diagram" width="726" height="101" viewBox="0 0 726 101">
<defs>
<style type="text/css"><![CDATA[
path {
stroke-width: 3;
stroke: black;
fill: rgba(0,0,0,0);
}
text {
font: bold 14px monospace;
text-anchor: middle;
}
text.diagram-text {
font-size: 12px;
}
a {
fill: blue;
}
text.diagram-arrow {
font-size: 16px;
}
text.label {
text-anchor: start;
}
text.comment {
font: italic 12px monospace;
}
rect {
stroke-width: 3;
stroke: black;
fill: #BCBCBC;
}
path.diagram-text {
stroke-width: 3;
stroke: black;
fill: #BCBCBC;
cursor: help;
}
]]></style>
</defs>
<g transform="translate(.5 .5)">
<path d="M 20 21 v 20 m 10 -20 v 20 m -10 -10 h 20.5"></path>
<path d="M40 31h10"></path>
<g>
<path d="M50 31h0"></path>
<path d="M676 31h0"></path>
<g class="terminal">
<path d="M50 31h0"></path>
<path d="M126 31h0"></path>
<rect x="50" y="20" width="76" height="22" rx="10" ry="10"></rect>
<text x="88" y="35">"SPLIT"</text>
</g>
<path d="M126 31h10"></path>
<path d="M136 31h10"></path>
<g class="non-terminal">
<path d="M146 31h0"></path>
<path d="M214 31h0"></path>
<rect x="146" y="20" width="68" height="22"></rect>
<a xlink:href="reuse_source.svg"><text x="180" y="35">source</text>
</a>
</g>
<path d="M214 31h10"></path>
<path d="M224 31h10"></path>
<g class="terminal">
<path d="M234 31h0"></path>
<path d="M286 31h0"></path>
<rect x="234" y="20" width="52" height="22" rx="10" ry="10"></rect>
<text x="260" y="35">"AT"</text>
</g>
<path d="M286 31h10"></path>
<path d="M296 31h10"></path>
<g class="non-terminal">
<path d="M306 31h0"></path>
<path d="M374 31h0"></path>
<rect x="306" y="20" width="68" height="22"></rect>
<a xlink:href="reuse_source.svg"><text x="340" y="35">source</text>
</a>
</g>
<path d="M374 31h10"></path>
<path d="M384 31h10"></path>
<g class="terminal">
<path d="M394 31h0"></path>
<path d="M462 31h0"></path>
<rect x="394" y="20" width="68" height="22" rx="10" ry="10"></rect>
<text x="428" y="35">"INTO"</text>
</g>
<path d="M462 31h10"></path>
<g>
<path d="M472 31h0"></path>
<path d="M676 31h0"></path>
<path d="M472 31h20"></path>
<g>
<path d="M492 31h0"></path>
<path d="M656 31h0"></path>
<g class="terminal">
<path d="M492 31h0"></path>
<path d="M568 31h0"></path>
<rect x="492" y="20" width="76" height="22" rx="10" ry="10"></rect>
<text x="530" y="35">"TABLE"</text>
</g>
<path d="M568 31h10"></path>
<path d="M578 31h10"></path>
<g class="non-terminal">
<path d="M588 31h0"></path>
<path d="M656 31h0"></path>
<rect x="588" y="20" width="68" height="22"></rect>
<a xlink:href="reuse_target.svg"><text x="622" y="35">target</text>
</a>
</g>
</g>
<path d="M656 31h20"></path>
<path d="M472 31a10 10 0 0 1 10 10v10a10 10 0 0 0 10 10"></path>
<g>
<path d="M492 61h0"></path>
<path d="M580 61h76"></path>
<path d="M492 61h10"></path>
<g class="non-terminal">
<path d="M502 61h0"></path>
<path d="M570 61h0"></path>
<rect x="502" y="50" width="68" height="22"></rect>
<a xlink:href="reuse_target.svg"><text x="536" y="65">target</text>
</a>
</g>
<path d="M570 61h10"></path>
<path d="M502 61a10 10 0 0 0 -10 10v0a10 10 0 0 0 10 10"></path>
<g>
<path d="M502 81h68"></path>
</g>
<path d="M570 81a10 10 0 0 0 10 -10v0a10 10 0 0 0 -10 -10"></path>
</g>
<path d="M656 61a10 10 0 0 0 10 -10v-10a10 10 0 0 1 10 -10"></path>
</g>
</g>
<path d="M676 31h10"></path>
<path d="M 686 31 h 20 m -10 -10 v 20 m 10 -20 v 20"></path>
</g>
</svg>
