<?xml version="1.0" encoding="UTF-8" standalone="no"?>
<!DOCTYPE svg PUBLIC "-//W3C//DTD SVG 1.1//EN"
 "http://www.w3.org/Graphics/SVG/1.1/DTD/svg11.dtd">
<!-- Generated by graphviz version 2.38.0 (20140413.2041)
 -->
<!-- Title: split Pages: 1 -->
<svg width="208pt" height="620pt"
 viewBox="0.00 0.00 208.43 620.00" xmlns="http://www.w3.org/2000/svg" xmlns:xlink="http://www.w3.org/1999/xlink">
<g id="graph0" class="graph" transform="scale(1 1) rotate(0) translate(4 616)">
<title>split</title>
<polygon fill="white" stroke="none" points="-4,4 -4,-616 204.43,-616 204.43,4 -4,4"/>
<!-- start -->
<g id="node1" class="node"><title>start</title>
<polygon fill="none" stroke="black" points="127.024,-612 73.0245,-612 73.0245,-576 127.024,-576 127.024,-612"/>
<text text-anchor="middle" x="100.024" y="-589.8" font-family="Times,serif" font-size="14.00">Start</text>
</g>
<!-- node426 -->
<g id="node12" class="node"><title>node426</title>
<ellipse fill="none" stroke="black" cx="100.024" cy="-522" rx="44.8304" ry="18"/>
<text text-anchor="middle" x="100.024" y="-517.8" font-family="Times,serif" font-size="14.00">&quot;SPLIT&quot;</text>
</g>
<!-- start&#45;&gt;node426 -->
<g id="edge14" class="edge"><title>start&#45;&gt;node426</title>
<path fill="none" stroke="black" d="M100.024,-575.697C100.024,-567.983 100.024,-558.712 100.024,-550.112"/>
<polygon fill="black" stroke="black" points="103.525,-550.104 100.024,-540.104 96.5246,-550.104 103.525,-550.104"/>
</g>
<!-- end -->
<g id="node2" class="node"><title>end</title>
<polygon fill="none" stroke="black" points="85.0245,-36 31.0245,-36 31.0245,-0 85.0245,-0 85.0245,-36"/>
<text text-anchor="middle" x="58.0245" y="-13.8" font-family="Times,serif" font-size="14.00">End</text>
</g>
<!-- node417 -->
<g id="node3" class="node"><title>node417</title>
<g id="a_node3"><a xlink:href="reuse_target.svg" xlink:title="&lt;u&gt;target&lt;/u&gt;">
<ellipse fill="none" stroke="black" cx="50.0245" cy="-90" rx="33.0411" ry="18"/>
<text text-anchor="start" x="34.089" y="-86.8" font-family="Times,serif" text-decoration="underline" font-size="14.00" fill="blue">target</text>
</a>
</g>
</g>
<!-- node417&#45;&gt;end -->
<g id="edge1" class="edge"><title>node417&#45;&gt;end</title>
<path fill="none" stroke="black" d="M52.002,-71.6966C52.8836,-63.9827 53.9431,-54.7125 54.9259,-46.1124"/>
<polygon fill="black" stroke="black" points="58.4115,-46.4371 56.0697,-36.1043 51.4568,-45.6422 58.4115,-46.4371"/>
</g>
<!-- node418 -->
<g id="node4" class="node"><title>node418</title>
<ellipse fill="none" stroke="black" cx="50.0245" cy="-162" rx="50.049" ry="18"/>
<text text-anchor="middle" x="50.0245" y="-157.8" font-family="Times,serif" font-size="14.00">&quot;TABLE&quot;</text>
</g>
<!-- node418&#45;&gt;node417 -->
<g id="edge2" class="edge"><title>node418&#45;&gt;node417</title>
<path fill="none" stroke="black" d="M50.0245,-143.697C50.0245,-135.983 50.0245,-126.712 50.0245,-118.112"/>
<polygon fill="black" stroke="black" points="53.5246,-118.104 50.0245,-108.104 46.5246,-118.104 53.5246,-118.104"/>
</g>
<!-- node419 -->
<g id="node5" class="node"><title>node419</title>
<ellipse fill="none" stroke="black" cx="144.024" cy="-90" rx="42.879" ry="18"/>
<text text-anchor="middle" x="144.024" y="-85.8" font-family="Times,serif" font-size="14.00">Dummy</text>
</g>
<!-- node419&#45;&gt;end -->
<g id="edge5" class="edge"><title>node419&#45;&gt;end</title>
<path fill="none" stroke="black" d="M124.938,-73.4647C113.816,-64.4115 99.5633,-52.8107 87.0725,-42.6437"/>
<polygon fill="black" stroke="black" points="89.1343,-39.8091 79.1692,-36.2108 84.7153,-45.238 89.1343,-39.8091"/>
</g>
<!-- node420 -->
<g id="node6" class="node"><title>node420</title>
<g id="a_node6"><a xlink:href="reuse_target.svg" xlink:title="&lt;u&gt;target&lt;/u&gt;">
<ellipse fill="none" stroke="black" cx="144.024" cy="-18" rx="33.0411" ry="18"/>
<text text-anchor="start" x="128.089" y="-14.8" font-family="Times,serif" text-decoration="underline" font-size="14.00" fill="blue">target</text>
</a>
</g>
</g>
<!-- node419&#45;&gt;node420 -->
<g id="edge4" class="edge"><title>node419&#45;&gt;node420</title>
<path fill="none" stroke="black" d="M138.146,-72.055C137.316,-64.2306 137.079,-54.7484 137.435,-45.9768"/>
<polygon fill="black" stroke="black" points="140.941,-46.0131 138.163,-35.789 133.959,-45.514 140.941,-46.0131"/>
</g>
<!-- node420&#45;&gt;node419 -->
<g id="edge3" class="edge"><title>node420&#45;&gt;node419</title>
<path fill="none" stroke="black" d="M149.886,-35.789C150.724,-43.5912 150.969,-53.067 150.621,-61.8479"/>
<polygon fill="black" stroke="black" points="147.114,-61.8338 149.903,-72.055 154.096,-62.3255 147.114,-61.8338"/>
</g>
<!-- node421 -->
<g id="node7" class="node"><title>node421</title>
<g id="a_node7"><a xlink:href="reuse_target.svg" xlink:title="&lt;u&gt;target&lt;/u&gt;">
<ellipse fill="none" stroke="black" cx="151.024" cy="-162" rx="33.0411" ry="18"/>
<text text-anchor="start" x="135.089" y="-158.8" font-family="Times,serif" text-decoration="underline" font-size="14.00" fill="blue">target</text>
</a>
</g>
</g>
<!-- node421&#45;&gt;node419 -->
<g id="edge7" class="edge"><title>node421&#45;&gt;node419</title>
<path fill="none" stroke="black" d="M149.294,-143.697C148.523,-135.983 147.596,-126.712 146.736,-118.112"/>
<polygon fill="black" stroke="black" points="150.213,-117.706 145.735,-108.104 143.247,-118.403 150.213,-117.706"/>
</g>
<!-- node421&#45;&gt;node420 -->
<g id="edge6" class="edge"><title>node421&#45;&gt;node420</title>
<path fill="none" stroke="black" d="M168.604,-146.269C178.739,-136.58 190.531,-122.956 196.024,-108 201.54,-92.9809 202.077,-86.8111 196.024,-72 190.869,-59.3831 181.101,-48.1471 171.411,-39.3037"/>
<polygon fill="black" stroke="black" points="173.619,-36.5867 163.746,-32.7437 169.068,-41.905 173.619,-36.5867"/>
</g>
<!-- node422 -->
<g id="node8" class="node"><title>node422</title>
<ellipse fill="none" stroke="black" cx="100.024" cy="-234" rx="41.9431" ry="18"/>
<text text-anchor="middle" x="100.024" y="-229.8" font-family="Times,serif" font-size="14.00">&quot;INTO&quot;</text>
</g>
<!-- node422&#45;&gt;node418 -->
<g id="edge8" class="edge"><title>node422&#45;&gt;node418</title>
<path fill="none" stroke="black" d="M88.1752,-216.411C82.1613,-207.992 74.7281,-197.585 68.025,-188.201"/>
<polygon fill="black" stroke="black" points="70.7966,-186.059 62.1361,-179.956 65.1004,-190.128 70.7966,-186.059"/>
</g>
<!-- node422&#45;&gt;node421 -->
<g id="edge9" class="edge"><title>node422&#45;&gt;node421</title>
<path fill="none" stroke="black" d="M112.111,-216.411C118.49,-207.655 126.434,-196.751 133.479,-187.082"/>
<polygon fill="black" stroke="black" points="136.316,-189.132 139.376,-178.988 130.659,-185.009 136.316,-189.132"/>
</g>
<!-- node423 -->
<g id="node9" class="node"><title>node423</title>
<g id="a_node9"><a xlink:href="reuse_source.svg" xlink:title="&lt;u&gt;source&lt;/u&gt;">
<ellipse fill="none" stroke="black" cx="100.024" cy="-306" rx="36.4761" ry="18"/>
<text text-anchor="start" x="81.7573" y="-302.8" font-family="Times,serif" text-decoration="underline" font-size="14.00" fill="blue">source</text>
</a>
</g>
</g>
<!-- node423&#45;&gt;node422 -->
<g id="edge10" class="edge"><title>node423&#45;&gt;node422</title>
<path fill="none" stroke="black" d="M100.024,-287.697C100.024,-279.983 100.024,-270.712 100.024,-262.112"/>
<polygon fill="black" stroke="black" points="103.525,-262.104 100.024,-252.104 96.5246,-262.104 103.525,-262.104"/>
</g>
<!-- node424 -->
<g id="node10" class="node"><title>node424</title>
<ellipse fill="none" stroke="black" cx="100.024" cy="-378" rx="31.5723" ry="18"/>
<text text-anchor="middle" x="100.024" y="-373.8" font-family="Times,serif" font-size="14.00">&quot;AT&quot;</text>
</g>
<!-- node424&#45;&gt;node423 -->
<g id="edge11" class="edge"><title>node424&#45;&gt;node423</title>
<path fill="none" stroke="black" d="M100.024,-359.697C100.024,-351.983 100.024,-342.712 100.024,-334.112"/>
<polygon fill="black" stroke="black" points="103.525,-334.104 100.024,-324.104 96.5246,-334.104 103.525,-334.104"/>
</g>
<!-- node425 -->
<g id="node11" class="node"><title>node425</title>
<g id="a_node11"><a xlink:href="reuse_source.svg" xlink:title="&lt;u&gt;source&lt;/u&gt;">
<ellipse fill="none" stroke="black" cx="100.024" cy="-450" rx="36.4761" ry="18"/>
<text text-anchor="start" x="81.7573" y="-446.8" font-family="Times,serif" text-decoration="underline" font-size="14.00" fill="blue">source</text>
</a>
</g>
</g>
<!-- node425&#45;&gt;node424 -->
<g id="edge12" class="edge"><title>node425&#45;&gt;node424</title>
<path fill="none" stroke="black" d="M100.024,-431.697C100.024,-423.983 100.024,-414.712 100.024,-406.112"/>
<polygon fill="black" stroke="black" points="103.525,-406.104 100.024,-396.104 96.5246,-406.104 103.525,-406.104"/>
</g>
<!-- node426&#45;&gt;node425 -->
<g id="edge13" class="edge"><title>node426&#45;&gt;node425</title>
<path fill="none" stroke="black" d="M100.024,-503.697C100.024,-495.983 100.024,-486.712 100.024,-478.112"/>
<polygon fill="black" stroke="black" points="103.525,-478.104 100.024,-468.104 96.5246,-478.104 103.525,-478.104"/>
</g>
</g>
</svg>
