<svg xmlns="http://www.w3.org/2000/svg" xmlns:xlink="http://www.w3.org/1999/xlink" class="railroad-diagram" width="692" height="101" viewBox="0 0 692 101">
<defs>
<style type="text/css"><![CDATA[
path {
stroke-width: 3;
stroke: black;
fill: rgba(0,0,0,0);
}
text {
font: bold 14px monospace;
text-anchor: middle;
}
text.diagram-text {
font-size: 12px;
}
a {
fill: blue;
}
text.diagram-arrow {
font-size: 16px;
}
text.label {
text-anchor: start;
}
text.comment {
font: italic 12px monospace;
}
rect {
stroke-width: 3;
stroke: black;
fill: #BCBCBC;
}
path.diagram-text {
stroke-width: 3;
stroke: black;
fill: #BCBCBC;
cursor: help;
}
]]></style>
</defs>
<g transform="translate(.5 .5)">
<path d="M 20 30 v 20 m 10 -20 v 20 m -10 -10 h 20.5"></path>
<path d="M40 40h10"></path>
<g>
<path d="M50 40h0"></path>
<path d="M642 40h0"></path>
<g>
<path d="M50 40h0"></path>
<path d="M182 40h0"></path>
<path d="M50 40h20"></path>
<g class="terminal">
<path d="M70 40h0"></path>
<path d="M154 40h8"></path>
<rect x="70" y="29" width="84" height="22" rx="10" ry="10"></rect>
<text x="112" y="44">"STATIC"</text>
</g>
<path d="M162 40h20"></path>
<path d="M50 40a10 10 0 0 1 10 10v10a10 10 0 0 0 10 10"></path>
<g class="terminal">
<path d="M70 70h0"></path>
<path d="M162 70h0"></path>
<rect x="70" y="59" width="92" height="22" rx="10" ry="10"></rect>
<text x="116" y="74">"STATICS"</text>
</g>
<path d="M162 70a10 10 0 0 0 10 -10v-10a10 10 0 0 1 10 -10"></path>
</g>
<path d="M182 40h10"></path>
<g class="terminal">
<path d="M192 40h0"></path>
<path d="M292 40h0"></path>
<rect x="192" y="29" width="100" height="22" rx="10" ry="10"></rect>
<text x="242" y="44">"BEGIN OF"</text>
</g>
<path d="M292 40h10"></path>
<path d="M302 40h10"></path>
<g class="non-terminal">
<path d="M312 40h0"></path>
<path d="M412 40h0"></path>
<rect x="312" y="29" width="100" height="22"></rect>
<a xlink:href="reuse_simplename.svg"><text x="362" y="44">SimpleName</text>
</a>
</g>
<path d="M412 40h10"></path>
<g>
<path d="M422 40h0"></path>
<path d="M642 40h0"></path>
<path d="M422 40a10 10 0 0 0 10 -10v0a10 10 0 0 1 10 -10"></path>
<g>
<path d="M442 20h180"></path>
</g>
<path d="M622 20a10 10 0 0 1 10 10v0a10 10 0 0 0 10 10"></path>
<path d="M422 40h20"></path>
<g>
<path d="M442 40h0"></path>
<path d="M622 40h0"></path>
<g class="terminal">
<path d="M442 40h0"></path>
<path d="M526 40h0"></path>
<rect x="442" y="29" width="84" height="22" rx="10" ry="10"></rect>
<text x="484" y="44">"OCCURS"</text>
</g>
<path d="M526 40h10"></path>
<path d="M536 40h10"></path>
<g class="non-terminal">
<path d="M546 40h0"></path>
<path d="M622 40h0"></path>
<rect x="546" y="29" width="76" height="22"></rect>
<a xlink:href="reuse_integer.svg"><text x="584" y="44">Integer</text>
</a>
</g>
</g>
<path d="M622 40h20"></path>
</g>
</g>
<path d="M642 40h10"></path>
<path d="M 652 40 h 20 m -10 -10 v 20 m 10 -20 v 20"></path>
</g>
</svg>
