<svg xmlns="http://www.w3.org/2000/svg" xmlns:xlink="http://www.w3.org/1999/xlink" class="railroad-diagram" width="642" height="109" viewBox="0 0 642 109">
<defs>
<style type="text/css"><![CDATA[
path {
stroke-width: 3;
stroke: black;
fill: rgba(0,0,0,0);
}
text {
font: bold 14px monospace;
text-anchor: middle;
}
text.diagram-text {
font-size: 12px;
}
a {
fill: blue;
}
text.diagram-arrow {
font-size: 16px;
}
text.label {
text-anchor: start;
}
text.comment {
font: italic 12px monospace;
}
rect {
stroke-width: 3;
stroke: black;
fill: #BCBCBC;
}
path.diagram-text {
stroke-width: 3;
stroke: black;
fill: #BCBCBC;
cursor: help;
}
]]></style>
</defs>
<g transform="translate(.5 .5)">
<path d="M 20 38 v 20 m 10 -20 v 20 m -10 -10 h 20.5"></path>
<path d="M40 48h10"></path>
<g>
<path d="M50 48h0"></path>
<path d="M592 48h0"></path>
<g>
<path d="M50 48h0"></path>
<path d="M182 48h0"></path>
<path d="M50 48h20"></path>
<g class="terminal">
<path d="M70 48h0"></path>
<path d="M154 48h8"></path>
<rect x="70" y="37" width="84" height="22" rx="10" ry="10"></rect>
<text x="112" y="52">"STATIC"</text>
</g>
<path d="M162 48h20"></path>
<path d="M50 48a10 10 0 0 1 10 10v10a10 10 0 0 0 10 10"></path>
<g class="terminal">
<path d="M70 78h0"></path>
<path d="M162 78h0"></path>
<rect x="70" y="67" width="92" height="22" rx="10" ry="10"></rect>
<text x="116" y="82">"STATICS"</text>
</g>
<path d="M162 78a10 10 0 0 0 10 -10v-10a10 10 0 0 1 10 -10"></path>
</g>
<path d="M182 48h10"></path>
<g class="non-terminal">
<path d="M192 48h0"></path>
<path d="M292 48h0"></path>
<rect x="192" y="37" width="100" height="22"></rect>
<a xlink:href="reuse_simplename.svg"><text x="242" y="52">SimpleName</text>
</a>
</g>
<path d="M292 48h10"></path>
<g>
<path d="M302 48h0"></path>
<path d="M592 48h0"></path>
<path d="M302 48a10 10 0 0 0 10 -10v-8a10 10 0 0 1 10 -10"></path>
<g>
<path d="M322 20h250"></path>
</g>
<path d="M572 20a10 10 0 0 1 10 10v8a10 10 0 0 0 10 10"></path>
<path d="M302 48h20"></path>
<g>
<path d="M322 48h0"></path>
<path d="M572 48h0"></path>
<path d="M322 48h20"></path>
<g>
<path d="M342 48h0"></path>
<path d="M552 48h0"></path>
<g>
<path d="M342 48h0"></path>
<path d="M490 48h0"></path>
<path d="M342 48a10 10 0 0 0 10 -10v0a10 10 0 0 1 10 -10"></path>
<g>
<path d="M362 28h108"></path>
</g>
<path d="M470 28a10 10 0 0 1 10 10v0a10 10 0 0 0 10 10"></path>
<path d="M342 48h20"></path>
<g class="non-terminal">
<path d="M362 48h0"></path>
<path d="M470 48h0"></path>
<rect x="362" y="37" width="108" height="22"></rect>
<a xlink:href="reuse_fieldlength.svg"><text x="416" y="52">FieldLength</text>
</a>
</g>
<path d="M470 48h20"></path>
</g>
<path d="M490 48h10"></path>
<g class="non-terminal">
<path d="M500 48h0"></path>
<path d="M552 48h0"></path>
<rect x="500" y="37" width="52" height="22"></rect>
<a xlink:href="reuse_type.svg"><text x="526" y="52">Type</text>
</a>
</g>
</g>
<path d="M552 48h20"></path>
<path d="M322 48a10 10 0 0 1 10 10v10a10 10 0 0 0 10 10"></path>
<g class="non-terminal">
<path d="M342 78h0"></path>
<path d="M434 78h118"></path>
<rect x="342" y="67" width="92" height="22"></rect>
<a xlink:href="reuse_typetable.svg"><text x="388" y="82">TypeTable</text>
</a>
</g>
<path d="M552 78a10 10 0 0 0 10 -10v-10a10 10 0 0 1 10 -10"></path>
</g>
<path d="M572 48h20"></path>
</g>
</g>
<path d="M592 48h10"></path>
<path d="M 602 48 h 20 m -10 -10 v 20 m 10 -20 v 20"></path>
</g>
</svg>
