<svg xmlns="http://www.w3.org/2000/svg" xmlns:xlink="http://www.w3.org/1999/xlink" class="railroad-diagram" width="452" height="92" viewBox="0 0 452 92">
<defs>
<style type="text/css"><![CDATA[
path {
stroke-width: 3;
stroke: black;
fill: rgba(0,0,0,0);
}
text {
font: bold 14px monospace;
text-anchor: middle;
}
text.diagram-text {
font-size: 12px;
}
a {
fill: blue;
}
text.diagram-arrow {
font-size: 16px;
}
text.label {
text-anchor: start;
}
text.comment {
font: italic 12px monospace;
}
rect {
stroke-width: 3;
stroke: black;
fill: #BCBCBC;
}
path.diagram-text {
stroke-width: 3;
stroke: black;
fill: #BCBCBC;
cursor: help;
}
]]></style>
</defs>
<g transform="translate(.5 .5)">
<path d="M 20 21 v 20 m 10 -20 v 20 m -10 -10 h 20.5"></path>
<path d="M40 31h10"></path>
<g>
<path d="M50 31h0"></path>
<path d="M402 31h0"></path>
<g>
<path d="M50 31h0"></path>
<path d="M182 31h0"></path>
<path d="M50 31h20"></path>
<g class="terminal">
<path d="M70 31h4"></path>
<path d="M158 31h4"></path>
<rect x="74" y="20" width="84" height="22" rx="10" ry="10"></rect>
<text x="116" y="35">"STATIC"</text>
</g>
<path d="M162 31h20"></path>
<path d="M50 31a10 10 0 0 1 10 10v10a10 10 0 0 0 10 10"></path>
<g class="terminal">
<path d="M70 61h0"></path>
<path d="M162 61h0"></path>
<rect x="70" y="50" width="92" height="22" rx="10" ry="10"></rect>
<text x="116" y="65">"STATICS"</text>
</g>
<path d="M162 61a10 10 0 0 0 10 -10v-10a10 10 0 0 1 10 -10"></path>
</g>
<path d="M182 31h10"></path>
<g class="non-terminal">
<path d="M192 31h0"></path>
<path d="M252 31h0"></path>
<rect x="192" y="20" width="60" height="22"></rect>
<a xlink:href="reuse_field.svg"><text x="222" y="35">field</text>
</a>
</g>
<path d="M252 31h10"></path>
<g>
<path d="M262 31h0"></path>
<path d="M402 31h0"></path>
<path d="M262 31h20"></path>
<g class="non-terminal">
<path d="M282 31h24"></path>
<path d="M358 31h24"></path>
<rect x="306" y="20" width="52" height="22"></rect>
<a xlink:href="reuse_type.svg"><text x="332" y="35">type</text>
</a>
</g>
<path d="M382 31h20"></path>
<path d="M262 31a10 10 0 0 1 10 10v10a10 10 0 0 0 10 10"></path>
<g class="non-terminal">
<path d="M282 61h0"></path>
<path d="M382 61h0"></path>
<rect x="282" y="50" width="100" height="22"></rect>
<a xlink:href="reuse_type_table.svg"><text x="332" y="65">type&#95;table</text>
</a>
</g>
<path d="M382 61a10 10 0 0 0 10 -10v-10a10 10 0 0 1 10 -10"></path>
</g>
</g>
<path d="M402 31h10"></path>
<path d="M 412 31 h 20 m -10 -10 v 20 m 10 -20 v 20"></path>
</g>
</svg>
