<svg xmlns="http://www.w3.org/2000/svg" xmlns:xlink="http://www.w3.org/1999/xlink" class="railroad-diagram" width="814" height="109" viewBox="0 0 814 109">
<defs>
<style type="text/css"><![CDATA[
path {
stroke-width: 3;
stroke: black;
fill: rgba(0,0,0,0);
}
text {
font: bold 14px monospace;
text-anchor: middle;
}
text.diagram-text {
font-size: 12px;
}
a {
fill: blue;
}
text.diagram-arrow {
font-size: 16px;
}
text.label {
text-anchor: start;
}
text.comment {
font: italic 12px monospace;
}
rect {
stroke-width: 3;
stroke: black;
fill: #BCBCBC;
}
path.diagram-text {
stroke-width: 3;
stroke: black;
fill: #BCBCBC;
cursor: help;
}
]]></style>
</defs>
<g transform="translate(.5 .5)">
<path d="M 20 38 v 20 m 10 -20 v 20 m -10 -10 h 20.5"></path>
<path d="M40 48h10"></path>
<g>
<path d="M50 48h0"></path>
<path d="M764 48h0"></path>
<g>
<path d="M50 48h0"></path>
<path d="M182 48h0"></path>
<path d="M50 48h20"></path>
<g class="terminal">
<path d="M70 48h0"></path>
<path d="M154 48h8"></path>
<rect x="70" y="37" width="84" height="22" rx="10" ry="10"></rect>
<text x="112" y="52">"STATIC"</text>
</g>
<path d="M162 48h20"></path>
<path d="M50 48a10 10 0 0 1 10 10v10a10 10 0 0 0 10 10"></path>
<g class="terminal">
<path d="M70 78h0"></path>
<path d="M162 78h0"></path>
<rect x="70" y="67" width="92" height="22" rx="10" ry="10"></rect>
<text x="116" y="82">"STATICS"</text>
</g>
<path d="M162 78a10 10 0 0 0 10 -10v-10a10 10 0 0 1 10 -10"></path>
</g>
<path d="M182 48h10"></path>
<g class="non-terminal">
<path d="M192 48h0"></path>
<path d="M364 48h0"></path>
<rect x="192" y="37" width="172" height="22"></rect>
<a xlink:href="reuse_namespacesimplename.svg"><text x="278" y="52">NamespaceSimpleName</text>
</a>
</g>
<path d="M364 48h10"></path>
<g>
<path d="M374 48h0"></path>
<path d="M664 48h0"></path>
<path d="M374 48a10 10 0 0 0 10 -10v-8a10 10 0 0 1 10 -10"></path>
<g>
<path d="M394 20h250"></path>
</g>
<path d="M644 20a10 10 0 0 1 10 10v8a10 10 0 0 0 10 10"></path>
<path d="M374 48h20"></path>
<g>
<path d="M394 48h0"></path>
<path d="M644 48h0"></path>
<path d="M394 48h20"></path>
<g>
<path d="M414 48h0"></path>
<path d="M624 48h0"></path>
<g>
<path d="M414 48h0"></path>
<path d="M562 48h0"></path>
<path d="M414 48a10 10 0 0 0 10 -10v0a10 10 0 0 1 10 -10"></path>
<g>
<path d="M434 28h108"></path>
</g>
<path d="M542 28a10 10 0 0 1 10 10v0a10 10 0 0 0 10 10"></path>
<path d="M414 48h20"></path>
<g class="non-terminal">
<path d="M434 48h0"></path>
<path d="M542 48h0"></path>
<rect x="434" y="37" width="108" height="22"></rect>
<a xlink:href="reuse_fieldlength.svg"><text x="488" y="52">FieldLength</text>
</a>
</g>
<path d="M542 48h20"></path>
</g>
<path d="M562 48h10"></path>
<g class="non-terminal">
<path d="M572 48h0"></path>
<path d="M624 48h0"></path>
<rect x="572" y="37" width="52" height="22"></rect>
<a xlink:href="reuse_type.svg"><text x="598" y="52">Type</text>
</a>
</g>
</g>
<path d="M624 48h20"></path>
<path d="M394 48a10 10 0 0 1 10 10v10a10 10 0 0 0 10 10"></path>
<g class="non-terminal">
<path d="M414 78h0"></path>
<path d="M506 78h118"></path>
<rect x="414" y="67" width="92" height="22"></rect>
<a xlink:href="reuse_typetable.svg"><text x="460" y="82">TypeTable</text>
</a>
</g>
<path d="M624 78a10 10 0 0 0 10 -10v-10a10 10 0 0 1 10 -10"></path>
</g>
<path d="M644 48h20"></path>
</g>
<g>
<path d="M664 48h0"></path>
<path d="M764 48h0"></path>
<path d="M664 48a10 10 0 0 0 10 -10v0a10 10 0 0 1 10 -10"></path>
<g>
<path d="M684 28h60"></path>
</g>
<path d="M744 28a10 10 0 0 1 10 10v0a10 10 0 0 0 10 10"></path>
<path d="M664 48h20"></path>
<g class="non-terminal">
<path d="M684 48h0"></path>
<path d="M744 48h0"></path>
<rect x="684" y="37" width="60" height="22"></rect>
<a xlink:href="reuse_value.svg"><text x="714" y="52">Value</text>
</a>
</g>
<path d="M744 48h20"></path>
</g>
</g>
<path d="M764 48h10"></path>
<path d="M 774 48 h 20 m -10 -10 v 20 m 10 -20 v 20"></path>
</g>
</svg>
