<svg xmlns="http://www.w3.org/2000/svg" xmlns:xlink="http://www.w3.org/1999/xlink" class="railroad-diagram" width="1082" height="829" viewBox="0 0 1082 829">
<defs>
<style type="text/css"><![CDATA[
path {
stroke-width: 3;
stroke: black;
fill: rgba(0,0,0,0);
}
text {
font: bold 14px monospace;
text-anchor: middle;
}
text.diagram-text {
font-size: 12px;
}
a {
fill: blue;
}
text.diagram-arrow {
font-size: 16px;
}
text.label {
text-anchor: start;
}
text.comment {
font: italic 12px monospace;
}
rect {
stroke-width: 3;
stroke: black;
fill: #BCBCBC;
}
path.diagram-text {
stroke-width: 3;
stroke: black;
fill: #BCBCBC;
cursor: help;
}
]]></style>
</defs>
<g transform="translate(.5 .5)">
<path d="M 20 30 v 20 m 10 -20 v 20 m -10 -10 h 20.5"></path>
<path d="M40 40h10"></path>
<g>
<path d="M50 40h0"></path>
<path d="M1032 40h0"></path>
<g class="terminal">
<path d="M50 40h0"></path>
<path d="M134 40h0"></path>
<rect x="50" y="29" width="84" height="22" rx="10" ry="10"></rect>
<text x="92" y="44">"SUBMIT"</text>
</g>
<path d="M134 40h10"></path>
<g>
<path d="M144 40h0"></path>
<path d="M356 40h0"></path>
<path d="M144 40h20"></path>
<g class="non-terminal">
<path d="M164 40h0"></path>
<path d="M336 40h0"></path>
<rect x="164" y="29" width="172" height="22"></rect>
<a xlink:href="reuse_namespacesimplename.svg"><text x="250" y="44">NamespaceSimpleName</text>
</a>
</g>
<path d="M336 40h20"></path>
<path d="M144 40a10 10 0 0 1 10 10v10a10 10 0 0 0 10 10"></path>
<g class="non-terminal">
<path d="M164 70h0"></path>
<path d="M240 70h96"></path>
<rect x="164" y="59" width="76" height="22"></rect>
<a xlink:href="reuse_dynamic.svg"><text x="202" y="74">Dynamic</text>
</a>
</g>
<path d="M336 70a10 10 0 0 0 10 -10v-10a10 10 0 0 1 10 -10"></path>
</g>
<g>
<path d="M356 40h0"></path>
<path d="M1032 40h0"></path>
<path d="M356 40a10 10 0 0 0 10 -10v0a10 10 0 0 1 10 -10"></path>
<g>
<path d="M376 20h636"></path>
</g>
<path d="M1012 20a10 10 0 0 1 10 10v0a10 10 0 0 0 10 10"></path>
<path d="M356 40h20"></path>
<g>
<path d="M376 40h0"></path>
<path d="M1012 40h0"></path>
<path d="M406 40h10"></path>
<g>
<path d="M416 40h0"></path>
<path d="M982 40h0"></path>
<path d="M416 40h10"></path>
<g>
<path d="M426 40h0"></path>
<path d="M972 40h0"></path>
<g class="terminal">
<path d="M426 40h0"></path>
<path d="M494 40h0"></path>
<rect x="426" y="29" width="68" height="22" rx="10" ry="10"></rect>
<text x="460" y="44">"WITH"</text>
</g>
<path d="M494 40h10"></path>
<path d="M504 40h10"></path>
<g class="non-terminal">
<path d="M514 40h0"></path>
<path d="M574 40h0"></path>
<rect x="514" y="29" width="60" height="22"></rect>
<a xlink:href="reuse_field.svg"><text x="544" y="44">Field</text>
</a>
</g>
<path d="M574 40h10"></path>
<g>
<path d="M584 40h0"></path>
<path d="M972 40h0"></path>
<path d="M584 40h20"></path>
<g>
<path d="M604 40h0"></path>
<path d="M790 40h162"></path>
<g>
<path d="M604 40h0"></path>
<path d="M712 40h0"></path>
<path d="M604 40h20"></path>
<g class="terminal">
<path d="M624 40h0"></path>
<path d="M668 40h24"></path>
<rect x="624" y="29" width="44" height="22" rx="10" ry="10"></rect>
<text x="646" y="44">"="</text>
</g>
<path d="M692 40h20"></path>
<path d="M604 40a10 10 0 0 1 10 10v10a10 10 0 0 0 10 10"></path>
<g class="terminal">
<path d="M624 70h0"></path>
<path d="M676 70h16"></path>
<rect x="624" y="59" width="52" height="22" rx="10" ry="10"></rect>
<text x="650" y="74">"EQ"</text>
</g>
<path d="M692 70a10 10 0 0 0 10 -10v-10a10 10 0 0 1 10 -10"></path>
<path d="M604 40a10 10 0 0 1 10 10v40a10 10 0 0 0 10 10"></path>
<g class="terminal">
<path d="M624 100h0"></path>
<path d="M676 100h16"></path>
<rect x="624" y="89" width="52" height="22" rx="10" ry="10"></rect>
<text x="650" y="104">"IN"</text>
</g>
<path d="M692 100a10 10 0 0 0 10 -10v-40a10 10 0 0 1 10 -10"></path>
<path d="M604 40a10 10 0 0 1 10 10v70a10 10 0 0 0 10 10"></path>
<g class="terminal">
<path d="M624 130h0"></path>
<path d="M676 130h16"></path>
<rect x="624" y="119" width="52" height="22" rx="10" ry="10"></rect>
<text x="650" y="134">"NE"</text>
</g>
<path d="M692 130a10 10 0 0 0 10 -10v-70a10 10 0 0 1 10 -10"></path>
<path d="M604 40a10 10 0 0 1 10 10v100a10 10 0 0 0 10 10"></path>
<g class="terminal">
<path d="M624 160h0"></path>
<path d="M692 160h0"></path>
<rect x="624" y="149" width="68" height="22" rx="10" ry="10"></rect>
<text x="658" y="164">"INCL"</text>
</g>
<path d="M692 160a10 10 0 0 0 10 -10v-100a10 10 0 0 1 10 -10"></path>
</g>
<path d="M712 40h10"></path>
<g class="non-terminal">
<path d="M722 40h0"></path>
<path d="M790 40h0"></path>
<rect x="722" y="29" width="68" height="22"></rect>
<a xlink:href="reuse_source.svg"><text x="756" y="44">Source</text>
</a>
</g>
</g>
<path d="M952 40h20"></path>
<path d="M584 40a10 10 0 0 1 10 10v130a10 10 0 0 0 10 10"></path>
<g>
<path d="M604 190h0"></path>
<path d="M952 190h0"></path>
<g class="terminal">
<path d="M604 190h0"></path>
<path d="M696 190h0"></path>
<rect x="604" y="179" width="92" height="22" rx="10" ry="10"></rect>
<text x="650" y="194">"BETWEEN"</text>
</g>
<path d="M696 190h10"></path>
<path d="M706 190h10"></path>
<g class="non-terminal">
<path d="M716 190h0"></path>
<path d="M784 190h0"></path>
<rect x="716" y="179" width="68" height="22"></rect>
<a xlink:href="reuse_source.svg"><text x="750" y="194">Source</text>
</a>
</g>
<path d="M784 190h10"></path>
<path d="M794 190h10"></path>
<g class="terminal">
<path d="M804 190h0"></path>
<path d="M864 190h0"></path>
<rect x="804" y="179" width="60" height="22" rx="10" ry="10"></rect>
<text x="834" y="194">"AND"</text>
</g>
<path d="M864 190h10"></path>
<path d="M874 190h10"></path>
<g class="non-terminal">
<path d="M884 190h0"></path>
<path d="M952 190h0"></path>
<rect x="884" y="179" width="68" height="22"></rect>
<a xlink:href="reuse_source.svg"><text x="918" y="194">Source</text>
</a>
</g>
</g>
<path d="M952 190a10 10 0 0 0 10 -10v-130a10 10 0 0 1 10 -10"></path>
</g>
</g>
<path d="M972 40h10"></path>
<path d="M426 40a10 10 0 0 0 -10 10v149a10 10 0 0 0 10 10"></path>
<g>
<path d="M426 209h546"></path>
</g>
<path d="M972 209a10 10 0 0 0 10 -10v-149a10 10 0 0 0 -10 -10"></path>
</g>
<path d="M982 40h10"></path>
<path d="M406 40v178a10 10 0 0 0 10 10"></path>
<g>
<path d="M416 228h0"></path>
<path d="M700 228h282"></path>
<g class="terminal">
<path d="M416 228h0"></path>
<path d="M612 228h0"></path>
<rect x="416" y="217" width="196" height="22" rx="10" ry="10"></rect>
<text x="514" y="232">"WITH SELECTION-TABLE"</text>
</g>
<path d="M612 228h10"></path>
<path d="M622 228h10"></path>
<g class="non-terminal">
<path d="M632 228h0"></path>
<path d="M700 228h0"></path>
<rect x="632" y="217" width="68" height="22"></rect>
<a xlink:href="reuse_source.svg"><text x="666" y="232">Source</text>
</a>
</g>
</g>
<path d="M982 228a10 10 0 0 0 10 -10v-178"></path>
<path d="M406 40v208a10 10 0 0 0 10 10"></path>
<g>
<path d="M416 258h0"></path>
<path d="M668 258h314"></path>
<g class="terminal">
<path d="M416 258h0"></path>
<path d="M580 258h0"></path>
<rect x="416" y="247" width="164" height="22" rx="10" ry="10"></rect>
<text x="498" y="262">"SPOOL PARAMETERS"</text>
</g>
<path d="M580 258h10"></path>
<path d="M590 258h10"></path>
<g class="non-terminal">
<path d="M600 258h0"></path>
<path d="M668 258h0"></path>
<rect x="600" y="247" width="68" height="22"></rect>
<a xlink:href="reuse_source.svg"><text x="634" y="262">Source</text>
</a>
</g>
</g>
<path d="M982 258a10 10 0 0 0 10 -10v-208"></path>
<path d="M406 40v238a10 10 0 0 0 10 10"></path>
<g>
<path d="M416 288h0"></path>
<path d="M612 288h370"></path>
<g class="terminal">
<path d="M416 288h0"></path>
<path d="M524 288h0"></path>
<rect x="416" y="277" width="108" height="22" rx="10" ry="10"></rect>
<text x="470" y="292">"LINE-SIZE"</text>
</g>
<path d="M524 288h10"></path>
<path d="M534 288h10"></path>
<g class="non-terminal">
<path d="M544 288h0"></path>
<path d="M612 288h0"></path>
<rect x="544" y="277" width="68" height="22"></rect>
<a xlink:href="reuse_source.svg"><text x="578" y="292">Source</text>
</a>
</g>
</g>
<path d="M982 288a10 10 0 0 0 10 -10v-238"></path>
<path d="M406 40v268a10 10 0 0 0 10 10"></path>
<g>
<path d="M416 318h0"></path>
<path d="M620 318h362"></path>
<g class="terminal">
<path d="M416 318h0"></path>
<path d="M532 318h0"></path>
<rect x="416" y="307" width="116" height="22" rx="10" ry="10"></rect>
<text x="474" y="322">"LINE-COUNT"</text>
</g>
<path d="M532 318h10"></path>
<path d="M542 318h10"></path>
<g class="non-terminal">
<path d="M552 318h0"></path>
<path d="M620 318h0"></path>
<rect x="552" y="307" width="68" height="22"></rect>
<a xlink:href="reuse_source.svg"><text x="586" y="322">Source</text>
</a>
</g>
</g>
<path d="M982 318a10 10 0 0 0 10 -10v-268"></path>
<path d="M406 40v298a10 10 0 0 0 10 10"></path>
<g>
<path d="M416 348h0"></path>
<path d="M684 348h298"></path>
<g class="terminal">
<path d="M416 348h0"></path>
<path d="M596 348h0"></path>
<rect x="416" y="337" width="180" height="22" rx="10" ry="10"></rect>
<text x="506" y="352">"ARCHIVE PARAMETERS"</text>
</g>
<path d="M596 348h10"></path>
<path d="M606 348h10"></path>
<g class="non-terminal">
<path d="M616 348h0"></path>
<path d="M684 348h0"></path>
<rect x="616" y="337" width="68" height="22"></rect>
<a xlink:href="reuse_source.svg"><text x="650" y="352">Source</text>
</a>
</g>
</g>
<path d="M982 348a10 10 0 0 0 10 -10v-298"></path>
<path d="M406 40v328a10 10 0 0 0 10 10"></path>
<g>
<path d="M416 378h0"></path>
<path d="M572 378h410"></path>
<g class="terminal">
<path d="M416 378h0"></path>
<path d="M484 378h0"></path>
<rect x="416" y="367" width="68" height="22" rx="10" ry="10"></rect>
<text x="450" y="382">"USER"</text>
</g>
<path d="M484 378h10"></path>
<path d="M494 378h10"></path>
<g class="non-terminal">
<path d="M504 378h0"></path>
<path d="M572 378h0"></path>
<rect x="504" y="367" width="68" height="22"></rect>
<a xlink:href="reuse_source.svg"><text x="538" y="382">Source</text>
</a>
</g>
</g>
<path d="M982 378a10 10 0 0 0 10 -10v-328"></path>
<path d="M406 40v358a10 10 0 0 0 10 10"></path>
<g>
<path d="M416 408h0"></path>
<path d="M692 408h290"></path>
<g class="terminal">
<path d="M416 408h0"></path>
<path d="M604 408h0"></path>
<rect x="416" y="397" width="188" height="22" rx="10" ry="10"></rect>
<text x="510" y="412">"USING SELECTION-SET"</text>
</g>
<path d="M604 408h10"></path>
<path d="M614 408h10"></path>
<g class="non-terminal">
<path d="M624 408h0"></path>
<path d="M692 408h0"></path>
<rect x="624" y="397" width="68" height="22"></rect>
<a xlink:href="reuse_source.svg"><text x="658" y="412">Source</text>
</a>
</g>
</g>
<path d="M982 408a10 10 0 0 0 10 -10v-358"></path>
<path d="M406 40v388a10 10 0 0 0 10 10"></path>
<g>
<path d="M416 438h0"></path>
<path d="M788 438h194"></path>
<g class="terminal">
<path d="M416 438h0"></path>
<path d="M700 438h0"></path>
<rect x="416" y="427" width="284" height="22" rx="10" ry="10"></rect>
<text x="558" y="442">"USING SELECTION-SETS OF PROGRAM"</text>
</g>
<path d="M700 438h10"></path>
<path d="M710 438h10"></path>
<g class="non-terminal">
<path d="M720 438h0"></path>
<path d="M788 438h0"></path>
<rect x="720" y="427" width="68" height="22"></rect>
<a xlink:href="reuse_source.svg"><text x="754" y="442">Source</text>
</a>
</g>
</g>
<path d="M982 438a10 10 0 0 0 10 -10v-388"></path>
<path d="M406 40v418a10 10 0 0 0 10 10"></path>
<g>
<path d="M416 468h0"></path>
<path d="M644 468h338"></path>
<g class="terminal">
<path d="M416 468h0"></path>
<path d="M556 468h0"></path>
<rect x="416" y="457" width="140" height="22" rx="10" ry="10"></rect>
<text x="486" y="472">"KEEP IN SPOOL"</text>
</g>
<path d="M556 468h10"></path>
<path d="M566 468h10"></path>
<g class="non-terminal">
<path d="M576 468h0"></path>
<path d="M644 468h0"></path>
<rect x="576" y="457" width="68" height="22"></rect>
<a xlink:href="reuse_source.svg"><text x="610" y="472">Source</text>
</a>
</g>
</g>
<path d="M982 468a10 10 0 0 0 10 -10v-418"></path>
<path d="M406 40v448a10 10 0 0 0 10 10"></path>
<g>
<path d="M416 498h0"></path>
<path d="M628 498h354"></path>
<g class="terminal">
<path d="M416 498h0"></path>
<path d="M540 498h0"></path>
<rect x="416" y="487" width="124" height="22" rx="10" ry="10"></rect>
<text x="478" y="502">"IMMEDIATELY"</text>
</g>
<path d="M540 498h10"></path>
<path d="M550 498h10"></path>
<g class="non-terminal">
<path d="M560 498h0"></path>
<path d="M628 498h0"></path>
<rect x="560" y="487" width="68" height="22"></rect>
<a xlink:href="reuse_source.svg"><text x="594" y="502">Source</text>
</a>
</g>
</g>
<path d="M982 498a10 10 0 0 0 10 -10v-448"></path>
<path d="M406 40v478a10 10 0 0 0 10 10"></path>
<g>
<path d="M416 528h0"></path>
<path d="M628 528h354"></path>
<g class="terminal">
<path d="M416 528h0"></path>
<path d="M540 528h0"></path>
<rect x="416" y="517" width="124" height="22" rx="10" ry="10"></rect>
<text x="478" y="532">"DESTINATION"</text>
</g>
<path d="M540 528h10"></path>
<path d="M550 528h10"></path>
<g class="non-terminal">
<path d="M560 528h0"></path>
<path d="M628 528h0"></path>
<rect x="560" y="517" width="68" height="22"></rect>
<a xlink:href="reuse_source.svg"><text x="594" y="532">Source</text>
</a>
</g>
</g>
<path d="M982 528a10 10 0 0 0 10 -10v-478"></path>
<path d="M406 40v508a10 10 0 0 0 10 10"></path>
<g>
<path d="M416 558h0"></path>
<path d="M700 558h282"></path>
<g class="terminal">
<path d="M416 558h0"></path>
<path d="M612 558h0"></path>
<rect x="416" y="547" width="196" height="22" rx="10" ry="10"></rect>
<text x="514" y="562">"WITH FREE SELECTIONS"</text>
</g>
<path d="M612 558h10"></path>
<path d="M622 558h10"></path>
<g class="non-terminal">
<path d="M632 558h0"></path>
<path d="M700 558h0"></path>
<rect x="632" y="547" width="68" height="22"></rect>
<a xlink:href="reuse_source.svg"><text x="666" y="562">Source</text>
</a>
</g>
</g>
<path d="M982 558a10 10 0 0 0 10 -10v-508"></path>
<path d="M406 40v538a10 10 0 0 0 10 10"></path>
<g>
<path d="M416 588h0"></path>
<path d="M572 588h410"></path>
<g class="terminal">
<path d="M416 588h0"></path>
<path d="M484 588h0"></path>
<rect x="416" y="577" width="68" height="22" rx="10" ry="10"></rect>
<text x="450" y="592">"SIGN"</text>
</g>
<path d="M484 588h10"></path>
<path d="M494 588h10"></path>
<g class="non-terminal">
<path d="M504 588h0"></path>
<path d="M572 588h0"></path>
<rect x="504" y="577" width="68" height="22"></rect>
<a xlink:href="reuse_source.svg"><text x="538" y="592">Source</text>
</a>
</g>
</g>
<path d="M982 588a10 10 0 0 0 10 -10v-538"></path>
<path d="M406 40v568a10 10 0 0 0 10 10"></path>
<g>
<path d="M416 618h0"></path>
<path d="M716 618h266"></path>
<g class="terminal">
<path d="M416 618h0"></path>
<path d="M628 618h0"></path>
<rect x="416" y="607" width="212" height="22" rx="10" ry="10"></rect>
<text x="522" y="622">"USING SELECTION-SCREEN"</text>
</g>
<path d="M628 618h10"></path>
<path d="M638 618h10"></path>
<g class="non-terminal">
<path d="M648 618h0"></path>
<path d="M716 618h0"></path>
<rect x="648" y="607" width="68" height="22"></rect>
<a xlink:href="reuse_source.svg"><text x="682" y="622">Source</text>
</a>
</g>
</g>
<path d="M982 618a10 10 0 0 0 10 -10v-568"></path>
<path d="M406 40v598a10 10 0 0 0 10 10"></path>
<g class="terminal">
<path d="M416 648h0"></path>
<path d="M548 648h434"></path>
<rect x="416" y="637" width="132" height="22" rx="10" ry="10"></rect>
<text x="482" y="652">"TO SAP-SPOOL"</text>
</g>
<path d="M982 648a10 10 0 0 0 10 -10v-598"></path>
<path d="M406 40v628a10 10 0 0 0 10 10"></path>
<g class="terminal">
<path d="M416 678h0"></path>
<path d="M612 678h370"></path>
<rect x="416" y="667" width="196" height="22" rx="10" ry="10"></rect>
<text x="514" y="682">"WITHOUT SPOOL DYNPRO"</text>
</g>
<path d="M982 678a10 10 0 0 0 10 -10v-628"></path>
<path d="M406 40v658a10 10 0 0 0 10 10"></path>
<g class="terminal">
<path d="M416 708h0"></path>
<path d="M612 708h370"></path>
<rect x="416" y="697" width="196" height="22" rx="10" ry="10"></rect>
<text x="514" y="712">"VIA SELECTION-SCREEN"</text>
</g>
<path d="M982 708a10 10 0 0 0 10 -10v-658"></path>
<path d="M406 40v688a10 10 0 0 0 10 10"></path>
<g class="terminal">
<path d="M416 738h0"></path>
<path d="M644 738h338"></path>
<rect x="416" y="727" width="228" height="22" rx="10" ry="10"></rect>
<text x="530" y="742">"EXPORTING LIST TO MEMORY"</text>
</g>
<path d="M982 738a10 10 0 0 0 10 -10v-688"></path>
<path d="M406 40v718a10 10 0 0 0 10 10"></path>
<g class="terminal">
<path d="M416 768h0"></path>
<path d="M532 768h450"></path>
<rect x="416" y="757" width="116" height="22" rx="10" ry="10"></rect>
<text x="474" y="772">"AND RETURN"</text>
</g>
<path d="M982 768a10 10 0 0 0 10 -10v-718"></path>
<path d="M406 40v748a10 10 0 0 0 10 10"></path>
<g>
<path d="M416 798h0"></path>
<path d="M788 798h194"></path>
<g class="terminal">
<path d="M416 798h0"></path>
<path d="M508 798h0"></path>
<rect x="416" y="787" width="92" height="22" rx="10" ry="10"></rect>
<text x="462" y="802">"VIA JOB"</text>
</g>
<path d="M508 798h10"></path>
<path d="M518 798h10"></path>
<g class="non-terminal">
<path d="M528 798h0"></path>
<path d="M596 798h0"></path>
<rect x="528" y="787" width="68" height="22"></rect>
<a xlink:href="reuse_source.svg"><text x="562" y="802">Source</text>
</a>
</g>
<path d="M596 798h10"></path>
<path d="M606 798h10"></path>
<g class="terminal">
<path d="M616 798h0"></path>
<path d="M700 798h0"></path>
<rect x="616" y="787" width="84" height="22" rx="10" ry="10"></rect>
<text x="658" y="802">"NUMBER"</text>
</g>
<path d="M700 798h10"></path>
<path d="M710 798h10"></path>
<g class="non-terminal">
<path d="M720 798h0"></path>
<path d="M788 798h0"></path>
<rect x="720" y="787" width="68" height="22"></rect>
<a xlink:href="reuse_source.svg"><text x="754" y="802">Source</text>
</a>
</g>
</g>
<path d="M982 798a10 10 0 0 0 10 -10v-748"></path>
<g class="diagram-text">
<title>take one or more branches, once each, in any order</title>
<path d="M 406 30 h -26 a 4 4 0 0 0 -4 4 v 12 a 4 4 0 0 0 4 4 h 26 z" class="diagram-text"></path>
<text x="391" y="44" class="diagram-text">1+</text>
<path d="M 992 30 h 16 a 4 4 0 0 1 4 4 v 12 a 4 4 0 0 1 -4 4 h -16 z" class="diagram-text"></path>
<path d="M 999 38 a 4 4 0 1 0 6 -1 m 2.75 -1 h -4 v 4 m 0 -3 h 2" style="stroke-width: 1.75"></path>
</g>
</g>
<path d="M1012 40h20"></path>
</g>
</g>
<path d="M1032 40h10"></path>
<path d="M 1042 40 h 20 m -10 -10 v 20 m 10 -20 v 20"></path>
</g>
</svg>
