<svg xmlns="http://www.w3.org/2000/svg" xmlns:xlink="http://www.w3.org/1999/xlink" class="railroad-diagram" width="986" height="709" viewBox="0 0 986 709">
<defs>
<style type="text/css"><![CDATA[
path {
stroke-width: 3;
stroke: black;
fill: rgba(0,0,0,0);
}
text {
font: bold 14px monospace;
text-anchor: middle;
}
text.diagram-text {
font-size: 12px;
}
a {
fill: blue;
}
text.diagram-arrow {
font-size: 16px;
}
text.label {
text-anchor: start;
}
text.comment {
font: italic 12px monospace;
}
rect {
stroke-width: 3;
stroke: black;
fill: #BCBCBC;
}
path.diagram-text {
stroke-width: 3;
stroke: black;
fill: #BCBCBC;
cursor: help;
}
]]></style>
</defs>
<g transform="translate(.5 .5)">
<path d="M 20 30 v 20 m 10 -20 v 20 m -10 -10 h 20.5"></path>
<path d="M40 40h10"></path>
<g>
<path d="M50 40h0"></path>
<path d="M936 40h0"></path>
<g class="terminal">
<path d="M50 40h0"></path>
<path d="M134 40h0"></path>
<rect x="50" y="29" width="84" height="22" rx="10" ry="10"></rect>
<text x="92" y="44">"SUBMIT"</text>
</g>
<path d="M134 40h10"></path>
<g>
<path d="M144 40h0"></path>
<path d="M260 40h0"></path>
<path d="M144 40h20"></path>
<g class="non-terminal">
<path d="M164 40h0"></path>
<path d="M232 40h8"></path>
<rect x="164" y="29" width="68" height="22"></rect>
<a xlink:href="reuse_source.svg"><text x="198" y="44">Source</text>
</a>
</g>
<path d="M240 40h20"></path>
<path d="M144 40a10 10 0 0 1 10 10v10a10 10 0 0 0 10 10"></path>
<g class="non-terminal">
<path d="M164 70h0"></path>
<path d="M240 70h0"></path>
<rect x="164" y="59" width="76" height="22"></rect>
<a xlink:href="reuse_dynamic.svg"><text x="202" y="74">Dynamic</text>
</a>
</g>
<path d="M240 70a10 10 0 0 0 10 -10v-10a10 10 0 0 1 10 -10"></path>
</g>
<g>
<path d="M260 40h0"></path>
<path d="M936 40h0"></path>
<path d="M260 40a10 10 0 0 0 10 -10v0a10 10 0 0 1 10 -10"></path>
<g>
<path d="M280 20h636"></path>
</g>
<path d="M916 20a10 10 0 0 1 10 10v0a10 10 0 0 0 10 10"></path>
<path d="M260 40h20"></path>
<g>
<path d="M280 40h0"></path>
<path d="M916 40h0"></path>
<path d="M310 40h10"></path>
<g>
<path d="M320 40h0"></path>
<path d="M886 40h0"></path>
<path d="M320 40h10"></path>
<g>
<path d="M330 40h0"></path>
<path d="M876 40h0"></path>
<g class="terminal">
<path d="M330 40h0"></path>
<path d="M398 40h0"></path>
<rect x="330" y="29" width="68" height="22" rx="10" ry="10"></rect>
<text x="364" y="44">"WITH"</text>
</g>
<path d="M398 40h10"></path>
<path d="M408 40h10"></path>
<g class="non-terminal">
<path d="M418 40h0"></path>
<path d="M478 40h0"></path>
<rect x="418" y="29" width="60" height="22"></rect>
<a xlink:href="reuse_field.svg"><text x="448" y="44">Field</text>
</a>
</g>
<path d="M478 40h10"></path>
<g>
<path d="M488 40h0"></path>
<path d="M876 40h0"></path>
<path d="M488 40h20"></path>
<g>
<path d="M508 40h0"></path>
<path d="M694 40h162"></path>
<g>
<path d="M508 40h0"></path>
<path d="M616 40h0"></path>
<path d="M508 40h20"></path>
<g class="terminal">
<path d="M528 40h0"></path>
<path d="M572 40h24"></path>
<rect x="528" y="29" width="44" height="22" rx="10" ry="10"></rect>
<text x="550" y="44">"="</text>
</g>
<path d="M596 40h20"></path>
<path d="M508 40a10 10 0 0 1 10 10v10a10 10 0 0 0 10 10"></path>
<g class="terminal">
<path d="M528 70h0"></path>
<path d="M580 70h16"></path>
<rect x="528" y="59" width="52" height="22" rx="10" ry="10"></rect>
<text x="554" y="74">"EQ"</text>
</g>
<path d="M596 70a10 10 0 0 0 10 -10v-10a10 10 0 0 1 10 -10"></path>
<path d="M508 40a10 10 0 0 1 10 10v40a10 10 0 0 0 10 10"></path>
<g class="terminal">
<path d="M528 100h0"></path>
<path d="M580 100h16"></path>
<rect x="528" y="89" width="52" height="22" rx="10" ry="10"></rect>
<text x="554" y="104">"IN"</text>
</g>
<path d="M596 100a10 10 0 0 0 10 -10v-40a10 10 0 0 1 10 -10"></path>
<path d="M508 40a10 10 0 0 1 10 10v70a10 10 0 0 0 10 10"></path>
<g class="terminal">
<path d="M528 130h0"></path>
<path d="M580 130h16"></path>
<rect x="528" y="119" width="52" height="22" rx="10" ry="10"></rect>
<text x="554" y="134">"NE"</text>
</g>
<path d="M596 130a10 10 0 0 0 10 -10v-70a10 10 0 0 1 10 -10"></path>
<path d="M508 40a10 10 0 0 1 10 10v100a10 10 0 0 0 10 10"></path>
<g class="terminal">
<path d="M528 160h0"></path>
<path d="M596 160h0"></path>
<rect x="528" y="149" width="68" height="22" rx="10" ry="10"></rect>
<text x="562" y="164">"INCL"</text>
</g>
<path d="M596 160a10 10 0 0 0 10 -10v-100a10 10 0 0 1 10 -10"></path>
</g>
<path d="M616 40h10"></path>
<g class="non-terminal">
<path d="M626 40h0"></path>
<path d="M694 40h0"></path>
<rect x="626" y="29" width="68" height="22"></rect>
<a xlink:href="reuse_source.svg"><text x="660" y="44">Source</text>
</a>
</g>
</g>
<path d="M856 40h20"></path>
<path d="M488 40a10 10 0 0 1 10 10v130a10 10 0 0 0 10 10"></path>
<g>
<path d="M508 190h0"></path>
<path d="M856 190h0"></path>
<g class="terminal">
<path d="M508 190h0"></path>
<path d="M600 190h0"></path>
<rect x="508" y="179" width="92" height="22" rx="10" ry="10"></rect>
<text x="554" y="194">"BETWEEN"</text>
</g>
<path d="M600 190h10"></path>
<path d="M610 190h10"></path>
<g class="non-terminal">
<path d="M620 190h0"></path>
<path d="M688 190h0"></path>
<rect x="620" y="179" width="68" height="22"></rect>
<a xlink:href="reuse_source.svg"><text x="654" y="194">Source</text>
</a>
</g>
<path d="M688 190h10"></path>
<path d="M698 190h10"></path>
<g class="terminal">
<path d="M708 190h0"></path>
<path d="M768 190h0"></path>
<rect x="708" y="179" width="60" height="22" rx="10" ry="10"></rect>
<text x="738" y="194">"AND"</text>
</g>
<path d="M768 190h10"></path>
<path d="M778 190h10"></path>
<g class="non-terminal">
<path d="M788 190h0"></path>
<path d="M856 190h0"></path>
<rect x="788" y="179" width="68" height="22"></rect>
<a xlink:href="reuse_source.svg"><text x="822" y="194">Source</text>
</a>
</g>
</g>
<path d="M856 190a10 10 0 0 0 10 -10v-130a10 10 0 0 1 10 -10"></path>
</g>
</g>
<path d="M876 40h10"></path>
<path d="M330 40a10 10 0 0 0 -10 10v149a10 10 0 0 0 10 10"></path>
<g>
<path d="M330 209h546"></path>
</g>
<path d="M876 209a10 10 0 0 0 10 -10v-149a10 10 0 0 0 -10 -10"></path>
</g>
<path d="M886 40h10"></path>
<path d="M310 40v178a10 10 0 0 0 10 10"></path>
<g>
<path d="M320 228h0"></path>
<path d="M604 228h282"></path>
<g class="terminal">
<path d="M320 228h0"></path>
<path d="M516 228h0"></path>
<rect x="320" y="217" width="196" height="22" rx="10" ry="10"></rect>
<text x="418" y="232">"WITH SELECTION-TABLE"</text>
</g>
<path d="M516 228h10"></path>
<path d="M526 228h10"></path>
<g class="non-terminal">
<path d="M536 228h0"></path>
<path d="M604 228h0"></path>
<rect x="536" y="217" width="68" height="22"></rect>
<a xlink:href="reuse_source.svg"><text x="570" y="232">Source</text>
</a>
</g>
</g>
<path d="M886 228a10 10 0 0 0 10 -10v-178"></path>
<path d="M310 40v208a10 10 0 0 0 10 10"></path>
<g>
<path d="M320 258h0"></path>
<path d="M572 258h314"></path>
<g class="terminal">
<path d="M320 258h0"></path>
<path d="M484 258h0"></path>
<rect x="320" y="247" width="164" height="22" rx="10" ry="10"></rect>
<text x="402" y="262">"SPOOL PARAMETERS"</text>
</g>
<path d="M484 258h10"></path>
<path d="M494 258h10"></path>
<g class="non-terminal">
<path d="M504 258h0"></path>
<path d="M572 258h0"></path>
<rect x="504" y="247" width="68" height="22"></rect>
<a xlink:href="reuse_source.svg"><text x="538" y="262">Source</text>
</a>
</g>
</g>
<path d="M886 258a10 10 0 0 0 10 -10v-208"></path>
<path d="M310 40v238a10 10 0 0 0 10 10"></path>
<g>
<path d="M320 288h0"></path>
<path d="M516 288h370"></path>
<g class="terminal">
<path d="M320 288h0"></path>
<path d="M428 288h0"></path>
<rect x="320" y="277" width="108" height="22" rx="10" ry="10"></rect>
<text x="374" y="292">"LINE-SIZE"</text>
</g>
<path d="M428 288h10"></path>
<path d="M438 288h10"></path>
<g class="non-terminal">
<path d="M448 288h0"></path>
<path d="M516 288h0"></path>
<rect x="448" y="277" width="68" height="22"></rect>
<a xlink:href="reuse_source.svg"><text x="482" y="292">Source</text>
</a>
</g>
</g>
<path d="M886 288a10 10 0 0 0 10 -10v-238"></path>
<path d="M310 40v268a10 10 0 0 0 10 10"></path>
<g>
<path d="M320 318h0"></path>
<path d="M524 318h362"></path>
<g class="terminal">
<path d="M320 318h0"></path>
<path d="M436 318h0"></path>
<rect x="320" y="307" width="116" height="22" rx="10" ry="10"></rect>
<text x="378" y="322">"LINE-COUNT"</text>
</g>
<path d="M436 318h10"></path>
<path d="M446 318h10"></path>
<g class="non-terminal">
<path d="M456 318h0"></path>
<path d="M524 318h0"></path>
<rect x="456" y="307" width="68" height="22"></rect>
<a xlink:href="reuse_source.svg"><text x="490" y="322">Source</text>
</a>
</g>
</g>
<path d="M886 318a10 10 0 0 0 10 -10v-268"></path>
<path d="M310 40v298a10 10 0 0 0 10 10"></path>
<g>
<path d="M320 348h0"></path>
<path d="M588 348h298"></path>
<g class="terminal">
<path d="M320 348h0"></path>
<path d="M500 348h0"></path>
<rect x="320" y="337" width="180" height="22" rx="10" ry="10"></rect>
<text x="410" y="352">"ARCHIVE PARAMETERS"</text>
</g>
<path d="M500 348h10"></path>
<path d="M510 348h10"></path>
<g class="non-terminal">
<path d="M520 348h0"></path>
<path d="M588 348h0"></path>
<rect x="520" y="337" width="68" height="22"></rect>
<a xlink:href="reuse_source.svg"><text x="554" y="352">Source</text>
</a>
</g>
</g>
<path d="M886 348a10 10 0 0 0 10 -10v-298"></path>
<path d="M310 40v328a10 10 0 0 0 10 10"></path>
<g>
<path d="M320 378h0"></path>
<path d="M476 378h410"></path>
<g class="terminal">
<path d="M320 378h0"></path>
<path d="M388 378h0"></path>
<rect x="320" y="367" width="68" height="22" rx="10" ry="10"></rect>
<text x="354" y="382">"USER"</text>
</g>
<path d="M388 378h10"></path>
<path d="M398 378h10"></path>
<g class="non-terminal">
<path d="M408 378h0"></path>
<path d="M476 378h0"></path>
<rect x="408" y="367" width="68" height="22"></rect>
<a xlink:href="reuse_source.svg"><text x="442" y="382">Source</text>
</a>
</g>
</g>
<path d="M886 378a10 10 0 0 0 10 -10v-328"></path>
<path d="M310 40v358a10 10 0 0 0 10 10"></path>
<g>
<path d="M320 408h0"></path>
<path d="M596 408h290"></path>
<g class="terminal">
<path d="M320 408h0"></path>
<path d="M508 408h0"></path>
<rect x="320" y="397" width="188" height="22" rx="10" ry="10"></rect>
<text x="414" y="412">"USING SELECTION-SET"</text>
</g>
<path d="M508 408h10"></path>
<path d="M518 408h10"></path>
<g class="non-terminal">
<path d="M528 408h0"></path>
<path d="M596 408h0"></path>
<rect x="528" y="397" width="68" height="22"></rect>
<a xlink:href="reuse_source.svg"><text x="562" y="412">Source</text>
</a>
</g>
</g>
<path d="M886 408a10 10 0 0 0 10 -10v-358"></path>
<path d="M310 40v388a10 10 0 0 0 10 10"></path>
<g>
<path d="M320 438h0"></path>
<path d="M692 438h194"></path>
<g class="terminal">
<path d="M320 438h0"></path>
<path d="M604 438h0"></path>
<rect x="320" y="427" width="284" height="22" rx="10" ry="10"></rect>
<text x="462" y="442">"USING SELECTION-SETS OF PROGRAM"</text>
</g>
<path d="M604 438h10"></path>
<path d="M614 438h10"></path>
<g class="non-terminal">
<path d="M624 438h0"></path>
<path d="M692 438h0"></path>
<rect x="624" y="427" width="68" height="22"></rect>
<a xlink:href="reuse_source.svg"><text x="658" y="442">Source</text>
</a>
</g>
</g>
<path d="M886 438a10 10 0 0 0 10 -10v-388"></path>
<path d="M310 40v418a10 10 0 0 0 10 10"></path>
<g>
<path d="M320 468h0"></path>
<path d="M604 468h282"></path>
<g class="terminal">
<path d="M320 468h0"></path>
<path d="M516 468h0"></path>
<rect x="320" y="457" width="196" height="22" rx="10" ry="10"></rect>
<text x="418" y="472">"WITH FREE SELECTIONS"</text>
</g>
<path d="M516 468h10"></path>
<path d="M526 468h10"></path>
<g class="non-terminal">
<path d="M536 468h0"></path>
<path d="M604 468h0"></path>
<rect x="536" y="457" width="68" height="22"></rect>
<a xlink:href="reuse_source.svg"><text x="570" y="472">Source</text>
</a>
</g>
</g>
<path d="M886 468a10 10 0 0 0 10 -10v-418"></path>
<path d="M310 40v448a10 10 0 0 0 10 10"></path>
<g>
<path d="M320 498h0"></path>
<path d="M476 498h410"></path>
<g class="terminal">
<path d="M320 498h0"></path>
<path d="M388 498h0"></path>
<rect x="320" y="487" width="68" height="22" rx="10" ry="10"></rect>
<text x="354" y="502">"SIGN"</text>
</g>
<path d="M388 498h10"></path>
<path d="M398 498h10"></path>
<g class="non-terminal">
<path d="M408 498h0"></path>
<path d="M476 498h0"></path>
<rect x="408" y="487" width="68" height="22"></rect>
<a xlink:href="reuse_source.svg"><text x="442" y="502">Source</text>
</a>
</g>
</g>
<path d="M886 498a10 10 0 0 0 10 -10v-448"></path>
<path d="M310 40v478a10 10 0 0 0 10 10"></path>
<g class="terminal">
<path d="M320 528h0"></path>
<path d="M452 528h434"></path>
<rect x="320" y="517" width="132" height="22" rx="10" ry="10"></rect>
<text x="386" y="532">"TO SAP-SPOOL"</text>
</g>
<path d="M886 528a10 10 0 0 0 10 -10v-478"></path>
<path d="M310 40v508a10 10 0 0 0 10 10"></path>
<g class="terminal">
<path d="M320 558h0"></path>
<path d="M516 558h370"></path>
<rect x="320" y="547" width="196" height="22" rx="10" ry="10"></rect>
<text x="418" y="562">"WITHOUT SPOOL DYNPRO"</text>
</g>
<path d="M886 558a10 10 0 0 0 10 -10v-508"></path>
<path d="M310 40v538a10 10 0 0 0 10 10"></path>
<g class="terminal">
<path d="M320 588h0"></path>
<path d="M516 588h370"></path>
<rect x="320" y="577" width="196" height="22" rx="10" ry="10"></rect>
<text x="418" y="592">"VIA SELECTION-SCREEN"</text>
</g>
<path d="M886 588a10 10 0 0 0 10 -10v-538"></path>
<path d="M310 40v568a10 10 0 0 0 10 10"></path>
<g class="terminal">
<path d="M320 618h0"></path>
<path d="M548 618h338"></path>
<rect x="320" y="607" width="228" height="22" rx="10" ry="10"></rect>
<text x="434" y="622">"EXPORTING LIST TO MEMORY"</text>
</g>
<path d="M886 618a10 10 0 0 0 10 -10v-568"></path>
<path d="M310 40v598a10 10 0 0 0 10 10"></path>
<g class="terminal">
<path d="M320 648h0"></path>
<path d="M436 648h450"></path>
<rect x="320" y="637" width="116" height="22" rx="10" ry="10"></rect>
<text x="378" y="652">"AND RETURN"</text>
</g>
<path d="M886 648a10 10 0 0 0 10 -10v-598"></path>
<path d="M310 40v628a10 10 0 0 0 10 10"></path>
<g>
<path d="M320 678h0"></path>
<path d="M692 678h194"></path>
<g class="terminal">
<path d="M320 678h0"></path>
<path d="M412 678h0"></path>
<rect x="320" y="667" width="92" height="22" rx="10" ry="10"></rect>
<text x="366" y="682">"VIA JOB"</text>
</g>
<path d="M412 678h10"></path>
<path d="M422 678h10"></path>
<g class="non-terminal">
<path d="M432 678h0"></path>
<path d="M500 678h0"></path>
<rect x="432" y="667" width="68" height="22"></rect>
<a xlink:href="reuse_source.svg"><text x="466" y="682">Source</text>
</a>
</g>
<path d="M500 678h10"></path>
<path d="M510 678h10"></path>
<g class="terminal">
<path d="M520 678h0"></path>
<path d="M604 678h0"></path>
<rect x="520" y="667" width="84" height="22" rx="10" ry="10"></rect>
<text x="562" y="682">"NUMBER"</text>
</g>
<path d="M604 678h10"></path>
<path d="M614 678h10"></path>
<g class="non-terminal">
<path d="M624 678h0"></path>
<path d="M692 678h0"></path>
<rect x="624" y="667" width="68" height="22"></rect>
<a xlink:href="reuse_source.svg"><text x="658" y="682">Source</text>
</a>
</g>
</g>
<path d="M886 678a10 10 0 0 0 10 -10v-628"></path>
<g class="diagram-text">
<title>take one or more branches, once each, in any order</title>
<path d="M 310 30 h -26 a 4 4 0 0 0 -4 4 v 12 a 4 4 0 0 0 4 4 h 26 z" class="diagram-text"></path>
<text x="295" y="44" class="diagram-text">1+</text>
<path d="M 896 30 h 16 a 4 4 0 0 1 4 4 v 12 a 4 4 0 0 1 -4 4 h -16 z" class="diagram-text"></path>
<path d="M 903 38 a 4 4 0 1 0 6 -1 m 2.75 -1 h -4 v 4 m 0 -3 h 2" style="stroke-width: 1.75"></path>
</g>
</g>
<path d="M916 40h20"></path>
</g>
</g>
<path d="M936 40h10"></path>
<path d="M 946 40 h 20 m -10 -10 v 20 m 10 -20 v 20"></path>
</g>
</svg>
