<svg xmlns="http://www.w3.org/2000/svg" xmlns:xlink="http://www.w3.org/1999/xlink" class="railroad-diagram" width="792" height="529" viewBox="0 0 792 529">
<defs>
<style type="text/css"><![CDATA[
path {
stroke-width: 3;
stroke: black;
fill: rgba(0,0,0,0);
}
text {
font: bold 14px monospace;
text-anchor: middle;
}
text.diagram-text {
font-size: 12px;
}
a {
fill: blue;
}
text.diagram-arrow {
font-size: 16px;
}
text.label {
text-anchor: start;
}
text.comment {
font: italic 12px monospace;
}
rect {
stroke-width: 3;
stroke: black;
fill: #BCBCBC;
}
path.diagram-text {
stroke-width: 3;
stroke: black;
fill: #BCBCBC;
cursor: help;
}
]]></style>
</defs>
<g transform="translate(.5 .5)">
<path d="M 20 30 v 20 m 10 -20 v 20 m -10 -10 h 20.5"></path>
<path d="M40 40h10"></path>
<g>
<path d="M50 40h0"></path>
<path d="M742 40h0"></path>
<g class="terminal">
<path d="M50 40h0"></path>
<path d="M134 40h0"></path>
<rect x="50" y="29" width="84" height="22" rx="10" ry="10"></rect>
<text x="92" y="44">"SUBMIT"</text>
</g>
<path d="M134 40h10"></path>
<g>
<path d="M144 40h0"></path>
<path d="M260 40h0"></path>
<path d="M144 40h20"></path>
<g class="non-terminal">
<path d="M164 40h0"></path>
<path d="M232 40h8"></path>
<rect x="164" y="29" width="68" height="22"></rect>
<a xlink:href="reuse_source.svg"><text x="198" y="44">Source</text>
</a>
</g>
<path d="M240 40h20"></path>
<path d="M144 40a10 10 0 0 1 10 10v10a10 10 0 0 0 10 10"></path>
<g class="non-terminal">
<path d="M164 70h0"></path>
<path d="M240 70h0"></path>
<rect x="164" y="59" width="76" height="22"></rect>
<a xlink:href="reuse_dynamic.svg"><text x="202" y="74">Dynamic</text>
</a>
</g>
<path d="M240 70a10 10 0 0 0 10 -10v-10a10 10 0 0 1 10 -10"></path>
</g>
<g>
<path d="M260 40h0"></path>
<path d="M742 40h0"></path>
<path d="M260 40a10 10 0 0 0 10 -10v0a10 10 0 0 1 10 -10"></path>
<g>
<path d="M280 20h442"></path>
</g>
<path d="M722 20a10 10 0 0 1 10 10v0a10 10 0 0 0 10 10"></path>
<path d="M260 40h20"></path>
<g>
<path d="M280 40h0"></path>
<path d="M722 40h0"></path>
<path d="M310 40h10"></path>
<g>
<path d="M320 40h0"></path>
<path d="M668 40h24"></path>
<path d="M320 40h10"></path>
<g>
<path d="M330 40h0"></path>
<path d="M658 40h0"></path>
<g class="terminal">
<path d="M330 40h0"></path>
<path d="M398 40h0"></path>
<rect x="330" y="29" width="68" height="22" rx="10" ry="10"></rect>
<text x="364" y="44">"WITH"</text>
</g>
<path d="M398 40h10"></path>
<path d="M408 40h10"></path>
<g class="non-terminal">
<path d="M418 40h0"></path>
<path d="M478 40h0"></path>
<rect x="418" y="29" width="60" height="22"></rect>
<a xlink:href="reuse_field.svg"><text x="448" y="44">Field</text>
</a>
</g>
<path d="M478 40h10"></path>
<g>
<path d="M488 40h0"></path>
<path d="M580 40h0"></path>
<path d="M488 40h20"></path>
<g class="terminal">
<path d="M508 40h0"></path>
<path d="M552 40h8"></path>
<rect x="508" y="29" width="44" height="22" rx="10" ry="10"></rect>
<text x="530" y="44">"="</text>
</g>
<path d="M560 40h20"></path>
<path d="M488 40a10 10 0 0 1 10 10v10a10 10 0 0 0 10 10"></path>
<g class="terminal">
<path d="M508 70h0"></path>
<path d="M560 70h0"></path>
<rect x="508" y="59" width="52" height="22" rx="10" ry="10"></rect>
<text x="534" y="74">"EQ"</text>
</g>
<path d="M560 70a10 10 0 0 0 10 -10v-10a10 10 0 0 1 10 -10"></path>
<path d="M488 40a10 10 0 0 1 10 10v40a10 10 0 0 0 10 10"></path>
<g class="terminal">
<path d="M508 100h0"></path>
<path d="M560 100h0"></path>
<rect x="508" y="89" width="52" height="22" rx="10" ry="10"></rect>
<text x="534" y="104">"IN"</text>
</g>
<path d="M560 100a10 10 0 0 0 10 -10v-40a10 10 0 0 1 10 -10"></path>
<path d="M488 40a10 10 0 0 1 10 10v70a10 10 0 0 0 10 10"></path>
<g class="terminal">
<path d="M508 130h0"></path>
<path d="M560 130h0"></path>
<rect x="508" y="119" width="52" height="22" rx="10" ry="10"></rect>
<text x="534" y="134">"NE"</text>
</g>
<path d="M560 130a10 10 0 0 0 10 -10v-70a10 10 0 0 1 10 -10"></path>
</g>
<path d="M580 40h10"></path>
<g class="non-terminal">
<path d="M590 40h0"></path>
<path d="M658 40h0"></path>
<rect x="590" y="29" width="68" height="22"></rect>
<a xlink:href="reuse_source.svg"><text x="624" y="44">Source</text>
</a>
</g>
</g>
<path d="M658 40h10"></path>
<path d="M330 40a10 10 0 0 0 -10 10v89a10 10 0 0 0 10 10"></path>
<g>
<path d="M330 149h328"></path>
</g>
<path d="M658 149a10 10 0 0 0 10 -10v-89a10 10 0 0 0 -10 -10"></path>
</g>
<path d="M692 40h10"></path>
<path d="M310 40v118a10 10 0 0 0 10 10"></path>
<g>
<path d="M320 168h0"></path>
<path d="M604 168h88"></path>
<g class="terminal">
<path d="M320 168h0"></path>
<path d="M516 168h0"></path>
<rect x="320" y="157" width="196" height="22" rx="10" ry="10"></rect>
<text x="418" y="172">"WITH SELECTION-TABLE"</text>
</g>
<path d="M516 168h10"></path>
<path d="M526 168h10"></path>
<g class="non-terminal">
<path d="M536 168h0"></path>
<path d="M604 168h0"></path>
<rect x="536" y="157" width="68" height="22"></rect>
<a xlink:href="reuse_source.svg"><text x="570" y="172">Source</text>
</a>
</g>
</g>
<path d="M692 168a10 10 0 0 0 10 -10v-118"></path>
<path d="M310 40v148a10 10 0 0 0 10 10"></path>
<g>
<path d="M320 198h0"></path>
<path d="M572 198h120"></path>
<g class="terminal">
<path d="M320 198h0"></path>
<path d="M484 198h0"></path>
<rect x="320" y="187" width="164" height="22" rx="10" ry="10"></rect>
<text x="402" y="202">"SPOOL PARAMETERS"</text>
</g>
<path d="M484 198h10"></path>
<path d="M494 198h10"></path>
<g class="non-terminal">
<path d="M504 198h0"></path>
<path d="M572 198h0"></path>
<rect x="504" y="187" width="68" height="22"></rect>
<a xlink:href="reuse_source.svg"><text x="538" y="202">Source</text>
</a>
</g>
</g>
<path d="M692 198a10 10 0 0 0 10 -10v-148"></path>
<path d="M310 40v178a10 10 0 0 0 10 10"></path>
<g>
<path d="M320 228h0"></path>
<path d="M516 228h176"></path>
<g class="terminal">
<path d="M320 228h0"></path>
<path d="M428 228h0"></path>
<rect x="320" y="217" width="108" height="22" rx="10" ry="10"></rect>
<text x="374" y="232">"LINE-SIZE"</text>
</g>
<path d="M428 228h10"></path>
<path d="M438 228h10"></path>
<g class="non-terminal">
<path d="M448 228h0"></path>
<path d="M516 228h0"></path>
<rect x="448" y="217" width="68" height="22"></rect>
<a xlink:href="reuse_source.svg"><text x="482" y="232">Source</text>
</a>
</g>
</g>
<path d="M692 228a10 10 0 0 0 10 -10v-178"></path>
<path d="M310 40v208a10 10 0 0 0 10 10"></path>
<g>
<path d="M320 258h0"></path>
<path d="M524 258h168"></path>
<g class="terminal">
<path d="M320 258h0"></path>
<path d="M436 258h0"></path>
<rect x="320" y="247" width="116" height="22" rx="10" ry="10"></rect>
<text x="378" y="262">"LINE-COUNT"</text>
</g>
<path d="M436 258h10"></path>
<path d="M446 258h10"></path>
<g class="non-terminal">
<path d="M456 258h0"></path>
<path d="M524 258h0"></path>
<rect x="456" y="247" width="68" height="22"></rect>
<a xlink:href="reuse_source.svg"><text x="490" y="262">Source</text>
</a>
</g>
</g>
<path d="M692 258a10 10 0 0 0 10 -10v-208"></path>
<path d="M310 40v238a10 10 0 0 0 10 10"></path>
<g>
<path d="M320 288h0"></path>
<path d="M588 288h104"></path>
<g class="terminal">
<path d="M320 288h0"></path>
<path d="M500 288h0"></path>
<rect x="320" y="277" width="180" height="22" rx="10" ry="10"></rect>
<text x="410" y="292">"ARCHIVE PARAMETERS"</text>
</g>
<path d="M500 288h10"></path>
<path d="M510 288h10"></path>
<g class="non-terminal">
<path d="M520 288h0"></path>
<path d="M588 288h0"></path>
<rect x="520" y="277" width="68" height="22"></rect>
<a xlink:href="reuse_source.svg"><text x="554" y="292">Source</text>
</a>
</g>
</g>
<path d="M692 288a10 10 0 0 0 10 -10v-238"></path>
<path d="M310 40v268a10 10 0 0 0 10 10"></path>
<g>
<path d="M320 318h0"></path>
<path d="M476 318h216"></path>
<g class="terminal">
<path d="M320 318h0"></path>
<path d="M388 318h0"></path>
<rect x="320" y="307" width="68" height="22" rx="10" ry="10"></rect>
<text x="354" y="322">"USER"</text>
</g>
<path d="M388 318h10"></path>
<path d="M398 318h10"></path>
<g class="non-terminal">
<path d="M408 318h0"></path>
<path d="M476 318h0"></path>
<rect x="408" y="307" width="68" height="22"></rect>
<a xlink:href="reuse_source.svg"><text x="442" y="322">Source</text>
</a>
</g>
</g>
<path d="M692 318a10 10 0 0 0 10 -10v-268"></path>
<path d="M310 40v298a10 10 0 0 0 10 10"></path>
<g class="terminal">
<path d="M320 348h0"></path>
<path d="M452 348h240"></path>
<rect x="320" y="337" width="132" height="22" rx="10" ry="10"></rect>
<text x="386" y="352">"TO SAP-SPOOL"</text>
</g>
<path d="M692 348a10 10 0 0 0 10 -10v-298"></path>
<path d="M310 40v328a10 10 0 0 0 10 10"></path>
<g class="terminal">
<path d="M320 378h0"></path>
<path d="M516 378h176"></path>
<rect x="320" y="367" width="196" height="22" rx="10" ry="10"></rect>
<text x="418" y="382">"WITHOUT SPOOL DYNPRO"</text>
</g>
<path d="M692 378a10 10 0 0 0 10 -10v-328"></path>
<path d="M310 40v358a10 10 0 0 0 10 10"></path>
<g class="terminal">
<path d="M320 408h0"></path>
<path d="M516 408h176"></path>
<rect x="320" y="397" width="196" height="22" rx="10" ry="10"></rect>
<text x="418" y="412">"VIA SELECTION-SCREEN"</text>
</g>
<path d="M692 408a10 10 0 0 0 10 -10v-358"></path>
<path d="M310 40v388a10 10 0 0 0 10 10"></path>
<g class="terminal">
<path d="M320 438h0"></path>
<path d="M548 438h144"></path>
<rect x="320" y="427" width="228" height="22" rx="10" ry="10"></rect>
<text x="434" y="442">"EXPORTING LIST TO MEMORY"</text>
</g>
<path d="M692 438a10 10 0 0 0 10 -10v-388"></path>
<path d="M310 40v418a10 10 0 0 0 10 10"></path>
<g class="terminal">
<path d="M320 468h0"></path>
<path d="M436 468h256"></path>
<rect x="320" y="457" width="116" height="22" rx="10" ry="10"></rect>
<text x="378" y="472">"AND RETURN"</text>
</g>
<path d="M692 468a10 10 0 0 0 10 -10v-418"></path>
<path d="M310 40v448a10 10 0 0 0 10 10"></path>
<g>
<path d="M320 498h0"></path>
<path d="M692 498h0"></path>
<g class="terminal">
<path d="M320 498h0"></path>
<path d="M412 498h0"></path>
<rect x="320" y="487" width="92" height="22" rx="10" ry="10"></rect>
<text x="366" y="502">"VIA JOB"</text>
</g>
<path d="M412 498h10"></path>
<path d="M422 498h10"></path>
<g class="non-terminal">
<path d="M432 498h0"></path>
<path d="M500 498h0"></path>
<rect x="432" y="487" width="68" height="22"></rect>
<a xlink:href="reuse_source.svg"><text x="466" y="502">Source</text>
</a>
</g>
<path d="M500 498h10"></path>
<path d="M510 498h10"></path>
<g class="terminal">
<path d="M520 498h0"></path>
<path d="M604 498h0"></path>
<rect x="520" y="487" width="84" height="22" rx="10" ry="10"></rect>
<text x="562" y="502">"NUMBER"</text>
</g>
<path d="M604 498h10"></path>
<path d="M614 498h10"></path>
<g class="non-terminal">
<path d="M624 498h0"></path>
<path d="M692 498h0"></path>
<rect x="624" y="487" width="68" height="22"></rect>
<a xlink:href="reuse_source.svg"><text x="658" y="502">Source</text>
</a>
</g>
</g>
<path d="M692 498a10 10 0 0 0 10 -10v-448"></path>
<g class="diagram-text">
<title>take one or more branches, once each, in any order</title>
<path d="M 310 30 h -26 a 4 4 0 0 0 -4 4 v 12 a 4 4 0 0 0 4 4 h 26 z" class="diagram-text"></path>
<text x="295" y="44" class="diagram-text">1+</text>
<path d="M 702 30 h 16 a 4 4 0 0 1 4 4 v 12 a 4 4 0 0 1 -4 4 h -16 z" class="diagram-text"></path>
<path d="M 709 38 a 4 4 0 1 0 6 -1 m 2.75 -1 h -4 v 4 m 0 -3 h 2" style="stroke-width: 1.75"></path>
</g>
</g>
<path d="M722 40h20"></path>
</g>
</g>
<path d="M742 40h10"></path>
<path d="M 752 40 h 20 m -10 -10 v 20 m 10 -20 v 20"></path>
</g>
</svg>
