<svg xmlns="http://www.w3.org/2000/svg" xmlns:xlink="http://www.w3.org/1999/xlink" class="railroad-diagram" width="1136" height="110" viewBox="0 0 1136 110">
<defs>
<style type="text/css"><![CDATA[
path {
stroke-width: 3;
stroke: black;
fill: rgba(0,0,0,0);
}
text {
font: bold 14px monospace;
text-anchor: middle;
}
text.diagram-text {
font-size: 12px;
}
a {
fill: blue;
}
text.diagram-arrow {
font-size: 16px;
}
text.label {
text-anchor: start;
}
text.comment {
font: italic 12px monospace;
}
rect {
stroke-width: 3;
stroke: black;
fill: #BCBCBC;
}
path.diagram-text {
stroke-width: 3;
stroke: black;
fill: #BCBCBC;
cursor: help;
}
]]></style>
</defs>
<g transform="translate(.5 .5)">
<path d="M 20 30 v 20 m 10 -20 v 20 m -10 -10 h 20.5"></path>
<path d="M40 40h10"></path>
<g>
<path d="M50 40h0"></path>
<path d="M1086 40h0"></path>
<g class="terminal">
<path d="M50 40h0"></path>
<path d="M134 40h0"></path>
<rect x="50" y="29" width="84" height="22" rx="10" ry="10"></rect>
<text x="92" y="44">"SUBMIT"</text>
</g>
<path d="M134 40h10"></path>
<g>
<path d="M144 40h0"></path>
<path d="M420 40h0"></path>
<path d="M144 40h20"></path>
<g class="non-terminal">
<path d="M164 40h84"></path>
<path d="M316 40h84"></path>
<rect x="248" y="29" width="68" height="22"></rect>
<a xlink:href="reuse_source.svg"><text x="282" y="44">source</text>
</a>
</g>
<path d="M400 40h20"></path>
<path d="M144 40a10 10 0 0 1 10 10v10a10 10 0 0 0 10 10"></path>
<g>
<path d="M164 70h0"></path>
<path d="M400 70h0"></path>
<g class="terminal">
<path d="M164 70h0"></path>
<path d="M208 70h0"></path>
<rect x="164" y="59" width="44" height="22" rx="10" ry="10"></rect>
<text x="186" y="74">"("</text>
</g>
<path d="M208 70h10"></path>
<path d="M218 70h10"></path>
<g class="non-terminal">
<path d="M228 70h0"></path>
<path d="M336 70h0"></path>
<rect x="228" y="59" width="108" height="22"></rect>
<a xlink:href="reuse_field_chain.svg"><text x="282" y="74">field&#95;chain</text>
</a>
</g>
<path d="M336 70h10"></path>
<path d="M346 70h10"></path>
<g class="terminal">
<path d="M356 70h0"></path>
<path d="M400 70h0"></path>
<rect x="356" y="59" width="44" height="22" rx="10" ry="10"></rect>
<text x="378" y="74">")"</text>
</g>
</g>
<path d="M400 70a10 10 0 0 0 10 -10v-10a10 10 0 0 1 10 -10"></path>
</g>
<g>
<path d="M420 40h0"></path>
<path d="M656 40h0"></path>
<path d="M420 40a10 10 0 0 0 10 -10v0a10 10 0 0 1 10 -10"></path>
<g>
<path d="M440 20h196"></path>
</g>
<path d="M636 20a10 10 0 0 1 10 10v0a10 10 0 0 0 10 10"></path>
<path d="M420 40h20"></path>
<g class="terminal">
<path d="M440 40h0"></path>
<path d="M636 40h0"></path>
<rect x="440" y="29" width="196" height="22" rx="10" ry="10"></rect>
<text x="538" y="44">"VIA SELECTION-SCREEN"</text>
</g>
<path d="M636 40h20"></path>
</g>
<g>
<path d="M656 40h0"></path>
<path d="M1086 40h0"></path>
<path d="M656 40a10 10 0 0 0 10 -10v0a10 10 0 0 1 10 -10"></path>
<g>
<path d="M676 20h390"></path>
</g>
<path d="M1066 20a10 10 0 0 1 10 10v0a10 10 0 0 0 10 10"></path>
<path d="M656 40h20"></path>
<g>
<path d="M676 40h0"></path>
<path d="M1066 40h0"></path>
<path d="M706 40h10"></path>
<g>
<path d="M716 40h0"></path>
<path d="M1036 40h0"></path>
<path d="M716 40h10"></path>
<g>
<path d="M726 40h0"></path>
<path d="M1026 40h0"></path>
<g class="terminal">
<path d="M726 40h0"></path>
<path d="M794 40h0"></path>
<rect x="726" y="29" width="68" height="22" rx="10" ry="10"></rect>
<text x="760" y="44">"WITH"</text>
</g>
<path d="M794 40h10"></path>
<path d="M804 40h10"></path>
<g class="non-terminal">
<path d="M814 40h0"></path>
<path d="M874 40h0"></path>
<rect x="814" y="29" width="60" height="22"></rect>
<a xlink:href="reuse_field.svg"><text x="844" y="44">field</text>
</a>
</g>
<path d="M874 40h10"></path>
<path d="M884 40h10"></path>
<g class="terminal">
<path d="M894 40h0"></path>
<path d="M938 40h0"></path>
<rect x="894" y="29" width="44" height="22" rx="10" ry="10"></rect>
<text x="916" y="44">"="</text>
</g>
<path d="M938 40h10"></path>
<path d="M948 40h10"></path>
<g class="non-terminal">
<path d="M958 40h0"></path>
<path d="M1026 40h0"></path>
<rect x="958" y="29" width="68" height="22"></rect>
<a xlink:href="reuse_source.svg"><text x="992" y="44">source</text>
</a>
</g>
</g>
<path d="M1026 40h10"></path>
<path d="M726 40a10 10 0 0 0 -10 10v0a10 10 0 0 0 10 10"></path>
<g>
<path d="M726 60h300"></path>
</g>
<path d="M1026 60a10 10 0 0 0 10 -10v0a10 10 0 0 0 -10 -10"></path>
</g>
<path d="M1036 40h10"></path>
<path d="M706 40v29a10 10 0 0 0 10 10"></path>
<g class="terminal">
<path d="M716 79h102"></path>
<path d="M934 79h102"></path>
<rect x="818" y="68" width="116" height="22" rx="10" ry="10"></rect>
<text x="876" y="83">"AND RETURN"</text>
</g>
<path d="M1036 79a10 10 0 0 0 10 -10v-29"></path>
<g class="diagram-text">
<title>take one or more branches, once each, in any order</title>
<path d="M 706 30 h -26 a 4 4 0 0 0 -4 4 v 12 a 4 4 0 0 0 4 4 h 26 z" class="diagram-text"></path>
<text x="691" y="44" class="diagram-text">1+</text>
<path d="M 1046 30 h 16 a 4 4 0 0 1 4 4 v 12 a 4 4 0 0 1 -4 4 h -16 z" class="diagram-text"></path>
<path d="M 1053 38 a 4 4 0 1 0 6 -1 m 2.75 -1 h -4 v 4 m 0 -3 h 2" style="stroke-width: 1.75"></path>
</g>
</g>
<path d="M1066 40h20"></path>
</g>
</g>
<path d="M1086 40h10"></path>
<path d="M 1096 40 h 20 m -10 -10 v 20 m 10 -20 v 20"></path>
</g>
</svg>
