<svg xmlns="http://www.w3.org/2000/svg" xmlns:xlink="http://www.w3.org/1999/xlink" class="railroad-diagram" width="1028" height="169" viewBox="0 0 1028 169">
<defs>
<style type="text/css"><![CDATA[
path {
stroke-width: 3;
stroke: black;
fill: rgba(0,0,0,0);
}
text {
font: bold 14px monospace;
text-anchor: middle;
}
text.diagram-text {
font-size: 12px;
}
a {
fill: blue;
}
text.diagram-arrow {
font-size: 16px;
}
text.label {
text-anchor: start;
}
text.comment {
font: italic 12px monospace;
}
rect {
stroke-width: 3;
stroke: black;
fill: #BCBCBC;
}
path.diagram-text {
stroke-width: 3;
stroke: black;
fill: #BCBCBC;
cursor: help;
}
]]></style>
</defs>
<g transform="translate(.5 .5)">
<path d="M 20 30 v 20 m 10 -20 v 20 m -10 -10 h 20.5"></path>
<path d="M40 40h10"></path>
<g>
<path d="M50 40h0"></path>
<path d="M978 40h0"></path>
<g class="terminal">
<path d="M50 40h0"></path>
<path d="M134 40h0"></path>
<rect x="50" y="29" width="84" height="22" rx="10" ry="10"></rect>
<text x="92" y="44">"SUBMIT"</text>
</g>
<path d="M134 40h10"></path>
<g>
<path d="M144 40h0"></path>
<path d="M260 40h0"></path>
<path d="M144 40h20"></path>
<g class="non-terminal">
<path d="M164 40h0"></path>
<path d="M232 40h8"></path>
<rect x="164" y="29" width="68" height="22"></rect>
<a xlink:href="reuse_source.svg"><text x="198" y="44">Source</text>
</a>
</g>
<path d="M240 40h20"></path>
<path d="M144 40a10 10 0 0 1 10 10v10a10 10 0 0 0 10 10"></path>
<g class="non-terminal">
<path d="M164 70h0"></path>
<path d="M240 70h0"></path>
<rect x="164" y="59" width="76" height="22"></rect>
<a xlink:href="reuse_dynamic.svg"><text x="202" y="74">Dynamic</text>
</a>
</g>
<path d="M240 70a10 10 0 0 0 10 -10v-10a10 10 0 0 1 10 -10"></path>
</g>
<g>
<path d="M260 40h0"></path>
<path d="M496 40h0"></path>
<path d="M260 40a10 10 0 0 0 10 -10v0a10 10 0 0 1 10 -10"></path>
<g>
<path d="M280 20h196"></path>
</g>
<path d="M476 20a10 10 0 0 1 10 10v0a10 10 0 0 0 10 10"></path>
<path d="M260 40h20"></path>
<g class="terminal">
<path d="M280 40h0"></path>
<path d="M476 40h0"></path>
<rect x="280" y="29" width="196" height="22" rx="10" ry="10"></rect>
<text x="378" y="44">"VIA SELECTION-SCREEN"</text>
</g>
<path d="M476 40h20"></path>
</g>
<g>
<path d="M496 40h0"></path>
<path d="M978 40h0"></path>
<path d="M496 40a10 10 0 0 0 10 -10v0a10 10 0 0 1 10 -10"></path>
<g>
<path d="M516 20h442"></path>
</g>
<path d="M958 20a10 10 0 0 1 10 10v0a10 10 0 0 0 10 10"></path>
<path d="M496 40h20"></path>
<g>
<path d="M516 40h0"></path>
<path d="M958 40h0"></path>
<path d="M546 40h10"></path>
<g>
<path d="M556 40h0"></path>
<path d="M904 40h24"></path>
<path d="M556 40h10"></path>
<g>
<path d="M566 40h0"></path>
<path d="M894 40h0"></path>
<g class="terminal">
<path d="M566 40h0"></path>
<path d="M634 40h0"></path>
<rect x="566" y="29" width="68" height="22" rx="10" ry="10"></rect>
<text x="600" y="44">"WITH"</text>
</g>
<path d="M634 40h10"></path>
<path d="M644 40h10"></path>
<g class="non-terminal">
<path d="M654 40h0"></path>
<path d="M714 40h0"></path>
<rect x="654" y="29" width="60" height="22"></rect>
<a xlink:href="reuse_field.svg"><text x="684" y="44">Field</text>
</a>
</g>
<path d="M714 40h10"></path>
<g>
<path d="M724 40h0"></path>
<path d="M816 40h0"></path>
<path d="M724 40h20"></path>
<g class="terminal">
<path d="M744 40h0"></path>
<path d="M788 40h8"></path>
<rect x="744" y="29" width="44" height="22" rx="10" ry="10"></rect>
<text x="766" y="44">"="</text>
</g>
<path d="M796 40h20"></path>
<path d="M724 40a10 10 0 0 1 10 10v10a10 10 0 0 0 10 10"></path>
<g class="terminal">
<path d="M744 70h0"></path>
<path d="M796 70h0"></path>
<rect x="744" y="59" width="52" height="22" rx="10" ry="10"></rect>
<text x="770" y="74">"EQ"</text>
</g>
<path d="M796 70a10 10 0 0 0 10 -10v-10a10 10 0 0 1 10 -10"></path>
</g>
<path d="M816 40h10"></path>
<g class="non-terminal">
<path d="M826 40h0"></path>
<path d="M894 40h0"></path>
<rect x="826" y="29" width="68" height="22"></rect>
<a xlink:href="reuse_source.svg"><text x="860" y="44">Source</text>
</a>
</g>
</g>
<path d="M894 40h10"></path>
<path d="M566 40a10 10 0 0 0 -10 10v29a10 10 0 0 0 10 10"></path>
<g>
<path d="M566 89h328"></path>
</g>
<path d="M894 89a10 10 0 0 0 10 -10v-29a10 10 0 0 0 -10 -10"></path>
</g>
<path d="M928 40h10"></path>
<path d="M546 40v58a10 10 0 0 0 10 10"></path>
<g class="terminal">
<path d="M556 108h0"></path>
<path d="M672 108h256"></path>
<rect x="556" y="97" width="116" height="22" rx="10" ry="10"></rect>
<text x="614" y="112">"AND RETURN"</text>
</g>
<path d="M928 108a10 10 0 0 0 10 -10v-58"></path>
<path d="M546 40v88a10 10 0 0 0 10 10"></path>
<g>
<path d="M556 138h0"></path>
<path d="M928 138h0"></path>
<g class="terminal">
<path d="M556 138h0"></path>
<path d="M648 138h0"></path>
<rect x="556" y="127" width="92" height="22" rx="10" ry="10"></rect>
<text x="602" y="142">"VIA JOB"</text>
</g>
<path d="M648 138h10"></path>
<path d="M658 138h10"></path>
<g class="non-terminal">
<path d="M668 138h0"></path>
<path d="M736 138h0"></path>
<rect x="668" y="127" width="68" height="22"></rect>
<a xlink:href="reuse_source.svg"><text x="702" y="142">Source</text>
</a>
</g>
<path d="M736 138h10"></path>
<path d="M746 138h10"></path>
<g class="terminal">
<path d="M756 138h0"></path>
<path d="M840 138h0"></path>
<rect x="756" y="127" width="84" height="22" rx="10" ry="10"></rect>
<text x="798" y="142">"NUMBER"</text>
</g>
<path d="M840 138h10"></path>
<path d="M850 138h10"></path>
<g class="non-terminal">
<path d="M860 138h0"></path>
<path d="M928 138h0"></path>
<rect x="860" y="127" width="68" height="22"></rect>
<a xlink:href="reuse_source.svg"><text x="894" y="142">Source</text>
</a>
</g>
</g>
<path d="M928 138a10 10 0 0 0 10 -10v-88"></path>
<g class="diagram-text">
<title>take one or more branches, once each, in any order</title>
<path d="M 546 30 h -26 a 4 4 0 0 0 -4 4 v 12 a 4 4 0 0 0 4 4 h 26 z" class="diagram-text"></path>
<text x="531" y="44" class="diagram-text">1+</text>
<path d="M 938 30 h 16 a 4 4 0 0 1 4 4 v 12 a 4 4 0 0 1 -4 4 h -16 z" class="diagram-text"></path>
<path d="M 945 38 a 4 4 0 1 0 6 -1 m 2.75 -1 h -4 v 4 m 0 -3 h 2" style="stroke-width: 1.75"></path>
</g>
</g>
<path d="M958 40h20"></path>
</g>
</g>
<path d="M978 40h10"></path>
<path d="M 988 40 h 20 m -10 -10 v 20 m 10 -20 v 20"></path>
</g>
</svg>
