<svg xmlns="http://www.w3.org/2000/svg" xmlns:xlink="http://www.w3.org/1999/xlink" class="railroad-diagram" width="974" height="537" viewBox="0 0 974 537">
<defs>
<style type="text/css"><![CDATA[
path {
stroke-width: 3;
stroke: black;
fill: rgba(0,0,0,0);
}
text {
font: bold 14px monospace;
text-anchor: middle;
}
text.diagram-text {
font-size: 12px;
}
a {
fill: blue;
}
text.diagram-arrow {
font-size: 16px;
}
text.label {
text-anchor: start;
}
text.comment {
font: italic 12px monospace;
}
rect {
stroke-width: 3;
stroke: black;
fill: #BCBCBC;
}
path.diagram-text {
stroke-width: 3;
stroke: black;
fill: #BCBCBC;
cursor: help;
}
]]></style>
</defs>
<g transform="translate(.5 .5)">
<path d="M 20 38 v 20 m 10 -20 v 20 m -10 -10 h 20.5"></path>
<path d="M40 48h10"></path>
<g>
<path d="M50 48h0"></path>
<path d="M924 48h0"></path>
<g class="terminal">
<path d="M50 48h0"></path>
<path d="M134 48h0"></path>
<rect x="50" y="37" width="84" height="22" rx="10" ry="10"></rect>
<text x="92" y="52">"SUBMIT"</text>
</g>
<path d="M134 48h10"></path>
<g>
<path d="M144 48h0"></path>
<path d="M260 48h0"></path>
<path d="M144 48h20"></path>
<g class="non-terminal">
<path d="M164 48h0"></path>
<path d="M232 48h8"></path>
<rect x="164" y="37" width="68" height="22"></rect>
<a xlink:href="reuse_source.svg"><text x="198" y="52">Source</text>
</a>
</g>
<path d="M240 48h20"></path>
<path d="M144 48a10 10 0 0 1 10 10v10a10 10 0 0 0 10 10"></path>
<g class="non-terminal">
<path d="M164 78h0"></path>
<path d="M240 78h0"></path>
<rect x="164" y="67" width="76" height="22"></rect>
<a xlink:href="reuse_dynamic.svg"><text x="202" y="82">Dynamic</text>
</a>
</g>
<path d="M240 78a10 10 0 0 0 10 -10v-10a10 10 0 0 1 10 -10"></path>
</g>
<g>
<path d="M260 48h0"></path>
<path d="M924 48h0"></path>
<path d="M260 48a10 10 0 0 0 10 -10v-8a10 10 0 0 1 10 -10"></path>
<g>
<path d="M280 20h624"></path>
</g>
<path d="M904 20a10 10 0 0 1 10 10v8a10 10 0 0 0 10 10"></path>
<path d="M260 48h20"></path>
<g>
<path d="M280 48h0"></path>
<path d="M904 48h0"></path>
<path d="M310 48h10"></path>
<g>
<path d="M320 48h0"></path>
<path d="M874 48h0"></path>
<path d="M320 48h10"></path>
<g>
<path d="M330 48h0"></path>
<path d="M864 48h0"></path>
<g class="terminal">
<path d="M330 48h0"></path>
<path d="M398 48h0"></path>
<rect x="330" y="37" width="68" height="22" rx="10" ry="10"></rect>
<text x="364" y="52">"WITH"</text>
</g>
<path d="M398 48h10"></path>
<path d="M408 48h10"></path>
<g class="non-terminal">
<path d="M418 48h0"></path>
<path d="M478 48h0"></path>
<rect x="418" y="37" width="60" height="22"></rect>
<a xlink:href="reuse_field.svg"><text x="448" y="52">Field</text>
</a>
</g>
<path d="M478 48h10"></path>
<g>
<path d="M488 48h0"></path>
<path d="M580 48h0"></path>
<path d="M488 48h20"></path>
<g class="terminal">
<path d="M508 48h0"></path>
<path d="M552 48h8"></path>
<rect x="508" y="37" width="44" height="22" rx="10" ry="10"></rect>
<text x="530" y="52">"="</text>
</g>
<path d="M560 48h20"></path>
<path d="M488 48a10 10 0 0 1 10 10v10a10 10 0 0 0 10 10"></path>
<g class="terminal">
<path d="M508 78h0"></path>
<path d="M560 78h0"></path>
<rect x="508" y="67" width="52" height="22" rx="10" ry="10"></rect>
<text x="534" y="82">"EQ"</text>
</g>
<path d="M560 78a10 10 0 0 0 10 -10v-10a10 10 0 0 1 10 -10"></path>
<path d="M488 48a10 10 0 0 1 10 10v40a10 10 0 0 0 10 10"></path>
<g class="terminal">
<path d="M508 108h0"></path>
<path d="M560 108h0"></path>
<rect x="508" y="97" width="52" height="22" rx="10" ry="10"></rect>
<text x="534" y="112">"IN"</text>
</g>
<path d="M560 108a10 10 0 0 0 10 -10v-40a10 10 0 0 1 10 -10"></path>
<path d="M488 48a10 10 0 0 1 10 10v70a10 10 0 0 0 10 10"></path>
<g class="terminal">
<path d="M508 138h0"></path>
<path d="M560 138h0"></path>
<rect x="508" y="127" width="52" height="22" rx="10" ry="10"></rect>
<text x="534" y="142">"NE"</text>
</g>
<path d="M560 138a10 10 0 0 0 10 -10v-70a10 10 0 0 1 10 -10"></path>
</g>
<path d="M580 48h10"></path>
<g class="non-terminal">
<path d="M590 48h0"></path>
<path d="M658 48h0"></path>
<rect x="590" y="37" width="68" height="22"></rect>
<a xlink:href="reuse_source.svg"><text x="624" y="52">Source</text>
</a>
</g>
<path d="M658 48h10"></path>
<g>
<path d="M668 48h0"></path>
<path d="M864 48h0"></path>
<path d="M668 48a10 10 0 0 0 10 -10v0a10 10 0 0 1 10 -10"></path>
<g>
<path d="M688 28h156"></path>
</g>
<path d="M844 28a10 10 0 0 1 10 10v0a10 10 0 0 0 10 10"></path>
<path d="M668 48h20"></path>
<g>
<path d="M688 48h0"></path>
<path d="M844 48h0"></path>
<g class="terminal">
<path d="M688 48h0"></path>
<path d="M756 48h0"></path>
<rect x="688" y="37" width="68" height="22" rx="10" ry="10"></rect>
<text x="722" y="52">"SIGN"</text>
</g>
<path d="M756 48h10"></path>
<path d="M766 48h10"></path>
<g class="non-terminal">
<path d="M776 48h0"></path>
<path d="M844 48h0"></path>
<rect x="776" y="37" width="68" height="22"></rect>
<a xlink:href="reuse_source.svg"><text x="810" y="52">Source</text>
</a>
</g>
</g>
<path d="M844 48h20"></path>
</g>
</g>
<path d="M864 48h10"></path>
<path d="M330 48a10 10 0 0 0 -10 10v89a10 10 0 0 0 10 10"></path>
<g>
<path d="M330 157h534"></path>
</g>
<path d="M864 157a10 10 0 0 0 10 -10v-89a10 10 0 0 0 -10 -10"></path>
</g>
<path d="M874 48h10"></path>
<path d="M310 48v118a10 10 0 0 0 10 10"></path>
<g>
<path d="M320 176h0"></path>
<path d="M604 176h270"></path>
<g class="terminal">
<path d="M320 176h0"></path>
<path d="M516 176h0"></path>
<rect x="320" y="165" width="196" height="22" rx="10" ry="10"></rect>
<text x="418" y="180">"WITH SELECTION-TABLE"</text>
</g>
<path d="M516 176h10"></path>
<path d="M526 176h10"></path>
<g class="non-terminal">
<path d="M536 176h0"></path>
<path d="M604 176h0"></path>
<rect x="536" y="165" width="68" height="22"></rect>
<a xlink:href="reuse_source.svg"><text x="570" y="180">Source</text>
</a>
</g>
</g>
<path d="M874 176a10 10 0 0 0 10 -10v-118"></path>
<path d="M310 48v148a10 10 0 0 0 10 10"></path>
<g>
<path d="M320 206h0"></path>
<path d="M572 206h302"></path>
<g class="terminal">
<path d="M320 206h0"></path>
<path d="M484 206h0"></path>
<rect x="320" y="195" width="164" height="22" rx="10" ry="10"></rect>
<text x="402" y="210">"SPOOL PARAMETERS"</text>
</g>
<path d="M484 206h10"></path>
<path d="M494 206h10"></path>
<g class="non-terminal">
<path d="M504 206h0"></path>
<path d="M572 206h0"></path>
<rect x="504" y="195" width="68" height="22"></rect>
<a xlink:href="reuse_source.svg"><text x="538" y="210">Source</text>
</a>
</g>
</g>
<path d="M874 206a10 10 0 0 0 10 -10v-148"></path>
<path d="M310 48v178a10 10 0 0 0 10 10"></path>
<g>
<path d="M320 236h0"></path>
<path d="M516 236h358"></path>
<g class="terminal">
<path d="M320 236h0"></path>
<path d="M428 236h0"></path>
<rect x="320" y="225" width="108" height="22" rx="10" ry="10"></rect>
<text x="374" y="240">"LINE-SIZE"</text>
</g>
<path d="M428 236h10"></path>
<path d="M438 236h10"></path>
<g class="non-terminal">
<path d="M448 236h0"></path>
<path d="M516 236h0"></path>
<rect x="448" y="225" width="68" height="22"></rect>
<a xlink:href="reuse_source.svg"><text x="482" y="240">Source</text>
</a>
</g>
</g>
<path d="M874 236a10 10 0 0 0 10 -10v-178"></path>
<path d="M310 48v208a10 10 0 0 0 10 10"></path>
<g>
<path d="M320 266h0"></path>
<path d="M524 266h350"></path>
<g class="terminal">
<path d="M320 266h0"></path>
<path d="M436 266h0"></path>
<rect x="320" y="255" width="116" height="22" rx="10" ry="10"></rect>
<text x="378" y="270">"LINE-COUNT"</text>
</g>
<path d="M436 266h10"></path>
<path d="M446 266h10"></path>
<g class="non-terminal">
<path d="M456 266h0"></path>
<path d="M524 266h0"></path>
<rect x="456" y="255" width="68" height="22"></rect>
<a xlink:href="reuse_source.svg"><text x="490" y="270">Source</text>
</a>
</g>
</g>
<path d="M874 266a10 10 0 0 0 10 -10v-208"></path>
<path d="M310 48v238a10 10 0 0 0 10 10"></path>
<g>
<path d="M320 296h0"></path>
<path d="M588 296h286"></path>
<g class="terminal">
<path d="M320 296h0"></path>
<path d="M500 296h0"></path>
<rect x="320" y="285" width="180" height="22" rx="10" ry="10"></rect>
<text x="410" y="300">"ARCHIVE PARAMETERS"</text>
</g>
<path d="M500 296h10"></path>
<path d="M510 296h10"></path>
<g class="non-terminal">
<path d="M520 296h0"></path>
<path d="M588 296h0"></path>
<rect x="520" y="285" width="68" height="22"></rect>
<a xlink:href="reuse_source.svg"><text x="554" y="300">Source</text>
</a>
</g>
</g>
<path d="M874 296a10 10 0 0 0 10 -10v-238"></path>
<path d="M310 48v268a10 10 0 0 0 10 10"></path>
<g>
<path d="M320 326h0"></path>
<path d="M476 326h398"></path>
<g class="terminal">
<path d="M320 326h0"></path>
<path d="M388 326h0"></path>
<rect x="320" y="315" width="68" height="22" rx="10" ry="10"></rect>
<text x="354" y="330">"USER"</text>
</g>
<path d="M388 326h10"></path>
<path d="M398 326h10"></path>
<g class="non-terminal">
<path d="M408 326h0"></path>
<path d="M476 326h0"></path>
<rect x="408" y="315" width="68" height="22"></rect>
<a xlink:href="reuse_source.svg"><text x="442" y="330">Source</text>
</a>
</g>
</g>
<path d="M874 326a10 10 0 0 0 10 -10v-268"></path>
<path d="M310 48v298a10 10 0 0 0 10 10"></path>
<g class="terminal">
<path d="M320 356h0"></path>
<path d="M452 356h422"></path>
<rect x="320" y="345" width="132" height="22" rx="10" ry="10"></rect>
<text x="386" y="360">"TO SAP-SPOOL"</text>
</g>
<path d="M874 356a10 10 0 0 0 10 -10v-298"></path>
<path d="M310 48v328a10 10 0 0 0 10 10"></path>
<g class="terminal">
<path d="M320 386h0"></path>
<path d="M516 386h358"></path>
<rect x="320" y="375" width="196" height="22" rx="10" ry="10"></rect>
<text x="418" y="390">"WITHOUT SPOOL DYNPRO"</text>
</g>
<path d="M874 386a10 10 0 0 0 10 -10v-328"></path>
<path d="M310 48v358a10 10 0 0 0 10 10"></path>
<g class="terminal">
<path d="M320 416h0"></path>
<path d="M516 416h358"></path>
<rect x="320" y="405" width="196" height="22" rx="10" ry="10"></rect>
<text x="418" y="420">"VIA SELECTION-SCREEN"</text>
</g>
<path d="M874 416a10 10 0 0 0 10 -10v-358"></path>
<path d="M310 48v388a10 10 0 0 0 10 10"></path>
<g class="terminal">
<path d="M320 446h0"></path>
<path d="M548 446h326"></path>
<rect x="320" y="435" width="228" height="22" rx="10" ry="10"></rect>
<text x="434" y="450">"EXPORTING LIST TO MEMORY"</text>
</g>
<path d="M874 446a10 10 0 0 0 10 -10v-388"></path>
<path d="M310 48v418a10 10 0 0 0 10 10"></path>
<g class="terminal">
<path d="M320 476h0"></path>
<path d="M436 476h438"></path>
<rect x="320" y="465" width="116" height="22" rx="10" ry="10"></rect>
<text x="378" y="480">"AND RETURN"</text>
</g>
<path d="M874 476a10 10 0 0 0 10 -10v-418"></path>
<path d="M310 48v448a10 10 0 0 0 10 10"></path>
<g>
<path d="M320 506h0"></path>
<path d="M692 506h182"></path>
<g class="terminal">
<path d="M320 506h0"></path>
<path d="M412 506h0"></path>
<rect x="320" y="495" width="92" height="22" rx="10" ry="10"></rect>
<text x="366" y="510">"VIA JOB"</text>
</g>
<path d="M412 506h10"></path>
<path d="M422 506h10"></path>
<g class="non-terminal">
<path d="M432 506h0"></path>
<path d="M500 506h0"></path>
<rect x="432" y="495" width="68" height="22"></rect>
<a xlink:href="reuse_source.svg"><text x="466" y="510">Source</text>
</a>
</g>
<path d="M500 506h10"></path>
<path d="M510 506h10"></path>
<g class="terminal">
<path d="M520 506h0"></path>
<path d="M604 506h0"></path>
<rect x="520" y="495" width="84" height="22" rx="10" ry="10"></rect>
<text x="562" y="510">"NUMBER"</text>
</g>
<path d="M604 506h10"></path>
<path d="M614 506h10"></path>
<g class="non-terminal">
<path d="M624 506h0"></path>
<path d="M692 506h0"></path>
<rect x="624" y="495" width="68" height="22"></rect>
<a xlink:href="reuse_source.svg"><text x="658" y="510">Source</text>
</a>
</g>
</g>
<path d="M874 506a10 10 0 0 0 10 -10v-448"></path>
<g class="diagram-text">
<title>take one or more branches, once each, in any order</title>
<path d="M 310 38 h -26 a 4 4 0 0 0 -4 4 v 12 a 4 4 0 0 0 4 4 h 26 z" class="diagram-text"></path>
<text x="295" y="52" class="diagram-text">1+</text>
<path d="M 884 38 h 16 a 4 4 0 0 1 4 4 v 12 a 4 4 0 0 1 -4 4 h -16 z" class="diagram-text"></path>
<path d="M 891 46 a 4 4 0 1 0 6 -1 m 2.75 -1 h -4 v 4 m 0 -3 h 2" style="stroke-width: 1.75"></path>
</g>
</g>
<path d="M904 48h20"></path>
</g>
</g>
<path d="M924 48h10"></path>
<path d="M 934 48 h 20 m -10 -10 v 20 m 10 -20 v 20"></path>
</g>
</svg>
