<svg xmlns="http://www.w3.org/2000/svg" xmlns:xlink="http://www.w3.org/1999/xlink" class="railroad-diagram" width="990" height="657" viewBox="0 0 990 657">
<defs>
<style type="text/css"><![CDATA[
path {
stroke-width: 3;
stroke: black;
fill: rgba(0,0,0,0);
}
text {
font: bold 14px monospace;
text-anchor: middle;
}
text.diagram-text {
font-size: 12px;
}
a {
fill: blue;
}
text.diagram-arrow {
font-size: 16px;
}
text.label {
text-anchor: start;
}
text.comment {
font: italic 12px monospace;
}
rect {
stroke-width: 3;
stroke: black;
fill: #BCBCBC;
}
path.diagram-text {
stroke-width: 3;
stroke: black;
fill: #BCBCBC;
cursor: help;
}
]]></style>
</defs>
<g transform="translate(.5 .5)">
<path d="M 20 38 v 20 m 10 -20 v 20 m -10 -10 h 20.5"></path>
<path d="M40 48h10"></path>
<g>
<path d="M50 48h0"></path>
<path d="M940 48h0"></path>
<g class="terminal">
<path d="M50 48h0"></path>
<path d="M134 48h0"></path>
<rect x="50" y="37" width="84" height="22" rx="10" ry="10"></rect>
<text x="92" y="52">"SUBMIT"</text>
</g>
<path d="M134 48h10"></path>
<g>
<path d="M144 48h0"></path>
<path d="M260 48h0"></path>
<path d="M144 48h20"></path>
<g class="non-terminal">
<path d="M164 48h0"></path>
<path d="M232 48h8"></path>
<rect x="164" y="37" width="68" height="22"></rect>
<a xlink:href="reuse_source.svg"><text x="198" y="52">Source</text>
</a>
</g>
<path d="M240 48h20"></path>
<path d="M144 48a10 10 0 0 1 10 10v10a10 10 0 0 0 10 10"></path>
<g class="non-terminal">
<path d="M164 78h0"></path>
<path d="M240 78h0"></path>
<rect x="164" y="67" width="76" height="22"></rect>
<a xlink:href="reuse_dynamic.svg"><text x="202" y="82">Dynamic</text>
</a>
</g>
<path d="M240 78a10 10 0 0 0 10 -10v-10a10 10 0 0 1 10 -10"></path>
</g>
<g>
<path d="M260 48h0"></path>
<path d="M940 48h0"></path>
<path d="M260 48a10 10 0 0 0 10 -10v-8a10 10 0 0 1 10 -10"></path>
<g>
<path d="M280 20h640"></path>
</g>
<path d="M920 20a10 10 0 0 1 10 10v8a10 10 0 0 0 10 10"></path>
<path d="M260 48h20"></path>
<g>
<path d="M280 48h0"></path>
<path d="M920 48h0"></path>
<path d="M310 48h10"></path>
<g>
<path d="M320 48h0"></path>
<path d="M890 48h0"></path>
<path d="M320 48h10"></path>
<g>
<path d="M330 48h0"></path>
<path d="M880 48h0"></path>
<g class="terminal">
<path d="M330 48h0"></path>
<path d="M398 48h0"></path>
<rect x="330" y="37" width="68" height="22" rx="10" ry="10"></rect>
<text x="364" y="52">"WITH"</text>
</g>
<path d="M398 48h10"></path>
<path d="M408 48h10"></path>
<g class="non-terminal">
<path d="M418 48h0"></path>
<path d="M478 48h0"></path>
<rect x="418" y="37" width="60" height="22"></rect>
<a xlink:href="reuse_field.svg"><text x="448" y="52">Field</text>
</a>
</g>
<path d="M478 48h10"></path>
<g>
<path d="M488 48h0"></path>
<path d="M596 48h0"></path>
<path d="M488 48h20"></path>
<g class="terminal">
<path d="M508 48h0"></path>
<path d="M552 48h24"></path>
<rect x="508" y="37" width="44" height="22" rx="10" ry="10"></rect>
<text x="530" y="52">"="</text>
</g>
<path d="M576 48h20"></path>
<path d="M488 48a10 10 0 0 1 10 10v10a10 10 0 0 0 10 10"></path>
<g class="terminal">
<path d="M508 78h0"></path>
<path d="M560 78h16"></path>
<rect x="508" y="67" width="52" height="22" rx="10" ry="10"></rect>
<text x="534" y="82">"EQ"</text>
</g>
<path d="M576 78a10 10 0 0 0 10 -10v-10a10 10 0 0 1 10 -10"></path>
<path d="M488 48a10 10 0 0 1 10 10v40a10 10 0 0 0 10 10"></path>
<g class="terminal">
<path d="M508 108h0"></path>
<path d="M560 108h16"></path>
<rect x="508" y="97" width="52" height="22" rx="10" ry="10"></rect>
<text x="534" y="112">"IN"</text>
</g>
<path d="M576 108a10 10 0 0 0 10 -10v-40a10 10 0 0 1 10 -10"></path>
<path d="M488 48a10 10 0 0 1 10 10v70a10 10 0 0 0 10 10"></path>
<g class="terminal">
<path d="M508 138h0"></path>
<path d="M560 138h16"></path>
<rect x="508" y="127" width="52" height="22" rx="10" ry="10"></rect>
<text x="534" y="142">"NE"</text>
</g>
<path d="M576 138a10 10 0 0 0 10 -10v-70a10 10 0 0 1 10 -10"></path>
<path d="M488 48a10 10 0 0 1 10 10v100a10 10 0 0 0 10 10"></path>
<g class="terminal">
<path d="M508 168h0"></path>
<path d="M576 168h0"></path>
<rect x="508" y="157" width="68" height="22" rx="10" ry="10"></rect>
<text x="542" y="172">"INCL"</text>
</g>
<path d="M576 168a10 10 0 0 0 10 -10v-100a10 10 0 0 1 10 -10"></path>
</g>
<path d="M596 48h10"></path>
<g class="non-terminal">
<path d="M606 48h0"></path>
<path d="M674 48h0"></path>
<rect x="606" y="37" width="68" height="22"></rect>
<a xlink:href="reuse_source.svg"><text x="640" y="52">Source</text>
</a>
</g>
<path d="M674 48h10"></path>
<g>
<path d="M684 48h0"></path>
<path d="M880 48h0"></path>
<path d="M684 48a10 10 0 0 0 10 -10v0a10 10 0 0 1 10 -10"></path>
<g>
<path d="M704 28h156"></path>
</g>
<path d="M860 28a10 10 0 0 1 10 10v0a10 10 0 0 0 10 10"></path>
<path d="M684 48h20"></path>
<g>
<path d="M704 48h0"></path>
<path d="M860 48h0"></path>
<g class="terminal">
<path d="M704 48h0"></path>
<path d="M772 48h0"></path>
<rect x="704" y="37" width="68" height="22" rx="10" ry="10"></rect>
<text x="738" y="52">"SIGN"</text>
</g>
<path d="M772 48h10"></path>
<path d="M782 48h10"></path>
<g class="non-terminal">
<path d="M792 48h0"></path>
<path d="M860 48h0"></path>
<rect x="792" y="37" width="68" height="22"></rect>
<a xlink:href="reuse_source.svg"><text x="826" y="52">Source</text>
</a>
</g>
</g>
<path d="M860 48h20"></path>
</g>
</g>
<path d="M880 48h10"></path>
<path d="M330 48a10 10 0 0 0 -10 10v119a10 10 0 0 0 10 10"></path>
<g>
<path d="M330 187h550"></path>
</g>
<path d="M880 187a10 10 0 0 0 10 -10v-119a10 10 0 0 0 -10 -10"></path>
</g>
<path d="M890 48h10"></path>
<path d="M310 48v148a10 10 0 0 0 10 10"></path>
<g>
<path d="M320 206h0"></path>
<path d="M604 206h286"></path>
<g class="terminal">
<path d="M320 206h0"></path>
<path d="M516 206h0"></path>
<rect x="320" y="195" width="196" height="22" rx="10" ry="10"></rect>
<text x="418" y="210">"WITH SELECTION-TABLE"</text>
</g>
<path d="M516 206h10"></path>
<path d="M526 206h10"></path>
<g class="non-terminal">
<path d="M536 206h0"></path>
<path d="M604 206h0"></path>
<rect x="536" y="195" width="68" height="22"></rect>
<a xlink:href="reuse_source.svg"><text x="570" y="210">Source</text>
</a>
</g>
</g>
<path d="M890 206a10 10 0 0 0 10 -10v-148"></path>
<path d="M310 48v178a10 10 0 0 0 10 10"></path>
<g>
<path d="M320 236h0"></path>
<path d="M572 236h318"></path>
<g class="terminal">
<path d="M320 236h0"></path>
<path d="M484 236h0"></path>
<rect x="320" y="225" width="164" height="22" rx="10" ry="10"></rect>
<text x="402" y="240">"SPOOL PARAMETERS"</text>
</g>
<path d="M484 236h10"></path>
<path d="M494 236h10"></path>
<g class="non-terminal">
<path d="M504 236h0"></path>
<path d="M572 236h0"></path>
<rect x="504" y="225" width="68" height="22"></rect>
<a xlink:href="reuse_source.svg"><text x="538" y="240">Source</text>
</a>
</g>
</g>
<path d="M890 236a10 10 0 0 0 10 -10v-178"></path>
<path d="M310 48v208a10 10 0 0 0 10 10"></path>
<g>
<path d="M320 266h0"></path>
<path d="M516 266h374"></path>
<g class="terminal">
<path d="M320 266h0"></path>
<path d="M428 266h0"></path>
<rect x="320" y="255" width="108" height="22" rx="10" ry="10"></rect>
<text x="374" y="270">"LINE-SIZE"</text>
</g>
<path d="M428 266h10"></path>
<path d="M438 266h10"></path>
<g class="non-terminal">
<path d="M448 266h0"></path>
<path d="M516 266h0"></path>
<rect x="448" y="255" width="68" height="22"></rect>
<a xlink:href="reuse_source.svg"><text x="482" y="270">Source</text>
</a>
</g>
</g>
<path d="M890 266a10 10 0 0 0 10 -10v-208"></path>
<path d="M310 48v238a10 10 0 0 0 10 10"></path>
<g>
<path d="M320 296h0"></path>
<path d="M524 296h366"></path>
<g class="terminal">
<path d="M320 296h0"></path>
<path d="M436 296h0"></path>
<rect x="320" y="285" width="116" height="22" rx="10" ry="10"></rect>
<text x="378" y="300">"LINE-COUNT"</text>
</g>
<path d="M436 296h10"></path>
<path d="M446 296h10"></path>
<g class="non-terminal">
<path d="M456 296h0"></path>
<path d="M524 296h0"></path>
<rect x="456" y="285" width="68" height="22"></rect>
<a xlink:href="reuse_source.svg"><text x="490" y="300">Source</text>
</a>
</g>
</g>
<path d="M890 296a10 10 0 0 0 10 -10v-238"></path>
<path d="M310 48v268a10 10 0 0 0 10 10"></path>
<g>
<path d="M320 326h0"></path>
<path d="M588 326h302"></path>
<g class="terminal">
<path d="M320 326h0"></path>
<path d="M500 326h0"></path>
<rect x="320" y="315" width="180" height="22" rx="10" ry="10"></rect>
<text x="410" y="330">"ARCHIVE PARAMETERS"</text>
</g>
<path d="M500 326h10"></path>
<path d="M510 326h10"></path>
<g class="non-terminal">
<path d="M520 326h0"></path>
<path d="M588 326h0"></path>
<rect x="520" y="315" width="68" height="22"></rect>
<a xlink:href="reuse_source.svg"><text x="554" y="330">Source</text>
</a>
</g>
</g>
<path d="M890 326a10 10 0 0 0 10 -10v-268"></path>
<path d="M310 48v298a10 10 0 0 0 10 10"></path>
<g>
<path d="M320 356h0"></path>
<path d="M476 356h414"></path>
<g class="terminal">
<path d="M320 356h0"></path>
<path d="M388 356h0"></path>
<rect x="320" y="345" width="68" height="22" rx="10" ry="10"></rect>
<text x="354" y="360">"USER"</text>
</g>
<path d="M388 356h10"></path>
<path d="M398 356h10"></path>
<g class="non-terminal">
<path d="M408 356h0"></path>
<path d="M476 356h0"></path>
<rect x="408" y="345" width="68" height="22"></rect>
<a xlink:href="reuse_source.svg"><text x="442" y="360">Source</text>
</a>
</g>
</g>
<path d="M890 356a10 10 0 0 0 10 -10v-298"></path>
<path d="M310 48v328a10 10 0 0 0 10 10"></path>
<g>
<path d="M320 386h0"></path>
<path d="M596 386h294"></path>
<g class="terminal">
<path d="M320 386h0"></path>
<path d="M508 386h0"></path>
<rect x="320" y="375" width="188" height="22" rx="10" ry="10"></rect>
<text x="414" y="390">"USING SELECTION-SET"</text>
</g>
<path d="M508 386h10"></path>
<path d="M518 386h10"></path>
<g class="non-terminal">
<path d="M528 386h0"></path>
<path d="M596 386h0"></path>
<rect x="528" y="375" width="68" height="22"></rect>
<a xlink:href="reuse_source.svg"><text x="562" y="390">Source</text>
</a>
</g>
</g>
<path d="M890 386a10 10 0 0 0 10 -10v-328"></path>
<path d="M310 48v358a10 10 0 0 0 10 10"></path>
<g>
<path d="M320 416h0"></path>
<path d="M692 416h198"></path>
<g class="terminal">
<path d="M320 416h0"></path>
<path d="M604 416h0"></path>
<rect x="320" y="405" width="284" height="22" rx="10" ry="10"></rect>
<text x="462" y="420">"USING SELECTION-SETS OF PROGRAM"</text>
</g>
<path d="M604 416h10"></path>
<path d="M614 416h10"></path>
<g class="non-terminal">
<path d="M624 416h0"></path>
<path d="M692 416h0"></path>
<rect x="624" y="405" width="68" height="22"></rect>
<a xlink:href="reuse_source.svg"><text x="658" y="420">Source</text>
</a>
</g>
</g>
<path d="M890 416a10 10 0 0 0 10 -10v-358"></path>
<path d="M310 48v388a10 10 0 0 0 10 10"></path>
<g>
<path d="M320 446h0"></path>
<path d="M604 446h286"></path>
<g class="terminal">
<path d="M320 446h0"></path>
<path d="M516 446h0"></path>
<rect x="320" y="435" width="196" height="22" rx="10" ry="10"></rect>
<text x="418" y="450">"WITH FREE SELECTIONS"</text>
</g>
<path d="M516 446h10"></path>
<path d="M526 446h10"></path>
<g class="non-terminal">
<path d="M536 446h0"></path>
<path d="M604 446h0"></path>
<rect x="536" y="435" width="68" height="22"></rect>
<a xlink:href="reuse_source.svg"><text x="570" y="450">Source</text>
</a>
</g>
</g>
<path d="M890 446a10 10 0 0 0 10 -10v-388"></path>
<path d="M310 48v418a10 10 0 0 0 10 10"></path>
<g class="terminal">
<path d="M320 476h0"></path>
<path d="M452 476h438"></path>
<rect x="320" y="465" width="132" height="22" rx="10" ry="10"></rect>
<text x="386" y="480">"TO SAP-SPOOL"</text>
</g>
<path d="M890 476a10 10 0 0 0 10 -10v-418"></path>
<path d="M310 48v448a10 10 0 0 0 10 10"></path>
<g class="terminal">
<path d="M320 506h0"></path>
<path d="M516 506h374"></path>
<rect x="320" y="495" width="196" height="22" rx="10" ry="10"></rect>
<text x="418" y="510">"WITHOUT SPOOL DYNPRO"</text>
</g>
<path d="M890 506a10 10 0 0 0 10 -10v-448"></path>
<path d="M310 48v478a10 10 0 0 0 10 10"></path>
<g class="terminal">
<path d="M320 536h0"></path>
<path d="M516 536h374"></path>
<rect x="320" y="525" width="196" height="22" rx="10" ry="10"></rect>
<text x="418" y="540">"VIA SELECTION-SCREEN"</text>
</g>
<path d="M890 536a10 10 0 0 0 10 -10v-478"></path>
<path d="M310 48v508a10 10 0 0 0 10 10"></path>
<g class="terminal">
<path d="M320 566h0"></path>
<path d="M548 566h342"></path>
<rect x="320" y="555" width="228" height="22" rx="10" ry="10"></rect>
<text x="434" y="570">"EXPORTING LIST TO MEMORY"</text>
</g>
<path d="M890 566a10 10 0 0 0 10 -10v-508"></path>
<path d="M310 48v538a10 10 0 0 0 10 10"></path>
<g class="terminal">
<path d="M320 596h0"></path>
<path d="M436 596h454"></path>
<rect x="320" y="585" width="116" height="22" rx="10" ry="10"></rect>
<text x="378" y="600">"AND RETURN"</text>
</g>
<path d="M890 596a10 10 0 0 0 10 -10v-538"></path>
<path d="M310 48v568a10 10 0 0 0 10 10"></path>
<g>
<path d="M320 626h0"></path>
<path d="M692 626h198"></path>
<g class="terminal">
<path d="M320 626h0"></path>
<path d="M412 626h0"></path>
<rect x="320" y="615" width="92" height="22" rx="10" ry="10"></rect>
<text x="366" y="630">"VIA JOB"</text>
</g>
<path d="M412 626h10"></path>
<path d="M422 626h10"></path>
<g class="non-terminal">
<path d="M432 626h0"></path>
<path d="M500 626h0"></path>
<rect x="432" y="615" width="68" height="22"></rect>
<a xlink:href="reuse_source.svg"><text x="466" y="630">Source</text>
</a>
</g>
<path d="M500 626h10"></path>
<path d="M510 626h10"></path>
<g class="terminal">
<path d="M520 626h0"></path>
<path d="M604 626h0"></path>
<rect x="520" y="615" width="84" height="22" rx="10" ry="10"></rect>
<text x="562" y="630">"NUMBER"</text>
</g>
<path d="M604 626h10"></path>
<path d="M614 626h10"></path>
<g class="non-terminal">
<path d="M624 626h0"></path>
<path d="M692 626h0"></path>
<rect x="624" y="615" width="68" height="22"></rect>
<a xlink:href="reuse_source.svg"><text x="658" y="630">Source</text>
</a>
</g>
</g>
<path d="M890 626a10 10 0 0 0 10 -10v-568"></path>
<g class="diagram-text">
<title>take one or more branches, once each, in any order</title>
<path d="M 310 38 h -26 a 4 4 0 0 0 -4 4 v 12 a 4 4 0 0 0 4 4 h 26 z" class="diagram-text"></path>
<text x="295" y="52" class="diagram-text">1+</text>
<path d="M 900 38 h 16 a 4 4 0 0 1 4 4 v 12 a 4 4 0 0 1 -4 4 h -16 z" class="diagram-text"></path>
<path d="M 907 46 a 4 4 0 1 0 6 -1 m 2.75 -1 h -4 v 4 m 0 -3 h 2" style="stroke-width: 1.75"></path>
</g>
</g>
<path d="M920 48h20"></path>
</g>
</g>
<path d="M940 48h10"></path>
<path d="M 950 48 h 20 m -10 -10 v 20 m 10 -20 v 20"></path>
</g>
</svg>
