<?xml version="1.0" encoding="UTF-8" standalone="no"?>
<!DOCTYPE svg PUBLIC "-//W3C//DTD SVG 1.1//EN"
 "http://www.w3.org/Graphics/SVG/1.1/DTD/svg11.dtd">
<!-- Generated by graphviz version 2.38.0 (20140413.2041)
 -->
<!-- Title: subtract Pages: 1 -->
<svg width="147pt" height="404pt"
 viewBox="0.00 0.00 146.69 404.00" xmlns="http://www.w3.org/2000/svg" xmlns:xlink="http://www.w3.org/1999/xlink">
<g id="graph0" class="graph" transform="scale(1 1) rotate(0) translate(4 400)">
<title>subtract</title>
<polygon fill="white" stroke="none" points="-4,4 -4,-400 142.69,-400 142.69,4 -4,4"/>
<!-- start -->
<g id="node1" class="node"><title>start</title>
<polygon fill="none" stroke="black" points="96.3451,-396 42.3451,-396 42.3451,-360 96.3451,-360 96.3451,-396"/>
<text text-anchor="middle" x="69.3451" y="-373.8" font-family="Times,serif" font-size="14.00">Start</text>
</g>
<!-- node519 -->
<g id="node6" class="node"><title>node519</title>
<ellipse fill="none" stroke="black" cx="69.3451" cy="-306" rx="69.1906" ry="18"/>
<text text-anchor="middle" x="69.3451" y="-301.8" font-family="Times,serif" font-size="14.00">&quot;SUBTRACT&quot;</text>
</g>
<!-- start&#45;&gt;node519 -->
<g id="edge5" class="edge"><title>start&#45;&gt;node519</title>
<path fill="none" stroke="black" d="M69.3451,-359.697C69.3451,-351.983 69.3451,-342.712 69.3451,-334.112"/>
<polygon fill="black" stroke="black" points="72.8452,-334.104 69.3451,-324.104 65.8452,-334.104 72.8452,-334.104"/>
</g>
<!-- end -->
<g id="node2" class="node"><title>end</title>
<polygon fill="none" stroke="black" points="96.3451,-36 42.3451,-36 42.3451,-0 96.3451,-0 96.3451,-36"/>
<text text-anchor="middle" x="69.3451" y="-13.8" font-family="Times,serif" font-size="14.00">End</text>
</g>
<!-- node516 -->
<g id="node3" class="node"><title>node516</title>
<g id="a_node3"><a xlink:href="reuse_target.svg" xlink:title="&lt;u&gt;target&lt;/u&gt;">
<ellipse fill="none" stroke="black" cx="69.3451" cy="-90" rx="33.0411" ry="18"/>
<text text-anchor="start" x="53.4096" y="-86.8" font-family="Times,serif" text-decoration="underline" font-size="14.00" fill="blue">target</text>
</a>
</g>
</g>
<!-- node516&#45;&gt;end -->
<g id="edge1" class="edge"><title>node516&#45;&gt;end</title>
<path fill="none" stroke="black" d="M69.3451,-71.6966C69.3451,-63.9827 69.3451,-54.7125 69.3451,-46.1124"/>
<polygon fill="black" stroke="black" points="72.8452,-46.1043 69.3451,-36.1043 65.8452,-46.1044 72.8452,-46.1043"/>
</g>
<!-- node517 -->
<g id="node4" class="node"><title>node517</title>
<ellipse fill="none" stroke="black" cx="69.3451" cy="-162" rx="46.0582" ry="18"/>
<text text-anchor="middle" x="69.3451" y="-157.8" font-family="Times,serif" font-size="14.00">&quot;FROM&quot;</text>
</g>
<!-- node517&#45;&gt;node516 -->
<g id="edge2" class="edge"><title>node517&#45;&gt;node516</title>
<path fill="none" stroke="black" d="M69.3451,-143.697C69.3451,-135.983 69.3451,-126.712 69.3451,-118.112"/>
<polygon fill="black" stroke="black" points="72.8452,-118.104 69.3451,-108.104 65.8452,-118.104 72.8452,-118.104"/>
</g>
<!-- node518 -->
<g id="node5" class="node"><title>node518</title>
<g id="a_node5"><a xlink:href="reuse_source.svg" xlink:title="&lt;u&gt;source&lt;/u&gt;">
<ellipse fill="none" stroke="black" cx="69.3451" cy="-234" rx="36.4761" ry="18"/>
<text text-anchor="start" x="51.0779" y="-230.8" font-family="Times,serif" text-decoration="underline" font-size="14.00" fill="blue">source</text>
</a>
</g>
</g>
<!-- node518&#45;&gt;node517 -->
<g id="edge3" class="edge"><title>node518&#45;&gt;node517</title>
<path fill="none" stroke="black" d="M69.3451,-215.697C69.3451,-207.983 69.3451,-198.712 69.3451,-190.112"/>
<polygon fill="black" stroke="black" points="72.8452,-190.104 69.3451,-180.104 65.8452,-190.104 72.8452,-190.104"/>
</g>
<!-- node519&#45;&gt;node518 -->
<g id="edge4" class="edge"><title>node519&#45;&gt;node518</title>
<path fill="none" stroke="black" d="M69.3451,-287.697C69.3451,-279.983 69.3451,-270.712 69.3451,-262.112"/>
<polygon fill="black" stroke="black" points="72.8452,-262.104 69.3451,-252.104 65.8452,-262.104 72.8452,-262.104"/>
</g>
</g>
</svg>
