<svg xmlns="http://www.w3.org/2000/svg" xmlns:xlink="http://www.w3.org/1999/xlink" class="railroad-diagram" width="652" height="71" viewBox="0 0 652 71">
<defs>
<style type="text/css"><![CDATA[
path {
stroke-width: 3;
stroke: black;
fill: rgba(0,0,0,0);
}
text {
font: bold 14px monospace;
text-anchor: middle;
}
text.diagram-text {
font-size: 12px;
}
a {
fill: blue;
}
text.diagram-arrow {
font-size: 16px;
}
text.label {
text-anchor: start;
}
text.comment {
font: italic 12px monospace;
}
rect {
stroke-width: 3;
stroke: black;
fill: #BCBCBC;
}
path.diagram-text {
stroke-width: 3;
stroke: black;
fill: #BCBCBC;
cursor: help;
}
]]></style>
</defs>
<g transform="translate(.5 .5)">
<path d="M 20 21 v 20 m 10 -20 v 20 m -10 -10 h 20.5"></path>
<path d="M40 31h10"></path>
<g>
<path d="M50 31h0"></path>
<path d="M602 31h0"></path>
<g class="terminal">
<path d="M50 31h0"></path>
<path d="M134 31h0"></path>
<rect x="50" y="20" width="84" height="22" rx="10" ry="10"></rect>
<text x="92" y="35">"SUPPLY"</text>
</g>
<path d="M134 31h10"></path>
<path d="M144 31h10"></path>
<g>
<path d="M154 31h0"></path>
<path d="M386 31h0"></path>
<path d="M154 31h10"></path>
<g>
<path d="M164 31h0"></path>
<path d="M376 31h0"></path>
<g class="non-terminal">
<path d="M164 31h0"></path>
<path d="M224 31h0"></path>
<rect x="164" y="20" width="60" height="22"></rect>
<a xlink:href="reuse_field.svg"><text x="194" y="35">Field</text>
</a>
</g>
<path d="M224 31h10"></path>
<path d="M234 31h10"></path>
<g class="terminal">
<path d="M244 31h0"></path>
<path d="M288 31h0"></path>
<rect x="244" y="20" width="44" height="22" rx="10" ry="10"></rect>
<text x="266" y="35">"="</text>
</g>
<path d="M288 31h10"></path>
<path d="M298 31h10"></path>
<g class="non-terminal">
<path d="M308 31h0"></path>
<path d="M376 31h0"></path>
<rect x="308" y="20" width="68" height="22"></rect>
<a xlink:href="reuse_source.svg"><text x="342" y="35">Source</text>
</a>
</g>
</g>
<path d="M376 31h10"></path>
<path d="M164 31a10 10 0 0 0 -10 10v0a10 10 0 0 0 10 10"></path>
<g>
<path d="M164 51h212"></path>
</g>
<path d="M376 51a10 10 0 0 0 10 -10v0a10 10 0 0 0 -10 -10"></path>
</g>
<path d="M386 31h10"></path>
<path d="M396 31h10"></path>
<g class="terminal">
<path d="M406 31h0"></path>
<path d="M522 31h0"></path>
<rect x="406" y="20" width="116" height="22" rx="10" ry="10"></rect>
<text x="464" y="35">"TO CONTEXT"</text>
</g>
<path d="M522 31h10"></path>
<path d="M532 31h10"></path>
<g class="non-terminal">
<path d="M542 31h0"></path>
<path d="M602 31h0"></path>
<rect x="542" y="20" width="60" height="22"></rect>
<a xlink:href="reuse_field.svg"><text x="572" y="35">Field</text>
</a>
</g>
</g>
<path d="M602 31h10"></path>
<path d="M 612 31 h 20 m -10 -10 v 20 m 10 -20 v 20"></path>
</g>
</svg>
