<svg xmlns="http://www.w3.org/2000/svg" xmlns:xlink="http://www.w3.org/1999/xlink" class="railroad-diagram" width="2702" height="80" viewBox="0 0 2702 80">
<defs>
<style type="text/css"><![CDATA[
path {
stroke-width: 3;
stroke: black;
fill: rgba(0,0,0,0);
}
text {
font: bold 14px monospace;
text-anchor: middle;
}
text.diagram-text {
font-size: 12px;
}
a {
fill: blue;
}
text.diagram-arrow {
font-size: 16px;
}
text.label {
text-anchor: start;
}
text.comment {
font: italic 12px monospace;
}
rect {
stroke-width: 3;
stroke: black;
fill: #BCBCBC;
}
path.diagram-text {
stroke-width: 3;
stroke: black;
fill: #BCBCBC;
cursor: help;
}
]]></style>
</defs>
<g transform="translate(.5 .5)">
<path d="M 20 30 v 20 m 10 -20 v 20 m -10 -10 h 20.5"></path>
<path d="M40 40h10"></path>
<g>
<path d="M50 40h0"></path>
<path d="M2652 40h0"></path>
<g class="terminal">
<path d="M50 40h0"></path>
<path d="M214 40h0"></path>
<rect x="50" y="29" width="164" height="22" rx="10" ry="10"></rect>
<text x="132" y="44">"SYNTAX-CHECK FOR"</text>
</g>
<path d="M214 40h10"></path>
<path d="M224 40h10"></path>
<g class="non-terminal">
<path d="M234 40h0"></path>
<path d="M302 40h0"></path>
<rect x="234" y="29" width="68" height="22"></rect>
<a xlink:href="reuse_source.svg"><text x="268" y="44">Source</text>
</a>
</g>
<path d="M302 40h10"></path>
<path d="M312 40h10"></path>
<g class="terminal">
<path d="M322 40h0"></path>
<path d="M414 40h0"></path>
<rect x="322" y="29" width="92" height="22" rx="10" ry="10"></rect>
<text x="368" y="44">"MESSAGE"</text>
</g>
<path d="M414 40h10"></path>
<path d="M424 40h10"></path>
<g class="non-terminal">
<path d="M434 40h0"></path>
<path d="M502 40h0"></path>
<rect x="434" y="29" width="68" height="22"></rect>
<a xlink:href="reuse_target.svg"><text x="468" y="44">Target</text>
</a>
</g>
<path d="M502 40h10"></path>
<path d="M512 40h10"></path>
<g class="terminal">
<path d="M522 40h0"></path>
<path d="M590 40h0"></path>
<rect x="522" y="29" width="68" height="22" rx="10" ry="10"></rect>
<text x="556" y="44">"LINE"</text>
</g>
<path d="M590 40h10"></path>
<path d="M600 40h10"></path>
<g class="non-terminal">
<path d="M610 40h0"></path>
<path d="M678 40h0"></path>
<rect x="610" y="29" width="68" height="22"></rect>
<a xlink:href="reuse_target.svg"><text x="644" y="44">Target</text>
</a>
</g>
<path d="M678 40h10"></path>
<g>
<path d="M688 40h0"></path>
<path d="M900 40h0"></path>
<path d="M688 40a10 10 0 0 0 10 -10v0a10 10 0 0 1 10 -10"></path>
<g>
<path d="M708 20h172"></path>
</g>
<path d="M880 20a10 10 0 0 1 10 10v0a10 10 0 0 0 10 10"></path>
<path d="M688 40h20"></path>
<g>
<path d="M708 40h0"></path>
<path d="M880 40h0"></path>
<g class="terminal">
<path d="M708 40h0"></path>
<path d="M792 40h0"></path>
<rect x="708" y="29" width="84" height="22" rx="10" ry="10"></rect>
<text x="750" y="44">"OFFSET"</text>
</g>
<path d="M792 40h10"></path>
<path d="M802 40h10"></path>
<g class="non-terminal">
<path d="M812 40h0"></path>
<path d="M880 40h0"></path>
<rect x="812" y="29" width="68" height="22"></rect>
<a xlink:href="reuse_target.svg"><text x="846" y="44">Target</text>
</a>
</g>
</g>
<path d="M880 40h20"></path>
</g>
<path d="M900 40h10"></path>
<g class="terminal">
<path d="M910 40h0"></path>
<path d="M978 40h0"></path>
<rect x="910" y="29" width="68" height="22" rx="10" ry="10"></rect>
<text x="944" y="44">"WORD"</text>
</g>
<path d="M978 40h10"></path>
<path d="M988 40h10"></path>
<g class="non-terminal">
<path d="M998 40h0"></path>
<path d="M1066 40h0"></path>
<rect x="998" y="29" width="68" height="22"></rect>
<a xlink:href="reuse_target.svg"><text x="1032" y="44">Target</text>
</a>
</g>
<path d="M1066 40h10"></path>
<g>
<path d="M1076 40h0"></path>
<path d="M1296 40h0"></path>
<path d="M1076 40a10 10 0 0 0 10 -10v0a10 10 0 0 1 10 -10"></path>
<g>
<path d="M1096 20h180"></path>
</g>
<path d="M1276 20a10 10 0 0 1 10 10v0a10 10 0 0 0 10 10"></path>
<path d="M1076 40h20"></path>
<g>
<path d="M1096 40h0"></path>
<path d="M1276 40h0"></path>
<g class="terminal">
<path d="M1096 40h0"></path>
<path d="M1188 40h0"></path>
<rect x="1096" y="29" width="92" height="22" rx="10" ry="10"></rect>
<text x="1142" y="44">"PROGRAM"</text>
</g>
<path d="M1188 40h10"></path>
<path d="M1198 40h10"></path>
<g class="non-terminal">
<path d="M1208 40h0"></path>
<path d="M1276 40h0"></path>
<rect x="1208" y="29" width="68" height="22"></rect>
<a xlink:href="reuse_target.svg"><text x="1242" y="44">Target</text>
</a>
</g>
</g>
<path d="M1276 40h20"></path>
</g>
<path d="M1296 40h10"></path>
<g class="terminal">
<path d="M1306 40h0"></path>
<path d="M1462 40h0"></path>
<rect x="1306" y="29" width="156" height="22" rx="10" ry="10"></rect>
<text x="1384" y="44">"DIRECTORY ENTRY"</text>
</g>
<path d="M1462 40h10"></path>
<path d="M1472 40h10"></path>
<g class="non-terminal">
<path d="M1482 40h0"></path>
<path d="M1550 40h0"></path>
<rect x="1482" y="29" width="68" height="22"></rect>
<a xlink:href="reuse_source.svg"><text x="1516" y="44">Source</text>
</a>
</g>
<path d="M1550 40h10"></path>
<g>
<path d="M1560 40h0"></path>
<path d="M1812 40h0"></path>
<path d="M1560 40a10 10 0 0 0 10 -10v0a10 10 0 0 1 10 -10"></path>
<g>
<path d="M1580 20h212"></path>
</g>
<path d="M1792 20a10 10 0 0 1 10 10v0a10 10 0 0 0 10 10"></path>
<path d="M1560 40h20"></path>
<g>
<path d="M1580 40h0"></path>
<path d="M1792 40h0"></path>
<g class="terminal">
<path d="M1580 40h0"></path>
<path d="M1704 40h0"></path>
<rect x="1580" y="29" width="124" height="22" rx="10" ry="10"></rect>
<text x="1642" y="44">"FRAME ENTRY"</text>
</g>
<path d="M1704 40h10"></path>
<path d="M1714 40h10"></path>
<g class="non-terminal">
<path d="M1724 40h0"></path>
<path d="M1792 40h0"></path>
<rect x="1724" y="29" width="68" height="22"></rect>
<a xlink:href="reuse_target.svg"><text x="1758" y="44">Target</text>
</a>
</g>
</g>
<path d="M1792 40h20"></path>
</g>
<g>
<path d="M1812 40h0"></path>
<path d="M2032 40h0"></path>
<path d="M1812 40a10 10 0 0 0 10 -10v0a10 10 0 0 1 10 -10"></path>
<g>
<path d="M1832 20h180"></path>
</g>
<path d="M2012 20a10 10 0 0 1 10 10v0a10 10 0 0 0 10 10"></path>
<path d="M1812 40h20"></path>
<g>
<path d="M1832 40h0"></path>
<path d="M2012 40h0"></path>
<g class="terminal">
<path d="M1832 40h0"></path>
<path d="M1924 40h0"></path>
<rect x="1832" y="29" width="92" height="22" rx="10" ry="10"></rect>
<text x="1878" y="44">"INCLUDE"</text>
</g>
<path d="M1924 40h10"></path>
<path d="M1934 40h10"></path>
<g class="non-terminal">
<path d="M1944 40h0"></path>
<path d="M2012 40h0"></path>
<rect x="1944" y="29" width="68" height="22"></rect>
<a xlink:href="reuse_target.svg"><text x="1978" y="44">Target</text>
</a>
</g>
</g>
<path d="M2012 40h20"></path>
</g>
<g>
<path d="M2032 40h0"></path>
<path d="M2276 40h0"></path>
<path d="M2032 40a10 10 0 0 0 10 -10v0a10 10 0 0 1 10 -10"></path>
<g>
<path d="M2052 20h204"></path>
</g>
<path d="M2256 20a10 10 0 0 1 10 10v0a10 10 0 0 0 10 10"></path>
<path d="M2032 40h20"></path>
<g>
<path d="M2052 40h0"></path>
<path d="M2256 40h0"></path>
<g class="terminal">
<path d="M2052 40h0"></path>
<path d="M2168 40h0"></path>
<rect x="2052" y="29" width="116" height="22" rx="10" ry="10"></rect>
<text x="2110" y="44">"MESSAGE-ID"</text>
</g>
<path d="M2168 40h10"></path>
<path d="M2178 40h10"></path>
<g class="non-terminal">
<path d="M2188 40h0"></path>
<path d="M2256 40h0"></path>
<rect x="2188" y="29" width="68" height="22"></rect>
<a xlink:href="reuse_target.svg"><text x="2222" y="44">Target</text>
</a>
</g>
</g>
<path d="M2256 40h20"></path>
</g>
<g>
<path d="M2276 40h0"></path>
<path d="M2652 40h0"></path>
<path d="M2276 40a10 10 0 0 0 10 -10v0a10 10 0 0 1 10 -10"></path>
<g>
<path d="M2296 20h336"></path>
</g>
<path d="M2632 20a10 10 0 0 1 10 10v0a10 10 0 0 0 10 10"></path>
<path d="M2276 40h20"></path>
<g>
<path d="M2296 40h0"></path>
<path d="M2632 40h0"></path>
<path d="M2296 40h10"></path>
<g>
<path d="M2306 40h0"></path>
<path d="M2622 40h0"></path>
<g class="terminal">
<path d="M2306 40h0"></path>
<path d="M2358 40h0"></path>
<rect x="2306" y="29" width="52" height="22" rx="10" ry="10"></rect>
<text x="2332" y="44">"ID"</text>
</g>
<path d="M2358 40h10"></path>
<path d="M2368 40h10"></path>
<g class="non-terminal">
<path d="M2378 40h0"></path>
<path d="M2438 40h0"></path>
<rect x="2378" y="29" width="60" height="22"></rect>
<a xlink:href="reuse_field.svg"><text x="2408" y="44">Field</text>
</a>
</g>
<path d="M2438 40h10"></path>
<path d="M2448 40h10"></path>
<g class="terminal">
<path d="M2458 40h0"></path>
<path d="M2534 40h0"></path>
<rect x="2458" y="29" width="76" height="22" rx="10" ry="10"></rect>
<text x="2496" y="44">"TABLE"</text>
</g>
<path d="M2534 40h10"></path>
<path d="M2544 40h10"></path>
<g class="non-terminal">
<path d="M2554 40h0"></path>
<path d="M2622 40h0"></path>
<rect x="2554" y="29" width="68" height="22"></rect>
<a xlink:href="reuse_target.svg"><text x="2588" y="44">Target</text>
</a>
</g>
</g>
<path d="M2622 40h10"></path>
<path d="M2306 40a10 10 0 0 0 -10 10v0a10 10 0 0 0 10 10"></path>
<g>
<path d="M2306 60h316"></path>
</g>
<path d="M2622 60a10 10 0 0 0 10 -10v0a10 10 0 0 0 -10 -10"></path>
</g>
<path d="M2632 40h20"></path>
</g>
</g>
<path d="M2652 40h10"></path>
<path d="M 2662 40 h 20 m -10 -10 v 20 m 10 -20 v 20"></path>
</g>
</svg>
