<svg xmlns="http://www.w3.org/2000/svg" xmlns:xlink="http://www.w3.org/1999/xlink" class="railroad-diagram" width="1768" height="410" viewBox="0 0 1768 410">
<defs>
<style type="text/css"><![CDATA[
path {
stroke-width: 3;
stroke: black;
fill: rgba(0,0,0,0);
}
text {
font: bold 14px monospace;
text-anchor: middle;
}
text.diagram-text {
font-size: 12px;
}
a {
fill: blue;
}
text.diagram-arrow {
font-size: 16px;
}
text.label {
text-anchor: start;
}
text.comment {
font: italic 12px monospace;
}
rect {
stroke-width: 3;
stroke: black;
fill: #BCBCBC;
}
path.diagram-text {
stroke-width: 3;
stroke: black;
fill: #BCBCBC;
cursor: help;
}
]]></style>
</defs>
<g transform="translate(.5 .5)">
<path d="M 20 21 v 20 m 10 -20 v 20 m -10 -10 h 20.5"></path>
<path d="M40 31h10"></path>
<g>
<path d="M50 31h0"></path>
<path d="M1718 31h0"></path>
<g class="terminal">
<path d="M50 31h0"></path>
<path d="M214 31h0"></path>
<rect x="50" y="20" width="164" height="22" rx="10" ry="10"></rect>
<text x="132" y="35">"SYNTAX-CHECK FOR"</text>
</g>
<path d="M214 31h10"></path>
<g>
<path d="M224 31h0"></path>
<path d="M1718 31h0"></path>
<path d="M224 31h20"></path>
<g>
<path d="M244 31h0"></path>
<path d="M746 31h952"></path>
<g class="non-terminal">
<path d="M244 31h0"></path>
<path d="M312 31h0"></path>
<rect x="244" y="20" width="68" height="22"></rect>
<a xlink:href="reuse_source.svg"><text x="278" y="35">Source</text>
</a>
</g>
<path d="M312 31h10"></path>
<path d="M322 31h10"></path>
<g>
<path d="M332 31h0"></path>
<path d="M746 31h0"></path>
<path d="M362 31h10"></path>
<g>
<path d="M372 31h0"></path>
<path d="M552 31h164"></path>
<g class="terminal">
<path d="M372 31h0"></path>
<path d="M464 31h0"></path>
<rect x="372" y="20" width="92" height="22" rx="10" ry="10"></rect>
<text x="418" y="35">"MESSAGE"</text>
</g>
<path d="M464 31h10"></path>
<path d="M474 31h10"></path>
<g class="non-terminal">
<path d="M484 31h0"></path>
<path d="M552 31h0"></path>
<rect x="484" y="20" width="68" height="22"></rect>
<a xlink:href="reuse_target.svg"><text x="518" y="35">Target</text>
</a>
</g>
</g>
<path d="M716 31h10"></path>
<path d="M362 31v20a10 10 0 0 0 10 10"></path>
<g>
<path d="M372 61h0"></path>
<path d="M528 61h188"></path>
<g class="terminal">
<path d="M372 61h0"></path>
<path d="M440 61h0"></path>
<rect x="372" y="50" width="68" height="22" rx="10" ry="10"></rect>
<text x="406" y="65">"LINE"</text>
</g>
<path d="M440 61h10"></path>
<path d="M450 61h10"></path>
<g class="non-terminal">
<path d="M460 61h0"></path>
<path d="M528 61h0"></path>
<rect x="460" y="50" width="68" height="22"></rect>
<a xlink:href="reuse_target.svg"><text x="494" y="65">Target</text>
</a>
</g>
</g>
<path d="M716 61a10 10 0 0 0 10 -10v-20"></path>
<path d="M362 31v50a10 10 0 0 0 10 10"></path>
<g>
<path d="M372 91h0"></path>
<path d="M528 91h188"></path>
<g class="terminal">
<path d="M372 91h0"></path>
<path d="M440 91h0"></path>
<rect x="372" y="80" width="68" height="22" rx="10" ry="10"></rect>
<text x="406" y="95">"WORD"</text>
</g>
<path d="M440 91h10"></path>
<path d="M450 91h10"></path>
<g class="non-terminal">
<path d="M460 91h0"></path>
<path d="M528 91h0"></path>
<rect x="460" y="80" width="68" height="22"></rect>
<a xlink:href="reuse_target.svg"><text x="494" y="95">Target</text>
</a>
</g>
</g>
<path d="M716 91a10 10 0 0 0 10 -10v-50"></path>
<path d="M362 31v80a10 10 0 0 0 10 10"></path>
<g>
<path d="M372 121h0"></path>
<path d="M544 121h172"></path>
<g class="terminal">
<path d="M372 121h0"></path>
<path d="M456 121h0"></path>
<rect x="372" y="110" width="84" height="22" rx="10" ry="10"></rect>
<text x="414" y="125">"OFFSET"</text>
</g>
<path d="M456 121h10"></path>
<path d="M466 121h10"></path>
<g class="non-terminal">
<path d="M476 121h0"></path>
<path d="M544 121h0"></path>
<rect x="476" y="110" width="68" height="22"></rect>
<a xlink:href="reuse_target.svg"><text x="510" y="125">Target</text>
</a>
</g>
</g>
<path d="M716 121a10 10 0 0 0 10 -10v-80"></path>
<path d="M362 31v110a10 10 0 0 0 10 10"></path>
<g>
<path d="M372 151h0"></path>
<path d="M552 151h164"></path>
<g class="terminal">
<path d="M372 151h0"></path>
<path d="M464 151h0"></path>
<rect x="372" y="140" width="92" height="22" rx="10" ry="10"></rect>
<text x="418" y="155">"PROGRAM"</text>
</g>
<path d="M464 151h10"></path>
<path d="M474 151h10"></path>
<g class="non-terminal">
<path d="M484 151h0"></path>
<path d="M552 151h0"></path>
<rect x="484" y="140" width="68" height="22"></rect>
<a xlink:href="reuse_source.svg"><text x="518" y="155">Source</text>
</a>
</g>
</g>
<path d="M716 151a10 10 0 0 0 10 -10v-110"></path>
<path d="M362 31v140a10 10 0 0 0 10 10"></path>
<g>
<path d="M372 181h0"></path>
<path d="M568 181h148"></path>
<g class="terminal">
<path d="M372 181h0"></path>
<path d="M480 181h0"></path>
<rect x="372" y="170" width="108" height="22" rx="10" ry="10"></rect>
<text x="426" y="185">"REPLACING"</text>
</g>
<path d="M480 181h10"></path>
<path d="M490 181h10"></path>
<g class="non-terminal">
<path d="M500 181h0"></path>
<path d="M568 181h0"></path>
<rect x="500" y="170" width="68" height="22"></rect>
<a xlink:href="reuse_target.svg"><text x="534" y="185">Target</text>
</a>
</g>
</g>
<path d="M716 181a10 10 0 0 0 10 -10v-140"></path>
<path d="M362 31v170a10 10 0 0 0 10 10"></path>
<g>
<path d="M372 211h0"></path>
<path d="M616 211h100"></path>
<g class="terminal">
<path d="M372 211h0"></path>
<path d="M528 211h0"></path>
<rect x="372" y="200" width="156" height="22" rx="10" ry="10"></rect>
<text x="450" y="215">"DIRECTORY ENTRY"</text>
</g>
<path d="M528 211h10"></path>
<path d="M538 211h10"></path>
<g class="non-terminal">
<path d="M548 211h0"></path>
<path d="M616 211h0"></path>
<rect x="548" y="200" width="68" height="22"></rect>
<a xlink:href="reuse_source.svg"><text x="582" y="215">Source</text>
</a>
</g>
</g>
<path d="M716 211a10 10 0 0 0 10 -10v-170"></path>
<path d="M362 31v200a10 10 0 0 0 10 10"></path>
<g>
<path d="M372 241h0"></path>
<path d="M584 241h132"></path>
<g class="terminal">
<path d="M372 241h0"></path>
<path d="M496 241h0"></path>
<rect x="372" y="230" width="124" height="22" rx="10" ry="10"></rect>
<text x="434" y="245">"FRAME ENTRY"</text>
</g>
<path d="M496 241h10"></path>
<path d="M506 241h10"></path>
<g class="non-terminal">
<path d="M516 241h0"></path>
<path d="M584 241h0"></path>
<rect x="516" y="230" width="68" height="22"></rect>
<a xlink:href="reuse_target.svg"><text x="550" y="245">Target</text>
</a>
</g>
</g>
<path d="M716 241a10 10 0 0 0 10 -10v-200"></path>
<path d="M362 31v230a10 10 0 0 0 10 10"></path>
<g>
<path d="M372 271h0"></path>
<path d="M552 271h164"></path>
<g class="terminal">
<path d="M372 271h0"></path>
<path d="M464 271h0"></path>
<rect x="372" y="260" width="92" height="22" rx="10" ry="10"></rect>
<text x="418" y="275">"INCLUDE"</text>
</g>
<path d="M464 271h10"></path>
<path d="M474 271h10"></path>
<g class="non-terminal">
<path d="M484 271h0"></path>
<path d="M552 271h0"></path>
<rect x="484" y="260" width="68" height="22"></rect>
<a xlink:href="reuse_target.svg"><text x="518" y="275">Target</text>
</a>
</g>
</g>
<path d="M716 271a10 10 0 0 0 10 -10v-230"></path>
<path d="M362 31v260a10 10 0 0 0 10 10"></path>
<g>
<path d="M372 301h0"></path>
<path d="M576 301h140"></path>
<g class="terminal">
<path d="M372 301h0"></path>
<path d="M488 301h0"></path>
<rect x="372" y="290" width="116" height="22" rx="10" ry="10"></rect>
<text x="430" y="305">"MESSAGE-ID"</text>
</g>
<path d="M488 301h10"></path>
<path d="M498 301h10"></path>
<g class="non-terminal">
<path d="M508 301h0"></path>
<path d="M576 301h0"></path>
<rect x="508" y="290" width="68" height="22"></rect>
<a xlink:href="reuse_target.svg"><text x="542" y="305">Target</text>
</a>
</g>
</g>
<path d="M716 301a10 10 0 0 0 10 -10v-260"></path>
<path d="M362 31v290a10 10 0 0 0 10 10"></path>
<g>
<path d="M372 331h0"></path>
<path d="M716 331h0"></path>
<path d="M372 331h10"></path>
<g>
<path d="M382 331h0"></path>
<path d="M706 331h0"></path>
<g class="terminal">
<path d="M382 331h0"></path>
<path d="M434 331h0"></path>
<rect x="382" y="320" width="52" height="22" rx="10" ry="10"></rect>
<text x="408" y="335">"ID"</text>
</g>
<path d="M434 331h10"></path>
<path d="M444 331h10"></path>
<g class="non-terminal">
<path d="M454 331h0"></path>
<path d="M522 331h0"></path>
<rect x="454" y="320" width="68" height="22"></rect>
<a xlink:href="reuse_source.svg"><text x="488" y="335">Source</text>
</a>
</g>
<path d="M522 331h10"></path>
<path d="M532 331h10"></path>
<g class="terminal">
<path d="M542 331h0"></path>
<path d="M618 331h0"></path>
<rect x="542" y="320" width="76" height="22" rx="10" ry="10"></rect>
<text x="580" y="335">"TABLE"</text>
</g>
<path d="M618 331h10"></path>
<path d="M628 331h10"></path>
<g class="non-terminal">
<path d="M638 331h0"></path>
<path d="M706 331h0"></path>
<rect x="638" y="320" width="68" height="22"></rect>
<a xlink:href="reuse_target.svg"><text x="672" y="335">Target</text>
</a>
</g>
</g>
<path d="M706 331h10"></path>
<path d="M382 331a10 10 0 0 0 -10 10v0a10 10 0 0 0 10 10"></path>
<g>
<path d="M382 351h324"></path>
</g>
<path d="M706 351a10 10 0 0 0 10 -10v0a10 10 0 0 0 -10 -10"></path>
</g>
<path d="M716 331a10 10 0 0 0 10 -10v-290"></path>
<g class="diagram-text">
<title>take one or more branches, once each, in any order</title>
<path d="M 362 21 h -26 a 4 4 0 0 0 -4 4 v 12 a 4 4 0 0 0 4 4 h 26 z" class="diagram-text"></path>
<text x="347" y="35" class="diagram-text">1+</text>
<path d="M 726 21 h 16 a 4 4 0 0 1 4 4 v 12 a 4 4 0 0 1 -4 4 h -16 z" class="diagram-text"></path>
<path d="M 733 29 a 4 4 0 1 0 6 -1 m 2.75 -1 h -4 v 4 m 0 -3 h 2" style="stroke-width: 1.75"></path>
</g>
</g>
</g>
<path d="M1698 31h20"></path>
<path d="M224 31a10 10 0 0 1 10 10v328a10 10 0 0 0 10 10"></path>
<g>
<path d="M244 379h0"></path>
<path d="M1698 379h0"></path>
<g class="terminal">
<path d="M244 379h0"></path>
<path d="M328 379h0"></path>
<rect x="244" y="368" width="84" height="22" rx="10" ry="10"></rect>
<text x="286" y="383">"DYNPRO"</text>
</g>
<path d="M328 379h10"></path>
<path d="M338 379h10"></path>
<g class="non-terminal">
<path d="M348 379h0"></path>
<path d="M416 379h0"></path>
<rect x="348" y="368" width="68" height="22"></rect>
<a xlink:href="reuse_source.svg"><text x="382" y="383">Source</text>
</a>
</g>
<path d="M416 379h10"></path>
<path d="M426 379h10"></path>
<g class="non-terminal">
<path d="M436 379h0"></path>
<path d="M504 379h0"></path>
<rect x="436" y="368" width="68" height="22"></rect>
<a xlink:href="reuse_source.svg"><text x="470" y="383">Source</text>
</a>
</g>
<path d="M504 379h10"></path>
<path d="M514 379h10"></path>
<g class="non-terminal">
<path d="M524 379h0"></path>
<path d="M592 379h0"></path>
<rect x="524" y="368" width="68" height="22"></rect>
<a xlink:href="reuse_source.svg"><text x="558" y="383">Source</text>
</a>
</g>
<path d="M592 379h10"></path>
<path d="M602 379h10"></path>
<g class="non-terminal">
<path d="M612 379h0"></path>
<path d="M680 379h0"></path>
<rect x="612" y="368" width="68" height="22"></rect>
<a xlink:href="reuse_source.svg"><text x="646" y="383">Source</text>
</a>
</g>
<path d="M680 379h10"></path>
<path d="M690 379h10"></path>
<g>
<path d="M700 379h0"></path>
<path d="M880 379h0"></path>
<g class="terminal">
<path d="M700 379h0"></path>
<path d="M792 379h0"></path>
<rect x="700" y="368" width="92" height="22" rx="10" ry="10"></rect>
<text x="746" y="383">"MESSAGE"</text>
</g>
<path d="M792 379h10"></path>
<path d="M802 379h10"></path>
<g class="non-terminal">
<path d="M812 379h0"></path>
<path d="M880 379h0"></path>
<rect x="812" y="368" width="68" height="22"></rect>
<a xlink:href="reuse_target.svg"><text x="846" y="383">Target</text>
</a>
</g>
</g>
<path d="M880 379h10"></path>
<path d="M890 379h10"></path>
<g>
<path d="M900 379h0"></path>
<path d="M1056 379h0"></path>
<g class="terminal">
<path d="M900 379h0"></path>
<path d="M968 379h0"></path>
<rect x="900" y="368" width="68" height="22" rx="10" ry="10"></rect>
<text x="934" y="383">"LINE"</text>
</g>
<path d="M968 379h10"></path>
<path d="M978 379h10"></path>
<g class="non-terminal">
<path d="M988 379h0"></path>
<path d="M1056 379h0"></path>
<rect x="988" y="368" width="68" height="22"></rect>
<a xlink:href="reuse_target.svg"><text x="1022" y="383">Target</text>
</a>
</g>
</g>
<path d="M1056 379h10"></path>
<path d="M1066 379h10"></path>
<g>
<path d="M1076 379h0"></path>
<path d="M1232 379h0"></path>
<g class="terminal">
<path d="M1076 379h0"></path>
<path d="M1144 379h0"></path>
<rect x="1076" y="368" width="68" height="22" rx="10" ry="10"></rect>
<text x="1110" y="383">"WORD"</text>
</g>
<path d="M1144 379h10"></path>
<path d="M1154 379h10"></path>
<g class="non-terminal">
<path d="M1164 379h0"></path>
<path d="M1232 379h0"></path>
<rect x="1164" y="368" width="68" height="22"></rect>
<a xlink:href="reuse_target.svg"><text x="1198" y="383">Target</text>
</a>
</g>
</g>
<path d="M1232 379h10"></path>
<g>
<path d="M1242 379h0"></path>
<path d="M1454 379h0"></path>
<path d="M1242 379a10 10 0 0 0 10 -10v0a10 10 0 0 1 10 -10"></path>
<g>
<path d="M1262 359h172"></path>
</g>
<path d="M1434 359a10 10 0 0 1 10 10v0a10 10 0 0 0 10 10"></path>
<path d="M1242 379h20"></path>
<g>
<path d="M1262 379h0"></path>
<path d="M1434 379h0"></path>
<g class="terminal">
<path d="M1262 379h0"></path>
<path d="M1346 379h0"></path>
<rect x="1262" y="368" width="84" height="22" rx="10" ry="10"></rect>
<text x="1304" y="383">"OFFSET"</text>
</g>
<path d="M1346 379h10"></path>
<path d="M1356 379h10"></path>
<g class="non-terminal">
<path d="M1366 379h0"></path>
<path d="M1434 379h0"></path>
<rect x="1366" y="368" width="68" height="22"></rect>
<a xlink:href="reuse_target.svg"><text x="1400" y="383">Target</text>
</a>
</g>
</g>
<path d="M1434 379h20"></path>
</g>
<g>
<path d="M1454 379h0"></path>
<path d="M1698 379h0"></path>
<path d="M1454 379a10 10 0 0 0 10 -10v0a10 10 0 0 1 10 -10"></path>
<g>
<path d="M1474 359h204"></path>
</g>
<path d="M1678 359a10 10 0 0 1 10 10v0a10 10 0 0 0 10 10"></path>
<path d="M1454 379h20"></path>
<g>
<path d="M1474 379h0"></path>
<path d="M1678 379h0"></path>
<g class="terminal">
<path d="M1474 379h0"></path>
<path d="M1590 379h0"></path>
<rect x="1474" y="368" width="116" height="22" rx="10" ry="10"></rect>
<text x="1532" y="383">"MESSAGE-ID"</text>
</g>
<path d="M1590 379h10"></path>
<path d="M1600 379h10"></path>
<g class="non-terminal">
<path d="M1610 379h0"></path>
<path d="M1678 379h0"></path>
<rect x="1610" y="368" width="68" height="22"></rect>
<a xlink:href="reuse_target.svg"><text x="1644" y="383">Target</text>
</a>
</g>
</g>
<path d="M1678 379h20"></path>
</g>
</g>
<path d="M1698 379a10 10 0 0 0 10 -10v-328a10 10 0 0 1 10 -10"></path>
</g>
</g>
<path d="M1718 31h10"></path>
<path d="M 1728 31 h 20 m -10 -10 v 20 m 10 -20 v 20"></path>
</g>
</svg>
