<svg xmlns="http://www.w3.org/2000/svg" xmlns:xlink="http://www.w3.org/1999/xlink" class="railroad-diagram" width="1168" height="62" viewBox="0 0 1168 62">
<defs>
<style type="text/css"><![CDATA[
path {
stroke-width: 3;
stroke: black;
fill: rgba(0,0,0,0);
}
text {
font: bold 14px monospace;
text-anchor: middle;
}
text.diagram-text {
font-size: 12px;
}
a {
fill: blue;
}
text.diagram-arrow {
font-size: 16px;
}
text.label {
text-anchor: start;
}
text.comment {
font: italic 12px monospace;
}
rect {
stroke-width: 3;
stroke: black;
fill: #BCBCBC;
}
path.diagram-text {
stroke-width: 3;
stroke: black;
fill: #BCBCBC;
cursor: help;
}
]]></style>
</defs>
<g transform="translate(.5 .5)">
<path d="M 20 21 v 20 m 10 -20 v 20 m -10 -10 h 20.5"></path>
<path d="M40 31h10"></path>
<g>
<path d="M50 31h0"></path>
<path d="M1118 31h0"></path>
<g class="terminal">
<path d="M50 31h0"></path>
<path d="M214 31h0"></path>
<rect x="50" y="20" width="164" height="22" rx="10" ry="10"></rect>
<text x="132" y="35">"SYNTAX-CHECK FOR"</text>
</g>
<path d="M214 31h10"></path>
<path d="M224 31h10"></path>
<g class="non-terminal">
<path d="M234 31h0"></path>
<path d="M302 31h0"></path>
<rect x="234" y="20" width="68" height="22"></rect>
<a xlink:href="reuse_Source.svg"><text x="268" y="35">Source</text>
</a>
</g>
<path d="M302 31h10"></path>
<path d="M312 31h10"></path>
<g class="terminal">
<path d="M322 31h0"></path>
<path d="M414 31h0"></path>
<rect x="322" y="20" width="92" height="22" rx="10" ry="10"></rect>
<text x="368" y="35">"MESSAGE"</text>
</g>
<path d="M414 31h10"></path>
<path d="M424 31h10"></path>
<g class="non-terminal">
<path d="M434 31h0"></path>
<path d="M502 31h0"></path>
<rect x="434" y="20" width="68" height="22"></rect>
<a xlink:href="reuse_Target.svg"><text x="468" y="35">Target</text>
</a>
</g>
<path d="M502 31h10"></path>
<path d="M512 31h10"></path>
<g class="terminal">
<path d="M522 31h0"></path>
<path d="M590 31h0"></path>
<rect x="522" y="20" width="68" height="22" rx="10" ry="10"></rect>
<text x="556" y="35">"LINE"</text>
</g>
<path d="M590 31h10"></path>
<path d="M600 31h10"></path>
<g class="non-terminal">
<path d="M610 31h0"></path>
<path d="M678 31h0"></path>
<rect x="610" y="20" width="68" height="22"></rect>
<a xlink:href="reuse_Target.svg"><text x="644" y="35">Target</text>
</a>
</g>
<path d="M678 31h10"></path>
<path d="M688 31h10"></path>
<g class="terminal">
<path d="M698 31h0"></path>
<path d="M766 31h0"></path>
<rect x="698" y="20" width="68" height="22" rx="10" ry="10"></rect>
<text x="732" y="35">"WORD"</text>
</g>
<path d="M766 31h10"></path>
<path d="M776 31h10"></path>
<g class="non-terminal">
<path d="M786 31h0"></path>
<path d="M854 31h0"></path>
<rect x="786" y="20" width="68" height="22"></rect>
<a xlink:href="reuse_Target.svg"><text x="820" y="35">Target</text>
</a>
</g>
<path d="M854 31h10"></path>
<path d="M864 31h10"></path>
<g class="terminal">
<path d="M874 31h0"></path>
<path d="M1030 31h0"></path>
<rect x="874" y="20" width="156" height="22" rx="10" ry="10"></rect>
<text x="952" y="35">"DIRECTORY ENTRY"</text>
</g>
<path d="M1030 31h10"></path>
<path d="M1040 31h10"></path>
<g class="non-terminal">
<path d="M1050 31h0"></path>
<path d="M1118 31h0"></path>
<rect x="1050" y="20" width="68" height="22"></rect>
<a xlink:href="reuse_Source.svg"><text x="1084" y="35">Source</text>
</a>
</g>
</g>
<path d="M1118 31h10"></path>
<path d="M 1128 31 h 20 m -10 -10 v 20 m 10 -20 v 20"></path>
</g>
</svg>
