<svg xmlns="http://www.w3.org/2000/svg" xmlns:xlink="http://www.w3.org/1999/xlink" class="railroad-diagram" width="2722" height="110" viewBox="0 0 2722 110">
<defs>
<style type="text/css"><![CDATA[
path {
stroke-width: 3;
stroke: black;
fill: rgba(0,0,0,0);
}
text {
font: bold 14px monospace;
text-anchor: middle;
}
text.diagram-text {
font-size: 12px;
}
a {
fill: blue;
}
text.diagram-arrow {
font-size: 16px;
}
text.label {
text-anchor: start;
}
text.comment {
font: italic 12px monospace;
}
rect {
stroke-width: 3;
stroke: black;
fill: #BCBCBC;
}
path.diagram-text {
stroke-width: 3;
stroke: black;
fill: #BCBCBC;
cursor: help;
}
]]></style>
</defs>
<g transform="translate(.5 .5)">
<path d="M 20 30 v 20 m 10 -20 v 20 m -10 -10 h 20.5"></path>
<g>
<path d="M40 40h0"></path>
<path d="M2682 40h0"></path>
<path d="M40 40h20"></path>
<g>
<path d="M60 40h0"></path>
<path d="M2662 40h0"></path>
<g class="terminal">
<path d="M60 40h0"></path>
<path d="M224 40h0"></path>
<rect x="60" y="29" width="164" height="22" rx="10" ry="10"></rect>
<text x="142" y="44">"SYNTAX-CHECK FOR"</text>
</g>
<path d="M224 40h10"></path>
<path d="M234 40h10"></path>
<g class="non-terminal">
<path d="M244 40h0"></path>
<path d="M312 40h0"></path>
<rect x="244" y="29" width="68" height="22"></rect>
<a xlink:href="reuse_source.svg"><text x="278" y="44">Source</text>
</a>
</g>
<path d="M312 40h10"></path>
<path d="M322 40h10"></path>
<g class="terminal">
<path d="M332 40h0"></path>
<path d="M424 40h0"></path>
<rect x="332" y="29" width="92" height="22" rx="10" ry="10"></rect>
<text x="378" y="44">"MESSAGE"</text>
</g>
<path d="M424 40h10"></path>
<path d="M434 40h10"></path>
<g class="non-terminal">
<path d="M444 40h0"></path>
<path d="M512 40h0"></path>
<rect x="444" y="29" width="68" height="22"></rect>
<a xlink:href="reuse_target.svg"><text x="478" y="44">Target</text>
</a>
</g>
<path d="M512 40h10"></path>
<path d="M522 40h10"></path>
<g class="terminal">
<path d="M532 40h0"></path>
<path d="M600 40h0"></path>
<rect x="532" y="29" width="68" height="22" rx="10" ry="10"></rect>
<text x="566" y="44">"LINE"</text>
</g>
<path d="M600 40h10"></path>
<path d="M610 40h10"></path>
<g class="non-terminal">
<path d="M620 40h0"></path>
<path d="M688 40h0"></path>
<rect x="620" y="29" width="68" height="22"></rect>
<a xlink:href="reuse_target.svg"><text x="654" y="44">Target</text>
</a>
</g>
<path d="M688 40h10"></path>
<g>
<path d="M698 40h0"></path>
<path d="M910 40h0"></path>
<path d="M698 40a10 10 0 0 0 10 -10v0a10 10 0 0 1 10 -10"></path>
<g>
<path d="M718 20h172"></path>
</g>
<path d="M890 20a10 10 0 0 1 10 10v0a10 10 0 0 0 10 10"></path>
<path d="M698 40h20"></path>
<g>
<path d="M718 40h0"></path>
<path d="M890 40h0"></path>
<g class="terminal">
<path d="M718 40h0"></path>
<path d="M802 40h0"></path>
<rect x="718" y="29" width="84" height="22" rx="10" ry="10"></rect>
<text x="760" y="44">"OFFSET"</text>
</g>
<path d="M802 40h10"></path>
<path d="M812 40h10"></path>
<g class="non-terminal">
<path d="M822 40h0"></path>
<path d="M890 40h0"></path>
<rect x="822" y="29" width="68" height="22"></rect>
<a xlink:href="reuse_target.svg"><text x="856" y="44">Target</text>
</a>
</g>
</g>
<path d="M890 40h20"></path>
</g>
<path d="M910 40h10"></path>
<g class="terminal">
<path d="M920 40h0"></path>
<path d="M988 40h0"></path>
<rect x="920" y="29" width="68" height="22" rx="10" ry="10"></rect>
<text x="954" y="44">"WORD"</text>
</g>
<path d="M988 40h10"></path>
<path d="M998 40h10"></path>
<g class="non-terminal">
<path d="M1008 40h0"></path>
<path d="M1076 40h0"></path>
<rect x="1008" y="29" width="68" height="22"></rect>
<a xlink:href="reuse_target.svg"><text x="1042" y="44">Target</text>
</a>
</g>
<path d="M1076 40h10"></path>
<g>
<path d="M1086 40h0"></path>
<path d="M1306 40h0"></path>
<path d="M1086 40a10 10 0 0 0 10 -10v0a10 10 0 0 1 10 -10"></path>
<g>
<path d="M1106 20h180"></path>
</g>
<path d="M1286 20a10 10 0 0 1 10 10v0a10 10 0 0 0 10 10"></path>
<path d="M1086 40h20"></path>
<g>
<path d="M1106 40h0"></path>
<path d="M1286 40h0"></path>
<g class="terminal">
<path d="M1106 40h0"></path>
<path d="M1198 40h0"></path>
<rect x="1106" y="29" width="92" height="22" rx="10" ry="10"></rect>
<text x="1152" y="44">"PROGRAM"</text>
</g>
<path d="M1198 40h10"></path>
<path d="M1208 40h10"></path>
<g class="non-terminal">
<path d="M1218 40h0"></path>
<path d="M1286 40h0"></path>
<rect x="1218" y="29" width="68" height="22"></rect>
<a xlink:href="reuse_target.svg"><text x="1252" y="44">Target</text>
</a>
</g>
</g>
<path d="M1286 40h20"></path>
</g>
<path d="M1306 40h10"></path>
<g class="terminal">
<path d="M1316 40h0"></path>
<path d="M1472 40h0"></path>
<rect x="1316" y="29" width="156" height="22" rx="10" ry="10"></rect>
<text x="1394" y="44">"DIRECTORY ENTRY"</text>
</g>
<path d="M1472 40h10"></path>
<path d="M1482 40h10"></path>
<g class="non-terminal">
<path d="M1492 40h0"></path>
<path d="M1560 40h0"></path>
<rect x="1492" y="29" width="68" height="22"></rect>
<a xlink:href="reuse_source.svg"><text x="1526" y="44">Source</text>
</a>
</g>
<path d="M1560 40h10"></path>
<g>
<path d="M1570 40h0"></path>
<path d="M1822 40h0"></path>
<path d="M1570 40a10 10 0 0 0 10 -10v0a10 10 0 0 1 10 -10"></path>
<g>
<path d="M1590 20h212"></path>
</g>
<path d="M1802 20a10 10 0 0 1 10 10v0a10 10 0 0 0 10 10"></path>
<path d="M1570 40h20"></path>
<g>
<path d="M1590 40h0"></path>
<path d="M1802 40h0"></path>
<g class="terminal">
<path d="M1590 40h0"></path>
<path d="M1714 40h0"></path>
<rect x="1590" y="29" width="124" height="22" rx="10" ry="10"></rect>
<text x="1652" y="44">"FRAME ENTRY"</text>
</g>
<path d="M1714 40h10"></path>
<path d="M1724 40h10"></path>
<g class="non-terminal">
<path d="M1734 40h0"></path>
<path d="M1802 40h0"></path>
<rect x="1734" y="29" width="68" height="22"></rect>
<a xlink:href="reuse_target.svg"><text x="1768" y="44">Target</text>
</a>
</g>
</g>
<path d="M1802 40h20"></path>
</g>
<g>
<path d="M1822 40h0"></path>
<path d="M2042 40h0"></path>
<path d="M1822 40a10 10 0 0 0 10 -10v0a10 10 0 0 1 10 -10"></path>
<g>
<path d="M1842 20h180"></path>
</g>
<path d="M2022 20a10 10 0 0 1 10 10v0a10 10 0 0 0 10 10"></path>
<path d="M1822 40h20"></path>
<g>
<path d="M1842 40h0"></path>
<path d="M2022 40h0"></path>
<g class="terminal">
<path d="M1842 40h0"></path>
<path d="M1934 40h0"></path>
<rect x="1842" y="29" width="92" height="22" rx="10" ry="10"></rect>
<text x="1888" y="44">"INCLUDE"</text>
</g>
<path d="M1934 40h10"></path>
<path d="M1944 40h10"></path>
<g class="non-terminal">
<path d="M1954 40h0"></path>
<path d="M2022 40h0"></path>
<rect x="1954" y="29" width="68" height="22"></rect>
<a xlink:href="reuse_target.svg"><text x="1988" y="44">Target</text>
</a>
</g>
</g>
<path d="M2022 40h20"></path>
</g>
<g>
<path d="M2042 40h0"></path>
<path d="M2286 40h0"></path>
<path d="M2042 40a10 10 0 0 0 10 -10v0a10 10 0 0 1 10 -10"></path>
<g>
<path d="M2062 20h204"></path>
</g>
<path d="M2266 20a10 10 0 0 1 10 10v0a10 10 0 0 0 10 10"></path>
<path d="M2042 40h20"></path>
<g>
<path d="M2062 40h0"></path>
<path d="M2266 40h0"></path>
<g class="terminal">
<path d="M2062 40h0"></path>
<path d="M2178 40h0"></path>
<rect x="2062" y="29" width="116" height="22" rx="10" ry="10"></rect>
<text x="2120" y="44">"MESSAGE-ID"</text>
</g>
<path d="M2178 40h10"></path>
<path d="M2188 40h10"></path>
<g class="non-terminal">
<path d="M2198 40h0"></path>
<path d="M2266 40h0"></path>
<rect x="2198" y="29" width="68" height="22"></rect>
<a xlink:href="reuse_target.svg"><text x="2232" y="44">Target</text>
</a>
</g>
</g>
<path d="M2266 40h20"></path>
</g>
<g>
<path d="M2286 40h0"></path>
<path d="M2662 40h0"></path>
<path d="M2286 40a10 10 0 0 0 10 -10v0a10 10 0 0 1 10 -10"></path>
<g>
<path d="M2306 20h336"></path>
</g>
<path d="M2642 20a10 10 0 0 1 10 10v0a10 10 0 0 0 10 10"></path>
<path d="M2286 40h20"></path>
<g>
<path d="M2306 40h0"></path>
<path d="M2642 40h0"></path>
<path d="M2306 40h10"></path>
<g>
<path d="M2316 40h0"></path>
<path d="M2632 40h0"></path>
<g class="terminal">
<path d="M2316 40h0"></path>
<path d="M2368 40h0"></path>
<rect x="2316" y="29" width="52" height="22" rx="10" ry="10"></rect>
<text x="2342" y="44">"ID"</text>
</g>
<path d="M2368 40h10"></path>
<path d="M2378 40h10"></path>
<g class="non-terminal">
<path d="M2388 40h0"></path>
<path d="M2448 40h0"></path>
<rect x="2388" y="29" width="60" height="22"></rect>
<a xlink:href="reuse_field.svg"><text x="2418" y="44">Field</text>
</a>
</g>
<path d="M2448 40h10"></path>
<path d="M2458 40h10"></path>
<g class="terminal">
<path d="M2468 40h0"></path>
<path d="M2544 40h0"></path>
<rect x="2468" y="29" width="76" height="22" rx="10" ry="10"></rect>
<text x="2506" y="44">"TABLE"</text>
</g>
<path d="M2544 40h10"></path>
<path d="M2554 40h10"></path>
<g class="non-terminal">
<path d="M2564 40h0"></path>
<path d="M2632 40h0"></path>
<rect x="2564" y="29" width="68" height="22"></rect>
<a xlink:href="reuse_target.svg"><text x="2598" y="44">Target</text>
</a>
</g>
</g>
<path d="M2632 40h10"></path>
<path d="M2316 40a10 10 0 0 0 -10 10v0a10 10 0 0 0 10 10"></path>
<g>
<path d="M2316 60h316"></path>
</g>
<path d="M2632 60a10 10 0 0 0 10 -10v0a10 10 0 0 0 -10 -10"></path>
</g>
<path d="M2642 40h20"></path>
</g>
</g>
<path d="M2662 40h20"></path>
<path d="M40 40a10 10 0 0 1 10 10v19a10 10 0 0 0 10 10"></path>
<g>
<path d="M60 79h0"></path>
<path d="M1600 79h1062"></path>
<g class="terminal">
<path d="M60 79h0"></path>
<path d="M280 79h0"></path>
<rect x="60" y="68" width="220" height="22" rx="10" ry="10"></rect>
<text x="170" y="83">"SYNTAX-CHECK FOR DYNPRO"</text>
</g>
<path d="M280 79h10"></path>
<path d="M290 79h10"></path>
<g class="non-terminal">
<path d="M300 79h0"></path>
<path d="M368 79h0"></path>
<rect x="300" y="68" width="68" height="22"></rect>
<a xlink:href="reuse_source.svg"><text x="334" y="83">Source</text>
</a>
</g>
<path d="M368 79h10"></path>
<path d="M378 79h10"></path>
<g class="non-terminal">
<path d="M388 79h0"></path>
<path d="M456 79h0"></path>
<rect x="388" y="68" width="68" height="22"></rect>
<a xlink:href="reuse_source.svg"><text x="422" y="83">Source</text>
</a>
</g>
<path d="M456 79h10"></path>
<path d="M466 79h10"></path>
<g class="non-terminal">
<path d="M476 79h0"></path>
<path d="M544 79h0"></path>
<rect x="476" y="68" width="68" height="22"></rect>
<a xlink:href="reuse_source.svg"><text x="510" y="83">Source</text>
</a>
</g>
<path d="M544 79h10"></path>
<path d="M554 79h10"></path>
<g class="non-terminal">
<path d="M564 79h0"></path>
<path d="M632 79h0"></path>
<rect x="564" y="68" width="68" height="22"></rect>
<a xlink:href="reuse_source.svg"><text x="598" y="83">Source</text>
</a>
</g>
<path d="M632 79h10"></path>
<path d="M642 79h10"></path>
<g>
<path d="M652 79h0"></path>
<path d="M832 79h0"></path>
<g class="terminal">
<path d="M652 79h0"></path>
<path d="M744 79h0"></path>
<rect x="652" y="68" width="92" height="22" rx="10" ry="10"></rect>
<text x="698" y="83">"MESSAGE"</text>
</g>
<path d="M744 79h10"></path>
<path d="M754 79h10"></path>
<g class="non-terminal">
<path d="M764 79h0"></path>
<path d="M832 79h0"></path>
<rect x="764" y="68" width="68" height="22"></rect>
<a xlink:href="reuse_target.svg"><text x="798" y="83">Target</text>
</a>
</g>
</g>
<path d="M832 79h10"></path>
<path d="M842 79h10"></path>
<g>
<path d="M852 79h0"></path>
<path d="M1008 79h0"></path>
<g class="terminal">
<path d="M852 79h0"></path>
<path d="M920 79h0"></path>
<rect x="852" y="68" width="68" height="22" rx="10" ry="10"></rect>
<text x="886" y="83">"LINE"</text>
</g>
<path d="M920 79h10"></path>
<path d="M930 79h10"></path>
<g class="non-terminal">
<path d="M940 79h0"></path>
<path d="M1008 79h0"></path>
<rect x="940" y="68" width="68" height="22"></rect>
<a xlink:href="reuse_target.svg"><text x="974" y="83">Target</text>
</a>
</g>
</g>
<path d="M1008 79h10"></path>
<path d="M1018 79h10"></path>
<g>
<path d="M1028 79h0"></path>
<path d="M1184 79h0"></path>
<g class="terminal">
<path d="M1028 79h0"></path>
<path d="M1096 79h0"></path>
<rect x="1028" y="68" width="68" height="22" rx="10" ry="10"></rect>
<text x="1062" y="83">"WORD"</text>
</g>
<path d="M1096 79h10"></path>
<path d="M1106 79h10"></path>
<g class="non-terminal">
<path d="M1116 79h0"></path>
<path d="M1184 79h0"></path>
<rect x="1116" y="68" width="68" height="22"></rect>
<a xlink:href="reuse_target.svg"><text x="1150" y="83">Target</text>
</a>
</g>
</g>
<path d="M1184 79h10"></path>
<path d="M1194 79h10"></path>
<g>
<path d="M1204 79h0"></path>
<path d="M1376 79h0"></path>
<g class="terminal">
<path d="M1204 79h0"></path>
<path d="M1288 79h0"></path>
<rect x="1204" y="68" width="84" height="22" rx="10" ry="10"></rect>
<text x="1246" y="83">"OFFSET"</text>
</g>
<path d="M1288 79h10"></path>
<path d="M1298 79h10"></path>
<g class="non-terminal">
<path d="M1308 79h0"></path>
<path d="M1376 79h0"></path>
<rect x="1308" y="68" width="68" height="22"></rect>
<a xlink:href="reuse_target.svg"><text x="1342" y="83">Target</text>
</a>
</g>
</g>
<path d="M1376 79h10"></path>
<path d="M1386 79h10"></path>
<g>
<path d="M1396 79h0"></path>
<path d="M1600 79h0"></path>
<g class="terminal">
<path d="M1396 79h0"></path>
<path d="M1512 79h0"></path>
<rect x="1396" y="68" width="116" height="22" rx="10" ry="10"></rect>
<text x="1454" y="83">"MESSAGE-ID"</text>
</g>
<path d="M1512 79h10"></path>
<path d="M1522 79h10"></path>
<g class="non-terminal">
<path d="M1532 79h0"></path>
<path d="M1600 79h0"></path>
<rect x="1532" y="68" width="68" height="22"></rect>
<a xlink:href="reuse_target.svg"><text x="1566" y="83">Target</text>
</a>
</g>
</g>
</g>
<path d="M2662 79a10 10 0 0 0 10 -10v-19a10 10 0 0 1 10 -10"></path>
</g>
<path d="M 2682 40 h 20 m -10 -10 v 20 m 10 -20 v 20"></path>
</g>
</svg>
