<svg xmlns="http://www.w3.org/2000/svg" xmlns:xlink="http://www.w3.org/1999/xlink" class="railroad-diagram" width="1718" height="290" viewBox="0 0 1718 290">
<defs>
<style type="text/css"><![CDATA[
path {
stroke-width: 3;
stroke: black;
fill: rgba(0,0,0,0);
}
text {
font: bold 14px monospace;
text-anchor: middle;
}
text.diagram-text {
font-size: 12px;
}
a {
fill: blue;
}
text.diagram-arrow {
font-size: 16px;
}
text.label {
text-anchor: start;
}
text.comment {
font: italic 12px monospace;
}
rect {
stroke-width: 3;
stroke: black;
fill: #BCBCBC;
}
path.diagram-text {
stroke-width: 3;
stroke: black;
fill: #BCBCBC;
cursor: help;
}
]]></style>
</defs>
<g transform="translate(.5 .5)">
<path d="M 20 30 v 20 m 10 -20 v 20 m -10 -10 h 20.5"></path>
<path d="M40 40h10"></path>
<g>
<path d="M50 40h0"></path>
<path d="M1668 40h0"></path>
<g class="terminal">
<path d="M50 40h0"></path>
<path d="M214 40h0"></path>
<rect x="50" y="29" width="164" height="22" rx="10" ry="10"></rect>
<text x="132" y="44">"SYNTAX-CHECK FOR"</text>
</g>
<path d="M214 40h10"></path>
<g>
<path d="M224 40h0"></path>
<path d="M1668 40h0"></path>
<path d="M224 40h20"></path>
<g>
<path d="M244 40h0"></path>
<path d="M1540 40h108"></path>
<g class="non-terminal">
<path d="M244 40h0"></path>
<path d="M312 40h0"></path>
<rect x="244" y="29" width="68" height="22"></rect>
<a xlink:href="reuse_source.svg"><text x="278" y="44">Source</text>
</a>
</g>
<path d="M312 40h10"></path>
<path d="M322 40h10"></path>
<g class="terminal">
<path d="M332 40h0"></path>
<path d="M424 40h0"></path>
<rect x="332" y="29" width="92" height="22" rx="10" ry="10"></rect>
<text x="378" y="44">"MESSAGE"</text>
</g>
<path d="M424 40h10"></path>
<path d="M434 40h10"></path>
<g class="non-terminal">
<path d="M444 40h0"></path>
<path d="M512 40h0"></path>
<rect x="444" y="29" width="68" height="22"></rect>
<a xlink:href="reuse_target.svg"><text x="478" y="44">Target</text>
</a>
</g>
<path d="M512 40h10"></path>
<path d="M522 40h10"></path>
<g class="terminal">
<path d="M532 40h0"></path>
<path d="M600 40h0"></path>
<rect x="532" y="29" width="68" height="22" rx="10" ry="10"></rect>
<text x="566" y="44">"LINE"</text>
</g>
<path d="M600 40h10"></path>
<path d="M610 40h10"></path>
<g class="non-terminal">
<path d="M620 40h0"></path>
<path d="M688 40h0"></path>
<rect x="620" y="29" width="68" height="22"></rect>
<a xlink:href="reuse_target.svg"><text x="654" y="44">Target</text>
</a>
</g>
<path d="M688 40h10"></path>
<g>
<path d="M698 40h0"></path>
<path d="M910 40h0"></path>
<path d="M698 40a10 10 0 0 0 10 -10v0a10 10 0 0 1 10 -10"></path>
<g>
<path d="M718 20h172"></path>
</g>
<path d="M890 20a10 10 0 0 1 10 10v0a10 10 0 0 0 10 10"></path>
<path d="M698 40h20"></path>
<g>
<path d="M718 40h0"></path>
<path d="M890 40h0"></path>
<g class="terminal">
<path d="M718 40h0"></path>
<path d="M802 40h0"></path>
<rect x="718" y="29" width="84" height="22" rx="10" ry="10"></rect>
<text x="760" y="44">"OFFSET"</text>
</g>
<path d="M802 40h10"></path>
<path d="M812 40h10"></path>
<g class="non-terminal">
<path d="M822 40h0"></path>
<path d="M890 40h0"></path>
<rect x="822" y="29" width="68" height="22"></rect>
<a xlink:href="reuse_target.svg"><text x="856" y="44">Target</text>
</a>
</g>
</g>
<path d="M890 40h20"></path>
</g>
<path d="M910 40h10"></path>
<g class="terminal">
<path d="M920 40h0"></path>
<path d="M988 40h0"></path>
<rect x="920" y="29" width="68" height="22" rx="10" ry="10"></rect>
<text x="954" y="44">"WORD"</text>
</g>
<path d="M988 40h10"></path>
<path d="M998 40h10"></path>
<g class="non-terminal">
<path d="M1008 40h0"></path>
<path d="M1076 40h0"></path>
<rect x="1008" y="29" width="68" height="22"></rect>
<a xlink:href="reuse_target.svg"><text x="1042" y="44">Target</text>
</a>
</g>
<path d="M1076 40h10"></path>
<g>
<path d="M1086 40h0"></path>
<path d="M1540 40h0"></path>
<path d="M1086 40a10 10 0 0 0 10 -10v0a10 10 0 0 1 10 -10"></path>
<g>
<path d="M1106 20h414"></path>
</g>
<path d="M1520 20a10 10 0 0 1 10 10v0a10 10 0 0 0 10 10"></path>
<path d="M1086 40h20"></path>
<g>
<path d="M1106 40h0"></path>
<path d="M1520 40h0"></path>
<path d="M1136 40h10"></path>
<g>
<path d="M1146 40h0"></path>
<path d="M1326 40h164"></path>
<g class="terminal">
<path d="M1146 40h0"></path>
<path d="M1238 40h0"></path>
<rect x="1146" y="29" width="92" height="22" rx="10" ry="10"></rect>
<text x="1192" y="44">"PROGRAM"</text>
</g>
<path d="M1238 40h10"></path>
<path d="M1248 40h10"></path>
<g class="non-terminal">
<path d="M1258 40h0"></path>
<path d="M1326 40h0"></path>
<rect x="1258" y="29" width="68" height="22"></rect>
<a xlink:href="reuse_source.svg"><text x="1292" y="44">Source</text>
</a>
</g>
</g>
<path d="M1490 40h10"></path>
<path d="M1136 40v20a10 10 0 0 0 10 10"></path>
<g>
<path d="M1146 70h0"></path>
<path d="M1342 70h148"></path>
<g class="terminal">
<path d="M1146 70h0"></path>
<path d="M1254 70h0"></path>
<rect x="1146" y="59" width="108" height="22" rx="10" ry="10"></rect>
<text x="1200" y="74">"REPLACING"</text>
</g>
<path d="M1254 70h10"></path>
<path d="M1264 70h10"></path>
<g class="non-terminal">
<path d="M1274 70h0"></path>
<path d="M1342 70h0"></path>
<rect x="1274" y="59" width="68" height="22"></rect>
<a xlink:href="reuse_target.svg"><text x="1308" y="74">Target</text>
</a>
</g>
</g>
<path d="M1490 70a10 10 0 0 0 10 -10v-20"></path>
<path d="M1136 40v50a10 10 0 0 0 10 10"></path>
<g>
<path d="M1146 100h0"></path>
<path d="M1390 100h100"></path>
<g class="terminal">
<path d="M1146 100h0"></path>
<path d="M1302 100h0"></path>
<rect x="1146" y="89" width="156" height="22" rx="10" ry="10"></rect>
<text x="1224" y="104">"DIRECTORY ENTRY"</text>
</g>
<path d="M1302 100h10"></path>
<path d="M1312 100h10"></path>
<g class="non-terminal">
<path d="M1322 100h0"></path>
<path d="M1390 100h0"></path>
<rect x="1322" y="89" width="68" height="22"></rect>
<a xlink:href="reuse_source.svg"><text x="1356" y="104">Source</text>
</a>
</g>
</g>
<path d="M1490 100a10 10 0 0 0 10 -10v-50"></path>
<path d="M1136 40v80a10 10 0 0 0 10 10"></path>
<g>
<path d="M1146 130h0"></path>
<path d="M1358 130h132"></path>
<g class="terminal">
<path d="M1146 130h0"></path>
<path d="M1270 130h0"></path>
<rect x="1146" y="119" width="124" height="22" rx="10" ry="10"></rect>
<text x="1208" y="134">"FRAME ENTRY"</text>
</g>
<path d="M1270 130h10"></path>
<path d="M1280 130h10"></path>
<g class="non-terminal">
<path d="M1290 130h0"></path>
<path d="M1358 130h0"></path>
<rect x="1290" y="119" width="68" height="22"></rect>
<a xlink:href="reuse_target.svg"><text x="1324" y="134">Target</text>
</a>
</g>
</g>
<path d="M1490 130a10 10 0 0 0 10 -10v-80"></path>
<path d="M1136 40v110a10 10 0 0 0 10 10"></path>
<g>
<path d="M1146 160h0"></path>
<path d="M1326 160h164"></path>
<g class="terminal">
<path d="M1146 160h0"></path>
<path d="M1238 160h0"></path>
<rect x="1146" y="149" width="92" height="22" rx="10" ry="10"></rect>
<text x="1192" y="164">"INCLUDE"</text>
</g>
<path d="M1238 160h10"></path>
<path d="M1248 160h10"></path>
<g class="non-terminal">
<path d="M1258 160h0"></path>
<path d="M1326 160h0"></path>
<rect x="1258" y="149" width="68" height="22"></rect>
<a xlink:href="reuse_target.svg"><text x="1292" y="164">Target</text>
</a>
</g>
</g>
<path d="M1490 160a10 10 0 0 0 10 -10v-110"></path>
<path d="M1136 40v140a10 10 0 0 0 10 10"></path>
<g>
<path d="M1146 190h0"></path>
<path d="M1350 190h140"></path>
<g class="terminal">
<path d="M1146 190h0"></path>
<path d="M1262 190h0"></path>
<rect x="1146" y="179" width="116" height="22" rx="10" ry="10"></rect>
<text x="1204" y="194">"MESSAGE-ID"</text>
</g>
<path d="M1262 190h10"></path>
<path d="M1272 190h10"></path>
<g class="non-terminal">
<path d="M1282 190h0"></path>
<path d="M1350 190h0"></path>
<rect x="1282" y="179" width="68" height="22"></rect>
<a xlink:href="reuse_target.svg"><text x="1316" y="194">Target</text>
</a>
</g>
</g>
<path d="M1490 190a10 10 0 0 0 10 -10v-140"></path>
<path d="M1136 40v170a10 10 0 0 0 10 10"></path>
<g>
<path d="M1146 220h0"></path>
<path d="M1490 220h0"></path>
<path d="M1146 220h10"></path>
<g>
<path d="M1156 220h0"></path>
<path d="M1480 220h0"></path>
<g class="terminal">
<path d="M1156 220h0"></path>
<path d="M1208 220h0"></path>
<rect x="1156" y="209" width="52" height="22" rx="10" ry="10"></rect>
<text x="1182" y="224">"ID"</text>
</g>
<path d="M1208 220h10"></path>
<path d="M1218 220h10"></path>
<g class="non-terminal">
<path d="M1228 220h0"></path>
<path d="M1296 220h0"></path>
<rect x="1228" y="209" width="68" height="22"></rect>
<a xlink:href="reuse_source.svg"><text x="1262" y="224">Source</text>
</a>
</g>
<path d="M1296 220h10"></path>
<path d="M1306 220h10"></path>
<g class="terminal">
<path d="M1316 220h0"></path>
<path d="M1392 220h0"></path>
<rect x="1316" y="209" width="76" height="22" rx="10" ry="10"></rect>
<text x="1354" y="224">"TABLE"</text>
</g>
<path d="M1392 220h10"></path>
<path d="M1402 220h10"></path>
<g class="non-terminal">
<path d="M1412 220h0"></path>
<path d="M1480 220h0"></path>
<rect x="1412" y="209" width="68" height="22"></rect>
<a xlink:href="reuse_target.svg"><text x="1446" y="224">Target</text>
</a>
</g>
</g>
<path d="M1480 220h10"></path>
<path d="M1156 220a10 10 0 0 0 -10 10v0a10 10 0 0 0 10 10"></path>
<g>
<path d="M1156 240h324"></path>
</g>
<path d="M1480 240a10 10 0 0 0 10 -10v0a10 10 0 0 0 -10 -10"></path>
</g>
<path d="M1490 220a10 10 0 0 0 10 -10v-170"></path>
<g class="diagram-text">
<title>take one or more branches, once each, in any order</title>
<path d="M 1136 30 h -26 a 4 4 0 0 0 -4 4 v 12 a 4 4 0 0 0 4 4 h 26 z" class="diagram-text"></path>
<text x="1121" y="44" class="diagram-text">1+</text>
<path d="M 1500 30 h 16 a 4 4 0 0 1 4 4 v 12 a 4 4 0 0 1 -4 4 h -16 z" class="diagram-text"></path>
<path d="M 1507 38 a 4 4 0 1 0 6 -1 m 2.75 -1 h -4 v 4 m 0 -3 h 2" style="stroke-width: 1.75"></path>
</g>
</g>
<path d="M1520 40h20"></path>
</g>
</g>
<path d="M1648 40h20"></path>
<path d="M224 40a10 10 0 0 1 10 10v199a10 10 0 0 0 10 10"></path>
<g>
<path d="M244 259h0"></path>
<path d="M1648 259h0"></path>
<g class="terminal">
<path d="M244 259h0"></path>
<path d="M328 259h0"></path>
<rect x="244" y="248" width="84" height="22" rx="10" ry="10"></rect>
<text x="286" y="263">"DYNPRO"</text>
</g>
<path d="M328 259h10"></path>
<path d="M338 259h10"></path>
<g class="non-terminal">
<path d="M348 259h0"></path>
<path d="M416 259h0"></path>
<rect x="348" y="248" width="68" height="22"></rect>
<a xlink:href="reuse_source.svg"><text x="382" y="263">Source</text>
</a>
</g>
<path d="M416 259h10"></path>
<path d="M426 259h10"></path>
<g class="non-terminal">
<path d="M436 259h0"></path>
<path d="M504 259h0"></path>
<rect x="436" y="248" width="68" height="22"></rect>
<a xlink:href="reuse_source.svg"><text x="470" y="263">Source</text>
</a>
</g>
<path d="M504 259h10"></path>
<path d="M514 259h10"></path>
<g class="non-terminal">
<path d="M524 259h0"></path>
<path d="M592 259h0"></path>
<rect x="524" y="248" width="68" height="22"></rect>
<a xlink:href="reuse_source.svg"><text x="558" y="263">Source</text>
</a>
</g>
<path d="M592 259h10"></path>
<path d="M602 259h10"></path>
<g class="non-terminal">
<path d="M612 259h0"></path>
<path d="M680 259h0"></path>
<rect x="612" y="248" width="68" height="22"></rect>
<a xlink:href="reuse_source.svg"><text x="646" y="263">Source</text>
</a>
</g>
<path d="M680 259h10"></path>
<path d="M690 259h10"></path>
<g>
<path d="M700 259h0"></path>
<path d="M880 259h0"></path>
<g class="terminal">
<path d="M700 259h0"></path>
<path d="M792 259h0"></path>
<rect x="700" y="248" width="92" height="22" rx="10" ry="10"></rect>
<text x="746" y="263">"MESSAGE"</text>
</g>
<path d="M792 259h10"></path>
<path d="M802 259h10"></path>
<g class="non-terminal">
<path d="M812 259h0"></path>
<path d="M880 259h0"></path>
<rect x="812" y="248" width="68" height="22"></rect>
<a xlink:href="reuse_target.svg"><text x="846" y="263">Target</text>
</a>
</g>
</g>
<path d="M880 259h10"></path>
<path d="M890 259h10"></path>
<g>
<path d="M900 259h0"></path>
<path d="M1056 259h0"></path>
<g class="terminal">
<path d="M900 259h0"></path>
<path d="M968 259h0"></path>
<rect x="900" y="248" width="68" height="22" rx="10" ry="10"></rect>
<text x="934" y="263">"LINE"</text>
</g>
<path d="M968 259h10"></path>
<path d="M978 259h10"></path>
<g class="non-terminal">
<path d="M988 259h0"></path>
<path d="M1056 259h0"></path>
<rect x="988" y="248" width="68" height="22"></rect>
<a xlink:href="reuse_target.svg"><text x="1022" y="263">Target</text>
</a>
</g>
</g>
<path d="M1056 259h10"></path>
<path d="M1066 259h10"></path>
<g>
<path d="M1076 259h0"></path>
<path d="M1232 259h0"></path>
<g class="terminal">
<path d="M1076 259h0"></path>
<path d="M1144 259h0"></path>
<rect x="1076" y="248" width="68" height="22" rx="10" ry="10"></rect>
<text x="1110" y="263">"WORD"</text>
</g>
<path d="M1144 259h10"></path>
<path d="M1154 259h10"></path>
<g class="non-terminal">
<path d="M1164 259h0"></path>
<path d="M1232 259h0"></path>
<rect x="1164" y="248" width="68" height="22"></rect>
<a xlink:href="reuse_target.svg"><text x="1198" y="263">Target</text>
</a>
</g>
</g>
<path d="M1232 259h10"></path>
<path d="M1242 259h10"></path>
<g>
<path d="M1252 259h0"></path>
<path d="M1424 259h0"></path>
<g class="terminal">
<path d="M1252 259h0"></path>
<path d="M1336 259h0"></path>
<rect x="1252" y="248" width="84" height="22" rx="10" ry="10"></rect>
<text x="1294" y="263">"OFFSET"</text>
</g>
<path d="M1336 259h10"></path>
<path d="M1346 259h10"></path>
<g class="non-terminal">
<path d="M1356 259h0"></path>
<path d="M1424 259h0"></path>
<rect x="1356" y="248" width="68" height="22"></rect>
<a xlink:href="reuse_target.svg"><text x="1390" y="263">Target</text>
</a>
</g>
</g>
<path d="M1424 259h10"></path>
<path d="M1434 259h10"></path>
<g>
<path d="M1444 259h0"></path>
<path d="M1648 259h0"></path>
<g class="terminal">
<path d="M1444 259h0"></path>
<path d="M1560 259h0"></path>
<rect x="1444" y="248" width="116" height="22" rx="10" ry="10"></rect>
<text x="1502" y="263">"MESSAGE-ID"</text>
</g>
<path d="M1560 259h10"></path>
<path d="M1570 259h10"></path>
<g class="non-terminal">
<path d="M1580 259h0"></path>
<path d="M1648 259h0"></path>
<rect x="1580" y="248" width="68" height="22"></rect>
<a xlink:href="reuse_target.svg"><text x="1614" y="263">Target</text>
</a>
</g>
</g>
</g>
<path d="M1648 259a10 10 0 0 0 10 -10v-199a10 10 0 0 1 10 -10"></path>
</g>
</g>
<path d="M1668 40h10"></path>
<path d="M 1678 40 h 20 m -10 -10 v 20 m 10 -20 v 20"></path>
</g>
</svg>
