<svg xmlns="http://www.w3.org/2000/svg" xmlns:xlink="http://www.w3.org/1999/xlink" class="railroad-diagram" width="1768" height="479" viewBox="0 0 1768 479">
<defs>
<style type="text/css"><![CDATA[
path {
stroke-width: 3;
stroke: black;
fill: rgba(0,0,0,0);
}
text {
font: bold 14px monospace;
text-anchor: middle;
}
text.diagram-text {
font-size: 12px;
}
a {
fill: blue;
}
text.diagram-arrow {
font-size: 16px;
}
text.label {
text-anchor: start;
}
text.comment {
font: italic 12px monospace;
}
rect {
stroke-width: 3;
stroke: black;
fill: #BCBCBC;
}
path.diagram-text {
stroke-width: 3;
stroke: black;
fill: #BCBCBC;
cursor: help;
}
]]></style>
</defs>
<g transform="translate(.5 .5)">
<path d="M 20 30 v 20 m 10 -20 v 20 m -10 -10 h 20.5"></path>
<path d="M40 40h10"></path>
<g>
<path d="M50 40h0"></path>
<path d="M1718 40h0"></path>
<g class="terminal">
<path d="M50 40h0"></path>
<path d="M214 40h0"></path>
<rect x="50" y="29" width="164" height="22" rx="10" ry="10"></rect>
<text x="132" y="44">"SYNTAX-CHECK FOR"</text>
</g>
<path d="M214 40h10"></path>
<g>
<path d="M224 40h0"></path>
<path d="M1718 40h0"></path>
<path d="M224 40h20"></path>
<g>
<path d="M244 40h0"></path>
<path d="M888 40h810"></path>
<g>
<path d="M244 40h0"></path>
<path d="M376 40h0"></path>
<path d="M244 40a10 10 0 0 0 10 -10v0a10 10 0 0 1 10 -10"></path>
<g>
<path d="M264 20h92"></path>
</g>
<path d="M356 20a10 10 0 0 1 10 10v0a10 10 0 0 0 10 10"></path>
<path d="M244 40h20"></path>
<g class="terminal">
<path d="M264 40h0"></path>
<path d="M356 40h0"></path>
<rect x="264" y="29" width="92" height="22" rx="10" ry="10"></rect>
<text x="310" y="44">"PROGRAM"</text>
</g>
<path d="M356 40h20"></path>
</g>
<path d="M376 40h10"></path>
<g class="non-terminal">
<path d="M386 40h0"></path>
<path d="M454 40h0"></path>
<rect x="386" y="29" width="68" height="22"></rect>
<a xlink:href="reuse_source.svg"><text x="420" y="44">Source</text>
</a>
</g>
<path d="M454 40h10"></path>
<path d="M464 40h10"></path>
<g>
<path d="M474 40h0"></path>
<path d="M888 40h0"></path>
<path d="M504 40h10"></path>
<g>
<path d="M514 40h0"></path>
<path d="M694 40h164"></path>
<g class="terminal">
<path d="M514 40h0"></path>
<path d="M606 40h0"></path>
<rect x="514" y="29" width="92" height="22" rx="10" ry="10"></rect>
<text x="560" y="44">"MESSAGE"</text>
</g>
<path d="M606 40h10"></path>
<path d="M616 40h10"></path>
<g class="non-terminal">
<path d="M626 40h0"></path>
<path d="M694 40h0"></path>
<rect x="626" y="29" width="68" height="22"></rect>
<a xlink:href="reuse_target.svg"><text x="660" y="44">Target</text>
</a>
</g>
</g>
<path d="M858 40h10"></path>
<path d="M504 40v20a10 10 0 0 0 10 10"></path>
<g>
<path d="M514 70h0"></path>
<path d="M670 70h188"></path>
<g class="terminal">
<path d="M514 70h0"></path>
<path d="M582 70h0"></path>
<rect x="514" y="59" width="68" height="22" rx="10" ry="10"></rect>
<text x="548" y="74">"LINE"</text>
</g>
<path d="M582 70h10"></path>
<path d="M592 70h10"></path>
<g class="non-terminal">
<path d="M602 70h0"></path>
<path d="M670 70h0"></path>
<rect x="602" y="59" width="68" height="22"></rect>
<a xlink:href="reuse_target.svg"><text x="636" y="74">Target</text>
</a>
</g>
</g>
<path d="M858 70a10 10 0 0 0 10 -10v-20"></path>
<path d="M504 40v50a10 10 0 0 0 10 10"></path>
<g>
<path d="M514 100h0"></path>
<path d="M670 100h188"></path>
<g class="terminal">
<path d="M514 100h0"></path>
<path d="M582 100h0"></path>
<rect x="514" y="89" width="68" height="22" rx="10" ry="10"></rect>
<text x="548" y="104">"WORD"</text>
</g>
<path d="M582 100h10"></path>
<path d="M592 100h10"></path>
<g class="non-terminal">
<path d="M602 100h0"></path>
<path d="M670 100h0"></path>
<rect x="602" y="89" width="68" height="22"></rect>
<a xlink:href="reuse_target.svg"><text x="636" y="104">Target</text>
</a>
</g>
</g>
<path d="M858 100a10 10 0 0 0 10 -10v-50"></path>
<path d="M504 40v80a10 10 0 0 0 10 10"></path>
<g>
<path d="M514 130h0"></path>
<path d="M686 130h172"></path>
<g class="terminal">
<path d="M514 130h0"></path>
<path d="M598 130h0"></path>
<rect x="514" y="119" width="84" height="22" rx="10" ry="10"></rect>
<text x="556" y="134">"OFFSET"</text>
</g>
<path d="M598 130h10"></path>
<path d="M608 130h10"></path>
<g class="non-terminal">
<path d="M618 130h0"></path>
<path d="M686 130h0"></path>
<rect x="618" y="119" width="68" height="22"></rect>
<a xlink:href="reuse_target.svg"><text x="652" y="134">Target</text>
</a>
</g>
</g>
<path d="M858 130a10 10 0 0 0 10 -10v-80"></path>
<path d="M504 40v110a10 10 0 0 0 10 10"></path>
<g>
<path d="M514 160h0"></path>
<path d="M694 160h164"></path>
<g class="terminal">
<path d="M514 160h0"></path>
<path d="M606 160h0"></path>
<rect x="514" y="149" width="92" height="22" rx="10" ry="10"></rect>
<text x="560" y="164">"PROGRAM"</text>
</g>
<path d="M606 160h10"></path>
<path d="M616 160h10"></path>
<g class="non-terminal">
<path d="M626 160h0"></path>
<path d="M694 160h0"></path>
<rect x="626" y="149" width="68" height="22"></rect>
<a xlink:href="reuse_source.svg"><text x="660" y="164">Source</text>
</a>
</g>
</g>
<path d="M858 160a10 10 0 0 0 10 -10v-110"></path>
<path d="M504 40v140a10 10 0 0 0 10 10"></path>
<g>
<path d="M514 190h0"></path>
<path d="M710 190h148"></path>
<g class="terminal">
<path d="M514 190h0"></path>
<path d="M622 190h0"></path>
<rect x="514" y="179" width="108" height="22" rx="10" ry="10"></rect>
<text x="568" y="194">"REPLACING"</text>
</g>
<path d="M622 190h10"></path>
<path d="M632 190h10"></path>
<g class="non-terminal">
<path d="M642 190h0"></path>
<path d="M710 190h0"></path>
<rect x="642" y="179" width="68" height="22"></rect>
<a xlink:href="reuse_target.svg"><text x="676" y="194">Target</text>
</a>
</g>
</g>
<path d="M858 190a10 10 0 0 0 10 -10v-140"></path>
<path d="M504 40v170a10 10 0 0 0 10 10"></path>
<g>
<path d="M514 220h0"></path>
<path d="M758 220h100"></path>
<g class="terminal">
<path d="M514 220h0"></path>
<path d="M670 220h0"></path>
<rect x="514" y="209" width="156" height="22" rx="10" ry="10"></rect>
<text x="592" y="224">"DIRECTORY ENTRY"</text>
</g>
<path d="M670 220h10"></path>
<path d="M680 220h10"></path>
<g class="non-terminal">
<path d="M690 220h0"></path>
<path d="M758 220h0"></path>
<rect x="690" y="209" width="68" height="22"></rect>
<a xlink:href="reuse_source.svg"><text x="724" y="224">Source</text>
</a>
</g>
</g>
<path d="M858 220a10 10 0 0 0 10 -10v-170"></path>
<path d="M504 40v200a10 10 0 0 0 10 10"></path>
<g>
<path d="M514 250h0"></path>
<path d="M726 250h132"></path>
<g class="terminal">
<path d="M514 250h0"></path>
<path d="M638 250h0"></path>
<rect x="514" y="239" width="124" height="22" rx="10" ry="10"></rect>
<text x="576" y="254">"FRAME ENTRY"</text>
</g>
<path d="M638 250h10"></path>
<path d="M648 250h10"></path>
<g class="non-terminal">
<path d="M658 250h0"></path>
<path d="M726 250h0"></path>
<rect x="658" y="239" width="68" height="22"></rect>
<a xlink:href="reuse_target.svg"><text x="692" y="254">Target</text>
</a>
</g>
</g>
<path d="M858 250a10 10 0 0 0 10 -10v-200"></path>
<path d="M504 40v230a10 10 0 0 0 10 10"></path>
<g>
<path d="M514 280h0"></path>
<path d="M694 280h164"></path>
<g class="terminal">
<path d="M514 280h0"></path>
<path d="M606 280h0"></path>
<rect x="514" y="269" width="92" height="22" rx="10" ry="10"></rect>
<text x="560" y="284">"INCLUDE"</text>
</g>
<path d="M606 280h10"></path>
<path d="M616 280h10"></path>
<g class="non-terminal">
<path d="M626 280h0"></path>
<path d="M694 280h0"></path>
<rect x="626" y="269" width="68" height="22"></rect>
<a xlink:href="reuse_target.svg"><text x="660" y="284">Target</text>
</a>
</g>
</g>
<path d="M858 280a10 10 0 0 0 10 -10v-230"></path>
<path d="M504 40v260a10 10 0 0 0 10 10"></path>
<g>
<path d="M514 310h0"></path>
<path d="M718 310h140"></path>
<g class="terminal">
<path d="M514 310h0"></path>
<path d="M630 310h0"></path>
<rect x="514" y="299" width="116" height="22" rx="10" ry="10"></rect>
<text x="572" y="314">"MESSAGE-ID"</text>
</g>
<path d="M630 310h10"></path>
<path d="M640 310h10"></path>
<g class="non-terminal">
<path d="M650 310h0"></path>
<path d="M718 310h0"></path>
<rect x="650" y="299" width="68" height="22"></rect>
<a xlink:href="reuse_target.svg"><text x="684" y="314">Target</text>
</a>
</g>
</g>
<path d="M858 310a10 10 0 0 0 10 -10v-260"></path>
<path d="M504 40v290a10 10 0 0 0 10 10"></path>
<g>
<path d="M514 340h0"></path>
<path d="M726 340h132"></path>
<g class="terminal">
<path d="M514 340h0"></path>
<path d="M638 340h0"></path>
<rect x="514" y="329" width="124" height="22" rx="10" ry="10"></rect>
<text x="576" y="344">"TRACE-TABLE"</text>
</g>
<path d="M638 340h10"></path>
<path d="M648 340h10"></path>
<g class="non-terminal">
<path d="M658 340h0"></path>
<path d="M726 340h0"></path>
<rect x="658" y="329" width="68" height="22"></rect>
<a xlink:href="reuse_target.svg"><text x="692" y="344">Target</text>
</a>
</g>
</g>
<path d="M858 340a10 10 0 0 0 10 -10v-290"></path>
<path d="M504 40v320a10 10 0 0 0 10 10"></path>
<g>
<path d="M514 370h0"></path>
<path d="M734 370h124"></path>
<g class="terminal">
<path d="M514 370h0"></path>
<path d="M646 370h0"></path>
<rect x="514" y="359" width="132" height="22" rx="10" ry="10"></rect>
<text x="580" y="374">"SHORTDUMP-ID"</text>
</g>
<path d="M646 370h10"></path>
<path d="M656 370h10"></path>
<g class="non-terminal">
<path d="M666 370h0"></path>
<path d="M734 370h0"></path>
<rect x="666" y="359" width="68" height="22"></rect>
<a xlink:href="reuse_source.svg"><text x="700" y="374">Source</text>
</a>
</g>
</g>
<path d="M858 370a10 10 0 0 0 10 -10v-320"></path>
<path d="M504 40v350a10 10 0 0 0 10 10"></path>
<g>
<path d="M514 400h0"></path>
<path d="M858 400h0"></path>
<path d="M514 400h10"></path>
<g>
<path d="M524 400h0"></path>
<path d="M848 400h0"></path>
<g class="terminal">
<path d="M524 400h0"></path>
<path d="M576 400h0"></path>
<rect x="524" y="389" width="52" height="22" rx="10" ry="10"></rect>
<text x="550" y="404">"ID"</text>
</g>
<path d="M576 400h10"></path>
<path d="M586 400h10"></path>
<g class="non-terminal">
<path d="M596 400h0"></path>
<path d="M664 400h0"></path>
<rect x="596" y="389" width="68" height="22"></rect>
<a xlink:href="reuse_source.svg"><text x="630" y="404">Source</text>
</a>
</g>
<path d="M664 400h10"></path>
<path d="M674 400h10"></path>
<g class="terminal">
<path d="M684 400h0"></path>
<path d="M760 400h0"></path>
<rect x="684" y="389" width="76" height="22" rx="10" ry="10"></rect>
<text x="722" y="404">"TABLE"</text>
</g>
<path d="M760 400h10"></path>
<path d="M770 400h10"></path>
<g class="non-terminal">
<path d="M780 400h0"></path>
<path d="M848 400h0"></path>
<rect x="780" y="389" width="68" height="22"></rect>
<a xlink:href="reuse_target.svg"><text x="814" y="404">Target</text>
</a>
</g>
</g>
<path d="M848 400h10"></path>
<path d="M524 400a10 10 0 0 0 -10 10v0a10 10 0 0 0 10 10"></path>
<g>
<path d="M524 420h324"></path>
</g>
<path d="M848 420a10 10 0 0 0 10 -10v0a10 10 0 0 0 -10 -10"></path>
</g>
<path d="M858 400a10 10 0 0 0 10 -10v-350"></path>
<g class="diagram-text">
<title>take one or more branches, once each, in any order</title>
<path d="M 504 30 h -26 a 4 4 0 0 0 -4 4 v 12 a 4 4 0 0 0 4 4 h 26 z" class="diagram-text"></path>
<text x="489" y="44" class="diagram-text">1+</text>
<path d="M 868 30 h 16 a 4 4 0 0 1 4 4 v 12 a 4 4 0 0 1 -4 4 h -16 z" class="diagram-text"></path>
<path d="M 875 38 a 4 4 0 1 0 6 -1 m 2.75 -1 h -4 v 4 m 0 -3 h 2" style="stroke-width: 1.75"></path>
</g>
</g>
</g>
<path d="M1698 40h20"></path>
<path d="M224 40a10 10 0 0 1 10 10v388a10 10 0 0 0 10 10"></path>
<g>
<path d="M244 448h0"></path>
<path d="M1698 448h0"></path>
<g class="terminal">
<path d="M244 448h0"></path>
<path d="M328 448h0"></path>
<rect x="244" y="437" width="84" height="22" rx="10" ry="10"></rect>
<text x="286" y="452">"DYNPRO"</text>
</g>
<path d="M328 448h10"></path>
<path d="M338 448h10"></path>
<g class="non-terminal">
<path d="M348 448h0"></path>
<path d="M416 448h0"></path>
<rect x="348" y="437" width="68" height="22"></rect>
<a xlink:href="reuse_source.svg"><text x="382" y="452">Source</text>
</a>
</g>
<path d="M416 448h10"></path>
<path d="M426 448h10"></path>
<g class="non-terminal">
<path d="M436 448h0"></path>
<path d="M504 448h0"></path>
<rect x="436" y="437" width="68" height="22"></rect>
<a xlink:href="reuse_source.svg"><text x="470" y="452">Source</text>
</a>
</g>
<path d="M504 448h10"></path>
<path d="M514 448h10"></path>
<g class="non-terminal">
<path d="M524 448h0"></path>
<path d="M592 448h0"></path>
<rect x="524" y="437" width="68" height="22"></rect>
<a xlink:href="reuse_source.svg"><text x="558" y="452">Source</text>
</a>
</g>
<path d="M592 448h10"></path>
<path d="M602 448h10"></path>
<g class="non-terminal">
<path d="M612 448h0"></path>
<path d="M680 448h0"></path>
<rect x="612" y="437" width="68" height="22"></rect>
<a xlink:href="reuse_source.svg"><text x="646" y="452">Source</text>
</a>
</g>
<path d="M680 448h10"></path>
<path d="M690 448h10"></path>
<g>
<path d="M700 448h0"></path>
<path d="M880 448h0"></path>
<g class="terminal">
<path d="M700 448h0"></path>
<path d="M792 448h0"></path>
<rect x="700" y="437" width="92" height="22" rx="10" ry="10"></rect>
<text x="746" y="452">"MESSAGE"</text>
</g>
<path d="M792 448h10"></path>
<path d="M802 448h10"></path>
<g class="non-terminal">
<path d="M812 448h0"></path>
<path d="M880 448h0"></path>
<rect x="812" y="437" width="68" height="22"></rect>
<a xlink:href="reuse_target.svg"><text x="846" y="452">Target</text>
</a>
</g>
</g>
<path d="M880 448h10"></path>
<path d="M890 448h10"></path>
<g>
<path d="M900 448h0"></path>
<path d="M1056 448h0"></path>
<g class="terminal">
<path d="M900 448h0"></path>
<path d="M968 448h0"></path>
<rect x="900" y="437" width="68" height="22" rx="10" ry="10"></rect>
<text x="934" y="452">"LINE"</text>
</g>
<path d="M968 448h10"></path>
<path d="M978 448h10"></path>
<g class="non-terminal">
<path d="M988 448h0"></path>
<path d="M1056 448h0"></path>
<rect x="988" y="437" width="68" height="22"></rect>
<a xlink:href="reuse_target.svg"><text x="1022" y="452">Target</text>
</a>
</g>
</g>
<path d="M1056 448h10"></path>
<path d="M1066 448h10"></path>
<g>
<path d="M1076 448h0"></path>
<path d="M1232 448h0"></path>
<g class="terminal">
<path d="M1076 448h0"></path>
<path d="M1144 448h0"></path>
<rect x="1076" y="437" width="68" height="22" rx="10" ry="10"></rect>
<text x="1110" y="452">"WORD"</text>
</g>
<path d="M1144 448h10"></path>
<path d="M1154 448h10"></path>
<g class="non-terminal">
<path d="M1164 448h0"></path>
<path d="M1232 448h0"></path>
<rect x="1164" y="437" width="68" height="22"></rect>
<a xlink:href="reuse_target.svg"><text x="1198" y="452">Target</text>
</a>
</g>
</g>
<path d="M1232 448h10"></path>
<g>
<path d="M1242 448h0"></path>
<path d="M1454 448h0"></path>
<path d="M1242 448a10 10 0 0 0 10 -10v0a10 10 0 0 1 10 -10"></path>
<g>
<path d="M1262 428h172"></path>
</g>
<path d="M1434 428a10 10 0 0 1 10 10v0a10 10 0 0 0 10 10"></path>
<path d="M1242 448h20"></path>
<g>
<path d="M1262 448h0"></path>
<path d="M1434 448h0"></path>
<g class="terminal">
<path d="M1262 448h0"></path>
<path d="M1346 448h0"></path>
<rect x="1262" y="437" width="84" height="22" rx="10" ry="10"></rect>
<text x="1304" y="452">"OFFSET"</text>
</g>
<path d="M1346 448h10"></path>
<path d="M1356 448h10"></path>
<g class="non-terminal">
<path d="M1366 448h0"></path>
<path d="M1434 448h0"></path>
<rect x="1366" y="437" width="68" height="22"></rect>
<a xlink:href="reuse_target.svg"><text x="1400" y="452">Target</text>
</a>
</g>
</g>
<path d="M1434 448h20"></path>
</g>
<g>
<path d="M1454 448h0"></path>
<path d="M1698 448h0"></path>
<path d="M1454 448a10 10 0 0 0 10 -10v0a10 10 0 0 1 10 -10"></path>
<g>
<path d="M1474 428h204"></path>
</g>
<path d="M1678 428a10 10 0 0 1 10 10v0a10 10 0 0 0 10 10"></path>
<path d="M1454 448h20"></path>
<g>
<path d="M1474 448h0"></path>
<path d="M1678 448h0"></path>
<g class="terminal">
<path d="M1474 448h0"></path>
<path d="M1590 448h0"></path>
<rect x="1474" y="437" width="116" height="22" rx="10" ry="10"></rect>
<text x="1532" y="452">"MESSAGE-ID"</text>
</g>
<path d="M1590 448h10"></path>
<path d="M1600 448h10"></path>
<g class="non-terminal">
<path d="M1610 448h0"></path>
<path d="M1678 448h0"></path>
<rect x="1610" y="437" width="68" height="22"></rect>
<a xlink:href="reuse_target.svg"><text x="1644" y="452">Target</text>
</a>
</g>
</g>
<path d="M1678 448h20"></path>
</g>
</g>
<path d="M1698 448a10 10 0 0 0 10 -10v-388a10 10 0 0 1 10 -10"></path>
</g>
</g>
<path d="M1718 40h10"></path>
<path d="M 1728 40 h 20 m -10 -10 v 20 m 10 -20 v 20"></path>
</g>
</svg>
