<svg xmlns="http://www.w3.org/2000/svg" xmlns:xlink="http://www.w3.org/1999/xlink" class="railroad-diagram" width="1044" height="590" viewBox="0 0 1044 590">
<defs>
<style type="text/css"><![CDATA[
path {
stroke-width: 3;
stroke: black;
fill: rgba(0,0,0,0);
}
text {
font: bold 14px monospace;
text-anchor: middle;
}
text.diagram-text {
font-size: 12px;
}
a {
fill: blue;
}
text.diagram-arrow {
font-size: 16px;
}
text.label {
text-anchor: start;
}
text.comment {
font: italic 12px monospace;
}
rect {
stroke-width: 3;
stroke: black;
fill: #BCBCBC;
}
path.diagram-text {
stroke-width: 3;
stroke: black;
fill: #BCBCBC;
cursor: help;
}
]]></style>
</defs>
<g transform="translate(.5 .5)">
<path d="M 20 30 v 20 m 10 -20 v 20 m -10 -10 h 20.5"></path>
<path d="M40 40h10"></path>
<g>
<path d="M50 40h0"></path>
<path d="M994 40h0"></path>
<g class="terminal">
<path d="M50 40h0"></path>
<path d="M214 40h0"></path>
<rect x="50" y="29" width="164" height="22" rx="10" ry="10"></rect>
<text x="132" y="44">"SYNTAX-CHECK FOR"</text>
</g>
<path d="M214 40h10"></path>
<g>
<path d="M224 40h0"></path>
<path d="M994 40h0"></path>
<path d="M224 40h20"></path>
<g>
<path d="M244 40h0"></path>
<path d="M888 40h86"></path>
<g>
<path d="M244 40h0"></path>
<path d="M376 40h0"></path>
<path d="M244 40a10 10 0 0 0 10 -10v0a10 10 0 0 1 10 -10"></path>
<g>
<path d="M264 20h92"></path>
</g>
<path d="M356 20a10 10 0 0 1 10 10v0a10 10 0 0 0 10 10"></path>
<path d="M244 40h20"></path>
<g class="terminal">
<path d="M264 40h0"></path>
<path d="M356 40h0"></path>
<rect x="264" y="29" width="92" height="22" rx="10" ry="10"></rect>
<text x="310" y="44">"PROGRAM"</text>
</g>
<path d="M356 40h20"></path>
</g>
<path d="M376 40h10"></path>
<g class="non-terminal">
<path d="M386 40h0"></path>
<path d="M454 40h0"></path>
<rect x="386" y="29" width="68" height="22"></rect>
<a xlink:href="reuse_source.svg"><text x="420" y="44">Source</text>
</a>
</g>
<path d="M454 40h10"></path>
<path d="M464 40h10"></path>
<g>
<path d="M474 40h0"></path>
<path d="M888 40h0"></path>
<path d="M504 40h10"></path>
<g>
<path d="M514 40h0"></path>
<path d="M694 40h164"></path>
<g class="terminal">
<path d="M514 40h0"></path>
<path d="M606 40h0"></path>
<rect x="514" y="29" width="92" height="22" rx="10" ry="10"></rect>
<text x="560" y="44">"MESSAGE"</text>
</g>
<path d="M606 40h10"></path>
<path d="M616 40h10"></path>
<g class="non-terminal">
<path d="M626 40h0"></path>
<path d="M694 40h0"></path>
<rect x="626" y="29" width="68" height="22"></rect>
<a xlink:href="reuse_target.svg"><text x="660" y="44">Target</text>
</a>
</g>
</g>
<path d="M858 40h10"></path>
<path d="M504 40v20a10 10 0 0 0 10 10"></path>
<g>
<path d="M514 70h0"></path>
<path d="M670 70h188"></path>
<g class="terminal">
<path d="M514 70h0"></path>
<path d="M582 70h0"></path>
<rect x="514" y="59" width="68" height="22" rx="10" ry="10"></rect>
<text x="548" y="74">"LINE"</text>
</g>
<path d="M582 70h10"></path>
<path d="M592 70h10"></path>
<g class="non-terminal">
<path d="M602 70h0"></path>
<path d="M670 70h0"></path>
<rect x="602" y="59" width="68" height="22"></rect>
<a xlink:href="reuse_target.svg"><text x="636" y="74">Target</text>
</a>
</g>
</g>
<path d="M858 70a10 10 0 0 0 10 -10v-20"></path>
<path d="M504 40v50a10 10 0 0 0 10 10"></path>
<g>
<path d="M514 100h0"></path>
<path d="M670 100h188"></path>
<g class="terminal">
<path d="M514 100h0"></path>
<path d="M582 100h0"></path>
<rect x="514" y="89" width="68" height="22" rx="10" ry="10"></rect>
<text x="548" y="104">"WORD"</text>
</g>
<path d="M582 100h10"></path>
<path d="M592 100h10"></path>
<g class="non-terminal">
<path d="M602 100h0"></path>
<path d="M670 100h0"></path>
<rect x="602" y="89" width="68" height="22"></rect>
<a xlink:href="reuse_target.svg"><text x="636" y="104">Target</text>
</a>
</g>
</g>
<path d="M858 100a10 10 0 0 0 10 -10v-50"></path>
<path d="M504 40v80a10 10 0 0 0 10 10"></path>
<g>
<path d="M514 130h0"></path>
<path d="M686 130h172"></path>
<g class="terminal">
<path d="M514 130h0"></path>
<path d="M598 130h0"></path>
<rect x="514" y="119" width="84" height="22" rx="10" ry="10"></rect>
<text x="556" y="134">"OFFSET"</text>
</g>
<path d="M598 130h10"></path>
<path d="M608 130h10"></path>
<g class="non-terminal">
<path d="M618 130h0"></path>
<path d="M686 130h0"></path>
<rect x="618" y="119" width="68" height="22"></rect>
<a xlink:href="reuse_target.svg"><text x="652" y="134">Target</text>
</a>
</g>
</g>
<path d="M858 130a10 10 0 0 0 10 -10v-80"></path>
<path d="M504 40v110a10 10 0 0 0 10 10"></path>
<g>
<path d="M514 160h0"></path>
<path d="M694 160h164"></path>
<g class="terminal">
<path d="M514 160h0"></path>
<path d="M606 160h0"></path>
<rect x="514" y="149" width="92" height="22" rx="10" ry="10"></rect>
<text x="560" y="164">"PROGRAM"</text>
</g>
<path d="M606 160h10"></path>
<path d="M616 160h10"></path>
<g class="non-terminal">
<path d="M626 160h0"></path>
<path d="M694 160h0"></path>
<rect x="626" y="149" width="68" height="22"></rect>
<a xlink:href="reuse_source.svg"><text x="660" y="164">Source</text>
</a>
</g>
</g>
<path d="M858 160a10 10 0 0 0 10 -10v-110"></path>
<path d="M504 40v140a10 10 0 0 0 10 10"></path>
<g>
<path d="M514 190h0"></path>
<path d="M710 190h148"></path>
<g class="terminal">
<path d="M514 190h0"></path>
<path d="M622 190h0"></path>
<rect x="514" y="179" width="108" height="22" rx="10" ry="10"></rect>
<text x="568" y="194">"REPLACING"</text>
</g>
<path d="M622 190h10"></path>
<path d="M632 190h10"></path>
<g class="non-terminal">
<path d="M642 190h0"></path>
<path d="M710 190h0"></path>
<rect x="642" y="179" width="68" height="22"></rect>
<a xlink:href="reuse_target.svg"><text x="676" y="194">Target</text>
</a>
</g>
</g>
<path d="M858 190a10 10 0 0 0 10 -10v-140"></path>
<path d="M504 40v170a10 10 0 0 0 10 10"></path>
<g>
<path d="M514 220h0"></path>
<path d="M758 220h100"></path>
<g class="terminal">
<path d="M514 220h0"></path>
<path d="M670 220h0"></path>
<rect x="514" y="209" width="156" height="22" rx="10" ry="10"></rect>
<text x="592" y="224">"DIRECTORY ENTRY"</text>
</g>
<path d="M670 220h10"></path>
<path d="M680 220h10"></path>
<g class="non-terminal">
<path d="M690 220h0"></path>
<path d="M758 220h0"></path>
<rect x="690" y="209" width="68" height="22"></rect>
<a xlink:href="reuse_source.svg"><text x="724" y="224">Source</text>
</a>
</g>
</g>
<path d="M858 220a10 10 0 0 0 10 -10v-170"></path>
<path d="M504 40v200a10 10 0 0 0 10 10"></path>
<g>
<path d="M514 250h0"></path>
<path d="M726 250h132"></path>
<g class="terminal">
<path d="M514 250h0"></path>
<path d="M638 250h0"></path>
<rect x="514" y="239" width="124" height="22" rx="10" ry="10"></rect>
<text x="576" y="254">"FRAME ENTRY"</text>
</g>
<path d="M638 250h10"></path>
<path d="M648 250h10"></path>
<g class="non-terminal">
<path d="M658 250h0"></path>
<path d="M726 250h0"></path>
<rect x="658" y="239" width="68" height="22"></rect>
<a xlink:href="reuse_target.svg"><text x="692" y="254">Target</text>
</a>
</g>
</g>
<path d="M858 250a10 10 0 0 0 10 -10v-200"></path>
<path d="M504 40v230a10 10 0 0 0 10 10"></path>
<g>
<path d="M514 280h0"></path>
<path d="M694 280h164"></path>
<g class="terminal">
<path d="M514 280h0"></path>
<path d="M606 280h0"></path>
<rect x="514" y="269" width="92" height="22" rx="10" ry="10"></rect>
<text x="560" y="284">"INCLUDE"</text>
</g>
<path d="M606 280h10"></path>
<path d="M616 280h10"></path>
<g class="non-terminal">
<path d="M626 280h0"></path>
<path d="M694 280h0"></path>
<rect x="626" y="269" width="68" height="22"></rect>
<a xlink:href="reuse_target.svg"><text x="660" y="284">Target</text>
</a>
</g>
</g>
<path d="M858 280a10 10 0 0 0 10 -10v-230"></path>
<path d="M504 40v260a10 10 0 0 0 10 10"></path>
<g>
<path d="M514 310h0"></path>
<path d="M718 310h140"></path>
<g class="terminal">
<path d="M514 310h0"></path>
<path d="M630 310h0"></path>
<rect x="514" y="299" width="116" height="22" rx="10" ry="10"></rect>
<text x="572" y="314">"MESSAGE-ID"</text>
</g>
<path d="M630 310h10"></path>
<path d="M640 310h10"></path>
<g class="non-terminal">
<path d="M650 310h0"></path>
<path d="M718 310h0"></path>
<rect x="650" y="299" width="68" height="22"></rect>
<a xlink:href="reuse_target.svg"><text x="684" y="314">Target</text>
</a>
</g>
</g>
<path d="M858 310a10 10 0 0 0 10 -10v-260"></path>
<path d="M504 40v290a10 10 0 0 0 10 10"></path>
<g>
<path d="M514 340h0"></path>
<path d="M726 340h132"></path>
<g class="terminal">
<path d="M514 340h0"></path>
<path d="M638 340h0"></path>
<rect x="514" y="329" width="124" height="22" rx="10" ry="10"></rect>
<text x="576" y="344">"TRACE-TABLE"</text>
</g>
<path d="M638 340h10"></path>
<path d="M648 340h10"></path>
<g class="non-terminal">
<path d="M658 340h0"></path>
<path d="M726 340h0"></path>
<rect x="658" y="329" width="68" height="22"></rect>
<a xlink:href="reuse_target.svg"><text x="692" y="344">Target</text>
</a>
</g>
</g>
<path d="M858 340a10 10 0 0 0 10 -10v-290"></path>
<path d="M504 40v320a10 10 0 0 0 10 10"></path>
<g>
<path d="M514 370h0"></path>
<path d="M734 370h124"></path>
<g class="terminal">
<path d="M514 370h0"></path>
<path d="M646 370h0"></path>
<rect x="514" y="359" width="132" height="22" rx="10" ry="10"></rect>
<text x="580" y="374">"SHORTDUMP-ID"</text>
</g>
<path d="M646 370h10"></path>
<path d="M656 370h10"></path>
<g class="non-terminal">
<path d="M666 370h0"></path>
<path d="M734 370h0"></path>
<rect x="666" y="359" width="68" height="22"></rect>
<a xlink:href="reuse_source.svg"><text x="700" y="374">Source</text>
</a>
</g>
</g>
<path d="M858 370a10 10 0 0 0 10 -10v-320"></path>
<path d="M504 40v350a10 10 0 0 0 10 10"></path>
<g>
<path d="M514 400h0"></path>
<path d="M858 400h0"></path>
<path d="M514 400h10"></path>
<g>
<path d="M524 400h0"></path>
<path d="M848 400h0"></path>
<g class="terminal">
<path d="M524 400h0"></path>
<path d="M576 400h0"></path>
<rect x="524" y="389" width="52" height="22" rx="10" ry="10"></rect>
<text x="550" y="404">"ID"</text>
</g>
<path d="M576 400h10"></path>
<path d="M586 400h10"></path>
<g class="non-terminal">
<path d="M596 400h0"></path>
<path d="M664 400h0"></path>
<rect x="596" y="389" width="68" height="22"></rect>
<a xlink:href="reuse_source.svg"><text x="630" y="404">Source</text>
</a>
</g>
<path d="M664 400h10"></path>
<path d="M674 400h10"></path>
<g class="terminal">
<path d="M684 400h0"></path>
<path d="M760 400h0"></path>
<rect x="684" y="389" width="76" height="22" rx="10" ry="10"></rect>
<text x="722" y="404">"TABLE"</text>
</g>
<path d="M760 400h10"></path>
<path d="M770 400h10"></path>
<g class="non-terminal">
<path d="M780 400h0"></path>
<path d="M848 400h0"></path>
<rect x="780" y="389" width="68" height="22"></rect>
<a xlink:href="reuse_target.svg"><text x="814" y="404">Target</text>
</a>
</g>
</g>
<path d="M848 400h10"></path>
<path d="M524 400a10 10 0 0 0 -10 10v0a10 10 0 0 0 10 10"></path>
<g>
<path d="M524 420h324"></path>
</g>
<path d="M848 420a10 10 0 0 0 10 -10v0a10 10 0 0 0 -10 -10"></path>
</g>
<path d="M858 400a10 10 0 0 0 10 -10v-350"></path>
<g class="diagram-text">
<title>take one or more branches, once each, in any order</title>
<path d="M 504 30 h -26 a 4 4 0 0 0 -4 4 v 12 a 4 4 0 0 0 4 4 h 26 z" class="diagram-text"></path>
<text x="489" y="44" class="diagram-text">1+</text>
<path d="M 868 30 h 16 a 4 4 0 0 1 4 4 v 12 a 4 4 0 0 1 -4 4 h -16 z" class="diagram-text"></path>
<path d="M 875 38 a 4 4 0 1 0 6 -1 m 2.75 -1 h -4 v 4 m 0 -3 h 2" style="stroke-width: 1.75"></path>
</g>
</g>
</g>
<path d="M974 40h20"></path>
<path d="M224 40a10 10 0 0 1 10 10v379a10 10 0 0 0 10 10"></path>
<g>
<path d="M244 439h0"></path>
<path d="M974 439h0"></path>
<g class="terminal">
<path d="M244 439h0"></path>
<path d="M328 439h0"></path>
<rect x="244" y="428" width="84" height="22" rx="10" ry="10"></rect>
<text x="286" y="443">"DYNPRO"</text>
</g>
<path d="M328 439h10"></path>
<path d="M338 439h10"></path>
<g class="non-terminal">
<path d="M348 439h0"></path>
<path d="M416 439h0"></path>
<rect x="348" y="428" width="68" height="22"></rect>
<a xlink:href="reuse_source.svg"><text x="382" y="443">Source</text>
</a>
</g>
<path d="M416 439h10"></path>
<path d="M426 439h10"></path>
<g class="non-terminal">
<path d="M436 439h0"></path>
<path d="M504 439h0"></path>
<rect x="436" y="428" width="68" height="22"></rect>
<a xlink:href="reuse_source.svg"><text x="470" y="443">Source</text>
</a>
</g>
<path d="M504 439h10"></path>
<path d="M514 439h10"></path>
<g class="non-terminal">
<path d="M524 439h0"></path>
<path d="M592 439h0"></path>
<rect x="524" y="428" width="68" height="22"></rect>
<a xlink:href="reuse_source.svg"><text x="558" y="443">Source</text>
</a>
</g>
<path d="M592 439h10"></path>
<path d="M602 439h10"></path>
<g class="non-terminal">
<path d="M612 439h0"></path>
<path d="M680 439h0"></path>
<rect x="612" y="428" width="68" height="22"></rect>
<a xlink:href="reuse_source.svg"><text x="646" y="443">Source</text>
</a>
</g>
<path d="M680 439h10"></path>
<path d="M690 439h10"></path>
<g>
<path d="M700 439h0"></path>
<path d="M974 439h0"></path>
<path d="M730 439h10"></path>
<g>
<path d="M740 439h0"></path>
<path d="M920 439h24"></path>
<g class="terminal">
<path d="M740 439h0"></path>
<path d="M832 439h0"></path>
<rect x="740" y="428" width="92" height="22" rx="10" ry="10"></rect>
<text x="786" y="443">"MESSAGE"</text>
</g>
<path d="M832 439h10"></path>
<path d="M842 439h10"></path>
<g class="non-terminal">
<path d="M852 439h0"></path>
<path d="M920 439h0"></path>
<rect x="852" y="428" width="68" height="22"></rect>
<a xlink:href="reuse_target.svg"><text x="886" y="443">Target</text>
</a>
</g>
</g>
<path d="M944 439h10"></path>
<path d="M730 439v20a10 10 0 0 0 10 10"></path>
<g>
<path d="M740 469h0"></path>
<path d="M896 469h48"></path>
<g class="terminal">
<path d="M740 469h0"></path>
<path d="M808 469h0"></path>
<rect x="740" y="458" width="68" height="22" rx="10" ry="10"></rect>
<text x="774" y="473">"LINE"</text>
</g>
<path d="M808 469h10"></path>
<path d="M818 469h10"></path>
<g class="non-terminal">
<path d="M828 469h0"></path>
<path d="M896 469h0"></path>
<rect x="828" y="458" width="68" height="22"></rect>
<a xlink:href="reuse_target.svg"><text x="862" y="473">Target</text>
</a>
</g>
</g>
<path d="M944 469a10 10 0 0 0 10 -10v-20"></path>
<path d="M730 439v50a10 10 0 0 0 10 10"></path>
<g>
<path d="M740 499h0"></path>
<path d="M896 499h48"></path>
<g class="terminal">
<path d="M740 499h0"></path>
<path d="M808 499h0"></path>
<rect x="740" y="488" width="68" height="22" rx="10" ry="10"></rect>
<text x="774" y="503">"WORD"</text>
</g>
<path d="M808 499h10"></path>
<path d="M818 499h10"></path>
<g class="non-terminal">
<path d="M828 499h0"></path>
<path d="M896 499h0"></path>
<rect x="828" y="488" width="68" height="22"></rect>
<a xlink:href="reuse_target.svg"><text x="862" y="503">Target</text>
</a>
</g>
</g>
<path d="M944 499a10 10 0 0 0 10 -10v-50"></path>
<path d="M730 439v80a10 10 0 0 0 10 10"></path>
<g>
<path d="M740 529h0"></path>
<path d="M912 529h32"></path>
<g class="terminal">
<path d="M740 529h0"></path>
<path d="M824 529h0"></path>
<rect x="740" y="518" width="84" height="22" rx="10" ry="10"></rect>
<text x="782" y="533">"OFFSET"</text>
</g>
<path d="M824 529h10"></path>
<path d="M834 529h10"></path>
<g class="non-terminal">
<path d="M844 529h0"></path>
<path d="M912 529h0"></path>
<rect x="844" y="518" width="68" height="22"></rect>
<a xlink:href="reuse_target.svg"><text x="878" y="533">Target</text>
</a>
</g>
</g>
<path d="M944 529a10 10 0 0 0 10 -10v-80"></path>
<path d="M730 439v110a10 10 0 0 0 10 10"></path>
<g>
<path d="M740 559h0"></path>
<path d="M944 559h0"></path>
<g class="terminal">
<path d="M740 559h0"></path>
<path d="M856 559h0"></path>
<rect x="740" y="548" width="116" height="22" rx="10" ry="10"></rect>
<text x="798" y="563">"MESSAGE-ID"</text>
</g>
<path d="M856 559h10"></path>
<path d="M866 559h10"></path>
<g class="non-terminal">
<path d="M876 559h0"></path>
<path d="M944 559h0"></path>
<rect x="876" y="548" width="68" height="22"></rect>
<a xlink:href="reuse_target.svg"><text x="910" y="563">Target</text>
</a>
</g>
</g>
<path d="M944 559a10 10 0 0 0 10 -10v-110"></path>
<g class="diagram-text">
<title>take one or more branches, once each, in any order</title>
<path d="M 730 429 h -26 a 4 4 0 0 0 -4 4 v 12 a 4 4 0 0 0 4 4 h 26 z" class="diagram-text"></path>
<text x="715" y="443" class="diagram-text">1+</text>
<path d="M 954 429 h 16 a 4 4 0 0 1 4 4 v 12 a 4 4 0 0 1 -4 4 h -16 z" class="diagram-text"></path>
<path d="M 961 437 a 4 4 0 1 0 6 -1 m 2.75 -1 h -4 v 4 m 0 -3 h 2" style="stroke-width: 1.75"></path>
</g>
</g>
</g>
<path d="M974 439a10 10 0 0 0 10 -10v-379a10 10 0 0 1 10 -10"></path>
</g>
</g>
<path d="M994 40h10"></path>
<path d="M 1004 40 h 20 m -10 -10 v 20 m 10 -20 v 20"></path>
</g>
</svg>
