<?xml version="1.0" encoding="UTF-8" standalone="no"?>
<!DOCTYPE svg PUBLIC "-//W3C//DTD SVG 1.1//EN"
 "http://www.w3.org/Graphics/SVG/1.1/DTD/svg11.dtd">
<!-- Generated by graphviz version 2.38.0 (20140413.2041)
 -->
<!-- Title: tables Pages: 1 -->
<svg width="119pt" height="260pt"
 viewBox="0.00 0.00 118.79 260.00" xmlns="http://www.w3.org/2000/svg" xmlns:xlink="http://www.w3.org/1999/xlink">
<g id="graph0" class="graph" transform="scale(1 1) rotate(0) translate(4 256)">
<title>tables</title>
<polygon fill="white" stroke="none" points="-4,4 -4,-256 114.786,-256 114.786,4 -4,4"/>
<!-- start -->
<g id="node1" class="node"><title>start</title>
<polygon fill="none" stroke="black" points="82.3928,-252 28.3928,-252 28.3928,-216 82.3928,-216 82.3928,-252"/>
<text text-anchor="middle" x="55.3928" y="-229.8" font-family="Times,serif" font-size="14.00">Start</text>
</g>
<!-- node472 -->
<g id="node4" class="node"><title>node472</title>
<ellipse fill="none" stroke="black" cx="55.3928" cy="-162" rx="55.2858" ry="18"/>
<text text-anchor="middle" x="55.3928" y="-157.8" font-family="Times,serif" font-size="14.00">&quot;TABLES&quot;</text>
</g>
<!-- start&#45;&gt;node472 -->
<g id="edge3" class="edge"><title>start&#45;&gt;node472</title>
<path fill="none" stroke="black" d="M55.3928,-215.697C55.3928,-207.983 55.3928,-198.712 55.3928,-190.112"/>
<polygon fill="black" stroke="black" points="58.8929,-190.104 55.3928,-180.104 51.8929,-190.104 58.8929,-190.104"/>
</g>
<!-- end -->
<g id="node2" class="node"><title>end</title>
<polygon fill="none" stroke="black" points="82.3928,-36 28.3928,-36 28.3928,-0 82.3928,-0 82.3928,-36"/>
<text text-anchor="middle" x="55.3928" y="-13.8" font-family="Times,serif" font-size="14.00">End</text>
</g>
<!-- node471 -->
<g id="node3" class="node"><title>node471</title>
<g id="a_node3"><a xlink:href="reuse_field.svg" xlink:title="&lt;u&gt;field&lt;/u&gt;">
<ellipse fill="none" stroke="black" cx="55.3928" cy="-90" rx="28.9696" ry="18"/>
<text text-anchor="start" x="42.5646" y="-86.8" font-family="Times,serif" text-decoration="underline" font-size="14.00" fill="blue">field</text>
</a>
</g>
</g>
<!-- node471&#45;&gt;end -->
<g id="edge1" class="edge"><title>node471&#45;&gt;end</title>
<path fill="none" stroke="black" d="M55.3928,-71.6966C55.3928,-63.9827 55.3928,-54.7125 55.3928,-46.1124"/>
<polygon fill="black" stroke="black" points="58.8929,-46.1043 55.3928,-36.1043 51.8929,-46.1044 58.8929,-46.1043"/>
</g>
<!-- node472&#45;&gt;node471 -->
<g id="edge2" class="edge"><title>node472&#45;&gt;node471</title>
<path fill="none" stroke="black" d="M55.3928,-143.697C55.3928,-135.983 55.3928,-126.712 55.3928,-118.112"/>
<polygon fill="black" stroke="black" points="58.8929,-118.104 55.3928,-108.104 51.8929,-118.104 58.8929,-118.104"/>
</g>
</g>
</svg>
