<?xml version="1.0" encoding="UTF-8" standalone="no"?>
<!DOCTYPE svg PUBLIC "-//W3C//DTD SVG 1.1//EN"
 "http://www.w3.org/Graphics/SVG/1.1/DTD/svg11.dtd">
<!-- Generated by graphviz version 2.38.0 (20140413.2041)
 -->
<!-- Title: target Pages: 1 -->
<svg width="320pt" height="404pt"
 viewBox="0.00 0.00 319.73 404.00" xmlns="http://www.w3.org/2000/svg" xmlns:xlink="http://www.w3.org/1999/xlink">
<g id="graph0" class="graph" transform="scale(1 1) rotate(0) translate(4 400)">
<title>target</title>
<polygon fill="white" stroke="none" points="-4,4 -4,-400 315.727,-400 315.727,4 -4,4"/>
<!-- start -->
<g id="node1" class="node"><title>start</title>
<polygon fill="none" stroke="blue" points="167.728,-396 113.728,-396 113.728,-360 167.728,-360 167.728,-396"/>
<text text-anchor="middle" x="140.728" y="-373.8" font-family="Times,serif" font-size="14.00">Start</text>
</g>
<!-- node73 -->
<g id="node6" class="node"><title>node73</title>
<ellipse fill="none" stroke="black" cx="45.7281" cy="-306" rx="45.9574" ry="18"/>
<text text-anchor="middle" x="45.7281" y="-301.8" font-family="Times,serif" font-size="14.00">&quot;DATA&quot;</text>
</g>
<!-- start&#45;&gt;node73 -->
<g id="edge13" class="edge"><title>start&#45;&gt;node73</title>
<path fill="none" stroke="black" d="M117.245,-359.697C104.322,-350.175 88.1816,-338.281 74.5058,-328.205"/>
<polygon fill="black" stroke="black" points="76.4868,-325.317 66.36,-322.202 72.3344,-330.952 76.4868,-325.317"/>
</g>
<!-- node77 -->
<g id="node10" class="node"><title>node77</title>
<g id="a_node10"><a xlink:href="field.svg" xlink:title="&lt;u&gt;field&lt;/u&gt;">
<ellipse fill="none" stroke="black" cx="140.728" cy="-306" rx="28.9696" ry="18"/>
<text text-anchor="start" x="127.9" y="-302.8" font-family="Times,serif" text-decoration="underline" font-size="14.00" fill="blue">field</text>
</a>
</g>
</g>
<!-- start&#45;&gt;node77 -->
<g id="edge14" class="edge"><title>start&#45;&gt;node77</title>
<path fill="none" stroke="black" d="M140.728,-359.697C140.728,-351.983 140.728,-342.712 140.728,-334.112"/>
<polygon fill="black" stroke="black" points="144.228,-334.104 140.728,-324.104 137.228,-334.104 144.228,-334.104"/>
</g>
<!-- node78 -->
<g id="node11" class="node"><title>node78</title>
<g id="a_node11"><a xlink:href="field_symbol.svg" xlink:title="&lt;u&gt;field_symbol&lt;/u&gt;">
<ellipse fill="none" stroke="black" cx="249.728" cy="-306" rx="61.9982" ry="18"/>
<text text-anchor="start" x="212.787" y="-302.8" font-family="Times,serif" text-decoration="underline" font-size="14.00" fill="blue">field_symbol</text>
</a>
</g>
</g>
<!-- start&#45;&gt;node78 -->
<g id="edge15" class="edge"><title>start&#45;&gt;node78</title>
<path fill="none" stroke="black" d="M167.393,-359.876C182.282,-350.314 200.962,-338.318 216.763,-328.17"/>
<polygon fill="black" stroke="black" points="218.68,-331.099 225.203,-322.75 214.897,-325.209 218.68,-331.099"/>
</g>
<!-- end -->
<g id="node2" class="node"><title>end</title>
<polygon fill="none" stroke="blue" points="220.728,-36 166.728,-36 166.728,-0 220.728,-0 220.728,-36"/>
<text text-anchor="middle" x="193.728" y="-13.8" font-family="Times,serif" font-size="14.00">End</text>
</g>
<!-- node70 -->
<g id="node3" class="node"><title>node70</title>
<ellipse fill="none" stroke="black" cx="98.7281" cy="-90" rx="27" ry="18"/>
<text text-anchor="middle" x="98.7281" y="-85.8" font-family="Times,serif" font-size="14.00">&quot;)&quot;</text>
</g>
<!-- node70&#45;&gt;end -->
<g id="edge1" class="edge"><title>node70&#45;&gt;end</title>
<path fill="none" stroke="black" d="M116.153,-76.1609C128.988,-66.703 146.802,-53.5775 162.122,-42.289"/>
<polygon fill="black" stroke="black" points="164.354,-44.9914 170.329,-36.2416 160.202,-39.356 164.354,-44.9914"/>
</g>
<!-- node71 -->
<g id="node4" class="node"><title>node71</title>
<g id="a_node4"><a xlink:href="field.svg" xlink:title="&lt;u&gt;field&lt;/u&gt;">
<ellipse fill="none" stroke="black" cx="38.7281" cy="-162" rx="28.9696" ry="18"/>
<text text-anchor="start" x="25.8999" y="-158.8" font-family="Times,serif" text-decoration="underline" font-size="14.00" fill="blue">field</text>
</a>
</g>
</g>
<!-- node71&#45;&gt;node70 -->
<g id="edge2" class="edge"><title>node71&#45;&gt;node70</title>
<path fill="none" stroke="black" d="M51.7472,-145.811C59.767,-136.455 70.2008,-124.282 79.198,-113.785"/>
<polygon fill="black" stroke="black" points="81.8839,-116.03 85.7344,-106.159 76.5691,-111.474 81.8839,-116.03"/>
</g>
<!-- node72 -->
<g id="node5" class="node"><title>node72</title>
<ellipse fill="none" stroke="black" cx="39.7281" cy="-234" rx="27" ry="18"/>
<text text-anchor="middle" x="39.7281" y="-229.8" font-family="Times,serif" font-size="14.00">&quot;(&quot;</text>
</g>
<!-- node72&#45;&gt;node71 -->
<g id="edge3" class="edge"><title>node72&#45;&gt;node71</title>
<path fill="none" stroke="black" d="M39.4809,-215.697C39.3707,-207.983 39.2383,-198.712 39.1154,-190.112"/>
<polygon fill="black" stroke="black" points="42.615,-190.053 38.9725,-180.104 35.6158,-190.153 42.615,-190.053"/>
</g>
<!-- node73&#45;&gt;node72 -->
<g id="edge4" class="edge"><title>node73&#45;&gt;node72</title>
<path fill="none" stroke="black" d="M44.245,-287.697C43.5838,-279.983 42.7892,-270.712 42.052,-262.112"/>
<polygon fill="black" stroke="black" points="45.5355,-261.769 41.1942,-252.104 38.5611,-262.367 45.5355,-261.769"/>
</g>
<!-- node74 -->
<g id="node7" class="node"><title>node74</title>
<ellipse fill="none" stroke="black" cx="249.728" cy="-234" rx="42.879" ry="18"/>
<text text-anchor="middle" x="249.728" y="-229.8" font-family="Times,serif" font-size="14.00">Dummy</text>
</g>
<!-- node74&#45;&gt;end -->
<g id="edge8" class="edge"><title>node74&#45;&gt;end</title>
<path fill="none" stroke="black" d="M250.947,-215.825C251.621,-205.456 252.389,-191.976 252.728,-180 254.11,-131.121 253.126,-115.969 231.728,-72 227.046,-62.3794 220.643,-52.6395 214.427,-44.1793"/>
<polygon fill="black" stroke="black" points="217.189,-42.0296 208.344,-36.1975 211.622,-46.2726 217.189,-42.0296"/>
</g>
<!-- node76 -->
<g id="node9" class="node"><title>node76</title>
<g id="a_node9"><a xlink:href="arrow_or_dash.svg" xlink:title="&lt;u&gt;arrow_or_dash&lt;/u&gt;">
<ellipse fill="none" stroke="black" cx="154.728" cy="-162" rx="68.9042" ry="18"/>
<text text-anchor="start" x="112.747" y="-158.8" font-family="Times,serif" text-decoration="underline" font-size="14.00" fill="blue">arrow_or_dash</text>
</a>
</g>
</g>
<!-- node74&#45;&gt;node76 -->
<g id="edge7" class="edge"><title>node74&#45;&gt;node76</title>
<path fill="none" stroke="black" d="M229.115,-217.811C216.159,-208.265 199.225,-195.787 184.787,-185.149"/>
<polygon fill="black" stroke="black" points="186.75,-182.248 176.624,-179.134 182.598,-187.883 186.75,-182.248"/>
</g>
<!-- node75 -->
<g id="node8" class="node"><title>node75</title>
<g id="a_node8"><a xlink:href="field.svg" xlink:title="&lt;u&gt;field&lt;/u&gt;">
<ellipse fill="none" stroke="black" cx="193.728" cy="-90" rx="28.9696" ry="18"/>
<text text-anchor="start" x="180.9" y="-86.8" font-family="Times,serif" text-decoration="underline" font-size="14.00" fill="blue">field</text>
</a>
</g>
</g>
<!-- node75&#45;&gt;node74 -->
<g id="edge5" class="edge"><title>node75&#45;&gt;node74</title>
<path fill="none" stroke="black" d="M207.686,-106.079C216.206,-116.106 226.604,-129.97 232.728,-144 241.315,-163.673 245.578,-187.659 247.687,-205.772"/>
<polygon fill="black" stroke="black" points="244.227,-206.344 248.718,-215.939 251.191,-205.637 244.227,-206.344"/>
</g>
<!-- node76&#45;&gt;node75 -->
<g id="edge6" class="edge"><title>node76&#45;&gt;node75</title>
<path fill="none" stroke="black" d="M164.169,-144.055C168.835,-135.679 174.56,-125.404 179.725,-116.134"/>
<polygon fill="black" stroke="black" points="182.833,-117.746 184.643,-107.307 176.718,-114.339 182.833,-117.746"/>
</g>
<!-- node77&#45;&gt;node74 -->
<g id="edge10" class="edge"><title>node77&#45;&gt;node74</title>
<path fill="none" stroke="black" d="M160.215,-292.485C176.391,-282.097 199.704,-267.126 218.482,-255.066"/>
<polygon fill="black" stroke="black" points="220.494,-257.934 227.017,-249.585 216.711,-252.044 220.494,-257.934"/>
</g>
<!-- node77&#45;&gt;node76 -->
<g id="edge9" class="edge"><title>node77&#45;&gt;node76</title>
<path fill="none" stroke="black" d="M142.417,-287.871C144.803,-263.67 149.186,-219.211 152.027,-190.393"/>
<polygon fill="black" stroke="black" points="155.535,-190.484 153.033,-180.189 148.569,-189.798 155.535,-190.484"/>
</g>
<!-- node78&#45;&gt;node74 -->
<g id="edge12" class="edge"><title>node78&#45;&gt;node74</title>
<path fill="none" stroke="black" d="M249.728,-287.697C249.728,-279.983 249.728,-270.712 249.728,-262.112"/>
<polygon fill="black" stroke="black" points="253.228,-262.104 249.728,-252.104 246.228,-262.104 253.228,-262.104"/>
</g>
<!-- node78&#45;&gt;node76 -->
<g id="edge11" class="edge"><title>node78&#45;&gt;node76</title>
<path fill="none" stroke="black" d="M230.847,-288.622C220.221,-278.746 207.221,-265.496 197.728,-252 183.984,-232.459 172.472,-207.851 164.828,-189.465"/>
<polygon fill="black" stroke="black" points="167.981,-187.925 160.991,-179.963 161.49,-190.546 167.981,-187.925"/>
</g>
</g>
</svg>
