<?xml version="1.0" encoding="UTF-8" standalone="no"?>
<!DOCTYPE svg PUBLIC "-//W3C//DTD SVG 1.1//EN"
 "http://www.w3.org/Graphics/SVG/1.1/DTD/svg11.dtd">
<!-- Generated by graphviz version 2.38.0 (20140413.2041)
 -->
<!-- Title: target Pages: 1 -->
<svg width="348pt" height="332pt"
 viewBox="0.00 0.00 347.94 332.00" xmlns="http://www.w3.org/2000/svg" xmlns:xlink="http://www.w3.org/1999/xlink">
<g id="graph0" class="graph" transform="scale(1 1) rotate(0) translate(4 328)">
<title>target</title>
<polygon fill="white" stroke="none" points="-4,4 -4,-328 343.944,-328 343.944,4 -4,4"/>
<!-- start -->
<g id="node1" class="node"><title>start</title>
<polygon fill="none" stroke="blue" points="195.945,-324 141.945,-324 141.945,-288 195.945,-288 195.945,-324"/>
<text text-anchor="middle" x="168.945" y="-301.8" font-family="Times,serif" font-size="14.00">Start</text>
</g>
<!-- node79 -->
<g id="node3" class="node"><title>node79</title>
<g id="a_node3"><a xlink:href="inline_decl.svg" xlink:title="&lt;u&gt;inline_decl&lt;/u&gt;">
<ellipse fill="none" stroke="black" cx="53.9452" cy="-162" rx="53.8905" ry="18"/>
<text text-anchor="start" x="22.8421" y="-158.8" font-family="Times,serif" text-decoration="underline" font-size="14.00" fill="blue">inline_decl</text>
</a>
</g>
</g>
<!-- start&#45;&gt;node79 -->
<g id="edge10" class="edge"><title>start&#45;&gt;node79</title>
<path fill="none" stroke="black" d="M155.074,-287.871C134.847,-262.896 97.1483,-216.346 73.9306,-187.678"/>
<polygon fill="black" stroke="black" points="76.5225,-185.317 67.509,-179.748 71.0827,-189.722 76.5225,-185.317"/>
</g>
<!-- node83 -->
<g id="node7" class="node"><title>node83</title>
<g id="a_node7"><a xlink:href="field.svg" xlink:title="&lt;u&gt;field&lt;/u&gt;">
<ellipse fill="none" stroke="black" cx="168.945" cy="-234" rx="28.9696" ry="18"/>
<text text-anchor="start" x="156.117" y="-230.8" font-family="Times,serif" text-decoration="underline" font-size="14.00" fill="blue">field</text>
</a>
</g>
</g>
<!-- start&#45;&gt;node83 -->
<g id="edge11" class="edge"><title>start&#45;&gt;node83</title>
<path fill="none" stroke="black" d="M168.945,-287.697C168.945,-279.983 168.945,-270.712 168.945,-262.112"/>
<polygon fill="black" stroke="black" points="172.445,-262.104 168.945,-252.104 165.445,-262.104 172.445,-262.104"/>
</g>
<!-- node84 -->
<g id="node8" class="node"><title>node84</title>
<g id="a_node8"><a xlink:href="field_symbol.svg" xlink:title="&lt;u&gt;field_symbol&lt;/u&gt;">
<ellipse fill="none" stroke="black" cx="277.945" cy="-234" rx="61.9982" ry="18"/>
<text text-anchor="start" x="241.004" y="-230.8" font-family="Times,serif" text-decoration="underline" font-size="14.00" fill="blue">field_symbol</text>
</a>
</g>
</g>
<!-- start&#45;&gt;node84 -->
<g id="edge12" class="edge"><title>start&#45;&gt;node84</title>
<path fill="none" stroke="black" d="M195.61,-287.876C210.499,-278.314 229.179,-266.318 244.98,-256.17"/>
<polygon fill="black" stroke="black" points="246.897,-259.099 253.42,-250.75 243.114,-253.209 246.897,-259.099"/>
</g>
<!-- end -->
<g id="node2" class="node"><title>end</title>
<polygon fill="none" stroke="blue" points="110.945,-108 56.9452,-108 56.9452,-72 110.945,-72 110.945,-108"/>
<text text-anchor="middle" x="83.9452" y="-85.8" font-family="Times,serif" font-size="14.00">End</text>
</g>
<!-- node79&#45;&gt;end -->
<g id="edge1" class="edge"><title>node79&#45;&gt;end</title>
<path fill="none" stroke="black" d="M61.2074,-144.055C64.6203,-136.091 68.7692,-126.411 72.5839,-117.51"/>
<polygon fill="black" stroke="black" points="75.8193,-118.845 76.5415,-108.275 69.3852,-116.088 75.8193,-118.845"/>
</g>
<!-- node80 -->
<g id="node4" class="node"><title>node80</title>
<ellipse fill="none" stroke="black" cx="168.945" cy="-162" rx="42.879" ry="18"/>
<text text-anchor="middle" x="168.945" y="-157.8" font-family="Times,serif" font-size="14.00">Dummy</text>
</g>
<!-- node80&#45;&gt;end -->
<g id="edge5" class="edge"><title>node80&#45;&gt;end</title>
<path fill="none" stroke="black" d="M150.081,-145.465C139.088,-136.412 125.001,-124.811 112.655,-114.644"/>
<polygon fill="black" stroke="black" points="114.788,-111.866 104.844,-108.211 110.338,-117.27 114.788,-111.866"/>
</g>
<!-- node82 -->
<g id="node6" class="node"><title>node82</title>
<g id="a_node6"><a xlink:href="arrow_or_dash.svg" xlink:title="&lt;u&gt;arrow_or_dash&lt;/u&gt;">
<ellipse fill="none" stroke="black" cx="252.945" cy="-90" rx="68.9042" ry="18"/>
<text text-anchor="start" x="210.964" y="-86.8" font-family="Times,serif" text-decoration="underline" font-size="14.00" fill="blue">arrow_or_dash</text>
</a>
</g>
</g>
<!-- node80&#45;&gt;node82 -->
<g id="edge4" class="edge"><title>node80&#45;&gt;node82</title>
<path fill="none" stroke="black" d="M187.588,-145.465C198.689,-136.213 212.984,-124.301 225.372,-113.978"/>
<polygon fill="black" stroke="black" points="227.743,-116.558 233.185,-107.467 223.262,-111.18 227.743,-116.558"/>
</g>
<!-- node81 -->
<g id="node5" class="node"><title>node81</title>
<g id="a_node5"><a xlink:href="field.svg" xlink:title="&lt;u&gt;field&lt;/u&gt;">
<ellipse fill="none" stroke="black" cx="203.945" cy="-18" rx="28.9696" ry="18"/>
<text text-anchor="start" x="191.117" y="-14.8" font-family="Times,serif" text-decoration="underline" font-size="14.00" fill="blue">field</text>
</a>
</g>
</g>
<!-- node81&#45;&gt;node80 -->
<g id="edge2" class="edge"><title>node81&#45;&gt;node80</title>
<path fill="none" stroke="black" d="M192.855,-34.9035C186.413,-45.0337 178.824,-58.7094 174.945,-72 169.06,-92.1616 167.727,-115.94 167.774,-133.844"/>
<polygon fill="black" stroke="black" points="164.275,-133.952 167.945,-143.891 171.274,-133.833 164.275,-133.952"/>
</g>
<!-- node82&#45;&gt;node81 -->
<g id="edge3" class="edge"><title>node82&#45;&gt;node81</title>
<path fill="none" stroke="black" d="M241.084,-72.055C235.012,-63.3808 227.514,-52.6694 220.848,-43.1473"/>
<polygon fill="black" stroke="black" points="223.628,-41.0146 215.026,-34.8294 217.893,-45.0289 223.628,-41.0146"/>
</g>
<!-- node83&#45;&gt;node80 -->
<g id="edge7" class="edge"><title>node83&#45;&gt;node80</title>
<path fill="none" stroke="black" d="M168.945,-215.697C168.945,-207.983 168.945,-198.712 168.945,-190.112"/>
<polygon fill="black" stroke="black" points="172.445,-190.104 168.945,-180.104 165.445,-190.104 172.445,-190.104"/>
</g>
<!-- node83&#45;&gt;node82 -->
<g id="edge6" class="edge"><title>node83&#45;&gt;node82</title>
<path fill="none" stroke="black" d="M185.877,-219.203C197.116,-209.291 211.488,-195.067 220.945,-180 233.042,-160.728 241.419,-136.242 246.559,-117.834"/>
<polygon fill="black" stroke="black" points="249.975,-118.607 249.149,-108.044 243.207,-116.816 249.975,-118.607"/>
</g>
<!-- node84&#45;&gt;node80 -->
<g id="edge9" class="edge"><title>node84&#45;&gt;node80</title>
<path fill="none" stroke="black" d="M253.483,-217.291C237.662,-207.13 216.929,-193.816 199.956,-182.915"/>
<polygon fill="black" stroke="black" points="201.774,-179.923 191.468,-177.464 197.991,-185.813 201.774,-179.923"/>
</g>
<!-- node84&#45;&gt;node82 -->
<g id="edge8" class="edge"><title>node84&#45;&gt;node82</title>
<path fill="none" stroke="black" d="M274.93,-215.871C270.669,-191.67 262.841,-147.211 257.768,-118.393"/>
<polygon fill="black" stroke="black" points="261.152,-117.431 255.971,-108.189 254.258,-118.645 261.152,-117.431"/>
</g>
</g>
</svg>
