<svg xmlns="http://www.w3.org/2000/svg" xmlns:xlink="http://www.w3.org/1999/xlink" class="railroad-diagram" width="670" height="71" viewBox="0 0 670 71">
<defs>
<style type="text/css"><![CDATA[
path {
stroke-width: 3;
stroke: black;
fill: rgba(0,0,0,0);
}
text {
font: bold 14px monospace;
text-anchor: middle;
}
text.diagram-text {
font-size: 12px;
}
a {
fill: blue;
}
text.diagram-arrow {
font-size: 16px;
}
text.label {
text-anchor: start;
}
text.comment {
font: italic 12px monospace;
}
rect {
stroke-width: 3;
stroke: black;
fill: #BCBCBC;
}
path.diagram-text {
stroke-width: 3;
stroke: black;
fill: #BCBCBC;
cursor: help;
}
]]></style>
</defs>
<g transform="translate(.5 .5)">
<path d="M 20 30 v 20 m 10 -20 v 20 m -10 -10 h 20.5"></path>
<path d="M40 40h10"></path>
<g>
<path d="M50 40h0"></path>
<path d="M620 40h0"></path>
<g class="terminal">
<path d="M50 40h0"></path>
<path d="M150 40h0"></path>
<rect x="50" y="29" width="100" height="22" rx="10" ry="10"></rect>
<text x="100" y="44">"TRANSFER"</text>
</g>
<path d="M150 40h10"></path>
<path d="M160 40h10"></path>
<g class="non-terminal">
<path d="M170 40h0"></path>
<path d="M238 40h0"></path>
<rect x="170" y="29" width="68" height="22"></rect>
<a xlink:href="reuse_source.svg"><text x="204" y="44">source</text>
</a>
</g>
<path d="M238 40h10"></path>
<path d="M248 40h10"></path>
<g class="terminal">
<path d="M258 40h0"></path>
<path d="M310 40h0"></path>
<rect x="258" y="29" width="52" height="22" rx="10" ry="10"></rect>
<text x="284" y="44">"TO"</text>
</g>
<path d="M310 40h10"></path>
<path d="M320 40h10"></path>
<g class="non-terminal">
<path d="M330 40h0"></path>
<path d="M398 40h0"></path>
<rect x="330" y="29" width="68" height="22"></rect>
<a xlink:href="reuse_target.svg"><text x="364" y="44">target</text>
</a>
</g>
<path d="M398 40h10"></path>
<g>
<path d="M408 40h0"></path>
<path d="M620 40h0"></path>
<path d="M408 40a10 10 0 0 0 10 -10v0a10 10 0 0 1 10 -10"></path>
<g>
<path d="M428 20h172"></path>
</g>
<path d="M600 20a10 10 0 0 1 10 10v0a10 10 0 0 0 10 10"></path>
<path d="M408 40h20"></path>
<g>
<path d="M428 40h0"></path>
<path d="M600 40h0"></path>
<g class="terminal">
<path d="M428 40h0"></path>
<path d="M512 40h0"></path>
<rect x="428" y="29" width="84" height="22" rx="10" ry="10"></rect>
<text x="470" y="44">"LENGTH"</text>
</g>
<path d="M512 40h10"></path>
<path d="M522 40h10"></path>
<g class="non-terminal">
<path d="M532 40h0"></path>
<path d="M600 40h0"></path>
<rect x="532" y="29" width="68" height="22"></rect>
<a xlink:href="reuse_source.svg"><text x="566" y="44">source</text>
</a>
</g>
</g>
<path d="M600 40h20"></path>
</g>
</g>
<path d="M620 40h10"></path>
<path d="M 630 40 h 20 m -10 -10 v 20 m 10 -20 v 20"></path>
</g>
</svg>
