<svg xmlns="http://www.w3.org/2000/svg" xmlns:xlink="http://www.w3.org/1999/xlink" class="railroad-diagram" width="602" height="122" viewBox="0 0 602 122">
<defs>
<style type="text/css"><![CDATA[
path {
stroke-width: 3;
stroke: black;
fill: rgba(0,0,0,0);
}
text {
font: bold 14px monospace;
text-anchor: middle;
}
text.diagram-text {
font-size: 12px;
}
a {
fill: blue;
}
text.diagram-arrow {
font-size: 16px;
}
text.label {
text-anchor: start;
}
text.comment {
font: italic 12px monospace;
}
rect {
stroke-width: 3;
stroke: black;
fill: #BCBCBC;
}
path.diagram-text {
stroke-width: 3;
stroke: black;
fill: #BCBCBC;
cursor: help;
}
]]></style>
</defs>
<g transform="translate(.5 .5)">
<path d="M 20 21 v 20 m 10 -20 v 20 m -10 -10 h 20.5"></path>
<path d="M40 31h10"></path>
<g>
<path d="M50 31h0"></path>
<path d="M552 31h0"></path>
<g class="terminal">
<path d="M50 31h0"></path>
<path d="M158 31h0"></path>
<rect x="50" y="20" width="108" height="22" rx="10" ry="10"></rect>
<text x="104" y="35">"TRANSLATE"</text>
</g>
<path d="M158 31h10"></path>
<path d="M168 31h10"></path>
<g class="non-terminal">
<path d="M178 31h0"></path>
<path d="M246 31h0"></path>
<rect x="178" y="20" width="68" height="22"></rect>
<a xlink:href="reuse_Target.svg"><text x="212" y="35">Target</text>
</a>
</g>
<path d="M246 31h10"></path>
<g>
<path d="M256 31h0"></path>
<path d="M552 31h0"></path>
<path d="M256 31h20"></path>
<g>
<path d="M276 31h0"></path>
<path d="M532 31h0"></path>
<g class="terminal">
<path d="M276 31h0"></path>
<path d="M328 31h0"></path>
<rect x="276" y="20" width="52" height="22" rx="10" ry="10"></rect>
<text x="302" y="35">"TO"</text>
</g>
<path d="M328 31h10"></path>
<g>
<path d="M338 31h0"></path>
<path d="M454 31h0"></path>
<path d="M338 31h20"></path>
<g class="terminal">
<path d="M358 31h0"></path>
<path d="M434 31h0"></path>
<rect x="358" y="20" width="76" height="22" rx="10" ry="10"></rect>
<text x="396" y="35">"UPPER"</text>
</g>
<path d="M434 31h20"></path>
<path d="M338 31a10 10 0 0 1 10 10v10a10 10 0 0 0 10 10"></path>
<g class="terminal">
<path d="M358 61h0"></path>
<path d="M434 61h0"></path>
<rect x="358" y="50" width="76" height="22" rx="10" ry="10"></rect>
<text x="396" y="65">"LOWER"</text>
</g>
<path d="M434 61a10 10 0 0 0 10 -10v-10a10 10 0 0 1 10 -10"></path>
</g>
<path d="M454 31h10"></path>
<g class="terminal">
<path d="M464 31h0"></path>
<path d="M532 31h0"></path>
<rect x="464" y="20" width="68" height="22" rx="10" ry="10"></rect>
<text x="498" y="35">"CASE"</text>
</g>
</g>
<path d="M532 31h20"></path>
<path d="M256 31a10 10 0 0 1 10 10v40a10 10 0 0 0 10 10"></path>
<g>
<path d="M276 91h0"></path>
<path d="M440 91h92"></path>
<g class="terminal">
<path d="M276 91h0"></path>
<path d="M352 91h0"></path>
<rect x="276" y="80" width="76" height="22" rx="10" ry="10"></rect>
<text x="314" y="95">"USING"</text>
</g>
<path d="M352 91h10"></path>
<path d="M362 91h10"></path>
<g class="non-terminal">
<path d="M372 91h0"></path>
<path d="M440 91h0"></path>
<rect x="372" y="80" width="68" height="22"></rect>
<a xlink:href="reuse_Source.svg"><text x="406" y="95">Source</text>
</a>
</g>
</g>
<path d="M532 91a10 10 0 0 0 10 -10v-40a10 10 0 0 1 10 -10"></path>
</g>
</g>
<path d="M552 31h10"></path>
<path d="M 562 31 h 20 m -10 -10 v 20 m 10 -20 v 20"></path>
</g>
</svg>
