<?xml version="1.0" encoding="UTF-8" standalone="no"?>
<!DOCTYPE svg PUBLIC "-//W3C//DTD SVG 1.1//EN"
 "http://www.w3.org/Graphics/SVG/1.1/DTD/svg11.dtd">
<!-- Generated by graphviz version 2.38.0 (20140413.2041)
 -->
<!-- Title: translate Pages: 1 -->
<svg width="314pt" height="476pt"
 viewBox="0.00 0.00 314.37 476.00" xmlns="http://www.w3.org/2000/svg" xmlns:xlink="http://www.w3.org/1999/xlink">
<g id="graph0" class="graph" transform="scale(1 1) rotate(0) translate(4 472)">
<title>translate</title>
<polygon fill="white" stroke="none" points="-4,4 -4,-472 310.374,-472 310.374,4 -4,4"/>
<!-- start -->
<g id="node1" class="node"><title>start</title>
<polygon fill="none" stroke="black" points="235.962,-468 181.962,-468 181.962,-432 235.962,-432 235.962,-468"/>
<text text-anchor="middle" x="208.962" y="-445.8" font-family="Times,serif" font-size="14.00">Start</text>
</g>
<!-- node364 -->
<g id="node10" class="node"><title>node364</title>
<ellipse fill="none" stroke="black" cx="208.962" cy="-378" rx="75.4706" ry="18"/>
<text text-anchor="middle" x="208.962" y="-373.8" font-family="Times,serif" font-size="14.00">&quot;TRANSLATE&quot;</text>
</g>
<!-- start&#45;&gt;node364 -->
<g id="edge11" class="edge"><title>start&#45;&gt;node364</title>
<path fill="none" stroke="black" d="M208.962,-431.697C208.962,-423.983 208.962,-414.712 208.962,-406.112"/>
<polygon fill="black" stroke="black" points="212.462,-406.104 208.962,-396.104 205.462,-406.104 212.462,-406.104"/>
</g>
<!-- end -->
<g id="node2" class="node"><title>end</title>
<polygon fill="none" stroke="black" points="235.962,-36 181.962,-36 181.962,-0 235.962,-0 235.962,-36"/>
<text text-anchor="middle" x="208.962" y="-13.8" font-family="Times,serif" font-size="14.00">End</text>
</g>
<!-- node357 -->
<g id="node3" class="node"><title>node357</title>
<ellipse fill="none" stroke="black" cx="159.962" cy="-90" rx="43.6881" ry="18"/>
<text text-anchor="middle" x="159.962" y="-85.8" font-family="Times,serif" font-size="14.00">&quot;CASE&quot;</text>
</g>
<!-- node357&#45;&gt;end -->
<g id="edge1" class="edge"><title>node357&#45;&gt;end</title>
<path fill="none" stroke="black" d="M171.575,-72.411C177.322,-64.2 184.393,-54.0991 190.833,-44.8996"/>
<polygon fill="black" stroke="black" points="193.882,-46.6462 196.749,-36.4468 188.148,-42.632 193.882,-46.6462"/>
</g>
<!-- node358 -->
<g id="node4" class="node"><title>node358</title>
<ellipse fill="none" stroke="black" cx="48.9622" cy="-162" rx="48.9245" ry="18"/>
<text text-anchor="middle" x="48.9622" y="-157.8" font-family="Times,serif" font-size="14.00">&quot;UPPER&quot;</text>
</g>
<!-- node358&#45;&gt;node357 -->
<g id="edge2" class="edge"><title>node358&#45;&gt;node357</title>
<path fill="none" stroke="black" d="M72.5025,-146.155C88.6518,-135.971 110.278,-122.333 127.984,-111.166"/>
<polygon fill="black" stroke="black" points="130.245,-113.878 136.837,-105.584 126.511,-107.958 130.245,-113.878"/>
</g>
<!-- node359 -->
<g id="node5" class="node"><title>node359</title>
<ellipse fill="none" stroke="black" cx="168.962" cy="-162" rx="53.4816" ry="18"/>
<text text-anchor="middle" x="168.962" y="-157.8" font-family="Times,serif" font-size="14.00">&quot;LOWER&quot;</text>
</g>
<!-- node359&#45;&gt;node357 -->
<g id="edge3" class="edge"><title>node359&#45;&gt;node357</title>
<path fill="none" stroke="black" d="M166.738,-143.697C165.746,-135.983 164.554,-126.712 163.448,-118.112"/>
<polygon fill="black" stroke="black" points="166.908,-117.576 162.161,-108.104 159.965,-118.469 166.908,-117.576"/>
</g>
<!-- node360 -->
<g id="node6" class="node"><title>node360</title>
<ellipse fill="none" stroke="black" cx="159.962" cy="-234" rx="31.5723" ry="18"/>
<text text-anchor="middle" x="159.962" y="-229.8" font-family="Times,serif" font-size="14.00">&quot;TO&quot;</text>
</g>
<!-- node360&#45;&gt;node358 -->
<g id="edge4" class="edge"><title>node360&#45;&gt;node358</title>
<path fill="none" stroke="black" d="M139.603,-220.161C123.286,-209.871 100.084,-195.239 81.2402,-183.355"/>
<polygon fill="black" stroke="black" points="82.9851,-180.318 72.6596,-177.944 79.2512,-186.239 82.9851,-180.318"/>
</g>
<!-- node360&#45;&gt;node359 -->
<g id="edge5" class="edge"><title>node360&#45;&gt;node359</title>
<path fill="none" stroke="black" d="M162.187,-215.697C163.179,-207.983 164.371,-198.712 165.476,-190.112"/>
<polygon fill="black" stroke="black" points="168.959,-190.469 166.763,-180.104 162.016,-189.576 168.959,-190.469"/>
</g>
<!-- node361 -->
<g id="node7" class="node"><title>node361</title>
<g id="a_node7"><a xlink:href="reuse_source.svg" xlink:title="&lt;u&gt;source&lt;/u&gt;">
<ellipse fill="none" stroke="black" cx="257.962" cy="-90" rx="36.4761" ry="18"/>
<text text-anchor="start" x="239.695" y="-86.8" font-family="Times,serif" text-decoration="underline" font-size="14.00" fill="blue">source</text>
</a>
</g>
</g>
<!-- node361&#45;&gt;end -->
<g id="edge6" class="edge"><title>node361&#45;&gt;end</title>
<path fill="none" stroke="black" d="M246.597,-72.7646C240.71,-64.3538 233.386,-53.8904 226.767,-44.4356"/>
<polygon fill="black" stroke="black" points="229.551,-42.3091 220.949,-36.1239 223.816,-46.3234 229.551,-42.3091"/>
</g>
<!-- node362 -->
<g id="node8" class="node"><title>node362</title>
<ellipse fill="none" stroke="black" cx="257.962" cy="-234" rx="48.3237" ry="18"/>
<text text-anchor="middle" x="257.962" y="-229.8" font-family="Times,serif" font-size="14.00">&quot;USING&quot;</text>
</g>
<!-- node362&#45;&gt;node361 -->
<g id="edge7" class="edge"><title>node362&#45;&gt;node361</title>
<path fill="none" stroke="black" d="M257.962,-215.871C257.962,-191.67 257.962,-147.211 257.962,-118.393"/>
<polygon fill="black" stroke="black" points="261.462,-118.189 257.962,-108.189 254.462,-118.189 261.462,-118.189"/>
</g>
<!-- node363 -->
<g id="node9" class="node"><title>node363</title>
<g id="a_node9"><a xlink:href="reuse_target.svg" xlink:title="&lt;u&gt;target&lt;/u&gt;">
<ellipse fill="none" stroke="black" cx="208.962" cy="-306" rx="33.0411" ry="18"/>
<text text-anchor="start" x="193.027" y="-302.8" font-family="Times,serif" text-decoration="underline" font-size="14.00" fill="blue">target</text>
</a>
</g>
</g>
<!-- node363&#45;&gt;node360 -->
<g id="edge8" class="edge"><title>node363&#45;&gt;node360</title>
<path fill="none" stroke="black" d="M197.597,-288.765C191.537,-280.106 183.953,-269.273 177.185,-259.604"/>
<polygon fill="black" stroke="black" points="179.867,-257.333 171.265,-251.147 174.133,-261.347 179.867,-257.333"/>
</g>
<!-- node363&#45;&gt;node362 -->
<g id="edge9" class="edge"><title>node363&#45;&gt;node362</title>
<path fill="none" stroke="black" d="M220.327,-288.765C226.301,-280.23 233.755,-269.582 240.449,-260.019"/>
<polygon fill="black" stroke="black" points="243.452,-261.833 246.319,-251.633 237.717,-257.819 243.452,-261.833"/>
</g>
<!-- node364&#45;&gt;node363 -->
<g id="edge10" class="edge"><title>node364&#45;&gt;node363</title>
<path fill="none" stroke="black" d="M208.962,-359.697C208.962,-351.983 208.962,-342.712 208.962,-334.112"/>
<polygon fill="black" stroke="black" points="212.462,-334.104 208.962,-324.104 205.462,-334.104 212.462,-334.104"/>
</g>
</g>
</svg>
