<?xml version="1.0" encoding="UTF-8" standalone="no"?>
<!DOCTYPE svg PUBLIC "-//W3C//DTD SVG 1.1//EN"
 "http://www.w3.org/Graphics/SVG/1.1/DTD/svg11.dtd">
<!-- Generated by graphviz version 2.38.0 (20140413.2041)
 -->
<!-- Title: try Pages: 1 -->
<svg width="84pt" height="188pt"
 viewBox="0.00 0.00 84.45 188.00" xmlns="http://www.w3.org/2000/svg" xmlns:xlink="http://www.w3.org/1999/xlink">
<g id="graph0" class="graph" transform="scale(1 1) rotate(0) translate(4 184)">
<title>try</title>
<polygon fill="white" stroke="none" points="-4,4 -4,-184 80.4513,-184 80.4513,4 -4,4"/>
<!-- start -->
<g id="node1" class="node"><title>start</title>
<polygon fill="none" stroke="black" points="65.2256,-180 11.2256,-180 11.2256,-144 65.2256,-144 65.2256,-180"/>
<text text-anchor="middle" x="38.2256" y="-157.8" font-family="Times,serif" font-size="14.00">Start</text>
</g>
<!-- node266 -->
<g id="node3" class="node"><title>node266</title>
<ellipse fill="none" stroke="black" cx="38.2256" cy="-90" rx="38.4526" ry="18"/>
<text text-anchor="middle" x="38.2256" y="-85.8" font-family="Times,serif" font-size="14.00">&quot;TRY&quot;</text>
</g>
<!-- start&#45;&gt;node266 -->
<g id="edge2" class="edge"><title>start&#45;&gt;node266</title>
<path fill="none" stroke="black" d="M38.2256,-143.697C38.2256,-135.983 38.2256,-126.712 38.2256,-118.112"/>
<polygon fill="black" stroke="black" points="41.7257,-118.104 38.2256,-108.104 34.7257,-118.104 41.7257,-118.104"/>
</g>
<!-- end -->
<g id="node2" class="node"><title>end</title>
<polygon fill="none" stroke="black" points="65.2256,-36 11.2256,-36 11.2256,-0 65.2256,-0 65.2256,-36"/>
<text text-anchor="middle" x="38.2256" y="-13.8" font-family="Times,serif" font-size="14.00">End</text>
</g>
<!-- node266&#45;&gt;end -->
<g id="edge1" class="edge"><title>node266&#45;&gt;end</title>
<path fill="none" stroke="black" d="M38.2256,-71.6966C38.2256,-63.9827 38.2256,-54.7125 38.2256,-46.1124"/>
<polygon fill="black" stroke="black" points="41.7257,-46.1043 38.2256,-36.1043 34.7257,-46.1044 41.7257,-46.1043"/>
</g>
</g>
</svg>
