<svg xmlns="http://www.w3.org/2000/svg" xmlns:xlink="http://www.w3.org/1999/xlink" class="railroad-diagram" width="728" height="101" viewBox="0 0 728 101">
<defs>
<style type="text/css"><![CDATA[
path {
stroke-width: 3;
stroke: black;
fill: rgba(0,0,0,0);
}
text {
font: bold 14px monospace;
text-anchor: middle;
}
text.diagram-text {
font-size: 12px;
}
a {
fill: blue;
}
text.diagram-arrow {
font-size: 16px;
}
text.label {
text-anchor: start;
}
text.comment {
font: italic 12px monospace;
}
rect {
stroke-width: 3;
stroke: black;
fill: #BCBCBC;
}
path.diagram-text {
stroke-width: 3;
stroke: black;
fill: #BCBCBC;
cursor: help;
}
]]></style>
</defs>
<g transform="translate(.5 .5)">
<path d="M 20 30 v 20 m 10 -20 v 20 m -10 -10 h 20.5"></path>
<path d="M40 40h10"></path>
<g>
<path d="M50 40h0"></path>
<path d="M678 40h0"></path>
<g>
<path d="M50 40h0"></path>
<path d="M166 40h0"></path>
<path d="M50 40h20"></path>
<g class="terminal">
<path d="M70 40h0"></path>
<path d="M138 40h8"></path>
<rect x="70" y="29" width="68" height="22" rx="10" ry="10"></rect>
<text x="104" y="44">"TYPE"</text>
</g>
<path d="M146 40h20"></path>
<path d="M50 40a10 10 0 0 1 10 10v10a10 10 0 0 0 10 10"></path>
<g class="terminal">
<path d="M70 70h0"></path>
<path d="M146 70h0"></path>
<rect x="70" y="59" width="76" height="22" rx="10" ry="10"></rect>
<text x="108" y="74">"TYPES"</text>
</g>
<path d="M146 70a10 10 0 0 0 10 -10v-10a10 10 0 0 1 10 -10"></path>
</g>
<path d="M166 40h10"></path>
<g>
<path d="M176 40h0"></path>
<path d="M678 40h0"></path>
<g class="non-terminal">
<path d="M176 40h0"></path>
<path d="M348 40h0"></path>
<rect x="176" y="29" width="172" height="22"></rect>
<a xlink:href="reuse_namespacesimplename.svg"><text x="262" y="44">NamespaceSimpleName</text>
</a>
</g>
<path d="M348 40h10"></path>
<g>
<path d="M358 40h0"></path>
<path d="M506 40h0"></path>
<path d="M358 40a10 10 0 0 0 10 -10v0a10 10 0 0 1 10 -10"></path>
<g>
<path d="M378 20h108"></path>
</g>
<path d="M486 20a10 10 0 0 1 10 10v0a10 10 0 0 0 10 10"></path>
<path d="M358 40h20"></path>
<g class="non-terminal">
<path d="M378 40h0"></path>
<path d="M486 40h0"></path>
<rect x="378" y="29" width="108" height="22"></rect>
<a xlink:href="reuse_fieldlength.svg"><text x="432" y="44">FieldLength</text>
</a>
</g>
<path d="M486 40h20"></path>
</g>
<g>
<path d="M506 40h0"></path>
<path d="M678 40h0"></path>
<path d="M506 40a10 10 0 0 0 10 -10v0a10 10 0 0 1 10 -10"></path>
<g>
<path d="M526 20h132"></path>
</g>
<path d="M658 20a10 10 0 0 1 10 10v0a10 10 0 0 0 10 10"></path>
<path d="M506 40h20"></path>
<g>
<path d="M526 40h0"></path>
<path d="M658 40h0"></path>
<path d="M526 40h20"></path>
<g class="non-terminal">
<path d="M546 40h0"></path>
<path d="M598 40h40"></path>
<rect x="546" y="29" width="52" height="22"></rect>
<a xlink:href="reuse_type.svg"><text x="572" y="44">Type</text>
</a>
</g>
<path d="M638 40h20"></path>
<path d="M526 40a10 10 0 0 1 10 10v10a10 10 0 0 0 10 10"></path>
<g class="non-terminal">
<path d="M546 70h0"></path>
<path d="M638 70h0"></path>
<rect x="546" y="59" width="92" height="22"></rect>
<a xlink:href="reuse_typetable.svg"><text x="592" y="74">TypeTable</text>
</a>
</g>
<path d="M638 70a10 10 0 0 0 10 -10v-10a10 10 0 0 1 10 -10"></path>
</g>
<path d="M658 40h20"></path>
</g>
</g>
</g>
<path d="M678 40h10"></path>
<path d="M 688 40 h 20 m -10 -10 v 20 m 10 -20 v 20"></path>
</g>
</svg>
