<svg xmlns="http://www.w3.org/2000/svg" xmlns:xlink="http://www.w3.org/1999/xlink" class="railroad-diagram" width="430" height="92" viewBox="0 0 430 92">
<defs>
<style type="text/css"><![CDATA[
path {
stroke-width: 3;
stroke: black;
fill: rgba(0,0,0,0);
}
text {
font: bold 14px monospace;
text-anchor: middle;
}
text.diagram-text {
font-size: 12px;
}
a {
fill: blue;
}
text.diagram-arrow {
font-size: 16px;
}
text.label {
text-anchor: start;
}
text.comment {
font: italic 12px monospace;
}
rect {
stroke-width: 3;
stroke: black;
fill: #BCBCBC;
}
path.diagram-text {
stroke-width: 3;
stroke: black;
fill: #BCBCBC;
cursor: help;
}
]]></style>
</defs>
<g transform="translate(.5 .5)">
<path d="M 20 21 v 20 m 10 -20 v 20 m -10 -10 h 20.5"></path>
<path d="M40 31h10"></path>
<g>
<path d="M50 31h0"></path>
<path d="M380 31h0"></path>
<g>
<path d="M50 31h0"></path>
<path d="M166 31h0"></path>
<path d="M50 31h20"></path>
<g class="terminal">
<path d="M70 31h0"></path>
<path d="M138 31h8"></path>
<rect x="70" y="20" width="68" height="22" rx="10" ry="10"></rect>
<text x="104" y="35">"TYPE"</text>
</g>
<path d="M146 31h20"></path>
<path d="M50 31a10 10 0 0 1 10 10v10a10 10 0 0 0 10 10"></path>
<g class="terminal">
<path d="M70 61h0"></path>
<path d="M146 61h0"></path>
<rect x="70" y="50" width="76" height="22" rx="10" ry="10"></rect>
<text x="108" y="65">"TYPES"</text>
</g>
<path d="M146 61a10 10 0 0 0 10 -10v-10a10 10 0 0 1 10 -10"></path>
</g>
<path d="M166 31h10"></path>
<g>
<path d="M176 31h0"></path>
<path d="M380 31h0"></path>
<g class="terminal">
<path d="M176 31h0"></path>
<path d="M260 31h0"></path>
<rect x="176" y="20" width="84" height="22" rx="10" ry="10"></rect>
<text x="218" y="35">"END OF"</text>
</g>
<path d="M260 31h10"></path>
<path d="M270 31h10"></path>
<g class="non-terminal">
<path d="M280 31h0"></path>
<path d="M380 31h0"></path>
<rect x="280" y="20" width="100" height="22"></rect>
<a xlink:href="reuse_simplename.svg"><text x="330" y="35">SimpleName</text>
</a>
</g>
</g>
</g>
<path d="M380 31h10"></path>
<path d="M 390 31 h 20 m -10 -10 v 20 m 10 -20 v 20"></path>
</g>
</svg>
