<svg xmlns="http://www.w3.org/2000/svg" xmlns:xlink="http://www.w3.org/1999/xlink" class="railroad-diagram" width="622" height="161" viewBox="0 0 622 161">
<defs>
<style type="text/css"><![CDATA[
path {
stroke-width: 3;
stroke: black;
fill: rgba(0,0,0,0);
}
text {
font: bold 14px monospace;
text-anchor: middle;
}
text.diagram-text {
font-size: 12px;
}
a {
fill: blue;
}
text.diagram-arrow {
font-size: 16px;
}
text.label {
text-anchor: start;
}
text.comment {
font: italic 12px monospace;
}
rect {
stroke-width: 3;
stroke: black;
fill: #BCBCBC;
}
path.diagram-text {
stroke-width: 3;
stroke: black;
fill: #BCBCBC;
cursor: help;
}
]]></style>
</defs>
<g transform="translate(.5 .5)">
<path d="M 20 30 v 20 m 10 -20 v 20 m -10 -10 h 20.5"></path>
<path d="M40 40h10"></path>
<g>
<path d="M50 40h0"></path>
<path d="M572 40h0"></path>
<g>
<path d="M50 40h0"></path>
<path d="M166 40h0"></path>
<path d="M50 40h20"></path>
<g class="terminal">
<path d="M70 40h4"></path>
<path d="M142 40h4"></path>
<rect x="74" y="29" width="68" height="22" rx="10" ry="10"></rect>
<text x="108" y="44">"TYPE"</text>
</g>
<path d="M146 40h20"></path>
<path d="M50 40a10 10 0 0 1 10 10v10a10 10 0 0 0 10 10"></path>
<g class="terminal">
<path d="M70 70h0"></path>
<path d="M146 70h0"></path>
<rect x="70" y="59" width="76" height="22" rx="10" ry="10"></rect>
<text x="108" y="74">"TYPES"</text>
</g>
<path d="M146 70a10 10 0 0 0 10 -10v-10a10 10 0 0 1 10 -10"></path>
</g>
<g>
<path d="M166 40h0"></path>
<path d="M572 40h0"></path>
<path d="M166 40h20"></path>
<g>
<path d="M186 40h0"></path>
<path d="M552 40h0"></path>
<g class="terminal">
<path d="M186 40h0"></path>
<path d="M246 40h0"></path>
<rect x="186" y="29" width="60" height="22" rx="10" ry="10"></rect>
<text x="216" y="44">^\w+$</text>
</g>
<path d="M246 40h10"></path>
<g>
<path d="M256 40h0"></path>
<path d="M412 40h0"></path>
<path d="M256 40a10 10 0 0 0 10 -10v0a10 10 0 0 1 10 -10"></path>
<g>
<path d="M276 20h116"></path>
</g>
<path d="M392 20a10 10 0 0 1 10 10v0a10 10 0 0 0 10 10"></path>
<path d="M256 40h20"></path>
<g class="non-terminal">
<path d="M276 40h0"></path>
<path d="M392 40h0"></path>
<rect x="276" y="29" width="116" height="22"></rect>
<a xlink:href="reuse_field_length.svg"><text x="334" y="44">field&#95;length</text>
</a>
</g>
<path d="M392 40h20"></path>
</g>
<g>
<path d="M412 40h0"></path>
<path d="M552 40h0"></path>
<path d="M412 40h20"></path>
<g class="non-terminal">
<path d="M432 40h24"></path>
<path d="M508 40h24"></path>
<rect x="456" y="29" width="52" height="22"></rect>
<a xlink:href="reuse_type.svg"><text x="482" y="44">type</text>
</a>
</g>
<path d="M532 40h20"></path>
<path d="M412 40a10 10 0 0 1 10 10v10a10 10 0 0 0 10 10"></path>
<g class="non-terminal">
<path d="M432 70h0"></path>
<path d="M532 70h0"></path>
<rect x="432" y="59" width="100" height="22"></rect>
<a xlink:href="reuse_type_table.svg"><text x="482" y="74">type&#95;table</text>
</a>
</g>
<path d="M532 70a10 10 0 0 0 10 -10v-10a10 10 0 0 1 10 -10"></path>
</g>
</g>
<path d="M552 40h20"></path>
<path d="M166 40a10 10 0 0 1 10 10v40a10 10 0 0 0 10 10"></path>
<g>
<path d="M186 100h78"></path>
<path d="M474 100h78"></path>
<g>
<path d="M264 100h0"></path>
<path d="M404 100h0"></path>
<path d="M264 100h20"></path>
<g class="terminal">
<path d="M284 100h0"></path>
<path d="M384 100h0"></path>
<rect x="284" y="89" width="100" height="22" rx="10" ry="10"></rect>
<text x="334" y="104">"BEGIN OF"</text>
</g>
<path d="M384 100h20"></path>
<path d="M264 100a10 10 0 0 1 10 10v10a10 10 0 0 0 10 10"></path>
<g class="terminal">
<path d="M284 130h8"></path>
<path d="M376 130h8"></path>
<rect x="292" y="119" width="84" height="22" rx="10" ry="10"></rect>
<text x="334" y="134">"END OF"</text>
</g>
<path d="M384 130a10 10 0 0 0 10 -10v-10a10 10 0 0 1 10 -10"></path>
</g>
<path d="M404 100h10"></path>
<g class="terminal">
<path d="M414 100h0"></path>
<path d="M474 100h0"></path>
<rect x="414" y="89" width="60" height="22" rx="10" ry="10"></rect>
<text x="444" y="104">^\w+$</text>
</g>
</g>
<path d="M552 100a10 10 0 0 0 10 -10v-40a10 10 0 0 1 10 -10"></path>
</g>
</g>
<path d="M572 40h10"></path>
<path d="M 582 40 h 20 m -10 -10 v 20 m 10 -20 v 20"></path>
</g>
</svg>
