<svg xmlns="http://www.w3.org/2000/svg" xmlns:xlink="http://www.w3.org/1999/xlink" class="railroad-diagram" width="630" height="161" viewBox="0 0 630 161">
<defs>
<style type="text/css"><![CDATA[
path {
stroke-width: 3;
stroke: black;
fill: rgba(0,0,0,0);
}
text {
font: bold 14px monospace;
text-anchor: middle;
}
text.diagram-text {
font-size: 12px;
}
a {
fill: blue;
}
text.diagram-arrow {
font-size: 16px;
}
text.label {
text-anchor: start;
}
text.comment {
font: italic 12px monospace;
}
rect {
stroke-width: 3;
stroke: black;
fill: #BCBCBC;
}
path.diagram-text {
stroke-width: 3;
stroke: black;
fill: #BCBCBC;
cursor: help;
}
]]></style>
</defs>
<g transform="translate(.5 .5)">
<path d="M 20 30 v 20 m 10 -20 v 20 m -10 -10 h 20.5"></path>
<path d="M40 40h10"></path>
<g>
<path d="M50 40h0"></path>
<path d="M580 40h0"></path>
<g>
<path d="M50 40h0"></path>
<path d="M166 40h0"></path>
<path d="M50 40h20"></path>
<g class="terminal">
<path d="M70 40h0"></path>
<path d="M138 40h8"></path>
<rect x="70" y="29" width="68" height="22" rx="10" ry="10"></rect>
<text x="104" y="44">"TYPE"</text>
</g>
<path d="M146 40h20"></path>
<path d="M50 40a10 10 0 0 1 10 10v10a10 10 0 0 0 10 10"></path>
<g class="terminal">
<path d="M70 70h0"></path>
<path d="M146 70h0"></path>
<rect x="70" y="59" width="76" height="22" rx="10" ry="10"></rect>
<text x="108" y="74">"TYPES"</text>
</g>
<path d="M146 70a10 10 0 0 0 10 -10v-10a10 10 0 0 1 10 -10"></path>
</g>
<g>
<path d="M166 40h0"></path>
<path d="M580 40h0"></path>
<path d="M166 40h20"></path>
<g>
<path d="M186 40h0"></path>
<path d="M560 40h0"></path>
<g class="non-terminal">
<path d="M186 40h0"></path>
<path d="M270 40h0"></path>
<rect x="186" y="29" width="84" height="22"></rect>
<a xlink:href="reuse_typename.svg"><text x="228" y="44">TypeName</text>
</a>
</g>
<path d="M270 40h10"></path>
<g>
<path d="M280 40h0"></path>
<path d="M428 40h0"></path>
<path d="M280 40a10 10 0 0 0 10 -10v0a10 10 0 0 1 10 -10"></path>
<g>
<path d="M300 20h108"></path>
</g>
<path d="M408 20a10 10 0 0 1 10 10v0a10 10 0 0 0 10 10"></path>
<path d="M280 40h20"></path>
<g class="non-terminal">
<path d="M300 40h0"></path>
<path d="M408 40h0"></path>
<rect x="300" y="29" width="108" height="22"></rect>
<a xlink:href="reuse_fieldlength.svg"><text x="354" y="44">FieldLength</text>
</a>
</g>
<path d="M408 40h20"></path>
</g>
<g>
<path d="M428 40h0"></path>
<path d="M560 40h0"></path>
<path d="M428 40h20"></path>
<g class="non-terminal">
<path d="M448 40h0"></path>
<path d="M500 40h40"></path>
<rect x="448" y="29" width="52" height="22"></rect>
<a xlink:href="reuse_type.svg"><text x="474" y="44">Type</text>
</a>
</g>
<path d="M540 40h20"></path>
<path d="M428 40a10 10 0 0 1 10 10v10a10 10 0 0 0 10 10"></path>
<g class="non-terminal">
<path d="M448 70h0"></path>
<path d="M540 70h0"></path>
<rect x="448" y="59" width="92" height="22"></rect>
<a xlink:href="reuse_typetable.svg"><text x="494" y="74">TypeTable</text>
</a>
</g>
<path d="M540 70a10 10 0 0 0 10 -10v-10a10 10 0 0 1 10 -10"></path>
</g>
</g>
<path d="M560 40h20"></path>
<path d="M166 40a10 10 0 0 1 10 10v40a10 10 0 0 0 10 10"></path>
<g>
<path d="M186 100h0"></path>
<path d="M420 100h140"></path>
<g>
<path d="M186 100h0"></path>
<path d="M326 100h0"></path>
<path d="M186 100h20"></path>
<g class="terminal">
<path d="M206 100h0"></path>
<path d="M306 100h0"></path>
<rect x="206" y="89" width="100" height="22" rx="10" ry="10"></rect>
<text x="256" y="104">"BEGIN OF"</text>
</g>
<path d="M306 100h20"></path>
<path d="M186 100a10 10 0 0 1 10 10v10a10 10 0 0 0 10 10"></path>
<g class="terminal">
<path d="M206 130h0"></path>
<path d="M290 130h16"></path>
<rect x="206" y="119" width="84" height="22" rx="10" ry="10"></rect>
<text x="248" y="134">"END OF"</text>
</g>
<path d="M306 130a10 10 0 0 0 10 -10v-10a10 10 0 0 1 10 -10"></path>
</g>
<path d="M326 100h10"></path>
<g class="non-terminal">
<path d="M336 100h0"></path>
<path d="M420 100h0"></path>
<rect x="336" y="89" width="84" height="22"></rect>
<a xlink:href="reuse_typename.svg"><text x="378" y="104">TypeName</text>
</a>
</g>
</g>
<path d="M560 100a10 10 0 0 0 10 -10v-40a10 10 0 0 1 10 -10"></path>
</g>
</g>
<path d="M580 40h10"></path>
<path d="M 590 40 h 20 m -10 -10 v 20 m 10 -20 v 20"></path>
</g>
</svg>
