<svg xmlns="http://www.w3.org/2000/svg" xmlns:xlink="http://www.w3.org/1999/xlink" class="railroad-diagram" width="688" height="109" viewBox="0 0 688 109">
<defs>
<style type="text/css"><![CDATA[
path {
stroke-width: 3;
stroke: black;
fill: rgba(0,0,0,0);
}
text {
font: bold 14px monospace;
text-anchor: middle;
}
text.diagram-text {
font-size: 12px;
}
a {
fill: blue;
}
text.diagram-arrow {
font-size: 16px;
}
text.label {
text-anchor: start;
}
text.comment {
font: italic 12px monospace;
}
rect {
stroke-width: 3;
stroke: black;
fill: #BCBCBC;
}
path.diagram-text {
stroke-width: 3;
stroke: black;
fill: #BCBCBC;
cursor: help;
}
]]></style>
</defs>
<g transform="translate(.5 .5)">
<path d="M 20 38 v 20 m 10 -20 v 20 m -10 -10 h 20.5"></path>
<path d="M40 48h10"></path>
<g>
<path d="M50 48h0"></path>
<path d="M638 48h0"></path>
<g class="terminal">
<path d="M50 48h0"></path>
<path d="M126 48h0"></path>
<rect x="50" y="37" width="76" height="22" rx="10" ry="10"></rect>
<text x="88" y="52">"ULINE"</text>
</g>
<path d="M126 48h10"></path>
<g>
<path d="M136 48h0"></path>
<path d="M228 48h0"></path>
<path d="M136 48a10 10 0 0 0 10 -10v0a10 10 0 0 1 10 -10"></path>
<g>
<path d="M156 28h52"></path>
</g>
<path d="M208 28a10 10 0 0 1 10 10v0a10 10 0 0 0 10 10"></path>
<path d="M136 48h20"></path>
<g class="terminal">
<path d="M156 48h0"></path>
<path d="M208 48h0"></path>
<rect x="156" y="37" width="52" height="22" rx="10" ry="10"></rect>
<text x="182" y="52">"AT"</text>
</g>
<path d="M208 48h20"></path>
</g>
<g>
<path d="M228 48h0"></path>
<path d="M638 48h0"></path>
<path d="M228 48a10 10 0 0 0 10 -10v-8a10 10 0 0 1 10 -10"></path>
<g>
<path d="M248 20h370"></path>
</g>
<path d="M618 20a10 10 0 0 1 10 10v8a10 10 0 0 0 10 10"></path>
<path d="M228 48h20"></path>
<g>
<path d="M248 48h0"></path>
<path d="M618 48h0"></path>
<path d="M248 48h20"></path>
<g>
<path d="M268 48h0"></path>
<path d="M598 48h0"></path>
<g class="terminal">
<path d="M268 48h0"></path>
<path d="M344 48h0"></path>
<rect x="268" y="37" width="76" height="22" rx="10" ry="10"></rect>
<text x="306" y="52">^\/\d?$</text>
</g>
<path d="M344 48h10"></path>
<g>
<path d="M354 48h0"></path>
<path d="M598 48h0"></path>
<path d="M354 48a10 10 0 0 0 10 -10v0a10 10 0 0 1 10 -10"></path>
<g>
<path d="M374 28h204"></path>
</g>
<path d="M578 28a10 10 0 0 1 10 10v0a10 10 0 0 0 10 10"></path>
<path d="M354 48h20"></path>
<g>
<path d="M374 48h0"></path>
<path d="M578 48h0"></path>
<g class="terminal">
<path d="M374 48h0"></path>
<path d="M426 48h0"></path>
<rect x="374" y="37" width="52" height="22" rx="10" ry="10"></rect>
<text x="400" y="52">!"("</text>
</g>
<path d="M426 48h10"></path>
<path d="M436 48h10"></path>
<g class="terminal">
<path d="M446 48h0"></path>
<path d="M506 48h0"></path>
<rect x="446" y="37" width="60" height="22" rx="10" ry="10"></rect>
<text x="476" y="52">^\d+$</text>
</g>
<path d="M506 48h10"></path>
<path d="M516 48h10"></path>
<g class="terminal">
<path d="M526 48h0"></path>
<path d="M578 48h0"></path>
<rect x="526" y="37" width="52" height="22" rx="10" ry="10"></rect>
<text x="552" y="52">!")"</text>
</g>
</g>
<path d="M578 48h20"></path>
</g>
</g>
<path d="M598 48h20"></path>
<path d="M248 48a10 10 0 0 1 10 10v10a10 10 0 0 0 10 10"></path>
<g>
<path d="M268 78h0"></path>
<path d="M480 78h118"></path>
<g class="terminal">
<path d="M268 78h0"></path>
<path d="M328 78h0"></path>
<rect x="268" y="67" width="60" height="22" rx="10" ry="10"></rect>
<text x="298" y="82">!" ("</text>
</g>
<path d="M328 78h10"></path>
<path d="M338 78h10"></path>
<g class="terminal">
<path d="M348 78h0"></path>
<path d="M408 78h0"></path>
<rect x="348" y="67" width="60" height="22" rx="10" ry="10"></rect>
<text x="378" y="82">^\d+$</text>
</g>
<path d="M408 78h10"></path>
<path d="M418 78h10"></path>
<g class="terminal">
<path d="M428 78h0"></path>
<path d="M480 78h0"></path>
<rect x="428" y="67" width="52" height="22" rx="10" ry="10"></rect>
<text x="454" y="82">!")"</text>
</g>
</g>
<path d="M598 78a10 10 0 0 0 10 -10v-10a10 10 0 0 1 10 -10"></path>
</g>
<path d="M618 48h20"></path>
</g>
</g>
<path d="M638 48h10"></path>
<path d="M 648 48 h 20 m -10 -10 v 20 m 10 -20 v 20"></path>
</g>
</svg>
