<svg xmlns="http://www.w3.org/2000/svg" xmlns:xlink="http://www.w3.org/1999/xlink" class="railroad-diagram" width="524" height="79" viewBox="0 0 524 79">
<defs>
<style type="text/css"><![CDATA[
path {
stroke-width: 3;
stroke: black;
fill: rgba(0,0,0,0);
}
text {
font: bold 14px monospace;
text-anchor: middle;
}
text.diagram-text {
font-size: 12px;
}
a {
fill: blue;
}
text.diagram-arrow {
font-size: 16px;
}
text.label {
text-anchor: start;
}
text.comment {
font: italic 12px monospace;
}
rect {
stroke-width: 3;
stroke: black;
fill: #BCBCBC;
}
path.diagram-text {
stroke-width: 3;
stroke: black;
fill: #BCBCBC;
cursor: help;
}
]]></style>
</defs>
<g transform="translate(.5 .5)">
<path d="M 20 38 v 20 m 10 -20 v 20 m -10 -10 h 20.5"></path>
<path d="M40 48h10"></path>
<g>
<path d="M50 48h0"></path>
<path d="M474 48h0"></path>
<g class="terminal">
<path d="M50 48h0"></path>
<path d="M126 48h0"></path>
<rect x="50" y="37" width="76" height="22" rx="10" ry="10"></rect>
<text x="88" y="52">"ULINE"</text>
</g>
<path d="M126 48h10"></path>
<g>
<path d="M136 48h0"></path>
<path d="M474 48h0"></path>
<path d="M136 48a10 10 0 0 0 10 -10v-8a10 10 0 0 1 10 -10"></path>
<g>
<path d="M156 20h298"></path>
</g>
<path d="M454 20a10 10 0 0 1 10 10v8a10 10 0 0 0 10 10"></path>
<path d="M136 48h20"></path>
<g>
<path d="M156 48h0"></path>
<path d="M454 48h0"></path>
<g class="terminal">
<path d="M156 48h0"></path>
<path d="M200 48h0"></path>
<rect x="156" y="37" width="44" height="22" rx="10" ry="10"></rect>
<text x="178" y="52">"/"</text>
</g>
<path d="M200 48h10"></path>
<g>
<path d="M210 48h0"></path>
<path d="M454 48h0"></path>
<path d="M210 48a10 10 0 0 0 10 -10v0a10 10 0 0 1 10 -10"></path>
<g>
<path d="M230 28h204"></path>
</g>
<path d="M434 28a10 10 0 0 1 10 10v0a10 10 0 0 0 10 10"></path>
<path d="M210 48h20"></path>
<g>
<path d="M230 48h0"></path>
<path d="M434 48h0"></path>
<g class="terminal">
<path d="M230 48h0"></path>
<path d="M282 48h0"></path>
<rect x="230" y="37" width="52" height="22" rx="10" ry="10"></rect>
<text x="256" y="52">!"("</text>
</g>
<path d="M282 48h10"></path>
<path d="M292 48h10"></path>
<g class="terminal">
<path d="M302 48h0"></path>
<path d="M362 48h0"></path>
<rect x="302" y="37" width="60" height="22" rx="10" ry="10"></rect>
<text x="332" y="52">^\d+$</text>
</g>
<path d="M362 48h10"></path>
<path d="M372 48h10"></path>
<g class="terminal">
<path d="M382 48h0"></path>
<path d="M434 48h0"></path>
<rect x="382" y="37" width="52" height="22" rx="10" ry="10"></rect>
<text x="408" y="52">!")"</text>
</g>
</g>
<path d="M434 48h20"></path>
</g>
</g>
<path d="M454 48h20"></path>
</g>
</g>
<path d="M474 48h10"></path>
<path d="M 484 48 h 20 m -10 -10 v 20 m 10 -20 v 20"></path>
</g>
</svg>
