<svg xmlns="http://www.w3.org/2000/svg" xmlns:xlink="http://www.w3.org/1999/xlink" class="railroad-diagram" width="814" height="199" viewBox="0 0 814 199">
<defs>
<style type="text/css"><![CDATA[
path {
stroke-width: 3;
stroke: black;
fill: rgba(0,0,0,0);
}
text {
font: bold 14px monospace;
text-anchor: middle;
}
text.diagram-text {
font-size: 12px;
}
a {
fill: blue;
}
text.diagram-arrow {
font-size: 16px;
}
text.label {
text-anchor: start;
}
text.comment {
font: italic 12px monospace;
}
rect {
stroke-width: 3;
stroke: black;
fill: #BCBCBC;
}
path.diagram-text {
stroke-width: 3;
stroke: black;
fill: #BCBCBC;
cursor: help;
}
]]></style>
</defs>
<g transform="translate(.5 .5)">
<path d="M 20 38 v 20 m 10 -20 v 20 m -10 -10 h 20.5"></path>
<path d="M40 48h10"></path>
<g>
<path d="M50 48h0"></path>
<path d="M764 48h0"></path>
<g class="terminal">
<path d="M50 48h0"></path>
<path d="M126 48h0"></path>
<rect x="50" y="37" width="76" height="22" rx="10" ry="10"></rect>
<text x="88" y="52">"ULINE"</text>
</g>
<path d="M126 48h10"></path>
<g>
<path d="M136 48h0"></path>
<path d="M228 48h0"></path>
<path d="M136 48a10 10 0 0 0 10 -10v0a10 10 0 0 1 10 -10"></path>
<g>
<path d="M156 28h52"></path>
</g>
<path d="M208 28a10 10 0 0 1 10 10v0a10 10 0 0 0 10 10"></path>
<path d="M136 48h20"></path>
<g class="terminal">
<path d="M156 48h0"></path>
<path d="M208 48h0"></path>
<rect x="156" y="37" width="52" height="22" rx="10" ry="10"></rect>
<text x="182" y="52">"AT"</text>
</g>
<path d="M208 48h20"></path>
</g>
<g>
<path d="M228 48h0"></path>
<path d="M764 48h0"></path>
<path d="M228 48a10 10 0 0 0 10 -10v-8a10 10 0 0 1 10 -10"></path>
<g>
<path d="M248 20h496"></path>
</g>
<path d="M744 20a10 10 0 0 1 10 10v8a10 10 0 0 0 10 10"></path>
<path d="M228 48h20"></path>
<g>
<path d="M248 48h0"></path>
<path d="M744 48h0"></path>
<path d="M248 48h20"></path>
<g>
<path d="M268 48h0"></path>
<path d="M724 48h0"></path>
<path d="M268 48h20"></path>
<g>
<path d="M288 48h0"></path>
<path d="M704 48h0"></path>
<g class="terminal">
<path d="M288 48h0"></path>
<path d="M412 48h0"></path>
<rect x="288" y="37" width="124" height="22" rx="10" ry="10"></rect>
<text x="350" y="52">^(\/\d&#42;|\d+)$</text>
</g>
<path d="M412 48h10"></path>
<g>
<path d="M422 48h0"></path>
<path d="M704 48h0"></path>
<path d="M422 48a10 10 0 0 0 10 -10v0a10 10 0 0 1 10 -10"></path>
<g>
<path d="M442 28h242"></path>
</g>
<path d="M684 28a10 10 0 0 1 10 10v0a10 10 0 0 0 10 10"></path>
<path d="M422 48h20"></path>
<g>
<path d="M442 48h0"></path>
<path d="M684 48h0"></path>
<g class="terminal">
<path d="M442 48h0"></path>
<path d="M494 48h0"></path>
<rect x="442" y="37" width="52" height="22" rx="10" ry="10"></rect>
<text x="468" y="52">!"("</text>
</g>
<path d="M494 48h10"></path>
<path d="M504 48h10"></path>
<g class="terminal">
<path d="M514 48h0"></path>
<path d="M574 48h0"></path>
<rect x="514" y="37" width="60" height="22" rx="10" ry="10"></rect>
<text x="544" y="52">^\d+$</text>
</g>
<path d="M574 48h10"></path>
<g>
<path d="M584 48h0"></path>
<path d="M684 48h0"></path>
<path d="M584 48h20"></path>
<g class="terminal">
<path d="M604 48h0"></path>
<path d="M656 48h8"></path>
<rect x="604" y="37" width="52" height="22" rx="10" ry="10"></rect>
<text x="630" y="52">!")"</text>
</g>
<path d="M664 48h20"></path>
<path d="M584 48a10 10 0 0 1 10 10v10a10 10 0 0 0 10 10"></path>
<g class="terminal">
<path d="M604 78h0"></path>
<path d="M664 78h0"></path>
<rect x="604" y="67" width="60" height="22" rx="10" ry="10"></rect>
<text x="634" y="82">!") "</text>
</g>
<path d="M664 78a10 10 0 0 0 10 -10v-10a10 10 0 0 1 10 -10"></path>
</g>
</g>
<path d="M684 48h20"></path>
</g>
</g>
<path d="M704 48h20"></path>
<path d="M268 48a10 10 0 0 1 10 10v40a10 10 0 0 0 10 10"></path>
<g>
<path d="M288 108h0"></path>
<path d="M538 108h166"></path>
<g class="terminal">
<path d="M288 108h0"></path>
<path d="M348 108h0"></path>
<rect x="288" y="97" width="60" height="22" rx="10" ry="10"></rect>
<text x="318" y="112">!" ("</text>
</g>
<path d="M348 108h10"></path>
<path d="M358 108h10"></path>
<g class="terminal">
<path d="M368 108h0"></path>
<path d="M428 108h0"></path>
<rect x="368" y="97" width="60" height="22" rx="10" ry="10"></rect>
<text x="398" y="112">^\d+$</text>
</g>
<path d="M428 108h10"></path>
<g>
<path d="M438 108h0"></path>
<path d="M538 108h0"></path>
<path d="M438 108h20"></path>
<g class="terminal">
<path d="M458 108h0"></path>
<path d="M510 108h8"></path>
<rect x="458" y="97" width="52" height="22" rx="10" ry="10"></rect>
<text x="484" y="112">!")"</text>
</g>
<path d="M518 108h20"></path>
<path d="M438 108a10 10 0 0 1 10 10v10a10 10 0 0 0 10 10"></path>
<g class="terminal">
<path d="M458 138h0"></path>
<path d="M518 138h0"></path>
<rect x="458" y="127" width="60" height="22" rx="10" ry="10"></rect>
<text x="488" y="142">!") "</text>
</g>
<path d="M518 138a10 10 0 0 0 10 -10v-10a10 10 0 0 1 10 -10"></path>
</g>
</g>
<path d="M704 108a10 10 0 0 0 10 -10v-40a10 10 0 0 1 10 -10"></path>
</g>
<path d="M724 48h20"></path>
<path d="M248 48a10 10 0 0 1 10 10v100a10 10 0 0 0 10 10"></path>
<g class="non-terminal">
<path d="M268 168h0"></path>
<path d="M344 168h380"></path>
<rect x="268" y="157" width="76" height="22"></rect>
<a xlink:href="reuse_dynamic.svg"><text x="306" y="172">Dynamic</text>
</a>
</g>
<path d="M724 168a10 10 0 0 0 10 -10v-100a10 10 0 0 1 10 -10"></path>
</g>
<path d="M744 48h20"></path>
</g>
</g>
<path d="M764 48h10"></path>
<path d="M 774 48 h 20 m -10 -10 v 20 m 10 -20 v 20"></path>
</g>
</svg>
