<svg xmlns="http://www.w3.org/2000/svg" xmlns:xlink="http://www.w3.org/1999/xlink" class="railroad-diagram" width="806" height="199" viewBox="0 0 806 199">
<defs>
<style type="text/css"><![CDATA[
path {
stroke-width: 3;
stroke: black;
fill: rgba(0,0,0,0);
}
text {
font: bold 14px monospace;
text-anchor: middle;
}
text.diagram-text {
font-size: 12px;
}
a {
fill: blue;
}
text.diagram-arrow {
font-size: 16px;
}
text.label {
text-anchor: start;
}
text.comment {
font: italic 12px monospace;
}
rect {
stroke-width: 3;
stroke: black;
fill: #BCBCBC;
}
path.diagram-text {
stroke-width: 3;
stroke: black;
fill: #BCBCBC;
cursor: help;
}
]]></style>
</defs>
<g transform="translate(.5 .5)">
<path d="M 20 38 v 20 m 10 -20 v 20 m -10 -10 h 20.5"></path>
<path d="M40 48h10"></path>
<g>
<path d="M50 48h0"></path>
<path d="M756 48h0"></path>
<g class="terminal">
<path d="M50 48h0"></path>
<path d="M126 48h0"></path>
<rect x="50" y="37" width="76" height="22" rx="10" ry="10"></rect>
<text x="88" y="52">"ULINE"</text>
</g>
<path d="M126 48h10"></path>
<g>
<path d="M136 48h0"></path>
<path d="M228 48h0"></path>
<path d="M136 48a10 10 0 0 0 10 -10v0a10 10 0 0 1 10 -10"></path>
<g>
<path d="M156 28h52"></path>
</g>
<path d="M208 28a10 10 0 0 1 10 10v0a10 10 0 0 0 10 10"></path>
<path d="M136 48h20"></path>
<g class="terminal">
<path d="M156 48h0"></path>
<path d="M208 48h0"></path>
<rect x="156" y="37" width="52" height="22" rx="10" ry="10"></rect>
<text x="182" y="52">"AT"</text>
</g>
<path d="M208 48h20"></path>
</g>
<g>
<path d="M228 48h0"></path>
<path d="M756 48h0"></path>
<path d="M228 48a10 10 0 0 0 10 -10v-8a10 10 0 0 1 10 -10"></path>
<g>
<path d="M248 20h488"></path>
</g>
<path d="M736 20a10 10 0 0 1 10 10v8a10 10 0 0 0 10 10"></path>
<path d="M228 48h20"></path>
<g>
<path d="M248 48h0"></path>
<path d="M736 48h0"></path>
<path d="M248 48h20"></path>
<g>
<path d="M268 48h0"></path>
<path d="M716 48h0"></path>
<path d="M268 48h20"></path>
<g>
<path d="M288 48h0"></path>
<path d="M696 48h0"></path>
<g class="terminal">
<path d="M288 48h0"></path>
<path d="M404 48h0"></path>
<rect x="288" y="37" width="116" height="22" rx="10" ry="10"></rect>
<text x="346" y="52">^(\/\d?|\d)$</text>
</g>
<path d="M404 48h10"></path>
<g>
<path d="M414 48h0"></path>
<path d="M696 48h0"></path>
<path d="M414 48a10 10 0 0 0 10 -10v0a10 10 0 0 1 10 -10"></path>
<g>
<path d="M434 28h242"></path>
</g>
<path d="M676 28a10 10 0 0 1 10 10v0a10 10 0 0 0 10 10"></path>
<path d="M414 48h20"></path>
<g>
<path d="M434 48h0"></path>
<path d="M676 48h0"></path>
<g class="terminal">
<path d="M434 48h0"></path>
<path d="M486 48h0"></path>
<rect x="434" y="37" width="52" height="22" rx="10" ry="10"></rect>
<text x="460" y="52">!"("</text>
</g>
<path d="M486 48h10"></path>
<path d="M496 48h10"></path>
<g class="terminal">
<path d="M506 48h0"></path>
<path d="M566 48h0"></path>
<rect x="506" y="37" width="60" height="22" rx="10" ry="10"></rect>
<text x="536" y="52">^\d+$</text>
</g>
<path d="M566 48h10"></path>
<g>
<path d="M576 48h0"></path>
<path d="M676 48h0"></path>
<path d="M576 48h20"></path>
<g class="terminal">
<path d="M596 48h0"></path>
<path d="M648 48h8"></path>
<rect x="596" y="37" width="52" height="22" rx="10" ry="10"></rect>
<text x="622" y="52">!")"</text>
</g>
<path d="M656 48h20"></path>
<path d="M576 48a10 10 0 0 1 10 10v10a10 10 0 0 0 10 10"></path>
<g class="terminal">
<path d="M596 78h0"></path>
<path d="M656 78h0"></path>
<rect x="596" y="67" width="60" height="22" rx="10" ry="10"></rect>
<text x="626" y="82">!") "</text>
</g>
<path d="M656 78a10 10 0 0 0 10 -10v-10a10 10 0 0 1 10 -10"></path>
</g>
</g>
<path d="M676 48h20"></path>
</g>
</g>
<path d="M696 48h20"></path>
<path d="M268 48a10 10 0 0 1 10 10v40a10 10 0 0 0 10 10"></path>
<g>
<path d="M288 108h0"></path>
<path d="M538 108h158"></path>
<g class="terminal">
<path d="M288 108h0"></path>
<path d="M348 108h0"></path>
<rect x="288" y="97" width="60" height="22" rx="10" ry="10"></rect>
<text x="318" y="112">!" ("</text>
</g>
<path d="M348 108h10"></path>
<path d="M358 108h10"></path>
<g class="terminal">
<path d="M368 108h0"></path>
<path d="M428 108h0"></path>
<rect x="368" y="97" width="60" height="22" rx="10" ry="10"></rect>
<text x="398" y="112">^\d+$</text>
</g>
<path d="M428 108h10"></path>
<g>
<path d="M438 108h0"></path>
<path d="M538 108h0"></path>
<path d="M438 108h20"></path>
<g class="terminal">
<path d="M458 108h0"></path>
<path d="M510 108h8"></path>
<rect x="458" y="97" width="52" height="22" rx="10" ry="10"></rect>
<text x="484" y="112">!")"</text>
</g>
<path d="M518 108h20"></path>
<path d="M438 108a10 10 0 0 1 10 10v10a10 10 0 0 0 10 10"></path>
<g class="terminal">
<path d="M458 138h0"></path>
<path d="M518 138h0"></path>
<rect x="458" y="127" width="60" height="22" rx="10" ry="10"></rect>
<text x="488" y="142">!") "</text>
</g>
<path d="M518 138a10 10 0 0 0 10 -10v-10a10 10 0 0 1 10 -10"></path>
</g>
</g>
<path d="M696 108a10 10 0 0 0 10 -10v-40a10 10 0 0 1 10 -10"></path>
</g>
<path d="M716 48h20"></path>
<path d="M248 48a10 10 0 0 1 10 10v100a10 10 0 0 0 10 10"></path>
<g class="non-terminal">
<path d="M268 168h0"></path>
<path d="M344 168h372"></path>
<rect x="268" y="157" width="76" height="22"></rect>
<a xlink:href="reuse_dynamic.svg"><text x="306" y="172">Dynamic</text>
</a>
</g>
<path d="M716 168a10 10 0 0 0 10 -10v-100a10 10 0 0 1 10 -10"></path>
</g>
<path d="M736 48h20"></path>
</g>
</g>
<path d="M756 48h10"></path>
<path d="M 766 48 h 20 m -10 -10 v 20 m 10 -20 v 20"></path>
</g>
</svg>
