<svg xmlns="http://www.w3.org/2000/svg" xmlns:xlink="http://www.w3.org/1999/xlink" class="railroad-diagram" width="564" height="109" viewBox="0 0 564 109">
<defs>
<style type="text/css"><![CDATA[
path {
stroke-width: 3;
stroke: black;
fill: rgba(0,0,0,0);
}
text {
font: bold 14px monospace;
text-anchor: middle;
}
text.diagram-text {
font-size: 12px;
}
a {
fill: blue;
}
text.diagram-arrow {
font-size: 16px;
}
text.label {
text-anchor: start;
}
text.comment {
font: italic 12px monospace;
}
rect {
stroke-width: 3;
stroke: black;
fill: #BCBCBC;
}
path.diagram-text {
stroke-width: 3;
stroke: black;
fill: #BCBCBC;
cursor: help;
}
]]></style>
</defs>
<g transform="translate(.5 .5)">
<path d="M 20 38 v 20 m 10 -20 v 20 m -10 -10 h 20.5"></path>
<path d="M40 48h10"></path>
<g>
<path d="M50 48h0"></path>
<path d="M514 48h0"></path>
<g class="terminal">
<path d="M50 48h0"></path>
<path d="M126 48h0"></path>
<rect x="50" y="37" width="76" height="22" rx="10" ry="10"></rect>
<text x="88" y="52">"ULINE"</text>
</g>
<path d="M126 48h10"></path>
<g>
<path d="M136 48h0"></path>
<path d="M514 48h0"></path>
<path d="M136 48a10 10 0 0 0 10 -10v-8a10 10 0 0 1 10 -10"></path>
<g>
<path d="M156 20h338"></path>
</g>
<path d="M494 20a10 10 0 0 1 10 10v8a10 10 0 0 0 10 10"></path>
<path d="M136 48h20"></path>
<g>
<path d="M156 48h0"></path>
<path d="M494 48h0"></path>
<path d="M156 48h20"></path>
<g>
<path d="M176 48h0"></path>
<path d="M474 48h0"></path>
<g class="terminal">
<path d="M176 48h0"></path>
<path d="M220 48h0"></path>
<rect x="176" y="37" width="44" height="22" rx="10" ry="10"></rect>
<text x="198" y="52">"/"</text>
</g>
<path d="M220 48h10"></path>
<g>
<path d="M230 48h0"></path>
<path d="M474 48h0"></path>
<path d="M230 48a10 10 0 0 0 10 -10v0a10 10 0 0 1 10 -10"></path>
<g>
<path d="M250 28h204"></path>
</g>
<path d="M454 28a10 10 0 0 1 10 10v0a10 10 0 0 0 10 10"></path>
<path d="M230 48h20"></path>
<g>
<path d="M250 48h0"></path>
<path d="M454 48h0"></path>
<g class="terminal">
<path d="M250 48h0"></path>
<path d="M302 48h0"></path>
<rect x="250" y="37" width="52" height="22" rx="10" ry="10"></rect>
<text x="276" y="52">!"("</text>
</g>
<path d="M302 48h10"></path>
<path d="M312 48h10"></path>
<g class="terminal">
<path d="M322 48h0"></path>
<path d="M382 48h0"></path>
<rect x="322" y="37" width="60" height="22" rx="10" ry="10"></rect>
<text x="352" y="52">^\d+$</text>
</g>
<path d="M382 48h10"></path>
<path d="M392 48h10"></path>
<g class="terminal">
<path d="M402 48h0"></path>
<path d="M454 48h0"></path>
<rect x="402" y="37" width="52" height="22" rx="10" ry="10"></rect>
<text x="428" y="52">!")"</text>
</g>
</g>
<path d="M454 48h20"></path>
</g>
</g>
<path d="M474 48h20"></path>
<path d="M156 48a10 10 0 0 1 10 10v10a10 10 0 0 0 10 10"></path>
<g>
<path d="M176 78h0"></path>
<path d="M388 78h86"></path>
<g class="terminal">
<path d="M176 78h0"></path>
<path d="M236 78h0"></path>
<rect x="176" y="67" width="60" height="22" rx="10" ry="10"></rect>
<text x="206" y="82">!" ("</text>
</g>
<path d="M236 78h10"></path>
<path d="M246 78h10"></path>
<g class="terminal">
<path d="M256 78h0"></path>
<path d="M316 78h0"></path>
<rect x="256" y="67" width="60" height="22" rx="10" ry="10"></rect>
<text x="286" y="82">^\d+$</text>
</g>
<path d="M316 78h10"></path>
<path d="M326 78h10"></path>
<g class="terminal">
<path d="M336 78h0"></path>
<path d="M388 78h0"></path>
<rect x="336" y="67" width="52" height="22" rx="10" ry="10"></rect>
<text x="362" y="82">!")"</text>
</g>
</g>
<path d="M474 78a10 10 0 0 0 10 -10v-10a10 10 0 0 1 10 -10"></path>
</g>
<path d="M494 48h20"></path>
</g>
</g>
<path d="M514 48h10"></path>
<path d="M 524 48 h 20 m -10 -10 v 20 m 10 -20 v 20"></path>
</g>
</svg>
