<?xml version="1.0" encoding="UTF-8" standalone="no"?>
<!DOCTYPE svg PUBLIC "-//W3C//DTD SVG 1.1//EN"
 "http://www.w3.org/Graphics/SVG/1.1/DTD/svg11.dtd">
<!-- Generated by graphviz version 2.38.0 (20140413.2041)
 -->
<!-- Title: unassign Pages: 1 -->
<svg width="143pt" height="260pt"
 viewBox="0.00 0.00 143.45 260.00" xmlns="http://www.w3.org/2000/svg" xmlns:xlink="http://www.w3.org/1999/xlink">
<g id="graph0" class="graph" transform="scale(1 1) rotate(0) translate(4 256)">
<title>unassign</title>
<polygon fill="white" stroke="none" points="-4,4 -4,-256 139.446,-256 139.446,4 -4,4"/>
<!-- start -->
<g id="node1" class="node"><title>start</title>
<polygon fill="none" stroke="black" points="94.7228,-252 40.7228,-252 40.7228,-216 94.7228,-216 94.7228,-252"/>
<text text-anchor="middle" x="67.7228" y="-229.8" font-family="Times,serif" font-size="14.00">Start</text>
</g>
<!-- node521 -->
<g id="node4" class="node"><title>node521</title>
<ellipse fill="none" stroke="black" cx="67.7228" cy="-162" rx="67.9463" ry="18"/>
<text text-anchor="middle" x="67.7228" y="-157.8" font-family="Times,serif" font-size="14.00">&quot;UNASSIGN&quot;</text>
</g>
<!-- start&#45;&gt;node521 -->
<g id="edge3" class="edge"><title>start&#45;&gt;node521</title>
<path fill="none" stroke="black" d="M67.7228,-215.697C67.7228,-207.983 67.7228,-198.712 67.7228,-190.112"/>
<polygon fill="black" stroke="black" points="71.2229,-190.104 67.7228,-180.104 64.2229,-190.104 71.2229,-190.104"/>
</g>
<!-- end -->
<g id="node2" class="node"><title>end</title>
<polygon fill="none" stroke="black" points="94.7228,-36 40.7228,-36 40.7228,-0 94.7228,-0 94.7228,-36"/>
<text text-anchor="middle" x="67.7228" y="-13.8" font-family="Times,serif" font-size="14.00">End</text>
</g>
<!-- node520 -->
<g id="node3" class="node"><title>node520</title>
<g id="a_node3"><a xlink:href="reuse_field_symbol.svg" xlink:title="&lt;u&gt;field_symbol&lt;/u&gt;">
<ellipse fill="none" stroke="black" cx="67.7228" cy="-90" rx="61.9982" ry="18"/>
<text text-anchor="start" x="30.7817" y="-86.8" font-family="Times,serif" text-decoration="underline" font-size="14.00" fill="blue">field_symbol</text>
</a>
</g>
</g>
<!-- node520&#45;&gt;end -->
<g id="edge1" class="edge"><title>node520&#45;&gt;end</title>
<path fill="none" stroke="black" d="M67.7228,-71.6966C67.7228,-63.9827 67.7228,-54.7125 67.7228,-46.1124"/>
<polygon fill="black" stroke="black" points="71.2229,-46.1043 67.7228,-36.1043 64.2229,-46.1044 71.2229,-46.1043"/>
</g>
<!-- node521&#45;&gt;node520 -->
<g id="edge2" class="edge"><title>node521&#45;&gt;node520</title>
<path fill="none" stroke="black" d="M67.7228,-143.697C67.7228,-135.983 67.7228,-126.712 67.7228,-118.112"/>
<polygon fill="black" stroke="black" points="71.2229,-118.104 67.7228,-108.104 64.2229,-118.104 71.2229,-118.104"/>
</g>
</g>
</svg>
