<svg xmlns="http://www.w3.org/2000/svg" xmlns:xlink="http://www.w3.org/1999/xlink" class="railroad-diagram" width="816" height="110" viewBox="0 0 816 110">
<defs>
<style type="text/css"><![CDATA[
path {
stroke-width: 3;
stroke: black;
fill: rgba(0,0,0,0);
}
text {
font: bold 14px monospace;
text-anchor: middle;
}
text.diagram-text {
font-size: 12px;
}
a {
fill: blue;
}
text.diagram-arrow {
font-size: 16px;
}
text.label {
text-anchor: start;
}
text.comment {
font: italic 12px monospace;
}
rect {
stroke-width: 3;
stroke: black;
fill: #BCBCBC;
}
path.diagram-text {
stroke-width: 3;
stroke: black;
fill: #BCBCBC;
cursor: help;
}
]]></style>
</defs>
<g transform="translate(.5 .5)">
<path d="M 20 30 v 20 m 10 -20 v 20 m -10 -10 h 20.5"></path>
<path d="M40 40h10"></path>
<g>
<path d="M50 40h0"></path>
<path d="M766 40h0"></path>
<g class="terminal">
<path d="M50 40h0"></path>
<path d="M134 40h0"></path>
<rect x="50" y="29" width="84" height="22" rx="10" ry="10"></rect>
<text x="92" y="44">"UPDATE"</text>
</g>
<path d="M134 40h10"></path>
<g>
<path d="M144 40h0"></path>
<path d="M260 40h0"></path>
<path d="M144 40h20"></path>
<g class="non-terminal">
<path d="M164 40h0"></path>
<path d="M224 40h16"></path>
<rect x="164" y="29" width="60" height="22"></rect>
<a xlink:href="reuse_field.svg"><text x="194" y="44">field</text>
</a>
</g>
<path d="M240 40h20"></path>
<path d="M144 40a10 10 0 0 1 10 10v10a10 10 0 0 0 10 10"></path>
<g class="non-terminal">
<path d="M164 70h0"></path>
<path d="M240 70h0"></path>
<rect x="164" y="59" width="76" height="22"></rect>
<a xlink:href="reuse_dynamic.svg"><text x="202" y="74">dynamic</text>
</a>
</g>
<path d="M240 70a10 10 0 0 0 10 -10v-10a10 10 0 0 1 10 -10"></path>
</g>
<g>
<path d="M260 40h0"></path>
<path d="M766 40h0"></path>
<path d="M260 40a10 10 0 0 0 10 -10v0a10 10 0 0 1 10 -10"></path>
<g>
<path d="M280 20h466"></path>
</g>
<path d="M746 20a10 10 0 0 1 10 10v0a10 10 0 0 0 10 10"></path>
<path d="M260 40h20"></path>
<g>
<path d="M280 40h0"></path>
<path d="M746 40h0"></path>
<path d="M280 40h20"></path>
<g>
<path d="M300 40h0"></path>
<path d="M456 40h270"></path>
<g class="terminal">
<path d="M300 40h0"></path>
<path d="M368 40h0"></path>
<rect x="300" y="29" width="68" height="22" rx="10" ry="10"></rect>
<text x="334" y="44">"FROM"</text>
</g>
<path d="M368 40h10"></path>
<path d="M378 40h10"></path>
<g class="non-terminal">
<path d="M388 40h0"></path>
<path d="M456 40h0"></path>
<rect x="388" y="29" width="68" height="22"></rect>
<a xlink:href="reuse_source.svg"><text x="422" y="44">source</text>
</a>
</g>
</g>
<path d="M726 40h20"></path>
<path d="M280 40a10 10 0 0 1 10 10v19a10 10 0 0 0 10 10"></path>
<g>
<path d="M300 79h0"></path>
<path d="M726 79h0"></path>
<g class="terminal">
<path d="M300 79h0"></path>
<path d="M360 79h0"></path>
<rect x="300" y="68" width="60" height="22" rx="10" ry="10"></rect>
<text x="330" y="83">"SET"</text>
</g>
<path d="M360 79h10"></path>
<path d="M370 79h10"></path>
<g class="non-terminal">
<path d="M380 79h0"></path>
<path d="M528 79h0"></path>
<rect x="380" y="68" width="148" height="22"></rect>
<a xlink:href="reuse_parameter_list_s.svg"><text x="454" y="83">parameter&#95;list&#95;s</text>
</a>
</g>
<path d="M528 79h10"></path>
<g>
<path d="M538 79h0"></path>
<path d="M726 79h0"></path>
<path d="M538 79a10 10 0 0 0 10 -10v0a10 10 0 0 1 10 -10"></path>
<g>
<path d="M558 59h148"></path>
</g>
<path d="M706 59a10 10 0 0 1 10 10v0a10 10 0 0 0 10 10"></path>
<path d="M538 79h20"></path>
<g>
<path d="M558 79h0"></path>
<path d="M706 79h0"></path>
<g class="terminal">
<path d="M558 79h0"></path>
<path d="M634 79h0"></path>
<rect x="558" y="68" width="76" height="22" rx="10" ry="10"></rect>
<text x="596" y="83">"WHERE"</text>
</g>
<path d="M634 79h10"></path>
<path d="M644 79h10"></path>
<g class="non-terminal">
<path d="M654 79h0"></path>
<path d="M706 79h0"></path>
<rect x="654" y="68" width="52" height="22"></rect>
<a xlink:href="reuse_cond.svg"><text x="680" y="83">cond</text>
</a>
</g>
</g>
<path d="M706 79h20"></path>
</g>
</g>
<path d="M726 79a10 10 0 0 0 10 -10v-19a10 10 0 0 1 10 -10"></path>
</g>
<path d="M746 40h20"></path>
</g>
</g>
<path d="M766 40h10"></path>
<path d="M 776 40 h 20 m -10 -10 v 20 m 10 -20 v 20"></path>
</g>
</svg>
