<svg xmlns="http://www.w3.org/2000/svg" xmlns:xlink="http://www.w3.org/1999/xlink" class="railroad-diagram" width="858" height="101" viewBox="0 0 858 101">
<defs>
<style type="text/css"><![CDATA[
path {
stroke-width: 3;
stroke: black;
fill: rgba(0,0,0,0);
}
text {
font: bold 14px monospace;
text-anchor: middle;
}
text.diagram-text {
font-size: 12px;
}
a {
fill: blue;
}
text.diagram-arrow {
font-size: 16px;
}
text.label {
text-anchor: start;
}
text.comment {
font: italic 12px monospace;
}
rect {
stroke-width: 3;
stroke: black;
fill: #BCBCBC;
}
path.diagram-text {
stroke-width: 3;
stroke: black;
fill: #BCBCBC;
cursor: help;
}
]]></style>
</defs>
<g transform="translate(.5 .5)">
<path d="M 20 30 v 20 m 10 -20 v 20 m -10 -10 h 20.5"></path>
<path d="M40 40h10"></path>
<g>
<path d="M50 40h0"></path>
<path d="M808 40h0"></path>
<g class="terminal">
<path d="M50 40h0"></path>
<path d="M134 40h0"></path>
<rect x="50" y="29" width="84" height="22" rx="10" ry="10"></rect>
<text x="92" y="44">"UPDATE"</text>
</g>
<path d="M134 40h10"></path>
<g>
<path d="M144 40h0"></path>
<path d="M372 40h0"></path>
<path d="M144 40h20"></path>
<g class="non-terminal">
<path d="M164 40h64"></path>
<path d="M288 40h64"></path>
<rect x="228" y="29" width="60" height="22"></rect>
<a xlink:href="reuse_field.svg"><text x="258" y="44">field</text>
</a>
</g>
<path d="M352 40h20"></path>
<path d="M144 40a10 10 0 0 1 10 10v10a10 10 0 0 0 10 10"></path>
<g>
<path d="M164 70h0"></path>
<path d="M352 70h0"></path>
<g class="terminal">
<path d="M164 70h0"></path>
<path d="M208 70h0"></path>
<rect x="164" y="59" width="44" height="22" rx="10" ry="10"></rect>
<text x="186" y="74">"("</text>
</g>
<path d="M208 70h10"></path>
<path d="M218 70h10"></path>
<g class="non-terminal">
<path d="M228 70h0"></path>
<path d="M288 70h0"></path>
<rect x="228" y="59" width="60" height="22"></rect>
<a xlink:href="reuse_field.svg"><text x="258" y="74">field</text>
</a>
</g>
<path d="M288 70h10"></path>
<path d="M298 70h10"></path>
<g class="terminal">
<path d="M308 70h0"></path>
<path d="M352 70h0"></path>
<rect x="308" y="59" width="44" height="22" rx="10" ry="10"></rect>
<text x="330" y="74">")"</text>
</g>
</g>
<path d="M352 70a10 10 0 0 0 10 -10v-10a10 10 0 0 1 10 -10"></path>
</g>
<path d="M372 40h10"></path>
<g class="terminal">
<path d="M382 40h0"></path>
<path d="M442 40h0"></path>
<rect x="382" y="29" width="60" height="22" rx="10" ry="10"></rect>
<text x="412" y="44">"SET"</text>
</g>
<path d="M442 40h10"></path>
<path d="M452 40h10"></path>
<g class="non-terminal">
<path d="M462 40h0"></path>
<path d="M610 40h0"></path>
<rect x="462" y="29" width="148" height="22"></rect>
<a xlink:href="reuse_parameter_list_s.svg"><text x="536" y="44">parameter&#95;list&#95;s</text>
</a>
</g>
<path d="M610 40h10"></path>
<g>
<path d="M620 40h0"></path>
<path d="M808 40h0"></path>
<path d="M620 40a10 10 0 0 0 10 -10v0a10 10 0 0 1 10 -10"></path>
<g>
<path d="M640 20h148"></path>
</g>
<path d="M788 20a10 10 0 0 1 10 10v0a10 10 0 0 0 10 10"></path>
<path d="M620 40h20"></path>
<g>
<path d="M640 40h0"></path>
<path d="M788 40h0"></path>
<g class="terminal">
<path d="M640 40h0"></path>
<path d="M716 40h0"></path>
<rect x="640" y="29" width="76" height="22" rx="10" ry="10"></rect>
<text x="678" y="44">"WHERE"</text>
</g>
<path d="M716 40h10"></path>
<path d="M726 40h10"></path>
<g class="non-terminal">
<path d="M736 40h0"></path>
<path d="M788 40h0"></path>
<rect x="736" y="29" width="52" height="22"></rect>
<a xlink:href="reuse_cond.svg"><text x="762" y="44">cond</text>
</a>
</g>
</g>
<path d="M788 40h20"></path>
</g>
</g>
<path d="M808 40h10"></path>
<path d="M 818 40 h 20 m -10 -10 v 20 m 10 -20 v 20"></path>
</g>
</svg>
