<svg xmlns="http://www.w3.org/2000/svg" xmlns:xlink="http://www.w3.org/1999/xlink" class="railroad-diagram" width="776" height="101" viewBox="0 0 776 101">
<defs>
<style type="text/css"><![CDATA[
path {
stroke-width: 3;
stroke: black;
fill: rgba(0,0,0,0);
}
text {
font: bold 14px monospace;
text-anchor: middle;
}
text.diagram-text {
font-size: 12px;
}
a {
fill: blue;
}
text.diagram-arrow {
font-size: 16px;
}
text.label {
text-anchor: start;
}
text.comment {
font: italic 12px monospace;
}
rect {
stroke-width: 3;
stroke: black;
fill: #BCBCBC;
}
path.diagram-text {
stroke-width: 3;
stroke: black;
fill: #BCBCBC;
cursor: help;
}
]]></style>
</defs>
<g transform="translate(.5 .5)">
<path d="M 20 21 v 20 m 10 -20 v 20 m -10 -10 h 20.5"></path>
<path d="M40 31h10"></path>
<g>
<path d="M50 31h0"></path>
<path d="M726 31h0"></path>
<g class="terminal">
<path d="M50 31h0"></path>
<path d="M134 31h0"></path>
<rect x="50" y="20" width="84" height="22" rx="10" ry="10"></rect>
<text x="92" y="35">"UPDATE"</text>
</g>
<path d="M134 31h10"></path>
<g>
<path d="M144 31h0"></path>
<path d="M260 31h0"></path>
<path d="M144 31h20"></path>
<g class="non-terminal">
<path d="M164 31h8"></path>
<path d="M232 31h8"></path>
<rect x="172" y="20" width="60" height="22"></rect>
<a xlink:href="reuse_field.svg"><text x="202" y="35">field</text>
</a>
</g>
<path d="M240 31h20"></path>
<path d="M144 31a10 10 0 0 1 10 10v10a10 10 0 0 0 10 10"></path>
<g class="non-terminal">
<path d="M164 61h0"></path>
<path d="M240 61h0"></path>
<rect x="164" y="50" width="76" height="22"></rect>
<a xlink:href="reuse_dynamic.svg"><text x="202" y="65">dynamic</text>
</a>
</g>
<path d="M240 61a10 10 0 0 0 10 -10v-10a10 10 0 0 1 10 -10"></path>
</g>
<g>
<path d="M260 31h0"></path>
<path d="M726 31h0"></path>
<path d="M260 31h20"></path>
<g>
<path d="M280 31h135"></path>
<path d="M571 31h135"></path>
<g class="terminal">
<path d="M415 31h0"></path>
<path d="M483 31h0"></path>
<rect x="415" y="20" width="68" height="22" rx="10" ry="10"></rect>
<text x="449" y="35">"FROM"</text>
</g>
<path d="M483 31h10"></path>
<path d="M493 31h10"></path>
<g class="non-terminal">
<path d="M503 31h0"></path>
<path d="M571 31h0"></path>
<rect x="503" y="20" width="68" height="22"></rect>
<a xlink:href="reuse_source.svg"><text x="537" y="35">source</text>
</a>
</g>
</g>
<path d="M706 31h20"></path>
<path d="M260 31a10 10 0 0 1 10 10v19a10 10 0 0 0 10 10"></path>
<g>
<path d="M280 70h0"></path>
<path d="M706 70h0"></path>
<g class="terminal">
<path d="M280 70h0"></path>
<path d="M340 70h0"></path>
<rect x="280" y="59" width="60" height="22" rx="10" ry="10"></rect>
<text x="310" y="74">"SET"</text>
</g>
<path d="M340 70h10"></path>
<path d="M350 70h10"></path>
<g class="non-terminal">
<path d="M360 70h0"></path>
<path d="M508 70h0"></path>
<rect x="360" y="59" width="148" height="22"></rect>
<a xlink:href="reuse_parameter_list_s.svg"><text x="434" y="74">parameter&#95;list&#95;s</text>
</a>
</g>
<path d="M508 70h10"></path>
<g>
<path d="M518 70h0"></path>
<path d="M706 70h0"></path>
<path d="M518 70a10 10 0 0 0 10 -10v0a10 10 0 0 1 10 -10"></path>
<g>
<path d="M538 50h148"></path>
</g>
<path d="M686 50a10 10 0 0 1 10 10v0a10 10 0 0 0 10 10"></path>
<path d="M518 70h20"></path>
<g>
<path d="M538 70h0"></path>
<path d="M686 70h0"></path>
<g class="terminal">
<path d="M538 70h0"></path>
<path d="M614 70h0"></path>
<rect x="538" y="59" width="76" height="22" rx="10" ry="10"></rect>
<text x="576" y="74">"WHERE"</text>
</g>
<path d="M614 70h10"></path>
<path d="M624 70h10"></path>
<g class="non-terminal">
<path d="M634 70h0"></path>
<path d="M686 70h0"></path>
<rect x="634" y="59" width="52" height="22"></rect>
<a xlink:href="reuse_cond.svg"><text x="660" y="74">cond</text>
</a>
</g>
</g>
<path d="M686 70h20"></path>
</g>
</g>
<path d="M706 70a10 10 0 0 0 10 -10v-19a10 10 0 0 1 10 -10"></path>
</g>
</g>
<path d="M726 31h10"></path>
<path d="M 736 31 h 20 m -10 -10 v 20 m 10 -20 v 20"></path>
</g>
</svg>
