<svg xmlns="http://www.w3.org/2000/svg" xmlns:xlink="http://www.w3.org/1999/xlink" class="railroad-diagram" width="848" height="118" viewBox="0 0 848 118">
<defs>
<style type="text/css"><![CDATA[
path {
stroke-width: 3;
stroke: black;
fill: rgba(0,0,0,0);
}
text {
font: bold 14px monospace;
text-anchor: middle;
}
text.diagram-text {
font-size: 12px;
}
a {
fill: blue;
}
text.diagram-arrow {
font-size: 16px;
}
text.label {
text-anchor: start;
}
text.comment {
font: italic 12px monospace;
}
rect {
stroke-width: 3;
stroke: black;
fill: #BCBCBC;
}
path.diagram-text {
stroke-width: 3;
stroke: black;
fill: #BCBCBC;
cursor: help;
}
]]></style>
</defs>
<g transform="translate(.5 .5)">
<path d="M 20 38 v 20 m 10 -20 v 20 m -10 -10 h 20.5"></path>
<path d="M40 48h10"></path>
<g>
<path d="M50 48h0"></path>
<path d="M798 48h0"></path>
<g class="terminal">
<path d="M50 48h0"></path>
<path d="M134 48h0"></path>
<rect x="50" y="37" width="84" height="22" rx="10" ry="10"></rect>
<text x="92" y="52">"UPDATE"</text>
</g>
<path d="M134 48h10"></path>
<g>
<path d="M144 48h0"></path>
<path d="M308 48h0"></path>
<path d="M144 48h20"></path>
<g class="non-terminal">
<path d="M164 48h0"></path>
<path d="M288 48h0"></path>
<rect x="164" y="37" width="124" height="22"></rect>
<a xlink:href="reuse_databasetable.svg"><text x="226" y="52">DatabaseTable</text>
</a>
</g>
<path d="M288 48h20"></path>
<path d="M144 48a10 10 0 0 1 10 10v10a10 10 0 0 0 10 10"></path>
<g class="non-terminal">
<path d="M164 78h0"></path>
<path d="M240 78h48"></path>
<rect x="164" y="67" width="76" height="22"></rect>
<a xlink:href="reuse_dynamic.svg"><text x="202" y="82">Dynamic</text>
</a>
</g>
<path d="M288 78a10 10 0 0 0 10 -10v-10a10 10 0 0 1 10 -10"></path>
</g>
<g>
<path d="M308 48h0"></path>
<path d="M798 48h0"></path>
<path d="M308 48a10 10 0 0 0 10 -10v-8a10 10 0 0 1 10 -10"></path>
<g>
<path d="M328 20h450"></path>
</g>
<path d="M778 20a10 10 0 0 1 10 10v8a10 10 0 0 0 10 10"></path>
<path d="M308 48h20"></path>
<g>
<path d="M328 48h0"></path>
<path d="M778 48h0"></path>
<path d="M328 48h20"></path>
<g>
<path d="M348 48h0"></path>
<path d="M620 48h138"></path>
<g class="terminal">
<path d="M348 48h0"></path>
<path d="M416 48h0"></path>
<rect x="348" y="37" width="68" height="22" rx="10" ry="10"></rect>
<text x="382" y="52">"FROM"</text>
</g>
<path d="M416 48h10"></path>
<g>
<path d="M426 48h0"></path>
<path d="M542 48h0"></path>
<path d="M426 48a10 10 0 0 0 10 -10v0a10 10 0 0 1 10 -10"></path>
<g>
<path d="M446 28h76"></path>
</g>
<path d="M522 28a10 10 0 0 1 10 10v0a10 10 0 0 0 10 10"></path>
<path d="M426 48h20"></path>
<g class="terminal">
<path d="M446 48h0"></path>
<path d="M522 48h0"></path>
<rect x="446" y="37" width="76" height="22" rx="10" ry="10"></rect>
<text x="484" y="52">"TABLE"</text>
</g>
<path d="M522 48h20"></path>
</g>
<path d="M542 48h10"></path>
<g class="non-terminal">
<path d="M552 48h0"></path>
<path d="M620 48h0"></path>
<rect x="552" y="37" width="68" height="22"></rect>
<a xlink:href="reuse_source.svg"><text x="586" y="52">Source</text>
</a>
</g>
</g>
<path d="M758 48h20"></path>
<path d="M328 48a10 10 0 0 1 10 10v19a10 10 0 0 0 10 10"></path>
<g>
<path d="M348 87h0"></path>
<path d="M758 87h0"></path>
<g class="terminal">
<path d="M348 87h0"></path>
<path d="M408 87h0"></path>
<rect x="348" y="76" width="60" height="22" rx="10" ry="10"></rect>
<text x="378" y="91">"SET"</text>
</g>
<path d="M408 87h10"></path>
<path d="M418 87h10"></path>
<g class="non-terminal">
<path d="M428 87h0"></path>
<path d="M560 87h0"></path>
<rect x="428" y="76" width="132" height="22"></rect>
<a xlink:href="reuse_parameterlists.svg"><text x="494" y="91">ParameterListS</text>
</a>
</g>
<path d="M560 87h10"></path>
<g>
<path d="M570 87h0"></path>
<path d="M758 87h0"></path>
<path d="M570 87a10 10 0 0 0 10 -10v0a10 10 0 0 1 10 -10"></path>
<g>
<path d="M590 67h148"></path>
</g>
<path d="M738 67a10 10 0 0 1 10 10v0a10 10 0 0 0 10 10"></path>
<path d="M570 87h20"></path>
<g>
<path d="M590 87h0"></path>
<path d="M738 87h0"></path>
<g class="terminal">
<path d="M590 87h0"></path>
<path d="M666 87h0"></path>
<rect x="590" y="76" width="76" height="22" rx="10" ry="10"></rect>
<text x="628" y="91">"WHERE"</text>
</g>
<path d="M666 87h10"></path>
<path d="M676 87h10"></path>
<g class="non-terminal">
<path d="M686 87h0"></path>
<path d="M738 87h0"></path>
<rect x="686" y="76" width="52" height="22"></rect>
<a xlink:href="reuse_cond.svg"><text x="712" y="91">Cond</text>
</a>
</g>
</g>
<path d="M738 87h20"></path>
</g>
</g>
<path d="M758 87a10 10 0 0 0 10 -10v-19a10 10 0 0 1 10 -10"></path>
</g>
<path d="M778 48h20"></path>
</g>
</g>
<path d="M798 48h10"></path>
<path d="M 808 48 h 20 m -10 -10 v 20 m 10 -20 v 20"></path>
</g>
</svg>
