<svg xmlns="http://www.w3.org/2000/svg" xmlns:xlink="http://www.w3.org/1999/xlink" class="railroad-diagram" width="848" height="110" viewBox="0 0 848 110">
<defs>
<style type="text/css"><![CDATA[
path {
stroke-width: 3;
stroke: black;
fill: rgba(0,0,0,0);
}
text {
font: bold 14px monospace;
text-anchor: middle;
}
text.diagram-text {
font-size: 12px;
}
a {
fill: blue;
}
text.diagram-arrow {
font-size: 16px;
}
text.label {
text-anchor: start;
}
text.comment {
font: italic 12px monospace;
}
rect {
stroke-width: 3;
stroke: black;
fill: #BCBCBC;
}
path.diagram-text {
stroke-width: 3;
stroke: black;
fill: #BCBCBC;
cursor: help;
}
]]></style>
</defs>
<g transform="translate(.5 .5)">
<path d="M 20 30 v 20 m 10 -20 v 20 m -10 -10 h 20.5"></path>
<path d="M40 40h10"></path>
<g>
<path d="M50 40h0"></path>
<path d="M798 40h0"></path>
<g class="terminal">
<path d="M50 40h0"></path>
<path d="M134 40h0"></path>
<rect x="50" y="29" width="84" height="22" rx="10" ry="10"></rect>
<text x="92" y="44">"UPDATE"</text>
</g>
<path d="M134 40h10"></path>
<g>
<path d="M144 40h0"></path>
<path d="M308 40h0"></path>
<path d="M144 40h20"></path>
<g class="non-terminal">
<path d="M164 40h0"></path>
<path d="M288 40h0"></path>
<rect x="164" y="29" width="124" height="22"></rect>
<a xlink:href="reuse_databasetable.svg"><text x="226" y="44">DatabaseTable</text>
</a>
</g>
<path d="M288 40h20"></path>
<path d="M144 40a10 10 0 0 1 10 10v10a10 10 0 0 0 10 10"></path>
<g class="non-terminal">
<path d="M164 70h0"></path>
<path d="M240 70h48"></path>
<rect x="164" y="59" width="76" height="22"></rect>
<a xlink:href="reuse_dynamic.svg"><text x="202" y="74">Dynamic</text>
</a>
</g>
<path d="M288 70a10 10 0 0 0 10 -10v-10a10 10 0 0 1 10 -10"></path>
</g>
<g>
<path d="M308 40h0"></path>
<path d="M798 40h0"></path>
<path d="M308 40a10 10 0 0 0 10 -10v0a10 10 0 0 1 10 -10"></path>
<g>
<path d="M328 20h450"></path>
</g>
<path d="M778 20a10 10 0 0 1 10 10v0a10 10 0 0 0 10 10"></path>
<path d="M308 40h20"></path>
<g>
<path d="M328 40h0"></path>
<path d="M778 40h0"></path>
<path d="M328 40h20"></path>
<g>
<path d="M348 40h0"></path>
<path d="M504 40h254"></path>
<g class="terminal">
<path d="M348 40h0"></path>
<path d="M416 40h0"></path>
<rect x="348" y="29" width="68" height="22" rx="10" ry="10"></rect>
<text x="382" y="44">"FROM"</text>
</g>
<path d="M416 40h10"></path>
<path d="M426 40h10"></path>
<g class="non-terminal">
<path d="M436 40h0"></path>
<path d="M504 40h0"></path>
<rect x="436" y="29" width="68" height="22"></rect>
<a xlink:href="reuse_source.svg"><text x="470" y="44">Source</text>
</a>
</g>
</g>
<path d="M758 40h20"></path>
<path d="M328 40a10 10 0 0 1 10 10v19a10 10 0 0 0 10 10"></path>
<g>
<path d="M348 79h0"></path>
<path d="M758 79h0"></path>
<g class="terminal">
<path d="M348 79h0"></path>
<path d="M408 79h0"></path>
<rect x="348" y="68" width="60" height="22" rx="10" ry="10"></rect>
<text x="378" y="83">"SET"</text>
</g>
<path d="M408 79h10"></path>
<path d="M418 79h10"></path>
<g class="non-terminal">
<path d="M428 79h0"></path>
<path d="M560 79h0"></path>
<rect x="428" y="68" width="132" height="22"></rect>
<a xlink:href="reuse_parameterlists.svg"><text x="494" y="83">ParameterListS</text>
</a>
</g>
<path d="M560 79h10"></path>
<g>
<path d="M570 79h0"></path>
<path d="M758 79h0"></path>
<path d="M570 79a10 10 0 0 0 10 -10v0a10 10 0 0 1 10 -10"></path>
<g>
<path d="M590 59h148"></path>
</g>
<path d="M738 59a10 10 0 0 1 10 10v0a10 10 0 0 0 10 10"></path>
<path d="M570 79h20"></path>
<g>
<path d="M590 79h0"></path>
<path d="M738 79h0"></path>
<g class="terminal">
<path d="M590 79h0"></path>
<path d="M666 79h0"></path>
<rect x="590" y="68" width="76" height="22" rx="10" ry="10"></rect>
<text x="628" y="83">"WHERE"</text>
</g>
<path d="M666 79h10"></path>
<path d="M676 79h10"></path>
<g class="non-terminal">
<path d="M686 79h0"></path>
<path d="M738 79h0"></path>
<rect x="686" y="68" width="52" height="22"></rect>
<a xlink:href="reuse_cond.svg"><text x="712" y="83">Cond</text>
</a>
</g>
</g>
<path d="M738 79h20"></path>
</g>
</g>
<path d="M758 79a10 10 0 0 0 10 -10v-19a10 10 0 0 1 10 -10"></path>
</g>
<path d="M778 40h20"></path>
</g>
</g>
<path d="M798 40h10"></path>
<path d="M 808 40 h 20 m -10 -10 v 20 m 10 -20 v 20"></path>
</g>
</svg>
