<svg xmlns="http://www.w3.org/2000/svg" xmlns:xlink="http://www.w3.org/1999/xlink" class="railroad-diagram" width="746" height="101" viewBox="0 0 746 101">
<defs>
<style type="text/css"><![CDATA[
path {
stroke-width: 3;
stroke: black;
fill: rgba(0,0,0,0);
}
text {
font: bold 14px monospace;
text-anchor: middle;
}
text.diagram-text {
font-size: 12px;
}
a {
fill: blue;
}
text.diagram-arrow {
font-size: 16px;
}
text.label {
text-anchor: start;
}
text.comment {
font: italic 12px monospace;
}
rect {
stroke-width: 3;
stroke: black;
fill: #BCBCBC;
}
path.diagram-text {
stroke-width: 3;
stroke: black;
fill: #BCBCBC;
cursor: help;
}
]]></style>
</defs>
<g transform="translate(.5 .5)">
<path d="M 20 30 v 20 m 10 -20 v 20 m -10 -10 h 20.5"></path>
<path d="M40 40h10"></path>
<g>
<path d="M50 40h0"></path>
<path d="M696 40h0"></path>
<g class="terminal">
<path d="M50 40h0"></path>
<path d="M134 40h0"></path>
<rect x="50" y="29" width="84" height="22" rx="10" ry="10"></rect>
<text x="92" y="44">"UPDATE"</text>
</g>
<path d="M134 40h10"></path>
<g>
<path d="M144 40h0"></path>
<path d="M260 40h0"></path>
<path d="M144 40h20"></path>
<g class="non-terminal">
<path d="M164 40h8"></path>
<path d="M232 40h8"></path>
<rect x="172" y="29" width="60" height="22"></rect>
<a xlink:href="reuse_field.svg"><text x="202" y="44">field</text>
</a>
</g>
<path d="M240 40h20"></path>
<path d="M144 40a10 10 0 0 1 10 10v10a10 10 0 0 0 10 10"></path>
<g class="non-terminal">
<path d="M164 70h0"></path>
<path d="M240 70h0"></path>
<rect x="164" y="59" width="76" height="22"></rect>
<a xlink:href="reuse_dynamic.svg"><text x="202" y="74">dynamic</text>
</a>
</g>
<path d="M240 70a10 10 0 0 0 10 -10v-10a10 10 0 0 1 10 -10"></path>
</g>
<path d="M260 40h10"></path>
<g class="terminal">
<path d="M270 40h0"></path>
<path d="M330 40h0"></path>
<rect x="270" y="29" width="60" height="22" rx="10" ry="10"></rect>
<text x="300" y="44">"SET"</text>
</g>
<path d="M330 40h10"></path>
<path d="M340 40h10"></path>
<g class="non-terminal">
<path d="M350 40h0"></path>
<path d="M498 40h0"></path>
<rect x="350" y="29" width="148" height="22"></rect>
<a xlink:href="reuse_parameter_list_s.svg"><text x="424" y="44">parameter&#95;list&#95;s</text>
</a>
</g>
<path d="M498 40h10"></path>
<g>
<path d="M508 40h0"></path>
<path d="M696 40h0"></path>
<path d="M508 40a10 10 0 0 0 10 -10v0a10 10 0 0 1 10 -10"></path>
<g>
<path d="M528 20h148"></path>
</g>
<path d="M676 20a10 10 0 0 1 10 10v0a10 10 0 0 0 10 10"></path>
<path d="M508 40h20"></path>
<g>
<path d="M528 40h0"></path>
<path d="M676 40h0"></path>
<g class="terminal">
<path d="M528 40h0"></path>
<path d="M604 40h0"></path>
<rect x="528" y="29" width="76" height="22" rx="10" ry="10"></rect>
<text x="566" y="44">"WHERE"</text>
</g>
<path d="M604 40h10"></path>
<path d="M614 40h10"></path>
<g class="non-terminal">
<path d="M624 40h0"></path>
<path d="M676 40h0"></path>
<rect x="624" y="29" width="52" height="22"></rect>
<a xlink:href="reuse_cond.svg"><text x="650" y="44">cond</text>
</a>
</g>
</g>
<path d="M676 40h20"></path>
</g>
</g>
<path d="M696 40h10"></path>
<path d="M 706 40 h 20 m -10 -10 v 20 m 10 -20 v 20"></path>
</g>
</svg>
