<svg xmlns="http://www.w3.org/2000/svg" xmlns:xlink="http://www.w3.org/1999/xlink" class="railroad-diagram" width="872" height="110" viewBox="0 0 872 110">
<defs>
<style type="text/css"><![CDATA[
path {
stroke-width: 3;
stroke: black;
fill: rgba(0,0,0,0);
}
text {
font: bold 14px monospace;
text-anchor: middle;
}
text.diagram-text {
font-size: 12px;
}
a {
fill: blue;
}
text.diagram-arrow {
font-size: 16px;
}
text.label {
text-anchor: start;
}
text.comment {
font: italic 12px monospace;
}
rect {
stroke-width: 3;
stroke: black;
fill: #BCBCBC;
}
path.diagram-text {
stroke-width: 3;
stroke: black;
fill: #BCBCBC;
cursor: help;
}
]]></style>
</defs>
<g transform="translate(.5 .5)">
<path d="M 20 30 v 20 m 10 -20 v 20 m -10 -10 h 20.5"></path>
<path d="M40 40h10"></path>
<g>
<path d="M50 40h0"></path>
<path d="M822 40h0"></path>
<g class="terminal">
<path d="M50 40h0"></path>
<path d="M134 40h0"></path>
<rect x="50" y="29" width="84" height="22" rx="10" ry="10"></rect>
<text x="92" y="44">"UPDATE"</text>
</g>
<path d="M134 40h10"></path>
<g>
<path d="M144 40h0"></path>
<path d="M316 40h0"></path>
<path d="M144 40h20"></path>
<g class="non-terminal">
<path d="M164 40h0"></path>
<path d="M296 40h0"></path>
<rect x="164" y="29" width="132" height="22"></rect>
<a xlink:href="reuse_database_table.svg"><text x="230" y="44">database&#95;table</text>
</a>
</g>
<path d="M296 40h20"></path>
<path d="M144 40a10 10 0 0 1 10 10v10a10 10 0 0 0 10 10"></path>
<g class="non-terminal">
<path d="M164 70h0"></path>
<path d="M240 70h56"></path>
<rect x="164" y="59" width="76" height="22"></rect>
<a xlink:href="reuse_dynamic.svg"><text x="202" y="74">dynamic</text>
</a>
</g>
<path d="M296 70a10 10 0 0 0 10 -10v-10a10 10 0 0 1 10 -10"></path>
</g>
<g>
<path d="M316 40h0"></path>
<path d="M822 40h0"></path>
<path d="M316 40a10 10 0 0 0 10 -10v0a10 10 0 0 1 10 -10"></path>
<g>
<path d="M336 20h466"></path>
</g>
<path d="M802 20a10 10 0 0 1 10 10v0a10 10 0 0 0 10 10"></path>
<path d="M316 40h20"></path>
<g>
<path d="M336 40h0"></path>
<path d="M802 40h0"></path>
<path d="M336 40h20"></path>
<g>
<path d="M356 40h0"></path>
<path d="M512 40h270"></path>
<g class="terminal">
<path d="M356 40h0"></path>
<path d="M424 40h0"></path>
<rect x="356" y="29" width="68" height="22" rx="10" ry="10"></rect>
<text x="390" y="44">"FROM"</text>
</g>
<path d="M424 40h10"></path>
<path d="M434 40h10"></path>
<g class="non-terminal">
<path d="M444 40h0"></path>
<path d="M512 40h0"></path>
<rect x="444" y="29" width="68" height="22"></rect>
<a xlink:href="reuse_source.svg"><text x="478" y="44">source</text>
</a>
</g>
</g>
<path d="M782 40h20"></path>
<path d="M336 40a10 10 0 0 1 10 10v19a10 10 0 0 0 10 10"></path>
<g>
<path d="M356 79h0"></path>
<path d="M782 79h0"></path>
<g class="terminal">
<path d="M356 79h0"></path>
<path d="M416 79h0"></path>
<rect x="356" y="68" width="60" height="22" rx="10" ry="10"></rect>
<text x="386" y="83">"SET"</text>
</g>
<path d="M416 79h10"></path>
<path d="M426 79h10"></path>
<g class="non-terminal">
<path d="M436 79h0"></path>
<path d="M584 79h0"></path>
<rect x="436" y="68" width="148" height="22"></rect>
<a xlink:href="reuse_parameter_list_s.svg"><text x="510" y="83">parameter&#95;list&#95;s</text>
</a>
</g>
<path d="M584 79h10"></path>
<g>
<path d="M594 79h0"></path>
<path d="M782 79h0"></path>
<path d="M594 79a10 10 0 0 0 10 -10v0a10 10 0 0 1 10 -10"></path>
<g>
<path d="M614 59h148"></path>
</g>
<path d="M762 59a10 10 0 0 1 10 10v0a10 10 0 0 0 10 10"></path>
<path d="M594 79h20"></path>
<g>
<path d="M614 79h0"></path>
<path d="M762 79h0"></path>
<g class="terminal">
<path d="M614 79h0"></path>
<path d="M690 79h0"></path>
<rect x="614" y="68" width="76" height="22" rx="10" ry="10"></rect>
<text x="652" y="83">"WHERE"</text>
</g>
<path d="M690 79h10"></path>
<path d="M700 79h10"></path>
<g class="non-terminal">
<path d="M710 79h0"></path>
<path d="M762 79h0"></path>
<rect x="710" y="68" width="52" height="22"></rect>
<a xlink:href="reuse_cond.svg"><text x="736" y="83">cond</text>
</a>
</g>
</g>
<path d="M762 79h20"></path>
</g>
</g>
<path d="M782 79a10 10 0 0 0 10 -10v-19a10 10 0 0 1 10 -10"></path>
</g>
<path d="M802 40h20"></path>
</g>
</g>
<path d="M822 40h10"></path>
<path d="M 832 40 h 20 m -10 -10 v 20 m 10 -20 v 20"></path>
</g>
</svg>
