<svg xmlns="http://www.w3.org/2000/svg" xmlns:xlink="http://www.w3.org/1999/xlink" class="railroad-diagram" width="1052" height="118" viewBox="0 0 1052 118">
<defs>
<style type="text/css"><![CDATA[
path {
stroke-width: 3;
stroke: black;
fill: rgba(0,0,0,0);
}
text {
font: bold 14px monospace;
text-anchor: middle;
}
text.diagram-text {
font-size: 12px;
}
a {
fill: blue;
}
text.diagram-arrow {
font-size: 16px;
}
text.label {
text-anchor: start;
}
text.comment {
font: italic 12px monospace;
}
rect {
stroke-width: 3;
stroke: black;
fill: #BCBCBC;
}
path.diagram-text {
stroke-width: 3;
stroke: black;
fill: #BCBCBC;
cursor: help;
}
]]></style>
</defs>
<g transform="translate(.5 .5)">
<path d="M 20 38 v 20 m 10 -20 v 20 m -10 -10 h 20.5"></path>
<path d="M40 48h10"></path>
<g>
<path d="M50 48h0"></path>
<path d="M1002 48h0"></path>
<g class="terminal">
<path d="M50 48h0"></path>
<path d="M134 48h0"></path>
<rect x="50" y="37" width="84" height="22" rx="10" ry="10"></rect>
<text x="92" y="52">"UPDATE"</text>
</g>
<path d="M134 48h10"></path>
<g>
<path d="M144 48h0"></path>
<path d="M308 48h0"></path>
<path d="M144 48h20"></path>
<g class="non-terminal">
<path d="M164 48h0"></path>
<path d="M288 48h0"></path>
<rect x="164" y="37" width="124" height="22"></rect>
<a xlink:href="reuse_databasetable.svg"><text x="226" y="52">DatabaseTable</text>
</a>
</g>
<path d="M288 48h20"></path>
<path d="M144 48a10 10 0 0 1 10 10v10a10 10 0 0 0 10 10"></path>
<g class="non-terminal">
<path d="M164 78h0"></path>
<path d="M240 78h48"></path>
<rect x="164" y="67" width="76" height="22"></rect>
<a xlink:href="reuse_dynamic.svg"><text x="202" y="82">Dynamic</text>
</a>
</g>
<path d="M288 78a10 10 0 0 0 10 -10v-10a10 10 0 0 1 10 -10"></path>
</g>
<g>
<path d="M308 48h0"></path>
<path d="M512 48h0"></path>
<path d="M308 48a10 10 0 0 0 10 -10v0a10 10 0 0 1 10 -10"></path>
<g>
<path d="M328 28h164"></path>
</g>
<path d="M492 28a10 10 0 0 1 10 10v0a10 10 0 0 0 10 10"></path>
<path d="M308 48h20"></path>
<g class="terminal">
<path d="M328 48h0"></path>
<path d="M492 48h0"></path>
<rect x="328" y="37" width="164" height="22" rx="10" ry="10"></rect>
<text x="410" y="52">"CLIENT SPECIFIED"</text>
</g>
<path d="M492 48h20"></path>
</g>
<g>
<path d="M512 48h0"></path>
<path d="M1002 48h0"></path>
<path d="M512 48a10 10 0 0 0 10 -10v-8a10 10 0 0 1 10 -10"></path>
<g>
<path d="M532 20h450"></path>
</g>
<path d="M982 20a10 10 0 0 1 10 10v8a10 10 0 0 0 10 10"></path>
<path d="M512 48h20"></path>
<g>
<path d="M532 48h0"></path>
<path d="M982 48h0"></path>
<path d="M532 48h20"></path>
<g>
<path d="M552 48h0"></path>
<path d="M824 48h138"></path>
<g class="terminal">
<path d="M552 48h0"></path>
<path d="M620 48h0"></path>
<rect x="552" y="37" width="68" height="22" rx="10" ry="10"></rect>
<text x="586" y="52">"FROM"</text>
</g>
<path d="M620 48h10"></path>
<g>
<path d="M630 48h0"></path>
<path d="M746 48h0"></path>
<path d="M630 48a10 10 0 0 0 10 -10v0a10 10 0 0 1 10 -10"></path>
<g>
<path d="M650 28h76"></path>
</g>
<path d="M726 28a10 10 0 0 1 10 10v0a10 10 0 0 0 10 10"></path>
<path d="M630 48h20"></path>
<g class="terminal">
<path d="M650 48h0"></path>
<path d="M726 48h0"></path>
<rect x="650" y="37" width="76" height="22" rx="10" ry="10"></rect>
<text x="688" y="52">"TABLE"</text>
</g>
<path d="M726 48h20"></path>
</g>
<path d="M746 48h10"></path>
<g class="non-terminal">
<path d="M756 48h0"></path>
<path d="M824 48h0"></path>
<rect x="756" y="37" width="68" height="22"></rect>
<a xlink:href="reuse_source.svg"><text x="790" y="52">Source</text>
</a>
</g>
</g>
<path d="M962 48h20"></path>
<path d="M532 48a10 10 0 0 1 10 10v19a10 10 0 0 0 10 10"></path>
<g>
<path d="M552 87h0"></path>
<path d="M962 87h0"></path>
<g class="terminal">
<path d="M552 87h0"></path>
<path d="M612 87h0"></path>
<rect x="552" y="76" width="60" height="22" rx="10" ry="10"></rect>
<text x="582" y="91">"SET"</text>
</g>
<path d="M612 87h10"></path>
<path d="M622 87h10"></path>
<g class="non-terminal">
<path d="M632 87h0"></path>
<path d="M764 87h0"></path>
<rect x="632" y="76" width="132" height="22"></rect>
<a xlink:href="reuse_parameterlists.svg"><text x="698" y="91">ParameterListS</text>
</a>
</g>
<path d="M764 87h10"></path>
<g>
<path d="M774 87h0"></path>
<path d="M962 87h0"></path>
<path d="M774 87a10 10 0 0 0 10 -10v0a10 10 0 0 1 10 -10"></path>
<g>
<path d="M794 67h148"></path>
</g>
<path d="M942 67a10 10 0 0 1 10 10v0a10 10 0 0 0 10 10"></path>
<path d="M774 87h20"></path>
<g>
<path d="M794 87h0"></path>
<path d="M942 87h0"></path>
<g class="terminal">
<path d="M794 87h0"></path>
<path d="M870 87h0"></path>
<rect x="794" y="76" width="76" height="22" rx="10" ry="10"></rect>
<text x="832" y="91">"WHERE"</text>
</g>
<path d="M870 87h10"></path>
<path d="M880 87h10"></path>
<g class="non-terminal">
<path d="M890 87h0"></path>
<path d="M942 87h0"></path>
<rect x="890" y="76" width="52" height="22"></rect>
<a xlink:href="reuse_cond.svg"><text x="916" y="91">Cond</text>
</a>
</g>
</g>
<path d="M942 87h20"></path>
</g>
</g>
<path d="M962 87a10 10 0 0 0 10 -10v-19a10 10 0 0 1 10 -10"></path>
</g>
<path d="M982 48h20"></path>
</g>
</g>
<path d="M1002 48h10"></path>
<path d="M 1012 48 h 20 m -10 -10 v 20 m 10 -20 v 20"></path>
</g>
</svg>
