<svg xmlns="http://www.w3.org/2000/svg" xmlns:xlink="http://www.w3.org/1999/xlink" class="railroad-diagram" width="564" height="101" viewBox="0 0 564 101">
<defs>
<style type="text/css"><![CDATA[
path {
stroke-width: 3;
stroke: black;
fill: rgba(0,0,0,0);
}
text {
font: bold 14px monospace;
text-anchor: middle;
}
text.diagram-text {
font-size: 12px;
}
a {
fill: blue;
}
text.diagram-arrow {
font-size: 16px;
}
text.label {
text-anchor: start;
}
text.comment {
font: italic 12px monospace;
}
rect {
stroke-width: 3;
stroke: black;
fill: #BCBCBC;
}
path.diagram-text {
stroke-width: 3;
stroke: black;
fill: #BCBCBC;
cursor: help;
}
]]></style>
</defs>
<g transform="translate(.5 .5)">
<path d="M 20 30 v 20 m 10 -20 v 20 m -10 -10 h 20.5"></path>
<path d="M40 40h10"></path>
<g>
<path d="M50 40h0"></path>
<path d="M514 40h0"></path>
<g class="terminal">
<path d="M50 40h0"></path>
<path d="M118 40h0"></path>
<rect x="50" y="29" width="68" height="22" rx="10" ry="10"></rect>
<text x="84" y="44">"WAIT"</text>
</g>
<path d="M118 40h10"></path>
<g>
<path d="M128 40h0"></path>
<path d="M514 40h0"></path>
<path d="M128 40a10 10 0 0 0 10 -10v0a10 10 0 0 1 10 -10"></path>
<g>
<path d="M148 20h346"></path>
</g>
<path d="M494 20a10 10 0 0 1 10 10v0a10 10 0 0 0 10 10"></path>
<path d="M128 40h20"></path>
<g>
<path d="M148 40h0"></path>
<path d="M494 40h0"></path>
<path d="M178 40h10"></path>
<g>
<path d="M188 40h0"></path>
<path d="M464 40h0"></path>
<g class="terminal">
<path d="M188 40h0"></path>
<path d="M264 40h0"></path>
<rect x="188" y="29" width="76" height="22" rx="10" ry="10"></rect>
<text x="226" y="44">"UP TO"</text>
</g>
<path d="M264 40h10"></path>
<path d="M274 40h10"></path>
<g class="non-terminal">
<path d="M284 40h0"></path>
<path d="M352 40h0"></path>
<rect x="284" y="29" width="68" height="22"></rect>
<a xlink:href="reuse_source.svg"><text x="318" y="44">Source</text>
</a>
</g>
<path d="M352 40h10"></path>
<path d="M362 40h10"></path>
<g class="terminal">
<path d="M372 40h0"></path>
<path d="M464 40h0"></path>
<rect x="372" y="29" width="92" height="22" rx="10" ry="10"></rect>
<text x="418" y="44">"SECONDS"</text>
</g>
</g>
<path d="M464 40h10"></path>
<path d="M178 40v20a10 10 0 0 0 10 10"></path>
<g>
<path d="M188 70h0"></path>
<path d="M336 70h128"></path>
<g class="terminal">
<path d="M188 70h0"></path>
<path d="M264 70h0"></path>
<rect x="188" y="59" width="76" height="22" rx="10" ry="10"></rect>
<text x="226" y="74">"UNTIL"</text>
</g>
<path d="M264 70h10"></path>
<path d="M274 70h10"></path>
<g class="non-terminal">
<path d="M284 70h0"></path>
<path d="M336 70h0"></path>
<rect x="284" y="59" width="52" height="22"></rect>
<a xlink:href="reuse_cond.svg"><text x="310" y="74">Cond</text>
</a>
</g>
</g>
<path d="M464 70a10 10 0 0 0 10 -10v-20"></path>
<g class="diagram-text">
<title>take one or more branches, once each, in any order</title>
<path d="M 178 30 h -26 a 4 4 0 0 0 -4 4 v 12 a 4 4 0 0 0 4 4 h 26 z" class="diagram-text"></path>
<text x="163" y="44" class="diagram-text">1+</text>
<path d="M 474 30 h 16 a 4 4 0 0 1 4 4 v 12 a 4 4 0 0 1 -4 4 h -16 z" class="diagram-text"></path>
<path d="M 481 38 a 4 4 0 1 0 6 -1 m 2.75 -1 h -4 v 4 m 0 -3 h 2" style="stroke-width: 1.75"></path>
</g>
</g>
<path d="M494 40h20"></path>
</g>
</g>
<path d="M514 40h10"></path>
<path d="M 524 40 h 20 m -10 -10 v 20 m 10 -20 v 20"></path>
</g>
</svg>
