<svg xmlns="http://www.w3.org/2000/svg" xmlns:xlink="http://www.w3.org/1999/xlink" class="railroad-diagram" width="494" height="92" viewBox="0 0 494 92">
<defs>
<style type="text/css"><![CDATA[
path {
stroke-width: 3;
stroke: black;
fill: rgba(0,0,0,0);
}
text {
font: bold 14px monospace;
text-anchor: middle;
}
text.diagram-text {
font-size: 12px;
}
a {
fill: blue;
}
text.diagram-arrow {
font-size: 16px;
}
text.label {
text-anchor: start;
}
text.comment {
font: italic 12px monospace;
}
rect {
stroke-width: 3;
stroke: black;
fill: #BCBCBC;
}
path.diagram-text {
stroke-width: 3;
stroke: black;
fill: #BCBCBC;
cursor: help;
}
]]></style>
</defs>
<g transform="translate(.5 .5)">
<path d="M 20 21 v 20 m 10 -20 v 20 m -10 -10 h 20.5"></path>
<path d="M40 31h10"></path>
<g>
<path d="M50 31h0"></path>
<path d="M444 31h0"></path>
<g class="terminal">
<path d="M50 31h0"></path>
<path d="M118 31h0"></path>
<rect x="50" y="20" width="68" height="22" rx="10" ry="10"></rect>
<text x="84" y="35">"WAIT"</text>
</g>
<path d="M118 31h10"></path>
<g>
<path d="M128 31h0"></path>
<path d="M444 31h0"></path>
<path d="M128 31h20"></path>
<g>
<path d="M148 31h0"></path>
<path d="M424 31h0"></path>
<g class="terminal">
<path d="M148 31h0"></path>
<path d="M224 31h0"></path>
<rect x="148" y="20" width="76" height="22" rx="10" ry="10"></rect>
<text x="186" y="35">"UP TO"</text>
</g>
<path d="M224 31h10"></path>
<path d="M234 31h10"></path>
<g class="non-terminal">
<path d="M244 31h0"></path>
<path d="M312 31h0"></path>
<rect x="244" y="20" width="68" height="22"></rect>
<a xlink:href="reuse_source.svg"><text x="278" y="35">Source</text>
</a>
</g>
<path d="M312 31h10"></path>
<path d="M322 31h10"></path>
<g class="terminal">
<path d="M332 31h0"></path>
<path d="M424 31h0"></path>
<rect x="332" y="20" width="92" height="22" rx="10" ry="10"></rect>
<text x="378" y="35">"SECONDS"</text>
</g>
</g>
<path d="M424 31h20"></path>
<path d="M128 31a10 10 0 0 1 10 10v10a10 10 0 0 0 10 10"></path>
<g>
<path d="M148 61h0"></path>
<path d="M296 61h128"></path>
<g class="terminal">
<path d="M148 61h0"></path>
<path d="M224 61h0"></path>
<rect x="148" y="50" width="76" height="22" rx="10" ry="10"></rect>
<text x="186" y="65">"UNTIL"</text>
</g>
<path d="M224 61h10"></path>
<path d="M234 61h10"></path>
<g class="non-terminal">
<path d="M244 61h0"></path>
<path d="M296 61h0"></path>
<rect x="244" y="50" width="52" height="22"></rect>
<a xlink:href="reuse_cond.svg"><text x="270" y="65">Cond</text>
</a>
</g>
</g>
<path d="M424 61a10 10 0 0 0 10 -10v-10a10 10 0 0 1 10 -10"></path>
</g>
</g>
<path d="M444 31h10"></path>
<path d="M 454 31 h 20 m -10 -10 v 20 m 10 -20 v 20"></path>
</g>
</svg>
