<svg xmlns="http://www.w3.org/2000/svg" xmlns:xlink="http://www.w3.org/1999/xlink" class="railroad-diagram" width="466" height="80" viewBox="0 0 466 80">
<defs>
<style type="text/css"><![CDATA[
path {
stroke-width: 3;
stroke: black;
fill: rgba(0,0,0,0);
}
text {
font: bold 14px monospace;
text-anchor: middle;
}
text.diagram-text {
font-size: 12px;
}
a {
fill: blue;
}
text.diagram-arrow {
font-size: 16px;
}
text.label {
text-anchor: start;
}
text.comment {
font: italic 12px monospace;
}
rect {
stroke-width: 3;
stroke: black;
fill: #BCBCBC;
}
path.diagram-text {
stroke-width: 3;
stroke: black;
fill: #BCBCBC;
cursor: help;
}
]]></style>
</defs>
<g transform="translate(.5 .5)">
<path d="M 20 30 v 20 m 10 -20 v 20 m -10 -10 h 20.5"></path>
<path d="M40 40h10"></path>
<g>
<path d="M50 40h0"></path>
<path d="M416 40h0"></path>
<g class="terminal">
<path d="M50 40h0"></path>
<path d="M118 40h0"></path>
<rect x="50" y="29" width="68" height="22" rx="10" ry="10"></rect>
<text x="84" y="44">"WHEN"</text>
</g>
<path d="M118 40h10"></path>
<path d="M128 40h10"></path>
<g class="non-terminal">
<path d="M138 40h0"></path>
<path d="M206 40h0"></path>
<rect x="138" y="29" width="68" height="22"></rect>
<a xlink:href="reuse_source.svg"><text x="172" y="44">Source</text>
</a>
</g>
<path d="M206 40h10"></path>
<g>
<path d="M216 40h0"></path>
<path d="M416 40h0"></path>
<path d="M216 40a10 10 0 0 0 10 -10v0a10 10 0 0 1 10 -10"></path>
<g>
<path d="M236 20h160"></path>
</g>
<path d="M396 20a10 10 0 0 1 10 10v0a10 10 0 0 0 10 10"></path>
<path d="M216 40h20"></path>
<g>
<path d="M236 40h0"></path>
<path d="M396 40h0"></path>
<path d="M236 40h10"></path>
<g>
<path d="M246 40h0"></path>
<path d="M386 40h0"></path>
<g class="terminal">
<path d="M246 40h0"></path>
<path d="M298 40h0"></path>
<rect x="246" y="29" width="52" height="22" rx="10" ry="10"></rect>
<text x="272" y="44">"OR"</text>
</g>
<path d="M298 40h10"></path>
<path d="M308 40h10"></path>
<g class="non-terminal">
<path d="M318 40h0"></path>
<path d="M386 40h0"></path>
<rect x="318" y="29" width="68" height="22"></rect>
<a xlink:href="reuse_source.svg"><text x="352" y="44">Source</text>
</a>
</g>
</g>
<path d="M386 40h10"></path>
<path d="M246 40a10 10 0 0 0 -10 10v0a10 10 0 0 0 10 10"></path>
<g>
<path d="M246 60h140"></path>
</g>
<path d="M386 60a10 10 0 0 0 10 -10v0a10 10 0 0 0 -10 -10"></path>
</g>
<path d="M396 40h20"></path>
</g>
</g>
<path d="M416 40h10"></path>
<path d="M 426 40 h 20 m -10 -10 v 20 m 10 -20 v 20"></path>
</g>
</svg>
