<?xml version="1.0" encoding="UTF-8" standalone="no"?>
<!DOCTYPE svg PUBLIC "-//W3C//DTD SVG 1.1//EN"
 "http://www.w3.org/Graphics/SVG/1.1/DTD/svg11.dtd">
<!-- Generated by graphviz version 2.38.0 (20140413.2041)
 -->
<!-- Title: when Pages: 1 -->
<svg width="182pt" height="404pt"
 viewBox="0.00 0.00 182.33 404.00" xmlns="http://www.w3.org/2000/svg" xmlns:xlink="http://www.w3.org/1999/xlink">
<g id="graph0" class="graph" transform="scale(1 1) rotate(0) translate(4 400)">
<title>when</title>
<polygon fill="white" stroke="none" points="-4,4 -4,-400 178.326,-400 178.326,4 -4,4"/>
<!-- start -->
<g id="node1" class="node"><title>start</title>
<polygon fill="none" stroke="black" points="138,-396 84,-396 84,-360 138,-360 138,-396"/>
<text text-anchor="middle" x="111" y="-373.8" font-family="Times,serif" font-size="14.00">Start</text>
</g>
<!-- node371 -->
<g id="node7" class="node"><title>node371</title>
<ellipse fill="none" stroke="black" cx="111" cy="-306" rx="47.7443" ry="18"/>
<text text-anchor="middle" x="111" y="-301.8" font-family="Times,serif" font-size="14.00">&quot;WHEN&quot;</text>
</g>
<!-- start&#45;&gt;node371 -->
<g id="edge8" class="edge"><title>start&#45;&gt;node371</title>
<path fill="none" stroke="black" d="M111,-359.697C111,-351.983 111,-342.712 111,-334.112"/>
<polygon fill="black" stroke="black" points="114.5,-334.104 111,-324.104 107.5,-334.104 114.5,-334.104"/>
</g>
<!-- end -->
<g id="node2" class="node"><title>end</title>
<polygon fill="none" stroke="black" points="54,-108 0,-108 0,-72 54,-72 54,-108"/>
<text text-anchor="middle" x="27" y="-85.8" font-family="Times,serif" font-size="14.00">End</text>
</g>
<!-- node367 -->
<g id="node3" class="node"><title>node367</title>
<ellipse fill="none" stroke="black" cx="76" cy="-162" rx="42.879" ry="18"/>
<text text-anchor="middle" x="76" y="-157.8" font-family="Times,serif" font-size="14.00">Dummy</text>
</g>
<!-- node367&#45;&gt;end -->
<g id="edge4" class="edge"><title>node367&#45;&gt;end</title>
<path fill="none" stroke="black" d="M64.3877,-144.411C58.64,-136.2 51.5694,-126.099 45.1297,-116.9"/>
<polygon fill="black" stroke="black" points="47.8147,-114.632 39.2127,-108.447 42.0801,-118.646 47.8147,-114.632"/>
</g>
<!-- node369 -->
<g id="node5" class="node"><title>node369</title>
<ellipse fill="none" stroke="black" cx="142" cy="-90" rx="32.1533" ry="18"/>
<text text-anchor="middle" x="142" y="-85.8" font-family="Times,serif" font-size="14.00">&quot;OR&quot;</text>
</g>
<!-- node367&#45;&gt;node369 -->
<g id="edge3" class="edge"><title>node367&#45;&gt;node369</title>
<path fill="none" stroke="black" d="M90.9764,-145.116C99.7049,-135.858 110.86,-124.027 120.513,-113.789"/>
<polygon fill="black" stroke="black" points="123.223,-116.017 127.536,-106.34 118.13,-111.215 123.223,-116.017"/>
</g>
<!-- node368 -->
<g id="node4" class="node"><title>node368</title>
<g id="a_node4"><a xlink:href="reuse_source.svg" xlink:title="&lt;u&gt;source&lt;/u&gt;">
<ellipse fill="none" stroke="black" cx="112" cy="-18" rx="36.4761" ry="18"/>
<text text-anchor="start" x="93.7328" y="-14.8" font-family="Times,serif" text-decoration="underline" font-size="14.00" fill="blue">source</text>
</a>
</g>
</g>
<!-- node368&#45;&gt;node367 -->
<g id="edge1" class="edge"><title>node368&#45;&gt;node367</title>
<path fill="none" stroke="black" d="M107.642,-36.1893C101.471,-60.5311 90.1263,-105.28 82.8302,-134.059"/>
<polygon fill="black" stroke="black" points="79.4073,-133.318 80.3424,-143.871 86.1927,-135.038 79.4073,-133.318"/>
</g>
<!-- node369&#45;&gt;node368 -->
<g id="edge2" class="edge"><title>node369&#45;&gt;node368</title>
<path fill="none" stroke="black" d="M134.89,-72.411C131.429,-64.3352 127.185,-54.4312 123.295,-45.3547"/>
<polygon fill="black" stroke="black" points="126.423,-43.7689 119.267,-35.9562 119.989,-46.5264 126.423,-43.7689"/>
</g>
<!-- node370 -->
<g id="node6" class="node"><title>node370</title>
<g id="a_node6"><a xlink:href="reuse_source.svg" xlink:title="&lt;u&gt;source&lt;/u&gt;">
<ellipse fill="none" stroke="black" cx="111" cy="-234" rx="36.4761" ry="18"/>
<text text-anchor="start" x="92.7328" y="-230.8" font-family="Times,serif" text-decoration="underline" font-size="14.00" fill="blue">source</text>
</a>
</g>
</g>
<!-- node370&#45;&gt;node367 -->
<g id="edge6" class="edge"><title>node370&#45;&gt;node367</title>
<path fill="none" stroke="black" d="M102.705,-216.411C98.6246,-208.249 93.6101,-198.22 89.0327,-189.065"/>
<polygon fill="black" stroke="black" points="92.0808,-187.335 84.4781,-179.956 85.8198,-190.466 92.0808,-187.335"/>
</g>
<!-- node370&#45;&gt;node369 -->
<g id="edge5" class="edge"><title>node370&#45;&gt;node369</title>
<path fill="none" stroke="black" d="M117.191,-216.003C120.758,-205.698 125.097,-192.222 128,-180 132.849,-159.584 136.461,-136.124 138.8,-118.418"/>
<polygon fill="black" stroke="black" points="142.308,-118.575 140.092,-108.215 135.364,-117.696 142.308,-118.575"/>
</g>
<!-- node371&#45;&gt;node370 -->
<g id="edge7" class="edge"><title>node371&#45;&gt;node370</title>
<path fill="none" stroke="black" d="M111,-287.697C111,-279.983 111,-270.712 111,-262.112"/>
<polygon fill="black" stroke="black" points="114.5,-262.104 111,-252.104 107.5,-262.104 114.5,-262.104"/>
</g>
</g>
</svg>
