<svg xmlns="http://www.w3.org/2000/svg" xmlns:xlink="http://www.w3.org/1999/xlink" class="railroad-diagram" width="760" height="62" viewBox="0 0 760 62">
<defs>
<style type="text/css"><![CDATA[
path {
stroke-width: 3;
stroke: black;
fill: rgba(0,0,0,0);
}
text {
font: bold 14px monospace;
text-anchor: middle;
}
text.diagram-text {
font-size: 12px;
}
a {
fill: blue;
}
text.diagram-arrow {
font-size: 16px;
}
text.label {
text-anchor: start;
}
text.comment {
font: italic 12px monospace;
}
rect {
stroke-width: 3;
stroke: black;
fill: #BCBCBC;
}
path.diagram-text {
stroke-width: 3;
stroke: black;
fill: #BCBCBC;
cursor: help;
}
]]></style>
</defs>
<g transform="translate(.5 .5)">
<path d="M 20 21 v 20 m 10 -20 v 20 m -10 -10 h 20.5"></path>
<path d="M40 31h10"></path>
<g>
<path d="M50 31h0"></path>
<path d="M710 31h0"></path>
<g class="terminal">
<path d="M50 31h0"></path>
<path d="M230 31h0"></path>
<rect x="50" y="20" width="180" height="22" rx="10" ry="10"></rect>
<text x="140" y="35">"WINDOW STARTING AT"</text>
</g>
<path d="M230 31h10"></path>
<path d="M240 31h10"></path>
<g class="non-terminal">
<path d="M250 31h0"></path>
<path d="M318 31h0"></path>
<rect x="250" y="20" width="68" height="22"></rect>
<a xlink:href="reuse_source.svg"><text x="284" y="35">Source</text>
</a>
</g>
<path d="M318 31h10"></path>
<path d="M328 31h10"></path>
<g class="non-terminal">
<path d="M338 31h0"></path>
<path d="M406 31h0"></path>
<rect x="338" y="20" width="68" height="22"></rect>
<a xlink:href="reuse_source.svg"><text x="372" y="35">Source</text>
</a>
</g>
<path d="M406 31h10"></path>
<path d="M416 31h10"></path>
<g class="terminal">
<path d="M426 31h0"></path>
<path d="M534 31h0"></path>
<rect x="426" y="20" width="108" height="22" rx="10" ry="10"></rect>
<text x="480" y="35">"ENDING AT"</text>
</g>
<path d="M534 31h10"></path>
<path d="M544 31h10"></path>
<g class="non-terminal">
<path d="M554 31h0"></path>
<path d="M622 31h0"></path>
<rect x="554" y="20" width="68" height="22"></rect>
<a xlink:href="reuse_source.svg"><text x="588" y="35">Source</text>
</a>
</g>
<path d="M622 31h10"></path>
<path d="M632 31h10"></path>
<g class="non-terminal">
<path d="M642 31h0"></path>
<path d="M710 31h0"></path>
<rect x="642" y="20" width="68" height="22"></rect>
<a xlink:href="reuse_source.svg"><text x="676" y="35">Source</text>
</a>
</g>
</g>
<path d="M710 31h10"></path>
<path d="M 720 31 h 20 m -10 -10 v 20 m 10 -20 v 20"></path>
</g>
</svg>
