<svg xmlns="http://www.w3.org/2000/svg" xmlns:xlink="http://www.w3.org/1999/xlink" class="railroad-diagram" width="1468" height="924" viewBox="0 0 1468 924">
<defs>
<style type="text/css"><![CDATA[
path {
stroke-width: 3;
stroke: black;
fill: rgba(0,0,0,0);
}
text {
font: bold 14px monospace;
text-anchor: middle;
}
text.diagram-text {
font-size: 12px;
}
a {
fill: blue;
}
text.diagram-arrow {
font-size: 16px;
}
text.label {
text-anchor: start;
}
text.comment {
font: italic 12px monospace;
}
rect {
stroke-width: 3;
stroke: black;
fill: #BCBCBC;
}
path.diagram-text {
stroke-width: 3;
stroke: black;
fill: #BCBCBC;
cursor: help;
}
]]></style>
</defs>
<g transform="translate(.5 .5)">
<path d="M 20 38 v 20 m 10 -20 v 20 m -10 -10 h 20.5"></path>
<path d="M40 48h10"></path>
<g>
<path d="M50 48h0"></path>
<path d="M1418 48h0"></path>
<g class="terminal">
<path d="M50 48h0"></path>
<path d="M126 48h0"></path>
<rect x="50" y="37" width="76" height="22" rx="10" ry="10"></rect>
<text x="88" y="52">"WRITE"</text>
</g>
<path d="M126 48h10"></path>
<g>
<path d="M136 48h0"></path>
<path d="M636 48h0"></path>
<path d="M136 48a10 10 0 0 0 10 -10v-8a10 10 0 0 1 10 -10"></path>
<g>
<path d="M156 20h460"></path>
</g>
<path d="M616 20a10 10 0 0 1 10 10v8a10 10 0 0 0 10 10"></path>
<path d="M136 48h20"></path>
<g>
<path d="M156 48h0"></path>
<path d="M616 48h0"></path>
<path d="M156 48h20"></path>
<g>
<path d="M176 48h0"></path>
<path d="M362 48h234"></path>
<g>
<path d="M176 48h0"></path>
<path d="M268 48h0"></path>
<path d="M176 48a10 10 0 0 0 10 -10v0a10 10 0 0 1 10 -10"></path>
<g>
<path d="M196 28h52"></path>
</g>
<path d="M248 28a10 10 0 0 1 10 10v0a10 10 0 0 0 10 10"></path>
<path d="M176 48h20"></path>
<g class="terminal">
<path d="M196 48h0"></path>
<path d="M248 48h0"></path>
<rect x="196" y="37" width="52" height="22" rx="10" ry="10"></rect>
<text x="222" y="52">"AT"</text>
</g>
<path d="M248 48h20"></path>
</g>
<path d="M268 48h10"></path>
<g class="terminal">
<path d="M278 48h0"></path>
<path d="M362 48h0"></path>
<rect x="278" y="37" width="84" height="22" rx="10" ry="10"></rect>
<text x="320" y="52">^\/?\d+$</text>
</g>
</g>
<path d="M596 48h20"></path>
<path d="M156 48a10 10 0 0 1 10 10v19a10 10 0 0 0 10 10"></path>
<g>
<path d="M176 87h0"></path>
<path d="M596 87h0"></path>
<path d="M176 87h20"></path>
<g>
<path d="M196 87h0"></path>
<path d="M502 87h74"></path>
<g class="terminal">
<path d="M196 87h0"></path>
<path d="M240 87h0"></path>
<rect x="196" y="76" width="44" height="22" rx="10" ry="10"></rect>
<text x="218" y="91">"/"</text>
</g>
<path d="M240 87h10"></path>
<g>
<path d="M250 87h0"></path>
<path d="M502 87h0"></path>
<path d="M250 87a10 10 0 0 0 10 -10v0a10 10 0 0 1 10 -10"></path>
<g>
<path d="M270 67h212"></path>
</g>
<path d="M482 67a10 10 0 0 1 10 10v0a10 10 0 0 0 10 10"></path>
<path d="M250 87h20"></path>
<g>
<path d="M270 87h0"></path>
<path d="M482 87h0"></path>
<g class="terminal">
<path d="M270 87h0"></path>
<path d="M322 87h0"></path>
<rect x="270" y="76" width="52" height="22" rx="10" ry="10"></rect>
<text x="296" y="91">!"("</text>
</g>
<path d="M322 87h10"></path>
<path d="M332 87h10"></path>
<g class="terminal">
<path d="M342 87h0"></path>
<path d="M402 87h0"></path>
<rect x="342" y="76" width="60" height="22" rx="10" ry="10"></rect>
<text x="372" y="91">^\d+$</text>
</g>
<path d="M402 87h10"></path>
<path d="M412 87h10"></path>
<g class="terminal">
<path d="M422 87h0"></path>
<path d="M482 87h0"></path>
<rect x="422" y="76" width="60" height="22" rx="10" ry="10"></rect>
<text x="452" y="91">!") "</text>
</g>
</g>
<path d="M482 87h20"></path>
</g>
</g>
<path d="M576 87h20"></path>
<path d="M176 87a10 10 0 0 1 10 10v19a10 10 0 0 0 10 10"></path>
<g>
<path d="M196 126h0"></path>
<path d="M550 126h26"></path>
<g>
<path d="M196 126h0"></path>
<path d="M288 126h0"></path>
<path d="M196 126a10 10 0 0 0 10 -10v0a10 10 0 0 1 10 -10"></path>
<g>
<path d="M216 106h52"></path>
</g>
<path d="M268 106a10 10 0 0 1 10 10v0a10 10 0 0 0 10 10"></path>
<path d="M196 126h20"></path>
<g class="terminal">
<path d="M216 126h0"></path>
<path d="M268 126h0"></path>
<rect x="216" y="115" width="52" height="22" rx="10" ry="10"></rect>
<text x="242" y="130">"AT"</text>
</g>
<path d="M268 126h20"></path>
</g>
<path d="M288 126h10"></path>
<g class="terminal">
<path d="M298 126h0"></path>
<path d="M358 126h0"></path>
<rect x="298" y="115" width="60" height="22" rx="10" ry="10"></rect>
<text x="328" y="130">!" ("</text>
</g>
<path d="M358 126h10"></path>
<path d="M368 126h10"></path>
<g class="terminal">
<path d="M378 126h0"></path>
<path d="M470 126h0"></path>
<rect x="378" y="115" width="92" height="22" rx="10" ry="10"></rect>
<text x="424" y="130">^&#91;\w\d&#93;+$</text>
</g>
<path d="M470 126h10"></path>
<path d="M480 126h10"></path>
<g class="terminal">
<path d="M490 126h0"></path>
<path d="M550 126h0"></path>
<rect x="490" y="115" width="60" height="22" rx="10" ry="10"></rect>
<text x="520" y="130">!") "</text>
</g>
</g>
<path d="M576 126a10 10 0 0 0 10 -10v-19a10 10 0 0 1 10 -10"></path>
<path d="M176 87a10 10 0 0 1 10 10v49a10 10 0 0 0 10 10"></path>
<g>
<path d="M196 156h0"></path>
<path d="M512 156h64"></path>
<g class="terminal">
<path d="M196 156h0"></path>
<path d="M280 156h0"></path>
<rect x="196" y="145" width="84" height="22" rx="10" ry="10"></rect>
<text x="238" y="160">^\/?\d+$</text>
</g>
<path d="M280 156h10"></path>
<path d="M290 156h10"></path>
<g class="terminal">
<path d="M300 156h0"></path>
<path d="M352 156h0"></path>
<rect x="300" y="145" width="52" height="22" rx="10" ry="10"></rect>
<text x="326" y="160">!"("</text>
</g>
<path d="M352 156h10"></path>
<path d="M362 156h10"></path>
<g class="terminal">
<path d="M372 156h0"></path>
<path d="M432 156h0"></path>
<rect x="372" y="145" width="60" height="22" rx="10" ry="10"></rect>
<text x="402" y="160">^\d+$</text>
</g>
<path d="M432 156h10"></path>
<path d="M442 156h10"></path>
<g class="terminal">
<path d="M452 156h0"></path>
<path d="M512 156h0"></path>
<rect x="452" y="145" width="60" height="22" rx="10" ry="10"></rect>
<text x="482" y="160">!") "</text>
</g>
</g>
<path d="M576 156a10 10 0 0 0 10 -10v-49a10 10 0 0 1 10 -10"></path>
<path d="M176 87a10 10 0 0 1 10 10v79a10 10 0 0 0 10 10"></path>
<g>
<path d="M196 186h0"></path>
<path d="M576 186h0"></path>
<g class="terminal">
<path d="M196 186h0"></path>
<path d="M248 186h0"></path>
<rect x="196" y="175" width="52" height="22" rx="10" ry="10"></rect>
<text x="222" y="190">"AT"</text>
</g>
<path d="M248 186h10"></path>
<path d="M258 186h10"></path>
<g class="terminal">
<path d="M268 186h0"></path>
<path d="M312 186h0"></path>
<rect x="268" y="175" width="44" height="22" rx="10" ry="10"></rect>
<text x="290" y="190">"/"</text>
</g>
<path d="M312 186h10"></path>
<path d="M322 186h10"></path>
<g class="terminal">
<path d="M332 186h0"></path>
<path d="M384 186h0"></path>
<rect x="332" y="175" width="52" height="22" rx="10" ry="10"></rect>
<text x="358" y="190">!"("</text>
</g>
<path d="M384 186h10"></path>
<path d="M394 186h10"></path>
<g class="terminal">
<path d="M404 186h0"></path>
<path d="M496 186h0"></path>
<rect x="404" y="175" width="92" height="22" rx="10" ry="10"></rect>
<text x="450" y="190">^&#91;\w\d&#93;+$</text>
</g>
<path d="M496 186h10"></path>
<path d="M506 186h10"></path>
<g class="terminal">
<path d="M516 186h0"></path>
<path d="M576 186h0"></path>
<rect x="516" y="175" width="60" height="22" rx="10" ry="10"></rect>
<text x="546" y="190">!") "</text>
</g>
</g>
<path d="M576 186a10 10 0 0 0 10 -10v-79a10 10 0 0 1 10 -10"></path>
</g>
<path d="M596 87a10 10 0 0 0 10 -10v-19a10 10 0 0 1 10 -10"></path>
</g>
<path d="M616 48h20"></path>
</g>
<g>
<path d="M636 48h0"></path>
<path d="M744 48h0"></path>
<path d="M636 48a10 10 0 0 0 10 -10v0a10 10 0 0 1 10 -10"></path>
<g>
<path d="M656 28h68"></path>
</g>
<path d="M724 28a10 10 0 0 1 10 10v0a10 10 0 0 0 10 10"></path>
<path d="M636 48h20"></path>
<g class="non-terminal">
<path d="M656 48h0"></path>
<path d="M724 48h0"></path>
<rect x="656" y="37" width="68" height="22"></rect>
<a xlink:href="reuse_source.svg"><text x="690" y="52">Source</text>
</a>
</g>
<path d="M724 48h20"></path>
</g>
<g>
<path d="M744 48h0"></path>
<path d="M1418 48h0"></path>
<path d="M744 48a10 10 0 0 0 10 -10v0a10 10 0 0 1 10 -10"></path>
<g>
<path d="M764 28h634"></path>
</g>
<path d="M1398 28a10 10 0 0 1 10 10v0a10 10 0 0 0 10 10"></path>
<path d="M744 48h20"></path>
<g>
<path d="M764 48h0"></path>
<path d="M1398 48h0"></path>
<path d="M794 48h10"></path>
<g>
<path d="M804 48h0"></path>
<path d="M1048 48h320"></path>
<g class="terminal">
<path d="M804 48h0"></path>
<path d="M960 48h0"></path>
<rect x="804" y="37" width="156" height="22" rx="10" ry="10"></rect>
<text x="882" y="52">"USING EDIT MASK"</text>
</g>
<path d="M960 48h10"></path>
<path d="M970 48h10"></path>
<g class="non-terminal">
<path d="M980 48h0"></path>
<path d="M1048 48h0"></path>
<rect x="980" y="37" width="68" height="22"></rect>
<a xlink:href="reuse_source.svg"><text x="1014" y="52">Source</text>
</a>
</g>
</g>
<path d="M1368 48h10"></path>
<path d="M794 48v20a10 10 0 0 0 10 10"></path>
<g>
<path d="M804 78h0"></path>
<path d="M944 78h424"></path>
<g class="terminal">
<path d="M804 78h0"></path>
<path d="M856 78h0"></path>
<rect x="804" y="67" width="52" height="22" rx="10" ry="10"></rect>
<text x="830" y="82">"TO"</text>
</g>
<path d="M856 78h10"></path>
<path d="M866 78h10"></path>
<g class="non-terminal">
<path d="M876 78h0"></path>
<path d="M944 78h0"></path>
<rect x="876" y="67" width="68" height="22"></rect>
<a xlink:href="reuse_target.svg"><text x="910" y="82">Target</text>
</a>
</g>
</g>
<path d="M1368 78a10 10 0 0 0 10 -10v-20"></path>
<path d="M794 48v50a10 10 0 0 0 10 10"></path>
<g>
<path d="M804 108h0"></path>
<path d="M992 108h376"></path>
<g class="terminal">
<path d="M804 108h0"></path>
<path d="M904 108h0"></path>
<rect x="804" y="97" width="100" height="22" rx="10" ry="10"></rect>
<text x="854" y="112">"EXPONENT"</text>
</g>
<path d="M904 108h10"></path>
<path d="M914 108h10"></path>
<g class="non-terminal">
<path d="M924 108h0"></path>
<path d="M992 108h0"></path>
<rect x="924" y="97" width="68" height="22"></rect>
<a xlink:href="reuse_source.svg"><text x="958" y="112">Source</text>
</a>
</g>
</g>
<path d="M1368 108a10 10 0 0 0 10 -10v-50"></path>
<path d="M794 48v80a10 10 0 0 0 10 10"></path>
<g class="terminal">
<path d="M804 138h0"></path>
<path d="M928 138h440"></path>
<rect x="804" y="127" width="124" height="22" rx="10" ry="10"></rect>
<text x="866" y="142">"NO-GROUPING"</text>
</g>
<path d="M1368 138a10 10 0 0 0 10 -10v-80"></path>
<path d="M794 48v110a10 10 0 0 0 10 10"></path>
<g class="terminal">
<path d="M804 168h0"></path>
<path d="M896 168h472"></path>
<rect x="804" y="157" width="92" height="22" rx="10" ry="10"></rect>
<text x="850" y="172">"NO-ZERO"</text>
</g>
<path d="M1368 168a10 10 0 0 0 10 -10v-110"></path>
<path d="M794 48v149a10 10 0 0 0 10 10"></path>
<g>
<path d="M804 207h0"></path>
<path d="M1030 207h338"></path>
<g class="terminal">
<path d="M804 207h0"></path>
<path d="M880 207h0"></path>
<rect x="804" y="196" width="76" height="22" rx="10" ry="10"></rect>
<text x="842" y="211">"INPUT"</text>
</g>
<path d="M880 207h10"></path>
<g>
<path d="M890 207h0"></path>
<path d="M1030 207h0"></path>
<path d="M890 207a10 10 0 0 0 10 -10v0a10 10 0 0 1 10 -10"></path>
<g>
<path d="M910 187h100"></path>
</g>
<path d="M1010 187a10 10 0 0 1 10 10v0a10 10 0 0 0 10 10"></path>
<path d="M890 207h20"></path>
<g>
<path d="M910 207h0"></path>
<path d="M1010 207h0"></path>
<path d="M910 207h20"></path>
<g class="terminal">
<path d="M930 207h0"></path>
<path d="M982 207h8"></path>
<rect x="930" y="196" width="52" height="22" rx="10" ry="10"></rect>
<text x="956" y="211">"ON"</text>
</g>
<path d="M990 207h20"></path>
<path d="M910 207a10 10 0 0 1 10 10v10a10 10 0 0 0 10 10"></path>
<g class="terminal">
<path d="M930 237h0"></path>
<path d="M990 237h0"></path>
<rect x="930" y="226" width="60" height="22" rx="10" ry="10"></rect>
<text x="960" y="241">"OFF"</text>
</g>
<path d="M990 237a10 10 0 0 0 10 -10v-10a10 10 0 0 1 10 -10"></path>
</g>
<path d="M1010 207h20"></path>
</g>
</g>
<path d="M1368 207a10 10 0 0 0 10 -10v-149"></path>
<path d="M794 48v209a10 10 0 0 0 10 10"></path>
<g class="terminal">
<path d="M804 267h0"></path>
<path d="M888 267h480"></path>
<rect x="804" y="256" width="84" height="22" rx="10" ry="10"></rect>
<text x="846" y="271">"NO-GAP"</text>
</g>
<path d="M1368 267a10 10 0 0 0 10 -10v-209"></path>
<path d="M794 48v239a10 10 0 0 0 10 10"></path>
<g class="terminal">
<path d="M804 297h0"></path>
<path d="M952 297h416"></path>
<rect x="804" y="286" width="148" height="22" rx="10" ry="10"></rect>
<text x="878" y="301">"LEFT-JUSTIFIED"</text>
</g>
<path d="M1368 297a10 10 0 0 0 10 -10v-239"></path>
<path d="M794 48v269a10 10 0 0 0 10 10"></path>
<g class="terminal">
<path d="M804 327h0"></path>
<path d="M896 327h472"></path>
<rect x="804" y="316" width="92" height="22" rx="10" ry="10"></rect>
<text x="850" y="331">"AS LINE"</text>
</g>
<path d="M1368 327a10 10 0 0 0 10 -10v-269"></path>
<path d="M794 48v299a10 10 0 0 0 10 10"></path>
<g class="terminal">
<path d="M804 357h0"></path>
<path d="M896 357h472"></path>
<rect x="804" y="346" width="92" height="22" rx="10" ry="10"></rect>
<text x="850" y="361">"AS ICON"</text>
</g>
<path d="M1368 357a10 10 0 0 0 10 -10v-299"></path>
<path d="M794 48v329a10 10 0 0 0 10 10"></path>
<g class="terminal">
<path d="M804 387h0"></path>
<path d="M896 387h472"></path>
<rect x="804" y="376" width="92" height="22" rx="10" ry="10"></rect>
<text x="850" y="391">"HOTSPOT"</text>
</g>
<path d="M1368 387a10 10 0 0 0 10 -10v-329"></path>
<path d="M794 48v359a10 10 0 0 0 10 10"></path>
<g class="terminal">
<path d="M804 417h0"></path>
<path d="M928 417h440"></path>
<rect x="804" y="406" width="124" height="22" rx="10" ry="10"></rect>
<text x="866" y="421">"AS CHECKBOX"</text>
</g>
<path d="M1368 417a10 10 0 0 0 10 -10v-359"></path>
<path d="M794 48v389a10 10 0 0 0 10 10"></path>
<g class="terminal">
<path d="M804 447h0"></path>
<path d="M912 447h456"></path>
<rect x="804" y="436" width="108" height="22" rx="10" ry="10"></rect>
<text x="858" y="451">"AS SYMBOL"</text>
</g>
<path d="M1368 447a10 10 0 0 0 10 -10v-389"></path>
<path d="M794 48v419a10 10 0 0 0 10 10"></path>
<g class="terminal">
<path d="M804 477h0"></path>
<path d="M960 477h408"></path>
<rect x="804" y="466" width="156" height="22" rx="10" ry="10"></rect>
<text x="882" y="481">"RIGHT-JUSTIFIED"</text>
</g>
<path d="M1368 477a10 10 0 0 0 10 -10v-419"></path>
<path d="M794 48v449a10 10 0 0 0 10 10"></path>
<g>
<path d="M804 507h0"></path>
<path d="M1000 507h368"></path>
<g class="terminal">
<path d="M804 507h0"></path>
<path d="M912 507h0"></path>
<rect x="804" y="496" width="108" height="22" rx="10" ry="10"></rect>
<text x="858" y="511">"TIME ZONE"</text>
</g>
<path d="M912 507h10"></path>
<path d="M922 507h10"></path>
<g class="non-terminal">
<path d="M932 507h0"></path>
<path d="M1000 507h0"></path>
<rect x="932" y="496" width="68" height="22"></rect>
<a xlink:href="reuse_source.svg"><text x="966" y="511">Source</text>
</a>
</g>
</g>
<path d="M1368 507a10 10 0 0 0 10 -10v-449"></path>
<path d="M794 48v479a10 10 0 0 0 10 10"></path>
<g>
<path d="M804 537h0"></path>
<path d="M968 537h400"></path>
<g class="terminal">
<path d="M804 537h0"></path>
<path d="M880 537h0"></path>
<rect x="804" y="526" width="76" height="22" rx="10" ry="10"></rect>
<text x="842" y="541">"UNDER"</text>
</g>
<path d="M880 537h10"></path>
<path d="M890 537h10"></path>
<g class="non-terminal">
<path d="M900 537h0"></path>
<path d="M968 537h0"></path>
<rect x="900" y="526" width="68" height="22"></rect>
<a xlink:href="reuse_source.svg"><text x="934" y="541">Source</text>
</a>
</g>
</g>
<path d="M1368 537a10 10 0 0 0 10 -10v-479"></path>
<path d="M794 48v509a10 10 0 0 0 10 10"></path>
<g>
<path d="M804 567h0"></path>
<path d="M968 567h400"></path>
<g class="terminal">
<path d="M804 567h0"></path>
<path d="M880 567h0"></path>
<rect x="804" y="556" width="76" height="22" rx="10" ry="10"></rect>
<text x="842" y="571">"STYLE"</text>
</g>
<path d="M880 567h10"></path>
<path d="M890 567h10"></path>
<g class="non-terminal">
<path d="M900 567h0"></path>
<path d="M968 567h0"></path>
<rect x="900" y="556" width="68" height="22"></rect>
<a xlink:href="reuse_source.svg"><text x="934" y="571">Source</text>
</a>
</g>
</g>
<path d="M1368 567a10 10 0 0 0 10 -10v-509"></path>
<path d="M794 48v539a10 10 0 0 0 10 10"></path>
<g>
<path d="M804 597h0"></path>
<path d="M968 597h400"></path>
<g class="terminal">
<path d="M804 597h0"></path>
<path d="M880 597h0"></path>
<rect x="804" y="586" width="76" height="22" rx="10" ry="10"></rect>
<text x="842" y="601">"ROUND"</text>
</g>
<path d="M880 597h10"></path>
<path d="M890 597h10"></path>
<g class="non-terminal">
<path d="M900 597h0"></path>
<path d="M968 597h0"></path>
<rect x="900" y="586" width="68" height="22"></rect>
<a xlink:href="reuse_source.svg"><text x="934" y="601">Source</text>
</a>
</g>
</g>
<path d="M1368 597a10 10 0 0 0 10 -10v-539"></path>
<path d="M794 48v569a10 10 0 0 0 10 10"></path>
<g class="terminal">
<path d="M804 627h0"></path>
<path d="M1024 627h344"></path>
<rect x="804" y="616" width="220" height="22" rx="10" ry="10"></rect>
<text x="914" y="631">"ENVIRONMENT TIME FORMAT"</text>
</g>
<path d="M1368 627a10 10 0 0 0 10 -10v-569"></path>
<path d="M794 48v599a10 10 0 0 0 10 10"></path>
<g class="terminal">
<path d="M804 657h0"></path>
<path d="M1128 657h240"></path>
<rect x="804" y="646" width="324" height="22" rx="10" ry="10"></rect>
<text x="966" y="661">^&#91;YMD&#93;{2,4}\/?&#91;YMD&#93;{2,4}\/?&#91;YMD&#93;{2,4}$</text>
</g>
<path d="M1368 657a10 10 0 0 0 10 -10v-599"></path>
<path d="M794 48v629a10 10 0 0 0 10 10"></path>
<g>
<path d="M804 687h0"></path>
<path d="M960 687h408"></path>
<g class="terminal">
<path d="M804 687h0"></path>
<path d="M872 687h0"></path>
<rect x="804" y="676" width="68" height="22" rx="10" ry="10"></rect>
<text x="838" y="691">"UNIT"</text>
</g>
<path d="M872 687h10"></path>
<path d="M882 687h10"></path>
<g class="non-terminal">
<path d="M892 687h0"></path>
<path d="M960 687h0"></path>
<rect x="892" y="676" width="68" height="22"></rect>
<a xlink:href="reuse_source.svg"><text x="926" y="691">Source</text>
</a>
</g>
</g>
<path d="M1368 687a10 10 0 0 0 10 -10v-629"></path>
<path d="M794 48v659a10 10 0 0 0 10 10"></path>
<g class="terminal">
<path d="M804 717h0"></path>
<path d="M960 717h408"></path>
<rect x="804" y="706" width="156" height="22" rx="10" ry="10"></rect>
<text x="882" y="721">"INTENSIFIED OFF"</text>
</g>
<path d="M1368 717a10 10 0 0 0 10 -10v-659"></path>
<path d="M794 48v689a10 10 0 0 0 10 10"></path>
<g>
<path d="M804 747h0"></path>
<path d="M992 747h376"></path>
<g class="terminal">
<path d="M804 747h0"></path>
<path d="M904 747h0"></path>
<rect x="804" y="736" width="100" height="22" rx="10" ry="10"></rect>
<text x="854" y="751">"DECIMALS"</text>
</g>
<path d="M904 747h10"></path>
<path d="M914 747h10"></path>
<g class="non-terminal">
<path d="M924 747h0"></path>
<path d="M992 747h0"></path>
<rect x="924" y="736" width="68" height="22"></rect>
<a xlink:href="reuse_source.svg"><text x="958" y="751">Source</text>
</a>
</g>
</g>
<path d="M1368 747a10 10 0 0 0 10 -10v-689"></path>
<path d="M794 48v736a10 10 0 0 0 10 10"></path>
<g>
<path d="M804 794h0"></path>
<path d="M1368 794h0"></path>
<g class="terminal">
<path d="M804 794h0"></path>
<path d="M880 794h0"></path>
<rect x="804" y="783" width="76" height="22" rx="10" ry="10"></rect>
<text x="842" y="798">"COLOR"</text>
</g>
<path d="M880 794h10"></path>
<g>
<path d="M890 794h0"></path>
<path d="M974 794h0"></path>
<path d="M890 794a10 10 0 0 0 10 -10v0a10 10 0 0 1 10 -10"></path>
<g>
<path d="M910 774h44"></path>
</g>
<path d="M954 774a10 10 0 0 1 10 10v0a10 10 0 0 0 10 10"></path>
<path d="M890 794h20"></path>
<g class="terminal">
<path d="M910 794h0"></path>
<path d="M954 794h0"></path>
<rect x="910" y="783" width="44" height="22" rx="10" ry="10"></rect>
<text x="932" y="798">"="</text>
</g>
<path d="M954 794h20"></path>
</g>
<path d="M974 794h10"></path>
<g class="non-terminal">
<path d="M984 794h0"></path>
<path d="M1052 794h0"></path>
<rect x="984" y="783" width="68" height="22"></rect>
<a xlink:href="reuse_source.svg"><text x="1018" y="798">Source</text>
</a>
</g>
<path d="M1052 794h10"></path>
<g>
<path d="M1062 794h0"></path>
<path d="M1368 794h0"></path>
<path d="M1062 794a10 10 0 0 0 10 -10v-8a10 10 0 0 1 10 -10"></path>
<g>
<path d="M1082 766h266"></path>
</g>
<path d="M1348 766a10 10 0 0 1 10 10v8a10 10 0 0 0 10 10"></path>
<path d="M1062 794h20"></path>
<g>
<path d="M1082 794h0"></path>
<path d="M1348 794h0"></path>
<path d="M1082 794h20"></path>
<g>
<path d="M1102 794h0"></path>
<path d="M1296 794h32"></path>
<g class="terminal">
<path d="M1102 794h0"></path>
<path d="M1194 794h0"></path>
<rect x="1102" y="783" width="92" height="22" rx="10" ry="10"></rect>
<text x="1148" y="798">"INVERSE"</text>
</g>
<path d="M1194 794h10"></path>
<g>
<path d="M1204 794h0"></path>
<path d="M1296 794h0"></path>
<path d="M1204 794a10 10 0 0 0 10 -10v0a10 10 0 0 1 10 -10"></path>
<g>
<path d="M1224 774h52"></path>
</g>
<path d="M1276 774a10 10 0 0 1 10 10v0a10 10 0 0 0 10 10"></path>
<path d="M1204 794h20"></path>
<g class="terminal">
<path d="M1224 794h0"></path>
<path d="M1276 794h0"></path>
<rect x="1224" y="783" width="52" height="22" rx="10" ry="10"></rect>
<text x="1250" y="798">"ON"</text>
</g>
<path d="M1276 794h20"></path>
</g>
</g>
<path d="M1328 794h20"></path>
<path d="M1082 794a10 10 0 0 1 10 10v19a10 10 0 0 0 10 10"></path>
<g>
<path d="M1102 833h0"></path>
<path d="M1328 833h0"></path>
<g class="terminal">
<path d="M1102 833h0"></path>
<path d="M1226 833h0"></path>
<rect x="1102" y="822" width="124" height="22" rx="10" ry="10"></rect>
<text x="1164" y="837">"INTENSIFIED"</text>
</g>
<path d="M1226 833h10"></path>
<g>
<path d="M1236 833h0"></path>
<path d="M1328 833h0"></path>
<path d="M1236 833a10 10 0 0 0 10 -10v0a10 10 0 0 1 10 -10"></path>
<g>
<path d="M1256 813h52"></path>
</g>
<path d="M1308 813a10 10 0 0 1 10 10v0a10 10 0 0 0 10 10"></path>
<path d="M1236 833h20"></path>
<g class="terminal">
<path d="M1256 833h0"></path>
<path d="M1308 833h0"></path>
<rect x="1256" y="822" width="52" height="22" rx="10" ry="10"></rect>
<text x="1282" y="837">"ON"</text>
</g>
<path d="M1308 833h20"></path>
</g>
</g>
<path d="M1328 833a10 10 0 0 0 10 -10v-19a10 10 0 0 1 10 -10"></path>
</g>
<path d="M1348 794h20"></path>
</g>
</g>
<path d="M1368 794a10 10 0 0 0 10 -10v-736"></path>
<path d="M794 48v805a10 10 0 0 0 10 10"></path>
<g>
<path d="M804 863h0"></path>
<path d="M992 863h376"></path>
<g class="terminal">
<path d="M804 863h0"></path>
<path d="M904 863h0"></path>
<rect x="804" y="852" width="100" height="22" rx="10" ry="10"></rect>
<text x="854" y="867">"CURRENCY"</text>
</g>
<path d="M904 863h10"></path>
<path d="M914 863h10"></path>
<g class="non-terminal">
<path d="M924 863h0"></path>
<path d="M992 863h0"></path>
<rect x="924" y="852" width="68" height="22"></rect>
<a xlink:href="reuse_source.svg"><text x="958" y="867">Source</text>
</a>
</g>
</g>
<path d="M1368 863a10 10 0 0 0 10 -10v-805"></path>
<path d="M794 48v835a10 10 0 0 0 10 10"></path>
<g class="terminal">
<path d="M804 893h0"></path>
<path d="M896 893h472"></path>
<rect x="804" y="882" width="92" height="22" rx="10" ry="10"></rect>
<text x="850" y="897">"NO-SIGN"</text>
</g>
<path d="M1368 893a10 10 0 0 0 10 -10v-835"></path>
<g class="diagram-text">
<title>take one or more branches, once each, in any order</title>
<path d="M 794 38 h -26 a 4 4 0 0 0 -4 4 v 12 a 4 4 0 0 0 4 4 h 26 z" class="diagram-text"></path>
<text x="779" y="52" class="diagram-text">1+</text>
<path d="M 1378 38 h 16 a 4 4 0 0 1 4 4 v 12 a 4 4 0 0 1 -4 4 h -16 z" class="diagram-text"></path>
<path d="M 1385 46 a 4 4 0 1 0 6 -1 m 2.75 -1 h -4 v 4 m 0 -3 h 2" style="stroke-width: 1.75"></path>
</g>
</g>
<path d="M1398 48h20"></path>
</g>
</g>
<path d="M1418 48h10"></path>
<path d="M 1428 48 h 20 m -10 -10 v 20 m 10 -20 v 20"></path>
</g>
</svg>
