<svg xmlns="http://www.w3.org/2000/svg" xmlns:xlink="http://www.w3.org/1999/xlink" class="railroad-diagram" width="1180" height="388" viewBox="0 0 1180 388">
<defs>
<style type="text/css"><![CDATA[
path {
stroke-width: 3;
stroke: black;
fill: rgba(0,0,0,0);
}
text {
font: bold 14px monospace;
text-anchor: middle;
}
text.diagram-text {
font-size: 12px;
}
a {
fill: blue;
}
text.diagram-arrow {
font-size: 16px;
}
text.label {
text-anchor: start;
}
text.comment {
font: italic 12px monospace;
}
rect {
stroke-width: 3;
stroke: black;
fill: #BCBCBC;
}
path.diagram-text {
stroke-width: 3;
stroke: black;
fill: #BCBCBC;
cursor: help;
}
]]></style>
</defs>
<g transform="translate(.5 .5)">
<path d="M 20 38 v 20 m 10 -20 v 20 m -10 -10 h 20.5"></path>
<path d="M40 48h10"></path>
<g>
<path d="M50 48h0"></path>
<path d="M1130 48h0"></path>
<g class="terminal">
<path d="M50 48h0"></path>
<path d="M126 48h0"></path>
<rect x="50" y="37" width="76" height="22" rx="10" ry="10"></rect>
<text x="88" y="52">"WRITE"</text>
</g>
<path d="M126 48h10"></path>
<g>
<path d="M136 48h0"></path>
<path d="M522 48h0"></path>
<path d="M136 48a10 10 0 0 0 10 -10v-8a10 10 0 0 1 10 -10"></path>
<g>
<path d="M156 20h346"></path>
</g>
<path d="M502 20a10 10 0 0 1 10 10v8a10 10 0 0 0 10 10"></path>
<path d="M136 48h20"></path>
<g>
<path d="M156 48h0"></path>
<path d="M502 48h0"></path>
<path d="M156 48h20"></path>
<g>
<path d="M176 48h0"></path>
<path d="M362 48h120"></path>
<g>
<path d="M176 48h0"></path>
<path d="M268 48h0"></path>
<path d="M176 48a10 10 0 0 0 10 -10v0a10 10 0 0 1 10 -10"></path>
<g>
<path d="M196 28h52"></path>
</g>
<path d="M248 28a10 10 0 0 1 10 10v0a10 10 0 0 0 10 10"></path>
<path d="M176 48h20"></path>
<g class="terminal">
<path d="M196 48h0"></path>
<path d="M248 48h0"></path>
<rect x="196" y="37" width="52" height="22" rx="10" ry="10"></rect>
<text x="222" y="52">"AT"</text>
</g>
<path d="M248 48h20"></path>
</g>
<path d="M268 48h10"></path>
<g class="terminal">
<path d="M278 48h0"></path>
<path d="M362 48h0"></path>
<rect x="278" y="37" width="84" height="22" rx="10" ry="10"></rect>
<text x="320" y="52">^\/?\d+$</text>
</g>
</g>
<path d="M482 48h20"></path>
<path d="M156 48a10 10 0 0 1 10 10v19a10 10 0 0 0 10 10"></path>
<g>
<path d="M176 87h0"></path>
<path d="M482 87h0"></path>
<g class="terminal">
<path d="M176 87h0"></path>
<path d="M220 87h0"></path>
<rect x="176" y="76" width="44" height="22" rx="10" ry="10"></rect>
<text x="198" y="91">"/"</text>
</g>
<path d="M220 87h10"></path>
<g>
<path d="M230 87h0"></path>
<path d="M482 87h0"></path>
<path d="M230 87a10 10 0 0 0 10 -10v0a10 10 0 0 1 10 -10"></path>
<g>
<path d="M250 67h212"></path>
</g>
<path d="M462 67a10 10 0 0 1 10 10v0a10 10 0 0 0 10 10"></path>
<path d="M230 87h20"></path>
<g>
<path d="M250 87h0"></path>
<path d="M462 87h0"></path>
<g class="terminal">
<path d="M250 87h0"></path>
<path d="M302 87h0"></path>
<rect x="250" y="76" width="52" height="22" rx="10" ry="10"></rect>
<text x="276" y="91">!"("</text>
</g>
<path d="M302 87h10"></path>
<path d="M312 87h10"></path>
<g class="terminal">
<path d="M322 87h0"></path>
<path d="M382 87h0"></path>
<rect x="322" y="76" width="60" height="22" rx="10" ry="10"></rect>
<text x="352" y="91">^\d+$</text>
</g>
<path d="M382 87h10"></path>
<path d="M392 87h10"></path>
<g class="terminal">
<path d="M402 87h0"></path>
<path d="M462 87h0"></path>
<rect x="402" y="76" width="60" height="22" rx="10" ry="10"></rect>
<text x="432" y="91">!") "</text>
</g>
</g>
<path d="M462 87h20"></path>
</g>
</g>
<path d="M482 87a10 10 0 0 0 10 -10v-19a10 10 0 0 1 10 -10"></path>
</g>
<path d="M502 48h20"></path>
</g>
<g>
<path d="M522 48h0"></path>
<path d="M630 48h0"></path>
<path d="M522 48a10 10 0 0 0 10 -10v0a10 10 0 0 1 10 -10"></path>
<g>
<path d="M542 28h68"></path>
</g>
<path d="M610 28a10 10 0 0 1 10 10v0a10 10 0 0 0 10 10"></path>
<path d="M522 48h20"></path>
<g class="non-terminal">
<path d="M542 48h0"></path>
<path d="M610 48h0"></path>
<rect x="542" y="37" width="68" height="22"></rect>
<a xlink:href="reuse_source.svg"><text x="576" y="52">source</text>
</a>
</g>
<path d="M610 48h20"></path>
</g>
<g>
<path d="M630 48h0"></path>
<path d="M1130 48h0"></path>
<path d="M630 48a10 10 0 0 0 10 -10v0a10 10 0 0 1 10 -10"></path>
<g>
<path d="M650 28h460"></path>
</g>
<path d="M1110 28a10 10 0 0 1 10 10v0a10 10 0 0 0 10 10"></path>
<path d="M630 48h20"></path>
<g>
<path d="M650 48h0"></path>
<path d="M1110 48h0"></path>
<path d="M680 48h10"></path>
<g>
<path d="M690 48h0"></path>
<path d="M934 48h146"></path>
<g class="terminal">
<path d="M690 48h0"></path>
<path d="M846 48h0"></path>
<rect x="690" y="37" width="156" height="22" rx="10" ry="10"></rect>
<text x="768" y="52">"USING EDIT MASK"</text>
</g>
<path d="M846 48h10"></path>
<path d="M856 48h10"></path>
<g class="non-terminal">
<path d="M866 48h0"></path>
<path d="M934 48h0"></path>
<rect x="866" y="37" width="68" height="22"></rect>
<a xlink:href="reuse_source.svg"><text x="900" y="52">source</text>
</a>
</g>
</g>
<path d="M1080 48h10"></path>
<path d="M680 48v20a10 10 0 0 0 10 10"></path>
<g>
<path d="M690 78h0"></path>
<path d="M830 78h250"></path>
<g class="terminal">
<path d="M690 78h0"></path>
<path d="M742 78h0"></path>
<rect x="690" y="67" width="52" height="22" rx="10" ry="10"></rect>
<text x="716" y="82">"TO"</text>
</g>
<path d="M742 78h10"></path>
<path d="M752 78h10"></path>
<g class="non-terminal">
<path d="M762 78h0"></path>
<path d="M830 78h0"></path>
<rect x="762" y="67" width="68" height="22"></rect>
<a xlink:href="reuse_target.svg"><text x="796" y="82">target</text>
</a>
</g>
</g>
<path d="M1080 78a10 10 0 0 0 10 -10v-20"></path>
<path d="M680 48v50a10 10 0 0 0 10 10"></path>
<g class="terminal">
<path d="M690 108h0"></path>
<path d="M806 108h274"></path>
<rect x="690" y="97" width="116" height="22" rx="10" ry="10"></rect>
<text x="748" y="112">"EXPONENT 0"</text>
</g>
<path d="M1080 108a10 10 0 0 0 10 -10v-50"></path>
<path d="M680 48v80a10 10 0 0 0 10 10"></path>
<g class="terminal">
<path d="M690 138h0"></path>
<path d="M814 138h266"></path>
<rect x="690" y="127" width="124" height="22" rx="10" ry="10"></rect>
<text x="752" y="142">"NO-GROUPING"</text>
</g>
<path d="M1080 138a10 10 0 0 0 10 -10v-80"></path>
<path d="M680 48v110a10 10 0 0 0 10 10"></path>
<g class="terminal">
<path d="M690 168h0"></path>
<path d="M782 168h298"></path>
<rect x="690" y="157" width="92" height="22" rx="10" ry="10"></rect>
<text x="736" y="172">"NO-ZERO"</text>
</g>
<path d="M1080 168a10 10 0 0 0 10 -10v-110"></path>
<path d="M680 48v140a10 10 0 0 0 10 10"></path>
<g class="terminal">
<path d="M690 198h0"></path>
<path d="M838 198h242"></path>
<rect x="690" y="187" width="148" height="22" rx="10" ry="10"></rect>
<text x="764" y="202">"LEFT-JUSTIFIED"</text>
</g>
<path d="M1080 198a10 10 0 0 0 10 -10v-140"></path>
<path d="M680 48v170a10 10 0 0 0 10 10"></path>
<g>
<path d="M690 228h0"></path>
<path d="M846 228h234"></path>
<g class="terminal">
<path d="M690 228h0"></path>
<path d="M758 228h0"></path>
<rect x="690" y="217" width="68" height="22" rx="10" ry="10"></rect>
<text x="724" y="232">"UNIT"</text>
</g>
<path d="M758 228h10"></path>
<path d="M768 228h10"></path>
<g class="non-terminal">
<path d="M778 228h0"></path>
<path d="M846 228h0"></path>
<rect x="778" y="217" width="68" height="22"></rect>
<a xlink:href="reuse_source.svg"><text x="812" y="232">source</text>
</a>
</g>
</g>
<path d="M1080 228a10 10 0 0 0 10 -10v-170"></path>
<path d="M680 48v200a10 10 0 0 0 10 10"></path>
<g>
<path d="M690 258h0"></path>
<path d="M878 258h202"></path>
<g class="terminal">
<path d="M690 258h0"></path>
<path d="M790 258h0"></path>
<rect x="690" y="247" width="100" height="22" rx="10" ry="10"></rect>
<text x="740" y="262">"DECIMALS"</text>
</g>
<path d="M790 258h10"></path>
<path d="M800 258h10"></path>
<g class="non-terminal">
<path d="M810 258h0"></path>
<path d="M878 258h0"></path>
<rect x="810" y="247" width="68" height="22"></rect>
<a xlink:href="reuse_source.svg"><text x="844" y="262">source</text>
</a>
</g>
</g>
<path d="M1080 258a10 10 0 0 0 10 -10v-200"></path>
<path d="M680 48v239a10 10 0 0 0 10 10"></path>
<g>
<path d="M690 297h0"></path>
<path d="M1080 297h0"></path>
<g class="terminal">
<path d="M690 297h0"></path>
<path d="M766 297h0"></path>
<rect x="690" y="286" width="76" height="22" rx="10" ry="10"></rect>
<text x="728" y="301">"COLOR"</text>
</g>
<path d="M766 297h10"></path>
<g>
<path d="M776 297h0"></path>
<path d="M860 297h0"></path>
<path d="M776 297a10 10 0 0 0 10 -10v0a10 10 0 0 1 10 -10"></path>
<g>
<path d="M796 277h44"></path>
</g>
<path d="M840 277a10 10 0 0 1 10 10v0a10 10 0 0 0 10 10"></path>
<path d="M776 297h20"></path>
<g class="terminal">
<path d="M796 297h0"></path>
<path d="M840 297h0"></path>
<rect x="796" y="286" width="44" height="22" rx="10" ry="10"></rect>
<text x="818" y="301">"="</text>
</g>
<path d="M840 297h20"></path>
</g>
<path d="M860 297h10"></path>
<g class="non-terminal">
<path d="M870 297h0"></path>
<path d="M938 297h0"></path>
<rect x="870" y="286" width="68" height="22"></rect>
<a xlink:href="reuse_source.svg"><text x="904" y="301">source</text>
</a>
</g>
<path d="M938 297h10"></path>
<g>
<path d="M948 297h0"></path>
<path d="M1080 297h0"></path>
<path d="M948 297a10 10 0 0 0 10 -10v0a10 10 0 0 1 10 -10"></path>
<g>
<path d="M968 277h92"></path>
</g>
<path d="M1060 277a10 10 0 0 1 10 10v0a10 10 0 0 0 10 10"></path>
<path d="M948 297h20"></path>
<g class="terminal">
<path d="M968 297h0"></path>
<path d="M1060 297h0"></path>
<rect x="968" y="286" width="92" height="22" rx="10" ry="10"></rect>
<text x="1014" y="301">"INVERSE"</text>
</g>
<path d="M1060 297h20"></path>
</g>
</g>
<path d="M1080 297a10 10 0 0 0 10 -10v-239"></path>
<path d="M680 48v269a10 10 0 0 0 10 10"></path>
<g>
<path d="M690 327h0"></path>
<path d="M878 327h202"></path>
<g class="terminal">
<path d="M690 327h0"></path>
<path d="M790 327h0"></path>
<rect x="690" y="316" width="100" height="22" rx="10" ry="10"></rect>
<text x="740" y="331">"CURRENCY"</text>
</g>
<path d="M790 327h10"></path>
<path d="M800 327h10"></path>
<g class="non-terminal">
<path d="M810 327h0"></path>
<path d="M878 327h0"></path>
<rect x="810" y="316" width="68" height="22"></rect>
<a xlink:href="reuse_source.svg"><text x="844" y="331">source</text>
</a>
</g>
</g>
<path d="M1080 327a10 10 0 0 0 10 -10v-269"></path>
<path d="M680 48v299a10 10 0 0 0 10 10"></path>
<g class="terminal">
<path d="M690 357h0"></path>
<path d="M782 357h298"></path>
<rect x="690" y="346" width="92" height="22" rx="10" ry="10"></rect>
<text x="736" y="361">"NO-SIGN"</text>
</g>
<path d="M1080 357a10 10 0 0 0 10 -10v-299"></path>
<g class="diagram-text">
<title>take one or more branches, once each, in any order</title>
<path d="M 680 38 h -26 a 4 4 0 0 0 -4 4 v 12 a 4 4 0 0 0 4 4 h 26 z" class="diagram-text"></path>
<text x="665" y="52" class="diagram-text">1+</text>
<path d="M 1090 38 h 16 a 4 4 0 0 1 4 4 v 12 a 4 4 0 0 1 -4 4 h -16 z" class="diagram-text"></path>
<path d="M 1097 46 a 4 4 0 1 0 6 -1 m 2.75 -1 h -4 v 4 m 0 -3 h 2" style="stroke-width: 1.75"></path>
</g>
</g>
<path d="M1110 48h20"></path>
</g>
</g>
<path d="M1130 48h10"></path>
<path d="M 1140 48 h 20 m -10 -10 v 20 m 10 -20 v 20"></path>
</g>
</svg>
