<svg xmlns="http://www.w3.org/2000/svg" xmlns:xlink="http://www.w3.org/1999/xlink" class="railroad-diagram" width="1468" height="915" viewBox="0 0 1468 915">
<defs>
<style type="text/css"><![CDATA[
path {
stroke-width: 3;
stroke: black;
fill: rgba(0,0,0,0);
}
text {
font: bold 14px monospace;
text-anchor: middle;
}
text.diagram-text {
font-size: 12px;
}
a {
fill: blue;
}
text.diagram-arrow {
font-size: 16px;
}
text.label {
text-anchor: start;
}
text.comment {
font: italic 12px monospace;
}
rect {
stroke-width: 3;
stroke: black;
fill: #BCBCBC;
}
path.diagram-text {
stroke-width: 3;
stroke: black;
fill: #BCBCBC;
cursor: help;
}
]]></style>
</defs>
<g transform="translate(.5 .5)">
<path d="M 20 38 v 20 m 10 -20 v 20 m -10 -10 h 20.5"></path>
<path d="M40 48h10"></path>
<g>
<path d="M50 48h0"></path>
<path d="M1418 48h0"></path>
<g class="terminal">
<path d="M50 48h0"></path>
<path d="M126 48h0"></path>
<rect x="50" y="37" width="76" height="22" rx="10" ry="10"></rect>
<text x="88" y="52">"WRITE"</text>
</g>
<path d="M126 48h10"></path>
<g>
<path d="M136 48h0"></path>
<path d="M636 48h0"></path>
<path d="M136 48a10 10 0 0 0 10 -10v-8a10 10 0 0 1 10 -10"></path>
<g>
<path d="M156 20h460"></path>
</g>
<path d="M616 20a10 10 0 0 1 10 10v8a10 10 0 0 0 10 10"></path>
<path d="M136 48h20"></path>
<g>
<path d="M156 48h0"></path>
<path d="M616 48h0"></path>
<path d="M156 48h20"></path>
<g>
<path d="M176 48h0"></path>
<path d="M362 48h234"></path>
<g>
<path d="M176 48h0"></path>
<path d="M268 48h0"></path>
<path d="M176 48a10 10 0 0 0 10 -10v0a10 10 0 0 1 10 -10"></path>
<g>
<path d="M196 28h52"></path>
</g>
<path d="M248 28a10 10 0 0 1 10 10v0a10 10 0 0 0 10 10"></path>
<path d="M176 48h20"></path>
<g class="terminal">
<path d="M196 48h0"></path>
<path d="M248 48h0"></path>
<rect x="196" y="37" width="52" height="22" rx="10" ry="10"></rect>
<text x="222" y="52">"AT"</text>
</g>
<path d="M248 48h20"></path>
</g>
<path d="M268 48h10"></path>
<g class="terminal">
<path d="M278 48h0"></path>
<path d="M362 48h0"></path>
<rect x="278" y="37" width="84" height="22" rx="10" ry="10"></rect>
<text x="320" y="52">^\/?\d+$</text>
</g>
</g>
<path d="M596 48h20"></path>
<path d="M156 48a10 10 0 0 1 10 10v19a10 10 0 0 0 10 10"></path>
<g>
<path d="M176 87h0"></path>
<path d="M596 87h0"></path>
<path d="M176 87h20"></path>
<g>
<path d="M196 87h0"></path>
<path d="M502 87h74"></path>
<g class="terminal">
<path d="M196 87h0"></path>
<path d="M240 87h0"></path>
<rect x="196" y="76" width="44" height="22" rx="10" ry="10"></rect>
<text x="218" y="91">"/"</text>
</g>
<path d="M240 87h10"></path>
<g>
<path d="M250 87h0"></path>
<path d="M502 87h0"></path>
<path d="M250 87a10 10 0 0 0 10 -10v0a10 10 0 0 1 10 -10"></path>
<g>
<path d="M270 67h212"></path>
</g>
<path d="M482 67a10 10 0 0 1 10 10v0a10 10 0 0 0 10 10"></path>
<path d="M250 87h20"></path>
<g>
<path d="M270 87h0"></path>
<path d="M482 87h0"></path>
<g class="terminal">
<path d="M270 87h0"></path>
<path d="M322 87h0"></path>
<rect x="270" y="76" width="52" height="22" rx="10" ry="10"></rect>
<text x="296" y="91">!"("</text>
</g>
<path d="M322 87h10"></path>
<path d="M332 87h10"></path>
<g class="terminal">
<path d="M342 87h0"></path>
<path d="M402 87h0"></path>
<rect x="342" y="76" width="60" height="22" rx="10" ry="10"></rect>
<text x="372" y="91">^\d+$</text>
</g>
<path d="M402 87h10"></path>
<path d="M412 87h10"></path>
<g class="terminal">
<path d="M422 87h0"></path>
<path d="M482 87h0"></path>
<rect x="422" y="76" width="60" height="22" rx="10" ry="10"></rect>
<text x="452" y="91">!") "</text>
</g>
</g>
<path d="M482 87h20"></path>
</g>
</g>
<path d="M576 87h20"></path>
<path d="M176 87a10 10 0 0 1 10 10v19a10 10 0 0 0 10 10"></path>
<g>
<path d="M196 126h0"></path>
<path d="M550 126h26"></path>
<g>
<path d="M196 126h0"></path>
<path d="M288 126h0"></path>
<path d="M196 126a10 10 0 0 0 10 -10v0a10 10 0 0 1 10 -10"></path>
<g>
<path d="M216 106h52"></path>
</g>
<path d="M268 106a10 10 0 0 1 10 10v0a10 10 0 0 0 10 10"></path>
<path d="M196 126h20"></path>
<g class="terminal">
<path d="M216 126h0"></path>
<path d="M268 126h0"></path>
<rect x="216" y="115" width="52" height="22" rx="10" ry="10"></rect>
<text x="242" y="130">"AT"</text>
</g>
<path d="M268 126h20"></path>
</g>
<path d="M288 126h10"></path>
<g class="terminal">
<path d="M298 126h0"></path>
<path d="M358 126h0"></path>
<rect x="298" y="115" width="60" height="22" rx="10" ry="10"></rect>
<text x="328" y="130">!" ("</text>
</g>
<path d="M358 126h10"></path>
<path d="M368 126h10"></path>
<g class="terminal">
<path d="M378 126h0"></path>
<path d="M470 126h0"></path>
<rect x="378" y="115" width="92" height="22" rx="10" ry="10"></rect>
<text x="424" y="130">^&#91;\w\d&#93;+$</text>
</g>
<path d="M470 126h10"></path>
<path d="M480 126h10"></path>
<g class="terminal">
<path d="M490 126h0"></path>
<path d="M550 126h0"></path>
<rect x="490" y="115" width="60" height="22" rx="10" ry="10"></rect>
<text x="520" y="130">!") "</text>
</g>
</g>
<path d="M576 126a10 10 0 0 0 10 -10v-19a10 10 0 0 1 10 -10"></path>
<path d="M176 87a10 10 0 0 1 10 10v49a10 10 0 0 0 10 10"></path>
<g>
<path d="M196 156h0"></path>
<path d="M512 156h64"></path>
<g class="terminal">
<path d="M196 156h0"></path>
<path d="M280 156h0"></path>
<rect x="196" y="145" width="84" height="22" rx="10" ry="10"></rect>
<text x="238" y="160">^\/?\d+$</text>
</g>
<path d="M280 156h10"></path>
<path d="M290 156h10"></path>
<g class="terminal">
<path d="M300 156h0"></path>
<path d="M352 156h0"></path>
<rect x="300" y="145" width="52" height="22" rx="10" ry="10"></rect>
<text x="326" y="160">!"("</text>
</g>
<path d="M352 156h10"></path>
<path d="M362 156h10"></path>
<g class="terminal">
<path d="M372 156h0"></path>
<path d="M432 156h0"></path>
<rect x="372" y="145" width="60" height="22" rx="10" ry="10"></rect>
<text x="402" y="160">^\d+$</text>
</g>
<path d="M432 156h10"></path>
<path d="M442 156h10"></path>
<g class="terminal">
<path d="M452 156h0"></path>
<path d="M512 156h0"></path>
<rect x="452" y="145" width="60" height="22" rx="10" ry="10"></rect>
<text x="482" y="160">!") "</text>
</g>
</g>
<path d="M576 156a10 10 0 0 0 10 -10v-49a10 10 0 0 1 10 -10"></path>
<path d="M176 87a10 10 0 0 1 10 10v79a10 10 0 0 0 10 10"></path>
<g>
<path d="M196 186h0"></path>
<path d="M576 186h0"></path>
<g class="terminal">
<path d="M196 186h0"></path>
<path d="M248 186h0"></path>
<rect x="196" y="175" width="52" height="22" rx="10" ry="10"></rect>
<text x="222" y="190">"AT"</text>
</g>
<path d="M248 186h10"></path>
<path d="M258 186h10"></path>
<g class="terminal">
<path d="M268 186h0"></path>
<path d="M312 186h0"></path>
<rect x="268" y="175" width="44" height="22" rx="10" ry="10"></rect>
<text x="290" y="190">"/"</text>
</g>
<path d="M312 186h10"></path>
<path d="M322 186h10"></path>
<g class="terminal">
<path d="M332 186h0"></path>
<path d="M384 186h0"></path>
<rect x="332" y="175" width="52" height="22" rx="10" ry="10"></rect>
<text x="358" y="190">!"("</text>
</g>
<path d="M384 186h10"></path>
<path d="M394 186h10"></path>
<g class="terminal">
<path d="M404 186h0"></path>
<path d="M496 186h0"></path>
<rect x="404" y="175" width="92" height="22" rx="10" ry="10"></rect>
<text x="450" y="190">^&#91;\w\d&#93;+$</text>
</g>
<path d="M496 186h10"></path>
<path d="M506 186h10"></path>
<g class="terminal">
<path d="M516 186h0"></path>
<path d="M576 186h0"></path>
<rect x="516" y="175" width="60" height="22" rx="10" ry="10"></rect>
<text x="546" y="190">!") "</text>
</g>
</g>
<path d="M576 186a10 10 0 0 0 10 -10v-79a10 10 0 0 1 10 -10"></path>
</g>
<path d="M596 87a10 10 0 0 0 10 -10v-19a10 10 0 0 1 10 -10"></path>
</g>
<path d="M616 48h20"></path>
</g>
<g>
<path d="M636 48h0"></path>
<path d="M744 48h0"></path>
<path d="M636 48a10 10 0 0 0 10 -10v0a10 10 0 0 1 10 -10"></path>
<g>
<path d="M656 28h68"></path>
</g>
<path d="M724 28a10 10 0 0 1 10 10v0a10 10 0 0 0 10 10"></path>
<path d="M636 48h20"></path>
<g class="non-terminal">
<path d="M656 48h0"></path>
<path d="M724 48h0"></path>
<rect x="656" y="37" width="68" height="22"></rect>
<a xlink:href="reuse_source.svg"><text x="690" y="52">Source</text>
</a>
</g>
<path d="M724 48h20"></path>
</g>
<g>
<path d="M744 48h0"></path>
<path d="M1418 48h0"></path>
<path d="M744 48a10 10 0 0 0 10 -10v0a10 10 0 0 1 10 -10"></path>
<g>
<path d="M764 28h634"></path>
</g>
<path d="M1398 28a10 10 0 0 1 10 10v0a10 10 0 0 0 10 10"></path>
<path d="M744 48h20"></path>
<g>
<path d="M764 48h0"></path>
<path d="M1398 48h0"></path>
<path d="M794 48h10"></path>
<g>
<path d="M804 48h0"></path>
<path d="M1048 48h320"></path>
<g class="terminal">
<path d="M804 48h0"></path>
<path d="M960 48h0"></path>
<rect x="804" y="37" width="156" height="22" rx="10" ry="10"></rect>
<text x="882" y="52">"USING EDIT MASK"</text>
</g>
<path d="M960 48h10"></path>
<path d="M970 48h10"></path>
<g class="non-terminal">
<path d="M980 48h0"></path>
<path d="M1048 48h0"></path>
<rect x="980" y="37" width="68" height="22"></rect>
<a xlink:href="reuse_source.svg"><text x="1014" y="52">Source</text>
</a>
</g>
</g>
<path d="M1368 48h10"></path>
<path d="M794 48v20a10 10 0 0 0 10 10"></path>
<g>
<path d="M804 78h0"></path>
<path d="M944 78h424"></path>
<g class="terminal">
<path d="M804 78h0"></path>
<path d="M856 78h0"></path>
<rect x="804" y="67" width="52" height="22" rx="10" ry="10"></rect>
<text x="830" y="82">"TO"</text>
</g>
<path d="M856 78h10"></path>
<path d="M866 78h10"></path>
<g class="non-terminal">
<path d="M876 78h0"></path>
<path d="M944 78h0"></path>
<rect x="876" y="67" width="68" height="22"></rect>
<a xlink:href="reuse_target.svg"><text x="910" y="82">Target</text>
</a>
</g>
</g>
<path d="M1368 78a10 10 0 0 0 10 -10v-20"></path>
<path d="M794 48v50a10 10 0 0 0 10 10"></path>
<g>
<path d="M804 108h0"></path>
<path d="M992 108h376"></path>
<g class="terminal">
<path d="M804 108h0"></path>
<path d="M904 108h0"></path>
<rect x="804" y="97" width="100" height="22" rx="10" ry="10"></rect>
<text x="854" y="112">"EXPONENT"</text>
</g>
<path d="M904 108h10"></path>
<path d="M914 108h10"></path>
<g class="non-terminal">
<path d="M924 108h0"></path>
<path d="M992 108h0"></path>
<rect x="924" y="97" width="68" height="22"></rect>
<a xlink:href="reuse_source.svg"><text x="958" y="112">Source</text>
</a>
</g>
</g>
<path d="M1368 108a10 10 0 0 0 10 -10v-50"></path>
<path d="M794 48v80a10 10 0 0 0 10 10"></path>
<g class="terminal">
<path d="M804 138h0"></path>
<path d="M928 138h440"></path>
<rect x="804" y="127" width="124" height="22" rx="10" ry="10"></rect>
<text x="866" y="142">"NO-GROUPING"</text>
</g>
<path d="M1368 138a10 10 0 0 0 10 -10v-80"></path>
<path d="M794 48v110a10 10 0 0 0 10 10"></path>
<g class="terminal">
<path d="M804 168h0"></path>
<path d="M896 168h472"></path>
<rect x="804" y="157" width="92" height="22" rx="10" ry="10"></rect>
<text x="850" y="172">"NO-ZERO"</text>
</g>
<path d="M1368 168a10 10 0 0 0 10 -10v-110"></path>
<path d="M794 48v140a10 10 0 0 0 10 10"></path>
<g>
<path d="M804 198h0"></path>
<path d="M990 198h378"></path>
<g class="terminal">
<path d="M804 198h0"></path>
<path d="M880 198h0"></path>
<rect x="804" y="187" width="76" height="22" rx="10" ry="10"></rect>
<text x="842" y="202">"INPUT"</text>
</g>
<path d="M880 198h10"></path>
<g>
<path d="M890 198h0"></path>
<path d="M990 198h0"></path>
<path d="M890 198h20"></path>
<g class="terminal">
<path d="M910 198h0"></path>
<path d="M962 198h8"></path>
<rect x="910" y="187" width="52" height="22" rx="10" ry="10"></rect>
<text x="936" y="202">"ON"</text>
</g>
<path d="M970 198h20"></path>
<path d="M890 198a10 10 0 0 1 10 10v10a10 10 0 0 0 10 10"></path>
<g class="terminal">
<path d="M910 228h0"></path>
<path d="M970 228h0"></path>
<rect x="910" y="217" width="60" height="22" rx="10" ry="10"></rect>
<text x="940" y="232">"OFF"</text>
</g>
<path d="M970 228a10 10 0 0 0 10 -10v-10a10 10 0 0 1 10 -10"></path>
</g>
</g>
<path d="M1368 198a10 10 0 0 0 10 -10v-140"></path>
<path d="M794 48v200a10 10 0 0 0 10 10"></path>
<g class="terminal">
<path d="M804 258h0"></path>
<path d="M888 258h480"></path>
<rect x="804" y="247" width="84" height="22" rx="10" ry="10"></rect>
<text x="846" y="262">"NO-GAP"</text>
</g>
<path d="M1368 258a10 10 0 0 0 10 -10v-200"></path>
<path d="M794 48v230a10 10 0 0 0 10 10"></path>
<g class="terminal">
<path d="M804 288h0"></path>
<path d="M952 288h416"></path>
<rect x="804" y="277" width="148" height="22" rx="10" ry="10"></rect>
<text x="878" y="292">"LEFT-JUSTIFIED"</text>
</g>
<path d="M1368 288a10 10 0 0 0 10 -10v-230"></path>
<path d="M794 48v260a10 10 0 0 0 10 10"></path>
<g class="terminal">
<path d="M804 318h0"></path>
<path d="M896 318h472"></path>
<rect x="804" y="307" width="92" height="22" rx="10" ry="10"></rect>
<text x="850" y="322">"AS LINE"</text>
</g>
<path d="M1368 318a10 10 0 0 0 10 -10v-260"></path>
<path d="M794 48v290a10 10 0 0 0 10 10"></path>
<g class="terminal">
<path d="M804 348h0"></path>
<path d="M896 348h472"></path>
<rect x="804" y="337" width="92" height="22" rx="10" ry="10"></rect>
<text x="850" y="352">"AS ICON"</text>
</g>
<path d="M1368 348a10 10 0 0 0 10 -10v-290"></path>
<path d="M794 48v320a10 10 0 0 0 10 10"></path>
<g class="terminal">
<path d="M804 378h0"></path>
<path d="M896 378h472"></path>
<rect x="804" y="367" width="92" height="22" rx="10" ry="10"></rect>
<text x="850" y="382">"HOTSPOT"</text>
</g>
<path d="M1368 378a10 10 0 0 0 10 -10v-320"></path>
<path d="M794 48v350a10 10 0 0 0 10 10"></path>
<g class="terminal">
<path d="M804 408h0"></path>
<path d="M928 408h440"></path>
<rect x="804" y="397" width="124" height="22" rx="10" ry="10"></rect>
<text x="866" y="412">"AS CHECKBOX"</text>
</g>
<path d="M1368 408a10 10 0 0 0 10 -10v-350"></path>
<path d="M794 48v380a10 10 0 0 0 10 10"></path>
<g class="terminal">
<path d="M804 438h0"></path>
<path d="M912 438h456"></path>
<rect x="804" y="427" width="108" height="22" rx="10" ry="10"></rect>
<text x="858" y="442">"AS SYMBOL"</text>
</g>
<path d="M1368 438a10 10 0 0 0 10 -10v-380"></path>
<path d="M794 48v410a10 10 0 0 0 10 10"></path>
<g class="terminal">
<path d="M804 468h0"></path>
<path d="M960 468h408"></path>
<rect x="804" y="457" width="156" height="22" rx="10" ry="10"></rect>
<text x="882" y="472">"RIGHT-JUSTIFIED"</text>
</g>
<path d="M1368 468a10 10 0 0 0 10 -10v-410"></path>
<path d="M794 48v440a10 10 0 0 0 10 10"></path>
<g>
<path d="M804 498h0"></path>
<path d="M1000 498h368"></path>
<g class="terminal">
<path d="M804 498h0"></path>
<path d="M912 498h0"></path>
<rect x="804" y="487" width="108" height="22" rx="10" ry="10"></rect>
<text x="858" y="502">"TIME ZONE"</text>
</g>
<path d="M912 498h10"></path>
<path d="M922 498h10"></path>
<g class="non-terminal">
<path d="M932 498h0"></path>
<path d="M1000 498h0"></path>
<rect x="932" y="487" width="68" height="22"></rect>
<a xlink:href="reuse_source.svg"><text x="966" y="502">Source</text>
</a>
</g>
</g>
<path d="M1368 498a10 10 0 0 0 10 -10v-440"></path>
<path d="M794 48v470a10 10 0 0 0 10 10"></path>
<g>
<path d="M804 528h0"></path>
<path d="M968 528h400"></path>
<g class="terminal">
<path d="M804 528h0"></path>
<path d="M880 528h0"></path>
<rect x="804" y="517" width="76" height="22" rx="10" ry="10"></rect>
<text x="842" y="532">"UNDER"</text>
</g>
<path d="M880 528h10"></path>
<path d="M890 528h10"></path>
<g class="non-terminal">
<path d="M900 528h0"></path>
<path d="M968 528h0"></path>
<rect x="900" y="517" width="68" height="22"></rect>
<a xlink:href="reuse_source.svg"><text x="934" y="532">Source</text>
</a>
</g>
</g>
<path d="M1368 528a10 10 0 0 0 10 -10v-470"></path>
<path d="M794 48v500a10 10 0 0 0 10 10"></path>
<g>
<path d="M804 558h0"></path>
<path d="M968 558h400"></path>
<g class="terminal">
<path d="M804 558h0"></path>
<path d="M880 558h0"></path>
<rect x="804" y="547" width="76" height="22" rx="10" ry="10"></rect>
<text x="842" y="562">"STYLE"</text>
</g>
<path d="M880 558h10"></path>
<path d="M890 558h10"></path>
<g class="non-terminal">
<path d="M900 558h0"></path>
<path d="M968 558h0"></path>
<rect x="900" y="547" width="68" height="22"></rect>
<a xlink:href="reuse_source.svg"><text x="934" y="562">Source</text>
</a>
</g>
</g>
<path d="M1368 558a10 10 0 0 0 10 -10v-500"></path>
<path d="M794 48v530a10 10 0 0 0 10 10"></path>
<g>
<path d="M804 588h0"></path>
<path d="M968 588h400"></path>
<g class="terminal">
<path d="M804 588h0"></path>
<path d="M880 588h0"></path>
<rect x="804" y="577" width="76" height="22" rx="10" ry="10"></rect>
<text x="842" y="592">"ROUND"</text>
</g>
<path d="M880 588h10"></path>
<path d="M890 588h10"></path>
<g class="non-terminal">
<path d="M900 588h0"></path>
<path d="M968 588h0"></path>
<rect x="900" y="577" width="68" height="22"></rect>
<a xlink:href="reuse_source.svg"><text x="934" y="592">Source</text>
</a>
</g>
</g>
<path d="M1368 588a10 10 0 0 0 10 -10v-530"></path>
<path d="M794 48v560a10 10 0 0 0 10 10"></path>
<g class="terminal">
<path d="M804 618h0"></path>
<path d="M1024 618h344"></path>
<rect x="804" y="607" width="220" height="22" rx="10" ry="10"></rect>
<text x="914" y="622">"ENVIRONMENT TIME FORMAT"</text>
</g>
<path d="M1368 618a10 10 0 0 0 10 -10v-560"></path>
<path d="M794 48v590a10 10 0 0 0 10 10"></path>
<g class="terminal">
<path d="M804 648h0"></path>
<path d="M1128 648h240"></path>
<rect x="804" y="637" width="324" height="22" rx="10" ry="10"></rect>
<text x="966" y="652">^&#91;YMD&#93;{2,4}\/?&#91;YMD&#93;{2,4}\/?&#91;YMD&#93;{2,4}$</text>
</g>
<path d="M1368 648a10 10 0 0 0 10 -10v-590"></path>
<path d="M794 48v620a10 10 0 0 0 10 10"></path>
<g>
<path d="M804 678h0"></path>
<path d="M960 678h408"></path>
<g class="terminal">
<path d="M804 678h0"></path>
<path d="M872 678h0"></path>
<rect x="804" y="667" width="68" height="22" rx="10" ry="10"></rect>
<text x="838" y="682">"UNIT"</text>
</g>
<path d="M872 678h10"></path>
<path d="M882 678h10"></path>
<g class="non-terminal">
<path d="M892 678h0"></path>
<path d="M960 678h0"></path>
<rect x="892" y="667" width="68" height="22"></rect>
<a xlink:href="reuse_source.svg"><text x="926" y="682">Source</text>
</a>
</g>
</g>
<path d="M1368 678a10 10 0 0 0 10 -10v-620"></path>
<path d="M794 48v650a10 10 0 0 0 10 10"></path>
<g class="terminal">
<path d="M804 708h0"></path>
<path d="M960 708h408"></path>
<rect x="804" y="697" width="156" height="22" rx="10" ry="10"></rect>
<text x="882" y="712">"INTENSIFIED OFF"</text>
</g>
<path d="M1368 708a10 10 0 0 0 10 -10v-650"></path>
<path d="M794 48v680a10 10 0 0 0 10 10"></path>
<g>
<path d="M804 738h0"></path>
<path d="M992 738h376"></path>
<g class="terminal">
<path d="M804 738h0"></path>
<path d="M904 738h0"></path>
<rect x="804" y="727" width="100" height="22" rx="10" ry="10"></rect>
<text x="854" y="742">"DECIMALS"</text>
</g>
<path d="M904 738h10"></path>
<path d="M914 738h10"></path>
<g class="non-terminal">
<path d="M924 738h0"></path>
<path d="M992 738h0"></path>
<rect x="924" y="727" width="68" height="22"></rect>
<a xlink:href="reuse_source.svg"><text x="958" y="742">Source</text>
</a>
</g>
</g>
<path d="M1368 738a10 10 0 0 0 10 -10v-680"></path>
<path d="M794 48v727a10 10 0 0 0 10 10"></path>
<g>
<path d="M804 785h0"></path>
<path d="M1368 785h0"></path>
<g class="terminal">
<path d="M804 785h0"></path>
<path d="M880 785h0"></path>
<rect x="804" y="774" width="76" height="22" rx="10" ry="10"></rect>
<text x="842" y="789">"COLOR"</text>
</g>
<path d="M880 785h10"></path>
<g>
<path d="M890 785h0"></path>
<path d="M974 785h0"></path>
<path d="M890 785a10 10 0 0 0 10 -10v0a10 10 0 0 1 10 -10"></path>
<g>
<path d="M910 765h44"></path>
</g>
<path d="M954 765a10 10 0 0 1 10 10v0a10 10 0 0 0 10 10"></path>
<path d="M890 785h20"></path>
<g class="terminal">
<path d="M910 785h0"></path>
<path d="M954 785h0"></path>
<rect x="910" y="774" width="44" height="22" rx="10" ry="10"></rect>
<text x="932" y="789">"="</text>
</g>
<path d="M954 785h20"></path>
</g>
<path d="M974 785h10"></path>
<g class="non-terminal">
<path d="M984 785h0"></path>
<path d="M1052 785h0"></path>
<rect x="984" y="774" width="68" height="22"></rect>
<a xlink:href="reuse_source.svg"><text x="1018" y="789">Source</text>
</a>
</g>
<path d="M1052 785h10"></path>
<g>
<path d="M1062 785h0"></path>
<path d="M1368 785h0"></path>
<path d="M1062 785a10 10 0 0 0 10 -10v-8a10 10 0 0 1 10 -10"></path>
<g>
<path d="M1082 757h266"></path>
</g>
<path d="M1348 757a10 10 0 0 1 10 10v8a10 10 0 0 0 10 10"></path>
<path d="M1062 785h20"></path>
<g>
<path d="M1082 785h0"></path>
<path d="M1348 785h0"></path>
<path d="M1082 785h20"></path>
<g>
<path d="M1102 785h0"></path>
<path d="M1296 785h32"></path>
<g class="terminal">
<path d="M1102 785h0"></path>
<path d="M1194 785h0"></path>
<rect x="1102" y="774" width="92" height="22" rx="10" ry="10"></rect>
<text x="1148" y="789">"INVERSE"</text>
</g>
<path d="M1194 785h10"></path>
<g>
<path d="M1204 785h0"></path>
<path d="M1296 785h0"></path>
<path d="M1204 785a10 10 0 0 0 10 -10v0a10 10 0 0 1 10 -10"></path>
<g>
<path d="M1224 765h52"></path>
</g>
<path d="M1276 765a10 10 0 0 1 10 10v0a10 10 0 0 0 10 10"></path>
<path d="M1204 785h20"></path>
<g class="terminal">
<path d="M1224 785h0"></path>
<path d="M1276 785h0"></path>
<rect x="1224" y="774" width="52" height="22" rx="10" ry="10"></rect>
<text x="1250" y="789">"ON"</text>
</g>
<path d="M1276 785h20"></path>
</g>
</g>
<path d="M1328 785h20"></path>
<path d="M1082 785a10 10 0 0 1 10 10v19a10 10 0 0 0 10 10"></path>
<g>
<path d="M1102 824h0"></path>
<path d="M1328 824h0"></path>
<g class="terminal">
<path d="M1102 824h0"></path>
<path d="M1226 824h0"></path>
<rect x="1102" y="813" width="124" height="22" rx="10" ry="10"></rect>
<text x="1164" y="828">"INTENSIFIED"</text>
</g>
<path d="M1226 824h10"></path>
<g>
<path d="M1236 824h0"></path>
<path d="M1328 824h0"></path>
<path d="M1236 824a10 10 0 0 0 10 -10v0a10 10 0 0 1 10 -10"></path>
<g>
<path d="M1256 804h52"></path>
</g>
<path d="M1308 804a10 10 0 0 1 10 10v0a10 10 0 0 0 10 10"></path>
<path d="M1236 824h20"></path>
<g class="terminal">
<path d="M1256 824h0"></path>
<path d="M1308 824h0"></path>
<rect x="1256" y="813" width="52" height="22" rx="10" ry="10"></rect>
<text x="1282" y="828">"ON"</text>
</g>
<path d="M1308 824h20"></path>
</g>
</g>
<path d="M1328 824a10 10 0 0 0 10 -10v-19a10 10 0 0 1 10 -10"></path>
</g>
<path d="M1348 785h20"></path>
</g>
</g>
<path d="M1368 785a10 10 0 0 0 10 -10v-727"></path>
<path d="M794 48v796a10 10 0 0 0 10 10"></path>
<g>
<path d="M804 854h0"></path>
<path d="M992 854h376"></path>
<g class="terminal">
<path d="M804 854h0"></path>
<path d="M904 854h0"></path>
<rect x="804" y="843" width="100" height="22" rx="10" ry="10"></rect>
<text x="854" y="858">"CURRENCY"</text>
</g>
<path d="M904 854h10"></path>
<path d="M914 854h10"></path>
<g class="non-terminal">
<path d="M924 854h0"></path>
<path d="M992 854h0"></path>
<rect x="924" y="843" width="68" height="22"></rect>
<a xlink:href="reuse_source.svg"><text x="958" y="858">Source</text>
</a>
</g>
</g>
<path d="M1368 854a10 10 0 0 0 10 -10v-796"></path>
<path d="M794 48v826a10 10 0 0 0 10 10"></path>
<g class="terminal">
<path d="M804 884h0"></path>
<path d="M896 884h472"></path>
<rect x="804" y="873" width="92" height="22" rx="10" ry="10"></rect>
<text x="850" y="888">"NO-SIGN"</text>
</g>
<path d="M1368 884a10 10 0 0 0 10 -10v-826"></path>
<g class="diagram-text">
<title>take one or more branches, once each, in any order</title>
<path d="M 794 38 h -26 a 4 4 0 0 0 -4 4 v 12 a 4 4 0 0 0 4 4 h 26 z" class="diagram-text"></path>
<text x="779" y="52" class="diagram-text">1+</text>
<path d="M 1378 38 h 16 a 4 4 0 0 1 4 4 v 12 a 4 4 0 0 1 -4 4 h -16 z" class="diagram-text"></path>
<path d="M 1385 46 a 4 4 0 1 0 6 -1 m 2.75 -1 h -4 v 4 m 0 -3 h 2" style="stroke-width: 1.75"></path>
</g>
</g>
<path d="M1398 48h20"></path>
</g>
</g>
<path d="M1418 48h10"></path>
<path d="M 1428 48 h 20 m -10 -10 v 20 m 10 -20 v 20"></path>
</g>
</svg>
