<svg xmlns="http://www.w3.org/2000/svg" xmlns:xlink="http://www.w3.org/1999/xlink" class="railroad-diagram" width="1180" height="538" viewBox="0 0 1180 538">
<defs>
<style type="text/css"><![CDATA[
path {
stroke-width: 3;
stroke: black;
fill: rgba(0,0,0,0);
}
text {
font: bold 14px monospace;
text-anchor: middle;
}
text.diagram-text {
font-size: 12px;
}
a {
fill: blue;
}
text.diagram-arrow {
font-size: 16px;
}
text.label {
text-anchor: start;
}
text.comment {
font: italic 12px monospace;
}
rect {
stroke-width: 3;
stroke: black;
fill: #BCBCBC;
}
path.diagram-text {
stroke-width: 3;
stroke: black;
fill: #BCBCBC;
cursor: help;
}
]]></style>
</defs>
<g transform="translate(.5 .5)">
<path d="M 20 38 v 20 m 10 -20 v 20 m -10 -10 h 20.5"></path>
<path d="M40 48h10"></path>
<g>
<path d="M50 48h0"></path>
<path d="M1130 48h0"></path>
<g class="terminal">
<path d="M50 48h0"></path>
<path d="M126 48h0"></path>
<rect x="50" y="37" width="76" height="22" rx="10" ry="10"></rect>
<text x="88" y="52">"WRITE"</text>
</g>
<path d="M126 48h10"></path>
<g>
<path d="M136 48h0"></path>
<path d="M522 48h0"></path>
<path d="M136 48a10 10 0 0 0 10 -10v-8a10 10 0 0 1 10 -10"></path>
<g>
<path d="M156 20h346"></path>
</g>
<path d="M502 20a10 10 0 0 1 10 10v8a10 10 0 0 0 10 10"></path>
<path d="M136 48h20"></path>
<g>
<path d="M156 48h0"></path>
<path d="M502 48h0"></path>
<path d="M156 48h20"></path>
<g>
<path d="M176 48h0"></path>
<path d="M362 48h120"></path>
<g>
<path d="M176 48h0"></path>
<path d="M268 48h0"></path>
<path d="M176 48a10 10 0 0 0 10 -10v0a10 10 0 0 1 10 -10"></path>
<g>
<path d="M196 28h52"></path>
</g>
<path d="M248 28a10 10 0 0 1 10 10v0a10 10 0 0 0 10 10"></path>
<path d="M176 48h20"></path>
<g class="terminal">
<path d="M196 48h0"></path>
<path d="M248 48h0"></path>
<rect x="196" y="37" width="52" height="22" rx="10" ry="10"></rect>
<text x="222" y="52">"AT"</text>
</g>
<path d="M248 48h20"></path>
</g>
<path d="M268 48h10"></path>
<g class="terminal">
<path d="M278 48h0"></path>
<path d="M362 48h0"></path>
<rect x="278" y="37" width="84" height="22" rx="10" ry="10"></rect>
<text x="320" y="52">^\/?\d+$</text>
</g>
</g>
<path d="M482 48h20"></path>
<path d="M156 48a10 10 0 0 1 10 10v19a10 10 0 0 0 10 10"></path>
<g>
<path d="M176 87h0"></path>
<path d="M482 87h0"></path>
<g class="terminal">
<path d="M176 87h0"></path>
<path d="M220 87h0"></path>
<rect x="176" y="76" width="44" height="22" rx="10" ry="10"></rect>
<text x="198" y="91">"/"</text>
</g>
<path d="M220 87h10"></path>
<g>
<path d="M230 87h0"></path>
<path d="M482 87h0"></path>
<path d="M230 87a10 10 0 0 0 10 -10v0a10 10 0 0 1 10 -10"></path>
<g>
<path d="M250 67h212"></path>
</g>
<path d="M462 67a10 10 0 0 1 10 10v0a10 10 0 0 0 10 10"></path>
<path d="M230 87h20"></path>
<g>
<path d="M250 87h0"></path>
<path d="M462 87h0"></path>
<g class="terminal">
<path d="M250 87h0"></path>
<path d="M302 87h0"></path>
<rect x="250" y="76" width="52" height="22" rx="10" ry="10"></rect>
<text x="276" y="91">!"("</text>
</g>
<path d="M302 87h10"></path>
<path d="M312 87h10"></path>
<g class="terminal">
<path d="M322 87h0"></path>
<path d="M382 87h0"></path>
<rect x="322" y="76" width="60" height="22" rx="10" ry="10"></rect>
<text x="352" y="91">^\d+$</text>
</g>
<path d="M382 87h10"></path>
<path d="M392 87h10"></path>
<g class="terminal">
<path d="M402 87h0"></path>
<path d="M462 87h0"></path>
<rect x="402" y="76" width="60" height="22" rx="10" ry="10"></rect>
<text x="432" y="91">!") "</text>
</g>
</g>
<path d="M462 87h20"></path>
</g>
</g>
<path d="M482 87a10 10 0 0 0 10 -10v-19a10 10 0 0 1 10 -10"></path>
</g>
<path d="M502 48h20"></path>
</g>
<g>
<path d="M522 48h0"></path>
<path d="M630 48h0"></path>
<path d="M522 48a10 10 0 0 0 10 -10v0a10 10 0 0 1 10 -10"></path>
<g>
<path d="M542 28h68"></path>
</g>
<path d="M610 28a10 10 0 0 1 10 10v0a10 10 0 0 0 10 10"></path>
<path d="M522 48h20"></path>
<g class="non-terminal">
<path d="M542 48h0"></path>
<path d="M610 48h0"></path>
<rect x="542" y="37" width="68" height="22"></rect>
<a xlink:href="reuse_source.svg"><text x="576" y="52">Source</text>
</a>
</g>
<path d="M610 48h20"></path>
</g>
<g>
<path d="M630 48h0"></path>
<path d="M1130 48h0"></path>
<path d="M630 48a10 10 0 0 0 10 -10v0a10 10 0 0 1 10 -10"></path>
<g>
<path d="M650 28h460"></path>
</g>
<path d="M1110 28a10 10 0 0 1 10 10v0a10 10 0 0 0 10 10"></path>
<path d="M630 48h20"></path>
<g>
<path d="M650 48h0"></path>
<path d="M1110 48h0"></path>
<path d="M680 48h10"></path>
<g>
<path d="M690 48h0"></path>
<path d="M934 48h146"></path>
<g class="terminal">
<path d="M690 48h0"></path>
<path d="M846 48h0"></path>
<rect x="690" y="37" width="156" height="22" rx="10" ry="10"></rect>
<text x="768" y="52">"USING EDIT MASK"</text>
</g>
<path d="M846 48h10"></path>
<path d="M856 48h10"></path>
<g class="non-terminal">
<path d="M866 48h0"></path>
<path d="M934 48h0"></path>
<rect x="866" y="37" width="68" height="22"></rect>
<a xlink:href="reuse_source.svg"><text x="900" y="52">Source</text>
</a>
</g>
</g>
<path d="M1080 48h10"></path>
<path d="M680 48v20a10 10 0 0 0 10 10"></path>
<g>
<path d="M690 78h0"></path>
<path d="M830 78h250"></path>
<g class="terminal">
<path d="M690 78h0"></path>
<path d="M742 78h0"></path>
<rect x="690" y="67" width="52" height="22" rx="10" ry="10"></rect>
<text x="716" y="82">"TO"</text>
</g>
<path d="M742 78h10"></path>
<path d="M752 78h10"></path>
<g class="non-terminal">
<path d="M762 78h0"></path>
<path d="M830 78h0"></path>
<rect x="762" y="67" width="68" height="22"></rect>
<a xlink:href="reuse_target.svg"><text x="796" y="82">Target</text>
</a>
</g>
</g>
<path d="M1080 78a10 10 0 0 0 10 -10v-20"></path>
<path d="M680 48v50a10 10 0 0 0 10 10"></path>
<g class="terminal">
<path d="M690 108h0"></path>
<path d="M806 108h274"></path>
<rect x="690" y="97" width="116" height="22" rx="10" ry="10"></rect>
<text x="748" y="112">"EXPONENT 0"</text>
</g>
<path d="M1080 108a10 10 0 0 0 10 -10v-50"></path>
<path d="M680 48v80a10 10 0 0 0 10 10"></path>
<g class="terminal">
<path d="M690 138h0"></path>
<path d="M814 138h266"></path>
<rect x="690" y="127" width="124" height="22" rx="10" ry="10"></rect>
<text x="752" y="142">"NO-GROUPING"</text>
</g>
<path d="M1080 138a10 10 0 0 0 10 -10v-80"></path>
<path d="M680 48v110a10 10 0 0 0 10 10"></path>
<g class="terminal">
<path d="M690 168h0"></path>
<path d="M782 168h298"></path>
<rect x="690" y="157" width="92" height="22" rx="10" ry="10"></rect>
<text x="736" y="172">"NO-ZERO"</text>
</g>
<path d="M1080 168a10 10 0 0 0 10 -10v-110"></path>
<path d="M680 48v140a10 10 0 0 0 10 10"></path>
<g class="terminal">
<path d="M690 198h0"></path>
<path d="M838 198h242"></path>
<rect x="690" y="187" width="148" height="22" rx="10" ry="10"></rect>
<text x="764" y="202">"LEFT-JUSTIFIED"</text>
</g>
<path d="M1080 198a10 10 0 0 0 10 -10v-140"></path>
<path d="M680 48v170a10 10 0 0 0 10 10"></path>
<g class="terminal">
<path d="M690 228h0"></path>
<path d="M846 228h234"></path>
<rect x="690" y="217" width="156" height="22" rx="10" ry="10"></rect>
<text x="768" y="232">"RIGHT-JUSTIFIED"</text>
</g>
<path d="M1080 228a10 10 0 0 0 10 -10v-170"></path>
<path d="M680 48v200a10 10 0 0 0 10 10"></path>
<g>
<path d="M690 258h0"></path>
<path d="M854 258h226"></path>
<g class="terminal">
<path d="M690 258h0"></path>
<path d="M766 258h0"></path>
<rect x="690" y="247" width="76" height="22" rx="10" ry="10"></rect>
<text x="728" y="262">"ROUND"</text>
</g>
<path d="M766 258h10"></path>
<path d="M776 258h10"></path>
<g class="non-terminal">
<path d="M786 258h0"></path>
<path d="M854 258h0"></path>
<rect x="786" y="247" width="68" height="22"></rect>
<a xlink:href="reuse_source.svg"><text x="820" y="262">Source</text>
</a>
</g>
</g>
<path d="M1080 258a10 10 0 0 0 10 -10v-200"></path>
<path d="M680 48v230a10 10 0 0 0 10 10"></path>
<g class="terminal">
<path d="M690 288h0"></path>
<path d="M910 288h170"></path>
<rect x="690" y="277" width="220" height="22" rx="10" ry="10"></rect>
<text x="800" y="292">"ENVIRONMENT TIME FORMAT"</text>
</g>
<path d="M1080 288a10 10 0 0 0 10 -10v-230"></path>
<path d="M680 48v260a10 10 0 0 0 10 10"></path>
<g class="terminal">
<path d="M690 318h0"></path>
<path d="M1014 318h66"></path>
<rect x="690" y="307" width="324" height="22" rx="10" ry="10"></rect>
<text x="852" y="322">^&#91;YMD&#93;{2,4}\/?&#91;YMD&#93;{2,4}\/?&#91;YMD&#93;{2,4}$</text>
</g>
<path d="M1080 318a10 10 0 0 0 10 -10v-260"></path>
<path d="M680 48v290a10 10 0 0 0 10 10"></path>
<g>
<path d="M690 348h0"></path>
<path d="M846 348h234"></path>
<g class="terminal">
<path d="M690 348h0"></path>
<path d="M758 348h0"></path>
<rect x="690" y="337" width="68" height="22" rx="10" ry="10"></rect>
<text x="724" y="352">"UNIT"</text>
</g>
<path d="M758 348h10"></path>
<path d="M768 348h10"></path>
<g class="non-terminal">
<path d="M778 348h0"></path>
<path d="M846 348h0"></path>
<rect x="778" y="337" width="68" height="22"></rect>
<a xlink:href="reuse_source.svg"><text x="812" y="352">Source</text>
</a>
</g>
</g>
<path d="M1080 348a10 10 0 0 0 10 -10v-290"></path>
<path d="M680 48v320a10 10 0 0 0 10 10"></path>
<g class="terminal">
<path d="M690 378h0"></path>
<path d="M846 378h234"></path>
<rect x="690" y="367" width="156" height="22" rx="10" ry="10"></rect>
<text x="768" y="382">"INTENSIFIED OFF"</text>
</g>
<path d="M1080 378a10 10 0 0 0 10 -10v-320"></path>
<path d="M680 48v350a10 10 0 0 0 10 10"></path>
<g>
<path d="M690 408h0"></path>
<path d="M878 408h202"></path>
<g class="terminal">
<path d="M690 408h0"></path>
<path d="M790 408h0"></path>
<rect x="690" y="397" width="100" height="22" rx="10" ry="10"></rect>
<text x="740" y="412">"DECIMALS"</text>
</g>
<path d="M790 408h10"></path>
<path d="M800 408h10"></path>
<g class="non-terminal">
<path d="M810 408h0"></path>
<path d="M878 408h0"></path>
<rect x="810" y="397" width="68" height="22"></rect>
<a xlink:href="reuse_source.svg"><text x="844" y="412">Source</text>
</a>
</g>
</g>
<path d="M1080 408a10 10 0 0 0 10 -10v-350"></path>
<path d="M680 48v389a10 10 0 0 0 10 10"></path>
<g>
<path d="M690 447h0"></path>
<path d="M1080 447h0"></path>
<g class="terminal">
<path d="M690 447h0"></path>
<path d="M766 447h0"></path>
<rect x="690" y="436" width="76" height="22" rx="10" ry="10"></rect>
<text x="728" y="451">"COLOR"</text>
</g>
<path d="M766 447h10"></path>
<g>
<path d="M776 447h0"></path>
<path d="M860 447h0"></path>
<path d="M776 447a10 10 0 0 0 10 -10v0a10 10 0 0 1 10 -10"></path>
<g>
<path d="M796 427h44"></path>
</g>
<path d="M840 427a10 10 0 0 1 10 10v0a10 10 0 0 0 10 10"></path>
<path d="M776 447h20"></path>
<g class="terminal">
<path d="M796 447h0"></path>
<path d="M840 447h0"></path>
<rect x="796" y="436" width="44" height="22" rx="10" ry="10"></rect>
<text x="818" y="451">"="</text>
</g>
<path d="M840 447h20"></path>
</g>
<path d="M860 447h10"></path>
<g class="non-terminal">
<path d="M870 447h0"></path>
<path d="M938 447h0"></path>
<rect x="870" y="436" width="68" height="22"></rect>
<a xlink:href="reuse_source.svg"><text x="904" y="451">Source</text>
</a>
</g>
<path d="M938 447h10"></path>
<g>
<path d="M948 447h0"></path>
<path d="M1080 447h0"></path>
<path d="M948 447a10 10 0 0 0 10 -10v0a10 10 0 0 1 10 -10"></path>
<g>
<path d="M968 427h92"></path>
</g>
<path d="M1060 427a10 10 0 0 1 10 10v0a10 10 0 0 0 10 10"></path>
<path d="M948 447h20"></path>
<g class="terminal">
<path d="M968 447h0"></path>
<path d="M1060 447h0"></path>
<rect x="968" y="436" width="92" height="22" rx="10" ry="10"></rect>
<text x="1014" y="451">"INVERSE"</text>
</g>
<path d="M1060 447h20"></path>
</g>
</g>
<path d="M1080 447a10 10 0 0 0 10 -10v-389"></path>
<path d="M680 48v419a10 10 0 0 0 10 10"></path>
<g>
<path d="M690 477h0"></path>
<path d="M878 477h202"></path>
<g class="terminal">
<path d="M690 477h0"></path>
<path d="M790 477h0"></path>
<rect x="690" y="466" width="100" height="22" rx="10" ry="10"></rect>
<text x="740" y="481">"CURRENCY"</text>
</g>
<path d="M790 477h10"></path>
<path d="M800 477h10"></path>
<g class="non-terminal">
<path d="M810 477h0"></path>
<path d="M878 477h0"></path>
<rect x="810" y="466" width="68" height="22"></rect>
<a xlink:href="reuse_source.svg"><text x="844" y="481">Source</text>
</a>
</g>
</g>
<path d="M1080 477a10 10 0 0 0 10 -10v-419"></path>
<path d="M680 48v449a10 10 0 0 0 10 10"></path>
<g class="terminal">
<path d="M690 507h0"></path>
<path d="M782 507h298"></path>
<rect x="690" y="496" width="92" height="22" rx="10" ry="10"></rect>
<text x="736" y="511">"NO-SIGN"</text>
</g>
<path d="M1080 507a10 10 0 0 0 10 -10v-449"></path>
<g class="diagram-text">
<title>take one or more branches, once each, in any order</title>
<path d="M 680 38 h -26 a 4 4 0 0 0 -4 4 v 12 a 4 4 0 0 0 4 4 h 26 z" class="diagram-text"></path>
<text x="665" y="52" class="diagram-text">1+</text>
<path d="M 1090 38 h 16 a 4 4 0 0 1 4 4 v 12 a 4 4 0 0 1 -4 4 h -16 z" class="diagram-text"></path>
<path d="M 1097 46 a 4 4 0 1 0 6 -1 m 2.75 -1 h -4 v 4 m 0 -3 h 2" style="stroke-width: 1.75"></path>
</g>
</g>
<path d="M1110 48h20"></path>
</g>
</g>
<path d="M1130 48h10"></path>
<path d="M 1140 48 h 20 m -10 -10 v 20 m 10 -20 v 20"></path>
</g>
</svg>
