<svg xmlns="http://www.w3.org/2000/svg" xmlns:xlink="http://www.w3.org/1999/xlink" class="railroad-diagram" width="1404" height="876" viewBox="0 0 1404 876">
<defs>
<style type="text/css"><![CDATA[
path {
stroke-width: 3;
stroke: black;
fill: rgba(0,0,0,0);
}
text {
font: bold 14px monospace;
text-anchor: middle;
}
text.diagram-text {
font-size: 12px;
}
a {
fill: blue;
}
text.diagram-arrow {
font-size: 16px;
}
text.label {
text-anchor: start;
}
text.comment {
font: italic 12px monospace;
}
rect {
stroke-width: 3;
stroke: black;
fill: #BCBCBC;
}
path.diagram-text {
stroke-width: 3;
stroke: black;
fill: #BCBCBC;
cursor: help;
}
]]></style>
</defs>
<g transform="translate(.5 .5)">
<path d="M 20 38 v 20 m 10 -20 v 20 m -10 -10 h 20.5"></path>
<path d="M40 48h10"></path>
<g>
<path d="M50 48h0"></path>
<path d="M1354 48h0"></path>
<g class="terminal">
<path d="M50 48h0"></path>
<path d="M126 48h0"></path>
<rect x="50" y="37" width="76" height="22" rx="10" ry="10"></rect>
<text x="88" y="52">"WRITE"</text>
</g>
<path d="M126 48h10"></path>
<g>
<path d="M136 48h0"></path>
<path d="M604 48h0"></path>
<path d="M136 48a10 10 0 0 0 10 -10v-8a10 10 0 0 1 10 -10"></path>
<g>
<path d="M156 20h428"></path>
</g>
<path d="M584 20a10 10 0 0 1 10 10v8a10 10 0 0 0 10 10"></path>
<path d="M136 48h20"></path>
<g>
<path d="M156 48h0"></path>
<path d="M584 48h0"></path>
<path d="M156 48h20"></path>
<g>
<path d="M176 48h0"></path>
<path d="M362 48h202"></path>
<g>
<path d="M176 48h0"></path>
<path d="M268 48h0"></path>
<path d="M176 48a10 10 0 0 0 10 -10v0a10 10 0 0 1 10 -10"></path>
<g>
<path d="M196 28h52"></path>
</g>
<path d="M248 28a10 10 0 0 1 10 10v0a10 10 0 0 0 10 10"></path>
<path d="M176 48h20"></path>
<g class="terminal">
<path d="M196 48h0"></path>
<path d="M248 48h0"></path>
<rect x="196" y="37" width="52" height="22" rx="10" ry="10"></rect>
<text x="222" y="52">"AT"</text>
</g>
<path d="M248 48h20"></path>
</g>
<path d="M268 48h10"></path>
<g class="terminal">
<path d="M278 48h0"></path>
<path d="M362 48h0"></path>
<rect x="278" y="37" width="84" height="22" rx="10" ry="10"></rect>
<text x="320" y="52">^\/?\d+$</text>
</g>
</g>
<path d="M564 48h20"></path>
<path d="M156 48a10 10 0 0 1 10 10v19a10 10 0 0 0 10 10"></path>
<g>
<path d="M176 87h0"></path>
<path d="M564 87h0"></path>
<path d="M176 87h20"></path>
<g>
<path d="M196 87h0"></path>
<path d="M502 87h42"></path>
<g class="terminal">
<path d="M196 87h0"></path>
<path d="M240 87h0"></path>
<rect x="196" y="76" width="44" height="22" rx="10" ry="10"></rect>
<text x="218" y="91">"/"</text>
</g>
<path d="M240 87h10"></path>
<g>
<path d="M250 87h0"></path>
<path d="M502 87h0"></path>
<path d="M250 87a10 10 0 0 0 10 -10v0a10 10 0 0 1 10 -10"></path>
<g>
<path d="M270 67h212"></path>
</g>
<path d="M482 67a10 10 0 0 1 10 10v0a10 10 0 0 0 10 10"></path>
<path d="M250 87h20"></path>
<g>
<path d="M270 87h0"></path>
<path d="M482 87h0"></path>
<g class="terminal">
<path d="M270 87h0"></path>
<path d="M322 87h0"></path>
<rect x="270" y="76" width="52" height="22" rx="10" ry="10"></rect>
<text x="296" y="91">!"("</text>
</g>
<path d="M322 87h10"></path>
<path d="M332 87h10"></path>
<g class="terminal">
<path d="M342 87h0"></path>
<path d="M402 87h0"></path>
<rect x="342" y="76" width="60" height="22" rx="10" ry="10"></rect>
<text x="372" y="91">^\d+$</text>
</g>
<path d="M402 87h10"></path>
<path d="M412 87h10"></path>
<g class="terminal">
<path d="M422 87h0"></path>
<path d="M482 87h0"></path>
<rect x="422" y="76" width="60" height="22" rx="10" ry="10"></rect>
<text x="452" y="91">!") "</text>
</g>
</g>
<path d="M482 87h20"></path>
</g>
</g>
<path d="M544 87h20"></path>
<path d="M176 87a10 10 0 0 1 10 10v10a10 10 0 0 0 10 10"></path>
<g>
<path d="M196 117h0"></path>
<path d="M416 117h128"></path>
<g class="terminal">
<path d="M196 117h0"></path>
<path d="M256 117h0"></path>
<rect x="196" y="106" width="60" height="22" rx="10" ry="10"></rect>
<text x="226" y="121">!" ("</text>
</g>
<path d="M256 117h10"></path>
<path d="M266 117h10"></path>
<g class="terminal">
<path d="M276 117h0"></path>
<path d="M336 117h0"></path>
<rect x="276" y="106" width="60" height="22" rx="10" ry="10"></rect>
<text x="306" y="121">^\d+$</text>
</g>
<path d="M336 117h10"></path>
<path d="M346 117h10"></path>
<g class="terminal">
<path d="M356 117h0"></path>
<path d="M416 117h0"></path>
<rect x="356" y="106" width="60" height="22" rx="10" ry="10"></rect>
<text x="386" y="121">!") "</text>
</g>
</g>
<path d="M544 117a10 10 0 0 0 10 -10v-10a10 10 0 0 1 10 -10"></path>
<path d="M176 87a10 10 0 0 1 10 10v40a10 10 0 0 0 10 10"></path>
<g>
<path d="M196 147h0"></path>
<path d="M512 147h32"></path>
<g class="terminal">
<path d="M196 147h0"></path>
<path d="M280 147h0"></path>
<rect x="196" y="136" width="84" height="22" rx="10" ry="10"></rect>
<text x="238" y="151">^\/?\d+$</text>
</g>
<path d="M280 147h10"></path>
<path d="M290 147h10"></path>
<g class="terminal">
<path d="M300 147h0"></path>
<path d="M352 147h0"></path>
<rect x="300" y="136" width="52" height="22" rx="10" ry="10"></rect>
<text x="326" y="151">!"("</text>
</g>
<path d="M352 147h10"></path>
<path d="M362 147h10"></path>
<g class="terminal">
<path d="M372 147h0"></path>
<path d="M432 147h0"></path>
<rect x="372" y="136" width="60" height="22" rx="10" ry="10"></rect>
<text x="402" y="151">^\d+$</text>
</g>
<path d="M432 147h10"></path>
<path d="M442 147h10"></path>
<g class="terminal">
<path d="M452 147h0"></path>
<path d="M512 147h0"></path>
<rect x="452" y="136" width="60" height="22" rx="10" ry="10"></rect>
<text x="482" y="151">!") "</text>
</g>
</g>
<path d="M544 147a10 10 0 0 0 10 -10v-40a10 10 0 0 1 10 -10"></path>
<path d="M176 87a10 10 0 0 1 10 10v70a10 10 0 0 0 10 10"></path>
<g>
<path d="M196 177h0"></path>
<path d="M544 177h0"></path>
<g class="terminal">
<path d="M196 177h0"></path>
<path d="M248 177h0"></path>
<rect x="196" y="166" width="52" height="22" rx="10" ry="10"></rect>
<text x="222" y="181">"AT"</text>
</g>
<path d="M248 177h10"></path>
<path d="M258 177h10"></path>
<g class="terminal">
<path d="M268 177h0"></path>
<path d="M312 177h0"></path>
<rect x="268" y="166" width="44" height="22" rx="10" ry="10"></rect>
<text x="290" y="181">"/"</text>
</g>
<path d="M312 177h10"></path>
<path d="M322 177h10"></path>
<g class="terminal">
<path d="M332 177h0"></path>
<path d="M384 177h0"></path>
<rect x="332" y="166" width="52" height="22" rx="10" ry="10"></rect>
<text x="358" y="181">!"("</text>
</g>
<path d="M384 177h10"></path>
<path d="M394 177h10"></path>
<g class="terminal">
<path d="M404 177h0"></path>
<path d="M464 177h0"></path>
<rect x="404" y="166" width="60" height="22" rx="10" ry="10"></rect>
<text x="434" y="181">^\d+$</text>
</g>
<path d="M464 177h10"></path>
<path d="M474 177h10"></path>
<g class="terminal">
<path d="M484 177h0"></path>
<path d="M544 177h0"></path>
<rect x="484" y="166" width="60" height="22" rx="10" ry="10"></rect>
<text x="514" y="181">!") "</text>
</g>
</g>
<path d="M544 177a10 10 0 0 0 10 -10v-70a10 10 0 0 1 10 -10"></path>
</g>
<path d="M564 87a10 10 0 0 0 10 -10v-19a10 10 0 0 1 10 -10"></path>
</g>
<path d="M584 48h20"></path>
</g>
<g>
<path d="M604 48h0"></path>
<path d="M712 48h0"></path>
<path d="M604 48a10 10 0 0 0 10 -10v0a10 10 0 0 1 10 -10"></path>
<g>
<path d="M624 28h68"></path>
</g>
<path d="M692 28a10 10 0 0 1 10 10v0a10 10 0 0 0 10 10"></path>
<path d="M604 48h20"></path>
<g class="non-terminal">
<path d="M624 48h0"></path>
<path d="M692 48h0"></path>
<rect x="624" y="37" width="68" height="22"></rect>
<a xlink:href="reuse_source.svg"><text x="658" y="52">Source</text>
</a>
</g>
<path d="M692 48h20"></path>
</g>
<g>
<path d="M712 48h0"></path>
<path d="M1354 48h0"></path>
<path d="M712 48a10 10 0 0 0 10 -10v0a10 10 0 0 1 10 -10"></path>
<g>
<path d="M732 28h602"></path>
</g>
<path d="M1334 28a10 10 0 0 1 10 10v0a10 10 0 0 0 10 10"></path>
<path d="M712 48h20"></path>
<g>
<path d="M732 48h0"></path>
<path d="M1334 48h0"></path>
<path d="M762 48h10"></path>
<g>
<path d="M772 48h0"></path>
<path d="M1016 48h288"></path>
<g class="terminal">
<path d="M772 48h0"></path>
<path d="M928 48h0"></path>
<rect x="772" y="37" width="156" height="22" rx="10" ry="10"></rect>
<text x="850" y="52">"USING EDIT MASK"</text>
</g>
<path d="M928 48h10"></path>
<path d="M938 48h10"></path>
<g class="non-terminal">
<path d="M948 48h0"></path>
<path d="M1016 48h0"></path>
<rect x="948" y="37" width="68" height="22"></rect>
<a xlink:href="reuse_source.svg"><text x="982" y="52">Source</text>
</a>
</g>
</g>
<path d="M1304 48h10"></path>
<path d="M762 48v20a10 10 0 0 0 10 10"></path>
<g>
<path d="M772 78h0"></path>
<path d="M912 78h392"></path>
<g class="terminal">
<path d="M772 78h0"></path>
<path d="M824 78h0"></path>
<rect x="772" y="67" width="52" height="22" rx="10" ry="10"></rect>
<text x="798" y="82">"TO"</text>
</g>
<path d="M824 78h10"></path>
<path d="M834 78h10"></path>
<g class="non-terminal">
<path d="M844 78h0"></path>
<path d="M912 78h0"></path>
<rect x="844" y="67" width="68" height="22"></rect>
<a xlink:href="reuse_target.svg"><text x="878" y="82">Target</text>
</a>
</g>
</g>
<path d="M1304 78a10 10 0 0 0 10 -10v-20"></path>
<path d="M762 48v50a10 10 0 0 0 10 10"></path>
<g>
<path d="M772 108h0"></path>
<path d="M960 108h344"></path>
<g class="terminal">
<path d="M772 108h0"></path>
<path d="M872 108h0"></path>
<rect x="772" y="97" width="100" height="22" rx="10" ry="10"></rect>
<text x="822" y="112">"EXPONENT"</text>
</g>
<path d="M872 108h10"></path>
<path d="M882 108h10"></path>
<g class="non-terminal">
<path d="M892 108h0"></path>
<path d="M960 108h0"></path>
<rect x="892" y="97" width="68" height="22"></rect>
<a xlink:href="reuse_source.svg"><text x="926" y="112">Source</text>
</a>
</g>
</g>
<path d="M1304 108a10 10 0 0 0 10 -10v-50"></path>
<path d="M762 48v80a10 10 0 0 0 10 10"></path>
<g class="terminal">
<path d="M772 138h0"></path>
<path d="M896 138h408"></path>
<rect x="772" y="127" width="124" height="22" rx="10" ry="10"></rect>
<text x="834" y="142">"NO-GROUPING"</text>
</g>
<path d="M1304 138a10 10 0 0 0 10 -10v-80"></path>
<path d="M762 48v110a10 10 0 0 0 10 10"></path>
<g class="terminal">
<path d="M772 168h0"></path>
<path d="M864 168h440"></path>
<rect x="772" y="157" width="92" height="22" rx="10" ry="10"></rect>
<text x="818" y="172">"NO-ZERO"</text>
</g>
<path d="M1304 168a10 10 0 0 0 10 -10v-110"></path>
<path d="M762 48v140a10 10 0 0 0 10 10"></path>
<g>
<path d="M772 198h0"></path>
<path d="M958 198h346"></path>
<g class="terminal">
<path d="M772 198h0"></path>
<path d="M848 198h0"></path>
<rect x="772" y="187" width="76" height="22" rx="10" ry="10"></rect>
<text x="810" y="202">"INPUT"</text>
</g>
<path d="M848 198h10"></path>
<g>
<path d="M858 198h0"></path>
<path d="M958 198h0"></path>
<path d="M858 198h20"></path>
<g class="terminal">
<path d="M878 198h0"></path>
<path d="M930 198h8"></path>
<rect x="878" y="187" width="52" height="22" rx="10" ry="10"></rect>
<text x="904" y="202">"ON"</text>
</g>
<path d="M938 198h20"></path>
<path d="M858 198a10 10 0 0 1 10 10v10a10 10 0 0 0 10 10"></path>
<g class="terminal">
<path d="M878 228h0"></path>
<path d="M938 228h0"></path>
<rect x="878" y="217" width="60" height="22" rx="10" ry="10"></rect>
<text x="908" y="232">"OFF"</text>
</g>
<path d="M938 228a10 10 0 0 0 10 -10v-10a10 10 0 0 1 10 -10"></path>
</g>
</g>
<path d="M1304 198a10 10 0 0 0 10 -10v-140"></path>
<path d="M762 48v200a10 10 0 0 0 10 10"></path>
<g class="terminal">
<path d="M772 258h0"></path>
<path d="M856 258h448"></path>
<rect x="772" y="247" width="84" height="22" rx="10" ry="10"></rect>
<text x="814" y="262">"NO-GAP"</text>
</g>
<path d="M1304 258a10 10 0 0 0 10 -10v-200"></path>
<path d="M762 48v230a10 10 0 0 0 10 10"></path>
<g class="terminal">
<path d="M772 288h0"></path>
<path d="M920 288h384"></path>
<rect x="772" y="277" width="148" height="22" rx="10" ry="10"></rect>
<text x="846" y="292">"LEFT-JUSTIFIED"</text>
</g>
<path d="M1304 288a10 10 0 0 0 10 -10v-230"></path>
<path d="M762 48v260a10 10 0 0 0 10 10"></path>
<g class="terminal">
<path d="M772 318h0"></path>
<path d="M864 318h440"></path>
<rect x="772" y="307" width="92" height="22" rx="10" ry="10"></rect>
<text x="818" y="322">"AS LINE"</text>
</g>
<path d="M1304 318a10 10 0 0 0 10 -10v-260"></path>
<path d="M762 48v290a10 10 0 0 0 10 10"></path>
<g class="terminal">
<path d="M772 348h0"></path>
<path d="M864 348h440"></path>
<rect x="772" y="337" width="92" height="22" rx="10" ry="10"></rect>
<text x="818" y="352">"AS ICON"</text>
</g>
<path d="M1304 348a10 10 0 0 0 10 -10v-290"></path>
<path d="M762 48v320a10 10 0 0 0 10 10"></path>
<g class="terminal">
<path d="M772 378h0"></path>
<path d="M864 378h440"></path>
<rect x="772" y="367" width="92" height="22" rx="10" ry="10"></rect>
<text x="818" y="382">"HOTSPOT"</text>
</g>
<path d="M1304 378a10 10 0 0 0 10 -10v-320"></path>
<path d="M762 48v350a10 10 0 0 0 10 10"></path>
<g class="terminal">
<path d="M772 408h0"></path>
<path d="M896 408h408"></path>
<rect x="772" y="397" width="124" height="22" rx="10" ry="10"></rect>
<text x="834" y="412">"AS CHECKBOX"</text>
</g>
<path d="M1304 408a10 10 0 0 0 10 -10v-350"></path>
<path d="M762 48v380a10 10 0 0 0 10 10"></path>
<g class="terminal">
<path d="M772 438h0"></path>
<path d="M880 438h424"></path>
<rect x="772" y="427" width="108" height="22" rx="10" ry="10"></rect>
<text x="826" y="442">"AS SYMBOL"</text>
</g>
<path d="M1304 438a10 10 0 0 0 10 -10v-380"></path>
<path d="M762 48v410a10 10 0 0 0 10 10"></path>
<g class="terminal">
<path d="M772 468h0"></path>
<path d="M928 468h376"></path>
<rect x="772" y="457" width="156" height="22" rx="10" ry="10"></rect>
<text x="850" y="472">"RIGHT-JUSTIFIED"</text>
</g>
<path d="M1304 468a10 10 0 0 0 10 -10v-410"></path>
<path d="M762 48v440a10 10 0 0 0 10 10"></path>
<g>
<path d="M772 498h0"></path>
<path d="M968 498h336"></path>
<g class="terminal">
<path d="M772 498h0"></path>
<path d="M880 498h0"></path>
<rect x="772" y="487" width="108" height="22" rx="10" ry="10"></rect>
<text x="826" y="502">"TIME ZONE"</text>
</g>
<path d="M880 498h10"></path>
<path d="M890 498h10"></path>
<g class="non-terminal">
<path d="M900 498h0"></path>
<path d="M968 498h0"></path>
<rect x="900" y="487" width="68" height="22"></rect>
<a xlink:href="reuse_source.svg"><text x="934" y="502">Source</text>
</a>
</g>
</g>
<path d="M1304 498a10 10 0 0 0 10 -10v-440"></path>
<path d="M762 48v470a10 10 0 0 0 10 10"></path>
<g>
<path d="M772 528h0"></path>
<path d="M936 528h368"></path>
<g class="terminal">
<path d="M772 528h0"></path>
<path d="M848 528h0"></path>
<rect x="772" y="517" width="76" height="22" rx="10" ry="10"></rect>
<text x="810" y="532">"UNDER"</text>
</g>
<path d="M848 528h10"></path>
<path d="M858 528h10"></path>
<g class="non-terminal">
<path d="M868 528h0"></path>
<path d="M936 528h0"></path>
<rect x="868" y="517" width="68" height="22"></rect>
<a xlink:href="reuse_source.svg"><text x="902" y="532">Source</text>
</a>
</g>
</g>
<path d="M1304 528a10 10 0 0 0 10 -10v-470"></path>
<path d="M762 48v500a10 10 0 0 0 10 10"></path>
<g>
<path d="M772 558h0"></path>
<path d="M936 558h368"></path>
<g class="terminal">
<path d="M772 558h0"></path>
<path d="M848 558h0"></path>
<rect x="772" y="547" width="76" height="22" rx="10" ry="10"></rect>
<text x="810" y="562">"ROUND"</text>
</g>
<path d="M848 558h10"></path>
<path d="M858 558h10"></path>
<g class="non-terminal">
<path d="M868 558h0"></path>
<path d="M936 558h0"></path>
<rect x="868" y="547" width="68" height="22"></rect>
<a xlink:href="reuse_source.svg"><text x="902" y="562">Source</text>
</a>
</g>
</g>
<path d="M1304 558a10 10 0 0 0 10 -10v-500"></path>
<path d="M762 48v530a10 10 0 0 0 10 10"></path>
<g class="terminal">
<path d="M772 588h0"></path>
<path d="M992 588h312"></path>
<rect x="772" y="577" width="220" height="22" rx="10" ry="10"></rect>
<text x="882" y="592">"ENVIRONMENT TIME FORMAT"</text>
</g>
<path d="M1304 588a10 10 0 0 0 10 -10v-530"></path>
<path d="M762 48v560a10 10 0 0 0 10 10"></path>
<g class="terminal">
<path d="M772 618h0"></path>
<path d="M1096 618h208"></path>
<rect x="772" y="607" width="324" height="22" rx="10" ry="10"></rect>
<text x="934" y="622">^&#91;YMD&#93;{2,4}\/?&#91;YMD&#93;{2,4}\/?&#91;YMD&#93;{2,4}$</text>
</g>
<path d="M1304 618a10 10 0 0 0 10 -10v-560"></path>
<path d="M762 48v590a10 10 0 0 0 10 10"></path>
<g>
<path d="M772 648h0"></path>
<path d="M928 648h376"></path>
<g class="terminal">
<path d="M772 648h0"></path>
<path d="M840 648h0"></path>
<rect x="772" y="637" width="68" height="22" rx="10" ry="10"></rect>
<text x="806" y="652">"UNIT"</text>
</g>
<path d="M840 648h10"></path>
<path d="M850 648h10"></path>
<g class="non-terminal">
<path d="M860 648h0"></path>
<path d="M928 648h0"></path>
<rect x="860" y="637" width="68" height="22"></rect>
<a xlink:href="reuse_source.svg"><text x="894" y="652">Source</text>
</a>
</g>
</g>
<path d="M1304 648a10 10 0 0 0 10 -10v-590"></path>
<path d="M762 48v620a10 10 0 0 0 10 10"></path>
<g class="terminal">
<path d="M772 678h0"></path>
<path d="M928 678h376"></path>
<rect x="772" y="667" width="156" height="22" rx="10" ry="10"></rect>
<text x="850" y="682">"INTENSIFIED OFF"</text>
</g>
<path d="M1304 678a10 10 0 0 0 10 -10v-620"></path>
<path d="M762 48v650a10 10 0 0 0 10 10"></path>
<g>
<path d="M772 708h0"></path>
<path d="M960 708h344"></path>
<g class="terminal">
<path d="M772 708h0"></path>
<path d="M872 708h0"></path>
<rect x="772" y="697" width="100" height="22" rx="10" ry="10"></rect>
<text x="822" y="712">"DECIMALS"</text>
</g>
<path d="M872 708h10"></path>
<path d="M882 708h10"></path>
<g class="non-terminal">
<path d="M892 708h0"></path>
<path d="M960 708h0"></path>
<rect x="892" y="697" width="68" height="22"></rect>
<a xlink:href="reuse_source.svg"><text x="926" y="712">Source</text>
</a>
</g>
</g>
<path d="M1304 708a10 10 0 0 0 10 -10v-650"></path>
<path d="M762 48v697a10 10 0 0 0 10 10"></path>
<g>
<path d="M772 755h0"></path>
<path d="M1304 755h0"></path>
<g class="terminal">
<path d="M772 755h0"></path>
<path d="M848 755h0"></path>
<rect x="772" y="744" width="76" height="22" rx="10" ry="10"></rect>
<text x="810" y="759">"COLOR"</text>
</g>
<path d="M848 755h10"></path>
<g>
<path d="M858 755h0"></path>
<path d="M942 755h0"></path>
<path d="M858 755a10 10 0 0 0 10 -10v0a10 10 0 0 1 10 -10"></path>
<g>
<path d="M878 735h44"></path>
</g>
<path d="M922 735a10 10 0 0 1 10 10v0a10 10 0 0 0 10 10"></path>
<path d="M858 755h20"></path>
<g class="terminal">
<path d="M878 755h0"></path>
<path d="M922 755h0"></path>
<rect x="878" y="744" width="44" height="22" rx="10" ry="10"></rect>
<text x="900" y="759">"="</text>
</g>
<path d="M922 755h20"></path>
</g>
<path d="M942 755h10"></path>
<g class="non-terminal">
<path d="M952 755h0"></path>
<path d="M1020 755h0"></path>
<rect x="952" y="744" width="68" height="22"></rect>
<a xlink:href="reuse_source.svg"><text x="986" y="759">Source</text>
</a>
</g>
<path d="M1020 755h10"></path>
<g>
<path d="M1030 755h0"></path>
<path d="M1304 755h0"></path>
<path d="M1030 755a10 10 0 0 0 10 -10v-8a10 10 0 0 1 10 -10"></path>
<g>
<path d="M1050 727h234"></path>
</g>
<path d="M1284 727a10 10 0 0 1 10 10v8a10 10 0 0 0 10 10"></path>
<path d="M1030 755h20"></path>
<g>
<path d="M1050 755h0"></path>
<path d="M1284 755h0"></path>
<path d="M1050 755h20"></path>
<g>
<path d="M1070 755h0"></path>
<path d="M1264 755h0"></path>
<g class="terminal">
<path d="M1070 755h0"></path>
<path d="M1162 755h0"></path>
<rect x="1070" y="744" width="92" height="22" rx="10" ry="10"></rect>
<text x="1116" y="759">"INVERSE"</text>
</g>
<path d="M1162 755h10"></path>
<g>
<path d="M1172 755h0"></path>
<path d="M1264 755h0"></path>
<path d="M1172 755a10 10 0 0 0 10 -10v0a10 10 0 0 1 10 -10"></path>
<g>
<path d="M1192 735h52"></path>
</g>
<path d="M1244 735a10 10 0 0 1 10 10v0a10 10 0 0 0 10 10"></path>
<path d="M1172 755h20"></path>
<g class="terminal">
<path d="M1192 755h0"></path>
<path d="M1244 755h0"></path>
<rect x="1192" y="744" width="52" height="22" rx="10" ry="10"></rect>
<text x="1218" y="759">"ON"</text>
</g>
<path d="M1244 755h20"></path>
</g>
</g>
<path d="M1264 755h20"></path>
<path d="M1050 755a10 10 0 0 1 10 10v10a10 10 0 0 0 10 10"></path>
<g class="terminal">
<path d="M1070 785h0"></path>
<path d="M1194 785h70"></path>
<rect x="1070" y="774" width="124" height="22" rx="10" ry="10"></rect>
<text x="1132" y="789">"INTENSIFIED"</text>
</g>
<path d="M1264 785a10 10 0 0 0 10 -10v-10a10 10 0 0 1 10 -10"></path>
</g>
<path d="M1284 755h20"></path>
</g>
</g>
<path d="M1304 755a10 10 0 0 0 10 -10v-697"></path>
<path d="M762 48v757a10 10 0 0 0 10 10"></path>
<g>
<path d="M772 815h0"></path>
<path d="M960 815h344"></path>
<g class="terminal">
<path d="M772 815h0"></path>
<path d="M872 815h0"></path>
<rect x="772" y="804" width="100" height="22" rx="10" ry="10"></rect>
<text x="822" y="819">"CURRENCY"</text>
</g>
<path d="M872 815h10"></path>
<path d="M882 815h10"></path>
<g class="non-terminal">
<path d="M892 815h0"></path>
<path d="M960 815h0"></path>
<rect x="892" y="804" width="68" height="22"></rect>
<a xlink:href="reuse_source.svg"><text x="926" y="819">Source</text>
</a>
</g>
</g>
<path d="M1304 815a10 10 0 0 0 10 -10v-757"></path>
<path d="M762 48v787a10 10 0 0 0 10 10"></path>
<g class="terminal">
<path d="M772 845h0"></path>
<path d="M864 845h440"></path>
<rect x="772" y="834" width="92" height="22" rx="10" ry="10"></rect>
<text x="818" y="849">"NO-SIGN"</text>
</g>
<path d="M1304 845a10 10 0 0 0 10 -10v-787"></path>
<g class="diagram-text">
<title>take one or more branches, once each, in any order</title>
<path d="M 762 38 h -26 a 4 4 0 0 0 -4 4 v 12 a 4 4 0 0 0 4 4 h 26 z" class="diagram-text"></path>
<text x="747" y="52" class="diagram-text">1+</text>
<path d="M 1314 38 h 16 a 4 4 0 0 1 4 4 v 12 a 4 4 0 0 1 -4 4 h -16 z" class="diagram-text"></path>
<path d="M 1321 46 a 4 4 0 1 0 6 -1 m 2.75 -1 h -4 v 4 m 0 -3 h 2" style="stroke-width: 1.75"></path>
</g>
</g>
<path d="M1334 48h20"></path>
</g>
</g>
<path d="M1354 48h10"></path>
<path d="M 1364 48 h 20 m -10 -10 v 20 m 10 -20 v 20"></path>
</g>
</svg>
