<svg xmlns="http://www.w3.org/2000/svg" xmlns:xlink="http://www.w3.org/1999/xlink" class="railroad-diagram" width="1252" height="778" viewBox="0 0 1252 778">
<defs>
<style type="text/css"><![CDATA[
path {
stroke-width: 3;
stroke: black;
fill: rgba(0,0,0,0);
}
text {
font: bold 14px monospace;
text-anchor: middle;
}
text.diagram-text {
font-size: 12px;
}
a {
fill: blue;
}
text.diagram-arrow {
font-size: 16px;
}
text.label {
text-anchor: start;
}
text.comment {
font: italic 12px monospace;
}
rect {
stroke-width: 3;
stroke: black;
fill: #BCBCBC;
}
path.diagram-text {
stroke-width: 3;
stroke: black;
fill: #BCBCBC;
cursor: help;
}
]]></style>
</defs>
<g transform="translate(.5 .5)">
<path d="M 20 38 v 20 m 10 -20 v 20 m -10 -10 h 20.5"></path>
<path d="M40 48h10"></path>
<g>
<path d="M50 48h0"></path>
<path d="M1202 48h0"></path>
<g class="terminal">
<path d="M50 48h0"></path>
<path d="M126 48h0"></path>
<rect x="50" y="37" width="76" height="22" rx="10" ry="10"></rect>
<text x="88" y="52">"WRITE"</text>
</g>
<path d="M126 48h10"></path>
<g>
<path d="M136 48h0"></path>
<path d="M522 48h0"></path>
<path d="M136 48a10 10 0 0 0 10 -10v-8a10 10 0 0 1 10 -10"></path>
<g>
<path d="M156 20h346"></path>
</g>
<path d="M502 20a10 10 0 0 1 10 10v8a10 10 0 0 0 10 10"></path>
<path d="M136 48h20"></path>
<g>
<path d="M156 48h0"></path>
<path d="M502 48h0"></path>
<path d="M156 48h20"></path>
<g>
<path d="M176 48h0"></path>
<path d="M362 48h120"></path>
<g>
<path d="M176 48h0"></path>
<path d="M268 48h0"></path>
<path d="M176 48a10 10 0 0 0 10 -10v0a10 10 0 0 1 10 -10"></path>
<g>
<path d="M196 28h52"></path>
</g>
<path d="M248 28a10 10 0 0 1 10 10v0a10 10 0 0 0 10 10"></path>
<path d="M176 48h20"></path>
<g class="terminal">
<path d="M196 48h0"></path>
<path d="M248 48h0"></path>
<rect x="196" y="37" width="52" height="22" rx="10" ry="10"></rect>
<text x="222" y="52">"AT"</text>
</g>
<path d="M248 48h20"></path>
</g>
<path d="M268 48h10"></path>
<g class="terminal">
<path d="M278 48h0"></path>
<path d="M362 48h0"></path>
<rect x="278" y="37" width="84" height="22" rx="10" ry="10"></rect>
<text x="320" y="52">^\/?\d+$</text>
</g>
</g>
<path d="M482 48h20"></path>
<path d="M156 48a10 10 0 0 1 10 10v19a10 10 0 0 0 10 10"></path>
<g>
<path d="M176 87h0"></path>
<path d="M482 87h0"></path>
<g class="terminal">
<path d="M176 87h0"></path>
<path d="M220 87h0"></path>
<rect x="176" y="76" width="44" height="22" rx="10" ry="10"></rect>
<text x="198" y="91">"/"</text>
</g>
<path d="M220 87h10"></path>
<g>
<path d="M230 87h0"></path>
<path d="M482 87h0"></path>
<path d="M230 87a10 10 0 0 0 10 -10v0a10 10 0 0 1 10 -10"></path>
<g>
<path d="M250 67h212"></path>
</g>
<path d="M462 67a10 10 0 0 1 10 10v0a10 10 0 0 0 10 10"></path>
<path d="M230 87h20"></path>
<g>
<path d="M250 87h0"></path>
<path d="M462 87h0"></path>
<g class="terminal">
<path d="M250 87h0"></path>
<path d="M302 87h0"></path>
<rect x="250" y="76" width="52" height="22" rx="10" ry="10"></rect>
<text x="276" y="91">!"("</text>
</g>
<path d="M302 87h10"></path>
<path d="M312 87h10"></path>
<g class="terminal">
<path d="M322 87h0"></path>
<path d="M382 87h0"></path>
<rect x="322" y="76" width="60" height="22" rx="10" ry="10"></rect>
<text x="352" y="91">^\d+$</text>
</g>
<path d="M382 87h10"></path>
<path d="M392 87h10"></path>
<g class="terminal">
<path d="M402 87h0"></path>
<path d="M462 87h0"></path>
<rect x="402" y="76" width="60" height="22" rx="10" ry="10"></rect>
<text x="432" y="91">!") "</text>
</g>
</g>
<path d="M462 87h20"></path>
</g>
</g>
<path d="M482 87a10 10 0 0 0 10 -10v-19a10 10 0 0 1 10 -10"></path>
</g>
<path d="M502 48h20"></path>
</g>
<g>
<path d="M522 48h0"></path>
<path d="M630 48h0"></path>
<path d="M522 48a10 10 0 0 0 10 -10v0a10 10 0 0 1 10 -10"></path>
<g>
<path d="M542 28h68"></path>
</g>
<path d="M610 28a10 10 0 0 1 10 10v0a10 10 0 0 0 10 10"></path>
<path d="M522 48h20"></path>
<g class="non-terminal">
<path d="M542 48h0"></path>
<path d="M610 48h0"></path>
<rect x="542" y="37" width="68" height="22"></rect>
<a xlink:href="reuse_source.svg"><text x="576" y="52">Source</text>
</a>
</g>
<path d="M610 48h20"></path>
</g>
<g>
<path d="M630 48h0"></path>
<path d="M1202 48h0"></path>
<path d="M630 48a10 10 0 0 0 10 -10v0a10 10 0 0 1 10 -10"></path>
<g>
<path d="M650 28h532"></path>
</g>
<path d="M1182 28a10 10 0 0 1 10 10v0a10 10 0 0 0 10 10"></path>
<path d="M630 48h20"></path>
<g>
<path d="M650 48h0"></path>
<path d="M1182 48h0"></path>
<path d="M680 48h10"></path>
<g>
<path d="M690 48h0"></path>
<path d="M934 48h218"></path>
<g class="terminal">
<path d="M690 48h0"></path>
<path d="M846 48h0"></path>
<rect x="690" y="37" width="156" height="22" rx="10" ry="10"></rect>
<text x="768" y="52">"USING EDIT MASK"</text>
</g>
<path d="M846 48h10"></path>
<path d="M856 48h10"></path>
<g class="non-terminal">
<path d="M866 48h0"></path>
<path d="M934 48h0"></path>
<rect x="866" y="37" width="68" height="22"></rect>
<a xlink:href="reuse_source.svg"><text x="900" y="52">Source</text>
</a>
</g>
</g>
<path d="M1152 48h10"></path>
<path d="M680 48v20a10 10 0 0 0 10 10"></path>
<g>
<path d="M690 78h0"></path>
<path d="M830 78h322"></path>
<g class="terminal">
<path d="M690 78h0"></path>
<path d="M742 78h0"></path>
<rect x="690" y="67" width="52" height="22" rx="10" ry="10"></rect>
<text x="716" y="82">"TO"</text>
</g>
<path d="M742 78h10"></path>
<path d="M752 78h10"></path>
<g class="non-terminal">
<path d="M762 78h0"></path>
<path d="M830 78h0"></path>
<rect x="762" y="67" width="68" height="22"></rect>
<a xlink:href="reuse_target.svg"><text x="796" y="82">Target</text>
</a>
</g>
</g>
<path d="M1152 78a10 10 0 0 0 10 -10v-20"></path>
<path d="M680 48v50a10 10 0 0 0 10 10"></path>
<g>
<path d="M690 108h0"></path>
<path d="M878 108h274"></path>
<g class="terminal">
<path d="M690 108h0"></path>
<path d="M790 108h0"></path>
<rect x="690" y="97" width="100" height="22" rx="10" ry="10"></rect>
<text x="740" y="112">"EXPONENT"</text>
</g>
<path d="M790 108h10"></path>
<path d="M800 108h10"></path>
<g class="non-terminal">
<path d="M810 108h0"></path>
<path d="M878 108h0"></path>
<rect x="810" y="97" width="68" height="22"></rect>
<a xlink:href="reuse_source.svg"><text x="844" y="112">Source</text>
</a>
</g>
</g>
<path d="M1152 108a10 10 0 0 0 10 -10v-50"></path>
<path d="M680 48v80a10 10 0 0 0 10 10"></path>
<g class="terminal">
<path d="M690 138h0"></path>
<path d="M814 138h338"></path>
<rect x="690" y="127" width="124" height="22" rx="10" ry="10"></rect>
<text x="752" y="142">"NO-GROUPING"</text>
</g>
<path d="M1152 138a10 10 0 0 0 10 -10v-80"></path>
<path d="M680 48v110a10 10 0 0 0 10 10"></path>
<g class="terminal">
<path d="M690 168h0"></path>
<path d="M782 168h370"></path>
<rect x="690" y="157" width="92" height="22" rx="10" ry="10"></rect>
<text x="736" y="172">"NO-ZERO"</text>
</g>
<path d="M1152 168a10 10 0 0 0 10 -10v-110"></path>
<path d="M680 48v140a10 10 0 0 0 10 10"></path>
<g>
<path d="M690 198h0"></path>
<path d="M876 198h276"></path>
<g class="terminal">
<path d="M690 198h0"></path>
<path d="M766 198h0"></path>
<rect x="690" y="187" width="76" height="22" rx="10" ry="10"></rect>
<text x="728" y="202">"INPUT"</text>
</g>
<path d="M766 198h10"></path>
<g>
<path d="M776 198h0"></path>
<path d="M876 198h0"></path>
<path d="M776 198h20"></path>
<g class="terminal">
<path d="M796 198h0"></path>
<path d="M848 198h8"></path>
<rect x="796" y="187" width="52" height="22" rx="10" ry="10"></rect>
<text x="822" y="202">"ON"</text>
</g>
<path d="M856 198h20"></path>
<path d="M776 198a10 10 0 0 1 10 10v10a10 10 0 0 0 10 10"></path>
<g class="terminal">
<path d="M796 228h0"></path>
<path d="M856 228h0"></path>
<rect x="796" y="217" width="60" height="22" rx="10" ry="10"></rect>
<text x="826" y="232">"OFF"</text>
</g>
<path d="M856 228a10 10 0 0 0 10 -10v-10a10 10 0 0 1 10 -10"></path>
</g>
</g>
<path d="M1152 198a10 10 0 0 0 10 -10v-140"></path>
<path d="M680 48v200a10 10 0 0 0 10 10"></path>
<g class="terminal">
<path d="M690 258h0"></path>
<path d="M774 258h378"></path>
<rect x="690" y="247" width="84" height="22" rx="10" ry="10"></rect>
<text x="732" y="262">"NO-GAP"</text>
</g>
<path d="M1152 258a10 10 0 0 0 10 -10v-200"></path>
<path d="M680 48v230a10 10 0 0 0 10 10"></path>
<g class="terminal">
<path d="M690 288h0"></path>
<path d="M838 288h314"></path>
<rect x="690" y="277" width="148" height="22" rx="10" ry="10"></rect>
<text x="764" y="292">"LEFT-JUSTIFIED"</text>
</g>
<path d="M1152 288a10 10 0 0 0 10 -10v-230"></path>
<path d="M680 48v260a10 10 0 0 0 10 10"></path>
<g class="terminal">
<path d="M690 318h0"></path>
<path d="M782 318h370"></path>
<rect x="690" y="307" width="92" height="22" rx="10" ry="10"></rect>
<text x="736" y="322">"AS LINE"</text>
</g>
<path d="M1152 318a10 10 0 0 0 10 -10v-260"></path>
<path d="M680 48v290a10 10 0 0 0 10 10"></path>
<g class="terminal">
<path d="M690 348h0"></path>
<path d="M782 348h370"></path>
<rect x="690" y="337" width="92" height="22" rx="10" ry="10"></rect>
<text x="736" y="352">"AS ICON"</text>
</g>
<path d="M1152 348a10 10 0 0 0 10 -10v-290"></path>
<path d="M680 48v320a10 10 0 0 0 10 10"></path>
<g class="terminal">
<path d="M690 378h0"></path>
<path d="M814 378h338"></path>
<rect x="690" y="367" width="124" height="22" rx="10" ry="10"></rect>
<text x="752" y="382">"AS CHECKBOX"</text>
</g>
<path d="M1152 378a10 10 0 0 0 10 -10v-320"></path>
<path d="M680 48v350a10 10 0 0 0 10 10"></path>
<g class="terminal">
<path d="M690 408h0"></path>
<path d="M798 408h354"></path>
<rect x="690" y="397" width="108" height="22" rx="10" ry="10"></rect>
<text x="744" y="412">"AS SYMBOL"</text>
</g>
<path d="M1152 408a10 10 0 0 0 10 -10v-350"></path>
<path d="M680 48v380a10 10 0 0 0 10 10"></path>
<g class="terminal">
<path d="M690 438h0"></path>
<path d="M846 438h306"></path>
<rect x="690" y="427" width="156" height="22" rx="10" ry="10"></rect>
<text x="768" y="442">"RIGHT-JUSTIFIED"</text>
</g>
<path d="M1152 438a10 10 0 0 0 10 -10v-380"></path>
<path d="M680 48v410a10 10 0 0 0 10 10"></path>
<g>
<path d="M690 468h0"></path>
<path d="M854 468h298"></path>
<g class="terminal">
<path d="M690 468h0"></path>
<path d="M766 468h0"></path>
<rect x="690" y="457" width="76" height="22" rx="10" ry="10"></rect>
<text x="728" y="472">"ROUND"</text>
</g>
<path d="M766 468h10"></path>
<path d="M776 468h10"></path>
<g class="non-terminal">
<path d="M786 468h0"></path>
<path d="M854 468h0"></path>
<rect x="786" y="457" width="68" height="22"></rect>
<a xlink:href="reuse_source.svg"><text x="820" y="472">Source</text>
</a>
</g>
</g>
<path d="M1152 468a10 10 0 0 0 10 -10v-410"></path>
<path d="M680 48v440a10 10 0 0 0 10 10"></path>
<g class="terminal">
<path d="M690 498h0"></path>
<path d="M910 498h242"></path>
<rect x="690" y="487" width="220" height="22" rx="10" ry="10"></rect>
<text x="800" y="502">"ENVIRONMENT TIME FORMAT"</text>
</g>
<path d="M1152 498a10 10 0 0 0 10 -10v-440"></path>
<path d="M680 48v470a10 10 0 0 0 10 10"></path>
<g class="terminal">
<path d="M690 528h0"></path>
<path d="M1014 528h138"></path>
<rect x="690" y="517" width="324" height="22" rx="10" ry="10"></rect>
<text x="852" y="532">^&#91;YMD&#93;{2,4}\/?&#91;YMD&#93;{2,4}\/?&#91;YMD&#93;{2,4}$</text>
</g>
<path d="M1152 528a10 10 0 0 0 10 -10v-470"></path>
<path d="M680 48v500a10 10 0 0 0 10 10"></path>
<g>
<path d="M690 558h0"></path>
<path d="M846 558h306"></path>
<g class="terminal">
<path d="M690 558h0"></path>
<path d="M758 558h0"></path>
<rect x="690" y="547" width="68" height="22" rx="10" ry="10"></rect>
<text x="724" y="562">"UNIT"</text>
</g>
<path d="M758 558h10"></path>
<path d="M768 558h10"></path>
<g class="non-terminal">
<path d="M778 558h0"></path>
<path d="M846 558h0"></path>
<rect x="778" y="547" width="68" height="22"></rect>
<a xlink:href="reuse_source.svg"><text x="812" y="562">Source</text>
</a>
</g>
</g>
<path d="M1152 558a10 10 0 0 0 10 -10v-500"></path>
<path d="M680 48v530a10 10 0 0 0 10 10"></path>
<g class="terminal">
<path d="M690 588h0"></path>
<path d="M846 588h306"></path>
<rect x="690" y="577" width="156" height="22" rx="10" ry="10"></rect>
<text x="768" y="592">"INTENSIFIED OFF"</text>
</g>
<path d="M1152 588a10 10 0 0 0 10 -10v-530"></path>
<path d="M680 48v560a10 10 0 0 0 10 10"></path>
<g>
<path d="M690 618h0"></path>
<path d="M878 618h274"></path>
<g class="terminal">
<path d="M690 618h0"></path>
<path d="M790 618h0"></path>
<rect x="690" y="607" width="100" height="22" rx="10" ry="10"></rect>
<text x="740" y="622">"DECIMALS"</text>
</g>
<path d="M790 618h10"></path>
<path d="M800 618h10"></path>
<g class="non-terminal">
<path d="M810 618h0"></path>
<path d="M878 618h0"></path>
<rect x="810" y="607" width="68" height="22"></rect>
<a xlink:href="reuse_source.svg"><text x="844" y="622">Source</text>
</a>
</g>
</g>
<path d="M1152 618a10 10 0 0 0 10 -10v-560"></path>
<path d="M680 48v599a10 10 0 0 0 10 10"></path>
<g>
<path d="M690 657h0"></path>
<path d="M1152 657h0"></path>
<g class="terminal">
<path d="M690 657h0"></path>
<path d="M766 657h0"></path>
<rect x="690" y="646" width="76" height="22" rx="10" ry="10"></rect>
<text x="728" y="661">"COLOR"</text>
</g>
<path d="M766 657h10"></path>
<g>
<path d="M776 657h0"></path>
<path d="M860 657h0"></path>
<path d="M776 657a10 10 0 0 0 10 -10v0a10 10 0 0 1 10 -10"></path>
<g>
<path d="M796 637h44"></path>
</g>
<path d="M840 637a10 10 0 0 1 10 10v0a10 10 0 0 0 10 10"></path>
<path d="M776 657h20"></path>
<g class="terminal">
<path d="M796 657h0"></path>
<path d="M840 657h0"></path>
<rect x="796" y="646" width="44" height="22" rx="10" ry="10"></rect>
<text x="818" y="661">"="</text>
</g>
<path d="M840 657h20"></path>
</g>
<path d="M860 657h10"></path>
<g class="non-terminal">
<path d="M870 657h0"></path>
<path d="M938 657h0"></path>
<rect x="870" y="646" width="68" height="22"></rect>
<a xlink:href="reuse_source.svg"><text x="904" y="661">Source</text>
</a>
</g>
<path d="M938 657h10"></path>
<g>
<path d="M948 657h0"></path>
<path d="M1152 657h0"></path>
<path d="M948 657a10 10 0 0 0 10 -10v0a10 10 0 0 1 10 -10"></path>
<g>
<path d="M968 637h164"></path>
</g>
<path d="M1132 637a10 10 0 0 1 10 10v0a10 10 0 0 0 10 10"></path>
<path d="M948 657h20"></path>
<g>
<path d="M968 657h0"></path>
<path d="M1132 657h0"></path>
<path d="M968 657h20"></path>
<g class="terminal">
<path d="M988 657h0"></path>
<path d="M1080 657h32"></path>
<rect x="988" y="646" width="92" height="22" rx="10" ry="10"></rect>
<text x="1034" y="661">"INVERSE"</text>
</g>
<path d="M1112 657h20"></path>
<path d="M968 657a10 10 0 0 1 10 10v10a10 10 0 0 0 10 10"></path>
<g class="terminal">
<path d="M988 687h0"></path>
<path d="M1112 687h0"></path>
<rect x="988" y="676" width="124" height="22" rx="10" ry="10"></rect>
<text x="1050" y="691">"INTENSIFIED"</text>
</g>
<path d="M1112 687a10 10 0 0 0 10 -10v-10a10 10 0 0 1 10 -10"></path>
</g>
<path d="M1132 657h20"></path>
</g>
</g>
<path d="M1152 657a10 10 0 0 0 10 -10v-599"></path>
<path d="M680 48v659a10 10 0 0 0 10 10"></path>
<g>
<path d="M690 717h0"></path>
<path d="M878 717h274"></path>
<g class="terminal">
<path d="M690 717h0"></path>
<path d="M790 717h0"></path>
<rect x="690" y="706" width="100" height="22" rx="10" ry="10"></rect>
<text x="740" y="721">"CURRENCY"</text>
</g>
<path d="M790 717h10"></path>
<path d="M800 717h10"></path>
<g class="non-terminal">
<path d="M810 717h0"></path>
<path d="M878 717h0"></path>
<rect x="810" y="706" width="68" height="22"></rect>
<a xlink:href="reuse_source.svg"><text x="844" y="721">Source</text>
</a>
</g>
</g>
<path d="M1152 717a10 10 0 0 0 10 -10v-659"></path>
<path d="M680 48v689a10 10 0 0 0 10 10"></path>
<g class="terminal">
<path d="M690 747h0"></path>
<path d="M782 747h370"></path>
<rect x="690" y="736" width="92" height="22" rx="10" ry="10"></rect>
<text x="736" y="751">"NO-SIGN"</text>
</g>
<path d="M1152 747a10 10 0 0 0 10 -10v-689"></path>
<g class="diagram-text">
<title>take one or more branches, once each, in any order</title>
<path d="M 680 38 h -26 a 4 4 0 0 0 -4 4 v 12 a 4 4 0 0 0 4 4 h 26 z" class="diagram-text"></path>
<text x="665" y="52" class="diagram-text">1+</text>
<path d="M 1162 38 h 16 a 4 4 0 0 1 4 4 v 12 a 4 4 0 0 1 -4 4 h -16 z" class="diagram-text"></path>
<path d="M 1169 46 a 4 4 0 1 0 6 -1 m 2.75 -1 h -4 v 4 m 0 -3 h 2" style="stroke-width: 1.75"></path>
</g>
</g>
<path d="M1182 48h20"></path>
</g>
</g>
<path d="M1202 48h10"></path>
<path d="M 1212 48 h 20 m -10 -10 v 20 m 10 -20 v 20"></path>
</g>
</svg>
