<svg xmlns="http://www.w3.org/2000/svg" xmlns:xlink="http://www.w3.org/1999/xlink" class="railroad-diagram" width="1468" height="993" viewBox="0 0 1468 993">
<defs>
<style type="text/css"><![CDATA[
path {
stroke-width: 3;
stroke: black;
fill: rgba(0,0,0,0);
}
text {
font: bold 14px monospace;
text-anchor: middle;
}
text.diagram-text {
font-size: 12px;
}
a {
fill: blue;
}
text.diagram-arrow {
font-size: 16px;
}
text.label {
text-anchor: start;
}
text.comment {
font: italic 12px monospace;
}
rect {
stroke-width: 3;
stroke: black;
fill: #BCBCBC;
}
path.diagram-text {
stroke-width: 3;
stroke: black;
fill: #BCBCBC;
cursor: help;
}
]]></style>
</defs>
<g transform="translate(.5 .5)">
<path d="M 20 38 v 20 m 10 -20 v 20 m -10 -10 h 20.5"></path>
<path d="M40 48h10"></path>
<g>
<path d="M50 48h0"></path>
<path d="M1418 48h0"></path>
<g class="terminal">
<path d="M50 48h0"></path>
<path d="M126 48h0"></path>
<rect x="50" y="37" width="76" height="22" rx="10" ry="10"></rect>
<text x="88" y="52">"WRITE"</text>
</g>
<path d="M126 48h10"></path>
<g>
<path d="M136 48h0"></path>
<path d="M636 48h0"></path>
<path d="M136 48a10 10 0 0 0 10 -10v-8a10 10 0 0 1 10 -10"></path>
<g>
<path d="M156 20h460"></path>
</g>
<path d="M616 20a10 10 0 0 1 10 10v8a10 10 0 0 0 10 10"></path>
<path d="M136 48h20"></path>
<g>
<path d="M156 48h0"></path>
<path d="M616 48h0"></path>
<path d="M156 48h20"></path>
<g>
<path d="M176 48h0"></path>
<path d="M362 48h234"></path>
<g>
<path d="M176 48h0"></path>
<path d="M268 48h0"></path>
<path d="M176 48a10 10 0 0 0 10 -10v0a10 10 0 0 1 10 -10"></path>
<g>
<path d="M196 28h52"></path>
</g>
<path d="M248 28a10 10 0 0 1 10 10v0a10 10 0 0 0 10 10"></path>
<path d="M176 48h20"></path>
<g class="terminal">
<path d="M196 48h0"></path>
<path d="M248 48h0"></path>
<rect x="196" y="37" width="52" height="22" rx="10" ry="10"></rect>
<text x="222" y="52">"AT"</text>
</g>
<path d="M248 48h20"></path>
</g>
<path d="M268 48h10"></path>
<g class="terminal">
<path d="M278 48h0"></path>
<path d="M362 48h0"></path>
<rect x="278" y="37" width="84" height="22" rx="10" ry="10"></rect>
<text x="320" y="52">^\/?\d+$</text>
</g>
</g>
<path d="M596 48h20"></path>
<path d="M156 48a10 10 0 0 1 10 10v19a10 10 0 0 0 10 10"></path>
<g>
<path d="M176 87h0"></path>
<path d="M596 87h0"></path>
<path d="M176 87h20"></path>
<g>
<path d="M196 87h0"></path>
<path d="M502 87h74"></path>
<g class="terminal">
<path d="M196 87h0"></path>
<path d="M240 87h0"></path>
<rect x="196" y="76" width="44" height="22" rx="10" ry="10"></rect>
<text x="218" y="91">"/"</text>
</g>
<path d="M240 87h10"></path>
<g>
<path d="M250 87h0"></path>
<path d="M502 87h0"></path>
<path d="M250 87a10 10 0 0 0 10 -10v0a10 10 0 0 1 10 -10"></path>
<g>
<path d="M270 67h212"></path>
</g>
<path d="M482 67a10 10 0 0 1 10 10v0a10 10 0 0 0 10 10"></path>
<path d="M250 87h20"></path>
<g>
<path d="M270 87h0"></path>
<path d="M482 87h0"></path>
<g class="terminal">
<path d="M270 87h0"></path>
<path d="M322 87h0"></path>
<rect x="270" y="76" width="52" height="22" rx="10" ry="10"></rect>
<text x="296" y="91">!"("</text>
</g>
<path d="M322 87h10"></path>
<path d="M332 87h10"></path>
<g class="terminal">
<path d="M342 87h0"></path>
<path d="M402 87h0"></path>
<rect x="342" y="76" width="60" height="22" rx="10" ry="10"></rect>
<text x="372" y="91">^\d+$</text>
</g>
<path d="M402 87h10"></path>
<path d="M412 87h10"></path>
<g class="terminal">
<path d="M422 87h0"></path>
<path d="M482 87h0"></path>
<rect x="422" y="76" width="60" height="22" rx="10" ry="10"></rect>
<text x="452" y="91">!") "</text>
</g>
</g>
<path d="M482 87h20"></path>
</g>
</g>
<path d="M576 87h20"></path>
<path d="M176 87a10 10 0 0 1 10 10v19a10 10 0 0 0 10 10"></path>
<g>
<path d="M196 126h0"></path>
<path d="M550 126h26"></path>
<g>
<path d="M196 126h0"></path>
<path d="M288 126h0"></path>
<path d="M196 126a10 10 0 0 0 10 -10v0a10 10 0 0 1 10 -10"></path>
<g>
<path d="M216 106h52"></path>
</g>
<path d="M268 106a10 10 0 0 1 10 10v0a10 10 0 0 0 10 10"></path>
<path d="M196 126h20"></path>
<g class="terminal">
<path d="M216 126h0"></path>
<path d="M268 126h0"></path>
<rect x="216" y="115" width="52" height="22" rx="10" ry="10"></rect>
<text x="242" y="130">"AT"</text>
</g>
<path d="M268 126h20"></path>
</g>
<path d="M288 126h10"></path>
<g class="terminal">
<path d="M298 126h0"></path>
<path d="M358 126h0"></path>
<rect x="298" y="115" width="60" height="22" rx="10" ry="10"></rect>
<text x="328" y="130">!" ("</text>
</g>
<path d="M358 126h10"></path>
<path d="M368 126h10"></path>
<g class="terminal">
<path d="M378 126h0"></path>
<path d="M470 126h0"></path>
<rect x="378" y="115" width="92" height="22" rx="10" ry="10"></rect>
<text x="424" y="130">^&#91;\w\d&#93;+$</text>
</g>
<path d="M470 126h10"></path>
<path d="M480 126h10"></path>
<g class="terminal">
<path d="M490 126h0"></path>
<path d="M550 126h0"></path>
<rect x="490" y="115" width="60" height="22" rx="10" ry="10"></rect>
<text x="520" y="130">!") "</text>
</g>
</g>
<path d="M576 126a10 10 0 0 0 10 -10v-19a10 10 0 0 1 10 -10"></path>
<path d="M176 87a10 10 0 0 1 10 10v49a10 10 0 0 0 10 10"></path>
<g>
<path d="M196 156h0"></path>
<path d="M512 156h64"></path>
<g class="terminal">
<path d="M196 156h0"></path>
<path d="M280 156h0"></path>
<rect x="196" y="145" width="84" height="22" rx="10" ry="10"></rect>
<text x="238" y="160">^\/?\d+$</text>
</g>
<path d="M280 156h10"></path>
<path d="M290 156h10"></path>
<g class="terminal">
<path d="M300 156h0"></path>
<path d="M352 156h0"></path>
<rect x="300" y="145" width="52" height="22" rx="10" ry="10"></rect>
<text x="326" y="160">!"("</text>
</g>
<path d="M352 156h10"></path>
<path d="M362 156h10"></path>
<g class="terminal">
<path d="M372 156h0"></path>
<path d="M432 156h0"></path>
<rect x="372" y="145" width="60" height="22" rx="10" ry="10"></rect>
<text x="402" y="160">^\d+$</text>
</g>
<path d="M432 156h10"></path>
<path d="M442 156h10"></path>
<g class="terminal">
<path d="M452 156h0"></path>
<path d="M512 156h0"></path>
<rect x="452" y="145" width="60" height="22" rx="10" ry="10"></rect>
<text x="482" y="160">!") "</text>
</g>
</g>
<path d="M576 156a10 10 0 0 0 10 -10v-49a10 10 0 0 1 10 -10"></path>
<path d="M176 87a10 10 0 0 1 10 10v79a10 10 0 0 0 10 10"></path>
<g>
<path d="M196 186h0"></path>
<path d="M576 186h0"></path>
<g class="terminal">
<path d="M196 186h0"></path>
<path d="M248 186h0"></path>
<rect x="196" y="175" width="52" height="22" rx="10" ry="10"></rect>
<text x="222" y="190">"AT"</text>
</g>
<path d="M248 186h10"></path>
<path d="M258 186h10"></path>
<g class="terminal">
<path d="M268 186h0"></path>
<path d="M312 186h0"></path>
<rect x="268" y="175" width="44" height="22" rx="10" ry="10"></rect>
<text x="290" y="190">"/"</text>
</g>
<path d="M312 186h10"></path>
<path d="M322 186h10"></path>
<g class="terminal">
<path d="M332 186h0"></path>
<path d="M384 186h0"></path>
<rect x="332" y="175" width="52" height="22" rx="10" ry="10"></rect>
<text x="358" y="190">!"("</text>
</g>
<path d="M384 186h10"></path>
<path d="M394 186h10"></path>
<g class="terminal">
<path d="M404 186h0"></path>
<path d="M496 186h0"></path>
<rect x="404" y="175" width="92" height="22" rx="10" ry="10"></rect>
<text x="450" y="190">^&#91;\w\d&#93;+$</text>
</g>
<path d="M496 186h10"></path>
<path d="M506 186h10"></path>
<g class="terminal">
<path d="M516 186h0"></path>
<path d="M576 186h0"></path>
<rect x="516" y="175" width="60" height="22" rx="10" ry="10"></rect>
<text x="546" y="190">!") "</text>
</g>
</g>
<path d="M576 186a10 10 0 0 0 10 -10v-79a10 10 0 0 1 10 -10"></path>
</g>
<path d="M596 87a10 10 0 0 0 10 -10v-19a10 10 0 0 1 10 -10"></path>
</g>
<path d="M616 48h20"></path>
</g>
<g>
<path d="M636 48h0"></path>
<path d="M744 48h0"></path>
<path d="M636 48a10 10 0 0 0 10 -10v0a10 10 0 0 1 10 -10"></path>
<g>
<path d="M656 28h68"></path>
</g>
<path d="M724 28a10 10 0 0 1 10 10v0a10 10 0 0 0 10 10"></path>
<path d="M636 48h20"></path>
<g class="non-terminal">
<path d="M656 48h0"></path>
<path d="M724 48h0"></path>
<rect x="656" y="37" width="68" height="22"></rect>
<a xlink:href="reuse_source.svg"><text x="690" y="52">Source</text>
</a>
</g>
<path d="M724 48h20"></path>
</g>
<g>
<path d="M744 48h0"></path>
<path d="M1418 48h0"></path>
<path d="M744 48a10 10 0 0 0 10 -10v0a10 10 0 0 1 10 -10"></path>
<g>
<path d="M764 28h634"></path>
</g>
<path d="M1398 28a10 10 0 0 1 10 10v0a10 10 0 0 0 10 10"></path>
<path d="M744 48h20"></path>
<g>
<path d="M764 48h0"></path>
<path d="M1398 48h0"></path>
<path d="M794 48h10"></path>
<g>
<path d="M804 48h0"></path>
<path d="M1126 48h242"></path>
<g class="terminal">
<path d="M804 48h0"></path>
<path d="M880 48h0"></path>
<rect x="804" y="37" width="76" height="22" rx="10" ry="10"></rect>
<text x="842" y="52">"USING"</text>
</g>
<path d="M880 48h10"></path>
<g>
<path d="M890 48h0"></path>
<path d="M1126 48h0"></path>
<path d="M890 48h20"></path>
<g class="terminal">
<path d="M910 48h0"></path>
<path d="M1042 48h64"></path>
<rect x="910" y="37" width="132" height="22" rx="10" ry="10"></rect>
<text x="976" y="52">"NO EDIT MASK"</text>
</g>
<path d="M1106 48h20"></path>
<path d="M890 48a10 10 0 0 1 10 10v10a10 10 0 0 0 10 10"></path>
<g>
<path d="M910 78h0"></path>
<path d="M1106 78h0"></path>
<g class="terminal">
<path d="M910 78h0"></path>
<path d="M1018 78h0"></path>
<rect x="910" y="67" width="108" height="22" rx="10" ry="10"></rect>
<text x="964" y="82">"EDIT MASK"</text>
</g>
<path d="M1018 78h10"></path>
<path d="M1028 78h10"></path>
<g class="non-terminal">
<path d="M1038 78h0"></path>
<path d="M1106 78h0"></path>
<rect x="1038" y="67" width="68" height="22"></rect>
<a xlink:href="reuse_source.svg"><text x="1072" y="82">Source</text>
</a>
</g>
</g>
<path d="M1106 78a10 10 0 0 0 10 -10v-10a10 10 0 0 1 10 -10"></path>
</g>
</g>
<path d="M1368 48h10"></path>
<path d="M794 48v50a10 10 0 0 0 10 10"></path>
<g>
<path d="M804 108h0"></path>
<path d="M944 108h424"></path>
<g class="terminal">
<path d="M804 108h0"></path>
<path d="M856 108h0"></path>
<rect x="804" y="97" width="52" height="22" rx="10" ry="10"></rect>
<text x="830" y="112">"TO"</text>
</g>
<path d="M856 108h10"></path>
<path d="M866 108h10"></path>
<g class="non-terminal">
<path d="M876 108h0"></path>
<path d="M944 108h0"></path>
<rect x="876" y="97" width="68" height="22"></rect>
<a xlink:href="reuse_target.svg"><text x="910" y="112">Target</text>
</a>
</g>
</g>
<path d="M1368 108a10 10 0 0 0 10 -10v-50"></path>
<path d="M794 48v80a10 10 0 0 0 10 10"></path>
<g>
<path d="M804 138h0"></path>
<path d="M992 138h376"></path>
<g class="terminal">
<path d="M804 138h0"></path>
<path d="M904 138h0"></path>
<rect x="804" y="127" width="100" height="22" rx="10" ry="10"></rect>
<text x="854" y="142">"EXPONENT"</text>
</g>
<path d="M904 138h10"></path>
<path d="M914 138h10"></path>
<g class="non-terminal">
<path d="M924 138h0"></path>
<path d="M992 138h0"></path>
<rect x="924" y="127" width="68" height="22"></rect>
<a xlink:href="reuse_source.svg"><text x="958" y="142">Source</text>
</a>
</g>
</g>
<path d="M1368 138a10 10 0 0 0 10 -10v-80"></path>
<path d="M794 48v110a10 10 0 0 0 10 10"></path>
<g class="terminal">
<path d="M804 168h0"></path>
<path d="M928 168h440"></path>
<rect x="804" y="157" width="124" height="22" rx="10" ry="10"></rect>
<text x="866" y="172">"NO-GROUPING"</text>
</g>
<path d="M1368 168a10 10 0 0 0 10 -10v-110"></path>
<path d="M794 48v140a10 10 0 0 0 10 10"></path>
<g class="terminal">
<path d="M804 198h0"></path>
<path d="M896 198h472"></path>
<rect x="804" y="187" width="92" height="22" rx="10" ry="10"></rect>
<text x="850" y="202">"NO-ZERO"</text>
</g>
<path d="M1368 198a10 10 0 0 0 10 -10v-140"></path>
<path d="M794 48v179a10 10 0 0 0 10 10"></path>
<g>
<path d="M804 237h0"></path>
<path d="M1030 237h338"></path>
<g class="terminal">
<path d="M804 237h0"></path>
<path d="M880 237h0"></path>
<rect x="804" y="226" width="76" height="22" rx="10" ry="10"></rect>
<text x="842" y="241">"INPUT"</text>
</g>
<path d="M880 237h10"></path>
<g>
<path d="M890 237h0"></path>
<path d="M1030 237h0"></path>
<path d="M890 237a10 10 0 0 0 10 -10v0a10 10 0 0 1 10 -10"></path>
<g>
<path d="M910 217h100"></path>
</g>
<path d="M1010 217a10 10 0 0 1 10 10v0a10 10 0 0 0 10 10"></path>
<path d="M890 237h20"></path>
<g>
<path d="M910 237h0"></path>
<path d="M1010 237h0"></path>
<path d="M910 237h20"></path>
<g class="terminal">
<path d="M930 237h0"></path>
<path d="M982 237h8"></path>
<rect x="930" y="226" width="52" height="22" rx="10" ry="10"></rect>
<text x="956" y="241">"ON"</text>
</g>
<path d="M990 237h20"></path>
<path d="M910 237a10 10 0 0 1 10 10v10a10 10 0 0 0 10 10"></path>
<g class="terminal">
<path d="M930 267h0"></path>
<path d="M990 267h0"></path>
<rect x="930" y="256" width="60" height="22" rx="10" ry="10"></rect>
<text x="960" y="271">"OFF"</text>
</g>
<path d="M990 267a10 10 0 0 0 10 -10v-10a10 10 0 0 1 10 -10"></path>
</g>
<path d="M1010 237h20"></path>
</g>
</g>
<path d="M1368 237a10 10 0 0 0 10 -10v-179"></path>
<path d="M794 48v239a10 10 0 0 0 10 10"></path>
<g class="terminal">
<path d="M804 297h0"></path>
<path d="M888 297h480"></path>
<rect x="804" y="286" width="84" height="22" rx="10" ry="10"></rect>
<text x="846" y="301">"NO-GAP"</text>
</g>
<path d="M1368 297a10 10 0 0 0 10 -10v-239"></path>
<path d="M794 48v269a10 10 0 0 0 10 10"></path>
<g class="terminal">
<path d="M804 327h0"></path>
<path d="M952 327h416"></path>
<rect x="804" y="316" width="148" height="22" rx="10" ry="10"></rect>
<text x="878" y="331">"LEFT-JUSTIFIED"</text>
</g>
<path d="M1368 327a10 10 0 0 0 10 -10v-269"></path>
<path d="M794 48v299a10 10 0 0 0 10 10"></path>
<g class="terminal">
<path d="M804 357h0"></path>
<path d="M896 357h472"></path>
<rect x="804" y="346" width="92" height="22" rx="10" ry="10"></rect>
<text x="850" y="361">"AS LINE"</text>
</g>
<path d="M1368 357a10 10 0 0 0 10 -10v-299"></path>
<path d="M794 48v329a10 10 0 0 0 10 10"></path>
<g class="terminal">
<path d="M804 387h0"></path>
<path d="M896 387h472"></path>
<rect x="804" y="376" width="92" height="22" rx="10" ry="10"></rect>
<text x="850" y="391">"AS ICON"</text>
</g>
<path d="M1368 387a10 10 0 0 0 10 -10v-329"></path>
<path d="M794 48v368a10 10 0 0 0 10 10"></path>
<g>
<path d="M804 426h0"></path>
<path d="M1046 426h322"></path>
<g class="terminal">
<path d="M804 426h0"></path>
<path d="M896 426h0"></path>
<rect x="804" y="415" width="92" height="22" rx="10" ry="10"></rect>
<text x="850" y="430">"HOTSPOT"</text>
</g>
<path d="M896 426h10"></path>
<g>
<path d="M906 426h0"></path>
<path d="M1046 426h0"></path>
<path d="M906 426a10 10 0 0 0 10 -10v0a10 10 0 0 1 10 -10"></path>
<g>
<path d="M926 406h100"></path>
</g>
<path d="M1026 406a10 10 0 0 1 10 10v0a10 10 0 0 0 10 10"></path>
<path d="M906 426h20"></path>
<g>
<path d="M926 426h0"></path>
<path d="M1026 426h0"></path>
<path d="M926 426h20"></path>
<g class="terminal">
<path d="M946 426h0"></path>
<path d="M998 426h8"></path>
<rect x="946" y="415" width="52" height="22" rx="10" ry="10"></rect>
<text x="972" y="430">"ON"</text>
</g>
<path d="M1006 426h20"></path>
<path d="M926 426a10 10 0 0 1 10 10v10a10 10 0 0 0 10 10"></path>
<g class="terminal">
<path d="M946 456h0"></path>
<path d="M1006 456h0"></path>
<rect x="946" y="445" width="60" height="22" rx="10" ry="10"></rect>
<text x="976" y="460">"OFF"</text>
</g>
<path d="M1006 456a10 10 0 0 0 10 -10v-10a10 10 0 0 1 10 -10"></path>
</g>
<path d="M1026 426h20"></path>
</g>
</g>
<path d="M1368 426a10 10 0 0 0 10 -10v-368"></path>
<path d="M794 48v428a10 10 0 0 0 10 10"></path>
<g class="terminal">
<path d="M804 486h0"></path>
<path d="M928 486h440"></path>
<rect x="804" y="475" width="124" height="22" rx="10" ry="10"></rect>
<text x="866" y="490">"AS CHECKBOX"</text>
</g>
<path d="M1368 486a10 10 0 0 0 10 -10v-428"></path>
<path d="M794 48v458a10 10 0 0 0 10 10"></path>
<g class="terminal">
<path d="M804 516h0"></path>
<path d="M912 516h456"></path>
<rect x="804" y="505" width="108" height="22" rx="10" ry="10"></rect>
<text x="858" y="520">"AS SYMBOL"</text>
</g>
<path d="M1368 516a10 10 0 0 0 10 -10v-458"></path>
<path d="M794 48v488a10 10 0 0 0 10 10"></path>
<g class="terminal">
<path d="M804 546h0"></path>
<path d="M960 546h408"></path>
<rect x="804" y="535" width="156" height="22" rx="10" ry="10"></rect>
<text x="882" y="550">"RIGHT-JUSTIFIED"</text>
</g>
<path d="M1368 546a10 10 0 0 0 10 -10v-488"></path>
<path d="M794 48v518a10 10 0 0 0 10 10"></path>
<g>
<path d="M804 576h0"></path>
<path d="M1000 576h368"></path>
<g class="terminal">
<path d="M804 576h0"></path>
<path d="M912 576h0"></path>
<rect x="804" y="565" width="108" height="22" rx="10" ry="10"></rect>
<text x="858" y="580">"TIME ZONE"</text>
</g>
<path d="M912 576h10"></path>
<path d="M922 576h10"></path>
<g class="non-terminal">
<path d="M932 576h0"></path>
<path d="M1000 576h0"></path>
<rect x="932" y="565" width="68" height="22"></rect>
<a xlink:href="reuse_source.svg"><text x="966" y="580">Source</text>
</a>
</g>
</g>
<path d="M1368 576a10 10 0 0 0 10 -10v-518"></path>
<path d="M794 48v548a10 10 0 0 0 10 10"></path>
<g>
<path d="M804 606h0"></path>
<path d="M968 606h400"></path>
<g class="terminal">
<path d="M804 606h0"></path>
<path d="M880 606h0"></path>
<rect x="804" y="595" width="76" height="22" rx="10" ry="10"></rect>
<text x="842" y="610">"UNDER"</text>
</g>
<path d="M880 606h10"></path>
<path d="M890 606h10"></path>
<g class="non-terminal">
<path d="M900 606h0"></path>
<path d="M968 606h0"></path>
<rect x="900" y="595" width="68" height="22"></rect>
<a xlink:href="reuse_source.svg"><text x="934" y="610">Source</text>
</a>
</g>
</g>
<path d="M1368 606a10 10 0 0 0 10 -10v-548"></path>
<path d="M794 48v578a10 10 0 0 0 10 10"></path>
<g>
<path d="M804 636h0"></path>
<path d="M968 636h400"></path>
<g class="terminal">
<path d="M804 636h0"></path>
<path d="M880 636h0"></path>
<rect x="804" y="625" width="76" height="22" rx="10" ry="10"></rect>
<text x="842" y="640">"STYLE"</text>
</g>
<path d="M880 636h10"></path>
<path d="M890 636h10"></path>
<g class="non-terminal">
<path d="M900 636h0"></path>
<path d="M968 636h0"></path>
<rect x="900" y="625" width="68" height="22"></rect>
<a xlink:href="reuse_source.svg"><text x="934" y="640">Source</text>
</a>
</g>
</g>
<path d="M1368 636a10 10 0 0 0 10 -10v-578"></path>
<path d="M794 48v608a10 10 0 0 0 10 10"></path>
<g>
<path d="M804 666h0"></path>
<path d="M968 666h400"></path>
<g class="terminal">
<path d="M804 666h0"></path>
<path d="M880 666h0"></path>
<rect x="804" y="655" width="76" height="22" rx="10" ry="10"></rect>
<text x="842" y="670">"ROUND"</text>
</g>
<path d="M880 666h10"></path>
<path d="M890 666h10"></path>
<g class="non-terminal">
<path d="M900 666h0"></path>
<path d="M968 666h0"></path>
<rect x="900" y="655" width="68" height="22"></rect>
<a xlink:href="reuse_source.svg"><text x="934" y="670">Source</text>
</a>
</g>
</g>
<path d="M1368 666a10 10 0 0 0 10 -10v-608"></path>
<path d="M794 48v638a10 10 0 0 0 10 10"></path>
<g class="terminal">
<path d="M804 696h0"></path>
<path d="M1024 696h344"></path>
<rect x="804" y="685" width="220" height="22" rx="10" ry="10"></rect>
<text x="914" y="700">"ENVIRONMENT TIME FORMAT"</text>
</g>
<path d="M1368 696a10 10 0 0 0 10 -10v-638"></path>
<path d="M794 48v668a10 10 0 0 0 10 10"></path>
<g class="terminal">
<path d="M804 726h0"></path>
<path d="M1128 726h240"></path>
<rect x="804" y="715" width="324" height="22" rx="10" ry="10"></rect>
<text x="966" y="730">^&#91;YMD&#93;{2,4}\/?&#91;YMD&#93;{2,4}\/?&#91;YMD&#93;{2,4}$</text>
</g>
<path d="M1368 726a10 10 0 0 0 10 -10v-668"></path>
<path d="M794 48v698a10 10 0 0 0 10 10"></path>
<g>
<path d="M804 756h0"></path>
<path d="M960 756h408"></path>
<g class="terminal">
<path d="M804 756h0"></path>
<path d="M872 756h0"></path>
<rect x="804" y="745" width="68" height="22" rx="10" ry="10"></rect>
<text x="838" y="760">"UNIT"</text>
</g>
<path d="M872 756h10"></path>
<path d="M882 756h10"></path>
<g class="non-terminal">
<path d="M892 756h0"></path>
<path d="M960 756h0"></path>
<rect x="892" y="745" width="68" height="22"></rect>
<a xlink:href="reuse_source.svg"><text x="926" y="760">Source</text>
</a>
</g>
</g>
<path d="M1368 756a10 10 0 0 0 10 -10v-698"></path>
<path d="M794 48v728a10 10 0 0 0 10 10"></path>
<g class="terminal">
<path d="M804 786h0"></path>
<path d="M960 786h408"></path>
<rect x="804" y="775" width="156" height="22" rx="10" ry="10"></rect>
<text x="882" y="790">"INTENSIFIED OFF"</text>
</g>
<path d="M1368 786a10 10 0 0 0 10 -10v-728"></path>
<path d="M794 48v758a10 10 0 0 0 10 10"></path>
<g>
<path d="M804 816h0"></path>
<path d="M992 816h376"></path>
<g class="terminal">
<path d="M804 816h0"></path>
<path d="M904 816h0"></path>
<rect x="804" y="805" width="100" height="22" rx="10" ry="10"></rect>
<text x="854" y="820">"DECIMALS"</text>
</g>
<path d="M904 816h10"></path>
<path d="M914 816h10"></path>
<g class="non-terminal">
<path d="M924 816h0"></path>
<path d="M992 816h0"></path>
<rect x="924" y="805" width="68" height="22"></rect>
<a xlink:href="reuse_source.svg"><text x="958" y="820">Source</text>
</a>
</g>
</g>
<path d="M1368 816a10 10 0 0 0 10 -10v-758"></path>
<path d="M794 48v805a10 10 0 0 0 10 10"></path>
<g>
<path d="M804 863h0"></path>
<path d="M1368 863h0"></path>
<g class="terminal">
<path d="M804 863h0"></path>
<path d="M880 863h0"></path>
<rect x="804" y="852" width="76" height="22" rx="10" ry="10"></rect>
<text x="842" y="867">"COLOR"</text>
</g>
<path d="M880 863h10"></path>
<g>
<path d="M890 863h0"></path>
<path d="M974 863h0"></path>
<path d="M890 863a10 10 0 0 0 10 -10v0a10 10 0 0 1 10 -10"></path>
<g>
<path d="M910 843h44"></path>
</g>
<path d="M954 843a10 10 0 0 1 10 10v0a10 10 0 0 0 10 10"></path>
<path d="M890 863h20"></path>
<g class="terminal">
<path d="M910 863h0"></path>
<path d="M954 863h0"></path>
<rect x="910" y="852" width="44" height="22" rx="10" ry="10"></rect>
<text x="932" y="867">"="</text>
</g>
<path d="M954 863h20"></path>
</g>
<path d="M974 863h10"></path>
<g class="non-terminal">
<path d="M984 863h0"></path>
<path d="M1052 863h0"></path>
<rect x="984" y="852" width="68" height="22"></rect>
<a xlink:href="reuse_source.svg"><text x="1018" y="867">Source</text>
</a>
</g>
<path d="M1052 863h10"></path>
<g>
<path d="M1062 863h0"></path>
<path d="M1368 863h0"></path>
<path d="M1062 863a10 10 0 0 0 10 -10v-8a10 10 0 0 1 10 -10"></path>
<g>
<path d="M1082 835h266"></path>
</g>
<path d="M1348 835a10 10 0 0 1 10 10v8a10 10 0 0 0 10 10"></path>
<path d="M1062 863h20"></path>
<g>
<path d="M1082 863h0"></path>
<path d="M1348 863h0"></path>
<path d="M1082 863h20"></path>
<g>
<path d="M1102 863h0"></path>
<path d="M1296 863h32"></path>
<g class="terminal">
<path d="M1102 863h0"></path>
<path d="M1194 863h0"></path>
<rect x="1102" y="852" width="92" height="22" rx="10" ry="10"></rect>
<text x="1148" y="867">"INVERSE"</text>
</g>
<path d="M1194 863h10"></path>
<g>
<path d="M1204 863h0"></path>
<path d="M1296 863h0"></path>
<path d="M1204 863a10 10 0 0 0 10 -10v0a10 10 0 0 1 10 -10"></path>
<g>
<path d="M1224 843h52"></path>
</g>
<path d="M1276 843a10 10 0 0 1 10 10v0a10 10 0 0 0 10 10"></path>
<path d="M1204 863h20"></path>
<g class="terminal">
<path d="M1224 863h0"></path>
<path d="M1276 863h0"></path>
<rect x="1224" y="852" width="52" height="22" rx="10" ry="10"></rect>
<text x="1250" y="867">"ON"</text>
</g>
<path d="M1276 863h20"></path>
</g>
</g>
<path d="M1328 863h20"></path>
<path d="M1082 863a10 10 0 0 1 10 10v19a10 10 0 0 0 10 10"></path>
<g>
<path d="M1102 902h0"></path>
<path d="M1328 902h0"></path>
<g class="terminal">
<path d="M1102 902h0"></path>
<path d="M1226 902h0"></path>
<rect x="1102" y="891" width="124" height="22" rx="10" ry="10"></rect>
<text x="1164" y="906">"INTENSIFIED"</text>
</g>
<path d="M1226 902h10"></path>
<g>
<path d="M1236 902h0"></path>
<path d="M1328 902h0"></path>
<path d="M1236 902a10 10 0 0 0 10 -10v0a10 10 0 0 1 10 -10"></path>
<g>
<path d="M1256 882h52"></path>
</g>
<path d="M1308 882a10 10 0 0 1 10 10v0a10 10 0 0 0 10 10"></path>
<path d="M1236 902h20"></path>
<g class="terminal">
<path d="M1256 902h0"></path>
<path d="M1308 902h0"></path>
<rect x="1256" y="891" width="52" height="22" rx="10" ry="10"></rect>
<text x="1282" y="906">"ON"</text>
</g>
<path d="M1308 902h20"></path>
</g>
</g>
<path d="M1328 902a10 10 0 0 0 10 -10v-19a10 10 0 0 1 10 -10"></path>
</g>
<path d="M1348 863h20"></path>
</g>
</g>
<path d="M1368 863a10 10 0 0 0 10 -10v-805"></path>
<path d="M794 48v874a10 10 0 0 0 10 10"></path>
<g>
<path d="M804 932h0"></path>
<path d="M992 932h376"></path>
<g class="terminal">
<path d="M804 932h0"></path>
<path d="M904 932h0"></path>
<rect x="804" y="921" width="100" height="22" rx="10" ry="10"></rect>
<text x="854" y="936">"CURRENCY"</text>
</g>
<path d="M904 932h10"></path>
<path d="M914 932h10"></path>
<g class="non-terminal">
<path d="M924 932h0"></path>
<path d="M992 932h0"></path>
<rect x="924" y="921" width="68" height="22"></rect>
<a xlink:href="reuse_source.svg"><text x="958" y="936">Source</text>
</a>
</g>
</g>
<path d="M1368 932a10 10 0 0 0 10 -10v-874"></path>
<path d="M794 48v904a10 10 0 0 0 10 10"></path>
<g class="terminal">
<path d="M804 962h0"></path>
<path d="M896 962h472"></path>
<rect x="804" y="951" width="92" height="22" rx="10" ry="10"></rect>
<text x="850" y="966">"NO-SIGN"</text>
</g>
<path d="M1368 962a10 10 0 0 0 10 -10v-904"></path>
<g class="diagram-text">
<title>take one or more branches, once each, in any order</title>
<path d="M 794 38 h -26 a 4 4 0 0 0 -4 4 v 12 a 4 4 0 0 0 4 4 h 26 z" class="diagram-text"></path>
<text x="779" y="52" class="diagram-text">1+</text>
<path d="M 1378 38 h 16 a 4 4 0 0 1 4 4 v 12 a 4 4 0 0 1 -4 4 h -16 z" class="diagram-text"></path>
<path d="M 1385 46 a 4 4 0 1 0 6 -1 m 2.75 -1 h -4 v 4 m 0 -3 h 2" style="stroke-width: 1.75"></path>
</g>
</g>
<path d="M1398 48h20"></path>
</g>
</g>
<path d="M1418 48h10"></path>
<path d="M 1428 48 h 20 m -10 -10 v 20 m 10 -20 v 20"></path>
</g>
</svg>
