<svg xmlns="http://www.w3.org/2000/svg" xmlns:xlink="http://www.w3.org/1999/xlink" class="railroad-diagram" width="1292" height="778" viewBox="0 0 1292 778">
<defs>
<style type="text/css"><![CDATA[
path {
stroke-width: 3;
stroke: black;
fill: rgba(0,0,0,0);
}
text {
font: bold 14px monospace;
text-anchor: middle;
}
text.diagram-text {
font-size: 12px;
}
a {
fill: blue;
}
text.diagram-arrow {
font-size: 16px;
}
text.label {
text-anchor: start;
}
text.comment {
font: italic 12px monospace;
}
rect {
stroke-width: 3;
stroke: black;
fill: #BCBCBC;
}
path.diagram-text {
stroke-width: 3;
stroke: black;
fill: #BCBCBC;
cursor: help;
}
]]></style>
</defs>
<g transform="translate(.5 .5)">
<path d="M 20 38 v 20 m 10 -20 v 20 m -10 -10 h 20.5"></path>
<path d="M40 48h10"></path>
<g>
<path d="M50 48h0"></path>
<path d="M1242 48h0"></path>
<g class="terminal">
<path d="M50 48h0"></path>
<path d="M126 48h0"></path>
<rect x="50" y="37" width="76" height="22" rx="10" ry="10"></rect>
<text x="88" y="52">"WRITE"</text>
</g>
<path d="M126 48h10"></path>
<g>
<path d="M136 48h0"></path>
<path d="M562 48h0"></path>
<path d="M136 48a10 10 0 0 0 10 -10v-8a10 10 0 0 1 10 -10"></path>
<g>
<path d="M156 20h386"></path>
</g>
<path d="M542 20a10 10 0 0 1 10 10v8a10 10 0 0 0 10 10"></path>
<path d="M136 48h20"></path>
<g>
<path d="M156 48h0"></path>
<path d="M542 48h0"></path>
<path d="M156 48h20"></path>
<g>
<path d="M176 48h0"></path>
<path d="M362 48h160"></path>
<g>
<path d="M176 48h0"></path>
<path d="M268 48h0"></path>
<path d="M176 48a10 10 0 0 0 10 -10v0a10 10 0 0 1 10 -10"></path>
<g>
<path d="M196 28h52"></path>
</g>
<path d="M248 28a10 10 0 0 1 10 10v0a10 10 0 0 0 10 10"></path>
<path d="M176 48h20"></path>
<g class="terminal">
<path d="M196 48h0"></path>
<path d="M248 48h0"></path>
<rect x="196" y="37" width="52" height="22" rx="10" ry="10"></rect>
<text x="222" y="52">"AT"</text>
</g>
<path d="M248 48h20"></path>
</g>
<path d="M268 48h10"></path>
<g class="terminal">
<path d="M278 48h0"></path>
<path d="M362 48h0"></path>
<rect x="278" y="37" width="84" height="22" rx="10" ry="10"></rect>
<text x="320" y="52">^\/?\d+$</text>
</g>
</g>
<path d="M522 48h20"></path>
<path d="M156 48a10 10 0 0 1 10 10v19a10 10 0 0 0 10 10"></path>
<g>
<path d="M176 87h0"></path>
<path d="M522 87h0"></path>
<path d="M176 87h20"></path>
<g>
<path d="M196 87h0"></path>
<path d="M502 87h0"></path>
<g class="terminal">
<path d="M196 87h0"></path>
<path d="M240 87h0"></path>
<rect x="196" y="76" width="44" height="22" rx="10" ry="10"></rect>
<text x="218" y="91">"/"</text>
</g>
<path d="M240 87h10"></path>
<g>
<path d="M250 87h0"></path>
<path d="M502 87h0"></path>
<path d="M250 87a10 10 0 0 0 10 -10v0a10 10 0 0 1 10 -10"></path>
<g>
<path d="M270 67h212"></path>
</g>
<path d="M482 67a10 10 0 0 1 10 10v0a10 10 0 0 0 10 10"></path>
<path d="M250 87h20"></path>
<g>
<path d="M270 87h0"></path>
<path d="M482 87h0"></path>
<g class="terminal">
<path d="M270 87h0"></path>
<path d="M322 87h0"></path>
<rect x="270" y="76" width="52" height="22" rx="10" ry="10"></rect>
<text x="296" y="91">!"("</text>
</g>
<path d="M322 87h10"></path>
<path d="M332 87h10"></path>
<g class="terminal">
<path d="M342 87h0"></path>
<path d="M402 87h0"></path>
<rect x="342" y="76" width="60" height="22" rx="10" ry="10"></rect>
<text x="372" y="91">^\d+$</text>
</g>
<path d="M402 87h10"></path>
<path d="M412 87h10"></path>
<g class="terminal">
<path d="M422 87h0"></path>
<path d="M482 87h0"></path>
<rect x="422" y="76" width="60" height="22" rx="10" ry="10"></rect>
<text x="452" y="91">!") "</text>
</g>
</g>
<path d="M482 87h20"></path>
</g>
</g>
<path d="M502 87h20"></path>
<path d="M176 87a10 10 0 0 1 10 10v10a10 10 0 0 0 10 10"></path>
<g>
<path d="M196 117h0"></path>
<path d="M416 117h86"></path>
<g class="terminal">
<path d="M196 117h0"></path>
<path d="M256 117h0"></path>
<rect x="196" y="106" width="60" height="22" rx="10" ry="10"></rect>
<text x="226" y="121">!" ("</text>
</g>
<path d="M256 117h10"></path>
<path d="M266 117h10"></path>
<g class="terminal">
<path d="M276 117h0"></path>
<path d="M336 117h0"></path>
<rect x="276" y="106" width="60" height="22" rx="10" ry="10"></rect>
<text x="306" y="121">^\d+$</text>
</g>
<path d="M336 117h10"></path>
<path d="M346 117h10"></path>
<g class="terminal">
<path d="M356 117h0"></path>
<path d="M416 117h0"></path>
<rect x="356" y="106" width="60" height="22" rx="10" ry="10"></rect>
<text x="386" y="121">!") "</text>
</g>
</g>
<path d="M502 117a10 10 0 0 0 10 -10v-10a10 10 0 0 1 10 -10"></path>
</g>
<path d="M522 87a10 10 0 0 0 10 -10v-19a10 10 0 0 1 10 -10"></path>
</g>
<path d="M542 48h20"></path>
</g>
<g>
<path d="M562 48h0"></path>
<path d="M670 48h0"></path>
<path d="M562 48a10 10 0 0 0 10 -10v0a10 10 0 0 1 10 -10"></path>
<g>
<path d="M582 28h68"></path>
</g>
<path d="M650 28a10 10 0 0 1 10 10v0a10 10 0 0 0 10 10"></path>
<path d="M562 48h20"></path>
<g class="non-terminal">
<path d="M582 48h0"></path>
<path d="M650 48h0"></path>
<rect x="582" y="37" width="68" height="22"></rect>
<a xlink:href="reuse_source.svg"><text x="616" y="52">Source</text>
</a>
</g>
<path d="M650 48h20"></path>
</g>
<g>
<path d="M670 48h0"></path>
<path d="M1242 48h0"></path>
<path d="M670 48a10 10 0 0 0 10 -10v0a10 10 0 0 1 10 -10"></path>
<g>
<path d="M690 28h532"></path>
</g>
<path d="M1222 28a10 10 0 0 1 10 10v0a10 10 0 0 0 10 10"></path>
<path d="M670 48h20"></path>
<g>
<path d="M690 48h0"></path>
<path d="M1222 48h0"></path>
<path d="M720 48h10"></path>
<g>
<path d="M730 48h0"></path>
<path d="M974 48h218"></path>
<g class="terminal">
<path d="M730 48h0"></path>
<path d="M886 48h0"></path>
<rect x="730" y="37" width="156" height="22" rx="10" ry="10"></rect>
<text x="808" y="52">"USING EDIT MASK"</text>
</g>
<path d="M886 48h10"></path>
<path d="M896 48h10"></path>
<g class="non-terminal">
<path d="M906 48h0"></path>
<path d="M974 48h0"></path>
<rect x="906" y="37" width="68" height="22"></rect>
<a xlink:href="reuse_source.svg"><text x="940" y="52">Source</text>
</a>
</g>
</g>
<path d="M1192 48h10"></path>
<path d="M720 48v20a10 10 0 0 0 10 10"></path>
<g>
<path d="M730 78h0"></path>
<path d="M870 78h322"></path>
<g class="terminal">
<path d="M730 78h0"></path>
<path d="M782 78h0"></path>
<rect x="730" y="67" width="52" height="22" rx="10" ry="10"></rect>
<text x="756" y="82">"TO"</text>
</g>
<path d="M782 78h10"></path>
<path d="M792 78h10"></path>
<g class="non-terminal">
<path d="M802 78h0"></path>
<path d="M870 78h0"></path>
<rect x="802" y="67" width="68" height="22"></rect>
<a xlink:href="reuse_target.svg"><text x="836" y="82">Target</text>
</a>
</g>
</g>
<path d="M1192 78a10 10 0 0 0 10 -10v-20"></path>
<path d="M720 48v50a10 10 0 0 0 10 10"></path>
<g>
<path d="M730 108h0"></path>
<path d="M918 108h274"></path>
<g class="terminal">
<path d="M730 108h0"></path>
<path d="M830 108h0"></path>
<rect x="730" y="97" width="100" height="22" rx="10" ry="10"></rect>
<text x="780" y="112">"EXPONENT"</text>
</g>
<path d="M830 108h10"></path>
<path d="M840 108h10"></path>
<g class="non-terminal">
<path d="M850 108h0"></path>
<path d="M918 108h0"></path>
<rect x="850" y="97" width="68" height="22"></rect>
<a xlink:href="reuse_source.svg"><text x="884" y="112">Source</text>
</a>
</g>
</g>
<path d="M1192 108a10 10 0 0 0 10 -10v-50"></path>
<path d="M720 48v80a10 10 0 0 0 10 10"></path>
<g class="terminal">
<path d="M730 138h0"></path>
<path d="M854 138h338"></path>
<rect x="730" y="127" width="124" height="22" rx="10" ry="10"></rect>
<text x="792" y="142">"NO-GROUPING"</text>
</g>
<path d="M1192 138a10 10 0 0 0 10 -10v-80"></path>
<path d="M720 48v110a10 10 0 0 0 10 10"></path>
<g class="terminal">
<path d="M730 168h0"></path>
<path d="M822 168h370"></path>
<rect x="730" y="157" width="92" height="22" rx="10" ry="10"></rect>
<text x="776" y="172">"NO-ZERO"</text>
</g>
<path d="M1192 168a10 10 0 0 0 10 -10v-110"></path>
<path d="M720 48v140a10 10 0 0 0 10 10"></path>
<g>
<path d="M730 198h0"></path>
<path d="M916 198h276"></path>
<g class="terminal">
<path d="M730 198h0"></path>
<path d="M806 198h0"></path>
<rect x="730" y="187" width="76" height="22" rx="10" ry="10"></rect>
<text x="768" y="202">"INPUT"</text>
</g>
<path d="M806 198h10"></path>
<g>
<path d="M816 198h0"></path>
<path d="M916 198h0"></path>
<path d="M816 198h20"></path>
<g class="terminal">
<path d="M836 198h0"></path>
<path d="M888 198h8"></path>
<rect x="836" y="187" width="52" height="22" rx="10" ry="10"></rect>
<text x="862" y="202">"ON"</text>
</g>
<path d="M896 198h20"></path>
<path d="M816 198a10 10 0 0 1 10 10v10a10 10 0 0 0 10 10"></path>
<g class="terminal">
<path d="M836 228h0"></path>
<path d="M896 228h0"></path>
<rect x="836" y="217" width="60" height="22" rx="10" ry="10"></rect>
<text x="866" y="232">"OFF"</text>
</g>
<path d="M896 228a10 10 0 0 0 10 -10v-10a10 10 0 0 1 10 -10"></path>
</g>
</g>
<path d="M1192 198a10 10 0 0 0 10 -10v-140"></path>
<path d="M720 48v200a10 10 0 0 0 10 10"></path>
<g class="terminal">
<path d="M730 258h0"></path>
<path d="M814 258h378"></path>
<rect x="730" y="247" width="84" height="22" rx="10" ry="10"></rect>
<text x="772" y="262">"NO-GAP"</text>
</g>
<path d="M1192 258a10 10 0 0 0 10 -10v-200"></path>
<path d="M720 48v230a10 10 0 0 0 10 10"></path>
<g class="terminal">
<path d="M730 288h0"></path>
<path d="M878 288h314"></path>
<rect x="730" y="277" width="148" height="22" rx="10" ry="10"></rect>
<text x="804" y="292">"LEFT-JUSTIFIED"</text>
</g>
<path d="M1192 288a10 10 0 0 0 10 -10v-230"></path>
<path d="M720 48v260a10 10 0 0 0 10 10"></path>
<g class="terminal">
<path d="M730 318h0"></path>
<path d="M822 318h370"></path>
<rect x="730" y="307" width="92" height="22" rx="10" ry="10"></rect>
<text x="776" y="322">"AS LINE"</text>
</g>
<path d="M1192 318a10 10 0 0 0 10 -10v-260"></path>
<path d="M720 48v290a10 10 0 0 0 10 10"></path>
<g class="terminal">
<path d="M730 348h0"></path>
<path d="M822 348h370"></path>
<rect x="730" y="337" width="92" height="22" rx="10" ry="10"></rect>
<text x="776" y="352">"AS ICON"</text>
</g>
<path d="M1192 348a10 10 0 0 0 10 -10v-290"></path>
<path d="M720 48v320a10 10 0 0 0 10 10"></path>
<g class="terminal">
<path d="M730 378h0"></path>
<path d="M854 378h338"></path>
<rect x="730" y="367" width="124" height="22" rx="10" ry="10"></rect>
<text x="792" y="382">"AS CHECKBOX"</text>
</g>
<path d="M1192 378a10 10 0 0 0 10 -10v-320"></path>
<path d="M720 48v350a10 10 0 0 0 10 10"></path>
<g class="terminal">
<path d="M730 408h0"></path>
<path d="M838 408h354"></path>
<rect x="730" y="397" width="108" height="22" rx="10" ry="10"></rect>
<text x="784" y="412">"AS SYMBOL"</text>
</g>
<path d="M1192 408a10 10 0 0 0 10 -10v-350"></path>
<path d="M720 48v380a10 10 0 0 0 10 10"></path>
<g class="terminal">
<path d="M730 438h0"></path>
<path d="M886 438h306"></path>
<rect x="730" y="427" width="156" height="22" rx="10" ry="10"></rect>
<text x="808" y="442">"RIGHT-JUSTIFIED"</text>
</g>
<path d="M1192 438a10 10 0 0 0 10 -10v-380"></path>
<path d="M720 48v410a10 10 0 0 0 10 10"></path>
<g>
<path d="M730 468h0"></path>
<path d="M894 468h298"></path>
<g class="terminal">
<path d="M730 468h0"></path>
<path d="M806 468h0"></path>
<rect x="730" y="457" width="76" height="22" rx="10" ry="10"></rect>
<text x="768" y="472">"ROUND"</text>
</g>
<path d="M806 468h10"></path>
<path d="M816 468h10"></path>
<g class="non-terminal">
<path d="M826 468h0"></path>
<path d="M894 468h0"></path>
<rect x="826" y="457" width="68" height="22"></rect>
<a xlink:href="reuse_source.svg"><text x="860" y="472">Source</text>
</a>
</g>
</g>
<path d="M1192 468a10 10 0 0 0 10 -10v-410"></path>
<path d="M720 48v440a10 10 0 0 0 10 10"></path>
<g class="terminal">
<path d="M730 498h0"></path>
<path d="M950 498h242"></path>
<rect x="730" y="487" width="220" height="22" rx="10" ry="10"></rect>
<text x="840" y="502">"ENVIRONMENT TIME FORMAT"</text>
</g>
<path d="M1192 498a10 10 0 0 0 10 -10v-440"></path>
<path d="M720 48v470a10 10 0 0 0 10 10"></path>
<g class="terminal">
<path d="M730 528h0"></path>
<path d="M1054 528h138"></path>
<rect x="730" y="517" width="324" height="22" rx="10" ry="10"></rect>
<text x="892" y="532">^&#91;YMD&#93;{2,4}\/?&#91;YMD&#93;{2,4}\/?&#91;YMD&#93;{2,4}$</text>
</g>
<path d="M1192 528a10 10 0 0 0 10 -10v-470"></path>
<path d="M720 48v500a10 10 0 0 0 10 10"></path>
<g>
<path d="M730 558h0"></path>
<path d="M886 558h306"></path>
<g class="terminal">
<path d="M730 558h0"></path>
<path d="M798 558h0"></path>
<rect x="730" y="547" width="68" height="22" rx="10" ry="10"></rect>
<text x="764" y="562">"UNIT"</text>
</g>
<path d="M798 558h10"></path>
<path d="M808 558h10"></path>
<g class="non-terminal">
<path d="M818 558h0"></path>
<path d="M886 558h0"></path>
<rect x="818" y="547" width="68" height="22"></rect>
<a xlink:href="reuse_source.svg"><text x="852" y="562">Source</text>
</a>
</g>
</g>
<path d="M1192 558a10 10 0 0 0 10 -10v-500"></path>
<path d="M720 48v530a10 10 0 0 0 10 10"></path>
<g class="terminal">
<path d="M730 588h0"></path>
<path d="M886 588h306"></path>
<rect x="730" y="577" width="156" height="22" rx="10" ry="10"></rect>
<text x="808" y="592">"INTENSIFIED OFF"</text>
</g>
<path d="M1192 588a10 10 0 0 0 10 -10v-530"></path>
<path d="M720 48v560a10 10 0 0 0 10 10"></path>
<g>
<path d="M730 618h0"></path>
<path d="M918 618h274"></path>
<g class="terminal">
<path d="M730 618h0"></path>
<path d="M830 618h0"></path>
<rect x="730" y="607" width="100" height="22" rx="10" ry="10"></rect>
<text x="780" y="622">"DECIMALS"</text>
</g>
<path d="M830 618h10"></path>
<path d="M840 618h10"></path>
<g class="non-terminal">
<path d="M850 618h0"></path>
<path d="M918 618h0"></path>
<rect x="850" y="607" width="68" height="22"></rect>
<a xlink:href="reuse_source.svg"><text x="884" y="622">Source</text>
</a>
</g>
</g>
<path d="M1192 618a10 10 0 0 0 10 -10v-560"></path>
<path d="M720 48v599a10 10 0 0 0 10 10"></path>
<g>
<path d="M730 657h0"></path>
<path d="M1192 657h0"></path>
<g class="terminal">
<path d="M730 657h0"></path>
<path d="M806 657h0"></path>
<rect x="730" y="646" width="76" height="22" rx="10" ry="10"></rect>
<text x="768" y="661">"COLOR"</text>
</g>
<path d="M806 657h10"></path>
<g>
<path d="M816 657h0"></path>
<path d="M900 657h0"></path>
<path d="M816 657a10 10 0 0 0 10 -10v0a10 10 0 0 1 10 -10"></path>
<g>
<path d="M836 637h44"></path>
</g>
<path d="M880 637a10 10 0 0 1 10 10v0a10 10 0 0 0 10 10"></path>
<path d="M816 657h20"></path>
<g class="terminal">
<path d="M836 657h0"></path>
<path d="M880 657h0"></path>
<rect x="836" y="646" width="44" height="22" rx="10" ry="10"></rect>
<text x="858" y="661">"="</text>
</g>
<path d="M880 657h20"></path>
</g>
<path d="M900 657h10"></path>
<g class="non-terminal">
<path d="M910 657h0"></path>
<path d="M978 657h0"></path>
<rect x="910" y="646" width="68" height="22"></rect>
<a xlink:href="reuse_source.svg"><text x="944" y="661">Source</text>
</a>
</g>
<path d="M978 657h10"></path>
<g>
<path d="M988 657h0"></path>
<path d="M1192 657h0"></path>
<path d="M988 657a10 10 0 0 0 10 -10v0a10 10 0 0 1 10 -10"></path>
<g>
<path d="M1008 637h164"></path>
</g>
<path d="M1172 637a10 10 0 0 1 10 10v0a10 10 0 0 0 10 10"></path>
<path d="M988 657h20"></path>
<g>
<path d="M1008 657h0"></path>
<path d="M1172 657h0"></path>
<path d="M1008 657h20"></path>
<g class="terminal">
<path d="M1028 657h0"></path>
<path d="M1120 657h32"></path>
<rect x="1028" y="646" width="92" height="22" rx="10" ry="10"></rect>
<text x="1074" y="661">"INVERSE"</text>
</g>
<path d="M1152 657h20"></path>
<path d="M1008 657a10 10 0 0 1 10 10v10a10 10 0 0 0 10 10"></path>
<g class="terminal">
<path d="M1028 687h0"></path>
<path d="M1152 687h0"></path>
<rect x="1028" y="676" width="124" height="22" rx="10" ry="10"></rect>
<text x="1090" y="691">"INTENSIFIED"</text>
</g>
<path d="M1152 687a10 10 0 0 0 10 -10v-10a10 10 0 0 1 10 -10"></path>
</g>
<path d="M1172 657h20"></path>
</g>
</g>
<path d="M1192 657a10 10 0 0 0 10 -10v-599"></path>
<path d="M720 48v659a10 10 0 0 0 10 10"></path>
<g>
<path d="M730 717h0"></path>
<path d="M918 717h274"></path>
<g class="terminal">
<path d="M730 717h0"></path>
<path d="M830 717h0"></path>
<rect x="730" y="706" width="100" height="22" rx="10" ry="10"></rect>
<text x="780" y="721">"CURRENCY"</text>
</g>
<path d="M830 717h10"></path>
<path d="M840 717h10"></path>
<g class="non-terminal">
<path d="M850 717h0"></path>
<path d="M918 717h0"></path>
<rect x="850" y="706" width="68" height="22"></rect>
<a xlink:href="reuse_source.svg"><text x="884" y="721">Source</text>
</a>
</g>
</g>
<path d="M1192 717a10 10 0 0 0 10 -10v-659"></path>
<path d="M720 48v689a10 10 0 0 0 10 10"></path>
<g class="terminal">
<path d="M730 747h0"></path>
<path d="M822 747h370"></path>
<rect x="730" y="736" width="92" height="22" rx="10" ry="10"></rect>
<text x="776" y="751">"NO-SIGN"</text>
</g>
<path d="M1192 747a10 10 0 0 0 10 -10v-689"></path>
<g class="diagram-text">
<title>take one or more branches, once each, in any order</title>
<path d="M 720 38 h -26 a 4 4 0 0 0 -4 4 v 12 a 4 4 0 0 0 4 4 h 26 z" class="diagram-text"></path>
<text x="705" y="52" class="diagram-text">1+</text>
<path d="M 1202 38 h 16 a 4 4 0 0 1 4 4 v 12 a 4 4 0 0 1 -4 4 h -16 z" class="diagram-text"></path>
<path d="M 1209 46 a 4 4 0 1 0 6 -1 m 2.75 -1 h -4 v 4 m 0 -3 h 2" style="stroke-width: 1.75"></path>
</g>
</g>
<path d="M1222 48h20"></path>
</g>
</g>
<path d="M1242 48h10"></path>
<path d="M 1252 48 h 20 m -10 -10 v 20 m 10 -20 v 20"></path>
</g>
</svg>
