<svg xmlns="http://www.w3.org/2000/svg" xmlns:xlink="http://www.w3.org/1999/xlink" class="railroad-diagram" width="1516" height="1053" viewBox="0 0 1516 1053">
<defs>
<style type="text/css"><![CDATA[
path {
stroke-width: 3;
stroke: black;
fill: rgba(0,0,0,0);
}
text {
font: bold 14px monospace;
text-anchor: middle;
}
text.diagram-text {
font-size: 12px;
}
a {
fill: blue;
}
text.diagram-arrow {
font-size: 16px;
}
text.label {
text-anchor: start;
}
text.comment {
font: italic 12px monospace;
}
rect {
stroke-width: 3;
stroke: black;
fill: #BCBCBC;
}
path.diagram-text {
stroke-width: 3;
stroke: black;
fill: #BCBCBC;
cursor: help;
}
]]></style>
</defs>
<g transform="translate(.5 .5)">
<path d="M 20 38 v 20 m 10 -20 v 20 m -10 -10 h 20.5"></path>
<path d="M40 48h10"></path>
<g>
<path d="M50 48h0"></path>
<path d="M1466 48h0"></path>
<g class="terminal">
<path d="M50 48h0"></path>
<path d="M126 48h0"></path>
<rect x="50" y="37" width="76" height="22" rx="10" ry="10"></rect>
<text x="88" y="52">"WRITE"</text>
</g>
<path d="M126 48h10"></path>
<g>
<path d="M136 48h0"></path>
<path d="M636 48h0"></path>
<path d="M136 48a10 10 0 0 0 10 -10v-8a10 10 0 0 1 10 -10"></path>
<g>
<path d="M156 20h460"></path>
</g>
<path d="M616 20a10 10 0 0 1 10 10v8a10 10 0 0 0 10 10"></path>
<path d="M136 48h20"></path>
<g>
<path d="M156 48h0"></path>
<path d="M616 48h0"></path>
<path d="M156 48h20"></path>
<g>
<path d="M176 48h0"></path>
<path d="M362 48h234"></path>
<g>
<path d="M176 48h0"></path>
<path d="M268 48h0"></path>
<path d="M176 48a10 10 0 0 0 10 -10v0a10 10 0 0 1 10 -10"></path>
<g>
<path d="M196 28h52"></path>
</g>
<path d="M248 28a10 10 0 0 1 10 10v0a10 10 0 0 0 10 10"></path>
<path d="M176 48h20"></path>
<g class="terminal">
<path d="M196 48h0"></path>
<path d="M248 48h0"></path>
<rect x="196" y="37" width="52" height="22" rx="10" ry="10"></rect>
<text x="222" y="52">"AT"</text>
</g>
<path d="M248 48h20"></path>
</g>
<path d="M268 48h10"></path>
<g class="terminal">
<path d="M278 48h0"></path>
<path d="M362 48h0"></path>
<rect x="278" y="37" width="84" height="22" rx="10" ry="10"></rect>
<text x="320" y="52">^\/?\d+$</text>
</g>
</g>
<path d="M596 48h20"></path>
<path d="M156 48a10 10 0 0 1 10 10v19a10 10 0 0 0 10 10"></path>
<g>
<path d="M176 87h0"></path>
<path d="M596 87h0"></path>
<path d="M176 87h20"></path>
<g>
<path d="M196 87h0"></path>
<path d="M502 87h74"></path>
<g class="terminal">
<path d="M196 87h0"></path>
<path d="M240 87h0"></path>
<rect x="196" y="76" width="44" height="22" rx="10" ry="10"></rect>
<text x="218" y="91">"/"</text>
</g>
<path d="M240 87h10"></path>
<g>
<path d="M250 87h0"></path>
<path d="M502 87h0"></path>
<path d="M250 87a10 10 0 0 0 10 -10v0a10 10 0 0 1 10 -10"></path>
<g>
<path d="M270 67h212"></path>
</g>
<path d="M482 67a10 10 0 0 1 10 10v0a10 10 0 0 0 10 10"></path>
<path d="M250 87h20"></path>
<g>
<path d="M270 87h0"></path>
<path d="M482 87h0"></path>
<g class="terminal">
<path d="M270 87h0"></path>
<path d="M322 87h0"></path>
<rect x="270" y="76" width="52" height="22" rx="10" ry="10"></rect>
<text x="296" y="91">!"("</text>
</g>
<path d="M322 87h10"></path>
<path d="M332 87h10"></path>
<g class="terminal">
<path d="M342 87h0"></path>
<path d="M402 87h0"></path>
<rect x="342" y="76" width="60" height="22" rx="10" ry="10"></rect>
<text x="372" y="91">^\d+$</text>
</g>
<path d="M402 87h10"></path>
<path d="M412 87h10"></path>
<g class="terminal">
<path d="M422 87h0"></path>
<path d="M482 87h0"></path>
<rect x="422" y="76" width="60" height="22" rx="10" ry="10"></rect>
<text x="452" y="91">!") "</text>
</g>
</g>
<path d="M482 87h20"></path>
</g>
</g>
<path d="M576 87h20"></path>
<path d="M176 87a10 10 0 0 1 10 10v19a10 10 0 0 0 10 10"></path>
<g>
<path d="M196 126h0"></path>
<path d="M550 126h26"></path>
<g>
<path d="M196 126h0"></path>
<path d="M288 126h0"></path>
<path d="M196 126a10 10 0 0 0 10 -10v0a10 10 0 0 1 10 -10"></path>
<g>
<path d="M216 106h52"></path>
</g>
<path d="M268 106a10 10 0 0 1 10 10v0a10 10 0 0 0 10 10"></path>
<path d="M196 126h20"></path>
<g class="terminal">
<path d="M216 126h0"></path>
<path d="M268 126h0"></path>
<rect x="216" y="115" width="52" height="22" rx="10" ry="10"></rect>
<text x="242" y="130">"AT"</text>
</g>
<path d="M268 126h20"></path>
</g>
<path d="M288 126h10"></path>
<g class="terminal">
<path d="M298 126h0"></path>
<path d="M358 126h0"></path>
<rect x="298" y="115" width="60" height="22" rx="10" ry="10"></rect>
<text x="328" y="130">!" ("</text>
</g>
<path d="M358 126h10"></path>
<path d="M368 126h10"></path>
<g class="terminal">
<path d="M378 126h0"></path>
<path d="M470 126h0"></path>
<rect x="378" y="115" width="92" height="22" rx="10" ry="10"></rect>
<text x="424" y="130">^&#91;\w\d&#93;+$</text>
</g>
<path d="M470 126h10"></path>
<path d="M480 126h10"></path>
<g class="terminal">
<path d="M490 126h0"></path>
<path d="M550 126h0"></path>
<rect x="490" y="115" width="60" height="22" rx="10" ry="10"></rect>
<text x="520" y="130">!") "</text>
</g>
</g>
<path d="M576 126a10 10 0 0 0 10 -10v-19a10 10 0 0 1 10 -10"></path>
<path d="M176 87a10 10 0 0 1 10 10v49a10 10 0 0 0 10 10"></path>
<g>
<path d="M196 156h0"></path>
<path d="M512 156h64"></path>
<g class="terminal">
<path d="M196 156h0"></path>
<path d="M280 156h0"></path>
<rect x="196" y="145" width="84" height="22" rx="10" ry="10"></rect>
<text x="238" y="160">^\/?\d+$</text>
</g>
<path d="M280 156h10"></path>
<path d="M290 156h10"></path>
<g class="terminal">
<path d="M300 156h0"></path>
<path d="M352 156h0"></path>
<rect x="300" y="145" width="52" height="22" rx="10" ry="10"></rect>
<text x="326" y="160">!"("</text>
</g>
<path d="M352 156h10"></path>
<path d="M362 156h10"></path>
<g class="terminal">
<path d="M372 156h0"></path>
<path d="M432 156h0"></path>
<rect x="372" y="145" width="60" height="22" rx="10" ry="10"></rect>
<text x="402" y="160">^\d+$</text>
</g>
<path d="M432 156h10"></path>
<path d="M442 156h10"></path>
<g class="terminal">
<path d="M452 156h0"></path>
<path d="M512 156h0"></path>
<rect x="452" y="145" width="60" height="22" rx="10" ry="10"></rect>
<text x="482" y="160">!") "</text>
</g>
</g>
<path d="M576 156a10 10 0 0 0 10 -10v-49a10 10 0 0 1 10 -10"></path>
<path d="M176 87a10 10 0 0 1 10 10v79a10 10 0 0 0 10 10"></path>
<g>
<path d="M196 186h0"></path>
<path d="M576 186h0"></path>
<g class="terminal">
<path d="M196 186h0"></path>
<path d="M248 186h0"></path>
<rect x="196" y="175" width="52" height="22" rx="10" ry="10"></rect>
<text x="222" y="190">"AT"</text>
</g>
<path d="M248 186h10"></path>
<path d="M258 186h10"></path>
<g class="terminal">
<path d="M268 186h0"></path>
<path d="M312 186h0"></path>
<rect x="268" y="175" width="44" height="22" rx="10" ry="10"></rect>
<text x="290" y="190">"/"</text>
</g>
<path d="M312 186h10"></path>
<path d="M322 186h10"></path>
<g class="terminal">
<path d="M332 186h0"></path>
<path d="M384 186h0"></path>
<rect x="332" y="175" width="52" height="22" rx="10" ry="10"></rect>
<text x="358" y="190">!"("</text>
</g>
<path d="M384 186h10"></path>
<path d="M394 186h10"></path>
<g class="terminal">
<path d="M404 186h0"></path>
<path d="M496 186h0"></path>
<rect x="404" y="175" width="92" height="22" rx="10" ry="10"></rect>
<text x="450" y="190">^&#91;\w\d&#93;+$</text>
</g>
<path d="M496 186h10"></path>
<path d="M506 186h10"></path>
<g class="terminal">
<path d="M516 186h0"></path>
<path d="M576 186h0"></path>
<rect x="516" y="175" width="60" height="22" rx="10" ry="10"></rect>
<text x="546" y="190">!") "</text>
</g>
</g>
<path d="M576 186a10 10 0 0 0 10 -10v-79a10 10 0 0 1 10 -10"></path>
</g>
<path d="M596 87a10 10 0 0 0 10 -10v-19a10 10 0 0 1 10 -10"></path>
</g>
<path d="M616 48h20"></path>
</g>
<g>
<path d="M636 48h0"></path>
<path d="M792 48h0"></path>
<path d="M636 48a10 10 0 0 0 10 -10v0a10 10 0 0 1 10 -10"></path>
<g>
<path d="M656 28h116"></path>
</g>
<path d="M772 28a10 10 0 0 1 10 10v0a10 10 0 0 0 10 10"></path>
<path d="M636 48h20"></path>
<g>
<path d="M656 48h0"></path>
<path d="M772 48h0"></path>
<path d="M656 48h20"></path>
<g class="non-terminal">
<path d="M676 48h0"></path>
<path d="M744 48h8"></path>
<rect x="676" y="37" width="68" height="22"></rect>
<a xlink:href="reuse_source.svg"><text x="710" y="52">Source</text>
</a>
</g>
<path d="M752 48h20"></path>
<path d="M656 48a10 10 0 0 1 10 10v10a10 10 0 0 0 10 10"></path>
<g class="non-terminal">
<path d="M676 78h0"></path>
<path d="M752 78h0"></path>
<rect x="676" y="67" width="76" height="22"></rect>
<a xlink:href="reuse_dynamic.svg"><text x="714" y="82">Dynamic</text>
</a>
</g>
<path d="M752 78a10 10 0 0 0 10 -10v-10a10 10 0 0 1 10 -10"></path>
</g>
<path d="M772 48h20"></path>
</g>
<g>
<path d="M792 48h0"></path>
<path d="M1466 48h0"></path>
<path d="M792 48a10 10 0 0 0 10 -10v0a10 10 0 0 1 10 -10"></path>
<g>
<path d="M812 28h634"></path>
</g>
<path d="M1446 28a10 10 0 0 1 10 10v0a10 10 0 0 0 10 10"></path>
<path d="M792 48h20"></path>
<g>
<path d="M812 48h0"></path>
<path d="M1446 48h0"></path>
<path d="M842 48h10"></path>
<g>
<path d="M852 48h0"></path>
<path d="M1174 48h242"></path>
<g class="terminal">
<path d="M852 48h0"></path>
<path d="M928 48h0"></path>
<rect x="852" y="37" width="76" height="22" rx="10" ry="10"></rect>
<text x="890" y="52">"USING"</text>
</g>
<path d="M928 48h10"></path>
<g>
<path d="M938 48h0"></path>
<path d="M1174 48h0"></path>
<path d="M938 48h20"></path>
<g class="terminal">
<path d="M958 48h0"></path>
<path d="M1090 48h64"></path>
<rect x="958" y="37" width="132" height="22" rx="10" ry="10"></rect>
<text x="1024" y="52">"NO EDIT MASK"</text>
</g>
<path d="M1154 48h20"></path>
<path d="M938 48a10 10 0 0 1 10 10v10a10 10 0 0 0 10 10"></path>
<g>
<path d="M958 78h0"></path>
<path d="M1154 78h0"></path>
<g class="terminal">
<path d="M958 78h0"></path>
<path d="M1066 78h0"></path>
<rect x="958" y="67" width="108" height="22" rx="10" ry="10"></rect>
<text x="1012" y="82">"EDIT MASK"</text>
</g>
<path d="M1066 78h10"></path>
<path d="M1076 78h10"></path>
<g class="non-terminal">
<path d="M1086 78h0"></path>
<path d="M1154 78h0"></path>
<rect x="1086" y="67" width="68" height="22"></rect>
<a xlink:href="reuse_source.svg"><text x="1120" y="82">Source</text>
</a>
</g>
</g>
<path d="M1154 78a10 10 0 0 0 10 -10v-10a10 10 0 0 1 10 -10"></path>
</g>
</g>
<path d="M1416 48h10"></path>
<path d="M842 48v50a10 10 0 0 0 10 10"></path>
<g>
<path d="M852 108h0"></path>
<path d="M992 108h424"></path>
<g class="terminal">
<path d="M852 108h0"></path>
<path d="M904 108h0"></path>
<rect x="852" y="97" width="52" height="22" rx="10" ry="10"></rect>
<text x="878" y="112">"TO"</text>
</g>
<path d="M904 108h10"></path>
<path d="M914 108h10"></path>
<g class="non-terminal">
<path d="M924 108h0"></path>
<path d="M992 108h0"></path>
<rect x="924" y="97" width="68" height="22"></rect>
<a xlink:href="reuse_target.svg"><text x="958" y="112">Target</text>
</a>
</g>
</g>
<path d="M1416 108a10 10 0 0 0 10 -10v-50"></path>
<path d="M842 48v80a10 10 0 0 0 10 10"></path>
<g>
<path d="M852 138h0"></path>
<path d="M1040 138h376"></path>
<g class="terminal">
<path d="M852 138h0"></path>
<path d="M952 138h0"></path>
<rect x="852" y="127" width="100" height="22" rx="10" ry="10"></rect>
<text x="902" y="142">"EXPONENT"</text>
</g>
<path d="M952 138h10"></path>
<path d="M962 138h10"></path>
<g class="non-terminal">
<path d="M972 138h0"></path>
<path d="M1040 138h0"></path>
<rect x="972" y="127" width="68" height="22"></rect>
<a xlink:href="reuse_source.svg"><text x="1006" y="142">Source</text>
</a>
</g>
</g>
<path d="M1416 138a10 10 0 0 0 10 -10v-80"></path>
<path d="M842 48v110a10 10 0 0 0 10 10"></path>
<g class="terminal">
<path d="M852 168h0"></path>
<path d="M976 168h440"></path>
<rect x="852" y="157" width="124" height="22" rx="10" ry="10"></rect>
<text x="914" y="172">"NO-GROUPING"</text>
</g>
<path d="M1416 168a10 10 0 0 0 10 -10v-110"></path>
<path d="M842 48v140a10 10 0 0 0 10 10"></path>
<g class="terminal">
<path d="M852 198h0"></path>
<path d="M944 198h472"></path>
<rect x="852" y="187" width="92" height="22" rx="10" ry="10"></rect>
<text x="898" y="202">"NO-ZERO"</text>
</g>
<path d="M1416 198a10 10 0 0 0 10 -10v-140"></path>
<path d="M842 48v170a10 10 0 0 0 10 10"></path>
<g class="terminal">
<path d="M852 228h0"></path>
<path d="M952 228h464"></path>
<rect x="852" y="217" width="100" height="22" rx="10" ry="10"></rect>
<text x="902" y="232">"CENTERED"</text>
</g>
<path d="M1416 228a10 10 0 0 0 10 -10v-170"></path>
<path d="M842 48v209a10 10 0 0 0 10 10"></path>
<g>
<path d="M852 267h0"></path>
<path d="M1078 267h338"></path>
<g class="terminal">
<path d="M852 267h0"></path>
<path d="M928 267h0"></path>
<rect x="852" y="256" width="76" height="22" rx="10" ry="10"></rect>
<text x="890" y="271">"INPUT"</text>
</g>
<path d="M928 267h10"></path>
<g>
<path d="M938 267h0"></path>
<path d="M1078 267h0"></path>
<path d="M938 267a10 10 0 0 0 10 -10v0a10 10 0 0 1 10 -10"></path>
<g>
<path d="M958 247h100"></path>
</g>
<path d="M1058 247a10 10 0 0 1 10 10v0a10 10 0 0 0 10 10"></path>
<path d="M938 267h20"></path>
<g>
<path d="M958 267h0"></path>
<path d="M1058 267h0"></path>
<path d="M958 267h20"></path>
<g class="terminal">
<path d="M978 267h0"></path>
<path d="M1030 267h8"></path>
<rect x="978" y="256" width="52" height="22" rx="10" ry="10"></rect>
<text x="1004" y="271">"ON"</text>
</g>
<path d="M1038 267h20"></path>
<path d="M958 267a10 10 0 0 1 10 10v10a10 10 0 0 0 10 10"></path>
<g class="terminal">
<path d="M978 297h0"></path>
<path d="M1038 297h0"></path>
<rect x="978" y="286" width="60" height="22" rx="10" ry="10"></rect>
<text x="1008" y="301">"OFF"</text>
</g>
<path d="M1038 297a10 10 0 0 0 10 -10v-10a10 10 0 0 1 10 -10"></path>
</g>
<path d="M1058 267h20"></path>
</g>
</g>
<path d="M1416 267a10 10 0 0 0 10 -10v-209"></path>
<path d="M842 48v269a10 10 0 0 0 10 10"></path>
<g class="terminal">
<path d="M852 327h0"></path>
<path d="M936 327h480"></path>
<rect x="852" y="316" width="84" height="22" rx="10" ry="10"></rect>
<text x="894" y="331">"NO-GAP"</text>
</g>
<path d="M1416 327a10 10 0 0 0 10 -10v-269"></path>
<path d="M842 48v299a10 10 0 0 0 10 10"></path>
<g class="terminal">
<path d="M852 357h0"></path>
<path d="M1000 357h416"></path>
<rect x="852" y="346" width="148" height="22" rx="10" ry="10"></rect>
<text x="926" y="361">"LEFT-JUSTIFIED"</text>
</g>
<path d="M1416 357a10 10 0 0 0 10 -10v-299"></path>
<path d="M842 48v329a10 10 0 0 0 10 10"></path>
<g class="terminal">
<path d="M852 387h0"></path>
<path d="M944 387h472"></path>
<rect x="852" y="376" width="92" height="22" rx="10" ry="10"></rect>
<text x="898" y="391">"AS LINE"</text>
</g>
<path d="M1416 387a10 10 0 0 0 10 -10v-329"></path>
<path d="M842 48v359a10 10 0 0 0 10 10"></path>
<g class="terminal">
<path d="M852 417h0"></path>
<path d="M944 417h472"></path>
<rect x="852" y="406" width="92" height="22" rx="10" ry="10"></rect>
<text x="898" y="421">"AS ICON"</text>
</g>
<path d="M1416 417a10 10 0 0 0 10 -10v-359"></path>
<path d="M842 48v398a10 10 0 0 0 10 10"></path>
<g>
<path d="M852 456h0"></path>
<path d="M1094 456h322"></path>
<g class="terminal">
<path d="M852 456h0"></path>
<path d="M944 456h0"></path>
<rect x="852" y="445" width="92" height="22" rx="10" ry="10"></rect>
<text x="898" y="460">"HOTSPOT"</text>
</g>
<path d="M944 456h10"></path>
<g>
<path d="M954 456h0"></path>
<path d="M1094 456h0"></path>
<path d="M954 456a10 10 0 0 0 10 -10v0a10 10 0 0 1 10 -10"></path>
<g>
<path d="M974 436h100"></path>
</g>
<path d="M1074 436a10 10 0 0 1 10 10v0a10 10 0 0 0 10 10"></path>
<path d="M954 456h20"></path>
<g>
<path d="M974 456h0"></path>
<path d="M1074 456h0"></path>
<path d="M974 456h20"></path>
<g class="terminal">
<path d="M994 456h0"></path>
<path d="M1046 456h8"></path>
<rect x="994" y="445" width="52" height="22" rx="10" ry="10"></rect>
<text x="1020" y="460">"ON"</text>
</g>
<path d="M1054 456h20"></path>
<path d="M974 456a10 10 0 0 1 10 10v10a10 10 0 0 0 10 10"></path>
<g class="terminal">
<path d="M994 486h0"></path>
<path d="M1054 486h0"></path>
<rect x="994" y="475" width="60" height="22" rx="10" ry="10"></rect>
<text x="1024" y="490">"OFF"</text>
</g>
<path d="M1054 486a10 10 0 0 0 10 -10v-10a10 10 0 0 1 10 -10"></path>
</g>
<path d="M1074 456h20"></path>
</g>
</g>
<path d="M1416 456a10 10 0 0 0 10 -10v-398"></path>
<path d="M842 48v458a10 10 0 0 0 10 10"></path>
<g class="terminal">
<path d="M852 516h0"></path>
<path d="M976 516h440"></path>
<rect x="852" y="505" width="124" height="22" rx="10" ry="10"></rect>
<text x="914" y="520">"AS CHECKBOX"</text>
</g>
<path d="M1416 516a10 10 0 0 0 10 -10v-458"></path>
<path d="M842 48v488a10 10 0 0 0 10 10"></path>
<g class="terminal">
<path d="M852 546h0"></path>
<path d="M960 546h456"></path>
<rect x="852" y="535" width="108" height="22" rx="10" ry="10"></rect>
<text x="906" y="550">"AS SYMBOL"</text>
</g>
<path d="M1416 546a10 10 0 0 0 10 -10v-488"></path>
<path d="M842 48v518a10 10 0 0 0 10 10"></path>
<g class="terminal">
<path d="M852 576h0"></path>
<path d="M1008 576h408"></path>
<rect x="852" y="565" width="156" height="22" rx="10" ry="10"></rect>
<text x="930" y="580">"RIGHT-JUSTIFIED"</text>
</g>
<path d="M1416 576a10 10 0 0 0 10 -10v-518"></path>
<path d="M842 48v548a10 10 0 0 0 10 10"></path>
<g>
<path d="M852 606h0"></path>
<path d="M1048 606h368"></path>
<g class="terminal">
<path d="M852 606h0"></path>
<path d="M960 606h0"></path>
<rect x="852" y="595" width="108" height="22" rx="10" ry="10"></rect>
<text x="906" y="610">"TIME ZONE"</text>
</g>
<path d="M960 606h10"></path>
<path d="M970 606h10"></path>
<g class="non-terminal">
<path d="M980 606h0"></path>
<path d="M1048 606h0"></path>
<rect x="980" y="595" width="68" height="22"></rect>
<a xlink:href="reuse_source.svg"><text x="1014" y="610">Source</text>
</a>
</g>
</g>
<path d="M1416 606a10 10 0 0 0 10 -10v-548"></path>
<path d="M842 48v578a10 10 0 0 0 10 10"></path>
<g>
<path d="M852 636h0"></path>
<path d="M1016 636h400"></path>
<g class="terminal">
<path d="M852 636h0"></path>
<path d="M928 636h0"></path>
<rect x="852" y="625" width="76" height="22" rx="10" ry="10"></rect>
<text x="890" y="640">"UNDER"</text>
</g>
<path d="M928 636h10"></path>
<path d="M938 636h10"></path>
<g class="non-terminal">
<path d="M948 636h0"></path>
<path d="M1016 636h0"></path>
<rect x="948" y="625" width="68" height="22"></rect>
<a xlink:href="reuse_source.svg"><text x="982" y="640">Source</text>
</a>
</g>
</g>
<path d="M1416 636a10 10 0 0 0 10 -10v-578"></path>
<path d="M842 48v608a10 10 0 0 0 10 10"></path>
<g>
<path d="M852 666h0"></path>
<path d="M1016 666h400"></path>
<g class="terminal">
<path d="M852 666h0"></path>
<path d="M928 666h0"></path>
<rect x="852" y="655" width="76" height="22" rx="10" ry="10"></rect>
<text x="890" y="670">"STYLE"</text>
</g>
<path d="M928 666h10"></path>
<path d="M938 666h10"></path>
<g class="non-terminal">
<path d="M948 666h0"></path>
<path d="M1016 666h0"></path>
<rect x="948" y="655" width="68" height="22"></rect>
<a xlink:href="reuse_source.svg"><text x="982" y="670">Source</text>
</a>
</g>
</g>
<path d="M1416 666a10 10 0 0 0 10 -10v-608"></path>
<path d="M842 48v638a10 10 0 0 0 10 10"></path>
<g>
<path d="M852 696h0"></path>
<path d="M1016 696h400"></path>
<g class="terminal">
<path d="M852 696h0"></path>
<path d="M928 696h0"></path>
<rect x="852" y="685" width="76" height="22" rx="10" ry="10"></rect>
<text x="890" y="700">"ROUND"</text>
</g>
<path d="M928 696h10"></path>
<path d="M938 696h10"></path>
<g class="non-terminal">
<path d="M948 696h0"></path>
<path d="M1016 696h0"></path>
<rect x="948" y="685" width="68" height="22"></rect>
<a xlink:href="reuse_source.svg"><text x="982" y="700">Source</text>
</a>
</g>
</g>
<path d="M1416 696a10 10 0 0 0 10 -10v-638"></path>
<path d="M842 48v668a10 10 0 0 0 10 10"></path>
<g>
<path d="M852 726h0"></path>
<path d="M1048 726h368"></path>
<g class="terminal">
<path d="M852 726h0"></path>
<path d="M960 726h0"></path>
<rect x="852" y="715" width="108" height="22" rx="10" ry="10"></rect>
<text x="906" y="730">"QUICKINFO"</text>
</g>
<path d="M960 726h10"></path>
<path d="M970 726h10"></path>
<g class="non-terminal">
<path d="M980 726h0"></path>
<path d="M1048 726h0"></path>
<rect x="980" y="715" width="68" height="22"></rect>
<a xlink:href="reuse_source.svg"><text x="1014" y="730">Source</text>
</a>
</g>
</g>
<path d="M1416 726a10 10 0 0 0 10 -10v-668"></path>
<path d="M842 48v698a10 10 0 0 0 10 10"></path>
<g class="terminal">
<path d="M852 756h0"></path>
<path d="M1072 756h344"></path>
<rect x="852" y="745" width="220" height="22" rx="10" ry="10"></rect>
<text x="962" y="760">"ENVIRONMENT TIME FORMAT"</text>
</g>
<path d="M1416 756a10 10 0 0 0 10 -10v-698"></path>
<path d="M842 48v728a10 10 0 0 0 10 10"></path>
<g class="terminal">
<path d="M852 786h0"></path>
<path d="M1176 786h240"></path>
<rect x="852" y="775" width="324" height="22" rx="10" ry="10"></rect>
<text x="1014" y="790">^&#91;YMD&#93;{2,4}\/?&#91;YMD&#93;{2,4}\/?&#91;YMD&#93;{2,4}$</text>
</g>
<path d="M1416 786a10 10 0 0 0 10 -10v-728"></path>
<path d="M842 48v758a10 10 0 0 0 10 10"></path>
<g>
<path d="M852 816h0"></path>
<path d="M1008 816h408"></path>
<g class="terminal">
<path d="M852 816h0"></path>
<path d="M920 816h0"></path>
<rect x="852" y="805" width="68" height="22" rx="10" ry="10"></rect>
<text x="886" y="820">"UNIT"</text>
</g>
<path d="M920 816h10"></path>
<path d="M930 816h10"></path>
<g class="non-terminal">
<path d="M940 816h0"></path>
<path d="M1008 816h0"></path>
<rect x="940" y="805" width="68" height="22"></rect>
<a xlink:href="reuse_source.svg"><text x="974" y="820">Source</text>
</a>
</g>
</g>
<path d="M1416 816a10 10 0 0 0 10 -10v-758"></path>
<path d="M842 48v788a10 10 0 0 0 10 10"></path>
<g class="terminal">
<path d="M852 846h0"></path>
<path d="M1008 846h408"></path>
<rect x="852" y="835" width="156" height="22" rx="10" ry="10"></rect>
<text x="930" y="850">"INTENSIFIED OFF"</text>
</g>
<path d="M1416 846a10 10 0 0 0 10 -10v-788"></path>
<path d="M842 48v818a10 10 0 0 0 10 10"></path>
<g>
<path d="M852 876h0"></path>
<path d="M1040 876h376"></path>
<g class="terminal">
<path d="M852 876h0"></path>
<path d="M952 876h0"></path>
<rect x="852" y="865" width="100" height="22" rx="10" ry="10"></rect>
<text x="902" y="880">"DECIMALS"</text>
</g>
<path d="M952 876h10"></path>
<path d="M962 876h10"></path>
<g class="non-terminal">
<path d="M972 876h0"></path>
<path d="M1040 876h0"></path>
<rect x="972" y="865" width="68" height="22"></rect>
<a xlink:href="reuse_source.svg"><text x="1006" y="880">Source</text>
</a>
</g>
</g>
<path d="M1416 876a10 10 0 0 0 10 -10v-818"></path>
<path d="M842 48v865a10 10 0 0 0 10 10"></path>
<g>
<path d="M852 923h0"></path>
<path d="M1416 923h0"></path>
<g class="terminal">
<path d="M852 923h0"></path>
<path d="M928 923h0"></path>
<rect x="852" y="912" width="76" height="22" rx="10" ry="10"></rect>
<text x="890" y="927">"COLOR"</text>
</g>
<path d="M928 923h10"></path>
<g>
<path d="M938 923h0"></path>
<path d="M1022 923h0"></path>
<path d="M938 923a10 10 0 0 0 10 -10v0a10 10 0 0 1 10 -10"></path>
<g>
<path d="M958 903h44"></path>
</g>
<path d="M1002 903a10 10 0 0 1 10 10v0a10 10 0 0 0 10 10"></path>
<path d="M938 923h20"></path>
<g class="terminal">
<path d="M958 923h0"></path>
<path d="M1002 923h0"></path>
<rect x="958" y="912" width="44" height="22" rx="10" ry="10"></rect>
<text x="980" y="927">"="</text>
</g>
<path d="M1002 923h20"></path>
</g>
<path d="M1022 923h10"></path>
<g class="non-terminal">
<path d="M1032 923h0"></path>
<path d="M1100 923h0"></path>
<rect x="1032" y="912" width="68" height="22"></rect>
<a xlink:href="reuse_source.svg"><text x="1066" y="927">Source</text>
</a>
</g>
<path d="M1100 923h10"></path>
<g>
<path d="M1110 923h0"></path>
<path d="M1416 923h0"></path>
<path d="M1110 923a10 10 0 0 0 10 -10v-8a10 10 0 0 1 10 -10"></path>
<g>
<path d="M1130 895h266"></path>
</g>
<path d="M1396 895a10 10 0 0 1 10 10v8a10 10 0 0 0 10 10"></path>
<path d="M1110 923h20"></path>
<g>
<path d="M1130 923h0"></path>
<path d="M1396 923h0"></path>
<path d="M1130 923h20"></path>
<g>
<path d="M1150 923h0"></path>
<path d="M1344 923h32"></path>
<g class="terminal">
<path d="M1150 923h0"></path>
<path d="M1242 923h0"></path>
<rect x="1150" y="912" width="92" height="22" rx="10" ry="10"></rect>
<text x="1196" y="927">"INVERSE"</text>
</g>
<path d="M1242 923h10"></path>
<g>
<path d="M1252 923h0"></path>
<path d="M1344 923h0"></path>
<path d="M1252 923a10 10 0 0 0 10 -10v0a10 10 0 0 1 10 -10"></path>
<g>
<path d="M1272 903h52"></path>
</g>
<path d="M1324 903a10 10 0 0 1 10 10v0a10 10 0 0 0 10 10"></path>
<path d="M1252 923h20"></path>
<g class="terminal">
<path d="M1272 923h0"></path>
<path d="M1324 923h0"></path>
<rect x="1272" y="912" width="52" height="22" rx="10" ry="10"></rect>
<text x="1298" y="927">"ON"</text>
</g>
<path d="M1324 923h20"></path>
</g>
</g>
<path d="M1376 923h20"></path>
<path d="M1130 923a10 10 0 0 1 10 10v19a10 10 0 0 0 10 10"></path>
<g>
<path d="M1150 962h0"></path>
<path d="M1376 962h0"></path>
<g class="terminal">
<path d="M1150 962h0"></path>
<path d="M1274 962h0"></path>
<rect x="1150" y="951" width="124" height="22" rx="10" ry="10"></rect>
<text x="1212" y="966">"INTENSIFIED"</text>
</g>
<path d="M1274 962h10"></path>
<g>
<path d="M1284 962h0"></path>
<path d="M1376 962h0"></path>
<path d="M1284 962a10 10 0 0 0 10 -10v0a10 10 0 0 1 10 -10"></path>
<g>
<path d="M1304 942h52"></path>
</g>
<path d="M1356 942a10 10 0 0 1 10 10v0a10 10 0 0 0 10 10"></path>
<path d="M1284 962h20"></path>
<g class="terminal">
<path d="M1304 962h0"></path>
<path d="M1356 962h0"></path>
<rect x="1304" y="951" width="52" height="22" rx="10" ry="10"></rect>
<text x="1330" y="966">"ON"</text>
</g>
<path d="M1356 962h20"></path>
</g>
</g>
<path d="M1376 962a10 10 0 0 0 10 -10v-19a10 10 0 0 1 10 -10"></path>
</g>
<path d="M1396 923h20"></path>
</g>
</g>
<path d="M1416 923a10 10 0 0 0 10 -10v-865"></path>
<path d="M842 48v934a10 10 0 0 0 10 10"></path>
<g>
<path d="M852 992h0"></path>
<path d="M1040 992h376"></path>
<g class="terminal">
<path d="M852 992h0"></path>
<path d="M952 992h0"></path>
<rect x="852" y="981" width="100" height="22" rx="10" ry="10"></rect>
<text x="902" y="996">"CURRENCY"</text>
</g>
<path d="M952 992h10"></path>
<path d="M962 992h10"></path>
<g class="non-terminal">
<path d="M972 992h0"></path>
<path d="M1040 992h0"></path>
<rect x="972" y="981" width="68" height="22"></rect>
<a xlink:href="reuse_source.svg"><text x="1006" y="996">Source</text>
</a>
</g>
</g>
<path d="M1416 992a10 10 0 0 0 10 -10v-934"></path>
<path d="M842 48v964a10 10 0 0 0 10 10"></path>
<g class="terminal">
<path d="M852 1022h0"></path>
<path d="M944 1022h472"></path>
<rect x="852" y="1011" width="92" height="22" rx="10" ry="10"></rect>
<text x="898" y="1026">"NO-SIGN"</text>
</g>
<path d="M1416 1022a10 10 0 0 0 10 -10v-964"></path>
<g class="diagram-text">
<title>take one or more branches, once each, in any order</title>
<path d="M 842 38 h -26 a 4 4 0 0 0 -4 4 v 12 a 4 4 0 0 0 4 4 h 26 z" class="diagram-text"></path>
<text x="827" y="52" class="diagram-text">1+</text>
<path d="M 1426 38 h 16 a 4 4 0 0 1 4 4 v 12 a 4 4 0 0 1 -4 4 h -16 z" class="diagram-text"></path>
<path d="M 1433 46 a 4 4 0 1 0 6 -1 m 2.75 -1 h -4 v 4 m 0 -3 h 2" style="stroke-width: 1.75"></path>
</g>
</g>
<path d="M1446 48h20"></path>
</g>
</g>
<path d="M1466 48h10"></path>
<path d="M 1476 48 h 20 m -10 -10 v 20 m 10 -20 v 20"></path>
</g>
</svg>
