<svg xmlns="http://www.w3.org/2000/svg" xmlns:xlink="http://www.w3.org/1999/xlink" class="railroad-diagram" width="884" height="341" viewBox="0 0 884 341">
<defs>
<style type="text/css"><![CDATA[
path {
stroke-width: 3;
stroke: black;
fill: rgba(0,0,0,0);
}
text {
font: bold 14px monospace;
text-anchor: middle;
}
text.diagram-text {
font-size: 12px;
}
a {
fill: blue;
}
text.diagram-arrow {
font-size: 16px;
}
text.label {
text-anchor: start;
}
text.comment {
font: italic 12px monospace;
}
rect {
stroke-width: 3;
stroke: black;
fill: #BCBCBC;
}
path.diagram-text {
stroke-width: 3;
stroke: black;
fill: #BCBCBC;
cursor: help;
}
]]></style>
</defs>
<g transform="translate(.5 .5)">
<path d="M 20 30 v 20 m 10 -20 v 20 m -10 -10 h 20.5"></path>
<path d="M40 40h10"></path>
<g>
<path d="M50 40h0"></path>
<path d="M834 40h0"></path>
<g class="terminal">
<path d="M50 40h0"></path>
<path d="M126 40h0"></path>
<rect x="50" y="29" width="76" height="22" rx="10" ry="10"></rect>
<text x="88" y="44">"WRITE"</text>
</g>
<path d="M126 40h10"></path>
<g>
<path d="M136 40h0"></path>
<path d="M372 40h0"></path>
<path d="M136 40a10 10 0 0 0 10 -10v0a10 10 0 0 1 10 -10"></path>
<g>
<path d="M156 20h196"></path>
</g>
<path d="M352 20a10 10 0 0 1 10 10v0a10 10 0 0 0 10 10"></path>
<path d="M136 40h20"></path>
<g>
<path d="M156 40h0"></path>
<path d="M352 40h0"></path>
<path d="M156 40h20"></path>
<g>
<path d="M176 40h0"></path>
<path d="M332 40h0"></path>
<g class="terminal">
<path d="M176 40h0"></path>
<path d="M228 40h0"></path>
<rect x="176" y="29" width="52" height="22" rx="10" ry="10"></rect>
<text x="202" y="44">"AT"</text>
</g>
<path d="M228 40h10"></path>
<path d="M238 40h10"></path>
<g class="terminal">
<path d="M248 40h0"></path>
<path d="M332 40h0"></path>
<rect x="248" y="29" width="84" height="22" rx="10" ry="10"></rect>
<text x="290" y="44">^\/?\d+$</text>
</g>
</g>
<path d="M332 40h20"></path>
<path d="M156 40a10 10 0 0 1 10 10v10a10 10 0 0 0 10 10"></path>
<g class="terminal">
<path d="M176 70h56"></path>
<path d="M276 70h56"></path>
<rect x="232" y="59" width="44" height="22" rx="10" ry="10"></rect>
<text x="254" y="74">"/"</text>
</g>
<path d="M332 70a10 10 0 0 0 10 -10v-10a10 10 0 0 1 10 -10"></path>
</g>
<path d="M352 40h20"></path>
</g>
<g>
<path d="M372 40h0"></path>
<path d="M480 40h0"></path>
<path d="M372 40a10 10 0 0 0 10 -10v0a10 10 0 0 1 10 -10"></path>
<g>
<path d="M392 20h68"></path>
</g>
<path d="M460 20a10 10 0 0 1 10 10v0a10 10 0 0 0 10 10"></path>
<path d="M372 40h20"></path>
<g class="non-terminal">
<path d="M392 40h0"></path>
<path d="M460 40h0"></path>
<rect x="392" y="29" width="68" height="22"></rect>
<a xlink:href="reuse_source.svg"><text x="426" y="44">source</text>
</a>
</g>
<path d="M460 40h20"></path>
</g>
<g>
<path d="M480 40h0"></path>
<path d="M834 40h0"></path>
<path d="M480 40a10 10 0 0 0 10 -10v0a10 10 0 0 1 10 -10"></path>
<g>
<path d="M500 20h314"></path>
</g>
<path d="M814 20a10 10 0 0 1 10 10v0a10 10 0 0 0 10 10"></path>
<path d="M480 40h20"></path>
<g>
<path d="M500 40h0"></path>
<path d="M814 40h0"></path>
<path d="M530 40h10"></path>
<g>
<path d="M540 40h0"></path>
<path d="M784 40h0"></path>
<g class="terminal">
<path d="M540 40h0"></path>
<path d="M696 40h0"></path>
<rect x="540" y="29" width="156" height="22" rx="10" ry="10"></rect>
<text x="618" y="44">"USING EDIT MASK"</text>
</g>
<path d="M696 40h10"></path>
<path d="M706 40h10"></path>
<g class="non-terminal">
<path d="M716 40h0"></path>
<path d="M784 40h0"></path>
<rect x="716" y="29" width="68" height="22"></rect>
<a xlink:href="reuse_source.svg"><text x="750" y="44">source</text>
</a>
</g>
</g>
<path d="M784 40h10"></path>
<path d="M530 40v20a10 10 0 0 0 10 10"></path>
<g>
<path d="M540 70h52"></path>
<path d="M732 70h52"></path>
<g class="terminal">
<path d="M592 70h0"></path>
<path d="M644 70h0"></path>
<rect x="592" y="59" width="52" height="22" rx="10" ry="10"></rect>
<text x="618" y="74">"TO"</text>
</g>
<path d="M644 70h10"></path>
<path d="M654 70h10"></path>
<g class="non-terminal">
<path d="M664 70h0"></path>
<path d="M732 70h0"></path>
<rect x="664" y="59" width="68" height="22"></rect>
<a xlink:href="reuse_target.svg"><text x="698" y="74">target</text>
</a>
</g>
</g>
<path d="M784 70a10 10 0 0 0 10 -10v-20"></path>
<path d="M530 40v50a10 10 0 0 0 10 10"></path>
<g class="terminal">
<path d="M540 100h64"></path>
<path d="M720 100h64"></path>
<rect x="604" y="89" width="116" height="22" rx="10" ry="10"></rect>
<text x="662" y="104">"EXPONENT 0"</text>
</g>
<path d="M784 100a10 10 0 0 0 10 -10v-50"></path>
<path d="M530 40v80a10 10 0 0 0 10 10"></path>
<g class="terminal">
<path d="M540 130h60"></path>
<path d="M724 130h60"></path>
<rect x="600" y="119" width="124" height="22" rx="10" ry="10"></rect>
<text x="662" y="134">"NO-GROUPING"</text>
</g>
<path d="M784 130a10 10 0 0 0 10 -10v-80"></path>
<path d="M530 40v110a10 10 0 0 0 10 10"></path>
<g class="terminal">
<path d="M540 160h76"></path>
<path d="M708 160h76"></path>
<rect x="616" y="149" width="92" height="22" rx="10" ry="10"></rect>
<text x="662" y="164">"NO-ZERO"</text>
</g>
<path d="M784 160a10 10 0 0 0 10 -10v-110"></path>
<path d="M530 40v140a10 10 0 0 0 10 10"></path>
<g class="terminal">
<path d="M540 190h48"></path>
<path d="M736 190h48"></path>
<rect x="588" y="179" width="148" height="22" rx="10" ry="10"></rect>
<text x="662" y="194">"LEFT-JUSTIFIED"</text>
</g>
<path d="M784 190a10 10 0 0 0 10 -10v-140"></path>
<path d="M530 40v170a10 10 0 0 0 10 10"></path>
<g>
<path d="M540 220h44"></path>
<path d="M740 220h44"></path>
<g class="terminal">
<path d="M584 220h0"></path>
<path d="M652 220h0"></path>
<rect x="584" y="209" width="68" height="22" rx="10" ry="10"></rect>
<text x="618" y="224">"UNIT"</text>
</g>
<path d="M652 220h10"></path>
<path d="M662 220h10"></path>
<g class="non-terminal">
<path d="M672 220h0"></path>
<path d="M740 220h0"></path>
<rect x="672" y="209" width="68" height="22"></rect>
<a xlink:href="reuse_source.svg"><text x="706" y="224">source</text>
</a>
</g>
</g>
<path d="M784 220a10 10 0 0 0 10 -10v-170"></path>
<path d="M530 40v200a10 10 0 0 0 10 10"></path>
<g>
<path d="M540 250h28"></path>
<path d="M756 250h28"></path>
<g class="terminal">
<path d="M568 250h0"></path>
<path d="M668 250h0"></path>
<rect x="568" y="239" width="100" height="22" rx="10" ry="10"></rect>
<text x="618" y="254">"DECIMALS"</text>
</g>
<path d="M668 250h10"></path>
<path d="M678 250h10"></path>
<g class="non-terminal">
<path d="M688 250h0"></path>
<path d="M756 250h0"></path>
<rect x="688" y="239" width="68" height="22"></rect>
<a xlink:href="reuse_source.svg"><text x="722" y="254">source</text>
</a>
</g>
</g>
<path d="M784 250a10 10 0 0 0 10 -10v-200"></path>
<path d="M530 40v230a10 10 0 0 0 10 10"></path>
<g>
<path d="M540 280h28"></path>
<path d="M756 280h28"></path>
<g class="terminal">
<path d="M568 280h0"></path>
<path d="M668 280h0"></path>
<rect x="568" y="269" width="100" height="22" rx="10" ry="10"></rect>
<text x="618" y="284">"CURRENCY"</text>
</g>
<path d="M668 280h10"></path>
<path d="M678 280h10"></path>
<g class="non-terminal">
<path d="M688 280h0"></path>
<path d="M756 280h0"></path>
<rect x="688" y="269" width="68" height="22"></rect>
<a xlink:href="reuse_source.svg"><text x="722" y="284">source</text>
</a>
</g>
</g>
<path d="M784 280a10 10 0 0 0 10 -10v-230"></path>
<path d="M530 40v260a10 10 0 0 0 10 10"></path>
<g class="terminal">
<path d="M540 310h76"></path>
<path d="M708 310h76"></path>
<rect x="616" y="299" width="92" height="22" rx="10" ry="10"></rect>
<text x="662" y="314">"NO-SIGN"</text>
</g>
<path d="M784 310a10 10 0 0 0 10 -10v-260"></path>
<g class="diagram-text">
<title>take one or more branches, once each, in any order</title>
<path d="M 530 30 h -26 a 4 4 0 0 0 -4 4 v 12 a 4 4 0 0 0 4 4 h 26 z" class="diagram-text"></path>
<text x="515" y="44" class="diagram-text">1+</text>
<path d="M 794 30 h 16 a 4 4 0 0 1 4 4 v 12 a 4 4 0 0 1 -4 4 h -16 z" class="diagram-text"></path>
<path d="M 801 38 a 4 4 0 1 0 6 -1 m 2.75 -1 h -4 v 4 m 0 -3 h 2" style="stroke-width: 1.75"></path>
</g>
</g>
<path d="M814 40h20"></path>
</g>
</g>
<path d="M834 40h10"></path>
<path d="M 844 40 h 20 m -10 -10 v 20 m 10 -20 v 20"></path>
</g>
</svg>
